<svg xmlns="http://www.w3.org/2000/svg" width="16" height="16"><style type="text/css">.icon-canvas-transparent{opacity:0;fill:#F6F6F6;} .icon-vs-out{fill:#F6F6F6;} .icon-vs-bg{fill:#424242;}</style><path class="icon-canvas-transparent" d="M16 16h-16v-16h16v16z" id="canvas"/><path class="icon-vs-out" d="M13 12v-1.191l-.923-2.309.923-2.308v-1.192h-5v-1h-1.75l-.266.199-.327.228-.348.201-.333.155-.311.117-.665.236v2.854l1-.291v4.301h8zm-5-5.807l.923 2.307-.923 2.308v-4.615z" id="outline"/><path class="icon-vs-bg" d="M7 5v6h-1v-4.801c-.139.096-.28.188-.436.259-.164.075-.359.14-.564.199v-.815l.355-.134.416-.193.414-.238.398-.277h.417zm5 1h-1l-.5 1.25-.5-1.25h-1l1 2.5-1 2.5h1l.5-1.25.5 1.25h1l-1-2.5 1-2.5z" id="iconBg"/></svg>