<svg xmlns="http://www.w3.org/2000/svg" width="16" height="16"><style type="text/css">.icon-canvas-transparent{opacity:0;fill:#F6F6F6;} .icon-vs-out{fill:#F6F6F6;} .icon-vs-bg{fill:#424242;}</style><path class="icon-canvas-transparent" d="M16 16h-16v-16h16v16z" id="canvas"/><path class="icon-vs-out" d="M13 10.809l-.923-2.309.923-2.308v-1.192h-5.477l.018.045c-.07-.108-.143-.216-.227-.306-.229-.25-.51-.441-.827-.563-.295-.117-.619-.176-.964-.176-.197 0-.385.018-.56.049-.193.035-.38.09-.554.164-.162.069-.32.153-.472.253-.145.095-.291.209-.431.337l-.322.297v4.102l.323-.384-.168.3c-.103.208-.184.426-.241.646-.065.245-.098.507-.098.779v1.457h10v-1.191zm-5-.001v-1.627h-1.104l.237-.266c.168-.198.315-.412.441-.642.128-.238.228-.495.295-.764.069-.273.104-.572.104-.888 0-.244-.031-.47-.077-.688l1.027 2.567-.923 2.308z" id="outline"/><path class="icon-vs-bg" d="M11 8.5l1 2.5h-1l-.5-1.25-.5 1.25h-1l1-2.5-1-2.5h1l.5 1.25.5-1.25h1l-1 2.5zm-4 1.681h-2.144v-.021c0-.118.032-.235.097-.352.064-.116.148-.233.252-.35l.35-.358.393-.376c.154-.156.296-.308.422-.456.126-.148.233-.305.323-.469.089-.165.158-.344.206-.533.048-.19.073-.406.073-.645 0-.264-.035-.496-.104-.699-.067-.203-.165-.373-.292-.508-.125-.137-.277-.239-.457-.309-.178-.07-.377-.105-.596-.105-.134 0-.263.012-.382.033-.12.022-.234.055-.342.101l-.315.169c-.101.066-.203.146-.3.236v.918c.189-.226.386-.394.591-.506.205-.113.407-.17.605-.17.115 0 .221.02.318.061.098.04.182.099.252.177.072.078.127.176.166.292.041.116.059.254.059.41 0 .143-.016.273-.051.396-.032.123-.079.238-.141.348-.06.11-.134.217-.22.319l-.284.314-.338.336-.338.345c-.112.12-.215.243-.312.371-.096.127-.182.264-.255.408-.07.144-.129.297-.172.461-.043.163-.064.338-.064.524v.457h3v-.819z" id="iconBg"/></svg>