<svg xmlns="http://www.w3.org/2000/svg" viewBox="0 0 16 16" enable-background="new 0 0 16 16"><path fill="#F6F6F6" d="M11.721 13.427l.648.402-1.382 2.171h-.815l-3.489-2.187c-2.864-.571-5.075-2.456-5.571-4.813h.003c-.068-.328-.115-.66-.115-1 0-1.517.723-2.98 2-4.083v-.452l5.198-3.465h.605l5.197 3.465v.453c1.277 1.102 2 2.565 2 4.082 0 2.399-1.723 4.467-4.279 5.427z"/><path fill="#F0EFF1" d="M10.787 9.273l-1.787-1.131v-.874l3-2v3.197l-1.213.808zm.861-4.973l-3.148-2.098-3.148 2.098 3.148 2.099 3.148-2.099zm-3.648 2.968l-3-2v3.197l2.577 1.718.423-.664v-2.251z"/><path fill="#424242" d="M15 8c0-1.417-.769-2.693-2-3.603v-.397l-4.5-3-4.5 3v.397c-1.231.91-2 2.186-2 3.603 0 1.769 1.198 3.32 3 4.209v-1.126c-1.221-.734-2-1.844-2-3.083 0-.853.372-1.643 1-2.293v3.293l3.04 2.027.537-.844-2.577-1.718v-3.197l3 2v2.251l.912-1.433.088.056v-.874l3-2v3.197l-1.213.808.877.555c.823-.725 1.336-1.724 1.336-2.828v-1.293c.628.65 1 1.44 1 2.293 0 2.128-2.298 3.868-5.182 3.988l1.245-1.954-.844-.552-2.148 3.367 3.374 2.14.537-.844-1.884-1.169c3.31-.232 5.902-2.37 5.902-4.976zm-6.5-1.601l-3.148-2.099 3.148-2.098 3.148 2.098-3.148 2.099z"/></svg>