<svg xmlns="http://www.w3.org/2000/svg" viewBox="0 0 16 16" enable-background="new 0 0 16 16"><path fill="#F6F6F6" d="M13 7v3h.052l-.052.052v1.362l-3.586 3.586h-8.414v-8.414l3.586-3.586h4.414v-2h6v6h-2z"/><path fill="#F0EFF1" d="M4 13l2-2h4.637l-2.001 2h-4.636zm1-7.586l-2 2v5.172l2-2v-5.172zm3.354 4.354l-2.122-2.122 2.647-2.646h-2.879v5h5v-2.879l-2.646 2.647z"/><path fill="#424242" d="M14 2v4h-1v-2.293l-4.646 4.647-.708-.708 4.647-4.646h-2.293v-1h4zm-2 4.121v4.879l-3 3h-7v-7l3-3h4.879l-1 1h-2.879v5h5v-2.879l1-1zm-8.707 6.172l1.707-1.707v-5.172l-2 2v5.172l.293-.293zm7.344-1.293h-4.637l-2 2h4.636l2.001-2z"/></svg>