<svg xmlns="http://www.w3.org/2000/svg" viewBox="0 0 16 16" enable-background="new 0 0 16 16"><path fill="#F6F6F6" d="M15.981 7.525c0 1.94-1.212 3.611-2.981 4.249v.807l-4.5 2.571-4.5-2.572v-.359c-1.822-.435-3.067-1.665-3.067-3.14 0-.455.109-.894.323-1.303l3.889-7.778h.643l2.262 4.525c.845-.96 2.07-1.533 3.397-1.533 2.5 0 4.534 2.033 4.534 4.533z"/><path fill="#F0EFF1" d="M10.488 8.289l-1.988 1.136-1.989-1.136 1.989-1.137 1.988 1.137zm-4.488 3.131l2 1.143v-2.271l-2-1.144v2.272zm3-1.129v2.271l2-1.143v-2.271l-2 1.143zm-4-2.291l1.986-1.135-1.519-3.036-2.435 4.869c-.067.128-.099.254-.099.383 0 .556.83 1.166 2.067 1.292v-2.373zm6.448-3.008c-.989 0-1.839.575-2.256 1.404l2.808 1.604v1.992c1.131-.253 1.981-1.262 1.981-2.468 0-1.396-1.136-2.532-2.533-2.532z"/><path fill="#424242" d="M11.448 3.992c-1.473 0-2.735.907-3.265 2.19l-.328.187-2.388-4.776-3.325 6.649c-.139.265-.209.547-.209.839 0 1.195 1.316 2.142 3.067 2.289v.63l3.5 2 3.5-2v-.998c1.685-.267 2.981-1.718 2.981-3.477 0-1.948-1.585-3.533-3.533-3.533zm-2.948 3.16l1.988 1.136-1.988 1.137-.031-.018-1.958-1.118 1.989-1.137zm-5.567 1.929c0-.129.032-.255.099-.383l2.435-4.869 1.519 3.037-1.986 1.134v2.373c-1.237-.126-2.067-.736-2.067-1.292zm5.067 3.482l-2-1.143v-2.272l2 1.143v2.272zm3-1.143l-2 1.143v-2.271l2-1.143v2.271zm1-1.427v-1.993l-2.808-1.604c.417-.829 1.267-1.404 2.256-1.404 1.397 0 2.533 1.136 2.533 2.533 0 1.206-.85 2.215-1.981 2.468z"/></svg>