<svg xmlns="http://www.w3.org/2000/svg" width="16" height="16"><style type="text/css">.icon-canvas-transparent{opacity:0;fill:#F6F6F6;} .icon-vs-out{fill:#F6F6F6;} .icon-vs-bg{fill:#424242;} .icon-vs-fg{fill:#F0EFF1;}</style><path class="icon-canvas-transparent" d="M16 16h-16v-16h16v16z" id="canvas"/><path class="icon-vs-out" d="M16 15h-15v-15h15v15z" id="outline"/><path class="icon-vs-bg" d="M2 1v13h13v-13h-13zm1 12v-11h2v11h-2zm3 0v-11h2v11h-2zm3 0v-11h2v11h-2zm5 0h-2v-11h2v11z" id="iconBg"/><path class="icon-vs-fg" d="M12 13v-11h2v11h-2zm-9-11v11h2v-11h-2zm6 0v11h2v-11h-2zm-3 0v11h2v-11h-2z" id="iconFg"/></svg>