<svg xmlns="http://www.w3.org/2000/svg" width="16" height="16"><style type="text/css">.icon-canvas-transparent{opacity:0;fill:#F6F6F6;} .icon-vs-out{fill:#F6F6F6;} .icon-vs-bg{fill:#424242;} .icon-vs-fg{fill:#F0EFF1;}</style><path class="icon-canvas-transparent" d="M16 16h-16v-16h16v16z" id="canvas"/><path class="icon-vs-out" d="M1 15v-15h15v15h-15z" id="outline"/><path class="icon-vs-bg" d="M2 1v13h13v-13h-13zm12 12h-11v-2h11v2zm0-3h-11v-2h11v2zm0-3h-11v-2h11v2zm-11-3v-2h11v2h-11z" id="iconBg"/><path class="icon-vs-fg" d="M3 8h11v2h-11v-2zm0-1h11v-2h-11v2zm11-5h-11v2h11v-2zm-11 11h11v-2h-11v2z" id="iconFg"/></svg>