<svg xmlns="http://www.w3.org/2000/svg" width="16" height="16"><style type="text/css">.icon-canvas-transparent{opacity:0;fill:#F6F6F6;} .icon-vs-out{fill:#F6F6F6;} .icon-vs-bg{fill:#424242;}</style><path class="icon-canvas-transparent" d="M16 16h-16v-16h16v16z" id="canvas"/><path class="icon-vs-out" d="M7.523 12l.215-.537c-.18.124-.372.234-.576.317-.351.143-.75.216-1.154.216-.438 0-.852-.088-1.229-.262-.387-.179-.723-.443-.998-.787-.26-.326-.458-.723-.593-1.179-.125-.421-.188-.907-.188-1.441 0-.637.081-1.218.239-1.725.167-.535.406-.997.709-1.373.318-.395.703-.703 1.142-.913.44-.21.917-.316 1.419-.316.279 0 .533.021.762.058.276.045.733.111.929.204l.8.271v.467h4v1.192l-.923 2.308.923 2.309v1.191h-5.477z" id="outline"/><path class="icon-vs-bg" d="M11 8.5l1 2.5h-1l-.5-1.25-.5 1.25h-1l1-2.5-1-2.5h1l.5 1.25.5-1.25h1l-1 2.5zm-3.19-.219c-.079-.222-.191-.411-.336-.566-.146-.154-.322-.274-.527-.356-.205-.082-.435-.123-.691-.123-.289 0-.54.055-.752.165-.214.111-.383.262-.508.453h-.025c.003-.34.043-.64.124-.899.081-.26.191-.478.331-.655.14-.177.307-.311.5-.402.192-.092.404-.138.632-.138.204 0 .384.024.542.073.158.049.306.108.445.178v-.845c-.109-.052-.254-.092-.435-.121-.18-.029-.381-.045-.601-.045-.354 0-.683.073-.988.219-.305.146-.57.358-.795.639-.226.279-.403.627-.532 1.042-.13.415-.194.891-.194 1.427 0 .44.049.826.147 1.159.098.332.235.611.414.836.178.223.391.391.636.504.246.113.516.17.81.17.274 0 .529-.047.764-.143.236-.096.438-.231.61-.404.171-.174.305-.381.401-.621.097-.24.145-.506.145-.797.001-.278-.038-.527-.117-.75zm-.9 1.27c-.041.137-.102.254-.183.353-.08.102-.18.178-.3.234-.119.057-.256.086-.412.086-.174 0-.325-.039-.451-.115-.127-.076-.23-.176-.313-.293-.08-.119-.14-.251-.18-.395-.04-.145-.059-.285-.059-.422 0-.127.021-.251.063-.372.042-.121.105-.229.19-.323.084-.095.188-.171.312-.229.123-.057.267-.087.43-.087.163 0 .304.027.426.08.122.054.221.131.302.229.081.099.14.217.18.354.04.137.06.29.06.457-.001.159-.023.306-.065.443z" id="iconBg"/></svg>