<svg xmlns="http://www.w3.org/2000/svg" width="16" height="16"><style type="text/css">.icon-canvas-transparent{opacity:0;fill:#F6F6F6;} .icon-vs-out{fill:#F6F6F6;} .icon-vs-bg{fill:#424242;}</style><path class="icon-canvas-transparent" d="M16 16h-16v-16h16v16z" id="canvas"/><path class="icon-vs-out" d="M13 12v-1.193l-.923-2.307.923-2.308v-1.192h-4.771c-.098-.116-.201-.226-.319-.321-.25-.208-.547-.371-.877-.484-.323-.112-.675-.17-1.047-.17-.366 0-.713.055-1.031.164-.33.112-.626.274-.883.485-.27.223-.484.49-.633.791-.161.321-.243.67-.243 1.038 0 .425.111.822.332 1.18l-.104.146c-.143.218-.252.459-.318.701-.07.241-.106.497-.106.763 0 .403.083.782.245 1.118.16.34.385.635.675.881.269.225.586.402.949.528.346.119.727.18 1.131.18.405 0 .786-.061 1.138-.18.203-.07.388-.161.562-.264l-.177.444h5.477z" id="outline"/><path class="icon-vs-bg" d="M11 8.5l1 2.5h-1l-.5-1.25-.5 1.25h-1l1-2.5-1-2.5h1l.5 1.25.5-1.25h1l-1 2.5zm-6.85 1.486c.099.21.236.39.413.539.178.149.388.265.632.35.243.084.511.125.805.125.294 0 .564-.041.811-.125.245-.085.456-.2.631-.35.176-.149.313-.329.411-.539.097-.209.145-.439.145-.693 0-.17-.022-.332-.067-.487-.044-.157-.111-.301-.201-.432-.088-.132-.199-.249-.332-.353-.131-.104-.284-.188-.458-.253.254-.14.458-.319.61-.538.153-.22.23-.463.23-.729 0-.21-.044-.404-.134-.585-.089-.18-.213-.336-.375-.468-.159-.132-.35-.235-.568-.31-.218-.075-.457-.113-.717-.113-.256 0-.493.037-.71.111-.217.074-.406.177-.567.309-.159.132-.286.287-.376.468-.09.181-.136.376-.136.589 0 .266.077.509.231.729.153.218.358.397.619.538-.176.064-.33.15-.461.254-.131.104-.239.223-.326.354-.086.132-.151.277-.194.433-.045.155-.066.317-.066.483 0 .254.05.484.15.693zm.875-1.205c.053-.132.126-.246.22-.341.093-.095.205-.169.335-.222.128-.051.27-.078.42-.078.158 0 .302.028.432.085.13.055.241.132.333.229.092.098.163.211.213.341.05.13.077.27.077.417 0 .162-.027.308-.08.438-.055.13-.126.244-.221.334-.093.094-.205.165-.333.215-.127.049-.268.075-.421.075-.161 0-.304-.026-.434-.074-.129-.048-.24-.117-.332-.21-.091-.091-.164-.203-.213-.334-.051-.133-.075-.279-.075-.444 0-.156.027-.298.079-.431zm.186-2.51c.041-.104.098-.195.171-.273.075-.078.162-.139.267-.185.103-.042.217-.066.341-.066.121 0 .231.021.335.065.105.043.194.103.268.178.076.075.135.166.178.27.043.106.066.218.066.339 0 .119-.023.23-.067.333-.046.104-.106.194-.183.27-.077.076-.167.137-.268.181-.101.045-.212.067-.329.067-.117 0-.226-.021-.327-.064-.102-.044-.191-.104-.266-.18-.077-.077-.135-.167-.18-.271-.044-.103-.067-.216-.067-.337 0-.116.021-.225.061-.327z" id="iconBg"/></svg>