<svg xmlns="http://www.w3.org/2000/svg" width="16" height="16"><style type="text/css">.icon-canvas-transparent{opacity:0;fill:#F6F6F6;} .icon-vs-out{fill:#F6F6F6;} .icon-vs-bg{fill:#424242;}</style><path class="icon-canvas-transparent" d="M16 16h-16v-16h16v16z" id="canvas"/><path class="icon-vs-out" d="M16 8v5h-16v-5h2.632l1.671-5h2.413l1.284 3.826v-3.803h2.838c.412 0 .787.054 1.113.16.347.112.649.274.897.483.272.233.474.504.604.811.124.287.189.599.189.923 0 .276-.045.544-.133.797-.054.148-.117.286-.191.415.191.208.345.465.449.753.072.198.109.413.128.635h2.106z" id="outline"/><path class="icon-vs-bg" d="M2 11h1v1h-2v-3h1v2zm4 1h1v-1h-1v1zm4 0h1v-1h-1v1zm-2 0h1v-1h-1v1zm-1.3-3h-2.379l-.3 1h-1.002l2.005-6h.974l2.013 6h-1.011l-.3-1zm-.306-1l-.883-2.876-.883 2.876h1.766zm6.522.259c0 .278-.053.525-.158.74-.106.216-.25.396-.433.546-.182.148-.396.262-.641.34-.245.076-.504.115-.781.115h-1.903v-5.977h1.838c.309 0 .577.037.804.111.227.073.415.173.563.297.147.125.257.271.328.438.072.167.108.344.108.53 0 .167-.026.322-.077.468-.053.146-.123.278-.216.396-.092.118-.202.221-.331.311-.128.089-.269.159-.424.209v.017c.203.027.386.082.551.16.163.08.303.182.417.307.116.124.204.27.265.438.06.166.09.35.09.554zm-2.916-3.415v1.656h.587c.326 0 .581-.08.76-.237.181-.158.271-.383.271-.675 0-.236-.087-.419-.26-.549-.173-.128-.427-.194-.763-.194h-.595zm1.893 3.39c0-.284-.101-.506-.302-.669-.201-.163-.499-.245-.895-.245h-.696v1.86h.781c.187 0 .35-.023.489-.072.139-.051.255-.116.347-.2.093-.085.161-.186.207-.301.047-.115.069-.24.069-.373zm2.107.766v2h-2v1h3v-3h-1zm-10 3h1v-1h-1v1z" id="iconBg"/></svg>