<svg xmlns="http://www.w3.org/2000/svg" width="16" height="16"><style type="text/css">.icon-canvas-transparent{opacity:0;fill:#F6F6F6;} .icon-vs-out{fill:#F6F6F6;} .icon-vs-bg{fill:#424242;}</style><path class="icon-canvas-transparent" d="M16 16h-16v-16h16v16z" id="canvas"/><path class="icon-vs-out" d="M16 15h-16v-15h16v15z" id="outline"/><path class="icon-vs-bg" d="M1 13h14v1h-14v-1zm2-4h-2v1h2v-1zm-2 3h14v-1h-14v1zm2-5h-2v1h2v-1zm0-2h-2v1h2v-1zm-2-4v1h14v-1h-14zm3 4v3h4v-3h-4zm-3-1h14v-1h-14v1zm11 2h3v-1h-3v1zm0 4h3v-1h-3v1zm0-2h3v-1h-3v1z" id="iconBg"/></svg>