<svg xmlns="http://www.w3.org/2000/svg" width="16" height="16"><style type="text/css">.icon-canvas-transparent{opacity:0;fill:#F6F6F6;} .icon-vs-out{fill:#F6F6F6;} .icon-vs-bg{fill:#424242;} .icon-vs-fg{fill:#F0EFF1;}</style><path class="icon-canvas-transparent" d="M16 16h-16v-16h16v16z" id="canvas"/><path class="icon-vs-out" d="M0 16v-12.414l3.586-3.586h12.414v12.414l-3.586 3.586h-12.414z" id="outline"/><path class="icon-vs-bg" d="M4.707 12h6.293v2h-8.293l2-2zm-.707-7h-2v8.293l2-2v-6.293zm.414-3l-2 2h8.879l2-2h-8.879zm.586 9h6v-6h-6v6zm7 2.586l2-2v-8.879l-2 2v8.879zm3-12.586v11l-3 3h-11v-11l3-3h11zm-13 12.293l2-2v-6.293h-2v8.293zm9-1.293h-6.293l-2 2h8.293v-2zm0-7h-6v6h6v-6zm2.293-3h-8.879l-2 2h8.879l2-2zm.707.707l-2 2v8.879l2-2v-8.879z" id="iconBg"/><path class="icon-vs-fg" d="M4 11.293l-2 2v-8.293h2v6.293zm7 .707h-6.293l-2 2h8.293v-2zm0-7h-6v6h6v-6zm.293-1l2-2h-8.879l-2 2h8.879zm2.707 7.586v-8.879l-2 2v8.879l2-2z" id="iconFg"/></svg>