<svg xmlns="http://www.w3.org/2000/svg" viewBox="0 0 16 16"><path fill="#F6F6F6" d="M16 8.914l-1.171 1.171A7.5 7.5 0 1 1 6 1.151V0h3v4.371l2 2.008 1.646-1.646L16 8.086v.828z"/><path fill="#424242" d="M3.276 12.017l-.709.709A6.47 6.47 0 0 1 1.025 9h1a5.482 5.482 0 0 0 1.251 3.017zm0-7.034l-.709-.709A6.47 6.47 0 0 0 1.025 8h1a5.482 5.482 0 0 1 1.251-3.017zM6 3.221V2.183a6.48 6.48 0 0 0-2.726 1.384l.709.709A5.491 5.491 0 0 1 6 3.221zm2 10.754v1a6.464 6.464 0 0 0 3.726-1.542l-.709-.709A5.482 5.482 0 0 1 8 13.975zm-4.726-.542A6.47 6.47 0 0 0 7 14.975v-1a5.475 5.475 0 0 1-3.017-1.251l-.709.709zm9.372-7.287l-.707.707L13.086 8H9.914l-1 1h4.172l-1.146 1.146.707.707L15 8.5l-2.354-2.354zm-3.5-.207L8 7.086V1H7v6.086L5.854 5.939l-.708.707L7.5 9l2.354-2.354-.708-.707z"/></svg>