<svg xmlns="http://www.w3.org/2000/svg" viewBox="0 0 16 16" enable-background="new 0 0 16 16"><path fill="#F6F6F6" d="M7.103 13l-1.023-.965-.43.965h-5.65v-3h1v-2h1v-2h1v-2h1v-2h12v11h-8.897z"/><path fill="#F0EFF1" d="M10.361 4.649l.949-.649h2.69v7h-6.103l-.252-.238 2.716-6.113z"/><g fill="#424242"><polygon points="8.111,5 4,5 4,6 7.666,6"/><polygon points="9,3 5,3 5,4 8.556,4"/><polygon points="7.223,7 3,7 3,8 6.777,8"/><path d="M9.563 3.984l-3.119 7.02 1.056.996h7.5v-9h-4l-1.437.984zm4.437.016v7h-6.103l-.252-.238 2.716-6.113.949-.649h2.69z"/><polygon points="2,10 5.889,10 6.334,9 2,9"/><polygon points="1,12 5,12 5.444,11 1,11"/></g></svg>