<svg xmlns="http://www.w3.org/2000/svg" viewBox="0 0 16 16" enable-background="new 0 0 16 16"><path fill="#F6F6F6" d="M10 12l-.143-.007c.662.823 1.1 1.823 1.217 2.899l.121 1.108h-11.195v-1.459c.235-1.339.934-2.552 1.978-3.4-.589-.765-.919-1.71-.919-2.7 0-2.023 1.367-3.715 3.22-4.249.766-2.43 3.037-4.192 5.721-4.192 3.314 0 6 2.686 6 6s-2.686 6-6 6z"/><path fill="#F0EFF1" d="M7.941 8.441c0 1.346-1.095 2.441-2.44 2.441-1.347 0-2.441-1.095-2.441-2.441-.001-1.346 1.094-2.441 2.44-2.441 1.346 0 2.441 1.095 2.441 2.441zm-2.441 3.441c-1.824 0-3.321 1.361-3.568 3.118h7.134c-.245-1.757-1.743-3.118-3.566-3.118z"/><path d="M9.612 10.085c-.124.31-.282.604-.473.879.258.022.522.036.8.036 1.066 0 1.804-.15 2.517-.451v-.94c-.696.334-1.381.501-2.358.501l-.486-.025zm5.318-4.51c0 .968-.176 1.763-.679 2.383-.503.621-1.116.931-1.84.931-.936 0-1.406-.437-1.41-1.312h-.031c-.208.621-.565 1.011-1.056 1.191l.027-.326c0-.162-.031-.315-.048-.472.29-.091.532-.302.723-.64.26-.461.391-1.073.391-1.834 0-.797-.326-1.196-.977-1.196-.448 0-.809.22-1.083.659-.088.141-.139.312-.199.475-.256-.276-.541-.521-.859-.725.07-.126.141-.252.228-.367.458-.606 1.061-.909 1.81-.909.285 0 .539.078.763.235.224.157.368.345.434.565h.018l.091-.702h1.014c-.191 2.148-.287 3.243-.287 3.283 0 .806.209 1.209.629 1.209.382 0 .699-.225.952-.675.251-.45.459-1.1.459-1.817 0-1.058-.423-1.854-1.104-2.523-.682-.669-1.626-1.004-2.835-1.004-1.16 0-2.12.405-2.881 1.215-.26.276-.466.588-.645.915-.334-.08-.677-.134-1.035-.134l-.019.002c.216-.512.503-.986.918-1.406.968-.98 2.205-1.471 3.711-1.471 1.412 0 2.581.411 3.507 1.233.925.822 1.313 1.894 1.313 3.217zm-4.85 9.425h-1.013c-.246-1.757-1.744-3.118-3.567-3.118-1.824 0-3.321 1.361-3.568 3.118h-1.012c.18-1.648 1.226-3.034 2.677-3.696-.926-.617-1.538-1.669-1.538-2.863 0-1.897 1.544-3.441 3.441-3.441s3.44 1.544 3.44 3.441c0 1.194-.612 2.246-1.537 2.863 1.452.662 2.497 2.048 2.677 3.696zm-2.139-6.559c0-1.346-1.095-2.441-2.441-2.441-1.346 0-2.441 1.095-2.441 2.441 0 1.346 1.095 2.441 2.441 2.441 1.346 0 2.441-1.095 2.441-2.441z" fill="#424242"/></svg>