<svg xmlns="http://www.w3.org/2000/svg" viewBox="0 0 16 16" enable-background="new 0 0 16 16"><path fill="#F6F6F6" d="M16 0v15h-8v1h-.803l-2.697-1.349-2.697 1.349h-.803v-5.83c-.647-.8-1-1.786-1-2.82 0-2.313 1.753-4.223 4-4.472v-2.878h12z"/><path fill="#F0EFF1" d="M6 2v1.126c1.32.471 2.345 1.533 2.77 2.874h4.23v1h-4.035l.035.35c0 .22-.024.436-.055.65h4.055v1h-4.326c-.141.354-.329.689-.558 1h3.884v1h-4v2h6v-11h-8zm7 3h-4v-1h4v1zm-6 2.35c0 1.379-1.121 2.5-2.5 2.5s-2.5-1.121-2.5-2.5 1.121-2.5 2.5-2.5 2.5 1.121 2.5 2.5zm-4 3.149c.456.219.961.351 1.5.351s1.044-.133 1.5-.351v2.667l-1.5-.75-1.5.75v-2.667z"/><path fill="#424242" d="M8.77 6h4.23v1h-4.035c-.028-.347-.093-.68-.195-1zm4.23-2h-4v1h4v-1zm0 5v-1h-4.055c-.05.345-.143.679-.271 1h4.326zm-5 1.17v.83h4v-1h-3.885l-.115.17zm-3-9.17v1.9c.347.039.681.112 1 .226v-1.126h8v11h-6v1h7v-13h-10zm3 6.35c0 .95-.383 1.81-1 2.441v4.992l-2.5-1.25-2.5 1.25v-4.992c-.617-.631-1-1.491-1-2.441 0-1.93 1.57-3.5 3.5-3.5s3.5 1.57 3.5 3.5zm-2 3.149c-.456.219-.961.351-1.5.351s-1.044-.133-1.5-.351v2.667l1.5-.75 1.5.75v-2.667zm1-3.149c0-1.379-1.121-2.5-2.5-2.5s-2.5 1.121-2.5 2.5 1.121 2.5 2.5 2.5 2.5-1.121 2.5-2.5z"/></svg>