<svg xmlns="http://www.w3.org/2000/svg" width="16" height="16"><style type="text/css">.icon-canvas-transparent{opacity:0;fill:#F6F6F6;} .icon-vs-out{fill:#F6F6F6;} .icon-vs-bg{fill:#424242;} .icon-vs-fg{fill:#F0EFF1;}</style><path class="icon-canvas-transparent" d="M16 16h-16v-16h16v16z" id="canvas"/><path class="icon-vs-out" d="M16 12h-3v3h-6.687l.25 1h-3.002l-.279-.838-.28.838h-3.002l1.012-4.045c-.465-.539-.73-1.232-.73-1.955 0-1.558 1.198-2.827 2.719-2.972v-4.028h3v-3h10v12z" id="outline"/><path class="icon-vs-bg" d="M15 1v10h-2v-1h1v-8h-6v1h-1v-2h8zm-9 10h3v-1h-3v1zm4-5h-3v1h3v-1zm-4 3h4v-1h-4v1zm-2-5v3.097c.364.09.702.242 1 .451v-2.548h6v8h-5.188l.25 1h5.938v-10h-8zm1.281 6c0-1.104-.896-2-2-2s-2 .896-2 2c0 .672.334 1.264.844 1.627l-.844 3.373h1l1-3 1 3h1l-.844-3.373c.51-.363.844-.955.844-1.627zm-1 0c0-.553-.447-1-1-1s-1 .447-1 1c0 .553.447 1 1 1s1-.447 1-1z" id="iconBg"/><path class="icon-vs-fg" d="M4.281 10c0 .553-.447 1-1 1s-1-.447-1-1c0-.553.447-1 1-1s1 .447 1 1zm3.719-8v1h5v7h1v-8h-6zm-3 3h6v8h-5.188l-.261-1.045c.243-.281.428-.606.552-.955h2.897v-1h-2.719c0-.353-.072-.686-.184-1h3.903v-1h-4v.75c-.224-.483-.568-.898-1-1.202v-2.548zm2 2h3v-1h-3v1z" id="iconFg"/></svg>