<?xml version="1.0" encoding="iso-8859-1"?>
<!-- Generator: Adobe Illustrator 21.0.0, SVG Export Plug-In . SVG Version: 6.00 Build 0)  -->
<svg version="1.1" xmlns="http://www.w3.org/2000/svg" xmlns:xlink="http://www.w3.org/1999/xlink" x="0px" y="0px"
	 viewBox="0 0 16 16" style="enable-background:new 0 0 16 16;" xml:space="preserve">
<style type="text/css">
	.icon_x002D_canvas_x002D_transparent{opacity:0;fill:#F6F6F6;}
	.icon_x002D_vs_x002D_out{fill:#F6F6F6;}
	.icon_x002D_vs_x002D_bg{fill:#424242;}
	.icon_x002D_vs_x002D_fg{fill:#F0EFF1;}
	.icon_x002D_vs_x002D_blue{fill:#1BA1E2;}
</style>
<g id="canvas">
	<path id="XMLID_1_" class="icon_x002D_canvas_x002D_transparent" d="M16,16H0V0h16V16z"/>
</g>
<g id="outline">
	<path class="icon_x002D_vs_x002D_out" d="M16,3v6c0,1.711-2.149,3-5,3c-0.379,0-0.743-0.025-1.094-0.069C9.47,14.246,7.443,16,5,16
		c-2.761,0-5-2.238-5-5c0-1.643,0.804-3.088,2.027-4H2V4h4V3c0-1.71,2.149-3,5-3C13.851,0,16,1.29,16,3z"/>
</g>
<g id="iconFg">
	<path id="XMLID_7_" class="icon_x002D_vs_x002D_fg" d="M8,11c0,1.656-1.344,3-3,3c-1.657,0-3-1.344-3-3
		c0-1.568,1.209-2.842,2.743-2.975L4,11c0,0.553,0.448,1,1,1s1-0.447,1-1L5.257,8.025C6.791,8.158,8,9.432,8,11z M11,1.675
		C9.001,1.675,7.675,2.473,7.675,3S9.001,4.325,11,4.325c1.999,0,3.325-0.798,3.325-1.325S12.999,1.675,11,1.675z"/>
</g>
<g id="iconBg">
	<path class="icon_x002D_vs_x002D_blue" d="M11,1C8.791,1,7,1.896,7,3v1h1v3H7.969c1.207,0.898,2.004,2.317,2.027,3.929
		C10.318,10.971,10.651,11,11,11c2.209,0,4-0.896,4-2V3C15,1.896,13.209,1,11,1z M11,4.325C9.001,4.325,7.675,3.527,7.675,3
		S9.001,1.675,11,1.675c1.999,0,3.325,0.798,3.325,1.325S12.999,4.325,11,4.325z"/>
	<path class="icon_x002D_vs_x002D_bg" d="M5,7c-2.209,0-4,1.791-4,4c0,2.209,1.791,4,4,4s4-1.791,4-4C9,8.791,7.209,7,5,7z M5,14
		c-1.657,0-3-1.344-3-3c0-0.196,0.019-0.387,0.055-0.573c0.252-1.296,1.346-2.286,2.688-2.402L4,11c0,0.553,0.448,1,1,1s1-0.447,1-1
		L5.257,8.025C6.791,8.158,8,9.432,8,11C8,12.656,6.656,14,5,14z M4,6H3V5h4v1H6v0.5H4V6z"/>
</g>
</svg>
