<svg xmlns="http://www.w3.org/2000/svg" width="16" height="16"><style type="text/css">.icon-canvas-transparent{opacity:0;fill:#F6F6F6;} .icon-vs-out{fill:#F6F6F6;} .icon-vs-bg{fill:#424242;} .icon-vs-fg{fill:#F0EFF1;}</style><path class="icon-canvas-transparent" d="M16 16h-16v-16h16v16z" id="canvas"/><path class="icon-vs-out" d="M16 11h-6v5h-10v-8h6v-8h10v11z" id="outline"/><path class="icon-vs-bg" d="M4 10l3 2-3 2v-4zm-2-1h-1v6h1v-6zm7 0h-1v6h1v-6zm-2-8v1h1v1h-1v1h1v1h-1v1h1v1h-1v1h2v-6h5v7h-4v1h5v-9h-8zm3 2v2h3v-2h-3z" id="iconBg"/><path class="icon-vs-fg" d="M9 2v6h1v1h4v-7h-5zm4 3h-3v-2h3v2z" id="iconFg"/></svg>