<svg xmlns="http://www.w3.org/2000/svg" width="16" height="16"><style type="text/css">.icon-canvas-transparent{opacity:0;fill:#F6F6F6;} .icon-vs-out{fill:#F6F6F6;} .icon-vs-bg{fill:#424242;}</style><path class="icon-canvas-transparent" d="M16 16h-16v-16h16v16z" id="canvas"/><path class="icon-vs-out" d="M9 14v-2.586l-1 1v1.586h-7v-3h2.586l3-3-3-3h-2.586v-3h7v1.586l1 1v-2.586h7v2.414l-3.586 3.586 3.586 3.586v2.414h-7z" id="outline"/><path class="icon-vs-bg" d="M15 4l-4 4 4 4v1h-5v-1h2l-2.5-2.5-2.5 2.5v1h-5v-1h2l4-4-4-4h-2v-1h5v1l2.5 2.5 2.5-2.5h-2v-1h5v1z" id="iconBg"/></svg>