<svg xmlns="http://www.w3.org/2000/svg" width="16" height="16"><style type="text/css">.icon-canvas-transparent{opacity:0;fill:#F6F6F6;} .icon-vs-out{fill:#F6F6F6;} .icon-vs-bg{fill:#424242;} .icon-vs-action-blue{fill:#00539C;}</style><path class="icon-canvas-transparent" d="M16 16h-16v-16h16v16z" id="canvas"/><path class="icon-vs-out" d="M16 12.5l-1.393 1.045.737 2.455h-1.677l-1.167-.875-1.167.875h-1.677l.736-2.455-1.392-1.045v-1.5h2.156l.3-1h-2.456v-3.834l-6 3.6v.234h-3v-10h3v.234l6 3.6v-3.834h3v9h1.244l.6 2h2.156v1.5z" id="outline"/><path class="icon-vs-bg" d="M2 9h-1v-8h1v8zm9-8h-1v8h1v-8zm2.449 12.163l1.551-1.163h-1.9l-.6-2-.6 2h-1.9l1.551 1.163-.551 1.837 1.5-1.125 1.5 1.125-.551-1.837z" id="iconBg"/><path class="icon-vs-action-blue" d="M4 2l5 3-5 3v-6z" id="colorAction"/></svg>