<svg xmlns="http://www.w3.org/2000/svg" width="16" height="16"><style type="text/css">.icon-canvas-transparent{opacity:0;fill:#F6F6F6;} .icon-vs-out{fill:#F6F6F6;} .icon-vs-bg{fill:#424242;} .icon-vs-fg{fill:#F0EFF1;} .icon-vs-action-blue{fill:#00539C;}</style><path class="icon-canvas-transparent" d="M16 16h-16v-16h16v16z" id="canvas"/><path class="icon-vs-out" d="M16 9v7h-7v-9.834l-6 3.6v.234h-3v-10h3v.234l6 3.6v-3.834h3v9h4z" id="outline"/><path class="icon-vs-bg" d="M2 9h-1v-8h1v8zm9-8h-1v8h1v-8zm4 9v5h-5v-5h5zm-1 1h-2l-1 1h1.5l-1.5 1.5.5.5 1.5-1.5v1.5l1-1v-2z" id="iconBg"/><path class="icon-vs-fg" d="M14 11v2l-1 1v-1.5l-1.5 1.5-.5-.5 1.5-1.5h-1.5l1-1h2z" id="iconFg"/><path class="icon-vs-action-blue" d="M4 2l5 3-5 3v-6z" id="colorAction"/></svg>