<svg xmlns="http://www.w3.org/2000/svg" width="16" height="16"><style type="text/css">.icon-canvas-transparent{opacity:0;fill:#F6F6F6;} .icon-vs-out{fill:#F6F6F6;} .icon-vs-bg{fill:#424242;} .icon-vs-fg{fill:#F0EFF1;}</style><path class="icon-canvas-transparent" d="M16 16h-16v-16h16v16z" id="canvas"/><path class="icon-vs-out" d="M16 12h-4v2c0 .97-.701 2-2 2h-8c-.97 0-2-.701-2-2v-10c0-1.299 1.03-2 2-2h2v-2h12v12z" id="outline"/><path class="icon-vs-bg" d="M15 1v10h-3v-5.444l-3.939-3.556h-3.061v-1h10zm-4 5v8s-.035 1-1.035 1h-8s-.965 0-.965-1v-10c0-1 .964-1 .964-1h5.677l3.359 3zm-1 1h-3v-3h-5v10h8v-7z" id="iconBg"/><path class="icon-vs-fg" d="M2 4h5v3h3v7h-8v-10z" id="iconFg"/></svg>