<svg xmlns="http://www.w3.org/2000/svg" width="16" height="16"><style type="text/css">.icon-canvas-transparent{opacity:0;fill:#F6F6F6;} .icon-vs-out{fill:#F6F6F6;} .icon-vs-bg{fill:#424242;} .icon-vs-action-blue{fill:#00539C;}</style><path class="icon-canvas-transparent" d="M16 16h-16v-16h16v16z" id="canvas"/><path class="icon-vs-out" d="M16 11.482c0 .594-.197 1.189-.54 1.631-.312.376-2.148 2.535-2.148 2.535l-.299.352h-.909l-.297-.332s-1.953-2.175-2.246-2.529c-.365-.469-.561-1.063-.561-1.657 0-.552.194-1.064.507-1.482h-.507v-3.834l-6 3.6v.234h-3v-10h3v.234l6 3.6v-3.834h3v9.085c.161.046.33.112.5.22.394-.25.795-.305 1.071-.305 1.317 0 2.429 1.137 2.429 2.482z" id="outline"/><path class="icon-vs-bg" d="M2 9h-1v-8h1v8zm9-8h-1v8h1v-8zm2.571 9c-.527 0-.86.747-1.071 1.25-.211-.503-.545-1.25-1.071-1.25-.728 0-1.429.664-1.429 1.482 0 .375.127.756.329 1.018.29.35 2.222 2.5 2.222 2.5s1.829-2.15 2.119-2.5c.203-.262.33-.643.33-1.018 0-.818-.7-1.482-1.429-1.482z" id="iconBg"/><path class="icon-vs-action-blue" d="M4 2l5 3-5 3v-6z" id="colorAction"/></svg>