<svg xmlns="http://www.w3.org/2000/svg" width="16" height="16"><style type="text/css">.icon-canvas-transparent{opacity:0;fill:#F6F6F6;} .icon-vs-out{fill:#F6F6F6;} .icon-vs-bg{fill:#424242;} .icon-vs-fg{fill:#F0EFF1;}</style><path class="icon-canvas-transparent" d="M16 16h-16v-16h16v16z" id="canvas"/><path class="icon-vs-out" d="M9 16v-3.586l-.5.5-.5-.5v3.586h-7v-5h2v-4h2.586l1.41-1.411c-.908-.526-1.496-1.503-1.496-2.589 0-1.654 1.346-3 3-3s3 1.346 3 3c0 1.086-.588 2.063-1.496 2.589l1.41 1.411h2.586v4h2v5h-7z" id="outline"/><path class="icon-vs-bg" d="M15 12v3h-5v-3h2v-3h-1l-2.5 2.5-2.5-2.5h-1v3h2v3h-5v-3h2v-4h2l2-2v-1.07c-.861-.224-1.5-.999-1.5-1.93 0-1.104.895-2 2-2s2 .896 2 2c0 .931-.639 1.706-1.5 1.93v1.07l2 2h2v4h2z" id="iconBg"/><path class="icon-vs-fg" d="M8.5 2c.551 0 1 .448 1 1s-.449 1-1 1-1-.448-1-1 .449-1 1-1m0 4.914l-1.586 1.586 1.586 1.586 1.586-1.586-1.586-1.586m-2.5 6.086h-3v1h3v-1zm8 0h-3v1h3v-1z" id="iconFg"/></svg>