<svg xmlns="http://www.w3.org/2000/svg" width="16" height="16"><style type="text/css">.icon-canvas-transparent{opacity:0;fill:#F6F6F6;} .icon-vs-out{fill:#F6F6F6;} .icon-vs-bg{fill:#424242;} .icon-vs-red{fill:#E51400;}</style><path class="icon-canvas-transparent" d="M16 16h-16v-16h16v16z" id="canvas"/><path class="icon-vs-out" d="M16 11v3h-1c-1.276 0-1.943-.911-2.325-1.533l-.089.143c-.54 1.152-1.426 1.39-2.086 1.39-1.629 0-2.261-.985-2.515-1.501-.375.603-1.062 1.5-2.319 1.5-1.279 0-1.96-.926-2.326-1.524-.366.604-1.048 1.525-2.34 1.525h-1v-3h.726l.147-.247c.325-.563 1.003-1.74 2.461-1.74 1.278 0 1.965.91 2.338 1.514.37-.602 1.057-1.527 2.328-1.527 1.28 0 1.951.909 2.335 1.531.369-.604 1.054-1.531 2.332-1.531 1.434 0 2.107 1.131 2.469 1.739.063.107.116.261.159.261h.705zm-7.377-1.983c.417 0 .798-.141 1.124-.341.308-.185.567-.478.768-.796l.045.086c.195.299.436.537.71.702.314.193.666.291 1.048.291.292 0 .539-.046.763-.136.217-.084.407-.202.585-.354l.334-.299v-4.505l-.375-.3-.211-.147-.299-.132-.275-.074c-.131-.028-.265-.043-.41-.043-.388 0-.75.097-1.087.295-.295.178-.544.422-.745.724-.183-.31-.424-.539-.711-.722-.321-.207-.697-.266-1.116-.266h.229v-1h-3v1.305c-.121-.079-.248-.152-.388-.208-.288-.115-.623-.173-.986-.173-.173 0-.363.016-.563.05-.165.031-.348.067-.485.109-.152.045-.34.095-.484.156-.163.072-.381.142-.471.204l-.623.299v1.808c0 .157.014.33-.042.513-.073.236.082.493.082.758 0 .277.044.547.129.795.094.27.238.519.429.723.194.208.433.387.708.496.257.105.545.191.854.191l.654-.026h3.203l.606.017z" id="outline"/><path class="icon-vs-bg" d="M5.67 4.32c-.111-.129-.253-.226-.424-.295-.171-.068-.374-.101-.608-.101l-.368.033-.363.086-.309.109-.213.114v.768c.158-.131.341-.234.544-.313.204-.078.413-.117.627-.117.213 0 .377.063.494.186.116.125.174.324.174.6l-1.03.154c-.205.026-.379.077-.526.151-.145.074-.265.166-.357.28-.094.111-.162.238-.206.381-.043.142-.065.296-.065.46 0 .17.025.322.074.463.049.141.121.26.216.362.093.1.21.178.352.234.139.057.298.084.478.084.229 0 .431-.053.603-.16.173-.105.319-.26.439-.463h.014v.529h.785v-2.437c0-.238-.027-.451-.083-.637-.054-.184-.138-.342-.248-.471zm-.446 2.02c0 .131-.02.252-.059.365-.038.111-.093.211-.165.295s-.157.15-.256.199c-.1.049-.213.073-.337.073l-.242-.041-.185-.114-.117-.172-.041-.218.027-.233.098-.18c.048-.052.113-.097.196-.132.083-.033.189-.061.32-.078l.761-.109v.345zm4.514-1.865c-.103-.176-.235-.315-.394-.416-.16-.103-.352-.152-.573-.152-.123 0-.234.017-.336.051-.103.034-.195.083-.279.145-.084.063-.158.137-.225.223l-.181.289h-.013v-1.656h-.697v4.887h.697v-.485h.013l.151.229.191.186c.071.053.151.092.238.121.088.029.185.043.292.043.23 0 .433-.053.609-.16.176-.106.323-.254.443-.443.12-.188.211-.412.272-.672.061-.26.092-.539.092-.844 0-.258-.025-.502-.074-.734-.048-.234-.123-.437-.226-.612zm-.476 1.953c-.039.18-.095.328-.168.445-.073.117-.16.207-.264.266-.104.061-.22.092-.35.092-.107 0-.209-.025-.301-.076-.09-.049-.169-.12-.237-.208-.066-.086-.117-.189-.154-.306-.037-.118-.056-.244-.056-.381v-.506c0-.17.02-.326.06-.465.04-.139.096-.258.168-.359.072-.1.156-.178.257-.232.1-.055.21-.082.331-.082.122 0 .231.027.327.082s.177.135.244.238c.067.105.116.23.15.377.034.147.052.311.052.494 0 .234-.019.441-.059.621zm3.672-2.332l.106.066v.815c-.084-.092-.176-.166-.273-.223-.098-.055-.204-.082-.317-.082-.085 0-.161.032-.238.064-.263.181-.469.586-.469 1.301 0 .668.182 1.011.423 1.147.084.04.171.074.274.074l.153-.027.158-.068.151-.1.137-.125v.769c-.09.076-.192.139-.309.184-.117.047-.255.068-.413.068-.193 0-.368-.047-.523-.143-.155-.094-.287-.228-.396-.397-.109-.172-.192-.371-.252-.602-.058-.234-.088-.484-.088-.754 0-.316.032-.604.096-.861.063-.258.155-.479.273-.66.119-.182.265-.322.433-.424.17-.1.36-.15.569-.15l.193.02.17.045.142.063z" id="iconBg"/><path class="icon-vs-red" d="M7.268 11.752c-.311.526-.736 1.248-1.601 1.248-.862 0-1.279-.712-1.584-1.233-.3-.513-.472-.754-.749-.754-.273 0-.432.226-.729.741-.305.526-.72 1.246-1.605 1.246v-1c.278 0 .439-.227.738-.746.302-.524.716-1.241 1.595-1.241.881 0 1.303.722 1.612 1.248.594 1.013.861 1.001 1.462-.018.31-.525.734-1.243 1.593-1.243.852 0 1.265.687 1.595 1.239.615 1.024.877 1.039 1.478.011.306-.528.727-1.25 1.594-1.25.866 0 1.296.724 1.61 1.252.302.508.472.748.723.748v1c-.848 0-1.255-.686-1.582-1.236-.613-1.029-.882-1.042-1.482-.01l-.166.274c-.091-.006-.195.972-1.27.972-1.402 0-1.598-.972-1.763-1.247-.615-1.027-.867-1.019-1.469-.001z" id="colorImportance"/></svg>