<svg xmlns="http://www.w3.org/2000/svg" width="16" height="16"><style type="text/css">.icon-canvas-transparent{opacity:0;fill:#F6F6F6;} .icon-vs-out{fill:#F6F6F6;} .icon-vs-bg{fill:#424242;} .icon-vs-fg{fill:#F0EFF1;}</style><path class="icon-canvas-transparent" d="M16 16h-16v-16h16v16z" id="canvas"/><path class="icon-vs-out" d="M16 8c0 4.418-3.582 8-8 8s-8-3.582-8-8 3.582-8 8-8 8 3.582 8 8z" id="outline"/><path class="icon-vs-bg" d="M15 8c0 3.866-3.134 7-7 7s-7-3.134-7-7 3.134-7 7-7 7 3.134 7 7zm-1 0c0-3.313-2.686-6-6-6-3.313 0-6 2.687-6 6 0 3.314 2.687 6 6 6 3.314 0 6-2.686 6-6zm-6-3c-1.657 0-3 1.344-3 3s1.343 3 3 3c1.656 0 3-1.344 3-3s-1.344-3-3-3z" id="iconBg"/><path class="icon-vs-fg" d="M8 2c-3.313 0-6 2.687-6 6 0 3.314 2.687 6 6 6 3.314 0 6-2.686 6-6 0-3.313-2.686-6-6-6zm0 9c-1.657 0-3-1.344-3-3s1.343-3 3-3c1.656 0 3 1.344 3 3s-1.344 3-3 3z" id="iconFg"/></svg>