<svg xmlns="http://www.w3.org/2000/svg" width="16" height="16"><style type="text/css">.icon-canvas-transparent{opacity:0;fill:#F6F6F6;} .icon-vs-out{fill:#F6F6F6;} .icon-vs-bg{fill:#424242;}</style><path class="icon-canvas-transparent" d="M16 16h-16v-16h16v16z" id="canvas"/><path class="icon-vs-out" d="M16 3.586v8.828l-1.586 1.586h-8.828l-1.586-1.586v-1.414h-4v-6h4v-1.414l1.586-1.586h8.828l1.586 1.586z" id="outline"/><path class="icon-vs-bg" d="M11 9h2v2h-2v-2zm0-4h-2v2h2v-2zm4-1v8l-1 1h-8l-1-1v-2h-4v-4h4v-2l1-1h8l1 1zm-8 5v-2h-5v2h5zm7-5h-8v2h2v3h1v2h-2v-1h-1v2h8v-8z" id="iconBg"/><path class="icon-canvas-transparent" d="M6 4v2h2v3h1v2h-2v-1h-1v2h8v-8h-8zm3 1h2v2h-2v-2zm4 6h-2v-2h2v2zm-6-2h-5v-2h5v2z" id="iconFg"/></svg>