<svg xmlns="http://www.w3.org/2000/svg" width="16" height="16"><style type="text/css">.icon-canvas-transparent{opacity:0;fill:#F6F6F6;} .icon-vs-out{fill:#F6F6F6;} .icon-vs-bg{fill:#424242;} .icon-vs-fg{fill:#F0EFF1;} .icon-vs-action-blue{fill:#00539C;}</style><path class="icon-canvas-transparent" d="M16 16h-16v-16h16v16z" id="canvas"/><path class="icon-vs-out" d="M9.077 11c.039-.299.103-.648.226-1h-.303v-3.834l-6 3.601v.233h-3v-10h3v.234l6 3.6v-3.834h3v8.062c.186-.019.382-.031.594-.031 2.755 0 3.202 1.795 3.326 2.969l.08 5h-7v-5h.077z" id="outline"/><path class="icon-vs-bg" d="M2 9h-1v-8h1v8zm9-.721v-7.279h-1v7.878c.254-.243.583-.449 1-.599zm.019 3.284c.059-.729.334-1.541 1.575-1.541 1.249 0 1.391.795 1.404 1.541h.966c-.085-1.119-.144-2.531-2.37-2.531-2.396 0-2.445 1.406-2.576 2.531h1.001zm3.981.437v3h-5v-3h5zm-2 1h-1v1h1v-1z" id="iconBg"/><path class="icon-vs-fg" d="M12 13h1v1h-1v-1z" id="iconFg"/><path class="icon-vs-action-blue" d="M4 2l5 3-5 3v-6z" id="colorAction"/></svg>