<svg xmlns="http://www.w3.org/2000/svg" width="16" height="16"><style type="text/css">.icon-canvas-transparent{opacity:0;fill:#F6F6F6;} .icon-vs-out{fill:#F6F6F6;} .icon-vs-bg{fill:#424242;} .icon-vs-action-blue{fill:#00539C;}</style><path class="icon-canvas-transparent" d="M16 16h-16v-16h16v16z" id="canvas"/><path class="icon-vs-out" d="M16 12c0 2.205-1.794 4-4 4s-4-1.795-4-4c0-1.006.385-1.915 1-2.618v-3.216l-6 3.601v.233h-3v-10h3v.234l6 3.6v-3.834h3v8c2.206 0 4 1.793 4 4z" id="outline"/><path class="icon-vs-bg" d="M2 9h-1v-8h1v8zm9-.858v-7.142h-1v7.556c.311-.181.644-.322 1-.414zm4 3.858c0 1.654-1.346 3-3 3s-3-1.346-3-3 1.346-3 3-3 3 1.346 3 3zm-4.818 1.264l3.082-3.082c-.36-.25-.794-.399-1.264-.399-1.223 0-2.217.994-2.217 2.217 0 .469.149.904.399 1.264zm4.035-1.264c0-.471-.148-.904-.398-1.264l-3.082 3.082c.359.25.794.398 1.264.398 1.222.001 2.216-.993 2.216-2.216z" id="iconBg"/><path class="icon-vs-action-blue" d="M4 2l5 3-5 3v-6z" id="colorAction"/></svg>