<svg xmlns="http://www.w3.org/2000/svg" width="16" height="16"><style type="text/css">.icon-canvas-transparent{opacity:0;fill:#F6F6F6;} .icon-vs-out{fill:#F6F6F6;} .icon-vs-bg{fill:#424242;} .icon-vs-fg{fill:#F0EFF1;} .icon-vs-action-green{fill:#388A34;}</style><path class="icon-canvas-transparent" d="M16 16h-16v-16h16v16z" id="canvas"/><path class="icon-vs-out" d="M16 16h-16v-16h16v16z" id="outline"/><path class="icon-vs-bg" d="M2.667 1l2.666 2h7.667v3h-9l-3 2.25v6.75h14v-14h-12.333zm3.333 12h-3v-6h3v6zm7 0h-6v-6h6v6z" id="iconBg"/><path class="icon-vs-fg" d="M7 7h6v6h-6v-6zm-4 6h3v-6h-3v6zm2.333-10l1.333 1-2.666 2h9v-3h-7.667z" id="iconFg"/><path class="icon-vs-action-green" d="M5 4l-4 3v-6l4 3z" id="colorAction"/></svg>