<svg xmlns="http://www.w3.org/2000/svg" width="16" height="16"><style type="text/css">.icon-canvas-transparent{opacity:0;fill:#F6F6F6;} .icon-vs-out{fill:#F6F6F6;} .icon-vs-bg{fill:#424242;}</style><path class="icon-canvas-transparent" d="M16 16h-16v-16h16v16z" id="canvas"/><path class="icon-vs-out" d="M5 16v-5.697l-.465.697h-3.302l4.2-7h.835c-.17-.294-.268-.636-.268-1v-1c0-1.103.897-2 2-2h1c1.102 0 2 .897 2 2v1c0 .364-.098.706-.269 1h.835l4.2 7h-3.302l-.464-.697v5.697h-7z" id="outline"/><path class="icon-vs-bg" d="M7 3v-1c0-.552.447-1 1-1h1c.553 0 1 .448 1 1v1c0 .552-.447 1-1 1h-1c-.553 0-1-.448-1-1zm4 2h-1l-1.5 2-1.5-2h-1l-3 5h1l2-3v8h2v-4h1v4h2v-8l2 3h1l-3-5z" id="iconBg"/></svg>