<svg xmlns="http://www.w3.org/2000/svg" width="16" height="16"><style type="text/css">.icon-canvas-transparent{opacity:0;fill:#F6F6F6;} .icon-vs-out{fill:#F6F6F6;} .icon-vs-bg{fill:#424242;}</style><path class="icon-canvas-transparent" d="M16 16h-16v-16h16v16z" id="canvas"/><path class="icon-vs-out" d="M13 10h3v6h-6v-3h3v-3zm-10-7h3v-3h-6v6h3v-3zm13-3v6h-1.586l-8 8h-.414v2h-6v-6h2.882l4-8h3.118v-2h6zm-13 13h1.382l1.5-3h-2.882v3zm10-7v-3h-.086l-3 3h3.086z" id="outline"/><path class="icon-vs-bg" d="M5 15h-4v-4h1v3h3v1zm9-4v3h-3v1h4v-4h-1zm-9-10h-4v4h1v-3h3v-1zm6 0v1h3v3h1v-4h-4zm.5 2h-4l-3 6h3l-2 4h.5l6-6h-4.5l4-4z" id="iconBg"/></svg>