<svg xmlns="http://www.w3.org/2000/svg" viewBox="0 0 16 16"><style>.icon-canvas-transparent{opacity:0;fill:#f6f6f6}.icon-vs-out{fill:#f6f6f6}.icon-vs-bg{fill:#424242}.icon-vs-action-green{fill:#388a34}</style><path class="icon-canvas-transparent" d="M16 16H0V0h16v16z" id="canvas"/><path class="icon-vs-out" d="M2.019 8.007H4v3.509a4.814 4.814 0 0 0 .133 1.049 4.52 4.52 0 0 0 3.472 3.359c.215.037.442.065.693.076h.377c.254-.01.49-.037.754-.082 1.685-.355 3.034-1.671 3.449-3.399A4.418 4.418 0 0 0 13 11.516V3h-2.043a4.213 4.213 0 0 0-.019-.128l-.038-.176A3.525 3.525 0 0 0 8.182.07a7.597 7.597 0 0 0-.733-.068h-.005s-.452.029-.671.075A3.444 3.444 0 0 0 6 .349V.007H2.019v2.018H0v3.982h2.019v2z" id="outline"/><path class="icon-vs-bg" d="M6 1.534c.288-.221.612-.4.981-.478.167-.035.519-.055.519-.055.006 0 .359.028.518.055.945.2 1.688.934 1.91 1.871.008.043.02.086.027.128.026.147.045.446.045.446v8.015c0 .087-.012.18-.029.276-.004.026-.012.052-.018.079-.02.076-.039.15-.068.221l-.008.016a1.503 1.503 0 0 1-1.686.877 1.501 1.501 0 0 1-1.064-.865c-.004-.014-.012-.027-.016-.041-.025-.059-.041-.122-.059-.184a2.351 2.351 0 0 1-.027-.114 1.686 1.686 0 0 1-.021-.214l-.003-5.559H8V11.517l.002.013a.495.495 0 0 0 .457.478c.016.001.023.008.041.008.01 0 .014-.003.021-.004a.499.499 0 0 0 .477-.485v-.014L9 11.51V3.501a1.63 1.63 0 0 0-.027-.273c-.004-.012-.004-.025-.006-.038-.074-.403-.33-1.014-1.141-1.151-.103-.017-.203-.038-.326-.038s-.225.021-.328.038c-.003 0-.004.002-.007.003l-.017-.017H6v-.491zM11 4v7.516a2.565 2.565 0 0 1-.07.565c-.158.738-.682 1.936-2.43 1.936-.01 0-.016-.003-.023-.003a2.46 2.46 0 0 1-.533-.064c-1.305-.231-1.742-1.219-1.877-1.875l-.023-.117A2.49 2.49 0 0 1 6 11.516V8.007H5v3.509c0 .183.023.394.06.614.012.065.029.134.045.202a3.493 3.493 0 0 0 2.67 2.606c.203.035.412.065.645.069h.162c.231-.004.438-.034.641-.068a3.5 3.5 0 0 0 2.672-2.607c.016-.068.032-.136.044-.202.035-.2.061-.404.061-.614V4h-1z" id="iconBg"/><g id="colorAction"><path class="icon-vs-action-green" d="M7 5.007H5v2H3.019v-2H1V3.025h2.019V1.007H5v2.018h2v1.982z"/></g></svg>