<svg xmlns="http://www.w3.org/2000/svg" width="16" height="16"><style type="text/css">.icon-canvas-transparent{opacity:0;fill:#F6F6F6;} .icon-vs-out{fill:#F6F6F6;} .icon-vs-bg{fill:#424242;} .icon-vs-action-green{fill:#388A34;}</style><path class="icon-canvas-transparent" d="M16 16h-16v-16h16v16z" id="canvas"/><path class="icon-vs-out" d="M13.555 6.247c-.926-.818-2.091-1.233-3.463-1.233-.764 0-1.46.139-2.092.402v-3.416h-2v-2h-4v2h-2v4h2v2h3.398c-.278.645-.43 1.354-.43 2.135 0 1.43.471 2.612 1.398 3.512.919.898 2.126 1.353 3.589 1.353.98 0 1.785-.146 2.474-.436l.571-.256v-1.358c0-.186.819-.476 1.132-.864.548-.674.847-1.524.847-2.53 0-1.347-.465-2.459-1.424-3.309zm-7.555.748v-.995h1c-.2.149-.4.298-.581.481-.159.161-.286.339-.419.514z" id="outline"/><path class="icon-vs-bg" d="M10.805 11.148h-.025c-.234.699-.693 1.047-1.375 1.047-.436 0-.785-.164-1.053-.488-.268-.326-.4-.766-.4-1.314 0-.73.184-1.336.549-1.818s.848-.723 1.445-.723c.228 0 .43.063.609.186.18.125.293.275.346.449h.016l.072-.557h.809c-.152 1.709-.228 2.58-.228 2.611 0 .643.168.963.502.963.307 0 .561-.178.76-.537.203-.357.303-.822.303-1.393 0-.842-.271-1.529-.816-2.061-.543-.533-1.299-.801-2.264-.801-.928 0-1.691.324-2.301.969-.609.643-.914 1.45-.914 2.421 0 .955.293 1.725.877 2.311.586.586 1.373.881 2.363.881.783 0 1.451-.133 2.004-.4v.75c-.568.237-1.277.356-2.129.356-1.195 0-2.16-.356-2.889-1.068-.732-.711-1.098-1.644-1.098-2.797 0-1.189.387-2.17 1.16-2.949.773-.781 1.76-1.172 2.963-1.172 1.127 0 2.061.328 2.801.982.739.654 1.108 1.508 1.108 2.559 0 .772-.199 1.404-.602 1.898-.4.496-.891.742-1.469.742-.745 0-1.122-.347-1.124-1.047zm-.778-2.607c-.355 0-.644.174-.863.523-.221.352-.33.787-.33 1.309 0 .348.074.625.221.828.148.201.346.303.594.303.355 0 .639-.184.85-.553.207-.365.311-.853.311-1.457-.001-.638-.261-.953-.783-.953z" id="iconBg"/><path class="icon-vs-action-green" d="M7 5h-2v2h-1.981v-2h-2.019v-1.982h2.019v-2.018h1.981v2.018h2v1.982z" id="iconFg"/></svg>