<svg xmlns="http://www.w3.org/2000/svg" width="16" height="16"><style type="text/css">.icon-canvas-transparent{opacity:0;fill:#F6F6F6;} .icon-vs-out{fill:#F6F6F6;} .icon-vs-bg{fill:#424242;} .icon-vs-fg{fill:#F0EFF1;}</style><path class="icon-canvas-transparent" d="M16 16h-16v-16h16v16z" id="canvas"/><path class="icon-vs-out" d="M14 9v2h2v3h-2v2h-14v-8h3v-3h-3v-5h5v1h9v3h-9v1h3v1h8v3h-2z" id="outline"/><path class="icon-vs-bg" d="M4 6h3v2h-3v-2zm0-5h-3v3h3v-3zm9 1h-7v1h7v-1zm-4 5v1h6v-1h-6zm5 6h1v-1h-1v1zm-10.682-.785h.424l-.188-1.188-.236 1.188zm9.674-3.215v6h-11.969v-6h11.969zm-7.969 5l-1-4h-1l-1 4h1l.25-1h.5l.25 1h1zm3.639-4h-3v1h1.033v3h.967v-3h1v-1zm3.338 3h-1v-3h-1.008v4h2.008v-1z" id="iconBg"/><path class="icon-vs-fg" d="M7.662 11v3h-.967v-3h-1.033v-1h3v1h-1zm-3.639-1l1 4h-1l-.25-1h-.5l-.25 1h-1l1-4h1zm-.281 2.215l-.188-1.188-.236 1.188h.424zm7.258.785v-3h-1.008v4h2.008v-1h-1z" id="iconFg"/></svg>