<svg xmlns="http://www.w3.org/2000/svg" width="16" height="16"><style type="text/css">.icon-canvas-transparent{opacity:0;fill:#F6F6F6;} .icon-vs-out{fill:#F6F6F6;} .icon-vs-bg{fill:#424242;} .icon-vs-fg{fill:#F0EFF1;} .icon-vs-action-green{fill:#388A34;}</style><path class="icon-canvas-transparent" d="M16 16h-16v-16h16v16z" id="canvas"/><path class="icon-vs-out" d="M16 5.556v8.444c0 .97-.701 2-2 2h-8c-.97 0-2-.701-2-2v-6h-2v-2h-2v-4h2v-2h4v2h6.061l3.939 3.556z" id="outline"/><g id="iconBg"><path class="icon-vs-bg" d="M8.558 9c-.506 0-.892.176-1.159.525-.266.351-.399.86-.399 1.528 0 1.287.492 1.934 1.477 1.934.49 0 .867-.174 1.129-.522.263-.348.394-.848.394-1.5 0-1.311-.48-1.965-1.442-1.965zm-.052 3.336c-.387 0-.58-.436-.58-1.305 0-.922.197-1.383.592-1.383.369 0 .554.447.554 1.344-.001.895-.189 1.344-.566 1.344z"/><path class="icon-vs-bg" d="M11.486 9.035h.514v3.965h-.847v-3.001l-.165.116-.203.102-.119.039v-.772l.291-.117c.195-.099.372-.211.529-.332z"/><path class="icon-vs-bg" d="M8.558 9c-.506 0-.892.176-1.159.525-.266.351-.399.86-.399 1.528 0 1.287.492 1.934 1.477 1.934.49 0 .867-.174 1.129-.522.263-.348.394-.848.394-1.5 0-1.311-.48-1.965-1.442-1.965zm-.052 3.336c-.387 0-.58-.436-.58-1.305 0-.922.197-1.383.592-1.383.369 0 .554.447.554 1.344-.001.895-.189 1.344-.566 1.344z"/><path class="icon-vs-bg" d="M11.486 9.035h.514v3.965h-.847v-3.001c-.046.041-.447.244-.487.257v-.772l.291-.117c.195-.099.372-.211.529-.332z"/><path class="icon-vs-bg" d="M15 6v8s-.035 1-1.035 1h-8s-.965 0-.965-1v-6h1v6h8v-7h-3v-3h-3v-1h3.641l3.359 3z"/></g><g id="iconFg"><path class="icon-vs-out" d="M8.518 9.648c-.395 0-.592.461-.592 1.383 0 .869.193 1.305.58 1.305.377 0 .565-.449.565-1.344 0-.896-.184-1.344-.553-1.344z"/><path class="icon-vs-out" d="M11 7v-3h-3v2h-2v8h8v-7h-3zm-1.395 5.465c-.262.348-.639.522-1.129.522-.984-.001-1.476-.647-1.476-1.934 0-.668.133-1.177.399-1.527.267-.35.653-.526 1.159-.526.962 0 1.442.654 1.442 1.965 0 .652-.131 1.152-.395 1.5zm2.395.535h-.859l-.016-3-.484.297.031-.82c.328-.157.672-.305.812-.477h.516v4z"/><path class="icon-vs-fg" d="M8.518 9.648c-.395 0-.592.461-.592 1.383 0 .869.193 1.305.58 1.305.377 0 .565-.449.565-1.344 0-.896-.184-1.344-.553-1.344z"/><path class="icon-vs-fg" d="M11 7v-3h-3v2h-2v8h8v-7h-3zm-1.395 5.465c-.262.348-.639.522-1.129.522-.984-.001-1.476-.647-1.476-1.934 0-.668.133-1.177.399-1.527.267-.35.653-.526 1.159-.526.962 0 1.442.654 1.442 1.965 0 .652-.131 1.152-.395 1.5zm2.395.535h-.859l-.016-3-.484.297.031-.82c.328-.157.672-.305.812-.477h.516v4z"/></g><path class="icon-vs-action-green" d="M7 3.018h-2v-2.018h-1.981v2.018h-2.019v1.982h2.019v2h1.981v-2h2v-1.982z" id="colorAction"/></svg>