<svg xmlns="http://www.w3.org/2000/svg" width="16" height="16"><style type="text/css">.icon-canvas-transparent{opacity:0;fill:#F6F6F6;} .icon-vs-out{fill:#F6F6F6;} .icon-vs-bg{fill:#424242;} .icon-vs-fg{fill:#F0EFF1;} .icon-vs-action-green{fill:#388A34;}</style><path class="icon-canvas-transparent" d="M16 16h-16v-16h16v16z" id="canvas"/><path class="icon-vs-out" d="M15 9c0 3.314-2.686 6-6 6-3.313 0-6-2.686-6-6 0-.341.035-.674.09-1h-1.09v-2h-2v-4h2v-2h4v2h2v1.09c.326-.055.659-.09 1-.09 3.314 0 6 2.686 6 6z" id="outline"/><path class="icon-vs-bg" d="M12.393 9.822c-.086.357-.228.689-.414.994l.959 1.231c-.258.334-.557.631-.89.891l-1.232-.959c-.305.186-.638.328-.994.414l-.192 1.545c-.209.025-.414.062-.63.062l-.63-.063-.192-1.545c-.356-.086-.689-.229-.994-.414l-1.231.959c-.333-.26-.632-.557-.89-.891l.959-1.231c-.187-.305-.328-.637-.414-.994l-1.545-.19c-.026-.209-.063-.414-.063-.631 0-.215.037-.42.063-.629l1.544-.192c.284-.054.393-.179.393-.179v-2h2s.125-.172.178-.392l.192-1.544c.209-.026.414-.064.63-.064l.63.063.192 1.544c.356.086.689.228.994.414l1.232-.958c.333.259.632.556.89.89l-.959 1.231c.186.305.328.638.414.994l1.544.192c.026.21.063.415.063.63 0 .217-.037.422-.064.631l-1.543.191z" id="iconBg"/><path class="icon-vs-fg" d="M9 7c-1.104 0-2 .896-2 2 0 1.106.896 2 2 2s2-.894 2-2c0-1.104-.896-2-2-2zm0 3c-.553 0-1-.447-1-1 0-.552.447-1 1-1s1 .448 1 1c0 .553-.447 1-1 1z" id="iconFg"/><path class="icon-vs-action-green" d="M7 5h-2v2h-1.982v-2h-2.018v-1.982h2.018v-2.018h1.982v2.018h2v1.982z" id="colorAction"/></svg>