<svg xmlns="http://www.w3.org/2000/svg" width="16" height="16"><style type="text/css">.icon-canvas-transparent{opacity:0;fill:#F6F6F6;} .icon-vs-out{fill:#F6F6F6;} .icon-vs-bg{fill:#424242;} .icon-vs-fg{fill:#F0EFF1;} .icon-vs-action-green{fill:#388A34;}</style><path class="icon-canvas-transparent" d="M16 16h-16v-16h16v16z" id="canvas"/><path class="icon-vs-out" d="M16 10.414l-.891.891.891.826v.867h-2.598l.866 1.966-2.278 1.036h-.877l-.776-1.751-1.595 1.751h-.742v-3h-5.414l-2.586-2.586v-8.414h2v-2h4v2h1v-1h6.414l2.586 2.586v6.828z" id="outline"/><path class="icon-vs-bg" d="M11.766 15.004l-1.137-2.561-1.629 1.788v-7.231l5.387 4.998h-2.518l1.086 2.465-1.189.541zm-8.766-5.832v-1.172h-1v-2h-1v4l2 2h5v-2h-4.172l-.828-.828zm10-4.344v4.344l-.091.091 1.467 1.361.243-.243.381-.381v-6l-2-2h-5v2h4.172l.828.828z" id="iconBg"/><path class="icon-vs-fg" d="M13 4.828v4.344l-.19.191-4.775-4.806v5.443h-4.207l-.828-.828v-1.172h3v-2h2v-2h4.172l.828.828z" id="iconFg"/><path class="icon-vs-action-green" d="M7 5h-2v2h-2v-2h-2v-2h2v-2h2v2h2v2z" id="colorAction"/></svg>