<?xml version="1.0" encoding="utf-8"?>
<!-- Generator: Adobe Illustrator 19.0.0, SVG Export Plug-In . SVG Version: 6.00 Build 0)  -->
<!DOCTYPE svg PUBLIC "-//W3C//DTD SVG 1.1//EN" "http://www.w3.org/Graphics/SVG/1.1/DTD/svg11.dtd">
<svg version="1.1" xmlns="http://www.w3.org/2000/svg" xmlns:xlink="http://www.w3.org/1999/xlink" x="0px" y="0px" width="16px"
	 height="16px" viewBox="0 0 16 16" style="enable-background:new 0 0 16 16;" xml:space="preserve">
<style type="text/css">
	.icon-canvas-transparent{opacity:0;fill:#F6F6F6;}
	.icon-vs-out{fill:#F6F6F6;}
	.icon-vs-bg{fill:#424242;}
	.icon-vs-fg{fill:#F0EFF1;}
	.icon-vs-action-blue{fill:#00539C;}
</style>
<g id="canvas">
	<path  class="icon-canvas-transparent" d="M16,16H0V0h16V16z"/>
</g>
<g id="outline">
	<path  class="icon-vs-out" d="M16,8.914L13.914,11H12v5H0V0h12v6h1.914L16,8.086V8.914z"/>
</g>
<g id="iconBg">
	<path  class="icon-vs-bg" d="M11,1H1v14h10v-4H9.586H8v-1V7V6h1.586H11V1z M4,14H2v-2h2V14z M4,11H2V9h2
		V11z M4,8H2V6h2V8z M4,5H2V3h2V5z M10,12v2H8v-2H10z M10,5H8V3h2V5z"/>
</g>
<g id="iconFg">
	<path class="icon-vs-fg" d="M9.586,11H8v-1h2v0.586L9.586,11z M10,3H8v2h2V3z M10,6.414L9.586,6H8v1h2V6.414z M2,14h2
		v-2H2V14z M2,11h2V9H2V11z M8,14h2v-2H8V14z M2,5h2V3H2V5z M2,8h2V6H2V8z"/>
</g>
<g id="colorAction">
	<path  class="icon-vs-action-blue" d="M15,8.5L13.5,10H12l1-1H9V8h4l-1-1h1.5L15,8.5z"/>
	
	
	
	
	
	
</g>
</svg>
