<svg xmlns="http://www.w3.org/2000/svg" width="16" height="16"><style type="text/css">.icon-canvas-transparent{opacity:0;fill:#F6F6F6;} .icon-vs-out{fill:#F6F6F6;} .icon-vs-bg{fill:#424242;} .icon-vs-fg{fill:#F0EFF1;} .icon-vs-action-green{fill:#388A34;}</style><path class="icon-canvas-transparent" d="M16 16h-16v-16h16v16z" id="canvas"/><path class="icon-vs-out" d="M16 3.556v8.444c0 .97-.701 2-2 2h-5v2h-7v-5h2v-3h-2v-2h-2v-4h2v-2h10.061l3.939 3.556z" id="outline"/><path class="icon-vs-bg" d="M5 12h-2v3h5v-5h-3v2zm0 2h-1v-1h1v1zm1-3h1v1h-1v-1zm0 2h1v1h-1v-1zm-1-5h1v1h-1v-1zm10-4v8s-.035 1-1.035 1h-4.965v-1h5v-7h-3v-3h-5v-1h5.641l3.359 3z" id="iconBg"/><path class="icon-vs-fg" d="M14 5v7h-5v-3h-3v-3h2v-4h3v3h3z" id="iconFg"/><path class="icon-vs-action-green" d="M7 5h-2v2h-1.981v-2h-2.019v-1.982h2.019v-2.018h1.981v2.018h2v1.982z" id="colorAction"/></svg>