<svg xmlns="http://www.w3.org/2000/svg" width="16" height="16"><style type="text/css">.icon-canvas-transparent{opacity:0;fill:#F6F6F6;} .icon-vs-out{fill:#F6F6F6;} .icon-vs-bg{fill:#424242;} .icon-vs-fg{fill:#F0EFF1;} .icon-vs-action-green{fill:#388A34;}</style><path class="icon-canvas-transparent" d="M16 16h-16v-16h16v16z" id="canvas"/><path class="icon-vs-out" d="M16 2v12h-4v2h-7v-2h-4v-8h-1v-3.982h1v-.018h1.018v-2h3.982v2h10z" id="outline"/><path class="icon-vs-bg" d="M8 3v3h-2v6h-3v-4h-.982l-.018 5h4v2h5v-2h4v-10h-7zm2 11h-3v-6h3v6zm4-2h-3v-6h3v6z" id="iconBg"/><path class="icon-vs-fg" d="M3 8h3v4h-3v-4zm4 6h3v-6h-3v6zm4-8v6h3v-6h-3z" id="iconFg"/><path class="icon-vs-action-green" d="M7 5h-2v2h-1.982v-2h-2.018v-1.982h2.018v-2.018h1.982v2.018h2v1.982z" id="colorAction"/></svg>