<svg xmlns="http://www.w3.org/2000/svg" width="16" height="16"><style type="text/css">.icon-canvas-transparent{opacity:0;fill:#F6F6F6;} .icon-vs-out{fill:#F6F6F6;} .icon-vs-bg{fill:#424242;} .icon-vs-action-green{fill:#388A34;}</style><path class="icon-canvas-transparent" d="M16 16h-16v-16h16v16z" id="canvas"/><path class="icon-vs-out" d="M13.061 7.147l-1.647-1.647h-3.414v-3.482h-2v-2.018h-3.982v2.018h-2.018v3.982h2.018v2h1.364c-.84.734-1.382 1.8-1.382 3 0 1.811 1.217 3.381 2.938 3.852l1.148 1.148h4.328l-1-1h2.586c2.206 0 4-1.794 4-4 0-1.811-1.217-3.381-2.939-3.853zm-4.975 3.353h-1.5l-1.248 1.248c-.21-.184-.338-.452-.338-.748 0-.552.448-1 1-1h2.586l-.5.5zm-2.086-3.5v-1h1.586l1 1h-2.586zm6 5h-2.586l.5-.5h1.5l1.248-1.248c.21.184.338.452.338.748 0 .552-.448 1-1 1z" id="outline"/><path class="icon-vs-bg" d="M12.557 8.057l-1.557-1.557h-1.5l1.5 1.5h-5c-1.656 0-3 1.344-3 3 0 1.467 1.054 2.683 2.443 2.943l1.557 1.557h1.5l-1.5-1.5h5c1.656 0 3-1.344 3-3 0-1.467-1.054-2.683-2.443-2.943zm-.557 4.943h-5l1.5-1.5h-1.5l-1.446 1.446c-.889-.204-1.554-.995-1.554-1.946 0-1.104.896-2 2-2h5l-1.5 1.5h1.5l1.446-1.446c.889.204 1.554.995 1.554 1.946 0 1.104-.896 2-2 2z" id="iconBg"/><path class="icon-vs-action-green" d="M7 5h-2v2h-1.982v-2h-2.018v-1.982h2.018v-2.018h1.982v2.018h2v1.982z" id="colorAction"/></svg>