<svg xmlns="http://www.w3.org/2000/svg" width="16" height="16"><style type="text/css">.icon-canvas-transparent{opacity:0;fill:#F6F6F6;} .icon-vs-out{fill:#F6F6F6;} .icon-vs-bg{fill:#424242;} .icon-vs-action-green{fill:#388A34;}</style><path class="icon-canvas-transparent" d="M16 16h-16v-16h16v16z" id="canvas"/><path class="icon-vs-out" d="M16 10v4h-5v2h-7v-3l1-1h-3v-3h3l-1-1h-1.981v-2h-2.019v-3.982h2.019v-2.018h3.981v2.018h2v2.982h3v2h3v3h2z" id="outline"/><path class="icon-vs-bg" d="M10 7h-4v-1h4v1zm0 3h3v-2h-3v2zm0 1v2h5v-2h-5zm-5 4h5v-1h-5v1zm.667-2.5h1.333l2-2-2-2h-1.333l1.333 1.334h-4v1.332h4l-1.333 1.334z" id="iconBg"/><path class="icon-vs-action-green" d="M7 3.018h-2v-2.018h-1.981v2.018h-2.019v1.982h2.019v2h1.981v-2h2v-1.982z" id="colorAction"/></svg>