<svg xmlns="http://www.w3.org/2000/svg" width="16" height="16"><style type="text/css">.icon-canvas-transparent{opacity:0;fill:#F6F6F6;} .icon-vs-out{fill:#F6F6F6;} .icon-vs-bg{fill:#424242;} .icon-vs-fg{fill:#F0EFF1;} .icon-vs-action-green{fill:#388A34;}</style><path class="icon-canvas-transparent" d="M16 16h-16v-16h16v16z" id="canvas"/><path class="icon-vs-out" d="M16 2v14h-14v-10h-2v-4h2v-2h4v2h6.586l1.414-1.414 1.414 1.414h.586z" id="outline"/><path class="icon-vs-bg" d="M8 5v-2h3.586l-2 2h-1.586zm5 8h-8v-5h-2v7h12v-8.586l-2 2v4.586zm-4-2l-2-2v2h2zm-1-3l2 2 4-4-2-2-4 4zm5-5l2 2 1-1-2-2-1 1z" id="iconBg"/><path class="icon-vs-fg" d="M8 5h1.586l-3.586 3.586v3.414h3.414l3.586-3.586v4.586h-8v-5h1v-2h2v-1z" id="iconFg"/><path class="icon-vs-action-green" d="M7 5h-2v2h-2v-2h-2v-2h2v-2h2v2h2v2z" id="colorAction"/></svg>