<svg xmlns="http://www.w3.org/2000/svg" width="16" height="16"><style type="text/css">.icon-canvas-transparent{opacity:0;fill:#F6F6F6;} .icon-vs-out{fill:#F6F6F6;} .icon-vs-bg{fill:#424242;} .icon-vs-fg{fill:#F0EFF1;} .icon-vs-action-blue{fill:#00539C;}</style><path class="icon-canvas-transparent" d="M16 16h-16v-16h16v16z" id="canvas"/><path class="icon-vs-out" d="M9 16v-7.086l-.086.086h-1.914v1h-7v-6h8.914l.086.086v-4.086h7v6h-5.086l.5.5-.5.5h5.086v9h-7z" id="outline"/><path class="icon-vs-bg" d="M10 1v4h5v-4h-5zm4 3h-3v-2h3v2zm-4 11h5v-7h-5v7zm1-6h3v2h-3v-2zm0 3h3v2h-3v-2z" id="iconBg"/><path class="icon-vs-fg" d="M14 2v2h-3v-2h3zm-12 6h3v-2h-3v2zm9 3h3v-2h-3v2zm0 3h3v-2h-3v2z" id="iconFg"/><path class="icon-vs-action-blue" d="M10 6.5l-1.5 1.5h-1.5l1-1h-2v2h-5v-4h5v1h2l-1-1h1.5l1.5 1.5zm-5-.5h-3v2h3v-2z" id="colorAction"/></svg>