<svg xmlns="http://www.w3.org/2000/svg" width="16" height="16"><style type="text/css">.icon-canvas-transparent{opacity:0;fill:#F6F6F6;} .icon-vs-out{fill:#F6F6F6;} .icon-vs-bg{fill:#424242;} .icon-vs-fg{fill:#F0EFF1;} .icon-vs-action-green{fill:#388A34;}</style><path class="icon-canvas-transparent" d="M16 16h-16v-16h16v16z" id="canvas"/><path class="icon-vs-out" d="M14 5.586v-3.586h-8v-2h-3.982v2h-.018v.018h-2v3.982h2v1.586l-2 2v.828l2 2v3.586h12v-5.586l2-2v-.828l-2-2zm-6 .828v1.586h-1.586l1.586-1.586zm0 3.586h1.586l-1.586 1.586v-1.586zm0-4v-1.586l1.586 1.586h-1.586zm0-2v-1h5v1.586l-.586-.586h-4.414zm-7 1v-1.982h2.018v-2.018h1.982v2.018h2v1.982h-2v2h-1.982v-2h-2.018zm0 5l2-2h2l-1 1h3v2h-3l2 2h-2l-3-3zm12 5h-10v-1.586l.586.586h4.828l-2-2h6l.586-.586v3.586zm-1-4h-2l2-2h-3v-2h3l-2-2h2l3 3-3 3z" id="outline"/><path class="icon-vs-bg" d="M12.414 12l.586-.586v3.586h-10v-1.586l.586.586h8.414v-2h.414zm-2.414-7l2 2h-3v2h3l-2 2h2l3-3-3-3h-2zm-4 8l-2-2h3v-2h-3l1-1h-2l-2 2 3 3h2zm7-8.414v-1.586h-5v1h4.414l.586.586z" id="iconBg"/><path class="icon-vs-fg" d="M9.586 6h-1.586v-1.586l1.586 1.586zm-1.586 4v1.586l1.586-1.586h-1.586zm4 2h-5.586l2 2h3.586v-2zm-4-5.586l-1.586 1.586h1.586v-1.586z" id="iconFg"/><path class="icon-vs-action-green" d="M3.018 5h-2.018v-1.982h2.018v-2.018h1.982v2.018h2v1.982h-2v2h-1.982v-2z" id="colorAction"/></svg>