<svg xmlns="http://www.w3.org/2000/svg" viewBox="0 0 16 16"><style>.icon-canvas-transparent{opacity:0;fill:#f6f6f6}.icon-vs-out{fill:#f6f6f6}.icon-vs-bg{fill:#424242}.icon-vs-action-green{fill:#388a34}</style><path class="icon-canvas-transparent" d="M16 0v16H0V0h16z" id="canvas"/><path class="icon-vs-out" d="M13.213 5.614C12.591 3.508 10.652 2 8.43 2c-.145 0-.288.011-.43.024v-.006H6V0H2.018v2.018H0V6h.668A4.623 4.623 0 0 0 0 8.375C0 10.925 2.046 13 4.562 13h1.504c.273.266.584.494.934.661V16h3v-2.339c.35-.167.661-.395.934-.661h1.364C14.339 13 16 11.317 16 9.25c0-1.76-1.174-3.227-2.787-3.636z" id="outline"/><path class="icon-vs-bg" d="M5.036 11c.052.355.172.685.324 1h-.799C2.598 12 1 10.374 1 8.375c0-.912.344-1.737.893-2.375h.125v2h.002c-.018.124-.038.247-.038.375C1.982 9.825 3.137 11 4.561 11h.475zm7.347-4.499C12.114 4.526 10.444 3 8.43 3c-.145 0-.288.012-.43.028v1.007A2.9 2.9 0 0 1 8.43 4c1.662 0 3.009 1.371 3.009 3.063V7.5h.86c.95 0 1.719.783 1.719 1.75 0 .966-.77 1.75-1.719 1.75h-.335a3.448 3.448 0 0 1-.324 1h.659C13.788 12 15 10.766 15 9.25c0-1.487-1.166-2.703-2.617-2.749zM10 8h1v2.5c0 1.208-.86 2.217-2 2.449V15H8v-2.051A2.503 2.503 0 0 1 6 10.5V8h1V6.5h1V8h1V6.5h1V8zm0 1H7v1.5c0 .827.673 1.5 1.5 1.5s1.5-.673 1.5-1.5V9z" id="iconBg"/><g id="colorAction"><path class="icon-vs-action-green" d="M7 3.018V5H5v2H3.018V5H1V3.018h2.018V1H5v2.018h2z"/></g></svg>