<svg xmlns="http://www.w3.org/2000/svg" viewBox="0 0 16 16"><style>.icon-canvas-transparent{opacity:0;fill:#f6f6f6}.icon-vs-out{fill:#f6f6f6}.icon-vs-bg{fill:#424242}.icon-vs-fg{fill:#f0eff1}.icon-vs-action-green{fill:#388a34}</style><path class="icon-canvas-transparent" d="M16 16H0V0h16v16z" id="canvas"/><path class="icon-vs-out" d="M16 3v10H9.575l-3.332 3H5v-3H3V8H2V6H0V2h2V0h4v2h2v1h8z" id="outline"/><path class="icon-vs-fg" d="M14 5v6H8.808L7 12.627V11H5V8h1V6h2V5h6z" id="iconFg"/><path class="icon-vs-bg" d="M8 4v1h6v6H8.808L7 12.627V11H5V8H4v4h2v2.873L9.192 12H15V4z" id="iconBg"/><g id="colorAction"><path class="icon-vs-action-green" d="M7 3v2H5v2H3V5H1V3h2V1h2v2h2z"/></g></svg>