<svg xmlns="http://www.w3.org/2000/svg" viewBox="0 0 16 16"><style>.icon-canvas-transparent{opacity:0;fill:#f6f6f6}.icon-vs-out{fill:#f6f6f6}.icon-vs-fg{fill:#f0eff1}.icon-vs-action-green{fill:#388a34}.icon-vs-bg{fill:#424242}</style><path class="icon-canvas-transparent" d="M16 0v16H0V0h16z" id="canvas"/><path class="icon-vs-out" d="M14 6V4H8V2.018H6V0H2.018v2.018H0V6h2.018v2H6V6h1v4a3.98 3.98 0 0 0 2.5 3.701V16h3v-2.299A3.98 3.98 0 0 0 15 10V6h-1z" id="outline"/><path class="icon-vs-fg" d="M9 7v2c0 1.103.897 2 2 2s2-.897 2-2V7H9z" id="iconFg"/><path class="icon-vs-bg" d="M13 7V5h-1v2h-2V5H9v2H8v3a2.999 2.999 0 0 0 2.5 2.95V15h1v-2.05A2.999 2.999 0 0 0 14 10V7h-1zm-2 5c-1.103 0-2-.897-2-2V8h4v2c0 1.103-.897 2-2 2z" id="iconBg"/><g id="colorAction"><path class="icon-vs-action-green" d="M7 3.018V5H5v2H3.018V5H1V3.018h2.018V1H5v2.018h2z"/></g></svg>