<svg xmlns="http://www.w3.org/2000/svg" viewBox="0 0 16 16"><style>.st0{opacity:0}.st0,.st1{fill:#f6f6f6}.st2{fill:#424242}</style><g id="outline"><path class="st0" d="M0 0h16v16H0z"/><path class="st1" d="M16 10.597l-1.568-1.563 1.5-1.5-2.914-2.931L11.604 6h-.172L8.018 2.603 8 2.638V2H6V0H2v2H0v4h2v2h1.569l2.94 2.948L8 9.448V13h2.604l2.414 2.432L16 12.455z"/></g><g id="icon_x5F_bg"><path class="st2" d="M14.018 10.034l-1 1h-3v-3h1l-.5.5 1.5 1.5 2.5-2.5-1.5-1.5-1 1h-3l1-1-2-2L8 4.052V6H6.052L6 6.052V8H4.983l1.535 1.534 1.5-1.5h1v4h3l-.5.5 1.5 1.5 2.5-2.5zM3 7V5H1V3h2V1h2v2h2v2H5v2H3z"/></g></svg>