<svg xmlns="http://www.w3.org/2000/svg" width="16" height="16"><style type="text/css">.icon-canvas-transparent{opacity:0;fill:#F6F6F6;} .icon-vs-out{fill:#F6F6F6;} .icon-vs-bg{fill:#424242;} .icon-vs-action-blue{fill:#00539C;} .icon-vs-fg{fill:#F0EFF1;}</style><path class="icon-canvas-transparent" d="M16 16h-16v-16h16v16z" id="canvas"/><path class="icon-vs-out" d="M0 16v-9h5.086l-.5-.5.5-.5h-5.086v-6h7v4.086l.086-.086h8.914v6h-7v-1h-1.914l-.086-.086v7.086h-7z" id="outline"/><path class="icon-vs-bg" d="M1 5h5v-4h-5v4zm1-3h3v2h-3v-2zm-1 13h5v-7h-5v7zm1-6h3v2h-3v-2zm0 3h3v2h-3v-2z" id="iconBg"/><path class="icon-vs-fg" d="M2 2h3v2h-3v-2zm9 4v2h3v-2h-3zm-9 5h3v-2h-3v2zm0 3h3v-2h-3v2z" id="iconFg"/><path class="icon-vs-action-blue" d="M10 5v1h-2l1-1h-1.5l-1.5 1.5 1.5 1.5h1.5l-1-1h2v2h5v-4h-5zm4 3h-3v-2h3v2z" id="colorAction"/></svg>