<svg xmlns="http://www.w3.org/2000/svg" width="16" height="16"><style type="text/css">.icon-canvas-transparent{opacity:0;fill:#F6F6F6;} .icon-vs-out{fill:#F6F6F6;} .icon-vs-bg{fill:#424242;} .icon-vs-action-green{fill:#388A34;}</style><path class="icon-canvas-transparent" d="M16 16h-16v-16h16v16z" id="canvas"/><path class="icon-vs-out" d="M16 12.455l-2.982 2.976-2.414-2.431h-2.604v-3.552l-1.491 1.5-2.94-2.948h-1.569v-2h-2v-4h2v-2h4v2h2v.638l.018-.034 3.414 3.396h.172l1.414-1.396 2.914 2.931-1.5 1.5 1.568 1.562v1.858z" id="outline"/><path class="icon-vs-bg" d="M15.518 11.521l-2.5 2.504-1.5-1.509.5-.517h-3.018v-3.999h-.982l-1.5 1.517-1.535-1.517h1.017v-1.948l.052-.052h1.948v-1.948l.018-.026 2 1.991-1 .983h3l1-.985 1.5 1.515-2.5 2.496-1.5-1.509.5-.517h-1.018v3h3.018l1-.983 1.5 1.504z" id="iconBg"/><path class="icon-vs-action-green" d="M3 7v-2h-2v-2h2v-2h2v2h2v2h-2v2h-2z" id="iconFg"/></svg>