<svg xmlns="http://www.w3.org/2000/svg" width="16" height="16"><style type="text/css">.icon-canvas-transparent{opacity:0;fill:#F6F6F6;} .icon-vs-out{fill:#F6F6F6;} .icon-vs-bg{fill:#424242;} .icon-vs-fg{fill:#F0EFF1;} .icon-vs-action-blue{fill:#00539C;}</style><path class="icon-canvas-transparent" d="M16 16h-16v-16h16v16z" id="canvas"/><path class="icon-vs-out" d="M16 0v16h-12v-5h-1.914l-2.086-2.085v-.83l2.086-2.085h1.914v-6h12z" id="outline"/><path class="icon-vs-bg" d="M5 1v5h3v5h-3v4h10v-14h-10zm3 13h-2v-2h2v2zm0-9h-2v-2h2v2zm6 9h-2v-2h2v2zm0-3h-2v-2h2v2zm0-3h-2v-2h2v2zm0-3h-2v-2h2v2z" id="iconBg"/><path class="icon-vs-fg" d="M6.414 6h1.586v1h-2v-.586l.414-.414zm-.414 4.586l.414.414h1.586v-1h-2v.586zm0-5.586h2v-2h-2v2zm0 9h2v-2h-2v2zm6 0h2v-2h-2v2zm0-11v2h2v-2h-2zm0 5h2v-2h-2v2zm0 3h2v-2h-2v2z" id="iconFg"/><path class="icon-vs-action-blue" d="M3 9l1 1h-1.5l-1.5-1.5 1.5-1.5h1.5l-1 1h4v1h-4z" id="colorAction"/></svg>