<svg xmlns="http://www.w3.org/2000/svg" width="16" height="16"><style type="text/css">.icon-canvas-transparent{opacity:0;fill:#F6F6F6;} .icon-vs-out{fill:#F6F6F6;} .icon-vs-bg{fill:#424242;} .icon-vs-fg{fill:#F0EFF1;} .icon-vs-action-green{fill:#388A34;}</style><path class="icon-canvas-transparent" d="M16 16h-16v-16h16v16z" id="canvas"/><path class="icon-vs-out" d="M16 3v12h-4.766c-1.234 0-1.234 1-1.234 1h-4s0-1-1.235-1h-4.765v-13h2v-2h4v2h2v1.999c.517-.382 1.111-.999 2-.999h6z" id="outline"/><path class="icon-vs-bg" d="M10 4c-.874 0-1.28.364-2 .999v1.001h-1v7.328c-.55-.34-1.011-.328-1.735-.328h-3.265v-7h-1v8h4.265c.768 0 1.424.475 1.735 1h2c.309-.525.967-1 1.734-1h4.266v-10h-5zm4 9h-3.266c-.723 0-1.183-.012-1.734.328v-7.361c0-.459.645-.967 1.628-.967h3.372v8z" id="iconBg"/><path class="icon-vs-fg" d="M14 5v8h-3.266c-.723 0-1.183-.012-1.734.328v-7.361c0-.459.645-.967 1.628-.967h3.372zm-8 1h1v7.328c-.55-.34-1.011-.328-1.735-.328h-3.265v-5h4v-2z" id="iconFg"/><path class="icon-vs-action-green" d="M7 3.018h-2v-2.018h-1.981v2.018h-2.019v1.982h2.019v2h1.981v-2h2v-1.982z" id="colorAction"/></svg>