<svg xmlns="http://www.w3.org/2000/svg" width="16" height="16"><style type="text/css">.icon-canvas-transparent{opacity:0;fill:#F6F6F6;} .icon-vs-out{fill:#F6F6F6;} .icon-vs-bg{fill:#424242;} .icon-vs-action-green{fill:#388A34;}</style><path class="icon-canvas-transparent" d="M16 16h-16v-16h16v16z" id="canvas"/><path class="icon-vs-out" d="M13.914 11h-1.648l.734-.42v-4.166l2-2v-3.414h-3.414l-2.299 2.299-.522-.299h-.765v-.982h-2v-2.018h-3.982l-2.018 2.018v3.982h1v9h9.586l-1 1h4.328l2.086-2.086v-.828l-2.086-2.086z" id="outline"/><path class="icon-vs-bg" d="M2 2h-.535l.535-.535v.535zm10 0l-1 1h1.293l-1.064 1.063.926.488.845-.844v1.293l1-1v-2h-2zm-.245 3.471v4.403l-3.507 2.57-4.081-2.57v-1.874h.619v1.497l3.209 2.047v-3.574l-1.995-1.114v-.691l2.201 1.255 2.864-1.719-3.065-1.511v-.657l.041-.021 3.714 1.959zm-.565.954l-2.576 1.567v3.463l2.576-1.856v-3.174zm2.292 5.575h-1.5l1 1h-9.293l1.377-1.378-.858-.546-1.208 1.217v-4.293h-1v6h10.982l-1 1h1.5l1.5-1.5-1.5-1.5z" id="iconBg"/><path class="icon-vs-action-green" d="M3.018 5h-2.018v-1.982h2.018v-2.018h1.982v2.018h2v1.982h-2v2h-1.982v-2z" id="colorAction"/></svg>