<svg xmlns="http://www.w3.org/2000/svg" width="16" height="16"><style type="text/css">.icon-canvas-transparent{opacity:0;fill:#F6F6F6;} .icon-vs-out{fill:#F6F6F6;} .icon-vs-bg{fill:#424242;} .icon-vs-fg{fill:#F0EFF1;} .icon-vs-action-green{fill:#388A34;}</style><path class="icon-canvas-transparent" d="M16 16h-16v-16h16v16z" id="canvas"/><path class="icon-vs-out" d="M16 0v16h-15v-9h1v-.937h-2v-4.063h2v-2h14z" id="outline"/><path class="icon-vs-bg" d="M10.5 7h-1l1.5 3h1.5l.5.5v2l-.5.5h-3l-.5-.5v-2l.5-.5h.5l-1.5-3-1.5 3h.5l.5.5v2l-.5.5h-3l-.5-.5v-2l.5-.5h1.5l1.5-3h-1l-.5-.5v-.5h4v-1h-2v-1h2.5l.5.5v2l-.5.5zm-3.5 4h-2v1h2v-1zm3 0v1h2v-1h-2zm-4-10v1.018h2v.982h6v11h-11v-6h-.982l-.018 7h13v-14h-9z" id="iconBg"/><path class="icon-vs-fg" d="M14 3v11h-11v-6h3v-1.5l.5.5h1l-1.5 3h-1.5l-.5.5v2l.5.5h3l.5-.5v-2l-.5-.5h-.5l1.5-3 1.5 3h-.5l-.5.5v2l.5.5h3l.5-.5v-2l-.5-.5h-1.5l-1.5-3h1l.5-.5v-2l-.5-.5h-2.5v-1h6zm-4 2h-2v1h2v-1zm2 7v-1h-2v1h2zm-7 0h2v-1h-2v1z" id="iconFg"/><path class="icon-vs-action-green" d="M7 5h-2v2h-1.982v-2h-2.018v-1.982h2.018v-2.018h1.982v2.018h2v1.982z" id="colorAction"/></svg>