<svg xmlns="http://www.w3.org/2000/svg" width="16" height="16"><style type="text/css">.icon-canvas-transparent{opacity:0;fill:#F6F6F6;} .icon-vs-out{fill:#F6F6F6;} .icon-vs-bg{fill:#424242;} .icon-vs-action-green{fill:#388A34;}</style><path class="icon-canvas-transparent" d="M16 16h-16v-16h16v16z" id="canvas"/><path class="icon-vs-out" d="M15 .999v5.414l-2.586 2.587h-1.414v-1.586l-8 8-2.414-2.413 5.296-5.001h-3.882v-2h-2v-4h2v-2h4.001v2h1.999v.586l1.586-1.586h5.414z" id="outline"/><path class="icon-vs-bg" d="M14 2v4l-2 2v-3l-9 9-1-1 9-9h-3l2-2h4z" id="iconBg"/><path class="icon-vs-action-green" d="M3 7v-2h-2v-2h2v-2h2v2h2v2h-2v2h-2z" id="colorAction"/></svg>