<svg xmlns="http://www.w3.org/2000/svg" width="16" height="16"><style type="text/css">.icon-canvas-transparent{opacity:0;fill:#F6F6F6;} .icon-vs-out{fill:#F6F6F6;} .icon-vs-bg{fill:#424242;} .icon-vs-fg{fill:#F0EFF1;}</style><path class="icon-canvas-transparent" d="M16 16h-16v-16h16v16z" id="canvas"/><path class="icon-vs-out" d="M13 4.5v1.469c0 .273-.05.536-.148.785.098.241.148.49.148.746v1.469c0 .273-.05.536-.148.784.098.241.148.491.148.747v1.469c0 1.741-2.149 3.031-5 3.031s-5-1.29-5-3v-1.5c0-.255.049-.504.147-.745-.097-.244-.147-.498-.147-.755v-1h-.981v-2h-2.019v-3.982h2.019v-2.018h3.981v1.733c.607-.15 1.281-.233 2-.233 2.851 0 5 1.29 5 3z" id="outline"/><path class="icon-vs-bg" d="M3.019 7v-2h-2.019v-1.982h2.019v-2.018h1.981v2.018h2v1.982h-2v2h-1.981zm8.981-2.5v1.5c0 .27-.109.525-.303.76.19.229.303.476.303.74v1.5c0 .27-.109.525-.303.761.19.228.303.475.303.739v1.5c0 1.104-1.791 2-4 2s-4-.896-4-2v-1.5c0-.264.113-.511.303-.74-.194-.235-.303-.49-.303-.76v-1h1.004c.508.422 1.576.825 2.996.825 1.999 0 3.325-.798 3.325-1.325 0-.095-.057-.198-.139-.303-.17.112-.363.215-.577.307l-.111.047c-.18.072-.37.136-.573.192l-.199.054c-.194.047-.396.083-.605.113l-.232.036c-.286.033-.582.054-.889.054-.353 0-.688-.03-1.015-.073l-.095-.015c-.316-.046-.61-.116-.89-.197v-1.715h2v-.175c1.999 0 3.325-.798 3.325-1.325s-1.326-1.325-3.325-1.325v-.675c2.209 0 4 .896 4 2zm-.675 6c0-.095-.057-.198-.138-.305-.724.488-1.877.805-3.187.805s-2.463-.317-3.188-.805c-.081.106-.138.21-.138.305 0 .527 1.326 1.325 3.325 1.325s3.326-.798 3.326-1.325z" id="iconBg"/><path class="icon-vs-fg" d="M11.188 10.195c.081.106.138.21.138.305 0 .527-1.326 1.325-3.325 1.325s-3.326-.798-3.326-1.325c0-.095.057-.198.138-.305.724.488 1.877.805 3.187.805s2.463-.317 3.188-.805zm-3.188-7.02v2.65c1.999 0 3.325-.798 3.325-1.325s-1.326-1.325-3.325-1.325zm3.188 4.021c-.725.487-1.878.804-3.188.804-.736 0-1.411-.108-2-.282v.282h-.996c.507.422 1.576.825 2.996.825 1.999 0 3.325-.798 3.325-1.325 0-.095-.056-.199-.137-.304z" id="iconFg"/></svg>