<svg xmlns="http://www.w3.org/2000/svg" viewBox="0 0 16 16"><style>.st0{opacity:0}.st0,.st1{fill:#f6f6f6}.st2{fill:#424242}.st3{fill:#f0eff1}</style><g id="outline"><path class="st0" d="M0 0h16v16H0z"/><path class="st1" d="M16 5v9h-4c-.164.005-1 1-1 1H9s-.836-.995-1-1H4V8H3V6H1V2h2V0h4v2h2v3.048c.4.073.727.229 1 .452.381-.309.863-.5 1.5-.5H16z"/></g><g id="icon_x5F_bg"><path class="st2" d="M4 7V5H2V3h2V1h2v2h2v2H6v2z"/><path class="st2" d="M11.5 6c-.624 0-.984.365-1.5 1-.508-.626-.861-.996-1.5-1H7v1h1c.566 0 1 .663 1 1v4c-.33-.205-.564 0-1 0H6V8H5v5h3c.549 0 1.778-.025 2 .5.221-.525 1.451-.5 2-.5h3V6h-3.5zm2.5 6h-2c-.435 0-.67-.205-1 0V8c0-.385.41-1 1-1h2v5z"/></g><path class="st3" d="M9 8v4c-.33-.205-.564 0-1 0H6V8h1V7h1c.566 0 1 .663 1 1zm3-1c-.59 0-1 .615-1 1v4c.33-.205.565 0 1 0h2V7h-2z" id="icon_x5F_fg"/></svg>