<svg xmlns="http://www.w3.org/2000/svg" width="16" height="16"><style type="text/css">.icon-vs-out{fill:#F6F6F6;} .icon-vs-fg{fill:#F0EFF1;} .icon-vs-red{fill:#E51400;} .icon-vs-action-green{fill:#388A34;}</style><path class="icon-vs-out" d="M16 7.586v.828l-7.586 7.586h-.828l-7.586-7.586v-.828l1.586-1.586h-1.586v-4h2v-2h4v1.586l1.586-1.586h.828l7.586 7.586z" id="outline"/><path class="icon-vs-red" d="M6 7.164v-1.164h.533l-.533 1.164zm2-6.164l-1 1h1v2h2.383l-2.933 3h3.3l-4.4 5h-.367l1.467-3h-2.2l.367-1h-3.617v-1l-1 1 7 7 7-7-7-7z" id="iconBg"/><path class="icon-vs-fg" d="M10.75 7l-4.4 5h-.367l1.467-3h-2.2l.367-1h.383v-.836l.533-1.164h1.467v-2h2.383l-2.933 3h3.3z" id="iconFg"/><path class="icon-vs-action-green" d="M7 5h-2v2h-2v-2h-2v-2h2v-2h2v2h2v2z" id="colorAction"/></svg>