<?xml version="1.0" encoding="utf-8"?>
<!-- Generator: Adobe Illustrator 19.0.0, SVG Export Plug-In . SVG Version: 6.00 Build 0)  -->
<!DOCTYPE svg PUBLIC "-//W3C//DTD SVG 1.1//EN" "http://www.w3.org/Graphics/SVG/1.1/DTD/svg11.dtd">
<svg version="1.1" xmlns="http://www.w3.org/2000/svg" xmlns:xlink="http://www.w3.org/1999/xlink" x="0px" y="0px" width="16px"
	 height="16px" viewBox="0 0 16 16" style="enable-background:new 0 0 16 16;" xml:space="preserve">
<style type="text/css">
	.icon-canvas-transparent{opacity:0;fill:#F6F6F6;}
	.icon-vs-out{fill:#F6F6F6;}
	.icon-vs-bg{fill:#424242;}
	.icon-vs-fg{fill:#F0EFF1;}
	.icon-vs-action-green{fill:#388A34;}
</style>
<g id="canvas">
	<path  class="icon-canvas-transparent" d="M16,16H0V0h16V16z"/>
</g>
<g id="outline">
	<path class="icon-vs-out" d="M15,1v15H6V8H2.018V6H0V2.018h2.018V0H6v1H15z"/>
</g>
<g id="iconBg">
	<path class="icon-vs-bg" d="M14,2v13H7V6h1h5V3H8l0-1H14z M13,11H8v3h5V11z"/>
</g>
<g id="iconFg">
	<path class="icon-vs-fg" d="M8,11h5v3H8V11z M8,3v3h5V3H8z"/>
</g>
<g id="colorAction">
	<path class="icon-vs-action-green" d="M7,5H5v2H3V5H1V3h2V1h2v2h2V5z"/>
	
	
	
	
	
	
</g>
</svg>
