<svg xmlns="http://www.w3.org/2000/svg" width="16" height="16"><style type="text/css">.icon-canvas-transparent{opacity:0;fill:#F6F6F6;} .icon-vs-out{fill:#F6F6F6;} .icon-vs-bg{fill:#424242;} .icon-vs-fg{fill:#F0EFF1;} .icon-vs-action-green{fill:#388A34;}</style><path class="icon-canvas-transparent" d="M16 16h-16v-16h16v16z" id="canvas"/><path class="icon-vs-out" d="M16 2v13h-13v-7h-1v-2h-2v-4h2v-2h4v2h10z" id="outline"/><path class="icon-vs-bg" d="M8 11h5v1h-5v-1zm0-8v3h6v7h-9v-5h-1v6h11v-11h-7zm-1 5h-1v1h1v-1zm6 2h-5v-3h5v3zm-1-2h-3v1h3v-1zm-5 3h-1v1h1v-1z" id="iconBg"/><path class="icon-vs-fg" d="M12 9h-3v-1h3v1zm-6-3h8v7h-9v-5h1v-2zm1 5h-1v1h1v-1zm0-3h-1v1h1v-1zm6 3h-5v1h5v-1zm0-4h-5v3h5v-3z" id="iconFg"/><path class="icon-vs-action-green" d="M7 3h-2v-2h-2v2h-2v2h2v2h2v-2h2v-2z" id="colorAction"/></svg>