<svg xmlns="http://www.w3.org/2000/svg" width="16" height="16"><style type="text/css">.icon-canvas-transparent{opacity:0;fill:#F6F6F6;} .icon-vs-out{fill:#F6F6F6;} .icon-vs-bg{fill:#424242;} .icon-vs-action-green{fill:#388A34;}</style><path class="icon-canvas-transparent" d="M16 16h-16v-16h16v16z" id="canvas"/><path class="icon-vs-out" d="M16 16h-4.108l-1-3h-3.893l-1 3h-4.108l2.667-8h-2.558v-2h-2v-4h2v-2h4v2h.558l.667-2h3.441l5.334 16z" id="outline"/><path class="icon-vs-bg" d="M9.945 1h-2l-.333 1h.388v4h-1.721l-.279.836v1.164h-.388l-2.333 7h2l1-3h5.334l1 3h2l-4.668-14zm-3 9l2-6 2 6h-4z" id="iconBg"/><path class="icon-vs-action-green" d="M7 5h-2v2h-2v-2h-2v-2h2v-2h2v2h2v2z" id="colorAction"/></svg>