<svg xmlns="http://www.w3.org/2000/svg" width="16" height="16"><style type="text/css">.icon-canvas-transparent{opacity:0;fill:#F6F6F6;} .icon-vs-out{fill:#F6F6F6;} .icon-vs-bg{fill:#424242;} .icon-vs-action-green{fill:#388A34;}</style><path class="icon-canvas-transparent" d="M16 16h-16v-16h16v16z" id="canvas"/><path class="icon-vs-out" d="M7 0v2.018h-1v-2.018h-3.981v2.018h-2.019v3.982h2.019l-.019 10h14v-16h-9zm-1 12v-6h1v1h5v5h-6z" id="outline"/><path class="icon-vs-bg" d="M13 7h2v8h-12v-7h2v5h8v-6zm-2-6h-1l-.5 1.25-.5-1.25h-1l1 2.5-1 2.5h1l.5-1.25.5 1.25h1l-1-2.5 1-2.5zm3 0l-.5 1.5-.5-1.5h-1l1 3v2h1v-2l1-3h-1z" id="iconBg"/><path class="icon-vs-action-green" d="M7 5h-2v2h-1.981v-2h-2.019v-1.982h2.019v-2.018h1.981v2.018h2v1.982z" id="iconFg"/></svg>