<svg xmlns="http://www.w3.org/2000/svg" width="16" height="16"><style type="text/css">.icon-canvas-transparent{opacity:0;fill:#F6F6F6;} .icon-vs-out{fill:#F6F6F6;} .icon-vs-bg{fill:#424242;} .icon-vs-fg{fill:#F0EFF1;} .icon-vs-action-green{fill:#388A34;}</style><path class="icon-canvas-transparent" d="M16 16h-16v-16h16v16z" id="canvas"/><path class="icon-vs-out" d="M16 5.586v8.414c-.028.825-.593 2-2.035 2h-11.379l-2.586-2.586v-.828l4-4v-.586h-2v-2h-2v-4h2v-2h4v2h6.414l3.586 3.586z" id="outline"/><path class="icon-vs-bg" d="M5 10.179v-2.179h1v2c-.352 0-.687.067-1 .179zm4 .821v1l1 1-1 1v1l2-2-2-2zm-6 0v1l-1 1 1 1v1l-2-2 2-2zm5 2c0 1.104-.896 2-2 2s-2-.896-2-2 .896-2 2-2 2 .896 2 2zm4-10h-4v1h3v3h3v7h-2.586l-1 1h3.551c1 0 1.035-1 1.035-1v-8l-3-3z" id="iconBg"/><path class="icon-vs-fg" d="M14 7v7h-2.586l1-1-4.414-4.414v2.18c-.531-.476-1.232-.766-2-.766v-4h2v-2h3v3h3z" id="iconFg"/><path class="icon-vs-action-green" d="M7 3.018h-2v-2.018h-1.981v2.018h-2.019v1.982h2.019v2h1.981v-2h2v-1.982z" id="colorAction"/></svg>