<svg xmlns="http://www.w3.org/2000/svg" width="16" height="16"><style type="text/css">.icon-canvas-transparent{opacity:0;fill:#F6F6F6;} .icon-vs-out{fill:#F6F6F6;} .icon-vs-bg{fill:#424242;} .icon-vs-fg{fill:#F0EFF1;} .icon-vs-action-green{fill:#388A34;}</style><path class="icon-canvas-transparent" d="M16 16h-16v-16h16v16z" id="canvas"/><path class="icon-vs-out" d="M16 15h-2v1h-12v-10h-2v-4h2v-2h4v2h2v2h1v-2h7v13z" id="outline"/><path class="icon-vs-bg" d="M15 4h-1v-1h1v1zm-2-1h-1v1h1v-1zm2 2h-1v1h1v-1zm0 2h-1v1h1v-1zm0 2h-1v1h1v-1zm0 2h-1v1h1v-1zm0 2h-1v1h1v-1zm-4-10h-1v1h1v-1zm-3 2v1h-2v1h5v6h-6v-5h-2v7h10v-10h-5z" id="iconBg"/><path class="icon-vs-fg" d="M6 8v-1h5v6h-6v-5h1z" id="iconFg"/><path class="icon-vs-action-green" d="M7 3h-2v-2h-2v2h-2v2h2v2h2v-2h2v-2z" id="colorAction"/></svg>