<svg xmlns="http://www.w3.org/2000/svg" viewBox="0 0 16 16" enable-background="new 0 0 16 16"><style type="text/css">.icon-canvas-transparent{opacity:0;fill:#F6F6F6;} .icon-vs-out{fill:#F6F6F6;} .icon-vs-bg{fill:#424242;} .icon-vs-fg{fill:#F0EFF1;} .icon-vs-action-green{fill:#388A34;}</style><path class="icon-canvas-transparent" d="M16 16h-16v-16h16v16z" id="canvas"/><path class="icon-vs-out" d="M16 4.153v6.686l-2.22 2.161h-3.322l-2.006 3h-2.452v-3h-2.012l-1.988-2.24v-4.76h-2v-4h2v-2h4v2h7.778l2.222 2.153z" id="outline"/><path class="icon-vs-fg" d="M12.968 4h-4.968v2h1v1.591c0 .863-.696 1.709-1.102 1.986-.215.147-.538.248-.898.313v-.95c.561-.304.833-.841.833-1.286v-.098l-.833.035v-1.591h-1v2h-2v2l.887 1h3.113v2.078l1.39-2.078h3.578l1.032-1.005v-4.995l-1.032-1zm-.968 3.591c0 .863-.696 1.709-1.102 1.986-.215.147-.538.248-.898.313v-.95c.561-.304.833-.841.833-1.286v-.098l-.833.035v-1.591h2v1.591z" id="iconFg"/><path class="icon-vs-bg" d="M7.898 9.577c-.215.147-.538.248-.898.313v-.95c.561-.304.833-.841.833-1.286v-.098l-.833.035v-1.591h2v1.591c0 .863-.696 1.708-1.102 1.986zm2.102-.637v.95c.36-.065.683-.166.898-.313.406-.278 1.102-1.123 1.102-1.986v-1.591h-2v1.591l.833-.035v.098c0 .444-.272.981-.833 1.286zm3.373-5.94h-5.373v1h4.968l1.032 1v4.995l-1.032 1.005h-3.578l-1.39 2.078v-2.078h-3.113l-.887-1v-2h-1v2.38l1.438 1.62h2.562v3h.918l2.006-3h3.45l1.626-1.583v-5.84l-1.627-1.577z" id="iconBg"/><path class="icon-vs-action-green" d="M7 5h-2v2h-2v-2h-2v-2h2v-2h2v2h2v2z" id="colorAction"/></svg>