<svg xmlns="http://www.w3.org/2000/svg" width="16" height="16"><style type="text/css">.icon-canvas-transparent{opacity:0;fill:#F6F6F6;} .icon-vs-out{fill:#F6F6F6;} .icon-vs-bg{fill:#424242;} .icon-vs-fg{fill:#F0EFF1;} .icon-vs-action-green{fill:#388A34;}</style><path class="icon-canvas-transparent" d="M16 16h-16v-16h16v16z" id="canvas"/><path class="icon-vs-out" d="M7 1v1h-1v-2h-4v2h-2v4h2v2h3.86l-5.544 5.518 2.118 2.126 8.472-8.433 1.833 1.789h2.261v-8h-8zm-1 5h1.869l-1.869 1.86v-1.86zm2-.13v-1.494l.758.739-.758.755z" id="outline"/><path class="icon-vs-bg" d="M8 2v.979l2.183 2.129-8.453 8.413.706.709 8.462-8.423 2.248 2.193h.854v-6h-6zm5 4.469l-3.515-3.469h3.515v3.469z" id="iconBg"/><path class="icon-vs-fg" d="M13 6.469l-3.515-3.469h3.515v3.469z" id="iconFg"/><path class="icon-vs-action-green" d="M7 5h-2v2h-1.982v-2h-2.018v-1.982h2.018v-2.018h1.982v2.018h2v1.982z" id="colorAction"/></svg>