<svg xmlns="http://www.w3.org/2000/svg" width="16" height="16"><style type="text/css">.icon-canvas-transparent{opacity:0;fill:#F6F6F6;} .icon-vs-out{fill:#F6F6F6;} .icon-vs-bg{fill:#424242;} .icon-vs-fg{fill:#F0EFF1;} .icon-vs-action-green{fill:#388A34;}</style><path class="icon-canvas-transparent" d="M16 16h-16v-16h16v16z" id="canvas"/><path class="icon-vs-out" d="M16 4v11h-2v1h-12v-10h-2v-3.982h2.019v-2.018h3.981v2.018h2v1.982h8z" id="outline"/><path class="icon-vs-bg" d="M12 5h1v1h-1v-1zm-3 1v-1h-1v1h1zm2-1h-1v1h1v-1zm3 0v1h1v-1h-1zm0 5h1v-1h-1v1zm0 4h1v-1h-1v1zm0-6h1v-1h-1v1zm0 4h1v-1h-1v1zm-1-5v8h-10v-7h3v-1h7zm-1 2h-8v5h8v-5z" id="iconBg"/><path class="icon-vs-fg" d="M4 9h8v5h-8v-5z" id="iconFg"/><path class="icon-vs-action-green" d="M7 5h-2v2h-1.981v-2h-2.019v-1.982h2.019v-2.018h1.981v2.018h2v1.982z" id="colorAction"/></svg>