<svg xmlns="http://www.w3.org/2000/svg" width="16" height="16"><style type="text/css">.icon-canvas-transparent{opacity:0;fill:#F6F6F6;} .icon-vs-out{fill:#F6F6F6;} .icon-vs-bg{fill:#424242;} .icon-vs-action-green{fill:#388A34;}</style><path class="icon-canvas-transparent" d="M16 16h-16v-16h16v16z" id="canvas"/><path class="icon-vs-out" d="M16 3v13h-6v-4h2v-5h-2v-4h6zm-8-.982h-2v-2.018h-3.981v2.018h-2.019v3.982h2.019v2h.981v8h6v-4h-2v-5h2v-4h-1v-.982z" id="outline"/><path class="icon-vs-bg" d="M6 8v5h2v2h-4v-7h2zm5 5v2h4v-11h-4v2h2v7h-2z" id="iconBg"/><path class="icon-vs-action-green" d="M7 5h-2v2h-1.981v-2h-2.019v-1.982h2.019v-2.018h1.981v2.018h2v1.982z" id="colorAction"/></svg>