<svg xmlns="http://www.w3.org/2000/svg" width="16" height="16"><style type="text/css">.icon-canvas-transparent{opacity:0;fill:#F6F6F6;} .icon-vs-out{fill:#F6F6F6;} .icon-vs-fg{fill:#F0EFF1;} .icon-vs-action-green{fill:#388A34;} .icon-vs-bg{fill:#424242;}</style><path class="icon-canvas-transparent" d="M16 16h-16v-16h16v16z" id="canvas"/><path class="icon-vs-out" d="M16 4v12h-12v-8h-2v-2h-2v-4h2v-2h4v2h2v2h8z" id="outline"/><path class="icon-vs-bg" d="M10 8.195c0-.66.535-1.195 1.195-1.195s1.195.535 1.195 1.195-.535 1.195-1.195 1.195c-.66.001-1.195-.535-1.195-1.195zm5-3.195v10h-10v-7h1v2.084l2-2.211 2.688 3.486 1.812-1.359 1.5 1v-5h-6v-1h7zm-1 7.594l-1.5-1.143-2 1.549-2.5-3.406-2 2.211v2.195h8v-1.406z" id="iconBg"/><path class="icon-vs-fg" d="M12.5 11.451l1.5 1.143v1.406h-8v-2.195l2-2.211 2.5 3.406 2-1.549zm-6.5-5.451h8v5l-1.5-1-1.813 1.359-2.687-3.486-2 2.211v-4.084zm4 2.195c0 .66.535 1.195 1.195 1.195s1.195-.535 1.195-1.195-.535-1.195-1.195-1.195-1.195.535-1.195 1.195z" id="iconFg"/><path class="icon-vs-action-green" d="M7 5h-2v2h-1.982v-2h-2.018v-1.982h2.018v-2.018h1.982v2.018h2v1.982z" id="colorAction"/></svg>