<svg xmlns="http://www.w3.org/2000/svg" width="16" height="16"><style type="text/css">.icon-canvas-transparent{opacity:0;fill:#F6F6F6;} .icon-vs-out{fill:#F6F6F6;} .icon-vs-bg{fill:#424242;} .icon-vs-fg{fill:#F0EFF1;} .icon-vs-action-green{fill:#388A34;}</style><path class="icon-canvas-transparent" d="M16 16h-16v-16h16v16z" id="canvas"/><path class="icon-vs-out" d="M16 10.5c0 2.481-2.019 4.5-4.5 4.5-1.914 0-3.601-1.241-4.227-3h-1.682c-.525.911-1.503 1.5-2.591 1.5-1.654 0-3-1.346-3-3 0-1.309.848-2.413 2.019-2.821v-1.679h-2.019v-3.982h2.019v-2.018h3.981v2.018h2v3.982h-2v2h-1.375c.391.255.729.588.966 1h1.683c.625-1.759 2.312-3 4.226-3 2.481 0 4.5 2.019 4.5 4.5z" id="outline"/><path class="icon-vs-bg" d="M11.5 7c-1.759 0-3.204 1.308-3.449 3h-3.122c-.223-.861-.998-1.5-1.929-1.5-1.104 0-2 .895-2 2 0 1.106.896 2 2 2 .931 0 1.706-.639 1.929-1.5h3.122c.245 1.691 1.69 3 3.449 3 1.93 0 3.5-1.57 3.5-3.5s-1.57-3.5-3.5-3.5zm0 5c-.827 0-1.5-.673-1.5-1.5s.673-1.5 1.5-1.5 1.5.673 1.5 1.5-.673 1.5-1.5 1.5z" id="iconBg"/><path class="icon-vs-fg" d="M11.5 12c-.827 0-1.5-.673-1.5-1.5s.673-1.5 1.5-1.5 1.5.673 1.5 1.5-.673 1.5-1.5 1.5z" id="iconFg"/><path class="icon-vs-action-green" d="M7 5h-2v2h-1.981v-2h-2.019v-1.982h2.019v-2.018h1.981v2.018h2v1.982z" id="colorAction"/></svg>