<svg xmlns="http://www.w3.org/2000/svg" viewBox="0 0 16 16" enable-background="new 0 0 16 16"><style type="text/css">.icon-canvas-transparent{opacity:0;fill:#F6F6F6;} .icon-vs-out{fill:#F6F6F6;} .icon-vs-bg{fill:#424242;} .icon-vs-fg{fill:#F0EFF1;} .icon-vs-action-green{fill:#388A34;}</style><path class="icon-canvas-transparent" d="M16 16h-16v-16h16v16z" id="canvas"/><path class="icon-vs-out" d="M16 4v12h-16v-14h2v-2h4v2h2v2h8z" id="outline"/><polygon class="icon-vs-fg" points="8,6 6,6 6,8 5.082,8 7.082,10 3.979,13.103 3.271,12.396 5.668,10 3.668,8 2,8 2,14 14,14 14,6" id="iconFg"/><path class="icon-vs-bg" d="M3.271 12.396l2.397-2.396-2-2h1.414l2 2-3.104 3.103-.707-.707zm4.729-7.396v1h6v8h-12v-8h-1v9h14v-10h-7z" id="iconBg"/><path class="icon-vs-action-green" d="M7 5h-2v2h-2v-2h-2v-2h2v-2h2v2h2v2z" id="colorAction"/></svg>