<svg xmlns="http://www.w3.org/2000/svg" viewBox="0 0 16 16"><style>.icon-canvas-transparent{opacity:0;fill:#f6f6f6}.icon-vs-out{fill:#f6f6f6}.icon-vs-bg{fill:#424242}.icon-vs-action-green{fill:#388a34}</style><path class="icon-canvas-transparent" d="M16 0v16H0V0h16z" id="canvas"/><path class="icon-vs-out" d="M16 11c0 2.206-1.794 4-4 4H7a4.008 4.008 0 0 1-3.896-3.089l-.417-.146A4 4 0 0 1 0 8c0-.732.212-1.409.556-2H0V2.018h2.019V0H6v2.018h2V4h1a4.009 4.009 0 0 1 3.896 3.089l.417.146A4 4 0 0 1 16 11z" id="outline"/><g id="iconBg"><path class="icon-vs-bg" d="M9 6H8V5h1c1.654 0 3 1.346 3 3s-1.346 3-3 3H6c0-.551.449-1 1-1h2c1.102 0 2-.897 2-2s-.898-2-2-2zM2 8c0-.063.013-.122.019-.184V6H1.78A2.98 2.98 0 0 0 1 8c0 1.309.847 2.412 2.018 2.821.016-.345.079-.676.177-.993A2.001 2.001 0 0 1 2 8zm10.982.179a3.967 3.967 0 0 1-.177.993A2.002 2.002 0 0 1 14 11c0 1.102-.898 2-2 2H7c-1.103 0-2-.898-2-2 0-1.103.897-2 2-2h2c.552 0 1-.449 1-1H7c-1.654 0-3 1.346-3 3s1.346 3 3 3h5c1.654 0 3-1.346 3-3a2.993 2.993 0 0 0-2.018-2.821z"/><path class="icon-vs-action-green" d="M7 3.018H5V1H3.019v2.018H1V5h2.019v2H5V5h2V3.018z"/></g></svg>