<svg xmlns="http://www.w3.org/2000/svg" viewBox="0 0 16 16"><style>.icon-canvas-transparent{opacity:0;fill:#f6f6f6}.icon-vs-out{fill:#f6f6f6}.icon-vs-bg{fill:#424242}.icon-vs-fg{fill:#f0eff1}.icon-vs-action-green{fill:#388a34}</style><path class="icon-canvas-transparent" d="M16 0v16H0V0h16z" id="canvas"/><path class="icon-vs-out" d="M16 3.379V13h-4c0 1.654-1.346 3-3 3H5a3.005 3.005 0 0 1-2.844-2.044l-.62-.349A3 3 0 0 1 0 11c0-1.654 1.346-3 3-3h2V0h7.621L16 3.379z" id="outline"/><path class="icon-vs-fg" d="M11.793 2H7v.018h1V6H7v2c1.319 0 2.443.856 2.844 2.042l.621.35c.285.16.524.373.738.607H14V4.207L11.793 2zM11 9h-1V8h1v1zm0-2h-1V4h1v3z" id="iconFg"/><g id="iconBg"><path class="icon-vs-out" d="M2.018 8V6H0V2.018h2.018V0H6v2.018h2V6H6v2z"/><path class="icon-vs-bg" d="M2 11a.99.99 0 0 0 .302.712 2.96 2.96 0 0 0-.275 1.024A1.991 1.991 0 0 1 1 11c0-1.103.897-2 2-2h4c1.102 0 2 .897 2 2s-.898 2-2 2H6l1-1a1.001 1.001 0 0 0 0-2H3c-.551 0-1 .449-1 1zm7.973.264a2.965 2.965 0 0 1-.275 1.024A.99.99 0 0 1 10 13a1 1 0 0 1-1 1H5a1.001 1.001 0 0 1 0-2l1-1H5c-1.103 0-2 .897-2 2 0 1.102.897 2 2 2h4c1.102 0 2-.898 2-2 0-.748-.417-1.393-1.027-1.736zM7 6H6v2h1V6zm5.207-5H6v1.018h1V2h4.793L14 4.207V11h-2.798c.266.292.466.631.6 1H15V3.793L12.207 1zM10 7h1V4h-1v3zm0 2h1V8h-1v1z"/></g><g id="colorAction"><path class="icon-vs-action-green" d="M3.018 7V5H1V3.018h2.018V1H5v2.018h2V5H5v2H3.018z"/></g></svg>