<svg xmlns="http://www.w3.org/2000/svg" width="16" height="16"><style type="text/css">.icon-canvas-transparent{opacity:0;fill:#F6F6F6;} .icon-vs-out{fill:#F6F6F6;} .icon-vs-bg{fill:#424242;} .icon-vs-fg{fill:#F0EFF1;} .icon-vs-action-green{fill:#388A34;}</style><path class="icon-canvas-transparent" d="M16 16h-16v-16h16v16z" id="canvas"/><path class="icon-vs-out" d="M14 0v16h-10v-8h-1.981v-2h-2.019v-3.982h2.019v-2.018h11.981z" id="outline"/><path class="icon-vs-bg" d="M6 1v1.018h2v.982h3v1h-3v1h3v1h-5v2h-1v7h8v-14h-7zm5 12h-1v-1h1v1z" id="iconBg"/><path class="icon-vs-fg" d="M8 4v-1h3v1h-3zm3 2v-1h-3v1h3zm-1 7h1v-1h-1v1z" id="iconFg"/><path class="icon-vs-action-green" d="M7 5h-2v2h-1.981v-2h-2.019v-1.982h2.019v-2.018h1.981v2.018h2v1.982z" id="colorAction"/></svg>