<svg xmlns="http://www.w3.org/2000/svg" width="16" height="16"><style type="text/css">.icon-canvas-transparent{opacity:0;fill:#F6F6F6;} .icon-vs-out{fill:#F6F6F6;} .icon-vs-bg{fill:#424242;} .icon-vs-fg{fill:#F0EFF1;} .icon-vs-action-green{fill:#388A34;}</style><path class="icon-canvas-transparent" d="M16 16h-16v-16h16v16z" id="canvas"/><path class="icon-vs-out" d="M16 1v15h-15v-10h-1v-3.982h1v-1.018h1.018v-1h3.982v1h10z" id="outline"/><path class="icon-vs-bg" d="M9 9h4v3h-4v-3zm-7-1v1h1v-1h-1zm0 3h1v-1h-1v1zm0 2h1v-1h-1v1zm2 2h1v-1h-1v1zm2 0h1v-1h-1v1zm2 0h1v-1h-1v1zm-4-3h4v-3h-4v3zm-2 3h1v-1l-1 .002v.998zm8 0h1v-1h-1v1zm2 0h1v-1h-1v1zm-4-10h4v2h-6v1h7v-4h-5v1zm6 10h1v-1h-1v1zm-3-13h-1v1h1v-1zm-2 0h-1v1h1v-1zm5 7h1v-1h-1v1zm0 2h1v-1h-1v1zm0 2h1v-1h-1v1zm0-8h1v-1h-1v1zm0-3v1h1v-1h-1zm0 5h1v-1h-1v1zm-2-4h1v-1h-1v1z" id="iconBg"/><path class="icon-vs-fg" d="M12 5v2h-6v-1h2v-1h4z" id="iconFg"/><path class="icon-vs-action-green" d="M3.018 7v-2h-2.018v-1.982h2.018v-2.018h1.982v2.018h2v1.982h-2v2h-1.982z" id="colorAction"/></svg>