<svg xmlns="http://www.w3.org/2000/svg" width="16" height="16"><style type="text/css">.icon-canvas-transparent{opacity:0;fill:#F6F6F6;} .icon-vs-out{fill:#F6F6F6;} .icon-vs-bg{fill:#424242;} .icon-vs-fg{fill:#F0EFF1;} .icon-vs-action-green{fill:#388A34;}</style><path class="icon-canvas-transparent" d="M16 16h-16v-16h16v16z" id="canvas"/><path class="icon-vs-out" d="M16 3.394v8.047l-6.141 4.559h-.847l-7.012-4.45v-5.55h-2v-3.982h2.018v-2.018h3.982v1.346l2.637-1.346h.832l6.531 3.394z" id="outline"/><path class="icon-vs-bg" d="M9.053.911l-2.169 1.107h1.116v.672l1.027-.522 4.589 2.261-4.268 2.561-1.736-.99h-1.612v.39l2.927 1.634v5.345l-4.815-3.019v-2.35h-1.112v3l6.425 4.077 5.575-4.139v-6.937l-5.947-3.09zm4.847 9.517l-3.853 2.788v-5.132l3.853-2.535v4.879z" id="iconBg"/><path class="icon-vs-fg" d="M6 6.39l2.927 1.634v5.345l-4.815-3.019v-2.35h1.888v-1.61zm3.027-4.223l-1.027.522v3.311h-.388l1.736.99 4.269-2.562-4.59-2.261zm1.021 5.916v5.132l3.853-2.788v-4.878l-3.853 2.534z" id="iconFg"/><path class="icon-vs-action-green" d="M7 5h-2v2h-1.982v-2h-2.018v-1.982h2.018v-2.018h1.982v2.018h2v1.982z" id="colorAction"/></svg>