<svg xmlns="http://www.w3.org/2000/svg" width="16" height="16"><style type="text/css">.icon-canvas-transparent{opacity:0;fill:#F6F6F6;} .icon-vs-out{fill:#F6F6F6;} .icon-vs-bg{fill:#424242;} .icon-vs-fg{fill:#F0EFF1;} .icon-vs-action-green{fill:#388A34;}</style><path class="icon-canvas-transparent" d="M16 16h-16v-16h16v16z" id="canvas"/><path class="icon-vs-out" d="M15 9c0 3.309-2.691 6-6 6s-6-2.691-6-6c0-.341.035-.674.09-1h-1.09v-2h-2v-4h2v-2h4v2h2v1.09c.326-.055.659-.09 1-.09 3.309 0 6 2.691 6 6z" id="outline"/><path class="icon-vs-bg" d="M6 8v-2h2c-1.104 0-2 .896-2 2zm3-4c-.343 0-.677.035-1 .101v1.899c1.104 0 2 .896 2 2s-.896 2-2 2-2-.896-2-2h-1.899c-.066.323-.101.657-.101 1 0 2.762 2.238 5 5 5s5-2.238 5-5-2.238-5-5-5z" id="iconBg"/><path class="icon-vs-fg" d="M10 8c0 1.104-.896 2-2 2s-2-.896-2-2 .896-2 2-2 2 .896 2 2z" id="iconFg"/><path class="icon-vs-action-green" d="M3 7v-2h-2v-2h2v-2h2v2h2v2h-2v2h-2z" id="colorAction"/></svg>