<svg xmlns="http://www.w3.org/2000/svg" width="16" height="16"><style type="text/css">.icon-canvas-transparent{opacity:0;fill:#F6F6F6;} .icon-vs-out{fill:#F6F6F6;} .icon-vs-bg{fill:#424242;} .icon-vs-action-green{fill:#388A34;}</style><path class="icon-canvas-transparent" d="M16 16h-16v-16h16v16z" id="canvas"/><polygon class="icon-vs-out" points="8,4 8,2.018 6,2.018 6,0 2.019,0 2.019,2.018 0,2.018 0,6 2.019,6 2.019,8 4,8 4,16 16,16 16,4" id="outline"/><path class="icon-vs-bg" d="M9 9h-4v-1h1v-2h2v-1h1v4zm2-4v4h4v-4h-4zm-6 10h10v-4h-10v4z" id="iconBg"/><path class="icon-vs-action-green" d="M7 3.018h-2v-2.018h-1.981v2.018h-2.019v1.982h2.019v2h1.981v-2h2v-1.982z" id="colorAction"/></svg>