<svg xmlns="http://www.w3.org/2000/svg" width="16" height="16"><style type="text/css">.icon-canvas-transparent{opacity:0;fill:#F6F6F6;} .icon-vs-out{fill:#F6F6F6;} .icon-vs-bg{fill:#424242;} .icon-vs-fg{fill:#F0EFF1;} .icon-vs-action-green{fill:#388A34;}</style><path class="icon-canvas-transparent" d="M16 16h-16v-16h16v16z" id="canvas"/><path class="icon-vs-out" d="M16 3v13h-13.628c-1.375-.473-2.372-1.967-2.372-3.5v-10.5h.351c.346-.722.927-1.303 1.649-1.649v-.351h4v1.084c.258.269.472.576.634.916h1.366v1h8z" id="outline"/><path class="icon-vs-bg" d="M15 4v11h-11.628v-.013c-1.32-.068-2.372-1.15-2.372-2.487v-6.5h1v2h4v5h-1l-.021-.711c-.103-.728-.723-1.289-1.479-1.289s-1.376.561-1.479 1.289l-.021.211c0 .827.669 1.497 1.495 1.5h.006l.006-.007v.007h10.493v-9h-6v-1h7zm-7 5h-1v1h1v-1zm0-3h-1v1h1v-1zm-1 7h1v-1h-1v1zm-5-11.489c-.185.14-.349.304-.489.489h.489v-.489zm7 11.489h4v-1h-4v1zm4-7h-4v1h4v-1zm-4 4h2v-1h-2v1z" id="iconBg"/><path class="icon-vs-fg" d="M8 5v2h-1v-1h-1v7h-1l-.021-.711c-.103-.728-.723-1.289-1.479-1.289s-1.376.561-1.479 1.289l-.021.211c0 .827.669 1.497 1.495 1.5h.006l.006-.007v.007h10.493v-9h-6zm0 8h-1v-1h1v1zm0-3h-1v-1h1v1zm1-1h2v1h-2v-1zm4 4h-4v-1h4v1zm0-6h-4v-1h4v1z" id="iconFg"/><path class="icon-vs-action-green" d="M3 5h-2v-2h2v-2h2v2h2v2h-2v2h-2v-2z" id="colorAction"/></svg>