<svg xmlns="http://www.w3.org/2000/svg" width="16" height="16"><style type="text/css">.icon-canvas-transparent{opacity:0;fill:#F6F6F6;} .icon-vs-out{fill:#F6F6F6;} .icon-vs-bg{fill:#424242;} .icon-vs-fg{fill:#F0EFF1;} .icon-vs-action-green{fill:#388A34;}</style><path class="icon-canvas-transparent" d="M16 16h-16v-16h16v16z" id="canvas"/><path class="icon-vs-out" d="M16 6c0-3.309-2.691-6-6-6-1.538 0-2.937.586-4 1.541v-1.541h-4v2h-2v4h2v2h1.291l-.083.135-.709-.01-.736 2.521h.664l-.646 2.452-.24-.017c-.515 0-.858.207-1.055.381-.313.278-.486.655-.486 1.061 0 .439.2.838.561 1.119.299.238.697.358 1.182.358.603 0 1.149-.159 1.625-.472.448-.294.835-.732 1.153-1.311.084-.154.166-.331.248-.53.073.152.173.289.296.408.194.188.537.411 1.066.411.294 0 .577-.061.849-.186.243-.113.49-.302.775-.587l.108-.111c.16.253.353.453.573.597.291.191.637.288 1.026.288.395 0 .776-.126 1.122-.364.37-.248.718-.631 1.063-1.168l.353-.551v-.463l-.35-.197c2.508-.719 4.35-3.028 4.35-5.764zm-9.345 5.609c-.172-.059-.339-.087-.506-.087-.279 0-.54.067-.768.196l.2-.768.821-.16c.166.125.338.241.517.349l.037.118-.301.352z" id="outline"/><path class="icon-vs-bg" d="M10.868 9.159c.089.087.132.206.132.355 0 .14-.043.254-.132.344-.088.088-.2.133-.332.133-.096 0-.205-.018-.331-.051l-.258-.049c-.126 0-.246.043-.361.131-.155.119-.348.374-.575.766.255.875.601 1.711.754 1.901.091.115.183.173.274.173.079 0 .147-.02.204-.058.086-.062.22-.216.401-.459l.161.091c-.265.414-.524.707-.775.875-.191.133-.38.196-.566.196-.192 0-.353-.042-.479-.124-.128-.084-.241-.22-.34-.406-.099-.188-.359-.793-.494-1.206-.351.435-.898 1.054-1.099 1.253-.2.2-.365.33-.497.393-.132.061-.273.091-.423.091-.156 0-.281-.044-.371-.13-.093-.09-.138-.203-.138-.342 0-.15.048-.272.147-.367.1-.097.226-.146.379-.146.081 0 .173.024.274.069.149.072.259.106.324.106.087 0 .166-.017.234-.054.089-.043.204-.137.342-.283.084-.09.512-.585.737-.88-.288-1.038-.514-1.658-.676-1.862-.103-.131-.23-.197-.388-.197l-.607.353v-.747h1.912c.289.435.489.913.606 1.435.294-.424.517-.719.666-.889.201-.226.367-.375.497-.443.131-.068.271-.103.416-.103.166 0 .294.043.382.131zm-5.84-.024c.186-.739.432-1.279.739-1.619.186-.213.367-.318.545-.318l.087.029.035.08-.076.166c-.048.081-.074.158-.074.231 0 .103.039.19.117.263.079.072.177.109.297.109.129 0 .237-.045.323-.135.088-.088.132-.209.132-.359 0-.173-.064-.313-.196-.42-.131-.108-.341-.162-.628-.162-.45 0-.858.128-1.224.385-.367.256-.714.68-1.044 1.273-.115.203-.223.335-.325.393-.103.059-.266.087-.49.084l-.149.511h.627l-.919 3.496c-.152.574-.257.928-.312 1.061-.076.194-.196.361-.355.499-.063.056-.138.085-.229.085l-.064-.023-.022-.03.068-.089c.045-.045.068-.115.068-.207 0-.102-.037-.188-.109-.254-.071-.068-.175-.102-.309-.102-.164 0-.293.043-.394.132-.098.087-.147.19-.147.309 0 .129.06.24.181.335.119.095.306.142.562.142.404 0 .764-.102 1.077-.309.314-.205.587-.523.822-.95.232-.429.474-1.12.72-2.075l.527-2.02h.634l.158-.512h-.653zm2.519-2.768c-.104-.11-.191-.236-.268-.367h-.95c.504 0 .909.128 1.218.367zm-1.547-.331l.329-.036h-.329v.036zm4-5.036c-1.118 0-2.14.38-2.973 1h.973v1.277c.295-.172.634-.277 1-.277 1.104 0 2 .896 2 2s-.896 2-2 2c-.477 0-.908-.174-1.252-.452.257.278.405.636.405 1.034 0 .166-.022.315-.061.446h.748l.343.519c.145-.129.283-.227.419-.299.28-.146.576-.22.885-.22.55 0 .895.23 1.089.424.19.188.424.529.424 1.062 0 .408-.146.772-.423 1.049-.124.125-.269.22-.427.291 2.206-.522 3.85-2.49 3.85-4.854 0-2.762-2.238-5-5-5z" id="iconBg"/><path class="icon-vs-fg" d="M11 5c0 1.104-.896 2-2 2-.738 0-1.376-.405-1.723-1h.723v-2.723c.295-.172.634-.277 1-.277 1.104 0 2 .896 2 2z" id="iconFg"/><path class="icon-vs-action-green" d="M3 5h-2v-2h2v-2h2v2h2v2h-2v2h-2v-2z" id="colorAction"/></svg>