<svg xmlns="http://www.w3.org/2000/svg" width="16" height="16"><style type="text/css">.icon-canvas-transparent{opacity:0;fill:#F6F6F6;} .icon-vs-out{fill:#F6F6F6;} .icon-vs-bg{fill:#424242;} .icon-vs-fg{fill:#F0EFF1;} .icon-vs-action-green{fill:#388A34;}</style><path class="icon-canvas-transparent" d="M16 16h-16v-16h16v16z" id="canvas"/><path class="icon-vs-out" d="M16 4v10h-3.766c-1.234 0-1.234 1-1.234 1h-4s-.013-.851-1-.976v1.976h-6v-7h2v-3h-2v-4h2v-2h4v2h2v2.25c.594.281.999.75.999.75.518-.383 1.111-1 2.001-1h5z" id="outline"/><path class="icon-vs-bg" d="M1 15h4v-5h-4v5zm1-4h2v3h-2v-3zm9-6c-.874 0-1.28.363-2.001 1-.381-.336-.675-.59-.999-.761v.761h-1.659c.945 0 1.659.6 1.659 1v5.328c-.55-.34-1.011-.328-1.735-.328h-.265v1h.265c.768 0 1.424.475 1.735 1h2c.309-.525.967-1 1.734-1h3.266v-8h-4zm3 7h-2.266c-.724 0-1.184-.012-1.734.328v-5.361c0-.459.644-.967 1.628-.967h2.372v6zm-10-4v1h-1v-1h1z" id="iconBg"/><path class="icon-vs-fg" d="M2 11h2v3h-2v-3zm9.628-5c-.984 0-1.628.508-1.628.967v5.361c.551-.34 1.011-.328 1.734-.328h2.266v-6h-2.372zm-5.287 0h-.341v2h-2v1h2v3h.265c.724 0 1.185-.012 1.735.328v-5.328c0-.4-.714-1-1.659-1z" id="iconFg"/><path class="icon-vs-action-green" d="M3.018 5h-2.018v-1.982h2.018v-2.018h1.982v2.018h2v1.982h-2v2h-1.982v-2z" id="colorAction"/></svg>