<svg xmlns="http://www.w3.org/2000/svg" width="16" height="16"><style type="text/css">.icon-canvas-transparent{opacity:0;fill:#F6F6F6;} .icon-vs-out{fill:#F6F6F6;} .icon-vs-bg{fill:#424242;} .icon-vs-action-green{fill:#388A34;}</style><path class="icon-canvas-transparent" d="M16 16h-16v-16h16v16z" id="canvas"/><path class="icon-vs-out" d="M16 9v2l-1 1v1c0 1.71-1.031 2.979-3 3h-1v-3h1v-1c0-.535.741-1.612 1-2-.259-.389-1-1.466-1-2v-1h-1v-3h1c1.969.021 3 1.277 3 3v1l1 1zm-8-6.982h-2v-2.018h-3.981v2.018h-2.019v3.982h2.019v2h2.981l-1 1v2l1 1v1c0 1.71 1.317 2.979 3.286 3h.714v-3h-1v-1c0-.535-.741-1.612-1-2 .259-.389 1-1.466 1-2v-1h1v-3h-1v-1.982z" id="outline"/><path class="icon-vs-bg" d="M6.084 6h1.916c-.416 0-1 .16-1 1v1c0 .833-.496 1.731-1 2 .504.264 1 1.166 1 2v1s.167 1 1 1v1c-2.083 0-2-1.166-2-2v-1c0-.947-.678-.981-1-1v-2c.297-.019 1-.031 1-1v-1c0-.313-.012-.673.084-1zm7.916 2v-1c0-.834.083-2-2-2v1c.416 0 1 .16 1 1v1c0 .833.496 1.731 1 2-.504.264-1 1.166-1 2v1s-.167 1-1 1v1c2.083 0 2-1.166 2-2v-1c0-.947.678-.981 1-1v-2c-.297-.019-1-.031-1-1z" id="iconBg"/><path class="icon-vs-action-green" d="M7 3.018h-2v-2.018h-1.981v2.018h-2.019v1.982h2.019v2h1.981v-2h2v-1.982z" id="colorAction"/></svg>