<svg xmlns="http://www.w3.org/2000/svg" width="16" height="16"><style type="text/css">.icon-canvas-transparent{opacity:0;fill:#F6F6F6;} .icon-vs-out{fill:#F6F6F6;} .icon-vs-bg{fill:#424242;} .icon-vs-action-green{fill:#388A34;}</style><path class="icon-canvas-transparent" d="M16 16h-16v-16h16v16z" id="canvas"/><path class="icon-vs-out" d="M9 13h5v3h-7v-2h-5v-4h2v-2h-1v-2h-2v-4h2v-2h4v2h2v3h5v3h-5v5z" id="outline"/><path class="icon-vs-bg" d="M13 7h-5v-1h5v1zm-5 1h-3v2h3v-2zm0 3h-5v2h5v-2zm0 4h5v-1h-5v1z" id="iconBg"/><path class="icon-vs-action-green" d="M8 3.018h-2v-2.018h-1.981v2.018h-2.019v1.982h2.019v2h1.981v-2h2v-1.982z" id="colorAction"/></svg>