<svg xmlns="http://www.w3.org/2000/svg" width="16" height="16"><style type="text/css">.icon-canvas-transparent{opacity:0;fill:#F6F6F6;} .icon-vs-out{fill:#F6F6F6;} .icon-vs-bg{fill:#424242;} .icon-vs-fg{fill:#F0EFF1;} .icon-vs-action-green{fill:#388A34;}</style><path class="icon-canvas-transparent" d="M16 16h-16v-16h16v16z" id="canvas"/><path class="icon-vs-out" d="M15 0v16h-11v-8h-2v-2h-2v-4h2v-2h13z" id="outline"/><path class="icon-vs-bg" d="M6 1v1h7v10h-7v-4h-1v7h9v-14h-8zm1 13h-1v-1h1v1zm3 0h-1v-1h1v1zm3 0h-1v-1h1v1z" id="iconBg"/><path class="icon-vs-fg" d="M6 13h1v1h-1v-1zm3 1h1v-1h-1v1zm-3-12h2v4h-2v6h7v-10h-7zm6 12h1v-1h-1v1z" id="iconFg"/><path class="icon-vs-action-green" d="M7 5h-2v2h-2v-2h-2v-2h2v-2h2v2h2v2z" id="colorAction"/></svg>