<svg xmlns="http://www.w3.org/2000/svg" width="16" height="16"><style type="text/css">.icon-canvas-transparent{opacity:0;fill:#F6F6F6;} .icon-vs-out{fill:#F6F6F6;} .icon-vs-bg{fill:#424242;} .icon-vs-fg{fill:#F0EFF1;} .icon-vs-action-green{fill:#388A34;}</style><path class="icon-canvas-transparent" d="M16 16h-16v-16h16v16z" id="canvas"/><path class="icon-vs-out" d="M12.023 2h-5.023v.018h-1v-2.018h-3.982v2.018h-2.018v3.982h2.018v2h1.982v6c0 1.299 1.012 2 1.964 2h8c1.442 0 2.007-1.175 2.035-2v-8.448l-3.976-3.552z" id="outline"/><path class="icon-vs-bg" d="M8,10h1v1H8V10z M8,13h1v-1H8V13z M7,10H6v1h1V10z M9,5V4H8v1H9z M13,10h-1v1h1V10z M8,9h1V8H8V9z M10,11h1v-1h-1V11z M8,7h1V6H8V7zM11.641,3H8v1h3v3h3v7H6V8H5c0,2.166,0,4.649,0,6c0,1,0.964,1,0.964,1s7,0,8,0S15,14,15,14V6L11.641,3z" id="iconBg"/><path class="icon-vs-fg" d="M11 7v-3h-2v1h-1v1h1v1h-1v-1h-2v4h1v1h-1v3h8v-7h-3zm-2 6h-1v-1h1v1zm0-2h-1v-1h1v1zm0-2h-1v-1h1v1zm2 2h-1v-1h1v1zm2 0h-1v-1h1v1z" id="iconFg"/><path class="icon-vs-action-green" d="M7 5h-2v2h-1.982v-2h-2.018v-1.982h2.018v-2.018h1.982v2.018h2v1.982z" id="colorAction"/></svg>