<svg xmlns="http://www.w3.org/2000/svg" width="16" height="16"><style type="text/css">.icon-canvas-transparent{opacity:0;fill:#F6F6F6;} .icon-vs-out{fill:#F6F6F6;} .icon-vs-bg{fill:#424242;} .icon-vs-action-green{fill:#388A34;}</style><path class="icon-canvas-transparent" d="M16 16h-16v-16h16v16z" id="canvas"/><path class="icon-vs-out" d="M11 6v.831c-.82-.534-1.785-.817-2.892-.817-.775 0-1.472.159-2.108.435v-.449h2v-4h-2v-2h-4v2h-2v14h5v-.863c.822.566 1.813.863 2.971.863.98 0 1.828-.146 2.515-.436l.514-.216v.652h5v-10h-5zm-8 7v-1.684c.018.608.119 1.172.31 1.684h-.31zm0-2.045v-1.955h.415c-.257.594-.394 1.248-.415 1.955zm10 2.045h-.756c.467-.607.719-1.357.756-2.227v2.227zm0-2.611c-.016-.498-.107-.957-.26-1.389h.26v1.389z" id="outline"/><path class="icon-vs-bg" d="M15 7v8h-3v-1h2v-6h-2v-1h3zm-5.055 6.195c.578 0 1.068-.246 1.469-.742.402-.494.602-1.127.602-1.898 0-1.051-.369-1.904-1.107-2.559-.74-.654-1.674-.982-2.8-.982-1.203 0-2.189.39-2.964 1.171-.773.78-1.16 1.762-1.16 2.949 0 1.152.366 2.086 1.098 2.797.728.713 1.693 1.069 2.888 1.069.852 0 1.56-.119 2.128-.357v-.75c-.553.268-1.22.4-2.003.4-.99 0-1.777-.295-2.363-.881-.584-.586-.877-1.356-.877-2.311 0-.971.304-1.777.912-2.419.608-.645 1.373-.969 2.301-.969.964 0 1.72.267 2.263.801.545.531.816 1.218.816 2.06 0 .57-.1 1.035-.303 1.393-.199.359-.453.537-.76.537-.334 0-.502-.32-.502-.963 0-.031.076-.902.229-2.611h-.808l-.072.556h-.015c-.053-.173-.167-.324-.346-.449-.18-.122-.381-.185-.61-.185-.598 0-1.08.24-1.445.722-.366.482-.549 1.088-.549 1.818 0 .549.133.988.4 1.314.267.324.617.488 1.053.488.682 0 1.141-.348 1.375-1.047h.025c.003.701.379 1.048 1.125 1.048zm-1.12-2.701c0 .604-.104 1.092-.311 1.457-.211.369-.494.553-.85.553-.248 0-.445-.102-.594-.303-.146-.203-.221-.48-.221-.828 0-.521.109-.957.33-1.309.219-.35.508-.523.863-.523.523 0 .783.316.783.953zm-6.825-2.494v-1h-1v8h3v-1h-2v-6z" id="iconBg"/><path class="icon-vs-action-green" d="M7 3.018h-2v-2.018h-1.981v2.018h-2.019v1.982h2.019v2h1.981v-2h2v-1.982z" id="colorAction"/></svg>