<svg xmlns="http://www.w3.org/2000/svg" width="16" height="16"><style type="text/css">.icon-canvas-transparent{opacity:0;fill:#F6F6F6;} .icon-vs-out{fill:#F6F6F6;} .icon-vs-bg{fill:#424242;} .icon-vs-action-green{fill:#388A34;}</style><path class="icon-canvas-transparent" d="M16 16h-16v-16h16v16z" id="canvas"/><path class="icon-vs-out" d="M16 8.463c0 2.461-2.003 4.463-4.463 4.463-.419 0-.833-.059-1.237-.178l-2.596 2.596c-.109.109-.701.658-1.557.658-.381 0-.947-.115-1.49-.658-1.119-1.119-.614-2.436 0-3.048l2.595-2.597c-.119-.403-.179-.817-.179-1.236 0-.91.277-1.756.747-2.463h-1.82v2h-3.981v-2h-2.019v-3.982h2.019v-2.018h3.981v2.018h2v3.754c.816-1.07 2.091-1.772 3.537-1.772.628 0 1.595.289 1.831.399.236.11 1.619.767 2.232 2.231.088.21.4 1.206.4 1.833z" id="outline"/><path class="icon-vs-bg" d="M14.987 8.505c0 1.929-1.564 3.492-3.492 3.492-.513 0-1.063-.063-1.5-.261l-2.865 2.879s-.873.873-1.745 0c-.874-.873 0-1.746 0-1.746l2.938-2.851c-.197-.439-.32-1.001-.32-1.513 0-1.928 1.563-3.491 3.492-3.491.511 0 1.061.071 1.5.27l-2.373 2.35 1.746 1.746 2.346-2.361c.197.436.273.975.273 1.486z" id="iconBg"/><path class="icon-vs-action-green" d="M7 3.018h-2v-2.018h-1.981v2.018h-2.019v1.982h2.019v2h1.981v-2h2v-1.982z" id="colorAction"/></svg>