<svg xmlns="http://www.w3.org/2000/svg" width="16" height="16"><style type="text/css">.icon-canvas-transparent{opacity:0;fill:#F6F6F6;} .icon-vs-out{fill:#F6F6F6;} .icon-vs-bg{fill:#424242;} .icon-vs-fg{fill:#F0EFF1;} .icon-vs-action-green{fill:#388A34;}</style><path class="icon-canvas-transparent" d="M16 16h-16v-16h16v16z" id="canvas"/><path class="icon-vs-out" d="M16 0v13h-2v3h-14v-13.982h2v-2.018h14z" id="outline"/><path class="icon-vs-bg" d="M5 8h6v1h-6v-1zm1-7v1.018h2v.982h6v8h-1v-7h-5v2h4v5h-8v-3h-1v4h9v2h-10v-8h-1v9h12v-3h2v-11h-9z" id="iconBg"/><path class="icon-vs-fg" d="M2.019 8h.981v4h9v2h-10m11-10v7h1v-8h-6v1h5zm-7 4h5v1h-6v-1h-1v3h8v-5h-6v2z" id="iconFg"/><path class="icon-vs-action-green" d="M7 5h-2v2h-1.981v-2h-2.019v-1.982h2.019v-2.018h1.981v2.018h2v1.982z" id="colorAction"/></svg>