<svg xmlns="http://www.w3.org/2000/svg" width="16" height="16"><style type="text/css">.icon-canvas-transparent{opacity:0;fill:#F6F6F6;} .icon-vs-out{fill:#F6F6F6;} .icon-vs-bg{fill:#424242;} .icon-vs-fg{fill:#F0EFF1;}</style><path class="icon-canvas-transparent" d="M16 16h-16v-16h16v16z" id="canvas"/><path class="icon-vs-out" d="M16 13h-16v-11h16v11z" id="outline"/><path class="icon-vs-bg" d="M1 3v9h14v-9h-14zm13 8h-12v-7h12v7zm-6-3h-3v-1h3v1zm2 2h-5v-1h5v1zm3-3h-2v-2h2v2z" id="iconBg"/><path class="icon-vs-fg" d="M2 4v7h12v-7h-12zm3 3h3v1h-3v-1zm5 3h-5v-1h5v1zm3-3h-2v-2h2v2z" id="iconFg"/></svg>