<svg xmlns="http://www.w3.org/2000/svg" width="16" height="16"><style type="text/css">.icon-canvas-transparent{opacity:0;fill:#F6F6F6;} .icon-vs-out{fill:#F6F6F6;} .icon-vs-bg{fill:#424242;} .icon-vs-fg{fill:#F0EFF1;}</style><path class="icon-canvas-transparent" d="M16 16h-16v-16h16v16z" id="canvas"/><path class="icon-vs-out" d="M16 4v12h-16v-12h.589l-.589-.587v-.827l2.586-2.586h.837l4.086 4h8.491z" id="outline"/><path class="icon-vs-bg" d="M15 5v10h-14v-10h.592l6.018 6h2.39l-1 1h-2l-5-5v7h12v-7l-3 3v-2l2-2h-3.447l-1.022-1h6.469z" id="iconBg"/><path class="icon-vs-fg" d="M14 7v7h-12v-7l5 5h2l1-1h1v-1l3-3zm-3 1l2-2h-3.447l1.447 1.417v.583z" id="iconFg"/><path class="icon-vs-bg" d="M9 6.999l-2 2-4-3.999 2-2 4 3.999zm-6-5.999l-2 2 1 1 2-2-1-1zm5 9l2-.001v-1.999" id="colorAction"/></svg>