<svg xmlns="http://www.w3.org/2000/svg" viewBox="0 0 16 16" enable-background="new 0 0 16 16"><style type="text/css">.icon-canvas-transparent{opacity:0;fill:#F6F6F6;} .icon-vs-out{fill:#F6F6F6;} .icon-vs-bg{fill:#424242;} .icon-vs-fg{fill:#F0EFF1;} .icon-vs-action-green{fill:#388A34;}</style><path class="icon-canvas-transparent" d="M16 16h-16v-16h16v16z" id="canvas"/><path class="icon-vs-out" d="M6 1v-1h-3.982v2.018h-2.018v3.982h2.018l-.018 6h2v4h12v-15h-10z" id="outline"/><path class="icon-vs-bg" d="M8 2v1h4v3h-6v1h4v3h-6v-2h-1v3h2v4h10v-13h-7zm4 12h-6v-3h6v3z" id="iconBg"/><path class="icon-vs-fg" d="M12 14h-6v-3h6v3zm-4-11v3h4v-3h-4zm-2 4v1h-2v2h6v-3h-4z" id="iconFg"/><path class="icon-vs-action-green" d="M7 5h-2v2h-1.982v-2h-2.018v-1.982h2.018v-2.018h1.982v2.018h2v1.982z" id="colorAction"/></svg>