<svg xmlns="http://www.w3.org/2000/svg" width="16" height="16"><style type="text/css">.icon-canvas-transparent{opacity:0;fill:#F6F6F6;} .icon-vs-out{fill:#F6F6F6;} .icon-vs-bg{fill:#424242;} .icon-vs-fg{fill:#F0EFF1;} .icon-vs-action-green{fill:#388A34;}</style><path class="icon-canvas-transparent" d="M16 16h-16v-16h16v16z" id="canvas"/><path class="icon-vs-out" d="M15.999 3v13h-12v-8h-1.999v-2h-2v-3.982h2v-2.018h4v2h2v1h7.999z" id="outline"/><path class="icon-vs-bg" d="M8 4v2h-2v1h9v-3h-7zm6 2h-1v-1h1v1zm-9 2v3h10v-3h-10zm9 2h-1v-1h1v1zm-9 2v3h10v-3h-10zm9 2h-1v-1h1v1z" id="iconBg"/><path class="icon-vs-fg" d="M13 5h1v1h-1v-1zm1 4h-1v1h1v-1zm0 4h-1v1h1v-1z" id="iconFg"/><path class="icon-vs-action-green" d="M7 4.986h-2v2h-1.982v-2h-2.018v-1.982h2.018v-2.004h1.982v2.004h2v1.982z" id="colorAction"/></svg>