<svg xmlns="http://www.w3.org/2000/svg" width="16" height="16"><style type="text/css">.icon-canvas-transparent{opacity:0;fill:#F6F6F6;} .icon-vs-out{fill:#F6F6F6;} .icon-vs-bg{fill:#424242;} .icon-vs-fg{fill:#F0EFF1;} .icon-vs-action-blue{fill:#00539C;}</style><path class="icon-canvas-transparent" d="M16 16h-16v-16h16v16z" id="canvas"/><path class="icon-vs-out" d="M16 0v13h-5v.914l-2.086 2.086h-.828l-2.086-2.086v-.914h-5v-13h15z" id="outline"/><path class="icon-vs-bg" d="M2 1v11h4v-3h1v-1h3v1h1v3h4v-11h-13zm3 10h-2v-2h2v2zm0-6h-2v-2h2v2zm3 0h-2v-2h2v2zm3 0h-2v-2h2v2zm3 6h-2v-2h2v2zm0-6h-2v-2h2v2z" id="iconBg"/><path class="icon-vs-fg" d="M3 3h2v2h-2v-2zm0 8h2v-2h-2v2zm5-8h-2v2h2v-2zm-1 8v-2h-1v1.586l.414.414h.586zm2-6h2v-2h-2v2zm3-2v2h2v-2h-2zm0 8h2v-2h-2v2zm-2 0h.586l.414-.414v-1.586h-1v2z" id="iconFg"/><path class="icon-vs-action-blue" d="M9 13l1-1v1.5l-1.5 1.5-1.5-1.5v-1.5l1 1v-4h1v4z" id="colorAction"/></svg>