<svg xmlns="http://www.w3.org/2000/svg" width="16" height="16"><style type="text/css">.icon-canvas-transparent{opacity:0;fill:#F6F6F6;} .icon-vs-out{fill:#F6F6F6;} .icon-vs-bg{fill:#424242;} .icon-vs-fg{fill:#F0EFF1;} .icon-vs-action-blue{fill:#00539C;}</style><path class="icon-canvas-transparent" d="M16 16h-16v-16h16v16z" id="canvas"/><path class="icon-vs-out" d="M16 0v12h-4v1h-.586l.586.586v1.414h-2v1h-3v-1h-2v-1.41l.589-.59h-.589v-1h-4v-12h15z" id="outline"/><path class="icon-vs-bg" d="M2 1v10h4v1h1v-6h3v6h1v-1h4v-10h-13zm4 9h-3v-6h3v6zm8 0h-3v-6h3v6z" id="iconBg"/><path class="icon-vs-fg" d="M3 4h3v6h-3v-6zm8 0v6h3v-6h-3zm-2.499 6.088l1.499 1.498v-5.586h-3v5.59l1.501-1.502z" id="iconFg"/><path class="icon-vs-action-blue" d="M9 14v1h-1v-1h-1.997l2.498-2.498 2.499 2.498h-2z" id="colorAction"/></svg>