<svg xmlns="http://www.w3.org/2000/svg" width="16" height="16"><style type="text/css">.icon-canvas-transparent{opacity:0;fill:#F6F6F6;} .icon-vs-out{fill:#F6F6F6;} .icon-vs-bg{fill:#424242;} .icon-vs-fg{fill:#F0EFF1;} .icon-vs-action-blue{fill:#00539C;}</style><path class="icon-canvas-transparent" d="M16 16h-16v-16h16v16z" id="canvas"/><path class="icon-vs-out" d="M16 3v13h-15v-13h5v-.914l2.086-2.086h.828l2.086 2.086v.914h5z" id="outline"/><path class="icon-vs-bg" d="M11 4v4h-5v-4h-4v11h13v-11h-4zm-6 10h-2v-2h2v2zm0-6h-2v-2h2v2zm3 6h-2v-2h2v2zm3 0h-2v-2h2v2zm3 0h-2v-2h2v2zm0-6h-2v-2h2v2z" id="iconBg"/><path class="icon-vs-fg" d="M3 6h2v2h-2v-2zm0 8h2v-2h-2v2zm4-8h-.586l-.414.414v1.586h1v-2zm-1 8h2v-2h-2v2zm6-8v2h2v-2h-2zm-3 8h2v-2h-2v2zm3 0h2v-2h-2v2zm-2-8v2h1v-1.586l-.414-.414h-.586z" id="iconFg"/><path class="icon-vs-action-blue" d="M8 3l-1 1v-1.5l1.5-1.5 1.5 1.5v1.5l-1-1v4h-1v-4z" id="colorAction"/></svg>