<svg xmlns="http://www.w3.org/2000/svg" width="16" height="16"><style type="text/css">.icon-canvas-transparent{opacity:0;fill:#F6F6F6;} .icon-vs-out{fill:#F6F6F6;} .icon-vs-bg{fill:#424242;} .icon-vs-fg{fill:#F0EFF1;} .icon-vs-action-green{fill:#388A34;}</style><path class="icon-canvas-transparent" d="M16 16h-16v-16h16v16z" id="canvas"/><path class="icon-vs-out" d="M7 0v2.018h-1v-2.018h-3.981v2.018h-2.019v3.982h2.019v2h-1.019v8h9v-2h4v-6h2v-8h-9zm-1 8v-2h1v2h-1zm5 3h-1v-3h1v3z" id="outline"/><path class="icon-vs-bg" d="M8 1v6h4v5h-3v-3h-7v6h7v-2h4v-6h2v-6h-7zm0 13h-5v-2h5v2zm6-8h-5v-2h5v2z" id="iconBg"/><path class="icon-vs-fg" d="M8 14h-5v-2h5v2zm6-10h-5v2h5v-2z" id="iconFg"/><path class="icon-vs-action-green" d="M7 5h-2v2h-1.981v-2h-2.019v-1.982h2.019v-2.018h1.981v2.018h2v1.982z" id="colorAction"/></svg>