<svg xmlns="http://www.w3.org/2000/svg" width="16" height="16"><style type="text/css">.icon-canvas-transparent{opacity:0;fill:#F6F6F6;} .icon-vs-out{fill:#F6F6F6;} .icon-vs-bg{fill:#424242;} .icon-vs-action-green{fill:#388A34;}</style><path class="icon-canvas-transparent" d="M16 16h-16v-16h16v16z" id="canvas"/><path class="icon-vs-out" d="M12.511 2l-6.511 8.371v-4.371h2v-3.982h-2v-2.018h-3.982v2.018h-2.018v3.982h2.018v2h.982v7h13v-13h-3.489zm-.511 10h-2.732l.777-1h1.955v1z" id="outline"/><path class="icon-vs-bg" d="M6 13h1v1h-1v-1zm-2-3h1v-1h-1v1zm4 4h1v-1h-1v1zm-4-2h1v-1h-1v1zm0 2h1v-1h-1v1zm10 0h1v-1h-1v1zm-4 0h1v-1h-1v1zm2 0h1v-1h-1v1zm3-11v9h-2v-2h-3.444l-1.556 2h-2l7-9h2zm-2 2.571l-2.277 2.929h2.277v-2.929z" id="iconBg"/><path class="icon-vs-action-green" d="M7 5h-2v2h-1.982v-2h-2.018v-1.982h2.018v-2.018h1.982v2.018h2v1.982z" id="colorAction"/></svg>