<svg xmlns="http://www.w3.org/2000/svg" width="16" height="16"><style type="text/css">.icon-canvas-transparent{opacity:0;fill:#F6F6F6;} .icon-vs-out{fill:#F6F6F6;} .icon-vs-bg{fill:#424242;} .icon-vs-fg{fill:#F0EFF1;} .icon-vs-action-green{fill:#388A34;}</style><path class="icon-canvas-transparent" d="M16 16h-16v-16h16v16z" id="canvas"/><path class="icon-vs-out" d="M16 4.586v3.828l-1.586 1.586h-.414v1.414l-1.586 1.586h-7.414v1.414l-1.586 1.586h-1.828l-1.586-1.586v-6.828l1.586-1.586h-1.586v-4h2v-2h4v2h2v1h6.414l1.586 1.586z" id="outline"/><path class="icon-vs-bg" d="M15 5v3l-1 1v-4h-6v-1h6l1 1zm-3 2l1 1v3l-1 1h-8v2l-1 1h-1l-1-1v-6l1-1v7h1v-3h9v-3h-6v-1h6z" id="iconBg"/><path class="icon-vs-fg" d="M6 8h6v3h-9v3h-1v-6h4zm8-3v2.586l-1.586-1.586h-4.414v-1h6z" id="iconFg"/><path class="icon-vs-action-green" d="M3 5h-2v-2h2v-2h2v2h2v2h-2v2h-2v-2z" id="colorAction"/></svg>