<svg xmlns="http://www.w3.org/2000/svg" width="16" height="16"><style type="text/css">.icon-canvas-transparent{opacity:0;fill:#F6F6F6;} .icon-vs-out{fill:#F6F6F6;} .icon-vs-bg{fill:#424242;} .icon-vs-fg{fill:#F0EFF1;} .icon-vs-action-green{fill:#388A34;}</style><path class="icon-canvas-transparent" d="M16 16h-16v-16h16v16z" id="canvas"/><path class="icon-vs-out" d="M16 5.556v8.444c0 .97-.701 2-2.001 2h-7.999c-.969 0-2-.701-2-2v-6h-2v-2h-2v-4h2v-2h4v2h6.061l3.939 3.556z" id="outline"/><path class="icon-vs-bg" d="M15 6v8s-.035 1-1.035 1h-8s-.965 0-.965-1v-6h1v6h8v-7h-3v-3h-3v-1h3.641l3.359 3zm-5 0h-3v1h3v-1zm3 2h-6v1h6v-1zm0 2h-6v1h6v-1zm0 2h-6v1h6v-1z" id="iconBg"/><path class="icon-vs-fg" d="M11 7v-3h-3v2h2v1h-3v-1h-1v8h8v-7h-3zm2 6h-6v-1h6v1zm0-2h-6v-1h6v1zm0-2h-6v-1h6v1z" id="iconFg"/><path class="icon-vs-action-green" d="M7 5h-2v2h-2v-2h-2v-2h2v-2h2v2h2v2z" id="colorAction"/></svg>