<svg xmlns="http://www.w3.org/2000/svg" width="16" height="16"><style type="text/css">.icon-canvas-transparent{opacity:0;fill:#F6F6F6;} .icon-vs-out{fill:#F6F6F6;} .icon-vs-bg{fill:#424242;} .icon-vs-fg{fill:#F0EFF1;}</style><path class="icon-canvas-transparent" d="M16 16h-16v-16h16v16z" id="canvas"/><path class="icon-vs-out" d="M16 4v10h-4v2h-8v-8h-2v-2h-2v-4h2v-2h4v2h2v2h8z" id="outline"/><path class="icon-vs-bg" d="M6 14h5v1h-6v-6h1v5zm2-9v1h6v6h-6v-6h-1v7h8v-8h-7z" id="iconBg"/><path class="icon-vs-fg" d="M14 12h-6v-6h6v6z" id="iconFg"/><path class="icon-vs-bg" d="M7 5h-2v2h-2v-2h-2v-2h2v-2h2v2h2v2z" id="colorAction"/></svg>