<svg xmlns="http://www.w3.org/2000/svg" width="16" height="16"><style type="text/css">.icon-canvas-transparent{opacity:0;fill:#F6F6F6;} .icon-vs-out{fill:#F6F6F6;} .icon-vs-bg{fill:#424242;} .icon-vs-fg{fill:#F0EFF1;} .icon-vs-action-green{fill:#388A34;}</style><path class="icon-canvas-transparent" d="M16 16h-16v-16h16v16z" id="canvas"/><path class="icon-vs-out" d="M16 1v14h-16v-13h2v-2h4v1h10z" id="outline"/><path class="icon-vs-bg" d="M8 2v1h6v8h-12v-5h-1v8h14v-12h-7zm1 11h-2v-1h2v1z" id="iconBg"/><path class="icon-vs-fg" d="M9 13h-2v-1h2v1zm-1-10v3h-2v2h-4v3h12v-8h-6z" id="iconFg"/><path class="icon-vs-action-green" d="M7 5h-2v2h-2v-2h-2v-2h2v-2h2v2h2v2z" id="colorAction"/></svg>