<svg xmlns="http://www.w3.org/2000/svg" width="16" height="16"><style type="text/css">.icon-canvas-transparent{opacity:0;fill:#F6F6F6;} .icon-vs-out{fill:#F6F6F6;} .icon-vs-bg{fill:#424242;} .icon-vs-action-green{fill:#388A34;}</style><path class="icon-canvas-transparent" d="M16 16h-16v-16h16v16z" id="canvas"/><path class="icon-vs-out" d="M16 11l-5 5h-7l3-3h-5v-4h5l-1-1h-3.981v-2h-2.019v-3.982h2.019v-2.018h3.981v2.018h2v3.982h3l5 5z" id="outline"/><path class="icon-vs-bg" d="M14 11l-4 4h-3l3-3h-7v-2h7l-3-3h3l4 4z" id="iconBg"/><path class="icon-vs-action-green" d="M7 5h-2v2h-1.981v-2h-2.019v-1.982h2.019v-2.018h1.981v2.018h2v1.982z" id="colorAction"/></svg>