<svg xmlns="http://www.w3.org/2000/svg" viewBox="0 0 16 16"><style>.icon-canvas-transparent{opacity:0;fill:#f6f6f6}.icon-vs-out{fill:#f6f6f6}.icon-vs-bg{fill:#424242}.icon-vs-action-green{fill:#388a34}</style><path class="icon-canvas-transparent" d="M16 0v16H0V0h16z" id="canvas"/><path class="icon-vs-out" d="M13.322 5a3.044 3.044 0 0 0-2.976-2.423c-.95 0-1.788.447-2.346 1.131v-1.69H6V0H2.018v2.018H0V6h1v10h15V5h-2.678z" id="outline"/><path class="icon-vs-bg" d="M4 13h1c0-.912.742-1.654 1.654-1.654s1.654.742 1.654 1.654h1c0-.94-.495-1.763-1.234-2.235.38-.37.619-.886.619-1.458 0-.912.742-1.654 1.653-1.654.912 0 1.654.742 1.654 1.654h1c0-.94-.495-1.763-1.234-2.234.381-.37.619-.886.619-1.458 0-1.124-.915-2.039-2.039-2.039s-2.038.915-2.038 2.039c0 .572.238 1.087.618 1.458a2.66 2.66 0 0 0-.814.815 2.031 2.031 0 0 0-1.458-.618 2.04 2.04 0 0 0-2.039 2.038c0 .572.238 1.088.619 1.458A2.648 2.648 0 0 0 4 13zm6.346-8.423a1.04 1.04 0 0 1 1.039 1.039 1.04 1.04 0 1 1-1.039-1.039zM6.654 8.269a1.04 1.04 0 0 1 1.039 1.038 1.04 1.04 0 0 1-2.078 0 1.04 1.04 0 0 1 1.039-1.038zM15 6v9H2V8h1v6h11V7h-1V6h2z" id="iconBg"/><g id="colorAction"><path class="icon-vs-action-green" d="M7 5H5v2H3.018V5H1V3.018h2.018V1H5v2.018h2V5z"/></g></svg>