<svg xmlns="http://www.w3.org/2000/svg" viewBox="0 0 16 16"><style>.icon-canvas-transparent{opacity:0;fill:#f6f6f6}.icon-vs-out{fill:#f6f6f6}.icon-vs-bg{fill:#424242}.icon-vs-fg{fill:#f0eff1}.icon-vs-action-green{fill:#388a34}</style><path class="icon-canvas-transparent" d="M16 16H0V0h16v16z" id="canvas"/><path class="icon-vs-out" d="M15.4 14c-.4.6-1 1-1.8 1H5.3c-.7 0-1.4-.4-1.8-1-.4-.6-.3-1.4.1-2l2.6-4H3V6H1V2h2V0h4v2h2v1h4v3h-1v.7l3.4 5.2c.3.6.4 1.4 0 2.1z" id="outline"/><path class="icon-vs-bg" d="M13.7 14H5.3c-.8 0-1.3-.9-.8-1.5L8 7V6h1v1.3L7.3 10h4.4L10 7.3V5H9V4h3v1h-1v2l3.5 5.5c.4.6 0 1.5-.8 1.5z" id="iconBg"/><path class="icon-vs-fg" d="M7.3 10L9 7.3V5h1v2.3l1.7 2.7H7.3z" id="iconFg"/><path class="icon-vs-action-green" d="M4 5H2V3h2V1h2v2h2v2H6v2H4V5z" id="colorAction"/></svg>