<svg xmlns="http://www.w3.org/2000/svg" viewBox="0 0 16 16"><style>.icon-canvas-transparent{opacity:0;fill:#f6f6f6}.icon-vs-out{fill:#f6f6f6}.icon-vs-bg{fill:#424242}.icon-vs-fg{fill:#f0eff1}.icon-vs-action-green{fill:#388a34}</style><path class="icon-canvas-transparent" d="M16 16H0V0h16v16z" id="canvas"/><path class="icon-vs-out" d="M16 9.1V11c-.4.6-1 1-1.7 1H13c.4.6.4 1.4 0 2-.4.6-1 1-1.7 1H5.8c-.8 0-1.4-.4-1.8-1-.4-.6-.4-1.4 0-2l2-3.3V8H2V6H0V2h2V0h4v2h9v3h-1v.7L15.9 9c.1 0 .1.1.1.1z" id="outline"/><path class="icon-vs-bg" d="M10 9V7h1V6H6v1h1v2l-2.1 3.5c-.4.7.1 1.5.9 1.5h5.5c.8 0 1.3-.8.9-1.5L10 9zm-3 2l1-1.7V7h1v2.3l1 1.7H7zm7.2 0h-1.9L11 8.7V8h2l-1-1.7V4h-1v1h-1V4H9V3h5v1h-1v2l2.1 3.5c.4.7-.1 1.5-.9 1.5z" id="iconBg"/><path class="icon-vs-fg" d="M7 11l1-1.7V7h1v2.3l1 1.7H7zm5-6V4h-1v1h1zm0 1.3V8h1l-1-1.7z" id="iconFg"/><path class="icon-vs-action-green" d="M3 5H1V3h2V1h2v2h2v2H5v2H3V5z" id="colorAction"/></svg>