<svg xmlns="http://www.w3.org/2000/svg" viewBox="0 0 16 16"><style>.icon-canvas-transparent{opacity:0;fill:#f6f6f6}.icon-vs-out{fill:#f6f6f6}.icon-vs-fg{fill:#f0eff1}.icon-folder{fill:#dcb67a}.icon-vs-action-green{fill:#388a34}</style><path class="icon-canvas-transparent" d="M16 16H0V0h16v16z" id="canvas"/><path class="icon-vs-out" d="M16 6.5v7c0 .827-.673 1.5-1.5 1.5h-11c-.827 0-1.5-.673-1.5-1.5V6H0V2h2V0h4v2h2v1h2.618l1 2H14.5c.827 0 1.5.673 1.5 1.5z" id="outline"/><path class="icon-folder" d="M14.5 6H11l-1-2H8v1h1l.5 1H6v2H3v5.5a.5.5 0 0 0 .5.5h11a.5.5 0 0 0 .5-.5v-7a.5.5 0 0 0-.5-.5zM8 12.778l-2.389-2.389.777-.777L8 11.222l3.611-3.611.777.777L8 12.778z" id="iconBg"/><path class="icon-vs-fg" d="M9.5 6H8V5h1l.5 1zM8 12.778l-2.389-2.389.777-.777L8 11.222l3.611-3.611.777.777L8 12.778z" id="iconFg"/><path class="icon-vs-action-green" d="M7 3H5V1H3v2H1v2h2v2h2V5h2z" id="colorAction"/></svg>