<svg xmlns="http://www.w3.org/2000/svg" width="16" height="16"><style type="text/css">.icon-canvas-transparent{opacity:0;fill:#F6F6F6;} .icon-vs-out{fill:#F6F6F6;} .icon-vs-bg{fill:#424242;} .icon-vs-action-green{fill:#388A34;}</style><path class="icon-canvas-transparent" d="M16 16h-16v-16h16v16z" id="canvas"/><path class="icon-vs-out" d="M16 6v1.688l-.171.125-2.603 1.86 1.993 6.327h-.597l-4.568-4.033-4.444 4.033h-.664l2.009-6.261-2.364-1.739h-2.591v-2h-2v-3.982h2.018v-2.018h3.979v2.018h1.994v3.979l.162.003 1.882-5.866 1.978 5.866h3.987z" id="outline"/><path class="icon-vs-bg" d="M12.054 9.282l1.36 4.317-3.369-2.975-3.278 2.976 1.36-4.237-2.13-1.575v-.788h2.885l1.176-3.667 1.237 3.667h3.9539999999999997l-3.195 2.282z" id="iconBg"/><path class="icon-vs-action-green" d="M6.994 5h-1.994v1.994h-1.982v-1.994h-2.018v-1.982h2.018v-2.018h1.982v2.018h1.994v1.982z" id="colorAction"/></svg>