<svg xmlns="http://www.w3.org/2000/svg" viewBox="0 0 16 16"><style>.icon-canvas-transparent{opacity:0;fill:#f6f6f6}.icon-vs-out{fill:#f6f6f6}.icon-vs-bg{fill:#424242}.icon-vs-fg{fill:#f0eff1}.icon-vs-action-green{fill:#388a34}</style><path class="icon-canvas-transparent" d="M16 0v16H0V0h16z" id="canvas"/><path class="icon-vs-out" d="M4.308 14.891L4.186 16h11.392l-.121-1.109a5.64 5.64 0 0 0-2.052-3.749 4.425 4.425 0 0 0 .918-2.7A4.446 4.446 0 0 0 9.883 4 4.39 4.39 0 0 0 8 4.434V2.018H6V0H2.018v2.018H0V6h2.018v2h3.468c-.015.147-.045.29-.045.441 0 .991.33 1.936.918 2.7a5.645 5.645 0 0 0-2.051 3.75zM6 6.33V6h.179c-.069.104-.119.22-.179.33z" id="outline"/><path class="icon-vs-fg" d="M7.441 8.441A2.444 2.444 0 0 1 9.883 6a2.443 2.443 0 0 1 2.44 2.441 2.444 2.444 0 0 1-2.44 2.441 2.444 2.444 0 0 1-2.442-2.441zm2.442 3.441c-1.824 0-3.321 1.361-3.568 3.118h7.134c-.246-1.757-1.743-3.118-3.566-3.118z" id="iconFg"/><path class="icon-vs-bg" d="M11.786 11.304A3.439 3.439 0 0 0 9.883 5a3.446 3.446 0 0 0-3.442 3.441c0 1.194.612 2.245 1.538 2.863A4.618 4.618 0 0 0 5.302 15h1.013c.246-1.757 1.744-3.118 3.568-3.118 1.823 0 3.32 1.361 3.567 3.118h1.013a4.62 4.62 0 0 0-2.677-3.696zm-1.903-.422a2.443 2.443 0 0 1-2.441-2.441A2.442 2.442 0 0 1 9.883 6a2.443 2.443 0 0 1 2.44 2.441 2.443 2.443 0 0 1-2.44 2.441z" id="iconBg"/><g id="colorAction"><path class="icon-vs-action-green" d="M7 3.018V5H5v2H3.018V5H1V3.018h2.018V1H5v2.018h2z"/></g></svg>