<svg xmlns="http://www.w3.org/2000/svg" width="16" height="16"><style type="text/css">.icon-canvas-transparent{opacity:0;fill:#F6F6F6;} .icon-vs-out{fill:#F6F6F6;} .icon-vs-bg{fill:#424242;} .icon-vs-fg{fill:#F0EFF1;} .icon-vs-action-green{fill:#388A34;}</style><path class="icon-canvas-transparent" d="M16 16h-16v-16h16v16z" id="canvas"/><path class="icon-vs-out" d="M16 11.981l-7 3.5-5-2.5v-4.981h-2v-2h-2v-4h2v-2h4v2h2v2.985l3.005-1.505 4.995 2.5v6.001z" id="outline"/><path class="icon-vs-bg" d="M11 5l-6 3v4l4 2 6-3v-4l-4-2zm-1.99 4l-2-1 4-2 2 1-4 2z" id="iconBg"/><path class="icon-vs-fg" d="M11 6l2 1-4 2-2-1 4-2z" id="iconFg"/><path class="icon-vs-action-green" d="M7 5h-2v2h-1.982v-2h-2.018v-1.982h2.019v-2.018h1.981v2.018h2v1.982z" id="colorAction"/></svg>