<svg xmlns="http://www.w3.org/2000/svg" width="16" height="16"><style type="text/css">.icon-canvas-transparent{opacity:0;fill:#F6F6F6;} .icon-vs-out{fill:#F6F6F6;} .icon-vs-bg{fill:#424242;} .icon-vs-fg{fill:#F0EFF1;} .icon-vs-action-green{fill:#388A34;}</style><path class="icon-canvas-transparent" d="M16 16h-16v-16h16v16z" id="canvas"/><path class="icon-vs-out" d="M16 14h-6.261c-1.01 1.221-2.536 2-4.239 2-3.033 0-5.5-2.467-5.5-5.5 0-1.704.779-3.229 2-4.239v-.261h-2v-4h2v-2h4v1h10v13z" id="outline"/><g id="iconBg"><path class="icon-vs-bg" d="M15 2v11h-4.606c.162-.316.294-.651.394-1h3.212v-7h-6v-3h7z"/><path class="icon-vs-bg" d="M9.992 10.301c-.076-2.244-1.796-4.049-3.992-4.296v1.151c.234.457.458.977.599 1.614-.368.025-.729.029-1.095.025-.386-.004-.759-.029-1.119-.07.051-.264.12-.496.191-.725h-.735c-.055.2-.11.401-.151.623-.444-.078-.851-.175-1.223-.28.085-.122.182-.233.281-.343h-.748v-.09h-.027v-.221c-.6.765-.973 1.716-.973 2.764l.02.389.045.341.002.013c.313 1.891 1.803 3.38 3.696 3.691l.013.002.338.045.386.019.439-.022c2.279-.222 4.061-2.141 4.061-4.478l-.008-.152zm-1.439-1.931c-.442.151-.857.257-1.255.318-.138-.661-.354-1.232-.589-1.725.757.262 1.4.759 1.844 1.407zm-4.266 1.027c.387.044.79.056 1.209.056h.259c.314 0 .632.012.956-.012.025.219.044.451.046.683.004.372-.044.778-.135 1.208-.376.025-.744.037-1.118.035-.41-.006-.802-.035-1.182-.079-.054-.392-.083-.778-.079-1.153.003-.247.02-.507.044-.738zm-2.483 1.056c0-.525.112-1.025.31-1.48.44.131.932.254 1.478.346-.027.261-.047.528-.05.81-.004.342.021.694.063 1.051-.691-.126-1.288-.299-1.788-.467l-.013-.26zm.151 1.044c.513.157 1.101.309 1.765.415.132.673.349 1.359.631 2.053-1.151-.377-2.051-1.301-2.396-2.468zm3.608 2.649l-.063.004-.324-.018c-.323-.717-.571-1.43-.725-2.124.336.033.686.057 1.045.059l.259.002c.224 0 .45-.006.678-.018-.197.638-.488 1.335-.87 2.095zm.828-.109c.35-.737.62-1.424.795-2.054.574-.073 1.186-.22 1.855-.472-.372 1.245-1.383 2.213-2.65 2.526zm2.793-3.344c-.667.291-1.268.465-1.83.555.07-.392.108-.767.104-1.119-.003-.259-.024-.503-.05-.743.467-.073.961-.198 1.489-.388.19.445.298.938.298 1.455l-.011.24z"/></g><path class="icon-vs-fg" d="M8 5v.605c1.779.911 3 2.758 3 4.895 0 .521-.077 1.023-.212 1.5h3.212v-7h-6z" id="iconFg"/><path class="icon-vs-action-green" d="M7 3h-2v-2h-2v2h-2v2h2v2h2v-2h2v-2z" id="colorAction"/></svg>