<svg xmlns="http://www.w3.org/2000/svg" width="16" height="16"><style type="text/css">.icon-canvas-transparent{opacity:0;fill:#F6F6F6;} .icon-vs-out{fill:#F6F6F6;} .icon-vs-bg{fill:#424242;} .icon-vs-action-green{fill:#388A34;}</style><path class="icon-canvas-transparent" d="M16 16h-16v-16h16v16z" id="canvas"/><path class="icon-vs-out" d="M16 9v2.5l-1 1.5c-.14 1.676-1.659 3-3.5 3s-3.36-1.324-3.5-3h-.027c-.14 1.676-1.632 3-3.473 3s-3.36-1.324-3.5-3l-1-1.5v-2.5h1l1-1v-2h-2v-4h2v-2h4v2h2v1h.999l6.001 6h1z" id="outline"/><path class="icon-vs-bg" d="M6 7.333v-1.333h1l-1 1.333zm9 2.667v1l-1 1.5c0 1.381-1.119 2.5-2.5 2.5s-2.5-1.119-2.5-2.5c0 0-.5-.5-1-.5 0 0-.5 0-1 .5 0 1.381-1.119 2.5-2.5 2.5s-2.5-1.119-2.5-2.5l-1-1.5v-1h1l2-2h1.5l-1.5 2h3s.5.5 1 .5c0 0 .5 0 1-.5h3l-3-4v-1l5 5h1zm-9 2.5c0-.828-.672-1.5-1.5-1.5s-1.5.672-1.5 1.5.672 1.5 1.5 1.5 1.5-.672 1.5-1.5zm7 0c0-.828-.672-1.5-1.5-1.5s-1.5.672-1.5 1.5.672 1.5 1.5 1.5 1.5-.672 1.5-1.5z" id="iconBg"/><path class="icon-vs-action-green" d="M7 5h-2v2h-2v-2h-2v-2h2v-2h2v2h2v2z" id="colorAction"/></svg>