<svg xmlns="http://www.w3.org/2000/svg" width="16" height="16"><style type="text/css">.icon-canvas-transparent{opacity:0;fill:#F6F6F6;} .icon-vs-out{fill:#F6F6F6;} .icon-vs-bg{fill:#424242;} .icon-vs-action-green{fill:#388A34;}</style><path class="icon-canvas-transparent" d="M16 16h-16v-16h16v16z" id="canvas"/><path class="icon-vs-out" d="M0 11v3h5.238c.813.985 1.953 1.694 3.258 1.935l.087.065h.917c.181 0 .357-.01.536-.026 2.829-.276 4.962-2.629 4.962-5.473l-.011-.187c-.1-2.98-2.516-5.314-5.495-5.314-.518 0-1.017.08-1.492.214v-3.214h-2v-2h-4v2h-2v4h2v1h-2v3h1v1h-1zm6-5h.345l-.345.259v-.259z" id="outline"/><g id="iconBg"><path class="icon-vs-bg" d="M4 9h-3v-1h3v1zm0 1h-2v1h2v-1zm0 2h-3v1h3v-1z"/><path class="icon-vs-bg" d="M14 10.501l-.008-.153c-.081-2.412-2.057-4.347-4.492-4.347-2.485 0-4.5 2.015-4.5 4.5l.02.389.045.341.002.013c.313 1.89 1.804 3.38 3.696 3.69l.013.002.338.045.386.019.439-.021c2.279-.223 4.061-2.141 4.061-4.478zm-2.592-1.067c.467-.074.961-.199 1.489-.389.19.447.299.938.299 1.456l-.012.24c-.668.291-1.269.465-1.831.555.07-.393.108-.768.104-1.12-.002-.258-.023-.502-.049-.742zm1.145-1.016c-.441.152-.856.258-1.255.318-.138-.662-.354-1.232-.589-1.725.757.262 1.4.759 1.844 1.407zm-3.053 5.779l-.324-.018c-.322-.717-.57-1.43-.725-2.125.336.033.686.057 1.045.059l.259.002.678-.017c-.196.639-.487 1.336-.87 2.096l-.063.003zm.004-2.782c-.41-.006-.803-.035-1.182-.079-.055-.392-.082-.778-.078-1.152.002-.248.02-.508.043-.738.387.044.789.056 1.209.056h.259c.314 0 .632.012.956-.012.025.219.044.452.046.683.004.372-.044.778-.135 1.208-.376.024-.744.036-1.118.034zm-.004-4.61l.313.016c.302.521.607 1.187.786 1.997-.368.025-.729.029-1.095.025-.386-.004-.76-.03-1.119-.071.15-.781.398-1.424.645-1.934.154-.02.31-.033.47-.033zm-1.34.254c-.186.465-.355 1-.471 1.613-.443-.079-.849-.176-1.222-.281.417-.598 1.006-1.065 1.693-1.332zm-2.356 3.442c0-.526.112-1.026.31-1.48.44.129.932.252 1.479.346-.027.262-.047.527-.049.809-.004.343.021.695.063 1.052-.691-.126-1.288-.299-1.788-.467l-.015-.26zm.151 1.044c.514.156 1.102.309 1.765.414.132.674.349 1.359.632 2.053-1.153-.377-2.052-1.301-2.397-2.467zm4.436 2.539c.35-.736.62-1.424.795-2.053.574-.074 1.186-.221 1.856-.472-.373 1.244-1.384 2.212-2.651 2.525z"/></g><path class="icon-vs-action-green" d="M3 7h2v-2h2v-2h-2v-2h-2v2h-2v2h2v2z" id="colorAction"/></svg>