<svg xmlns="http://www.w3.org/2000/svg" viewBox="0 0 16 16"><defs><style>.icon-canvas-transparent,.icon-vs-out{fill:#f6f6f6;}.icon-canvas-transparent{opacity:0;}.icon-vs-bg{fill:#424242;}.icon-vs-action-green{fill:#388a34;}</style></defs><title>Artboard 1_16x</title><g id="canvas"><path class="icon-canvas-transparent" d="M16,0V16H0V0Z"/></g><g id="outline"><path class="icon-vs-out" d="M15.879,10.891a5.639,5.639,0,0,0-2.052-3.749A4.437,4.437,0,1,0,6.591,2.018H6V0H2.018V2.018H0V6H2.018V7.011A4.992,4.992,0,1,0,9.9,12H16Z"/></g><g id="iconBg"><path class="icon-vs-bg" d="M6,7.142V8H5.449a2.657,2.657,0,0,1,.56,1H3.992a2.657,2.657,0,0,1,.56-1H2.382A3.993,3.993,0,1,0,6,7.142ZM7.542,9H6.8a4.649,4.649,0,0,0-.345-.892A3.252,3.252,0,0,1,7.542,9ZM1.924,12a2.964,2.964,0,0,1,0-2H3a7.482,7.482,0,0,0,0,2Zm.534,1H3.2a4.647,4.647,0,0,0,.345.892A3.251,3.251,0,0,1,2.458,13ZM3.2,9H2.458a3.252,3.252,0,0,1,1.09-.892A4.649,4.649,0,0,0,3.2,9ZM5,14.25c-.363,0-.748-.484-1.008-1.25H6.008C5.748,13.766,5.363,14.25,5,14.25ZM6.24,12H3.76a6.525,6.525,0,0,1,0-2H6.24a6.941,6.941,0,0,1,.077,1A6.941,6.941,0,0,1,6.24,12Zm.212,1.892A4.647,4.647,0,0,0,6.8,13h.745A3.251,3.251,0,0,1,6.452,13.892ZM8.25,11a3.206,3.206,0,0,1-.174,1H7a8.037,8.037,0,0,0,.067-1A8.037,8.037,0,0,0,7,10H8.076A3.206,3.206,0,0,1,8.25,11Zm6.635,0H13.871A3.611,3.611,0,0,0,10.3,7.882a3.567,3.567,0,0,0-1.241.226,5.016,5.016,0,0,0-.7-.783c.013-.006.025-.015.038-.021A3.466,3.466,0,0,1,7.243,6H8V5.213A2.441,2.441,0,1,0,8,3.67V2.018H7.865A3.439,3.439,0,1,1,12.208,7.3,4.618,4.618,0,0,1,14.885,11Z"/></g><g id="colorAction"><path class="icon-vs-action-green" d="M7,3.018V5H5V7H3.018V5H1V3.018H3.018V1H5V3.018Z"/></g></svg>