<svg xmlns="http://www.w3.org/2000/svg" width="16" height="16"><style type="text/css">.icon-canvas-transparent{opacity:0;fill:#F6F6F6;} .icon-vs-out{fill:#F6F6F6;} .icon-vs-bg{fill:#424242;} .icon-vs-fg{fill:#F0EFF1;}</style><path class="icon-canvas-transparent" d="M16 16h-16v-16h16v16z" id="canvas"/><path class="icon-vs-out" d="M16 .001v16h-16v-16h16z" id="outline"/><path class="icon-vs-bg" d="M8 9.001c1.657 0 3-1.343 3-3s-1.343-3-3-3-3 1.343-3 3 1.343 3 3 3zm0-5c1.103 0 2 .897 2 2s-.897 2-2 2v-4zm-7-3v14h14v-14h-14zm13 9h-5.587l1.001 1h4.586v3h-12v-3h4.586l1.001-1h-5.587v-8h12v8zm-8 2.999h-3v-1h3v1zm7-1v1h-3v-1h3zm-4 0v1h-2v-1l1-.999 1 .999z" id="iconBg"/><path class="icon-vs-fg" d="M10 6.001c0 1.103-.897 2-2 2v-4c1.103 0 2 .897 2 2zm4-4v8h-5.587l-.413-.413-.413.413h-5.587v-8h12zm-3 4c0-1.657-1.343-3-3-3s-3 1.343-3 3 1.343 3 3 3 3-1.343 3-3zm-1.586 5l.586.585v.414h3v1h-3v1h-4v-1h-3v-1h3v-.414l.586-.585h-4.586v3h12v-3h-4.586z" id="iconFg"/></svg>