<svg xmlns="http://www.w3.org/2000/svg" viewBox="0 0 16 16"><style>.icon-canvas-transparent{opacity:0;fill:#f6f6f6}.icon-vs-out{fill:#f6f6f6}.icon-vs-bg{fill:#424242}</style><path class="icon-canvas-transparent" d="M16 16H0V0h16v16z" id="canvas"/><path class="icon-vs-out" d="M16 3v11H1V8.207a4.742 4.742 0 0 1-1-2.894C0 4.486.215 3.693.605 3H0V2l1.5-2h4.699c1.625.33 2.902 1.504 3.468 3H16z" id="outline"/><g id="iconBg"><path class="icon-vs-bg" d="M12 6h1v1h-1V6zm-2 1h1V6h-1v1zm0 4h1v-1h-1v1zm2-2h1V8h-1v1zm0 2h1v-1h-1v1zm-4 0h1v-1H8v1zm-2 0h1v-1H6v1zm-2 0h1v-1H4v1zm5.939-7c.034.227.061.454.061.688 0 .105-.014.208-.021.312H14v7H3V9.76a4.703 4.703 0 0 1-1-.57V13h13V4H9.939zM2.5 1l-1 1h1.52A3.735 3.735 0 0 0 1 5.313 3.764 3.764 0 0 0 4 9V8a2.562 2.562 0 0 1 0-5v1.5l1-1V1H2.5zm5 8l1-1H6.98A3.735 3.735 0 0 0 9 4.688 3.764 3.764 0 0 0 6 1v1a2.562 2.562 0 0 1 0 5V5.5l-1 1V9h2.5z"/></g></svg>