<svg xmlns="http://www.w3.org/2000/svg" width="16" height="16"><style type="text/css">.icon-canvas-transparent{opacity:0;fill:#F6F6F6;} .icon-vs-out{fill:#F6F6F6;} .icon-vs-bg{fill:#424242;}</style><path class="icon-canvas-transparent" d="M16 16h-16v-16h16v16z" id="canvas"/><path class="icon-vs-out" d="M15.755 2.868v5.513l-4.464 3.272-1.291-.813v5.16h-10v-10h6.167v-3.144l4.884-2.47 4.704 2.482z" id="outline"/><path class="icon-vs-bg" d="M1 15h8v-8h-8v8zm1-6.293l1.475 1.475.707-.707-1.475-1.475h4.586l-1.475 1.475.707.707 1.475-1.475v4.586l-1.475-1.475-.707.707 1.475 1.475h-4.586l1.475-1.475-.707-.707-1.475 1.475v-4.586zm9.041-7.195l-3.874 1.959v2.529h.619v-1.822l3.209 1.793v3.573l-.024.018v.016l-.01-.008-.008.008v-.016l-.953-.622v.718l1.248.786 3.507-2.57v-4.403l-3.714-1.959zm.16 3.908l-3.095-1.766 2.889-1.467 3.07 1.514-2.864 1.719zm2.989 2.179l-2.576 1.856v-3.463l2.576-1.566v3.173z" id="iconBg"/></svg>