<svg xmlns="http://www.w3.org/2000/svg" width="16" height="16"><style type="text/css">.icon-canvas-transparent{opacity:0;fill:#F6F6F6;} .icon-vs-out{fill:#F6F6F6;} .icon-vs-bg{fill:#424242;} .icon-vs-fg{fill:#F0EFF1;}</style><path class="icon-canvas-transparent" d="M16 16h-16v-16h16v16z" id="canvas"/><path class="icon-vs-out" d="M16 3.586v10.414c0 1.299-1.012 2-1.964 2h-12.036c-.988 0-2-.701-2-2v-12c0-1.299 1.012-2 1.964-2h10.45l3.586 3.586z" id="outline"/><path class="icon-vs-bg" d="M12 1h-10.036s-.964 0-.964 1v12c0 1 .964 1 .964 1h12.072s.964 0 .964-1v-10l-3-3zm2 13h-12v-12h10v2h2v10zm-9-3v1h-2v-1h2zm3-2.943l.45.449-.45.553v1.941s0 1-1 1h-1v-.999h1v-1.417c0-.402.294-.736.441-.878l.082-.073-.023-.024c-.422 0-.5-1.093-.5-1.093v-1.516h-1v-.999h1s1 0 1 1v2.056zm-3-3.057v1h-2v-1h2zm0 4v1h-2v-1h2zm0-2v1h-2v-1h2zm4-1h4v2h-1v-1h-2l1 1.5-1 1.5h2v-1h1v2h-4v-1l1-1.5-1-1.5v-1zm-6 4.999h2.001v1.001h-.001v-1l-2-.001z" id="iconBg"/><path class="icon-vs-fg" d="M12 2h-10v12h12v-10h-2v-2zm-6.999 10h-2.001v-1.001h2.001v1.001zm0-2h-2.001v-1h2.001v1zm0-2h-2.001v-1h2.001v1zm0-2h-2.001v-1h2.001v1zm2.999 3.059v1.942s0 1-1 1h-1v-1.001h1v-1.417c0-.402.294-.735.441-.877l.082-.073-.023-.024c-.422 0-.5-1.092-.5-1.092v-1.517h-1v-1h1s1 0 1 1v2.054l.45.45-.45.555zm5-3.059v2h-1v-1h-2l1 1.5-1 1.5h2v-1h1v2h-4v-1l1-1.5-1-1.5v-1h4z" id="iconFg"/></svg>