<svg xmlns="http://www.w3.org/2000/svg" width="16" height="16"><style type="text/css">.icon-canvas-transparent{opacity:0;fill:#F6F6F6;} .icon-vs-out{fill:#F6F6F6;} .icon-vs-bg{fill:#424242;} .icon-vs-yellow{fill:#FFCC00;}</style><path class="icon-canvas-transparent" d="M16 16h-16v-16h16v16z" id="canvas"/><path class="icon-vs-out" d="M10.001 1.536c-.47-.325-1.117-.536-2.001-.536h-1v3h-2v2h-1c-2.061 0-3 1.555-3 3 0 .158-.161.392-.287.517l-.713.046v2.877l.915.056.075.017.01-.004v.491c0 1.445.939 3 3 3h1v-2h1.982l-.012.025 1.034 1.975h6.998l.971-2.005-1.981-3.993h1.008l1-.002v-4h-1.465l.667-1-.667-1h1.465v-4h-6l.001 1.536z" id="outline"/><path class="icon-vs-bg" d="M8 7h-2v-2h2v2zm-3 3h2v-2h-2v2zm5-6v-.5c0-.668-.333-1.5-2-1.5v1c.333 0 1 0 1 .5v1c0 .666.597 1.285 1 1.5-.403.209-1 .832-1 1.5v1s0 .5-1 .5v1c.501 0 .871-.129 1.158-.315l.842-1.685c0-.758.742-1.484 1-1.5v-1c-.237-.016-1-.727-1-1.5zm-5 9h2v-2h-2v2zm9-12h-3v1h.002l1.998 2.998-1.334 2.002h.834l.071.142 1.429-2.142-1.999-3h1.999v1h1v-2h-1zm-12 8c0 .773-.764 1.484-1 1.5v1c.258.016 1 .242 1 1v.5c0 .666.333 2 2 2v-1c-1 0-1-.5-1-.5v-1c0-.668-.597-1.291-1-1.5.403-.215 1-.834 1-1.5v-1c0-.5.667-.5 1-.5v-1c-1.667 0-2 1.332-2 2zm12-.998h-.999l.5 1h1.499v-2.002h-1v1.002z" id="iconBg"/><path class="icon-vs-yellow" d="M11.891 8.016h-.781l-3.016 6 .515.984h5.766l.484-1-2.968-5.984zm.109 5.984h-1v-1h1v1zm0-2h-1v-2h1v2z" id="notificationBg"/><path class="icon-black" d="M12 12h-1v-2h1v2zm0 1h-1v1h1v-1z" id="notificationFg"/></svg>