<svg xmlns="http://www.w3.org/2000/svg" width="16" height="16"><style type="text/css">.icon-canvas-transparent{opacity:0;fill:#F6F6F6;} .icon-vs-out{fill:#F6F6F6;} .icon-vs-bg{fill:#424242;}</style><path class="icon-canvas-transparent" d="M16 16h-16v-16h16v16z" id="canvas"/><path class="icon-vs-out" d="M16 5h-2.119l.4.5-.4.5h2.119v4h-4.119l.4.5-.4.5h2.119v4h-7v-2.25c0 1.565-.939 3.25-3 3.25h-4v-11h2v-5h4c2.212 0 3 1.388 3 2.688v-1.688h7v4z" id="outline"/><path class="icon-vs-bg" d="M5 4h-2v-1h2v1zm2.473 2h1.527v-1c-.237-.018-1-.88-1-1.75v-.562c0-.752-.333-1.688-2-1.688v1c.333 0 1 .125 1 .688v1.125c0 .749.597 1.445 1 1.687-.163.095-.353.28-.527.5zm6.527 3h1v-2h-1v2zm-4-7v1l2 2.5-.4.5h1l.4-.5-2-2.5h3v1h1v-2h-5zm-5-1h-2v1h2v-1zm1 7.25v-.562c0-.752-.333-1.688-2-1.688v1c.333 0 1 .125 1 .688v1.125c0 .75.597 1.445 1 1.688-.403.234-1 .936-1 1.688v1.125c0-.001 0 .686-1 .686v1c1.667 0 2-1.5 2-2.25 0-.852.742-1.732 1-1.75v-1c-.237-.018-1-.88-1-1.75zm-5-1.25h2v-1h-2v1zm0 2h2v-1h-2v1zm0 2h2v-1h-2v1zm0 2h2v-1h-2v1zm0 2h2v-1h-2v1zm7-7l2 2.5-2 2.5v1h5v-2h-1v1h-3l2-2.5-2-2.5h3v1h1v-2h-5v1z" id="iconBg"/></svg>