<svg xmlns="http://www.w3.org/2000/svg" width="16" height="16"><style type="text/css">.icon-canvas-transparent{opacity:0;fill:#F6F6F6;} .icon-vs-out{fill:#F6F6F6;} .icon-vs-bg{fill:#424242;} .icon-vs-red{fill:#E51400;} .icon-white{fill:#FFFFFF;}</style><path class="icon-canvas-transparent" d="M16 16h-16v-16h16v16z" id="canvas"/><path class="icon-vs-out" d="M10.001 1.536c-.47-.325-1.117-.536-2.001-.536h-1v3h-2v2h-1c-2.061 0-3 1.555-3 3 0 .158-.161.392-.287.517l-.713.046v2.877l.915.056.075.017.01-.004v.491c0 1.445.939 3 3 3h1v-2h2.762c.809 1.205 2.182 2 3.738 2 2.466 0 4.47-1.994 4.495-4.453l.005.006v-5.553h-1.465l.667-1-.667-1h1.465v-4h-6l.001 1.536z" id="outline"/><path class="icon-vs-bg" d="M5 8h2v2h-2v-2zm-3 1c0 .773-.764 1.484-1 1.5v1c.258.016 1 .242 1 1v.5c0 .666.333 2 2 2v-1c-1 0-1-.5-1-.5v-1c0-.668-.597-1.291-1-1.5.403-.215 1-.834 1-1.5v-1c0-.5.667-.5 1-.5v-1c-1.667 0-2 1.332-2 2zm8-5v-.5c0-.668-.333-1.5-2-1.5v1c.333 0 1 0 1 .5v1c0 .666.597 1.285 1 1.5-.403.209-1 .832-1 1.5v.26c.377-.252.802-.431 1.247-.561.24-.401.592-.689.753-.699v-1c-.237-.016-1-.727-1-1.5zm-4 3h2v-2h-2v2zm-1 6h2v-2h-2v2zm9-12h-3v1h.002l1.998 2.998-1.344 2.018c.314.011.619.054.915.127l1.429-2.143-1.999-3h1.999v1h1v-2h-1zm1 7.703v-1.703h-1v.76c.384.257.712.583 1 .943z" id="iconBg"/><path class="icon-vs-red" d="M11.5 8c-1.933 0-3.5 1.567-3.5 3.5s1.567 3.5 3.5 3.5 3.5-1.567 3.5-3.5-1.567-3.5-3.5-3.5zm1.854 4.646l-.707.707-1.147-1.146-1.146 1.147-.707-.707 1.147-1.146-1.147-1.146.707-.707 1.146 1.147 1.146-1.147.707.707-1.146 1.145 1.147 1.146z" id="notificationBg"/><path class="icon-white" d="M12.207 11.5l1.147 1.146-.707.707-1.147-1.146-1.146 1.147-.707-.707 1.147-1.146-1.147-1.146.707-.707 1.146 1.147 1.146-1.147.707.707-1.146 1.145z" id="notificationFg"/></svg>