<svg xmlns="http://www.w3.org/2000/svg" width="16" height="16"><style type="text/css">.icon-canvas-transparent{opacity:0;fill:#F6F6F6;} .icon-vs-out{fill:#F6F6F6;} .icon-vs-bg{fill:#424242;} .icon-vs-fg{fill:#F0EFF1;}</style><path class="icon-canvas-transparent" d="M16 16h-16v-16h16v16z" id="canvas"/><path class="icon-vs-out" d="M16 5h-2.119l.4.5-.4.5h2.119v4h-7v-2.25c0 .621-.154 1.256-.46 1.801.286.592.46 1.248.46 1.949 0 2.485-2.014 4.5-4.5 4.5s-4.5-2.015-4.5-4.5c0-1.56.794-2.933 2-3.74v-7.76h4c2.212 0 3 1.388 3 2.688v-1.688h7v4z" id="outline"/><path class="icon-vs-bg" d="M5 6h-2v-1h2v1zm0-3h-2v1h2v-1zm0-2h-2v1h2v-1zm10 3v-2h-5v1l2 2.5-2 2.5v1h5v-2h-1v1h-3l2-2.5-2-2.5h3v1h1zm-7-.75v-.562c0-.752-.333-1.688-2-1.688v1c.333 0 1 .125 1 .688v1.125c0 .749.597 1.445 1 1.687-.403.235-1 .936-1 1.688v.572c.331.222.618.497.879.797.085-.296.121-.585.121-.807 0-.853.742-1.732 1-1.75v-1c-.237-.018-1-.88-1-1.75zm0 8.25c0 1.934-1.566 3.5-3.5 3.5-1.933 0-3.5-1.566-3.5-3.5s1.567-3.5 3.5-3.5c1.934 0 3.5 1.566 3.5 3.5zm-1 .5v-1h-2v-2h-1v2h-2v1h2v2h1v-2h2z" id="iconBg"/><path class="icon-vs-fg" d="M7 12h-2v2h-1v-2h-2v-1h2v-2h1v2h2v1z" id="iconFg"/></svg>