<svg xmlns="http://www.w3.org/2000/svg" width="16" height="16"><style type="text/css">.icon-canvas-transparent{opacity:0;fill:#F6F6F6;} .icon-vs-out{fill:#F6F6F6;} .icon-vs-bg{fill:#424242;} .icon-vs-fg{fill:#F0EFF1;}</style><path class="icon-canvas-transparent" d="M16 16h-16v-16h16v16z" id="canvas"/><path class="icon-vs-out" d="M16 0v16h-16v-16h16z" id="outline"/><path class="icon-vs-bg" d="M3 14h1v1h-1v-1zm8 1h1v-1h-1v1zm-6 0h1v-1h-1v1zm4 0h1v-1h-1v1zm-2 0h1v-1h-1v1zm7-14h-13v14h1v-13h12v12h-1v1h2v-14h-1zm-1 7v-2h-4v1l1 1.5-1 1.5v1h4v-2h-1v1h-2l1-1.5-1-1.5h2v1h1zm-10-2h2v-1h-2v1zm0 2h2v-1h-2v1zm0 2h2v-1h-2v1zm0 2h2v-1h-2v1zm5-5.561v-.439c0-1-1-1-1-1h-1v1h1v1.516s.078 1.093.5 1.093l.023.023s-.523.414-.523.95v1.418h-1v1h1c1 0 1-1 1-1v-1.941l.449-.553-.449-.45v-1.617z" id="iconBg"/><path class="icon-vs-fg" d="M2 2v12h12v-12h-12zm3 10h-2v-1h2v1zm0-2h-2v-1h2v1zm0-2h-2v-1h2v1zm0-2h-2v-1h2v1zm3 3.059v1.941s0 1-1 1h-1v-1h1v-1.417c0-.536.523-.95.523-.95l-.023-.024c-.422 0-.5-1.093-.5-1.093v-1.516h-1v-1h1s1 0 1 1v2.056l.449.45-.449.553zm5-1.059h-1v-1h-2l1 1.5-1 1.5h2v-1h1v2h-4v-1l1-1.5-1-1.5v-1h4v2z" id="iconFg"/></svg>