<svg xmlns="http://www.w3.org/2000/svg" width="16" height="16"><style type="text/css">.icon-canvas-transparent{opacity:0;fill:#F6F6F6;} .icon-vs-out{fill:#F6F6F6;} .icon-vs-bg{fill:#424242;}</style><path class="icon-canvas-transparent" d="M16 16h-16v-16h16v16z" id="canvas"/><path class="icon-vs-out" d="M10.001 1.536c-.47-.325-1.117-.536-2.001-.536h-1v3h-2v2h-1c-2.061 0-3 1.555-3 3 0 .158-.161.392-.287.517l-.713.046v2.877l.915.056.075.017.01-.004v.491c0 1.445.939 3 3 3h1v-2h3v-3c1.055 0 1.811-.409 2.303-1h5.697v-4h-1.465l.667-1-.667-1h1.465v-4h-6l.001 1.536z" id="outline"/><path class="icon-vs-bg" d="M15 1v2h-1v-1h-1.999l1.999 3-2 2.998-.004.004h2.004v-1.002h1v2.002h-4v-1.002l2-3.002-1.998-2.998h-.002v-1h4zm-5 3v-.5c0-.668-.333-1.5-2-1.5v1c.333 0 1 0 1 .5v1c0 .666.597 1.285 1 1.5-.403.209-1 .832-1 1.5v1s0 .5-1 .5v1c1.667 0 2-1.334 2-2 0-.758.742-1.484 1-1.5v-1c-.237-.016-1-.727-1-1.5zm-8 5c0 .773-.764 1.484-1 1.5v1c.258.016 1 .242 1 1v.5c0 .666.333 2 2 2v-1c-1 0-1-.5-1-.5v-1c0-.668-.597-1.291-1-1.5.403-.215 1-.834 1-1.5v-1c0-.5.667-.5 1-.5v-1c-1.667 0-2 1.332-2 2zm5 2h-2v2h2v-2zm1-6h-2v2h2v-2zm-1 3h-2v2h2v-2z" id="iconBg"/></svg>