<svg xmlns="http://www.w3.org/2000/svg" width="16" height="16"><style type="text/css">.icon-canvas-transparent{opacity:0;fill:#F6F6F6;} .icon-vs-out{fill:#F6F6F6;} .icon-vs-bg{fill:#424242;}</style><path class="icon-canvas-transparent" d="M16 16h-16v-16h16v16z" id="canvas"/><path class="icon-vs-out" d="M16 12.031h-4.356c.063.252.106.503.106.75 0 1.774-1.444 3.219-3.219 3.219-1.774 0-3.219-1.444-3.219-3.219 0-.247.043-.498.105-.75l-4.417-.031v-4h1c1.108 0 1.509-1.825 1.649-3.383.261-2.872 2.089-4.586 4.89-4.586 2.805 0 4.633 1.714 4.894 4.585.128 1.426 1.105 3.128 1.567 3.384l1-.016v4.047z" id="outline"/><path class="icon-vs-bg" d="M15 9.031v1.969h-13v-1.969c2 0 2.49-2.604 2.646-4.324.231-2.551 1.767-3.676 3.894-3.676h.004c2.127 0 3.662 1.125 3.894 3.676.154 1.721.562 4.324 2.562 4.324zm-8.549 3c-.085.235-.139.485-.139.75.001 1.226.994 2.219 2.219 2.219s2.219-.993 2.219-2.219c0-.265-.054-.515-.139-.75h-4.16z" id="iconBg"/></svg>