<svg xmlns="http://www.w3.org/2000/svg" width="16" height="16"><style type="text/css">.icon-canvas-transparent{opacity:0;fill:#F6F6F6;} .icon-vs-out{fill:#F6F6F6;} .icon-vs-bg{fill:#424242;}</style><path class="icon-canvas-transparent" d="M16 16h-16v-16h16v16z" id="canvas"/><path class="icon-vs-out" d="M15 9h-3v2h-2v3h-3v-3h-2v-2h-3v-3h3v-2h2v-3h3v3h2v2h3v3z" id="outline"/><path class="icon-vs-bg" d="M11 10h-5v-5h5v5zm-2-8h-1v2h1v-2zm5 5h-2v1h2v-1zm-5 4h-1v2h1v-2zm-4-4h-2v1h2v-1z" id="iconBg"/></svg>