<svg xmlns="http://www.w3.org/2000/svg" viewBox="0 0 16 16"><style>.icon-canvas-transparent{opacity:0;fill:#f6f6f6}.icon-vs-out{fill:#f6f6f6}.icon-vs-bg{fill:#424242}.icon-vs-fg{fill:#f0eff1}.icon-vs-action-blue{fill:#00539c}</style><path class="icon-canvas-transparent" d="M16 16H0V0h16v16z" id="canvas"/><path class="icon-vs-out" d="M15 0v15H6.06l-.493-.007L4.56 16h-.41L0 11.851v-.826l1-1V0h14z" id="outline"/><path class="icon-vs-bg" d="M14 1v13H6.392l-1-1H13V2H4v5.025l-1 1V8H2V7h1V6H2V5h1V4H2V3h1V2H2V1h12zm-3 4V4H6v2h5V5z" id="iconBg"/><path class="icon-vs-fg" d="M4 2v5.025l.355-.355 2.121 2.121L5.268 10H9v3h4V2H4zm7 3v1H6V4h5v1z" id="iconFg"/><path class="icon-vs-action-blue" d="M4.355 8.084l.707.707L2.853 11H8v1H2.978l2.084 2.084-.707.707-3.354-3.354 3.354-3.353z" id="colorAction"/></svg>