<?xml version="1.0" encoding="iso-8859-1"?>
<!-- Generator: Adobe Illustrator 21.0.0, SVG Export Plug-In . SVG Version: 6.00 Build 0)  -->
<svg version="1.1" xmlns="http://www.w3.org/2000/svg" xmlns:xlink="http://www.w3.org/1999/xlink" x="0px" y="0px"
	 viewBox="0 0 16 16" style="enable-background:new 0 0 16 16;" xml:space="preserve">
<style type="text/css">
	.icon_x002D_canvas_x002D_transparent{opacity:0;fill:#F6F6F6;}
	.icon_x002D_vs_x002D_out{fill:#F6F6F6;}
	.icon_x002D_vs_x002D_bg{fill:#424242;}
	.icon_x002D_vs_x002D_fg{fill:#F0EFF1;}
	.icon_x002D_vs_x002D_blue{fill:#1BA1E2;}
</style>
<g id="canvas">
	<path id="XMLID_1_" class="icon_x002D_canvas_x002D_transparent" d="M16,16H0V0h16V16z"/>
</g>
<g id="outline">
	<path id="XMLID_3_" class="icon_x002D_vs_x002D_out" d="M16,3v6c0,1.711-2.149,3-5,3c-0.345,0-0.679-0.021-1-0.057V16H0V5h6V3
		c0-1.71,2.149-3,5-3C13.851,0,16,1.29,16,3z"/>
</g>
<g id="iconBg">
	<path class="icon_x002D_vs_x002D_bg" d="M1,15h8V6H1V15z M2,7h6v7H2V7z M3,12h4v1H3V12z M6,11H3v-1h3V11z M3,8h4v1H3V8z"/>
</g>
<g id="iconFg">
	<path class="icon_x002D_vs_x002D_fg" d="M8,7H2v7h6V7z M3,10h3v1H3V10z M7,13H3v-1h4V13z M7,9H3V8h4V9z M14.325,3
		c0,0.527-1.326,1.325-3.325,1.325S7.675,3.527,7.675,3S9.001,1.675,11,1.675S14.325,2.473,14.325,3z"/>
</g>
<g id="color_x5F_importance">
	<path class="icon_x002D_vs_x002D_blue" d="M11,1C8.791,1,7,1.896,7,3v2h3v5.93c0.321,0.041,0.652,0.07,1,0.07c2.209,0,4-0.896,4-2
		V3C15,1.896,13.209,1,11,1z M11,4.325C9.001,4.325,7.675,3.527,7.675,3S9.001,1.675,11,1.675S14.325,2.473,14.325,3
		S12.999,4.325,11,4.325z"/>
</g>
</svg>
