<svg xmlns="http://www.w3.org/2000/svg" viewBox="0 0 16 16"><style>.icon-canvas-transparent{opacity:0;fill:#f6f6f6}.icon-vs-out{fill:#f6f6f6}.icon-vs-bg{fill:#424242}.icon-vs-fg{fill:#f0eff1}.icon-vs-action-blue{fill:#00539c}</style><path class="icon-canvas-transparent" d="M16 16H0V0h16v16z" id="canvas"/><path class="icon-vs-out" d="M14.981 9.009a1.975 1.975 0 0 1-1.74 1.015H11.97c.36.621.367 1.36.012 1.986a1.977 1.977 0 0 1-1.74 1.014H7.896l-1.919 1.919-.293.307-.742.742h-.908l-.263-.258-.777-.777v-.015L0 11.949v-.55l1.846-1.846 1.084 1.084v-.018l.046.047V7.023h2.031v-1h-1v-3h3v-3h7v3h-1v.723l1.949 3.248c.377.627.386 1.379.025 2.015z" id="outline"/><path class="icon-vs-bg" d="M9 7.008v-2h1v-1H5v1h1v4.525l-.004.012v1.113L7.03 9.624l.055-.055.031-.031 2.122 2.121-.031.031-.11.11-.208.208h1.345a1 1 0 0 0 .857-1.515L9 7.008zm-2.968 2L7 7.31V5.008h1V7.31l.968 1.697H6.032zm7.202 0h-1.868L10 6.731v-.723h1.968L11 4.31V2.008h-1v1H9v-1H8v-1h5v1h-1v2l2.091 3.485a1 1 0 0 1-.857 1.515z" id="iconBg"/><path class="icon-vs-fg" d="M11.968 6H11V4.303L11.968 6zm-3.96-.977h-1v2.303L6.04 9.023h2.936l-.968-1.697V5.023zM11 3V2h-1v1h1z" id="iconFg"/><path class="icon-vs-action-blue" d="M7.148 10.964l.707.707-3.34 3.352-3.352-3.352.707-.707L4 13.086V8h1v5.104l2.148-2.14z" id="colorAction"/></svg>