<svg xmlns="http://www.w3.org/2000/svg" width="16" height="16"><style type="text/css">.icon-canvas-transparent{opacity:0;fill:#F6F6F6;} .icon-vs-out{fill:#F6F6F6;} .icon-vs-bg{fill:#424242;} .icon-vs-fg{fill:#F0EFF1;}</style><path class="icon-canvas-transparent" d="M16 16h-16v-16h16v16z" id="canvas"/><path class="icon-vs-out" d="M16 7.5c0 4.141-3.359 7.5-7.5 7.5s-7.5-3.359-7.5-7.5 3.359-7.5 7.5-7.5 7.5 3.359 7.5 7.5z" id="outline"/><path class="icon-vs-bg" d="M8.5 5.4l.929 2.6h-1.858l.929-2.6zm6.5 2.1c0 3.59-2.91 6.5-6.5 6.5s-6.5-2.91-6.5-6.5 2.91-6.5 6.5-6.5 6.5 2.91 6.5 6.5zm-3.25 3.5l-2.5-7h-1.5l-2.5 7h1.25l.714-2h2.571l.715 2h1.25z" id="iconBg"/><path class="icon-vs-fg" d="M9.25 4h-1.5l-2.5 7h1.25l.714-2h2.571l.715 2h1.25l-2.5-7zm-1.679 4l.929-2.6.929 2.6h-1.858z" id="iconFg"/></svg>