<svg xmlns="http://www.w3.org/2000/svg" width="16" height="16"><style type="text/css">.icon-canvas-transparent{opacity:0;fill:#F6F6F6;} .icon-vs-out{fill:#F6F6F6;} .icon-vs-bg{fill:#424242;} .icon-vs-fg{fill:#F0EFF1;}</style><path class="icon-canvas-transparent" d="M16 16h-16v-16h16v16z" id="canvas"/><path class="icon-vs-out" d="M16 5h-2.811c.512.884.811 1.907.811 3 0 1.537-.586 2.938-1.541 4h1.541v4h-4v-2.35c-.627.223-1.298.35-2 .35-3.309 0-6-2.691-6-6 0-.341.035-.674.09-1h-2.09v-4h1v-3h4v2.812c.884-.513 1.907-.812 3-.812 1.537 0 2.938.586 4 1.541v-2.541h4v4z" id="outline"/><path class="icon-vs-bg" d="M4 3h-2v-2h2v2zm-1 1h-2v2h2v-2zm12-2h-2v2h2v-2zm-2 11h-2v2h2v-2zm0-5c0 2.762-2.238 5-5 5-2.761 0-5-2.238-5-5 0-2.761 2.239-5 5-5 2.762 0 5 2.239 5 5zm-6 0h-2v2h2v-2zm2-3h-2v2h2v-2z" id="iconBg"/><path class="icon-vs-fg" d="M7 10h-2v-2h2v2zm2-5h-2v2h2v-2z" id="iconFg"/></svg>