<svg xmlns="http://www.w3.org/2000/svg" width="16" height="16"><style type="text/css">.icon-canvas-transparent{opacity:0;fill:#F6F6F6;} .icon-vs-out{fill:#F6F6F6;} .icon-vs-bg{fill:#424242;} .icon-vs-fg{fill:#F0EFF1;}</style><path class="icon-canvas-transparent" d="M16 16h-16v-16h16v16z" id="canvas"/><path class="icon-vs-out" d="M16 16h-16v-16h16v16z" id="outline"/><path class="icon-vs-bg" d="M7 10v-7h-5v7h-1v1h3v4h1v-4h3v-1h-1zm-2-1h-2v-5h2v5zm10-8v14h-9v-1h8v-12h-13v-1h14z" id="iconBg"/><path class="icon-vs-fg" d="M5 9h-2v-5h2v5zm3-7v7h1v3h-3v2h8v-12h-6z" id="iconFg"/></svg>