<svg xmlns="http://www.w3.org/2000/svg" viewBox="0 0 16 16"><style>.icon-canvas-transparent{opacity:0;fill:#f6f6f6}.icon-vs-out{fill:#f6f6f6}.icon-vs-bg{fill:#424242}.icon-vs-fg{fill:#f0eff1}.icon-vs-action-green{fill:#388a34}</style><path class="icon-canvas-transparent" d="M16 16H0V0h16v16z" id="canvas"/><path class="icon-vs-out" d="M15 3.349v8.403L8.975 16H8.07L5 14.082V16H2v-2.339A3.514 3.514 0 0 1 0 10.5V7h1V3.327L7.595 0h1.118L15 3.349z" id="outline"/><path class="icon-vs-fg" d="M3.713 5.5H3v-.398l.713.398zM6 6.777V7h.4L6 6.777zM7 10.5c0 .759-.254 1.467-.677 2.05L8 13.598V7.894l-1-.559V10.5zm1.144-8.537L3.565 4.272 5.764 5.5H6v.132L8.487 7.02l4.228-2.622-4.571-2.435zM9 7.878v5.658l4-2.82V5.398l-4 2.48zM2 10.5c0 .827.673 1.5 1.5 1.5S5 11.327 5 10.5V9H2v1.5z" id="iconFg"/><path class="icon-vs-bg" d="M8.156.837L2 3.942V5.5h1v-.398l.713.398h2.051L3.565 4.272l4.578-2.309 4.571 2.436L8.487 7.02 6 5.632v1.145L6.4 7H7v.335l1 .558v5.705L6.323 12.55a3.519 3.519 0 0 1-.716.731l2.91 1.818L14 11.233V3.95L8.156.837zM13 10.716l-4 2.82V7.878l4-2.48v5.318z" id="iconBg"/><g id="colorImportance"><path class="icon-vs-action-green" d="M5 8V6.5H4V8H3V6.5H2V8H1v2.5c0 1.208.86 2.217 2 2.449V15h1v-2.051c1.14-.232 2-1.242 2-2.449V8H5zm0 2.5c0 .827-.673 1.5-1.5 1.5S2 11.327 2 10.5V9h3v1.5z"/></g></svg>