<svg xmlns="http://www.w3.org/2000/svg" width="16" height="16"><style type="text/css">.icon-canvas-transparent{opacity:0;fill:#F6F6F6;} .icon-vs-out{fill:#F6F6F6;} .icon-vs-bg{fill:#424242;} .icon-vs-fg{fill:#F0EFF1;} .icon-vs-action-blue{fill:#00539C;}</style><path class="icon-canvas-transparent" d="M16 16h-16v-16h16v16z" id="canvas"/><path class="icon-vs-out" d="M16 12h-5.586l2 2-2 2h-.828l-3.35-3.35c-.534.225-1.121.35-1.736.35-2.481 0-4.5-2.019-4.5-4.5 0-1.557.795-2.93 2-3.738v-4.762h14v12z" id="outline"/><path class="icon-vs-bg" d="M8.949 9c.019-.166.051-.329.051-.5 0-.297-.032-.585-.087-.866l2.115-2.735 1.972 2.761v1.34h-4.051zm-5.949-8v3.276c.319-.114.653-.187 1-.226v-2.05h10v8h-5.276l-.073.236.763.764h5.586v-10h-12zm10 2h-8v1.051c1.521.171 2.805 1.092 3.481 2.396l2.095-2.711c.088-.142.242-.229.408-.235.188.003.326.074.422.209l1.594 2.23v-2.94z" id="iconBg"/><path class="icon-vs-fg" d="M14 2v8h-5.276c.113-.318.186-.653.225-1h4.051v-1.34l-1.973-2.761-2.114 2.735c-.083-.423-.24-.816-.432-1.188l2.095-2.711c.088-.142.242-.229.408-.235.188.003.326.074.422.209l1.594 2.231v-2.94h-8v1.051c-.167-.019-.329-.051-.5-.051l-.5.051v-2.051h10zm-9.5 4c-1.381 0-2.5 1.119-2.5 2.5s1.119 2.5 2.5 2.5 2.5-1.119 2.5-2.5-1.119-2.5-2.5-2.5z" id="iconFg"/><path class="icon-vs-action-blue" d="M7.421 10.422l3.579 3.578-1 1-3.579-3.578c-.552.363-1.211.578-1.921.578-1.933 0-3.5-1.567-3.5-3.5s1.567-3.5 3.5-3.5 3.5 1.567 3.5 3.5c0 .711-.215 1.369-.579 1.922zm-.421-1.922c0-1.381-1.119-2.5-2.5-2.5s-2.5 1.119-2.5 2.5 1.119 2.5 2.5 2.5 2.5-1.119 2.5-2.5z" id="colorAction"/></svg>