<svg xmlns="http://www.w3.org/2000/svg" viewBox="0 0 16 16"><style>.icon-canvas-transparent{opacity:0;fill:#f6f6f6}.icon-vs-out{fill:#f6f6f6}.icon-vs-bg{fill:#424242}.icon-vs-fg{fill:#f0eff1}</style><path class="icon-canvas-transparent" d="M16 16H0V0h16v16z" id="canvas"/><path class="icon-vs-out" d="M16 12H9v.5L5.5 16h-2L0 12.5v-2l2-2V0h14v12z" id="outline"/><path class="icon-vs-bg" d="M15 1v10H9v-.5l-.5-.5H14V2H4v5h-.5l-.5.5V1h12zm-2 2H5v3.793l1.146-1.146a.494.494 0 0 1 .39-.145c.145.01.277.082.363.198l1.063 1.417 2.614-3.382a.5.5 0 0 1 .831-.026L13 5.94V3zM8.424 8.265a.498.498 0 0 1-.403.235.485.485 0 0 1-.42-.2L6.446 6.761l-.592.593L7.5 9H13V7.66l-1.972-2.761-2.604 3.366zM8 11v1l-3 3H4l-3-3v-1l3-3h1l3 3zm-3 2H4v1h1v-1zm0-4H4v3h1V9z" id="iconBg"/><g id="iconFg"><path class="icon-vs-fg" d="M13 2H4v5h1.5l.354.354.593-.592L7.601 8.3a.485.485 0 0 0 .42.2.5.5 0 0 0 .403-.234L11.028 4.9 13 7.66V9H7.5l1 1H14V2h-1zm0 3.94l-1.593-2.23a.498.498 0 0 0-.831.026L7.962 7.117 6.899 5.7a.497.497 0 0 0-.753-.054L5 6.793V3h8v2.94zM4 13h1v1H4v-1zm0-4h1v3H4V9z"/></g></svg>