<svg xmlns="http://www.w3.org/2000/svg" width="16" height="16"><style type="text/css">.icon-canvas-transparent{opacity:0;fill:#F6F6F6;} .icon-vs-out{fill:#F6F6F6;} .icon-vs-bg{fill:#424242;} .icon-vs-red{fill:#E51400;} .icon-white{fill:#FFFFFF;}</style><path class="icon-canvas-transparent" d="M16 16h-16v-16h16v16z" id="canvas"/><path class="icon-vs-out" d="M16 8.348l-1.001.357c.617.771 1.001 1.734 1.001 2.795 0 2.075-1.419 3.809-3.333 4.327v.173h-.304l-.061-.081c-.261.047-.528.081-.802.081-2.384 0-4.321-1.869-4.471-4.215l-4.409 1.316 1.408-2.101h-4.028v-3h1v-1h-1v-3h4.309l-.569-1.006 5.25 1.577 3.684-4.267-.014 5.561 3.34 1.043v1.44z" id="outline"/><g id="iconBg"><rect x="1" y="9" class="icon-vs-bg" width="3" height="1"/><rect x="2" y="7" class="icon-vs-bg" width="2" height="1"/><path class="icon-vs-bg" d="M7.078 10.726c.37-2.112 2.206-3.726 4.422-3.726 1.019 0 1.95.354 2.705.927l.795-.283-3.341-1.044.008-3.6-2.344 2.715-3.49-1.048 1.667 2.95-2.5 3.729 2.078-.62z"/><rect x="1" y="5" class="icon-vs-bg" width="3" height="1"/></g><path class="icon-vs-red" d="M11.5 8c-1.933 0-3.5 1.568-3.5 3.5 0 1.934 1.567 3.5 3.5 3.5s3.5-1.566 3.5-3.5c0-1.932-1.567-3.5-3.5-3.5zm1.854 4.646l-.707.707-1.147-1.146-1.146 1.147-.707-.707 1.146-1.146-1.146-1.146.707-.707 1.146 1.146 1.146-1.146.707.707-1.146 1.145 1.147 1.146z" id="notificationBg"/><path class="icon-white" d="M12.207 11.5l1.147 1.146-.707.707-1.147-1.146-1.146 1.147-.707-.707 1.146-1.146-1.146-1.146.707-.707 1.146 1.146 1.146-1.146.707.707-1.146 1.145z" id="notificationFg"/></svg>