<svg xmlns="http://www.w3.org/2000/svg" viewBox="0 0 16 16"><style>.icon-canvas-transparent{opacity:0;fill:#f6f6f6}.icon-vs-out{fill:#f6f6f6}.icon-vs-bg{fill:#424242}</style><path class="icon-canvas-transparent" d="M16 16H0V0h16v16z" id="canvas"/><path class="icon-vs-out" d="M2.62 13.101L4.028 11H0V8h1V7H0V4h4.309L3.74 2.994l5.25 1.577L12.674.304l-.014 5.561L16 6.908v1.44l-3.333 1.19V16h-.304l-3.576-4.74-6.167 1.841z" id="outline"/><g id="iconBg"><path class="icon-vs-bg" d="M1 5h3v1H1V5zm1 3h2V7H2v1zm-1 2h3V9H1v1zm14-2.356L11.658 6.6l.009-3.6-2.344 2.715-3.49-1.048L7.5 7.618 5 11.346l4.167-1.243 2.5 3.314V8.833L15 7.644z"/></g></svg>