<svg xmlns="http://www.w3.org/2000/svg" width="16" height="16"><style type="text/css">.icon-canvas-transparent{opacity:0;fill:#F6F6F6;} .icon-vs-out{fill:#F6F6F6;} .icon-vs-bg{fill:#424242;} .icon-vs-fg{fill:#F0EFF1;}</style><path class="icon-canvas-transparent" d="M16 16h-16v-16h16v16z" id="canvas"/><path class="icon-vs-out" d="M16 15h-16v-14h16v14z" id="outline"/><path class="icon-vs-bg" d="M1 2v12h14v-12h-14zm13 11h-12v-8h12v8zm-3.5-7c-1.209 0-2.218.859-2.45 2h-2.142c-.206-.581-.756-1-1.408-1-.828 0-1.5.671-1.5 1.5s.672 1.5 1.5 1.5c.652 0 1.202-.419 1.408-1h2.142c.232 1.141 1.241 2 2.45 2 1.381 0 2.5-1.119 2.5-2.5s-1.119-2.5-2.5-2.5zm0 4c-.828 0-1.5-.672-1.5-1.5s.672-1.5 1.5-1.5 1.5.672 1.5 1.5-.672 1.5-1.5 1.5z" id="iconBg"/><path class="icon-vs-fg" d="M12 8.5c0 .828-.672 1.5-1.5 1.5s-1.5-.672-1.5-1.5.672-1.5 1.5-1.5 1.5.672 1.5 1.5zm2-3.5v8h-12v-8h12zm-1 3.5c0-1.381-1.119-2.5-2.5-2.5-1.209 0-2.218.859-2.45 2h-2.142c-.206-.581-.756-1-1.408-1-.828 0-1.5.671-1.5 1.5s.672 1.5 1.5 1.5c.652 0 1.202-.419 1.408-1h2.142c.232 1.141 1.241 2 2.45 2 1.381 0 2.5-1.119 2.5-2.5z" id="iconFg"/></svg>