<svg xmlns="http://www.w3.org/2000/svg" width="16" height="16"><style type="text/css">.icon-canvas-transparent{opacity:0;fill:#F6F6F6;} .icon-vs-out{fill:#F6F6F6;} .icon-vs-bg{fill:#424242;} .icon-vs-fg{fill:#F0EFF1;}</style><path class="icon-canvas-transparent" d="M16 16h-16v-16h16v16z" id="canvas"/><path class="icon-vs-out" d="M16 2.586v10.828l-2.586 2.586h-10.828l-2.586-2.586v-10.828l2.586-2.586h10.828l2.586 2.586z" id="outline"/><path class="icon-vs-bg" d="M13 1h-10l-2 2v10l2 2h10l2-2v-10l-2-2zm1 11.586l-1.414 1.414h-9.172l-1.414-1.414v-9.172l1.414-1.414h9.172l1.414 1.414v9.172zm-10-8.586h8v8h-8v-8z" id="iconBg"/><path class="icon-vs-fg" d="M12.586 2h-9.172l-1.414 1.414v9.172l1.414 1.414h9.172l1.414-1.414v-9.172l-1.414-1.414zm-.586 10h-8v-8h8v8z" id="iconFg"/></svg>