<svg xmlns="http://www.w3.org/2000/svg" width="16" height="16"><style type="text/css">.icon-canvas-transparent{opacity:0;fill:#F6F6F6;} .icon-vs-out{fill:#F6F6F6;} .icon-vs-bg{fill:#424242;} .icon-vs-fg{fill:#F0EFF1;}</style><path class="icon-canvas-transparent" d="M16 16h-16v-16h16v16z" id="canvas"/><path class="icon-vs-out" d="M16 0v13h-6v3h-10v-4.163l3.612-10.837h1.388v-1h11z" id="outline"/><path class="icon-vs-bg" d="M13 4h-5v-1h5v1zm0 2v-1h-1v1h1zm-2 3h-1.945l.333 1h1.612v-1zm-3-3.163l.055.163h2.945v-1h-3v.837zm4 1.163h-3.612l.333 1h3.279v-1zm-5.612-6l.612 1.837v-.837h7v9h-4.279l.334 1h4.945v-11h-8.612zm-5.388 14h2v-2h-2v2zm3 0h2v-2h-2v2zm3 0h2v-2h-2v2zm2-3h-1.5l-.667-2h-3.666l-.667 2h-1.5l3.333-10h1.334l3.333 10zm-2.667-3.5l-1.333-4-1.333 4h2.666z" id="iconBg"/><path class="icon-vs-fg" d="M7 2v.837l1 3v-.837h3v1h-2.945l.333 1h3.612v1h-3.279l.334 1h1.945v1h-1.612l.333 1h4.279v-9h-7zm6 4h-1v-1h1v1zm0-2h-5v-1h5v1zm-8 .5l1.333 4h-2.666l1.333-4z" id="iconFg"/></svg>