<svg xmlns="http://www.w3.org/2000/svg" width="16" height="16"><style type="text/css">.icon-canvas-transparent{opacity:0;fill:#F6F6F6;} .icon-vs-out{fill:#F6F6F6;} .icon-vs-bg{fill:#424242;} .icon-vs-fg{fill:#F0EFF1;}</style><path class="icon-canvas-transparent" d="M16 16h-16v-16h16v16z" id="canvas"/><path class="icon-vs-out" d="M16 15h-15v-14h15v14z" id="outline"/><path class="icon-vs-bg" d="M2 2v12h13v-12h-13zm5 3h3v2h-3v-2zm-1 8h-3v-2h3v2zm0-3h-3v-2h3v2zm0-3h-3v-2h3v2zm8 6h-7v-5h7v5zm0-6h-3v-2h3v2zm-1 5h-5v-3h5v3z" id="iconBg"/><path class="icon-vs-fg" d="M6 13h-3v-2h3v2zm0-3h-3v-2h3v2zm0-3h-3v-2h3v2zm4 0h-3v-2h3v2zm4 0h-3v-2h3v2zm-7 1v5h7v-5h-7zm6 4h-5v-3h5v3z" id="iconFg"/></svg>