<svg xmlns="http://www.w3.org/2000/svg" width="16" height="16"><style type="text/css">.icon-canvas-transparent{opacity:0;fill:#F6F6F6;} .icon-vs-out{fill:#F6F6F6;} .icon-vs-bg{fill:#424242;}</style><path class="icon-canvas-transparent" d="M16 16h-16v-16h16v16z" id="canvas"/><path class="icon-vs-out" d="M16 15h-15v-15h15v15z" id="outline"/><path class="icon-vs-bg" d="M15 9v1h-1v-1h1zm-12-8h-1v1h1v-1zm4 0h-1v1h1v-1zm2 0h-1v1h1v-1zm2 0h-1v1h1v-1zm2 0h-1v1h1v-1zm2 0h-1v1h1v-1zm-1 10v1h1v-1h-1zm0 2v1h1v-1h-1zm-2 0v1h1v-1h-1zm2-6v1h1v-1h-1zm0-2v1h1v-1h-1zm-2-2v1h1v-1h-1zm2 0v1h1v-1h-1zm-4 10v1h1v-1h-1zm-8-4v1h1v-1h-1zm0 2v1h1v-1h-1zm0 2v1h1v-1h-1zm6 0v1h1v-1h-1zm-6-6v1h1v-1h-1zm0-2v1h1v-1h-1zm0-2v1h1v-1h-1zm4 10v1h1v-1h-1zm-2 0v1h1v-1h-1zm6-10v1h1v-1h-1zm-2 0v1h1v-1h-1zm-2 0v1h1v-1h-1zm-1-2h-1v1h1v-1zm-1 2v1h1v-1h-1z" id="iconBg"/></svg>