<svg xmlns="http://www.w3.org/2000/svg" viewBox="0 0 16 16"><style>.icon-canvas-transparent{opacity:0;fill:#f6f6f6}.icon-vs-out{fill:#f6f6f6}.icon-vs-bg{fill:#424242}.icon-vs-fg{fill:#f0eff1}.icon-vs-yellow{fill:#fc0}</style><path class="icon-canvas-transparent" d="M16 16H0V0h16v16z" id="canvas"/><path class="icon-vs-out" d="M16 1v14h-.514l-.484 1H0l.11-1H0V1h16z" id="outline"/><g id="iconFg"><path class="icon-vs-fg" d="M2 5.987c.252-.378.571-.702.924-.987H2v.987zM10.088 7.821l.405-.806h2.018L14 10.018V5H8.469a4.439 4.439 0 0 1 1.619 2.821zM2 11.313c.061-.054.11-.12.173-.171-.065-.085-.114-.18-.173-.268v.439z"/></g><path class="icon-vs-bg" d="M5.697 5a3.446 3.446 0 0 0-3.442 3.441c0 1.194.612 2.245 1.538 2.863A4.62 4.62 0 0 0 1.116 15h1.013c.246-1.757 1.744-3.118 3.568-3.118.756 0 1.449.244 2.027.643l.453-.902a4.757 4.757 0 0 0-.577-.319A3.439 3.439 0 0 0 5.697 5zm0 5.882a2.443 2.443 0 0 1-2.441-2.441A2.442 2.442 0 0 1 5.697 6a2.443 2.443 0 0 1 2.44 2.441 2.444 2.444 0 0 1-2.44 2.441zM15 2v10.034l-1-2.016V5H8.469a4.394 4.394 0 0 0-2.772-1c-1.054 0-2.01.384-2.773 1H2v.987a4.412 4.412 0 0 0-.745 2.454c0 .881.273 1.718.745 2.432v.439c-.388.345-.72.741-1 1.176V2h14z" id="iconBg"/><path class="icon-vs-yellow" d="M11.891 8.016h-.781l-3.016 6 .515.984h5.766l.484-1-2.968-5.984zM12 14h-1v-1h1v1zm0-2h-1v-2h1v2z" id="notificationBg"/><g id="notificationFg"><path class="icon-black" d="M12 12h-1v-2h1v2zm0 1h-1v1h1v-1z"/></g></svg>