<svg xmlns="http://www.w3.org/2000/svg" width="16" height="16"><style type="text/css">.icon-canvas-transparent{opacity:0;fill:#F6F6F6;} .icon-vs-out{fill:#F6F6F6;} .icon-vs-bg{fill:#424242;} .icon-vs-fg{fill:#F0EFF1;} .icon-vs-green{fill:#339933;} .icon-white{fill:#FFFFFF;}</style><path class="icon-canvas-transparent" d="M16 16h-16v-16h16v16z" id="canvas"/><path class="icon-vs-out" d="M16 1v14h-1.382c-.703.615-1.612 1-2.618 1-1.005 0-1.914-.385-2.618-1h-9.382v-14h16z" id="outline"/><path class="icon-vs-bg" d="M8.556 14h-7.556v-12h14v7.382c-.286-.328-.622-.605-1-.826v-3.556h-12v8h6.142c.092.356.233.69.414 1z" id="iconBg"/><path class="icon-vs-fg" d="M8.142 13h-6.142v-8h12v3.556c-.591-.344-1.268-.556-2-.556-2.206 0-4 1.794-4 4 0 .347.058.678.142 1z" id="iconFg"/><path class="icon-vs-green" d="M12 9c-1.657 0-3 1.343-3 3 0 1.656 1.343 3 3 3 1.656 0 3-1.344 3-3 0-1.657-1.344-3-3-3zm-1 5v-4l2.996 1.998-2.996 2.002z" id="notificationBg"/><path class="icon-white" d="M11 14v-4l2.996 1.998-2.996 2.002z" id="notificationFg"/></svg>