<svg xmlns="http://www.w3.org/2000/svg" width="16" height="16"><style type="text/css">.icon-canvas-transparent{opacity:0;fill:#F6F6F6;} .icon-vs-out{fill:#F6F6F6;} .icon-vs-bg{fill:#424242;} .icon-vs-fg{fill:#F0EFF1;}</style><path class="icon-canvas-transparent" d="M16 16h-16v-16h16v16z" id="canvas"/><path class="icon-vs-out" d="M15 12h-5.051c-.232 1.14-1.241 2-2.449 2-.553 0-1.076-.18-1.5-.5v.5h-5v-4h2v-8h12v10z" id="outline"/><path class="icon-vs-bg" d="M14 11h-4.051c-.075-.371-.241-.708-.462-1h3.513v-5h-8v5h-1v-7h10v8zm-5 .5c0 .828-.672 1.5-1.5 1.5-.652 0-1.293-.419-1.5-1h-1v1h-1v-1h-1v1h-1v-2h4c.207-.581.848-1 1.5-1 .828 0 1.5.672 1.5 1.5zm-1 0c0-.276-.224-.5-.5-.5s-.5.224-.5.5.224.5.5.5.5-.224.5-.5z" id="iconBg"/><path class="icon-vs-fg" d="M5.5 10h-.5v-5h8v5h-3.513c-.457-.604-1.174-1-1.987-1-.795 0-1.536.383-2 1zm2 1c-.276 0-.5.224-.5.5s.224.5.5.5.5-.224.5-.5-.224-.5-.5-.5z" id="iconFg"/></svg>