<svg xmlns="http://www.w3.org/2000/svg" width="16" height="16"><style type="text/css">.icon-canvas-transparent{opacity:0;fill:#F6F6F6;} .icon-vs-out{fill:#F6F6F6;} .icon-vs-bg{fill:#424242;} .icon-vs-fg{fill:#F0EFF1;}</style><path class="icon-canvas-transparent" d="M16 16h-16v-16h16v16z" id="canvas"/><path class="icon-vs-out" d="M15 16h-14v-16h14v16z" id="outline"/><path class="icon-vs-bg" d="M2 1v9h12v-9h-12zm10 7h-8v-1h8v1zm0-2h-8v-1h8v1zm0-2h-8v-1h8v1zm-10 7v4h12v-4h-12zm3 3c-.552 0-1-.447-1-1s.448-1 1-1 1 .447 1 1-.448 1-1 1zm3 0c-.552 0-1-.447-1-1s.448-1 1-1 1 .447 1 1-.448 1-1 1zm3 0c-.553 0-1-.447-1-1s.447-1 1-1 1 .447 1 1-.447 1-1 1z" id="iconBg"/><path class="icon-vs-fg" d="M12 4h-8v-1h8v1zm0 1h-8v1h8v-1zm0 2h-8v1h8v-1zm-7 5c-.552 0-1 .447-1 1s.448 1 1 1 1-.447 1-1-.448-1-1-1zm3 0c-.552 0-1 .447-1 1s.448 1 1 1 1-.447 1-1-.448-1-1-1zm3 0c-.553 0-1 .447-1 1s.447 1 1 1 1-.447 1-1-.447-1-1-1z" id="iconFg"/></svg>