<svg xmlns="http://www.w3.org/2000/svg" width="16" height="16"><style type="text/css">.icon-canvas-transparent{opacity:0;fill:#F6F6F6;} .icon-vs-out{fill:#F6F6F6;} .icon-vs-bg{fill:#424242;} .icon-vs-action-blue{fill:#00539C;}</style><path class="icon-canvas-transparent" d="M16 16h-16v-16h16v16z" id="canvas"/><path class="icon-vs-out" d="M15 4v4h1v4h-4v4h-9v-4h2v-2h-3l-2-4v-2h3.236l.382.764 1.382-2.764v-2h11v4h-1z" id="outline"/><path class="icon-vs-bg" d="M15 1v2h-6.264l1-2h5.264zm-6 4v2h5v-2h-5zm-5 10h7v-2h-7v2zm2-4h9v-2h-9v2z" id="iconBg"/><path class="icon-vs-action-blue" d="M6.618 1l-3 6-1-2h-2l2 4h2l4-8h-2z" id="colorAction"/></svg>