<svg xmlns="http://www.w3.org/2000/svg" width="16" height="16"><style type="text/css">.icon-canvas-transparent{opacity:0;fill:#F6F6F6;} .icon-vs-out{fill:#F6F6F6;} .icon-vs-bg{fill:#424242;} .icon-vs-fg{fill:#F0EFF1;} .icon-vs-action-blue{fill:#00539C;}</style><path class="icon-canvas-transparent" d="M16 16h-16v-16h16v16z" id="canvas"/><path class="icon-vs-out" d="M16 5.556v8.444c0 .97-.701 2-2 2h-8c-.97 0-2-.701-2-2v-4h-1.618l-2.382-4.764v-1.236h3.618l.382.764v-.764c0-.995.604-1.635 1.323-1.882l1.059-2.118h4.236l-1 2h2.442l3.94 3.556z" id="outline"/><path class="icon-vs-bg" d="M11.705 8l-5.27 5h1.406l1.187-1h3v1h.972v-5h-1.295zm.323 3h-2.06l2.062-2-.002 2zm2.972-5v8s-.035 1-1.035 1h-8s-.965 0-.965-1v-4h.618l.382-.764v4.764h8v-7h-3v-3h-2.382l.5-1h2.521l3.361 3zm-7 4h-1v-1h1v1zm0-2h-1v-1h1v1zm0-2.764v.764h-.382l.382-.764z" id="iconBg"/><path class="icon-vs-fg" d="M9.968 11l2.062-2-.001 2h-2.061zm4.032-4v7h-8v-4.764l1-2v.764h1v-1h-.882l.5-1h.382v-.764l.618-1.236h2.382v3h3zm-7 3h1v-1h-1v1zm6-2h-1.295l-5.27 5h1.406l1.187-1h3v1h.972v-5z" id="iconFg"/><path class="icon-vs-action-blue" d="M3 9l-2-4h2l1 2 3-6h2l-4 8h-2z" id="colorAction"/></svg>