<svg xmlns="http://www.w3.org/2000/svg" width="16" height="16"><style type="text/css">.icon-canvas-transparent{opacity:0;fill:#F6F6F6;} .icon-vs-out{fill:#F6F6F6;} .icon-vs-bg{fill:#424242;} .icon-vs-fg{fill:#F0EFF1;} .icon-vs-green{fill:#339933;} .icon-white{fill:#FFFFFF;}</style><path class="icon-canvas-transparent" d="M16 16h-16v-16h16v16z" id="canvas"/><path class="icon-vs-out" d="M16 1v9.552l-.005-.006c-.025 2.46-2.029 4.454-4.495 4.454-2.31 0-4.197-1.756-4.449-4h-3.051v-2h-4v-3h1v-1h-1v-3h4v-1h12z" id="outline"/><path class="icon-vs-bg" d="M4 4h-3v-1h3v1zm0 1h-2v1h2v-1zm0 2h-3v1h3v-1zm3.276 2h-1.276v-5h8v2.762c.384.258.712.584 1 .945v-5.707h-10v8h2.051c.039-.347.112-.681.225-1z" id="iconBg"/><path class="icon-vs-fg" d="M7.276 9h-1.276v-5h8v2.762c-.716-.48-1.575-.762-2.5-.762-1.953 0-3.602 1.258-4.224 3z" id="iconFg"/><path class="icon-vs-green" d="M15 10.5c0 1.933-1.567 3.5-3.5 3.5s-3.5-1.567-3.5-3.5 1.567-3.5 3.5-3.5c.914 0 1.738.358 2.361.932l-3.361 3.361-1.146-1.147-.707.707 1.854 1.853 3.994-3.994c-.175-.29.505.769.505 1.788z" id="notificationBg"/><path class="icon-white" d="M9.333 10.224l1.167 1.069 3.361-3.361.633.781-3.994 3.994-1.854-1.853.687-.63" id="notificationFg"/></svg>