<svg xmlns="http://www.w3.org/2000/svg" viewBox="0 0 16 16"><style>.icon-canvas-transparent{opacity:0;fill:#f6f6f6}.icon-vs-out{fill:#f6f6f6}.icon-vs-bg{fill:#424242}.icon-vs-fg{fill:#f0eff1}</style><path class="icon-canvas-transparent" d="M16 16H0V0h16v16z" id="canvas"/><path class="icon-vs-out" d="M16 15h-4.717l.109 1H0l.11-1H0V1h16v14z" id="outline"/><path class="icon-vs-fg" d="M2 10.874c.059.089.108.183.173.268-.063.051-.112.117-.173.171v-.439zm0-4.887c.252-.378.571-.702.924-.987H2v.987zM8.469 5c1.009.815 1.668 2.046 1.668 3.441 0 .991-.33 1.936-.918 2.7a5.665 5.665 0 0 1 1.474 1.858H14V5H8.469z" id="iconFg"/><g id="iconBg"><path class="icon-vs-bg" d="M7.6 11.304A3.439 3.439 0 0 0 5.697 5a3.446 3.446 0 0 0-3.442 3.441c0 1.194.612 2.245 1.538 2.863A4.618 4.618 0 0 0 1.116 15h1.013c.246-1.757 1.744-3.118 3.568-3.118 1.823 0 3.32 1.361 3.567 3.118h1.013A4.621 4.621 0 0 0 7.6 11.304zm-1.903-.422a2.443 2.443 0 0 1-2.441-2.441A2.442 2.442 0 0 1 5.697 6a2.443 2.443 0 0 1 2.44 2.441 2.444 2.444 0 0 1-2.44 2.441zM15 2v12h-3.918a5.615 5.615 0 0 0-.389-1H14V5H8.469a4.394 4.394 0 0 0-2.772-1 4.395 4.395 0 0 0-2.773 1H2v.987a4.412 4.412 0 0 0-.745 2.454c0 .881.273 1.718.745 2.432v.439c-.388.345-.72.741-1 1.176V2h14z"/></g></svg>