<?xml version="1.0" encoding="utf-8"?>
<!-- Generator: Adobe Illustrator 21.0.2, SVG Export Plug-In . SVG Version: 6.00 Build 0)  -->
<svg version="1.1" xmlns="http://www.w3.org/2000/svg" xmlns:xlink="http://www.w3.org/1999/xlink" x="0px" y="0px"
	 viewBox="0 0 16 16" style="enable-background:new 0 0 16 16;" xml:space="preserve">
<style type="text/css">
	.icon_x002D_canvas_x002D_transparent{opacity:0;fill:#F6F6F6;}
	.icon_x002D_vs_x002D_out{fill:#F6F6F6;}
	.icon_x002D_vs_x002D_bg{fill:#424242;}
	.icon_x002D_vs_x002D_fg{fill:#F0EFF1;}
	.icon_x002D_white{fill:#FFFFFF;}
	.icon_x002D_vs_x002D_red{fill:#E51400;}
</style>
<g id="canvas">
	<path class="icon_x002D_canvas_x002D_transparent" d="M16,16H0V0h16V16z"/>
</g>
<g id="outline">
	<path class="icon_x002D_vs_x002D_out" d="M16,1v14h-1.706c-0.77,0.616-1.733,1-2.794,1c-0.037,0-0.072-0.01-0.109-0.011L11.392,16
		H0l0.11-1H0V1H16z"/>
</g>
<g id="iconFg">
	<path class="icon_x002D_vs_x002D_fg" d="M2,10.874c0.059,0.089,0.108,0.183,0.173,0.268C2.11,11.193,2.061,11.259,2,11.313V10.874z
		 M8.469,5c0.718,0.58,1.253,1.373,1.506,2.284C10.453,7.111,10.962,7,11.5,7c0.925,0,1.784,0.282,2.5,0.762V5H8.469z M2,5.987
		C2.252,5.609,2.571,5.285,2.924,5H2V5.987z"/>
</g>
<g id="iconBg">
	<path class="icon_x002D_vs_x002D_bg" d="M15,2v6.706c-0.288-0.36-0.616-0.687-1-0.945V5H8.469C7.707,4.384,6.75,4,5.697,4
		c-1.054,0-2.01,0.384-2.773,1H2v0.987C1.531,6.691,1.255,7.534,1.255,8.441c0,0.881,0.273,1.718,0.745,2.432v0.439
		c-0.388,0.345-0.72,0.741-1,1.176V2H15z M5.697,5C3.799,5,2.255,6.544,2.255,8.441c0,1.194,0.612,2.245,1.538,2.863
		C2.342,11.966,1.296,13.352,1.116,15h1.013c0.246-1.757,1.744-3.118,3.568-3.118c0.487,0,0.947,0.103,1.37,0.279
		C7.034,11.944,7,11.726,7,11.5c0-0.387,0.064-0.756,0.157-1.115c-0.408,0.308-0.91,0.497-1.46,0.497
		c-1.347,0-2.441-1.095-2.441-2.441C3.255,7.095,4.35,6,5.697,6c1.346,0,2.44,1.095,2.44,2.441c0,0.039-0.01,0.075-0.011,0.113
		c0.275-0.315,0.583-0.597,0.935-0.825C8.732,6.172,7.35,5,5.697,5z"/>
</g>
<g id="notificationBg">
	<path class="icon_x002D_vs_x002D_red" d="M11.5,8C9.567,8,8,9.567,8,11.5c0,1.933,1.567,3.5,3.5,3.5c1.933,0,3.5-1.567,3.5-3.5
		C15,9.567,13.433,8,11.5,8z M13.354,12.646l-0.707,0.707L11.5,12.207l-1.146,1.147l-0.707-0.707l1.147-1.146l-1.147-1.146
		l0.707-0.707l1.146,1.147l1.146-1.147l0.707,0.707L12.207,11.5L13.354,12.646z"/>
</g>
<g id="notificationFg">
	<path id="XMLID_10_" class="icon_x002D_white" d="M12.207,11.5l1.147,1.146l-0.707,0.707L11.5,12.207l-1.146,1.147l-0.707-0.707
		l1.147-1.146l-1.147-1.146l0.707-0.707l1.146,1.147l1.146-1.147l0.707,0.707L12.207,11.5z"/>
	<g>
	</g>
	<g>
	</g>
	<g>
	</g>
	<g>
	</g>
	<g>
	</g>
	<g>
	</g>
</g>
</svg>
