<svg xmlns="http://www.w3.org/2000/svg" viewBox="0 0 16 16"><style>.icon-canvas-transparent{opacity:0;fill:#f6f6f6}.icon-vs-out{fill:#f6f6f6}.icon-vs-bg{fill:#424242}.icon-vs-fg{fill:#f0eff1}</style><path class="icon-canvas-transparent" d="M16 16H0V0h16v16z" id="canvas"/><path class="icon-vs-out" d="M16 4v9h-4.554l-2.393 2.405-.034-.029-.047.044-.69-.68L7 13.453v.021l-.5-.5v.025c0 1.654-1.346 3-3 3s-3-1.346-3-3c0-1.088.589-2.066 1.5-2.592V10H1V5h1V4H4.567l-.317-.319 2.118-2.119L7.5 2.689V.031h3v2.675l1.148-1.145 2.118 2.119-.317.32H16z" id="outline"/><path class="icon-vs-fg" d="M14 6v5h-.576l.329-.33-2.119-2.119-1.148 1.145V7h-.02l.996-1H14zM5 6v3.905l1.354-1.354 1.131 1.128V7h.046l-1-1H5z" id="iconFg"/><path class="icon-vs-bg" d="M5.526 5H5v1h1.526l-1-1zM4 11.07V5H3v1H2v1h1v1H2v1h1v2.07A1.995 1.995 0 0 0 3.5 15a1.995 1.995 0 1 0 .5-3.93zM3.5 14a1 1 0 1 1 0-2 1 1 0 0 1 0 2zm8.974-9l-1 1H14v4.979l.02.021h-.546l-1 1H15V5h-2.526zm-.841 4.964l.707.707L9 14.023l-3.352-3.352.707-.707 2.13 2.122V8h1v4.104l2.148-2.14zM9 7.055L5.648 3.702l.707-.707 2.13 2.122V1.031h1v4.104l2.148-2.14.707.707L9 7.055z" id="iconBg"/></svg>