<svg xmlns="http://www.w3.org/2000/svg" width="16" height="16"><style type="text/css">.icon-canvas-transparent{opacity:0;fill:#F6F6F6;} .icon-vs-out{fill:#F6F6F6;} .icon-vs-bg{fill:#424242;} .icon-vs-fg{fill:#F0EFF1;}</style><path class="icon-canvas-transparent" d="M16 16h-16v-16h16v16z" id="canvas"/><path class="icon-vs-out" d="M16 13h-4v3h-12v-12h7v-4h9v13z" id="outline"/><path class="icon-vs-bg" d="M15 1h-7v3h6v1h-2v7h3v-11zm-1 10h-1v-1h1v1zm0-8h-5v-1h5v1zm-8 5c0-.552.448-1 1-1s1 .448 1 1-.448 1-1 1-1-.448-1-1zm5.001-3v10h-10v-10h10zm-1.001 8l-1.5-1-2 1-2.5-2-2 2v1h8v-1zm0-7h-8v5l2-2 2.5 2 2-1 1.5 1v-5z" id="iconBg"/><path class="icon-vs-fg" d="M14 3h-5v-1h5v1zm0 1h-2v1h2v-1zm0 6h-1v1h1v-1zm-7.5 3l-2.5-2-2 2v1h8v-1l-1.5-1-2 1zm-4.5-7v5l2-2 2.5 2 2-1 1.5 1v-5h-8zm5 3c-.552 0-1-.448-1-1s.448-1 1-1 1 .448 1 1-.448 1-1 1z" id="iconFg"/></svg>