<svg xmlns="http://www.w3.org/2000/svg" width="16" height="16"><style type="text/css">.icon-canvas-transparent{opacity:0;fill:#F6F6F6;} .icon-vs-out{fill:#F6F6F6;} .icon-vs-bg{fill:#424242;} .icon-vs-fg{fill:#F0EFF1;}</style><path class="icon-canvas-transparent" d="M16 16h-16v-16h16v16z" id="canvas"/><path class="icon-vs-out" d="M16 0v16h-16v-16h16z" id="outline"/><path class="icon-vs-bg" d="M13 4h-10v4h10v-4zm-1 3h-8v-2h8v2zm-3 2h1v1h-1v-1zm0 5h1v1h-1v-1zm-8-13v14h7v-6h-6v-6h12v6h-3v6h4v-14h-14zm6 9v4h-2v-4h2zm-3 0v4h-2v-4h2zm10 4h-2v-4h2v4z" id="iconBg"/><path class="icon-vs-fg" d="M12 10h2v4h-2v-4zm2-7v6h-3v5h-3v-5h-6v-6h12zm-4 6h-1v1h1v-1zm3-5h-10v4h10v-4zm-11 10h2v-4h-2v4zm3 0h2v-4h-2v4zm7-9h-8v2h8v-2z" id="iconFg"/></svg>