<svg xmlns="http://www.w3.org/2000/svg" viewBox="0 0 16 16"><style>.icon-canvas-transparent{opacity:0;fill:#f6f6f6}.icon-vs-out{fill:#f6f6f6}.icon-vs-bg{fill:#424242}</style><path class="icon-canvas-transparent" d="M16 16H0V0h16v16z" id="canvas"/><path class="icon-vs-out" d="M12.453 10L16 6.44V4.946l-1.373-1.372-1.148 1.144.001-1.448c0-.973-.309-1.795-.893-2.379-.589-.588-1.386-.886-2.373-.886H6.007V2H5V0H0v5h2v2h2v2h5V7.466L11.534 10H0v6h16v-6h-3.547zm-1.974-5.299L9.347 3.573 8.919 4H7v-.997h3.279c.081 0 .135.007.16.007l.012-.001a.911.911 0 0 1 .028.259v1.433z" id="outline"/><path class="icon-vs-bg" d="M11.987 7.5h.027L12 7.513l-.013-.013zM3 4H1V1h3v2h2v2h2v3H5V6H3V4zm8 9h-1v-2H6v2H5v-2H1v4h4v-1h1v1h4v-1h1v1h4v-4h-4v2zm4.333-7.307l-3.34 3.352-3.352-3.352.707-.707 2.13 2.122.001-3.839c0-.437-.104-.761-.307-.964-.301-.301-.761-.304-.944-.301H7.007v-1H10.22c.711 0 1.266.2 1.66.594.397.397.6.96.6 1.672l-.001 3.857 2.148-2.14.706.706z" id="iconBg"/></svg>