<svg xmlns="http://www.w3.org/2000/svg" width="16" height="16"><style type="text/css">.icon-canvas-transparent{opacity:0;fill:#F6F6F6;} .icon-vs-out{fill:#F6F6F6;} .icon-vs-bg{fill:#424242;} .icon-vs-fg{fill:#F0EFF1;}</style><path class="icon-canvas-transparent" d="M16 16h-16v-16h16v16z" id="canvas"/><path class="icon-vs-out" d="M8 0v2h-8v8h2.035v6h.748l1.589-1.745.774 1.745h.893l1.961-.893v.893h8v-16h-8zm0 14.28l-.563-1.276h.563v1.276z" id="outline"/><path class="icon-vs-bg" d="M9 9v6h6v-6h-6zm5 5h-4v-3h4v3zm-5-13v4h-2v-2h-6v6h1v-4h.035v-.286l.309.286h3.656v3h-.423l1.078 1h.345v-3h2v1h6v-6h-6zm5 5h-4v-3h4v3zm-8.234 9l-1.137-2.561-1.629 1.788v-7.231l5.387 4.998h-2.518l1.086 2.465-1.189.541z" id="iconBg"/><path class="icon-vs-fg" d="M2.471 5h3.529v3h-.548l-2.981-3zm7.529-2v3h4v-3h-4zm0 11h4v-3h-4v3z" id="iconFg"/></svg>