<svg xmlns="http://www.w3.org/2000/svg" width="16" height="16"><style type="text/css">.icon-canvas-transparent{opacity:0;fill:#F6F6F6;} .icon-vs-out{fill:#F6F6F6;} .icon-vs-bg{fill:#424242;} .icon-vs-fg{fill:#F0EFF1;}</style><path class="icon-canvas-transparent" d="M16 16h-16v-16h16v16z" id="canvas"/><path class="icon-vs-out" d="M16 6.004v4h-6.557c-.35.6-.845 1.094-1.443 1.443v3.557h-4v-3.557c-.599-.35-1.094-.844-1.443-1.443h-2.557v-4h2.558c.348-.6.843-1.094 1.442-1.443v-3.557h4v3.557c.599.35 1.094.844 1.442 1.443h6.558z" id="outline"/><path class="icon-vs-bg" d="M15 7.004h-6.186c-.301-.848-.967-1.514-1.814-1.815v-3.185h-2v3.185c-.847.301-1.513.967-1.814 1.815h-2.186v2h2.186c.301.847.967 1.514 1.814 1.815v3.185h2v-3.185c.847-.302 1.513-.969 1.814-1.815h6.186v-2zm-9 2.947c-1.074 0-1.947-.873-1.947-1.947 0-1.072.873-1.947 1.947-1.947s1.947.875 1.947 1.947c0 1.074-.873 1.947-1.947 1.947z" id="iconBg"/><path class="icon-vs-fg" d="M8 8.004c0 1.104-.896 2-2 2s-2-.896-2-2 .896-2 2-2 2 .896 2 2z" id="iconFg"/></svg>