<svg xmlns="http://www.w3.org/2000/svg" width="16" height="16"><style type="text/css">.icon-canvas-transparent{opacity:0;fill:#F6F6F6;} .icon-vs-out{fill:#F6F6F6;} .icon-vs-bg{fill:#424242;} .icon-vs-fg{fill:#F0EFF1;} .icon-vs-action-red{fill:#A1260D;}</style><path class="icon-canvas-transparent" d="M16 16h-16v-16h16v16z" id="canvas"/><path class="icon-vs-out" d="M16 0v13h-2v3h-14v-13h.275c.328-.919.928-1.707 1.725-2.24v-.76h14z" id="outline"/><path class="icon-vs-bg" d="M5 8.949c.865-.096 1.65-.432 2.297-.949h3.703v1h-6v-.051zm2.297-7.949c.647.518 1.145 1.204 1.428 2h5.275v8h-1v-7h-4.051c.019.166.051.328.051.5 0 .529-.108 1.029-.275 1.5h3.275v5h-8v-2.051c-.347-.039-.682-.111-1-.224v3.275h9v2h-10v-5.76c-.384-.258-.712-.584-1-.943v7.703h12v-3h2v-11h-7.703z" id="iconBg"/><g id="iconFg"><path class="icon-vs-fg" d="M12 6v5h-8v-2.051c.166.02.329.051.5.051l.5-.051v.051h6v-1h-3.703c.647-.518 1.145-1.203 1.428-2h3.275zm-9 2.725c-.354-.126-.693-.28-1-.485v5.76h10v-2h-9v-3.275zm10-4.725v7h1v-8h-5.275c.113.319.187.653.225 1h4.05z"/><path class="icon-vs-fg" d="M6 6h-3v-3h3v3z"/></g><path class="icon-vs-action-red" d="M4.5 1c-1.933 0-3.5 1.567-3.5 3.5s1.567 3.5 3.5 3.5 3.5-1.567 3.5-3.5-1.567-3.5-3.5-3.5zm1.5 5h-3v-3h3v3z" id="colorAction"/></svg>