<svg xmlns="http://www.w3.org/2000/svg" width="16" height="16"><style type="text/css">.icon-canvas-transparent{opacity:0;fill:#F6F6F6;} .icon-vs-out{fill:#F6F6F6;} .icon-vs-bg{fill:#424242;}</style><path class="icon-canvas-transparent" d="M16 16h-16v-16h16v16z" id="canvas"/><path class="icon-vs-out" d="M7.501 16v-3h.821l-.399-1h-2.646l-.399 1h.623v3h-5v-3h1.114c.066-.047.173-.161.229-.301l4.679-11.699h2.152l4.682 11.699c.054.135.298.301.443.301h1.201v3h-7.5z" id="outline"/><path class="icon-vs-bg" d="M13.8 14c-.553 0-1.166-.416-1.371-.929l-4.428-11.071h-.801l-3.199 8-1.229 3.071c-.205.513-.685.929-1.072.929h-.199v1h3v-1h-.301c-.441 0-.633-.416-.428-.929l.829-2.071h4l.828 2.071c.205.513-.032.929-.528.929h-.4v1h5.5v-1h-.201zm-8.799-4l1.6-4 1.6 4h-3.2z" id="iconBg"/></svg>