<svg xmlns="http://www.w3.org/2000/svg" width="16" height="16"><style type="text/css">.icon-canvas-transparent{opacity:0;fill:#F6F6F6;} .icon-vs-out{fill:#F6F6F6;} .icon-vs-bg{fill:#424242;} .icon-vs-fg{fill:#F0EFF1;} .icon-asp-html-wpf-blue{fill:#0095D7;}</style><path class="icon-canvas-transparent" d="M16 16h-16v-16h16v16z" id="canvas"/><path class="icon-vs-out" d="M16 3.587v5.4c0 .967-.689 1.995-1.99 1.995h-3.021c-.217 2.625-2.25 4.743-4.929 5.003-.179.016-.357.015-.538.015l-.479-.013-.329-.041h-.111l-.087-.033c-2.221-.407-3.962-2.125-4.394-4.329l-.042-.083-.001-.163-.042-.34-.037-.415c0-3.024 2.485-5.542 5.522-5.542l.474.046v-3.082c.001-1.296 1.033-2.005 2.004-2.005h4.422l3.578 3.587z" id="outline"/><path class="icon-vs-bg" d="M11,3v1H9V3H11z M9,6h4V5H9V6zM7,2c0,1,0,3.213,0,3.213c0.349,0.099,0.683,0.231,1,0.393V2h4v2h2v5h-3.213c0.092,0.322,0.156,0.656,0.188,1c0,0,2.025,0,3.025,0s1-1,1-1V4l-3-3H8C8,1,7,1,7,2zM13,7H9.742c0.253,0.307,0.47,0.643,0.652,1H13V7z" id="iconBg"/><path class="icon-vs-fg" d="M12 4v-2h-4v3.605c.672.344 1.266.818 1.742 1.395h3.258v1h-2.606c.162.317.294.651.393 1h3.213v-5h-2zm-3-1h2v1h-2v-1zm4 3h-4v-1h4v1z" id="iconFg"/><path class="icon-asp-html-wpf-blue" d="M10.027 10.543l-.008-.152c-.081-2.413-2.058-4.348-4.492-4.348-2.485 0-4.5 2.015-4.5 4.5l.02.389.045.342.002.012c.313 1.891 1.803 3.381 3.696 3.691l.013.002.338.045.387.02.439-.022c2.278-.223 4.06-2.141 4.06-4.479zm-2.592-1.066c.467-.074.961-.199 1.489-.389.191.446.298.938.298 1.455l-.012.24c-.667.291-1.268.465-1.831.555.07-.393.108-.768.104-1.119-.001-.258-.023-.502-.048-.742zm1.145-1.017c-.442.152-.857.258-1.255.319-.138-.662-.354-1.233-.589-1.725.757.261 1.4.758 1.844 1.406zm-3.053 5.78l-.324-.017c-.322-.717-.57-1.43-.725-2.125.336.033.686.057 1.045.059l.259.002c.224 0 .45-.006.678-.018-.196.639-.487 1.336-.87 2.096l-.063.003zm.004-2.783c-.41-.006-.803-.035-1.182-.078-.055-.393-.082-.779-.078-1.153.002-.247.02-.507.043-.737.387.043.789.055 1.209.055h.259c.314 0 .632.012.956-.012.025.219.044.452.046.684.004.371-.044.777-.135 1.207-.376.024-.744.036-1.118.034zm-.004-4.61l.313.016c.301.522.607 1.186.785 1.997-.367.025-.728.029-1.094.025-.386-.004-.76-.03-1.119-.071.15-.781.398-1.423.644-1.934.154-.019.311-.033.471-.033zm-1.34.254c-.186.465-.355 1-.471 1.613-.443-.079-.85-.175-1.223-.281.418-.598 1.007-1.064 1.694-1.332zm-2.356 3.442c0-.525.112-1.025.31-1.48.44.13.932.253 1.479.346-.027.262-.047.528-.049.81-.004.342.021.695.063 1.051-.691-.125-1.288-.299-1.788-.467l-.015-.26zm.151 1.045c.514.156 1.102.309 1.765.414.132.674.349 1.359.632 2.053-1.153-.377-2.052-1.301-2.397-2.467zm4.435 2.539c.35-.736.62-1.424.795-2.053.575-.074 1.186-.22 1.856-.472-.372 1.244-1.383 2.212-2.651 2.525z" id="colorImportance"/></svg>