<svg xmlns="http://www.w3.org/2000/svg" width="16" height="16"><style type="text/css">.icon-canvas-transparent{opacity:0;fill:#F6F6F6;} .icon-vs-out{fill:#F6F6F6;} .icon-vs-bg{fill:#424242;} .icon-vs-fg{fill:#F0EFF1;}</style><path class="icon-canvas-transparent" d="M16 16h-16v-16h16v16z" id="canvas"/><path class="icon-vs-out" d="M4 15c-.97 0-2-.701-2-2v-10c0-1.299 1.03-2 2-2h6.061l3.939 3.556v8.444c0 .97-.701 2-2 2h-8z" id="outline"/><path class="icon-vs-bg" d="M9.641,2H3.964C3.964,2,3,2,3,3c0,0.805,0,7.442,0,10c0,1,0.964,1,0.964,1s7,0,8,0S13,13,13,13V5L9.641,2z M12,13H4V3h5v3h3V13z" id="iconBg"/><path class="icon-vs-fg" d="M12 13h-8v-10h5v3h3v7z" id="iconFg"/><path class="icon-vs-bg" d="M10.771 7.511c-.154-.322-.364-.595-.627-.817-.264-.224-.571-.395-.922-.514-.351-.12-.726-.18-1.127-.18-.315 0-.608.037-.883.111-.275.075-.527.18-.756.315-.228.135-.434.298-.615.49-.182.19-.334.401-.457.633-.124.231-.22.48-.285.745-.067.267-.099.543-.099.832 0 .435.073.831.221 1.184.146.354.354.656.618.908.265.252.582.444.945.58.365.135.768.202 1.205.202.202 0 .385-.007.549-.023l.443-.061.341-.083.251-.094v-.568l-.309.122-.347.095-.403.06c-.143.017-.299.022-.467.022-.374 0-.709-.059-1.005-.176-.295-.117-.545-.28-.75-.487-.206-.21-.363-.458-.472-.749-.108-.29-.162-.609-.162-.955 0-.363.06-.702.182-1.015.122-.313.29-.586.505-.816.217-.23.472-.412.771-.543.297-.131.623-.196.971-.196.28 0 .531.029.749.091.218.061.413.144.58.246.17.105.311.226.429.365.119.139.216.287.292.444.075.158.129.321.164.488.033.169.051.333.051.494 0 .229-.023.436-.068.617-.045.184-.105.336-.179.463-.073.127-.16.224-.257.289-.098.066-.197.1-.303.1l-.143-.03-.11-.105-.073-.205-.027-.328.012-.217.027-.354.037-.429.039-.431.032-.364.018-.23h-.613l-.036.4h-.013l-.091-.188-.155-.143-.206-.094-.246-.032c-.224 0-.43.047-.615.144-.188.096-.346.229-.481.399-.134.169-.237.37-.311.604-.075.233-.112.484-.112.755 0 .229.03.43.089.602.059.173.141.314.24.431.102.114.219.2.356.255.133.057.277.086.427.086.117 0 .228-.019.333-.055.103-.034.201-.086.288-.154.089-.069.166-.154.232-.254.068-.1.121-.215.158-.346h.017c0 .25.068.449.206.595.137.147.333.22.591.22.195 0 .387-.043.575-.132.189-.088.358-.219.509-.391.148-.175.27-.389.362-.644.092-.258.139-.555.139-.894 0-.404-.078-.768-.229-1.09zm-2.206 1.699c-.037.186-.09.345-.164.479-.073.136-.164.242-.272.321-.109.076-.235.117-.381.117-.08 0-.158-.017-.229-.053-.073-.034-.137-.086-.193-.154-.054-.068-.099-.156-.132-.26-.03-.103-.047-.223-.047-.364 0-.158.018-.32.053-.486.038-.165.091-.315.167-.451.073-.134.167-.242.278-.328.109-.085.24-.128.387-.128l.227.042c.071.028.132.071.186.131.054.058.097.132.125.22.03.089.047.196.047.321.001.211-.018.409-.052.593z" id="colorImportance"/></svg>