<svg xmlns="http://www.w3.org/2000/svg" width="16" height="16"><style type="text/css">.icon-canvas-transparent{opacity:0;fill:#F6F6F6;} .icon-vs-out{fill:#F6F6F6;} .icon-vs-bg{fill:#424242;} .icon-vs-fg{fill:#F0EFF1;} .icon-asp-html-wpf-blue{fill:#0095D7;}</style><path class="icon-canvas-transparent" d="M16 16h-16v-16h16v16z" id="canvas"/><path class="icon-vs-out" d="M16 3.556v8.444c0 .97-.701 2-2 2h-4.261c-1.01 1.221-2.535 2-4.239 2-3.032 0-5.5-2.467-5.5-5.5 0-2.512 1.695-4.631 4-5.286v-3.214c0-1.299 1.03-2 2-2h6l4 3.556z" id="outline"/><path class="icon-vs-bg" d="M15 4v8s-.035 1-1.035 1h-3.572c.163-.317.295-.651.394-1h3.213v-7h-3v-3h-5v3.025l-.5-.025-.5.025v-3.025c0-1 .964-1 .964-1h5.677l3.359 3z" id="iconBg"/><path class="icon-vs-fg" d="M14 5v7h-3.213c.136-.477.213-.979.213-1.5 0-2.863-2.201-5.221-5-5.475v-3.025h5v3h3z" id="iconFg"/><path class="icon-asp-html-wpf-blue" d="M10.027 10.543l-.008-.152c-.081-2.414-2.057-4.348-4.492-4.348-2.485 0-4.5 2.015-4.5 4.5l.02.389.045.341.002.013c.313 1.891 1.804 3.38 3.696 3.691l.013.002.338.045.387.02.439-.022c2.278-.223 4.06-2.142 4.06-4.479zm-2.591-1.067c.467-.073.961-.198 1.489-.388.19.445.299.938.299 1.455l-.012.24c-.668.291-1.269.465-1.831.555.07-.393.108-.768.104-1.119-.003-.259-.024-.503-.049-.743zm1.144-1.017c-.441.152-.856.258-1.255.319-.137-.661-.353-1.233-.589-1.725.757.261 1.401.759 1.844 1.406zm-3.053 5.78l-.324-.018c-.322-.717-.57-1.43-.725-2.124.336.033.686.057 1.045.059l.259.002c.224 0 .45-.006.678-.018-.196.638-.487 1.335-.87 2.095l-.063.004zm.004-2.782c-.41-.006-.803-.035-1.182-.079-.055-.392-.082-.778-.078-1.153.002-.247.02-.507.043-.737.387.043.79.112 1.209.112h.259c.314 0 .632-.045.956-.068.025.219.044.451.046.683.004.372-.044.778-.135 1.208-.376.024-.744.036-1.118.034zm-.004-4.61l.313.016c.302.522.607 1.187.786 1.997-.367.025-.729.029-1.095.025-.386-.004-.76-.029-1.119-.07.15-.782.398-1.424.645-1.935.154-.02.31-.033.47-.033zm-1.339.254c-.186.464-.356.999-.471 1.612-.443-.078-.85-.175-1.223-.28.417-.598 1.006-1.065 1.694-1.332zm-2.357 3.442c0-.525.112-1.025.31-1.481.44.131.932.254 1.479.346-.028.262-.048.529-.05.811-.004.342.021.694.063 1.051-.691-.126-1.288-.299-1.788-.467l-.014-.26zm.151 1.044c.514.157 1.102.31 1.765.415.132.673.349 1.359.632 2.053-1.152-.377-2.052-1.301-2.397-2.468zm4.436 2.54c.35-.737.62-1.424.795-2.054.574-.073 1.186-.22 1.855-.472-.372 1.245-1.382 2.213-2.65 2.526z" id="colorImportance"/></svg>