<svg xmlns="http://www.w3.org/2000/svg" width="16" height="16"><style type="text/css">.icon-canvas-transparent{opacity:0;fill:#F6F6F6;} .icon-vs-bg{fill:#424242;} .icon-vs-fg{fill:#F0EFF1;} .icon-vs-red{fill:#E51400;} .icon-vs-out{fill:#F6F6F6;}</style><path class="icon-canvas-transparent" d="M16 16h-16v-16h16v16z" id="canvas"/><path class="icon-vs-out" d="M5 0v2h-2v2h-2v11h7.705c.77.616 1.733 1 2.793 1 2.481 0 4.502-2.019 4.502-4.5v-11.5h-11z" id="outline"/><g id="iconBg"><path class="icon-vs-bg" d="M7.049 12h-3.049v-5h5v.761c.583-.391 1.268-.628 2-.71v-2.051h-9v9h5.76c-.391-.583-.629-1.268-.711-2z"/><path class="icon-vs-bg" d="M14 7.763c.384.258.712.585 1 .946v-7.709h-9v1h8v5.763z"/><path class="icon-vs-bg" d="M12 7.051c.347.039.681.113 1 .226v-4.277h-9v1h8v3.051z"/></g><path class="icon-vs-fg" d="M6.998 11.5c0-1.557.796-2.931 2.002-3.739v-.761h-5v5h3.049c-.019-.166-.051-.329-.051-.5z" id="iconFg"/><path class="icon-vs-red" d="M11.498 8c-1.933 0-3.5 1.567-3.5 3.5s1.567 3.5 3.5 3.5 3.5-1.567 3.5-3.5-1.567-3.5-3.5-3.5zm-2.496 3.5c0-.531.17-1.022.454-1.427l3.382 3.526c-.388.248-.846.397-1.34.397-1.376 0-2.496-1.12-2.496-2.496zm4.559 1.403l-3.375-3.518c.382-.237.829-.381 1.312-.381 1.376 0 2.496 1.12 2.496 2.496 0 .519-.16 1.003-.433 1.403z" id="notificationBg"/></svg>