<svg xmlns="http://www.w3.org/2000/svg" viewBox="0 0 16 16"><style>.st0{opacity:0}.st0,.st1{fill:#f6f6f6}.st2{fill:#424242}.st3{fill:#f0eff1}</style><g id="outline"><path class="st0" d="M0 0h16v16H0z"/><path class="st1" d="M1 1h15v13H1z"/></g><g id="icon_x5F_bg"><path class="st2" d="M2 2v11h13V2H2zm12 10H3V3h11v9z"/><path class="st2" d="M4 4h1v1H4zM4 6h1v1H4zM4 8h1v1H4zM12 6h1v1h-1zM12 8h1v1h-1zM4 10h1v1H4zM6 4h1v1H6zM8 4h1v1H8zM10 4h1v1h-1zM12 4h1v1h-1zM6 10h1v1H6zM8 10h1v1H8zM10 10h1v1h-1zM12 10h1v1h-1z"/></g><path class="st3" d="M3 3v9h11V3H3zm2 8H4v-1h1v1zm0-2H4V8h1v1zm0-2H4V6h1v1zm0-2H4V4h1v1zm2 6H6v-1h1v1zm0-6H6V4h1v1zm2 6H8v-1h1v1zm0-6H8V4h1v1zm2 6h-1v-1h1v1zm0-6h-1V4h1v1zm2 6h-1v-1h1v1zm0-2h-1V8h1v1zm0-2h-1V6h1v1zm0-2h-1V4h1v1z" id="icon_x5F_fg"/></svg>