<svg xmlns="http://www.w3.org/2000/svg" width="16" height="16"><style type="text/css">.icon-canvas-transparent{opacity:0;fill:#F6F6F6;} .icon-vs-out{fill:#F6F6F6;} .icon-vs-bg{fill:#424242;} .icon-vs-fg{fill:#F0EFF1;} .icon-vs-yellow{fill:#FFCC00;}</style><path class="icon-canvas-transparent" d="M16 16h-16v-16h16v16z" id="canvas"/><path class="icon-vs-out" d="M7.5 15h-7.5v-11h1v-2h2l-.001-2h12.001v12l1 2-1 2h-7l-.5-1z" id="outline"/><path class="icon-vs-bg" d="M14 1v9l-1-2v-6h-9v-1h10zm-12 3h9v3h1v-4h-10v1zm-1 10h6l1-2h-5v-5h5v5l2-4v-2.992h-9v8.992z" id="iconBg"/><path class="icon-vs-fg" d="M8 7.008v4.992h-5v-4.992h5z" id="iconFg"/><path class="icon-vs-yellow" d="M11.891 8.016h-.781l-3.016 6 .515.984h5.766l.484-1-2.968-5.984zm.109 5.984h-1v-1h1v1zm0-2h-1v-2h1v2z" id="notificationBg"/><path class="icon-black" d="M12 12h-1v-2h1v2zm0 1h-1v1h1v-1z" id="notificationFg"/></svg>