<svg xmlns="http://www.w3.org/2000/svg" width="16" height="16"><style type="text/css">.icon-canvas-transparent{opacity:0;fill:#F6F6F6;} .icon-vs-out{fill:#F6F6F6;} .icon-vs-bg{fill:#424242;} .icon-vs-fg{fill:#F0EFF1;} .icon-vs-red{fill:#E51400;} .icon-white{fill:#FFFFFF;}</style><path class="icon-canvas-transparent" d="M16 16h-16v-16h16v16z" id="canvas"/><path class="icon-vs-out" d="M16 10h-.275c.167.472.275.971.275 1.5 0 2.485-2.015 4.5-4.5 4.5-1.063 0-2.026-.384-2.797-1h-7.703v-11h2v-2h2v-2h11v10z" id="outline"/><path class="icon-vs-bg" d="M15 1v7.703c-.288-.36-.616-.686-1-.943v-5.76h-8v-1h9zm-11 3h8v3.05c.347.039.682.112 1 .225v-4.275h-9v1zm-2 10h5.76c-.391-.583-.627-1.268-.709-2h-3.051v-5h5v.76c.583-.391 1.268-.627 2-.709v-2.051h-9v9z" id="iconBg"/><path class="icon-vs-fg" d="M7.05 12h-3.05v-5h5v.76c-1.206.807-2 2.18-2 3.74 0 .171.032.334.05.5z" id="iconFg"/><path class="icon-vs-red" d="M11.5 8c-1.933 0-3.5 1.567-3.5 3.5s1.567 3.5 3.5 3.5 3.5-1.567 3.5-3.5-1.567-3.5-3.5-3.5zm1.854 4.646l-.707.707-1.147-1.146-1.146 1.147-.707-.707 1.147-1.146-1.147-1.146.707-.707 1.146 1.147 1.146-1.147.707.707-1.146 1.145 1.147 1.146z" id="notificationBg"/><path class="icon-white" d="M12.207 11.5l1.147 1.146-.707.707-1.147-1.146-1.146 1.147-.707-.707 1.147-1.146-1.147-1.146.707-.707 1.146 1.147 1.146-1.147.707.707-1.146 1.145z" id="notificationFg"/></svg>