<svg xmlns="http://www.w3.org/2000/svg" viewBox="0 0 16 16"><style>.icon-canvas-transparent{opacity:0;fill:#f6f6f6}.icon-vs-out{fill:#f6f6f6}.icon-vs-bg{fill:#424242}.icon-vs-action-blue{fill:#00539c}</style><path class="icon-canvas-transparent" d="M16 16H0V0h16v16z" id="canvas"/><path class="icon-vs-out" d="M16 9.251a2.593 2.593 0 0 1-.981 2.073 2.948 2.948 0 0 1-.979.513 3.666 3.666 0 0 1-1.096.163H10v-1.106l-1.533 1.534-1.403-1.396.323.968H4.279l-.333-1h-.892l-.333 1H0v-1.162L2.279 4H4.72l1.083 3.25 2.675-2.674L10 6.097V4h2.878c.417 0 .795.053 1.124.158.354.112.661.275.911.484.269.222.476.495.611.806.128.292.193.606.193.932 0 .279-.046.55-.135.804a2.595 2.595 0 0 1-.192.413c.196.215.35.469.454.751.103.276.156.581.156.903z" id="outline"/><path class="icon-vs-bg" d="M4 5H3l-2 6h1l.333-1h2.333L5 11h1L4 5zM2.667 9L3.5 6.5 4.333 9H2.667zm12.239-.306a1.277 1.277 0 0 0-.27-.439 1.425 1.425 0 0 0-.426-.308 1.884 1.884 0 0 0-.563-.161V7.77c.158-.05.303-.12.434-.209s.244-.193.338-.312.167-.251.22-.397a1.394 1.394 0 0 0-.031-1.002 1.18 1.18 0 0 0-.336-.439 1.673 1.673 0 0 0-.574-.299 2.67 2.67 0 0 0-.82-.112H11v6h1.944c.282 0 .548-.039.798-.117.25-.078.469-.191.654-.341A1.589 1.589 0 0 0 15 9.251c0-.204-.031-.389-.094-.557zM12 5.824h.629c.343 0 .602.065.779.195a.641.641 0 0 1 .266.55c0 .293-.092.519-.275.678-.184.159-.443.238-.777.238H12V5.824zm1.885 3.777a.823.823 0 0 1-.211.302 1.023 1.023 0 0 1-.355.2 1.532 1.532 0 0 1-.498.073H12V8.31h.732c.404 0 .709.082.914.245a.811.811 0 0 1 .309.672.995.995 0 0 1-.07.374z" id="iconBg"/><path class="icon-vs-action-blue" d="M5.953 8.515L8.479 5.99l.707.707L7.89 8H10v1H7.873l1.3 1.308-.707.707-2.513-2.5z" id="colorAction"/></svg>