<?xml version="1.0" encoding="iso-8859-1"?>
<!-- Generator: Adobe Illustrator 21.0.0, SVG Export Plug-In . SVG Version: 6.00 Build 0)  -->
<svg version="1.1" xmlns="http://www.w3.org/2000/svg" xmlns:xlink="http://www.w3.org/1999/xlink" x="0px" y="0px"
	 viewBox="0 0 16 16" style="enable-background:new 0 0 16 16;" xml:space="preserve">
<style type="text/css">
	.icon_x002D_canvas_x002D_transparent{opacity:0;fill:#F6F6F6;}
	.icon_x002D_vs_x002D_out{fill:#F6F6F6;}
	.icon_x002D_vs_x002D_bg{fill:#424242;}
	.icon_x002D_vs_x002D_fg{fill:#F0EFF1;}
	.icon_x002D_vs_x002D_blue{fill:#1BA1E2;}
	.icon_x002D_vs_x002D_action_x002D_blue{fill:#00539C;}
</style>
<g id="canvas">
	<path id="XMLID_3_" class="icon_x002D_canvas_x002D_transparent" d="M16,16H0V0h16V16z"/>
</g>
<g id="outline">
	<path class="icon_x002D_vs_x002D_out" d="M13,5v0.303C14.698,5.741,16,6.649,16,8v5c0,1.97-2.768,3-5.5,3C7.768,16,5,14.97,5,13V8
		H0l2-2H0V2h2L0,0h6l1,1V0h3v1h1V0h3v1h2v3h-2v1H13z"/>
</g>
<g id="iconBg">
	<path class="icon_x002D_vs_x002D_bg" d="M9,6l1,1V4h1v3l1-1v1l-1.5,1.5L9,7V6z M13,3h-1v1h1V3z M11,2h-1v1h1V2z M14,2v1h1V2H14z
		 M13,1h-1v1h1V1z M9,1H8v1h1V1z"/>
</g>
<g id="iconFg">
	<path class="icon_x002D_vs_x002D_fg" d="M14,8.5c0,0.828-1.566,1.5-3.5,1.5C8.566,10,7,9.328,7,8.5
		c0-0.414,0.392-0.789,1.025-1.061L10.5,9.914l2.475-2.475C13.608,7.711,14,8.086,14,8.5z"/>
</g>
<g id="colorAction">
	<path class="icon_x002D_vs_x002D_action_x002D_blue" d="M8,4L5,7H3l2-2H1V3h4L3,1h2L8,4z"/>
</g>
<g id="colorImportance">
	<path id="XMLID_18_" class="icon_x002D_vs_x002D_blue" d="M13,6.338v1.076l-0.025,0.025C13.608,7.711,14,8.086,14,8.5
		c0,0.828-1.566,1.5-3.5,1.5C8.566,10,7,9.328,7,8.5c0-0.414,0.392-0.789,1.025-1.061L8,7.414V6.338
		C7.814,6.393,7.642,6.457,7.477,6.523L6,8v5c0,1.104,2.015,2,4.5,2c2.485,0,4.5-0.896,4.5-2V8C15,7.307,14.205,6.697,13,6.338z"/>
</g>
</svg>
