<svg xmlns="http://www.w3.org/2000/svg" viewBox="0 0 16 16"><style>.icon-canvas-transparent{opacity:0;fill:#f6f6f6}.icon-vs-out{fill:#f6f6f6}.icon-vs-bg{fill:#424242}.icon-vs-fg{fill:#f0eff1}</style><path class="icon-canvas-transparent" d="M16 16H0V0h16v16z" id="canvas"/><path class="icon-vs-out" d="M15.4 11c-.4.6-1 1-1.8 1h-3.4c.7.8 1.1 1.8 1.2 2.9l.1 1.1H.2l.1-1.1c.2-1.5.9-2.8 2.1-3.7-.6-.8-.9-1.7-.9-2.7C1.4 6 3.4 4 5.9 4c.3 0 .6 0 .9.1l.2-.4V3H6V0h7v3h-1v.7l3.4 5.2c.3.6.4 1.4 0 2.1z" id="outline"/><path class="icon-vs-bg" d="M7.8 11.3c.9-.6 1.5-1.7 1.5-2.9C9.3 6.5 7.8 5 5.9 5S2.4 6.5 2.4 8.4c0 1.2.6 2.2 1.5 2.9-1.5.7-2.5 2-2.7 3.7h1c.2-1.8 1.7-3.1 3.6-3.1 1.8 0 3.3 1.4 3.6 3.1h1c-.1-1.6-1.2-3-2.6-3.7zm-1.9-.4c-1.3 0-2.4-1.1-2.4-2.4C3.4 7.1 4.5 6 5.9 6c1.3 0 2.4 1.1 2.4 2.4 0 1.4-1.1 2.5-2.4 2.5zm7.8.1H9.5c.5-.7.8-1.6.8-2.6 0-.5-.1-1-.3-1.4h1.7L10 4.3V2H9v2.3l-.4.6c-.3-.2-.6-.3-.9-.5L8 4V2H7V1h5v1h-1v2l3.5 5.5c.4.6 0 1.5-.8 1.5z" id="iconBg"/><path class="icon-vs-fg" d="M8.3 8.4c0 1.3-1.1 2.4-2.4 2.4-1.3 0-2.4-1.1-2.4-2.4C3.4 7.1 4.5 6 5.9 6c1.3 0 2.4 1.1 2.4 2.4zm-2.4 3.5c-1.8 0-3.3 1.4-3.6 3.1h7.1c-.2-1.8-1.7-3.1-3.5-3.1zM10.1 7h1.7L10 4.3V2H9v2.3l-.4.6c.7.6 1.2 1.3 1.5 2.1z" id="iconFg"/></svg>