<svg xmlns="http://www.w3.org/2000/svg" width="16" height="16"><style type="text/css">.icon-canvas-transparent{opacity:0;fill:#F6F6F6;} .icon-vs-out{fill:#F6F6F6;} .icon-vs-bg{fill:#424242;}</style><path class="icon-canvas-transparent" d="M16 16h-16v-16h16v16z" id="canvas"/><path class="icon-vs-out" d="M13.861 10c-.888 0-1.763-.512-2.342-.851-.179-.104-.344-.149-.519-.149-.552 0-1 .449-1 1 0 .551.448 1 1 1 .175 0 .34-.045.49-.133.609-.355 1.484-.867 2.371-.867 1.2 0 2.139 1.098 2.139 2.5v2.5h-10v-1.764l-.382.764h-3.236l-2.382-4.764v-1.236h3.618l.382.764 2.382-4.764h1.795c-.113-.317-.177-.653-.177-1 0-1.654 1.346-3 3-3s3 1.346 3 3c0 .745-.271 1.449-.764 2h2.764v2.5c0 1.402-.939 2.5-2.139 2.5z" id="outline"/><path class="icon-vs-bg" d="M9 10c0 1.104.896 2 2 2 .363 0 .702-.098.994-.269.497-.29 1.238-.731 1.867-.731s1.139.672 1.139 1.5v1.5h-8v-2.764l2.618-5.236h.412c.152-.302.153-.594.034-.894l.554-1.106h-1.341c-.172-.295-.277-.634-.277-1 0-1.104.896-2 2-2s2 .896 2 2c0 .553-.225 1.053-.587 1.415-.563.564-.709 1.058-.442 1.585h3.029v1.5c0 .828-.51 1.5-1.139 1.5s-1.37-.441-1.867-.731c-.292-.171-.631-.269-.994-.269-1.104 0-2 .896-2 2zm-2-5l-3 6-1-2h-2l2 4h2l4-8h-2z" id="iconBg"/></svg>