<svg xmlns="http://www.w3.org/2000/svg" width="16" height="16"><style type="text/css">.icon-canvas-transparent{opacity:0;fill:#F6F6F6;} .icon-vs-out{fill:#F6F6F6;} .icon-vs-bg{fill:#424242;} .icon-vs-fg{fill:#F0EFF1;}</style><path class="icon-canvas-transparent" d="M16 16h-16v-16h16v16z" id="canvas"/><path class="icon-vs-out" d="M16 0v16h-16v-16h16z" id="outline"/><path class="icon-vs-bg" d="M1 1v14h14v-14h-14zm13 13h-12v-12h12v12zm-5-6h2l2.517 2.5-2.517 2.5h-2l2-2h-5v-1h5l-2-2zm-4 0l-2.483-2.5 2.483-2.5h2l-2 2h5v1h-5l2 2h-2z" id="iconBg"/><path class="icon-vs-fg" d="M2 2v12h12v-12h-12zm.517 3.5l2.483-2.5h2l-2 2h5v1h-5l2 2h-2l-2.483-2.5zm8.483 7.5h-2l2-2h-5v-1h5l-2-2h2l2.517 2.5-2.517 2.5z" id="iconFg"/></svg>