<svg xmlns="http://www.w3.org/2000/svg" width="16" height="16"><style type="text/css">.icon-canvas-transparent{opacity:0;fill:#F6F6F6;} .icon-vs-out{fill:#F6F6F6;} .icon-vs-bg{fill:#424242;} .icon-vs-fg{fill:#F0EFF1;}</style><path class="icon-canvas-transparent" d="M16 16h-16v-16h16v16z" id="canvas"/><path class="icon-vs-out" d="M0 16v-6h3.879l6.121-6.121v-3.879h6v6h-3.879l-6.121 6.121v3.879h-6z" id="outline"/><path class="icon-vs-bg" d="M11 1v3.293l-6.707 6.707h-3.293v4h4v-3.293l6.707-6.707h3.293v-4h-4zm-7 13h-2v-2h2v2zm10-10h-2v-2h2v2z" id="iconBg"/><path class="icon-vs-fg" d="M14 4h-2v-2h2v2zm-10 8h-2v2h2v-2z" id="iconFg"/></svg>