<svg xmlns="http://www.w3.org/2000/svg" viewBox="0 0 16 16"><style>.icon-canvas-transparent{opacity:0;fill:#f6f6f6}.icon-vs-out{fill:#f6f6f6}.icon-vs-bg{fill:#424242}.icon-vs-fg{fill:#f0eff1}.icon-vs-action-blue{fill:#00539c}</style><path class="icon-canvas-transparent" d="M16 16H0V0h16v16z" id="canvas"/><path class="icon-vs-out" d="M16 0v13H7v2H1V8h.556L.409 6.854 0 6.559V5.417l1.431-1.431.569.57V3.5C2 1.57 3.57 0 5.5 0c.03 0 .058.006.087.006C5.609.004 5.629 0 5.651 0c.119 0 .232.023.349.035V0h10z" id="outline"/><path class="icon-vs-bg" d="M4.444 9H6v1H2V9h2.444zM4 11H2v1h2v-1zm-2 3h4v-1H2v1zm7-4h4V9H9v1zM7.942 1c.139.136.261.286.376.443.006.01.015.017.021.027.12.166.221.344.31.53H14v9H8V5H7v.333l.556.556L7 6.444V12h8V1H7.942zM9 7v1h2V7H9zm4-4H9v1h4V3zm-2 3V5H9v1h2zm2-1h-1v1h1V5z" id="iconBg"/><path class="icon-vs-fg" d="M8.649 2c.218.456.351.961.351 1.5V3h4v1H9v1h2v1H9V5H8v6h6V2H8.649zM9 7h2v1H9V7zm4 3H9V9h4v1zm0-4h-1V5h1v1z" id="iconFg"/><path class="icon-vs-action-blue" d="M8 3.5V4H7v-.5C7 2.673 6.327 2 5.5 2S4 2.673 4 3.5v3.14l1.45-1.442.691.691.009.009-2.636 2.649L.911 5.944l.001-.001L.9 5.931l.71-.687L3 6.625V3.5a2.5 2.5 0 1 1 5 0z" id="colorAction"/></svg>