<svg xmlns="http://www.w3.org/2000/svg" width="16" height="16"><style type="text/css">.icon-canvas-transparent{opacity:0;fill:#F6F6F6;} .icon-vs-out{fill:#F6F6F6;} .icon-vs-bg{fill:#424242;} .icon-vs-fg{fill:#F0EFF1;}</style><path class="icon-canvas-transparent" d="M16 16h-16v-16h16v16z" id="canvas"/><path class="icon-vs-out" d="M16 12h-2v4h-14v-12h2v-4h14v12z" id="outline"/><path class="icon-vs-bg" d="M3 1v4h-2v10h12v-4h2v-10h-12zm9 13h-10v-8h10v8zm2-4h-1v-5h-2v-1h-4l1-1h-1.5l-1.5 1.5.5.5h-1.5v-3h10v8zm-6 0h1.5l1.5 1.5-1.5 1.5h-1.5l1-1h-4v-1h4l-1-1zm-3.5 0l-1.5-1.5 1.5-1.5h1.5l-1 1h4v1h-4l1 1h-1.5z" id="iconBg"/><path class="icon-vs-fg" d="M2 14h10v-8h-10v8zm9-2.5l-1.5 1.5h-1.5l1-1h-4v-1h4l-1-1h1.5l1.5 1.5zm-6.5-4.5h1.5l-1 1h4v1h-4l1 1h-1.5l-1.5-1.5 1.5-1.5zm9.5-5v8h-1v-5h-2v-1h-4l1-1h-1.5l-1.5 1.5.5.5h-1.5v-3h10z" id="iconFg"/></svg>