<svg xmlns="http://www.w3.org/2000/svg" width="16" height="16"><style type="text/css">.icon-canvas-transparent{opacity:0;fill:#F6F6F6;} .icon-vs-out{fill:#F6F6F6;} .icon-vs-bg{fill:#424242;}</style><path class="icon-canvas-transparent" d="M16 16h-16v-16h16v16z" id="canvas"/><path class="icon-vs-out" d="M8.004 11.229l-1.217 2.226-3.383-2.339 1.656-2.005-2.402-.409 1.395-3.912 2.135.89-.279-2.68h4.183l-.279 2.68 2.134-.89 1.394 3.91-2.39.411 1.637 2.002-3.341 2.342-1.243-2.226z" id="outline"/><path class="icon-vs-bg" d="M9.091 8.416l2.041 2.496-1.552 1.088-1.585-2.84-1.553 2.84-1.573-1.088 2.063-2.496-2.932-.499.641-1.797 2.715 1.132-.337-3.252h1.964l-.337 3.251 2.714-1.132.64 1.798-2.909.499z" id="iconBg"/></svg>