<svg id="Layer_1" xmlns="http://www.w3.org/2000/svg" viewBox="0 0 16 16"><style>.icon-asx-grey{fill:#717171}</style><path class="icon-asx-grey" d="M16 10c0 1.654-1.346 3-3 3H7c-1.654 0-3-1.346-3-3s1.346-3 3-3h3c0 .551-.449 1-1 1H7c-1.103 0-2 .897-2 2s.897 2 2 2h6c1.103 0 2-.897 2-2s-.897-2-2-2h-.142c.084-.322.142-.653.142-1 1.654 0 3 1.346 3 3zM1 7c0-1.103.897-2 2-2h6c1.103 0 2 .897 2 2s-.897 2-2 2H7c-.551 0-1 .449-1 1h3c1.654 0 3-1.346 3-3s-1.346-3-3-3H3C1.346 4 0 5.346 0 7s1.346 3 3 3c0-.347.058-.678.142-1H3c-1.103 0-2-.897-2-2z"/></svg>