<svg xmlns="http://www.w3.org/2000/svg" width="16" height="16"><style type="text/css">.icon-canvas-transparent{opacity:0;fill:#F6F6F6;} .icon-vs-out{fill:#F6F6F6;} .icon-vs-bg{fill:#424242;} .icon-vs-fg{fill:#F0EFF1;} .icon-vs-yellow{fill:#FFCC00;}</style><path class="icon-canvas-transparent" d="M16 16h-16v-16h16v16z" id="canvas"/><path class="icon-vs-out" d="M13.775 8.361l2.225 2.225v1.828l-.528.528.528 1.058-1 2h-7l-.554-1.108c-.8.703-1.834 1.108-2.946 1.108-2.481 0-4.5-2.019-4.5-4.5 0-2.482 2.019-4.5 4.5-4.5 1.057 0 2.043.362 2.826 1h1.361c-.348-.283-.662-.615-.917-1h-6.184l-1.586-1.586v-1.828l2.586-2.586h6.088c.783-.638 1.77-1 2.826-1 2.481 0 4.5 2.018 4.5 4.5 0 1.648-.9 3.077-2.225 3.861z" id="outline"/><path class="icon-vs-bg" d="M4 10c.552 0 1 .447 1 1s-.448 1-1 1-1-.447-1-1 .448-1 1-1zm11 2v-1l-1-1 1 2zm-7-3v1h-.35c-.563-1.179-1.756-2-3.15-2-1.933 0-3.5 1.566-3.5 3.5s1.567 3.5 3.5 3.5c1.024 0 1.937-.445 2.574-1.148l.926-1.852h-1.051c-.231 1.141-1.239 2-2.449 2-1.381 0-2.5-1.119-2.5-2.5s1.119-2.5 2.5-2.5c1.21 0 2.218.859 2.449 2h1.551l.833-1.667-.333-.333h-1zm4.862-1.275l-.362-.725h-2l-.358.717c-.786-.336-1.425-.947-1.792-1.717h-6.35l-1-1v-1l2-2h1v1l1-1h1v1l1-1h1v1h.35c.563-1.179 1.756-2 3.15-2 1.934 0 3.5 1.567 3.5 3.5 0 1.45-.881 2.694-2.138 3.225zm.138-3.725c0-.552-.447-1-1-1s-1 .448-1 1 .447 1 1 1 1-.448 1-1z" id="iconBg"/><path class="icon-vs-fg" d="M6.949 11c-.231-1.141-1.239-2-2.449-2-1.381 0-2.5 1.119-2.5 2.5s1.119 2.5 2.5 2.5c1.21 0 2.218-.859 2.449-2h1.051l.5-1h-1.551zm-2.949 1c-.553 0-1-.448-1-1s.447-1 1-1 1 .448 1 1-.447 1-1 1zm9-8c0 .552-.447 1-1 1s-1-.448-1-1 .447-1 1-1 1 .448 1 1z" id="iconFg"/><path class="icon-vs-yellow" d="M11.891 8.016h-.781l-3.016 6 .515.984h5.766l.484-1-2.968-5.984zm.109 5.984h-1v-1h1v1zm0-2h-1v-2h1v2z" id="notificationBg"/><path class="icon-black" d="M11 13h1v1h-1v-1zm0-3v2h1v-2h-1z" id="notificationFg"/></svg>