<svg xmlns="http://www.w3.org/2000/svg" width="16" height="16"><style type="text/css">.icon-canvas-transparent{opacity:0;fill:#F6F6F6;} .icon-vs-out{fill:#F6F6F6;} .icon-vs-bg{fill:#424242;} .icon-vs-fg{fill:#F0EFF1;} .icon-vs-red{fill:#E51400;} .icon-white{fill:#FFFFFF;}</style><path class="icon-canvas-transparent" d="M16 16h-16v-16h16v16z" id="canvas"/><path class="icon-vs-out" d="M15.864 10.45l.136.136v1.828l-.136.136c-.474 1.976-2.243 3.45-4.364 3.45-1.42 0-2.672-.672-3.497-1.699-.841 1.062-2.109 1.699-3.503 1.699-2.481 0-4.5-2.019-4.5-4.5 0-2.482 2.019-4.5 4.5-4.5 1.057 0 2.043.362 2.826 1h1.361c-.348-.283-.662-.615-.917-1h-6.184l-1.586-1.586v-1.828l2.586-2.586h6.088c.783-.638 1.77-1 2.826-1 2.481 0 4.5 2.018 4.5 4.5 0 1.421-.672 2.677-1.705 3.499.769.614 1.332 1.464 1.569 2.451z" id="outline"/><path class="icon-vs-bg" d="M5 11c0 .553-.448 1-1 1s-1-.447-1-1 .448-1 1-1 1 .447 1 1zm2.05 1h-.101c-.231 1.141-1.239 2-2.449 2-1.381 0-2.5-1.119-2.5-2.5s1.119-2.5 2.5-2.5c1.21 0 2.218.859 2.449 2h.101c.055-.492.178-.96.379-1.391-.621-.964-1.696-1.609-2.929-1.609-1.933 0-3.5 1.566-3.5 3.5s1.567 3.5 3.5 3.5c1.234 0 2.308-.644 2.929-1.609-.2-.431-.324-.899-.379-1.391zm1.3-6h-6.35l-1-1v-1l2-2h1v1l1-1h1v1l1-1h1v1h.35c.563-1.179 1.756-2 3.15-2 1.934 0 3.5 1.567 3.5 3.5 0 1.232-.64 2.31-1.601 2.934-.579-.271-1.217-.434-1.899-.434-.681 0-1.319.163-1.898.434-.538-.352-.973-.849-1.252-1.434zm2.65-2c0 .552.447 1 1 1s1-.448 1-1-.447-1-1-1-1 .448-1 1z" id="iconBg"/><path class="icon-vs-fg" d="M7 11.5c0-.171.032-.334.05-.5h-.101c-.231-1.141-1.239-2-2.449-2-1.381 0-2.5 1.119-2.5 2.5s1.119 2.5 2.5 2.5c1.21 0 2.218-.859 2.449-2h.101c-.018-.166-.05-.329-.05-.5zm-3 .5c-.553 0-1-.448-1-1s.447-1 1-1 1 .448 1 1-.447 1-1 1z" id="iconFg"/><path class="icon-vs-red" d="M11.5 8.001c-1.933 0-3.5 1.566-3.5 3.5 0 1.932 1.568 3.5 3.5 3.5 1.933 0 3.5-1.568 3.5-3.5 0-1.934-1.567-3.5-3.5-3.5m1.854 4.645l-.707.707-1.147-1.146-1.146 1.147-.707-.707 1.147-1.145-1.147-1.148.707-.707 1.146 1.147 1.146-1.147.707.707-1.147 1.148 1.148 1.144z" id="notificationBg"/><path class="icon-white" d="M12.207 11.5l1.147 1.146-.707.707-1.147-1.146-1.146 1.147-.707-.707 1.147-1.146-1.147-1.146.707-.707 1.146 1.147 1.146-1.147.707.707-1.146 1.145z" id="notificationFg"/></svg>