<svg xmlns="http://www.w3.org/2000/svg" width="16" height="16"><style type="text/css">.icon-canvas-transparent{opacity:0;fill:#F6F6F6;} .icon-vs-out{fill:#F6F6F6;} .icon-vs-bg{fill:#424242;} .icon-vs-fg{fill:#F0EFF1;}</style><path class="icon-canvas-transparent" d="M16 16h-16v-16h16v16z" id="canvas"/><path class="icon-vs-out" d="M2 13.726c-.947-.955-1.899-2.391-2-4.008v-.471c.104-2.424 2.053-4.452 4-5.089v-2.158c0-1.299 1.039-2 2.005-2h6.044l3.951 3.556v12.444h-14v-2.274z" id="outline"/><path class="icon-vs-bg" d="M15 4v4h-1v-3h-3v-3h-5v2.025l-.473-.038c-.178 0-.353.01-.527.027v-2.014c0-1 .964-1 .964-1h5.677l3.359 3zm-9.473.987c-2.485 0-4.5 2.015-4.5 4.5l.02.389.045.341.002.013c.125.757.451 1.441.906 2.018v-1.675l-.018-.042.018.005v-.742l-.156-.047-.014-.26c0-.355.071-.69.169-1.015v-.472h7.749c-.615-1.749-2.26-3.013-4.221-3.013zm-1.81 2.671c-.444-.079-.851-.176-1.223-.281.417-.598 1.006-1.064 1.694-1.332-.187.465-.357.999-.471 1.613zm1.814.171c-.386-.004-.759-.03-1.119-.071.15-.782.398-1.424.644-1.934.154-.02.311-.033.471-.033l.313.016c.302.522.607 1.187.786 1.997-.368.025-.729.029-1.095.025zm1.794-.106c-.138-.662-.354-1.233-.589-1.725.757.262 1.4.758 1.844 1.406-.442.152-.857.258-1.255.319zm-4.247 1.277v6h11.969v-6h-11.969zm3 5l-.25-1h-.5l-.25 1h-1l1-4h1l1 4h-1zm4.639-3h-1v3h-.967v-3h-1.033v-1h3v1zm3.33 3h-2v-4h1v3h1v1zm-8.25-1.785l-.188-1.188-.236 1.188" id="iconBg"/><path class="icon-vs-fg" d="M5.078 10l-1 4h1l.25-.969h.5l.25.969h1l-1-4h-1zm.295 2.215l.236-1.188.188 1.188h-.424zm2.344-2.215h3v1.027h-1v2.973h-1v-2.973h-1v-1.027zm6.33 2.926v1.1h-2v-4.026h1v2.926h1zm-.047-7.926v3h-3.191l-.117-.332c-.721-2.049-2.573-3.456-4.692-3.643v-2.025h5v3h3z" id="iconFg"/></svg>