<svg xmlns="http://www.w3.org/2000/svg" width="16" height="16"><style type="text/css">.icon-canvas-transparent{opacity:0;fill:#F6F6F6;} .icon-vs-out{fill:#F6F6F6;} .icon-vs-bg{fill:#424242;} .icon-vs-fg{fill:#F0EFF1;}</style><path class="icon-canvas-transparent" d="M16 16h-16v-16h16v16z" id="canvas"/><path class="icon-vs-out" d="M16 15h-2v1h-14v-15h16v14z" id="outline"/><path class="icon-vs-bg" d="M15 2v12h-1v-9h-12v3h-1v-6h14zm-11.674 10.215h.424l-.188-1.188-.236 1.188zm9.674-3.215v6h-11.969v-6h11.969zm-7.969 5l-1-4h-1l-1 4h1l.25-1h.5l.25 1h1zm3.639-4h-3v1h1.033v3h.967v-3h1v-1zm3.338 3h-1v-3h-1.008v4h2.008v-1z" id="iconBg"/><path class="icon-vs-fg" d="M14 5v3h-12v-3h12zm-6.33 6v3h-.967v-3h-1.033v-1h3v1h-1zm-3.639-1l1 4h-1l-.25-1h-.5l-.25 1h-1l1-4h1zm-.281 2.215l-.188-1.188-.236 1.188h.424zm7.258.785v-3h-1.008v4h2.008v-1h-1z" id="iconFg"/></svg>