<svg xmlns="http://www.w3.org/2000/svg" width="16" height="16"><style type="text/css">.icon-canvas-transparent{opacity:0;fill:#F6F6F6;} .icon-vs-out{fill:#F6F6F6;} .icon-vs-bg{fill:#424242;} .icon-vs-fg{fill:#F0EFF1;}</style><path class="icon-canvas-transparent" d="M16 16h-16v-16h16v16z" id="canvas"/><path class="icon-vs-out" d="M14 9.414v.172l2 2v.828l-2 2v1.586h-14v-8h1.586l-1.586-1.586v-.829l5.586-5.585h.828l4 4-1 1h2.172l1.414-1.414 3 3v.828l-2 2z" id="outline"/><path class="icon-vs-bg" d="M3 8l-2-2 5-5 3 3-2 2h5l1-1 2 2-1 1h-4l1-1h-2v1h-1v-1h-2l-1 1h-2zm11 5l1-1-1-1v2zm-1.031-4v6h-11.969v-6h11.969zm-7.969 5l-1-4h-1l-1 4h1l.25-1h.5l.25 1h1zm3.639-4h-3v1h1.033v3h.967v-3h1v-1zm3.338 3h-1v-3h-1.008v4h2.008v-1zm-8.446-1.973l-.236 1.188h.424l-.188-1.188z" id="iconBg"/><path class="icon-vs-fg" d="M7.639 11v3h-.967v-3h-1.033v-1h3v1h-1zm4.353 2h-.992v-3h-1v4h2v-1h-.008zm-6.992 1h-1l-.25-1h-.5l-.25 1h-1l1-4h1l1 4zm-1.281-1.785l-.188-1.188-.236 1.188h.424z" id="iconFg"/></svg>