<svg xmlns="http://www.w3.org/2000/svg" width="16" height="16"><style type="text/css">.icon-canvas-transparent{opacity:0;fill:#F6F6F6;} .icon-vs-out{fill:#F6F6F6;} .icon-vs-bg{fill:#424242;} .icon-vs-fg{fill:#F0EFF1;}</style><path class="icon-canvas-transparent" d="M16 16h-16v-16h16v16z" id="canvas"/><path class="icon-vs-out" d="M16 0v16h-10v-7.275c-.471.167-.971.275-1.5.275-2.485 0-4.5-2.015-4.5-4.5s2.015-4.5 4.5-4.5c.529 0 1.029.108 1.5.275v-.275h10z" id="outline"/><path class="icon-vs-bg" d="M7.297 1c1.03.825 1.703 2.078 1.703 3.5 0 1.56-.794 2.933-2 3.74v6.76h8v-14h-7.703zm5.703 12h-1v-1h1v1zm0-7h-4v-1h4v1zm0-2h-4v-1h4v1zm-8.5-3c-1.933 0-3.5 1.567-3.5 3.5s1.567 3.5 3.5 3.5 3.5-1.567 3.5-3.5-1.567-3.5-3.5-3.5zm0 6c-1.381 0-2.5-1.119-2.5-2.5s1.119-2.5 2.5-2.5 2.5 1.119 2.5 2.5-1.119 2.5-2.5 2.5zm.5-3h1v1h-1v1h-1v-1h-1v-1h1v-1h1v1z" id="iconBg"/><path class="icon-vs-fg" d="M12 12h1v1h-1v-1zm-3-9v1h4v-1h-4zm0 3h4v-1h-4v1zm-2-1.5c0 1.381-1.119 2.5-2.5 2.5s-2.5-1.119-2.5-2.5 1.119-2.5 2.5-2.5 2.5 1.119 2.5 2.5zm-1-.5h-1v-1h-1v1h-1v1h1v1h1v-1h1v-1z" id="iconFg"/></svg>