<svg xmlns="http://www.w3.org/2000/svg" width="16" height="16"><style type="text/css">.icon-canvas-transparent{opacity:0;fill:#F6F6F6;} .icon-vs-out{fill:#F6F6F6;} .icon-vs-bg{fill:#424242;} .icon-vs-fg{fill:#F0EFF1;}</style><path class="icon-canvas-transparent" d="M16 16h-16v-16h16v16z" id="canvas"/><path class="icon-vs-out" d="M16 16h-16v-16h16v16z" id="outline"/><path class="icon-vs-bg" d="M13 7h-5v-2h5v2zm-6-2h-4v1h4v-1zm-6-4v7h1v-4h12v11h1v-14h-14zm0 8v6h11.969v-6h-11.969zm3 5l-.25-1h-.5l-.25 1h-1l1-4h1l1 4h-1zm4.639-3h-1v3h-.967v-3h-1.033v-1h3v1zm3.338 3h-2.008v-4h1.008v3h1v1zm-8.446-2.973l-.236 1.188h.424l-.188-1.188z" id="iconBg"/><path class="icon-vs-fg" d="M2 4v4h12v-4h-12zm5 2h-4v-1h4v1zm6 1h-5v-2h5v2zm-5.361 4v3h-.967v-3h-1.033v-1h3v1h-1zm4.361 2v1h-2v-4h1v3h1zm-8-3h-1l-1 4h1l.25-1h.5l.25 1h1l-1-4zm-.705 2.215l.236-1.188.188 1.188h-.424z" id="iconFg"/></svg>