<svg xmlns="http://www.w3.org/2000/svg" width="16" height="16"><style type="text/css">.icon-canvas-transparent{opacity:0;fill:#F6F6F6;} .icon-vs-out{fill:#F6F6F6;} .icon-vs-bg{fill:#424242;} .icon-vs-fg{fill:#F0EFF1;}</style><path class="icon-canvas-transparent" d="M16 16h-16v-16h16v16z" id="canvas"/><path class="icon-vs-out" d="M14 4.556v11.444h-14v-8h2v-5c0-1.299 1.03-2 2-2h6.061l3.939 3.556z" id="outline"/><path class="icon-vs-bg" d="M1 9v6h11.969v-6h-11.969zm3 5l-.25-1h-.5l-.25 1h-1l1-4h1l1 4h-1zm4.639-3h-1v3h-.967v-3h-1.033v-1h3v1zm3.338 3h-2.008v-4h1.008v3h1v1zm-8.258-1.785h-.424l.236-1.188.188 1.188zm-.719-4.215v-5c0-1 .964-1 .964-1h5.677l3.359 3v3h-1v-2h-3v-3h-5v5h-1z" id="iconBg"/><path class="icon-vs-fg" d="M7.639 11v3h-.967v-3h-1.033v-1h3v1h-1zm4.353 2h-.992v-3h-1v4h2v-1h-.008zm-6.992 1h-1l-.25-1h-.5l-.25 1h-1l1-4h1l1 4zm-1.281-1.785l-.188-1.188-.236 1.188h.424zm8.281-4.215v-2h-3v-3h-5v5h8z" id="iconFg"/></svg>