<svg xmlns="http://www.w3.org/2000/svg" width="16" height="16"><style type="text/css">.icon-canvas-transparent{opacity:0;fill:#F6F6F6;} .icon-vs-out{fill:#F6F6F6;} .icon-vs-bg{fill:#424242;} .icon-vs-fg{fill:#F0EFF1;}</style><path class="icon-canvas-transparent" d="M16 16h-16v-16h16v16z" id="canvas"/><path class="icon-vs-out" d="M14 8.975v7.025h-14v-8h4.585l1.615-1.615c-.133-.451-.2-.916-.2-1.385 0-2.758 2.243-5 5-5 .703 0 1.394.15 2.052.447l1.319.596-2.957 2.957.586.586 2.957-2.957.595 1.318c.298.659.448 1.35.448 2.053 0 1.627-.792 3.062-2 3.975z" id="outline"/><path class="icon-vs-bg" d="M7.359 6.641c-.226-.502-.359-1.055-.359-1.641 0-2.209 1.791-4 4-4 .586 0 1.139.133 1.641.359l-2.641 2.641 2 2 2.641-2.641c.226.502.359 1.055.359 1.641 0 1.202-.541 2.267-1.38 3h-7.62l1.359-1.359zm-4.156 5.574h.672l-.32-1.293-.352 1.293zm-2.203-3.215v6h12v-6h-12zm3.023 5l-.25-.969h-.5l-.25.969h-1l1-4h1l1 4h-1zm4.67-2.973h-1v2.973h-1v-2.973h-1v-1.027h3v1.027zm3.33 2.998h-2v-4.025h1v2.926h1v1.099zm-8.148-1.81l-.32-1.293-.352 1.293h.672z" id="iconBg"/><path class="icon-vs-fg" d="M3.023 10l-1 4h1l.25-.969h.5l.25.969h1l-1-4h-1zm.18 2.215l.352-1.293.32 1.293h-.672zm2.49-2.215h3v1.027h-1v2.973h-1v-2.973h-1v-1.027zm6.33 2.926v1.1h-2v-4.026h1v2.926h1z" id="iconFg"/></svg>