<svg xmlns="http://www.w3.org/2000/svg" width="16" height="16"><style type="text/css">.icon-canvas-transparent{opacity:0;fill:#F6F6F6;} .icon-vs-out{fill:#F6F6F6;} .icon-vs-bg{fill:#424242;} .icon-vs-fg{fill:#F0EFF1;}</style><path class="icon-canvas-transparent" d="M16 16h-16v-16h16v16z" id="canvas"/><path class="icon-vs-out" d="M15 0v16h-15v-8h2v-8h13z" id="outline"/><path class="icon-vs-bg" d="M14 6v2h-11v-2h11zm0-5v4h-11v-4h11zm-1 2h-2v1h2v-1zm-.016 5.98v6h-11.968v-6h11.968zm-7.968 5.001l-1-4h-1l-1 4h1l.25-1h.5l.25 1h1zm3.638-4.001h-3v1h1.033v3h.967v-3h1v-1zm3.33 3.001h-1v-3h-1v4h2v-1zm-8.125-.786l-.32-1.293-.352 1.293h.672z" id="iconBg"/><path class="icon-vs-fg" d="M3.008 9.98l-1 4h1l.25-.969h.5l.25.969h1l-1-4h-1zm.18 2.215l.352-1.293.32 1.293h-.672zm2.49-2.215h3v1.027h-1v2.973h-1v-2.973h-1v-1.027zm6.33 2.926v1.1h-2v-4.026h1v2.926h1zm.992-8.906h-2v-1h2v1z" id="iconFg"/></svg>