<svg xmlns="http://www.w3.org/2000/svg" width="16" height="16"><style type="text/css">.icon-canvas-transparent{opacity:0;fill:#F6F6F6;} .icon-vs-out{fill:#F6F6F6;} .icon-vs-bg{fill:#424242;} .icon-vs-fg{fill:#F0EFF1;}</style><path class="icon-canvas-transparent" d="M16 16h-16v-16h16v16z" id="canvas"/><path class="icon-vs-out" d="M14 0v16h-14v-8h2v-8h12z" id="outline"/><path class="icon-vs-bg" d="M3 8v-7h10v7h-2v-5h-6v5h-2zm9.992 1v6h-11.969v-6h11.969zm-7.969 5l-1-4h-1l-1 4h1l.25-1h.5l.25 1h1zm3.639-4h-3v1h1.033v3h.967v-3h1v-1zm3.33 3h-1v-3h-1v4h2v-1zm-8.25-.785l-.188-1.188-.236 1.188" id="iconBg"/><path class="icon-vs-fg" d="M5 8v-5h6v5h-6zm-.977 2l1 4h-1l-.25-.969h-.5l-.25.969h-1l1-4h1zm-.281 2.215l-.188-1.188-.236 1.188h.424zm1.92-1.188h1v2.973h1v-2.973h1v-1.027h-3v1.027zm5.33 1.899v-2.926h-1v4.025h2v-1.1h-1z" id="iconFg"/></svg>