<svg xmlns="http://www.w3.org/2000/svg" width="16" height="16"><style type="text/css">.icon-canvas-transparent{opacity:0;fill:#F6F6F6;} .icon-vs-out{fill:#F6F6F6;} .icon-vs-bg{fill:#424242;} .icon-vs-fg{fill:#F0EFF1;}</style><path class="icon-canvas-transparent" d="M16 16h-16v-16h16v16z" id="canvas"/><path class="icon-vs-out" d="M16 4.007v3.003c-.242.833-.661 1.612-1.281 2.257l-.719.752v5.981h-14v-8h1v-2h1v-1h-1v-3h5v.64c.98-1.565 2.73-2.615 4.71-2.615 2.522 0 4.636 1.672 5.29 3.982z" id="outline"/><path class="icon-vs-bg" d="M3 5h2v1h-2v-1zm-1-1h3v-1h-3v1zm0 4h3v-1h-3v1zm10.969 1v6h-11.969v-6h11.969zm-7.969 5l-1-4h-1l-1 4h1l.25-1h.5l.25 1h1zm3.639-4h-3v1h1.033v3h.967v-3h1v-1zm3.33 3h-1v-3h-1v4h2v-1zm-5.904-6.771l.002.013c.107.645.359 1.237.709 1.758h1.018c-.38-.411-.676-.903-.839-1.456.513.157 1.101.31 1.765.415.067.344.158.691.267 1.041h.733c-.106-.318-.2-.634-.269-.945.336.033.686.057 1.045.059l.259.002c.224 0 .45-.006.678-.018-.089.287-.203.59-.329.902h.756c.13-.336.24-.66.326-.97.574-.073 1.186-.22 1.855-.472-.163.547-.455 1.034-.832 1.442h1.02c.481-.716.771-1.572.771-2.5l-.008-.153c-.081-2.413-2.057-4.347-4.492-4.347-2.485 0-4.5 2.015-4.5 4.5l.02.389.045.34zm7.833-2.185c.19.446.299.938.299 1.456l-.012.24c-.668.291-1.269.465-1.831.555.07-.393.108-.768.104-1.12-.003-.258-.024-.502-.05-.743.467-.073.961-.198 1.49-.388zm-.345-.627c-.441.152-.856.258-1.255.319-.138-.662-.354-1.233-.589-1.725.757.261 1.4.758 1.844 1.406zm-3.524-1.58c.154-.02.311-.033.471-.033l.313.016c.302.522.607 1.187.786 1.997-.367.025-.729.029-1.095.025-.386-.004-.759-.03-1.119-.071.15-.782.398-1.424.644-1.934zm-.742 2.607c.542.126 1.978.111 2.424.044.025.219.044.452.046.683.004.372-.044.778-.135 1.208-.376.025-.744.037-1.118.035-.41-.006-.802-.035-1.182-.079-.054-.392-.082-.778-.078-1.153.002-.247.019-.507.043-.738zm-.126-2.386c-.186.465-.356 1-.471 1.613-.444-.079-.851-.176-1.223-.281.417-.598 1.006-1.065 1.694-1.332zm-2.047 1.962c.44.13.932.253 1.478.346-.027.262-.046.528-.049.81-.004.342.021.694.062 1.051-.691-.126-1.288-.299-1.788-.467l-.013-.26c0-.526.112-1.026.31-1.48zm-3.364 8.28l-.25-1.3-.25 1.3" id="iconBg"/><path class="icon-vs-fg" d="M3 10l-1 4h1l.25-.969h.5l.25.969h1l-1-4h-1zm.295 2.22l.205-1.22.219 1.22h-.424zm2.344-2.22h3v1.027h-1v2.973h-1v-2.973h-1v-1.027zm6.33 2.926v1.1h-2v-4.026h1v2.926h1z" id="iconFg"/></svg>