<svg xmlns="http://www.w3.org/2000/svg" viewBox="0 0 16 16"><style>.icon-canvas-transparent{opacity:0;fill:#f6f6f6}.icon-vs-out{fill:#f6f6f6}.icon-vs-bg{fill:#424242}.icon-vs-fg{fill:#f0eff1}.icon-css-red{fill:#bd1e2d}</style><g id="canvas"><path id="XMLID_9_" class="icon-canvas-transparent" d="M16 16H0V0h16v16z"/></g><g id="outline"><path id="XMLID_11_" class="icon-vs-out" d="M16 4.6V14c0 1-.7 2-2 2H4c-1 0-2-.7-2-2V8H0V3.3C0 2.2.8 1 2 .4V0h9.4L16 4.6z"/></g><path class="icon-vs-bg" d="M2 7H1V3.3C1 2.4 2 1 3.5 1S6 2.4 6 3.3v4.3C6 9 4.5 9 4.5 9S3 9 3 7.6V3h1v4.6s0 .4.5.4.5-.4.5-.4V3.3C5 3 5 2 3.5 2S2 3.2 2 3.3V7zm13-2v9s0 1-1 1H4s-1 0-1-1V9.5c.3.2.7.3 1 .4V14h10V5h-3V2H6.7c-.2-.4-.5-.7-.8-1H11l4 4z" id="iconBg"/><path class="icon-vs-fg" d="M11 5V2H6.7c.2.4.3.9.3 1.3v4.3C7 9.4 5.5 10 4.5 10c-.1 0-.3 0-.5-.1V14h10V5h-3zm2 8h-1v-2H8.7L7 13H6l6-7h1v7zm-3.4-3L12 7.2V10H9.6z" id="iconFg"/><path class="icon-css-red" d="M12 6l-6 7h1l1.7-2H12v2h1V6h-1zm0 4H9.6L12 7.2V10z" id="colorImportance"/></svg>