<?xml version="1.0" encoding="utf-8"?>
<!-- Generator: Adobe Illustrator 20.0.0, SVG Export Plug-In . SVG Version: 6.00 Build 0)  -->
<svg version="1.1" xmlns="http://www.w3.org/2000/svg" xmlns:xlink="http://www.w3.org/1999/xlink" x="0px" y="0px"
	 viewBox="0 0 16 16" style="enable-background:new 0 0 16 16;" xml:space="preserve">
<style type="text/css">
	.icon_x002D_canvas_x002D_transparent{opacity:0;fill:#F6F6F6;}
	.icon_x002D_vs_x002D_bg{fill:#424242;}
</style>
<g id="canvas">
	<path class="icon_x002D_canvas_x002D_transparent" d="M16,16H0V0h16V16z"/>
</g>
<g id="iconBg">
	<path class="icon_x002D_vs_x002D_bg" d="M12,3v9.5c0,1.93-1.57,3.5-3.5,3.5C6.57,16,5,14.43,5,12.5v-10C5,1.122,6.122,0,7.5,0
		S10,1.122,10,2.5v10c0,0.827-0.673,1.5-1.5,1.5S7,13.327,7,12.5V4h1v8.5C8,12.775,8.224,13,8.5,13S9,12.775,9,12.5v-10
		C9,1.673,8.327,1,7.5,1S6,1.673,6,2.5v10C6,13.879,7.122,15,8.5,15c1.379,0,2.5-1.121,2.5-2.5V3H12z"/>
	<g>
	</g>
	<g>
	</g>
	<g>
	</g>
	<g>
	</g>
	<g>
	</g>
	<g>
	</g>
</g>
</svg>
