<svg xmlns="http://www.w3.org/2000/svg" width="16" height="16"><style type="text/css">.icon-canvas-transparent{opacity:0;fill:#F6F6F6;} .icon-vs-out{fill:#F6F6F6;} .icon-vs-bg{fill:#424242;}</style><path class="icon-canvas-transparent" d="M16 16h-16v-16h16v16z" id="canvas"/><path class="icon-vs-out" d="M16 3.75v2.5c0 .965-.785 1.75-1.75 1.75h-3.836l2 2-4.414 4.414-2-2-2 2-4-4v-.828l1.601-1.601c-.894-.077-1.601-.821-1.601-1.735v-2.5c0-.965.785-1.75 1.75-1.75h12.5c.965 0 1.75.785 1.75 1.75z" id="outline"/><path class="icon-vs-bg" d="M5 8l-2 2 2 2-1 1-3-3 3-3 1 1zm3-1l-1 1 2 2-2 2 1 1 3-3-3-3zm6.25-4h-12.5c-.414 0-.75.336-.75.75v2.5c0 .414.336.75.75.75h.836l1.414-1.414 1.414 1.414h1.172l1.414-1.414 1.414 1.414h4.836c.414 0 .75-.336.75-.75v-2.5c0-.414-.336-.75-.75-.75z" id="iconBg"/></svg>