<svg xmlns="http://www.w3.org/2000/svg" viewBox="0 0 16 16"><style>.icon-canvas-transparent{opacity:0;fill:#f6f6f6}.icon-vs-out{fill:#f6f6f6}.icon-vs-bg{fill:#424242}</style><path class="icon-canvas-transparent" d="M16 16H0V0h16v16z" id="canvas"/><path class="icon-vs-out" d="M8.5 15.5A4.505 4.505 0 0 1 4 11V4C4 2.07 5.57.5 7.5.5A3.5 3.5 0 0 1 10.371 2H13v9c0 2.481-2.019 4.5-4.5 4.5z" id="outline"/><g id="iconBg"><path class="icon-vs-bg" d="M12 3v8c0 1.93-1.57 3.5-3.5 3.5S5 12.93 5 11V4c0-1.378 1.122-2.5 2.5-2.5S10 2.622 10 4v7c0 .827-.673 1.5-1.5 1.5S7 11.827 7 11V5h1v6a.5.5 0 0 0 1 0V4c0-.827-.673-1.5-1.5-1.5S6 3.173 6 4v7c0 1.379 1.121 2.5 2.5 2.5S11 12.379 11 11V3h1z"/></g></svg>