<svg xmlns="http://www.w3.org/2000/svg" width="16" height="16"><style type="text/css">.icon-canvas-transparent{opacity:0;fill:#F6F6F6;} .icon-vs-out{fill:#F6F6F6;} .icon-vs-bg{fill:#424242;} .icon-vs-fg{fill:#F0EFF1;}</style><path class="icon-canvas-transparent" d="M16 16h-16v-16h16v16z" id="canvas"/><path class="icon-vs-out" d="M14 7.711c1.195-.575 2-1.817 2-3.211 0-1.93-1.57-3.5-3.5-3.5-.539 0-1.044.133-1.5.351v-1.351h-11v16h11v-2h3v-1h2v-5h-2v-.289z" id="outline"/><path class="icon-vs-bg" d="M1 1v4h4v-4h-4zm3 3h-2v-2h2v2zm-3 2v4h4v-4h-4zm3 3h-2v-2h2v2zm-3 2v4h4v-4h-4zm3 3h-2v-2h2v2zm2-3v4h4v-4h-4zm3 3h-2v-2h2v2zm4-7c1.141-.231 2-1.291 2-2.5 0-1.381-1.119-2.5-2.5-2.5s-2.5 1.119-2.5 2.5c0 1.209.859 2.269 2 2.5v6h1v-1h2v-1h-2v-1h2v-1h-2v-2zm-.5-1c-.828 0-1.5-.672-1.5-1.5s.672-1.5 1.5-1.5 1.5.672 1.5 1.5-.672 1.5-1.5 1.5zm-3.5-1.5c0-.95.384-1.811 1-2.442v-1.058h-4v4h3.036c-.023-.164-.036-.331-.036-.5zm-2-.5v-2h2v2h-2zm2.33 2h-3.33v4h4v-3.027c-.273-.285-.503-.611-.67-.973zm-.33 1.612v1.388h-2v-2h2v.612z" id="iconBg"/><path class="icon-vs-fg" d="M4 4h-2v-2h2v2zm0 3h-2v2h2v-2zm0 5h-2v2h2v-2zm5 0h-2v2h2v-2zm0-10h-2v2h2v-2zm0 5h-2v2h2v-2z" id="iconFg"/></svg>