<svg xmlns="http://www.w3.org/2000/svg" width="16" height="16"><style type="text/css">.icon-canvas-transparent{opacity:0;fill:#F6F6F6;} .icon-vs-out{fill:#F6F6F6;} .icon-vs-bg{fill:#424242;}</style><path class="icon-canvas-transparent" d="M16 16h-16v-16h16v16z" id="canvas"/><path class="icon-vs-out" d="M16 0v16h-11v-7.602l-5-4.985v-.827l2.586-2.586h.837l1.577 1.544v-1.544h11z" id="outline"/><path class="icon-vs-bg" d="M6.606 10h-.606v-.604l.606.604zm2.947-4l.447.438v-.438h-.447zm-1.022-1h1.469v-4h-4v1.522l2.531 2.478zm2.469-4v4h4v-4h-4zm0 6.417v2.583h4v-4h-4v1.417zm-5 3.583v4h4v-4h-4zm5 4h4v-4h-4v4zm-6-12l-2 2 4 3.999 2-2-4-3.999zm-2-2l-2 2 1 1 2-2-1-1zm5 9l2-.001v-1.999" id="iconBg"/></svg>