<svg xmlns="http://www.w3.org/2000/svg" width="16" height="16"><style type="text/css">.icon-canvas-transparent{opacity:0;fill:#F6F6F6;} .icon-vs-out{fill:#F6F6F6;} .icon-vs-bg{fill:#424242;}</style><path class="icon-canvas-transparent" d="M16 16h-16v-16h16v16z" id="canvas"/><path class="icon-vs-out" d="M7.975 16c-1.139 0-2.202-.18-3.16-.536-.977-.362-1.833-.89-2.543-1.563-.725-.689-1.29-1.518-1.68-2.46-.393-.939-.592-2-.592-3.149 0-.756.087-1.49.26-2.182.17-.691.424-1.355.753-1.97.327-.613.739-1.184 1.224-1.694.485-.509 1.041-.951 1.651-1.312.605-.358 1.281-.64 2.01-.839.722-.196 1.503-.295 2.323-.295 1.035 0 2.029.159 2.952.474.933.316 1.767.781 2.476 1.383.721.611 1.299 1.364 1.718 2.237.42.897.633 1.895.633 2.974 0 .899-.129 1.715-.383 2.424-.256.703-.6 1.311-1.023 1.812-.455.52-.966.911-1.529 1.172l-.396.163v2.401l-.589.265c-.185.084-.414.166-.684.254-.264.086-.572.162-.923.228-.339.061-.71.114-1.123.154-.393.04-.845.059-1.375.059z" id="outline"/><path class="icon-vs-bg" d="M13.002 2.619c-2.232-1.893-5.779-2.129-8.333-.776-2.58 1.367-3.87 4.266-3.643 7.113.239 3.005 2.369 5.337 5.325 5.898 1.365.259 2.876.202 4.229-.109.231-.053.8-.121.958-.298.182-.204.049-.036.132-.34.083-.3 0-.731 0-1.041-2.382 1.043-5.714 1.116-7.656-.851-1.984-2.008-1.904-5.573-.28-7.763 1.643-2.215 4.906-2.863 7.326-1.564 2.279 1.223 3.276 4.78 1.757 6.973-.319.461-1.029 1.05-1.619.652-.469-.316-.425-1.141-.409-1.636.049-1.512.309-3.013.375-4.524-.302 0-1.119-.159-1.35 0-.177.122-.139.67-.163.932-.654-1.271-2.183-1.32-3.349-.585-1.312.828-1.859 2.471-1.852 3.959.006 1.311.532 2.739 1.917 3.113 1.6.433 2.408-.612 3.076-1.798 0 1.22.829 1.956 2.03 1.893 1.333-.07 2.395-.992 2.966-2.148 1.154-2.341.554-5.413-1.437-7.1m-3.685 5.871c-.2 1.014-.901 2.412-2.18 2.11-1.288-.304-1.226-2.052-1.004-3.043.228-1.016.968-2.344 2.217-2.092 1.352.273 1.152 2.027.967 3.025" id="iconBg"/></svg>