<svg xmlns="http://www.w3.org/2000/svg" viewBox="0 0 16 16"><style>.st0{opacity:0}.st0,.st1{fill:#f6f6f6}.st2{fill:#424242}.st3{fill:#f0eff1}</style><g id="outline"><path class="st0" d="M0 0h16v16H0z"/><path class="st1" d="M3 0h11v16H3z"/></g><g id="icon_x5F_bg"><path class="st2" d="M4 5h4V1H4v4zm1-3h2v2H5V2zM9 1v4h4V1H9zm3 3h-2V2h2v2zM4 10h4V6H4v4zm1-3h2v2H5V7zM9 10h4V6H9v4zm1-3h2v2h-2V7zM4 15h4v-4H4v4zm1-3h2v2H5v-2zM9 15h4v-4H9v4zm1-3h2v2h-2v-2z"/></g><g id="icon_x5F_fg"><path class="st3" d="M5 2h2v2H5zM10 2h2v2h-2zM5 7h2v2H5zM10 7h2v2h-2zM5 12h2v2H5zM10 12h2v2h-2z"/></g></svg>