<svg xmlns="http://www.w3.org/2000/svg" width="16" height="16"><style type="text/css">.icon-canvas-transparent{opacity:0;fill:#F6F6F6;} .icon-vs-out{fill:#F6F6F6;} .icon-vs-bg{fill:#424242;} .icon-vs-fg{fill:#F0EFF1;}</style><path class="icon-canvas-transparent" d="M16 16h-16v-16h16v16z" id="canvas"/><path class="icon-vs-out" d="M7.798 11.598l2.595 1.946-.737 2.456h1.677l1.166-.875 1.167.875h1.677l-.736-2.456 1.393-1.044v-1.5h-2.156l-.795-2.652 1.367-1.368-.997-.997 1.324-1.316c.904-1 .891-2.452-.035-3.379-.458-.457-1.06-.708-1.695-.708-.613 0-1.209.233-1.721.696l-1.287 1.298-.998-1.013-2.419 2.419 1 1-4.407 4.422-1.397 2.773 2.022 2.021 2.789-1.396 1.203-1.202zm3.204-3.204l.72.72-.566 1.886h-2.76l2.606-2.606z" id="outline"/><path class="icon-vs-bg" d="M8 6l-4 4-1 2 1 1 2-1 4-4-2-2zm-3 4l3-3 1 1-3 3-1-1zm7-8c.586-.527 1.436-.562 2 0 .564.564.528 1.415 0 2l-2 2 1 1-1 1-4-4 1-1 1 1 2-2zm2 13l-1.5-1.125-1.5 1.125.551-1.837-1.551-1.163h1.9l.6-2 .6 2h1.9l-1.551 1.163.551 1.837z" id="iconBg"/><path class="icon-vs-fg" d="M5 10l3-3 1 1-3 3-1-1z" id="iconFg"/></svg>