<svg xmlns="http://www.w3.org/2000/svg" width="16" height="16"><style type="text/css">.icon-canvas-transparent{opacity:0;fill:#F6F6F6;} .icon-vs-out{fill:#F6F6F6;} .icon-vs-bg{fill:#424242;} .icon-vs-red{fill:#E51400;}</style><path class="icon-canvas-transparent" d="M16 16h-16v-16h16v16z" id="canvas"/><path class="icon-vs-out" d="M16 11.513c0 2.474-2.013 4.487-4.487 4.487-.533 0-1.038-.109-1.513-.281v.281h-2.414l-4-4h-3.586v-8h3.586l4-4h2.414v5h2v2.075c2.243.246 4 2.13 4 4.438z" id="outline"/><path class="icon-vs-bg" d="M8.724 15h-.724l-4-4h-3v-6h3l4-4h1v5h2v1.077c-2.231.258-3.975 2.137-3.975 4.436 0 1.415.672 2.664 1.699 3.487z" id="iconBg"/><path class="icon-vs-red" d="M11.513 8.025c-1.926 0-3.487 1.562-3.487 3.487 0 1.926 1.562 3.487 3.487 3.487 1.926.001 3.487-1.56 3.487-3.486 0-1.926-1.561-3.488-3.487-3.488zm-2.488 3.488c0-.529.169-1.019.452-1.422l3.37 3.514c-.386.247-.842.395-1.334.395-1.371 0-2.488-1.116-2.488-2.487zm4.543 1.397l-3.362-3.505c.381-.236.826-.38 1.307-.38 1.371 0 2.487 1.116 2.487 2.487 0 .518-.16 1-.432 1.398z" id="notificationBg"/></svg>