<svg xmlns="http://www.w3.org/2000/svg" width="16" height="16"><style type="text/css">.icon-canvas-transparent{opacity:0;fill:#F6F6F6;} .icon-vs-out{fill:#F6F6F6;} .icon-vs-bg{fill:#424242;} .icon-vs-fg{fill:#F0EFF1;}</style><path class="icon-canvas-transparent" d="M16 16h-16v-16h16v16z" id="canvas"/><path class="icon-vs-out" d="M16 4.5c0 2.485-2.015 4.5-4.5 4.5l-.24-.024-6.553 5.731-.501.501c-.322.322-.751.5-1.207.5-.456 0-.885-.178-1.207-.5l-1-1c-.322-.322-.5-.751-.5-1.207 0-.456.178-.885.5-1.207l.455-.452 5.777-6.603-.024-.239c0-2.485 2.015-4.5 4.5-4.5s4.5 2.015 4.5 4.5z" id="outline"/><path class="icon-vs-bg" d="M11.5 1c-1.934 0-3.5 1.566-3.5 3.5 0 .197.026.388.059.576l-6.059 6.924-.501.501c-.276.276-.276.724 0 1l.5.5.5.5c.276.276.724.276 1 0l.501-.501 6.924-6.059c.188.033.379.059.576.059 1.934 0 3.5-1.566 3.5-3.5s-1.566-3.5-3.5-3.5zm0 6c-1.379 0-2.5-1.121-2.5-2.5 0-.509.154-.981.416-1.377l3.461 3.461c-.396.262-.868.416-1.377.416zm2.084-1.123l-3.461-3.461c.396-.262.868-.416 1.377-.416 1.379 0 2.5 1.121 2.5 2.5 0 .509-.154.981-.416 1.377z" id="iconBg"/><path class="icon-vs-fg" d="M10.123 2.416c.396-.262.868-.416 1.377-.416 1.379 0 2.5 1.121 2.5 2.5 0 .509-.154.981-.416 1.377l-3.461-3.461zm-.707.707c-.262.396-.416.868-.416 1.377 0 1.379 1.121 2.5 2.5 2.5.509 0 .981-.154 1.377-.416l-3.461-3.461z" id="iconFg"/></svg>