<svg xmlns="http://www.w3.org/2000/svg" width="16" height="16"><style type="text/css">.icon-canvas-transparent{opacity:0;fill:#F6F6F6;} .icon-vs-out{fill:#F6F6F6;} .icon-vs-bg{fill:#424242;} .icon-vs-fg{fill:#F0EFF1;} .icon-vs-action-blue{fill:#00539C;}</style><path class="icon-canvas-transparent" d="M16 16h-16v-16h16v16z" id="canvas"/><path class="icon-vs-out" d="M16 2v14h-15v-8h-1v-8h9v2h7z" id="outline"/><path class="icon-vs-bg" d="M9 3v3h1v2h-8v7h13v-12h-6zm-3 11h-3v-2h3v2zm0-3h-3v-2h3v2zm4 3h-3v-2h3v2zm0-3h-3v-2h3v2zm4 3h-3v-2h3v2zm0-3h-3v-2h3v2zm0-3h-3v-2h3v2z" id="iconBg"/><path class="icon-vs-fg" d="M3 9h3v2h-3v-2zm7-1v-2h-1v2h1zm-3 6h3v-2h-3v2zm-4 0h3v-2h-3v2zm4-3h3v-2h-3v2zm4 0h3v-2h-3v2zm0-3h3v-2h-3v2zm0 6h3v-2h-3v2z" id="iconFg"/><path class="icon-vs-action-blue" d="M3 2l3 2-3 2v-4zm-1-1h-1v6h1v-6zm6 0h-1v6h1v-6z" id="colorAction"/></svg>