<svg xmlns="http://www.w3.org/2000/svg" width="16" height="16"><style type="text/css">.icon-canvas-transparent{opacity:0;fill:#F6F6F6;} .icon-vs-out{fill:#F6F6F6;} .icon-vs-bg{fill:#424242;}</style><path class="icon-canvas-transparent" d="M16 16h-16v-16h16v16z" id="canvas"/><path class="icon-vs-out" d="M12 1v4.666l-.5-1.166-2 .93.5-2.43h-4l.5 2.5-2-1-.5 1.166v-4.666h-4v13h4v-3.584l3 2.084 1-2 1 2 3-1.986v3.486h4v-13h-4zm-8 8.438v-1.188l1 .25-1 .938zm7.003-.938l.997-.25v1.322l-.997-1.072z" id="outline"/><path class="icon-vs-bg" d="M3 13h-2v-11h2v11zm12-11h-2v11h2v-11zm-4.028 4l-2.5 1 .5-3h-2l.485 3-2.485-1-.5 1.5 2.5.5-1.972 2 1.472 1 1.528-2.5 1.472 2.5 1.528-1-2.028-2 2.528-.5-.528-1.5z" id="iconBg"/></svg>