<svg xmlns="http://www.w3.org/2000/svg" viewBox="0 0 16 16"><style>.icon-canvas-transparent{opacity:0;fill:#f6f6f6}.icon-vs-out{fill:#f6f6f6}.icon-vs-action-blue{fill:#00539c}</style><path class="icon-canvas-transparent" d="M16 0v16H0V0h16z" id="canvas"/><path class="icon-vs-out" d="M10.857 12.991l-2.649-2.648 2.122-2.121 2.661 2.661.003-1.62h2.995L16 14.956v1.035H9.263v-2.997l1.594-.003zm-.505-5.2L13 5.142l.003 1.596H16V0h-1.035L9.271.011v2.995l1.62.003L8.23 5.67l2.122 2.121zM1.035 16l5.694-.011v-2.995l-1.62-.003L7.77 10.33 5.649 8.208 3 10.857l-.002-1.594H0V16h1.035zm1.971-9.262l.003-1.62 2.661 2.66 2.121-2.121-2.649-2.648 1.596-.003V.009H0v1.035l.011 5.694h2.995z" id="outline"/><path class="icon-vs-action-blue" d="M15 1v4.738h-.999l-.006-3.005-3.644 3.644-.707-.707L13.3 2.014l-3.03-.006v-.999L15 1zM1 1.009h4.738v.999l-3.005.006 3.644 3.644-.707.706-3.656-3.656-.006 3.03h-.999L1 1.009zM1 15v-4.738h.999l.006 3.005 3.644-3.644.707.707L2.7 13.986l3.03.006v.999L1 15zm14-.009h-4.738v-.999l3.005-.006-3.644-3.644.707-.707 3.656 3.656.006-3.03h.999l.009 4.73z" id="colorAction"/></svg>