<svg xmlns="http://www.w3.org/2000/svg" width="16" height="16"><style type="text/css">.icon-canvas-transparent{opacity:0;fill:#F6F6F6;} .icon-vs-out{fill:#F6F6F6;} .icon-vs-bg{fill:#424242;} .icon-vs-fg{fill:#F0EFF1;}</style><path class="icon-canvas-transparent" d="M16 16h-16v-16h16v16z" id="canvas"/><path class="icon-vs-out" d="M15 14h-6.5l-3.5 2h-1l-3-1.8v-3.6l4-2.3v-8.3h10v14z" id="outline"/><path class="icon-vs-bg" d="M5.5 9l-3.5 2v2.5l2.5 1.5 3.5-2v-2.5l-2.5-1.5zm-1 3l-1.5-1 2.5-1.5 1.5 1-2.5 1.5zm9.5-11h-8v7.3l3 1.8v2.9h5v-12zm-7 4h3v1h-3v-1zm5 3h-5v-1h5v1zm1-4h-6v-1h6v1z" id="iconBg"/><path class="icon-vs-fg" d="M7 3h6v1h-6v-1zm3 2h-3v1h3v-1zm-3 3h5v-1h-5v1zm-4 3l1.5 1 2.5-1.5-1.5-1-2.5 1.5z" id="iconFg"/></svg>