<svg xmlns="http://www.w3.org/2000/svg" width="16" height="16"><style type="text/css">.icon-canvas-transparent{opacity:0;fill:#F6F6F6;} .icon-vs-out{fill:#F6F6F6;} .icon-vs-bg{fill:#424242;} .icon-vs-fg{fill:#F0EFF1;}</style><path class="icon-canvas-transparent" d="M16 16h-16v-16h16v16z" id="canvas"/><path class="icon-vs-out" d="M16 0v16h-14v-8h-2v-8h16z" id="outline"/><path class="icon-vs-bg" d="M1 1v6h2v8h12v-14h-14zm1 5v-4h8v4h-8zm12 8h-10v-7h10v7zm-1.5-9l-1.5-2h3l-1.5 2zm-3.5 8h-4v-1h4v1zm0-4h-4v-1h4v1zm3 2h-7v-1h7v1zm-7-8h1v2h-1v-2zm-2 0h1v2h-1v-2z" id="iconBg"/><path class="icon-vs-fg" d="M11 3h3l-1.5 2-1.5-2zm-1 3h-8v-4h8v4zm-6-3h-1v2h1v-2zm2 0h-1v2h1v-2zm-2 4h10v7h-10v-7zm1 2h4v-1h-4v1zm0 2h7v-1h-7v1zm0 2h4v-1h-4v1z" id="iconFg"/></svg>