<svg xmlns="http://www.w3.org/2000/svg" viewBox="0 0 16 16"><style>.icon-canvas-transparent{opacity:0;fill:#f6f6f6}.icon-vs-bg{fill:#424242}.icon-vs-fg{fill:#f0eff1}.icon-vs-out{fill:#f6f6f6}</style><path class="icon-canvas-transparent" d="M16 16H0V0h16v16z" id="canvas"/><path class="icon-vs-out" d="M0 15V2h16v13H0z" id="outline"/><path class="icon-vs-fg" d="M2 4v3h12V4H2zm8 2H3V5h7v1zm-8 7h12v-3H2v3zm1-2h3v1H3v-1z" id="iconFg"/><path class="icon-vs-bg" d="M15 14H1V9h14v5zM2 13h12v-3H2v3zm13-5H1V3h14v5zM2 7h12V4H2v3zm8-2H3v1h7V5zm-4 6H3v1h3v-1z" id="iconBg"/></svg>