<svg xmlns="http://www.w3.org/2000/svg" width="16" height="16"><style type="text/css">.icon-canvas-transparent{opacity:0;fill:#F6F6F6;} .icon-vs-out{fill:#F6F6F6;} .icon-vs-bg{fill:#424242;}</style><path class="icon-canvas-transparent" d="M16 16h-16v-16h16v16z" id="canvas"/><path class="icon-vs-out" d="M11 5v-1c0-1-.3-1-1-1h-2.8l2.9 5-3.3 5h3.2c.7 0 1-.7 1-2v-1h3v6h-13v-3h1l3.3-5-3.3-5h-1v-3h13v5h-3z" id="outline"/><path class="icon-vs-bg" d="M10 2h-4.5l3.5 6-4 6h5c1.8 0 2-2 2-3h1v4h-11v-1h.5l4-6-4-6h-.5v-1h11v3h-1c0-2-1.5-2-2-2z" id="iconBg"/></svg>