<svg xmlns="http://www.w3.org/2000/svg" width="16" height="16"><style type="text/css">.icon-canvas-transparent{opacity:0;fill:#F6F6F6;} .icon-vs-out{fill:#F6F6F6;} .icon-vs-bg{fill:#424242;} .icon-vs-fg{fill:#F0EFF1;} .icon-vs-action-blue{fill:#00539C;}</style><path class="icon-canvas-transparent" d="M16 16h-16v-16h16v16z" id="canvas"/><path class="icon-vs-out" d="M15 0v16h-10v-8h-4v-8h14z" id="outline"/><path class="icon-vs-bg" d="M10 1v2h3v3h-3v1h3v3h-6v-2h-1v7h8v-14h-4zm3 13h-6v-3h6v3z" id="iconBg"/><path class="icon-vs-fg" d="M10 7h3v3h-6v-2h3v-1zm-3 7h6v-3h-6v3zm3-11v3h3v-3h-3z" id="iconFg"/><path class="icon-vs-action-blue" d="M4 2l3 2-3 2v-4zm-1-1h-1v6h1v-6zm6 0h-1v6h1v-6z" id="colorAction"/></svg>