<svg xmlns="http://www.w3.org/2000/svg" viewBox="0 0 16 16"><style>.icon-canvas-transparent{opacity:0;fill:#f6f6f6}.icon-vs-out{fill:#f6f6f6}.icon-vs-bg{fill:#424242}.icon-vs-fg{fill:#f0eff1}</style><path class="icon-canvas-transparent" d="M16 16H0V0h16v16z" id="canvas"/><path class="icon-vs-out" d="M11 0h5v12h-5v4H0V6h2.095L0 3.892v-.267l2-2 .112.112C2.44.607 3.495.003 4.497.002H6V0h5z" id="outline"/><path class="icon-vs-bg" d="M5.727 3.76l-.721-.722-1.004 1.004V2.49c0-.4.274-.491.504-.497h.976v-.992h-.983c-.599.001-1.489.398-1.49 1.489h-.001l-.004 1.552L2 3.038l-.721.722 2.222 2.236L5.727 3.76zM6 9a1 1 0 1 1 2 0 1 1 0 1 1-2 0zm-5 5h1v1H1v-1zm7-7H7V6h1v1zM6 7H5V6h1v1zM2 9H1V8h1v1zm0-2H1V6h1v1zm1 0h.089M3 14h1v1H3v-1zm-2-4h1v1H1v-1zm8 0h1v1H9v-1zm0-2h1v1H9V8zm0-2h1v1H9V6zm2-1a1 1 0 1 1 0-2 1 1 0 1 1 0 2zm4-4v10h-4v-1h3V9l-1.5-1-1.5.75v-2L12.5 6 14 7V2H6.481V1H15zM7 12l2-1v1l-2 1-3-2-2 2H1v-1h1l2-2 3 2zm2 2h1v1H9v-1zm-4 0h1v1H5v-1zm2 0h1v1H7v-1zm2-1v-1h1v1H9z" id="iconBg"/><path class="icon-vs-fg" d="M12.5 8L14 9v1h-3V8.75L12.5 8zM6.481 2v.994h-.002v.104l.661.66L6 4.903V5h5a1 1 0 1 1 0-2 1 1 0 1 1 0 2v1.75L12.5 6 14 7V2H6.481zM4 11l-2 2v1h7v-2l-2 1-3-2zm-.088-4H9v4l-2 1-3-2-2 2V7h1.089l.411.414L3.912 7zM6 9a1 1 0 1 0 2 0 1 1 0 1 0-2 0z" id="iconFg"/></svg>