<svg xmlns="http://www.w3.org/2000/svg" viewBox="0 0 16 16"><style>.icon-canvas-transparent{opacity:0;fill:#f6f6f6}.icon-vs-out{fill:#f6f6f6}.icon-vs-bg{fill:#424242}.icon-vs-action-blue{fill:#00539c}</style><path class="icon-canvas-transparent" d="M16 16H0V0h16v16z" id="canvas"/><path class="icon-vs-out" d="M16 0v16h-4v-4.561l-1.35 1.35-2.12-2.12.667-.669H6.798l.666.669-2.119 2.12L4 11.444V16H0V0h4v4.615l1.346-1.341 2.118 2.118L6.859 6h2.276l-.605-.607 2.119-2.118L12 4.621V0h4z" id="outline"/><path class="icon-vs-bg" d="M15 8.439V15h-2v-4.561l2-2zM3 5.612V1H1v6.604l2-1.992zM15 7.61V1h-2v4.617l2 1.993zM1 8.444V15h2v-4.556l-2-2z" id="iconBg"/><path class="icon-vs-action-blue" d="M13.759 8l-3.191 3.192-.885-.885L10.991 9H5.009l1.308 1.308-.884.885L2.241 8l3.192-3.192.884.884L5.009 7h5.982L9.683 5.692l.885-.884L13.759 8z" id="iconFg"/></svg>