<svg xmlns="http://www.w3.org/2000/svg" width="16" height="16"><style type="text/css">.icon-canvas-transparent{opacity:0;fill:#F6F6F6;} .icon-vs-out{fill:#F6F6F6;} .icon-vs-bg{fill:#424242;} .icon-vs-fg{fill:#F0EFF1;} .icon-vs-action-blue{fill:#00539C;}</style><path class="icon-canvas-transparent" d="M16 16h-16v-16h16v16z" id="canvas"/><path class="icon-vs-out" d="M9 0h-3v2.798l-3-2v-.798h-3v8h1v8h9v-3h4v-6h2v-7h-7zm-3 7h-2.697l2.697-1.798v1.798zm5 3h-1v-3h1v3z" id="outline"/><path class="icon-vs-bg" d="M10 1v5h2v5h-3v-3h-7v7h7v-3h4v-6h2v-5h-5zm-2 13h-5v-5h5v5zm6-9h-3v-3h3v3z" id="iconBg"/><path class="icon-vs-fg" d="M14 2v3h-3v-3h3zm-11 12h5v-5h-5v5z" id="iconFg"/><path class="icon-vs-action-blue" d="M8 7h-1v-6h1v6zm-5-5v4l3-2-3-2zm-1-1h-1v6h1v-6z" id="colorAction"/></svg>