<svg xmlns="http://www.w3.org/2000/svg" viewBox="0 0 16 16"><style>.icon-canvas-transparent{opacity:0;fill:#f6f6f6}.icon-vs-out{fill:#f6f6f6}.icon-vs-bg{fill:#424242}.icon-vs-action-blue{fill:#00539c}</style><path class="icon-canvas-transparent" d="M16 16H0V0h16v16z" id="canvas"/><path class="icon-vs-out" d="M16 7.004v4h-1a6.266 6.266 0 0 1-1.991-.326V12H10v4H7v-2.798l-4 2.666V16H0V8h3v.131l4 2.667V8h2.009V6.475l-.469.469L6.064 4.47 10.534 0h.949l4.47 4.47-2.196 2.196c.378.188.84.338 1.243.338h1z" id="outline"/><path class="icon-vs-bg" d="M15 9.677c-1.509-.053-2.589-.619-3.332-1.321V11h-1.333V3.515L8.482 5.357l-.947-.916.016-.016-.002-.002L11.02.952l3.516 3.532-.012.012-.922.922-1.933-1.923v2.45c.105.368.778 2.29 3.332 2.405v1.327z" id="iconBg"/><path class="icon-vs-action-blue" d="M1 9h1v6H1V9zm7 6h1V9H8v6zm-4-1l3-2-3-2v4z" id="colorAction"/></svg>