<svg xmlns="http://www.w3.org/2000/svg" viewBox="0 0 16 16"><style>.icon-vs-out{fill:#f6f6f6}.icon-vs-bg{fill:#424242}.icon-vs-fg{fill:#f0eff1}.icon-vs-action-blue{fill:#00539c}.icon-canvas-transparent{opacity:0;fill:#f6f6f6}</style><path class="icon-canvas-transparent" d="M16 16H0V0h16v16z" id="canvas"/><path class="icon-vs-out" d="M15.4 15c-.4.6-1 1-1.8 1H5.3c-.7 0-1.4-.4-1.8-1-.4-.6-.3-1.4.1-2L7 7.7V7H6V5.9l-3 2V8H0V0h3v.1l4 2.7V0h3v4h3v3h-1v.7l3.4 5.2c.3.6.4 1.4 0 2.1z" id="outline"/><path class="icon-vs-bg" d="M14.5 13.5L11 8V6h1V5H7v1h1v2l-3.5 5.5c-.4.6 0 1.5.8 1.5h8.3c.9 0 1.3-.9.9-1.5zM7.3 11L9 8.3V6h1v2.3l1.7 2.7H7.3z" id="iconBg"/><path class="icon-vs-fg" d="M7.3 11L9 8.3V6h1v2.3l1.7 2.7H7.3z" id="iconFg"/><path class="icon-vs-action-blue" d="M1 1h1v6H1V1zm8 0H8v3h1V1zM4 6l3-2-3-2v4z" id="colorAction"/></svg>