<svg xmlns="http://www.w3.org/2000/svg" viewBox="0 0 16 16"><style>.icon-vs-out{fill:#f6f6f6}.icon-vs-bg{fill:#424242}.icon-canvas-transparent{opacity:0;fill:#f6f6f6}</style><path class="icon-canvas-transparent" d="M16 16H0V0h16v16z" id="canvas"/><path class="icon-vs-out" d="M0 15V9h6.972l-4.22-4.219 2.119-2.12 1.13 1.126V.042H9v3.763l1.147-1.143 2.119 2.118L8.063 9H16v6H0z" id="outline"/><path class="icon-vs-bg" d="M11 10v2h-1v-2H6v2H5v-2H1v4h4v-1h1v1h4v-1h1v1h4v-4h-4zM7.517 8.131l-3.35-3.35.707-.707 2.129 2.121V1.042h.999v5.171l2.146-2.138.707.707-3.338 3.349z" id="iconBg"/></svg>