<svg xmlns="http://www.w3.org/2000/svg" width="16" height="16"><style type="text/css">.icon-canvas-transparent{opacity:0;fill:#F6F6F6;} .icon-vs-out{fill:#F6F6F6;} .icon-vs-bg{fill:#424242;} .icon-vs-fg{fill:#F0EFF1;}</style><path class="icon-canvas-transparent" d="M16 16h-16v-16h16v16z" id="canvas"/><path class="icon-vs-out" d="M16 15h-16v-15h16v15z" id="outline"/><path class="icon-vs-bg" d="M1 1h2v13h-2v-13zm14 0v13h-11v-1h2v-2h-2v-1h2v-2h-2v-1h2v-2h-2v-1h2v-2h-2v-1h11zm-8 3h3v-2h-3v2zm0 3h3v-2h-3v2zm0 3h3v-2h-3v2zm3 3v-2h-3v2h3zm4-2h-3v2h3v-2zm0-3h-3v2h3v-2zm0-3h-3v2h3v-2zm0-3h-3v2h3v-2z" id="iconBg"/><path class="icon-vs-fg" d="M14 5v2h-3v-2h3zm-3-3v2h3v-2h-3zm0 11h3v-2h-3v2zm-4-3h3v-2h-3v2zm4-2v2h3v-2h-3zm-1-3h-3v2h3v-2zm-3-1h3v-2h-3v2zm-1 9v-2h-2v2h2zm0-5h-2v2h2v-2zm4 3h-3v2h3v-2zm-4-9h-2v2h2v-2zm0 3h-2v2h2v-2z" id="iconFg"/></svg>