<svg xmlns="http://www.w3.org/2000/svg" width="16" height="16"><style type="text/css">.icon-canvas-transparent{opacity:0;fill:#F6F6F6;} .icon-vs-out{fill:#F6F6F6;} .icon-vs-bg{fill:#424242;}</style><path class="icon-canvas-transparent" d="M16 16h-16v-16h16v16z" id="canvas"/><path class="icon-vs-out" d="M16 14h-1v2h-13v-2h-2v-14h3v11h13v3z" id="outline"/><path class="icon-vs-bg" d="M15 12v1h-14v-12h1v11h13zm-11 2h-1v1h1v-1zm2 0h-1v1h1v-1zm2 0h-1v1h1v-1zm2 0h-1v1h1v-1zm2 0h-1v1h1v-1zm2 0h-1v1h1v-1z" id="iconBg"/></svg>