<svg xmlns="http://www.w3.org/2000/svg" width="16" height="16"><style type="text/css">.icon-canvas-transparent{opacity:0;fill:#F6F6F6;} .icon-vs-out{fill:#F6F6F6;} .icon-vs-bg{fill:#424242;} .icon-vs-fg{fill:#F0EFF1;}</style><path class="icon-canvas-transparent" d="M16 16h-16v-16h16v16z" id="canvas"/><path class="icon-vs-out" d="M16 16h-15v-16h15v16z" id="outline"/><path class="icon-vs-bg" d="M2 1v11h1v-1h3v1h1v-1h3v1h1v-1h3v1h1v-11h-13zm8 1v2h-3v-2h3zm0 3v2h-3v-2h3zm-7-3h3v2h-3v-2zm0 3h3v2h-3v-2zm0 5v-2h3v2h-3zm4 0v-2h3v2h-3zm7 0h-3v-2h3v2zm0-3h-3v-2h3v2zm0-3h-3v-2h3v2zm-12 9h13v2h-13v-2z" id="iconBg"/><path class="icon-vs-fg" d="M3 8h3v2h-3v-2zm3-3h-3v2h3v-2zm5-3v2h3v-2h-3zm-5 9h-3v1h3v-1zm5-1h3v-2h-3v2zm0-5v2h3v-2h-3zm-8-1h3v-2h-3v2zm4 6h3v-2h-3v2zm4 1v1h3v-1h-3zm-4-7h3v-2h-3v2zm0 8h3v-1h-3v1zm3-7h-3v2h3v-2z" id="iconFg"/></svg>