<svg xmlns="http://www.w3.org/2000/svg" width="16" height="16"><style type="text/css">.icon-canvas-transparent{opacity:0;fill:#F6F6F6;} .icon-vs-out{fill:#F6F6F6;} .graph-frame-lime{fill:#9ECA00;} .icon-vs-blue{fill:#1BA1E2;}</style><path class="icon-canvas-transparent" d="M16 16h-16v-16h16v16z" id="canvas"/><path class="icon-vs-out" d="M7.5 15c-.66 0-1.31-.15-1.931-.447l-.569-.272v-2.281h-1.129c-2.139 0-3.879-1.773-3.879-3.95 0-1.586.958-3.017 2.356-3.629.487-1.991 2.243-3.421 4.321-3.421 1.123 0 2.177.423 2.988 1.182.277-.075.559-.11.854-.11 1.75 0 3.161 1.282 3.439 3.015 1.169.676 1.942 1.915 1.942 3.199 0 1.93-1.321 3.475-3.143 3.674-.013.01-.147.04-.313.04h-.708c-.626 1.759-2.313 3-4.228 3z" id="outline"/><g id="iconBg"><path class="graph-frame-lime" d="M14.893 8.286c0 1.381-.909 2.534-2.251 2.68l-.206.034h-1.486c-.245 1.694-1.688 3-3.45 3-.539 0-1.044-.132-1.5-.35v-1.163c.419.318.935.513 1.5.513 1.378 0 2.5-1.121 2.5-2.5 0-1.378-1.122-2.5-2.5-2.5-.565 0-1.081.196-1.5.513v-1.163c.456-.218.961-.35 1.5-.35 1.762 0 3.205 1.306 3.45 3h1.05s1.796.003 1.796-1.733c0-.933-.524-1.69-1.44-1.69-.135 0-.264.021-.387.052.172-.263.274-.579.274-.919 0-.906-.72-1.641-1.609-1.641-.688 0-1.267.44-1.499 1.057-.188-1.204-1.199-2.126-2.432-2.126-1.363 0-2.464 1.127-2.464 2.519 0 .218.043.424.094.625-.135-.032-.258-.052-.404-.052-1.047 0-1.864.865-1.864 1.934-.001 1.694 1.935 1.974 1.935 1.974h2.092c.206-.581.756-1 1.408-1 .828 0 1.5.672 1.5 1.5s-.672 1.5-1.5 1.5c-.652 0-1.202-.419-1.408-1h-2.221c-1.591 0-2.879-1.356-2.879-2.95 0-1.393.954-2.575 2.239-2.874.174-1.782 1.641-3.176 3.438-3.176 1.109 0 2.074.524 2.71 1.361.36-.188.706-.29 1.133-.29 1.438 0 2.488 1.187 2.488 2.644v.025c1 .371 1.893 1.376 1.893 2.546z"/><path class="icon-vs-blue" d="M9 10.5c0 .828-.672 1.5-1.5 1.5s-1.5-.672-1.5-1.5.672-1.5 1.5-1.5 1.5.672 1.5 1.5z"/></g></svg>