<svg xmlns="http://www.w3.org/2000/svg" width="16" height="16"><style type="text/css">.icon-canvas-transparent{opacity:0;fill:#F6F6F6;} .icon-vs-out{fill:#F6F6F6;} .icon-vs-bg{fill:#424242;} .icon-vs-fg{fill:#F0EFF1;} .icon-vs-blue{fill:#1BA1E2;} .graph-frame-lime{fill:#9ECA00;}</style><path class="icon-canvas-transparent" d="M16 16h-16v-16h16v16z" id="canvas"/><path class="icon-vs-out" d="M13 0h-5c-1.654 0-3 1.346-3 3v2h-4v2h-1v7h1v2h9v-2h1v-2.798l.303-.202h1.697c1.654 0 3-1.346 3-3v-5c0-1.654-1.346-3-3-3z" id="outline"/><g id="iconBg"><path class="icon-vs-blue" d="M13 8h-1v-5h1v5zm-2-4h-1v4h1v-4zm-5 8h-1v1h1v-1zm2 0h-1v1h1v-1z"/><path class="graph-frame-lime" d="M9 5h-1v3h1v-3zm-5 7h-1v1h1v-1zm0-2h-1v1h1v-1zm2 0h-1v1h1v-1z"/><path class="icon-vs-bg" d="M3 6h-1v1h1v-1zm2 0h-1v1h1v-1zm-3 4h-1v1h1v-1zm0 2h-1v1h1v-1zm1 2h-1v1h1v-1zm2 0h-1v1h1v-1zm2 0h-1v1h1v-1zm2 0h-1v1h1v-1zm1-2h-1v1h1v-1zm-8-4h-1v1h1v-1zm2 0h-1v1h1v-1zm2 0h-1v1h1v-1zm7-7h-5c-1.105 0-2 .895-2 2v5c0 1.105.895 2 2 2v2l3-2h2c1.105 0 2-.895 2-2v-5c0-1.105-.895-2-2-2zm1 7c0 .551-.448 1-1 1h-5c-.551 0-1-.449-1-1v-5c0-.551.449-1 1-1h5c.552 0 1 .449 1 1v5z"/></g><path class="icon-vs-fg" d="M13 2h-5c-.551 0-1 .449-1 1v5c0 .551.449 1 1 1h5c.552 0 1-.449 1-1v-5c0-.551-.448-1-1-1zm-4 6h-1v-3h1v3zm2 0h-1v-4h1v4zm2 0h-1v-5h1v5z" id="iconFg"/></svg>