<svg xmlns="http://www.w3.org/2000/svg" width="16" height="16"><style type="text/css">.icon-canvas-transparent{opacity:0;fill:#F6F6F6;} .icon-vs-out{fill:#F6F6F6;} .icon-vs-bg{fill:#424242;} .icon-vs-fg{fill:#F0EFF1;}</style><path class="icon-canvas-transparent" d="M16 16h-16v-16h16v16z" id="canvas"/><path class="icon-vs-out" d="M8.4 16c-3 0-7.3-1-7.3-3.3v-9.5c0-2.1 3.5-3.2 6.7-3.2 2.9 0 7.2 1 7.2 3.3v9.5c0 2.1-3.3 3.2-6.6 3.2z" id="outline"/><path class="icon-vs-bg" d="M5.1 10.5c-.1.6-.1 1-.1 1.4-1-1.3-.9-3.1 0-4.4-.2.4-.2 1 .1 1.6-.3.4-.3 1 0 1.4zm5.5-3.7c-.7-.6-1.6-.9-2.4-.9-.4 0-.8.1-1.2.2.4.4.7.8 1 1.2 1.1-.6 2-.6 2.6-.5zm-4.4 1.9c.1-.1.1-.1.1-.2.4-.4.7-.7 1.1-.9-.4-.4-.7-.9-1-1.3-.2.1-.5.2-.7.4-.2.1-.3.2-.4.4-.1.3-.1.9.3 1.6.2-.1.4-.1.6 0zm7.8-5.5v9.6c0 1.2-2.5 2.2-5.6 2.2s-6.4-1-6.4-2.2v-9.6c0-1.2 2.6-2.2 5.8-2.2s6.2 1.1 6.2 2.2zm-10-.1c0 .6 1.8 1.1 3.9 1.1s3.9-.5 3.9-1.1c0-.6-1.8-1.1-3.9-1.1s-3.9.4-3.9 1.1zm7.6 4c-.9-1.1-2.2-1.8-3.5-1.8-1 0-1.9.3-2.7.9-2 1.5-2.3 4.3-.8 6.2.9 1.1 2.2 1.8 3.5 1.8 1 0 1.9-.3 2.7-.9 2-1.5 2.4-4.3.8-6.2zm-2.5 5.4c-.3.3-.8.2-1.1-.1-.1-.1-.2-.3-.2-.5-.3-.2-.7-.4-1.1-.7-.1-.1-.3-.2-.3-.3-.2.1-.3.1-.5.1-.3.7-.3 1.3-.3 1.8.7.6 1.6.9 2.5.9.8 0 1.7-.3 2.4-.8l.3-.3c-.4 0-.9 0-1.5-.2 0 0-.1.1-.2.1zm2-5.2c-.1 0-1.1 0-2.4.7.4.4.9.9 1.3 1.2.3-.2.8-.1 1.1.2.2.2.2.6.1.8.3.2.5.4.7.5.3-1.1.1-2.3-.8-3.4zm-.1 3.3c-.4.3-.9.2-1.2-.2-.2-.3-.2-.6-.1-.9-.5-.4-1-.8-1.5-1.3-.3.2-.7.5-1 .8-.1.2-.2.2-.2.2.2.4.2.8 0 1.2.1.1.2.1.2.2.4.3.7.5 1.1.7.3-.2.8-.1 1 .2.1.1.1.2.1.3 1 .3 1.6.2 1.9.1.2-.3.4-.6.4-.9l-.7-.4z" id="iconBg"/><path class="icon-vs-fg" d="M11.8 3.1c0 .6-1.8 1.1-3.9 1.1s-3.9-.5-3.9-1.1 1.8-1.1 3.9-1.1 3.9.4 3.9 1.1zm-.2 4c-.9-1.1-2.2-1.8-3.5-1.8-1 0-1.9.3-2.7.9-2 1.5-2.3 4.3-.8 6.2.9 1.1 2.2 1.8 3.5 1.8 1 0 1.9-.3 2.7-.9 2-1.5 2.4-4.3.8-6.2zm.3 3.7c-.2-.1-.4-.3-.7-.5.1-.3.1-.6-.1-.8-.3-.4-.8-.5-1.1-.3-.4-.3-.9-.8-1.3-1.2 1.3-.7 2.3-.7 2.4-.7l.1.1c.8 1 1 2.2.7 3.4zm-2.5 1l-.1-.3c-.3-.3-.7-.4-1-.2-.4-.2-.7-.4-1.1-.7-.1 0-.2-.1-.2-.2.2-.4.3-.8 0-1.2l.1-.1c.4-.4.7-.6 1-.8l1.5 1.3c-.1.3-.1.6.1.9.3.4.8.4 1.2.2h.1c.4.3.6.4.8.5l-.4.9c-.3-.1-1 0-2-.3zm1.2-5c-.6-.1-1.5-.1-2.6.5-.3-.4-.6-.8-1-1.2.4-.1.8-.2 1.2-.2.8 0 1.7.3 2.4.9zm-4.9-.1c.2-.2.4-.3.6-.4l1.1 1.3c-.3.2-.7.5-1.1.9l-.1.2h-.6c-.4-.7-.4-1.3-.3-1.6.1-.2.2-.3.4-.4zm-.8.8c-.1.4-.1 1 .2 1.6-.3.4-.3 1 0 1.4l.1.1c-.2.5-.2.9-.2 1.3-1-1.3-1-3-.1-4.4zm5.6 5.3c-.7.5-1.5.8-2.4.8-.9 0-1.8-.3-2.5-.9 0-.4 0-1.1.3-1.8.2 0 .4 0 .6-.1l.3.3c.4.3.8.5 1.1.7 0 .2 0 .4.2.5.3.4.8.4 1.1.1l.2-.2c.6.1 1.1.2 1.5.2l-.4.4z" id="iconFg"/></svg>