<svg xmlns="http://www.w3.org/2000/svg" viewBox="0 0 16 16"><style>.icon-canvas-transparent{opacity:0;fill:#f6f6f6}.icon-vs-out{fill:#f6f6f6}.icon-vs-fg{fill:#f0eff1}.graph-yellow{fill:#fcb714}.graph-frame-lime{fill:#9eca00}</style><path class="icon-canvas-transparent" d="M16 16H0V0h16v16z" id="canvas"/><path class="icon-vs-out" d="M1 16V0h13v1h1v13h-1v2H1z" id="outline"/><path class="graph-frame-lime" d="M11 13V7h1V5h-1V2h1V1H2v14h10v-2h-1zm-6 0H4V9h1v4zm2 0H6V9h1v4zm0-5H5V7h2v1zm3 4H8V9h2v3zM8 8V7h1v1H8zm2-2H5V3h5v3z" id="iconBg"/><g id="iconFg"><path class="icon-vs-fg" d="M10 6H5V3h5v3zM9 7H8v1h1V7zm1 2H8v3h2V9zM7 9H6v4h1V9zM5 9H4v4h1V9z"/><path class="graph-yellow" d="M11 2h3v3h-3V2zm0 11h3V7h-3v6zM7 7H5v1h2V7z"/></g></svg>