<svg xmlns="http://www.w3.org/2000/svg" viewBox="0 0 16 16"><style>.icon-canvas-transparent{opacity:0;fill:#f6f6f6}.icon-vs-out{fill:#f6f6f6}.icon-vs-bg{fill:#424242}.icon-disabled-grey{fill:#848484}.icon-vs-blue{fill:#1ba1e2}.graph-frame-lime{fill:#9eca00}</style><path class="icon-canvas-transparent" d="M16 16H0V0h16v16z" id="canvas"/><path class="icon-vs-out" d="M15.986 12.773c0 1.622-1.175 2.992-2.731 3.186a1.096 1.096 0 0 1-.317.041H0V0h10v7.124c.49.127.954.346 1.352.667.128-.017.257-.025.387-.025 1.434 0 2.657 1.029 2.983 2.423a3.276 3.276 0 0 1 1.264 2.584z" id="outline"/><g id="iconBg"><path class="icon-vs-bg" d="M4 12.607c0-1.232.644-2.354 1.649-2.949C6.104 8.13 7.434 7.065 9 7.01V1H1v14h3.947A3.46 3.46 0 0 1 4 12.607z"/><path class="icon-vs-bg" d="M4 2h4v1H4zM4 4h4v1H4zM4 6h4v1H4zM2 6h1v1H2zM2 4h1v1H2zM2 2h1v1H2z"/><path class="icon-vs-blue" d="M13.804 10.785c-.072-1.126-.971-2.02-2.064-2.02-.236 0-.466.043-.682.123A2.562 2.562 0 0 0 9.124 8C7.812 8 6.72 9.019 6.517 10.349 5.635 10.673 5 11.571 5 12.607 5 13.917 5.978 15 7.243 15h5.694c.066 0 .131-.022.193-.034 1.051-.13 1.855-1.072 1.855-2.193.001-.869-.482-1.629-1.181-1.988z"/></g><g id="iconFg"><path class="graph-frame-lime" d="M2 2h1v1H2zM2 4h1v1H2z"/><path class="icon-disabled-grey" d="M4 2h4v1H4zM4 4h4v1H4z"/><path class="graph-frame-lime" d="M2 6h1v1H2z"/><path class="icon-disabled-grey" d="M4 6h4v1H4z"/></g></svg>