<svg xmlns="http://www.w3.org/2000/svg" viewBox="0 0 16 16"><style>.st0{opacity:0}.st0,.st1{fill:#f6f6f6}.st2{fill:none}.st3{fill:#424242}.st4{fill:#f0eff1}</style><g id="outline"><path class="st0" d="M0 0h16v16H0z"/><path class="st1" d="M16.014 7.279a3.71 3.71 0 0 0-1.826-3.196c-.297-1.709-1.777-3.012-3.555-3.012-.308 0-.613.04-.909.117A4.405 4.405 0 0 0 6.699 0C4.614 0 2.854 1.429 2.364 3.416A3.916 3.916 0 0 0 0 7.037C0 8.219.542 9.275 1.378 10H0v4h2.586l-2 2h4.828L8 13.414V14c0 1.299 1.029 2 2 2h4c1.299 0 2-1.03 2-2V9.062l-.285-.362c.186-.438.299-.915.299-1.421z"/></g><g id="icon_x5F_bg"><path class="st2" d="M11.997 10H10v4h3v-3h-1.003z"/><path class="st3" d="M13.313 8h-3.35S9 8 9 9v5c0 1 .964 1 .964 1h4c1 0 1.036-1 1.036-1v-3.863L13.313 8zM14 12v2h-4V9h3v1h1v2zM9.133 4.125a1.61 1.61 0 0 1 1.5-1.057c.889 0 1.609.734 1.609 1.641 0 .34-.102.656-.273.919.123-.031.252-.052.387-.052.826 0 1.506.618 1.632 1.424h.388l.582.739c.026-.151.057-.301.057-.459 0-1.17-.74-2.168-1.771-2.539v-.025c0-1.457-1.171-2.644-2.609-2.644a2.58 2.58 0 0 0-1.193.29A3.435 3.435 0 0 0 6.699 1C4.902 1 3.42 2.395 3.247 4.176A2.933 2.933 0 0 0 1 7.037c0 .338.068.659.174.963h1.093A1.948 1.948 0 0 1 2 7.025c0-1.068.85-1.934 1.896-1.934.146 0 .285.02.42.052a2.567 2.567 0 0 1-.086-.624C4.23 3.127 5.336 2 6.699 2c1.233 0 2.246.922 2.434 2.125z"/></g><path class="st3" d="M5 9H3l2 2H1v2h4l-2 2h2l3-3z" id="color_x5F_decoration"/><g id="icon_x5F_fg"><path class="st4" d="M10 9h3v1h1v4h-4zM8 8h.258c.364-.65 1.063-1 1.741-1h3.988c-.126-.806-.806-1.424-1.632-1.424-.135 0-.264.021-.387.052.172-.263.273-.579.273-.919 0-.906-.721-1.641-1.609-1.641-.687 0-1.268.44-1.5 1.057C8.945 2.922 7.932 2 6.699 2 5.336 2 4.23 3.127 4.23 4.519c0 .218.035.424.086.625a1.857 1.857 0 0 0-.42-.052C2.85 5.092 2 5.957 2 7.025c0 .358.102.688.268.975h3.146l.958.958H8V8z"/></g></svg>