<svg xmlns="http://www.w3.org/2000/svg" viewBox="0 0 16 16"><style>.icon-canvas-transparent{opacity:0;fill:#f6f6f6}.icon-vs-out{fill:#f6f6f6}.icon-vs-bg{fill:#424242}.icon-vs-fg{fill:#f0eff1}</style><path class="icon-canvas-transparent" d="M16 16H0V0h16v16z" id="canvas"/><path class="icon-vs-out" d="M16 15H0V1h16v14z" id="outline"/><path class="icon-vs-bg" d="M1 2v12h14V2H1zm13 11H2V5h12v8zm-8-3a1 1 0 1 1-2 0 1 1 0 0 1 2 0zm2-1a1 1 0 1 0 0 2 1 1 0 0 0 0-2zm3 0a1 1 0 1 0 0 2 1 1 0 0 0 0-2z" id="iconBg"/><g id="iconFg"><path class="icon-vs-fg" d="M14 4H6V3h8v1zM3 2.5a1 1 0 1 0 0 2 1 1 0 0 0 0-2zM2 5v8h12V5H2zm3 6a1 1 0 1 1 0-2 1 1 0 0 1 0 2zm3 0a1 1 0 1 1 0-2 1 1 0 0 1 0 2zm3 0a1 1 0 1 1 0-2 1 1 0 0 1 0 2z"/></g></svg>