<svg xmlns="http://www.w3.org/2000/svg" viewBox="0 0 16 16"><style>.icon-vs-out{fill:#f6f6f6}.icon-vs-blue{fill:#1ba1e2}.icon-canvas-transparent{opacity:0;fill:#f6f6f6}</style><path class="icon-canvas-transparent" d="M16 16H0V0h16v16z" id="canvas"/><path class="icon-vs-out" d="M16 8A8 8 0 1 1 0 8a8 8 0 0 1 16 0z" id="outline"/><g id="iconBg"><path class="icon-vs-blue" d="M6.006 1.292a6.958 6.958 0 0 1 6.163 1.094c-1.112-.113-2.612.034-4.281.935-.628-.676-1.217-1.352-1.882-2.029zm7.286 2.135c-.653.015-2.224.157-4.217 1.236a89.415 89.415 0 0 0 2.374 2.27c.619-.361 1.548-.258 2.013.413.361.413.413 1.032.258 1.496.439.351.787.585 1.076.807C14.925 9.12 15 8.569 15 8c0-1.75-.646-3.346-1.708-4.573zm.067 5.931c-.052 0-.052.052-.103.052-.722.516-1.703.413-2.219-.31-.31-.464-.413-1.084-.155-1.6-.929-.722-1.91-1.496-2.787-2.322a12 12 0 0 0-1.91 1.548l-.258.259c.413.671.361 1.496-.052 2.167.155.103.31.258.413.361.671.516 1.29.929 1.961 1.29.619-.361 1.445-.206 1.91.361.155.155.207.413.258.568 1.592.455 2.726.386 3.33.258.374-.537.672-1.13.884-1.762a62.368 62.368 0 0 1-1.272-.87zm-10.787.104l-.155-.155c-.619-.722-.619-1.806 0-2.58a4.067 4.067 0 0 1-.383-2.375A6.951 6.951 0 0 0 1 8a6.96 6.96 0 0 0 1.166 3.865c.053-.709.156-1.555.406-2.403zm.723-3.509c.413-.103.774-.103 1.187-.052.103-.155.206-.206.258-.31a14.233 14.233 0 0 1 2.013-1.703c-.7-.7-1.298-1.443-1.79-2.188a7.02 7.02 0 0 0-2.234 1.704c-.04.627.033 1.483.566 2.549zm6.916 6.759c-.052.103-.206.258-.31.361a1.371 1.371 0 0 1-2.013-.258 1.142 1.142 0 0 1-.31-.98 27.522 27.522 0 0 1-2.065-1.342c-.258-.103-.465-.31-.619-.464-.361.155-.671.155-1.032.155-.435 1.159-.502 2.301-.468 3.079A6.97 6.97 0 0 0 8 15a6.971 6.971 0 0 0 4.873-1.981 12.098 12.098 0 0 1-2.662-.307z"/></g></svg>