<svg xmlns="http://www.w3.org/2000/svg" viewBox="0 0 16 16"><style>.icon-canvas-transparent{opacity:0;fill:#f6f6f6}.icon-vs-out{fill:#f6f6f6}.icon-vs-fg{fill:#f0eff1}.graph-blue{fill:#117ad1}</style><path class="icon-canvas-transparent" d="M16 16H0V0h16v16z" id="canvas"/><path class="icon-vs-out" d="M15.986 12.773c0 1.622-1.175 2.992-2.731 3.186-.03.012-.159.041-.317.041H7.243c-1.47 0-2.701-1.035-3.097-2.441C2.028 13.202 0 12.321 0 10.832V2.836C0 .994 2.996 0 5.814 0 8.383 0 12 .904 12 2.914v4.875c1.318.117 2.417 1.092 2.723 2.4a3.278 3.278 0 0 1 1.263 2.584z" id="outline"/><path class="graph-blue" d="M5.649 9.658C6.116 8.089 7.503 7 9.124 7c.669 0 1.315.201 1.876.553V2.914C11 1.938 8.432 1 5.814 1S1 1.898 1 2.836v7.996c0 .707 1.329 1.356 3.006 1.686.03-1.197.662-2.28 1.643-2.86zm.272-7.836c1.81 0 3.277.419 3.277.936s-1.467.936-3.277.936-3.277-.419-3.277-.936 1.467-.936 3.277-.936zm7.883 8.963c-.072-1.126-.971-2.02-2.064-2.02-.236 0-.466.043-.682.123A2.562 2.562 0 0 0 9.124 8C7.812 8 6.72 9.019 6.517 10.349 5.635 10.673 5 11.571 5 12.607 5 13.917 5.978 15 7.243 15h5.694c.066 0 .131-.022.193-.034 1.051-.13 1.855-1.072 1.855-2.193.001-.869-.482-1.629-1.181-1.988zM13 14H7s-1.122-.137-1.122-1.412c0-.768.625-1.389 1.322-1.389.097 0 .22.016.31.038a1.957 1.957 0 0 1-.042-.451c0-1.003.743-1.813 1.649-1.813.819 0 1.497.665 1.622 1.531.154-.444.542-.761.999-.761.591 0 1.07.527 1.07 1.181 0 .246-.067.473-.181.662a.992.992 0 0 1 .258-.036c.608 0 1.133.545 1.133 1.216C14.017 13.941 13 14 13 14z" id="iconBg"/><g id="iconFg"><path class="icon-vs-fg" d="M9.111 7.001a3.54 3.54 0 0 0-1.058.171 1.334 1.334 0 0 1-.097-.506v-.68c0-.384-.236-.577-.706-.577V4.79c.641 0 1.105.092 1.393.277.288.185.432.5.432.946v.759c0 .087.016.16.036.229zM4.75 10.452v-.449c-.249 0-.429-.045-.539-.136-.11-.09-.165-.244-.165-.461v-.679c0-.541-.226-.881-.678-1.018v-.013c.452-.139.678-.474.678-1.004v-.706c0-.384.235-.577.704-.577V4.79c-.646 0-1.112.092-1.4.277-.287.185-.431.504-.431.96v.739c0 .422-.223.633-.669.633v.61c.446 0 .669.203.669.61v.795c0 .453.145.768.436.945.27.165.699.249 1.272.261.039-.059.08-.114.123-.168zm1.171-6.758c1.81 0 3.277-.419 3.277-.936s-1.467-.936-3.277-.936-3.277.419-3.277.936 1.467.936 3.277.936zM13 14H7s-1.122-.114-1.122-1.412c0-.768.625-1.389 1.322-1.389.097 0 .22.016.31.038a1.957 1.957 0 0 1-.042-.451c0-1.003.743-1.813 1.649-1.813.819 0 1.497.665 1.622 1.531.154-.444.542-.761.999-.761.591 0 1.07.527 1.07 1.181 0 .246-.067.473-.181.662a.992.992 0 0 1 .258-.036c.608 0 1.133.545 1.133 1.216C14.017 13.949 13 14 13 14z"/></g></svg>