<svg xmlns="http://www.w3.org/2000/svg" viewBox="0 0 16 16"><style>.icon-canvas-transparent{opacity:0;fill:#f6f6f6}.icon-vs-out{fill:#f6f6f6}.icon-vs-fg{fill:#f0eff1}.icon-vs-action-blue{fill:#00539c}.icon-hyperlink-blue{fill:#0e70c0}.icon-vs-blue{fill:#1ba1e2}</style><path class="icon-canvas-transparent" d="M16 16H0V0h16v16z" id="canvas"/><path class="icon-vs-out" d="M2 16v-3H0V0h16v13h-2v3H2z" id="outline"/><path class="icon-vs-blue" d="M15 12V1H1v11h5v2H3v1h10v-1h-3v-2h5zM2 11V2h12v9H2z" id="iconBg"/><path class="icon-vs-fg" d="M2 11V2h12v9H2z" id="iconFg"/><g id="colorImportance"><path class="icon-vs-action-blue" d="M11.358 4.278L8 6.056 4.642 4.278 8 2.5z"/><path class="icon-hyperlink-blue" d="M4.444 8.426L7.707 10.5l-.003-3.852-3.26-1.778z"/><path class="icon-vs-blue" d="M8.302 6.648L8.296 10.5l3.26-2.074V4.87z"/></g></svg>