<svg xmlns="http://www.w3.org/2000/svg" viewBox="0 0 16 16"><style>.icon-canvas-transparent{opacity:0;fill:#f6f6f6}.icon-vs-out{fill:#f6f6f6}.icon-vs-bg{fill:#424242}.icon-vs-fg{fill:#f0eff1}.icon-vs-blue{fill:#1ba1e2}</style><path class="icon-canvas-transparent" d="M16 16H0V0h16v16z" id="canvas"/><path class="icon-vs-out" d="M16 15H0V1h16v14z" id="outline"/><g id="iconBg"><path class="icon-vs-blue" d="M3 2.5a1 1 0 1 0 0 2 1 1 0 0 0 0-2zM1 5v9h14V5H1zm4 6a1 1 0 1 1 0-2 1 1 0 0 1 0 2zm3 0a1 1 0 1 1 0-2 1 1 0 0 1 0 2zm3 0a1 1 0 1 1 0-2 1 1 0 0 1 0 2z"/><path class="icon-vs-bg" d="M1 2v3h14V2H1zm2 2.5a1 1 0 1 1 0-2 1 1 0 0 1 0 2zM14 4H6V3h8v1z"/></g><g id="iconFg"><path class="icon-vs-fg" d="M14 4H6V3h8v1zm-9 7a1 1 0 1 1 0-2 1 1 0 0 1 0 2zm3 0a1 1 0 1 1 0-2 1 1 0 0 1 0 2zm3 0a1 1 0 1 1 0-2 1 1 0 0 1 0 2z"/></g></svg>