<svg xmlns="http://www.w3.org/2000/svg" viewBox="0 0 16 16"><style>.icon-canvas-transparent{opacity:0;fill:#f6f6f6}.icon-vs-out{fill:#f6f6f6}.icon-vs-bg{fill:#424242}.icon-vs-fg{fill:#f0eff1}</style><path class="icon-canvas-transparent" d="M16 16H0V0h16v16z" id="canvas"/><path class="icon-vs-out" d="M15 3.25v9.595c0 1.852-2.583 2.925-5.445 3.155h-2.36C4.313 15.775 1 14.743 1 12.751V3.156C1 1.319 3.722.23 6.621 0h2.271C11.675.226 15 1.274 15 3.25z" id="outline"/><g id="iconBg"><path class="icon-vs-bg" d="M8 8h1v3H8z"/><path class="icon-vs-bg" d="M7.777.952C4.637.952 2 2.031 2 3.156v9.595c0 1.219 3.289 2.297 6.383 2.297S14 14.017 14 12.845V3.249C14 2.077 10.918.952 7.777.952zm.192.987c2.207 0 3.997.503 3.997 1.124 0 .621-1.789 1.124-3.997 1.124-2.207 0-3.997-.503-3.997-1.124 0-.621 1.79-1.124 3.997-1.124zM6 8H4v1h2v3H3v-1h2v-1H3V7h3v1zm4.646 5.354L9.293 12H7V7h3v4.293l1.354 1.353-.708.708zM13 12h-2V7h1v4h1v1z"/></g><g id="iconFg"><path class="icon-vs-fg" d="M4 8v1h2v3H3v-1h2v-1H3V7h3v1H4zm6.646 5.354L9.293 12H7V7h3v4.293l1.354 1.353-.708.708zM8 11h1V8H8v3zm4 0V7h-1v5h2v-1h-1zM3.972 3.062c0 .621 1.789 1.124 3.997 1.124 2.207 0 3.997-.503 3.997-1.124 0-.62-1.789-1.124-3.997-1.124-2.207.001-3.997.504-3.997 1.124z"/></g></svg>