<svg xmlns="http://www.w3.org/2000/svg" viewBox="0 0 16 16"><style>.icon-canvas-transparent{opacity:0;fill:#f6f6f6}.icon-vs-out{fill:#f6f6f6}.icon-vs-bg{fill:#424242}.icon-vs-fg{fill:#f0eff1}</style><path class="icon-canvas-transparent" d="M16 16H0V0h16v16z" id="canvas"/><path class="icon-vs-out" d="M15.001 7.622c0 .073-.004.378-.009.378h-.002c-.115 3-2.916 6.075-6.374 6.136L9.619 16H1.042l1.689-2.346C.068 11.219.029 9.076.001 7.488c-.035-1.97.715-3.828 2.111-5.249C3.523.803 5.487 0 7.501 0c3.912 0 7.129 3.051 7.466 6.877.023.218.034.521.034.745z" id="outline"/><path class="icon-vs-bg" d="M13.972 6.937A6.498 6.498 0 0 0 7.5 1C3.91 1 .936 3.911 1 7.5c.032 1.805.145 3.671 3.082 6.007L3 15h5l-2-4-1.112 1.483c-1.55-1.083-2.646-2.39-2.646-4.426C2.242 4.744 4.686 2 8 2c.085 0 .168.009.253.012A5.497 5.497 0 0 0 3 7.5c0 1.46.573 2.784 1.502 3.769L6 9l1.988 3.974a5.5 5.5 0 0 0 5.984-6.037zm-3.144 3.598L8 8V4h1v3.293l2.535 2.536-.707.706z" id="iconBg"/><g id="iconFg"><path class="icon-vs-fg" d="M10.828 10.535L8 8V4h1v3.293l2.535 2.536-.707.706z"/></g></svg>