<svg xmlns="http://www.w3.org/2000/svg" viewBox="0 0 16 16"><style>.icon-canvas-transparent{opacity:0;fill:#f6f6f6}.icon-vs-out{fill:#f6f6f6}.icon-vs-fg{fill:#f0eff1}.icon-vs-blue{fill:#1ba1e2}.graph-yellow{fill:#fcb714}</style><path class="icon-canvas-transparent" d="M16 16H0V0h16v16z" id="canvas"/><path class="icon-vs-out" d="M8.891 0h-2.27C3.722.23 1 1.319 1 3.156v9.595C1 14.743 4.313 15.775 7.195 16h2.36C12.417 15.77 15 14.696 15 12.845V3.25C15 1.274 11.675.226 8.891 0z" id="outline"/><g id="iconBg"><ellipse class="graph-yellow" cx="8" cy="2.75" rx="5" ry="1.75"/><path class="icon-vs-blue" d="M8 5.7c-2.631 0-5.275-.666-6-2.124v9.175c0 1.219 3.289 2.297 6.383 2.297S14 14.017 14 12.845V3.576C13.275 5.034 10.631 5.7 8 5.7zM8 12H7V8.707l-1.217 2.672a.31.31 0 0 1-.566 0L4 8.707V12H3V7h1l1.231 2.128a.31.31 0 0 0 .538 0L7 7h1v5zm5 1.471a.53.53 0 0 1-.529.529H9v-1h3v-1H9.529A.53.53 0 0 1 9 11.471V9h1v2h2V9h1v4.471z"/></g><g id="iconFg"><path class="icon-vs-fg" d="M8 7v5H7V8.707l-1.217 2.672a.31.31 0 0 1-.566 0L4 8.707V12H3V7h1l1.231 2.128a.31.31 0 0 0 .538 0L7 7h1zm4 2v2h-2V9H9v2.471a.53.53 0 0 0 .529.529H12v1H9v1h3.471a.53.53 0 0 0 .529-.529V9h-1z"/></g></svg>