<svg xmlns="http://www.w3.org/2000/svg" width="16" height="16"><style type="text/css">.icon-canvas-transparent{opacity:0;fill:#F6F6F6;} .icon-vs-out{fill:#F6F6F6;} .icon-vs-bg{fill:#424242;}</style><path class="icon-canvas-transparent" d="M16 16h-16v-16h16v16z" id="canvas"/><path class="icon-vs-out" d="M16 7.997v5.749c0 1.548-2.217 2.254-4.276 2.254-1.899 0-4.724-.614-4.724-2.308v-1.692h-6v-6h-1v-1.481l5.649-4.519h.702l5.649 4.519v1.196c1.946.092 4 .723 4 2.282z" id="outline"/><path class="icon-vs-bg" d="M6 6h1v1h-1v-1zm0 3h1v-1h-1v1zm1 1h-1v1h1v-1zm2-3.969c.317-.094.653-.167 1-.219v-.812h1l-5-4-5 4h1v6h1v-6h6v1.031zm-5 2.969h1v-1h-1v1zm0 2h1v-1h-1v1zm10.994-2.525c-.032-.816-1.581-1.475-3.494-1.475s-3.462.659-3.494 1.475l-.006-.008v5.225c0 .694 1.919 1.308 3.723 1.308s3.277-.587 3.277-1.255v-5.278l-.006.008zm-3.494 1.525c-1.381 0-2.5-.446-2.5-.997s1.119-.997 2.5-.997 2.5.446 2.5.997-1.119.997-2.5.997z" id="iconBg"/></svg>