<svg xmlns="http://www.w3.org/2000/svg" width="16" height="16"><style type="text/css">.icon-canvas-transparent{opacity:0;fill:#F6F6F6;} .icon-vs-out{fill:#F6F6F6;} .icon-vs-bg{fill:#424242;}</style><path class="icon-canvas-transparent" d="M16 16h-16v-16h16v16z" id="canvas"/><path class="icon-vs-out" d="M16 8.5c0 4.142-3.358 7.5-7.5 7.5-4.142 0-7.5-3.358-7.5-7.5 0-3.103 1.885-5.766 4.572-6.906.625-.958 1.702-1.594 2.928-1.594s2.303.636 2.928 1.594c2.687 1.14 4.572 3.803 4.572 6.906z" id="outline"/><g id="iconBg"><path class="icon-vs-bg" d="M11.949 2.998c.024.165.051.33.051.502 0 .271-.04.534-.1.79 1.228.994 2.016 2.511 2.016 4.21 0 2.987-2.43 5.417-5.417 5.417-2.987 0-5.417-2.43-5.417-5.417 0-1.699.788-3.217 2.016-4.21-.058-.256-.098-.519-.098-.79 0-.172.027-.337.051-.502-1.831 1.15-3.051 3.181-3.051 5.502 0 3.59 2.91 6.5 6.5 6.5s6.5-2.91 6.5-6.5c0-2.321-1.22-4.352-3.051-5.502z"/><path class="icon-vs-bg" d="M8.5 1c-1.381 0-2.5 1.119-2.5 2.5 0 1.209.859 2.218 2 2.45v2.05h-2v1h2v1h-2v1h2v1h1v-6.05c1.141-.232 2-1.24 2-2.45 0-1.381-1.119-2.5-2.5-2.5zm0 4.167c-.919 0-1.667-.747-1.667-1.667s.748-1.667 1.667-1.667 1.667.748 1.667 1.667-.748 1.667-1.667 1.667z"/></g></svg>