<svg xmlns="http://www.w3.org/2000/svg" viewBox="0 0 16 16" enable-background="new 0 0 16 16"><style type="text/css">.icon-canvas-transparent{opacity:0;fill:#F6F6F6;} .icon-vs-out{fill:#F6F6F6;} .icon-vs-bg{fill:#424242;} .icon-vs-fg{fill:#F0EFF1;}</style><path class="icon-canvas-transparent" d="M16 16h-16v-16h16v16z" id="canvas"/><path class="icon-vs-out" d="M14.769 0l-3.289 4.698-1.064-3.194-1.416 2.266v-1.27c0-1.199-.985-2.103-2.574-2.5h-3.852c-1.589.397-2.574 1.301-2.574 2.5v10.75c0 1.899 2.26 2.75 4.5 2.75h11.5v-16h-1.231z" id="outline"/><path class="icon-vs-fg" d="M7 2.5c0 .193-.859.75-2.5.75s-2.5-.557-2.5-.75.859-.75 2.5-.75 2.5.557 2.5.75zm-5 1.252v9.498c0 .192.859.75 2.5.75s2.5-.558 2.5-.75v-9.498c-.668.326-1.583.498-2.5.498s-1.832-.172-2.5-.498zm12 .834v9.414h-6.297c.188-.216.297-.466.297-.75v-4.107l1.861-2.978.979 2.936 3.16-4.515zm-3 6.414h-1v1h1v-1zm2 0h-1v1h1v-1z" id="iconFg"/><path class="icon-vs-bg" d="M11.16 6.899l-1.021-3.064-2.139 3.422v-4.757c0-2.298-7-2.298-7 0v10.75c0 1.148 1.761 1.75 3.5 1.75h10.5v-13.586l-3.84 5.485zm-6.66-5.149c1.641 0 2.5.557 2.5.75s-.859.75-2.5.75-2.5-.557-2.5-.75.859-.75 2.5-.75zm-2.5 11.5v-9.498c.668.326 1.583.498 2.5.498s1.832-.172 2.5-.498v9.498c0 .192-.859.75-2.5.75s-2.5-.558-2.5-.75zm12 .75h-6.297c.188-.216.297-.466.297-.75v-4.107l1.861-2.978.979 2.936 3.16-4.515v9.414zm-4-3h1v1h-1v-1zm3 1h-1v-1h1v1z" id="iconBg"/></svg>