<svg xmlns="http://www.w3.org/2000/svg" viewBox="0 0 16 16"><style>.icon-canvas-transparent{opacity:0;fill:#f6f6f6}.icon-vs-out{fill:#f6f6f6}.icon-vs-bg{fill:#424242}.icon-vs-blue{fill:#1ba1e2}.icon-f12-information{fill:#00bcf2}.icon-f12-pressed-bg{fill:#b2d7f0}</style><path class="icon-canvas-transparent" d="M16 16H0V0h16v16z" id="canvas"/><path class="icon-vs-out" d="M5 16l1.366-2.366L8 14.25l1.634-.616L11 16h.538L16 13.416V2.554L11.532 0H11L9.634 2.366 8 2l-1.634.366L5 0h-.532L0 2.554v10.862L4.463 16z" id="outline"/><g id="iconBg"><path class="icon-vs-bg" d="M2 12.268L5 14l-.5.866L1 12.84V3.134l3.5-2L5 2 2 3.732v8.536zm12 0L11 14l.5.866L15 12.84V3.134l-3.5-2L11 2l3 1.732v8.536z"/><path class="icon-vs-blue" d="M12.25 5.188L8 7.438l-4.25-2.25L8 2.938z"/><path class="icon-f12-information" d="M3.5 10.438l4.129 2.625-.004-4.875L3.5 5.938z"/><path class="icon-f12-pressed-bg" d="M8.382 8.188l-.007 4.875 4.125-2.625v-4.5z"/></g></svg>