<svg xmlns="http://www.w3.org/2000/svg" viewBox="0 0 16 16"><style>.icon-canvas-transparent{opacity:0;fill:#f6f6f6}.icon-vs-out{fill:#f6f6f6}.icon-visualstudio{fill:#68217a}</style><path class="icon-canvas-transparent" d="M16 16H0V0h16v16z" id="canvas"/><path class="icon-vs-out" d="M16 8v8H0v-6h1.317C1.021 9 .85 8.705.85 8.101.85 6.364 2.263 4.826 4 4.826c1.426 0 2.616 1.083 3 2.431V7h.017c-.474-.766-.767-1.605-.767-2.5C6.25 2.156 8.157.125 10.5.125c2.344 0 4.25 2.094 4.25 4.438C14.75 5.865 14.161 7 13.236 8H16z" id="outline"/><g id="iconBg"><path class="icon-visualstudio" d="M7.25 4.251a3.25 3.25 0 1 1 6.502 0 3.25 3.25 0 0 1-6.502 0zm5.179 4.251L10.5 11.6 8.571 8.502 7.126 8.5c-.054 0-.209.5-.443 1.5H8v5h7V8.5l-2.571.002zM1.85 7.85a2.15 2.15 0 1 0 4.298.002A2.15 2.15 0 0 0 1.85 7.85M5.337 11l-1.301 1.8L2.735 11H1v4h6v-4H5.337z"/></g></svg>