<svg xmlns="http://www.w3.org/2000/svg" viewBox="0 0 16 16"><style>.icon-canvas-transparent{opacity:0;fill:#f6f6f6}.icon-vs-out{fill:#f6f6f6}.icon-vs-fg{fill:#f0eff1}.graph-frame-lime{fill:#9eca00}</style><path class="icon-canvas-transparent" d="M16 16H0V0h16v16z" id="canvas"/><path class="icon-vs-out" d="M15 3.556V12c0 .97-.701 2-2 2 0 .97-.701 2-2 2H3c-.97 0-2-.701-2-2V4c0-1.299 1.03-2 2-2C3 .701 4.03 0 5 0h6.061L15 3.556z" id="outline"/><path class="graph-frame-lime" d="M14 4v8s-.038.97-1 .995V5h-.615L10 2.848V2H4c0-1 .964-1 .964-1h5.677L14 4zm-2 2v8s-.035 1-1.035 1h-8S2 15 2 14V4c0-1 .964-1 .964-1h5.677L12 6zm-1 1H8V4H3v10h8V7z" id="iconBg"/><path class="icon-vs-fg" d="M3 4h5v3h3v7H3V4z" id="iconFg"/><g id="colorImportance"><path class="graph-frame-lime" d="M6 13c-.512 0-.884-.076-1.116-.227-.232-.151-.349-.421-.349-.81v-.682c0-.349-.179-.523-.535-.523v-.523c.357 0 .535-.181.535-.543V9.06c0-.39.115-.664.345-.822C5.11 8.079 5.483 8 6 8v.531c-.376 0-.563.165-.563.494v.605c0 .455-.181.742-.542.861v.011c.362.117.542.408.542.872v.582c0 .186.044.317.132.395.088.079.232.118.431.118V13zm4-2.241c-.36 0-.54.177-.54.531v.656c0 .4-.114.675-.344.827C8.887 12.924 8.515 13 8 13v-.531c.198 0 .341-.038.43-.115.09-.077.134-.207.134-.391v-.605c0-.452.18-.736.54-.849v-.011c-.36-.119-.54-.416-.54-.889v-.583c0-.33-.188-.494-.564-.494V8c.513 0 .884.079 1.115.237.23.158.345.429.345.811v.651c0 .358.18.537.54.537v.523z"/></g></svg>