<svg xmlns="http://www.w3.org/2000/svg" viewBox="0 0 16 16"><style>.icon-canvas-transparent{opacity:0;fill:#f6f6f6}.icon-vs-out{fill:#f6f6f6}.icon-vs-fg{fill:#f0eff1}.icon-vs-blue{fill:#1ba1e2}.graph-frame-lime{fill:#9eca00}</style><path class="icon-canvas-transparent" d="M16 16H0V0h16v16z" id="canvas"/><path class="icon-vs-out" d="M15 6.14v7.556c0 1.356-1.74 2.166-4.54 2.166-.585 0-1.489-.011-1.489-.011l-2.497-.041C3.809 15.766 1 15.051 1 13.178V2.642C1 .725 4.078.044 6.747.044 9.539.044 13 .725 13 2.642v1.626c1.356.329 2 .974 2 1.872z" id="outline"/><g id="iconBg"><path class="icon-vs-blue" d="M6 13.736c0 .415.181.771.489 1.073C3.823 14.765 2 14.056 2 13.177V3c.313 1.328 3.147 1.506 5.023 1.506.151 0 .312-.002.478-.006C6.551 4.888 6 5.491 6 6.266v7.47zm7.999-7.381c-.186.66-.78 1.129-1.376 1.355L11.228 10h1.67L9.05 14.191l-.965-.013 1.889-3.159-1.998-.032 3.272-3.056c-.264.018-.522.028-.749.028C9.193 7.96 7.375 7.896 7 6.358v7.378c0 .604 1.386 1.125 3.459 1.125 2.073 0 3.541-.518 3.541-1.166l-.001-7.34z"/><path class="graph-frame-lime" d="M2.958 2.642c0-.55 1.8-1 4-1s3.95.45 3.95 1-1.8 1-3.95 1c-2.15 0-4-.45-4-1zM10.5 7c-1.496 0-2.75-.375-2.75-.75 0-.429 1.254-.75 2.75-.75s2.75.375 2.75.75S11.947 7 10.5 7z"/></g><g id="iconFg"><path class="icon-vs-fg" d="M8.086 14.171L9.975 11H7.977L11.2 7.9l1.423-.19L11.228 10h1.67L9.05 14.177l-.964-.006z"/></g></svg>