<svg xmlns="http://www.w3.org/2000/svg" width="16" height="16"><style type="text/css">.icon-canvas-transparent{opacity:0;fill:#F6F6F6;} .icon-vs-out{fill:#F6F6F6;} .icon-vs-bg{fill:#424242;}</style><path class="icon-canvas-transparent" d="M16 16h-16v-16h16v16z" id="canvas"/><path class="icon-vs-out" d="M16.01 9.297c0 1.904-1.402 3.494-3.262 3.697l-.054.006h-8.816c-2.141-.037-3.868-1.807-3.868-3.946 0-1.611.943-3.018 2.362-3.628.488-1.993 2.248-3.426 4.332-3.426 1.14 0 2.207.427 3.022 1.191.295-.077.601-.117.907-.117 1.777 0 3.258 1.307 3.554 3.021 1.112.655 1.823 1.87 1.823 3.202z" id="outline"/><path class="icon-vs-bg" d="M4.2 12h-.322c-1.589-.027-2.868-1.348-2.868-2.946 0-1.397.961-2.57 2.245-2.869.172-1.787 1.653-3.185 3.448-3.185.988 0 1.871.434 2.504 1.12-.166-.026-.333-.052-.507-.052-.345 0-.672.068-.985.167-.309-.144-.649-.232-1.012-.232-1.362 0-2.466 1.13-2.466 2.526 0 .218.035.425.086.627-.135-.032-.273-.053-.42-.053-1.046 0-1.895.868-1.895 1.939 0 .784.456 1.465 1.109 1.776l-.049.049 1.132 1.133zm8.8-5.249v-.026c0-1.461-1.05-2.651-2.487-2.651-.315 0-.551.073-.834.178.544.182 1.053.496 1.43.913.638.218 1.117.827 1.117 1.554 0 .336-.093.648-.26.909l.003.012c.122-.031.251-.051.384-.051.915 0 1.657.76 1.657 1.695 0 .908-.698 1.671-1.576 1.716h-5.234l-1 1h6.44c1.341-.147 2.25-1.318 2.25-2.703 0-1.173-.89-2.174-1.89-2.546zm-4.3-1.883c-1.381 0-2.5 1.119-2.5 2.5 0 .432.12.833.313 1.188l-2.313 2.312 1 1 2.313-2.313c.355.194.756.313 1.187.313 1.381 0 2.5-1.119 2.5-2.5s-1.119-2.5-2.5-2.5zm0 4c-.828 0-1.5-.672-1.5-1.5s.672-1.5 1.5-1.5 1.5.672 1.5 1.5-.671 1.5-1.5 1.5z" id="iconBg"/></svg>