<?xml version="1.0" encoding="utf-8"?>
<!-- Generator: Adobe Illustrator 19.1.0, SVG Export Plug-In . SVG Version: 6.00 Build 0)  -->
<svg version="1.1" xmlns="http://www.w3.org/2000/svg" xmlns:xlink="http://www.w3.org/1999/xlink" x="0px" y="0px" width="16px"
	 height="16px" viewBox="0 0 16 16" style="enable-background:new 0 0 16 16;" xml:space="preserve">
<style type="text/css">
	.icon_x002D_canvas_x002D_transparent{opacity:0;fill:#F6F6F6;}
	.icon_x002D_vs_x002D_out{fill:#F6F6F6;}
	.icon_x002D_white{fill:#FFFFFF;}
	.icon_x002D_vs_x002D_blue{fill:#1BA1E2;}
	.graph_x002D_frame_x002D_lime{fill:#9ECA00;}
</style>
<g id="canvas">
	<path class="icon_x002D_canvas_x002D_transparent" d="M16,16H0V0h16V16z"/>
</g>
<g id="outline">
	<path class="icon_x002D_vs_x002D_out" d="M16,7.586v0.828L8.414,16H7.586L0,8.414V7.586L7.586,0h0.828L16,7.586z"/>
</g>
<g id="iconBg">
	<path class="icon_x002D_vs_x002D_blue" d="M8,1L1,8l7,7l7-7L8,1z"/>
</g>
<g id="iconFg">
	<path class="graph_x002D_frame_x002D_lime" d="M8.287,8.72C5.967,8.72,5,7.913,5,7v1.5C5,9.413,5.967,10,8.287,10
		C10.607,10,11,9.378,11,8.5V7.07C11,7.948,10.607,8.72,8.287,8.72z"/>
	<path class="icon_x002D_white" d="M8,4C6.515,4,5,4.588,5,5.347v5.309C5,11.369,5.967,12,8.287,12S11,11.396,11,10.71V5.347
		C11,4.588,9.578,4,8,4z M8,6.859c-1.243,0-2.25-0.441-2.25-0.984c0-0.544,1.007-0.984,2.25-0.984s2.25,0.441,2.25,0.984
		C10.25,6.419,9.243,6.859,8,6.859z"/>
</g>
<g id="colorImportance">
	<path class="graph_x002D_frame_x002D_lime" d="M8.287,8.72C5.967,8.72,5,7.913,5,7v1.5C5,9.413,5.967,10,8.287,10
		C10.607,10,11,9.378,11,8.5V7.07C11,7.948,10.607,8.72,8.287,8.72z"/>
</g>
</svg>
