<svg xmlns="http://www.w3.org/2000/svg" viewBox="0 0 16 16"><style>.icon-canvas-transparent{opacity:0;fill:#f6f6f6}.icon-vs-out{fill:#f6f6f6}.icon-vs-blue{fill:#1ba1e2}.graph-frame-lime{fill:#9eca00}</style><path class="icon-canvas-transparent" d="M0 0h16v16H0z" id="canvas"/><path class="icon-vs-out" d="M16 6.586l-4-4L9.586 5l1.038 1.038a1.991 1.991 0 0 0-1.124.653C9.133 6.271 8.6 6 8 6s-1.133.271-1.5.691a1.991 1.991 0 0 0-1.124-.653L6.414 5 4 2.586l-4 4v2.828l4 4L6.414 11 5.376 9.962A1.991 1.991 0 0 0 6.5 9.309c.367.42.9.691 1.5.691s1.133-.271 1.5-.691c.288.33.677.568 1.124.653L9.586 11 12 13.414l4-4V6.586z" id="outline"/><g id="iconBg"><circle class="graph-frame-lime" cx="8" cy="8" r="1"/><circle class="graph-frame-lime" cx="5" cy="8" r="1"/><circle class="graph-frame-lime" cx="11" cy="8" r="1"/><path class="icon-vs-blue" d="M4 4L0 8l4 4 1-1-3-3 3-3zM12 4l-1 1 3 3-3 3 1 1 4-4z"/></g></svg>