<svg xmlns="http://www.w3.org/2000/svg" viewBox="0 0 16 16" enable-background="new 0 0 16 16"><style type="text/css">.icon-canvas-transparent{opacity:0;fill:#F6F6F6;} .icon-vs-out{fill:#F6F6F6;} .icon-vs-bg{fill:#424242;} .icon-vs-fg{fill:#F0EFF1;}</style><path class="icon-canvas-transparent" d="M16 16h-16v-16h16v16z" id="canvas"/><path class="icon-vs-out" d="M16 1v14h-15v-14h15z" id="outline"/><path class="icon-vs-fg" d="M14 13h-11v-8h11v8zm0-9h-11v-1h11v1z" id="iconFg"/><g id="iconBg"><path class="icon-vs-bg" d="M13 6h-1v1h-1v-1h-1v1h-1v-1h-5v6h9v-6zm-1 5h-7v-3h7v3z"/><path class="icon-vs-bg" d="M2 2v12h13v-12h-13zm12 11h-11v-8h11v8zm0-9h-11v-1h11v1z"/></g></svg>