<svg xmlns="http://www.w3.org/2000/svg" viewBox="0 0 16 16"><style>.icon-canvas-transparent{opacity:0;fill:#f6f6f6}.icon-vs-out{fill:#f6f6f6}.icon-vs-bg{fill:#424242}.icon-vs-fg{fill:#f0eff1}</style><path class="icon-canvas-transparent" d="M16 16H0V0h16v16z" id="canvas"/><path class="icon-vs-out" d="M4 15c-.97 0-2-.701-2-2V3c0-1.299 1.03-2 2-2h6.061L14 4.556V13c0 .97-.701 2-2 2H4z" id="outline"/><path class="icon-vs-bg" d="M9.641 2H3.964S3 2 3 3v10c0 1 .965 1 .965 1h8c1 0 1.035-1 1.035-1V5L9.641 2zM12 13H4V3h5v3h3v7z" id="iconBg"/><path class="icon-vs-fg" d="M4 3h5v3h3v7H4V3z" id="iconFg"/><g id="colorImportance"><path class="icon-vs-bg" d="M7 12c-.512 0-.884-.076-1.116-.227-.232-.151-.349-.421-.349-.81v-.682c0-.349-.179-.523-.535-.523v-.522c.357 0 .535-.181.535-.543V8.06c0-.39.115-.664.345-.822C6.11 7.079 6.483 7 7 7v.531c-.376 0-.563.165-.563.494v.605c0 .455-.181.742-.542.861v.011c.362.117.542.408.542.872v.582c0 .186.044.317.132.395.088.079.232.118.431.118V12zm4-2.241c-.36 0-.54.177-.54.531v.656c0 .4-.114.675-.344.827C9.887 11.924 9.515 12 9 12v-.531c.198 0 .341-.038.43-.115.09-.077.134-.207.134-.391v-.605c0-.452.18-.736.54-.849v-.012c-.36-.119-.54-.416-.54-.889v-.582c0-.33-.188-.494-.564-.494V7c.513 0 .884.079 1.115.237.231.158.346.428.346.811v.651c0 .358.18.537.54.537v.523z"/></g></svg>