<svg xmlns="http://www.w3.org/2000/svg" width="16" height="16"><style type="text/css">.icon-canvas-transparent{opacity:0;fill:#F6F6F6;} .icon-vs-out{fill:#F6F6F6;} .icon-vs-fg{fill:#F0EFF1;} .graph-frame-lime{fill:#9ECA00;}</style><path class="icon-canvas-transparent" d="M16 16h-16v-16h16v16z" id="canvas"/><path class="icon-vs-out" d="M1 16v-14.393l1.607-1.607h12.393v13.879l-2.121 2.121h-11.879z" id="outline"/><path class="graph-frame-lime" d="M14 1v12.465l-1.536 1.535h-10.464v-12.979l1.021-1.021h10.979z" id="iconBg"/><path class="icon-vs-fg" d="M13 2v12.465l-.536.535h-.464v-12h-9v-.464l.536-.536h9.464zm-5 11l1.348-3h1.652v-1h-2.243l-.757 2-2-6-1.348 4h-1.652v1h2.243l.757-3 2 6z" id="iconFg"/></svg>