<svg xmlns="http://www.w3.org/2000/svg" viewBox="0 0 16 16"><style>.icon-canvas-transparent{opacity:0;fill:#f6f6f6}.icon-vs-out{fill:#f6f6f6}.icon-vs-bg{fill:#424242}.icon-vs-fg{fill:#f0eff1}</style><path class="icon-canvas-transparent" d="M16 16H0V0h16v16z" id="canvas"/><path class="icon-vs-out" d="M4 16v-3H2.061L0 10.8V2.046L2.063 0h11.702L16 2.018v8.81L13.767 13H8.468l-1.982 3H4z" id="outline"/><g id="iconBg"><path class="icon-vs-bg" d="M10 5V3l3 3H2V5zM6 8v2L3 7h11v1z"/><path class="icon-vs-bg" d="M13.523 1H2.622L1 2.46v7.928L2.622 12H8.08l1.982 3H11v-3h2.523L15 10.388V2.46L13.523 1zM14 7H3l3 3V8h8v1.999L13.083 11H10v2.091L8.619 11H3.035L2 9.972V6h11l-3-3v2H2V2.905L3.006 2h10.106l.888.877V7z"/></g><g id="iconFg"><path class="icon-vs-fg" d="M14 7H3l3 3V8h8v1.999L13.083 11H10v2.091L8.619 11H3.035L2 9.972V6h11l-3-3v2H2V2.905L3.006 2h10.106l.888.877V7z"/></g></svg>