<svg xmlns="http://www.w3.org/2000/svg" viewBox="0 0 16 16"><style>.icon-canvas-transparent{opacity:0;fill:#f6f6f6}.icon-vs-out{fill:#f6f6f6}.icon-vs-bg{fill:#424242}</style><path class="icon-canvas-transparent" d="M16 0v16H0V0h16z" id="canvas"/><path class="icon-vs-out" d="M16 6.488v3.091c-.034.065-.06.164-.06.343v2.017c0 .914-.332 3.043-3.408 3.078l-1.012.012V12H9V9H8v3H5.5v3.027l-1.011-.012c-3.089-.035-3.422-2.164-3.422-3.078V9.921C1.066 9.594 1 9.489 1 9.488l-.937-.06L0 8.499V6.563l.942-.06c.058 0 .124-.113.124-.451V4.09c0-1.949 1.248-3.081 3.422-3.105L5.5.973V4.02l-.975.023a.572.572 0 0 0-.093.01c.006.021-.019.115-.019.297V6H6V2h5v4h1.614V4.35c0-.167-.021-.26-.034-.302l-1.06-.028V.973l1.011.011c2.167.024 3.409 1.156 3.409 3.105v1.962c0 .261.039.387.06.437z" id="outline"/><g id="iconBg"><path class="icon-vs-bg" d="M3.656 12.638c.162.208.443.316.844.325v1.053c-1.623-.019-2.434-.711-2.434-2.078V9.921c0-.902-.355-1.376-1.066-1.422v-.998c.711-.045 1.066-.529 1.066-1.449V4.09c0-1.385.811-2.087 2.434-2.105v1.06c-.725.017-1.087.453-1.087 1.305v1.928c0 .92-.454 1.488-1.36 1.702V8c.907.201 1.36.763 1.36 1.688v1.907c0 .488.081.836.243 1.043zM10 9v2h3V9h-1V7H9V5h1V3H7v2h1v2H5v2H4v2h3V9H6V8h5v1h-1zm4.941-2.948V4.09c0-1.385-.807-2.087-2.42-2.105v1.06c.729.018 1.094.454 1.094 1.306v1.928c0 .92.449 1.488 1.347 1.702V8c-.898.201-1.347.763-1.347 1.688v1.907c0 .483-.083.83-.25 1.039-.166.21-.447.319-.844.328v1.053c1.613-.019 2.42-.711 2.42-2.078V9.921c0-.902.353-1.376 1.059-1.422v-.998c-.706-.045-1.059-.529-1.059-1.449z"/></g></svg>