<svg xmlns="http://www.w3.org/2000/svg" width="16" height="16"><style type="text/css">.icon-canvas-transparent{opacity:0;fill:#F6F6F6;} .icon-vs-out{fill:#F6F6F6;} .icon-vs-bg{fill:#424242;} .icon-vs-blue{fill:#1BA1E2;} .graph-yellow{fill:#FCB714;}</style><path class="icon-canvas-transparent" d="M16 16h-16v-16h16v16z" id="canvas"/><path class="icon-vs-out" d="M12 6v-2h-5v2h3v3h3v1h3v6h-16v-6h3v-4h-3v-6h16v6h-4z" id="outline"/><path class="icon-vs-bg" d="M15 1v4h-2v-2h-10v2h-2v-4h14zm-2 10v2h-10v-2h-2v4h14v-4h-2z" id="iconBg"/><g id="iconFg"><path class="icon-vs-blue" d="M6 6h-2v-2h2v2zm0 1h-2v2h2v-2zm0 3h-2v2h2v-2z"/><path class="graph-yellow" d="M9 9h-2v-2h2v2zm0 1h-2v2h2v-2zm3 0h-2v2h2v-2z"/></g></svg>