<svg xmlns="http://www.w3.org/2000/svg" width="16" height="16"><style type="text/css">.icon-canvas-transparent{opacity:0;fill:#F6F6F6;} .icon-vs-out{fill:#F6F6F6;} .icon-vs-bg{fill:#424242;} .icon-vs-fg{fill:#F0EFF1;}</style><path class="icon-canvas-transparent" d="M16 16h-16v-16h16v16z" id="canvas"/><path class="icon-vs-out" d="M13 10.9v3.1h-4.6l2 2h-4.8l-4-4 1.2-1.2c-1.6-.5-2.8-2-2.8-3.8 0-1.6.9-3 2.4-3.6.5-2 2.2-3.4 4.3-3.4 1.1 0 2.2.4 3 1.2.3-.1.6-.1.9-.1 1.8 0 3.3 1.3 3.6 3 1.1.6 1.8 1.8 1.8 3.2 0 1.8-1.3 3.3-3 3.6z" id="outline"/><path class="icon-vs-bg" d="M6 11h6v2h-6l2 2h-2l-3-3 1.9-2h2l-.9 1zm2-6l2 2h-6v2h6l-1 1h2l2-2-3-3h-2zm5-.3c0-1.5-1-2.7-2.5-2.7-.4 0-.8.1-1.1.3-.7-.8-1.6-1.3-2.7-1.3-1.8 0-3.3 1.4-3.5 3.2-1.3.3-2.2 1.4-2.2 2.8 0 1.3.8 2.4 2 2.8v-1.1c-.6-.3-1-.9-1-1.7 0-1 .8-1.9 1.9-1.9.1 0 .3 0 .4.1 0-.3-.1-.5-.1-.7 0-1.4 1.1-2.5 2.5-2.5 1.2 0 2.2.9 2.4 2h.1c.3-.5.8-.9 1.4-.9.9 0 1.6.7 1.6 1.6 0 .3-.1.6-.3.9h.3c.9 0 1.7.8 1.7 1.7v.3l.5.4-2 2h.2c1.3-.1 2.3-1.3 2.3-2.7 0-1.2-.9-2.2-1.9-2.6z" id="iconBg"/><path class="icon-vs-fg" d="M12 5.6h.3c.9 0 1.7.8 1.7 1.7v.3l-2-2zm-9 3.1v-2.7h4.6l-2-2h3.5c-.2-1.1-1.2-2-2.4-2-1.4 0-2.5 1.1-2.5 2.5 0 .2 0 .4.1.6h-.4c-1.1 0-1.9.9-1.9 1.9 0 .8.4 1.4 1 1.7zm7.4-4.7l1.6 1.6c.2-.3.3-.5.3-.9 0-.9-.7-1.6-1.6-1.6-.7 0-1.2.4-1.5.9h1.2z" id="iconFg"/></svg>