<svg xmlns="http://www.w3.org/2000/svg" viewBox="0 0 16 16"><style>.icon-canvas-transparent{opacity:0;fill:#f6f6f6}.icon-vs-out{fill:#f6f6f6}.icon-vs-fg{fill:#f0eff1}.icon-vs-blue{fill:#1ba1e2}.graph-frame-lime{fill:#9eca00}</style><path class="icon-canvas-transparent" d="M16 16H0V0h16v16z" id="canvas"/><path class="icon-vs-out" d="M8.891 0h-2.27C3.722.23 1 1.319 1 3.156v9.595C1 14.743 4.313 15.775 7.195 16h2.36C12.417 15.77 15 14.696 15 12.845V3.25C15 1.274 11.675.226 8.891 0zM9 11H8V8h1v3z" id="outline"/><g id="iconBg"><path class="graph-frame-lime" d="M8 1c2.761 0 5 .784 5 1.75 0 .967-2.239 1.75-5 1.75s-5-.784-5-1.75S5.239 1 8 1z"/><path class="icon-vs-blue" d="M8 8h1v3H8V8zm6-4.424v9.269c0 1.172-2.523 2.203-5.617 2.203C5.289 15.047 2 13.969 2 12.751V3.576C2.725 5.034 5.369 5.7 8 5.7s5.275-.666 6-2.124zM6 7H3v3h2v1H3v1h3V9H4V8h2V7zm5.354 5.646L10 11.293V7H7v5h2.293l1.354 1.354.707-.708zM13 11h-1V7h-1v5h2v-1z"/></g><g id="iconFg"><path class="icon-vs-fg" d="M6 8H4v1h2v3H3v-1h2v-1H3V7h3v1zm7 4h-2V7h1v4h1v1zm-3-.707V7H7v5h2.293l1.354 1.354.707-.707L10 11.293zM9 11H8V8h1v3z"/></g></svg>