<svg xmlns="http://www.w3.org/2000/svg" viewBox="0 0 16 16"><style>.icon-canvas-transparent{opacity:0;fill:#f6f6f6}.icon-vs-out{fill:#f6f6f6}.icon-vs-bg{fill:#424242}.icon-vs-fg{fill:#f0eff1}</style><path class="icon-canvas-transparent" d="M16 16H0V0h16v16z" id="canvas"/><path class="icon-vs-out" d="M15.986 12.773c0 1.622-1.175 2.992-2.731 3.186a1.096 1.096 0 0 1-.317.041H0V0h10v7.124c.49.127.954.346 1.352.667.128-.017.257-.025.387-.025 1.434 0 2.657 1.029 2.983 2.423a3.276 3.276 0 0 1 1.264 2.584z" id="outline"/><path class="icon-vs-bg" d="M4 12.607c0-1.232.644-2.354 1.649-2.949C6.104 8.13 7.434 7.065 9 7.01V1H1v14h3.947A3.46 3.46 0 0 1 4 12.607zM4 2h4v1H4V2zm0 2h4v1H4V4zm0 2h4v1H4V6zM3 7H2V6h1v1zm0-2H2V4h1v1zm0-2H2V2h1v1zm10.804 7.785c-.072-1.126-.971-2.02-2.064-2.02-.236 0-.466.043-.682.123A2.562 2.562 0 0 0 9.124 8C7.812 8 6.72 9.019 6.517 10.349 5.635 10.673 5 11.571 5 12.607 5 13.917 5.978 15 7.243 15h5.694c.066 0 .131-.022.193-.034 1.051-.13 1.855-1.072 1.855-2.193.001-.869-.482-1.629-1.181-1.988zM13 13.981V14H7v-.023c0-.012-1.122-.623-1.122-1.389 0-.768.625-1.389 1.322-1.389.097 0 .22.016.31.038a1.957 1.957 0 0 1-.042-.451c0-1.003.743-1.813 1.649-1.813.819 0 1.497.665 1.622 1.531.154-.444.542-.761.999-.761.591 0 1.07.527 1.07 1.181 0 .246-.067.473-.181.662a.992.992 0 0 1 .258-.036c.608 0 1.133.545 1.133 1.216-.001.654-.018 1.181-1.018 1.215z" id="iconBg"/><g id="iconFg"><path class="icon-vs-fg" d="M3 3H2V2h1v1zm0 1H2v1h1V4zm5-2H4v1h4V2zm0 2H4v1h4V4zM3 6H2v1h1V6zm5 0H4v1h4V6zm6.017 6.767c0-.671-.525-1.216-1.133-1.216a.992.992 0 0 0-.258.036c.114-.189.181-.416.181-.662 0-.653-.479-1.181-1.07-1.181-.457 0-.845.316-.999.761-.125-.866-.803-1.531-1.622-1.531-.906 0-1.649.81-1.649 1.813 0 .157.008.305.042.451a1.377 1.377 0 0 0-.31-.038c-.696 0-1.322.621-1.322 1.389C5.878 13.354 7 13.965 7 13.977V14h6v-.019c1-.034 1.017-.561 1.017-1.214z"/></g></svg>