<svg xmlns="http://www.w3.org/2000/svg" viewBox="0 0 16 16"><style>.icon-canvas-transparent{opacity:0;fill:#f6f6f6}.icon-vs-bg{fill:#424242}.icon-vs-fg{fill:#f0eff1}.icon-vs-blue{fill:#1ba1e2}.graph-frame-lime{fill:#9eca00}.icon-vs-out{fill:#f6f6f6}</style><path class="icon-canvas-transparent" d="M16 16H0V0h16v16z" id="canvas"/><path class="icon-vs-out" d="M14 7.76V3.25C14 1.274 10.675.226 7.891 0h-2.27C2.722.23 0 1.319 0 3.156v9.595C0 14.743 3.313 15.775 6.195 16h2.36c.55-.044 1.09-.12 1.603-.226.427.134.871.226 1.342.226A4.5 4.5 0 0 0 14 7.76zM7 8h1v.703A4.45 4.45 0 0 0 7.05 11H7V8z" id="outline"/><g id="iconBg"><path class="graph-frame-lime" d="M7 1c2.761 0 5 .784 5 1.75S9.761 4.5 7 4.5s-5-.784-5-1.75S4.239 1 7 1z"/><path class="icon-vs-blue" d="M8 8.703A4.45 4.45 0 0 0 7.05 11H7V8h1v.703zm5-5.127v3.7A4.445 4.445 0 0 0 11.5 7c-.171 0-.334.032-.5.05V7h-1 .001c-.354 0-.694.554-1.001.76V7H6v5h1.029a4.487 4.487 0 0 0 1.654 2.983c-.418.041-.852.064-1.3.064C4.289 15.047 1 13.969 1 12.751V3.576C1.725 5.034 4.369 5.7 7 5.7s5.275-.666 6-2.124zM5 7H2v3h2v1H2v1h3V9H3V8h2V7zm3.728.98c-.094.076-.193.147-.28.231.089-.083.185-.156.28-.231z"/><path class="icon-vs-bg" d="M14.214 12.158c-.069.285-.183.55-.331.795l.768.984a3.972 3.972 0 0 1-.712.713l-.985-.768c-.244.149-.51.262-.795.332l-.154 1.234c-.168.022-.332.052-.505.052s-.337-.029-.504-.051l-.154-1.234a2.806 2.806 0 0 1-.795-.332l-.985.767a3.972 3.972 0 0 1-.712-.713l.768-.984a2.792 2.792 0 0 1-.331-.795l-1.235-.154c-.023-.167-.052-.331-.052-.504s.029-.337.051-.504l1.235-.154c.069-.285.183-.551.331-.795l-.767-.984c.207-.268.445-.506.712-.713l.985.768c.244-.148.51-.262.795-.331l.154-1.235c.167-.022.331-.052.504-.052s.337.029.504.051l.154 1.235c.285.069.551.183.795.331l.985-.768c.267.207.505.445.712.713l-.768.984c.148.244.262.51.331.795l1.235.154c.022.167.051.331.051.504s-.029.337-.051.504l-1.234.155zM11.5 9.5a2 2 0 1 0-.001 4.001A2 2 0 0 0 11.5 9.5zm0 1a1 1 0 1 0 0 2 1 1 0 1 0 0-2z"/></g><g id="iconFg"><path class="icon-vs-fg" d="M10 7.276V7h1v.05a4.431 4.431 0 0 0-1 .226zM2 10h2v1H2v1h3V9H3V8h2V7H2v3zm5 1.5c0-.171.032-.334.05-.5H7V8h1v.703c.288-.36.616-.686 1-.944V7H6v5h1.05c-.018-.166-.05-.329-.05-.5z"/></g></svg>