<svg xmlns="http://www.w3.org/2000/svg" width="16" height="16"><style type="text/css">.icon-canvas-transparent{opacity:0;fill:#F6F6F6;} .icon-vs-out{fill:#F6F6F6;} .icon-vs-bg{fill:#424242;} .icon-vs-fg{fill:#F0EFF1;}</style><path class="icon-canvas-transparent" d="M16 16h-16v-16h16v16z" id="canvas"/><path class="icon-vs-out" d="M16 7v9h-9v-.1c-3.9-.5-7-3.8-7-7.9 0-4.4 3.6-8 8-8 4.1 0 7.4 3.1 8 7z" id="outline"/><path class="icon-vs-bg" d="M8 8v7h7v-7h-7zm6 6h-5v-1h5v1zm0-2h-5v-1h5v1zm0-2h-5v-1h5v1zm-7.8-1c.3-.6.4-1.3 0-1.8l.2-.2c.6-.6 1.2-1 1.7-1.3.5.5 1 .9 1.6 1.3h1.1c-.6-.5-1.2-1.1-1.8-1.8 2.1-1.1 3.7-1 3.8-1l.1.1c.6.8.9 1.7 1.1 2.7h.9c-.2-1.1-.6-2.2-1.4-3.2-1.3-1.8-3.5-2.7-5.5-2.7-1.5 0-3 .4-4.2 1.4-3 2.3-3.7 6.7-1.3 9.7 1.2 1.5 2.8 2.4 4.5 2.7v-1c-1-.2-2-.6-2.9-1.3 0-.7 0-1.7.4-2.7.3 0 .6 0 .9-.1.1.1.3.3.5.4.4.3.7.5 1.1.7v-1.3l-.4-.3-.4-.3zm1.9-7c1.3 0 2.7.5 3.8 1.4-1-.2-2.4-.1-4 .7l-1.7-1.8c.6-.2 1.3-.3 1.9-.3zm-5 9.4c-1.5-2-1.4-4.8 0-6.8-.2.5-.3 1.4.2 2.4-.5.7-.5 1.6 0 2.2l.1.1c-.2.7-.3 1.5-.3 2.1zm2.2-5.4l-.2.3h-1c-.6-1.1-.5-2-.4-2.5.1-.3.3-.4.6-.6l1-.7c.4.7 1 1.4 1.7 2-.6.5-1.1.9-1.7 1.5z" id="iconBg"/><path class="icon-vs-fg" d="M14 10h-5v-1h5v1zm0 1h-5v1h5v-1zm0 2h-5v1h5v-1z" id="iconFg"/></svg>