<svg xmlns="http://www.w3.org/2000/svg" viewBox="0 0 16 16"><style>.icon-canvas-transparent{opacity:0;fill:#f6f6f6}.icon-vs-out{fill:#f6f6f6}.icon-vs-bg{fill:#424242}.icon-vs-blue{fill:#1ba1e2}.icon-f12-hover-bg{fill:#d9ebf7}.icon-f12-pressed-bg{fill:#b2d7f0}.icon-white{fill:#fff}</style><path class="icon-canvas-transparent" d="M16 16H0V0h16v16z" id="canvas"/><path class="icon-vs-out" d="M16 3v11h-3v2H5v-2H2v-3H0V0h14v3h2z" id="outline"/><path class="icon-vs-bg" d="M15 13V4H3v9h5v1H6v1h6v-1h-2v-1h5zM4 12V5h10v7H4zm-2-2H1V1h12v2h-1V2H2v8z" id="iconBg"/><path class="icon-vs-blue" d="M12 3H2V2h10v1zm2 9V5H4v7h10z" id="iconFg"/><g id="colorImportance"><path class="icon-white" d="M11.728 6.694L9 8.139 6.272 6.694 9 5.25l2.728 1.444z"/><path class="icon-f12-hover-bg" d="M6.111 10.065l2.651 1.685-.003-3.13-2.648-1.444z"/><path class="icon-f12-pressed-bg" d="M9.246 8.62l-.005 3.13 2.648-1.685V7.176z"/></g></svg>