<svg xmlns="http://www.w3.org/2000/svg" viewBox="0 0 16 16"><style>.icon-canvas-transparent{opacity:0;fill:#f6f6f6}.icon-vs-out{fill:#f6f6f6}.icon-vs-bg{fill:#424242}.icon-vs-fg{fill:#f0eff1}</style><path class="icon-canvas-transparent" d="M16 16H0V0h16v16z" id="canvas"/><path class="icon-vs-out" d="M2 16v-3H0V0h16v13h-2v3H2z" id="outline"/><path class="icon-vs-bg" d="M15 12V1H1v11h5v2H3v1h10v-1h-3v-2h5zM2 11V2h12v9H2z" id="iconBg"/><path class="icon-vs-fg" d="M2 11V2h12v9H2z" id="iconFg"/><g id="colorImportance"><path class="icon-vs-bg" d="M8 3L5 4.75v3.5L8 10l3-1.75v-3.5L8 3zm-.429 6L5.7 8V5.5l1.871 1V9zM5.9 4.9L8 3.7l2.1 1.2L8 5.996 5.9 4.9zM10.3 8L8.429 9V6.5l1.871-1V8z"/></g></svg>