<svg xmlns="http://www.w3.org/2000/svg" viewBox="0 0 16 16"><style>.icon-canvas-transparent{opacity:0;fill:#f6f6f6}.icon-vs-out{fill:#f6f6f6}.icon-vs-bg{fill:#424242}.icon-vs-fg{fill:#f0eff1}</style><path class="icon-canvas-transparent" d="M16 16H0V0h16v16z" id="canvas"/><path class="icon-vs-out" d="M16 7.586v.828L8.414 16h-.828L0 8.414v-.828L7.586 0h.828L16 7.586z" id="outline"/><path class="icon-vs-bg" d="M15 8l-7 7-7-7 7-7 7 7z" id="iconBg"/><g id="iconFg"><path class="icon-vs-fg" d="M12 8.5H4v-1h8v1zM8.5 4h-1v8h1V4z"/><path class="icon-vs-fg" d="M9 4a1 1 0 1 1-2 0 1 1 0 0 1 2 0zM4 7a1 1 0 1 0 0 2 1 1 0 0 0 0-2zm7 1a1 1 0 1 0 2 0 1 1 0 0 0-2 0zm-3 3a1 1 0 1 0 0 2 1 1 0 0 0 0-2zm1.5-3c0-.827-.673-1.5-1.5-1.5S6.5 7.173 6.5 8 7.173 9.5 8 9.5 9.5 8.827 9.5 8z"/></g><g id="colorImportance"><path class="icon-vs-bg" d="M9 8a1 1 0 1 1-2 0 1 1 0 0 1 2 0z"/></g></svg>