<svg xmlns="http://www.w3.org/2000/svg" width="16" height="16"><style type="text/css">.icon-canvas-transparent{opacity:0;fill:#F6F6F6;} .icon-vs-out{fill:#F6F6F6;} .icon-vs-blue{fill:#1BA1E2;} .icon-white{fill:#FFFFFF;} .graph-frame-lime{fill:#9ECA00;}</style><path class="icon-canvas-transparent" d="M16 16h-16v-16h16v16z" id="canvas"/><path class="icon-vs-out" d="M16 7.586v.828l-7.586 7.586h-.828l-7.586-7.586v-.828l7.586-7.586h.828l7.586 7.586z" id="outline"/><path class="icon-vs-blue" d="M15 8l-7 7-7-7 7-7 7 7z" id="iconBg"/><path class="icon-white" d="M12 6.5c-.323 0-.621.105-.866.28l-1.914-1.913c.175-.246.28-.544.28-.867 0-.827-.673-1.5-1.5-1.5s-1.5.673-1.5 1.5c0 .323.105.621.28.867l-1.913 1.913c-.246-.175-.544-.28-.867-.28-.827 0-1.5.673-1.5 1.5s.673 1.5 1.5 1.5c.268 0 .516-.076.734-.2l1.966 1.966c-.124.218-.2.466-.2.734 0 .827.673 1.5 1.5 1.5s1.5-.673 1.5-1.5c0-.268-.076-.516-.2-.734l1.966-1.966c.218.124.466.2.734.2.827 0 1.5-.673 1.5-1.5s-.673-1.5-1.5-1.5zm-4.734 4.2l-1.966-1.966c.124-.218.2-.466.2-.734 0-.323-.105-.621-.28-.867l1.913-1.913c.14.099.299.168.468.216l.006 5.123c-.121.033-.234.08-.341.141zm1.468 0c-.102-.058-.211-.104-.327-.137l-.006-5.128c.168-.047.327-.116.466-.215l1.913 1.913c-.175.246-.28.544-.28.867 0 .268.076.516.2.734l-1.966 1.966z" id="iconFg"/><path class="graph-frame-lime" d="M9 4c0 .552-.448 1-1 1s-1-.448-1-1 .448-1 1-1 1 .448 1 1zm-1 7c-.552 0-1 .448-1 1s.448 1 1 1 1-.448 1-1-.448-1-1-1zm-4-4c-.552 0-1 .448-1 1s.448 1 1 1 1-.448 1-1-.448-1-1-1zm8 0c-.552 0-1 .448-1 1s.448 1 1 1 1-.448 1-1-.448-1-1-1z" id="colorImportance"/></svg>