<svg xmlns="http://www.w3.org/2000/svg" viewBox="0 0 16 16"><style>.icon-canvas-transparent{opacity:0;fill:#f6f6f6}.icon-vs-out{fill:#f6f6f6}.icon-vs-bg{fill:#424242}.icon-vs-fg{fill:#f0eff1}.icon-disabled-grey{fill:#848484}.graph-yellow{fill:#fcb714}</style><path class="icon-canvas-transparent" d="M16 16H0V0h16v16z" id="canvas"/><path class="icon-vs-out" d="M16 15H1V1h15v14z" id="outline"/><g id="iconBg"><path class="icon-vs-bg" d="M2 2v12h13V2H2zm4 11H3v-2h3v2zm0-3H3V8h3v2zm0-3H3V5h3v2zm4 6H7v-2h3v2zm0-3H7V8h3v2zm0-3H7V5h3v2zm4 6h-3v-2h3v2zm0-3h-3V8h3v2zm0-3h-3V5h3v2z"/><path class="icon-disabled-grey" d="M2 5h13v9H2z"/></g><g id="iconFg"><path class="icon-vs-fg" d="M11 5h3v2h-3z"/><path class="graph-yellow" d="M11 8h3v2h-3z"/><path class="icon-vs-fg" d="M7 5h3v2H7z"/><path class="graph-yellow" d="M7 8h3v2H7z"/><path class="icon-vs-fg" d="M3 5h3v2H3zM3 8h3v2H3z"/><path class="graph-yellow" d="M11 11h3v2h-3zM7 11h3v2H7zM3 11h3v2H3z"/></g></svg>