<svg xmlns="http://www.w3.org/2000/svg" viewBox="0 0 16 16"><style>.icon-canvas-transparent{opacity:0;fill:#f6f6f6}.icon-vs-out{fill:#f6f6f6}.icon-vs-bg{fill:#424242}.icon-vs-fg{fill:#f0eff1}</style><path class="icon-canvas-transparent" d="M16 16H0V0h16v16z" id="canvas"/><path class="icon-vs-out" d="M16 11.5a4.5 4.5 0 0 1-4.5 4.5c-.471 0-.915-.092-1.342-.226-.513.106-1.053.182-1.603.226h-2.36C3.313 15.775 0 14.743 0 12.751V3.156C0 1.319 2.722.23 5.621 0h2.271C10.675.226 14 1.274 14 3.25v4.51c1.205.807 2 2.18 2 3.74z" id="outline"/><path class="icon-vs-bg" d="M7.05 12H6V7h3v.76a4.466 4.466 0 0 1 1-.484V7h1v.05c.166-.018.329-.05.5-.05.529 0 1.029.108 1.5.276V3.249C13 2.077 9.918.952 6.777.952 3.637.952 1 2.031 1 3.156v9.595c0 1.219 3.289 2.297 6.383 2.297.448 0 .882-.024 1.3-.064A4.47 4.47 0 0 1 7.05 12zM6.969 1.939c2.207 0 3.997.503 3.997 1.124 0 .621-1.789 1.124-3.997 1.124-2.207 0-3.997-.503-3.997-1.124 0-.621 1.79-1.124 3.997-1.124zM5 8H3v1h2v3H2v-1h2v-1H2V7h3v1zm2.05 3H7V8h1v.703A4.45 4.45 0 0 0 7.05 11zm7.164 1.158c-.069.285-.183.55-.331.795l.768.984a3.972 3.972 0 0 1-.712.713l-.985-.768c-.244.149-.51.262-.795.332l-.154 1.234c-.168.022-.332.052-.505.052s-.337-.029-.504-.051l-.154-1.234a2.806 2.806 0 0 1-.795-.332l-.985.767a3.972 3.972 0 0 1-.712-.713l.768-.984a2.792 2.792 0 0 1-.331-.795l-1.235-.154c-.023-.167-.052-.331-.052-.504s.029-.337.051-.504l1.235-.154c.069-.285.183-.551.331-.795l-.767-.984c.207-.268.445-.506.712-.713l.985.768c.244-.148.51-.262.795-.331l.154-1.235c.167-.022.331-.052.504-.052s.337.029.504.051l.154 1.235c.285.069.551.183.795.331l.985-.768c.267.207.505.445.712.713l-.768.984c.148.244.262.51.331.795l1.235.154c.022.167.051.331.051.504s-.029.337-.051.504l-1.234.155zM11.5 9.5a2 2 0 1 0-.001 4.001A2 2 0 0 0 11.5 9.5zm0 1a1 1 0 1 0 0 2 1 1 0 1 0 0-2z" id="iconBg"/><g id="iconFg"><path class="icon-vs-fg" d="M10 7h1v.05a4.485 4.485 0 0 0-1 .225V7zM6.969 4.186c2.207 0 3.997-.503 3.997-1.124 0-.62-1.789-1.124-3.997-1.124-2.207 0-3.997.503-3.997 1.124 0 .621 1.79 1.124 3.997 1.124zM2 7v3h2v1H2v1h3V9H3V8h2V7H2zm5 4.5c0-.171.032-.334.05-.5H7V8h1v.703c.288-.36.616-.686 1-.944V7H6v5h1.05c-.018-.166-.05-.329-.05-.5z"/></g></svg>