<svg xmlns="http://www.w3.org/2000/svg" width="16" height="16"><style type="text/css">.icon-canvas-transparent{opacity:0;fill:#F6F6F6;} .icon-vs-out{fill:#F6F6F6;} .icon-vs-bg{fill:#424242;} .icon-vs-fg{fill:#F0EFF1;} .icon-vs-action-blue{fill:#00539C;}</style><path class="icon-canvas-transparent" d="M16 16h-16v-16h16v16z" id="canvas"/><path class="icon-vs-out" d="M15.7 8.7l.3.4v4.9c0 1-.7 2-2 2h-4c-1 0-2-.7-2-2v-.6l-2.6 2.6h-4.8l2-2h-2.6v-4h1.4c-.9-.7-1.4-1.8-1.4-3 0-1.6.9-3 2.4-3.6.5-2 2.2-3.4 4.3-3.4 1.1 0 2.2.4 3 1.2.3-.1.6-.1.9-.1 1.8 0 3.3 1.3 3.6 3 1.1.6 1.8 1.8 1.8 3.2 0 .5-.1 1-.3 1.4z" id="outline"/><path class="icon-vs-bg" d="M13.3 8h-3.3s-1 0-1 1v5c0 1 1 1 1 1h4l1-1v-3.9l-1.7-2.1zm.7 4v2h-4v-5h3v1h1v2zm-7.3-10c-1.4 0-2.5 1.1-2.5 2.5 0 .2 0 .4.1.6h-.4c-1.1 0-1.9.9-1.9 1.9 0 .4.1.7.3 1h-1.1c-.1-.3-.2-.6-.2-1 0-1.4 1-2.6 2.2-2.9.2-1.7 1.7-3.1 3.5-3.1 1.1 0 2.1.5 2.7 1.4.4-.2.8-.3 1.2-.3 1.4 0 2.6 1.2 2.6 2.6 1 .4 1.8 1.4 1.8 2.5 0 .2 0 .3-.1.5l-.5-.7h-.4c-.1-.8-.8-1.4-1.6-1.4-.1 0-.3 0-.4.1.2-.3.3-.6.3-.9 0-.9-.7-1.6-1.6-1.6-.7 0-1.3.4-1.5 1.1-.3-1.4-1.3-2.3-2.5-2.3z" id="iconBg"/><path class="icon-vs-fg" d="M10 9h3v1h1v4h-4v-5zm-2-1h.3c.3-.7 1-1 1.7-1h4c-.1-.8-.8-1.4-1.6-1.4-.1 0-.3 0-.4.1.2-.3.3-.6.3-.9 0-.9-.7-1.6-1.6-1.6-.7 0-1.3.4-1.5 1.1-.3-1.4-1.3-2.3-2.5-2.3-1.4 0-2.5 1.1-2.5 2.5 0 .2 0 .4.1.6h-.4c-1.1 0-1.9.9-1.9 1.9 0 .4.1.7.3 1h3.1l1 1h1.6v-1z" id="iconFg"/><path class="icon-vs-action-blue" d="M8 12l-3 3h-2l2-2h-4v-2h4l-2-2h2l3 3z" id="colorAction"/></svg>