<svg xmlns="http://www.w3.org/2000/svg" width="16" height="16"><style type="text/css">.icon-canvas-transparent{opacity:0;fill:#F6F6F6;} .icon-vs-out{fill:#F6F6F6;} .icon-vs-bg{fill:#424242;} .icon-vs-fg{fill:#F0EFF1;}</style><path class="icon-canvas-transparent" d="M16 16h-16v-16h16v16z" id="canvas"/><path class="icon-vs-out" d="M16 15h-16v-14h16v14z" id="outline"/><path class="icon-vs-bg" d="M1 2v12h14v-12h-14zm13 11h-12v-8h1v5h3.592c.206.581.756 1 1.408 1 .828 0 1.5-.672 1.5-1.5s-.672-1.5-1.5-1.5c-.652 0-1.202.419-1.408 1h-2.592v-4h8v4h-.801c-.242-1.554-1.578-2.75-3.199-2.75-1.248 0-2.321.715-2.866 1.75h.878c.458-.603 1.175-1 1.988-1 1.379 0 2.5 1.122 2.5 2.5 0 1.379-1.121 2.5-2.5 2.5-.814 0-1.531-.396-1.987-1h-.879c.545 1.035 1.618 1.75 2.866 1.75 1.621 0 2.957-1.196 3.199-2.75h1.801v-5h1v8z" id="iconBg"/><path class="icon-vs-fg" d="M14 5v8h-12v-8h1v5h3.592c.206.581.756 1 1.408 1 .828 0 1.5-.672 1.5-1.5s-.672-1.5-1.5-1.5c-.652 0-1.202.419-1.408 1h-2.592v-4h8v4h-.801c-.242-1.554-1.578-2.75-3.199-2.75-1.248 0-2.321.715-2.866 1.75h.878c.458-.603 1.175-1 1.988-1 1.379 0 2.5 1.122 2.5 2.5 0 1.379-1.121 2.5-2.5 2.5-.814 0-1.531-.396-1.987-1h-.879c.545 1.035 1.618 1.75 2.866 1.75 1.621 0 2.957-1.196 3.199-2.75h1.801v-5h1z" id="iconFg"/></svg>