<svg xmlns="http://www.w3.org/2000/svg" width="16" height="16"><style type="text/css">.icon-canvas-transparent{opacity:0;fill:#F6F6F6;} .icon-vs-out{fill:#F6F6F6;} .icon-vs-bg{fill:#424242;} .icon-vs-fg{fill:#F0EFF1;}</style><path class="icon-canvas-transparent" d="M16 16h-16v-16h16v16z" id="canvas"/><path class="icon-vs-out" d="M16 15h-5v1h-7.75c-1.164 0-2.147-.388-2.718-1h-.532v-14h16v14z" id="outline"/><path class="icon-vs-bg" d="M8 11v-2l-2.5 2v-3.714c0-.71-1.007-1.286-2.25-1.286s-2.25.576-2.25 1.286v6.429c0 .709 1.007 1.285 2.25 1.285h6.75v-6l-2 2zm-1 2h-1v-1h1v1zm2 0h-1v-1h1v1zm6-11v12h-4v-1h3v-8h-12c-.392.068-.725.258-1 .426v-3.426h14z" id="iconBg"/><path class="icon-vs-fg" d="M2.75 5c1.853 0 3.76.982 3.76 2.286l-.01 1.633 2.5-2v1.667l2-2v6.414h3v-8h-11.25zm.5 3.138c-1.052 0-1.75-.48-1.75-.797 0-.317.698-.797 1.75-.797s1.75.479 1.75.797c0 .317-.698.797-1.75.797zm3.75 4.862h-1v-1h1v1zm2 0h-1v-1h1v1z" id="iconFg"/></svg>