<svg xmlns="http://www.w3.org/2000/svg" viewBox="0 0 16 16"><style>.icon-canvas-transparent{opacity:0;fill:#f6f6f6}.icon-vs-out{fill:#f6f6f6}.icon-vs-bg{fill:#424242}.icon-vs-fg{fill:#f0eff1}</style><path class="icon-canvas-transparent" d="M16 16H0V0h16v16z" id="canvas"/><path class="icon-vs-out" d="M16 3v11h-3v2H5v-2H2v-3H0V0h14v3h2z" id="outline"/><path class="icon-vs-bg" d="M15 13V4H3v9h5v1H6v1h6v-1h-2v-1h5zM4 12V5h10v7H4zm-2-2H1V1h12v2h-1V2H2v8z" id="iconBg"/><path class="icon-vs-fg" d="M12 3H2V2h10v1zm2 9V5H4v7h10z" id="iconFg"/><g id="colorImportance"><path class="icon-vs-bg" d="M9 5L6 6.75v3.5L9 12l3-1.75v-3.5L9 5zm-.429 6L6.7 10V7.5l1.871 1V11zM6.9 6.9L9 5.7l2.1 1.2L9 7.996 6.9 6.9zm4.4 3.1l-1.871 1V8.5l1.871-1V10z"/></g></svg>