<svg xmlns="http://www.w3.org/2000/svg" width="16" height="16"><style type="text/css">.icon-canvas-transparent{opacity:0;fill:#F6F6F6;} .icon-vs-out{fill:#F6F6F6;} .icon-vs-bg{fill:#424242;}</style><path class="icon-canvas-transparent" d="M16 16h-16v-16h16v16z" id="canvas"/><path class="icon-vs-out" d="M16 5.912v6.269l-5.563 3.499-4.829-3.108-.171.108-5.437-3.5v-6.269l5.5-2.911 5.5 2.912v.353l5 2.647z" id="outline"/><path class="icon-vs-bg" d="M9.75 3.381l-4.25 2.25-4.25-2.25 4.25-2.25 4.25 2.25zm-8.75 5.25l4.129 2.625-.004-4.875-4.125-2.25v4.5zm13.75-2.25l-4.25 2.25-4.25-2.25 4.25-2.25 4.25 2.25zm-8.75 5.25l4.129 2.625-.004-4.875-4.125-2.25v4.5zm4.882-2.25l-.007 4.875 4.125-2.625v-4.5l-4.118 2.25z" id="iconBg"/></svg>