<svg xmlns="http://www.w3.org/2000/svg" viewBox="0 0 16 16"><style>.icon-canvas-transparent{opacity:0;fill:#f6f6f6}.icon-vs-out{fill:#f6f6f6}.icon-vs-bg{fill:#424242}.icon-vs-fg{fill:#f0eff1}</style><path class="icon-canvas-transparent" d="M16 16H0V0h16v16z" id="canvas"/><path class="icon-vs-out" d="M1 16V0h13v1h1v13h-1v2H1z" id="outline"/><path class="icon-vs-bg" d="M5 7h2v1H5V7zm-1 6h1V9H4v4zm2 0h1V9H6v4zm2-1h2V9H8v3zm0-5v1h1V7H8zm5-2v2h1v6h-1v2H2V1h11v1h1v3h-1zm-1 0h-1V2H3v12h9v-1h-1V7h1V5zM5 6h5V3H5v3z" id="iconBg"/><g id="iconFg"><path class="icon-vs-fg" d="M12 7V5h-1V2H3v12h9v-1h-1V7h1zm-7 6H4V9h1v4zm2 0H6V9h1v4zm0-5H5V7h2v1zm3 4H8V9h2v3zM8 8V7h1v1H8zm2-2H5V3h5v3z"/></g></svg>