<svg xmlns="http://www.w3.org/2000/svg" viewBox="0 0 16 16"><style>.icon-canvas-transparent{opacity:0;fill:#f6f6f6}.icon-vs-out{fill:#f6f6f6}.icon-vs-bg{fill:#424242}.icon-vs-fg{fill:#f0eff1}</style><path class="icon-canvas-transparent" d="M16 16H0V0h16v16z" id="canvas"/><path class="icon-vs-out" d="M15 6.14v7.556c0 1.356-1.74 2.166-4.54 2.166-.585 0-1.489-.011-1.489-.011l-2.497-.041C3.809 15.766 1 15.051 1 13.178V2.642C1 .725 4.078.044 6.747.044 9.539.044 13 .725 13 2.642v1.626c1.356.329 2 .974 2 1.872z" id="outline"/><path class="icon-vs-bg" d="M6.003 13.736v-7.47c0-1.387 1.708-2.249 4.457-2.249.486 0 1.125.032 1.54.079V2.642c0-.864-2.446-1.598-5.253-1.598S2 1.778 2 2.642v10.535c0 .878 1.825 1.588 4.49 1.632-.307-.302-.487-.658-.487-1.073zM3.5 2.642c0-.475 1.554-.864 3.454-.864 1.9 0 3.411.389 3.411.864s-1.554.864-3.411.864c-1.856 0-3.454-.389-3.454-.864zm6.999 4.318c-1.36 0-2.5-.302-2.5-.604 0-.345 1.14-.604 2.5-.604s2.5.302 2.5.604-1.184.604-2.5.604zm-2.413 7.211l1.889-3.155-1.998-.03 4.056-3.788.984-.149-1.789 2.923h1.67L9.05 14.177l-.964-.006zm2.374-9.154c-2.029 0-3.457.559-3.457 1.249v7.47c0 .604 1.384 1.125 3.457 1.125S14 14.343 14 13.695V6.139c0-.647-1.553-1.122-3.54-1.122z" id="iconBg"/><g id="iconFg"><path class="icon-vs-fg" d="M3.5 2.642c0-.475 1.554-.864 3.454-.864 1.9 0 3.411.389 3.411.864s-1.554.864-3.411.864c-1.856 0-3.454-.389-3.454-.864zm6.999 4.318c-1.36 0-2.5-.302-2.5-.604 0-.345 1.14-.604 2.5-.604s2.5.302 2.5.604-1.184.604-2.5.604zm-2.413 7.211l1.889-3.155-1.998-.03 4.056-3.788.984-.149-1.789 2.923h1.67L9.05 14.177l-.964-.006z"/></g></svg>