<svg xmlns="http://www.w3.org/2000/svg" width="16" height="16"><style type="text/css">.icon-canvas-transparent{opacity:0;fill:#F6F6F6;} .icon-vs-out{fill:#F6F6F6;} .icon-vs-bg{fill:#424242;} .icon-vs-fg{fill:#F0EFF1;}</style><path class="icon-canvas-transparent" d="M16 16h-16v-16h16v16z" id="canvas"/><path class="icon-vs-out" d="M16 7v7h-2.7c-1.4 1.2-3.3 2-5.3 2-4.4 0-8-3.6-8-8s3.6-8 8-8c4.1 0 7.4 3.1 8 7z" id="outline"/><g id="iconBg"><path class="icon-vs-bg" d="M11.3 7z"/><path class="icon-vs-bg" d="M10.7 14l.1.4c.2-.1.5-.2.7-.4h-.8z"/><path class="icon-vs-bg" d="M7 14.8l.3-.8c-1.1-.1-2.2-.6-3.2-1.3 0-.7 0-1.7.4-2.7.3 0 .6 0 .9-.1.1.1.3.3.5.4.4.3.8.6 1.2.8.1-.3.4-.6.7-.8l-1.2-1-.4-.3c.3-.6.4-1.3 0-1.8l.2-.2c.6-.6 1.2-1 1.7-1.3.5.5 1 .9 1.6 1.3h1.1c-.6-.5-1.2-1.1-1.8-1.8 2.1-1.1 3.7-1 3.8-1l.1.1c.6.8.9 1.7 1.1 2.7h.9c-.2-1.1-.6-2.2-1.4-3.2-1.3-1.8-3.5-2.7-5.5-2.7-1.5 0-3 .4-4.2 1.4-3 2.3-3.7 6.7-1.3 9.7 1.1 1.5 2.8 2.4 4.5 2.6zm1.1-12.8c1.3 0 2.7.5 3.8 1.4-1-.2-2.4-.1-4 .7l-1.7-1.8c.6-.2 1.3-.3 1.9-.3zm-5 9.4c-1.5-2-1.4-4.8 0-6.8-.2.5-.3 1.4.2 2.4-.5.7-.5 1.6 0 2.2l.1.1c-.2.7-.3 1.5-.3 2.1zm.5-7.6c.2-.3.4-.4.7-.6l1-.7c.4.7 1 1.4 1.7 2-.6.5-1.1.9-1.7 1.5l-.2.3h-1c-.6-1.1-.6-2-.5-2.5zm5.9 6.2h-.5v-2h6v5h-4.1c.1-.2.1-.3.1-.5v-.5h3v-3h-4v1.1c-.2-.1-.3-.1-.5-.1zm3.5 0h-2v1h2v-1zm-3 2.5v-1c0-.3-.2-.5-.5-.5h-1c-.3 0-.5.2-.5.5v1c0 .3.2.5.5.5h.2l-.7 2h2l-.7-2h.2c.3 0 .5-.2.5-.5z"/></g><path class="icon-vs-fg" d="M10 9v1.1c.6.2 1 .8 1 1.4v.5h3v-3h-4zm3 2h-2v-1h2v1z" id="iconFg"/></svg>