<svg xmlns="http://www.w3.org/2000/svg" viewBox="0 0 16 16"><style>.icon-canvas-transparent{opacity:0;fill:#f6f6f6}.icon-vs-out{fill:#f6f6f6}.icon-vs-fg{fill:#f0eff1}.graph-yellow{fill:#fcb714}</style><path class="icon-canvas-transparent" d="M16 16H0V0h16v16z" id="canvas"/><path class="icon-vs-out" d="M8.001 16c-.386 0-.749-.169-.997-.464L6.18 14.4c-.194-.225-.18-.53-.18-.845V7.942C5 7.245 2.621 5.716 2.621 4.5c0-2.262 3.984-4.5 5.44-4.5 1.416 0 5.348 2.288 5.348 4.5C13.409 5.714 11 7.244 10 7.941v1.48c0 .28.034.539-.12.755.155.219.302.482.302.753 0 .272-.055.537-.211.755a1.283 1.283 0 0 1 .024 1.506c.157.221.249.499.243.788-.017.353-.15.657-.379.886l-.105.097-.944.755a1.294 1.294 0 0 1-.809.284z" id="outline"/><path class="graph-yellow" d="M7.77 14.893a.3.3 0 0 0 .418.042l.943-.755a.305.305 0 0 0 .112-.223.297.297 0 0 0-.096-.229l-.572-.535.572-.535a.288.288 0 0 0 .096-.22.304.304 0 0 0-.096-.219l-.574-.534.574-.536a.297.297 0 0 0 0-.437l-.572-.536.572-.534a.298.298 0 0 0 .096-.22l-.001-2.03c.41-.166 3.258-2.13 3.258-2.892C12.5 3.033 9.016 1 8 1 7 1 3.5 2.962 3.5 4.5c0 .762 2.851 2.726 3.259 2.891v6.178a.29.29 0 0 0 .069.192l.942 1.132z" id="iconBg"/><g id="iconFg"><path class="icon-vs-fg" d="M6.75 3.25a1.25 1.25 0 1 1 2.5 0 1.25 1.25 0 0 1-2.5 0z"/></g></svg>