<svg xmlns="http://www.w3.org/2000/svg" width="16" height="16"><style type="text/css">.icon-canvas-transparent{opacity:0;fill:#F6F6F6;} .icon-vs-out{fill:#F6F6F6;} .icon-vs-fg{fill:#F0EFF1;} .icon-vs-blue{fill:#1BA1E2;}</style><path class="icon-canvas-transparent" d="M16 16h-16v-16h16v16z" id="canvas"/><path class="icon-vs-out" d="M3.878 13c-2.141-.037-3.868-1.807-3.868-3.946 0-1.611.943-3.018 2.362-3.628.488-1.993 2.248-3.426 4.332-3.426 1.14 0 2.207.427 3.022 1.191.295-.077.601-.117.907-.117 1.777 0 3.258 1.307 3.554 3.021 1.112.654 1.823 1.87 1.823 3.202 0 1.904-1.402 3.494-3.262 3.697l-.054.006h-8.816z" id="outline"/><path class="icon-vs-blue" d="M7 7.5c0-.828.672-1.5 1.5-1.5s1.5.672 1.5 1.5-.672 1.5-1.5 1.5-1.5-.672-1.5-1.5zm6-.749v-.026c0-1.461-1.05-2.651-2.487-2.651-.426 0-.772.103-1.132.291-.635-.839-1.599-1.365-2.708-1.365-1.795 0-3.261 1.398-3.433 3.185-1.284.3-2.237 1.473-2.237 2.869 0 1.598 1.287 2.918 2.876 2.946h1.121l-1-1 2.313-2.313c-.193-.355-.313-.755-.313-1.187 0-1.381 1.119-2.5 2.5-2.5s2.5 1.119 2.5 2.5-1.119 2.5-2.5 2.5c-.432 0-.833-.12-1.188-.313l-2.312 2.313h7.64c1.341-.147 2.25-1.318 2.25-2.703 0-1.173-.89-2.174-1.89-2.546z" id="iconBg"/><path class="icon-vs-fg" d="M8.5 5c-1.381 0-2.5 1.119-2.5 2.5 0 .432.12.832.313 1.188l-2.313 2.312 1 1 2.313-2.313c.354.193.755.313 1.187.313 1.381 0 2.5-1.119 2.5-2.5s-1.119-2.5-2.5-2.5zm0 4c-.828 0-1.5-.672-1.5-1.5s.672-1.5 1.5-1.5 1.5.672 1.5 1.5-.672 1.5-1.5 1.5z" id="iconFg"/></svg>