<svg xmlns="http://www.w3.org/2000/svg" viewBox="0 0 16 16"><style>.icon-canvas-transparent{opacity:0;fill:#f6f6f6}.icon-vs-out{fill:#f6f6f6}.graph-yellow{fill:#fcb714}.icon-vs-fg{fill:#f0eff1}</style><path class="icon-canvas-transparent" d="M16 16H0V0h16v16z" id="canvas"/><path class="icon-vs-out" d="M9.514 16l-1.982-3H2.233L0 10.828v-8.81L2.235 0h11.702L16 2.046V10.8L13.939 13H12v3H9.514z" id="outline"/><path class="graph-yellow" d="M15 7H3l3 3V8h9v2.388L13.523 12H11v3h-.938L8.08 12H2.622L1 10.388V6h12l-3-3v2H1V2.46L2.622 1h10.901L15 2.46V7z" id="iconBg"/><g id="iconFg"><path class="icon-vs-fg" d="M10 5V3l3 3H1V5h9zM6 8v2L3 7h12v1H6z"/></g></svg>