<svg xmlns="http://www.w3.org/2000/svg" width="16" height="16"><style type="text/css">.icon-canvas-transparent{opacity:0;fill:#F6F6F6;} .icon-vs-out{fill:#F6F6F6;} .icon-vs-blue{fill:#1BA1E2;} .graph-frame-lime{fill:#9ECA00;}</style><path class="icon-canvas-transparent" d="M16 16h-16v-16h16v16z" id="canvas"/><path class="icon-vs-out" d="M16 7.997v5.749c0 1.548-2.217 2.254-4.276 2.254-1.899 0-4.724-.614-4.724-2.308v-1.692h-6v-6h-1v-1.481l5.649-4.519h.702l5.649 4.519v1.196c1.946.092 4 .723 4 2.282z" id="outline"/><g id="iconBg"><path class="icon-vs-blue" d="M6 6h1v1h-1v-1zm0 3h1v-1h-1v1zm1 1h-1v1h1v-1zm2-3.969c.317-.094.653-.167 1-.219v-.812h1l-5-4-5 4h1v6h1v-6h6v1.031zm2.5 3.646c-1.535 0-3.077-.379-3.5-1.21v5.225c0 .694 1.919 1.308 3.723 1.308 1.805 0 3.277-.587 3.277-1.255v-5.278c-.423.83-1.965 1.21-3.5 1.21z"/><path class="graph-frame-lime" d="M4 9h1v-1h-1v1zm0 2h1v-1h-1v1zm7.5-4c1.611 0 2.917.446 2.917.997 0 .55-1.306.997-2.917.997-1.611 0-2.917-.446-2.917-.997 0-.551 1.306-.997 2.917-.997z"/></g></svg>