<svg xmlns="http://www.w3.org/2000/svg" width="16" height="16"><style type="text/css">.icon-canvas-transparent{opacity:0;fill:#F6F6F6;} .icon-vs-out{fill:#F6F6F6;} .icon-vs-bg{fill:#424242;} .icon-vs-fg{fill:#F0EFF1;}</style><path class="icon-canvas-transparent" d="M16 16h-16v-16h16v16z" id="canvas"/><path class="icon-vs-out" d="M15 3.25v9.595c0 1.852-2.583 2.925-5.445 3.155h-2.36c-2.882-.225-6.195-1.257-6.195-3.249v-9.595c0-1.837 2.722-2.926 5.621-3.156h2.271c2.783.226 6.108 1.274 6.108 3.25z" id="outline"/><path class="icon-vs-bg" d="M7.777.952c-3.14 0-5.777 1.079-5.777 2.204v9.595c0 1.219 3.289 2.297 6.383 2.297s5.617-1.031 5.617-2.203v-9.596c0-1.172-3.082-2.297-6.223-2.297zm.128 3.234c-2.172 0-3.932-.503-3.932-1.124 0-.62 1.761-1.124 3.932-1.124 2.172 0 3.932.503 3.932 1.124 0 .621-1.76 1.124-3.932 1.124z" id="iconBg"/><path class="icon-vs-fg" d="M11.837 3.062c0-.62-1.761-1.124-3.932-1.124-2.172 0-3.932.503-3.932 1.124 0 .621 1.761 1.124 3.932 1.124 2.172 0 3.932-.503 3.932-1.124zm-5.337 9.438c-.767 0-1.326-.106-1.674-.318-.349-.212-.523-.59-.523-1.134v-.955c0-.488-.268-.732-.803-.732v-.731c.535 0 .803-.253.803-.76v-.886c0-.546.173-.93.518-1.151.344-.222.904-.333 1.679-.333v.744c-.564 0-.845.231-.845.692v.847c0 .636-.271 1.038-.813 1.205v.016c.542.164.813.572.813 1.221v.815c0 .26.066.444.198.553.132.109.348.163.647.163v.744zm6-3.138c-.54 0-.809.248-.809.744v.919c0 .56-.172.945-.516 1.157-.344.212-.902.318-1.675.318v-.744c.296 0 .511-.054.646-.161.134-.107.201-.29.201-.547v-.847c0-.634.27-1.03.81-1.189v-.016c-.54-.167-.81-.582-.81-1.245v-.815c0-.461-.283-.692-.847-.692v-.744c.769 0 1.326.111 1.672.332.346.222.519.6.519 1.136v.911c0 .501.27.752.809.752v.731z" id="iconFg"/></svg>