<svg xmlns="http://www.w3.org/2000/svg" width="16" height="16"><style type="text/css">.icon-canvas-transparent{opacity:0;fill:#F6F6F6;} .icon-vs-out{fill:#F6F6F6;} .icon-vs-bg{fill:#424242;}</style><path class="icon-canvas-transparent" d="M16 16h-16v-16h16v16z" id="canvas"/><path class="icon-vs-out" d="M16 9.9l-.2-.3c.1-.5.2-1 .2-1.6 0-4.4-3.6-8-8-8s-8 3.6-8 8 3.6 8 8 8c1.2 0 2.2-.2 3.2-.7l.3.3h.9l3.5-3.7v-2z" id="outline"/><path class="icon-vs-bg" d="M7.7 11.6l.9 1c-.3-.1-.5-.2-.7-.4-.1-.2-.2-.4-.2-.6zm2.8 2.9c-.8.3-1.6.5-2.5.5-2 0-4.1-1-5.5-2.7-2.4-3-1.7-7.4 1.3-9.7 1.2-1.1 2.7-1.5 4.2-1.5 2 0 4.2 1 5.5 2.7l.8 1.2h-1c-.1-.2-.3-.5-.5-.7 0 0-.1 0-.1-.1-.2 0-1.5-.1-3.4.8h-.3v.2h-.1l.1.1v1.1l-.9-.7c-.5.3-1.1.7-1.6 1.3-.1.1-.2.1-.2.2.3.6.3 1.3 0 1.8.1.1.3.2.3.3.4.4.8.6 1.2.9l-.5.8c-.4-.3-.9-.6-1.4-.9-.2-.1-.4-.3-.5-.4-.3.2-.6.2-.9.2-.4 1-.4 2.1-.4 2.7 1.2.9 2.5 1.4 3.9 1.4.6 0 1.2-.1 1.8-.3l.7.8zm-4.3-12.2l1.7 1.8c1.6-.9 3-.9 4-.7-1.2-1-2.5-1.4-3.8-1.4-.6 0-1.3.1-1.9.3zm-2.8 7l-.1-.1c-.5-.7-.5-1.6 0-2.2-.5-1-.4-1.9-.3-2.5-1.4 2-1.5 4.8 0 6.8.1-.5.2-1.3.4-2zm.6-3c.3-.1.7-.1 1 0 .1-.2.2-.2.3-.3.6-.6 1.1-1 1.7-1.4-.7-.7-1.2-1.3-1.7-2-.3.1-.7.3-1 .6-.3.2-.5.3-.7.6-.1.5-.1 1.4.4 2.5zm10-.3h-4v1h4v-1zm-2 8.6l-3.5-3.6.5-.7 1 .8v-1h4v1l1-.8.5.8-3.5 3.5zm2-5.6h-4v-1h4v1z" id="iconBg"/></svg>