<svg xmlns="http://www.w3.org/2000/svg" width="16" height="16"><style type="text/css">.icon-canvas-transparent{opacity:0;fill:#F6F6F6;} .icon-vs-out{fill:#F6F6F6;} .icon-vs-blue{fill:#1BA1E2;} .icon-vs-action-blue{fill:#00539C;} .graph-frame-lime{fill:#9ECA00;}</style><path class="icon-canvas-transparent" d="M16 16h-16v-16h16v16z" id="canvas"/><path class="icon-vs-out" d="M12 6.586v-3.667l-3 2.4v-2.319c0-1.71-1.935-3-4.5-3s-4.5 1.29-4.5 3v10c0 1.71 1.935 3 4.5 3h11.5v-13.414l-4 4z" id="outline"/><path class="icon-vs-blue" d="M11 9v-4l-3 2.4v-3.384c-.637.772-1.959 1.309-3.5 1.309s-2.863-.537-3.5-1.309v8.984c0 1.104 1.567 2 3.5 2h10.5v-10l-4 4zm0 3h-2v-2h2v2zm3 0h-2v-2h2v2z" id="iconBg"/><g id="iconFg"><path class="icon-vs-action-blue" d="M14 12h-2v-2h2v2zm-3-2h-2v2h2v-2z"/><path class="graph-frame-lime" d="M4.5 4.325c1.749 0 2.91-.798 2.91-1.325s-1.161-1.325-2.91-1.325-2.91.798-2.91 1.325 1.161 1.325 2.91 1.325z"/></g></svg>