<svg xmlns="http://www.w3.org/2000/svg" width="16" height="16"><style type="text/css">.icon-canvas-transparent{opacity:0;fill:#F6F6F6;} .icon-vs-out{fill:#F6F6F6;} .icon-vs-bg{fill:#424242;} .graph-yellow{fill:#FCB714;}</style><path class="icon-canvas-transparent" d="M16 16h-16v-16h16v16z" id="canvas"/><path class="icon-vs-out" d="M16 7c0 .251-.03.493-.064.734l-.119.917-1.989.249-.07.168 1.235 1.585-.476.614c-.36.466-.78.886-1.246 1.247l-.614.477-1.586-1.235-.17.07-.248 1.99-.919.118c-.243.036-.484.066-.734.066-.251 0-.493-.03-.734-.064l-.125-.016.278.787-.645.433c-.348.233-.726.424-1.125.564l-.734.259-.63-.947-.47.984h-.198l-.669-.13c-.177-.033-.354-.069-.529-.128-.174-.058-.335-.134-.496-.213l-.698-.337.068-.802.07-.351-1.072.378-.432-.646c-.234-.349-.423-.728-.563-1.127l-.256-.732.944-.627-.984-.471v-.195l.113-.58c.05-.27.085-.444.144-.62.059-.175.135-.336.214-.496l.337-.697.801.067.35.07-.379-1.07.42-.281v-.012c0-.248.03-.487.063-.726l.118-.926 1.992-.248.07-.168-1.235-1.585.475-.614c.36-.466.779-.885 1.246-1.248l.614-.477 1.587 1.236.169-.07.249-1.99.917-.119c.242-.034.484-.065.735-.065s.491.03.733.064l.919.119.102.817h2.246v.275l.271.21c.466.362.886.781 1.246 1.248l.476.614-1.235 1.584.07.169 1.989.249.119.917c.034.242.064.483.064.734z" id="outline"/><g id="iconBg"><path class="icon-vs-bg" d="M11.414 4h1.586v.275l.726-.93c-.241-.311-.517-.587-.812-.844l-1.5 1.499z"/><path class="icon-vs-bg" d="M6.801 13.132l.417 1.177c-.281.188-.582.339-.901.451l-.692-1.04c-.279.064-.566.087-.859.064l-.537 1.122c-.165-.032-.33-.057-.494-.111-.164-.055-.31-.134-.462-.208l.244-1.22c-.248-.157-.464-.348-.649-.567l-1.178.417c-.187-.281-.338-.582-.45-.901l1.039-.691c-.064-.279-.087-.566-.063-.858l-1.123-.537c.032-.165.057-.33.111-.494.056-.165.136-.311.209-.463l1.221.244c.156-.249.347-.465.565-.649l-.033-.093 1.007.126.07.168-.097.126c-.476.226-.864.634-1.043 1.173l-.052.233-.042.054.023.03c-.153.949.391 1.898 1.336 2.213.316.105.636.119.943.07l.033.025.052-.04c.6-.122 1.122-.513 1.399-1.089l.136-.106.169.07.105.841c-.126.164-.248.331-.404.463zm8.123-5.376c.032-.25.076-.496.076-.755s-.044-.505-.076-.756l-1.853-.231c-.042-.174-.103-.34-.166-.504l-.549.549c.084.301.144.613.144.942 0 1.93-1.562 3.499-3.5 3.499s-3.5-1.569-3.5-3.499c0-.961.388-1.832 1.016-2.465l.51-1.214-.206.104-1.478-1.151c-.4.311-.757.668-1.068 1.069l1.151 1.477c-.222.366-.392.765-.496 1.192l-1.853.232c-.032.25-.076.496-.076.756 0 .259.044.505.076.755l1.853.231c.104.429.274.826.497 1.193l-.68.872c-.313.084-.584.301-.694.632-.175.524.108 1.09.633 1.265.524.175 1.09-.108 1.265-.632l.009-.07.863-.672c.366.223.765.392 1.192.498l.231 1.852c.25.031.496.075.755.075s.505-.044.756-.076l.231-1.852c.428-.105.826-.275 1.192-.498l1.478 1.151c.4-.311.757-.668 1.068-1.069l-1.151-1.476c.223-.366.392-.764.497-1.192l1.853-.232z"/><polygon class="graph-yellow" points="9,2 7,6 9.5,6 8,9 12,5 9,5 12,2"/></g></svg>