<svg xmlns="http://www.w3.org/2000/svg" width="16" height="16"><style type="text/css">.icon-canvas-transparent{opacity:0;fill:#F6F6F6;} .icon-vs-out{fill:#F6F6F6;} .icon-vs-bg{fill:#424242;} .icon-vs-fg{fill:#F0EFF1;} .icon-disabled-grey{fill:#848484;} .graph-yellow{fill:#FCB714;}</style><path class="icon-canvas-transparent" d="M16 16h-16v-16h16v16z" id="canvas"/><path class="icon-vs-out" d="M16 1v14h-15v-14h15z" id="outline"/><g id="iconBg"><path class="icon-vs-bg" d="M15 5h-13v-3h13v3z"/><path class="icon-disabled-grey" d="M2 5h13v9h-13v-9z"/></g><g id="iconFg"><path class="icon-vs-fg" d="M5 9h8v4h-8v-4z"/><path class="graph-yellow" d="M7 8h6v1h-8v4h-1v-7h3v2zm3-2h-1v1h1v-1zm2 1h-1v-1h1v1z"/><path class="icon-vs-bg" d="M13 6v2h-6v-2h2v1h1v-1h1v1h1v-1h1z"/></g></svg>