<svg xmlns="http://www.w3.org/2000/svg" width="16" height="16"><style type="text/css">.icon-canvas-transparent{opacity:0;fill:#F6F6F6;} .icon-vs-out{fill:#F6F6F6;} .icon-vs-bg{fill:#424242;} .icon-vs-fg{fill:#F0EFF1;}</style><path class="icon-canvas-transparent" d="M16 16h-16v-16h16v16z" id="canvas"/><path class="icon-vs-out" d="M16 1.6v14.4h-13.4v-3h-.8c-1 0-1.8-1-1.8-1.9v-9.5c0-.7.4-1.1.6-1.2.4-.4.9-.4 1.2-.4h12.5c1 0 1.7.7 1.7 1.6z" id="outline"/><path class="icon-vs-bg" d="M4 3h2v1h-2v1h2v3h-3v-1h2v-1h-2v-3h1zm8 3v-3h-1v3h1zm-4-2h1v2h1v-3h-3v3h1v-2zm-4.3 10l-.1 1h3.4v-4h-5v-9h12v4h1v-4.4c0-.4-.4-.6-.7-.6h-12.5c-.5 0-.8.3-.8.6v9.5c0 .4.4.9.8.9h4.8c.4 1.2-.5 2-2.9 2zm8.7-2.9l.6 2.4h-.8l-.8-2.1-.8 2.1h-.6l.6-2.4c-.4-.3-.6-.7-.6-1.2 0-.8.7-1.4 1.5-1.4s1.5.6 1.5 1.4c0 .5-.3.9-.6 1.2zm-.1-1.2c0-.4-.3-.7-.8-.7s-.8.3-.8.7c0 .4.3.7.8.7s.8-.3.8-.7zm2.7-2.9v8h-7v-8h7zm-1 1h-5v6h5v-6z" id="iconBg"/><path class="icon-vs-fg" d="M8 4h1v2h-1v-2zm-1 7h-5v-9h12v4h-2v-3h-1v3h-1v-3h-3v8zm-3-6v-1h2v-1h-3v3h2v1h-2v1h3v-3h-2zm5 3v6h5v-6h-5zm4 5.5h-.8l-.8-2.1-.8 2.1h-.6l.6-2.4c-.4-.3-.6-.7-.6-1.2 0-.8.7-1.4 1.5-1.4s1.5.6 1.5 1.4c0 .5-.3.9-.6 1.2l.6 2.4zm-1.5-4.3c-.4 0-.8.3-.8.7 0 .4.3.7.8.7s.8-.3.8-.7c0-.4-.4-.7-.8-.7z" id="iconFg"/></svg>