<svg xmlns="http://www.w3.org/2000/svg" viewBox="0 0 16 16"><style>.icon-canvas-transparent{opacity:0;fill:#f6f6f6}.icon-vs-out{fill:#f6f6f6}.icon-vs-bg{fill:#424242}.icon-vs-fg{fill:#f0eff1}</style><path class="icon-canvas-transparent" d="M16 16H0V0h16v16z" id="canvas"/><path class="icon-vs-out" d="M2 16V0h12v16H2z" id="outline"/><path class="icon-vs-bg" d="M3 1v14h10V1H3zm9 11H4V2h8v10z" id="iconBg"/><path class="icon-vs-fg" d="M12 12H4V2h8v10zm-3 1.5a1 1 0 1 1-2 0 1 1 0 0 1 2 0z" id="iconFg"/><g id="colorAction"><path class="icon-vs-bg" d="M8 4L5 5.75v3.5L8 11l3-1.75v-3.5L8 4zm-.429 6L5.7 9V6.5l1.871 1V10zM5.9 5.9L8 4.7l2.1 1.2L8 6.996 5.9 5.9zM10.3 9l-1.871 1V7.5l1.871-1V9z"/></g></svg>