<svg xmlns="http://www.w3.org/2000/svg" viewBox="0 0 16 16"><style>.icon-canvas-transparent{opacity:0;fill:#f6f6f6}.icon-vs-out{fill:#f6f6f6}.icon-vs-fg{fill:#f0eff1}.icon-vs-bg{fill:#424242}</style><path class="icon-canvas-transparent" d="M16 16H0V0h16v16z" id="canvas"/><path class="icon-vs-out" d="M16 7.586v.828L8.414 16h-.828L0 8.414v-.828L7.586 0h.828L16 7.586z" id="outline"/><path class="icon-vs-bg" d="M8 1L1 8l7 7 7-7-7-7zm0 1l2 2H9v2H7V4H6l2-2zM3 9V7h2V6l2 2-2 2V9H3zm5 5l-2-2h1v-2h2v2h1l-2 2zm3-5v1L9 8l2-2v1h2v2h-2z" id="iconBg"/><g id="iconFg"><path class="icon-vs-fg" d="M10 4H9v2H7V4H6l2-2 2 2zM7 8L5 6v1H3v2h2v1l2-2zm4-1V6L9 8l2 2V9h2V7h-2zm-2 5v-2H7v2H6l2 2 2-2H9z"/></g></svg>