<svg xmlns="http://www.w3.org/2000/svg" width="16" height="16"><style type="text/css">.icon-canvas-transparent{opacity:0;fill:#F6F6F6;} .icon-vs-out{fill:#F6F6F6;} .icon-vs-bg{fill:#424242;}</style><path class="icon-canvas-transparent" d="M16 16h-16v-16h16v16z" id="canvas"/><path class="icon-vs-out" d="M16 8c0 .312-.021.618-.057.92l-.07.62-2.235.795 1.017 2.139-.386.488c-.381.482-.82.922-1.305 1.306l-.488.388-2.14-1.019-.794 2.233-.618.072c-.303.037-.611.058-.924.058-.311 0-.617-.021-.919-.057l-.62-.07-.795-2.235-2.141 1.018-.488-.388c-.172-.136-.331-.287-.491-.437-.536-.011-1.071-.093-1.565-.256l-.981-.245v-6.87l2.362-.795-1.017-2.14.387-.488c.384-.484.823-.923 1.305-1.305l.488-.386 2.141 1.018.794-2.236.62-.071c.303-.035.609-.057.92-.057.313 0 .619.022.923.057l.618.071.794 2.234 2.141-1.017.488.386c.482.382.922.822 1.305 1.306l.386.488-1.017 2.139 2.235.795.07.62c.036.303.057.609.057.921z" id="outline"/><path class="icon-vs-bg" d="M12.714 9.603c-.07.207-.15.407-.246.601l1.017 2.139c-.335.424-.718.807-1.142 1.143l-2.14-1.018c-.193.097-.394.176-.601.247l-.795 2.235c-.265.031-.534.05-.807.05-.272 0-.541-.019-.806-.05l-.795-2.235-.256-.105c.158-.131.313-.272.462-.412.19-.18.371-.349.501-.417.074-.038.162-.057.266-.057.279 0 .332.055.628.276h1l1.65-1.719-.008-.009c.528-.612.858-1.4.858-2.272 0-1.933-1.567-3.5-3.5-3.5-.519 0-1.007.12-1.45.323-.288.064-.565.16-.825.295-.501.261-.858.598-1.184.906l-.31.28c-.414.342-.977.538-1.544.538-.169 0-.332-.023-.49-.057l1.089-.387c.07-.207.15-.407.246-.601l-1.016-2.139c.336-.423.719-.807 1.143-1.142l2.14 1.017c.193-.096.394-.176.602-.247l.793-2.236c.265-.03.534-.05.806-.05.273 0 .542.02.808.05l.795 2.236c.207.07.407.15.601.246l2.14-1.017c.424.335.807.719 1.142 1.142l-1.017 2.139c.096.194.176.394.246.601l2.236.795c.03.266.049.535.049.808s-.019.542-.05.807l-2.236.796zm-10.034 3.137c-.423 0-.834-.061-1.225-.18l.253-.76c.313.095.642.142.98.142.817 0 1.635-.287 2.243-.789l.362-.328c.291-.273.575-.542.939-.731.338-.176.722-.265 1.139-.265.678 0 1.386.239 2.003.677l-.479.641c-.473-.329-1.036-.523-1.523-.523-.28 0-.54.061-.771.181-.269.14-.502.36-.75.595l-.413.372c-.745.615-1.75.968-2.758.968zm0-2c-.423 0-.834-.061-1.225-.18l.253-.76c.313.095.642.142.98.142.817 0 1.635-.288 2.244-.789l.361-.326c.288-.272.573-.542.939-.732.34-.177.724-.266 1.141-.266.677 0 1.384.24 2.001.677l-.478.64c-.473-.329-1.036-.523-1.524-.523-.28 0-.54.061-.771.181-.267.14-.5.36-.748.594l-.413.373c-.747.616-1.752.969-2.76.969zm0-2c-.423 0-.835-.061-1.225-.18l.253-.759c.313.094.642.141.979.141.818 0 1.636-.288 2.244-.79l.364-.329c.287-.271.572-.541.937-.73.339-.176.723-.266 1.141-.266.678 0 1.385.24 2.002.677l-.479.643c-.473-.33-1.036-.524-1.524-.524-.28 0-.54.061-.771.181-.265.138-.498.358-.744.59l-.417.376c-.746.616-1.752.97-2.76.97z" id="iconBg"/></svg>