<svg xmlns="http://www.w3.org/2000/svg" viewBox="0 0 16 16"><style>.icon-canvas-transparent{opacity:0;fill:#f6f6f6}.icon-vs-action-blue{fill:#00539c}.icon-vs-out{fill:#f6f6f6}.icon-vs-bg{fill:#424242}.icon-vs-fg{fill:#f0eff1}</style><path class="icon-canvas-transparent" d="M16 16H0V0h16v16z" id="canvas"/><path class="icon-vs-out" d="M8 3h8v12.011h-3V15H6l-1 .011H3V15l-1 .011H0V3.607l.203.202L4.013 0h.497l1.871 1.871L5.255 3H8z" id="outline"/><path class="icon-vs-bg" d="M1 14h14V4H9v1h5v2H6.233l.147.148L5.529 8H14v2H5V8.529l-.737.737L4 9.004V10H2V8h.992L1 6.015V14zm4-3h9v2H5v-2zm-3 0h2v2H2v-2z" id="iconBg"/><path class="icon-vs-fg" d="M4 9.004V10H2V8h.992L4 9.004zM2 13h2v-2H2v2zm3 0h9v-2H5v2zm4-8v1H5.237l.996 1H14V5H9zM5 8.529V10h9V8H5.529L5 8.529z" id="iconFg"/><path class="icon-vs-action-blue" d="M.911 4.515l3.35-3.35.707.707-2.121 2.129H8V5H2.829l2.138 2.146-.706.707-3.35-3.338z" id="colorAction"/></svg>