<svg xmlns="http://www.w3.org/2000/svg" viewBox="0 0 16 16"><defs><style>.icon-canvas-transparent-,.icon-vs-out{fill:#f6f6f6;}.icon-canvas-transparent-{opacity:0;}.icon-vs-bg{fill:#424242;}.icon-vs-fg{fill:#f0eff1;}.icon-vs-blue{fill:#1ba1e2;}</style></defs><title>BackgroundWorker_16x</title><rect class="icon-canvas-transparent-" width="16" height="16"/><path class="icon-vs-out" d="M14,0H3A2,2,0,0,0,1,2V5H0V16H10V8h4a2,2,0,0,0,2-2V2A2,2,0,0,0,14,0Z" transform="translate(0 0)"/><path class="icon-vs-bg" d="M14,1H3A1,1,0,0,0,2,2V6H1v9H9V7h5a1,1,0,0,0,1-1V2A1,1,0,0,0,14,1Zm0,5H3V2H14Z" transform="translate(0 0)"/><path class="icon-vs-fg" d="M3,6H14V2H3ZM4,3h6V5H4Z" transform="translate(0 0)"/><rect class="icon-vs-blue" x="4" y="3" width="6" height="2"/></svg>