<svg xmlns="http://www.w3.org/2000/svg" width="16" height="16"><style type="text/css">.icon-canvas-transparent{opacity:0;fill:#F6F6F6;} .icon-vs-out{fill:#F6F6F6;} .icon-vs-bg{fill:#424242;}</style><path class="icon-canvas-transparent" d="M16 16h-16v-16h16v16z" id="canvas"/><path class="icon-vs-out" d="M16 9v2l-1 1v1c0 1.7-1 3-3 3h-1v-2h-7v-2c-1.8-.1-3-1.4-3-3v-1l-1-1v-2l1-1v-1c0-1.7 1-3 3-3h1v2h7v2c2 0 3 1.3 3 3v1l1 1z" id="outline"/><path class="icon-vs-bg" d="M15 9v2c-.3 0-1 .1-1 1v1c0 .8.1 2-2 2v-1c.8 0 1-1 1-1v-1c0-.8.5-1.7 1-2-.5-.3-1-1.2-1-2v-1c0-.8-.6-1-1-1v-1c2.1 0 2 1.2 2 2v1c0 1 .7 1 1 1zm-13-6v1c0 1-.7 1-1 1v2c.3 0 1 .1 1 1v1c0 .8-.1 2 2 2v-1c-.8 0-1-1-1-1v-1c0-.8-.5-1.7-1-2 .5-.3 1-1.2 1-2v-1c0-.8.6-1 1-1v-1c-2.1 0-2 1.2-2 2zm3 1h6v-1h-6v1zm0 3h6v-1h-6v1zm0 3h6v-1h-6v1zm0 3h6v-1h-6v1z" id="iconBg"/></svg>