<svg xmlns="http://www.w3.org/2000/svg" width="16" height="16"><style type="text/css">.icon-canvas-transparent{opacity:0;fill:#F6F6F6;} .icon-vs-out{fill:#F6F6F6;} .icon-vs-bg{fill:#424242;} .icon-vs-fg{fill:#F0EFF1;}</style><path class="icon-canvas-transparent" d="M16 16h-16v-16h16v16z" id="canvas"/><path class="icon-vs-out" d="M16 3.556v8.444c0 .97-.701 2-2 2v2h-14v-9h4v-5c0-1.299 1.03-2 2-2h6.06l3.94 3.556z" id="outline"/><path class="icon-vs-bg" d="M15 4v8s-.038.97-1 .995v-7.995h-3v-3h-5v5h-1v-5c0-1 .964-1 .964-1h5.677l3.359 3zm-2 4v7h-12v-7h12zm-11 5h4v-1h-3v-2h3v-1h-4v4zm6-1h-1v1h1v-1zm0-1.999h-1v1h1v-1zm3.6 2.998l-1.6-4h-1l1.6 4h1z" id="iconBg"/><path class="icon-vs-fg" d="M14 5v2h-8v-5h5v3h3zm-12 8h4v-1h-3v-2h3v-1h-4v4zm6-1h-1v1h1v-1zm0-1.999h-1v1h1v-1zm3.6 2.998l-1.6-4h-1l1.6 4h1z" id="iconFg"/></svg>