<svg xmlns="http://www.w3.org/2000/svg" viewBox="0 0 16 16"><style>.icon-canvas-transparent{opacity:0;fill:#f6f6f6}.icon-vs-out{fill:#f6f6f6}.icon-vs-bg{fill:#424242}.icon-vs-fg{fill:#f0eff1}.icon-vs-action-blue{fill:#00539c}</style><path class="icon-canvas-transparent" d="M16 16H0V0h16v16z" id="canvas"/><path class="icon-vs-out" d="M15 7v7h-2v2H1V9h2V7h4V5.392L5.916 6.476 3.795 4.355 8.15 0h.825l4.355 4.355-2.121 2.121L10 5.267V7h5z" id="outline"/><path class="icon-vs-bg" d="M4 8v2H2v5h10v-2h2V8H4zm7 6H3v-3h8v3zm2-2h-1v-2H5V9h8v3z" id="iconBg"/><path class="icon-vs-fg" d="M13 9v3h-1v-2H5V9h8zM3 14h8v-3H3v3z" id="iconFg"/><path class="icon-vs-action-blue" d="M11.916 4.355l-.707.707L9 2.853V7H8V2.978L5.916 5.062l-.707-.707 3.354-3.354 3.353 3.354z" id="colorAction"/></svg>