<?xml version="1.0" encoding="iso-8859-1"?>
<!-- Generator: Adobe Illustrator 21.0.0, SVG Export Plug-In . SVG Version: 6.00 Build 0)  -->
<svg version="1.1" xmlns="http://www.w3.org/2000/svg" xmlns:xlink="http://www.w3.org/1999/xlink" x="0px" y="0px"
	 viewBox="0 0 16 16" style="enable-background:new 0 0 16 16;" xml:space="preserve">
<style type="text/css">
	.icon_x002D_canvas_x002D_transparent{opacity:0;fill:#F6F6F6;}
	.icon_x002D_vs_x002D_out{fill:#F6F6F6;}
	.icon_x002D_vs_x002D_bg{fill:#424242;}
	.icon_x002D_vs_x002D_fg{fill:#F0EFF1;}
	.icon_x002D_vs_x002D_blue{fill:#1BA1E2;}
</style>
<g id="canvas">
	<path id="XMLID_16_" class="icon_x002D_canvas_x002D_transparent" d="M16,16H0V0h16V16z"/>
</g>
<g id="outline">
	<path id="XMLID_18_" class="icon_x002D_vs_x002D_out" d="M16,15H7v1H0L0,1h16V15z"/>
</g>
<g id="iconBg">
	<path class="icon_x002D_vs_x002D_bg" d="M15,2v12H7v-1h7V5H2v2H1V2H15z M1,15h2v-2h1v2h2V8H1V15z M4,9h1v1H4V9z M4,11h1v1H4V11z
		 M2,9h1v1H2V9z M2,11h1v1H2V11z"/>
</g>
<g id="iconFg">
	<path class="icon_x002D_vs_x002D_fg" d="M4,10h1V9H4V10z M4,12h1v-1H4V12z M2,10h1V9H2V10z M2,12h1v-1H2V12z M12.425,7.5
		c0-0.428-0.841-0.925-1.925-0.925c-1.084,0-1.925,0.497-1.925,0.925S9.416,8.425,10.5,8.425C11.584,8.425,12.425,7.928,12.425,7.5z
		 M4,13v2H3v-2H4z"/>
</g>
<g id="colorImportance">
	<path class="icon_x002D_vs_x002D_blue" d="M10.5,6C9.119,6,8,6.672,8,7.5v3c0,0.828,1.119,1.5,2.5,1.5c1.381,0,2.5-0.672,2.5-1.5
		v-3C13,6.672,11.881,6,10.5,6z M10.5,8.425c-1.084,0-1.925-0.497-1.925-0.925S9.416,6.575,10.5,6.575s1.925,0.497,1.925,0.925
		S11.584,8.425,10.5,8.425z"/>
</g>
</svg>
