<svg xmlns="http://www.w3.org/2000/svg" width="16" height="16"><style type="text/css">.icon-canvas-transparent{opacity:0;fill:#F6F6F6;} .icon-vs-out{fill:#F6F6F6;} .icon-vs-bg{fill:#424242;} .icon-vs-fg{fill:#F0EFF1;}</style><path class="icon-canvas-transparent" d="M16 16h-16v-16h16v16z" id="canvas"/><path class="icon-vs-out" d="M16 13h-5v3h-11v-9h5v-7h11v13z" id="outline"/><path class="icon-vs-bg" d="M11 6h-3v-1h3v1zm2-3h-5v1h5v-1zm0 2h-1v1h1v-1zm2-4h-9v6h1v-5h7v9h-3v1h4v-11zm-3 6h-1v1h1v-1zm-2.001 2v-1h-1v1h1zm-2 0v-1h-1v1h1zm-2 0v-1h-1v1h1zm-2.001 0v-1h-1v1h1zm-2.001 0v-1h-1v1h1zm0 2v-1h-1v1h1zm0 2v-1h-1v1h1zm0 2v-1h-1v1h1zm8.003-4v-1h-1v1h1zm0 2v-1h-1v1h1zm0 2v-1h-1v1h1zm-2.001 0v-1h-1v1h1zm-2 0v-1h-1v1h1zm-2.001 0v-1h-1v1h1zm1.002-5h-2v1h2v-1zm-2 3h5v-1h-5v1z" id="iconBg"/><path class="icon-vs-fg" d="M11 7h1v1h-1v3h3v-9h-7v5h4zm2-1h-1v-1h1v1zm-5-3h5v1h-5v-1zm0 2h3v1h-3v-1zm-6 4v5h7v-5h-7zm1 1h2v1h-2v-1zm5 3h-5v-1h5v1z" id="iconFg"/></svg>