<svg xmlns="http://www.w3.org/2000/svg" width="16" height="16"><style type="text/css">.icon-canvas-transparent{opacity:0;fill:#F6F6F6;} .icon-vs-out{fill:#F6F6F6;} .icon-vs-bg{fill:#424242;} .icon-vs-fg{fill:#F0EFF1;}</style><path class="icon-canvas-transparent" d="M16 16h-16v-16h16v16z" id="canvas"/><path class="icon-vs-out" d="M16 14h-4v2h-8v-2h-4v-14h16v14z" id="outline"/><path class="icon-vs-bg" d="M15 13h-3v-1h2v-8h-13v-3h14v12zm-14-1v1h3v-1h-3zm0-7v6h3v-1h-2v-4h4v2h1v-3h-6zm10 4v6h-6v-6h6zm-1 1h-4v4h4v-4z" id="iconBg"/><path class="icon-vs-fg" d="M8 8v-4h6v8h-2v-4h-4zm2 2h-4v4h4v-4zm-6-2v2h-2v-4h4v2h-2z" id="iconFg"/></svg>