<svg xmlns="http://www.w3.org/2000/svg" width="16" height="16"><style type="text/css">.icon-canvas-transparent{opacity:0;fill:#F6F6F6;} .icon-vs-out{fill:#F6F6F6;} .icon-vs-bg{fill:#424242;} .icon-vs-fg{fill:#F0EFF1;}</style><path class="icon-canvas-transparent" d="M16 16h-16v-16h16v16z" id="canvas"/><path class="icon-vs-out" d="M.056 8.92c-.034-.302-.056-.608-.056-.92s.022-.618.056-.92l.071-.62 2.235-.795-1.017-2.14.387-.488c.384-.484.823-.923 1.305-1.305l.488-.386 2.141 1.018.794-2.236.62-.071c.303-.035.609-.057.92-.057.313 0 .619.022.923.057l.618.071.794 2.234 2.141-1.017.488.386c.482.382.922.822 1.305 1.306l.386.488-1.017 2.139 2.235.795.07.62c.036.303.057.609.057.921s-.021.618-.057.92l-.087.764-2.249.331 2.393 1.449v1.072l-5.721 3.464h-1.279v-.066l-.076.009c-.303.036-.611.057-.924.057-.311 0-.617-.021-.919-.057l-.62-.07-.795-2.235-2.141 1.018-.488-.388c-.483-.383-.922-.821-1.305-1.305l-.387-.488 1.017-2.14-2.235-.795-.071-.62z" id="outline"/><path class="icon-vs-bg" d="M15 8c0 .273-.019.542-.05.807l-1.441.213-2.512-.992.003-.028c0-1.657-1.343-3-3-3s-3 1.343-3 3 1.343 3 3 3c.353 0 .686-.072 1-.184v3.592l-.192.541c-.266.032-.535.051-.808.051-.272 0-.541-.019-.806-.05l-.795-2.235c-.207-.071-.408-.15-.602-.247l-2.14 1.017c-.424-.336-.807-.719-1.143-1.143l1.017-2.139c-.094-.193-.175-.393-.245-.6l-2.236-.796c-.03-.265-.05-.534-.05-.807s.02-.542.05-.807l2.236-.795c.07-.207.15-.407.246-.601l-1.016-2.139c.336-.423.719-.807 1.143-1.142l2.14 1.017c.193-.096.394-.176.602-.247l.793-2.236c.265-.03.534-.05.806-.05.273 0 .542.02.808.05l.795 2.236c.207.07.407.15.601.246l2.14-1.017c.424.335.807.719 1.142 1.142l-1.017 2.139c.096.194.176.394.246.601l2.236.795c.03.266.049.535.049.808zm-7-1.5c-.829 0-1.5.672-1.5 1.5s.671 1.5 1.5 1.5 1.5-.672 1.5-1.5-.671-1.5-1.5-1.5zm2 8.5l4.954-3-4.954-3v6z" id="iconBg"/><path class="icon-vs-fg" d="M9 10.816c-.314.112-.647.184-1 .184-1.657 0-3-1.344-3-3 0-1.657 1.343-3 3-3s3 1.343 3 3l-.003.027-1.805-.928c-.274-.362-.704-.599-1.192-.599-.828 0-1.5.672-1.5 1.5s.672 1.5 1.5 1.5c.386 0 .734-.15 1-.39v1.706z" id="iconFg"/></svg>