<svg xmlns="http://www.w3.org/2000/svg" width="16" height="16"><style type="text/css">.icon-canvas-transparent{opacity:0;fill:#F6F6F6;} .icon-vs-out{fill:#F6F6F6;} .icon-vs-bg{fill:#424242;} .icon-vs-fg{fill:#F0EFF1;}</style><path class="icon-canvas-transparent" d="M16 16h-16v-16h16v16z" id="canvas"/><path class="icon-vs-out" d="M0 16v-8.381l7.553-7.619h8.447v12h-4v4h-12z" id="outline"/><path class="icon-vs-bg" d="M7.97 1l-6.97 7.031v6.969h10v-4h4v-10h-7.03zm-1.97 13h-4v-4.969l3-3.026v1.995h1v6zm8-4h-4v4h-3v-6h1v-1h6v3zm0-4h-6v-1h-2.004l2.974-3h5.03v4z" id="iconBg"/><path class="icon-vs-fg" d="M2 9.031l3-3.026v1.995h1v6h-4v-4.969zm6.97-7.031l-2.974 3h2.004v1h6v-4h-5.03zm-.97 6h-1v6h3v-4h4v-3h-6v1z" id="iconFg"/></svg>