<svg xmlns="http://www.w3.org/2000/svg" width="16" height="16"><style type="text/css">.icon-canvas-transparent{opacity:0;fill:#F6F6F6;} .icon-vs-out{fill:#F6F6F6;} .icon-vs-bg{fill:#424242;}</style><path class="icon-canvas-transparent" d="M16 16h-16v-16h16v16z" id="canvas"/><path class="icon-vs-out" d="M15.699 3.242v6.613l-5.34 3.914-2.359-1.485v3.716h-8v-8h4.215v-4.77l5.852-2.96 5.632 2.972z" id="outline"/><path class="icon-vs-bg" d="M1 9h6v2.869l-1.174-2.056c-.135-.233-.518-.233-.652 0l-1.716 3.005-1.158-1.543c-.071-.095-.182-.15-.3-.15s-.229.056-.3.15l-.7.933v-3.208zm2.826 4.686c-.063.11-.176.181-.302.189-.128 0-.248-.049-.323-.15l-1.2-1.6-1 1.333v1.542h6v-1.619l-1.5-2.625-1.675 2.93zm10.873-9.841v5.502l-4.383 3.213-2.316-1.458v-.914l1.947 1.269v.02l.01-.01.012.01v-.02l.031-.021v-4.467l-4.012-2.24v3.271h-.773v-4.155l4.842-2.449 4.642 2.449zm-.861.287l-3.838-1.891-3.611 1.834 3.869 2.207 3.58-2.15zm.156.9l-3.105 1.894v4.316l3.105-2.238v-3.972z" id="iconBg"/></svg>