<svg xmlns="http://www.w3.org/2000/svg" width="16" height="16"><style type="text/css">.icon-canvas-transparent{opacity:0;fill:#F6F6F6;} .icon-vs-out{fill:#F6F6F6;} .icon-vs-bg{fill:#424242;} .icon-vs-fg{fill:#F0EFF1;}</style><path class="icon-canvas-transparent" d="M16 16h-16v-16h16v16z" id="canvas"/><path class="icon-vs-out" d="M16 13h-16v-10h16v10z" id="outline"/><path class="icon-vs-bg" d="M1 4v8h14v-8h-14zm13 7h-12v-6h12v6zm-10.523-1.014c.491 0 .867-.174 1.129-.521.263-.348.394-.848.394-1.5 0-1.31-.48-1.965-1.442-1.965-.506 0-.892.175-1.159.525-.266.351-.399.86-.399 1.528 0 1.287.492 1.933 1.477 1.933zm.04-3.338c.37 0 .554.448.554 1.344 0 .895-.188 1.344-.566 1.344-.386 0-.58-.436-.58-1.305.001-.922.198-1.383.592-1.383zm6.041-.648c-.506 0-.892.175-1.159.525-.266.351-.399.86-.399 1.527 0 1.288.492 1.934 1.477 1.934.49 0 .867-.174 1.129-.521.263-.348.394-.848.394-1.5 0-1.31-.481-1.965-1.442-1.965zm-.052 3.336c-.387 0-.58-.436-.58-1.305 0-.921.197-1.383.592-1.383.369 0 .554.448.554 1.344-.001.894-.189 1.344-.566 1.344zm2.98-3.301h.514v3.965h-.847v-3.001l-.165.117-.203.101-.119.04v-.773l.291-.116c.195-.101.372-.212.529-.333zm-6-.035h.514v3.965h-.847v-3.001l-.165.117-.203.1-.119.04v-.772l.291-.116c.195-.101.372-.212.529-.333z" id="iconBg"/><path class="icon-vs-fg" d="M10.071 7.992c0 .895-.188 1.344-.565 1.344-.387 0-.58-.436-.58-1.305 0-.921.197-1.383.592-1.383.369 0 .553.448.553 1.344zm-6.566 1.344c.377 0 .566-.449.566-1.344 0-.896-.185-1.344-.554-1.344-.394 0-.591.461-.591 1.383 0 .869.193 1.305.579 1.305zm10.495-4.336v6h-12v-2.947c0 1.287.492 1.933 1.477 1.933.491 0 .867-.174 1.129-.521.263-.348.394-.848.394-1.5 0-1.31-.48-1.965-1.442-1.965-.506 0-.892.175-1.159.525-.266.351-.399.86-.399 1.528v-3.053h12zm-7 1h-.514c-.157.121-.334.232-.529.333l-.29.116v.772l.119-.04.202-.1.165-.117v3.001h.847v-3.965zm4 1.965c0-1.31-.481-1.965-1.442-1.965-.506 0-.892.175-1.159.525-.266.351-.399.86-.399 1.527 0 1.288.492 1.934 1.477 1.934.49 0 .867-.174 1.129-.521.263-.348.394-.848.394-1.5zm2-1.93h-.514c-.157.121-.334.232-.529.333l-.291.116v.772l.119-.04.203-.101.165-.117v3.002h.847v-3.965z" id="iconFg"/></svg>