<svg xmlns="http://www.w3.org/2000/svg" viewBox="0 0 16 16"><defs><style>.icon-canvas-transparent,.icon-vs-out{fill:#f6f6f6;}.icon-canvas-transparent{opacity:0;}.icon-vs-bg{fill:#424242;}.icon-vs-fg{fill:#f0eff1;}.icon-vs-blue-{fill:#1ba1e2;}</style></defs><title>BindingNavigator_16x</title><path class="icon-canvas-transparent" d="M16,16H0V0H16Z"/><path class="icon-vs-out" d="M16,0V8H10v5c0,1.711-2.149,3-5,3s-5-1.289-5-3V7C0,5.725,1.2,4.692,2.99,4.245,3,4.23,2.992,4.216,3,4.2V0Z"/><path class="icon-vs-bg" d="M4,1H9V5.174a5.174,5.174,0,0,0-2-.941V2L5,4a8.96,8.96,0,0,0-1,.057ZM15,1V7H10V1Z"/><polygon class="icon-vs-bg" points="14 4 12 2 12 6 14 4"/><path class="icon-vs-bg" d="M8.325,7C8.325,6.473,7,5.675,5,5.675S1.675,6.473,1.675,7,3,8.326,5,8.326,8.325,7.528,8.325,7Z"/><path class="icon-vs-fg" d="M7,4.232A8.334,8.334,0,0,0,5,4L7,2V4.2C7,4.209,7,4.219,7,4.232ZM12,2V6l2-2ZM5,5.675c-2,0-3.325.8-3.325,1.325S3,8.326,5,8.326,8.325,7.528,8.325,7,7,5.675,5,5.675Z"/><path class="icon-vs-blue-" d="M5,5C2.791,5,1,5.9,1,7v6c0,1.105,1.791,2,4,2s4-.895,4-2V7C9,5.9,7.209,5,5,5ZM5,8.326c-2,0-3.325-.8-3.325-1.325S3,5.675,5,5.675,8.325,6.473,8.325,7,7,8.326,5,8.326Z"/></svg>