<svg xmlns="http://www.w3.org/2000/svg" viewBox="0 0 16 16"><style>.st0{opacity:0;fill:#f0eff1;stroke:#f6f6f6}.st1{fill:#f6f6f6}.st2{fill:#424242}.st3{fill:#f0eff1}</style><g id="outline"><path class="st0" d="M0 0h16v16H0z"/><path class="st1" d="M14 7h-1v6H8.324c-.625.612-1.633 1-2.824 1C3.505 14 2 12.926 2 11.5v-3c0-1.303 1.262-2.301 3-2.466V3h4V2h5v5z"/></g><g id="icon_x5F_bg"><path class="st2" d="M11 11H9v.5c0 .173-.024.339-.066.5H12V7h-1v4zM10 3h3v3h-3zM7 5h2V4H6v2.034a4.7 4.7 0 0 1 1 .199V5zM5.5 7C4.119 7 3 7.672 3 8.5v3c0 .828 1.119 1.5 2.5 1.5S8 12.328 8 11.5v-3C8 7.672 6.881 7 5.5 7zm0 2.425c-1.084 0-1.925-.497-1.925-.925s.841-.925 1.925-.925 1.925.497 1.925.925-.841.925-1.925.925z"/></g><g id="icon_x5F_fg"><path class="st3" d="M9 7V5H7v1.232C8.2 6.62 9 7.464 9 8.5V11h2V7H9zM5.5 7.575c-1.084 0-1.925.497-1.925.925s.841.925 1.925.925 1.925-.497 1.925-.925-.841-.925-1.925-.925z"/></g></svg>