<svg xmlns="http://www.w3.org/2000/svg" viewBox="0 0 16 16"><defs><style>.icon-canvas-transparent,.icon-vs-out-{fill:#f6f6f6;}.icon-canvas-transparent{opacity:0;}.icon-vs-bg{fill:#424242;}.icon-vs-fg{fill:#f0eff1;}.icon-vs-blue-{fill:#1ba1e2;}</style></defs><title>BindingSource_16x</title><path class="icon-canvas-transparent" d="M16,16H0V0H16Z"/><path class="icon-vs-out-" d="M16,6H15v7H10c0,1.711-2.149,3-5,3s-5-1.289-5-3V7C0,5.289,2.149,4,5,4V1h5V0h6Z"/><path class="icon-vs-bg" d="M7,4.2a8.562,8.562,0,0,0-1-.147V2h4V3H7Z"/><rect class="icon-vs-bg" x="11" y="1" width="4" height="4"/><polygon class="icon-vs-bg" points="13 11 10 11 10 12 14 12 14 6 13 6 13 11"/><path class="icon-vs-bg" d="M8.325,7C8.325,6.473,7,5.675,5,5.675S1.675,6.473,1.675,7,3,8.325,5,8.325,8.325,7.527,8.325,7Z"/><path class="icon-vs-fg" d="M13,6v5H10V7c0-1.295-1.234-2.346-3.07-2.781A.075.075,0,0,1,7,4.2V3h3V6ZM5,5.675c-2,0-3.325.8-3.325,1.325S3,8.325,5,8.325,8.325,7.527,8.325,7,7,5.675,5,5.675Z"/><path class="icon-vs-blue-" d="M5,5C2.791,5,1,5.9,1,7v6c0,1.1,1.791,2,4,2s4-.9,4-2V7C9,5.9,7.209,5,5,5ZM5,8.325c-2,0-3.325-.8-3.325-1.325S3,5.675,5,5.675,8.325,6.473,8.325,7,7,8.325,5,8.325Z"/></svg>