<svg xmlns="http://www.w3.org/2000/svg" width="16" height="16"><style type="text/css">.icon-canvas-transparent{opacity:0;fill:#F6F6F6;} .icon-vs-out{fill:#F6F6F6;} .icon-vs-bg{fill:#424242;} .icon-vs-fg{fill:#F0EFF1;}</style><path class="icon-canvas-transparent" d="M16 16h-16v-16h16v16z" id="canvas"/><path class="icon-vs-out" d="M16 3v9h-1v1h-2v1h-2c0 1.104-.896 2-2 2-.534 0-1.037-.208-1.415-.586l-1.413-1.414h-2.172v-1h-1v-.143c-1.72-.447-3-2-3-3.857 0-1.474.81-2.75 2-3.443v-3.557h1v-1h2v-1h9v1h1v2h1z" id="outline"/><path class="icon-vs-bg" d="M12 9h-4c0-.347-.059-.679-.142-1h4.142v1zm3-4v-1h-1v-2h-1v-1h-1v1h-1v-1h-1v1h-1v-1h-1v1h-1v-1h-1v1h-2v1h-1v1h1v1c.347 0 .679.059 1 .142v-1.142l1-1h6l1 1v6l-1 1h-3.172l1.172 1.172v-.172h1v1h1v-1h2v-1h1v-1h-1v-1h1v-1h-1v-1h1v-1h-1v-1h1zm-8 1.382c.167.192.315.397.443.618h3.557v-2h-4v1.382zm2.707 6.911l-3.007-3.007c.187-.391.3-.823.3-1.286 0-1.657-1.343-3-3-3-.301 0-.586.058-.86.14l1.86 1.86-2 2-1.86-1.86c-.082.274-.14.559-.14.86 0 1.657 1.343 3 3 3 .462 0 .895-.113 1.286-.3l3.006 3.007c.182.181.432.293.708.293.553 0 1-.447 1-1 0-.276-.112-.526-.293-.707z" id="iconBg"/><path class="icon-vs-fg" d="M13 4v6l-1 1h-3.172l-.969-.969c.094-.338.141-.683.141-1.031h4v-1h-4.142c-.092-.356-.233-.689-.415-1h3.557v-2h-4v1.382c-.521-.597-1.21-1.035-2-1.24v-1.142l1-1h6l1 1z" id="iconFg"/></svg>