<svg xmlns="http://www.w3.org/2000/svg" width="16" height="16"><style type="text/css">.icon-canvas-transparent{opacity:0;fill:#F6F6F6;} .icon-vs-out{fill:#F6F6F6;} .icon-vs-bg{fill:#424242;} .icon-vs-fg{fill:#F0EFF1;}</style><path class="icon-canvas-transparent" d="M16 16h-16v-16h16v16z" id="canvas"/><path class="icon-vs-out" d="M16 8h-4v8h-12v-12h6v-4h10v8z" id="outline"/><path class="icon-vs-bg" d="M10 8v3l-1.5-1-2 1-2.5-3.126-2 2.21v-4.084h4v-1h-5v10h10v-7h-1zm0 6h-8v-1.916l2-2.21 2.5 3.126 2-1.549 1.5 1.549v1zm-4-5v-1h2v1h-2zm1-8v6h8v-6h-8zm7 5h-6v-4h6v4zm-1.5-2c0 .828-.672 1.5-1.5 1.5s-1.5-.672-1.5-1.5.672-1.5 1.5-1.5 1.5.672 1.5 1.5z" id="iconBg"/><g id="iconFg"><path class="icon-vs-fg" d="M10 14h-8v-1.916l2-2.21 2.5 3.126 2-1.549 1.5 1.549v1zm-2-6v1h-2v-3h-4v4.084l2-2.21 2.5 3.126 2-1 1.5 1v-3h-2zm6-6v4h-6v-4h6zm-1.5 2c0-.828-.672-1.5-1.5-1.5s-1.5.672-1.5 1.5.672 1.5 1.5 1.5 1.5-.672 1.5-1.5z"/></g></svg>