<svg xmlns="http://www.w3.org/2000/svg" width="16" height="16"><style type="text/css">.icon-canvas-transparent{opacity:0;fill:#F6F6F6;} .icon-vs-out{fill:#F6F6F6;} .icon-vs-bg{fill:#424242;} .icon-vs-fg{fill:#F0EFF1;}</style><path class="icon-canvas-transparent" d="M16 16h-16v-16h16v16z" id="canvas"/><path class="icon-vs-out" d="M4 15c-.97 0-2-.701-2-2v-10c0-1.299 1.03-2 2-2h6.061l3.939 3.556v8.444c0 .97-.701 2-2 2h-8z" id="outline"/><path class="icon-vs-bg" d="M3 3.586v-.586c0-1 .964-1 .964-1h5.677l3.359 3v8s-.012.225-.126.46l-.874-.874v-6.586h-3v-3h-5v1.586l-1-1zm0 1.414v2l7 7h2l-9-9zm4.586 8h-3.586v-3.586l-1-1v4.586c0 1 .965 1 .965 1h4.621l-1-1z" id="iconBg"/><path class="icon-vs-fg" d="M4 4.585v-1.585h5v3h3v6.586l-8-8.001zm0 4.829v3.586h3.586l-3.586-3.586z" id="iconFg"/></svg>