<svg xmlns="http://www.w3.org/2000/svg" width="16" height="16"><style type="text/css">.icon-canvas-transparent{opacity:0;fill:#F6F6F6;} .icon-vs-out{fill:#F6F6F6;} .icon-vs-bg{fill:#424242;} .icon-vs-fg{fill:#F0EFF1;}</style><path class="icon-canvas-transparent" d="M16 16h-16v-16h16v16z" id="canvas"/><path class="icon-vs-out" d="M14 0v16h-11v-16h11z" id="outline"/><path class="icon-vs-bg" d="M13 1v14l-1-1v-1h-1l-1-1h2v-10h-7v5l-1-1v-5h9zm-8 13v-1l-1-1v3h3l-1-1h-1zm-1-6v2l5 5h2l-7-7z" id="iconBg"/><path class="icon-vs-fg" d="M11 13h1v1l-1-1zm-6 1h1l-1-1v1zm5-2h2v-10h-7v5l5 5z" id="iconFg"/></svg>