<svg xmlns="http://www.w3.org/2000/svg" width="16" height="16"><style type="text/css">.icon-canvas-transparent{opacity:0;fill:#F6F6F6;} .icon-vs-out{fill:#F6F6F6;} .icon-vs-bg{fill:#424242;} .icon-vs-fg{fill:#F0EFF1;} .st0{fill-rule:evenodd;clip-rule:evenodd;fill:#CCCCCC;} .st1{fill-rule:evenodd;clip-rule:evenodd;fill:#CACACA;} .st2{fill-rule:evenodd;clip-rule:evenodd;fill:#9F9F9F;} .st3{fill-rule:evenodd;clip-rule:evenodd;fill:#A8A8A7;} .st4{fill-rule:evenodd;clip-rule:evenodd;fill:#787878;} .st5{fill-rule:evenodd;clip-rule:evenodd;fill:#6C6C6C;} .st6{fill-rule:evenodd;clip-rule:evenodd;fill:#8B8B8B;} .st7{fill-rule:evenodd;clip-rule:evenodd;fill:#D7D7D7;} .st8{fill-rule:evenodd;clip-rule:evenodd;fill:#989898;} .st9{fill-rule:evenodd;clip-rule:evenodd;fill:#949492;} .st10{fill-rule:evenodd;clip-rule:evenodd;fill:#D1D1D1;} .st11{fill-rule:evenodd;clip-rule:evenodd;fill:#BABABA;} .st12{fill-rule:evenodd;clip-rule:evenodd;fill:#D5D5D5;} .st13{fill-rule:evenodd;clip-rule:evenodd;fill:#8A8A8A;}</style><path class="icon-canvas-transparent" d="M16 16h-16v-16h16v16z" id="canvas"/><path class="icon-vs-out" d="M16 2v13h-14v-5h-.25c-.965 0-1.75-.785-1.75-1.75v-6.5c0-.965.785-1.75 1.75-1.75h6.5c.965 0 1.75.785 1.75 1.75v.25h6z" id="outline"/><path class="icon-vs-bg" d="M8.25 1h-6.5c-.414 0-.75.336-.75.75v6.5c0 .414.336.75.75.75h6.5c.414 0 .75-.336.75-.75v-6.5c0-.414-.336-.75-.75-.75zm-3.524 1.187c.208.151.313.365.313.642 0 .342-.108.605-.325.791-.217.186-.523.278-.916.278h-.747v-1.898h1.132c.217.035.408.089.543.187zm-1.726 4.813v-2h.93c.476 0 .834.025 1.076.216.243.19.364.417.364.749 0 .156-.027.284-.083.419-.056.136-.139.244-.249.343-.11.099-.25.154-.417.211-.168.057-.364.062-.589.062h-1.032zm5 .438c0 .31-.252.562-.562.562h-3.259c.332 0 .646-.045.94-.137.294-.091.551-.223.772-.398.219-.174.393-.387.52-.64.127-.252.19-.541.19-.867 0-.238-.036-.454-.11-.649-.073-.195-.179-.366-.317-.512-.139-.147-.311-.266-.508-.359-.197-.093-.666-.155-.666-.188v-.02c0-.059.36-.14.515-.244.154-.104.29-.226.4-.364s.198-.293.26-.464c.062-.171.093-.354.093-.549 0-.214-.041-.417-.125-.609h1.295c.31 0 .562.252.562.563v4.875zm7-4.438v11h-12v-4h1v3h10v-9h-4v-1h5z" id="iconBg"/><g id="iconFg"><path class="icon-vs-fg" d="M3.051 3.898v-1.898h1.132c.217.035.408.089.543.187.208.151.313.365.313.642 0 .342-.108.605-.325.791-.217.186-.523.278-.916.278h-.747zm4.387-1.898h-1.296c.084.192.126.395.126.609 0 .195-.032.378-.093.549-.062.172-.15.326-.26.465s-.246.26-.4.364c-.155.103-.515.185-.515.243v.02c0 .033.469.095.666.188.197.093.37.212.508.359.138.146.244.317.316.513.074.195.11.412.11.649 0 .326-.063.614-.19.867-.127.252-.301.465-.52.64-.22.174-.477.306-.771.397-.295.092-.608.137-.94.137h3.259c.31 0 .562-.252.562-.562v-4.875c0-.311-.252-.563-.562-.563zm-2.4 4.727c.11-.099.193-.208.249-.343.056-.135.083-.263.083-.419 0-.332-.121-.559-.364-.749-.242-.191-.601-.216-1.076-.216h-.93v2h1.032c.225 0 .421-.005.589-.062.167-.057.307-.112.417-.211z"/><path class="st0" d="M5 12h1v.981h-1v-.981z"/><path class="st0" d="M6 12h1v.981h-1v-.981z"/><path class="st0" d="M7 12h1v.981h-1v-.981z"/><path class="st0" d="M8 12h1v.981h-1v-.981z"/><path class="st0" d="M9 12h1v.981h-1v-.981z"/><path class="st0" d="M10 12h1v.981h-1v-.981z"/><path class="st0" d="M11 12h1v.981h-1v-.981z"/><path class="st0" d="M12 12h1v.981h-1v-.981z"/><path class="st0" d="M13 12h1v.981h-1v-.981z"/><path class="st0" d="M5 11h1v.981h-1v-.981z"/><path class="st1" d="M6 11h1v.981h-1v-.981z"/><path class="st2" d="M7 11h1v.981h-1v-.981z"/><path class="st0" d="M8 11h1v.981h-1v-.981z"/><path class="st3" d="M9 11h1v.981h-1v-.981z"/><path class="st4" d="M10 11h1v.981h-1v-.981z"/><path class="st5" d="M11 11h1v.981h-1v-.981z"/><path class="st6" d="M12 11h1v.981h-1v-.981z"/><path class="st0" d="M13 11h1v.981h-1v-.981z"/><path class="st0" d="M5 10h1v.981h-1v-.981z"/><path class="st0" d="M4 12h1v.981h-1v-.981z"/><path class="st0" d="M4 11h1v.981h-1v-.981z"/><path class="st0" d="M4 10h1v.981h-1v-.981z"/><path class="st7" d="M6 10h1v.981h-1v-.981z"/><path class="st0" d="M7 10h1v.981h-1v-.981z"/><path class="st0" d="M8 10h1v.981h-1v-.981z"/><path class="st7" d="M9 10h1v.981h-1v-.981z"/><path class="st8" d="M11 10h1v.981h-1v-.981z"/><path class="st0" d="M10 10h1v.981h-1v-.981z"/><path class="st9" d="M12 10h1v.981h-1v-.981z"/><path class="st0" d="M13 10h1v.981h-1v-.981z"/><path class="st10" d="M10 9h1v.981h-1v-.981z"/><path class="st11" d="M11 9h1v.981h-1v-.981z"/><path class="st0" d="M12 9h1v.981h-1v-.981z"/><path class="st0" d="M13 9h1v.981h-1v-.981z"/><path class="st12" d="M10 8h1v.981h-1v-.981z"/><path class="st12" d="M11 8h1v.981h-1v-.981z"/><path class="st0" d="M12 8h1v.981h-1v-.981z"/><path class="st0" d="M13 8h1v.981h-1v-.981z"/><path class="st13" d="M10 7h1v.981h-1v-.981z"/><path class="st2" d="M11 7h1v.981h-1v-.981z"/><path class="st0" d="M12 7h1v.981h-1v-.981z"/><path class="st0" d="M13 7h1v.981h-1v-.981z"/><path class="st13" d="M10 5h1v.981h-1v-.981z"/><path class="st2" d="M11 5h1v.981h-1v-.981z"/><path class="st0" d="M12 5h1v.981h-1v-.981z"/><path class="st0" d="M13 5h1v.981h-1v-.981z"/><path class="st2" d="M10 6h1v.981h-1v-.981z"/><path class="st13" d="M11 6h1v.981h-1v-.981z"/><path class="st0" d="M12 6h1v.981h-1v-.981z"/><path class="st0" d="M13 6h1v.981h-1v-.981z"/><path class="st0" d="M10 4h1v.981h-1v-.981z"/><path class="st0" d="M11 4h1v.981h-1v-.981z"/><path class="st0" d="M12 4h1v.981h-1v-.981z"/><path class="st0" d="M13 4h1v.981h-1v-.981z"/><path class="st10" d="M9 9.824v.157h1v-.981h-.176c-.173.361-.463.651-.824.824z"/><path class="st12" d="M10 8.981v-.731c0 .262-.062.508-.165.731h.165z"/><path class="st12" d="M8.434 9.981h.566v-.157c-.175.084-.366.136-.566.157z"/></g></svg>