<svg xmlns="http://www.w3.org/2000/svg" width="16" height="16"><style type="text/css">.icon-canvas-transparent{opacity:0;fill:#F6F6F6;} .icon-vs-out{fill:#F6F6F6;} .icon-vs-bg{fill:#424242;} .icon-vs-fg{fill:#F0EFF1;} .st0{fill-rule:evenodd;clip-rule:evenodd;fill:#8C8C8C;} .st1{fill-rule:evenodd;clip-rule:evenodd;fill:#767676;} .st2{fill-rule:evenodd;clip-rule:evenodd;fill:#7A7A7A;} .st3{fill-rule:evenodd;clip-rule:evenodd;fill:#7F7F7F;} .st4{fill-rule:evenodd;clip-rule:evenodd;fill:#9A9A9A;} .st5{fill-rule:evenodd;clip-rule:evenodd;fill:#AAAAAA;} .st6{fill-rule:evenodd;clip-rule:evenodd;fill:#B1B1B1;} .st7{fill-rule:evenodd;clip-rule:evenodd;fill:#8A8A8A;} .st8{fill-rule:evenodd;clip-rule:evenodd;fill:#969696;} .st9{fill-rule:evenodd;clip-rule:evenodd;fill:#929292;} .st10{fill-rule:evenodd;clip-rule:evenodd;fill:#898989;} .st11{fill-rule:evenodd;clip-rule:evenodd;fill:#919191;} .st12{fill-rule:evenodd;clip-rule:evenodd;fill:#A2A2A2;} .st13{fill-rule:evenodd;clip-rule:evenodd;fill:#ADADAD;} .st14{fill-rule:evenodd;clip-rule:evenodd;fill:#C3C3C3;} .st15{fill-rule:evenodd;clip-rule:evenodd;fill:#BCBCBC;} .st16{fill-rule:evenodd;clip-rule:evenodd;fill:#B8B8B8;} .st17{fill-rule:evenodd;clip-rule:evenodd;fill:#A5A5A5;} .st18{fill-rule:evenodd;clip-rule:evenodd;fill:#9B9B9B;} .st19{fill-rule:evenodd;clip-rule:evenodd;fill:#939393;} .st20{fill-rule:evenodd;clip-rule:evenodd;fill:#9E9E9E;} .st21{fill-rule:evenodd;clip-rule:evenodd;fill:#BABABA;} .st22{fill-rule:evenodd;clip-rule:evenodd;fill:#B5B5B5;} .st23{fill-rule:evenodd;clip-rule:evenodd;fill:#AEAEAE;} .st24{fill-rule:evenodd;clip-rule:evenodd;fill:#D0D0D0;} .st25{fill-rule:evenodd;clip-rule:evenodd;fill:#CACACA;} .st26{fill-rule:evenodd;clip-rule:evenodd;fill:#D8D8D8;} .st27{fill-rule:evenodd;clip-rule:evenodd;fill:#CFCFCF;}</style><path class="icon-canvas-transparent" d="M16 16h-16v-16h16v16z" id="canvas"/><path class="icon-vs-out" d="M16 2v13h-14v-5h-.25c-.965 0-1.75-.785-1.75-1.75v-6.5c0-.965.785-1.75 1.75-1.75h6.5c.965 0 1.75.785 1.75 1.75v.25h6z" id="outline"/><path class="icon-vs-bg" d="M8.25 1h-6.5c-.414 0-.75.336-.75.75v6.5c0 .414.336.75.75.75h6.5c.414 0 .75-.336.75-.75v-6.5c0-.414-.336-.75-.75-.75zm-3.524 1.187c.208.151.313.365.313.642 0 .342-.108.605-.325.791-.217.186-.523.278-.916.278h-.747v-1.898h1.132c.217.035.408.089.543.187zm-1.726 4.813v-2h.93c.476 0 .834.025 1.076.216.243.19.364.417.364.749 0 .156-.027.284-.083.419-.056.136-.139.244-.249.343-.11.099-.25.154-.417.211-.168.057-.364.062-.589.062h-1.032zm5 .438c0 .31-.252.562-.562.562h-3.259c.332 0 .646-.045.94-.137.294-.091.551-.223.772-.398.219-.174.393-.387.52-.64.127-.252.19-.541.19-.867 0-.238-.036-.454-.11-.649-.073-.195-.179-.366-.317-.512-.139-.147-.311-.266-.508-.359-.197-.093-.666-.155-.666-.188v-.02c0-.059.36-.14.515-.244.154-.104.29-.226.4-.364s.198-.293.26-.464c.062-.171.093-.354.093-.549 0-.214-.041-.417-.125-.609h1.295c.31 0 .562.252.562.563v4.875zm7-4.438v11h-12v-4h1v3h10v-6h-4v-4h5z" id="iconBg"/><g id="iconFg"><path class="icon-vs-fg" d="M3.051 3.898v-1.898h1.132c.217.035.408.089.543.187.208.151.313.365.313.642 0 .342-.108.605-.325.791-.217.186-.523.278-.916.278h-.747zm4.387-1.898h-1.296c.084.192.126.395.126.609 0 .195-.032.378-.093.549-.062.172-.15.326-.26.465s-.246.26-.4.364c-.155.103-.515.185-.515.243v.02c0 .033.469.095.666.188.197.093.37.212.508.359.138.146.244.317.316.513.074.195.11.412.11.649 0 .326-.063.614-.19.867-.127.252-.301.465-.52.64-.22.174-.477.306-.771.397-.295.092-.608.137-.94.137h3.259c.31 0 .562-.252.562-.562v-4.875c0-.311-.252-.563-.562-.563zm-2.4 4.727c.11-.099.193-.208.249-.343.056-.135.083-.263.083-.419 0-.332-.121-.559-.364-.749-.242-.191-.601-.216-1.076-.216h-.93v2h1.032c.225 0 .421-.005.589-.062.167-.057.307-.112.417-.211z"/><path class="st0" d="M5 12h1v.981h-1v-.981z"/><path class="st1" d="M6 12h1v.981h-1v-.981z"/><path class="st2" d="M7 12h1v.981h-1v-.981z"/><path class="st3" d="M8 12h1v.981h-1v-.981z"/><path class="st0" d="M9 12h1v.981h-1v-.981z"/><path class="st4" d="M10 12h1v.981h-1v-.981z"/><path class="st5" d="M11 12h1v.981h-1v-.981z"/><path class="st6" d="M12 12h1v.981h-1v-.981z"/><path class="st6" d="M13 12h1v.981h-1v-.981z"/><path class="st7" d="M5 11h1v.981h-1v-.981z"/><path class="st8" d="M6 11h1v.981h-1v-.981z"/><path class="st9" d="M7 11h1v.981h-1v-.981z"/><path class="st0" d="M8 11h1v.981h-1v-.981z"/><path class="st10" d="M9 11h1v.981h-1v-.981z"/><path class="st10" d="M10 11h1v.981h-1v-.981z"/><path class="st11" d="M11 11h1v.981h-1v-.981z"/><path class="st12" d="M12 11h1v.981h-1v-.981z"/><path class="st13" d="M13 11h1v.981h-1v-.981z"/><path class="st14" d="M5 10h1v.981h-1v-.981z"/><path class="st0" d="M4 12h1v.981h-1v-.981z"/><path class="st7" d="M4 11h1v.981h-1v-.981z"/><path class="st14" d="M4 10h1v.981h-1v-.981z"/><path class="st15" d="M6 10h1v.981h-1v-.981z"/><path class="st16" d="M7 10h1v.981h-1v-.981z"/><path class="st5" d="M8 10h1v.981h-1v-.981z"/><path class="st17" d="M9 10h2v.981h-2v-.981z"/><path class="st18" d="M11 10h1v.981h-1v-.981z"/><path class="st19" d="M12 10h1v.981h-1v-.981z"/><path class="st8" d="M13 10h1v.981h-1v-.981z"/><path class="st20" d="M10 9h1v.981h-1v-.981z"/><path class="st21" d="M11 9h1v.981h-1v-.981z"/><path class="st22" d="M12 9h1v.981h-1v-.981z"/><path class="st23" d="M13 9h1v.981h-1v-.981z"/><path class="st24" d="M10 8h1v.981h-1v-.981z"/><path class="st24" d="M11 8h1v.981h-1v-.981z"/><path class="st25" d="M12 8h1v.981h-1v-.981z"/><path class="st25" d="M13 8h1v.981h-1v-.981z"/><path class="st26" d="M10 7h1v.981h-1v-.981z"/><path class="st24" d="M11 7h1v.981h-1v-.981z"/><path class="st24" d="M12 7h1v.981h-1v-.981z"/><path class="st27" d="M13 7h1v.981h-1v-.981z"/><path class="st20" d="M9 9.824v.157h1v-.981h-.176c-.173.361-.463.651-.824.824z"/><path class="st5" d="M8.434 9.981h.566v-.157c-.175.084-.366.136-.566.157z"/><path class="st21" d="M10 8.981v-.731c0 .262-.062.508-.165.731h.165z"/></g></svg>