<svg xmlns="http://www.w3.org/2000/svg" width="16" height="16"><style type="text/css">.icon-canvas-transparent{opacity:0;fill:#F6F6F6;} .icon-vs-out{fill:#F6F6F6;} .icon-vs-bg{fill:#424242;} .icon-vs-fg{fill:#F0EFF1;}</style><path class="icon-canvas-transparent" d="M16 16h-16v-16h16v16z" id="canvas"/><path class="icon-vs-out" d="M13.558 10.394v4.494l-.354.3c-.183.155-.387.275-.603.357-.216.086-.472.132-.764.132-.384 0-.737-.099-1.051-.293-.242-.146-.459-.361-.645-.622-.184.24-.392.447-.638.594-.323.198-.703.301-1.12.301-.215 0-.419-.031-.606-.094h-1.016v.02h-2.188c-.205.063-.423.094-.653.094-.309 0-.596-.053-.854-.157-.273-.108-.513-.271-.708-.478-.197-.213-.34-.455-.432-.723-.084-.24-.128-.507-.128-.785 0-.264.037-.518.11-.756.057-.183.135-.354.235-.511v-1.807l.431-.299.287-.161h-1.111c-.965 0-1.75-.785-1.75-1.75v-6.498c0-.965.785-1.75 1.75-1.75h6.5c.965 0 1.75.785 1.75 1.75v6.498c0 .623-.329 1.167-.821 1.478.164.051.322.115.465.207.243.156.439.366.607.606.176-.223.373-.417.609-.56.463-.271 1.009-.359 1.495-.252l.272.073.303.133.245.158.383.301z" id="outline"/><path class="icon-vs-bg" d="M5.429 11.038c-.111-.129-.253-.227-.424-.295-.17-.068-.374-.102-.608-.102l-.368.033-.362.086-.31.108-.213.114v.768c.158-.131.341-.234.544-.313.204-.078.413-.117.627-.117.213 0 .377.063.494.186.116.125.174.324.174.6l-1.03.154c-.204.027-.379.078-.526.152-.145.074-.264.165-.357.279-.094.111-.161.238-.205.381-.044.143-.066.296-.066.461 0 .169.026.322.075.463.048.141.121.26.215.361.093.1.21.178.352.234.14.057.298.084.479.084.229 0 .43-.053.603-.16.173-.105.319-.26.439-.463h.014v.529h.785v-2.438c0-.238-.027-.451-.083-.637-.054-.181-.138-.339-.249-.468m-.446 2.02c0 .131-.021.252-.059.365-.038.111-.092.211-.165.295-.072.084-.157.15-.255.199-.101.049-.213.072-.337.072l-.243-.041-.185-.113-.116-.172-.041-.219.027-.232.098-.18c.047-.053.112-.098.195-.133.083-.033.189-.061.32-.078l.761-.109v.346zm4.515-1.866c-.104-.176-.236-.314-.395-.416-.161-.104-.352-.152-.574-.152-.123 0-.233.018-.336.051-.101.035-.193.084-.277.146-.084.063-.158.136-.226.223l-.18.29h-.013v-1.657h-.698v4.887h.697v-.484h.013l.151.229.192.186c.071.053.151.092.238.121.088.029.185.043.292.043.229 0 .433-.053.608-.16.177-.105.323-.254.444-.443.119-.188.211-.412.271-.672.061-.26.092-.539.092-.844 0-.258-.025-.502-.074-.734s-.123-.438-.225-.614m-.477 1.954c-.04.18-.095.328-.168.445-.073.116-.161.207-.264.266-.105.06-.221.092-.351.092-.106 0-.209-.025-.301-.076-.09-.049-.169-.119-.237-.207-.066-.086-.117-.189-.154-.307-.037-.117-.057-.244-.057-.381v-.506c0-.17.021-.326.061-.465.04-.139.095-.258.168-.359.072-.1.156-.178.257-.232.099-.055.21-.081.331-.081.122 0 .23.026.327.081.095.055.177.135.244.238.065.105.115.23.15.377.033.146.051.311.051.494.002.234-.017.441-.057.621m3.29-2.395l.141.063.106.066v.814c-.084-.092-.176-.166-.271-.223-.098-.055-.205-.082-.318-.082-.084 0-.16.032-.238.064-.262.182-.469.586-.469 1.301 0 .668.182 1.011.424 1.146.084.04.17.074.272.074l.155-.027.158-.068.15-.1.137-.125v.77c-.09.076-.191.14-.309.184-.117.047-.254.068-.412.068-.193 0-.369-.047-.523-.143-.156-.094-.287-.229-.398-.396-.108-.172-.192-.371-.251-.602-.059-.234-.088-.484-.088-.754 0-.316.031-.604.096-.861.063-.258.154-.479.273-.66.119-.182.264-.322.432-.424.17-.1.361-.15.57-.15l.193.02.17.045m-4.061-9.749h-6.5c-.414 0-.75.334-.75.75v6.498c0 .415.336.75.75.75h6.5c.414 0 .75-.335.75-.75v-6.498c0-.416-.336-.75-.75-.75zm-5.199.999h1.132c.217.035.408.088.543.187.208.151.312.365.312.642 0 .341-.108.605-.325.791-.216.186-.522.278-.915.278h-.747v-1.898zm-.051 5v-2h.93c.475 0 .834.026 1.076.215.243.191.364.418.364.75 0 .156-.027.285-.083.42-.057.135-.139.242-.249.343-.11.099-.25.153-.417.21-.168.058-.364.062-.589.062h-1.032zm5 .437l-.029.145c-.062.224-.251.39-.49.409l-.043.009h-3.259l.125-.009c.285-.01.558-.048.814-.128.295-.092.552-.223.773-.398.219-.174.393-.387.52-.639.126-.252.191-.541.191-.867 0-.237-.037-.455-.111-.649-.073-.196-.178-.367-.317-.514-.139-.146-.311-.266-.508-.359-.197-.091-.666-.154-.666-.187v-.02c0-.059.359-.14.516-.244.153-.104.289-.226.399-.364.11-.138.198-.293.26-.464.061-.171.093-.353.093-.549 0-.214-.041-.417-.125-.609h1.295c.259 0 .468.178.533.417l.029.145v4.875z" id="iconBg"/><path class="icon-vs-fg" d="M3.798 3.899h-.747v-1.898h1.132c.217.035.408.088.543.187.208.151.312.365.312.642 0 .341-.108.605-.325.791-.216.186-.522.278-.915.278zm1.572 2.067c0-.332-.121-.559-.364-.75-.242-.19-.601-.215-1.076-.215h-.93v2h1.032c.225 0 .421-.004.589-.063.167-.057.307-.111.417-.21.11-.101.192-.208.249-.343.056-.134.083-.263.083-.419zm2.068-3.965h-1.295c.084.192.125.396.125.609 0 .195-.031.378-.093.549-.062.171-.149.326-.26.464-.11.138-.246.26-.399.364-.157.104-.516.185-.516.244v.019c0 .033.469.096.666.188.197.093.369.213.508.359.139.147.244.318.316.514.074.194.112.412.112.649 0 .326-.064.615-.191.867s-.301.465-.52.639c-.221.175-.478.306-.772.398-.257.08-.53.118-.814.128h3.176c.239-.019.428-.185.49-.409v-5.165c-.066-.238-.274-.417-.533-.417z" id="iconFg"/></svg>