<svg xmlns="http://www.w3.org/2000/svg" viewBox="0 0 16 16"><style>.icon-canvas-transparent{opacity:0;fill:#f6f6f6}.icon-vs-out{fill:#f6f6f6}.icon-vs-bg{fill:#424242}.icon-vs-fg{fill:#f0eff1}.icon-vs-blue{fill:#1ba1e2}</style><path class="icon-canvas-transparent" d="M16 16H0V0h16v16z" id="canvas"/><path class="icon-vs-out" d="M16 11h-1v2h-5v2H0V0h16v3h-4v1h4v7z" id="outline"/><path class="icon-vs-bg" d="M1 13h8v1H1v-1zM11 3H1v1h10V3zM1 12h13v-1H1v1zM1 1v1h14V1H1z" id="iconBg"/><path class="icon-vs-fg" d="M14 6v1H2V6h12zM2 9h9V8H2v1z" id="iconFg"/><path class="icon-vs-blue" d="M1 5v5h14V5H1zm10 4H2V8h9v1zm3-2H2V6h12v1z" id="colorImportance"/></svg>