<svg xmlns="http://www.w3.org/2000/svg" width="16" height="16"><style type="text/css">.icon-canvas-transparent{opacity:0;fill:#F6F6F6;} .icon-vs-out{fill:#F6F6F6;} .icon-vs-bg{fill:#424242;} .icon-vs-fg{fill:#F0EFF1;}</style><path class="icon-canvas-transparent" d="M16 16h-16v-16h16v16z" id="canvas"/><path class="icon-vs-out" d="M16 7.5c0 4.141-3.359 7.5-7.5 7.5s-7.5-3.359-7.5-7.5 3.359-7.5 7.5-7.5 7.5 3.359 7.5 7.5z" id="outline"/><path class="icon-vs-bg" d="M8.5 1c-3.59 0-6.5 2.91-6.5 6.5s2.91 6.5 6.5 6.5 6.5-2.91 6.5-6.5-2.91-6.5-6.5-6.5zm2.297 8.826c-.134.252-.318.465-.551.641-.232.174-.506.305-.818.397-.313.091-.646.136-.999.136h-2.429v-7h2.348c.394 0 .734.043 1.025.13.289.085.529.203.718.349.188.147.328.318.419.513.092.195.138.402.138.621 0 .193-.033.378-.099.549-.065.171-.156.325-.273.463-.117.139-.26.261-.424.364-.164.103-.344.184-.542.243v.019c.261.032.494.095.704.188.207.092.386.212.532.359.146.146.259.317.337.513.078.195.117.412.117.649 0 .325-.068.614-.203.866zm-2.772-2.927h-.792v-1.936h.803c.429 0 .752.075.974.226.222.152.331.366.331.643 0 .342-.114.606-.343.791-.23.184-.554.276-.973.276zm1.282 1.248c.258.19.387.451.387.784 0 .155-.03.301-.088.438-.059.134-.148.251-.265.35-.117.1-.265.178-.443.235-.177.056-.386.085-.624.085h-1.041v-2.177h.933c.504 0 .883.095 1.141.285z" id="iconBg"/><path class="icon-vs-fg" d="M10.883 8.311c-.078-.196-.19-.367-.337-.513-.147-.147-.325-.267-.532-.359-.21-.093-.444-.155-.704-.188v-.019c.198-.06.378-.14.542-.244.164-.104.307-.226.424-.364.117-.138.208-.292.273-.463.065-.171.099-.355.099-.549 0-.219-.046-.426-.138-.621-.091-.195-.231-.366-.419-.513-.189-.145-.429-.263-.718-.348-.291-.087-.631-.13-1.025-.13h-2.348v7h2.429c.353 0 .686-.045.999-.137.313-.092.586-.223.818-.397.232-.176.417-.389.551-.641.135-.251.203-.54.203-.865 0-.237-.039-.454-.117-.649zm-3.65-3.348h.803c.429 0 .752.075.974.226.222.152.331.366.331.643 0 .342-.114.606-.343.791-.23.186-.554.278-.973.278h-.792v-1.938zm2.372 4.406c-.058.134-.147.251-.264.35-.117.1-.265.178-.443.235-.177.056-.386.085-.624.085h-1.041v-2.177h.933c.504 0 .883.095 1.141.285.258.19.387.451.387.784-.001.155-.031.301-.089.438z" id="iconFg"/></svg>