<svg xmlns="http://www.w3.org/2000/svg" width="16" height="16"><style type="text/css">.icon-canvas-transparent{opacity:0;fill:#F6F6F6;} .icon-vs-out{fill:#F6F6F6;} .icon-vs-bg{fill:#424242;}</style><path class="icon-canvas-transparent" d="M16 16h-16v-16h16v16z" id="canvas"/><path class="icon-vs-out" d="M4 14v-12h4.635c1.375 0 2.424.274 3.204.837.782.566 1.161 1.386 1.161 2.506 0 .568-.077 1.393-.717 2.108.113.093.221.193.322.3.593.621.894 1.383.894 2.264 0 1.201-.464 2.22-1.343 2.945-.83.69-1.947 1.04-3.32 1.04h-4.836z" id="outline"/><path class="icon-vs-bg" d="M12.5 10.016c0 .91-.327 1.636-.979 2.175-.652.54-1.546.809-2.685.809h-3.836v-10h3.635c1.146 0 2.021.216 2.619.648.565.41.746.974.746 1.695 0 .581-.106 1.084-.523 1.506-.354.358-.792.609-1.317.753v.028c.72.089 1.294.359 1.721.81.412.432.619.957.619 1.576zm-2.765-4.254c0-.735-.548-1.102-1.644-1.102h-1.091v2.37h1.237c.46 0 .825-.114 1.094-.341.269-.228.404-.537.404-.927zm.397 4.225c0-.399-.145-.714-.438-.941-.293-.227-.697-.342-1.213-.342h-1.481v2.637h1.468c.52 0 .931-.124 1.232-.37.288-.247.432-.575.432-.984z" id="iconBg"/></svg>