<svg xmlns="http://www.w3.org/2000/svg" width="16" height="16"><style type="text/css">.icon-canvas-transparent{opacity:0;fill:#F6F6F6;} .icon-vs-out{fill:#F6F6F6;} .icon-vs-bg{fill:#424242;} .icon-vs-fg{fill:#F0EFF1;}</style><path class="icon-canvas-transparent" d="M16 16h-16v-16h16v16z" id="canvas"/><path class="icon-vs-out" d="M16 8.222l-3.163 6.778h-9.674l-3.163-6.778v-.444l3.163-6.778h9.674l3.163 6.778v.444z" id="outline"/><path class="icon-vs-bg" d="M12.2 2h-8.4l-2.8 6 2.8 6h8.4l2.8-6-2.8-6zm-4.2 10c-2.209 0-4-1.791-4-4s1.791-4 4-4 4 1.791 4 4-1.791 4-4 4z" id="iconBg"/><path class="icon-vs-fg" d="M12 8c0 2.209-1.791 4-4 4s-4-1.791-4-4 1.791-4 4-4 4 1.791 4 4z" id="iconFg"/></svg>