<svg xmlns="http://www.w3.org/2000/svg" viewBox="0 0 16 16"><style>.icon-canvas-transparent{opacity:0;fill:#f6f6f6}.icon-vs-out{fill:#f6f6f6}.icon-vs-bg{fill:#424242}</style><path class="icon-canvas-transparent" d="M16 0v16H0V0h16z" id="canvas"/><path class="icon-vs-out" d="M15.304 14.134A3.493 3.493 0 0 1 12.208 16H5.386l-.018.033h-3.43l-.554-1.002a3.518 3.518 0 0 1-.687-.897 3.508 3.508 0 0 1-.335-.95L.26 13l.059-.107c-.094-.821.1-1.662.584-2.37l.416-.608L.26 8l1.678-3.034h2.768L5 4.536V3H4V0h8v3h-1v1.536l4.097 5.987a3.496 3.496 0 0 1 .207 3.611z" id="outline"/><path class="icon-vs-bg" d="M14.419 13.667A2.494 2.494 0 0 1 12.208 15H5.939l.811-1.467h2.965l1.678-3.033-.83-1.5h1.068L9 5.154V2H7v3.154L6.155 6.39l-.542-.979L6 4.846V2H5V1h6v1h-1v2.846l4.272 6.242c.525.767.582 1.756.147 2.579zm-5.294-1.133L10.25 10.5 9.125 8.466h-2.25L5.75 10.5l1.125 2.034h2.25zm-4.348-2.5L5.902 8 4.777 5.966h-2.25L1.402 8l1.125 2.034h2.25zm-2.25.932L1.402 13l1.125 2.034h2.25L5.902 13l-1.125-2.034h-2.25z" id="iconBg"/></svg>