<svg xmlns="http://www.w3.org/2000/svg" viewBox="0 0 16 16"><style>.icon-canvas-transparent{opacity:0;fill:#f6f6f6}.icon-vs-out{fill:#f6f6f6}.icon-vs-bg{fill:#424242}</style><path class="icon-canvas-transparent" d="M16 0v16H0V0h16z" id="canvas"/><path class="icon-vs-out" d="M15.304 14.134A3.493 3.493 0 0 1 12.208 16H3.792c-.114 0-.225-.012-.337-.023-.108.008-.211.023-.323.023H0V7.355h3.071L5 4.536V3H4V0h8v3h-1v1.536l4.097 5.987a3.496 3.496 0 0 1 .207 3.611z" id="outline"/><path class="icon-vs-bg" d="M14.419 13.667A2.494 2.494 0 0 1 12.208 15H5.71a2.65 2.65 0 0 0 .79-1.909c0-.712-.238-1.337-.688-1.805l-.008-.009c.262-.413.395-.884.395-1.402 0-.314-.069-.603-.178-.875h5.61L9 5.154V2H7v3.154L5.118 7.905a2.998 2.998 0 0 0-.928-.414L6 4.846V2H5V1h6v1h-1v2.846l4.271 6.242c.526.767.583 1.756.148 2.579zm-9.329-1.69c.273.285.41.657.41 1.114 0 .569-.224 1.029-.671 1.381-.449.352-1.015.528-1.697.528H1V8.355h2.109c.643 0 1.151.141 1.527.422.375.281.563.647.563 1.098 0 .377-.107.704-.32.982a1.726 1.726 0 0 1-.885.593v.018c.457.053.822.222 1.096.509zm-2.991-.847h.714c.383 0 .684-.09.901-.271.218-.18.326-.436.326-.767 0-.568-.379-.852-1.139-.852h-.802v1.89zm2.229 1.92c0-.689-.478-1.034-1.432-1.034h-.797v2.104h.94c.411 0 .729-.095.953-.285.224-.19.336-.452.336-.785z" id="iconBg"/></svg>