<svg xmlns="http://www.w3.org/2000/svg" width="16" height="16"><style type="text/css">.icon-canvas-transparent{opacity:0;fill:#F6F6F6;} .icon-vs-out{fill:#F6F6F6;} .icon-vs-bg{fill:#424242;} .icon-vs-fg{fill:#F0EFF1;}</style><path class="icon-canvas-transparent" d="M16 16h-16v-16h16v16z" id="canvas"/><path class="icon-vs-out" d="M16 15h-15v-15h15v15z" id="outline"/><path class="icon-vs-bg" d="M9 8h-1v-1h1v1zm0-3h-1v1h1v-1zm4 2h-1v1h1v-1zm-4-4h-1v1h1v-1zm2 4h-1v1h1v-1zm-2 2h-1v1h1v-1zm0 2h-1v1h1v-1zm6-10v13h-13v-13h13zm-1 1h-11v11h11v-11zm-9 5h-1v1h1v-1zm2 0h-1v1h1v-1z" id="iconBg"/><path class="icon-vs-fg" d="M3 13h11v-11h-11v11zm9-6h1v1h-1v-1zm-2 0h1v1h-1v-1zm-2-4h1v1h-1v-1zm0 2h1v1h-1v-1zm0 2h1v1h-1v-1zm0 2h1v1h-1v-1zm0 2h1v1h-1v-1zm-2-4h1v1h-1v-1zm-2 0h1v1h-1v-1z" id="iconFg"/></svg>