<svg xmlns="http://www.w3.org/2000/svg" viewBox="0 0 16 16"><defs><style>.icon-canvas-transparent,.icon-vs-out{fill:#f6f6f6}.icon-canvas-transparent{opacity:0}.a{fill:#424242}.b{fill:#f0eff1}.icon-vs-action-blue{fill:#00539c}</style></defs><title>BorderElement_16x</title><path class="icon-canvas-transparent" d="M0 0h16v16H0z"/><path class="icon-vs-out" d="M14 5v6h2v5h-5v-2H5v2H0v-5h2V5H0V0h5v2h6V0h5v5z"/><path class="a" d="M12 4h1v8h-1zM4 3v1h8V3zm-1 9h1V4H3zm9 0H4v1h8z"/><path class="b" d="M4 4h8v8H4z"/><path class="icon-vs-action-blue" d="M4 4H1V1h3zm11-3h-3v3h3zm0 11h-3v3h3zM4 12H1v3h3z"/></svg>