<svg xmlns="http://www.w3.org/2000/svg" width="16" height="16"><style type="text/css">.icon-canvas-transparent{opacity:0;fill:#F6F6F6;} .icon-vs-out{fill:#F6F6F6;} .icon-vs-bg{fill:#424242;} .icon-vs-fg{fill:#F0EFF1;}</style><path class="icon-canvas-transparent" d="M16 16h-16v-16h16v16z" id="canvas"/><path class="icon-vs-out" d="M6 0v1.057c-.322-.036-.655-.057-1-.057-2.851 0-5 1.29-5 3v6c0 1.279 1.202 2.321 3 2.767v3.233h10v-1h3v-15h-10z" id="outline"/><path class="icon-vs-bg" d="M4 15h8v-8h-8v8zm1-7h5.793l-3.292 3.293-1.146-1.147-.707.707 1.854 1.853 3.498-3.499v4.793h-6v-6zm10-7v13h-2v-1h1v-2h-1v-1h1v-3h-1v-1h1v-3h-6v3h-1v-5h8zm-9 5h-3v5.723c-1.19-.347-2-.985-2-1.723v-6c0-1.104 1.791-2 4-2 .348 0 .679.029 1 .071v.682c-.312-.045-.641-.078-1-.078-1.999 0-3.325.798-3.325 1.325s1.326 1.325 3.325 1.325c.359 0 .688-.033 1-.078v.753z" id="iconBg"/><path class="icon-vs-fg" d="M13 10.979h1v2h-1v-2zm-7.353-.125l.707-.707 1.146 1.147 3.293-3.294h-5.793v6h6v-4.793l-3.499 3.5-1.854-1.853zm7.353-.854h1v-3h-1v3zm-5-7v3h6v-3h-6zm-2-.247c-.312-.045-.641-.078-1-.078-1.999 0-3.325.798-3.325 1.325s1.326 1.325 3.325 1.325c.359 0 .688-.033 1-.078v-2.494z" id="iconFg"/></svg>