<svg xmlns="http://www.w3.org/2000/svg" width="16" height="16"><style type="text/css">.icon-canvas-transparent{opacity:0;fill:#F6F6F6;} .icon-vs-out{fill:#F6F6F6;} .icon-vs-bg{fill:#424242;} .icon-vs-fg{fill:#F0EFF1;}</style><path class="icon-canvas-transparent" d="M16 16h-16v-16h16v16z" id="canvas"/><path class="icon-vs-out" d="M15 0v16h-10v-1h-4v-9h4v-6h10z" id="outline"/><path class="icon-vs-bg" d="M14 1v14h-4v-1h3v-3h-3v-1h3v-3h-3v-1h3v-3h-6v3h-1v-5h8zm-7.25 9c.414 0 .75-.336.75-.75s-.336-.75-.75-.75-.75.336-.75.75.336.75.75.75zm2.25-3v7h-7v-7h7zm-2.5 6l-2-1.5-1.5 1.5h3.5zm1.5-5h-5v3.5l1.5-1.5 3.5 2.5v-4.5z" id="iconBg"/><path class="icon-vs-fg" d="M10 7h3v3h-3v-3zm0 7h3v-3h-3v3zm-3-11v3h6v-3h-6zm-2.5 8.5l2 1.5h-3.5l1.5-1.5zm3.5-3.5v4.5l-3.5-2.5-1.5 1.5v-3.5h5zm-.5 1.25c0-.414-.336-.75-.75-.75s-.75.336-.75.75.336.75.75.75.75-.336.75-.75z" id="iconFg"/></svg>