<svg xmlns="http://www.w3.org/2000/svg" width="16" height="16"><style type="text/css">.icon-canvas-transparent{opacity:0;fill:#F6F6F6;} .icon-vs-out{fill:#F6F6F6;} .icon-vs-bg{fill:#424242;} .icon-vs-fg{fill:#F0EFF1;}</style><path class="icon-canvas-transparent" d="M16 16h-16v-16h16v16z" id="canvas"/><path class="icon-vs-out" d="M15 6v7h-1v3h-5v-3h-1v-3h-2v1h1v3h-5v-3h1v-1h-2v-7h1v-3h5v3h1v3h2v-1h-1v-3h5v3h-1v1h2z" id="outline"/><path class="icon-vs-bg" d="M5 2h1v-1h-3v1h1v2h-2v5h2v3h-1v1h3v-1h-1v-3h2v-5h-2v-2zm1 3v3h-3v-3h3zm8 7v-5h-2v-3h1v-1h-3v1h1v3h-2v5h2v2h-1v1h3v-1h-1v-2h2zm-4-1v-3h3v3h-3z" id="iconBg"/><path class="icon-vs-fg" d="M3 5h3v3h-3v-3zm7 3v3h3v-3h-3z" id="iconFg"/></svg>