<svg xmlns="http://www.w3.org/2000/svg" width="16" height="16"><style type="text/css">.icon-canvas-transparent{opacity:0;fill:#F6F6F6;} .icon-vs-out{fill:#F6F6F6;} .icon-vs-bg{fill:#424242;} .icon-vs-fg{fill:#F0EFF1;}</style><path class="icon-canvas-transparent" d="M16 16h-16v-16h16v16z" id="canvas"/><path class="icon-vs-out" d="M8 16c-4.411 0-8-3.589-8-8s3.589-8 8-8 8 3.589 8 8-3.589 8-8 8z" id="outline"/><path class="icon-vs-bg" d="M8 1c-3.866 0-7 3.134-7 7s3.134 7 7 7 7-3.134 7-7-3.134-7-7-7zm0 13c-3.308 0-6-2.692-6-6s2.692-6 6-6c1.767 0 3.352.772 4.451 1.991l-3.272 4.023-2.72-4.443-2.879 8.4 3.32-4.14 2.719 4.443 2.924-8.182c.906 1.051 1.457 2.415 1.457 3.908 0 3.308-2.692 6-6 6z" id="iconBg"/><path class="icon-vs-fg" d="M14 8c0 3.308-2.692 6-6 6s-6-2.692-6-6 2.692-6 6-6c1.767 0 3.352.772 4.451 1.991l-3.272 4.023-2.72-4.443-2.879 8.4 3.32-4.14 2.719 4.443 2.924-8.182c.906 1.051 1.457 2.415 1.457 3.908z" id="iconFg"/></svg>