<svg xmlns="http://www.w3.org/2000/svg" viewBox="0 0 16 16"><style>.icon-canvas-transparent{opacity:0;fill:#f6f6f6}.icon-vs-out{fill:#f6f6f6}.icon-vs-bg{fill:#424242}.icon-vs-blue{fill:#1ba1e2}.icon-white{fill:#fff}</style><path class="icon-canvas-transparent" d="M16 16H0V0h16v16z" id="canvas"/><path class="icon-vs-out" d="M16 0H9v3h1.444a13.29 13.29 0 0 0-2.119 2.45 5.46 5.46 0 0 0-.491.243A13.135 13.135 0 0 0 5.556 3H7V0H0v7h3V4.73c.888.717 1.938 1.783 2.661 3.159a5.479 5.479 0 0 0 .86 6.398V15h.826c.894.628 1.979 1 3.152 1 3.032 0 5.5-2.468 5.5-5.5A5.477 5.477 0 0 0 14.738 7H16V0zm-3 5.607a5.412 5.412 0 0 0-.672-.288c.229-.214.456-.415.672-.589v.877z" id="outline"/><path class="icon-vs-bg" d="M6.297 6.96C4.887 4.611 2.679 3.215 2 2.827V6H1V1h5v1H2.477c.651.355 2.978 1.765 4.535 4.251a5.57 5.57 0 0 0-.715.709zm3.571-1.921c.208-.024.418-.039.632-.039.23 0 .455.019.678.046A13.243 13.243 0 0 1 14 2.827V6h1V1h-5v1h3.523c-.537.292-2.211 1.304-3.655 3.039z" id="iconBg"/><path class="icon-vs-blue" d="M10.5 6C8.019 6 6 8.019 6 10.5S8.019 15 10.5 15s4.5-2.019 4.5-4.5S12.981 6 10.5 6zm0 8a3.5 3.5 0 1 1 0-7 3.5 3.5 0 0 1 0 7zM8.582 9.052l1.811 1.812-1.824 1.825-.605-.607 1.182-1.184.035-.035-.035-.035-1.168-1.17.604-.606zm3.236.795L13 11.029l-.606.607-1.824-1.825L12.381 8l.605.606-1.168 1.17-.035.035.035.036z" id="notificationBg"/><path class="icon-white" d="M13.929 9.795A3.5 3.5 0 1 0 14 10.5a3.49 3.49 0 0 0-.071-.705zm-5.361 2.894l-.605-.607 1.182-1.184.035-.035-.035-.035-1.168-1.17.605-.606 1.811 1.812-1.825 1.825zm3.826-1.052L10.57 9.811 12.381 8l.605.606-1.168 1.17-.035.035.035.035L13 11.029l-.606.608z" id="notificationFg"/></svg>