<svg xmlns="http://www.w3.org/2000/svg" width="16" height="16"><style type="text/css">.icon-canvas-transparent{opacity:0;fill:#F6F6F6;} .icon-vs-out{fill:#F6F6F6;} .icon-vs-bg{fill:#424242;} .icon-vs-fg{fill:#F0EFF1;} .icon-vs-green{fill:#339933;} .icon-white{fill:#FFFFFF;}</style><path class="icon-canvas-transparent" d="M16 16h-16v-16h16v16z" id="canvas"/><path class="icon-vs-out" d="M16 1h-16v8h3v4h4.276c.62 1.744 2.268 3 4.224 3 2.485 0 4.5-2.015 4.5-4.5 0-.925-.281-1.785-.76-2.5h.76v-8zm-8.724 9h-1.276v-1h1.76c-.205.307-.359.646-.484 1z" id="outline"/><path class="icon-vs-bg" d="M4 12v-4h-3v-6h14v6h-.703l-.002-.001c-.182-.145-.373-.275-.576-.392l-.095-.052c-.18-.097-.363-.187-.557-.259l-.299-.093-.44-.12c-.268-.052-.544-.083-.828-.083h2.5v-4h-12v4h9.5c-.284 0-.56.031-.828.083l-.44.12-.299.093c-.194.072-.377.162-.557.26l-.094.051c-.204.116-.395.246-.577.392l-.002.001h-3.703v3h2.05c-.018.166-.05.329-.05.5l.05.5h-3.05z" id="iconBg"/><path class="icon-vs-fg" d="M14 7h-12v-4h12v4z" id="iconFg"/><path class="icon-vs-green" d="M11.5 8c-1.93 0-3.5 1.57-3.5 3.5s1.57 3.5 3.5 3.5 3.5-1.57 3.5-3.5-1.57-3.5-3.5-3.5zm0 6h-1.125l-1.125-2h1.125l.563.75 1.687-3.75h1.125l-2.25 5z" id="notificationBg"/><path class="icon-white" d="M11.5 14h-1.125l-1.125-2h1.125l.563.75 1.687-3.75h1.125l-2.25 5z" id="notificationFg"/></svg>