<svg xmlns="http://www.w3.org/2000/svg" viewBox="0 0 16 16"><style>.icon-vs-out{fill:#f6f6f6}.icon-vs-bg{fill:#424242}.icon-canvas-transparent{opacity:0;fill:#f6f6f6}</style><path class="icon-canvas-transparent" d="M16 16H0V0h16v16z" id="canvas"/><path class="icon-vs-out" d="M6.521 15v-3.75c0-3.093-2.01-5.299-3.521-6.52V7H0V0h7v3H5.556C6.392 3.757 7.281 4.737 8 5.945 8.719 4.737 9.607 3.757 10.444 3H9V0h7v7h-3V4.73c-1.512 1.221-3.521 3.427-3.521 6.52V15H6.521z" id="outline"/><path class="icon-vs-bg" d="M15 1v5h-1V2.827c-1.023.584-5.522 3.438-5.522 8.423V14h-.957v-2.75c0-4.985-4.499-7.838-5.522-8.423V6H1V1h5v1H2.477c.815.444 4.25 2.531 5.523 6.316C9.273 4.531 12.708 2.444 13.523 2H10V1h5z" id="iconBg"/></svg>