<svg xmlns="http://www.w3.org/2000/svg" width="16" height="16"><style type="text/css">.icon-canvas-transparent{opacity:0;fill:#F6F6F6;} .icon-vs-out{fill:#F6F6F6;} .icon-vs-bg{fill:#424242;} .icon-vs-fg{fill:#F0EFF1;}</style><path class="icon-canvas-transparent" d="M16 16h-16v-16h16v16z" id="canvas"/><path class="icon-vs-out" d="M0 1v8h3v4h5v2h8v-14h-16zm8 9h-2v-1h2v1z" id="outline"/><path class="icon-vs-bg" d="M15 8v-6h-14v6h3v4h5v2h6v-5h-6v2h-4v-3h10zm-5 2h4v3h-4v-3zm-8-3v-4h12v4h-12z" id="iconBg"/><path class="icon-vs-fg" d="M10 10h4v3h-4v-3zm-8-7v4h12v-4h-12z" id="iconFg"/></svg>