<svg xmlns="http://www.w3.org/2000/svg" width="16" height="16"><style type="text/css">.icon-canvas-transparent{opacity:0;fill:#F6F6F6;} .icon-vs-out{fill:#F6F6F6;} .icon-vs-bg{fill:#424242;} .icon-vs-fg{fill:#F0EFF1;}</style><path class="icon-canvas-transparent" d="M16 16h-16v-16h16v16z" id="canvas"/><path class="icon-vs-out" d="M0 0v8h1.016c-.543.527-.914 1.219-1.016 2v6h7v-4h1v2h8v-14h-16zm8 9h-1.296c-.173-.374-.411-.709-.704-.996v-.004h2v1z" id="outline"/><path class="icon-vs-bg" d="M9 10h-2v1h2v2h6v-5h-6v2zm1-1h4v3h-4v-3zm-9-8v6h3v.044c.356.047.69.145 1 .283v-.327h10v-6h-14zm13 5h-12v-4h12v4zm-8 4h-1c-.147-.529-.68-1-1.5-1-.846 0-1.359.473-1.5 1h-1c.148-1.146 1.127-2 2.5-2s2.36.854 2.5 2zm-5 5h5v-4h-5v4zm2-3h1v2h-1v-2z" id="iconBg"/><path class="icon-vs-fg" d="M14 2v4h-12v-4h12zm-4 10h4v-3h-4v3zm-7 2h1v-2h-1v2z" id="iconFg"/></svg>