<svg xmlns="http://www.w3.org/2000/svg" width="16" height="16"><style type="text/css">.icon-canvas-transparent{opacity:0;fill:#F6F6F6;} .icon-vs-out{fill:#F6F6F6;} .icon-vs-bg{fill:#424242;} .icon-vs-fg{fill:#F0EFF1;}</style><path class="icon-canvas-transparent" d="M16 16h-16v-16h16v16z" id="canvas"/><path class="icon-vs-out" d="M16 0v13h-2v2h-7v-2h-4v-4h-3v-7h2v-2h14z" id="outline"/><path class="icon-vs-bg" d="M15 6v-5h-12v2h-2v5h3v4h4v2h5v-2h2v-5h-2v-1h2zm-13 1v-3h10v3h-10zm8 1v1h-3v-1h3zm-2 3h-3v-3h1v2h2v1zm4 2h-3v-3h3v3zm2-5v3h-1v-2h-2v-1h3zm-10-5v-1h10v3h-1v-2h-9z" id="iconBg"/><path class="icon-vs-fg" d="M14 2v3h-1v-2h-9v-1h10zm-2 2h-10v3h10v-3zm-1 4v1h2v2h1v-3h-3zm-2 5h3v-3h-3v3z" id="iconFg"/></svg>