<svg xmlns="http://www.w3.org/2000/svg" width="16" height="16"><style type="text/css">.icon-canvas-transparent{opacity:0;fill:#F6F6F6;} .icon-vs-out{fill:#F6F6F6;} .icon-vs-bg{fill:#424242;} .icon-vs-fg{fill:#F0EFF1;}</style><path class="icon-canvas-transparent" d="M16 16h-16v-16h16v16z" id="canvas"/><path class="icon-vs-out" d="M16 1v7h-8v-2h-7v-6h3v3h4v-2h8zm-8 10h-4v-3h-3v6h7v2h8v-7h-8v2z" id="outline"/><path class="icon-vs-bg" d="M15 2v5h-6v-2h-7v-4h1v3h6v-2h6zm-6 8h6v5h-6v-2h-7v-4h1v3h6v-2zm1 4h4v-3h-4v3z" id="iconBg"/><path class="icon-vs-fg" d="M10 11h4v3h-4v-3z" id="iconFg"/></svg>