<svg xmlns="http://www.w3.org/2000/svg" width="16" height="16"><style type="text/css">.icon-canvas-transparent{opacity:0;fill:#F6F6F6;} .icon-vs-out{fill:#F6F6F6;} .icon-vs-bg{fill:#424242;} .icon-vs-green{fill:#339933;}</style><path class="icon-canvas-transparent" d="M16 16h-16v-16h16v16z" id="canvas"/><path class="icon-vs-out" d="M16 0h-5.414l-2.586 2.586-2.586-2.586h-5.414v5.414l4 4v-2.551c1.233 1.445 2 3.337 2 4.137v3h2v1.414l2-2v2.586h4v-2.586l2 2v-4.828l-2.586-2.586 2.586-2.586v-5.414zm-6.807 4c-.42.466-.822.988-1.193 1.545-.371-.557-.773-1.079-1.193-1.545h2.386z" id="outline"/><path class="icon-vs-bg" d="M7 13v-2c0-1.224-1.111-3.698-2.707-5.293l-1.293-1.293v2.586l-2-2v-4h4l2 2h-2.586l1.293 1.293c.901.901 1.704 2.065 2.293 3.242.589-1.177 1.392-2.341 2.293-3.242l1.293-1.293h-2.586l2-2h4v4l-2 2v-2.586l-1.293 1.293c-.968.968-1.753 2.257-2.224 3.396l-1.483 1.483v2.414h-1z" id="iconBg"/><path class="icon-vs-green" d="M15 11v2l-2-2v4h-2v-4l-2 2v-2l3-3 3 3z" id="notificationBg"/></svg>