<svg xmlns="http://www.w3.org/2000/svg" viewBox="0 0 16 16" enable-background="new 0 0 16 16"><style type="text/css">.icon-canvas-transparent{opacity:0;fill:#F6F6F6;} .icon-vs-out{fill:#F6F6F6;} .icon-vs-fg{fill:#F0EFF1;} .icon-vs-red{fill:#E51400;}</style><path class="icon-canvas-transparent" d="M16 16h-16v-16h16v16z" id="canvas"/><path class="icon-vs-out" d="M15 8c0 3.866-3.135 7-7 7-3.866 0-7-3.134-7-7s3.134-7 7-7c3.865 0 7 3.134 7 7z" id="outline"/><path class="icon-vs-fg" d="M8 3c-2.762 0-5 2.239-5 5 0 2.762 2.238 5 5 5s5-2.238 5-5c0-2.761-2.238-5-5-5zm3 6h-2v2h-2v-2h-2v-2h2v-2h2v2h2v2z" id="iconFg"/><path class="icon-vs-red" d="M8 2c-3.314 0-6 2.686-6 6s2.686 6 6 6 6-2.686 6-6-2.686-6-6-6zm0 11c-2.762 0-5-2.238-5-5 0-2.761 2.238-5 5-5s5 2.239 5 5c0 2.762-2.238 5-5 5zm1-6h2v2h-2v2h-2v-2h-2v-2h2v-2h2v2z" id="iconBg"/></svg>