<svg xmlns="http://www.w3.org/2000/svg" width="16" height="16"><style type="text/css">.icon-canvas-transparent{opacity:0;fill:#F6F6F6;} .icon-vs-out{fill:#F6F6F6;} .icon-vs-bg{fill:#424242;} .icon-vs-fg{fill:#F0EFF1;}</style><path class="icon-canvas-transparent" d="M16 16h-16v-16h16v16z" id="canvas"/><path class="icon-vs-out" d="M4 16v-4h-4v-8h10v-4h6v10h-1v3h-3v-3h-2v2h-3v1h3v3h-6z" id="outline"/><path class="icon-vs-bg" d="M11 1v8h2v3h1v-3h1v-8h-4zm3 7h-1v-1h1v1zm0-3h-2v-1h2v1zm0-2h-2v-1h2v1zm-5 11v1h-4v-4h-4v-6h8v6h-3v3h3z" id="iconBg"/><path class="icon-vs-fg" d="M12 2h2v1h-2v-1zm0 3h2v-1h-2v1zm1 3h1v-1h-1v1z" id="iconFg"/></svg>