<svg xmlns="http://www.w3.org/2000/svg" viewBox="0 0 16 16"><style>.icon-canvas-transparent{opacity:0;fill:#f6f6f6}.icon-vs-out{fill:#f6f6f6}.icon-vs-fg{fill:#f0eff1}.icon-vs-red{fill:#e51400}</style><path class="icon-canvas-transparent" d="M16 16H0V0h16v16z" id="canvas"/><path class="icon-vs-out" d="M8 16c-4.411 0-8-3.589-8-8s3.589-8 8-8 8 3.589 8 8-3.589 8-8 8z" id="outline"/><path class="icon-vs-red" d="M8 1a7 7 0 1 0 0 14A7 7 0 0 0 8 1zM5.515 12.089L2.803 9.377l.707-.706L5 10.153V5h.999v5.171L7.63 8.547l.707.707-2.822 2.835zm6.975-4.76L11 5.847V11h-.999V5.829L8.369 7.453l-.706-.707 2.823-2.835 2.711 2.712-.707.706z" id="iconBg"/><path class="icon-vs-fg" d="M10.485 3.911l2.712 2.712-.707.706L11 5.847V11h-.999V5.829L8.369 7.453l-.706-.707 2.822-2.835zm-4.97 8.178L2.803 9.377l.707-.706L5 10.153V5h.999v5.171L7.63 8.547l.707.707-2.822 2.835z" id="iconFg"/></svg>