<svg xmlns="http://www.w3.org/2000/svg" width="16" height="16"><style type="text/css">.icon-canvas-transparent{opacity:0;fill:#F6F6F6;} .icon-vs-out{fill:#F6F6F6;} .icon-vs-red{fill:#E51400;} .icon-white{fill:#FFFFFF;}</style><path class="icon-canvas-transparent" d="M16 16h-16v-16h16v16z" id="canvas"/><path class="icon-vs-out" d="M16 11.5c0 2.485-2.015 4.5-4.5 4.5-1.082 0-2.061-.398-2.837-1.033-.219.02-.439.033-.663.033-3.866 0-7-3.134-7-7s3.134-7 7-7c3.865 0 7 3.134 7 7 0 .224-.013.444-.033.663.635.776 1.033 1.755 1.033 2.837z" id="outline"/><path class="icon-vs-red" d="M7.753 13.987c-3.198-.13-5.753-2.756-5.753-5.987 0-3.314 2.686-6 6-6 3.231 0 5.857 2.555 5.987 5.753-.324-.216-.686-.375-1.063-.501-.363-2.403-2.418-4.252-4.924-4.252-2.762 0-5 2.239-5 5 0 2.506 1.848 4.561 4.252 4.925.126.377.285.738.501 1.062z" id="iconBg"/><path class="icon-white" d="M7.252 12.925c-2.404-.364-4.252-2.419-4.252-4.925 0-2.761 2.238-5 5-5 2.506 0 4.561 1.849 4.925 4.252-.45-.151-.924-.252-1.425-.252-2.485 0-4.5 2.015-4.5 4.5 0 .501.101.975.252 1.425z" id="iconFg"/><path class="icon-vs-red" d="M11.5 8c-1.933 0-3.5 1.567-3.5 3.5s1.567 3.5 3.5 3.5 3.5-1.567 3.5-3.5-1.567-3.5-3.5-3.5zm1.854 4.646l-.707.707-1.147-1.146-1.146 1.147-.707-.707 1.147-1.146-1.147-1.146.707-.707 1.146 1.147 1.146-1.147.707.707-1.146 1.145 1.147 1.146z" id="notificationBg"/><path class="icon-white" d="M12.207 11.5l1.147 1.146-.707.707-1.147-1.146-1.146 1.147-.707-.707 1.147-1.146-1.147-1.146.707-.707 1.146 1.147 1.146-1.147.707.707-1.146 1.145z" id="notificationFg"/></svg>