<svg xmlns="http://www.w3.org/2000/svg" viewBox="0 0 16 16"><style>.icon-canvas-transparent{opacity:0;fill:#f6f6f6}.icon-vs-out{fill:#f6f6f6}.icon-vs-bg{fill:#424242}.icon-vs-fg{fill:#f0eff1}.icon-vs-action-blue{fill:#00539c}</style><path class="icon-canvas-transparent" d="M16 16H0V0h16v16z" id="canvas"/><path class="icon-vs-out" d="M16 8v8H8a8 8 0 1 1 8-8z" id="outline"/><path class="icon-vs-fg" d="M8 9.414l-3 3L3.586 11l3-3-3-3L5 3.586l3 3 3-3L12.414 5l-3 3H8v1.414z" id="iconFg"/><path class="icon-vs-bg" d="M8 15a7 7 0 1 1 7-7H9.414l3-3L11 3.586l-3 3-3-3L3.586 5l3 3-3 3L5 12.414l3-3V15z" id="iconBg"/><g id="notificationBg"><path class="icon-vs-action-blue" d="M11 15H9V9h2v6zm4-6h-2v6h2V9z"/></g></svg>