<svg xmlns="http://www.w3.org/2000/svg" viewBox="0 0 16 16"><style>.icon-canvas-transparent{opacity:0;fill:#f6f6f6}.icon-vs-out{fill:#f6f6f6}.icon-vs-bg{fill:#424242}.icon-vs-fg{fill:#f0eff1}.icon-vs-red{fill:#e51400}</style><path class="icon-canvas-transparent" d="M16 16H0V0h16v16z" id="canvas"/><path class="icon-vs-out" d="M16 13h-5.6c-.9 1.8-2.8 3-4.9 3-3 0-5.5-2.5-5.5-5.5 0-1.7.8-3.2 2-4.2V0h14v13z" id="outline"/><path class="icon-vs-bg" d="M15 1v11h-4.2c.1-.3.2-.7.2-1h3V4H4v1.2c-.3.1-.7.2-1 .4V1h12z" id="iconBg"/><path class="icon-vs-fg" d="M14 4v7h-3v-.5C11 7.5 8.5 5 5.5 5c-.5 0-1 .1-1.5.2V4h10z" id="iconFg"/><path class="icon-vs-red" d="M10 10.5C10 13 8 15 5.5 15S1 13 1 10.5 3 6 5.5 6 10 8 10 10.5z" id="colorImportance"/></svg>