<svg xmlns="http://www.w3.org/2000/svg" viewBox="0 0 16 16"><style>.icon-canvas-transparent{opacity:0;fill:#f6f6f6}.icon-vs-out{fill:#f6f6f6}.icon-vs-fg{fill:#f0eff1}.icon-vs-red{fill:#e51400}.icon-vs-yellow{fill:#fc0}</style><path class="icon-canvas-transparent" d="M16 16H0V0h16v16z" id="canvas"/><path class="icon-vs-out" d="M14.954 11.941l1.019 2.055L15.002 16H8c-4.411 0-8-3.589-8-8s3.589-8 8-8 8 3.589 8 8a7.952 7.952 0 0 1-1.046 3.941z" id="outline"/><path class="icon-vs-fg" d="M8 2C4.691 2 2 4.691 2 8s2.691 6 6 6 6-2.691 6-6-2.691-6-6-6zM5.515 12.089L2.803 9.377l.707-.706L5 10.153V5h.999v5.171L7.63 8.547l.707.707-2.822 2.835zM11 5.847V11h-.999V5.829L8.369 7.453l-.706-.707 2.823-2.835 2.711 2.712-.707.706L11 5.847z" id="iconFg"/><path class="icon-vs-red" d="M7.466 14.973A6.996 6.996 0 0 1 8 1a7 7 0 0 1 7 7 6.957 6.957 0 0 1-.599 2.826l-.619-1.247A5.966 5.966 0 0 0 14 8c0-3.309-2.691-6-6-6S2 4.691 2 8c0 2.976 2.18 5.446 5.026 5.914l-.056.111.496.948zM5 5v5.153L3.51 8.671l-.707.706 2.711 2.712 2.823-2.835-.706-.707L6 10.171V5H5zm5.493 2.016H11V5.847l1.175 1.169h.336l.097.196.589-.589-2.711-2.712-2.823 2.835.707.707 1.631-1.624v2.166l.492-.979z" id="iconBg"/><path class="icon-vs-yellow" d="M11.891 8.016h-.781l-3.016 6 .515.984h5.766l.484-1-2.968-5.984zM12 14h-1v-1h1v1zm0-2h-1v-2h1v2z" id="colorAction"/><path class="icon-black" d="M12 12h-1v-2h1v2zm0 1h-1v1h1v-1z" id="notificationFg"/></svg>