<svg xmlns="http://www.w3.org/2000/svg" width="16" height="16"><style type="text/css">.icon-canvas-transparent{opacity:0;fill:#F6F6F6;} .icon-vs-out{fill:#F6F6F6;} .icon-vs-red{fill:#E51400;}</style><path class="icon-canvas-transparent" d="M16 16h-16v-16h16v16z" id="canvas"/><path class="icon-vs-out" d="M15 8c0 3.866-3.134 7-7 7s-7-3.134-7-7 3.134-7 7-7 7 3.134 7 7z" id="outline"/><path class="icon-vs-red" d="M9.388 2.163l-7.225 7.226c-.465-1.96.061-4.106 1.591-5.635 1.528-1.529 3.675-2.055 5.634-1.591zm4.449 4.448l-7.225 7.226c1.959.464 4.106-.061 5.634-1.591 1.53-1.528 2.056-3.676 1.591-5.635zm-1.591-2.857c-.349-.35-.732-.641-1.137-.886l-8.241 8.241c.245.404.536.789.886 1.137.349.35.732.641 1.136.886l8.242-8.241c-.245-.405-.536-.789-.886-1.137z" id="iconBg"/></svg>