<svg xmlns="http://www.w3.org/2000/svg" width="16" height="16"><style type="text/css">.icon-canvas-transparent{opacity:0;fill:#F6F6F6;} .icon-vs-out{fill:#F6F6F6;} .icon-vs-bg{fill:#424242;} .icon-vs-fg{fill:#F0EFF1;}</style><path class="icon-canvas-transparent" d="M16 16h-16v-16h16v16z" id="canvas"/><path class="icon-vs-out" d="M16 9.054l-2.735.912 1.649 4.948-4.948-1.649-.912 2.735h-2.108l-.912-2.735-4.949 1.649 1.649-4.948-2.734-.912v-2.109l2.735-.912-1.65-4.947 4.949 1.648.912-2.734h2.109l.911 2.735 4.948-1.648-1.649 4.947 2.735.911v2.109z" id="outline"/><path class="icon-vs-bg" d="M16 8l-4-1.333 1.333-3.999-4 1.332-1.333-4-1.333 4-4-1.333 1.333 3.999-4 1.334 4 1.333-1.333 4 4-1.333 1.333 4 1.333-4 4 1.333-1.333-4 4-1.333zm-8 4c-2.209 0-4-1.79-4-4 0-2.209 1.791-4 4-4 2.21 0 4 1.791 4 4 0 2.21-1.79 4-4 4z" id="iconBg"/><path class="icon-vs-fg" d="M12 8c0 2.21-1.79 4-4 4-2.209 0-4-1.79-4-4 0-2.209 1.791-4 4-4 2.21 0 4 1.791 4 4z" id="iconFg"/></svg>