<svg xmlns="http://www.w3.org/2000/svg" viewBox="0 0 16 16"><style>.icon-canvas-transparent{opacity:0;fill:#f6f6f6}.icon-vs-out{fill:#f6f6f6}.icon-vs-action-blue{fill:#00539c}.icon-folder{fill:#dcb67a}</style><path class="icon-canvas-transparent" d="M16 0v16H0V0h16z" id="canvas"/><path class="icon-vs-out" d="M16 3v12H0V3h.379l3-3h.242l3 3H16z" id="outline"/><path class="icon-folder" d="M7 8.086l-1-1V5.914l1-1V4h6.866L8 9.865l-1-1v-.779zM8.987 11H7.013l-.696-.696L3.621 13h-.242L1 10.621V14h14V4.987L8.987 11z" id="iconBg"/><path class="icon-vs-action-blue" d="M5.646 8.146l.707.707L3.5 11.707.646 8.854l.707-.707L3 9.793V3.207L1.354 4.854l-.708-.708L3.5 1.293l2.854 2.854-.708.707L4 3.207v6.586l1.646-1.647z" id="colorAction"/></svg>