<svg xmlns="http://www.w3.org/2000/svg" viewBox="0 0 16 16"><style>.icon-canvas-transparent{opacity:0;fill:#f6f6f6}.icon-vs-out{fill:#f6f6f6}.icon-vs-bg{fill:#424242}.icon-vs-fg{fill:#f0eff1}.icon-vs-action-blue{fill:#00539c}</style><path class="icon-canvas-transparent" d="M16 16H0V0h16v16z" id="canvas"/><path class="icon-vs-out" d="M4.5 9a4.5 4.5 0 1 1 0-9 4.5 4.5 0 0 1 0 9zM15 11.025L10.975 7h-.66L8.523 8.791 9.732 10H4v3h5.607l-1.084 1.084L10.439 16h.41L15 11.85v-.825z" id="outline"/><path class="icon-vs-bg" d="M4 4v1h1l2-2.5-.5-.5C6.28 2.158 4 4 4 4zm4.019.5c0 2.034-1.484 3.521-3.519 3.521S.97 6.544.97 4.51C.97 2.477 2.466 1 4.5 1c.69 0 1.151.154 1.704.484l-.793.68a3.43 3.43 0 0 0-.917-.161C3.139 2.003 2 3.19 2 4.545S3.099 7 4.454 7 7.03 5.866 7.03 4.51c0-.271-.049-.525-.131-.77l.767-.916c.331.553.353.986.353 1.676z" id="iconBg"/><path class="icon-vs-fg" d="M6.899 3.741c.082.245.138.618.125.89C6.968 5.91 5.772 7 4.5 7 3.126 7 2 5.901 2 4.545s1.139-2.542 2.494-2.542c.271 0 .673.08.917.161L6.741 1l1.354 1.313-1.196 1.428zM6.5 2L4 4v1h1l2-2.5-.5-.5z" id="iconFg"/><path class="icon-vs-action-blue" d="M13.999 11.438l-3.354 3.354-.707-.707L12.022 12H5v-1h7.147L9.938 8.791l.707-.707 3.354 3.354z" id="colorAction"/></svg>