<svg xmlns="http://www.w3.org/2000/svg" width="16" height="16"><style type="text/css">.icon-canvas-transparent{opacity:0;fill:#F6F6F6;} .icon-vs-out{fill:#F6F6F6;} .icon-vs-bg{fill:#424242;} .icon-vs-fg{fill:#F0EFF1;} .icon-vs-action-blue{fill:#00539C;}</style><path class="icon-canvas-transparent" d="M16 16h-16v-16h16v16z" id="canvas"/><path class="icon-vs-out" d="M15.88 3.458v7.987l-6.212 4.555h-.486l-7.157-4.51v-2.1l-.025.024-2-2v-.828l2.024-2.024v-.72l-.024-.342c0-1.93 1.57-3.5 3.5-3.5.759 0 1.458.249 2.032.662l1.023-.518h1.043l6.282 3.314z" id="outline"/><path class="icon-vs-bg" d="M9.077 1l-.794.401c.184.243.342.504.457.789l.266-.135 4.799 2.364-4.477 2.686-1.612-.919c-.273.226-.572.418-.905.554l2.195 1.226v5.584l-.04.026v.024l-.014-.012-.014.012v-.023l-4.947-3.226v-2.928l-.967.967v2.549l6.376 4.017 5.48-4.018v-6.876l-5.803-3.062zm4.923 9.509l-4.027 2.901v-5.41l4.027-2.635v5.144z" id="iconBg"/><path class="icon-vs-fg" d="M4 3.5c0-.828.672-1.5 1.5-1.5s1.5.672 1.5 1.5-.672 1.5-1.5 1.5-1.5-.672-1.5-1.5z" id="iconFg"/><path class="icon-vs-action-blue" d="M5.5 6c1.381 0 2.5-1.119 2.5-2.5s-1.119-2.5-2.5-2.5-2.5 1.119-2.5 2.5c0 .432.119.832.313 1.188l-2.313 2.312 1 1 2.313-2.313c.355.194.755.313 1.187.313zm0-4c.828 0 1.5.672 1.5 1.5s-.672 1.5-1.5 1.5-1.5-.672-1.5-1.5.672-1.5 1.5-1.5z" id="colorAction"/></svg>