<svg xmlns="http://www.w3.org/2000/svg" width="16" height="16"><style type="text/css">.icon-canvas-transparent{opacity:0;fill:#F6F6F6;} .icon-vs-out{fill:#F6F6F6;} .icon-vs-bg{fill:#424242;} .icon-vs-fg{fill:#F0EFF1;}</style><path class="icon-canvas-transparent" d="M16 16h-16v-16h16v16z" id="canvas"/><path class="icon-vs-out" d="M16 8c0 4.418-3.582 8-8 8s-8-3.582-8-8 3.582-8 8-8 8 3.582 8 8z" id="outline"/><path class="icon-vs-bg" d="M15 8c0 3.866-3.134 7-7 7s-7-3.134-7-7 3.134-7 7-7c1.485 0 2.859.466 3.993 1.254l-1.928 1.205-.002-.001-.317-.126c-.221-.084-.446-.159-.68-.212l-.18-.03c-.287-.055-.582-.09-.886-.09-2.757 0-5 2.243-5 5s2.243 5 5 5 5-2.243 5-5c0-.304-.035-.599-.09-.887l-.03-.18c-.053-.233-.128-.458-.211-.679l-.128-.319v-.001l1.205-1.928c.788 1.134 1.254 2.509 1.254 3.994zm-8-1v2h2l4-6-6 4z" id="iconBg"/><path class="icon-vs-fg" d="M14.314 3.099c-.41-.528-.885-1.001-1.412-1.412l-2.836 1.772c-.632-.288-1.328-.459-2.066-.459-2.757 0-5 2.243-5 5s2.243 5 5 5 5-2.243 5-5c0-.738-.171-1.434-.459-2.065l1.773-2.836zm-5.314 5.901h-2v-2l6-4-4 6z" id="iconFg"/></svg>