<svg xmlns="http://www.w3.org/2000/svg" width="16" height="16"><style type="text/css">.icon-canvas-transparent{opacity:0;fill:#F6F6F6;} .icon-vs-out{fill:#F6F6F6;} .icon-vs-bg{fill:#424242;} .icon-vs-fg{fill:#F0EFF1;}</style><path class="icon-canvas-transparent" d="M16 16h-16v-16h16v16z" id="canvas"/><path class="icon-vs-out" d="M16 0v14h-4v2h-12v-16h16z" id="outline"/><path class="icon-vs-bg" d="M15 1v12h-3v-1h2v-8h-12v4h-1v-7h14zm-6 12h-1v-1h-4v1h-1v-1h-2v3h10v-3h-2v1zm-8-2h2v-1h1v1h4v-1h1v1h2v-2h-10v2zm7-3v-2h-4v2h1v-1h2v1h1z" id="iconBg"/><path class="icon-vs-fg" d="M14 4v8h-2v-4h-3v-3h-6v3h-1v-4h12z" id="iconFg"/></svg>