<svg xmlns="http://www.w3.org/2000/svg" viewBox="0 0 16 16"><style>.icon-canvas-transparent{opacity:0;fill:#f6f6f6}.icon-vs-out{fill:#f6f6f6}.icon-vs-bg{fill:#424242}.icon-vs-blue{fill:#1ba1e2}</style><path class="icon-canvas-transparent" d="M16 16H0V0h16v16z" id="canvas"/><path class="icon-vs-out" d="M16 8a8 8 0 0 1-5.575 7.623A2.957 2.957 0 0 1 9 16H5a3.005 3.005 0 0 1-2.844-2.044l-.62-.349A3 3 0 0 1 0 11c0-.403.082-.786.227-1.137A8 8 0 0 1 0 8a8 8 0 0 1 16 0z" id="outline"/><g id="iconBg"><path class="icon-vs-blue" d="M14.988 7.763C14.862 4.008 11.786 1 8 1a7 7 0 0 0-7 7c0 .204.012.405.03.604.004.046.013.091.018.136a2.986 2.986 0 0 1 1.207-.636C2.254 8.07 2.25 8.035 2.25 8c0-.819.174-1.597.482-2.302.686.202 1.448.393 2.3.539-.042.405-.072.82-.077 1.257-.002.167.008.337.014.506H6.06c-.006-.165-.017-.332-.015-.495.004-.386.031-.755.067-1.114.603.068 1.23.113 1.882.12l.403.002c.488 0 .982-.016 1.487-.054.038.339.066.685.07 1.046a8.673 8.673 0 0 1-.209 1.869c-.076.006-.153.003-.23.007a3 3 0 0 1 .329.661l.621.35c.046.026.08.065.124.093.01-.034.024-.07.034-.104a12.79 12.79 0 0 0 2.886-.734 5.69 5.69 0 0 1-1.617 2.562c.07.255.108.52.108.791 0 .28-.051.546-.123.803C13.754 12.549 15 10.427 15 8c0-.08-.01-.157-.012-.237zm-9.803-2.61a19.128 19.128 0 0 1-1.903-.435 5.757 5.757 0 0 1 2.635-2.073 13.08 13.08 0 0 0-.732 2.508zm2.821.268a16.72 16.72 0 0 1-1.739-.111 12.138 12.138 0 0 1 1.001-3.008c.24-.031.483-.052.732-.052.165 0 .327.011.488.024.468.812.944 1.846 1.221 3.108-.571.039-1.133.044-1.703.039zm1.875-2.85a5.755 5.755 0 0 1 2.868 2.188c-.687.236-1.334.4-1.951.496a11.71 11.71 0 0 0-.917-2.684zm3.85 5.803c-1.038.452-1.972.722-2.848.863a9.32 9.32 0 0 0 .161-1.743c-.004-.4-.035-.783-.076-1.156a12.557 12.557 0 0 0 2.316-.604c.3.696.466 1.461.466 2.266 0 .126-.011.25-.019.374z"/><path class="icon-vs-bg" d="M11 13c0 1.102-.898 2-2 2H5c-1.103 0-2-.898-2-2 0-1.103.897-2 2-2h1l-1 1a1.001 1.001 0 0 0 0 2h4a1 1 0 0 0 1-1 .995.995 0 0 0-.302-.713 2.96 2.96 0 0 0 .275-1.024c.61.344 1.027.989 1.027 1.737zm-4 0c1.102 0 2-.897 2-2s-.898-2-2-2H3c-1.103 0-2 .897-2 2 0 .748.417 1.393 1.027 1.736a2.96 2.96 0 0 1 .275-1.024A.99.99 0 0 1 2 11c0-.551.449-1 1-1h4a1.001 1.001 0 0 1 0 2l-1 1h1z"/></g></svg>