<svg xmlns="http://www.w3.org/2000/svg" viewBox="0 0 16 16"><style>.icon-canvas-transparent{opacity:0;fill:#f6f6f6}.icon-vs-out{fill:#f6f6f6}.st0{fill:url(#SVGID_1_)}.st1{fill:#424242}</style><path class="icon-canvas-transparent" d="M16 16H0V0h16v16z" id="canvas"/><g id="iconFg"><path class="icon-vs-out" d="M16 4.388v-.99L12.602 0h-.644L5.96 5.999V3.592H0V16h12.408v-5.96h-2.06z"/><linearGradient id="SVGID_1_" gradientUnits="userSpaceOnUse" x1="7.833" y1="14" x2="7.833" y2="2.507"><stop offset="0" stop-color="#f0eff1"/><stop offset="1" stop-color="#424242"/></linearGradient><path class="st0" d="M2 5.592h1.96v5.235l8.321-8.321 1.386 1.386-8.148 8.148h4.889V14H2V5.592z"/><path class="st1" d="M15.081 3.893l-2.801-2.8-7.32 7.32v-3.82H1V15h10.408v-3.96H7.934l7.147-7.147zm-4.673 8.147V14H2V5.592h1.96v5.235l8.321-8.321 1.386 1.386-8.148 8.148h4.889z"/></g></svg>