<svg xmlns="http://www.w3.org/2000/svg" width="16" height="16"><style type="text/css">.icon-canvas-transparent{opacity:0;fill:#F6F6F6;} .icon-vs-out{fill:#F6F6F6;} .icon-vs-bg{fill:#424242;} .icon-vs-fg{fill:#F0EFF1;}</style><path class="icon-canvas-transparent" d="M16 16h-16v-16h16v16z" id="canvas"/><path class="icon-vs-out" d="M0 15v-15h16v15h-16z" id="outline"/><path class="icon-vs-bg" d="M14.997 1h-13.997v13h14l-.003-13zm-.997 12h-12v-11h12v11zm-8-2c0 .552-.448 1-1 1s-1-.448-1-1c0-.553.448-1 1-1s1 .447 1 1zm1-5.5c0 .828-.672 1.5-1.5 1.5s-1.5-.672-1.5-1.5.672-1.5 1.5-1.5 1.5.672 1.5 1.5zm6-1.5c0 .553-.448 1-1 1-.553 0-1-.447-1-1 0-.552.447-1 1-1 .552 0 1 .448 1 1zm0 5.5c0 1.381-1.119 2.5-2.5 2.5s-2.5-1.119-2.5-2.5 1.119-2.5 2.5-2.5 2.5 1.119 2.5 2.5z" id="iconBg"/><path class="icon-vs-fg" d="M2 2v11h12v-11h-12zm3 10c-.552 0-1-.448-1-1 0-.553.448-1 1-1s1 .447 1 1c0 .552-.448 1-1 1zm.5-5c-.828 0-1.5-.672-1.5-1.5s.672-1.5 1.5-1.5 1.5.672 1.5 1.5-.672 1.5-1.5 1.5zm5 5c-1.381 0-2.5-1.119-2.5-2.5s1.119-2.5 2.5-2.5 2.5 1.119 2.5 2.5-1.119 2.5-2.5 2.5zm1.5-7c-.553 0-1-.447-1-1 0-.552.447-1 1-1 .552 0 1 .448 1 1 0 .553-.448 1-1 1z" id="iconFg"/></svg>