<svg xmlns="http://www.w3.org/2000/svg" width="16" height="16"><style type="text/css">.icon-canvas-transparent{opacity:0;fill:#F6F6F6;} .icon-vs-out{fill:#F6F6F6;} .icon-vs-bg{fill:#424242;} .icon-vs-fg{fill:#F0EFF1;}</style><path class="icon-canvas-transparent" d="M16 16h-16v-16h16v16z" id="canvas"/><path class="icon-vs-out" d="M3 16c-.97 0-2-.701-2-2v-12c0-1.299 1.03-2 2-2h8.061l3.939 3.556v10.444c0 .97-.701 2-2 2h-10z" id="outline"/><path class="icon-vs-bg" d="M10.641 1h-7.677s-.964 0-.964 1v12c0 1 .965 1 .965 1h10l1.035-1v-10l-3.359-3zm2.359 13h-10v-12h7v3h3v9zm-4-2h-2v-2h2v2zm0-3h-2v-4h2v4z" id="iconBg"/><path class="icon-vs-fg" d="M10 5v-3h-7v12h10v-9h-3zm-1 7h-2v-2h2v2zm0-3h-2v-4h2v4z" id="iconFg"/></svg>