<svg xmlns="http://www.w3.org/2000/svg" width="16" height="16"><style type="text/css">.icon-canvas-transparent{opacity:0;fill:#F6F6F6;} .icon-vs-out{fill:#F6F6F6;} .icon-vs-bg{fill:#424242;} .icon-vs-fg{fill:#F0EFF1;}</style><path class="icon-canvas-transparent" d="M16 16h-16v-16h16v16z" id="canvas"/><path class="icon-vs-out" d="M16 3v8h-3v2h-3v2h-2v1h-3v-1h-2v-2h-3v-8h3v-2h2v-1h2v-1h1v-1h3v1h2v2h3z" id="outline"/><path class="icon-vs-bg" d="M4 5v-1h2v-1h1v1h2v1h-5zm0 8v1h2v1h1v-1h2v-1h-5zm6-9v1h4v4h-1v1h2v-6h-5zm-2-2v1h4v-1h-2v-1h-1v1h-1zm4 4v6h-11v-6h11zm-1 1h-9v4h9v-4z" id="iconBg"/><path class="icon-vs-fg" d="M11 11h-9v-4h9v4zm3-6h-1v4h1v-4z" id="iconFg"/></svg>