<svg xmlns="http://www.w3.org/2000/svg" viewBox="0 0 16 16"><style>.st0{opacity:0}.st0,.st1{fill:#f6f6f6}.st2{fill:#424242}.st3{fill:#f0eff1}</style><g id="outline"><path class="st0" d="M0 0h16v16H0z"/><circle class="st1" cx="8" cy="8" r="8"/></g><g id="icon_x5F_bg"><path class="st2" d="M7 8h1v1h1V7H7zM5 9h2v2H5zM10 7h1V5H9v1h1z"/><path class="st2" d="M8 1a7 7 0 1 0 0 14A7 7 0 0 0 8 1zm4 7h-2v2H8v2H4V8h2V6h2V4h4v4z"/></g><path class="st3" d="M8 4v2H6v2H4v4h4v-2h2V8h2V4H8zm-1 7H5V9h2v2zm2-2H8V8H7V7h2v2zm2-2h-1V6H9V5h2v2z" id="icon_x5F_fg"/></svg>