<svg xmlns="http://www.w3.org/2000/svg" viewBox="0 0 16 16"><style>.icon-vs-bg{fill:#424242}.icon-vs-fg{fill:#f0eff1}.icon-vs-out{fill:#f6f6f6}.icon-canvas-transparent{opacity:0;fill:#f6f6f6}</style><path class="icon-canvas-transparent" d="M16 16H0V0h16v16z" id="canvas"/><path class="icon-vs-out" d="M13 5v9H4V5h1.762L7 3.762V2h3v1.763L11.238 5H13z" id="outline"/><path class="icon-vs-bg" d="M9 9V8h1v1H9zm3-3v7H5V6h1v4h5V6h1zm-3 5H8v1h1v-1zM8 9V8H7v1h1zm2.262-3.562l-.707-.707L9 5.279V3H8v2.261l-.546-.538-.707.707 1.768 1.768 1.747-1.76z" id="iconBg"/><path class="icon-vs-fg" d="M9 12H8v-1h1v1z" id="iconFg"/></svg>