<?xml version="1.0" encoding="iso-8859-1"?>
<!-- Generator: Adobe Illustrator 21.0.0, SVG Export Plug-In . SVG Version: 6.00 Build 0)  -->
<svg version="1.1" xmlns="http://www.w3.org/2000/svg" xmlns:xlink="http://www.w3.org/1999/xlink" x="0px" y="0px"
	 viewBox="0 0 16 16" style="enable-background:new 0 0 16 16;" xml:space="preserve">
<style type="text/css">
	.icon_x002D_canvas_x002D_transparent{opacity:0;fill:#F6F6F6;}
	.icon_x002D_white{fill:#FFFFFF;}
</style>
<g id="canvas">
	<path class="icon_x002D_canvas_x002D_transparent" d="M16,0v16H0V0H16z"/>
</g>
<g id="iconBg">
	<path class="icon_x002D_white" d="M10.464,4.729L8,7.207L5.505,4.728l0.713-0.707L7.5,5.293L7.502,1h0.996L8.5,5.293l1.261-1.272
		L10.464,4.729z M6,8H4v2h2V8z M9,10H7V8h2V10z M12,10h-2V8h2V10z M13,6v5H3V6H2v9h12V6H13z M5,14v-2h2v2H5z M9,14v-2h2v2H9z"/>
	<g>
	</g>
	<g>
	</g>
	<g>
	</g>
	<g>
	</g>
	<g>
	</g>
	<g>
	</g>
</g>
</svg>
