<svg xmlns="http://www.w3.org/2000/svg" viewBox="0 0 16 16"><style>.icon-vs-bg{fill:#424242}.icon-vs-out{fill:#f6f6f6}.icon-canvas-transparent{opacity:0;fill:#f6f6f6}</style><path class="icon-canvas-transparent" d="M16 16H0V0h16v16z" id="canvas"/><path class="icon-vs-out" d="M13 5v8H4V5h1.923l-.575-.575L7 2.774V1h3v1.758l1.666 1.666-.572.576H13z" id="outline"/><path class="icon-vs-bg" d="M12 6v6H5V6h1v5h5V6h1zM8 7H7v1h1V7zm2 1V7H9v1h1zm-2 2h1V9H8v1zm1.547-6.281L9 4.259V2H8v2.241l-.531-.522-.707.706 1.753 1.753 1.739-1.752-.707-.707z" id="iconBg"/></svg>