<svg xmlns="http://www.w3.org/2000/svg" viewBox="0 0 16 16"><style>.icon-canvas-transparent{opacity:0;fill:#f6f6f6}.icon-vs-out{fill:#f6f6f6}.icon-vs-bg{fill:#424242}.icon-vs-fg{fill:#f0eff1}.icon-vs-red{fill:#e51400}.icon-white{fill:#fff}.icon-vs-action-orange{fill:#c27d1a}</style><g id="canvas"><path id="XMLID_1_" class="icon-canvas-transparent" d="M16 16H0V0h16v16z"/></g><g id="outline"><path id="XMLID_3_" class="icon-vs-out" d="M14 15.24V16H2.01c-.023.021 0-13 0-13H4V2h1.01C5.423.836 6.716 0 8.02 0c1.305 0 2.578.836 2.99 2H12v1h2v4.76a4.495 4.495 0 0 1 0 7.48z"/></g><g id="iconFg"><path id="XMLID_5_" class="icon-vs-fg" d="M7.01 3a1 1 0 1 1 2 0 1 1 0 0 1-2 0zM7 11.5A4.5 4.5 0 0 1 11.5 7c.171 0 .334.032.5.05V5H4v9h3.76A4.476 4.476 0 0 1 7 11.5z"/></g><path class="icon-vs-bg" d="M11 5V3h-.99a2 2 0 0 0-4 0H5v2h6zM8.01 2c.553 0 1 .447 1 1s-.438 1-.99 1-1.01-.447-1.01-1 .448-1 1-1z" id="iconBg"/><g id="notificationBg"><path class="icon-vs-action-orange" d="M12 5h-1V4h2v3.276a4.431 4.431 0 0 0-1-.226V5zm-4.238 9H4V5h1V4H3v11h5.706a4.504 4.504 0 0 1-.944-1z"/><path class="icon-vs-red" d="M11.5 8a3.5 3.5 0 1 0 0 7 3.5 3.5 0 0 0 0-7zm1.854 4.646l-.707.707-1.147-1.146-1.146 1.147-.707-.707 1.147-1.146-1.147-1.146.707-.707 1.146 1.147 1.146-1.147.707.707-1.146 1.145 1.147 1.146z"/></g><g id="notificationFg"><path class="icon-white" d="M12.207 11.5l1.147 1.146-.707.707-1.147-1.146-1.146 1.147-.707-.707 1.147-1.146-1.147-1.146.707-.707 1.146 1.147 1.146-1.147.707.707-1.146 1.145z"/></g></svg>