<svg xmlns="http://www.w3.org/2000/svg" viewBox="0 0 16 16"><style>.icon-vs-bg{fill:#424242}.icon-vs-out{fill:#f6f6f6}.icon-canvas-transparent{opacity:0;fill:#f6f6f6}</style><path class="icon-canvas-transparent" d="M16 16H0V0h16v16z" id="canvas"/><path class="icon-vs-out" d="M11.626 5l.801-.805-2.117-2.117-.31.308v-1.37H7v1.352l-.305-.304-2.119 2.12.816.816H3v9h11V5h-2.374z" id="outline"/><path class="icon-vs-bg" d="M10 9V8h1v1h-1zM9 8H8v1h1V8zm1 2H9v1h1v-1zm-2 0H7v1h1v-1zm4-4v6H5V6H4v7h9V6h-1zM7 8H6v1h1V8zm4.015-3.803l-.707-.707L9 4.79V2.016H8v2.757L6.697 3.477l-.707.707 2.525 2.525 2.5-2.512z" id="iconBg"/></svg>