<svg xmlns="http://www.w3.org/2000/svg" viewBox="0 0 16 16"><style>.icon-canvas-transparent{opacity:0;fill:#f6f6f6}.icon-vs-out{fill:#f6f6f6}.icon-vs-bg{fill:#424242}</style><path class="icon-canvas-transparent" d="M16 16H0V0h16v16z" id="canvas"/><path class="icon-vs-out" d="M16 3v13H3V7.477l.019-.004L0 4.454V3.013l1.399-1.4 1.132 1.128V.031h3v2.727L6.68 1.613l2.119 2.119L5.544 7H6v4.371L12.511 3H16z" id="outline"/><path class="icon-vs-bg" d="M4 14h1v1H4v-1zm0-1h1v-1H4v1zm0-2h1v-1H4v1zm0-2h1V8H4v1zm2 6h1v-1H6v1zm2 0h1v-1H8v1zm2 0h1v-1h-1v1zm2 0h1v-1h-1v1zm2 0h1v-1h-1v1zM13 4l-7 9h2l1.556-2H13v2h2V4h-2zm0 5.5h-2.277L13 6.571V9.5zM6.679 3.027l.707.707-3.34 3.352L.694 3.734l.707-.707 2.13 2.122V1.031h1v4.135l2.148-2.139z" id="iconBg"/></svg>