<svg xmlns="http://www.w3.org/2000/svg" viewBox="0 0 16 16"><style>.icon-vs-bg{fill:#424242}.icon-vs-fg{fill:#f0eff1}.icon-vs-out{fill:#f6f6f6}.icon-canvas-transparent{opacity:0;fill:#f6f6f6}</style><path class="icon-canvas-transparent" d="M16 16H0V0h16v16z" id="canvas"/><path class="icon-vs-out" d="M14 5v9H3V5h2.391l-.815-.816.017-.017-.007-.006.015-.002 2.094-2.094.305.304V1h3v1.386l.31-.308 2.085 2.085.019-.002-.011.011.023.023-.8.805H14z" id="outline"/><path class="icon-vs-bg" d="M8 8h1v1H8V8zm3 1V8h-1v1h1zM7 8H6v1h1V8zm6-2v7H4V6h1v4h7V6h1zm-5 5H7v1h1v-1zm2 0H9v1h1v-1zm.308-7.51L9 4.79V2.016H8v2.757L6.697 3.477l-.707.707 2.525 2.525 2.5-2.512-.707-.707z" id="iconBg"/><path class="icon-vs-fg" d="M10 12H9v-1h1v1zm-2-1H7v1h1v-1z" id="iconFg"/></svg>