<svg xmlns="http://www.w3.org/2000/svg" viewBox="0 0 16 16"><style>.icon-canvas-transparent{opacity:0;fill:#f6f6f6}.icon-vs-out{fill:#f6f6f6}.icon-vs-fg{fill:#f0eff1}.icon-vs-blue{fill:#1ba1e2}.icon-vs-bg_x0020_2{fill:#424242}</style><path class="icon-canvas-transparent" d="M16 16H0V0h16v16z" id="canvas"/><path class="icon-vs-out" d="M16 10h-1v5H1v-4H0V5h1V1h14v5h1v4z" id="outline"/><path class="icon-vs-bg_x0020_2" d="M2 5V2h12v4h-1V3H3v2H2zm11 5v3H3v-2H2v3h12v-4h-1zm2-1H6V7h9v2z" id="iconBg"/><path class="icon-vs-fg" d="M3 5V3h10v3H6V5H3zm3 5v1H3v2h10v-3H6z" id="iconFg"/><path class="icon-vs-blue" d="M5 6H1v4h4V6z" id="colorImportance"/></svg>