<svg xmlns="http://www.w3.org/2000/svg" width="16" height="16"><style type="text/css">.icon-canvas-transparent{opacity:0;fill:#F6F6F6;} .icon-vs-out{fill:#F6F6F6;} .icon-vs-bg{fill:#424242;} .icon-vs-fg{fill:#F0EFF1;}</style><path class="icon-canvas-transparent" d="M16 16h-16v-16h16v16z" id="canvas"/><path class="icon-vs-out" d="M16 8c0 4.418-3.582 8-8 8-.34 0-.673-.028-1.002-.069v.069h-6.998v-8.994h.069c.49-3.948 3.85-7.006 7.931-7.006 4.418 0 8 3.582 8 8z" id="outline"/><path class="icon-vs-bg" d="M14.988 7.763c-.126-3.755-3.202-6.763-6.988-6.763-3.526 0-6.434 2.609-6.92 6h1.265c.081-.454.208-.891.388-1.302.686.202 1.448.393 2.3.539-.026.245-.034.507-.048.763h1.09l.037-.609c.603.068 1.23.113 1.882.12l.403.002c.488 0 .982-.016 1.487-.054.038.339.066.685.07 1.046.006.577-.068 1.202-.209 1.869-.584.041-1.158.049-1.74.046-.341-.003-.676-.02-1.005-.044v1.079c.329.021.652.052.994.056l.403.002c.348 0 .699-.01 1.054-.027-.306.991-.759 2.077-1.353 3.26l-.098.004-.504-.025c-.188-.418-.342-.833-.496-1.248v2.441l.399.052c.199.018.398.03.601.03.231 0 .46-.013.685-.034 3.544-.345 6.315-3.331 6.315-6.966l-.012-.237zm-9.803-2.61c-.692-.12-1.325-.273-1.903-.435.647-.93 1.563-1.655 2.635-2.073-.29.723-.556 1.555-.732 2.508zm2.821.268c-.6-.006-1.181-.047-1.739-.111.233-1.215.618-2.214 1.001-3.008.24-.031.483-.052.732-.052l.488.024c.468.812.944 1.846 1.221 3.108-.571.039-1.133.044-1.703.039zm1.875-2.85c1.176.407 2.179 1.18 2.868 2.188-.686.236-1.334.4-1.951.496-.214-1.03-.551-1.918-.917-2.684zm-.497 11.004c.546-1.146.967-2.215 1.238-3.193.894-.115 1.845-.343 2.886-.734-.578 1.936-2.151 3.439-4.124 3.927zm4.347-5.201c-1.038.452-1.972.722-2.848.863.11-.612.167-1.194.161-1.743-.004-.4-.035-.783-.076-1.156.727-.114 1.494-.308 2.316-.604.3.696.466 1.461.466 2.266l-.019.374zm-12.731 6.626h5v-7h-5v7zm3-6h1v1h-1v-1zm0 2h1v1h-1v-1zm-2-2h1v1h-1v-1zm0 2h1v1h-1v-1z" id="iconBg"/><path class="icon-vs-fg" d="M3 10h-1v-1h1v1zm1 0h1v-1h-1v1zm0 2h1v-1h-1v1zm-1-1h-1v1h1v-1z" id="iconFg"/></svg>