<svg xmlns="http://www.w3.org/2000/svg" width="16" height="16"><style type="text/css">.icon-canvas-transparent{opacity:0;fill:#F6F6F6;} .icon-vs-out{fill:#F6F6F6;} .icon-vs-bg{fill:#424242;} .icon-vs-fg{fill:#F0EFF1;}</style><path class="icon-canvas-transparent" d="M16 16h-16v-16h16v16z" id="canvas"/><path class="icon-vs-out" d="M16 15h-16v-14h16v14z" id="outline"/><path class="icon-vs-bg" d="M1 2v12h14v-12h-14zm1 3h2v3h-2v-3zm0 8v-4h2v4h-2zm12 0h-9v-4h9v4zm0-5h-9v-3h9v3z" id="iconBg"/><path class="icon-vs-fg" d="M4 9v4h-2v-4h2zm0-1v-3h-2v3h2zm1 5h9v-4h-9v4zm0-8v3h9v-3h-9z" id="iconFg"/></svg>