<svg xmlns="http://www.w3.org/2000/svg" width="16" height="16"><style type="text/css">.icon-canvas-transparent{opacity:0;fill:#F6F6F6;} .icon-vs-out{fill:#F6F6F6;} .icon-vs-bg{fill:#424242;} .icon-vs-fg{fill:#F0EFF1;}</style><path class="icon-canvas-transparent" d="M16 16h-16v-16h16v16z" id="canvas"/><path class="icon-vs-out" d="M16 4.414l-1.086 1.086 1.086 1.086v1.828l-1.086 1.086 1.086 1.086v1.828l-1.586 1.586h-2.828l-1.35-1.35c-.755-.443-1.236-1.258-1.236-2.15v-.5h-2v.5c0 .901-.492 1.725-1.261 2.164l-.032.043-1.293 1.293h-2.828l-1.586-1.586v-1.828l1.086-1.086-1.086-1.086v-1.828l1.086-1.086-1.086-1.086v-1.828l1.586-1.586h2.828l1.35 1.35c.755.443 1.236 1.258 1.236 2.15v.5h2v-.5c0-.901.492-1.725 1.261-2.164l.032-.043 1.293-1.293h2.828l1.586 1.586v1.828z" id="outline"/><path class="icon-vs-bg" d="M11.146 4.146l.854.854h2l1-1v-1l-1-1h-2l-1 1v.092c-.581.207-1 .757-1 1.408v2.5l-1-1h-2l-1 1v-2.5c0-.651-.419-1.201-1-1.408v-.092l-1-1h-2l-1 1v1l1 1h2l.854-.854c.089.091.146.216.146.354v2.5l-1-1h-2l-1 1v1l1 1h2l1-1v2.5c0 .138-.057.263-.146.353l-.854-.853h-2l-1 1v1l1 1h2l1-1v-.092c.581-.207 1-.757 1-1.408v-2.5l1 1h2l1-1v2.5c0 .651.419 1.201 1 1.408v.092l1 1h2l1-1v-1l-1-1h-2l-.854.853c-.089-.09-.146-.215-.146-.353v-2.5l1 1h2l1-1v-1l-1-1h-2l-1 1v-2.5c0-.138.057-.263.146-.354zm.854-1.146h2v1h-2v-1zm-8 1h-2v-1h2v1zm0 4h-2v-1h2v1zm0 4h-2v-1h2v1zm5-4h-2v-1h2v1zm3 3h2v1h-2v-1zm0-4h2v1h-2v-1z" id="iconBg"/><path class="icon-vs-fg" d="M2 3h2v1h-2v-1zm0 5h2v-1h-2v1zm0 4h2v-1h-2v1zm10 0h2v-1h-2v1zm0-4h2v-1h-2v1zm-5 0h2v-1h-2v1zm5-5v1h2v-1h-2z" id="iconFg"/></svg>