<svg xmlns="http://www.w3.org/2000/svg" width="16" height="16"><style type="text/css">.icon-canvas-transparent{opacity:0;fill:#F6F6F6;} .icon-vs-out{fill:#F6F6F6;} .icon-vs-bg{fill:#424242;} .icon-vs-fg{fill:#F0EFF1;}</style><path class="icon-canvas-transparent" d="M16 16h-16v-16h16v16z" id="canvas"/><polygon class="icon-vs-out" points="15.354,11.998 15.354,10.531 15.11,10.305 16,9.414 16,2.586 13.414,0 2.586,0 0,2.586 0,9.414 2.586,12 8,12 8,14.241 9.432,14.241 10.336,13.248 11.261,15.332 14.269,13.964 13.402,11.998" id="outline"/><path class="icon-vs-bg" d="M8 11h-5l-2-2v-6l2-2h10l2 2v6l-.624.624-.734-.681.358-.357v-5.172l-1.414-1.414h-9.172l-1.414 1.414v5.172l1.414 1.414h4.586v1zm1-5v7.23l1.629-1.789 1.137 2.563 1.189-.541-1.086-2.465h2.518l-5.387-4.998z" id="iconBg"/><path class="icon-vs-fg" d="M8 10h-4.586l-1.414-1.414v-5.172l1.414-1.414h9.172l1.414 1.414v5.172l-.358.358-5.642-5.236v6.292z" id="iconFg"/></svg>