<svg xmlns="http://www.w3.org/2000/svg" width="16" height="16"><style type="text/css">.icon-canvas-transparent{opacity:0;fill:#F6F6F6;} .icon-vs-out{fill:#F6F6F6;} .icon-vs-bg{fill:#424242;} .icon-vs-fg{fill:#F0EFF1;}</style><path class="icon-canvas-transparent" d="M16 16h-16v-16h16v16z" id="canvas"/><path class="icon-vs-out" d="M16 8c0 4.418-3.582 8-8 8s-8-3.582-8-8 3.582-8 8-8 8 3.582 8 8z" id="outline"/><path class="icon-vs-bg" d="M8.063 1c-3.866 0-7 3.134-7 7 0 3.868 3.134 7 7 7s7-3.133 7-7c0-3.866-3.134-7-7-7zm-.063 13c-3.313 0-6-2.686-6-6 0-3.313 2.687-6 6-6 3.314 0 6 2.687 6 6 0 3.314-2.686 6-6 6zm1.867-6.191l1.133 4.191-3-3-3 3 1.133-4.191-3.133-1.809h3.853l1.147-3 1.148 3h3.852l-3.133 1.809z" id="iconBg"/><path class="icon-vs-fg" d="M8 2c-3.313 0-6 2.687-6 6 0 3.314 2.687 6 6 6 3.314 0 6-2.686 6-6 0-3.313-2.686-6-6-6zm3 10l-3-3-3 3 1.133-4.191-3.133-1.809h3.853l1.147-3 1.148 3h3.852l-3.133 1.809 1.133 4.191z" id="iconFg"/></svg>