<svg xmlns="http://www.w3.org/2000/svg" width="16" height="16"><style type="text/css">.icon-canvas-transparent{opacity:0;fill:#F6F6F6;} .icon-vs-out{fill:#F6F6F6;} .icon-vs-bg{fill:#424242;} .icon-vs-fg{fill:#F0EFF1;}</style><path class="icon-canvas-transparent" d="M16 16h-16v-16h16v16z" id="canvas"/><path class="icon-vs-out" d="M2.586 14l-2.586-2.586v-6.828l2.586-2.586h10.828l2.586 2.586v6.828l-2.586 2.586h-10.828z" id="outline"/><path class="icon-vs-bg" d="M13 3h-10l-2 2v6l2 2h10l2-2v-6l-2-2zm1 7.586l-1.414 1.414h-4.086v-1h-1v1h-4.086l-1.414-1.414v-5.172l1.414-1.414h4.086v1h1v-1h4.086l1.414 1.414v5.172zm-10-.586h2v1h-2v-1zm5-1h4v-3h-4v3zm1-2h2v1h-2v-1zm-7 2h4v-3h-4v3zm1-2h2v1h-2v-1zm6 3h2v1h-2v-1z" id="iconBg"/><path class="icon-vs-fg" d="M12 8h-2v-1h2v1zm2-2.586v5.172l-1.414 1.414h-4.086v-1h-1v1h-4.086l-1.414-1.414v-5.172l1.414-1.414h4.086v1h1v-1h4.086l1.414 1.414zm-8 4.586h-2v1h2v-1zm1-4h-4v3h4v-3zm5 4h-2v1h2v-1zm1-4h-4v3h4v-3zm-7 1h-2v1h2v-1z" id="iconFg"/></svg>