<svg xmlns="http://www.w3.org/2000/svg" width="16" height="16"><style type="text/css">.icon-canvas-transparent{opacity:0;fill:#F6F6F6;} .icon-vs-out{fill:#F6F6F6;} .icon-vs-bg{fill:#424242;} .icon-vs-fg{fill:#F0EFF1;}</style><path class="icon-canvas-transparent" d="M16 16h-16v-16h16v16z" id="canvas"/><path class="icon-vs-out" d="M16 10h-6v6h-10v-13h4v-3h12v10z" id="outline"/><path class="icon-vs-bg" d="M15 9h-5v-1h4v-5h-9v-2h10v8zm-6-5v11h-8v-11h8zm-1 1h-6v9h6v-9zm-1 1h-1v1h-2v-1h-1v3h4v-3zm0 4h-1v1h-2v-1h-1v3h4v-3z" id="iconBg"/><path class="icon-vs-fg" d="M2 14h6v-9h-6v9zm1-8h1v1h2v-1h1v3h-4v-3zm0 4h1v1h2v-1h1v3h-4v-3zm11-7v5h-4v-5h4z" id="iconFg"/></svg>