<svg xmlns="http://www.w3.org/2000/svg" viewBox="0 0 16 16"><style>.icon-canvas-transparent{opacity:0;fill:#f6f6f6}.icon-vs-out{fill:#f6f6f6}.icon-vs-bg{fill:#424242}.icon-vs-blue{fill:#1ba1e2}</style><path class="icon-canvas-transparent" d="M16 16H0V0h16v16z" id="canvas"/><path class="icon-vs-out" d="M15 4v8c0 2.28-3.01 4-7 4-1.81 0-3.413-.356-4.63-.956L2.414 16H.382l1.186-2.371A2.94 2.94 0 0 1 1.213 13H0v-1.236l1-2V4c0-2.28 3.01-4 7-4s7 1.72 7 4z" id="outline"/><g id="iconBg"><path class="icon-vs-blue" d="M14 4v8c0 1.657-2.686 3-6 3-1.478 0-2.829-.269-3.875-.711l.774-.774C5.718 13.801 6.762 14 8 14c3.052 0 5-1.185 5-2l.016-6.833c-1.076.811-2.946 1.417-5.032 1.417-2.082 0-3.781-.459-4.984-1.396V7h-.618L2 7.764V4c0-1.657 2.687-3 6-3 3.314 0 6 1.343 6 3zm-1.003 0c0-.815-1.948-2-5-2s-5 1.185-5 2 1.948 1.833 5 1.833 5-1.018 5-1.833zM14 4v8c0 1.657-2.686 3-6 3-1.478 0-2.829-.269-3.875-.711l.774-.774C5.718 13.801 6.762 14 8 14c3.052 0 5-1.185 5-2l.016-6.833c-1.076.811-2.946 1.417-5.032 1.417-2.082 0-3.781-.459-4.984-1.396V7h-.618L2 7.764V4c0-1.657 2.687-3 6-3 3.314 0 6 1.343 6 3zm-1.003 0c0-.815-1.948-2-5-2s-5 1.185-5 2 1.948 1.833 5 1.833 5-1.018 5-1.833z"/><path class="icon-vs-bg" d="M6 8l-3 3h3l-4 4 1.5-3H1l2-4z"/></g></svg>