<svg xmlns="http://www.w3.org/2000/svg" viewBox="0 0 16 16"><style>.icon-canvas-transparent{opacity:0;fill:#f6f6f6}.icon-vs-out{fill:#f6f6f6}.icon-vs-bg{fill:#424242}.icon-vs-blue{fill:#1ba1e2}</style><path class="icon-canvas-transparent" d="M16 16H0V0h16v16z" id="canvas"/><path class="icon-vs-out" d="M16 3v6c0 1.503-1.662 2.68-4 2.943V13c0 1.71-2.149 3-5 3-1.479 0-2.761-.352-3.66-.926L2.414 16H.382l1.5-3H0v-1.236l2-4V7c0-1.504 1.662-2.68 4-2.943V3c0-1.71 2.149-3 5-3s5 1.29 5 3z" id="outline"/><g id="iconBg"><path class="icon-vs-blue" d="M11 1c-2.209 0-4 .896-4 2v1c.345 0 .678.021 1 .057v-.272c.221.165.51.299.827.415.235.052.452.118.665.19.449.094.947.157 1.508.157 1.328 0 2.371-.287 3-.754V9c0 .201-.708.736-2 .935v.995c1.722-.224 3-.999 3-1.93V3c0-1.104-1.791-2-4-2zm0 2.875c-1.919 0-2.979-.611-2.996-.867C8.021 2.752 9.081 2 11 2c1.902 0 2.958.753 2.993 1.016-.035.261-1.091.859-2.993.859zM11 7v6c0 1.104-1.791 2-4 2-1.165 0-2.204-.253-2.936-.65l.738-.738c.509.218 1.247.404 2.198.404 1.936 0 3-.767 3-1.016V7.793c-.629.467-1.672.754-3 .754-.045 0 0-.133 0-.133v-.539c1.902 0 2.958-.598 2.993-.859C9.958 6.754 8.902 6 7 6s-2.957.738-2.992 1H3c0-1.104 1.791-2 4-2s4 .896 4 2z"/><path class="icon-vs-bg" d="M6 8l-3 3h3l-4 4 1.5-3H1l2-4z"/></g></svg>