<svg xmlns="http://www.w3.org/2000/svg" width="16" height="16"><style type="text/css">.icon-canvas-transparent{opacity:0;fill:#F6F6F6;} .icon-vs-out{fill:#F6F6F6;} .icon-vs-bg{fill:#424242;} .icon-vs-red{fill:#E51400;} .icon-white{fill:#FFFFFF;}</style><path class="icon-canvas-transparent" d="M16 16h-16v-16h16v16z" id="canvas"/><path class="icon-vs-out" d="M16 11.5c0 2.481-2.019 4.5-4.5 4.5-.436 0-.85-.082-1.249-.198-.702.127-1.456.198-2.251.198-1.81 0-3.413-.356-4.63-.956l-.956.956h-2.032l1.186-2.371c-.148-.2-.265-.411-.355-.629h-1.213v-1.236l1-2v-5.764c0-2.28 3.01-4 7-4s7 1.72 7 4v4.707c.616.77 1 1.732 1 2.793z" id="outline"/><path class="icon-vs-bg" d="M6 8l-3 3h3l-4 4 1.5-3h-2.5l2-4h3zm1.756 5.99c-1.129-.024-2.094-.209-2.857-.476l-.774.774c1.046.443 2.397.712 3.875.712.23 0 .458-.008.682-.021-.353-.286-.673-.61-.926-.989zm.228-7.406c-2.082 0-3.781-.459-4.984-1.396v1.812h-.618l-.382.764v-3.764c0-1.657 2.687-3 6-3 3.314 0 6 1.343 6 3v3.762c-.304-.204-.64-.356-.989-.482l.005-2.113c-1.076.811-2.946 1.417-5.032 1.417zm.013-.739c3.052 0 5-1.029 5-1.845s-1.948-2-5-2-5 1.185-5 2 1.948 1.845 5 1.845z" id="iconBg"/><path class="icon-vs-red" d="M11.5 8c-1.933 0-3.5 1.567-3.5 3.5s1.567 3.5 3.5 3.5 3.5-1.567 3.5-3.5-1.567-3.5-3.5-3.5zm1.854 4.646l-.707.707-1.147-1.146-1.146 1.147-.707-.707 1.147-1.146-1.147-1.146.707-.707 1.146 1.147 1.146-1.147.707.707-1.146 1.145 1.147 1.146z" id="notificationBg"/><path class="icon-white" d="M12.207 11.5l1.147 1.146-.707.707-1.147-1.146-1.146 1.147-.707-.707 1.147-1.146-1.147-1.146.707-.707 1.146 1.147 1.146-1.147.707.707-1.146 1.145z" id="notificationFg"/></svg>