<svg xmlns="http://www.w3.org/2000/svg" viewBox="0 0 16 16"><style>.icon-canvas-transparent{opacity:0;fill:#f6f6f6}.icon-vs-out{fill:#f6f6f6}.icon-vs-bg{fill:#424242}.icon-vs-action-blue{fill:#00539c}.icon-vs-blue{fill:#1ba1e2}</style><path class="icon-canvas-transparent" d="M16 16H0V0h16v16z" id="canvas"/><path class="icon-vs-out" d="M15.629 10h-.067l-.562.225V3.981C15 1.712 11.99 0 8 0S1 1.712 1 3.981v5.736l-1 1.99V13h1.212c.091 0 .207.434.355.633L.382 16h2.032l.956-.99c1.217.598 2.82.934 4.63.934.872 0 1.691-.096 2.448-.247a4.02 4.02 0 0 0 1.531.304h.04c2.198-.012 3.981-1.793 3.981-3.98 0-.306-.037-.615-.109-.92L15.629 10z" id="outline"/><g id="iconBg"><path class="icon-vs-blue" d="M8.502 13.976C8.334 13.983 8.176 14 8 14c-1.238 0-2.282-.199-3.101-.485l-.774.774C5.171 14.731 6.522 15 8 15c.417 0 .823-.021 1.216-.061a4.055 4.055 0 0 1-.714-.963zm-.518-7.392c-2.082 0-3.781-.459-4.984-1.396V7h-.618L2 7.764V4c0-1.657 2.687-3 6-3 3.314 0 6 1.343 6 3v4.279l-.989-.816.005-2.296c-.449.338-1.043.638-1.727.875l-.009-.007-.28.094v.01c-.892.276-1.922.445-3.016.445zM7.997 6c3.052 0 5-1.185 5-2s-1.948-2-5-2-5 1.185-5 2 1.948 2 5 2z"/><path class="icon-vs-bg" d="M6 8l-3 3h3l-4 4 1.5-3H1l2-4z"/></g><g id="notificationBg"><path class="icon-vs-action-blue" d="M14.398 10.197l-.798.602A2.002 2.002 0 0 1 12 14c-1.103 0-2-.897-2-2 0-.715.393-1.353 1-1.709V12h1V9H9v1h.765A3.003 3.003 0 0 0 9 12c0 1.654 1.346 3 3 3s3-1.346 3-3c0-.656-.208-1.279-.602-1.803z"/></g></svg>