<svg xmlns="http://www.w3.org/2000/svg" viewBox="0 0 16 16"><style>.icon-canvas-transparent{opacity:0;fill:#f6f6f6}.icon-vs-yellow{fill:#fc0}.icon-vs-blue{fill:#1ba1e2}.icon-vs-bg{fill:#424242}.icon-vs-out{fill:#f6f6f6}</style><path class="icon-canvas-transparent" d="M16 16H0V0h16v16z" id="canvas"/><path class="icon-vs-out" d="M16 14l-1 2H8c-1.81 0-3.413-.356-4.63-.956L2.414 16H.382l1.186-2.371A2.94 2.94 0 0 1 1.213 13H0v-1.236l1-2V4c0-2.28 3.01-4 7-4s7 1.72 7 4v8l1 2z" id="outline"/><g id="iconBg"><path class="icon-vs-blue" d="M3 7V5.188c1.203.938 2.902 1.396 4.984 1.396 2.086 0 3.956-.606 5.031-1.417l-.007 2.851L14 10V4c0-1.657-2.686-3-6-3-3.313 0-6 1.343-6 3v3.764L2.382 7H3zm4.997-5c3.052 0 5 1.185 5 2s-1.948 1.833-5 1.833-5-1.018-5-1.833 1.948-2 5-2zm-.509 12.977c-1.274-.055-2.441-.298-3.363-.688l.774-.774a8.864 8.864 0 0 0 2.124.439L7 14l.488.977z"/><path class="icon-vs-bg" d="M2 15l1.5-3H1l2-4h3l-3 3h3z"/></g><path class="icon-vs-yellow" d="M11.891 8.016h-.781l-3.016 6 .515.984h5.766l.484-1-2.968-5.984zM12 14h-1v-1h1v1zm0-2h-1v-2h1v2z" id="notificationBg"/><g id="notificationFg"><path class="icon-black" d="M12 12h-1v-2h1v2zm0 1h-1v1h1v-1z"/></g></svg>