<svg xmlns="http://www.w3.org/2000/svg" viewBox="0 0 16 16"><style>.icon-canvas-transparent{opacity:0;fill:#f6f6f6}.icon-vs-out{fill:#f6f6f6}.icon-vs-bg{fill:#424242}.icon-vs-green{fill:#393}.icon-white{fill:#fff}.icon-vs-blue{fill:#1ba1e2}</style><path class="icon-canvas-transparent" d="M16 16H0V0h16v16z" id="canvas"/><path class="icon-vs-out" d="M15.917 10.674c-.029-.157-.079-.305-.125-.456-.029-.093-.052-.188-.086-.278a4.465 4.465 0 0 0-.271-.582l-.034-.062A4.602 4.602 0 0 0 15 8.703V4c0-2.28-3.01-4-7-4S1 1.72 1 4v5.764l-1 2V13h1.212c.091.218.207.429.355.629L.382 16h2.032l.956-.956c1.217.6 2.82.956 4.63.956.795 0 1.548-.071 2.25-.198.179.052.358.097.546.127.228.042.462.071.704.071a4.5 4.5 0 0 0 4.5-4.5c0-.283-.031-.558-.083-.826z" id="outline"/><g id="iconBg"><path class="icon-vs-blue" d="M7.984 6.584c-2.082 0-3.781-.459-4.984-1.396V7h-.618L2 7.764V4c0-1.657 2.687-3 6-3 3.314 0 6 1.343 6 3v3.762a4.508 4.508 0 0 0-.989-.482l.005-2.113c-1.076.811-2.946 1.417-5.032 1.417zm.108-.679c3.052 0 4.905-1.089 4.905-1.905s-1.948-2-5-2-5 1.185-5 2 2.044 1.905 5.095 1.905zm-.336 8.085c-1.129-.024-2.094-.209-2.857-.476l-.774.774C5.171 14.731 6.522 15 8 15c.23 0 .458-.008.682-.021a4.506 4.506 0 0 1-.926-.989z"/><path class="icon-vs-bg" d="M6 8l-3 3h3l-4 4 1.5-3H1l2-4z"/></g><path class="icon-vs-green" d="M11.5 8C9.57 8 8 9.57 8 11.5S9.57 15 11.5 15s3.5-1.57 3.5-3.5S13.43 8 11.5 8zm-.75 5.707l-1.854-1.854.707-.707 1.146 1.146 2.646-2.646.707.707-3.352 3.354z" id="notificationBg"/><g id="notificationFg"><path class="icon-white" d="M14.104 10.354l-3.354 3.354-1.854-1.854.707-.707 1.146 1.146 2.646-2.646.709.707z"/></g></svg>