<svg xmlns="http://www.w3.org/2000/svg" width="16" height="16"><style type="text/css">.icon-canvas-transparent{opacity:0;fill:#F6F6F6;} .icon-vs-out{fill:#F6F6F6;} .icon-vs-bg{fill:#424242;} .icon-vs-fg{fill:#F0EFF1;}</style><path class="icon-canvas-transparent" d="M16 16h-16v-16h16v16z" id="canvas"/><path class="icon-vs-out" d="M15.699 3.242v6.613l-5.34 3.915-1.359-.857v1.501l-1.586 1.586h-5.828l-1.586-1.586v-8.828l1.586-1.586h2.629v-.77l5.852-2.96 5.632 2.972z" id="outline"/><path class="icon-vs-bg" d="M10.057 1.396l-4.842 2.449v.155h1.32l3.465-1.76 3.838 1.891-3.58 2.149-1.311-.747.053.053v.824l1 .559v4.467l-.031.021v.02l-.012-.01-.01.01v-.02l-.947-.617v.892l1.316.829 4.383-3.213v-5.503l-4.642-2.449zm3.937 7.608l-3.105 2.237v-4.315l3.105-1.895v3.973zm-10.994-.004h1v1h-1v-1zm2 2h1v2h-1v-2zm-2 0h1v1h-1v-1zm-1-6l-1 1v8l1 1h5l1-1v-8l-1-1h-5zm5 9h-5v-8h5v8zm-2-5h1v1h-1v-1zm-2-2h3v1h-3v-1z" id="iconBg"/><path class="icon-vs-fg" d="M2 6v8h5v-8h-5zm2 6h-1v-1h1v1zm0-2h-1v-1h1v1zm2 3h-1v-2h1v2zm0-3h-1v-1h1v1zm0-2h-3v-1h3v1z" id="iconFg"/></svg>