<svg xmlns="http://www.w3.org/2000/svg" width="16" height="16"><style type="text/css">.icon-canvas-transparent{opacity:0;fill:#F6F6F6;} .icon-vs-out{fill:#F6F6F6;} .icon-vs-bg{fill:#424242;} .icon-vs-fg{fill:#F0EFF1;} .icon-vs-yellow{fill:#FFCC00;}</style><path class="icon-canvas-transparent" d="M16 16h-16v-16h16v16z" id="canvas"/><path class="icon-vs-out" d="M16 14l-1 2h-12.414l-1.586-1.586v-12.828l1.586-1.586h7.828l1.586 1.586v5.414h.5l3.5 7z" id="outline"/><path class="icon-vs-bg" d="M11 2v5h-.5l-.5 1v-5.586l-.414-.414h-6.172l-.414.414v11.172l.414.414h3.586l.5 1h-4.5l-1-1v-12l1-1h7l1 1zm-6 4h-1v1h1v-1zm2 4h-1v1h1v-1zm-1 3h1v-1h-1v1zm-1-5h-1v1h1v-1zm-1 5h1v-1h-1v1zm1-3h-1v1h1v-1zm2-2h-1v1h1v-1zm1-1h1v-1h-1v1zm-1-1h-1v1h1v-1zm-3-1h5v-2h-5v2zm4 4h1v-1h-1v1zm0 3l1-2h-1v2z" id="iconBg"/><path class="icon-vs-fg" d="M9.586 2h-6.172l-.414.414v11.172l.414.414h3.586l1-2v-2h1l1-2v-5.586l-.414-.414zm-4.586 11h-1v-1h1v1zm0-2h-1v-1h1v1zm0-2h-1v-1h1v1zm0-2h-1v-1h1v1zm2 6h-1v-1h1v1zm0-2h-1v-1h1v1zm0-2h-1v-1h1v1zm0-2h-1v-1h1v1zm2 2h-1v-1h1v1zm0-2h-1v-1h1v1zm0-2h-5v-2h5v2z" id="iconFg"/><path class="icon-vs-yellow" d="M11.891 8.016h-.781l-3.016 6 .515.984h5.766l.484-1-2.968-5.984zm.109 5.984h-1v-1h1v1zm0-2h-1v-2h1v2z" id="notificationBg"/><path class="icon-black" d="M11 13h1v1h-1v-1zm0-3v2h1v-2h-1z" id="notificationFg"/></svg>