<svg xmlns="http://www.w3.org/2000/svg" width="16" height="16"><style type="text/css">.icon-canvas-transparent{opacity:0;fill:#F6F6F6;} .icon-vs-out{fill:#F6F6F6;} .icon-vs-bg{fill:#424242;} .icon-vs-fg{fill:#F0EFF1;}</style><path class="icon-canvas-transparent" d="M16 16h-16v-16h16v16z" id="canvas"/><path class="icon-vs-out" d="M15 2v13h-14v-13h3v-1h3v1h2v-1h3v1h3z" id="outline"/><path class="icon-vs-bg" d="M6 4h-1v-2h1v2zm5-2h-1v2h1v-2zm3 1v11h-12v-11h2v2h3v-2h2v2h3v-2h2zm-1 4h-10v6h10v-6zm-7.095 4.964h.882v-3.898h-.756l-1.031.48.15.684.744-.354h.012v3.088zm4.691 0v-.749h-1.469v-.013l.359-.3c.564-.504 1.038-1.025 1.038-1.68 0-.706-.485-1.222-1.367-1.222-.528 0-.983.18-1.277.402l.258.654c.204-.156.498-.324.833-.324.45 0 .642.252.642.569-.012.456-.426.895-1.278 1.656l-.503.455v.552h2.764z" id="iconBg"/><path class="icon-vs-fg" d="M3 7v6h10v-6h-10zm3.787 4.964h-.882v-3.089h-.011l-.744.354-.15-.683 1.031-.48h.756v3.898zm3.809 0h-2.764v-.552l.503-.455c.852-.762 1.266-1.2 1.278-1.656 0-.317-.192-.569-.642-.569-.335 0-.629.168-.833.324l-.258-.654c.294-.222.749-.402 1.277-.402.882 0 1.367.516 1.367 1.223 0 .654-.474 1.176-1.038 1.68l-.359.3v.013h1.469v.748z" id="iconFg"/></svg>