<svg xmlns="http://www.w3.org/2000/svg" width="16" height="16"><style type="text/css">.icon-canvas-transparent{opacity:0;fill:#F6F6F6;} .icon-vs-out{fill:#F6F6F6;} .icon-vs-bg{fill:#424242;} .icon-vs-blue{fill:#1BA1E2;} .icon-white{fill:#FFFFFF;} .st0{fill:#CEE7CE;}</style><path class="icon-canvas-transparent" d="M16 16h-16v-16h16v16z" id="canvas"/><g id="outline"><path class="icon-vs-bg" d="M7 10c-2.761 0-5-2.238-5-5 0-1.644.804-3.089 2.027-4h1.25c-.172.295-.277.634-.277 1 0 1.104.896 2 2 2h1v-2h2l5 5-1.25 1.25-.707-.707.543-.543-4-4h-.586v2h-2c-1.536 0-2.805-1.16-2.979-2.649-.656.726-1.021 1.657-1.021 2.649 0 2.206 1.794 4 4 4h1.5l-1 1h-.5z"/><path class="icon-vs-out" d="M12.5 7l3.5 3.5v2l-3.5 3.5h-2l-3.5-3.5v-2l3.5-3.5h2z"/></g><path class="st0" d="M7 9c-2.206 0-4-1.794-4-4 0-.992.365-1.923 1.021-2.649.174 1.489 1.443 2.649 2.979 2.649h2v-2h.586l4 4-.543.543-.543-.543h-2l-2 2h-1.5z" id="iconBg"/><path class="icon-vs-blue" d="M12 8h-1l-3 3v1l3 3h1l3-3v-1l-3-3zm0 6h-1v-1h1v1zm0-2h-1v-3h1v3z" id="notificationBg"/><path class="icon-white" d="M12 12h-1v-3h1v3zm0 1h-1v1h1v-1z" id="notificationFg"/></svg>