<svg xmlns="http://www.w3.org/2000/svg" width="16" height="16"><style type="text/css">.icon-canvas-transparent{opacity:0;fill:#F6F6F6;} .icon-vs-out{fill:#F6F6F6;} .icon-vs-bg{fill:#424242;} .icon-vs-fg{fill:#F0EFF1;}</style><path class="icon-canvas-transparent" d="M16 16h-16v-16h16v16z" id="canvas"/><path class="icon-vs-out" d="M3.586 13l-2.586-2.586v-4.828l2.586-2.586h9.828l2.586 2.586v4.828l-2.586 2.586h-9.828z" id="outline"/><path class="icon-vs-bg" d="M13 4h-9l-2 2v4l2 2h9l2-2v-4l-2-2zm-1 4v2h-1v-2h-2v2h-1v-2h-2v2h-1v-3h3v-1h1v1h3v1z" id="iconBg"/><path class="icon-vs-fg" d="M12 7v3h-1v-2h-2v2h-1v-2h-2v2h-1v-3h3v-1h1v1h3z" id="iconFg"/></svg>