<svg xmlns="http://www.w3.org/2000/svg" viewBox="0 0 16 16"><style>.icon-canvas-transparent{opacity:0;fill:#f6f6f6}.icon-vs-out{fill:#f6f6f6}.icon-vs-bg{fill:#424242}</style><g id="canvas"><path id="XMLID_1_" class="icon-canvas-transparent" d="M16 16H0V0h16v16z"/></g><path class="icon-vs-out" d="M12 8h-2V5h3.298l.289-.497C13.857 4.039 14 3.52 14 3c0-1.654-1.346-3-3-3H5C3.346 0 2 1.346 2 3c0 .52.143 1.039.413 1.503L2.702 5H6v3H4v3H2v4h12v-4h-2V8zM7 5V3h2v2H7z" id="outline"/><g id="iconBg"><path id="XMLID_3_" class="icon-vs-bg" d="M3.277 4A1.977 1.977 0 0 1 3 3a2 2 0 0 1 2-2h6a2 2 0 0 1 2 2c0 .366-.106.705-.277 1H10V2H6v2H3.277zM9 8V6H7v2h2zm2 1H9v2h2V9zM7 9H5v2h2V9zm0 5h2v-2H7v2zm-4 0h2v-2H3v2zm8 0h2v-2h-2v2z"/></g></svg>