<svg xmlns="http://www.w3.org/2000/svg" viewBox="0 0 16 16"><style>.icon-canvas-transparent{opacity:0;fill:#f6f6f6}.icon-vs-out{fill:#f6f6f6}.icon-vs-bg{fill:#424242}</style><path class="icon-canvas-transparent" d="M16 16H0V0h16v16z" id="canvas"/><path class="icon-vs-out" d="M15.016 7.636l.984.6v4.097L12 15l-4-2.667V10.93l-4.354 4.338-2.119-2.119L2.672 12H0V9h2.655L1.527 7.868l2.12-2.12L8 10.1V8.231L11.697 6H11V4H9v2H5.277C4.478 6 4 5.252 4 4c0-1.654 1.346-3 3-3h6c1.654 0 3 1.346 3 3 0 1.252-.477 2-1.277 2h-2.42L15 7.697l.016-.061z" id="outline"/><path class="icon-vs-bg" d="M13 2H7a2 2 0 0 0-2 2c0 .365.105 1 .277 1H8V3h4v2h2.723c.171 0 .277-.635.277-1a2 2 0 0 0-2-2zm1.099 6.398L12 7 9.901 8.398 12 9.798l2.099-1.4zM12 11L9 9v3l3 2 3-2V9l-3 2zm-6.937-1H1v1h4.081l-2.14 2.148.707.707L7 10.515 3.648 7.163l-.707.707L5.063 10z" id="iconBg"/></svg>