<svg xmlns="http://www.w3.org/2000/svg" width="16" height="16"><style type="text/css">.icon-canvas-transparent{opacity:0;fill:#F6F6F6;} .icon-vs-out{fill:#F6F6F6;} .icon-vs-bg{fill:#424242;} .icon-vs-fg{fill:#F0EFF1;}</style><path class="icon-canvas-transparent" d="M16 16h-16v-16h16v16z" id="canvas"/><path class="icon-vs-out" d="M16 14h-10v1.298l-.497.289c-.465.27-.984.413-1.503.413-.884 0-1.671-.391-2.22-1-.12-.133-.229-.275-.324-.429-.094-.15-.176-.307-.241-.473l-.03-.098h-1.185v-14h16v14z" id="outline"/><path class="icon-vs-bg" d="M15 13h-9v-1h8v-8h-12v.8l-.22.2c-.12.133-.229.275-.324.429-.094.15-.176.306-.241.472l-.04.128c-.045.13-.09.259-.117.395-.037.187-.058.379-.058.576v-6h14v12zm-13-6v6c0 1.104.896 2 2 2 .366 0 .704-.106 1-.277v-2.723h-2v-4h2v-2.723c-.296-.172-.634-.277-1-.277-1.104 0-2 .896-2 2z" id="iconBg"/><path class="icon-vs-fg" d="M4 4c-.776 0-1.469.313-2 .8v-.8h2zm2 .702v4.298h-2v2h2v1h8v-8h-10c.519 0 1.038.143 1.503.413l.497.289z" id="iconFg"/></svg>