<svg xmlns="http://www.w3.org/2000/svg" viewBox="0 0 16 16"><style>.icon-canvas-transparent{opacity:0;fill:#f6f6f6}.icon-vs-out{fill:#f6f6f6}.icon-vs-bg{fill:#424242}</style><path class="icon-canvas-transparent" d="M16 16H0V0h16v16z" id="canvas"/><path class="icon-vs-out" d="M14.009 8.015l-4.473 4.458-2.119-2.119 1.262-1.342h-1.67v6.002l-.362.273A3.46 3.46 0 0 1 4.544 16c-1.93 0-3.5-1.57-3.5-3.5v-9c0-1.93 1.57-3.5 3.5-3.5.759 0 1.486.247 2.103.713l.362.273V6H8.68L7.408 4.717l2.121-2.12 4.479 4.48v.938z" id="outline"/><path class="icon-vs-bg" d="M4 11h2v3.489A2.476 2.476 0 0 1 4.5 15 2.5 2.5 0 0 1 2 12.5v-9A2.5 2.5 0 0 1 4.5 1c.565 0 1.081.194 1.5.511V5H4v6zm5.51-7.017l-.707.708 2.305 2.312H6.006v1h5.12l-2.314 2.322.707.707 3.526-3.514L9.51 3.983z" id="iconBg"/></svg>