<svg xmlns="http://www.w3.org/2000/svg" width="16" height="16"><style type="text/css">.icon-canvas-transparent{opacity:0;fill:#F6F6F6;} .icon-vs-out{fill:#F6F6F6;} .icon-vs-bg{fill:#424242;} .icon-vs-fg{fill:#F0EFF1;}</style><path class="icon-canvas-transparent" d="M16 16h-16v-16h16v16z" id="canvas"/><path class="icon-vs-out" d="M14 10c0 3.314-2.686 6-6 6-3.313 0-6-2.686-6-6 0-2.088 1.068-3.925 2.687-5h-1.985l-.289-.497c-.27-.464-.413-.984-.413-1.503 0-1.654 1.346-3 3-3h6c1.654 0 3 1.346 3 3 0 .519-.143 1.039-.413 1.503l-.289.497h-1.984c1.618 1.075 2.686 2.912 2.686 5z" id="outline"/><path class="icon-vs-bg" d="M11.393 10.822c-.087.357-.228.689-.414.994l.959 1.232c-.258.333-.557.631-.89.89l-1.231-.959c-.305.186-.638.328-.994.414l-.193 1.545c-.209.025-.414.062-.63.062-.216 0-.421-.037-.63-.063l-.192-1.545c-.356-.086-.689-.228-.994-.414l-1.231.959c-.333-.259-.632-.557-.89-.89l.959-1.232c-.187-.305-.327-.637-.414-.994l-1.544-.191c-.027-.208-.064-.413-.064-.63 0-.215.037-.42.063-.629l1.544-.193c.087-.356.228-.689.414-.994l-.958-1.231c.258-.333.557-.631.89-.89l1.231.958c.305-.186.638-.328.994-.414l.192-1.543c.209-.026.414-.064.63-.064.216 0 .421.038.63.063l.192 1.544c.356.086.689.228.994.414l1.231-.958c.333.259.632.556.89.89l-.959 1.231c.186.305.327.638.414.994l1.544.193c.027.209.064.414.064.629 0 .217-.037.422-.064.631l-1.543.191zm-3.393-2.822c-1.105 0-2 .896-2 2s.895 2 2 2 2-.896 2-2-.895-2-2-2zm0 1c-.553 0-1 .448-1 1 0 .553.447 1 1 1s1-.447 1-1c0-.552-.447-1-1-1zm3-8h-6c-1.104 0-2 .896-2 2 0 .366.105.705.277 1h2.723v-2h4v2h2.723c.171-.295.277-.634.277-1 0-1.104-.896-2-2-2z" id="iconBg"/><path class="icon-vs-fg" d="M8 8c-1.104 0-2 .896-2 2 0 1.106.896 2 2 2s2-.894 2-2c0-1.104-.896-2-2-2zm0 3c-.552 0-1-.447-1-1 0-.552.448-1 1-1s1 .448 1 1c0 .553-.448 1-1 1z" id="iconFg"/></svg>