<svg xmlns="http://www.w3.org/2000/svg" width="16" height="16"><style type="text/css">.icon-canvas-transparent{opacity:0;fill:#F6F6F6;} .icon-vs-out{fill:#F6F6F6;} .icon-vs-bg{fill:#424242;} .icon-vs-fg{fill:#F0EFF1;}</style><path class="icon-canvas-transparent" d="M16 16h-16v-16h16v16z" id="canvas"/><path class="icon-vs-out" d="M3 16v-5.308c-1.89-1.129-3-2.848-3-4.692 0-3.309 3.589-6 8-6s8 2.691 8 6c0 3.094-3.112 5.648-7.166 5.961l-3.366 4.039h-2.468z" id="outline"/><path class="icon-vs-bg" d="M8 1c-3.866 0-7 2.238-7 5 0 1.698 1.188 3.196 3 4.101v4.899h1l3.344-4.013c3.705-.129 6.656-2.308 6.656-4.987 0-2.762-3.134-5-7-5zm0 1c3.252 0 6 1.832 6 4 0 2.09-2.553 3.879-5.691 3.988l-.447.016-.286.343-2.576 3.091v-3.956l-.553-.276c-1.532-.765-2.447-1.963-2.447-3.206 0-2.168 2.748-4 6-4" id="iconBg"/><path class="icon-vs-fg" d="M8 2c3.252 0 6 1.832 6 4 0 2.09-2.553 3.879-5.691 3.988l-.447.016-.286.343-2.576 3.091v-3.956l-.553-.276c-1.532-.765-2.447-1.963-2.447-3.206 0-2.168 2.748-4 6-4" id="iconFg"/></svg>