<svg xmlns="http://www.w3.org/2000/svg" viewBox="0 0 16 16"><style>.icon-canvas-transparent{opacity:0;fill:#f6f6f6}.icon-vs-out{fill:#f6f6f6}.icon-vs-bg{fill:#424242}</style><path class="icon-canvas-transparent" d="M16 16H0V0h16v16z" id="canvas"/><path class="icon-vs-out" d="M12.303 6L16 8.282v4.106L12 15l-4-2.667V12H5.273l1.145 1.148-2.119 2.119L0 10.984v-.939l4.298-4.297 2.12 2.12L5.29 9H8v-.616L11.697 6H11V4H9v2H5.277c-.621 0-1.045-.456-1.204-1.245l-.005-.029A3.821 3.821 0 0 1 4 4c0-1.654 1.346-3 3-3h6c1.654 0 3 1.346 3 3 0 .522-.087.95-.242 1.279-.016.033-.031.065-.048.095a1.38 1.38 0 0 1-.231.323 1.023 1.023 0 0 1-.387.234 1.085 1.085 0 0 1-.369.069h-2.42z" id="outline"/><path class="icon-vs-bg" d="M11.277 3H8v2H5.277C5.105 5 5 4.365 5 4a2 2 0 0 1 2-2h6a2 2 0 0 1 2 2c0 .365-.106 1-.277 1H12V3h-.723zM9.901 8.398L12 9.798l2.099-1.399L12 7 9.901 8.398zM9 9v3l3 2 3-2V9l-3 2-3-2zM5.005 7.87l-.707-.707-3.352 3.352 3.352 3.34.707-.707L2.865 11H7v-1H2.882l2.123-2.13z" id="iconBg"/></svg>