<svg xmlns="http://www.w3.org/2000/svg" width="16" height="16"><style type="text/css">.icon-canvas-transparent{opacity:0;fill:#F6F6F6;} .icon-vs-out{fill:#F6F6F6;} .icon-vs-bg{fill:#424242;} .icon-vs-fg{fill:#F0EFF1;}</style><path class="icon-canvas-transparent" d="M16 16h-16v-16h16v16z" id="canvas"/><path class="icon-vs-out" d="M3 16v-4h-.414l-2.586-2.586v-6.828l2.586-2.586h10.828l2.586 2.586v6.828l-2.586 2.586h-4.914l-3 4h-2.5z" id="outline"/><path class="icon-vs-bg" d="M13 1h-10l-2 2v6l2 2h1v4h1l3-4h5l2-2v-6l-2-2zm1 7.586l-1.414 1.414h-5.086l-2.5 3.333v-3.333h-1.586l-1.414-1.414v-5.172l1.415-1.414h9.171l1.414 1.414v5.172z" id="iconBg"/><path class="icon-vs-fg" d="M12.586 2l1.414 1.414v5.172l-1.414 1.414h-5.086l-2.5 3.333v-3.333h-1.586l-1.414-1.414v-5.172l1.415-1.414h9.171z" id="iconFg"/></svg>