<svg xmlns="http://www.w3.org/2000/svg" width="16" height="16"><style type="text/css">.icon-canvas-transparent{opacity:0;fill:#F6F6F6;} .icon-vs-bg{fill:#424242;} .st0{fill:#CEE7CE;}</style><path class="icon-canvas-transparent" d="M16 16h-16v-16h16v16z" id="canvas"/><path class="icon-vs-bg" d="M10 3h-2v2h-1c-1.104 0-2-.896-2-2 0-.366.105-.705.277-1h-1.25c-1.223.911-2.027 2.356-2.027 4 0 2.762 2.239 5 5 5h1v2h2l5-5-5-5zm-.414 9h-.586v-2h-2c-2.206 0-4-1.794-4-4 0-.992.365-1.923 1.021-2.649.174 1.489 1.443 2.649 2.979 2.649h2v-2h.586l4 4-4 4z" id="outline"/><path class="st0" d="M4.021 3.351c.174 1.489 1.443 2.649 2.979 2.649h2v-2h.586l4 4-4 4h-.586v-2h-2c-2.206 0-4-1.794-4-4 0-.992.365-1.923 1.021-2.649" id="iconBg"/></svg>