<svg xmlns="http://www.w3.org/2000/svg" width="16" height="16"><style type="text/css">.icon-canvas-transparent{opacity:0;fill:#F6F6F6;} .icon-vs-out{fill:#F6F6F6;} .icon-vs-bg{fill:#424242;} .icon-vs-fg{fill:#F0EFF1;}</style><path class="icon-canvas-transparent" d="M16 16h-16v-16h16v16z" id="canvas"/><path class="icon-vs-out" d="M3.586 13l-2.586-2.586v-4.828l2.586-2.586h9.828l2.586 2.586v4.828l-2.586 2.586h-9.828z" id="outline"/><path class="icon-vs-bg" d="M13 4h-9l-2 2v4l2 2h9l2-2v-4l-2-2zm-5.293 6l-.707.707-2.707-2.707 2.707-2.707.707.707-2 2 2 2zm2.293.707l-.707-.707 2-2-2-2 .707-.707 2.707 2.707-2.707 2.707z" id="iconBg"/><path class="icon-vs-fg" d="M7 10.707l-2.707-2.707 2.707-2.707.707.707-2 2 2 2-.707.707zm5.707-2.707l-2.707-2.707-.707.707 2 2-2 2 .707.707 2.707-2.707z" id="iconFg"/></svg>