<svg xmlns="http://www.w3.org/2000/svg" width="16" height="16"><style type="text/css">.icon-canvas-transparent{opacity:0;fill:#F6F6F6;} .icon-vs-out{fill:#F6F6F6;} .icon-vs-bg{fill:#424242;}</style><path class="icon-canvas-transparent" d="M16 16h-16v-16h16v16z" id="canvas"/><path class="icon-vs-out" d="M10 11v-2h-4v2h-4.987l-.3-.398c-.467-.617-.713-1.344-.713-2.102 0-1.93 1.57-3.5 3.5-3.5h9c1.93 0 3.5 1.57 3.5 3.5 0 .758-.246 1.485-.713 2.102l-.3.398h-4.987z" id="outline"/><path class="icon-vs-bg" d="M15 8.5c0 .565-.194 1.081-.511 1.5h-3.489v-2h-6v2h-3.489c-.317-.419-.511-.935-.511-1.5 0-1.381 1.119-2.5 2.5-2.5h9c1.381 0 2.5 1.119 2.5 2.5z" id="iconBg"/></svg>