<svg xmlns="http://www.w3.org/2000/svg" width="16" height="16"><style type="text/css">.icon-canvas-transparent{opacity:0;fill:#F6F6F6;} .icon-vs-out{fill:#F6F6F6;} .icon-vs-bg{fill:#424242;} .icon-vs-fg{fill:#F0EFF1;}</style><path class="icon-canvas-transparent" d="M16 16h-16v-16h16v16z" id="canvas"/><path class="icon-vs-out" d="M16 7.279c0 1.888-1.402 3.466-3.261 3.669l-.196.02-3.758.002c-.385.883-1.267 1.502-2.29 1.502-.273 0-.535-.047-.781-.127.174.34.281.719.281 1.127 0 1.379-1.122 2.5-2.498 2.5-1.377 0-2.498-1.121-2.498-2.5s1.121-2.5 2.498-2.5c.274 0 .534.057.781.139l-.073-.141h-.387c-2.156-.074-3.818-1.801-3.818-3.933 0-1.608.943-3.013 2.362-3.621.49-1.988 2.248-3.416 4.331-3.416 1.141 0 2.207.426 3.022 1.188.296-.077.602-.117.909-.117 1.775 0 3.255 1.303 3.552 3.012 1.113.653 1.824 1.867 1.824 3.196z" id="outline"/><path class="icon-vs-bg" d="M4.986 13.472c0 .828-.671 1.5-1.5 1.5s-1.5-.672-1.5-1.5.671-1.5 1.5-1.5 1.5.672 1.5 1.5zm10.014-6.193c0 1.381-1.03 2.528-2.372 2.675l-.149.016h-4.524v.002h.031c0 .828-.671 1.5-1.5 1.5s-1.5-.672-1.5-1.5h.031v-.002h-1.21c-1.566-.055-2.821-1.356-2.821-2.933 0-1.393.962-2.563 2.247-2.861.173-1.781 1.656-3.176 3.453-3.176 1.109 0 2.104.524 2.74 1.361.36-.188.767-.29 1.193-.29 1.439 0 2.609 1.187 2.609 2.644v.025c1.032.371 1.772 1.369 1.772 2.539zm-1-.012c0-.933-.742-1.69-1.658-1.69-.135 0-.264.021-.387.052.172-.263.273-.579.273-.919 0-.906-.721-1.641-1.609-1.641-.687 0-1.268.44-1.5 1.057-.187-1.204-1.201-2.126-2.433-2.126-1.364 0-2.469 1.127-2.469 2.519 0 .218.035.424.086.625-.135-.031-.273-.052-.42-.052-1.047 0-1.896.865-1.896 1.934 0 1.06.836 1.915 1.871 1.931v.002h8.564v-.009c.879-.045 1.578-.778 1.578-1.683z" id="iconBg"/><path class="icon-vs-fg" d="M3.857 8.962c-1.035-.016-1.871-.871-1.871-1.931 0-1.068.85-1.934 1.896-1.934.146 0 .285.02.42.052-.05-.201-.085-.407-.085-.625 0-1.392 1.105-2.519 2.469-2.519 1.232 0 2.246.922 2.434 2.125.232-.616.813-1.057 1.5-1.057.889 0 1.609.734 1.609 1.641 0 .34-.102.656-.273.919.123-.031.252-.052.387-.052.915.001 1.657.759 1.657 1.691 0 .905-.699 1.639-1.578 1.684v.008h-8.565v-.002z" id="iconFg"/></svg>