<svg xmlns="http://www.w3.org/2000/svg" viewBox="0 0 16 16"><style>.icon-canvas-transparent{opacity:0;fill:#f6f6f6}.icon-vs-out{fill:#f6f6f6}.icon-vs-bg{fill:#424242}.icon-vs-fg{fill:#f0eff1}</style><path class="icon-canvas-transparent" d="M16 16H0V0h16v16z" id="canvas"/><path class="icon-vs-out" d="M6 16V9h1.586l1-1h4.828l1 1H16v7H6z" id="outline"/><path class="icon-vs-bg" d="M12.25 12c0 .689-.561 1.25-1.25 1.25S9.75 12.689 9.75 12s.561-1.25 1.25-1.25 1.25.561 1.25 1.25zM15 10v5H7v-5h1l1-1h4l1 1h1zm-2 2a2 2 0 1 0-3.999-.001A2 2 0 0 0 13 12z" id="iconBg"/><g id="iconFg"><path class="icon-vs-fg" d="M11 10.75c.689 0 1.25.561 1.25 1.25s-.561 1.25-1.25 1.25-1.25-.561-1.25-1.25.561-1.25 1.25-1.25m0-.75a2 2 0 1 0-.001 3.999A2 2 0 0 0 11 10z"/></g></svg>