<svg xmlns="http://www.w3.org/2000/svg" viewBox="0 0 16 16"><style>.icon-canvas-transparent{opacity:0;fill:#f6f6f6}.icon-vs-out{fill:#f6f6f6}.icon-vs-bg{fill:#424242}</style><path class="icon-canvas-transparent" d="M16 0v16H0V0h16z" id="canvas"/><path class="icon-vs-out" d="M16 6.961v1.035l-2.447 2.447A6.997 6.997 0 0 1 0 8a7 7 0 1 1 13.706-2h.047l.643-.643L16 6.961z" id="outline"/><path class="icon-vs-bg" d="M11.986 8.154C11.988 8.102 12 8.052 12 8c0-2.757-2.243-5-5-5S2 5.243 2 8s2.243 5 5 5c1.39 0 2.682-.558 3.637-1.568l.727.686A5.949 5.949 0 0 1 7 14c-3.309 0-6-2.691-6-6s2.691-6 6-6 6 2.691 6 6c0 .062-.015.123-.017.185l1.413-1.413.707.707-2.603 2.603-2.604-2.603.707-.707 1.383 1.382zM5 8a2 2 0 1 0 3.999.001A2 2 0 0 0 5 8z" id="iconBg"/></svg>