<svg xmlns="http://www.w3.org/2000/svg" viewBox="0 0 16 16"><style>.icon-canvas-transparent{opacity:0;fill:#f6f6f6}.icon-vs-out{fill:#f6f6f6}.icon-vs-bg{fill:#424242}.icon-vs-fg{fill:#f0eff1}</style><path class="icon-canvas-transparent" d="M16 16H0V0h16v16z" id="canvas"/><path class="icon-vs-out" d="M0 15V3h3.871l1-1h6.243l1 1H16v12H0z" id="outline"/><path class="icon-vs-fg" d="M10 9c0 1.103-.897 2-2 2s-2-.897-2-2 .897-2 2-2 2 .897 2 2zm4-4v8H2V5h2.699l1-1h4.586l1 1H14zM4.992 6.492a.492.492 0 1 0-.983 0 .492.492 0 0 0 .983 0zM11 9c0-1.654-1.346-3-3-3S5 7.346 5 9s1.346 3 3 3 3-1.346 3-3z" id="iconFg"/><path class="icon-vs-bg" d="M15 14H1V4h3.285l1-1h5.414l1 1H15v10zM2 13h12V5h-2.715l-1-1H5.699l-1 1H2v8zm6-1c-1.654 0-3-1.346-3-3s1.346-3 3-3 3 1.346 3 3-1.346 3-3 3zm0-5c-1.103 0-2 .897-2 2s.897 2 2 2 2-.897 2-2-.897-2-2-2zM4.5 6a.492.492 0 1 0 0 .983.492.492 0 0 0 0-.983z" id="iconBg"/></svg>