<svg xmlns="http://www.w3.org/2000/svg" viewBox="0 0 16 16"><style>.icon-canvas-transparent{opacity:0;fill:#f6f6f6}.icon-vs-out{fill:#f6f6f6}.icon-vs-fg{fill:#f0eff1}.icon-vs-bg-disabled{fill:#848484}</style><path class="icon-canvas-transparent" d="M16 16H0V0h16v16z" id="canvas"/><path class="icon-vs-out" d="M0 15V3h3.871l1-1h6.243l1 1H16v12H0z" id="outline"/><path class="icon-vs-fg" d="M4.992 5.992a.992.992 0 1 0-1.984 0 .992.992 0 0 0 1.984 0zM8 6C6.346 6 5 7.346 5 9s1.346 3 3 3 3-1.346 3-3-1.346-3-3-3zm0 5c-1.103 0-2-.898-2-2 0-1.103.897-2 2-2s2 .897 2 2c0 1.102-.897 2-2 2z" id="iconFg"/><g id="iconBg"><path class="icon-vs-bg-disabled" d="M10 9c0 1.103-.897 2-2 2s-2-.897-2-2 .897-2 2-2 2 .897 2 2zm5-5v10H1V4h3.285l1-1h5.414l1 1H15zM4.992 5.992a.992.992 0 1 0-1.984 0 .992.992 0 0 0 1.984 0zM11 9c0-1.654-1.346-3-3-3S5 7.346 5 9s1.346 3 3 3 3-1.346 3-3z"/></g></svg>