<svg xmlns="http://www.w3.org/2000/svg" viewBox="0 0 16 16"><style>.icon-canvas-transparent{opacity:0;fill:#f6f6f6}.icon-vs-out{fill:#f6f6f6}.icon-vs-bg{fill:#424242}.icon-vs-action-red{fill:#a1260d}</style><path class="icon-canvas-transparent" d="M16 16H0V0h16v16z" id="canvas"/><path class="icon-vs-out" d="M16 4v12H2V8.414l-2-2v-.828L1.556 4.03 0 2.475v-.829L1.646 0h.828L4.03 1.556 5.586 0h.828l2.061 2.061L6.535 4H16z" id="outline"/><path class="icon-vs-bg" d="M13 7v2.939l-1.593-2.23a.498.498 0 0 0-.831.026l-2.614 3.382L6.899 9.7a.493.493 0 0 0-.363-.198.492.492 0 0 0-.39.145L5 10.793V7.475l1 1L7.475 7H13zm0 4.66l-1.972-2.761-2.604 3.367a.5.5 0 0 1-.403.234.485.485 0 0 1-.42-.2l-1.154-1.538L5 12.207V13h8v-1.34zM7.475 5l1 1H14v8H4V6.535l-1 1V15h12V5H7.475z" id="iconBg"/><g id="colorAction"><path class="icon-vs-action-red" d="M5.091 4.03L7.061 6 6 7.061l-1.97-1.97-1.97 1.97L1 6l1.97-1.97L1 2.06 2.061 1l1.97 1.97L6 1l1.061 1.06-1.97 1.97z"/></g></svg>