<svg xmlns="http://www.w3.org/2000/svg" viewBox="0 0 16 16"><style>.icon-canvas-transparent{opacity:0;fill:#f6f6f6}.icon-vs-out{fill:#f6f6f6}.icon-vs-bg{fill:#424242}.icon-vs-action-red{fill:#a1260d}</style><path class="icon-canvas-transparent" d="M16 16H0V0h16v16z" id="canvas"/><path class="icon-vs-out" d="M14 11V8h-4V7h2V2H8.354l-2-2h-.829L3.97 1.556 2.414 0h-.828L0 1.586v.949L1.495 4.03 0 5.525v.949l2 2 1.97-1.97L5.465 8H3v3H1v5h7v-5h1v5h7v-5h-2zM7 8h-.586L7 7.414V8z" id="outline"/><path class="icon-vs-bg" d="M15 12v3h-5v-3h2v-2H5v2h2v3H2v-3h2V9h4V6.414L8.414 6l-1.97-1.97L7.475 3H11v3H9v3h4v3h2z" id="iconBg"/><path class="icon-vs-action-red" d="M5.03 4.03L7 6 5.939 7.061l-1.97-1.97L2 7.061.939 6l1.97-1.97-1.97-1.97L2 1l1.97 1.97L5.939 1 7 2.06 5.03 4.03z" id="colorAction"/></svg>