<svg xmlns="http://www.w3.org/2000/svg" width="16" height="16"><style>.icon-canvas-transparent{opacity:0;fill:#f6f6f6}.icon-vs-out{fill:#f6f6f6}.icon-vs-bg{fill:#424242}.icon-vs-action-red{fill:#a1260d}</style><path class="icon-canvas-transparent" d="M16 16H0V0h16v16z" id="canvas"/><path class="icon-vs-out" d="M16 14H9.414l-2 2h-.242l-2-2h-.344l-2 2h-.242L0 13.414v-.242l2-2v-.344l-2-2v-.242l2-2V0h14v14z" id="outline"/><path class="icon-vs-bg" d="M4 5H3V1h4v1H4v3zm7-4v1h3v3h1V1h-4zm3 11h-3v1h4V9h-1v3zM6 7.172l1.293-1.293 2.828 2.828L7.828 11H12V3H6v4.172z" id="iconBg"/><path class="icon-vs-action-red" d="M6.414 11l2.293 2.293-1.414 1.414L5 12.414l-2.293 2.293-1.414-1.414L3.586 11 1.293 8.707l1.414-1.414L5 9.586l2.293-2.293 1.414 1.414L6.414 11z" id="iconFg"/></svg>