<svg xmlns="http://www.w3.org/2000/svg" viewBox="0 0 16 16"><style>.icon-canvas-transparent{opacity:0;fill:#f6f6f6}.icon-vs-out{fill:#f6f6f6}.icon-vs-bg{fill:#424242}.icon-vs-action-red{fill:#a1260d}</style><path class="icon-canvas-transparent" d="M16 16H0V0h16v16z" id="canvas"/><path class="icon-vs-out" d="M13 0v1h-3v3H8v1.525L6.505 4.03l1.97-1.97L6.414 0h-.828L4.03 1.556 2.475 0h-.829L0 1.646v.828L1.556 4.03 0 5.586v.828L.586 7H0v9h16V0h-3zM4.03 6.505L4.525 7h-.99l.495-.495zM7.475 7L8 6.475V7h-.525z" id="outline"/><path class="icon-vs-bg" d="M11 7H9V5h2v2zm-2 6h2v-2H9v2zm2-3h2V8h-2v2zm2-8h-2v2h2V2zm-6 9H5v2h2v-2zm7-10v13H2V8.414L1.586 8H1v7h14V1h-1zM5 8H3v2h2V8zm2 2h2V8H7v2z" id="iconBg"/><g id="colorAction"><path class="icon-vs-action-red" d="M5.091 4.03L7.061 6 6 7.061l-1.97-1.97-1.97 1.97L1 6l1.97-1.97L1 2.06 2.061 1l1.97 1.97L6 1l1.061 1.06-1.97 1.97z"/></g></svg>