<svg xmlns="http://www.w3.org/2000/svg" width="16" height="16"><style type="text/css">.icon-canvas-transparent{opacity:0;fill:#F6F6F6;} .icon-vs-out{fill:#F6F6F6;} .icon-vs-bg{fill:#424242;} .icon-vs-fg{fill:#F0EFF1;}</style><path class="icon-canvas-transparent" d="M16 16h-16v-16h16v16z" id="canvas"/><path class="icon-vs-out" d="M16 0v15h-16v-15h16z" id="outline"/><path class="icon-vs-bg" d="M1 1v13h14v-13h-14zm13 12h-12v-11h12v11zm-9-4h-1v-4h1v-2h1v2h1v4h-1v2h-1v-2zm5 2h-1v-4h1v-3h1v3h1v4h-1v1h-1v-1z" id="iconBg"/><path class="icon-vs-fg" d="M2 2v11h12v-11h-12zm5 7h-1v2h-1v-2h-1v-4h1v-2h1v2h1v4zm5 2h-1v1h-1v-1h-1v-4h1v-3h1v3h1v4z" id="iconFg"/></svg>