<svg xmlns="http://www.w3.org/2000/svg" width="16" height="16"><style type="text/css">.icon-vs-out{fill:#F6F6F6;} .icon-vs-bg{fill:#424242;} .icon-vs-fg{fill:#F0EFF1;} .icon-canvas-transparent{opacity:0;fill:#F6F6F6;}</style><path class="icon-canvas-transparent" d="M16 16h-16v-16h16v16z" id="canvas"/><path class="icon-vs-out" d="M16 16h-16v-16h16v16z" id="outline"/><path class="icon-vs-bg" d="M1 1v14h14v-14h-14zm13 13h-12v-12h12v12zm-7-1h6v-4h-6v4zm1-3h4v2h-4v-2zm0-3l1-1v-2l-1-1h-4l-1 1v2l1 1h4zm-4-3h4v2h-4v-2z" id="iconBg"/><path class="icon-vs-fg" d="M2 14h12v-12h-12v12zm11-1h-6v-4h6v4zm-10-9l1-1h4l1 1v2l-1 1h-4l-1-1v-2zm9 8h-4v-2h4v2zm-4-6h-4v-2h4v2z" id="iconFg"/></svg>