<svg xmlns="http://www.w3.org/2000/svg" width="16" height="16"><style type="text/css">.icon-canvas-transparent{opacity:0;fill:#F6F6F6;} .icon-vs-bg{fill:#424242;} .icon-vs-fg{fill:#F0EFF1;}</style><path class="icon-canvas-transparent" d="M16 16h-16v-16h16v16z" id="canvas"/><path class="icon-vs-bg" d="M14 1h-12c-1.104 0-2 .896-2 2v9c0 1.104.896 2 2 2h12c1.104 0 2-.896 2-2v-9c0-1.104-.896-2-2-2zm-7 4.718c-.433-.271-.921-.405-1.467-.405-.582 0-1.055.188-1.422.561-.395.403-.59.957-.59 1.662 0 .654.174 1.176.521 1.564.35.389.819.584 1.41.584.563 0 1.08-.146 1.547-.435v1.393c-.466.239-1.079.358-1.832.358-1.015 0-1.805-.324-2.371-.973-.53-.603-.796-1.398-.796-2.382 0-1.09.318-1.969.953-2.639.635-.671 1.455-1.006 2.463-1.006.625 0 1.151.084 1.584.25v1.468zm7 0c-.433-.271-.921-.405-1.467-.405-.582 0-1.055.188-1.422.561-.395.403-.59.957-.59 1.662 0 .654.174 1.176.522 1.564.35.389.819.584 1.41.584.563 0 1.08-.146 1.547-.435v1.393c-.467.239-1.08.358-1.833.358-1.015 0-1.805-.324-2.371-.973-.53-.603-.796-1.398-.796-2.382 0-1.09.318-1.969.953-2.639.635-.671 1.455-1.006 2.463-1.006.625 0 1.151.084 1.584.25v1.468z" id="iconBg"/><path class="icon-vs-fg" d="M7 10.642c-.467.239-1.08.358-1.833.358-1.015 0-1.805-.324-2.371-.973-.53-.603-.796-1.398-.796-2.382 0-1.09.318-1.969.953-2.639.635-.671 1.455-1.006 2.463-1.006.625 0 1.151.084 1.584.25v1.468c-.433-.271-.921-.405-1.467-.405-.582 0-1.055.188-1.422.561-.395.403-.59.957-.59 1.662 0 .654.174 1.176.521 1.564.35.389.819.584 1.41.584.563 0 1.08-.146 1.547-.435v1.393zm7 0c-.467.239-1.08.358-1.833.358-1.015 0-1.805-.324-2.371-.973-.53-.603-.796-1.398-.796-2.382 0-1.09.318-1.969.953-2.639.635-.671 1.455-1.006 2.463-1.006.625 0 1.151.084 1.584.25v1.468c-.433-.271-.921-.405-1.467-.405-.582 0-1.055.188-1.422.561-.395.403-.59.957-.59 1.662 0 .654.174 1.176.522 1.564.35.389.819.584 1.41.584.563 0 1.08-.146 1.547-.435v1.393z" id="iconFg"/></svg>