<svg xmlns="http://www.w3.org/2000/svg" width="16" height="16"><style type="text/css">.icon-canvas-transparent{opacity:0;fill:#F6F6F6;} .icon-vs-out{fill:#F6F6F6;} .icon-vs-bg{fill:#424242;} .icon-vs-fg{fill:#F0EFF1;} .icon-vs-action-orange{fill:#C27D1A;}</style><path class="icon-canvas-transparent" d="M16 16h-16v-16h16v16z" id="canvas"/><path class="icon-vs-out" d="M15 3h1v3h-1l1 1-1 1v3.414l-1.586 1.586h-9.828l-1.586-1.586v-5.828l1.586-1.586h2l1-1h1.414l-1-1 2-2 1 1v-1h3v1l1-1 2 2-1 1z" id="outline"/><path class="icon-vs-bg" d="M13 5h-2l-1-1h-3l-1 1h-2l-1 1v5l1 1h9l1-1v-5l-1-1zm-4.5 6c-1.38 0-2.5-1.119-2.5-2.5s1.12-2.5 2.5-2.5c1.381 0 2.5 1.119 2.5 2.5s-1.119 2.5-2.5 2.5zm4.5-4h-1v-1h1v1zm-3 1.5c0 .828-.672 1.5-1.5 1.5s-1.5-.672-1.5-1.5.672-1.5 1.5-1.5 1.5.672 1.5 1.5z" id="iconBg"/><path class="icon-vs-fg" d="M8.5 6c-1.38 0-2.5 1.119-2.5 2.5s1.12 2.5 2.5 2.5c1.381 0 2.5-1.119 2.5-2.5s-1.119-2.5-2.5-2.5zm0 4c-.828 0-1.5-.672-1.5-1.5s.672-1.5 1.5-1.5 1.5.672 1.5 1.5-.672 1.5-1.5 1.5zm4.5-3h-1v-1h1v1z" id="iconFg"/><path class="icon-vs-action-orange" d="M12.511 2.782l1.11-1.111.708.708-1.111 1.111c-.173-.293-.415-.535-.707-.708zm-.511-.212v-1.57h-1v1.57c.161-.041.326-.07.5-.07s.339.029.5.07zm-1.792.43l.281-.218-1.11-1.111-.708.707.622.622h.915zm3.221 1l.003.017.982.983h.586v-1h-1.571z" id="colorAction"/></svg>