<svg xmlns="http://www.w3.org/2000/svg" width="16" height="16"><style type="text/css">.icon-canvas-transparent{opacity:0;fill:#F6F6F6;} .icon-vs-out{fill:#F6F6F6;} .icon-vs-bg{fill:#424242;} .icon-vs-fg{fill:#F0EFF1;}</style><path class="icon-canvas-transparent" d="M16 16h-16v-16h16v16z" id="canvas"/><path class="icon-vs-out" d="M16 2v13h-15v-15h13v2h2z" id="outline"/><path class="icon-vs-bg" d="M2 3v11h13v-11h-13zm4 10h-3v-2h3v2zm0-3h-3v-2h3v2zm0-3h-3v-2h3v2zm4 6h-3v-2h3v2zm0-3h-3v-2h3v2zm0-3h-3v-2h3v2zm4 6h-3v-2h3v2zm0-3h-3v-2h3v2zm0-3h-3v-2h3v2zm-1-5h-11v-1h11v1z" id="iconBg"/><path class="icon-vs-fg" d="M3 11h3v2h-3v-2zm0-1h3v-2h-3v2zm3-5h-3v2h3v-2zm1 5h3v-2h-3v2zm4 3h3v-2h-3v2zm3-5h-3v2h3v-2zm-3-1h3v-2h-3v2zm-4 6h3v-2h-3v2zm3-8h-3v2h3v-2z" id="iconFg"/></svg>