<svg xmlns="http://www.w3.org/2000/svg" width="16" height="16"><style type="text/css">.icon-canvas-transparent{opacity:0;fill:#F6F6F6;} .icon-vs-out{fill:#F6F6F6;} .icon-vs-bg{fill:#424242;}</style><path class="icon-canvas-transparent" d="M16 16h-16v-16h16v16z" id="canvas"/><path class="icon-vs-out" d="M0 5h2v-2h3v-1h6v1h3v2h2v6h-2v2h-3v1h-6v-1h-3v-2h-2v-6z" id="outline"/><path class="icon-vs-bg" d="M15 10h-1v-4h1v4zm-2-6h-2v8h2v-8zm-3-1h-4v10h4v-10zm-5 1h-2v8h2v-8zm-3 2h-1v4h1v-4z" id="iconBg"/></svg>