<svg xmlns="http://www.w3.org/2000/svg" width="16" height="16"><style type="text/css">.icon-canvas-transparent{opacity:0;fill:#F6F6F6;} .icon-vs-out{fill:#F6F6F6;} .icon-vs-bg{fill:#424242;} .icon-vs-fg{fill:#F0EFF1;}</style><path class="icon-canvas-transparent" d="M16 16h-16v-16h16v16z" id="canvas"/><path class="icon-vs-out" d="M16 8v6h-15v-5h-1v-6h15v5h1z" id="outline"/><path class="icon-vs-bg" d="M14 4h-13v4h13v-4zm-5 3h-7v-2h7v2zm2.501 0l-1.501-2h3l-1.499 2zm-9.501 2v4h13v-4h-13zm8 3h-7v-2h7v2zm2.501 0l-1.501-2h3l-1.499 2z" id="iconBg"/><path class="icon-vs-fg" d="M2 5h7v2h-7v-2zm9.501 2l1.499-2h-3l1.501 2zm1 5l1.499-2h-3l1.501 2zm-9.501 0h7v-2h-7v2z" id="iconFg"/></svg>