<svg xmlns="http://www.w3.org/2000/svg" width="16" height="16"><style type="text/css">.icon-canvas-transparent{opacity:0;fill:#F6F6F6;} .icon-vs-out{fill:#F6F6F6;} .icon-vs-bg{fill:#424242;} .icon-vs-fg{fill:#F0EFF1;}</style><path class="icon-canvas-transparent" d="M16 16h-16v-16h16v16z" id="canvas"/><path class="icon-vs-out" d="M16 14h-5.229l-.186.143c-.343.238-.726.364-1.121.364-.387 0-.73-.096-1.022-.284-.096-.063-.183-.141-.267-.223h-.72c-.163.135-.321.248-.472.319-.274.126-.557.188-.851.188-.526 0-.868-.222-1.063-.407l-.072-.1h-.373l-.102.218c-.32.58-.707 1.019-1.155 1.311-.472.312-1.02.471-1.624.471-.487 0-.885-.121-1.185-.358-.357-.281-.558-.679-.558-1.119 0-.407.173-.783.486-1.06.116-.103.29-.212.514-.289v-13.174h15v14z" id="outline"/><path class="icon-vs-bg" d="M6 11.541v-.674l.579-.11.2-.059.178.56-.301.352c-.172-.059-.339-.087-.506-.087l-.15.018zm4.106-.598l.107.309.156-.21.631.356v-.498c-.148.05-.302.091-.464.091-.136-.001-.276-.016-.43-.048zm-8.106-.297v1.622l.427-1.622h-.427zm13-9.646v12h-3.37l.019-.026.568-.891-.148-.083h1.931v-2h-2.091c.051-.154.091-.313.091-.486 0-.2-.039-.365-.091-.514h2.091v-2h-3v1.113c-.148-.048-.314-.085-.514-.085-.309 0-.604.072-.882.218-.136.071-.274.17-.421.302l-.342-.52h-.748c.04-.141.061-.29.061-.446 0-.474-.201-.898-.559-1.19-.314-.26-.74-.392-1.266-.392-.659 0-1.264.19-1.795.564-.173.121-.337.271-.497.436h-1.037v1.131l-.501-.006-.499 1.71v-8.835h13zm-9 3h-3v2h3v-2zm8 0h-3v2h3v-2zm-3.514 5.028c-.146 0-.285.034-.416.103-.13.068-.296.217-.497.443-.149.17-.372.465-.666.889-.117-.521-.317-1-.605-1.435h-1.911v.746l.607-.353c.157 0 .285.066.388.197.162.204.388.824.676 1.862-.226.295-.653.79-.737.88-.138.146-.253.24-.342.283-.068.037-.147.054-.234.054-.065 0-.175-.034-.324-.106-.102-.045-.193-.069-.274-.069-.153 0-.279.049-.379.146-.1.096-.147.217-.147.367 0 .139.045.252.138.342.09.086.215.13.371.13.149 0 .291-.03.423-.091.132-.063.297-.192.497-.393.2-.199.748-.818 1.099-1.253.135.413.396 1.019.494 1.206.099.187.212.322.34.406.127.082.287.124.479.124.187 0 .375-.063.566-.196.252-.168.511-.461.775-.875l-.161-.091c-.182.243-.315.398-.401.459-.057.038-.125.058-.204.058-.092 0-.184-.058-.274-.173-.153-.191-.499-1.026-.754-1.901.228-.392.42-.646.575-.766.115-.088.235-.131.361-.131l.258.049c.126.033.235.051.331.051.132 0 .244-.045.332-.133.087-.089.13-.204.13-.343 0-.148-.043-.268-.132-.354-.088-.089-.216-.132-.382-.132zm-5.458.107c.186-.739.432-1.279.739-1.619.186-.213.367-.318.545-.318l.087.029.035.08-.076.166c-.048.081-.074.158-.074.231 0 .103.039.19.117.263.079.072.177.109.297.109.129 0 .237-.045.323-.135.088-.088.132-.209.132-.359 0-.173-.064-.313-.196-.42-.131-.108-.341-.162-.628-.162-.45 0-.858.128-1.224.385-.367.256-.714.68-1.044 1.273-.115.203-.223.335-.325.393-.103.059-.266.087-.49.084l-.149.511h.627l-.919 3.496c-.152.574-.257.928-.312 1.061-.076.194-.196.361-.355.499-.063.056-.138.085-.229.085l-.064-.023-.022-.03.068-.089c.045-.045.068-.115.068-.207 0-.102-.037-.188-.109-.254-.071-.068-.175-.102-.309-.102-.164 0-.293.043-.394.132-.098.087-.147.19-.147.309 0 .129.06.24.181.335.119.095.306.142.562.142.404 0 .764-.102 1.077-.309.314-.205.587-.523.822-.95.232-.429.474-1.12.72-2.075l.527-2.02h.634l.158-.512h-.653z" id="iconBg"/><path class="icon-vs-fg" d="M3 4h3v2h-3v-2zm2.382 7.719c.185-.106.396-.158.618-.178v-.674l-.417.08-.201.772zm-2.382-3.588l.208.002c.26-.461.536-.831.829-1.133h-1.037v1.131zm8-4.131v2h3v-2h-3zm0 4.113c.259.084.452.216.575.339.118.116.249.301.334.548h2.091v-2h-3v1.113zm.579 2.448c-.164.164-.365.269-.579.339v.498l1.069.602h1.931v-2h-2.091c-.07.208-.172.4-.33.561z" id="iconFg"/></svg>