<svg xmlns="http://www.w3.org/2000/svg" width="16" height="16"><style type="text/css">.icon-canvas-transparent{opacity:0;fill:#F6F6F6;} .icon-vs-out{fill:#F6F6F6;} .icon-vs-bg{fill:#424242;} .icon-vs-fg{fill:#F0EFF1;}</style><path class="icon-canvas-transparent" d="M16 16h-16v-16h16v16z" id="canvas"/><path class="icon-vs-out" d="M16 14h-5.229l-.185.143c-.346.238-.727.364-1.122.364-.39 0-.735-.097-1.026-.288-.094-.061-.18-.138-.263-.219h-.72c-.164.136-.322.249-.475.32-.271.125-.555.186-.849.186-.529 0-.872-.224-1.066-.411l-.069-.095h-.372l-.102.218c-.318.578-.705 1.017-1.153 1.311-.476.312-1.023.471-1.626.471-.485 0-.883-.12-1.183-.357-.36-.282-.56-.68-.56-1.12 0-.406.173-.783.486-1.061.116-.102.29-.211.514-.287v-13.175h15v14z" id="outline"/><path class="icon-vs-bg" d="M2 1v8.834l.499-1.709.501.007v-1.132h1.038c.16-.165.324-.315.497-.436.529-.373 1.135-.564 1.794-.564.526 0 .952.132 1.266.393.202.164.347.373.441.607h1.964v1.096c.158-.042.32-.067.486-.067.2 0 .365.037.514.085v-1.114h3v2h-2.091c.052.148.091.313.091.514 0 .173-.04.332-.092.486h2.092v2h-2v.424l-.352.551-.017.025h3.369v-12h-13zm4 5h-3v-2h3v2zm4 0h-3v-2h3v2zm4 0h-3v-2h3v2zm-8.318 3.135l-.159.511h-.633l-.527 2.02c-.246.955-.487 1.646-.72 2.075-.235.427-.508.745-.822.95-.314.207-.674.309-1.078.309-.256 0-.443-.047-.563-.142-.12-.094-.18-.206-.18-.335 0-.119.049-.223.147-.31.101-.089.229-.132.394-.132.134 0 .237.033.309.102.072.066.109.151.109.254 0 .092-.023.162-.068.207l-.068.089.022.03.064.023c.091 0 .166-.029.229-.084.159-.138.279-.305.355-.499.055-.134.159-.487.312-1.061l.919-3.496h-.627l.149-.512c.225.003.388-.025.49-.084.102-.058.21-.189.324-.393.33-.593.678-1.018 1.045-1.273.366-.256.774-.384 1.224-.384.287 0 .497.054.628.162.132.107.196.247.196.42 0 .15-.044.271-.132.359-.086.09-.194.135-.323.135-.12 0-.218-.037-.297-.109-.078-.072-.117-.16-.117-.263 0-.073.025-.15.073-.231l.076-.166-.035-.08-.087-.029c-.178 0-.359.105-.545.318-.306.34-.552.88-.738 1.619h.654zm5.186.024c.089.087.132.206.132.355 0 .14-.043.254-.132.344-.088.088-.2.133-.332.133-.096 0-.205-.018-.331-.051l-.258-.049c-.126 0-.246.043-.361.131-.155.119-.348.374-.575.766.255.875.601 1.711.754 1.901.091.115.183.173.274.173.079 0 .147-.02.204-.058.086-.062.22-.216.401-.459l.161.091c-.265.414-.524.707-.775.875-.191.133-.38.196-.566.196-.192 0-.353-.042-.479-.124-.128-.084-.241-.22-.34-.406-.099-.188-.359-.793-.494-1.206-.351.435-.898 1.054-1.099 1.253-.2.2-.365.33-.497.393-.132.061-.273.091-.423.091-.156 0-.281-.044-.371-.13-.093-.09-.138-.203-.138-.342 0-.15.048-.272.147-.367.1-.097.226-.146.379-.146.081 0 .173.024.274.069.149.072.259.106.324.106.087 0 .166-.017.234-.054.089-.043.204-.137.342-.283.084-.09.512-.585.737-.88-.288-1.038-.514-1.658-.676-1.862-.103-.131-.23-.197-.388-.197l-.607.353v-.747h1.912c.289.435.489.913.606 1.435.294-.424.517-.719.666-.889.201-.226.367-.375.497-.443.131-.068.271-.103.416-.103.166 0 .294.043.382.131zm-4.868 2.382v-.672l.583-.113.195-.057.179.559-.302.352c-.172-.059-.339-.087-.506-.087l-.149.018zm4.536-.551c.161 0 .316-.031.464-.08v.486l-.631-.355-.156.21-.107-.308c.153.032.294.047.43.047zm-8.109-.344l-.427 1.621v-1.621h.427z" id="iconBg"/><path class="icon-vs-fg" d="M14 4v2h-3v-2h3zm-7 2h3v-2h-3v2zm1.153 1.582c0 .166-.022.315-.061.446h.748l.343.519c.145-.129.283-.227.419-.299.128-.067.262-.116.398-.152v-1.096h-1.964c.073.181.117.375.117.582zm-2.771 4.137c.185-.106.396-.158.618-.178v-.672l-.418.082-.2.768zm-2.382-5.719h3v-2h-3v2zm8 2.113c.259.084.452.216.575.339.119.117.249.302.334.548h2.091v-2h-3v1.113zm.577 2.45c-.163.163-.361.277-.577.347v.486l1 .564v.04h2v-2h-2.092c-.069.209-.172.402-.331.563zm-8.577-2.431l.208.003c.26-.463.536-.833.83-1.135h-1.038v1.132z" id="iconFg"/></svg>