<svg xmlns="http://www.w3.org/2000/svg" width="16" height="16"><style type="text/css">.icon-canvas-transparent{opacity:0;fill:#F6F6F6;} .icon-vs-out{fill:#F6F6F6;} .icon-vs-bg{fill:#424242;} .icon-vs-fg{fill:#F0EFF1;}</style><path class="icon-canvas-transparent" d="M16 16h-16v-16h16v16z" id="canvas"/><path class="icon-vs-out" d="M16 14h-5.369c-.339.523-.681.898-1.045 1.143-.346.238-.728.364-1.122.364-.39 0-.735-.097-1.026-.288-.221-.144-.413-.344-.573-.597l-.108.111c-.285.285-.532.474-.775.587-.271.125-.555.186-.849.186-.529 0-.872-.224-1.066-.411-.123-.119-.223-.256-.296-.408-.082.199-.164.376-.248.53-.167.301-.352.559-.553.783h-2.97v-1.825c.155-.053.33-.093.541-.093l.24.017.219-.831v-1.621h-.237l.237-.813v-1.42l-1-1v-2.828l1-1v-4.586h15v14z" id="outline"/><path class="icon-vs-bg" d="M1 8l2.313-2.313c.355.194.755.313 1.187.313 1.381 0 2.5-1.119 2.5-2.5s-1.119-2.5-2.5-2.5-2.5 1.119-2.5 2.5c0 .432.119.832.313 1.188l-2.313 2.312 1 1zm3.5-6c.828 0 1.5.672 1.5 1.5s-.672 1.5-1.5 1.5-1.5-.672-1.5-1.5.672-1.5 1.5-1.5zm.649 10.523c-.279 0-.54.067-.768.196l.188-.719h1.308l.08.258-.302.352c-.172-.059-.339-.087-.506-.087zm1.793-11.523c.651.636 1.058 1.521 1.058 2.5 0 .171-.027.335-.051.5h2.051v2h-3v-.058c-.636.651-1.521 1.058-2.5 1.058h1.5v.093c.227.065.429.162.595.3.175.142.31.316.405.512v-.905h3v2h-2.903l-.004.028h.747l.343.519c.145-.129.283-.227.419-.299.28-.146.576-.22.885-.22.55 0 .895.23 1.089.424.19.188.424.529.424 1.062v-.514h3v2h-3v-1.486c0 .408-.146.772-.423 1.049-.163.163-.361.277-.577.347v.09h-.874l.087.251.156-.21 1.631.92v.039h4v-12h-8.058zm7.058 8h-3v-2h3v2zm0-3h-3v-2h3v2zm-12 3.132v-.718l1-1v.626c-.279.295-.543.652-.792 1.095l-.208-.003zm7.645 4.213l.161.091c-.265.414-.523.707-.775.875-.191.133-.38.196-.566.196-.192 0-.353-.042-.479-.124-.128-.084-.241-.22-.34-.406-.099-.188-.359-.793-.494-1.206-.351.435-.898 1.054-1.099 1.253-.2.2-.365.33-.497.393-.132.061-.273.091-.423.091-.156 0-.281-.044-.371-.13-.093-.09-.138-.203-.138-.342 0-.15.048-.272.147-.367.1-.097.226-.146.379-.146.081 0 .173.024.274.069.149.072.259.106.324.106.087 0 .166-.017.234-.054.089-.043.204-.137.342-.283.084-.09.512-.585.737-.88-.288-1.038-.514-1.658-.676-1.862-.103-.131-.23-.197-.388-.197l-.607.352v-.746h1.912c.287.435.487.913.604 1.435.294-.424.517-.719.666-.889.201-.226.367-.375.497-.443.131-.068.271-.103.416-.103.166 0 .294.043.382.131.09.087.133.206.133.355 0 .14-.043.254-.132.344-.088.088-.2.133-.332.133-.096 0-.205-.017-.331-.051l-.258-.049c-.126 0-.246.043-.361.131-.155.119-.348.374-.575.766.255.875.601 1.711.754 1.901.091.115.183.173.274.173.079 0 .147-.02.204-.058.086-.062.22-.216.402-.459zm-5.122-2.699h-.633l-.527 2.02c-.246.955-.487 1.646-.72 2.075-.235.427-.508.745-.822.95-.314.207-.674.309-1.078.309-.256 0-.443-.047-.563-.142-.12-.094-.18-.206-.18-.335 0-.119.049-.223.147-.31.101-.089.229-.132.394-.132.134 0 .237.033.309.102.072.066.109.151.109.254 0 .092-.023.162-.068.207l-.068.089.022.03.064.023c.091 0 .166-.029.229-.084.159-.138.279-.305.355-.499.055-.134.159-.487.312-1.061l.919-3.496h-.627l.149-.512c.225.003.388-.025.49-.084.102-.058.21-.189.324-.393.33-.593.678-1.018 1.045-1.273.366-.256.774-.384 1.224-.384.287 0 .497.054.628.162.132.107.196.247.196.42 0 .15-.044.271-.132.359-.086.09-.194.135-.323.135-.12 0-.218-.037-.297-.109-.078-.072-.117-.16-.117-.263 0-.073.025-.15.073-.231l.076-.166-.035-.08-.087-.029c-.178 0-.359.105-.545.318-.306.34-.552.88-.738 1.619h.653l-.158.511zm-.972-3.783c.309.091.627.137.949.137h-1.086l.137-.137z" id="iconBg"/><path class="icon-vs-fg" d="M6 3.5c0 .828-.672 1.5-1.5 1.5s-1.5-.672-1.5-1.5.672-1.5 1.5-1.5 1.5.672 1.5 1.5zm1 2.442v.058h3v-2h-2.051c-.108.749-.443 1.424-.949 1.942zm4 3.058h3v-2h-3v2zm0-5v2h3v-2h-3zm0 8h3v-2h-3v2zm-5.417-.244l-1.001.195-.013.049h1.308l-.099-.301-.195.057zm1.417-3.851c.099.205.153.434.153.677 0 .155-.023.293-.056.418h2.903v-2h-3v.905zm-1-.812v-.093h-.671c.248 0 .469.035.671.093zm-3 .321v.626c.172-.182.348-.345.534-.475.53-.374 1.136-.565 1.795-.565h-1.915l-.414.414z" id="iconFg"/></svg>