<svg xmlns="http://www.w3.org/2000/svg" width="16" height="16"><style type="text/css">.icon-canvas-transparent{opacity:0;fill:#F6F6F6;} .icon-vs-out{fill:#F6F6F6;} .icon-vs-bg{fill:#424242;} .icon-vs-fg{fill:#F0EFF1;} .icon-vs-yellow{fill:#FFCC00;}</style><path class="icon-canvas-transparent" d="M16 16h-16v-16h16v16z" id="canvas"/><path class="icon-vs-out" d="M15.973 13.995l-.971 2.005h-6.998l-.524-1h-.058l-1.011 1h-3.825l1-1h-2.586v-2.589l-1-1.012v-1.798l1-1.012v-8.589h14v12.034l.973 1.961z" id="outline"/><path class="icon-vs-bg" d="M3 9l-1 1h4v1h-4l1 1h-1l-1.483-1.5 1.483-1.5h1zm3 3h-1l1 1h-4v1h4l-1 1h1l1.004-.992-.004-.008.338-.677-1.338-1.323zm0-8v2h5v-2h-5zm-2 4v-6h9v6.002l1 2.016v-9.018h-12v1h1v1h-1v1h1v1h-1v1h1v1h-1v1h2z" id="iconBg"/><path class="icon-vs-fg" d="M5.414 8l-1 1h2.586v2.583l.8.79 2.693-5.357h2.017l.49.986v-6.002h-9v6h1.414zm.586-3v-1h5v2h-5v-1z" id="iconFg"/><path class="icon-vs-yellow" d="M11.891 8.016h-.781l-3.016 6 .515.984h5.766l.484-1-2.968-5.984zm.109 5.984h-1v-1h1v1zm0-2h-1v-2h1v2z" id="notificationBg"/><path class="icon-black" d="M11 13h1v1h-1v-1zm0-3v2h1v-2h-1z" id="notificationFg"/></svg>