<svg xmlns="http://www.w3.org/2000/svg" width="16" height="16"><style type="text/css">.icon-canvas-transparent{opacity:0;fill:#F6F6F6;} .icon-vs-out{fill:#F6F6F6;} .icon-vs-bg{fill:#424242;} .icon-vs-fg{fill:#F0EFF1;}</style><path class="icon-canvas-transparent" d="M16 16h-16v-16h16v16z" id="canvas"/><path class="icon-vs-out" d="M15 0v15h-9.278c-.347.595-.985 1-1.722 1s-1.375-.405-1.722-1h-1.278v-3.731c-.312-.529-.5-1.13-.5-1.769 0-.643.183-1.255.5-1.785v-7.715h14z" id="outline"/><path class="icon-vs-bg" d="M6.5 9.5c0 1.025-.617 1.903-1.5 2.289v2.211c0 .553-.447 1-1 1-.553 0-1-.447-1-1v-2.211c-.882-.387-1.5-1.265-1.5-2.289 0-1.024.618-1.902 1.5-2.289v2.789h2v-2.789c.883.386 1.5 1.264 1.5 2.289zm-.5-5.5v2h5v-2h-5zm-4-3v1h1v1h-1v1h1v1h-1v1h1v.09l.086-.009.914-.399v-3.682h9v11h-7v1h8v-13h-12z" id="iconBg"/><path class="icon-vs-fg" d="M4 2v3.683l1.4.612c1.276.557 2.1 1.815 2.1 3.205 0 1.157-.572 2.224-1.5 2.87v.63h7v-11h-9zm7 3v1h-5v-2h5v1z" id="iconFg"/></svg>