<svg xmlns="http://www.w3.org/2000/svg" width="16" height="16"><style type="text/css">.icon-canvas-transparent{opacity:0;fill:#F6F6F6;} .icon-vs-out{fill:#F6F6F6;} .icon-vs-bg{fill:#424242;} .icon-vs-fg{fill:#F0EFF1;}</style><path class="icon-canvas-transparent" d="M16 16h-16v-16h16v16z" id="canvas"/><path class="icon-vs-out" d="M15 15h-6.578l-1.011 1h-3.825l1-1h-3.586v-3.601l-.89-.899.89-.899v-9.601h14v15z" id="outline"/><path class="icon-vs-bg" d="M8.517 13.5l-1.517 1.5h-1l1-1h-4v-1h4l-1-1h1l1.517 1.5zm-4.517-1.5l-1-1h4v-1h-4l1-1h-1l-1.483 1.5 1.483 1.5h1zm2-8v2h5v-2h-5zm-4-3v1h1v1h-1v1h1v1h-1v1h1v1h-1v1h2v-6h9v11h-3.567l.506.5-.506.5h4.567v-13h-12z" id="iconBg"/><path class="icon-vs-fg" d="M4 2v6h2.414l-1 1h2.586v2.583l1.433 1.417h3.567v-11h-9zm7 3v1h-5v-2h5v1z" id="iconFg"/></svg>