<svg xmlns="http://www.w3.org/2000/svg" width="16" height="16"><style type="text/css">.icon-canvas-transparent{opacity:0;fill:#F6F6F6;} .icon-vs-out{fill:#F6F6F6;} .icon-vs-bg{fill:#424242;} .icon-vs-fg{fill:#F0EFF1;} .icon-vs-red{fill:#E51400;} .icon-white{fill:#FFFFFF;}</style><path class="icon-canvas-transparent" d="M16 16h-16v-16h16v16z" id="canvas"/><path class="icon-vs-out" d="M16 11.5c0 1.061-.384 2.023-1 2.794v.706h-.706c-.77.616-1.733 1-2.794 1s-2.027-.38-2.793-1h-1.285l-1.011 1h-3.825l1-1h-2.586v-2.589l-1-1.012v-1.798l1-1.012v-8.589h14v8.707c.616.77 1 1.732 1 2.793z" id="outline"/><path class="icon-vs-bg" d="M6 12l1.517 1.5-1.517 1.5h-1l1-1h-4v-1h4l-1-1h1zm-4-3l-1.483 1.5 1.483 1.5h1l-1-1h4v-1h-4l1-1h-1zm4-5v2h5v-2h-5zm-2 4v-6h9v5.276c.354.126.693.28 1 .485v-6.761h-12v1h1v1h-1v1h1v1h-1v1h1v1h-1v1h2z" id="iconBg"/><path class="icon-vs-fg" d="M7 11.582v-.082l.01.092-.01-.01zm-3-3.582v-6h9v5.276c-.472-.168-.972-.276-1.5-.276-2.481 0-4.5 2.019-4.5 4.5v-2.5h-2.586l1-1h-1.414zm2-2h5v-2h-5v2z" id="iconFg"/><path class="icon-vs-red" d="M11.5 8c-1.933 0-3.5 1.567-3.5 3.5s1.567 3.5 3.5 3.5 3.5-1.567 3.5-3.5-1.567-3.5-3.5-3.5zm1.854 4.646l-.707.707-1.147-1.146-1.146 1.147-.707-.707 1.147-1.146-1.147-1.146.707-.707 1.146 1.147 1.146-1.147.707.707-1.146 1.145 1.147 1.146z" id="notificationBg"/><path class="icon-white" d="M12.207 11.5l1.147 1.146-.707.707-1.147-1.146-1.146 1.147-.707-.707 1.147-1.146-1.147-1.146.707-.707 1.146 1.147 1.146-1.147.707.707-1.146 1.145z" id="notificationFg"/></svg>