<svg xmlns="http://www.w3.org/2000/svg" width="16" height="16"><style type="text/css">.icon-canvas-transparent{opacity:0;fill:#F6F6F6;} .icon-vs-out{fill:#F6F6F6;} .icon-vs-bg{fill:#424242;} .icon-vs-fg{fill:#F0EFF1;}</style><path class="icon-canvas-transparent" d="M16 16h-16v-16h16v16z" id="canvas"/><path class="icon-vs-out" d="M16 15h-15v-15h15v15z" id="outline"/><path class="icon-vs-bg" d="M9.5 4c-.437 0-.639.529-1 1-.355-.465-.554-.998-1-1h-3.5v7h3c1.067 0 1.345.631 1.5 1 .154-.369.433-1 1.5-1h3v-7h-3.5zm-1.5 6.5c-.221-.117-.71-.5-1-.5h-2v-5h2.5c.377 0 .5.794.5 1v4.5zm4-.5h-2c-.29 0-.779.383-1 .5v-4.5c0-.236.107-1 .5-1h2.5v5zm-1 4h-1v-1h1v1zm4-1h-1v1h1v-1zm-2 0h-1v1h1v-1zm2-2h-1v1h1v-1zm-4-10h-1v1h1v-1zm2 0h-1v1h1v-1zm2 0h-1v1h1v-1zm0 4h-1v1h1v-1zm0 4h-1v1h1v-1zm-12 2h-1v1h1v-1zm0 2h-1v1h1v-1zm4 0h-1v1h1v-1zm-2 0h-1v1h1v-1zm4 0h-1v1h1v-1zm-6-12h-1v1h1v-1zm0 2h-1v1h1v-1zm0 2h-1v1h1v-1zm0 4h-1v1h1v-1zm2-8h-1v1h1v-1zm2 0h-1v1h1v-1zm2 0h-1v1h1v-1zm6 2h-1v1h1v-1zm0 4h-1v1h1v-1zm-12 0h-1v1h1v-1z" id="iconBg"/><path class="icon-vs-fg" d="M8 10.5c-.221-.117-.71-.447-1-.447h-2v-5.053h2.5c.377 0 .5.794.5 1v4.5zm4-5.5h-2.5c-.393 0-.5.764-.5 1v4.5c.221-.117.71-.447 1-.447h2v-5.053z" id="iconFg"/></svg>