<svg xmlns="http://www.w3.org/2000/svg" viewBox="0 0 16 16"><style>.icon-canvas-transparent{opacity:0;fill:#f6f6f6}.icon-vs-out{fill:#f6f6f6}.icon-vs-bg{fill:#424242}</style><path class="icon-canvas-transparent" d="M16 0v16H0V0h16z" id="canvas"/><path class="icon-vs-out" d="M15.304 14.134A3.493 3.493 0 0 1 12.208 16H3.792a3.493 3.493 0 0 1-3.096-1.866 3.487 3.487 0 0 1-.397-1.857A5.472 5.472 0 0 1 0 10.5a5.497 5.497 0 0 1 4.631-5.425L5 4.536V3H4V0h8v3h-1v1.536l4.097 5.987a3.496 3.496 0 0 1 .207 3.611z" id="outline"/><path class="icon-vs-bg" d="M14.419 13.667A2.494 2.494 0 0 1 12.208 15H8.656A5.49 5.49 0 0 0 11 10.5c0-.521-.077-1.023-.212-1.5h.844L9 5.154V2H7v3.154l-.034.05a5.456 5.456 0 0 0-1.085-.185L6 4.846V2H5V1h6v1h-1v2.846l4.271 6.242c.526.767.583 1.756.148 2.579zM2.239 7.559C1.413 8.387 1 9.473 1 10.816c0 1.25.367 2.26 1.102 3.029.734.77 1.711 1.155 2.929 1.155.941 0 1.729-.164 2.361-.492v-1.289c-.582.375-1.27.563-2.063.563-.859 0-1.553-.275-2.08-.823-.527-.549-.791-1.286-.791-2.212 0-.973.282-1.75.847-2.332.565-.583 1.302-.874 2.213-.874.684 0 1.309.168 1.875.504V6.662c-.535-.23-1.209-.346-2.021-.346-1.263 0-2.307.414-3.133 1.243zm2.257 2.967c0 .736.597 1.333 1.333 1.333a4.63 4.63 0 0 0 1.042-.122V9.315a4.63 4.63 0 0 0-1.042-.122c-.736 0-1.333.597-1.333 1.333zm3.125-.96v1.919c.522-.243.875-.582.875-.96 0-.377-.353-.716-.875-.959z" id="iconBg"/></svg>