<svg xmlns="http://www.w3.org/2000/svg" width="16" height="16"><style type="text/css">.icon-canvas-transparent{opacity:0;fill:#F6F6F6;} .icon-vs-out{fill:#F6F6F6;} .icon-vs-bg{fill:#424242;} .icon-vs-fg{fill:#F0EFF1;}</style><path class="icon-canvas-transparent" d="M16 16h-16v-16h16v16z" id="canvas"/><g id="iconBg"><path class="icon-vs-out" d="M13 11v2h3v3h-16v-7h6v-2h-6v-7h13v2h3v9h-3z"/><path class="icon-vs-bg" d="M1 6h5v-5h-5v5zm1-3h1v-1h1v1h1v1h-1v1h-1v-1h-1v-1zm-1 12h5v-5h-5v5zm1-3h1v-1h1v1h1v1h-1v1h-1v-1h-1v-1zm5-11h5v1h-5v-1zm8 3h-2v-1h2v1zm0 2h-2v-1h2v1zm0 2h-2v-1h2v1zm0 2h-2v-1h2v1zm-2 4h2v1h-2v-1zm-6-11h5v1h-5v-1zm0 2h5v1h-5v-1zm0 2h5v1h-5v-1zm0 2h5v1h-5v-1zm0 3h5v1h-5v-1zm0 2h5v1h-5v-1z"/></g><path class="icon-vs-fg" d="M3 4h-1v-1h1v-1h1v1h1v1h-1v1h-1v-1zm0 10h1v-1h1v-1h-1v-1h-1v1h-1v1h1v1z" id="iconFg"/></svg>