<svg xmlns="http://www.w3.org/2000/svg" viewBox="0 0 16 16"><style>.icon-canvas-transparent{opacity:0;fill:#f6f6f6}.icon-vs-out{fill:#f6f6f6}.icon-vs-bg{fill:#424242}.icon-vs-fg{fill:#f0eff1}.icon-folder{fill:#dcb67a}</style><path class="icon-canvas-transparent" d="M16 16H0V0h16v16z" id="canvas"/><path class="icon-vs-out" d="M16 11v3h-1v2H2v-2H0V0h3v1h7.354l1.011 2.003 2.133-.002A1.498 1.498 0 0 1 15 4.501V11h1z" id="outline"/><path class="icon-vs-bg" d="M2 12h13v1H1V1h1v11zm1 2h1v1H3v-1zm2 0h1v1H5v-1zm2 0h1v1H7v-1zm2 0h1v1H9v-1zm2 0h1v1h-1v-1zm2 0h1v1h-1v-1z" id="iconBg"/><path class="icon-folder" d="M13.499 4.001l-2.749.003L9.739 2h-6.23a.5.5 0 0 0-.5.499l-.009 8a.5.5 0 0 0 .5.501h10a.5.5 0 0 0 .5-.5V4.501a.5.5 0 0 0-.501-.5zM4.021 4h-.022V3H9l.5 1H4.021z" id="colorImportance"/><path class="icon-vs-fg" d="M9 3l.5 1H3.999V3H9z" id="iconFg"/></svg>