<svg xmlns="http://www.w3.org/2000/svg" width="16" height="16"><style type="text/css">.icon-canvas-transparent{opacity:0;fill:#F6F6F6;} .icon-vs-out{fill:#F6F6F6;} .icon-vs-bg{fill:#424242;} .icon-vs-fg{fill:#F0EFF1;}</style><path class="icon-canvas-transparent" d="M16 16h-16v-16h16v16z" id="canvas"/><path class="icon-vs-out" d="M12.414 1h-4.414c-.97 0-2 .701-2 2h-6v3h1v1h-1v3h4.287c-.173.362-.287.755-.287 1.174 0 1.535 1.31 2.803 2.934 2.826h4.275l.278-.019c1.204-.131 2.151-.979 2.423-2.069h.043c1.491-.001 2.047-1.173 2.047-1.912v-5.414l-3.586-3.586z" id="outline"/><path class="icon-vs-bg" d="M5 9h-4v-1h4v1zm0-2v-1h-3v1h3zm0-3h-4v1h4v-1zm7-2h-4s-1 0-1 1v4.292c.311-.135.648-.219 1-.255v-4.037h4v2h2v5h-.314c.093.181.157.373.206.572l.062.339c1.046 0 1.046-.911 1.046-.911v-5l-3-3zm.997 9.277c0 .881-.701 1.609-1.618 1.709l-.17.014h-4.275c-1.074-.016-1.934-.836-1.934-1.826 0-.764.501-1.42 1.211-1.691.281-.85 1.132-1.469 2.136-1.469.565 0 1.086.195 1.481.521.154-.039.315-.061.481-.061.849 0 1.562.555 1.753 1.301.557.295.935.858.935 1.502zm-1-.009c0-.404-.37-.734-.827-.734l-.193.023c.086-.115.136-.252.136-.4 0-.393-.359-.711-.803-.711-.343 0-.632.191-.749.459-.093-.521-.6-.922-1.214-.922-.681 0-1.233.488-1.233 1.092l.043.272-.21-.022c-.522-.001-.947.374-.947.837 0 .459.418.83.934.838h4.275v-.004c.439-.019.788-.336.788-.728z" id="iconBg"/><path class="icon-vs-fg" d="M11.997 11.268c0 .393-.35.709-.788.729v.003h-4.275c-.516-.008-.934-.379-.934-.838 0-.463.425-.838.946-.838l.21.022-.043-.272c0-.603.553-1.092 1.233-1.092.614 0 1.121.4 1.214.922.117-.268.406-.459.749-.459.443 0 .803.318.803.711 0 .148-.05.285-.136.4l.193-.023c.458 0 .828.33.828.735zm.003-6.268v-2h-4v4.037l.347-.023c.613 0 1.21.165 1.722.471l.241-.01c1.141 0 2.147.658 2.58 1.643.323.237.578.542.766.882h.344v-5h-2z" id="iconFg"/></svg>