<svg xmlns="http://www.w3.org/2000/svg" width="16" height="16"><style type="text/css">.icon-canvas-transparent{opacity:0;fill:#F6F6F6;} .icon-vs-out{fill:#F6F6F6;} .icon-vs-bg{fill:#424242;} .icon-vs-fg{fill:#F0EFF1;}</style><path class="icon-canvas-transparent" d="M16 16h-16v-16h16v16z" id="canvas"/><path class="icon-vs-out" d="M16 8c0 4.418-3.582 8-8 8s-8-3.582-8-8 3.582-8 8-8 8 3.582 8 8z" id="outline"/><path class="icon-vs-bg" d="M5.099 7.275l-3.88-.971.048-.17.134-.446c.064-.182.137-.359.215-.534.191-.431.422-.84.693-1.22l3.255 2.326c-.215.302-.374.644-.465 1.015zm2.901-2.275c1.657 0 3 1.343 3 3h4c0-3.866-3.134-7-7-7-1.126 0-2.186.272-3.128.744l1.792 3.583c.403-.202.854-.327 1.336-.327zm2 3c0 .168-.026.328-.065.482-.062.248-.168.479-.314.681-.09.126-.195.237-.311.338l-.034.026c-.118.098-.247.185-.385.254-.27.136-.57.219-.891.219-1.104 0-2-.896-2-2 0-.167.026-.328.065-.482.062-.249.168-.479.313-.681.091-.126.196-.237.312-.338l.034-.027c.118-.098.247-.184.386-.254.269-.135.569-.218.89-.218 1.104 0 2 .896 2 2zm-1 0c0-.552-.447-1-1-1s-1 .448-1 1c0 .553.447 1 1 1s1-.447 1-1zm-1 3c-1.657 0-3-1.344-3-3h-4c0 3.866 3.134 7 7 7 1.126 0 2.186-.271 3.128-.744l-1.792-3.583c-.403.202-.854.327-1.336.327zm6.733-1.134l.048-.171-3.88-.971c-.092.371-.25.714-.466 1.016l3.256 2.325c.272-.38.502-.789.693-1.22.078-.175.15-.352.215-.533l.134-.446z" id="iconBg"/><path class="icon-vs-fg" d="M14.781 9.695c.138-.543.219-1.109.219-1.695h-4c0-1.657-1.343-3-3-3-.482 0-.933.125-1.336.327l-1.792-3.583c-1.023.513-1.902 1.267-2.563 2.191l3.255 2.325c-.215.302-.374.644-.465 1.015l-3.88-.971c-.138.544-.219 1.11-.219 1.696h4c0 1.656 1.343 3 3 3 .482 0 .933-.125 1.336-.327l1.792 3.583c1.023-.513 1.902-1.267 2.563-2.191l-3.255-2.325c.216-.302.374-.645.466-1.016l3.879.971zm-5.471-.194l-.034.026c-.118.1-.246.185-.386.254-.269.136-.569.219-.89.219-1.104 0-2-.896-2-2 0-.167.026-.327.065-.482.062-.249.168-.479.313-.681.09-.125.196-.236.312-.338l.034-.027c.118-.099.246-.184.385-.254.27-.135.57-.218.891-.218 1.104 0 2 .896 2 2 0 .168-.026.327-.065.482-.062.248-.168.479-.314.681-.09.125-.196.236-.311.338zm-.31-1.501c0 .552-.447 1-1 1s-1-.448-1-1 .447-1 1-1 1 .447 1 1z" id="iconFg"/></svg>