<svg xmlns="http://www.w3.org/2000/svg" width="16" height="16"><style type="text/css">.icon-canvas-transparent{opacity:0;fill:#F6F6F6;} .icon-vs-out{fill:#F6F6F6;} .icon-vs-bg{fill:#424242;} .icon-vs-fg{fill:#F0EFF1;}</style><path class="icon-canvas-transparent" d="M16 16h-16v-16h16v16z" id="canvas"/><path class="icon-vs-out" d="M12 14.921l-.13.079c-.28.155-.571.292-.87.413v.587h-3c-1.404 0-2.723-.364-3.87-1h-.13v1h-3v-1h-1v-5h.263c-.166-.641-.263-1.309-.263-2 0-4.418 3.582-8 8-8s8 3.582 8 8c0 2.959-1.611 5.537-4 6.921z" id="outline"/><path class="icon-vs-bg" d="M5.564 6.26c-.215.302-.374.644-.465 1.015l-3.883-.971c.216-.864.589-1.665 1.093-2.369l3.255 2.325zm2.436-.26c-.321 0-.621.083-.891.219-.138.069-.266.156-.385.254l-.034.026c-.116.101-.221.212-.311.338-.146.202-.252.433-.314.681-.039.154-.065.314-.065.482 0 1.104.896 2 2 2 .321 0 .621-.083.891-.219.139-.069.267-.156.386-.254l.033-.026c.116-.101.221-.212.311-.338.146-.202.252-.433.314-.681.039-.154.065-.314.065-.482 0-1.104-.896-2-2-2zm1 2c0-.553-.447-1-1-1s-1 .447-1 1 .447 1 1 1 1-.447 1-1zm2 0h4c0-3.866-3.134-7-7-7-1.126 0-2.186.272-3.128.744l1.792 3.583c.403-.202.854-.327 1.336-.327 1.657 0 3 1.344 3 3zm3.781 1.695l-3.88-.971c-.092.371-.25.714-.466 1.016l.365.26h1.2v.857l1.691 1.208c.504-.704.877-1.505 1.093-2.369l-.003-.001zm-9.781-1.695h-4c0 .695.104 1.365.294 2h4.484c-.478-.531-.778-1.229-.778-2zm-4 3v3h1v1h1v-1h6v1h1v-1h1v-3h-10zm2 1h-1v1h1v-1z" id="iconBg"/><path class="icon-vs-fg" d="M2 12h1v1h-1v-1zm10 1.727c.652-.455 1.227-1.014 1.691-1.661l-1.691-1.209v2.87zm-1-5.727c0-1.656-1.343-3-3-3-.482 0-.933.125-1.336.327l-1.792-3.583c-1.023.513-1.902 1.267-2.563 2.191l3.255 2.325c-.215.302-.374.644-.465 1.015l-3.88-.971c-.138.544-.219 1.11-.219 1.696h4c0 .771.3 1.469.778 2h2.222c-1.104 0-2-.896-2-2 0-.168.026-.328.065-.483v.001c.062-.248.168-.479.314-.681l-.003.003c.188-.264.441-.475.733-.621.27-.136.57-.219.891-.219 1.104 0 2 .896 2 2 0 .168-.026.328-.065.483v-.001c-.062.248-.168.479-.314.681l.003-.003c-.188.264-.441.475-.733.621-.27.136-.57.219-.891.219h2.8l-.364-.26c.216-.302.374-.645.466-1.016l3.88.971c.137-.543.218-1.109.218-1.695h-4zm-3-1c-.552 0-1 .447-1 1s.448 1 1 1 1-.447 1-1-.448-1-1-1z" id="iconFg"/></svg>