<svg xmlns="http://www.w3.org/2000/svg" width="16" height="16"><style type="text/css">.icon-canvas-transparent{opacity:0;fill:#F6F6F6;} .icon-vs-out{fill:#F6F6F6;} .icon-vs-bg{fill:#424242;}</style><path class="icon-canvas-transparent" d="M16 16h-16v-16h16v16z" id="canvas"/><path class="icon-vs-out" d="M16 3.316v7.985l-6.212 4.557h-.487l-1.556-.98c-.331-.005-.628-.082-.881-.238-.145-.088-.277-.202-.394-.34-.222.201-.421.339-.62.428-.244.102-.49.152-.745.152-.477 0-.791-.195-.971-.358l-.087-.097-.067.131c-.275.469-.61.825-1 1.065-.408.251-.874.379-1.385.379-.431 0-.774-.1-1.05-.306-.344-.254-.545-.638-.545-1.051 0-.391.171-.746.481-1.003.18-.149.493-.329.952-.329l.055.001.372-1.327h-.543l.747-2.391.081.001v-6.291l6.529-3.304h1.045l6.281 3.316z" id="outline"/><path class="icon-vs-bg" d="M9.197.857l-6.053 3.061v5.053c.19-.211.386-.384.594-.52.142-.094.293-.168.448-.233v-3.068l4.865 2.716v1.729c.234.073.411.187.525.292.274.255.424.609.424.998 0 .384-.15.735-.424.989-.113.107-.244.192-.387.254l.979.512v-4.742l3.877-2.538v4.966l-3.877 2.794v-.21l-.497.73c-.24.352-.487.602-.744.799l.594.374 5.479-4.018v-6.877l-5.803-3.061zm.25 6.018l-4.676-2.667 4.356-2.212 4.641 2.287-4.321 2.592zm-4.702 3.727l-.126.383h-.507l-.422 1.515c-.197.715-.39 1.234-.576 1.556-.188.321-.406.559-.658.714-.25.154-.538.23-.861.23-.205 0-.355-.035-.45-.106-.097-.072-.145-.155-.145-.251 0-.089.039-.167.118-.232.08-.066.184-.1.314-.1.107 0 .19.026.247.077.058.05.087.113.087.19 0 .068-.019.121-.055.155l-.055.066.018.023.052.017c.072 0 .133-.021.183-.063.127-.103.224-.228.284-.374.044-.101.127-.366.25-.797l.735-2.622h-.501l.12-.383c.18.002.31-.02.392-.063.082-.044.168-.143.259-.296.264-.442.543-.761.836-.952.293-.193.619-.289.979-.289.23 0 .398.04.502.121.105.081.157.186.157.314 0 .114-.035.205-.105.271-.069.066-.156.1-.259.1-.096 0-.174-.027-.237-.082-.062-.054-.093-.12-.093-.196l.059-.174.061-.125-.028-.06-.07-.021c-.142 0-.287.079-.436.238-.246.256-.442.661-.591 1.215h.522zm3.479 3.13c-.153.1-.304.148-.453.148-.154 0-.282-.03-.383-.093-.103-.063-.193-.165-.272-.305-.079-.141-.288-.594-.396-.904-.28.325-.719.791-.879.939-.16.15-.292.248-.397.295-.105.045-.219.067-.338.067-.125 0-.225-.032-.297-.098-.074-.066-.11-.151-.11-.257 0-.111.039-.202.118-.274.08-.072.181-.109.303-.109l.219.053c.12.054.207.079.26.079l.188-.039c.071-.033.163-.103.273-.213.067-.068.409-.439.59-.66-.23-.778-.411-1.244-.541-1.397-.082-.099-.184-.148-.31-.148l-.486.265v-.56h1.53c.229.325.39.684.483 1.076.235-.318.414-.539.533-.666.161-.172.294-.281.398-.334.104-.051.216-.076.333-.076.133 0 .235.032.306.098.07.067.104.154.104.266 0 .105-.034.191-.105.258-.07.066-.16.1-.266.1l-.265-.037-.207-.037c-.101 0-.197.032-.289.098-.124.09-.278.281-.46.574.204.656.48 1.283.603 1.427.073.086.146.129.22.129l.163-.043c.069-.046.176-.161.321-.344l.129.067c-.211.31-.418.529-.62.655z" id="iconFg"/></svg>