<svg xmlns="http://www.w3.org/2000/svg" width="16" height="16"><style type="text/css">.icon-canvas-transparent{opacity:0;fill:#F6F6F6;} .icon-vs-out{fill:#F6F6F6;} .icon-vs-bg{fill:#424242;} .icon-vs-fg{fill:#F0EFF1;}</style><path class="icon-canvas-transparent" d="M16 16h-16v-16h16v16z" id="canvas"/><path class="icon-vs-out" d="M10 0v4h-10v8h4v4h11v-6h1v-10h-6zm2 13h-5v-1h3v-2h2v3z" id="outline"/><path class="icon-vs-bg" d="M11 1v8h2v5h-7v-3h3v-6h-8v6h4v4h9v-6h1v-8h-4zm3 7h-1v-1h1v1zm0-3h-2v-1h2v1zm0-2h-2v-1h2v1z" id="iconBg"/><path class="icon-vs-fg" d="M12 2h2v1h-2v-1zm0 3h2v-1h-2v1zm1 3h1v-1h-1v1z" id="iconFg"/></svg>