<svg xmlns="http://www.w3.org/2000/svg" width="16" height="16"><style type="text/css">.icon-canvas-transparent{opacity:0;fill:#F6F6F6;} .icon-vs-out{fill:#F6F6F6;} .icon-vs-bg{fill:#424242;} .icon-vs-fg{fill:#F0EFF1;}</style><path class="icon-canvas-transparent" d="M16 16h-16v-16h16v16z" id="canvas"/><path class="icon-vs-out" d="M16 14h-2v2h-13v-2.606l-1-1.006v-.523l1-1v-1.104c-.771-.649-1-1.534-1-1.991 0-.951.412-1.661 1-2.129v-3.641h2v-2h13v14z" id="outline"/><path class="icon-vs-bg" d="M9.012 7.77c0-1.345-1.155-1.746-1.771-1.77-1.403 0-1.989.878-2.235 1.635-.247-.755-.836-1.635-2.238-1.635-.613.023-1.768.424-1.768 1.77 0 .018.027 1.775 2.475 1.775h.26l-2.583 2.582.699.703 2.832-2.83h.672l2.831 2.83.697-.704-2.125-2.126h8.242v-1h-6.624c.621-.518.636-1.219.636-1.23zm-3.19.556c0-.223.063-1.334 1.304-1.336.064.003.897.057.897.778-.002.032-.033.785-1.356.785h-.845v-.227zm-2.476.227c-1.322 0-1.353-.752-1.354-.783 0-.722.826-.776.89-.779 1.246.002 1.309 1.113 1.309 1.336v.227h-.845zm11.654-7.553v7h-1v-6h-9v1h8v5h-1v-4h-9v1.022l-.269-.022h-.002c-.246.01-.49.06-.729.129v-2.129h2v-2h11zm-1 10h1v2h-2v2h-11v-.905l1-.999v.904h9v-3h1v1h1v-1z" id="iconBg"/><path class="icon-vs-fg" d="M5 2h9v6h-1v-5h-8v-1zm9 9h-1v1h1v-1zm-8.98.078l-2.02 2.018v.904h4.942l-2.922-2.922zm4.992-3.308l-.017.23h2.005v-4h-9v1.022c.795.051 1.479.316 2.003.787.58-.525 1.344-.809 2.237-.809 1.397.052 2.772 1.02 2.772 2.77zm-.839 3.23l1.122 1.122-1.859 1.878h3.564v-3h-2.827z" id="iconFg"/></svg>