<svg xmlns="http://www.w3.org/2000/svg" viewBox="0 0 16 16"><style>.icon-canvas-transparent{opacity:0;fill:#f6f6f6}.icon-vs-out{fill:#f6f6f6}.icon-vs-bg{fill:#424242}.icon-vs-action-green{fill:#388a34}</style><path class="icon-canvas-transparent" d="M16 16H0V0h16v16z" id="canvas"/><path class="icon-vs-out" d="M12.417 7h-1.579l-.105-.105c2.599-.464 3.329-2.339 3.329-3.395 0-2.466-2.069-3.444-3.5-3.5-1.661 0-2.791.688-3.503 1.674C6.342.689 5.203.001 3.524.001h-.002C2.132.056.063 1.034.063 3.5c0 1.06.737 2.947 3.362 3.4L0 10.325l2.121 2.121L4 10.567v2.431h1.33A6.27 6.27 0 0 0 5.001 15v1h4v-1c0-.399.148-.859.338-1.237L10.575 15h1.852L16 11.427v-.844L12.417 7zm-5.335.485l1.527 1.527H5.555l1.527-1.527z" id="outline"/><path class="icon-vs-bg" d="M7.082 6.071l2.217 2.217.707-.707L8.425 6h1.038c3.6 0 3.6-2.5 3.6-2.5 0-2.4-2.5-2.5-2.5-2.5-3.034 0-3.439 2.83-3.492 3.724l-.018-.019C6.995 3.791 6.574 1 3.563 1c0 0-2.5.1-2.5 2.5 0 0 0 2.5 3.6 2.5h1.076l-4.324 4.325.707.707 4.96-4.961zm.98-1.705C8.064 4.084 8.158 2 10.396 2c0 0 1.666.061 1.666 1.5 0 0 0 1.5-2.4 1.5h-1.6v-.634zM5.396 5h-.933c-2.4 0-2.4-1.5-2.4-1.5C2.063 2.061 3.73 2 3.73 2c2.237 0 2.331 2.084 2.333 2.366V5h-.667z" id="iconBg"/><path class="icon-vs-action-green" d="M6.275 15c.053-1.509.619-2.589 1.321-3.332H5.031v-1.333h7.406l-1.842-1.852.916-.947.016.016.002-.002L15 11.019l-3.532 3.516-.012-.012-.922-.922 1.923-1.933h-2.45c-.367.105-2.289.778-2.404 3.332H6.275z" id="notificationBg"/></svg>