<svg xmlns="http://www.w3.org/2000/svg" viewBox="0 0 16 16"><style>.icon-canvas-transparent{opacity:0;fill:#f6f6f6}.icon-vs-out{fill:#f6f6f6}.icon-vs-bg{fill:#424242}.icon-vs-fg{fill:#f0eff1}.icon-folder{fill:#dcb67a}</style><path class="icon-canvas-transparent" d="M16 16H0V0h16v16z" id="canvas"/><g id="outline"><path class="icon-vs-out" d="M16 4.5v7c0 .827-.673 1.5-1.5 1.5H9.077l.34.435-.476.614a5.037 5.037 0 0 1-.89.891l-.614.477-.896-.699-.141 1.124-.769.099C5.359 15.978 5.184 16 5 16s-.359-.022-.535-.046l-.768-.099-.192-.782-.045-.355-.896.699-.616-.477a5.071 5.071 0 0 1-.89-.891l-.476-.614.698-.895-1.122-.14-.1-.768A4.573 4.573 0 0 1 0 11c0-.182.021-.357.046-.533l.098-.769.783-.194.354-.044-.698-.895.476-.614c.258-.333.557-.632.89-.891L2 7.019V2.5C2 1.673 2.673 1 3.5 1h7.118l1 2H14.5c.827 0 1.5.673 1.5 1.5z"/><path class="icon-vs-bg" d="M6 11a1 1 0 1 1-2 0 1 1 0 1 1 2 0zm1.714.658a2.804 2.804 0 0 1-.331.795l.768.984a3.972 3.972 0 0 1-.712.713l-.985-.768c-.244.148-.51.262-.795.332l-.154 1.234C5.337 14.971 5.173 15 5 15s-.337-.029-.504-.051l-.154-1.234a2.835 2.835 0 0 1-.795-.332l-.986.767a3.972 3.972 0 0 1-.712-.713l.768-.984a2.804 2.804 0 0 1-.331-.795l-1.235-.154C1.029 11.338 1 11.174 1 11c0-.172.029-.336.051-.504l1.235-.154c.069-.285.183-.551.331-.795l-.767-.985c.207-.267.445-.505.711-.712l.985.768c.244-.148.51-.262.795-.33l.154-1.236C4.663 7.029 4.827 7 5 7s.337.029.504.051l.154 1.236c.285.068.551.182.795.33l.985-.767c.267.207.505.445.712.712l-.767.985c.148.244.262.51.331.795l1.235.154c.022.168.051.332.051.504 0 .174-.029.338-.051.504l-1.235.154zM7 11c0-1.104-.893-2-2-2s-2 .896-2 2 .893 2 2 2 2-.896 2-2z"/></g><path class="icon-folder" d="M8.719 9.459l.422-.541.678.679-1.1-.138zM15 4.5v7a.5.5 0 0 1-.5.5H9.894l.06-.462A3.79 3.79 0 0 0 10 11c0-.182-.021-.357-.059-.631l-.095-.745.543.543 4.389-4.389L14 5l-3.611 3.611L8.777 7l-.372.372a4.741 4.741 0 0 0-.353-.312l-.614-.478-.898.7-.044-.355-.191-.782-.77-.099C5.359 6.021 5.184 6 5 6s-.359.021-.632.059l-.768.099-.14 1.124L3 6.923V2.5a.5.5 0 0 1 .5-.5H10l1 2h3.5a.5.5 0 0 1 .5.5zM9.5 4L9 3H4v1h5.5z" id="iconBg"/><path class="icon-vs-fg" d="M9 3l.5 1H4V3h5zm5.777 2.777l-4.389 4.389-.542-.542-.003-.024-.024-.003-.678-.678.276-.354-.476-.614a4.896 4.896 0 0 0-.536-.579L8.777 7l1.611 1.611L14 5l.777.777z" id="iconFg"/></svg>