<svg xmlns="http://www.w3.org/2000/svg" width="16" height="16"><style type="text/css">.icon-canvas-transparent{opacity:0;fill:#F6F6F6;} .icon-vs-out{fill:#F6F6F6;} .icon-vs-bg{fill:#424242;}</style><path class="icon-canvas-transparent" d="M16 16h-16v-16h16v16z" id="canvas"/><path class="icon-vs-out" d="M15.102 12.324l-2.121 2.121-4.961-4.961-4.961 4.961-2.121-2.121 3.424-3.424c-2.625-.454-3.362-2.34-3.362-3.4 0-2.466 2.069-3.444 3.46-3.499h.002c1.679 0 2.817.688 3.535 1.673.712-.986 1.842-1.674 3.503-1.674 1.431.056 3.5 1.034 3.5 3.5 0 1.055-.731 2.931-3.328 3.394l3.43 3.43z" id="outline"/><path class="icon-vs-bg" d="M10.4 8c3.6 0 3.6-2.5 3.6-2.5 0-2.4-2.5-2.5-2.5-2.5-3.033 0-3.438 2.83-3.491 3.724l-.019-.019c-.057-.914-.478-3.705-3.49-3.705 0 0-2.5.1-2.5 2.5 0 0 0 2.5 3.6 2.5h1.076l-4.324 4.324.707.707 4.961-4.961 4.961 4.961.707-.707-4.325-4.324h1.037zm-1.4-1.634c.002-.282.096-2.366 2.333-2.366 0 0 1.667.061 1.667 1.5 0 0 0 1.5-2.4 1.5h-1.6v-.634zm-3.6.634c-2.4 0-2.4-1.5-2.4-1.5 0-1.439 1.667-1.5 1.667-1.5 2.237 0 2.331 2.084 2.333 2.366v.634h-1.6z" id="iconBg"/></svg>