<svg xmlns="http://www.w3.org/2000/svg" width="16" height="16"><style type="text/css">.icon-canvas-transparent{opacity:0;fill:#F6F6F6;} .icon-vs-out{fill:#F6F6F6;} .icon-vs-bg{fill:#424242;} .icon-vs-action-blue{fill:#00539C;}</style><path class="icon-canvas-transparent" d="M16 16h-16v-16h16v16z" id="canvas"/><path class="icon-vs-out" d="M16 1v14h-5v-4h-3.391l-.609-.607v4.607h-7v-10h1.592l-1.592-1.587v-.827l2.586-2.586h.837l7.577 7.417v-6.417h5z" id="outline"/><path class="icon-vs-bg" d="M15 9h-3v-7h3v7zm0 2h-3v3h3v-3zm-14 3h2v-2h-2v2zm3-5v2h2v-2h-2zm-3 0v2h2v-2h-2zm3 5h2v-2h-2v2zm0-6.599v.599h.601l-.601-.599zm-1.405-1.401h-1.595v2h2v-1.596l-.405-.404z" id="iconBg"/><path class="icon-vs-action-blue" d="M9 6.999l-2 2-4-3.999 2-2 4 3.999zm-6-5.999l-2 2 1 1 2-2-1-1zm5 9l2-.001v-1.999l-2 2z" id="colorAction"/></svg>