<svg xmlns="http://www.w3.org/2000/svg" viewBox="0 0 16 16"><style>.icon-canvas-transparent{opacity:0;fill:#f6f6f6}.icon-vs-out{fill:#f6f6f6}.icon-vs-bg{fill:#424242}.icon-vs-action-green{fill:#388a34}</style><path class="icon-canvas-transparent" d="M16 16H0V0h16v16z" id="canvas"/><path class="icon-vs-out" d="M2.121 12.446L0 10.325 3.424 6.9C.799 6.447.063 4.56.063 3.5c0-2.466 2.069-3.444 3.46-3.499h.001c1.679 0 2.818.688 3.535 1.673C7.771.688 8.901 0 10.563 0c1.431.056 3.5 1.034 3.5 3.5-.001.153-.034.914-.561 1.715l-.36.548 2.79 2.803-2.344 2.345-.858-.854c.236.507.839 1.308 2.3 1.373l.955.043v3.32l-1.035-.037a6.438 6.438 0 0 1-2.297-.493V16H9.318v-6l-.842.838L6.06 8.507l-3.939 3.939z" id="outline"/><path class="icon-vs-bg" d="M7.799 6.827l.707-.707L8.387 6h.237l1-1H8.063v-.634c0-.035.002-.099.009-.183C8.121 3.596 8.438 2 10.396 2c.004 0 1.666.062 1.666 1.5l-.003.037c-.002.016-.005.042-.01.067l-.01.052a1.231 1.231 0 0 1-.081.259l-.012.032a1.47 1.47 0 0 1-.244.37l.691.694c.667-.699.67-1.511.67-1.511 0-2.4-2.5-2.5-2.5-2.5a4.34 4.34 0 0 0-.536.032c-.066.008-.122.024-.184.034-.1.017-.203.032-.296.056-.067.018-.127.044-.191.065-.078.026-.16.048-.233.079-.065.027-.123.061-.184.092-.063.032-.13.06-.189.095-.062.037-.116.08-.174.12-.05.035-.104.068-.151.105-.056.046-.105.097-.157.145-.04.038-.085.074-.123.113-.048.051-.089.104-.133.157-.035.042-.073.082-.106.125-.042.055-.077.113-.115.17-.028.043-.06.085-.086.129-.035.059-.065.12-.096.18-.023.043-.049.086-.07.13-.029.061-.053.122-.079.184-.018.043-.039.086-.055.129a3.38 3.38 0 0 0-.064.185l-.043.126c-.017.057-.031.112-.046.168-.012.045-.026.09-.036.134-.012.05-.021.098-.031.146-.01.046-.021.093-.029.137l-.021.125-.021.137-.012.096-.015.133-.006.068-.009.11-.01.01-.01-.01-.009-.11a.838.838 0 0 0-.005-.068l-.015-.133-.012-.096-.021-.137-.021-.124c-.007-.043-.018-.087-.027-.131-.011-.051-.02-.101-.033-.154-.01-.042-.023-.085-.034-.127-.016-.058-.03-.115-.048-.174-.013-.042-.029-.084-.043-.126a3.38 3.38 0 0 0-.064-.185c-.017-.043-.037-.087-.055-.13-.026-.061-.05-.122-.079-.183-.021-.044-.047-.087-.07-.13-.032-.06-.062-.12-.097-.179-.026-.045-.057-.086-.086-.13-.037-.057-.073-.114-.114-.17-.033-.043-.071-.083-.106-.125-.044-.053-.085-.106-.133-.157-.038-.04-.082-.075-.123-.114-.052-.047-.101-.098-.158-.143-.046-.037-.098-.069-.147-.103-.059-.041-.114-.085-.178-.123-.057-.034-.122-.062-.184-.093-.063-.032-.121-.067-.188-.094-.073-.031-.155-.053-.233-.079-.064-.021-.124-.047-.191-.064-.093-.025-.196-.039-.296-.057-.062-.01-.118-.026-.183-.034A4.351 4.351 0 0 0 3.563 1s-2.5.1-2.5 2.5c0 0 0 2.5 3.6 2.5h1.076l-4.324 4.325.707.707L7.063 6.09l.736.737zM6.063 5h-1.6c-1.536 0-2.085-.611-2.284-1.054l-.011-.028a1.372 1.372 0 0 1-.083-.262l-.01-.052a2.336 2.336 0 0 1-.01-.066L2.063 3.5c0-1.438 1.663-1.5 1.666-1.5C5.407 2 5.88 3.172 6.012 3.877c.044.235.05.418.051.489V5z" id="iconBg"/><path class="icon-vs-action-green" d="M14.984 13.757c-1.509-.053-2.589-.619-3.332-1.321v2.565h-1.333V7.595L8.466 9.437l-.947-.916.016-.016-.002-.001 3.471-3.471 3.516 3.532-.012.012-.922.922-1.933-1.923v2.45c.105.368.778 2.29 3.332 2.405v1.326z" id="notificationBg"/></svg>