<svg xmlns="http://www.w3.org/2000/svg" width="16" height="16"><style type="text/css">.icon-canvas-transparent{opacity:0;fill:#F6F6F6;} .icon-vs-out{fill:#F6F6F6;} .icon-vs-bg{fill:#424242;} .icon-vs-fg{fill:#F0EFF1;}</style><path class="icon-canvas-transparent" d="M16 16h-16v-16h16v16z" id="canvas"/><path class="icon-vs-out" d="M16 3v13h-16v-13c.221-1.69 1.664-3 3.5-3 1.851 0 3.294 1.305 3.501 3h8.999z" id="outline"/><path class="icon-vs-bg" d="M1.999 3h-1c.149-1.146 1.128-2 2.5-2 1.374 0 2.36.854 2.501 2h-1c-.148-.53-.68-1-1.501-1-.845 0-1.359.473-1.5 1zm4.001 5h-5v-4h5v4zm-2.001-3h-1v2h1v-2zm3.001 7v-1h-1v1h1zm0-2v-1h-3v1h1v1h1v-1h1zm-3.001 2h1.001v-1h-1.001v1zm7.001-1v-1h1v-1h-1v-1h-1v1h-1v1h1v1h1zm1 1v-1h-1v1h1zm-3 0h1v-1h-1v1zm0-5v1h1v-1h-1zm3 0h-1v1h1v-1zm-5-3v1h7v9h-12v-5h-1v6h14v-11h-8z" id="iconBg"/><path class="icon-vs-fg" d="M4 7h-1v-2h1v2zm10-2v9h-12v-5h2v1h1v1h-1v1h1v-1h1v1h1v-1h-1v-1h1v-5h7zm-5 7h1v-1h1v1h1v-1h-1v-1h1v-1h-1v-1h1v-1h-1v1h-1v-1h-1v1h1v1h-1v1h1v1h-1v1z" id="iconFg"/></svg>