<svg xmlns="http://www.w3.org/2000/svg" viewBox="0 0 16 16"><style>.icon-canvas-transparent{opacity:0;fill:#f6f6f6}.icon-vs-out{fill:#f6f6f6}.icon-vs-bg{fill:#424242}.icon-vs-action-red{fill:#a1260d}</style><path class="icon-canvas-transparent" d="M16 16H0V0h16v16z" id="canvas"/><path class="icon-vs-out" d="M9.414 6.061l-1.97 1.97L9.414 10l-2.475 2.475-1.97-1.97L3 12.475.525 10l1.97-1.97-1.97-1.97L3 3.586l1.97 1.97 1.97-1.97 2.474 2.475zM10 1v14h5V1h-5z" id="outline"/><path class="icon-vs-bg" d="M11 11h3v3h-3v-3zm0-9v7h3V2h-3z" id="iconBg"/><path class="icon-vs-action-red" d="M6.03 8.03L8 10l-1.061 1.061-1.97-1.97L3 11.061 1.939 10l1.97-1.97-1.97-1.97L3 5l1.97 1.97L6.939 5 8 6.061 6.03 8.03z" id="colorAction"/></svg>