<svg xmlns="http://www.w3.org/2000/svg" viewBox="0 0 16 16"><style>.icon-canvas-transparent{opacity:0;fill:#f6f6f6}.icon-vs-out{fill:#f6f6f6}.icon-vs-bg{fill:#424242}.icon-vs-action-green{fill:#388a34}</style><path class="icon-canvas-transparent" d="M16 16H0V0h16v16z" id="canvas"/><path class="icon-vs-out" d="M15 5.001c-.689 0-1.375.116-2.002.33v-.3h.71l.216-.71c.129-.425.138-.751.139-.821 0-2.466-2.069-3.444-3.5-3.5-1.662 0-2.792.688-3.504 1.674C6.342.689 5.203.001 3.524.001h-.002C2.132.056.063 1.034.063 3.5c0 1.06.737 2.947 3.362 3.4L0 10.325l2.121 2.121 4.961-4.961 1.47 1.549L7 10.585v1.832L10.583 16h.844L15 12.428v-1.852L13.763 9.34c.378-.191.838-.339 1.237-.339h1v-4h-1z" id="outline"/><path class="icon-vs-bg" d="M9 7.989V6.575L8.425 6H9V5H8.062v-.634C8.064 4.084 8.158 2 10.396 2c0 0 1.666.061 1.666 1.5 0 0-.008.243-.162.531h1.066c.095-.309.097-.531.097-.531 0-2.4-2.5-2.5-2.5-2.5-3.034 0-3.439 2.83-3.492 3.724l-.018-.019C6.995 3.791 6.574 1 3.563 1c0 0-2.5.1-2.5 2.5 0 0 0 2.5 3.6 2.5h1.076l-4.324 4.325.707.707 4.961-4.961L9 7.989zM6.063 5h-1.6c-2.4 0-2.4-1.5-2.4-1.5C2.063 2.061 3.73 2 3.73 2c2.237 0 2.331 2.084 2.333 2.366V5z" id="iconBg"/><path class="icon-vs-action-green" d="M14.984 7.605c-2.554.115-3.227 2.037-3.332 2.405v2.45l1.933-1.923.922.922.012.012-3.516 3.532-3.471-3.471.002-.002-.016-.016.947-.916 1.852 1.842V5.034h1.333v2.565c.743-.701 1.823-1.268 3.332-1.321l.002 1.327z" id="notificationBg"/></svg>