<svg xmlns="http://www.w3.org/2000/svg" width="16" height="16"><style type="text/css">.icon-canvas-transparent{opacity:0;fill:#F6F6F6;} .icon-vs-out{fill:#F6F6F6;} .icon-vs-bg{fill:#424242;} .icon-vs-fg{fill:#F0EFF1;}</style><path class="icon-canvas-transparent" d="M16 16h-16v-16h16v16z" id="canvas"/><path class="icon-vs-out" d="M16 2v14h-14v-8s-.03-.995-.027-1.156c-.027-.865-.28-2.288-1.654-2.311l-.319.104v-2.065l.011-.003-.011-.036c1.374-.023 1.942-1.43 1.968-2.285l.001-.245 1.998-.003.002.247c0 1.229.905 1.635 1.727 1.754h1.298l.006-.001h9z" id="outline"/><path class="icon-vs-bg" d="M15 3v12h-12v-6.982c.491.006.98.006.98-.019.008.05.02 1.001.02 1.001h3v-1h5.5v2h-8.5v1h6.5v2h-6.5v1h10v-10h-7v-1h8zm-5.5 4v-2h-1.737l.237.014v1.986h1.5zm-6.526.053s-.159-3.488 2.692-3.488l.004.001c-2.852 0-2.702-3.52-2.702-3.52s.159 3.488-2.692 3.488l.003-.001c2.851 0 2.695 3.52 2.695 3.52zm2.71 1.208s-.095-2.059 1.589-2.059h.003c-1.685 0-1.596-2.079-1.596-2.079s.094 2.059-1.59 2.059h.002c1.684 0 1.592 2.079 1.592 2.079z" id="iconBg"/><path class="icon-vs-fg" d="M14 4v10h-10v-1h6.5v-2h-6.5v-1h8.5v-2h-5.5c.031-.938.859-1 1-1h1.5v-2h-1.737c-.319-.042-.763-.22-.763-1h7z" id="iconFg"/></svg>