<svg xmlns="http://www.w3.org/2000/svg" width="16" height="16"><style type="text/css">.icon-canvas-transparent{opacity:0;fill:#F6F6F6;} .icon-vs-out{fill:#F6F6F6;} .icon-vs-bg{fill:#424242;} .icon-vs-fg{fill:#F0EFF1;}</style><path class="icon-canvas-transparent" d="M16 16h-16v-16h16v16z" id="canvas"/><path class="icon-vs-out" d="M16 14h-10v2h-3v-2h-1v-1.586l-2-2v-2.414h2v-8h14v14z" id="outline"/><path class="icon-vs-bg" d="M11 9v2h-2.586l.586-.586v-1.414h2zm-8-8v7h10v-2h-9v-1h6v-2h-6v-1h10v10h-6.586l-1 1h8.586v-12h-12zm5 8h-7v1l3 3v2h1v-2l3-3v-1z" id="iconBg"/><path class="icon-vs-fg" d="M14 2v10h-6.586l1-1h2.586v-2h-2v-1h4v-2h-9v-1h6v-2h-6v-1h10z" id="iconFg"/></svg>