<svg xmlns="http://www.w3.org/2000/svg" width="16" height="16"><style type="text/css">.icon-canvas-transparent{opacity:0;fill:#F6F6F6;} .icon-vs-out{fill:#F6F6F6;} .icon-vs-bg{fill:#424242;}</style><path class="icon-canvas-transparent" d="M16 16h-16v-16h16v16z" id="canvas"/><path class="icon-vs-out" d="M8 15c-3.86 0-7-3.141-7-7 0-3.86 3.14-7 7-7 3.861 0 7 3.14 7 7 0 3.859-3.139 7-7 7z" id="outline"/><path class="icon-vs-bg" d="M14 8c0 3.314-2.686 6-6 6-3.313 0-6-2.686-6-6 0-3.313 2.687-6 6-6 3.314 0 6 2.687 6 6z" id="iconBg"/></svg>