<svg xmlns="http://www.w3.org/2000/svg" width="16" height="16"><style type="text/css">.icon-canvas-transparent{opacity:0;fill:#F6F6F6;} .icon-vs-out{fill:#F6F6F6;} .icon-vs-bg{fill:#424242;} .icon-vs-fg{fill:#F0EFF1;}</style><path class="icon-canvas-transparent" d="M16 16h-16v-16h16v16z" id="canvas"/><path class="icon-vs-out" d="M15 0v15h-4v-3h-6v3h-4v-15h4v2h6v-2h4z" id="outline"/><path class="icon-vs-bg" d="M2 1h2v1h-1v11h1v1h-2v-13zm3 2h6v8h-6v-8zm1 4h4v-2h-4v2zm0 3h4v-2h-4v2zm6-9v1h1v11h-1v1h2v-13h-2z" id="iconBg"/><path class="icon-vs-fg" d="M10 10h-4v-2h4v2zm0-5h-4v2h4v-2z" id="iconFg"/></svg>