<svg xmlns="http://www.w3.org/2000/svg" width="16" height="16"><style type="text/css">.icon-canvas-transparent{opacity:0;fill:#F6F6F6;} .icon-vs-out{fill:#F6F6F6;} .icon-vs-bg{fill:#424242;} .icon-vs-fg{fill:#F0EFF1;}</style><path class="icon-canvas-transparent" d="M16 16h-16v-16h16v16z" id="canvas"/><path class="icon-vs-out" d="M15 0v15h-3v1h-10v-10h3v-6h10z" id="outline"/><path class="icon-vs-bg" d="M7 3v3h-1v-5h8v13h-2v-1h1v-2h-1v-1h1v-3h-1v-1h1v-3h-6zm-4 4h8v8h-8v-8zm1 7h6v-4.793l-3.499 3.5-1.854-1.853.707-.707 1.146 1.147 3.293-3.294h-5.793v6z" id="iconBg"/><path class="icon-vs-fg" d="M10 14h-6v-6h5.793l-3.292 3.293-1.146-1.147-.707.707 1.854 1.853 3.498-3.499v4.793zm2-8h1v-3h-6v3h5zm0 5v2h1v-2h-1zm1-4h-1v3h1v-3z" id="iconFg"/></svg>