<svg xmlns="http://www.w3.org/2000/svg" width="16" height="16"><style type="text/css">.icon-canvas-transparent{opacity:0;fill:#F6F6F6;} .icon-vs-out{fill:#F6F6F6;} .icon-vs-bg{fill:#424242;}</style><path class="icon-canvas-transparent" d="M16 16h-16v-16h16v16z" id="canvas"/><path class="icon-vs-out" d="M16 4h-9.879l2 2h7.879v3h-9.879l2 2h7.879v3h-10v-.879l-2.879 2.879h-.242l-2.879-2.879v-.242l2-2 1 1 3-3v-.758l-3 3-3-3v-.243l2-2 1 1 3-3v-.757l-3 3-3-3v-.243l2-2 1 1 1.879-1.878h2.242l1 1h7.879v3z" id="outline"/><path class="icon-vs-bg" d="M15 2v1h-8v-1h8zm-8 6h8v-1h-8v1zm0 5h8v-1h-8v1zm-4 .293l-1-1-.707.707 1.707 1.707 3.707-3.707-.707-.707-3 3zm0-5l-1-1-.707.707 1.707 1.707 3.707-3.707-.707-.707-3 3zm0-5l-1-1-.707.707 1.707 1.707 3.707-3.707-.707-.707-3 3z" id="iconBg"/></svg>