<svg xmlns="http://www.w3.org/2000/svg" width="16" height="16"><style type="text/css">.icon-canvas-transparent{opacity:0;fill:#F6F6F6;} .icon-vs-out{fill:#F6F6F6;} .icon-vs-bg{fill:#424242;} .icon-vs-fg{fill:#F0EFF1;}</style><path class="icon-canvas-transparent" d="M16 16h-16v-16h16v16z" id="canvas"/><path class="icon-vs-out" d="M13 12h-9v-9h9v9z" id="outline"/><path class="icon-vs-bg" d="M11 6v-1h1v1h-1zm-2-2h-1v1h1v-1zm2 0h-1v1h1v-1zm1 4v-1h-1v1h1zm-5-4h-1v1h1v-1zm-1 7h1v-1h-1v1zm4 0h1v-1h-1v1zm-2 0h1v-1h-1v1zm-3-4v1h1v-1h-1zm0-2v1h1v-1h-1zm2 3h-1v1h1v-1zm0-2h-1v1h1v-1zm3 0v1h1v-1h-1zm0 3h1v-1h-1v1zm-1-2v-1h-1v1h1zm-1 0h-1v1h1v-1zm0 1v1h1v-1h-1zm0-2v-1h-1v1h1zm1 2h1v-1h-1v1zm1-2v-1h-1v1h1zm2 4v-1h-1v1h1zm-7-1v1h1v-1h-1zm3 0h-1v1h1v-1zm1 1h1v-1h-1v1z" id="iconBg"/><path class="icon-vs-fg" d="M9 6h1v1h-1v-1zm0 0v-1h-1v1h1zm-2-1h-1v1h1v-1zm0 3v1h1v-1h-1zm2 1h1v-1h-1v1zm2-3v-1h-1v1h1zm-3 0h-1v1h1v-1zm-1 1h-1v1h1v-1zm1 1h1v-1h-1v1zm2 0h1v-1h-1v1zm0 2h1v-1h-1v1zm-2-1v1h1v-1h-1zm-2 0v1h1v-1h-1z" id="iconFg"/></svg>