<svg xmlns="http://www.w3.org/2000/svg" width="16" height="16"><style type="text/css">.icon-canvas-transparent{opacity:0;fill:#F6F6F6;} .icon-vs-out{fill:#F6F6F6;} .icon-vs-bg{fill:#424242;} .icon-vs-fg{fill:#F0EFF1;}</style><path class="icon-canvas-transparent" d="M16 16h-16v-16h16v16z" id="canvas"/><path class="icon-vs-out" d="M16 0v15h-16v-15h16z" id="outline"/><path class="icon-vs-bg" d="M13 3h-10v9h10v-9zm-7 8h-2v-2h2v2zm0-3h-2v-2h2v2zm3 3h-2v-2h2v2zm0-3h-2v-2h2v2zm3 3h-2v-2h2v2zm0-3h-2v-2h2v2zm-11-7v13h14v-13h-14zm13 12h-12v-11h12v11z" id="iconBg"/><path class="icon-vs-fg" d="M2 2v11h12v-11h-12zm11 10h-10v-9h10v9zm-9-6h2v2h-2v-2zm3 3h2v2h-2v-2zm0-3h2v2h-2v-2zm3 3h2v2h-2v-2zm2-3v2h-2v-2h2zm-8 3h2v2h-2v-2z" id="iconFg"/></svg>