<svg xmlns="http://www.w3.org/2000/svg" width="16" height="16"><style type="text/css">.icon-canvas-transparent{opacity:0;fill:#F6F6F6;} .icon-vs-out{fill:#F6F6F6;} .icon-vs-bg{fill:#424242;} .icon-vs-fg{fill:#F0EFF1;}</style><path class="icon-canvas-transparent" d="M16 16h-16v-16h16v16z" id="canvas"/><path class="icon-vs-out" d="M15 15h-4v1h-10v-10h4v-6h10v15z" id="outline"/><path class="icon-vs-bg" d="M7 3v3h-1v-5h8v13h-3v-1h2v-2h-2v-1h2v-3h-2v-1h2v-3h-6zm-5 4h8v8h-8v-8zm1 7h6v-6h-6v6z" id="iconBg"/><path class="icon-vs-fg" d="M9 14h-6v-6h6v6zm4-8v-3h-6v3h6zm0 5h-2v2h2v-2zm0-4h-2v3h2v-3z" id="iconFg"/></svg>