<svg xmlns="http://www.w3.org/2000/svg" viewBox="0 0 16 16" enable-background="new 0 0 16 16"><style type="text/css">.icon-canvas-transparent{opacity:0;fill:#F6F6F6;} .icon-vs-out{fill:#F6F6F6;} .icon-vs-bg{fill:#424242;} .icon-vs-fg{fill:#F0EFF1;}</style><path class="icon-canvas-transparent" d="M16 16h-16v-16h16v16zm0 0h-16v-16h16v16z" id="canvas"/><path class="icon-vs-out" d="M16 16h-16v-16h16v16z" id="outline"/><path class="icon-vs-bg" d="M11.764 4.471l-.529 1.057-1.333-1.333.098-.195h1.293l.471.471zm-4.057-2.471h1.586l-1-1h-1.586l1 1zm-3 0h1.586l-1-1h-1.586l1 1zm4.724 3.138l-.529 1.057 1.333 1.333.529-1.057-1.333-1.333zm2.862-3.138l-1-1h-1.586l1 1h1.586zm-10.293.793v-.793h1.293l-1-1h-1.293v.793l1 1zm12 9.914v1.293h-.793l1 1h.793v-1.293l-1-1zm-7.207-.707l-1.586-1.586.793 1.586h.793zm.471-2.529l-.264.529-.793-1.586-.414-.414h-1.586l3.862 3.862.529-1.057-1.334-1.334zm1.167-2.333l-.695 1.391 1.333 1.333.695-1.391-1.333-1.333zm-6.431-1.345v-1.586l-1-1v1.586l1 1zm12 3.914v1.586l1 1v-1.586l-1-1zm0-6v1.586l1 1v-1.586l-1-1zm0 3v1.586l1 1v-1.586l-1-1zm-.293-4.707h.293v.293l1 1v-2.293h-2.293l1 1zm-11.414 12h-.293v-.293l-1-1v2.293h2.293l-1-1zm6.5 0h-1.586l1 1h1.586l-1-1zm-2 1l-1-1h-2.086l1 1h2.086zm-4.793-2.707v-2.086l-1-1v2.086l1 1zm9.793 1.707h-1.586l1 1h1.586l-1-1zm-9.793-5.207v-1.586l-1-1v1.586l1 1z" id="iconBg"/><g id="iconFg"><path class="icon-vs-fg" d="M2 14h12v-12h-12v12zm4-6l1 2 3-6h2l-4 8h-2l-2-4h2z"/></g></svg>