<svg xmlns="http://www.w3.org/2000/svg" width="16" height="16"><style type="text/css">.icon-canvas-transparent{opacity:0;fill:#F6F6F6;} .icon-vs-out{fill:#F6F6F6;} .icon-vs-bg{fill:#424242;}</style><path class="icon-canvas-transparent" d="M16 16h-16v-16h16v16z" id="canvas"/><path class="icon-vs-out" d="M10.382 1l-2.382 4.764v-3.746h-2v-2.018h-3.981v2.018h-2.019v3.982h2.019v1h-1.637l4 8h4.236l7-14h-5.236zm-4.382 6.764v-1.764h1.882l-1.382 2.764-.5-1z" id="outline"/><path class="icon-vs-bg" d="M14 2l-6 12h-3l-3-6h3l1.5 3 4.5-9h3zm-7 3h-2v2h-1.981v-2h-2.019v-1.982h2.019v-2.018h1.981v2.018h2v1.982z" id="iconBg"/></svg>