<svg xmlns="http://www.w3.org/2000/svg" viewBox="0 0 16 16"><style>.icon-canvas-transparent{opacity:0;fill:#f6f6f6}.icon-vs-out{fill:#f6f6f6}.icon-vs-bg{fill:#424242}.icon-vs-fg{fill:#f0eff1}.icon-vs-action-blue{fill:#00539c}</style><path class="icon-canvas-transparent" d="M16 16H0V0h16v16z" id="canvas"/><path class="icon-vs-out" d="M9.51 8v1.655l1.131-1.128 2.12 2.12L8.409 15h-.83l-4.337-4.354L5.36 8.527l1.149 1.146V8H3V1h10v7H9.51z" id="outline"/><path class="icon-vs-bg" d="M10 5H6V4h4v1zm2-3v5H4V2h8zm-1 1H5v3h6V3z" id="iconBg"/><path class="icon-vs-fg" d="M11 6V3H5v3h6zm-1-1H6V4h4v1z" id="iconFg"/><path class="icon-vs-action-blue" d="M8.509 12.063V8h-1v4.081l-2.148-2.14-.707.707L7.994 14l3.352-3.352-.706-.707-2.131 2.122z" id="colorAction"/></svg>