<svg xmlns="http://www.w3.org/2000/svg" width="16" height="16"><style type="text/css">.icon-canvas-transparent{opacity:0;fill:#F6F6F6;} .icon-vs-out{fill:#F6F6F6;} .icon-vs-bg{fill:#424242;}</style><path class="icon-canvas-transparent" d="M16 16h-16v-16h16v16z" id="canvas"/><path class="icon-vs-out" d="M14 13h-11v-11h11v11z" id="outline"/><path class="icon-vs-bg" d="M12 4h-1v-1h1v1zm1 1v-1h-1v1h1zm-9-1v1h1v-1h-1zm4-1h-1v1h1v-1zm-2 0h-1v1h1v-1zm4 0h-1v1h1v-1zm-1 2v-1h-1v1h1zm-2 0v-1h-1v1h1zm4 0v-1h-1v1h1zm1 0h-1v1h1v-1zm1 2v-1h-1v1h1zm-9-1v1h1v-1h-1zm4-1h-1v1h1v-1zm-2 0h-1v1h1v-1zm4 0h-1v1h1v-1zm-1 2v-1h-1v1h1zm-2 0v-1h-1v1h1zm4 0v-1h-1v1h1zm1 0h-1v1h1v-1zm1 2v-1h-1v1h1zm-9-1v1h1v-1h-1zm4-1h-1v1h1v-1zm-2 0h-1v1h1v-1zm4 0h-1v1h1v-1zm-1 2v-1h-1v1h1zm-2 0v-1h-1v1h1zm4 0v-1h-1v1h1zm1 0h-1v1h1v-1zm1 2v-1h-1v1h1zm-9-1v1h1v-1h-1zm4-1h-1v1h1v-1zm-2 0h-1v1h1v-1zm4 0h-1v1h1v-1zm-1 2v-1h-1v1h1zm-2 0v-1h-1v1h1zm4 0v-1h-1v1h1zm1 0h-1v1h1v-1zm-4 0h-1v1h1v-1zm-2 0h-1v1h1v-1zm4 0h-1v1h1v-1z" id="iconBg"/></svg>