<svg xmlns="http://www.w3.org/2000/svg" width="16" height="16"><style type="text/css">.icon-canvas-transparent{opacity:0;fill:#F6F6F6;} .icon-vs-out{fill:#F6F6F6;} .icon-vs-bg{fill:#424242;} .icon-vs-fg{fill:#F0EFF1;}</style><path class="icon-canvas-transparent" d="M16 16h-16v-16h16v16z" id="canvas"/><path class="icon-vs-out" d="M16 8c0 4.418-3.582 8-8 8s-8-3.582-8-8 3.582-8 8-8 8 3.582 8 8z" id="outline"/><path class="icon-vs-bg" d="M7 7h-2v-2h2v2zm0-5.92c-.707.101-1.378.307-2 .603v1.317h2v-1.92zm-2 13.237c.622.296 1.293.502 2 .602v-1.919h-2v1.317zm2-5.317h2v-2h-2v2zm4-2v-2h-2v2h2zm0-5.317c-.622-.296-1.293-.502-2-.603v1.92h2v-1.317zm-9.317 3.317c-.296.622-.502 1.293-.603 2h1.92v-2h-1.317zm13.237 2c-.101-.707-.307-1.378-.602-2h-1.318v2h1.92zm-13.84 2c.101.707.307 1.378.603 2h1.317v-2h-1.92zm7.92 5.92c.707-.101 1.378-.307 2-.602v-1.318h-2v1.92zm-2-3.92v2h2v-2h-2zm-4 0v1.894l.105.106h1.895v-2h-2zm8 2h1.894l.106-.106v-1.894h-2v2zm2-2h1.317c.296-.622.502-1.293.602-2h-1.919v2zm-8-4h-2v2h2v-2zm8-2v-1.895l-.106-.105h-1.894v2h2zm-2 4h2v-2h-2v2zm-6-6h-1.895l-.105.105v1.895h2v-2zm4 8h2v-2h-2v2zm0-6v-2h-2v2h2zm-4 4v2h2v-2h-2z" id="iconBg"/><path class="icon-vs-fg" d="M12.894 3h-1.894v-1.317c.703.335 1.344.778 1.894 1.317zm.106.105v1.895h1.317c-.335-.704-.778-1.344-1.317-1.895zm1.92 5.895c.047-.328.08-.66.08-1s-.033-.672-.08-1h-1.92v2h1.92zm-13.237-4h1.317v-1.895c-.539.551-.982 1.191-1.317 1.895zm7.317-3.92c-.328-.047-.66-.08-1-.08s-.672.033-1 .08v1.92h2v-1.92zm-5.895 1.92h1.895v-1.317c-.704.335-1.344.778-1.895 1.317zm-2.025 4c-.047.328-.08.66-.08 1s.033.672.08 1h1.92v-2h-1.92zm5.92 7.92c.328.047.66.08 1 .08s.672-.033 1-.08v-1.92h-2v1.92zm7.317-3.92h-1.317v1.894c.539-.55.982-1.191 1.317-1.894zm-1.423 2h-1.894v1.317c.703-.335 1.344-.778 1.894-1.317zm-9.894-.106v-1.894h-1.317c.335.703.778 1.344 1.317 1.894zm2 1.423v-1.317h-1.895c.551.539 1.191.982 1.895 1.317zm2-3.317h2v-2h-2v2zm0-8h-2v2h2v-2zm4 2v-2h-2v2h2zm-2 8h2v-2h-2v2zm-4-2v2h2v-2h-2zm0-6h-2v2h2v-2zm0 2v2h2v-2h-2zm-2 2v2h2v-2h-2zm6-4h-2v2h2v-2zm0 2v2h2v-2h-2zm2 2v2h2v-2h-2zm2-2v-2h-2v2h2z" id="iconFg"/></svg>