<svg xmlns="http://www.w3.org/2000/svg" viewBox="0 0 16 16"><style>.icon-canvas-transparent{opacity:0;fill:#f6f6f6}.icon-vs-out{fill:#f6f6f6}.icon-vs-bg{fill:#424242}.icon-vs-action-blue{fill:#00539c}</style><path class="icon-canvas-transparent" d="M16 16H0V0h16v16z" id="canvas"/><path class="icon-vs-out" d="M11.343 11.938c1.315-.612 1.653-1.848 1.653-2.416 0-1.559-1.093-2.493-2.319-2.715l2.263-2.264L8.398 0h-.803L3.052 4.542l2.259 2.259c-1.213.209-2.327 1.144-2.327 2.72 0 .57.341 1.814 1.671 2.424L3 13.6v.555l.84.845h1.992l2.172-2.17 2.17 2.17h1.99l.836-.844v-.561l-1.657-1.657zM5.997 6.775c-.071-.005-.139-.016-.211-.017l.211-.211v.228zm4-.004v-.223l.205.206c-.07 0-.136.013-.205.017z" id="outline"/><path class="icon-vs-bg" d="M9.521 11.297c2.445 0 2.475-1.758 2.475-1.775 0-1.345-1.155-1.746-1.772-1.77-1.402 0-1.988.878-2.234 1.635-.247-.755-.836-1.635-2.238-1.635-.612.023-1.768.424-1.768 1.769 0 .018.027 1.775 2.475 1.775h.26l-2.583 2.582.699.703 3.169-3.166 3.167 3.166.697-.704-2.581-2.581h.234zm.589-2.555c.064.003.897.057.897.777-.002.033-.033.785-1.356.785h-.844v-.227c0-.222.063-1.333 1.303-1.335zm-2.934 1.336v.227H6.33c-1.321 0-1.353-.752-1.354-.783 0-.722.826-.776.89-.779 1.246.001 1.31 1.112 1.31 1.335z" id="iconBg"/><path class="icon-vs-action-blue" d="M7.492 2.937V7h1V2.919l2.148 2.14.707-.707L8.007 1 4.654 4.352l.707.707 2.131-2.122z" id="colorAction"/></svg>