<svg xmlns="http://www.w3.org/2000/svg" viewBox="0 0 16 16" enable-background="new 0 0 16 16"><style type="text/css">.icon-canvas-transparent{opacity:0;fill:#F6F6F6;} .icon-vs-out{fill:#F6F6F6;} .icon-vs-bg{fill:#424242;} .icon-vs-fg{fill:#F0EFF1;}</style><path class="icon-canvas-transparent" d="M16 16h-16v-16h16v16z" id="canvas"/><path class="icon-vs-out" d="M3 16v-3h-3v-13h13v3h3v13h-13z" id="outline"/><path class="icon-vs-fg" d="M11 4h-7v7h-2v-9h9v2zm3 1v9h-9v-9h9zm-3.793 4.5l2.146-2.146-.707-.707-2.146 2.146-2.146-2.147-.708.708 2.147 2.146-2.146 2.146.707.707 2.146-2.146 2.146 2.146.707-.707-2.146-2.146z" id="iconFg"/><path class="icon-vs-bg" d="M12 4v-3h-11v11h3v3h11v-11h-3zm-8 7h-2v-9h9v2h-7v7zm10 3h-9v-9h9v9zm-3.793-4.5l2.146 2.146-.707.707-2.146-2.146-2.146 2.146-.707-.707 2.146-2.146-2.147-2.146.707-.707 2.147 2.146 2.146-2.146.707.707-2.146 2.146z" id="iconBg"/></svg>