<svg xmlns="http://www.w3.org/2000/svg" viewBox="0 0 16 16"><style>.icon-canvas-transparent{opacity:0;fill:#f6f6f6}.icon-vs-out{fill:#f6f6f6}.icon-vs-bg{fill:#424242}.icon-vs-fg{fill:#f0eff1}.icon-vs-action-blue{fill:#00539c}</style><path class="icon-canvas-transparent" d="M16 16H0V0h16v16z" id="canvas"/><path class="icon-vs-out" d="M13 8v7H3V8h3.492V6.345L5.36 7.473l-2.12-2.12L7.593 1h.829l4.338 4.354-2.119 2.119-1.15-1.145V8H13z" id="outline"/><path class="icon-vs-bg" d="M4 9v5h8V9H4zm7 4H5v-3h6v3zm-1-1H6v-1h4v1z" id="iconBg"/><path class="icon-vs-fg" d="M5 10v3h6v-3H5zm5 2H6v-1h4v1z" id="iconFg"/><path class="icon-vs-action-blue" d="M7.492 3.937V8h1V3.919l2.148 2.14.707-.707L8.007 2 4.654 5.352l.707.707 2.131-2.122z" id="colorAction"/></svg>