<svg xmlns="http://www.w3.org/2000/svg" viewBox="0 0 16 16"><style>.icon-canvas-transparent{opacity:0;fill:#f6f6f6}.icon-vs-out{fill:#f6f6f6}.icon-vs-bg{fill:#424242}</style><path class="icon-canvas-transparent" d="M16 16H0V0h16v16z" id="canvas"/><path class="icon-vs-out" d="M16 5.646l-2.061-2.061-1.97 1.97L10 3.586l-2 2V4H0v8h8v-1.525l2 2 1.97-1.97 1.97 1.97L16 10.414v-.828L14.444 8.03 16 6.475v-.829zM8 9.525v-2.99L9.495 8.03 8 9.525z" id="outline"/><path class="icon-vs-bg" d="M1 11h6V5H1v6zm1-5h4v4H2V6zm11.03 2.03L15 10l-1.061 1.061-1.97-1.97L10 11.061 8.939 10l1.97-1.97-1.97-1.97L10 5l1.97 1.97L13.939 5 15 6.061 13.03 8.03z" id="iconBg"/></svg>