<svg xmlns="http://www.w3.org/2000/svg" width="16" height="16"><style type="text/css">.icon-canvas-transparent{opacity:0;fill:#F6F6F6;} .icon-vs-out{fill:#F6F6F6;} .icon-vs-bg{fill:#424242;} .icon-vs-fg{fill:#F0EFF1;} .icon-vs-red{fill:#E51400;} .icon-white{fill:#FFFFFF;}</style><path class="icon-canvas-transparent" d="M16 16h-16v-16h16v16z" id="canvas"/><path class="icon-vs-out" d="M16 11.5c0 2.485-2.015 4.5-4.5 4.5-2.314 0-4.198-1.753-4.45-4h-2.05v3h-4v-15h4v2h6v-2h4v8.703c.616.771 1 1.735 1 2.797z" id="outline"/><path class="icon-vs-bg" d="M14 1v6.76c-.307-.205-.646-.358-1-.484v-5.276h-1v-1h2zm-12 1v12h2v-1h-1v-11h1v-1h-2v1zm5.05 9h-2.05v-8h6v4.05c-.865.097-1.65.433-2.297.95h-2.703v2h1.275c-.113.318-.186.653-.225 1zm-1.05-4h4v-2h-4v2z" id="iconBg"/><path class="icon-vs-fg" d="M10 7h-4v-2h4v2zm-1.297 1h-2.703v2h1.275c.284-.797.781-1.482 1.428-2z" id="iconFg"/><path class="icon-vs-red" d="M11.5 8c-1.933 0-3.5 1.567-3.5 3.5s1.567 3.5 3.5 3.5 3.5-1.567 3.5-3.5-1.567-3.5-3.5-3.5zm1.854 4.646l-.707.707-1.147-1.146-1.146 1.147-.707-.707 1.147-1.146-1.147-1.146.707-.707 1.146 1.147 1.146-1.147.707.707-1.146 1.145 1.147 1.146z" id="notificationBg"/><path class="icon-white" d="M12.207 11.5l1.147 1.146-.707.707-1.147-1.146-1.146 1.147-.707-.707 1.147-1.146-1.147-1.146.707-.707 1.146 1.147 1.146-1.147.707.707-1.146 1.145z" id="notificationFg"/></svg>