<svg xmlns="http://www.w3.org/2000/svg" width="16" height="16"><style type="text/css">.icon-canvas-transparent{opacity:0;fill:#F6F6F6;} .icon-vs-out{fill:#F6F6F6;} .icon-vs-bg{fill:#424242;} .icon-vs-fg{fill:#F0EFF1;}</style><path class="icon-canvas-transparent" d="M16 16h-16v-16h16v16z" id="canvas"/><path class="icon-vs-out" d="M16 15h-4v1h-12v-10h1v-6h15v15z" id="outline"/><path class="icon-vs-bg" d="M3 2h-1v-1h1v1zm2 1h-1v1h1v-1zm-2 0h-1v1h1v-1zm-2 4h10v8h-10v-8zm1 7h8v-5h-8v5zm1-9h-1v1h1v-1zm6-2h-1v1h1v-1zm0-2h-1v1h1v-1zm-2 2h-1v1h1v-1zm0-2h-1v1h1v-1zm-2 0h-1v1h1v-1zm7 1h1v-1h-1v1zm2 8h1v-1h-1v1zm0-2h1v-1h-1v1zm0-2h1v-1h-1v1zm0-5v1h1v-1h-1zm0 3h1v-1h-1v1zm0 8h1v-1h-1v1zm-2 2h1v-1h-1v1zm-2-12h1v-1h-1v1zm0 2h1v-1h-1v1zm4 10h1v-1h-1v1zm-2-10h1v-1h-1v1z" id="iconBg"/><path class="icon-vs-fg" d="M10 14h-8v-5h8v5z" id="iconFg"/></svg>