<svg xmlns="http://www.w3.org/2000/svg" width="16" height="16"><style type="text/css">.icon-canvas-transparent{opacity:0;fill:#F6F6F6;} .icon-vs-out{fill:#F6F6F6;} .icon-vs-bg{fill:#424242;} .icon-vs-fg{fill:#F0EFF1;}</style><path class="icon-canvas-transparent" d="M16 16h-16v-16h16v16z" id="canvas"/><path class="icon-vs-out" d="M16 0v15h-2.025l-.537.417-.536-.417h-.396l-.106.842-.769.1c-.272.037-.447.058-.631.058s-.359-.021-.535-.046l-.769-.099-.192-.782-.01-.073h-.396l-.535.417-.538-.417h-8.025v-15h16z" id="outline"/><path class="icon-vs-bg" d="M13.714 11.658c-.069.285-.183.551-.331.795l.768.984c-.207.268-.445.506-.712.713l-.985-.768c-.244.148-.51.262-.795.332l-.154 1.234c-.168.023-.332.052-.505.052l-.504-.051-.154-1.234c-.285-.07-.551-.184-.795-.332l-.985.767c-.267-.207-.505-.445-.712-.713l.768-.984c-.148-.244-.262-.51-.331-.795l-1.235-.154c-.023-.166-.052-.33-.052-.504 0-.172.029-.336.051-.504l1.235-.154c.069-.285.183-.551.331-.795l-.767-.984c.207-.268.445-.506.712-.713l.985.768c.244-.148.51-.262.795-.33l.154-1.236c.167-.023.331-.052.504-.052l.504.051.154 1.236c.285.068.551.182.795.33l.985-.768c.267.207.505.445.712.713l-.768.984c.148.244.262.51.331.795l1.235.154c.023.169.052.333.052.505 0 .174-.029.338-.051.504l-1.235.154zm-2.714-2.658c-1.107 0-2 .896-2 2s.893 2 2 2 2-.896 2-2-.893-2-2-2zm0 1c-.553 0-1 .447-1 1s.447 1 1 1 1-.447 1-1-.447-1-1-1zm-4.417 3.436l.34-.436h-4.923v-11h12v5.02l.052.04c.333.259.632.559.89.891l.058.075v-7.026h-14v13h6.02l-.437-.564zm3.785-7.377l.455-.049-.283-.472-.267.533.095-.012zm-4.309 5.573c-.038-.27-.059-.447-.059-.632 0-.182.021-.356.046-.533l.098-.769.19-.047-.795-1.192-1.967 3.541h2.534l-.047-.368zm1-3.681c.258-.333.557-.632.89-.891l.614-.477.243.189 1.248-2.495c.081-.164.245-.27.427-.277.216-.017.354.086.448.242l1.122 1.87.254.033.162.661.218.363.315-.246v-3.923h-10v7.97l2.063-3.712c.084-.153.243-.251.416-.258.169-.018.34.077.437.222l.79 1.184.353-.455z" id="iconBg"/><path class="icon-vs-fg" d="M11 9c-1.104 0-2 .896-2 2 0 1.106.896 2 2 2s2-.894 2-2c0-1.104-.896-2-2-2zm0 3c-.553 0-1-.447-1-1s.447-1 1-1 1 .447 1 1-.447 1-1 1zm1.467-5.194l.218.363-.145.113-.044-.355-.029-.121zm-5.544 6.194h-4.923v-11h12v5.02l-.563-.437-.437.34v-3.923h-10v7.97l2.063-3.712c.084-.153.243-.251.416-.258.169-.018.34.077.437.222l.79 1.184-.123.159.698.895-.354.044-.594.147-.794-1.192-1.967 3.541h2.534l.052.4 1.123.14-.358.46zm4.006-8.757l1.122 1.87-.516-.066c-.176-.026-.351-.047-.535-.047l-.177.01-.283-.472-.267.533-.673.087-.14 1.124-.655-.51 1.248-2.495c.082-.164.246-.27.428-.277.215-.017.354.087.448.243z" id="iconFg"/></svg>