<svg xmlns="http://www.w3.org/2000/svg" width="16" height="16"><style type="text/css">.icon-canvas-transparent{opacity:0;fill:#F6F6F6;} .icon-vs-out{fill:#F6F6F6;} .icon-vs-bg{fill:#424242;} .icon-vs-fg{fill:#F0EFF1;}</style><path class="icon-canvas-transparent" d="M16 16h-16v-16h16v16z" id="canvas"/><path class="icon-vs-out" d="M16 16h-16v-16h16v16z" id="outline"/><path class="icon-vs-bg" d="M1 15h6v-6h-6v6zm1-5h4v4h-4v-4zm-1-3h6v-6h-6v6zm2-4h2v2h-2v-2zm6 12h6v-6h-6v6zm1-5h4v4h-4v-4zm-1-9v6h6v-6h-6zm5 5h-4v-4h4v4z" id="iconBg"/><path class="icon-vs-fg" d="M5 5h-2v-2h2v2zm5-3v4h4v-4h-4zm-8 12h4v-4h-4v4zm8 0h4v-4h-4v4z" id="iconFg"/></svg>