<svg xmlns="http://www.w3.org/2000/svg" width="16" height="16"><style type="text/css">.icon-canvas-transparent{opacity:0;fill:#F6F6F6;} .icon-vs-out{fill:#F6F6F6;} .icon-vs-bg{fill:#424242;} .icon-vs-fg{fill:#F0EFF1;} .icon-vs-action-orange{fill:#C27D1A;}</style><path class="icon-canvas-transparent" d="M16 16h-16v-16h16v16z" id="canvas"/><path class="icon-vs-out" d="M16 9v7h-7v-3.586l-2.414-2.414h-2.586v-3.586l-1.5 1.5-2.5-2.5v-1.828l3.586-3.586h.827l3 3h.172l1.415-1.414 2.914 2.914-1.5 1.5 2.5 2.5-.5.5h3.586z" id="outline"/><path class="icon-vs-action-orange" d="M7.5 9.5l.5-.5h-3v-4h-1l-1.5 1.5-2-2 3.5-3.5 2 2-1 1h3l1-1 1.5 1.5-2.5 2.5-1.5-1.5.5-.5h-1v3h3l1-1 1.5 1.5-.5.5h-2v2l-1.5-1.5z" id="iconBg"/><path class="icon-vs-bg" d="M10 10v5h5v-5h-5zm4 3l-1 1v-1.5l-1.5 1.5-.5-.5 1.5-1.5h-1.5l1-1h2v2z" id="notificationBg"/><path class="icon-vs-fg" d="M14 11v2l-1 1v-1.5l-1.5 1.5-.5-.5 1.5-1.5h-1.5l1-1h2z" id="notificationFg"/></svg>