<svg xmlns="http://www.w3.org/2000/svg" width="16" height="16"><style type="text/css">.icon-canvas-transparent{opacity:0;fill:#F6F6F6;} .icon-vs-out{fill:#F6F6F6;} .icon-vs-bg{fill:#424242;} .icon-vs-fg{fill:#F0EFF1;}</style><path class="icon-canvas-transparent" d="M16 16h-16v-16h16v16z" id="canvas"/><path class="icon-vs-out" d="M16 3.314v7.987l-6.211 4.555h-.487l-1.725-1.087c-.806.758-1.883 1.231-3.077 1.231-2.485 0-4.5-2.015-4.5-4.5 0-1.619.862-3.026 2.145-3.819v-4.378l6.529-3.303h1.043l6.283 3.314z" id="outline"/><path class="icon-vs-bg" d="M9.197.856l-6.052 3.061v3.313c.333-.106.68-.174 1.042-.199v-1.882l4.864 2.716v5.472l-.358-.234c-.122.317-.268.622-.454.9l1.283.808 5.478-4.017v-6.877l-5.803-3.061zm.25 6.019l-4.676-2.667 4.355-2.212 4.642 2.287-4.321 2.592zm4.598 3.452l-3.877 2.793v-5.224l3.877-2.537v4.968zm-9.545-2.327c-1.933 0-3.5 1.567-3.5 3.5s1.567 3.5 3.5 3.5 3.5-1.567 3.5-3.5-1.567-3.5-3.5-3.5zm.5 6h-1v-1h1v1zm1-3c0 .551-.449 1-1 1v.5h-1v-.5c0-.551.449-1 1-1v-1c-.08-.044-.252-.102-.5-.102s-.42.058-.5.102v1h-1v-1c0-.58.631-1 1.5-1s1.5.42 1.5 1v1z" id="iconBg"/><path class="icon-vs-fg" d="M5 12.5h-1v-.5c0-.551.449-1 1-1v-1c-.08-.044-.252-.102-.5-.102s-.42.058-.5.102v1h-1v-1c0-.58.631-1 1.5-1s1.5.42 1.5 1v1c0 .551-.449 1-1 1v.5zm0 .5h-1v1h1v-1z" id="iconFg"/></svg>