<svg xmlns="http://www.w3.org/2000/svg" width="16" height="16"><style type="text/css">.icon-canvas-transparent{opacity:0;fill:#F6F6F6;} .icon-vs-out{fill:#F6F6F6;} .icon-vs-bg{fill:#424242;} .icon-vs-fg{fill:#F0EFF1;}</style><path class="icon-canvas-transparent" d="M16 16h-16v-16h16v16z" id="canvas"/><path class="icon-vs-out" d="M16 15h-7.019l-1 1h-.784l-1.001-1h-6.196v-13h5v-1h6v1h5v13z" id="outline"/><path class="icon-vs-bg" d="M9.604 12.963l-2.015 2.014-1.388-1.385.595-.592h-2.796v-3.363l-1.182 1.174-1.818-1.811 3.001-3 1.812 1.814-1.185 1.186h2.902l.682-.684 1.388 1.383-2.015 2.016-1.388-1.385.332-.33h-1.529v2h2.795l.42-.422 1.389 1.385zm5.396-9.963v11h-4v-11h4zm-1 9h-2v1h2v-1zm0-2h-2v1h2v-1zm0-6h-2v2h2v-2zm-4 7.946v-1.233l-.617.617.617.616zm-.019 2.054h.019v-.019l-.019.019zm-3.981-7.417v-4.583h4v6.687l-1.791-1.786-.944.947-1.265-1.265zm1-2.583h2v-1h-2v1zm-4.413 2h-.587v-2h2v.587l.002-.002.998.998v-2.583h-4v4.587l1.587-1.587zm-.587 7v-1h.595l-1.595-1.588v3.588h2v-1h-1z" id="iconBg"/><path class="icon-vs-fg" d="M14 4v2h-2v-2h2zm-7 0h2v-1h-2v1zm5 7h2v-1h-2v1zm0 2h2v-1h-2v1zm-9-.959l-.182.182-.223-.223h-.595v1h1v-.959zm1-7.454v-.587h-2v2h.587l1.413-1.413z" id="iconFg"/></svg>