<svg xmlns="http://www.w3.org/2000/svg" width="16" height="16"><style type="text/css">.icon-canvas-transparent{opacity:0;fill:#F6F6F6;} .icon-vs-out{fill:#F6F6F6;} .icon-vs-bg{fill:#424242;} .icon-vs-action-orange{fill:#C27D1A;}</style><path class="icon-canvas-transparent" d="M16 16h-16v-16h16v16z" id="canvas"/><path class="icon-vs-out" d="M14 11v2h1v3h-5v-3h1v-2h-.586l-1.414 1.414-2.414-2.414h-2.586v-3.586l-1.5 1.5-2.5-2.5v-1.829l3.586-3.585h.828l3 3h.172l1.414-1.415 2.914 2.915-1.5 1.5 2 2h2.586v3h-1z" id="outline"/><path class="icon-vs-action-orange" d="M11.5 8.5l-2.5 2.5-1.5-1.5.5-.5h-3v-4h-1l-1.5 1.5-2-2 3.5-3.5 2 2-1 1h3l1-1 1.5 1.5-2.5 2.5-1.5-1.5.5-.5h-1v3h3l1-1 1.5 1.5z" id="iconBg"/><path class="icon-vs-bg" d="M13 14h-1v-4h1v4zm1-5h-1v1h1v-1zm-2 0h-1v1h1v-1zm0 5h-1v1h1v-1zm2 0h-1v1h1v-1z" id="notificationBg"/></svg>