<svg xmlns="http://www.w3.org/2000/svg" width="16" height="16"><style type="text/css">.icon-canvas-transparent{opacity:0;fill:#F6F6F6;} .icon-vs-out{fill:#F6F6F6;} .icon-vs-bg{fill:#424242;} .icon-vs-fg{fill:#F0EFF1;} .icon-vs-action-orange{fill:#C27D1A;}</style><path class="icon-canvas-transparent" d="M16 16h-16v-16h16v16z" id="canvas"/><path class="icon-vs-out" d="M16 10.599v2.803l-1.599 1.598h-1.623l-1.117 1h-1.661v-1.586l-1-1.001v-.999l-2.414-2.414h-2.586v-3.586l-1.5 1.5-2.5-2.5v-1.828l3.586-3.586h.828l3 3h.172l1.414-1.415 2.914 2.915-1.5 1.5 2.5 2.5-.5.5h1.986l1.6 1.599z" id="outline"/><path class="icon-vs-action-orange" d="M11.5 8.5l-2.5 2.5-1.5-1.5.5-.5h-3v-4h-1l-1.5 1.5-2-2 3.5-3.5 2 2-1 1h3l1-1 1.5 1.5-2.5 2.5-1.5-1.5.5-.5h-1v3h3l1-1 1.5 1.5z" id="iconBg"/><path class="icon-vs-bg" d="M13.986 10h-3.001l-.985.985v2.014l1 1.001v1.25l1.396-1.25h1.591l1.013-1.013v-1.975l-1.014-1.012zm.015 3h-3v-2h3v2z" id="notificationBg"/><path class="icon-vs-fg" d="M14 13h-3v-2h3v2z" id="notificationFg"/></svg>