<svg xmlns="http://www.w3.org/2000/svg" viewBox="0 0 16 16"><style>.icon-canvas-transparent{opacity:0;fill:#f6f6f6}.icon-vs-out{fill:#f6f6f6}.icon-vs-bg{fill:#424242}.icon-vs-action-orange{fill:#c27d1a}</style><path class="icon-canvas-transparent" d="M16 16H0V0h16v16z" id="canvas"/><path class="icon-vs-out" d="M4 10h2.586l.458.458H7v3h3.757l-1.146 1.149L11.004 16h1.455L16 12.471v-.995L10.414 6l1.5-1.5L9 1.586 7.586 3h-.172l-3-3h-.828L0 3.586v1.828l2.5 2.5 1.5-1.5z" id="outline"/><path class="icon-vs-action-orange" d="M8 9l-.5.5.958.958h2.28L9.611 9.327l1.375-1.375-.16-.126L10 7 9 8H6V5h1l-.5.5L8 7l2.5-2.5L9 3 8 4H5l1-1-2-2L.5 4.5l2 2L4 5h1v4z" id="iconBg"/><path class="icon-vs-bg" d="M13.146 11.458H8v1h5.164l-2.14 2.148.707.707 3.352-3.34-3.352-3.352-.707.707 2.122 2.13z" id="notificationBg"/></svg>