<svg xmlns="http://www.w3.org/2000/svg" width="16" height="16"><style type="text/css">.icon-canvas-transparent{opacity:0;fill:#F6F6F6;} .icon-vs-out{fill:#F6F6F6;} .icon-vs-bg{fill:#424242;} .icon-vs-fg{fill:#F0EFF1;}</style><path class="icon-canvas-transparent" d="M16 16h-16v-16h16v16z" id="canvas"/><path class="icon-vs-out" d="M11.023 0h-6.059c-.952 0-1.964.701-1.964 2l.001 3.586-3.001 3.002v.829l2.818 2.806.182-.182v1.959h2.195l2.002 2h.783l2.001-2h2.983c1.442 0 2.007-1.175 2.035-2v-8.448l-3.976-3.552z" id="outline"/><path class="icon-vs-bg" d="M14 4v8s-.035 1-1.035 1h-1.983l.037-.037-.965-.963h2.946v-7h-3v-3h-5v3.584l-.999-.999-.001.002v-2.587c0-1 .964-1 .964-1h5.677l3.359 3zm-5.785 7.578l-.42.422h-2.795v-2h1.53l-.332.33 1.387 1.385 2.015-2.015-1.389-1.384-.682.684h-2.901l1.184-1.187-1.811-1.813-3.001 3.001 1.818 1.811 1.182-1.175v3.363h2.796l-.594.592 1.387 1.386 2.015-2.014-1.389-1.386z" id="iconBg"/><path class="icon-vs-fg" d="M13 5v7h-2.946l-.671-.669 1.632-1.632-2.806-2.798-.944.948-2.265-2.265v-3.584h5v3h3z" id="iconFg"/></svg>