<svg xmlns="http://www.w3.org/2000/svg" viewBox="0 0 16 16"><style>.icon-canvas-transparent{opacity:0;fill:#f6f6f6}.icon-vs-out{fill:#f6f6f6}.icon-vs-action-orange{fill:#c27d1a}.icon-vs-action-red{fill:#a1260d}</style><path class="icon-canvas-transparent" d="M16 16H0V0h16v16z" id="canvas"/><path class="icon-vs-out" d="M16 10.475l-1.556 1.556L16 13.586v.828L14.414 16h-.949l-1.495-1.495L10.475 16h-.95l-2-2 1.97-1.97-1.263-1.263-.427.428L6.608 10H4V6.428L2.515 7.907 0 5.388V3.593L3.591 0h.852l2.985 2.994L7.422 3h.179l1.413-1.422 2.918 2.912-1.502 1.502 2.504 2.494-1.016 1.018.052.052 1.97-1.97L16 9.646v.829z" id="outline"/><path class="icon-vs-action-orange" d="M7.517 9.494l.024-.024.47-.47H5V5h-.983l-1.5 1.494-2-2.003 3.5-3.502 2 2.006-1 1.005h3l1-1.006 1.5 1.497-2.5 2.498-1.5-1.494L7.018 5H6v3h3.011l1.006-1.006 1.5 1.494-.002.002.002.002-.307.306L10 7.586 7.805 9.781l-.288-.287z" id="iconBg"/><path class="icon-vs-action-red" d="M13.03 12.03L15 14l-1.061 1.061-1.97-1.97L10 15.061 8.939 14l1.97-1.97-1.97-1.97L10 9l1.97 1.97L13.939 9 15 10.061l-1.97 1.969z" id="colorAction"/></svg>