<svg xmlns="http://www.w3.org/2000/svg" width="16" height="16"><style type="text/css">.icon-canvas-transparent{opacity:0;fill:#F6F6F6;} .icon-vs-out{fill:#F6F6F6;} .icon-vs-bg{fill:#424242;} .icon-vs-fg{fill:#F0EFF1;}</style><path class="icon-canvas-transparent" d="M16 16h-16v-16h16v16z" id="canvas"/><path class="icon-vs-out" d="M16 7.414l-2.086 2.086 2.086 2.086v.828l-3.586 3.586h-.828l-1.918-1.918c-1.008 1.173-2.5 1.918-4.168 1.918-3.037 0-5.5-2.463-5.5-5.5 0-1.157.36-2.229.97-3.116l-.97-.97v-.828l5.586-5.586h.828l4 4-1 1h2.172l1.414-1.414 3 3v.828z" id="outline"/><path class="icon-vs-bg" d="M8.657 6h3.343l1-1 2 2-3 3-1.311-1.312c-.115-.33-.261-.646-.434-.944l.745-.744h-1.257c-.314-.381-.681-.715-1.086-1zm3.342 5.002l-1.024-.001c-.031.344-.096.677-.188.999h.213l-.311.311c-.115.33-.261.646-.434.943l1.745 1.746 3-3-2-2-1.001 1.002zm-6.499-6.002c.74 0 1.444.148 2.087.413l1.413-1.413-3-3-5 5 .611.611c.995-.995 2.37-1.611 3.889-1.611zm4.5 5.5c0 2.485-2.014 4.5-4.5 4.5s-4.5-2.015-4.5-4.5 2.015-4.5 4.5-4.5 4.5 2.015 4.5 4.5zm-4-3.45v2.95h2.95c-.221-1.53-1.42-2.729-2.95-2.95zm2.65 4.95h-4.65v-4.65c-1.179.563-2 1.756-2 3.15 0 1.934 1.567 3.5 3.5 3.5 1.395 0 2.588-.82 3.15-2z" id="iconBg"/><path class="icon-vs-fg" d="M8.954 10h-2.954v-2.95c1.53.221 2.733 1.423 2.954 2.95zm-3.954 2h-1v-4.65c-1.179.563-2 1.756-2 3.15 0 1.934 1.567 3.5 3.5 3.5 1.394 0 2.587-.82 3.15-2h-3.65z" id="iconFg"/></svg>