<svg xmlns="http://www.w3.org/2000/svg" width="16" height="16"><style type="text/css">.icon-canvas-transparent{opacity:0;fill:#F6F6F6;} .icon-vs-out{fill:#F6F6F6;} .icon-vs-bg{fill:#424242;} .icon-vs-action-orange{fill:#C27D1A;}</style><path class="icon-canvas-transparent" d="M16 16h-16v-16h16v16z" id="canvas"/><path class="icon-vs-out" d="M16 10.057l-1.414 1.415-.707.707-2.122 2.121-.707.707-.235.236-3.032.757h-.703l.729-3.763.236-.236.271-.271-1.73-1.73h-2.586v-3.586l-1.5 1.5-2.5-2.5v-1.829l3.586-3.585h.828l3 3h.172l1.414-1.415 2.914 2.915-1.5 1.5 1.816 1.816.765-.764 3.005 3.005z" id="outline"/><path class="icon-vs-action-orange" d="M11.5 8.5l-2.5 2.5-1.5-1.5.5-.5h-3v-4h-1l-1.5 1.5-2-2 3.5-3.5 2 2-1 1h3l1-1 1.5 1.5-2.5 2.5-1.5-1.5.5-.5h-1v3h3l1-1 1.5 1.5z" id="iconBg"/><path class="icon-vs-bg" d="M8.752 12.708l1.591 1.592-2.121.707.53-2.299zm4.243-4.242l-.708.707 1.592 1.592.707-.708-1.591-1.591zm-3.536 3.535l1.591 1.592 2.122-2.121-1.592-1.592-2.121 2.121z" id="notificationBg"/></svg>