<svg xmlns="http://www.w3.org/2000/svg" viewBox="0 0 16 16"><style>.icon-canvas-transparent{opacity:0;fill:#f6f6f6}.icon-vs-out{fill:#f6f6f6}.icon-vs-bg{fill:#424242}.icon-vs-action-red{fill:#a1260d}</style><path class="icon-canvas-transparent" d="M16 16H0V0h16v16z" id="canvas"/><path class="icon-vs-out" d="M16 5.5a5.476 5.476 0 0 1-4.922 5.446l-.101.011C10.743 13.776 8.378 16 5.5 16A5.506 5.506 0 0 1 0 10.5c0-1.156.37-2.219.982-3.104L0 6.414v-.828L1.556 4.03 0 2.475v-.829L1.646 0h.828L4.03 1.556 5.586 0h.828l.984.984A5.43 5.43 0 0 1 10.5 0C13.532 0 16 2.467 16 5.5z" id="outline"/><path class="icon-vs-bg" d="M10 10.5c0 2.486-2.014 4.5-4.5 4.5S1 12.986 1 10.5c0-.88.262-1.694.699-2.387l.362.362 1.97-1.97L6 8.475 7.815 6.66C9.119 7.448 10 8.865 10 10.5zm.5-9.5c-.882 0-1.7.257-2.39.696l.365.365-1.97 1.97 1.711 1.711c1.505.863 2.576 2.401 2.756 4.211C13.233 9.713 15 7.824 15 5.5A4.5 4.5 0 0 0 10.5 1z" id="iconBg"/><path class="icon-vs-action-red" d="M5.091 4.03L7.061 6 6 7.061l-1.97-1.97-1.97 1.97L1 6l1.97-1.97L1 2.06 2.061 1l1.97 1.97L6 1l1.061 1.06-1.97 1.97z" id="colorAction"/></svg>