<svg xmlns="http://www.w3.org/2000/svg" viewBox="0 0 16 16"><style>.icon-canvas-transparent{opacity:0;fill:#f6f6f6}.icon-vs-out{fill:#f6f6f6}.icon-vs-bg{fill:#424242}.icon-vs-action-red{fill:#a1260d}</style><path class="icon-canvas-transparent" d="M16 16H0V0h16v16z" id="canvas"/><path class="icon-vs-out" d="M12 8V4H8v1.586L6.444 4.03l1.97-1.97L6.354 0h-.829L3.97 1.556 2.414 0h-.828L0 1.586v.949L1.495 4.03 0 5.525v.949l2 2V16h13V8h-3zM3.97 6.505L5.465 8h-2.99L3.97 6.505zM6 9v-.586l2-2V9H6z" id="outline"/><path class="icon-vs-bg" d="M3 9h2v6H3V9zm3 6h2v-5H6v5zm6-6v6h2V9h-2zM9 5v10h2V5H9z" id="iconBg"/><path class="icon-vs-action-red" d="M5.03 4.03L7 6 5.939 7.061l-1.97-1.97L2 7.061.939 6l1.97-1.97-1.97-1.97L2 1l1.97 1.97L5.939 1 7 2.06 5.03 4.03z" id="colorAction"/></svg>