<svg xmlns="http://www.w3.org/2000/svg" width="16" height="16"><style type="text/css">.icon-canvas-transparent{opacity:0;fill:#F6F6F6;} .icon-vs-out{fill:#F6F6F6;} .icon-disabled-grey{fill:#848484;}</style><path class="icon-canvas-transparent" d="M16 16h-16v-16h16v16z" id="canvas"/><path class="icon-vs-out" d="M15 8v8h-13v-8h4v1h2v-1h-1.726l-2.181-1.949-1.171 1.405c-.321.357-.759.544-1.228.544-.452 0-.887-.17-1.193-.469-.316-.307-.5-.739-.501-1.182-.002-.445.175-.865.497-1.183l1.303-1.166-1.267-1.132c-.358-.352-.534-.772-.533-1.217.001-.443.185-.875.502-1.184.305-.296.739-.467 1.192-.467.468 0 .906.187 1.201.513l1.198 1.437 2.181-1.95h2.86l-3.332 4 2.198 2.638v-2.638h4v4h3z" id="outline"/><path class="icon-disabled-grey" d="M3 9h2v6h-2v-6zm3 6h2v-5h-2v5zm6-6v6h2v-6h-2zm-3-4v10h2v-10h-2z" id="iconBg"/><path class="icon-disabled-grey" d="M3.3 4l-2.101 1.878c-.289.285-.241.703 0 .938.234.229.717.264.955 0l1.833-2.2 2.669 2.384h.344l-2.5-3 2.5-3h-.344l-2.668 2.385-1.833-2.2c-.238-.263-.721-.229-.955 0-.241.234-.289.652 0 .938l2.1 1.877z" id="colorAction"/></svg>