<svg xmlns="http://www.w3.org/2000/svg" width="16" height="16"><style type="text/css">.icon-canvas-transparent{opacity:0;fill:#F6F6F6;} .icon-vs-out{fill:#F6F6F6;} .icon-vs-bg{fill:#424242;} .icon-vs-fg{fill:#F0EFF1;}</style><path class="icon-canvas-transparent" d="M16 16h-16v-16h16v16z" id="canvas"/><path class="icon-vs-out" d="M16 3v10h-5v3h-8v-8.637l-.078.093c-.321.357-.759.544-1.227.544-.453 0-.888-.171-1.194-.469-.316-.306-.5-.738-.501-1.182-.001-.445.175-.866.499-1.184l1.302-1.165-1.268-1.133c-.358-.349-.534-.77-.533-1.216.001-.444.185-.876.503-1.185.304-.295.739-.466 1.191-.466.469 0 .906.187 1.202.513l1.104 1.325v-1.838h8v3h4z" id="outline"/><path class="icon-vs-bg" d="M15 4v8h-4v-1h3v-6h-4v1h-1v-2h6zm-7 4h1v6h-4v-6h1.274l-1.118-1h-1.156v8h6v-8h-2v1zm2-5h1v-2h-3v.362l-.531.638h2.531v1z" id="iconBg"/><path class="icon-vs-fg" d="M14 5v6h-3v-5h-1v-1h4zm-9 9h4v-6h-4v6zm3-8v-3h2v-1h-2.531l-1.469 1.763v.476l1.468 1.761h.532z" id="iconFg"/><path class="icon-vs-bg" d="M6.656 7l-2.668-2.385-1.834 2.2c-.238.264-.72.229-.955 0-.242-.234-.29-.652 0-.938l2.101-1.877-2.1-1.878c-.29-.285-.242-.703 0-.938.234-.229.716-.263.955 0l1.833 2.201 2.668-2.385h.344l-2.5 3 2.5 3h-.344z" id="colorAction"/></svg>