<svg xmlns="http://www.w3.org/2000/svg" viewBox="0 0 16 16"><style>.icon-canvas-transparent{opacity:0;fill:#f6f6f6}.icon-vs-out{fill:#f6f6f6}.icon-vs-bg{fill:#424242}.icon-vs-fg{fill:#f0eff1}.icon-vs-action-red{fill:#a1260d}</style><path class="icon-canvas-transparent" d="M16 0v16H0V0" id="canvas"/><path class="icon-vs-out" d="M15 8A7 7 0 1 1 1 8c0-.169.013-.334.025-.5L0 6.475v-.95L1.495 4.03 0 2.535v-.949L1.586 0h.828L3.97 1.556 5.525 0h.828l1.031 1.031C7.588 1.013 7.792 1 8 1a7 7 0 0 1 7 7z" id="outline"/><path class="icon-vs-bg" d="M14 8c0 3.247-2.755 6-6 6-3.093 0-5.735-2.503-5.976-5.549l.965-.965.926-.926.055-.055.054.055 1 1H3.989v1h6.089l-2.252 2.252.707.707 3.522-3.522-3.519-3.519-.707.707 2.374 2.374H6.854L8.414 6 7.007 4.593l-.563-.563 1.97-1.97-.041-.04C11.453 2.222 14 4.882 14 8z" id="iconBg"/><path class="icon-vs-fg" d="M12.055 7.997l-3.522 3.522-.707-.707 2.252-2.252H3.989v-1h1.036l.915.915.914-.915h3.349L7.829 5.185l.707-.707 3.519 3.519z" id="iconFg"/><path class="icon-vs-action-red" d="M5.03 4.03L7 6 5.939 7.061l-1.97-1.97L2 7.061.939 6l1.97-1.97-1.97-1.97L2 1l1.97 1.97L5.939 1 7 2.06 5.03 4.03z" id="colorAction"/></svg>