<svg xmlns="http://www.w3.org/2000/svg" viewBox="0 0 16 16"><style>.icon-canvas-transparent{opacity:0;fill:#f6f6f6}.icon-vs-out{fill:#f6f6f6}.icon-vs-bg{fill:#424242}.icon-vs-action-red{fill:#a1260d}</style><path class="icon-canvas-transparent" d="M16 16H0V0h16v16z" id="canvas"/><path class="icon-vs-out" d="M15 0v16H1V7.475l-1-1v-.95l1-1v-.99l-1-1v-.949l1-1V0h14z" id="outline"/><path class="icon-vs-bg" d="M7.032 13H14v2H2v-2h5.032zM3.97 6.505L3.475 7h.99l-.495-.495zm0-4.949L4.525 1H3.414l.556.556zM10.711 1H7.354l1.061 1.061-.94.939H14V1h-3.289zM3.187 9H2v2h12V9H3.187zm4.227-4l1 1-1 1H14V5H7.414z" id="iconBg"/><path class="icon-vs-action-red" d="M5.03 4.03L7 6 5.939 7.061l-1.97-1.97L2 7.061.939 6l1.97-1.97-1.97-1.97L2 1l1.97 1.97L5.939 1 7 2.06 5.03 4.03z" id="colorAction"/></svg>