<svg xmlns="http://www.w3.org/2000/svg" viewBox="0 0 16 16"><style>.icon-canvas-transparent{opacity:0;fill:#f6f6f6}.icon-vs-out{fill:#f6f6f6}.icon-vs-bg{fill:#424242}.icon-vs-action-red{fill:#a1260d}</style><path class="icon-canvas-transparent" d="M16 16H0V0h16v16z" id="canvas"/><path class="icon-vs-out" d="M16 3v10h-5v3H3V7.535l-.939.94L0 6.414v-.828L1.556 4.03 0 2.475v-.829L1.646 0h.828L4 1.525V0h8v3h4z" id="outline"/><path class="icon-vs-bg" d="M15 4v8h-4v-1h3V5h-4v1H9V4h6zM7.475 7l-1 1H9v6H5V8h.525l-1-1H4v8h6V7H7.475zm-.061-6l1 1H10v1h1V1H7.414z" id="iconBg"/><path class="icon-vs-action-red" d="M5.091 4.03L7.061 6 6 7.061l-1.97-1.97-1.97 1.97L1 6l1.97-1.97L1 2.06 2.061 1l1.97 1.97L6 1l1.061 1.06-1.97 1.97z" id="colorAction"/></svg>