<svg xmlns="http://www.w3.org/2000/svg" viewBox="0 0 16 16"><style>.icon-canvas-transparent{opacity:0;fill:#f6f6f6}.icon-vs-out{fill:#f6f6f6}.icon-vs-bg{fill:#424242}.icon-vs-action-red{fill:#a1260d}</style><path class="icon-canvas-transparent" d="M16 16H0V0h16v16z" id="canvas"/><path class="icon-vs-out" d="M16 0v11h-2v2h-2v2H0V4h1.465L0 2.535v-.949L1.586 0h.828L3.97 1.556 4 1.525V0h12z" id="outline"/><path class="icon-vs-bg" d="M11 5v9H1V7.475l1 1V13h8V8l-3 3H5L2.237 8.237l1-1L6 10l4-4H8.414l-1-1H11zM7.354 1l1 1H14v8h1V1H7.354zm.424 2H13v9h-1V4H6.96l-.083-.099L7.778 3z" id="iconBg"/><path class="icon-vs-action-red" d="M5.03 4.03L7 6 5.939 7.061l-1.97-1.97L2 7.061.939 6l1.97-1.97-1.97-1.97L2 1l1.97 1.97L5.939 1 7 2.06 5.03 4.03z" id="colorAction"/></svg>