<svg xmlns="http://www.w3.org/2000/svg" viewBox="0 0 16 16" enable-background="new 0 0 16 16"><style type="text/css">.icon-canvas-transparent{opacity:0;fill:#F6F6F6;} .icon-vs-out{fill:#F6F6F6;} .icon-vs-fg{fill:#F0EFF1;} .icon-disabled-grey{fill:#848484;}</style><path class="icon-canvas-transparent" d="M16 16h-16v-16h16v16z" id="canvas"/><path class="icon-vs-out" d="M15.623 2.498l-4.41 4.41c.837 1.727.521 3.855-.871 5.246l-.343.344-1.751 3.502h-1.15l-7.098-7.098v-1.15l3.502-1.751.344-.344c.84-.84 1.987-1.303 3.228-1.303.699 0 1.389.154 2.007.443l4.421-4.42c.184-.184.41-.308.655-.377h.812c.244.069.47.193.655.377.184.184.308.41.377.655v.812c-.07.244-.194.47-.378.654z" id="outline"/><path class="icon-disabled-grey" d="M14.916 1.084c-.195-.195-.512-.195-.707 0l-4.966 4.965c-1.386-1.017-3.453-.921-4.69.316l-.459.458-3.173 1.587 6.669 6.668 1.586-3.173.458-.458c1.28-1.28 1.377-3.286.318-4.693l4.964-4.963c.195-.195.195-.512 0-.707zm-7.6 12.307l-4.706-4.707 1.828-.914 3.809 3.809-.931 1.812zm1.612-2.651l-.053.053-3.669-3.67.054-.051c.981-.98 2.689-.98 3.668 0 .49.49.76 1.141.76 1.834 0 .693-.27 1.344-.76 1.834z" id="iconBg"/><path class="icon-vs-fg" d="M7.316 13.391l-4.706-4.707 1.828-.914 3.809 3.809-.931 1.812zm1.612-2.651l-.053.053-3.669-3.67.054-.051c.981-.98 2.689-.98 3.668 0 .49.49.76 1.141.76 1.834 0 .693-.27 1.344-.76 1.834z" id="iconFg"/></svg>