<svg xmlns="http://www.w3.org/2000/svg" viewBox="0 0 16 16"><style>.icon-canvas-transparent{opacity:0;fill:#f6f6f6}.icon-vs-out{fill:#f6f6f6}.icon-vs-bg{fill:#424242}.icon-vs-action-red{fill:#a1260d}</style><path class="icon-canvas-transparent" d="M16 0v16H0V0h16z" id="canvas"/><path class="icon-vs-out" d="M16 6v9h-4.16c-.579 0-.861.04-.997.075l-.389.925h-.907l-.39-.925C9.022 15.04 8.741 15 8.16 15H4V6.535l-1.939 1.94L0 6.414v-.828L1.556 4.03 0 2.475v-.829L1.646 0h.828L4.03 1.556 5.586 0h.828l2.061 2.061-1.97 1.97L8.475 6H8.5a2.316 2.316 0 0 1 1.502.545A2.308 2.308 0 0 1 11.5 6H16z" id="outline"/><path class="icon-vs-bg" d="M11.5 7c-.624 0-.985.365-1.5 1-.508-.626-.862-.996-1.5-1H7.475l-1 1H8c.566 0 1 .663 1 1v4c-.33-.205-.565 0-1 0H6V8.475l-1-1V14h3c.549 0 1.778-.025 2 .5.22-.525 1.451-.5 2-.5h3V7h-3.5zm2.5 6h-2c-.435 0-.67-.205-1 0V9c0-.385.41-1 1-1h2v5z" id="iconBg"/><path class="icon-vs-action-red" d="M5.091 4.03L7.061 6 6 7.061l-1.97-1.97-1.97 1.97L1 6l1.97-1.97L1 2.06 2.061 1l1.97 1.97L6 1l1.061 1.06-1.97 1.97z" id="colorAction"/></svg>