<svg xmlns="http://www.w3.org/2000/svg" viewBox="0 0 16 16"><style>.icon-canvas-transparent{opacity:0;fill:#f6f6f6}.icon-asp-html-wpf-blue{fill:#0095d7}.st0{fill:#f6f6f6}.st1{fill:#424242}</style><path class="icon-canvas-transparent" d="M16 0v16H0V0h16z" id="canvas"/><path class="st0" d="M16 8h-5.605c.384.751.605 1.599.605 2.5a5.5 5.5 0 1 1-9.06-4.189L.732 5.104l2.121-2.121.17.17A2.505 2.505 0 0 1 5.5 1H7V0h9v8z" id="outline"/><path class="st1" d="M8 1v1H5.5C4.673 2 4 2.673 4 3.5v2.043L2.854 4.396l-.708.708L4.5 7.457l2.354-2.354-.708-.707L5 5.543V3.5a.5.5 0 0 1 .5-.5H8v4h7V1H8zm6 5H9V3h5v3z" id="iconBg"/><path class="icon-asp-html-wpf-blue" d="M7.069 6.302L6.042 7.329c.209.431.407.909.534 1.488-.367.025-1.698-.003-1.99-.031l-.796-.625c-.042.168-.089.328-.123.51-.443-.079-.85-.176-1.223-.281a3.7 3.7 0 0 1 .769-.806l-.561-.561C1.638 7.849.977 9.091.977 10.5a4.843 4.843 0 0 0 .067.743 4.49 4.49 0 0 0 3.696 3.692c.005.002.009.002.013.002a4.283 4.283 0 0 0 1.165.042A4.503 4.503 0 0 0 9.979 10.5c0-.052-.008-.102-.008-.152a4.496 4.496 0 0 0-2.902-4.046zM8.53 8.417a7.19 7.19 0 0 1-1.254.318 7.588 7.588 0 0 0-.589-1.725A3.7 3.7 0 0 1 8.53 8.417zM4.265 9.445c.387.043 2.1.066 2.424.043.025.219.044.452.046.684.004.371-.044.778-.135 1.207-.376.025-1.921 0-2.3-.043a7.74 7.74 0 0 1-.035-1.891zM1.781 10.5a3.7 3.7 0 0 1 .31-1.48c.44.13.932.253 1.479.346a8.392 8.392 0 0 0-.049.81c-.004.342.021.695.063 1.051a12.62 12.62 0 0 1-1.788-.467 2.792 2.792 0 0 1-.015-.26zm.151 1.045c.514.156 1.102.309 1.765.414.132.674.349 1.359.632 2.053a3.706 3.706 0 0 1-2.397-2.467zm3.608 2.648c-.021 0-.041.004-.063.004a3.86 3.86 0 0 1-.324-.017c-.322-.717-.57-1.43-.725-2.125a11.327 11.327 0 0 0 1.304.061c.224 0 .45-.006.678-.018a13.556 13.556 0 0 1-.87 2.095zm.828-.109c.35-.736.62-1.424.795-2.053a8.223 8.223 0 0 0 1.856-.473 3.7 3.7 0 0 1-2.651 2.526zm2.794-3.344a7.525 7.525 0 0 1-1.831.555c.07-.393.108-.768.104-1.119a7.634 7.634 0 0 0-.05-.742 8.158 8.158 0 0 0 1.489-.389c.192.446.3.937.3 1.455 0 .08-.008.16-.012.24z" id="colorImportance"/></svg>