<svg xmlns="http://www.w3.org/2000/svg" width="16" height="16"><style type="text/css">.icon-canvas-transparent{opacity:0;fill:#F6F6F6;} .icon-vs-out{fill:#F6F6F6;} .icon-vs-bg{fill:#424242;} .icon-vs-fg{fill:#F0EFF1;}</style><path class="icon-canvas-transparent" d="M16 16h-16v-16h16v16z" id="canvas"/><path class="icon-vs-out" d="M16 11h-7v5h-9v-13h5v-3h11v11z" id="outline"/><path class="icon-vs-bg" d="M1 15h7v-11h-7v11zm6-1h-1v-1h1v1zm-5-9h5v1h-5v-1zm0 2h5v1h-5v-1zm13-6v9h-6v-1h1v-6h1v6h1v-4h1v4h1v-7h-7v1h-1v-2h9z" id="iconBg"/><path class="icon-vs-fg" d="M14 2v7h-1v-4h-1v4h-1v-6h-1v6h-1v-6h-2v-1h7zm-8 12h1v-1h-1v1zm-4-6h5v-1h-5v1zm0-2h5v-1h-5v1z" id="iconFg"/></svg>