<svg xmlns="http://www.w3.org/2000/svg" width="16" height="16"><style type="text/css">.icon-canvas-transparent{opacity:0;fill:#F6F6F6;} .icon-vs-out{fill:#F6F6F6;} .icon-vs-bg{fill:#424242;}</style><path class="icon-canvas-transparent" d="M16 16h-16v-16h16v16z" id="canvas"/><path class="icon-vs-out" d="M16 7.349l-.217.273c-.506.637-1.847 2.072-4.155 2.844l.476 1.861-2.91.743-.266-1.041-.036 1.007-2.994-.111.042-1.186-.526 1.058-2.687-1.336.041-.081-2.121-1.861.984-1.122c-.307-.298-.541-.568-.706-.776l-.925-1.166v-.455h3.206l.291.283c.661.641 2.169 1.717 4.857 1.717 2.088 0 3.463-.649 4.283-1.239-3.491-1.704-5.275-1.761-5.293-1.761l-2.345-.049 3.114-3.125.612.245c5.629 2.252 5.629 3.514 5.629 3.929h1.646v1.349z" id="outline"/><path class="icon-vs-bg" d="M13.354 6c-4-2-6-2-6-2l1-1c5 2 5 3 5 3zm1.646 1h-1.094c-.75.729-2.494 2-5.552 2-3.06 0-4.803-1.271-5.553-2h-1.092c.272.344.718.823 1.34 1.298l-.991 1.129.751.659 1.076-1.226c.304.177.646.338 1.011.487l-.828 1.663.896.445.886-1.781c.361.099.744.181 1.154.236l-.071 2.052.996.038.072-2.023.353.023c.378 0 .726-.034 1.072-.071l.49 1.925.971-.248-.471-1.841c2.508-.551 3.971-1.993 4.584-2.765z" id="iconBg"/></svg>