<svg xmlns="http://www.w3.org/2000/svg" width="16" height="16"><style type="text/css">.icon-canvas-transparent{opacity:0;fill:#F6F6F6;} .icon-vs-out{fill:#F6F6F6;} .icon-vs-bg{fill:#424242;} .icon-vs-fg{fill:#F0EFF1;} .icon-vs-action-red{fill:#A1260D;}</style><path class="icon-canvas-transparent" d="M16 16h-16v-16h16v16z" id="canvas"/><path class="icon-vs-out" d="M16 1v15h-14v-9h-2v-1.383l2-1.999v-.236l-2-1.999v-1.383h3.112l1 1h.505l.999-1h3.384v1h7z" id="outline"/><path class="icon-vs-bg" d="M12 5v2h-3v-1.112l-.888-.888h3.888zm-3.888-3l-1 1h6.888v11h-9v-7.617l-.635-.635-1.253 1.252h.888v1h-1v1h1v1h-1v1h1v1h-1v1h1v1h-1v1h12v-13h-6.888z" id="iconBg"/><path class="icon-vs-fg" d="M14 3v11h-9v-7.617l.617.617h6.383v-2h-3.888l-1.5-1.5.5-.5h6.888z" id="iconFg"/><path class="icon-vs-action-red" d="M6.267 4.569l1.431 1.431h-1.667l-1.666-1.667-1.667 1.667h-1.667l2.501-2.5-2.501-2.5h1.667l1.667 1.667 1.666-1.667h1.667l-2.5 2.5 1.069 1.069z" id="colorAction"/></svg>