<svg xmlns="http://www.w3.org/2000/svg" width="16" height="16"><style type="text/css">.icon-canvas-transparent{opacity:0;fill:#F6F6F6;} .icon-vs-out{fill:#F6F6F6;} .icon-vs-bg{fill:#424242;} .icon-vs-fg{fill:#F0EFF1;}</style><path class="icon-canvas-transparent" d="M16 16h-16v-16h16v16z" id="canvas"/><path class="icon-vs-out" d="M16 5.556v8.444c0 .97-.701 2-2 2h-8c-.97 0-2-.701-2-2h-.035c-.953 0-1.965-.701-1.965-2v-5h-2v-7l9.817.051 6.183 5.505z" id="outline"/><path class="icon-vs-bg" d="M7,6H1V1h6V6zM4.5,3.5L6,2H5L4,3L3,2H2l1.5,1.5L2,5h1l1-1l1,1h1L4.5,3.5zM11.641,3H8v1h3v3h3v7H6V7H5c0,2.349,0,5.436,0,7c0,1,0.965,1,0.965,1s7,0,8,0S15,14,15,14V6L11.641,3zM10.761,2l-1.12-1H8v1h1H10.761zM4,12V7H3c0,1.891,0,3.854,0,5c0,1,0.965,1,0.965,1S3.989,13,4,13V12z" id="iconBg"/><path class="icon-vs-fg" d="M6 5h-1l-1-1-1 1h-1l1.5-1.5-1.5-1.5h1l1 1 1-1h1l-1.5 1.5 1.5 1.5zm5 2v-3h-3v3h-2v7h8v-7h-3z" id="iconFg"/></svg>