<svg xmlns="http://www.w3.org/2000/svg" width="16" height="16"><style type="text/css">.icon-canvas-transparent{opacity:0;fill:#F6F6F6;} .icon-vs-out{fill:#F6F6F6;} .icon-vs-bg{fill:#424242;} .icon-vs-fg{fill:#F0EFF1;}</style><path class="icon-canvas-transparent" d="M16 16h-16v-16h16v16z" id="canvas"/><path class="icon-vs-out" d="M16 12h-2v2h-2v2h-12v-11h2v-2h2v-2h12v11z" id="outline"/><path class="icon-vs-bg" d="M3 4h10v9h-1v-8h-9v-1zm2-2v1h9v8h1v-9h-10zm6 4v9h-10v-9h10z" id="iconBg"/><path class="icon-vs-fg" d="M9 8.5l-2.25 2.25 2.25 2.25h-1.5l-1.5-1.5-1.5 1.5h-1.5l2.25-2.25-2.25-2.25h1.5l1.5 1.5 1.5-1.5h1.5z" id="iconFg"/></svg>