<svg xmlns="http://www.w3.org/2000/svg" width="16" height="16"><style type="text/css">.icon-canvas-transparent{opacity:0;fill:#F6F6F6;} .icon-vs-out{fill:#F6F6F6;} .icon-vs-bg{fill:#424242;}</style><path class="icon-canvas-transparent" d="M16 16h-16v-16h16v16z" id="canvas"/><path class="icon-vs-out" d="M16 2.519l-2.014 2.891 2.014 2.828v1.076l-2.163 1.186h-1.051l-1.246-2.051c-.964.82-2.095 1.287-3.701 1.287-.667 0-1.271-.098-1.839-.29v.554h2v4h-2v2h-4v-2h-2v-4h1.37l-1.37-.889v-1.224l1.75-2.537-1.75-2.758v-1.302l1.883-1.29h1.065l1.315 2.144c.993-.892 2.149-1.407 3.83-1.407 1.276 0 2.33.338 3.315 1.064l.064.048 1.26-1.849h1.106l2.162 1.376v1.143z" id="outline"/><path class="icon-vs-bg" d="M5 11h2v2h-2v2h-2v-2h-2v-2h2v-2h2v2zm-3-3h1.562l1.742-2.531c1.08-1.482 1.622-1.732 2.705-1.732.595 0 .999.127 1.438.451l1.252-1.59c-.808-.596-1.637-.861-2.69-.861-2.112 0-3.173.906-4.407 2.602l-2.839 4.124 1.237.799v-1.262zm.966-4.629c.16-.232.352-.409.531-.615l-1.081-1.819-1.471 1.028 1.407 2.278.614-.872zm10.316-2.471l-2.824 4.104c-1.079 1.482-1.622 1.732-2.704 1.732-.595 0-.999-.127-1.438-.451l-1.252 1.59.198.125h.738v.396c.532.222 1.097.34 1.754.34 2.111 0 3.172-.906 4.407-2.602l2.839-4.124-1.718-1.11zm-.477 6.423c-.16.232-.352.409-.531.615l1.081 1.819 1.471-1.028-1.407-2.278-.614.872z" id="iconBg"/></svg>