<?xml version="1.0" encoding="iso-8859-1"?>
<!-- Generator: Adobe Illustrator 21.0.0, SVG Export Plug-In . SVG Version: 6.00 Build 0)  -->
<svg version="1.1" xmlns="http://www.w3.org/2000/svg" xmlns:xlink="http://www.w3.org/1999/xlink" x="0px" y="0px"
	 viewBox="0 0 16 16" style="enable-background:new 0 0 16 16;" xml:space="preserve">
<style type="text/css">
	.icon_x002D_canvas_x002D_transparent{opacity:0;fill:#F6F6F6;}
	.icon_x002D_vs_x002D_out{fill:#F6F6F6;}
	.icon_x002D_vs_x002D_bg{fill:#424242;}
	.icon_x002D_vs_x002D_fg{fill:#F0EFF1;}
	.icon_x002D_vs_x002D_blue{fill:#1BA1E2;}
</style>
<g id="canvas">
	<path class="icon_x002D_canvas_x002D_transparent" d="M16,16H0V0h16V16z"/>
</g>
<g id="outline">
	<path class="icon_x002D_vs_x002D_out" d="M15,4v8c0,2.28-3.01,4-7,4c-0.187,0-0.369-0.008-0.551-0.015
		C7.392,15.993,7.306,16,7.209,16H2.934C1.31,15.977,0,14.709,0,13.174c0-0.828,0.382-1.575,1-2.101V4c0-2.28,3.01-4,7-4
		C11.99,0,15,1.72,15,4z"/>
</g>
<g id="iconBg">
	<path class="icon_x002D_vs_x002D_bg" d="M8.063,11.775c-0.191-0.746-0.904-1.301-1.753-1.301c-0.166,0-0.327,0.021-0.481,0.061
		c-0.396-0.326-0.916-0.521-1.481-0.521c-1.004,0-1.854,0.619-2.136,1.469C1.501,11.754,1,12.41,1,13.174
		c0,0.99,0.86,1.811,1.934,1.826h4.275c0.058,0,0.114-0.004,0.17-0.014c0.917-0.1,1.618-0.828,1.618-1.709
		C8.997,12.633,8.619,12.07,8.063,11.775z M7,13.996V14H2.934C2.418,13.992,2,13.621,2,13.162c0-0.463,0.425-0.838,0.946-0.838
		c0.073,0,0.144,0.008,0.21,0.022c-0.025-0.088-0.043-0.178-0.043-0.272c0-0.603,0.553-1.092,1.233-1.092
		c0.614,0,1.121,0.4,1.214,0.922c0.117-0.268,0.406-0.459,0.749-0.459c0.443,0,0.803,0.318,0.803,0.711
		c0,0.148-0.05,0.285-0.136,0.4c0.062-0.014,0.126-0.023,0.193-0.023c0.457,0,0.723,0.33,0.723,0.734C7.893,13.66,8,13.977,7,13.996
		z"/>
</g>
<g id="iconFg">
	<path class="icon_x002D_vs_x002D_fg" d="M7.893,13.268C7.893,13.66,8,13.977,7,13.996V14H2.934C2.418,13.992,2,13.621,2,13.162
		c0-0.463,0.425-0.838,0.946-0.838c0.073,0,0.144,0.008,0.21,0.022c-0.025-0.088-0.043-0.178-0.043-0.272
		c0-0.603,0.553-1.092,1.233-1.092c0.614,0,1.121,0.4,1.214,0.922c0.117-0.268,0.406-0.459,0.749-0.459
		c0.443,0,0.803,0.318,0.803,0.711c0,0.148-0.05,0.285-0.136,0.4c0.062-0.014,0.126-0.023,0.193-0.023
		C7.627,12.533,7.893,12.863,7.893,13.268z M7.997,2c-3.052,0-5,1.185-5,2s1.948,2,5,2s5-1.185,5-2S11.049,2,7.997,2z"/>
</g>
<g id="colorImportance">
	<path class="icon_x002D_vs_x002D_blue" d="M8,1C4.687,1,2,2.343,2,4v5.977c0.596-0.6,1.433-0.963,2.347-0.963
		c0.613,0,1.209,0.165,1.722,0.471c0.081-0.007,0.161-0.01,0.241-0.01c1.141,0,2.146,0.657,2.58,1.643
		c0.691,0.511,1.107,1.307,1.107,2.16c0,0.613-0.221,1.177-0.581,1.635C12.045,14.594,14,13.413,14,12V4C14,2.343,11.313,1,8,1z
		 M7.997,6c-3.052,0-5-1.185-5-2s1.948-2,5-2s5,1.185,5,2S11.049,6,7.997,6z"/>
</g>
</svg>
