<svg xmlns="http://www.w3.org/2000/svg" width="16" height="16"><style type="text/css">.icon-canvas-transparent{opacity:0;fill:#F6F6F6;} .icon-vs-out{fill:#F6F6F6;} .icon-vs-bg{fill:#424242;} .icon-vs-fg{fill:#F0EFF1;}</style><path class="icon-canvas-transparent" d="M16 16h-16v-16h16v16z" id="canvas"/><path class="icon-vs-out" d="M16 7.279c0 1.888-1.402 3.465-3.261 3.668-.041.014-.179.027-.313.027h-2.437v1.026h-.999v2h-1.997v2h-6.993v-3h1.998v-2.561c-.221-.126-.427-.273-.618-.439h-1.38v-3h.006c.015-1.593.951-2.981 2.358-3.584.491-1.987 2.248-3.416 4.331-3.416 1.141 0 2.207.426 3.021 1.189.295-.077.601-.117.908-.117 1.775 0 3.254 1.303 3.551 3.012 1.114.652 1.825 1.865 1.825 3.195z" id="outline"/><path class="icon-vs-bg" d="M4 9h-3v-1h3v1zm1-1v1h4v-1h-4zm-2 3h3v-1h-3v1zm4 0h2v-1h-2v1zm-4 2h5v-1h-5v1zm-2 2h5v-1h-5v1zm12.245-10.26v-.025c0-1.457-1.171-2.643-2.609-2.643-.427 0-.833.102-1.193.29-.636-.838-1.631-1.362-2.741-1.362-1.797 0-3.279 1.395-3.452 3.176-1.273.296-2.227 1.448-2.244 2.824h1c.014-1.057.855-1.908 1.893-1.908.146 0 .285.02.42.052-.05-.202-.086-.408-.086-.625 0-1.392 1.106-2.519 2.469-2.519 1.233 0 2.246.922 2.434 2.125.233-.616.813-1.057 1.5-1.057.889 0 1.609.734 1.609 1.641 0 .34-.101.656-.273.919.123-.031.252-.052.387-.052.916 0 1.658.758 1.658 1.69 0 .905-.699 1.639-1.578 1.684v.008h-2.439v1.017h2.439l.206-.021c1.342-.147 2.372-1.293 2.372-2.674 0-1.171-.741-2.169-1.772-2.54z" id="iconBg"/><path class="icon-vs-fg" d="M14.017 7.267c0 .905-.699 1.639-1.578 1.684v.008h-2.439v-1.959h-7.994c.014-1.057.855-1.908 1.893-1.908.146 0 .285.02.42.052-.05-.202-.086-.408-.086-.625 0-1.392 1.106-2.519 2.469-2.519 1.233 0 2.246.922 2.434 2.125.233-.616.813-1.057 1.5-1.057.889 0 1.609.734 1.609 1.641 0 .34-.101.656-.273.919.123-.031.252-.052.387-.052.915 0 1.658.758 1.658 1.691z" id="iconFg"/></svg>