<svg xmlns="http://www.w3.org/2000/svg" width="16" height="16"><style type="text/css">.icon-canvas-transparent{opacity:0;fill:#F6F6F6;} .icon-vs-out{fill:#F6F6F6;} .icon-vs-bg{fill:#424242;} .icon-vs-fg{fill:#F0EFF1;}</style><path class="icon-canvas-transparent" d="M16 16h-16v-16h16v16z" id="canvas"/><path class="icon-vs-out" d="M16 5.762c0 1.614-1.174 2.978-2.731 3.172l-.317.026h-2.302l.073.226c.79.598 1.263 1.542 1.263 2.575 0 1.614-1.174 2.978-2.731 3.172l-.317.026h-5.695c-1.827-.032-3.243-1.514-3.243-3.371 0-1.223.644-2.336 1.648-2.929.36-1.214 1.275-2.134 2.421-2.491-.031-.19-.055-.381-.055-.58 0-1.223.643-2.336 1.647-2.929.466-1.568 1.854-2.659 3.477-2.659.813 0 1.6.282 2.231.792l.384-.025c1.435 0 2.658 1.027 2.984 2.42.79.597 1.263 1.541 1.263 2.575z" id="outline"/><path class="icon-vs-bg" d="M15.016 5.787c0 1.121-.805 2.056-1.855 2.186l-.193.018h-2.836c-.348-.44-.802-.786-1.326-.984h4.162v-.005c.584-.033 1.049-.561 1.049-1.214 0-.671-.493-1.216-1.102-1.216l-.258.036c.114-.189.182-.416.182-.662 0-.653-.479-1.181-1.069-1.181-.457 0-.843.316-.997.761-.127-.866-.8-1.531-1.62-1.531-.906 0-1.642.811-1.642 1.813 0 .157.023.306.058.451l-.279-.036c-.696 0-1.261.623-1.261 1.391 0 .216.053.414.132.596-.329-.1-.672-.162-1.022-.162l-.069.006c-.025-.144-.041-.29-.041-.441 0-1.036.635-1.919 1.517-2.243.203-1.33 1.295-2.349 2.607-2.349.762 0 1.451.337 1.934.889.216-.08.445-.123.682-.123 1.094 0 1.992.894 2.064 2.02.699.359 1.183 1.111 1.183 1.98zm-4.014 6c0 1.121-.805 2.056-1.856 2.186l-.193.019h-5.694c-1.266-.023-2.243-1.067-2.243-2.378 0-1.036.635-1.919 1.517-2.243.202-1.331 1.294-2.349 2.607-2.349.762 0 1.451.337 1.934.889.216-.08.445-.123.682-.123 1.094 0 1.992.894 2.064 2.019.699.359 1.182 1.111 1.182 1.98zm-1 .001c0-.671-.493-1.216-1.102-1.216l-.258.036c.114-.19.182-.416.182-.662 0-.653-.478-1.181-1.069-1.181-.457 0-.843.316-.997.761-.125-.866-.799-1.531-1.618-1.531-.906 0-1.642.811-1.642 1.814 0 .157.024.306.058.451l-.279-.037c-.696 0-1.261.623-1.261 1.391 0 .766.556 1.381 1.243 1.393v.001h5.694v-.005c.584-.034 1.049-.562 1.049-1.215z" id="iconBg"/><path class="icon-vs-fg" d="M6.161 6.209c-.079-.182-.132-.38-.132-.596 0-.768.564-1.391 1.261-1.391l.279.037c-.034-.145-.057-.293-.057-.45 0-1.003.735-1.813 1.642-1.813.819 0 1.493.665 1.618 1.531.154-.444.54-.761.997-.761.591 0 1.069.527 1.069 1.181 0 .246-.067.473-.182.662l.258-.036c.608 0 1.102.545 1.102 1.216 0 .65-.461 1.175-1.042 1.212h-4.194c-.322-.119-.666-.188-1.025-.188l-.384.025c-.36-.289-.773-.496-1.21-.629zm-2.927 6.791h5.726c.581-.037 1.042-.561 1.042-1.212 0-.671-.493-1.216-1.102-1.216l-.258.036c.114-.19.182-.416.182-.662 0-.653-.478-1.181-1.069-1.181-.457 0-.843.316-.997.761-.125-.866-.799-1.531-1.618-1.531-.906 0-1.642.811-1.642 1.814 0 .157.024.306.058.451l-.279-.037c-.696 0-1.261.623-1.261 1.391 0 .755.543 1.36 1.218 1.386z" id="iconFg"/></svg>