<svg xmlns="http://www.w3.org/2000/svg" width="16" height="16"><style type="text/css">.icon-canvas-transparent{opacity:0;fill:#F6F6F6;} .icon-vs-out{fill:#F6F6F6;} .icon-vs-bg{fill:#424242;} .icon-vs-fg{fill:#F0EFF1;}</style><path class="icon-canvas-transparent" d="M16 16h-16v-16h16v16z" id="canvas"/><path class="icon-vs-out" d="M16 2.062v7.938c0 .97-.701 2-2 2 0 .97-.701 2-2 2h-2.116c-.301 1.048-1.226 1.854-2.398 1.979l-.277.021h-4.275c-1.625-.025-2.934-1.293-2.934-2.827 0-1.013.552-1.926 1.438-2.43.485-.952 1.45-1.595 2.562-1.707v-5.036c0-1.299 1.03-2 2-2 0-1.299 1.03-2 2-2h5.547l2.453 2.062z" id="outline"/><path class="icon-vs-bg" d="M10.602 3l2.398 2.136v6.864s-.059 1-1.059 1h-1.978c-.038-.354-.137-.692-.308-1h2.345v-6h-2v-2h-4v5.449c-.309-.176-.647-.297-1-.365v-5.084c0-1 .941-1 .941-1h4.661zm-1.605 10.277c0 .88-.701 1.609-1.618 1.708l-.17.015h-4.275c-1.074-.017-1.934-.836-1.934-1.827 0-.763.501-1.419 1.211-1.692.281-.85 1.132-1.469 2.136-1.469.565 0 1.086.195 1.481.522.154-.04.315-.062.481-.062.849 0 1.562.555 1.753 1.301.557.297.935.86.935 1.504zm-1-.01c0-.404-.37-.733-.827-.733l-.193.022c.086-.114.136-.251.136-.399 0-.394-.359-.711-.803-.711-.343 0-.632.19-.749.458-.093-.521-.6-.922-1.214-.922-.681 0-1.233.488-1.233 1.092l.043.273-.21-.023c-.522-.001-.947.375-.947.837 0 .46.418.831.934.838v.001h4.275v-.004c.438-.019.788-.337.788-.729zm4.605-12.267h-4.662s-.94 0-.94 1h5v.381l1.927 1.619h.073v6.992c.938-.042 1-.992 1-.992v-6.864l-2.398-2.136z" id="iconBg"/><path class="icon-vs-fg" d="M7.997 13.267c0 .393-.35.71-.788.73v.003h-4.275v-.001c-.516-.007-.934-.378-.934-.838 0-.462.425-.838.946-.838l.21.023-.043-.273c0-.604.553-1.092 1.233-1.092.614 0 1.121.4 1.214.922.117-.268.406-.458.749-.458.443 0 .803.317.803.711 0 .148-.05.285-.136.399l.193-.023c.458.001.828.33.828.735zm4.003-11.267h-.453l.453.4v-.4zm-2 4v-2h-4v5.438l.079.046.236-.01c1.141 0 2.144.658 2.578 1.644.323.238.575.543.763.882h2.344v-6h-2z" id="iconFg"/></svg>