<svg xmlns="http://www.w3.org/2000/svg" width="16" height="16"><style type="text/css">.icon-canvas-transparent{opacity:0;fill:#F6F6F6;} .icon-vs-out{fill:#F6F6F6;} .icon-vs-bg{fill:#424242;} .icon-vs-fg{fill:#F0EFF1;} .icon-vs-green{fill:#339933;} .icon-white{fill:#FFFFFF;}</style><path class="icon-canvas-transparent" d="M16 16h-16v-16h16v16z" id="canvas"/><path class="icon-vs-out" d="M15.734 10.655c.151.423.249.871.249 1.345 0 2.206-1.792 4-3.996 4-1.866 0-3.425-1.292-3.863-3.025h-4.256c-2.141-.037-3.868-1.803-3.868-3.938 0-1.608.943-3.013 2.362-3.621.49-1.987 2.248-3.416 4.331-3.416 1.141 0 2.207.426 3.022 1.188.296-.077.602-.117.909-.117 1.775 0 3.255 1.303 3.552 3.012 1.113.653 1.824 1.866 1.824 3.196 0 .487-.096.95-.266 1.376z" id="outline"/><path class="icon-vs-bg" d="M8.003 11.975h-4.129c-1.591-.027-2.871-1.344-2.871-2.938 0-1.393.962-2.563 2.247-2.861.173-1.782 1.655-3.176 3.452-3.176 1.109 0 2.104.524 2.74 1.361.36-.188.767-.29 1.193-.29 1.438 0 2.609 1.187 2.609 2.643v.025c1.031.371 1.771 1.369 1.771 2.539l-.011.11c-.337-.388-.743-.706-1.205-.941-.283-.518-.819-.872-1.442-.872-.135 0-.264.021-.387.052.172-.263.273-.579.273-.919 0-.906-.721-1.641-1.609-1.641-.688 0-1.267.44-1.5 1.057-.186-1.202-1.199-2.124-2.432-2.124-1.363 0-2.469 1.127-2.469 2.519 0 .218.035.424.086.625-.135-.031-.273-.052-.42-.052-1.047 0-1.897.865-1.897 1.934 0 1.06.836 1.915 1.871 1.931v.002h4.281c-.088.325-.149.662-.151 1.016z" id="iconBg"/><path class="icon-vs-fg" d="M3.874 10.958v-.002c-1.035-.016-1.871-.871-1.871-1.931 0-1.068.85-1.934 1.897-1.934.146 0 .285.02.42.052-.051-.201-.087-.407-.087-.624 0-1.392 1.106-2.519 2.469-2.519 1.233 0 2.246.922 2.434 2.125.233-.616.813-1.057 1.5-1.057.889 0 1.609.734 1.609 1.641 0 .34-.101.656-.273.919.123-.031.252-.052.387-.052.623 0 1.159.354 1.442.872-.544-.277-1.15-.448-1.801-.448-1.843 0-3.383 1.26-3.845 2.958h-4.281z" id="iconFg"/><path class="icon-vs-green" d="M12 9c-1.656 0-3 1.344-3 3s1.344 3 3 3 3-1.344 3-3-1.344-3-3-3zm-1 5v-4l2.996 1.998-2.996 2.002z" id="notificationBg"/><path class="icon-white" d="M11 14v-4l2.996 1.998-2.996 2.002z" id="notificationFg"/></svg>