<?xml version="1.0" encoding="utf-8"?>
<!-- Generator: Adobe Illustrator 21.0.0, SVG Export Plug-In . SVG Version: 6.00 Build 0)  -->
<svg version="1.1" xmlns="http://www.w3.org/2000/svg" xmlns:xlink="http://www.w3.org/1999/xlink" x="0px" y="0px"
	 viewBox="0 0 16 16" style="enable-background:new 0 0 16 16;" xml:space="preserve">
<style type="text/css">
	.icon_x002D_canvas_x002D_transparent{opacity:0;fill:#F6F6F6;}
	.icon_x002D_vs_x002D_out{fill:#F6F6F6;}
	.icon_x002D_vs_x002D_bg{fill:#424242;}
	.icon_x002D_vs_x002D_fg{fill:#F0EFF1;}
	.icon_x002D_vs_x002D_yellow{fill:#FFCC00;}
</style>
<g id="canvas">
	<path class="icon_x002D_canvas_x002D_transparent" d="M16,16H0V0h16V16z"/>
</g>
<g id="outline">
	<path class="icon_x002D_vs_x002D_out" d="M14.926,11.886l1.046,2.109L15.002,16H8.004L6.97,14.025L7.485,13H4.562
		C2.046,13,0,10.925,0,8.375C0,5.825,2.046,3.75,4.562,3.75c0.035,0,0.07,0,0.105,0.001C5.61,2.645,6.978,2,8.43,2
		c2.223,0,4.161,1.508,4.783,3.614C14.826,6.023,16,7.49,16,9.25C16,10.277,15.589,11.208,14.926,11.886z"/>
</g>
<g id="iconFg">
	<path class="icon_x002D_vs_x002D_fg" d="M14.018,9.25c0,0.207-0.042,0.404-0.107,0.588l-1.119-2.256
		C13.499,7.799,14.018,8.459,14.018,9.25z M8.43,4C7.141,4,6.051,4.829,5.622,5.988C5.297,5.838,4.94,5.75,4.561,5.75
		c-1.424,0-2.579,1.175-2.579,2.625C1.982,9.825,3.137,11,4.561,11H8.49l2.003-3.984h0.941C11.409,5.346,10.076,4,8.43,4z"/>
</g>
<g id="iconBg">
	<path class="icon_x002D_vs_x002D_bg" d="M15,9.25c0,0.625-0.213,1.194-0.559,1.656l-0.53-1.068
		c0.065-0.185,0.107-0.381,0.107-0.588c0-0.791-0.519-1.451-1.226-1.668l-0.281-0.566h-1.077C11.409,5.346,10.076,4,8.43,4
		C7.141,4,6.051,4.829,5.622,5.988C5.297,5.838,4.94,5.75,4.561,5.75c-1.424,0-2.579,1.175-2.579,2.625
		C1.982,9.825,3.137,11,4.561,11H8.49l-0.503,1H4.561C2.598,12,1,10.374,1,8.375C1,6.376,2.598,4.75,4.561,4.75
		c0.19,0,0.38,0.016,0.567,0.047C5.859,3.695,7.096,3,8.43,3c2.014,0,3.684,1.526,3.953,3.501C13.834,6.547,15,7.763,15,9.25z"/>
</g>
<g id="notificationBg">
	<path class="icon_x002D_vs_x002D_yellow" d="M11.891,8.016h-0.781l-3.016,6L8.609,15h5.766l0.484-1L11.891,8.016z M12,14h-1v-1h1
		V14z M12,12h-1v-2h1V12z"/>
</g>
<g id="notificationFg">
	<path id="XMLID_7_" class="icon_x002D_black" d="M11.985,13v1H11v-1H11.985z M11.985,10H11v2h0.985V10z"/>
	<g>
	</g>
	<g>
	</g>
	<g>
	</g>
	<g>
	</g>
	<g>
	</g>
	<g>
	</g>
</g>
</svg>
