<svg xmlns="http://www.w3.org/2000/svg" viewBox="0 0 16 16" enable-background="new 0 0 16 16"><style type="text/css">.icon-canvas-transparent{opacity:0;fill:#F6F6F6;} .icon-vs-out{fill:#F6F6F6;} .icon-vs-bg{fill:#424242;} .icon-vs-fg{fill:#F0EFF1;}</style><path class="icon-canvas-transparent" d="M16 16h-16v-16h16v16z" id="canvas"/><path class="icon-vs-out" d="M16 2v14h-12.5c-1.93 0-3.5-1.57-3.5-3.5 0-1.827 1.407-3.331 3.194-3.487.692-.649 1.6-1.013 2.556-1.013l.25.019v-6.019c0-1.103.897-2 2-2h6c1.102 0 2 .897 2 2z" id="outline"/><path class="icon-vs-fg" d="M8 2v6.763c.435.327.796.747 1.055 1.237h3.945v1h-2.769c.259.289.456.631.588 1h2.181v1h-2c0 .352-.072.686-.184 1h3.184v-12h-6zm5 2h-4v-1h4v1zm-7.25 6c.966 0 1.75.784 1.75 1.75v.25h.5c.552 0 1 .448 1 1s-.448 1-1 1h-4.5c-.828 0-1.5-.672-1.5-1.5s.672-1.5 1.5-1.5c.22 0 .428.05.617.136.249-.663.884-1.136 1.633-1.136" id="iconFg"/><path class="icon-vs-bg" d="M13 4h-4v-1h4v1zm-2.769 7h2.769v-1h-3.945l.129.244c.405.175.76.435 1.047.756zm2.769 1h-2.18c.113.316.18.651.18 1h2v-1zm1-11h-6c-.551 0-1 .449-1 1v6.224c.361.128.697.311 1 .539v-6.763h6v12h-3.184c-.133.374-.336.711-.596 1h4.78v-13c0-.551-.448-1-1-1zm-8.25 9c-.749 0-1.384.473-1.633 1.136-.189-.086-.397-.136-.617-.136-.828 0-1.5.672-1.5 1.5s.672 1.5 1.5 1.5h4.5c.552 0 1-.448 1-1s-.448-1-1-1h-.5v-.25c0-.966-.784-1.75-1.75-1.75m0-1c1.272 0 2.344.868 2.658 2.042.908.188 1.592.995 1.592 1.958 0 1.103-.897 2-2 2h-4.5c-1.378 0-2.5-1.121-2.5-2.5s1.122-2.5 2.5-2.5l.133.004c.514-.622 1.288-1.004 2.117-1.004z" id="iconBg"/></svg>