<svg xmlns="http://www.w3.org/2000/svg" width="16" height="16"><style type="text/css">.icon-canvas-transparent{opacity:0;fill:#F6F6F6;} .icon-vs-out{fill:#F6F6F6;} .icon-vs-bg{fill:#424242;} .icon-vs-fg{fill:#F0EFF1;}</style><path class="icon-canvas-transparent" d="M16 16h-16v-16h16v16z" id="canvas"/><path class="icon-vs-out" d="M15.391 9.309c.366.651.593 1.392.593 2.191 0 2.481-2.017 4.5-4.495 4.5-1.556 0-2.927-.795-3.734-2h-.762v2h-6.993v-3h1.998v-2.561c-.221-.126-.427-.273-.618-.439h-1.38v-3h.006c.015-1.593.951-2.981 2.358-3.584.491-1.987 2.248-3.416 4.331-3.416 1.141 0 2.207.426 3.021 1.189.295-.077.601-.117.908-.117 1.775 0 3.254 1.303 3.551 3.012 1.114.652 1.825 1.865 1.825 3.195 0 .749-.227 1.445-.609 2.03z" id="outline"/><path class="icon-vs-bg" d="M6.702 2c-1.363 0-2.469 1.127-2.469 2.519 0 .218.035.424.086.625-.135-.031-.273-.052-.42-.052-1.038 0-1.879.851-1.893 1.908h-1c.017-1.376.971-2.528 2.244-2.824.173-1.781 1.655-3.176 3.452-3.176 1.109 0 2.104.524 2.74 1.361.36-.188.767-.29 1.193-.29 1.438 0 2.609 1.187 2.609 2.643v.025c1.031.371 1.771 1.369 1.771 2.539 0 .406-.098.788-.259 1.135-.244-.258-.515-.488-.813-.683.042-.148.071-.302.071-.465 0-.933-.742-1.69-1.658-1.69-.135 0-.264.021-.387.052.172-.263.273-.579.273-.919 0-.906-.721-1.641-1.609-1.641-.688 0-1.267.44-1.5 1.057-.185-1.202-1.198-2.124-2.431-2.124zm-3.702 9h3v-1h-3v1zm-2 4h5v-1h-5v1zm3-7h-3v1h3v-1zm4.706 0h-3.706v1h2.762c.257-.384.585-.712.944-1zm-1.655 4h-4.051v1h4.276c-.113-.318-.186-.653-.225-1zm7.949-.5c0 1.933-1.567 3.5-3.5 3.5s-3.5-1.567-3.5-3.5 1.567-3.5 3.5-3.5 3.5 1.567 3.5 3.5zm-2-1.5h-3v3h3v-3z" id="iconBg"/><path class="icon-vs-fg" d="M10 7h-7.994c.014-1.057.855-1.908 1.893-1.908.146 0 .285.02.42.052-.05-.202-.086-.408-.086-.625 0-1.392 1.106-2.519 2.469-2.519 1.233 0 2.246.922 2.434 2.125.233-.616.813-1.057 1.5-1.057.889 0 1.609.734 1.609 1.641 0 .34-.101.656-.273.919.123-.031.252-.052.387-.052.916 0 1.658.758 1.658 1.69 0 .163-.029.316-.071.465-.706-.458-1.544-.731-2.446-.731-.528 0-1.028.108-1.5.276v-.276zm3 3h-3v3h3v-3z" id="iconFg"/></svg>