<svg xmlns="http://www.w3.org/2000/svg" width="16" height="16"><style type="text/css">.icon-canvas-transparent{opacity:0;fill:#F6F6F6;} .icon-vs-out{fill:#F6F6F6;} .icon-vs-bg{fill:#424242;} .icon-vs-fg{fill:#F0EFF1;} .icon-vs-green{fill:#339933;} .icon-white{fill:#FFFFFF;}</style><path class="icon-canvas-transparent" d="M16 16h-16v-16h16v16z" id="canvas"/><path class="icon-vs-out" d="M15.392 9.307c.365.652.592 1.393.592 2.193 0 2.485-2.013 4.5-4.495 4.5-1.559 0-2.93-.795-3.736-2h-.76v2h-6.993v-3h1.998v-2.561c-.221-.126-.427-.273-.618-.439h-1.38v-3h.006c.015-1.593.951-2.981 2.358-3.584.491-1.987 2.248-3.416 4.331-3.416 1.141 0 2.207.426 3.021 1.189.295-.077.601-.117.908-.117 1.775 0 3.254 1.303 3.551 3.012 1.114.652 1.825 1.865 1.825 3.195 0 .749-.227 1.444-.608 2.028z" id="outline"/><path class="icon-vs-bg" d="M3 10h3v1h-3v-1zm1-2h-3v1h3v-1zm-3 7h5v-1h-5v1zm8.136-10.875c.233-.616.813-1.057 1.5-1.057.889 0 1.609.734 1.609 1.641 0 .34-.101.656-.273.919.123-.031.252-.052.387-.052.916 0 1.658.758 1.658 1.69 0 .162-.029.315-.071.464.299.194.569.424.813.681.16-.346.258-.726.258-1.132 0-1.17-.74-2.168-1.771-2.539v-.025c0-1.457-1.171-2.643-2.609-2.643-.427 0-.833.102-1.193.29-.637-.838-1.632-1.362-2.742-1.362-1.797 0-3.279 1.395-3.452 3.176-1.273.296-2.227 1.448-2.244 2.824h1c.014-1.057.855-1.908 1.893-1.908.146 0 .285.02.42.052-.05-.202-.086-.408-.086-.625 0-1.392 1.106-2.519 2.469-2.519 1.233 0 2.246.922 2.434 2.125zm-.433 3.875h-3.703v1h2.76c.257-.384.584-.712.943-1zm-1.652 4h-4.051v1h4.275c-.113-.318-.186-.653-.224-1z" id="iconBg"/><path class="icon-vs-fg" d="M10 7h-7.994c.014-1.057.855-1.908 1.893-1.908.146 0 .285.02.42.052-.05-.202-.086-.408-.086-.625 0-1.392 1.106-2.519 2.469-2.519 1.233 0 2.246.922 2.434 2.125.233-.616.813-1.057 1.5-1.057.889 0 1.609.734 1.609 1.641 0 .34-.101.656-.273.919.123-.031.252-.052.387-.052.916 0 1.658.758 1.658 1.69 0 .162-.029.315-.071.464-.706-.457-1.543-.73-2.446-.73-.529 0-1.028.108-1.5.275v-.275z" id="iconFg"/><path class="icon-vs-green" d="M11.5 8c-1.93 0-3.5 1.57-3.5 3.5s1.57 3.5 3.5 3.5 3.5-1.57 3.5-3.5-1.57-3.5-3.5-3.5zm0 6h-1.125l-1.125-2h1.125l.563.75 1.687-3.75h1.125l-2.25 5z" id="notificationBg"/><path class="icon-white" d="M11.5 14h-1.125l-1.125-2h1.125l.563.75 1.687-3.75h1.125l-2.25 5z" id="notificationFg"/></svg>