<svg xmlns="http://www.w3.org/2000/svg" viewBox="0 0 16 16"><style>.icon-canvas-transparent{opacity:0;fill:#f6f6f6}.icon-vs-out{fill:#f6f6f6}.icon-vs-bg{fill:#424242}.icon-vs-fg{fill:#f0eff1}.icon-folder{fill:#dcb67a}</style><path class="icon-canvas-transparent" d="M0 0h16v16H0V0z" id="canvas"/><path class="icon-vs-out" d="M15 4.5v8c0 .827-.677 1.5-1.504 1.5h-.998A3.254 3.254 0 0 1 9.5 16H3.875C2.097 16 .61 14.789.156 13.153A1.479 1.479 0 0 1 0 12.5v-10C0 1.673.673 1 1.5 1h8.11l1 2h2.886C14.323 3 15 3.673 15 4.5z" id="outline"/><g id="iconBg"><path class="icon-folder" d="M13.496 4H9.992l-1-2H1.5a.5.5 0 0 0-.5.5v7.045a3.856 3.856 0 0 1 2.71-1.291A4.208 4.208 0 0 1 6.688 7c1.744 0 3.298 1.1 3.911 2.691a3.265 3.265 0 0 1 2.151 3.059c0 .086-.019.166-.025.25h.771a.503.503 0 0 0 .504-.5v-8c0-.276-.227-.5-.504-.5zM2 4V3h6.374l.5 1H2z"/><path class="icon-vs-bg" d="M6.688 9c1.208 0 2.188.979 2.188 2.188v.312H9.5a1.25 1.25 0 0 1 0 2.5H3.875a1.875 1.875 0 0 1 0-3.75c.276 0 .535.063.771.17A2.183 2.183 0 0 1 6.688 9m0-1c-1.005 0-1.94.484-2.533 1.264A2.879 2.879 0 0 0 1 12.125 2.879 2.879 0 0 0 3.875 15H9.5a2.252 2.252 0 0 0 2.25-2.25c0-1.137-.848-2.08-1.945-2.229A3.194 3.194 0 0 0 6.688 8z"/></g><path class="icon-vs-fg" d="M2 3h6.374l.5 1H2V3zm4.688 6c1.208 0 2.188.979 2.188 2.188v.312H9.5a1.25 1.25 0 0 1 0 2.5H3.875a1.875 1.875 0 0 1 0-3.75c.276 0 .535.063.771.17A2.183 2.183 0 0 1 6.688 9" id="iconFg"/></svg>