<svg xmlns="http://www.w3.org/2000/svg" viewBox="0 0 16 16"><style>.icon-canvas-transparent{opacity:0;fill:#f6f6f6}.icon-vs-out{fill:#f6f6f6}.icon-vs-fg{fill:#f0eff1}.icon-vs-blue{fill:#1ba1e2}</style><path class="icon-canvas-transparent" d="M16 16H0V0h16v16z" id="canvas"/><path class="icon-vs-out" d="M4.562 13C2.046 13 0 10.925 0 8.375S2.046 3.75 4.562 3.75l.105.001A4.945 4.945 0 0 1 8.43 2c2.223 0 4.161 1.508 4.783 3.614C14.826 6.023 16 7.49 16 9.25c0 2.067-1.661 3.75-3.702 3.75H4.562z" id="outline"/><path class="icon-vs-fg" d="M8.43 4c1.662 0 3.009 1.371 3.009 3.063V7.5h.86c.95 0 1.719.783 1.719 1.75S13.248 11 12.299 11H4.561c-1.424 0-2.579-1.175-2.579-2.625S3.137 5.75 4.561 5.75c.379 0 .736.088 1.06.238C6.051 4.829 7.141 4 8.43 4" id="iconFg"/><path class="icon-vs-blue" d="M8.43 4c1.662 0 3.009 1.371 3.009 3.063V7.5h.86c.95 0 1.719.783 1.719 1.75S13.248 11 12.299 11H4.561c-1.424 0-2.579-1.175-2.579-2.625S3.137 5.75 4.561 5.75c.379 0 .736.088 1.06.238C6.051 4.829 7.141 4 8.43 4m0-1c-1.334 0-2.57.695-3.302 1.797a3.461 3.461 0 0 0-.567-.047C2.598 4.75 1 6.376 1 8.375S2.598 12 4.561 12h7.737C13.788 12 15 10.766 15 9.25c0-1.488-1.166-2.703-2.617-2.749C12.114 4.526 10.444 3 8.43 3z" id="iconBg"/></svg>