<svg xmlns="http://www.w3.org/2000/svg" width="16" height="16"><style type="text/css">.icon-canvas-transparent{opacity:0;fill:#F6F6F6;} .icon-vs-out{fill:#F6F6F6;} .icon-vs-bg{fill:#424242;} .icon-vs-fg{fill:#F0EFF1;}</style><path class="icon-canvas-transparent" d="M16 16h-16v-16h16v16z" id="canvas"/><path class="icon-vs-out" d="M16 7.279c0 1.888-1.402 3.465-3.261 3.668-.042.014-.18.027-.314.027h-5.419v3.995h-6.994v-6.464l-.012-.008v-1.14l.031-.015-.031-.305c0-1.608.943-3.013 2.362-3.621.49-1.987 2.248-3.416 4.331-3.416 1.141 0 2.207.426 3.022 1.188.296-.077.602-.117.909-.117 1.775 0 3.255 1.303 3.552 3.012 1.113.653 1.824 1.866 1.824 3.196z" id="outline"/><path class="icon-vs-bg" d="M6 8l-2-1-.5 2-.5-2-2 1 1.5 1h-1.5v5h5v-5h-1.5l1.5-1zm-3 5h-1v-1h1v1zm0-2h-1v-1h1v1zm2 2h-1v-1h1v1zm0-3v1h-1v-1h1zm10.014-2.721c0 1.381-1.03 2.527-2.372 2.674l-.206.021h-5.424v-.004h-.012v-1.012h5.436v-.008c.879-.045 1.578-.778 1.578-1.684 0-.933-.742-1.69-1.658-1.69-.135 0-.264.021-.387.052.172-.263.273-.579.273-.919 0-.906-.721-1.641-1.609-1.641-.687 0-1.268.44-1.5 1.057-.188-1.203-1.201-2.125-2.434-2.125-1.363 0-2.469 1.127-2.469 2.519 0 .218.035.424.086.625-.135-.031-.273-.052-.42-.052-.79 0-1.466.493-1.751 1.192l-1.129.565c.083-1.308 1.005-2.388 2.231-2.673.173-1.781 1.655-3.176 3.452-3.176 1.109 0 2.104.524 2.74 1.361.36-.188.767-.29 1.193-.29 1.438 0 2.609 1.187 2.609 2.644v.025c1.032.371 1.773 1.369 1.773 2.539z" id="iconBg"/><path class="icon-vs-fg" d="M3 11h-1v-1h1v1zm0 1h-1v1h1v-1zm2-2h-1v1h1v-1zm0 2h-1v1h1v-1zm7.356-6.424c-.135 0-.264.021-.387.052.172-.263.273-.579.273-.919 0-.906-.721-1.641-1.609-1.641-.687 0-1.268.44-1.5 1.057-.188-1.203-1.201-2.125-2.434-2.125-1.363 0-2.469 1.127-2.469 2.519 0 .218.035.424.086.625-.135-.031-.273-.052-.42-.052-.79 0-1.466.493-1.751 1.192l1.098-.549h.535l3.222 1.611v1.612h5.436v-.008c.879-.045 1.578-.778 1.578-1.684 0-.932-.743-1.69-1.658-1.69z" id="iconFg"/></svg>