<svg xmlns="http://www.w3.org/2000/svg" width="16" height="16"><style type="text/css">.icon-canvas-transparent{opacity:0;fill:#F6F6F6;} .icon-vs-out{fill:#F6F6F6;} .icon-vs-bg{fill:#424242;} .icon-vs-fg{fill:#F0EFF1;} .icon-vs-action-blue{fill:#00539C;}</style><path class="icon-canvas-transparent" d="M16 16h-16v-16h16v16z" id="canvas"/><path class="icon-vs-out" d="M14.56 10.213c.272.54.439 1.142.439 1.788 0 2.209-1.789 3.999-3.996 3.999-1.475 0-2.749-.81-3.441-2h-.554v2h-6.994v-3h1.998v-2.552c-.228-.129-.439-.278-.635-.448h-1.363v-2.827l-.014-.136c0-1.608.943-3.013 2.362-3.621.49-1.987 2.248-3.416 4.331-3.416 1.141 0 2.207.426 3.022 1.189.296-.077.602-.117.909-.117 1.775 0 3.255 1.303 3.552 3.012 1.113.652 1.824 1.865 1.824 3.195 0 1.192-.561 2.258-1.44 2.934z" id="outline"/><path class="icon-vs-bg" d="M4 9h-3v-1h3v1zm-1 2h3v-1h-3v1zm-2 4h5v-1h-5v1zm8.119-10.875c.233-.616.813-1.057 1.5-1.057.889 0 1.609.734 1.609 1.641 0 .34-.102.656-.273.919.123-.031.252-.052.387-.052.916 0 1.658.758 1.658 1.69 0 .599-.309 1.116-.769 1.416.289.194.538.436.767.697.61-.493 1.002-1.251 1.002-2.1 0-1.17-.74-2.168-1.771-2.539v-.025c0-1.457-1.171-2.643-2.609-2.643-.427 0-.833.102-1.193.29-.637-.838-1.632-1.362-2.741-1.362-1.797 0-3.28 1.395-3.453 3.176-1.273.296-2.226 1.448-2.244 2.824h1c.014-1.057.855-1.908 1.894-1.908.147 0 .285.02.42.052-.051-.202-.086-.408-.086-.625 0-1.392 1.105-2.519 2.469-2.519 1.232 0 2.246.922 2.433 2.125zm-2.127 7.876v-.001h-3.992v1h4.133c-.083-.321-.141-.652-.141-.999zm.556-2.001h-.548v1h.134c.093-.356.233-.689.414-1zm1.452-1.448v-.552h-4v1h3.373c.194-.169.402-.318.627-.448z" id="iconBg"/><path class="icon-vs-fg" d="M10 7h-8.011c.014-1.057.855-1.908 1.893-1.908.146 0 .285.021.42.052-.05-.202-.085-.408-.085-.625 0-1.392 1.105-2.519 2.468-2.519 1.233 0 2.246.922 2.434 2.125.233-.616.813-1.057 1.5-1.057.889 0 1.609.734 1.609 1.641 0 .34-.102.656-.273.919.123-.031.252-.052.387-.052.916 0 1.658.758 1.658 1.69 0 .529-.249.984-.622 1.293l-3.378-2.873v1.314z" id="iconFg"/><path class="icon-vs-action-blue" d="M14 12c0 1.657-1.343 3-3 3-1.656 0-3-1.343-3-3 0-1.656 1.344-3 3-3v-1.15l2 1.701-2 1.6v-1.151c-1.104 0-2.15.896-2.15 2s1.046 2.15 2.15 2.15 2-1.046 2-2.15c0-.162.1-.193.063-.344l.844-.344c.229.704.093.815.093.688z" id="notificationBg"/></svg>