<svg xmlns="http://www.w3.org/2000/svg" width="16" height="16"><style type="text/css">.icon-canvas-transparent{opacity:0;fill:#F6F6F6;} .icon-vs-out{fill:#F6F6F6;} .icon-vs-bg{fill:#424242;} .icon-vs-fg{fill:#F0EFF1;} .icon-vs-action-blue{fill:#00539C;}</style><path class="icon-canvas-transparent" d="M16 16h-16v-16h16v16z" id="canvas"/><path class="icon-vs-out" d="M16 9.28c0 .874-.313 1.724-.88 2.394l-.66.777c-.224 1.996-1.914 3.549-3.969 3.549-1.871 0-3.437-1.287-3.873-3.025h-2.75c-2.141-.037-3.868-1.803-3.868-3.937 0-1.608.943-3.013 2.362-3.621.49-1.988 2.248-3.416 4.331-3.416 1.141 0 2.207.426 3.023 1.188.295-.077.602-.117.908-.117 1.775 0 3.257 1.303 3.554 3.012 1.112.653 1.822 1.867 1.822 3.196z" id="outline"/><path class="icon-vs-bg" d="M15.014 9.28c0 .667-.244 1.276-.645 1.747-.101-.404-.262-.781-.476-1.127l.064-.231.041-.229.002-.03.012-.177c-.019-.916-.75-1.656-1.656-1.656-.135 0-.264.021-.387.052.172-.263.273-.579.273-.919 0-.906-.721-1.641-1.609-1.641-.687 0-1.268.44-1.5 1.057-.188-1.203-1.202-2.125-2.434-2.125-1.363 0-2.468 1.127-2.468 2.519 0 .218.035.424.086.625-.135-.031-.273-.052-.42-.052-1.047 0-1.897.865-1.897 1.933 0 1.06.836 1.915 1.871 1.931v.002h2.771l-.037.143-.033.15-.036.24-.017.129-.018.353h-2.63c-1.591-.027-2.871-1.343-2.871-2.936 0-1.393.962-2.562 2.247-2.861.173-1.781 1.655-3.176 3.452-3.176 1.109 0 2.105.524 2.741 1.361.361-.188.768-.29 1.193-.29 1.439 0 2.609 1.187 2.609 2.644v.025c1.031.371 1.772 1.369 1.772 2.539z" id="iconBg"/><path class="icon-vs-fg" d="M3.871 10.959v-.002c-1.035-.016-1.871-.871-1.871-1.931 0-1.068.85-1.934 1.896-1.934.146 0 .285.021.42.052-.05-.201-.086-.407-.086-.624 0-1.392 1.105-2.519 2.468-2.519 1.232 0 2.246.922 2.434 2.125.232-.616.813-1.057 1.5-1.057.889 0 1.609.734 1.609 1.641 0 .34-.102.656-.273.919.123-.031.252-.052.387-.052.916 0 1.658.758 1.658 1.69l-.016.169c-.305-.355-.67-.653-1.078-.886l-3.419-2.821v2.399c-1.389.358-2.487 1.447-2.862 2.831h-2.767z" id="iconFg"/><path class="icon-vs-action-blue" d="M13.5 12c0 1.656-1.342 3-3 3-1.657 0-3-1.344-3-3s1.344-2.999 3-2.999v-1.15l2 1.65-2 1.649v-1.15c-1.104 0-2 .896-2 2 0 1.106.897 2 2 2 1.106 0 2-.894 2-2l-.031-.311.949-.381c.053.223.082.454.082.692z" id="notificationBg"/></svg>