<svg xmlns="http://www.w3.org/2000/svg" viewBox="0 0 16 16"><style>.icon-canvas-transparent{opacity:0;fill:#f6f6f6}.icon-vs-out{fill:#f6f6f6}.icon-vs-bg{fill:#424242}.icon-vs-fg{fill:#f0eff1}.icon-folder{fill:#dcb67a}</style><path class="icon-canvas-transparent" d="M0 0h16v16H0V0z" id="canvas"/><path class="icon-vs-out" d="M2 1h7.116l1 2H13c.97 0 2 .67 2 1.969V7h1v1.165l-.864 2.159c.54.612.864 1.42.864 2.283C16 14.467 14.583 16 12.757 16H7.062a1.66 1.66 0 0 1-.316-.026C5.595 15.832 4.658 15 4.244 14H2s-.86-.037-1.43-.581c-.343-.332-.57-.833-.57-1.45v-9C0 1.666 1.005 1 2 1z" id="outline"/><g id="iconBg"><path class="icon-folder" d="M7.126 8a3.146 3.146 0 0 0-1.849 2.186 3.221 3.221 0 0 0-1.264 2.58c0 .08.016.156.021.234H2l3-5h2.126zM1 3v9c0 1 1 1 1 1V3h6l1 2h4v2.716a3.774 3.774 0 0 1 1.343 1.927L15 8h-1V5c0-1-1.236-1-1-1H9.5l-1-2H2S1 2 1 3z"/><path class="icon-vs-bg" d="M5.014 12.766c0 1.121.805 2.056 1.855 2.186.062.012.127.019.193.019h5.694C14.022 14.946 15 13.902 15 12.592c0-1.036-.635-1.919-1.517-2.243C13.28 9.019 12.188 8 10.876 8a2.56 2.56 0 0 0-1.934.889 1.957 1.957 0 0 0-.682-.123c-1.094 0-1.992.894-2.064 2.02a2.215 2.215 0 0 0-1.182 1.98zm.999.001c0-.671.493-1.216 1.102-1.216.09 0 .176.014.258.036a1.28 1.28 0 0 1-.182-.662c0-.653.479-1.181 1.069-1.181.457 0 .843.316.997.761.125-.866.799-1.531 1.618-1.531.906 0 1.642.811 1.642 1.813 0 .157-.023.306-.058.451.09-.023.183-.037.279-.037.696 0 1.261.623 1.261 1.391 0 .766-.556 1.381-1.243 1.393v.001H7.062v-.005c-.584-.034-1.049-.561-1.049-1.214z"/></g><path class="icon-vs-fg" d="M8 3l1 2h4v2.716a3.53 3.53 0 0 0-4.353.076A2.96 2.96 0 0 0 7.126 8H5l-3 5V3h6zM7 13.981V14h5.757v-.008c.687-.012 1.243-.635 1.243-1.4 0-.768-.564-1.391-1.261-1.391-.097 0-.19.015-.279.037.034-.146.058-.294.058-.451 0-1.003-.736-1.813-1.642-1.813-.819 0-1.494.665-1.619 1.531-.154-.444-.541-.761-.998-.761-.591 0-1.071.527-1.071 1.181 0 .246.063.473.178.662a1.054 1.054 0 0 0-.266-.036c-.608 0-1.117.545-1.117 1.216-.001.653.017 1.18 1.017 1.214z" id="iconFg"/></svg>