<svg xmlns="http://www.w3.org/2000/svg" width="16" height="16"><style type="text/css">.icon-canvas-transparent{opacity:0;fill:#F6F6F6;} .icon-vs-out{fill:#F6F6F6;} .icon-vs-bg{fill:#424242;} .icon-vs-fg{fill:#F0EFF1;} .icon-vs-green{fill:#339933;} .icon-white{fill:#FFFFFF;}</style><path class="icon-canvas-transparent" d="M15.983 16h-16v-16h16v16z" id="canvas"/><path class="icon-vs-out" d="M15.831 10.342c.099.372.169.755.169 1.158 0 2.485-2.015 4.5-4.5 4.5-1.966 0-3.62-1.269-4.232-3.025h-3.41c-2.143-.037-3.871-1.803-3.871-3.938 0-1.608.944-3.013 2.364-3.621.49-1.987 2.25-3.416 4.334-3.416 1.142 0 2.209.426 3.025 1.188.296-.077.602-.117.909-.117 1.777 0 3.258 1.303 3.555 3.012 1.114.653 1.826 1.866 1.826 3.196 0 .371-.068.724-.169 1.063z" id="outline"/><path class="icon-vs-bg" d="M7.048 11.975h-3.19c-1.591-.027-2.871-1.344-2.871-2.938 0-1.393.962-2.563 2.247-2.861.172-1.782 1.655-3.176 3.451-3.176 1.109 0 2.104.524 2.74 1.361.36-.188.767-.29 1.193-.29 1.439 0 2.609 1.187 2.609 2.643v.025c.819.295 1.448.988 1.674 1.846-.686-.8-1.637-1.352-2.728-1.518.026-.117.053-.234.053-.359 0-.906-.721-1.641-1.609-1.641-.688 0-1.267.44-1.5 1.057-.185-1.202-1.199-2.124-2.432-2.124-1.363 0-2.468 1.127-2.468 2.519 0 .218.035.424.086.625-.135-.031-.273-.052-.42-.052-1.047 0-1.896.865-1.896 1.934 0 1.06.836 1.915 1.871 1.931v.002h3.197c-.022.179-.055.355-.055.541 0 .163.031.317.048.475z" id="iconBg"/><path class="icon-vs-fg" d="M3.857 10.958v-.002c-1.035-.016-1.871-.871-1.871-1.931 0-1.068.85-1.934 1.896-1.934.146 0 .285.021.42.052-.05-.201-.085-.407-.085-.624 0-1.392 1.105-2.519 2.468-2.519 1.233 0 2.246.922 2.434 2.125.233-.616.813-1.057 1.5-1.057.889 0 1.609.734 1.609 1.641 0 .125-.027.242-.053.359-.222-.034-.444-.068-.675-.068-2.3 0-4.175 1.731-4.445 3.958h-3.198z" id="iconFg"/><path class="icon-vs-green" d="M11.5 8c-1.93 0-3.5 1.57-3.5 3.5s1.57 3.5 3.5 3.5 3.5-1.57 3.5-3.5-1.57-3.5-3.5-3.5zm0 6h-1.125l-1.125-2h1.125l.563.75 1.687-3.75h1.125l-2.25 5z" id="notificationBg"/><path class="icon-white" d="M11.5 14h-1.125l-1.125-2h1.125l.563.75 1.687-3.75h1.125l-2.25 5z" id="notificationFg"/></svg>