<svg xmlns="http://www.w3.org/2000/svg" width="16" height="16"><style type="text/css">.icon-canvas-transparent{opacity:0;fill:#F6F6F6;} .icon-vs-out{fill:#F6F6F6;} .icon-vs-bg{fill:#424242;} .icon-vs-fg{fill:#F0EFF1;}</style><path class="icon-canvas-transparent" d="M16 16h-16v-16h16v16z" id="canvas"/><path class="icon-vs-out" d="M15.822 10.37c.095.363.161.737.161 1.13 0 2.485-2.013 4.5-4.496 4.5-1.964 0-3.616-1.269-4.228-3.025h-3.391c-2.141-.037-3.868-1.803-3.868-3.938 0-1.608.943-3.013 2.362-3.621.49-1.987 2.248-3.416 4.331-3.416 1.141 0 2.207.426 3.022 1.188.296-.077.602-.117.909-.117 1.775 0 3.255 1.303 3.552 3.012 1.113.653 1.824 1.866 1.824 3.196 0 .381-.07.744-.178 1.091z" id="outline"/><path class="icon-vs-bg" d="M7.048 11.975h-3.174c-1.591-.027-2.871-1.344-2.871-2.938 0-1.393.962-2.563 2.247-2.861.173-1.782 1.655-3.176 3.452-3.176 1.109 0 2.104.524 2.74 1.361.36-.188.767-.29 1.193-.29 1.438 0 2.609 1.187 2.609 2.643v.025c.828.298 1.461 1.003 1.682 1.874-.685-.812-1.639-1.374-2.735-1.545.026-.117.054-.235.054-.36 0-.906-.721-1.641-1.609-1.641-.688 0-1.267.44-1.5 1.057-.188-1.202-1.201-2.124-2.434-2.124-1.363 0-2.469 1.127-2.469 2.519 0 .218.035.424.086.625-.135-.031-.273-.052-.42-.052-1.047 0-1.897.865-1.897 1.934 0 1.06.836 1.915 1.871 1.931v.002h3.181c-.021.179-.054.355-.054.541 0 .162.031.316.048.475zm7.952-.475c0 1.933-1.567 3.5-3.5 3.5s-3.5-1.567-3.5-3.5 1.567-3.5 3.5-3.5 3.5 1.567 3.5 3.5zm-2-1.5h-3v3h3v-3z" id="iconBg"/><path class="icon-vs-fg" d="M3.874 10.958v-.002c-1.035-.016-1.871-.871-1.871-1.931 0-1.068.85-1.934 1.897-1.934.146 0 .285.02.42.052-.051-.201-.087-.407-.087-.624 0-1.392 1.106-2.519 2.469-2.519 1.233 0 2.246.922 2.434 2.125.233-.616.813-1.057 1.5-1.057.889 0 1.609.734 1.609 1.641 0 .125-.027.243-.054.36-.226-.035-.454-.069-.691-.069-2.3 0-4.175 1.731-4.445 3.958h-3.181zm9.126-.958h-3v3h3v-3z" id="iconFg"/></svg>