<svg xmlns="http://www.w3.org/2000/svg" width="16" height="16"><style type="text/css">.icon-canvas-transparent{opacity:0;fill:#F6F6F6;} .icon-vs-out{fill:#F6F6F6;} .icon-vs-bg{fill:#424242;} .icon-vs-fg{fill:#F0EFF1;} .icon-vs-red{fill:#E51400;} .icon-white{fill:#FFFFFF;}</style><path class="icon-canvas-transparent" d="M16 16h-16v-16h16v16z" id="canvas"/><path class="icon-vs-out" d="M16 11.5c0 2.485-2.015 4.5-4.5 4.5-1.56 0-2.933-.795-3.74-2h-2.891l1.029 1h-4.337l-.299-.332c-.742-.826-1.262-2.113-1.262-3.132 0-1.075.557-2.403 1.354-3.23l.295-.306h2.351v-7h7v6.05c.166-.018.329-.05.5-.05 2.485 0 4.5 2.015 4.5 4.5z" id="outline"/><path class="icon-vs-bg" d="M3.5 9c-.779.721-1.322 1.457-1.322 2.536 0 .891.514 1.742 1.257 2.464h-1.429c-.57-.635-1.006-1.671-1.006-2.464 0-.825.471-1.91 1.074-2.536h1.426zm4.5-4v2h2v.275c-.476.17-.91.415-1.297.725h-2.703v2h1v3h-3v-3h1v-3h2v-2h-2v-3h5v3h-2zm-2 6h-1v1h1v-1zm3-7v-1h-3v1h3z" id="iconBg"/><path class="icon-vs-fg" d="M9 4h-3v-1h3v1zm-3 7h-1v1h1v-1z" id="iconFg"/><path class="icon-vs-red" d="M11.5 8c-1.933 0-3.5 1.567-3.5 3.5s1.567 3.5 3.5 3.5 3.5-1.567 3.5-3.5-1.567-3.5-3.5-3.5zm1.854 4.646l-.707.707-1.147-1.146-1.146 1.147-.707-.707 1.147-1.146-1.147-1.146.707-.707 1.146 1.147 1.146-1.147.707.707-1.146 1.145 1.147 1.146z" id="notificationBg"/><path class="icon-white" d="M12.207 11.5l1.147 1.146-.707.707-1.147-1.146-1.146 1.147-.707-.707 1.147-1.146-1.147-1.146.707-.707 1.146 1.147 1.146-1.147.707.707-1.146 1.145z" id="notificationFg"/></svg>