<svg xmlns="http://www.w3.org/2000/svg" width="16" height="16"><style type="text/css">.icon-canvas-transparent{opacity:0;fill:#F6F6F6;} .icon-vs-out{fill:#F6F6F6;} .icon-vs-bg{fill:#424242;} .icon-vs-fg{fill:#F0EFF1;}</style><path class="icon-canvas-transparent" d="M16 16h-16v-16h16v16z" id="canvas"/><path class="icon-vs-out" d="M16 11.536c0 1.018-.519 2.306-1.263 3.132l-.298.332h-4.338l1.029-1h-5.26l1.029 1h-4.339l-.298-.332c-.743-.826-1.262-2.113-1.262-3.132 0-1.075.557-2.403 1.354-3.23l.295-.306h2.351v-7h7v7h2.35l.295.305c.797.826 1.355 2.154 1.355 3.231z" id="outline"/><path class="icon-vs-bg" d="M11 10v-3h-2v-2h2v-3h-5v3h2v2h-2v3h-1v3h3v-3h-1v-2h3v2h-1v3h3v-3h-1zm-4 2h-1v-1h1v1zm0-8v-1h3v1h-3zm4 8h-1v-1h1v1zm2.822-.464c0-1.079-.542-1.815-1.322-2.536h1.426c.604.626 1.074 1.711 1.074 2.536 0 .793-.436 1.829-1.006 2.464h-1.429c.744-.722 1.257-1.573 1.257-2.464zm-9.387 2.464h-1.429c-.571-.635-1.006-1.671-1.006-2.464 0-.825.47-1.91 1.074-2.536h1.426c-.78.721-1.322 1.457-1.322 2.536 0 .891.514 1.742 1.257 2.464z" id="iconBg"/><path class="icon-vs-fg" d="M10 4h-3v-1h3v1zm-3 7h-1v1h1v-1zm4 0h-1v1h1v-1z" id="iconFg"/></svg>