<svg xmlns="http://www.w3.org/2000/svg" width="16" height="16"><style type="text/css">.icon-canvas-transparent{opacity:0;fill:#F6F6F6;} .icon-vs-out{fill:#F6F6F6;} .icon-vs-bg{fill:#424242;} .icon-vs-fg{fill:#F0EFF1;} .icon-vs-yellow{fill:#FFCC00;}</style><path class="icon-canvas-transparent" d="M16 16h-16v-16h16v16z" id="canvas"/><path class="icon-vs-out" d="M16 14l-1 2h-7l-1-2h-2.131l1.029 1h-4.337l-.299-.332c-.742-.826-1.262-2.113-1.262-3.132 0-1.075.557-2.403 1.354-3.23l.295-.306h2.351v-7h7v6h1.5l.5 1h.35l.295.305c.797.826 1.355 2.154 1.355 3.231l-.044.377 1.044 2.087z" id="outline"/><path class="icon-vs-bg" d="M3.5 9c-.779.721-1.322 1.457-1.322 2.536 0 .891.514 1.742 1.257 2.464h-1.429c-.57-.635-1.006-1.671-1.006-2.464 0-.825.471-1.91 1.074-2.536h1.426zm4.5 3l1-2h-1v2zm0-7v2h2v1l-1 2v-2h-3v2h1v3h-3v-3h1v-3h2v-2h-2v-3h5v3h-2zm-2 6h-1v1h1v-1zm3-7v-1h-3v1h3z" id="iconBg"/><path class="icon-vs-fg" d="M9 4h-3v-1h3v1zm-3 7h-1v1h1v-1z" id="iconFg"/><path class="icon-vs-yellow" d="M11.891 8.016h-.781l-3.016 6 .515.984h5.766l.484-1-2.968-5.984zm.109 5.984h-1v-1h1v1zm0-2h-1v-2h1v2z" id="notificationBg"/><path class="icon-black" d="M12 12h-1v-2h1v2zm0 1h-1v1h1v-1z" id="notificationFg"/></svg>