<svg xmlns="http://www.w3.org/2000/svg" width="16" height="16"><style type="text/css">.icon-canvas-transparent{opacity:0;fill:#F6F6F6;} .icon-vs-out{fill:#F6F6F6;} .icon-vs-bg{fill:#424242;} .icon-vs-fg{fill:#F0EFF1;}</style><path class="icon-canvas-transparent" d="M16 16h-16v-16h16v16z" id="canvas"/><path class="icon-vs-out" d="M16 0v7h-3v3h-1v5h-11v-6h3v-5h-2v-4h14z" id="outline"/><path class="icon-vs-bg" d="M8 3h-5v-2h5v2zm1-2v2h6v-2h-6zm-4 5h5v-2h-5v2zm6 0h4v-2h-4v2zm-6 3h7v-2h-7v2zm6 1v4h-9v-4h9zm-1 1h-7v2h7v-2z" id="iconBg"/><path class="icon-vs-fg" d="M3 11h7v2h-7v-2z" id="iconFg"/></svg>