<svg xmlns="http://www.w3.org/2000/svg" viewBox="0 0 16 16" enable-background="new 0 0 16 16"><style type="text/css">.icon-canvas-transparent{opacity:0;fill:#F6F6F6;} .icon-vs-out{fill:#F6F6F6;} .icon-vs-bg{fill:#424242;} .icon-vs-fg{fill:#F0EFF1;}</style><path class="icon-canvas-transparent" d="M16 16h-16v-16h16v16z" id="canvas"/><path class="icon-vs-out" d="M16 10h-.586l.586.586v.535l-4.879 4.879h-1.242l-1.879-1.879v.879h-8v-14h7.621l2.001 2h6.378v7z" id="outline"/><path class="icon-vs-fg" d="M2 4v-1h4.793l1 1h-5.793zm0 1v8h4.879l-.146-.146 1.853-1.854h-4.586v-1h5v.879l1.5 1.5 3.5-3.5v-3.879h-12zm1 2v-1h5v1h-5zm9 2h-7v-1h7v1z" id="iconFg"/><path class="icon-vs-bg" d="M9.208 4l-2.001-2h-6.207v12h6v-1h-5v-8h12v4h1v-5h-5.792zm-7.208 0v-1h4.793l1 1h-5.793zm12.146 6.146l.707.707-4.353 4.354-2.354-2.354.707-.707 1.646 1.646 3.647-3.646zm-11.146-4.146h5v1h-5v-1zm2 2h7v1h-7v-1zm4 3h-5v-1h5v1z" id="iconBg"/></svg>