<svg xmlns="http://www.w3.org/2000/svg" viewBox="0 0 16 16"><style>.icon-canvas-transparent{opacity:0;fill:#f6f6f6}.icon-vs-out{fill:#f6f6f6}.icon-vs-bg{fill:#424242}</style><path class="icon-canvas-transparent" d="M16 0v16H0V0h16z" id="canvas"/><path class="icon-vs-out" d="M16 0v5h-1v2h-2v2h-2.909a4.42 4.42 0 0 1-.872 2.142 5.64 5.64 0 0 1 2.052 3.749L11.392 16H0l.122-1.109a5.644 5.644 0 0 1 2.052-3.749 4.425 4.425 0 0 1-.918-2.7A4.445 4.445 0 0 1 5.697 4c.846 0 1.629.251 2.303.663V3H6V0h10z" id="outline"/><g id="iconBg"><path class="icon-vs-bg" d="M7.6 11.304A3.439 3.439 0 0 0 5.697 5a3.446 3.446 0 0 0-3.442 3.441c0 1.194.612 2.245 1.538 2.863A4.62 4.62 0 0 0 1.116 15h1.013c.246-1.757 1.744-3.118 3.568-3.118 1.823 0 3.32 1.361 3.567 3.118h1.013A4.621 4.621 0 0 0 7.6 11.304zm-1.903-.422a2.443 2.443 0 0 1-2.441-2.441A2.442 2.442 0 0 1 5.697 6a2.443 2.443 0 0 1 2.44 2.441 2.444 2.444 0 0 1-2.44 2.441zM9 3h3v1H9V3zm1-1H7V1h3v1zm-.123 5H12v1h-1.907a4.418 4.418 0 0 0-.216-1zM15 1v1h-4V1h4zM9 5h5v1H9.4a4.449 4.449 0 0 0-.4-.498V5zm4-2h2v1h-2V3z"/></g></svg>