<svg xmlns="http://www.w3.org/2000/svg" viewBox="0 0 16 16"><style>.icon-canvas-transparent{opacity:0;fill:#f6f6f6}.icon-vs-out{fill:#f6f6f6}.icon-vs-fg{fill:#f0eff1}.icon-vs-bg,.icon-vs-bg_x0020_2{fill:#424242}.icon-vs-green{fill:#393}.icon-vs-red{fill:#e51400}.icon-white{fill:#fff}</style><g id="canvas"><path id="XMLID_1_" class="icon-canvas-transparent" d="M16 16H0V0h16v16z"/></g><g id="outline"><path id="XMLID_3_" class="icon-vs-out" d="M16 15H7.297c-.77.616-1.734 1-2.797 1s-2.027-.384-2.797-1H0V1h1.703C2.473.384 3.437 0 4.5 0s2.027.384 2.797 1H16v14z"/></g><g id="iconFg"><path id="XMLID_7_" class="icon-vs-fg" d="M8.95 5a4.47 4.47 0 0 1-1.653 3C8.327 8.825 9 10.077 9 11.5c0 .529-.108 1.028-.275 1.5H14V5H8.95z"/></g><g id="iconBg"><path id="XMLID_5_" class="icon-vs-bg" d="M15 2v12H8.24a4.51 4.51 0 0 0 .484-1H14V5H8.95c.018-.167.05-.329.05-.5 0-.925-.281-1.785-.76-2.5H15z"/><circle id="XMLID_6_" class="icon-vs-red" cx="4.5" cy="11.5" r="3.5"/><path id="XMLID_11_" class="icon-vs-bg_x0020_2" d="M5.207 11.5l1.147-1.146-.708-.708L4.5 10.793 3.354 9.646l-.708.708L3.793 11.5l-1.147 1.146.708.708L4.5 12.207l1.146 1.147.708-.708z"/><circle id="XMLID_10_" class="icon-vs-green" cx="4.5" cy="4.5" r="3.5"/><path id="XMLID_9_" class="icon-vs-bg_x0020_2" d="M6.75 2H5.625L3.938 5.75 3.375 5H2.25l1.125 2H4.5z"/><path class="icon-white" d="M6.354 10.354L5.207 11.5l1.146 1.146-.707.707L4.5 12.207l-1.146 1.147-.707-.707L3.793 11.5l-1.146-1.146.707-.707L4.5 10.793l1.146-1.147.708.708zM6.75 2H5.625L3.938 5.75 3.375 5H2.25l1.125 2H4.5l2.25-5z"/></g></svg>