<svg xmlns="http://www.w3.org/2000/svg" viewBox="0 0 16 16"><style>.icon-canvas-transparent{opacity:0;fill:#f6f6f6}.icon-vs-out{fill:#f6f6f6}.icon-vs-bg{fill:#424242}.icon-vs-blue{fill:#1ba1e2}.icon-vs-fg{fill:#f0eff1}</style><g id="canvas"><path id="XMLID_1_" class="icon-canvas-transparent" d="M16 16H0V0h16v16z"/></g><g id="outline"><path id="XMLID_3_" class="icon-vs-out" d="M16 15H0V1h16v14z"/></g><path class="icon-vs-fg" d="M2 5v8h12V5H2zm4.354 5.646l-.707.707L3.293 9l2.354-2.354.707.707L4.707 9l1.647 1.646zm4 .708l-.707-.707L11.293 9 9.646 7.354l.707-.707L12.707 9l-2.353 2.354z" id="iconFg"/><g id="iconBg"><path class="icon-vs-bg" d="M1 2v12h14V2H1zm13 11H2V5h12v8z"/><path class="icon-vs-blue" d="M6.354 7.354L4.707 9l1.646 1.646-.707.707L3.293 9l2.354-2.354.707.708zm4-.708l-.708.708L11.293 9l-1.647 1.646.707.707L12.707 9l-2.353-2.354z"/></g></svg>