<svg xmlns="http://www.w3.org/2000/svg" width="16" height="16"><style type="text/css">.icon-canvas-transparent{opacity:0;fill:#F6F6F6;} .icon-vs-out{fill:#F6F6F6;} .icon-vs-bg{fill:#424242;} .icon-vs-fg{fill:#F0EFF1;}</style><path class="icon-canvas-transparent" d="M16 16h-16v-16h16v16z" id="canvas"/><path class="icon-vs-out" d="M16 5.063v2.878l-.499.03-.001 1.029c0 .469-.181 2-2.5 2h-1v-1h-2v6h-10v-9h.586l-.586-.586v-1.135l4.5-1.499v-1.782c0-.469.181-1.998 2.5-1.998h1v1h5v1.002c2.319 0 2.5 1.529 2.5 1.998v1.031l.5.032z" id="outline"/><path class="icon-vs-bg" d="M8 4h4v1h-3.25l-.75-.3v-.7zm0-1h4v-1h-4v1zm1 3l-2 2h2v7h-8v-7h2l-2-2 3-1 1 3 1-3 3 1zm-5 6h-2v2h2v-2zm0-3h-2v2h2v-2zm4 3h-2v2h2v-2zm-2-3v2h2v-2h-2zm4-2h2v-1h-2v1zm0 2h2v-1h-2v1zm4.5-3.5v-1.5c0-.5-.25-.999-1.5-.999v.749c.25 0 .5 0 .5.503v1.247c0 .5.197.839.5 1-.303.158-.5.5-.5 1v1.25s0 .5-.5.5v.75c1.25 0 1.5-.5 1.5-1v-1.5c0-.568.307-.488.5-.5v-1c-.178-.011-.5.081-.5-.5zm-8-3.248c0-.503.25-.503.5-.503v-.749c-1.25 0-1.5.499-1.5.999v1.5h1v-1.247z" id="iconBg"/><path class="icon-vs-fg" d="M4 11h-2v-2h2v2zm4-2h-2v2h2v-2zm-4 3h-2v2h2v-2zm4 0h-2v2h2v-2z" id="iconFg"/></svg>