<svg xmlns="http://www.w3.org/2000/svg" width="16" height="16"><style type="text/css">.icon-canvas-transparent{opacity:0;fill:#F6F6F6;} .icon-vs-out{fill:#F6F6F6;} .icon-vs-bg{fill:#424242;} .icon-vs-fg{fill:#F0EFF1;}</style><path class="icon-canvas-transparent" d="M16 16h-16v-16h16v16z" id="canvas"/><path class="icon-vs-out" d="M16 3v13h-12v-7s-.012-.951-.02-1c-.002.049-1.98 0-1.98 0s-.03-.995-.027-1.156c-.027-.865-.28-2.288-1.654-2.311l-.319.104v-2.065l.011-.003-.011-.036c1.374-.023 1.942-1.43 1.968-2.285l.001-.245 1.998-.003.001.247c0 2.247 3.032 1.753 3.032 1.753v1h9z" id="outline"/><path class="icon-vs-bg" d="M.279 3.533l-.004.001c2.852 0 2.692-3.488 2.692-3.488s-.15 3.52 2.703 3.52l-.004-.001c-2.852 0-2.692 3.488-2.692 3.488s.156-3.52-2.695-3.52zm5.405 4.729s-.095-2.061 1.59-2.061h.002c-1.686 0-1.596-2.079-1.596-2.079s.094 2.059-1.59 2.059h.002c1.683.001 1.592 2.081 1.592 2.081zm7.316-2.262h-5v1h5v-1zm0 3v-1h-1v1h1zm-6-1v1h4v-1h-4zm0 5h4v-1h-4v1zm5-3h-5v1h5v-1zm-5-6c0 .78.444.958.762 1h6.238v9h-8v-5h-1v6h10v-11h-8z" id="iconBg"/><path class="icon-vs-fg" d="M8 5v1h5v1h-5c-.141 0-.969.063-1 1h4v1h-5v5h8v-9h-6zm3 8h-4v-1h4v1zm1-2h-5v-1h5v1zm1-2h-1v-1h1v1z" id="iconFg"/></svg>