<svg xmlns="http://www.w3.org/2000/svg" viewBox="0 0 16 16"><style>.icon-canvas-transparent{opacity:0;fill:#f6f6f6}.icon-vs-out{fill:#f6f6f6}.icon-vs-bg{fill:#424242}.icon-vs-fg{fill:#f0eff1}</style><path class="icon-canvas-transparent" d="M16 16H0V0h16v16z" id="canvas"/><path class="icon-vs-out" d="M16 0v7h-3v3h-2v3H9c.4.6.4 1.4 0 2-.4.6-1 1-1.7 1H1.8C1 16 .4 15.6 0 15V13.1c0-.1 0-.1.1-.1L2 9.7V9H1V6h3V4H2V0h14z" id="outline"/><path class="icon-vs-bg" d="M8 3H3V1h5v2zM5 6h5V4H5v2zm4-5v2h6V1H9zm2 5h4V4h-4v2zM8 9h4V7H8v2zm0 1h-.8l1.1 2H10v-2H8zm-2 0V8h1V7H2v1h1v2L.9 13.5c-.4.7.1 1.5.9 1.5h5.5c.8 0 1.3-.8.9-1.5L6 10zm-3 2l1-1.7V8h1v2.3L6 12H3z" id="iconBg"/><path class="icon-vs-fg" d="M5 8v2.3L6 12H3l1-1.7V8h1z" id="iconFg"/></svg>