<svg xmlns="http://www.w3.org/2000/svg" width="16" height="16"><style type="text/css">.icon-canvas-transparent{opacity:0;fill:#F6F6F6;} .icon-vs-out{fill:#F6F6F6;} .icon-vs-bg{fill:#424242;} .icon-vs-fg{fill:#F0EFF1;}</style><path class="icon-canvas-transparent" d="M16 16h-16v-16h16v16z" id="canvas"/><path class="icon-vs-out" d="M15 1v7h-4v3h-2.051c.019.166.051.329.051.5 0 2.481-2.019 4.5-4.5 4.5l-.088-.009-.087.009c-2.385 0-4.325-1.94-4.325-4.325l.008-.096-.008-.079c0-1.953 1.258-3.602 3-4.224v-2.276h-2v-4h14z" id="outline"/><path class="icon-vs-bg" d="M14 7h-4v-2h4v2zm-10-2v2h5v-2h-5zm10-3h-6v2h6v-2zm-7 0h-5v2h5v-2zm.294 6c.648.518 1.146 1.204 1.43 2h1.276v-2h-2.706z" id="iconBg"/><path class="icon-vs-bg" d="M4.5 8c-1.933 0-3.5 1.567-3.5 3.5s1.567 3.5 3.5 3.5 3.5-1.567 3.5-3.5-1.567-3.5-3.5-3.5zm.5 6h-1v-3h1v3zm0-4h-1v-1h1v1z" id="notificationBg"/><path class="icon-vs-fg" d="M5 14h-1v-3h1v3zm0-5h-1v1h1v-1z" id="notificationFg"/></svg>