<svg xmlns="http://www.w3.org/2000/svg" viewBox="0 0 16 16"><style>.icon-canvas-transparent{opacity:0;fill:#f6f6f6}.icon-vs-out{fill:#f6f6f6}.icon-vs-bg{fill:#424242}</style><path class="icon-canvas-transparent" d="M16 16H0V0h16v16z" id="canvas"/><path class="icon-vs-out" d="M16 0v5h-2v2h-2v2h-2v2a5 5 0 0 1-5 5 4.96 4.96 0 0 1-2.973-1H0v-5h.101A5 5 0 0 1 6 6.101V3H4V0h12z" id="outline"/><path class="icon-vs-bg" d="M3.204 8.497l-.691-.69A3.657 3.657 0 0 1 4 7.093v1.021a2.737 2.737 0 0 0-.796.383zm-.7.714l-.682-.682A4.166 4.166 0 0 0 1.137 10h.969a3.11 3.11 0 0 1 .398-.789zM2.607 12H4v-1H1v3h1v-1h-.038L2 12.961c.606 1.131 1.709 1.919 3 2.012v-1c-1.111-.106-2.031-.896-2.393-1.973zM7 4h4V3H7v1zm-1 9.886v1.021a3.657 3.657 0 0 0 1.487-.714l-.691-.69c-.242.17-.51.298-.796.383zM9 1H5v1h4V1zm1 6v1h1V7h-1zm2-3h3V3h-3v1zM7 6h6V5H7v1zm.496 6.789l.682.682c.318-.429.549-.929.685-1.471h-.969a3.11 3.11 0 0 1-.398.789zM10 1v1h5V1h-5zM8 9.039c-.606-1.13-1.709-1.919-3-2.012v1c1.111.106 2.031.896 2.393 1.973H6v1h3V8H8v1.039z" id="iconBg"/></svg>