<svg xmlns="http://www.w3.org/2000/svg" width="16" height="16"><style type="text/css">.icon-canvas-transparent{opacity:0;fill:#F6F6F6;} .icon-vs-out{fill:#F6F6F6;} .icon-vs-bg{fill:#424242;} .icon-vs-fg{fill:#F0EFF1;}</style><path class="icon-canvas-transparent" d="M16 16h-16v-16h16v16z" id="canvas"/><path class="icon-vs-out" d="M16 3.983v4.989h-.995v1.971h-1.968v1.971h-1.017v2.488l-6.317-4.312c-.578 2.197-1.444 4.127-1.488 4.225l-.265.585h-.201l-.006.02-.543-.004-.008-.016h-.803l-.267-.58c-.083-.18-2.039-4.469-2.039-7.593 0-3.148 1.957-7.021 2.04-7.184l.277-.543h1.501l.276.544c.04.077.787 1.568 1.365 3.427l5.804-3.967h.674v3.236l-1.1.736 5.08.007z" id="outline"/><path class="icon-vs-bg" d="M14.979 5v.995h-3.979v-.995h3.979zm-1.979 3h1.989v-.995h-1.989v.995zm-5 1.995h5.969v-.995h-5.969v.995zm4-2.99h-5.953v.995h5.953v-.995zm-.974-4.217l-7.119 4.756 7.119 4.849v1.213l-5.981-4.052c-.473 2.63-1.738 5.431-1.738 5.431h-.281s-1.948-4.234-1.948-7.178c0-2.945 1.932-6.732 1.932-6.732h.282s1.106 2.182 1.643 4.52l6.092-4.097v1.29zm-8.932 4.766l-.021.253c0 1.525.569 3.326 1.076 4.624.386-.989.802-2.271.981-3.497l-2.036-1.38zm1.948-1.36c-.206-1.074-.555-2.153-.891-3.012-.475 1.216-.987 2.865-1.053 4.32l1.944-1.308z" id="iconBg"/><path class="icon-vs-fg" d="M4.13 8.934c-.179 1.227-.595 2.508-.981 3.497-.507-1.298-1.076-3.099-1.076-4.624l.021-.253 2.036 1.38zm-2.032-1.433c.066-1.455.579-3.104 1.053-4.32.336.86.685 1.939.891 3.013l-1.944 1.307z" id="iconFg"/></svg>