<svg xmlns="http://www.w3.org/2000/svg" viewBox="0 0 16 16"><style>.st0{opacity:0}.st0,.st1{fill:#f6f6f6}.st2{fill:none}.st3{fill:#424242}.st4{fill:#f0eff1}</style><g id="outline"><path class="st0" d="M0 0h16v16H0z"/><path class="st1" d="M16 0H4v6H1.586L0 7.586v4.828L1.586 14H2v2h2.414l2-2h2l1-1H16V0zM6 13l-2 2H3v-2H2l-1-1V8l1-1h6l1 1v4l-1 1H6zm9-1h-5V7.586L9.414 7l-1-1H5V1h10v11z"/></g><g id="icon_x5F_bg"><path class="st2" d="M7 8H2.414L2 8.414v3.172l.414.414H4V13.586l1.293-1.293.293-.293h2L8 11.586V8.414L7.586 8z"/><path class="st3" d="M7 3h6v1H7zM7 7H2L1 8v4l1 1h1v2h1l2-2h2l1-1V8L8 7H7zm1 3v1.586L7.586 12h-2l-.293.293L4 13.586V12H2.414L2 11.586V8.414L2.414 8H7.586L8 8.414V10z"/><path class="st3" d="M5 1v5h1V2h8v9h-4v1h5V1z"/><path class="st3" d="M10 9h1v1h-1zM10 8h2V7H9.414l.586.586zM12 5h1v1h-1zM7 6h4V5H7z"/></g><path class="st4" d="M14 2H6v4h1V5h4v1H8.414l1 1H12v1h-2v1h1v1h-1v1h4V2zm-1 4h-1V5h1v1zm0-2H7V3h6v1zm-5 7.586L7.586 12h-2l-.293.293L4 13.586V12H2.414L2 11.586V8.414L2.414 8H7.586L8 8.414v3.172z" id="icon_x5F_fg"/></svg>