<svg xmlns="http://www.w3.org/2000/svg" width="16" height="16"><style type="text/css">.icon-canvas-transparent{opacity:0;fill:#F6F6F6;} .icon-vs-out{fill:#F6F6F6;} .icon-vs-bg{fill:#424242;} .icon-vs-fg{fill:#F0EFF1;}</style><path class="icon-canvas-transparent" d="M16 16h-16v-16h16v16z" id="canvas"/><path class="icon-vs-out" d="M16 11.5c0 2.485-2.015 4.5-4.5 4.5-1.957 0-3.604-1.256-4.225-3h-7.275v-4h2v-5h-2v-4h14v7h-2.5c2.485 0 4.5 2.015 4.5 4.5z" id="outline"/><g id="iconBg"><path class="icon-vs-bg" d="M8 4v2h-5v-2h5zm-5 3v2h4.76c.533-.797 1.321-1.398 2.24-1.725v-.275h-7zm10-3h-4v2h4v-2zm-6 7.5c0-.529.108-1.028.275-1.5h-6.275v2h6.05c-.018-.166-.05-.329-.05-.5zm-1-10.5h-5v2h5v-2zm7 0h-6v2h6v-2z"/><rect x="9" y="11" class="icon-vs-bg" width="5" height="1"/></g><path class="icon-vs-bg" d="M11.5 8c-1.933 0-3.5 1.567-3.5 3.5s1.567 3.5 3.5 3.5 3.5-1.567 3.5-3.5-1.567-3.5-3.5-3.5zm-2.5 4v-1h5v1h-5z" id="notificationBg"/><path class="icon-vs-fg" d="M14 12h-5v-1h5v1z" id="notificationFg"/></svg>