<svg xmlns="http://www.w3.org/2000/svg" width="16" height="16"><style type="text/css">.icon-canvas-transparent{opacity:0;fill:#F6F6F6;} .icon-vs-out{fill:#F6F6F6;} .icon-vs-bg{fill:#424242;} .icon-vs-fg{fill:#F0EFF1;}</style><path class="icon-canvas-transparent" d="M16 16h-16v-16h16v16z" id="canvas"/><path class="icon-vs-out" d="M16 13h-7v1h-2v2h-7v-16h16v13z" id="outline"/><path class="icon-vs-bg" d="M1 10h1v2h-1v-2zm14-9v11h-5v-5h-1v-1h-1v1h-4v-3h3v-1h-3v1h-1v3h-2v-6h14zm-6 3.001h-1v1h1v-1zm4 3.999l-2-5h-1l2 5h1zm-9 0h-3v1h3v-1zm5 0v1h-4v-1h4zm-6 2h3v1h-3v-1zm4 0h2v1h-2v-1zm-4 2h5v1h-5v-1zm-2 2h5v1h-5v-1z" id="iconBg"/><path class="icon-vs-fg" d="M9 5.001h-1v-1h1v1zm0 1.999v-.999h-1v.999h1zm-5-3h3v-1h-3v1h-1v3h1v-3zm7-1h-1l2 5h1l-2-5z" id="iconFg"/></svg>