<svg xmlns="http://www.w3.org/2000/svg" width="16" height="16"><style type="text/css">.icon-canvas-transparent{opacity:0;fill:#F6F6F6;} .icon-vs-out{fill:#F6F6F6;} .icon-vs-bg{fill:#424242;} .icon-vs-blue{fill:#1BA1E2;} .icon-white{fill:#FFFFFF;}</style><path class="icon-canvas-transparent" d="M16 16h-16v-16h16v16z" id="canvas"/><path class="icon-vs-out" d="M12 5v2h2v4h-3v3h-4.5l-1 1h-2l-3.5-3.5v-2l3.5-3.5h.5v-5h12v4h-4z" id="outline"/><path class="icon-vs-bg" d="M9 11.5v-.5h1v2h-2.5l1.5-1.5zm-2.5-4.5h4.5v-2h-6v1h.5l1 1zm2.5 2.5v.5h4v-2h-5.5l1.5 1.5zm-4-7.5v2h10v-2h-10z" id="iconBg"/><path class="icon-vs-blue" d="M5 7h-1l-3 3v1l3 3h1l3-3v-1l-3-3zm0 6h-1v-1h1v1zm0-2h-1v-3h1v3z" id="notificationBg"/><path class="icon-white" d="M5 11h-1v-3h1v3zm0 1h-1v1h1v-1z" id="notificationFg"/></svg>