<svg xmlns="http://www.w3.org/2000/svg" viewBox="0 0 16 16"><style>.icon-canvas-transparent{opacity:0;fill:#f6f6f6}.icon-vs-out{fill:#f6f6f6}.icon-vs-bg{fill:#424242}.icon-vs-action-blue{fill:#00539c}</style><path class="icon-canvas-transparent" d="M16 16H0V0h16v16z" id="canvas"/><path class="icon-vs-out" d="M16 0v12H8.621l-4 4h-.242L.233 11.854 2 10.086V8.914L.232 7.146 1.379 6H0V0h16z" id="outline"/><path class="icon-vs-bg" d="M9 8h6v1H9V8zm6-7v4H6.621l-1-1H10V2H2v2h1.379l-1 1H1V1h14zm-1 1h-3l1.501 2L14 2zm-5 9h6v-1H9v1zm0-4h6V6H9v1z" id="iconBg"/><path class="icon-vs-action-blue" d="M6.646 11.146l.707.707L4.5 14.707l-2.854-2.853.707-.707L4 12.793V6.207L2.354 7.854l-.708-.708L4.5 4.293l2.854 2.854-.708.707L5 6.207v6.586l1.646-1.647z" id="colorAction"/></svg>