<svg xmlns="http://www.w3.org/2000/svg" width="16" height="16"><style type="text/css">.icon-canvas-transparent{opacity:0;fill:#F6F6F6;} .icon-vs-out{fill:#F6F6F6;} .icon-vs-bg{fill:#424242;}</style><path class="icon-canvas-transparent" d="M16 16h-16v-16h16v16z" id="canvas"/><path class="icon-vs-out" d="M16 1v12h-4v1h-4v-1h-4v1h-4v-13h16z" id="outline"/><path class="icon-vs-bg" d="M1 5h2v2h-2v-2zm3 1h3v-1h-3v1zm-3 4h2v-2h-2v2zm3-1h3v-1h-3v1zm0 3h3v-1h-3v1zm-3 1h2v-2h-2v2zm0-10h6v-1h-6v1zm8 4h2v-2h-2v2zm3-1h3v-1h-3v1zm-3 4h2v-2h-2v2zm3-1h3v-1h-3v1zm0 3h3v-1h-3v1zm-3 1h2v-2h-2v2zm0-11v1h6v-1h-6z" id="iconBg"/></svg>