<svg xmlns="http://www.w3.org/2000/svg" viewBox="0 0 16 16" enable-background="new 0 0 16 16"><style type="text/css">.icon-canvas-transparent{opacity:0;fill:#F6F6F6;} .icon-vs-out{fill:#F6F6F6;} .icon-vs-bg{fill:#424242;}</style><g id="notificationFg"><path class="icon-canvas-transparent" d="M16 16h-16v-16h16v16z"/><path class="icon-vs-out" d="M13.979 10.372l-2.163 2.166.184.462-2.721-2.628-2.304 2.308-4.962-5.332 4.987-4.982 2.375 2.321.625-.623 1.699-1.697 2.313 2.312-2.732 2.728 2.699 2.965z"/><path class="icon-vs-bg" d="M12.598 4.678l-.899-.898-3.597 3.594 3.598 3.865.898-.899-2.7-2.966 2.7-2.696zm-4.7 0l-.898-.898-3.598 3.594 3.598 3.865.898-.899-2.699-2.966 2.699-2.696z"/></g></svg>