<svg xmlns="http://www.w3.org/2000/svg" viewBox="0 0 16 16"><style>.st0{opacity:0}.st0,.st1{fill:#f6f6f6}.st2{fill:#424242}.st3{fill:#f0eff1}</style><g id="outline"><path class="st0" d="M0 0h16v16H0z"/><path class="st1" d="M1.761 12.223l1.395-2.789 4.408-4.408-1-1 2.413-2.414 1 1 1.293-1.293c.516-.465 1.117-.702 1.733-.702a2.37 2.37 0 0 1 1.682.701c.926.927.939 2.378.035 3.379l-1.328 1.329 1 1-2.414 2.414-1-1-4.406 4.408-2.79 1.394-2.021-2.019z"/></g><path class="st2" d="M8 6l-4 4-1 2 1 1 2-1 4-4-2-2zm-3 4l3-3 1 1-3 3-1-1zm7-8c.586-.527 1.436-.562 2 0 .563.564.529 1.415 0 2l-2 2 1 1-1 1-4-4 1-1 1 1 2-2z" id="icon_x5F_bg"/><path transform="rotate(-45.001 7 9)" class="st3" d="M4.879 8.293h4.242v1.414H4.879z" id="icon_x5F_fg"/></svg>