<svg xmlns="http://www.w3.org/2000/svg" width="16" height="16"><style type="text/css">.icon-canvas-transparent{opacity:0;fill:#F6F6F6;} .icon-vs-out{fill:#F6F6F6;} .icon-vs-blue{fill:#1BA1E2;} .icon-vs-green{fill:#339933;} .icon-vs-red{fill:#E51400;} .icon-vs-yellow{fill:#FFCC00;} .icon-vs-action-blue{fill:#00539C;} .icon-vs-action-red{fill:#A1260D;} .icon-cpp-purple{fill:#9B4F96;} .icon-vs-bg{fill:#424242;}</style><path class="icon-canvas-transparent" d="M16 16h-16v-16h16v16z" id="canvas"/><path class="icon-vs-out" d="M16 8c0 4.418-3.582 8-8 8s-8-3.582-8-8 3.582-8 8-8 8 3.582 8 8z" id="outline"/><g id="iconBg"><path class="icon-vs-red" d="M10.64 3.946c-.493-.319-1.045-.547-1.64-.672v-2.201c1.188.171 2.275.635 3.195 1.318l-1.555 1.555z"/><path class="icon-vs-bg" d="M1.07 7c.173-1.187.635-2.275 1.323-3.193l1.556 1.556c-.321.492-.553 1.043-.679 1.637h-2.2z"/><path class="icon-vs-yellow" d="M5.36 3.946l-1.555-1.555c.92-.684 2.007-1.148 3.195-1.318v2.201c-.595.125-1.147.353-1.64.672z"/><path class="icon-vs-action-red" d="M12.052 5.363l1.556-1.556c.687.918 1.149 2.006 1.322 3.193h-2.2c-.126-.594-.358-1.145-.678-1.637z"/><path class="icon-vs-action-blue" d="M10.64 12.055l1.554 1.554c-.92.684-2.006 1.148-3.195 1.318v-2.202c.596-.124 1.148-.352 1.641-.67z"/><path class="icon-cpp-purple" d="M14.93 9c-.173 1.186-.635 2.274-1.323 3.193l-1.556-1.556c.321-.493.552-1.044.679-1.637h2.2z"/><path class="icon-vs-green" d="M3.948 10.637l-1.556 1.556c-.687-.919-1.149-2.007-1.322-3.193h2.2c.126.594.358 1.144.678 1.637z"/><path class="icon-vs-blue" d="M5.36 12.055c.493.318 1.046.547 1.64.671v2.202c-1.189-.17-2.275-.634-3.195-1.318l1.555-1.555z"/></g></svg>