<svg xmlns="http://www.w3.org/2000/svg" width="16" height="16"><style type="text/css">.icon-canvas-transparent{opacity:0;fill:#F6F6F6;} .icon-vs-out{fill:#F6F6F6;} .icon-vs-bg{fill:#424242;}</style><path class="icon-canvas-transparent" d="M16 15.978h-16v-16h16v16z" id="canvas"/><path class="icon-vs-out" d="M15.241 4.652l-1.481 1.481.835.835-3.085 3.085-.762-.762-5.168 5.17-3.596 1.539-1.959-1.959 1.349-3.742 5.19-5.191-.645-.646 3.085-3.085.835.835 1.481-1.481c.431-.431 1-.678 1.616-.731h.461c.661.054 1.298.331 1.77.802 1.082 1.084 1.114 2.81.074 3.85z" id="outline"/><path class="icon-vs-bg" d="M9.467 7.932l.612.613-5.071 5.072-2.795 1.198-1.032-1.032 1.057-2.936 5.072-5.072.585.585v.003l-4.356 4.356 1.569 1.569 4.355-4.356h.004zm4.995-6.422c-.667-.664-1.777-.729-2.435-.072l-2.188 2.189-.836-.835-.174.174-1.497 1.497 4.177 4.177 1.671-1.671-.835-.835 2.189-2.189c.658-.658.592-1.768-.072-2.435z" id="iconBg"/></svg>