<svg xmlns="http://www.w3.org/2000/svg" viewBox="0 0 16 16"><style>.icon-canvas-transparent{opacity:0;fill:#f6f6f6}.icon-vs-out{fill:#f6f6f6}.icon-vs-bg{fill:#424242}.icon-vs-blue{fill:#1ba1e2}.icon-vs-green{fill:#339933}.icon-vs-red{fill:#e51400}.icon-vs-yellow{fill:#ffcc00}.icon-white{fill:#ffffff}.icon-vs-action-purple{fill:#652d90}</style><path class="icon-canvas-transparent" d="M16 16H0V0h16v16z" id="canvas"/><path class="icon-vs-out" d="M14 5.867v4.267A6.401 6.401 0 0 1 10.123 14H6.73a2.37 2.37 0 0 1-1.105-2c0-.689.226-1.351.637-1.862a.258.258 0 0 0 .03-.138A.291.291 0 0 0 6 9.709a.279.279 0 0 0-.138.028A2.967 2.967 0 0 1 4 10.375 2.37 2.37 0 0 1 2 9.27V5.867A6.403 6.403 0 0 1 5.877 2h4.246A6.403 6.403 0 0 1 14 5.867z" id="outline"/><path class="icon-white" d="M6 7.958c1.125 0 2.042.916 2.042 2.042 0 .464-.148.902-.416 1.235-.162.2-.25.472-.25.765 0 .345.28.625.625.625A4.63 4.63 0 0 0 12.626 8a4.63 4.63 0 0 0-4.625-4.625A4.63 4.63 0 0 0 3.375 8c0 .345.28.625.625.625.292 0 .564-.089.765-.25A1.965 1.965 0 0 1 6 7.958z" id="iconFg"/><g id="iconBg"><path class="icon-vs-bg" d="M8 13.375A1.377 1.377 0 0 1 6.625 12c0-.463.148-.901.417-1.235.161-.2.25-.472.25-.765 0-.712-.58-1.292-1.292-1.292-.293 0-.564.089-.765.25A1.96 1.96 0 0 1 4 9.375 1.377 1.377 0 0 1 2.625 8 5.38 5.38 0 0 1 8 2.625 5.38 5.38 0 0 1 13.375 8 5.38 5.38 0 0 1 8 13.375zM6 7.958c1.125 0 2.042.916 2.042 2.042 0 .464-.148.902-.416 1.235-.162.2-.25.472-.25.765 0 .345.28.625.625.625A4.63 4.63 0 0 0 12.626 8a4.63 4.63 0 0 0-4.625-4.625A4.63 4.63 0 0 0 3.375 8c0 .345.28.625.625.625.292 0 .564-.089.765-.25A1.965 1.965 0 0 1 6 7.958z"/><circle class="icon-vs-action-purple" cx="5.333" cy="6.667" r=".667"/><circle class="icon-vs-blue" cx="7.333" cy="5.333" r=".667"/><circle class="icon-vs-green" cx="10" cy="6" r=".667"/><circle class="icon-vs-yellow" cx="10.667" cy="8.667" r=".667"/><circle class="icon-vs-red" cx="9.333" cy="10.667" r=".667"/></g></svg>