<svg xmlns="http://www.w3.org/2000/svg" viewBox="0 0 16 16"><style>.icon-canvas-transparent{opacity:0;fill:#f6f6f6}.icon-vs-out{fill:#f6f6f6}.icon-vs-bg{fill:#424242}.icon-vs-fg{fill:#f0eff1}</style><path class="icon-canvas-transparent" d="M16 16H0V0h16v16z" id="canvas"/><path class="icon-vs-out" d="M5 16a3.005 3.005 0 0 1-2.844-2.044l-.62-.349A3 3 0 0 1 0 11c0-1.654 1.346-3 3-3h2V0h10v16H5z" id="outline"/><path class="icon-vs-fg" d="M11.202 11H13v3h-1.184c.112-.314.184-.648.184-1 0-.751-.301-1.456-.798-2zM7 8c1.303 0 2.413.837 2.826 2H13V7H7v1zm0-5v3h6V3H7z" id="iconFg"/><g id="iconBg"><path class="icon-vs-bg" d="M6 1v7h1V7h6v3H9.826c.005.015.013.028.018.042l.621.35c.285.16.524.373.738.607H13v3h-1.184a2.989 2.989 0 0 1-.596 1H14V1H6zm7 5H7V3h6v3zM2 11a.99.99 0 0 0 .302.712 2.96 2.96 0 0 0-.275 1.024A1.991 1.991 0 0 1 1 11c0-1.103.897-2 2-2h4c1.102 0 2 .897 2 2s-.898 2-2 2H6l1-1a1.001 1.001 0 0 0 0-2H3c-.551 0-1 .449-1 1zm9 2c0 1.102-.898 2-2 2H5c-1.103 0-2-.898-2-2 0-1.103.897-2 2-2h1l-1 1a1.001 1.001 0 0 0 0 2h4a1 1 0 0 0 1-1 .995.995 0 0 0-.302-.713 2.96 2.96 0 0 0 .275-1.024c.61.344 1.027.989 1.027 1.737z"/></g></svg>