<svg xmlns="http://www.w3.org/2000/svg" width="16" height="16"><style type="text/css">.icon-canvas-transparent{opacity:0;fill:#F6F6F6;} .icon-vs-out{fill:#F6F6F6;} .icon-vs-bg{fill:#424242;} .icon-vs-fg{fill:#F0EFF1;}</style><path class="icon-canvas-transparent" d="M16 16h-16v-16h16v16z" id="canvas"/><path class="icon-vs-out" d="M16 1v13h-15v-13h15z" id="outline"/><path class="icon-vs-bg" d="M2 2v11h13v-11h-13zm12 10h-11v-9h11v9zm-6-5v-1h1v1h1v1h-1v1h-1v-1h-1v-1h1zm4.293.5l-2.647-2.646.707-.707 3.354 3.353-3.353 3.354-.707-.707 2.646-2.647zm-5.647 3.354l-3.353-3.354 3.354-3.354.707.707-2.647 2.647 2.646 2.646-.707.708z" id="iconBg"/><path class="icon-vs-fg" d="M3 3v9h11v-9h-11zm3.646 7.854l-3.353-3.354 3.354-3.354.707.707-2.647 2.647 2.646 2.646-.707.708zm2.354-1.854h-1v-1h-1v-1h1v-1h1v1h1v1h-1v1zm1.354 1.854l-.707-.707 2.646-2.647-2.647-2.646.707-.707 3.354 3.353-3.353 3.354z" id="iconFg"/></svg>