<svg xmlns="http://www.w3.org/2000/svg" width="16" height="16"><style type="text/css">.icon-canvas-transparent{opacity:0;fill:#F6F6F6;} .icon-vs-out{fill:#F6F6F6;} .icon-vs-bg{fill:#424242;} .icon-vs-fg{fill:#F0EFF1;}</style><path class="icon-canvas-transparent" d="M16 16h-16v-16h16v16z" id="canvas"/><path class="icon-vs-out" d="M16 1.586l-1.586-1.586h-4.828l-1 1h-5.586v6h-3v9h13v-9.586l3-3v-1.828z" id="outline"/><path class="icon-vs-bg" d="M1 15h7v-7h-7v7zm1-6h5v5h-5v-5zm9-2.586l1 1v7.586h-3v-1h2v-2h-2v-1h2v-3h-2v-1h2v-.586zm-3-3l.586.586h-3.586v3h-1v-5h4v1.414zm6-2.414h-4l-1 1v1l3 3 3-3v-1l-1-1zm0 1.586l-2 2-2-2v-.172l.414-.414h3.172l.414.414v.172z" id="iconBg"/><path class="icon-vs-fg" d="M9 12h2v2h-2v-2zm0-1h2v-3h-2v3zm-7 3h5v-5h-5v5zm3-10v3h6v-.586l-2.414-2.414h-3.586zm8.586-2h-3.172l-.414.414v.172l2 2 2-2v-.172l-.414-.414z" id="iconFg"/></svg>