<svg xmlns="http://www.w3.org/2000/svg" viewBox="0 0 16 16"><style>.icon-canvas-transparent{opacity:0;fill:#f6f6f6}.icon-vs-out{fill:#f6f6f6}.icon-vs-bg{fill:#424242}</style><path class="icon-canvas-transparent" d="M16 16H0V0h16v16z" id="canvas"/><path class="icon-vs-out" d="M16 16H0V1h16v15z" id="outline"/><path class="icon-vs-bg" d="M5 7H3V6h2v1zm-2 6h2v-1H3v1zm2-5H3v1h2V8zm1 6H2V5h4v2h1V2H1v13h6v-5H6v4zm-1-4H3v1h2v-1zm8-4h-2v.101l.899.899H13V6zm-4.352-.837l-.707.707L10.063 8H6v1h4.081l-2.14 2.148.707.707L12 8.515 8.648 5.163zM9 2v2.101l.603.603.237.237.16.16V5h4v9h-4v-2.081l-.449.447-.551.549V15h6V2H9zm4 8h-1.073l-.927.923V11h2v-1zm-2 3h2v-1h-2v1z" id="iconBg"/></svg>