<svg xmlns="http://www.w3.org/2000/svg" width="16" height="16"><style type="text/css">.icon-canvas-transparent{opacity:0;fill:#F6F6F6;} .icon-vs-out{fill:#F6F6F6;} .icon-vs-bg{fill:#424242;} .icon-vs-fg{fill:#F0EFF1;}</style><path class="icon-canvas-transparent" d="M16 16h-16v-16h16v16z" id="canvas"/><path class="icon-vs-out" d="M16 0h-8v4h-5v8h-3v4h5v-.466c.431.294.955.466 1.5.466 1.207 0 2.217-.86 2.449-2h4.051v-1h3v-13z" id="outline"/><path class="icon-vs-bg" d="M6.5 12c-.652 0-1.293.419-1.5 1h-4v2h1v-1h1v1h1v-1h1c.207.581.848 1 1.5 1 .828 0 1.5-.672 1.5-1.5s-.672-1.5-1.5-1.5zm0 2c-.276 0-.5-.224-.5-.5s.224-.5.5-.5.5.224.5.5-.224.5-.5.5zm3.5-9h2v8h-3.051c-.076-.372-.241-.708-.462-1h2.513v-4.793l-3.5 3.5-1.854-1.853.707-.707 1.147 1.146 3.293-3.293h-5.793v5.483c-.214.148-.414.314-.573.517h-.427v-7h6zm5-4v11h-2v-1h1v-2h-1v-1h1v-2h-1v-1h1v-2h-4v1h-1v-3h6z" id="iconBg"/><path class="icon-vs-fg" d="M14 11h-1v-2h1v2zm0-8h-4v1h3v1h1v-2zm0 3h-1v2h1v-2zm-3 6v-4.793l-3.5 3.5-1.854-1.853.707-.707 1.147 1.146 3.293-3.293h-5.793v5.483c.433-.297.952-.483 1.5-.483.813 0 1.531.396 1.987 1h2.513zm-4 1.5c0-.276-.224-.5-.5-.5s-.5.224-.5.5.224.5.5.5.5-.224.5-.5z" id="iconFg"/></svg>