<svg xmlns="http://www.w3.org/2000/svg" width="16" height="16"><style type="text/css">.icon-canvas-transparent{opacity:0;fill:#F6F6F6;} .icon-vs-out{fill:#F6F6F6;} .icon-vs-bg{fill:#424242;} .icon-vs-fg{fill:#F0EFF1;}</style><path class="icon-canvas-transparent" d="M16 16h-16v-16h16v16z" id="canvas"/><path class="icon-vs-out" d="M12 7v1.374c-.41-.235-.921-.374-1.5-.374s-1.09.139-1.5.374v-1.374h1v-7h-7v2h-3v7h5v7h4v-1h3v1h4v-9h-4zm-3 6h-1v-1h1v1zm4 0h-1v-.269c.598-.347 1-.993 1-1.731v2z" id="outline"/><path class="icon-vs-bg" d="M12 10v1c0 .551-.449 1-1 1v.5h-1v-.5c0-.551.449-1 1-1v-1c-.08-.044-.252-.102-.5-.102s-.42.058-.5.102v1h-1v-1c0-.58.631-1 1.5-1s1.5.42 1.5 1zm-2 4h1v-1h-1v1zm3-6v1h1v5h-1v1h2v-7h-2zm-7 1v6h2v-1h-1v-5h1v-1h-2v1zm0-3v2h-5v-5h3v-2h5v5h-3zm0-1h2v-2h-2v2zm-1 0h-3v2h3v-2z" id="iconBg"/><path class="icon-vs-fg" d="M2 5h3v2h-3v-2zm4-2v2h2v-2h-2z" id="iconFg"/></svg>