<svg xmlns="http://www.w3.org/2000/svg" width="16" height="16"><style type="text/css">.icon-canvas-transparent{opacity:0;fill:#F6F6F6;} .icon-vs-out{fill:#F6F6F6;} .icon-vs-bg{fill:#424242;} .icon-vs-fg{fill:#F0EFF1;}</style><path class="icon-canvas-transparent" d="M16 16h-16v-16h16v16z" id="canvas"/><path class="icon-vs-out" d="M16 0v16h-10v-3.277l-.235-.072-3.351 3.349h-.828l-1.586-1.586v-.828l3.35-3.351c-.23-.547-.35-1.135-.35-1.735 0-1.953 1.258-3.603 3-4.224v-4.276h10z" id="outline"/><path class="icon-vs-bg" d="M7.5 5c-1.933 0-3.5 1.567-3.5 3.5 0 .711.215 1.369.579 1.922l-3.579 3.578 1 1 3.579-3.578c.552.363 1.211.578 1.921.578 1.933 0 3.5-1.567 3.5-3.5s-1.567-3.5-3.5-3.5zm0 6c-1.381 0-2.5-1.119-2.5-2.5s1.119-2.5 2.5-2.5 2.5 1.119 2.5 2.5-1.119 2.5-2.5 2.5zm7.5-10v14h-8v-2.05c.167.019.331.05.5.05.171 0 .333-.032.5-.051v1.051h6v-3h-2.762c.206-.307.359-.646.485-1h2.277v-3h-2.276c-.126-.354-.279-.693-.485-1h2.761v-3h-6v1.051c-.167-.019-.329-.051-.5-.051l-.5.051v-3.051h8z" id="iconBg"/><path class="icon-vs-fg" d="M11.238 11h2.762v3h-6v-1.051c.662-.074 1.279-.284 1.823-.615l.041-.023c.25-.155.483-.333.697-.532l.066-.055c.227-.22.434-.46.611-.724zm.486-3.999c.083.231.153.466.197.712.05.255.079.517.079.787s-.029.532-.079.787c-.044.246-.114.481-.197.712v.001h2.276v-3l-2.276.001zm-3.724-4.001v1.051c.662.074 1.279.284 1.823.615l.041.022c.25.156.483.333.697.533l.066.054c.227.221.434.461.611.725h2.762v-3h-6zm-.5 3c-1.38 0-2.5 1.119-2.5 2.5s1.12 2.5 2.5 2.5 2.5-1.119 2.5-2.5-1.119-2.5-2.5-2.5z" id="iconFg"/></svg>