<svg xmlns="http://www.w3.org/2000/svg" width="16" height="16"><style type="text/css">.icon-canvas-transparent{opacity:0;fill:#F6F6F6;} .icon-vs-out{fill:#F6F6F6;} .icon-vs-bg{fill:#424242;} .icon-vs-fg{fill:#F0EFF1;}</style><path class="icon-canvas-transparent" d="M16 16h-16v-16h16v16z" id="canvas"/><path class="icon-vs-out" d="M3 16v-15h5.586l1-1h4.828l1.586 1.586v1.828l-3.293 3.293.293.293v9h-10z" id="outline"/><path class="icon-vs-bg" d="M11 7h-6v-3h3.586l-.586-.586v-1.414h-4v13h8v-7.586l-1-1v.586zm0 7h-6v-2h6v2zm0-3h-6v-3h6v3zm3-10h-4l-1 1v1l3 3 3-3v-1l-1-1zm0 1.586l-2 2-2-2v-.172l.414-.414h3.172l.414.414v.172z" id="iconBg"/><path class="icon-vs-fg" d="M11 8h-6v3h6v-3zm0-1h-6v-3h3.586l2.414 2.414v.586zm0 7h-6v-2h6v2zm2.586-12l.414.414v.172l-2 2-2-2v-.172l.414-.414h3.172z" id="iconFg"/></svg>