<svg xmlns="http://www.w3.org/2000/svg" width="16" height="16"><style type="text/css">.icon-canvas-transparent{opacity:0;fill:#F6F6F6;} .icon-vs-out{fill:#F6F6F6;} .icon-vs-bg{fill:#424242;} .icon-vs-fg{fill:#F0EFF1;}</style><path class="icon-canvas-transparent" d="M16 16h-16v-16h16v16z" id="canvas"/><path class="icon-vs-out" d="M16 0v16h-15v-16h15z" id="outline"/><path class="icon-vs-bg" d="M2 1v14h13v-14h-13zm8 1v2h-3v-1h2v-1h1zm-3 6v-2h3v2h-3zm3 1v2h-3v-2h3zm-7-6h2v-1h1v2h-3v-1zm0 3h3v2h-3v-2zm0 3h3v2h-3v-2zm0 5v-2h3v2h-3zm4 0v-2h3v2h-3zm7 0h-3v-2h3v2zm0-3h-3v-2h3v2zm0-3h-3v-2h3v2zm0-4h-3v-1h2v-1h1v2z" id="iconBg"/><path class="icon-vs-fg" d="M11 9h3v2h-3v-2zm-4 2h3v-2h-3v2zm-4-3h3v-2h-3v2zm0 3h3v-2h-3v2zm10-9v1h-2v1h3v-2h-1zm-6 6h3v-2h-3v2zm0 6h3v-2h-3v2zm4 0h3v-2h-3v2zm-8 0h3v-2h-3v2zm6-11h-2v1h3v-2h-1v1zm2 5h3v-2h-3v2zm-6-5h-2v1h3v-2h-1v1z" id="iconFg"/></svg>