<svg xmlns="http://www.w3.org/2000/svg" width="16" height="16"><style type="text/css">.icon-canvas-transparent{opacity:0;fill:#F6F6F6;} .icon-vs-out{fill:#F6F6F6;} .icon-vs-bg{fill:#424242;} .icon-vs-fg{fill:#F0EFF1;} .icon-vs-red{fill:#E51400;} .icon-white{fill:#FFFFFF;}</style><path class="icon-canvas-transparent" d="M16 16h-16v-16h16v16z" id="canvas"/><path class="icon-vs-out" d="M11 7.051v-7.051h-10v15h6.707c.77.616 1.733 1 2.793 1 2.481 0 4.5-2.019 4.5-4.5 0-2.311-1.756-4.197-4-4.449z" id="outline"/><path class="icon-vs-bg" d="M6.276 13h-3.276v-2h3.051c.039-.347.112-.682.226-1h-3.277v-3h6v.276c.318-.114.653-.187 1-.226v-6.05h-8v13h4.762c-.206-.307-.36-.646-.486-1zm-3.276-10h6v3h-6v-3z" id="iconBg"/><path class="icon-vs-fg" d="M9 7v.276c-1.271.453-2.271 1.453-2.724 2.724h-3.276v-3h6zm0-4h-6v3h6v-3zm-6 10h3.276c-.168-.472-.276-.972-.276-1.5 0-.171.032-.334.051-.5h-3.051v2z" id="iconFg"/><path class="icon-vs-red" d="M10.5 8c-1.933 0-3.5 1.567-3.5 3.5s1.567 3.5 3.5 3.5 3.5-1.567 3.5-3.5-1.567-3.5-3.5-3.5zm1.854 4.646l-.707.707-1.147-1.146-1.146 1.147-.707-.707 1.146-1.147-1.146-1.146.707-.707 1.146 1.147 1.146-1.147.707.707-1.146 1.146 1.147 1.146z" id="notificationBg"/><path class="icon-white" d="M12.354 10.354l-1.147 1.146 1.147 1.146-.707.707-1.147-1.146-1.146 1.147-.707-.707 1.146-1.147-1.146-1.146.707-.707 1.146 1.147 1.146-1.147.708.707z" id="notificationFg"/></svg>