<svg xmlns="http://www.w3.org/2000/svg" width="16" height="16"><style type="text/css">.icon-canvas-transparent{opacity:0;fill:#F6F6F6;} .icon-vs-out{fill:#F6F6F6;} .icon-vs-bg{fill:#424242;} .icon-vs-fg{fill:#F0EFF1;}</style><path class="icon-canvas-transparent" d="M16 16h-16v-16h16v16z" id="canvas"/><path class="icon-vs-out" d="M16 0h-8v4h-5v8h-3v4h5v-.466c.431.294.955.466 1.5.466 1.208 0 2.217-.86 2.45-2h4.05v-1h3v-13z" id="outline"/><path class="icon-vs-bg" d="M15 1v11h-2v-1h1v-2h-1v-1h1v-2h-1v-1h1v-2h-4v1h-1v-3h6zm-7 12.5c0 .828-.672 1.5-1.5 1.5-.652 0-1.293-.419-1.5-1h-1v1h-1v-1h-1v1h-1v-2h4c.207-.581.848-1 1.5-1 .828 0 1.5.672 1.5 1.5zm-1 0c0-.276-.224-.5-.5-.5s-.5.224-.5.5.224.5.5.5.5-.224.5-.5zm-3-1.5h.5c.141-.188.313-.345.5-.484v-5.516h6v6h-2.513c.221.292.387.629.462 1h3.051v-8h-8v7z" id="iconBg"/><path class="icon-vs-fg" d="M6.5 11c-.554 0-1.074.194-1.5.516v-5.516h6v6h-2.513c-.457-.604-1.174-1-1.987-1zm0 2c-.276 0-.5.224-.5.5s.224.5.5.5.5-.224.5-.5-.224-.5-.5-.5zm7.5-2h-1v-2h1v2zm0-8h-4v1h3v1h1v-2zm0 3h-1v2h1v-2z" id="iconFg"/></svg>