<svg xmlns="http://www.w3.org/2000/svg" width="16" height="16"><style type="text/css">.icon-canvas-transparent{opacity:0;fill:#F6F6F6;} .icon-vs-out{fill:#F6F6F6;} .icon-vs-bg{fill:#424242;} .icon-vs-fg{fill:#F0EFF1;}</style><path class="icon-canvas-transparent" d="M16 16h-16v-16h16v16z" id="canvas"/><path class="icon-vs-out" d="M16 0v16h-15v-16h15z" id="outline"/><path class="icon-vs-bg" d="M2 1v14h13v-14h-13zm6 1v1h1v-1h1v2h-3v-2h1zm-5 0h1v1h1v-1h1v2h-3v-2zm0 12v-8h3v8h-3zm4 0v-8h3v8h-3zm7 0h-3v-8h3v8zm0-10h-3v-2h1v1h1v-1h1v2z" id="iconBg"/><path class="icon-vs-fg" d="M14 2v2h-3v-2h1v1h1v-1h1zm-7 12h3v-8h-3v8zm2-11h-1v-1h-1v2h3v-2h-1v1zm2 11h3v-8h-3v8zm-8 0h3v-8h-3v8zm2-11h-1v-1h-1v2h3v-2h-1v1z" id="iconFg"/></svg>