<svg xmlns="http://www.w3.org/2000/svg" width="16" height="16"><style type="text/css">.icon-canvas-transparent{opacity:0;fill:#F6F6F6;} .icon-vs-out{fill:#F6F6F6;} .icon-vs-bg{fill:#424242;} .icon-vs-fg{fill:#F0EFF1;}</style><path class="icon-canvas-transparent" d="M16 16h-16v-16h16v16z" id="canvas"/><path class="icon-vs-out" d="M16 1.586l-1.586-1.586h-4.828l-1 1h-5.586v6h-3v9h13v-9.586l3-3v-1.828z" id="outline"/><path class="icon-vs-bg" d="M14 1h-4l-1 1v1l3 3 3-3v-1l-1-1zm0 1.586l-2 2-2-2v-.172l.414-.414h3.172l.414.414v.172zm-6 .828l.586.586h-3.586v3h-1v-5h4v1.414zm3 3l1 1v7.586h-3v-1h2v-2h-2v-1h2v-3h-2v-1h2v-.586zm-10 8.586h7v-7h-7v7zm1-6h4.793l-3.292 3.293-1.146-1.147-.355.356v-2.502zm0 3.205l1.501 1.502 3.499-3.5v3.793h-5v-1.795z" id="iconBg"/><path class="icon-vs-fg" d="M7 10.207v3.793h-5v-1.795l1.501 1.502 3.499-3.5zm-3.499 2.086l3.292-3.293h-4.793v2.502l.354-.356 1.147 1.147zm7.499-4.293h-2v3h2v-3zm0-1h-6v-3h3.586l2.414 2.414v.586zm0 7h-2v-2h2v2zm2.586-12l.414.414v.172l-2 2-2-2v-.172l.414-.414h3.172z" id="iconFg"/></svg>