<svg xmlns="http://www.w3.org/2000/svg" width="16" height="16"><style type="text/css">.icon-canvas-transparent{opacity:0;fill:#F6F6F6;} .icon-vs-out{fill:#F6F6F6;} .icon-vs-bg{fill:#424242;} .icon-vs-fg{fill:#F0EFF1;} .icon-vs-yellow{fill:#FFCC00;}</style><path class="icon-canvas-transparent" d="M16 16h-16v-16h16v16z" id="canvas"/><path class="icon-vs-out" d="M16 14l-1 2h-12v-16h10v8l3 6z" id="outline"/><path class="icon-vs-bg" d="M6.97 14.025l.012-.025h-1.982v-3h3.49l.503-1h-3.993v-3h6v.016h1v-6.016h-8v14h3.48l-.51-.975zm-1.97-11.025h6v3h-6v-3z" id="iconBg"/><path class="icon-vs-fg" d="M11 6h-6v-3h6v3zm-.507 1.016h.507v-.016h-6v3h3.993l1.5-2.984zm-2.003 3.984h-3.49v3h1.982l1.508-3z" id="iconFg"/><path class="icon-vs-yellow" d="M11.891 8.016h-.781l-3.016 6 .515.984h5.766l.484-1-2.968-5.984zm.109 5.984h-1v-1h1v1zm0-2h-1v-2h1v2z" id="notificationBg"/><path class="icon-black" d="M12 12h-1v-2h1v2zm0 1h-1v1h1v-1z" id="notificationFg"/></svg>