<svg xmlns="http://www.w3.org/2000/svg" width="16" height="16"><style type="text/css">.icon-canvas-transparent{opacity:0;fill:#F6F6F6;} .icon-vs-out{fill:#F6F6F6;} .icon-vs-bg{fill:#424242;} .icon-vs-fg{fill:#F0EFF1;}</style><path class="icon-canvas-transparent" d="M16 16h-16v-16h16v16z" id="canvas"/><path class="icon-vs-out" d="M15 0v16h-9.045c-.167-.004-.329-.023-.49-.046l-.769-.099-.191-.783-.045-.353-.897.698-.615-.477c-.333-.259-.632-.559-.89-.891l-.475-.614.698-.896-1.123-.139-.099-.769c-.038-.272-.059-.447-.059-.631s.021-.359.046-.535l.099-.769.782-.191.354-.045-.698-.897.476-.614c.257-.331.556-.63.889-.889l.614-.477.897.699.141-1.126.4-.051v-6.105h10z" id="outline"/><path class="icon-vs-bg" d="M7 11c0 .553-.446 1-1 1s-1-.447-1-1 .446-1 1-1 1 .447 1 1zm2.15 2.438c-.207.268-.445.506-.712.713l-.985-.768c-.243.148-.51.262-.796.331l-.153 1.235c-.167.022-.331.051-.504.051l-.504-.051-.153-1.235c-.286-.069-.553-.183-.796-.331l-.985.767c-.267-.207-.505-.445-.712-.713l.768-.984c-.149-.244-.263-.51-.331-.795l-1.235-.154c-.023-.167-.052-.331-.052-.504l.051-.504 1.235-.154c.068-.285.182-.551.331-.795l-.767-.985c.207-.267.445-.505.712-.712l.985.767c.243-.149.51-.262.796-.331l.153-1.235c.167-.021.331-.051.504-.051l.504.051.153 1.235c.286.069.553.182.796.331l.985-.767c.267.207.505.445.712.712l-.767.985c.149.244.263.51.331.795l1.235.154c.022.167.051.331.051.504l-.051.504-1.235.154c-.068.285-.182.551-.331.795l.767.985zm-1.15-2.438c0-1.104-.894-2-2-2s-2 .896-2 2 .894 2 2 2 2-.896 2-2zm6-10v14h-5.027c.382-.284.718-.62 1.005-1h3.022v-3h-2c0-.343-.035-.677-.101-1h2.101v-3h-4.028c-.833-.62-1.854-1-2.972-1v-5h8zm-1 2h-6v3h6v-3z" id="iconBg"/><path class="icon-vs-fg" d="M13 3v3h-6v-3h6zm-5 8c0 1.104-.896 2-2 2s-2-.896-2-2 .896-2 2-2 2 .896 2 2zm-1 0c0-.553-.448-1-1-1s-1 .447-1 1 .448 1 1 1 1-.447 1-1zm3.899-1h2.101v-3h-4.028c.969.721 1.678 1.773 1.927 3zm-.921 4h3.022v-3h-2c0 1.131-.39 2.162-1.022 3z" id="iconFg"/></svg>