<svg xmlns="http://www.w3.org/2000/svg" viewBox="0 0 16 16"><style>.icon-canvas-transparent{opacity:0;fill:#f6f6f6}.icon-vs-out{fill:#f6f6f6}.icon-vs-bg{fill:#424242}</style><path class="icon-canvas-transparent" d="M16 16H0V0h16v16z" id="canvas"/><path class="icon-vs-out" d="M9.485 16l-.159-.959-.792.564L7.929 15H0V1h16v11.515l-.959.159.564.792-2.141 2.14-.792-.564-.159.958H9.485z" id="outline"/><path class="icon-vs-bg" d="M9.326 6.959l-.79-.565L8 6.93V6h1.485l-.159.959zm4.462 3.172l1.212.202v1.333l-1.214.202-.076.253-.125.233.715 1.001-.943.945-1-.714a2.969 2.969 0 0 1-.488.202L11.667 15h-1.333l-.202-1.214-.254-.076-.233-.125-1.002.715-.943-.943.714-1a2.969 2.969 0 0 1-.202-.488L7 11.667v-1.333l1.214-.202.076-.254.125-.233L7.7 8.643l.943-.943 1 .714c.157-.082.319-.149.488-.202L10.333 7h1.333l.202 1.214.253.076.233.125 1.003-.715.943.943-.714 1c.082.157.149.319.202.488zM13 11a2 2 0 1 0-4 0 2 2 0 0 0 4 0zM3 11h2v-1H3v1zm2-5H3v1h2V6zm0 2H3v1h2V8zm10-6v5.929l-1-1.001V5h-2v1h-1V5H7v2.929l-.606.606.565.792L6 9.486V5H2v8h4v-.486l.959.16-.564.792.534.534H1V2h14zm-1 1H2v1h12V3z" id="iconBg"/></svg>