<svg xmlns="http://www.w3.org/2000/svg" viewBox="0 0 16 16"><style>.icon-canvas-transparent{opacity:0;fill:#f6f6f6}.icon-vs-out{fill:#f6f6f6}.icon-vs-bg{fill:#424242}.icon-vs-fg{fill:#f0eff1}.icon-vs-action-red{fill:#a1260d}</style><path class="icon-canvas-transparent" d="M16 16H0V0h16v16z" id="canvas"/><path class="icon-vs-out" d="M6.414 0H3v.525L2.475 0h-.829L0 1.646v.828L1.556 4.03 0 5.586v.828l2.061 2.061.939-.94V16h10V0H6.414zM10 13H6v-1h4v1zm0-4H6v-.525L6.475 8H10v1zm0-4H7.475l-.97-.97.03-.03H10v1z" id="outline"/><path class="icon-vs-bg" d="M7.414 1l1.061 1.061-.94.939H11v3H8.475l-1 1H11v3H5V7.475l-.97-.97-.03.03V15h8V1H7.414zM11 14H5v-3h6v3zM4 1.525V1h.586l-.556.556L4 1.525z" id="iconBg"/><path class="icon-vs-fg" d="M5 11h6v3H5v-3zm2.535-8l-1.03 1.03L8.475 6H11V3H7.535zM6 8.475l-1-1V10h6V7H7.475L6 8.475z" id="iconFg"/><path class="icon-vs-action-red" d="M5.091 4.03L7.061 6 6 7.061l-1.97-1.97-1.97 1.97L1 6l1.97-1.97L1 2.06 2.061 1l1.97 1.97L6 1l1.061 1.06-1.97 1.97z" id="colorAction"/></svg>