<svg xmlns="http://www.w3.org/2000/svg" viewBox="0 0 16 16"><style>.icon-canvas-transparent{opacity:0;fill:#f6f6f6}.icon-vs-out{fill:#f6f6f6}.icon-vs-bg{fill:#424242}.icon-vs-fg{fill:#f0eff1}.icon-vs-blue{fill:#1ba1e2}.st0{fill:none}.st1{fill:#424242}</style><path class="icon-canvas-transparent" d="M0 0h16v16H0z" id="canvas"/><path class="icon-vs-out" d="M16 0v16H2V8H0V0h16z" id="outline"/><g id="iconBg"><path class="st0" d="M12 5l2-2h-4zM4 14h10V7H4v7zm2-6h3v1H6V8zm0 2h6v1H6v-1zm0 2h3v1H6v-1zM3 3h6v3H3z"/><path class="icon-vs-bg" d="M6 8h3v1H6zM6 12h3v1H6zM6 10h6v1H6z"/><path class="st0" d="M6 8h3v1H6zM6 12h3v1H6zM6 10h6v1H6z"/><path class="st0" d="M4 7h10v7H4z"/><path class="icon-vs-bg" d="M14 14H4V7H3v8h12V7h-1z"/><path class="st1" d="M3 3h6v3H3zM12 5l2-2h-4z"/></g><path class="icon-vs-blue" d="M1 1v6h14V1H1zm8 5H3V3h6v3zm3-1l-2-2h4l-2 2z" id="colorImportance"/><path class="icon-vs-fg" d="M14 7H4m0 0v7h10V7M6 8h3v1H6V8zm0 2h6v1H6v-1zm0 2h3v1H6v-1zm6-7l-2-2h4l-2 2zM9 6H3V3h6v3z" id="iconFg"/></svg>