<svg xmlns="http://www.w3.org/2000/svg" width="16" height="16"><style type="text/css">.icon-canvas-transparent{opacity:0;fill:#F6F6F6;} .icon-vs-out{fill:#F6F6F6;} .icon-vs-bg{fill:#424242;} .icon-vs-fg{fill:#F0EFF1;}</style><path class="icon-canvas-transparent" d="M16 16h-16v-16h16v16z" id="canvas"/><path class="icon-vs-out" d="M16 3.556v8.444c0 .97-.701 2-2 2h-5.051c-.232 1.14-1.242 2-2.449 2-.796 0-1.53-.383-1.994-1h-.012c-.464.617-1.198 1-1.994 1-1.378 0-2.5-1.121-2.5-2.5s1.122-2.5 2.5-2.5c.556 0 1.076.195 1.5.519v-9.519c0-1.299 1.03-2 2-2h6.061l3.939 3.556z" id="outline"/><path class="icon-vs-bg" d="M6.5 12c-.652 0-1.202.419-1.408 1h-1.184c-.206-.581-.756-1-1.408-1-.829 0-1.5.672-1.5 1.5s.671 1.5 1.5 1.5c.652 0 1.202-.419 1.408-1h1.184c.206.581.756 1 1.408 1 .829 0 1.5-.672 1.5-1.5s-.671-1.5-1.5-1.5zm0 2c-.276 0-.5-.224-.5-.5s.224-.5.5-.5.5.224.5.5-.224.5-.5.5zm8.5-10v8s-.035 1-1.035 1h-5.016c-.076-.372-.241-.708-.462-1h5.513v-7h-3v-3h-5v9.06c-.368.076-.706.235-1 .459v-9.519c0-1 .964-1 .964-1h5.677l3.359 3z" id="iconBg"/><path class="icon-vs-fg" d="M7 13.5c0 .276-.224.5-.5.5s-.5-.224-.5-.5.224-.5.5-.5.5.224.5.5zm4-8.5v-3h-5v9.06c.163-.035.329-.06.5-.06.813 0 1.531.396 1.987 1h5.513v-7h-3z" id="iconFg"/></svg>