<svg xmlns="http://www.w3.org/2000/svg" width="16" height="16"><style type="text/css">.icon-canvas-transparent{opacity:0;fill:#F6F6F6;} .icon-vs-out{fill:#F6F6F6;} .icon-vs-bg{fill:#424242;} .icon-vs-fg{fill:#F0EFF1;}</style><path class="icon-canvas-transparent" d="M16 16h-16v-16h16v16z" id="canvas"/><path class="icon-vs-out" d="M15 0v16h-13.5l-1.5-1.5v-4l1.5-1.5h3.5v-9h10z" id="outline"/><path class="icon-vs-bg" d="M6 1v8h1v-2h6v3h-4.5l.5.5v.5h4v3h-4v.5l-.5.5h5.5v-14h-8zm7 5h-6v-3h6v3zm-6 4h-5l-1 1v3l1 1h5l1-1v-3l-1-1zm0 3.586l-.414.414h-4.172l-.414-.414v-2.172l.414-.414h4.172l.414.414v2.172z" id="iconBg"/><path class="icon-vs-fg" d="M7 7h6v3h-4.5l-1-1h-.5v-2zm2 7h4v-3h-4v3zm-2-11v3h6v-3h-6zm0 8.414l-.414-.414h-4.172l-.414.414v2.172l.414.414h4.172l.414-.414v-2.172z" id="iconFg"/></svg>