<svg xmlns="http://www.w3.org/2000/svg" width="16" height="16"><style type="text/css">.icon-canvas-transparent{opacity:0;fill:#F6F6F6;} .icon-vs-out{fill:#F6F6F6;} .icon-vs-bg{fill:#424242;}</style><path class="icon-canvas-transparent" d="M16 16h-16v-16h16v16z" id="canvas"/><path class="icon-vs-out" d="M4.362 11.644c.792.793.869 1.957.176 2.65l-1.234 1.234c-.304.305-.718.472-1.166.472-.533 0-1.074-.236-1.486-.646-.793-.793-.87-1.958-.176-2.652l1.234-1.234c.303-.303.717-.47 1.166-.47.533-.001 1.075.234 1.486.646zm7.138-11.639c-2.485 0-4.5 2.015-4.5 4.5 0 1.139.437 2.167 1.135 2.96-.375-.292-.821-.463-1.265-.463-.449 0-.863.167-1.166.47l-1.234 1.235c-.694.693-.616 1.858.176 2.651.411.411.952.648 1.485.648.449 0 .863-.168 1.166-.471l1.234-1.234c.633-.631.619-1.649.017-2.424.792.694 1.816 1.129 2.952 1.129 2.485 0 4.5-2.015 4.5-4.5s-2.015-4.501-4.5-4.501z" id="outline"/><path class="icon-vs-bg" d="M7.649 8.356c.391.391.469.945.176 1.238l-1.234 1.234c-.293.293-.846.215-1.237-.177-.391-.391-.47-.944-.177-1.237l1.234-1.234c.293-.294.848-.215 1.238.176zm-5.232 3.818l-1.234 1.234c-.293.293-.215.848.176 1.238.392.391.945.469 1.238.176l1.234-1.234c.293-.293.214-.846-.177-1.236-.39-.392-.944-.471-1.237-.178zm9.083-11.044c-1.864 0-3.375 1.511-3.375 3.375s1.511 3.375 3.375 3.375 3.375-1.511 3.375-3.375-1.511-3.375-3.375-3.375z" id="iconBg"/></svg>