<svg xmlns="http://www.w3.org/2000/svg" width="16" height="16"><style type="text/css">.icon-canvas-transparent{opacity:0;fill:#F6F6F6;} .icon-vs-out{fill:#F6F6F6;} .icon-vs-bg{fill:#424242;} .icon-vs-fg{fill:#F0EFF1;}</style><path class="icon-canvas-transparent" d="M16 16h-16v-16h16v16z" id="canvas"/><path class="icon-vs-out" d="M16 5v-3h-1v-2h-8v2h-1v2h-4v2h-2v10h16v-10h-2v-1h2z" id="outline"/><path class="icon-vs-bg" d="M3 10.002h2v2h-2v-2zm12-3.002v8h-14v-8h2v-2h6v2h6zm-1 1h-6v-2h-4v2h-2v6h12v-6zm-7 4.002h2v-2h-2v2zm6-2h-2v2h2v-2zm1-7.002v-2h-6v2h-1v1h2v-2h4v2h2v-1h-1zm-1 1h-1v-1h-1v1h-1v1h1v1h1v-1h1v-1z" id="iconBg"/><path class="icon-vs-fg" d="M8 8.002v-2.002h-4v2h-2v6.002h12v-6.002l-6 .002zm3 2h2v2h-2v-2zm-4 0h2v2h-2v-2zm-4 0h2v2h-2v-2z" id="iconFg"/></svg>