<svg xmlns="http://www.w3.org/2000/svg" width="16" height="16"><style type="text/css">.icon-canvas-transparent{opacity:0;fill:#F6F6F6;} .icon-vs-out{fill:#F6F6F6;} .icon-vs-bg{fill:#424242;}</style><path class="icon-canvas-transparent" d="M16 16h-16v-16h16v16z" id="canvas"/><path class="icon-vs-out" d="M11 11.941c0 .883-.326 1.7-.971 2.431-.608.692-1.505 1.212-2.74 1.585l-.142.043h-1.147v-2.15l.711-.215c.433-.13.775-.314 1.023-.551-.537-.072-.899-.307-1.119-.509-.279-.256-.615-.721-.615-1.475 0-.598.252-1.129.728-1.535.428-.37.971-.565 1.571-.565.71 0 1.366.288 1.898.833.532.546.803 1.255.803 2.108z" id="outline"/><path class="icon-vs-bg" d="M10 11.941c0 .635-.24 1.225-.721 1.77-.478.545-1.239.975-2.279 1.289v-.407c.691-.208 1.227-.534 1.605-.975.379-.441.568-.907.568-1.4 0-.116-.029-.216-.09-.296-.047-.055-.095-.083-.142-.083-.073 0-.234.063-.483.185-.12.057-.247.084-.382.084-.329 0-.591-.09-.785-.269-.194-.179-.291-.425-.291-.739 0-.302.126-.561.378-.776.251-.217.559-.324.921-.324.442 0 .837.178 1.183.531.345.355.518.825.518 1.41z" id="iconBg"/></svg>