<svg xmlns="http://www.w3.org/2000/svg" width="16" height="16"><style type="text/css">.icon-canvas-transparent{opacity:0;fill:#F6F6F6;} .icon-vs-out{fill:#F6F6F6;} .icon-vs-bg{fill:#424242;} .icon-vs-fg{fill:#F0EFF1;}</style><path class="icon-canvas-transparent" d="M16 16h-16v-16h16v16z" id="canvas"/><path class="icon-vs-out" d="M16 1.586v4.828l-1.586 1.586h-2l-2 2h-.414v2.414l-1.586 1.586h-2l-2 2h-2.414v-2h-.414l-1.586-1.586v-4.828l1.586-1.586h4.414v-4.414l1.586-1.586h6.828l1.586 1.586z" id="outline"/><path class="icon-vs-bg" d="M3 8h-1v-1h1v1zm-2 1h1v-1h-1v1zm2 6h1v-1h-1v1zm-2-4h1v-1h-1v1zm2 2h1v-1h-1v1zm-1 0v-1h-1l1 1zm7-6.414l.414.414h.586v-1h-1v.586zm2-5.586h-1v1h1v-1zm3 0v1h1l-1-1zm-6 1.414v-.414h-1v1h1v-.586zm-3 4.586h-1v1h1v-1zm-1 6.586v.414h1v-1h-.414l-.586.586zm4-9.586h-1v1h1v-1zm1-2v-1h-1v1h1zm4-1h-1v1h1v-1zm-1.707 5.293l-.293.293v.414h1v-1h-.414l-.293.293zm-1.293 1.293v.414h1v-1h-.414l-.586.586zm3-1.586v1h1v-1h-1zm1-2h1v-1h-1v1zm0 1.586v.414h1v-1h-1v.586zm-7 1.414h-1v1h1v-1zm0 6h1v-1h-1v1zm1-1.414v.414h1v-1h-1v.586zm-3 1v.414h1v-1h-.414l-.586.586zm3-4.586h1l-1-1v1zm1 1h1v-1h-1v1zm-1 1h1v-1h-1v1z" id="iconBg"/><path class="icon-vs-fg" d="M7.586 8l.414.414v3.172l-.414.414h-2l-1.586 1.586v-1.586h-1.586l-.414-.414v-3.172l.414-.414h5.172zm6-6h-5.172l-.414.414v3.172l.414.414h1.586v1.586l.586-.586.414-.414.293-.293.293-.293h2l.414-.414v-3.172l-.414-.414z" id="iconFg"/></svg>