<svg xmlns="http://www.w3.org/2000/svg" width="16" height="16"><style type="text/css">.icon-canvas-transparent{opacity:0;fill:#F6F6F6;} .icon-vs-out{fill:#F6F6F6;} .icon-vs-bg{fill:#424242;} .icon-vs-fg{fill:#F0EFF1;}</style><path class="icon-canvas-transparent" d="M16 16h-16v-16h16v16z" id="canvas"/><path class="icon-vs-out" d="M14.414 0h-6.828l-1.586 1.586v4.414h-4.414l-1.586 1.586v4.828l1.586 1.586h.414v2h2.414l2-2h2l1.586-1.586v-2.414h.414l2-2h2l1.586-1.586v-4.828l-1.586-1.586zm-5.414 12l-1 1h-2l-2 2h-1v-2h-1l-1-1v-4l1-1h6l1 1v4zm6-6l-1 1h-2l-2 2v-1.414l-1.586-1.586h-1.414v-4l1-1h6l1 1v4z" id="outline"/><path class="icon-vs-bg" d="M15 2v4l-1 1h-2l-2 2v-1.414l1.293-1.293.293-.293h2l.414-.414v-3.172l-.414-.414h-5.172l-.414.414v3.172l.414.414h-1.414v-4l1-1h6l1 1zm-7 5l1 1v4l-1 1h-2l-2 2h-1v-2h-1l-1-1v-4l1-1h6zm0 1.414l-.414-.414h-5.172l-.414.414v3.172l.414.414h1.5859999999999999v1.5859999999999999l1.293-1.293.293-.293h2l.414-.414v-3.172zm2-2.414h-1.5859999999999999l1.586 1.586v-1.5859999999999999z" id="iconBg"/><path class="icon-vs-fg" d="M11.293 6.293l-1.293 1.293v-1.5859999999999999h-1.5859999999999999l-.414-.414v-3.172l.414-.414h5.172l.414.414v3.172l-.414.414h-2l-.293.293zm-3.707 1.707h-5.172l-.414.414v3.172l.414.414h1.5859999999999999v1.5859999999999999l1.293-1.293.293-.293h2l.414-.414v-3.172l-.414-.414z" id="iconFg"/></svg>