<svg xmlns="http://www.w3.org/2000/svg" width="16" height="16"><style type="text/css">.icon-canvas-transparent{opacity:0;fill:#F6F6F6;} .icon-vs-out{fill:#F6F6F6;} .icon-vs-bg{fill:#424242;} .icon-vs-fg{fill:#F0EFF1;} .icon-vs-blue{fill:#1BA1E2;} .icon-white{fill:#FFFFFF;}</style><path class="icon-canvas-transparent" d="M16 16h-16v-16h16v16z" id="canvas"/><path class="icon-vs-out" d="M16 11.5c0 2.485-2.015 4.5-4.5 4.5-1.56 0-2.933-.795-3.74-2h-5.76c-.97 0-2-.701-2-2v-10c0-1.299 1.03-2 2-2h6.061l3.939 3.556v3.494c2.247.252 4 2.136 4 4.45z" id="outline"/><path class="icon-vs-bg" d="M6 5h-3v-1h3v1zm-3 2h6v-1h-6v1zm4.05 5h-5.05v-10h5v3h3v2.275c.318-.113.653-.186 1-.225v-3.05l-3.359-3h-5.677s-.964 0-.964 1v10c0 1 .964 1 .964 1h5.311c-.113-.318-.186-.653-.225-1zm1.653-4h-5.703v1h4.76c.257-.384.583-.712.943-1zm-1.428 2h-4.275v1h4.05c.039-.347.112-.682.225-1z" id="iconBg"/><path class="icon-vs-fg" d="M7 11.5c0-.171.032-.334.05-.5h-4.05v-1h4.275c.126-.354.28-.693.485-1h-4.76v-1h5.703c.387-.31.821-.555 1.297-.725v-2.275h-3v-3h-5v10h5.05c-.018-.166-.05-.329-.05-.5zm-4-7.5h3v1h-3v-1zm0 2h6v1h-6v-1z" id="iconFg"/><path class="icon-vs-blue" d="M11.5 8c-1.933 0-3.5 1.567-3.5 3.5s1.567 3.5 3.5 3.5 3.5-1.567 3.5-3.5-1.567-3.5-3.5-3.5zm.5 6h-1v-1h1v1zm1-3c0 .551-.449 1-1 1v.5h-1v-.5c0-.551.449-1 1-1v-1c-.08-.044-.252-.102-.5-.102s-.42.058-.5.102v1h-1v-1c0-.58.631-1 1.5-1s1.5.42 1.5 1v1z" id="notificationBg"/><path class="icon-white" d="M12 12.5h-1v-.5c0-.551.449-1 1-1v-1c-.08-.044-.252-.102-.5-.102s-.42.058-.5.102v1h-1v-1c0-.58.631-1 1.5-1s1.5.42 1.5 1v1c0 .551-.449 1-1 1v.5zm0 .5h-1v1h1v-1z" id="notificationFg"/></svg>