<svg xmlns="http://www.w3.org/2000/svg" viewBox="0 0 16 16"><style>.st0{opacity:0}.st0,.st1{fill:#f6f6f6}.st2{fill:#424242}.st3{fill:#f0eff1}</style><g id="outline"><path class="st0" d="M0 0h16v16H0z"/><path class="st1" d="M14.414 0H5.586L4 1.586V2H0v12h4v.414L5.586 16h8.828L16 14.414V1.586z"/></g><path class="st2" d="M14 1H6L5 2v1H1v4h4v2H1v4h4v1l1 1h8l1-1V2l-1-1zM2 6V4h5v2H2zm0 6v-2h5v2H2zm12 2H6v-1h2V9H6V7h2V3H6V2h8v12z" id="icon_x5F_bg"/><g id="icon_x5F_fg"><path class="st3" d="M2 4h5v2H2zM2 10h5v2H2z"/><path class="st3" d="M6 2v1h2v4H6v2h2v4H6v1h8V2z"/></g></svg>