<svg xmlns="http://www.w3.org/2000/svg" width="16" height="16"><style type="text/css">.icon-vs-out{fill:#F6F6F6;} .icon-vs-bg{fill:#424242;} .icon-vs-fg{fill:#F0EFF1;} .icon-vs-action-green{fill:#388A34;} .icon-canvas-transparent{opacity:0;fill:#F6F6F6;}</style><path class="icon-canvas-transparent" d="M16 16h-16v-16h16v16z" id="canvas"/><path class="icon-vs-out" d="M16 7.236l-4.383 8.764h-3.236l-2.5-5h-5.881v-11h14v6h2v1.236z" id="outline"/><path class="icon-vs-bg" d="M13 1h-12v4h12v-4zm-1 3h-10v-2h10v2zm-11 6v-4h11.381l-.5 1h-9.881v2h8.881l-.5 1h-9.381z" id="iconBg"/><path class="icon-vs-fg" d="M12 4h-10v-2h10v2zm-.119 3h-9.881v2h8.881l1-2z" id="iconFg"/><polygon class="icon-vs-action-green" points="12.999,7 9.999,13 8.999,11 6.999,11 8.999,15 10.999,15 15,7" id="colorAction"/></svg>