<svg xmlns="http://www.w3.org/2000/svg" viewBox="0 0 16 16"><style>.st0{opacity:0}.st0,.st1{fill:#f6f6f6}.st2{fill:#424242}.st3{fill:#f0eff1}</style><g id="outline"><path class="st0" d="M0 0h16v16H0z"/><path class="st1" d="M15 0H5v4H2.586L1 5.586v8.828L2.586 16h5.828l1-1H15V0z"/></g><path class="st2" d="M6 1h8v13h-4v-1h3v-2h-3v-1h3V7h-3V6h3V3H7v1H6V1zm3 13l-1 1H3l-1-1V6l1-1h5l1 1v8zm-1 0V6H3v8h5zm-2-3v2h1v-2H6zm1-3V7H4v1h3zm-3 4h1v-1H4v1zm0-2h1V9H4v1zm2 0h1V9H6v1z" id="icon_x5F_bg"/><path class="st3" d="M13 10h-3V7h3v3zm0-7H7v1h1.414L10 5.586V6h3V3zm0 8h-3v2h3v-2zm-5 3H3V6h5v8zM7 9H6v1h1V9zm-2 2H4v1h1v-1zm0-2H4v1h1V9zm2-1V7H4v1h3zm0 5v-2H6v2h1z" id="icon_x5F_fg"/></svg>