<svg xmlns="http://www.w3.org/2000/svg" width="16" height="16"><style type="text/css">.icon-canvas-transparent{opacity:0;fill:#F6F6F6;} .icon-vs-out{fill:#F6F6F6;} .icon-vs-bg{fill:#424242;}</style><path class="icon-canvas-transparent" d="M16 16h-16v-16h16v16z" id="canvas"/><path class="icon-vs-out" d="M16 6.586l-3-3-1.414 1.414h-2.172l1-1-4-4h-.829l-5.585 5.586v.828l.874.874c-.537.607-.874 1.391-.874 2.26 0 1.171.595 2.203 1.5 2.827v1.625c0 1.102.897 2 2 2s2-.898 2-2v-1.624c.903-.623 1.497-1.651 1.5-2.82v3.444h1.586l3 3h.828l3.586-3.586v-.828l-2.086-2.086 2.086-2.086v-.828zm-9.387 1.414h.387v1.538c-.002-.556-.148-1.073-.387-1.538zm3.387 2.001v-.587l.586.587h-.586z" id="outline"/><path class="icon-vs-bg" d="M6 9.5c0 1.025-.617 1.903-1.5 2.289v2.211c0 .553-.447 1-1 1s-1-.447-1-1v-2.211c-.883-.387-1.5-1.265-1.5-2.289 0-1.024.617-1.902 1.5-2.289v2.789h2v-2.789c.883.386 1.5 1.264 1.5 2.289zm5.998 1.502l-2.998-.002v-4h2l-1 1 2 2 3-3-2-2-1 1h-5l2-2-3-3-5 5 .636.636c.54-.338 1.177-.541 1.864-.541.945 0 1.8.374 2.43.974l.07-.069h2v5h3l-1 1 2 2 3-3-2-2-1.002 1.002z" id="iconBg"/></svg>