<svg xmlns="http://www.w3.org/2000/svg" viewBox="0 0 24 18"><style>.icon-canvas-transparent{opacity:0;fill:#f6f6f6}.icon-vs-out{fill:#f6f6f6}.icon-vs-bg{fill:#424242}.icon-vs-action-blue{fill:#00539c}</style><path class="icon-canvas-transparent" d="M24 18H0V0h24v18z" id="canvas"/><path class="icon-vs-out" d="M23.268 10.354L18.5 15.121l-4.768-4.768 2.121-2.121L17 9.379V3h3v6.379l1.146-1.146 2.122 2.121zM7.5 2a6.5 6.5 0 1 0 0 13 6.5 6.5 0 0 0 0-13z" id="outline"/><path class="icon-vs-bg" d="M13 8.5c0-.063-.008-.124-.009-.186a5.496 5.496 0 1 0-10.967.661c.012.141.033.28.055.417l.002.014a5.495 5.495 0 0 0 4.518 4.514l.015.002c.137.023.274.042.414.054a4.906 4.906 0 0 0 1.01-.003A5.5 5.5 0 0 0 13 8.5zM9.833 7.195a9.859 9.859 0 0 0 1.82-.475 4.51 4.51 0 0 1 .365 1.78c0 .099-.008.196-.014.294a9.23 9.23 0 0 1-2.237.678c.087-.481.131-.938.126-1.369a9.087 9.087 0 0 0-.06-.908zm1.398-1.24a8.938 8.938 0 0 1-1.533.389 9.085 9.085 0 0 0-.721-2.109c.925.32 1.713.927 2.254 1.72zM7.5 13.018c-.133 0-.266-.008-.396-.021a13.434 13.434 0 0 1-.886-2.597c.411.041.838.067 1.278.072.105.002.211.002.316.002.273 0 .549-.008.828-.021-.239.779-.595 1.632-1.062 2.561-.027.001-.051.004-.078.004zm.004-3.402a13.6 13.6 0 0 1-1.443-.096 9.587 9.587 0 0 1-.098-1.409c.004-.303.025-.593.053-.876.474.054.967.09 1.48.095.105.002.211.002.316.002.384 0 .772-.012 1.169-.042.03.266.051.537.055.822.005.453-.054.945-.164 1.468-.459.033-.91.039-1.368.036zM7.5 3.982c.13 0 .257.009.384.019a8.52 8.52 0 0 1 .959 2.441c-.448.031-.89.035-1.338.031a13.31 13.31 0 0 1-1.367-.087 9.523 9.523 0 0 1 .787-2.363c.188-.024.38-.041.575-.041zm-1.637.311a10.39 10.39 0 0 0-.575 1.971 15.114 15.114 0 0 1-1.495-.343 4.526 4.526 0 0 1 2.07-1.628zM2.982 8.5c0-.644.137-1.254.379-1.809a15.81 15.81 0 0 0 1.807.424c-.034.318-.057.645-.06.988-.005.419.027.85.077 1.285a15.186 15.186 0 0 1-2.186-.571 3.717 3.717 0 0 1-.017-.317zm.186 1.277c.626.192 1.344.376 2.156.506.162.823.426 1.663.771 2.51a4.528 4.528 0 0 1-2.927-3.016zm5.42 3.104c.429-.901.759-1.74.973-2.51a9.993 9.993 0 0 0 2.267-.577 4.525 4.525 0 0 1-3.24 3.087z" id="iconBg"/><path class="icon-vs-action-blue" d="M21.854 10.354L18.5 13.707l-3.354-3.353.707-.707L18 11.793V4h1v7.793l2.146-2.147.708.708z" id="colorAction"/></svg>