<svg xmlns="http://www.w3.org/2000/svg" width="16" height="16"><style type="text/css">.icon-canvas-transparent{opacity:0;fill:#F6F6F6;} .icon-vs-out{fill:#F6F6F6;} .icon-vs-bg{fill:#424242;} .icon-vs-fg{fill:#F0EFF1;}</style><path class="icon-canvas-transparent" d="M16 16h-16v-16h16v16z" id="canvas"/><path class="icon-vs-out" d="M16 7v6h-3v3h-6v-2h-1v-1h-3v-3h-1v-1h-2v-6h3v-3h6v7h7z" id="outline"/><path class="icon-vs-bg" d="M8 8v2h-1v1h-2v-2h1v-1h1v-1h-2v-2h2v2h1v-6h-4v3h-3v4h2v1h1v3h3v1h1v2h4v-3h3v-4h-7zm-3-6h2v2h-2v-2zm-1 5h-2v-2h2v2zm7 7h-2v-2h2v2zm0-3h-2v-2h2v2zm3 0h-2v-2h2v2z" id="iconBg"/><path class="icon-vs-fg" d="M7 4h-2v-2h2v2zm0 1h-2v2h2v-2zm-3 0h-2v2h2v-2zm7 4h-2v2h2v-2zm3 0h-2v2h2v-2zm-3 3h-2v2h2v-2z" id="iconFg"/></svg>