<svg xmlns="http://www.w3.org/2000/svg" viewBox="0 0 16 16"><style>.icon-canvas-transparent{opacity:0;fill:#f6f6f6}.icon-vs-out{fill:#f6f6f6}.icon-vs-fg{fill:#f0eff1}.icon-vs-blue{fill:#1ba1e2}.icon-vs-action-blue{fill:#00539c}</style><path class="icon-canvas-transparent" d="M15.999 16h-16V0h16v16z" id="canvas"/><g id="outline"><path class="icon-vs-out" d="M15.999 7v6c0 1.71-2.149 3-5 3s-5-1.29-5-3L6 6.336 4.335 8h-.766L0 4.432v-.871L3.574 0h.703l1.767 1.767-.747.753H9v1.738A8.149 8.149 0 0 1 10.999 4c2.851 0 5 1.29 5 3z"/><path class="icon-vs-out" d="M15.999 7v6c0 1.71-2.149 3-5 3s-5-1.29-5-3L6 6.336 4.335 8h-.766L0 4.432v-.871L3.574 0h.703l1.767 1.767-.747.753H9v1.738A8.149 8.149 0 0 1 10.999 4c2.851 0 5 1.29 5 3z"/></g><path class="icon-vs-fg" d="M14.324 7c0 .527-1.326 1.325-3.325 1.325S7.674 7.527 7.674 7 9 5.675 10.999 5.675s3.325.798 3.325 1.325z" id="iconFg"/><path class="icon-vs-action-blue" d="M2.915 4.511l1.744 1.751-.707.707L.979 3.997l2.946-2.935.708.708-1.736 1.75H8v.991H2.915z" id="colorAction"/><path class="icon-vs-blue" d="M14.751 6.328l-.011-.018a1.97 1.97 0 0 0-.294-.309L14.444 6c-.349-.3-.845-.548-1.445-.723h-.002a6.555 6.555 0 0 0-.865-.186c-.046-.007-.09-.015-.136-.021-.321-.041-.651-.07-.997-.07a7.813 7.813 0 0 0-1.133.091 6.555 6.555 0 0 0-.865.186h-.002c-.6.175-1.096.423-1.445.723l-.002.002c-.114.098-.214.2-.294.308l-.011.019c-.151.211-.248.434-.248.671v6c0 1.104 1.791 2 4 2s4-.896 4-2V7c0-.237-.097-.461-.248-.672zm-3.752 1.997C9 8.325 7.674 7.527 7.674 7a.46.46 0 0 1 .082-.235c.012-.019.032-.038.046-.057.05-.066.11-.133.19-.199.019-.016.041-.032.062-.048a2.49 2.49 0 0 1 .335-.215l.047-.025c.153-.079.323-.154.515-.221l.05-.019c.247-.083.531-.15.834-.203l.164-.025c.311-.046.641-.078 1.001-.078a6.753 6.753 0 0 1 1.164.103c.303.053.586.12.834.203l.049.019c.192.067.362.142.514.221l.047.025c.129.069.239.142.335.215.021.016.043.032.062.048.08.067.14.133.19.199.014.019.034.039.046.057a.453.453 0 0 1 .083.235c0 .527-1.326 1.325-3.325 1.325z" id="colorImportance"/></svg>