<svg xmlns="http://www.w3.org/2000/svg" viewBox="0 0 16 16"><style>.icon-canvas-transparent{opacity:0;fill:#f6f6f6}.icon-vs-out{fill:#f6f6f6}.icon-vs-bg{fill:#424242}.icon-vs-action-blue{fill:#00539c}</style><path class="icon-canvas-transparent" d="M16 16H0V0h16v16z" id="canvas"/><path class="icon-vs-out" d="M16 6.931L12.919 10H16v3H6.529l-.667-2H4.138l-.667 2H0v-.412L3.529 2H6.47L8 6.587V5h2.655L9.527 3.869 11.396 2h.503L16 6.101v.83z" id="outline"/><path class="icon-vs-bg" d="M4.25 3l-3 9h1.5l.667-2h3.166l.667 2h1.5l-3-9h-1.5zm-.5 6L5 5.25 6.25 9h-2.5zM10 11h1v1h-1v-1zm2 0h1v1h-1v-1zm3 0v1h-1v-1h1z" id="iconBg"/><path class="icon-vs-action-blue" d="M13.063 6H9v1h4.081l-2.14 2.148.707.707L15 6.515l-3.352-3.352-.707.707L13.063 6z" id="colorAction"/></svg>