<svg xmlns="http://www.w3.org/2000/svg" width="16" height="16"><style type="text/css">.icon-canvas-transparent{opacity:0;fill:#F6F6F6;} .icon-vs-out{fill:#F6F6F6;} .icon-vs-bg{fill:#424242;} .icon-vs-fg{fill:#F0EFF1;} .icon-vs-action-blue{fill:#00539C;}</style><path class="icon-canvas-transparent" d="M16 16h-16v-16h16v16z" id="canvas"/><path class="icon-vs-out" d="M16 3.586v5.449c0 .952-.701 1.965-2 1.965h-.586l2.586 2.586v.828l-1.586 1.586h-.828l-3.351-3.351c-.393.165-.811.252-1.235.301v1.085c0 .952-.701 1.965-2 1.965h-5.035c-.953 0-1.965-.701-1.965-2v-7.035c0-.953.701-1.965 2-1.965h3.706l.294-.238v-2.797c0-.953.701-1.965 2-1.965h4.414l3.586 3.586z" id="outline"/><path class="icon-vs-bg" d="M15 4v5.035s0 .965-1 .965h-1v-1h1v-5h-2v-2h-4v2.051c-.347.038-.681.112-1 .225v-2.312c0 .001 0-.964 1-.964h4l3 3zm-8 8.724v1.276h-5v-7h2.276c.054-.15.112-.296.181-.439.088-.195.187-.384.305-.561h-2.762c-1 0-1 .965-1 .965v7.035c0 1 .965 1 .965 1h5.035c1 0 1-.965 1-.965v-1.086c-.347-.039-.681-.112-1-.225z" id="iconBg"/><path class="icon-vs-fg" d="M14 4v5h-1.051c.02-.166.051-.329.051-.5 0-2.481-2.019-4.5-4.5-4.5-.171 0-.333.032-.5.051v-2.051h4v2h2zm-5.5 2c-1.381 0-2.5 1.119-2.5 2.5s1.119 2.5 2.5 2.5 2.5-1.119 2.5-2.5-1.119-2.5-2.5-2.5zm-3.955 4.602c-.075-.14-.153-.274-.213-.422-.061-.152-.102-.313-.146-.473l-.098-.334c-.056-.282-.088-.574-.088-.873 0-.27.029-.532.08-.787.044-.246.114-.481.196-.712v-.001h-2.276v7h5v-1.294c-.19-.068-.381-.136-.56-.229l-.028-.016c-.224-.118-.436-.251-.635-.404l-.084-.069c-.176-.142-.344-.291-.496-.457l-.138-.167c-.124-.148-.245-.298-.35-.461l-.164-.301z" id="iconFg"/><path class="icon-vs-action-blue" d="M12 8.5c0-1.933-1.567-3.5-3.5-3.5s-3.5 1.567-3.5 3.5 1.567 3.5 3.5 3.5c.711 0 1.369-.215 1.922-.578l3.578 3.578 1-1-3.578-3.578c.363-.553.578-1.211.578-1.922zm-3.5 2.5c-1.381 0-2.5-1.119-2.5-2.5s1.119-2.5 2.5-2.5 2.5 1.119 2.5 2.5-1.119 2.5-2.5 2.5z" id="colorAction"/></svg>