<svg xmlns="http://www.w3.org/2000/svg" viewBox="0 0 16 16"><style>.icon-canvas-transparent{opacity:0;fill:#f6f6f6}.icon-vs-out{fill:#f6f6f6}.icon-vs-bg{fill:#424242}.icon-vs-fg{fill:#f0eff1}</style><path class="icon-canvas-transparent" d="M16 16H0V0h16v16z" id="canvas"/><path class="icon-vs-out" d="M16 8v5h-1v3H1V5l.026-.052L0 3.922v-.503L1.419 2H2V0h13v8h1z" id="outline"/><path class="icon-vs-bg" d="M13 6v1h1v1h-3V7h1V6h1zm1-5H6v1h7v3h1V1zm1 8v3h-5V9h5zm-1 1h-3v1h3v-1zM3 6.923L2.077 6H2v9h8v-1H3V6.923zM11 14h1v1h1v-1h1v-1h-3v1zM4.515 7.023L1.163 3.671l.707-.707L4 5.086V1h1v4.104l2.148-2.14.707.707-3.34 3.352z" id="iconBg"/><path class="icon-vs-fg" d="M11 6h-1v2H9v5h1v1H3V6.923l1.516 1.516 4.751-4.77L7.599 2H13v3h-2v1zm0 4v1h3v-1h-3z" id="iconFg"/></svg>