<svg xmlns="http://www.w3.org/2000/svg" viewBox="0 0 16 16"><style>.st0{opacity:0}.st0,.st1{fill:#f6f6f6}.st2{fill:none}.st3{fill:#424242}.st4{fill:#f0eff1}</style><g id="outline"><path class="st0" d="M0 0h16v16H0z"/><path class="st1" d="M15 15H9.414l-1 1H2.586L1 14.414V5.586L2.586 4H6V0h9v15z"/></g><g id="icon_x5F_bg"><path class="st2" d="M9.293 3L13 6.707V5.293L10.707 3zM3 14h5V6H3v8zm4-1H6v-2h1v2zm0-3H6V9h1v1zM4 7h3v1H4V7zm0 2h1v1H4V9zm0 2h1v1H4v-1zM13 3.707V3h-.707z"/><path class="st3" d="M6 9h1v1H6zM6 11h1v2H6zM4 7h3v1H4zM4 9h1v1H4z"/><path class="st3" d="M3 5L2 6v8l1 1h5l1-1V6L8 5H3zm5 9H3V6h5v8z"/><path class="st3" d="M4 11h1v1H4zM13.293 1H7v3h1v-.707l5 5v1.414l-3-3v1.586l3 3v1.414l-3-3v1.586L11.707 13h-1.414L10 12.707V14h4V1h-.707zM13 6.707L9.293 3h1.414L13 5.293v1.414zm0-3L12.293 3H13v.707z"/></g><path class="st4" d="M3 6v8h5V6H3zm2 6H4v-1h1v1zm0-2H4V9h1v1zm2 3H6v-2h1v2zm0-3H6V9h1v1zm0-2H4V7h3v1z" id="icon_x5F_fg"/></svg>