<svg xmlns="http://www.w3.org/2000/svg" viewBox="0 0 20 14"><style>.icon-vs-action-blue{fill:#00539c}.icon-vs-fg{fill:#f0eff1}.icon-vs-bg{fill:#424242}.icon-vs-out{fill:#f6f6f6}.icon-canvas-transparent{opacity:0;fill:#f6f6f6}</style><path class="icon-canvas-transparent" d="M20 14H0V0h20v14z" id="canvas"/><path class="icon-vs-out" d="M19 7v6h-1v1h-4v-1H8v1H4v-1H3V7h2.379l1-1H0V3h6.379L5.232 1.854 7.086 0h.535l4.5 4.5-2.5 2.5H19z" id="outline"/><path class="icon-vs-bg" d="M4 8v4h1v1h2v-1h8v1h2v-1h1V8H4zm2 2H5V9h1v1z" id="iconBg"/><path class="icon-vs-fg" d="M6 10H5V9h1v1z" id="iconFg"/><path class="icon-vs-action-blue" d="M10.707 4.5L7.354 7.853l-.708-.707L8.793 5H1V4h7.793L6.646 1.853l.707-.707L10.707 4.5z" id="colorAction"/></svg>