<svg xmlns="http://www.w3.org/2000/svg" viewBox="0 0 16 16"><style>.icon-canvas-transparent{opacity:0;fill:#f6f6f6}.icon-vs-out{fill:#f6f6f6}.icon-vs-fg{fill:#f0eff1}.icon-vs-blue{fill:#1ba1e2}.icon-vs-action-blue{fill:#00539c}</style><path class="icon-canvas-transparent" d="M15.999 16h-16V0h16v16z" id="canvas"/><path class="icon-vs-out" d="M15.999 7v6c0 1.711-2.149 3-5 3s-5-1.289-5-3L6 6.336 4.335 8h-.766L0 4.432v-.871L3.574 0h.703l1.715 1.715L7.707 0h.704L12 3.588v.469c1.48.167 2.67.706 3.357 1.456.067.072.136.143.193.219.05.068.091.138.133.209.064.106.118.215.162.327.023.06.048.118.066.179.053.179.088.362.088.553z" id="outline"/><path class="icon-vs-fg" d="M14.324 7c0 .527-1.326 1.325-3.325 1.325-.992 0-1.816-.197-2.397-.459l2.19-2.181c.068-.004.134-.01.207-.01 1.999 0 3.325.798 3.325 1.325z" id="iconFg"/><path class="icon-vs-action-blue" d="M11.032 4.035L8.086 6.969l-.708-.708 1.736-1.75H2.915l1.744 1.751-.707.707L.979 3.997l2.946-2.935.708.708-1.736 1.75h6.199L7.352 1.769l.707-.707 2.973 2.973z" id="colorAction"/><path class="icon-vs-blue" d="M14.999 7v6c0 1.104-1.791 2-4 2-2.206 0-3.994-.893-3.999-1.995V7.297L7.703 8h.765l.134-.134c.107.048.23.091.352.134H9v.017a6.266 6.266 0 0 0 1.999.308c1.999 0 3.325-.798 3.325-1.325s-1.326-1.325-3.325-1.325c-.072 0-.139.006-.207.01l.662-.659c1.991.114 3.545.948 3.545 1.974z" id="colorImportance"/></svg>