<svg xmlns="http://www.w3.org/2000/svg" viewBox="0 0 16 16"><style>.icon-canvas-transparent{opacity:0;fill:#f6f6f6}.icon-vs-out{fill:#f6f6f6}.icon-vs-fg{fill:#f0eff1}.icon-folder{fill:#dcb67a}.icon-vs-action-blue{fill:#00539c}</style><path class="icon-canvas-transparent" d="M0 0h16v16H0z" id="canvas"/><path class="icon-vs-out" d="M14.5 10c.827 0 1.5-.673 1.5-1.5V3.501c0-.401-.156-.778-.44-1.061a1.491 1.491 0 0 0-1.062-.439l-1.882.002L11.605 0H6.489c-.827 0-1.5.673-1.5 1.498L4.982 6H1.51c-.827 0-1.5.673-1.5 1.498L0 14.5c0 .827.673 1.5 1.5 1.5h8.021c.827 0 1.5-.673 1.5-1.5v-1.358l2.419 2.418c.283.284.66.44 1.06.44s.777-.156 1.06-.44a1.501 1.501 0 0 0 0-2.121l-2.881-2.881c.077-.18.126-.37.176-.559H14.5z" id="outline"/><path class="icon-folder" d="M9 5c2.206 0 4 1.794 4 4h1.509a.5.5 0 0 0 .5-.5V3.501a.5.5 0 0 0-.501-.5l-2.499.004L10.999 1H6.498a.491.491 0 0 0-.489.499l-.007 4.88C6.737 5.541 7.801 5 9 5zM7.009 2h2.989l.5 1H7.009V2zm3.021 10.846V14.5a.5.5 0 0 1-.5.5H1.51a.491.491 0 0 1-.489-.501l.009-7A.491.491 0 0 1 1.519 7h4.037a3.95 3.95 0 0 0-.461 1.151L5.02 8H2.03v1H5c0 2.206 1.794 4 4 4a3.92 3.92 0 0 0 1.03-.154z" id="iconBg"/><path class="icon-vs-fg" d="M9.979 2l.5 1H7V2h2.979zM5 8H2.021v1H5c0-.283.031-.558.087-.824L5 8zm4 3c-1.103 0-2-.897-2-2s.897-2 2-2 2 .897 2 2-.897 2-2 2z" id="iconFg"/><path class="icon-vs-action-blue" d="M14.854 14.146l-3.413-3.413C11.79 10.243 12 9.647 12 9c0-1.654-1.346-3-3-3S6 7.346 6 9s1.346 3 3 3a2.97 2.97 0 0 0 1.733-.56l3.413 3.413a.5.5 0 1 0 .708-.707zM9 11c-1.103 0-2-.897-2-2s.897-2 2-2 2 .897 2 2-.897 2-2 2z" id="colorAction"/></svg>