<svg xmlns="http://www.w3.org/2000/svg" viewBox="0 0 16 16"><style>.st0{opacity:0}.st0,.st1{fill:#f6f6f6}.st2{fill:none}.st3{fill:#424242}.st4{fill:#f0eff1}.st5{fill:#fc0}</style><g id="outline"><path class="st0" d="M0 0h16v16H0z"/><path class="st1" d="M8.309 15.5l-.367-.734-.735.734H1.793L.5 14.207V5.793L1.793 4.5H4.5v-4h9v9.618L15.441 14l-.75 1.5z"/><path class="st1" d="M13 1v9.236l.106.211L14.882 14l-.5 1H8.618l-.54-1.079-.981.981L7 15H2l-1-1V6l1-1h3V1h8m1-1H4v4H1.586L0 5.586v8.828L1.586 16h5.828l.391-.391L8 16h7l1-2-2-4V0z"/></g><g id="icon_x5F_bg"><path class="st2" d="M2 6v8h5V6H2zm2 6H3v-1h1v1zm0-2H3V9h1v1zm2 3H5v-2h1v2zm0-3H5V9h1v1zm0-2H3V7h3v1z"/><path class="st3" d="M5 11h1v2H5zM5 9h1v1H5zM3 9h1v1H3zM3 11h1v1H3zM3 7h3v1H3zM5 1v3h1V3h6v3H9v1h3.375L13 8V1z"/><path class="st3" d="M2 5L1 6v8l1 1h5l.333-.333L7 14H2V6h5v8l1-2V6L7 5z"/></g><path class="st4" d="M2 6v8h5V6H2zm2 6H3v-1h1v1zm0-2H3V9h1v1zm2 3H5v-2h1v2zm0-3H5V9h1v1zm0-2H3V7h3v1zm3 2V7h1.563L9 10zm3-7H6v1h1.414L9 5.586V6h3V3z" id="icon_x5F_fg"/><path class="st5" d="M11.891 8.016h-.781l-3.016 6 .515.984h5.766l.484-1-2.968-5.984zM12 14h-1v-1h1v1zm0-2h-1v-2h1v2z" id="not_x5F_bg"/><path d="M12 12h-1v-2h1v2zm0 1h-1v1h1v-1z" id="not_x5F_fg"/></svg>