<svg xmlns="http://www.w3.org/2000/svg" viewBox="0 0 16 16"><style>.st0{opacity:0}.st0,.st1{fill:#f6f6f6}.st2{fill:#424242}.st3{fill:#f0eff1}</style><g id="outline"><path class="st0" d="M0 0h16v16H0z"/><path class="st1" d="M11.061 0H5c-.97 0-2 .701-2 2v7H2v2H0v5h7v-2h6c1.299 0 2-1.03 2-2V3.556L11.061 0z"/></g><g id="icon_x5F_bg"><path class="st2" d="M10.641 1H4.964S4 1 4 2v7h1V2h5v3h3v7H7v1h5.965c1 0 1.035-1 1.035-1V4l-3.359-3z"/><path class="st2" d="M6 10v5H1v-3h2v-2h3zm-3 4v-1H2v1h1zm2-1H4v1h1v-1zm0-2H4v1h1v-1z"/></g><g id="icon_x5F_fg"><path class="st3" d="M10 5V2H5v7h2v3h6V5zM4 11h1v1H4zM2 13h1v1H2zM4 13h1v1H4z"/></g></svg>