<svg xmlns="http://www.w3.org/2000/svg" width="16" height="16"><style type="text/css">.icon-canvas-transparent{opacity:0;fill:#F6F6F6;} .icon-vs-out{fill:#F6F6F6;} .icon-vs-bg{fill:#424242;} .icon-vs-action-blue{fill:#00539C;}</style><path class="icon-canvas-transparent" d="M16 16h-16v-16h16v16z" id="canvas"/><path class="icon-vs-out" d="M16 0h-15v2.18c-.642.785-1 1.77-1 2.82v11h15v-2.18c.642-.785 1-1.769 1-2.82v-11zm-10 6h-2.825l-.145-.701-.03-.299h3v1zm6.97 4.7l.03.3h-3v-1h2.826l.144.7z" id="outline"/><path class="icon-vs-bg" d="M1 7h8v4.592l-1.83-3.206c-.164-.287-.638-.287-.801 0l-2.113 3.698-1.426-1.899c-.086-.117-.223-.185-.368-.185s-.283.068-.369.185l-1.093 1.481v-4.666zm3.708 6.152c-.077.135-.217.222-.371.231-.158.001-.305-.06-.398-.184l-1.477-1.97-1.462 1.954v1.817h8v-1.572l-2.23-3.883-2.062 3.607zm6-6c-.077.135-.217.222-.371.232-.131.001-.246-.051-.337-.135v1.751h5v-1.573l-2.231-3.882-2.061 3.607zm-3.708-6.152v4.666l1.093-1.481c.086-.117.223-.185.369-.185.145 0 .282.068.368.185l1.426 1.899 2.113-3.698c.163-.287.637-.287.801 0l1.83 3.206v-4.592h-8zm.886 5h1.152l-.576-.769-.576.769z" id="iconBg"/><path class="icon-vs-action-blue" d="M2 1h3v3h-1v-1.449c-1.14.232-2 1.242-2 2.449 0 .171.018.338.051.5h-1.001c-.024-.165-.05-.329-.05-.5 0-1.281.696-2.39 1.724-3h-.724v-1zm13 10c0-.172-.026-.336-.05-.5h-1.001c.033.162.051.328.051.5 0 1.208-.86 2.217-2 2.449v-1.449h-1v3h3v-1h-.723c1.027-.609 1.723-1.719 1.723-3z" id="colorAction"/></svg>