<svg xmlns="http://www.w3.org/2000/svg" viewBox="0 0 16 16"><style>.icon-canvas-transparent{opacity:0;fill:#f6f6f6}.icon-white{fill:#fff}.ms-limegreen{fill:#7fba00}</style><path class="icon-canvas-transparent" d="M16 16H0V0h16v16z" id="canvas"/><path class="ms-limegreen" d="M13.537 7H15v1c0 4.077-3.423 7.394-7.5 7.394S.053 12.078.053 8C.053 3.923 3.343.606 7.42.606c1.823 0 3.561.669 4.917 1.884l.46.418 1.201-1.205L16 3.707v.832L13.537 7z" id="outline"/><g id="iconBg"><path class="icon-white" d="M7.513 11.609L3.936 8.032l1.005-1.005L7.513 9.6l6.482-6.482L15 4.122l-7.487 7.487zM13.787 8h-1.421a4.979 4.979 0 0 1-4.973 4.973A4.979 4.979 0 0 1 2.42 8a4.979 4.979 0 0 1 4.973-4.973c1.226 0 2.403.45 3.316 1.266l.947-1.058a6.384 6.384 0 0 0-4.263-1.629A6.4 6.4 0 0 0 1 8a6.401 6.401 0 0 0 6.394 6.394A6.401 6.401 0 0 0 13.787 8z"/></g></svg>