<svg xmlns="http://www.w3.org/2000/svg" viewBox="0 0 16 16"><style>.st0{opacity:0}.st0,.st1{fill:#f6f6f6}.st2{fill:#424242}.st3{fill:#f0eff1}.st4{fill:#e51400}.st5{fill:#fff}</style><g id="outline"><path class="st0" d="M0 0h16v16H0z"/><path class="st1" d="M16 11.5a4.5 4.5 0 0 1-4.5 4.5 4.462 4.462 0 0 1-2.797-1h-.289l-1 1H1.586L0 14.414V5.586L1.586 4H4V0h10v7.76c1.205.807 2 2.18 2 3.74z"/></g><path class="st2" d="M3 10h1V9H3v1zm0 2h1v-1H3v1zm2-2h1V9H5v1zm2.461 3.45a4.365 4.365 0 0 1-.17-.398 8.6 8.6 0 0 1-.209-.737A4.382 4.382 0 0 1 7 11.5V14H2V6h5v5.5c0-.284.031-.56.083-.828a8.23 8.23 0 0 1 .212-.738c.073-.194.163-.378.26-.559.017-.03.297-.488.443-.67l.001-.001V6L7 5H2L1 6v8l1 1h5l.866-.866a9.014 9.014 0 0 1-.405-.684zM3 8h3V7H3v1zm2 5h1v-2H5v2zm8-12v6.27l-1-.125V7H9V6h3V3H6v1H5V1h8z" id="icon_x5F_bg"/><path class="st3" d="M2 6v8h5V6H2zm2 6H3v-1h1v1zm0-2H3V9h1v1zm2 3H5v-2h1v2zm0-3H5V9h1v1zm0-2H3V7h3v1zm6-.812S10.344 7 9 7.844V7h3v.188zM12 3H6v1h1.414L9 5.586V6h3V3z" id="icon_x5F_fg"/><path class="st4" d="M11.5 8a3.5 3.5 0 1 0 0 7 3.5 3.5 0 0 0 0-7zm1.854 4.646l-.707.707-1.147-1.146-1.146 1.147-.707-.707 1.147-1.146-1.147-1.146.707-.707 1.146 1.147 1.146-1.147.707.707-1.146 1.145 1.147 1.146z" id="not_x5F_bg"/><path class="st5" d="M12.207 11.5l1.147 1.146-.707.707-1.147-1.146-1.146 1.147-.707-.707 1.147-1.146-1.147-1.146.707-.707 1.146 1.147 1.146-1.147.707.707-1.146 1.145z" id="not_x5F_fg"/></svg>