<svg xmlns="http://www.w3.org/2000/svg" viewBox="0 0 16 16"><style>.st0{opacity:0}.st0,.st1{fill:#f6f6f6}.st2{fill:#424242}.st3{fill:#f0eff1}</style><g id="outline"><path class="st0" d="M0 0h16v16H0z"/><path class="st1" d="M16 3h-1V2h-1c-.413-1.163-1.695-2-3-2S8.413.837 8 2H7v.692A3.356 3.356 0 0 0 5 2c-1.305 0-2.587.837-3 2H1v1H0v11h10v-2h6V3z"/></g><g id="icon_x5F_bg"><path class="st2" d="M8 6V5h-.999a2 2 0 0 0-4 0H2v1H1v9h8V6H8zM5 4a1 1 0 1 1 0 2 1 1 0 1 1 0-2zm3 10H2V7h6v7z"/><path class="st2" d="M14 4V3h-.999a2 2 0 0 0-4 0H8v1h1v1h5v7h-4v1h5V4h-1zm-2.979 0a1 1 0 1 1 0-2 1 1 0 1 1 0 2z"/></g><g id="icon_x5F_fg"><path class="st3" d="M2 7h6v7H2z"/><circle class="st3" cx="5" cy="5" r="1"/><path class="st3" d="M10 5h4v7h-4z"/><circle class="st3" cx="11.021" cy="3" r="1"/></g></svg>