<svg xmlns="http://www.w3.org/2000/svg" width="16" height="16"><style type="text/css">.icon-canvas-transparent{opacity:0;fill:#F6F6F6;} .icon-vs-out{fill:#F6F6F6;} .icon-vs-bg{fill:#424242;} .icon-vs-fg{fill:#F0EFF1;} .icon-vs-action-blue{fill:#00539C;}</style><path class="icon-canvas-transparent" d="M16 16h-16v-16h16v16z" id="canvas"/><path class="icon-vs-out" d="M7 0h-2v1.586l-1.586-1.586h-.414v2h-3v10h5v4h11v-16h-9zm-2 9h-2v-1.586l2-2v3.586z" id="outline"/><path class="icon-vs-bg" d="M7 2v3h8v1h-8v9h-1v-14h9v1h-8zm1 2h4v-1h-4v1zm2 4h5v-1h-5v1zm0 2h5v-1h-5v1zm0 2h5v-1h-5v1zm0 2h5v-1h-5v1z" id="iconBg"/><path class="icon-vs-fg" d="M7 6h8v1h-5v1h5v1h-5v1h5v1h-5v1h5v1h-5v1h5v1h-8v-9zm8-4v3h-8v-3h8zm-3 1h-4v1h4v-1z" id="iconFg"/><path class="icon-vs-action-blue" d="M4 5v-1h-2v6h2v1h-3v-8h3v-1l1.5 1.5-1.5 1.5z" id="colorAction"/></svg>