<svg xmlns="http://www.w3.org/2000/svg" viewBox="0 0 16 16"><style>.st0{opacity:0}.st0,.st1{fill:#f6f6f6}.st2{fill:#424242}</style><g id="outline"><path class="st0" d="M0 0h16v16H0z"/><path class="st1" d="M16 14.363l-2.25-2.357a7.795 7.795 0 0 0 .793-1.519 8.08 8.08 0 0 0 .405-1.396 7.84 7.84 0 0 0 .146-1.519v-1H11.26c.277-.349.491-.736.637-1.157.155-.449.233-.959.233-1.515 0-.501-.099-.994-.293-1.463a3.672 3.672 0 0 0-.884-1.274A4.134 4.134 0 0 0 9.547.307C9.009.105 8.386.003 7.694.003c-.649 0-1.263.098-1.823.29a4.574 4.574 0 0 0-1.517.852A4.01 4.01 0 0 0 3.32 2.51a4.089 4.089 0 0 0-.373 1.74c0 .407.055.803.162 1.175.101.345.232.678.39.989.118.234.25.463.394.684a7.644 7.644 0 0 0-1.245 1.01 5.086 5.086 0 0 0-.694.871 4.58 4.58 0 0 0-.488 1.061 4.235 4.235 0 0 0-.188 1.279c0 .61.114 1.204.342 1.768.233.576.588 1.09 1.054 1.529.46.431 1.038.775 1.717 1.021.659.241 1.431.363 2.294.363.571 0 1.113-.053 1.608-.158a8.679 8.679 0 0 0 1.347-.396 6.592 6.592 0 0 0 1.146-.575l.092-.059.91.953H16v-1.402zM7.111 3.764c.047-.043.19-.175.621-.175.055 0 .108.011.164.035a.58.58 0 0 1 .297.285c.021.043.03.096.03.162a.82.82 0 0 1-.061.332 1.26 1.26 0 0 1-.226.346 2.52 2.52 0 0 1-.519.428 3.902 3.902 0 0 1-.21-.302 2.331 2.331 0 0 1-.201-.399.696.696 0 0 1-.048-.245c0-.326.108-.426.153-.467zm1.158 8.291a3.586 3.586 0 0 1-.651.171 5.215 5.215 0 0 1-.876.065 1.72 1.72 0 0 1-.52-.083 1.283 1.283 0 0 1-.42-.218.96.96 0 0 1-.261-.324 1.058 1.058 0 0 1-.093-.479c0-.215.028-.394.085-.53.064-.158.148-.293.258-.415.122-.138.269-.264.434-.375l.014-.009.269.291c.313.337.631.676.955 1.016l.833.881c-.01.002-.019.006-.027.009zm2.928-4.483c0 .278-.026.555-.076.819a7.424 7.424 0 0 1-.148.624C10.799 8.832 9.832 7.8 9.832 7.8c.078-.049.153-.098.226-.146a5.398 5.398 0 0 0 1.139-1.004v.922z"/></g><path class="st2" d="M12.216 14.764l-1.218-1.274a7.644 7.644 0 0 1-.75.538c-.286.182-.61.344-.972.486s-.758.258-1.189.349A6.797 6.797 0 0 1 6.685 15c-.749 0-1.4-.101-1.954-.302s-1.011-.472-1.373-.812-.632-.731-.812-1.175-.269-.908-.269-1.392c0-.352.047-.678.142-.977.094-.299.222-.576.382-.831s.346-.488.557-.698c.211-.211.429-.403.656-.576.226-.173.456-.328.689-.467.233-.138.45-.261.651-.368-.176-.22-.348-.45-.514-.689s-.316-.489-.448-.75a4.61 4.61 0 0 1-.322-.817 3.243 3.243 0 0 1-.122-.896 3.017 3.017 0 0 1 1.057-2.346c.333-.286.73-.508 1.189-.665.459-.157.96-.236 1.501-.236.573 0 1.073.08 1.501.241.427.16.784.376 1.071.646s.502.58.647.93.217.709.217 1.081c0 .447-.06.843-.179 1.189-.12.346-.3.661-.543.944a4.395 4.395 0 0 1-.906.788c-.363.242-.786.486-1.27.731a1547.86 1547.86 0 0 1 1.481 1.586c.283.302.562.596.835.882.274.286.514.533.722.741.094-.126.195-.297.302-.514a5.53 5.53 0 0 0 .297-.75c.091-.283.168-.588.231-.916a5.33 5.33 0 0 0 .094-1.01h1.897c0 .453-.042.895-.127 1.326a7.068 7.068 0 0 1-.883 2.293c-.201.33-.418.625-.651.882L15 14.764h-2.784zm-2.36-2.511c-.201-.22-.45-.488-.746-.802-.296-.315-.604-.64-.925-.977-.32-.336-.635-.671-.943-1.005l-.821-.887c-.265.145-.515.296-.751.453-.236.157-.445.338-.627.543s-.327.437-.434.698-.16.565-.16.911c0 .359.068.67.203.934s.313.483.533.656c.22.173.467.302.741.387s.546.127.816.127c.39 0 .739-.027 1.048-.08.308-.053.587-.127.835-.222s.472-.204.67-.33c.198-.126.385-.261.561-.406zM9.224 4.07c0-.214-.042-.411-.127-.59a1.579 1.579 0 0 0-.812-.778 1.407 1.407 0 0 0-.553-.113c-.547 0-.98.146-1.298.439s-.476.693-.476 1.203c0 .201.038.401.113.599.076.198.171.39.288.576.116.186.249.367.396.543s.294.343.439.5a7.05 7.05 0 0 0 .84-.481c.252-.17.466-.353.642-.548.176-.195.311-.403.406-.623s.142-.462.142-.727z" id="icon_x5F_bg"/></svg>