<svg xmlns="http://www.w3.org/2000/svg" viewBox="0 0 16 16"><style>.st0{opacity:0}.st0,.st1{fill:#f6f6f6}.st2{fill:#424242}.st3{fill:#f0eff1}</style><g id="outline"><path class="st0" d="M0 0h16v16H0z"/><path class="st1" d="M2 1h12v14H2z"/></g><g id="icon_x5F_bg"><path class="st2" d="M10.557 5.056L9.5 4H8l1 1H6a3 3 0 0 0-3 3 2.995 2.995 0 0 0 2.444 2.943L6.5 12H8l-1-1h3a2.998 2.998 0 1 0 .557-5.944zM10 10H7l1-1H6.5l-.946.946A1.998 1.998 0 0 1 6 6h3L8 7h1.5l.946-.946A1.998 1.998 0 0 1 10 10z"/><path class="st2" d="M3 2v3.379a3.997 3.997 0 0 1 1-.825V3h8v1.568c.377.219.714.494 1 .818V2H3zM12 13H4v-1.568a4.032 4.032 0 0 1-1-.818V14h10v-3.38a3.997 3.997 0 0 1-1 .825V13z"/></g><g id="icon_x5F_fg"><path class="st3" d="M4 3v1.555A3.955 3.955 0 0 1 6 4h.586l-1-1H4zM9.914 3l1.166 1.167c.328.092.632.235.92.402V3H9.914zM4 11.432V13h2.086l-1.167-1.166A4.036 4.036 0 0 1 4 11.432zM9.414 12l1 1H12v-1.555A3.958 3.958 0 0 1 10 12h-.586z"/></g></svg>