<svg xmlns="http://www.w3.org/2000/svg" viewBox="0 0 16 16"><style>.st0{opacity:0}.st0,.st1{fill:#f6f6f6}.st2{fill:#424242}.st3{fill:#f0eff1}</style><g id="outline"><path class="st0" d="M0 0h16v16H0z"/><path class="st1" d="M14 4.586V1H2v5.586L0 8.585v.829l2 2V15h12V9.414l2-2v-.828z"/></g><g id="icon_x5F_bg"><path class="st2" d="M12 10l3-3-3-3h-2l2 2H9v2h3l-2 2zM6 12l-2-2h3V8H4l2-2H4L1 9l3 3z"/><path class="st2" d="M4 5V3h8.414l.586.586V2H3v3.586L3.586 5zM12 11v2H3.586L3 12.414V14h10v-3.586l-.586.586z"/></g><g id="icon_x5F_fg"><path class="st3" d="M7.586 3H4v2h5.586zM8 9v1.586L9.586 9zM8 5.414L6.414 7H8zM6.414 11l2 2H12v-2z"/></g></svg>