<svg xmlns="http://www.w3.org/2000/svg" viewBox="0 0 16 16"><style>.st0{opacity:0}.st0,.st1{fill:#f6f6f6}.st2{fill:#424242}.st3{fill:#f0eff1}</style><g id="outline"><path class="st0" d="M0 0h16v16H0z"/><path class="st1" d="M8.581 0H7.419L1 11.234v.266C1 14.023 4.075 16 8 16c3.926 0 7-1.977 7-4.5v-.266L8.581 0z"/></g><path class="st2" d="M2 11.5C2 13.434 4.687 15 8 15c3.314 0 6-1.566 6-3.5L8 1 2 11.5zM8 14c-2.762 0-4.739-1.157-4.977-2.276l4.593-8.038 1.852 10.186C9.008 13.947 8.523 14 8 14zm4.976-2.276c-.158.747-1.104 1.504-2.53 1.929L8.749 4.327l4.227 7.397z" id="icon_x5F_bg"/><g id="icon_x5F_fg"><path class="st3" d="M12.976 11.724L8.749 4.327l1.696 9.325c1.427-.425 2.372-1.181 2.531-1.928zM3.023 11.724C3.261 12.843 5.238 14 8 14c.523 0 1.008-.053 1.469-.128L7.617 3.686l-4.594 8.038z"/></g></svg>