<?xml version="1.0" encoding="iso-8859-1"?>
<!-- Generator: Adobe Illustrator 21.0.0, SVG Export Plug-In . SVG Version: 6.00 Build 0)  -->
<svg version="1.1" xmlns="http://www.w3.org/2000/svg" xmlns:xlink="http://www.w3.org/1999/xlink" x="0px" y="0px"
	 viewBox="0 0 16 16" style="enable-background:new 0 0 16 16;" xml:space="preserve">
<style type="text/css">
	.icon_x002D_canvas_x002D_transparent{opacity:0;fill:#F6F6F6;}
	.icon_x002D_vs_x002D_out{fill:#F6F6F6;}
	.icon_x002D_vs_x002D_bg{fill:#424242;}
	.icon_x002D_vs_x002D_fg{fill:#F0EFF1;}
	.icon_x002D_vs_x002D_blue{fill:#1BA1E2;}
</style>
<g id="canvas">
	<path class="icon_x002D_canvas_x002D_transparent" d="M16,16H0V0h16V16z"/>
</g>
<g id="outline">
	<path class="icon_x002D_vs_x002D_out" d="M16,6v6c0,1.711-2.149,3-5,3c-2.851,0-5-1.289-5-3V9H4V8H3.98H3.978H2.021
		C2.017,8,2,8,2,8V6.984c0,0,0.087-2.72-2-2.459V2.572l0.011-0.003L0,2.533c1.374-0.023,1.942-1.43,1.968-2.285
		C1.964,0.093,1.969,0.003,1.969,0.003L3.967,0c0,0,0.001,0.09,0.001,0.247C3.968,2.494,7,2,7,2v2c0,0.062,0.011,0.108,0.016,0.163
		C7.913,3.451,9.328,3,11,3C13.851,3,16,4.289,16,6z"/>
</g>
<g id="iconBg">
	<path class="icon_x002D_vs_x002D_bg" d="M0.279,3.533L0.275,3.534c2.852,0,2.692-3.488,2.692-3.488S2.817,3.566,5.67,3.566
		L5.666,3.565c-2.852,0-2.692,3.488-2.692,3.488S3.13,3.533,0.279,3.533z M5.684,8.262c0,0-0.095-2.061,1.59-2.061h0.002
		c-1.686,0-1.596-2.079-1.596-2.079s0.094,2.059-1.59,2.059h0.002C5.775,6.182,5.684,8.262,5.684,8.262z"/>
</g>
<g id="iconFg">
	<path class="icon_x002D_vs_x002D_fg" d="M14.325,6c0,0.527-1.326,1.325-3.325,1.325c-1.424,0-2.495-0.405-3-0.829V5.503
		c0.505-0.423,1.576-0.829,3-0.829C12.999,4.675,14.325,5.473,14.325,6z"/>
</g>
<g id="colorImportance">
	<path class="icon_x002D_vs_x002D_blue" d="M15,6v3v3c0,1.104-1.791,2-4,2c-2.209,0-4-0.896-4-2V9c0,0,0.002-0.895,0-1
		c0.031-0.938,0.859-1,1-1V6.497c0.505,0.423,1.576,0.829,3,0.829c1.999,0,3.325-0.798,3.325-1.325S12.999,4.675,11,4.675
		c-1.424,0-2.495,0.405-3,0.829v-0.49c-0.089,0-0.244-0.002-0.406-0.049C7.715,4.868,7.85,4.775,8,4.689C8.733,4.271,9.799,4,11,4
		c1.201,0,2.267,0.271,3,0.689C14.615,5.041,15,5.496,15,6z"/>
</g>
</svg>
