<svg xmlns="http://www.w3.org/2000/svg" viewBox="0 0 16 16"><style>.st0{opacity:0}.st0,.st1{fill:#f6f6f6}.st2{fill:#424242}.st3{fill:#f0eff1}</style><g id="outline"><path class="st0" d="M0 0h16v16H0z"/><path class="st1" d="M13.414 0H2.586L0 2.586v6.828l.349.349A4.5 4.5 0 0 0 4.5 16c2.314 0 4.198-1.753 4.45-4h4.464L16 9.414V2.586L13.414 0z"/></g><g id="icon_x5F_bg"><path class="st2" d="M13 1H3L1 3v5.703a4.483 4.483 0 0 1 2-1.428V3.828L3.828 3h8.344l.828.828v4.344L12.172 9H8.24c.391.583.627 1.268.709 2H13l2-2V3l-2-2z"/><path class="st2" d="M6.861 8.932zm.633.781c-.013-.023-.035-.038-.048-.06l.04.068.008-.008zm-.008.009L3.5 13.707l-1.854-1.853.707-.707L3.5 12.293l3.361-3.361A3.47 3.47 0 0 0 4.5 8 3.5 3.5 0 1 0 8 11.5a3.41 3.41 0 0 0-.514-1.778z"/></g><g id="icon_x5F_fg"><path class="st3" d="M12.172 3H3.828L3 3.828v3.447A4.469 4.469 0 0 1 4.5 7c1.56 0 2.933.794 3.74 2h3.932L13 8.172V3.828L12.172 3zM2.354 11.146l-.707.707L3.5 13.707l3.994-3.994a3.486 3.486 0 0 0-.633-.781L3.5 12.293l-1.146-1.147z"/></g></svg>