<svg xmlns="http://www.w3.org/2000/svg" viewBox="0 0 16 16"><style>.st0{opacity:0}.st0,.st1{fill:#f6f6f6}.st2{fill:none}.st3{fill:#424242}.st4{fill:#00539c}.st5{fill:#f0eff1}</style><g id="outline"><path class="st0" d="M0 0h16v16H0z"/><path class="st1" d="M16 0v15.998H6v-2.946l-2.29 2.29c-.109.109-.701.658-1.557.658-.38 0-.947-.115-1.491-.658-1.118-1.119-.614-2.436 0-3.048l2.595-2.596a4.387 4.387 0 0 1-.177-1.236c0-1.917 1.22-3.54 2.92-4.171V0h10z"/></g><g id="icon_x5F_bg"><path class="st2" d="M9 3h4v1H9zM12 12h1v1h-1z"/><path class="st3" d="M7 1v3.055c.18-.022.357-.055.543-.055.628 0 1.595.289 1.831.399.117.055.517.246.965.601H13v1h-1.74a3.8 3.8 0 0 1 .347.631c.087.209.4 1.205.4 1.832a4.468 4.468 0 0 1-4.463 4.463c-.182 0-.363-.016-.543-.038V15h8V1H7zm6 12h-1v-1h1v1zm0-9H9V3h4v1z"/></g><path class="st4" d="M7.501 11.997c-.513 0-1.062-.063-1.5-.261l-2.865 2.879s-.874.873-1.746 0c-.874-.873 0-1.746 0-1.746l2.938-2.851a3.896 3.896 0 0 1-.32-1.513 3.492 3.492 0 0 1 3.493-3.491c.511 0 1.062.071 1.5.27l-2.374 2.35L8.374 9.38l2.346-2.361c.198.438.273.977.273 1.487a3.493 3.493 0 0 1-3.492 3.491z" id="color_x5F_importance"/><path class="st5" d="M12 12h1v1h-1v-1zm-.74-6H13V5h-2.661c.31.247.642.581.921 1zM9 3v1h4V3H9z" id="icon_x5F_fg"/></svg>