<svg xmlns="http://www.w3.org/2000/svg" viewBox="0 0 16 16"><style>.st0{opacity:0}.st0,.st1{fill:#f6f6f6}.st2{fill:#424242}.st3{fill:#f0eff1}</style><g id="outline"><path class="st0" d="M0 0h16v16H0z"/><path class="st1" d="M1 0h15v15H1z"/></g><g id="icon_x5F_bg"><path class="st2" d="M2 1v13h13V1H2zm12 12H3V2h11v11z"/><path class="st2" d="M8 7.487L6.026 5.513h-1.5l1.5 1.5h-2v1h2l-1.5 1.5h1.5L8 7.538V12h1V3H8zM13.025 7.013h-2l1.5-1.5h-1.5l-2 2 2 2h1.5l-1.5-1.5h2z"/></g><path class="st3" d="M3 2v11h11V2H3zm6 10H8V7.538L6.026 9.513h-1.5l1.5-1.5h-2v-1h2l-1.5-1.5h1.5L8 7.487V3h1v9zm4.025-3.987h-2l1.5 1.5h-1.5l-2-2 2-2h1.5l-1.5 1.5h2v1z" id="icon_x5F_fg"/></svg>