<svg xmlns="http://www.w3.org/2000/svg" viewBox="0 0 16 16"><style>.icon-canvas-transparent{opacity:0;fill:#f6f6f6}.icon-vs-out{fill:#f6f6f6}.icon-vs-bg{fill:#424242}.icon-vs-fg{fill:#f0eff1}.icon-vs-action-green{fill:#388a34}</style><path class="icon-canvas-transparent" d="M16 0v16H0V0h16z" id="canvas"/><path class="icon-vs-out" d="M5 16V1h11v15H5z" id="outline"/><path class="icon-vs-fg" d="M7 14h7v-3H7v3zm5-2h1v1h-1v-1zm2-9v1H8V3h6zM7.864 7H14v1H7.452c.181-.311.32-.645.412-1zM2 4h4v2c0 1.103-.897 2-2 2s-2-.897-2-2V4z" id="iconFg"/><g id="iconBg"><path class="icon-vs-out" d="M7 2V0H1v2H0v4a3.98 3.98 0 0 0 2.5 3.701V12h3V9.701A3.98 3.98 0 0 0 8 6V2H7z"/><path class="icon-vs-bg" d="M8 6h7v3H6.63c.328-.286.604-.624.823-1H14V7H7.864C7.947 6.679 8 6.346 8 6zm4 7h1v-1h-1v1zM8 2v1h6v1H8v1h7V2H8zm-2 8h9v5H6v-5zm1 4h7v-3H7v3z"/></g><path class="icon-vs-action-green" d="M6 3V1H5v2H3V1H2v2H1v3a2.997 2.997 0 0 0 2.5 2.949V11h1V8.949A2.997 2.997 0 0 0 7 6V3H6zm0 3c0 1.103-.897 2-2 2s-2-.897-2-2V4h4v2z" id="colorAction"/></svg>