<svg xmlns="http://www.w3.org/2000/svg" viewBox="0 0 16 16"><style>.icon-vs-fg{fill:#f0eff1}.icon-vs-bg{fill:#424242}.icon-vs-out{fill:#f6f6f6}.icon-canvas-transparent{opacity:0;fill:#f6f6f6}</style><path class="icon-canvas-transparent" d="M16 16H0V0h16v16z" id="canvas"/><path class="icon-vs-out" d="M16 4v12H2v-5.536A5.98 5.98 0 0 1 0 6a5.999 5.999 0 1 1 11.652-2H16z" id="outline"/><path class="icon-vs-fg" d="M6.016 2a4 4 0 0 1 .771.078c.1.02.192.056.289.084.143.04.287.077.423.132.126.052.242.119.361.182.093.049.188.095.277.152.138.089.266.19.391.295.055.045.112.088.164.136.139.129.268.27.387.418.026.032.053.062.077.095.129.168.245.347.345.536l.026.048c.105.204.195.417.265.639l.004.011c.071.229.124.468.154.713H4.876l2.318-2.325-.707-.707-3.53 3.518 3.508 3.507.707-.707-2.278-2.286H9.95a4.081 4.081 0 0 1-.156.712l-.004.013a3.99 3.99 0 0 1-.265.635l-.027.05a3.99 3.99 0 0 1-.343.532c-.026.034-.053.066-.08.099a4.184 4.184 0 0 1-.385.414c-.053.049-.11.092-.165.137a3.957 3.957 0 0 1-.389.293c-.089.057-.185.103-.279.153-.118.063-.234.129-.359.18-.136.055-.28.093-.424.133-.096.027-.188.063-.287.083a4 4 0 0 1-.771.078c-2.201 0-3.984-1.798-3.984-4.016S3.815 2 6.016 2zm4.892 7.406l.015.015L13 11.498l-.001.001.001.001-1.5 1.5h-.016l-.742.742-.729-.729.014-.013H10l1-1H7v-.09c-.326.055-.659.09-1 .09a5.975 5.975 0 0 1-2-.349V14h10V6h-2a5.921 5.921 0 0 1-1.092 3.406z" id="iconFg"/><path class="icon-vs-bg" d="M10.014 13.014L11.027 12H7v-.09A5.956 5.956 0 0 0 9.31 11h1.735l-.783-.783a6.07 6.07 0 0 0 .661-.796L13 11.498l-.729.729-.007-.007-1.522 1.522-.728-.728zM11.91 5c.055.326.09.659.09 1h2v8H4v-2.349a5.968 5.968 0 0 1-1-.46V15h12V5h-3.09zM6 11A5 5 0 1 1 6 1a5 5 0 0 1 0 10zm.016-.969c2.029 0 3.686-1.535 3.934-3.512H4.894l2.278 2.285-.707.708-3.508-3.507 3.53-3.518.707.707-2.318 2.325H9.95C9.705 3.539 8.047 2 6.016 2 3.815 2 2.031 3.798 2.031 6.016s1.784 4.015 3.985 4.015z" id="iconBg"/></svg>