<svg xmlns="http://www.w3.org/2000/svg" viewBox="0 0 16 16"><style>.st0{opacity:0}.st0,.st1{fill:#f6f6f6}.st2{fill:#424242}.st3{fill:#f0eff1}.st4{fill:#fc0}</style><g id="outline"><path class="st0" d="M0 0h16v16H0z"/><path class="st1" d="M8.309 15.5l-.75-1.5 2.25-4.5H4.5v-1h-4v-4h4v-1h1v-3h4v3h1v1h4v4h-1.809l2.75 5.5-.75 1.5z"/><path class="st1" d="M9 1v3h1v1h4v3H11.882l.724 1.447L14.882 14l-.5 1H8.618l-.5-1 1.776-3.553L10.618 9H5V8H1V5h4V4h1V1h3m1-1H5v3H4v1H0v5h4v1h5l-2 4 1 2h7l1-2-2.5-5H15V4h-4V3h-1V0z"/></g><path class="st2" d="M9.5 9l1-2H10V6h3v1h-.5l.5 1h1V5h-4V4H9V1H6v3H5v1H1v3h4v1h4.5zM7 2h1v2H7V2zM2 7V6h3v1H2z" id="icon_x5F_bg"/><path class="st3" d="M8 4H7V2h1v2zM5 6H2v1h3V6zm5 0v1h3V6h-3z" id="icon_x5F_fg"/><path class="st4" d="M11.891 8.016h-.781l-3.016 6 .515.984h5.766l.484-1-2.968-5.984zM12 14h-1v-1h1v1zm0-2h-1v-2h1v2z" id="not_x5F_bg"/><path d="M12 12h-1v-2h1v2zm0 1h-1v1h1v-1z" id="not_x5F_fg"/></svg>