<svg xmlns="http://www.w3.org/2000/svg" viewBox="0 0 16 16"><style>.icon-canvas-transparent{opacity:0;fill:#f6f6f6}.icon-vs-out{fill:#f6f6f6}.icon-vs-fg{fill:#f0eff1}.icon-folder{fill:#dcb67a}.icon-vs-action-green{fill:#388a34}</style><path class="icon-canvas-transparent" d="M0 0h16v16H0V0z" id="canvas"/><path class="icon-vs-out" d="M15 4.5v8c0 .827-.677 1.5-1.504 1.5H6v2H2v-2h-.5C.673 14 0 13.327 0 12.5v-10C0 1.673.673 1 1.5 1h8.11l1 2h2.886C14.323 3 15 3.673 15 4.5z" id="outline"/><path class="icon-folder" d="M2.09 13H1.5a.5.5 0 0 1-.5-.5v-.364c.307.348.675.639 1.09.864zm11.406-9H9.992l-1-2H1.5a.5.5 0 0 0-.5.5V4h1V3h6.374l.5 1H7v2h1v3.5A3.974 3.974 0 0 1 5.91 13h7.586a.503.503 0 0 0 .504-.5v-8c0-.276-.227-.5-.504-.5z" id="iconBg"/><path class="icon-vs-action-green" d="M6 7V5H5v2H3V5H2v2H1v2.5a2.999 2.999 0 0 0 2.5 2.95V15h1v-2.55A2.999 2.999 0 0 0 7 9.5V7H6zm0 2.5c0 1.103-.898 2-2 2s-2-.897-2-2V8h4v1.5z" id="colorAction"/><path class="icon-vs-fg" d="M2 3h6.374l.5 1H2V3zm4 6.5c0 1.103-.898 2-2 2s-2-.897-2-2V8h4v1.5z" id="iconFg"/></svg>