<svg xmlns="http://www.w3.org/2000/svg" viewBox="0 0 16 16"><style>.icon-canvas-transparent{opacity:0;fill:#f6f6f6}.icon-vs-out{fill:#f6f6f6}.icon-vs-fg{fill:#f0eff1}.icon-vs-action-green{fill:#388a34}.icon-vs-bg{fill:#424242}</style><path class="icon-canvas-transparent" d="M16 0v16H0V0h16z" id="canvas"/><path class="icon-vs-out" d="M16 3v13H5v-1H4v-3H2.5V9.701A3.98 3.98 0 0 1 0 6V2h1V0h6v2h1v1h8z" id="outline"/><g id="iconFg"><path class="icon-vs-fg" d="M2 4v2c0 1.103.897 2 2 2s2-.897 2-2V4H2zM14 5v9H7V8.636C7.624 7.929 8 7.006 8 6v2h5V6H8V5h6z"/></g><path class="icon-vs-bg" d="M13 8H8V6h5v2zM8 4v1h6v9H7V8.636c-.406.459-.914.83-1.5 1.065V10H6v1h-.5v1H6v1H5v1h1v1h9V4H8z" id="iconBg"/><g id="colorAction"><path class="icon-vs-action-green" d="M6 3V1H5v2H3V1H2v2H1v3a2.997 2.997 0 0 0 2.5 2.949V11h1V8.949A2.997 2.997 0 0 0 7 6V3H6zm0 3c0 1.103-.897 2-2 2s-2-.897-2-2V4h4v2z"/></g></svg>