<svg xmlns="http://www.w3.org/2000/svg" viewBox="0 0 16 16"><style>.icon-canvas-transparent{opacity:0;fill:#f6f6f6}.icon-vs-out{fill:#f6f6f6}.icon-vs-fg{fill:#f0eff1}.icon-vs-blue{fill:#1ba1e2}.icon-vs-action-green{fill:#388a34}</style><path class="icon-canvas-transparent" d="M16 16H0V0h16v16z" id="canvas"/><path class="icon-vs-out" d="M16 5.905v7.189C16 14.859 14.037 16 11 16c-3.038 0-5-1.141-5-2.905V9.456c-.16.092-.326.175-.5.245V12h-3V9.701A3.98 3.98 0 0 1 0 6V2h1V0h6v2h1v1.493C8.804 3.177 9.817 3 11 3c3.037 0 5 1.141 5 2.905z" id="outline"/><path class="icon-vs-fg" d="M14 6c0 .552-1.343 1-3 1s-3-.448-3-1 1.343-1 3-1 3 .448 3 1zM2 6c0 1.103.897 2 2 2s2-.897 2-2V4H2v2z" id="iconFg"/><path class="icon-vs-blue" d="M15 5.905v7.19C15 14.404 12.926 15 11 15c-1.926 0-4-.596-4-1.905V8.636C7.624 7.929 8 7.006 8 6c0 .552 1.343 1 3 1s3-.448 3-1-1.343-1-3-1-3 .448-3 1V4.603C8.782 4.199 9.908 4 11 4c1.926 0 4 .596 4 1.905z" id="iconBg"/><g id="colorAction"><path class="icon-vs-action-green" d="M6 3V1H5v2H3V1H2v2H1v3a2.997 2.997 0 0 0 2.5 2.949V11h1V8.949A2.997 2.997 0 0 0 7 6V3H6zm0 3c0 1.103-.897 2-2 2s-2-.897-2-2V4h4v2z"/></g></svg>