<svg xmlns="http://www.w3.org/2000/svg" viewBox="0 0 16 16"><style>.icon-canvas-transparent{opacity:0;fill:#f6f6f6}.icon-vs-out{fill:#f6f6f6}.icon-vs-bg{fill:#424242}.icon-vs-fg{fill:#f0eff1}.icon-vs-action-green{fill:#388a34}</style><path class="icon-canvas-transparent" d="M16 16H0V0h16v16z" id="canvas"/><path class="icon-vs-out" d="M16 1v14H5.5v1h-3v-1H0V1h16z" id="outline"/><path class="icon-vs-bg" d="M15 2v12H5.5v-.299A3.978 3.978 0 0 0 6.63 13H14V5H7V4H1V2h14z" id="iconBg"/><path class="icon-vs-fg" d="M14 5v8H6.63A3.968 3.968 0 0 0 8 10V6H7V5h7zM2 10c0 1.103.897 2 2 2s2-.897 2-2V8H2v2z" id="iconFg"/><g id="colorImportance"><path class="icon-vs-action-green" d="M6 7V5H5v2H3V5H2v2H1v3a2.997 2.997 0 0 0 2.5 2.949V15h1v-2.051A2.997 2.997 0 0 0 7 10V7H6zm0 3c0 1.103-.897 2-2 2s-2-.897-2-2V8h4v2z"/></g></svg>