<svg xmlns="http://www.w3.org/2000/svg" viewBox="0 0 16 16"><style>.icon-canvas-transparent{opacity:0;fill:#f6f6f6}.icon-vs-out{fill:#f6f6f6}.icon-vs-fg{fill:#f0eff1}.icon-folder{fill:#dcb67a}.icon-vs-action-green{fill:#388a34}</style><path class="icon-canvas-transparent" d="M0 0h16v16H0V0z" id="canvas"/><path class="icon-vs-out" d="M0 2.969v9c0 .617.227 1.102.57 1.435.57.543 1.43.565 1.43.565h11.677L16 8.165V6.969h-1v-2c0-1.299-1.03-2-2-2h-2.884l-1-2H2c-.995 0-2 .697-2 2z" id="outline"/><path class="icon-vs-fg" d="M2 12.956l.025.013L2 13v-.044zM9 5L8 3H2v1h5v2h1v2h5V5H9zM2 9.5c0 1.103.898 2 2 2s2-.897 2-2V8H2v1.5z" id="iconFg"/><path class="icon-folder" d="M1 3v9c0 .97.94.984.997.984H2V3h6l1 2h4v3H4l-2 5h11l2-5h-1V5c0-1-1.236-1-1-1H9.5l-1-2H2S1 2 1 3z" id="iconBg"/><g id="colorImportance"><path class="icon-vs-out" d="M7 6V4H1v2H0v3.5a3.98 3.98 0 0 0 2.5 3.701V16h3v-2.799A3.98 3.98 0 0 0 8 9.5V6H7z"/><path class="icon-vs-action-green" d="M6 7V5H5v2H3V5H2v2H1v2.5a2.999 2.999 0 0 0 2.5 2.95V15h1v-2.55A2.999 2.999 0 0 0 7 9.5V7H6zm0 2.5c0 1.103-.898 2-2 2s-2-.897-2-2V8h4v1.5z"/></g></svg>