<svg xmlns="http://www.w3.org/2000/svg" viewBox="0 0 16 16"><style>.icon-canvas-transparent{opacity:0;fill:#f6f6f6}.icon-vs-out{fill:#f6f6f6}.icon-vs-bg{fill:#424242}</style><path class="icon-canvas-transparent" d="M16 16H0V0h16v16z" id="canvas"/><path class="icon-vs-out" d="M16 14H1V1h15v13z" id="outline"/><path class="icon-vs-bg" d="M11.515 7.504L9.548 9.489l-.707-.707.789-.789H7.376l.789.789-.707.707L5.487 7.5l1.967-1.986.707.707-.789.79h2.255l-.79-.789.707-.707 1.971 1.989zM2 9h1V8H2v1zm0 4h1v-1H2v1zm0-2h1v-1H2v1zm0-4h1V6H2v1zm0-4h1V2H2v1zm0 2h1V4H2v1zm7-3H8v1h1V2zM4 13h1v-1H4v1zm7-11h-1v1h1V2zM5 2H4v1h1V2zm2 0H6v1h1V2zm1 8H5V5h3V4H4v7h4v-1zm-2 3h1v-1H6v1zm8-4h1V8h-1v1zm0 2h1v-1h-1v1zm0-4h1V6h-1v1zm0-5v1h1V2h-1zm0 3h1V4h-1v1zm0 8h1v-1h-1v1zm-4 0h1v-1h-1v1zm-2 0h1v-1H8v1zm4-10h1V2h-1v1zm0 10h1v-1h-1v1zM9 5h3v5H9v1h4V4H9v1z" id="iconBg"/></svg>