<svg xmlns="http://www.w3.org/2000/svg" viewBox="0 0 16 16"><style>.st0{opacity:0}.st0,.st1{fill:#f6f6f6}.st2{fill:none}.st3{fill:#424242}.st4{fill:#f0eff1}</style><g id="outline"><path class="st0" d="M0 0h16v16H0z"/><path class="st1" d="M12 4V3h-1V0H6v3H5v1H1v5h2.12a4.759 4.759 0 0 0-.451.6l-.605-.009-.747 2.394h.543l-.372 1.328a1.469 1.469 0 0 0-1.007.327 1.284 1.284 0 0 0 .067 2.056c.275.204.618.304 1.047.304.511 0 .977-.128 1.385-.379.389-.239.725-.596 1.001-1.065.022-.038.044-.079.066-.121a1.406 1.406 0 0 0 1.059.445c.257 0 .503-.05.741-.152.2-.089.401-.226.624-.429.117.137.249.252.394.34.26.16.565.241.907.241.347 0 .682-.104.984-.3.322-.201.621-.509.915-.939l.634-.926-1.114-.587A1.338 1.338 0 0 0 9.656 10H12V9h4V4h-4z"/></g><g id="icon_x5F_bg"><path class="st2" d="M3 6h3v1H3zM8 2h1v2H8zM11 6h3v1h-3z"/><path class="st3" d="M4.223 10.602c.148-.554.345-.959.591-1.215.148-.159.293-.238.436-.238.029 0 .052.006.07.021a.073.073 0 0 1 .028.06c0 .021-.02.063-.061.125a.323.323 0 0 0-.059.173.25.25 0 0 0 .094.196.345.345 0 0 0 .237.082c.103 0 .19-.033.259-.1a.356.356 0 0 0 .105-.271.378.378 0 0 0-.157-.314C5.661 9.04 5.493 9 5.263 9c-.36 0-.687.096-.979.289-.293.191-.572.51-.836.954-.091.153-.178.252-.259.296-.082.043-.212.064-.392.063l-.12.383h.501l-.735 2.622a8.678 8.678 0 0 1-.25.797.95.95 0 0 1-.284.374.278.278 0 0 1-.181.062.087.087 0 0 1-.052-.017l-.018-.023c0-.011.018-.032.055-.066.036-.034.055-.087.055-.155a.241.241 0 0 0-.087-.19c-.057-.051-.14-.077-.247-.077a.47.47 0 0 0-.314.1.286.286 0 0 0-.12.231c0 .097.048.18.145.251.095.071.245.106.45.106.323 0 .611-.076.861-.231.252-.155.47-.392.658-.714.186-.321.379-.84.576-1.555l.422-1.516h.507l.126-.383h-.522z"/><path class="st3" d="M8.589 10.521a.755.755 0 0 0-.333.076c-.104.053-.236.163-.398.335a8.339 8.339 0 0 0-.533.666 3.099 3.099 0 0 0-.483-1.076h-1.53v.56c.094-.018.422-.265.486-.265.126 0 .228.049.31.148.13.153.311.619.541 1.397-.181.221-.523.592-.59.66-.11.109-.203.18-.273.213a.436.436 0 0 1-.188.039.734.734 0 0 1-.26-.079.58.58 0 0 0-.219-.053.433.433 0 0 0-.303.109.35.35 0 0 0-.118.274c0 .106.036.19.11.257a.424.424 0 0 0 .297.098c.12 0 .233-.023.338-.067.105-.047.237-.144.397-.295.16-.149.599-.614.879-.939.108.311.316.764.396.904.079.14.169.242.272.305a.715.715 0 0 0 .383.093c.149 0 .3-.048.453-.148.202-.126.409-.346.621-.656l-.129-.067c-.146.183-.252.298-.321.344a.304.304 0 0 1-.163.043c-.074 0-.147-.043-.22-.129-.123-.144-.399-.77-.603-1.427.182-.293.336-.484.46-.574a.493.493 0 0 1 .289-.098c.038 0 .108.012.207.037.101.025.188.037.265.037a.374.374 0 0 0 .266-.1.338.338 0 0 0 .105-.258.347.347 0 0 0-.105-.266c-.071-.065-.173-.098-.306-.098zM11 5V4h-1V1H7v3H6v1H2v3h4v.139c.136.053.27.107.381.194.226.173.381.405.466.667H11V8h4V5h-4zM6 7H3V6h3v1zm3-3H8V2h1v2zm5 3h-3V6h3v1z"/></g><path class="st4" d="M9 4H8V2h1v2zM6 6H3v1h3V6zm5 0v1h3V6h-3z" id="icon_x5F_fg"/></svg>