<svg xmlns="http://www.w3.org/2000/svg" viewBox="0 0 16 16"><style>.st0{opacity:0}.st0,.st1{fill:#f6f6f6}.st2{fill:#424242}.st3{fill:#f0eff1}.st4{fill:#e51400}</style><g id="outline"><path class="st0" d="M0 0h16v16H0z"/><path class="st1" d="M16 7.172l-1-1V4h-4V3h-1V0H5v3H4v1H0v5h4v1h3.172l1 1-3 3 2 2h1.656L11 13.828 13.172 16h1.656L16 14.828v-1.656L13.828 11 16 8.828z"/></g><path class="st2" d="M6.172 9l-1-1L8 5.172 10.828 8h.344l1-1H10V6h3v.172l1-1V5h-4V4H9V1H6v3H5v1H1v3h4v1h1.172zM7 2h1v2H7V2zM2 7V6h3v1H2z" id="icon_x5F_bg"/><path class="st3" d="M12.172 7H10V6h3v.172L12.172 7zM2 7h3V6H2v1zm6-5H7v2h1V2z" id="icon_x5F_fg"/><path class="st4" d="M6.586 8L8 6.586l3 3 3-3L15.414 8l-3 3 3 3L14 15.414l-3-3-3 3L6.586 14l3-3-3-3z" id="not_x5F_bg"/></svg>