<svg xmlns="http://www.w3.org/2000/svg" viewBox="0 0 16 16"><style>.icon-canvas-transparent{opacity:0;fill:#f6f6f6}.icon-vs-out{fill:#f6f6f6}.icon-vs-bg{fill:#424242}.icon-vs-fg{fill:#f0eff1}.icon-vs-action-green{fill:#388a34}</style><path class="icon-canvas-transparent" d="M16 0v16H0V0h16z" id="canvas"/><path class="icon-vs-out" d="M16 14.901V16H0v-1.099l.572-2.859A3.97 3.97 0 0 1 0 10V6h1V4h3V0h8v9h2.819L16 14.901z" id="outline"/><path class="icon-vs-fg" d="M9 10h1v1H9v-1zM6 2v1h4V2H6zm1 3h3V4H7v1zm-5 5c0 1.103.897 2 2 2s2-.897 2-2V8H2v2z" id="iconFg"/><path class="icon-vs-bg" d="M15 15H5.5v-1.299A3.978 3.978 0 0 0 6.63 13H12v-3h2l1 5zM1 15h1.5v-1.299a3.964 3.964 0 0 1-1.105-.678L1 15zM6 4H5V1h6v11H7.452A3.966 3.966 0 0 0 8 10V6H7V5h3V4H6zm4 6H9v1h1v-1zM6 3h4V2H6v1z" id="iconBg"/><g id="colorAction"><path class="icon-vs-action-green" d="M6 7V5H5v2H3V5H2v2H1v3a2.997 2.997 0 0 0 2.5 2.949V15h1v-2.051A2.997 2.997 0 0 0 7 10V7H6zm0 3c0 1.103-.897 2-2 2s-2-.897-2-2V8h4v2z"/></g></svg>