<svg xmlns="http://www.w3.org/2000/svg" viewBox="0 0 16 16"><style>.icon-canvas-transparent{opacity:0;fill:#f6f6f6}.icon-vs-out{fill:#f6f6f6}.icon-vs-blue{fill:#1ba1e2}.icon-vs-action-green{fill:#388a34}</style><path class="icon-canvas-transparent" d="M16 0v16H0V0h16z" id="canvas"/><path class="icon-vs-out" d="M16 9.5A6.5 6.5 0 0 1 3.5 12h-1V9.701A3.98 3.98 0 0 1 0 6V2h1V0h6v2h1v1.181A6.504 6.504 0 0 1 9.5 3 6.5 6.5 0 0 1 16 9.5z" id="outline"/><path class="icon-vs-blue" d="M9.5 4.05c-.521 0-1.023.078-1.5.215V6a3.968 3.968 0 0 1-1.259 2.896c-.012.198-.024.396-.024.604 0 .529.046 1.023.111 1.5H5.5v1h-.837A5.452 5.452 0 0 0 9.5 14.95a5.456 5.456 0 0 0 5.45-5.45A5.456 5.456 0 0 0 9.5 4.05zM13.295 7H11.98c-.164-.648-.39-1.21-.667-1.668A4.583 4.583 0 0 1 13.295 7zM9.5 4.95c.574 0 1.185.782 1.551 2.05H7.949c.366-1.268.977-2.05 1.551-2.05zM5.705 12H7.02c.164.648.39 1.21.667 1.668A4.583 4.583 0 0 1 5.705 12zM9.5 14.05c-.574 0-1.185-.782-1.551-2.05h3.102c-.366 1.268-.977 2.05-1.551 2.05zM7.737 11c-.071-.465-.12-.96-.12-1.5s.049-1.035.121-1.5h3.525c.071.465.12.96.12 1.5s-.049 1.035-.12 1.5H7.737zm3.577 2.668c.277-.458.503-1.019.667-1.668h1.314a4.586 4.586 0 0 1-1.981 1.668zM12.172 11c.065-.477.111-.971.111-1.5 0-.528-.046-1.023-.111-1.5h1.603c.166.472.274.972.274 1.5s-.108 1.028-.274 1.5h-1.603z" id="iconBg"/><g id="colorAction"><path class="icon-vs-action-green" d="M6 3V1H5v2H3V1H2v2H1v3a2.997 2.997 0 0 0 2.5 2.949V11h1V8.949A2.997 2.997 0 0 0 7 6V3H6zm0 3c0 1.103-.897 2-2 2s-2-.897-2-2V4h4v2z"/></g></svg>