<svg xmlns="http://www.w3.org/2000/svg" viewBox="0 0 16 16" enable-background="new 0 0 16 16"><style type="text/css">.icon-canvas-transparent{opacity:0;fill:#F6F6F6;} .icon-vs-out{fill:#F6F6F6;} .icon-vs-bg{fill:#424242;} .icon-vs-fg{fill:#F0EFF1;}</style><path class="icon-canvas-transparent" d="M16 16h-16v-16h16v16z" id="canvas"/><path class="icon-vs-out" d="M13.879 0l-2.214 2.214c-.487-.197-1.019-.302-1.554-.302-1.066 0-2.094.415-2.818 1.139l-2.828 2.827c-.755.755-1.172 1.76-1.172 2.829 0 .54.109 1.068.32 1.56l-2.331 2.33 2.121 2.121 2.331-2.331c.491.211 1.019.32 1.559.32 1.068 0 2.072-.416 2.828-1.172l2.828-2.828c1.173-1.173 1.479-2.909.85-4.385l2.201-2.2v-.264l-1.858-1.858h-.263z" id="outline"/><path class="icon-vs-fg" d="M8.707 10.121c-.756.756-2.072.756-2.828 0-.378-.378-.586-.88-.586-1.414s.208-1.036.586-1.414l1.061-1.061 2.828 2.828-1.061 1.061zm2.828-2.828l-1.061 1.061-2.828-2.829 1.061-1.061c.756-.755 2.072-.755 2.828 0 .78.78.78 2.049 0 2.829z" id="iconFg"/><path class="icon-vs-bg" d="M14.718 1.99l-.707-.707-2.16 2.159c-1.155-.798-2.837-.698-3.851.315l-2.828 2.829c-.567.566-.879 1.32-.879 2.121 0 .631.2 1.229.56 1.733l-2.156 2.156.707.707 2.156-2.157c.504.359 1.102.56 1.733.56.801 0 1.555-.313 2.121-.879l2.828-2.827c1.049-1.049 1.15-2.683.318-3.853l2.158-2.157zm-6.011 8.131c-.756.756-2.072.756-2.828 0-.378-.378-.586-.88-.586-1.414s.208-1.036.586-1.414l1.061-1.061 2.828 2.828-1.061 1.061zm2.828-2.828l-1.061 1.061-2.828-2.829 1.061-1.061c.756-.755 2.072-.755 2.828 0 .78.78.78 2.049 0 2.829z" id="iconBg"/></svg>