<svg xmlns="http://www.w3.org/2000/svg" viewBox="0 0 16 16"><style>.st0{opacity:0}.st0,.st1{fill:#f6f6f6}.st2{fill:#424242}.st3{fill:#00539c}.st4{fill:#f0eff1}</style><g id="outline"><path class="st0" d="M0 0h16v16H0z"/><path class="st1" d="M15.345 9.157c-.397-.563-1.015-.925-1.835-1.078C13.08 8 12.712 8 12.567 8c-.095 0-.307 0-.567.028V1.586L10.414 0H1.586L0 1.586v7.828L1.586 11h7.495c-.021.155-.053.3-.064.463-.021.311-.02.537-.02.537v4h7l-.001-3.959c.013-.31.042-1.906-.651-2.884z"/></g><g id="icon_x5F_bg"><path class="st2" d="M9.283 10c.016-.05.028-.091.043-.129.168-.451.402-.807.696-1.056l.045-.038.083-.057-.004.001a3.316 3.316 0 0 1 .401-.259c.127-.071.285-.138.452-.2V2l-1-1H2L1 2v7l1 1h7.283zM2 8.586V2.414L2.414 2h7.172l.414.414v6.172L9.586 9H2.414L2 8.586zM11.019 11.531c.059-.729.334-1.541 1.575-1.541 1.249 0 1.391.795 1.404 1.541h.966C14.879 10.412 14.82 9 12.594 9c-2.396 0-2.445 1.406-2.576 2.531h1.001zM14 12h-4v3h5v-3h-1zm-1 2h-1v-1h1v1z"/></g><g id="color_x5F_importance_1_"><path class="st3" d="M4 4h4v1H4zM4 6h4v1H4z"/></g><g id="not_x5F_fg"><path class="st4" d="M9.586 2H2.414L2 2.414v6.172L2.414 9h7.172L10 8.586V2.414L9.586 2zM8 7H4V6h4v1zm0-2H4V4h4v1zM12 13h1v1h-1z"/></g></svg>