<svg xmlns="http://www.w3.org/2000/svg" viewBox="0 0 16 16"><style>.icon-canvas-transparent{opacity:0;fill:#f6f6f6}.icon-vs-out{fill:#f6f6f6}.icon-vs-bg{fill:#424242}.icon-vs-fg{fill:#f0eff1}.icon-vs-action-blue{fill:#00539c}</style><path class="icon-canvas-transparent" d="M16 16H0V0h16v16z" id="canvas"/><path class="icon-vs-out" d="M12 3.586v7.828L10.414 13H1.586L0 11.414V3.586L1.586 2h8.828L12 3.586z" id="outline"/><path class="icon-vs-fg" d="M9.586 4H2.414L2 4.414v6.172l.414.414h7.172l.414-.414V4.414L9.586 4zM8 9H4V8h4v1zm0-2H4V6h4v1z" id="iconFg"/><g id="iconBg"><path class="icon-vs-bg" d="M10 3H2L1 4v7l1 1h8l1-1V4l-1-1zm0 7.586L9.586 11H2.414L2 10.586V4.414L2.414 4h7.172l.414.414v6.172z"/><path class="icon-vs-action-blue" d="M4 6h4v1H4V6zm0 3h4V8H4v1z"/></g></svg>