<svg xmlns="http://www.w3.org/2000/svg" viewBox="0 0 16 16"><style>.st0{opacity:0}.st0,.st1{fill:#f6f6f6}.st2{fill:#424242}.st3{fill:#00539c}.st4{fill:#f0eff1}</style><g id="outline"><path class="st0" d="M0 0h16v16H0z"/><path class="st1" d="M12 9V1.586L10.414 0H1.586L0 1.586v7.828L1.586 11H9v5h7V9z"/></g><path class="st2" d="M9 9H2.414L2 8.586V2.414L2.414 2h7.172l.414.414v6.172L9.586 9H11V2l-1-1H2L1 2v7l1 1h7z" id="icon_x5F_bg"/><g id="color_x5F_importance_1_"><path class="st3" d="M4 4h4v1H4zM4 6h4v1H4z"/></g><path class="st4" d="M9.586 2H2.414L2 2.414v6.172L2.414 9h7.172L10 8.586V2.414L9.586 2zM8 7H4V6h4v1zm0-2H4V4h4v1z" id="icon_x5F_fg"/><path class="st2" d="M10 10v5h5v-5h-5zm4 3l-1 1v-1.5L11.5 14l-.5-.5 1.5-1.5H11l1-1h2v2z" id="not_x5F_bg"/><path class="st4" d="M14 11v2l-1 1v-1.5L11.5 14l-.5-.5 1.5-1.5H11l1-1z" id="not_x5F_fg"/></svg>