<svg xmlns="http://www.w3.org/2000/svg" viewBox="0 0 16 16"><style>.st0{opacity:0}.st0,.st1{fill:#f6f6f6}.st2{fill:#424242}.st3{fill:#00539c}.st4{fill:#f0eff1}</style><g id="outline"><path class="st0" d="M0 0h16v16H0z"/><path class="st1" d="M12.043 8.004L12.048 8H12V1.586L10.414 0H1.586L0 1.586v7.828L1.586 11h6.556A3.926 3.926 0 0 0 8 12a4 4 0 0 0 8 0 3.999 3.999 0 0 0-3.957-3.996z"/></g><g id="icon_x5F_bg"><path class="st2" d="M9.38 9H2.414L2 8.586V2.414L2.414 2h7.172l.414.414v6.141a3.942 3.942 0 0 1 1-.413V2l-1-1H2L1 2v7l1 1h6.555c.22-.378.497-.714.825-1zM12 9c-1.654 0-3 1.346-3 3s1.346 3 3 3 3-1.346 3-3-1.346-3-3-3zm1.587 1.455l-.042-.042a.416.416 0 0 0 .042.042zM9.783 12c0-1.223.994-2.217 2.217-2.217.47 0 .904.148 1.264.398l-3.082 3.082A2.202 2.202 0 0 1 9.783 12zm.63 1.545l.042.042a.416.416 0 0 0-.042-.042zm1.587.672c-.47 0-.904-.148-1.264-.398l3.082-3.082c.25.359.398.794.398 1.264A2.217 2.217 0 0 1 12 14.217z"/></g><g id="color_x5F_importance_1_"><path class="st3" d="M4 4h4v1H4zM4 6h4v1H4z"/></g><g id="icon_x5F_fg"><path class="st4" d="M10 8.555V2.414L9.586 2H2.414L2 2.414v6.172L2.414 9H9.38a3.91 3.91 0 0 1 .62-.445zM8 7H4V6h4v1zM4 5V4h4v1H4zM9.783 12c0-1.223.994-2.217 2.217-2.217.47 0 .904.148 1.264.398l-3.082 3.082A2.202 2.202 0 0 1 9.783 12zM12 14.217c-.47 0-.904-.148-1.264-.398l3.082-3.082c.25.359.398.794.398 1.264A2.217 2.217 0 0 1 12 14.217z"/></g></svg>