<svg xmlns="http://www.w3.org/2000/svg" viewBox="0 0 16 16"><style>.st0{opacity:0}.st0,.st1{fill:#f6f6f6}.st2{fill:#424242}.st3{fill:#f0eff1}.st4{fill:#e51400}.st5{fill:#fff}</style><g id="outline"><path class="st0" d="M0 0h16v16H0z"/><path class="st1" d="M12 7.05V3.556L8.061 0 1.845.004C1.104.071 0 .665 0 2.028v9.948C0 13.264 1.016 13.981 1.994 14H7.76A4.5 4.5 0 0 0 16 11.5c0-2.314-1.753-4.198-4-4.45z"/></g><g id="icon_x5F_bg"><path class="st2" d="M5.608 7H4.594l-.431.834a1.353 1.353 0 0 0-.07.148L4.086 8h-.107l-.004-.008C3.952 7.942 3.478 7 3.478 7H2.405l.952 1.505L2.344 10h1.063s.479-.895.499-.941c.016-.039.08-.014.115-.021l.007.018c.022.046.508.944.508.944h1.066l-.984-1.547L5.608 7z"/><path class="st2" d="M7.05 12H2V2h5v3h3v2.275a4.472 4.472 0 0 1 1-.225V4L7.676 1H1.935S1 1.084 1 2.028v9.948C1 12.979 1.994 13 1.994 13h5.281a4.472 4.472 0 0 1-.225-1z"/><path class="st2" d="M7.76 9H6v1h1.275c.126-.354.28-.693.485-1z"/></g><path class="st3" d="M7 11.5c0-.529.108-1.028.275-1.5H6V9h1.76A4.501 4.501 0 0 1 10 7.275V5H7V2H2v10h5.05c-.018-.166-.05-.329-.05-.5zM5.602 10H4.536l-.44-.809c-.014-.027-.177-.164-.19-.133a.879.879 0 0 1-.062.123L3.407 10H2.344l1.013-1.495L2.405 7h1.073l.427.841c.023.05.185.148.188.142.021-.053.045-.102.07-.148L4.594 7h1.014l-.99 1.453L5.602 10z" id="icon_x5F_fg"/><path class="st4" d="M11.5 8a3.5 3.5 0 1 0 0 7 3.5 3.5 0 0 0 0-7zm1.854 4.646l-.707.707-1.147-1.146-1.146 1.147-.707-.707 1.147-1.146-1.147-1.146.707-.707 1.146 1.147 1.146-1.147.707.707-1.146 1.145 1.147 1.146z" id="not_x5F_bg"/><path class="st5" d="M13.354 10.354l-.708-.708-1.146 1.147-1.146-1.147-.708.708 1.147 1.146-1.147 1.146.708.708 1.146-1.147 1.146 1.147.708-.708-1.147-1.146z" id="not_x5F_fg"/></svg>