<svg xmlns="http://www.w3.org/2000/svg" viewBox="0 0 16 16"><style>.st0{opacity:0}.st0,.st1{fill:#f6f6f6}.st2{fill:#424242}.st3{fill:#f0eff1}</style><g id="outline"><path class="st0" d="M0 0h16v16H0z"/><path class="st1" d="M1 0h15v15H1z"/></g><g id="icon_x5F_bg"><path class="st2" d="M2 1v13h13V1H2zm12 12H3V2h11v11z"/><path class="st2" d="M5 3h7v1H5zM5 8h3V5H5v3zm1-2h1v1H6V6zM9 8h3V5H9v3zm1-2h1v1h-1V6zM5 12h3V9H5v3zm1-2h1v1H6v-1zM9 12h3V9H9v3zm1-2h1v1h-1v-1z"/></g><g id="icon_x5F_fg"><path class="st3" d="M10 6h1v1h-1zM6 10h1v1H6zM10 10h1v1h-1z"/><path class="st3" d="M3 2v11h11V2H3zm5 10H5V9h3v3zm0-4H5V5h3v3zm4 4H9V9h3v3zm0-4H9V5h3v3zm0-4H5V3h7v1z"/><path class="st3" d="M6 6h1v1H6z"/></g></svg>