<svg xmlns="http://www.w3.org/2000/svg" viewBox="0 0 16 16"><style>.icon-canvas-transparent{opacity:0;fill:#f6f6f6}.icon-vs-out{fill:#f6f6f6}.icon-vs-bg{fill:#424242}</style><path class="icon-canvas-transparent" d="M16 0v16H0V0h16z" id="canvas"/><path class="icon-vs-out" d="M16 2.121L12.121 6H14v3H9v5H6v-1.879L2.121 16h-.535L0 14.414v-.535L3.879 10H2V7h5V2h3v1.879L13.879 0h.535L16 1.586v.535z" id="outline"/><path class="icon-vs-bg" d="M3 8h5v5H7V9.707l-5.146 5.146-.707-.707L6.293 9H3V8zm11.854-6.146l-.707-.707L9 6.293V3H8v5h5V7H9.707l5.147-5.146z" id="iconBg"/></svg>