<svg xmlns="http://www.w3.org/2000/svg" viewBox="0 0 16 16"><style>.st0{opacity:0}.st0,.st1{fill:#f6f6f6}.st2{fill:none}.st3{fill:#424242}.st4{fill:#f0eff1}</style><g id="outline"><path class="st0" d="M0 0h16v16H0z"/><path class="st1" d="M2.586 16L0 13.414V2.586L2.586 0h10.828L16 2.586v10.828L13.414 16H2.586z"/></g><g id="icon_x5F_bg"><path class="st2" d="M3.414 2L2 3.414v9.172L3.414 14h9.172L14 12.586V3.414L12.586 2H3.414zM10 9c-.571 0-1.1-.168-1.554-.446L8 9l1 1-1 1-1-1-1 1 1 1-1 1-1-1-1 1-1-1 4.446-4.446A2.965 2.965 0 0 1 7 6a3 3 0 1 1 3 3z"/><circle class="st2" cx="10" cy="6" r="1"/><path class="st3" d="M10 3a3 3 0 0 0-3 3c0 .571.168 1.1.446 1.554L3 12l1 1 1-1 1 1 1-1-1-1 1-1 1 1 1-1-1-1 .446-.446C8.9 8.832 9.429 9 10 9a3 3 0 0 0 0-6zm0 4a1 1 0 1 1 0-2 1 1 0 0 1 0 2z"/><path class="st3" d="M13 1H3L1 3v10l2 2h10l2-2V3l-2-2zm1 11.586L12.586 14H3.414L2 12.586V3.414L3.414 2h9.172L14 3.414v9.172z"/></g><path class="st4" d="M11 6a1 1 0 1 1-2 0 1 1 0 0 1 2 0zm3-2.586v9.172L12.586 14H3.414L2 12.586V3.414L3.414 2h9.172L14 3.414zM13 6a3 3 0 0 0-6 0c0 .571.168 1.1.446 1.554L3 12l1 1 1-1 1 1 1-1-1-1 1-1 1 1 1-1-1-1 .446-.446C8.9 8.832 9.429 9 10 9a3 3 0 0 0 3-3z" id="icon_x5F_fg"/></svg>