<svg xmlns="http://www.w3.org/2000/svg" viewBox="0 0 16 16"><style>.icon-canvas-transparent{opacity:0;fill:#f6f6f6}.icon-vs-out{fill:#f6f6f6}.icon-vs-bg{fill:#424242}</style><path class="icon-canvas-transparent" d="M16 0v16H0V0h16z" id="canvas"/><path class="icon-vs-out" d="M11.493 2.003l.399-.4L10.289 0H9.254L7 2.254V0H0v7h2v9h14V1.999l-4.507.004zM13 13H5V7h2V4.746L9.254 7h1.035l1.604-1.604L11.496 5H13v8z" id="outline"/><path class="icon-vs-bg" d="M9.076 3.006l1.403-1.403-.708-.707L7.168 3.5l2.604 2.604.707-.707L9.082 4H14v10H4V6h2V1H1v5h2v9h12V3l-5.924.006zM2 5V2h3v3H2z" id="iconBg"/></svg>