<svg xmlns="http://www.w3.org/2000/svg" viewBox="0 0 16 16"><style>.icon-canvas-transparent{opacity:0;fill:#f6f6f6}.icon-vs-out{fill:#f6f6f6}.icon-vs-bg{fill:#424242}</style><path class="icon-canvas-transparent" d="M16 0v16H0V0h16z" id="canvas"/><path class="icon-vs-out" d="M16 10v5h-5v-.629L9.371 16H7.836l-1.354-1.354.647-.646H6v1H1v-5h.629L0 8.371V6.836l1.354-1.354.646.647V5H1V0h5v5H5v1.129l.646-.646L7 6.836v1.535L5.371 10H6v1h1.129l-.646-.646L7.836 9h1.535L11 10.629V10h5z" id="outline"/><path class="icon-vs-bg" d="M3.5 10.457L.646 7.604l.707-.707L3 8.543V4H2V1h3v3H4v4.543l1.646-1.646.707.707L3.5 10.457zm7.511 1.597V12h-.054L8.604 9.646l-.707.707L9.543 12H5v-1H2v3h3v-1h4.543l-1.646 1.646.707.707L10.957 13h.054v-.054l.446-.446-.446-.446zM12 11v3h3v-3h-3z" id="iconBg"/></svg>