<svg xmlns="http://www.w3.org/2000/svg" viewBox="0 0 16 16"><style>.st0{opacity:0}.st0,.st1{fill:#f6f6f6}.st2{fill:#424242}.st3{fill:#f0eff1}</style><g id="outline"><path class="st0" d="M0 0h16v16H0z"/><path class="st1" d="M12.061 0H6c-.97 0-2 .701-2 2v5H0v9h9v-2h5c1.299 0 2-1.03 2-2V3.556L12.061 0z"/></g><g id="icon_x5F_bg"><path class="st2" d="M1 14h1v1H1zM3 14h1v1H3zM1 12h1v1H1zM5 8h1v1H5zM3 8h1v1H3zM5 14h1v1H5zM1 10h1v1H1zM1 8h1v1H1zM7 14h1v1H7zM7 12h1v1H7zM7 10h1v1H7zM7 8h1v1H7zM5.5 10l-1 1-1-1h-1L4 11.5 2.5 13h1l1-1 1 1h1L5 11.5 6.5 10z"/><path class="st2" d="M11.641 1H5.964S5 1 5 2v5h1V2h5v3h3v7H9v1h4.965c1 0 1.035-1 1.035-1V4l-3.359-3z"/></g><g id="icon_x5F_fg"><path class="st3" d="M2 9v5h5V9H2zm4.5 4h-1l-1-1-1 1h-1L4 11.5 2.5 10h1l1 1 1-1h1L5 11.5 6.5 13zM11 5V2H6v5h3v5h5V5z"/></g></svg>