<svg xmlns="http://www.w3.org/2000/svg" viewBox="0 0 16 16"><style>.st0{opacity:0}.st0,.st1{fill:#f6f6f6}.st2{fill:#424242}.st3{fill:#f0eff1}.st4{fill:#fc0}</style><g id="outline"><path class="st0" d="M0 0h16v16H0z"/><path class="st1" d="M12.511 7.016H12v-3.46L8.061 0 1.845.004C1.104.071 0 .665 0 2.028v9.947C0 13.263 1.016 13.979 1.994 14h4.988l-.012.025L8.004 16h6.998l.971-2.005-3.462-6.979z"/></g><g id="icon_x5F_bg"><path class="st2" d="M5.608 7H4.594l-.431.834a1.353 1.353 0 0 0-.07.148L4.086 8h-.107l-.004-.008C3.952 7.942 3.478 7 3.478 7H2.405l.952 1.506L2.344 10h1.063s.479-.895.499-.942c.016-.039.08-.013.115-.021l.007.018c.022.047.508.945.508.945h1.066l-.984-1.547L5.608 7z"/><path class="st2" d="M7.988 12H2V2h5v3h3v2.997l.493-.981H11V4L7.676 1H1.935S1 1.084 1 2.028v9.947C1 12.979 1.994 13 1.994 13h5.491l.503-1z"/><path class="st2" d="M9.496 9H6v1h2.993z"/></g><path class="st3" d="M7.988 12l1.005-2H6V9h3.496L10 7.997V5H7V2H2v10H7.988zm-2.386-2H4.536l-.44-.809c-.014-.028-.177-.165-.19-.134a.841.841 0 0 1-.062.124L3.407 10H2.344l1.013-1.494L2.405 7h1.073l.427.841c.023.05.185.148.188.142.021-.053.045-.102.07-.148L4.594 7h1.014l-.99 1.453L5.602 10z" id="icon_x5F_fg"/><path class="st4" d="M11.891 8.016h-.781l-3.016 6 .515.984h5.766l.484-1-2.968-5.984zM12 14h-1v-1h1v1zm0-2h-1v-2h1v2z" id="not_x5F_bg"/><path d="M12 12h-1v-2h1v2zm0 1h-1v1h1v-1z" id="not_x5F_fg"/></svg>