<svg xmlns="http://www.w3.org/2000/svg" width="16" height="16"><style type="text/css">.icon-canvas-transparent{opacity:0;fill:#F6F6F6;} .icon-vs-out{fill:#F6F6F6;} .icon-vs-bg{fill:#424242;} .icon-vs-fg{fill:#F0EFF1;}</style><path class="icon-canvas-transparent" d="M16 16h-16v-16h16v16z" id="canvas"/><g id="outline"><path class="icon-vs-out" d="M15 1v15h-12v-.276c-1.744-.62-3-2.268-3-4.224 0-1.956 1.256-3.605 3-4.224v-6.276h12z"/><path class="icon-vs-fg" d="M5 3v4.05c2.247.252 4 2.136 4 4.45 0 .925-.281 1.785-.76 2.5h4.76v-11h-8z"/></g><path class="icon-vs-bg" d="M14 2v13h-6.703c.356-.285.665-.624.923-1h4.78v-11h-8v4.05c-.166-.018-.329-.05-.5-.05l-.5.05v-5.05h10zm-10 8.981v1.019h1l2-2.51-.5-.51c-.221.159-2.5 2.001-2.5 2.001zm4.048.5c0 2.033-1.485 3.519-3.518 3.519s-3.53-1.476-3.53-3.51c0-2.033 1.497-3.51 3.53-3.51.69 0 1.15.154 1.703.484l-.792.68c-.245-.081-.645-.162-.917-.162-1.355 0-2.494 1.187-2.494 2.543s1.1 2.455 2.455 2.455 2.574-1.135 2.574-2.49c0-.272-.049-.525-.13-.77l.767-.916c.33.553.352.985.352 1.677z" id="iconBg"/><g id="iconFg"><path class="icon-vs-fg" d="M13 3v11h-4.76c.479-.715.76-1.575.76-2.5 0-2.314-1.753-4.198-4-4.45v-4.05h8z"/></g></svg>