<svg xmlns="http://www.w3.org/2000/svg" viewBox="0 0 16 16"><style>.icon-canvas-transparent{opacity:0;fill:#f6f6f6}.icon-vs-out{fill:#f6f6f6}.icon-vs-bg{fill:#424242}.icon-vs-fg{fill:#f0eff1}</style><path class="icon-canvas-transparent" d="M16 0v16H0V0h16z" id="canvas"/><path class="icon-vs-out" d="M16 1v14H0V1h16z" id="outline"/><path class="icon-vs-fg" d="M7.265 6.765c0 .697-.567 1.265-1.265 1.265s-1.265-.568-1.265-1.265S5.303 5.5 6 5.5s1.265.567 1.265 1.265zM14 3v10H2V3h12zm-5.029 8a2.962 2.962 0 0 0-1.472-2.55 2.251 2.251 0 0 0 .766-1.685C8.265 5.516 7.249 4.5 6 4.5S3.735 5.516 3.735 6.765c0 .672.3 1.27.766 1.685A2.962 2.962 0 0 0 3.029 11h1c0-1.087.884-1.971 1.971-1.971 1.086 0 1.971.884 1.971 1.971h1zM13 9h-3v1h3V9zm0-2h-3v1h3V7zm0-2h-3v1h3V5z" id="iconFg"/><g id="iconBg"><path class="icon-vs-bg" d="M3.029 11h1c0-1.087.884-1.971 1.971-1.971S7.971 9.913 7.971 11h1a2.962 2.962 0 0 0-1.472-2.55 2.251 2.251 0 0 0 .766-1.685C8.265 5.516 7.249 4.5 6 4.5S3.735 5.516 3.735 6.765c0 .672.3 1.27.766 1.685A2.962 2.962 0 0 0 3.029 11zm1.706-4.235C4.735 6.067 5.303 5.5 6 5.5s1.265.567 1.265 1.265a1.266 1.266 0 0 1-2.53 0zM1 2v12h14V2H1zm13 11H2V3h12v10zm-1-7h-3V5h3v1zm0 2h-3V7h3v1zm0 2h-3V9h3v1z"/></g></svg>