<svg xmlns="http://www.w3.org/2000/svg" viewBox="0 0 16 16"><style>.st0{opacity:0}.st0,.st1{fill:#f6f6f6}.st2{fill:#424242}.st3{fill:#f0eff1}</style><g id="outline"><path class="st0" d="M0 0h16v16H0z"/><path class="st1" d="M15.994 11.927V3.556L12.055 0 5.839.004c-.741.067-1.845.661-1.845 2.024v4.079l-.394.051-.14 1.124-.897-.699-.615.477a5.071 5.071 0 0 0-.89.891l-.475.614.698.895-.354.044-.783.194-.099.769A3.924 3.924 0 0 0 0 11c0 .185.021.362.059.632l.099.768 1.123.14-.698.896.475.614c.257.332.557.632.89.891l.614.477.897-.698.044.354.192.782.769.099c.177.024.353.045.536.045s.359-.021.631-.059l.769-.1.141-1.123.897.698.614-.477c.333-.259.632-.559.89-.891L8.98 14h5.066c.79 0 1.252-.341 1.501-.626.464-.534.468-1.186.447-1.447z"/></g><g id="icon_x5F_bg"><path class="st2" d="M14.994 11.976V4L11.67 1H5.929s-.935.084-.935 1.028V6H5a3.8 3.8 0 0 1 .536.046l.459.059V2h5v3h3v7h-4.1l-.04.307-.781.19-.355.043.358.46h4.969c1.092 0 .948-1.024.948-1.024z"/><path class="st2" d="M9.994 9h4v1h-4zM8.941 7.951l.006.008L9.602 7H8.588l-.19.366c.195.182.38.374.543.585zM7.714 10.342a2.804 2.804 0 0 0-.331-.795l.767-.984a3.972 3.972 0 0 0-.712-.713l-.985.767a2.773 2.773 0 0 0-.795-.33l-.154-1.236C5.337 7.029 5.173 7 5 7s-.337.029-.504.051l-.154 1.236a2.773 2.773 0 0 0-.795.33l-.985-.767a3.972 3.972 0 0 0-.712.713l.768.984c-.148.244-.262.51-.331.795l-1.235.154C1.029 10.664 1 10.828 1 11c0 .174.029.338.051.504l1.235.154c.069.285.183.551.331.795l-.767.985c.207.268.445.506.712.713l.985-.768c.244.148.51.262.795.332l.154 1.234c.167.022.331.051.504.051s.337-.029.504-.051l.154-1.234c.285-.07.551-.184.795-.332l.985.768c.267-.207.505-.445.712-.713l-.768-.984c.148-.244.262-.51.331-.795l1.235-.154C8.971 11.338 9 11.174 9 11c0-.172-.029-.336-.051-.504l-1.235-.154zM5 13c-1.107 0-2-.896-2-2s.893-2 2-2 2 .896 2 2-.893 2-2 2z"/><circle class="st2" cx="5" cy="11" r="1"/></g><g id="icon_x5F_fg"><path class="st3" d="M6.541 7.282l.024-.019-.034-.054zM6.531 7.209L6.505 7h-.106z"/><path class="st3" d="M13.994 9V5h-3V2h-5v4.105l.31.04.192.782.009.073h.396l.536-.417.615.477c.122.094.234.2.346.306L8.588 7h1.014l-.654.959.469.606-.404.519.285.448.545.068.099.769c.037.275.058.449.058.631 0 .185-.021.362-.046.538L9.895 12h4.1v-2h-4V9h3.999z"/><path class="st3" d="M9 8.027V8h-.022L9 8.027zM5 9a2 2 0 1 0 .001 4.001A2 2 0 0 0 5 9zm0 3a1 1 0 1 1 0-2 1 1 0 1 1 0 2z"/></g></svg>