<svg xmlns="http://www.w3.org/2000/svg" viewBox="0 0 16 16"><defs><style>.icon-canvas-transparent,.icon-vs-out{fill:#f6f6f6}.icon-canvas-transparent{opacity:0}.icon-vs-bg{fill:#424242}.a{fill:#f0eff1}.icon-vs-action-blue{fill:#00539c}</style></defs><title>ContentControlElement_16x</title><path class="icon-canvas-transparent" d="M16 16H0V0h16z"/><path class="icon-vs-out" d="M16 0v16H2v-1.023a4.955 4.955 0 0 1 0-7.954V0z"/><path class="icon-vs-bg" d="M5 5a5.982 5.982 0 0 1 5.645 8H9.573A4.982 4.982 0 0 0 5 6zM3 1v5.422A4.949 4.949 0 0 1 4 6.1V2h10v12H8.977a5 5 0 0 1-1 1H15V1z"/><path class="icon-vs-bg" d="M7.86 8.21l-.07-.07L5 10H4v2h2v-1z"/><path class="a" d="M7.86 8.21L6 11v1H4v-2h1l2.79-1.86z"/><path class="icon-vs-action-blue" d="M5 7a4 4 0 1 0 4 4 4 4 0 0 0-4-4zm1 4v1H4v-2h1l2.79-1.86.07.07z"/><path class="a" d="M7.86 8.21L6 11v1H4v-2h1l2.79-1.86z"/></svg>