<svg xmlns="http://www.w3.org/2000/svg" viewBox="0 0 16 16"><style>.icon-vs-bg_x0020_{fill:#424242}.icon-vs-fg{fill:#f0eff1}.icon-folder{fill:#dcb67a}.icon-vs-out{fill:#f6f6f6}.icon-canvas-transparent{opacity:0;fill:#f6f6f6}</style><path class="icon-canvas-transparent" d="M0 0h16v16H0V0z" id="canvas"/><path class="icon-vs-out" d="M14.996 4.5v8c0 .827-.673 1.5-1.5 1.5H8.409c-.737 1.19-2.093 2-3.659 2A4.454 4.454 0 0 1 3 15.644V16H0V2.5C0 1.673.673 1 1.5 1h8.11l1 2h2.886c.827 0 1.5.673 1.5 1.5z" id="outline"/><g id="icon_x5F_bg"><path class="icon-folder" d="M13.496 4H9.992l-1-2H1.5a.5.5 0 0 0-.5.5v5.953A4.33 4.33 0 0 1 4.25 7c.615 0 1.209.125 1.75.356V7h3v5c0 .347-.062.678-.151 1h4.647a.5.5 0 0 0 .5-.5v-8a.5.5 0 0 0-.5-.5zM2 4V3h6.374l.5 1H2z"/><path class="icon-vs-bg_x0020_" d="M8 8v3H5v-1h1.187c-.39-.595-1.108-1-1.937-1C3.01 9 2 9.897 2 11H1c0-1.654 1.458-3 3.25-3C5.412 8 6.425 8.57 7 9.419V8h1zm-3.25 6c-.829 0-1.547-.405-1.937-1H4v-1H1v3h1v-1.419C2.575 14.43 3.588 15 4.75 15 6.542 15 8 13.654 8 12H7c0 1.103-1.01 2-2.25 2z"/></g><path class="icon-vs-fg" d="M2 3h6.374l.5 1H2V3z" id="icon_x5F_fg"/></svg>