<svg xmlns="http://www.w3.org/2000/svg" viewBox="0 0 16 16"><style>.st0{opacity:0}.st0,.st1{fill:#f6f6f6}.st2{fill:#424242}.st3{fill:#f0eff1}</style><path class="st0" d="M0 0h16v16H0z" id="outline"/><g id="icon_x5F_bg"><path class="st1" d="M3.994 15C3.016 14.979 2 14.263 2 12.976V3.028C2 1.664 3.104 1.07 3.845 1.004L10.061 1 14 4.556v8.371c.021.261.017.913-.447 1.447-.249.285-.711.626-1.501.626H3.994z"/><path class="st2" d="M9.676 2H3.935S3 2.084 3 3.028v9.947C3 13.979 3.994 14 3.994 14h8.058c1.092 0 .948-1.024.948-1.024V5L9.676 2zM12 13H4V3h5v3h3v7z"/><path class="st2" d="M8 10h4v1H8zM7.608 8H6.594l-.431.834a1.353 1.353 0 0 0-.07.148L6.086 9h-.107l-.004-.008C5.952 8.942 5.478 8 5.478 8H4.405l.952 1.506L4.344 11h1.063s.479-.894.499-.942c.016-.039.08-.013.115-.021l.007.018c.022.047.508.945.508.945h1.066l-.984-1.547L7.608 8z"/></g><path class="st3" d="M12 10V6H9V3H4v10h8v-2H8v-1h4zm-4.398 1H6.536l-.44-.809c-.014-.028-.177-.165-.19-.134a.841.841 0 0 1-.062.124L5.407 11H4.344l1.013-1.494L4.405 8h1.073l.427.841c.023.05.185.148.188.142.021-.053.045-.102.07-.148L6.594 8h1.014l-.99 1.453L7.602 11z" id="icon_x5F_fg"/></svg>