<svg xmlns="http://www.w3.org/2000/svg" viewBox="0 0 16 16"><style>.st0{opacity:0}.st0,.st1{fill:#f6f6f6}.st2{fill:#424242}.st3{fill:none}.st4{fill:#f0eff1}</style><g id="outline"><path class="st0" d="M0 0h16v16H0z"/><path class="st1" d="M10.5 5c-.88 0-1.708.212-2.446.579L6.87 4.396c.076-.289.13-.584.13-.896A3.5 3.5 0 1 0 3.5 7c.312 0 .607-.054.896-.131L5.58 8.054A5.458 5.458 0 0 0 5 10.5 5.5 5.5 0 1 0 10.5 5z"/></g><path class="st2" d="M15.019 10.391a4.497 4.497 0 0 0-4.492-4.348 4.47 4.47 0 0 0-2.575.817L5.714 4.636C5.89 4.293 6 3.911 6 3.5A2.5 2.5 0 1 0 3.5 6c.416 0 .802-.111 1.147-.291l.267.265 1.912 1.911.006-.006.047.047a4.462 4.462 0 0 0-.852 2.617 4.74 4.74 0 0 0 .067.743 4.49 4.49 0 0 0 3.696 3.691l.013.002a4.283 4.283 0 0 0 1.164.043 4.503 4.503 0 0 0 4.061-4.478c-.001-.054-.009-.103-.009-.153zM3.5 5a1.5 1.5 0 1 1-.001-2.999A1.5 1.5 0 0 1 3.5 5zm8.236 2.053c.757.262 1.4.758 1.844 1.406a7.185 7.185 0 0 1-1.255.319 7.475 7.475 0 0 0-.589-1.725zm.048 3.161c.004.372-.044.778-.135 1.208-.376.025-.744.037-1.118.035-.41-.006-.803-.035-1.182-.079a7.722 7.722 0 0 1-.035-1.89c.387.044.789.056 1.209.056h.259c.314 0 .632.012.956-.012.026.218.044.45.046.682zm-.944-3.352c.302.522.608 1.187.786 1.997-.367.025-.729.029-1.095.025-.386-.004-.76-.029-1.119-.07.15-.782.398-1.424.644-1.935.154-.02.311-.033.471-.033.107.001.21.008.313.016zm-1.652.239c-.186.465-.355 1-.471 1.612-.443-.078-.85-.175-1.223-.28a3.7 3.7 0 0 1 1.694-1.332zM7.141 9.063c.44.131.932.254 1.479.346a8.06 8.06 0 0 0-.05.81c-.004.342.021.694.063 1.051a12.757 12.757 0 0 1-1.788-.467c-.007-.086-.014-.172-.014-.26a3.7 3.7 0 0 1 .31-1.48zm1.606 2.939c.132.673.349 1.359.632 2.053a3.702 3.702 0 0 1-2.396-2.468c.513.157 1.101.309 1.764.415zm.732.096a11.327 11.327 0 0 0 1.304.061c.224 0 .45-.006.678-.018a13.596 13.596 0 0 1-.87 2.095c-.021.001-.041.004-.063.004-.109 0-.217-.008-.324-.018a11.03 11.03 0 0 1-.725-2.124zm1.939 2.029c.35-.737.62-1.424.795-2.054a8.165 8.165 0 0 0 1.856-.472 3.701 3.701 0 0 1-2.651 2.526zm2.794-3.344a7.538 7.538 0 0 1-1.831.555c.07-.393.108-.768.104-1.119a7.633 7.633 0 0 0-.05-.743 8.07 8.07 0 0 0 1.489-.388c.19.445.299.938.299 1.455.001.08-.007.16-.011.24z" id="icon_x5F_bg"/><g id="icon_x5F_fg"><circle class="st3" cx="3.5" cy="3.5" r="1.5"/><circle class="st4" cx="3.5" cy="3.5" r="1.5"/><path class="st4" d="M9.188 7.101a3.7 3.7 0 0 0-1.694 1.332c.373.105.779.202 1.223.28a8.546 8.546 0 0 1 .471-1.612zM11.626 8.859a6.968 6.968 0 0 0-.786-1.997 3.972 3.972 0 0 0-.313-.016c-.16 0-.316.014-.471.033a7.91 7.91 0 0 0-.644 1.935c.359.041.733.066 1.119.07.367.005.728.001 1.095-.025zM10.531 11.457c.374.002.742-.01 1.118-.035.091-.43.139-.836.135-1.208a6.58 6.58 0 0 0-.046-.683c-.324.023-.642.012-.956.012h-.259c-.42 0-.822-.012-1.209-.056-.023.23-.041.49-.043.737-.003.376.024.762.079 1.154.379.044.771.073 1.181.079zM8.57 10.219c.002-.282.022-.549.049-.811a12.504 12.504 0 0 1-1.478-.345c-.197.455-.31.955-.31 1.481 0 .088.007.174.014.26.5.168 1.097.341 1.788.467a8.428 8.428 0 0 1-.063-1.052zM10.782 12.158c-.085 0-.173 0-.259-.002a10.988 10.988 0 0 1-1.045-.059c.154.694.402 1.407.725 2.124.107.01.215.018.324.018.022 0 .041-.003.063-.004.383-.76.674-1.457.87-2.095-.228.012-.454.018-.678.018zM12.485 10.219c.004.352-.034.727-.104 1.119a7.538 7.538 0 0 0 1.831-.555c.004-.08.012-.16.012-.24 0-.518-.108-1.01-.299-1.455a8.254 8.254 0 0 1-1.489.388c.025.24.046.484.049.743zM11.736 7.053c.235.492.451 1.063.589 1.725a7.321 7.321 0 0 0 1.255-.319 3.703 3.703 0 0 0-1.844-1.406zM6.982 11.587a3.704 3.704 0 0 0 2.396 2.468c-.283-.693-.5-1.38-.632-2.053a13.08 13.08 0 0 1-1.764-.415zM11.418 14.127a3.7 3.7 0 0 0 2.65-2.525 8.204 8.204 0 0 1-1.856.472c-.174.629-.444 1.316-.794 2.053z"/></g></svg>