<svg xmlns="http://www.w3.org/2000/svg" viewBox="0 0 16 16"><style>.icon-canvas-transparent{opacity:0;fill:#f6f6f6}.icon-vs-out{fill:#f6f6f6}.icon-vs-action-blue{fill:#00539c}.icon-folder_x0020_{fill:#dcb67a}.icon-bg{fill:#424242}</style><path class="icon-canvas-transparent" d="M16 16H0V0h16v16z" id="canvas"/><path class="icon-vs-out" d="M2.735 12.874l-.111.111 2.132 2.134.269-.267a1.49 1.49 0 0 0 1.248 1.113h8.437a1.485 1.485 0 0 0 1.218-1.057v-5.82a1.476 1.476 0 0 0-.368-.646 1.492 1.492 0 0 0-1.063-.439l-1.883.002L11.604 6H8V.036H.036V7H1v3.489c.001 1.001.605 2.056 1.735 2.385zM3.993 7h1.088a1.467 1.467 0 0 0-.092.498l-.001.578-.231-.23-.764.765V7z" id="outline"/><g id="iconBg"><path class="icon-bg" d="M1 1v5h6V1H1zm5 4H2V2h4v3z"/><path class="icon-folder_x0020_" d="M15 9.501a.5.5 0 0 0-.501-.5L12 9.004 10.989 7h-4.5a.5.5 0 0 0-.5.499l-.003 1.573L8.414 11.5 5.98 13.934l-.001.565c0 .276.224.501.5.501H14.5a.5.5 0 0 0 .5-.5V9.501zM7 9V8h2.989l.5 1H7z"/></g><path class="icon-vs-action-blue" d="M6.994 11.485l-2.236 2.222-.721-.721 1.004-1.004-1.552-.004v-.001c-1.09 0-1.488-.89-1.489-1.489V7h.992v3.48c.006.23.097.504.497.504h1.552L4.037 9.98l.721-.721 2.236 2.226z" id="colorAction"/></svg>