<svg xmlns="http://www.w3.org/2000/svg" viewBox="0 0 16 16"><style>.icon-canvas-transparent{opacity:0;fill:#f6f6f6}.icon-vs-out{fill:#f6f6f6}.icon-vs-bg{fill:#424242}.icon-vs-fg{fill:#f0eff1}.icon-vs-action-blue{fill:#00539c}</style><path class="icon-canvas-transparent" d="M16 16H0V0h16v16z" id="canvas"/><path class="icon-vs-out" d="M13 3.706V3h1V0H7v1H4.5a2.505 2.505 0 0 0-2.373 1.713L1 1.586v4.328L2.086 7H0v3h2v3H0v3h7v-2h2v-2h5.668c.503 0 .97-.199 1.332-.525V8.373l-3-4.667zM6 4h1.811L5.883 7h-.969L6 5.914V4z" id="outline"/><path class="icon-vs-bg" d="M3 10h3v1H3v-1zm6-2H5v1h4V8zM4 8H1v1h3V8zm11.51 1.459L12 4V2h1V1H8v1h1v2L7.071 7h1.205L10 4.291V2h1v2.291L12.724 7H10v4h4.668a1 1 0 0 0 .842-1.541zM9 11v-1H7v1h2zm-8 4h5v-1H1v1zm2-2h5v-1H3v1z" id="iconBg"/><path class="icon-vs-fg" d="M10 4.291V2h1v2.291L12.724 7H8.276L10 4.291z" id="iconFg"/><path class="icon-vs-action-blue" d="M3.5 7L2 5.5V4l1 1V3.5C3 2.673 3.673 2 4.5 2H7v1H4.5c-.275 0-.5.225-.5.5V5l1-1v1.5L3.5 7z" id="colorAction"/></svg>