<svg xmlns="http://www.w3.org/2000/svg" viewBox="0 0 16 16"><style>.st0{opacity:0}.st0,.st1{fill:#f6f6f6}.st2{fill:none}.st3{fill:#424242}.st4{fill:#00539c}.st5{fill:#f0eff1}</style><g id="outline"><path class="st0" d="M0 0h16v16H0z"/><path class="st1" d="M12.164 6.75L14 4.914V.586l-1.127 1.127A2.505 2.505 0 0 0 10.5 0h-6A2.503 2.503 0 0 0 2 2.5V7H0v8h8v-3.586L11.586 15h.828L16 11.414v-.828L12.164 6.75zM5 7V3h4v1.914l2.336 2.336L8 10.586V7H5z"/></g><g id="icon_x5F_bg"><path transform="rotate(-45.001 12 11)" class="st2" d="M10.879 9.879h2.243v2.243h-2.243z"/><path class="st2" d="M2 9h4v4H2z"/><path class="st3" d="M1 14h6V8H1v6zm1-5h4v4H2V9zM12 8l-3 3 3 3 3-3-3-3zm-1.586 3L12 9.414 13.586 11 12 12.586 10.414 11z"/></g><path class="st4" d="M4 6H3V2.5C3 1.672 3.673 1 4.5 1h6c.827 0 1.5.672 1.5 1.5V4l1-1v1.5L11.5 6 10 4.5V3l1 1V2.5c0-.275-.225-.5-.5-.5h-6c-.275 0-.5.225-.5.5V6z" id="color_x5F_importance"/><path class="st5" d="M2 9h4v4H2V9zm10 .414L10.414 11 12 12.586 13.586 11 12 9.414z" id="icon_x5F_fg"/></svg>