<svg xmlns="http://www.w3.org/2000/svg" viewBox="0 0 16 16"><style>.icon-vs-out{fill:#f6f6f6}.icon-vs-action-blue{fill:#00539c}.st0{opacity:0;fill:#f6f6f6}</style><path class="st0" d="M16 16H0V0h16v16z" id="canvas"/><path class="icon-vs-out" d="M8.103 8.037L9.14 7H5v4H2V6.5C2 5.122 3.122 4 4.5 4h6c1.237 0 2.268.904 2.466 2.085l1.947 1.947L11.917 11h-.822L8.103 8.037z" id="outline"/><path class="icon-vs-action-blue" d="M13.495 8.029L11.506 10 9.521 8.033l.707-.707.772.772V6.5c0-.275-.225-.5-.5-.5h-6c-.275 0-.5.225-.5.5V10H3V6.5C3 5.672 3.673 5 4.5 5h6c.827 0 1.5.672 1.5 1.5v.521h.001L12 7.694v.417l.788-.788.707.706z" id="iconBg"/></svg>