<svg xmlns="http://www.w3.org/2000/svg" viewBox="0 0 16 16"><style>.icon-canvas-transparent{opacity:0;fill:#f6f6f6}.icon-vs-out{fill:#f6f6f6}.icon-vs-bg{fill:#424242}.icon-vs-action-blue{fill:#00539c}</style><path class="icon-canvas-transparent" d="M16 0v16H0V0h16z" id="canvas"/><path class="icon-vs-out" d="M16 11c0 2.206-1.794 4-4 4H7a4.008 4.008 0 0 1-3.896-3.089l-.417-.146A4 4 0 0 1 0 8c0-2.206 1.794-4 4-4h5a4.009 4.009 0 0 1 3.896 3.089l.417.146A4 4 0 0 1 16 11z" id="outline"/><path class="icon-vs-bg" d="M15 11c0 1.654-1.346 3-3 3H7c-1.654 0-3-1.346-3-3s1.346-3 3-3h3c0 .551-.448 1-1 1H7c-1.103 0-2 .897-2 2 0 1.102.897 2 2 2h5c1.102 0 2-.898 2-2 0-.816-.493-1.517-1.196-1.828.098-.318.162-.648.177-.993A2.993 2.993 0 0 1 15 11zM2 8c0-1.103.897-2 2-2h5c1.102 0 2 .897 2 2s-.898 2-2 2H7c-.551 0-1 .449-1 1h3c1.654 0 3-1.346 3-3s-1.346-3-3-3H4C2.346 5 1 6.346 1 8c0 1.309.847 2.412 2.018 2.821.016-.345.079-.676.177-.993A2.001 2.001 0 0 1 2 8z" id="iconBg"/><g id="colorAction"><path class="icon-vs-out" d="M5.854 1.232L4.5 2.586V0h-1C1.57 0 0 1.57 0 3.5S1.57 7 3.5 7h.879l-.647.646 2.121 2.121L10.121 5.5 5.854 1.232z"/><path class="icon-vs-action-blue" d="M5.854 8.354l-.708-.708L6.793 6H3.5C2.122 6 1 4.878 1 3.5S2.122 1 3.5 1v1C2.673 2 2 2.673 2 3.5S2.673 5 3.5 5h3.293L5.146 3.354l.707-.707L8.707 5.5 5.854 8.354z"/></g></svg>