<svg xmlns="http://www.w3.org/2000/svg" viewBox="0 0 16 16"><style>.icon-canvas-transparent{opacity:0;fill:#f6f6f6}.icon-vs-out{fill:#f6f6f6}.icon-vs-bg{fill:#424242}.icon-vs-fg{fill:#f0eff1}.icon-folder{fill:#dcb67a}.icon-vs-action-blue{fill:#00539c}</style><path class="icon-canvas-transparent" d="M16 16H0V0h16v16z" id="canvas"/><path class="icon-vs-out" d="M10.929 9c.056-.157.071-.324.071-.5V3.501a1.481 1.481 0 0 0-1.486-1.5l-1.88.002L6.626 0H1.51C.683 0 .01.673.01 1.498L0 8.5c0 .651.419 1.201 1 1.408V12.5c0 1.103.719 2.042 1.713 2.373L1.586 16h4.328L8 13.914V16h8V9h-5.071zm-5.015 2H4v-1h4v3.086L5.914 11z" id="outline"/><g id="iconBg"><path class="icon-folder" d="M9.51 3.001l-2.494.003L6.01 1h-4.5a.5.5 0 0 0-.5.499L1.001 8H4v1h5.521c.276 0 .479-.224.479-.5V3.501a.49.49 0 0 0-.49-.5zM2 3V2h3.01l.5 1H2z"/><path class="icon-vs-bg" d="M9 10v5h6v-5H9zm5 4h-4v-3h4v3z"/></g><path class="icon-vs-action-blue" d="M5.5 12L7 13.5 5.5 15H4l1-1H3.5c-.827 0-1.5-.674-1.5-1.5V9h1v3.5c0 .275.225.5.5.5H5l-1-1h1.5z" id="colorAction"/><path class="icon-vs-fg" d="M5 2l.5 1H2V2h3z" id="notificationFg"/></svg>