<svg xmlns="http://www.w3.org/2000/svg" viewBox="0 0 16 16"><style>.icon-canvas-transparent{opacity:0;fill:#f6f6f6}.icon-vs-out{fill:#f6f6f6}.icon-vs-bg{fill:#424242}</style><path class="icon-canvas-transparent" d="M16 16H0V0h16v16z" id="canvas"/><path class="icon-vs-out" d="M15 0H5v4H1v4.78c-.609.55-1 1.337-1 2.22 0 .85.378 1.642 1 2.204V16h10v-.78c.609-.549 1-1.337 1-2.22 0-.349-.082-.681-.198-1H15V0z" id="outline"/><g id="iconBg"><path class="icon-vs-bg" d="M14 1v10h-3v-1h2V2H7v2H6V1h8zM3 6h6v2.776c.38.342.677.773.844 1.266l.156.089V5H2v3.184A2.966 2.966 0 0 1 3 8V6zm6.973 5.264a2.965 2.965 0 0 1-.275 1.024A.99.99 0 0 1 10 13a1 1 0 0 1-1 1H5a1.001 1.001 0 0 1 0-2l1-1H5c-1.103 0-2 .897-2 2 0 1.102.897 2 2 2h4c1.102 0 2-.898 2-2 0-.748-.417-1.393-1.027-1.736zM3 10h4a1.001 1.001 0 0 1 0 2l-1 1h1c1.102 0 2-.897 2-2s-.898-2-2-2H3c-1.103 0-2 .897-2 2 0 .748.417 1.393 1.027 1.736a2.96 2.96 0 0 1 .275-1.024A.99.99 0 0 1 2 11c0-.551.449-1 1-1z"/></g></svg>