<svg xmlns="http://www.w3.org/2000/svg" viewBox="0 0 16 16"><style>.st0{opacity:0}.st0,.st1{fill:#f6f6f6}.st2{fill:none}.st3{fill:#424242}.st4{fill:#f0eff1}</style><g id="outline"><path class="st0" d="M0 0h16v16H0z"/><path class="st1" d="M16 3v6.99L15 10h-1v2h-1v1h-3v-1H8v2H7v1H4v-1H3v-2H1V5h2V3h1V2h3v1h2V1h1V0h3v1h1v2h2z"/></g><g id="icon_x5F_bg"><path class="st2" d="M3 7h5v3H3z"/><path class="st3" d="M5 12H4v1h1v1h1v-1h1v-1H6zM12 3h1V2h-1V1h-1v1h-1v1h1zM7 4H6V3H5v1H4v1h3zM2 7v4h7V6H2v1zm1 0h5v3H3V7z"/><path class="st3" d="M8 4v1h6v3h-4v1h5V4zM11 10h-1v1h1v1h1v-1h1v-1h-1z"/></g><g id="icon_x5F_fg"><path class="st4" d="M3 7h5v3H3zM10 5h4v3h-4z"/></g></svg>