<svg xmlns="http://www.w3.org/2000/svg" viewBox="0 0 16 16"><style>.icon-vs-out{fill:#f6f6f6}.icon-vs-bg{fill:#424242}.icon-vs-fg{fill:#f0eff1}.st0{fill:#424242}</style><path class="icon-vs-out" d="M15 1V0H8v1H7v1.086L5.914 1H1.586l1.127 1.127A2.505 2.505 0 0 0 1 4.5V8H0v7h1v1h7v-1h1V9h6V8h1V1h-1zM4 6h1.914L7 4.914V7H4V6zm2 6H3v-1h3v1zm7-7h-3V4h3v1z" id="outline"/><g id="iconBg"><path class="st0" d="M3 11h3v1H3z"/><path class="st0" d="M7 9V8H6v1H5V8H4v1H3V8H2v1H1v5h1v1h1v-1h1v1h1v-1h1v1h1v-1h1V9H7zm0 4H2v-3h5v3z"/><path class="icon-vs-bg" d="M10 4h3v1h-3z"/><path class="icon-vs-bg" d="M14 2V1h-1v1h-1V1h-1v1h-1V1H9v1H8v5h1v1h1V7h1v1h1V7h1v1h1V7h1V2h-1zm0 4H9V3h5v3zM4 5l1-1H3.5c-.275 0-.5.225-.5.5V7H2V4.5C2 3.674 2.673 3 3.5 3H5L4 2h1.5L7 3.5 5.5 5H4z"/></g><g id="iconFg"><path class="icon-vs-fg" d="M2 10v3h5v-3H2zm4 2H3v-1h3v1zM9 3v3h5V3H9zm4 2h-3V4h3v1z"/></g></svg>