<svg xmlns="http://www.w3.org/2000/svg" viewBox="0 0 16 16"><style>.st0{opacity:0}.st0,.st1{fill:#f6f6f6}.st2{fill:#424242}.st3{fill:#f0eff1}</style><g id="outline"><path class="st0" d="M0 0h16v16H0z"/><path class="st1" d="M16 5.5C16 2.468 13.531 0 10.5 0a5.507 5.507 0 0 0-5.477 5.024C2.214 5.268 0 7.629 0 10.5 0 13.533 2.468 16 5.5 16a5.505 5.505 0 0 0 5.475-5.024C13.785 10.733 16 8.373 16 5.5z"/></g><g id="icon_x5F_bg"><path class="st2" d="M10.019 10.391a4.496 4.496 0 1 0-8.971.541 4.843 4.843 0 0 0 .047.354 4.491 4.491 0 0 0 3.696 3.691l.014.002a4.221 4.221 0 0 0 .725.065 4.502 4.502 0 0 0 4.499-4.5c-.002-.054-.01-.103-.01-.153zM6.737 7.053c.756.262 1.4.759 1.844 1.406a7.247 7.247 0 0 1-1.256.32 7.58 7.58 0 0 0-.588-1.726zm.047 3.162a5.54 5.54 0 0 1-.135 1.207c-.375.025-.744.037-1.117.035-.41-.006-.803-.035-1.182-.078a7.744 7.744 0 0 1-.078-1.154c.002-.246.02-.506.043-.736.387.043.789.055 1.209.055h.258c.314 0 .633.012.957-.012.025.218.043.45.045.683zM6.625 8.86a13.77 13.77 0 0 1-1.093.025c-.387-.004-.76-.029-1.119-.07.15-.782.398-1.424.645-1.935.154-.02.311-.033.471-.033.105 0 .209.008.313.016a7 7 0 0 1 .783 1.997zM4.188 7.101a8.568 8.568 0 0 0-.471 1.612c-.443-.078-.85-.175-1.223-.28a3.706 3.706 0 0 1 1.694-1.332zM2.141 9.063c.44.131.932.254 1.479.346a8.079 8.079 0 0 0-.05.81c-.004.342.021.695.063 1.051a12.62 12.62 0 0 1-1.788-.467c-.007-.086-.014-.172-.014-.26a3.7 3.7 0 0 1 .31-1.48zm1.606 2.939c.132.674.349 1.359.632 2.053a3.704 3.704 0 0 1-2.397-2.467c.514.156 1.102.308 1.765.414zm1.457 2.219a11.09 11.09 0 0 1-.725-2.123c.336.033.686.057 1.045.059.086.002.174.002.258.002.225 0 .451-.006.678-.018a13.358 13.358 0 0 1-.869 2.094c-.021.002-.041.004-.063.004a3.837 3.837 0 0 1-.324-.018zm1.214-.094c.35-.736.619-1.424.795-2.053a8.184 8.184 0 0 0 1.855-.472 3.699 3.699 0 0 1-2.65 2.525zm2.793-3.344a7.519 7.519 0 0 1-1.83.555c.07-.393.107-.768.104-1.119a7.64 7.64 0 0 0-.049-.742 8.128 8.128 0 0 0 1.488-.389c.191.445.298.938.298 1.455.001.08-.007.16-.011.24z"/><path class="st2" d="M15.019 5.391a4.498 4.498 0 0 0-4.492-4.348c-2.311 0-4.192 1.747-4.449 3.988.27.029.533.083.79.148.04-.39.122-.769.272-1.116.44.131.932.254 1.479.346a8.066 8.066 0 0 0-.049.81c-.003.245.022.5.045.754.46.318.868.705 1.212 1.145.229.017.457.038.696.039.086.002.174.002.258.002.225 0 .451-.006.678-.018a12.873 12.873 0 0 1-.704 1.736c.113.366.186.749.221 1.143a4.503 4.503 0 0 0 4.052-4.477c-.001-.053-.009-.102-.009-.152zM13.58 3.459a7.194 7.194 0 0 1-1.256.319 7.55 7.55 0 0 0-.588-1.726c.756.262 1.401.76 1.844 1.407zM10.057 1.88c.154-.02.311-.033.471-.033.106 0 .209.008.313.016.301.522.608 1.187.785 1.997-.367.025-.729.029-1.094.025-.387-.004-.76-.029-1.119-.07.15-.783.398-1.424.644-1.935zM8.716 3.713c-.443-.078-.85-.175-1.223-.28a3.707 3.707 0 0 1 1.695-1.332 8.618 8.618 0 0 0-.472 1.612zm1.815 2.744c-.41-.006-.803-.035-1.182-.079a7.998 7.998 0 0 1-.078-1.153c.002-.247.02-.507.043-.737.387.044.789.056 1.209.056h.258c.314 0 .633.012.957-.012.025.219.043.451.045.683.004.372-.043.778-.135 1.208a16.06 16.06 0 0 1-1.117.034zm.887 2.67c.35-.737.619-1.424.795-2.054a8.165 8.165 0 0 0 1.856-.472 3.705 3.705 0 0 1-2.651 2.526zm2.793-3.344a7.532 7.532 0 0 1-1.83.555c.07-.393.107-.768.103-1.119a7.337 7.337 0 0 0-.049-.743 8.04 8.04 0 0 0 1.488-.388c.191.445.299.938.299 1.455.001.08-.007.16-.011.24z"/></g><g id="icon_x5F_fg"><path class="st3" d="M9.188 2.101a3.7 3.7 0 0 0-1.694 1.332c.373.105.779.202 1.223.28a8.546 8.546 0 0 1 .471-1.612zM11.625 3.859a6.969 6.969 0 0 0-.785-1.997 4.022 4.022 0 0 0-.313-.016c-.16 0-.316.014-.471.033a7.925 7.925 0 0 0-.644 1.935c.359.041.732.066 1.119.07.365.005.727.001 1.094-.025zM10.531 6.457c.373.002.742-.01 1.117-.035.092-.43.139-.836.135-1.208a6.582 6.582 0 0 0-.045-.683c-.324.023-.643.012-.957.012h-.258c-.42 0-.822-.012-1.209-.056-.023.23-.041.49-.043.737-.003.376.024.762.079 1.154.379.044.771.073 1.181.079zM12.484 5.219c.004.352-.033.727-.103 1.119a7.532 7.532 0 0 0 1.83-.555c.004-.08.012-.16.012-.24 0-.518-.108-1.01-.299-1.455a8.223 8.223 0 0 1-1.488.388c.025.24.046.484.048.743zM11.736 2.053c.234.492.451 1.064.588 1.726a7.308 7.308 0 0 0 1.256-.319 3.698 3.698 0 0 0-1.844-1.407zM11.418 9.127a3.702 3.702 0 0 0 2.65-2.525 8.152 8.152 0 0 1-1.855.471 13.06 13.06 0 0 1-.795 2.054zM8.615 5.973c-.023-.254-.048-.509-.045-.754.002-.282.021-.549.049-.811a12.57 12.57 0 0 1-1.479-.345c-.15.347-.232.726-.271 1.117a5.47 5.47 0 0 1 1.746.793zM10.755 8.877c.295-.618.541-1.203.704-1.736-.227.012-.453.018-.678.018-.084 0-.172 0-.258-.002-.239-.001-.467-.022-.696-.039.408.52.728 1.113.928 1.759z"/><g><path class="st3" d="M4.188 7.101a3.706 3.706 0 0 0-1.694 1.332c.373.105.779.202 1.223.28a8.568 8.568 0 0 1 .471-1.612zM3.57 10.219c.002-.281.022-.549.049-.811a12.504 12.504 0 0 1-1.478-.345c-.197.455-.31.955-.31 1.481 0 .088.007.174.014.26.5.168 1.097.342 1.788.467a8.417 8.417 0 0 1-.063-1.052zM6.625 8.86a6.94 6.94 0 0 0-.785-1.997 4.022 4.022 0 0 0-.312-.016c-.16 0-.316.014-.471.033a7.826 7.826 0 0 0-.644 1.935c.359.041.732.066 1.119.07.365.004.726 0 1.093-.025zM1.982 11.588a3.704 3.704 0 0 0 2.397 2.467c-.283-.693-.5-1.379-.632-2.053a13.221 13.221 0 0 1-1.765-.414zM5.532 11.457c.373.002.742-.01 1.117-.035a5.54 5.54 0 0 0 .135-1.207 6.565 6.565 0 0 0-.045-.684c-.324.024-.643.012-.957.012h-.258c-.42 0-.822-.012-1.209-.055-.023.23-.041.49-.043.736-.004.376.023.762.078 1.155.379.043.772.072 1.182.078zM7.485 10.219c.004.352-.033.727-.104 1.119a7.532 7.532 0 0 0 1.83-.555c.004-.08.012-.16.012-.24 0-.518-.107-1.01-.298-1.455a8.323 8.323 0 0 1-1.489.389c.025.24.047.484.049.742zM6.737 7.053c.234.492.451 1.064.588 1.726a7.33 7.33 0 0 0 1.256-.319 3.708 3.708 0 0 0-1.844-1.407zM5.782 12.158c-.084 0-.172 0-.258-.002a10.988 10.988 0 0 1-1.045-.059c.154.695.402 1.408.725 2.123.107.01.215.018.324.018.021 0 .041-.002.063-.004.383-.758.674-1.455.869-2.094a12.87 12.87 0 0 1-.678.018zM6.418 14.127a3.7 3.7 0 0 0 2.65-2.525 8.184 8.184 0 0 1-1.855.472 12.955 12.955 0 0 1-.795 2.053z"/></g></g></svg>