<svg xmlns="http://www.w3.org/2000/svg" width="16" height="16"><style type="text/css">.icon-canvas-transparent{opacity:0;fill:#F6F6F6;} .icon-vs-bg{fill:#424242;} .icon-vs-fg{fill:#F0EFF1;} .icon-vs-out{fill:#F6F6F6;}</style><path class="icon-canvas-transparent" d="M16 16h-16v-16h16v16z" id="canvas"/><path class="icon-vs-out" d="M15 9v4h-1v3h-11.99c-.023.021 0-13 0-13h1.99v-1h1.01c.413-1.164 1.707-2 3.01-2 1.305 0 2.578.836 2.99 2h1v1h1.99v6h1z" id="outline"/><path class="icon-vs-bg" d="M7 9h-2v-1h3l-1 1zm4-2v-1h-6v1h6zm-6 3v1l1-1h-1zm1 2h-1v1h2l-1-1zm2 2l1 1h-6v-11h2v-1h1.01c0-1.104.896-2 2-2 1.105 0 2 .896 2 2h.99v1h2v3h-1v-2h-8v9h4zm-.99-11c0 .553.459 1 1.01 1 .553 0 .99-.447.99-1s-.447-1-1-1c-.551 0-1 .447-1 1zm6.99 7h-4l2-2h-2l-3 3 3 3h2l-2-2h4v-2z" id="iconBg"/><g id="iconFg"><path class="icon-vs-fg" d="M7.01 3c0-.553.449-1 1-1 .553 0 1 .447 1 1s-.438 1-.99 1c-.551 0-1.01-.447-1.01-1zm-.01 10h-2v-1h1l-1-1v-1h1l1-1h-2v-1h3l1-1h-4v-1h6v1h1v-2h-8v9h4l-1-1z"/></g></svg>