<svg xmlns="http://www.w3.org/2000/svg" viewBox="0 0 16 16"><style>.icon-canvas-transparent{opacity:0;fill:#f6f6f6}.icon-vs-out{fill:#f6f6f6}.icon-vs-bg{fill:#424242}.icon-vs-blue{fill:#1ba1e2}.icon-vs-green{fill:#393}.icon-vs-red{fill:#e51400}.icon-vs-yellow{fill:#fc0}.icon-white{fill:#fff}.icon-vs-action-purple{fill:#652d90}</style><path class="icon-canvas-transparent" d="M16 16H0V0h16v16z" id="canvas"/><path class="icon-vs-out" d="M9 0a6.98 6.98 0 0 0-4.693 1.819S0 5.966 0 9c0 1.379 1.122 2.5 2.5 2.5.736 0 1.442-.241 1.988-.68a.435.435 0 0 1 .262-.07.5.5 0 0 1 .5.5c0 .129-.036.22-.071.263A3.17 3.17 0 0 0 4.5 13.5C4.5 14.879 5.622 16 7 16c3.033 0 7.18-4.307 7.18-4.307A6.972 6.972 0 0 0 16 7c0-3.86-3.141-7-7-7z" id="outline"/><path class="icon-white" d="M4.75 9C5.991 9 7 10.01 7 11.25c0 .511-.163.993-.458 1.36a1.42 1.42 0 0 0-.292.89c0 .413.336.75.75.75A5.256 5.256 0 0 0 12.25 9 5.256 5.256 0 0 0 7 3.75 5.256 5.256 0 0 0 1.75 9c0 .413.336.75.75.75.34 0 .656-.104.89-.292A2.17 2.17 0 0 1 4.75 9z" id="iconFg"/><g id="iconBg"><path class="icon-vs-bg" d="M7 15c-.827 0-1.5-.673-1.5-1.5 0-.511.163-.993.458-1.36.188-.233.292-.55.292-.89 0-.827-.673-1.5-1.5-1.5-.34 0-.656.104-.89.292a2.17 2.17 0 0 1-1.36.458C1.673 10.5 1 9.827 1 9c0-3.309 2.691-6 6-6s6 2.691 6 6-2.691 6-6 6zM4.75 9C5.991 9 7 10.01 7 11.25c0 .511-.163.993-.458 1.36a1.42 1.42 0 0 0-.292.89c0 .413.336.75.75.75A5.256 5.256 0 0 0 12.25 9 5.256 5.256 0 0 0 7 3.75 5.256 5.256 0 0 0 1.75 9c0 .413.336.75.75.75.34 0 .656-.104.89-.292A2.17 2.17 0 0 1 4.75 9zm2.028-6.739A5.192 5.192 0 0 1 9 1.75 5.256 5.256 0 0 1 14.25 7c0 .797-.192 1.544-.511 2.222a6.695 6.695 0 0 1-.299 1.8A5.97 5.97 0 0 0 15 7c0-3.309-2.691-6-6-6a5.966 5.966 0 0 0-4.021 1.56 6.72 6.72 0 0 1 1.799-.299z"/><path class="icon-vs-action-purple" d="M4.75 7.5a.75.75 0 1 1-1.5 0 .75.75 0 0 1 1.5 0z"/><path class="icon-vs-blue" d="M7 6a.75.75 0 1 1-1.5 0A.75.75 0 0 1 7 6z"/><path class="icon-vs-green" d="M10 6.75a.75.75 0 1 1-1.5 0 .75.75 0 0 1 1.5 0z"/><path class="icon-vs-yellow" d="M10.75 9.75a.75.75 0 1 1-1.5 0 .75.75 0 0 1 1.5 0z"/><path class="icon-vs-red" d="M9.25 12a.75.75 0 1 1-1.5 0 .75.75 0 0 1 1.5 0z"/></g></svg>