<svg xmlns="http://www.w3.org/2000/svg" viewBox="0 0 16 16"><style>.st0{fill:#f6f6f6}.st1{fill:#424242}.st2{fill:#f0eff1}</style><path class="st0" d="M8.792 0h-.584L.999 3.957l.021 8.098L8.164 16h.514l7.298-4.006.026-8.037z" id="outline"/><path class="st1" d="M8.5.98L2 4.548l.019 6.916L8.422 15l6.556-3.599L15 4.548 8.5.98zm0 1.059l5.1 2.872-1.954.888L8.5 4 5.378 5.784 3.3 4.92l5.2-2.881zM9 8.312l2-1.021V9.42l-2 1.143V8.312zM6 7.277l2 1.022v2.263L6 9.42V7.277zm2.571-.023l-1.905-.877-.155-.088L8.5 5.152l1.988 1.136-.588.337-1.329.629zM3 11V5.9l2 .867V10l3 1.727V13.7L3 11zm5.972 2.7l.01-1.976L12 10V6.78l2-1.021.005 5.179L8.972 13.7z" id="icon_x5F_bg"/><g id="icon_x5F_fg"><path class="st2" d="M8.5 2.039l5.1 2.871-1.954.888L8.5 4 5.378 5.784 3.3 4.92zM9 8.312l2-1.021V9.42l-2 1.143zM6 7.277l2 1.022v2.264L6 9.42z"/><path class="st2" d="M8.571 7.254l-1.905-.877-.155-.088L8.5 5.152l1.988 1.137-.588.336zM3 11V5.9l2 .867V10l3 1.727V13.7zM8.972 13.7l.01-1.975L12 10V6.78l2-1.021.005 5.179z"/></g></svg>