<svg xmlns="http://www.w3.org/2000/svg" viewBox="0 0 16 16"><style>.st0{opacity:0}.st0,.st1{fill:#f6f6f6}.st2{fill:#424242}</style><g id="outline"><path class="st0" d="M0 0h16v16H0z"/><path class="st1" d="M11 6v.831c-.82-.534-1.785-.817-2.892-.817a5.58 5.58 0 0 0-.764.057L9.414 4l-4-4H.586l2 2H0v14h5.001v-.863c.821.566 1.812.863 2.97.863.98 0 1.828-.146 2.515-.436l.514-.216V16h5V6h-5zm-8 7v-1.684c.019.608.119 1.172.311 1.684H3zm0-2.045V9h.415A5.28 5.28 0 0 0 3 10.955zM13 13h-.756c.467-.607.719-1.357.756-2.227V13zm0-2.611A4.554 4.554 0 0 0 12.74 9H13v1.389z"/></g><g id="icon_x5F_bg"><path class="st2" d="M5 7l3-3-3-3H3l2 2H1v2h4L3 7zM12 7v1h2v6h-2v1h3V7z"/><path class="st2" d="M8.821 12.148h-.026c-.234.699-.693 1.047-1.375 1.047-.435 0-.786-.164-1.052-.488-.268-.326-.4-.766-.4-1.314 0-.731.183-1.336.549-1.818.365-.482.847-.723 1.445-.723.229 0 .43.063.609.186.18.125.293.275.346.449h.016c.01-.09.033-.277.072-.557h.809c-.152 1.709-.229 2.58-.229 2.611 0 .643.168.963.502.963.307 0 .561-.178.76-.537.203-.357.303-.822.303-1.393 0-.842-.271-1.529-.816-2.061-.545-.533-1.301-.8-2.265-.8-.928 0-1.692.324-2.3.969-.608.643-.912 1.449-.912 2.42 0 .955.293 1.725.877 2.311.586.586 1.373.881 2.363.881.783 0 1.451-.133 2.003-.4v.75c-.569.237-1.277.356-2.129.356-1.195 0-2.16-.356-2.889-1.068-.731-.711-1.098-1.644-1.098-2.797 0-1.189.387-2.17 1.16-2.95.774-.781 1.761-1.171 2.963-1.171 1.126 0 2.06.328 2.8.982.738.655 1.107 1.508 1.107 2.559 0 .771-.199 1.404-.602 1.898-.4.496-.891.742-1.469.742-.744 0-1.12-.347-1.122-1.047zm-.778-2.607c-.355 0-.645.174-.863.523-.22.352-.33.787-.33 1.309 0 .348.074.625.22.828a.702.702 0 0 0 .594.303c.355 0 .639-.184.85-.553.207-.365.311-.853.311-1.457 0-.638-.26-.953-.782-.953zM2 8H1v7h3v-1H2z"/></g></svg>