<svg xmlns="http://www.w3.org/2000/svg" viewBox="0 0 16 16"><style>.icon-vs-out{fill:#f6f6f6}.icon-vs-bg{fill:#424242}.icon-vs-action-blue{fill:#00539c}</style><path class="icon-vs-out" d="M16 16H0V0h16v16z" id="outline"/><path class="icon-vs-bg" d="M2 5H1V1h4v1H2v3zm9-4v1h3v3h1V1h-4zM2 11H1v4h4v-1H2v-3zm12 3h-3v1h4v-4h-1v3zM4 5.086L6.414 7.5 4 9.914V13h8V9.914L9.586 7.5 12 5.086V3H4v2.086z" id="iconBg"/><path class="icon-vs-action-blue" d="M13 7h2v1h-2l1 1h-1.5L11 7.5 12.5 6H14l-1 1zM2 9h1.5L5 7.5 3.5 6H2l1 1H1v1h2L2 9z" id="colorAction"/></svg>