<svg xmlns="http://www.w3.org/2000/svg" width="16" height="16"><style type="text/css">.icon-canvas-transparent{opacity:0;fill:#F6F6F6;} .icon-vs-out{fill:#F6F6F6;} .icon-vs-bg{fill:#424242;} .icon-vs-action-green{fill:#388A34;}</style><path class="icon-canvas-transparent" d="M16 16h-16v-16h16v16z" id="canvas"/><path class="icon-vs-out" d="M16 5.396c0 1.191-.433 2.42-1.157 3.286-.833.934-5.899 6.315-6.114 6.544l-.729.774-.728-.773-1.154-1.227h-.118v2h-4v-2h-2v-4h2v-.396l-.824-.897c-.744-.891-1.176-2.119-1.176-3.311 0-2.586 2.337-4.855 5-4.855.868 0 2.001.307 3 1.56.999-1.253 2.132-1.56 3-1.56 2.663 0 5 2.269 5 4.855z" id="outline"/><path class="icon-vs-bg" d="M11 1.541c-1.477 0-2.409 1.192-3 2.5-.591-1.308-1.525-2.5-3-2.5-2.037 0-4 1.727-4 3.855 0 .973.354 1.965.922 2.645l.078.086v-.127h4v2h2v4h-.509l.509.541s5.264-5.59 6.076-6.5c.568-.68.924-1.672.924-2.645 0-2.128-1.961-3.855-4-3.855z" id="iconBg"/><g id="colorImportant"><path class="icon-vs-action-green" d="M3.018 13h-2.018v-1.982h2.018v-2.018h1.982v2.018h2v1.982h-2v2h-1.982v-2z"/></g></svg>