<svg xmlns="http://www.w3.org/2000/svg" viewBox="0 0 16 16"><style>.st0{opacity:0}.st0,.st1{fill:#f6f6f6}.st2{fill:#424242}.st3{fill:#f0eff1}</style><g id="outline"><path class="st0" d="M0 0h16v16H0z"/><path class="st1" d="M16 1h-4.5c-.636 0-1.116.236-1.498.545A2.316 2.316 0 0 0 8.5 1H4v6.677l-4 .841v2.953l1-.231V12H0v3h9v-.257a3.1 3.1 0 0 1 .207.057 4.254 4.254 0 0 0 .863.174c.159.018.32.026.477.026.439 0 .834-.058 1.167-.168a2.61 2.61 0 0 0 .943-.526c.274-.241.479-.53.611-.858.123-.303.184-.629.184-.97a2.097 2.097 0 0 0-.431-1.296c.076-.141.139-.292.184-.455.06-.22.089-.444.089-.669 0-.018-.005-.038-.006-.057H16V1z"/></g><g id="icon_x5F_bg"><path class="st2" d="M11.5 2c-.624 0-.984.365-1.5 1-.508-.626-.861-.996-1.5-1H5v6.271a.218.218 0 0 0 .027-.011c.14-.066.328-.127.5-.183.146-.046.31-.08.473-.111V3h2c.566 0 1 .663 1 1v4H7.523c.083.021.173.035.251.063.199.072.376.168.541.277l.476-.164c.078-.038.285-.08.398-.123.114-.043.295-.084.441-.121.147-.037.327-.066.489-.088.173-.021.364-.033.551-.033.117 0 .221.015.33.024V4c0-.385.41-1 1-1h2v5h-2.193c.308.116.581.273.798.473.166.154.295.335.404.527H15V2h-3.5zM1.027 14v-.874h1.04v-3.125L1 10.231v-.895l2.17-.438v4.228h1.032V14H1.027zM5 13.989v-.86l1.438-1.375c.151-.144.278-.275.382-.393.102-.116.185-.225.246-.325a1.043 1.043 0 0 0 .17-.574.801.801 0 0 0-.049-.281.604.604 0 0 0-.379-.361.996.996 0 0 0-.328-.05c-.119 0-.234.014-.347.04-.112.027-.22.064-.325.112a2.249 2.249 0 0 0-.561.362v-.973a2.1 2.1 0 0 1 .268-.146 2.876 2.876 0 0 1 1.203-.27c.277 0 .518.037.723.11.204.073.372.175.505.303.134.129.231.28.296.453.064.174.096.36.096.558a1.752 1.752 0 0 1-.233.879 2.832 2.832 0 0 1-.322.453 4.69 4.69 0 0 1-.484.484l-1.032.917v.021h2.036v.916H5zM12.453 12.477c0 .213-.037.411-.111.595a1.258 1.258 0 0 1-.346.483 1.616 1.616 0 0 1-.592.325c-.24.081-.527.12-.857.12-.121 0-.244-.006-.367-.019a3.547 3.547 0 0 1-.352-.052 2.795 2.795 0 0 1-.316-.081 1.686 1.686 0 0 1-.25-.1v-.962a1.884 1.884 0 0 0 .57.276 2.308 2.308 0 0 0 .606.09c.293 0 .516-.063.67-.188a.607.607 0 0 0 .232-.502.581.581 0 0 0-.311-.531 1.164 1.164 0 0 0-.35-.128 2.254 2.254 0 0 0-.441-.042h-.451v-.847h.416c.174 0 .32-.016.445-.049a.887.887 0 0 0 .305-.137.548.548 0 0 0 .237-.465.671.671 0 0 0-.043-.245.486.486 0 0 0-.137-.194.635.635 0 0 0-.236-.128 1.18 1.18 0 0 0-.342-.046c-.096 0-.189.01-.283.028-.092.02-.18.044-.262.073a2.179 2.179 0 0 0-.436.228v-.903a2.713 2.713 0 0 1 .487-.177 3.153 3.153 0 0 1 .746-.088c.293 0 .543.036.748.11.205.073.371.17.498.287.129.118.221.251.279.398.059.148.088.299.088.45 0 .143-.02.277-.055.407a1.108 1.108 0 0 1-.481.64c-.123.08-.273.142-.449.184v.018c.184.023.348.069.49.14a1.117 1.117 0 0 1 .651 1.032z"/></g><g id="icon_x5F_fg"><path class="st3" d="M6.089 7.945a3.83 3.83 0 0 1 .622-.05c.292 0 .56.042.812.105H9V4c0-.337-.434-1-1-1H6v4.966c.031-.006.059-.015.089-.021zM12 3c-.59 0-1 .615-1 1v3.834c.127.01.251.024.367.046.141.024.274.055.397.1.015.005.027.014.042.02H14V3h-2z"/></g></svg>