<svg xmlns="http://www.w3.org/2000/svg" viewBox="0 0 16 16"><style>.st0{opacity:0}.st0,.st1{fill:#f6f6f6}.st2{fill:#424242}.st3{fill:#f0eff1}</style><g id="outline"><path class="st0" d="M0 0h16v16H0z"/><path class="st1" d="M9 0h7v15H9zM6 0H2v2H0v4h2v3H0v4h2v2h4v-2h2V9H6V6h2V2H6z"/></g><g id="icon_x5F_bg"><path class="st2" d="M5 1H3v2H1v2h2v2h2V5h2V3H5zM5 8H3v2H1v2h2v2h2v-2h2v-2H5zM10 1v3h5V1h-5zm4 2h-3V2h3v1zM10 9h5V6h-5v3zm1-2h3v1h-3V7zM10 14h5v-3h-5v3zm1-2h3v1h-3v-1z"/></g><g id="icon_x5F_fg"><path class="st3" d="M11 2h3v1h-3zM11 7h3v1h-3zM11 12h3v1h-3z"/></g></svg>