<svg xmlns="http://www.w3.org/2000/svg" viewBox="0 0 16 16"><style>.st0{opacity:0}.st0,.st1{fill:#f6f6f6}.st2{fill:#424242}.st3{fill:#f0eff1}</style><g id="outline"><path class="st0" d="M0 0h16v16H0z"/><path class="st1" d="M16 3h-3V1h-2V0H8v1H6v2H3v5.913l-3 .605v2.953l1.067-.231v.886H.027V16h5.174v-.011h4.102v-.165c.105.031.212.062.33.085.145.029.295.052.436.065.16.018.321.026.478.026.439 0 .834-.058 1.167-.168a2.61 2.61 0 0 0 .943-.526c.274-.241.479-.53.611-.858.123-.303.184-.629.184-.97a2.097 2.097 0 0 0-.431-1.296c.076-.141.139-.292.184-.455.06-.22.09-.444.09-.669 0-.018-.005-.038-.006-.057H16V3z"/></g><g id="icon_x5F_bg"><path class="st2" d="M10 3h2V2h-2V1H9v1H7v1h2zM1.028 15v-.874h1.04v-3.125L1 11.231v-.895l2.169-.437v4.228h1.033V15H1.028zM5 14.989v-.86l1.438-1.375c.151-.144.278-.275.381-.393.103-.116.185-.225.247-.325s.105-.196.131-.289c.026-.092.039-.187.039-.285a.801.801 0 0 0-.049-.281.614.614 0 0 0-.144-.219.667.667 0 0 0-.236-.142.993.993 0 0 0-.327-.051c-.119 0-.235.014-.347.04-.112.027-.22.064-.325.112a2.14 2.14 0 0 0-.298.164 2.806 2.806 0 0 0-.262.198v-.974a2.1 2.1 0 0 1 .268-.146 2.859 2.859 0 0 1 1.203-.27c.278 0 .518.037.723.11.204.073.373.175.505.303.133.129.231.28.296.453.064.174.096.36.096.558 0 .15-.018.297-.054.441-.036.146-.096.29-.178.438-.083.146-.19.298-.322.453a4.69 4.69 0 0 1-.484.484l-1.033.917v.021h2.037v.916H5zM12.453 13.477c0 .213-.037.411-.111.595a1.258 1.258 0 0 1-.346.483 1.616 1.616 0 0 1-.592.325c-.24.081-.527.12-.857.12-.121 0-.244-.006-.367-.019a3.547 3.547 0 0 1-.352-.052 2.795 2.795 0 0 1-.316-.081 1.686 1.686 0 0 1-.25-.1v-.962a1.884 1.884 0 0 0 .57.276 2.308 2.308 0 0 0 .606.09c.293 0 .516-.063.67-.188a.607.607 0 0 0 .232-.502.581.581 0 0 0-.311-.531 1.164 1.164 0 0 0-.35-.128 2.254 2.254 0 0 0-.441-.042h-.451v-.847h.416c.174 0 .32-.016.445-.049a.887.887 0 0 0 .305-.137.548.548 0 0 0 .237-.465.671.671 0 0 0-.043-.245.486.486 0 0 0-.137-.194.635.635 0 0 0-.236-.128 1.18 1.18 0 0 0-.342-.046c-.096 0-.189.01-.283.028-.092.02-.18.044-.262.073a2.072 2.072 0 0 0-.435.225v-.903c.057-.027.125-.058.207-.089.081-.028.173-.057.279-.085a3.153 3.153 0 0 1 .746-.088c.293 0 .543.036.748.11.205.073.371.17.498.287.129.118.221.251.279.398.059.149.088.299.088.45 0 .143-.02.277-.055.407a1.108 1.108 0 0 1-.481.64c-.123.08-.273.142-.449.184v.018c.184.023.348.069.49.14a1.117 1.117 0 0 1 .651 1.032zM9.302 9.053c.05-.019.113-.035.168-.053H7.527c.083.021.172.035.251.063.258.093.478.228.678.383l.561-.271c.078-.037.171-.079.285-.122z"/><path class="st2" d="M14 4H4v6c.461-.434 1.156-.769 1.569-.926.099-.03.205-.05.308-.074H5V5h9v4H11.813c.308.115.578.272.795.474.167.153.295.334.402.526H15V4h-1z"/></g><path class="st3" d="M5 5v4h.877c.076-.018.147-.041.227-.055.198-.033.403-.051.614-.051.292 0 .558.042.809.105H9.47c.07-.023.135-.047.217-.068.147-.037.299-.066.461-.088a4.42 4.42 0 0 1 .536-.033c.416 0 .773.056 1.088.17.015.005.027.014.042.02H14V5H5z" id="icon_x5F_fg"/></svg>