<svg xmlns="http://www.w3.org/2000/svg" viewBox="0 0 16 16"><style>.st0{opacity:0}.st0,.st1{fill:#f6f6f6}.st2{fill:#424242}.st3{fill:none}.st4{fill:#f0eff1}</style><g id="outline"><path class="st0" d="M0 0h16v16H0z"/><path class="st1" d="M0 1h16v13H0z"/></g><path class="st2" d="M4 5h2v5H5V6H4V5zm11-3v11H1V2h14zM7 4H3v7h4V4zm6 2H9v5h2V8h-1V7h2v4h1V6z" id="icon_x5F_bg"/><g id="icon_x5F_fg"><path class="st3" d="M5 10h1V5H4v1h1z"/><path class="st4" d="M3 11h4V4H3v7zm1-6h2v5H5V6H4V5zM9 6v5h2V8h-1V7h2v4h1V6z"/></g></svg>