<svg xmlns="http://www.w3.org/2000/svg" viewBox="0 0 16 16"><style>.st0{opacity:0}.st0,.st1{fill:#f6f6f6}.st2{fill:#424242}.st3{fill:#f0eff1}</style><g id="outline"><path class="st0" d="M0 0h16v16H0z"/><path class="st1" d="M16 3h-4V0H4v6H3v2.005l.005.906L0 9.518v2.953l1.067-.231v.886H.027V16h5.175v-.011h4.101v-.165c.105.031.212.062.331.085.145.029.295.052.436.065.159.018.32.026.477.026.439 0 .834-.058 1.167-.168a2.61 2.61 0 0 0 .943-.526c.274-.241.479-.53.611-.858.123-.303.184-.629.184-.97a2.14 2.14 0 0 0-.059-.477H16V3z"/></g><g id="icon_x5F_bg"><path class="st2" d="M1.027 15v-.874h1.04v-3.125L1 11.231v-.895l2.17-.437v4.228h1.032V15H1.027zM5 14.989v-.86l1.438-1.375c.151-.144.278-.275.382-.393.102-.116.185-.225.246-.325a1.043 1.043 0 0 0 .17-.574.801.801 0 0 0-.049-.281.604.604 0 0 0-.38-.361.993.993 0 0 0-.327-.051c-.119 0-.234.014-.347.04-.112.027-.22.064-.325.112a2.14 2.14 0 0 0-.298.164 2.961 2.961 0 0 0-.263.198v-.974a2.1 2.1 0 0 1 .268-.146 2.876 2.876 0 0 1 1.203-.27c.277 0 .518.037.723.11.203.073.372.175.505.303.134.129.231.28.296.453.064.174.096.36.096.558a1.752 1.752 0 0 1-.233.879 2.832 2.832 0 0 1-.322.453 4.69 4.69 0 0 1-.484.484l-1.032.917v.021h2.036v.916H5zM12.453 13.477c0 .213-.037.411-.111.595a1.258 1.258 0 0 1-.346.483 1.616 1.616 0 0 1-.592.325c-.24.081-.527.12-.857.12-.121 0-.244-.006-.367-.019a3.547 3.547 0 0 1-.352-.052 2.795 2.795 0 0 1-.316-.081 1.686 1.686 0 0 1-.25-.1v-.962a1.884 1.884 0 0 0 .57.276 2.308 2.308 0 0 0 .606.09c.293 0 .516-.063.67-.188a.607.607 0 0 0 .232-.502.581.581 0 0 0-.311-.531 1.164 1.164 0 0 0-.35-.128 2.254 2.254 0 0 0-.441-.042h-.451v-.847h.416c.174 0 .32-.016.445-.049a.887.887 0 0 0 .305-.137.548.548 0 0 0 .237-.465.671.671 0 0 0-.043-.245.486.486 0 0 0-.137-.194.635.635 0 0 0-.236-.128 1.18 1.18 0 0 0-.342-.046c-.096 0-.189.01-.283.028-.092.02-.18.044-.262.073a2.072 2.072 0 0 0-.435.225v-.903c.057-.027.125-.058.207-.089.081-.028.173-.057.279-.085a3.153 3.153 0 0 1 .746-.088c.293 0 .543.036.748.11.205.073.371.17.498.287.129.118.221.251.279.398.059.149.088.299.088.45 0 .143-.02.277-.055.407a1.108 1.108 0 0 1-.481.64c-.123.08-.273.142-.449.184v.018c.184.023.348.069.49.14a1.117 1.117 0 0 1 .651 1.032zM6 2h4v1h1V1H5v5h1zM5.006 9.297L4.999 8h3.995L9 9.181l.011-.005a3.44 3.44 0 0 1 .669-.244c.102-.026.212-.043.32-.061L9.993 7H4v1l.009 1.811c.379-.223.72-.389.997-.514z"/><path class="st2" d="M9 4v2h1V5h4v6h-.709c.001.019.006.038.006.057 0 .225-.03.449-.09.669-.027.098-.072.184-.111.274H15V4H9z"/></g><g id="icon_x5F_fg"><path class="st3" d="M8 3h2V2H6v4h2zM5.438 9.109l.002.014c.042-.015.075-.032.119-.046.173-.055.353-.099.547-.132.197-.033.402-.051.614-.051.39 0 .746.057 1.059.169.259.094.479.228.678.383L9 9.184V8H5v1.3c.177-.08.333-.148.438-.191zM10 5v1h1v2.833c.28.022.542.064.771.147.326.116.609.282.837.493.235.216.415.474.53.764.099.248.147.505.152.763H14V5h-4z"/></g></svg>