<svg xmlns="http://www.w3.org/2000/svg" viewBox="0 0 16 16"><style>.st0{opacity:0}.st0,.st1{fill:#f6f6f6}.st2{fill:#424242}.st3{fill:#9b4f96}.st4{fill:none}.st5{fill:#f0eff1}</style><g id="outline"><path class="st0" d="M0 0h16v16H0z"/><path class="st1" d="M0 1h16v14H0z"/></g><g id="icon_x5F_bg"><path class="st2" d="M9 5H7V3H5v2H3v2h2v2h2V7h2z"/><path class="st2" d="M13 9h-2V7H9v2H7v2h2v2h2v-2h2z"/></g><path class="st3" d="M1 2v12h14V2H1zm13 11H2V3h12v10z" id="color_x5F_importance"/><g id="icon_x5F_fg"><path class="st4" d="M5 3h2v6H5z"/><path class="st4" d="M3 5h6v2H3z"/><path class="st5" d="M7 7h2v2H7z"/><path class="st5" d="M5 7H3V5h2V3H2v10h7v-2H7V9H5zM7 3v2h2v2h2v2h2v2h-2v2h3V3z"/></g></svg>