<?xml version="1.0" encoding="iso-8859-1"?>
<!-- Generator: Adobe Illustrator 21.0.0, SVG Export Plug-In . SVG Version: 6.00 Build 0)  -->
<svg version="1.1" xmlns="http://www.w3.org/2000/svg" xmlns:xlink="http://www.w3.org/1999/xlink" x="0px" y="0px"
	 viewBox="0 0 16 16" style="enable-background:new 0 0 16 16;" xml:space="preserve">
<style type="text/css">
	.icon_x002D_canvas_x002D_transparent{opacity:0;fill:#F6F6F6;}
	.icon_x002D_vs_x002D_out{fill:#F6F6F6;}
	.icon_x002D_vs_x002D_fg{fill:#F0EFF1;}
	.icon_x002D_cpp_x002D_purple{fill:#9B4F96;}
	.icon_x002D_vs_x002D_blue{fill:#1BA1E2;}
</style>
<g id="canvas">
	<path class="icon_x002D_canvas_x002D_transparent" d="M16,16H0V0h16V16z"/>
</g>
<g id="outline">
	<path class="icon_x002D_vs_x002D_out" d="M16,3v6c0,1.711-2.149,3-5,3c-1.149,0-2.174-0.217-3-0.579V16H0V5h6V3
		c0-1.711,2.149-3,5-3C13.851,0,16,1.289,16,3z"/>
</g>
<g id="iconBg">
	<path class="icon_x002D_vs_x002D_blue" d="M11,1C8.791,1,7,1.896,7,3v2h1v5.311C8.733,10.729,9.799,11,11,11c2.209,0,4-0.896,4-2V3
		C15,1.896,13.209,1,11,1z M11,4.325C9.001,4.325,7.675,3.527,7.675,3S9.001,1.675,11,1.675c1.999,0,3.325,0.798,3.325,1.325
		S12.999,4.325,11,4.325z"/>
</g>
<g id="iconFg">
	<path class="icon_x002D_vs_x002D_fg" d="M5,13h1v1H5V13z M6,7H2v1h4V7z M6,9H2v1h4V9z M11,1.675C9.001,1.675,7.675,2.473,7.675,3
		S9.001,4.325,11,4.325c1.999,0,3.325-0.798,3.325-1.325S12.999,1.675,11,1.675z"/>
</g>
<g id="colorImportance">
	<path class="icon_x002D_cpp_x002D_purple" d="M1,15h6V6H1V15z M6,14H5v-1h1V14z M2,7h4v1H2V7z M2,9h4v1H2V9z"/>
</g>
</svg>
