<svg xmlns="http://www.w3.org/2000/svg" viewBox="0 0 16 16"><style>.st0{opacity:0}.st0,.st1{fill:#f6f6f6}.st2{fill:#424242}.st3{fill:#9b4f96}.st4{fill:#f0eff1}</style><g id="outline"><path class="st0" d="M0 0h16v16H0z"/><path class="st1" d="M14 8V3.556L10.061 0H4c-.97 0-2 .701-2 2v3.391a5.49 5.49 0 0 0 0 8.477V16h14V8h-2z"/></g><g id="icon_x5F_bg"><path class="st2" d="M5.295 12.215h.424l-.188-1.188z"/><path class="st2" d="M3 9v6h11.969V9H3zm3 5l-.25-1h-.5L5 14H4l1-4h1l1 4H6zm4.639-3h-1v3h-.967v-3H7.639v-1h3v1zm3.338 3h-2.008v-4h1.008v3h1v1z"/></g><g id="color_x5F_importance"><path class="st3" d="M9.641 1H3.964S3 1 3 2v2.737a5.416 5.416 0 0 1 1-.394V2h5v3h3v3h1V4L9.641 1z"/><path class="st3" d="M5.527 5.172a4.5 4.5 0 0 0-4.5 4.5 4.843 4.843 0 0 0 .067.743c.126.76.449 1.45.906 2.03v-1.688c-.004-.014-.013-.025-.018-.04l.018.005v-.743c-.049-.016-.108-.032-.155-.047-.007-.086-.014-.172-.014-.26 0-.364.07-.708.169-1.042V8h3.306c-.304-.01-.607-.023-.894-.056.15-.782.398-1.424.645-1.935.154-.02.311-.033.471-.033.106 0 .21.008.313.016a6.98 6.98 0 0 1 .786 1.997c-.164.011-.324.007-.485.011h3.545c-.665-1.653-2.268-2.828-4.16-2.828zm-1.81 2.67c-.443-.078-.85-.175-1.223-.28A3.706 3.706 0 0 1 4.188 6.23a8.568 8.568 0 0 0-.471 1.612zm3.608.066a7.459 7.459 0 0 0-.589-1.725c.757.262 1.4.758 1.844 1.406a7.275 7.275 0 0 1-1.255.319z"/></g><g id="icon_x5F_fg"><path class="st4" d="M8.58 7.588a3.695 3.695 0 0 0-1.844-1.405c.235.492.451 1.064.589 1.725a7.192 7.192 0 0 0 1.255-.32zM4.188 6.23a3.706 3.706 0 0 0-1.694 1.332c.373.105.779.202 1.223.28a8.568 8.568 0 0 1 .471-1.612zM2 10.722l-.018-.005c.004.015.013.026.018.04v-.035zM6.142 8c.161-.004.322 0 .484-.011a6.968 6.968 0 0 0-.786-1.997 3.997 3.997 0 0 0-.313-.016c-.16 0-.316.014-.471.033a7.91 7.91 0 0 0-.644 1.935c.287.033.59.046.894.056h.836zM2 8.63a3.636 3.636 0 0 0-.169 1.042c0 .088.007.174.014.26.047.015.106.031.155.047V8.63zM9 5V2H4v2.343a5.502 5.502 0 0 1 1.5-.213A5.511 5.511 0 0 1 10.754 8H12V5H9zM10.639 11v-1h-3v1h1.033v3h.967v-3zM5 10l-1 4h1l.25-1h.5L6 14h1l-1-4H5zm.295 2.215l.236-1.188.188 1.188h-.424zM13.992 13H13v-3h-1v4h2v-1z"/></g></svg>