<svg xmlns="http://www.w3.org/2000/svg" viewBox="0 0 16 16"><style>.icon-canvas-transparent{opacity:0;fill:#f6f6f6}.icon-vs-out{fill:#f6f6f6}.icon-vs-bg{fill:#424242}.icon-cpp-purple{fill:#9b4f96}.icon-vs-fg{fill:#f0eff1}</style><path class="icon-canvas-transparent" d="M16 16H0V0h16v16z" id="canvas"/><path class="icon-vs-out" d="M15.5 3h.5v13H0V3h5V2h2.5l2-2h4L16 2.5l-.5.5z" id="outline"/><path class="icon-vs-bg" d="M3.719 12.215h-.424l.236-1.188.188 1.188zM1 9h11.969v6H1V9zm8.969 5h2.008v-1h-1v-3H9.969v4zm-4.33-3h1.033v3h.967v-3h1v-1h-3v1zM2 14h1l.25-1h.5L4 14h1l-1-4H3l-1 4zm9.165-10.218l-.789-.789h2.255l-.789.789.707.707 1.967-1.986L12.545.514l-.707.707.789.789h-2.255l.789-.789-.707-.707L8.487 2.5l1.971 1.989.707-.707z" id="iconBg"/><path class="icon-cpp-purple" d="M5 8V4H1v4h4zM2 5h2v2H2V5zm8 0v3H6V3h1.5l1 1H7v1h2v-.5l.5.5h.5zm4.5-1h.5v11h-1V8h-3V5h1v2h2V5h-.5l1-1z" id="colorImportance"/><path class="icon-vs-fg" d="M2 5h2v2H2V5zm10 0v2h2V5h-2zm-3.361 6v-1h-3v1h1.033v3h.967v-3h1zM12 13v1h-2v-4h1v3h1zm-8-3H3l-1 4h1l.25-1h.5L4 14h1l-1-4zm-.705 2.215l.236-1.188.188 1.188h-.424zM8.5 4H7v1h2v-.5L8.5 4z" id="iconFg"/></svg>