<svg xmlns="http://www.w3.org/2000/svg" viewBox="0 0 16 16"><style>.st0{opacity:0}.st0,.st1{fill:#f6f6f6}.st2{display:none}.st3{display:inline;fill:#f0eff1}.st4{fill:#424242}.st5{fill:#9b4f96}.st6{fill:#f0eff1}</style><g id="outline"><path class="st0" d="M0 0h16v16H0z"/><path class="st1" d="M2 0v8H0v8h14V0z"/></g><g id="icon_x5F_bg"><g class="st2"><path class="st3" d="M3.008 9.98l-1 4h.85l.25-.969h.782l.25.969h.868l-1-4h-1zm.18 2.215l.352-1.293.32 1.293h-.672zM5.678 11.008h1v2.973h1v-2.973h1V9.98h-3zM11.008 12.906V9.98h-1v4.026h2v-1.1z"/></g><path class="st4" d="M1.031 9v6H13V9H1.031zm3.133 5l-.25-1h-.746l-.25 1h-.887l1-4h1l1 4h-.867zm2.539 0v-3H5.67v-1h3v1h-1v3h-.967zM12 14h-2v-4h1v3h1v1z"/><path class="st4" d="M3.203 12.215h.672l-.32-1.293z"/></g><path class="st5" d="M5 8V3h6v5h2V1H3v7z" id="color_x5F_importance"/><g id="icon_x5F_fg"><path class="st6" d="M3.031 10l-1 4h.887l.25-1h.746l.25 1h.867l-1-4h-1zm.172 2.215l.352-1.293.32 1.293h-.672zM8.67 11v-1h-3v1h1.033v3h.967v-3zM11 10h-1v4h2v-1h-1zM5 3h6v5H5z"/></g></svg>