<svg xmlns="http://www.w3.org/2000/svg" viewBox="0 0 16 16"><style>.st0{opacity:0}.st0,.st1{fill:#f6f6f6}.st2{fill:#424242}.st3{fill:#9b4f96}.st4{fill:#f0eff1}</style><g id="outline"><path class="st0" d="M0 0h16v16H0z"/><path class="st1" d="M16 1H0v15h14v-1h2z"/></g><g id="icon_x5F_bg"><path class="st2" d="M3.326 12.215h.424l-.187-1.188z"/><path class="st2" d="M1.031 9v6H13V9H1.031zm3 5l-.25-1h-.5l-.25 1h-1l1-4h1l1 4h-1zm4.639-3h-1v3h-.967v-3H5.67v-1h3v1zm3.338 3H10v-4h1.008v3h1v1z"/></g><path class="st3" d="M1 2v6h1V5h12v9h1V2z" id="color_x5F_decoration"/><g id="icon_x5F_fg"><path class="st4" d="M2 5h12v3H2zM8.67 11v-1h-3v1h1.033v3h.967v-3zM3.031 10l-1 4h1l.25-1h.5l.25 1h1l-1-4h-1zm.295 2.215l.236-1.188.188 1.188h-.424zM11.008 13v-3H10v4h2.008v-1H12z"/></g></svg>