<svg xmlns="http://www.w3.org/2000/svg" viewBox="0 0 16 16"><style>.st0{opacity:0}.st0,.st1{fill:#f6f6f6}.st2{fill:#424242}.st3{fill:#9b4f96}.st4{fill:#f0eff1}</style><g id="outline"><path class="st0" d="M0 0h16v16H0z"/><path class="st1" d="M16 7.414v-.829l-3-2.999L11.586 5H9.414l1-1-4-4h-.828L0 5.585v.829L1.586 8H0v8h14v-1.586l2-2v-.828l-2-2v-.172z"/></g><g id="icon_x5F_bg"><path class="st2" d="M1 9v6h11.969V9H1zm3 5l-.25-1h-.5L3 14H2l1-4h1l1 4H4zm4.639-3h-1v3h-.967v-3H5.639v-1h3v1zm3.338 3H9.969v-4h1.008v3h1v1z"/><path class="st2" d="M3.531 11.027l-.236 1.188h.424z"/></g><g id="color_x5F_importance"><path class="st3" d="M5 8l1-1h2v1h1V7h2l-1 1h4l1-1-2-2-1 1H7l2-2-3-3-5 5 2 2zM14 13l1-1-1-1z"/></g><g id="icon_x5F_fg"><path class="st4" d="M8.639 11v-1h-3v1h1.033v3h.967v-3zM11.992 13H11v-3h-1v4h2v-1zM4 10H3l-1 4h1l.25-1h.5L4 14h1l-1-4zm-.705 2.215l.236-1.188.188 1.188h-.424z"/></g></svg>