<svg xmlns="http://www.w3.org/2000/svg" viewBox="0 0 16 16"><style>.st0{opacity:0}.st0,.st1{fill:#f6f6f6}.st2{fill:#424242}.st3{fill:#9b4f96}.st4{fill:#f0eff1}</style><g id="outline"><path class="st0" d="M0 0h16v16H0z"/><path class="st1" d="M16 5c0-.703-.15-1.394-.448-2.053l-.595-1.318L12 4.586 11.414 4l2.957-2.957-1.319-.596A4.96 4.96 0 0 0 11 0C8.243 0 6 2.242 6 5c0 .469.067.934.2 1.385L4.585 8H0v8h14V8.975c1.208-.913 2-2.348 2-3.975z"/></g><g id="icon_x5F_bg"><path class="st2" d="M1.031 9v6H13V9H1.031zm3 5l-.25-1h-.5l-.25 1h-1l1-4h1l1 4h-1zm4.639-3h-1v3h-.967v-3H5.67v-1h3v1zM12 14h-2v-4h1v3h1v1z"/><path class="st2" d="M3.203 12.215l.352-1.293.32 1.293z"/></g><path class="st3" d="M6 8h7.62A3.972 3.972 0 0 0 15 5c0-.586-.133-1.139-.359-1.641L12 6l-2-2 2.641-2.641A3.984 3.984 0 0 0 11 1a4 4 0 0 0-4 4c0 .586.133 1.139.359 1.641L6 8z" id="color_x5F_decoration"/><g id="icon_x5F_fg"><path class="st4" d="M3.023 10l-1 4h1l.25-.969h.5l.25.969h1l-1-4h-1zm.18 2.215l.352-1.293.32 1.293h-.672zM5.693 11.027h1V14h1v-2.973h1V10h-3zM11.023 12.926V10h-1v4.025h2v-1.099z"/></g></svg>