<svg xmlns="http://www.w3.org/2000/svg" viewBox="0 0 16 16"><style>.st0{opacity:0}.st0,.st1{fill:#f6f6f6}.st2{fill:#424242}.st3{fill:#9b4f96}.st4{fill:#f0eff1}</style><g id="outline"><path class="st0" d="M0 0h16v16H0z"/><path class="st1" d="M10.71.025A5.563 5.563 0 0 0 6 2.64V2H1v3h1v1H1v2H0v8h14v-5.981l.719-.752A5.398 5.398 0 0 0 16 7.01V4.007A5.478 5.478 0 0 0 10.71.025z"/></g><g id="icon_x5F_bg"><path class="st2" d="M1 9v6h11.969V9H1zm3 5l-.25-1h-.5L3 14H2l1-4h1l1 4H4zm4.639-3h-1v3h-.967v-3H5.639v-1h3v1zm3.33 3h-2v-4h1v3h1v1z"/><path class="st2" d="M3.75 12.3L3.5 11l-.25 1.3"/></g><g id="color_x5F_importance"><path class="st3" d="M3 5h2v1H3zM2 3h3v1H2zM2 7h3v1H2zM14 8.09v.565a4.475 4.475 0 0 0 1.264-3.112c0-.052-.008-.102-.008-.152a4.499 4.499 0 0 0-8.993.152 4.843 4.843 0 0 0 .067.743c.104.627.347 1.203.682 1.714h1.012a3.685 3.685 0 0 1-.806-1.412c.513.156 1.101.309 1.765.414.065.33.151.663.254.998h.733c-.1-.303-.19-.604-.256-.901.336.033.686.057 1.045.059.086.002.174.002.258.002.225 0 .451-.006.678-.018-.084.273-.193.562-.312.858h.755c.122-.32.229-.63.311-.925a8.277 8.277 0 0 0 1.856-.473A3.714 3.714 0 0 1 13.513 8H14v.09zm-3.707-6.209c.153-.02.311-.033.471-.033.105 0 .209.008.313.016.301.521.607 1.186.785 1.996-.367.025-.729.029-1.094.025-.387-.004-.76-.029-1.119-.07.15-.781.398-1.424.644-1.934zM7.081 5.803c-.007-.086-.014-.172-.014-.26 0-.525.112-1.025.31-1.479.44.13.932.253 1.478.346a8.725 8.725 0 0 0-.049.81c-.004.341.021.695.063 1.05a12.584 12.584 0 0 1-1.788-.467zm1.872-2.089c-.444-.079-.85-.174-1.223-.28a3.706 3.706 0 0 1 1.694-1.332 8.495 8.495 0 0 0-.471 1.612zm2.932 2.708c-.375.025-.744.037-1.117.035-.41-.006-.803-.035-1.182-.078a7.734 7.734 0 0 1-.079-1.153c.002-.247.02-.507.044-.737.387.043.789.055 1.209.055h.258c.314 0 .633.012.957-.012.025.218.043.452.044.683a5.53 5.53 0 0 1-.134 1.207zm.088-4.368c.756.262 1.4.759 1.844 1.406a7.194 7.194 0 0 1-1.256.319 7.572 7.572 0 0 0-.588-1.725zm.644 4.284c.07-.393.107-.768.104-1.119a7.336 7.336 0 0 0-.049-.742 8.128 8.128 0 0 0 1.488-.389c.191.446.299.938.299 1.455 0 .08-.008.16-.012.24a7.444 7.444 0 0 1-1.83.555z"/></g><g id="icon_x5F_fg"><path class="st4" d="M11.018 7.159c-.084 0-.172 0-.258-.002-.36-.002-.709-.026-1.045-.059.065.298.156.599.256.902h1.412c.119-.295.229-.585.313-.858a14.04 14.04 0 0 1-.678.017zM12.449 7.075c-.082.295-.189.605-.311.925h1.375c.356-.399.634-.871.792-1.397a8.325 8.325 0 0 1-1.856.472zM7.218 6.588c.158.535.444 1.008.805 1.412h1.214a9.938 9.938 0 0 1-.254-.998 12.848 12.848 0 0 1-1.765-.414zM11.973 2.054c.234.492.451 1.063.588 1.726a7.33 7.33 0 0 0 1.256-.319 3.708 3.708 0 0 0-1.844-1.407zM11.018 4.543h-.258c-.42 0-.822-.012-1.209-.055-.024.23-.042.49-.044.737-.004.375.024.762.079 1.154.379.043.771.072 1.182.078.373.002.742-.01 1.117-.035a5.54 5.54 0 0 0 .135-1.207 6.564 6.564 0 0 0-.045-.683c-.325.023-.643.011-.957.011zM11.861 3.86a6.95 6.95 0 0 0-.785-1.996 4.022 4.022 0 0 0-.313-.016c-.16 0-.317.014-.471.033a7.842 7.842 0 0 0-.645 1.934c.359.041.732.066 1.119.07.367.004.728 0 1.095-.025zM14.459 5.543c0-.518-.107-1.009-.299-1.455a8.314 8.314 0 0 1-1.488.389c.025.24.047.484.049.742.004.352-.033.727-.104 1.119a7.532 7.532 0 0 0 1.83-.555c.004-.079.012-.159.012-.24zM8.855 4.41a12.745 12.745 0 0 1-1.478-.346c-.198.454-.31.954-.31 1.479 0 .088.007.174.014.26.5.168 1.097.342 1.788.467a8.194 8.194 0 0 1-.063-1.051c.003-.281.022-.548.049-.809zM7.73 3.434c.372.105.779.201 1.223.28a8.495 8.495 0 0 1 .471-1.612A3.706 3.706 0 0 0 7.73 3.434z"/><g><path class="st4" d="M3 10l-1 4h1l.25-.969h.5L4 14h1l-1-4H3zm.295 2.22L3.5 11l.219 1.22h-.424zM5.639 11.027h1V14h1v-2.973h1V10h-3zM10.969 12.926V10h-1v4.025h2v-1.099z"/></g></g></svg>