<svg xmlns="http://www.w3.org/2000/svg" viewBox="0 0 16 16"><style>.st0{opacity:0}.st0,.st1{fill:#f6f6f6}.st2{fill:#424242}.st3{fill:#9b4f96}.st4{fill:#f0eff1}</style><g id="outline"><path class="st0" d="M0 0h16v16H0z"/><path class="st1" d="M16 0H6.968l-4 8H0v8h14V8l2-2h-6z"/></g><g id="icon_x5F_bg"><path class="st2" d="M1 9v6h11.969V9H1zm3 5l-.25-1h-.5L3 14H2l1-4h1l1 4H4zm4.639-3h-1v3h-.967v-3H5.639v-1h3v1zm3.338 3H9.969v-4h1.008v3h1v1z"/><path class="st2" d="M3.531 11.027l-.236 1.188h.424z"/></g><path class="st3" d="M12.586 8l1-1h-6l6-6h-6l-3.5 7z" id="color_x5F_importance"/><g id="not_x5F_fg"><path class="st4" d="M8.639 11v-1h-3v1h1.033v3h.967v-3zM11.992 13H11v-3h-1v4h2v-1zM4 10H3l-1 4h1l.25-1h.5L4 14h1l-1-4zm-.705 2.215l.236-1.188.188 1.188h-.424z"/></g></svg>