<svg xmlns="http://www.w3.org/2000/svg" viewBox="0 0 16 16"><style>.st0{opacity:0}.st0,.st1{fill:#f6f6f6}.st2{fill:#424242}.st3{fill:#9b4f96}.st4{fill:#f0eff1}</style><g id="outline"><path class="st0" d="M0 0h16v16H0z"/><path class="st1" d="M16 9V6H8V5H5V4h9V1H5V0H0v5h3v3H0v8h14v-2h2v-3h-2V9z"/></g><g id="icon_x5F_bg"><path class="st2" d="M3.318 12.215h.424l-.187-1.188z"/><path class="st2" d="M1.023 9v6h11.969V9H1.023zm3 5l-.25-1h-.5l-.25 1h-1l1-4h1l1 4h-1zm4.639-3h-1v3h-.967v-3H5.662v-1h3v1zM12 14H9.992v-4H11v3h1v1z"/></g><g id="color_x5F_action"><path class="st3" d="M4 6h3v2H4zM1 1h3v3H1zM6 2h7v1H6zM9 7v1h6V7zM14 12h1v1h-1z"/></g><g id="icon_x5F_fg"><path class="st4" d="M8.662 11v-1h-3v1h1.033v3h.967v-3zM3.023 10l-1 4h1l.25-1h.5l.25 1h1l-1-4h-1zm.295 2.215l.236-1.188.188 1.188h-.424zM11 13v-3H9.992v4H12v-1h-.008z"/></g></svg>