<svg xmlns="http://www.w3.org/2000/svg" viewBox="0 0 16 16"><style>.st0{fill:#f6f6f6}.st1{fill:#424242}.st2{fill:#9b4f96}.st3{fill:#f0eff1}</style><path class="st0" d="M0 0h16v16H0z" id="outline"/><g id="icon_x5F_bg"><path class="st1" d="M1 9v6h11.969V9H1zm3 5l-.25-1h-.5L3 14H2l1-4h1l1 4H4zm4.639-3h-1v3h-.967v-3H5.639v-1h3v1zm3.338 3H9.969v-4h1.008v3h1v1z"/><path class="st1" d="M3.531 11.027l-.236 1.188h.424z"/></g><g id="color_x5F_importance"><path class="st2" d="M8 5h5v2H8zM3 5h4v1H3z"/><path class="st2" d="M1 1v7h1V4h12v11h1V1z"/></g><g id="icon_x5F_fg"><path class="st3" d="M2 4v4h12V4H2zm5 2H3V5h4v1zm6 1H8V5h5v2zM8.639 11v-1h-3v1h1.033v3h.967v-3zM11.992 13H11v-3h-1v4h2v-1zM4 10H3l-1 4h1l.25-1h.5L4 14h1l-1-4zm-.705 2.215l.236-1.188.188 1.188h-.424z"/></g></svg>