<svg xmlns="http://www.w3.org/2000/svg" viewBox="0 0 16 16"><style>.st0{opacity:0}.st0,.st1{fill:#f6f6f6}.st2{fill:#424242}.st3{fill:#9b4f96}.st4{fill:#f0eff1}</style><g id="outline"><path class="st0" d="M0 0h16v16H0z"/><path class="st1" d="M2 0v8H0v8h15V0z"/></g><g id="icon_x5F_bg"><path class="st2" d="M1.016 8.98v6h11.969v-6H1.016zm3 5.001l-.25-1h-.5l-.25 1h-1l1-4h1l1 4h-1zm4.638-3h-1v3h-.967v-3H5.654v-1h3v1zm3.33 3h-2v-4h1v3h1v1z"/><path class="st2" d="M3.188 12.195l.351-1.293.32 1.293z"/></g><g id="color_x5F_importance"><path class="st3" d="M3 6v2h11V6zM3 1v4h11V1H3zm10 3h-2V3h2v1z"/></g><g id="icon_x5F_fg"><path class="st4" d="M3.008 9.98l-1 4h1l.25-.969h.5l.25.969h1l-1-4h-1zm.18 2.215l.352-1.293.32 1.293h-.672zM5.678 11.008h1v2.973h1v-2.973h1V9.98h-3zM11.008 12.906V9.98h-1v4.026h2v-1.1zM11 3h2v1h-2z"/></g></svg>