<svg xmlns="http://www.w3.org/2000/svg" viewBox="0 0 16 16"><style>.st0{opacity:0}.st0,.st1{fill:#f6f6f6}.st2{fill:#424242}.st3{fill:#f0eff1}</style><g id="outline"><path class="st0" d="M0 0h16v16H0z"/><path class="st1" d="M4.116 1a1.842 1.842 0 0 1-.148-.753L3.967 0 1.969.003s-.004.09-.001.246a2.74 2.74 0 0 1-.14.751H0v14h16V1H4.116z"/></g><g id="icon_x5F_bg"><path class="st2" d="M3 9h2v1H3zM3 11h2v1H3zM2.974 7.053s-.159-3.488 2.692-3.488l.004.001C2.817 3.566 2.968.045 2.968.045S3.127 3.533.276 3.533l.003-.001c2.851.001 2.695 3.521 2.695 3.521zM5.684 8.262s-.095-2.061 1.59-2.061h.002c-1.686 0-1.596-2.079-1.596-2.079s.094 2.059-1.59 2.059h.002c1.683.001 1.592 2.081 1.592 2.081z"/><path class="st2" d="M7 2v2c0 .78.444.958.762 1H14v8H2V6.904c-.003-.337-.076-1.733-1-2.224V14h14V2H7z"/></g><g id="icon_x5F_fg"><path class="st3" d="M9 5H7.762c.095.012.181.014.238.014V7c-.141 0-.969.063-1 1 .002.105 0 1 0 1H5v1H3V9h1V8H2v5h12V5H9zm-4 7H3v-1h2v1zM2 6.905v0z"/></g></svg>