<svg xmlns="http://www.w3.org/2000/svg" viewBox="0 0 16 16"><style>.st0{opacity:0}.st0,.st1{fill:#f6f6f6}.st2{fill:none}.st3{fill:#424242}.st4{fill:#9b4f96}.st5{fill:#f0eff1}</style><g id="outline"><path class="st0" d="M0 0h16v16H0z"/><path class="st1" d="M16 2h-5V1H5v1H0v13h6.196l1.001 1h.783l1.001-1H16z"/></g><g id="icon_x5F_bg"><path class="st2" d="M7 10h2v1H7zM7 12h2v1H7zM7 3h2v1H7zM2 10h2v1H2zM2 12h2v1H2zM12 12h2v1h-2zM2 4h2v2H2zM12 10h2v1h-2zM12 4h2v2h-2z"/><path class="st3" d="M11 3v11h4V3h-4zm3 10h-2v-1h2v1zm0-2h-2v-1h2v1zm0-5h-2V4h2v2zM2.587 6H2V4h2v.587l.001-.002.999.999V3H1v4.587zM2 13v-1h.594L1 10.412V14h2v-1z"/><g><path class="st3" d="M10 11.946v-1.233l-.617.617zM9.981 14H10v-.019zM7.265 7.849l.944-.947L10 8.688V2H6v4.584l1.265 1.265zM7 3h2v1H7V3z"/></g></g><path class="st4" d="M8.215 11.578l-.42.422H5v-2h1.53l-.332.33 1.387 1.385L9.6 9.699 8.211 8.316 7.529 9H4.628l1.184-1.187L4.001 6 1 9.001l1.818 1.81L4 9.637V13h2.796l-.594.592 1.387 1.385 2.015-2.014z" id="color_x5F_importance"/><g id="icon_x5F_fg"><path class="st5" d="M12 10h2v1h-2zM12 12h2v1h-2zM12 4h2v2h-2zM7 3h2v1H7zM4 4.587V4H2v2h.587zM3 12.041l-.182.182L2.594 12H2v1h1z"/></g></svg>