<svg xmlns="http://www.w3.org/2000/svg" viewBox="0 0 16 16"><style>.icon-canvas-transparent{opacity:0;fill:#f6f6f6}.icon-vs-out{fill:#f6f6f6}.icon-vs-bg{fill:#424242}.icon-vs-fg{fill:#f0eff1}.icon-cpp-purple{fill:#9b4f96}</style><path class="icon-canvas-transparent" d="M16 0v16H0V0h16z" id="canvas"/><path class="icon-vs-out" d="M16 1H0v12l3.151 3h5.777l1-1H16V1z" id="outline"/><path class="icon-vs-bg" d="M15 2v12h-4.071l1-1H14V5H2v5.059l-1 1.034V2h14z" id="iconBg"/><path class="icon-vs-fg" d="M14 5v8h-2.071l.071-.071v-.797L8.868 9H3.024L2 10.059V5h12z" id="iconFg"/><path class="icon-cpp-purple" d="M10.985 12.53l-2.71 2.71-.707-.707L9.133 13H2.978l1.533 1.533-.707.707-2.803-2.71 2.71-2.803.707.707L2.853 12h6.155l-1.533-1.566.707-.707 2.803 2.803z" id="colorAction"/></svg>