<svg xmlns="http://www.w3.org/2000/svg" viewBox="0 0 16 16"><style>.st0{opacity:0}.st0,.st1{fill:#f6f6f6}.st2{fill:#424242}.st3{fill:none}.st4{fill:#9b4f96}.st5{fill:#f0eff1}</style><g id="outline"><path class="st0" d="M0 0h16v16H0z"/><path class="st1" d="M16 1H0v15h10v-1h6z"/></g><g id="icon_x5F_bg"><path class="st2" d="M1 2v4h1V5h12v8h-4v1h5V2z"/><path class="st3" d="M2 14h6V9H2v5zm3-4h2v1H5v-1zm0 2h2v1H5v-1zm-2-2h1v1H3v-1zm0 2h1v1H3v-1z"/></g><g id="color_x5F_importance"><path class="st4" d="M5 12h2v1H5zM5 10h2v1H5zM3 10h1v1H3zM3 12h1v1H3z"/><path class="st4" d="M1 7v8h8V7H1zm7 7H2V9h6v5z"/></g><g id="icon_x5F_fg"><path class="st5" d="M2 5v1h8v7h4V5z"/><path class="st5" d="M2 9v5h6V9H2zm2 4H3v-1h1v1zm0-2H3v-1h1v1zm3 2H5v-1h2v1zm0-2H5v-1h2v1z"/></g></svg>