<svg xmlns="http://www.w3.org/2000/svg" viewBox="0 0 16 16"><style>.st0{opacity:0}.st0,.st1{fill:#f6f6f6}.st2{fill:#424242}.st3{fill:#9b4f96}.st4{fill:#f0eff1}</style><g id="outline"><path class="st0" d="M0 0h16v16H0z"/><path class="st1" d="M7 9V3H0v6h4v7h9V9z"/><path class="st1" d="M0 0v16h13v-2h3V0z"/></g><g id="icon_x5F_bg"><path class="st2" d="M1 9h5V4H1v5zm1-4h.884l.535 1.774.024.094.029.11c.008.038.017.074.023.11a.84.84 0 0 1 .017.095h.012l.021-.097.028-.11.03-.11a.902.902 0 0 0 .025-.095L4.137 5H5v3h-.584V6.227c0-.063 0-.125.002-.187l.006-.174.008-.151.006-.114h-.015l-.02.104c-.006.035-.012.071-.02.104a2.035 2.035 0 0 1-.043.173L3.734 8h-.51L2.61 6.004c-.006-.016-.012-.041-.02-.074l-.024-.109a26.003 26.003 0 0 0-.021-.116l-.018-.104h-.016a4.201 4.201 0 0 1 .016.359l.006.208.001.197V8H2V5zM1 15h5v-5H1v5zm1-4h2.594v.549h-1.91v.906h1.823V13H2.684v1H2v-3zM7 10v5h5v-5H7zm3.519 1.748a1.324 1.324 0 0 0-.281-.125 1.22 1.22 0 0 0-.386-.057 1.05 1.05 0 0 0-.352.061.85.85 0 0 0-.288.18.853.853 0 0 0-.193.297 1.126 1.126 0 0 0-.071.414c0 .135.02.258.062.369.041.113.1.209.176.291a.76.76 0 0 0 .273.189.9.9 0 0 0 .362.07 1.368 1.368 0 0 0 .698-.19v.6a1.024 1.024 0 0 1-.147.061A2.544 2.544 0 0 1 9.69 14c-.236 0-.444-.037-.623-.111a1.234 1.234 0 0 1-.716-.76 1.723 1.723 0 0 1-.091-.564c0-.234.038-.447.114-.639a1.47 1.47 0 0 1 .319-.494c.137-.135.299-.24.488-.314.188-.074.396-.111.621-.111a2.704 2.704 0 0 1 .427.031c.064.008.122.019.171.031.051.014.09.027.117.041v.638z"/></g><path class="st3" d="M1 1v2h6v1h7v8h-1v1h2V1z" id="color_x5F_importance"/><g id="icon_x5F_fg"><path class="st4" d="M2.684 13h1.823v-.545H2.684v-.906h1.91V11H2v3h.684zM10.231 11.037a2.671 2.671 0 0 0-.427-.031c-.226 0-.433.037-.621.111-.189.074-.352.18-.488.314a1.465 1.465 0 0 0-.319.494 1.715 1.715 0 0 0-.114.639c0 .201.031.391.091.564a1.234 1.234 0 0 0 .716.76c.177.075.385.112.621.112a2.59 2.59 0 0 0 .681-.092.962.962 0 0 0 .147-.061v-.6a1.218 1.218 0 0 1-.292.129 1.568 1.568 0 0 1-.191.045c-.068.01-.14.016-.215.016a.896.896 0 0 1-.362-.07.774.774 0 0 1-.273-.189.831.831 0 0 1-.176-.291 1.058 1.058 0 0 1-.062-.369c0-.156.024-.295.071-.414a.853.853 0 0 1 .193-.297.85.85 0 0 1 .288-.18c.109-.039.228-.061.352-.061.146 0 .274.02.386.057.112.037.205.078.281.125v-.639a.663.663 0 0 0-.117-.041 1.758 1.758 0 0 0-.17-.031zM2.534 6.365l-.001-.196a507.806 507.806 0 0 0-.012-.407 4.201 4.201 0 0 0-.01-.161h.017a3.1 3.1 0 0 0 .038.22l.024.109c.008.033.014.058.02.074L3.225 8h.51l.605-2.018a1.103 1.103 0 0 0 .043-.173c.008-.033.014-.069.02-.104l.02-.104h.015a4.074 4.074 0 0 1-.006.114 4.808 4.808 0 0 0-.008.151l-.006.175c-.002.061-.002.123-.002.186V8H5V5h-.863l-.508 1.771c-.007.028-.015.061-.025.095l-.03.11c-.011.038-.02.074-.028.11a1.45 1.45 0 0 0-.023.097h-.011a.88.88 0 0 0-.017-.095l-.023-.11-.029-.109a1.458 1.458 0 0 1-.024-.094L2.884 5H2v3h.534V6.365zM7 4v5h6v3h1V4z"/></g></svg>