<svg xmlns="http://www.w3.org/2000/svg" viewBox="0 0 16 16"><style>.st0{opacity:0}.st0,.st1{fill:#f6f6f6}.st2{fill:#424242}.st3{fill:#9b4f96}.st4{fill:#f0eff1}</style><g id="outline"><path class="st0" d="M0 0h16v16H0z"/><path class="st1" d="M16 6.586l-3-3-1.165 1.165C11.408 3.717 10.124 3 8.5 3c-1.624 0-2.908.717-3.335 1.751L4 3.586.586 7 4 10.414l1.165-1.165C5.592 10.282 6.876 11 8.5 11c1.624 0 2.908-.718 3.335-1.751L13 10.414l3-3v-.828zm-11 1L4.414 7 5 6.414v1.172zm7 0V6.414l.586.586-.586.586z"/></g><g id="icon_x5F_bg"><path class="st2" d="M4 5L2 7l2 2 .5-.5L3 7l1.5-1.5zM13 5l-.5.5L14 7l-1.5 1.5.5.5 2-2z"/><path class="st3" d="M8.5 4C7.119 4 6 4.672 6 5.5v3C6 9.328 7.119 10 8.5 10S11 9.328 11 8.5v-3C11 4.672 9.881 4 8.5 4zm0 2.425c-1.084 0-1.925-.497-1.925-.925s.841-.925 1.925-.925 1.925.497 1.925.925-.841.925-1.925.925z"/></g><path class="st4" d="M8.5 4.575c-1.084 0-1.925.497-1.925.925s.841.925 1.925.925 1.925-.497 1.925-.925-.841-.925-1.925-.925z" id="icon_x5F_fg"/></svg>