<svg xmlns="http://www.w3.org/2000/svg" viewBox="0 0 16 16"><style>.st0{opacity:0}.st0,.st1{fill:#f6f6f6}.st2{fill:#424242}.st3{fill:#9b4f96}.st4{fill:#f0eff1}</style><g id="outline"><path class="st0" d="M0 0h16v16H0z"/><path class="st1" d="M16 6.586l-3-3L11.586 5H9.414l1-1-4-4h-.828L2.579 3.007 0 3.012V16h12.96l.003-.549L16 12.414v-.828L13.914 9.5 16 7.414z"/></g><g id="icon_x5F_bg"><path class="st2" d="M1 9h5V4H1v5zm1-4h.884l.535 1.775.024.094.028.109c.008.037.017.074.023.109a.853.853 0 0 1 .017.096h.012l.021-.098.028-.109.03-.111a.888.888 0 0 0 .025-.094L4.137 5H5v3h-.584V6.227c0-.063 0-.125.002-.186l.006-.176a4.9 4.9 0 0 1 .008-.15l.006-.113h-.015l-.02.103a1.737 1.737 0 0 1-.043.201.628.628 0 0 1-.02.076L3.734 8h-.51L2.61 6.004c-.006-.016-.012-.041-.02-.074l-.024-.11a12.677 12.677 0 0 0-.021-.115l-.018-.103h-.016c.004.045.007.098.01.16l.007.199.005.207.001.197V8H2V5zM1 15h5v-5H1v5zm1-4h2.594v.549h-1.91v.906h1.823V13H2.684v1H2v-3zM7 10v5h5v-5H7zm3.519 1.748a1.324 1.324 0 0 0-.281-.125 1.22 1.22 0 0 0-.386-.057 1.05 1.05 0 0 0-.352.061.85.85 0 0 0-.288.18.853.853 0 0 0-.193.297 1.126 1.126 0 0 0-.071.414c0 .135.02.258.062.369.041.113.1.209.176.291a.76.76 0 0 0 .273.189.9.9 0 0 0 .362.07 1.368 1.368 0 0 0 .698-.19v.6a1.024 1.024 0 0 1-.147.061A2.544 2.544 0 0 1 9.69 14c-.236 0-.444-.037-.623-.111a1.234 1.234 0 0 1-.716-.76 1.723 1.723 0 0 1-.091-.564c0-.234.038-.447.114-.639a1.47 1.47 0 0 1 .319-.494c.137-.135.299-.24.488-.314.188-.074.396-.111.621-.111a2.704 2.704 0 0 1 .427.031c.064.008.122.019.171.031.051.014.09.027.117.041v.638z"/></g><g id="color_x5F_importance"><path class="st3" d="M7 3v3l2-2-3-3-2.005 2.005zM8 7v2h1V7h2l-1 1 1 1h2l2-2-2-2-1 1H7v1zM15 12l-2-2v4z"/></g><g id="icon_x5F_fg"><path class="st4" d="M2.684 13h1.823v-.545H2.684v-.906h1.91V11H2v3h.684zM10.231 11.037a2.671 2.671 0 0 0-.427-.031c-.226 0-.433.037-.621.111-.189.074-.352.18-.488.314a1.465 1.465 0 0 0-.319.494 1.715 1.715 0 0 0-.114.639c0 .201.031.391.091.564a1.234 1.234 0 0 0 .716.76c.177.075.385.112.621.112a2.59 2.59 0 0 0 .681-.092.962.962 0 0 0 .147-.061v-.6a1.218 1.218 0 0 1-.292.129 1.568 1.568 0 0 1-.191.045c-.068.01-.14.016-.215.016a.896.896 0 0 1-.362-.07.774.774 0 0 1-.273-.189.831.831 0 0 1-.176-.291 1.058 1.058 0 0 1-.062-.369c0-.156.024-.295.071-.414a.853.853 0 0 1 .193-.297.85.85 0 0 1 .288-.18c.109-.039.228-.061.352-.061.146 0 .274.02.386.057.112.037.205.078.281.125v-.639a.663.663 0 0 0-.117-.041 1.758 1.758 0 0 0-.17-.031zM2.534 6.365l-.001-.197-.006-.207-.007-.199a4.011 4.011 0 0 0-.01-.16h.017l.018.104.021.114.024.11c.008.033.014.058.02.074L3.225 8h.51l.605-2.018a.628.628 0 0 0 .02-.076c.008-.029.016-.063.022-.098.009-.033.015-.068.021-.103l.02-.104h.015l-.006.114a5.08 5.08 0 0 0-.008.15l-.006.176c-.002.061-.002.123-.002.186V8H5V5h-.863l-.508 1.771c-.007.028-.015.061-.025.094l-.03.111c-.011.037-.02.074-.028.109-.01.036-.017.069-.023.099h-.011a.853.853 0 0 0-.017-.096l-.023-.109a2.208 2.208 0 0 1-.028-.109 1.458 1.458 0 0 1-.024-.094L2.884 5H2v3h.534V6.365z"/></g></svg>