<svg xmlns="http://www.w3.org/2000/svg" viewBox="0 0 16 16"><style>.icon-vs-bg{fill:#424242}.icon-vs-out{fill:#f6f6f6}.icon-canvas-transparent{opacity:0;fill:#f6f6f6}.st0{fill:#f0eff1}</style><path class="icon-canvas-transparent" d="M16 16H0V0h16v16z" id="canvas"/><path class="icon-vs-out" d="M16 2v9h-6v3c0 .971-.701 2-2 2H2c-.969 0-2-.701-2-2V6c0-1.299 1.031-2 2-2h3V2h2.066L8.963.104l.045.045V0h3.011v.149l.046-.045L13.96 2H16z" id="outline"/><path class="icon-vs-bg" d="M11 6h-1V5h1v1zm1 0h1V5h-1v1zm0 1h-1v1h1V7zm2-4v6h-4v1h5V3h-1zM7 4V3H6v1h1zm2 3.136V14s-.059 1-1.059 1h-6S1 15 1 14V6c0-1 .941-1 .941-1h4.66L9 7.136zM8 8H6V6H2v8h6V8zM6 8H3v1h3V8zm-3 3h4v-1H3v1zm0 2h4v-1H3v1zm9.766-10.78l-.704-.703-1.044 1.04V.453h-1.011v2.103l-1.044-1.04-.703.704 1.747 1.754v.009l.502.502.004-.004.004.004.502-.502v-.009l1.747-1.754z" id="icon_x5F_bg"/><path class="st0" d="M6 8V6H2v8h6V8H6zM3 8h3v1H3V8zm4 5H3v-1h4v1zm0-2H3v-1h4v1z" id="icon_x5F_fg"/></svg>