<svg xmlns="http://www.w3.org/2000/svg" viewBox="0 0 16 16"><style>.icon-canvas-transparent{opacity:0;fill:#f6f6f6}.icon-vs-out{fill:#f6f6f6}.icon-vs-fg{fill:#f0eff1}.icon-cpp-purple{fill:#9b4f96}.st0{fill:#424242}</style><path class="icon-canvas-transparent" d="M16 16H0V0h16v16z" id="canvas"/><path class="icon-vs-out" d="M13.982 16H2.012V0h11.97v16z" id="outline"/><path class="icon-cpp-purple" d="M11 4H5V3h6v1zM3 1v14h1V2h8v13h1V1H3zm8 7v7H5V8h6zm-1 5H9v1h1v-1zm0-4H6v1h4V9z" id="iconBg"/><path class="icon-vs-fg" d="M10 13H9v1h1v-1zm0-4H6v1h4V9zM4 2v13h1V8h6v7h1V2H4zm7 2H5V3h6v1z" id="iconFg"/></svg>