<svg xmlns="http://www.w3.org/2000/svg" viewBox="0 0 16 16"><style>.st0{opacity:0}.st0,.st1{fill:#f6f6f6}.st2{fill:#424242}.st3{fill:#9b4f96}.st4{fill:#f0eff1}</style><g id="outline"><path class="st0" d="M0 0h16v16H0z"/><path class="st1" d="M16 1H0v15h11v-1h5z"/></g><path class="st2" d="M1 2v7h1V5h12v8h-3v1h4V2z" id="icon_x5F_bg"/><g id="color_x5F_importance"><path class="st3" d="M1 15h4v-5H1v5zm3-4v3l-2-1.5L4 11zM6 15h4v-5H6v5zm1-4l2 1.5L7 14v-3z"/></g><g id="icon_x5F_fg"><path class="st4" d="M2 5v4h9v4h3V5z"/><path class="st4" d="M4 14l-2-1.5L4 11v3zm3 0l2-1.5L7 11v3z"/></g></svg>