<svg xmlns="http://www.w3.org/2000/svg" viewBox="0 0 16 16"><style>.st0{opacity:0}.st0,.st1{fill:#f6f6f6}.st2{fill:#424242}.st3{fill:#9b4f96}.st4{fill:#f0eff1}</style><g id="outline"><path class="st0" d="M0 0h16v16H0z"/><path class="st1" d="M16 1H0v14h.258c.365.65 1.064 1 1.742 1h6c.84 0 1.426-.433 1.738-1H16V1z"/></g><path class="st2" d="M1 2v2.262C1.31 4.092 1.657 4 2 4h5.547l1.19 1H14v8h-4v1h5V2H1z" id="icon_x5F_bg"/><g id="color_x5F_importance"><path class="st3" d="M6.625 5h-4.66C1.964 5 1 5 1 6v8c0 1 .964 1 .964 1h6C8.964 15 9 14 9 14V7.136L6.625 5zM8 9v5H2V6h4v2h2v1z"/><path class="st3" d="M3 8h3v1H3zM3 10h4v1H3zM3 12h4v1H3z"/></g><g id="icon_x5F_fg"><path class="st4" d="M6 7.96V6H2v8h6V7.996L6 7.96zM3 8h3v1H3V8zm4 5H3v-1h4v1zm0-2H3v-1h4v1zM8.736 5L10 6.062V13h4V5z"/></g></svg>