<svg xmlns="http://www.w3.org/2000/svg" viewBox="0 0 16 16"><style>.icon-canvas-transparent{opacity:0;fill:#f6f6f6}.icon-vs-out{fill:#f6f6f6}.icon-vs-bg{fill:#424242}.icon-vs-fg{fill:#f0eff1}.icon-cpp-purple{fill:#9b4f96}</style><path class="icon-canvas-transparent" d="M16 16H0V0h16v16z" id="canvas"/><path class="icon-vs-out" d="M14 0v16H2.5L0 13.5 2.5 11H3V0h11z" id="outline"/><path class="icon-vs-bg" d="M13 1v14H7.49l.991-1H9v-1h-.576l-.991-1H12V2H5v9.011H4V1h9z" id="icon_x5F_bg"/><path class="icon-vs-fg" d="M8.5 14l.5-.5v.5h-.5zm.5-.5V13h-.5l.5.5zM5 2v9h1.5l1 1H12V2H5zm6 12h1v-1h-1v1z" id="icon_x5F_fg"/><path class="icon-cpp-purple" d="M4.189 14.807l-.789-.789h2.255l-.789.789.707.707 1.967-1.986-1.971-1.989-.707.707.789.789H3.396l.789-.789-.707-.707-1.967 1.986 1.971 1.989.707-.707z" id="colorAction"/></svg>