<svg xmlns="http://www.w3.org/2000/svg" viewBox="0 0 16 16"><style>.st0{opacity:0}.st0,.st1{fill:#f6f6f6}.st2{fill:#9b4f96}.st3{fill:#424242}.st4{fill:#f0eff1}</style><g id="outline"><path class="st0" d="M0 0h16v16H0z"/><path class="st1" d="M15 0v16H2V5h2V0h11z"/></g><g id="icon_x5F_bg"><path class="st2" d="M3 6h4v9H3z"/><path class="st3" d="M4 13h2v1H4zM4 11h2v1H4zM4 7h2v2H4z"/><path class="st3" d="M5 1v4h1V2h7v10H8v3h6V1z"/><path class="st3" d="M9 13h1v1H9zM12 13h1v1h-1z"/></g><path class="st4" d="M13 2v10H8V5H6V2h7zM9 14h1v-1H9v1zm3 0h1v-1h-1v1zm-6-1H4v1h2v-1zm0-1H4v-1h2v1zm0-3H4V7h2v2z" id="icon_x5F_fg"/></svg>