<svg xmlns="http://www.w3.org/2000/svg" viewBox="0 0 16 16"><style>.st0{opacity:0}.st0,.st1{fill:#f6f6f6}.st2{fill:#424242}.st3{fill:#9b4f96}.st4{fill:#f0eff1}</style><path class="st0" d="M0 0h16v16H0z" id="outline"/><g id="icon_x5F_bg"><path class="st1" d="M5 0v5.025a5.499 5.499 0 0 0 0 10.95V16h11V0H5z"/><path class="st2" d="M6 1v4.025c.344.031.677.096 1 .187V2h7v10h-3.213a5.484 5.484 0 0 1-.393 1H11v1h-1v-.344A5.535 5.535 0 0 1 8.656 15H15V1H6zm8 13h-1v-1h1v1z"/></g><path class="st3" d="M10 10.5c0-.053-.008-.102-.008-.152a4.496 4.496 0 1 0-8.925.895 4.49 4.49 0 0 0 3.696 3.691l.013.002a4.473 4.473 0 0 0 1.163.043A4.503 4.503 0 0 0 10 10.5zM7.408 9.433a8.07 8.07 0 0 0 1.489-.388c.191.445.299.937.299 1.455 0 .08-.008.16-.012.24a7.551 7.551 0 0 1-1.831.555c.07-.393.108-.768.104-1.119a7.337 7.337 0 0 0-.049-.743zm1.145-1.017a7.23 7.23 0 0 1-1.255.319 7.571 7.571 0 0 0-.589-1.725c.757.261 1.4.759 1.844 1.406zM5.5 14.196c-.109 0-.217-.008-.324-.018a11.03 11.03 0 0 1-.725-2.124 11.327 11.327 0 0 0 1.304.061c.224 0 .45-.006.678-.017a13.596 13.596 0 0 1-.87 2.095c-.022 0-.042.003-.063.003zm.004-2.782c-.41-.006-.802-.035-1.182-.079a7.861 7.861 0 0 1-.079-1.153c.002-.247.02-.507.043-.737.388.043.791.055 1.21.055h.259c.314 0 .632.012.956-.012.025.219.044.451.046.683.004.372-.044.778-.135 1.208-.376.025-.744.037-1.118.035zM5.5 6.804c.106 0 .21.008.313.016.301.522.607 1.186.786 1.996-.368.026-.729.03-1.095.026a10.874 10.874 0 0 1-1.119-.07c.15-.782.398-1.424.644-1.935.154-.02.311-.033.471-.033zm-1.339.254A8.473 8.473 0 0 0 3.69 8.67a12.369 12.369 0 0 1-1.223-.28 3.7 3.7 0 0 1 1.694-1.332zM1.804 10.5a3.7 3.7 0 0 1 .31-1.48c.44.131.932.254 1.478.346a8.726 8.726 0 0 0-.049.811c-.004.342.021.694.063 1.051a12.757 12.757 0 0 1-1.788-.467c-.007-.087-.014-.173-.014-.261zm.151 1.044c.513.157 1.101.31 1.765.415.132.673.349 1.359.631 2.053a3.706 3.706 0 0 1-2.396-2.468zm4.436 2.54c.35-.737.62-1.424.795-2.054a8.144 8.144 0 0 0 1.855-.472 3.7 3.7 0 0 1-2.65 2.526z" id="color_x5F_importance"/><g id="icon_x5F_fg"><path class="st4" d="M7 2v3.212c2.308.654 4 2.771 4 5.288 0 .521-.077 1.023-.213 1.5H14V2H7zM10 13.656V14h1v-1h-.606a5.558 5.558 0 0 1-.394.656zM13 13h1v1h-1zM7.419 9.484A8.155 8.155 0 0 0 8.896 9.1c.19.442.297.93.297 1.443 0 .08-.008.159-.012.238a7.545 7.545 0 0 1-1.817.551c.07-.391.107-.762.104-1.111a7.556 7.556 0 0 0-.049-.737zM5.527 14.209c-.108 0-.215-.008-.321-.018a10.981 10.981 0 0 1-.719-2.106c.333.033.68.056 1.036.058.086.002.172.002.257.002.222 0 .446-.006.672-.017a13.522 13.522 0 0 1-.862 2.078c-.022 0-.042.003-.063.003zM5.531 11.449a11.528 11.528 0 0 1-1.172-.078 7.738 7.738 0 0 1-.078-1.144c.002-.245.019-.506.043-.735.384.043.783.051 1.199.051h.257c.312 0 .627.016.948-.008.025.217.043.45.045.68.004.368-.043.773-.133 1.198-.373.026-.738.038-1.109.036zM1.861 10.543c0-.522.111-1.018.308-1.468.437.129.924.251 1.466.343-.026.26-.046.523-.049.803-.004.34.021.689.063 1.043a12.58 12.58 0 0 1-1.773-.463 2.769 2.769 0 0 1-.015-.258zM2.011 11.578c.509.156 1.092.307 1.75.412.131.667.346 1.348.626 2.035a3.674 3.674 0 0 1-2.376-2.447zM6.41 14.098c.348-.731.615-1.412.789-2.037a8.064 8.064 0 0 0 1.84-.468 3.676 3.676 0 0 1-2.629 2.505zM8.58 8.459a7.23 7.23 0 0 1-1.255.319 7.571 7.571 0 0 0-.589-1.725c.757.261 1.4.759 1.844 1.406zM5.5 6.804c.106 0 .21.008.313.016.301.522.607 1.186.786 1.996-.368.026-.729.03-1.095.026a10.874 10.874 0 0 1-1.119-.07c.15-.782.398-1.424.644-1.935.154-.02.311-.033.471-.033zM4.188 7.101a8.4 8.4 0 0 0-.471 1.612 12.369 12.369 0 0 1-1.223-.28 3.7 3.7 0 0 1 1.694-1.332z"/></g></svg>