<svg xmlns="http://www.w3.org/2000/svg" viewBox="0 0 16 16"><style>.st0{opacity:0}.st0,.st1{fill:#f6f6f6}.st2{fill:#9b4f96}</style><g id="outline"><path class="st0" d="M0 0h16v16H0z"/><path class="st1" d="M16 7.633L10.449 0h-.898L8 2.133 6.449 0h-.898L0 7.634v.648L5.611 16h.777L8 13.784 9.611 16h.777L16 8.284v-.651zm-8 .409l-.061-.084L8 7.875l.06.084-.06.083z"/></g><path class="st2" d="M15 7.958l-5-6.875-2 2.75-2-2.75-5 6.875 5 6.875 2-2.75 2 2.75 5-6.875zm-9 4.585L2.708 7.958 6 3.375 7.159 4.99 5 7.958l2.159 2.969L6 12.543zM8 6.16l1.291 1.798L8 9.757 6.708 7.958 8 6.16zm3 1.798L8.841 4.989 10 3.375l3.291 4.583L10 12.543l-1.16-1.615L11 7.958z" id="icon_x5F_bg"/></svg>