<svg xmlns="http://www.w3.org/2000/svg" width="16" height="16"><style type="text/css">.icon-canvas-transparent{opacity:0;fill:#F6F6F6;} .icon-vs-out{fill:#F6F6F6;} .icon-vs-fg{fill:#F0EFF1;} .icon-cpp-purple{fill:#9B4F96;}</style><path class="icon-canvas-transparent" d="M16 16h-16v-16h16v16z" id="canvas"/><path class="icon-vs-out" d="M16 16h-16v-16h16v16z" id="outline"/><path class="icon-cpp-purple" d="M1 1v14h14v-14h-14zm1 13v-7h4v7h-4zm12 0h-7v-3h7v3zm0-5h-7v-4h-5v-2h12v6z" id="iconBg"/><g id="iconFg"><path class="icon-vs-fg" d="M2 14v-7h4v7h-4zm12 0h-7v-3h7v3zm0-5h-7v-4h-5v-2h12v6z"/></g></svg>