<svg xmlns="http://www.w3.org/2000/svg" viewBox="0 0 16 16"><style>.st0{opacity:0}.st0,.st1{fill:#f6f6f6}.st2{fill:#a1260d}</style><g id="outline"><path class="st0" d="M16 16H0V0h16v16z"/><path class="st1" d="M12 4H8l-1.222.135c-.557.127-1.004.332-1.328.611a3.386 3.386 0 0 0-.45.49V4l-1.222.135c-.557.127-1.004.332-1.328.611C1.89 5.227 1 6.537 1 8v3h7l1.22-.135c.558-.125 1.005-.331 1.331-.611.136-.117.292-.284.449-.489V11l1.22-.135c.558-.125 1.005-.331 1.331-.611C14.111 9.772 15 8.462 15 7V4h-3z"/></g><g id="icon_x5F_bg"><path class="st2" d="M3.167 8.044L4 8v2H2V8c0-1.085.696-2.148 1.102-2.497.215-.184.538-.311.898-.393v1.194c-.561.383-.833 1.058-.833 1.617v.123zM6.167 8.044L7 8v2H5V8c0-1.085.696-2.148 1.102-2.497.215-.184.538-.311.898-.393v1.194c-.561.383-.833 1.058-.833 1.617v.123zM12.833 6.956L12 7V5h2v2c0 1.085-.696 2.148-1.102 2.497-.215.184-.538.311-.898.393V8.696c.561-.383.833-1.058.833-1.616v-.124zM9.833 6.956L9 7V5h2v2c0 1.085-.696 2.148-1.102 2.497-.215.184-.538.311-.898.393V8.696c.561-.383.833-1.058.833-1.616v-.124z"/></g></svg>