<svg xmlns="http://www.w3.org/2000/svg" viewBox="0 0 16 16"><style>.st0{opacity:0}.st0,.st1{fill:#f6f6f6}.st2{fill:#424242}.st3{fill:#9b4f96}.st4{fill:#f0eff1}</style><g id="outline"><path class="st0" d="M0 0h16v16H0z"/><path class="st1" d="M16 15H0V1h16v14z"/></g><path class="st2" d="M1 2v12h14V2H1zm13 11H2V5h12v8z" id="icon_x5F_bg"/><g id="color_x5F_importance"><path class="st3" d="M4 6h4v1H4zM9 8h3v1H9zM8 10h4v1H8zM4 8h4v1H4zM4 10h3v1H4z"/></g><path class="st4" d="M2 13h12V5H2v8zm10-2H8v-1h4v1zM9 8h3v1H9V8zM4 6h4v1H4V6zm0 2h4v1H4V8zm0 2h3v1H4v-1z" id="icon_x5F_fg"/></svg>