<svg xmlns="http://www.w3.org/2000/svg" viewBox="0 0 16 16"><style>.icon-canvas-transparent{opacity:0;fill:#f6f6f6}.icon-vs-out{fill:#f6f6f6}.icon-vs-bg{fill:#424242}.icon-vs-fg{fill:#f0eff1}.icon-cpp-purple{fill:#9b4f96}</style><path class="icon-canvas-transparent" d="M16 16H0V0h16v16z" id="canvas"/><path class="icon-vs-out" d="M16 14H9.234c0 .337-.084.675-.259.985A1.98 1.98 0 0 1 7.233 16H1.766c-.73 0-1.38-.379-1.74-1.015-.012-.02-.015-.043-.026-.063V1h5V0h6v1h5v13z" id="iconBg"/><path class="icon-vs-fg" d="M4 8h1v2.303L5.968 12H3.032L4 10.303V8m0-5H2v2h2V3zm8 0h2v2h-2V3zm0 6h2v1h-2V9zm0 2h2v1h-2v-1zM7 2h2v1H7V2zm1 7h1v1H7.166L7 9.723V9h1zm-.234 2H9v1h-.634l-.6-1z" id="iconFg"/><g id="colorImportance"><path class="icon-vs-bg" d="M11 2v11h4V2h-4zm3 10h-2v-1h2v1zm0-2h-2V9h2v1zm0-5h-2V3h2v2zM1 6h4V2H1v4zm1-3h2v2H2V3zm4-2v5h2v3h1v1H7.166l.6 1H9v1h-.634l.582.971c.006.009.008.02.013.029H10V1H6zm3 2H7V2h2v1z"/><path class="icon-cpp-purple" d="M6 10V8h1V7H2v1h1v2L.909 13.486A1 1 0 0 0 1.766 15h5.468a1 1 0 0 0 .858-1.514L6 10zm-2.968 2L4 10.303V8h1v2.303L5.968 12H3.032z"/></g></svg>