<svg xmlns="http://www.w3.org/2000/svg" viewBox="0 0 16 16"><style>.st0{opacity:0}.st0,.st1{fill:#f6f6f6}.st2{fill:#424242}.st3{fill:#9b4f96}.st4{fill:#f0eff1}</style><g id="outline"><path class="st0" d="M0 0h16v16H0z"/><path class="st1" d="M0 0v16h6v-2h3v2h7V0z"/></g><g id="icon_x5F_bg"><path class="st2" d="M10 6v9h5V6h-5zm3 8h-1v-1h1v1zm1-2h-3V7h3v5zM6 13h3v-3H6v3zm2-2v1H7v-1h1zM1 1v4h1V2h12v3h1V1z"/><path class="st3" d="M1 6v9h4V6H1zm3 8H2v-1h2v1zm0-2H2v-1h2v1zm0-3H2V7h2v2z"/></g><g id="icon_x5F_fg"><path class="st4" d="M7 11h1v1H7zM2 2v3h4v5h3V5h5V2z"/><path class="st4" d="M11 7h3v5h-3zM12 13h1v1h-1zM4 14H2v-1h2v1zm0-3H2v1h2v-1zm0-4H2v2h2V7z"/></g></svg>