<svg xmlns="http://www.w3.org/2000/svg" viewBox="0 0 16 16"><style>.st0{opacity:0}.st0,.st1{fill:#f6f6f6}.st2{fill:#424242}.st3{fill:#9b4f96}.st4{fill:#f0eff1}</style><g id="outline"><path class="st0" d="M0 0h16v16H0z"/><path class="st1" d="M16 15H0V1h16v14z"/></g><path class="st2" d="M1 2v12h14V2H1zm13 11H2V5h12v8z" id="icon_x5F_bg"/><path class="st3" d="M9 6H3v5h4v1h6V7H9V6zm-2 4H4V8h3v2zm5-1v2H8V9h4z" id="color_x5F_importance"/><path class="st4" d="M4 8h3v2H4V8zm10-3v8H2V5h12zm-1 2H9V6H3v5h4v1h6V7zM8 9v2h4V9H8z" id="icon_x5F_fg"/></svg>