<svg xmlns="http://www.w3.org/2000/svg" viewBox="0 0 16 16"><style>.CppPurple{fill:#9b4f96}.VsOut{fill:#f6f6f6}.VsFg{fill:#f0eff1}.VsBg{fill:#424242}.st0{opacity:0;fill:#f6f6f6}</style><g id="outline"><path class="st0" d="M16 16H0V0h16v16z"/><path class="VsOut" d="M16 15h-5.586l-1 1H8v-.545c-.524.338-1.213.545-2 .545s-1.476-.207-2-.545V16H2.586l-1-1H0V1h16v14z"/></g><path class="VsBg" d="M15 2v12h-3.586l1-1H14V5H2v5.586l-1 1V2h14z" id="icon_x5F_bg"/><g id="color_x5F_importance"><path class="CppPurple" d="M11 13l-2 2v-1l1-1-1-1v-1l2 2zM3 11v1l-1 1 1 1v1l-2-2 2-2zM6 10c-1.104 0-2 .537-2 1.199v2.6C4 14.463 4.896 15 6 15s2-.537 2-1.201v-2.6C8 10.537 7.104 10 6 10zm0 1.949c-.858 0-1.5-.394-1.5-.75 0-.353.642-.75 1.5-.75s1.5.397 1.5.75c0 .356-.642.75-1.5.75z"/></g><g id="icon_x5F_fg"><path class="VsFg" d="M6 11.949c-.858 0-1.5-.394-1.5-.75 0-.353.642-.75 1.5-.75s1.5.397 1.5.75c0 .356-.642.75-1.5.75z"/><path class="VsFg" d="M14 5v8h-1.586l-4-4H8v.545C7.476 9.207 6.787 9 6 9s-1.476.207-2 .545V9h-.414L2 10.586V5h12z"/></g></svg>