<svg xmlns="http://www.w3.org/2000/svg" viewBox="0 0 16 16"><style>.st0{opacity:0}.st0,.st1{fill:#f6f6f6}.st2{fill:#424242}.st3{fill:#efeef0}.st4{fill:#f0eff1}</style><g id="outline"><path class="st0" d="M0 0h16v16H0z"/><path class="st1" d="M16 0H7v4H2c-.969 0-2 .701-2 2v8c0 1.299 1.031 2 2 2h6c1.299 0 2-1.03 2-2v-1h6V0z"/></g><g id="icon_x5F_bg"><path class="st2" d="M6.625 5h-4.66S1 5 1 6v8c0 1 .965 1 .965 1h6C8.965 15 9 14 9 14V7.136L6.625 5zM8 9v5H2V6h4v2h2v1z"/><path class="st2" d="M3 8h3v1H3zM3 10h4v1H3zM3 12h4v1H3zM8 1v3.381l2 1.681V12h5V1H8zm6 10h-1v-1h1v1zm0-6H9V4h5v1zm0-2H9V2h5v1z"/></g><g id="icon_x5F_fg"><path class="st3" d="M6 7.96V6H2v8h6V7.996L6 7.96zM3 8h3v1H3V8zm4 5H3v-1h4v1zm0-2H3v-1h4v1z"/><path class="st4" d="M14 3H9V2h5v1zm0 1H9v1h5V4zm0 6h-1v1h1v-1z"/></g></svg>