<svg xmlns="http://www.w3.org/2000/svg" viewBox="0 0 16 16"><style>.st0{fill:#f6f6f6}.st1{fill:#424242}.st2{fill:#f0eff1}.st3{fill:#c27d1a}</style><g id="outline"><path class="st0" d="M15.998 0H3v.878L2.379.257.257 2.379.878 3H0v13h12.993c1.524 0 2.542-.736 2.886-2l.119-.752c.005-.085 0-13.248 0-13.248z"/><path class="st0" d="M2 13h2v1H2zM5 13h1v1H5z"/></g><g id="icon_x5F_bg"><path class="st1" d="M7.364 1l1.378 1.379L8.121 3H9v1h1v2h1V4h3v2h-2v1h2v2h-2v1h2v.119c.387.096.721.255 1 .475V1H7.364z"/><path class="st1" d="M9 7h-.879l.06.182-1.56 1.561L6 8.121V9h1v1H5V9H4v1H2V9h1v-.879l-.621.621L1 7.364V15h5.599a2.706 2.706 0 0 1-.47-1H5v-1h1c.001-.366.057-.694.141-1H5v-1h1.65c.526-.639 1.35-1 2.428-1H8V9h2v1h1V7H9zm-5 7H2v-1h2v1zm0-2H2v-1h2v1zM13.148 11h-.664l.536 1c.375 0 1 0 1 1 0 .375 0 1-.775 1h-1.662s-.419-.666-.834-.938c-.288-.189-.749.287-.463.926.441.731.53 1.012.53 1.012h2.179c1.125 0 2.024-.5 2.024-2.002 0-1.5-.746-1.998-1.871-1.998z"/><path class="st1" d="M8.898 15h.64l-.512-1c-.375 0-1 0-1-1 0-.375 0-1 .775-1h1.662s.419.666.834.938c.288.189.749-.287.463-.926-.443-.731-.531-1.012-.531-1.012H9.05c-1.125 0-2.024.5-2.024 2.002-.001 1.5.747 1.998 1.872 1.998z"/></g><g id="icon_x5F_fg"><path class="st2" d="M8 9h2v1H8zM3 4h3v2H3zM7 11H5v1h2v-1zM5 9h2v1H5zM2 9h2v1H2zM2 11h2v1H2zM12 7h2v2h-2zM11 4h3v2h-3zM9 4h1v2H9zM2 13h2v1H2zM5 13h1v1H5z"/></g><path class="st3" d="M8 4H5.707l1.621-1.621-.707-.708L5 3.293V1H4v2.293L2.379 1.671l-.708.708L3.293 4H1v1h2.293L1.671 6.621l.708.707L4 5.707V8h1V5.707l1.621 1.621.707-.707L5.707 5H8V4zM5 5H4V4h1v1z" id="color_x5F_action"/></svg>