<svg xmlns="http://www.w3.org/2000/svg" viewBox="0 0 16 16"><style>.st0{opacity:0}.st0,.st1{fill:#f6f6f6}.st2{fill:#424242}</style><g id="outline"><path class="st0" d="M0 0h16v16H0z"/><path class="st1" d="M12.963 4L8.162 0H8v3H0v3h8v1.418l-.659-.698-1.574 1.574L4.192 6.72.198 10.949l4.01 4.344 1.559-1.576 1.559 1.576 4.01-4.344-2.428-2.57L12 5.802V13h4V4h-3.037zm-7.196 8.555l-1.511-1.558 1.511-1.574 1.511 1.574-1.511 1.558z"/></g><g id="icon_x5F_bg"><path class="st2" d="M13 5h2v7h-2zM1 4h3v1H1zM5 4h3v1H5zM9 2l3 2.5L9 7zM7.3 13.846l-.703-.711L8.667 11 6.613 8.861l.707-.707 2.647 2.803zM4.232 13.846l.704-.711L2.866 11 4.92 8.861l-.707-.707-2.647 2.803z"/></g></svg>