<svg xmlns="http://www.w3.org/2000/svg" viewBox="0 0 16 16"><style>.st0{opacity:0}.st0,.st1{fill:#f6f6f6}.st2{fill:#424242}.st3{fill:#f0eff1}</style><g id="outline"><path class="st0" d="M0 0h16v16H0z"/><path class="st1" d="M1 0h15v15H1z"/></g><g id="icon_x5F_bg"><path class="st2" d="M2 1h1v1H2zM2 3h1v1H2zM2 5h1v1H2zM2 7h1v1H2zM2 9h1v1H2zM2 11h1v1H2zM14 3h1v1h-1zM14 5h1v1h-1zM14 7h1v1h-1zM14 9h1v1h-1zM14 11h1v1h-1zM2 13h1v1H2zM4 13h1v1H4zM6 13h1v1H6zM8 13h1v1H8zM10 13h1v1h-1zM12 13h1v1h-1zM14 13h1v1h-1zM4 1h1v1H4zM6 1h1v1H6zM8 1h1v1H8zM10 1h1v1h-1zM12 1h1v1h-1zM14 1h1v1h-1zM12 11H5V8l-1 4h9l-1-4z"/><path class="st2" d="M11 3H6v7h5V3zm-1 6H9V8h1v1zm0-4H7V4h3v1z"/></g><g id="icon_x5F_fg"><path class="st3" d="M9 8h1v1H9zM7 4h3v1H7z"/></g></svg>