<svg xmlns="http://www.w3.org/2000/svg" viewBox="0 0 16 16"><style>.st0{fill:#f6f6f6}.st1{fill:#424242}.st2{fill:#c27d1a}.st3{fill:#f0eff1}</style><path class="st0" d="M1.18 9L.071 14.547V16H16v-1.099L14.819 9H13V0H7v.637L6.621.258 6 .879V.001H3v.878L2.379.258.257 2.38l.621.621H0v3h.878l-.621.621 2.122 2.121L3 8.122V9z" id="outline"/><g id="icon_x5F_bg"><path class="st1" d="M9 9.999h1v1H9zM9 3h1v1H9zM9 5h1v1H9z"/><path class="st1" d="M14 9.999h-2V1H8v1h3v9.999H5v-3H4v1H2l-1 5h14z"/></g><path class="st2" d="M8 4H5.707l1.621-1.621-.707-.708L5 3.292V1H4v2.292L2.379 1.671l-.708.708L3.292 4H1v1h2.292L1.671 6.621l.708.707L4 5.707V8h1V5.707l1.621 1.621.707-.707L5.707 5H8V4zM5 5H4V4h1v1z" id="color_x5F_action"/><g id="icon_x5F_fg"><path class="st3" d="M11 2H8v1h2v1H9v1h1v1H8v2H6v1H5v3h6V2zm-1 9H9v-1h1v1z"/><path class="st3" d="M13.18 11H12v2H4v-2H2.819l-.599 3h11.56z"/></g></svg>