<svg xmlns="http://www.w3.org/2000/svg" viewBox="0 0 16 16"><style>.st0{opacity:0}.st0,.st1{fill:#f6f6f6}.st2{fill:#424242}.st3{fill:#c27d1a}.st4{fill:#f0eff1}</style><g id="outline"><path class="st0" d="M0 0h16v16H0z"/><path class="st1" d="M16 5.586v2.79L9.329 16H6.671L0 8.376V1l1-1 1 1V0h3v1l1-1 2 2-1 1h6.414L16 5.586z"/></g><path class="st2" d="M13 4H3L1 6v2l6.364 7.273-.008.02.036.014L8 16l.607-.693.036-.014-.008-.02L15 8V6l-2-2zM6.56 5h2.88l1 2H5.56l1-2zM2 6.414L3.414 5H5.44l-.985 1.972.011.028H2v-.586zM2.329 8h2.512l1.884 5.023L2.329 8zM8 13.576L5.909 8h4.182L8 13.576zm1.275-.553L11.159 8h2.512l-4.396 5.023zM14 7h-2.466l.011-.028L10.56 5h2.026L14 6.414V7z" id="icon_x5F_bg"/><path class="st3" d="M3.5 2.5c-.174 0-.339.029-.5.07V1h1v1.57a2.011 2.011 0 0 0-.5-.07zm2.208.5l.621-.621-.708-.707-1.11 1.111c.102.061.19.14.28.217h.917zm-3.219-.217l-1.11-1.111-.708.707L1.782 3.49c.173-.293.415-.535.707-.707zM1.571 4H0v1h.586l.983-.983L1.571 4z" id="color_x5F_importance"/><path class="st4" d="M4.466 7H2v-.586L3.414 5H5.44l-.985 1.972.011.028zM2.329 8l4.396 5.023L4.841 8H2.329zM9.44 5H6.56l-1 2h4.881L9.44 5zm-.165 8.023L13.671 8h-2.512l-1.884 5.023zM12.586 5H10.56l.985 1.972-.011.028H14v-.586L12.586 5zM5.909 8L8 13.576 10.091 8H5.909z" id="icon_x5F_fg"/></svg>