<svg xmlns="http://www.w3.org/2000/svg" viewBox="0 0 16 16"><style>.st0{opacity:0;fill:#f6f6f6}.st1{fill:none}.st2{fill:#f6f6f6}.st3{fill:#424242}.st4{fill:#c27d1a}.st5{fill:#f0eff1}</style><g id="outline"><path class="st0" d="M0 0h16v16H0z"/><path class="st1" d="M15.413 6H16v-.587z"/><path class="st2" d="M15.413 6L16 5.413V4.279l-4.634-1.544-.367 1.103-.367-1.103L9 3.279V3h-.879l.621-.621L6.621.257 6 .878V0H3v.878L2.379.257.257 2.379.878 3H0v3h.878l-.621.621 2.122 2.121L3 8.121V9h3v6h10V6z"/></g><g id="icon_x5F_bg"><path class="st1" d="M7.999 11h2v2h-2zM7.999 10h2V8h-2zM11.999 11h2v2h-2zM8.999 7L8 6.001V7zM11.999 8h2v2h-2z"/><path class="st3" d="M12.999 7l2-2-3-1-1 3-1-3L9 4.333V6h-.879l.621.621-.061.061.318.318h-.636L8 7.363V8h2v2H8V8h-.637L7 8.363V14h8V7h-2.001zm-3 6h-2v-2h2v2zm4 0h-2v-2h2v2zm0-3h-2V8h2v2z"/><path class="st4" d="M8 4H5.707l1.621-1.621-.707-.708L5 3.292V1H4v2.292L2.379 1.671l-.708.708L3.292 4H1v1h2.292L1.671 6.621l.708.707L4 5.707V8h1V5.707l1.621 1.621.707-.707L5.707 5H8V4zM5 5H4V4h1v1z"/></g><g id="icon_x5F_fg"><path class="st5" d="M8 8h2v2H8zM12 8h2v2h-2zM8 11h2v2H8zM12 11h2v2h-2z"/></g></svg>