<svg xmlns="http://www.w3.org/2000/svg" viewBox="0 0 16 16"><style>.st0{fill:#f6f6f6}.st1{fill:#424242}.st2{fill:#c27d1a}.st3{fill:#f0eff1}</style><path class="st0" d="M12 5V0H7v.636L6.621.257 6 .878V0H3v.878L2.379.257.257 2.379.878 3H0v3h.878l-.621.621 2.122 2.121L3 8.121V9H1.18L0 14.901V16h16V5z" id="outline"/><g id="icon_x5F_bg"><path class="st1" d="M11 6v9h4V6h-4zm3 8h-2v-1h2v1zm0-2h-2v-1h2v1zm0-3h-2V7h2v2zM4 10H2l-1 5h9v-2H4zM8 1v1h2v1H9v1h1v1h1V1z"/><path class="st1" d="M10 10V5H9v1h-.879l.621.621-2.121 2.121L6 8.121V9H5v3h5v-1H9v-1z"/></g><path class="st2" d="M8 4H5.707l1.621-1.621-.707-.708L5 3.292V1H4v2.292L2.379 1.671l-.708.708L3.292 4H1v1h2.292L1.671 6.621l.708.707L4 5.707V8h1V5.707l1.621 1.621.707-.707L5.707 5H8V4zM5 5H4V4h1v1z" id="color_x5F_action"/><g id="icon_x5F_fg"><path class="st3" d="M9 4h1v1H9zM8 2h2v1H8zM9 10h1v1H9zM12 13h2v1h-2zM12 7h2v2h-2zM12 11h2v1h-2z"/></g></svg>