<svg xmlns="http://www.w3.org/2000/svg" viewBox="0 0 16 16"><style>.st0{opacity:0}.st0,.st1,.st2{fill-rule:evenodd;clip-rule:evenodd;fill:#f6f6f6}.st2{fill:#424242}.st3{fill:#f0eff1}.st4{fill:#c27d1a}</style><g id="outline"><path class="st0" d="M0 0h16v16H0z"/><path class="st1" d="M14.819 9H12V0H7v.636L6.621.257 6 .878V0H3v.878L2.379.257.257 2.379.878 3H0v3h.878l-.621.621 2.122 2.121L3 8.121V9H1.181L0 14.903V16h16v-1.099z"/></g><g id="icon_x5F_bg"><path class="st2" d="M14 10h-2v3H4v-3H2l-1 5h14z"/><path class="st2" d="M8 1v.637L8.363 2H10v1H9v1h1v1H9v1h-.879l.621.621-2.121 2.121L6 8.121V9H4.979v.238H5V12h6V1H8zm2 10H9v-1h1v1z"/></g><g id="icon_x5F_fg"><path class="st3" d="M8 2h2v1H8zM9 4h1v1H9zM9 10h1v1H9z"/></g><path class="st4" d="M8 4H5.707l1.621-1.621-.707-.708L5 3.292V1H4v2.292L2.379 1.671l-.708.708L3.292 4H1v1h2.292L1.671 6.621l.708.707L4 5.707V8h1V5.707l1.621 1.621.707-.707L5.707 5H8V4zM5 5H4V4h1v1z" id="color_x5F_action"/></svg>