<svg xmlns="http://www.w3.org/2000/svg" viewBox="0 0 16 16"><style>.icon-canvas-transparent{opacity:0;fill:#f6f6f6}.icon-vs-out{fill:#f6f6f6}.icon-vs-action-orange{fill:#c27d1a}</style><path class="icon-canvas-transparent" d="M16 16H0V0h16v16z" id="canvas"/><path class="icon-vs-out" d="M13.974 8.983h-1.958l1.294 1.293-2.09 2.084L10 11.141V13H7.002v-1.987l-1.348 1.349-2.086-2.086L4.86 8.982H3V6h1.86L3.566 4.707l2.088-2.086 1.363 1.364V2H10v1.843l1.224-1.223 2.085 2.088L12.016 6h1.958v2.983z" id="outline"/><g id="iconBg"><path class="icon-vs-action-orange" d="M9 6.401h-.982V3H9v3.401zm0 2.197h-.998V12H9V8.598zM5.654 4.035l-.673.672 2.387 2.387.672-.673-2.386-2.386zm3.852 3.852l-.673.673 2.387 2.387.674-.672-2.388-2.388zM4 7v.982h3.401V7H4zm5.572 0l-.002.982h3.403V7H9.572zm-4.59 3.275l.672.672L8.041 8.56l-.673-.672-2.386 2.387zm3.852-3.854l.671.673 2.389-2.387-.672-.673-2.388 2.387z"/></g></svg>