<svg xmlns="http://www.w3.org/2000/svg" viewBox="0 0 16 16"><style>.st0{opacity:0}.st0,.st1{fill:#f6f6f6}.st2{fill:#424242}.st3{fill:#c27d1a}.st4{fill:#f0eff1}</style><g id="outline"><path class="st0" d="M0 0h16v16H0z"/><path class="st1" d="M14.414 2H8.363L6.621.257 6 .878V0H3v.878L2.379.257.258 2.379.879 3H0v3h.879l-.622.621.854.854L0 8.586v5.828L1.586 16h6.828L10 14.414V11h4.414L16 9.414V3.586L14.414 2zM7 13H3v-3h1V9h1v1h2v3z"/></g><g id="icon_x5F_bg"><path class="st2" d="M9 7v1h4V7zM9 5h4v1H9zM3 12h4v1H3zM3 10h4v1H3z"/><path class="st2" d="M8 8H6v1h2v5H2V9h1V8H2L1 9v5l1 1h6l1-1V9zM14 3H9v1h5v5h-4v1h4l1-1V4z"/></g><path class="st3" d="M8 4H5.707l1.621-1.621-.707-.708L5 3.293V1H4v2.293L2.379 1.671l-.707.708L3.293 4H1v1h2.293L1.672 6.621l.707.707L4 5.707V8h1V5.707l1.621 1.621.707-.707L5.707 5H8V4zM5 5H4V4h1v1z" id="color_x5F_action"/><g id="icon_x5F_fg"><path class="st4" d="M2 9v5h6V9H2zm5 4H3v-1h4v1zm0-2H3v-1h4v1zM9 4v1h4v1H8.121l.621.621L8.363 7h.051L9 7.586V7h4v1H9.414l.586.586V9h4V4z"/></g></svg>