<svg xmlns="http://www.w3.org/2000/svg" viewBox="0 0 16 16"><style>.st0{opacity:0}.st0,.st1{fill:#f6f6f6}.st2{fill:#f0eff1}.st3{fill:none}.st4{fill:#424242}.st5{fill:#c27d1a}</style><g id="outline"><path class="st0" d="M0 0h16v16H0z"/><path class="st1" d="M1.636 8l.743.742L3 8.121V9H1.586L0 10.586v3.828L1.586 16h4.828L8 14.414 9.586 16h4.828L16 14.414v-3.828L14.414 9H12.47l-1.334-2h.278L13 5.414V1.586L11.414 0H7v.636L6.621.257 6 .878V0H3v.878L2.379.257.257 2.379.878 3H0v3h.878l-.621.621.743.743.636.636zM8 10.586L6.848 9.434 7.804 8H8v-.295l1.152 1.729L8 10.586z"/><path class="st2" d="M2 11h4v3H2zM10 11h4v3h-4zM8.363 2l.379.379L8.121 3H9v2h2V2z"/></g><g id="icon_x5F_bg"><path class="st3" d="M2 11h4v3H2zM10 11h4v3h-4zM8.121 3H9v2h2V2H8.363l.379.379z"/><path class="st4" d="M14 10h-2.065L9.268 6H11l1-1V2l-1-1H7.364l1 1H11v3H9v1h-.879l.621.621-.158.158L10.732 10H10l-1 1v3l1 1h4l1-1v-3l-1-1zm0 4h-4v-3h4v3zM4.065 10H2l-1 1v3l1 1h4l1-1v-3l-1-1h-.732l.667-1H4.732l-.667 1zM6 11v3H2v-3h4z"/><path class="st1" d="M8.121 6h-.056l.519.779.158-.158z"/></g><path class="st5" d="M8 4H5.707l1.621-1.621-.707-.708L5 3.292V1H4v2.292L2.379 1.671l-.708.708L3.292 4H1v1h2.292L1.671 6.621l.708.707L4 5.707V8h1V5.707l1.621 1.621.707-.707L5.707 5H8V4zM5 5H4V4h1v1z" id="color_x5F_action"/><path class="st2" d="M2 11h4v3H2z" id="icon_x5F_fg"/></svg>