<svg xmlns="http://www.w3.org/2000/svg" viewBox="0 0 16 16"><style>.st0{fill:#f6f6f6}.st1{fill:#424242}.st2{fill:#c27d1a}.st3{fill:#f0eff1}</style><path class="st0" d="M9 5V3h-.879l.621-.621L6.621.257 6 .878V0H3v.878L2.379.257.257 2.379.878 3H0v13h16V5z" id="outline"/><g id="icon_x5F_bg"><path class="st1" d="M4 10h8v1H4z"/><path class="st1" d="M9 6h-.879l.621.621L8.363 7H14v7H2V8.363l-1-.999V15h14V6z"/></g><path class="st2" d="M8 4H5.707l1.621-1.621-.707-.708L5 3.292V1H4v2.292L2.379 1.671l-.708.708L3.292 4H1v1h2.292L1.671 6.621l.708.707L4 5.707V8h1V5.707l1.621 1.621.707-.707L5.707 5H8V4zM5 5H4V4h1v1z" id="color_x5F_action"/><path class="st3" d="M8.363 7L6.621 8.742 6 8.121V9H3v-.879l-.621.621L2 8.364V14h12V7H8.363zM12 11H4v-1h8v1z" id="icon_x5F_fg"/></svg>