<svg xmlns="http://www.w3.org/2000/svg" viewBox="0 0 16 16"><style>.st0{opacity:0}.st0,.st1{fill:#f6f6f6}.st2{fill:#424242}.st3{fill:#f0eff1}</style><g id="outline"><path class="st0" d="M0 0h16v16H0z"/><path class="st1" d="M16 5V2h-2.5A2.503 2.503 0 0 0 11 4.5v.086L10.414 4H5.586L5 4.586V4.5C5 3.122 3.878 2 2.5 2H0v3h2v1H0v3h2v1H0v3h2.5C3.878 13 5 11.879 5 10.5v-.086l.586.586h4.828l.586-.586v.086c0 1.379 1.121 2.5 2.5 2.5H16v-3h-2V9h2V6h-2V5h2z"/></g><path class="st2" d="M13.5 4H15V3h-1.5c-.827 0-1.5.673-1.5 1.5V7h-1V6l-1-1H6L5 6v1H4V4.5C4 3.673 3.327 3 2.5 3H1v1h1.5c.275 0 .5.225.5.5V7H1v1h2v2.5c0 .275-.225.5-.5.5H1v1h1.5c.827 0 1.5-.673 1.5-1.5V8h1v1l1 1h4l1-1V8h1v2.5c0 .827.673 1.5 1.5 1.5H15v-1h-1.5a.501.501 0 0 1-.5-.5V8h2V7h-2V4.5c0-.275.225-.5.5-.5zM10 9H6V6h4v3z" id="icon_x5F_bg"/><path class="st3" d="M6 6h4v3H6z" id="icon_x5F_fg"/></svg>