<svg xmlns="http://www.w3.org/2000/svg" viewBox="0 0 16 16"><style>.st0{opacity:0}.st0,.st1{fill:#f6f6f6}.st2{fill:#424242}</style><g id="outline"><path class="st0" d="M0 0h16v16H0z"/><path class="st1" d="M15.551 5.034C14.064 2.211 8.991 0 4 0v2c2.243 0 5.094 1.816 6.225 3.966.488.926.582 1.768.255 2.31-.283.467-.9.724-1.74.724v.24L5 5.5l-5 5v1L4.5 16h1l5-5-.102-.102c2.451-.279 4.324-1.175 5.144-2.532.606-1.007.61-2.191.009-3.332z"/></g><g id="icon_x5F_bg"><path transform="rotate(-45.001 5 11)" class="st2" d="M2.171 8.171h5.657v5.657H2.171z"/><path class="st2" d="M14.666 5.5C13.357 3.015 8.582 1 4 1c2.619 0 5.802 2.015 7.109 4.5 1.311 2.485.249 4.5-2.369 4.5 4.582 0 7.235-2.015 5.926-4.5z"/></g></svg>