<svg xmlns="http://www.w3.org/2000/svg" viewBox="0 0 16 16"><style>.st0{opacity:0}.st0,.st1{fill:#f6f6f6}.st2{fill:#424242}</style><path class="st0" d="M0 0h16v16H0z" id="outline"/><g id="icon_x5F_bg"><path class="st1" d="M14 4V3H9v.813l-.642-.247c-.547-.21-1.2-.316-1.942-.316-1.288 0-2.361.443-3.189 1.317C2.413 5.427 2 6.546 2 7.894c0 1.231.352 2.254 1.043 3.042.762.872 1.813 1.314 3.124 1.314.913 0 1.683-.157 2.289-.469L9 11.503V10h5V9h1V4h-1zM6.453 8.934c-.389 0-.561-.135-.665-.251-.179-.201-.266-.494-.266-.898 0-.651.229-.885.303-.961.12-.122.309-.262.708-.262.357 0 .664.083.937.253l.53.332v1.176l-.526.326a1.89 1.89 0 0 1-1.021.285z"/><path class="st2" d="M8 10.892c-.467.239-1.08.358-1.833.358-1.015 0-1.805-.324-2.371-.973C3.266 9.674 3 8.879 3 7.894c0-1.09.318-1.969.953-2.639.635-.67 1.455-1.005 2.463-1.005.625 0 1.151.084 1.584.25v1.468a2.705 2.705 0 0 0-1.467-.406c-.582 0-1.055.188-1.422.562-.394.403-.59.957-.59 1.662 0 .654.174 1.176.522 1.564.35.389.819.584 1.41.584.563 0 1.08-.146 1.547-.435v1.393zM14 6V5h-1V4h-1v1h-1V4h-1v1H9v1h1v1H9v1h1v1h1V8h1v1h1V8h1V7h-1V6h1zm-2 1h-1V6h1v1z"/></g></svg>