<svg xmlns="http://www.w3.org/2000/svg" viewBox="0 0 16 16"><style>.st0{opacity:0}.st0,.st1{fill:#f6f6f6}.st2{fill:#424242}.st3{fill:#f0eff1}.st4{fill:#388a34}</style><g id="outline"><path class="st0" d="M0 0h16v16H0z"/><path class="st1" d="M0 1h16v14H0z"/></g><g id="icon_x5F_bg"><path class="st2" d="M9 10h1V9h1v1h1V9h1V8h-1V7h1V6h-1V5h-1v1h-1V5H9v1H8v1h1v1H8v1h1v1zm1-3h1v1h-1V7zM5.85 11c.68 0 1.229-.102 1.65-.308V9.499a2.693 2.693 0 0 1-1.393.372c-.531 0-.953-.166-1.268-.499-.314-.333-.471-.78-.471-1.341 0-.586.166-1.05.499-1.393.334-.341.772-.513 1.313-.513.494 0 .935.116 1.32.348V5.215C7.114 5.072 6.639 5 6.076 5c-.91 0-1.65.289-2.221.866S3 7.195 3 8.124c0 .871.254 1.568.762 2.092.506.523 1.203.784 2.088.784z"/></g><g id="icon_x5F_fg"><path class="st3" d="M10 7h1v1h-1z"/><path class="st3" d="M2 3v10h12V3H2zm5.5 3.473a2.512 2.512 0 0 0-1.32-.348c-.541 0-.979.172-1.312.514-.333.342-.499.806-.499 1.392 0 .561.156 1.008.471 1.341.314.333.736.499 1.268.499.508 0 .972-.124 1.393-.372v1.193c-.422.206-.972.308-1.651.308-.885 0-1.582-.261-2.088-.784C3.254 9.692 3 8.995 3 8.124c0-.929.285-1.681.855-2.258S5.166 5 6.076 5c.563 0 1.038.072 1.424.215v1.258zM13 7h-1v1h1v1h-1v1h-1V9h-1v1H9V9H8V8h1V7H8V6h1V5h1v1h1V5h1v1h1v1z"/></g><path class="st4" d="M1 2v12h14V2H1zm13 11H2V3h12v10z" id="color_x5F_importance"/></svg>