<svg xmlns="http://www.w3.org/2000/svg" viewBox="0 0 16 16"><style>.st0{opacity:0}.st0,.st1{fill:#f6f6f6}.st2{fill:#388a34}.st3{fill:#f0eff1}</style><g id="outline"><path class="st0" d="M0 0h16v16H0z"/><path class="st1" d="M4 15c-.97 0-2-.701-2-2V3c0-1.299 1.03-2 2-2h6.061L14 4.556V13c0 .97-.701 2-2 2H4z"/></g><g id="icon_x5F_bg"><path class="st2" d="M5.998 7.987h1v2.971h-1V7.987zm0-2h1v1h-1v-1z"/><path class="st2" d="M9.641 2H3.964S3 2 3 3v10c0 1 .965 1 .965 1h8c1 0 1.035-1 1.035-1V5L9.641 2zM12 13H4V3h5v3h3v7z"/></g><path class="st3" d="M9 6V3H4v10h8V6H9zm-2 5H6V8h1v3zm-.002-4.013h-1v-1h1v1z" id="icon_x5F_fg"/></svg>