<svg xmlns="http://www.w3.org/2000/svg" viewBox="0 0 16 16"><style>.st0{opacity:0}.st0,.st1{fill:#f6f6f6}.st2{fill:#424242}.st3{fill:#f0eff1}.st4{fill:#388a34}</style><g id="outline"><path class="st0" d="M0 0h16v16H0z"/><path class="st1" d="M4 15c-.97 0-2-.701-2-2V3c0-1.299 1.03-2 2-2h6.061L14 4.556V13c0 .97-.701 2-2 2H4z"/></g><g id="icon_x5F_bg"><path class="st2" d="M4 4.586V3h5v3h3v6.586l.874.874c.114-.235.126-.46.126-.46V5L9.64 2H3.964S3 2 3 3v.586l1 1zM7.586 13H4V9.414l-1-1V13c0 1 .964 1 .964 1h4.622l-1-1z"/></g><g id="icon_x5F_fg"><path class="st3" d="M4 9.414V13h3.586z"/><path class="st3" d="M4 9.414V13h3.586zM12 6H9V3H4v1.586l8 8z"/></g><path class="st4" d="M3 5v2l7 7h2L3 5z" id="color_x5F_importance"/></svg>