<svg xmlns="http://www.w3.org/2000/svg" viewBox="0 0 16 16"><style>.st0{opacity:0}.st0,.st1{fill:#f6f6f6}.st2{fill:#388a34}</style><g id="outline"><path class="st0" d="M0 0h16v16H0z"/><path class="st1" d="M3.988 11.033v2.574h1.384L7.765 16h.828l3.217-3.216.796.798L16 10.189v-.828L14.42 7.78 16 6.2v-.828l-2.596-2.595-.398.398L9.83 0h-.828L5.786 3.216l-.798-.798L0 7.406v.828l3.393 3.394z"/></g><path class="st2" d="M6.493 3.923L9.416 1l2.394 2.393-1.596 1.595h2.392l.798-.797L15 5.786l-2.394 2.393-1.595-1.596.798-.797h-1.596v1.06l-.797-.798v-.262l-.131.131-.308-.308-.399.398-2.085-2.084zm6.113 5.055h-.979l-.797.797h.979l-.798.797 1.595 1.596L15 9.775l-1.596-1.596-.798.799zm-4.428 2.833H5.786V8.619h1.595l-.797.797 1.595 1.596 2.394-2.393-1.596-1.596-.798.797H5.786l1.595-1.595-2.393-2.393L1 7.82l2.393 2.394 1.595-1.595v3.989h2.393l-.797.798L8.179 15l2.394-2.393-1.596-1.596-.799.8z" id="icon_x5F_bg"/></svg>