<svg xmlns="http://www.w3.org/2000/svg" width="16" height="16"><style type="text/css">.icon-canvas-transparent{opacity:0;fill:#F6F6F6;} .icon-vs-out{fill:#F6F6F6;} .icon-vs-bg{fill:#424242;} .icon-vs-fg{fill:#F0EFF1;} .icon-vs-action-green{fill:#388A34;}</style><path class="icon-canvas-transparent" d="M16 16h-16v-16h16v16z" id="canvas"/><path class="icon-vs-out" d="M14 4.556v8.444c0 .97-.701 2-2 2h-3v1h-9v-6h2v-7c0-1.299 1.03-2 2-2h6.06l3.94 3.556z" id="outline"/><path class="icon-vs-bg" d="M9.641 2h-5.677s-.964 0-.964 1v4h1v-4h5v3h3v7h-3v1h2.965c1 0 1.035-1 1.035-1v-8l-3.359-3z" id="iconBg"/><path class="icon-vs-fg" d="M12 6v7h-3v-6h-5v-4h5v3h3zm-8 6h-2v2h2v-2zm3 0h-2v2h2v-2zm0-3h-2v2h2v-2z" id="iconFg"/><g id="colorImportance"><path class="icon-vs-action-green" d="M4 8v3h-3v4h7v-7h-4zm0 6h-2v-2h2v2zm3 0h-2v-2h2v2zm0-3h-2v-2h2v2z"/></g></svg>