<svg xmlns="http://www.w3.org/2000/svg" viewBox="0 0 16 16"><style>.icon-canvas-transparent{opacity:0;fill:#f6f6f6}.icon-vs-out{fill:#f6f6f6}.icon-vs-bg{fill:#424242}.icon-vs-fg{fill:#f0eff1}.icon-vs-action-green{fill:#388a34}</style><path class="icon-canvas-transparent" d="M16 16H0V0h16v16z" id="canvas"/><path class="icon-vs-out" d="M16 0v7h-3v3h-2v3H8.961c.36.62.368 1.359.014 1.985A1.98 1.98 0 0 1 7.233 16H1.766c-.73 0-1.38-.379-1.74-1.015-.012-.02-.015-.043-.026-.063v-1.833c.02-.039.029-.08.051-.118L2 9.723V9H1V6h3V4H2V0h14z" id="outline"/><path class="icon-vs-bg" d="M8 3H3V1h5v2zM5 6h5V4H5v2zm4-5v2h6V1H9zm2 5h4V4h-4v2zM8 9h4V7H8v2zm0 1h-.848l1.143 2H10v-2H8z" id="iconBg"/><path class="icon-vs-fg" d="M4 8h1v2.303L5.968 12H3.032L4 10.303V8z" id="iconFg"/><path class="icon-vs-action-green" d="M8.091 13.485L6 10V8h1V7H2v1h1v2L.909 13.485A1 1 0 0 0 1.766 15h5.468a1 1 0 0 0 .857-1.515zM3.032 12L4 10.303V8h1v2.303L5.968 12H3.032z" id="colorImportance"/></svg>