<svg xmlns="http://www.w3.org/2000/svg" viewBox="0 0 16 16"><style>.icon-canvas-transparent{opacity:0;fill:#f6f6f6}.icon-vs-out{fill:#f6f6f6}.icon-vs-fg{fill:#f0eff1}.icon-vs-action-green{fill:#388a34}</style><path class="icon-canvas-transparent" d="M16 16H0V0h16v16z" id="canvas"/><path class="icon-vs-out" d="M16 13.09v1.833c-.011.02-.014.043-.025.063A1.98 1.98 0 0 1 14.233 16H8.766c-.73 0-1.38-.379-1.74-1.015a1.977 1.977 0 0 1 .025-2.015L8.834 10H0V0h15v10h-.834l1.782 2.971c.023.038.032.08.052.119z" id="outline"/><path class="icon-vs-fg" d="M8 7.001H7v-1h1V6h2.2L9 3h1l1.2 3H13V2H2v6h6v-.999zM7 5v-.999h1v1L7 5zM6 3.983a1.674 1.674 0 0 0-.88-.232c-.361 0-.653.114-.875.343-.222.228-.333.537-.333.927 0 .374.105.672.314.894.209.222.491.333.845.333.338 0 .648-.082.929-.248v.796c-.281.136-.648.205-1.1.205-.59 0-1.054-.174-1.393-.523C3.169 6.129 3 5.664 3 5.083c0-.619.19-1.12.57-1.505.38-.385.873-.577 1.48-.577.375 0 .692.047.95.143v.839zM10.032 12L11 10.303V8h1v2.303L12.968 12h-2.936" id="iconFg"/><path class="icon-vs-action-green" d="M2 8h6v1H1V1h13v5h-1V2H2v6zm5-.999h1v-1H7v1zM3.57 3.578c-.38.385-.57.887-.57 1.505 0 .581.169 1.046.507 1.395.338.349.803.523 1.393.523.453 0 .819-.069 1.1-.205V6a1.793 1.793 0 0 1-.929.248c-.354 0-.636-.111-.845-.333-.209-.222-.314-.52-.314-.894 0-.39.111-.699.333-.928.222-.228.513-.342.875-.342.329 0 .623.077.88.232v-.839c-.258-.096-.574-.143-.95-.143-.607 0-1.1.192-1.48.577zM14.234 15H8.766a1 1 0 0 1-.857-1.515L10 10V8H9V7h5v1h-1v2l2.091 3.485A1 1 0 0 1 14.234 15zm-1.266-3L12 10.303V8h-1v2.303L10.032 12h2.936zM11.2 6L10 3H9l1.2 3h1zM7 5l1 .001v-1H7V5z" id="colorImportance"/></svg>