<svg xmlns="http://www.w3.org/2000/svg" viewBox="0 0 16 16"><style>.st0{opacity:0}.st0,.st1{fill:#f6f6f6}.st2{fill:#424242}.st3{fill:#388a34}.st4{fill:#f0eff1}</style><g id="outline"><path class="st0" d="M0 0h16v16H0z"/><path class="st1" d="M12 7V3.556L8.061 0H2c-.97 0-2 .701-2 2v10c0 1.299 1.03 2 2 2h5v2h5v-4h4V7h-4z"/></g><g id="icon_x5F_bg"><path class="st2" d="M7 12H2V2h5v3h3v2h1V4L7.64 1H1.964S1 1 1 2v10c0 1 .964 1 .964 1H7v-1z"/><path class="st2" d="M6 6v2h1V7h1V6zM3 6h2v2H3zM3 9h2v2H3z"/></g><g id="color_x5F_importance"><path class="st3" d="M8 8h3v3H8zM12 8h3v3h-3zM8 12h3v3H8z"/></g><path class="st4" d="M10 5H7V2H2v10h5V8H6V6h2v1h2V5zm-5 6H3V9h2v2zm0-3H3V6h2v2z" id="icon_x5F_fg"/></svg>