<svg xmlns="http://www.w3.org/2000/svg" viewBox="0 0 16 16"><style>.icon-canvas-transparent{opacity:0;fill:#f6f6f6}.icon-vs-out{fill:#f6f6f6}.icon-vs-bg{fill:#424242}.icon-vs-fg{fill:#f0eff1}.icon-vs-action-green{fill:#388a34}</style><path class="icon-canvas-transparent" d="M16 16H0V0h16v16z" id="canvas"/><path class="icon-vs-out" d="M16 8a8 8 0 0 1-8 8c-.495 0-.978-.052-1.448-.138L6.414 16H2.586l-2.5-2.5 1.185-1.185A7.95 7.95 0 0 1 0 8a8 8 0 0 1 16 0z" id="outline"/><path class="icon-vs-bg" d="M14.988 7.763C14.862 4.008 11.786 1 8 1a7 7 0 0 0-7 7 6.692 6.692 0 0 0 .1 1.136l.002.018c.146.877.47 1.687.909 2.421L2.586 11h.519a5.684 5.684 0 0 1-.618-1.375c.798.244 1.712.479 2.744.644.047.242.124.488.185.731h.998l.166.166c-.069-.249-.157-.501-.212-.747a18.417 18.417 0 0 0 2.029.094c.348 0 .699-.01 1.054-.027-.24.78-.598 1.636-1.018 2.534l.481.48-1.472 1.472c.184.016.37.028.558.028a7 7 0 0 0 7-7c0-.08-.01-.157-.012-.237zM12.749 4.76c-.686.236-1.334.4-1.951.496a11.703 11.703 0 0 0-.917-2.685 5.757 5.757 0 0 1 2.868 2.189zM7.268 2.302c.24-.031.483-.052.732-.052.165 0 .327.011.488.024.468.812.944 1.846 1.221 3.108-.571.039-1.133.044-1.703.039a16.72 16.72 0 0 1-1.739-.111 12.138 12.138 0 0 1 1.001-3.008zM2.271 8.403C2.261 8.27 2.25 8.136 2.25 8c0-.819.174-1.597.482-2.302.686.202 1.448.393 2.3.539-.042.405-.072.82-.077 1.257a12.87 12.87 0 0 0 .099 1.637 19.429 19.429 0 0 1-2.783-.728zm2.914-3.25a19.128 19.128 0 0 1-1.903-.435 5.757 5.757 0 0 1 2.635-2.073 13.08 13.08 0 0 0-.732 2.508zm2.821 4.268a17.427 17.427 0 0 1-1.838-.123 12.248 12.248 0 0 1-.123-1.793c.004-.386.031-.755.067-1.114.603.068 1.23.113 1.882.12l.403.002c.488 0 .982-.016 1.487-.054.038.339.066.685.07 1.046a8.673 8.673 0 0 1-.209 1.869c-.583.042-1.157.05-1.739.047zm1.378 4.154c.546-1.146.967-2.215 1.238-3.193a12.79 12.79 0 0 0 2.886-.734 5.753 5.753 0 0 1-4.124 3.927zm4.347-5.201c-1.038.452-1.972.722-2.848.863a9.32 9.32 0 0 0 .161-1.743c-.004-.4-.035-.783-.076-1.156a12.557 12.557 0 0 0 2.316-.604c.3.696.466 1.461.466 2.266 0 .126-.011.25-.019.374z" id="iconBg"/><path class="icon-vs-fg" d="M10.969 6.338a12.557 12.557 0 0 0 2.316-.604c.299.696.465 1.461.465 2.266 0 .126-.011.25-.019.374-1.038.452-1.972.722-2.848.863a9.32 9.32 0 0 0 .161-1.743 11.3 11.3 0 0 0-.075-1.156zM9.881 2.571c.366.766.703 1.653.917 2.685.617-.096 1.265-.26 1.951-.496a5.757 5.757 0 0 0-2.868-2.189zM8.433 13.019c.42-.898.778-1.754 1.018-2.534-.354.017-.706.027-1.054.027-.135 0-.269 0-.403-.002-.56-.006-1.103-.04-1.626-.092.055.246.143.498.212.747l1.853 1.854zm1.313-3.644a8.673 8.673 0 0 0 .209-1.869 10.316 10.316 0 0 0-.07-1.046c-.505.038-.999.053-1.488.053l-.403-.002a18.549 18.549 0 0 1-1.882-.12c-.036.359-.063.728-.067 1.114-.006.584.039 1.183.123 1.793.59.069 1.202.116 1.838.123.582.003 1.156-.005 1.74-.046zM7.268 2.302A12.138 12.138 0 0 0 6.267 5.31c.559.063 1.14.104 1.739.111.57.005 1.132 0 1.703-.039a10.856 10.856 0 0 0-1.221-3.108A6.04 6.04 0 0 0 8 2.25c-.249 0-.492.021-.732.052zM3.282 4.718c.578.162 1.211.315 1.903.435a13.08 13.08 0 0 1 .732-2.508 5.768 5.768 0 0 0-2.635 2.073zM2.271 8.403c.777.264 1.707.532 2.783.728a12.87 12.87 0 0 1-.099-1.637c.005-.437.035-.852.077-1.258a20.105 20.105 0 0 1-2.3-.539A5.744 5.744 0 0 0 2.25 8c0 .136.011.27.021.403zM5.416 11c-.061-.243-.138-.489-.186-.731a20.425 20.425 0 0 1-2.744-.644c.145.49.356.949.618 1.375h2.312zm8.092-1.353a12.737 12.737 0 0 1-2.886.734c-.271.979-.692 2.047-1.238 3.193a5.75 5.75 0 0 0 4.124-3.927z" id="iconFg"/><path class="icon-vs-action-green" d="M4.165 14.782l-.789-.789H5.63l-.789.789.707.707 1.967-1.986-1.971-1.989-.707.707.789.789H3.372l.789-.789-.707-.707L1.487 13.5l1.971 1.989.707-.707z" id="colorAction"/></svg>