<svg xmlns="http://www.w3.org/2000/svg" viewBox="0 0 16 16"><style>.st0{opacity:0}.st0,.st1{fill:#f6f6f6}.st2{fill:#388a34}.st3{fill:#f0eff1}</style><g id="outline"><path class="st0" d="M0 0h16v16H0z"/><path class="st1" d="M12.5 2a3.515 3.515 0 0 0-3.162 2h-.845A2.498 2.498 0 0 0 6.5 3 2.503 2.503 0 0 0 4 5.5c0 1.244.916 2.27 2.107 2.46-.315.296-.58.644-.769 1.04h-.845A2.498 2.498 0 0 0 2.5 8 2.503 2.503 0 0 0 0 10.5C0 11.879 1.122 13 2.5 13a2.5 2.5 0 0 0 1.994-1h.844A3.514 3.514 0 0 0 8.5 14c1.93 0 3.5-1.57 3.5-3.5 0-.591-.161-1.14-.421-1.629.295.082.604.129.921.129C14.43 9 16 7.43 16 5.5S14.43 2 12.5 2zM8.493 7h.845c.022.048.053.09.077.137A3.454 3.454 0 0 0 8.5 7h-.007z"/></g><g id="icon_x5F_bg"><path class="st2" d="M8.5 8a2.502 2.502 0 0 0-2.45 2H3.908A1.497 1.497 0 0 0 1 10.5c0 .83.672 1.5 1.5 1.5.652 0 1.202-.418 1.408-1H6.05A2.5 2.5 0 1 0 8.5 8zm0 4a1.5 1.5 0 1 1 .001-3.001A1.5 1.5 0 0 1 8.5 12zM12.5 3a2.502 2.502 0 0 0-2.45 2H7.908A1.497 1.497 0 0 0 5 5.5C5 6.33 5.672 7 6.5 7c.652 0 1.202-.418 1.408-1h2.142a2.5 2.5 0 1 0 2.45-3zm0 4a1.5 1.5 0 1 1 .001-3.001A1.5 1.5 0 0 1 12.5 7z"/></g><g id="icon_x5F_fg"><circle class="st3" cx="12.5" cy="5.5" r="1.5"/><circle class="st3" cx="8.5" cy="10.5" r="1.5"/></g></svg>