<svg xmlns="http://www.w3.org/2000/svg" viewBox="0 0 16 16"><style>.st0{opacity:0}.st0,.st1{fill:#f6f6f6}.st2{fill:#424242}.st3{fill:#388a34}</style><g id="outline"><path class="st0" d="M0 0h16v16H0z"/><path class="st1" d="M13.019 7.463c-.154.225-.61.871-2.019 2.857V15H6v-4.68a440.453 440.453 0 0 1-2.02-2.857C3.41 6.584 3 5.726 3 4.75 3 2.131 5.468 0 8.5 0S14 2.131 14 4.75c0 .976-.372 1.834-.981 2.713z"/></g><path class="st2" d="M10 11H7v1h3v-1zm0 2H7v1h3v-1z" id="icon_x5F_bg"/><path class="st3" d="M12.226 6.854C12.204 6.896 10.001 10 10.001 10H6.999S4.796 6.896 4.774 6.854C4.287 6.254 4 5.53 4 4.75 4 2.679 6.015 1 8.5 1S13 2.679 13 4.75c0 .78-.287 1.504-.774 2.104z" id="color_x5F_importance"/></svg>