<svg xmlns="http://www.w3.org/2000/svg" viewBox="0 0 16 16"><style>.st0{opacity:0}.st0,.st1{fill:#f6f6f6}.st2{fill:#424242}.st3{fill:#388a34}.st4{fill:#f0eff1}.st5{fill:none;stroke:#ccc;stroke-miterlimit:10}</style><g id="outline"><path class="st0" d="M0 0h16v16H0z"/><path class="st1" d="M1 0v8H0v8h9v-1h7V0z"/></g><g id="icon_x5F_bg"><path class="st2" d="M11 11h2v1h-2zM7 5h6v2H7zM9 11h1v1H9z"/><path class="st2" d="M2 1v7h1V4h11v9H9v1h6V1z"/><path class="st2" d="M4 5h2v1H4zM7 8h2v2h4V8H7z"/></g><path class="st3" d="M1 15h7V9H1v6zm5-4h1v1H6v-1zm0 2h1v1H6v-1zm-2-2h1v1H4v-1zm0 2h1v1H4v-1zm-2-2h1v1H2v-1zm0 2h1v1H2v-1z" id="color_x5F_importance"/><g id="icon_x5F_fg"><path class="st4" d="M3 4v4h10v2H9v1h1v1H9v1h5V4H3zm3 2H4V5h2v1zm7 6h-2v-1h2v1zm0-5H7V5h6v2zM2 11h1v1H2zM4 13h1v1H4zM2 13h1v1H2z"/><path class="st4" d="M6 11h1v1H6zM4 11h1v1H4zM6 13h1v1H6z"/></g></svg>