<svg xmlns="http://www.w3.org/2000/svg" viewBox="0 0 16 16"><style>.st0{opacity:0}.st0,.st1{fill:#f6f6f6}.st2{fill:#424242}.st3{fill:#388a34}.st4{fill:#f0eff1}</style><g id="outline"><path class="st0" d="M0 0h16v16H0z"/><path class="st0" d="M0 0h16v16H0z"/><path class="st1" d="M8 0C3.921 0 .563 3.055.069 7H0v9h7v-.069c.328.041.661.069 1 .069A8 8 0 0 0 8 0z"/></g><path class="st2" d="M14.988 7.764C14.862 4.008 11.786 1 8 1 4.474 1 1.566 3.609 1.08 7h1.265a5.77 5.77 0 0 1 .388-1.303c.686.202 1.448.394 2.3.539-.026.246-.034.508-.048.764h1.09c.012-.204.017-.413.037-.609.603.068 1.23.113 1.882.12l.403.003c.488 0 .982-.016 1.487-.055.038.34.066.686.07 1.047a8.673 8.673 0 0 1-.209 1.869c-.584.041-1.158.049-1.74.046A16.445 16.445 0 0 1 7 9.376v1.079c.329.021.652.052.994.056a22.04 22.04 0 0 0 1.457-.025c-.306.991-.759 2.077-1.353 3.26-.033 0-.065.004-.098.004-.17 0-.338-.011-.504-.025-.188-.418-.342-.833-.496-1.248v2.441c.132.019.265.04.399.052a6.644 6.644 0 0 0 1.286-.004A7 7 0 0 0 15 8c0-.08-.01-.157-.012-.236zM5.185 5.153a18.852 18.852 0 0 1-1.903-.435 5.757 5.757 0 0 1 2.635-2.073c-.29.723-.556 1.554-.732 2.508zm2.821.268c-.6-.007-1.181-.048-1.739-.11a12.133 12.133 0 0 1 1.001-3.009c.24-.031.483-.052.732-.052.165 0 .327.012.488.024.468.812.944 1.846 1.221 3.108-.571.039-1.133.044-1.703.039zm1.875-2.85a5.755 5.755 0 0 1 2.868 2.188c-.686.236-1.334.4-1.951.496a11.71 11.71 0 0 0-.917-2.684zm-.497 11.004c.546-1.146.967-2.215 1.238-3.193a12.79 12.79 0 0 0 2.886-.734 5.753 5.753 0 0 1-4.124 3.927zm4.347-5.201c-1.038.452-1.972.722-2.848.863a9.32 9.32 0 0 0 .161-1.743c-.004-.4-.035-.782-.076-1.156a12.478 12.478 0 0 0 2.316-.604c.3.696.466 1.461.466 2.266 0 .126-.011.25-.019.374z" id="icon_x5F_bg"/><g id="color_x5F_importance"><path class="st3" d="M1 8h5v7H1z"/><path class="st3" d="M2 13h1v1H2zM4 13h1v1H4zM2 9h3v3H2z"/></g><g id="icon_x5F_fg"><path class="st4" d="M2 13h1v1H2zM4 13h1v1H4zM2 9h3v3H2zM10.969 6.338a12.478 12.478 0 0 0 2.316-.604c.299.696.465 1.461.465 2.266 0 .126-.011.25-.019.374-1.038.452-1.972.722-2.848.863a9.32 9.32 0 0 0 .161-1.743 11.3 11.3 0 0 0-.075-1.156zM12.749 4.76c-.686.236-1.334.4-1.951.496a11.703 11.703 0 0 0-.917-2.685 5.757 5.757 0 0 1 2.868 2.189zM8.397 10.513c-.135 0-.269 0-.403-.002-.342-.004-.665-.034-.994-.056v2.021c.154.415.308.83.496 1.248.166.015.334.026.504.026.033 0 .065-.004.099-.005.594-1.183 1.047-2.269 1.353-3.26-.355.018-.707.028-1.055.028zM9.885 6.459a19.26 19.26 0 0 1-1.488.055c-.135 0-.269-.002-.403-.003a18.549 18.549 0 0 1-1.882-.12c-.019.196-.025.405-.036.609H7v2.376c.329.024.664.041 1.006.045.582.003 1.156-.005 1.74-.046a8.673 8.673 0 0 0 .209-1.869 10.395 10.395 0 0 0-.07-1.047zM8 2.25c.165 0 .327.012.488.024.468.812.944 1.846 1.221 3.108-.571.039-1.133.044-1.703.039-.6-.007-1.181-.048-1.739-.11a12.133 12.133 0 0 1 1.001-3.009c.24-.031.483-.052.732-.052zM5.917 2.645c-.29.724-.556 1.555-.732 2.509a19.118 19.118 0 0 1-1.903-.436 5.768 5.768 0 0 1 2.635-2.073zM4.985 7c.014-.256.021-.518.047-.764a20.105 20.105 0 0 1-2.3-.539A5.768 5.768 0 0 0 2.345 7h2.64zM9.384 13.575c.546-1.146.967-2.215 1.238-3.193a12.79 12.79 0 0 0 2.886-.734 5.753 5.753 0 0 1-4.124 3.927z"/></g></svg>