<svg xmlns="http://www.w3.org/2000/svg" viewBox="0 0 16 16"><style>.st0{opacity:0}.st0,.st1{fill:#f6f6f6}.st2{fill:#388a34}.st3{fill:#f0eff1}</style><g id="outline"><path class="st0" d="M0 0h16v16H0z"/><path class="st1" d="M2 2.5L5.5 0h1L8 2.5 9.5 0h1L14 2.5V16H2z"/></g><path class="st2" d="M12.2 3.05L9.85 1 8 4.5 6.171 1.049 3.879 3.125l1.902 1.094L6.899 5H3v10h10V5H9.167l1.146-.75 1.887-1.2zM7 14H4v-3h3v3zm0-5H4V6h3v3zm5 5H9v-3h3v3zm0-5H9V6h3v3z" id="icon_x5F_bg"/><g id="icon_x5F_fg"><path class="st3" d="M4 11h3v3H4zM4 6h3v3H4zM9 11h3v3H9zM9 6h3v3H9z"/></g></svg>