<svg xmlns="http://www.w3.org/2000/svg" viewBox="0 0 16 16"><style>.st0{opacity:0}.st0,.st1{fill:#f6f6f6}.st2{fill:#424242}.st3{fill:#388a34}.st4{fill:#f0eff1}</style><g id="outline"><path class="st0" d="M0 0h16v16H0z"/><path class="st1" d="M5 0v5.025a5.499 5.499 0 0 0 0 10.95V16h11V0H5z"/></g><path class="st2" d="M6 1v4.025c.344.031.678.096 1 .188V2h7v10h-3.213a5.484 5.484 0 0 1-.393 1H11v1h-1v-.344A5.535 5.535 0 0 1 8.656 15H15V1H6zm8 13h-1v-1h1v1z" id="icon_x5F_bg"/><path class="st3" d="M10 10.5c0-.053-.008-.102-.008-.152a4.496 4.496 0 1 0-8.925.895 4.49 4.49 0 0 0 3.696 3.691c.005.002.009.002.013.002a4.473 4.473 0 0 0 1.163.043A4.502 4.502 0 0 0 10 10.5zM7.408 9.434a8.158 8.158 0 0 0 1.489-.389c.191.445.299.937.299 1.455 0 .08-.008.16-.012.24a7.551 7.551 0 0 1-1.831.555c.07-.393.108-.768.104-1.119a7.336 7.336 0 0 0-.049-.742zm1.145-1.018a7.23 7.23 0 0 1-1.255.319 7.571 7.571 0 0 0-.589-1.725c.757.261 1.4.759 1.844 1.406zM5.5 14.197c-.109 0-.217-.008-.324-.018-.322-.717-.57-1.43-.725-2.125a11.327 11.327 0 0 0 1.304.061c.224 0 .45-.006.678-.017a13.563 13.563 0 0 1-.87 2.096c-.022-.001-.042.003-.063.003zm.004-2.783c-.41-.006-.803-.035-1.182-.078a7.735 7.735 0 0 1-.078-1.154c.002-.246.02-.506.043-.736.387.042.789.054 1.209.054h.259c.314 0 .632.012.956-.012.025.219.044.451.046.684.004.371-.044.777-.135 1.207-.376.025-.744.037-1.118.035zM5.5 6.804c.106 0 .21.008.313.016.301.522.607 1.186.786 1.996-.368.026-.729.03-1.095.026-.386-.004-.76-.029-1.119-.07.15-.782.398-1.424.645-1.935.154-.02.31-.033.47-.033zm-1.34.254a8.697 8.697 0 0 0-.471 1.612 12.479 12.479 0 0 1-1.222-.28A3.702 3.702 0 0 1 4.16 7.058zM1.804 10.5a3.7 3.7 0 0 1 .31-1.48c.44.131.932.254 1.479.346a8.414 8.414 0 0 0-.049.811c-.004.342.021.695.063 1.051a12.62 12.62 0 0 1-1.788-.467 2.834 2.834 0 0 1-.015-.261zm.151 1.045c.514.156 1.102.309 1.765.414.132.674.349 1.359.632 2.053a3.704 3.704 0 0 1-2.397-2.467zm4.436 2.539c.35-.736.62-1.424.795-2.053a8.203 8.203 0 0 0 1.855-.473 3.7 3.7 0 0 1-2.65 2.526z" id="color_x5F_importance"/><g id="icon_x5F_fg"><path class="st4" d="M7 2v3.213c2.308.653 4 2.771 4 5.287 0 .521-.077 1.023-.213 1.5H14V2H7zM10 13.656V14h1v-1h-.606a5.558 5.558 0 0 1-.394.656zM13 13h1v1h-1z"/><g><path class="st4" d="M7.42 9.484A8.064 8.064 0 0 0 8.896 9.1c.189.443.297.93.297 1.443 0 .08-.008.16-.012.238a7.494 7.494 0 0 1-1.816.551c.07-.391.107-.762.104-1.111a8.238 8.238 0 0 0-.049-.737zM5.527 14.209c-.109 0-.215-.008-.322-.018a10.996 10.996 0 0 1-.719-2.105c.334.033.68.055 1.037.057a13.763 13.763 0 0 0 .928-.015c-.193.633-.482 1.324-.861 2.078-.022.001-.041.003-.063.003zM5.531 11.449a11.228 11.228 0 0 1-1.172-.078 7.6 7.6 0 0 1-.035-1.879c.383.043.783.051 1.199.051h.256c.313 0 .627.016.949-.008.025.217.043.451.045.68.004.369-.043.774-.133 1.199a15.23 15.23 0 0 1-1.109.035zM1.861 10.543c0-.522.111-1.018.307-1.467.438.129.924.25 1.467.342-.027.26-.047.523-.049.803-.004.34.021.689.063 1.043a12.445 12.445 0 0 1-1.773-.463 2.448 2.448 0 0 1-.015-.258zM2.012 11.578a12.8 12.8 0 0 0 1.75.412c.131.668.346 1.348.625 2.035a3.67 3.67 0 0 1-2.375-2.447zM6.41 14.098c.348-.731.615-1.412.789-2.037a8.071 8.071 0 0 0 1.84-.467 3.669 3.669 0 0 1-2.629 2.504zM8.58 8.459a7.292 7.292 0 0 1-1.256.32 7.469 7.469 0 0 0-.588-1.726A3.707 3.707 0 0 1 8.58 8.459zM5.5 6.804c.106 0 .21.008.313.016.301.522.607 1.186.786 1.996-.368.026-.729.03-1.095.026-.386-.004-.76-.029-1.119-.07.15-.782.398-1.423.645-1.934.154-.02.31-.034.47-.034zM4.188 7.101a8.495 8.495 0 0 0-.471 1.612 12.379 12.379 0 0 1-1.223-.279 3.696 3.696 0 0 1 1.694-1.333z"/></g></g></svg>