<svg xmlns="http://www.w3.org/2000/svg" viewBox="0 0 16 16"><style>.st0{opacity:0}.st0,.st1{fill:#f6f6f6}.st2{fill:#424242}.st3{fill:#388a34}.st4{fill:#f0eff1}</style><g id="outline"><path class="st0" d="M0 0h16v16H0z"/><path class="st1" d="M5 0v4.992H0v2.996h4v2.362a2.171 2.171 0 0 0-.423-.227 2.645 2.645 0 0 0-.979-.172c-.173 0-.351.017-.551.05-.162.03-.319.066-.469.111a3.886 3.886 0 0 0-.429.154c-.162.072-.457.142-.546.203L0 10.768v3.579c.027.095.056.19.087.281.094.269.259.511.45.713.193.209.443.371.718.48.162.064.34.118.524.156H9V16l7-.023V0H5z"/></g><path class="st2" d="M6 1v4h1V2h7v10H8.912a4.673 4.673 0 0 1-.03 1.938c-.088.373-.224.71-.404.991-.017.026-.039.046-.056.071H15V1H6zm5 13h-1v-1h1v1zm3 0h-1v-1h1v1z" id="icon_x5F_bg"/><g id="color_x5F_importance"><path class="st3" d="M1 6h8v1H1zM3.63 11.361a1.058 1.058 0 0 0-.424-.294 1.643 1.643 0 0 0-.608-.102c-.119 0-.241.012-.368.033a3.168 3.168 0 0 0-.672.194 1.375 1.375 0 0 0-.213.113v.768c.158-.131.341-.234.544-.313.204-.078.413-.117.627-.117.213 0 .377.063.494.186.116.125.174.324.174.6l-1.03.154a1.631 1.631 0 0 0-.525.152 1.08 1.08 0 0 0-.562.66 1.51 1.51 0 0 0-.067.462c0 .17.025.322.074.463a.945.945 0 0 0 .568.595c.139.058.297.085.478.085.229 0 .431-.053.604-.16a1.3 1.3 0 0 0 .439-.463h.014v.529h.785v-2.438c0-.238-.027-.451-.083-.637a1.289 1.289 0 0 0-.249-.47zm-.446 2.02c0 .131-.02.252-.059.365a.897.897 0 0 1-.165.295.76.76 0 0 1-.593.271.682.682 0 0 1-.242-.041.489.489 0 0 1-.302-.285.588.588 0 0 1-.041-.219.96.96 0 0 1 .027-.232.435.435 0 0 1 .098-.18.541.541 0 0 1 .195-.133c.083-.033.189-.061.32-.078l.761-.109v.346zM5.71 11.656h-.013V9H5v5.887h.697v-.484h.013c.044.082.095.158.151.229.057.07.119.133.191.185a.835.835 0 0 0 .238.121.932.932 0 0 0 .292.043c.23 0 .434-.053.609-.16.176-.106.323-.254.443-.443.12-.188.211-.412.272-.672A3.58 3.58 0 0 0 8 12.861a3.54 3.54 0 0 0-.074-.734 2.037 2.037 0 0 0-.228-.611 1.203 1.203 0 0 0-.395-.415 1.03 1.03 0 0 0-.573-.153.986.986 0 0 0-.614.199 1.157 1.157 0 0 0-.226.222 1.973 1.973 0 0 0-.18.287zm.467.082c.1-.055.21-.082.331-.082a.646.646 0 0 1 .571.32c.066.105.116.23.15.377.034.146.052.311.052.494 0 .234-.02.441-.06.621-.039.18-.095.328-.168.445a.747.747 0 0 1-.264.266.677.677 0 0 1-.651.016.74.74 0 0 1-.237-.207.983.983 0 0 1-.154-.307 1.257 1.257 0 0 1-.057-.381v-.506c0-.17.02-.326.061-.465.04-.139.096-.258.168-.359a.79.79 0 0 1 .258-.232z"/></g><g id="icon_x5F_fg"><path class="st4" d="M10 13h1v1h-1zM13 13h1v1h-1zM7 2v3h3v3H7v2.029c.309.03.598.097.847.258.287.183.529.41.713.723.157.269.272.574.344.91.005.025.003.054.009.08H14V2H7z"/></g></svg>