<svg xmlns="http://www.w3.org/2000/svg" viewBox="0 0 16 16"><style>.st0{opacity:0}.st0,.st1{fill:#f6f6f6}.st2{fill:#424242}.st3{fill:#388a34}.st4{fill:#f0eff1}</style><g id="outline"><path class="st0" d="M0 0h16v16H0z"/><path class="st1" d="M11 2V1H5v1H0v14h7v-1h9V2z"/></g><g id="icon_x5F_bg"><path class="st2" d="M1 3v4h4V3H1zm3 3H2V4h2v2zM6 2v5h1v3h2v1H7v1h2v1H7v1h3V2H6zm3 2H7V3h2v1zM11 3v11h4V3h-4zm3 10h-2v-1h2v1zm0-2h-2v-1h2v1zm0-5h-2V4h2v2z"/></g><path class="st3" d="M1 8v7h5V8H1zm2 6H2v-1h1v1zm2 0H4v-1h1v1zm0-2H2V9h3v3z" id="color_x5F_importance"/><g id="icon_x5F_fg"><path class="st4" d="M2 9h3v3H2zM2 4h2v2H2zM7 12h2v1H7zM4 13h1v1H4zM2 13h1v1H2zM7 10h2v1H7zM7 3h2v1H7zM12 4h2v2h-2zM12 10h2v1h-2zM12 12h2v1h-2z"/></g></svg>