<svg xmlns="http://www.w3.org/2000/svg" viewBox="0 0 16 16"><style>.icon-canvas-transparent{opacity:0;fill:#f6f6f6}.icon-vs-out{fill:#f6f6f6}.icon-vs-fg{fill:#f0eff1}.icon-vs-action-green{fill:#388a34}</style><path class="icon-canvas-transparent" d="M16 16H0V0h16v16z" id="canvas"/><path class="icon-vs-out" d="M16 1H0v14h.278c.347.595.985 1 1.722 1h4c.737 0 1.375-.405 1.722-1H16V1z" id="outline"/><path class="icon-vs-fg" d="M14 5v8H8V7c0-1.103-.897-2-2-2h8zM2 7h4v7H2V7zm1.5 6h1v-1h-1v1z" id="iconFg"/><path class="icon-vs-action-green" d="M15 2v12H8v-1h6V5H2c-.366 0-.705.106-1 .278V2h14zM3.5 13h1v-1h-1v1zM7 7v7c0 .552-.449 1-1 1H2c-.551 0-1-.448-1-1V7c0-.551.449-1 1-1h4c.551 0 1 .449 1 1zm-1 7V7H2v7h4z" id="iconBg"/></svg>