<svg xmlns="http://www.w3.org/2000/svg" viewBox="0 0 16 16"><style>.st0{opacity:0}.st0,.st1{fill:#f6f6f6}.st2{fill:#424242}.st3{fill:none}.st4{fill:#388a34}.st5{fill:#f0eff1}</style><g id="outline"><path class="st0" d="M0 0h16v16H0z"/><path class="st1" d="M4 0v6H0v10h15V0z"/></g><path class="st2" d="M5 1v5h1V2h7v10h-3v3h4V1H5zm8 13h-1v-1h1v1z" id="icon_x5F_bg"/><g id="color_x5F_importance"><path class="st3" d="M2 14h6V9H2v5zm3-4h2v1H5v-1zm0 2h2v1H5v-1zm-2-2h1v1H3v-1zm0 2h1v1H3v-1z"/><path class="st4" d="M5 12h2v1H5zM5 10h2v1H5z"/><path class="st4" d="M1 7v8h8V7H1zm7 7H2V9h6v5z"/><path class="st4" d="M3 10h1v1H3zM3 12h1v1H3z"/></g><g id="icon_x5F_fg"><path class="st5" d="M12 13h1v1h-1zM6 2v4h4v6h3V2z"/><path class="st5" d="M2 9v5h6V9H2zm1 1h1v1H3v-1zm0 3v-1h1v1H3zm4 0H5v-1h2v1zm0-2H5v-1h2v1z"/></g></svg>