<svg xmlns="http://www.w3.org/2000/svg" viewBox="0 0 16 16"><style>.icon-canvas-transparent{opacity:0;fill:#f6f6f6}.icon-vs-out{fill:#f6f6f6}.icon-vs-bg{fill:#424242}.icon-vs-fg{fill:#f0eff1}.icon-vs-action-green{fill:#388a34}</style><path class="icon-canvas-transparent" d="M16 16H0V0h16v16z" id="canvas"/><path class="icon-vs-out" d="M14 0v16H1.766c-.73 0-1.38-.379-1.74-1.015-.012-.02-.015-.043-.026-.063v-1.833c.02-.039.029-.08.051-.118L2 9.723V9H1V6h2V0h11z" id="outline"/><path class="icon-vs-bg" d="M4 1v5h1V2h7v10H8.366l.582.971c.376.626.386 1.379.026 2.015-.002.005-.007.009-.01.014H13V1H4zm8 13h-1v-1h1v1z" id="iconBg"/><path class="icon-vs-fg" d="M11 13h1v1h-1v-1zM5 2v4h3v3H7v.734L8.295 12H12V2H5zM3.032 12h2.936L5 10.303V8H4v2.303L3.032 12" id="iconFg"/><path class="icon-vs-action-green" d="M6 10V8h1V7H2v1h1v2L.909 13.486A1 1 0 0 0 1.766 15h5.468a1 1 0 0 0 .858-1.514L6 10zm-2.968 2L4 10.303V8h1v2.303L5.968 12H3.032z" id="colorImportance"/></svg>