<svg xmlns="http://www.w3.org/2000/svg" viewBox="0 0 16 16"><style>.st0{opacity:0}.st0,.st1{fill:#f6f6f6}.st2{fill:#424242}.st3{fill:#f0eff1}.st4{fill:#388a34}</style><g id="outline"><path class="st0" d="M0 0h16v16H0z"/><path class="st1" d="M4 15c-.97 0-2-.701-2-2V3c0-1.299 1.03-2 2-2h6.061L14 4.556V13c0 .97-.701 2-2 2H4z"/></g><g id="icon_x5F_bg"><path class="st2" d="M9.641 2H3.964S3 2 3 3v10c0 1 .964 1 .964 1h8c1 0 1.036-1 1.036-1V5L9.641 2zM12 13H4V3h5v3h3v7z"/><path class="st2" d="M10.771 7.511a2.427 2.427 0 0 0-.627-.817 2.795 2.795 0 0 0-.922-.514A3.458 3.458 0 0 0 8.095 6a3.38 3.38 0 0 0-.883.111c-.275.075-.527.18-.756.315a2.804 2.804 0 0 0-.615.49 2.82 2.82 0 0 0-.457.633c-.124.231-.22.48-.285.745A3.397 3.397 0 0 0 5 9.126c0 .435.073.831.221 1.184a2.624 2.624 0 0 0 1.563 1.488c.365.135.768.202 1.205.202a5.351 5.351 0 0 0 .992-.084 2.644 2.644 0 0 0 .592-.177v-.568a4.976 4.976 0 0 1-.309.122 2.962 2.962 0 0 1-.347.095 3.734 3.734 0 0 1-.403.06 4.01 4.01 0 0 1-.467.022c-.374 0-.709-.059-1.005-.176a2.163 2.163 0 0 1-.75-.487 2.109 2.109 0 0 1-.472-.749 2.72 2.72 0 0 1-.162-.955c0-.363.06-.702.182-1.015.122-.313.29-.586.505-.816a2.337 2.337 0 0 1 1.742-.739c.28 0 .531.029.749.091.218.061.413.144.58.246.17.105.311.226.429.365a2.063 2.063 0 0 1 .456.932 2.572 2.572 0 0 1-.017 1.111 1.727 1.727 0 0 1-.179.463.851.851 0 0 1-.257.289.532.532 0 0 1-.303.1.365.365 0 0 1-.143-.03.24.24 0 0 1-.11-.105.596.596 0 0 1-.073-.205 1.706 1.706 0 0 1-.027-.328c0-.043.006-.113.012-.217.006-.101.018-.221.027-.354l.037-.429c.012-.15.026-.295.039-.431l.032-.364c.01-.106.016-.183.018-.23h-.613l-.036.4h-.013a.546.546 0 0 0-.246-.331.774.774 0 0 0-.452-.126c-.224 0-.43.047-.615.144a1.45 1.45 0 0 0-.481.399c-.134.169-.237.37-.311.604a2.448 2.448 0 0 0-.112.755c0 .229.03.43.089.602.059.173.141.314.24.431.102.114.219.2.356.255a1.079 1.079 0 0 0 .76.031.954.954 0 0 0 .288-.154 1.18 1.18 0 0 0 .39-.6h.017c0 .25.068.449.206.595.137.147.333.22.591.22.195 0 .387-.043.575-.132.189-.088.358-.219.509-.391a2.08 2.08 0 0 0 .362-.644c.092-.258.139-.555.139-.894a2.54 2.54 0 0 0-.229-1.09zM8.565 9.21c-.037.186-.09.345-.164.479a.94.94 0 0 1-.272.321.65.65 0 0 1-.381.117.553.553 0 0 1-.422-.207.813.813 0 0 1-.132-.26 1.297 1.297 0 0 1-.047-.364c0-.158.018-.32.053-.486.038-.165.091-.315.167-.451.073-.134.167-.242.278-.328a.615.615 0 0 1 .387-.128c.082 0 .157.015.227.042a.487.487 0 0 1 .186.131.576.576 0 0 1 .125.22c.03.089.047.196.047.321.001.211-.018.409-.052.593z"/></g><g id="icon_x5F_fg"><path class="st3" d="M9 6V3H4v10h8V6H9zm1.861 3.495a2.12 2.12 0 0 1-.362.644c-.15.172-.319.303-.509.391a1.33 1.33 0 0 1-.575.132c-.258 0-.454-.073-.591-.22-.138-.145-.206-.345-.206-.595h-.017c-.038.131-.09.246-.158.346-.066.1-.143.185-.232.254a1.02 1.02 0 0 1-.621.209c-.15 0-.293-.029-.427-.086a.948.948 0 0 1-.356-.255 1.286 1.286 0 0 1-.24-.431 1.853 1.853 0 0 1-.089-.602c0-.271.037-.522.113-.755.073-.233.176-.435.311-.604.135-.17.293-.303.48-.399.185-.097.391-.144.615-.144a.774.774 0 0 1 .452.126c.061.04.113.088.155.143.044.057.073.12.091.188h.013l.036-.4h.612a5.065 5.065 0 0 1-.018.23c-.01.106-.021.227-.032.364-.012.136-.026.281-.037.431l-.038.429c-.009.133-.021.253-.027.354-.006.104-.012.174-.012.217 0 .133.01.244.026.328a.61.61 0 0 0 .073.203.24.24 0 0 0 .11.105c.043.019.09.03.143.03a.527.527 0 0 0 .303-.1.851.851 0 0 0 .257-.289c.073-.127.134-.279.179-.463.046-.182.068-.388.068-.617 0-.16-.018-.325-.051-.494a2.174 2.174 0 0 0-.164-.488 2.113 2.113 0 0 0-.292-.444 1.781 1.781 0 0 0-.429-.364 2.217 2.217 0 0 0-.58-.246 2.75 2.75 0 0 0-.749-.091c-.349 0-.674.065-.971.196A2.373 2.373 0 0 0 5.84 8.087a2.782 2.782 0 0 0-.182 1.016c0 .346.054.665.162.955.109.291.266.539.472.749.206.207.455.37.75.487.296.117.631.176 1.005.176a4.23 4.23 0 0 0 .87-.082c.123-.025.24-.058.347-.095.107-.038.211-.08.309-.122v.568a2.644 2.644 0 0 1-.592.177 5.814 5.814 0 0 1-.443.061 5.729 5.729 0 0 1-.549.023c-.437 0-.84-.067-1.205-.202a2.757 2.757 0 0 1-.945-.58 2.61 2.61 0 0 1-.618-.908A3.04 3.04 0 0 1 5 9.126c0-.289.032-.565.099-.832a3.19 3.19 0 0 1 .285-.746 2.865 2.865 0 0 1 1.072-1.122c.229-.135.48-.24.756-.315A3.38 3.38 0 0 1 8.095 6c.4 0 .775.06 1.126.18.352.119.658.29.922.514.263.223.473.496.627.817.152.322.23.686.23 1.09 0 .339-.047.636-.139.894z"/><path class="st3" d="M8.445 8.076a.487.487 0 0 0-.186-.131.623.623 0 0 0-.227-.042.615.615 0 0 0-.387.128 1.037 1.037 0 0 0-.278.328 1.73 1.73 0 0 0-.167.451 2.354 2.354 0 0 0-.053.486c0 .141.017.261.047.365a.824.824 0 0 0 .132.26.553.553 0 0 0 .422.207.65.65 0 0 0 .381-.117.949.949 0 0 0 .272-.321 1.67 1.67 0 0 0 .164-.48c.034-.184.053-.382.053-.593 0-.125-.017-.232-.047-.321a.583.583 0 0 0-.126-.22z"/><path class="st4" d="M10.771 7.511a2.427 2.427 0 0 0-.627-.817 2.795 2.795 0 0 0-.922-.514A3.458 3.458 0 0 0 8.095 6a3.38 3.38 0 0 0-.883.111c-.275.075-.527.18-.756.315a2.804 2.804 0 0 0-.615.49 2.82 2.82 0 0 0-.457.633c-.124.231-.22.48-.285.745A3.397 3.397 0 0 0 5 9.126c0 .435.073.831.221 1.184a2.624 2.624 0 0 0 1.563 1.488c.365.135.768.202 1.205.202a5.351 5.351 0 0 0 .992-.084 2.644 2.644 0 0 0 .592-.177v-.568a4.976 4.976 0 0 1-.309.122 2.962 2.962 0 0 1-.347.095 3.734 3.734 0 0 1-.403.06 4.01 4.01 0 0 1-.467.022c-.374 0-.709-.059-1.005-.176a2.163 2.163 0 0 1-.75-.487 2.109 2.109 0 0 1-.472-.749 2.72 2.72 0 0 1-.162-.955c0-.363.06-.702.182-1.015.122-.313.29-.586.505-.816a2.337 2.337 0 0 1 1.742-.739c.28 0 .531.029.749.091.218.061.413.144.58.246.17.105.311.226.429.365a2.063 2.063 0 0 1 .456.932 2.572 2.572 0 0 1-.017 1.111 1.727 1.727 0 0 1-.179.463.851.851 0 0 1-.257.289.532.532 0 0 1-.303.1.365.365 0 0 1-.143-.03.24.24 0 0 1-.11-.105.596.596 0 0 1-.073-.205 1.706 1.706 0 0 1-.027-.328c0-.043.006-.113.012-.217.006-.101.018-.221.027-.354l.037-.429c.012-.15.026-.295.039-.431l.032-.364c.01-.106.016-.183.018-.23h-.613l-.036.4h-.013a.546.546 0 0 0-.246-.331.774.774 0 0 0-.452-.126c-.224 0-.43.047-.615.144a1.45 1.45 0 0 0-.481.399c-.134.169-.237.37-.311.604a2.448 2.448 0 0 0-.112.755c0 .229.03.43.089.602.059.173.141.314.24.431.102.114.219.2.356.255a1.079 1.079 0 0 0 .76.031.954.954 0 0 0 .288-.154 1.18 1.18 0 0 0 .39-.6h.017c0 .25.068.449.206.595.137.147.333.22.591.22.195 0 .387-.043.575-.132.189-.088.358-.219.509-.391a2.08 2.08 0 0 0 .362-.644c.092-.258.139-.555.139-.894a2.54 2.54 0 0 0-.229-1.09zM8.565 9.21c-.037.186-.09.345-.164.479a.94.94 0 0 1-.272.321.65.65 0 0 1-.381.117.553.553 0 0 1-.422-.207.813.813 0 0 1-.132-.26 1.297 1.297 0 0 1-.047-.364c0-.158.018-.32.053-.486.038-.165.091-.315.167-.451.073-.134.167-.242.278-.328a.615.615 0 0 1 .387-.128c.082 0 .157.015.227.042a.487.487 0 0 1 .186.131.576.576 0 0 1 .125.22c.03.089.047.196.047.321.001.211-.018.409-.052.593z"/></g></svg>