<svg xmlns="http://www.w3.org/2000/svg" viewBox="0 0 16 16"><style>.st0{opacity:0}.st0,.st1{fill:#f6f6f6}.st2{fill:#424242}.st3{fill:#388a34}.st4{fill:#f0eff1}</style><g id="outline"><path class="st0" d="M0 0h16v16H0z"/><path class="st1" d="M1 0h14v16H1z"/></g><path class="st2" d="M2 1v14h12V1H2zm11 13H3V2h10v12z" id="icon_x5F_bg"/><g id="color_x5F_importance"><path class="st3" d="M4 3h7v1H4zM7 9h2v4H7zM10 7h2v6h-2zM4 7h2v1H4zM4 11h2v2H4zM4 5h4v1H4z"/></g><path class="st4" d="M3 2v12h10V2H3zm1 1h7v1H4V3zm0 2h4v1H4V5zm2 8H4v-2h2v2zm0-5H4V7h2v1zm3 5H7V9h2v4zm3 0h-2V7h2v6z" id="icon_x5F_fg"/></svg>