<svg xmlns="http://www.w3.org/2000/svg" viewBox="0 0 16 16"><style>.st0{opacity:0}.st0,.st1{fill:#f6f6f6}.st2{fill:#388a34}.st3{fill:#f0eff1}</style><g id="outline"><path class="st0" d="M0 0h16v16H0z"/><path class="st1" d="M16 2h-6V0H2v2H0v14h10v-4h6z"/></g><g id="icon_x5F_bg"><path class="st2" d="M4 10l3 2-3 2zM1 9h1v6H1zM8 9h1v6H8zM3 6.002h2v2H3z"/><path class="st2" d="M9 3V1H3v2H1v5h1V4h2V2h4v2h6v6h-4v1h5V3z"/><path class="st2" d="M11 6.002h2v2h-2zM7 6.002h2v2H7z"/></g><path class="st3" d="M8 4.002V2H4v2H2v4h8v2h4V4l-6 .002zm-3 4H3v-2h2v2zm4 0H7v-2h2v2zm4 0h-2v-2h2v2z" id="icon_x5F_fg"/></svg>