<svg xmlns="http://www.w3.org/2000/svg" viewBox="0 0 16 16"><style>.st0{opacity:0}.st0,.st1{fill:#f6f6f6}.st2{fill:#3c8a3f}.st3{fill:#388a34}.st4{fill:#f0eff1}</style><g id="outline"><path class="st0" d="M0 0h16v16H0z"/><path class="st1" d="M12.023 0H5.964C5.012 0 4 .701 4 2v1H0v3h1v2H0v8h13v-2h.965c1.442 0 2.007-1.175 2.035-2V3.552L12.023 0z"/></g><g id="icon_x5F_bg"><path class="st2" d="M1 4h3v1H1zM2 6.022h2V7H2zM1 14h11v1H1zM12 9V8H1v1zM4 10.023V13h3v-3H4v.023zM5 11h1v1H5v-1zM8 10v3h3v-3H8zm2 2H9v-1h1v1z"/><path class="st3" d="M11.641 1H5.964S5 1 5 2v5h1V2h5v3h3v7h-1v1h.965c1 0 1.035-1 1.035-1V4l-3.359-3z"/></g><g id="icon_x5F_fg"><path class="st4" d="M11 5V2H6v5h7v5h1V5zM5 11h1v1H5zM9 11h1v1H9z"/></g></svg>