<svg xmlns="http://www.w3.org/2000/svg" viewBox="0 0 16 16"><style>.st0{opacity:0}.st0,.st1{fill:#f6f6f6}.st2{fill:#388a34}.st3{fill:#f0eff1}</style><g id="outline"><path class="st0" d="M0 0h16v16H0z"/><path class="st1" d="M9.913.586a5.506 5.506 0 0 0-5.5 5.5c0 .625.109 1.223.303 1.783L0 12.586 3.413 16l4.717-4.717c.56.193 1.158.303 1.783.303 3.033 0 5.5-2.467 5.5-5.5s-2.467-5.5-5.5-5.5z"/></g><path class="st2" d="M9.913 1.586a4.501 4.501 0 0 0-4.5 4.5c0 .725.188 1.4.493 2.008l-4.492 4.492 1.999 2 4.493-4.492a4.442 4.442 0 0 0 2.007.492 4.5 4.5 0 1 0 0-9zm0 7a2.5 2.5 0 1 1 0-5 2.5 2.5 0 0 1 0 5z" id="icon_x5F_bg"/><circle class="st3" cx="9.913" cy="6.086" r="2.5" id="icon_x5F_fg"/></svg>