<svg xmlns="http://www.w3.org/2000/svg" viewBox="0 0 16 16"><style>.st0{fill:#f6f6f6}.st1{fill:#388a34}</style><path class="st0" d="M16.021 5.539c0-.191-.113-1.053-1.436-1.714C14.099 1.881 12.156.039 8.521.039c-3.679 0-6.169 2.327-6.44 2.593-.95.927-2.06 2.446-2.06 5.407 0 1.227.25 3.042 1.209 4.539 1.446 2.259 4.003 3.461 5.291 3.461.867 0 1.507-.252 1.903-.749.181-.227.363-.577.387-1.08.952-.548 2.021-1.189 3.11-2.278.438-.438 1.818-1.778 2.497-2.017.6-.209 1.602-.561 1.602-1.626 0-.851-.575-1.449-.887-1.755a.992.992 0 0 0 .888-.995zm-4.852-1.615c-.688.209-1.632.923-1.641.92C8.294 4.43 5.835 4 4.246 4.094c1.946-.875 6.212-.875 6.923-.17zm-7.647 6.669c-.018.173.24.626.124 1.158-.084-.107-.407-.431-.37-1.266.084.037.166.074.246.108zm2.27-2.094c.267-.054.496-.084.759-.104a8.792 8.792 0 0 0-.345.789c-.139-.237-.28-.47-.414-.685z" id="outline"/><path class="st1" d="M4.666 10.539c.577.195.986.835 1.375 1.231-.055 1.433-.521 1.702-1.625 1.019.227-.265.628-1.164.25-2.25zm-3.5-3.202c0 1.254 2.438 2.107 3.409 2.566.71.334 1.364.96 1.725 1.4-.011-.259-1.194-2.383-1.867-3.266.23-.194.656-.374 1.068-.468.84-.192 1.284-.191 2.485-.227.258-.367.352-.469.68-.805h-.977c-1.399 0-1.609-.016-2.314.081-.568.08-1.257.241-1.836.588a3.869 3.869 0 0 1-.296-.41c.344-.429 1.486-.705 2.415-.757 1.396-.079 2.503-.115 3.52-.033l.191-.219C7.646 5.266 3.9 4.625 2.658 5.563c-.078-.398-.157-1.1.49-1.818C4.189 2.696 6.806 2.44 8.166 2.438c.793-.006 2.101-.05 3.025.316.701.277 1.131.582 1.522 1.292.212-.035.667-.087 1.031-.008-.422-1.625-2.125-3-5.078-3-3.317 0-5.547 2.117-5.742 2.308-.682.666-1.758 2.204-1.758 3.991zm13.375-.126c.358.35.625.677.625 1.078 0 .35-.39.492-.933.683-1.511.528-3.359 2.939-4.578 3.639-.645.371-1.724 1.066-1.748 1.081.24 1.051-.382 1.348-1.241 1.348-.86 0-3.142-.96-4.449-3.001-.801-1.249-.941-2.421-1.051-3.525.117.326.664.852 1.4 1.158-.161.32-.256 1.492.112 2.199.544 1.043 1.632 1.641 2.066 1.805 1.772.544 1.663-.448 2.138-2.83.125-.625.52-1.698.787-2.15.496-.837 2.579-4.293 5.816-4.147 1.359.063 1.68.992 1.68.992s-.469-.641-1.258-.617c-.086.594-.534.947-.914 1.008-.806.128-1.972.116-1.97.116-.057.051-.379.378-.444.493 1.032-.018 3.22-.057 3.962.67zm-3.315-1.388c.912-.043 1.701.055 1.757-.794-.658.13-1.097.25-1.757.794zm2.573 1.38c-.18-.332-1.523-.32-2.125-.156-.602.164-1.431.831-2.573 2.292-.333.426-.964 1.469-1.342 1.996-.098.701.038.858.041.901.625-.328 1.589-1.669 2.233-2.497.289-.372 1.178-1.592 2.333-2.022.73-.271 1.723.018 1.433-.514z" id="color_x5F_importance"/></svg>