<svg xmlns="http://www.w3.org/2000/svg" width="16" height="16"><style type="text/css">.icon-canvas-transparent{opacity:0;fill:#F6F6F6;} .icon-vs-out{fill:#F6F6F6;} .icon-vs-fg{fill:#F0EFF1;} .icon-vs-action-green{fill:#388A34;}</style><path class="icon-canvas-transparent" d="M16 16h-16v-16h16v16z" id="canvas"/><path class="icon-vs-out" d="M15.99 8.574c-.097.791-.809 1.005-1.234 1.133l-.37.118c-.647.223-1.539 1.099-2.326 1.872-.721.708-1.403 1.374-2.06 1.733v2.57h-10v-6.714l.026-.262c-.041-.531-.016-1.048.099-1.529-.105-1.655.578-3.8 2.141-4.855.906-.775 3.404-2.625 6.288-2.625.818 0 1.611.149 2.355.445 2.708 1.077 3.453 2.619 3.644 3.56.613.403.955 1.063 1.104 1.564.063.131.098.277.098.433 0 .284-.118.541-.309.724.377.568.607 1.3.544 1.833z" id="outline"/><g id="iconBg"><path class="icon-vs-action-green" d="M14.997 8.458c-.023.191-.4.232-.943.424-1.315.452-2.856 2.416-4.054 3.35v-2.491l.017-.021c.291-.369 1.178-1.477 2.334-1.9.728-.273 1.853-.1 1.213-.803-.322-.354-1.463-.395-1.672-.422-.037.05-.91.58-1.892 1.523v-2.052c1.465-1.395 2.751-1.355 2.751-1.393.018-.738-.734-2.766-4.621-2.322-1.471.15-4.105.561-5.148 1.613-.647.711-.569 1.668-.387 2.037.453-.266.922-.453 1.765-.547 1.477-.164 2.598.278 3.332.546h-4.406c-.826 0-1.572.317-2.15.821.084-1.173.588-2.609 1.689-3.353.086-.055 3.916-3.589 7.715-2.078 3.149 1.252 3.088 3.08 3.07 3.299.906.203 1.125 1.328 1.125 1.328s-.435-.887-1.078-.875c-.234.844-.906 1.016-1.375 1.143.348.014 1.24-.037 2.078.701.375.341.682 1.089.637 1.472z"/><path class="icon-vs-action-green" d="M3.286 7c-1.263 0-2.286 1.023-2.286 2.286v5.714h8v-8h-5.714zm4.714 7h-6v-4.714c0-.946.34-1.286 1.286-1.286h4.714v6z"/></g><path class="icon-vs-fg" d="M8 14h-6v-4.714c0-.946.34-1.286 1.286-1.286h4.714v6z" id="iconFg"/><g id="colorImportance"><path class="icon-vs-action-green" d="M3.664 12.938v-.938c.17.143.354.25.554.321.199.071.4.107.604.107.119 0 .223-.011.312-.032l.223-.089.133-.135.044-.168c0-.082-.023-.155-.07-.22-.047-.064-.111-.124-.192-.179l-.289-.158-.36-.155c-.328-.137-.573-.304-.734-.501-.161-.197-.242-.436-.242-.715 0-.219.044-.407.132-.564.088-.157.208-.287.359-.388.151-.102.327-.176.526-.224.199-.048.41-.072.633-.072.219 0 .413.013.582.04.169.026.325.067.467.122v.876l-.23-.129-.258-.093-.262-.055-.248-.017-.293.031-.222.086-.141.133-.05.174c0 .07.019.133.056.189l.158.158.249.146.331.148c.168.07.319.145.453.224s.249.168.344.268c.096.1.169.213.22.341.051.128.076.277.076.447 0 .234-.044.431-.133.59-.089.159-.209.288-.362.387-.152.098-.33.169-.532.212-.202.043-.416.065-.64.065-.23 0-.45-.02-.658-.059-.208-.037-.388-.096-.54-.174z"/></g></svg>