<svg xmlns="http://www.w3.org/2000/svg" viewBox="0 0 16 16"><style>.icon-canvas-transparent{opacity:0;fill:#f6f6f6}.icon-vs-out{fill:#f6f6f6}.icon-vs-bg{fill:#424242}.icon-vs-fg{fill:#f0eff1}.icon-vs-action-green{fill:#388a34}</style><path class="icon-canvas-transparent" d="M16.001 16h-16V0h16v16z" id="canvas"/><path class="icon-vs-out" d="M16.001 8.373v3.102a1.991 1.991 0 0 1-1.332.525H9.961c-.182.213-.368.449-.528.655-.554.714-1.077 1.389-1.784 1.672l-.15.082a9.736 9.736 0 0 1-.669.336c-.034.123-.08.244-.139.36-.21.418-.537.707-.922.814-.19.055-.398.081-.617.081-1.075 0-2.799-.686-4.12-2.617C.165 12.121-.181 10.677.09 9.479c-.119-2.235.922-3.431 1.829-4.044.618-.499 2.372-1.72 4.501-1.72.492 0 .968.089 1.433.22L8 3.706V3H7V0h7v3h-1v.706l3.001 4.667z" id="outline"/><path class="icon-vs-bg" d="M14.669 11h-2.677c.117-.134.19-.282.232-.423.263-1.108-.178-2.776-.346-3.081A2.688 2.688 0 0 0 11.449 7h1.275L11 4.291V2h-1v2.291l-.312.491a6.116 6.116 0 0 0-.873-.494L9 4V2H8V1h5v1h-1v2l3.51 5.459A1 1 0 0 1 14.669 11z" id="iconBg"/><path class="icon-vs-fg" d="M9.69 4.784l-.002-.002.312-.491V2h1v2.291L12.724 7h-1.275l-.323-.407c-.173-.534-.567-1.203-1.436-1.809z" id="iconFg"/><path class="icon-vs-action-green" d="M10.813 9.133c-.635-.523-1.271-.506-1.525-.516.342-.092.779-.04.951-.663.127-.161.947.372.947.372s-.26-.733-.926-.882c.014-.163.059-1.507-2.255-2.427-2.789-1.113-5.464 1.206-5.526 1.246-.996.673-1.501 1.756-1.38 3.308-.213.745-.131 1.952.759 3.247 1.196 1.75 2.854 2.359 3.642 2.139.241-.067.509-.564.349-.981.361.054 1.232-.497 1.429-.576.959-.385 1.886-2.522 2.993-2.905.4-.14.981.082 1.012-.278a1.29 1.29 0 0 0-.47-1.084zM6.116 5.845c2.855-.328 3.492.941 3.48 1.483 0 .03-1.363.01-2.556 1.356-1.085-.42-1.688-1.105-3.563-.902-.495.053-.683.174-1.002.351-.236-.129-.271-.564-.057-.971 0 0 .752-1.163 3.698-1.317zm-2.814 7.741c-.535-.201-1.641-1.144-1.274-2.674.354-.01 1.148.361 1.408.685.67.834.78 1.393.724 1.774-.08.532-.755.215-.858.215zm1.215-1.41c-.383-.82-.625-2.178-1.483-2.721.514-.684 2.606-.184 3.536-.214-.537.558-.831.937-1.18 2.1-.1.34-.587 1.09-.873.835zm4.901-2.314c-.849.314-1.479 1.102-1.691 1.371-.472.614-.964 1.673-1.855 1.727 0-.03-.004-.061-.006-.091-.01-.219.01-.462.05-.693.279-.381.665-1.034.91-1.346.964-1.238 2.136-1.935 2.175-1.985.152.02.988.05 1.225.312.47.517-.272.506-.808.705z" id="colorImportance"/></svg>