<svg xmlns="http://www.w3.org/2000/svg" viewBox="0 0 16 16"><style>.st0{opacity:0}.st0,.st1{fill:#f6f6f6}.st2{fill:#424242}.st3{fill:#388a34}.st4{fill:#f0eff1}</style><g id="outline"><path class="st0" d="M0 0h16v16H0z"/><path class="st1" d="M5 0v1.779C3.512 2.115 2.34 2.93 1.855 3.32.977 3.915-.031 5.077.091 7.259c-.271 1.162.066 2.574.916 3.812 1.203 1.76 2.87 2.55 3.993 2.553V16h11V0H5zm-.364 8.233a6.076 6.076 0 0 0-.233-.509c.142.006.288.017.436.028a6.919 6.919 0 0 0-.203.481z"/></g><path class="st2" d="M6 1v.644c.093-.005.183-.019.277-.019a5.12 5.12 0 0 1 1.902.362L8.207 2H14v10H7.384l-.097.052a8.56 8.56 0 0 1-.721.357 1.805 1.805 0 0 1-.146.401 1.54 1.54 0 0 1-.42.52V15h9V1H6zm2 13H7v-1h1v1zm3 0h-1v-1h1v1zm3 0h-1v-1h1v1z" id="icon_x5F_bg"/><path class="st3" d="M10.67 6.9c-.635-.522-1.271-.505-1.525-.516.342-.092.779-.04.951-.663.127-.161.947.372.947.372s-.26-.733-.926-.882c.014-.163.059-1.507-2.255-2.427-2.789-1.112-5.465 1.207-5.526 1.247C1.34 4.704.835 5.787.956 7.339c-.213.745-.131 1.952.759 3.247 1.196 1.75 2.854 2.359 3.642 2.139.241-.067.509-.564.349-.981.361.054 1.232-.497 1.429-.576.959-.385 1.886-2.522 2.993-2.906.4-.139.98.082 1.012-.278a1.29 1.29 0 0 0-.47-1.084zM5.973 3.612c2.854-.328 3.492.941 3.48 1.483 0 .03-1.363.01-2.556 1.356-1.085-.42-1.687-1.104-3.563-.902-.495.054-.683.174-1.002.352-.236-.129-.271-.565-.057-.971 0 0 .752-1.164 3.698-1.318zm-2.814 7.742c-.534-.202-1.641-1.144-1.274-2.674.354-.01 1.148.361 1.408.685.67.834.78 1.393.724 1.774-.08.532-.755.215-.858.215zm1.215-1.411c-.383-.82-.625-2.178-1.483-2.72.514-.685 2.606-.184 3.537-.214-.537.558-.831.938-1.18 2.1-.102.339-.588 1.089-.874.834zM9.275 7.63c-.848.313-1.478 1.101-1.691 1.371-.472.614-.964 1.673-1.855 1.727 0-.03-.004-.061-.006-.091-.01-.219.01-.462.05-.693.279-.381.665-1.034.91-1.346.963-1.239 2.135-1.935 2.174-1.985.152.02.988.05 1.225.311.471.517-.271.507-.807.706z" id="color_x5F_importance"/><g id="icon_x5F_fg"><path class="st4" d="M7 13h1v1H7zM10 13h1v1h-1zM13 13h1v1h-1zM8.207 2c1.955.787 2.544 1.904 2.709 2.626.643.406.902 1.087.936 1.182 0 0 .133.65.141 1.921.01.117.01.228 0 .33-.031.374-.254 1.001-1.365 1.005-.076 0-.189 0-.229.01-.332.115-.824.75-1.221 1.262-.542.697-1.054 1.358-1.725 1.627-.012.005-.047.025-.069.037H14V2H8.207z"/></g></svg>