<svg xmlns="http://www.w3.org/2000/svg" width="16" height="16"><style type="text/css">.icon-canvas-transparent{opacity:0;fill:#F6F6F6;} .icon-vs-out{fill:#F6F6F6;} .icon-white{fill:#FFFFFF;} .icon-office-sharepoint{fill:#2372C6;} .icon-vs-action-green{fill:#388A34;}</style><path class="icon-canvas-transparent" d="M16 16h-16v-16h16v16z" id="canvas"/><path class="icon-vs-out" d="M15.446 6.74c.19-.183.309-.439.309-.724 0-.155-.035-.302-.098-.433-.149-.501-.491-1.161-1.104-1.564-.19-.94-.936-2.482-3.644-3.56-.744-.296-1.537-.445-2.355-.445-2.884 0-5.382 1.851-6.288 2.625-1.188.802-1.865 2.233-2.076 3.6l-.19.022v9.073l5.953.666h1.047v-.027c.155-.012.313-.018.453-.053.51-.13.903-.476 1.106-.974.087-.213.138-.507.163-.779l.135-.101c.224-.17.442-.279 1.101-.609.669-.353 1.365-1.037 2.102-1.76.787-.773 1.679-1.649 2.326-1.872l.37-.118c.426-.128 1.138-.342 1.234-1.133.063-.533-.167-1.265-.544-1.834z" id="outline"/><path class="icon-vs-action-green" d="M14.36 6.985c-.838-.738-1.731-.688-2.078-.701.469-.127 1.141-.299 1.375-1.143.643-.012 1.078.875 1.078.875s-.219-1.125-1.125-1.328c.017-.219.078-2.047-3.07-3.299-3.799-1.51-7.629 2.024-7.715 2.079-.889.601-1.387 1.654-1.593 2.655l1.352-.151c-.173-.386-.235-1.313.397-2.008 1.043-1.053 3.678-1.463 5.149-1.613 3.887-.443 4.639 1.584 4.621 2.322 0 .041-1.531-.031-3.156 1.797-.031 0-.859-.188-1.234-.281-.282-.015-.743-.231-1.361-.431v1.45c.645-.014 1.311-.017 1.876-.035-.226.27-1.39 1.213-1.876 2.76v5.04l.206-.022c.215-.055.35-.191.428-.383.051-.096.129-.615.105-.93.021 0 .127-.082.514-.369.307-.232.584-.369 1.238-.697 1.244-.656 3.053-3.171 4.562-3.69.543-.191.92-.232.943-.424.046-.383-.261-1.131-.636-1.473zm-2.009.834c-1.156.424-2.043 1.531-2.334 1.9-.643.833-1.758 2.142-2.383 2.47l-.008-.123c-.014-.301.014-.629.068-.943.381-.519.906-1.407 1.238-1.831 1.314-1.682 2.908-2.629 2.959-2.697.209.027 1.35.068 1.672.422.641.703-.484.529-1.212.802zm-6.086-2.258l-3.599.402c.433-.244.894-.42 1.694-.509.722-.08 1.355-.012 1.905.107z" id="iconBg"/><path class="icon-office-sharepoint" d="M1 7.156v7.284l5.043.56v-8.404l-5.043.56zm3.724 5.02l-.064.268-.106.235-.148.204c-.068.076-.146.142-.231.198-.086.055-.18.099-.283.132-.102.034-.213.057-.331.07-.118.012-.243.013-.377.005l-.286-.034-.256-.067-.23-.097-.203-.128v-1.058l.227.219.241.161.256.101.273.041.137-.003.12-.025.102-.047.085-.067.056-.071.039-.079.024-.088.008-.098-.012-.117-.036-.111-.058-.107-.082-.102-.089-.081-.119-.092-.15-.101-.177-.111c-.147-.088-.273-.183-.382-.285-.107-.102-.196-.21-.267-.327-.07-.116-.123-.239-.159-.369-.034-.13-.052-.268-.052-.414l.022-.304.069-.275.114-.246.162-.218.202-.182.239-.136.272-.091.307-.045.278-.005.257.019.235.046.212.071v1.049l-.216-.145-.227-.1-.239-.056-.249-.011-.12.013-.106.03-.094.047-.081.063-.063.076-.046.085-.028.094-.009.105.008.112.024.101.041.092.057.082.075.076.104.083.133.09.162.099.246.155.211.155.176.155.137.154.124.197.089.218.055.237.019.259-.022.296z" id="colorImportance"/><g id="notificationFg"><path class="icon-white" d="M3.559 8.243l-.308.044-.272.091-.237.137-.202.181-.163.219-.114.246-.069.274-.023.304c0 .146.017.285.052.415.035.13.088.253.158.369.071.116.16.225.267.327.108.102.235.197.381.285l.178.111.15.101.12.092.089.081.082.102.058.107.036.111.012.117-.008.098-.024.088-.04.079-.056.071-.085.067-.102.047-.12.025-.137.003-.273-.042-.256-.101-.241-.161-.227-.219v1.058l.202.128.229.097.257.067.286.035c.133.008.259.007.377-.006.118-.013.229-.036.331-.069.102-.033.196-.077.282-.132.087-.056.164-.121.232-.198l.148-.204.106-.236.064-.267.021-.299-.018-.258-.055-.237-.09-.218-.124-.197-.137-.153-.175-.154-.211-.155-.247-.155-.163-.099-.133-.09-.104-.083-.075-.076-.057-.081-.037-.093-.024-.101-.008-.112.009-.105.028-.095.046-.085.064-.076.08-.063.093-.046.106-.03.12-.014.249.011.24.056.227.1.216.145v-1.049l-.213-.071-.234-.045-.256-.02-.278.006"/></g></svg>