<svg xmlns="http://www.w3.org/2000/svg" viewBox="0 0 16 16"><style>.icon-canvas-transparent{opacity:0;fill:#f6f6f6}.icon-vs-out{fill:#f6f6f6}.icon-vs-bg{fill:#424242}.icon-vs-fg{fill:#f0eff1}.icon-css-red{fill:#bd1e2d}</style><path class="icon-canvas-transparent" d="M16 0v16H0V0h16z" id="canvas"/><path class="icon-vs-out" d="M16 3.379V13h-4c0 1.654-1.346 3-3 3H5a3.005 3.005 0 0 1-2.844-2.044l-.62-.349A3 3 0 0 1 0 11c0-1.654 1.346-3 3-3h2V0h7.621L16 3.379z" id="outline"/><path class="icon-vs-fg" d="M12.028 8h-2.06l2.062-2-.002 2zm-.235-6H7v6c.446 0 .867.105 1.248.28L11.705 5H13v5h-.972V9H9.224c.271.301.488.651.62 1.042l.621.35c.285.16.524.373.738.607H14V4.207L11.793 2z" id="iconFg"/><path class="icon-vs-bg" d="M11 13c0 1.102-.898 2-2 2H5c-1.103 0-2-.898-2-2 0-1.103.897-2 2-2h1l-1 1a1.001 1.001 0 0 0 0 2h4a1 1 0 0 0 1-1 .995.995 0 0 0-.302-.713 2.96 2.96 0 0 0 .275-1.024c.61.344 1.027.989 1.027 1.737zm-8-3h4a1.001 1.001 0 0 1 0 2l-1 1h1c1.102 0 2-.897 2-2s-.898-2-2-2H3c-1.103 0-2 .897-2 2 0 .748.417 1.393 1.027 1.736a2.96 2.96 0 0 1 .275-1.024A.99.99 0 0 1 2 11c0-.551.449-1 1-1zm9.207-9H6v7h1V2h4.793L14 4.207V11h-2.798c.266.292.466.631.6 1H15V3.793L12.207 1zM9 3H8v1h1V3zM8 6h1V5H8v1z" id="iconBg"/><g id="colorImportance"><path class="icon-css-red" d="M11.705 5L8.248 8.28a3 3 0 0 1 .976.72h2.805v1H13V5h-1.295zm.323 3h-2.06l2.062-2-.002 2z"/></g></svg>