<svg xmlns="http://www.w3.org/2000/svg" viewBox="0 0 16 16"><style>.st0{opacity:0}.st0,.st1{fill:#f6f6f6}.st2{fill:#424242}.st3{fill:#388a34}.st4{fill:#f0eff1}</style><g id="outline"><path class="st0" d="M0 0h16v16H0z"/><path class="st1" d="M16 1H0v15h9v-1h7z"/></g><path class="st2" d="M15 2v12H9v-1h5V5H2v4H1V2h14z" id="icon_x5F_bg"/><g id="color_x5F_importance"><path class="st3" d="M1 14h4v1H1zM1 12h4v1H1zM6 14h2v1H6zM6 12h2v1H6zM1 10h4v1H1zM6 10h2v1H6z"/></g><path class="st4" d="M2 5v4h7v4h5V5z" id="icon_x5F_fg"/></svg>