<svg xmlns="http://www.w3.org/2000/svg" viewBox="0 0 16 16"><style>.st0{opacity:0}.st0,.st1{fill:#f6f6f6}.st2{fill:#424242}.st3{fill:#e51400}.st4{fill:#fff}</style><g id="outline"><path class="st0" d="M0 0h16v16H0z"/><path class="st1" d="M16 3h-3V0H8v2H5.612l-.333 1H0v13h13v-.275c1.744-.62 3-2.268 3-4.225 0-1.422-.673-2.675-1.703-3.5H16V3z"/></g><g id="icon_x5F_bg"><path class="st2" d="M1 12h1v1H1zM1 10h1v1H1zM1 14h1v1H1zM12 4h3v3h-3zM1 8h1v1H1zM9 1h3v3H9zM5 14h1v1H5zM7.05 11a4.46 4.46 0 0 1 .438-1.5H5.667L7 5.5l1.048 3.145a4.5 4.5 0 0 1 1.167-1.001L7.667 3H6.333L3 13h1.5l.667-2H7.05zM1 6h1v1H1zM7.76 14H7v1h1v-.703c-.08-.1-.169-.191-.24-.297zM1 4h1v1H1zM3 14h1v1H3z"/></g><path class="st3" d="M11.5 8a3.5 3.5 0 1 0 0 7 3.5 3.5 0 0 0 0-7zm1.854 4.646l-.707.707-1.147-1.146-1.146 1.147-.707-.707 1.146-1.146-1.146-1.146.707-.707 1.146 1.146 1.146-1.146.707.707-1.146 1.145 1.147 1.146z" id="not_x5F_bg"/><path class="st4" d="M13.354 10.354l-.708-.708-1.146 1.147-1.146-1.147-.708.708 1.147 1.146-1.147 1.146.708.708 1.146-1.147 1.146 1.147.708-.708-1.147-1.146z" id="not_x5F_fg"/></svg>