<svg xmlns="http://www.w3.org/2000/svg" viewBox="0 0 16 16"><style>.icon-canvas-transparent{opacity:0;fill:#f6f6f6}.icon-vs-out{fill:#f6f6f6}.icon-vs-bg{fill:#424242}.icon-vs-fg{fill:#f0eff1}.icon-vs-action-green{fill:#388a34}</style><path class="icon-canvas-transparent" d="M16 16H0V0h16v16z" id="canvas"/><path class="icon-vs-out" d="M16 14H9.234c0 .337-.084.675-.259.985A1.98 1.98 0 0 1 7.233 16H1.766c-.73 0-1.38-.379-1.74-1.015-.012-.02-.015-.043-.026-.063V1h5V0h6v1h5v13z" id="outline"/><path class="icon-vs-bg" d="M11 2v11h4V2h-4zm3 10h-2v-1h2v1zm0-2h-2V9h2v1zm0-5h-2V3h2v2zM1 6h4V2H1v4zm1-3h2v2H2V3zm4-2v5h2v3h1v1H7.166l.6 1H9v1h-.634l.582.971c.006.009.008.02.013.029H10V1H6zm3 2H7V2h2v1z" id="iconBg"/><path class="icon-vs-fg" d="M4 5H2V3h2v2zm8 0h2V3h-2v2zm0 5h2V9h-2v1zm0 2h2v-1h-2v1zM7 3h2V2H7v1zm0 6v.723l.166.277H9V9H7zm1.366 3H9v-1H7.766l.6 1zM3 12h2.968L5 10.303V8H4v2.303L3.016 12" id="iconFg"/><path class="icon-vs-action-green" d="M6 10V8h1V7H2v1h1v2L.909 13.486A1 1 0 0 0 1.766 15h5.468a1 1 0 0 0 .858-1.514L6 10zm-2.968 2L4 10.303V8h1v2.303L5.968 12H3.032z" id="colorImportance"/></svg>