<svg xmlns="http://www.w3.org/2000/svg" viewBox="0 0 16 16"><style>.st0{opacity:0}.st0,.st1{fill:#f6f6f6}.st2{fill:#388a34}.st3{fill:#f0eff1}</style><g id="outline"><path class="st0" d="M0 0h16v16H0z"/><path class="st1" d="M14.987 7.314a5.478 5.478 0 0 0-5.495-5.313A5.503 5.503 0 0 0 5.249 4H0v3h1v1H0v3h5.238a5.545 5.545 0 0 0 3.258 1.935l.087.065h.11c.111 0 .221-.001.329.009.158.014.318-.009.478-.009a5.478 5.478 0 0 0 5.498-5.499c0-.052-.005-.103-.011-.187z"/></g><g id="icon_x5F_bg"><path class="st2" d="M4 6H1V5h3v1zm0 1H2v1h2V7zm0 2H1v1h3V9zM14 7.501c0-.052-.008-.102-.008-.153a4.497 4.497 0 1 0-8.972.542 4.74 4.74 0 0 0 .047.354 4.49 4.49 0 0 0 3.696 3.69c.005.002.009.002.013.002a4.473 4.473 0 0 0 1.163.043A4.502 4.502 0 0 0 14 7.501zm-2.592-1.067a8.158 8.158 0 0 0 1.489-.389c.19.447.299.938.299 1.456 0 .08-.008.16-.012.24a7.551 7.551 0 0 1-1.831.555c.07-.393.108-.768.104-1.12a7.336 7.336 0 0 0-.049-.742zm1.145-1.016a7.09 7.09 0 0 1-1.255.318 7.554 7.554 0 0 0-.589-1.725c.757.262 1.4.759 1.844 1.407zM9.5 11.197c-.109 0-.217-.008-.324-.018-.322-.717-.57-1.43-.725-2.125.336.033.686.057 1.045.059a12.899 12.899 0 0 0 .937-.016 13.563 13.563 0 0 1-.87 2.096c-.022 0-.042.004-.063.004zm.004-2.782c-.41-.006-.803-.035-1.182-.079a7.853 7.853 0 0 1-.078-1.152c.002-.248.02-.508.043-.738.387.044.789.056 1.209.056h.259c.314 0 .632.012.956-.012.025.219.044.452.046.683.004.372-.044.778-.135 1.208a16.09 16.09 0 0 1-1.118.034zM9.5 3.805c.106 0 .21.008.313.016a6.98 6.98 0 0 1 .786 1.997 13.82 13.82 0 0 1-1.095.025c-.386-.004-.76-.03-1.119-.071.15-.781.398-1.423.645-1.934.154-.02.31-.033.47-.033zm-1.34.254c-.186.465-.355 1-.471 1.613a12.764 12.764 0 0 1-1.222-.281A3.702 3.702 0 0 1 8.16 4.059zM5.804 7.501c0-.526.112-1.026.31-1.479.44.129.932.252 1.479.346a7.754 7.754 0 0 0 .012 1.86 12.757 12.757 0 0 1-1.788-.467c-.006-.086-.013-.172-.013-.26zm.151 1.044c.514.156 1.102.309 1.765.414.132.674.349 1.359.632 2.053a3.704 3.704 0 0 1-2.397-2.467zm4.436 2.539c.35-.736.62-1.424.795-2.053a8.271 8.271 0 0 0 1.856-.472 3.703 3.703 0 0 1-2.651 2.525z"/></g><g id="icon_x5F_fg"><path class="st3" d="M11.393 6.442a8.071 8.071 0 0 0 1.476-.385c.19.442.297.93.297 1.443 0 .08-.008.159-.012.238a7.5 7.5 0 0 1-1.816.552c.07-.391.107-.762.103-1.111a7.561 7.561 0 0 0-.048-.737zM9.5 11.166c-.108 0-.215-.008-.321-.018a10.837 10.837 0 0 1-.719-2.105c.333.033.68.055 1.036.057.086.002.172.002.257.002.222 0 .446-.006.672-.018a13.522 13.522 0 0 1-.862 2.078c-.022.002-.042.004-.063.004zM9.504 8.407a11.528 11.528 0 0 1-1.172-.078 7.724 7.724 0 0 1-.078-1.143c.002-.246.019-.507.043-.736.384.043.783.051 1.199.051h.257c.312 0 .627.016.948-.008.025.217.043.45.045.68.004.368-.043.772-.133 1.198a15.25 15.25 0 0 1-1.109.036zM5.834 7.501c0-.521.111-1.018.308-1.468.437.129.924.251 1.466.343-.026.26-.046.523-.049.803-.004.34.021.689.062 1.043a12.617 12.617 0 0 1-1.773-.463c-.007-.086-.014-.171-.014-.258zM5.984 8.536c.509.156 1.092.306 1.75.411.131.668.346 1.348.626 2.035a3.673 3.673 0 0 1-2.376-2.446zM10.383 11.055c.348-.731.615-1.412.789-2.037a8.058 8.058 0 0 0 1.84-.467 3.669 3.669 0 0 1-2.629 2.504zM12.553 5.418a7.09 7.09 0 0 1-1.255.318 7.554 7.554 0 0 0-.589-1.725c.757.262 1.4.759 1.844 1.407zM9.5 3.805c.106 0 .21.008.313.016a6.98 6.98 0 0 1 .786 1.997 13.82 13.82 0 0 1-1.095.025c-.386-.004-.76-.03-1.119-.071.15-.781.398-1.423.645-1.934.154-.02.31-.033.47-.033zM8.16 4.059c-.186.465-.355 1-.471 1.613a12.764 12.764 0 0 1-1.222-.281A3.702 3.702 0 0 1 8.16 4.059z"/></g></svg>