<svg xmlns="http://www.w3.org/2000/svg" viewBox="0 0 16 16"><style>.st0{opacity:0}.st0,.st1{fill:#f6f6f6}.st2{fill:#424242}.st3{fill:#388a34}.st4{fill:#f0eff1}</style><g id="outline"><path class="st0" d="M0 0h16v16H0z"/><path class="st1" d="M16 8A8 8 0 0 0 .001 7.97H0V16h10.061v-.277C13.479 14.811 16 11.704 16 8z"/></g><path class="st2" d="M14.988 7.764C14.862 4.008 11.786 1 8 1a7 7 0 0 0-6.999 6.97h1.25a5.726 5.726 0 0 1 .481-2.273c.686.202 1.448.394 2.3.539-.042.406-.072.821-.077 1.258-.002.157.008.317.014.476H6.06c-.006-.155-.017-.311-.015-.464.004-.387.031-.756.067-1.115.603.068 1.23.113 1.882.12l.403.003c.488 0 .982-.016 1.487-.055.038.34.066.686.07 1.047.003.149-.016.309-.024.464h-.008l.031 4.049c.225-.568.524-1.118.669-1.638a12.79 12.79 0 0 0 2.886-.734c-.51 1.709-1.841 3.078-3.492 3.712v1.327C12.875 13.807 15 11.148 15 8c0-.08-.01-.157-.012-.236zM5.185 5.153a18.852 18.852 0 0 1-1.903-.435 5.757 5.757 0 0 1 2.635-2.073c-.29.723-.556 1.554-.732 2.508zm2.821.268c-.6-.007-1.181-.048-1.739-.11a12.133 12.133 0 0 1 1.001-3.009c.24-.031.483-.052.732-.052.165 0 .327.012.488.024.468.812.944 1.846 1.221 3.108-.571.039-1.133.044-1.703.039zm1.875-2.85a5.755 5.755 0 0 1 2.868 2.188c-.686.236-1.334.4-1.951.496a11.71 11.71 0 0 0-.917-2.684zm3.85 5.803c-1.038.452-1.972.722-2.848.863a9.32 9.32 0 0 0 .161-1.743c-.004-.4-.035-.782-.076-1.156a12.478 12.478 0 0 0 2.316-.604c.3.696.466 1.461.466 2.266 0 .126-.011.25-.019.374z" id="icon_x5F_bg"/><g id="color_x5F_importance"><path class="st3" d="M1 15h8V9H1v6zm1-5h6v4H2v-4z"/><path class="st3" d="M3 11h2v2H3zM6 11h1v2H6z"/></g><g id="icon_x5F_fg"><path class="st4" d="M10.969 6.338a12.478 12.478 0 0 0 2.316-.604c.299.696.465 1.461.465 2.266 0 .126-.011.25-.019.374-1.038.452-1.972.722-2.848.863a9.32 9.32 0 0 0 .161-1.743 11.3 11.3 0 0 0-.075-1.156zM12.749 4.76c-.686.236-1.334.4-1.951.496a11.703 11.703 0 0 0-.917-2.685 5.757 5.757 0 0 1 2.868 2.189zM9.918 7.97c.014-.155.039-.315.037-.464a10.395 10.395 0 0 0-.07-1.047c-.505.039-.997.055-1.485.055-.135 0-.265-.002-.4-.003a18.67 18.67 0 0 1-1.888-.12c-.036.359-.063.728-.067 1.115l-.003.464h3.876zM8 2.25c.165 0 .327.012.488.024.468.812.935 1.846 1.212 3.108-.571.039-1.13.044-1.7.039-.6-.007-1.241-.048-1.8-.11.233-1.216.685-2.215 1.067-3.009.241-.031.484-.052.733-.052zM5.917 2.645c-.29.724-.556 1.555-.732 2.509a19.118 19.118 0 0 1-1.903-.436 5.768 5.768 0 0 1 2.635-2.073zM2 14h6v-4H2v4zm4-3h1v2H6v-2zm-3 0h2v2H3v-2zM4.968 7.953c-.005-.151-.014-.304-.013-.453.005-.437.035-.853.077-1.258a20.105 20.105 0 0 1-2.3-.539 5.721 5.721 0 0 0-.479 2.25h2.715zM10.622 10.382a16.533 16.533 0 0 1-.575 1.669v1.313a5.751 5.751 0 0 0 3.461-3.717c-1.041.392-1.992.62-2.886.735z"/></g></svg>