<svg xmlns="http://www.w3.org/2000/svg" viewBox="0 0 16 16"><style>.st0{opacity:0}.st0,.st1{fill:#f6f6f6}.st2{fill:#424242}.st3{fill:#388a34}.st4{fill:#f0eff1}</style><path class="st0" d="M0 0h16v16H0z" id="outline"/><g id="icon_x5F_bg"><path class="st1" d="M12.984 0H7.95c-.941 0-1.943.699-1.943 1.995v3.083c-.166-.015-.327-.049-.498-.049C2.472 5.029 0 7.49 0 10.515a5.591 5.591 0 0 0 .066.813l.001.121.033.082a5.463 5.463 0 0 0 4.469 4.383l.111.022h.021a5.447 5.447 0 0 0 1.346.038 5.463 5.463 0 0 0 4.755-4.006h3.159c1.445 0 2.011-1.172 2.039-1.994V2.528L12.984 0z"/><path class="st2" d="M12.624 1h-4.66s-.94 0-.94 1v3.22c.349.101.683.235 1 .399V2h4v2h2v6h-3.049c.014.165.025.331.025.5s-.011.335-.025.5h2.99c1 0 1.035-1 1.035-1V3l-2.376-2z"/><path class="st3" d="M10.027 10.543c0-.053-.008-.102-.008-.152a4.497 4.497 0 1 0-8.972.541 4.74 4.74 0 0 0 .047.354 4.49 4.49 0 0 0 3.696 3.691l.013.002a4.283 4.283 0 0 0 1.163.043 4.503 4.503 0 0 0 4.061-4.479zM7.435 9.476a8.07 8.07 0 0 0 1.489-.388c.191.445.298.938.298 1.455 0 .08-.008.16-.012.24a7.525 7.525 0 0 1-1.831.555c.07-.393.108-.768.104-1.119a7.342 7.342 0 0 0-.048-.743zM8.58 8.459a7.14 7.14 0 0 1-1.255.319 7.571 7.571 0 0 0-.589-1.725c.757.262 1.4.759 1.844 1.406zm-3.053 5.78c-.109 0-.217-.008-.324-.018a11.03 11.03 0 0 1-.725-2.124 11.327 11.327 0 0 0 1.304.061c.224 0 .45-.006.678-.018a13.596 13.596 0 0 1-.87 2.095c-.022.001-.042.004-.063.004zm.004-2.782c-.41-.006-.825-.035-1.204-.079a7.787 7.787 0 0 1-.056-1.153c.002-.247.02-.507.043-.737.387.044.79.056 1.209.056h.259c.314 0 .632.012.956-.012.025.219.044.451.046.683.004.372-.044.778-.135 1.208a16.09 16.09 0 0 1-1.118.034zm-.004-4.61c.106 0 .21.008.313.016a6.98 6.98 0 0 1 .786 1.997c-.368.025-.729.029-1.095.025-.386-.004-.759-.03-1.119-.071.15-.782.398-1.424.644-1.934.154-.02.311-.033.471-.033zm-1.339.254a8.58 8.58 0 0 0-.471 1.613 12.649 12.649 0 0 1-1.223-.281 3.7 3.7 0 0 1 1.694-1.332zm-2.357 3.442c0-.525.112-1.025.31-1.481.44.131.932.254 1.478.346a8.74 8.74 0 0 0-.05.811c-.004.342.021.694.063 1.051a12.757 12.757 0 0 1-1.788-.467 3.187 3.187 0 0 1-.013-.26zm.151 1.044c.513.157 1.101.31 1.765.415.132.673.349 1.359.631 2.053a3.706 3.706 0 0 1-2.396-2.468zm4.435 2.54c.35-.737.62-1.424.795-2.054a8.165 8.165 0 0 0 1.856-.472 3.7 3.7 0 0 1-2.651 2.526z"/></g><g id="icon_x5F_fg"><path class="st4" d="M12 4V2H8v3.605c.111.057.216.139.323.215A5.45 5.45 0 0 1 10.972 10H14V4h-2zM7.427 9.484a8.366 8.366 0 0 0 1.5-.384c.19.442.266.93.266 1.443 0 .08-.008.159-.012.238a7.545 7.545 0 0 1-1.817.551c.07-.391.107-.762.104-1.111a7.599 7.599 0 0 0-.041-.737zM5.527 14.209c-.108 0-.215-.006-.321-.016a11.36 11.36 0 0 1-.719-2.15c.333.033.684.098 1.04.1.086.002.699.012.925 0-.194.633-.483 1.309-.862 2.063-.022 0-.042.003-.063.003zM5.531 11.449c-.406-.005-.796-.063-1.172-.106a7.042 7.042 0 0 1-.072-1.1 8.62 8.62 0 0 1 .04-.751c.384.043.784.051 1.2.051.086 0-.085 0 0 0 .312 0 .879.023 1.2 0 .025.217-.002.442 0 .672.004.368-.011.773-.101 1.198a14.32 14.32 0 0 1-1.095.036zM1.861 10.543c0-.522.111-1.05.308-1.5.437.129.917.283 1.458.375a7.29 7.29 0 0 0-.042.725c-.004.34 0 .768.042 1.121a12.232 12.232 0 0 1-1.752-.463c-.007-.086-.014-.171-.014-.258zM2.011 11.643a12.93 12.93 0 0 0 1.75.4c.131.667.346 1.295.626 1.982-1.141-.373-2.034-1.225-2.376-2.382zM6.41 14.098c.348-.731.615-1.43.789-2.055.569-.072 1.176-.15 1.84-.4-.37 1.234-1.372 2.143-2.629 2.455zM8.58 8.443a7.054 7.054 0 0 1-1.255.3 7.331 7.331 0 0 0-.589-1.7 3.69 3.69 0 0 1 1.844 1.4zM5.527 6.943c.106 0 .21-.008.313 0 .302.522.607 1.089.786 1.9-.367.025-.729.004-1.095 0-.386-.004-.745-.059-1.104-.1.15-.782.354-1.29.6-1.8.154-.02.34 0 .5 0zM4.188 7.101a8.58 8.58 0 0 0-.471 1.613 12.649 12.649 0 0 1-1.223-.281 3.7 3.7 0 0 1 1.694-1.332z"/></g></svg>