<svg xmlns="http://www.w3.org/2000/svg" viewBox="0 0 16 16"><style>.st0{opacity:0}.st0,.st1{fill:#f6f6f6}.st2{fill:#388a34}</style><g id="outline"><path class="st0" d="M0 0h16v16H0z"/><path class="st1" d="M10 16v-3.264c-.472.17-.978.264-1.5.264s-1.028-.094-1.5-.264V16H1v-5h1V7h2.272a4.523 4.523 0 0 1 1.43-2H5V0h7v5h-.702a4.53 4.53 0 0 1 1.43 2H15v4h1v5h-6z"/></g><path class="st2" d="M14 12V8h-2.05A3.482 3.482 0 0 0 9 5.049V4h2V1H6v3h2v1.049A3.482 3.482 0 0 0 5.05 8H3v4H2v3h4v-3H4V9h1.05a3.492 3.492 0 0 0 3.45 3 3.492 3.492 0 0 0 3.45-3H13v3h-2v3h4v-3h-1zm-5.5-1A2.503 2.503 0 0 1 6 8.5C6 7.122 7.122 6 8.5 6S11 7.122 11 8.5C11 9.879 9.878 11 8.5 11z" id="color_x5F_importance"/></svg>