<svg xmlns="http://www.w3.org/2000/svg" viewBox="0 0 16 16"><style>.st0{opacity:0}.st0,.st1{fill:#f6f6f6}.st2{fill:#424242}.st3{fill:#388a34}.st4{fill:#f0eff1}</style><g id="outline"><path class="st0" d="M0 0h16v16H0z"/><path class="st1" d="M16 1H0v15h6v-1h10z"/></g><path class="st2" d="M15 14H6v-1h8V5H1V2h14v12z" id="icon_x5F_bg"/><path class="st3" d="M5 6v9H1V6h4zm-1 7H2v1h2v-1zm0-2H2v1h2v-1zm0-4H2v2h2V7z" id="color_x5F_importance"/><path class="st4" d="M4 14H2v-1h2v1zm0-3H2v1h2v-1zm0-4H2v2h2V7zm10 6H6V5h8v8z" id="icon_x5F_fg"/></svg>