<svg xmlns="http://www.w3.org/2000/svg" viewBox="0 0 16 16"><style>.st0{fill:#f6f6f6}.st1{fill:#393}.st2{fill:#388a34}</style><path class="st0" d="M12.203 10.5l-.287.504c-.29.507-.664.915-1.11 1.214-.032.021-.066.037-.099.056l3.803-7.606h-1.539l.9-.75L9.17 0H7.808v2.406c-3.295.486-5.833 3.332-5.833 6.761 0 3.447 2.565 6.307 5.888 6.769V16h1c.046 0 .091-.003.139-.008 3.873-.029 6.064-3.838 6.156-4.001L16 10.5h-3.797zM8.774 8.167h-.003l.006-.005-.003.005zm-.966-2.528v2.528H5.292a3.67 3.67 0 0 1 2.516-2.528zM5.142 9.167c0-.125.019-.246.031-.368l1.748 3.495a3.655 3.655 0 0 1-1.779-3.127z" id="outline"/><g id="color_x5F_importance"><path class="st1" d="M8.225 12.667l-1.75-3.5h1.75l.583 1.167 2.334-4.667h1.75l-3.499 7z"/><path class="st2" d="M14.287 11.5h-1.504a4.55 4.55 0 0 1-1.423 1.55c-.142.095-.292.171-.439.248-.082.044-.164.088-.249.126a4.18 4.18 0 0 1-.366.141c-.074.026-.148.058-.224.08a4.43 4.43 0 0 1-.607.137l-.008.001c-.219.033-.439.05-.659.052a4.667 4.667 0 1 1 0-9.335v2.333l3.5-2.916L8.808 1v2.333a5.833 5.833 0 0 0-5.833 5.834A5.832 5.832 0 0 0 8.808 15c.019 0 .037-.002.055-.003V15c.031 0 .062-.008.094-.008 3.361 0 5.33-3.492 5.33-3.492z"/></g></svg>