<svg xmlns="http://www.w3.org/2000/svg" viewBox="0 0 16 16"><style>.st0{opacity:0}.st0,.st1{fill:#f6f6f6}.st2{fill:#388a34}.st3{fill:#f0eff1}</style><g id="outline"><path class="st0" d="M0 0h16v16H0z"/><path class="st1" d="M15 10V7h-5V6h2V0H5v6h2v1H2v3H1v5h15v-5z"/></g><path class="st2" d="M14 11V8H9V5h2V1H6v4h2v3H3v3H2v3h3v-3H4V9h4v2H7v3h3v-3H9V9h4v2h-1v3h3v-3h-1zM4 13H3v-1h1v1zm5 0H8v-1h1v1zM7 4V2h3v2H7zm7 9h-1v-1h1v1z" id="color_x5F_importance"/><g id="icon_x5F_fg"><path class="st3" d="M7 2h3v2H7zM3 12h1v1H3zM8 12h1v1H8zM13 12h1v1h-1z"/></g></svg>