<svg xmlns="http://www.w3.org/2000/svg" viewBox="0 0 16 16"><style>.st0{opacity:0}.st0,.st1{fill:#f6f6f6}.st2{fill:#388a34}</style><g id="outline"><path class="st0" d="M0 0h16v16H0z"/><path class="st1" d="M1.004 6.909C1.305 3.596 4.158 1 7.5 1c1.289 0 2.488.382 3.5 1.031V1h1.414L15 3.586v5.462l-.004.043C14.695 12.404 11.842 15 8.5 15A6.462 6.462 0 0 1 5 13.969V15H3.586L1 12.414l.004-5.505z"/></g><path class="st2" d="M10.073 13.746A5.468 5.468 0 0 1 8.5 14 5.495 5.495 0 0 1 4 11.652V14l-2-2V8h4l2 2H5.351A3.497 3.497 0 0 0 8.5 12c.224 0 .442-.023.656-.063l.917 1.809zM12 2v2.348A5.497 5.497 0 0 0 7.5 2c-.549 0-1.071.103-1.573.253l.918 1.809A3.493 3.493 0 0 1 10.648 6H8l2 2h4V4l-2-2zm1.521 8.779A5.45 5.45 0 0 0 14 9h-2a3.383 3.383 0 0 1-.168.653l1.689 1.126zm-2.497.139a3.724 3.724 0 0 1-.49.421l.915 1.804a5.574 5.574 0 0 0 1.259-1.103l-1.684-1.122zM4.976 5.082a3.78 3.78 0 0 1 .49-.421l-.914-1.804a5.58 5.58 0 0 0-1.26 1.103l1.684 1.122zm-2.497.139A5.456 5.456 0 0 0 2 7h2c.032-.227.093-.443.169-.653l-1.69-1.126z" id="icon_x5F_bg"/></svg>