<svg xmlns="http://www.w3.org/2000/svg" viewBox="0 0 16 16"><style>.st0{opacity:0}.st0,.st1{fill:#f6f6f6}.st2{fill:#388a34}</style><g id="outline"><path class="st0" d="M0 0h16v16H0z"/><path class="st1" d="M12.203 10.5l-.287.504c-.29.507-.664.915-1.11 1.213-.032.022-.066.037-.1.056l3.804-7.606h-1.538l.899-.75L9.17 0H7.808v2.406c-3.295.485-5.833 3.332-5.833 6.76 0 3.447 2.565 6.307 5.888 6.769V16h1c.046 0 .091-.003.139-.008 3.873-.029 6.064-3.838 6.156-4.001L16 10.5h-3.797zM8.774 8.167h-.003l.006-.005-.003.005zm-.966-2.528v2.528H5.292a3.67 3.67 0 0 1 2.516-2.528zM5.142 9.166c0-.125.019-.246.031-.368l1.748 3.496a3.658 3.658 0 0 1-1.779-3.128z"/></g><g id="color_x5F_importance"><path class="st2" d="M8.225 12.666l-1.75-3.5h1.75l.583 1.168 2.334-4.667h1.75l-3.499 6.999zM8.032 13.789a4.657 4.657 0 0 1-1.661-.549l-.757.904a5.773 5.773 0 0 0 2.418.822v-1.177zM11.957 12.398l.682.921a8.613 8.613 0 0 0 1.486-1.819h-1.504a4.76 4.76 0 0 1-.664.898z"/><path class="st2" d="M5.257 12.369a4.648 4.648 0 0 1-1.278-3.203A4.666 4.666 0 0 1 8.645 4.5v2.333l3.5-2.917L8.645 1v2.333a5.832 5.832 0 0 0-4.144 9.937l.756-.901zM10.832 13.256c-.025.014-.049.029-.074.042a4.125 4.125 0 0 1-.248.126c-.121.055-.244.098-.367.141-.074.026-.147.057-.224.08a4.817 4.817 0 0 1-.473.106v1.195a5.322 5.322 0 0 0 2.072-.762l-.686-.928z"/></g></svg>