<svg xmlns="http://www.w3.org/2000/svg" viewBox="0 0 16 16"><style>.st0{opacity:0}.st0,.st1{fill:#f6f6f6}.st2{fill:#388a34}.st3{fill:#f0eff1}</style><g id="outline"><path class="st0" d="M0 0h16v16H0z"/><path class="st1" d="M15.994 11.852V3.533L12.055 0H2.018v2.004H0v3.957h2.018v1.987h.871a5.006 5.006 0 0 0-.992 2.973c0 2.473 1.788 4.54 4.147 4.988V16h1l.124-.006c1.88-.025 3.333-1.237 4.121-2.084h2.757c.79 0 1.252-.338 1.501-.622.464-.531.468-1.178.447-1.436z"/></g><g id="icon_x5F_bg"><path class="st2" d="M11.113 12.637H9.806a3.209 3.209 0 0 1-1.002 1.092c-.101.066-.206.121-.311.176-.058.031-.115.063-.175.088-.085.039-.171.068-.258.1-.051.018-.103.039-.157.057a3.819 3.819 0 0 1-.428.096H7.47a3.013 3.013 0 0 1-.464.037 3.287 3.287 0 0 1 0-6.574V9.35l2.465-2.053-2.466-2.056v1.644a4.108 4.108 0 1 0 0 8.218c.013 0 .026-.004.038-.004v.004c.022 0 .043-.006.066-.006 2.362.001 4.004-2.46 4.004-2.46z"/><path id="Foreground_2_" class="st2" d="M7 3.018H5V1H3.018v2.018H1V5h2.018v2H5V5h2z"/><path class="st2" d="M14.994 11.977V4L11.67 1H6v1h4.995v3h3v7H12v1h2.045c1.092 0 .949-1.023.949-1.023z"/></g><path class="st3" d="M8 2v3l3 2-2 5h5V5h-3V2z" id="icon_x5F_fg"/></svg>