<svg xmlns="http://www.w3.org/2000/svg" viewBox="0 0 16 16"><style>.icon-canvas-transparent{opacity:0;fill:#f6f6f6}.icon-vs-out{fill:#f6f6f6}.icon-vs-bg{fill:#424242}.icon-cs-green{fill:#388a34}</style><path class="icon-canvas-transparent" d="M16 0v16H0V0h16z" id="canvas"/><path class="icon-vs-out" d="M13.621 12l.379.379v1.242L11.621 16H2.379L0 13.621v-1.242L2.379 10h2.54a5.642 5.642 0 0 1 1.862-2.858 4.425 4.425 0 0 1-.918-2.7A4.446 4.446 0 0 1 10.305 0a4.446 4.446 0 0 1 4.44 4.441c0 .991-.33 1.936-.918 2.7a5.64 5.64 0 0 1 2.052 3.749L16 12h-2.379z" id="outline"/><path class="icon-vs-bg" d="M12.208 7.304A3.439 3.439 0 0 0 10.305 1a3.446 3.446 0 0 0-3.442 3.441c0 1.194.612 2.245 1.538 2.863A4.623 4.623 0 0 0 5.957 10h1.086c.569-1.244 1.806-2.118 3.262-2.118 1.823 0 3.32 1.361 3.567 3.118h1.013a4.621 4.621 0 0 0-2.677-3.696zm-1.903-.422a2.443 2.443 0 0 1-2.441-2.441A2.442 2.442 0 0 1 10.305 2a2.443 2.443 0 0 1 2.44 2.441 2.444 2.444 0 0 1-2.44 2.441z" id="iconBg"/><g id="colorImportance"><path class="icon-cs-green" d="M5 11h4v4H5v-4zm5.56-.5l-.62.619L11.821 13 9.94 14.881l.62.619 2.5-2.5-2.5-2.5zm-7.12 0L.94 13l2.5 2.5.619-.619L2.179 13l1.881-1.881-.62-.619z"/></g></svg>