<svg xmlns="http://www.w3.org/2000/svg" viewBox="0 0 16 16"><style>.st0{opacity:0}.st0,.st1{fill:#f6f6f6}.st2{fill:#424242}.st3{fill:#388a34}.st4{fill:#f0eff1}</style><g id="outline"><path class="st0" d="M0 0h16v16H0z"/><path class="st1" d="M16 1H0v14h1.586l1 1h6.828l1-1H16z"/></g><path class="st2" d="M15 2v12h-3.584l.584-.586V13h2V5H2v5.586l-1 1V2h14z" id="icon_x5F_bg"/><g id="color_x5F_importance"><path class="st3" d="M4 11h4v4H4zM11 13l-2 2v-1l1-1-1-1v-1zM3 11v1l-1 1 1 1v1l-2-2z"/></g><path class="st4" d="M2 5v5.586L2.586 10h6.828L12 12.586V13h2V5z" id="icon_x5F_fg"/></svg>