<svg xmlns="http://www.w3.org/2000/svg" viewBox="0 0 16 16"><style>.icon-canvas-transparent{opacity:0;fill:#f6f6f6}.icon-vs-out{fill:#f6f6f6}.icon-vs-bg{fill:#424242}</style><path class="icon-canvas-transparent" d="M16 0v16H0V0h16z" id="canvas"/><path class="icon-vs-out" d="M15.304 14.134A3.493 3.493 0 0 1 12.208 16H3.792A3.485 3.485 0 0 1 .84 14.367c-.546-.741-.84-1.64-.84-2.702 0-1.342.431-2.453 1.28-3.304a4.218 4.218 0 0 1 1.838-1.074L5 4.536V3H4V0h8v3h-1v1.536l4.097 5.987a3.496 3.496 0 0 1 .207 3.611z" id="outline"/><path class="icon-vs-bg" d="M6 4.846V2H5V1h6v1h-1v2.846l1.604 2.344h-1.211L9 5.154V2H7v3.154L5.615 7.179a6.12 6.12 0 0 0-1.13-.101l-.012.001L6 4.846zm8.271 6.242l-1.607-2.349v1.394H11V15h1.208c.93 0 1.777-.511 2.211-1.333a2.491 2.491 0 0 0-.148-2.579zM11.664 8.19H6.708v.944h1.92v5.755H9.74V9.133h1.924V8.19zm-9.676.878C1.329 9.727 1 10.594 1 11.665c0 .996.293 1.802.878 2.415s1.364.92 2.336.92c.751 0 1.378-.131 1.882-.392V13.58c-.464.299-1.012.448-1.644.448-.685 0-1.238-.218-1.658-.656-.42-.438-.631-1.025-.631-1.763 0-.775.225-1.396.675-1.859.45-.464 1.038-.696 1.763-.696.545 0 1.043.134 1.495.402V8.353c-.426-.183-.963-.276-1.611-.276-1.006 0-1.838.331-2.497.991z" id="iconBg"/></svg>