<svg xmlns="http://www.w3.org/2000/svg" viewBox="0 0 16 16"><style>.st0{opacity:0}.st0,.st1{fill:#f6f6f6}.st2{fill:#424242}.st3{fill:#f0eff1;stroke:#424242;stroke-width:.15;stroke-miterlimit:10}</style><g id="outline"><path class="st0" d="M0 0h16v15.969H0z"/><path class="st1" d="M9.718.1H8.674L2.145 3.397v.726H0v4.99h2l.145.002v1.437L2 10.696V16.1h5v-1.623l2.302 1.448h.487L16 11.379V3.408z"/></g><g id="icon_x5F_fg"><path class="st2" d="M15 10.795V3.917L9.197.856 3.145 3.917v6.877l6.377 4.018L15 10.795zM9.126 1.912l4.799 2.364-4.477 2.686-4.835-2.758 4.513-2.292zm-.04 11.52v.024l-.014-.012-.014.012v-.024l-4.947-3.225V5.021l5.015 2.8v5.585l-.04.026zm5.034-3.067l-4.027 2.9v-5.41L14.12 5.22v5.145z"/><path class="st3" d="M9.126 1.912l4.799 2.364-4.477 2.686-4.835-2.758z"/><path class="st1" d="M7 4.03H0v5h2l1 .017v.569l-1 1V16h5v-5.384l-1-1V8.03c0-.551.449-1 1-1a1 1 0 0 1 .962.753L8.019 8h1.82l.057-.209A2.92 2.92 0 0 0 10 7.03c0-1.654-1.346-3-3-3z"/><path class="st3" d="M9.086 13.432v.023l-.014-.012-.013.012v-.023l-4.948-3.225V5.021l5.015 2.801v5.584zM14.12 10.365l-4.027 2.901v-5.41l4.027-2.635z"/><path class="st1" d="M7 3.916H0v5h2l1 .016v.571l-1 1v5.383h5v-5.383l-1-1V7.916c0-.552.449-1 1-1a1 1 0 0 1 .962.753l.057.217h1.82l.057-.21c.07-.262.104-.511.104-.76 0-1.655-1.346-3-3-3z"/><path class="st2" d="M5 8.03a2 2 0 0 1 2-2c.931 0 1.705.639 1.93 1.499v.001a1.91 1.91 0 0 0 .07-.5 2 2 0 0 0-2-2H4a1 1 0 0 1-1 1c-.043 0-.082-.013-.124-.018v-.007a1.02 1.02 0 0 1-.605-.307c-.035-.039-.06-.084-.089-.128A.944.944 0 0 1 2 5.03H1v3h1a.99.99 0 0 1 .876-.975V7.03H3a1 1 0 0 1 1 1v2l-1 1v4h3v-4l-1-1v-2z"/></g></svg>