<svg xmlns="http://www.w3.org/2000/svg" viewBox="0 0 16 16"><style>.icon-canvas-transparent{opacity:0;fill:#f6f6f6}.icon-vs-out{fill:#f6f6f6}.icon-vs-bg{fill:#424242}</style><path class="icon-canvas-transparent" d="M16 16H0V0h16v16z" id="canvas"/><path class="icon-vs-out" d="M1 6v-.78l-.062.061L0 4.343V1.982L1.982 0h1.067l3.179 3.196-2.117 2.117L4 5.203V6h3V5h3V1h4v10h-.02L16 13.02v1.067L14.076 16h-2.539l-.851-.851.11-.111H1V6z" id="outline"/><path class="icon-vs-bg" d="M7 11H5V7h2v4zm3-5H8v5h2V6zm3-4h-2v9h2V2zm-.163 9.272l-.707.707 1.052 1.06H3V2.8l1.109 1.101.707-.707L2.515.881.233 3.163l.707.707L2 2.818v11.22h11.2l-1.101 1.109.707.707 2.313-2.301-2.282-2.281z" id="iconBg"/></svg>