<svg xmlns="http://www.w3.org/2000/svg" viewBox="0 0 16 16"><style>.icon-canvas-transparent{opacity:0;fill:#f6f6f6}.icon-vs-out{fill:#f6f6f6}.icon-vs-bg{fill:#424242}.icon-vs-fg{fill:#f0eff1}</style><path class="icon-canvas-transparent" d="M16 16H0V0h16v16z" id="canvas"/><path class="icon-vs-out" d="M1 5.414v-.222l-.062.061L0 4.315V1.954L1.954 0h1.122l3.151 3.168-.283.284 2.107-1.066 1.746.932V1.016h5.229l-.015 5.263H13v3.714l3 2.999v1.067L14.049 16h-2.484l-.878-.878.11-.111H1V5.414z" id="outline"/><path class="icon-vs-bg" d="M11.755 9.874V5.471L8.041 3.512 4.167 5.471v4.403l4.081 2.57 3.507-2.57zm-3.76-5.686l3.07 1.513L8.201 7.42 5.106 5.655l2.889-1.467zm-.024 7.373v.016l-.01-.008-.008.008v-.016L4.786 9.497V6.178L7.995 7.97v3.574l-.024.017zm3.219-1.962l-2.576 1.856V7.992l2.576-1.567v3.174zm3.929 3.926l-2.313 2.301-.707-.707L13.2 14.01H2V2.79L.94 3.842l-.707-.707L2.514.853l2.301 2.313-.706.707L3 2.773v9.538l1.221-1.221.868.547-1.374 1.374h9.467l-1.052-1.06.707-.707 2.282 2.281zm-2.83-10.503l-1.493-.005v-1h3.227l-.009 3.263h-1l-.005-1.562-.842.842-.926-.49 1.048-1.048z" id="iconBg"/><path class="icon-vs-fg" d="M7.995 4.188l3.07 1.513L8.201 7.42 5.106 5.655l2.889-1.467zm0 7.356V7.97L4.786 6.178v3.319l3.167 2.064v.016l.008-.008.01.008v-.016l.024-.017zm3.195-5.119L8.614 7.992v3.463l2.576-1.856V6.425z" id="notificationFg"/></svg>