<svg xmlns="http://www.w3.org/2000/svg" viewBox="0 0 16 16"><style>.st0{opacity:0}.st0,.st1{fill:#f6f6f6}.st2{fill:#424242}.st3{fill:#00539c}.st4{fill:#ffd838}.st5{fill:#f0eff1}</style><g id="outline"><path class="st0" d="M0 0h16v16H0z"/><path class="st1" d="M12.5 7h-2L7 10.5v2l3.5 3.5h2l3.5-3.5v-2L12.5 7z"/></g><path class="st2" d="M7 10.5l1-1V9H4V5h4V3h.586l4 4-.043.043.707.707L14 7 9 2H7v2H3v6h4z" id="icon_x5F_bg"/><path class="st3" d="M12 8h-1l-3 3v1l3 3h1l3-3v-1l-3-3zm0 6h-1v-1h1v1zm0-2h-1V9h1v3z" id="color_x5F_importance"/><g id="icon_x5F_fg"><path class="st4" d="M8 9v.5L10.5 7h2l.043.043.043-.043-4-4H8v2H4v4h3z"/><path class="st5" d="M11 9v3h1V9h-1zm0 5h1v-1h-1v1z"/></g></svg>