<svg xmlns="http://www.w3.org/2000/svg" viewBox="0 0 16 16"><style>.st0{opacity:0}.st0,.st1{fill:#f6f6f6}.st2{fill:#424242}.st3{fill:#f0eff1}</style><g id="outline"><path class="st0" d="M0 0h16v16H0z"/><path class="st1" d="M2 3v2H0v9h14v-2h2V3z"/></g><g id="icon_x5F_bg"><ellipse class="st2" cx="6.999" cy="9.5" rx="2" ry="2.5"/><path class="st2" d="M9.999 9h1v1h-1z"/><path class="st2" d="M.999 13h12V6h-12v7zm1-5h1V7h8v1h1v3h-1v1h-8v-1h-1V8z"/><path class="st2" d="M2.999 9h1v1h-1zM2.999 4v1h11v6h1V4z"/></g><path class="st3" d="M11 7H7c1.105 0 2 1.119 2 2.5S8.105 12 7 12h4v-1h1V8h-1V7zm0 3h-1V9h1v1zm-6-.5C5 8.119 5.895 7 7 7H3v1H2v3h1v1h4c-1.105 0-2-1.119-2-2.5zM4 10H3V9h1v1z" id="icon_x5F_fg"/></svg>