<svg xmlns="http://www.w3.org/2000/svg" viewBox="0 0 16 16" enable-background="new 0 0 16 16"><style type="text/css">.icon-canvas-transparent{opacity:0;fill:#F6F6F6;} .icon-vs-out{fill:#F6F6F6;} .icon-vs-bg{fill:#424242;} .icon-vs-fg{fill:#F0EFF1;}</style><path class="icon-canvas-transparent" d="M16 16h-16v-16h16v16z" id="canvas"/><path class="icon-vs-out" d="M13 6v4h3v6h-6v-2h-4v2h-6v-6h3v-4h-3v-6h6v2h3.621l.379.379v-2.379h6v6h-3z" id="outline"/><path class="icon-vs-fg" d="M9 4.207v1.793h1.793l-1.793-1.793zm-4 7.793h6v-5h-3v-3h-3v8z" id="iconFg"/><path class="icon-vs-bg" d="M2 5h-1v-4h4v1h-3v3zm12 9h-3v1h4v-4h-1v3zm-10-11h5.207l2.793 2.792v7.208h-8v-10zm5 1.207v1.793h1.793l-1.793-1.793zm-4 7.793h6v-5h-3v-3h-3v8zm6-11v1h3v3h1v-4h-4zm-9 10h-1v4h4v-1h-3v-3z" id="iconBg"/></svg>