<svg xmlns="http://www.w3.org/2000/svg" viewBox="0 0 16 16"><style>.st0{opacity:0}.st0,.st1{fill:#f6f6f6}.st2{fill:#424242}</style><g id="outline"><path class="st0" d="M0 0h16v16H0z"/><path class="st1" d="M12.82.428L12.521 0H3.479L3.18.428C1.957 2.18 1 5.506 1 8c0 2.494.957 5.82 2.18 7.572l.299.428h9.043l.299-.428C14.043 13.82 15 10.494 15 8c0-2.494-.957-5.82-2.18-7.572zM8.753 14.417L8 15.467l-.753-1.05C5.798 12.396 5 10.117 5 8c0-2.726.898-4.537 2.247-6.417L8 .534l.753 1.049C10.102 3.463 11 5.274 11 8c0 2.117-.798 4.396-2.247 6.417z"/></g><path class="st2" d="M9.565 1H12c1.111 1.593 2 4.691 2 7s-.889 5.406-2 7H9.565C11 13 12 10.551 12 8c0-3-1-5-2.435-7zm-3.13 0H4C2.889 2.593 2 5.691 2 8s.889 5.406 2 7h2.435C5 13 4 10.551 4 8c0-3 1-5 2.435-7z" id="icon_x5F_bg"/></svg>