<svg xmlns="http://www.w3.org/2000/svg" viewBox="0 0 16 16"><style>.st0{opacity:0}.st0,.st1{fill:#f6f6f6}.st2{fill:#424242}</style><g id="outline"><path class="st0" d="M0 0h16v16H0z"/><path class="st1" d="M8 15c-3.859 0-7-3.141-7-7 0-3.86 3.141-7 7-7a7.013 7.013 0 0 1 6.592 4.666L15 7h-4.131l-.289-.496C10.031 5.562 9.066 5 8 5 6.346 5 5 6.346 5 8s1.346 3 3 3h1v4H8z"/></g><path class="st2" d="M13.65 6C12.824 3.674 10.606 2 8 2 4.691 2 2 4.691 2 8s2.691 6 6 6v-2c-2.205 0-4-1.794-4-4s1.795-4 4-4c1.474 0 2.75.811 3.443 2h2.207z" id="icon_x5F_bg"/></svg>