<svg xmlns="http://www.w3.org/2000/svg" viewBox="0 0 16 16"><style>.st0{opacity:0}.st0,.st1{fill:#f6f6f6}.st2{fill:#424242}.st3{fill:#f0eff1}</style><g id="outline"><path class="st0" d="M0 0h16v16H0z"/><path class="st1" d="M0 2h16v12H0z"/></g><g id="icon_x5F_bg"><path class="st2" d="M9 6h4v1H9zM9 8h4v1H9zM9 10h4v1H9z"/><path class="st2" d="M1 3v10h14V3H1zm13 9H2V5h12v7z"/><path class="st2" d="M5.5 11a2.5 2.5 0 1 0 0-5 2.5 2.5 0 0 0 0 5zM3.896 7.604l.707-.707.897.896.896-.896.707.707-.896.896.896.896-.707.707-.896-.896-.896.896-.708-.707.897-.896-.897-.896z"/></g><g id="icon_x5F_fg"><path class="st3" d="M2 5v7h12V5H2zm3.5 6a2.5 2.5 0 1 1 0-5 2.5 2.5 0 0 1 0 5zm7.5 0H9v-1h4v1zm0-2H9V8h4v1zm0-2H9V6h4v1z"/><path class="st3" d="M6.396 6.896l-.896.897-.896-.897-.708.708.897.896-.897.896.708.708.896-.897.896.897.708-.708-.897-.896.897-.896z"/></g></svg>