<svg xmlns="http://www.w3.org/2000/svg" viewBox="0 0 16 16"><style>.st0{fill:#f6f6f6}.st1{fill:#424242}.st2{fill:#f0eff1}</style><path class="st0" d="M16.003 3.628v2.79l-8 9.143-8-9.143v-2.79l2.586-2.586h10.828l2.586 2.586z" id="outline"/><path class="st1" d="M13.003 2.042h-10l-2 2v2l6.364 7.273-.008.02.036.014.607.693.607-.693.036-.014-.008-.02 6.364-7.273v-2l-1.998-2zm-7.44 3l1-2h2.881l1 2H5.563zm4.531 1l-2.091 5.576-2.091-5.576h4.182zM2.003 4.456l1.414-1.414h2.026l-.985 1.971.011.029H2.003v-.586zm2.841 1.586l1.884 5.023-4.396-5.023h2.512zm4.434 5.023l1.884-5.023h2.512l-4.396 5.023zm2.259-6.023l.011-.029-.985-1.971h2.026l1.414 1.414v.586h-2.466z" id="icon_x5F_bg"/><path class="st2" d="M10.563 3.042h2.026l1.414 1.414v.586h-2.466l.011-.029-.985-1.971zm-8.231 3l4.396 5.023-1.884-5.023H2.332zm7.111-3h-2.88l-1 2h4.881l-1.001-2zm-4.974 2l-.011-.029.985-1.971H3.417L2.003 4.456v.586h2.466zm6.693 1l-1.884 5.023 4.395-5.023h-2.511zm-3.159 5.576l2.091-5.576H5.912l2.091 5.576z" id="icon_x5F_fg"/></svg>