<svg xmlns="http://www.w3.org/2000/svg" viewBox="0 0 16 16"><style>.st0{opacity:0}.st0,.st1{fill:#f6f6f6}.st2{fill:#424242}.st3{fill:#f0eff1}</style><g id="outline"><path class="st0" d="M0 0h16v16H0z"/><path class="st1" d="M12 5h1V2h-2V0H4v8.725l-1.02 2.039L2.598 10H0v3.277L1.361 16h3.237l1.5-3H16V6h-4z"/></g><g id="icon_x5F_bg"><path class="st2" d="M5 3h7v1H5zM5 1h5v1H5zM9.098 7l-.5 1H14v3H7.098l-.5 1H15V7zM5.979 7l-3 6-1-2H0v.041L1.979 15h2l4-8zM5 5h6v1H5z"/></g><path class="st3" d="M14 11V8H8.598l-1.5 3z" id="icon_x5F_fg"/></svg>