<svg xmlns="http://www.w3.org/2000/svg" viewBox="0 0 16 16"><style>.st0{fill:#f5f5f5}.st1{fill:#424242}.st2{fill:#bd1e2d}.st3{fill:#f0eff1}.st4{fill:#f6f6f6}</style><path class="st0" d="M16 5.556L12.061 2H6c-.97 0-2 .701-2 2v10c0 1.299 1.03 2 2 2h8c1.299 0 2-1.03 2-2V5.556z" id="outline"/><g id="icon_x5F_bg"><path class="st1" d="M11.64 3H5.964S5 3 5 4v10c0 1 .965 1 .965 1h8c1 0 1.035-1 1.035-1V6l-3.36-3zM14 14H6V4h5v3h3v7z"/><path class="st1" d="M7 5h1v1H7zM7 7h1v1H7zM7 9h1v1H7z"/><path class="st2" d="M11.705 8l-5.27 5h1.406l1.187-1h3v1H13V8h-1.295zm.323 3h-2.06l2.062-2-.002 2z"/><path class="st3" d="M12.028 11l.001-2-2.061 2z"/><path class="st3" d="M11 7V4H6v10h8V7h-3zM7 5h1v1H7V5zm0 2h1v1H7V7zm0 2h1v1H7V9zm6 4h-.972v-1h-3l-1.187 1H6.436l5.27-5H13v5z"/><path class="st1" d="M7 5h1v1H7zM7 7h1v1H7zM7 9h1v1H7zM11.705 8l-5.27 5h1.406l1.187-1h3v1H13V8h-1.295zm.323 3h-2.06l2.062-2-.002 2z"/></g><g id="color_x5F_action"><path class="st4" d="M10.969 7.719L10.413 7l.001-.001L5 1.586 3.414 0h-.828L0 2.586v.828l2 2 5 4.999.75.587 3.25-.001z"/><path transform="rotate(-45.001 6 6)" class="st1" d="M4.586 3.171h2.828v5.656H4.586z"/><path transform="rotate(-45.001 2.5 2.5)" class="st1" d="M1.086 1.793h2.828v1.414H1.086z"/><path class="st1" d="M10 8v1.999L8 10"/></g></svg>