<svg xmlns="http://www.w3.org/2000/svg" viewBox="0 0 16 16"><style>.icon-canvas-transparent{opacity:0;fill:#f6f6f6}.icon-vs-out{fill:#f6f6f6}.icon-vs-bg{fill:#424242}.icon-vs-fg{fill:#f0eff1}.icon-vs-action-blue{fill:#00539c}</style><path class="icon-canvas-transparent" d="M16 16H0V0h16v16z" id="canvas"/><path class="icon-vs-out" d="M15.252 6.335L15 6.586V16H1V0h14v2.513c.086.065.175.126.25.202a2.54 2.54 0 0 1 .75 1.81 2.55 2.55 0 0 1-.748 1.81z" id="outline"/><path class="icon-vs-fg" d="M13 2.041V2H3v12h10V8.586L10.586 11H12v1H9.586l-.132.132-4.827 1.208 1.205-4.83 5.797-5.795A2.487 2.487 0 0 1 13 2.041zM7 7H5V6h2v1zm3-3H4V3h6v1zm3.836.922l-5.405 5.404-1.057.264.265-1.057 5.404-5.404c.187-.188.605-.188.793 0a.553.553 0 0 1 .164.396.566.566 0 0 1-.164.397z" id="iconFg"/><path class="icon-vs-bg" d="M14 7.586V15H2V1h12v1.061A2.808 2.808 0 0 0 13.44 2a2.79 2.79 0 0 0-.44.041V2H3v12h10V8.586l1-1zM10 3H4v1h6V3zM7 7H5V6h2v1zm5 5H9v-1h3v1z" id="iconBg"/><g id="colorAction"><path class="icon-vs-action-blue" d="M14.543 3.422c-.563-.563-1.645-.563-2.207 0l-5.601 5.6L6 11.965l2.943-.736 5.601-5.6c.294-.295.456-.687.456-1.104s-.163-.809-.457-1.103zm-.707 1.5l-5.405 5.404-1.057.264.265-1.057 5.404-5.404c.187-.188.605-.188.793 0a.553.553 0 0 1 .164.396.566.566 0 0 1-.164.397z"/></g></svg>