<svg xmlns="http://www.w3.org/2000/svg" viewBox="0 0 16 16" enable-background="new 0 0 16 16"><style type="text/css">.icon-canvas-transparent{opacity:0;fill:#F6F6F6;} .icon-vs-out{fill:#F6F6F6;} .icon-vs-bg{fill:#424242;}</style><path class="icon-canvas-transparent" d="M16 16h-16v-16h16v16z" id="canvas"/><path class="icon-vs-out" d="M16 6v10h-3v-3.834l-6 3.601v.233h-3v-8.599l-4-3.988v-.827l2.586-2.586h.837l7.577 7.417v1.217l2 1.2v-3.834h3z" id="outline"/><g id="iconBg"><path class="icon-vs-bg" d="M15 7v8h-1v-8h1zm-4 2.8v1.2h-3v3l5-3-2-1.2zm-6-1.402v6.602h1v-5.604l-1-.998zm0-5.398l-2 2 4 3.999 2-2-4-3.999zm-2-2l-2 2 1 1 2-2-1-1zm5 9l2-.001v-1.999"/></g></svg>