<svg xmlns="http://www.w3.org/2000/svg" width="16" height="16"><style type="text/css">.icon-canvas-transparent{opacity:0;fill:#F6F6F6;} .icon-vs-out{fill:#F6F6F6;} .icon-vs-bg{fill:#424242;} .icon-vs-fg{fill:#F0EFF1;}</style><path class="icon-canvas-transparent" d="M16 16h-16v-16h16v16z" id="canvas"/><path class="icon-vs-out" d="M3 16v-2h-3v-10h1v-4h2.747l4.253 3.12 4.254-3.12h2.746v4h1v10h-3v2h-10z" id="outline"/><path class="icon-vs-bg" d="M15 5h-1v-4h-1.419l-4.581 3.36-4.581-3.36h-1.419v4h-1v8h3v2h8v-2h3v-8zm-2-2.959v2.959h-4.111l4.111-2.959zm-10 0l4.111 2.959h-4.111v-2.959zm-1 9.959v-6h5v1h-3v5h-2zm9 2h-6v-6h6v6zm3-2h-2v-5h-3v-1h5v6z" id="iconBg"/><g id="iconFg"><path class="icon-vs-fg" d="M5 14v-6h6v6h-6zm-2-9h4.111l-4.111-2.959v2.959zm10-2.959l-4.111 2.959h4.111v-2.959zm-4 3.959v1h3v5h2v-6h-5zm-5 1h3v-1h-5v6h2v-5z"/></g></svg>