<svg xmlns="http://www.w3.org/2000/svg" viewBox="0 0 16 16"><style>.st0{opacity:0}.st0,.st1{fill:#f6f6f6}.st2{fill:#424242}.st3{fill:#f0eff1}</style><g id="outline"><path class="st0" d="M0 0h16v16H0z"/><path class="st1" d="M8 0C4.075 0 1 1.977 1 4.5v7C1 14.023 4.075 16 8 16s7-1.977 7-4.5v-7C15 1.977 11.925 0 8 0z"/></g><path class="st2" d="M8 1C4.686 1 2 2.567 2 4.5v7C2 13.434 4.686 15 8 15s6-1.566 6-3.5v-7C14 2.567 11.314 1 8 1zm5 10.5c0 1.183-2.054 2.5-5 2.5s-5-1.317-5-2.5V6.434C4.074 7.377 5.912 8 8 8s3.926-.623 5-1.567V11.5zM8 7C5.054 7 3 5.683 3 4.5S5.054 2 8 2s5 1.317 5 2.5S10.946 7 8 7z" id="icon_x5F_bg"/><g id="icon_x5F_fg"><path class="st3" d="M8 7c2.946 0 5-1.317 5-2.5S10.946 2 8 2 3 3.317 3 4.5 5.054 7 8 7z"/><path class="st3" d="M3 6.434V11.5C3 12.683 5.054 14 8 14s5-1.317 5-2.5V6.433C11.926 7.377 10.088 8 8 8s-3.926-.623-5-1.566z"/></g></svg>