<svg xmlns="http://www.w3.org/2000/svg" viewBox="0 0 16 16"><style>.st0{opacity:0}.st0,.st1{fill:#f6f6f6}.st2{fill:#424242}</style><g id="outline"><path class="st0" d="M0 0h16v16H0z"/><path class="st1" d="M12.1 2.761C10.856 1.592 9.025 1 6.658 1H2v14h4.567c1.086 0 2.095-.169 2.998-.502a6.882 6.882 0 0 0 2.373-1.455 6.416 6.416 0 0 0 1.534-2.294c.35-.872.528-1.848.528-2.9 0-2.191-.639-3.902-1.9-5.088zM9.69 9.368a2.764 2.764 0 0 1-.615 1.025 2.66 2.66 0 0 1-1.001.644c-.425.164-.937.247-1.523.247h-.585v-6.57h.618c.589 0 1.107.075 1.538.224.398.139.73.336.992.591.257.247.447.55.584.926.146.403.221.884.221 1.428 0 .552-.077 1.052-.229 1.485z"/></g><path class="st2" d="M11.415 3.489C10.357 2.496 8.771 2 6.658 2H3v12h3.567c.975 0 1.858-.148 2.65-.439a5.848 5.848 0 0 0 2.031-1.242 5.42 5.42 0 0 0 1.296-1.941c.306-.761.456-1.604.456-2.529 0-1.912-.528-3.366-1.585-4.36zm-.781 6.21a3.762 3.762 0 0 1-.834 1.384 3.68 3.68 0 0 1-1.366.889c-.545.21-1.173.314-1.883.314H4.966v-8.57h1.618c.704 0 1.327.094 1.866.279.539.188.992.459 1.357.814.367.354.644.789.83 1.305.188.516.281 1.105.281 1.77a5.456 5.456 0 0 1-.284 1.815z" id="icon_x5F_bg"/></svg>