<?xml version="1.0" encoding="iso-8859-1"?>
<!-- Generator: Adobe Illustrator 21.0.0, SVG Export Plug-In . SVG Version: 6.00 Build 0)  -->
<svg version="1.1" xmlns="http://www.w3.org/2000/svg" xmlns:xlink="http://www.w3.org/1999/xlink" x="0px" y="0px"
	 viewBox="0 0 16 16" style="enable-background:new 0 0 16 16;" xml:space="preserve">
<style type="text/css">
	.icon_x002D_canvas_x002D_transparent{opacity:0;fill:#F6F6F6;}
	.icon_x002D_vs_x002D_out{fill:#F6F6F6;}
	.icon_x002D_vs_x002D_bg{fill:#424242;}
	.icon_x002D_vs_x002D_fg{fill:#F0EFF1;}
	.icon_x002D_vs_x002D_blue{fill:#1BA1E2;}
</style>
<g id="canvas">
	<path class="icon_x002D_canvas_x002D_transparent" d="M16,16H0V0h16V16z"/>
</g>
<g id="outline">
	<path class="icon_x002D_vs_x002D_out" d="M16,15H6.324c-0.625,0.612-1.633,1-2.824,1C1.505,16,0,14.926,0,13.5v-3
		c0-0.712,0.375-1.336,1-1.783v-1V0h15V15z"/>
</g>
<g id="iconBg">
	<path class="icon_x002D_vs_x002D_bg" d="M15,1v13H6.934C6.976,13.839,7,13.673,7,13.5V13h7V2H3v6.034
		C2.644,8.067,2.309,8.132,2,8.232V1H15z M13,9v3h-3V9h1V8H6v0.717C5.716,8.514,5.375,8.354,5,8.232V7h3V6H7V3h3v3H9v1h3v2H13z M8,5
		h1V4H8V5z M12,10h-1v1h1V10z"/>
</g>
<g id="iconFg">
	<path class="icon_x002D_vs_x002D_fg" d="M11,10h1v1h-1V10z M9,4H8v1h1V4z M3,2v6.034C3.165,8.018,3.328,8,3.5,8
		C4.045,8,4.549,8.086,5,8.232V7h3V6H7V3h3v3H9v1h3v2h1v3h-3V9h1V8H6v0.717C6.625,9.164,7,9.788,7,10.5V13h7V2H3z M3.5,9.575
		c-1.084,0-1.925,0.497-1.925,0.925s0.841,0.925,1.925,0.925s1.925-0.497,1.925-0.925S4.584,9.575,3.5,9.575z"/>
</g>
<g id="colorImportance">
	<path class="icon_x002D_vs_x002D_blue" d="M3.5,9C2.119,9,1,9.672,1,10.5v3C1,14.328,2.119,15,3.5,15S6,14.328,6,13.5v-3
		C6,9.672,4.881,9,3.5,9z M3.5,11.425c-1.084,0-1.925-0.497-1.925-0.925S2.416,9.575,3.5,9.575s1.925,0.497,1.925,0.925
		S4.584,11.425,3.5,11.425z"/>
</g>
</svg>
