<svg xmlns="http://www.w3.org/2000/svg" viewBox="0 0 16 16"><style>.st0{fill:#f6f6f6}.st1{fill:#424242}.st2{fill:#f0eff1}</style><circle class="st0" cx="8" cy="8" r="8" id="outline"/><path class="st1" d="M7.999 1a7 7 0 1 0 0 14 7 7 0 0 0 0-14zm0 13c-.342 0-.674-.035-1-.09A5.996 5.996 0 0 0 12 8a5.997 5.997 0 0 0-5.001-5.91c.326-.055.658-.09 1-.09a6 6 0 0 1 0 12z" id="icon_x5F_bg"/><path class="st2" d="M7.999 2c-.342 0-.674.035-1 .09A5.997 5.997 0 0 1 12 8a5.996 5.996 0 0 1-5.001 5.91c.326.055.658.09 1 .09a6 6 0 0 0 0-12z" id="icon_x5F_fg"/></svg>