<svg xmlns="http://www.w3.org/2000/svg" viewBox="0 0 16 16"><style>.st0{opacity:0}.st0,.st1{fill:#f6f6f6}.st2{fill:#424242}</style><g id="outline"><path class="st0" d="M0 0h16v16H0z"/><path class="st1" d="M16 8.989V7.79l-1.201-3.667-1.831 1.08.475-2.198H8.591l.473 2.201-1.835-1.083-.796 2.431L.005.771v14.478l6.863-6.18.896.085-1.495 1.287 3.711 3.266 1.033-2.303 1.029 2.299 3.734-3.261-1.503-1.289z"/></g><g id="icon_x5F_bg"><path class="st2" d="M1.005 3.016l5.547 4.992-5.547 4.996V3.016zM15.041 8.076l-3.207.304 2.414 2.069-1.846 1.611-1.389-3.103-1.391 3.103-1.831-1.611 2.403-2.069-3.208-.304.806-2.459 2.73 1.611-.693-3.223h2.375l-.697 3.222 2.729-1.611.805 2.46z"/></g></svg>