<?xml version="1.0" encoding="iso-8859-1"?>
<!-- Generator: Adobe Illustrator 21.0.0, SVG Export Plug-In . SVG Version: 6.00 Build 0)  -->
<svg version="1.1" xmlns="http://www.w3.org/2000/svg" xmlns:xlink="http://www.w3.org/1999/xlink" x="0px" y="0px"
	 viewBox="0 0 16 16" style="enable-background:new 0 0 16 16;" xml:space="preserve">
<style type="text/css">
	.icon_x002D_canvas_x002D_transparent{opacity:0;fill:#F6F6F6;}
	.icon_x002D_vs_x002D_out{fill:#F6F6F6;}
	.icon_x002D_vs_x002D_fg{fill:#F0EFF1;}
	.icon_x002D_vs_x002D_blue{fill:#1BA1E2;}
	.icon_x002D_vs_x002D_red{fill:#E51400;}
</style>
<g id="canvas">
	<path class="icon_x002D_canvas_x002D_transparent" d="M16,16H0V0h16V16z"/>
</g>
<g id="outline">
	<path class="icon_x002D_vs_x002D_out" d="M15,12c0,0.176-0.024,0.348-0.059,0.517L16,13.59v0.824L14.414,16h-0.828l-0.956-0.956
		c-0.564,0.278-1.212,0.505-1.927,0.667L10.414,16H9.586L9.5,15.914C9.02,15.97,8.519,16,8,16c-3.99,0-7-1.72-7-4V4
		c0-2.28,3.01-4,7-4c3.99,0,7,1.72,7,4v4.586l1,1v0.832l-1,0.986V12z"/>
</g>
<g id="iconFg">
	<path class="icon_x002D_vs_x002D_fg" d="M8,2C4.948,2,3,3.185,3,4s1.948,2,5,2c3.052,0,5-1.185,5-2S11.052,2,8,2z"/>
</g>
<g id="colorAction">
	<path class="icon_x002D_vs_x002D_red" d="M13,11.973L15,14l-1,1l-2-2l-2,2l-1-1l2-2.027L9,10l1-1l2,2l2-2l1,1L13,11.973z"/>
</g>
<g id="colorImportance">
	<path class="icon_x002D_vs_x002D_blue" d="M8,1C4.687,1,2,2.343,2,4v8c0,1.657,2.687,3,6,3c0.193,0,0.383-0.006,0.571-0.015
		l-0.98-0.981l1.995-2.023l-2.005-1.977L10,7.586l2,2l2-2V4C14,2.343,11.314,1,8,1z M8,6C4.948,6,3,4.815,3,4s1.948-2,5-2
		c3.052,0,5,1.185,5,2S11.052,6,8,6z"/>
</g>
</svg>
