<?xml version="1.0" encoding="iso-8859-1"?>
<!-- Generator: Adobe Illustrator 21.0.0, SVG Export Plug-In . SVG Version: 6.00 Build 0)  -->
<svg version="1.1" xmlns="http://www.w3.org/2000/svg" xmlns:xlink="http://www.w3.org/1999/xlink" x="0px" y="0px"
	 viewBox="0 0 16 16" style="enable-background:new 0 0 16 16;" xml:space="preserve">
<style type="text/css">
	.icon_x002D_canvas_x002D_transparent{opacity:0;fill:#F6F6F6;}
	.icon_x002D_vs_x002D_out{fill:#F6F6F6;}
	.icon_x002D_vs_x002D_bg{fill:#424242;}
	.icon_x002D_vs_x002D_fg{fill:#F0EFF1;}
	.icon_x002D_vs_x002D_blue{fill:#1BA1E2;}
</style>
<g id="canvas">
	<path class="icon_x002D_canvas_x002D_transparent" d="M16,16H0V0h16V16z"/>
</g>
<g id="outline">
	<path class="icon_x002D_vs_x002D_out" d="M16,11h-6v2c0,1.711-2.149,3-5,3s-5-1.289-5-3V7c0-0.787,0.47-1.476,1.238-2H0V0h8h2h6V11
		z"/>
</g>
<g id="iconBg">
	<path class="icon_x002D_vs_x002D_bg" d="M10,1h1v1h-1V1z M10,6h1V5h-1V6z M10,8h1V7h-1V8z M4,1H1v3h3V1z M10,4h1V3h-1V4z M10,10h1
		V9h-1V10z M6,4h3V1H6V4z M12,6h1V5h-1V6z M14,4h1V3h-1V4z M12,10h1V9h-1V10z M14,8h1V7h-1V8z M14,1v1h1V1H14z M14,6h1V5h-1V6z
		 M12,4h1V3h-1V4z M12,8h1V7h-1V8z M12,2h1V1h-1V2z M14,10h1V9h-1V10z"/>
</g>
<g id="iconFg">
	<path class="icon_x002D_vs_x002D_fg" d="M8.325,7c0,0.527-1.326,1.325-3.325,1.325S1.675,7.527,1.675,7S3.001,5.675,5,5.675
		S8.325,6.473,8.325,7z"/>
</g>
<g id="colorImportance">
	<path class="icon_x002D_vs_x002D_blue" d="M8,5.689C7.267,5.271,6.201,5,5,5S2.733,5.271,2,5.689C1.385,6.041,1,6.496,1,7v3v3
		c0,1.104,1.791,2,4,2s4-0.896,4-2v-3V7C9,6.496,8.615,6.041,8,5.689z M5,8.325C3.001,8.325,1.675,7.527,1.675,7
		S3.001,5.675,5,5.675S8.325,6.473,8.325,7S6.999,8.325,5,8.325z"/>
</g>
</svg>
