<svg xmlns="http://www.w3.org/2000/svg" viewBox="0 0 16 16"><style>.icon-canvas-transparent{opacity:0;fill:#f6f6f6}.icon-vs-out{fill:#f6f6f6}.icon-vs-fg{fill:#f0eff1}.icon-vs-blue_x0020_{fill:#1ba1e2}</style><path class="icon-canvas-transparent" d="M0 0h16v16H0z" id="canvas"/><path class="icon-vs-out" d="M11 0C8.149 0 6 1.29 6 3v1.057A8.982 8.982 0 0 0 5 4C2.149 4 0 5.29 0 7v6c0 1.71 2.149 3 5 3s5-1.29 5-3v-1.057c.322.036.655.057 1 .057 2.851 0 5-1.29 5-3V3c0-1.71-2.149-3-5-3z" id="outline"/><path class="icon-vs-blue_x0020_" d="M11 1c-2.209 0-4 .896-4 2v1.233c1.798.446 3 1.488 3 2.767v3.929c.321.042.653.071 1 .071 2.209 0 4-.896 4-2V3c0-1.104-1.791-2-4-2zm0 3.325c-1.999 0-3.325-.798-3.325-1.325S9.001 1.675 11 1.675s3.325.798 3.325 1.325S12.999 4.325 11 4.325zM5 5c-2.209 0-4 .896-4 2v6c0 1.104 1.791 2 4 2s4-.896 4-2V7c0-1.104-1.791-2-4-2zm0 3.325c-1.999 0-3.325-.798-3.325-1.325S3.001 5.675 5 5.675 8.325 6.473 8.325 7 6.999 8.325 5 8.325z" id="iconBg"/><g id="iconFg"><path class="icon-vs-fg" d="M14.325 3c0 .527-1.326 1.325-3.325 1.325S7.675 3.527 7.675 3 9.001 1.675 11 1.675s3.325.798 3.325 1.325zM5 5.675c-1.999 0-3.325.798-3.325 1.325S3.001 8.325 5 8.325 8.325 7.527 8.325 7 6.999 5.675 5 5.675z"/></g></svg>