<svg xmlns="http://www.w3.org/2000/svg" viewBox="0 0 16 16"><style>.st0{opacity:0}.st0,.st1{fill:#f6f6f6}.st2{fill:#424242}.st3{fill:#f0eff1}</style><g id="outline"><path class="st0" d="M0 0h16v16H0z"/><path class="st1" d="M16 1v4h-1v7h1v4h-4v-1H5v1H1v-1H0V3h3V0h12v1h1z"/></g><path class="st2" d="M15 4V2h-1V1H4v3H1v10h1v1h2v-1h9v1h2v-2h-1V4h1zm-7 9H4.001V9H8v4zm0-5H4.001V4H8v4zm5 5H9V9h4v4zm0-5H9V4h4v4z" id="icon_x5F_bg"/><path class="st3" d="M8 9v4H4.001L4 9h4zm1 4h4V9H9v4zM8 4H4.001L4 8h4V4zm1 0v4h4V4H9z" id="icon_x5F_fg"/></svg>