<?xml version="1.0" encoding="iso-8859-1"?>
<!-- Generator: Adobe Illustrator 21.0.0, SVG Export Plug-In . SVG Version: 6.00 Build 0)  -->
<svg version="1.1" xmlns="http://www.w3.org/2000/svg" xmlns:xlink="http://www.w3.org/1999/xlink" x="0px" y="0px"
	 viewBox="0 0 16 16" style="enable-background:new 0 0 16 16;" xml:space="preserve">
<style type="text/css">
	.icon_x002D_canvas_x002D_transparent{opacity:0;fill:#F6F6F6;}
	.icon_x002D_vs_x002D_out{fill:#F6F6F6;}
	.icon_x002D_vs_x002D_bg{fill:#424242;}
	.icon_x002D_vs_x002D_fg{fill:#F0EFF1;}
	.icon_x002D_vs_x002D_blue{fill:#1BA1E2;}
</style>
<g id="canvas">
	<path class="icon_x002D_canvas_x002D_transparent" d="M16,16H0V0h16V16z"/>
</g>
<g id="outline">
	<path class="icon_x002D_vs_x002D_out" d="M16,3v6c0,1.711-2.149,3-5,3c-0.215,0-0.416-0.021-0.622-0.035L12.414,14l-2,2H9.586
		l-3.351-3.35C5.688,12.881,5.1,13,4.5,13C2.019,13,0,10.981,0,8.5C0,6.019,2.019,4,4.5,4C5.028,4,5.528,4.108,6,4.276V3
		c0-1.711,2.149-3,5-3C13.851,0,16,1.289,16,3z"/>
</g>
<g id="iconBg">
	<path class="icon_x002D_vs_x002D_bg" d="M8,8.5C8,6.567,6.433,5,4.5,5S1,6.567,1,8.5C1,10.433,2.567,12,4.5,12
		c0.711,0,1.369-0.215,1.922-0.578L10,15l1-1l-3.578-3.578C7.785,9.869,8,9.211,8,8.5z M4.5,11C3.119,11,2,9.881,2,8.5
		S3.119,6,4.5,6S7,7.119,7,8.5S5.881,11,4.5,11z"/>
</g>
<g id="iconFg">
	<path class="icon_x002D_vs_x002D_fg" d="M7,8.5C7,9.881,5.881,11,4.5,11S2,9.881,2,8.5S3.119,6,4.5,6S7,7.119,7,8.5z M11,1.675
		C9.001,1.675,7.675,2.473,7.675,3S9.001,4.325,11,4.325c1.999,0,3.325-0.798,3.325-1.325S12.999,1.675,11,1.675z"/>
</g>
<g id="colorImportance">
	<path class="icon_x002D_vs_x002D_blue" d="M11,1C8.791,1,7,1.896,7,3v1.762C8.205,5.57,9,6.943,9,8.5
		c0,0.6-0.119,1.188-0.351,1.736l0.537,0.537C9.733,10.913,10.344,11,11,11c2.209,0,4-0.896,4-2V3C15,1.896,13.209,1,11,1z
		 M11,4.325C9.001,4.325,7.675,3.527,7.675,3S9.001,1.675,11,1.675c1.999,0,3.325,0.798,3.325,1.325S12.999,4.325,11,4.325z"/>
</g>
</svg>
