<?xml version="1.0" encoding="iso-8859-1"?>
<!-- Generator: Adobe Illustrator 21.0.0, SVG Export Plug-In . SVG Version: 6.00 Build 0)  -->
<svg version="1.1" xmlns="http://www.w3.org/2000/svg" xmlns:xlink="http://www.w3.org/1999/xlink" x="0px" y="0px"
	 viewBox="0 0 16 16" style="enable-background:new 0 0 16 16;" xml:space="preserve">
<style type="text/css">
	.icon_x002D_canvas_x002D_transparent{opacity:0;fill:#F6F6F6;}
	.icon_x002D_vs_x002D_out{fill:#F6F6F6;}
	.icon_x002D_vs_x002D_fg{fill:#F0EFF1;}
	.icon_x002D_vs_x002D_blue{fill:#1BA1E2;}
	.icon_x002D_vs_x002D_red{fill:#E51400;}
	.st0{fill:#424242;}
</style>
<g id="canvas">
	<path class="icon_x002D_canvas_x002D_transparent" d="M16,16H0V0h16V16z"/>
</g>
<g id="outline">
	<path class="icon_x002D_vs_x002D_out" d="M16,3v5v1v0.362l-0.07,0.085c-0.16,0.691-0.671,1.293-1.448,1.737L13.802,12L16,14.639V16
		h-1.727l-2.038-1.821L10.414,16H9.586l-0.012-0.012c-0.408-0.027-0.795-0.186-1.072-0.457c-0.299-0.289-0.473-0.691-0.494-1.109
		L6.235,12.65C5.688,12.881,5.1,13,4.5,13C2.019,13,0,10.981,0,8.5C0,6.019,2.019,4,4.5,4C5.028,4,5.528,4.108,6,4.276V3
		c0-1.711,2.149-3,5-3C13.851,0,16,1.289,16,3z"/>
</g>
<g id="iconBg">
	<path class="st0" d="M7.422,10.422C7.785,9.869,8,9.211,8,8.5C8,6.567,6.433,5,4.5,5S1,6.567,1,8.5C1,10.433,2.567,12,4.5,12
		c0.711,0,1.369-0.215,1.922-0.578l1.925,1.925c0.048-0.063,0.094-0.125,0.151-0.182l0.88-0.787L7.422,10.422z M4.5,11
		C3.119,11,2,9.881,2,8.5S3.119,6,4.5,6S7,7.119,7,8.5S5.881,11,4.5,11z"/>
</g>
<g id="iconFg">
	<path class="icon_x002D_vs_x002D_fg" d="M7,8.5C7,9.881,5.881,11,4.5,11S2,9.881,2,8.5S3.119,6,4.5,6S7,7.119,7,8.5z M11,1.675
		C9.001,1.675,7.675,2.473,7.675,3S9.001,4.325,11,4.325c1.999,0,3.325-0.798,3.325-1.325S12.999,1.675,11,1.675z"/>
</g>
<g id="colorAction">
	<path class="icon_x002D_vs_x002D_red" d="M15,9l-2.5,3l2.5,3h-0.344l-2.668-2.385l-1.834,2.2c-0.238,0.264-0.721,0.228-0.955,0
		c-0.241-0.234-0.289-0.652,0-0.938L11.3,12l-2.101-1.878c-0.289-0.285-0.241-0.703,0-0.938c0.234-0.229,0.717-0.263,0.955,0
		l1.834,2.2L14.656,9H15z"/>
</g>
<g id="colorImportance">
	<path class="icon_x002D_vs_x002D_blue" d="M8.966,8.162C9.19,8.06,9.438,8,9.694,8c0.468,0,0.906,0.187,1.201,0.513l1.198,1.436
		L14.274,8H15V3c0-1.104-1.791-2-4-2C8.791,1,7,1.896,7,3v1.778C8.103,5.529,8.858,6.753,8.966,8.162z M11,1.675
		c1.999,0,3.325,0.798,3.325,1.325S12.999,4.325,11,4.325C9.001,4.325,7.675,3.527,7.675,3S9.001,1.675,11,1.675z"/>
</g>
</svg>
