<?xml version="1.0" encoding="iso-8859-1"?>
<!-- Generator: Adobe Illustrator 21.0.0, SVG Export Plug-In . SVG Version: 6.00 Build 0)  -->
<svg version="1.1" xmlns="http://www.w3.org/2000/svg" xmlns:xlink="http://www.w3.org/1999/xlink" x="0px" y="0px"
	 viewBox="0 0 16 16" style="enable-background:new 0 0 16 16;" xml:space="preserve">
<style type="text/css">
	.icon_x002D_canvas_x002D_transparent{opacity:0;fill:#F6F6F6;}
	.icon_x002D_vs_x002D_out{fill:#F6F6F6;}
	.icon_x002D_vs_x002D_bg{fill:#424242;}
	.icon_x002D_vs_x002D_fg{fill:#F0EFF1;}
	.icon_x002D_vs_x002D_blue{fill:#1BA1E2;}
</style>
<g id="canvas">
	<path class="icon_x002D_canvas_x002D_transparent" d="M16,16H0V0h16V16z"/>
</g>
<g id="outline">
	<path class="icon_x002D_vs_x002D_out" d="M16,3v6c0,1.71-2.149,3-5,3c-0.271,0-0.529-0.022-0.786-0.045
		c0.678,0.829,1.123,1.844,1.243,2.935L11.578,16H0.186l0.122-1.109c0.163-1.48,0.917-2.827,2.052-3.749
		c-0.588-0.765-0.918-1.709-0.918-2.7C1.441,5.992,3.434,4,5.883,4C5.923,4,5.96,4.011,6,4.012V3c0-1.71,2.149-3,5-3S16,1.29,16,3z"
		/>
</g>
<g id="iconBg">
	<path class="icon_x002D_vs_x002D_bg" d="M7.786,11.304c0.925-0.617,1.537-1.669,1.537-2.863C9.323,6.544,7.78,5,5.883,5
		S2.441,6.544,2.441,8.441c0,1.194,0.612,2.245,1.538,2.863C2.528,11.966,1.482,13.352,1.302,15h1.013
		c0.246-1.757,1.744-3.118,3.568-3.118c1.823,0,3.32,1.361,3.567,3.118h1.013C10.282,13.352,9.237,11.966,7.786,11.304z
		 M5.883,10.882c-1.347,0-2.441-1.095-2.441-2.441C3.441,7.095,4.536,6,5.883,6c1.346,0,2.44,1.095,2.44,2.441
		C8.323,9.787,7.229,10.882,5.883,10.882z"/>
</g>
<g id="iconFg">
	<path class="icon_x002D_vs_x002D_fg" d="M14.325,3c0,0.527-1.326,1.325-3.325,1.325C9.001,4.325,7.675,3.527,7.675,3
		S9.001,1.675,11,1.675C12.999,1.675,14.325,2.473,14.325,3z M8.323,8.441c0,1.346-1.095,2.441-2.44,2.441
		c-1.347,0-2.441-1.095-2.441-2.441C3.441,7.095,4.536,6,5.883,6C7.229,6,8.323,7.095,8.323,8.441z M5.883,11.882
		c-1.824,0-3.321,1.361-3.568,3.118h7.134C9.203,13.243,7.706,11.882,5.883,11.882z"/>
</g>
<g id="colorImportance">
	<path class="icon_x002D_vs_x002D_blue" d="M11,1C8.791,1,7,1.896,7,3v1.16c1.906,0.499,3.323,2.221,3.323,4.281
		c0,0.878-0.271,1.711-0.739,2.423C10.026,10.949,10.5,11,11,11c2.209,0,4-0.896,4-2V3C15,1.896,13.209,1,11,1z M11,4.325
		C9.001,4.325,7.675,3.527,7.675,3S9.001,1.675,11,1.675S14.325,2.473,14.325,3S12.999,4.325,11,4.325z"/>
</g>
</svg>
