<svg xmlns="http://www.w3.org/2000/svg" width="16" height="16"><style type="text/css">.icon-canvas-transparent{opacity:0;fill:#F6F6F6;} .icon-vs-out{fill:#F6F6F6;} .icon-vs-bg{fill:#424242;}</style><path class="icon-canvas-transparent" d="M16 16h-16v-16h16v16z" id="canvas"/><path class="icon-vs-out" d="M16 5v11h-16v-11h3v-1h7v3h3v-1h-2v-4h4v3h1z" id="outline"/><path class="icon-vs-bg" d="M15 6v9h-14v-9h1v8h12v-8h1zm-9 5h-2v2h2v-2zm3 0h-2v2h2v-2zm-3-3h-2v2h2v-2zm3 0h-2v2h2v-2zm3 0h-2v2h2v-2zm0 3h-2v2h2v-2zm-3-6h-2v2h2v-2zm-3 0h-2v2h2v-2zm8-2h-2v2h2v-2z" id="iconBg"/></svg>