<svg xmlns="http://www.w3.org/2000/svg" viewBox="0 0 16 16"><style>.st0{opacity:0}.st0,.st1{fill:#f6f6f6}.st2{fill:#424242}.st3{fill:#f0eff1}</style><g id="outline"><path class="st0" d="M0 0h16v16H0z"/><path class="st1" d="M15 0v16H5v-2.878l-2.291 2.292-2.123-2.121 4.096-4.096v-.291a5.396 5.396 0 0 0-1.7-.697l-.799-.164V6.31l.771-.182A5.307 5.307 0 0 1 4.167 6c.279 0 .558.017.833.049V0h10z"/></g><g id="icon_x5F_bg"><path class="st2" d="M6 1v5.242c.429.111.84.252 1.204.434l.785-.415.739.739H13v3H9.766c.085.332.149.669.187 1H13v3H7v-2.682h-.197L6 12.122V15h8V1H6zm7 5H7V3h6v3z"/><path class="st2" d="M8.772 12.818c-.168-.815-.552-1.678-1.141-2.5H6.389L2.708 14 2 13.293l3.681-3.682V8.369c-.822-.588-1.685-.973-2.5-1.14v-.127c1.069-.252 2.888-.042 4 .717l.622-.329.708.707-.329.621c.76 1.112.968 2.932.717 4h-.127z"/></g><path class="st3" d="M9.952 11H13v3H7v-2.682h.095c.344.563.582 1.143.697 1.702l.165.798H9.69l.182-.771c.133-.562.167-1.289.08-2.047zm-.211-2.988l-.416.784c.19.378.332.787.441 1.204H13V7H8.728l1.013 1.012zM7 3v3h6V3H7z" id="icon_x5F_fg"/></svg>