<?xml version="1.0" encoding="iso-8859-1"?>
<!-- Generator: Adobe Illustrator 21.0.0, SVG Export Plug-In . SVG Version: 6.00 Build 0)  -->
<svg version="1.1" xmlns="http://www.w3.org/2000/svg" xmlns:xlink="http://www.w3.org/1999/xlink" x="0px" y="0px"
	 viewBox="0 0 16 16" style="enable-background:new 0 0 16 16;" xml:space="preserve">
<style type="text/css">
	.icon_x002D_canvas_x002D_transparent{opacity:0;fill:#F6F6F6;}
	.icon_x002D_vs_x002D_out{fill:#F6F6F6;}
	.icon_x002D_vs_x002D_bg{fill:#424242;}
	.icon_x002D_vs_x002D_fg{fill:#F0EFF1;}
	.icon_x002D_vs_x002D_blue{fill:#1BA1E2;}
</style>
<g id="canvas">
	<path class="icon_x002D_canvas_x002D_transparent" d="M16,16H0V0h16V16z"/>
</g>
<g id="outline">
	<path class="icon_x002D_vs_x002D_out" d="M16,3v6c0,1.711-2.149,3-5,3v4H2v-3H0V5h6V3c0-1.711,2.149-3,5-3C13.851,0,16,1.289,16,3z
		"/>
</g>
<g id="iconBg">
	<path class="icon_x002D_vs_x002D_bg" d="M9,9h1v6H3v-2h1v1h1v-1h1v1h1v-1h1v1h1v-1V9z M8,12H1V6h7V12z M3,10H2v1h1V10z M3,8H2v1h1
		V8z M5,10H4v1h1V10z M5,8H4v1h1V8z M7,10H6v1h1V10z M7,8H6v1h1V8z"/>
</g>
<g id="iconFg">
	<path class="icon_x002D_vs_x002D_fg" d="M8,13h1v1H8V13z M4,11h1v-1H4V11z M2,11h1v-1H2V11z M2,9h1V8H2V9z M4,9h1V8H4V9z M6,9h1V8
		H6V9z M6,11h1v-1H6V11z M4,14h1v-1H4V14z M6,14h1v-1H6V14z M11,1.675C9,1.675,7.674,2.473,7.674,3S9,4.325,11,4.325
		c1.998,0,3.324-0.798,3.324-1.325S12.998,1.675,11,1.675z"/>
</g>
<g id="colorImportance">
	<path class="icon_x002D_vs_x002D_blue" d="M11,1C8.792,1,7.003,1.894,7,2.998V5h2h0v3h2v3c2.209,0,4-0.896,4-2V3
		C15,1.896,13.209,1,11,1z M11,4.325C9,4.325,7.674,3.527,7.674,3S9,1.675,11,1.675c1.998,0,3.324,0.798,3.324,1.325
		S12.998,4.325,11,4.325z"/>
</g>
</svg>
