<svg xmlns="http://www.w3.org/2000/svg" viewBox="0 0 16 16"><style>.icon-canvas-transparent{opacity:0;fill:#f6f6f6}.icon-vs-out{fill:#f6f6f6}.icon-vs-bg{fill:#424242}.icon-vs-fg{fill:#f0eff1}.icon-vs-blue{fill:#1ba1e2}</style><path class="icon-canvas-transparent" d="M16 16H0V0h16v16z" id="canvas"/><path class="icon-vs-out" d="M16 12h-6v1c0 1.711-2.149 3-5 3s-5-1.289-5-3V7c0-1.503 1.662-2.68 4-2.943V0h12v12z" id="outline"/><path class="icon-vs-fg" d="M6 3v1.057c.35.04.685.099 1 .177V4h3v1H8.762c.421.287.743.623.952 1H10v2h3v1h-3v1h4V3H6zm6 4h-1V6h1v1zM8.325 7c0 .527-1.326 1.325-3.325 1.325S1.675 7.527 1.675 7 3.001 5.675 5 5.675 8.325 6.473 8.325 7z" id="iconFg"/><g id="iconBg"><path class="icon-vs-blue" d="M8 5.689C7.267 5.271 6.201 5 5 5s-2.267.271-3 .689C1.385 6.041 1 6.496 1 7v6c0 1.104 1.791 2 4 2s4-.896 4-2V7c0-.504-.385-.959-1-1.311zM5 8.325c-1.999 0-3.325-.798-3.325-1.325S3.001 5.675 5 5.675 8.325 6.473 8.325 7 6.999 8.325 5 8.325z"/><path class="icon-vs-bg" d="M10 8h3v1h-3V8zm1-2v1h1V6h-1zM7 4.233A5.445 5.445 0 0 1 8.762 5H10V4H7v.233zM5 1v3c.345 0 .679.021 1 .057V3h8v7h-4v1h5V1H5zm5 5h-.286c.174.312.286.644.286 1V6z"/></g></svg>