<svg xmlns="http://www.w3.org/2000/svg" viewBox="0 0 16 16"><style>.icon-canvas-transparent{opacity:0;fill:#f6f6f6}.icon-vs-out{fill:#f6f6f6}.icon-vs-fg{fill:#f0eff1}.icon-vs-blue_x0020_{fill:#1ba1e2}.icon-white{fill:#fff}.icon-vs-red{fill:#e51400}</style><path class="icon-canvas-transparent" d="M0 0h16v16H0z" id="canvas"/><path class="icon-vs-out" d="M16 9c0 .352-.111.679-.28.988.171.475.28.979.28 1.512 0 2.481-2.019 4.5-4.5 4.5a4.454 4.454 0 0 1-2.768-.979C7.831 15.625 6.522 16 5 16c-2.851 0-5-1.29-5-3V7c0-1.71 2.149-3 5-3 .345 0 .678.021 1 .057V3c0-1.71 2.149-3 5-3s5 1.29 5 3v6z" id="outline"/><path class="icon-vs-blue_x0020_" d="M5 5c-2.209 0-4 .896-4 2v6c0 1.104 1.791 2 4 2 1.207 0 2.276-.273 3.009-.695A4.458 4.458 0 0 1 7 11.5c0-1.557.795-2.93 2-3.738V7c0-1.104-1.791-2-4-2zm0 3.325c-1.999 0-3.325-.798-3.325-1.325S3.001 5.675 5 5.675 8.325 6.473 8.325 7 6.999 8.325 5 8.325zM11 1c-2.209 0-4 .896-4 2v1.233c1.798.446 3 1.488 3 2.767v.276A4.445 4.445 0 0 1 11.5 7c1.421 0 2.675.675 3.5 1.706V3c0-1.104-1.791-2-4-2zm0 3.325c-1.999 0-3.325-.798-3.325-1.325S9.001 1.675 11 1.675s3.325.798 3.325 1.325S12.999 4.325 11 4.325z" id="iconBg"/><path class="icon-vs-fg" d="M14.325 3c0 .527-1.326 1.325-3.325 1.325S7.675 3.527 7.675 3 9.001 1.675 11 1.675s3.325.798 3.325 1.325zM5 5.675c-1.999 0-3.325.798-3.325 1.325S3.001 8.325 5 8.325 8.325 7.527 8.325 7 6.999 5.675 5 5.675z" id="iconFg"/><path class="icon-vs-red" d="M11.5 8a3.5 3.5 0 1 0 0 7 3.5 3.5 0 0 0 0-7zm1.854 4.646l-.707.707-1.147-1.146-1.146 1.147-.707-.707 1.147-1.146-1.147-1.146.707-.707 1.146 1.147 1.146-1.147.707.707-1.146 1.145 1.147 1.146z" id="notificationBg"/><g id="notificationFg"><path class="icon-white" d="M13.354 12.646l-.707.707-1.147-1.146-1.146 1.147-.707-.707 1.147-1.146-1.147-1.146.707-.707 1.146 1.147 1.146-1.147.707.707-1.146 1.145 1.147 1.146z"/></g></svg>