<svg xmlns="http://www.w3.org/2000/svg" viewBox="0 0 16 16"><style>.icon-canvas-transparent{opacity:0;fill:#f6f6f6}.icon-vs-out{fill:#f6f6f6}.icon-vs-bg{fill:#424242}.icon-vs-fg{fill:#f0eff1}.icon-vs-blue{fill:#1ba1e2}</style><path class="icon-canvas-transparent" d="M16 16H0V0h16v16z" id="canvas"/><path class="icon-vs-out" d="M16 9.395l-2.947 2.936-2.118-2.118.746-.753H10V11c0 .356-.113.688-.286 1a2.453 2.453 0 0 1-.287.408l-.034.039c-.322.364-.76.677-1.297.926-.054.025-.103.054-.159.078-.121.051-.252.094-.381.139a6.523 6.523 0 0 1-.402.128 8.327 8.327 0 0 1-.909.186c-.102.015-.202.032-.307.043A8.884 8.884 0 0 1 5 14c-2.852 0-5-1.289-5-3V5c0-.431.138-.835.387-1.198.011-.016.03-.031.041-.047.121-.168.262-.327.428-.475.015-.013.035-.024.051-.037a3.863 3.863 0 0 1 .597-.422c.016-.009.036-.015.053-.024.215-.121.446-.232.697-.327l.011-.004c.26-.099.536-.184.83-.252.042-.01.088-.014.131-.023A7.803 7.803 0 0 1 5 2c.317 0 .622.02.919.051.073.008.142.021.214.03a7.375 7.375 0 0 1 .894.17c.196.05.383.107.563.171.082.029.164.057.244.089.156.063.301.134.442.207.071.036.152.064.22.103.134.077.24.167.357.252.055.04.117.077.168.119.13.106.239.219.344.334l.071.078c.105.125.196.253.271.386l.007.01v.004c.174.314.286.646.286.996v1.468h1.656l-.749-.751 2.12-2.121L16 6.568v2.827z" id="outline"/><path class="icon-vs-blue" d="M7.979 9.46V6.468H9V5c0-.504-.385-.959-1-1.311C7.267 3.271 6.201 3 5 3s-2.267.271-3 .689C1.385 4.041 1 4.496 1 5v6c0 1.104 1.791 2 4 2s4-.896 4-2V9.46H7.979zM1.675 5c0-.527 1.326-1.325 3.325-1.325S8.325 4.473 8.325 5 6.999 6.325 5 6.325 1.675 5.527 1.675 5z" id="iconBg"/><path class="icon-vs-fg" d="M8.325 5c0 .527-1.326 1.325-3.325 1.325S1.675 5.527 1.675 5 3.001 3.675 5 3.675 8.325 4.473 8.325 5z" id="iconFg"/><path class="icon-vs-bg" d="M14.064 7.468l-1.744-1.75.707-.707L16 7.983l-2.946 2.935-.708-.708 1.736-1.75H8.979v-.992h5.085z" id="colorImportance"/></svg>