<?xml version="1.0" encoding="iso-8859-1"?>
<!-- Generator: Adobe Illustrator 21.0.0, SVG Export Plug-In . SVG Version: 6.00 Build 0)  -->
<svg version="1.1" xmlns="http://www.w3.org/2000/svg" xmlns:xlink="http://www.w3.org/1999/xlink" x="0px" y="0px"
	 viewBox="0 0 16 16" style="enable-background:new 0 0 16 16;" xml:space="preserve">
<style type="text/css">
	.icon_x002D_canvas_x002D_transparent{opacity:0;fill:#F6F6F6;}
	.icon_x002D_vs_x002D_out{fill:#F6F6F6;}
	.icon_x002D_vs_x002D_bg{fill:#424242;}
	.icon_x002D_vs_x002D_fg{fill:#F0EFF1;}
	.icon_x002D_vs_x002D_blue{fill:#1BA1E2;}
</style>
<g id="canvas">
	<path class="icon_x002D_canvas_x002D_transparent" d="M16,16H0V0h16V16z"/>
</g>
<g id="outline">
	<path class="icon_x002D_vs_x002D_out" d="M16,0v13.5c0,1.426-1.505,2.5-3.5,2.5S9,14.926,9,13.5V12H2V0H16z"/>
</g>
<g id="iconBg">
	<path class="icon_x002D_vs_x002D_bg" d="M5,8.207l1.446-1.446L7.601,8.3c0.098,0.132,0.264,0.216,0.42,0.2
		c0.166-0.007,0.316-0.095,0.403-0.234l2.604-3.366L13,7.66v0.374C12.836,8.018,12.673,8,12.5,8c-1.19,0-2.198,0.388-2.824,1H5
		V8.207z M6.899,5.7l1.063,1.417l2.614-3.382c0.089-0.142,0.241-0.229,0.408-0.235c0.188,0.003,0.326,0.074,0.423,0.209L13,5.94V3H5
		v3.793l1.146-1.146c0.103-0.103,0.237-0.154,0.39-0.145C6.681,5.512,6.813,5.584,6.899,5.7z M3,1v10h6v-0.5
		c0-0.172,0.024-0.339,0.066-0.5H4V2h10v6.232c0.375,0.121,0.716,0.282,1,0.485V1H3z"/>
</g>
<g id="iconFg">
	<path class="icon_x002D_vs_x002D_fg" d="M5,8.207l1.446-1.446L7.601,8.3c0.098,0.132,0.264,0.216,0.42,0.2
		c0.166-0.007,0.316-0.095,0.403-0.234l2.604-3.366L13,7.66v0.374c0.356,0.034,0.691,0.099,1,0.199V2H4v8h5.066
		C9.165,9.625,9.38,9.289,9.676,9H5V8.207z M5,3h8v2.94l-1.593-2.23c-0.097-0.135-0.235-0.207-0.423-0.209
		c-0.167,0.005-0.319,0.093-0.408,0.235L7.962,7.117L6.899,5.7C6.813,5.584,6.681,5.512,6.536,5.501
		c-0.152-0.009-0.287,0.042-0.39,0.145L5,6.793V3z M14.425,10.5c0,0.428-0.841,0.925-1.925,0.925s-1.925-0.497-1.925-0.925
		s0.841-0.925,1.925-0.925S14.425,10.072,14.425,10.5z"/>
</g>
<g id="colorImportance">
	<path class="icon_x002D_vs_x002D_blue" d="M12.5,9C11.119,9,10,9.672,10,10.5v3c0,0.828,1.119,1.5,2.5,1.5s2.5-0.672,2.5-1.5v-3
		C15,9.672,13.881,9,12.5,9z M12.5,11.425c-1.084,0-1.925-0.497-1.925-0.925s0.841-0.925,1.925-0.925s1.925,0.497,1.925,0.925
		S13.584,11.425,12.5,11.425z"/>
</g>
</svg>
