<svg xmlns="http://www.w3.org/2000/svg" viewBox="0 0 16 16"><style>.st0{opacity:0}.st0,.st1{fill:#f6f6f6}.st2{fill:#424242}</style><g id="outline"><path class="st0" d="M0 0h16v16H0z"/><path class="st1" d="M16 9V0H7v2H5v3H0v9h8v2h.739l1.598-1.755.778 1.755h.867l2.286-1.04-.866-1.966H16v-.867l-2-1.856V9h2zM5 11H3V8h2v3z"/></g><g id="icon_x5F_bg"><path class="st2" d="M3 6h1v1H3zM1 6h1v1H1zM1 8h1v1H1zM1 10h1v1H1zM7 12h1v1H7zM5 12h1v1H5zM3 12h1v1H3zM1 12h1v1H1zM14 1h1v1h-1zM12 1h1v1h-1zM10 1h1v1h-1zM8 1h1v1H8zM14 3h1v1h-1zM14 5h1v1h-1zM14 7h1v1h-1zM8 4.586v-.494l5 5.033V3H6v7h2z"/><path class="st2" d="M12.955 14.459l-1.086-2.465h2.518L9 6.996v7.231l1.629-1.788L11.766 15z"/></g></svg>