<svg xmlns="http://www.w3.org/2000/svg" viewBox="0 0 16 16"><style>.st0{opacity:0}.st0,.st1{fill:#f6f6f6}.st2{fill:none}.st3{fill:#424242}.st4{fill:#f0eff1}</style><g id="outline"><path class="st0" d="M0 0h16v16H0z"/><path class="st1" d="M15 4V1c-.352-.527-1.295-1-2-1-.707 0-1.648.473-2 1-.352-.527-1.294-1-2-1S7.353.473 7 1v3H6v3H0v9h13v-5h2V7h1V4h-1z"/></g><g id="icon_x5F_bg"><path class="st2" d="M7 9H2v5h5V9zm-1 3l-1 1v-1.5L3.5 13l-.5-.5L4.5 11H3l1-1h2v2z"/><path class="st3" d="M10 2c0-.484-.456-1-1-1-.543 0-1 .516-1 1v2h2V2zM14 2c0-.484-.456-1-1-1-.543 0-1 .516-1 1v2h2V2zM3 11h1.5L3 12.5l.5.5L5 11.5V13l1-1v-2H4z"/><path class="st3" d="M1 15h7V8H1v7zm1-6h5v5H2V9z"/><path class="st3" d="M7 5v1h1v1h1v3h1v5h2v-5h2V6h1V5z"/></g><path class="st4" d="M2 9v5h5V9H2zm4 3l-1 1v-1.5L3.5 13l-.5-.5L4.5 11H3l1-1h2v2z" id="icon_x5F_fg"/></svg>