<?xml version="1.0" encoding="iso-8859-1"?>
<!-- Generator: Adobe Illustrator 21.0.0, SVG Export Plug-In . SVG Version: 6.00 Build 0)  -->
<svg version="1.1" xmlns="http://www.w3.org/2000/svg" xmlns:xlink="http://www.w3.org/1999/xlink" x="0px" y="0px"
	 viewBox="0 0 16 16" style="enable-background:new 0 0 16 16;" xml:space="preserve">
<style type="text/css">
	.icon_x002D_canvas_x002D_transparent{opacity:0;fill:#F6F6F6;}
	.icon_x002D_vs_x002D_out{fill:#F6F6F6;}
	.icon_x002D_vs_x002D_fg{fill:#F0EFF1;}
	.icon_x002D_vs_x002D_blue{fill:#1BA1E2;}
	.icon_x002D_vs_x002D_action_x002D_blue{fill:#00539C;}
</style>
<g id="canvas">
	<path class="icon_x002D_canvas_x002D_transparent" d="M16,16H0V0h16V16z"/>
</g>
<g id="outline">
	<path class="icon_x002D_vs_x002D_out" d="M2.153,12.002c-0.38,0-0.947-0.115-1.491-0.658c-1.118-1.119-0.614-2.436,0-3.048
		l2.595-2.597C3.139,5.296,3.08,4.882,3.08,4.463C3.08,2.002,5.082,0,7.543,0c0.628,0,1.595,0.289,1.831,0.399
		c0.236,0.11,1.618,0.767,2.232,2.232c0.087,0.208,0.4,1.205,0.4,1.832c0,2.461-2.002,4.463-4.463,4.463
		c-0.419,0-0.832-0.059-1.237-0.178L3.71,11.344C3.601,11.453,3.009,12.002,2.153,12.002z M16,13.5v-3C16,9.074,14.495,8,12.5,8
		S9,9.074,9,10.5v3c0,1.426,1.505,2.5,3.5,2.5S16,14.926,16,13.5z"/>
</g>
<g id="iconBg">
	<path class="icon_x002D_vs_x002D_blue" d="M12.5,9C11.119,9,10,9.672,10,10.5v3c0,0.828,1.119,1.5,2.5,1.5s2.5-0.672,2.5-1.5v-3
		C15,9.672,13.881,9,12.5,9z M12.5,11.426c-1.084,0-1.925-0.498-1.925-0.926s0.841-0.924,1.925-0.924s1.925,0.496,1.925,0.924
		S13.584,11.426,12.5,11.426z"/>
</g>
<g id="iconFg">
	<path class="icon_x002D_vs_x002D_fg" d="M14.425,10.5c0,0.428-0.841,0.926-1.925,0.926s-1.925-0.498-1.925-0.926
		s0.841-0.924,1.925-0.924S14.425,10.072,14.425,10.5z"/>
</g>
<g id="colorAction">
	<path class="icon_x002D_vs_x002D_action_x002D_blue" d="M10.992,4.505c0,1.929-1.563,3.492-3.491,3.492
		c-0.513,0-1.062-0.063-1.5-0.261l-2.865,2.879c0,0-0.874,0.873-1.746,0c-0.874-0.873,0-1.746,0-1.746l2.938-2.852
		C4.132,5.578,4.008,5.017,4.008,4.505c0-1.928,1.564-3.492,3.493-3.492c0.511,0,1.062,0.072,1.5,0.27l-2.374,2.35l1.747,1.746
		l2.346-2.361C10.918,3.456,10.992,3.994,10.992,4.505z"/>
</g>
</svg>
