<svg xmlns="http://www.w3.org/2000/svg" viewBox="0 0 16 16"><style>.st0,.st1{fill:#f6f6f6}.st1{opacity:0}.st2{fill:#424242}.st3{fill:#f0eff1}</style><g id="outline"><path class="st0" d="M0 0h16v15H0z"/><path class="st1" d="M0 0h16v16H0z"/></g><path class="st2" d="M1 1v13h14V1H1zm3 12H2v-2h2v2zm0-3H2V8h2v2zm0-3H2V5h2v2zm0-3H2V2h2v2zm7 9H7v-2h4v2zm0-3H8V8h3v2zm0-3H7V5h4v2zm0-3H8V2h3v2zm3 9h-2v-2h2v2zm0-3h-2V8h2v2zm0-3h-2V5h2v2zm0-3h-2V2h2v2z" id="icon_x5F_bg"/><path class="st3" d="M8 2h3v2H8V2zm0 8h3V8H8v2zM7 7h4V5H7v2zM2 4h2V2H2v2zm0 3h2V5H2v2zm0 3h2V8H2v2zm0 3h2v-2H2v2zm5 0h4v-2H7v2zm5 0h2v-2h-2v2zm0-3h2V8h-2v2zm0-3h2V5h-2v2zm0-5v2h2V2h-2z" id="icon_x5F_fg"/></svg>