<?xml version="1.0" encoding="iso-8859-1"?>
<!-- Generator: Adobe Illustrator 21.0.0, SVG Export Plug-In . SVG Version: 6.00 Build 0)  -->
<svg version="1.1" xmlns="http://www.w3.org/2000/svg" xmlns:xlink="http://www.w3.org/1999/xlink" x="0px" y="0px"
	 viewBox="0 0 16 16" style="enable-background:new 0 0 16 16;" xml:space="preserve">
<style type="text/css">
	.icon_x002D_canvas_x002D_transparent{opacity:0;fill:#F6F6F6;}
	.icon_x002D_vs_x002D_out{fill:#F6F6F6;}
	.icon_x002D_vs_x002D_bg{fill:#424242;}
	.icon_x002D_vs_x002D_fg{fill:#F0EFF1;}
	.icon_x002D_vs_x002D_blue{fill:#1BA1E2;}
</style>
<g id="canvas">
	<path class="icon_x002D_canvas_x002D_transparent" d="M16,16H0V0h16V16z"/>
</g>
<g id="outline">
	<path class="icon_x002D_vs_x002D_out" d="M16,0v13h-6c0,1.711-2.149,3-5,3s-5-1.289-5-3V7c0-1.71,2.149-3,5-3
		c0.726,0,1.393,0.095,2,0.249V0H16z"/>
</g>
<g id="iconBg">
	<path class="icon_x002D_vs_x002D_bg" d="M8,1v3.579c1.224,0.537,2,1.4,2,2.421v5h5V1H8z M14,11h-1v-1h1V11z M14,5H9V4h5V5z M14,3H9
		V2h5V3z"/>
</g>
<g id="iconFg">
	<path class="icon_x002D_vs_x002D_fg" d="M14,2v1H9V2H14z M13,11h1v-1h-1V11z M9,5h5V4H9V5z M5,5.675
		C3.001,5.675,1.675,6.473,1.675,7S3.001,8.325,5,8.325S8.325,7.527,8.325,7S6.999,5.675,5,5.675z"/>
</g>
<g id="colorImportance">
	<path class="icon_x002D_vs_x002D_blue" d="M5,5C2.791,5,1,5.896,1,7v6c0,1.104,1.791,2,4,2s4-0.896,4-2V7C9,5.896,7.209,5,5,5z
		 M5,8.325C3.001,8.325,1.675,7.527,1.675,7S3.001,5.675,5,5.675S8.325,6.473,8.325,7S6.999,8.325,5,8.325z"/>
</g>
</svg>
