<?xml version="1.0" encoding="iso-8859-1"?>
<!-- Generator: Adobe Illustrator 21.0.0, SVG Export Plug-In . SVG Version: 6.00 Build 0)  -->
<svg version="1.1" xmlns="http://www.w3.org/2000/svg" xmlns:xlink="http://www.w3.org/1999/xlink" x="0px" y="0px"
	 viewBox="0 0 16 16" style="enable-background:new 0 0 16 16;" xml:space="preserve">
<style type="text/css">
	.icon_x002D_canvas_x002D_transparent{opacity:0;fill:#F6F6F6;}
	.icon_x002D_vs_x002D_out{fill:#F6F6F6;}
	.icon_x002D_vs_x002D_bg{fill:#424242;}
	.icon_x002D_vs_x002D_fg{fill:#F0EFF1;}
	.icon_x002D_vs_x002D_blue{fill:#1BA1E2;}
</style>
<g id="canvas">
	<rect class="icon_x002D_canvas_x002D_transparent" width="16" height="16"/>
</g>
<g id="outline">
	<path class="icon_x002D_vs_x002D_out" d="M12.555,4.152C11.61,1.727,9.256,0,6.5,0C2.915,0,0,2.915,0,6.5
		c0,3.416,2.648,6.218,6,6.475V13c0,1.711,2.149,3,5,3c2.851,0,5-1.289,5-3V7C16,5.621,14.591,4.527,12.555,4.152z"/>
</g>
<g id="iconBg">
	<path class="icon_x002D_vs_x002D_bg" d="M6.5,1C3.462,1,1,3.462,1,6.5C1,9.538,3.462,12,6.5,12S12,9.538,12,6.5
		C12,3.462,9.538,1,6.5,1z M2.5,6.5c0-2.206,1.794-4,4-4c1.276,0,2.401,0.611,3.133,1.544c0.232,0.296,0.431,0.617,0.574,0.971
		C10.392,5.475,10.5,5.974,10.5,6.5c0,0.922-0.326,1.762-0.853,2.439C8.915,9.882,7.783,10.5,6.5,10.5
		c-0.531,0-1.036-0.109-1.5-0.298C3.537,9.607,2.5,8.175,2.5,6.5z"/>
</g>
<g id="iconFg">
	<path class="icon_x002D_vs_x002D_fg" d="M12.799,8.079L12.799,8.079C12.925,7.573,13,7.045,13,6.5c0-0.178-0.013-0.354-0.027-0.528
		l0,0c0.849,0.28,1.352,0.705,1.352,1.028C14.325,7.345,13.751,7.802,12.799,8.079z M10.207,5.015L10,5.022C7.753,5.135,6,5.972,6,7
		c0,0.366,0.23,0.706,0.618,1h0.006c0.099,0.075,0.212,0.145,0.331,0.213c0.632,0.36,1.538,0.612,2.576,0.716
		c0.036,0.004,0.078,0.007,0.116,0.01C10.174,8.262,10.5,7.422,10.5,6.5C10.5,5.974,10.392,5.475,10.207,5.015z M6.5,2.5
		c-2.206,0-4,1.794-4,4c0,1.675,1.037,3.107,2.5,3.702V7c0-1.485,2.034-2.716,4.633-2.956C8.901,3.111,7.776,2.5,6.5,2.5z"/>
</g>
<g id="colorImportance">
	<path class="icon_x002D_vs_x002D_blue" d="M6.5,10.5c-0.531,0-1.036-0.109-1.5-0.298V7c0-1.485,2.034-2.716,4.633-2.956
		c0.232,0.296,0.431,0.617,0.574,0.971L10,5.022C7.753,5.135,6,5.972,6,7c0,0.366,0.23,0.706,0.618,1h0.006
		c0.099,0.075,0.212,0.145,0.331,0.213c0.632,0.36,1.538,0.612,2.576,0.716c0.036,0.004,0.078,0.007,0.116,0.01
		C8.915,9.882,7.783,10.5,6.5,10.5z M14,5.689c-0.315-0.18-0.701-0.325-1.123-0.44c0.046,0.236,0.076,0.478,0.097,0.723
		c0.849,0.28,1.352,0.705,1.352,1.028c0,0.345-0.574,0.802-1.526,1.079C12.132,10.748,9.82,12.76,7,12.975V13c0,1.104,1.791,2,4,2
		s4-0.896,4-2v-3V7C15,6.496,14.615,6.041,14,5.689z"/>
</g>
</svg>
