<svg xmlns="http://www.w3.org/2000/svg" viewBox="0 0 16 16"><style>.icon-canvas-transparent{opacity:0;fill:#f6f6f6}.icon-vs-out{fill:#f6f6f6}.icon-vs-bg{fill:#424242}</style><path class="icon-canvas-transparent" d="M16 16H0V0h16v16z" id="canvas"/><path class="icon-vs-out" d="M16 13.02l-3.163-3.162-2.118 2.118.024.024H6.418l5-5h1.063c.63.953 1.015 1.822 1.201 2.706l.167.794h1.81l.178-.777c.372-1.627.125-4.227-.882-6.09l.562-1.064-2.08-2.08-1.066.561C11.15.387 9.535 0 7.923 0 7.32 0 6.768.057 6.281.168l-.777.178v1.81l.794.167c.884.186 1.753.57 2.706 1.201v1.063L4 9.59V5.203l.111.11 2.117-2.117L3.049 0H1.982L0 1.982v2.362l.938.938L1 5.22v9.818h9.797l-.11.111.85.851h2.539L16 14.087V13.02zM4 12v-1.59L5.59 12H4z" id="outline"/><path class="icon-vs-bg" d="M10 5V2.999c-1.194-.856-2.317-1.406-3.5-1.655v-.201c1.572-.359 4.214-.05 5.834 1.056l.912-.481 1.037 1.037-.481.912c1.105 1.62 1.415 4.262 1.056 5.834h-.201c-.249-1.183-.799-2.306-1.655-3.5H11l-5 5-1-1L10 5zm5.119 8.553l-2.313 2.301-.707-.707 1.101-1.109H2V2.818L.94 3.87l-.707-.707L2.514.881l2.301 2.313-.706.707L3 2.8v10.238h10.182l-1.052-1.06.707-.707 2.282 2.282z" id="iconBg"/></svg>