<svg xmlns="http://www.w3.org/2000/svg" viewBox="0 0 16 16"><style>.st0{opacity:0}.st0,.st1{fill:#f6f6f6}.st2{fill:#424242}.st3{fill:#f0eff1}</style><g id="outline"><path class="st0" d="M0 0h16v16H0z"/><path class="st1" d="M0 14V3.665L3.434.998l9.444.042L16 3.553V14H0z"/></g><g id="icon_x5F_bg"><path class="st2" d="M6 7v3L3.002 8.554zM10 7v3l2.998-1.446z"/><path class="st2" d="M12.523 2.039L3.774 2 1 4.155V13h14V4.032l-2.477-1.993zM2 12V5h2V3.018L7.5 3v9H2zm12 0H8.5V3H12v2h2v7z"/></g><g id="icon_x5F_fg"><path class="st3" d="M4 3.018V5H2v7h5.431V3.011L4 3.018zM6 10L3.002 8.554 6 7v3zM12 5V3l-3.352.007V12H14V5h-2zm-2 5V7l2.998 1.554L10 10z"/></g></svg>