<svg xmlns="http://www.w3.org/2000/svg" viewBox="0 0 16 16"><style>.st0{opacity:0}.st0,.st1{fill:#f6f6f6}.st2{fill:#424242}.st3{fill:#f0eff1}</style><g id="outline"><path class="st0" d="M0 0h16v16H0z"/><path class="st1" d="M15.868 9.999l-5.419-5.418V3.519c.967-.64 1.838-1.028 2.711-1.212l.794-.167V.353l-.767-.184A6.726 6.726 0 0 0 11.618 0c-1.566 0-3.221.414-4.469 1.101L5.998.525l-2.02 2.021.575 1.149c-.211.38-.381.791-.529 1.21L.167 6.856v5.569l5.124 3.227 4.464-3.272V8.716l3.698 3.698 2.415-2.415z"/></g><g id="icon_x5F_bg"><path class="st2" d="M9.449 4.995V2.993c1.208-.864 2.339-1.419 3.505-1.665v-.187c-1.54-.37-4.123-.012-5.758 1.102l-1.001-.501-1 1.001.501 1.001C4.581 5.377 4.213 7.963 4.608 9.508h.188c.223-1.171.786-2.305 1.65-3.512h2.003L13.453 11l1.001-1.001-5.005-5.004z"/><path class="st2" d="M8.235 7.197l-.381-.201H6.97c-.029.044-.05.084-.077.127l1.173.578-2.088 1.253c-.084.25-.154.496-.2.741l-.043.224L8.19 8.425v3.173l-2.576 1.856v-2.947h-.619v3.036l-.024.018v.016l-.01-.008-.008.008v-.016l-3.167-2.064V8.178l1.739.971a7.276 7.276 0 0 1-.06-.72l-1.359-.774 1.436-.729c.03-.237.073-.477.121-.717L1.167 7.471v4.403l4.081 2.57 3.507-2.57V7.717l-.52-.52z"/></g><g id="icon_x5F_fg"><path class="st3" d="M3.542 6.926l-1.436.729 1.359.775c-.016-.474.01-.984.077-1.504zM5.978 8.954l2.087-1.253-1.172-.578c-.418.648-.719 1.249-.915 1.831z"/><path class="st2" d="M3.465 8.343l-1.2-.685 1.269-.644c.007-.06.01-.118.019-.178l-1.605.815 1.524.87c-.002-.06-.006-.118-.007-.178zM6.853 7.187l1.055.52L6.022 8.84c-.027.075-.061.151-.084.225l2.285-1.371-1.29-.636c-.03.044-.052.086-.08.129z"/><path class="st3" d="M3.831 10.508l-.192-.753a5.399 5.399 0 0 1-.114-.606l-1.739-.971v3.319l3.167 2.064v.016l.008-.008.01.008v-.016l.024-.018v-3.036H3.831z"/><path class="st2" d="M4.92 10.508v2.942l-3.059-1.994v-3.15l1.682.939c-.009-.063-.02-.122-.028-.188L1.711 8.05v3.488l3.168 2.064.006.148.084-.083.076.051V13.6l.024-.018v-3.074H4.92z"/><path class="st3" d="M5.623 10.508h-.009v2.947l2.576-1.856V8.425L5.735 9.919z"/><path class="st2" d="M5.716 10.018l2.399-1.459v3.002l-2.426 1.748v-3.15l-.066.349h-.084v3.094l2.727-1.965V8.292L5.754 9.819z"/></g></svg>