<svg xmlns="http://www.w3.org/2000/svg" viewBox="0 0 16 16"><style>.icon-canvas-transparent{opacity:0;fill:#f6f6f6}.icon-vs-out{fill:#f6f6f6}.icon-vs-bg{fill:#424242}.icon-vs-fg{fill:#f0eff1}</style><path class="icon-canvas-transparent" d="M16 0v16H0V0h16z" id="canvas"/><path class="icon-vs-out" d="M0 0v16h14v-1h2V0H0zm4 4H2.5L4 2.5V4z" id="outline"/><path class="icon-vs-fg" d="M2 6h3v3H2V6zm4 7h3v-3H6v3zM2 2h3v3H2V2zm.5 2H4V2.5L2.5 4zM2 13h3v-3H2v3zm4-4h3V6H6v3zm7 4h1v-3h-1v3zm0-4h1V6h-1v3zm0-7v3h1V2h-1zm-3 3h2V2h-2v3zm0 8h2v-3h-2v3zm0-4h2V6h-2v3zM6 5h3V2H6v3z" id="iconFg"/><g id="iconBg"><path class="icon-vs-bg" d="M4 4H2.5L4 2.5V4zm11-3v13h-2v1h-2v-1h-1v1H7v-1H6v1H1V1h14zM5 10H2v3h3v-3zm0-4H2v3h3V6zm0-4H2v3h3V2zm4 8H6v3h3v-3zm0-4H6v3h3V6zm0-4H6v3h3V2zm3 8h-2v3h2v-3zm0-4h-2v3h2V6zm0-4h-2v3h2V2zm2 8h-1v3h1v-3zm0-4h-1v3h1V6zm0-4h-1v3h1V2z"/></g></svg>