<?xml version="1.0" encoding="iso-8859-1"?>
<!-- Generator: Adobe Illustrator 21.0.0, SVG Export Plug-In . SVG Version: 6.00 Build 0)  -->
<svg version="1.1" xmlns="http://www.w3.org/2000/svg" xmlns:xlink="http://www.w3.org/1999/xlink" x="0px" y="0px"
	 viewBox="0 0 16 16" style="enable-background:new 0 0 16 16;" xml:space="preserve">
<style type="text/css">
	.icon_x002D_canvas_x002D_transparent{opacity:0;fill:#F6F6F6;}
	.icon_x002D_vs_x002D_out{fill:#F6F6F6;}
	.icon_x002D_vs_x002D_bg{fill:#424242;}
	.icon_x002D_vs_x002D_fg{fill:#F0EFF1;}
	.icon_x002D_vs_x002D_blue{fill:#1BA1E2;}
</style>
<g id="canvas">
	<rect class="icon_x002D_canvas_x002D_transparent" width="16" height="16"/>
</g>
<g id="outline">
	<path class="icon_x002D_vs_x002D_out" d="M11,0C8.149,0,6,1.289,6,3v6c0,0.356,0.113,0.688,0.286,1H5V9H0v5h5v-1h2v2h6v-3.233
		c1.798-0.445,3-1.487,3-2.767V3C16,1.289,13.851,0,11,0z"/>
</g>
<g id="iconBg">
	<path class="icon_x002D_vs_x002D_bg" d="M1,10h3v3H1V10z M8,14h4V9H8V14z M5,12h2v-1H5V12z"/>
</g>
<g id="iconFg">
	<path class="icon_x002D_vs_x002D_fg" d="M14.325,3c0,0.527-1.326,1.325-3.325,1.325C9.001,4.325,7.675,3.527,7.675,3
		S9.001,1.675,11,1.675C12.999,1.675,14.325,2.473,14.325,3z"/>
</g>
<g id="colorImportance">
	<path class="icon_x002D_vs_x002D_blue" d="M14,1.689C13.267,1.271,12.201,1,11,1C9.799,1,8.733,1.271,8,1.689
		C7.385,2.041,7,2.496,7,3v3v2h6v2.723c1.19-0.347,2-0.984,2-1.723V6V3C15,2.496,14.615,2.041,14,1.689z M11,4.325
		C9.001,4.325,7.675,3.527,7.675,3S9.001,1.675,11,1.675c1.999,0,3.325,0.798,3.325,1.325S12.999,4.325,11,4.325z"/>
</g>
</svg>
