<?xml version="1.0" encoding="iso-8859-1"?>
<!-- Generator: Adobe Illustrator 21.0.0, SVG Export Plug-In . SVG Version: 6.00 Build 0)  -->
<svg version="1.1" xmlns="http://www.w3.org/2000/svg" xmlns:xlink="http://www.w3.org/1999/xlink" x="0px" y="0px"
	 viewBox="0 0 16 16" style="enable-background:new 0 0 16 16;" xml:space="preserve">
<style type="text/css">
	.icon_x002D_canvas_x002D_transparent{opacity:0;fill:#F6F6F6;}
	.icon_x002D_vs_x002D_out{fill:#F6F6F6;}
	.icon_x002D_vs_x002D_bg{fill:#424242;}
	.icon_x002D_vs_x002D_fg{fill:#F0EFF1;}
	.icon_x002D_vs_x002D_blue{fill:#1BA1E2;}
	.icon_x002D_vs_x002D_yellow{fill:#FFCC00;}
</style>
<g id="canvas">
	<path class="icon_x002D_canvas_x002D_transparent" d="M16,16H0V0h16V16z"/>
</g>
<g id="outline">
	<path class="icon_x002D_vs_x002D_out" d="M14.564,11.144l1.409,2.844L15.002,16h-3.424H8.004H0.186l0.122-1.109
		c0.163-1.48,0.917-2.827,2.052-3.749c-0.588-0.765-0.918-1.709-0.918-2.7C1.441,5.992,3.434,4,5.883,4C5.923,4,5.96,4.011,6,4.012
		V3c0-1.71,2.149-3,5-3s5,1.29,5,3v6C16,9.857,15.46,10.607,14.564,11.144z"/>
</g>
<g id="iconBg">
	<path class="icon_x002D_vs_x002D_bg" d="M8.216,11.535c-0.14-0.083-0.281-0.163-0.43-0.231c0.925-0.617,1.537-1.669,1.537-2.863
		C9.323,6.544,7.78,5,5.883,5S2.441,6.544,2.441,8.441c0,1.194,0.612,2.245,1.538,2.863C2.528,11.966,1.482,13.352,1.302,15h1.013
		c0.246-1.757,1.744-3.118,3.568-3.118c0.694,0,1.339,0.199,1.888,0.54L8.216,11.535z M3.441,8.441C3.441,7.095,4.536,6,5.883,6
		c1.346,0,2.44,1.095,2.44,2.441c0,1.346-1.095,2.441-2.44,2.441C4.536,10.882,3.441,9.787,3.441,8.441z"/>
</g>
<g id="iconFg">
	<path class="icon_x002D_vs_x002D_fg" d="M3.441,8.441C3.441,7.095,4.536,6,5.883,6c1.346,0,2.44,1.095,2.44,2.441
		c0,1.346-1.095,2.441-2.44,2.441C4.536,10.882,3.441,9.787,3.441,8.441z M11,4.325c1.999,0,3.325-0.798,3.325-1.325
		S12.999,1.675,11,1.675S7.675,2.473,7.675,3S9.001,4.325,11,4.325z M6.97,14.018l0.801-1.595c-0.549-0.341-1.194-0.54-1.888-0.54
		c-1.824,0-3.321,1.361-3.568,3.118h5.167L6.97,14.018z"/>
</g>
<g id="colorImportance">
	<path class="icon_x002D_vs_x002D_blue" d="M10.221,7.542L10.493,7h2.018l1.605,3.24C14.661,9.898,15,9.471,15,9V3
		c0-1.104-1.791-2-4-2S7,1.896,7,3v1.16C8.62,4.584,9.877,5.895,10.221,7.542z M7.675,3c0-0.527,1.326-1.325,3.325-1.325
		S14.325,2.473,14.325,3S12.999,4.325,11,4.325S7.675,3.527,7.675,3z"/>
</g>
<g id="notificationBg">
	<path class="icon_x002D_vs_x002D_yellow" d="M11.891,8.016h-0.781l-3.016,6L8.609,15h5.766l0.484-1L11.891,8.016z M12,14h-1v-1h1
		V14z M12,12h-1v-2h1V12z"/>
</g>
<g id="notificationFg">
	<path class="icon_x002D_black" d="M12,12h-1v-2h1V12z M12,13h-1v1h1V13z"/>
</g>
</svg>
