<svg xmlns="http://www.w3.org/2000/svg" viewBox="0 0 16 16"><style>.st0{fill:#f6f6f6}.st1{fill:#424242}.st2{fill:#f0eff1}</style><path class="st0" d="M8.5 12C6.505 12 5 10.926 5 9.5v-3C5 5.074 6.505 4 8.5 4S12 5.074 12 6.5v3c0 1.426-1.505 2.5-3.5 2.5z" id="outline"/><path class="st1" d="M8.5 5C7.119 5 6 5.672 6 6.5v3c0 .828 1.119 1.5 2.5 1.5s2.5-.672 2.5-1.5v-3C11 5.672 9.881 5 8.5 5zm0 2.425c-1.084 0-1.925-.497-1.925-.925s.841-.925 1.925-.925 1.925.497 1.925.925-.841.925-1.925.925z" id="icon_x5F_bg"/><path class="st2" d="M8.5 5.575c-1.084 0-1.925.497-1.925.925s.841.925 1.925.925 1.925-.497 1.925-.925-.841-.925-1.925-.925z" id="icon_x5F_fg"/></svg>