<svg xmlns="http://www.w3.org/2000/svg" viewBox="0 0 16 16"><style>.st0{opacity:0}.st0,.st1{fill:#f6f6f6}.st2{fill:#dcb67a}.st3{fill:#424242}.st4{fill:#f0eff1}</style><g id="outline"><path class="st0" d="M0 0h16v16H0z"/><path class="st1" d="M14.5 0H6.39l-1 2H2.504c-.827 0-1.5.673-1.5 1.5v3.553l-.516.515.516.978v.184c-.965 1.855-1.202 4.394-.836 5.992l.177.778h1.81l.167-.794c.119-.566.33-1.127.624-1.706h2.64l3 3h.828l2-2-1-1H14.5c.827 0 1.5-.673 1.5-1.5v-10c0-.827-.673-1.5-1.5-1.5z"/></g><g id="icon_x5F_bg"><path class="st2" d="M14.5 1H7.008l-1 2H2.504a.5.5 0 0 0-.5.5v2.553l.564-.564 1.064.561C4.854 5.386 6.469 5 8.081 5a7.5 7.5 0 0 1 1.642.167l.777.178v1.81l-.794.167c-.883.186-1.753.571-2.706 1.202v1.062L9.414 12H14.5a.5.5 0 0 0 .5-.5v-10a.5.5 0 0 0-.5-.5zm-.496 2H7.508l.5-1H14.004v1z"/><path class="st3" d="M6 10l4 4-1 1-4-4H2.999c-.856 1.194-1.406 2.317-1.655 3.5h-.201c-.359-1.572-.05-4.214 1.056-5.834l-.482-.912 1.037-1.037.912.481C5.286 6.093 7.928 5.783 9.5 6.143v.201c-1.183.249-2.306.799-3.5 1.655V10z"/></g><path class="st4" d="M14 2v1H7.5L8 2z" id="icon_x5F_fg"/></svg>