<?xml version="1.0" encoding="iso-8859-1"?>
<!-- Generator: Adobe Illustrator 21.0.0, SVG Export Plug-In . SVG Version: 6.00 Build 0)  -->
<svg version="1.1" xmlns="http://www.w3.org/2000/svg" xmlns:xlink="http://www.w3.org/1999/xlink" x="0px" y="0px"
	 viewBox="0 0 16 16" style="enable-background:new 0 0 16 16;" xml:space="preserve">
<style type="text/css">
	.icon_x002D_canvas_x002D_transparent{opacity:0;fill:#F6F6F6;}
	.icon_x002D_vs_x002D_out{fill:#F6F6F6;}
	.icon_x002D_vs_x002D_fg{fill:#F0EFF1;}
	.icon_x002D_vs_x002D_blue{fill:#1BA1E2;}
	.icon_x002D_vs_x002D_action_x002D_blue{fill:#00539C;}
</style>
<g id="canvas">
	<path class="icon_x002D_canvas_x002D_transparent" d="M16,16H0V0h16V16z"/>
</g>
<g id="outline">
	<path class="icon_x002D_vs_x002D_out" d="M16,3c0-1.711-2.149-3-5-3C8.989,0,7.346,0.649,6.541,1.627L4.914,0H0.586l1.127,1.127
		C0.719,1.458,0,2.396,0,3.5V6h0.286C0.113,6.312,0,6.644,0,7v6c0,1.711,2.149,3,5,3c2.011,0,3.654-0.648,4.459-1.627L11.086,16
		h4.328l-1.127-1.127C15.281,14.542,16,13.604,16,12.5V10h-0.286C15.888,9.688,16,9.356,16,9V3z M10.135,11.951L10,12.086v-0.142
		C10.043,11.948,10.091,11.946,10.135,11.951z M5.865,4.049L6,3.914v0.143C5.957,4.052,5.909,4.053,5.865,4.049z"/>
</g>
<g id="iconBg">
	<path class="icon_x002D_vs_x002D_blue" d="M8,5.689C7.267,5.271,6.201,5,5,5S2.733,5.271,2,5.689C1.385,6.041,1,6.496,1,7v3v3
		c0,1.104,1.791,2,4,2s4-0.896,4-2v-3V7C9,6.496,8.615,6.041,8,5.689z M5,8.325C3.001,8.325,1.675,7.527,1.675,7
		S3.001,5.675,5,5.675S8.325,6.473,8.325,7S6.999,8.325,5,8.325z M14,1.689C13.267,1.271,12.201,1,11,1C9.799,1,8.733,1.271,8,1.689
		C7.385,2.041,7,2.496,7,3v1.233C8.798,4.679,10,5.721,10,7v3.93c0.321,0.041,0.652,0.07,1,0.07c2.209,0,4-0.896,4-2V6V3
		C15,2.496,14.615,2.041,14,1.689z M11,4.325C9.001,4.325,7.675,3.527,7.675,3S9.001,1.675,11,1.675
		c1.999,0,3.325,0.798,3.325,1.325S12.999,4.325,11,4.325z"/>
</g>
<g id="iconFg">
	<path class="icon_x002D_vs_x002D_fg" d="M14.325,3c0,0.527-1.326,1.325-3.325,1.325C9.001,4.325,7.675,3.527,7.675,3
		S9.001,1.675,11,1.675C12.999,1.675,14.325,2.473,14.325,3z M5,5.675C3.001,5.675,1.675,6.473,1.675,7S3.001,8.325,5,8.325
		S8.325,7.527,8.325,7S6.999,5.675,5,5.675z"/>
</g>
<g id="colorAction">
	<path class="icon_x002D_vs_x002D_action_x002D_blue" d="M4.5,4H3l1-1H2.5C2.225,3,2,3.225,2,3.5V5H1V3.5C1,2.673,1.673,2,2.5,2H4
		L3,1h1.5L6,2.5L4.5,4z M10,13.5l1.5,1.5H13l-1-1h1.5c0.827,0,1.5-0.673,1.5-1.5V11h-1v1.5c0,0.275-0.225,0.5-0.5,0.5H12l1-1h-1.5
		L10,13.5z"/>
</g>
</svg>
