<svg xmlns="http://www.w3.org/2000/svg" viewBox="0 0 16 16"><style>.st0{opacity:0}.st0,.st1{fill:#f6f6f6}.st2{fill:#424242}</style><g id="outline"><path class="st0" d="M0 0h16v16H0z"/><path class="st1" d="M14.481 4.702l.759-1.377L12.677.762l-1.378.759C9.627.562 7.354 0 5.078 0c-.834 0-1.592.079-2.254.234l-.771.182v1.87l.799.164c1.367.281 2.893.914 4.65 1.931l-.001 1.204L0 13.086v.828L2.086 16h.828l7.501-7.5h1.204c1.015 1.752 1.649 3.277 1.933 4.65l.165.797h1.866l.182-.77c.535-2.259.18-5.92-1.284-8.475z"/></g><path class="st2" d="M13.32 4.732L14 3.5 12.5 2l-1.233.68C8.983 1.121 5.25.691 3.053 1.208v.263c1.674.344 3.445 1.131 5.448 2.34L8.5 6 .999 13.5 2.5 15 10 7.5h2.189c1.21 2.002 1.995 3.774 2.342 5.447h.261c.519-2.195.086-5.93-1.472-8.215z" id="icon_x5F_bg"/></svg>