<svg xmlns="http://www.w3.org/2000/svg" viewBox="0 0 16 16"><style>.st0{opacity:0}.st0,.st1{fill:#f6f6f6}.st2{fill:#424242}.st3{fill:#f0eff1}</style><g id="outline"><path class="st0" d="M0 0h16v16H0z"/><path class="st1" d="M10.996 4.586V3.523c.953-.631 1.822-1.016 2.706-1.201l.794-.167V.345l-.777-.178A7.5 7.5 0 0 0 12.077 0C10.465 0 8.85.387 7.629 1.05L6.564.488l-2.08 2.08.562 1.064A8.022 8.022 0 0 0 4.48 5H2.086L0 7.086v2.275L5.531 16h.938l5.051-6.063 2.477 2.477L16 10.41v-.82l-5.004-5.004z"/></g><g id="icon_x5F_bg"><path class="st2" d="M10 5V2.999c1.194-.856 2.317-1.406 3.5-1.655v-.201c-1.572-.359-4.214-.05-5.834 1.056l-.912-.482-1.037 1.037.481.912C5.093 5.286 4.783 7.928 5.143 9.5h.201c.249-1.183.799-2.306 1.655-3.5H9l5 5 1-1-5-5z"/><path class="st2" d="M8.737 8L8 7h-.48c-.091.137-.166.27-.247.403L7.678 8h-.736a7.656 7.656 0 0 0-.429 1h1.191L6 13.214 4.902 10.5h-.56l-.178-.777C3.935 8.718 3.942 7.344 4.218 6H2.5L1 7.5V9l5 6 4.81-5.772L9.582 8h-.845zM3 7h1l-.737 1H2l1-1zM2 9h1.305l1.486 3.139L2 9zm5.209 3.139L8.695 9H10l-2.791 3.139z"/></g><g id="icon_x5F_fg"><path class="st3" d="M7.273 7.403c-.121.202-.231.401-.331.597h.735l-.404-.597zM9.582 8l-1-1H8l.737 1zM4 7H3L2 8h1.263zM2 9l2.791 3.139L3.305 9zM8.695 9l-1.486 3.139L10 9zM6.513 9a6.63 6.63 0 0 0-.195.706l-.167.794H4.902L6 13.214 7.704 9H6.513z"/></g></svg>