<svg xmlns="http://www.w3.org/2000/svg" viewBox="0 0 16 16"><style>.st0{opacity:0}.st0,.st1{fill:#f6f6f6}.st2{fill:#424242}.st3{fill:#f0eff1}</style><g id="outline"><path class="st0" d="M0 0h16v16H0z"/><path class="st1" d="M14 8V5h-2V0H5v5H3v3H0v8h8V8h1v5h7V8z"/></g><g id="icon_x5F_bg"><path class="st2" d="M1 15h6V9H1v6zm1-4.292l1.121 1.122.708-.708L2.707 10h2.585L4.17 11.121l.708.708L6 10.707v2.585L4.879 12.17l-.708.708L5.293 14H2.708l1.122-1.121-.708-.708L2 13.293v-2.585z"/><path class="st2" d="M13 9V6H9V4h2V1H6v3h2v2H4v2h1V7h7v2h-2v3h5V9z"/></g><path class="st3" d="M6 13.292v-2.585l-1.122 1.122-.708-.708L5.292 10H2.707l1.122 1.122-.708.708L2 10.708v2.585l1.122-1.122.708.708L2.708 14h2.585l-1.122-1.122.708-.708z" id="icon_x5F_fg"/></svg>