<svg xmlns="http://www.w3.org/2000/svg" viewBox="0 0 16 16"><style>.st0{opacity:0}.st0,.st1{fill:#f6f6f6}.st2{fill:#424242}</style><g id="outline"><path class="st0" d="M0 0h16v16H0z"/><path class="st1" d="M.006 8.989V7.79l1.201-3.667 1.831 1.08-.475-2.198h4.852l-.474 2.201 1.836-1.083.796 2.431L16 .771v14.478l-6.862-6.18-.896.085 1.494 1.287-3.711 3.266-1.032-2.303-1.029 2.299-3.735-3.261 1.504-1.289z"/></g><g id="icon_x5F_bg"><path class="st2" d="M15 13.003L9.453 8.007 15 3.016v9.987zM1.771 5.616L4.5 7.227l-.698-3.222h2.375l-.693 3.222 2.729-1.611.807 2.46-3.209.304 2.403 2.069-1.831 1.611-1.391-3.102-1.389 3.103-1.846-1.611 2.415-2.07-3.207-.304.806-2.46z"/></g></svg>