<?xml version="1.0" encoding="iso-8859-1"?>
<!-- Generator: Adobe Illustrator 21.0.0, SVG Export Plug-In . SVG Version: 6.00 Build 0)  -->
<svg version="1.1" xmlns="http://www.w3.org/2000/svg" xmlns:xlink="http://www.w3.org/1999/xlink" x="0px" y="0px"
	 viewBox="0 0 16 16" style="enable-background:new 0 0 16 16;" xml:space="preserve">
<style type="text/css">
	.icon_x002D_canvas_x002D_transparent{opacity:0;fill:#F6F6F6;}
	.icon_x002D_vs_x002D_out{fill:#F6F6F6;}
	.icon_x002D_vs_x002D_bg{fill:#424242;}
	.icon_x002D_vs_x002D_red{fill:#E51400;}
	.icon_x002D_white{fill:#FFFFFF;}
	.icon_x002D_vs_x002D_blue_x0020_2{fill:#1BA1E2;}
	.icon_x002D_vs_x002D_fg_x0020_2{fill:#F0EFF1;}
</style>
<g id="canvas">
	<path class="icon_x002D_canvas_x002D_transparent" d="M16,16H0V0h16V16z"/>
</g>
<g id="outline">
	<path class="icon_x002D_vs_x002D_out" d="M16,9c0,0.351-0.111,0.678-0.28,0.987c0.17,0.475,0.28,0.98,0.28,1.513
		c0,2.459-1.974,4.45-4.423,4.492L11.578,16H0.186l0.122-1.109c0.163-1.48,0.917-2.827,2.052-3.749
		c-0.588-0.765-0.918-1.709-0.918-2.7C1.441,5.992,3.434,4,5.883,4C5.923,4,5.96,4.011,6,4.012V3c0-1.71,2.149-3,5-3s5,1.29,5,3V9z"
		/>
</g>
<g id="iconBg">
	<path class="icon_x002D_vs_x002D_bg" d="M7.059,12.09c-0.369-0.129-0.763-0.207-1.177-0.207c-1.824,0-3.321,1.361-3.568,3.118
		H1.302c0.18-1.648,1.226-3.034,2.677-3.696c-0.926-0.617-1.538-1.669-1.538-2.863C2.441,6.544,3.985,5,5.883,5
		C7.503,5,8.857,6.13,9.22,7.641C8.891,7.836,8.58,8.057,8.312,8.326C8.25,7.034,7.189,6,5.883,6C4.536,6,3.441,7.095,3.441,8.441
		c0,1.346,1.095,2.441,2.441,2.441c0.448,0,0.864-0.13,1.225-0.342C7.04,10.85,7,11.17,7,11.5C7,11.702,7.034,11.895,7.059,12.09z"
		/>
</g>
<g id="iconFg">
	<path class="icon_x002D_vs_x002D_fg_x0020_2" d="M7.675,3c0-0.527,1.326-1.325,3.325-1.325S14.325,2.473,14.325,3
		S12.999,4.325,11,4.325S7.675,3.527,7.675,3z M5.883,10.882c0.448,0,0.864-0.13,1.225-0.342c0.186-0.853,0.609-1.617,1.204-2.214
		C8.25,7.034,7.189,6,5.883,6C4.536,6,3.441,7.095,3.441,8.441C3.441,9.787,4.536,10.882,5.883,10.882z M7.059,12.09
		c-0.369-0.129-0.763-0.207-1.177-0.207c-1.824,0-3.321,1.361-3.568,3.118h6.388C7.819,14.292,7.215,13.267,7.059,12.09z"/>
</g>
<g id="colorImportance">
	<path class="icon_x002D_vs_x002D_blue_x0020_2" d="M10.14,7.232C10.571,7.094,11.023,7,11.5,7c1.422,0,2.675,0.673,3.5,1.703V3
		c0-1.104-1.791-2-4-2S7,1.896,7,3v1.16C8.516,4.557,9.709,5.733,10.14,7.232z M7.675,3c0-0.527,1.326-1.325,3.325-1.325
		S14.325,2.473,14.325,3S12.999,4.325,11,4.325S7.675,3.527,7.675,3z"/>
</g>
<g id="notificationBg">
	<path class="icon_x002D_vs_x002D_red" d="M11.5,8C9.567,8,8,9.567,8,11.5c0,1.933,1.567,3.5,3.5,3.5c1.933,0,3.5-1.567,3.5-3.5
		C15,9.567,13.433,8,11.5,8z M13.354,12.646l-0.707,0.707L11.5,12.207l-1.146,1.147l-0.707-0.707l1.147-1.146l-1.147-1.146
		l0.707-0.707l1.146,1.147l1.146-1.147l0.707,0.707L12.207,11.5L13.354,12.646z"/>
</g>
<g id="notificationFg">
	<path class="icon_x002D_white" d="M12.207,11.5l1.147,1.146l-0.707,0.707L11.5,12.207l-1.146,1.147l-0.707-0.707l1.147-1.146
		l-1.147-1.146l0.707-0.707l1.146,1.147l1.146-1.147l0.707,0.707L12.207,11.5z"/>
</g>
</svg>
