<?xml version="1.0" encoding="iso-8859-1"?>
<!-- Generator: Adobe Illustrator 21.0.0, SVG Export Plug-In . SVG Version: 6.00 Build 0)  -->
<svg version="1.1" xmlns="http://www.w3.org/2000/svg" xmlns:xlink="http://www.w3.org/1999/xlink" x="0px" y="0px"
	 viewBox="0 0 16 16" style="enable-background:new 0 0 16 16;" xml:space="preserve">
<style type="text/css">
	.icon_x002D_canvas_x002D_transparent{opacity:0;fill:#F6F6F6;}
	.icon_x002D_vs_x002D_out{fill:#F6F6F6;}
	.icon_x002D_vs_x002D_bg{fill:#424242;}
	.icon_x002D_vs_x002D_fg{fill:#F0EFF1;}
	.icon_x002D_vs_x002D_blue{fill:#1BA1E2;}
</style>
<g id="canvas">
	<path class="icon_x002D_canvas_x002D_transparent" d="M16,16H0V0h16V16z"/>
</g>
<g id="outline">
	<path class="icon_x002D_vs_x002D_out" d="M16,7v6c0,1.711-2.149,3-5,3c-0.72,0-1.394-0.083-2-0.233V16H0V3c0-1.711,2.149-3,5-3
		s5,1.289,5,3v1.057C10.322,4.021,10.655,4,11,4C13.851,4,16,5.289,16,7z"/>
</g>
<g id="iconBg">
	<path class="icon_x002D_vs_x002D_bg" d="M1,15h7V8H1V15z M2,9h5v5H2V9z M4,10h2v2l-1,1v-1.5L3.5,13L3,12.5L4.5,11H3L4,10z"/>
</g>
<g id="iconFg">
	<path class="icon_x002D_vs_x002D_fg" d="M7,9H2v5h5V9z M6,12l-1,1v-1.5L3.5,13L3,12.5L4.5,11H3l1-1h2V12z M8.325,3
		c0,0.527-1.326,1.325-3.325,1.325S1.675,3.527,1.675,3S3.001,1.675,5,1.675S8.325,2.473,8.325,3z M14.325,7
		c0,0.527-1.326,1.325-3.325,1.325c-0.785,0-1.462-0.125-2-0.307V7H7.675c0-0.527,1.326-1.325,3.325-1.325
		C12.999,5.675,14.325,6.473,14.325,7z"/>
</g>
<g id="colorImportance">
	<path class="icon_x002D_vs_x002D_blue" d="M15,7v6c0,1.104-1.791,2-4,2c-0.732,0-1.409-0.106-2-0.277V8.019
		c0.538,0.181,1.215,0.307,2,0.307c1.999,0,3.325-0.798,3.325-1.325S12.999,5.675,11,5.675C9.001,5.675,7.675,6.473,7.675,7H7
		c0-1.104,1.791-2,4-2C13.209,5,15,5.896,15,7z M6,7H1V3c0-1.104,1.791-2,4-2s4,0.896,4,2v1.233C7.202,4.679,6,5.721,6,7z M5,4.325
		c1.999,0,3.325-0.798,3.325-1.325S6.999,1.675,5,1.675S1.675,2.473,1.675,3S3.001,4.325,5,4.325z"/>
</g>
</svg>
