<?xml version="1.0" encoding="iso-8859-1"?>
<!-- Generator: Adobe Illustrator 21.0.0, SVG Export Plug-In . SVG Version: 6.00 Build 0)  -->
<svg version="1.1" xmlns="http://www.w3.org/2000/svg" xmlns:xlink="http://www.w3.org/1999/xlink" x="0px" y="0px"
	 viewBox="0 0 16 16" style="enable-background:new 0 0 16 16;" xml:space="preserve">
<style type="text/css">
	.icon_x002D_canvas_x002D_transparent{opacity:0;fill:#F6F6F6;}
	.icon_x002D_vs_x002D_out{fill:#F6F6F6;}
	.icon_x002D_vs_x002D_fg{fill:#F0EFF1;}
	.icon_x002D_vs_x002D_blue{fill:#1BA1E2;}
	.icon_x002D_vs_x002D_yellow{fill:#FFCC00;}
</style>
<g id="canvas">
	<path class="icon_x002D_canvas_x002D_transparent" d="M16,16H0V0h16V16z"/>
</g>
<g id="outline">
	<path class="icon_x002D_vs_x002D_out" d="M15.972,13.987L15.001,16H8.004L6.97,14.018l1.393-2.775C7.486,11.713,6.325,12,5,12
		c-2.851,0-5-1.289-5-3V3c0-1.711,2.149-3,5-3s5,1.289,5,3v4.982L10.493,7h2.017L15.972,13.987z"/>
</g>
<g id="iconBg">
	<path class="icon_x002D_vs_x002D_blue" d="M8,1.689C7.267,1.271,6.201,1,5,1S2.733,1.271,2,1.689C1.385,2.041,1,2.496,1,3v3v3
		c0,1.104,1.791,2,4,2s4-0.896,4-2V6V3C9,2.496,8.615,2.041,8,1.689z M5,4.325C3.001,4.325,1.675,3.527,1.675,3S3.001,1.675,5,1.675
		S8.325,2.473,8.325,3S6.999,4.325,5,4.325z"/>
</g>
<g id="iconFg">
	<path class="icon_x002D_vs_x002D_fg" d="M8.325,3c0,0.527-1.326,1.325-3.325,1.325S1.675,3.527,1.675,3S3.001,1.675,5,1.675
		S8.325,2.473,8.325,3z"/>
</g>
<g id="notificationBg">
	<path class="icon_x002D_vs_x002D_yellow" d="M11.891,8.016h-0.781l-3.016,6L8.609,15h5.765l0.484-1L11.891,8.016z M12,14h-1v-1h1
		V14z M12,12h-1v-2h1V12z"/>
</g>
<g id="notificationFg">
	<path class="icon_x002D_black" d="M12,12h-1v-2h1V12z M12,13h-1v1h1V13z"/>
</g>
</svg>
