<svg xmlns="http://www.w3.org/2000/svg" viewBox="0 0 16 16"><style>.st0{opacity:0}.st0,.st1{fill:#f6f6f6}.st2{fill:#424242}.st3{fill:#f0eff1}</style><g id="outline"><path class="st0" d="M0 0h16v16H0z"/><path class="st1" d="M6 0v3H4v3.609c-.14-.008-.279-.024-.419-.024a3.67 3.67 0 0 0-1.013.128L2 6.896v1.735l.549.164C3.105 8.908 4 9.146 4 9.491v.292l-4.048 4.096 2.146 2.169L6.217 12h.292c.344 0 .582.893.696 1.451l.164.549h1.734l.182-.567c.109-.459.147-.827.112-1.433H14V9h2V0H6z"/></g><g id="icon_x5F_bg"><path class="st2" d="M7 1v3H5v2.732a6.95 6.95 0 0 1 1 .271V6h1v1.06l.402-.212L8.556 8H12v2H8.999c.117.325.21.662.276 1H13V8h2V1H7zm5 5.999L11.999 7H8V6h4v.999zM14 7h-1V4H8V3h6v4z"/><path class="st2" d="M8.313 13.404c.252-1.068.043-2.889-.717-4l.329-.621-.708-.707-.621.328c-1.111-.759-2.931-.969-4-.717v.128c.814.167 1.678.552 2.5 1.14v1.242l-3.681 3.682.708.707 3.681-3.682h1.242c.589.822.973 1.686 1.141 2.5h.126z"/></g><g id="icon_x5F_fg"><path class="st3" d="M9.154 8.598l-.415.784c.1.198.184.406.26.618H12V8H8.556l.598.598zM6.617 7.262l.382-.202V6h-1v1.003c.215.078.424.162.618.259zM8 3v1h5v3h1V3z"/><path class="st3" d="M8 6v1h3.999L12 6.999V6H8z"/></g></svg>