<?xml version="1.0" encoding="iso-8859-1"?>
<!-- Generator: Adobe Illustrator 21.0.0, SVG Export Plug-In . SVG Version: 6.00 Build 0)  -->
<svg version="1.1" xmlns="http://www.w3.org/2000/svg" xmlns:xlink="http://www.w3.org/1999/xlink" x="0px" y="0px"
	 viewBox="0 0 16 16" style="enable-background:new 0 0 16 16;" xml:space="preserve">
<style type="text/css">
	.icon_x002D_canvas_x002D_transparent{opacity:0;fill:#F6F6F6;}
	.icon_x002D_vs_x002D_out{fill:#F6F6F6;}
	.icon_x002D_vs_x002D_bg{fill:#424242;}
	.icon_x002D_vs_x002D_blue{fill:#1BA1E2;}
	.icon_x002D_vs_x002D_fg{fill:#F0EFF1;}
</style>
<g id="canvas">
	<path class="icon_x002D_canvas_x002D_transparent" d="M16,16H0V0h16V16z"/>
</g>
<g id="outline">
	<path class="icon_x002D_vs_x002D_out" d="M16,4v8c0,2.28-3.01,4-7,4c-0.188,0-0.372-0.008-0.555-0.015L8.43,16H7.6l-0.083-0.084
		c-0.901-0.102-1.728-0.298-2.453-0.569L4.41,16H3.59L0,12.41v-0.828l2-2V4c0-2.28,3.01-4,7-4C12.99,0,16,1.72,16,4z"/>
</g>
<g id="iconBg">
	<path class="icon_x002D_vs_x002D_bg" d="M3,11.996l2,2l-1,1l-3-3l3-3l1,1L3,11.996z M8.015,9l-1,1l2,1.996l-2,2.004l1,1l3-3.004
		L8.015,9z"/>
</g>
<g id="iconFg">
	<path class="icon_x002D_vs_x002D_fg" d="M8.997,2.125C6.066,2.125,4.122,3.254,4.122,4s1.944,1.875,4.875,1.875
		c2.931,0,4.875-1.129,4.875-1.875S11.928,2.125,8.997,2.125z"/>
</g>
<g id="colorImportance">
	<path class="icon_x002D_vs_x002D_blue" d="M9,1C5.687,1,3,2.343,3,4v4.583l1-1l2.009,2.008l2.005-2.004l4.415,4.409l-2.989,2.994
		C12.547,14.876,15,13.583,15,12V4C15,2.343,12.313,1,9,1z M8.997,5.875C6.066,5.875,4.122,4.746,4.122,4s1.944-1.875,4.875-1.875
		c2.931,0,4.875,1.129,4.875,1.875S11.928,5.875,8.997,5.875z"/>
</g>
</svg>
