<svg xmlns="http://www.w3.org/2000/svg" viewBox="0 0 16 16"><defs><style>.icon-canvas-transparent,.icon-vs-out{fill:#f6f6f6}.icon-canvas-transparent{opacity:0}.icon-vs-blue{fill:#1ba1e2}.icon-vs-action-orange{fill:#c27d1a}.icon-vs-fg{fill:#f0eff1}.a{fill:none}.icon-vs-bg{fill:#424242}</style></defs><title>DatePicker_16x</title><path class="icon-canvas-transparent" d="M16 16H0V0h16z"/><path class="icon-vs-out" d="M3 15V7H1V1h15v14z"/><path class="icon-vs-blue" d="M2 6h13V2H2zm12-3l-2 2-2-2zM3 3h6v2H3z"/><path class="icon-vs-action-orange" d="M13 12h-3V9h3z"/><path class="icon-vs-fg" d="M3 3h6v2H3zm11 0h-4l2 2zm0 3v7H5V6zm-4 2h1V7h-1zm-3 3H6v1h1zm0-2H6v1h1zm2 2H8v1h1zm0-2H8v1h1zm0-2H8v1h1zm4 2h-3v3h3zm0-2h-1v1h1z"/><path class="a" d="M14 13V6H5v7zm-2-6h1v1h-1zm-2 0h1v1h-1zm0 2h3v3h-3zM8 7h1v1H8zm0 2h1v1H8zm0 2h1v1H8zM6 9h1v1H6zm0 2h1v1H6z"/><path class="icon-vs-bg" d="M9 8H8V7h1zm0 1H8v1h1zm0 2H8v1h1zm4-4h-1v1h1zm-2 0h-1v1h1zm3 6H5V6H4v8h11V6h-1zm-7-2H6v1h1zm0-2H6v1h1z"/><path class="icon-vs-fg" d="M14 3h-4l2 2 2-2zM3 3h6v2H3z"/></svg>