<svg xmlns="http://www.w3.org/2000/svg" viewBox="0 0 16 16"><style>.st0{opacity:0}.st0,.st1{fill:#f6f6f6}.st2{fill:#f0eff1}.st3{fill:#424242}</style><g id="outline"><path class="st0" d="M0 0h16v16H0z"/><path class="st1" d="M14 11V1h-2V0H9v1H7V0H4v1H3V0H0v14h2v2h13v-2h1v-3z"/></g><path class="st2" d="M4 5v5h8V5H4zm3 4h-.659V6.623h-.009l-.556.272-.112-.526L6.436 6H7v3zm3 0H8v-.479l.311-.283c.636-.576.946-.908.955-1.254 0-.24-.144-.431-.48-.431-.25 0-.47.126-.623.245l-.193-.493A1.59 1.59 0 0 1 8.925 6c.659 0 1.022.391 1.022.926 0 .494-.355.89-.776 1.271l-.269.227v.009H10V9z" id="icon_x5F_fg"/><g id="icon_x5F_bg"><path class="st3" d="M15 12v1H1V1h1v11zM3 14h1v1H3zM5 14h1v1H5zM7 14h1v1H7zM9 14h1v1H9zM11 14h1v1h-1zM13 14h1v1h-1zM5 1h1v1H5zM10 1h1v1h-1z"/><path class="st3" d="M12 2v1H9V2H7v1H4V2H3v9h10V2h-1zm0 8H4V5h8v5z"/><path class="st3" d="M5.664 6.369l.112.526.556-.272h.009V9H7V6h-.564zM8.902 8.424l.269-.228c.422-.381.776-.776.776-1.27 0-.535-.363-.926-1.022-.926a1.59 1.59 0 0 0-.955.305l.192.494c.153-.119.373-.245.623-.245.337 0 .48.19.48.431-.008.345-.318.677-.954 1.253L8 8.521V9h2v-.567H8.902v-.009z"/></g></svg>