<svg xmlns="http://www.w3.org/2000/svg" viewBox="0 0 16 16"><style>.st0{opacity:0}.st0,.st1{fill:#f6f6f6}.st2{fill:#424242}.st3{fill:#388a34}</style><g id="outline"><path class="st0" d="M0 0h16v16H0z"/><path class="st1" d="M14 9h-.885l-2.222-2.221A1.993 1.993 0 0 0 12 5V2c0-1.103-.898-2-2-2H6C4.897 0 4 .897 4 2L1.334 0H0v9l4.211-3.158c.189.411.505.738.895.938L2.885 9H2c-1.103 0-2 .897-2 2v3c0 1.102.897 2 2 2h4c1.103 0 2-.898 2-2 0 1.102.897 2 2 2h4c1.102 0 2-.898 2-2v-3c0-1.103-.898-2-2-2zm-6 2c0-.78-.453-1.45-1.106-1.779L8 8.114 9.106 9.22A1.997 1.997 0 0 0 8 11z"/></g><g id="icon_x5F_bg"><path class="st2" d="M14 10h-4a1 1 0 0 0-1 1v3a1 1 0 0 0 1 1h4a1 1 0 0 0 1-1v-3a1 1 0 0 0-1-1zM6 10H2a1 1 0 0 0-1 1v3a1 1 0 0 0 1 1h4a1 1 0 0 0 1-1v-3a1 1 0 0 0-1-1z"/><path class="st2" d="M11.7 10.4l-4-4 .6-.8 4 4z"/><path class="st2" d="M4.3 10.4l4-4-.6-.8-4 4z"/><path class="st2" d="M10 1H6a1 1 0 0 0-1 1v.75L6.667 4 5.044 5.217c.102.445.48.783.956.783h4a1 1 0 0 0 1-1V2a1 1 0 0 0-1-1z"/></g><path class="st3" d="M1 1v6l4-3-4-3z" id="color_x5F_action"/></svg>