<svg xmlns="http://www.w3.org/2000/svg" viewBox="0 0 16 16"><style>.icon-canvas-transparent{opacity:0;fill:#f6f6f6}.icon-vs-out{fill:#f6f6f6}.icon-vs-bg{fill:#424242}.icon-vs-action-blue{fill:#00539c}</style><path class="icon-canvas-transparent" d="M16 0v16H0V0h16z" id="canvas"/><path class="icon-vs-out" d="M6 1v1.629L4.604 1.232 2.482 3.354 3.129 4H2.5A2.503 2.503 0 0 0 0 6.5v7C0 14.879 1.122 16 2.5 16H16V1H6zm2 9H4v3H3V8.164l1.604 1.604L8 6.371V10z" id="outline"/><path class="icon-vs-bg" d="M5 11h10v1H5v-1zm3 4h7v-1H8v1zm1-9h6V5H9v1zm0 3h6V8H9v1zM7 2v1h8V2H7z" id="iconBg"/><path class="icon-vs-action-blue" d="M2.5 14H6v1H2.5c-.827 0-1.5-.673-1.5-1.5v-7C1 5.673 1.673 5 2.5 5h3.043L3.896 3.354l.707-.707L7.457 5.5 4.604 8.354l-.708-.708L5.543 6H2.5a.5.5 0 0 0-.5.5v7a.5.5 0 0 0 .5.5z" id="colorAction"/></svg>