<svg xmlns="http://www.w3.org/2000/svg" viewBox="0 0 16 16"><style>.st0{opacity:0}.st0,.st1{fill:#f6f6f6}.st2{fill:#424242}.st3{fill:#00539c}.st4{fill:#f0eff1}</style><g id="outline"><path class="st0" d="M0 0h16v16H0z"/><path class="st1" d="M15 1v15H2V7.5l-.666.5H0V0h1.334l1.333 1H15z"/></g><g id="icon_x5F_bg"><path class="st2" d="M14 2v13H3V6.75L4 6v8h9V3H5.333L4 2z"/><path class="st2" d="M10 7V5h1V4H6v1h1v2l-2 3.5L6 12h5l1-1.5L10 7zM7.032 9l.8-1.445L8 7.303V5h1v2.303l.168.252.8 1.445H7.032z"/></g><path class="st3" d="M5 4L1 7V1z" id="color_x5F_action"/><path class="st4" d="M7.032 9l.8-1.445L8 7.303V5h1v2.303l.168.252.8 1.445H7.032zM5.333 3l1.333 1H11v1h-1v2l2 3.5-1 1.5H6l-1-1.5L7 7V5H6v-.5L4 6v8h9V3H5.333z" id="icon_x5F_fg"/></svg>