<svg xmlns="http://www.w3.org/2000/svg" viewBox="0 0 16 16"><style>.st0{opacity:0}.st0,.st1{fill:#f6f6f6}.st2{fill:#424242}.st3{fill:#00539c}</style><g id="outline"><path class="st0" d="M0 0h16v16H0z"/><path class="st1" d="M12 1H3v.289L1.343 0H0v9h1.343L3 7.711V16h13V5z"/></g><g id="icon_x5F_bg"><path class="st2" d="M6 2h1v1H6zM8 2h1v1H8zM14 6h1v1h-1zM10 6h1v1h-1zM10 4h1v1h-1zM14 8h1v1h-1zM14 10h1v1h-1zM14 12h1v1h-1zM4 8h1v1H4zM4 10h1v1H4zM4 12h1v1H4zM8 14h1v1H8zM10 14h1v1h-1zM12 14h1v1h-1zM4 14h1v1H4zM6 14h1v1H6zM14 14h1v1h-1zM10 2h1v1h-1zM12 6h1v1h-1zM12 4h1v1h-1zM5 2H4v.066l1 .778zM4 7h1v-.844l-1 .778z"/></g><path class="st3" d="M1 8l4.5-3.5L1 1v7zm1-5l2 1.5L2 6V3z" id="color_x5F_action"/></svg>