<svg xmlns="http://www.w3.org/2000/svg" viewBox="0 0 16 16"><style>.st0{opacity:0}.st0,.st1{fill:#f6f6f6}.st2{fill:#424242}.st3{fill:#388a34}.st4{fill:#f0eff1}</style><g id="outline"><path class="st0" d="M0 0h16v16H0z"/><path class="st1" d="M14 9h-.886l-2.003-2.003A2.003 2.003 0 0 0 13 5V2c0-1.103-.898-2-2-2H5c-.87 0-1.605.563-1.879 1.34L1.334 0H0v8h1.334l1.333-1 .864-.648c.342.372.821.615 1.357.645L2.886 9H2c-1.103 0-2 .896-2 2v3c0 1.102.897 2 2 2h4c1.103 0 2-.898 2-2 0 1.102.897 2 2 2h4c1.102 0 2-.898 2-2v-3c0-1.104-.898-2-2-2zm-6 2a2 2 0 0 0-1.1-1.785L8 8.114l1.1 1.101A2 2 0 0 0 8 11z"/></g><g id="icon_x5F_bg"><path class="st2" d="M14 10h-4a1 1 0 0 0-1 1v3a1 1 0 0 0 1 1h4a1 1 0 0 0 1-1v-3a1 1 0 0 0-1-1zm0 4h-4v-3h4v3zM6 10H2a1 1 0 0 0-1 1v3a1 1 0 0 0 1 1h4a1 1 0 0 0 1-1v-3a1 1 0 0 0-1-1zm0 4H2v-3h4v3zM11 1H5a1 1 0 0 0-1 1h7v3H5v1c.176.155-.254 0 0 0h6a1 1 0 0 0 1-1V2a1 1 0 0 0-1-1z"/><path class="st2" d="M11.7 10.4l-4-4 .6-.8 4 4z"/><path class="st2" d="M4.3 10.4l4-4-.6-.8-4 4z"/></g><path class="st3" d="M1 1v6l4-3-4-3z" id="color_x5F_action"/><g id="icon_x5F_fg"><path class="st4" d="M2 11h4v3H2zM10 11h4v3h-4zM4 2l2 1.203-.016 1L5 5h6V2z"/></g></svg>