<svg xmlns="http://www.w3.org/2000/svg" viewBox="0 0 16 16"><style>.st0,.st1{fill:#f6f6f6}.st1{opacity:0}.st2{fill:#424242}.st3{fill:#f0eff1}</style><path class="st0" d="M16 6.383L3.236 0H2v6H0v10h10v-5.383l6-3z" id="outline"/><g id="icon_x5F_bg"><path class="st1" d="M0 0h16v16H0z"/><path class="st2" d="M10 9.499V6H3V1l11.998 6z"/><path class="st2" d="M1 7v8h8V7H1zm7 7H2V8h4.5L5 11l-.5-1H3l1.5 3h1L8 8v6z"/></g><path class="st3" d="M8 14H2V8h4.5L5 11l-.5-1H3l1.5 3h1L8 8z" id="icon_x5F_fg"/></svg>