<svg xmlns="http://www.w3.org/2000/svg" viewBox="0 0 16 16"><style>.st0{opacity:0}.st0,.st1{fill:#f6f6f6}.st2{fill:#424242}.st3{fill:#f0eff1}</style><g id="outline"><path class="st0" d="M0 0h16v16H0z"/><path class="st1" d="M16 5V0h-5v2H6v3H0v7h6v3h6v-4h4V6h-1V5h1zm-5 4h-1V8h1v1z"/></g><path class="st2" d="M15 4V1h-3v3h1v1h-2V3H7v4h1v1H6V6H1v5h5V9h2v1H7v4h4v-4H9V7h2V6h2v1h-1v3h3V7h-1V4h1zM5 10H2V7h3v3zm5 1v2H8v-2h2zm0-5H8V4h2v2zm4 3h-1V8h1v1zm-1-6V2h1v1h-1z" id="icon_x5F_bg"/><g id="icon_x5F_fg"><path class="st3" d="M2 7h3v3H2zM8 4h2v2H8zM13 2h1v1h-1zM13 8h1v1h-1zM8 11h2v2H8z"/></g></svg>