<svg xmlns="http://www.w3.org/2000/svg" viewBox="0 0 16 16"><style>.st0{opacity:0}.st0,.st1{fill:#f6f6f6}.st2{fill:#424242}.st3{fill:#f0eff1}</style><g id="outline"><path class="st0" d="M0 0h16v16H0z"/><path class="st1" d="M7 12.5s-.835-.495-1.001-.5H2V3h4.5c.646.004 1.12.191 1.5.5.382-.309.864-.5 1.5-.5H14v9h-4c-.163.005-1 .5-1 .5H7z"/></g><g id="icon_x5F_bg"><path class="st2" d="M10 4h1v1h-1zM3 8h1v1H3zM3 10h1v1H3zM3 6h1v1H3zM5 10h1v1H5zM3 4h1v1H3zM5 4h1v1H5zM12 6h1v1h-1zM12 4h1v1h-1zM12 8h1v1h-1zM9 11V4.107c-.352.147-.641.449-1 .893-.357-.44-.643-.745-1-.894V11s.807.041 1 .5c.192-.459 1-.5 1-.5zM10 10h1v1h-1zM12 10h1v1h-1z"/></g><path class="st3" d="M12 10H9V5h3v5zM7 5H4v5h3V5z" id="icon_x5F_fg"/></svg>