<svg xmlns="http://www.w3.org/2000/svg" viewBox="0 0 16 16"><style>.st0{opacity:0}.st0,.st1{fill:#f6f6f6}.st2{fill:#424242}</style><g id="outline"><path class="st0" d="M0 0h16v16H0z"/><path class="st1" d="M15 11V1h-4v3h-1V0H6v4H5V1H1v10h2v1H1v3h2v1h2.914L8 13.914 10.086 16H13v-1h2v-3h-2v-1h2zm-9 .086L5.914 11H5V8h1v3.086zm2 2L6.914 12h2.172L8 13.086zM11 11h-.914l-.086.086V8h1v3z"/></g><g id="icon_x5F_bg"><path class="st2" d="M5 5h1v2H5zM10 5h1v2h-1zM7 1h2v10H7zM12 2h2v8h-2zM2 2h2v8H2zM5.5 12H4l1 1H2v1h3l-1 1h1.5L7 13.5zM10.5 12H12l-1 1h3v1h-3l1 1h-1.5L9 13.5z"/></g></svg>