<svg xmlns="http://www.w3.org/2000/svg" viewBox="0 0 16 16"><style>.icon-canvas-transparent{opacity:0;fill:#f6f6f6}.icon-vs-out{fill:#f6f6f6}.icon-vs-bg{fill:#424242}</style><path class="icon-canvas-transparent" d="M16 16H0V0h16v16z" id="canvas"/><path class="icon-vs-out" d="M13 16c-.775 0-1.473-.373-2-.995V16H7v-3.005l-2.151 1.979-1.964-1.964-1.877-.009v-3h1.735L4.767 8H2V4h3c0-2.243 1.318-4 3-4 1.055 0 1.967.691 2.5 1.76C11.033.691 11.945 0 13 0c1.683 0 3 1.757 3 4s-1.317 4-3 4c1.683 0 3 1.757 3 4s-1.317 4-3 4zm-3-4c0-2.243 1.317-4 3-4-1.055 0-1.967-.691-2.5-1.76C9.967 7.309 9.055 8 8 8c-.775 0-1.473-.373-2-.995V8H4.993l3.551 3.574-.462.426H10z" id="outline"/><path class="icon-vs-bg" d="M8 1C6.896 1 6 2.343 6 4s.896 3 2 3 2-1.343 2-3-.896-3-2-3zm0 5c-.408 0-1-.779-1-2s.592-2 1-2c.408 0 1 .779 1 2s-.592 2-1 2zm5-5c-1.104 0-2 1.343-2 3s.896 3 2 3 2-1.343 2-3-.896-3-2-3zm0 5c-.408 0-1-.779-1-2s.592-2 1-2 1 .779 1 2-.592 2-1 2zm0 3c-1.104 0-2 1.343-2 3s.896 3 2 3 2-1.343 2-3-.896-3-2-3zm0 5c-.408 0-1-.779-1-2s.592-2 1-2 1 .779 1 2-.592 2-1 2zM5 7H3V5h2v2zm3 6h2v2H8v-2zm-2.957-2.117l-.872-.873.707-.707 2.224 2.239-2.224 2.047-.707-.707.872-.872h-.005l.009-.009h-3.04v-1h3.149l-.119-.119h.006z" id="iconBg"/></svg>