<svg xmlns="http://www.w3.org/2000/svg" viewBox="0 0 16 16"><style>.st0{opacity:0}.st0,.st1{fill:#f6f6f6}.st2{fill:#424242}</style><g id="outline"><path class="st0" d="M0 0h16v16H0z"/><path class="st1" d="M5 15v-1.586l-1-1V15H1v-2.588l-1 .999V9.583L1.6 8 0 6.418V2.585l1 1V1h3v2.587l1-1V6h3V5H5V1h10v4h-3v1h4v4h-4v1h3v4H5zm3-4v-1H5v1h3zM4 8.593V7.407L3.4 8l.6.593z"/></g><g id="icon_x5F_bg"><path class="st2" d="M6 2h8v2H6zM9 5h2v1H9zM5 7h10v2H5zM9 10h2v1H9zM6 12h8v2H6zM4 6L2.5 7.484 1 6V5l1 1V2h1v4l1-.999zM1 10l1.5-1.484L4 10v1l-1-1v4H2v-4l-1 .999z"/></g></svg>