<svg xmlns="http://www.w3.org/2000/svg" viewBox="0 0 16 16"><style>.st0{opacity:0}.st0,.st1{fill:#f6f6f6}.st2{fill:#424242}.st3{fill:none}.st4{fill:#f0eff1}</style><g id="outline"><path class="st0" d="M0 0h16v16H0z"/><path class="st1" d="M15 0v16H1V8h4V0h10z"/></g><g id="icon_x5F_bg"><path class="st2" d="M6 1v7h1V7h6v3h-2.987v1H13v3h-2.987v1H14V1H6zm7 5H7V3h6v3zM4.518 10.648c-.395 0-.592.461-.592 1.383 0 .869.193 1.305.58 1.305.377 0 .565-.449.565-1.344 0-.896-.184-1.344-.553-1.344z"/><path class="st2" d="M2 9v6h7V9H2zm3.605 4.465c-.262.348-.639.522-1.129.522C3.492 13.986 3 13.34 3 12.053c0-.668.133-1.177.399-1.527.267-.35.653-.526 1.159-.526C5.52 10 6 10.654 6 11.965c0 .652-.131 1.152-.395 1.5zM8 14h-.847v-3.001a.925.925 0 0 1-.165.116c-.064.037-.131.07-.203.102-.038.016-.079.026-.119.039v-.772c.097-.04.2-.069.291-.117.195-.1.372-.211.529-.332H8V14z"/></g><g id="icon_x5F_fg"><path class="st3" d="M4 12h1v1H4z"/><path class="st4" d="M7 3h6v3H7zM10.013 11H13v3h-2.987zM7 8h3.013v2H13V7H7zM4.558 10c-.506 0-.892.176-1.158.525-.267.351-.4.86-.4 1.528 0 1.287.492 1.934 1.477 1.934.49 0 .867-.174 1.129-.522.263-.348.394-.848.394-1.5C6 10.654 5.52 10 4.558 10zm-.052 3.336c-.387 0-.58-.436-.58-1.305 0-.922.197-1.383.592-1.383.369 0 .554.447.554 1.344-.001.895-.189 1.344-.566 1.344zM6.957 10.367c-.091.048-.194.077-.291.117v.772c.04-.013.081-.024.119-.039.072-.031.139-.064.203-.102a.925.925 0 0 0 .165-.116V14H8v-3.965h-.514a3.353 3.353 0 0 1-.529.332z"/></g></svg>