<?xml version="1.0" encoding="iso-8859-1"?>
<!-- Generator: Adobe Illustrator 21.0.0, SVG Export Plug-In . SVG Version: 6.00 Build 0)  -->
<svg version="1.1" xmlns="http://www.w3.org/2000/svg" xmlns:xlink="http://www.w3.org/1999/xlink" x="0px" y="0px"
	 viewBox="0 0 16 16" style="enable-background:new 0 0 16 16;" xml:space="preserve">
<style type="text/css">
	.icon_x002D_canvas_x002D_transparent{opacity:0;fill:#F6F6F6;}
	.icon_x002D_vs_x002D_out{fill:#F6F6F6;}
	.icon_x002D_vs_x002D_bg{fill:#424242;}
	.icon_x002D_vs_x002D_fg{fill:#F0EFF1;}
	.icon_x002D_vs_x002D_blue{fill:#1BA1E2;}
</style>
<g id="canvas">
	<path class="icon_x002D_canvas_x002D_transparent" d="M16,16H0V0h16V16z"/>
</g>
<g id="outline">
	<path class="icon_x002D_vs_x002D_out" d="M16,3.556V12c0,0.97-0.701,2-2,2H6.934c-0.307,1.169-1.68,2-3.434,2
		C1.505,16,0,14.926,0,13.5v-3C0,9.074,1.505,8,3.5,8C3.672,8,3.835,8.019,4,8.034V2c0-1.299,1.03-2,2-2h6.061L16,3.556z"/>
</g>
<g id="iconBg">
	<path class="icon_x002D_vs_x002D_bg" d="M10,5H7V4h3V5z M7,7h6V6H7V7z M7,9h6V8H7V9z M7,11h6v-1H7V11z M11.641,1H5.964
		C5.964,1,5,1,5,2c0,0.523,0,3.505,0,6.232c0.375,0.121,0.716,0.282,1,0.485V2h5v3h3v7H7v1c1.984,0,6.205,0,6.965,0
		c1,0,1.035-1,1.035-1V4L11.641,1z"/>
</g>
<g id="iconFg">
	<path class="icon_x002D_vs_x002D_fg" d="M5.425,10.5c0,0.428-0.841,0.926-1.925,0.926S1.575,10.928,1.575,10.5
		S2.416,9.576,3.5,9.576S5.425,10.072,5.425,10.5z M14,5v7H7v-1h6v-1H7v0.5c0-0.712-0.375-1.336-1-1.783V2h5v3H14z M7,5h3V4H7V5z
		 M13,8H7v1h6V8z M13,6H7v1h6V6z"/>
</g>
<g id="colorImportance">
	<path class="icon_x002D_vs_x002D_blue" d="M3.5,9C2.119,9,1,9.672,1,10.5v3C1,14.328,2.119,15,3.5,15S6,14.328,6,13.5v-3
		C6,9.672,4.881,9,3.5,9z M3.5,11.426c-1.084,0-1.925-0.498-1.925-0.926S2.416,9.576,3.5,9.576s1.925,0.496,1.925,0.924
		S4.584,11.426,3.5,11.426z"/>
</g>
</svg>
