<svg xmlns="http://www.w3.org/2000/svg" viewBox="0 0 16 16"><style>.st0{opacity:0}.st0,.st1{fill:#f6f6f6}.st2{fill:#424242}.st3{fill:none}.st4{fill:#f0eff1}.st5{fill:#fc0}.st6{fill:none;stroke:#ccc;stroke-miterlimit:10}</style><g id="outline"><path class="st0" d="M0 0h16v16H0z"/><path class="st1" d="M15.973 13.995L15.002 16H0V8h3V0h10v8.002l2.973 5.993z"/></g><g id="icon_x5F_bg"><path class="st2" d="M4 1v7h1V7h6v.016h1V1H4zm7 5H5V3h6v3zM6.97 14.025L6.982 14h-.829v-3.001a.925.925 0 0 1-.165.116c-.064.037-.131.07-.203.102-.038.016-.079.026-.119.039v-.772c.097-.04.2-.069.291-.117.195-.1.372-.211.529-.332H7v3.93l1-1.989V9H1v6h6.48l-.51-.975zm-2.365-.56c-.262.348-.639.522-1.129.522C2.492 13.986 2 13.34 2 12.053c0-.668.133-1.177.399-1.527.267-.35.653-.526 1.159-.526C4.52 10 5 10.654 5 11.965c0 .652-.131 1.152-.395 1.5z"/><path class="st2" d="M3.518 10.648c-.395 0-.592.461-.592 1.383 0 .869.193 1.305.58 1.305.377 0 .565-.449.565-1.344 0-.896-.184-1.344-.553-1.344z"/></g><g id="icon_x5F_fg"><path class="st3" d="M3 12h1v1H3z"/><path class="st4" d="M5 3h6v3H5zM5 7v1h4.998l.495-.984H11V7zM3.558 10c-.506 0-.892.176-1.158.525-.267.351-.4.86-.4 1.528 0 1.287.492 1.934 1.477 1.934.49 0 .867-.174 1.129-.522.263-.348.394-.848.394-1.5C5 10.654 4.52 10 3.558 10zm-.052 3.336c-.387 0-.58-.436-.58-1.305 0-.922.197-1.383.592-1.383.369 0 .554.447.554 1.344-.001.895-.189 1.344-.566 1.344zM5.957 10.367c-.091.048-.194.077-.291.117v.772c.04-.013.081-.024.119-.039.072-.031.139-.064.203-.102a.925.925 0 0 0 .165-.116V14H7v-3.965h-.514a3.353 3.353 0 0 1-.529.332z"/></g><path class="st5" d="M11.891 8.016h-.781l-3.016 6 .515.984h5.766l.484-1-2.968-5.984zM12 14h-1v-1h1v1zm0-2h-1v-2h1v2z" id="not_x5F_bg"/><path d="M12 12h-1v-2h1v2zm0 1h-1v1h1v-1z" id="not_x5F_fg"/></svg>