<svg xmlns="http://www.w3.org/2000/svg" viewBox="0 0 16 16"><style>.st0{opacity:0}.st0,.st1{fill:#f6f6f6}.st2{fill:#424242}.st3{fill:#388a34}.st4{fill:#f0eff1}</style><g id="outline"><path class="st0" d="M0 0h16v16H0z"/><path class="st1" d="M16 4v11h-2v1H2V6H0V2h2V0h4v2h2v2h8z"/></g><g id="icon_x5F_bg"><path class="st2" d="M14 13h1v1h-1zM12 5h1v1h-1zM8 5h1v1H8zM10 5h1v1h-1zM14 7h1v1h-1zM14 5h1v1h-1zM14 11h1v1h-1zM14 9h1v1h-1zM6 7v1H3v7h10V7H6zm6 7H4V9h8v5z"/></g><path class="st3" d="M7 3v2H5v2H3V5H1V3h2V1h2v2h2z" id="color_x5F_action"/><path class="st4" d="M12 9v5H4V9h8z" id="icon_x5F_fg"/></svg>