<svg xmlns="http://www.w3.org/2000/svg" viewBox="0 0 16 16"><style>.st0{opacity:0}.st0,.st1{fill:#f6f6f6}.st2{fill:#424242}.st3{fill:none}.st4{fill:#f0eff1}.st5{fill:#e51400}.st6{fill:#fff}</style><g id="outline"><path class="st0" d="M0 0h16v16H0z"/><path class="st1" d="M13 7.275V0H3v8H0v8h9v-.76a4.5 4.5 0 0 0 7-3.74c0-1.957-1.256-3.604-3-4.225z"/></g><g id="icon_x5F_bg"><path class="st2" d="M4 1v7h1V7h6v.05c.166-.018.329-.05.5-.05s.334.032.5.05V1H4zm7 5H5V3h6v3zM3.518 10.648c-.395 0-.592.461-.592 1.383 0 .869.193 1.305.58 1.305.377 0 .565-.449.565-1.344 0-.896-.184-1.344-.553-1.344z"/><path class="st2" d="M7 11.5V14h-.847v-3.001a.925.925 0 0 1-.165.116c-.064.037-.131.07-.203.102-.038.016-.079.026-.119.039v-.772c.097-.04.2-.069.291-.117.195-.1.372-.211.529-.332H7V11.5c0-.926.281-1.785.76-2.5H1v6h7v-.703A4.462 4.462 0 0 1 7 11.5zm-2.395 1.965c-.262.348-.639.522-1.129.522C2.492 13.986 2 13.34 2 12.053c0-.668.133-1.177.399-1.527.267-.35.653-.526 1.159-.526C4.52 10 5 10.654 5 11.965c0 .652-.131 1.152-.395 1.5z"/></g><g id="icon_x5F_fg"><path class="st3" d="M3 12h1v1H3z"/><path class="st4" d="M5 3h6v3H5zM5 7v1h3.75c.637-.502 1.396-.854 2.25-.95V7H5z"/><g><path class="st4" d="M3.558 10c-.506 0-.892.176-1.158.525-.267.351-.4.86-.4 1.528 0 1.287.492 1.934 1.477 1.934.49 0 .867-.174 1.129-.522.263-.348.394-.848.394-1.5C5 10.654 4.52 10 3.558 10zm-.052 3.336c-.387 0-.58-.436-.58-1.305 0-.922.197-1.383.592-1.383.369 0 .554.447.554 1.344-.001.895-.189 1.344-.566 1.344zM5.957 10.367c-.091.048-.194.077-.291.117v.772c.04-.013.081-.024.119-.039.072-.031.139-.064.203-.102a.925.925 0 0 0 .165-.116V14H7v-3.965h-.514a3.353 3.353 0 0 1-.529.332z"/></g></g><path class="st5" d="M11.5 8a3.5 3.5 0 1 0 0 7 3.5 3.5 0 0 0 0-7zm1.854 4.646l-.707.707-1.147-1.146-1.146 1.147-.707-.707 1.147-1.146-1.147-1.146.707-.707 1.146 1.147 1.146-1.147.707.707-1.146 1.145 1.147 1.146z" id="not_x5F_bg"/><path class="st6" d="M12.207 11.5l1.147 1.146-.707.707-1.147-1.146-1.146 1.147-.707-.707 1.147-1.146-1.147-1.146.707-.707 1.146 1.147 1.146-1.147.707.707-1.146 1.145z" id="not_x5F_fg"/></svg>