<svg xmlns="http://www.w3.org/2000/svg" viewBox="0 0 16 16"><style>.st0{opacity:0}.st0,.st1{fill:#f6f6f6}.st2{fill:#424242}.st3{fill:#f0eff1}</style><g id="outline"><path class="st0" d="M0 0h16v16H0z"/><path class="st1" d="M12.203 10.5l-.287.504c-.29.507-.664.915-1.11 1.213-.032.022-.066.037-.1.056l3.804-7.606h-1.538l.899-.75L9.17 0H7.808v2.406c-.043.007-.085.018-.129.025A4 4 0 0 0 0 4c0 1.549.89 2.876 2.177 3.541a6.804 6.804 0 0 0-.202 1.625c0 3.447 2.565 6.307 5.888 6.769V16h1c.046 0 .091-.003.139-.008 3.873-.029 6.064-3.838 6.156-4.001L16 10.5h-3.797zM5.142 9.166c0-.125.019-.246.031-.368l1.748 3.496a3.658 3.658 0 0 1-1.779-3.128zm2.666-.999H5.292a3.78 3.78 0 0 1 .16-.448 4.007 4.007 0 0 0 2.15-2.007c.068-.024.135-.053.206-.073v2.528zm.966 0h-.003l.006-.005-.003.005z"/></g><g id="icon_x5F_bg"><path class="st2" d="M8.225 12.666l-1.75-3.5h1.75l.583 1.168 2.334-4.667h1.75l-3.499 6.999zM8 4c0 .199-.031.39-.059.581.264-.046.531-.081.807-.081v2.333l3.5-2.916L8.748 1v2.333c-.275 0-.544.025-.809.063.03.198.061.397.061.604z"/><path class="st2" d="M12.723 11.5a4.546 4.546 0 0 1-1.423 1.549c-.142.095-.292.171-.439.249-.082.043-.164.088-.249.125-.12.055-.243.098-.366.142-.074.026-.147.057-.224.079a4.474 4.474 0 0 1-.608.136l-.008.002c-.219.032-.439.05-.658.051a4.666 4.666 0 0 1-4.666-4.667c0-.415.071-.809.173-1.192C4.169 7.98 4.087 8 4 8a3.92 3.92 0 0 1-.938-.123 5.828 5.828 0 0 0-.148 1.289A5.833 5.833 0 0 0 8.748 15c.018 0 .037-.003.055-.004V15c.031 0 .061-.008.094-.008 3.361 0 5.33-3.492 5.33-3.492h-1.504zM4 1a3 3 0 1 0 0 6 3 3 0 0 0 0-6zm0 5a1.994 1.994 0 1 1-1-3.723V5h2V4H4V2a2 2 0 0 1 0 4z"/></g><path class="st3" d="M4 2v2h1v1H3V2.277A1.994 1.994 0 0 0 4 6a2 2 0 0 0 0-4z" id="icon_x5F_fg"/></svg>