<svg xmlns="http://www.w3.org/2000/svg" viewBox="0 0 16 16"><style>.icon-canvas-transparent{opacity:0;fill:#f6f6f6}.icon-vs-out{fill:#f6f6f6}.icon-folder{fill:#dcb67a}.icon-vs-action-red{fill:#a1260d}</style><path class="icon-canvas-transparent" d="M16 16H0V0h16v16z" id="canvas"/><path class="icon-vs-out" d="M16 6.5v7c0 .827-.673 1.5-1.5 1.5h-11c-.827 0-1.5-.673-1.5-1.5V8.475l-2-2v-.95L1.495 4.03 0 2.535v-.949L1.586 0h.828L3.97 1.556 5.525 0h.828l2.061 2.061L7.475 3h3.144l1 2H14.5c.827 0 1.5.673 1.5 1.5z" id="outline"/><path class="icon-folder" d="M15 6.5v7a.5.5 0 0 1-.5.5h-11a.5.5 0 0 1-.5-.5V7.475l.97-.97 1.97 1.97L8.414 6H9.5L9 5H7.414l-.97-.97.031-.03H10l1 2h3.5a.5.5 0 0 1 .5.5z" id="iconBg"/><path class="icon-vs-action-red" d="M5.03 4.03L7 6 5.939 7.061l-1.97-1.97L2 7.061.939 6l1.97-1.97-1.97-1.97L2 1l1.97 1.97L5.939 1 7 2.06 5.03 4.03z" id="colorAction"/></svg>