<svg xmlns="http://www.w3.org/2000/svg" viewBox="0 0 16 16"><style>.icon-canvas-transparent{opacity:0;fill:#f6f6f6}.icon-vs-out{fill:#f6f6f6}.icon-vs-bg{fill:#424242}.icon-vs-fg{fill:#f0eff1}.icon-vs-action-red{fill:#a1260d}</style><path class="icon-canvas-transparent" d="M16 16H0V0h16v16z" id="canvas"/><path class="icon-vs-out" d="M14.414 9L8 2.586l.475-.525L6.414 0h-.828L4.03 1.556 2.475 0h-.829L0 1.646v.828L1.556 4.03 0 5.586v.828l2.061 2.061L1.586 9H0v2.303l1.015 1.522A3.505 3.505 0 0 0 4.5 16a3.505 3.505 0 0 0 3.461-2.979.23.23 0 0 0 .028-.017.404.404 0 0 1 .05.022A3.507 3.507 0 0 0 11.5 16c1.82 0 3.32-1.396 3.485-3.175L16 11.303V9h-1.586zM8.586 9l-.293.293c-.143.143-.268.189-.282.203a1.095 1.095 0 0 1-.304-.203L7.414 9H6l1.474-1.965-.019-.016.605-.605L10 9H8.586z" id="outline"/><path class="icon-vs-bg" d="M14 10L9 5v1l3 4H9c-.5.5-1 .5-1 .5-.5 0-1-.5-1-.5H4l1.511-2.014-.748-.749L2 10H1v1l1 1.5a2.5 2.5 0 1 0 5 0c.5-.5 1-.5 1-.5.5 0 1 .5 1 .5a2.5 2.5 0 1 0 5 0l1-1.5v-1h-1zm-9.5 4a1.5 1.5 0 1 1 .001-3.001A1.5 1.5 0 0 1 4.5 14zm7 0a1.5 1.5 0 1 1 .001-3.001A1.5 1.5 0 0 1 11.5 14z" id="iconBg"/><path class="icon-vs-fg" d="M6 12.5a1.5 1.5 0 1 1-3.001-.001A1.5 1.5 0 0 1 6 12.5zm5.5-1.5a1.5 1.5 0 1 0 .001 3.001A1.5 1.5 0 0 0 11.5 11z" id="iconFg"/><g id="colorAction"><path class="icon-vs-action-red" d="M5.091 4.03L7.061 6 6 7.061l-1.97-1.97-1.97 1.97L1 6l1.97-1.97L1 2.06 2.061 1l1.97 1.97L6 1l1.061 1.06-1.97 1.97z"/></g></svg>