<svg xmlns="http://www.w3.org/2000/svg" viewBox="0 0 16 16"><style>.icon-canvas-transparent{opacity:0;fill:#f6f6f6}.icon-vs-out{fill:#f6f6f6}.icon-vs-bg{fill:#424242}.icon-vs-action-red{fill:#a1260d}</style><path class="icon-canvas-transparent" d="M0 0h16v16H0V0z" id="canvas"/><path class="icon-vs-out" d="M16.118 11.229l-.538.871c-.417.674-.838 1.153-1.285 1.464-.415.292-.856.441-1.308.441-.449 0-.846-.113-1.179-.337-.313-.21-.573-.52-.776-.92a3.285 3.285 0 0 1-.062-.128c-.163.186-.302.339-.395.435-.358.365-.653.596-.933.729a2.253 2.253 0 0 1-.98.221c-.599 0-.979-.257-1.192-.472-.302-.291-.469-.697-.469-1.16a1.655 1.655 0 0 1 1.682-1.683c.237 0 .483.056.733.166a1.69 1.69 0 0 0 .056-.059c.057-.063.339-.396.596-.716a16.993 16.993 0 0 0-.405-1.279c-.151.093-.3.162-.467.196l-1.198.241v-.393h-.171l-.493 1.946c-.34 1.357-.674 2.337-1.021 2.992-.383.72-.851 1.269-1.391 1.633A3.438 3.438 0 0 1 2.964 16c-.567 0-1.025-.14-1.363-.416A1.553 1.553 0 0 1 1 14.363c0-.443.186-.854.522-1.158.215-.195.597-.432 1.179-.432.198 0 .371.029.519.075l.153-.583.874-3.42h-.845l.653-2.316-.025-.024-1.97 1.97L0 6.414v-.828L1.556 4.03 0 2.475v-.829L1.646 0h.828L4.03 1.556 5.586 0h.828l2.061 2.061-1.97 1.97.093.093.081-.059.097-.072a3.599 3.599 0 0 1 2.143-.683c.616 0 1.108.153 1.463.456.39.328.606.798.606 1.321 0 .406-.118.712-.259.933h1.301l.295.463c.084.132.163.266.237.404.268-.286.503-.48.731-.606a2.134 2.134 0 0 1 1.022-.261c.611 0 .994.257 1.207.473.213.22.46.596.46 1.176a1.594 1.594 0 0 1-1.603 1.638c-.211 0-.435-.033-.682-.101a2.948 2.948 0 0 0-.215.3c.134.431.272.817.393 1.125l.36-.506 1.883 1.104z" id="outline"/><path class="icon-vs-bg" d="M7.33 4.825a2.647 2.647 0 0 1 1.589-.515c.373 0 .646.073.815.217a.698.698 0 0 1 .255.561c0 .203-.058.364-.171.482a.55.55 0 0 1-.42.178.532.532 0 0 1-.385-.146.463.463 0 0 1-.153-.351c0-.097.032-.201.096-.309.064-.11.097-.184.097-.223a.137.137 0 0 0-.043-.105.162.162 0 0 0-.114-.04c-.231 0-.467.142-.708.426-.105.12-.203.26-.297.417l-.578-.578.017-.014zM4.865 7.34l-.142.506h.648l-.506-.506zm8.283 1.007a.749.749 0 0 1 .468-.175c.063 0 .175.022.336.066.162.045.306.068.429.068.172 0 .316-.06.432-.178a.635.635 0 0 0 .172-.459.651.651 0 0 0-.172-.473c-.115-.117-.28-.175-.495-.175-.19 0-.371.046-.541.137-.168.092-.383.29-.644.593-.194.226-.483.622-.866 1.187a5.855 5.855 0 0 0-.783-1.917H8.998v.998c.152-.032.685-.473.789-.473.203 0 .37.087.503.263.211.272.503 1.102.877 2.49a24.437 24.437 0 0 1-.957 1.175c-.179.194-.327.321-.444.38a.641.641 0 0 1-.305.07c-.084 0-.225-.047-.418-.141a.868.868 0 0 0-.358-.093.662.662 0 0 0-.49.193.662.662 0 0 0-.192.49c0 .188.058.34.179.456.117.118.278.176.482.176.192 0 .377-.04.548-.122.171-.082.386-.258.647-.523.259-.268.971-1.094 1.427-1.674.175.553.511 1.357.64 1.609.128.252.276.432.441.543.166.111.373.167.622.167.242 0 .487-.087.737-.263.326-.227.663-.616 1.005-1.169l-.21-.123c-.233.327-.408.532-.52.614a.45.45 0 0 1-.263.075c-.121 0-.239-.075-.356-.227-.199-.257-.648-1.373-.979-2.543.292-.522.541-.863.745-1.022zM7.312 7.163L6 8.475l-.498-.499-1.16 4.539c-.198.768-.332 1.241-.402 1.42a1.688 1.688 0 0 1-.463.666.423.423 0 0 1-.297.111.133.133 0 0 1-.083-.029l-.028-.04c0-.021.028-.06.087-.12s.088-.152.088-.277a.45.45 0 0 0-.14-.34c-.094-.09-.228-.133-.402-.133-.212 0-.38.057-.509.174a.542.542 0 0 0-.193.416c0 .171.077.32.233.446.156.127.399.191.731.191.526 0 .992-.138 1.399-.412.408-.275.762-.699 1.066-1.271.303-.572.616-1.496.936-2.77l.684-2.701h.825l.204-.683h-.766z" id="iconBg"/><g id="colorAction"><path class="icon-vs-action-red" d="M5.091 4.03L7.061 6 6 7.061l-1.97-1.97-1.97 1.97L1 6l1.97-1.97L1 2.06 2.061 1l1.97 1.97L6 1l1.061 1.06-1.97 1.97z"/></g></svg>