<svg xmlns="http://www.w3.org/2000/svg" viewBox="0 0 16 16"><style>.icon-canvas-transparent{opacity:0;fill:#f6f6f6}.icon-vs-out{fill:#f6f6f6}.icon-vs-bg{fill:#424242}.icon-vs-fg{fill:#f0eff1}</style><path class="icon-canvas-transparent" d="M16 16H0V0h16v16z" id="canvas"/><path class="icon-vs-out" d="M16 8v6H5v-4l.232-.232L3.97 8.505 2 10.475l-2-2v-.95L1.495 6.03 0 4.535v-.949l2-2 1.97 1.97 1.97-1.97 2.475 2.475-1.97 1.97L8.414 8H16z" id="outline"/><path class="icon-vs-bg" d="M7.414 9L6 10.414V13h9V9H7.414zM14 12H7v-2h7v2zM5.03 6.03L7 8 5.939 9.061l-1.97-1.97L2 9.061.939 8l1.97-1.97-1.97-1.97L2 3l1.97 1.97L5.939 3 7 4.061 5.03 6.03z" id="iconBg"/><g id="iconFg"><path class="icon-vs-fg" d="M14 10v2H7v-1.961L14 10z"/></g></svg>