<svg xmlns="http://www.w3.org/2000/svg" viewBox="0 0 16 16"><style>.icon-canvas-transparent{opacity:0;fill:#f6f6f6}.icon-vs-out{fill:#f6f6f6}.icon-vs-fg{fill:#f0eff1}.icon-vs-action-purple{fill:#652d90}</style><path class="icon-canvas-transparent" d="M16 16H0V0h16v16z" id="canvas"/><path class="icon-vs-out" d="M2.25 13A2.253 2.253 0 0 1 0 10.75v-5.5A2.252 2.252 0 0 1 2.25 3h.764c.125-1.124 1.08-2 2.236-2h1.5c1.156 0 2.111.876 2.236 2h.764C10.99 3 12 4.009 12 5.25v5.5C12 11.99 10.99 13 9.75 13h-7.5z" id="outline"/><path class="icon-vs-action-purple" d="M9.75 4H8v-.75C8 2.561 7.439 2 6.75 2h-1.5C4.561 2 4 2.561 4 3.25V4H2.25C1.561 4 1 4.561 1 5.25v5.5c0 .689.561 1.25 1.25 1.25h7.5c.689 0 1.25-.561 1.25-1.25v-5.5C11 4.561 10.439 4 9.75 4zM3 11H2V5h1v6zm4-7H5v-.75A.25.25 0 0 1 5.25 3h1.5a.25.25 0 0 1 .25.25V4zm3 7H9V5h1v6z" id="iconBg"/><g id="iconFg"><path class="icon-vs-fg" d="M3 11H2V5h1v6zm7 0H9V5h1v6z"/></g></svg>