<svg xmlns="http://www.w3.org/2000/svg" viewBox="0 0 16 16"><style>.icon-canvas-transparent{opacity:0;fill:#f6f6f6}.icon-vs-out{fill:#f6f6f6}.icon-vs-bg{fill:#424242}.icon-vs-fg{fill:#f0eff1}.icon-vs-action-red{fill:#a1260d}</style><path class="icon-canvas-transparent" d="M16 16H0V0h16v16z" id="canvas"/><path class="icon-vs-out" d="M1 0v8h.586L0 9.586v.949l1.495 1.495L0 13.525v.949L1.525 16h.949l1.495-1.495L5.465 16h.949l2-2-1.97-1.97.031-.03H12V8h4V0H1zm4 8.525l-1.03 1.03L2.414 8H5v.525z" id="outline"/><path class="icon-vs-bg" d="M2 1v6h4v.646l1 1V2h3v8H8.354l.061.061-.94.939H11V7h4V1H2zm4 5H3V2h3v4zm8 0h-3V2h3v4z" id="iconBg"/><path class="icon-vs-fg" d="M14 2v4h-3V2h3zM3 6h3V2H3v4zm4 2v.646L8.354 10H10V2H7v6z" id="iconFg"/><g id="colorAction"><path class="icon-vs-action-red" d="M5.03 12.03L7 14l-1.061 1.061-1.97-1.97L2 15.061.939 14l1.97-1.97-1.97-1.97L2 9l1.97 1.97L5.939 9 7 10.061 5.03 12.03z"/></g></svg>