<svg xmlns="http://www.w3.org/2000/svg" viewBox="0 0 16 16"><style>.icon-canvas-transparent{opacity:0;fill:#f6f6f6}.icon-vs-out{fill:#f6f6f6}.icon-vs-bg{fill:#424242}.icon-vs-fg{fill:#f0eff1}.icon-vs-action-red{fill:#a1260d}</style><path class="icon-canvas-transparent" d="M16 16H0V0h16v16z" id="canvas"/><path class="icon-vs-out" d="M16 5.586L14.444 4.03 16 2.475v-.829L14.354 0h-.828L11.97 1.556 10.414 0h-.828L8 1.586V1H0v15h8v-4h4V6.535l1.939 1.939L16 6.414v-.828zM8.525 5H8V2.535L9.495 4.03l-.97.97z" id="outline"/><path class="icon-vs-bg" d="M10 8.475V10H2V7h6.525l-1-1H7V2H1v13h6v-4h4V7.475l-1 1zM2 3h4v3H2V3zm4 11H2v-3h4v3z" id="iconBg"/><path class="icon-vs-fg" d="M2 3h4v3H2V3zm4 11v-3H2v3h4zm2.525-7H2v3h8V8.475L8.525 7z" id="iconFg"/><g id="colorAction"><path class="icon-vs-action-red" d="M13.03 4.03L15 6l-1.061 1.061-1.97-1.97L10 7.061 8.939 6l1.97-1.97-1.97-1.97L10 1l1.97 1.97L13.939 1 15 2.06l-1.97 1.97z"/></g></svg>