<svg xmlns="http://www.w3.org/2000/svg" viewBox="0 0 16 16"><style>.icon-canvas-transparent{opacity:0;fill:#f6f6f6}.icon-vs-out{fill:#f6f6f6}.icon-vs-bg{fill:#424242}.icon-vs-fg{fill:#f0eff1}.icon-vs-action-red{fill:#a1260d}</style><path class="icon-canvas-transparent" d="M16 16H0V0h16v16z" id="canvas"/><path class="icon-vs-out" d="M6.475 4l1.939-1.939L6.354 0h-.829L3.97 1.556 2.414 0h-.828L0 1.586v.949L1.465 4H1v.525l-1 1v.949l1 1V15h15V4H6.475z" id="outline"/><path class="icon-vs-bg" d="M9.5 11.5l2-2-2-2 1-1 3 3-3 3-1-1zM9 5H7.414l1 1H14v7H3V7.475l-1 1V14h13V5H9zm-1.5 6.5l-2-2 2-2-.293-.293-1.268 1.268-.707-.707L3.5 9.5l3 3 1-1z" id="iconBg"/><path class="icon-vs-fg" d="M8.414 6L7.207 7.207 7.5 7.5l-2 2 2 2-1 1-3-3 1.732-1.732L3.97 6.505l-.97.97V13h11V6H8.414zm2.086 6.5l-1-1 2-2-2-2 1-1 3 3-3 3z" id="iconFg"/><g id="colorAction"><path class="icon-vs-action-red" d="M5.03 4.03L7 6 5.939 7.061l-1.97-1.97L2 7.061.939 6l1.97-1.97-1.97-1.97L2 1l1.97 1.97L5.939 1 7 2.06 5.03 4.03z"/></g></svg>