<svg xmlns="http://www.w3.org/2000/svg" viewBox="0 0 16 16"><style>.icon-canvas-transparent{opacity:0;fill:#f6f6f6}.icon-vs-out{fill:#f6f6f6}.icon-vs-bg{fill:#424242}.icon-vs-fg{fill:#f0eff1}.icon-vs-action-red{fill:#a1260d}</style><path class="icon-canvas-transparent" d="M16 16H0V0h16v16z" id="canvas"/><path class="icon-vs-out" d="M16 1v14H1V8.061l.293-.293L0 6.475v-.95L1.495 4.03 0 2.535v-.949L1.586 0h.828L3.97 1.556 5.525 0h.828l1.025 1.025L8.354 1H16z" id="outline"/><path class="icon-vs-bg" d="M8.354 2l.061.061-1.97 1.97L8.414 6 6 8.414V10H3V8h2.465l-1-1h-.99L2 8.475V14h13V2H8.354zM6 13H3v-2h3v2zm8 0h-3v-2h3v2zm0-3h-3V8h3v2zm0-3h-3V5h3v2z" id="iconBg"/><path class="icon-vs-fg" d="M14 5v2h-3V5h3zM3 13h3v-2H3v2zm.97-6.495L3.475 7h.99l-.495-.495zm1.969 1.97L5.465 8H3v2h3V8.414l-.061.061zM11 10h3V8h-3v2zm0 3h3v-2h-3v2z" id="iconFg"/><g id="colorAction"><path class="icon-vs-action-red" d="M5.03 4.03L7 6 5.939 7.061l-1.97-1.97L2 7.061.939 6l1.97-1.97-1.97-1.97L2 1l1.97 1.97L5.939 1 7 2.06 5.03 4.03z"/></g></svg>