<svg xmlns="http://www.w3.org/2000/svg" viewBox="0 0 16 16"><style>.icon-canvas-transparent{opacity:0;fill:#f6f6f6}.icon-vs-out{fill:#f6f6f6}.icon-vs-bg{fill:#424242}.icon-vs-fg{fill:#f0eff1}.icon-vs-action-red{fill:#a1260d}</style><path class="icon-canvas-transparent" d="M16 16H0V0h16v16z" id="canvas"/><path class="icon-vs-out" d="M16 2v14H1V7.475l-1-1v-.95l1-1v-.99l-1-1v-.949L1.586 0h.828L3.97 1.556 5.525 0h.828l2 2H16z" id="outline"/><path class="icon-vs-bg" d="M9.354 3H7.475l-1.03 1.03L8.414 6H10v2H7V7.414L5.939 8.475 5.465 8H3V7.475l-1 1V15h13V3H9.354zM6 14H3v-2h3v2zm0-3H3V9h3v2zm4 3H7v-2h3v2zm0-3H7V9h3v2zm4 3h-3v-2h3v2zm0-3h-3V9h3v2zm0-3.172V8h-3V6h3v1.828z" id="iconBg"/><path class="icon-vs-fg" d="M3 9h3v2H3V9zm4 5h3v-2H7v2zm0-3h3V9H7v2zM3.97 6.505l-.97.97V8h2.465L3.97 6.505zM3 14h3v-2H3v2zm8-3h3V9h-3v2zm0-5v2h3V6h-3zM7 7.414V8h3V6H8.414L7 7.414zM11 14h3v-2h-3v2z" id="iconFg"/><g id="colorAction"><path class="icon-vs-action-red" d="M5.03 4.03L7 6 5.939 7.061l-1.97-1.97L2 7.061.939 6l1.97-1.97-1.97-1.97L2 1l1.97 1.97L5.939 1 7 2.06 5.03 4.03z"/></g></svg>