<svg xmlns="http://www.w3.org/2000/svg" viewBox="0 0 16 16"><style>.icon-canvas-transparent{opacity:0;fill:#f6f6f6}.icon-vs-out{fill:#f6f6f6}.icon-vs-bg{fill:#424242}.icon-vs-action-red{fill:#a1260d}</style><path class="icon-canvas-transparent" d="M16 16H0V0h16v16z" id="canvas"/><path class="icon-vs-out" d="M10.612 0H6.523l.113.282L6.354 0h-.829L3.97 1.556 2.414 0h-.828L0 1.586v.949L1.495 4.03 0 5.525v.949l2 2V16h14V6h-1V4.162l1-2.999V0h-5.388zM3.475 7l.495-.495.495.495h-.99zm3.874-2.065l-.905-.905 1.208-1.208.271.678-.574 1.435zM12 5.808L11.077 3.5l.383-.958.54 1.62v1.646z" id="outline"/><path class="icon-vs-bg" d="M13 7h2v8H3V8h2v5h8V7zM9 6l.5-1.25L10 6h1l-1-2.5L11 1h-1l-.5 1.25L9 1H8l1 2.5L8 6h1zm4 0h1V4l1-3h-1l-.5 1.5L13 1h-1l1 3v2z" id="iconBg"/><g id="colorAction"><path class="icon-vs-action-red" d="M5.03 4.03L7 6 5.939 7.061l-1.97-1.97L2 7.061.939 6l1.97-1.97-1.97-1.97L2 1l1.97 1.97L5.939 1 7 2.06 5.03 4.03z"/></g></svg>