<svg xmlns="http://www.w3.org/2000/svg" viewBox="0 0 16 16"><style>.icon-canvas-transparent{opacity:0;fill:#f6f6f6}.icon-vs-out{fill:#f6f6f6}.icon-vs-bg{fill:#424242}.icon-vs-action-red{fill:#a1260d}</style><path class="icon-canvas-transparent" d="M16 16H0V0h16v16z" id="canvas"/><path class="icon-vs-out" d="M3.97 6.505l.03.03v4.98a4.814 4.814 0 0 0 .133 1.049 4.52 4.52 0 0 0 3.472 3.359c.215.038.442.066.693.077h.378c.254-.01.49-.037.753-.082 1.685-.355 3.034-1.671 3.449-3.399A4.418 4.418 0 0 0 13 11.516V3h-2.043a4.213 4.213 0 0 0-.019-.128l-.038-.176A3.525 3.525 0 0 0 8.181.07a7.553 7.553 0 0 0-.732-.068h-.005s-.452.029-.671.075c-.091.019-.178.05-.266.077L6.354 0h-.829L3.97 1.556 2.414 0h-.828L0 1.586v.949L1.495 4.03 0 5.525v.949l2 2 1.97-1.969zm3.499-3.5c.011-.001.02-.004.031-.004.03 0 .056.005.106.015h-.147l.01-.011z" id="outline"/><path class="icon-vs-bg" d="M7.364 1.011l.136-.01c.006 0 .359.028.518.055.945.2 1.688.934 1.91 1.871.008.043.02.086.027.128.026.147.045.446.045.446v8.015c0 .087-.012.18-.029.276-.004.026-.012.052-.018.079-.02.076-.039.15-.068.221l-.008.016a1.503 1.503 0 0 1-1.686.877 1.501 1.501 0 0 1-1.064-.865c-.004-.014-.012-.027-.016-.041-.025-.059-.041-.122-.059-.184a2.351 2.351 0 0 1-.027-.114 1.686 1.686 0 0 1-.021-.214l-.002-4.153.998-1v5.102l.002.013a.495.495 0 0 0 .457.478c.016.001.023.008.041.008.01 0 .014-.003.021-.004a.497.497 0 0 0 .477-.484v-.014L9 11.51V3.501a1.63 1.63 0 0 0-.027-.273c-.004-.012-.004-.025-.006-.038-.068-.369-.31-.894-.967-1.089v-.455l-.636-.635zM8 4.016H7v.571l1 1V4.016zM11 4v7.516a2.565 2.565 0 0 1-.07.565c-.158.738-.682 1.936-2.43 1.936-.01 0-.016-.003-.023-.003a2.46 2.46 0 0 1-.533-.064c-1.305-.231-1.742-1.219-1.877-1.875l-.023-.117A2.49 2.49 0 0 1 6 11.516V8.414l-.061.061L5 7.535v3.98c0 .183.023.394.06.614.012.065.029.134.045.202a3.493 3.493 0 0 0 2.67 2.606c.203.035.412.065.645.069h.162c.231-.004.438-.034.641-.068a3.5 3.5 0 0 0 2.672-2.607c.016-.068.032-.136.044-.202.035-.199.061-.403.061-.613V4h-1z" id="iconBg"/><g id="colorAction"><path class="icon-vs-action-red" d="M5.03 4.03L7 6 5.939 7.061l-1.97-1.97L2 7.061.939 6l1.97-1.97-1.97-1.97L2 1l1.97 1.97L5.939 1 7 2.06 5.03 4.03z"/></g></svg>