<svg xmlns="http://www.w3.org/2000/svg" viewBox="0 0 16 16"><style>.icon-canvas-transparent{opacity:0;fill:#f6f6f6}.icon-vs-out{fill:#f6f6f6}.icon-vs-bg{fill:#424242}.icon-vs-fg{fill:#f0eff1}</style><path class="icon-canvas-transparent" d="M16 16H0V0h16v16z" id="canvas"/><path class="icon-vs-out" d="M6.354 0H4v1.525l-.03.03L2.414 0h-.828L0 1.586v.949L1.495 4.03 0 5.525v.949l2 2 1.97-1.97.03.031V16h10V0H6.354z" id="outline"/><path class="icon-vs-bg" d="M7.354 1l1.061 1.061-.94.939H12v3H8.414l-1 1H12v3H6V8.414l-.061.061L5 7.535V15h8V1H7.354zM12 14H6v-3h6v3zM5.03 4.03L7 6 5.939 7.061l-1.97-1.97L2 7.061.939 6l1.97-1.97-1.97-1.97L2 1l1.97 1.97L5.939 1 7 2.06 5.03 4.03z" id="iconBg"/><g id="iconFg"><path class="icon-vs-fg" d="M6 11h6v3H6v-3zm0-2.586V10h6V7H7.414L6 8.414zM7.475 3l-1.03 1.03L8.414 6H12V3H7.475z"/></g></svg>