<svg xmlns="http://www.w3.org/2000/svg" viewBox="0 0 16 16"><style>.icon-canvas-transparent{opacity:0;fill:#f6f6f6}.icon-vs-out{fill:#f6f6f6}.icon-vs-bg{fill:#424242}.icon-vs-fg{fill:#f0eff1}</style><path class="icon-canvas-transparent" d="M16 16H0V0h16v16z" id="canvas"/><path class="icon-vs-out" d="M8 5l-.293.293L6.444 4.03l1.97-1.97L6.354 0h-.829L3.97 1.556 2.414 0h-.828L0 1.586v.949L1.495 4.03.232 5.293 0 5.061V16h16V5H8z" id="outline"/><path class="icon-vs-bg" d="M4 11v-1h8v1H4zm4.414-5l-1 1H14v7H2V8.475l-1-1V15h14V6H8.414zm-4.444.505L3.475 7h.99l-.495-.495zM5.03 4.03L7 6 5.939 7.061l-1.97-1.97L2 7.061.939 6l1.97-1.97-1.97-1.97L2 1l1.97 1.97L5.939 1 7 2.06 5.03 4.03z" id="iconBg"/><g id="iconFg"><path class="icon-vs-fg" d="M7.414 7L5.939 8.475 4.465 7h-.99L2 8.475V14h12V7H7.414zM12 11H4v-1h8v1z"/></g></svg>