<svg xmlns="http://www.w3.org/2000/svg" viewBox="0 0 16 16"><style>.icon-canvas-transparent{opacity:0;fill:#f6f6f6}.icon-vs-out{fill:#f6f6f6}.icon-vs-fg{fill:#f0eff1}.icon-vs-blue{fill:#1ba1e2}.icon-vs-action-red{fill:#a1260d}</style><path class="icon-canvas-transparent" d="M16 16H0V0h16v16z" id="canvas"/><path class="icon-vs-out" d="M14 7v6c0 1.71-2.149 3-5 3s-5-1.29-5-3V7c0-.137.036-.268.064-.401l-.094-.094L2 8.475l-2-2v-.95L1.495 4.03 0 2.535v-.949L1.586 0h.828L3.97 1.556 5.525 0h.828l2.061 2.061-1.97 1.97.294.294c.173-.052.348-.103.532-.142.077-.017.157-.03.237-.042l.175-.029c.134-.023.267-.045.404-.06a8.23 8.23 0 0 1 1.827-.001c.138.015.271.037.404.06l.175.029c.08.013.16.026.237.042a6.84 6.84 0 0 1 1.385.457c.188.083.293.13.384.183C13.466 5.375 14 6.149 14 7z" id="outline"/><path class="icon-vs-blue" d="M12 5.689c-.092-.053-.204-.095-.306-.143l-.002-.001a4.863 4.863 0 0 0-.551-.216l-.072-.022a6.077 6.077 0 0 0-.552-.147c-.088-.019-.181-.031-.272-.047-.145-.024-.287-.052-.44-.068C9.545 5.017 9.278 5 9 5s-.545.017-.805.045c-.153.016-.295.044-.44.068l-.194.034.586.586c.056-.008.11-.018.17-.024a7.08 7.08 0 0 1 1.367 0c.128.013.246.033.366.052.078.012.16.021.235.035.164.032.318.07.465.112l.057.015c.163.048.315.102.455.159.668.274 1.063.634 1.063.918 0 .484-1.125 1.188-2.855 1.302-.154.01-.306.023-.47.023s-.316-.013-.471-.023c-.802-.053-1.466-.235-1.956-.461l-.634.634L5 7.535V13c0 1.104 1.791 2 4 2s4-.896 4-2V7c0-.504-.385-.959-1-1.311z" id="iconBg"/><path class="icon-vs-fg" d="M12.325 7c0 .478-1.096 1.172-2.789 1.299l-.002.003c-.154.01-.306.023-.471.023l-.032-.002A.303.303 0 0 1 9 8.325c-.164 0-.316-.013-.471-.023l-.002-.003c-.797-.06-1.455-.247-1.935-.477L8.414 6l-.267-.267c.269-.034.549-.058.853-.058l.032.002.032-.002c.922 0 1.69.173 2.262.407l-.016.019c.64.271 1.015.621 1.015.899z" id="iconFg"/><g id="colorAction"><path class="icon-vs-action-red" d="M5.03 4.03L7 6 5.939 7.061l-1.97-1.97L2 7.061.939 6l1.97-1.97-1.97-1.97L2 1l1.97 1.97L5.939 1 7 2.06 5.03 4.03z"/></g></svg>