<svg xmlns="http://www.w3.org/2000/svg" viewBox="0 0 16 16"><style>.icon-canvas-transparent{opacity:0;fill:#f6f6f6}.icon-vs-out{fill:#f6f6f6}.icon-vs-bg{fill:#424242}.icon-vs-action-red{fill:#a1260d}</style><path class="icon-canvas-transparent" d="M16 16H0V0h16v16z" id="canvas"/><path class="icon-vs-out" d="M16 3v5h-4v4H8v4H0V3h.465L0 2.535v-.949L1.586 0h.828L3.97 1.556 5.525 0h.828l2.061 2.061L7.475 3H16z" id="outline"/><path class="icon-vs-bg" d="M1 12h6v3H1v-3zm9.27-3.989L7.057 8h-.643l-.475.475L5.465 8h-2.99L2 8.475 1.525 8H1v3h10V8h-.739l.009.011zM1.465 4H1v.525l.495-.495-.03-.03zm3 3l-.495-.495L3.475 7h.99zm2.01-3l-.03.03L8.414 6l-1 1H15V4H6.475z" id="iconBg"/><g id="colorAction"><path class="icon-vs-action-red" d="M5.03 4.03L7 6 5.939 7.061l-1.97-1.97L2 7.061.939 6l1.97-1.97-1.97-1.97L2 1l1.97 1.97L5.939 1 7 2.06 5.03 4.03z"/></g></svg>