<svg xmlns="http://www.w3.org/2000/svg" viewBox="0 0 16 16"><style>.icon-canvas-transparent{opacity:0;fill:#f6f6f6}.icon-vs-out{fill:#f6f6f6}.icon-vs-bg{fill:#424242}.icon-vs-fg{fill:#f0eff1}.icon-vs-action-red{fill:#a1260d}</style><path class="icon-canvas-transparent" d="M16 16H0V0h16v16z" id="canvas"/><path class="icon-vs-out" d="M16 3.349v8.403L9.975 16H9.07L8 15.331V16H0V8h1.525L0 6.475v-.95L1.495 4.03 0 2.535v-.949L1.586 0h.828L3.97 1.556 5.525 0h.828l.752.752L8.595 0h1.118L16 3.349z" id="outline"/><path class="icon-vs-bg" d="M4 6.535V8H3v-.525l.97-.97.03.03zM15 3.95v7.284L9.517 15.1 8 14.152v-1.179l1 .625V7.894l-1.591-.889.735-.735 1.343.75 4.228-2.622-4.571-2.435-1.275.643.546-.546-.565-.564L9.157.837 15 3.95zm-1 1.448l-4 2.48v5.658l4-2.82V5.398zM7 9v6H1V9h6zm-1 1.707l-1.122 1.122-.708-.708L5.292 10H2.707l1.122 1.122-.708.708L2 10.708v2.585l1.122-1.122.708.708L2.708 14h2.585l-1.122-1.122.708-.708L6 13.292v-2.585z" id="iconBg"/><path class="icon-vs-fg" d="M14 5.398v5.317l-4 2.82V7.878l4-2.48zM4 8h1.465L4 6.535V8zm2.414 0H8v4.973l1 .625V7.894l-1.591-.889L6.414 8zm2.73-6.037l-1.275.643L6.444 4.03 8.414 6l-.27.27 1.343.75 4.228-2.622-4.571-2.435zM4.17 11.121L5.292 10H2.707l1.122 1.122-.708.708L2 10.708v2.585l1.122-1.122.708.708L2.708 14h2.585l-1.122-1.122.708-.708L6 13.292v-2.585l-1.122 1.122-.708-.708z" id="iconFg"/><g id="colorAction"><path class="icon-vs-action-red" d="M5.03 4.03L7 6 5.939 7.061l-1.97-1.97L2 7.061.939 6l1.97-1.97-1.97-1.97L2 1l1.97 1.97L5.939 1 7 2.06 5.03 4.03z"/></g></svg>