<svg xmlns="http://www.w3.org/2000/svg" viewBox="0 0 16 16"><style>.icon-canvas-transparent{opacity:0;fill:#f6f6f6}.icon-vs-out{fill:#f6f6f6}.icon-vs-bg{fill:#424242}.icon-vs-action-red{fill:#a1260d}</style><path class="icon-canvas-transparent" d="M16 0v16H0V0h16z" id="canvas"/><path class="icon-vs-out" d="M6.36 11.142a4.427 4.427 0 0 1-.918-2.7c0-.145.029-.281.043-.422L3.97 6.505 2 8.475l-2-2v-.95L1.495 4.03 0 2.535v-.949L1.586 0h.828L3.97 1.556 5.525 0h.828l2.061 2.061-1.97 1.97.832.832A4.397 4.397 0 0 1 9.883 4a4.446 4.446 0 0 1 4.44 4.441c0 .991-.33 1.936-.918 2.7a5.64 5.64 0 0 1 2.052 3.749l.121 1.11H4.186l.122-1.109a5.635 5.635 0 0 1 2.052-3.749z" id="outline"/><path class="icon-vs-bg" d="M11.786 11.304A3.439 3.439 0 0 0 9.883 5c-.7 0-1.351.213-1.895.574L8.414 6l-1.92 1.92c-.026.171-.053.343-.053.521 0 1.194.612 2.245 1.538 2.863A4.62 4.62 0 0 0 5.302 15h1.013c.246-1.757 1.744-3.118 3.568-3.118 1.823 0 3.32 1.361 3.567 3.118h1.013a4.621 4.621 0 0 0-2.677-3.696zm-1.903-.422a2.443 2.443 0 0 1-2.441-2.441A2.442 2.442 0 0 1 9.883 6a2.443 2.443 0 0 1 2.44 2.441 2.443 2.443 0 0 1-2.44 2.441z" id="iconBg"/><path class="icon-vs-action-red" d="M5.03 4.03L7 6 5.94 7.06 3.97 5.09 2 7.06.94 6l1.97-1.97L.94 2.06 2 1l1.97 1.97L5.94 1 7 2.06 5.03 4.03z" id="colorAction"/></svg>