<svg xmlns="http://www.w3.org/2000/svg" viewBox="0 0 16 16"><style>.icon-canvas-transparent{opacity:0;fill:#f6f6f6}.icon-vs-out{fill:#f6f6f6}.icon-vs-bg{fill:#424242}.icon-vs-fg{fill:#f0eff1}.icon-vs-action-red{fill:#a1260d}</style><path class="icon-canvas-transparent" d="M16 16H0V0h16v16z" id="canvas"/><path class="icon-vs-out" d="M12.212 0l3.542 1.869v5.513l-4.464 3.273-.266-.168a5.479 5.479 0 0 1-6.304 5.409h-.021l-.111-.022C2.344 15.506.55 13.744.127 11.479l-.033-.083-.001-.121a5.208 5.208 0 0 1-.066-.815c0-1.123.34-2.167.92-3.039l-.933-.932v-.978L1.495 4.03.014 2.549v-.977L1.58.006h.84l1.55 1.55L5.519.007h.841l1.164 1.164L9.839 0h2.373z" id="outline"/><path class="icon-vs-fg" d="M11.201 4.42L8.106 2.655l2.889-1.467 3.07 1.513-2.864 1.719zm2.989 2.179l-2.576 1.856V4.993l2.576-1.567v3.173zm-6.404-3.42l3.209 1.792v3.574l-.024.018v.016l-.01-.008-.008.008v-.017l-.369-.24c-.02-.047-.049-.089-.07-.135a5.529 5.529 0 0 0-.894-1.372c-.029-.033-.064-.06-.094-.092a5.468 5.468 0 0 0-.501-.485 5.773 5.773 0 0 0-.701-.496l-.538-.32V3.179zM4.187 7.018A3.702 3.702 0 0 0 2.494 8.35c.373.105.779.202 1.223.28a8.624 8.624 0 0 1 .47-1.612zM8.58 8.377a3.684 3.684 0 0 0-1.352-1.19l-.285.284c.149.373.287.77.382 1.225a7.321 7.321 0 0 0 1.255-.319zm-3.049 2.997c.374.002.742-.01 1.118-.035.091-.43.139-.836.135-1.208a6.56 6.56 0 0 0-.046-.683c-.324.024-.642.012-.956.012h-.259c-.42 0-.822-.012-1.209-.056a7.713 7.713 0 0 0 .035 1.89c.379.045.772.074 1.182.08zM3.57 10.136c.002-.282.021-.549.049-.811a12.504 12.504 0 0 1-1.478-.345 3.7 3.7 0 0 0-.31 1.48c0 .088.007.174.014.26.5.168 1.097.341 1.788.467a8.401 8.401 0 0 1-.063-1.051zm3.056-1.36c-.061-.275-.151-.51-.236-.752l-.45.45-1.116-1.115c-.16.403-.31.844-.412 1.372.359.041.733.067 1.119.071.366.004.728 0 1.095-.026zm.809.617c.025.24.047.484.05.743.004.352-.034.727-.104 1.119a7.538 7.538 0 0 0 1.831-.555c.004-.08.012-.16.012-.24 0-.518-.107-1.01-.298-1.455a8.293 8.293 0 0 1-1.491.388zm-1.017 4.651a3.702 3.702 0 0 0 2.651-2.525 8.218 8.218 0 0 1-1.856.472c-.175.629-.446 1.316-.795 2.053zm-.636-1.969c-.085 0-.173 0-.259-.002a10.988 10.988 0 0 1-1.045-.059c.154.694.402 1.407.725 2.124.107.01.215.018.324.018.021 0 .041-.003.063-.004.383-.76.674-1.457.87-2.095-.228.012-.454.018-.678.018zm-3.8-.571a3.704 3.704 0 0 0 2.396 2.468c-.283-.693-.5-1.38-.632-2.053a12.894 12.894 0 0 1-1.764-.415zm9.013-10.316L8.106 2.655l3.095 1.765 2.864-1.719-3.07-1.513z" id="iconFg"/><path class="icon-vs-bg" d="M7.812 6.602l-.584.584a3.69 3.69 0 0 1 1.351 1.19 7.097 7.097 0 0 1-1.255.319 7.158 7.158 0 0 0-.381-1.224l-.553.554c.085.242.175.477.236.752-.368.025-.729.029-1.095.025-.386-.004-.76-.03-1.119-.071.102-.528.252-.969.412-1.372l-.854-.854L2 8.475l-.32-.32a4.459 4.459 0 0 0-.653 2.305 4.74 4.74 0 0 0 .067.743 4.49 4.49 0 0 0 3.696 3.691l.013.002a4.143 4.143 0 0 0 1.164.044 4.503 4.503 0 0 0 4.061-4.479c0-.053-.008-.102-.008-.152a4.488 4.488 0 0 0-2.208-3.707zM4.314 9.404c.386.044.789.056 1.209.056h.259c.314 0 .632.012.956-.012.025.219.044.451.046.683.004.372-.044.778-.135 1.208-.376.025-.744.037-1.118.035-.41-.006-.803-.035-1.182-.079a7.722 7.722 0 0 1-.035-1.891zm-.127-2.386c-.186.465-.355 1-.471 1.613-.443-.079-.85-.176-1.222-.281a3.692 3.692 0 0 1 1.693-1.332zM1.83 10.46a3.7 3.7 0 0 1 .31-1.48c.44.13.932.253 1.478.345a8.42 8.42 0 0 0-.048.811c-.004.342.021.694.063 1.051a12.757 12.757 0 0 1-1.788-.467 2.792 2.792 0 0 1-.015-.26zm.152 1.044c.513.157 1.102.31 1.765.415.132.673.349 1.359.632 2.053a3.701 3.701 0 0 1-2.397-2.468zm3.607 2.648c-.021.001-.041.004-.063.004-.109 0-.217-.008-.324-.018-.322-.717-.57-1.43-.725-2.124a11.327 11.327 0 0 0 1.304.061c.224 0 .45-.006.678-.018a13.556 13.556 0 0 1-.87 2.095zm.828-.108c.35-.737.62-1.424.795-2.054a8.165 8.165 0 0 0 1.856-.472 3.7 3.7 0 0 1-2.651 2.526zM9.211 10.7a7.525 7.525 0 0 1-1.831.555c.07-.393.108-.768.104-1.119a7.64 7.64 0 0 0-.049-.743 8.07 8.07 0 0 0 1.489-.388c.191.445.298.937.298 1.455 0 .08-.007.16-.011.24zM11.041.513L8.268 1.915l.146.146-1.247 1.247v1.445l.544.544.075.075.075.075v-2.14l3.059 1.708v3.437l-.452-.294.072.156c.122.279.22.57.294.872l.414.261 3.507-2.571V2.472L11.041.513zm.16 3.907L8.106 2.655l2.889-1.467 3.07 1.513-2.864 1.719zm2.989 2.179l-2.576 1.856V4.993l2.576-1.567v3.173z" id="iconBg"/><g id="colorAction"><path class="icon-vs-action-red" d="M5.03 4.03L7 6 5.939 7.061l-1.97-1.97L2 7.061.939 6l1.97-1.97-1.97-1.97L2 1l1.97 1.97L5.939 1 7 2.06 5.03 4.03z"/></g></svg>