<svg xmlns="http://www.w3.org/2000/svg" viewBox="0 0 16 16"><style>.icon-canvas-transparent{opacity:0;fill:#f6f6f6}.icon-vs-out{fill:#f6f6f6}.icon-vs-bg{fill:#424242}.icon-vs-fg{fill:#f0eff1}.icon-vs-action-red{fill:#a1260d}</style><path class="icon-canvas-transparent" d="M16 16H0V0h16v16z" id="canvas"/><path class="icon-vs-out" d="M16 13.086v.828L13.914 16H9.586l1-1H8.953a5.482 5.482 0 0 1-1.845 1H3.945a5.526 5.526 0 0 1-2.914-2.079 5.321 5.321 0 0 1-.241-.385 5.483 5.483 0 0 1-.456-.979 6.495 6.495 0 0 1-.191-.712l-.042-.084-.001-.165a5.173 5.173 0 0 1-.066-.815c0-1.204.394-2.315 1.052-3.222L0 6.475v-.95L1.495 4.03 0 2.535v-.949L1.586 0h.828L3.97 1.556 5.525 0h.828l2.061 2.061-1.97 1.97 1.702 1.702L9.879 4H8.586l3-3H15v3.415l-3 3V6.122l-1.806 1.806c.042.069.092.132.131.204l.057.098c.067.116.133.233.186.357l.022.052.033.104a5.38 5.38 0 0 1 .384 1.997c0 .089-.017.173-.022.261h2.929L16 13.086z" id="outline"/><path class="icon-vs-bg" d="M9.019 6.275L12.293 3H11l1-1h2v2l-1 1V3.708L9.726 6.982a5.556 5.556 0 0 0-.707-.707zM13.5 12H12l1 1h-2.485c-.161.356-.36.69-.589 1H13l-1 1h1.5l1.5-1.5-1.5-1.5zm-3.493-1.26a4.5 4.5 0 0 1-4.5 4.5 4.488 4.488 0 0 1-3.661-1.898 4.343 4.343 0 0 1-.19-.306 4.374 4.374 0 0 1-.374-.798l-.021-.066a4.325 4.325 0 0 1-.16-.646c-.002-.004-.002-.008-.002-.012a4.411 4.411 0 0 1 .699-3.241L2 8.475l1.863-1.863c.053-.022.109-.032.163-.051l.897.897a7.47 7.47 0 0 0-.505 1.596c.359.041.733.067 1.119.071.366.004.728 0 1.095-.025a6.58 6.58 0 0 0-.314-1.004l.536-.536c.189.432.363.907.478 1.458a7.109 7.109 0 0 0 1.254-.319 3.687 3.687 0 0 0-1.581-1.291l.601-.601a4.555 4.555 0 0 1 1.845 1.808c.065.121.142.234.196.361.013.03.019.064.031.094.208.517.329 1.078.329 1.67zm-5.729-.275c-.004.374.023.761.078 1.153.379.043.771.072 1.182.078.374.002.742-.01 1.118-.035.091-.43.139-.836.135-1.207a6.576 6.576 0 0 0-.047-.683c-.324.023-.641.011-.956.011h-.259c-.42 0-.822-.012-1.209-.055-.023.231-.04.491-.042.738zM2.5 8.673c.373.105.78.202 1.223.28a8.546 8.546 0 0 1 .471-1.612A3.7 3.7 0 0 0 2.5 8.673zm-.649 2.369c.5.168 1.097.342 1.788.467a8.572 8.572 0 0 1-.063-1.051c.002-.281.021-.548.049-.81a12.504 12.504 0 0 1-1.478-.345c-.197.454-.31.954-.31 1.479 0 .088.007.174.014.26zm2.534 3.252c-.283-.693-.5-1.379-.632-2.053a13.221 13.221 0 0 1-1.765-.414 3.706 3.706 0 0 0 2.397 2.467zm1.211.182c.383-.76.674-1.457.87-2.096-.228.012-.454.018-.678.018-.085 0-.173 0-.259-.002a10.988 10.988 0 0 1-1.045-.059c.154.695.402 1.408.725 2.125.107.01.215.018.324.018.022 0 .041-.004.063-.004zm3.479-2.635a8.277 8.277 0 0 1-1.856.473 12.992 12.992 0 0 1-.795 2.053 3.703 3.703 0 0 0 2.651-2.526zm.154-1.059c0-.518-.107-1.009-.298-1.455a8.179 8.179 0 0 1-1.489.389c.025.24.047.484.05.742.004.352-.034.727-.104 1.119a7.538 7.538 0 0 0 1.831-.555c.002-.079.01-.16.01-.24z" id="iconBg"/><path class="icon-vs-fg" d="M3.725 8.952c-.443-.079-.85-.175-1.223-.281a3.718 3.718 0 0 1 1.694-1.332c-.186.465-.355 1-.471 1.613zm-.146 1.505c.002-.281.021-.548.049-.81a12.57 12.57 0 0 1-1.479-.345c-.197.454-.31.954-.31 1.479 0 .088.007.174.014.26.5.168 1.097.342 1.788.467a8.386 8.386 0 0 1-.062-1.051zm1.961 1.238c.374.002.742-.01 1.118-.035.091-.43.139-.836.135-1.207a6.56 6.56 0 0 0-.046-.683c-.324.023-.642.011-.956.011h-.259c-.42 0-.822-.012-1.209-.055a7.731 7.731 0 0 0 .035 1.89c.379.044.772.074 1.182.079zm3.393-2.369a8.158 8.158 0 0 1-1.489.389c.025.24.047.484.05.742.004.352-.034.727-.104 1.119a7.538 7.538 0 0 0 1.831-.555c.004-.08.012-.16.012-.24a3.711 3.711 0 0 0-.3-1.455zm-6.942 2.5a3.705 3.705 0 0 0 2.396 2.467c-.283-.693-.5-1.379-.632-2.053a13.051 13.051 0 0 1-1.764-.414zm3.8.571c-.085 0-.173 0-.259-.002a10.988 10.988 0 0 1-1.045-.059c.154.695.402 1.408.725 2.125.107.01.215.018.324.018.021 0 .041-.004.063-.004.383-.76.674-1.457.87-2.096-.228.012-.455.018-.678.018zm.635 1.968a3.702 3.702 0 0 0 2.651-2.525 8.277 8.277 0 0 1-1.856.473c-.174.628-.445 1.316-.795 2.052zm2.163-5.667a3.69 3.69 0 0 0-1.582-1.291l-.152.152c.189.432.364.907.478 1.458a7.128 7.128 0 0 0 1.256-.319zm-1.955.4a6.616 6.616 0 0 0-.314-1.004l-.38.38-1.016-1.015a7.473 7.473 0 0 0-.503 1.594c.359.041.733.067 1.119.071.366.004.727 0 1.094-.026z" id="iconFg"/><g id="colorAction"><path class="icon-vs-action-red" d="M5.03 4.03L7 6 5.939 7.061l-1.97-1.97L2 7.061.939 6l1.97-1.97-1.97-1.97L2 1l1.97 1.97L5.939 1 7 2.06 5.03 4.03z"/></g></svg>