<svg xmlns="http://www.w3.org/2000/svg" viewBox="0 0 16 16"><style>.icon-canvas-transparent{opacity:0;fill:#f6f6f6}.icon-vs-bg{fill:#424242}.icon-vs-action-red{fill:#a1260d}</style><g id="outline"><path class="icon-canvas-transparent" d="M4.657 15.344c-.476-.476-.647-.985-.652-1.462-.002-.035-.009-.075-.009-.107 0-.026.01-.045.01-.07.006-.078.019-.154.034-.23a2.537 2.537 0 0 1 .638-1.312l2.492-2.42a4.88 4.88 0 0 1-.167-1.238c0-.46.09-.894.218-1.312L5.939 8.475l-1.97-1.97L2 8.475l-2-2V16h6.123c-.38-.004-.933-.124-1.466-.656zM6.444 4.03L8.06 5.646a4.505 4.505 0 0 1 2.554-1.538c.095-.021.192-.036.289-.051.095-.013.193-.02.29-.026.115-.009.226-.031.344-.031.161 0 .344.019.531.049.297.03.611.078.932.177v.044c.165.051.3.098.368.13.236.11 1.619.767 2.232 2.231.068.162.27.799.358 1.369h.005l.003.055c.019.144.034.284.034.408V0H6.354l2.061 2.061L6.444 4.03zM11.495 12.997c-.448 0-.856-.041-1.222-.123L7.839 15.32c-.115.116-.719.671-1.594.68H16V8.463c0 .322-.038.635-.103.938a4.5 4.5 0 0 1-4.402 3.596zM6.161 16h.029l-.018-.002-.011.002zM0 2.535v2.99L1.495 4.03zM0 0v1.586L1.586 0zM5.525 0H2.414L3.97 1.556z"/></g><path class="icon-vs-bg" d="M14.987 8.505a3.492 3.492 0 0 1-3.492 3.492c-.513 0-1.063-.063-1.5-.261L7.13 14.615s-.873.873-1.745 0c-.874-.873 0-1.746 0-1.746l2.938-2.851a3.874 3.874 0 0 1-.32-1.513 3.491 3.491 0 0 1 3.492-3.491c.511 0 1.061.071 1.5.27l-2.373 2.35 1.746 1.746 2.346-2.361c.197.436.273.975.273 1.486z" id="iconBg"/><g id="colorAction"><path class="icon-vs-action-red" d="M5.03 4.03L7 6 5.939 7.061l-1.97-1.97L2 7.061.939 6l1.97-1.97-1.97-1.97L2 1l1.97 1.97L5.939 1 7 2.06 5.03 4.03z"/></g></svg>