<svg xmlns="http://www.w3.org/2000/svg" viewBox="0 0 16 16"><style>.icon-canvas-transparent{opacity:0;fill:#f6f6f6}.icon-vs-out{fill:#f6f6f6}.icon-vs-bg{fill:#424242}.icon-vs-action-red{fill:#a1260d}</style><path class="icon-canvas-transparent" d="M16 16H0V0h16v16z" id="canvas"/><path class="icon-vs-out" d="M11 6v.831c-.75-.489-1.627-.755-2.618-.799L8.414 6l-1.97-1.97 1.97-1.97L6.354 0h-.829L3.97 1.556 2.414 0h-.828L0 1.586v.949L1.495 4.03 0 5.525V16h5v-.863c.822.566 1.813.863 2.971.863.994 0 1.817-.143 2.515-.436l.514-.215V16h5V6h-5zm-8 7v-1.678c.019.605.119 1.168.31 1.678H3zm0-2.05V9h.414A5.269 5.269 0 0 0 3 10.95zM13 13h-.754c.466-.609.717-1.358.754-2.228V13zm0-2.611A4.578 4.578 0 0 0 12.741 9H13v1.389z" id="outline"/><path class="icon-vs-bg" d="M15 7v8h-3v-1h2V8h-2V7h3zm-2.984 3.555c0 .771-.199 1.404-.602 1.898-.4.496-.891.742-1.469.742-.746 0-1.123-.348-1.125-1.047h-.025c-.234.699-.693 1.047-1.375 1.047-.436 0-.786-.164-1.053-.488-.268-.326-.4-.766-.4-1.314 0-.73.183-1.336.549-1.818.365-.482.848-.722 1.445-.722.229 0 .43.063.609.185.18.125.293.275.346.449h.016c.01-.09.033-.277.072-.556h.809c-.152 1.708-.229 2.58-.229 2.611 0 .643.168.963.502.963.307 0 .561-.178.76-.537.203-.357.303-.822.303-1.393 0-.842-.271-1.529-.816-2.06-.544-.535-1.3-.802-2.264-.802-.928 0-1.692.324-2.301.969-.608.642-.912 1.449-.912 2.419 0 .955.293 1.725.877 2.311.586.586 1.373.881 2.363.881.783 0 1.451-.133 2.003-.4v.75c-.568.238-1.276.357-2.128.357-1.195 0-2.16-.356-2.89-1.068-.731-.711-1.098-1.644-1.098-2.797 0-1.188.387-2.169 1.16-2.949.774-.781 1.761-1.171 2.964-1.171 1.126 0 2.06.328 2.8.982.739.654 1.109 1.507 1.109 2.558zm-3.191-.061c0-.637-.26-.953-.781-.953-.355 0-.645.174-.863.523-.221.351-.33.787-.33 1.308 0 .348.074.625.221.828a.702.702 0 0 0 .594.303c.355 0 .639-.184.85-.553.205-.364.309-.852.309-1.456zM2 8.475l-1-1V15h3v-1H2V8.475zM4 7h-.525l-1 1H4V7z" id="iconBg"/><g id="colorAction"><path class="icon-vs-action-red" d="M5.03 4.03L7 6 5.939 7.061l-1.97-1.97L2 7.061.939 6l1.97-1.97-1.97-1.97L2 1l1.97 1.97L5.939 1 7 2.06 5.03 4.03z"/></g></svg>