<svg xmlns="http://www.w3.org/2000/svg" viewBox="0 0 16 16"><style>.icon-canvas-transparent{opacity:0;fill:#f6f6f6}.icon-vs-out{fill:#f6f6f6}.icon-vs-bg{fill:#424242}</style><path class="icon-canvas-transparent" d="M16 0v16H0V0h16z" id="canvas"/><path class="icon-vs-out" d="M15.001 9c0 1.913-.894 3.67-2.451 4.818a5.957 5.957 0 0 1-6.905.156A5.997 5.997 0 0 1 3 9l.005-.104a4.988 4.988 0 0 1 .096-.916c.022-.129.052-.267.085-.404.038-.149.082-.281.126-.413L2 8.475l-2-2v-.95L1.495 4.03 0 2.535v-.949L1.586 0h.828L3.97 1.556 5.525 0h.828l2.061 2.061-1.252 1.251c.128-.043.258-.087.396-.122.139-.034.271-.065.408-.089A5.702 5.702 0 0 1 9 2.999l.095.002c.288.005.584.037.923.099.133.022.272.052.413.087.143.037.273.08.404.124a6.012 6.012 0 0 1 3.817 3.737 5.573 5.573 0 0 1 .246.918c.07.376.103.708.103 1.034z" id="outline"/><g id="iconBg"><path class="icon-vs-bg" d="M14.001 9a4.978 4.978 0 0 1-2.045 4.014 4.959 4.959 0 0 1-5.752.132A4.997 4.997 0 0 1 4 9v-.008c0-.286.035-.562.084-.833.02-.118.045-.233.073-.347.03-.117.068-.231.107-.345.053-.163.135-.31.203-.465l1.472 1.472L8.414 6 6.918 4.504c.152-.07.295-.156.455-.211A4.91 4.91 0 0 1 9 3.999L9.009 4c.285 0 .56.035.831.084.119.02.235.045.351.073.114.03.225.067.336.104a4.98 4.98 0 0 1 3.181 3.112 4.76 4.76 0 0 1 .206.762c.051.282.087.568.087.865zM5.03 4.03L7 6 5.939 7.061l-1.97-1.97L2 7.061.939 6l1.97-1.97-1.97-1.97L2 1l1.97 1.97L5.939 1 7 2.06 5.03 4.03z"/></g></svg>