<svg xmlns="http://www.w3.org/2000/svg" viewBox="0 0 16 16"><style>.icon-canvas-transparent{opacity:0;fill:#f6f6f6}.icon-vs-out{fill:#f6f6f6}.icon-vs-bg{fill:#424242}</style><path class="icon-canvas-transparent" d="M16 16H0V0h16v16z" id="canvas"/><path class="icon-vs-out" d="M6.414 8l-.475.475L4 10.414l-1.97-1.97-.03.031-2-2v-.95L1.495 4.03 0 2.535v-.949L1.586 0h.828L3.97 1.556 5.525 0h.828l1.354 1.354.03-.03L10.414 4l-1 1h2.172L13 3.586l3 3v.828L13.914 9.5 16 11.586v.828L12.414 16h-.828l-3-3H7V8h-.586z" id="outline"/><g id="iconBg"><path class="icon-vs-bg" d="M7.707 5.293L6.444 4.03l1.293-1.293L9 4 7.707 5.293zm4.292 5.709L9 11V7h2l-1 1 2 2 3-3-2-2-1 1H8.414l-1 1H8v5h3l-1 1 2 2 3-3-2-2-1.001 1.002zM2.737 7.737L4 9l1.232-1.232L3.97 6.505 2.737 7.737zM7 2.06L5.939 1 3.97 2.97 2 1 .939 2.06l1.97 1.97L.939 6 2 7.061l1.97-1.97 1.97 1.97L7 6 5.03 4.03 7 2.06z"/></g></svg>