<svg xmlns="http://www.w3.org/2000/svg" viewBox="0 0 16 16"><style>.icon-canvas-transparent{opacity:0;fill:#f6f6f6}.icon-vs-out{fill:#f6f6f6}.icon-vs-bg{fill:#424242}.icon-vs-fg{fill:#f0eff1}.icon-vs-action-red{fill:#a1260d}</style><path class="icon-canvas-transparent" d="M16 0v16H0V0h16z" id="canvas"/><path class="icon-vs-out" d="M16 1v15H9v-6H4V6.535l-.03-.03L2 8.475l-2-2v-.95L1.495 4.03 0 2.535v-.949L1.586 0h.828L3.97 1.556 5.525 0h.828l2.061 2.061L6.475 4H9V1h7z" id="outline"/><path class="icon-vs-bg" d="M15 6V2h-5v3H7.414l1 1H9v2H6.414l-.475.475L5 7.535V9h5v6h5V8h-5V6h5zm-4-3h3v2h-3V3zm0 6h3v2h-3V9zm0 3h3v2h-3v-2z" id="iconBg"/><path class="icon-vs-fg" d="M11 12h3v2h-3v-2zm0-9v2h3V3h-3zm0 8h3V9h-3v2zM8.414 6l-2 2H9V6h-.586z" id="iconFg"/><g id="colorAction"><path class="icon-vs-action-red" d="M5.03 4.03L7 6 5.939 7.061l-1.97-1.97L2 7.061.939 6l1.97-1.97-1.97-1.97L2 1l1.97 1.97L5.939 1 7 2.06 5.03 4.03z"/></g></svg>