<svg xmlns="http://www.w3.org/2000/svg" viewBox="0 0 16 16"><style>.icon-canvas-transparent{opacity:0;fill:#f6f6f6}.icon-vs-out{fill:#f6f6f6}.icon-vs-bg{fill:#424242}.icon-vs-yellow{fill:#fc0}</style><path class="icon-canvas-transparent" d="M16 16H0V0h16v16z" id="canvas"/><path class="icon-vs-out" d="M16 0H8v3h2.879L.232 13.646l2.121 2.121L9.86 8.261l-2.89 5.756L8.004 16h6.998l.971-2.013L13.006 8H16V0zm-3.489 7h-1.39L13 5.121v2.866L12.511 7z" id="outline"/><path class="icon-vs-bg" d="M8.354 8.354l-.708-.708 2-2 .707.707-1.999 2.001zm-1 1l-.708-.708-2 2 .707.707 2.001-1.999zm-3 3l-.707-.707-2 2 .707.707 2-2zM14 1H9v1h4.293l-2.647 2.646.707.707L14 2.707V7h1V1h-1z" id="iconBg"/><path class="icon-vs-yellow" d="M11.891 8.016h-.781l-3.016 6 .515.984h5.766l.484-1-2.968-5.984zM12 14h-1v-1h1v1zm0-2h-1v-2h1v2z" id="notificationBg"/><path class="icon-black" d="M12 12h-1v-2h1v2zm0 1h-1v1h1v-1z" id="notificationFg"/></svg>