<svg xmlns="http://www.w3.org/2000/svg" viewBox="0 0 16 16"><style>.st0{opacity:0}.st0,.st1{fill:#f6f6f6}.st2{fill:#424242}.st3{fill:#f0eff1}</style><g id="outline"><path class="st0" d="M0 0h16v16H0z"/><path class="st1" d="M16 16H1V0h15v16z"/></g><g id="icon_x5F_bg"><path class="st2" d="M2 1v14h13V1H2zm12 13H3V3h11v11z"/><path class="st2" d="M12.5 10H11L9.5 7h1l.5-.5v-2l-.5-.5h-4l-.5.5v2l.5.5h1L6 10H4.5l-.5.5v2l.5.5h3l.5-.5v-2l-.5-.5H7l1.5-3 1.5 3h-.5l-.5.5v2l.5.5h3l.5-.5v-2l-.5-.5zM7 12H5v-1h2v1zm1-6H7V5h3v1H8zm4 6h-2v-1h2v1z"/></g><path class="st3" d="M5 11h2v1H5v-1zm5 1h2v-1h-2v1zm0-7H7v1h3V5zm4-2v11H3V3h11zm-1 7.5l-.5-.5H11L9.5 7h1l.5-.5v-2l-.5-.5h-4l-.5.5v2l.5.5h1L6 10H4.5l-.5.5v2l.5.5h3l.5-.5v-2l-.5-.5H7l1.5-3 1.5 3h-.5l-.5.5v2l.5.5h3l.5-.5v-2z" id="icon_x5F_fg"/></svg>