<svg xmlns="http://www.w3.org/2000/svg" viewBox="0 0 16 16"><style>.icon-canvas-transparent{opacity:0;fill:#f6f6f6}.icon-vs-out{fill:#f6f6f6}.icon-vs-bg{fill:#424242}</style><path class="icon-canvas-transparent" d="M16 0v16H0V0h16z" id="canvas"/><path class="icon-vs-out" d="M16 0v8h-3V5.121L2.354 15.768.233 13.647 10.879 3H8V0h8z" id="outline"/><path class="icon-vs-bg" d="M9.646 5.646l.707.707-2 2-.707-.707 2-2zm-5 5l.707.707 2-2-.707-.707-2 2zm-3 3l.707.707 2-2-.707-.707-2 2zM14 1H9v1h4.293l-2.647 2.646.707.707L14 2.707V7h1V1h-1z" id="iconBg"/></svg>