<svg xmlns="http://www.w3.org/2000/svg" viewBox="0 0 16 16"><style>.st0{opacity:0;fill:#424242}.st1{fill:#f6f6f6}.st2{fill:#424242}.st3{fill:#f0eff1}</style><g id="outline"><path class="st0" d="M0 0h16v16H0z"/><path class="st1" d="M1.934 13A1.936 1.936 0 0 1 0 11.066V1.949C0 .875.875 0 1.949 0h6.465L11 2.586v8.436C11 12.112 10.112 13 9.021 13H1.934z"/></g><g id="icon_x5F_bg"><path class="st2" d="M8 1H1.949A.95.95 0 0 0 1 1.949v9.117c0 .516.418.934.934.934h7.087a.979.979 0 0 0 .979-.979V3L8 1zm1 10H2V2h5v2h2v7z"/><path class="st2" d="M3 4h1v1H3zM6 4h1v1H6zM3 7h1v1H3z"/></g><path class="st3" d="M7 4v1H6V4h1V2H2v9h7V4H7zM4 8H3V7h1v1zm0-3H3V4h1v1z" id="icon_x5F_fg"/></svg>