<svg xmlns="http://www.w3.org/2000/svg" viewBox="0 0 16 16"><style>.st0{opacity:0}.st0,.st1{fill:#f6f6f6}.st2{fill:#424242}.st3{fill:#f0eff1}</style><g id="outline"><path class="st0" d="M0 0h16v16H0z"/><path class="st1" d="M1.934 13A1.936 1.936 0 0 1 0 11.066V1.949C0 .875.875 0 1.949 0h6.465L11 2.586v8.436C11 12.112 10.112 13 9.021 13H1.934z"/></g><g id="icon_x5F_bg"><path class="st2" d="M3 4h1.974v2.016H3zM8 4h2.019v2.016H8z"/><path class="st2" d="M2 7.991V2h5v1h3L8 1H1.949A.95.95 0 0 0 1 1.949v9.117c0 .516.418.934.934.934H2V7.991zM9 7.016V11H6.005v1h3.016a.979.979 0 0 0 .979-.979V7.016H9z"/><path class="st2" d="M3 8.991h2.005V11H3z"/></g><path class="st3" d="M8 6.016V4H7V2H2v9h1V8.991h2.005V11H9V6.016H8zm-3.026 0H3V4h1.974v2.016z" id="icon_x5F_fg"/></svg>