<svg xmlns="http://www.w3.org/2000/svg" viewBox="0 0 16 16"><style>.st0{fill:#f6f6f6}.st1{fill:#424242}.st2{fill:#f0eff1}</style><path class="st0" d="M15 9V6.586L11.414 3H7a2.07 2.07 0 0 0-1.219.408L2.418 0h-.832L0 1.586v7.091L.808 9 0 9.323v4.354L5.809 16H7v-2h2v2h4v-3h3V9h-1z" id="outline"/><g id="icon_x5F_bg"><path class="st1" d="M13 10h2v2h-2zM10 10h2v2h-2zM10 13h2v2h-2zM8 8h1v1H8zM10 8h1v1h-1zM8 10h1v1H8z"/><path class="st1" d="M11 4H7S6 4 6 5v7s0 1 1 1h2v-1H7V5h4v2h2v2h1V7l-3-3zM5.101 12.614L5 12.571 2.5 11.5 5 10.429V7.667L3 7V4l2 1.997V4.04L2 1 1 2v6l2.5 1L1 10v3l5 2v-1.258a1.94 1.94 0 0 1-.899-1.128z"/></g><path class="st2" d="M11 7V5H7v7h2v-1H8v-1h1V9H8V8h1v1h1V8h1v1h2V7z" id="icon_x5F_fg"/></svg>