<svg xmlns="http://www.w3.org/2000/svg" viewBox="0 0 16 16"><style>.st0{opacity:0;fill:#424242}.st1{fill:#f6f6f6}.st2{fill:#424242}.st3{fill:#f0eff1}</style><g id="outline"><path class="st0" d="M0 0h16v16H0z"/><path class="st1" d="M10.414 2l-2-2H1.949A1.952 1.952 0 0 0 0 1.949v9.117C0 12.133.868 13 1.934 13h1.059v3h7.055v-3h2.007V9.013H15V2h-4.586z"/></g><g id="icon_x5F_bg"><path class="st2" d="M2.993 11H2V2h5v2h.946V2H9L8 1H1.949A.95.95 0 0 0 1 1.949v9.117c0 .516.418.934.934.934h1.059v-1z"/><path class="st2" d="M5 13v-2.994H3.993v5.011H9V13zM8.946 3.019v2.968h3.108V8.03h1.899V3.019z"/><path class="st2" d="M6 7.006h5.007v5.011H6z"/></g><path class="st3" d="M2.993 8.987H5v-3h2.946V4H7V2H2v9h.993V8.987z" id="icon_x5F_fg"/></svg>