<?xml version="1.0" encoding="utf-8"?>
<!-- Generator: Adobe Illustrator 18.1.1, SVG Export Plug-In . SVG Version: 6.00 Build 0)  -->
<!DOCTYPE svg PUBLIC "-//W3C//DTD SVG 1.1//EN" "http://www.w3.org/Graphics/SVG/1.1/DTD/svg11.dtd">
<svg version="1.1" xmlns="http://www.w3.org/2000/svg" xmlns:xlink="http://www.w3.org/1999/xlink" x="0px" y="0px" width="16px"
	 height="16px" viewBox="0 0 16 16" style="enable-background:new 0 0 16 16;" xml:space="preserve">
<style type="text/css">
	.icon-canvas-transparent{opacity:0;fill:#F6F6F6;}
	.icon-vs-out{fill:#F6F6F6;}
	.icon-vs-bg{fill:#424242;}
	.icon-vs-fg{fill:#F0EFF1;}
</style>
<g id="canvas">
	<path class="icon-canvas-transparent" d="M16,16H0V0h16V16z"/>
</g>
<g id="outline">
	<path class="icon-vs-out" d="M11,7V3.586L7.414,0H1.928L1.857,0.01C1.095,0.12,0.281,0.64,0.086,1.545L0,1.646v9.385
		C0,11.822,0.574,13,1.984,13H7v3h5v-4h4V7H11z"/>
</g>
<g id="iconBg">
	<path class="icon-vs-bg" d="M1.043,1.965C1.043,1.137,2,1,2,1h5l3,3v3H9V4H7V2H6H2v9h5v1c0,0-4.063,0-5.016,0
		C1.031,12,1,11,1,11V2.015L1.043,1.965z M11,8H8v3h3V8z M15,8h-3v3h3V8z M11,12H8v3h3V12z M8,5H6v2h2V5z M5,5H3v2h2V5z M5,8H3v2h2
		V8z"/>
</g>
<g id="iconFg">
	<path class="icon-vs-fg" d="M7,4V2H2v9h5V7H6V5h2v2h1V4H7z M5,10H3V8h2V10z M5,7H3V5h2V7z"/>
</g>
</svg>
