<svg xmlns="http://www.w3.org/2000/svg" viewBox="0 0 16 16"><style>.st0{opacity:0}.st0,.st1{fill:#f6f6f6}.st2{fill:#424242}.st3{fill:#f0eff1}</style><g id="outline"><path class="st0" d="M0 0h16v16H0z"/><path class="st1" d="M12.019 3H11v-.414L8.414 0H1.949A1.952 1.952 0 0 0 0 1.949v9.117C0 12.133.868 13 1.934 13H2v.125h5.068V13h1.954c1.09 0 1.978-.888 1.978-1.979V8.016h1.019V3z"/></g><g id="icon_x5F_bg"><path class="st2" d="M3 4h2.911v3H3zM8 4h3.019v3.016H8zM9 11H7.068v1h1.954c.54 0 .978-.438.978-.979V8.016H9V11z"/><path class="st2" d="M2 11V2h5v1h3L8 1H1.949A.95.95 0 0 0 1 1.949v9.117c0 .516.418.934.934.934H2v-1z"/><path class="st2" d="M3 8.991h2.943V12H3z"/></g><path class="st3" d="M2 7.991h5V2H2v5.991zM3 4h2.911v3H3V4z" id="icon_x5F_fg"/></svg>