<svg xmlns="http://www.w3.org/2000/svg" viewBox="0 0 16 16"><style>.st0{opacity:0}.st0,.st1{fill:#f6f6f6}.st2{fill:#424242}.st3{fill:#f0eff1}</style><g id="outline"><path class="st0" d="M0 0h16v16H0z"/><path class="st1" d="M7 0v3.586L6.414 3H2c-.97 0-2 .702-2 2v7.001C0 12.97.702 14 2 14h3v2h4v-3h7V0H7z"/></g><g id="icon_x5F_bg"><path class="st2" d="M3 8h1v1H3zM5 8h1v1H5zM3 10h1v1H3zM8 1v3.586l2 2V9h2v3h3V1H8zm6 10h-1v-1h1v1zm0-6H9V4h5v1zm0-2H9V2h5v1z"/><path class="st2" d="M9 10h2v2H9zM6 10h2v2H6zM6 13h2v2H6z"/><path class="st2" d="M6 4H2S1 4 1 5v7s0 1 1 1h3v-1H2V5h4v2h2v2h1V7L6 4z"/></g><g id="icon_x5F_fg"><path class="st3" d="M13 10h1v1h-1zM9 2h5v1H9zM9 4h5v1H9zM6 5H2v7h3V8h1v1h2V7H6V5zm-2 6H3v-1h1v1zm0-2H3V8h1v1z"/></g></svg>