<svg xmlns="http://www.w3.org/2000/svg" viewBox="0 0 16 16"><style>.st0{opacity:0;fill:#f0eff1}.st1{fill:#f6f6f6}.st2{fill:#424242}.st3{fill:#f0eff1}</style><g id="outline"><path class="st0" d="M0 0h16v16H0z"/><path class="st1" d="M12.964 5H11V2.586L8.414 0H1.949A1.952 1.952 0 0 0 0 1.949v9.117C0 12.133.868 13 1.934 13h2.104v3h6.023v-3.302c.561-.35.939-.968.939-1.677v-.047h1.964V5z"/></g><g id="icon_x5F_bg"><path class="st2" d="M3 6h4v4H3zM8 6.016h4.033V9.97H8z"/><path class="st2" d="M4.038 11H2V2h5v2h2v1h1V3L8 1H1.949A.95.95 0 0 0 1 1.949v9.117c0 .516.418.934.934.934h2.104v-1zM5.038 11.241h3.943v3.776H5.038z"/></g><path class="st3" d="M7 4V2H2v9h2.038v-.759h3.103V5H9V4H7zm0 6H3V6h4v4z" id="icon_x5F_fg"/></svg>