<svg xmlns="http://www.w3.org/2000/svg" viewBox="0 0 16 16"><style>.st0{opacity:0}.st0,.st1{fill:#f6f6f6}.st2{fill:#424242}.st3{fill:#f0eff1}</style><g id="outline"><path class="st0" d="M0 0h16v16H0z"/><path class="st1" d="M13.831 3.984H11V2.586L8.414 0H1.949A1.952 1.952 0 0 0 0 1.949v9.117C0 12.133.868 13 1.934 13H2v1.759h6.023V13h.999c1.09 0 1.978-.888 1.978-1.979V9.959h2.831V3.984z"/></g><g id="icon_x5F_bg"><path class="st2" d="M8 1H1.949A.95.95 0 0 0 1 1.949v9.117c0 .516.418.934.934.934H2V2h5v2h1v-.016h2V3L8 1zM9 11h-.977v1h.999c.54 0 .978-.438.978-.979V9.959H9V11z"/><path class="st2" d="M3 4h4v4H3zM9 5h4.033v3.954H9zM3 10h3.943v3.947H3z"/></g><g id="icon_x5F_fg"><path class="st3" d="M8 4H7V2H2v7h6V4zM8.023 9.959H9V11h-.977z"/></g></svg>