<svg xmlns="http://www.w3.org/2000/svg" viewBox="0 0 16 16"><style>.icon-canvas-transparent{opacity:0;fill:#f6f6f6}.icon-vs-out{fill:#f6f6f6}.icon-vs-bg{fill:#424242}.icon-vs-fg{fill:#f0eff1}.icon-vs-blue{fill:#1ba1e2}.icon-vs-action-blue{fill:#00539c}</style><path class="icon-canvas-transparent" d="M16 16H0V0h16v16z" id="canvas"/><path class="icon-vs-out" d="M11 0C8.989 0 7.346.649 6.541 1.627L4.874 0H2.616L1.607 1.008l.114.114A2.33 2.33 0 0 0 .3 2.321a.869.869 0 0 0-.029.052c-.019.04-.034.081-.051.122C.082 2.803 0 3.141 0 3.5V16h8v-4.579c.826.362 1.851.579 3 .579 2.851 0 5-1.289 5-3V3c0-1.71-2.149-3-5-3zM6 5H4.914L6 3.914V5z" id="outline"/><path class="icon-vs-bg" d="M1 6v9h6V6H1zm5 8H5v-1h1v1zm0-4H2V9h4v1zm0-2H2V7h4v1z" id="iconBg"/><path class="icon-vs-fg" d="M5 13h1v1H5v-1zm-3-3h4V9H2v1zm0-2h4V7H2v1zm9-6.325c-1.999 0-3.325.798-3.325 1.325S9.001 4.325 11 4.325 14.325 3.527 14.325 3 12.999 1.675 11 1.675z" id="iconFg"/><path class="icon-vs-action-blue" d="M5.979 2.509L3.744.287l-.722.721 1.004 1.004-1.53.004-.023.001c-1.09 0-1.465.89-1.466 1.489V5H2V3.513c.006-.23.097-.504.497-.504h1.529L3.022 4.013l.721.721 2.236-2.225z" id="colorAction"/><path class="icon-vs-blue" d="M14 1.689C13.267 1.271 12.201 1 11 1s-2.267.271-3 .689C7.385 2.041 7 2.496 7 3v2h1v5.311c.733.418 1.799.689 3 .689 2.209 0 4-.896 4-2V3c0-.504-.385-.959-1-1.311zm-3 2.636c-1.999 0-3.325-.798-3.325-1.325S9.001 1.675 11 1.675s3.325.798 3.325 1.325S12.999 4.325 11 4.325z" id="colorImportance"/></svg>