<svg xmlns="http://www.w3.org/2000/svg" viewBox="0 0 16 16"><style>.icon-canvas-transparent{opacity:0;fill:#f6f6f6}.icon-vs-out{fill:#f6f6f6}.icon-vs-bg{fill:#424242}</style><path class="icon-canvas-transparent" d="M16 16H0V0h16v16z" id="canvas"/><path class="icon-vs-out" d="M9.067 10.976l1.837.009L8.67 8.75 5.745 12H9v4H0v-3.384L3.255 9H0V5h4.92L1.773 1.853 3.626 0h.536L8 3.837l5.028 5.028.002-1.849H16v6.999l-6.938-.039.005-3z" id="outline"/><path class="icon-vs-bg" d="M1 6h7v2l-4.5 5H8v2H1v-2l4.5-5H1V6zm9.064 6.983l4.967.027V8.016H14.03l-.004 3.26L9 6.251v1.414l4.33 4.33-3.265-.015-.001 1.003zM7.749 5L3.895 1.146l-.707.707L6.335 5h1.414z" id="iconBg"/></svg>