<svg xmlns="http://www.w3.org/2000/svg" viewBox="0 0 16 16"><style>.st0{opacity:0}.st0,.st1{fill:#f6f6f6}.st2{fill:#424242}.st3{fill:#f0eff1}</style><g id="outline"><path class="st0" d="M0 0h16v16H0z"/><path class="st1" d="M11.938 7.044c-.121-1.173-.436-2.4-.983-3.412l.562-1.064-2.08-2.08-1.066.562C7.15.387 5.535 0 3.923 0 3.32 0 2.768.057 2.281.168l-.777.178v1.81l.794.167c.884.186 1.753.57 2.706 1.201v1.063L0 9.59v.82l2.003 2.004L7.418 7H8.48c.18.271.334.535.475.795A4.495 4.495 0 0 0 7 11.5c0 2.481 2.019 4.5 4.5 4.5s4.5-2.019 4.5-4.5c0-2.332-1.789-4.232-4.062-4.456z"/></g><g id="icon_x5F_bg"><path class="st2" d="M9.001 6H7l-5 5-1-1 5-5V2.999c-1.194-.856-2.317-1.406-3.5-1.655v-.201c1.572-.359 4.214-.05 5.834 1.056l.912-.481 1.037 1.037-.481.911c.633.927.996 2.187 1.132 3.391a4.486 4.486 0 0 0-1.107.273A12.131 12.131 0 0 0 9.001 6zM11 12h1l2-2.5-.5-.5c-.221.158-2.5 2-2.5 2v1z"/><path class="st2" d="M14.666 9.824l-.767.916c.081.245.13.498.13.77 0 1.355-1.219 2.49-2.574 2.49A2.456 2.456 0 0 1 9 11.545c0-1.355 1.139-2.542 2.494-2.542.272 0 .672.079.917.161l.792-.68C12.65 8.154 12.19 8 11.5 8c-2.033 0-3.53 1.477-3.53 3.51 0 2.034 1.497 3.511 3.53 3.511s3.518-1.487 3.518-3.521c0-.69-.022-1.123-.352-1.676z"/></g><path class="st3" d="M14.011 7.768l-1.6 1.396a3.405 3.405 0 0 0-.917-.161C10.139 9.003 9 10.189 9 11.545 9 12.9 10.126 14 11.5 14c1.271 0 2.467-1.09 2.525-2.369a2.833 2.833 0 0 0-.126-.891l1.399-1.629a4.505 4.505 0 0 0-1.287-1.343zM12 12h-1v-1l2.5-2 .5.5-2 2.5z" id="icon_x5F_fg"/></svg>