<svg xmlns="http://www.w3.org/2000/svg" viewBox="0 0 16 16"><style>.icon-canvas-transparent{opacity:0;fill:#f6f6f6}.icon-vs-out{fill:#f6f6f6}.icon-vs-bg{fill:#424242}.icon-vs-fg{fill:#f0eff1}</style><path class="icon-canvas-transparent" d="M16 16H0V0h16v16z" id="canvas"/><path class="icon-vs-out" d="M16 3v10H0V3h16z" id="outline"/><path class="icon-vs-bg" d="M7 11v1H1V4h6v2H2v2h2v1H2v2h5zm8-7v8H9V9.914L10.414 8.5 9 7.086V4h6zm-1 5h-4v2h4V9zm0-3h-4v2h4V6zm-6.861.526l-.716.707.759.767H5v1h2.2l-.768.776.707.707 1.98-1.968-1.98-1.989z" id="iconBg"/><path class="icon-vs-fg" d="M14 6v2h-3.982L10 7.982V6h4zM4 7h1.236l1.012-1H2v2h2V7zm1.242 3H4V9H2v2h4.242l-1-1zM10 9.049V11h4V9h-3.95l-.05.049z" id="iconFg"/></svg>