<svg xmlns="http://www.w3.org/2000/svg" viewBox="0 0 16 16"><style>.st0{opacity:0}.st0,.st1{fill:#f6f6f6}.st2{fill:#424242}.st3{fill:#f0eff1}</style><g id="outline"><path class="st0" d="M0 0h16v16H0z"/><path class="st1" d="M11.5 0C9.186 0 7.302 1.753 7.051 4H1.585L0 5.586v6.828L1.586 14H2v2h2.414l2-2h3L11 12.414V8.952c.165.021.329.048.5.048a4.5 4.5 0 0 0 0-9z"/></g><path class="st2" d="M9 12H5.5L4 13.5V12H2V6h5.275a4.429 4.429 0 0 1-.224-1H1.999L1 6v6l1 1h1v2h1l2-2h3l1-1V8.725a4.512 4.512 0 0 1-1-.485V12z" id="icon_x5F_bg"/><path class="st3" d="M2 12h2v1.5L5.5 12H9V8.24A4.502 4.502 0 0 1 7.275 6H2v6z" id="icon_x5F_fg"/><path class="st2" d="M11.5 1a3.5 3.5 0 1 0 0 7 3.5 3.5 0 0 0 0-7zm.5 6h-1V4h1v3zm0-4h-1V2h1v1z" id="not_x5F_bg"/><path class="st3" d="M12 7h-1V4h1v3zm0-5h-1v1h1V2z" id="not_x5F_fg"/></svg>