<svg xmlns="http://www.w3.org/2000/svg" viewBox="0 0 16 16"><style>.st0{opacity:0}.st0,.st1{fill:#f6f6f6}.st2{fill:#424242}.st3{stroke:#424242;stroke-width:.15;stroke-miterlimit:10}.st3,.st4{fill:#f0eff1}</style><g id="outline"><path class="st0" d="M0 0h16v16H0z"/><path class="st1" d="M16 0H2v6.929l-1.833.927v5.57L4.254 16h1.929l3.572-2.619V12H16z"/></g><g id="icon_x5F_bg"><path class="st2" d="M3 1v5.424l1-.506V2h10v8H9.755v1H15V1z"/><path class="st2" d="M5 3v2.413l.051-.026.887.468.208-.208A.498.498 0 0 1 6.9 5.7l.821 1.095.348.184 2.507-3.244a.5.5 0 0 1 .83-.026L13 5.94V3H5z"/><path class="st2" d="M11.027 4.899l-2 2.586.728.383V9H13V7.66zM8.755 12.874V8.471L5.041 6.512 1.167 8.471v4.403l4.081 2.57 3.507-2.57zm-3.76-5.686l3.07 1.514-2.864 1.718-3.095-1.766 2.889-1.466zm-.024 7.373v.016l-.01-.008-.008.008v-.016l-3.167-2.064V9.178l3.209 1.793v3.573l-.024.017zm3.219-1.962l-2.576 1.856v-3.463L8.19 9.426v3.173z"/></g><g id="icon_x5F_fg"><path class="st3" d="M4.995 7.188l3.07 1.513-2.864 1.719-3.095-1.766zM4.971 14.561v.016l-.01-.008-.008.008v-.016l-3.167-2.064V9.178l3.209 1.793v3.573zM8.19 12.599l-2.576 1.856v-3.463L8.19 9.426z"/><path class="st4" d="M6.536 5.501a.498.498 0 0 0-.39.145l-.208.209 1.783.94L6.9 5.7a.503.503 0 0 0-.364-.199z"/><path class="st4" d="M13 2H4v3.918l1-.505V3h8v2.94l-1.594-2.23a.498.498 0 0 0-.83.026L8.069 6.979l.958.506 2-2.586L13 7.66V9H9.755v1H14V2h-1z"/></g></svg>