<svg xmlns="http://www.w3.org/2000/svg" viewBox="0 0 16 16"><style>.st0{opacity:0}.st0,.st1{fill:#f6f6f6}.st2{fill:#424242}.st3{fill:#f0eff1}</style><g id="outline"><path class="st0" d="M0 0h16v16H0z"/><path class="st1" d="M11.919 5l-.041-.199A6.014 6.014 0 0 0 6 0C2.691 0 0 2.691 0 6a6.017 6.017 0 0 0 4.801 5.879L5 11.92V16h11V5h-4.081z"/></g><g id="icon_x5F_bg"><path class="st2" d="M6 6v9h9V6H6zm8 8H7V7h7v7z"/><path class="st2" d="M5 5h5.899A5 5 0 1 0 5 10.899V5z"/></g><path class="st3" d="M7 7h7v7H7z" id="icon_x5F_fg"/></svg>