<svg xmlns="http://www.w3.org/2000/svg" viewBox="0 0 16 16"><style>.st0{opacity:0}.st0,.st1{fill:#f6f6f6}.st2{fill:#424242}.st3{fill:#f0eff1}</style><g id="outline"><path class="st0" d="M0 0h16v16H0z"/><path class="st1" d="M13.01 8.987v-1.1L5.124 0H3.01v8.987H1V16h15V8.987z"/></g><g id="icon_x5F_bg"><path class="st2" d="M2 10v5h13v-5H2zm4 4H5v-2H4v2H3v-3h3v3zm4 0H9v-2H8v2H7v-3h3v3zm4 0h-1v-2h-1v2h-1v-3h3v3zM4.7 1H4v8h8v-.699L4.7 1zM5 8V2.35L10.602 8H5z"/></g><g id="icon_x5F_fg"><path class="st3" d="M7 11v3h1v-2h1v2h1v-3zM3 11v3h1v-2h1v2h1v-3zM11 14h1v-2h1v2h1v-3h-3zM5 8h5.602L5 2.35z"/></g></svg>