<svg xmlns="http://www.w3.org/2000/svg" viewBox="0 0 16 16"><style>.icon-canvas-transparent{opacity:0;fill:#f6f6f6}.icon-vs-out{fill:#f6f6f6}.icon-vs-bg{fill:#424242}</style><path class="icon-canvas-transparent" d="M16 0v16H0V0h16z" id="canvas"/><path class="icon-vs-out" d="M16 0v16H9v-3h4V3H3v5.586l1.854-1.854L9.621 11.5l-4.5 4.5h-.535l-1.854-1.854L3.879 13H0v-3h3.879l-1-1H0V0h16z" id="outline"/><path class="icon-vs-bg" d="M4.854 8.146L8.207 11.5l-3.354 3.354-.707-.707L6.293 12H1v-1h5.293L4.146 8.854l.708-.708zM1 1v7h1V2h12v12h-4v1h5V1H1z" id="iconBg"/></svg>