<?xml version="1.0" encoding="utf-8"?>
<!-- Generator: Adobe Illustrator 18.1.1, SVG Export Plug-In . SVG Version: 6.00 Build 0)  -->
<!DOCTYPE svg PUBLIC "-//W3C//DTD SVG 1.1//EN" "http://www.w3.org/Graphics/SVG/1.1/DTD/svg11.dtd">
<svg version="1.1" xmlns="http://www.w3.org/2000/svg" xmlns:xlink="http://www.w3.org/1999/xlink" x="0px" y="0px" width="16px"
	 height="16px" viewBox="0 0 16 16" style="enable-background:new 0 0 16 16;" xml:space="preserve">
<style type="text/css">
	.icon-canvas-transparent{opacity:0;fill:#F6F6F6;}
	.icon-vs-out{fill:#F6F6F6;}
	.icon-vs-bg{fill:#424242;}
	.icon-vs-fg{fill:#F0EFF1;}
</style>
<g id="canvas">
	<path class="icon-canvas-transparent" d="M16,16H0V0h16V16z"/>
</g>
<g id="outline">
	<path class="icon-vs-out" d="M16,3v12H4v-2.501c-2.347-0.981-4-3.3-4-5.999C0,2.915,2.915,0,6.5,0
		c2.295,0,4.311,1.199,5.469,3H16z"/>
</g>
<g id="iconBg">
	<path class="icon-vs-bg" d="M12,6.5C12,3.467,9.532,1,6.5,1C3.467,1,1,3.467,1,6.5S3.467,12,6.5,12
		C9.532,12,12,9.533,12,6.5z M10.45,6c0.021,0.166,0.051,0.328,0.051,0.5c0,2.035-1.533,3.7-3.501,3.949V6H10.45z M5,10.203
		C3.536,9.607,2.499,8.175,2.499,6.5c0-2.206,1.795-4,4.001-4c1.256,0,2.364,0.593,3.098,1.5H5V10.203z M15,4v10H5v-1h9V5h-1V4H15z"
		/>
</g>
<g id="iconFg">
	<path class="icon-vs-fg" d="M10.45,6c0.021,0.166,0.051,0.328,0.051,0.5c0,2.035-1.532,3.7-3.501,3.949V6H10.45z M5,4
		h4.598C8.864,3.093,7.756,2.5,6.5,2.5c-2.206,0-4.001,1.794-4.001,4c0,1.675,1.037,3.107,2.501,3.703V4z"/>
</g>
</svg>
