<svg xmlns="http://www.w3.org/2000/svg" viewBox="0 0 16 16"><style>.st0{opacity:0}.st0,.st1{fill:#f6f6f6}.st2{fill:#424242}.st3{fill:#f0eff1}</style><g id="outline"><path class="st0" d="M0 0h16v16H0z"/><path class="st1" d="M13 14.689l-.526-2.088 2.755-.226L13 10.132V0H2v16h7.949l.007.026L12.217 16H13v-.009l.279-.003z"/></g><path class="st2" d="M9.356 13.535L7 14.477V12H4V2h7v6.119l1 1.007V1H3v14h6.709l-.353-1.465zM5 14H4v-1h1v1z" id="icon_x5F_bg"/><g id="icon_x5F_fg"><path class="st3" d="M7 4.092l4 4.027V2H4v10h3zM4 13h1v1H4z"/><path class="st2" d="M13.1 11.65L8 6.518V13l2.059-.822.678 2.822 1.354-.045-.745-3.07z"/></g></svg>