<svg xmlns="http://www.w3.org/2000/svg" viewBox="0 0 16 16"><style>.icon-canvas-transparent{opacity:0;fill:#f6f6f6}.icon-vs-out{fill:#f6f6f6}.icon-vs-bg{fill:#424242}.icon-vs-fg{fill:#f0eff1}</style><path class="icon-canvas-transparent" d="M16 16H0V0h16v16z" id="canvas"/><path class="icon-vs-out" d="M15.424 11.959A2 2 0 0 1 13.668 13H8v3H1V7h4.525L7 4.707V4H6V1h7v3h-1v.706l3.351 5.212c.396.617.423 1.398.073 2.041z" id="outline"/><path class="icon-vs-bg" d="M13.668 12H8V8h3.724L10 5.291V3H9v2.291L7.913 7H6.714L8 5V3H7V2h5v1h-1v2l3.51 5.459A1 1 0 0 1 13.668 12zM2 8v7h5V8H2zm2 6H3v-1h1v1zm2 0H5v-1h1v1zm0-2H3V9h3v3z" id="iconBg"/><path class="icon-vs-fg" d="M6 12H3V9h3v3zm0 1H5v1h1v-1zm-2 0H3v1h1v-1zm7.724-5L10 5.291V3H9v2.291L7.913 7H8v1h3.724z" id="iconFg"/></svg>