<svg xmlns="http://www.w3.org/2000/svg" viewBox="0 0 16 16"><style>.icon-canvas-transparent{opacity:0;fill:#f6f6f6}.icon-vs-out{fill:#f6f6f6}.icon-vs-bg{fill:#424242}.graph-blue{fill:#117ad1}</style><path class="icon-canvas-transparent" d="M16 16H0V0h16v16z" id="canvas"/><path class="icon-vs-out" d="M16 5.667L13.125 9.5H14v2c0 1.379-1.121 2.5-2.5 2.5H11v2h-.667l-4.355-3.266c-.03.036-.054.074-.087.11a2.245 2.245 0 0 1-1.429.695A2.239 2.239 0 0 1 2.237 16 2.24 2.24 0 0 1 0 13.763c0-.7.326-1.34.856-1.755v-1.016A2.225 2.225 0 0 1 2 7.024V4.5C2 3.122 3.122 2 4.5 2H5V0h.667L9.5 2.875V2h2C12.879 2 14 3.122 14 4.5V5h2v.667z" id="outline"/><g id="iconBg"><path class="icon-vs-bg" d="M5.173 8a1.233 1.233 0 1 0-.38 2.408v.567c.007.122-.013.479-.193.671-.092.098-.225.146-.406.146H2.617v-1.384A1.234 1.234 0 0 0 2.237 8C1.555 8 1 8.555 1 9.237c0 .549.361 1.009.856 1.171v2.184A1.234 1.234 0 0 0 1 13.763C1 14.445 1.555 15 2.237 15s1.237-.555 1.237-1.237c0-.549-.361-1.009-.856-1.171v-.039h1.577c.393 0 .727-.135.965-.39.434-.468.398-1.163.393-1.213v-.542c.495-.162.857-.622.857-1.171C6.41 8.555 5.855 8 5.173 8zm-2.46 5.763a.476.476 0 1 1-.953-.001.476.476 0 0 1 .953.001zm-.476-4.05a.476.476 0 1 1 .001-.953.476.476 0 0 1-.001.953zm2.936 0a.476.476 0 1 1 .001-.953.476.476 0 0 1-.001.953z"/><path class="graph-blue" d="M4 6.5H3v-2C3 3.673 3.673 3 4.5 3H6V1.5L8 3l.666.5L8 4 6 5.5V4H4.5a.5.5 0 0 0-.5.5v2zm8 5c0 .275-.225.5-.5.5H10v-1.5L8 12l-.666.5L8 13l2 1.5V13h1.5c.827 0 1.5-.673 1.5-1.5v-1h-1v1zM14.5 6H13V4.5c0-.827-.673-1.5-1.5-1.5h-1v1h1a.5.5 0 0 1 .5.5V6h-1.5L12 8l.5.667L13 8l1.5-2z"/></g></svg>