<svg xmlns="http://www.w3.org/2000/svg" viewBox="0 0 16 16"><style>.st0{fill:#f6f6f6}.st1{fill:#424242}.st2{fill:url(#SVGID_1_)}.st3{fill:#f0eff1}</style><path class="st0" d="M16 7A7 7 0 1 0 2.294 9H1v2H0v5h5v-3.26c.315.22.65.411 1 .577V16h5v-2.294c2.891-.86 5-3.535 5-6.706z" id="outline"/><g id="icon_x5F_bg"><path class="st1" d="M9 12v-2H6V9h1V6H4v3h1v1H2v2H1v3h3v-3H3v-1h5v1H7v3h3v-3H9zm-6 2H2v-1h1v1zm2-7h1v1H5V7zm4 7H8v-1h1v1z"/><radialGradient id="SVGID_1_" cx="7.232" cy="4.884" r="8.739" gradientUnits="userSpaceOnUse"><stop offset="0" stop-color="#b5b5b5"/><stop offset=".715" stop-color="#424242"/></radialGradient><path class="st2" d="M9 1a5.996 5.996 0 0 0-5.651 4H8v4h2v2h1v1.651A5.997 5.997 0 0 0 9 1z"/></g><path class="st3" d="M6 8H5V7h1v1zm3 5H8v1h1v-1zm-6 0H2v1h1v-1z" id="icon_x5F_fg"/></svg>