<svg xmlns="http://www.w3.org/2000/svg" viewBox="0 0 16 16"><style>.st0{opacity:0}.st0,.st1{fill:#f6f6f6}.st2{fill:#424242}.st3{fill:#f0eff1}.st4{fill:#e51400}.st5{fill:#fff}.st6{fill:none;stroke:#ccc;stroke-miterlimit:10}</style><g id="outline"><path class="st0" d="M0 0h16v16H0z"/><path class="st1" d="M15 14.297c.616-.771 1-1.734 1-2.797 0-1.56-.795-2.933-2-3.74V7H9V6h2V0H4v6h2v1H1v3H0v5h8.703c.771.616 1.734 1 2.797 1s2.026-.384 2.797-1H15v-.703z"/></g><path class="st2" d="M10 5V1H5v4h2v3H2v3H1v3h3v-3H3V9h4v2H6v3h1.76a4.51 4.51 0 0 1-.484-1H7v-1h.05c-.018-.166-.05-.329-.05-.5 0-1.423.673-2.675 1.703-3.5H8V5h2zm-7 8H2v-1h1v1zm3-9V2h3v2H6z" id="icon_x5F_bg"/><g id="icon_x5F_fg"><path class="st3" d="M2 12h1v1H2zM6 2h3v2H6zM7.05 12H7v1h.275a4.472 4.472 0 0 1-.225-1z"/><path class="st4" d="M11.5 8a3.5 3.5 0 1 0 0 7 3.5 3.5 0 0 0 0-7zm1.854 4.646l-.707.707-1.147-1.146-1.146 1.147-.707-.707 1.147-1.146-1.147-1.146.707-.707 1.146 1.147 1.146-1.147.707.707-1.146 1.145 1.147 1.146z"/><path class="st5" d="M13.354 10.354l-.708-.708-1.146 1.147-1.146-1.147-.708.708 1.147 1.146-1.147 1.146.708.708 1.146-1.147 1.146 1.147.708-.708-1.147-1.146z"/></g></svg>