<svg xmlns="http://www.w3.org/2000/svg" viewBox="0 0 16 16"><style>.icon-canvas-transparent{opacity:0;fill:#f6f6f6}.icon-vs-out{fill:#f6f6f6}.icon-vs-bg{fill:#424242}.icon-vs-fg{fill:#f0eff1}</style><path class="icon-canvas-transparent" d="M16 16H0V0h16v16z" id="canvas"/><path class="icon-vs-out" d="M8.5 16c-2.474 0-4.349-1.604-4.874-4.074C1.145 11.485.002 9.17 0 7.004V2C0 .804 1.26 0 2.438 0c1.361 0 2.469 1.122 2.469 2.5 0 1.209-.802 2.193-1.906 2.44V7c0 .602.195 2 2 2 1.74 0 2-1.253 2-2V4.95A2.504 2.504 0 0 1 5 2.5C5 1.122 6.122 0 7.5 0c1.089 0 2.094.685 2.442 1.665l.058.163v2.516A2.998 2.998 0 0 1 15.5 6 2.993 2.993 0 0 1 14 8.591V10.5c0 3.032-2.468 5.5-5.5 5.5zm-1.732-4.153C7.044 12.451 7.555 13 8.5 13c1.379 0 2.5-1.121 2.5-2.5V8.591a2.999 2.999 0 0 1-1.024-.975c-.179 2.243-1.351 3.767-3.208 4.231z" id="outline"/><path class="icon-vs-bg" d="M12.5 4a1.995 1.995 0 1 0-.5 3.929V10.5c0 1.93-1.57 3.5-3.5 3.5-1.76 0-2.757-1.311-3-3.005C7.979 10.995 9 9.192 9 7V2c-.207-.581-.848-1-1.5-1a1.5 1.5 0 0 0 0 3c.176 0 .343-.036.5-.092V7c0 1.654-.979 3-3 3-2 0-3-1.346-3-3V3.908c0 .056.277.092.453.092.828 0 1.453-.672 1.453-1.5S3.266 1 2.438 1C1.785 1 1 1.419 1 2v5.003C1.002 8.877 2.021 11 4.5 11c.191 2.309 1.641 4 4 4a4.5 4.5 0 0 0 4.5-4.5V7.929A1.995 1.995 0 0 0 12.5 4zm0 3a1.001 1.001 0 0 1 0-2 1.001 1.001 0 0 1 0 2z" id="iconBg"/><path class="icon-vs-fg" d="M12.5 7a1.001 1.001 0 0 1 0-2 1.001 1.001 0 0 1 0 2z" id="iconFg"/></svg>