<svg xmlns="http://www.w3.org/2000/svg" viewBox="0 0 16 16"><style>.icon-canvas-transparent{opacity:0;fill:#f6f6f6}.icon-vs-out{fill:#f6f6f6}.icon-vs-bg{fill:#424242}.icon-vs-fg{fill:#f0eff1}</style><path class="icon-canvas-transparent" d="M16 16H0V0h16v16z" id="canvas"/><path class="icon-vs-out" d="M16 10v5H1v-5h1V7h5V6H5V0h7v6h-2v1h5v3h1z" id="outline"/><path class="icon-vs-fg" d="M7 2h3v2H7V2zM3 13h1v-1H3v1zm5 0h1v-1H8v1zm5-1v1h1v-1h-1z" id="iconFg"/><g id="iconBg"><path class="icon-vs-bg" d="M14 11V8H9V5h2V1H6v4h2v3H3v3H2v3h3v-3H4V9h4v2H7v3h3v-3H9V9h4v2h-1v3h3v-3h-1zM4 13H3v-1h1v1zm5 0H8v-1h1v1zM7 4V2h3v2H7zm7 9h-1v-1h1v1z"/></g></svg>