<svg xmlns="http://www.w3.org/2000/svg" viewBox="0 0 16 16"><style>.st0{opacity:0}.st0,.st1{fill:#f6f6f6}.st2{fill:#424242}.st3{fill:#f0eff1}.st4{fill:#fc0}.st5{fill:none;stroke:#ccc;stroke-miterlimit:10}</style><g id="outline"><path class="st0" d="M0 0h16v16H0z"/><path class="st1" d="M8.309 15.5l-.5-1H.5v-4h1v-3h5v-2h-2v-5h6v5h-2v2h5v3h1v1.618L15.441 14l-.75 1.5z"/><path class="st1" d="M10 1v4H8v3h5v3h1v1.236l.106.211.776 1.553-.5 1H8.618l-.224-.447L8.118 14H1v-3h1V8h5V5H5V1h5m1-1H4v6h2v1H1v3H0v5h7.5l.5 1h7l1-2-1-2v-2h-1V7H9V6h2V0z"/></g><path class="st2" d="M10 5V1H5v4h2v3H2v3H1v3h3v-3H3V9h4v2H6v3h1l.5-1H7v-1h1l.5-1H8V9h1.5l.5-1H8V5h2zm-7 8H2v-1h1v1zm3-9V2h3v2H6z" id="icon_x5F_bg"/><g id="icon_x5F_fg"><path class="st3" d="M6 2h3v2H6zM2 12h1v1H2zM8 12H7v1h.5z"/><path class="st4" d="M11.891 8.016h-.781l-3.016 6 .515.984h5.766l.484-1-2.968-5.984zM12 14h-1v-1h1v1zm0-2h-1v-2h1v2z"/><path d="M12 12h-1v-2h1v2zm0 1h-1v1h1v-1z"/></g></svg>