<svg xmlns="http://www.w3.org/2000/svg" viewBox="0 0 16 16"><style>.icon-canvas-transparent{opacity:0;fill:#f6f6f6}.icon-vs-out{fill:#f6f6f6}.icon-vs-bg{fill:#424242}.icon-vs-fg{fill:#f0eff1}</style><path class="icon-canvas-transparent" d="M16 16H0V0h16v16z" id="canvas"/><path class="icon-vs-out" d="M16 15H9v1H0V7h7V6H5V0h7v6h-2v1h5v3h1v5z" id="outline"/><path class="icon-vs-fg" d="M7 2h3v2H7V2zm6 10v1h1v-1h-1z" id="iconFg"/><g id="iconBg"><path class="icon-vs-bg" d="M8 7h1V5h2V1H6v4h2v2zM7 4V2h3v2H7zm2 7h1v3H9v-3zm5 0V8H9v1h4v2h-1v3h3v-3h-1zm0 2h-1v-1h1v1zM3 11h1.5L3 12.5l.5.5L5 11.5V13l1-1v-2H4l-1 1zM1 8v7h7V8H1zm6 6H2V9h5v5z"/></g></svg>