<svg xmlns="http://www.w3.org/2000/svg" viewBox="0 0 16 16"><style>.st0{opacity:0}.st0,.st1{fill:#f6f6f6}.st2{fill:#424242}.st3{fill:#f0eff1}</style><g id="outline"><path class="st0" d="M0 0h16v16H0z"/><path class="st1" d="M11 0h5v15h-5v-1H8V9H7v2H1V4h6v2h1V1h3V0z"/></g><path class="st2" d="M12 2H9v5H6V5H2v5h4V8h3v5h3v1h3v-3h-3v1h-2V8h2v1h3V6h-3v1h-2V3h2v1h3V1h-3v1zm2 10v1h-1v-1h1zm0-5v1h-1V7h1zM5 9H3V6h2v3zm9-7v1h-1V2h1z" id="icon_x5F_bg"/><path class="st3" d="M5 6v3H3V6h2zm8 6v1h1v-1h-1zm0-5v1h1V7h-1zm0-5v1h1V2h-1z" id="icon_x5F_fg"/></svg>