<svg xmlns="http://www.w3.org/2000/svg" viewBox="0 0 32 32"><style>.st0{fill:#f6f6f6}.st1{fill:#424242}.st2{fill:#f0eff1}</style><path class="st0" d="M8 30c-2.508 0-3.806-1.839-3.979-3.661L4 26.277V6c0-2.598 2.061-4 4-4h11.733L28 10.164V26c-.007 1.896-1 3.932-4 3.992V30H8z" id="outline"/><g id="icon_x5F_bg"><path class="st1" d="M18.912 4H8S6 4 6 6v20.277S6.32 28 8 28h16.111l-.06-.007C25.993 27.955 26 26 26 26V11l-7.088-7zM19 6v6h5v14H8V6h11z"/><circle class="st1" cx="11.5" cy="14.5" r="1.5"/><path class="st1" d="M14 14h7v1h-7zM14 18h7v1h-7zM14 22h7v1h-7zM11.5 21a1.5 1.5 0 1 0 0 3 1.5 1.5 0 0 0 0-3zm0 2a.5.5 0 1 1 0-1 .5.5 0 0 1 0 1zM11.5 17a1.5 1.5 0 1 0 0 3 1.5 1.5 0 0 0 0-3zm0 2a.5.5 0 1 1 0-1 .5.5 0 0 1 0 1z"/></g><g id="icon_x5F_fg"><circle class="st2" cx="11.5" cy="22.5" r=".5"/><circle class="st2" cx="11.5" cy="18.5" r=".5"/><path class="st2" d="M19 12V6H8v20h16V12h-5zm-7.5 4a1.5 1.5 0 1 1-.001-2.999A1.5 1.5 0 0 1 11.5 16zm0 4a1.5 1.5 0 1 1 0-3 1.5 1.5 0 0 1 0 3zm0 4a1.5 1.5 0 1 1 0-3 1.5 1.5 0 0 1 0 3zm9.5-1h-7v-1h7v1zm0-4h-7v-1h7v1zm0-4h-7v-1h7v1z"/></g></svg>