<svg xmlns="http://www.w3.org/2000/svg" viewBox="0 0 16 16"><style>.st0{opacity:0}.st0,.st1{fill:#f6f6f6}.st2{fill:#424242}.st3{fill:#f0eff1}</style><g id="outline"><path class="st0" d="M0 0h16v16H0z"/><path class="st1" d="M16 1v10h-2v2h-2v2H1V5h2V3h2V1h11z"/></g><g id="icon_x5F_bg"><path class="st2" d="M2 6v8h9V6H2zm8 7H3V8h7v5z"/><path class="st2" d="M13 4v8h-1V5H4V4z"/><path class="st2" d="M15 2v8h-1V3H6V2zM4 9h4v1H4zM4 11h3v1H4z"/></g><path class="st3" d="M3 13h7V8H3v5zm1-4h4v1H4V9zm0 2h3v1H4v-1z" id="icon_x5F_fg"/></svg>