<svg xmlns="http://www.w3.org/2000/svg" viewBox="0 0 16 16" enable-background="new 0 0 16 16"><style type="text/css">.icon-canvas-transparent{opacity:0;fill:#F6F6F6;} .icon-vs-out{fill:#F6F6F6;} .icon-vs-bg{fill:#424242;} .icon-vs-fg{fill:#F0EFF1;}</style><path class="icon-canvas-transparent" d="M16 16h-16v-16h16v16z" id="canvas"/><path class="icon-vs-out" d="M1 16v-16h8.621l4.379 4.379v11.621h-13z" id="outline"/><path class="icon-vs-fg" d="M12 14h-9v-12h5v4h4v8zm-3-11.793l2.793 2.793h-2.793v-2.793z" id="iconFg"/><path class="icon-vs-bg" d="M9.207 1h-7.207v14h11v-10.207l-3.793-3.793zm-.207 1.207l2.793 2.793h-2.793v-2.793zm3 11.793h-9v-12h5v4h4v8zm-7-7v2h-1v4h1v.693l2.081-.693h1.919v-1h2v-5h-6zm3 5h-1l-1 .307v-.307h-1v-2h3v2zm2-1h-1v-2h-3v-1h4v3z" id="iconBg"/></svg>