<svg xmlns="http://www.w3.org/2000/svg" viewBox="0 0 16 16"><style>.st0{opacity:0}.st0,.st1{fill:#f6f6f6}.st2{fill:#424242}.st3{fill:#f0eff1}</style><g id="outline"><path class="st0" d="M0 0h16v16H0z"/><path class="st1" d="M6 14s0-1-1.235-1H0V1h6c.9.007 1.481.616 1.999 1C8.517 1.618 9.11 1 10 1h6v12h-4.766C10 13 10 14 10 14H6z"/></g><path class="st2" d="M10 2c-.874 0-1.28.364-2.001 1C7.288 2.374 6.894 2.007 6 2H1v10h4.265c.768 0 1.424.475 1.735 1h2c.309-.525.967-1 1.734-1H15V2h-5zm-3 9.328C6.45 10.988 5.989 11 5.265 11H2V3h3.341C6.286 3 7 3.6 7 4v7.328zM14 11h-3.266c-.723 0-1.183-.012-1.734.328V3.967C9 3.508 9.645 3 10.628 3H14v8z" id="icon_x5F_bg"/><g id="icon_x5F_fg"><path class="st3" d="M5.341 3H2v8h3.265c.724 0 1.185-.012 1.735.328V4c0-.4-.714-1-1.659-1zM10.628 3C9.645 3 9 3.508 9 3.967v7.361c.551-.34 1.011-.328 1.734-.328H14V3h-3.372z"/></g></svg>