<svg xmlns="http://www.w3.org/2000/svg" viewBox="0 0 16 16"><style>.st0{opacity:0}.st0,.st1{fill:#f6f6f6}.st2{fill:#424242}.st3{fill:#f0eff1}</style><g id="outline"><path class="st0" d="M0 0h16v16H0z"/><path class="st1" d="M0 0v16h16V0z"/></g><g id="icon_x5F_bg"><path class="st2" d="M11 8l1-1V5h-2L9 6h1.293L6.354 9.939l.707.707L11 6.707zM3 7l1-1v2h.414L5 8.586V6l1 1V5.5L4.5 4 3 5.5zM2 15v-.586L1.414 15zM6 15h.586L6 14.414z"/><path class="st2" d="M1 1v9.586l1-1V4h12v10h-2.5l1.5-1.5-1.5-1.5H10l1 1H8v1h3l-1 1H8v1h7V1z"/><path class="st2" d="M1 12v2l2-2v3h2v-3l2 2v-2L4 9z"/></g><g id="icon_x5F_fg"><path class="st3" d="M4.5 4L6 5.5V7L5 6v2.586l1.354 1.353L10.293 6H9l1-1h2v2l-1 1V6.707l-3.939 3.939.939.94V12h3l-1-1h1.5l1.5 1.5-1.5 1.5H14V4zM2 9.586L3.586 8H4V6L3 7V5.5L4.5 4H2z"/><path class="st3" d="M8 14h2l1-1H8z"/></g></svg>