<svg xmlns="http://www.w3.org/2000/svg" viewBox="0 0 16 16"><style>.icon-canvas-transparent{opacity:0;fill:#f6f6f6}.icon-vs-out{fill:#f6f6f6}.icon-vs-bg{fill:#424242}.icon-vs-fg{fill:#f0eff1}</style><path class="icon-canvas-transparent" d="M16 16H0V0h16v16z" id="canvas"/><path class="icon-vs-out" d="M16 13.111v.83L13.93 16h-2.484l-.878-.878.11-.111H9.371l-1.584.905L7.64 16H5.447L4 15.035v-.669l-.512.293L0 12.566V7.42l.881-.503V5.192l-.062.061L0 4.435v-2.6L1.835 0h1.122l3.151 3.168-1.774 1.775.178-.102L7.278 6.5l2.488-2.488h-.088V1.016h5.229l-.015 5.263h-2.993l-.001-.157-2.065 2.065L11 8.965v2.584l1.719-1.719L16 13.111z" id="outline"/><path class="icon-vs-bg" d="M12.17 3.022l-1.493-.005v-1h3.227l-.009 3.263h-1l-.005-1.564-3.905 3.905-.444-.296L8 7.634v-.442l4.17-4.17zm.548 8.222l-.707.707 1.052 1.06H11v1h2.081L11.98 15.12l.707.707L15 13.525l-2.282-2.281zM1.881 2.79v3.555l1-.571V2.773l1.109 1.1.707-.707L2.396.853.114 3.135l.707.707 1.06-1.052zM10 9.5v4l-3.5 2-1.5-1v-1.857l-1.5.857L1 12V8l3.5-2L7 7.5v1.857L8.5 8.5l1.5 1zm-7 .29l-1-.643v2.272l1 .643V9.79zm.5-.866l1.989-1.136-.989-.636-1.989 1.136.989.636zM6 8.647L4 9.79v2.272l1-.571V10.5l1-.571V8.647z" id="iconBg"/><path class="icon-vs-fg" d="M2 9.147l1 .643v2.272l-1-.642V9.147zm2.5-1.995L2.511 8.288l.989.636 1.989-1.136-.989-.636zM4 9.79v2.272l1-.571V10.5l1-.571V8.647L4 9.79z" id="iconFg"/></svg>