<svg xmlns="http://www.w3.org/2000/svg" viewBox="0 0 16 16"><style>.icon-canvas-transparent{opacity:0;fill:#f6f6f6}.icon-vs-out{fill:#f6f6f6}.icon-vs-bg{fill:#424242}</style><path class="icon-canvas-transparent" d="M16 16H0V0h16v16z" id="canvas"/><path class="icon-vs-out" d="M16 12.992v1.067L14.049 16h-2.484l-.878-.878.11-.111H8.403L7.414 16H2v-.989H1V11H0V6h1v-.808l-.062.061L0 4.315V1.954L1.954 0h1.122l3.151 3.168-2.116 2.118L4 5.175V6h3.897l1.987-1.987h-.087V1.016h5.229l-.015 5.263h-2.993l-.001-.157-5.106 5.107c-.016.074-.027.148-.048.221l.137.136.425.425h3.355l-.062-.063 2.118-2.118L16 12.992z" id="outline"/><path class="icon-vs-bg" d="M5 11l1 1v3H3v-3l1-1V9H2.876v.025A.99.99 0 0 0 2 10H1V7h1c0 .205.075.384.182.54.028.043.055.089.089.127.156.164.367.277.604.308v.007C2.917 7.987 2.957 8 3 8h1V7h4v1c-1.657 0-3 .448-3 1v2zm1-1.686v1.271l.07.07 1.643-1.643c-.819.031-1.432.178-1.713.302zm3-3.003v1.414l4.009-4.009.005 1.562h1l.009-3.263h-3.227v1l1.493.005L9 6.311zm3.837 4.933l-.707.707 1.052 1.06H7v1h6.2l-1.101 1.109.707.707 2.313-2.301-2.282-2.282zM2 2.79V6h1V2.773l1.109 1.101.707-.707L2.515.853.233 3.135l.707.707L2 2.79z" id="iconBg"/></svg>