<svg xmlns="http://www.w3.org/2000/svg" viewBox="0 0 16 16"><style>.icon-canvas-transparent{opacity:0;fill:#f6f6f6}.icon-vs-out{fill:#f6f6f6}.icon-vs-bg{fill:#424242}.icon-vs-fg{fill:#f0eff1}</style><path class="icon-canvas-transparent" d="M16 16H0V0h16v16z" id="canvas"/><path class="icon-vs-out" d="M6.911 11.228c-.016.074-.027.148-.048.221l.562.562h3.355l-.062-.063 2.118-2.118L16 12.992v1.067L14.049 16h-2.484l-.878-.878.11-.111H8.403L7.414 16h-.828l-.989-.989H1v-2.069C.383 12.31 0 11.45 0 10.5s.383-1.81 1-2.442V5.192l-.062.061L0 4.315V1.954L1.954 0h1.122l3.151 3.168-2.116 2.118L4 5.175V7.05a3.483 3.483 0 0 1 1.917.93l3.967-3.967h-.087V1.016h5.229l-.015 5.263h-2.993l-.001-.157-5.106 5.106z" id="outline"/><path class="icon-vs-bg" d="M15.119 13.525l-2.313 2.301-.707-.707L13.2 14.01H9.404l.01-.01-.989-.989h4.757l-1.052-1.06.707-.707 2.282 2.281zM2 2.79v4.561a3.473 3.473 0 0 1 1-.301V2.773l1.109 1.101.707-.707L2.515.853.233 3.135l.707.707L2 2.79zm2.449 11.073A3.351 3.351 0 0 1 3.5 14a3.464 3.464 0 0 1-1.5-.351v.361h2.596l-.147-.147zm6.348-11.847v1l1.493.005-5.76 5.76c.179.314.324.65.399 1.015l6.08-6.08.005 1.562h1l.009-3.263-3.226.001zM6 10.5A2.5 2.5 0 1 0 3.5 13a2.47 2.47 0 0 0 1.188-.313L7 15l1-1-2.313-2.313c.194-.355.313-.755.313-1.187zM3.5 12a1.5 1.5 0 1 1 .001-3.001A1.5 1.5 0 0 1 3.5 12z" id="iconBg"/><path class="icon-vs-fg" d="M5 10.5a1.5 1.5 0 1 1-3.001-.001A1.5 1.5 0 0 1 5 10.5z" id="iconFg"/></svg>