<svg xmlns="http://www.w3.org/2000/svg" viewBox="0 0 16 16"><style>.icon-canvas-transparent{opacity:0;fill:#f6f6f6}.icon-vs-out{fill:#f6f6f6}.icon-vs-bg{fill:#424242}.icon-vs-fg{fill:#f0eff1}</style><path class="icon-canvas-transparent" d="M16 16H0V0h16v16z" id="canvas"/><path class="icon-vs-out" d="M12.837 9.83l-1.969 1.969c.094-.406.159-.822.159-1.256a2.53 2.53 0 0 0-.009-.187 5.475 5.475 0 0 0-.723-2.511l1.722-1.723.001.157h2.993l.015-5.263H9.797v2.997h.087L8.162 5.736a5.457 5.457 0 0 0-2.635-.693c-.466 0-.916.065-1.348.174l2.049-2.049L3.076 0H1.954L0 1.954v2.361l.938.938L1 5.192v2.235a5.47 5.47 0 0 0-.95 3.59c.01.114.025.229.043.341l.001.121.033.083c.423 2.265 2.217 4.026 4.461 4.395l.111.022h.021a5.05 5.05 0 0 0 1.344.038 5.477 5.477 0 0 0 2.659-1.006h2.074l-.11.111.878.878h2.484L16 14.06v-1.067L12.837 9.83zM4.07 5.245c-.023.006-.047.011-.07.018v-.088l.07.07z" id="outline"/><path class="icon-vs-bg" d="M10.019 10.391a4.497 4.497 0 1 0-8.972.541 4.74 4.74 0 0 0 .047.354 4.49 4.49 0 0 0 3.696 3.691l.013.002c.112.02.225.035.338.045a4.105 4.105 0 0 0 .825-.001 4.503 4.503 0 0 0 4.061-4.479c0-.054-.008-.103-.008-.153zM8.58 8.459a7.14 7.14 0 0 1-1.255.319 7.571 7.571 0 0 0-.589-1.725c.757.262 1.4.759 1.844 1.406zM5.056 6.88c.154-.02.311-.033.471-.033.106 0 .21.008.313.016a6.98 6.98 0 0 1 .786 1.997c-.368.025-.729.029-1.095.025-.386-.004-.759-.03-1.119-.071.15-.782.398-1.424.644-1.934zm-.742 2.607c.387.044.79.056 1.209.056h.259c.314 0 .632.012.956-.012.025.219.044.451.046.683.004.372-.044.778-.135 1.208-.376.025-.744.037-1.118.035-.41-.006-.802-.035-1.182-.079a7.861 7.861 0 0 1-.079-1.153c.002-.247.02-.507.044-.738zm-.126-2.386a8.58 8.58 0 0 0-.471 1.613 12.649 12.649 0 0 1-1.223-.281 3.7 3.7 0 0 1 1.694-1.332zm-2.357 3.442a3.7 3.7 0 0 1 .31-1.48c.44.131.932.254 1.478.346a8.697 8.697 0 0 0-.05.81c-.004.342.021.694.063 1.051a12.757 12.757 0 0 1-1.788-.467 3.187 3.187 0 0 1-.013-.26zm.151 1.044c.513.157 1.101.31 1.765.415.132.673.349 1.359.631 2.053a3.706 3.706 0 0 1-2.396-2.468zm3.607 2.648c-.021.001-.041.004-.063.004-.109 0-.217-.008-.324-.018a11.03 11.03 0 0 1-.725-2.124 11.327 11.327 0 0 0 1.304.061c.224 0 .45-.006.678-.018a13.556 13.556 0 0 1-.87 2.095zm.828-.108c.35-.737.62-1.424.795-2.054a8.165 8.165 0 0 0 1.856-.472 3.701 3.701 0 0 1-2.651 2.526zm2.794-3.344a7.525 7.525 0 0 1-1.831.555c.07-.393.108-.768.104-1.119a7.64 7.64 0 0 0-.049-.743 8.07 8.07 0 0 0 1.489-.388c.191.445.298.938.298 1.455.001.08-.007.16-.011.24zm-.205-4.478l3.284-3.284-1.493-.005v-1h3.227l-.009 3.263h-1l-.005-1.562-3.293 3.292a5.499 5.499 0 0 0-.711-.704zm6.113 7.22l-2.313 2.301-.707-.707L13.2 14.01H9.782c.25-.308.463-.643.642-1h2.758l-1.052-1.06.707-.707 2.282 2.282zM2 2.79L.94 3.842l-.707-.707L2.514.853l2.301 2.313-.706.707L3 2.773v2.89a5.52 5.52 0 0 0-1 .665V2.79z" id="iconBg"/><path class="icon-vs-fg" d="M7.419 9.484A8.155 8.155 0 0 0 8.896 9.1c.19.442.297.93.297 1.443 0 .08-.008.159-.012.238a7.545 7.545 0 0 1-1.817.551c.07-.391.107-.762.104-1.111a7.556 7.556 0 0 0-.049-.737zm-1.83 4.721c.379-.754.668-1.445.862-2.078-.226.012-.45.017-.672.017-.085 0-.171 0-.257-.002a10.802 10.802 0 0 1-1.036-.058c.152.688.398 1.396.719 2.106.106.01.213.018.321.018.022.001.042-.002.063-.003zm1.051-2.792c.09-.426.137-.83.133-1.198a6.524 6.524 0 0 0-.045-.68c-.321.024-.637.008-.948.008h-.257c-.416 0-.815-.008-1.199-.051-.024.229-.041.49-.043.735-.004.372.024.755.078 1.144.376.043.766.073 1.172.078.371.002.736-.01 1.109-.036zm-4.765-.612c.496.167 1.088.338 1.773.463a8.444 8.444 0 0 1-.063-1.043c.003-.279.022-.543.049-.803a12.588 12.588 0 0 1-1.466-.343c-.196.45-.308.946-.308 1.468.001.087.008.172.015.258zm2.512 3.224a11.11 11.11 0 0 1-.626-2.035 12.835 12.835 0 0 1-1.75-.412 3.674 3.674 0 0 0 2.376 2.447zm4.652-2.432a8.077 8.077 0 0 1-1.84.468 12.815 12.815 0 0 1-.789 2.037 3.676 3.676 0 0 0 2.629-2.505zm-2.303-4.54c.235.492.451 1.063.589 1.725a7.14 7.14 0 0 0 1.255-.319 3.707 3.707 0 0 0-1.844-1.406zm-1.68-.173a7.803 7.803 0 0 0-.644 1.934c.359.041.733.067 1.119.071.366.004.728 0 1.095-.025a6.975 6.975 0 0 0-.787-1.998 3.976 3.976 0 0 0-.312-.015c-.16 0-.317.013-.471.033zM2.494 8.433c.372.105.779.202 1.223.281a8.39 8.39 0 0 1 .471-1.613 3.7 3.7 0 0 0-1.694 1.332z" id="iconFg"/></svg>