<svg xmlns="http://www.w3.org/2000/svg" viewBox="0 0 16 16"><style>.st0{opacity:0}.st0,.st1{fill:#f6f6f6}.st2{fill:#424242}.st3{fill:#f0eff1}</style><g id="outline"><path class="st0" d="M0 0h16v16H0z"/><path class="st1" d="M9.845 12.26L16 8.566v-.98L8.414 0h-.98L3.741 6.155l1.108 1.108L4 8.111V6.586l-4 4V16h5.414l4-4H7.889l.848-.849z"/></g><path class="st2" d="M8 1L5 6l1.263 1.263L3 10.525V9l-2 2v4h4l2-2H5.475l3.263-3.263L10 11l5-3-7-7zm1.444 8.03l1.793-1.793-2.474-2.474L6.97 6.556l-.71-.71 1.939-3.232 5.189 5.188-3.233 1.938-.711-.71z" id="icon_x5F_bg"/><path class="st3" d="M6.259 5.845l1.94-3.232 5.189 5.188-3.233 1.939-.711-.71 1.793-1.793-2.474-2.474L6.97 6.556z" id="icon_x5F_fg"/></svg>