<svg xmlns="http://www.w3.org/2000/svg" width="16" height="16"><style type="text/css">.icon-canvas-transparent{opacity:0;fill:#F6F6F6;} .icon-vs-out{fill:#F6F6F6;} .icon-vs-bg{fill:#424242;} .icon-vs-fg{fill:#F0EFF1;}</style><path class="icon-canvas-transparent" d="M16 16h-16v-16h16v16z" id="canvas"/><path class="icon-vs-out" d="M16 0v15h-13v-9h-3v-6h16z" id="outline"/><path class="icon-vs-bg" d="M1 1v4h3v9h11v-13h-14zm3 3h-2v-2h2v2zm3 9h-2v-2h2v2zm0-3h-2v-2h2v2zm0-3h-2v-2h2v2zm7 6h-6v-2h6v2zm0-3h-6v-2h6v2zm0-3h-6v-2h6v2zm0-3h-9v-2h9v2z" id="iconBg"/><path class="icon-vs-fg" d="M14 2v2h-9v-2h9zm-12 2h2v-2h-2v2zm6 3h6v-2h-6v2zm0 3h6v-2h-6v2zm0 3h6v-2h-6v2zm-3-6h2v-2h-2v2zm0 3h2v-2h-2v2zm0 3h2v-2h-2v2z" id="iconFg"/></svg>