<svg xmlns="http://www.w3.org/2000/svg" viewBox="0 0 16 16"><style>.st0{opacity:0}.st0,.st1{fill:#f6f6f6}.st2{fill:url(#SVGID_1_)}.st3{fill:url(#SVGID_2_)}.st4{fill:url(#SVGID_3_)}.st5{fill:#424242}</style><g id="outline"><path class="st0" d="M0 0h16v16H0z"/><path class="st1" d="M16 8.929L14.858.936l-8.223.587L0 6.5v.794l4.931 7.67 8.752.584L16 9.176z"/></g><g id="background"><radialGradient id="SVGID_1_" cx="5.041" cy=".584" r="10.501" gradientTransform="matrix(1 0 0 .7971 0 .118)" gradientUnits="userSpaceOnUse"><stop offset="0" stop-color="#424242"/><stop offset=".318" stop-color="#424242"/><stop offset=".341" stop-color="#4b4b4b"/><stop offset=".607" stop-color="#b1b1b1"/><stop offset=".726" stop-color="#dadada"/><stop offset=".787" stop-color="#dedede"/><stop offset=".846" stop-color="#e9e9e9"/><stop offset=".903" stop-color="#fcfcfc"/><stop offset=".909" stop-color="#fff"/></radialGradient><path class="st2" d="M2.5 7l5-3.667L13 3l-3 4z"/><radialGradient id="SVGID_2_" cx="4.229" cy="16.521" r="12.609" gradientUnits="userSpaceOnUse"><stop offset="0" stop-color="#424242"/><stop offset=".297" stop-color="#424242"/><stop offset=".36" stop-color="#525252"/><stop offset=".482" stop-color="#7c7c7c"/><stop offset=".652" stop-color="#bfbfbf"/><stop offset=".715" stop-color="#dadada"/><stop offset="1" stop-color="#dadada"/></radialGradient><path class="st3" d="M3 8l3 5 6.042.292L10 8z"/><radialGradient id="SVGID_3_" cx="20.791" cy="9.354" r="10.009" gradientUnits="userSpaceOnUse"><stop offset=".17" stop-color="#424242"/><stop offset=".302" stop-color="#464646"/><stop offset=".437" stop-color="#525252"/><stop offset=".574" stop-color="#676767"/><stop offset=".711" stop-color="#838383"/><stop offset=".849" stop-color="#a8a8a8"/><stop offset=".986" stop-color="#d5d5d5"/><stop offset="1" stop-color="#dadada"/></radialGradient><path class="st4" d="M11 7.5L13.5 4l.833 4.75-1.458 3.875z"/><path class="st5" d="M14 2l-7 .5L1 7l4.5 7 7.5.5L15 9l-1-7zM7.5 3.333L13 3l-3 4H2.5l5-3.667zM6 13L3 8h7l2.042 5.292L6 13zm6.875-.375L11 7.5 13.5 4l.833 4.75-1.458 3.875z"/></g></svg>