<svg xmlns="http://www.w3.org/2000/svg" viewBox="0 0 16 16"><style>.icon-canvas-transparent{opacity:0;fill:#f6f6f6}.icon-vs-out{fill:#f6f6f6}.icon-vs-bg{fill:#424242}.icon-vs-fg{fill:#f0eff1}.icon-vs-red{fill:#e51400}</style><path class="icon-canvas-transparent" d="M16 16H0V0h16v16z" id="canvas"/><path class="icon-vs-out" d="M16 1v15H2V8.414l-2-2V5.59l1.586-1.607L0 2.418v-.832L1.586 0h.828l1 1h1.172l1-1h.828l1 1H16z" id="outline"/><path class="icon-vs-bg" d="M7.414 7l.996-.995L7.418 5H12v2H7.414zm1-5l.005.005L7.41 3H14v11H5V7.414l-1-1L3.414 7H4v1H3v1h1v1H3v1h1v1H3v1h1v1H3v1h12V2H8.414z" id="iconBg"/><path class="icon-vs-fg" d="M14 3v11H5V7.414l1 1L7.414 7H12V5H7.418L6.414 3.982 7.41 3H14z" id="iconFg"/><g id="colorAction"><path class="icon-vs-red" d="M5 3.973L7 6 6 7 4 5 2 7 1 6l2-2.027L1 2l1-1 2 2 2-2 1 1-2 1.973z"/></g></svg>