<svg xmlns="http://www.w3.org/2000/svg" viewBox="0 0 16 16"><style>.icon-canvas-transparent{opacity:0;fill:#f6f6f6}.icon-vs-out{fill:#f6f6f6}.icon-vs-bg{fill:#424242}</style><path class="icon-canvas-transparent" d="M16 16H0V0h16v16z" id="canvas"/><path class="icon-vs-out" d="M10.976 10.976A5.506 5.506 0 0 1 5.5 16 5.506 5.506 0 0 1 0 10.5a5.506 5.506 0 0 1 5.024-5.476A5.506 5.506 0 0 1 10.5 0C13.532 0 16 2.467 16 5.5a5.506 5.506 0 0 1-5.024 5.476z" id="outline"/><g id="iconBg"><path class="icon-vs-bg" d="M5.5 6a4.5 4.5 0 1 0 0 9 4.5 4.5 0 0 0 0-9zm0 8C3.57 14 2 12.43 2 10.5S3.57 7 5.5 7 9 8.57 9 10.5 7.43 14 5.5 14z"/><path class="icon-vs-bg" d="M10.5 1C8.176 1 6.287 2.768 6.048 5.028c.337.034.664.101.981.193C7.174 3.423 8.666 2 10.5 2 12.43 2 14 3.57 14 5.5c0 1.834-1.423 3.326-3.22 3.472.092.317.159.643.193.981C13.233 9.713 15 7.824 15 5.5A4.5 4.5 0 0 0 10.5 1z"/></g></svg>