<svg xmlns="http://www.w3.org/2000/svg" viewBox="0 0 16 16"><style>.st0{opacity:0}.st0,.st1{fill:#f6f6f6}.st2{fill:#424242}.st3{fill:#00539c}</style><g id="outline"><path class="st0" d="M0 0h16v16H0z"/><path class="st1" d="M16 0H5v2H0v12h3l-2 2h6l1-1h8V0zM4 6h1v2H4V6z"/></g><g id="icon_x5F_bg"><path class="st2" d="M6 7h6v1H6zM13 7h2v1h-2zM6 4h6v1H6zM13 4h2v1h-2zM6 1h6v1H6zM13 1h2v1h-2zM13 10h2v1h-2zM13 13h2v1h-2zM9 10l1 1h2v-1zM10 13l-1 1h3v-1z"/></g><path class="st3" d="M6 9H4l2 2H3V5h2V3H1v10h5l-2 2h2l3-3-3-3z" id="color_x5F_importance"/></svg>