<svg xmlns="http://www.w3.org/2000/svg" viewBox="0 0 16 16"><style>.icon-canvas-transparent{opacity:0;fill:#f6f6f6}.icon-vs-out{fill:#f6f6f6}.icon-vs-bg{fill:#424242}.icon-vs-action-red{fill:#a1260d}</style><path class="icon-canvas-transparent" d="M16 16H0V0h16v16z" id="canvas"/><path class="icon-vs-out" d="M6 15.832V8.414l-2-2-2 2-2-2V5.59l1.586-1.607L0 2.418v-.832L1.586 0h.828L4 1.586 5.586 0h.828l2.005 2.005L6.75 3.651l9.1 5.849L6 15.832z" id="outline"/><path class="icon-vs-bg" d="M14 9.5L7 14V7.414l1.41-1.409L8.405 6h.151L14 9.5z" id="iconBg"/><path class="icon-vs-action-red" d="M5 3.973L7 6 6 7 4 5 2 7 1 6l2-2.027L1 2l1-1 2 2 2-2 1 1-2 1.973z" id="colorAction"/></svg>