<svg xmlns="http://www.w3.org/2000/svg" viewBox="0 0 16 16"><style>.icon-canvas-transparent{opacity:0;fill:#f6f6f6}.icon-vs-out{fill:#f6f6f6}.icon-vs-bg{fill:#424242}.icon-vs-fg{fill:#f0eff1}.icon-vs-action-red{fill:#a1260d}</style><path class="icon-canvas-transparent" d="M16 16H0V0h16v16z" id="canvas"/><path class="icon-vs-out" d="M16 4v12H2V8.414l-2-2V5.59l1.586-1.607L0 2.418v-.832L1.586 0h.828L4 1.586 5.586 0h.828l2.005 2.005-2.005 1.977.017.018H16z" id="outline"/><path class="icon-vs-bg" d="M13 13H5v-.793l1.446-1.445L7.601 12.3a.485.485 0 0 0 .42.2.504.504 0 0 0 .403-.234l2.604-3.367L13 11.66V13zM5 7.414v3.379l1.146-1.147a.497.497 0 0 1 .753.054l1.063 1.417 2.614-3.382a.5.5 0 0 1 .831-.026L13 9.939V7H7.414L6 8.414l-1-1zM7.418 5l.987 1H14v8H4V6.414l-1 1V15h12V5H7.418z" id="iconBg"/><path class="icon-vs-fg" d="M8.405 6l.005.005L7.414 7H13v2.939l-1.593-2.23a.498.498 0 0 0-.831.026l-2.614 3.382L6.899 9.7a.493.493 0 0 0-.363-.198.492.492 0 0 0-.39.145L5 10.793V7.414l-1-1V14h10V6H8.405zM13 13H5v-.793l1.446-1.445L7.601 12.3a.485.485 0 0 0 .42.2.504.504 0 0 0 .403-.234l2.604-3.367L13 11.66V13z" id="iconFg"/><path class="icon-vs-action-red" d="M5.03 4.03L7 6 5.939 7.061l-1.97-1.97L2 7.061.939 6l1.97-1.97-1.97-1.97L2 1l1.97 1.97L5.939 1 7 2.06 5.03 4.03z" id="colorAction"/></svg>