<svg xmlns="http://www.w3.org/2000/svg" viewBox="0 0 16 16"><style>.icon-canvas-transparent{opacity:0;fill:#f6f6f6}.icon-vs-out{fill:#f6f6f6}.icon-vs-fg{fill:#f0eff1}.icon-vs-bg{fill:#424242}.icon-vs-action-red{fill:#a1260d}</style><path class="icon-canvas-transparent" d="M16 0v16H0V0h16z" id="canvas"/><path class="icon-vs-out" d="M15 6v4a3.98 3.98 0 0 1-2.5 3.701V16h-3v-2.299A3.98 3.98 0 0 1 7 10V7.414L5.939 8.475l-1.97-1.97L2 8.475l-2-2v-.95L1.495 4.03 0 2.535v-.949L1.586 0h.828L3.97 1.556 5.525 0h.828l2.061 2.061-1.97 1.97L8 5.586V4h6v2h1z" id="outline"/><path class="icon-vs-fg" d="M9 7v2c0 1.102.897 2 2 2 1.102 0 2-.898 2-2V7H9z" id="iconFg"/><path class="icon-vs-bg" d="M13 7V5h-1v2h-2V5H9v2H8v3a2.999 2.999 0 0 0 2.5 2.95V15h1v-2.05A2.999 2.999 0 0 0 14 10V7h-1zm-2 5c-1.103 0-2-.898-2-2V8h4v2c0 1.102-.898 2-2 2z" id="iconBg"/><g id="colorAction"><path class="icon-vs-action-red" d="M5.03 4.03L7 6 5.939 7.061l-1.97-1.97L2 7.061.939 6l1.97-1.97-1.97-1.97L2 1l1.97 1.97L5.939 1 7 2.06 5.03 4.03z"/></g></svg>