<svg xmlns="http://www.w3.org/2000/svg" viewBox="0 0 16 16"><style>.st0{opacity:0}.st0,.st1{fill:#f6f6f6}.st2{fill:#424242}.st3{fill:#f0eff1}</style><g id="outline"><path class="st0" d="M0 0h16v16H0z"/><path class="st1" d="M0 0v12h1.634c.118.102.241.198.366.288V15h5.171l.416.416A1.99 1.99 0 0 0 10.722 15H14v-3h2V0H0z"/></g><g id="icon_x5F_bg"><path class="st2" d="M11 14h2v-1h-2.276c.174.302.276.642.276 1zM5.172 13H3v1h3.171zM1 1v5.401c.337-.401.688-.67 1-.853V2h12v8H7.866c-.002.011-.003.021-.006.031L10 12.172V11h5V1H1z"/><path class="st2" d="M9.707 13.293L6.7 10.286C6.887 9.895 7 9.463 7 9a3 3 0 0 0-3-3 2.97 2.97 0 0 0-.859.14L5 8l-2 2-1.859-1.86A2.95 2.95 0 0 0 1 9a3 3 0 0 0 3 3c.463 0 .895-.113 1.286-.3l3.006 3.007a1.001 1.001 0 0 0 1.415-1.414z"/></g><path class="st3" d="M2 2v3.548c.479-.282.852-.365.852-.365A3.938 3.938 0 0 1 4 5c2.206 0 4 1.794 4 4 0 .337-.046.671-.134 1H14V2H2z" id="icon_x5F_fg"/></svg>