<svg xmlns="http://www.w3.org/2000/svg" viewBox="0 0 16 16"><style>.st0{opacity:0}.st0,.st1{fill:#f6f6f6}.st2{fill:#424242}.st3{fill:#f0eff1}</style><g id="outline"><path class="st0" d="M0 0h16v16H0z"/><path class="st1" d="M1 1h14v14H1z"/></g><g id="icon_x5F_bg"><path class="st2" d="M11 5h-.344L7.988 7.385l-1.833-2.2c-.238-.263-.72-.229-.955 0a.65.65 0 0 0 0 .938L7.3 8 5.2 9.878a.65.65 0 0 0 0 .937c.234.228.716.264.955 0l1.833-2.2L10.656 11H11L8.5 8 11 5z"/><path class="st2" d="M2 2v12h12V2H2zm11 11H3V3h10v10z"/></g><path class="st3" d="M3 3v10h10V3H3zm8 8h-.344L7.988 8.615l-1.833 2.2c-.238.264-.72.228-.955 0a.65.65 0 0 1 0-.937L7.3 8 5.2 6.122a.65.65 0 0 1 0-.938c.234-.229.716-.263.955 0l1.833 2.2L10.656 5H11L8.5 8l2.5 3z" id="icon_x5F_fg"/></svg>