<svg xmlns="http://www.w3.org/2000/svg" width="16" height="16"><style type="text/css">.icon-canvas-transparent{opacity:0;fill:#F6F6F6;} .icon-vs-out{fill:#F6F6F6;} .icon-vs-bg{fill:#424242;}</style><path class="icon-canvas-transparent" d="M16 0v16h-16v-16h16z" id="canvas"/><path class="icon-vs-out" d="M10 4v-4h3v4h1v8h-1v4h-3v-4h-1v-8h1zm-7-1h-1v10h1v3h3v-3h1v-10h-1v-3h-3v3z" id="outline"/><g id="iconBg"><path class="icon-vs-bg" d="M6 4v8h-3v-8h3zm6 0v-3h-1v3h1zm-8 11h1v-2h-1v2zm6-4h3v-6h-3v6zm-6-8h1v-2h-1v2zm8 12v-3h-1v3h1z"/></g></svg>