<svg xmlns="http://www.w3.org/2000/svg" viewBox="0 0 16 16"><style>.st0{fill:#f6f6f6}.st1{opacity:0;fill:#fff}.st2{fill:#424242}.st3{fill:#f0eff1}</style><g id="outline"><path class="st0" d="M12 4V0H0v12h4v4h12V4h-4z"/><path class="st1" d="M0 0h16v16H0z"/></g><g id="icon_x5F_bg"><path class="st2" d="M2 2h8v2h1V1H1v10h3v-1H2zM12 5v1h2v8H6v-2H5v3h10V5z"/><path class="st2" d="M6 6h4v4H6z"/><path class="st2" d="M11 5V1H1v10h4V5z"/><path class="st2" d="M11 5v6H5v4h10V5z"/></g><path class="st3" d="M5 5v6h6V5H5zm5 5H6V6h4v4z" id="icon_x5F_fg"/></svg>