<svg xmlns="http://www.w3.org/2000/svg" viewBox="0 0 16 16"><style>.st0{opacity:0}.st0,.st1{fill:#f6f6f6}.st2{fill:#424242}.st3{fill:#00539c}.st4{fill:#f0eff1}</style><g id="outline"><path class="st0" d="M0 0h16v16H0z"/><path class="st1" d="M16 6c0-3.309-2.691-6-6-6-1.294 0-2.49.416-3.471 1.115L5.414 0h-.242L0 5.171v.243l2.707 2.707 1.349-1.349c.008.061.018.12.027.18-.311.31-.601.696-.875 1.183l-.709-.01-.736 2.521h.664l-.646 2.452a1.653 1.653 0 0 0-.24-.017c-.515 0-.858.207-1.055.381A1.407 1.407 0 0 0 0 14.523c0 .439.2.838.561 1.119.299.238.697.358 1.182.358.603 0 1.149-.159 1.625-.472.448-.294.835-.732 1.153-1.311.084-.154.166-.331.248-.53.073.152.173.289.296.408a1.49 1.49 0 0 0 1.066.411c.294 0 .577-.061.849-.186.243-.113.49-.302.775-.587.03-.03.067-.067.108-.111.16.253.353.453.573.597.291.191.637.288 1.026.288.395 0 .776-.126 1.122-.364.37-.248.718-.631 1.063-1.168l.353-.551v-.463l-.35-.197C14.158 11.045 16 8.736 16 6zm-9.345 5.609a1.544 1.544 0 0 0-.506-.087c-.279 0-.54.067-.768.196l.2-.768.821-.16c.166.125.338.241.517.349l.037.118a13.47 13.47 0 0 1-.301.352z"/></g><g id="icon_x5F_bg"><path class="st2" d="M15 6a4.992 4.992 0 0 1-3.85 4.854 1.42 1.42 0 0 0 .427-.291c.277-.278.423-.641.423-1.049 0-.532-.234-.874-.425-1.062-.193-.193-.539-.424-1.089-.424a1.883 1.883 0 0 0-1.303.519l-.343-.519h-.747c.038-.131.061-.28.061-.446 0-.398-.148-.756-.406-1.034A1.98 1.98 0 0 0 9 7a2 2 0 1 0-2-2c0 .53.21 1.009.547 1.367C7.238 6.128 6.833 6 6.329 6c-.463 0-.897.1-1.3.285C5.023 6.189 5 6.098 5 6c0-.065.017-.126.02-.191l3.102-3.102-.876-.875A4.964 4.964 0 0 1 10 1a5 5 0 0 1 5 5z"/><path class="st2" d="M5.028 9.135c.186-.739.432-1.279.739-1.619.186-.213.367-.318.545-.318a.13.13 0 0 1 .087.029.103.103 0 0 1 .035.08c0 .028-.025.084-.076.166a.46.46 0 0 0-.074.231c0 .103.039.19.117.263a.423.423 0 0 0 .297.109.429.429 0 0 0 .323-.135.487.487 0 0 0 .132-.359.513.513 0 0 0-.196-.42C6.826 7.054 6.616 7 6.329 7c-.45 0-.858.128-1.224.385-.367.256-.714.68-1.044 1.273-.115.203-.223.335-.325.393-.103.059-.266.087-.49.084l-.149.511h.627l-.919 3.496c-.152.574-.257.928-.312 1.061a1.268 1.268 0 0 1-.355.499.331.331 0 0 1-.229.085.1.1 0 0 1-.064-.023l-.022-.03c0-.015.022-.044.068-.089.045-.045.068-.115.068-.207a.332.332 0 0 0-.109-.254c-.071-.068-.175-.102-.309-.102a.57.57 0 0 0-.394.132.4.4 0 0 0-.147.309c0 .129.06.24.181.335.119.095.306.142.562.142.404 0 .764-.102 1.077-.309.314-.205.587-.523.822-.95.232-.429.474-1.12.72-2.075l.527-2.02h.634l.158-.512h-.653z"/><path class="st2" d="M10.486 9.028a.88.88 0 0 0-.416.103c-.13.068-.296.217-.497.443-.149.17-.372.465-.666.889-.117-.521-.317-1-.605-1.435H6.391v.746c.117-.022.527-.353.607-.353.157 0 .285.066.388.197.162.204.388.824.676 1.862-.226.295-.653.79-.737.88-.138.146-.253.24-.342.283a.484.484 0 0 1-.234.054c-.065 0-.175-.034-.324-.106a.694.694 0 0 0-.274-.069.522.522 0 0 0-.379.146.482.482 0 0 0-.147.367c0 .139.045.252.138.342.09.086.215.13.371.13.149 0 .291-.03.423-.091.132-.063.297-.192.497-.393.2-.199.748-.818 1.099-1.253.135.413.396 1.019.494 1.206.099.187.212.322.34.406a.868.868 0 0 0 .479.124.982.982 0 0 0 .566-.196c.252-.168.511-.461.775-.875l-.161-.091c-.182.243-.315.398-.401.459a.36.36 0 0 1-.204.058c-.092 0-.184-.058-.274-.173-.153-.191-.499-1.026-.754-1.901.228-.392.42-.646.575-.766a.584.584 0 0 1 .361-.131c.047 0 .135.016.258.049.126.033.235.051.331.051a.453.453 0 0 0 .332-.133.47.47 0 0 0 .13-.343.471.471 0 0 0-.132-.354c-.088-.089-.216-.132-.382-.132z"/></g><path class="st3" d="M2.707 6.707L1.293 5.293l4-4 1.414 1.414-4 4z" id="color_x5F_action"/><circle class="st4" cx="9" cy="5" r="2" id="icon_x5F_fg"/></svg>