<svg xmlns="http://www.w3.org/2000/svg" viewBox="0 0 16 16"><style>.st0{opacity:0}.st0,.st1{fill:#f6f6f6}.st2{fill:#424242}.st3{fill:#00539c}.st4{fill:#f0eff1}</style><g id="outline"><path class="st0" d="M0 0h16v16H0z"/><path class="st1" d="M9 3c-.456 0-.897.056-1.324.152l.445-.445L5.414 0h-.242L0 5.172v.242l2.707 2.707.445-.445A6.017 6.017 0 0 0 3 9c0 3.309 2.691 6 6 6s6-2.691 6-6-2.691-6-6-6z"/></g><path class="st2" d="M9 4a5 5 0 0 0-5 5 5 5 0 0 0 5 5 5 5 0 0 0 5-5 5 5 0 0 0-5-5zm-1 6a2 2 0 1 1 .001-4.001A2 2 0 0 1 8 10z" id="icon_x5F_bg"/><path transform="rotate(-45.001 4 4)" class="st3" d="M1.172 3h5.657v2H1.172z" id="color_x5F_action"/><circle class="st4" cx="8" cy="8" r="2" id="icon_x5F_fg"/></svg>