<svg xmlns="http://www.w3.org/2000/svg" viewBox="0 0 16 16"><style>.st0{opacity:0}.st0,.st1{fill:#f6f6f6}.st2{fill:#424242}</style><g id="outline"><path class="st0" d="M0 0h16v16H0z"/><path class="st1" d="M1.007 0h15v15h-15z"/></g><g id="icon_x5F_bg"><path class="st2" d="M2.007 1h1v1h-1zM2.007 3h1v1h-1zM2.007 5h1v1h-1zM2.007 7h1v1h-1zM2.007 9h1v1h-1zM2.007 11h1v1h-1zM2.007 13h1v1h-1zM4.007 13h1.001v1H4.007zM6.008 13h1v1h-1zM8.008 13h1v1h-1zM10.008 13h1v1h-1zM12.008 13h1v1h-1zM14.008 13h.999v1h-.999zM4.007 1h1.001v1H4.007zM6.008 1h1v1h-1zM8.008 1h1v1h-1zM10.008 1h1v1h-1zM12.008 1h1v1h-1zM14.008 1h.999v1h-.999zM14.008 3h.999v1h-.999zM14.008 5h.999v1h-.999zM14.008 7h.999v1h-.999zM14.008 9h.999v1h-.999zM14.008 11h.999v1h-.999zM5.008 7h7v5h-7zM5.008 3h3v3h-3zM9.008 3h3v3h-3z"/></g></svg>