<svg xmlns="http://www.w3.org/2000/svg" viewBox="0 0 16 16"><style>.st0{opacity:0}.st0,.st1{fill:#f6f6f6}.st2{fill:#424242}.st3{fill:#f0eff1}</style><g id="outline"><path class="st0" d="M0 0h16v16H0z"/><path class="st1" d="M15 1V0H4v1H3v6h1v1H1v1H0v6h1v1h11v-1h1V9h-1V8h3V7h1V1z"/></g><g id="icon_x5F_bg"><path class="st2" d="M15 2v4h-1v1h-1V6h-1v1h-1V6h-1v-.914L9.914 5H14V3H5v2h.086L5 5.086V6H4V2h1V1h1v1h1V1h1v1h1V1h1v1h1V1h1v1h1V1h1v1zM11 10V9h-1V10.914L9.914 11H11v2H2v-2h3.086L5 10.914V9H4v1H3V9H2v1H1v4h1v1h1v-1h1v1h1v-1h1v1h1v-1h1v1h1v-1h1v1h1v-1h1v-4z"/><path class="st2" d="M9 7V5.5L7.5 4 6 5.5V7l1-1v4L6 9v1.5L7.5 12 9 10.5V9l-1 1V6z"/></g><g id="icon_x5F_fg"><path class="st3" d="M7.086 3H5v2h.086zM7.914 3l2 2H14V3z"/><g><path class="st3" d="M2 11v2h5.086l-2-2zM9.914 11l-2 2H11v-2z"/></g></g></svg>