<svg xmlns="http://www.w3.org/2000/svg" viewBox="0 0 16 16"><style>.st0{opacity:0}.st0,.st1{fill:#f6f6f6}.st2{fill:#424242}</style><g id="outline"><path class="st0" d="M0 0h16v16H0z"/><path class="st1" d="M2 0v15h13V4l-4-4z"/></g><g id="icon_x5F_bg"><path class="st2" d="M5 1h1v1H5zM7 1h1v1H7zM13 5h1v1h-1zM9 5h1v1H9zM9 3h1v1H9zM3 1h1v1H3zM13 7h1v1h-1zM13 9h1v1h-1zM13 11h1v1h-1zM3 3h1v1H3zM3 5h1v1H3zM3 7h1v1H3zM3 9h1v1H3zM3 11h1v1H3zM7 13h1v1H7zM9 13h1v1H9zM11 13h1v1h-1zM3 13h1v1H3zM5 13h1v1H5zM13 13h1v1h-1zM9 1h1v1H9zM11 5h1v1h-1zM11 3h1v1h-1z"/></g></svg>