<svg xmlns="http://www.w3.org/2000/svg" viewBox="0 0 16 16"><style>.st0{opacity:0}.st0,.st1{fill:#f6f6f6}.st2{fill:#424242}.st3{fill:#f0eff1}</style><g id="outline"><path class="st0" d="M0 0h16v16H0z"/><path class="st1" d="M12.061 0H6.075a1.96 1.96 0 0 0-.149-.005C4.792-.005 4 .801 4 1.954v3.259c-2.305.655-4 2.775-4 5.287C0 13.532 2.467 16 5.5 16a5.49 5.49 0 0 0 4.239-2h4.294c1.245 0 1.942-1.006 1.967-1.977V3.556L12.061 0z"/></g><g id="icon_x5F_bg"><path class="st2" d="M11.676 1H6.029S5 .868 5 1.954v3.071C5.165 5.01 5.331 5 5.5 5s.335.01.5.025V2h5v3h3v7h-3.213c-.1.349-.231.683-.394 1h3.641c.943 0 .966-.977.966-.977V4l-3.324-3z"/><path class="st2" d="M5.5 6a4.5 4.5 0 1 0 0 9 4.5 4.5 0 0 0 0-9zm3.449 4H6V7.051A3.485 3.485 0 0 1 8.949 10zM5.5 14C3.57 14 2 12.43 2 10.5c0-1.391.822-2.585 2-3.149v2.68S3.711 12 5.993 12h2.656A3.495 3.495 0 0 1 5.5 14z"/></g><g id="icon_x5F_fg"><path class="st3" d="M11 5V2H6v3.025c2.799.254 5 2.611 5 5.475 0 .521-.077 1.023-.213 1.5H14V5h-3z"/><path class="st3" d="M8.949 10H6V7.051A3.485 3.485 0 0 1 8.949 10z"/><path class="st3" d="M5.667 12l-.026-.019c-1.037-.107-1.431-.678-1.574-1.176L4 10.755v-.299c-.025-.247 0-.425 0-.425v-2.68A3.495 3.495 0 0 0 2 10.5C2 12.43 3.57 14 5.5 14a3.495 3.495 0 0 0 3.149-2H5.667z"/></g></svg>