<?xml version="1.0" encoding="utf-8"?>
<!-- Generator: Adobe Illustrator 20.0.0, SVG Export Plug-In . SVG Version: 6.00 Build 0)  -->
<svg version="1.1" xmlns="http://www.w3.org/2000/svg" xmlns:xlink="http://www.w3.org/1999/xlink" x="0px" y="0px"
	 viewBox="0 0 16 16" style="enable-background:new 0 0 16 16;" xml:space="preserve">
<style type="text/css">
	.icon_x002D_canvas_x002D_transparent{opacity:0;fill:#F6F6F6;}
	.icon_x002D_vs_x002D_out{fill:#F6F6F6;}
	.icon_x002D_vs_x002D_bg{fill:#424242;}
	.icon_x002D_vs_x002D_blue{fill:#1BA1E2;}
</style>
<g id="canvas">
	<path id="XMLID_1_" class="icon_x002D_canvas_x002D_transparent" d="M16,16H0V0h16V16z"/>
</g>
<g id="outline">
	<path id="XMLID_3_" class="icon_x002D_vs_x002D_out" d="M16,8v3h-1v3H7v1H2v-5h4V5H2V0h5v1h7v3h-4v1h5v3H16z"/>
</g>
<g id="iconBg">
	<path id="XMLID_5_" class="icon_x002D_vs_x002D_bg" d="M13,2H7v1h6V2z M7,13h7v-1H7V13z M10,7h4V6h-4V7z M10,9v1h5V9H10z"/>
	<path class="icon_x002D_vs_x002D_blue" d="M3,1h3v3H3V1z M3,14h3v-3H3V14z M9,5H7v2h2V5z M9,8H7v2h2V8z"/>
	<g>
	</g>
	<g>
	</g>
	<g>
	</g>
	<g>
	</g>
	<g>
	</g>
	<g>
	</g>
</g>
</svg>
