<svg xmlns="http://www.w3.org/2000/svg" viewBox="0 0 16 16"><style>.icon-canvas-transparent{opacity:0;fill:#f6f6f6}.icon-vs-out{fill:#f6f6f6}.icon-vs-bg{fill:#424242}.icon-vs-fg{fill:#f0eff1}.icon-folder{fill:#dcb67a}</style><path class="icon-canvas-transparent" d="M0 0h16v16H0z" id="canvas"/><path class="icon-vs-out" d="M16 3.5v7c0 .827-.673 1.5-1.5 1.5H9v4H0V5h2V1.5C2 .673 2.673 0 3.5 0h7.118l1 2H14.5c.827 0 1.5.673 1.5 1.5z" id="outline"/><g id="iconBg"><path class="icon-folder" d="M14.5 3H11l-1-2H3.5a.5.5 0 0 0-.5.5V5h2.621L9 8.379V11h5.5a.5.5 0 0 0 .5-.5v-7a.5.5 0 0 0-.5-.5zM4 3V2h5l.5 1H4z"/><path class="icon-vs-bg" d="M5.207 6H1v9h7V8.793L5.207 6zM7 14H2V7h2v3h3v4zM5 9V7.207L6.793 9H5z"/></g><path class="icon-vs-fg" d="M9 2l.5 1H4V2h5z" id="iconFg"/></svg>