<svg xmlns="http://www.w3.org/2000/svg" viewBox="0 0 16 16"><style>.st0{opacity:0}.st0,.st1{fill:#f6f6f6}.st2{fill:#424242}.st3{fill:#f0eff1}</style><g id="outline"><path class="st0" d="M0 0h16v16H0z"/><path class="st1" d="M15 3v9H8v-1H6.323l-.4-1h-.846l-.4 1H1.523l2.8-7h2.354L8 7.309V3h7z"/></g><g id="icon_x5F_bg"><path class="st2" d="M14 4v3H9V4h2.5L10 6h3l-1.5-2zM9 11h2.5L10 9h3l-1.5 2H14V8H9zM6 5H5l-2 5h1l.4-1h2.2l.4 1h1L6 5zM4.8 8l.7-1.75L6.2 8H4.8z"/></g><path class="st3" d="M10 6l1.5-2L13 6h-3zm0 3l1.5 2L13 9h-3z" id="icon_x5F_fg"/></svg>