<svg xmlns="http://www.w3.org/2000/svg" viewBox="0 0 16 16"><style>.st0{opacity:0}.st0,.st1{fill:#f6f6f6}.st2{fill:#424242}.st3{fill:#f0eff1}</style><g id="outline"><path class="st0" d="M0 0h16v16H0z"/><path class="st1" d="M16 0H7v7H4v3H3v1H0v4h3v1h6v-1h3v-2h4z"/></g><g id="icon_x5F_bg"><path class="st2" d="M8 1v9h1v1h3v1h3V1H8zm6 10h-1v-1h1v1zm0-6H9V4h5v1zm0-2H9V2h5v1z"/><path class="st2" d="M8 12h3v2H8v1H4v-1H1v-2h3v-1h1V8h2v3h1z"/></g><path class="st3" d="M14 3H9V2h5v1zm0 1H9v1h5V4zm0 6h-1v1h1v-1z" id="icon_x5F_fg"/></svg>