<svg xmlns="http://www.w3.org/2000/svg" viewBox="0 0 16 16"><style>.icon-canvas-transparent{opacity:0;fill:#f6f6f6}.icon-vs-out{fill:#f6f6f6}.icon-vs-bg{fill:#424242}.icon-vs-fg{fill:#f0eff1}</style><path class="icon-canvas-transparent" d="M16 16H0V0h16v16z" id="canvas"/><path class="icon-vs-out" d="M16 1v9h-2v2h-2v2H6.121l-2 2H2v-2H0V5h2V3h2V1h12z" id="outline"/><path class="icon-vs-fg" d="M14 3v5h-1V4H6V3h8zM2 7h8v5H5.293L4 13.293V12H2V7zm5 3.445c.18-.041.341-.104.449-.197C7.652 10.074 8 9.542 8 9V8H7v1l.417-.022v.062c0 .279-.137.616-.417.808v.597zm-2 0c.18-.041.341-.104.449-.197C5.652 10.074 6 9.542 6 9V8H5v1l.417-.022v.062c0 .279-.137.617-.417.808v.597zM4 6h7v4h1V5H4v1z" id="iconFg"/><g id="iconBg"><path class="icon-vs-bg" d="M5 2v2H3v2H1v7h2v2.707L5.707 13H11v-2h2V9h2V2H5zm5 10H5.293L4 13.293V12H2V7h8v5zm2-2h-1V6H4V5h8v5zm2-2h-1V4H6V3h8v5zM5 9l.417-.022v.062c0 .279-.137.617-.417.808v.597c.18-.041.341-.104.449-.197C5.652 10.074 6 9.542 6 9V8H5v1zm2 0l.417-.022v.062c0 .279-.137.616-.417.808v.597c.18-.041.341-.104.449-.197C7.652 10.074 8 9.542 8 9V8H7v1z"/></g></svg>