<svg xmlns="http://www.w3.org/2000/svg" viewBox="0 0 16 16"><style>.icon-canvas-transparent{opacity:0;fill:#f6f6f6}.icon-vs-out{fill:#f6f6f6}.icon-vs-bg{fill:#424242}</style><path class="icon-canvas-transparent" d="M-.044-.029h16v16h-16z" id="canvas"/><path class="icon-vs-out" d="M13.476 8.311c.211-.266.382-.563.511-.885.137-.347.206-.736.206-1.156 0-.41-.073-.795-.218-1.141a2.528 2.528 0 0 0-.671-.94 2.839 2.839 0 0 0-1.01-.568 3.805 3.805 0 0 0-1.188-.178c-.896 0-1.717.236-2.438.703l-.457.296v3.982L9.866 6.99c.269-.233.526-.367.781-.404a1.99 1.99 0 0 1-.201.198 6.433 6.433 0 0 1-.426.33 14.42 14.42 0 0 0-.612.467 4.64 4.64 0 0 0-.703.705 3.937 3.937 0 0 0-.395.618 1.888 1.888 0 0 0-1.02-.285c-.321 0-.62.076-.886.212V3.407H4.208l-.269.205c-.212.163-.46.317-.733.458-.27.138-.562.253-.868.344l-.718.211v3.064l1.116-.13a2.84 2.84 0 0 0 .254-.039v4.468h3.414v-.098c.26.134.55.211.864.211.241 0 .469-.039.678-.112h6.239V8.812h-1.183c.172-.154.331-.322.474-.501z" id="outline"/><path class="icon-vs-bg" d="M5.404 4.407v6.581H3.99V6.006c-.078.068-.17.134-.276.195a2.882 2.882 0 0 1-.712.291 2.52 2.52 0 0 1-.382.074V5.373a5.936 5.936 0 0 0 1.926-.966h.858zM7.267 11.1a.824.824 0 0 1-.583-.215.693.693 0 0 1-.233-.53c0-.216.08-.392.24-.529s.36-.207.599-.207a.85.85 0 0 1 .595.209.68.68 0 0 1 .231.527.683.683 0 0 1-.236.536c-.157.14-.361.209-.613.209zm3.188-1.288h2.729v1.176H8.902v-.484c0-.329.055-.625.166-.887.11-.262.25-.497.417-.705.168-.208.351-.392.55-.552s.389-.305.568-.434c.188-.135.354-.263.496-.386.142-.123.262-.245.358-.366.098-.121.17-.244.218-.368s.072-.256.072-.397c0-.274-.078-.482-.233-.624-.155-.141-.394-.211-.714-.211-.554 0-1.083.221-1.59.66V4.986a3.417 3.417 0 0 1 1.896-.543c.326 0 .618.043.877.128s.479.207.658.366c.18.158.316.351.41.576.095.227.142.479.142.757 0 .296-.046.56-.137.79-.092.23-.213.439-.363.629a3.33 3.33 0 0 1-.523.518c-.197.157-.402.31-.615.456-.144.102-.282.203-.415.303a4.013 4.013 0 0 0-.353.297c-.102.097-.183.192-.242.285s-.09.18-.09.264z" id="iconBg"/></svg>