<svg xmlns="http://www.w3.org/2000/svg" viewBox="0 0 16 16"><style>.st0{opacity:0}.st0,.st1{fill:#f6f6f6}.st2{fill:#424242}.st3{fill:#f0eff1}</style><g id="outline"><path class="st0" d="M0 0h16v16H0z"/><path class="st1" d="M0 15V0h16v15H0z"/></g><g id="icon_x5F_bg"><path class="st2" d="M1 1v13h14V1H1zm13 12H2V2h12v11z"/><path class="st2" d="M6.651 5.401L5.229 3.979A4.456 4.456 0 0 1 8 3c2.314 0 4.198 1.753 4.449 4h-2A2.5 2.5 0 0 0 8 5c-.498 0-.959.149-1.349.401zM10.449 8h2c-.251 2.247-2.135 4-4.449 4a4.456 4.456 0 0 1-2.771-.979L6.651 9.6c.39.251.851.4 1.349.4a2.499 2.499 0 0 0 2.449-2zM4.479 10.271C3.875 9.505 3.5 8.551 3.5 7.5s.375-2.005.979-2.771l1.422 1.422a2.475 2.475 0 0 0 0 2.699l-1.422 1.421z"/></g><path class="st3" d="M2 2v11h12V2H2zm1.5 5.5c0-1.051.375-2.005.979-2.771l1.422 1.422a2.475 2.475 0 0 0 0 2.699l-1.422 1.421A4.456 4.456 0 0 1 3.5 7.5zM8 12a4.456 4.456 0 0 1-2.771-.979L6.651 9.6c.39.251.851.4 1.349.4a2.499 2.499 0 0 0 2.449-2h2c-.251 2.247-2.135 4-4.449 4zm2.449-5A2.5 2.5 0 0 0 8 5c-.498 0-.959.149-1.349.401L5.229 3.979A4.456 4.456 0 0 1 8 3c2.314 0 4.198 1.753 4.449 4h-2z" id="icon_x5F_fg"/></svg>