<svg xmlns="http://www.w3.org/2000/svg" viewBox="0 0 16 16"><style>.st0{opacity:0}.st0,.st1{fill:#f6f6f6}.st2{fill:#424242}.st3{fill:#00539c}.st4{fill:#f0eff1}</style><g id="outline"><path class="st0" d="M0 0h16v16H0z"/><path class="st1" d="M10.5 2c-.9 0-1.749.222-2.5.607V.586l-2 2V0H2v2.586l-2-2v4.828l1.788 1.788a4.971 4.971 0 0 0-.729.75l-.475.612.697.896-.354.044-.782.191-.099.769C.021 10.641 0 10.816 0 11s.021.359.059.632l.1.769 1.123.14-.697.896.475.614c.258.332.557.632.89.891l.614.477.897-.698.044.354.191.783.77.099c.175.022.35.043.534.043s.359-.021.631-.059l.77-.1.14-1.123.897.698.614-.477c.333-.259.632-.559.89-.891l.476-.614-.528-.678A5.382 5.382 0 0 0 10.5 13c3.032 0 5.5-2.467 5.5-5.5C16 4.468 13.532 2 10.5 2z"/></g><g id="icon_x5F_bg"><circle class="st2" cx="5" cy="11" r="1"/><path class="st2" d="M8.949 11.504C8.971 11.337 9 11.173 9 11s-.029-.337-.051-.504l-1.235-.154a2.747 2.747 0 0 0-.331-.795l.767-.984a3.972 3.972 0 0 0-.712-.713l-.985.767a2.786 2.786 0 0 0-.796-.331l-.058-.471-1.326 1.326C4.499 9.053 4.743 9 5 9a2 2 0 1 1-1.089.325L2.499 7.913a3.875 3.875 0 0 0-.649.65l.768.984c-.149.244-.263.51-.331.795l-1.235.154C1.029 10.663 1 10.827 1 11s.029.337.051.504l1.235.154c.068.285.182.551.331.795l-.767.985c.207.268.445.506.712.713l.985-.768c.243.148.51.262.796.331l.153 1.235c.167.022.331.051.504.051s.337-.029.504-.051l.153-1.235c.286-.069.553-.183.796-.331l.985.768c.267-.207.505-.445.712-.713l-.768-.984c.149-.244.263-.51.331-.795l1.236-.155zM6.494 6.92l.002.008.044.353.347-.271c.032-.215.083-.424.145-.628l-.538.538zM15.019 7.391a4.497 4.497 0 0 0-4.492-4.348c-.943 0-1.808.299-2.527.797v1.021A3.688 3.688 0 0 1 9.188 4.1a8.58 8.58 0 0 0-.471 1.613c-.3-.053-.56-.123-.826-.189l-.584.583c.398.114.83.22 1.312.301a8.414 8.414 0 0 0-.049.811c-.001.108.016.222.02.333.123.128.243.259.351.399l.476.613-.589.756c.012.053.027.105.04.158l.745.093c-.044-.158-.1-.317-.135-.474a11.327 11.327 0 0 0 1.304.061c.224 0 .45-.006.678-.018a13.596 13.596 0 0 1-.87 2.095c-.021.001-.041.004-.063.004-.109 0-.217-.008-.324-.018-.086-.191-.151-.38-.227-.57.014.125.024.24.024.349 0 .184-.021.359-.046.535l-.059.456c.082.012.163.025.245.032a4.143 4.143 0 0 0 .826-.002 4.503 4.503 0 0 0 4.061-4.479c0-.052-.008-.101-.008-.151zM13.58 5.459a7.185 7.185 0 0 1-1.255.319 7.597 7.597 0 0 0-.589-1.726c.757.262 1.401.76 1.844 1.407zM10.057 3.88c.154-.02.311-.033.471-.033.106 0 .21.008.313.016.302.522.608 1.187.786 1.997-.367.025-.729.029-1.095.025-.386-.004-.76-.029-1.119-.07.15-.783.398-1.424.644-1.935zm.474 4.577c-.41-.006-.824-.035-1.204-.079a7.926 7.926 0 0 1-.056-1.153c.002-.247.02-.507.043-.737.387.044.789.056 1.209.056h.259c.314 0 .632.012.956-.012.025.219.044.451.046.683.004.372-.044.778-.135 1.208a16.09 16.09 0 0 1-1.118.034zm.887 2.67c.35-.737.62-1.424.795-2.054a8.165 8.165 0 0 0 1.856-.472 3.701 3.701 0 0 1-2.651 2.526zm2.794-3.344a7.538 7.538 0 0 1-1.831.555c.07-.393.108-.768.104-1.119a7.633 7.633 0 0 0-.05-.743 8.07 8.07 0 0 0 1.489-.388c.19.445.299.938.299 1.455.001.08-.007.16-.011.24z"/></g><path class="st3" d="M7 3v2L4 8 1 5V3l2 2V1h2v4z" id="color_x5F_action"/><g id="icon_x5F_fg"><path class="st4" d="M12.428 6.484a8.29 8.29 0 0 0 1.5-.385c.189.442.266.93.266 1.443 0 .08-.008.159-.012.238a7.538 7.538 0 0 1-1.816.551c.07-.391.108-.762.104-1.111a8.283 8.283 0 0 0-.042-.736zM10.531 8.449c-.406-.005-.796-.063-1.172-.106a7.042 7.042 0 0 1-.072-1.1c.002-.245.017-.522.04-.751.384.043.784.051 1.2.051.086 0-.085 0 0 0 .312 0 .879.023 1.2 0 .025.217-.002.442 0 .672.004.368-.011.772-.101 1.198a14.85 14.85 0 0 1-1.095.036zM11.41 11.098c.348-.731.615-1.43.789-2.055.569-.072 1.176-.15 1.84-.4-.369 1.234-1.371 2.143-2.629 2.455zM13.58 5.443a7.142 7.142 0 0 1-1.255.3 7.348 7.348 0 0 0-.589-1.7 3.686 3.686 0 0 1 1.844 1.4zM10.527 3.943c.106 0 .21-.008.313 0 .302.521.608 1.089.786 1.899-.367.025-.729.004-1.095 0-.386-.004-.744-.059-1.104-.1a6.72 6.72 0 0 1 .6-1.8c.155-.018.34.001.5.001zM5 9a2 2 0 1 0 .001 4.001A2 2 0 0 0 5 9zm0 3a1 1 0 1 1 0-2 1 1 0 0 1 0 2zM10.527 9.143c-.356-.002-.707-.066-1.04-.1.038.171.099.354.147.531l.208.026.1.769c.012.084.019.145.026.214.078.205.147.411.238.611.106.01.213.016.321.016.022 0 .041-.003.063-.004.379-.754.668-1.43.862-2.063-.225.011-.839.002-.925 0zM8 4.862v.552l-.109.109c.266.067.526.137.826.19a8.546 8.546 0 0 1 .471-1.612A3.672 3.672 0 0 0 8 4.862zM8.627 6.418c-.48-.082-.905-.211-1.302-.329l-.259.259a4.29 4.29 0 0 0-.147.638l.519-.404.614.478c.192.149.369.315.537.49-.003-.14-.005-.283-.003-.407.003-.28.016-.465.041-.725z"/></g></svg>