<svg xmlns="http://www.w3.org/2000/svg" viewBox="0 0 16 16"><style>.icon-canvas-transparent{opacity:0;fill:#f6f6f6}.icon-vs-out{fill:#f6f6f6}.icon-vs-fg{fill:#f0eff1}.icon-folder{fill:#dcb67a}.icon-vs-action-blue{fill:#00539c}</style><path class="icon-canvas-transparent" d="M16 16H0V0h16v16z" id="canvas"/><path class="icon-vs-out" d="M16 6.5v7c0 .827-.673 1.5-1.5 1.5h-11c-.827 0-1.5-.673-1.5-1.5V7.191l-1.967-2 2.334-2.297.429.362c.022-.015.204-.024.204-.038V0h3v3h4.618l1 2H14.5c.827 0 1.5.673 1.5 1.5z" id="outline"/><path class="icon-folder" d="M15 6.5v7a.5.5 0 0 1-.5.5h-11a.5.5 0 0 1-.5-.5V8.191l1.357 1.357L7.906 6H9.5L9 5h-.477L7.522 4H10l1 2h3.5a.5.5 0 0 1 .5.5z" id="iconBg"/><path class="icon-vs-fg" d="M8.523 5H9l.5 1H7.906l.809-.809L8.523 5z" id="iconFg"/><path class="icon-vs-action-blue" d="M7.3 5.192L4.357 8.134 1.415 5.192l.885-.884 1.433 1.433V1h1.25v4.741l1.433-1.433.884.884z" id="colorAction"/></svg>