<svg xmlns="http://www.w3.org/2000/svg" viewBox="0 0 16 16"><style>.st0{opacity:0}.st0,.st1{fill:#f6f6f6}.st2{fill:#424242}.st3{fill:#00539c}.st4{fill:#f0eff1}</style><g id="outline"><path class="st0" d="M0 0h16v16H0z"/><path class="st1" d="M8 1V.586L7.586 1H6V0H2v1H1v.586l-1-1v4.828l1 1V16h14V1z"/></g><g id="icon_x5F_bg"><path class="st2" d="M6 2v.586L6.586 2zM8 2v1h5v11H4V9.414L2.586 8H2v1h1v1H2v1h1v1H2v1h1v1H2v1h12V2z"/><path class="st2" d="M8 5v.414L6.414 7H11V5z"/></g><path class="st3" d="M5 5V1H3v4L1 3v2l3 3 3-3V3z" id="color_x5F_action"/><path class="st4" d="M8 3v2h3v2H6.414L4 9.414V14h9V3z" id="icon_x5F_fg"/></svg>