<svg xmlns="http://www.w3.org/2000/svg" viewBox="0 0 16 16"><style>.st0{opacity:0}.st0,.st1{fill:#f6f6f6}.st2{fill:#424242}</style><g id="outline"><path class="st0" d="M0 0h16v16H0z"/><path class="st1" d="M16 12v-1.795l-1-.928V1H6v2H0v9h9v3.815l2.337-2.566.924 2.083 3.008-1.367L14.402 12H15z"/></g><g id="icon_x5F_bg"><path class="st2" d="M5 4h1v1H5zM3 4h1v1H3zM1 4h1v1H1zM1 6h1v1H1zM1 8h1v1H1zM7 10h1v1H7zM5 10h1v1H5zM3 10h1v1H3zM1 10h1v1H1zM13.955 13.463l-1.086-2.465h2.518L10 6v7.231l1.629-1.789 1.137 2.562z"/><path class="st2" d="M9 3.708v-.122l1.699 1.699L14 8.349V2H7v7h2z"/></g></svg>