<svg xmlns="http://www.w3.org/2000/svg" viewBox="0 0 16 16"><style>.st0{opacity:0}.st0,.st1{fill:#f6f6f6}.st2{fill:#424242}.st3{fill:#f0eff1}</style><g id="outline"><path class="st0" d="M0 0h16v16H0z"/><path class="st1" d="M16 0H1v9.25L0 10v1l1 .75V15h3.25L5 16h1l.75-1H16z"/></g><g id="icon_x5F_bg"><path class="st2" d="M15 1v13H9v-1h5V2H3v5H2V1z"/><path class="st2" d="M4 3h1v1H4zM6 3h1v1H6zM8 3h1v1H8zM10 3h1v1h-1zM12 3h1v1h-1zM8 5h1v1H8zM10 5h1v1h-1zM12 5h1v1h-1zM10 7h1v1h-1zM12 7h1v1h-1zM12 9h1v1h-1zM12 11h1v1h-1zM10 10.5L8 9v1H6V8h1L5.5 6 4 8h1v2H3V9l-2 1.5L3 12v-1h2v2H4l1.5 2L7 13H6v-2h2v1z"/></g><path class="st3" d="M2 12.5L4 14H2v-1.5zM14 2v11H9v1H7l4.667-3.5L9 8.5l-.857-.643L7.5 7l-2-2.667L2 9V7h1V2h11zM5 3H4v1h1V3zm2 0H6v1h1V3zm2 2H8v1h1V5zm0-2H8v1h1V3zm2 4h-1v1h1V7zm0-2h-1v1h1V5zm0-2h-1v1h1V3zm2 8h-1v1h1v-1zm0-2h-1v1h1V9zm0-2h-1v1h1V7zm0-2h-1v1h1V5zm0-2h-1v1h1V3z" id="icon_x5F_fg"/></svg>