<?xml version="1.0" encoding="iso-8859-1"?>
<!-- Generator: Adobe Illustrator 21.0.0, SVG Export Plug-In . SVG Version: 6.00 Build 0)  -->
<svg version="1.1" xmlns="http://www.w3.org/2000/svg" xmlns:xlink="http://www.w3.org/1999/xlink" x="0px" y="0px"
	 viewBox="0 0 16 16" style="enable-background:new 0 0 16 16;" xml:space="preserve">
<style type="text/css">
	.icon_x002D_canvas_x002D_transparent{opacity:0;fill:#F6F6F6;}
	.icon_x002D_vs_x002D_out{fill:#F6F6F6;}
	.icon_x002D_vs_x002D_bg{fill:#424242;}
	.icon_x002D_vs_x002D_fg{fill:#F0EFF1;}
	.icon_x002D_vs_x002D_blue{fill:#1BA1E2;}
	.icon_x002D_vs_x002D_action_x002D_blue{fill:#00539C;}
</style>
<g id="canvas">
	<path class="icon_x002D_canvas_x002D_transparent" d="M16,16H0V0h16V16z"/>
</g>
<g id="outline">
	<path class="icon_x002D_vs_x002D_out" d="M16,12.5V9h-1.09l0.845-0.619V2.868l-4.704-2.481L7,2.435V0H3.5
		C2.396,0,1.458,0.719,1.127,1.713L0,0.586v4.328l2.5,2.5l2.5-2.5V3h1.167v5.426l4.598,2.896L8.586,13.5l2.5,2.5h4.328l-1.127-1.127
		C15.281,14.542,16,13.604,16,12.5z M12.183,11L13,10.4V11H12.183z M7,10.5v3C7,14.926,5.495,16,3.5,16S0,14.926,0,13.5v-3
		C0,9.074,1.505,8,3.5,8S7,9.074,7,10.5z"/>
</g>
<g id="iconBg">
	<path class="icon_x002D_vs_x002D_bg" d="M11.041,1.512L7.167,3.471v4.403l4.081,2.57l3.507-2.57V3.471L11.041,1.512z M14.115,7.56
		l-2.426,1.749V6.034l2.426-1.476V7.56z M8.265,3.659l2.731-1.387l2.913,1.435L11.2,5.333L8.265,3.659z M7.861,7.457v-3.15
		l3.059,1.708V9.45L7.861,7.457z"/>
</g>
<g id="iconFg">
	<path class="icon_x002D_vs_x002D_fg" d="M5.425,10.5c0,0.428-0.841,0.925-1.925,0.925S1.575,10.928,1.575,10.5
		S2.416,9.575,3.5,9.575S5.425,10.072,5.425,10.5z M10.996,2.272L8.265,3.659L11.2,5.333l2.709-1.626L10.996,2.272z M10.92,6.014
		L7.861,4.306v3.15L10.92,9.45V6.014z M14.115,4.559l-2.426,1.476v3.274l2.426-1.749V4.559z"/>
</g>
<g id="colorAction">
	<path class="icon_x002D_vs_x002D_action_x002D_blue" d="M14,10h1v2.5c0,0.827-0.672,1.5-1.5,1.5H12l1,1h-1.5L10,13.5l1.5-1.5H13
		l-1,1h1.5c0.275,0,0.5-0.225,0.5-0.5V10z M2.5,6L1,4.5V3l1,1V2.5C2,1.672,2.673,1,3.5,1H6v1H3.5C3.225,2,3,2.225,3,2.5V4l1-1v1.5
		L2.5,6z"/>
</g>
<g id="colorImportance">
	<path class="icon_x002D_vs_x002D_blue" d="M3.5,9C2.119,9,1,9.672,1,10.5v3C1,14.328,2.119,15,3.5,15S6,14.328,6,13.5v-3
		C6,9.672,4.881,9,3.5,9z M3.5,11.425c-1.084,0-1.925-0.497-1.925-0.925S2.416,9.575,3.5,9.575s1.925,0.497,1.925,0.925
		S4.584,11.425,3.5,11.425z"/>
</g>
</svg>
