<svg xmlns="http://www.w3.org/2000/svg" viewBox="0 0 16 16"><style>.st0{opacity:0}.st0,.st1{fill:#f6f6f6}.st2{fill:#424242}.st3{fill:#f0eff1}</style><g id="outline"><path class="st0" d="M0 0h16v16H0z"/><path class="st1" d="M14 8.549V2H7.451A3.996 3.996 0 0 0 4 0C1.794 0 0 1.794 0 4c0 2.205 1.794 4 4 4 1.435 0 2.745-.78 3.451-2H10v2.549C8.78 9.255 8 10.565 8 12c0 2.205 1.794 4 4 4s4-1.795 4-4c0-1.435-.78-2.745-2-3.451z"/></g><path class="st2" d="M13 9.184V3H6.816A2.992 2.992 0 0 0 1 4c0 1.656 1.344 3 3 3a2.993 2.993 0 0 0 2.816-2H11v4.184A2.99 2.99 0 0 0 9 12a3.001 3.001 0 0 0 6 0 2.99 2.99 0 0 0-2-2.816zM4 5a1 1 0 1 1 0-2 1 1 0 0 1 0 2zm8 8a1 1 0 1 1 0-2 1 1 0 0 1 0 2z" id="icon_x5F_bg"/><g id="icon_x5F_fg"><circle class="st3" cx="4" cy="4" r="1"/><circle class="st3" cx="12" cy="12" r="1"/></g></svg>