<svg xmlns="http://www.w3.org/2000/svg" viewBox="0 0 16 16"><style>.st0{opacity:0}.st0,.st1{fill:#f6f6f6}.st2{fill:#424242}.st3{fill:#f0eff1}</style><g id="outline"><path class="st0" d="M0 0h16v16H0z"/><path class="st1" d="M16 12c0 2.205-1.794 4-4 4s-4-1.795-4-4c0-1.435.78-2.745 2-3.451V6H7.451A3.998 3.998 0 0 1 4 8C1.794 8 0 6.205 0 4c0-2.206 1.794-4 4-4 1.436 0 2.746.78 3.451 2H14v6.549c1.22.706 2 2.016 2 3.451zM4.882 8L3.25 11.264 3.118 11H0v1.236L1.882 16h2.736l4-8H4.882z"/></g><g id="icon_x5F_bg"><path class="st2" d="M13 9.184V3H6.816A2.992 2.992 0 0 0 1 4c0 1.656 1.344 3 3 3a2.993 2.993 0 0 0 2.816-2H11v4.184A2.99 2.99 0 0 0 9 12a3.001 3.001 0 0 0 6 0 2.99 2.99 0 0 0-2-2.816zM4 5a1 1 0 1 1 0-2 1 1 0 0 1 0 2zm8 8a1 1 0 1 1 0-2 1 1 0 0 1 0 2z"/><path class="st2" d="M5.5 9H7l-3 6H2.5L1 12h1.5l.75 1.5z"/></g><path class="st3" d="M5 4a1 1 0 1 1-2 0 1 1 0 0 1 2 0zm7 7a1 1 0 1 0 0 2 1 1 0 1 0 0-2z" id="icon_x5F_fg"/></svg>