<svg xmlns="http://www.w3.org/2000/svg" viewBox="0 0 16 16"><style>.st0{opacity:0}.st0,.st1{fill:#f6f6f6}.st2{fill:#424242}.st3{fill:#f0eff1}</style><g id="outline"><path class="st0" d="M0 0h16v16H0z"/><path class="st1" d="M14 8.549V2H7.451A3.996 3.996 0 0 0 4 0C1.794 0 0 1.794 0 4c0 1.442.774 2.698 1.922 3.401L0 8.5V16h7V8.5l-1.44-.823A4.02 4.02 0 0 0 7.451 6H10v2.549C8.78 9.255 8 10.565 8 12c0 2.205 1.794 4 4 4s4-1.795 4-4c0-1.435-.78-2.745-2-3.451z"/></g><g id="icon_x5F_bg"><path class="st2" d="M13 9.184V3H6.816A2.992 2.992 0 0 0 1 4c0 1.656 1.344 3 3 3a2.993 2.993 0 0 0 2.816-2H11v4.184A2.99 2.99 0 0 0 9 12a3.001 3.001 0 0 0 6 0 2.99 2.99 0 0 0-2-2.816zM4 5a1 1 0 1 1 0-2 1 1 0 0 1 0 2zm8 8a1 1 0 1 1 0-2 1 1 0 0 1 0 2z"/><path class="st2" d="M4 8l-.5 2L3 8 1 9l1.5 1H1v5h5v-5H4.5L6 9 4 8zm-1 6H2v-1h1v1zm0-2H2v-1h1v1zm2 2H4v-1h1v1zm0-3v1H4v-1h1z"/></g><g id="icon_x5F_fg"><circle class="st3" cx="4" cy="4" r="1"/><circle class="st3" cx="12" cy="12" r="1"/><path class="st3" d="M2 13h1v1H2zM2 11h1v1H2zM4 11h1v1H4zM4 13h1v1H4z"/></g></svg>