<svg xmlns="http://www.w3.org/2000/svg" viewBox="0 0 16 16"><style>.icon-canvas-transparent{opacity:0;fill:#f6f6f6}.icon-vs-out{fill:#f6f6f6}.icon-vs-bg{fill:#424242}.icon-vs-fg{fill:#f0eff1}</style><path class="icon-canvas-transparent" d="M16 16H0V0h16v16z" id="canvas"/><path class="icon-vs-out" d="M14 8.549V2H7.451A3.997 3.997 0 0 0 4 0C1.794 0 0 1.794 0 4c0 1.2.542 2.266 1.382 3H1v3h1v.723L.649 12.965a1.977 1.977 0 0 0-.023 2.015 1.975 1.975 0 0 0 1.737 1.014L6.642 16c.72 0 1.387-.389 1.741-1.016.153-.27.224-.562.244-.855A3.987 3.987 0 0 0 12 16c2.206 0 4-1.794 4-4 0-1.436-.78-2.746-2-3.451zm-4 0C8.78 9.254 8 10.564 8 12c0 .156.029.304.046.456L7 10.722V10h1V7H6.619a4 4 0 0 0 .832-1H10v2.549z" id="outline"/><path class="icon-vs-bg" d="M13 9.184V3H6.816A2.992 2.992 0 0 0 1 4c0 1.656 1.344 3 3 3a2.993 2.993 0 0 0 2.816-2H11v4.184A2.99 2.99 0 0 0 9 12a3.001 3.001 0 0 0 6 0 2.99 2.99 0 0 0-2-2.816zM4 5a1 1 0 1 1 0-2 1 1 0 0 1 0 2zm8 8a1 1 0 1 1 0-2 1 1 0 0 1 0 2zm-6-2V9h1V8H2v1h1v2l-1.492 2.479a1 1 0 0 0 .857 1.514L6.642 15a1 1 0 0 0 .858-1.514L6 11zm-2.968 2L4 11.303V9h1v2.303L5.968 13H3.032z" id="iconBg"/><path class="icon-vs-fg" d="M4 3a1 1 0 1 0 0 2 1 1 0 0 0 0-2zm8 8a1 1 0 1 0 0 2 1 1 0 1 0 0-2zm-8.968 2L4 11.303V9h1v2.303L5.968 13H3.032z" id="iconFg"/></svg>