<svg xmlns="http://www.w3.org/2000/svg" width="16" height="16"><style type="text/css">.icon-canvas-transparent{opacity:0;fill:#F6F6F6;} .icon-vs-out{fill:#F6F6F6;} .icon-vs-bg{fill:#424242;} .icon-vs-fg{fill:#F0EFF1;}</style><path class="icon-canvas-transparent" d="M16 16h-16v-16h16v16z" id="canvas"/><path class="icon-vs-out" d="M16 4v12h-16v-16h11v4h5z" id="outline"/><path class="icon-vs-bg" d="M1 1v3h9v-3h-9zm8 2h-7v-1h7v1zm-8 2v10h14v-10h-14zm13 9h-12v-8h12v8zm-5-6h-6v-1h6v1zm2 1h-8v1h8v-1zm-2 2h-6v1h6v-1z" id="iconBg"/><g id="iconFg"><path class="icon-vs-fg" d="M2 3v-1h7v1h-7zm12 3v8h-12v-8h12zm-11 2h6v-1h-6v1zm6 3h-6v1h6v-1zm2-2h-8v1h8v-1z"/></g></svg>