<svg xmlns="http://www.w3.org/2000/svg" viewBox="0 0 16 16"><style>.st0{opacity:0}.st0,.st1{fill:#f6f6f6}.st2{fill:#424242}</style><path class="st0" d="M0 0h16v16H0z" id="outline"/><g id="icon_x5F_bg"><path class="st1" d="M16 2.586L13.414 0h-.242l-2.044 2.044C9.966 1.355 8.474 1 6.658 1H2v10.172l-2 2v.242L2.586 16h.242l1-1h2.739c1.086 0 2.095-.169 2.998-.502a6.882 6.882 0 0 0 2.373-1.455 6.416 6.416 0 0 0 1.534-2.294c.35-.872.528-1.848.528-2.9 0-.977-.134-1.852-.387-2.634L16 2.828v-.242zM5.966 7.206V4.715h.618c.589 0 1.107.075 1.538.224.028.01.049.025.076.035L5.966 7.206zM9.69 9.368a2.764 2.764 0 0 1-.615 1.025 2.66 2.66 0 0 1-1.001.644c-.117.045-.256.069-.386.101l2.078-2.077c-.027.103-.042.212-.076.307z"/><path class="st2" d="M4.966 3.715h1.618c.704 0 1.327.094 1.866.279.18.063.336.148.498.23l1.443-1.443C9.416 2.267 8.179 2 6.658 2H3v8.172l1.966-1.966V3.715zM10.917 7.911a5.487 5.487 0 0 1-.283 1.788 3.762 3.762 0 0 1-.834 1.384 3.68 3.68 0 0 1-1.366.889c-.545.21-1.173.314-1.883.314h-.008L4.828 14h1.739c.975 0 1.858-.148 2.65-.439a5.848 5.848 0 0 0 2.031-1.242 5.42 5.42 0 0 0 1.296-1.941c.306-.761.456-1.604.456-2.529 0-.664-.087-1.252-.215-1.806l-1.868 1.868z"/><path transform="rotate(-45.001 8 8)" class="st2" d="M-.485 7h16.971v2H-.485z"/><path class="st2" d="M12.328 0H14h-1.672z"/><path class="st1" d="M3.719 16H1.938h1.781z"/></g></svg>