<svg xmlns="http://www.w3.org/2000/svg" viewBox="0 0 16 16"><style>.st0{opacity:0}.st0,.st1{fill:#f6f6f6}.st2{fill:#424242}.st3{fill:#f0eff1}</style><g id="outline"><path class="st0" d="M0 0h16v16H0z"/><path class="st1" d="M8 0C4.274 0 1.152 2.552.262 6H0v5h.587A7.978 7.978 0 0 0 2 13.279V16h5v-.069c.328.041.661.069 1 .069A8 8 0 0 0 8 0z"/></g><g id="icon_x5F_bg"><path class="st2" d="M5 9c0-.553 1.343-1 3-1V7H4v1H3c-.043 0-.083-.013-.124-.018v-.007a1.012 1.012 0 0 1-.604-.307c-.035-.039-.062-.084-.09-.128A.944.944 0 0 1 2 7H1v3h1a.99.99 0 0 1 .876-.975V9H4v2l-1 1v3h3v-3l-1-1V9z"/><path class="st2" d="M14.988 7.764C14.862 4.008 11.786 1 8 1a7 7 0 0 0-6.706 5h1.324c.038-.101.072-.204.115-.303.359.106.742.208 1.145.303H9v.492c.294-.008.584-.009.885-.033.038.34.066.686.07 1.047a8.673 8.673 0 0 1-.209 1.869c-.584.041-1.158.049-1.74.046a17.427 17.427 0 0 1-1.838-.123l-.004-.041c-.056.018-.122.038-.164.056v1.272l.58.58c-.069-.249-.157-.501-.212-.747a18.417 18.417 0 0 0 2.029.094c.348 0 .699-.01 1.054-.027-.306.991-.759 2.077-1.353 3.26-.033.001-.065.005-.098.005-.17 0-.338-.011-.504-.025-.188-.418-.342-.833-.496-1.248v2.441c.132.019.265.04.399.052a6.644 6.644 0 0 0 1.286-.004A7 7 0 0 0 15 8c0-.08-.01-.157-.012-.236zM5.185 5.153a18.852 18.852 0 0 1-1.903-.435 5.757 5.757 0 0 1 2.635-2.073c-.29.723-.556 1.554-.732 2.508zm2.821.268c-.6-.007-1.181-.048-1.739-.11a12.133 12.133 0 0 1 1.001-3.009c.24-.031.483-.052.732-.052.165 0 .327.011.488.024.468.812.944 1.846 1.221 3.108-.571.039-1.133.044-1.703.039zm1.875-2.85a5.755 5.755 0 0 1 2.868 2.188c-.686.236-1.334.4-1.951.496a11.71 11.71 0 0 0-.917-2.684zm-.497 11.004c.546-1.146.967-2.215 1.238-3.193a12.79 12.79 0 0 0 2.886-.734 5.753 5.753 0 0 1-4.124 3.927zm4.347-5.201c-1.038.452-1.972.722-2.848.863a9.32 9.32 0 0 0 .161-1.743c-.004-.4-.035-.782-.076-1.156a12.478 12.478 0 0 0 2.316-.604c.3.696.466 1.461.466 2.266 0 .126-.011.25-.019.374z"/></g><g id="icon_x5F_fg"><path class="st3" d="M10.969 6.338a12.478 12.478 0 0 0 2.316-.604c.299.696.465 1.461.465 2.266 0 .126-.011.25-.019.374-1.038.452-1.972.722-2.848.863a9.32 9.32 0 0 0 .161-1.743 11.3 11.3 0 0 0-.075-1.156zM12.749 4.76c-.686.236-1.334.4-1.951.496a11.703 11.703 0 0 0-.917-2.685 5.757 5.757 0 0 1 2.868 2.189zM8 2.25c.165 0 .327.011.488.024.468.812.935 1.846 1.212 3.108-.571.039-1.13.044-1.7.039-.6-.007-1.241-.048-1.8-.11.233-1.216.685-2.215 1.067-3.009.241-.031.484-.052.733-.052zM5.917 2.645c-.29.723-.556 1.554-.732 2.508a18.852 18.852 0 0 1-1.903-.435 5.768 5.768 0 0 1 2.635-2.073zM9.384 13.575c.546-1.146.967-2.215 1.238-3.193a12.79 12.79 0 0 0 2.886-.734 5.753 5.753 0 0 1-4.124 3.927zM8.397 10.513c-.135 0-.269 0-.403-.002-.56-.006-1.103-.04-1.626-.092.055.246.143.498.212.747l.42.42v.891c.154.415.308.83.496 1.248.166.014.334.025.504.025.033 0 .065-.004.099-.005.594-1.183 1.047-2.269 1.353-3.26-.355.018-.707.028-1.055.028zM9.885 6.459c-.301.023-.592.024-.885.033V9H8c-.845 0-1.477.132-1.839.257.576.069 1.224.157 1.839.164.582.003 1.116-.005 1.7-.046.141-.667.261-1.292.255-1.869a10.395 10.395 0 0 0-.07-1.047zM3.878 6a21.649 21.649 0 0 1-1.146-.303c-.043.099-.077.202-.114.303h1.26z"/></g></svg>