<svg xmlns="http://www.w3.org/2000/svg" viewBox="0 0 16 16"><style>.st0{opacity:0}.st0,.st1{fill:#f6f6f6}.st2{fill:#424242}.st3{fill:#dcb67a}.st4{fill:#f0eff1}</style><g id="outline"><path class="st0" d="M0 0h16v16H0z"/><path class="st1" d="M14.5 0H7.386l-1 2H3.5C2.673 2 2 2.673 2 3.5V4c-.97 0-2 .702-2 2v7.001C0 13.97.702 15 2 15h4v1h4v-3h3v-1h1.5c.827 0 1.5-.673 1.5-1.5v-9c0-.827-.673-1.5-1.5-1.5z"/></g><g id="icon_x5F_bg"><path class="st2" d="M3 13h3v1H3zM10 10h2v2h-2zM7 10h2v2H7zM7 13h2v2H7zM3 9h1v1H3zM5 9h1v1H5zM3 11h1v1H3z"/><path class="st2" d="M6 5H2S1 5 1 6v7s0 1 1 1h4v-1H2V6h4v2h2v1h1V8L6 5z"/><path class="st3" d="M14.5 1H8.004l-1 2H3.5a.5.5 0 0 0-.5.5V4h3.414L10 7.586V9h3v2h1.5a.5.5 0 0 0 .5-.5v-9a.5.5 0 0 0-.5-.5zm-.496 2h-5.5l.5-1h5v1z"/></g><g id="icon_x5F_fg"><path class="st4" d="M6 8V6H2v7h4v-3H5V9h3V8H6zm-2 4H3v-1h1v1zm0-2H3V9h1v1zM9.008 2h-.004l-.5 1H14l.008-.001V2z"/></g></svg>