<svg xmlns="http://www.w3.org/2000/svg" viewBox="0 0 16 16"><style>.st0{opacity:0}.st0,.st1{fill:#f6f6f6}.st2{fill:#424242}.st3{fill:#f0eff1}</style><g id="outline"><path class="st0" d="M0 0h16v16H0z"/><path class="st1" d="M13 5V3.586L9.414 0H5c-.97 0-2 .702-2 2v4H0v10h10v-4h3V9h3V5h-3z"/></g><g id="icon_x5F_bg"><path class="st2" d="M6 5h1v1H6zM10 9h2v2h-2zM8 5h1v1H8zM10 6h2v2h-2zM13 6h2v2h-2zM1 15h8V7H1v8zm1-6.293l1.475 1.475.707-.707L2.707 8h4.586L5.818 9.475l.708.707L8 8.707v4.586l-1.475-1.475-.707.707L7.293 14H2.708l1.475-1.475-.707-.707L2 13.293V8.707z"/><path class="st2" d="M9 1H5S4 1 4 2v4h1V2h4v2h2v1h1V4L9 1z"/></g><g id="icon_x5F_fg"><path class="st3" d="M9 4V2H5v4h1V5h1v1h1V5h3V4zM5.818 9.475L7.293 8H2.707l1.475 1.475-.707.707L2 8.707v4.586l1.475-1.475.707.707L2.708 14h4.585l-1.475-1.475.707-.707L8 13.293V8.707l-1.475 1.475z"/></g></svg>