<svg xmlns="http://www.w3.org/2000/svg" viewBox="0 0 16 16"><style>.st0{opacity:0}.st0,.st1{fill:#f6f6f6}.st2{fill:#424242}</style><g id="outline"><path class="st0" d="M0 0h16v16H0z"/><path class="st1" d="M16 4.586L12.414 1H9v1.414L9.586 3H7.414L8 2.414V1H4.586L1 4.586v.828L3.086 7.5 0 10.586v.828L3.586 15H7v-1.414L6.414 13h2.172L8 13.586V15h3.414L15 11.414v-.828L12.914 8.5 16 5.414z"/></g><g id="icon_x5F_bg"><path class="st2" d="M6 7L5 6h7l-1 1h.414l.793.793L15 5l-3-3h-2l2 2H5l2-2H5L2 5l2 2zM9 8l2 2H4l2-2H4l-3 3 3 3h2l-2-2h7l-2 2h2l3-3-3-3z"/></g></svg>