<svg xmlns="http://www.w3.org/2000/svg" viewBox="0 0 16 16"><style>.st0{opacity:0}.st0,.st1{fill:#f6f6f6}.st2{fill:#424242}</style><g id="outline"><path class="st0" d="M0 0h16v16H0z"/><path class="st1" d="M13.501 0h-11l-2.5 2.5v3l2.5 2.5h2.882l-1.382 2.764L3.619 10H0v1.235L2.383 16h3.236l4-8h3.882l2.5-2.5v-3l-2.5-2.5zm-5.5.414L9.587 2H6.415L8.001.414zM9.587 6l-1 1H7.415l-1-1h3.172z"/></g><g id="icon_x5F_bg"><path class="st2" d="M16.001 4l-3 3h-3l2-2h-8l1.513 1.513L5.026 7H3.001l-3-3 3-3h3l-2 2h8l-2-2h3zM6.501 8l-2.5 5-1-2h-2l2 4h2l3.5-7z"/></g></svg>