<svg xmlns="http://www.w3.org/2000/svg" viewBox="0 0 16 16"><style>.st0{opacity:0}.st0,.st1{fill:#f6f6f6}.st2{fill:#424242}.st3{fill:#f0eff1}</style><path class="st0" d="M0 0h16v16H0z" id="outline"/><g id="icon_x5F_bg"><path class="st0" d="M0 0h16v16H0z"/><path class="st1" d="M8 0a8 8 0 0 0-8 8 7.95 7.95 0 0 0 1.271 4.315L.086 13.5l2.5 2.5h3.828l.138-.138c.47.086.953.138 1.448.138A8 8 0 0 0 8 0z"/><path class="st2" d="M14.988 7.763C14.862 4.008 11.786 1 8 1a7 7 0 0 0-7 7 6.692 6.692 0 0 0 .1 1.136l.002.018c.146.877.47 1.687.909 2.421L2.586 11h.519a5.684 5.684 0 0 1-.618-1.375c.798.244 1.712.479 2.744.644.047.242.124.488.185.731h.998l.166.166c-.069-.249-.157-.501-.212-.747a18.417 18.417 0 0 0 2.029.094c.348 0 .699-.01 1.054-.027-.24.78-.598 1.636-1.018 2.534l.481.48-1.472 1.472c.184.016.37.028.558.028a7 7 0 0 0 7-7c0-.08-.01-.157-.012-.237zM12.749 4.76c-.686.236-1.334.4-1.951.496a11.703 11.703 0 0 0-.917-2.685 5.757 5.757 0 0 1 2.868 2.189zM7.268 2.302c.24-.031.483-.052.732-.052.165 0 .327.011.488.024.468.812.944 1.846 1.221 3.108-.571.039-1.133.044-1.703.039a16.72 16.72 0 0 1-1.739-.111 12.138 12.138 0 0 1 1.001-3.008zM2.271 8.403C2.261 8.27 2.25 8.136 2.25 8c0-.819.174-1.597.482-2.302.686.202 1.448.393 2.3.539-.042.405-.072.82-.077 1.257a12.87 12.87 0 0 0 .099 1.637 19.429 19.429 0 0 1-2.783-.728zm2.914-3.25a19.128 19.128 0 0 1-1.903-.435 5.757 5.757 0 0 1 2.635-2.073 13.08 13.08 0 0 0-.732 2.508zm2.821 4.268a17.427 17.427 0 0 1-1.838-.123 12.248 12.248 0 0 1-.123-1.793c.004-.386.031-.755.067-1.114.603.068 1.23.113 1.882.12l.403.002c.488 0 .982-.016 1.487-.054.038.339.066.685.07 1.046a8.673 8.673 0 0 1-.209 1.869c-.583.042-1.157.05-1.739.047zm1.378 4.154c.546-1.146.967-2.215 1.238-3.193a12.79 12.79 0 0 0 2.886-.734 5.753 5.753 0 0 1-4.124 3.927zm4.347-5.201c-1.038.452-1.972.722-2.848.863a9.32 9.32 0 0 0 .161-1.743c-.004-.4-.035-.783-.076-1.156a12.557 12.557 0 0 0 2.316-.604c.3.696.466 1.461.466 2.266 0 .126-.011.25-.019.374z"/><path class="st2" d="M7.5 13.5L6 15H5l.979-1H3.012L4 15H3l-1.5-1.5L3 12h1l-.988 1h2.967L5 12h1z"/></g><g id="icon_x5F_fg"><path class="st3" d="M10.969 6.338a12.557 12.557 0 0 0 2.316-.604c.299.696.465 1.461.465 2.266 0 .126-.011.25-.019.374-1.038.452-1.972.722-2.848.863a9.32 9.32 0 0 0 .161-1.743 11.3 11.3 0 0 0-.075-1.156zM12.749 4.76c-.686.236-1.334.4-1.951.496a11.703 11.703 0 0 0-.917-2.685 5.757 5.757 0 0 1 2.868 2.189zM8.433 13.019c.42-.898.778-1.754 1.018-2.534-.354.017-.706.027-1.054.027-.135 0-.269 0-.403-.002-.56-.006-1.103-.04-1.626-.092.055.246.143.498.212.747l1.853 1.854zM8.006 9.421a17.427 17.427 0 0 1-1.838-.123 12.248 12.248 0 0 1-.123-1.793c.004-.386.031-.755.067-1.114.603.068 1.23.113 1.882.12l.403.002c.488 0 .982-.016 1.487-.054.038.339.066.685.07 1.046a8.673 8.673 0 0 1-.209 1.869c-.583.042-1.157.05-1.739.047zM8 2.25c.165 0 .327.011.488.024.468.812.944 1.846 1.221 3.108-.571.039-1.133.044-1.703.039a16.72 16.72 0 0 1-1.739-.111 12.138 12.138 0 0 1 1.001-3.008c.24-.031.483-.052.732-.052zM5.917 2.645a13.08 13.08 0 0 0-.732 2.508 19.128 19.128 0 0 1-1.903-.435 5.768 5.768 0 0 1 2.635-2.073zM2.25 8c0-.819.174-1.597.482-2.302.686.202 1.448.393 2.3.539-.042.405-.072.82-.077 1.257a12.87 12.87 0 0 0 .099 1.637 19.429 19.429 0 0 1-2.783-.728C2.261 8.27 2.25 8.136 2.25 8zM5.416 11c-.061-.243-.138-.489-.186-.731a20.425 20.425 0 0 1-2.744-.644c.145.49.356.949.618 1.375h2.312zM9.384 13.575c.546-1.146.967-2.215 1.238-3.193a12.79 12.79 0 0 0 2.886-.734 5.753 5.753 0 0 1-4.124 3.927z"/></g></svg>