<svg xmlns="http://www.w3.org/2000/svg" viewBox="0 0 16 16" enable-background="new 0 0 16 16"><style type="text/css">.icon-canvas-transparent{opacity:0;fill:#F6F6F6;} .icon-vs-out{fill:#F6F6F6;} .icon-vs-bg{fill:#424242;}</style><path class="icon-canvas-transparent" d="M16 16h-16v-16h16v16z" id="canvas"/><path class="icon-vs-out" d="M16 7.414l-2.086 2.086 2.086 2.086v.828l-3.586 3.586h-.828l-2.31-2.31-2.311 2.31h-.035l-1.93-1.93-1.93 1.93h-.035l-3.035-3.035v-.93l2.811-2.811-2.811-2.81v-.828l5.586-5.586h.828l4 4-1 1h2.172l1.414-1.414 3 3v.828z" id="outline"/><path class="icon-vs-bg" d="M13 10l2 2-3 3-2-2 1-1h-1.034l-1.966-1.965v-3.035h-2l-2 2-3-3 5-5 3 3-2 2h5l1-1 2 2-3 3-2-2 1-1h-2v4l2.999.002 1.001-1.002zm-6.052.396l-.707.707.896.897h-4.274l.896-.896-.707-.707-2.103 2.103 2.104 2.104.707-.707-.897-.897h4.274l-.896.896.707.707 2.104-2.103-2.104-2.104z" id="iconBg"/></svg>