<svg xmlns="http://www.w3.org/2000/svg" viewBox="0 0 16 16"><style>.st0{opacity:0}.st0,.st1{fill:#f6f6f6}.st2{fill:#424242}</style><g id="outline"><path class="st0" d="M0 0h16v16H0z"/><path class="st1" d="M1 0v1.085c-.621.628-.998 1.441-1 2.194V8h1v2.586l-1 1v.828l1 1V15h1.586l1 1h6.828l1-1H16V0H1z"/></g><g id="icon_x5F_bg"><path class="st2" d="M10 9l3 3-3 3H8l2-2H4l2 2H4l-3-3 2.29-2.289A2.957 2.957 0 0 0 4.5 10c.179 0 .374-.029.572-.072L4 11h6L8 9h2zM12 3h1v1h-1zM7 2V1H6v.085c.272.276.488.589.656.915H7zM8 1h1v1H8zM8 3h1v1H8zM10 3h1v1h-1zM12 1h1v1h-1zM10 1h1v1h-1zM14 3h1v1h-1zM14 13h1v1h-1zM14 5h1v1h-1zM14 1h1v1h-1zM14 7h1v1h-1zM14 9h1v1h-1zM14 11.586l.414.414H15v-1h-1zM2 3.283C2 3.188 2 2 3.5 2 5.001 2 4.99 3.027 5 3.283c.04.999.006 4.26 0 4.289-.002.01 0 .428-.5.428-.543 0-.498-.42-.5-.428C3.988 7.516 4 3 4 3H3v4.572C2.98 9 4.496 9 4.5 9 4.5 9 6 9 6 7.572V3.283C6 2.394 5.002.999 3.5 1 2.002.999 1 2.394 1 3.283V7h1V3.283z"/></g></svg>