<svg xmlns="http://www.w3.org/2000/svg" viewBox="0 0 16 16"><style>.st0{fill:#f6f6f6}.st1{fill:#424242}.st2{fill:#f0eff1}</style><path class="st0" d="M16 0H0v15h1.5l1 1h4l1-1H16z" id="outline"/><path class="st1" d="M8 5.502C8 4.674 8.671 4 9.501 4 10.329 4 11 4.674 11 5.502 11 6.331 10.329 7 9.501 7 8.671 7 8 6.331 8 5.502zM15 14H8.5l.5-.5L7.5 12H13v-2l-1-1-3 2-3-3-3 2v1h-.5L1 12.5V1h14v13zM13 3H3v5l3-2 3 3 3-2 1 1V3zM7.5 13.5L6 15H5l.979-1H3.013L4 15H3l-1.5-1.5L3 12h1l-.987 1H5.98L5 12h1l1.5 1.5z" id="icon_x5F_bg"/><path class="st2" d="M3 3v5l3-2 3 3 3-2 1 1V3H3zm6.501 4C8.671 7 8 6.331 8 5.502 8 4.674 8.671 4 9.501 4 10.329 4 11 4.674 11 5.502 11 6.331 10.329 7 9.501 7zM12 9l1 1v2H7.5l-1-1H3v-1l3-2 3 3 3-2z" id="icon_x5F_fg"/></svg>