<svg xmlns="http://www.w3.org/2000/svg" viewBox="0 0 16 16"><style>.st0{opacity:0}.st0,.st1{fill:#f6f6f6}.st2{fill:#424242}.st3{fill:#f0eff1}</style><g id="outline"><path class="st0" d="M0 0h16v16H0z"/><path class="st1" d="M14 0H6v11H4.586l-2.5 2.5 2.5 2.5h3.828l2.5-2.5-.5-.5H14V0z"/></g><g id="icon_x5F_bg"><path class="st2" d="M7 1v10h1V9h4v2H8.414l1 1H13V1H7zm5 4H8V3h4v2zM8 12l1.5 1.5L8 15H7l.979-1H5.012L6 15H5l-1.5-1.5L5 12h1l-.988 1h2.967L7 12z"/></g><path class="st3" d="M12 5H8V3h4v2zm0 4H8v2h4V9z" id="icon_x5F_fg"/></svg>