<svg xmlns="http://www.w3.org/2000/svg" viewBox="0 0 16 16"><style>.st0{opacity:0}.st0,.st1{fill:#f6f6f6}.st2{fill:#424242}.st3{fill:#f0eff1}</style><g id="outline"><path class="st0" d="M0 0h16v16H0z"/><path class="st1" d="M16 4h-4V0H0v15h2.587l.499.498h6.828l.499-.498H16z"/></g><path class="st2" d="M1 13.412l.587.588H1v-.588zM11 4H1V1h10v3zm-1-2H2v1h8V2zM7 7H3v1h4V7zm8-2H1v5.584l1-1V6h12v7h-1.587l-1 1H15V5zM9.5 9.498h-2l1.5 1.5H4.003l1.497-1.5h-2l-2.5 2.5 2.5 2.5h2l-1.497-1.5H9l-1.5 1.5h2l2.5-2.5-2.5-2.5z" id="icon_x5F_bg"/><path class="st3" d="M9.914 8.498l3.5 3.5L12.413 13H14V6H2v3.584l1.086-1.086h6.828zM3 7h4v1H3V7zM2 2h8v1H2V2z" id="icon_x5F_fg"/></svg>