<svg xmlns="http://www.w3.org/2000/svg" viewBox="0 0 16 16"><style>.st0{opacity:0}.st0,.st1{fill:#f6f6f6}.st2{fill:#424242}.st3{fill:#f0eff1}</style><g id="outline"><path class="st0" d="M0 0h16v16H0z"/><path class="st1" d="M16 1h-5V0H5v1H0v13h.5l2 2h4l2-2H16z"/></g><g id="icon_x5F_bg"><path class="st2" d="M1 2v10.5l1-1V11h3V2H1zm3 8H2V9h2v1zm0-5H2V3h2v2zM6 1v10h.5l.5.5V11h2v1H7.5l1 1H10V1H6zm3 9H7V9h2v1zm0-7H7V2h2v1zM11 2v11h4V2h-4zm3 10h-2v-1h2v1zm0-2h-2V9h2v1zm0-5h-2V3h2v2zM6 12l1.5 1.5L6 15H5l.979-1H3.012L4 15H3l-1.5-1.5L3 12h1l-.988 1h2.967L5 12z"/></g><path class="st3" d="M2 11.5V11h.5l-.5.5zm5 0l.5.5H9v-1H7v.5zM4 9H2v1h2V9zm0-6H2v2h2V3zm3 0h2V2H7v1zm5 0v2h2V3h-2zm0 7h2V9h-2v1zm-5 0h2V9H7v1zm5 2h2v-1h-2v1z" id="icon_x5F_fg"/></svg>