<svg xmlns="http://www.w3.org/2000/svg" viewBox="0 0 16 16"><style>.st0{opacity:0}.st0,.st1{fill:#f6f6f6}.st2{fill:#424242}.st3{fill:#f0eff1}</style><g id="outline"><path class="st0" d="M0 0h16v16H0z"/><path class="st1" d="M0 0v15h2.586l1 1H7v-1h2v1h3.414l1-1H16V0z"/></g><g id="icon_x5F_bg"><path class="st2" d="M9 10h.586L9 9.414zM9 7h2v1H9zM3 7h5v1H3z"/><path class="st2" d="M1 1v9.586l1-1V4h12v5.586l1 1V1z"/><path class="st2" d="M3 5h5v1H3zM15 14v-.586l-.586.586zM1 14h.586L1 13.414zM6.414 10H8V9H7v.414z"/><path class="st2" d="M10 9l2 2H4l2-2H4l-3 3 3 3h2l-2-2h8l-2 2h2l3-3-3-3z"/></g><path class="st3" d="M2 4v5.586L3.586 8H3v-.981L8 7v1H7v1.015l1 .004V10h1V7h2v1h1.414L14 9.586V4H2zm6 2H3V5h5v1z" id="icon_x5F_fg"/></svg>