<svg xmlns="http://www.w3.org/2000/svg" viewBox="0 0 16 16"><style>.st0{opacity:0}.st0,.st1{fill:#f6f6f6}.st2{fill:#424242}.st3{fill:#f0eff1}</style><g id="outline"><path class="st0" d="M0 0h16v16H0z"/><path class="st1" d="M16 0v16H4.5L2 13.5 4.5 11H5V0h11z"/></g><g id="icon_x5F_bg"><path class="st2" d="M6 1v10h1V2h7v10H9.5l1 1h.5v1h-.5l-1 1H15V1z"/><path class="st2" d="M13 13h1v1h-1zM9.5 13.5L8 15H7l.979-1H5.012L6 15H5l-1.5-1.5L5 12h1l-.988 1h2.967L7 12h1z"/></g><path class="st3" d="M10.5 14l.5-.5v.5h-.5zm.5-.5V13h-.5l.5.5zM7 2v9h1.5l1 1H14V2H7zm6 12h1v-1h-1v1z" id="icon_x5F_fg"/></svg>