<svg xmlns="http://www.w3.org/2000/svg" viewBox="0 0 16 16"><style>.st0{opacity:0}.st0,.st1{fill:#f6f6f6}.st2{fill:#424242}</style><g id="outline"><path class="st0" d="M0 0h16v16H0z"/><path class="st1" d="M11.721 0H8.279L4.613 11H2.5L0 13.5 2.5 16h4L9 13.5l-.834-.834L8.721 11h2.558l1 3H16v-1.163z"/></g><g id="icon_x5F_bg"><path class="st2" d="M7.5 13.5L6 15H5l.979-1H3.012L4 15H3l-1.5-1.5L3 12h1l-.988 1H5.98L5 12h1l1.5 1.5zM11 1H9L5.667 11H6.5l.875.875L8 10h4l1 3h2L11 1zM8.667 8L10 4l1.333 4H8.667z"/></g></svg>