<svg xmlns="http://www.w3.org/2000/svg" viewBox="0 0 16 16"><style>.st0{opacity:0}.st0,.st1{fill:#f6f6f6}.st2{fill:#424242}.st3{fill:#f0eff1}</style><g id="outline"><path class="st0" d="M0 0h16v16H0z"/><path class="st1" d="M16 14H8.5l-2 2h-4L0 13.5l1-1V0h15v14z"/></g><g id="icon_x5F_bg"><path class="st2" d="M2 1v10.5l.5-.5H3v-1h3v1h.5l.5.5V10h3v2H7.5l1 1H15V1H2zm4 8H3V7h3v2zm0-3H3V4h3v2zm4 3H7V7h3v2zm0-3H7V4h3v2zm4 6h-3v-2h3v2zm0-3h-3V7h3v2zm0-3h-3V4h3v2z"/><path class="st2" d="M7.5 13.5L6 15H5l.979-1H3.013L4 15H3l-1.5-1.5L3 12h1l-.987 1h2.966L5 12h1z"/></g><path class="st3" d="M3 7h3v2H3V7zm0-1h3V4H3v2zm3 4H3v1h3v-1zm4 2v-2H7v1.5l.5.5H10zM7 9h3V7H7v2zm4 0h3V7h-3v2zm0-3h3V4h-3v2zm0 6h3v-2h-3v2zM7 6h3V4H7v2z" id="icon_x5F_fg"/></svg>