<svg xmlns="http://www.w3.org/2000/svg" viewBox="0 0 16 16"><style>.st0{opacity:0}.st0,.st1{fill:#f6f6f6}.st2{fill:#424242}</style><g id="outline"><path class="st0" d="M0 0h16v16H0z"/><path class="st1" d="M1 0v10.586l-1 1v.828l1 1V15h1.586l1 1h6.828l1-1H16V0z"/></g><g id="icon_x5F_bg"><path class="st2" d="M6 3h1v1H6zM4 1h1v1H4zM4 3h1v1H4zM2 5h1v1H2zM2 3h1v1H2zM2 1h1v1H2zM2 7h1v1H2zM10 1h1v1h-1zM10 3h1v1h-1zM8 1h1v1H8zM6 1h1v1H6zM8 3h1v1H8zM14 7h1v1h-1zM14 5h1v1h-1zM14 9h1v1h-1zM14 3h1v1h-1zM14 1h1v1h-1zM14 11.586l.414.414H15v-1h-1zM12 1h1v1h-1zM14 13h1v1h-1zM12 3h1v1h-1zM8 9l2 2H4l2-2H4l-3 3 3 3h2l-2-2h6l-2 2h2l3-3-3-3z"/></g></svg>