<svg xmlns="http://www.w3.org/2000/svg" viewBox="0 0 16 16"><style>.st0{opacity:0}.st0,.st1{fill:#f6f6f6}.st2{fill:#424242}.st3{fill:#f0eff1}</style><g id="outline"><path class="st0" d="M0 0h16v16H0z"/><path class="st1" d="M15.99 6.041A6.222 6.222 0 0 0 9.75 0 6.252 6.252 0 0 0 3.5 6.245c0 .184.01.354.026.528.007.078.021.154.032.227H0v9h10v-3.507c.12-.006.24-.007.36-.019A6.223 6.223 0 0 0 16 6.254c0-.056-.003-.112-.01-.213z"/></g><g id="icon_x5F_bg"><path class="st2" d="M14.991 6.078a5.246 5.246 0 1 0-10.469.63c.009.099.024.195.039.292H7.08a15.649 15.649 0 0 1-1.627-.442 3.794 3.794 0 0 1-.015-.303c0-.614.131-1.197.361-1.727.514.152 1.087.296 1.725.405a9.79 9.79 0 0 0-.057.943c-.005.368.026.744.067 1.124h.826a9.09 9.09 0 0 1-.077-1.116c.004-.29.023-.566.051-.836a13.551 13.551 0 0 0 1.714.092c.366 0 .737-.012 1.116-.04.028.254.049.513.053.785.004.433-.052.902-.157 1.402-.356.025-.706.026-1.06.027V8h.048c.261 0 .524.063.79.05A16.036 16.036 0 0 1 10 10.183v1.311c.088-.004.177-.005.264-.013A5.252 5.252 0 0 0 15 6.255c0-.06-.008-.118-.009-.177zM7.639 4.121a14.216 14.216 0 0 1-1.427-.328 4.32 4.32 0 0 1 1.976-1.554 9.847 9.847 0 0 0-.549 1.882zm2.115.2a12.703 12.703 0 0 1-1.304-.083 9.12 9.12 0 0 1 .751-2.256c.18-.023.362-.039.549-.039.124 0 .245.008.366.019.351.608.708 1.384.915 2.33-.427.029-.849.033-1.277.029zm1.406-2.137a4.307 4.307 0 0 1 2.151 1.641c-.515.177-1 .3-1.463.372a8.672 8.672 0 0 0-.688-2.013zm-.372 8.254c.409-.861.725-1.662.929-2.396a9.548 9.548 0 0 0 2.164-.551 4.321 4.321 0 0 1-3.093 2.947zm3.261-3.902a8.806 8.806 0 0 1-2.136.647 6.907 6.907 0 0 0 .063-2.174 9.373 9.373 0 0 0 1.737-.453 4.29 4.29 0 0 1 .349 1.699c.001.095-.007.187-.013.281z"/><path class="st2" d="M1 15h8V8H1v7zm7-1H2v-4h6v4z"/></g><g id="icon_x5F_fg"><path class="st3" d="M11.977 5.009a9.373 9.373 0 0 0 1.737-.453 4.29 4.29 0 0 1 .349 1.699c0 .095-.008.187-.014.28a8.806 8.806 0 0 1-2.136.647 6.907 6.907 0 0 0 .064-2.173zM13.311 3.825c-.515.177-1 .3-1.463.372a8.766 8.766 0 0 0-.688-2.013 4.307 4.307 0 0 1 2.151 1.641zM10 10.183c.352-.735.644-1.501.838-2.133-.266.013-.529-.05-.79-.05H10v2.183zM11.164 5.1c-.379.028-.75.04-1.116.04-.101 0-.201 0-.302-.002-.489-.005-.96-.038-1.412-.09-.027.27-.047.546-.051.836A9.09 9.09 0 0 0 8.36 7H10v.314c.354-.001.704-.002 1.06-.028.105-.5.161-.969.157-1.402a8.206 8.206 0 0 0-.053-.784zM9.75 1.943c.124 0 .245.008.366.019.351.608.708 1.384.915 2.33-.428.029-.85.033-1.277.029a12.703 12.703 0 0 1-1.304-.083 9.12 9.12 0 0 1 .751-2.256c.18-.023.362-.039.549-.039zM8.188 2.239a9.847 9.847 0 0 0-.549 1.882 14.216 14.216 0 0 1-1.427-.328 4.32 4.32 0 0 1 1.976-1.554zM7.08 7h.454a9.357 9.357 0 0 1-.067-1.124 9.79 9.79 0 0 1 .057-.943 15.106 15.106 0 0 1-1.725-.404 4.32 4.32 0 0 0-.361 1.727c0 .102.008.202.016.303.463.156 1.02.308 1.626.441zM10.788 10.438c.409-.861.725-1.662.929-2.396a9.548 9.548 0 0 0 2.164-.551 4.321 4.321 0 0 1-3.093 2.947zM8 10H2v4h6v-4z"/></g></svg>