<svg xmlns="http://www.w3.org/2000/svg" viewBox="0 0 16 16"><style>.st0{opacity:0}.st0,.st1{fill:#f6f6f6}.st2{fill:#424242}.st3{fill:#f0eff1}</style><g id="outline"><path class="st0" d="M0 0h16v16H0z"/><path class="st1" d="M12.061 1H6C4.701 1 4 2.012 4 2.965V7l-4 3v1l4 3v-1c0 1.299 1.012 2 1.965 2H14c1.299 0 2-1.013 2-2V4.556L12.061 1z"/></g><g id="icon_x5F_bg"><path class="st2" d="M10 10.5L8 9v1H3V9l-2 1.5L3 12v-1h5v1zM6 7h1v1H6zM8 7h1v1H8zM10 7h1v1h-1zM12 7h1v1h-1zM12 9h1v1h-1zM12 11h1v1h-1zM12 13H6v-1H5v1c0 1 .965 1 .965 1H12v-1z"/><path class="st2" d="M11.676 2H6c-1 0-1 .965-1 .965V7h1V3h5v3h3v7h-1v1h1c1 0 1-.965 1-.965V5l-3.324-3z"/></g><path class="st3" d="M11 6V3H6v4h1v1H6v2h2V9l2 1.5L8 12v-1H6v2h8V6h-3zM9 8H8V7h1v1zm2 0h-1V7h1v1zm2 4h-1v-1h1v1zm0-2h-1V9h1v1zm0-2h-1V7h1v1z" id="icon_x5F_fg"/></svg>