<svg xmlns="http://www.w3.org/2000/svg" viewBox="0 0 16 16"><style>.st0{opacity:0}.st0,.st1{fill:#f6f6f6}.st2{fill:#424242}</style><g id="outline"><path class="st0" d="M0 0h16v16H0z"/><path class="st1" d="M14.658 3.927c-.402.624-1.046 1.282-1.658 1.844V2.532s-.646-.261-1.958-.636c-.046.277-.228.771-.416 1.235-.44.999-1 1.97-1.631 2.851V.287L8.059 0H6.778c-.047.263-.114.567-.184.855V.86c-.073.438-.463 2.45-1.888 5.198a26.197 26.197 0 0 1-4.425 6.166L0 12.515v2.362h.002v.44c.783-.271 1.676-.54 2.662-.776.15-.039.313-.078.489-.119l.096-.023a21.293 21.293 0 0 1 4.604-.505c.472 0 .928.02 1.371.049.064.004.129.007.193.012.465.035.909.086 1.334.144l.119.016a21.06 21.06 0 0 1 3.911.946L16 14.633V4.929a64.924 64.924 0 0 0-1.342-1.002z"/></g><g id="icon_x5F_bg"><path class="st2" d="M1.162 13.813c.436-.465 2.607-2.61 6.833-4.104V1.025L7.599.903h-.005v.035c-.042.285-.396 2.485-2 5.579A27.135 27.135 0 0 1 1 12.919v1.049l.007-.006h-.001c.016-.016.035-.03.051-.047.02-.021.07-.068.105-.102z"/><path class="st2" d="M11.713 3.15v-.004a16.557 16.557 0 0 1-2.711 4.451v3.053c-5.007.911-7.945 3.265-7.945 3.265a.423.423 0 0 1 .041-.023l-.004.003-.019.014.003-.002a3.442 3.442 0 0 0-.078.061c1.289-.794 2.631-1.274 3.915-1.56 3.474-.966 6.476-.845 7.085-.807V3.248l-.287-.098z"/><path class="st2" d="M15 13.925V5.469l-.219-.12v-.004s-.459.574-1.781 1.77V12.6c-.731-.102-3.469-.436-6.231-.141-1.827.138-3.895.538-5.757 1.504l.093.008s6.294-2.455 13.609.05v.005l.286-.101z"/></g></svg>