<svg xmlns="http://www.w3.org/2000/svg" viewBox="0 0 16 16"><style>.st0{opacity:0}.st0,.st1{fill:#f6f6f6}.st2{fill:#424242}.st3{fill:#f0eff1}</style><g id="outline"><path class="st0" d="M0 0h16v16H0z"/><path class="st1" d="M12.061 0H6c-.97 0-2 .701-2 2v5.978H0V16h8v-2h6c1.299 0 2-1.03 2-2V3.556L12.061 0z"/></g><g id="icon_x5F_bg"><path class="st2" d="M1.7 11.275l-.7.933V9h6v2.869L5.826 9.813c-.135-.233-.518-.233-.652 0l-1.717 3.005L2.3 11.275a.374.374 0 0 0-.6 0zm2.126 2.411a.377.377 0 0 1-.303.189.391.391 0 0 1-.323-.15l-1.2-1.6-1 1.333V15h6v-1.619l-1.5-2.625-1.674 2.93z"/><path class="st2" d="M11.641 1H5.964S5 1 5 2v5.978h1V2h5v3h3v7H8v1h5.965c1 0 1.035-1 1.035-1V4l-3.359-3z"/></g><g id="icon_x5F_fg"><path class="st3" d="M7 11.869v1.512l-1.5-2.625-1.674 2.93a.377.377 0 0 1-.303.189.391.391 0 0 1-.323-.15l-1.2-1.6-1 1.333v-1.25l.7-.933a.374.374 0 0 1 .6 0l1.157 1.543 1.717-3.005c.135-.233.518-.233.652 0L7 11.869zM11 5V2H6v5.978h2V12h6V5z"/></g></svg>