<svg xmlns="http://www.w3.org/2000/svg" viewBox="0 0 16 16"><style>.st0{opacity:0;fill:#f0eff1}.st1,.st2{fill:#f6f6f6}.st2{display:none}.st3{fill:#424242}.st4{fill:#f0eff1}</style><g id="outline"><path class="st0" d="M0 0h16v16H0z"/><path class="st1" d="M15.771 16l-.849-3.39.008-.024.012-.056c.038-.18.058-.359.058-.53v-.845c.315-.504.49-1.089.49-1.696 0-.62-.185-1.195-.49-1.686V6c0-.173-.02-.351-.056-.518l-.039-.144a2.7 2.7 0 0 0-.127-.377l-.058-.116a3.024 3.024 0 0 0-.183-.326l-.075-.104a3.23 3.23 0 0 0-.233-.295l-.084-.09a4.297 4.297 0 0 0-.361-.338 5.222 5.222 0 0 0-.413-.308 6.55 6.55 0 0 0-.962-.528L12 2.672v-.086L9.414 0H6.586L4 2.586v.086l-.411.184a7.52 7.52 0 0 0-.516.258 5.43 5.43 0 0 0-.912.625 4.123 4.123 0 0 0-.308.294l-.07.073a3.128 3.128 0 0 0-.244.308l-.077.106a3.317 3.317 0 0 0-.182.324l-.065.134c-.05.119-.088.238-.113.335l-.034.106-.012.057A2.574 2.574 0 0 0 1 6v6c0 1.303.997 2.473 2.68 3.185l.101.05.038.009c.138.055.284.104.431.152l.193.066c.091.033.182.065.267.09.058.018.119.032.213.053.305.082.621.154.949.21.297.053.6.098.917.127.392.037.796.058 1.211.058.271 0 .528-.019.786-.036L8.777 16h3.11l.247-.741c.014-.006.026-.008.04-.014l.095-.037c.039-.016.074-.033.111-.05l.281.842h3.11z"/></g><g id="icon_x5F_bg"><path class="st2" d="M11.586 0L10 1.586V0H6v1.586L4.414 0H4v4.414l3.222 3.314h1.555L12 4.414V0z"/><path class="st3" d="M12.442 5.184c.104.081.193.162.268.244.032.035.056.07.082.105.047.06.094.12.124.179a.666.666 0 0 1 .081.288c0 .1-.031.203-.088.307.396.08.762.237 1.091.447V6a1.55 1.55 0 0 0-.035-.319c-.006-.029-.018-.057-.026-.085a1.773 1.773 0 0 0-.075-.227c-.012-.028-.029-.056-.043-.084a1.981 1.981 0 0 0-.122-.219c-.016-.024-.035-.047-.051-.07a2.514 2.514 0 0 0-.176-.222l-.051-.053a3.173 3.173 0 0 0-.28-.261 4.01 4.01 0 0 0-.301-.227l-.029-.019a5.018 5.018 0 0 0-.369-.225l-.012-.006a5.065 5.065 0 0 0-.43-.214V4.89a3.722 3.722 0 0 1 .442.294zM9.297 13.917c-.055.007-.102.018-.158.024l-.104.01a11.064 11.064 0 0 1-1.907.014l-.063-.006a10.181 10.181 0 0 1-.767-.094l-.014-.002a8.838 8.838 0 0 1-.63-.131c-.054-.014-.113-.026-.166-.041-.028-.007-.053-.017-.08-.024-1.933-.573-2.355-1.687-2.355-1.687L3 8.538V7.534c.08.076 1.443 1.318 4.977 1.318.414 0 .791-.019 1.148-.046.081-.389.237-.749.444-1.073-.483.061-1.004.1-1.569.1C4.95 7.832 3.003 6.815 3.003 6c0-.061.025-.127.048-.191.009-.028.01-.055.023-.083.041-.085.103-.172.179-.259.006-.007.01-.014.017-.021.17-.189.417-.378.73-.557V3.768a5.966 5.966 0 0 0-.443.221 5.018 5.018 0 0 0-.398.244 4.01 4.01 0 0 0-.301.227l-.044.036a3.173 3.173 0 0 0-.236.225l-.051.054a2.542 2.542 0 0 0-.176.221c-.016.024-.035.047-.051.07a2.16 2.16 0 0 0-.122.219c-.013.029-.03.056-.043.084a1.624 1.624 0 0 0-.074.227c-.008.029-.02.056-.026.085A1.55 1.55 0 0 0 2 6v6c0 .918.827 1.738 2.125 2.289l.006.002c.166.07.35.128.531.188.113.038.218.081.336.115.058.017.123.028.182.044a10.818 10.818 0 0 0 1.7.308 11.73 11.73 0 0 0 2.159.006l.258-1.035z"/><path class="st3" d="M7.051 3v2.996H9V3l2 2V3L8.051 0l-3 3v2l2-2zM14.49 9.459a2.216 2.216 0 1 0-4.432 0c0 .745.371 1.401.934 1.802l-.934 3.738h1.108l1.108-3.324 1.108 3.324h1.108l-.935-3.738a2.205 2.205 0 0 0 .935-1.802zm-2.216 1.108a1.108 1.108 0 1 1 0-2.216 1.108 1.108 0 0 1 0 2.216z"/></g><g id="icon_x5F_fg"><path class="st4" d="M9.877 11.598a3.219 3.219 0 0 1-.751-2.793c-.358.028-.735.047-1.149.047-3.645 0-4.993-1.332-4.993-1.332l.069 4.461S3.813 14 8 14c.476 0 .903-.029 1.295-.074l.582-2.328zM11.196 6.443L10 5.414V7H6V5.414L4 6.981V4.97c-.572.285-.916.633-.916 1.011 0 .965 2.19 1.747 4.891 1.747.597 0 1.152-.049 1.678-.12a3.21 3.21 0 0 1 1.543-1.165zM13.382 9.459a1.108 1.108 0 1 1-2.216 0 1.108 1.108 0 0 1 2.216 0z"/></g></svg>