<svg xmlns="http://www.w3.org/2000/svg" viewBox="0 0 16 16"><style>.st0{opacity:0;fill:#f0eff1}.st1{display:none}.st1,.st2{fill:#f6f6f6}.st3{fill:#424242}.st4{fill:#f0eff1}</style><path class="st0" d="M0 0h16v16H0z" id="outline"/><g id="icon_x5F_bg"><path class="st1" d="M11.586 0L10 1.586V0H6v1.586L4.414 0H4v4.414l3.222 3.314h1.555L12 4.414V0z"/><path class="st2" d="M14.944 5.482l-.039-.144a2.7 2.7 0 0 0-.127-.377l-.058-.116a3.024 3.024 0 0 0-.183-.326l-.075-.104a3.23 3.23 0 0 0-.233-.295l-.084-.09a4.297 4.297 0 0 0-.361-.338 5.222 5.222 0 0 0-.413-.308 6.55 6.55 0 0 0-.962-.528L12 2.672v-.086L9.414 0H6.586L4 2.586v.086l-.411.184a7.52 7.52 0 0 0-.516.258 5.43 5.43 0 0 0-.912.625 4.123 4.123 0 0 0-.308.294l-.07.073a3.128 3.128 0 0 0-.244.308l-.077.106a3.317 3.317 0 0 0-.182.324l-.065.134c-.05.119-.088.238-.113.335l-.034.106-.012.057A2.574 2.574 0 0 0 1 6v6c0 1.303.997 2.473 2.68 3.185l.101.05.038.009c.138.055.284.104.431.152l.193.066c.091.033.182.065.267.09.058.018.119.032.213.053.305.082.621.154.949.21.297.053.6.098.917.127.392.037.796.058 1.211.058.385 0 .759-.02 1.114-.051l.1-.008a11.272 11.272 0 0 0 2.112-.4c.283-.083.555-.176.848-.296l.095-.037c.18-.076.352-.158.483-.228l.106-.057c.138-.074.271-.15.396-.23l.11-.073c.115-.078.226-.157.313-.228l.136-.109c.093-.079.181-.161.265-.244l.122-.127c.079-.088.151-.178.207-.253.042-.054.083-.109.113-.155.066-.099.122-.198.184-.318l.071-.144a2.58 2.58 0 0 0 .119-.342l.036-.114.012-.056c.038-.18.058-.359.058-.53V6c0-.173-.02-.351-.056-.518z"/><path class="st3" d="M13.965 5.681c-.006-.029-.018-.057-.026-.085a1.773 1.773 0 0 0-.075-.227c-.012-.028-.029-.056-.043-.084a1.981 1.981 0 0 0-.122-.219c-.016-.024-.035-.047-.051-.07a2.514 2.514 0 0 0-.176-.222l-.051-.053a3.173 3.173 0 0 0-.28-.261 4.01 4.01 0 0 0-.301-.227l-.029-.019a5.018 5.018 0 0 0-.369-.225l-.012-.006a5.065 5.065 0 0 0-.43-.214V4.89c.151.086.285.175.404.265l.038.03c.104.081.193.162.268.244.032.035.056.07.082.105.047.06.094.12.124.179a.658.658 0 0 1 .081.287c0 .102-.03.207-.09.313-.029.051-.085.102-.127.154-.045.055-.076.109-.135.164a2.57 2.57 0 0 1-.4.29l-.025.018c-.838.496-2.314.893-4.22.894C4.95 7.832 3.003 6.815 3.003 6c0-.061.025-.127.048-.191.009-.028.01-.055.023-.083.041-.085.103-.172.179-.259.006-.007.01-.014.017-.021.17-.189.417-.378.73-.557V3.768a5.966 5.966 0 0 0-.443.221 5.018 5.018 0 0 0-.398.244 4.01 4.01 0 0 0-.301.227l-.044.036a3.173 3.173 0 0 0-.236.225l-.051.054a2.542 2.542 0 0 0-.176.221c-.016.024-.035.047-.051.07a2.16 2.16 0 0 0-.122.219c-.013.029-.03.056-.043.084a1.624 1.624 0 0 0-.074.227c-.008.029-.02.056-.026.085A1.55 1.55 0 0 0 2 6v6c0 .918.827 1.738 2.125 2.289l.006.002c.166.07.35.128.531.188.113.038.218.081.336.115.058.017.123.028.182.044a10.818 10.818 0 0 0 1.7.308c.364.034.737.054 1.12.054.355 0 .701-.018 1.04-.048l.079-.006a10.229 10.229 0 0 0 1.882-.351 7.675 7.675 0 0 0 .867-.304l.006-.002c.156-.066.304-.136.446-.21l.064-.035c.117-.063.229-.128.335-.195l.088-.059c.092-.062.18-.125.263-.19l.094-.077c.073-.062.141-.125.205-.189l.089-.092c.057-.063.108-.126.157-.191.026-.034.052-.068.075-.103.043-.065.079-.131.114-.198.018-.036.039-.071.055-.107.031-.071.053-.144.074-.218.009-.033.023-.065.03-.098.024-.109.037-.217.037-.327V6a1.55 1.55 0 0 0-.035-.319zM13 12s-.443 1.071-2.322 1.645c-.459.13-.967.236-1.539.295l-.104.01a10.994 10.994 0 0 1-1.907.015l-.063-.006a10.181 10.181 0 0 1-.767-.094l-.014-.002a8.838 8.838 0 0 1-.63-.131c-.054-.014-.113-.026-.166-.041-.028-.007-.053-.017-.08-.024-1.933-.573-2.355-1.687-2.355-1.687L3 8.538V7.534c.08.076 1.443 1.318 4.977 1.318 3.645 0 5.023-1.19 5.023-1.19V12z"/></g><g id="icon_x5F_fg"><path class="st4" d="M2.984 7.52s1.348 1.332 4.993 1.332S13 7.662 13 7.662V12s-.813 2-5 2-4.947-2.019-4.947-2.019L2.984 7.52z"/><path class="st4" d="M10 5.414V7H6V5.414L4 6.981V4.97c-.572.285-.916.633-.916 1.011 0 .965 2.19 1.747 4.891 1.747 1.6 0 3.007-.278 3.899-.702L10 5.414zM12 4.992v1.979c.544-.281.865-.622.865-.99s-.321-.708-.865-.989z"/><path class="st3" d="M7.051 3v2.996H9V3l2 2V3L8.051 0l-3 3v2l2-2z"/></g></svg>