<svg xmlns="http://www.w3.org/2000/svg" viewBox="0 0 16 16"><style>.st0{fill:#f6f6f6}.st1{fill:none}.st2{fill:#424242}.st3{fill:#00539c}.st4{fill:#f0eff1}</style><path class="st0" d="M6.453 2.984L3.423 0h-.837L0 2.586V12.5c0 1.533.997 3.027 2.372 3.5H16V3s-8.344-.016-9.547-.016z" id="outline"/><g id="icon_x5F_bg"><path class="st1" d="M9.266 9H11v1H9v-.734l-1-.143V10H7V9h.135L6 8.838V13H5l-.021-.711C4.876 11.561 4.256 11 3.5 11s-1.376.561-1.479 1.289c-.009.07-.021.139-.021.211A1.5 1.5 0 0 0 3.495 14h.006l.006-.007V14H14V5H8.535l.186.186L9.266 9zM8 13H7v-1h1v1zm5 0H9v-1h4v1zM9 6h4v1H9V6z"/><path class="st0" d="M7 6h1v1H7z"/><path class="st2" d="M9 12h4v1H9zM7 12h1v1H7zM11 9h1.016v1H11zM9.553 6l1.021 1H13V6z"/><path class="st2" d="M7.535 4l1 1H14v9H3.507v-.007L3.501 14h-.006A1.5 1.5 0 0 1 2 12.5c0-.072.012-.141.021-.211C2.124 11.561 2.744 11 3.5 11s1.376.561 1.479 1.289L5 13h1V9.564l-.814-.842L1 4.536V12.5a2.494 2.494 0 0 0 2.372 2.487V15H15V4H7.535z"/></g><g id="color_x5F_action"><path transform="rotate(-45.001 6 6)" class="st3" d="M4.586 3.171h2.828v5.656H4.586z"/><path transform="rotate(-45.001 2.5 2.5)" class="st3" d="M1.086 1.793h2.828v1.414H1.086z"/><path class="st3" d="M10 8v1.999L8 10"/></g><path class="st4" d="M8.535 5l.186.186.832.814H13v1h-2.426l.426.417V9h1.016v1H11v1H7.609l-1.003-1h-.021L6 9.414V13H5l-.021-.711C4.876 11.561 4.256 11 3.5 11s-1.376.561-1.479 1.289c-.009.07-.021.139-.021.211A1.5 1.5 0 0 0 3.495 14h.006l.006-.007V14H14V5H8.535zM8 13H7v-1h1v1zm5 0H9v-1h4v1z" id="icon_x5F_fg"/></svg>