<svg xmlns="http://www.w3.org/2000/svg" viewBox="0 0 16 16"><style>.st0{opacity:0;fill:#f6f6f6}.st1{fill:#424242}.st2{fill:#f6f6f6}.st3{fill:#f0eff1}</style><g id="outline"><path class="st0" d="M0 0h16v16H0z"/><path class="st2" d="M16 0h-5v4.497L9.694 1H6.306L5 4.495V0H0v5h4.811l-.732 1.96.88 3.04H4v1H0v5h5v-1.764l.382.764h5.236l.382-.764V16h5v-5h-4v-1h-.959l.879-3.039L11.188 5H16z"/></g><g id="icon_x5F_bg"><path class="st1" d="M10 10l.867-3L9 2h-.5v3H9v2H7V5h.5V2H7L5.132 7 6 10zM1 1v3h3V1H1zm2 2H2V2h1v1zM12 1v3h3V1h-3zm2 2h-1V2h1v1zM1 12v3h3v-3H1zm2 2H2v-1h1v1zM12 12v3h3v-3h-3zm2 2h-1v-1h1v1zM5 11v1l1 2h4l1-2v-1H5zm3 2H6.5L6 12h2v1z"/></g><g id="icon_x5F_fg"><path class="st3" d="M2 2h1v1H2zM13 2h1v1h-1zM2 13h1v1H2zM13 13h1v1h-1zM8 13v-1H6l.5 1z"/></g></svg>