<svg xmlns="http://www.w3.org/2000/svg" viewBox="0 0 16 16" enable-background="new 0 0 16 16"><style type="text/css">.icon-canvas-transparent{opacity:0;fill:#F6F6F6;} .icon-vs-out{fill:#F6F6F6;} .icon-vs-bg{fill:#424242;} .icon-vs-fg{fill:#F0EFF1;} .icon-vs-action-blue{fill:#00539C;}</style><path class="icon-canvas-transparent" d="M16 16h-16v-16h16v16z" id="canvas"/><path class="icon-vs-out" d="M16 3v13h-15v-11.604l-1-.987v-.823l2.586-2.586h.823l2.966 3h9.625z" id="outline"/><path class="icon-vs-bg" d="M7.364 4l1.977 2h1.659v4.998l-3.312.002-3.038-3h-1.65v-1.629l-1-.988v9.617h13v-11h-7.636zm-2.364 10h-2v-2h2v2zm3 0h-2v-2h2v2zm3 0h-2v-2h2v2zm3 0h-2v-2h2v2zm0-6h-2v-2h2v2z" id="iconBg"/><path class="icon-vs-fg" d="M6 12h2v2h-2v-2zm-3 2h2v-2h-2v2zm9-8v2h2v-2h-2zm-9 .371v1.629h1.65l-1.65-1.629zm9 7.629h2v-2h-2v2zm-1-6.322v-1.678h-1.659l1.659 1.678zm-2 6.322h2v-2h-2v2z" id="iconFg"/><path class="icon-vs-action-blue" d="M9 6.999l-2 2-4-3.999 2-2 4 3.999zm-6-5.999l-2 2 1 1 2-2-1-1zm5 9l2-.001v-1.999l-2 2z" id="colorAction"/></svg>