<svg xmlns="http://www.w3.org/2000/svg" viewBox="0 0 16 16"><style>.st0{opacity:0}.st0,.st1{fill:#f6f6f6}.st2{fill:#424242}.st3{fill:#00539c}.st4{fill:#f0eff1}</style><g id="outline"><path class="st0" d="M0 0h16v16H0z"/><path class="st1" d="M2 8.619V16h12V8.412l2-1.998v-.828l-3-3-4.252 4.239L1.393 0H0v10.815z"/></g><g id="icon_x5F_bg"><path class="st2" d="M4.955 8.463L3.869 5.998h2.518L1 1v7.231l1.629-1.789 1.137 2.562zM6.567 9L7.57 8H5.844l.425.964-.08.036zM12 10.41V14H8.406l-.015.016H5V14H4V9.996l-.739.336L3 9.744V15h10V9.411z"/></g><g id="color_x5F_action"><path transform="rotate(-45.001 10 9)" class="st3" d="M7.172 7.585h5.656v2.828H7.172z"/><path transform="rotate(-45.001 13.5 5.5)" class="st3" d="M12.793 4.086h1.414v2.828h-1.414z"/><path class="st3" d="M6 11v1.999L8 13"/></g><g id="icon_x5F_fg"><path class="st4" d="M8.406 14H12v-3.59zM4 9.996V14h1v-3.437L6.567 9h-.378z"/></g></svg>