<svg xmlns="http://www.w3.org/2000/svg" viewBox="0 0 16 16"><style>.st0{fill:#f6f6f6}.st1{fill:#424242}.st2{fill:#f0eff1}.st3{fill:#fc0}</style><g id="outline"><path class="st0" d="M8.309 15.5l-.75-1.5.75-1.5H.5V.5h10v7h1.691l3.25 6.5-.75 1.5z"/><path class="st0" d="M10 1v7H11.882l3 6-.5 1H8.618l-.5-1 .276-.553L9.118 12H1V1h9m1-1H0v13h7.5L7 14l1 2h7l1-2-3.5-7H11V0z"/></g><g id="icon_x5F_bg"><path class="st1" d="M3 9h3v1H3zM3 5h3v1H3zM3 3h5v1H3zM3 7h4v1H3zM7 5h1v1H7z"/><path class="st1" d="M1 1v11h7l.5-1H2V2h7v8l1-2V1z"/></g><path class="st2" d="M2 2v9h6.5l.5-1V2H2zm1 3h3v1H3V5zm3 5H3V9h3v1zm1-2H3V7h4v1zm1-2H7V5h1v1zm0-2H3V3h5v1z" id="icon_x5F_fg"/><path class="st3" d="M11.891 8.016h-.781l-3.016 6 .515.984h5.766l.484-1-2.968-5.984zM12 14h-1v-1h1v1zm0-2h-1v-2h1v2z" id="not_x5F_bg"/><g id="not_x5F_fg"><path d="M11 13h1v1h-1zM11 10h1v2h-1z"/></g></svg>