<svg xmlns="http://www.w3.org/2000/svg" viewBox="0 0 16 16"><style>.st0{opacity:0}.st0,.st1{fill:#f6f6f6}.st2{fill:#424242}.st3{fill:#f0eff1}</style><g id="outline"><path class="st0" d="M0 0h16v16H0z"/><path class="st1" d="M11 0v3H5V0H0v5h4v2h2v7h4V7h2V5h4V0z"/><path class="st1" d="M0 11h5v5H0zM11 11h5v5h-5z"/></g><g id="icon_x5F_bg"><path class="st2" d="M1 1v3h3V1H1zm2 2H2V2h1v1zM12 1v3h3V1h-3zm2 2h-1V2h1v1zM1 12v3h3v-3H1zm2 2H2v-1h1v1zM12 12v3h3v-3h-3zm2 2h-1v-1h1v1zM5 4v2h2v7h2V6h2V4z"/></g><g id="icon_x5F_fg"><path class="st3" d="M2 2h1v1H2zM13 2h1v1h-1zM2 13h1v1H2zM13 13h1v1h-1z"/></g></svg>