<svg xmlns="http://www.w3.org/2000/svg" viewBox="0 0 16 16"><style>.st0{fill:#f6f6f6}.st1{fill:#424242}.st2{fill:#00539c}</style><path class="st0" d="M8.391 11L16 3.413v-.827L13.414 0h-.837L5 7.417v1.462l-1 1V5.414l1 1V2.085L2.914 0h-.828L0 2.085v4.329l1-1V15h9.586l-1 1h4.328L16 13.914v-.828L13.914 11H9.586l1 1H6.121l1-1z" id="outline"/><path class="st1" d="M12 12l1 1H3.707l2-2H5v-.707l-2 2V3l1 1V2.5L2.5 1 1 2.5V4l1-1v11h11l-1 1h1.5l1.5-1.5-1.5-1.5z" id="icon_x5F_bg"/><g id="color_x5F_action"><path transform="rotate(-45.001 10 6)" class="st2" d="M7.172 4.585h5.656v2.828H7.172z"/><path transform="rotate(-45.001 13.5 2.5)" class="st2" d="M12.793 1.086h1.414v2.828h-1.414z"/><path class="st2" d="M6 8v1.999L8 10"/></g></svg>