<svg xmlns="http://www.w3.org/2000/svg" viewBox="0 0 16 16"><style>.st0{opacity:0}.st0,.st1{fill:#f6f6f6}.st2{fill:#424242}.st3{fill:#f0eff1}</style><g id="outline"><path class="st0" d="M0 0h16v16H0z"/><path class="st1" d="M11 0v3.164A7.557 7.557 0 0 0 9.5 3C7.654 3 6.003 3.656 5 4.716V0H0v5h4.74a3.62 3.62 0 0 0-.347.529L4.142 6H1v5H0v5h5v-4h5v-1.031l.074-.006C12.929 10.751 15 9.084 15 7c0-.738-.281-1.413-.742-2H16V0h-5z"/><path class="st1" d="M11 11h5v5h-5z"/></g><g id="icon_x5F_bg"><path class="st2" d="M1 1v3h3V1H1zm2 2H2V2h1v1zM12 1v3h3V1h-3zm2 2h-1V2h1v1zM1 12v3h3v-3H1zm2 2H2v-1h1v1zM12 12v3h3v-3h-3zm2 2h-1v-1h1v1zM9.5 4c-1.956 0-3.605.837-4.224 2H10v3.966c2.247-.167 4-1.423 4-2.966 0-1.657-2.015-3-4.5-3z"/><path class="st2" d="M2 7h7v4H2z"/></g><g id="icon_x5F_fg"><path class="st3" d="M2 2h1v1H2zM13 2h1v1h-1zM2 13h1v1H2zM13 13h1v1h-1z"/></g></svg>