<svg xmlns="http://www.w3.org/2000/svg" viewBox="0 0 16 16"><style>.icon-canvas-transparent{opacity:0;fill:#f6f6f6}.icon-vs-out{fill:#f6f6f6}.icon-vs-fg{fill:#f0eff1}.icon-vs-action-blue{fill:#00539c}</style><path class="icon-canvas-transparent" d="M16 0v16H0V0h16z" id="canvas"/><path class="icon-vs-out" d="M14.102 6.207l-7.725 7.725L.632 15.37l1.436-5.745L9.793 1.9c.575-.575 1.341-.892 2.154-.892s1.579.316 2.154.891a3.05 3.05 0 0 1 .001 4.308z" id="outline"/><path class="icon-vs-fg" d="M12.688 4.793l-7.333 7.333-1.975.493.494-1.973 7.333-7.333a1.048 1.048 0 0 1 1.481 1.48z" id="iconFg"/><g id="iconBg"><path class="icon-vs-action-blue" d="M13.395 2.606a2.05 2.05 0 0 0-2.895 0l-7.529 7.529-.964 3.859 3.859-.966L13.395 5.5a2.05 2.05 0 0 0 0-2.894zm-.707 2.187l-7.333 7.333-1.975.493.494-1.973 7.333-7.333a1.048 1.048 0 0 1 1.481 1.48z"/></g></svg>