<svg xmlns="http://www.w3.org/2000/svg" viewBox="0 0 16 16"><style>.st0{opacity:0}.st0,.st1{fill:#f6f6f6}.st2{fill:#424242}.st3{fill:#f0eff1}</style><g id="outline"><path class="st0" d="M0 0h16v16H0z"/><path class="st1" d="M3 1h11v13H3z"/></g><path class="st2" d="M9.001 11h-3v-1h3v1zm0-5h-3v1h3V6zm2-2h-5v1h5V4zm-1 4h-4v1h4V8zm1-2h-1v1h1V6zm2-4v11h-9V2h9zm-1 10V3h-7v9h7z" id="icon_x5F_bg"/><path class="st3" d="M12.001 3H5v9h7l.001-9zm-6 1h5v1h-5V4zm4 3V6h1v1h-1zm-4-1h3v1h-3V6zm0 2h4v1h-4V8zm0 3v-1H9v1H6.001z" id="icon_x5F_fg"/></svg>