<svg xmlns="http://www.w3.org/2000/svg" viewBox="0 0 16 16"><style>.st0{fill:#f6f6f6}.st1{fill:#424242}.st2{fill:#00539c}.st3{fill:#f0eff1}</style><path class="st0" d="M10 0v3.879L8.707 5.172 3.423 0h-.837L0 2.586v.827l5.241 5.225L3.879 10H0v6h6v-3.879l1.365-1.365.244.244H11V7.417l-.149-.146L12.121 6H16V0z" id="outline"/><g id="icon_x5F_bg"><path class="st1" d="M5.949 9.344L4.293 11H1v4h4v-3.293l1.657-1.657-.708-.706zM4 14H2v-2h2v2zM11 1v3.293L9.421 5.872l.715.7L11.707 5H15V1h-4zm3 3h-2V2h2v2z"/></g><g id="color_x5F_action"><path transform="rotate(-45.001 6 6)" class="st2" d="M4.586 3.171h2.828v5.656H4.586z"/><path transform="rotate(-45.001 2.5 2.5)" class="st2" d="M1.086 1.793h2.828v1.414H1.086z"/><path class="st2" d="M10 8v1.999L8 10"/></g><g id="icon_x5F_fg"><path class="st3" d="M2 12h2v2H2zM12 2h2v2h-2z"/></g></svg>