<svg xmlns="http://www.w3.org/2000/svg" viewBox="0 0 16 16"><style>.st0{fill:#f6f6f6}.st1{fill:#424242}.st2{fill:#00539c}.st3{fill:#f0eff1}</style><g id="outline"><path class="st0" d="M3.423 0h-.837L0 2.586v.827L7.609 11H11V7.417L3.423 0z"/><path class="st0" d="M6.488 3L3.423 0h-.837L0 2.586v.827l3 2.991V16h13V3z"/></g><g id="icon_x5F_bg"><path class="st1" d="M10 4h1v1h-1zM12 4h1v1h-1zM4 14.001h1V15H4zM10 14h1v1h-1zM8 14h1v1H8zM14 4h1v1h-1zM4 12h1v1H4zM12 14h1v1h-1zM6 14h1v1H6zM14 14h1v1h-1zM4 10h1v1H4zM14 10h1v1h-1zM14 8h1v1h-1zM14 12h1v1h-1zM14 6h1v1h-1zM6 11h3v2H6zM10 11h3v2h-3zM4 8v1h1v-.586L4.586 8zM6 10h.586L6 9.414zM8.531 5H9V4H8v.48zM9.553 6l1.021 1H12v2h-1v1h2V6z"/></g><g id="color_x5F_action"><path transform="rotate(-45.001 6 6)" class="st2" d="M4.586 3.171h2.828v5.656H4.586z"/><path transform="rotate(-45.001 2.5 2.5)" class="st2" d="M1.086 1.793h2.828v1.414H1.086z"/><path class="st2" d="M10 8v1.999L8 10"/></g><path class="st3" d="M10.574 7l.426.417V9h1V7z" id="icon_x5F_fg"/></svg>