<svg xmlns="http://www.w3.org/2000/svg" viewBox="0 0 16 16"><style>.st0{opacity:0}.st0,.st1{fill:#f6f6f6}.st2{fill:#424242}.st3{fill:#00539c}.st4{fill:#f0eff1}</style><g id="outline"><path class="st0" d="M0 0h16v16H0z"/><path class="st1" d="M8.531 5L3.423 0h-.837L0 2.586v.827L1.592 5H0v8h16V5z"/></g><path class="st2" d="M9.553 6L11 7.417V8h3l-2 2-1-1v2H7.609l-1.003-1H3V8h1.601L2.595 6H1v6h14V6z" id="icon_x5F_bg"/><g id="color_x5F_action"><path transform="rotate(-45.001 6 6)" class="st3" d="M4.586 3.171h2.828v5.656H4.586z"/><path transform="rotate(-45.001 2.5 2.5)" class="st3" d="M1.086 1.793h2.828v1.414H1.086z"/><path class="st3" d="M10 8v1.999L8 10"/></g><g id="icon_x5F_fg"><path class="st4" d="M4.601 8H3v2h3.606zM11 8v1l1 1 2-2z"/></g></svg>