<svg xmlns="http://www.w3.org/2000/svg" viewBox="0 0 16 16"><style>.st0{fill:#f6f6f6}.st1{fill:#424242}.st2{fill:#00539c}.st3{fill:#f0eff1}</style><path class="st0" d="M16 2.586L13.414 0h-.837L9.513 3H0v13h15V4.41l1-.997z" id="outline"/><g id="icon_x5F_bg"><path class="st1" d="M1 10h1v1H1zM1 12h1v1H1zM1 6h1v1H1zM1 4h1v1H1zM1 8h1v1H1zM8 4.48V4H7v1h.469zM1 14h1v1H1zM5 4h1v1H5zM9 10.393L8.391 11H8v1H4V7h1.426l1.022-1H3v7h6zM3 4h1v1H3zM9 14h1v1H9zM13 12h1v1h-1zM13 8h1v1h-1zM13 10h1v1h-1zM3 14h1v1H3zM13 6.404V7h1V6h-.595zM5 14h1v1H5zM7 14h1v1H7zM11 14h1v1h-1zM13 14h1v1h-1z"/></g><g id="color_x5F_action"><path transform="rotate(-45.001 10 6)" class="st2" d="M7.172 4.585h5.656v2.828H7.172z"/><path transform="rotate(-45.001 13.5 2.5)" class="st2" d="M12.793 1.086h1.414v2.828h-1.414z"/><path class="st2" d="M6 8v1.999L8 10"/></g><path class="st3" d="M5 11V7.417L5.426 7H4v5h4v-1z" id="icon_x5F_fg"/></svg>