<svg xmlns="http://www.w3.org/2000/svg" width="16" height="16"><style type="text/css">.icon-canvas-transparent{opacity:0;fill:#F6F6F6;} .icon-vs-out{fill:#F6F6F6;} .icon-vs-bg{fill:#424242;} .icon-vs-fg{fill:#F0EFF1;} .icon-vs-action-blue{fill:#00539C;}</style><path class="icon-canvas-transparent" d="M16 16h-16v-16h16v16z" id="canvas"/><path class="icon-vs-out" d="M16 0v16h-10v-6.604l-6-5.983v-.827l2.586-2.586h.837l2.577 2.522v-2.522h10z" id="outline"/><path class="icon-vs-bg" d="M15 1v14h-8v-4.607l.609.607h.391v3h6v-3h-3v-1h3v-3h-3.426l-1.021-1h4.447v-3h-6v1.48l-1-.979v-2.501h8z" id="iconBg"/><path class="icon-vs-fg" d="M10.574 7h3.426v3h-3v-2.583l-.426-.417zm-2.574 4v3h6v-3h-6zm0-8v1.48l1.553 1.52h4.447v-3h-6z" id="iconFg"/><path class="icon-vs-action-blue" d="M9 6.999l-2 2-4-3.999 2-2 4 3.999zm-6-5.999l-2 2 1 1 2-2-1-1zm5 9l2-.001v-1.999l-2 2z" id="colorAction"/></svg>