<svg xmlns="http://www.w3.org/2000/svg" viewBox="0 0 16 16"><style>.icon-canvas-transparent{opacity:0;fill:#f6f6f6}.icon-vs-out{fill:#f6f6f6}.icon-vs-bg{fill:#424242}.icon-vs-action-blue{fill:#00539c}</style><path class="icon-canvas-transparent" d="M16 0v16H0V0h16z" id="canvas"/><path class="icon-vs-out" d="M13.313 7.235l-.417-.146c-.024-.104-.066-.2-.098-.301l2.453-2.453a2.55 2.55 0 0 0 .748-1.81c0-.684-.266-1.327-.749-1.81C14.796.261 14.136 0 13.439 0s-1.356.261-1.811.715L8.343 4H4C1.794 4 0 5.794 0 8c0 1.69 1.08 3.203 2.688 3.766l.417.146A4.006 4.006 0 0 0 7 15h5c2.206 0 4-1.794 4-4a4 4 0 0 0-2.687-3.765z" id="outline"/><g id="iconBg"><path class="icon-vs-bg" d="M6.041 10.797l3.413-.665.274-.274a2 2 0 0 0 1.13-1.13l1.104-1.104c.016.125.038.247.038.376 0 1.654-1.346 3-3 3H6c0-.072.027-.135.041-.203zM2 8c0-1.103.897-2 2-2h2.343l1-1H4C2.346 5 1 6.346 1 8c0 1.309.847 2.412 2.018 2.821.016-.345.079-.676.177-.993A2.001 2.001 0 0 1 2 8zm10.982.179a3.967 3.967 0 0 1-.177.993A2.002 2.002 0 0 1 14 11c0 1.102-.898 2-2 2H7c-1.103 0-2-.898-2-2 0-.237.049-.462.125-.673l.352-1.897A2.99 2.99 0 0 0 4 11c0 1.654 1.346 3 3 3h5c1.654 0 3-1.346 3-3a2.993 2.993 0 0 0-2.018-2.821z"/><path class="icon-vs-action-blue" d="M14.543 1.422c-.563-.563-1.645-.563-2.207 0l-5.601 5.6L6 9.965l2.943-.736 5.601-5.6a1.558 1.558 0 0 0-.001-2.207zm-.707 1.5L8.431 8.326l-1.057.264.265-1.057 5.404-5.404c.188-.188.605-.188.793 0a.558.558 0 0 1 0 .793z"/></g></svg>