<svg xmlns="http://www.w3.org/2000/svg" viewBox="0 0 16 16"><style>.icon-canvas-transparent{opacity:0;fill:#f6f6f6}.icon-vs-out{fill:#f6f6f6}.icon-vs-fg{fill:#f0eff1}.icon-vs-action-blue{fill:#00539c}</style><path class="icon-canvas-transparent" d="M16 0v16H0V0h16z" id="canvas"/><path class="icon-vs-out" d="M13.999 4.773c0 .741-.288 1.438-.812 1.961l-6.409 6.409-5.227 1.307 1.307-5.229 6.409-6.41C9.79 2.288 10.487 2 11.228 2s1.438.288 1.96.812c.523.523.811 1.22.811 1.961z" id="outline"/><path class="icon-vs-fg" d="M11.773 5.319l-6.017 6.018-1.457.363.365-1.456 6.016-6.018a.773.773 0 0 1 1.093 1.093z" id="iconFg"/><g id="iconBg"><path class="icon-vs-action-blue" d="M12.48 3.52a1.774 1.774 0 0 0-2.507 0L3.761 9.732l-.835 3.343 3.342-.836 6.213-6.213a1.773 1.773 0 0 0-.001-2.506zm-.707 1.799l-6.017 6.018-1.457.363.365-1.456 6.016-6.018a.773.773 0 0 1 1.093 1.093z"/></g></svg>