<svg xmlns="http://www.w3.org/2000/svg" viewBox="0 0 16 16"><style>.st0{fill:#f6f6f6}.st1{fill:#424242}.st2{fill:#00539c}.st3{fill:#f0eff1}</style><path class="st0" d="M7 0v3.501L3.423 0h-.837L0 2.586v.827L4.601 8H1v8h9v-2h4V8h2V0z" id="outline"/><path class="st1" d="M8 1v3.48l1 .979V4h5v2H9.553l1.021 1H12v5H9v-1H7.609L5.604 9H2v6h7v-2h4V7h2V1H8zm0 13H3v-2h5v2z" id="icon_x5F_bg"/><g id="color_x5F_action"><path transform="rotate(-45.001 6 6)" class="st2" d="M4.586 3.171h2.828v5.656H4.586z"/><path transform="rotate(-45.001 2.5 2.5)" class="st2" d="M1.086 1.793h2.828v1.414H1.086z"/><path class="st2" d="M10 8v1.999L8 10"/></g><g id="icon_x5F_fg"><path class="st3" d="M9 4v1.459L9.553 6H14V4zM3 12h5v2H3z"/></g></svg>