<svg xmlns="http://www.w3.org/2000/svg" width="16" height="16"><style type="text/css">.icon-canvas-transparent{opacity:0;fill:#F6F6F6;} .icon-vs-out{fill:#F6F6F6;} .icon-vs-bg{fill:#424242;} .icon-vs-fg{fill:#F0EFF1;}</style><path class="icon-canvas-transparent" d="M16 16h-16v-16h16v16z" id="canvas"/><path class="icon-vs-out" d="M11 16v-5h5v5h-5zm-11 0v-5h3.586l-.354-.354 7.414-7.414.354.354v-3.586h5v5h-3.586l.354.354-7.414 7.414-.354-.354v3.586h-5zm0-11v-5h5v5h-5z" id="outline"/><path class="icon-vs-bg" d="M1 4h3v-3h-3v3zm1-2h1v1h-1v-1zm-1 13h3v-3h-3v3zm1-2h1v1h-1v-1zm8.646-8.354l.707.707-6 6-.707-.707 6-6zm1.354 10.354h3v-3h-3v3zm1-2h1v1h-1v-1zm-1-12v3h3v-3h-3zm2 2h-1v-1h1v1z" id="iconBg"/><g id="iconFg"><path class="icon-vs-fg" d="M2 3v-1h1v1h-1zm12 0v-1h-1v1h1zm0 11v-1h-1v1h1zm-11 0v-1h-1v1h1z"/></g></svg>