<svg xmlns="http://www.w3.org/2000/svg" viewBox="0 0 16 16"><style>.st0{opacity:0}.st0,.st1{fill:#f6f6f6}.st2{fill:#424242}.st3{fill:#00539c}</style><g id="outline"><path class="st0" d="M0 0h16v16H0z"/><path class="st1" d="M10.721 2H7.279L5 8.837V0H0v10.422l2.5 3.245 1.563-2.019L2.612 16h4.109l1-3h2.558l1 3h4.109z"/></g><path class="st2" d="M7 12h4l1 3h2L10 3H8l-3 9-1 3h2l1-3zm2-6l1.333 4H7.667L9 6z" id="icon_x5F_bg"/><g id="color_x5F_action"><path class="st3" d="M1 1h3v1.969H1zM1 4h3v5H1zM2.5 12L4 10H1z"/></g></svg>