<svg xmlns="http://www.w3.org/2000/svg" viewBox="0 0 16 16"><style>.st0{opacity:0}.st0,.st1{fill:#f6f6f6}.st2{fill:#424242}.st3{fill:#00539c}.st4{fill:#f0eff1}</style><g id="outline"><path class="st0" d="M0 0h16v16H0z"/><path class="st1" d="M6 1v1.522L3.423 0h-.837L0 2.586v.827l6 5.983V16h8.969V1z"/></g><path class="st2" d="M7 2v1.501l1 .979V3h5v3H9.553L11 7.417V11h2v3H8v-3h-.391L7 10.393V15h7V2z" id="icon_x5F_bg"/><g id="color_x5F_action"><path transform="rotate(-45.001 6 6)" class="st3" d="M4.586 3.171h2.828v5.656H4.586z"/><path transform="rotate(-45.001 2.5 2.5)" class="st3" d="M1.086 1.793h2.828v1.414H1.086z"/><path class="st3" d="M10 8v1.999L8 10"/></g><path class="st4" d="M8 11h5v3H8v-3zm0-8v1.586L9.414 6H13V3H8z" id="icon_x5F_fg"/></svg>