<svg xmlns="http://www.w3.org/2000/svg" viewBox="0 0 16 16"><style>.st0{opacity:0}.st0,.st1{fill:#f6f6f6}.st2{fill:#424242}.st3{fill:#f0eff1}</style><g id="outline"><path class="st0" d="M0 0h16v16H0z"/><path class="st1" d="M16 6V1h-5v1H5V1H0v5h1v4H0v5h5v-1h6v1h5v-5h-1V6z"/></g><path class="st2" d="M15 5V2h-3v1H4V2H1v3h1v6H1v3h3v-1h8v1h3v-3h-1V5h1zM2 3h1v1H2V3zm1 10H2v-1h1v1zM13 3h1v1h-1V3zm1 10h-1v-1h1v1z" id="icon_x5F_bg"/><g id="icon_x5F_fg"><path class="st3" d="M2 3h1v1H2zM13 3h1v1h-1zM2 12h1v1H2zM13 12h1v1h-1z"/></g></svg>