<svg xmlns="http://www.w3.org/2000/svg" width="16" height="16"><style type="text/css">.icon-canvas-transparent{opacity:0;fill:#F6F6F6;} .icon-vs-out{fill:#F6F6F6;} .icon-vs-bg{fill:#424242;} .icon-vs-fg{fill:#F0EFF1;} .icon-vs-action-blue{fill:#00539C;}</style><path class="icon-canvas-transparent" d="M16 16h-16v-16h16v16z" id="canvas"/><path class="icon-vs-out" d="M16 3.556v10.444c0 .971-.701 2-2 2h-10c-.97 0-2-.701-2-2v-1l-2-2.667v-10.333h12.061l3.939 3.556z" id="outline"/><path class="icon-vs-bg" d="M9,12H7v-2h2V12z M9,5H7v4h2V5zM11.641,1H5v1h6v3h3v9H4v-2.333L3,13c0,0.386,0,0.732,0,1c0,1,0.965,1,0.965,1s9,0,10,0S15,14,15,14V4L11.641,1z" id="iconBg"/><path class="icon-vs-action-blue" d="M4 3h-3v-2h3v2zm0 1h-3v5h3v-5zm-1.5 8l1.5-2h-3l1.5 2z" id="colorAction"/><path class="icon-vs-fg" d="M11 5v-3h-6v8.333l-1 1.334v2.333h10v-9h-3zm-2 7h-2v-2h2v2zm0-3h-2v-4h2v4z" id="iconFg"/></svg>