<svg xmlns="http://www.w3.org/2000/svg" viewBox="0 0 16 16"><style>.icon-canvas-transparent{opacity:0;fill:#f6f6f6}.icon-vs-out{fill:#f6f6f6}.icon-vs-fg{fill:#f0eff1}.icon-vs-bg{fill:#424242}</style><path class="icon-canvas-transparent" d="M16 16H0V0h16v16z" id="canvas"/><path class="icon-vs-out" d="M16 3.341c0 .834-.153 1.438-.96 2.245L5.926 14.83 1.121 16H.976A.976.976 0 0 1 0 15.024v-.149l1.223-4.803L10.288.979A3.323 3.323 0 0 1 12.654 0c.894 0 1.733.347 2.364.977.633.631.982 1.471.982 2.364z" id="outline"/><path class="icon-vs-fg" d="M10.598 3.528l1.869 1.866-6.955 6.946a3.335 3.335 0 0 0-1.865-1.87l6.951-6.942zm2.991-1.12a1.324 1.324 0 0 0-1.868 0l-.398.397 1.869 1.866.398-.397.002.001-.002-.002c.25-.249.387-.58.387-.933a1.311 1.311 0 0 0-.388-.932zM2.958 11.322l-.569 2.271 2.27-.566a2.304 2.304 0 0 0-1.701-1.705z" id="iconFg"/><path class="icon-vs-bg" d="M10.996 1.685l-8.872 8.898L1 15l4.414-1.075 8.919-9.047c.615-.614.667-.966.667-1.537 0-.626-.244-1.214-.687-1.656a2.35 2.35 0 0 0-3.317 0zM2.389 13.593l.569-2.271a2.301 2.301 0 0 1 1.701 1.705l-2.27.566zm3.124-1.252a3.335 3.335 0 0 0-1.865-1.87l6.95-6.942 1.869 1.866-6.954 6.946zm8.078-8.066l-.002-.001-.398.397-1.869-1.866.398-.397a1.324 1.324 0 0 1 1.868 0c.25.249.387.58.387.933 0 .352-.137.683-.387.933l.003.001z" id="iconBg"/></svg>