<svg xmlns="http://www.w3.org/2000/svg" viewBox="0 0 16 16"><style>.st0{fill:#f6f6f6}.st1{fill:#424242}.st2{fill:#00539c}.st3{fill:#f0eff1}</style><path class="st0" d="M12 8c-.347 0-.681.048-1 .132v-.715L3.423 0h-.837L0 2.586v.827L6.606 10H2v4h1v2h5v-2h.557c.693 1.189 1.969 2 3.443 2 2.206 0 4-1.794 4-4s-1.794-4-4-4z" id="outline"/><path class="st1" d="M12 9c-.352 0-.688.069-1 .184V11H3v2h1v2h1v-2h1v2h1v-2h2.185A2.997 2.997 0 0 0 12 15c1.654 0 3-1.346 3-3s-1.346-3-3-3zm0 4c-.551 0-1-.449-1-1s.449-1 1-1a1 1 0 0 1 0 2z" id="icon_x5F_bg"/><g id="color_x5F_action"><path transform="rotate(-45.001 6 6)" class="st2" d="M4.586 3.171h2.828v5.656H4.586z"/><path transform="rotate(-45.001 2.5 2.5)" class="st2" d="M1.086 1.793h2.828v1.414H1.086z"/><path class="st2" d="M10 8v1.999L8 10"/></g><path class="st3" d="M12 13c-.551 0-1-.449-1-1s.449-1 1-1a1 1 0 0 1 0 2z" id="icon_x5F_fg"/></svg>