<svg xmlns="http://www.w3.org/2000/svg" viewBox="0 0 16 16"><style>.st0{fill:#f6f6f6}.st1{fill:#424242}.st2{fill:#00539c}.st3{fill:#f0eff1}</style><path class="st0" d="M8.531 5L3.423 0h-.837L0 2.586v.827L1.592 5H1v11h15V5z" id="outline"/><g id="icon_x5F_bg"><path class="st1" d="M5.293 8.707L3.5 10.5l3 3 1-1-2-2 .793-.793zM11.5 10.5l-2 2 1 1 3-3L11 8v2z"/><path class="st1" d="M9.553 6l1.021 1H14v7H3V7h.586l-1-1H2v9h13V6z"/></g><g id="color_x5F_action"><path transform="rotate(-45.001 6 6)" class="st2" d="M4.586 3.171h2.828v5.656H4.586z"/><path transform="rotate(-45.001 2.5 2.5)" class="st2" d="M1.086 1.793h2.828v1.414H1.086z"/><path class="st2" d="M10 8v1.999L8 10"/></g><g id="icon_x5F_fg"><path class="st3" d="M10.574 7l.426.417V8l2.5 2.5-3 3-1-1L11 11H7.609l-1.003-1h-.02l-.293-.293-.793.793 2 2-1 1-3-3 1.793-1.793L3.586 7H3v7h11V7z"/><path class="st3" d="M11 10v1l.5-.5z"/></g></svg>