<svg xmlns="http://www.w3.org/2000/svg" viewBox="0 0 16 16"><style>.st0{fill:#f6f6f6}.st1{fill:#424242}.st2{fill:#00539c}.st3{fill:#f0eff1}</style><path class="st0" d="M12.061 2H6c-.171 0-.344.03-.513.073L5 1.586 3.414 0h-.828L0 2.586v.828l2 2 2 2V14c0 1.299 1.03 2 2 2h8c1.299 0 2-1.03 2-2V5.556L12.061 2z" id="outline"/><path class="st1" d="M11.641 3H6.415l1 1H11v3h3v7H6V9.413l-1-1V14c0 1 .965 1 .965 1h8c1 0 1.035-1 1.035-1V6l-3.359-3z" id="icon_x5F_bg"/><g id="color_x5F_action"><path transform="rotate(-45.001 6 6)" class="st2" d="M4.586 3.171h2.828v5.656H4.586z"/><path transform="rotate(-45.001 2.5 2.5)" class="st2" d="M1.086 1.793h2.828v1.414H1.086z"/><path class="st2" d="M10 8v1.999L8 10"/></g><path class="st3" d="M11 7V4H7.415l.073.073.012-.01 3.516 3.515v3.421H11L8 11v-.001h-.406l-.59-.59-.004.004-1-1V14h8V7z" id="icon_x5F_fg"/></svg>