<svg xmlns="http://www.w3.org/2000/svg" viewBox="0 0 16 16"><style>.icon-canvas-transparent{opacity:0;fill:#f6f6f6}.icon-vs-out{fill:#f6f6f6}.icon-vs-bg{fill:#424242}.icon-vs-red{fill:#e51400}.icon-vs-yellow{fill:#fc0}.icon-vs-green{fill:#393}.icon-vs-blue{fill:#1ba1e2}.icon-white{fill:#fff}.icon-vs-action-blue{fill:#00539c}</style><path class="icon-canvas-transparent" d="M16 16H0V0h16v16z" id="canvas"/><path class="icon-vs-out" d="M16 8c0 4.411-3.589 8-8 8a2.803 2.803 0 0 1-2.8-2.8c0-.833.272-1.629.766-2.241a.596.596 0 0 0 .101-.359.667.667 0 0 0-.667-.666.58.58 0 0 0-.358.102c-.013.01-.029.017-.042.027v.271l-2.5 3.334L0 10.333V0h5v.589A7.945 7.945 0 0 1 8 0c4.411 0 8 3.589 8 8z" id="outline"/><path class="icon-white" d="M8 2a5.958 5.958 0 0 0-3 .812v5.153A2.67 2.67 0 0 1 8.067 10.6a2.57 2.57 0 0 1-.544 1.614 1.593 1.593 0 0 0-.323.986.8.8 0 0 0 .8.8c3.309 0 6-2.691 6-6s-2.691-6-6-6z" id="iconFg"/><g id="iconBg"><path class="icon-vs-blue" d="M7.125 3.625a.875.875 0 1 0 0 1.75.875.875 0 0 0 0-1.75z"/><path class="icon-vs-green" d="M10.625 4.5a.875.875 0 1 0 0 1.75.875.875 0 0 0 0-1.75z"/><path class="icon-vs-yellow" d="M11.5 8a.875.875 0 1 0 0 1.75.875.875 0 0 0 0-1.75z"/><path class="icon-vs-red" d="M9.75 10.625a.875.875 0 1 0 0 1.75.875.875 0 0 0 0-1.75z"/><path class="icon-vs-bg" d="M8 1c-1.075 0-2.089.25-3 .685v1.127A5.958 5.958 0 0 1 8 2c3.309 0 6 2.691 6 6s-2.691 6-6 6a.8.8 0 0 1-.8-.8c0-.372.118-.731.323-.986a2.573 2.573 0 0 0 .544-1.614A2.67 2.67 0 0 0 5 7.965v1.03c.13-.031.26-.062.4-.062A1.67 1.67 0 0 1 7.067 10.6c0 .378-.115.728-.323.987A2.572 2.572 0 0 0 6.2 13.2c0 .992.808 1.8 1.8 1.8 3.859 0 7-3.141 7-7 0-3.86-3.141-7-7-7z"/></g><g id="colorAction"><path id="XMLID_16_" class="icon-vs-action-blue" d="M4 3H1V1h3v2zm0 1H1v5h3V4zm-1.5 8L4 10H1l1.5 2z"/></g></svg>