<?xml version="1.0" encoding="iso-8859-1"?>
<!-- Generator: Adobe Illustrator 21.0.0, SVG Export Plug-In . SVG Version: 6.00 Build 0)  -->
<svg version="1.1" xmlns="http://www.w3.org/2000/svg" xmlns:xlink="http://www.w3.org/1999/xlink" x="0px" y="0px"
	 viewBox="0 0 16 16" style="enable-background:new 0 0 16 16;" xml:space="preserve">
<style type="text/css">
	.icon_x002D_canvas_x002D_transparent{opacity:0;fill:#F6F6F6;}
	.icon_x002D_vs_x002D_out{fill:#F6F6F6;}
	.icon_x002D_vs_x002D_fg{fill:#F0EFF1;}
	.icon_x002D_vs_x002D_blue{fill:#1BA1E2;}
	.icon_x002D_vs_x002D_action_x002D_blue{fill:#00539C;}
</style>
<g id="canvas">
	<path class="icon_x002D_canvas_x002D_transparent" d="M16,16H0V0h16V16z"/>
</g>
<g id="outline">
	<path class="icon_x002D_vs_x002D_out" d="M14,5v6c0,1.711-2.149,3-5,3c-1.631,0-3.015-0.43-3.91-1.113L4.5,13.604L2,10.563V2h5
		v0.249C7.607,2.095,8.275,2,9,2C11.851,2,14,3.29,14,5z"/>
</g>
<g id="iconBg">
	<path class="icon_x002D_vs_x002D_blue" d="M13,5v3v3c0,1.104-1.791,2-4,2c-1.39,0-2.613-0.356-3.33-0.894L7,10.333V6.019
		C7.538,6.2,8.214,6.325,9,6.325c1.999,0,3.325-0.798,3.325-1.325S10.999,3.675,9,3.675c-0.786,0-1.462,0.125-2,0.307V3.286
		C7.589,3.111,8.263,3,9,3c1.201,0,2.267,0.271,3,0.689C12.615,4.041,13,4.496,13,5z"/>
</g>
<g id="iconFg">
	<path class="icon_x002D_vs_x002D_fg" d="M12.325,5c0,0.527-1.326,1.325-3.325,1.325c-0.786,0-1.462-0.125-2-0.307V3.981
		C7.538,3.8,8.214,3.675,9,3.675C10.999,3.675,12.325,4.473,12.325,5z"/>
</g>
<g id="colorAction">
	<path class="icon_x002D_vs_x002D_action_x002D_blue" d="M3,10h3l-1.5,2L3,10z M3,3v2h3V3H3z M3,9h3V6H3V9z"/>
</g>
</svg>
