<svg xmlns="http://www.w3.org/2000/svg" viewBox="0 0 16 16"><style>.st0{opacity:0}.st0,.st1{fill:#f6f6f6}.st2{fill:#424242}.st3{fill:#f0eff1}</style><g id="outline"><path class="st0" d="M0 0h16v16H0z"/><path class="st1" d="M16 0h-5v3.472C10.094 3.172 9.081 3 8 3s-2.094.172-3 .472V0H0v5h2.373C1.511 5.831 1 6.864 1 8s.511 2.169 1.373 3H0v5h5v-3.472c.906.3 1.919.472 3 .472s2.094-.172 3-.472V16h5v-5h-2.373C14.489 10.169 15 9.136 15 8s-.511-2.169-1.373-3H16V0z"/></g><g id="icon_x5F_bg"><path class="st2" d="M1 1v3h3V1H1zm2 2H2V2h1v1zM12 1v3h3V1h-3zm2 2h-1V2h1v1zM1 12v3h3v-3H1zm2 2H2v-1h1v1zM12 12v3h3v-3h-3zm2 2h-1v-1h1v1z"/><ellipse class="st2" cx="8" cy="8" rx="6" ry="4"/></g><g id="icon_x5F_fg"><path class="st3" d="M2 2h1v1H2zM13 2h1v1h-1zM2 13h1v1H2zM13 13h1v1h-1z"/></g></svg>