<svg xmlns="http://www.w3.org/2000/svg" width="16" height="16"><style type="text/css">.icon-canvas-transparent{opacity:0;fill:#F6F6F6;} .icon-vs-out{fill:#F6F6F6;} .icon-vs-bg{fill:#424242;} .icon-vs-fg{fill:#F0EFF1;} .icon-vs-action-blue{fill:#00539C;}</style><path class="icon-canvas-transparent" d="M16 16h-16v-16h16v16z" id="canvas"/><path class="icon-vs-out" d="M16 2v14h-16v-14h.586l2-2h.837l2.043 2h10.534z" id="outline"/><path class="icon-vs-bg" d="M15 3v12h-14v-10.59l.2.2.625.623.77.767h-.595v8h12v-8h-4.447l-3.065-3h8.512z" id="iconBg"/><path class="icon-vs-fg" d="M14 6v8h-12v-8h.595l5.015 5h3.39v-3.583l-1.447-1.417h4.447z" id="iconFg"/><path class="icon-vs-action-blue" d="M9 6.999l-2 2-4-3.999 2-2 4 3.999zm-6-5.999l-2 2 1 1 2-2-1-1zm5 9l2-.001v-1.999l-2 2z" id="colorAction"/></svg>