<svg xmlns="http://www.w3.org/2000/svg" viewBox="0 0 16 16"><style>.icon-canvas-transparent{opacity:0;fill:#f6f6f6}.icon-vs-out{fill:#f6f6f6}.icon-vs-bg{fill:#424242}</style><path class="icon-canvas-transparent" d="M16 16H0V0h16v16z" id="canvas"/><path class="icon-vs-out" d="M8 2.425L0 5.092v1.441l1 .333V13h3v-.761c.831.74 2.173 1.256 4 1.256 3.282 0 5-1.664 5-3.308V7.533l3-1V5.092L8 2.425z" id="outline"/><path class="icon-vs-bg" d="M12 7.798v2.39c0 1.119-1.402 2.308-4 2.308s-4-1.188-4-2.308v-2.39l4 1.25 4-1.25zM2 7.173V12.5h1V7.485l-1-.312zm6-3.694L1 5.813 8 8l7-2.188-7-2.333z" id="iconBg"/></svg>