<svg xmlns="http://www.w3.org/2000/svg" viewBox="0 0 16 16"><style>.icon-canvas-transparent{opacity:0;fill:#f6f6f6}.icon-vs-out{fill:#f6f6f6}.icon-vs-bg{fill:#424242}.icon-vs-fg{fill:#f0eff1}</style><path class="icon-canvas-transparent" d="M16 16H0V0h16v16z" id="canvas"/><path class="icon-vs-out" d="M8 2.425L0 5.092v1.441l1 .333V13h3v-.761c.831.74 2.173 1.256 4 1.256 3.282 0 5-1.664 5-3.308V7.533l3-1V5.092L8 2.425z" id="outline"/><path class="icon-vs-fg" d="M8 4.533l3.838 1.279L8 7.092 4.162 5.813 8 4.533zm3 5.655c0 .534-1.068 1.308-3 1.308s-3-.773-3-1.308V7.146l3 1 3-1v3.042z" id="iconFg"/><path class="icon-vs-bg" d="M15 5.813L8 3.479 1 5.813l1 .333V12h1V6.479l1 .333v3.375c0 1.119 1.402 2.308 4 2.308s4-1.188 4-2.308V6.813l3-1zm-7-1.28l3.838 1.279L8 7.092 4.162 5.813 8 4.533zm3 5.655c0 .534-1.068 1.308-3 1.308s-3-.773-3-1.308V7.146l3 1 3-1v3.042z" id="iconBg"/></svg>