<svg xmlns="http://www.w3.org/2000/svg" viewBox="0 0 16 16"><style>.st0{opacity:0}.st0,.st1{fill:#f6f6f6}.st2{fill:#424242}.st3{fill:#f0eff1}</style><g id="outline"><path class="st0" d="M0 0h16v16H0z"/><path class="st1" d="M3.508 14.268c-.733 0-1.351-.203-1.837-.604a2.42 2.42 0 0 1-.112-3.684 2.516 2.516 0 0 1 1.199-.607l.164-.638h-.697L3.51 4.187l.9.012c.393-.607.824-1.076 1.308-1.424A4 4 0 0 1 8.114 2c.778 0 1.428.218 1.931.647.439.37.737.882.849 1.449h.297l.112.175a2.84 2.84 0 0 1 .987-.175c.704 0 1.348.262 1.813.737.453.461.703 1.088.703 1.764 0 .613-.212 1.19-.599 1.64l1.184.694-1.082 1.741c-.416.671-.855 1.159-1.342 1.495a2.955 2.955 0 0 1-1.705.558 2.812 2.812 0 0 1-1.589-.464l-.077-.055a2.94 2.94 0 0 1-1.679.519 2.58 2.58 0 0 1-1.091-.236c-.322.46-.695.833-1.114 1.117a3.862 3.862 0 0 1-2.204.662z"/></g><path class="st2" d="M12.168 8.199l-.154.214c-.039-.112-.08-.232-.119-.359l.008-.013c.154.033.297.049.437.049.4 0 .774-.156 1.053-.443.271-.28.413-.644.413-1.05 0-.529-.229-.872-.418-1.065-.194-.199-.543-.436-1.098-.436a1.871 1.871 0 0 0-1.307.529l-.339-.529H9.86c.046-.145.082-.304.082-.495 0-.473-.196-.899-.548-1.194C9.078 3.137 8.647 3 8.114 3c-.666 0-1.277.198-1.812.586-.492.353-.927.885-1.327 1.62l-.711-.01-.718 2.539h.664s-.646 2.527-.666 2.601a1.502 1.502 0 0 0-.239-.017c-.41 0-.777.136-1.07.398a1.418 1.418 0 0 0 .072 2.176c.302.249.707.375 1.201.375.61 0 1.163-.164 1.643-.489.45-.304.836-.756 1.149-1.345.084-.158.167-.35.249-.555.072.156.167.299.289.42a1.49 1.49 0 0 0 1.079.427c.301 0 .59-.065.853-.192.245-.115.496-.311.788-.609a4.25 4.25 0 0 0 .098-.105c.158.255.349.459.572.611.296.196.645.296 1.035.296.398 0 .783-.13 1.138-.38.372-.257.718-.649 1.06-1.2L14 9.275l-1.832-1.076zm-5.5-1.464l-.529 2.088c-.247.985-.489 1.7-.723 2.144-.235.442-.51.77-.825.982a1.884 1.884 0 0 1-1.083.318c-.257 0-.445-.048-.565-.146a.431.431 0 0 1-.181-.346c0-.123.049-.231.148-.32a.565.565 0 0 1 .395-.137c.135 0 .238.035.311.105a.345.345 0 0 1 .108.262c0 .096-.023.168-.068.215-.046.047-.068.076-.068.092l.022.032c.02.015.04.023.064.023a.326.326 0 0 0 .229-.086c.16-.142.28-.313.358-.516.054-.139.159-.504.312-1.098l.923-3.613h-.628l.149-.529c.227.004.391-.025.493-.085.102-.06.211-.196.327-.407.331-.612.68-1.051 1.048-1.315A2.044 2.044 0 0 1 8.114 4c.289 0 .5.056.631.167a.538.538 0 0 1 .197.434.518.518 0 0 1-.132.373.428.428 0 0 1-.325.138.412.412 0 0 1-.298-.113.36.36 0 0 1-.118-.271c0-.075.024-.155.074-.239a.46.46 0 0 0 .076-.172.106.106 0 0 0-.034-.082.12.12 0 0 0-.088-.031c-.179 0-.361.11-.547.33-.308.351-.555.91-.742 1.672h.656l-.158.529h-.638zm5.164 3.786a.982.982 0 0 1-.57.204.848.848 0 0 1-.48-.129 1.107 1.107 0 0 1-.342-.421c-.1-.193-.36-.817-.495-1.245a23.002 23.002 0 0 1-1.104 1.295c-.201.206-.367.342-.5.405a.974.974 0 0 1-.424.095.511.511 0 0 1-.374-.136.474.474 0 0 1-.138-.353c0-.153.049-.279.148-.379s.226-.149.38-.149c.081 0 .173.024.276.072.15.073.259.108.325.108a.497.497 0 0 0 .235-.054c.091-.045.207-.143.344-.293.085-.094.514-.605.74-.909-.289-1.073-.514-1.715-.677-1.926a.471.471 0 0 0-.39-.203c-.081 0-.493.34-.61.364v-.771h1.921c.288.449.489.943.606 1.483.295-.438.52-.743.67-.918.201-.235.368-.387.498-.458a.872.872 0 0 1 .419-.106c.167 0 .294.044.383.135.089.09.133.213.133.366a.49.49 0 0 1-.133.356.447.447 0 0 1-.333.137c-.096 0-.207-.018-.333-.052a1.192 1.192 0 0 0-.259-.051.576.576 0 0 0-.362.135c-.157.124-.351.387-.578.792.256.904.604 1.768.758 1.966.091.118.183.177.275.177a.343.343 0 0 0 .204-.059c.087-.064.221-.223.402-.475l.162.095c-.264.426-.524.729-.777.902z" id="icon_x5F_bg"/><path class="st3" d="M7.464 6.206l-.158.529h-.638l-.529 2.088c-.247.985-.489 1.7-.723 2.144-.235.442-.51.77-.825.982a1.884 1.884 0 0 1-1.083.318c-.257 0-.445-.048-.565-.146a.431.431 0 0 1-.181-.346c0-.123.049-.231.148-.32a.565.565 0 0 1 .395-.137c.135 0 .238.035.311.105a.345.345 0 0 1 .108.262c0 .096-.023.168-.068.215-.046.047-.068.076-.068.092l.022.032c.02.015.04.023.064.023a.326.326 0 0 0 .229-.086c.16-.142.28-.313.358-.516.054-.139.159-.504.312-1.098l.923-3.613h-.628l.149-.529c.227.004.391-.025.493-.085.102-.06.211-.196.327-.407.331-.612.68-1.051 1.048-1.315A2.044 2.044 0 0 1 8.114 4c.289 0 .5.056.631.167a.538.538 0 0 1 .197.434.518.518 0 0 1-.132.373.428.428 0 0 1-.325.138.412.412 0 0 1-.298-.113.36.36 0 0 1-.118-.271c0-.075.024-.155.074-.239a.46.46 0 0 0 .076-.172.106.106 0 0 0-.034-.082.12.12 0 0 0-.088-.031c-.179 0-.361.11-.547.33-.308.351-.555.91-.742 1.672h.656zm4.581 3.792a.353.353 0 0 1-.204.059c-.093 0-.185-.059-.275-.177-.154-.198-.502-1.062-.758-1.966.228-.404.421-.667.578-.792a.576.576 0 0 1 .362-.135c.047 0 .135.017.259.051.126.035.237.052.333.052a.447.447 0 0 0 .333-.137.49.49 0 0 0 .133-.356.5.5 0 0 0-.133-.366c-.089-.091-.216-.135-.383-.135a.875.875 0 0 0-.419.106c-.13.071-.297.224-.498.458-.15.175-.375.48-.67.918a4.475 4.475 0 0 0-.606-1.483H8.176v.771c.118-.024.53-.364.61-.364.158 0 .287.068.39.203.163.211.389.853.678 1.926-.227.305-.655.815-.74.909a1.38 1.38 0 0 1-.344.295.5.5 0 0 1-.235.054c-.066 0-.175-.035-.325-.108a.654.654 0 0 0-.276-.073c-.154 0-.281.05-.38.149s-.148.226-.148.379c0 .145.045.263.138.353a.51.51 0 0 0 .374.136.978.978 0 0 0 .424-.095c.133-.064.299-.199.5-.405.201-.206.752-.847 1.104-1.295.135.428.395 1.052.495 1.245.1.194.214.334.342.421a.848.848 0 0 0 .48.129.98.98 0 0 0 .57-.204c.253-.174.513-.477.777-.903l-.162-.095c-.182.252-.316.411-.403.475z" id="icon_x5F_fg"/></svg>