<svg xmlns="http://www.w3.org/2000/svg" viewBox="0 0 16 16"><style>.icon-canvas-transparent{opacity:0;fill:#f6f6f6}.icon-vs-out{fill:#f6f6f6}.icon-vs-bg{fill:#424242}</style><path class="icon-canvas-transparent" d="M16 0v16H0V0h16z" id="canvas"/><path class="icon-vs-out" d="M15.118 9.229l-.538.871c-.418.676-.839 1.154-1.287 1.465-.413.291-.855.44-1.306.44-.448 0-.845-.112-1.178-.335-.313-.211-.573-.519-.777-.922a3.285 3.285 0 0 1-.062-.128c-.164.187-.304.341-.396.435-.355.363-.65.594-.932.729a2.246 2.246 0 0 1-.98.222c-.598 0-.978-.256-1.191-.47-.303-.293-.47-.699-.47-1.162 0-.468.169-.883.488-1.199a1.644 1.644 0 0 1 1.196-.485c.236 0 .483.056.734.166l.054-.058c.057-.064.34-.398.596-.717a17.15 17.15 0 0 0-.405-1.279 1.436 1.436 0 0 1-.468.196l-1.198.242v-.394h-.171l-.492 1.946c-.341 1.357-.675 2.337-1.021 2.992-.384.721-.852 1.27-1.393 1.634A3.437 3.437 0 0 1 1.964 14c-.566 0-1.025-.141-1.363-.416A1.557 1.557 0 0 1 0 12.363c0-.443.186-.854.522-1.158a1.717 1.717 0 0 1 1.179-.432c.198 0 .371.029.52.074l.153-.582.873-3.42h-.845l.758-2.691s.842.008.869.007c.019-.03.041-.067.068-.115.502-.93 1.043-1.597 1.649-2.033a3.637 3.637 0 0 1 2.173-.703c.616 0 1.108.153 1.463.456.39.328.606.798.606 1.321 0 .409-.122.711-.264.933h1.306l.295.463c.084.132.163.266.237.404.268-.286.503-.48.731-.606a2.135 2.135 0 0 1 1.023-.261c.611 0 .994.257 1.207.473.213.22.46.596.46 1.176a1.594 1.594 0 0 1-1.603 1.637c-.211 0-.435-.033-.682-.101-.047.056-.118.15-.215.3.134.43.273.817.393 1.125l.36-.506 1.882 1.105z" id="outline"/><g id="iconBg"><path class="icon-vs-bg" d="M11.4 7.37c.331 1.169.78 2.286.979 2.542.117.152.235.227.356.227a.452.452 0 0 0 .263-.075c.112-.082.287-.287.52-.614l.21.123c-.342.553-.679.942-1.005 1.169-.25.176-.495.263-.737.263-.249 0-.456-.056-.622-.167-.165-.111-.313-.291-.441-.543a14.391 14.391 0 0 1-.64-1.61 29.531 29.531 0 0 1-1.427 1.674c-.261.266-.476.441-.646.523a1.255 1.255 0 0 1-.548.122c-.204 0-.365-.058-.482-.176a.606.606 0 0 1-.179-.456c0-.198.063-.361.192-.49a.662.662 0 0 1 .49-.193c.105 0 .225.031.358.094.193.094.334.141.418.141a.644.644 0 0 0 .305-.07c.117-.059.266-.186.444-.38.109-.121.665-.781.957-1.175-.372-1.387-.664-2.217-.875-2.49a.608.608 0 0 0-.503-.263c-.104 0-.637.44-.789.471V5.02h2.483c.37.581.631 1.219.783 1.917.383-.565.672-.96.866-1.187.262-.304.477-.501.644-.593.17-.091.351-.137.541-.137.215 0 .38.059.495.175a.651.651 0 0 1 .172.473.634.634 0 0 1-.172.459.58.58 0 0 1-.432.178c-.123 0-.267-.023-.429-.068a1.53 1.53 0 0 0-.336-.066.75.75 0 0 0-.468.175c-.201.16-.45.501-.745 1.024zM6.229 5.163c.242-.986.561-1.707.959-2.163.241-.284.478-.426.708-.426.047 0 .085.013.114.041a.137.137 0 0 1 .043.105c0 .039-.032.113-.097.223a.618.618 0 0 0-.096.308c0 .137.05.253.152.35.102.099.23.147.385.147a.55.55 0 0 0 .42-.178.673.673 0 0 0 .171-.482.699.699 0 0 0-.255-.561c-.169-.144-.441-.217-.814-.217-.585 0-1.115.172-1.589.515-.477.343-.929.909-1.356 1.701-.149.273-.29.448-.422.525s-.344.115-.637.112l-.192.683h.813l-1.193 4.67c-.198.768-.332 1.241-.402 1.42a1.688 1.688 0 0 1-.463.666.423.423 0 0 1-.297.111.133.133 0 0 1-.083-.029l-.028-.04c0-.021.028-.06.087-.12s.088-.152.088-.277a.45.45 0 0 0-.14-.34c-.094-.09-.228-.133-.402-.133-.212 0-.38.057-.509.174a.536.536 0 0 0-.194.415c0 .171.077.32.233.446.156.127.399.191.731.191.526 0 .992-.138 1.399-.412.408-.275.762-.699 1.066-1.271.303-.572.616-1.496.936-2.77l.684-2.701h.825l.204-.683h-.849z"/></g></svg>