<svg xmlns="http://www.w3.org/2000/svg" viewBox="0 0 16 16"><style>.st0{opacity:0}.st0,.st1{fill:#f6f6f6}.st2{fill:#424242}.st3{fill:#f0eff1}.st4{fill:#e51400}.st5{fill:#fff}</style><g id="outline"><path class="st0" d="M0 0h16v16H0z"/><path class="st1" d="M16 11.5a4.5 4.5 0 0 1-9 0c0-.268.034-.527.079-.782a2.585 2.585 0 0 1-1.016-.229c-.322.46-.695.833-1.114 1.117a3.856 3.856 0 0 1-2.203.661c-.733 0-1.351-.203-1.837-.604A2.416 2.416 0 0 1 .797 7.98a2.534 2.534 0 0 1 1.199-.607l.164-.638h-.698l1.285-4.548.9.012c.393-.608.824-1.076 1.309-1.425A4.005 4.005 0 0 1 7.352 0c.778 0 1.427.218 1.93.647.44.37.737.882.849 1.449h.297l.113.175c.318-.117.648-.175.986-.175.705 0 1.348.262 1.813.737.453.461.703 1.088.703 1.764a2.5 2.5 0 0 1-.598 1.64l1.183.694-.551.887A4.492 4.492 0 0 1 16 11.5z"/></g><path class="st2" d="M7.379 9.701A4.505 4.505 0 0 1 9.405 7.54h-.001a9.538 9.538 0 0 1-.222-.609 23.431 23.431 0 0 1-1.104 1.295c-.201.207-.367.342-.5.405a.974.974 0 0 1-.424.095.511.511 0 0 1-.374-.136.472.472 0 0 1-.138-.353c0-.154.049-.28.148-.379.1-.1.226-.149.38-.149.081 0 .173.024.276.072.15.073.259.108.325.108a.497.497 0 0 0 .235-.054c.092-.045.207-.144.345-.294.085-.094.514-.604.741-.909-.289-1.073-.516-1.715-.679-1.926a.468.468 0 0 0-.389-.203c-.081 0-.493.34-.61.364v-.771h1.92c.288.449.489.943.607 1.483.295-.438.519-.743.669-.918.202-.235.368-.387.499-.458a.871.871 0 0 1 .418-.106c.167 0 .295.044.383.135.09.09.133.213.133.366a.487.487 0 0 1-.133.356.446.446 0 0 1-.333.137c-.096 0-.206-.018-.333-.052a1.171 1.171 0 0 0-.259-.051.58.58 0 0 0-.362.135c-.156.124-.35.387-.578.792.125.441.271.872.408 1.222A4.36 4.36 0 0 1 11.5 7c.602 0 1.174.123 1.699.337l.039-.063-1.833-1.076-.153.214c-.039-.112-.08-.232-.12-.359l.009-.013c.153.033.297.049.436.049a1.457 1.457 0 0 0 1.466-1.493c0-.529-.229-.872-.418-1.065-.194-.199-.543-.436-1.098-.436a1.874 1.874 0 0 0-1.307.529l-.339-.529h-.783c.047-.143.082-.303.082-.494 0-.473-.196-.899-.547-1.194C8.316 1.137 7.885 1 7.352 1c-.666 0-1.277.198-1.812.586-.492.354-.927.885-1.327 1.62l-.712-.01-.717 2.539h.664s-.646 2.527-.666 2.601a1.639 1.639 0 0 0-.239-.017c-.41 0-.777.135-1.07.398a1.416 1.416 0 0 0 .072 2.175c.302.249.707.375 1.201.375.61 0 1.163-.164 1.643-.489.45-.304.836-.756 1.149-1.345.084-.158.166-.35.249-.555.072.157.167.299.289.42a1.49 1.49 0 0 0 1.079.427c.076.001.149-.016.224-.024zM5.906 4.735l-.529 2.088c-.247.985-.489 1.7-.723 2.144-.235.442-.51.77-.825.982a1.884 1.884 0 0 1-1.083.318c-.257 0-.445-.048-.565-.146A.434.434 0 0 1 2 9.775c0-.123.049-.23.148-.32a.565.565 0 0 1 .395-.137c.135 0 .238.035.311.105a.35.35 0 0 1 .108.263c0 .096-.023.168-.068.215-.045.046-.067.076-.067.091l.022.032c.02.015.04.023.064.023a.326.326 0 0 0 .229-.086c.16-.142.28-.313.358-.516.054-.139.159-.504.312-1.098l.923-3.612h-.629l.149-.529c.226.003.391-.026.493-.086.102-.06.211-.196.327-.407.331-.612.68-1.051 1.048-1.315A2.044 2.044 0 0 1 7.352 2c.289 0 .5.056.631.167a.54.54 0 0 1 .197.434.518.518 0 0 1-.132.373.428.428 0 0 1-.325.138.412.412 0 0 1-.298-.113.36.36 0 0 1-.118-.271c0-.075.024-.155.074-.239a.46.46 0 0 0 .076-.172.106.106 0 0 0-.034-.082.123.123 0 0 0-.089-.031c-.179 0-.361.11-.547.33-.308.351-.555.91-.741 1.672h.656l-.159.529h-.637z" id="icon_x5F_bg"/><path class="st3" d="M6.702 4.206l-.159.529h-.637l-.529 2.088c-.247.985-.489 1.7-.723 2.144-.235.442-.51.77-.825.982a1.884 1.884 0 0 1-1.083.318c-.257 0-.445-.048-.565-.146A.434.434 0 0 1 2 9.775c0-.123.049-.23.148-.32a.565.565 0 0 1 .395-.137c.135 0 .238.035.311.105a.35.35 0 0 1 .108.263c0 .096-.023.168-.068.215-.045.046-.067.076-.067.091l.022.032c.02.015.04.023.064.023a.326.326 0 0 0 .229-.086c.16-.142.28-.313.358-.516.054-.139.159-.504.312-1.098l.923-3.612h-.629l.149-.529c.226.003.391-.026.493-.086.102-.06.211-.196.327-.407.331-.612.68-1.051 1.048-1.315A2.044 2.044 0 0 1 7.352 2c.289 0 .5.056.631.167a.54.54 0 0 1 .197.434.518.518 0 0 1-.132.373.428.428 0 0 1-.325.138.412.412 0 0 1-.298-.113.36.36 0 0 1-.118-.271c0-.075.024-.155.074-.239a.46.46 0 0 0 .076-.172.106.106 0 0 0-.034-.082.123.123 0 0 0-.089-.031c-.179 0-.361.11-.547.33-.308.351-.555.91-.741 1.672h.656zm.876 4.424c.133-.063.299-.198.5-.405.2-.205.751-.846 1.104-1.294.059.184.141.403.223.61a4.421 4.421 0 0 1 1.049-.405 13.63 13.63 0 0 1-.408-1.222c.229-.404.422-.667.578-.792a.58.58 0 0 1 .362-.135c.048 0 .136.017.259.051.127.035.237.052.333.052a.446.446 0 0 0 .333-.137.487.487 0 0 0 .133-.356.497.497 0 0 0-.133-.366c-.088-.091-.216-.135-.383-.135a.871.871 0 0 0-.418.106c-.131.071-.297.224-.499.458-.15.175-.374.48-.669.918a4.498 4.498 0 0 0-.607-1.483h-1.92v.771c.118-.024.53-.364.61-.364.158 0 .287.068.389.203.163.211.39.853.679 1.926-.228.306-.657.816-.742.91-.138.15-.253.249-.344.294a.497.497 0 0 1-.235.054c-.066 0-.175-.036-.325-.108a.646.646 0 0 0-.275-.073.51.51 0 0 0-.528.528.47.47 0 0 0 .138.353.51.51 0 0 0 .374.136.944.944 0 0 0 .422-.095z" id="icon_x5F_fg"/><path class="st4" d="M11.5 8a3.5 3.5 0 1 0 0 7 3.5 3.5 0 0 0 0-7zM9 12v-1h5v1H9z" id="not_x5F_bg"/><path class="st5" d="M14 12H9v-1h5v1z" id="not_x5F_fg"/></svg>