<svg xmlns="http://www.w3.org/2000/svg" viewBox="0 0 16 16"><style>.icon-canvas-transparent{opacity:0;fill:#f6f6f6}.icon-vs-out{fill:#f6f6f6}.icon-vs-bg{fill:#424242}.icon-vs-blue{fill:#1ba1e2}.icon-vs-action-purple{fill:#652d90}.icon-vs-fg_x0020_{fill:#f0eff1}</style><path class="icon-canvas-transparent" d="M0 0h16v16H0z" id="canvas"/><path class="icon-vs-out" d="M0 16h9v-1h7V1H0z" id="outline"/><g id="iconBg"><path class="icon-vs-action-purple" d="M1 9h7v6H1z"/><path class="icon-vs-bg" d="M15 2H1v6h1V5h12v8H9v1h6z"/><path class="icon-vs-blue" d="M5.586 8l.5-.5-.5-.5-1 1zM10.086 7.5l1.5 1.5-1.5 1.5.5.5 2-2-2-2z"/></g><path class="icon-vs-fg_x0020_" d="M2 5v3h2.586l1-1 .5.5-.5.5H9v5h5V5H2zm8.586 6l-.5-.5 1.5-1.5-1.5-1.5.5-.5 2 2-2 2z" id="iconFg"/></svg>