<svg xmlns="http://www.w3.org/2000/svg" viewBox="0 0 16 16"><style>.st0{opacity:0}.st0,.st1{fill:#f6f6f6}.st2{fill:#424242}.st3{fill:#f0eff1}</style><g id="outline"><path class="st0" d="M0 0h16v16H0z"/><path class="st1" d="M2 2h12v12H2z"/></g><path class="st2" d="M3 13h10V3H3v10zm5-9a4 4 0 1 1 0 8 4 4 0 0 1 0-8zM6 8c0-1.104.897-2 2-2s2 .896 2 2-.897 2-2 2-2-.896-2-2z" id="icon_x5F_bg"/><path class="st3" d="M8 12a4 4 0 1 0 0-8 4 4 0 0 0 0 8zm0-6c1.103 0 2 .896 2 2s-.897 2-2 2-2-.896-2-2 .897-2 2-2z" id="icon_x5F_fg"/></svg>