<svg xmlns="http://www.w3.org/2000/svg" viewBox="0 0 16 16"><style>.st0{opacity:0}.st0,.st1{fill:#f6f6f6}.st2{fill:#424242}.st3{fill:#f0eff1}</style><g id="outline"><path class="st0" d="M0 0h16v16H0z"/><path class="st1" d="M8 13c-4.636 0-8-2.102-8-5 0-2.897 3.364-5 8-5s8 2.103 8 5c0 2.898-3.364 5-8 5z"/></g><path class="st2" d="M8 4C4.01 4 1 5.72 1 8c0 2.281 3.01 4 7 4s7-1.719 7-4c0-2.28-3.01-4-7-4zm0 6.25c-2.484 0-4.5-1.008-4.5-2.25 0-1.243 2.016-2.25 4.5-2.25S12.5 6.757 12.5 8c0 1.242-2.016 2.25-4.5 2.25z" id="icon_x5F_bg"/><ellipse class="st3" cx="8" cy="8" rx="4.5" ry="2.25" id="icon_x5F_fg"/></svg>