<svg xmlns="http://www.w3.org/2000/svg" width="16" height="16"><style type="text/css">.icon-canvas-transparent{opacity:0;fill:#F6F6F6;} .icon-vs-out{fill:#F6F6F6;} .icon-vs-bg{fill:#424242;} .icon-vs-fg{fill:#F0EFF1;}</style><rect class="icon-canvas-transparent" width="16" height="16" id="canvas"/><path class="icon-vs-out" d="M8 2c-4.411 0-8 2.691-8 6s3.589 6 8 6 8-2.691 8-6-3.589-6-8-6z" id="outline"/><path class="icon-vs-bg" d="M8 4c3.252 0 6 1.832 6 4s-2.748 4-6 4-6-1.832-6-4 2.748-4 6-4m0-1c-3.866 0-7 2.238-7 5s3.134 5 7 5 7-2.238 7-5-3.134-5-7-5z" id="iconBg"/><ellipse class="icon-vs-fg" cx="8" cy="8" rx="6" ry="4" id="iconFg"/></svg>