<svg xmlns="http://www.w3.org/2000/svg" viewBox="0 0 16 16"><style>.icon-canvas-transparent{opacity:0;fill:#f6f6f6}.icon-vs-out{fill:#f6f6f6}.icon-vs-bg{fill:#424242}.icon-folder{fill:#dcb67a}</style><path class="icon-canvas-transparent" d="M16 16H0V0h16v16z" id="canvas"/><path class="icon-vs-out" d="M16 11H9.998c-.074.805-.332 1.504-.793 2.071a2.998 2.998 0 0 1-1.09.864v1.358l-.613.257c-.689.289-1.535.436-2.516.436-1.463 0-2.67-.455-3.588-1.353C.471 13.734 0 12.551 0 11.122c0-1.454.488-2.684 1.45-3.654.172-.174.362-.313.55-.455V0h14v11z" id="outline"/><path class="icon-vs-bg" d="M5.836 12.135h-.025c-.234.699-.693 1.047-1.375 1.047a1.3 1.3 0 0 1-1.053-.488c-.268-.326-.4-.766-.4-1.314 0-.731.184-1.336.549-1.818.365-.482.848-.723 1.445-.723.229 0 .43.063.609.186.18.125.293.275.346.449h.016c.01-.09.033-.277.072-.557h.809c-.153 1.708-.229 2.58-.229 2.611 0 .643.168.963.502.963.307 0 .561-.178.76-.537.203-.357.303-.822.303-1.393 0-.842-.271-1.529-.816-2.061-.544-.533-1.3-.8-2.265-.8-.928 0-1.691.324-2.301.969-.607.643-.912 1.449-.912 2.42 0 .955.293 1.725.877 2.31.586.586 1.373.881 2.363.881.783 0 1.451-.133 2.004-.4v.75c-.568.238-1.277.357-2.129.357-1.195 0-2.16-.355-2.889-1.068C1.365 13.207 1 12.274 1 11.122c0-1.188.387-2.17 1.16-2.95C2.934 7.391 3.92 7 5.123 7c1.127 0 2.061.328 2.801.982.738.655 1.107 1.508 1.107 2.559 0 .772-.199 1.404-.602 1.899-.4.496-.891.742-1.469.742-.745 0-1.122-.348-1.124-1.047zm-.777-2.607c-.355 0-.645.174-.863.523-.221.352-.33.787-.33 1.309 0 .348.074.625.221.828a.702.702 0 0 0 .594.303c.355 0 .639-.184.85-.553.207-.365.311-.854.311-1.457-.002-.638-.262-.953-.783-.953z" id="iconBg"/><path class="icon-folder" d="M15 1v.2L9 6 3 1.201V1h12zM3 6.419c.089-.038.181-.068.272-.101.252-.094.511-.17.78-.222l.031-.005C4.38 6.035 4.686 6 5 6c.022 0 .042.005.064.006.02-.001.038-.006.059-.006.749 0 1.43.135 2.051.38L3 3.25v3.169zM10 7H8.266c.106.079.22.144.32.233.825.732 1.278 1.668 1.394 2.767H15V3.25L10 7z" id="colorImportance"/></svg>