<svg xmlns="http://www.w3.org/2000/svg" viewBox="0 0 16 16"><style>.st0{opacity:0;fill:#fff;stroke:#231f20;stroke-miterlimit:10}.st1{fill:#f6f6f6}.st2{fill:#424242}.st3{fill:#f0eff1}</style><g id="outline"><path class="st0" d="M0 0h16v16H0z"/><path class="st1" d="M0 0v15h2v1h5v-1h2v-3h7V0z"/></g><g id="icon_x5F_bg"><path class="st2" d="M1 1v10h2v-1H2V3l5 5h2l5-5v7H6v1h9V1H1zm7 6L3 2h10L8 7z"/><path class="st2" d="M8 13H6v-1H5v-2H4v2H3v1H1v1h2v1h3v-1h2z"/></g><g id="icon_x5F_fg"><path class="st3" d="M9 8H7L2 3v7h1V9h3v1h8V3z"/><path class="st3" d="M3 2h10L8 7z"/></g></svg>