<svg xmlns="http://www.w3.org/2000/svg" viewBox="0 0 16 16"><style>.st0{opacity:0}.st0,.st1{fill:#f6f6f6}.st2{fill:#424242}.st3{fill:#f0eff1}</style><g id="outline"><path class="st0" d="M0 0h16v16H0z"/><path class="st1" d="M16 3H6.488L3.423 0h-.837L0 2.586v.828l2 1.993v3.132l-.052.025a3.888 3.888 0 0 0-1.447 1.514c-.165.309-.29.638-.372.972A4.454 4.454 0 0 0 0 12.126c0 .567.1 1.095.297 1.566.199.481.487.902.854 1.25.356.339.788.606 1.287.793a4.45 4.45 0 0 0 1.551.264 6.192 6.192 0 0 0 1.17-.099 3.63 3.63 0 0 0 .83-.251l.584-.267v-1.029c.166-.094.32-.216.468-.353H16V3z"/></g><g id="icon_x5F_bg"><path transform="rotate(-45.001 6 6)" class="st2" d="M4.586 3.171h2.828v5.656H4.586z"/><path transform="rotate(-45.001 2.5 2.5)" class="st2" d="M1.086 1.793h2.828v1.414H1.086z"/><path class="st2" d="M10 8v1.999L8 10M6.771 10.511a2.437 2.437 0 0 0-.627-.817 2.813 2.813 0 0 0-.922-.514A3.483 3.483 0 0 0 4.096 9c-.316 0-.609.037-.884.111s-.527.18-.756.314a2.81 2.81 0 0 0-.615.49c-.182.19-.334.401-.457.632A3.35 3.35 0 0 0 1 12.126c0 .434.073.83.221 1.184.146.354.354.656.619.908s.581.443.944.58a3.45 3.45 0 0 0 1.204.201 5.441 5.441 0 0 0 .992-.084 2.698 2.698 0 0 0 .593-.176v-.568c-.098.041-.201.084-.309.121a3.015 3.015 0 0 1-.75.155c-.143.018-.3.023-.468.023a2.72 2.72 0 0 1-1.005-.176 2.17 2.17 0 0 1-.751-.488c-.205-.209-.362-.457-.471-.748s-.162-.609-.162-.955c0-.362.06-.702.182-1.015.121-.314.289-.587.505-.816a2.352 2.352 0 0 1 1.742-.74c.28 0 .531.029.75.092.218.061.412.143.579.246.17.105.311.226.429.364.119.139.216.287.292.443.075.158.129.321.164.489.033.168.051.333.051.493 0 .229-.022.436-.068.617a1.727 1.727 0 0 1-.179.463.86.86 0 0 1-.257.289.532.532 0 0 1-.303.1.349.349 0 0 1-.143-.031.241.241 0 0 1-.11-.103.598.598 0 0 1-.072-.203 1.717 1.717 0 0 1-.026-.328c0-.043.006-.113.012-.217.006-.101.018-.221.027-.354l.037-.429c.012-.151.025-.297.038-.432l.032-.364a5.08 5.08 0 0 0 .018-.231h-.613l-.036.4h-.013a.54.54 0 0 0-.092-.188.638.638 0 0 0-.154-.143.823.823 0 0 0-.206-.094.926.926 0 0 0-.246-.031c-.224 0-.431.047-.615.144a1.438 1.438 0 0 0-.48.399c-.134.169-.237.37-.311.604a2.414 2.414 0 0 0-.112.755c0 .229.029.43.089.602s.141.314.24.43c.103.115.22.201.356.256a1.074 1.074 0 0 0 .76.031.96.96 0 0 0 .287-.154c.09-.07.166-.154.232-.254.067-.1.12-.215.158-.346h.016c0 .25.068.449.207.594.137.146.333.221.591.221.195 0 .387-.043.575-.133.189-.088.358-.219.509-.391.147-.174.27-.389.362-.643.092-.258.139-.555.139-.894a2.54 2.54 0 0 0-.229-1.09zM4.564 12.21c-.036.186-.09.344-.163.479a.943.943 0 0 1-.272.322.645.645 0 0 1-.381.117.556.556 0 0 1-.422-.207.775.775 0 0 1-.132-.26 1.318 1.318 0 0 1-.048-.365c0-.158.019-.32.054-.485a1.67 1.67 0 0 1 .167-.451c.073-.135.167-.242.277-.328a.616.616 0 0 1 .388-.128c.082 0 .157.014.228.041a.552.552 0 0 1 .311.351.99.99 0 0 1 .047.322c-.001.21-.019.408-.054.592zM4 8.006v-.604l-1-.998v1.733a4.317 4.317 0 0 1 1-.131z"/><path class="st2" d="M7.509 4L8.53 5H14l-3.01 2.408.01.009V9.25L14 7v5H7.97a3.422 3.422 0 0 1-.167.83c-.022.061-.053.111-.078.17H15V4H7.509z"/></g><g id="icon_x5F_fg"><path class="st3" d="M8.531 5l2.459 2.408L14 5zM4.096 8c.187 0 .367.022.548.043L4 7.401v.604c.032 0 .063-.005.096-.005zM11 9.25V11H7.938c.031.196.062.394.062.601 0 .138-.018.267-.03.399H14V7l-3 2.25z"/></g></svg>