<svg xmlns="http://www.w3.org/2000/svg" viewBox="0 0 16 16"><style>.st0{opacity:0}.st0,.st1{fill:#f6f6f6}.st2{fill:#424242}.st3{fill:#f0eff1}</style><g id="outline"><path class="st0" d="M0 0h16v16H0z"/><path class="st1" d="M16 12.837V14h-3.721l-1-3H8.721l-1 3H7v2H0v-6c0-1.654 1.57-3 3.5-3 .844 0 1.609.268 2.214.696L8.279 0h3.441L16 12.837z"/></g><path class="st2" d="M11 1H9L6.504 8.486C6.812 8.933 7 9.445 7 10v3l1-3h4l1 3h2L11 1zM8.667 8L10 4l1.333 4H8.667zM2 10H1c0-1.104 1.119-2 2.5-2S6 8.896 6 10H5c0-.532-.701-1-1.5-1S2 9.468 2 10zm4 5H1v-4h5v4zm-2-3H3v2h1v-2z" id="icon_x5F_bg"/><path class="st3" d="M4 14H3v-2h1v2z" id="icon_x5F_fg"/></svg>