<svg xmlns="http://www.w3.org/2000/svg" viewBox="0 0 16 16"><style>.st0{opacity:0}.st0,.st1{fill:#f6f6f6}.st2{fill:#424242}.st3{fill:#00539c}.st4{fill:#f0eff1}</style><g id="outline"><path class="st0" d="M0 0h16v16H0z"/><path class="st1" d="M16 15H1V0h15v15z"/></g><path class="st2" d="M12.828 4.586l-3 3 3 3L11.414 12l-3-3-3 3L4 10.586l3-3-3-3 1.414-1.414 3 3 3-3z" id="icon_x5F_bg"/><path class="st3" d="M2 1v13h13V1H2zm12 12H3V2h11v11z" id="color_x5F_importance"/><path class="st4" d="M3 13h11V2H3v11zm1-8.414l1.414-1.414 3 3 3-3 1.414 1.414-3 3 3 3L11.414 12l-3-3-3 3L4 10.586l3-3-3-3z" id="icon_x5F_fg"/></svg>