<svg xmlns="http://www.w3.org/2000/svg" viewBox="0 0 16 16"><style>.icon-canvas-transparent{opacity:0;fill:#f6f6f6}.icon-vs-out{fill:#f6f6f6}.icon-vs-bg{fill:#424242}</style><path class="icon-canvas-transparent" d="M16 16H0V0h16v16z" id="canvas"/><path class="icon-vs-out" d="M10.976 10.976A5.506 5.506 0 0 1 5.5 16 5.506 5.506 0 0 1 0 10.5a5.506 5.506 0 0 1 5.024-5.476A5.506 5.506 0 0 1 10.5 0C13.532 0 16 2.467 16 5.5a5.506 5.506 0 0 1-5.024 5.476z" id="outline"/><g id="iconBg"><path class="icon-vs-bg" d="M15 5.5c0 2.324-1.767 4.213-4.028 4.452a5.51 5.51 0 0 0-4.925-4.925C6.287 2.768 8.176 1 10.5 1A4.5 4.5 0 0 1 15 5.5z"/><path class="icon-vs-bg" d="M10 10.5a4.5 4.5 0 1 1-9 0 4.5 4.5 0 0 1 9 0z"/></g></svg>