<svg xmlns="http://www.w3.org/2000/svg" viewBox="0 0 16 16"><style>.icon-canvas-transparent{opacity:0;fill:#f6f6f6}.icon-vs-out{fill:#f6f6f6}.icon-vs-bg{fill:#424242}.icon-vs-fg{fill:#f0eff1}.icon-vs-action-green{fill:#388a34}</style><path class="icon-canvas-transparent" d="M16 16H0V0h16v16z" id="canvas"/><path class="icon-vs-out" d="M16 4v12H2V9.236l-2-4V4h4.382l2-4h4.236l-2 4H16z" id="outline"/><path class="icon-vs-bg" d="M13 13H5v-.793l1.446-1.445L7.601 12.3a.485.485 0 0 0 .42.2.504.504 0 0 0 .403-.234l2.604-3.367L13 11.66V13zM8.118 5l-.5 1H14v8H4v-4H3v5h12V5H8.118zM13 7H7.118l-1.5 3H5v.793l1.146-1.147a.497.497 0 0 1 .753.054l1.063 1.417 2.614-3.382a.5.5 0 0 1 .831-.026L13 9.939V7z" id="iconBg"/><path class="icon-vs-fg" d="M7.618 6l-.5 1H13v2.939l-1.593-2.23a.498.498 0 0 0-.831.026l-2.614 3.382L6.899 9.7a.493.493 0 0 0-.363-.198.492.492 0 0 0-.39.145L5 10.793V10H4v4h10V6H7.618zM13 13H5v-.793l1.446-1.445L7.601 12.3a.485.485 0 0 0 .42.2.504.504 0 0 0 .403-.234l2.604-3.367L13 11.66V13z" id="iconFg"/><g id="colorAction"><path class="icon-vs-action-green" d="M9 1L5 9H3L1 5h2l1 2 3-6h2z"/></g></svg>