<svg xmlns="http://www.w3.org/2000/svg" viewBox="0 0 16 16"><style>.icon-canvas-transparent{opacity:0;fill:#f6f6f6}.icon-vs-out{fill:#f6f6f6}.icon-vs-bg{fill:#424242}.icon-vs-fg{fill:#f0eff1}.icon-vs-action-green{fill:#388a34}</style><path class="icon-canvas-transparent" d="M16 16H0V0h16v16z" id="canvas"/><path class="icon-vs-out" d="M16 1v15H2V9.236l-2-4V4h2V1h3.882l.5-1h4.236l-.5 1H16z" id="outline"/><path class="icon-vs-bg" d="M4 3H3V2h2.382L4 4.764 3.618 4H4V3zm8 3V5H8.118l-1 2H12V6zM9.618 2l-.5 1H14v11H5v-4H3v1h1v1H3v1h1v1H3v1h12V2H9.618z" id="iconBg"/><path class="icon-vs-fg" d="M14 3v11H5v-4h.618l1.5-3H12V5H8.118l1-2H14z" id="iconFg"/><g id="colorAction"><path class="icon-vs-action-green" d="M9 1L5 9H3L1 5h2l1 2 3-6h2z"/></g></svg>