<svg xmlns="http://www.w3.org/2000/svg" viewBox="0 0 16 16"><style>.st0{opacity:0}.st0,.st1{fill:#f6f6f6}.st2{fill:#f0eff1}.st3{fill:#424242}</style><g id="outline"><path class="st0" d="M0 0h16v16H0z"/><path class="st1" d="M2 2h12v12H2z"/></g><path class="st2" d="M4 12h8V4H4v8zm1-5l3.5-2L11 6.5V9l-3.5 2L5 9.5V7zm2.5 1L6 7l2.5-1.5 1.5 1L7.5 8z" id="icon_x5F_fg"/><path class="st3" d="M3 3v10h10V3H3zm9 9H4V4h8v8zm-1-3V6.5L8.5 5 5 7v2.5L7.5 11 11 9zM8.5 5.5l1.5 1L7.5 8 6 7l2.5-1.5z" id="icon_x5F_bg"/></svg>