<svg xmlns="http://www.w3.org/2000/svg" viewBox="0 0 16 16" enable-background="new 0 0 16 16"><style type="text/css">.icon-canvas-transparent{opacity:0;fill:#F6F6F6;} .icon-vs-out{fill:#F6F6F6;} .icon-vs-bg{fill:#424242;} .icon-vs-fg{fill:#F0EFF1;}</style><path class="icon-canvas-transparent" d="M16 16h-16v-16h16v16z" id="canvas"/><path class="icon-vs-out" d="M16 5v10h-11v1h-3v-6.289c-1.195-.575-2-1.817-2-3.211 0-1.93 1.57-3.5 3.5-3.5.98 0 1.864.407 2.5 1.058v-.058c0-2.393 1.607-4 4-4s4 1.607 4 4v1h2z" id="outline"/><path class="icon-vs-fg" d="M5 6.5c0 .828-.671 1.5-1.5 1.5s-1.5-.672-1.5-1.5.671-1.5 1.5-1.5 1.5.672 1.5 1.5zm1.964.5c-.106.758-.455 1.442-.964 1.973v1.027h1v3h7v-6h-7.036zm3.536 2.847v2.153h-1v-2.153c-.294-.174-.5-.481-.5-.847 0-.552.448-1 1-1s1 .448 1 1c0 .366-.207.673-.5.847z" id="iconFg"/><path class="icon-vs-bg" d="M1 6.5c0 1.209.859 2.269 2 2.5v6h1v-1h2v-1h-2v-1h2v-1h-2v-2c1.141-.231 2-1.291 2-2.5 0-1.381-1.119-2.5-2.5-2.5s-2.5 1.119-2.5 2.5zm4 0c0 .828-.671 1.5-1.5 1.5s-1.5-.672-1.5-1.5.671-1.5 1.5-1.5 1.5.672 1.5 1.5zm4 2.5c0-.552.448-1 1-1s1 .448 1 1c0 .366-.207.673-.5.847v2.153h-1v-2.153c-.294-.174-.5-.481-.5-.847zm4-3v-2c0-1.822-1.178-3-3-3s-3 1.178-3 3v2h-.051c.024.165.051.329.051.5 0 .169-.013.336-.036.5h7.036v6h-7v1h8v-8h-2zm-1 0h-4v-2c0-1.271.729-2 2-2s2 .729 2 2v2z" id="iconBg"/></svg>