<svg xmlns="http://www.w3.org/2000/svg" viewBox="0 0 16 16"><style>.st0{opacity:0}.st0,.st1{fill:#f6f6f6}.st2{fill:#424242}.st3{fill:#f0eff1}</style><g id="outline"><path class="st0" d="M0 0h16v16H0z"/><path class="st1" d="M16 8a2.998 2.998 0 0 0-1.348-2.5A2.998 2.998 0 0 0 16 3c0-1.654-1.346-3-3-3a3.003 3.003 0 0 0-2.923 2.343L8.764 3H0v10h8.764l1.313.657A3.003 3.003 0 0 0 13 16c1.654 0 3-1.346 3-3a2.996 2.996 0 0 0-1.348-2.5A2.996 2.996 0 0 0 16 8zM3 10V6v4z"/></g><path class="st2" d="M11.277 9c.346.596.983 1 1.723 1a2 2 0 1 0 0-4c-.739 0-1.377.405-1.723 1H9V6l2.807-1.403c.334.25.744.403 1.193.403a2 2 0 1 0-2-2L9 4H1v8h8l2 1a2 2 0 1 0 2-2c-.449 0-.859.153-1.193.403L9 10V9h2.277zM14 8a1 1 0 1 1-2 0 1 1 0 1 1 2 0zm-1-6a1 1 0 1 1 0 2 1 1 0 0 1-1-1 .985.985 0 0 1 .228-.612A.985.985 0 0 1 13 2zm-5 9H2V5h6v6zm6 2a1 1 0 0 1-1 1 .981.981 0 0 1-.771-.388 1.112 1.112 0 0 1-.16-.273A.953.953 0 0 1 12 13a1 1 0 1 1 2 0z" id="icon_x5F_bg"/><g id="icon_x5F_fg"><path class="st3" d="M2 5h6v6H2z"/><circle class="st3" cx="13" cy="3" r="1"/><circle class="st3" cx="13" cy="8" r="1"/><circle class="st3" cx="13" cy="13" r="1"/></g></svg>