<?xml version="1.0" encoding="iso-8859-1"?>
<!-- Generator: Adobe Illustrator 21.0.0, SVG Export Plug-In . SVG Version: 6.00 Build 0)  -->
<svg version="1.1" xmlns="http://www.w3.org/2000/svg" xmlns:xlink="http://www.w3.org/1999/xlink" x="0px" y="0px"
	 viewBox="0 0 16 16" style="enable-background:new 0 0 16 16;" xml:space="preserve">
<style type="text/css">
	.icon_x002D_canvas_x002D_transparent{opacity:0;fill:#F6F6F6;}
	.icon_x002D_vs_x002D_out{fill:#F6F6F6;}
	.icon_x002D_vs_x002D_bg{fill:#424242;}
	.icon_x002D_vs_x002D_fg{fill:#F0EFF1;}
	.icon_x002D_vs_x002D_blue{fill:#1BA1E2;}
</style>
<g id="canvas">
	<path class="icon_x002D_canvas_x002D_transparent" d="M16,16H0V0h16V16z"/>
</g>
<g id="outline">
	<path class="icon_x002D_vs_x002D_out" d="M16,3v6c0,1.711-2.149,3-5,3c-0.346,0-0.681-0.021-1.004-0.057l1.023,1.019L7.98,16H7.197
		l-2.001-2H3v-1.959l-0.182,0.182L0,9.417v-0.83l4.001-4.002L6,6.584V3c0-1.711,2.149-3,5-3C13.851,0,16,1.289,16,3z"/>
</g>
<g id="iconBg">
	<path class="icon_x002D_vs_x002D_bg" d="M9.604,12.964l-2.015,2.014l-1.387-1.386L6.796,13H4V9.637l-1.182,1.175L1,9.001L4.001,6
		l1.811,1.813L4.628,9h2.901l0.682-0.684L9.6,9.7l-2.015,2.015L6.198,10.33L6.53,10H5v2h2.795l0.419-0.422L9.604,12.964z"/>
</g>
<g id="iconFg">
	<path class="icon_x002D_vs_x002D_fg" d="M14.325,3c0,0.527-1.326,1.325-3.325,1.325C9.001,4.325,7.675,3.527,7.675,3
		S9.001,1.675,11,1.675C12.999,1.675,14.325,2.473,14.325,3z"/>
</g>
<g id="colorImportance">
	<path class="icon_x002D_vs_x002D_blue" d="M11,1C8.791,1,7,1.896,7,3v4.584l0.265,0.265l0.944-0.947l2.806,2.798L9.813,10.9
		C10.19,10.959,10.584,11,11,11c2.209,0,4-0.894,4-2V3C15,1.896,13.209,1,11,1z M11,4.325C9.001,4.325,7.675,3.527,7.675,3
		S9.001,1.675,11,1.675c1.999,0,3.325,0.798,3.325,1.325S12.999,4.325,11,4.325z"/>
</g>
</svg>
