<svg xmlns="http://www.w3.org/2000/svg" viewBox="0 0 16 16"><style>.st0{fill:#f6f6f6}.st1{fill:#424242}</style><path class="st0" d="M3.988 11.033v2.574h1.384L7.765 16h.828l3.217-3.216.796.798L16 10.189v-.828L14.42 7.78 16 6.2v-.828l-2.596-2.595-.398.398L9.83 0h-.828L5.786 3.216l-.798-.798L0 7.406v.828l3.393 3.394z" id="outline"/><g id="icon_x5F_bg"><path class="st1" d="M8.977 5.609l.308.308.131-.131v.262l.798.798v-1.06h1.596l-.798.797 1.594 1.596L15 5.786l-1.596-1.595-.798.797h-2.392l1.596-1.595L9.416 1 6.493 3.923l2.085 2.084zM8.179 11.012l2.393-2.393-1.595-1.596-.798.797H5.786l1.595-1.595-2.393-2.393L1 7.82l2.393 2.394 1.595-1.595v3.988h2.393l-.797.798L8.179 15l2.393-2.393-1.595-1.595-.799.799H5.786V8.619h1.595l-.797.797zM12.606 8.978h-.979l-.797.797h.98l-.798.797 1.594 1.596L15 9.775l-1.596-1.596z"/></g></svg>