<svg xmlns="http://www.w3.org/2000/svg" viewBox="0 0 16 16"><style>.st0{opacity:0}.st0,.st1{fill:#f6f6f6}.st2{fill:#424242}.st3{fill:#f0eff1}</style><g id="outline"><path class="st0" d="M0 0h16v16H0z"/><path class="st1" d="M16 0H4v5H0v11h12v-5h4z"/></g><path class="st2" d="M15 10h-3V9h2V8h-2V7h2V6h-2V5h2V4h-2v1h-1V4H9l.001 1H8V4H6v1H5V1h10v9zm-4-4v9H1V6h10zm-7 7H2v1h2v-1zm0-2H2v1h2v-1zm0-2H2v1h2V9zm3 4H5v1h2v-1zm0-2H5v1h2v-1zm0-2H5l.001 1H7V9zm3 4H8v1h2v-1zm0-2H8v1h2v-1zm0-2H8v1h2V9z" id="icon_x5F_bg"/><path class="st3" d="M12 7V6h2v1h-2zm2-3h-2v1h2V4zm0 5V8h-2v1h2zm-3-5H9l.001 1H11V4zM8 4H6v1h2V4zm2 5H8v1h2V9zm0 3H8v-1h2v1zm-3-2H5.001L5 9h2v1zm0 2H5v-1h2v1zm-3-2H2V9h2v1zm0 2H2v-1h2v1zm6 2H8v-1h2v1zm-3 0H5v-1h2v1zm-3 0H2v-1h2v1z" id="icon_x5F_fg"/></svg>