<svg xmlns="http://www.w3.org/2000/svg" viewBox="0 0 16 16"><style>.st0{fill:#f6f6f6}.st1{fill:#424242}.st2{fill:#f0eff1}</style><path class="st0" d="M0 0h16v16H0z" id="outline"/><g id="icon_x5F_bg"><path class="st1" d="M1 1v14h14V1H1zm13 13H2V3h12v11z"/><path class="st1" d="M9.795 10H7V8h1.529l-.332.333 1.388 1.386L11.6 7.705l-1.389-1.387L9.529 7H6.628l1.185-1.184-1.812-1.812L3 7.005l1.818 1.813L6 7.642V11h2.796l-.595.594 1.388 1.388 2.015-2.013-1.389-1.389z"/></g><path class="st2" d="M2 3v11h12V3H2zm7.589 9.982l-1.388-1.389.595-.593H6V7.642L4.818 8.818 3 7.005l3.001-3.001 1.812 1.813L6.628 7H9.53l.682-.682L11.6 7.705 9.585 9.719 8.197 8.333 8.529 8H7v2h2.795l.42-.42 1.389 1.389-2.015 2.013z" id="icon_x5F_fg"/></svg>