<svg xmlns="http://www.w3.org/2000/svg" viewBox="0 0 16 16"><style>.st0{opacity:0}.st0,.st1{fill:#f6f6f6}.st2{fill:#424242}</style><g id="outline"><path class="st0" d="M0 0h16v16H0z"/><path class="st1" d="M9 1a6.987 6.987 0 0 0-5.74 3H1v1.414L1.586 6H0v4h1.586L1 10.586V12h2.26A6.985 6.985 0 0 0 9 15 7 7 0 1 0 9 1zm0 11a3.975 3.975 0 0 1-3.093-1.492L8 8.414v-.828L5.907 5.493A3.973 3.973 0 0 1 9 4a4 4 0 0 1 0 8z"/></g><g id="icon_x5F_bg"><path class="st2" d="M9 2a5.978 5.978 0 0 0-4.521 2.064l.721.721C6.117 3.702 7.469 3 9 3a5 5 0 0 1 5 5 5 5 0 0 1-5 5c-1.531 0-2.883-.702-3.801-1.785l-.721.721A5.982 5.982 0 0 0 9 14 6 6 0 1 0 9 2z"/><path class="st2" d="M4 5H2l2 2H1v2h3l-2 2h2l3-3z"/></g></svg>