<svg xmlns="http://www.w3.org/2000/svg" viewBox="0 0 16 16"><style>.icon-canvas-transparent{opacity:0;fill:#f6f6f6}.icon-vs-out{fill:#f6f6f6}.icon-vs-fg{fill:#f0eff1}.icon-vs-action-blue{fill:#00539c}</style><path class="icon-canvas-transparent" d="M16 16H0V0h16v16z" id="canvas"/><path class="icon-vs-out" d="M12 3.586v3.828L10.414 9H8v4H0V6h4V3.586L5.586 2h4.828L12 3.586z" id="outline"/><path class="icon-vs-fg" d="M2 9h4v1H2V9zm4-5v1h4V4H6zm2 3h2V6H8v1z" id="iconFg"/><path class="icon-vs-action-blue" d="M10 3H6L5 4v2h5v1H8v1h2l1-1V4l-1-1zm0 2H6V4h4v1zm-9 7h6V7H1v5zm1-3h4v1H2V9z" id="iconBg"/></svg>