<svg xmlns="http://www.w3.org/2000/svg" viewBox="0 0 16 16"><style>.st0{fill:#f6f6f6}.st1{fill:#c27d1a}.st2{fill:#f0eff1}.st3{fill:#424242}</style><g id="outline"><path class="st0" d="M10.414 0H5.586L4 1.586V4H1.586L0 5.586v3.828L1.586 11h4.828L8 9.414V7h2.414L12 5.414V1.586zM9 9h7v7H9z"/></g><g id="color_x5F_importance_1_"><path class="st1" d="M6 5H2L1 6v3l1 1h4l1-1V6L6 5zm0 4H2V8h4v1zm0-2H2V6h4v1zM10 1H6L5 2v2h5v1H7.414L8 5.586V6h2l1-1V2l-1-1zm0 2H6V2h4v1z"/></g><path class="st2" d="M10 4v1H7.414l-1-1H10zm0-2H6v1h4V2zM6 8H2v1h4V8zm0-2H2v1h4V6z" id="icon_x5F_fg"/><path class="st3" d="M10 10v5h5v-5h-5zm4 3l-1 1v-1.5L11.5 14l-.5-.5 1.5-1.5H11l1-1h2v2z" id="not_x5F_bg"/><path class="st2" d="M14 11v2l-1 1v-1.5L11.5 14l-.5-.5 1.5-1.5H11l1-1z" id="not_x5F_fg"/></svg>