<svg xmlns="http://www.w3.org/2000/svg" viewBox="0 0 16 16"><style>.st0{fill:#f6f6f6}.st1{fill:#424242}.st2{fill:#f0eff1}</style><path class="st0" d="M14.819 9H13V0H5v5H2C.701 5 0 6.012 0 6.965V16h16v-1.098L14.819 9z" id="outline"/><g id="icon_x5F_bg"><path class="st1" d="M6 1v4h.414L10 8.586V10h1v1h-1v1h2V1H6zm5 4H7V4h4v1zm0-2H7V2h4v1z"/><path class="st1" d="M10 14.035c0 .33-.09.665-.254.965H15l-1-5h-1v3h-3v1.035zM6 6H2c-1 0-1 .965-1 .965V14c0 1 .965 1 .965 1H8c1 0 1-.965 1-.965V9L6 6zm2 8H2V7h4v2h2v5z"/><path class="st1" d="M3 8h2v1H3zM3 12h4v1H3zM3 10h4v1H3z"/><path class="st1" d="M3 12h4v1H3zM3 10h4v1H3zM3 8h2v1H3z"/></g><g id="icon_x5F_fg"><path class="st2" d="M10 10h1v1h-1zM7 2h4v1H7zM7 4h4v1H7zM6 9V7H2v7h6V9H6zM3 8h2v1H3V8zm4 5H3v-1h4v1zm0-2H3v-1h4v1z"/></g></svg>