<svg xmlns="http://www.w3.org/2000/svg" viewBox="0 0 16 16"><style>.icon-canvas-transparent{opacity:0;fill:#f6f6f6}.icon-vs-out{fill:#f6f6f6}.icon-vs-bg{fill:#424242}.icon-vs-fg{fill:#f0eff1}</style><path class="icon-canvas-transparent" d="M16 16H0V0h16v16z" id="canvas"/><path class="icon-vs-out" d="M16 6.482L9.534 0 .576 8.932c-.3.311-.488.68-.576 1.065v.981c.093.401.294.788.615 1.12l3.061 2.952H13v-3h-1.542L16 7.396v-.914z" id="outline"/><path class="icon-vs-fg" d="M13.642 6.949l-4.71 4.826L4.75 7.594l4.78-4.766 4.112 4.121zm-9.159 6.102l-2.467-2.378c-.105-.109-.105-.244-.007-.346L4.042 8.3l4.191 4.191-.546.56H4.483z" id="iconFg"/><g id="iconBg"><path class="icon-vs-bg" d="M15.046 6.941L9.532 1.414 1.296 9.625c-.478.497-.478 1.245.013 1.754L4.08 14.05H12v-1H9.085l5.961-6.109zm-1.404.008l-4.71 4.826L4.75 7.594l4.78-4.766 4.112 4.121zm-9.159 6.102l-2.467-2.378c-.105-.109-.105-.244-.007-.346L4.042 8.3l4.191 4.191-.546.56H4.483z"/></g></svg>