<svg xmlns="http://www.w3.org/2000/svg" viewBox="0 0 16 16"><style>.st0{opacity:0}.st0,.st1{fill:#f6f6f6}.st2{fill:#f0eff1}.st3{fill:#424242}</style><g id="outline"><path class="st0" d="M0 0h16v16H0z"/><path class="st1" d="M1 0h15v15H1z"/></g><g id="icon_x5F_fg"><circle class="st2" cx="8.5" cy="7.5" r="1.5"/><path class="st2" d="M3 2v11h11V2H3zm8 2H9v1.05a2.5 2.5 0 0 1 0 4.899V11h2v1H6v-1h2V9.949A2.5 2.5 0 0 1 8 5.05V4H6V3h5v1z"/></g><g id="icon_x5F_bg"><path class="st3" d="M2 1v13h13V1H2zm12 12H3V2h11v11z"/><path class="st3" d="M11 11H9V9.949A2.499 2.499 0 0 0 9 5.05V4h2V3H6v1h2v1.05a2.5 2.5 0 1 0 0 4.899V11H6v1h5v-1zM7 7.5a1.5 1.5 0 1 1 3.001.001A1.5 1.5 0 0 1 7 7.5z"/></g></svg>