<svg xmlns="http://www.w3.org/2000/svg" viewBox="0 0 16 16"><style>.st0{opacity:0}.st0,.st1{fill:#f6f6f6}.st2{fill:#424242}.st3{fill:#f0eff1}</style><g id="outline"><path class="st0" d="M0 0h16v16H0z"/><path class="st1" d="M6.414 1l-.999-1H3.586l-1 1H0v15h16V1z"/></g><g id="icon_x5F_bg"><path class="st2" d="M10 8h5v1h-5zM4 11h4v1H4zM4 9h3v1H4zM5 1H4L1 4v1l3 3h1l3-3V4L5 1zm0 6H4V6h1v1zm0-2H4V2h1v3zM6.414 8H9V7H7.414zM7.414 2L9 3.586V4h1v3h5V2H7.414zM11 6l1.5-2L14 6h-3z"/><path class="st2" d="M10 10v3H3V8.414l-2-2V15h14v-5h-5zm2.5 3L11 11h3l-1.5 2z"/></g><g id="icon_x5F_fg"><path class="st3" d="M5 5H4V2h1v3zm0 1H4v1h1V6z"/><path class="st3" d="M15 8V7h-5V4H9v1.414L7.414 7H9v1H6.414l-1 1H7v1H4V9h-.414L3 8.414V13h7v-3h5V9h-5V8h5zm-7 4H4v-1h4v1z"/><path class="st3" d="M11 6h3l-1.5-2zM12.5 13l1.5-2h-3z"/></g></svg>