<svg xmlns="http://www.w3.org/2000/svg" viewBox="0 0 16 16"><style>.st0{opacity:0}.st0,.st1{fill:#f6f6f6}.st2{fill:#424242}.st3{fill:#00539c}.st4{fill:#f0eff1}</style><g id="outline"><path class="st0" d="M0 0h16v16H0z"/><path class="st1" d="M16 0v16H6v-6H2V8l-2 2V4l4-4 2 2V0h10z"/></g><path class="st2" d="M15 1v14H7V9l1 1h6V7H8V6h6V3H8v1L7 3V1h8zm-1 10H8v3h6v-3z" id="icon_x5F_bg"/><path class="st3" d="M1 7V5l3-3 3 3v2L5 5v4H3V5z" id="color_x5F_action"/><path class="st4" d="M14 6H8V3h6v3zm0 1H8v3h6V7zm0 4H8v3h6v-3z" id="icon_x5F_fg"/></svg>