<svg xmlns="http://www.w3.org/2000/svg" viewBox="0 0 16 16"><style>.st0{opacity:0}.st0,.st1{fill:#f6f6f6}.st2{fill:#424242}.st3{fill:#e51400}.st4{fill:#fff}</style><g id="outline"><path class="st0" d="M0 0h16v16H0z"/><path class="st1" d="M13.775 7.638L14 7.414V6H9.414L14 1.414V0H6.382L2 8.764V10h3.371L3 14.766V16h2.414l2.224-2.225C8.421 15.102 9.849 16 11.5 16a4.5 4.5 0 0 0 4.5-4.5c0-1.651-.898-3.079-2.225-3.862z"/></g><g id="icon_x5F_bg"><path class="st2" d="M7 11.5A4.5 4.5 0 0 1 11.5 7H7l6-6H7L3 9h3.985L4 15h1l2.21-2.21A4.444 4.444 0 0 1 7 11.5zM13 7h-1.5c.451 0 .879.086 1.29.21L13 7z"/></g><path class="st3" d="M11.5 8a3.5 3.5 0 1 0 0 7 3.5 3.5 0 0 0 0-7zm1.854 4.646l-.707.707-1.147-1.146-1.146 1.147-.707-.707 1.147-1.146-1.147-1.146.707-.707 1.146 1.147 1.146-1.147.707.707-1.146 1.145 1.147 1.146z" id="not_x5F_bg"/><path class="st4" d="M13.354 10.354l-.708-.708-1.146 1.147-1.146-1.147-.708.708 1.147 1.146-1.147 1.146.708.708 1.146-1.147 1.146 1.147.708-.708-1.147-1.146z" id="not_x5F_fg"/></svg>