<svg xmlns="http://www.w3.org/2000/svg" viewBox="0 0 16 16"><style>.st0{opacity:0}.st0,.st1{fill:#f6f6f6}.st2{fill:#424242}</style><g id="outline"><path class="st0" d="M0 0h16v16H0z"/><path class="st1" d="M12.996 7.052l-5.155 5.154L6.966 16h1.439l2.423-.808L16 10.056zM7.413 4l2.589-2.586V0h-5.62L1 6.764V8h2.382l-2 4h2.532l6.588-6.586V4z"/></g><g id="icon_x5F_bg"><path class="st2" d="M13.879 10.765l-1.592-1.592.708-.707 1.591 1.591-.707.708zm-.707.707L11.58 9.88l-2.121 2.121 1.591 1.592 2.122-2.121zm-4.95 3.535l2.121-.707-1.591-1.592-.53 2.299zM9.002 1H5L2 7h3l-2 4h.5l6.002-6H5z"/></g></svg>