<svg xmlns="http://www.w3.org/2000/svg" viewBox="0 0 16 16"><style>.st0{opacity:0}.st0,.st1{fill:#f6f6f6}.st2{fill:#424242}.st3{fill:#388a34}</style><g id="outline"><path class="st0" d="M0 0h16v16H0z"/><path class="st1" d="M10.018 16v-2H8v-3.982h2.018V8H14v2.018h2V14h-2v2zM1.382 12l2-4h-3l4-8h7.035L7.415 4h4.502l-8.003 8z"/><path class="st1" d="M10.018 16v-2H8v-3.982h2.018V8H14v2.018h2V14h-2v2z"/></g><path class="st2" d="M9.002 1H5L2 7h3l-2 4h.5l6.002-6H5z" id="color_x5F_decoration"/><g id="not_x5F_bg"><path id="Foreground_1_" class="st3" d="M15 11.018h-2V9h-1.982v2.018H9V13h2.018v2H13v-2h2z"/></g></svg>