<svg xmlns="http://www.w3.org/2000/svg" viewBox="0 0 16 16"><style>.st0{opacity:0}.st0,.st1{fill:#f6f6f6}.st2{fill:#424242}.st3{fill:#f0eff1}</style><g id="outline"><path class="st0" d="M0 0h16v16H0z"/><path class="st1" d="M13 5.914V4h-2.586L13 1.414V0H7.382L4 6.764v.286c-2.247.252-4 2.136-4 4.45a4.5 4.5 0 0 0 9 0c0-.476-.094-.926-.23-1.356L13 5.914z"/></g><g id="icon_x5F_bg"><path class="st2" d="M8 7H5l3-6h4L8 5h4.5L8.332 9.168a4.485 4.485 0 0 0-.892-1.049L8 7zM4.5 8a3.5 3.5 0 1 0 0 7 3.5 3.5 0 0 0 0-7zm1.854 4.646l-.707.707L4.5 12.207l-1.146 1.147-.707-.707L3.793 11.5l-1.146-1.146.707-.707L4.5 10.793l1.146-1.147.707.707L5.207 11.5l1.147 1.146z"/></g><path class="st3" d="M5.207 11.5l1.146 1.146-.707.707L4.5 12.207l-1.146 1.147-.707-.707L3.793 11.5l-1.146-1.146.707-.707L4.5 10.793l1.146-1.147.707.707L5.207 11.5z" id="icon_x5F_fg"/></svg>