<svg xmlns="http://www.w3.org/2000/svg" width="16" height="16"><style type="text/css">.icon-canvas-transparent{opacity:0;fill:#F6F6F6;} .icon-vs-out{fill:#F6F6F6;} .icon-vs-fg{fill:#F0EFF1;} .icon-vs-red{fill:#E51400;} .icon-vs-yellow{fill:#FFCC00;}</style><path class="icon-canvas-transparent" d="M16 16h-16v-16h16v16z" id="canvas"/><path class="icon-vs-out" d="M14.964 11.929l1.036 2.071-1 2h-7c-4.418 0-8-3.582-8-8s3.582-8 8-8 8 3.582 8 8c0 1.429-.379 2.768-1.036 3.929z" id="outline"/><path class="icon-vs-red" d="M11.31 3l.112.078-3.922 3.922h3l-1.5 3-3 3h-.5l2-4h-3l3-6h3.81zm-4.31 11l.042-.084c-2.854-.461-5.042-2.934-5.042-5.916 0-3.309 2.691-6 6-6 1.223 0 2.36.369 3.31 1h.19l-.078.078c1.556 1.085 2.578 2.885 2.578 4.922 0 .544-.079 1.068-.215 1.569l.622 1.245c.379-.862.593-1.812.593-2.814 0-3.866-3.134-7-7-7s-7 3.134-7 7c0 3.693 2.862 6.711 6.487 6.974l-.487-.974z" id="iconBg"/><path class="icon-vs-fg" d="M7.042 13.916c-2.854-.461-5.042-2.934-5.042-5.916 0-3.309 2.691-6 6-6 1.223 0 2.36.369 3.31 1h-3.81l-3 6h3l-2 4h.5l3-3-1.958 3.916zm3.458-6.916h2l1.285 2.569c.136-.501.215-1.025.215-1.569 0-2.037-1.022-3.837-2.578-4.922l-3.922 3.922h3z" id="iconFg"/><path class="icon-vs-yellow" d="M11.891 8.016h-.781l-3.016 6 .515.984h5.766l.484-1-2.968-5.984zm.109 5.984h-1v-1h1v1zm0-2h-1v-2h1v2z" id="notificationBg"/><path class="icon-black" d="M12 12h-1v-2h1v2zm0 1h-1v1h1v-1z" id="notificationFg"/></svg>