<svg xmlns="http://www.w3.org/2000/svg" width="16" height="16"><style type="text/css">.icon-canvas-transparent{opacity:0;fill:#F6F6F6;} .icon-vs-out{fill:#F6F6F6;} .icon-vs-bg{fill:#424242;} .icon-vs-fg{fill:#F0EFF1;} .icon-vs-red{fill:#E51400;}</style><path class="icon-canvas-transparent" d="M16 16h-16v-16h16v16z" id="canvas"/><path class="icon-vs-out" d="M16 8c0 4.411-3.589 8-8 8-1.44 0-2.859-.395-4.103-1.141l-.214-.128-1.269 1.269h-2.032l1.5-3h-1.882v-1.236l.436-.872-.26-1.228c-.117-.55-.176-1.109-.176-1.664 0-4.411 3.589-8 8-8s8 3.589 8 8z" id="outline"/><path class="icon-vs-red" d="M15 8c0 3.866-3.134 7-7 7-1.313 0-2.538-.368-3.588-.998l2.588-2.588v.586h2v-3h3v-2h-3v-3h-2v3h-4.618l-1.228 2.456c-.1-.47-.154-.956-.154-1.456 0-3.866 3.134-7 7-7s7 3.134 7 7zm-8 2v-1h-.586l-1 1h1.586z" id="iconBg"/><path class="icon-vs-fg" d="M12 7v2h-3v3h-2v-3h-.586l.586-.586v-4.414h2v3h3z" id="iconFg"/><path class="icon-vs-bg" d="M6 8l-3 3h3l-4 4 1.5-3h-2.5l2-4h3z" id="colorImportance"/></svg>