<svg xmlns="http://www.w3.org/2000/svg" viewBox="0 0 16 16"><style>.st0{opacity:0}.st0,.st1{fill:#f6f6f6}.st2{fill:#f0eff1}.st3{fill:#424242}.st4{fill:#c27d1a}</style><g id="outline"><path class="st0" d="M0 0h16v16H0z"/><path class="st1" d="M5 0v4H3.382L0 10.764V12h2.393L.375 16h2.557l4-4H16V0z"/><path class="st2" d="M7 2v2h3.414L7 7.414V8h3.932l-1 1H14V2z"/></g><g id="icon_x5F_bg"><path class="st3" d="M10 10h1v1h-1zM14 10h1v1h-1zM12 10h1v1h-1zM7 8v-.586L6.414 8zM6 1v3h1V2h7v7h1V1zM8 10.932V11h1v-1h-.068z"/></g><path class="st4" d="M4 9l4-4H4l-3 6h3.018L2 15h.518l6-6z" id="color_x5F_importance"/></svg>