<svg xmlns="http://www.w3.org/2000/svg" viewBox="0 0 16 16"><style>.st0{fill:#f6f6f6}.st1{fill:#c27d1a}.st2{fill:#424242}.st3{fill:#f0eff1}</style><g id="outline"><path class="st0" d="M6.414 4L9 1.414V0H3.382L0 6.764V8h2.382l-2 4h2.532L9.5 5.414V4zM9 9h7v7H9z"/></g><path class="st1" d="M4 5l4-4H4L1 7h3.018L2 11h.518l6-6z" id="color_x5F_importance"/><path class="st2" d="M10 10v5h5v-5h-5zm4 3l-1 1v-1.5L11.5 14l-.5-.5 1.5-1.5H11l1-1h2v2z" id="not_x5F_bg"/><path class="st3" d="M14 11v2l-1 1v-1.5L11.5 14l-.5-.5 1.5-1.5H11l1-1z" id="not_x5F_fg"/></svg>