<svg xmlns="http://www.w3.org/2000/svg" viewBox="0 0 16 16"><style>.st0{opacity:0}.st0,.st1{fill:#f6f6f6}.st2{fill:#424242}.st3{fill:#fc0}</style><g id="outline"><path class="st0" d="M0 0h16v16H0z"/><path class="st1" d="M8.309 15.5l-1.034-2.067L5.207 15.5H3.5v-.617L6.178 9.5H2.5v-.618L6.691.5H13.5v.707L8.207 6.5H13.5v.707l-.971.97L15.441 14l-.75 1.5z"/><path class="st1" d="M13 1L8.707 5.293 7 7h6l-.569.568-.51.51.322.645L14.882 14l-.5 1H8.618l-.585-1.171-.621-1.24-.981.98L5 15H4l2.266-4.555L6.985 9H3l4-8h6m1-1H6.382L2 8.764V10h3.371L3 14.766V16h2.414l1.724-1.724L8 16h7l1-2-2.862-5.724.862-.862V6H9.414L14 1.414V0z"/></g><g id="icon_x5F_bg"><path class="st2" d="M12.5 7l.167.333L13 7zM10.5 7H7l6-6H7L3 9h3.985L4 15h1l3-3z"/></g><path class="st3" d="M11.891 8.016h-.781l-3.016 6 .515.984h5.766l.484-1-2.968-5.984zM12 14h-1v-1h1v1zm0-2h-1v-2h1v2z" id="not_x5F_bg"/><path d="M12 12h-1v-2h1v2zm0 1h-1v1h1v-1z" id="not_x5F_fg"/></svg>