<svg xmlns="http://www.w3.org/2000/svg" width="16" height="16"><style type="text/css">.icon-canvas-transparent{opacity:0;fill:#F6F6F6;} .icon-vs-out{fill:#F6F6F6;} .icon-vs-fg{fill:#F0EFF1;} .icon-vs-red{fill:#E51400;}</style><path class="icon-canvas-transparent" d="M16 16h-16v-16h16v16z" id="canvas"/><path class="icon-vs-out" d="M16 7.586v.828l-7.586 7.586h-.828l-7.586-7.586v-.828l7.586-7.586h.828l7.586 7.586z" id="outline"/><path class="icon-vs-red" d="M8 1l-7 7 7 7 7-7-7-7zm-5.586 7l5.586-5.586 5.586 5.586-5.586 5.586-5.586-5.586zm7.586-3l-3 3h3l-4 4 1.5-3h-2.5l2-4h3z" id="iconBg"/><g id="iconFg"><path class="icon-vs-fg" d="M13.586 8l-5.586 5.586-1.793-1.793 3.793-3.793h-3l3-3h-3l-2 4h2.5l-1.362 2.724-3.724-3.724 5.586-5.586 5.586 5.586z"/></g></svg>