<svg xmlns="http://www.w3.org/2000/svg" viewBox="0 0 16 16"><style>.st0{opacity:0}.st0,.st1{fill:#f6f6f6}.st2{fill:#424242}.st3{fill:#f0eff1}</style><g id="outline"><path class="st0" d="M0 0h16v16H0z"/><path class="st1" d="M12 7V6H7.414L12 1.414V0H4.382L0 8.764V10h3.371L1 14.766V16h2.414L5 14.414V16h11V7z"/></g><g id="icon_x5F_bg"><path class="st2" d="M5 1L1 9h3.985L2 15h1l2-2V7l6-6z"/><path class="st2" d="M6 8v7h9V8H6zm8 6H7V9h7v5z"/><path class="st2" d="M8 10h1v1H8zM8 12h1v1H8zM10 10h3v1h-3zM10 12h3v1h-3z"/></g><path class="st3" d="M7 9v5h7V9H7zm2 4H8v-1h1v1zm0-2H8v-1h1v1zm4 2h-3v-1h3v1zm0-2h-3v-1h3v1z" id="icon_x5F_fg"/></svg>