<svg xmlns="http://www.w3.org/2000/svg" width="16" height="16"><style type="text/css">.icon-canvas-transparent{opacity:0;fill:#F6F6F6;} .icon-vs-out{fill:#F6F6F6;} .icon-vs-fg{fill:#F0EFF1;} .icon-vs-red{fill:#E51400;} .icon-vs-yellow{fill:#FFCC00;}</style><path class="icon-canvas-transparent" d="M16 16h-16v-16h16v16z" id="canvas"/><path class="icon-vs-out" d="M16 8.414l-1.862 1.862 1.862 3.724-1 2h-7.414l-7.586-7.586v-.828l7.586-7.586h.828l7.586 7.586v.828z" id="outline"/><path class="icon-vs-red" d="M15 8l-1.333 1.333-.471-.943.39-.39-5.586-5.586-5.586 5.586 3.724 3.724 1.362-2.724h-2.5l2-4h3l-3 3h3l-3.793 3.793 1.264 1.264-.471.943-6-6 7-7 7 7z" id="iconBg"/><path class="icon-vs-fg" d="M6.207 11.793l3.793-3.793-2.529 5.057-1.264-1.264zm3.793-3.793l.5-1h2l.695 1.391.391-.391-5.586-5.586-5.586 5.586 3.724 3.724 1.362-2.724h-2.5l2-4h3l-3 3h3z" id="iconFg"/><path class="icon-vs-yellow" d="M11.891 8.016h-.781l-3.016 6 .515.984h5.766l.484-1-2.968-5.984zm.109 5.984h-1v-1h1v1zm0-2h-1v-2h1v2z" id="notificationBg"/><g id="notificationFg"><path class="icon-black" d="M12 12h-1v-2h1v2zm0 1h-1v1h1v-1z"/></g></svg>