<svg xmlns="http://www.w3.org/2000/svg" viewBox="0 0 16 16"><style>.st0{opacity:0}.st0,.st1{fill:#f6f6f6}.st2{fill:#424242}.st3{fill:#f0eff1}</style><g id="outline"><path class="st0" d="M0 0h16v16H0z"/><path class="st1" d="M16 1H1v8.764l-1 2V13h1v1.764L.382 16h2.032l1-1H16z"/></g><g id="icon_x5F_bg"><path class="st2" d="M2 2v5.764L2.382 7H3V5h3v2h1V5h3v2H7v1h3v2H7v1h3v2H7v-1.586l-1 1V13h-.586l-1 1H15V2H2zm12 11h-3v-2h3v2zm0-3h-3V8h3v2zm0-3h-3V5h3v2z"/><path class="st2" d="M6 9.414V10h1V8.414zM6 11H3l3-3H3l-2 4h2.5L2 15z"/></g><g id="icon_x5F_fg"><path class="st3" d="M11 5h3v2h-3zM7 5h3v2H7zM7 8h3v2H7zM3 5h3v2H3zM11 11h3v2h-3zM7 11h3v2H7zM6 10v-.586L5.414 10zM6 13v-.586L5.414 13zM11 8h3v2h-3z"/></g></svg>