<svg xmlns="http://www.w3.org/2000/svg" width="16" height="16"><style type="text/css">.icon-canvas-transparent{opacity:0;fill:#F6F6F6;} .icon-vs-out{fill:#F6F6F6;} .icon-vs-fg{fill:#F0EFF1;} .icon-vs-red{fill:#E51400;}</style><path class="icon-canvas-transparent" d="M16 16h-16v-16h16v16z" id="canvas"/><path class="icon-vs-out" d="M16 8c0 4.418-3.582 8-8 8s-8-3.582-8-8 3.582-8 8-8 8 3.582 8 8z" id="outline"/><path class="icon-vs-red" d="M8 1c-3.866 0-7 3.134-7 7s3.134 7 7 7 7-3.134 7-7-3.134-7-7-7zm0 13c-3.309 0-6-2.691-6-6s2.691-6 6-6 6 2.691 6 6-2.691 6-6 6zm4-7l-6 6h-.5l2-4h-3l3-6h4l-4 4h4.5z" id="iconBg"/><g id="iconFg"><path class="icon-vs-fg" d="M11.422 3.078l-3.922 3.922h4.5l-6 6h-.5l2-4h-3l3-6h3.81c-.95-.631-2.087-1-3.31-1-3.309 0-6 2.691-6 6s2.691 6 6 6 6-2.691 6-6c0-2.037-1.022-3.837-2.578-4.922z"/></g></svg>