<svg xmlns="http://www.w3.org/2000/svg" viewBox="0 0 16 16"><style>.icon-canvas-transparent{opacity:0;fill:#f6f6f6}.icon-vs-out{fill:#f6f6f6}.icon-vs-bg{fill:#424242}.icon-vs-action-red{fill:#a1260d}</style><path class="icon-canvas-transparent" d="M16 16H0V0h16v16z" id="canvas"/><path class="icon-vs-out" d="M1.382 12l2-4h-3l4-8h7.032l-4 4h4.5l-8 8H1.382zM16 9.646l-2.061-2.061-1.97 1.97L10 7.586l-2.475 2.475 1.97 1.97L7.525 14l2 2h.949l1.495-1.495L13.465 16h.949L16 14.414v-.828l-1.556-1.556L16 10.475v-.829z" id="outline"/><path class="icon-vs-bg" d="M5 5h4.5l-6 6H3l2-4H2l3-6h4L5 5z" id="iconBg"/><path class="icon-vs-action-red" d="M13.03 12.03L15 14l-1.061 1.061-1.97-1.97L10 15.061 8.939 14l1.97-1.97-1.97-1.97L10 9l1.97 1.97L13.939 9 15 10.061l-1.97 1.969z" id="colorAction"/></svg>