<svg xmlns="http://www.w3.org/2000/svg" viewBox="0 0 16 16"><style>.st0{opacity:0}.st0,.st1{fill:#f6f6f6}.st2{fill:#424242}.st3{fill:#f0eff1}</style><g id="outline"><path class="st0" d="M0 0h16v16H0z"/><path class="st1" d="M13 0H7.382L4 6.764v.286c-2.247.252-4 2.136-4 4.45a4.5 4.5 0 0 0 9 0c0-.476-.094-.926-.23-1.356L13 5.914V4h-2.586L13 1.414V0z"/></g><g id="icon_x5F_bg"><path class="st2" d="M8 5l4-4H8L5 7h3l-.56 1.119c.349.303.65.653.892 1.049L12.5 5H8zM6.861 8.932zM7.494 9.713c-.013-.023-.035-.038-.048-.06l.04.068.008-.008zM3.5 13.707l-1.854-1.853.707-.707L3.5 12.293l3.361-3.361A3.47 3.47 0 0 0 4.5 8 3.5 3.5 0 1 0 8 11.5a3.41 3.41 0 0 0-.514-1.778L3.5 13.707z"/></g><path class="st3" d="M6.861 8.932L3.5 12.293l-1.146-1.147-.707.707L3.5 13.707l3.994-3.994a3.486 3.486 0 0 0-.633-.781z" id="icon_x5F_fg"/></svg>