<svg xmlns="http://www.w3.org/2000/svg" viewBox="0 0 16 16"><style>.icon-vs-out{fill:#f6f6f6}.icon-vs-bg{fill:#424242}.icon-vs-fg{fill:#f0eff1}.icon-vs-action-blue{fill:#00539c}</style><path class="icon-vs-out" d="M16 3.413l-1 .997V13H6.566l-3.408 3H2v-3H0V2h10.534l2.043-2h.837L16 2.586v.827z" id="outline"/><path class="icon-vs-fg" d="M5 11h.812L4 12.594V11H2V4h6.491L6.448 6H3v1h2.426L5 7.417V8H3v1h2v2zm6.4-3h.6v1h-1.603l-2.006 2H13V6.404L11.4 8z" id="iconFg"/><path class="icon-vs-bg" d="M10.397 9L11.4 8h.6v1h-1.603zM3 8v1h2V8H3zm0-1h2.426l1.022-1H3v1zm10-.596V11H5.812L4 12.594V11H2V4h6.491l1.022-1H1v9h2v2.807L6.188 12H14V5.407l-1 .997z" id="iconBg"/><g id="colorAction"><path id="XMLID_3_" class="icon-vs-action-blue" d="M11 3l2 2-4 3.999-2-2L11 3zm1-1l2 2 1-1-2-2-1 1zM6 8v1.999L8 10 6 8z"/></g></svg>