<svg xmlns="http://www.w3.org/2000/svg" viewBox="0 0 16 16"><style>.st0{fill:#f6f6f6}.st1{fill:#424242}.st2{fill:#f0eff1}</style><path class="st0" d="M11 9V0H0v11h9v5h7V9z" id="outline"/><g id="icon_x5F_bg"><path class="st1" d="M5 3h1v3H5zM5 7h1v1H5z"/><path class="st1" d="M9 9H2V2h7v7h1V1H1v9h8z"/></g><path class="st2" d="M2 2v7h7V2H2zm4 6H5V7h1v1zm0-2H5V3h1v3z" id="icon_x5F_fg"/><path class="st1" d="M10 10v5h5v-5h-5zm4 3l-1 1v-1.5L11.5 14l-.5-.5 1.5-1.5H11l1-1h2v2z" id="not_x5F_bg"/><path class="st2" d="M14 11v2l-1 1v-1.5L11.5 14l-.5-.5 1.5-1.5H11l1-1z" id="not_x5F_fg"/></svg>