<svg xmlns="http://www.w3.org/2000/svg" viewBox="0 0 16 16"><style>.icon-canvas-transparent{opacity:0;fill:#f6f6f6}.icon-vs-out{fill:#f6f6f6}.icon-vs-bg{fill:#424242}.icon-vs-fg{fill:#f0eff1}</style><path class="icon-canvas-transparent" d="M16 16H0V0h16v16z" id="canvas"/><path class="icon-vs-out" d="M16 0v11h-6c0 .184-.021.359-.046.535l-.099.769-.782.191-.354.045.698.896-.476.614a5.071 5.071 0 0 1-.89.891l-.614.477-.897-.699-.14 1.123-.769.1C5.359 15.979 5.184 16 5 16s-.359-.021-.535-.046l-.769-.099-.191-.783-.045-.353-.898.698-.614-.477a5.071 5.071 0 0 1-.89-.891l-.476-.614.698-.896L.158 12.4l-.1-.769C.022 11.359 0 11.184 0 11s.022-.359.046-.535l.099-.769.782-.191.354-.045-.698-.897.477-.614c.257-.331.556-.63.889-.889l.614-.477.897.699.14-1.126.874-.111C4.647 6.021 4.82 6 5 6V0h11z" id="outline"/><path class="icon-vs-bg" d="M11 6h-1V3h1v3zm0 1h-1v1h1V7zM6 1v5.105l.4.051.14 1.126.46-.358V2h7v7H9.077l-.358.46 1.123.14.052.4H15V1H6zm1.714 10.658a2.747 2.747 0 0 1-.331.795l.768.984a3.972 3.972 0 0 1-.712.713l-.985-.768c-.243.148-.51.262-.796.331l-.153 1.235C5.337 14.971 5.173 15 5 15s-.337-.029-.504-.051l-.153-1.235a2.786 2.786 0 0 1-.796-.331l-.985.767a3.972 3.972 0 0 1-.712-.713l.768-.984a2.747 2.747 0 0 1-.331-.795l-1.235-.154C1.029 11.337 1 11.173 1 11s.029-.337.051-.504l1.235-.154c.068-.285.182-.551.331-.795l-.767-.985c.207-.267.445-.505.712-.712l.985.767c.243-.149.51-.262.796-.331l.153-1.235C4.663 7.03 4.827 7 5 7s.337.03.504.051l.153 1.235c.286.069.553.182.796.331l.985-.767c.267.207.505.445.712.712l-.767.985c.149.244.263.51.331.795l1.235.154c.022.167.051.331.051.504s-.029.337-.051.504l-1.235.154zM7 11a2 2 0 1 0-4.001.001A2 2 0 0 0 7 11zm-2 1a1 1 0 1 0 0-2 1 1 0 0 0 0 2z" id="iconBg"/><path class="icon-vs-fg" d="M7 2v4.924l.438-.341.614.477c.333.259.632.558.888.889l.477.614-.34.437H14V2H7zm4 6h-1V7h1v1zm0-2h-1V3h1v3zm-8 5a2 2 0 1 1 4 0 2 2 0 0 1-4 0zm1 0a1 1 0 1 0 2 0 1 1 0 0 0-2 0z" id="iconFg"/></svg>