<svg xmlns="http://www.w3.org/2000/svg" viewBox="0 0 16 16"><style>.st0{opacity:0}.st0,.st1{fill:#f6f6f6}.st2{fill:#424242}.st3{fill:#f0eff1}</style><g id="outline"><path class="st0" d="M0 0h16v16H0z"/><path class="st1" d="M12.061 0H6c-.97 0-2 .701-2 2v3H0v11h12v-2h2c1.299 0 2-1.03 2-2V3.556L12.061 0z"/></g><g id="icon_x5F_bg"><path class="st2" d="M1 6v9h10V6H1zm3 8H2v-1h2v1zm0-2H2v-1h2v1zm0-2H2V9h2v1zm0-2H2V7h2v1zm3 6H5v-1h2v1zm0-2H5v-1h2v1zm0-2H5V9h2v1zm0-2H5V7h2v1zm3 6H8v-1h2v1zm0-2H8v-1h2v1zm0-2H8V9h2v1zm0-2H8V7h2v1z"/><path class="st2" d="M11.641 1H5.964S5 1 5 2v3h1V2h5v3h3v7h-2v1h1.965c1 0 1.035-1 1.035-1V4l-3.359-3z"/></g><g id="icon_x5F_fg"><path class="st3" d="M2 7h2v1H2zM5 7h2v1H5zM8 7h2v1H8zM2 9h2v1H2zM5 9h2v1H5zM8 9h2v1H8zM2 11h2v1H2zM5 11h2v1H5zM8 11h2v1H8zM2 13h2v1H2zM5 13h2v1H5zM8 13h2v1H8zM6 2h5v3H6zM12 5h2v7h-2z"/></g></svg>