<svg xmlns="http://www.w3.org/2000/svg" viewBox="0 0 16 16"><style>.st0{opacity:0}.st0,.st1{fill:#f6f6f6}.st2{fill:#424242}.st3{fill:#f0eff1}</style><g id="outline"><path class="st0" d="M0 0h16v16H0z"/><path class="st1" d="M9 3c-.092 0-.181.01-.271.014C8.113 1.263 6.461 0 4.5 0A4.5 4.5 0 0 0 0 4.5c0 1.961 1.263 3.613 3.014 4.229C3.01 8.819 3 8.908 3 9c0 3.309 2.691 6 6 6s6-2.691 6-6-2.691-6-6-6z"/></g><g id="icon_x5F_bg"><path class="st2" d="M9 4c-.017 0-.033.005-.05.005.018.165.05.326.05.495 0 .576-.118 1.122-.315 1.628a1.996 1.996 0 1 1-2.557 2.557A4.472 4.472 0 0 1 4.5 9c-.169 0-.33-.032-.495-.05 0 .017-.005.033-.005.05a5 5 0 0 0 5 5 5 5 0 0 0 5-5 5 5 0 0 0-5-5z"/><path class="st2" d="M8 4.5a3.5 3.5 0 1 0-7 0 3.5 3.5 0 0 0 7 0zM2 5V4h5v1H2z"/></g><g id="icon_x5F_fg"><path class="st3" d="M8.685 6.128a4.495 4.495 0 0 1-2.557 2.557 1.996 1.996 0 1 0 2.557-2.557zM2 4h5v1H2z"/></g></svg>