<svg xmlns="http://www.w3.org/2000/svg" viewBox="0 0 16 16"><style>.st0{opacity:0}.st0,.st1{fill:#f6f6f6}.st2{fill:#424242}.st3{fill:#f0eff1}</style><g id="outline"><path class="st0" d="M0 0h16v16H0z"/><path class="st1" d="M16 6.905a1.506 1.506 0 0 0-.405-.512C15.282 6.132 14.856 6 14.329 6c-.046 0-.09.009-.135.01A5.995 5.995 0 0 0 9 3c-.092 0-.181.01-.271.014C8.112 1.263 6.461-.001 4.5-.001a4.5 4.5 0 0 0-4.5 4.5c0 1.962 1.262 3.613 3.013 4.229-.004.091-.013.18-.013.271 0 2.99 2.199 5.469 5.064 5.921.084.278.249.529.496.723.3.237.696.356 1.183.356.603 0 1.149-.158 1.625-.471.448-.294.835-.732 1.153-1.311.087-.16.172-.354.257-.563a5.99 5.99 0 0 0 2.221-4.637c.279-.059.539-.171.732-.372.091-.09.189-.218.269-.38v-1.36z"/></g><g id="icon_x5F_bg"><path class="st2" d="M8 4.5a3.5 3.5 0 1 0-7 0 3.5 3.5 0 0 0 7 0M2 4h5v1H2V4z"/><path class="st2" d="M9.781 13.099l.646-2.452h-.663l.735-2.521.708.01c.403-.715.838-1.229 1.326-1.57.198-.139.41-.245.628-.333A4.992 4.992 0 0 0 9 4c-.017 0-.033.004-.05.004.018.165.05.327.05.495 0 .576-.118 1.122-.315 1.628A2 2 0 0 1 10 8a1.995 1.995 0 1 1-3.872.685A4.476 4.476 0 0 1 4.5 9c-.17 0-.33-.031-.495-.05 0 .018-.005.032-.005.05 0 2.469 1.792 4.506 4.145 4.914.082-.167.194-.321.342-.451a1.56 1.56 0 0 1 1.055-.381c.085 0 .165.006.239.017"/><path class="st2" d="M14.957 7.162c-.131-.108-.341-.162-.628-.162-.45 0-.858.128-1.224.385-.367.256-.715.68-1.045 1.273-.114.204-.223.335-.324.393-.103.059-.266.087-.49.084l-.149.512h.627l-.919 3.496c-.152.574-.257.928-.311 1.062a1.26 1.26 0 0 1-.356.499.335.335 0 0 1-.229.084.1.1 0 0 1-.064-.023l-.022-.03c0-.015.022-.044.068-.089.045-.046.068-.115.068-.207a.334.334 0 0 0-.109-.255c-.071-.067-.175-.101-.309-.101a.57.57 0 0 0-.394.132.397.397 0 0 0-.147.308c0 .129.06.24.181.335.119.095.306.142.562.142.404 0 .764-.102 1.077-.309.314-.205.587-.523.822-.95.232-.429.474-1.12.72-2.075l.527-2.02h.634l.158-.512h-.653c.186-.737.432-1.279.738-1.619.186-.213.367-.319.544-.319.037 0 .066.009.088.03a.101.101 0 0 1 .035.079c0 .029-.025.085-.076.167a.457.457 0 0 0-.073.231c0 .102.039.19.117.262a.42.42 0 0 0 .297.11.432.432 0 0 0 .323-.134.49.49 0 0 0 .132-.361.512.512 0 0 0-.196-.418"/></g><g id="icon_x5F_fg"><path class="st3" d="M8.685 6.128a4.493 4.493 0 0 1-2.558 2.557A2 2 0 0 0 8 10a1.996 1.996 0 1 0 .685-3.872M2 4h5v1H2z"/></g></svg>