<svg xmlns="http://www.w3.org/2000/svg" width="16" height="16"><style type="text/css">.icon-canvas-transparent{opacity:0;fill:#F6F6F6;} .icon-vs-bg{fill:#424242;} .icon-vs-fg{fill:#F0EFF1;} .icon-vs-out{fill:#F6F6F6;}</style><path class="icon-canvas-transparent" d="M16 16h-16v-16h16v16z" id="canvas"/><path class="icon-vs-out" d="M16 0v7h-6v-1h-1v-1h-1v3h-3v1h1v1h1v6h-7v-6h1v-1h1v-1h-2v-8h8v2h1v-1h1v-1h6z" id="outline"/><path class="icon-vs-bg" d="M1 1v6h6v-6h-6zm5 5h-4v-4h4v4zm5-5v1h-1v1h-2v1h2v1h1v1h4v-5h-4zm3 4h-2v-1h-1v-1h1v-1h2v3zm-8 6h-1v-1h-1v-2h-1v2h-1v1h-1v4h5v-4zm-4 3v-2h1v-1h1v1h1v2h-3z" id="iconBg"/><g id="iconFg"><path class="icon-vs-fg" d="M2 2h4v4h-4v-4zm10 1h-1v1h1v1h2v-3h-2v1zm-8 9v-1h-1v1h-1v2h3v-2h-1z"/></g></svg>