<svg xmlns="http://www.w3.org/2000/svg" width="16" height="16"><style type="text/css">.icon-canvas-transparent{opacity:0;fill:#F6F6F6;} .icon-vs-out{fill:#F6F6F6;} .icon-vs-bg{fill:#424242;} .icon-vs-action-green{fill:#388A34;}</style><path class="icon-canvas-transparent" d="M16 16h-16v-16h16v16z" id="canvas"/><path class="icon-vs-out" d="M16 7v9h-11v-9h2v-2.618l2 1v-2.382h3v2.382l2-1v2.618h2zm-14.624 2l5.143-4.5-5.143-4.5h-1.376v9h1.376z" id="outline"/><path class="icon-vs-bg" d="M15 8v7h-9v-7h1v6h7v-6h1zm-6 2h-1v1h1v-1zm4 1v-1h-1v1h1zm-2-1h-1v1h1v-1zm1 2h-1v1h1v-1zm-3 1h1v-1h-1v1zm2-6v-3h-1v3l-2-1v1.5l2.5 1.5 2.5-1.5v-1.5l-2 1z" id="iconBg"/><g id="colorAction"><path class="icon-vs-action-green" d="M1 8v-7l4 3.5-4 3.5z"/></g></svg>