<svg xmlns="http://www.w3.org/2000/svg" viewBox="0 0 16 16"><style>.st0{opacity:0}.st0,.st1{fill:#f6f6f6}.st2{fill:#424242}.st3{fill:#f0eff1}</style><g id="outline"><path class="st0" d="M0 0h16v16H0z"/><path class="st1" d="M16 0H6v7H0v9h9v-3h7z"/></g><g id="icon_x5F_bg"><path class="st2" d="M9 3h4v1H9zM9 5h1v1H9zM11 5h1v1h-1zM9 7h2v1H9zM9 9h4v1H9z"/><path class="st2" d="M7 1v6h1V2h6v9H9v1h6V1z"/><path class="st2" d="M1 15h7V8H1v7zm1-6h5v4.5L3.5 11 2 12.5V9zm1.5 3.5l2 1.5H2l1.5-1.5z"/><circle class="st2" cx="5.75" cy="10.25" r=".75"/></g><g id="icon_x5F_fg"><path class="st3" d="M8 2v5h3v1H9v1h4v1H9v1h5V2H8zm2 4H9V5h1v1zm2 0h-1V5h1v1zm1-2H9V3h4v1zM2 14h3.5l-2-1.5z"/><path class="st3" d="M2 12.5L3.5 11 7 13.5V9H2v3.5zm3.75-3a.75.75 0 1 1 0 1.5.75.75 0 0 1 0-1.5z"/></g></svg>