<svg xmlns="http://www.w3.org/2000/svg" viewBox="0 0 16 16"><style>.st0{fill:#f6f6f6}.st1{fill:#424242}.st2{fill:#f0eff1}</style><path class="st0" d="M13 3V0H4.882L3.25 3.264 3.118 3H0v1.236L1.882 8H3v8h8v-3h5V3z" id="outline"/><g id="icon_x5F_bg"><path class="st1" d="M9 4v2h1V5h4v6h-3v1h4V4z"/><path class="st1" d="M4.618 8H4v7h6V7H5.118l-.5 1zM9 14H5V8h4v6zM7 6V3.236l-1 2V6zM11 3h1V1H8.118l-.5 1H11zM7 1H5.5L3.25 5.5 2.5 4H1l1.5 3H4z"/></g><g id="icon_x5F_fg"><path class="st2" d="M10 5v1h1v5h3V5zM5 8h4v6H5zM8 3h3V2H7.618L7 3.236V6h1z"/></g></svg>