<svg xmlns="http://www.w3.org/2000/svg" viewBox="0 0 16 16"><style>.st0{opacity:0}.st0,.st1{fill:#f6f6f6}.st2{fill:#424242}.st3{fill:#f0eff1}</style><g id="outline"><path class="st0" d="M0 0h16v16H0z"/><path class="st1" d="M10 15v-3h1v-1.914l2.5-2.5 2.5 2.5v4.328l-1.127-1.127A2.505 2.505 0 0 1 12.5 15H10z"/><path class="st1" d="M16 0H7v4.233A8.365 8.365 0 0 0 5 4C2.149 4 0 5.29 0 7v6c0 1.71 2.149 3 5 3s5-1.29 5-3v2h2.5a2.505 2.505 0 0 0 2.373-1.713L16 14.414v-4.328L13.914 8H16V0zm-5 10.086V12h-1V8h3.086L11 10.086z"/></g><g id="icon_x5F_bg"><path class="st2" d="M12 10.5V12l1-1v1.5c0 .275-.225.5-.5.5H11v1h1.5c.827 0 1.5-.673 1.5-1.5V11l1 1v-1.5L13.5 9 12 10.5zM8 1v3.579c.382.168.716.368 1 .596V5h1v1h-.286c.174.312.286.644.286 1h5V1H8zm2 3H9V3h1v1zm2 2h-1V5h1v1zm0-2h-1V3h1v1zm2 2h-1V5h1v1zm0-2h-1V3h1v1zM5 5c-2.209 0-4 .895-4 2v6c0 1.106 1.791 2 4 2s4-.894 4-2V7c0-1.105-1.791-2-4-2zm3 8c0 .249-1.064 1-3 1s-3-.751-3-1V7c0-.249 1.064-1 3-1s3 .751 3 1v6z"/><path class="st2" d="M5 6.5c-1.613 0-2.5.626-2.5.833s.887.834 2.5.834 2.5-.626 2.5-.833S6.613 6.5 5 6.5z"/></g><g id="icon_x5F_fg"><path class="st3" d="M5 6c-1.936 0-3 .751-3 1v6c0 .249 1.064 1 3 1s3-.751 3-1V7c0-.249-1.064-1-3-1zm0 2.167c-1.613 0-2.5-.626-2.5-.833S3.387 6.5 5 6.5s2.5.626 2.5.833-.887.834-2.5.834zM11 5h1v1h-1zM9 3h1v1H9zM13 3h1v1h-1zM13 5h1v1h-1zM11 3h1v1h-1zM9 5v.175c.307.246.546.522.714.825H10V5H9z"/></g></svg>