<svg xmlns="http://www.w3.org/2000/svg" viewBox="0 0 16 16"><style>.st0{opacity:0}.st0,.st1{fill:#f6f6f6}.st2{fill:#424242}</style><g id="outline"><path class="st0" d="M0 0h16v16H0z"/><path class="st1" d="M13.227 4.813A6.994 6.994 0 0 0 7 1a7 7 0 1 0 0 14 6.993 6.993 0 0 0 6.227-3.814L16 8.414v-.828l-2.773-2.773zM9.586 10L9 10.586v.859A3.955 3.955 0 0 1 7 12a4 4 0 0 1 0-8c.732 0 1.41.211 2 .555v.859L9.586 6H8v4h1.586z"/></g><g id="icon_x5F_bg"><path class="st2" d="M7 13a5 5 0 0 1-5-5 5 5 0 0 1 5-5c1.118 0 2.14.38 2.973 1h1.49A5.976 5.976 0 0 0 7 2a6 6 0 0 0 0 12 5.976 5.976 0 0 0 4.463-2h-1.49A4.96 4.96 0 0 1 7 13z"/><path class="st2" d="M12 5h-2l2 2H9v2h3l-2 2h2l3-3z"/></g></svg>