<svg xmlns="http://www.w3.org/2000/svg" viewBox="0 0 16 16"><style>.icon-canvas-transparent{opacity:0;fill:#f6f6f6}.icon-vs-out{fill:#f6f6f6}.icon-vs-bg{fill:#424242}.icon-vs-action-green{fill:#388a34}</style><path class="icon-canvas-transparent" d="M16 16H0V0h16v16z" id="canvas"/><path class="icon-vs-out" d="M16 6V0h-6v2H6V0H0v6h2v4H0v6h6v-2h4v2h6v-6h-2V6h2z" id="outline"/><path class="icon-vs-bg" d="M15 5h-1V2h-3V1h4v4zm0 6h-1v3h-3v1h4v-4zM5 14H2v-3H1v4h4v-1zM2 2h3V1H1v4h1V2z" id="iconBg"/><g id="colorAction"><path class="icon-vs-action-green" d="M13 7H9V3H7v4H3v2h4v4h2V9h4z"/></g></svg>