<svg xmlns="http://www.w3.org/2000/svg" viewBox="0 0 16 16"><style>.st0{opacity:0}.st0,.st1{fill:#f6f6f6}.st2{fill:#424242}.st3{fill:#f0eff1}</style><g id="outline"><path class="st0" d="M0 0h16v16H0z"/><circle class="st1" cx="8" cy="8" r="8"/></g><path class="st2" d="M8 1a7 7 0 0 0-7 7 7 7 0 1 0 7-7zm0 12c-2.757 0-5-2.243-5-5s2.243-5 5-5 5 2.243 5 5-2.243 5-5 5zm2-7.707l.707.707L8 8.707 5.293 6 6 5.293l2 2 2-2zm0 3l.707.707L8 11.707 5.293 9 6 8.293l2 2 2-2z" id="icon_x5F_bg"/><path class="st3" d="M8 3a5 5 0 1 0 0 10A5 5 0 0 0 8 3zm0 8.707L5.293 9 6 8.293l2 2 2-2 .707.707L8 11.707zm0-3L5.293 6 6 5.293l2 2 2-2 .707.707L8 8.707z" id="icon_x5F_fg"/></svg>