<svg xmlns="http://www.w3.org/2000/svg" viewBox="0 0 16 16"><style>.st0{opacity:0}.st0,.st1{fill:#f6f6f6}.st2{fill:none}.st3{fill:#424242}.st4{fill:#f0eff1}</style><g id="outline"><path class="st0" d="M0 0h16v16H0z"/><path class="st1" d="M10.5 2c-.17 0-.334.021-.5.036V0H0v15h10v-2.036c.166.015.33.036.5.036a5.5 5.5 0 0 0 0-11z"/></g><g id="icon_x5F_bg"><path class="st2" d="M10.5 4C8.679 4 7 5.677 7 7.5 7 9.322 8.679 11 10.5 11c1.822 0 3.5-1.678 3.5-3.5C14 5.677 12.322 4 10.5 4zm.001 5L8.5 7l.5-.5L10.501 8 12 6.5l.5.5-1.999 2z"/><path class="st3" d="M8 13H1v1h8v-1.213a5.484 5.484 0 0 1-1-.393V13zM8 2.605a5.484 5.484 0 0 1 1-.393V1H1v1h7v.605zM10.5 3C8.072 3 6 5.071 6 7.5S8.072 12 10.5 12c2.43 0 4.5-2.071 4.5-4.5S12.93 3 10.5 3zm0 8C8.679 11 7 9.322 7 7.5 7 5.677 8.679 4 10.5 4 12.322 4 14 5.677 14 7.5c0 1.822-1.678 3.5-3.5 3.5z"/><path class="st3" d="M10.501 8L9 6.5l-.5.5 2.001 2L12.5 7l-.5-.5z"/></g><g id="icon_x5F_fg"><path class="st2" d="M10.501 8L9 6.5l-.5.5 2.001 2L12.5 7l-.5-.5z"/><path class="st4" d="M5 7.5a5.498 5.498 0 0 1 3-4.895V2H1v11h7v-.606A5.497 5.497 0 0 1 5 7.5z"/><path class="st4" d="M10.5 4C8.679 4 7 5.677 7 7.5 7 9.322 8.679 11 10.5 11c1.822 0 3.5-1.678 3.5-3.5C14 5.677 12.322 4 10.5 4zm.001 5L8.5 7l.5-.5L10.501 8 12 6.5l.5.5-1.999 2z"/></g></svg>