<svg xmlns="http://www.w3.org/2000/svg" viewBox="0 0 16 16"><style>.st0{opacity:0;fill:#f6f6f6}.st1{fill:#424242}.st2{fill:#f0eff1}</style><path class="st0" d="M0 0h16v16H0z" id="outline"/><g id="icon_x5F_bg"><path class="st1" d="M11.291 10.058c-.62 1.558-2.137 2.668-3.91 2.668-2.319 0-4.181-1.88-4.181-4.2s1.862-4.2 4.181-4.2c.176 0 .345.03.517.052l.145-1.186c-.218-.028-.432-.067-.657-.067A5.388 5.388 0 0 0 2 8.525a5.4 5.4 0 0 0 5.4 5.4 5.387 5.387 0 0 0 5.02-3.443l-1.129-.424z"/><path class="st1" d="M8.68 7.325l4.969 1.868c.216-.585.351-1.21.351-1.868C14 4.598 11.96 2.366 9.331 2L8.68 7.325z"/></g><path class="st2" d="M7.382 8.589l.516-4.212c-.171-.021-.34-.052-.517-.052-2.319 0-4.181 1.88-4.181 4.2s1.862 4.2 4.181 4.2c1.773 0 3.29-1.11 3.91-2.668L7.382 8.589z" id="icon_x5F_fg"/></svg>