<svg xmlns="http://www.w3.org/2000/svg" viewBox="0 0 16 16"><style>.st0{opacity:0;fill:#f6f6f6}.st1{fill:#424242}</style><path class="st0" d="M0 0h16v16H0z" id="outline"/><path class="st1" d="M7.426 4.901L6.004 3.479A4.46 4.46 0 0 1 8.775 2.5c2.314 0 4.198 1.753 4.449 4h-2a2.5 2.5 0 0 0-2.449-2c-.498 0-.959.149-1.349.401zM11.225 9.5h2c-.251 2.247-2.135 4-4.449 4a4.456 4.456 0 0 1-2.771-.979L7.426 11.1c.39.251.851.4 1.349.4a2.5 2.5 0 0 0 2.45-2zm-7.471 1.271c-.604-.766-.979-1.72-.979-2.771s.375-2.005.979-2.771l1.422 1.422c-.251.39-.401.851-.401 1.349s.15.959.401 1.35l-1.422 1.421z" id="icon_x5F_bg"/></svg>