<?xml version="1.0" encoding="iso-8859-1"?>
<!-- Generator: Adobe Illustrator 21.0.0, SVG Export Plug-In . SVG Version: 6.00 Build 0)  -->
<svg version="1.1" xmlns="http://www.w3.org/2000/svg" xmlns:xlink="http://www.w3.org/1999/xlink" x="0px" y="0px"
	 viewBox="0 0 16 16" style="enable-background:new 0 0 16 16;" xml:space="preserve">
<style type="text/css">
	.icon_x002D_canvas_x002D_transparent{opacity:0;fill:#F6F6F6;}
	.icon_x002D_vs_x002D_out{fill:#F6F6F6;}
	.icon_x002D_vs_x002D_fg{fill:#F0EFF1;}
	.icon_x002D_vs_x002D_blue{fill:#1BA1E2;}
	.icon_x002D_vs_x002D_action_x002D_blue{fill:#00539C;}
</style>
<g id="canvas">
	<path class="icon_x002D_canvas_x002D_transparent" d="M16,16H0V0h16V16z"/>
</g>
<g id="outline">
	<path class="icon_x002D_vs_x002D_out" d="M11,4c-0.629,0-1.215,0.072-1.76,0.188l0.674-0.669L6.416,0h-4.82l1.988,2H3.5
		C1.57,2,0,3.57,0,5.5S1.57,9,3.5,9H5V7h1v6c0,1.711,2.149,3,5,3c2.851,0,5-1.289,5-3V7C16,5.289,13.851,4,11,4z M3.006,5.578
		C3.002,5.553,3,5.526,3,5.5C3,5.224,3.224,5,3.5,5h0.087L3.006,5.578z"/>
</g>
<g id="iconBg">
	<path class="icon_x002D_vs_x002D_blue" d="M11,5C8.791,5,7,5.896,7,7v6c0,1.104,1.791,2,4,2c2.209,0,4-0.896,4-2V7
		C15,5.896,13.209,5,11,5z M11,8.325C9.001,8.325,7.675,7.527,7.675,7S9.001,5.675,11,5.675c1.999,0,3.325,0.798,3.325,1.325
		S12.999,8.325,11,8.325z"/>
</g>
<g id="iconFg">
	<path class="icon_x002D_vs_x002D_fg" d="M14.325,7c0,0.527-1.326,1.325-3.325,1.325C9.001,8.325,7.675,7.527,7.675,7
		S9.001,5.675,11,5.675C12.999,5.675,14.325,6.473,14.325,7z"/>
</g>
<g id="colorAction">
	<path class="icon_x002D_vs_x002D_action_x002D_blue" d="M8.5,3.515L6,6H4l2.013-2H3.5C2.673,4,2,4.672,2,5.5C2,6.326,2.673,7,3.5,7
		H4v1H3.5C2.119,8,1,6.881,1,5.5S2.119,3,3.5,3h2.488L4,1h2L8.5,3.515z"/>
</g>
</svg>
