<svg xmlns="http://www.w3.org/2000/svg" viewBox="0 0 16 16"><style>.st0{opacity:0}.st0,.st1{fill:#f6f6f6}.st2{fill:#424242}.st3{fill:#00539c}</style><g id="outline"><path class="st0" d="M0 0h16v16H0z"/><path class="st1" d="M16 5v1.27l-4 5.081V16H8v-4.649L5 7.54V9H3.5C1.57 9 0 7.43 0 5.5S1.57 2 3.5 2h.084L1.596 0h4.82l3.498 3.519L8.425 5H16z"/></g><path class="st2" d="M15 6l-4 5v4H9v-4L5.8 7h.613l1.006-1H15z" id="icon_x5F_bg"/><path class="st3" d="M6 1H4l1.988 2H3.5a2.5 2.5 0 1 0 0 5H4V7h-.5a1.501 1.501 0 0 1 0-3h2.513L4 6h2l2.5-2.485L6 1z" id="color_x5F_action"/></svg>