<svg xmlns="http://www.w3.org/2000/svg" viewBox="0 0 16 16"><style>.icon-canvas-transparent{opacity:0;fill:#f6f6f6}.icon-vs-out{fill:#f6f6f6}.icon-vs-bg{fill:#424242}.icon-vs-fg{fill:#f0eff1}.icon-vs-action-blue{fill:#00539c}</style><path class="icon-canvas-transparent" d="M16 16H0V0h16v16z" id="canvas"/><path class="icon-vs-out" d="M8.634 10.779L15.803 6 7 .131V0H3.086l-3 3h1.52a4.703 4.703 0 0 0-.525 3.181l.15.819H2v2h1v.723l-1.949 3.248a1.977 1.977 0 0 0-.025 2.015A1.977 1.977 0 0 0 2.766 16h5.468c.73 0 1.38-.379 1.74-1.015a1.977 1.977 0 0 0-.025-2.015l-1.315-2.191zM7 6H4.914L7 3.914V6z" id="outline"/><path class="icon-vs-bg" d="M8 6V2l6 4-5.89 3.927L8 9.734V9h1V6H8zm1.091 7.486A1 1 0 0 1 8.234 15H2.766a1 1 0 0 1-.857-1.514L4 10V8H3V7h5v1H7v2l2.091 3.486zM6.968 12L6 10.303V8H5v2.303L4.032 12h2.936z" id="iconBg"/><path class="icon-vs-fg" d="M5 8h1v2.303L6.968 12H4.032L5 10.303V8z" id="iconFg"/><path class="icon-vs-action-blue" d="M3.5 1H6v2.5l-1 1V3a2.564 2.564 0 0 0-2 2.5c0 .172.021.338.053.5h-.989a3.737 3.737 0 0 1 1.955-4H2.5l1-1z" id="colorAction"/></svg>