<?xml version="1.0" encoding="utf-8"?>
<!-- Generator: Adobe Illustrator 21.0.0, SVG Export Plug-In . SVG Version: 6.00 Build 0)  -->
<svg version="1.1" xmlns="http://www.w3.org/2000/svg" xmlns:xlink="http://www.w3.org/1999/xlink" x="0px" y="0px"
	 viewBox="0 0 16 16" style="enable-background:new 0 0 16 16;" xml:space="preserve">
<style type="text/css">
	.icon_x002D_canvas_x002D_transparent{opacity:0;fill:#F6F6F6;}
	.icon_x002D_vs_x002D_out{fill:#F6F6F6;}
	.icon_x002D_vs_x002D_action_x002D_blue{fill:#00539C;}
</style>
<g id="canvas">
	<path class="icon_x002D_canvas_x002D_transparent" d="M16,0v16H0L0,0L16,0z"/>
</g>
<g id="outline">
	<path class="icon_x002D_vs_x002D_out" d="M5.793,0.879l2.828,2.828L7.328,5H10.5c3.033,0,5.5,2.467,5.5,5.5
		c0,3.032-2.467,5.5-5.5,5.5h-1v-4h1c0.827,0,1.5-0.673,1.5-1.5C12,9.673,11.327,9,10.5,9H7.328l1.293,1.293l-2.828,2.828L0,7.328
		l0-0.656L5.793,0.879z"/>
</g>
<g id="iconBg">
	<path class="icon_x002D_vs_x002D_action_x002D_blue" d="M5.793,2.293l1.414,1.414L4.914,6H10.5c2.481,0,4.5,2.019,4.5,4.5
		c0,2.481-2.019,4.5-4.5,4.5v-2c1.378,0,2.5-1.121,2.5-2.5C13,9.121,11.878,8,10.5,8H4.914l2.293,2.293l-1.414,1.414L1.086,7
		L5.793,2.293z"/>
	<g>
	</g>
	<g>
	</g>
	<g>
	</g>
	<g>
	</g>
	<g>
	</g>
	<g>
	</g>
</g>
</svg>
