<svg xmlns="http://www.w3.org/2000/svg" viewBox="0 0 16 16"><style>.icon-canvas-transparent{opacity:0;fill:#f6f6f6}.icon-vs-out{fill:#f6f6f6}.icon-vs-bg{fill:#424242}.icon-vs-red{fill:#e51400}.icon-vs-yellow{fill:#fc0}.icon-vs-green{fill:#393}.icon-white{fill:#fff}.icon-vs-action-blue{fill:#00539c}</style><path class="icon-canvas-transparent" d="M16 16H0V0h16v16z" id="canvas"/><path class="icon-vs-out" d="M16 8c0 4.411-3.589 8-8 8a2.803 2.803 0 0 1-2.8-2.8c0-.833.272-1.629.766-2.241a.596.596 0 0 0 .101-.359.665.665 0 0 0-.387-.6h-.566c-.024.012-.054.02-.072.035A3.58 3.58 0 0 1 2.8 10.8 2.803 2.803 0 0 1 0 8c0-.963.18-1.883.493-2.738L0 4.754v-.497L4.084.232l.535.528A7.947 7.947 0 0 1 8 0c4.411 0 8 3.589 8 8z" id="outline"/><path class="icon-white" d="M4.425 8.119L5 7.414v.551c-.2.029-.392.083-.575.154zM8 2c-.638 0-1.253.102-1.83.288l.067.066L5.621 3H6.5C8.43 3 10 4.57 10 6.5a3.503 3.503 0 0 1-2.099 3.203c.101.282.166.581.166.897a2.57 2.57 0 0 1-.544 1.614 1.593 1.593 0 0 0-.323.986.8.8 0 0 0 .8.8c3.309 0 6-2.691 6-6s-2.691-6-6-6zM2.103 6.92A5.92 5.92 0 0 0 2 8c0 .441.359.8.8.8.331 0 .629-.101.874-.262L2.103 6.92z" id="iconFg"/><g id="iconBg"><path class="icon-vs-green" d="M10.625 4.5a.875.875 0 1 0 0 1.75.875.875 0 0 0 0-1.75z"/><path class="icon-vs-yellow" d="M11.5 8a.875.875 0 1 0 0 1.75.875.875 0 0 0 0-1.75z"/><path class="icon-vs-red" d="M9.75 10.625a.875.875 0 1 0 0 1.75.875.875 0 0 0 0-1.75z"/><path class="icon-vs-bg" d="M5 8.995c-.219.052-.424.13-.586.261A2.575 2.575 0 0 1 2.8 9.8C1.808 9.8 1 8.992 1 8c0-.67.1-1.317.277-1.931l.826.851A5.92 5.92 0 0 0 2 8c0 .441.359.8.8.8.331 0 1.625-.681 1.625-.681.183-.071.375-.125.575-.154v1.03zM8 1c-.926 0-1.808.185-2.617.512l.787.776A5.956 5.956 0 0 1 8 2c3.309 0 6 2.691 6 6s-2.691 6-6 6a.8.8 0 0 1-.8-.8c0-.372.118-.731.323-.986a2.573 2.573 0 0 0 .544-1.614c0-.316-.065-.615-.166-.897-.301.132-.627.21-.964.253.083.198.13.416.13.644 0 .378-.115.728-.323.987A2.572 2.572 0 0 0 6.2 13.2c0 .992.808 1.8 1.8 1.8 3.859 0 7-3.141 7-7 0-3.86-3.141-7-7-7z"/></g><g id="colorAction"><path class="icon-vs-action-blue" d="M4.146 1.646l.707.707L3.207 4H6.5C7.878 4 9 5.122 9 6.5S7.878 9 6.5 9V8C7.327 8 8 7.327 8 6.5S7.327 5 6.5 5H3.207l1.646 1.646-.707.708L1.293 4.5l2.853-2.854z"/></g></svg>