<svg xmlns="http://www.w3.org/2000/svg" viewBox="0 0 16 16"><style>.st0{opacity:0}.st0,.st1{fill:#f6f6f6}.st2{fill:#424242}.st3{fill:#00539c}.st4{fill:#f0eff1}</style><g id="outline"><path class="st0" d="M0 0h16v16H0z"/><path class="st1" d="M16 4v12H2V8.634C.823 8.073 0 6.889 0 5.5 0 3.57 1.57 2 3.5 2h.209L2 0h5l3 3.52-.414.48H16z"/></g><path class="st2" d="M11.028 8.898L13 11.66V13H5v-.793l1.446-1.445L7.601 12.3a.485.485 0 0 0 .42.2.504.504 0 0 0 .403-.234l2.604-3.368zM8.724 5l-.862 1H14v8H4V9h-.5c-.171 0-.335-.027-.5-.051V15h12V5H8.724zM6.146 9.646a.497.497 0 0 1 .753.054l1.063 1.417 2.614-3.382a.5.5 0 0 1 .831-.026L13 9.939V7H5v3.793l1.146-1.147z" id="icon_x5F_bg"/><path class="st3" d="M6 1H4l1.988 2H3.5a2.5 2.5 0 1 0 0 5H4V7h-.5C2.673 7 2 6.327 2 5.5S2.673 4 3.5 4h2.513L4 6h2l2.5-2.485L6 1z" id="color_x5F_action"/><path class="st4" d="M13 7v2.939l-1.593-2.23a.498.498 0 0 0-.831.026l-2.614 3.382L6.899 9.7a.493.493 0 0 0-.363-.198.492.492 0 0 0-.39.145L5 10.793V9H4v5h10V6H7.862L7 7h6zm0 6H5v-.793l1.446-1.445L7.601 12.3a.485.485 0 0 0 .42.2.504.504 0 0 0 .403-.234l2.604-3.367L13 11.66V13z" id="icon_x5F_fg"/></svg>