<svg xmlns="http://www.w3.org/2000/svg" viewBox="0 0 16 16"><style>.st0{opacity:0}.st0,.st1{fill:#f6f6f6}.st2{fill:#424242}.st3{fill:#00539c}.st4{fill:#fc0}</style><g id="outline"><path class="st0" d="M0 0h16v16H0z"/><path class="st1" d="M8.309 15.5l-.75-1.5 1.852-3.704-3.058 3.058c-.061.061-.613.591-1.391.591-.331 0-.828-.102-1.316-.591-1.071-1.07-.468-2.239 0-2.707l.854-.854-4-4V1.207l2 2V.5h3v2.707l2-2v1.82l.801-.605A4.454 4.454 0 0 1 11 1.5c2.481 0 4.5 2.019 4.5 4.5 0 1.412-.659 2.719-1.809 3.585l-.333.251L15.441 14l-.75 1.5H8.309z"/><path class="st1" d="M5 1v3.414l1.707-1.707L7 2.414v1.617l1.603-1.21A3.955 3.955 0 0 1 11 2c2.206 0 4 1.794 4 4 0 1.254-.587 2.415-1.609 3.186l-.665.501.372.745L14.882 14l-.5 1H8.618l-.5-1 .362-.725 2.756-5.512-4.357 4.357L6 13c-.018.019-.451.444-1.037.444-.344 0-.668-.149-.963-.444-.988-.988-.041-1.959 0-2l.5-.5.707-.707-.707-.707-3.5-3.5V2.414l.293.293L3 4.414V1h2m3-1L6 2V0H2v2L0 0v6l3.793 3.793-.5.5c-.686.686-1.252 2.162 0 3.414.609.609 1.244.737 1.67.737.959 0 1.621-.614 1.744-.737l.879-.879L7 14l1 2h7l1-2-2.008-4.016C15.204 9.071 16 7.634 16 6a5 5 0 0 0-5-5c-1.131 0-2.162.39-3 1.022V0z"/></g><path class="st2" d="M15 6a3.971 3.971 0 0 1-1.465 3.07L12.5 7H12l2.641-2.641C14.867 4.861 15 5.414 15 6zm-2.359-3.641A3.984 3.984 0 0 0 11 2a3.974 3.974 0 0 0-3 1.38V6l-.892.892c.061.259.144.511.251.749L4 11s-1 1 0 2 2 0 2 0l3-3 1.5-3H12l-2-2 2.641-2.641z" id="icon_x5F_bg"/><path class="st3" d="M4 8L1 5V3l2 2V1h2v4l2-2v2L4 8z" id="color_x5F_action"/><path class="st4" d="M11.891 8.016h-.781l-3.016 6 .515.984h5.766l.484-1-2.968-5.984zM12 14h-1v-1h1v1zm0-2h-1v-2h1v2z" id="not_x5F_bg"/><path d="M12 12h-1v-2h1v2zm0 1h-1v1h1v-1z" id="not_x5F_fg"/></svg>