<svg xmlns="http://www.w3.org/2000/svg" viewBox="0 0 16 16"><style>.st0{opacity:0}.st0,.st1{fill:#f6f6f6}.st2{fill:#424242}.st3{fill:#f0eff1}</style><g id="outline"><path class="st0" d="M0 0h16v16H0z"/><path class="st1" d="M16 0H0v16h11v-2h5z"/></g><g id="icon_x5F_bg"><path class="st2" d="M3 8h2V6H1v9h4v-2H3z"/><path class="st2" d="M4 9h3v3H4z"/><path class="st2" d="M6 8h1V7h2v2H8v1h2V6H6zM8 13H6v2h4v-4H8z"/><path class="st2" d="M1 1v4h1V4h12v8h-3v1h4V1z"/></g><path class="st3" d="M2 4v1h9v7h3V4z" id="icon_x5F_fg"/></svg>