<svg xmlns="http://www.w3.org/2000/svg" viewBox="0 0 16 16"><style>.icon-canvas-transparent{opacity:0;fill:#f6f6f6}.icon-vs-out{fill:#f6f6f6}.icon-vs-bg{fill:#424242}.icon-vs-fg{fill:#f0eff1}</style><path class="icon-canvas-transparent" d="M16 0v16H0V0h16z" id="canvas"/><path class="icon-vs-out" d="M16 3h-1.647a2.907 2.907 0 0 0-2.167-3h-1.489c-.844.246-1.381.878-1.694 1.377C8.689.877 8.153.246 7.31 0H5.825a2.88 2.88 0 0 0-2.171 3H2v5H0v8h8v-1h8V3z" id="outline"/><path class="icon-vs-fg" d="M4 5h4.5v3H4V5zm5.5 0v3H14V5H9.5zM8 13h.5V9H8v4zm1.5 0H14V9H9.5v4z" id="iconFg"/><g id="iconBg"><path class="icon-vs-bg" d="M12.9 4c.225-.264.377-.556.432-.878A1.913 1.913 0 0 0 11.769.919c-1.18-.198-1.771.656-2.156 1.423-.075.149-.29.629-.519 1.14l-.091.203-.097-.217a50.5 50.5 0 0 0-.511-1.126C8.009 1.575 7.42.721 6.238.919c-.503.085-.943.361-1.238.777s-.411.923-.326 1.426c.055.322.206.614.432.878H3v4h1V5h4.5v3H8v1h.5v4H8v1h7V4h-2.1zM6.819 4a7.356 7.356 0 0 1-.643-.366c-.305-.209-.473-.431-.515-.679a.908.908 0 0 1 .744-1.05c.332-.059.638-.026 1.095.886.072.143.274.598.492 1.085L8.048 4H6.819zm3.188-.11c.22-.493.426-.955.499-1.099.458-.913.764-.94 1.096-.885a.91.91 0 0 1 .744 1.049c-.042.249-.211.471-.516.68-.147.1-.388.232-.645.366H9.957l.05-.111zM14 13H9.5V9H14v4zm0-5H9.5V5H14v3zM3 11h2v2H3v-2zm3 2h1v2H1V9h2v1H2v4h4v-1zM4 9h3v3H6v-2H4V9z"/></g></svg>