<svg xmlns="http://www.w3.org/2000/svg" viewBox="0 0 16 16"><style>.st0{opacity:0}.st0,.st1{fill:#f6f6f6}.st2{fill:#424242}.st3{fill:#f0eff1}</style><g id="outline"><path class="st0" d="M0 0h16v16H0z"/><path class="st1" d="M16 5.011v6l-7 3.5-5-2.5V9H2l1.709-2H3.5C1.57 7 0 5.43 0 3.5S1.57 0 3.5 0H5v2h2l1.512 1.754L11 2.511l5 2.5z"/></g><path class="st2" d="M15 6.011v4l-6 3-4-2V9h2l1.189-1.395.811.406 4-2-2-1-1.045.522L10 5.48l-.584-.677L11 4.011l4 2zm-6.5-.527L6 3H4l2.013 2H3.5C2.673 5 2 4.327 2 3.5S2.673 2 3.5 2H4V1h-.5a2.5 2.5 0 1 0 0 5h2.488L4 8h2l2.5-2.516z" id="icon_x5F_bg"/><path class="st3" d="M11 5.011l-1.045.522-1.766 2.072.811.406 4-2z" id="icon_x5F_fg"/></svg>