<svg xmlns="http://www.w3.org/2000/svg" viewBox="0 0 16 16"><style>.st0{opacity:0}.st0,.st1{fill:#f6f6f6}.st2{fill:#424242}.st3{fill:#f0eff1}</style><g id="outline"><path class="st0" d="M0 0h16v16H0z"/><path class="st1" d="M16 0H5v4.355A3.433 3.433 0 0 0 3.5 4C1.57 4 0 5.57 0 7.5v5c0 1.533.997 3.027 2.372 3.5H12v-5h4V0z"/></g><g id="icon_x5F_bg"><path class="st2" d="M9 4h3v3H9z"/><path class="st2" d="M6.949 7H8V3h2V1H6v4.083c.494.517.842 1.175.949 1.917zM11 1v2h1V2h2v2h-1v1h2V1zM13 8h-1v2h3V6h-2z"/><path class="st2" d="M6 8v-.5a2.5 2.5 0 1 0-5 0v5a2.494 2.494 0 0 0 2.372 2.487V15H11V8H6zm4 6H3.507v-.007L3.5 14h-.005A1.5 1.5 0 0 1 2 12.5c0-.072.012-.141.021-.211C2.124 11.561 2.744 11 3.5 11s1.376.561 1.479 1.289L5 13h1V9h4v5z"/><path class="st2" d="M7 12h2v1H7zM7 10h2v1H7z"/></g><path class="st3" d="M6 9v4H4.908c.056-.157.092-.324.092-.5A1.5 1.5 0 1 0 3.5 14H10V9H6zm3 4H7v-1h2v1zm0-2H7v-1h2v1z" id="icon_x5F_fg"/></svg>