<svg xmlns="http://www.w3.org/2000/svg" viewBox="0 0 16 16"><style>.st0{opacity:0}.st0,.st1{fill:#f6f6f6}.st2{fill:#424242}.st3{fill:#00539c}</style><g id="outline"><path class="st0" d="M0 0h16v16H0z"/><path class="st1" d="M11 3c-1.131 0-2.162.39-3 1.022V0L6 2V0H2v2L0 0v6l4 4 2-2a4.9 4.9 0 0 0 .156 1.182c.016.068.025.136.044.204l-2.907 2.907c-.686.686-1.252 2.162 0 3.414.12.12.24.208.36.293h2.691c.189-.128.315-.246.362-.293L9.614 12.8c.067.019.136.028.204.044.103.025.205.05.311.068.288.053.578.088.871.088a5 5 0 1 0 0-10z"/></g><path class="st2" d="M15 8a4 4 0 0 1-4 4 3.984 3.984 0 0 1-1.641-.359L6 15s-1 1-2 0 0-2 0-2l3.359-3.359A3.984 3.984 0 0 1 7 8a4 4 0 0 1 4-4c.586 0 1.139.133 1.641.359L10 7l2 2 2.641-2.641C14.867 6.861 15 7.414 15 8z" id="icon_x5F_bg"/><path class="st3" d="M4 8L1 5V3l2 2V1h2v4l2-2v2L4 8z" id="color_x5F_action"/></svg>