<svg xmlns="http://www.w3.org/2000/svg" viewBox="0 0 16 16"><style>.st0{opacity:0}.st0,.st1{fill:#f6f6f6}.st2{fill:#424242}.st3{fill:#f0eff1}</style><g id="Outline"><path class="st0" d="M0 0h16v16H0z"/><path class="st1" d="M10 0c-.95 0-1.414.346-1.905.712L8 .784 7.905.712C7.414.346 6.95 0 6 0H0v16h8v-3h1.738l.217-.705c.092-.295.092-.295.779-.295H16V0h-6z"/></g><g id="iconBg"><path class="st2" d="M10 1c-.874 0-1 .364-2 .999C7 1.364 6.874 1 6 1H1v6h1V2h3.372C6.355 2 7 2.508 7 2.967V7h1v5h1c.309-1 .967-1 1.734-1H15V1h-5zm4 9h-3.266c-.723 0-.734-.012-1.734.328V2.967C9 2.508 9.645 2 10.628 2H14v8z"/><path class="st2" d="M1 8v7h6V8H1zm5 6H2V9h4v5z"/></g><g id="iconFg"><path class="st3" d="M9 2.967v7.361c1-.34 1.011-.328 1.734-.328H14V2h-3.372C9.645 2 9 2.508 9 2.967zM7 7V2.967C7 2.508 6.355 2 5.372 2H2v5h5zM2 9h4v5H2z"/></g></svg>