<svg xmlns="http://www.w3.org/2000/svg" viewBox="0 0 16 16"><style>.st0{opacity:0}.st0,.st1{fill:#f6f6f6}.st2{fill:#424242}.st3{fill:#00539c}.st4{fill:#e51400}.st5{fill:#fff}</style><g id="outline"><path class="st0" d="M0 0h16v16H0z"/><path class="st1" d="M15.111 8.838A4.46 4.46 0 0 1 16 11.5a4.5 4.5 0 0 1-4.5 4.5 4.49 4.49 0 0 1-4.191-2.894l-.602.601c-.123.123-.785.737-1.744.737-.426 0-1.061-.128-1.67-.737-1.252-1.252-.686-2.728 0-3.414l.5-.5L0 6V0l2 2V0h4v2l2-2v2.022A4.962 4.962 0 0 1 11 1a5 5 0 0 1 5 5 4.972 4.972 0 0 1-.889 2.838z"/></g><path class="st2" d="M15 6c0 .767-.227 1.476-.601 2.084A4.46 4.46 0 0 0 11.5 7 4.5 4.5 0 0 0 7 11.5c0 .155.03.303.046.454L6 13s-1 1-2 0 0-2 0-2l3.359-3.359a4.145 4.145 0 0 1-.251-.749L8 6V3.38A3.974 3.974 0 0 1 11 2c.586 0 1.139.133 1.641.359L10 5l2 2 2.641-2.641C14.867 4.861 15 5.414 15 6z" id="icon_x5F_bg"/><path class="st3" d="M4 8L1 5V3l2 2V1h2v4l2-2v2L4 8z" id="color_x5F_action"/><path class="st4" d="M11.5 8a3.5 3.5 0 1 0 0 7 3.5 3.5 0 0 0 0-7zm1.854 4.646l-.707.707-1.147-1.146-1.146 1.147-.707-.707 1.147-1.146-1.147-1.146.707-.707 1.146 1.147 1.146-1.147.707.707-1.146 1.145 1.147 1.146z" id="not_x5F_bg"/><path class="st5" d="M13.354 10.354l-.708-.708-1.146 1.147-1.146-1.147-.708.708 1.147 1.146-1.147 1.146.708.708 1.146-1.147 1.146 1.147.708-.708-1.147-1.146z" id="not_x5F_fg"/></svg>