<svg xmlns="http://www.w3.org/2000/svg" viewBox="0 0 16 16" enable-background="new 0 0 16 16"><style type="text/css">.icon-canvas-transparent{opacity:0;fill:#F6F6F6;} .icon-vs-out{fill:#F6F6F6;} .icon-vs-bg{fill:#424242;} .icon-vs-fg{fill:#F0EFF1;}</style><path class="icon-canvas-transparent" d="M16 16h-16v-16h16v16z" id="canvas"/><path class="icon-vs-out" d="M12.621 0h-6.621v2h-2v5h-4v9h9v-2h5v-2h2v-8.622l-3.379-3.378zm2.379 11h-2v2h-4v-6h-4v-4h2v-2h5.207l2.793 2.792v7.208z" id="outline"/><path class="icon-vs-fg" d="M9 7h3v5h-3v-5zm-3-3v3h3v-3h-3zm4 2h1.793l-1.793-1.793v1.793zm1.793-4h-3.793v1h2.207l2.793 2.792v4.208h1v-5.793l-2.207-2.207zm-9.793 7v5h5v-5h-5zm4 4h-1v-1.293l-1.646 1.646-.707-.707 1.646-1.646h-1.293v-1h3v3z" id="iconFg"/><path class="icon-vs-bg" d="M12.207 1h-5.207v2h-2v4h1v-3h3v3h3v5h-3v1h4v-2h2v-7.208l-2.793-2.792zm-2.207 5v-1.793l1.793 1.793h-1.793zm4 4h-1v-4.208l-2.793-2.792h-2.207v-1h3.793l2.207 2.207v5.793zm-8 0v3h-1v-1.293l-1.646 1.646-.707-.707 1.646-1.646h-1.293v-1h3zm2 5h-7v-7h7v7zm-6-1h5v-5h-5v5z" id="iconBg"/></svg>