<svg xmlns="http://www.w3.org/2000/svg" viewBox="0 0 16 16"><style>.st0{opacity:0}.st0,.st1{fill:#f6f6f6}.st2{fill:#00539c}.st3{fill:#424242}.st4{fill:#f0eff1}</style><g id="outline"><path class="st0" d="M0 0h16v16H0z"/><path class="st1" d="M14.414 5H8.425l1.489-1.48L6.416 0h-4.82l1.988 2H3.5C1.57 2 0 3.57 0 5.5S1.57 9 3.5 9H4v5.414L5.586 16h8.828L16 14.414V6.586L14.414 5z"/></g><g id="icon_x5F_bg"><path class="st2" d="M8 9h4v1H8zM8 11h4v1H8z"/><path class="st3" d="M14 6H7.418L6.413 7H5v7l1 1h8l1-1V7l-1-1zm0 7.586l-.414.414H6.414L6 13.586V7.414L6.414 7h7.172l.414.414v6.172z"/></g><path class="st2" d="M6 1H4l1.988 2H3.5a2.5 2.5 0 1 0 0 5H4V7h-.5C2.673 7 2 6.327 2 5.5S2.673 4 3.5 4h2.513L4 6h2l2.5-2.485L6 1z" id="color_x5F_action"/><path class="st4" d="M13.586 7H6.414L6 7.414v6.172l.414.414h7.172l.414-.414V7.414L13.586 7zM12 12H8v-1h4v1zm0-2H8V9h4v1z" id="icon_x5F_fg"/></svg>