<svg xmlns="http://www.w3.org/2000/svg" viewBox="0 0 16 16"><style>.st0{opacity:0}.st0,.st1{fill:#f6f6f6}.st2{fill:#424242}.st3{fill:#00539c}.st4{fill:#f0eff1;stroke:#424242;stroke-width:.15;stroke-miterlimit:10}</style><g id="outline"><path class="st0" d="M0 0h16v16H0z"/><path class="st1" d="M9.129 16h2.374L16 12.854V6.242L10.109 3.27l-.3.145L6.416 0h-4.82l1.988 2H3.5C1.57 2 0 3.57 0 5.5S1.57 9 3.5 9H4v3.899L9.129 16zM3.006 5.578A.503.503 0 0 1 3.5 5h.087l-.581.578z"/></g><path class="st2" d="M10.057 4.396L7.972 5.45 6.413 7H5.215v5.348l5.102 3.213 4.383-3.213V6.845l-4.643-2.449zM10 14.436l-.031.021v.02l-.012-.01-.01.01v-.02l-3.959-2.58V7.729L10 9.969v4.467zm.258-5.156L6.389 7.074 10 5.24l3.838 1.891-3.58 2.149zm3.736 2.724l-3.105 2.237V9.926l3.105-1.895v3.973z" id="icon_x5F_bg"/><path class="st3" d="M6 1H4l1.988 2H3.5a2.5 2.5 0 1 0 0 5H4V7h-.5C2.673 7 2 6.327 2 5.5S2.673 4 3.5 4h2.513L4 6h2l2.5-2.484L6 1z" id="color_x5F_action"/><g id="icon_x5F_fg"><path class="st4" d="M10 5.24l3.838 1.891-3.58 2.149-3.869-2.206zM10 14.436l-.031.021v.02l-.012-.01-.01.01v-.02l-3.959-2.58V7.729L10 9.969zM13.994 12.004l-3.105 2.237V9.926l3.105-1.895z"/></g></svg>