<svg xmlns="http://www.w3.org/2000/svg" viewBox="0 0 16 16"><style>.st0{opacity:0}.st0,.st1{fill:#f6f6f6}.st2{fill:#424242}.st3{fill:#00539c}.st4{fill:#f0eff1}</style><g id="outline"><path class="st0" d="M0 0h16v16H0z"/><path class="st1" d="M16 11.5a3.5 3.5 0 0 1-3.5 3.5c-1.394 0-2.436-.82-3-2h-1A2.5 2.5 0 0 1 4 11.5c0-.567.196-1.084.515-1.504L1 7V2l2 1.709V3.5C3 1.57 4.57 0 6.5 0S10 1.57 10 3.5V5H8v2L5.324 9.307C5.676 9.117 6.072 9 6.5 9a2.51 2.51 0 0 1 2 1h1c.564-1.18 1.606-2 3-2a3.5 3.5 0 0 1 3.5 3.5z"/></g><path class="st2" d="M15 11.5a2.5 2.5 0 0 1-4.95.5H7.908A1.495 1.495 0 0 1 5 11.5a1.495 1.495 0 1 1 2.908-.5h2.142a2.5 2.5 0 0 1 4.95.5zm-1 0a1.5 1.5 0 1 0-3.001.001A1.5 1.5 0 0 0 14 11.5z" id="icon_x5F_bg"/><path class="st3" d="M2 6V4l2 1.988V3.5a2.5 2.5 0 1 1 5 0V4H8v-.5C8 2.673 7.327 2 6.5 2S5 2.673 5 3.5v2.513L7 4v2L4.515 8.5 2 6z" id="color_x5F_action"/><circle class="st4" cx="12.5" cy="11.5" r="1.5" id="icon_x5F_fg"/></svg>