<svg xmlns="http://www.w3.org/2000/svg" viewBox="0 0 16 16"><style>.icon-canvas-transparent{opacity:0;fill:#f6f6f6}.icon-vs-out{fill:#f6f6f6}.icon-vs-fg{fill:#f0eff1}.icon-vs-blue{fill:#1ba1e2}</style><path class="icon-canvas-transparent" d="M0 0h16v16H0z" id="canvas"/><path class="icon-vs-out" d="M1 0h14v16H1z" id="outline"/><path class="icon-vs-fg" d="M9 10H7V9c0-1.103.897-2 2-2V5.203C8.841 5.115 8.495 5 8 5s-.841.115-1 .203V6H5V5c0-1.159 1.262-2 3-2s3 .841 3 2v2c0 1.103-.898 2-2 2v1zm0 1H7v2h2v-2z" id="iconBg"/><path class="icon-vs-blue" d="M2 1v14h12V1H2zm7 12H7v-2h2v2zm2-6c0 1.103-.898 2-2 2v1H7V9c0-1.103.897-2 2-2V5.203C8.841 5.115 8.495 5 8 5s-.841.115-1 .203V6H5V5c0-1.159 1.262-2 3-2s3 .841 3 2v2z" id="colorImportance"/></svg>