<svg xmlns="http://www.w3.org/2000/svg" viewBox="0 0 16 16"><style>.st0{opacity:0}.st0,.st1{fill:#f6f6f6}.st2{fill:#424242}.st3{fill:#f0eff1}</style><g id="outline"><path class="st0" d="M0 0h16v16H0z"/><path class="st1" d="M16 0H0v15h1.703c.77.616 1.734 1 2.797 1s2.027-.384 2.797-1H16V0z"/></g><g id="icon_x5F_bg"><circle class="st2" cx="6" cy="4" r="1"/><circle class="st2" cx="9" cy="6" r="1"/><circle class="st2" cx="12" cy="9" r="1"/><path class="st2" d="M4.99 7.049C4.991 7.032 5 7.018 5 7a1 1 0 1 0-2 0c0 .092.029.175.052.259A4.458 4.458 0 0 1 4.5 7c.168 0 .327.031.49.049z"/><path class="st2" d="M1 1v7.703a4.5 4.5 0 0 1 1-.943V2h12v11H8.725a4.51 4.51 0 0 1-.484 1H15V1H1z"/><path class="st2" d="M7 9l-.028.023A3.5 3.5 0 0 0 1 11.5c0 .952.383 1.814 1 2.444V14h.056a3.485 3.485 0 0 0 4.888 0H7v-.056a3.492 3.492 0 0 0-.023-4.917L7 9zm0 2.5c0 .565-.195 1.081-.511 1.5H2.511A2.482 2.482 0 0 1 2 11.5 2.5 2.5 0 0 1 4.5 9c.656 0 1.249.258 1.694.672L4.58 11.017C4.553 11.012 4.528 11 4.5 11a.5.5 0 1 0 .5.5c0-.028-.012-.053-.016-.08l1.345-1.614c.413.446.671 1.038.671 1.694z"/></g><g id="icon_x5F_fg"><path class="st3" d="M4.984 11.42c.004.027.016.052.016.08a.5.5 0 1 1-.5-.5c.028 0 .053.012.081.017l1.614-1.345A2.483 2.483 0 0 0 4.5 9 2.5 2.5 0 0 0 2 11.5c0 .565.195 1.081.511 1.5h3.978c.316-.419.511-.935.511-1.5 0-.656-.258-1.248-.671-1.694L4.984 11.42z"/><path class="st3" d="M2 2v5.76a4.48 4.48 0 0 1 1.052-.5C3.029 7.175 3 7.092 3 7a1 1 0 1 1 2 0c0 .018-.009.032-.01.049C7.242 7.296 9 9.183 9 11.5c0 .529-.108 1.028-.275 1.5H14V2H2zm4 3a1 1 0 1 1 0-2 1 1 0 0 1 0 2zm3 2a1 1 0 1 1 0-2 1 1 0 0 1 0 2zm3 3a1 1 0 1 1 0-2 1 1 0 1 1 0 2z"/></g></svg>