<svg xmlns="http://www.w3.org/2000/svg" width="16" height="16"><style type="text/css">.icon-canvas-transparent{opacity:0;fill:#F6F6F6;} .icon-vs-out{fill:#F6F6F6;} .icon-vs-bg{fill:#424242;}</style><path class="icon-canvas-transparent" d="M16 16h-16v-16h16v16z" id="canvas"/><path class="icon-vs-out" d="M16 5v1.515l-4.21 3.008 2.082 6.477h-1.752l-4.12-3.662-4.12 3.662h-1.752l2.083-6.478-4.211-3.007v-1.515h5.665l1.608-5h1.457l1.607 5h5.663z" id="outline"/><path class="icon-vs-bg" d="M15 6h-5.393l-1.606-5-1.607 5h-5.394l4.387 3.133-1.887 5.867 4.5-4 4.5 4-1.886-5.867 4.386-3.133zm-7 3.662l-2.645 2.896 1.419-3.494-3.161-2.064h3.51l.942-3.364.813 3.364h3.51l-3.13 1.968 1.498 3.48-2.756-2.786z" id="iconBg"/></svg>