<svg xmlns="http://www.w3.org/2000/svg" width="16" height="16"><style type="text/css">.icon-canvas-transparent{opacity:0;fill:#F6F6F6;} .icon-vs-out{fill:#F6F6F6;} .icon-vs-bg{fill:#424242;}</style><path class="icon-canvas-transparent" d="M16 16h-16v-16h16v16z" id="canvas"/><path class="icon-vs-out" d="M8 16c-4.411 0-8-3.589-8-8s3.589-8 8-8 8 3.589 8 8-3.589 8-8 8z" id="outline"/><g id="iconBg"><path class="icon-vs-bg" d="M8 1c-3.866 0-7 3.134-7 7s3.134 7 7 7 7-3.134 7-7-3.134-7-7-7zm0 13c-3.309 0-6-2.691-6-6s2.691-6 6-6 6 2.691 6 6-2.691 6-6 6zm3-7.5c0 .5-.447.5-1 .5-.553 0-1 0-1-.5 0-1.104 1-1.5 1-1.5s1 .396 1 1.5zm-.057 2.5c-.457 1-1.644 2.058-2.943 2.058s-2.455-1.058-2.899-2.058h-.952c.455 2 1.999 2.975 3.851 2.975 1.853 0 3.396-.975 3.851-2.975h-.908zm-4.943-4s-1 .396-1 1.5c0 .5.447.5 1 .5l1-.5c0-1.104-1-1.5-1-1.5z"/></g></svg>