<svg xmlns="http://www.w3.org/2000/svg" viewBox="0 0 16 16"><style>.icon-canvas-transparent{opacity:0;fill:#f6f6f6}.icon-vs-out{fill:#f6f6f6}.icon-vs-bg{fill:#424242}.icon-vs-fg{fill:#f0eff1}</style><path class="icon-canvas-transparent" d="M16 16H0V0h16v16z" id="canvas"/><path class="icon-vs-out" d="M16 1.001V10h-3.003v4.097l-2.128-1.576v1.465l-5.005.009L3.664 16h-1.67v-1.975H0V6.058h3V1.001h13z" id="outline"/><path class="icon-vs-bg" d="M10 11.877V13H5.915L3 14.931V13H1V7h2v1H2v4h2v1.085L5.501 12H9v-.863l1 .74zM9 3h5v5h-3v2.179L9.112 8.292 8.818 8H5V3M4 2v7h4.404L12 11.972V9h3V2H4zm9 3H6V4h7v1zm-2 2H6V6h5v1z" id="iconBg"/><g id="iconFg"><path class="icon-vs-fg" d="M9 11.137V12H5.501L4 13.085V12H2V8h1v1.999h4.464L9 11.137zM9 3H5v5h3.818l.294.292L11 10.179V8h3V3H9zm2 4H6V6h5v1zm2-2H6V4h7v1z"/></g></svg>