<?xml version="1.0" encoding="utf-8"?>
<!-- Generator: Adobe Illustrator 18.1.1, SVG Export Plug-In . SVG Version: 6.00 Build 0)  -->
<!DOCTYPE svg PUBLIC "-//W3C//DTD SVG 1.1//EN" "http://www.w3.org/Graphics/SVG/1.1/DTD/svg11.dtd">
<svg version="1.1" xmlns="http://www.w3.org/2000/svg" xmlns:xlink="http://www.w3.org/1999/xlink" x="0px" y="0px" width="16px"
	 height="16px" viewBox="0 0 16 16" style="enable-background:new 0 0 16 16;" xml:space="preserve">
<style type="text/css">
	.icon-canvas-transparent{opacity:0;fill:#F6F6F6;}
	.icon-vs-out{fill:#F6F6F6;}
	.icon-vs-bg{fill:#424242;}
	.icon-vs-yellow{fill:#FFCC00;}
</style>
<g id="canvas">
	<path class="icon-canvas-transparent" d="M16,16H0V0h16V16z"/>
</g>
<g id="outline">
	<path class="icon-vs-out" d="M8,16c-4.411,0-8-3.589-8-8c0-4.411,3.589-8,8-8c4.411,0,8,3.589,8,8
		C16,12.411,12.411,16,8,16z"/>
</g>
<g id="iconBg">
	<path class="icon-vs-yellow" d="M15,8c0,3.866-3.134,7-7,7c-3.866,0-7-3.134-7-7c0-3.866,3.134-7,7-7
		C11.866,1,15,4.134,15,8z"/>
</g>
<g id="iconFg">
	<path class="icon-vs-bg" d="M10.973,6.5c0,0.5-0.447,0.5-1,0.5s-1,0-1-0.5c0-1.104,1-1.5,1-1.5
		S10.973,5.396,10.973,6.5z M5.973,5c0,0-1,0.396-1,1.5c0,0.5,0.447,0.5,1,0.5c0.553,0,1,0,1-0.5C6.973,5.396,5.973,5,5.973,5z
		 M5.104,12c0.459-1.146,1.593-2,2.869-2c1.277,0,2.439,0.854,2.912,2h0.916c-0.475-1.678-1.998-2.917-3.828-2.917
		c-1.83,0-3.355,1.239-3.83,2.917H5.104z"/>
</g>
</svg>
