<svg xmlns="http://www.w3.org/2000/svg" viewBox="0 0 16 16" enable-background="new 0 0 16 16"><style type="text/css">.icon-canvas-transparent{opacity:0;fill:#F6F6F6;} .icon-vs-out{fill:#F6F6F6;} .icon-vs-bg{fill:#424242;} .icon-vs-fg{fill:#F0EFF1;}</style><path class="icon-canvas-transparent" d="M16 16h-16v-16h16v16z" id="canvas"/><path class="icon-vs-out" d="M16 5.586v8.414h-16v-13h11.414l4.586 4.586z" id="outline"/><path class="icon-vs-bg" d="M11 6.5c0 1.381-1.119 2.5-2.5 2.5h-2.488l1.988 2h-2l-2.5-2.515 2.5-2.485h2l-2.013 2h2.513c.827 0 1.5-.672 1.5-1.5 0-.826-.673-1.5-1.5-1.5h-.5v-1h.5c1.381 0 2.5 1.119 2.5 2.5zm4-.5v7h-14v-11h10l1 1 2 2 1 1zm-1 .414l-3.414-3.414h-8.586v9h12v-5.586z" id="iconBg"/><g id="iconFg"><path class="icon-vs-fg" d="M10.586 3h-8.586v9h12v-5.586l-3.414-3.414zm-2.086 6h-2.488l1.988 2h-2l-2.5-2.515 2.5-2.485h2l-2.013 2h2.513c.827 0 1.5-.672 1.5-1.5 0-.826-.673-1.5-1.5-1.5h-.5v-1h.5c1.381 0 2.5 1.119 2.5 2.5s-1.119 2.5-2.5 2.5z"/></g></svg>