<?xml version="1.0" encoding="utf-8"?>
<!-- Generator: Adobe Illustrator 18.1.1, SVG Export Plug-In . SVG Version: 6.00 Build 0)  -->
<!DOCTYPE svg PUBLIC "-//W3C//DTD SVG 1.1//EN" "http://www.w3.org/Graphics/SVG/1.1/DTD/svg11.dtd">
<svg version="1.1" xmlns="http://www.w3.org/2000/svg" xmlns:xlink="http://www.w3.org/1999/xlink" x="0px" y="0px" width="16px"
	 height="16px" viewBox="0 0 16 16" style="enable-background:new 0 0 16 16;" xml:space="preserve">
<style type="text/css">
	.icon-canvas-transparent{opacity:0;fill:#F6F6F6;}
	.icon-vs-out{fill:#F6F6F6;}
	.icon-vs-bg{fill:#424242;}
	.icon-vs-yellow{fill:#FFCC00;}
</style>
<g id="canvas">
	<path class="icon-canvas-transparent" d="M16,16H0V0h16V16z"/>
</g>
<g id="outline">
	<path class="icon-vs-out" d="M8,16c-4.411,0-8-3.589-8-8c0-4.411,3.589-8,8-8c4.411,0,8,3.589,8,8
		C16,12.411,12.411,16,8,16z"/>
</g>
<g id="iconBg">
	<path class="icon-vs-yellow" d="M8,1C4.134,1,1,4.134,1,8c0,3.866,3.134,7,7,7c3.866,0,7-3.134,7-7
		C15,4.134,11.866,1,8,1z"/>
</g>
<g id="iconFg">
	<path class="icon-vs-bg" d="M11,6.5C11,7,10.553,7,10,7C9.447,7,9,7,9,6.5C9,5.396,10,5,10,5S11,5.396,11,6.5z
		 M10.943,9.025C10.486,10.202,9.299,11.083,8,11.083s-2.455-0.881-2.899-2.058H4.149C4.604,10.734,6.148,12,8,12
		c1.853,0,3.396-1.266,3.851-2.975H10.943z M6,5c0,0-1,0.396-1,1.5C5,7,5.447,7,6,7s1-0.5,1-0.5C7,5.396,6,5,6,5z"/>
</g>
</svg>
