<svg xmlns="http://www.w3.org/2000/svg" viewBox="0 0 16 16"><style>.st0{opacity:0}.st0,.st1,.st2,.st3{fill:#f6f6f6}.st2,.st3{display:none}.st3{fill:#c27d1a}.st4{fill:#424242}.st5{fill:#00539c}.st6{fill:#f0eff1}</style><g id="outline"><path class="st0" d="M0 0h16v16H0z"/><path class="st1" d="M15 11V8h-4l-1 1v2h1v2h-1v3h5v-3h-1v-2z"/><path class="st2" d="M10.414 6l1.5-1.5L9 1.585 7.586 3h-.172l-3-3h-.828L0 3.585v1.829l2.5 2.5 1.5-1.5V10h2.586L9 12.414 12.914 8.5z"/><path class="st3" d="M10 7L9 8H6V5h1l-.5.5L8 7l2.5-2.5L9 3 8 4H5l1-1-2-2L.5 4.5l2 2L4 5h1v4h3l-.5.5L9 11l2.5-2.5z"/></g><g id="icon_x5F_bg"><path class="st4" d="M12 10h1v4h-1zM13 9h1v1h-1zM11 9h1v1h-1zM11 14h1v1h-1zM13 14h1v1h-1z"/><path class="st1" d="M6.739 0L0 3.369v5.236L4.789 11h.42L12 7.605V2.369L7.263 0z"/><path class="st5" d="M1 4v4l4 2 6-3V3L7 1 1 4zm4 1L3 4l4-2 2 1-4 2z"/><path class="st6" d="M3 4l2 1 4-2-2-1z"/></g></svg>