<svg xmlns="http://www.w3.org/2000/svg" viewBox="0 0 16 16"><style>.st0{opacity:0}.st0,.st1{fill:#f6f6f6}.st2{fill:#00539c}.st3{fill:#f0eff1}.st4{fill:#424242}</style><g id="outline"><path class="st0" d="M0 0h16v16H0z"/><path class="st1" d="M6.739 0L0 3.369v5.236L4.789 11h.42L12 7.605V2.369L7.263 0z"/><path class="st1" d="M15.92 11c-.124-1.174-.571-2.969-3.326-2.969-2.908 0-3.368 1.84-3.517 2.969H9v5h7"/></g><path class="st2" d="M1 4v4l4 2 6-3V3L7 1 1 4zm4 1L3 4l4-2 2 1-4 2z" id="color_x5F_importance"/><path class="st3" d="M3 4l2 1 4-2-2-1z" id="icon_x5F_fg"/><g id="not_x5F_bg"><path class="st4" d="M11.019 11.563c.059-.729.334-1.541 1.575-1.541 1.249 0 1.391.795 1.404 1.541h.966c-.085-1.119-.144-2.531-2.37-2.531-2.396 0-2.445 1.406-2.576 2.531h1.001zM14 12h-4v3h5v-3h-1zm-1 2h-1v-1h1v1z"/></g><path class="st3" d="M12 13h1v1h-1z" id="not_x5F_fg"/></svg>