<svg xmlns="http://www.w3.org/2000/svg" viewBox="0 0 16 16"><style>.st0{opacity:0}.st0,.st1{fill:#f6f6f6}.st2{fill:#424242}.st3{fill:#00539c}.st4{fill:#f0eff1}</style><g id="outline"><path class="st0" d="M0 0h16v16H0z"/><path class="st1" d="M14.4 9h-3.829L9 10.571v2.842l1 1.001V16h1.661l1.117-1h1.623L16 13.401v-2.802zM6.739 0L0 3.369v5.236L4.789 11h.42L12 7.605V2.369L7.263 0z"/></g><g id="icon_x5F_bg"><path class="st2" d="M13.986 10h-3.001l-.985.985v2.014L11 14v1.25L12.396 14h1.591L15 12.987v-1.975L13.986 10zm.015 3h-3v-2h3v2z"/><path class="st3" d="M1 4v4l4 2 6-3V3L7 1 1 4zm4 1L3 4l4-2 2 1-4 2z"/></g><path class="st4" d="M11 11h3v2h-3z" id="icon_x5F_fg"/><path class="st4" d="M3 4l2 1 4-2-2-1z" id="not_x5F_fg"/></svg>