<svg xmlns="http://www.w3.org/2000/svg" viewBox="0 0 16 16"><style>.st0{opacity:0}.st0,.st1{fill:#f6f6f6}.st2{fill:#00539c}.st3{fill:#f0eff1}.st4{fill:#424242}</style><g id="outline"><path class="st0" d="M0 0h16v16H0z"/><path class="st1" d="M9.21 9L12 7.605V2.369L7.263 0h-.524L0 3.369v5.236L4.789 11h.42L9 9.105V16h7V9z"/></g><path class="st2" d="M1 4v4l4 2 6-3V3L7 1 1 4zm4 1L3 4l4-2 2 1-4 2z" id="color_x5F_importance"/><path class="st3" d="M3 4l2 1 4-2-2-1z" id="icon_x5F_fg"/><path class="st4" d="M10 10v5h5v-5h-5zm4 3l-1 1v-1.5L11.5 14l-.5-.5 1.5-1.5H11l1-1h2v2z" id="not_x5F_bg"/><path class="st3" d="M14 11v2l-1 1v-1.5L11.5 14l-.5-.5 1.5-1.5H11l1-1z" id="not_x5F_fg"/></svg>