<svg xmlns="http://www.w3.org/2000/svg" viewBox="0 0 16 16"><style>.st0{opacity:0}.st0,.st1{fill:#f6f6f6}.st2{fill:#424242}.st3{fill:#f0eff1}</style><g id="outline"><path class="st0" d="M0 0h16v16H0z"/><path class="st1" d="M16 0H0v9h.051C.027 9.165 0 9.329 0 9.5c0 1.156.572 2.223 1.5 2.869V14c0 1.103.896 2 2 2s2-.897 2-2v-1.63A3.496 3.496 0 0 0 7 9.5c0-.171-.027-.335-.051-.5H16V0z"/></g><g id="icon_x5F_bg"><path class="st2" d="M4.5 7.211V10h-2V7.211C1.618 7.598 1 8.476 1 9.5s.618 1.902 1.5 2.289V14a1 1 0 1 0 2 0v-2.211a2.497 2.497 0 0 0 0-4.578z"/><path class="st2" d="M1 1v6.058a3.515 3.515 0 0 1 1-.707V4h12v3H5.942c.293.286.528.627.707 1H15V1H1z"/><path class="st2" d="M4 5h2v1H4zM7 5h2v1H7zM10.001 5H12v1h-1.999z"/></g><path class="st3" d="M2 4v2.351A3.464 3.464 0 0 1 3.5 6c.95 0 1.81.383 2.442 1H14V4H2zm4 2H4V5h2v1zm3 0H7V5h2v1zm3 0h-2V5h2v1z" id="icon_x5F_fg"/></svg>