<svg xmlns="http://www.w3.org/2000/svg" viewBox="0 0 16 16"><style>.icon-canvas-transparent{opacity:0;fill:#f6f6f6}.icon-vs-out{fill:#f6f6f6}.icon-vs-fg{fill:#f0eff1}.icon-vs-action-blue{fill:#00539c}.icon-vs-action-red{fill:#a1260d}</style><path class="icon-canvas-transparent" d="M16 16H0V0h16v16z" id="canvas"/><path class="icon-vs-out" d="M7.525 14l1.97-1.97-1.97-1.97.41-.41L5 11.118l-5-2.5V3.382L6.764 0h.473L12 2.382v5.236l-1.312.656 1.282 1.282 1.97-1.97L16 9.646v.828l-1.556 1.556L16 13.586v.828L14.414 16h-.949l-1.495-1.495L10.475 16h-.95l-2-2z" id="outline"/><path class="icon-vs-action-blue" d="M1 4v4l4 2 6-3V3L7 1 1 4zm4 1L3 4l4-2 2 1-4 2z" id="iconBg"/><path class="icon-vs-fg" d="M7 2l2 1-4 2-2-1 4-2z" id="iconFg"/><path class="icon-vs-action-red" d="M13.03 12.03L15 14l-1.061 1.061-1.97-1.97L10 15.061 8.939 14l1.97-1.97-1.97-1.97L10 9l1.97 1.97L13.939 9 15 10.061l-1.97 1.969z" id="colorAction"/></svg>