<svg xmlns="http://www.w3.org/2000/svg" viewBox="0 0 16 16"><style>.st0{opacity:0}.st0,.st1{fill:#f6f6f6}.st2{fill:#424242}.st3{fill:#00539c}.st4{fill:#f0eff1}</style><g id="outline"><path class="st0" d="M0 0h16v16H0z"/><path class="st1" d="M12.995 7.052L11.58 8.466l-.707.707-2.121 2.121-.707.707-.236.236L7.08 16h.703l3.031-.757.236-.236.707-.707 2.122-2.121.707-.707L16 10.057z"/></g><g id="icon_x5F_bg"><path class="st2" d="M13.879 10.765l-1.592-1.592.708-.707 1.591 1.591-.707.708zm-.707.707L11.58 9.88l-2.121 2.121 1.591 1.592 2.122-2.121zm-4.95 3.535l2.121-.707-1.591-1.592-.53 2.299z"/><path class="st1" d="M6.739 0L0 3.369v5.236L4.789 11h.42L12 7.605V2.369L7.263 0z"/><path class="st3" d="M1 4v4l4 2 6-3V3L7 1 1 4zm4 1L3 4l4-2 2 1-4 2z"/></g><path class="st4" d="M3 4l2 1 4-2-2-1z" id="icon_x5F_fg"/></svg>