<svg xmlns="http://www.w3.org/2000/svg" viewBox="0 0 16 16"><style>.icon-canvas-transparent{opacity:0;fill:#f6f6f6}.icon-vs-out{fill:#f6f6f6}.icon-vs-bg{fill:#424242}.icon-vs-fg{fill:#f0eff1}.icon-vs-blue{fill:#1ba1e2}.icon-vs-action-orange{fill:#c27d1a}</style><path class="icon-canvas-transparent" d="M16 16H0V0h16v16z" id="canvas"/><path class="icon-vs-out" d="M2 0h12v16H2V0z" id="outline"/><g id="iconBg"><path class="icon-vs-bg" d="M3 1v7l1-1V2h8v5l-1.5-1L13 7.667V1zM4 10H3v5h10v-5H4zm0 1h5v1H4v-1zm8 3H4v-1h8v1z"/><g><path class="icon-vs-bg" d="M3 1v7l1-1V2h8v5l-1.5-1L13 7.667V1zM4 10H3v5h10v-5H4zm0 1h5v1H4v-1zm8 3H4v-1h8v1z"/></g></g><path class="icon-vs-fg" d="M9 12H4v-1h5v1zm-5 2h8v-1H4v1zM4 2h8v5l-1.5-1-2 1L6 5 4 7V2zm4.118 1.552A.977.977 0 0 0 8 4a.998.998 0 0 0 1 1 1 1 0 1 0-.389-1.921.991.991 0 0 0-.493.473z" id="iconFg"/><circle class="icon-vs-action-orange" cx="9" cy="4" r="1" id="colorAction"/><path class="icon-vs-blue" d="M13 10H3V8l3-3 2.5 2 2-1L13 7.667V10z" id="colorImportance"/></svg>