<svg xmlns="http://www.w3.org/2000/svg" viewBox="0 0 16 16"><style>.st0{opacity:0}.st0,.st1{fill:#f6f6f6}.st2{fill:#424242}.st3{fill:#00539c}.st4{fill:#f0eff1}</style><g id="outline"><path class="st0" d="M0 0h16v16H0z"/><path class="st1" d="M10 1H4.035C2.593 1 2.028 2.175 2 3v5H0l2 2H0v4h2l-2 2h6l1-1h4.965c1.442 0 2.007-1.175 2.035-2V5l-4-4z"/></g><path class="st2" d="M9.586 2H4.035C3.035 2 3 3 3 3v5h1V3h5v3h3v7H9l-1 1h3.965c1 0 1.035-1 1.035-1V5.414L9.586 2z" id="icon_x5F_bg"/><path class="st3" d="M5 9H3l2 2H1v2h4l-2 2h2l3-3z" id="color_x5F_decoration"/><path class="st4" d="M9 6V3H4v5h1.414l4 4-1 1H12V6z" id="icon_x5F_fg"/></svg>