<svg xmlns="http://www.w3.org/2000/svg" viewBox="0 0 16 16"><style>.st0{opacity:0}.st0,.st1{fill:#f6f6f6}.st2{fill:#424242}.st3{fill:none}.st4{fill:#f0eff1}</style><g id="outline"><path class="st0" d="M0 0h16v16H0z"/><path class="st1" d="M15 0H4v7H1.999C1.029 7 0 7.701 0 9v5c0 1.299 1.029 2 2 2h4c1.299 0 2-1.03 2-2v-1h7V0z"/></g><g id="icon_x5F_bg"><path class="st2" d="M7 5h3v1H7zM7 3h5v1H7zM11 5h1v1h-1z"/><path class="st2" d="M5 1v6h1V2h7v9H8v1h6V1z"/><path class="st2" d="M8 9h4v1H8zM5.313 8h-3.35S1 8 1 9v5c0 1 .964 1 .964 1h4C6.964 15 7 14 7 14v-3.863L5.313 8zM6 12v2H2V9h3v1h1v2zM7 7v.793L7.163 8H11V7z"/></g><g id="icon_x5F_fg"><path class="st3" d="M7 5h3v1H7zM11 5h1v1h-1zM7 7h4v1H7zM7 3h5v1H7z"/><path class="st4" d="M2 9h3v1h1v4H2zM6 2v5h.375L7 7.793V7h4v1H7.163l.608.771L8 9h4v1H8v1h5V2H6zm4 4H7V5h3v1zm2 0h-1V5h1v1zm0-2H7V3h5v1z"/></g></svg>