<svg xmlns="http://www.w3.org/2000/svg" viewBox="0 0 16 16"><style>.st0{opacity:0}.st0,.st1{fill:#f6f6f6}.st2{fill:#424242}.st3{fill:#393}.st4{fill:#fff}.st5{fill:#f0eff1}</style><g id="outline"><path class="st0" d="M0 0h16v16H0z"/><path class="st1" d="M12 7.05V3.556L8.061 0H2c-.97 0-2 .701-2 2v10c0 1.299 1.03 2 2 2h5.76A4.5 4.5 0 0 0 16 11.5c0-2.314-1.753-4.198-4-4.45z"/></g><path class="st2" d="M7.05 12H2V2h5v3h3v2.275a4.472 4.472 0 0 1 1-.225V4L7.641 1H1.964S1 1 1 2v10c0 1 .965 1 .965 1h5.311a4.419 4.419 0 0 1-.226-1z" id="icon_x5F_bg"/><path class="st3" d="M15 11.5A3.5 3.5 0 1 1 11.5 8a3.47 3.47 0 0 1 2.361.932L10.5 12.293l-1.146-1.147-.707.707 1.854 1.853 3.994-3.994c-.175-.29.505.769.505 1.788z" id="color_x5F_action"/><g id="icon_x5F_fg"><path class="st4" d="M10.5 12.293l3.361-3.361c.248.229.459.49.633.781L10.5 13.707l-1.854-1.853.707-.707 1.147 1.146z"/><path class="st5" d="M7 11.5c0-1.957 1.256-3.604 3-4.225V5H7V2H2v10h5.05c-.018-.166-.05-.329-.05-.5z"/></g></svg>