<svg xmlns="http://www.w3.org/2000/svg" viewBox="0 0 16 16"><style>.st0{opacity:0}.st0,.st1{fill:#f6f6f6}.st2{fill:#424242}.st3{fill:#f0eff1}</style><g id="outline"><path class="st0" d="M0 0h16v16H0z"/><path class="st1" d="M11.414 0H6C4.701 0 4 1.012 4 2v4.786L3.5 6.5 0 8.5V16h7v-2h7c1.299 0 2-1.013 2-1.965V4.586L11.414 0z"/></g><g id="icon_x5F_bg"><path class="st2" d="M9.908 6A1.496 1.496 0 0 0 7 6.5a1.496 1.496 0 1 0 2.908.5H11v1.092A1.496 1.496 0 0 0 11.5 11a1.496 1.496 0 1 0 .5-2.908V6H9.908zM8.5 7a.5.5 0 1 1 0-1 .5.5 0 0 1 0 1zm3 3a.5.5 0 1 1 0-1 .5.5 0 0 1 0 1zM4 8l-.5 2L3 8 1 9l1.5 1H1v5h5v-5H4.5L6 9 4 8zm-1 6H2v-1h1v1zm0-2H2v-1h1v1zm2 2H4v-1h1v1zm0-3v1H4v-1h1z"/><path class="st2" d="M11 1H6c-1 0-1 .965-1 .965v5.392l1 .572V2h5v3h3v7H7v1h7c1 0 1-.965 1-.965V5l-4-4z"/></g><g id="icon_x5F_fg"><circle class="st3" cx="11.5" cy="9.5" r=".5"/><path class="st3" d="M2 11h1v1H2zM2 13h1v1H2zM4 11h1v1H4zM4 13h1v1H4z"/><circle class="st3" cx="8.5" cy="6.5" r=".5"/><path class="st3" d="M11.001 5V2H6v6h1v4H14.001V5h-3zm.499 6a1.496 1.496 0 1 1-.5-2.908V7H9.908A1.496 1.496 0 0 1 7 6.5 1.496 1.496 0 1 1 9.908 6H12v2.092A1.496 1.496 0 0 1 11.5 11z"/></g></svg>