<svg xmlns="http://www.w3.org/2000/svg" viewBox="0 0 16 16"><style>.st0{fill:#f6f6f6}.st1{fill:#424242}.st2{fill:#00539c}.st3{fill:#f0eff1}</style><path class="st0" d="M14 3V0H4v3H2v4.76A4.5 4.5 0 0 0 4.5 16c2.314 0 4.198-1.753 4.45-4H14v-2h2V3h-2z" id="outline"/><path class="st1" d="M13 4V1H5v3H3.001v3.275A4.468 4.468 0 0 1 4.5 7a4.46 4.46 0 0 1 2.797 1H12v2H8.725c.113.318.186.653.225 1H13V9h2V4h-2zM5 6H4V5h1v1zm2 0H6V5h1v1zm5-2H6V2h6v2zM6.861 8.932zm.625.79l-.04-.069c.014.021.035.037.048.06l-.008.009z" id="icon_x5F_bg"/><path class="st2" d="M7.486 9.722A3.41 3.41 0 0 1 8 11.5 3.5 3.5 0 1 1 4.5 8a3.47 3.47 0 0 1 2.361.932L3.5 12.293l-1.146-1.147-.707.707L3.5 13.707l3.986-3.985z" id="color_x5F_action"/><path class="st3" d="M5 6H4V5h1v1zm2-1H6v1h1V5zm1.725 5H12V8H7.297a4.485 4.485 0 0 1 1.428 2zM6 2v2h6V2H6z" id="icon_x5F_fg"/><path class="st3" d="M3.5 12.293l-1.146-1.147-.707.707L3.5 13.707l3.994-3.994a3.486 3.486 0 0 0-.633-.781L3.5 12.293z" id="not_x5F_fg"/></svg>