<svg xmlns="http://www.w3.org/2000/svg" viewBox="0 0 16 16"><style>.st0{opacity:0}.st0,.st1{fill:#f6f6f6}.st2{fill:#00539c}.st3{fill:#424242}.st4{fill:#f0eff1}</style><g id="outline"><path class="st0" d="M0 0h16v16H0z"/><path class="st1" d="M12.061 0H6c-.97 0-2 .701-2 2v5H0v9h9v-2h5c1.299 0 2-1.03 2-2V3.556L12.061 0z"/></g><g id="icon_x5F_bg"><path class="st2" d="M6 8v3H3V8H1v7h7v-5L6 8zm-1 2H4V8h1v2z"/><path class="st3" d="M7 4h3v1H7zM7 6h6v1H7z"/><path class="st3" d="M11.641 1H5.964S5 1 5 2v5h1V2h5v3h3v7H9v1h4.965c1 0 1.035-1 1.035-1V4l-3.359-3z"/><path class="st3" d="M7.414 8l1 1H13V8zM9 10h4v1H9z"/></g><g id="icon_x5F_fg"><path class="st4" d="M6 8v3H3V8h1v2h1V8h1zM11 5V2H6v5h.414l1 1H13v1H8.414L9 9.586V10h4v1H9v1h5V5h-3zM7 4h3v1H7V4zm6 3H7V6h6v1z"/></g></svg>