<svg xmlns="http://www.w3.org/2000/svg" viewBox="0 0 16 16"><style>.st0{opacity:0}.st0,.st1{fill:#f6f6f6}.st2{fill:#424242}.st3{fill:#f0eff1}</style><g id="outline"><path class="st0" d="M0 0h16v16H0z"/><path class="st1" d="M4 15c-.97 0-2-.701-2-2V3c0-1.299 1.03-2 2-2h6.061L14 4.556V13c0 .97-.701 2-2 2H4z"/></g><path class="st2" d="M9.641 2H3.964S3 2 3 3v10c0 1 .964 1 .964 1h8c1 0 1.036-1 1.036-1V5L9.641 2zM12 13H4V3h5v3h3v7z" id="icon_x5F_bg"/><g id="icon_x5F_fg"><circle class="st3" cx="6.5" cy="7.5" r=".5"/><circle class="st3" cx="9.5" cy="10.5" r=".5"/><path class="st3" d="M9 6V3H4v10h8V6H9zm.5 6A1.496 1.496 0 1 1 9 9.092V8H7.908A1.496 1.496 0 0 1 5 7.5 1.496 1.496 0 1 1 7.908 7H10v2.092A1.496 1.496 0 0 1 9.5 12z"/><path class="st2" d="M6.5 6a1.5 1.5 0 0 0 0 3c.652 0 1.201-.419 1.408-1H9v1.092A1.496 1.496 0 0 0 9.5 12a1.496 1.496 0 1 0 .5-2.908V7H7.908c-.207-.581-.756-1-1.408-1zm0 2a.5.5 0 1 1 0-1 .5.5 0 0 1 0 1zm3 2a.5.5 0 1 1 0 1 .5.5 0 0 1 0-1z"/></g></svg>