<svg xmlns="http://www.w3.org/2000/svg" viewBox="0 0 16 16"><style>.st0{opacity:0}.st0,.st1{fill:#f6f6f6}.st2{fill:#424242}.st3{fill:#f0eff1}.st4{fill:#dcb67a}</style><g id="outline"><path class="st0" d="M0 0h16v16H0z"/><path class="st1" d="M9.403 0L8.396 2l-1.795.002C5.824 2.045 5 2.645 5 3.673V4H0v12h11v-6h3.4c.17 0 .505-.028.836-.219.486-.278.764-.782.764-1.382V0H9.403z"/></g><g id="icon_x5F_bg"><path class="st2" d="M3 9h2v1H3zM3 7h4v1H3zM3 12h1v1H3z"/><path class="st2" d="M1 5v10h9V5H1zm8 9H2V6h7v8z"/><path class="st2" d="M7 10h1v3H7zM5 11h1v2H5z"/></g><g id="icon_x5F_fg"><path class="st3" d="M2 6v8h7V6H2zm1 1h4v1H3V7zm0 2h2v1H3V9zm1 4H3v-1h1v1zm2 0H5v-2h1v2zm2 0H7v-3h1v3zM14 2v1h-3.47l.5-1z"/><path class="st4" d="M10.019 1L9 3.025V3H6.656S6 3.036 6 3.673V4h5v5h3.383s.617.036.617-.601V1h-4.981zM14 3h-3.481l.5-1H14v1z"/></g></svg>