<svg xmlns="http://www.w3.org/2000/svg" viewBox="0 0 16 16"><style>.st0{opacity:0}.st0,.st1{fill:#f6f6f6}.st2{fill:#424242}.st3{fill:#f0eff1}</style><g id="outline"><path class="st0" d="M0 0h16v16H0z"/><path class="st1" d="M11.061 0H5c-.97 0-2 .701-2 2-.97 0-2 .701-2 2v10c0 1.299 1.03 2 2 2h8c1.299 0 2-1.03 2-2 1.299 0 2-1.03 2-2V3.556L11.061 0z"/></g><g id="icon_x5F_bg"><path class="st2" d="M10.641 1H4.964S4 1 4 2h6v.848L12.385 5H13v7.995c.962-.025 1-.995 1-.995V4l-3.359-3z"/><path class="st2" d="M8.641 3H2.964S2 3 2 4v10c0 1 .965 1 .965 1h8c1 0 1.035-1 1.035-1V6L8.641 3zM11 14H3V4h5v3h3v7z"/></g><path class="st3" d="M3 4h5v3h3v7H3z" id="icon_x5F_fg"/></svg>