<svg xmlns="http://www.w3.org/2000/svg" viewBox="0 0 16 16"><style>.st0{opacity:0}.st0,.st1{fill:#f6f6f6}.st2{fill:#424242}.st3{fill:#f0eff1}.st4{fill:#fc0}</style><g id="outline"><path class="st0" d="M0 0h16v16H0z"/><path class="st1" d="M14 12.04V3.556L10.061 0H4c-.97 0-2 .701-2 2-.97 0-2 .701-2 2v10c0 1.299 1.03 2 2 2H0v.016h14.007l.971-2.004L14 12.04z"/></g><g id="icon_x5F_bg"><path class="st2" d="M5.97 14.041L5.99 14H2V4h5v3h4V6L7.641 3H1.964S1 3 1 4v10c0 1 .965 1 .965 1h4.507l-.502-.959z"/><path class="st2" d="M9 2v.848L11.385 5H12V8.018l1 2.016V4L9.641 1H3.964S3 1 3 2h6z"/></g><path class="st3" d="M9.493 7.031H10V7H7V4H2v10h3.99z" id="icon_x5F_fg"/><path class="st4" d="M10.891 8.031h-.781l-3.016 6 .516.984h5.766l.484-1-2.969-5.984zM11 14.016h-1v-1h1v1zm0-2h-1v-2h1v2z" id="not_x5F_bg"/><path d="M11 12.016h-1v-2h1v2zm0 1h-1v1h1v-1z" id="not_x5F_fg"/></svg>