<svg xmlns="http://www.w3.org/2000/svg" viewBox="0 0 16 16"><style>.st0{opacity:0}.st0,.st1{fill:#f6f6f6}.st2{fill:#424242}.st3{fill:#f0eff1}</style><g id="outline"><path class="st0" d="M0 0h16v16H0z"/><path class="st1" d="M10 0a5.999 5.999 0 0 0-5.69 4.107A3.438 3.438 0 0 0 3.5 4C1.57 4 0 5.57 0 7.5v5c0 1.533.997 3.027 2.372 3.5H12v-4.349A5.997 5.997 0 0 0 10 0z"/></g><g id="icon_x5F_bg"><path class="st2" d="M15 6a5 5 0 0 0-5-5c-.241 0-.473.038-.704.071l.423 2.958C9.811 4.015 9.903 4 10 4a2 2 0 0 1 2 2h3zM6.836 6.527c.046.155.09.31.113.473h1.326a1.995 1.995 0 0 1-.242-.672l-1.197.199zM11.72 7H12v1l1.535 1.535a4.987 4.987 0 0 0 1.188-1.961l-2.834-.944c-.044.13-.104.252-.169.37zM6.26 5.377l1.773.295c.07-.42.264-.798.553-1.086L6.464 2.464a4.934 4.934 0 0 0-1.21 2.017c.392.23.731.536 1.006.896zM10 5a1 1 0 0 0-.002 2h.004A1 1 0 0 0 10 5zM7 12h2v1H7zM7 10h2v1H7z"/><path class="st2" d="M6 7.5a2.5 2.5 0 1 0-5 0v5a2.494 2.494 0 0 0 2.372 2.487V15H11V8H6v-.5zM10 9v5H3.507v-.007L3.5 14h-.005A1.5 1.5 0 0 1 2 12.5c0-.072.012-.141.021-.211C2.124 11.561 2.744 11 3.5 11s1.376.561 1.479 1.289L5 13h1V9h4z"/></g><g id="icon_x5F_fg"><path class="st3" d="M12 10.554a4.839 4.839 0 0 0 1.535-1.019L12 8v2.554zM12 6a2 2 0 0 0-2-2c-.097 0-.189.015-.281.028l-.423-2.957a4.985 4.985 0 0 0-2.832 1.393l2.122 2.122a1.989 1.989 0 0 0-.553 1.086L6.26 5.377c.259.34.454.729.576 1.15l1.197-.199c.04.241.124.468.242.672H9.998a1 1 0 1 1 .004 0h1.718c.066-.118.125-.24.169-.37l2.834.944C14.889 7.076 15 6.554 15 6h-3zM6 13H4.908c.056-.157.092-.324.092-.5A1.5 1.5 0 1 0 3.5 14H10V9H6v4zm1-3h2v1H7v-1zm0 2h2v1H7v-1z"/></g></svg>