<svg xmlns="http://www.w3.org/2000/svg" viewBox="0 0 16 16"><style>.st0{opacity:0}.st0,.st1{fill:#f6f6f6}.st2{fill:#424242}.st3{fill:#f0eff1}.st4{fill:#fc0}</style><g id="outline"><path class="st0" d="M0 0h16v16H0z"/><path class="st1" d="M15.999 8.963l-.015-.56L12 6.104V3.556L8.061 0H0v14h8.422c.628.878 1.529 1.617 2.837 1.94l.24.06.24-.06c4.361-1.078 4.266-6.736 4.26-6.977z"/></g><path class="st2" d="M7.445 12H2V2h5v3h3v1.711l1-.577V4L7.641 1H1.964S1 1 1 2v10c0 1 .965 1 .965 1h5.863a7.937 7.937 0 0 1-.383-1z" id="icon_x5F_bg"/><path class="st3" d="M7 5V2H2v10h5.453a10.388 10.388 0 0 1-.452-3.037l.015-.56L10 6.68V5H7z" id="icon_x5F_fg"/><path class="st4" d="M11.5 7L8.002 9.02S7.871 14.103 11.5 15c3.631-.898 3.5-5.98 3.5-5.98L11.5 7zm.5 6h-1v-1h1v1zm0-2h-1V9h1v2z" id="not_x5F_bg"/><g id="not_x5F_fg"><path d="M11 12h1v1h-1zM11 9h1v2h-1z"/></g></svg>