<svg xmlns="http://www.w3.org/2000/svg" viewBox="0 0 16 16"><style>.st0{opacity:0}.st0,.st1{fill:#f6f6f6}.st2{fill:#424242}.st3{fill:#00539c}.st4{fill:#f0eff1}</style><g id="outline"><path class="st0" d="M0 0h16v16H0z"/><path class="st1" d="M14 9V5l-4-4H4C2.701 1 2 2.012 2 2.965V13c0 1.299 1.012 2 1.965 2H8l-1 1h6l3-3v-2l-2-2z"/></g><path class="st2" d="M9.586 2H4c-1 0-1 .965-1 .965V13c0 1 .965 1 .965 1H7v-1H4V3h5v3h3v2h1V5.414L9.586 2z" id="icon_x5F_bg"/><path class="st3" d="M12 9h-2l2 2H8v2h4l-2 2h2l3-3z" id="color_x5F_decoration"/><path class="st4" d="M7 10h2L7 8h5V6H9V3H4v10h3z" id="icon_x5F_fg"/></svg>