<svg xmlns="http://www.w3.org/2000/svg" viewBox="0 0 16 16"><style>.st0{fill:#f6f6f6}.st1{fill:#424242}.st2{fill:#f0eff1}.st3{fill:#e51400}.st4{fill:#fff}</style><path class="st0" d="M12 7.051V3.556L8.061 0H2c-.97 0-2 .701-2 2v10c0 1.299 1.03 2 2 2h5.762a4.499 4.499 0 0 0 3.738 2c2.481 0 4.5-2.019 4.5-4.5 0-2.311-1.756-4.197-4-4.449z" id="outline"/><path class="st1" d="M7.051 12H2V2h5v3h3v2.276a4.419 4.419 0 0 1 1-.226V4L7.641 1H1.964S1 1 1 2v10c0 1 .964 1 .964 1h5.312a4.418 4.418 0 0 1-.225-1z" id="icon_x5F_bg"/><path class="st2" d="M7 11.5c0-1.953 1.258-3.603 3-4.224V5H7V2H2v10h5.051c-.019-.166-.051-.329-.051-.5z" id="icon_x5F_fg"/><path class="st3" d="M11.5 8a3.5 3.5 0 1 0 0 7 3.5 3.5 0 0 0 0-7zm1.854 4.646l-.707.707-1.147-1.146-1.146 1.147-.707-.707 1.147-1.146-1.147-1.146.707-.707 1.146 1.147 1.146-1.147.707.707-1.146 1.145 1.147 1.146z" id="not_x5F_bg"/><path class="st4" d="M13.354 10.354l-.708-.708-1.146 1.147-1.146-1.147-.708.708 1.147 1.146-1.147 1.146.708.708 1.146-1.147 1.146 1.147.708-.708-1.147-1.146z" id="not_x5F_fg"/></svg>