<svg xmlns="http://www.w3.org/2000/svg" viewBox="0 0 16 16"><style>.icon-canvas-transparent{opacity:0;fill:#f6f6f6}.icon-vs-out{fill:#f6f6f6}.icon-vs-bg{fill:#424242}.icon-vs-fg{fill:#f0eff1}.icon-vs-blue{fill:#1ba1e2}</style><path class="icon-canvas-transparent" d="M16 16H0V0h16v16z" id="canvas"/><path class="icon-vs-out" d="M16 3.556V12c0 .987-.701 2-2 2v2H0V6h4V1.965C4 1.012 4.701 0 6 0h6.061L16 3.556z" id="outline"/><path class="icon-vs-bg" d="M15 4v8.035S15 13 14 13V5h-3V2H6v4H5V1.965S5 1 6 1h5.676L15 4zm-2 11H1V7h12v8zm-1-7H2v6h10V8z" id="iconBg"/><path class="icon-vs-fg" d="M2 14h10V8H2v6zm6.5-4.5L9 9l2 2-2 2-.5-.5L10 11 8.5 9.5zM5 9l.5.5L4 11l1.5 1.5-.5.5-2-2 2-2zm9-4v1H6V2h5v3h3z" id="iconFg"/><path class="icon-vs-blue" d="M5 9l-2 2 2 2 .5-.5L4 11l1.5-1.5L5 9zm3.5.5L10 11l-1.5 1.5.5.5 2-2-2-2-.5.5z" id="colorImportance"/></svg>