<svg xmlns="http://www.w3.org/2000/svg" viewBox="0 0 16 16"><style>.icon-canvas-transparent{opacity:0;fill:#f6f6f6}.icon-vs-out{fill:#f6f6f6}.icon-vs-bg{fill:#424242}.icon-vs-fg{fill:#f0eff1}</style><path class="icon-canvas-transparent" d="M16 0v16H0V0h16z" id="canvas"/><path class="icon-vs-out" d="M16 8v8H7v-.879L6.121 16h-.535l-1.854-1.854.147-.146H1v-4H0V0h5.621L8 2.379V8h8z" id="outline"/><path class="icon-vs-fg" d="M11 13h1v1h-1v-1zm-2 1h1v-1H9v1zM4 2H2v6h4V4H4V2zm1 .207V3h.793L5 2.207zM13 14h1v-1h-1v1zm-2-2h1v-1h-1v1zm2-1v1h1v-1h-1zm-4 1h1v-1H9v1z" id="iconFg"/><g id="iconBg"><path class="icon-vs-bg" d="M5.854 10.146l-.707.707L6.293 12H3V9h4V2.793L5.207 1H1v8h1v4h4.293l-1.146 1.146.707.707L8.207 12.5l-2.353-2.354zM5 2.207L5.793 3H5v-.793zM2 2h2v2h2v4H2V2zm6 7v2h2v1H9v1h1v1H8v1h7V9H8zm4 5h-1v-1h1v1zm0-2h-1v-1h1v1zm2 2h-1v-1h1v1zm0-2h-1v-1h1v1z"/></g></svg>