<svg xmlns="http://www.w3.org/2000/svg" viewBox="0 0 16 16"><style>.icon-canvas-transparent{opacity:0;fill:#f6f6f6}.icon-vs-out{fill:#f6f6f6}.icon-vs-bg{fill:#424242}.icon-vs-fg{fill:#f0eff1}.icon-vs-blue{fill:#1ba1e2}</style><path class="icon-canvas-transparent" d="M0 0h16v16H0z" id="canvas"/><path class="icon-vs-out" d="M16 14h-3.984c-.54.591-1.248 1-2.016 1-.866 0-1.66-.394-2.223-1H6.216c-.564.604-1.355 1-2.216 1-.768 0-1.475-.409-2.015-1H1v-2H0V9h1V0h15v14z" id="outline"/><path class="icon-vs-bg" d="M15 1v12h-1V4H3v3H2V1z" id="iconBg"/><path class="icon-vs-blue" d="M12 10L8 6v1l2 3H8s-1 1-2 0H4l2-3V6l-4 4H1v1l1 1a2 2 0 0 0 4 0s1-1 2 0a2 2 0 0 0 4 0l1-1v-1h-1zm-8 3a1 1 0 1 1 0-2 1 1 0 1 1 0 2zm6 0a1 1 0 1 1 0-2 1 1 0 1 1 0 2z" id="colorImportance"/><path class="icon-vs-fg" d="M4 13a1 1 0 1 1 0-2 1 1 0 1 1 0 2zm6 0a1 1 0 1 1 0-2 1 1 0 1 1 0 2z" id="iconFg"/></svg>