<svg xmlns="http://www.w3.org/2000/svg" viewBox="0 0 16 16"><style>.st0{opacity:0}.st0,.st1{fill:#f6f6f6}.st2{fill:#424242}.st3{fill:#f0eff1}.st4{fill:#e51400}.st5{fill:#fff}</style><g id="outline"><path class="st0" d="M0 0h16v16H0z"/><path class="st1" d="M15 8.707V3.556L11.061 0H5c-.97 0-2 .701-2 2-.97 0-2 .701-2 2v10c0 1.299 1.03 2 2 2h8c.089 0 .168-.016.251-.025.084.004.164.025.249.025 2.481 0 4.5-2.019 4.5-4.5a4.453 4.453 0 0 0-1-2.793z"/></g><g id="icon_x5F_bg"><path class="st2" d="M7.762 14H3V4h5v3h3v.051c.166-.019.329-.051.5-.051s.334.032.5.051V6L8.641 3H2.964S2 3 2 4v10c0 1 .965 1 .965 1h5.742a4.508 4.508 0 0 1-.945-1z"/><path class="st2" d="M10 2v.848L12.385 5H13v2.277c.354.126.693.28 1 .485V4l-3.359-3H4.964S4 1 4 2h6z"/></g><path class="st3" d="M7 11.5c0-2.311 1.756-4.197 4-4.449V7H8V4H3v10h4.762A4.474 4.474 0 0 1 7 11.5z" id="icon_x5F_fg"/><path class="st4" d="M11.5 8a3.5 3.5 0 1 0 0 7 3.5 3.5 0 0 0 0-7zm1.854 4.646l-.707.707-1.147-1.146-1.146 1.147-.707-.707 1.147-1.146-1.147-1.146.707-.707 1.146 1.147 1.146-1.147.707.707-1.146 1.145 1.147 1.146z" id="not_x5F_bg"/><path class="st5" d="M13.354 10.354l-.708-.708-1.146 1.147-1.146-1.147-.708.708 1.147 1.146-1.147 1.146.708.708 1.146-1.147 1.146 1.147.708-.708-1.147-1.146z" id="not_x5F_fg"/></svg>