<svg xmlns="http://www.w3.org/2000/svg" viewBox="0 0 16 16"><style>.st0{opacity:0}.st0,.st1{fill:#f6f6f6}.st2{fill:#424242}.st3{fill:#f0eff1}</style><g id="outline"><path class="st0" d="M0 0h16v16H0z"/><path class="st1" d="M15 4v8a2 2 0 0 1-2 2H3c-1.103 0-2-.896-2-2V4c0-1.103.897-2 2-2h10c1.104 0 2 .897 2 2z"/></g><path class="st2" d="M7 8H5V6h2v2zm0 0v2h2V8H7zm4 0V6H9v2h2zm3-4v8a1 1 0 0 1-1 1H3a1 1 0 0 1-1-1V4a1 1 0 0 1 1-1h10a1 1 0 0 1 1 1zm-1 8v-2h-2V8h2V6h-2V4H9v2H7V4H5v2H3v2h2v2H3v2h2v-2h2v2h2v-2h2v2h2z" id="icon_x5F_bg"/><path class="st3" d="M5 8H3V6h2v2zm2-4H5v2h2V4zm4 0H9v2h2V4zM9 6H7v2h2V6zm4 0h-2v2h2V6zm-2 2H9v2h2V8zm2 2h-2v2h2v-2zm-4 0H7v2h2v-2zm-4 0H3v2h2v-2zm2-2H5v2h2V8z" id="icon_x5F_fg"/></svg>