<svg xmlns="http://www.w3.org/2000/svg" viewBox="0 0 16 16"><style>.st0{opacity:0}.st0,.st1{fill:#f6f6f6}.st2{fill:#424242}.st3{fill:#f0eff1}</style><g id="outline"><path class="st0" d="M0 0h16v16H0z"/><path class="st1" d="M12.627 4.371a10.282 10.282 0 0 0-1.215-1.041l-1.143-1.626A4.002 4.002 0 0 0 7 0C4.794 0 3 1.794 3 4v1.862l-1.31 1.31c-.73.731-.889 1.866-.445 3.196.366 1.098 1.121 2.255 2.126 3.259C4.856 15.113 6.593 16 8.017 16c.732 0 1.358-.238 1.811-.69l2.179-2.179a1.501 1.501 0 0 0 1.494 1.369c.827 0 1.5-.673 1.5-1.5V8.997c-.006-1.416-.894-3.145-2.374-4.626z"/></g><g id="icon_x5F_bg"><path class="st2" d="M11.919 5.078c-1.852-1.856-4.111-2.608-5.04-1.68L6 4.277V8.5c0 .827-.673 1.5-1.5 1.5S3 9.327 3 8.5V7.276l-.603.603c-.928.929-.176 3.186 1.681 5.041 1.856 1.857 4.113 2.611 5.042 1.683L13 10.722V13a.5.5 0 0 0 1 0V9c-.004-1.102-.767-2.608-2.081-3.922zm-1.746 1.34c-.39.391-.334 1.546.551 2.582a7.475 7.475 0 0 1-1.537-1.19C7.477 6.1 7.089 4.304 7.575 3.82c.484-.483 2.279-.096 3.988 1.614a7.475 7.475 0 0 1 1.19 1.537c-1.035-.886-2.189-.943-2.58-.553z"/><path class="st2" d="M4.5 9a.5.5 0 0 0 .5-.5V4a2 2 0 0 1 2.434-1.95c.175-.032.358-.05.549-.05.463 0 .959.103 1.468.279A2.99 2.99 0 0 0 7 1a3 3 0 0 0-3 3v4.5a.5.5 0 0 0 .5.5z"/></g><path class="st3" d="M12.753 6.97a7.51 7.51 0 0 0-1.19-1.537c-1.709-1.71-3.504-2.097-3.988-1.614-.486.485-.098 2.281 1.612 3.991A7.475 7.475 0 0 0 10.724 9c-.885-1.036-.94-2.191-.551-2.582.391-.39 1.545-.333 2.58.552z" id="icon_x5F_fg"/></svg>