<svg xmlns="http://www.w3.org/2000/svg" viewBox="0 0 16 16"><style>.st0{opacity:0}.st0,.st1{fill:#f6f6f6}.st2{fill:#424242}.st3{fill:#f0eff1}</style><g id="outline"><path class="st0" d="M0 0h16v16H0z"/><path class="st1" d="M12.414 10L10 12.414V16H5v-3.586L2.586 10H0V5h3.586L6 2.586V0h5v2.586L13.414 5H16v5h-3.586z"/></g><path class="st2" d="M13 6l-3-3V0H7v3L4 6H1v3h2l3 3v3h3v-3l3-3h3V6h-2zM8 1h1v1H8V1zM2 8V7h1v1H2zm6 6H7v-1h1v1zm1.75-4.75L8 7.5 5.75 9.75 4 8l2.25-2.25L8 7.5l2.25-2.25L12 7 9.75 9.25zM14 8h-1V7h1v1z" id="icon_x5F_bg"/><path class="st3" d="M6.25 5.75L8 7.5 5.75 9.75 4 8l2.25-2.25zM8 7.5l1.75 1.75L12 7l-1.75-1.75L8 7.5zM2 8h1V7H2v1zm11-1v1h1V7h-1zm-6 7h1v-1H7v1zM9 1H8v1h1V1z" id="icon_x5F_fg"/></svg>