<svg xmlns="http://www.w3.org/2000/svg" width="16" height="16"><style type="text/css">.icon-canvas-transparent{opacity:0;fill:#F6F6F6;} .icon-vs-out{fill:#F6F6F6;} .icon-vs-bg{fill:#424242;} .icon-vs-fg{fill:#F0EFF1;}</style><path class="icon-canvas-transparent" d="M16 16h-16v-16h16v16z" id="canvas"/><path class="icon-vs-out" d="M15 15h-14v-15h14v15z" id="outline"/><path class="icon-vs-bg" d="M2 1v13h12v-13h-12zm2 12h-1v-1h1v1zm0-2h-1v-1h1v1zm0-2h-1v-1h1v1zm0-2h-1v-1h1v1zm0-2h-1v-1h1v1zm0-2h-1v-1h1v1zm7 10h-6v-11h6v11zm2 0h-1v-1h1v1zm0-2h-1v-1h1v1zm0-2h-1v-1h1v1zm0-2h-1v-1h1v1zm0-2h-1v-1h1v1zm0-2h-1v-1h1v1z" id="iconBg"/><path class="icon-vs-fg" d="M11 13h-6v-11h6v11zm-7-11h-1v1h1v-1zm0 2h-1v1h1v-1zm0 2h-1v1h1v-1zm0 2h-1v1h1v-1zm0 2h-1v1h1v-1zm0 2h-1v1h1v-1zm9-10h-1v1h1v-1zm0 2h-1v1h1v-1zm0 2h-1v1h1v-1zm0 2h-1v1h1v-1zm0 2h-1v1h1v-1zm0 2h-1v1h1v-1z" id="iconFg"/></svg>