<svg xmlns="http://www.w3.org/2000/svg" viewBox="0 0 16 16"><style>.st0{opacity:0}.st0,.st1{fill:#f6f6f6}.st2{fill:#424242}.st3{fill:#f0eff1}</style><g id="outline"><path class="st0" d="M0 0h16v16H0z"/><path class="st1" d="M9 3c-.893 0-1.738.201-2.5.553L8 1.302V0H0v1.302l2 3V8h1.09c-.055.326-.09.659-.09 1 0 3.309 2.691 6 6 6s6-2.691 6-6-2.691-6-6-6z"/></g><g id="icon_x5F_bg"><path class="st2" d="M9 4c-1.131 0-2.162.39-3 1.022V8a2 2 0 1 1 4.001.001A2 2 0 0 1 6 8H4.101A5 5 0 0 0 9 14a5 5 0 0 0 5-5 5 5 0 0 0-5-5z"/><path class="st2" d="M5 7V4l2-3H1l2 3v3z"/></g><circle class="st3" cx="8" cy="8" r="2" id="icon_x5F_fg"/></svg>