<svg xmlns="http://www.w3.org/2000/svg" viewBox="0 0 16 16"><style>.st0{opacity:0}.st0,.st1{fill:#f6f6f6}.st2{fill:#424242}.st3{fill:#f0eff1}</style><g id="outline"><path class="st0" d="M0 0h16v16H0z"/><path class="st1" d="M12.414 3H8C6.701 3 6 4.012 6 4.965V5H5V3.414l2-2V0H0v1.414l2 2V6h2v10h9v-2h1c1.299 0 2-1.013 2-1.965V6.586L12.414 3z"/></g><g id="icon_x5F_bg"><path class="st2" d="M5 6h1v1H5zM5 8h1v1H5zM5 10h1v1H5zM5 12h1v1H5zM11 14h1v1h-1zM5 14h1v1H5zM7 14h1v1H7zM9 14h1v1H9zM3 3v2h1V3l2-2H1zM9 8h4v1H9zM9 6h2v1H9zM9 10h4v1H9z"/><path class="st2" d="M12 4H8c-1 0-1 .965-1 .965V12c0 1 .965 1 .965 1H14c1 0 1-.965 1-.965V7l-3-3zm2 8H8V5h4v2h2v5z"/></g><path class="st3" d="M12 7V5H8v7h6V7h-2zM9 6h2v1H9V6zm4 5H9v-1h4v1zm0-2H9V8h4v1z" id="icon_x5F_fg"/></svg>