<svg xmlns="http://www.w3.org/2000/svg" viewBox="0 0 16 16"><style>.st0{opacity:0}.st0,.st1{fill:#f6f6f6}.st2{fill:#424242}.st3{fill:#f0eff1}</style><g id="outline"><path class="st0" d="M0 0h16v16H0z"/><path class="st1" d="M8 16c-4.411 0-8-3.589-8-8s3.589-8 8-8 8 3.589 8 8-3.589 8-8 8z"/></g><g id="icon_x5F_bg"><path class="st2" d="M12 5L9 9v3H7V9L4 5h8z"/><path class="st2" d="M8 1a7 7 0 1 0 0 14A7 7 0 0 0 8 1zm0 13c-3.309 0-6-2.691-6-6s2.691-6 6-6 6 2.691 6 6-2.691 6-6 6z"/></g><path class="st3" d="M8 2C4.691 2 2 4.691 2 8s2.691 6 6 6 6-2.691 6-6-2.691-6-6-6zm1 7v3H7V9L4 5h8L9 9z" id="icon_x5F_fg"/></svg>