<svg xmlns="http://www.w3.org/2000/svg" viewBox="0 0 16 16"><style>.st0{opacity:0}.st0,.st1{fill:#f6f6f6}.st2{fill:#f0eff1}.st3{fill:#424242}</style><g id="outline"><path class="st0" d="M0 0h16v16H0z"/><path class="st1" d="M16 0H1v9H0v1.414l1 1V14h2v2h3v-2h10z"/></g><g id="icon_x5F_fg"><path class="st2" d="M10.51 6.859a.706.706 0 0 0-.623-.35.735.735 0 0 0-.361.09.849.849 0 0 0-.279.253c-.079.11-.14.24-.184.392s-.066.322-.066.507v.551c0 .148.021.287.062.415.04.128.096.24.168.334.073.097.16.174.258.227a.733.733 0 0 0 .709-.018.803.803 0 0 0 .287-.289c.08-.128.141-.29.184-.486.044-.195.066-.421.066-.676 0-.2-.02-.379-.057-.539a1.333 1.333 0 0 0-.164-.411z"/><path class="st2" d="M3 2v7h.896c-.002-.032-.015-.058-.015-.091 0-.179.023-.347.071-.502a1.176 1.176 0 0 1 .614-.72c.16-.081.351-.136.573-.166l1.124-.168c0-.3-.063-.517-.189-.653-.129-.135-.308-.203-.54-.203-.233 0-.461.042-.684.128-.221.085-.42.198-.593.341v-.837c.056-.039.132-.079.232-.124a3.27 3.27 0 0 1 .732-.212c.139-.023.273-.036.403-.036.255 0 .477.036.663.11.187.074.341.181.462.321.12.141.211.313.271.513.061.202.09.435.09.694V9h1.132V3.614h.76V6.51h.014c.059-.115.126-.219.197-.315.074-.094.155-.175.247-.242a1.098 1.098 0 0 1 .67-.217c.241 0 .45.055.625.168.173.11.317.261.43.453.112.192.194.413.248.667.054.253.081.52.081.801 0 .333-.034.636-.1.919a2.35 2.35 0 0 1-.298.732 1.448 1.448 0 0 1-.483.483 1.247 1.247 0 0 1-.664.175.997.997 0 0 1-.318-.047.91.91 0 0 1-.26-.132 1.111 1.111 0 0 1-.209-.202 1.558 1.558 0 0 1-.165-.249h-.014v.527H9v.383L7.414 12H14V2H3zm10 7.985h-1V4h1v5.985z"/><path class="st2" d="M6.08 9c.043-.068.091-.132.119-.212.041-.124.063-.256.063-.397v-.377l-.83.119a1.448 1.448 0 0 0-.349.085.602.602 0 0 0-.213.145.454.454 0 0 0-.106.195c-.019.075-.03.16-.03.254A.62.62 0 0 0 4.77 9h1.31z"/></g><g id="icon_x5F_bg"><path class="st3" d="M1 10l3 3v2h1v-2l3-3zM12 4h1v5.985h-1z"/><path class="st3" d="M2 1v8h1V2h11v10H7.414l-1 1H15V1z"/><path class="st3" d="M4.77 9a.62.62 0 0 1-.036-.188c0-.094.011-.179.03-.254a.455.455 0 0 1 .107-.196.615.615 0 0 1 .213-.145c.09-.036.207-.066.349-.085l.83-.119v.377c0 .142-.022.273-.064.397-.028.081-.076.145-.119.213h1.031V7.396c0-.26-.03-.492-.09-.694-.06-.2-.151-.373-.271-.513a1.182 1.182 0 0 0-.463-.322 1.795 1.795 0 0 0-.663-.11c-.13 0-.263.013-.402.036a3.453 3.453 0 0 0-.733.212c-.1.045-.176.085-.232.124v.837c.173-.143.372-.256.593-.341.223-.085.451-.128.684-.128.232 0 .411.068.539.203.126.136.189.354.189.653l-1.123.168c-.222.03-.413.085-.573.166a1.186 1.186 0 0 0-.613.72 1.697 1.697 0 0 0-.072.502c0 .033.013.059.015.091h.874zM11.433 7.023a2.243 2.243 0 0 0-.248-.667 1.319 1.319 0 0 0-.43-.453 1.128 1.128 0 0 0-.625-.168c-.135 0-.256.019-.367.057a1.225 1.225 0 0 0-.549.403c-.071.096-.139.2-.197.315h-.014V3.614h-.76V9H9v1.031h.003v-.527h.014c.047.089.103.172.165.249.062.076.13.145.209.202a.91.91 0 0 0 .26.132c.096.032.202.047.318.047.251 0 .473-.058.664-.175.192-.114.353-.276.483-.483.131-.204.23-.449.298-.732.065-.283.1-.587.1-.919a3.9 3.9 0 0 0-.081-.802zm-.768 1.462a1.537 1.537 0 0 1-.184.486.803.803 0 0 1-.287.289.733.733 0 0 1-.709.018.812.812 0 0 1-.258-.226 1.048 1.048 0 0 1-.168-.334 1.356 1.356 0 0 1-.062-.415v-.552c0-.185.022-.355.066-.507s.104-.281.184-.392a.823.823 0 0 1 .278-.252.735.735 0 0 1 .361-.09.7.7 0 0 1 .356.09c.104.06.193.147.267.26.072.115.127.251.164.411.037.16.057.339.057.539.001.254-.021.48-.065.675z"/></g></svg>