<svg xmlns="http://www.w3.org/2000/svg" viewBox="0 0 16 16"><style>.icon-canvas-transparent{opacity:0;fill:#f6f6f6}.icon-vs-out{fill:#f6f6f6}.icon-vs-bg{fill:#424242}</style><path class="icon-canvas-transparent" d="M16 0v16H0V0h16z" id="canvas"/><path class="icon-vs-out" d="M6.36 11.142A4.424 4.424 0 0 1 5.488 9H2V5.026L0 2.528V0h8v2.526l-2 2.5V6.33C6.754 4.949 8.202 4 9.883 4a4.446 4.446 0 0 1 4.44 4.441c0 .991-.33 1.936-.918 2.7a5.64 5.64 0 0 1 2.052 3.749l.121 1.11H4.186l.122-1.109a5.635 5.635 0 0 1 2.052-3.749z" id="outline"/><g id="iconBg"><path class="icon-vs-bg" d="M7 1H1v1.177l2 2.498V8h2V4.675l2-2.5V1zM4 4.325L2.139 2H5.86L4 4.325zm7.786 6.979A3.439 3.439 0 0 0 9.883 5a3.446 3.446 0 0 0-3.442 3.441c0 1.194.612 2.245 1.538 2.863A4.62 4.62 0 0 0 5.302 15h1.013c.246-1.757 1.744-3.118 3.568-3.118 1.823 0 3.32 1.361 3.567 3.118h1.013a4.621 4.621 0 0 0-2.677-3.696zm-1.903-.422a2.443 2.443 0 0 1-2.441-2.441A2.442 2.442 0 0 1 9.883 6a2.443 2.443 0 0 1 2.44 2.441 2.443 2.443 0 0 1-2.44 2.441z"/></g></svg>