<svg xmlns="http://www.w3.org/2000/svg" viewBox="0 0 16 16"><style>.icon-canvas-transparent{opacity:0;fill:#f6f6f6}.icon-vs-out{fill:#f6f6f6}.icon-vs-bg{fill:#424242}.icon-folder{fill:#dcb67a}</style><path class="icon-canvas-transparent" d="M0 .001h16v16H0v-16z" id="canvas"/><path class="icon-vs-out" d="M0 2.97v9c0 .617.227 1.102.57 1.434.57.545 1.43.566 1.43.566h11.677L16 8.166V6.97h-1v-2c0-1.299-1.03-2-2-2h-2.884l-1-2H2c-.995 0-2 .697-2 2z" id="outline"/><g id="iconBg"><path class="icon-folder" d="M15 8l-2 5-6.476.011v-1.73L10 8.07V8h3V5H9L8 3H2v3H1V3.001C1 2.001 2 2 2 2h6.5l1 2H13c-.236 0 1 .001 1 1.001V8h1zM2 9.937l-1-.934v2.998c0 .97.94.999.997.999H2V9.937zm1.339 1.447l-.661-.615L2 13h1.304l.035-1.616z"/><path class="icon-vs-bg" d="M4.429 15.001h1.143v-4.166L9 7.636v-.635H1v.634l3.429 3.2v4.166z"/></g></svg>