<svg xmlns="http://www.w3.org/2000/svg" viewBox="0 0 16 16"><style>.icon-canvas-transparent{opacity:0;fill:#f6f6f6}.icon-vs-out{fill:#f6f6f6}.icon-vs-bg{fill:#424242}.icon-folder{fill:#dcb67a}.icon-vs-fg_x0020_{fill:#f0eff1}</style><path class="icon-canvas-transparent" d="M0 0h16v16H0V0z" id="canvas"/><path class="icon-vs-out" d="M15 4.5v8c0 .827-.677 1.5-1.504 1.5H7v2H3v-2H1.5C.673 14 0 13.327 0 12.5v-10C0 1.673.673 1 1.5 1h8.11l1 2h2.886C14.323 3 15 3.673 15 4.5z" id="outline"/><g id="iconBg"><path class="icon-folder" d="M3 13H1.5a.5.5 0 0 1-.5-.5V9.002l2 2.267V13zm11-8.5v8c0 .276-.227.5-.504.5H7v-1.731l3-3.2V6H1V2.5a.5.5 0 0 1 .5-.5h7.492l1 2h3.504c.277 0 .504.224.504.5zM8.874 4l-.5-1H2v1h6.874z"/><path class="icon-vs-bg" d="M4.429 15h1.143v-4.166L9 7.634V7H1v.634l3.429 3.2V15z"/></g><path class="icon-vs-fg_x0020_" d="M2 3h6.374l.5 1H2V3z" id="iconFg"/></svg>