<svg xmlns="http://www.w3.org/2000/svg" viewBox="0 0 16 16"><style>.st0{opacity:0}.st0,.st1{fill:#f6f6f6}.st2{fill:#424242}.st3{fill:#f0eff1}</style><g id="outline"><path class="st0" d="M0 0h16v16H0z"/><path class="st1" d="M10 4a5.968 5.968 0 0 0-4 1.537V3.414l2-2V0H1v1.414l2 2V6h2.537A5.968 5.968 0 0 0 4 10a6 6 0 1 0 6-6z"/></g><g id="icon_x5F_bg"><path class="st2" d="M2 1l2 2v2h1V3l2-2zM10 10V7H9v4h3v-1z"/><path class="st2" d="M10 5a5 5 0 0 0-5 5 5 5 0 0 0 5 5 5 5 0 0 0 5-5 5 5 0 0 0-5-5zm0 8.881a3.882 3.882 0 1 1 .001-7.763A3.882 3.882 0 0 1 10 13.88z"/></g><path class="st3" d="M10 6.119a3.882 3.882 0 1 0 .001 7.763A3.882 3.882 0 0 0 10 6.12zM12 11H9V7h1v3h2v1z" id="icon_x5F_fg"/></svg>