<svg xmlns="http://www.w3.org/2000/svg" viewBox="0 0 16 16"><style>.st0{opacity:0}.st0,.st1{fill:#f6f6f6}.st2{fill:#424242}.st3{fill:#f0eff1}</style><g id="outline"><path class="st0" d="M0 0h16v16H0z"/><path class="st1" d="M11.414 4H6v-.586l2-2V0H1v1.414l2 2V6h2v7c0 1.299 1.012 2 2 2h6c1.299 0 2-1.013 2-2V7.586L11.414 4z"/></g><g id="icon_x5F_bg"><path class="st2" d="M7 1L5 3v2H4V3L2 1zM11 5H7c-1 0-1 .965-1 .965V13c0 1 .965 1 .965 1H13c1 0 1-.965 1-.965V8l-3-3zm2 8H7V6h4v2h2v5z"/></g><path class="st3" d="M13 9v4H7V6h4v2h2v1z" id="icon_x5F_fg"/></svg>