<svg xmlns="http://www.w3.org/2000/svg" viewBox="0 0 16 16"><style>.icon-canvas-transparent{opacity:0;fill:#f6f6f6}.icon-vs-out{fill:#f6f6f6}.icon-vs-bg{fill:#424242}.icon-vs-fg{fill:#f0eff1}.icon-vs-red{fill:#e51400}.icon-white{fill:#fff}</style><path class="icon-canvas-transparent" d="M16 16H0V0h16v16z" id="canvas"/><path class="icon-vs-out" d="M16 1v14H7.297c-.77.616-1.734 1-2.797 1s-2.027-.384-2.797-1H0V1h16z" id="outline"/><path class="icon-vs-bg" d="M15 2v12H8.24a4.51 4.51 0 0 0 .484-1H14V5H2v2.76a4.5 4.5 0 0 0-1 .943V2h14z" id="iconBg"/><path class="icon-vs-fg" d="M14 5v8H8.725c.167-.472.275-.971.275-1.5a4.5 4.5 0 0 0-7-3.74V5h12z" id="iconFg"/><path class="icon-vs-red" d="M4.5 8a3.5 3.5 0 1 0 0 7 3.5 3.5 0 0 0 0-7zM6 13H3v-3h3v3z" id="notificationBg"/><path class="icon-white" d="M3 10h3v3H3v-3z" id="notificationFg"/></svg>