<svg xmlns="http://www.w3.org/2000/svg" width="16" height="16"><style type="text/css">.icon-canvas-transparent{opacity:0;fill:#F6F6F6;} .icon-vs-out{fill:#F6F6F6;} .icon-vs-bg{fill:#424242;} .icon-vs-fg{fill:#F0EFF1;}</style><path class="icon-canvas-transparent" d="M16 16h-16v-16h16v16z" id="canvas"/><path class="icon-vs-out" d="M16 11h-2v2h-14v-9h2v-2h14v9z" id="outline"/><path class="icon-vs-bg" d="M14.999 3v7h-1v-6h-11v-1h12zm-6 5.5c0-1.381-.895-2.5-2-2.5s-2 1.119-2 2.5.895 2.5 2 2.5 2-1.119 2-2.5zm-6-.5h1v1h-1v-1zm7 0h1v1h-1v-1zm-9-3v7h12v-7h-12zm11 5h-1v1h-8v-1h-1v-3h1v-1h8v1h1v3z" id="iconBg"/><path class="icon-vs-fg" d="M10.999 6h-4c1.105 0 2 1.119 2 2.5s-.895 2.5-2 2.5h4v-1h1v-3h-1v-1zm0 3h-1v-1h1v1zm-6-.5c0-1.381.895-2.5 2-2.5h-4v1h-1v3h1v1h4c-1.105 0-2-1.119-2-2.5zm-1 .5h-1v-1h1v1z" id="iconFg"/></svg>