<svg xmlns="http://www.w3.org/2000/svg" viewBox="0 0 16 16"><style>.st0{opacity:0}.st0,.st1{fill:#f6f6f6}.st2{fill:#424242}.st3{fill:#00539c}.st4{fill:#f0eff1}</style><g id="outline"><path class="st0" d="M0 0h16v16H0z"/><path class="st1" d="M11.5 5c-.19 0-.374.027-.557.056L12 4 8 0H2l2 2H2v4h2L2 8h6l.056-.057A3.54 3.54 0 0 0 8 8.5c0 .322.046.639.137.949L5.5 12 8 14.5l2.551-2.637c.31.091.627.137.949.137 1.93 0 3.5-1.57 3.5-3.5S13.43 5 11.5 5z"/></g><path class="st2" d="M14 8.5a2.5 2.5 0 0 1-2.5 2.5 2.47 2.47 0 0 1-1.188-.313L8 13l-1-1 2.313-2.313A2.462 2.462 0 0 1 9 8.5a2.5 2.5 0 1 1 5 0zm-1 0a1.5 1.5 0 1 0-3.001.001A1.5 1.5 0 0 0 13 8.5z" id="icon_x5F_bg"/><path class="st3" d="M5 7l2-2H3V3h4L5 1h2l3 3-3 3z" id="color_x5F_importance"/><circle class="st4" cx="11.5" cy="8.5" r="1.5" id="icon_x5F_fg"/></svg>