<svg xmlns="http://www.w3.org/2000/svg" viewBox="0 0 16 16"><style>.st0{opacity:0}.st0,.st1{fill:#f6f6f6}.st2{fill:#424242}.st3{fill:#00539c}.st4{fill:#f0eff1}</style><g id="outline"><path class="st0" d="M0 0h16v16H0z"/><path class="st1" d="M14 2H3v5h1.059A3.484 3.484 0 0 0 3 9.5c0 .322.046.639.137.949L.586 13 3 15.414l2.551-2.551c.309.091.628.137.949.137 1.93 0 3.5-1.57 3.5-3.5 0-.172-.026-.336-.051-.5H14V2z"/></g><path class="st2" d="M9 3H4v3h5V3zm4 0h-3v5h3V3z" id="icon_x5F_bg"/><path class="st3" d="M6.5 7A2.5 2.5 0 0 0 4 9.5c0 .432.12.832.313 1.188L2 13l1 1 2.313-2.313c.354.194.754.313 1.187.313a2.5 2.5 0 1 0 0-5zm0 4a1.5 1.5 0 1 1 .001-3.001A1.5 1.5 0 0 1 6.5 11z" id="color_x5F_action"/><path class="st4" d="M6.5 8a1.5 1.5 0 1 1-.001 3.001A1.5 1.5 0 0 1 6.5 8z" id="icon_x5F_fg"/></svg>