<svg xmlns="http://www.w3.org/2000/svg" viewBox="0 0 16 16"><style>.st0{opacity:0}.st0,.st1{fill:#f6f6f6}.st2{fill:#424242}.st3{fill:#00539c}.st4{fill:#f0eff1}</style><g id="outline"><path class="st0" d="M0 0h16v16H0z"/><path class="st1" d="M12.5 5c-.539 0-1.043.133-1.5.351V2H8.414l2-2H5.586l-4 4 4 4h3.465c-.024.164-.051.328-.051.5 0 .322.046.639.137.949L6.5 12 9 14.5l2.551-2.637c.31.091.627.137.949.137 1.93 0 3.5-1.57 3.5-3.5S14.43 5 12.5 5z"/></g><path class="st2" d="M15 8.5a2.5 2.5 0 0 1-2.5 2.5 2.47 2.47 0 0 1-1.188-.313L9 13l-1-1 2.313-2.313A2.462 2.462 0 0 1 10 8.5a2.5 2.5 0 1 1 5 0zm-1 0a1.5 1.5 0 1 0-3.001.001A1.5 1.5 0 0 0 14 8.5z" id="icon_x5F_bg"/><path class="st3" d="M8 7H6L3 4l3-3h2L6 3h4v2H6z" id="color_x5F_importance"/><circle class="st4" cx="12.5" cy="8.5" r="1.5" id="icon_x5F_fg"/></svg>