<svg xmlns="http://www.w3.org/2000/svg" viewBox="0 0 16 16"><style>.st0{opacity:0}.st0,.st1{fill:#f6f6f6}.st2{fill:#424242}.st3{fill:#00539c}.st4{fill:#f0eff1}</style><g id="outline"><path class="st0" d="M0 0h16v16H0z"/><path class="st1" d="M10.061 1H4c-.97 0-2 .701-2 2v8.586l-2 2v.828L1.586 16h.828l1.073-1.073c.169.044.342.073.513.073h8c1.299 0 2-1.03 2-2V4.556L10.061 1z"/></g><g id="icon_x5F_bg"><path class="st2" d="M4.414 14H5.5c-.322 0-.64-.046-.949-.137L4.414 14zM9.641 2H3.964S3 2 3 3v5.069a3.492 3.492 0 0 1 1-.704V3h5v3h3v7H7.942c-.631.616-1.492 1-2.442 1h6.465c1 0 1.035-1 1.035-1V5L9.641 2z"/></g><path class="st3" d="M5.5 8.016A2.486 2.486 0 0 0 3 10.5c0 .432.12.832.313 1.188L1 14l1 1 2.313-2.313c.354.194.754.313 1.187.313A2.5 2.5 0 0 0 8 10.5a2.486 2.486 0 0 0-2.5-2.484zM5.5 12a1.5 1.5 0 1 1 .001-3.001A1.5 1.5 0 0 1 5.5 12z" id="color_x5F_action"/><g id="icon_x5F_fg"><path class="st4" d="M9 6V3H4v4.365c.457-.218.961-.35 1.5-.35C7.43 7.016 9 8.579 9 10.5c0 .979-.407 1.864-1.058 2.5H12V6H9z"/><path class="st4" d="M4.049 10.447a1.5 1.5 0 1 0 3.001-.001 1.5 1.5 0 0 0-3.001.001z"/></g></svg>