<svg xmlns="http://www.w3.org/2000/svg" viewBox="0 0 16 16"><style>.st0{opacity:0}.st0,.st1{fill:#f6f6f6}.st2{fill:#424242}.st3{fill:#00539c}.st4{fill:#f0eff1}</style><g id="outline"><path class="st0" d="M0 0h16v16H0z"/><path class="st1" d="M12.65 6.235c.231-.547.35-1.136.35-1.735C13 2.019 10.981 0 8.5 0A4.505 4.505 0 0 0 4 4.5c0 .925.282 1.784.762 2.5H2v2L0 7v6l3 3h2l3-3V8.949c.167.019.329.051.5.051.599 0 1.188-.12 1.735-.35L14 12.414l2-2v-.828l-3.35-3.351z"/></g><path class="st2" d="M11.422 6.421A3.485 3.485 0 0 0 12 4.5 3.5 3.5 0 1 0 8.5 8c.711 0 1.369-.215 1.922-.578L14 11l1-1-3.578-3.579zM8.5 7a2.5 2.5 0 1 1 0-5 2.5 2.5 0 0 1 0 5z" id="icon_x5F_bg"/><path class="st3" d="M5 12l2-2v2l-3 3-3-3v-2l2 2V8h2z" id="color_x5F_action"/><circle class="st4" cx="8.5" cy="4.5" r="2.5" id="icon_x5F_fg"/></svg>