<svg xmlns="http://www.w3.org/2000/svg" viewBox="0 0 16 16"><style>.st0{opacity:0;fill:#f0eff1}.st1{fill:#f6f6f6}.st2{fill:#424242}.st3{fill:#f0eff1}</style><g id="outline"><path class="st0" d="M0 0h16v16H0z"/><path class="st1" d="M16.025.052h-15v8.193C1.007 8.494 1 8.748 1 9H0v7h9v-2.948h7.025v-13z"/></g><g id="icon_x5F_bg"><path class="st2" d="M2.04 1h5.88v2.973H2.04zM9.092 1h5.697v2.973H9.092zM5.162 5.027c.68.063 1.408.257 1.961.818.562.57.771 1.354.843 2.155h2.943V5.027H5.162zM12.029 5.027h2.887V8h-2.887zM9.092 9h5.697v2.973H9.092z"/><path class="st2" d="M7 10V9c0-2.32-.567-3-2.5-3S2 6.765 2 9v1H1v5h7v-5H7zm-2 4H4v-3h1v3zm-2-4v-.5c0-1.104-.234-2.418 1.568-2.418C6.203 7.082 6 8.396 6 9.5v.5H3z"/></g><path class="st3" d="M4 11h1v3H4z" id="icon_x5F_fg"/></svg>