<svg xmlns="http://www.w3.org/2000/svg" viewBox="0 0 16 16"><style>.st0{opacity:0}.st0,.st1{fill:#f6f6f6}.st2{fill:#424242}</style><g id="outline"><path class="st0" d="M0 0h16v16H0z"/><path class="st1" d="M16 15H1V0h15v15z"/></g><path class="st2" d="M3 3H2V1h3v1H3v1zm11 0h1V1h-3v1h2v1zm0 10h-2v1h3v-2h-1v1zM3 12H2v2h3v-1H3v-1zm8-11H6v1h5V1zm0 12H6v1h5v-1zM3 4H2v3h1V4zm0 4H2v3h1V8zm12-4h-1v3h1V4zm0 4h-1v3h1V8zM4 5l1 1V4.5L6.5 6h1l-2-2H7L6 3H4v2zm9-2h-2l-1 1h1.5l-2 2h1L12 4.5V6l1-1V3zm0 7l-1-1v1.5L10.5 9h-1l2 2H10l1 1h2v-2zm-9 2h2l1-1H5.5l2-2h-1L5 10.5V9l-1 1v2z" id="icon_x5F_bg"/></svg>