<svg xmlns="http://www.w3.org/2000/svg" viewBox="0 0 16 16" enable-background="new 0 0 16 16"><style type="text/css">.icon-canvas-transparent{opacity:0;fill:#F6F6F6;} .icon-vs-out{fill:#F6F6F6;} .icon-vs-bg{fill:#424242;}</style><path class="icon-canvas-transparent" d="M16 16h-16v-16h16v16z" id="canvas"/><path class="icon-vs-out" d="M16 6v-6h-6v3h-4v-3h-6v6h3v4h-3v6h6v-3h4v3h6v-6h-3v-4h3z" id="outline"/><path class="icon-vs-bg" d="M15 5v-4h-4v1h2.293l-2 2h-6.586l-2-2h2.293v-1h-4v4h1v-2.293l2 2v6.586l-2 2v-2.293h-1v4h4v-1h-2.293l2-2h6.586l2 2h-2.293v1h4v-4h-1v2.293l-2-2v-6.586l2-2v2.293h1zm-4 6h-6v-6h6v6z" id="iconBg"/></svg>