<svg xmlns="http://www.w3.org/2000/svg" viewBox="0 0 16 16"><style>.st0{opacity:0}.st0,.st1{fill:#f6f6f6}.st2{fill:#f0eff1}.st3{fill:none}.st4{fill:#424242}</style><g id="outline"><path class="st0" d="M0 0h16v16H0z"/><path class="st1" d="M16 1.015H0V16h11.046v-1.01H16z"/></g><g id="icon_x5F_fg"><path class="st2" d="M2 5v4h9v4h3V5z"/><path class="st2" d="M2 14h1v-2h1v2h3v-2h1v2h1v-3H2z"/><path class="st3" d="M14 5H2v3.994h1V10h7v3h4z"/><path class="st3" d="M9 11l-7 1v2h1v-2h1v2h3v-2h1v1h1z"/><path class="st4" d="M1 2v6.994h1V5h12v8h-3v1h4V2z"/><path class="st4" d="M1 10l-.02 5H10v-5H1zm8 3v1H8v-2H7v2H6v-2H5v2H4v-2H3v2H2v-3h7v2z"/></g></svg>