<svg xmlns="http://www.w3.org/2000/svg" viewBox="0 0 16 16"><style>.st0{opacity:0}.st0,.st1{fill:#f6f6f6}.st2{fill:#424242}.st3{fill:#e51400}.st4{fill:#fff}</style><g id="outline"><path class="st0" d="M0 0h16v16H0z"/><path class="st1" d="M11.5 7c-1.4 0-2.635.653-3.46 1.655l-.441-.75L13.899 2H.856l6.278 10.547A4.496 4.496 0 0 0 11.5 16a4.5 4.5 0 0 0 0-9z"/></g><path class="st2" d="M7.382 9.51L6.33 7.723 11.37 3H2.55l4.41 8h.053c.017 0 .143-.975.369-1.49z" id="icon_x5F_bg"/><path class="st3" d="M11.5 8a3.5 3.5 0 1 0 0 7 3.5 3.5 0 0 0 0-7zm1.854 4.646l-.707.707-1.147-1.146-1.146 1.147-.707-.707 1.147-1.146-1.147-1.146.707-.707 1.146 1.147 1.146-1.147.707.707-1.146 1.145 1.147 1.146z" id="not_x5F_bg"/><path class="st4" d="M13.354 12.646l-.707.707-1.147-1.146-1.146 1.147-.707-.707 1.147-1.146-1.147-1.146.707-.707 1.146 1.147 1.146-1.147.707.707-1.146 1.145 1.147 1.146z" id="not_x5F_fg"/></svg>