<svg xmlns="http://www.w3.org/2000/svg" width="16" height="16"><style type="text/css">.icon-canvas-transparent{opacity:0;fill:#F6F6F6;} .icon-vs-out{fill:#F6F6F6;} .icon-vs-bg{fill:#424242;} .icon-vs-fg{fill:#F0EFF1;}</style><path class="icon-canvas-transparent" d="M16 16h-16v-16h16v16z" id="canvas"/><path class="icon-vs-out" d="M16 15h-16v-15h16v15z" id="outline"/><path class="icon-vs-bg" d="M1 1v13h14v-13h-14zm3 12h-2v-2h2v2zm0-3h-2v-2h2v2zm0-3h-2v-2h2v2zm0-3h-2v-2h2v2zm10 9h-9v-2h9v2zm0-3h-9v-2h9v2zm0-3h-9v-2h9v2zm0-3h-9v-2h9v2z" id="iconBg"/><path class="icon-vs-fg" d="M14 2v2h-9v-2h9zm-9 5h9v-2h-9v2zm0 3h9v-2h-9v2zm0 3h9v-2h-9v2zm-3-9h2v-2h-2v2zm0 3h2v-2h-2v2zm0 3h2v-2h-2v2zm0 3h2v-2h-2v2z" id="iconFg"/></svg>