<svg xmlns="http://www.w3.org/2000/svg" viewBox="0 0 16 16"><style>.st0{opacity:0}.st0,.st1{fill:#f6f6f6}.st2{fill:#424242}.st3{fill:#f0eff1}</style><g id="outline"><path class="st0" d="M0 0h16v16H0z"/><path class="st1" d="M16 4v12H4v-4.35C1.673 10.823 0 8.606 0 6c0-3.309 2.691-6 6-6 2.606 0 4.823 1.673 5.65 4H16z"/></g><path class="st2" d="M15 5v10H5v-3.09c.326.055.659.09 1 .09v2h8V6h-2c0-.341-.035-.674-.09-1H15zm-4 1A5 5 0 1 1 1 6a5 5 0 0 1 10 0zm-1 0a4 4 0 1 0-8 0 4 4 0 0 0 8 0z" id="icon_x5F_bg"/><path class="st3" d="M14 6v8H6v-2c3.309 0 6-2.691 6-6h2zM6 2a4 4 0 1 0 0 8 4 4 0 0 0 0-8z" id="icon_x5F_fg"/></svg>