<svg xmlns="http://www.w3.org/2000/svg" viewBox="0 0 16 16"><style>.st0{opacity:0}.st0,.st1{fill:#f6f6f6}.st2{fill:#424242}.st3{fill:#f0eff1}</style><g id="outline"><path class="st0" d="M0 0h16v16H0z"/><path class="st1" d="M1.063 0h13.938v15H1.063z"/></g><g id="icon_x5F_bg"><path class="st2" d="M2 1v13h12.001V1H2zm11.001 12H3V2h10.001v11z"/><path class="st2" d="M4.002 6h2v6h-2zM7.001 6h2v6h-2zM10.001 6h2v6h-2zM4.002 3h2v2h-2zM7.002 3h4.999v2H7.002z"/></g><path class="st3" d="M3 2v11h10V2H3zm3.002 10h-2V6h2v6zm0-7h-2V3h2v2zm2.999 7h-2V6h2v6zm3 0h-2V6h2v6zm0-7.001h-5V3h5v1.999z" id="icon_x5F_fg"/></svg>