<svg xmlns="http://www.w3.org/2000/svg" viewBox="0 0 16 16"><style>.st0{opacity:0}.st0,.st1{fill:#f6f6f6}.st2{fill:#424242}.st3{fill:#f0eff1}</style><g id="outline"><path class="st0" d="M0 0h16v16H0z"/><path class="st1" d="M14.68 2L11 4.628V0H5.586L3 2.586V3.5h2.025L3.19 5.335 1.32 4H0v12h1.321L9.4 10.229l6.6 4.714V2z"/></g><g id="icon_x5F_bg"><path class="st2" d="M1 15l7-5-7-5v10zm1-8.057L6.279 10 2 13.057V6.943zM8 8l7 5V3zM5.53 6.53L8.5 3.561V6.5L10 5V1H6L4.5 2.5h2.939L4.47 5.47z"/></g><path class="st3" d="M2 6.943v6.114L6.279 10z" id="icon_x5F_fg"/></svg>