<svg xmlns="http://www.w3.org/2000/svg" viewBox="0 0 16 16"><style>.st0{opacity:0}.st0,.st1{fill:#f6f6f6}.st2{fill:#424242}.st3{fill:#f0eff1}</style><g id="outline"><path class="st0" d="M0 0h16v16H0z"/><path class="st1" d="M11.473 2.059L12 1.321V0H0v1.321L4.771 8 0 14.68V16h12v-1.32L10.086 12H14V9.414l.586.586H16V6.586z"/></g><g id="icon_x5F_bg"><path class="st2" d="M1 15h10L6 8l-5 7zm1.943-1L6 9.721 9.057 14H2.943zM1 1l5 7 5-7zM12 4L9 7v2l2-2v4h2V7l2 2V7z"/></g><path class="st3" d="M6 9.721L2.943 14h6.114z" id="icon_x5F_fg"/></svg>