<svg xmlns="http://www.w3.org/2000/svg" viewBox="0 0 16 16"><style>.st0{opacity:0}.st0,.st1{fill:#f6f6f6}.st2{fill:#424242}.st3{fill:#f0eff1}</style><g id="outline"><path class="st0" d="M0 0h16v16H0z"/><path class="st1" d="M14.679 4l-.738.527L9.414 0H6v1.414L6.586 2H4v3.914L1.32 4H0v12h1.321L8 11.229 14.679 16H16V4z"/></g><g id="icon_x5F_bg"><path class="st2" d="M1 15l7-5-7-5v10zm1-8.057L6.279 10 2 13.057V6.943zM8 10l7 5V5zM7 7h2l3-3-3-3H7l2 2H5v2h4z"/></g><path class="st3" d="M2 6.943v6.114L6.279 10z" id="icon_x5F_fg"/></svg>