<svg xmlns="http://www.w3.org/2000/svg" viewBox="0 0 16 16"><style>.st0{opacity:0}.st0,.st1{fill:#f6f6f6}.st2{fill:#424242}.st3{fill:#f0eff1}</style><g id="outline"><path class="st0" d="M0 0h16v16H0z"/><path class="st1" d="M11 5L7 2v2H5v1L1 2v13l7-5.25L15 15V2z"/></g><path class="st2" d="M8 7V6H6V5h2V4l2 1.5L8 7zM2 4l6 4.5L2 13V4zm1 6.75L6 8.5 3 6.25v4.5zM14 4v9L8 8.5 14 4zm-1 2.25L10 8.5l3 2.25v-4.5z" id="icon_x5F_bg"/><path class="st3" d="M6 8.5l-3 2.25v-4.5L6 8.5zm7 2.25v-4.5L10 8.5l3 2.25z" id="icon_x5F_fg"/></svg>