<svg xmlns="http://www.w3.org/2000/svg" viewBox="0 0 16 16"><style>.st0{opacity:0}.st0,.st1{fill:#f6f6f6}.st2{fill:#424242}.st3{fill:#f0eff1}</style><g id="outline"><path class="st0" d="M0 0h16v16H0z"/><path class="st1" d="M16 2.586L13.414 0H6v9H0v6h1v1h4v-1h4.124v1H13v-1h1v-5h2z"/></g><g id="icon_x5F_bg"><path class="st2" d="M1 10v4h1v1h2v-1h6v1h2v-1h1v-4H1zm2 2H2v-1h1v1zM15 3v6H7V1h2v3h4V1l2 2zm-3-2h-2v2h2V1z"/></g><g id="icon_x5F_fg"><path class="st3" d="M2 11h1v1H2zM12 1v2h-2V1H9v3h4V1z"/></g></svg>