<svg xmlns="http://www.w3.org/2000/svg" viewBox="0 0 16 16"><style>.icon-canvas-transparent{opacity:0;fill:#f6f6f6}.icon-vs-out{fill:#f6f6f6}.icon-vs-bg{fill:#424242}.icon-vs-fg{fill:#f0eff1}</style><path class="icon-canvas-transparent" d="M16 16H0V0h16v16z" id="canvas"/><path class="icon-vs-out" d="M16 8.414l-4 4-2-2-2 2-2-2-2 2-4-4v-.829l4-4 2 2 2-2 2 2 2-2 4 4v.829z" id="outline"/><path class="icon-vs-bg" d="M15 8l-3 3-1.293-1.293.707-.707.586.586L13.586 8 12 6.414 11.414 7l-.707-.707L12 5l3 3zM7 8l-3 3-3-3 3-3 3 3zM4 9.586L5.586 8 4 6.414 2.414 8 4 9.586zM8 5L6.707 6.293 7.414 7 8 6.414 9.586 8 8 9.586 7.414 9l-.707.707L8 11l3-3-3-3z" id="iconBg"/><g id="iconFg"><path class="icon-vs-fg" d="M13.586 8L12 9.586 11.414 9l1-1-1-1L12 6.414 13.586 8zM7.414 7l1 1-1 1L8 9.586 9.586 8 8 6.414 7.414 7zm-5 1L4 9.586 5.586 8 4 6.414 2.414 8z"/></g></svg>