<svg xmlns="http://www.w3.org/2000/svg" viewBox="0 0 16 16"><style>.st0{opacity:0}.st0,.st1{fill:#f6f6f6}.st2{fill:#424242}</style><g id="outline"><path class="st0" d="M0 0h16v16H0z"/><path class="st1" d="M3 0H1v15h15V0H3z"/></g><path class="st2" d="M8 6H4V3h4v3zm0 1H4v3h4V7zm5-4H9v3h4V3zM3 1H2v1h1V1zm0 2H2v1h1V3zm0 2H2v1h1V5zm0 2H2v1h1V7zm0 2H2v1h1V9zm0 2H2v1h1v-1zm0 2H2v1h1v-1zm2 0H4v1h1v-1zm2 0H6v1h1v-1zm2 0H8v1h1v-1zm2 0h-1v1h1v-1zm2 0h-1v1h1v-1zm2 0h-1v1h1v-1zm0-2h-1v1h1v-1zm0-2h-1v1h1V9zm0-2h-1v1h1V7zm0-2h-1v1h1V5zm0-2h-1v1h1V3zM5 1H4v1h1V1zm2 0H6v1h1V1zm2 0H8v1h1V1zm2 0h-1v1h1V1zm2 0h-1v1h1V1zm2 0h-1v1h1V1z" id="icon_x5F_bg"/></svg>