<svg xmlns="http://www.w3.org/2000/svg" viewBox="0 0 16 16"><style>.st0{opacity:0}.st0,.st1{fill:#f6f6f6}.st2{fill:#424242}</style><g id="outline"><path class="st0" d="M0 0h16v16H0z"/><path class="st1" d="M12.414 4H7.586l2 2H8.414l-3-3h-.828L0 7.586v.828L4.586 13h.828l3-3h1.172l-2 2h4.828L16 8.414v-.828L12.414 4zM5 9.172L3.828 8 5 6.828 6.172 8 5 9.172z"/></g><path class="st2" d="M12 5h-2l2 2H8L5 4 1 8l4 4 3-3h4l-2 2h2l3-3-3-3zm-7 5.586L2.414 8 5 5.414 7.586 8 5 10.586z" id="icon_x5F_bg"/></svg>