<svg xmlns="http://www.w3.org/2000/svg" viewBox="0 0 16 16"><style>.st0{opacity:0}.st0,.st1{fill:#f6f6f6}.st2{fill:#424242}.st3{fill:#393}.st4{fill:#fff}</style><g id="outline"><path class="st0" d="M0 0h16v16H0z"/><path class="st1" d="M16 5.36V2h-2.746l-.237.665a.495.495 0 0 1-.466.335.483.483 0 0 1-.431-.286A4.478 4.478 0 0 0 8.019 0C6.28 0 4.733.985 3.981 2.57c-.002.004-.243.43-.513.43a.495.495 0 0 1-.466-.335L2.765 2H0v3.341c.201.246.434.461.68.659.609.489 1.343.82 2.137.941L2.765 7H0v3.342c.201.245.434.46.68.658a4.45 4.45 0 0 0 2.788 1c1.738 0 3.285-.985 4.052-2.602.004-.008.047-.092.117-.181A4.406 4.406 0 0 0 7 11.5a4.5 4.5 0 0 0 9 0c0-.352-.048-.689-.129-1.016.04-.044.091-.078.129-.124V7h-2.746l-.052-.059A4.5 4.5 0 0 0 15.339 6c.239-.192.465-.402.661-.64z"/></g><path class="st2" d="M.019 3H2.06c.207.581.756 1 1.408 1 .939 0 1.416-1 1.416-1 .56-1.179 1.742-2 3.135-2 1.436 0 2.647.874 3.184 2.111.235.519.74.889 1.348.889.652 0 1.201-.419 1.408-1H16a3.49 3.49 0 0 1-3.449 3c-1.436 0-2.647-.873-3.184-2.111A1.482 1.482 0 0 0 8.019 3C7.017 3 6.603 4 6.603 4c-.56 1.179-1.743 2-3.135 2A3.489 3.489 0 0 1 .019 3zm8 3a3.465 3.465 0 0 0-3.135 2s-.477 1-1.416 1A1.495 1.495 0 0 1 2.06 8H.019a3.489 3.489 0 0 0 3.449 3c1.393 0 2.575-.821 3.135-2 0 0 .414-1 1.416-1 .195 0 .373.049.542.118a4.47 4.47 0 0 1 1.977-1.009A3.426 3.426 0 0 0 8.019 6zm6.278 2c.479.383.873.857 1.162 1.403.272-.417.467-.888.541-1.403h-1.703z" id="icon_x5F_bg"/><path class="st3" d="M14.485 9.721L10.5 13.707l-1.854-1.853.707-.707 1.146 1.147 3.361-3.361A3.466 3.466 0 0 0 11.5 8a3.5 3.5 0 1 0 3.5 3.5c0-.656-.198-1.256-.515-1.779z" id="not_x5F_bg"/><path class="st4" d="M9.354 11.146l-.707.707 1.854 1.853 3.994-3.994a3.486 3.486 0 0 0-.633-.781L10.5 12.293l-1.146-1.147z" id="not_x5F_fg"/></svg>