<svg xmlns="http://www.w3.org/2000/svg" viewBox="0 0 16 16"><style>.st0{opacity:0}.st0,.st1{fill:#f6f6f6}.st2{fill:#424242}</style><g id="outline"><path class="st0" d="M0 0h16v16H0z"/><path class="st1" d="M16 7.36V4h-2.746l-.237.665a.495.495 0 0 1-.466.335.483.483 0 0 1-.431-.286A4.478 4.478 0 0 0 8.019 2c-1.739 0-3.286.985-4.038 2.57-.002.004-.243.43-.513.43a.495.495 0 0 1-.466-.335L2.765 4H0v3.341c.201.246.434.461.68.659.609.489 1.343.82 2.137.941L2.765 9H0v3.342c.201.245.434.46.68.658a4.45 4.45 0 0 0 2.788 1c1.738 0 3.285-.985 4.052-2.602.007-.016.186-.398.499-.398.222 0 .372.156.431.287A4.474 4.474 0 0 0 12.551 14a4.45 4.45 0 0 0 2.788-1c.239-.192.465-.402.661-.64V9h-2.746l-.052-.059A4.5 4.5 0 0 0 15.339 8c.239-.192.465-.402.661-.64z"/></g><path class="st2" d="M.019 5H2.06c.207.581.756 1 1.408 1 .939 0 1.416-1 1.416-1 .56-1.179 1.742-2 3.135-2 1.436 0 2.647.874 3.184 2.111.235.519.74.889 1.348.889.652 0 1.201-.419 1.408-1H16a3.49 3.49 0 0 1-3.449 3c-1.436 0-2.647-.873-3.184-2.111A1.482 1.482 0 0 0 8.019 5C7.017 5 6.603 6 6.603 6c-.56 1.179-1.743 2-3.135 2A3.489 3.489 0 0 1 .019 5zm3.449 8c1.393 0 2.575-.821 3.135-2 0 0 .414-1 1.416-1 .607 0 1.113.37 1.349.889C9.903 12.127 11.115 13 12.551 13A3.489 3.489 0 0 0 16 10h-2.041c-.207.581-.756 1-1.408 1-.607 0-1.113-.37-1.349-.889C10.666 8.874 9.454 8 8.019 8c-1.393 0-2.575.821-3.135 2 0 0-.477 1-1.416 1a1.496 1.496 0 0 1-1.408-1H.019a3.489 3.489 0 0 0 3.449 3z" id="icon_x5F_bg"/></svg>