<svg xmlns="http://www.w3.org/2000/svg" viewBox="0 0 16 16"><style>.icon-canvas-transparent{opacity:0;fill:#f6f6f6}.icon-vs-out{fill:#f6f6f6}.icon-vs-fg{fill:#f0eff1}.icon-folder{fill:#dcb67a}.icon-vs-blue{fill:#1ba1e2}.icon-white{fill:#fff}</style><path class="icon-canvas-transparent" d="M0 0h16v16H0V0z" id="canvas"/><path class="icon-vs-out" d="M16.002 11.5A4.502 4.502 0 0 1 7.76 14H1.5C.673 14 0 13.327 0 12.5v-10C0 1.673.673 1 1.5 1h8.11l1 2h2.886C14.323 3 15 3.673 15 4.5v4.199c1 .77 1.002 1.736 1.002 2.801z" id="outline"/><path class="icon-folder" d="M7 11.5C7 9.015 9.017 7 11.502 7c.924 0 1.498.28 2.498.758V4.5c0-.276-.227-.5-.504-.5H9.992l-1-2H1.5a.5.5 0 0 0-.5.5v10a.5.5 0 0 0 .5.5h5.776A4.445 4.445 0 0 1 7 11.5zM2 3h6.374l.5 1H2V3z" id="iconBg"/><path class="icon-vs-fg" d="M2 3h6.374l.5 1H2V3z" id="iconFg"/><path class="icon-vs-blue" d="M11.5 8a3.5 3.5 0 1 0 0 7 3.5 3.5 0 0 0 0-7zm.5 6h-1v-3h1v3zm0-4h-1V9h1v1z" id="notificationBg"/><path class="icon-white" d="M12 14h-1v-3h1v3zm0-5h-1v1h1V9z" id="notificationFg"/></svg>