<svg xmlns="http://www.w3.org/2000/svg" viewBox="0 0 16 16"><style>.icon-canvas-transparent{opacity:0;fill:#f6f6f6}.icon-vs-out{fill:#f6f6f6}.icon-folder{fill:#dcb67a}.icon-vs-fg{fill:#f0eff1}.icon-vs-red{fill:#e51400}.icon-white{fill:#fff}</style><path class="icon-canvas-transparent" d="M0 0h16v16H0V0z" id="canvas"/><path class="icon-vs-out" d="M16 11.5c0 2.481-2.019 4.5-4.5 4.5a4.496 4.496 0 0 1-3.738-2H1.5C.673 14 0 13.327 0 12.5v-10C0 1.673.673 1 1.5 1h8.11l1 2h2.886c.827 0 1.5.673 1.5 1.5v4.202A4.456 4.456 0 0 1 16 11.5z" id="outline"/><g id="iconBg"><path class="icon-vs-fg" d="M2 3h6.374l.5 1H2V3z"/><path class="icon-folder" d="M13.496 4H9.992l-1-2H1.5a.5.5 0 0 0-.5.5v10a.5.5 0 0 0 .5.5h5.776A4.445 4.445 0 0 1 7 11.5C7 9.019 9.019 7 11.5 7a4.47 4.47 0 0 1 2.496.76V4.5a.5.5 0 0 0-.5-.5zM2 4V3h6.374l.5 1H2z"/></g><path class="icon-vs-red" d="M8 11.5c0 1.934 1.566 3.5 3.5 3.5s3.5-1.566 3.5-3.5S13.434 8 11.5 8A3.499 3.499 0 0 0 8 11.5zm4 1l1.5-1.5v1.5L12 14h-1l-1.5-1.5V11l1.5 1.5V9h1v3.5z" id="notificationBg"/><g id="notificationBg_1_"><path class="icon-white" d="M13.5 11v1.5L12 14h-1l-1.5-1.5V11l1.5 1.5V9h1v3.5l1.5-1.5z"/></g></svg>