<svg xmlns="http://www.w3.org/2000/svg" viewBox="0 0 16 16"><style>.icon-canvas-transparent{opacity:0;fill:#f6f6f6}.icon-vs-out{fill:#f6f6f6}.icon-folder{fill:#dcb67a}.icon-vs-fg{fill:#f0eff1}.icon-vs-yellow{fill:#fc0}</style><path class="icon-canvas-transparent" d="M0 0h16v16H0V0z" id="canvas"/><path class="icon-vs-out" d="M15.973 13.995L15.002 16H8.004L6.97 14.025 6.982 14H1.5C.673 14 0 13.327 0 12.5v-10C0 1.673.673 1 1.5 1h8.11l1 2h2.886c.827 0 1.5.673 1.5 1.5v7.526l.977 1.969z" id="outline"/><path class="icon-folder" d="M13.496 4H9.992l-1-2H1.5a.5.5 0 0 0-.5.5v10a.5.5 0 0 0 .5.5h5.985l3.008-5.984h2.018l1.485 2.995V4.5a.5.5 0 0 0-.5-.5zM2 4V3h6.374l.5 1H2z" id="iconBg"/><path class="icon-vs-fg" d="M2 3h6.374l.5 1H2V3z" id="iconFg"/><path class="icon-vs-yellow" d="M11.891 8.016h-.781l-3.016 6 .515.984h5.766l.484-1-2.968-5.984zM12 14h-1v-1h1v1zm0-2h-1v-2h1v2z" id="notificationBg"/><g id="notificationFg"><path class="icon-black" d="M12 12h-1v-2h1v2zm0 1h-1v1h1v-1z"/></g></svg>