<svg xmlns="http://www.w3.org/2000/svg" viewBox="0 0 16 16"><style>.icon-canvas-transparent{opacity:0;fill:#f6f6f6}.icon-vs-out{fill:#f6f6f6}.icon-vs-bg{fill:#424242}.icon-folder{fill:#dcb67a}.icon-vs-fg_x0020_{fill:#f0eff1}</style><path class="icon-canvas-transparent" d="M16.021 16.001h-16v-16h16v16z" id="canvas"/><path class="icon-vs-out" d="M16 15h-5.071c-.207 1-.757 1-1.408 1H1.5c-.651 0-1.201 0-1.408-1H0v-.291c0-.069-.015-.137-.015-.208L0 7.5V1h16v14z" id="outline"/><g id="iconBg"><path class="icon-vs-bg" d="M15 2v12h-4v-1h3V5H2v1h-.49c-.172 0-.51.036-.51.09V2h14z"/><path class="icon-folder" d="M1.01 7.501l-.009 7c0 .276.224.501.5.501h8.021a.5.5 0 0 0 .5-.5v-5a.5.5 0 0 0-.501-.5l-2.5.004L6.01 7.001h-4.5a.5.5 0 0 0-.5.5zm4 .5l.5 1H2.021v-1H5.01z"/></g><path class="icon-vs-fg_x0020_" d="M14 5v8h-3V9.502a1.485 1.485 0 0 0-1.481-1.501l-1.883.003L6.626 6H2V5h12zM2 8v1h3.5L5 8H2z" id="iconFg"/></svg>