<svg xmlns="http://www.w3.org/2000/svg" viewBox="0 0 16 16"><style>.icon-canvas-transparent{opacity:0;fill:#f6f6f6}.icon-vs-out{fill:#f6f6f6}.icon-vs-yellow{fill:#fc0}.icon-folder{fill:#dcb67a}</style><path class="icon-canvas-transparent" d="M0 0h16v16H0V0z" id="canvas"/><path class="icon-vs-out" d="M16 6.969h-1v-2c0-1.299-1.03-2-2-2h-2.884l-1-2H2c-.995 0-2 .697-2 2v9c0 .617.227 1.102.57 1.434.57.544 1.43.566 1.43.566h5.026l-.028.057L8.031 16h6.998L16 13.995l-1.292-2.604L16 8.165V6.969z" id="outline"/><g id="iconBg"><path class="icon-folder" d="M2 3h6l1 2h4v2.947l1.119 2.256L15 8h-1V5c0-1-1.236-1-1-1H9.5l-1-2H2S1 2 1 3v9c0 .97.94.984.997.984H2V3z"/><path class="icon-folder" d="M10.026 8H4l-2 5h5.512z"/><path class="icon-folder" d="M2 3h6l1 2h4v2.947l1.119 2.256L15 8h-1V5c0-1-1.236-1-1-1H9.5l-1-2H2S1 2 1 3v9c0 .97.94.984.997.984H2V3z"/><path class="icon-folder" d="M10.026 8H4l-2 5h5.512z"/></g><path class="icon-vs-yellow" d="M11.918 8.016h-.781l-3.016 6 .516.984h5.766l.484-1-2.969-5.984zM12.027 14h-1v-1h1v1zm0-2h-1v-2h1v2z" id="notificationFg"/><path class="icon-black" d="M12.027 12h-1v-2h1v2zm0 1h-1v1h1v-1z" id="notificationBg"/></svg>