<svg xmlns="http://www.w3.org/2000/svg" viewBox="0 0 16 16"><style>.icon-canvas-transparent{opacity:0;fill:#f6f6f6}.icon-vs-out{fill:#f6f6f6}.icon-folder{fill:#dcb67a}.icon-vs-fg{fill:#f0eff1}.icon-vs-red{fill:#e51400}</style><path class="icon-canvas-transparent" d="M0 0h16v16H0V0z" id="canvas"/><path class="icon-vs-out" d="M14.988 12.576l.919.931-2.409 2.409L11.582 14h-.168l-1.916 1.916L7.582 14H1.5C.673 14 0 13.327 0 12.5v-10C0 1.673.673 1 1.5 1h8.11l1 2h2.886c.827 0 1.5.673 1.5 1.5v4.086l.921.921-.921.908V12.5c0 .026-.006.05-.008.076z" id="outline"/><path class="icon-folder" d="M13.996 4.5v3.086l-.498-.498-2 2-2-2-2.419 2.419 2.005 1.978L7.589 13H1.5a.5.5 0 0 1-.5-.5v-10a.5.5 0 0 1 .5-.5h7.492l1 2h3.504a.5.5 0 0 1 .5.5zM8.874 4l-.5-1H2v1h6.874z" id="iconBg"/><path class="icon-vs-fg" d="M8.874 4H2V3h6.374l.5 1z" id="iconFg"/><g id="notificationBg"><path class="icon-vs-red" d="M12.498 11.475l2 2.027-1 1-2-2-2 2-1-1 2-2.027-2-1.973 1-1 2 2 2-2 1 1-2 1.973z"/></g></svg>