<svg xmlns="http://www.w3.org/2000/svg" viewBox="0 0 16 16"><style>.icon-canvas-transparent{opacity:0;fill:#f6f6f6}.icon-vs-out{fill:#f6f6f6}.icon-folder{fill:#dcb67a}.icon-vs-fg{fill:#f0eff1}</style><path class="icon-canvas-transparent" d="M-.035.037h16v16h-16v-16z" id="canvas"/><g id="iconBg"><path class="icon-vs-out" d="M1.465 1.037h8.11l1 2h2.886c.827 0 1.5.673 1.5 1.5v8c0 .827-.673 1.5-1.5 1.5H1.465c-.827 0-1.5-.673-1.5-1.5v-10c0-.827.673-1.5 1.5-1.5z"/><path class="icon-folder" d="M13.461 4H9.957l-1-2H1.465C1.189 2 1 2.26 1 2.537v10c0 .276.189.463.465.463h11.996c.277 0 .539-.187.539-.463v-8A.566.566 0 0 0 13.461 4zM13 12H2V8h11v4z"/></g><path class="icon-vs-fg" d="M1.965 8.037h11v4h-11z" id="iconFg"/></svg>