<svg xmlns="http://www.w3.org/2000/svg" viewBox="0 0 16 16"><style>.icon-canvas-transparent{opacity:0;fill:#f6f6f6}.icon-vs-out{fill:#f6f6f6}.icon-vs-bg{fill:#424242}.icon-vs-fg_x0020_2{fill:#f0eff1}</style><g id="canvas"><path id="XMLID_1_" class="icon-canvas-transparent" d="M0 0h16v16H0V0z"/></g><path class="icon-vs-out" d="M0 2.969v9c0 .617.227 1.102.57 1.435.57.543 1.43.565 1.43.565h11.677L16 8.165V6.969h-1v-2c0-1.299-1.03-2-2-2h-2.884l-1-2H2c-.995 0-2 .697-2 2z" id="outline"/><path class="icon-vs-fg_x0020_2" d="M2 3h6l1 2h4v3H4l-2 5V3z" id="iconFg"/><g id="iconBg"><path class="icon-vs-bg" d="M1 3v9c0 .97.94.984.997.984H2V3h6l1 2h4v3H4l-2 5h11l2-5h-1V5c0-1-1.236-1-1-1H9.5l-1-2H2S1 2 1 3z"/></g></svg>