<svg xmlns="http://www.w3.org/2000/svg" viewBox="0 0 16 16"><style>.icon-canvas-transparent{opacity:0;fill:#f6f6f6}.icon-vs-out{fill:#f6f6f6}.icon-folder{fill:#dcb67a}.icon-vs-fg{fill:#f0eff1}</style><path class="icon-canvas-transparent" d="M0 .001h16v16H0v-16z" id="canvas"/><path class="icon-vs-out" d="M1.5 1.001h8.11l1 2h2.886c.827 0 1.5.673 1.5 1.5v8c0 .827-.673 1.5-1.5 1.5H1.5c-.827 0-1.5-.673-1.5-1.5v-10c0-.827.673-1.5 1.5-1.5z" id="outline"/><path class="icon-folder" d="M13.496 4H9.992l-1-2H1.5c-.275 0-.5.225-.5.501v10a.5.5 0 0 0 .5.499h11.996a.501.501 0 0 0 .504-.499v-8A.504.504 0 0 0 13.496 4zM13 8H2V3h6.374l1 2H13v3z" id="iconBg"/><path class="icon-vs-fg" d="M2 8V3h6l1.374 2H13v3z" id="iconFg"/></svg>