<svg xmlns="http://www.w3.org/2000/svg" viewBox="0 0 16 16"><style>.icon-canvas-transparent{opacity:0;fill:#f6f6f6}.icon-vs-out{fill:#f6f6f6}.icon-vs-fg{fill:#f0eff1}.icon-vs-bg{fill:#424242}</style><g id="canvas"><path id="XMLID_1_" class="icon-canvas-transparent" d="M0 0h16v16H0V0z"/></g><g id="outline"><path id="XMLID_5_" class="icon-vs-out" d="M1.5 1h8.11l1 2h2.886c.827 0 1.5.673 1.5 1.5v8c0 .827-.673 1.5-1.5 1.5H1.5C.673 14 0 13.327 0 12.5v-10C0 1.673.673 1 1.5 1z"/></g><g id="iconBg"><path class="icon-vs-bg" d="M13.496 4H9.992l-1-2H1.5a.5.5 0 0 0-.5.5v10a.5.5 0 0 0 .5.5h11.996a.5.5 0 0 0 .5-.5v-8a.5.5 0 0 0-.5-.5zM2 3h6.374l.5 1H2V3z"/><path class="icon-vs-fg" d="M2 3h6.374l.5 1H2V3z"/></g></svg>