<svg xmlns="http://www.w3.org/2000/svg" viewBox="0 0 16 16"><style>.st0{opacity:0}.st0,.st1{fill:#f6f6f6}.st2{fill:#424242}</style><g id="outline"><path class="st0" d="M0 0h16v16H0z"/><path class="st1" d="M16 12h-1V4h-2.879l1.646-1.646L11.646.233 6.735 5.144 4.677 0H2.323L0 5.807V7h2.677l.4-1h.846l.4 1h.556L.233 11.646l2.121 2.121L4 12.121V16h12v-4z"/></g><path class="st2" d="M5 6h1L4 1H3L1 6h1l.399-1H4.6L5 6zM2.8 4l.7-1.75L4.2 4H2.8zM15 15H5v-1h10v1zm-.625-2.25a.365.365 0 0 1-.375-.354V5h-.25l-6.734 6.734S6.063 12.75 5.5 12.75V13H8v-.25h-.375c-.188 0-.477-.398.172-1.047L9 10.5h3V12.385a.37.37 0 0 1-.375.365h-.375V13h3.5v-.25h-.375zM9.5 10L12 7.5V10H9.5zm-7.146 2.354l-.707-.707 10-10 .707.707-10 10z" id="icon_x5F_bg"/></svg>