<svg xmlns="http://www.w3.org/2000/svg" viewBox="0 0 16 16"><style>.icon-canvas-transparent{opacity:0;fill:#f6f6f6}.icon-vs-out{fill:#f6f6f6}.icon-vs-bg{fill:#424242}.icon-vs-fg{fill:#f0eff1}.icon-vs-blue{fill:#1ba1e2}</style><path class="icon-canvas-transparent" d="M0 0h16v16H0z" id="canvas"/><path class="icon-vs-out" d="M0 1h16v14H0z" id="outline"/><path class="icon-vs-bg" d="M13 12h-3v-1h3v1zm0-2h-3V9h3v1zm0-2h-3V7h3v1zM1 2v12h14V2H1zm13 11H2V5h12v8z" id="iconBg"/><path class="icon-vs-fg" d="M14 5v8H2V5h12zm-1 6h-3v1h3v-1zm0-2h-3v1h3V9zm0-2h-3v1h3V7z" id="iconFg"/><path class="icon-vs-blue" d="M9 6v6H8v-1H4.85L4 12H2.75l5-6H9zm-1 4V7.2L5.666 10H8z" id="colorImportance"/></svg>