<svg xmlns="http://www.w3.org/2000/svg" viewBox="0 0 16 16"><style>.st0{opacity:0;fill:#f6f6f6}.st1{fill:#424242}.st2{fill:#f6f6f6}.st3{fill:#00539c}</style><g id="outline"><path class="st0" d="M0 0h16v16H0z"/><path class="st1" d="M11 2H9L5 14h2l1-3h4l1 3h2L11 2zM8.667 9L10 5l1.333 4H8.667zM3.5 2L5 4H2zM5 5H2l1.5 2z"/><path class="st2" d="M6 3.667L3.5.333 1 3.667v1.666l2.5 3.334L6 5.333zM16 13.837L11.721 1H8.279L3.613 15h4.108l1-3h2.558l1 3H16z"/></g><path class="st1" d="M11 2H9L5 14h2l1-3h4l1 3h2L11 2zM8.667 9L10 5l1.333 4H8.667z" id="icon_x5F_bg"/><path class="st3" d="M3.5 2L5 4H2l1.5-2zM5 5H2l1.5 2L5 5z" id="color_x5F_action"/></svg>