<svg xmlns="http://www.w3.org/2000/svg" viewBox="0 0 16 16"><style>.st0{opacity:0}.st0,.st1{fill:#f6f6f6}.st2{fill:#424242}</style><g id="outline"><path class="st0" d="M0 0h16v16H0z"/><circle class="st1" cx="8" cy="8" r="8"/></g><g id="icon_x5F_bg"><path class="st2" d="M10.186 11.697h1.257L8.646 3.305H7.528l-2.799 8.392h1.26l.558-1.678h3.078l.561 1.678zM6.968 8.761l1.12-3.357 1.119 3.357H6.968z"/><path class="st2" d="M8.005 2.235a5.767 5.767 0 0 1 5.76 5.76 5.766 5.766 0 0 1-5.76 5.759 5.766 5.766 0 0 1-5.76-5.759 5.767 5.767 0 0 1 5.76-5.76m0-1.245a7.005 7.005 0 1 0 0 14.01 7.005 7.005 0 0 0 0-14.01z"/></g></svg>