<svg xmlns="http://www.w3.org/2000/svg" viewBox="0 0 16 16"><style>.st0{opacity:0}.st0,.st1{fill:#f6f6f6}.st2{fill:#424242}.st3{fill:#f0eff1}</style><g id="outline"><path class="st0" d="M0 0h16v16H0z"/><path class="st1" d="M16 5a5 5 0 0 0-9.146-2.796A3.98 3.98 0 0 0 4 1a4 4 0 1 0-.768 7.923A5.5 5.5 0 1 0 14 10.5a5.46 5.46 0 0 0-.18-1.374A4.991 4.991 0 0 0 16 5z"/></g><g id="icon_x5F_bg"><path class="st2" d="M11 1a4 4 0 0 0-4 4c0 .071.017.137.021.207a5.48 5.48 0 0 1 .981-.182L8 5a3 3 0 1 1 6 0 2.98 2.98 0 0 1-1.057 2.269c.197.271.369.56.516.865A3.978 3.978 0 0 0 15 5a4 4 0 0 0-4-4zM6.058 5.578C6.034 5.386 6 5.198 6 5c0 .234-.048.456-.122.664.059-.031.12-.057.18-.086zM4 7a2 2 0 1 1 2-2c0-.649.133-1.265.358-1.834A2.982 2.982 0 0 0 4 2C2.344 2 1 3.344 1 5a2.991 2.991 0 0 0 2.624 2.962c.185-.354.406-.687.66-.991C4.19 6.985 4.097 7 4 7z"/><path class="st2" d="M8.5 6a4.5 4.5 0 1 0 0 9 4.5 4.5 0 0 0 0-9zm0 8a3.5 3.5 0 1 1 0-7 3.5 3.5 0 0 1 0 7z"/></g><g id="icon_x5F_fg"><path class="st3" d="M11 2a3 3 0 0 0-3 3l.002.025a5.486 5.486 0 0 1 4.941 2.244A2.98 2.98 0 0 0 14 5a3 3 0 0 0-3-3zM6 5a2 2 0 1 0-2 2c.097 0 .19-.015.284-.029a5.511 5.511 0 0 1 1.595-1.307A2 2 0 0 0 6 5z"/><circle class="st3" cx="8.5" cy="10.5" r="3.5"/></g></svg>