<svg xmlns="http://www.w3.org/2000/svg" viewBox="0 0 16 16"><style>.st0{opacity:0}.st0,.st1{fill:#f6f6f6}.st2{fill:#424242}.st3{fill:#f0eff1}.st4{fill:#e51400}.st5{display:none}.st5,.st6{fill:#fff}</style><g id="outline"><path class="st0" d="M0 0h16v16H0z"/><path class="st1" d="M14 7.76V0H0v15h8.703c.771.616 1.734 1 2.797 1A4.5 4.5 0 0 0 14 7.76z"/></g><path class="st2" d="M1 1v13h6.76a4.464 4.464 0 0 1-.709-2H6v-2h1.275A4.497 4.497 0 0 1 9 7.76V7h2v.05c.166-.018.329-.05.5-.05.529 0 1.028.108 1.5.275V1H1zm4 11H3v-2h2v2zm0-3H3V7h2v2zm0-3H3V4h2v2zm3 0H6V4h2v2zm3 0H9V4h2v2z" id="icon_x5F_bg"/><g id="icon_x5F_fg"><path class="st3" d="M9 7.76a4.464 4.464 0 0 1 2-.709V7H9v.76zM6 4h2v2H6zM9 4h2v2H9zM3 7h2v2H3zM3 4h2v2H3zM6 10v2h1.05c-.018-.166-.05-.329-.05-.5 0-.529.108-1.028.275-1.5H6zM3 10h2v2H3z"/></g><path class="st4" d="M11.5 8a3.5 3.5 0 1 0 0 7 3.5 3.5 0 0 0 0-7zm1.854 4.646l-.707.707-1.147-1.146-1.146 1.147-.707-.707 1.147-1.146-1.147-1.146.707-.707 1.146 1.147 1.146-1.147.707.707-1.146 1.145 1.147 1.146z" id="not_x5F_bg"/><g id="not_x5F_fg"><path class="st5" d="M13.354 10.354l-.708-.708-1.146 1.147-1.146-1.147-.708.708 1.147 1.146-1.147 1.146.708.708 1.146-1.147 1.146 1.147.708-.708-1.147-1.146z"/><path class="st6" d="M13.354 12.646l-.708.708-1.146-1.147-1.146 1.147-.708-.708 1.147-1.146-1.147-1.146.708-.708 1.146 1.147 1.146-1.147.708.708-1.147 1.146z"/></g></svg>