<svg xmlns="http://www.w3.org/2000/svg" viewBox="0 0 16 16"><style>.st0{opacity:0}.st0,.st1{fill:#f6f6f6}.st2{fill:#424242}.st3{fill:#f0eff1}.st4{fill:#e51400}.st5{fill:#fff}</style><g id="outline"><path class="st0" d="M0 0h16v16H0z"/><path class="st1" d="M16 6.414V4.586L13.414 2H7.325A4.446 4.446 0 0 0 4.5 1C2.019 1 0 3.019 0 5.5S2.019 10 4.5 10a4.448 4.448 0 0 0 3.73-2h.473C7.673 8.825 7 10.077 7 11.5a4.5 4.5 0 0 0 9 0c0-1.423-.673-2.675-1.703-3.5h.117L16 6.414z"/></g><g id="icon_x5F_bg"><path class="st2" d="M13 3h-1v1l-1-1h-1v1L9 3H8v1h-.35A3.489 3.489 0 0 0 4.5 2a3.5 3.5 0 1 0 0 7c1.394 0 2.587-.82 3.15-2H14l1-1V5l-2-2zm1 3H6.949A2.499 2.499 0 0 1 2 5.5 2.5 2.5 0 0 1 6.949 5H14v1z"/><circle class="st2" cx="4" cy="5" r="1"/></g><path class="st3" d="M6.949 5A2.499 2.499 0 0 0 2 5.5a2.5 2.5 0 0 0 4.949.5H14V5H6.949zM4 6a1 1 0 1 1 0-2 1 1 0 1 1 0 2z" id="icon_x5F_fg"/><path class="st4" d="M11.5 8a3.5 3.5 0 1 0 0 7 3.5 3.5 0 0 0 0-7zm1.854 4.646l-.707.707-1.147-1.146-1.146 1.147-.707-.707 1.147-1.146-1.147-1.146.707-.707 1.146 1.147 1.146-1.147.707.707-1.146 1.145 1.147 1.146z" id="not_x5F_bg"/><path class="st5" d="M13.354 10.354l-.708-.708-1.146 1.147-1.146-1.147-.708.708 1.147 1.146-1.147 1.146.708.708 1.146-1.147 1.146 1.147.708-.708-1.147-1.146z" id="not_x5F_fg"/></svg>