<svg xmlns="http://www.w3.org/2000/svg" viewBox="0 0 16 16"><style>.st0{opacity:0}.st0,.st1{fill:#f6f6f6}.st2{fill:#424242}.st3{fill:#f0eff1}</style><g id="outline"><path class="st0" d="M0 0h16v16H0z"/><path class="st1" d="M10.414 2l1-1H7.086L7 1.086V0H0v15h7v-2h9V2h-5.586zM13 10H7V5.914L7.086 6h4.328l-1-1H13v5z"/></g><path class="st2" d="M8 3l1-1H7.5L6 3.5 7.5 5H9L8 4h6v7H6V1H1v13h5v-2h9V3H8zM5 13H2v-3h3v3zm0-4H2V6h3v3zm0-4H2V2h3v3z" id="icon_x5F_bg"/><g id="icon_x5F_fg"><path class="st3" d="M2 2h3v3H2zM2 6h3v3H2zM2 10h3v3H2z"/></g></svg>