<svg xmlns="http://www.w3.org/2000/svg" viewBox="0 0 16 16"><style>.st0{opacity:0}.st0,.st1{fill:#f6f6f6}.st2{fill:#424242}.st3{fill:#f0eff1}</style><g id="outline"><path class="st0" d="M0 0h16v16H0z"/><path class="st1" d="M16 0H4v.051C1.756.303 0 2.19 0 4.5c0 1.523.752 2.902 2 3.73v6.184L3.586 16h1.828L8 13.414V11h8V0z"/></g><g id="icon_x5F_bg"><path class="st2" d="M7.293 1C8.325 1.825 9 3.079 9 4.5V4h2v1H9v-.5a4.446 4.446 0 0 1-1 2.825V10h7V1H7.293zM11 9H9V8h2v1zm0-2H9V6h2v1zm3 2h-2V8h2v1zm0-2h-2V6h2v1zm0-2h-2V4h2v1z"/><path class="st2" d="M6 7.65c1.18-.563 2-1.756 2-3.15a3.5 3.5 0 1 0-7 0c0 1.394.82 2.587 2 3.15V14l1 1h1l2-2v-1H6l1-1v-1H6l1-1V8H6v-.35zm-1-.701V14H4V6.949A2.499 2.499 0 0 1 4.5 2 2.5 2.5 0 0 1 5 6.949z"/><circle class="st2" cx="5" cy="4" r="1"/></g><g id="icon_x5F_fg"><path class="st3" d="M9 4h2v1H9zM9 6h2v1H9zM9 8h2v1H9zM12 4h2v1h-2zM12 6h2v1h-2zM12 8h2v1h-2zM4.5 2A2.5 2.5 0 0 0 4 6.949V14h1V6.949A2.499 2.499 0 0 0 4.5 2zM5 5a1 1 0 1 1 0-2 1 1 0 1 1 0 2z"/></g></svg>