<svg xmlns="http://www.w3.org/2000/svg" viewBox="0 0 16 16"><style>.st0{opacity:0}.st0,.st1{fill:#f6f6f6}.st2{fill:#424242}.st3{fill:#f0eff1}.st4{fill:#fc0}</style><g id="outline"><path class="st0" d="M0 0h16v16H0z"/><path class="st1" d="M8.309 15.5l-.5-1H.5V.5h13v9.618L15.441 14l-.75 1.5z"/><path class="st1" d="M13 1v9.236l.106.211L14.882 14l-.5 1H8.618l-.224-.447L8.118 14H1V1h12m1-1H0v15h7.5l.5 1h7l1-2-2-4V0z"/></g><path class="st2" d="M1 1v13h6l1-2H6v-2h2v2l1.5-3H9V7h3.5l.5 1V1H1zm4 11H3v-2h2v2zm0-3H3V7h2v2zm0-3H3V4h2v2zm3 0H6V4h2v2zm3 0H9V4h2v2z" id="icon_x5F_bg"/><g id="icon_x5F_fg"><path class="st3" d="M6 4h2v2H6zM9 9h.5l1-2H9zM9 4h2v2H9zM3 4h2v2H3zM3 10h2v2H3zM6 10h2v2H6zM3 7h2v2H3z"/></g><path class="st4" d="M11.891 8.016h-.781l-3.016 6 .515.984h5.766l.484-1-2.968-5.984zM12 14h-1v-1h1v1zm0-2h-1v-2h1v2z" id="not_x5F_bg"/><g id="not_x5F_fg"><path d="M11 13h1v1h-1zM11 10h1v2h-1z"/></g></svg>