<svg xmlns="http://www.w3.org/2000/svg" viewBox="0 0 16 16"><style>.st0{opacity:0}.st0,.st1{fill:#f6f6f6}.st2{fill:#424242}.st3{fill:#f0eff1}.st4{fill:#fc0}</style><g id="outline"><path class="st0" d="M0 0h16v16H0z"/><path class="st1" d="M8.309 15.5l-.75-1.5 3.25-6.5H7.962l-.148.224A3.968 3.968 0 0 1 4.5 9.5c-2.206 0-4-1.794-4-4s1.794-4 4-4c.917 0 1.809.315 2.509.887l.138.113h6.06L15.5 4.793v1.414L14.207 7.5h-2.016l3.25 6.5-.75 1.5H8.309z"/><path class="st1" d="M4.5 2c.814 0 1.572.268 2.192.774L6.969 3H13l2 2v1l-1 1H7.694l-.297.447A3.469 3.469 0 0 1 4.5 9C2.57 9 1 7.43 1 5.5S2.57 2 4.5 2m7 5.236l.606 1.211L14.882 14l-.5 1H8.618l-.5-1 2.776-5.553.606-1.211M4.5 1C2.019 1 0 3.019 0 5.5S2.019 10 4.5 10a4.448 4.448 0 0 0 3.73-2H10l-3 6 1 2h7l1-2-3-6h1.414L16 6.414V4.586L13.414 2H7.325A4.446 4.446 0 0 0 4.5 1z"/></g><g id="icon_x5F_bg"><circle class="st2" cx="4" cy="5" r="1"/><path class="st2" d="M13 3h-1v1l-1-1h-1v1L9 3H8v1h-.35A3.489 3.489 0 0 0 4.5 2a3.5 3.5 0 1 0 0 7c1.394 0 2.587-.82 3.15-2H14l1-1V5l-2-2zm1 3H6.949A2.499 2.499 0 0 1 2 5.5 2.5 2.5 0 0 1 6.949 5H14v1z"/></g><g id="icon_x5F_fg"><path class="st3" d="M6.949 5A2.499 2.499 0 0 0 2 5.5a2.5 2.5 0 0 0 4.949.5H14V5H6.949zM4 6a1 1 0 1 1 0-2 1 1 0 1 1 0 2z"/><path class="st4" d="M11.891 8.016h-.781l-3.016 6 .515.984h5.766l.484-1-2.968-5.984zM12 14h-1v-1h1v1zm0-2h-1v-2h1v2z"/><path d="M11 13h1v1h-1zM11 10h1v2h-1z"/></g></svg>