<svg xmlns="http://www.w3.org/2000/svg" viewBox="0 0 16 16"><style>.st0{opacity:0}.st0,.st1{fill:#f6f6f6}.st2{fill:#424242}.st3{fill:#f0eff1}</style><g id="outline"><path class="st0" d="M0 0h16v16H0z"/><path class="st1" d="M13.414 5H7.325A4.44 4.44 0 0 0 4.5 4 4.505 4.505 0 0 0 0 8.5C0 10.981 2.019 13 4.5 13a4.448 4.448 0 0 0 3.73-2h6.184L16 9.414V7.586L13.414 5z"/></g><g id="icon_x5F_bg"><path class="st2" d="M13 6h-1v1l-1-1h-1v1L9 6H8v1h-.35A3.489 3.489 0 0 0 4.5 5a3.5 3.5 0 1 0 0 7c1.394 0 2.587-.82 3.15-2H14l1-1V8l-2-2zm1 3H6.949A2.499 2.499 0 0 1 2 8.5 2.5 2.5 0 0 1 6.949 8H14v1z"/><circle class="st2" cx="4" cy="8" r="1"/></g><path class="st3" d="M6.949 8A2.499 2.499 0 0 0 2 8.5a2.5 2.5 0 0 0 4.949.5H14V8H6.949zM4 9a1 1 0 1 1 0-2 1 1 0 1 1 0 2z" id="icon_x5F_fg"/></svg>