<svg xmlns="http://www.w3.org/2000/svg" width="16" height="16"><style type="text/css">.icon-vs-bg{fill:#424242;} .icon-canvas-transparent{opacity:0;fill:#F6F6F6;} .icon-vs-out{fill:#F6F6F6;}</style><path class="icon-canvas-transparent" d="M16 16h-16v-16h16v16z" id="canvas"/><path class="icon-vs-out" d="M16 5.327l-2.932 2.679 2.932 2.666v.885l-4.896 4.443h-.104v-2.725l-.68-.001c-1.261 0-2.092-.874-2.312-1.134l-1.192-1.192-1.183 1.185c-.24.314-.994 1.134-2.332 1.134h-3.292l-.009-4.267h2.874l.995-1-.995-1h-2.874l.009-4.267h3.293c1.336 0 2.09.817 2.331 1.131l1.188 1.183 1.187-1.186c.221-.265 1.052-1.143 2.313-1.143h.679v-2.718h.104l4.896 4.443v.884z" id="outline"/><g id="iconBg"><path class="icon-vs-bg" d="M1.004 6c-.009 0 0-2.267 0-2.267h2.297c1.062 0 1.57.785 1.57.785l1.399 1.393-1.537 1.539-.623-.623c-.728-.727-.808-.827-.808-.827h-2.298zm10.996 2.386l3 2.729-3 2.722v-1.556s-.733-.006-1.68-.006-1.57-.807-1.57-.807l-1.378-1.378 1.547-1.541 1.424 1.451h1.657v-1.614zm-10.996 1.614h2.297s.081-.1.808-.827l4.641-4.64s.623-.814 1.57-.814h1.68v-1.556l3 2.722-3 2.741v-1.626h-1.657l-5.472 5.482s-.508.785-1.57.785h-2.297s-.009-2.267 0-2.267z"/></g></svg>