<svg xmlns="http://www.w3.org/2000/svg" viewBox="0 0 16 16"><style>.st0{opacity:0}.st0,.st1{fill:#f6f6f6}.st2{fill:#424242}.st3{fill:#f0eff1}</style><g id="outline"><path class="st0" d="M0 0h16v16H0z"/><path class="st1" d="M2 1h13v13H2z"/></g><g id="icon_x5F_bg"><path class="st2" d="M7 9h5v1H7zM5 6h1v1H5zM5 9h1v1H5zM3 2h1v1H3zM3 4h1v1H3zM3 6h1v1H3zM3 8.001h1v1H3zM3 10.002h1v1H3zM5 2h1v1H5zM7 2h1v1H7zM9 2h1v1H9zM11 2h1v1h-1zM13 2h1v1h-1zM13 4h1v1h-1zM13 6h1v1h-1zM13 8.001h1v1h-1zM13 10.002h1v1h-1zM13 12.002h1v1h-1zM11 12.002h1v1h-1zM9 12.002h1v1H9zM7 12.002h1v1H7zM5 12.002h1v1H5zM3 12.002h1v1H3zM7 5v3h5V5H7zm4 2H8V6h3v1z"/></g><path class="st3" d="M8 6h3v1H8z" id="icon_x5F_fg"/></svg>