<svg xmlns="http://www.w3.org/2000/svg" viewBox="0 0 16 16"><style>.st0{opacity:0}.st0,.st1{fill:#f6f6f6}.st2{fill:#424242}.st3{fill:#f0eff1}</style><g id="outline"><path class="st0" d="M0 0h16v16H0z"/><path class="st1" d="M16 0H4v4H0v12h12v-4h4z"/></g><path class="st2" d="M13 7h-1V6h1v1zm0-3h-1v1h1V4zm0 4h-1v1h1V8zm2-7H5v3h1V3h8v7h-2v1h3V1zm-4 4v10H1V5h10zm-1 2H2v7h8V7zM9 8H5v1h4V8zm0 2H5v1h4v-1zM4 8H3v1h1V8zm0 2H3v1h1v-1zm2 2H4v1h2v-1zm3 0H7v1h2v-1z" id="icon_x5F_bg"/><path class="st3" d="M6 4V3h8v7h-2V9h1V8h-1V7h1V6h-1V5h1V4H6zm4 3v7H2V7h8zM3 9h1V8H3v1zm0 2h1v-1H3v1zm3 1H4v1h2v-1zm3 0H7v1h2v-1zm0-2H5v1h4v-1zm0-2H5v1h4V8z" id="icon_x5F_fg"/></svg>