<svg xmlns="http://www.w3.org/2000/svg" viewBox="0 0 16 16"><style>.st0{opacity:0}.st0,.st1{fill:#f6f6f6}.st2{fill:#424242}.st3{fill:#00539c}.st4{fill:#f0eff1}</style><g id="outline"><path class="st0" d="M0 0h16v16H0z"/><path class="st1" d="M3 15c-.97 0-2-.701-2-2V3c0-1.299 1.03-2 2-2h7.414L15 5.586V13c0 .97-.701 2-2 2H3z"/></g><path class="st2" d="M10 2H3S2 2 2 3v10c0 1 1 1 1 1h10c1 0 1-1 1-1V6l-4-4zm3 11H3V3h7v3h3v7z" id="icon_x5F_bg"/><path class="st3" d="M9 5L5 8l4 3z" id="color_x5F_action"/><path class="st4" d="M10 6V3H3v10h10V6h-3zm-1 5L5 8l4-3v6z" id="icon_x5F_fg"/></svg>