<svg xmlns="http://www.w3.org/2000/svg" viewBox="0 0 16 16"><style>.st0{opacity:0}.st0,.st1{fill:#f6f6f6}.st2{fill:#424242}.st3{fill:#f0eff1}</style><g id="outline"><path class="st0" d="M0 0h16v16H0z"/><path class="st1" d="M4 15c-.97 0-2-.701-2-2V3c0-1.299 1.03-2 2-2h6.061L14 4.556V13c0 .97-.701 2-2 2H4z"/></g><g id="icon_x5F_bg"><path class="st2" d="M7 7h5v2H7z"/><path class="st2" d="M9.641 2H3.964S3 2 3 3v10c0 1 .964 1 .964 1h8c1 0 1.036-1 1.036-1V5L9.641 2zM12 13H4V3h5v3h3v7z"/><path class="st2" d="M5 4h1v1H5zM5 6h1v1H5zM5 8h1v1H5zM5 10h1v1H5zM5 12h1v1H5zM9 10h1v1H9zM11 10h1v1h-1zM7 10h1v1H7z"/></g><path class="st3" d="M12 7V6H9V3H4v10h1v-1h1v1h6v-2h-1v-1h1V9H7V7h5zm-6 4H5v-1h1v1zm0-2H5V8h1v1zm0-2H5V6h1v1zm0-2H5V4h1v1zm3 5h1v1H9v-1zm-1 0v1H7v-1h1z" id="icon_x5F_fg"/></svg>