<svg xmlns="http://www.w3.org/2000/svg" viewBox="0 0 16 16"><style>.st0{opacity:0}.st0,.st1{fill:#f6f6f6}.st2{fill:#f0eff1}.st3{fill:none}.st4{fill:#424242}</style><g id="outline"><path class="st0" d="M0 0h16v16H0z"/><path class="st1" d="M0 2h16v11H0z"/></g><g id="icon_x5F_fg"><path class="st2" d="M2 5h1v1H2zM2 9h1v1H2zM2 7h1v1H2zM4 4v7h11V4H4zm3.632 5.103a1.35 1.35 0 0 1-.238.473 1.106 1.106 0 0 1-.406.312 1.373 1.373 0 0 1-.58.112H5V5.053h1.323c.419 0 .733.103.942.307.212.204.316.496.316.873 0 .17-.023.319-.071.447a1.117 1.117 0 0 1-.176.325 1 1 0 0 1-.464.332v.013a.843.843 0 0 1 .354.139c.105.071.193.158.265.261.072.104.126.221.165.351.037.13.057.266.057.409 0 .213-.027.411-.079.593zM8.656 10H8l1.331-4.947h.661L8.656 10zm5.422 0h-.98l-.451-3.188-.019-.13-.022-.162c-.006-.056-.013-.11-.017-.163l-.015-.138h-.006a1.747 1.747 0 0 1-.013.134l-.02.164c-.006.057-.013.11-.021.161l-.017.127-.49 3.195h-.978l-.839-4.947h.914l.461 3.167a5.557 5.557 0 0 1 .037.332c.008.064.012.124.017.178l.01.119h.012a7.607 7.607 0 0 0 .046-.324l.021-.171.019-.132.438-3.167h.941l.441 3.243c.005.034.01.076.019.125.007.05.015.101.021.152.007.052.014.102.019.15.006.049.009.09.011.125h.013a7.38 7.38 0 0 1 .009-.117l.015-.152c.005-.053.01-.104.018-.155a1.61 1.61 0 0 1 .018-.127l.472-3.243h.83L14.078 10z"/></g><g id="icon_x5F_bg"><path class="st3" d="M2 7h1v1H2zM2 9h1v1H2zM2 5h1v1H2z"/><path class="st4" d="M1 3v9h14v-1H4V4h11V3H1zm2 7H2V9h1v1zm0-2H2V7h1v1zm0-2H2V5h1v1z"/><path class="st4" d="M7.489 7.75a1.016 1.016 0 0 0-.265-.262.87.87 0 0 0-.354-.138v-.013a.988.988 0 0 0 .463-.331c.071-.09.131-.199.177-.326a1.27 1.27 0 0 0 .071-.447c0-.377-.104-.668-.316-.873-.208-.205-.523-.307-.942-.307H5V10h1.408c.225 0 .417-.037.58-.112.163-.074.299-.179.405-.312.107-.134.187-.291.239-.473.052-.182.079-.38.079-.593 0-.143-.02-.279-.057-.409a1.206 1.206 0 0 0-.165-.351zM5.834 5.867h.295c.178 0 .317.049.418.145.1.096.149.239.149.428a.792.792 0 0 1-.037.251.596.596 0 0 1-.104.197.473.473 0 0 1-.161.128.505.505 0 0 1-.211.045h-.349V5.867zM6.678 9a.515.515 0 0 1-.42.179h-.424V7.875h.439c.08 0 .152.015.221.043.069.029.126.07.176.124.05.054.088.12.114.198a.802.802 0 0 1 .041.27c0 .207-.049.37-.147.49zM13.688 8.296a1.681 1.681 0 0 0-.018.127 2.623 2.623 0 0 0-.018.155l-.015.152a7.38 7.38 0 0 0-.009.117h-.013a1.95 1.95 0 0 0-.011-.125c-.005-.048-.012-.098-.019-.15l-.021-.152c-.009-.049-.014-.091-.019-.125l-.441-3.243h-.941l-.437 3.168-.019.132-.021.171-.023.176a2.845 2.845 0 0 1-.023.148h-.012l-.01-.119c-.005-.054-.009-.114-.017-.178a5.194 5.194 0 0 0-.037-.332l-.461-3.167h-.913L11.028 10h.978l.492-3.195.017-.127c.008-.051.015-.104.021-.161l.02-.164c.007-.053.011-.098.013-.134h.006l.015.138c.004.053.011.107.017.164l.022.162.019.13.45 3.187h.98l.911-4.947h-.83l-.471 3.243zM8 10h.656l1.336-4.947h-.661z"/><path class="st2" d="M6.67 8.042a.514.514 0 0 0-.397-.167h-.439v1.304h.424c.183 0 .321-.06.42-.179.099-.12.147-.283.147-.49a.806.806 0 0 0-.041-.27.537.537 0 0 0-.114-.198zM6.394 7.016a.461.461 0 0 0 .161-.127.606.606 0 0 0 .104-.197.801.801 0 0 0 .037-.251c0-.189-.049-.332-.149-.428a.582.582 0 0 0-.418-.145h-.295v1.194h.349a.521.521 0 0 0 .211-.046z"/></g></svg>