<svg xmlns="http://www.w3.org/2000/svg" viewBox="0 0 16 16"><style>.st0{opacity:0}.st0,.st1{fill:#f6f6f6}.st2{fill:#424242}.st3{fill:#f0eff1}</style><path class="st0" d="M0 0h16v16H0z" id="outline"/><g id="icon_x5F_bg"><path class="st1" d="M8 0C3.582 0 0 3.575 0 7.985c0 .145.014.286.021.429l-.006.003-.014.56c-.006.24-.101 5.886 4.259 6.962L4.5 16l.24-.061c.329-.079.624-.194.904-.323A8.006 8.006 0 0 0 8 15.969c4.418 0 8-3.575 8-7.984C16 3.575 12.418 0 8 0z"/><path class="st2" d="M14.988 7.763C14.862 4.008 11.786 1 8 1a6.997 6.997 0 0 0-6.993 6.861l1.322-.763a5.77 5.77 0 0 1 .403-1.4c.433.127.909.246 1.407.356l.361-.209 1.59.918c.01-.122.01-.252.022-.372.603.068 1.23.113 1.882.12l.403.002c.488 0 .982-.016 1.487-.054.038.339.066.685.07 1.046a8.673 8.673 0 0 1-.209 1.869c-.253.018-.502.013-.752.02a10.4 10.4 0 0 1-.101 1.105c.187-.005.371-.005.559-.015-.306.991-.759 2.077-1.353 3.26-.033.002-.065.006-.098.006-.077 0-.152-.008-.228-.012a5.271 5.271 0 0 1-.96 1.15c.014.002.027.008.041.01l.021.003A7.065 7.065 0 0 0 8 15a7 7 0 0 0 7-7c0-.08-.01-.157-.012-.237zm-9.803-2.61a19.128 19.128 0 0 1-1.903-.435 5.757 5.757 0 0 1 2.635-2.073 13.08 13.08 0 0 0-.732 2.508zm2.821.268a16.72 16.72 0 0 1-1.739-.111 12.138 12.138 0 0 1 1.001-3.008c.24-.031.483-.052.732-.052.165 0 .327.011.488.024.468.812.944 1.846 1.221 3.108-.571.039-1.133.044-1.703.039zm1.875-2.85a5.755 5.755 0 0 1 2.868 2.188c-.686.236-1.334.4-1.951.496a11.71 11.71 0 0 0-.917-2.684zm-.497 11.004c.546-1.146.967-2.215 1.238-3.193a12.79 12.79 0 0 0 2.886-.734 5.753 5.753 0 0 1-4.124 3.927zm4.347-5.201c-1.038.452-1.972.722-2.848.863a9.32 9.32 0 0 0 .161-1.743c-.004-.4-.035-.783-.076-1.156a12.557 12.557 0 0 0 2.316-.604c.3.696.466 1.461.466 2.266 0 .126-.011.25-.019.374z"/><path class="st2" d="M8 9.02l-.01-.004L4.006 13l-1.854-1.854.707-.707 1.146 1.146 3.088-3.088L4.5 7 1 9.02S.87 14.103 4.5 15C8.129 14.102 8 9.02 8 9.02z"/></g><g id="icon_x5F_fg"><path class="st3" d="M10.969 6.338a12.557 12.557 0 0 0 2.316-.604c.299.696.465 1.461.465 2.266 0 .126-.011.25-.019.374-1.038.452-1.972.722-2.848.863a9.32 9.32 0 0 0 .161-1.743 11.3 11.3 0 0 0-.075-1.156zM12.749 4.76c-.686.236-1.334.4-1.951.496a11.703 11.703 0 0 0-.917-2.685 5.757 5.757 0 0 1 2.868 2.189zM8.893 10.5c-.136.94-.446 2.167-1.121 3.238.076.004.151.012.228.012.033 0 .065-.004.099-.005.594-1.183 1.047-2.269 1.353-3.26-.188.01-.373.01-.559.015zM9.885 6.459c-.505.039-.999.054-1.488.054l-.403-.002a18.549 18.549 0 0 1-1.882-.12c-.012.12-.012.25-.022.372l2.341 1.352.542.216.027.663c0 .033.002.182-.006.4.25-.007.5-.002.752-.02a8.673 8.673 0 0 0 .209-1.869 10.355 10.355 0 0 0-.07-1.046zM8 2.25c.165 0 .327.011.488.024.468.812.944 1.846 1.221 3.108-.571.039-1.133.044-1.703.039a16.72 16.72 0 0 1-1.739-.111 12.138 12.138 0 0 1 1.001-3.008c.24-.031.483-.052.732-.052zM5.917 2.645a13.08 13.08 0 0 0-.732 2.508 19.128 19.128 0 0 1-1.903-.435 5.768 5.768 0 0 1 2.635-2.073zM4.139 6.054a21.64 21.64 0 0 1-1.407-.356 5.77 5.77 0 0 0-.403 1.4l1.81-1.044zM9.384 13.575c.546-1.146.967-2.215 1.238-3.193a12.79 12.79 0 0 0 2.886-.734 5.753 5.753 0 0 1-4.124 3.927zM2.859 10.439l-.707.707L4.006 13 7.99 9.016l-.896-.518-3.088 3.088z"/></g></svg>