<svg xmlns="http://www.w3.org/2000/svg" width="16" height="16"><style type="text/css">.icon-canvas-transparent{opacity:0;fill:#F6F6F6;} .icon-vs-out{fill:#F6F6F6;} .icon-vs-action-blue{fill:#00539C;}</style><path class="icon-canvas-transparent" d="M16 16h-16v-16h16v16z" id="canvas"/><path class="icon-vs-out" d="M16 8c0 4.418-3.582 8-8 8s-8-3.582-8-8 3.582-8 8-8 8 3.582 8 8z" id="outline"/><path class="icon-vs-action-blue" d="M9 11h-2l2-2h-5v-2h5l-2-2h2l3 3-3 3zm-1.026-8.94c-3.275 0-5.94 2.664-5.94 5.94s2.664 5.94 5.94 5.94c3.276 0 5.941-2.665 5.941-5.94s-2.665-5.94-5.941-5.94m0-.99c3.827 0 6.93 3.103 6.93 6.93 0 3.827-3.103 6.93-6.93 6.93-3.828 0-6.93-3.103-6.93-6.93 0-3.828 3.103-6.93 6.93-6.93z" id="iconBg"/></svg>