<svg xmlns="http://www.w3.org/2000/svg" width="16" height="16"><style type="text/css">.icon-canvas-transparent{opacity:0;fill:#F6F6F6;} .icon-vs-out{fill:#F6F6F6;} .icon-vs-fg{fill:#F0EFF1;} .icon-vs-action-blue{fill:#00539C;}</style><path class="icon-canvas-transparent" d="M16 16h-16v-16h16v16z" id="canvas"/><path class="icon-vs-out" d="M2 8c0-3.252 2.747-6 6-6 3.251 0 5.999 2.748 5.999 6s-2.748 6-5.999 6c-3.253 0-6-2.748-6-6z" id="outline"/><path class="icon-vs-action-blue" d="M3 8c0 2.705 2.295 5 5 5 2.704 0 4.999-2.295 4.999-5 0-2.703-2.296-5-4.999-5-2.705 0-5 2.297-5 5zm1.999-1h3.547l-2-2h2l3 3-3 3h-2l2-2h-3.547v-2z" id="iconBg"/><path class="icon-vs-fg" d="M6.546 5h2l3 3-3 3h-2l2-2h-3.547v-2h3.547l-2-2z" id="iconFg"/></svg>