<svg xmlns="http://www.w3.org/2000/svg" width="16" height="16"><style type="text/css">.icon-canvas-transparent{opacity:0;fill:#F6F6F6;} .icon-vs-out{fill:#F6F6F6;} .icon-vs-fg{fill:#F0EFF1;} .icon-vs-action-blue{fill:#00539C;}</style><path class="icon-canvas-transparent" d="M16 16h-16v-16h16v16z" id="canvas"/><path class="icon-vs-out" d="M4 7.5c0-2.439 2.061-4.5 4.5-4.5s4.5 2.061 4.5 4.5-2.061 4.5-4.5 4.5-4.5-2.061-4.5-4.5z" id="outline"/><path class="icon-vs-action-blue" d="M5 7.5c0 1.894 1.607 3.5 3.5 3.5s3.5-1.606 3.5-3.5c0-1.893-1.607-3.5-3.5-3.5s-3.5 1.607-3.5 3.5zm.994.523v-1.023h3.256l-1.377-1.379h1.253l1.879 1.879-1.879 1.879h-1.12l1.275-1.379h-3.281l-.006.023z" id="iconBg"/><path class="icon-vs-fg" d="M9.25 7l-1.377-1.379h1.253l1.879 1.879-1.879 1.879h-1.12l1.275-1.379h-3.281l-.006.023v-1.023h3.256z" id="iconFg"/></svg>