<svg xmlns="http://www.w3.org/2000/svg" viewBox="0 0 16 16"><style>.st0{opacity:0}.st0,.st1{fill:#f6f6f6}.st2{fill:none}.st3{fill:#424242}.st4{fill:#f0eff1;stroke:#424242;stroke-width:.15;stroke-miterlimit:10}</style><g id="outline"><path class="st0" d="M0 0h16v16H0z"/><path class="st1" d="M3.167 10.426v-5.57l4.884-2.47 4.704 2.481v5.513l-4.464 3.272-5.124-3.226zM13 5V3h-2V0h5v5zM0 5V0h5v3H3v2zM11 16v-3h2v-2h3v5zM0 16v-5h3v2h2v3z"/></g><g id="icon_x5F_bg"><path class="st2" d="M5 9.465l3 2V8.268l-3-2zM9 11.465l3-2V6.268l-3 2zM8.5 3.201l-3.148 2.1L8.5 7.398l3.148-2.097z"/><path class="st3" d="M14 1h-2v1h2v2h1V1zM2 2h2V1H1v3h1zM14 14h-2v1h3v-3h-1zM2 12H1v3h3v-1H2zM11.755 9.874V5.471L8.041 3.512 4.167 5.471v4.403l4.081 2.57 3.507-2.57zm-3.76-5.686l3.07 1.513L8.201 7.42 5.106 5.655l2.889-1.467zm-.024 7.373v.016l-.01-.008-.008.008v-.016L4.786 9.497V6.178L7.995 7.97v3.574l-.024.017zm3.219-1.962l-2.576 1.856V7.992l2.576-1.567v3.174z"/></g><g id="icon_x5F_fg"><path class="st4" d="M7.995 4.188l3.07 1.513L8.201 7.42 5.106 5.655zM7.971 11.561v.016l-.01-.008-.008.008v-.016L4.786 9.497V6.178L7.995 7.97v3.574zM11.19 9.599l-2.576 1.856V7.992l2.576-1.567z"/></g></svg>