<svg xmlns="http://www.w3.org/2000/svg" viewBox="0 0 16 16"><style>.st0{opacity:0}.st0,.st1{fill:#f6f6f6}.st2{fill:#424242}.st3{fill:#00539c}.st4{fill:#f0eff1}</style><g id="outline"><path class="st0" d="M0 0h16v16H0z"/><path class="st1" d="M4.444 1L3.423 0h-.837l-1 1H0v15h16V1z"/></g><g id="icon_x5F_bg"><path class="st2" d="M3 12h6v1H3zM11.016 8H13v1h-1.984zM6.606 10H5v1h2v-.607zM10.016 6l-.012.442.57.558H13V6z"/><path class="st2" d="M5.466 2l3.065 3H14v9H2V5.407L1 4.41V15h14V2z"/></g><g id="color_x5F_action"><path transform="rotate(-45.001 6 6)" class="st3" d="M4.586 3.171h2.828v5.656H4.586z"/><path transform="rotate(-45.001 2.5 2.5)" class="st3" d="M1.086 1.793h2.828v1.414H1.086z"/><path class="st3" d="M10 8v1.999L8 10"/></g><g id="icon_x5F_fg"><path class="st4" d="M8.414 5l1 1H13v1h-3v1h3v1h-3v1h1v1H5v-1h1.586l-1-1H5v-.586L3.586 7H3v-.586l-1-1V14h12V5H8.414zM9 13H3v-1h6v1z"/><path class="st4" d="M8.531 5L10 6.438V6h3v1h-2.426l.426.417V8h2v1h-2v2H5v-1h1.586L2 5.414V14h12V5H8.531zM9 13H3v-1h6v1z"/></g></svg>