<svg xmlns="http://www.w3.org/2000/svg" viewBox="0 0 16 16"><style>.st0{opacity:0}.st0,.st1{fill:#f6f6f6}.st2{fill:#424242}.st3{fill:#f0eff1}</style><g id="outline"><path class="st0" d="M0 0h16v16H0z"/><path class="st1" d="M1 0h15v16H1z"/></g><path class="st2" d="M2 1v14h13V1H2zm8 1v2H7V2h3zM7 8V6h3v2H7zm3 1v2H7V9h3zM3 2h3v2H3V2zm0 4h3v2H3V6zm0 3h3v2H3V9zm0 5v-2h3v2H3zm4 0v-2h3v2H7zm7 0h-3v-2h3v2zm0-3h-3V9h3v2zm0-3h-3V6h3v2zm0-4h-3V2h3v2z" id="icon_x5F_bg"/><path class="st3" d="M3 6h3v2H3V6zm4 2h3V6H7v2zm0-4h3V2H7v2zm4 7h3V9h-3v2zm0-3h3V6h-3v2zm-4 3h3V9H7v2zm0 3h3v-2H7v2zm4 0h3v-2h-3v2zm0-12v2h3V2h-3zM3 14h3v-2H3v2zM3 4h3V2H3v2zm0 7h3V9H3v2z" id="icon_x5F_fg"/></svg>