<svg xmlns="http://www.w3.org/2000/svg" width="16" height="16"><style type="text/css">.icon-canvas-transparent{opacity:0;fill:#F6F6F6;} .icon-vs-out{fill:#F6F6F6;} .icon-vs-bg{fill:#424242;}</style><path class="icon-canvas-transparent" d="M16 16h-16v-16h16v16z" id="canvas"/><path class="icon-vs-out" d="M7.272 15.227c-.216-.229-5.285-5.61-6.097-6.52-.743-.891-1.175-2.119-1.175-3.311 0-2.586 2.337-4.855 5-4.855.868 0 2.001.307 3 1.56.999-1.253 2.132-1.56 3-1.56 2.663 0 5 2.269 5 4.855 0 1.191-.433 2.42-1.157 3.286-.833.934-5.899 6.315-6.114 6.544l-.729.774-.728-.773z" id="outline"/><path class="icon-vs-bg" d="M15 5.396c0 .973-.356 1.965-.924 2.645-.812.91-6.076 6.5-6.076 6.5s-5.267-5.59-6.078-6.5c-.568-.68-.922-1.672-.922-2.645 0-2.129 1.963-3.855 4-3.855 1.475 0 2.409 1.192 3 2.5.591-1.308 1.523-2.5 3-2.5 2.039 0 4 1.727 4 3.855z" id="iconBg"/></svg>