<svg xmlns="http://www.w3.org/2000/svg" viewBox="0 0 16 16"><style>.icon-canvas-transparent{opacity:0;fill:#f6f6f6}.icon-vs-out{fill:#f6f6f6}.icon-vs-bg{fill:#424242}</style><path class="icon-canvas-transparent" d="M16 0v16H0V0h16z" id="canvas"/><path class="icon-vs-out" d="M16 10.652c0 .649-.229 1.296-.628 1.774-.373.418-2.644 2.831-2.644 2.831l-.7.743h-.057l-.7-.743s-2.273-2.413-2.624-2.806A2.833 2.833 0 0 1 8 10.652C8 9.215 9.243 8 10.714 8c.322 0 .808.077 1.286.443A2.103 2.103 0 0 1 13.286 8C14.757 8 16 9.215 16 10.652z" id="outline"/><g id="iconBg"><path class="icon-vs-bg" d="M15 10.652c0 .417-.152.842-.396 1.133-.348.391-2.604 2.786-2.604 2.786s-2.257-2.396-2.605-2.786A1.821 1.821 0 0 1 9 10.652C9 9.74 9.841 9 10.714 9c.632 0 1.032.511 1.286 1.071.253-.56.653-1.071 1.286-1.071C14.16 9 15 9.74 15 10.652z"/></g></svg>