<svg xmlns="http://www.w3.org/2000/svg" viewBox="0 0 16 16"><style>.st0{fill:#f6f6f6}.st1{fill:#424242}.st2{fill:#a4373a}.st3{fill:#fff}.st4{fill:#f0eff1}</style><path class="st0" d="M16 0H7v3.012l-7 .972V14.75L9 16v-2h2.5a2.505 2.505 0 0 0 2.373-1.713L15 13.414V9.086L13.914 8H16V0zM4.41 7.165l.01.001-.01-.001zM10 9.086V11H9V8h2.086L10 9.086z" id="outline"/><g id="icon_x5F_bg"><path class="st1" d="M11 9.5V11l1-1v1.5c0 .275-.225.5-.5.5H10v1h1.5c.827 0 1.5-.673 1.5-1.5V10l1 1V9.5L12.5 8 11 9.5zM8 1v1.873l1-.139V3h1v1H9v1h1v1H9v1h6V1H8zm4 5h-1V5h1v1zm0-2h-1V3h1v1zm2 2h-1V5h1v1zm0-2h-1V3h1v1z"/></g><path class="st2" d="M1 4.867v9l7 1v-11l-7 1zm4.594 7.055l-.346-1.341-1.654-.056-.314 1.255-1.058-.064L3.817 6.06l1.243-.077 1.764 6.014-1.23-.075z" id="color_x5F_decoration"/><g id="icon_x5F_fg"><path class="st3" d="M3.811 9.539l.499-1.965a2.404 2.404 0 0 0 .05-.247l.018-.129c.005-.044.008-.088.012-.133l.026-.001.013.141c.005.046.009.091.016.134a4.174 4.174 0 0 0 .048.246L5 9.553m.061-3.57l-1.244.077-1.595 5.656 1.058.064.314-1.255 1.654.056.346 1.341 1.23.075-1.763-6.014"/><path class="st3" d="M3.817 6.06l-1.595 5.656 1.058.064.314-1.255 1.654.056.346 1.341 1.23.075-1.763-6.014-1.244.077zm-.006 3.479l.499-1.965a2.404 2.404 0 0 0 .05-.247l.018-.129c.005-.044.008-.088.012-.133h.026l.013.14c.005.046.009.091.016.134a4.174 4.174 0 0 0 .048.246L5 9.553l-1.189-.014z"/><path class="st4" d="M9 3h1v1H9zM11 5h1v1h-1zM13 3h1v1h-1zM13 5h1v1h-1zM11 3h1v1h-1zM9 5h1v1H9z"/><path class="st2" d="M4.468 7.466c-.009-.041-.015-.083-.023-.127-.007-.043-.011-.088-.016-.134a3.014 3.014 0 0 1-.012-.142h-.026c-.004.046-.007.09-.013.134-.004.044-.011.087-.018.13-.006.042-.013.084-.022.125l-.028.122-.499 1.965L5 9.553l-.506-1.968a3.057 3.057 0 0 1-.026-.119z"/></g></svg>