<svg xmlns="http://www.w3.org/2000/svg" viewBox="0 0 16 16"><style>.st0{opacity:0}.st0,.st1{fill:#f6f6f6}.st2{fill:#424242}.st3{fill:#fff}.st4{fill:#f0eff1}</style><g id="outline"><path class="st0" d="M0 0h16v16H0z"/><circle class="st1" cx="11.5" cy="11.5" r="4.5"/></g><g id="icon_x5F_bg"><path class="st2" d="M7.05 12c-.018-.166-.05-.329-.05-.5v.5h.05zM7.76 9H4V5h4V3h.586l4 4-.112.112c.366.081.708.216 1.034.38L14 7 9 2H7v2H3v6h4v1.5c0-.926.281-1.785.76-2.5z"/><path class="st2" d="M11.5 8a3.5 3.5 0 1 0 0 7 3.5 3.5 0 0 0 0-7zm-.5 5h-1v-3h1v3zm2 0h-1v-3h1v3z"/></g><g id="icon_x5F_fg"><path class="st3" d="M7.76 9c.807-1.206 2.18-2 3.74-2 .335 0 .659.042.974.112L12.586 7l-4-4H8v2H4v4h3.76z"/><path class="st4" d="M11 13h-1v-3h1v3zm2-3h-1v3h1v-3z"/></g></svg>