<svg xmlns="http://www.w3.org/2000/svg" viewBox="0 0 16 16"><style>.st0{opacity:0}.st0,.st1{fill:#f6f6f6}.st2{fill:#424242}.st3{fill:#9b4f96}.st4{fill:#f0eff1}</style><g id="outline"><path class="st0" d="M0 0h16v16H0z"/><path class="st1" d="M0 1h16v14H0z"/></g><g id="icon_x5F_bg"><path class="st2" d="M9 10h1V9h1v1h1V9h1V8h-1V7h1V6h-1V5h-1v1h-1V5H9v1H8v1h1v1H8v1h1v1zm1-3h1v1h-1V7zM4.559 8.67h2.244V7.572H4.559V6.1H7V5H3v6h1.559z"/></g><path class="st3" d="M1 2v12h14V2H1zm13 11H2V3h12v10z" id="color_x5F_importance"/><g id="icon_x5F_fg"><path class="st4" d="M2 3v10h12V3H2zm5 3.1H4.559v1.473h2.244V8.67H4.559V11H3V5h4v1.1zm6 .9h-1v1h1v1h-1v1h-1V9h-1v1H9V9H8V8h1V7H8V6h1V5h1v1h1V5h1v1h1v1z"/><path class="st4" d="M10 7h1v1h-1z"/></g></svg>