<svg xmlns="http://www.w3.org/2000/svg" viewBox="0 0 16 16"><style>.st0{opacity:0}.st0,.st1{fill:#f6f6f6}.st2{fill:#424242}.st3{fill:#f0eff1}.st4{fill:#682878}</style><g id="outline"><path class="st0" d="M0 0h16v16H0z"/><path class="st0" d="M0 0h16v16H0z"/><path class="st1" d="M16 8a8 8 0 0 0-8-8A7.992 7.992 0 0 0 .872 4.382L0 3.505v4.828l.018.018a7.987 7.987 0 0 0 7.546 7.626l.022.023h4.828l-.844-.849A7.993 7.993 0 0 0 16 8z"/></g><g id="icon_x5F_bg"><path class="st2" d="M1.201 9.547a6.967 6.967 0 0 0 5.179 5.234L1.201 9.547zM14.988 7.764C14.862 4.008 11.786 1 8 1a6.996 6.996 0 0 0-6.382 4.134l.961.968c.048-.136.096-.273.153-.404.686.202 1.448.394 2.3.539-.042.405-.072.82-.077 1.257-.004.343.016.692.044 1.043l1.9 1.912c.361.026.718.058 1.095.062a22.04 22.04 0 0 0 1.457-.025 18.664 18.664 0 0 1-.695 1.833l.817.822c.445-.979.812-1.908 1.049-2.759a12.79 12.79 0 0 0 2.886-.734 5.744 5.744 0 0 1-3.652 3.777l.968.974A6.996 6.996 0 0 0 15 8c0-.08-.01-.157-.012-.236zm-7.72-5.462c.24-.031.483-.052.732-.052.165 0 .327.012.488.024.468.812.944 1.846 1.221 3.108-.571.039-1.133.044-1.703.039-.6-.007-1.181-.048-1.739-.11a12.133 12.133 0 0 1 1.001-3.009zM5.185 5.153a18.852 18.852 0 0 1-1.903-.435 5.757 5.757 0 0 1 2.635-2.073c-.29.723-.556 1.554-.732 2.508zm4.561 4.222c-.584.041-1.158.049-1.74.046a17.427 17.427 0 0 1-1.838-.123 12.244 12.244 0 0 1-.123-1.792c.004-.387.031-.756.067-1.115.603.068 1.23.113 1.882.12l.403.003c.488 0 .982-.016 1.487-.055.038.34.066.686.07 1.047a8.606 8.606 0 0 1-.208 1.869zm.135-6.804a5.755 5.755 0 0 1 2.868 2.188c-.686.236-1.334.4-1.951.496a11.71 11.71 0 0 0-.917-2.684zm3.85 5.803c-1.038.452-1.972.722-2.848.863a9.32 9.32 0 0 0 .161-1.743c-.004-.4-.035-.782-.076-1.156a12.478 12.478 0 0 0 2.316-.604c.3.696.466 1.461.466 2.266 0 .126-.011.25-.019.374z"/></g><g id="icon_x5F_fg"><path class="st3" d="M10.969 6.338a12.478 12.478 0 0 0 2.316-.604c.299.696.465 1.461.465 2.266 0 .126-.011.25-.019.374-1.038.452-1.972.722-2.848.863a9.32 9.32 0 0 0 .161-1.743 11.3 11.3 0 0 0-.075-1.156zM12.749 4.76c-.686.236-1.334.4-1.951.496a11.703 11.703 0 0 0-.917-2.685 5.757 5.757 0 0 1 2.868 2.189zM8.756 12.318c.276-.64.517-1.258.695-1.833-.354.017-.706.027-1.054.027-.135 0-.269 0-.403-.002-.377-.004-.734-.035-1.095-.062l1.857 1.87zM8.006 9.421a17.427 17.427 0 0 1-1.838-.123 12.244 12.244 0 0 1-.123-1.792c.004-.387.031-.756.067-1.115.603.068 1.23.113 1.882.12l.403.003c.488 0 .982-.016 1.487-.055.038.34.066.686.07 1.047a8.673 8.673 0 0 1-.209 1.869c-.583.041-1.157.049-1.739.046zM8 2.25c.165 0 .327.012.488.024.468.812.944 1.846 1.221 3.108-.571.039-1.133.044-1.703.039-.6-.007-1.181-.048-1.739-.11a12.133 12.133 0 0 1 1.001-3.009c.24-.031.483-.052.732-.052zM5.917 2.645c-.29.724-.556 1.555-.732 2.509a19.118 19.118 0 0 1-1.903-.436 5.768 5.768 0 0 1 2.635-2.073zM4.999 8.537c-.028-.352-.048-.7-.044-1.043.005-.437.035-.852.077-1.258a20.105 20.105 0 0 1-2.3-.539 6.135 6.135 0 0 0-.153.405l2.42 2.435zM9.384 13.575c.546-1.146.967-2.215 1.238-3.193a12.79 12.79 0 0 0 2.886-.734 5.753 5.753 0 0 1-4.124 3.927z"/></g><path class="st4" d="M1 5.919v2l7 6.999h2L1 5.919z" id="color_x5F_importance"/></svg>