<svg xmlns="http://www.w3.org/2000/svg" viewBox="0 0 16 16"><style>.st0{opacity:0}.st0,.st1{fill:#f6f6f6}.st2{fill:#682878}</style><g id="outline"><path class="st0" d="M0 0h16v16H0z"/><path class="st1" d="M4 11.033V14h1.372l2.393 2h.828l3.217-3.216.796.798L16 10.189v-.828L14.42 7.78 16 6.2v-.828l-2.596-2.595-.398.398L9.83 0h-.828L5.786 3.216l-.798-.798L0 7.406v.828l3.399 3.394z"/></g><g id="icon_x5F_bg"><path class="st2" d="M8.179 11.012l2.393-2.393-1.595-1.506L8.179 8H5.786l1.595-1.685-2.393-2.438L1 7.843l2.399 2.382L5 8.619V13h2.381l-.797.602 1.595 1.496 2.393-2.442-1.595-1.525-.799.869H6V9h1.381l-.797.606zM8.977 5.609l.1.308L9 5.786v.262l1 .798V6h1.81l-.798.69 1.594 1.542L15 5.813 13.404 4.21l-.798.79h-2.392l1.596-1.601-2.394-2.396-2.923 2.921 2.085 2.084zM12.606 9h-.979l-.797 1h.98l-.798.685 1.594 1.54L15 9.804l-1.596-1.6z"/></g></svg>