<svg xmlns="http://www.w3.org/2000/svg" viewBox="0 0 16 16"><style>.st0{opacity:0}.st0,.st1{fill:#f6f6f6}.st2{fill:#682878}.st3{fill:#f0eff1}</style><g id="outline"><path class="st0" d="M0 0h16v16H0z"/><path class="st1" d="M4 15c-.97 0-2-.701-2-2V3c0-1.299 1.03-2 2-2h6.061L14 4.556V13c0 .97-.701 2-2 2H4z"/></g><g id="icon_x5F_bg"><path class="st2" d="M9.641 2H3.964S3 2 3 3v10c0 1 .965 1 .965 1h8c1 0 1.035-1 1.035-1V5L9.641 2zM12 13H4V3h5v3h3v7z"/><path class="st2" d="M6.558 8c-.506 0-.892.176-1.159.525-.266.351-.399.86-.399 1.528 0 1.287.492 1.934 1.477 1.934.49 0 .867-.174 1.129-.522.263-.348.394-.848.394-1.5C8 8.654 7.52 8 6.558 8zm-.052 3.336c-.387 0-.58-.436-.58-1.305 0-.922.197-1.383.592-1.383.369 0 .554.447.554 1.344-.001.895-.189 1.344-.566 1.344zM8.957 8.367c-.091.048-.194.077-.291.117v.771c.04-.013.081-.023.119-.039.072-.031.139-.064.203-.102a.843.843 0 0 0 .165-.115V12H10V8.035h-.514a3.353 3.353 0 0 1-.529.332z"/></g><g id="icon_x5F_fg"><path class="st3" d="M6.518 8.648c-.395 0-.592.461-.592 1.383 0 .869.193 1.305.58 1.305.377 0 .565-.449.565-1.344 0-.896-.184-1.344-.553-1.344z"/><path class="st3" d="M9 6V3H4v10h8V6H9zm-1.395 5.465c-.262.348-.639.522-1.129.522C5.492 11.986 5 11.34 5 10.053c0-.668.133-1.177.399-1.527.267-.35.653-.526 1.159-.526C7.52 8 8 8.654 8 9.965c0 .652-.131 1.152-.395 1.5zM10 12h-.847V8.999a.89.89 0 0 1-.165.116c-.064.037-.131.07-.203.102-.038.015-.079.026-.119.039v-.772c.097-.04.2-.069.291-.117.195-.1.372-.211.529-.332H10V12z"/></g></svg>