<svg xmlns="http://www.w3.org/2000/svg" width="16" height="16"><style type="text/css">.icon-canvas-transparent{opacity:0;fill:#F6F6F6;} .icon-vs-out{fill:#F6F6F6;} .icon-vs-fg{fill:#F0EFF1;} .icon-fs-purple{fill:#682878;}</style><path class="icon-canvas-transparent" d="M16 16h-16v-16h16v16z" id="canvas"/><path class="icon-vs-out" d="M16 1v13h-16v-13h16z" id="outline"/><path class="icon-fs-purple" d="M1 2v11h14v-11h-14zm6 4.001h-3v2.999h3v1h-3v-1h-1v-3h1v-.999h3v1zm2 3h-1v-1h1v1zm0-2h-1v-1h1v1zm3 2.999l-2-5h1l2 5h-1z" id="iconBg"/><g id="iconFg"><path class="icon-vs-fg" d="M13 10h-1l-2-5h1l2 5zm-9-4h-1v3h1v-3l3 .001v-1h-3v.999zm3 4v-1h-3v1h3zm1-2.999h1v-1h-1v1zm0 2h1v-1h-1v1z"/></g></svg>