<svg xmlns="http://www.w3.org/2000/svg" width="16" height="16"><style type="text/css">.icon-canvas-transparent{opacity:0;fill:#F6F6F6;} .icon-vs-out{fill:#F6F6F6;} .icon-vs-fg{fill:#F0EFF1;} .icon-fs-purple{fill:#682878;}</style><path class="icon-canvas-transparent" d="M16 16h-16v-16h16v16z" id="canvas"/><path class="icon-vs-out" d="M4 15c-.97 0-2-.701-2-2v-10c0-1.299 1.03-2 2-2h6.061l3.939 3.556v8.444c0 .97-.701 2-2 2h-8z" id="outline"/><path class="icon-fs-purple" d="M9.641 2h-5.677s-.964 0-.964 1v10c0 1 .964 1 .964 1h8l1.036-1v-8l-3.359-3zm2.359 11h-8v-10h5v3h3v7z" id="iconBg"/><g id="iconFg"><path class="icon-vs-fg" d="M4 3h5v3h3v7h-8v-10z"/></g></svg>