<svg xmlns="http://www.w3.org/2000/svg" width="16" height="16"><style type="text/css">.icon-canvas-transparent{opacity:0;fill:#F6F6F6;} .icon-vs-out{fill:#F6F6F6;} .icon-vs-bg{fill:#424242;} .icon-vs-fg{fill:#F0EFF1;} .icon-fs-purple{fill:#682878;}</style><path class="icon-canvas-transparent" d="M16 16h-16v-16h16v16z" id="canvas"/><path class="icon-vs-out" d="M16 15h-16v-14h16v14z" id="outline"/><path class="icon-vs-bg" d="M8 8h-5v-1h5v1zm0 2h-5v-1h5v1zm-3 2h-2v-1h2v1zm6-4h-2v-1h2v1zm1 2h-3v-1h3v1zm1 2h-7v-1h7v1z" id="iconBg"/><path class="icon-vs-fg" d="M2 5v8h12v-8h-12zm7 2h2v1h-2v-1zm0 2h3v1h-3v-1zm-6-2h5v1h-5v-1zm0 2h5v1h-5v-1zm2 3h-2v-1h2v1zm8 0h-7v-1h7v1z" id="iconFg"/><g id="colorImportance"><path class="icon-fs-purple" d="M1 2v12h14v-12h-14zm13 11h-12v-8h12v8z"/></g></svg>