<svg xmlns="http://www.w3.org/2000/svg" viewBox="0 0 16 16"><style>.st0{opacity:0}.st0,.st1{fill:#f6f6f6}.st2{fill:#682878}.st3{fill:#f0eff1}</style><g id="outline"><path class="st0" d="M0 0h16v16H0z"/><path class="st1" d="M3.981 15c-.978-.019-1.994-.736-1.994-2.023V3.028c0-1.364 1.104-1.958 1.845-2.024L10.048 1l3.939 3.556v8.372c.019.26.016.912-.447 1.447-.25.285-.711.625-1.502.625H3.981z"/></g><g id="icon_x5F_bg"><path class="st2" d="M9.67 2H3.929s-.935.084-.935 1.028v9.948c0 1.003.994 1.024.994 1.024h8.057c1.092 0 .949-1.023.949-1.023V5L9.67 2zm2.324 11h-8V3h5v3h3v7z"/><path class="st2" d="M7.987 10h4v1h-4zM7.595 8H6.581l-.431.833a1.716 1.716 0 0 0-.07.149c-.002.008-.004.012-.007.018h-.107l-.004-.008C5.939 8.941 5.465 8 5.465 8H4.393l.952 1.506L4.331 11h1.063s.479-.894.499-.941c.016-.039.08-.014.115-.022l.007.018c.023.047.508.945.508.945h1.066l-.984-1.547L7.595 8z"/></g><path class="st3" d="M11.987 10V6h-3V3h-5v10h8v-2h-4v-1h4zm-4.398 1H6.523l-.44-.809c-.014-.027-.177-.164-.19-.133a.879.879 0 0 1-.062.123L5.394 11H4.331l1.013-1.494L4.393 8h1.073l.427.842a.556.556 0 0 0 .187.14c.022-.053.045-.102.07-.149L6.581 8h1.014l-.99 1.454L7.589 11z" id="icon_x5F_fg"/></svg>