<svg xmlns="http://www.w3.org/2000/svg" viewBox="0 0 16 16"><style>.st0{opacity:0}.st0,.st1{fill:#f6f6f6}.st2{fill:#424242}.st3{fill:#682878}.st4{fill:#f0eff1}</style><g id="outline"><path class="st0" d="M0 0h16v16H0z"/><path class="st1" d="M16 1H0v14h1.704c.77.617 1.733 1 2.796 1a4.469 4.469 0 0 0 2.813-1H16V1z"/></g><path class="st2" d="M15 14H8.24a4.51 4.51 0 0 0 .484-1H14V5H2v2.76a4.5 4.5 0 0 0-1 .943V2h14v12z" id="icon_x5F_bg"/><path class="st3" d="M4.5 8a3.5 3.5 0 1 0-.001 6.999A3.5 3.5 0 0 0 4.5 8zm.5 6H4v-1h1v1zm1-3c0 .551-.449 1-1 1v.5H4V12c0-.551.449-1 1-1v-1c-.08-.045-.252-.102-.5-.102s-.42.057-.5.102v1H3v-1c0-.58.631-1 1.5-1S6 9.42 6 10v1z" id="color_x5F_importance"/><g id="icon_x5F_fg"><path class="st4" d="M4.5 7c-.926 0-1.785.281-2.5.76V5h12v8H8.725c.167-.471.275-.971.275-1.5A4.5 4.5 0 0 0 4.5 7z"/><path class="st4" d="M5 14H4v-1h1v1zm1-4c0-.58-.631-1-1.5-1S3 9.42 3 10v1h1v-1c.08-.045.252-.102.5-.102s.42.057.5.102v1c-.551 0-1 .449-1 1v.5h1V12c.551 0 1-.449 1-1v-1z"/></g></svg>