<svg xmlns="http://www.w3.org/2000/svg" viewBox="0 0 16 16"><style>.st0{opacity:0}.st0,.st1{fill:#f6f6f6}.st2{fill:#682878}.st3{fill:#f0eff1}</style><g id="outline"><path class="st0" d="M0 0h16v16H0z"/><path class="st1" d="M16 7.5L13.5 5h.086V0h-5v2.605a5.474 5.474 0 0 0-2.499-.607A5.508 5.508 0 0 0 .586 7.499c0 3.032 2.468 5.5 5.501 5.5.9 0 1.748-.223 2.498-.607V15h5v-5H13.5L16 7.5z"/></g><path class="st2" d="M7.587 7.5a1.5 1.5 0 1 1-3.001-.001 1.5 1.5 0 0 1 3.001.001zm3.998 3.5h1v3h-3v-1h1.289l-1.996-1.996A4.463 4.463 0 0 1 6.087 12a4.501 4.501 0 0 1 0-9.001c1.061 0 2.021.383 2.791.996L10.874 2H9.586V1h3v3h-1V2.713L9.591 4.707A4.45 4.45 0 0 1 10.536 7h2.136l-.914-.914.707-.707L14.586 7.5l-2.121 2.122-.707-.708.914-.914h-2.136a4.452 4.452 0 0 1-.945 2.291l1.994 1.994V11zM8.587 7.5a2.503 2.503 0 0 0-2.5-2.501A2.505 2.505 0 0 0 3.586 7.5c0 1.379 1.122 2.5 2.501 2.5 1.379 0 2.5-1.122 2.5-2.5z" id="color_x5F_imporatance"/><path class="st3" d="M6.087 5a2.502 2.502 0 0 0-2.5 2.5c0 1.379 1.121 2.5 2.5 2.5 1.378 0 2.5-1.122 2.5-2.5 0-1.379-1.122-2.5-2.5-2.5zm0 4a1.5 1.5 0 1 1 0-3 1.5 1.5 0 0 1 0 3z" id="icon_x5F_fg"/></svg>