<svg xmlns="http://www.w3.org/2000/svg" viewBox="0 0 16 16"><style>.st0{opacity:0}.st0,.st1{fill:#f6f6f6}.st2{fill:#424242}.st3{fill:#682878}.st4{fill:#f0eff1}</style><g id="outline"><path class="st0" d="M0 0h16v16H0z"/><path class="st1" d="M16 1H0v14h2.344c.894.628 1.98 1 3.156 1s2.263-.372 3.156-1H16V1z"/></g><path class="st2" d="M15 2v12H9.743a5.52 5.52 0 0 0 .651-1H14V5H2v1.258a5.487 5.487 0 0 0-1 1.086V2h14z" id="icon_x5F_bg"/><path class="st3" d="M10 10.5c0-.053-.008-.102-.008-.152A4.495 4.495 0 0 0 5.5 6 4.5 4.5 0 0 0 1 10.5a4.74 4.74 0 0 0 .067.743 4.49 4.49 0 0 0 3.696 3.691l.013.002A4.513 4.513 0 0 0 5.5 15a4.503 4.503 0 0 0 4.5-4.5zM7.409 9.433a8.1 8.1 0 0 0 1.49-.388c.189.445.298.937.298 1.455 0 .08-.008.16-.012.24a7.545 7.545 0 0 1-1.832.555c.07-.393.108-.768.104-1.119a7.342 7.342 0 0 0-.048-.743zm1.144-1.017a7.185 7.185 0 0 1-1.255.319 7.475 7.475 0 0 0-.589-1.725 3.703 3.703 0 0 1 1.844 1.406zM5.5 14.196c-.109 0-.217-.008-.324-.018-.322-.717-.57-1.43-.725-2.124a11.327 11.327 0 0 0 1.304.061c.224 0 .45-.006.678-.017a13.596 13.596 0 0 1-.87 2.095c-.021 0-.041.003-.063.003zm.004-2.782c-.41-.006-.824-.035-1.204-.079a7.787 7.787 0 0 1-.056-1.153c.002-.247.02-.507.043-.737.387.043.79.055 1.21.055h.259c.314 0 .632.012.956-.012.025.219.044.451.046.683.004.372-.044.778-.135 1.208-.376.025-.745.037-1.119.035zM5.5 6.804c.106 0 .21.008.313.016.302.521.607 1.186.786 1.996-.367.026-.728.03-1.095.026-.386-.004-.76-.029-1.119-.07.15-.782.398-1.424.645-1.935.154-.02.31-.033.47-.033zm-1.339.254A8.546 8.546 0 0 0 3.69 8.67c-.443-.078-.85-.175-1.223-.28a3.7 3.7 0 0 1 1.694-1.332zM1.804 10.5a3.7 3.7 0 0 1 .31-1.48c.44.131.932.254 1.479.346a8.394 8.394 0 0 0-.049.811c-.004.342.021.694.063 1.051a12.757 12.757 0 0 1-1.788-.467 2.834 2.834 0 0 1-.015-.261zm.152 1.044c.514.157 1.102.31 1.765.415.132.673.349 1.359.632 2.053a3.701 3.701 0 0 1-2.397-2.468zm4.435 2.54c.35-.737.62-1.424.795-2.054a8.144 8.144 0 0 0 1.855-.472 3.698 3.698 0 0 1-2.65 2.526z" id="color_x5F_importance"/><g id="icon_x5F_fg"><path class="st4" d="M2 5v1.261A5.475 5.475 0 0 1 5.5 5C8.532 5 11 7.468 11 10.5c0 .9-.222 1.749-.607 2.5H14V5H2z"/><path class="st4" d="M7.401 9.441a8.29 8.29 0 0 0 1.5-.385c.189.443.265.93.265 1.444 0 .08-.008.159-.012.238a7.525 7.525 0 0 1-1.816.551c.07-.391.107-.762.104-1.111a7.93 7.93 0 0 0-.041-.737zM5.5 14.166c-.108 0-.215-.006-.321-.016A11.337 11.337 0 0 1 4.46 12c.333.033.684.098 1.04.1.086.002.699.012.925 0-.194.633-.483 1.309-.862 2.063-.021 0-.041.003-.063.003zM5.504 11.406c-.406-.005-.796-.063-1.172-.106a7.042 7.042 0 0 1-.072-1.1c.002-.245.017-.522.04-.751.384.043.784.051 1.2.051.086 0-.085 0 0 0 .312 0 .879.023 1.2 0 .025.217-.002.442 0 .672a5.37 5.37 0 0 1-.1 1.198c-.373.026-.725.038-1.096.036zM1.834 10.5c0-.521.111-1.05.308-1.5.437.129.917.283 1.458.375-.025.26-.038.445-.041.725-.004.34 0 .768.041 1.121a12.232 12.232 0 0 1-1.752-.463c-.007-.086-.014-.171-.014-.258zM1.985 11.6a12.93 12.93 0 0 0 1.75.4c.131.667.346 1.295.626 1.982-1.142-.373-2.034-1.225-2.376-2.382zM6.383 14.055c.348-.731.615-1.43.789-2.055.569-.072 1.176-.15 1.839-.4-.368 1.234-1.37 2.143-2.628 2.455zM8.553 8.4a6.968 6.968 0 0 1-1.255.3A7.255 7.255 0 0 0 6.709 7a3.686 3.686 0 0 1 1.844 1.4zM5.5 6.9c.106 0 .21-.008.313 0 .302.522.607 1.089.786 1.9-.367.025-.729.004-1.095 0-.385-.004-.744-.059-1.103-.1.149-.782.353-1.29.599-1.8.155-.02.34 0 .5 0zM4.161 7.058A8.546 8.546 0 0 0 3.69 8.67c-.443-.078-.85-.175-1.223-.28a3.7 3.7 0 0 1 1.694-1.332z"/></g></svg>