<svg xmlns="http://www.w3.org/2000/svg" viewBox="0 0 16 16"><style>.st0{fill:#f6f6f6}.st1{fill:#424242}.st2{fill:#682878}.st3{fill:#f0eff1}</style><path class="st0" d="M12.061 0H6c-.97 0-2 .701-2 2v4.105l-.4.051-.14 1.126-.897-.699-.615.477a5.054 5.054 0 0 0-.889.889l-.476.614.698.897-.354.044-.782.191-.099.769C.021 10.641 0 10.816 0 11s.021.359.059.632l.099.768 1.124.14-.698.896.475.614c.257.332.557.632.89.891l.614.477.897-.698.044.354.191.783.769.099c.177.023.353.044.536.044s.359-.021.631-.059l.77-.1.139-1.123.897.698.614-.477c.333-.259.632-.559.89-.891L8.98 14H14c1.299 0 2-1.03 2-2V3.556L12.061 0z" id="outline"/><path class="st1" d="M11.641 1H5.964S5 1 5 2v4c.18 0 .354.021.526.045l.474.06V2h5v3h3v7H9.895l-.039.305-.782.191-.355.044.358.46h4.888c1 0 1.035-1 1.035-1V4l-3.359-3z" id="icon_x5F_bg"/><path class="st2" d="M8.15 13.438a3.972 3.972 0 0 1-.712.713l-.985-.768c-.243.148-.51.262-.796.331l-.153 1.235C5.337 14.971 5.173 15 5 15s-.337-.029-.504-.051l-.153-1.235a2.786 2.786 0 0 1-.796-.331l-.985.767a3.972 3.972 0 0 1-.712-.713l.768-.984a2.747 2.747 0 0 1-.331-.795l-1.235-.154C1.029 11.337 1 11.173 1 11s.029-.337.051-.504l1.235-.154c.068-.285.182-.551.331-.795l-.767-.985c.207-.267.445-.505.712-.712l.985.767c.243-.149.51-.262.796-.331l.153-1.235C4.663 7.03 4.827 7 5 7s.337.03.504.051l.153 1.235c.286.069.553.182.796.331l.985-.767c.267.207.505.445.712.712l-.767.985c.149.244.263.51.331.795l1.235.154c.022.167.051.331.051.504s-.029.337-.051.504l-1.235.154a2.747 2.747 0 0 1-.331.795l.767.985zM5 13a2 2 0 1 0 .001-3.999A2 2 0 0 0 5 13zm0-1a1 1 0 1 0 0-2 1 1 0 0 0 0 2z" id="color_x5F_importance"/><g id="icon_x5F_fg"><path class="st3" d="M3 11a2 2 0 1 1 4.001.001A2 2 0 0 1 3 11zm1 0a1 1 0 1 0 2 0 1 1 0 0 0-2 0zM11 5V2H6v4.105l.4.051.14 1.126.897-.699.615.477c.333.259.632.558.889.889l.476.614-.698.897 1.123.14.1.769c.037.272.058.447.058.631s-.021.359-.046.535L9.895 12H14V5h-3z"/></g></svg>