<svg xmlns="http://www.w3.org/2000/svg" viewBox="0 0 16 16"><style>.st0{opacity:0}.st0,.st1{fill:#f6f6f6}.st2{fill:#424242}.st3{fill:#682878}.st4{fill:#f0eff1}</style><g id="outline"><path class="st0" d="M0 0h16v16H0z"/><path class="st1" d="M16 2h-5V1H5v1H0v13h1.586l1 1h6.828l1-1H16z"/></g><path class="st2" d="M9.414 10l.586.586V2H6v8h3.414zM7 3h2v1H7V3zm-5 7h3V3H1v8.586l1-1V10zm0-6h2v2H2V4zm13-1h-4v8.586l1 1V12h2v1h-2v.414l-.586.586H15V3zm-1 8h-2v-1h2v1zm0-5h-2V4h2v2z" id="icon_x5F_bg"/><g id="color_x5F_imporatance"><path class="st3" d="M4 11h4v4H4zM11 13l-2 2v-1l1-1-1-1v-1zM3 11v1l-1 1 1 1v1l-2-2z"/></g><path class="st4" d="M2.586 10L2 10.586V10h.586zM4 4H2v2h2V4zm10 9v-1h-2v1h2zM9 3H7v1h2V3zm3 3h2V4h-2v2zm0 5h2v-1h-2v1z" id="icon_x5F_fg"/></svg>