<svg xmlns="http://www.w3.org/2000/svg" viewBox="0 0 16 16"><style>.st0{opacity:0}.st0,.st1{fill:#f6f6f6}.st2{fill:#424242}.st3{fill:#f0eff1}</style><g id="outline"><path class="st0" d="M0 0h16v16H0z"/><path class="st1" d="M13 12.001h-.49A6.214 6.214 0 0 0 16 8.172V4.347A6.214 6.214 0 0 0 10.053 0a6.247 6.247 0 0 0-6.238 6.002H1.583L0 7.601v1.8l1 1.011v2.589h2.586l-1 .999H5v2h10v-2.999h-2v-1z"/></g><g id="icon_x5F_bg"><path class="st2" d="M3 10.001l-1-1h4v-1H2l1-1H2l-1.483 1.5L2 10.001zM6 13.001l1.517-1.5L6 10.001H5l1 1H2v1h4l-1 1z"/><path class="st2" d="M15.303 6.254c0-.061-.008-.118-.009-.178a5.245 5.245 0 0 0-5.241-5.071 5.25 5.25 0 0 0-5.228 5.702c.009.1.024.197.039.294H7v.759c.31.072.631.14.976.195.154.785.406 1.588.736 2.396A4.278 4.278 0 0 1 7 9.293v.29l1.743 1.725c.087.022.169.054.257.073v1.62H8V14H6v1h3v1h2v-1h3v-1h-2v-.999h-1v-1.606c2.443-.45 4.303-2.567 4.303-5.141zm-4.212 4.182c.409-.861.725-1.662.929-2.396a9.548 9.548 0 0 0 2.164-.551 4.321 4.321 0 0 1-3.093 2.947zm2.926-5.881c.224.521.349 1.096.349 1.699 0 .095-.008.188-.014.28a8.85 8.85 0 0 1-2.136.647 6.897 6.897 0 0 0 .063-2.173 9.482 9.482 0 0 0 1.738-.453zm-.403-.73c-.515.177-1 .299-1.463.371a8.757 8.757 0 0 0-.688-2.012 4.302 4.302 0 0 1 2.151 1.641zm-4.11-1.844c.18-.023.362-.039.549-.039.124 0 .245.008.366.019.351.608.708 1.384.915 2.33-.428.029-.85.033-1.277.029-.45-.005-.885-.035-1.304-.083.175-.911.464-1.66.751-2.256zM5.756 6.557a3.793 3.793 0 0 1-.016-.303c0-.614.131-1.197.361-1.727.515.151 1.087.295 1.726.404a9.518 9.518 0 0 0-.057.944c-.005.4.025.811.073 1.226a14.594 14.594 0 0 1-2.087-.544zM7.941 4.12a14.484 14.484 0 0 1-1.426-.327A4.322 4.322 0 0 1 8.49 2.239a9.908 9.908 0 0 0-.549 1.881zm.738 3.108a9.118 9.118 0 0 1-.093-1.345c.004-.289.023-.566.051-.836.452.051.923.085 1.412.09.101.002.201.002.302.002.366 0 .737-.012 1.116-.04.028.254.049.513.053.784.004.434-.052.902-.157 1.402-.438.031-.868.037-1.306.034-.477-.005-.936-.04-1.378-.091zm1.448 3.336c-.025 0-.049.004-.074.004a4.29 4.29 0 0 1-.378-.019 12.934 12.934 0 0 1-.846-2.481c.393.039.8.064 1.22.068.101.002.201.002.302.002.261 0 .524-.008.79-.021-.229.744-.569 1.56-1.014 2.447z"/></g><g id="icon_x5F_fg"><path class="st3" d="M12.279 5.008a9.452 9.452 0 0 0 1.737-.453c.224.521.349 1.096.349 1.699 0 .095-.008.188-.014.28a8.85 8.85 0 0 1-2.136.647 6.897 6.897 0 0 0 .064-2.173zM13.614 3.825c-.515.177-1 .299-1.463.371a8.757 8.757 0 0 0-.688-2.012 4.302 4.302 0 0 1 2.151 1.641zM10.053 10.567a4.29 4.29 0 0 1-.378-.019 12.902 12.902 0 0 1-.846-2.48c.393.039.8.064 1.22.068.101.002.201.002.302.002.261 0 .524-.008.79-.021-.229.743-.568 1.559-1.014 2.445-.025.002-.049.005-.074.005zM10.057 7.319c-.477-.005-.936-.04-1.378-.091a9.118 9.118 0 0 1-.093-1.345c.004-.289.023-.566.051-.836.452.051.923.085 1.412.09.101.002.201.002.302.002.366 0 .737-.012 1.116-.04.028.254.049.513.053.784.004.434-.052.902-.157 1.402a16.77 16.77 0 0 1-1.306.034zM10.053 1.942c.124 0 .245.008.366.019.351.608.708 1.384.915 2.33-.428.029-.85.033-1.277.029-.45-.005-.885-.035-1.304-.083.175-.911.464-1.66.751-2.255.18-.024.362-.04.549-.04zM8.49 2.239a9.908 9.908 0 0 0-.549 1.881 14.484 14.484 0 0 1-1.426-.327A4.322 4.322 0 0 1 8.49 2.239zM5.74 6.254c0-.614.131-1.197.361-1.727.515.151 1.087.295 1.726.404a9.518 9.518 0 0 0-.057.944c-.005.4.025.811.073 1.226a14.594 14.594 0 0 1-2.087-.544 3.793 3.793 0 0 1-.016-.303zM11.091 10.436c.409-.861.725-1.662.929-2.396a9.548 9.548 0 0 0 2.164-.551 4.321 4.321 0 0 1-3.093 2.947zM7 9.293a4.305 4.305 0 0 0 1.712 1.06 13.025 13.025 0 0 1-.736-2.397A14.031 14.031 0 0 1 7 7.761v1.532z"/></g></svg>