<svg xmlns="http://www.w3.org/2000/svg" viewBox="0 0 16 16"><style>.st0{opacity:0}.st0,.st1{fill:#f6f6f6}.st2{fill:#424242}.st3{fill:#f0eff1}</style><g id="outline"><path class="st0" d="M0 0h16v16H0z"/><path class="st1" d="M16 4.58C15.267 1.922 12.835 0 9.926 0 6.445 0 3.614 2.804 3.614 6.25a6.955 6.955 0 0 0 .091 1.049c.038.229.096.701.163.701h-1.42L.022 10.481 2 12.373V15h2.472l-1.01 1h3.864l2.553-2.519-1.1-1.086.114.021.1.013a6.537 6.537 0 0 0 1.552.043c2.65-.258 4.768-2.088 5.456-4.509V4.58z"/></g><g id="icon_x5F_bg"><path class="st2" d="M6 12l1 1H3v1h4l-1 1h1l1.517-1.5L7 12zM4 12l-1-1h4v-1H3l1-1H3l-1.483 1.5L3 12z"/><path class="st2" d="M15.227 6.111a5.247 5.247 0 1 0-10.469.63c.013.136.032.269.054.4l.002.014c.111.669.361 1.287.7 1.845h1.13a4.296 4.296 0 0 1-.792-1.492 15.03 15.03 0 0 0 2.057.482c.154.785.406 1.588.736 2.396A4.2 4.2 0 0 1 8 10.107v1.02c.359.147.731.271 1.126.336l.015.002a5.16 5.16 0 0 0 1.36.049 5.251 5.251 0 0 0 4.736-5.225c-.001-.06-.008-.119-.01-.178zm-1.679-2.252a8.63 8.63 0 0 1-1.463.371 8.743 8.743 0 0 0-.689-2.014 4.323 4.323 0 0 1 2.152 1.643zm-4.11-1.843c.179-.024.362-.039.548-.039.124 0 .245.008.366.018.351.609.708 1.385.915 2.33-.428.029-.85.033-1.277.029a12.665 12.665 0 0 1-1.303-.083c.174-.912.463-1.66.751-2.255zM5.689 6.592c-.007-.102-.015-.201-.015-.303 0-.615.131-1.197.361-1.727.515.15 1.087.295 1.726.404a9.805 9.805 0 0 0-.058.944c-.005.4.025.811.073 1.227a14.755 14.755 0 0 1-2.087-.545zm2.186-2.438a14.216 14.216 0 0 1-1.427-.328 4.318 4.318 0 0 1 1.976-1.553 9.886 9.886 0 0 0-.549 1.881zm.737 3.108a9.25 9.25 0 0 1-.092-1.344 9.32 9.32 0 0 1 .05-.836c.452.051.923.084 1.412.09.101.002.201.002.302.002.366 0 .737-.012 1.116-.041.028.254.049.514.053.785.004.434-.052.902-.157 1.402-.439.031-.868.037-1.306.033a12.455 12.455 0 0 1-1.378-.091zm1.449 3.336c-.025 0-.049.004-.074.004-.127 0-.254-.008-.378-.02a12.773 12.773 0 0 1-.846-2.478c.393.039.8.064 1.22.068.101.002.201.002.302.002.261 0 .524-.008.79-.021-.229.743-.569 1.558-1.014 2.445zm.963-.127c.409-.861.725-1.662.929-2.396a9.496 9.496 0 0 0 2.164-.551 4.316 4.316 0 0 1-3.093 2.947zm3.261-3.903a8.768 8.768 0 0 1-2.136.648 6.907 6.907 0 0 0 .063-2.174 9.533 9.533 0 0 0 1.737-.453c.224.521.349 1.096.349 1.699.001.095-.007.189-.013.28z"/></g><g id="icon_x5F_fg"><path class="st3" d="M12.213 5.043a9.533 9.533 0 0 0 1.737-.453c.224.521.349 1.096.349 1.699 0 .094-.008.188-.014.279a8.768 8.768 0 0 1-2.136.648 6.907 6.907 0 0 0 .064-2.173zM13.548 3.859a8.63 8.63 0 0 1-1.463.371 8.743 8.743 0 0 0-.689-2.014 4.323 4.323 0 0 1 2.152 1.643zM9.986 10.602c-.127 0-.254-.008-.378-.02a12.835 12.835 0 0 1-.845-2.478c.393.039.8.064 1.22.068.101.002.201.002.302.002.261 0 .524-.008.79-.021-.228.744-.568 1.559-1.014 2.445-.026 0-.049.004-.075.004zM9.99 7.354c-.476-.004-.935-.04-1.378-.092a9.25 9.25 0 0 1-.092-1.344 9.32 9.32 0 0 1 .05-.836c.452.051.923.084 1.412.09.101.002.201.002.302.002.366 0 .737-.012 1.116-.041.028.254.049.514.053.785.004.434-.052.902-.157 1.402a16.28 16.28 0 0 1-1.306.034zM9.986 1.977c.124 0 .245.008.366.018.351.609.708 1.385.915 2.33-.428.029-.85.033-1.277.029a12.665 12.665 0 0 1-1.303-.083 9.12 9.12 0 0 1 .751-2.256c.179-.023.362-.038.548-.038zM8.424 2.273a9.886 9.886 0 0 0-.549 1.881 14.216 14.216 0 0 1-1.427-.328 4.323 4.323 0 0 1 1.976-1.553zM5.674 6.289c0-.615.131-1.197.361-1.727.515.15 1.087.295 1.726.404a9.805 9.805 0 0 0-.058.944c-.005.4.025.811.073 1.227a14.755 14.755 0 0 1-2.087-.545c-.007-.102-.015-.201-.015-.303zM11.024 10.471c.409-.861.725-1.662.929-2.396a9.496 9.496 0 0 0 2.164-.551 4.316 4.316 0 0 1-3.093 2.947zM8 9v1.107c.207.107.42.205.646.279a12.921 12.921 0 0 1-.737-2.396 15.082 15.082 0 0 1-2.058-.482c.164.553.439 1.056.793 1.492H8z"/></g></svg>