<svg xmlns="http://www.w3.org/2000/svg" viewBox="0 0 16 16"><style>.st0{opacity:0}.st0,.st1{fill:#f6f6f6}.st2{fill:#424242}</style><g id="outline"><path class="st0" d="M0 0h16v16H0z"/><path class="st1" d="M12.096 11.023l3.023-3.105-.264-.155L15.5 7h-1.947l-.316-.186-.133.186h-.347c-.09 0-.182-.508-.274-.805.097-.15.168-.244.215-.3.247.068.471.101.682.101.439 0 .846-.17 1.152-.484a1.63 1.63 0 0 0 .451-1.153c0-.58-.247-.956-.46-1.176-.213-.216-.596-.473-1.207-.473a2.13 2.13 0 0 0-1.023.261c-.228.125-.464.32-.731.606-.074-.138-.153-.127-.237-.259L11.03 3H9.725c.142-1 .264-.668.264-1.078 0-.523-.217-1.066-.606-1.394C9.027.226 8.535.036 7.919.036c-.797 0-1.529.219-2.173.685-.606.436-1.147 1.094-1.649 2.024-.027.048-.049.081-.068.11-.027.001-.869.223-.869.223L2.402 6h.845l-.873 3.188c-.061.232-.111.307-.153.465-.148-.045-.321-.133-.52-.133-.581 0-.963.208-1.179.403A1.522 1.522 0 0 0 0 11.067c0 .475.215.9.601 1.213.338.275.797.413 1.363.413.726 0 1.385-.197 1.957-.584.541-.363 1.009-.913 1.393-1.634.266-.503.525-1.204.785-2.114a1.88 1.88 0 0 0-.018.2 1.757 1.757 0 0 0-.079.502c0 .463.167.869.47 1.162.179.18.482.379.924.442l.333.312-2.239 1.973a1.797 1.797 0 0 0-.001 2.522c.337.339.783.526 1.258.526.474 0 .92-.188 1.284-.553l2.048-2.219L13.191 16 16 15.996l-3.904-4.973zM6.335 7.714L6.827 6H7v-.07l1.197-.242c.167-.034.315-.103.467-.196.094.249.227.647.405 1.278-.1.126-.203.25-.297.363a1.74 1.74 0 0 0-.907-.258c-.487 0-.953.188-1.275.512-.171.172-.299.486-.386.698.044-.162.087-.196.131-.371z"/></g><g id="icon_x5F_bg"><path class="st2" d="M6.049 5h.825l.204-1h-.849c.242-1 .561-1.781.959-2.236.241-.284.478-.463.708-.463.047 0 .085-.005.114.022a.118.118 0 0 1 .043.096c0 .039-.032.108-.097.218a.615.615 0 0 0-.096.307c0 .137.05.252.152.349a.53.53 0 0 0 .385.146.55.55 0 0 0 .42-.178.673.673 0 0 0 .171-.483.699.699 0 0 0-.255-.561C8.564 1.073 8.292 1 7.919 1c-.585 0-1.115.172-1.589.515-.477.343-.929.909-1.356 1.701-.149.273-.29.448-.422.525-.132.078-.344.347-.637.344L3.723 5h.813L3.342 9.438c-.198.768-.332 1.126-.402 1.304-.102.262-.256.426-.463.607-.081.074-.179.083-.297.083-.031 0-.058-.024-.083-.044l-.028-.047c0-.022.028-.064.087-.124.059-.061.088-.154.088-.279a.452.452 0 0 0-.14-.341c-.094-.09-.228-.134-.402-.134-.212 0-.38.057-.509.174a.54.54 0 0 0-.193.416c0 .172.077.32.233.447.155.127.398.189.73.189.526 0 .992-.137 1.399-.412.408-.275.762-.699 1.066-1.271.303-.572.616-1.263.936-2.537L6.049 5zM8 4.708c0-.031.684-.471.788-.471.203 0 .37.087.503.263.211.272.502 1.103.876 2.49-.19.256-.483.614-.701.874l.199.267c.218-.257.438-.523.619-.753.104.332.265.743.406 1.083l1.21-.889a17.944 17.944 0 0 1-.5-1.51c.295-.522.544-.863.747-1.023a.749.749 0 0 1 .468-.175c.063 0 .175.022.336.066.162.045.306.068.429.068.172 0 .316-.06.432-.178a.635.635 0 0 0 .172-.459.651.651 0 0 0-.172-.473c-.115-.117-.28-.175-.495-.175-.19 0-.371.046-.541.137-.168.092-.383.29-.644.593-.194.226-.483.767-.866 1.332C11.112 5.074 10.852 4 10.481 4H8v.708z"/><path class="st2" d="M10.801 11l2.667-3.129h-.446L10 10.246 8.395 8.094c-.273-.312-.828-.271-1.098 0a.789.789 0 0 0 0 1.113L9.218 11l-3.019 2.656a.783.783 0 0 0 0 1.111.763.763 0 0 0 1.098 0l2.713-2.938 3.563 3.166h.396L10.801 11z"/></g></svg>