<svg xmlns="http://www.w3.org/2000/svg" viewBox="0 0 16 16"><style>.st0{fill:#f6f6f6}.st1{fill:#424242}.st2{fill:#f0eff1}</style><path class="st0" d="M3 0v7.275c-1.744.621-3 2.268-3 4.225 0 1.957 1.256 3.604 3 4.225V16h13V0H3z" id="outline"/><g id="icon_x5F_bg"><path class="st1" d="M8.95 11H15V9H8.24c.391.583.628 1.268.71 2zM7.297 15H15v-2H8.725a4.49 4.49 0 0 1-1.428 2zM4 1h11v2H4zM4 5h11v2H4zM4.5 8a3.5 3.5 0 1 0 0 7 3.5 3.5 0 0 0 0-7zM2 12v-1h5v1H2z"/></g><path class="st2" d="M2 11h5v1H2z" id="icon_x5F_fg"/></svg>