<svg xmlns="http://www.w3.org/2000/svg" viewBox="0 0 16 16"><style>.st0{opacity:0}.st0,.st1{fill:#f6f6f6}.st2{fill:none}.st3{fill:#424242}.st4{fill:#f0eff1}</style><g id="outline"><path class="st0" d="M0 0h16v16H0z"/><path class="st1" d="M2 0v8h-.414L0 9.586v4.828L1.586 16h6.828L10 14.414V12h4v-2h2V0z"/></g><g id="icon_x5F_bg"><path class="st2" d="M5 10a2 2 0 1 0 .001 4.001A2 2 0 0 0 5 10zm0 3a1 1 0 1 1 0-2 1 1 0 1 1 0 2zM7 10h1v1H7z"/><path class="st3" d="M7 9L6 8H4L3 9H2l-1 1v4l1 1h6l1-1v-4L8 9H7zm-2 5a2 2 0 1 1 .001-4.001A2 2 0 0 1 5 14zm3-3H7v-1h1v1z"/><circle class="st3" cx="5" cy="12" r="1"/><path class="st3" d="M15 9V1H3v6.586L3.586 7H4V2h10v6H8.414L10 9.586V11h3v-1h-2V9z"/></g><path class="st4" d="M14 2v6H7.414l-1-1H4V2h10zM7 12a2 2 0 1 1-4.001-.001A2 2 0 0 1 7 12zm-1 0a1 1 0 1 0-2 0 1 1 0 1 0 2 0zm1-1h1v-1H7v1z" id="icon_x5F_fg"/></svg>