<svg xmlns="http://www.w3.org/2000/svg" viewBox="0 0 16 16"><style>.st0{fill:#f6f6f6}.st1{fill:#424242}.st2{fill:#fc0}</style><path class="st0" d="M16 14l-.992 2H8.059l-.993-2 1.86-3.748a2.433 2.433 0 0 1-.346.222 2.2 2.2 0 0 1-.973.222c-.593 0-.97-.256-1.183-.471-.3-.293-.466-.7-.466-1.162 0-.468.167-.883.485-1.2.308-.314.72-.483 1.185-.483.234 0 .479.056.729.166l.053-.058c.058-.064.338-.398.593-.717a16.594 16.594 0 0 0-.402-1.279 1.452 1.452 0 0 1-.465.196l-1.189.242v-.394h-.17l-.488 1.946c-.338 1.357-.67 2.336-1.014 2.993-.381.721-.845 1.269-1.382 1.633a3.384 3.384 0 0 1-1.942.582c-.563 0-1.018-.14-1.354-.416A1.559 1.559 0 0 1 0 11.053c0-.442.184-.854.519-1.158a1.696 1.696 0 0 1 1.17-.432c.197 0 .369.029.516.075l.152-.582.867-3.42h-.839l.752-2.692s.835.008.863.007a1.71 1.71 0 0 0 .066-.115c.499-.93 1.036-1.597 1.638-2.033A3.592 3.592 0 0 1 7.861 0c.612 0 1.1.153 1.453.456.386.328.601.798.601 1.321 0 .409-.121.711-.262.933h1.296l.293.463c.083.132.162.266.235.404.266-.286.499-.48.727-.606a2.105 2.105 0 0 1 1.015-.261c.606 0 .987.257 1.198.473.211.22.457.596.457 1.176 0 .448-.155.846-.448 1.153a1.577 1.577 0 0 1-1.144.484c-.21 0-.432-.033-.677-.101-.047.056-.117.15-.214.3.133.43.271.817.39 1.125l.358-.506 1.868 1.103-.534.871a6.515 6.515 0 0 1-.628.87L16 14z" id="outline"/><path class="st1" d="M5.931 4.536l-.684 2.7c-.319 1.274-.633 2.197-.936 2.77-.305.573-.658.997-1.066 1.271a2.439 2.439 0 0 1-1.399.412c-.332 0-.575-.063-.73-.189-.156-.127-.233-.275-.233-.447a.54.54 0 0 1 .192-.415.725.725 0 0 1 .509-.175c.175 0 .309.044.402.134.094.089.14.202.14.339 0 .125-.029.217-.088.277-.059.061-.087.101-.087.121l.028.04c.025.02.052.029.083.029a.423.423 0 0 0 .297-.111c.207-.183.361-.404.463-.666.07-.179.204-.652.402-1.42l1.193-4.67h-.813l.192-.683c.294.003.506-.034.638-.112s.272-.252.422-.525c.428-.792.879-1.358 1.356-1.701A2.647 2.647 0 0 1 7.801 1c.373 0 .646.073.814.217a.697.697 0 0 1 .255.56c0 .203-.058.364-.171.482a.55.55 0 0 1-.42.178.532.532 0 0 1-.385-.146.46.46 0 0 1-.152-.35c0-.097.032-.201.096-.309.064-.11.097-.184.097-.223a.137.137 0 0 0-.043-.105.165.165 0 0 0-.115-.04c-.23 0-.467.142-.708.426-.397.456-.716 1.177-.958 2.163h.849l-.204.683h-.825zm7.68 3.727l-.21-.123c-.077.107-.137.181-.2.262l.135.271c.092-.126.183-.261.275-.41zM11.577 7a19 19 0 0 1-.295-.94c.295-.522.544-.863.747-1.023a.75.75 0 0 1 .468-.175c.063 0 .175.022.336.066.162.045.306.068.429.068.172 0 .316-.06.432-.178a.635.635 0 0 0 .172-.459.651.651 0 0 0-.172-.473c-.115-.117-.28-.175-.495-.175-.19 0-.371.046-.541.137-.168.092-.383.29-.644.593-.194.226-.483.622-.866 1.187a5.855 5.855 0 0 0-.783-1.917H7.88v.998c.152-.031.685-.471.789-.471.203 0 .37.087.503.263.211.272.503 1.103.877 2.489a25.914 25.914 0 0 1-.957 1.174c-.179.195-.327.321-.444.38a.653.653 0 0 1-.305.07c-.084 0-.225-.047-.418-.14a.856.856 0 0 0-.359-.094.662.662 0 0 0-.49.193.66.66 0 0 0-.192.49c0 .188.059.339.179.456.117.118.278.176.482.176.192 0 .377-.041.548-.123.171-.082.386-.257.646-.523.259-.267.971-1.094 1.427-1.674.017.053.041.116.061.173L10.5 7h1.077z" id="icon_x5F_bg"/><path class="st2" d="M11.891 8.016h-.781l-3.016 6 .515.984h5.766l.484-1-2.968-5.984zM12 14h-1v-1h1v1zm0-2h-1v-2h1v2z" id="not_x5F_bg"/><path d="M12 12h-1v-2h1v2zm0 1h-1v1h1v-1z" id="not_x5F_fg"/></svg>