<svg xmlns="http://www.w3.org/2000/svg" viewBox="0 0 16 16"><style>.st0{opacity:0}.st0,.st1{fill:#f6f6f6}.st2{fill:none}.st3{fill:#424242}.st4{fill:#f0eff1}</style><g id="outline"><path class="st0" d="M0 0h16v16H0z"/><path class="st1" d="M0 15V0h16v15H0z"/></g><g id="icon_x5F_bg"><path class="st2" d="M11.882 4H4.118l1 2h5.764zM8.882 10l1-2H6.118l1 2z"/><path class="st2" d="M2 13h12V2H2v11zM3 3h10v1l-4 8H7L3 4V3z"/><path class="st3" d="M1 1v13h14V1H1zm13 12H2V2h12v11z"/><path class="st3" d="M9 12l4-8V3H3v1l4 8h2zM4.118 4h7.764l-1 2H5.118l-1-2zm5.764 4l-1 2H7.118l-1-2h3.764z"/></g><path class="st4" d="M5.118 6l-1-2h7.764l-1 2H5.118zM14 2v11H2V2h12zm-1 1H3v1l4 8h2l4-8V3zm-5.882 7h1.764l1-2H6.118l1 2z" id="icon_x5F_fg"/></svg>