<svg xmlns="http://www.w3.org/2000/svg" viewBox="0 0 16 16"><style>.st0{opacity:0}.st0,.st1{fill:#f6f6f6}.st2{fill:#424242}</style><g id="outline"><path class="st0" d="M0 0h16v16H0z"/><path class="st1" d="M4 1H2v5H0v3h2v5h2v1h3v-3H5V3h2V0H4zM14 6V1h-2V0H9v3h2v9H9v3h3v-1h2V9h2V6z"/></g><g id="icon_x5F_bg"><path class="st2" d="M5 1h1v1H5zM3 2h1v1H3zM3 4h1v1H3zM3 6h1v1H3zM3 8h1v1H3zM1 7h1v1H1zM3 10h1v1H3zM3 12h1v1H3zM5 13h1v1H5zM10 1h1v1h-1zM12 2h1v1h-1zM12 4h1v1h-1zM12 6h1v1h-1zM12 8h1v1h-1zM14 7h1v1h-1zM12 10h1v1h-1zM12 12h1v1h-1zM10 13h1v1h-1z"/></g></svg>