<svg xmlns="http://www.w3.org/2000/svg" viewBox="0 0 16 16"><style>.st0{opacity:0}.st0,.st1{fill:#f6f6f6}.st2{fill:#424242}.st3{fill:#f0eff1}</style><g id="outline"><path class="st0" d="M0 0h16v16H0z"/><path class="st1" d="M16 3c0-1.97-2.767-3-5.5-3S5 1.03 5 3v2.012C2.439 5.129 0 6.15 0 8v5c0 1.97 2.767 3 5.5 3 1.25 0 2.504-.218 3.5-.641V16h3.414L16 12.414v-.828l-.398-.397c.25-.349.398-.744.398-1.189V3z"/></g><g id="icon_x5F_bg"><path class="st2" d="M6 2h1v1H6zM10 1h1v1h-1zM12 1h1v1h-1zM14 2h1v1h-1zM6 4h1v1H6zM10 3h1v1h-1zM12 3h1v1h-1zM14 4h1v1h-1zM14 6h1v1h-1zM14 8h1v1h-1zM8 1h1v1H8zM8 3h1v1H8zM1 7h1v1H1zM5 6h1v1H5zM7 6h1v1H7zM9 7h1v1H9zM1 9h1v1H1zM5 8h1v1H5zM7 8h1v1H7zM1 11h1v1H1zM1 13h1v1H1zM5 14h1v1H5zM3 6h1v1H3zM3 8h1v1H3zM3 14h1v1H3zM7 14h1v1H7zM15 10.586V10h-.586zM9 10h.586L9 9.414z"/><path class="st2" d="M10 9l2 2H9v2h3l-2 2h2l3-3-3-3z"/></g><g id="icon_x5F_fg"><path class="st3" d="M15 4V3h-1V2h.376c-.346-.264-.808-.493-1.376-.662V2h-1v-.877a9.428 9.428 0 0 0-1-.1V2h-1v-.978c-.347.017-.682.05-1 .1V2H8v-.662c-.569.169-1.03.398-1.376.662H7v1H6v1h1v1H6v.012C8.561 5.129 11 6.15 11 8h1.414l2 2H15V9h-1V8h1V7h-1V6h1V5h-1V4h1zM9 4H8V3h1v1zm2 0h-1V3h1v1zm2 0h-1V3h1v1z"/><path class="st3" d="M9 10V7h.376C9.03 6.736 8.569 6.507 8 6.338V7H7v-.877a9.455 9.455 0 0 0-1-.1V7H5v-.978c-.347.017-.681.05-1 .1V7H3v-.662c-.569.169-1.03.398-1.376.662H2v1H1v1h1v1H1v1h1v1H1v1h1v1h-.376c.346.264.807.493 1.376.662V14h1v.878c.319.05.653.082 1 .1V14h1v.977c.347-.017.681-.05 1-.1V14h1v-4h1zM4 9H3V8h1v1zm2 0H5V8h1v1zm1 0V8h1v1H7zM8 14.662c.571-.17 1.045-.398 1.391-.662H8v.662z"/></g></svg>