<svg xmlns="http://www.w3.org/2000/svg" viewBox="0 0 16 16"><style>.st0{opacity:0}.st0,.st1{fill:#f6f6f6}.st2{fill:#424242}.st3{fill:#f0eff1}</style><g id="outline"><path class="st0" d="M0 0h16v16H0z"/><path class="st1" d="M4 15c-.97 0-2-.701-2-2V3c0-1.299 1.03-2 2-2h6.061L14 4.556V13c0 .97-.701 2-2 2H4z"/></g><g id="icon_x5F_bg"><path class="st2" d="M9.22 10.947h-.84l-.869-1.8a1.922 1.922 0 0 1-.085-.233h-.013a4.3 4.3 0 0 1-.088.233l-.894 1.8h-.846L6.972 8.48 5.696 6.04h.859l.764 1.656c.05.109.094.219.133.329h.009c.058-.145.106-.258.147-.343l.794-1.642h.791L7.889 8.473l1.331 2.474zM13 10.595c-.44.275-.932.412-1.473.412-.625 0-1.132-.223-1.519-.668-.387-.447-.581-1.037-.581-1.771 0-.75.211-1.365.636-1.847.423-.48.962-.721 1.615-.721.471 0 .865.079 1.187.236v.828c-.325-.248-.711-.371-1.16-.371-.45 0-.819.17-1.107.51-.288.34-.433.78-.433 1.321 0 .557.124.994.372 1.313.248.318.585.478 1.01.478.291 0 .542-.064.755-.193V8.971h-.892v-.676H13v2.3zM12 12v1H4v-1H3v1c0 1 .964 1 .964 1h8c1 0 1.036-1 1.036-1v-1h-1zM3.954 2C3.897 2.001 3 2.031 3 3v2h1V3h5v2h4L9.641 2H3.954zM5.283 6.706V6H3v5h.702V8.914H5.16v-.702H3.702V6.706z"/></g><g id="icon_x5F_fg"><path class="st3" d="M4 12h8v1H4zM4 3h5v2H4z"/></g></svg>