<svg xmlns="http://www.w3.org/2000/svg" viewBox="0 0 16 16"><style>.st0{opacity:0}.st0,.st1{fill:#f6f6f6}.st2{fill:none}.st3{fill:#424242}.st4{fill:#f0eff1}</style><g id="outline"><path class="st0" d="M0 0h16v16H0z"/><path class="st1" d="M0 0h12v4h4v11H0z"/></g><g id="icon_x5F_bg"><path class="st2" d="M2 13h12V6H2v7zm4-5h6v1H6V8zm0 3h5v1H6v-1zM3 7h2v2H3V7zm0 3h2v2H3v-2zM2 2h8v1H2z"/><path class="st3" d="M6 8h6v1H6zM11 1H1v3h10V1zm-1 2H2V2h8v1zM3 10h2v2H3z"/><path class="st3" d="M1 5v9h14V5H1zm13 8H2V6h12v7z"/><path class="st3" d="M6 11h5v1H6zM3 7h2v2H3z"/></g><g id="icon_x5F_fg"><path class="st2" d="M6 11h5v1H6zM3 7h2v2H3zM3 10h2v2H3zM6 8h6v1H6z"/><path class="st4" d="M2 6v7h12V6H2zm3 6H3v-2h2v2zm0-3H3V7h2v2zm6 3H6v-1h5v1zm1-3H6V8h6v1zM2 2h8v1H2z"/></g></svg>