<svg xmlns="http://www.w3.org/2000/svg" viewBox="0 0 16 16"><style>.st0{opacity:0}.st0,.st1{fill:#f6f6f6}.st2{fill:#424242}.st3{fill:#f0eff1}</style><g id="outline"><path class="st0" d="M0 0h16v16H0z"/><path class="st1" d="M0 0h16v15H0z"/></g><g id="icon_x5F_bg"><path class="st2" d="M1 1v13h14V1H1zm1 3h10v1H2V4zm12 9H2V6h11V3H2V2h12v11z"/><path class="st2" d="M4 7h8v2H4zM4 10h4v2H4z"/></g><g id="icon_x5F_fg"><path class="st3" d="M2 2v1h11v3H2v7h12V2H2zm6 10H4v-2h4v2zm4-3H4V7h8v2z"/><path class="st3" d="M2 4h10v1H2z"/></g></svg>