<svg xmlns="http://www.w3.org/2000/svg" viewBox="0 0 16 16"><style>.st0{opacity:0}.st0,.st1{fill:#f6f6f6}.st2{fill:#424242}.st3{fill:#f0eff1}</style><g id="outline"><path class="st0" d="M0 0h16v16H0z"/><path class="st1" d="M8 0a7.958 7.958 0 0 0-3.88 1.006 1.833 1.833 0 0 1-.151-.76L3.967 0 1.969.003s-.004.09-.001.246C1.942 1.103 1.374 2.51 0 2.533l.011.036L0 2.572v1.953a1.76 1.76 0 0 1 .772.062A7.964 7.964 0 0 0 0 8a8 8 0 1 0 8-8z"/></g><g id="icon_x5F_bg"><path class="st2" d="M6 11h4v1H6zM2.974 7.053s-.159-3.488 2.692-3.488l.004.001c-2.852 0-2.702-3.52-2.702-3.52S3.127 3.534.276 3.534l.003-.001c2.851 0 2.695 3.52 2.695 3.52zM5.684 8.261s-.095-2.059 1.589-2.059h.003c-1.685 0-1.596-2.079-1.596-2.079s.094 2.059-1.59 2.059h.002c1.684 0 1.592 2.079 1.592 2.079z"/><path class="st2" d="M8 1a6.969 6.969 0 0 0-3.142.751C5.753 2.199 7 2 7 2v.128c.166-.028.329-.067.5-.082v2.005C7.666 4.029 7.829 4 8 4s.334.029.5.051V2.025a5.941 5.941 0 0 1 3.357 1.411l-1.416 1.417c.067.052.117.124.181.181L8 7h-.001A.999.999 0 0 0 7 8a1 1 0 1 0 2 0l1.967-2.622c.057.064.129.113.182.182l1.419-1.42a5.978 5.978 0 0 1 1.387 3.36H11.95c.021.166.05.329.05.5s-.029.334-.051.5h2.025A5.997 5.997 0 0 1 8 14a5.998 5.998 0 0 1-5.975-5.5H4V8H2V6.984s.031-1.025-.427-1.756A7 7 0 1 0 8 1z"/></g><g id="icon_x5F_fg"><path class="st3" d="M7 2.128V4c0 1.013.752 1.014 1 1.014V7l2.622-1.966c-.063-.057-.113-.128-.181-.181l1.416-1.417A5.955 5.955 0 0 0 8.5 2.025V4.05C8.334 4.029 8.171 4 8 4s-.334.029-.5.051V2.046c-.171.015-.334.054-.5.082zM7.999 7c-.118 0-.705.052-.918.607A.999.999 0 0 1 7.999 7zM7 8c0-.137.028-.266.078-.385-.041.11-.073.232-.078.385z"/><path class="st3" d="M11.949 8.5c.022-.166.051-.329.051-.5s-.029-.334-.051-.5h2.005a5.964 5.964 0 0 0-1.387-3.36l-1.419 1.42c-.053-.068-.125-.118-.182-.182L9 8a1 1 0 1 1-2 0c.002.105 0 1 0 1H4v-.5H2.025A5.998 5.998 0 0 0 8 14a5.999 5.999 0 0 0 5.975-5.5h-2.026zM10 12H6v-1h4v1z"/></g></svg>