<svg xmlns="http://www.w3.org/2000/svg" viewBox="0 0 16 16"><style>.st0{opacity:0;fill:#424242}.st1{fill:#f6f6f6}.st2{fill:#424242}</style><g id="Outline"><path class="st0" d="M0 0h16v16H0z"/><path class="st1" d="M16 13l-.065-1.066a7.961 7.961 0 0 0-4.355-6.603l.47-1.475-1.073-.52L9.91 4.715a7.873 7.873 0 0 0-1.902-.241c-4.184 0-7.662 3.27-7.927 7.446L0 13h6.468c.358.215.771.346 1.218.346.447 0 .861-.131 1.219-.346H16z"/></g><g id="icon_x5F_bg"><path class="st2" d="M14.936 12c-.153-2-1.596-4.598-3.662-5.704l-.371 1.162a5.436 5.436 0 0 1 2.217 4.379c0 .055-.006.163-.008.163h1.824zM8.554 6.467l.683-.883a7.004 7.004 0 0 0-1.229-.113c-3.693 0-6.704 2.88-6.93 6.517 0 0 .841.037.841-.016 0-3.006 2.757-5.582 5.762-5.582.298.001.588.031.873.077zM11.04 4.511l-.087-.046-3.542 5.137a1.386 1.386 0 1 0 1.663 1.357c0-.221-.058-.428-.149-.613l2.115-5.835z"/></g></svg>