<svg xmlns="http://www.w3.org/2000/svg" width="16" height="16"><style type="text/css">.icon-canvas-transparent{opacity:0;fill:#F6F6F6;} .icon-vs-out{fill:#F6F6F6;} .icon-vs-bg{fill:#424242;} .icon-vs-fg{fill:#F0EFF1;}</style><path class="icon-canvas-transparent" d="M16 16h-16v-16h16v16z" id="canvas"/><path class="icon-vs-out" d="M16 8c0 4.418-3.582 8-8 8s-8-3.582-8-8 3.582-8 8-8 8 3.582 8 8z" id="outline"/><path class="icon-vs-bg" d="M8 1c-3.866 0-7 3.134-7 7s3.134 7 7 7 7-3.134 7-7-3.134-7-7-7zm0 13c-3.145 0-5.72-2.421-5.975-5.5h2.025c-.021-.166-.05-.329-.05-.5 0-.171.029-.334.05-.5h-2.025c.105-1.28.628-2.431 1.41-3.357l1.417 1.417c.206-.266.442-.502.707-.707l-1.419-1.42c.923-.783 2.085-1.277 3.36-1.387v2.005c.166-.022.329-.051.5-.051.171 0 .334.029.5.051v-2.026c1.279.105 2.432.628 3.357 1.411l-1.416 1.417.181.181-2.622 1.966c-.553 0-1 .447-1 1s.448 1 1 1 1-.447 1-1l1.967-2.622.182.182 1.419-1.42c.782.923 1.276 2.085 1.387 3.36h-2.005c.021.166.05.329.05.5 0 .171-.029.334-.051.5h2.025c-.254 3.079-2.83 5.5-5.974 5.5zm-2-3h4v1h-4v-1z" id="iconBg"/><path class="icon-vs-fg" d="M11.949 8.5c.022-.166.051-.329.051-.5 0-.171-.029-.334-.051-.5h2.005c-.11-1.275-.604-2.437-1.387-3.36l-1.419 1.42-.182-.182-1.966 2.622c0 .553-.448 1-1 1s-1-.447-1-1 .447-1 1-1l2.623-1.967-.181-.181 1.416-1.417c-.926-.781-2.079-1.304-3.358-1.41v2.025c-.166-.021-.329-.05-.5-.05-.171 0-.334.029-.5.051v-2.005c-1.275.11-2.437.604-3.36 1.387l1.419 1.419c-.265.206-.501.442-.707.708l-1.416-1.417c-.782.926-1.305 2.077-1.411 3.357h2.025c-.021.166-.05.329-.05.5 0 .171.029.334.05.5h-2.025c.255 3.079 2.83 5.5 5.975 5.5 3.144 0 5.72-2.421 5.975-5.5h-2.026zm-1.949 3.5h-4v-1h4v1z" id="iconFg"/></svg>