<svg xmlns="http://www.w3.org/2000/svg" viewBox="0 0 16 16"><style>.st0{fill:#f6f6f6}.st1{fill:none}.st2{fill:#424242}.st3{fill:#c27d1a}.st4{fill:#f0eff1}</style><path class="st0" d="M16 7.414V1.586L14.414 0H8.585l-1.11 1.111-.854-.854L6 .878V0H3v.878L2.379.257.257 2.379.878 3H0v3h.878l-.621.621.854.854L0 8.586v5.828L1.585 16h5.83l1-1H11.5a2.505 2.505 0 0 0 2.373-1.713L15 14.414v-4.328L13.914 9h.5L16 7.414zm-6 2.672V12H9V9h2.086L10 10.086z" id="outline"/><g id="icon_x5F_bg"><path class="st1" d="M2.414 9L2 9.414v4.172l.414.414h4.172L7 13.586V9.414L6.586 9zM9.414 2L9 2.414v4.172L9.414 7h4.172L14 6.586V2.414L13.586 2z"/><path class="st2" d="M11 10.5V12l1-1v1.5c0 .275-.225.5-.5.5H9v1h2.5c.827 0 1.5-.673 1.5-1.5V11l1 1v-1.5L12.5 9 11 10.5zM14 1H9l-.818.818.56.561L8.121 3H9v-.586L9.414 2h4.172l.414.414v4.172L13.586 7H9.414L9 6.586V6h-.879l.621.621-.56.561L9 8h5l1-1V2zM6.621 8.742L6 8.121V9h.586L7 9.414v4.172L6.586 14H2.414L2 13.586V9.414L2.414 9H3v-.879l-.621.621-.561-.56L1 9v5l1 1h5l1-1V9l-.818-.818z"/></g><path class="st3" d="M8 4H5.707l1.621-1.621-.707-.708L5 3.293V1H4v2.293L2.379 1.671l-.708.708L3.293 4H1v1h2.293L1.671 6.621l.708.707L4 5.707V8h1V5.707l1.621 1.621.707-.707L5.707 5H8V4zM5 5H4V4h1v1z" id="color_x5F_action"/><g id="icon_x5F_fg"><path class="st4" d="M2.414 9L2 9.414v4.172l.414.414h4.172L7 13.586V9.414L6.586 9zM13.586 2H9.414L9 2.414v4.172L9.414 7h4.172L14 6.586V2.414z"/></g></svg>