<svg xmlns="http://www.w3.org/2000/svg" viewBox="0 0 16 16"><style>.st0{opacity:0}.st0,.st1{fill:#f6f6f6}.st2{fill:none}.st3{fill:#424242}.st4{fill:#00539c}.st5{fill:#f0eff1}</style><g id="outline"><path class="st0" d="M0 0h16v16H0z"/><path class="st1" d="M9 7V1.586L7.414 0H1.586L0 1.586v5.828L.586 8H0v1l1 1H0v4h1l-1 1v1h12v-2h2v-2h2V7z"/></g><g id="icon_x5F_bg"><path class="st2" d="M4.5 2a2.5 2.5 0 1 0 0 5 2.5 2.5 0 0 0 0-5zm0 4a1.5 1.5 0 1 1 .001-3.001A1.5 1.5 0 0 1 4.5 6z"/><circle class="st3" cx="4.5" cy="4.5" r="1.5"/><path class="st3" d="M7 10h4v1H7zM9 9V8h-.586l-1 1zM10 8h5v1h-5zM12 10h3v1h-3zM7 12h6v1H7zM8 7V2L7 1H2L1 2v5l1 1h5l1-1zM4.5 7a2.5 2.5 0 1 1 0-5 2.5 2.5 0 0 1 0 5zM5 14h6v1H5z"/></g><path class="st4" d="M4 9H2l2 2H0v2h4l-2 2h2l3-3z" id="color_x5F_imporatance"/><path class="st5" d="M4.5 2a2.5 2.5 0 1 0 0 5 2.5 2.5 0 0 0 0-5zm0 4a1.5 1.5 0 1 1 .001-3.001A1.5 1.5 0 0 1 4.5 6z" id="icon_x5F_fg"/></svg>