<svg xmlns="http://www.w3.org/2000/svg" viewBox="0 0 16 16"><style>.st0{opacity:0;fill:#f6f6f6}.st1{opacity:.01;fill:#00539c}.st2{fill:#f6f6f6}.st3{fill:#424242}.st4{fill:#00539c}.st5{fill:#f0eff1}</style><g id="outline"><path class="st0" d="M0 0h16v16H0z"/><path class="st1" d="M0 0h16v16H0z"/><path class="st2" d="M15 2v12H3V8H0l2-2H0V2h2L0 0h6l2 2h7z"/></g><path class="st3" d="M8.999 3L10 4h3v5l-1.5-1-2 1L7 7 6 8 5 9V8H4v5h10V3H8.999zM13 12H5v-1l2-2 2.5 2 2-1 1.5 1v1zM9 6a1 1 0 1 1 2 0 1 1 0 0 1-2 0z" id="icon_x5F_bg"/><path class="st4" d="M8 4L5 7H3l2-2H1V3h4L3 1h2z" id="color_x5F_action"/><path class="st5" d="M11.5 10l1.5 1v1H5v-1l2-2 2.5 2 2-1zM7 7l3-3h3v5l-1.5-1-2 1L7 7zm2-1a1 1 0 1 0 2 0 1 1 0 0 0-2 0zM5 9l1-1H5v1z" id="icon_x5F_fg"/></svg>