<svg xmlns="http://www.w3.org/2000/svg" viewBox="0 0 16 16"><style>.st0{fill:#f6f6f6}.st1{fill:none}.st2{fill:#424242}.st3{fill:#00539c}.st4{fill:#f0eff1}</style><path class="st0" d="M16 0H4v1h-.5a2.505 2.505 0 0 0-2.373 1.713L0 1.586v4.328L1.086 7H0v9h9v-4h7V0z" id="outline"/><g id="icon_x5F_bg"><path class="st1" d="M7 13.5V9H2v3.5L3.5 11 7 13.5zm-1.25-4a.75.75 0 1 1 0 1.5.75.75 0 0 1 0-1.5z"/><path class="st1" d="M3.5 12.5L2 14h3.5zM10.5 7l2-1L14 7V2H6v5l2-2 2.5 2zm.5-4a1 1 0 1 1 0 2 1 1 0 1 1 0-2z"/><circle class="st2" cx="5.75" cy="10.25" r=".75"/><path class="st2" d="M5 1v6h1V2h8v5l-1.5-1-2 1L8 5 6 7h3v.8L10.5 9l2-1L14 9v1H9v1h6V1z"/><path class="st2" d="M1 15h7V8H1v7zm1-6h5v4.5L3.5 11 2 12.5V9zm1.5 3.5l2 1.5H2l1.5-1.5z"/><circle class="st2" cx="11" cy="4" r="1"/></g><path class="st3" d="M5 3H3.5c-.275 0-.5.225-.5.5V5l1-1v1.5L2.5 7 1 5.5V4l1 1V3.5C2 2.672 2.673 2 3.5 2H5v1z" id="color_x5F_action"/><g id="icon_x5F_fg"><circle class="st1" cx="5.75" cy="10.25" r=".75"/><circle class="st1" cx="11" cy="4" r="1"/><path class="st4" d="M2 14h3.5l-2-1.5zM10.5 9L9 7.8V10h5V9l-1.5-1z"/><path class="st4" d="M2 12.5L3.5 11 7 13.5V9H2v3.5zm3.75-3a.75.75 0 1 1 0 1.5.75.75 0 0 1 0-1.5zM6 2v5l2-2 2.5 2 2-1L14 7V2H6zm5 3a1 1 0 1 1 0-2 1 1 0 1 1 0 2z"/></g></svg>