<svg xmlns="http://www.w3.org/2000/svg" viewBox="0 0 16 16"><style>.st0{fill:#f6f6f6}.st1{fill:#424242}.st2{fill:#00539c}.st3{fill:#f0eff1}</style><path class="st0" d="M16 2v14H1V8H0l1-1V6H0V2h2L0 0h6l2 2h8z" id="outline"/><path class="st1" d="M9 3l1 1-2 2h2v2H7V7L6 8H2v7h13V3H9zM6 14H3v-2h3v2zm0-3H3V9h3v2zm4 3H7v-2h3v2zm0-3H7V9h3v2zm4 3h-3v-2h3v2zm0-3h-3V9h3v2zm0-3h-3V6h3v2z" id="icon_x5F_bg"/><path class="st2" d="M8 4L5 7H3l2-2H1V3h4L3 1h2l3 3z" id="color_x5F_action"/><path class="st3" d="M3 12h3v2H3v-2zm0-1h3V9H3v2zm4 3h3v-2H7v2zm0-6h3V6H8L7 7v1zm4 3h3V9h-3v2zm-4 0h3V9H7v2zm4-3h3V6h-3v2zm0 6h3v-2h-3v2z" id="icon_x5F_fg"/></svg>