<svg xmlns="http://www.w3.org/2000/svg" viewBox="0 0 16 16"><style>.st0{fill:#f6f6f6}.st1{fill:#424242}.st2{fill:#00539c}.st3{fill:#f0eff1}</style><path class="st0" d="M16 4v2h-3v6.5c0 1.93-1.57 3.5-3.5 3.5h-6C1.57 16 0 14.43 0 12.5V11h2V9H0V0h6.414l1 1H13c1.654 0 3 1.346 3 3z" id="outline"/><g id="icon_x5F_bg"><path class="st1" d="M3 9h2v2H3z"/><path class="st1" d="M13 2H8.414L9 2.586V4h2v8.5a1.5 1.5 0 0 1-3 0V12H1v.5A2.5 2.5 0 0 0 3.5 15h6a2.5 2.5 0 0 0 2.5-2.5V5h3V4a2 2 0 0 0-2-2z"/></g><g id="color_x5F_action"><path class="st2" d="M6 1v3H3V1H1v7h7V3z"/><path class="st2" d="M4 1h1v2H4z"/></g><path class="st3" d="M8 12H5V9h4V4h2v8.5a1.5 1.5 0 0 1-3 0V12zM5 1v2H4V1H3v3h3V1H5z" id="icon_x5F_fg"/></svg>