<svg xmlns="http://www.w3.org/2000/svg" viewBox="0 0 16 16"><style>.icon-canvas-transparent{opacity:0;fill:#f6f6f6}.icon-vs-out{fill:#f6f6f6}.icon-vs-fg{fill:#f0eff1}.icon-vs-bg{fill:#424242}.icon-vs-action-blue{fill:#00539c}</style><path class="icon-canvas-transparent" d="M16 16H0V0h16v16z" id="canvas"/><path class="icon-vs-out" d="M16 4.379V16H3V6H0V3h3V0h1.961l.018-.018.017.018h6.625L16 4.379z" id="outline"/><path class="icon-vs-fg" d="M13.793 5H11V2.207L13.793 5zM10 6V2H6.996l2.5 2.5L5 8.996V14h9V6h-4z" id="iconFg"/><path class="icon-vs-bg" d="M11.207 1H5.996l1 1H10v4h4v8H5V8.996l-.021.022L4 8.039V15h11V4.793L11.207 1zM11 5V2.207L13.793 5H11z" id="iconBg"/><g id="colorAction"><path class="icon-vs-action-blue" d="M8.082 4.5L4.979 7.604l-.708-.708L6.168 5H1V4h5.168L4.271 2.104l.707-.707L8.082 4.5z"/></g></svg>