<svg xmlns="http://www.w3.org/2000/svg" viewBox="0 0 16 16"><style>.icon-canvas-transparent{opacity:0;fill:#f6f6f6}.icon-vs-out{fill:#f6f6f6}.icon-vs-fg{fill:#f0eff1}.icon-vs-blue_x0020_{fill:#1ba1e2}.st0{fill:#424242}.st1{fill:#f0eff1}</style><path class="icon-canvas-transparent" d="M0 0h16v16H0z" id="canvas"/><path class="icon-vs-out" d="M0 15V0h16v15H0z" id="outline"/><g id="iconBg"><path class="st0" d="M9 3v5.6L7 7V3z"/><path class="icon-vs-fg" d="M5 6H3v5l2-2zM13 4h-2v3.333l2-2.222zM9 3H7v4l2 1.6z"/><path class="icon-vs-fg" d="M1 1v13h14V1H1zm13 12h-1V9.609l-2 2.227V13H8.875L7 11.5V13H4l3-3 2.5 1.94L14 7v6zm0-9v1.5l-4.5 5.025L7 8.5 2.5 13H2V2h12v2z"/><g><path class="st0" d="M5 6H3v5l2-2zM13 4h-2v3.333l2-2.222zM9 3H7v4l2 1.6z"/><path class="st0" d="M1 1v13h14V1H1zm13 12h-1V9.609l-2 2.227V13H8.875L7 11.5V13H4l3-3 2.5 1.94L14 7v6zm0-9v1.5l-4.5 5.025L7 8.5 2.5 13H2V2h12v2z"/></g><path class="st0" d="M13 4h-2v3.333l2-2.222zM3 5.5V11l2-2V5.5z"/></g><path class="st1" d="M14 13h-1V9.609l-2 2.227V13H8.875L7 11.5V13H4l3-3 2.5 1.939L14 7v6zm0-11v3.5l-4.5 5.025L7 8.5 2.5 13H2V2h12zM5 9V5.5H3V11l2-2zm2-2l2 1.6V3H7v4zm6-1.889V4h-2v3.333l2-2.222z" id="iconFg"/><path class="icon-vs-blue_x0020_" d="M2.5 13L7 8.5l2.5 2.025L14 5.5V7l-4.5 4.94L7 10l-3 3H2.5z" id="colorImportance"/></svg>