<svg xmlns="http://www.w3.org/2000/svg" viewBox="0 0 16 16"><style>.st0{fill:#f6f6f6}.st1{fill:none}.st2{fill:#424242}.st3{fill:#00539c}.st4{fill:#f0eff1}</style><path class="st0" d="M12 7V0H0v13h2.586l-2 2h4.828L6 14.414V16h7v-2h2v-2h1V7h-4zm-4.586 6L8 12.414V13h-.586z" id="outline"/><g id="icon_x5F_bg"><path class="st1" d="M2 4h1v1H2zM2 2h1v1H2zM9 4h1v1H9zM9 2h1v1H9z"/><path class="st2" d="M1 9h1v-.586l-1-1zM8 7h1V6h1v1h1V1H1v6h1V6h1v1h1V2h4v5zm1-5h1v1H9V2zm0 2h1v1H9V4zM3 5H2V4h1v1zm0-2H2V2h1v1zM9 12h5v1H9zM13 10h2v1h-2zM11 8h4v1h-4zM7 14h5v1H7zM9 10h3v1H9zM10 9V8H7v1h2z"/></g><path class="st3" d="M5 8H3l2 2H1v2h4l-2 2h2l3-3z" id="color_x5F_action"/><g id="icon_x5F_fg"><path class="st4" d="M2 9h.586L2 8.414zM2 2h1v1H2zM9 4h1v1H9zM9 2h1v1H9zM9 6h1v1H9zM2 4h1v1H2zM2 6h1v1H2zM4 7h1.414L6 7.586V7h2V2H4z"/></g></svg>