<svg xmlns="http://www.w3.org/2000/svg" viewBox="0 0 16 16"><style>.st0{opacity:0}.st0,.st1{fill:#f6f6f6}.st2{fill:#424242}.st3{fill:#00539c}.st4{fill:#f0eff1}</style><g id="outline_1_"><path class="st0" d="M0 0h16v16H0z"/><path class="st1" d="M8.598.144H7.555l-1.326.67L5.414 0H.586l2 2H0v4h1.024v1.562L.586 8h.438v3.49L8.182 16h.486l6.212-4.555V3.458z"/></g><path class="st2" d="M8.077 1l-1.104.559.677.677.355-.181 4.799 2.364-4.476 2.686-1.286-.733-.677.677 1.641.916v5.584l-.04.026v.025l-.014-.012-.014.012v-.023l-4.947-3.226V8h-.967v2.939L8.4 14.956l5.48-4.018V4.062L8.077 1zM13 10.509L8.973 13.41V8L13 5.365v5.144z" id="icon_x5F_bg"/><path class="st3" d="M5 1H3l2 2H1v2h4L3 7h2l3-3z" id="color_x5F_action"/><g id="icon_x5F_fg"><path class="st4" d="M13 10.509L8.973 13.41V8L13 5.365zM8.006 2.056l-.356.18L9.414 4 7.042 6.372l1.286.733 4.477-2.685zM5.414 8H2.991v2.351l4.947 3.225v.024l.014-.012.014.012v-.024l.04-.026V7.966l-1.641-.917z"/><g><path class="st2" d="M8.897 13.557V7.959l.034-.022 4.144-2.71v5.32l-4.178 3.01zm.151-5.516v5.223l3.877-2.793V5.504L9.048 8.041zM8.005 1.972l-.411.208.112.112.3-.152 4.642 2.286-4.321 2.593-1.23-.702-.11.11 1.304.743.038.022 4.515-2.708.117-.07zM6.31 7.104l1.621.906v5.471L3.066 10.31V8h-.15v2.392l4.949 3.226.012.133.075-.065.089.077v-.147l.04-.026V7.922L6.42 6.994z"/></g></g></svg>