<svg xmlns="http://www.w3.org/2000/svg" viewBox="0 0 16 16"><style>.st0{opacity:0}.st0,.st1{fill:#f6f6f6}.st2{fill:#424242}.st3{fill:#f0eff1}</style><g id="outline"><path class="st0" d="M0 0h16v16H0z"/><path class="st1" d="M16 7.086L13.914 5H12V4H5v1.086L4.914 5H.586l1 1H0v3h1.586l-1 1h4.328L5 9.914V11h7v-1h1.914L16 7.914z"/></g><g id="icon_x5F_bg"><path class="st2" d="M13.5 6H12l1 1h-2V5H6v5h5V8h2l-1 1h1.5L15 7.5 13.5 6zM10 9H7V6h3v3zM3 6l1 1H1v1h3L3 9h1.5L6 7.5 4.5 6z"/></g><path class="st3" d="M7 6h3v3H7z" id="icon_x5F_fg"/></svg>