<svg xmlns="http://www.w3.org/2000/svg" viewBox="0 0 16 16"><style>.st0{fill:#f6f6f6}.st1{fill:#424242}.st2{fill:#f0eff1}</style><path class="st0" d="M16 0v12h-.213a5.496 5.496 0 0 1-9.53 2H0V4h4V0h12z" id="outline"/><path class="st1" d="M4 11H3v-1h1v1zm0-3H3v1h1V8zm1.212 4H2V7h4.257A5.509 5.509 0 0 1 9 5.212V5H1v8h4.605a5.557 5.557 0 0 1-.393-1zM13 4h-3v1h3V4zM6 3h8v3.257c.381.314.716.682 1 1.086V1H5v3h1V3zm9 7.5a4.5 4.5 0 1 1-9 0A4.49 4.49 0 0 1 10.488 6C12.975 6 15 8.015 15 10.5zm-1.234 1.227L10.5 10.5l.422-3.456c-.146-.018-.288-.044-.438-.044A3.486 3.486 0 0 0 7 10.5c0 1.934 1.552 3.5 3.484 3.5a3.52 3.52 0 0 0 3.282-2.273zM5.605 8H5v1h.212c.1-.349.231-.683.393-1z" id="icon_x5F_bg"/><path class="st2" d="M5.025 11H5v-1h.025c.031-.344.096-.678.187-1H5V8h.605c.183-.357.399-.693.652-1H2v5h3.212a5.486 5.486 0 0 1-.187-1zM4 11H3v-1h1v1zm0-2H3V8h1v1zm6-4h.5c-.169 0-.335.01-.5.025V5zm3-1H6V3h8v3.257A5.479 5.479 0 0 0 10.5 5H13V4zm-6 6.5C7 8.566 8.552 7 10.484 7c.149 0 .292.026.438.044L10.5 10.5l3.266 1.227A3.52 3.52 0 0 1 10.484 14 3.486 3.486 0 0 1 7 10.5z" id="icon_x5F_fg"/></svg>