<svg xmlns="http://www.w3.org/2000/svg" viewBox="0 0 16 16"><style>.icon-canvas-transparent{opacity:0;fill:#f6f6f6}.icon-vs-out{fill:#f6f6f6}.icon-vs-bg,.st0{fill:#424242}</style><path class="icon-canvas-transparent" d="M16 16H0V0h16v16z" id="canvas"/><path class="icon-vs-out" d="M13.754 7h-2.917a4.042 4.042 0 0 0 1.274-2.944A4.06 4.06 0 0 0 8.056 0 4.06 4.06 0 0 0 4 4.056C4 5.194 4.478 6.248 5.275 7H2.246L0 14.86V16h16v-1.141L13.754 7z" id="outline"/><g id="iconBg"><path class="st0" d="M13 8h-3l-2 5-2-5H3l-2 7h14z"/><path class="icon-vs-bg" d="M8.056 1a3.056 3.056 0 0 0-1.197 5.868L8 11l1.252-4.133A3.055 3.055 0 0 0 8.056 1zm0 4.444a1.39 1.39 0 0 1-1.389-1.389 1.39 1.39 0 0 1 1.389-1.389 1.39 1.39 0 0 1 1.389 1.389 1.39 1.39 0 0 1-1.389 1.389z"/></g></svg>