<svg xmlns="http://www.w3.org/2000/svg" viewBox="0 0 16 16"><style>.st0{fill:#f6f6f6}.st1{fill:#424242}.st2{fill:#00539c}.st3{fill:#f0eff1}</style><path class="st0" d="M10 0C6.688 0 4 2.687 4 6c0 .341.035.674.09 1H2v2L0 7v6l3 3h2l3-3v-1.349A5.97 5.97 0 0 0 10 12a6 6 0 0 0 0-12z" id="outline"/><g id="icon_x5F_bg"><path class="st1" d="M6.758 8.828A4.286 4.286 0 0 1 6 7.59v1.779l.1.117.658-.658z"/><path class="st1" d="M15.241 5.822a5.246 5.246 0 1 0-10.469.631c.012.135.031.268.053.398l.002.014c.008.047.025.089.034.135H6v.256c.558.167 1.184.325 1.89.44l.11-.11v.42c.156.688.371 1.387.659 2.092A4.25 4.25 0 0 1 8 9.811v1.021a5.256 5.256 0 0 0 1.155.344 5.094 5.094 0 0 0 1.359.049A5.25 5.25 0 0 0 15.25 6c0-.061-.008-.118-.009-.178zm-1.68-2.252c-.515.177-1 .3-1.463.371a8.783 8.783 0 0 0-.688-2.013 4.309 4.309 0 0 1 2.151 1.642zm-4.11-1.843c.18-.024.362-.039.549-.039.124 0 .245.008.366.019.351.608.708 1.384.915 2.33-.428.029-.85.033-1.277.029A12.699 12.699 0 0 1 8.7 3.982c.175-.911.464-1.66.751-2.255zM5.703 6.303A3.817 3.817 0 0 1 5.688 6c0-.614.131-1.197.361-1.727.515.151 1.087.295 1.726.404a9.494 9.494 0 0 0-.058.944c-.005.4.025.812.073 1.227a14.72 14.72 0 0 1-2.087-.545zm2.186-2.438a14.507 14.507 0 0 1-1.427-.327 4.32 4.32 0 0 1 1.976-1.554 9.835 9.835 0 0 0-.549 1.881zm.737 3.109a9.266 9.266 0 0 1-.093-1.345c.004-.289.024-.566.051-.836.452.051.923.085 1.412.09.101.002.201.002.302.002.366 0 .737-.012 1.116-.04.028.254.049.513.053.784.004.434-.052.902-.157 1.402-.438.031-.868.037-1.306.034-.477-.004-.936-.04-1.378-.091zm1.448 3.335c-.025.001-.049.004-.074.004a4.29 4.29 0 0 1-.378-.019 12.902 12.902 0 0 1-.846-2.48c.393.039.8.064 1.22.068.101.002.201.002.302.002.261 0 .524-.008.79-.021-.229.744-.569 1.559-1.014 2.446zm.964-.127c.409-.86.725-1.661.929-2.395a9.548 9.548 0 0 0 2.164-.551 4.318 4.318 0 0 1-3.093 2.946zm3.261-3.902a8.806 8.806 0 0 1-2.136.647 6.907 6.907 0 0 0 .063-2.174 9.452 9.452 0 0 0 1.737-.453c.225.522.35 1.096.35 1.7 0 .095-.008.188-.014.28z"/></g><path class="st2" d="M5 12l2-2v2l-3 3-3-3v-2l2 2V8h2z" id="color_x5F_action"/><g id="icon_x5F_fg"><path class="st3" d="M12.227 4.754a9.452 9.452 0 0 0 1.737-.453A4.29 4.29 0 0 1 14.313 6c0 .095-.008.188-.014.28a8.806 8.806 0 0 1-2.136.647 6.907 6.907 0 0 0 .064-2.173zM13.561 3.57c-.515.177-1 .3-1.463.371a8.783 8.783 0 0 0-.688-2.013 4.309 4.309 0 0 1 2.151 1.642zM10 10.313a4.29 4.29 0 0 1-.378-.019 12.902 12.902 0 0 1-.846-2.48c.393.039.8.064 1.22.068.101.002.201.002.302.002.261 0 .524-.008.79-.021-.229.743-.568 1.558-1.014 2.444-.025.003-.049.006-.074.006zM10.004 7.065a12.92 12.92 0 0 1-1.378-.092 9.243 9.243 0 0 1-.093-1.344c.004-.289.024-.566.051-.836.452.051.923.085 1.412.09.101.002.201.002.302.002.366 0 .737-.012 1.116-.04.028.254.049.513.053.784.004.434-.052.902-.157 1.402-.439.032-.869.037-1.306.034zM10 1.688c.124 0 .245.008.366.019.351.608.708 1.384.915 2.33-.428.029-.85.033-1.277.029A12.699 12.699 0 0 1 8.7 3.982a9.12 9.12 0 0 1 .751-2.256c.18-.023.362-.038.549-.038zM8.438 1.984a9.835 9.835 0 0 0-.549 1.881 14.507 14.507 0 0 1-1.427-.327 4.32 4.32 0 0 1 1.976-1.554zM5.688 6c0-.614.131-1.197.361-1.727.515.151 1.087.295 1.726.404a9.494 9.494 0 0 0-.058.944c-.005.4.025.812.073 1.227a14.72 14.72 0 0 1-2.087-.545A3.817 3.817 0 0 1 5.688 6zM11.038 10.182c.409-.86.725-1.661.929-2.395a9.548 9.548 0 0 0 2.164-.551 4.318 4.318 0 0 1-3.093 2.946zM6 7.256v.334c.182.458.44.874.758 1.238L7.89 7.696A15.058 15.058 0 0 1 6 7.256zM8 8.006v1.805c.211.111.429.212.659.287A13.293 13.293 0 0 1 8 8.006z"/></g></svg>