<svg xmlns="http://www.w3.org/2000/svg" viewBox="0 0 16 16"><style>.st0{fill:#f6f6f6}.st1{fill:#424242}.st2{fill:#f0eff1}</style><path class="st0" d="M16 0H7v5H3.571A3.575 3.575 0 0 0 0 8.572V16h11v-2h1.5a2.505 2.505 0 0 0 2.373-1.713L16 13.414V9.086L14.914 8H16V0zm-5 9.086V8h1.086L11 9.086z" id="outline"/><g id="icon_x5F_bg"><path class="st1" d="M12 9.5V11l1-1v1.5c0 .275-.225.5-.5.5H11v1h1.5c.827 0 1.5-.673 1.5-1.5V10l1 1V9.5L13.5 8 12 9.5zM8 1v4h4v1h-1v1h4V1H8zm2 3H9V3h1v1zm2 0h-1V3h1v1zm2 2h-1V5h1v1zm0-2h-1V3h1v1z"/><path class="st1" d="M3.571 6A2.571 2.571 0 0 0 1 8.572V15h9V6H3.571zM9 14H2V7h7v7z"/><path class="st1" d="M4.375 13l.337-1H6.287l.337 1H7.75L6.063 8H4.938L3.25 13h1.125zM5.5 9.936l.465 1.55h-.93l.465-1.55z"/></g><g id="icon_x5F_fg"><path class="st2" d="M9 3h1v1H9zM11 5h1v1h-1zM13 3h1v1h-1zM13 5h1v1h-1zM11 3h1v1h-1z"/><g><path class="st2" d="M2 8.572V14h7V7H3.571C2.508 7 2 7.508 2 8.572zM6.063 8l1.688 5H6.625l-.337-1H4.712l-.337 1H3.25l1.688-5h1.125z"/><path class="st2" d="M5.5 9.936l-.465 1.55h.93z"/></g><path class="st1" d="M3.571 7H2v1.572C2 7.508 2.508 7 3.571 7z"/></g></svg>