<svg xmlns="http://www.w3.org/2000/svg" viewBox="0 0 16 16"><style>.st0{opacity:0}.st0,.st1{fill:#f6f6f6}.st2{fill:#424242}.st3{fill:#f0eff1}</style><g id="outline"><path class="st0" d="M0 0h16v16H0z"/><path class="st1" d="M1 .586l2 2V0h4v2.586l2-2v4.828L8.414 6H8.5c.636 0 1.116.236 1.497.545.38-.309.857-.541 1.503-.545H16v9h-4.16c-.58 0-.862.04-.997.075l-.391.925h-.907l-.389-.925C9.021 15.04 8.74 15 8.16 15H4V9.586L4.586 9 1 5.414V.586z"/></g><path class="st2" d="M6 9l-1 1v4h3c.549 0 1.779-.025 2 .5.222-.525 1.451-.5 2-.5h3V7h-3.5c-.639.004-.992.374-1.5 1-.516-.635-.876-1-1.5-1H8L7 8h1c.59 0 1 .615 1 1v4c-.33-.205-.565 0-1 0H6V9zm5 0c0-.337.434-1 1-1h2v5h-2c-.436 0-.67-.205-1 0V9zM4 5V1h2v4l2-2v2L5 8 2 5V3l2 2z" id="icon_x5F_bg"/><path class="st3" d="M7 8h1c.59 0 1 .615 1 1v4c-.33-.205-.565 0-1 0H6V9l1-1zm4 1v4c.33-.205.564 0 1 0h2V8h-2c-.566 0-1 .663-1 1z" id="icon_x5F_fg"/></svg>