<svg xmlns="http://www.w3.org/2000/svg" viewBox="0 0 16 16"><style>.st0{opacity:0}.st0,.st1{fill:#f6f6f6}.st2{fill:#424242}.st3{fill:#f0eff1}</style><g id="outline"><path class="st0" d="M0 0h16v16H0z"/><path class="st1" d="M16 3v6.99L15 10h-1v2h-1v1h-3v-1H8v2H7v1H4v-1H3v-2H1V7L0 6V0l2 2V0h4v2l2-2v3h1V1h1V0h3v1h1v2h2z"/></g><g id="icon_x5F_bg"><path class="st2" d="M5 12H4v1h1v1h1v-1h1v-1H6zM7 5V3L5 5V1H3v4L1 3v2l3 3zM12 3h1V2h-1V1h-1v1h-1v1h1z"/><path class="st2" d="M8 6L7 7h1v3H3V9L2 8v3h7V6H8z"/><path class="st2" d="M8 4v1h6v3h-4v1h5V4zM11 10h-1v1h1v1h1v-1h1v-1h-1z"/></g><g id="icon_x5F_fg"><path class="st3" d="M3 10h1L3 9zM10 5h4v3h-4zM4 10h4V7H7z"/></g></svg>