<svg xmlns="http://www.w3.org/2000/svg" viewBox="0 0 16 16"><style>.st0{fill:#f6f6f6}.st1{fill:#424242}.st2{fill:#f0eff1}</style><path class="st0" d="M12 3V1h-2V0H7v1H6V0H2v1.586L1.414 1H0v3.414l1 1V13h4v2h2v1h3v-1h2v-2h4V3z" id="outline"/><g id="icon_x5F_bg"><path class="st1" d="M6 14h2v1h1v-1h2v-1H6zM8 3h3V2H9V1H8v1zM8 4v.414L7.414 5H14v6H3V7.414l-1-1V12h13V4z"/><path class="st1" d="M7 4V2L5 4V1H3v3L1 2v2l3 3z"/></g><path class="st2" d="M7.414 5l-3 3h-.828L3 7.414V11h11V5z" id="icon_x5F_fg"/></svg>