<svg xmlns="http://www.w3.org/2000/svg" viewBox="0 0 16 16"><style>.st0{fill:#f6f6f6}.st1{fill:#424242}.st2{fill:#f0eff1}</style><path class="st0" d="M16 0H7v5H2.286A2.288 2.288 0 0 0 0 7.286v6.428A2.288 2.288 0 0 0 2.286 16h6.429a2.28 2.28 0 0 0 2.256-2H12.5a2.505 2.505 0 0 0 2.373-1.713L16 13.414V9.086L14.914 8H16V0zm-5 9.086V8h1.086L11 9.086z" id="outline"/><g id="icon_x5F_bg"><path class="st1" d="M12 9.5V11l1-1v1.5c0 .275-.225.5-.5.5H11v1h1.5c.827 0 1.5-.673 1.5-1.5V10l1 1V9.5L13.5 8 12 9.5zM8 1v4h4v1h-1v1h4V1H8zm2 3H9V3h1v1zm2 0h-1V3h1v1zm2 2h-1V5h1v1zm0-2h-1V3h1v1zM8.714 6H2.286C1.576 6 1 6.575 1 7.286v6.428C1 14.425 1.576 15 2.286 15h6.429C9.424 15 10 14.425 10 13.714V7.286C10 6.575 9.424 6 8.714 6zm-5.75 8a.965.965 0 1 1 .001-1.929A.965.965 0 0 1 2.964 14zm2.25 0A3.214 3.214 0 0 0 2 10.786v-.642A3.856 3.856 0 0 1 5.857 14h-.643zm1.929 0A5.144 5.144 0 0 0 2 8.857v-.642A5.786 5.786 0 0 1 7.786 14h-.643z"/></g><g id="icon_x5F_fg"><path class="st2" d="M9 3h1v1H9zM11 5h1v1h-1zM13 3h1v1h-1zM13 5h1v1h-1zM11 3h1v1h-1z"/><circle class="st2" cx="2.964" cy="13.036" r=".964"/><path class="st2" d="M2 10.144v.642A3.214 3.214 0 0 1 5.214 14h.643A3.856 3.856 0 0 0 2 10.144z"/><path class="st2" d="M2 8.215v.643a5.144 5.144 0 0 1 5.143 5.143h.643A5.787 5.787 0 0 0 2 8.215z"/></g></svg>