<svg xmlns="http://www.w3.org/2000/svg" viewBox="0 0 16 16"><style>.st0{fill:#f6f6f6}.st1{fill:#424242}.st2{fill:#f0eff1}</style><path class="st0" d="M16 0H7v5H3.571A3.575 3.575 0 0 0 0 8.572V16h11v-2h1.5a2.505 2.505 0 0 0 2.373-1.713L16 13.414V9.086L14.914 8H16V0zm-5 9.086V8h1.086L11 9.086z" id="outline"/><g id="icon_x5F_bg"><path class="st1" d="M12 9.5V11l1-1v1.5c0 .275-.225.5-.5.5H11v1h1.5c.827 0 1.5-.673 1.5-1.5V10l1 1V9.5L13.5 8 12 9.5zM8 1v4h4v1h-1v1h4V1H8zm2 3H9V3h1v1zm2 0h-1V3h1v1zm2 2h-1V5h1v1zm0-2h-1V3h1v1zM4.875 10.5L3 13h2.5v-.5h-.875l.875-1.167L6.75 13H8l-1.875-2.5L8 8H6.75L5.5 9.667 4.25 8H3z"/><path class="st1" d="M3.571 6A2.571 2.571 0 0 0 1 8.572V15h9V6H3.571zM9 14H2V8.572C2 7.508 2.508 7 3.571 7H9v7z"/></g><g id="icon_x5F_fg"><path class="st2" d="M9 3h1v1H9zM11 5h1v1h-1zM13 3h1v1h-1zM13 5h1v1h-1zM11 3h1v1h-1zM2 8.572V14h7V7H3.571C2.508 7 2 7.508 2 8.572zm3.5 1.095L6.75 8H8l-1.875 2.5L8 13H6.75L5.5 11.333 4.625 12.5H5.5v.5H3l1.875-2.5L3 8h1.25L5.5 9.667z"/></g></svg>