<svg xmlns="http://www.w3.org/2000/svg" viewBox="0 0 16 16"><style>.st0{fill:#f6f6f6}.st1{fill:#424242}.st2{fill:#f0eff1}</style><path class="st0" d="M16 8V0H7v4H2c-.97 0-2 .701-2 2v8c0 1.299 1.03 2 2 2h5.999C9.299 16 10 14.97 10 14v2h2.5a2.505 2.505 0 0 0 2.373-1.713L16 15.414v-4.328l-2.5-2.5-2.5 2.5V13h-1V8h6z" id="outline"/><g id="icon_x5F_bg"><path class="st1" d="M12 11.5V13l1-1v1.5c0 .275-.225.5-.5.5H11v1h1.5c.827 0 1.5-.673 1.5-1.5V12l1 1v-1.5L13.5 10 12 11.5zM8 1v3.381l1 .84V5h1v1h-.073l.073.062V7h5V1H8zm2 3H9V3h1v1zm2 2h-1V5h1v1zm0-2h-1V3h1v1zm2 2h-1V5h1v1zm0-2h-1V3h1v1zM6.601 5h-4.66S1 5 1 6v8c0 1 .941 1 .941 1h6C8.941 15 9 14 9 14V7.136L6.601 5zM8 9v5H2V6h4v2h2v1z"/></g><g id="icon_x5F_fg"><path class="st2" d="M9 3h1v1H9zM11 5h1v1h-1zM13 3h1v1h-1zM13 5h1v1h-1zM11 3h1v1h-1zM6 8V6H2v8h6V8zM9 5v.221L9.927 6H10V5z"/></g></svg>