<svg xmlns="http://www.w3.org/2000/svg" viewBox="0 0 16 16"><style>.st0{opacity:0}.st0,.st1{fill:#f6f6f6}.st2{fill:#424242}.st3{fill:#f0eff1}</style><g id="outline"><path class="st0" d="M0 0h16v16H0z"/><path class="st1" d="M16 7.5C16 3.364 12.637 0 8.5 0 4.955 0 1.979 2.473 1.2 5.783L.002 4.586v4.828L1.498 11H0v3h1v2h5v-1.435c.271.096.548.178.83.241A3.578 3.578 0 0 0 9.5 16c1.528 0 2.816-.991 3.293-2.359A7.493 7.493 0 0 0 16 7.5z"/></g><g id="icon_x5F_bg"><path class="st2" d="M9.5 10c-1.209 0-2.269.859-2.5 2H1v1h1v2h1v-2h1v2h1v-2h2c.231 1.141 1.291 2 2.5 2a2.5 2.5 0 1 0 0-5zm0 4a1.5 1.5 0 1 1 .001-3.001A1.5 1.5 0 0 1 9.5 14zM12 7.031H9v-4H8v5h4z"/><path class="st2" d="M8.498 1.031A6.498 6.498 0 0 0 2 7.531c0 .168.013.334.025.5H2l-2-2v2l2.6 3 1.077-1.347L5 8.031v-2L3.236 7.98l-.047.051c-.001-.219.006.049.01-.201l.003-.187c-.002-.048-.014-.094-.014-.143a5.251 5.251 0 0 1 5.25-5.25l.01.001h.006a5.253 5.253 0 0 1 5.248 5.25c0 1.25-.456 2.384-1.188 3.286.253.436.411.928.455 1.455a6.477 6.477 0 0 0 2.029-4.71 6.5 6.5 0 0 0-6.5-6.501z"/></g><g id="icon_x5F_fg"><circle class="st3" cx="9.5" cy="12.5" r="1.5"/><path class="st3" d="M5 6.031v2L3.677 9.685c.229.498.538.946.901 1.347h1.709a3.566 3.566 0 0 1 3.211-2c1.288 0 2.403.707 3.011 1.746.726-.9 1.179-2.031 1.179-3.277a5.25 5.25 0 0 0-5.24-5.249A5.253 5.253 0 0 0 3.204 7.5l-.002.144c.003.114.024.223.034.336L5 6.031zm3-3h1v4h3v1H8v-5z"/></g></svg>