<svg xmlns="http://www.w3.org/2000/svg" viewBox="0 0 16 16"><style>.st0{fill:#f6f6f6}.st1{fill:#424242}.st2{fill:#f0eff1}</style><path class="st0" d="M16 8V0H7v4H0v12h12.5a2.505 2.505 0 0 0 2.373-1.713L16 15.414v-4.328l-2.5-2.5-2.5 2.5V8h5z" id="outline"/><g id="icon_x5F_bg"><path class="st1" d="M12 11.5V13l1-1v1.5c0 .275-.225.5-.5.5H11v1h1.5c.827 0 1.5-.673 1.5-1.5V12l1 1v-1.5L13.5 10 12 11.5zM1 5v10h9V5H1zm8 9H2V6h7v8z"/><path class="st1" d="M7 10h1v3H7zM5 11h1v2H5zM3 12h1v1H3zM3 7h5v1H3zM3 9h3v1H3zM8 1v3h1V3h1v1h1V3h1v1h-1v1h1v1h-1v1h4V1H8zm6 5h-1V5h1v1zm0-2h-1V3h1v1z"/></g><g id="icon_x5F_fg"><path class="st2" d="M9 3h1v1H9zM11 5h1v1h-1zM13 3h1v1h-1zM13 5h1v1h-1zM11 3h1v1h-1zM2 14h7V6H2v8zm4-1H5v-2h1v2zm2 0H7v-3h1v3zM3 7h5v1H3V7zm0 2h3v1H3V9zm0 3h1v1H3v-1z"/></g></svg>