<svg xmlns="http://www.w3.org/2000/svg" viewBox="0 0 16 16" enable-background="new 0 0 16 16"><style type="text/css">.icon-canvas-transparent{opacity:0;fill:#F6F6F6;} .icon-vs-out{fill:#F6F6F6;} .icon-vs-bg{fill:#424242;} .icon-vs-fg{fill:#F0EFF1;}</style><path class="icon-canvas-transparent" d="M16 16h-16v-16h16v16z" id="canvas"/><path class="icon-vs-out" d="M10 8v5h1v-1.914l2.5-2.5 2.5 2.5v4.328l-1.127-1.127c-.331.994-1.269 1.713-2.373 1.713h-2.5v-2c0 .97-.701 2-2.001 2h-5.999c-.97 0-2-.701-2-2v-8c0-1.299 1.03-2 2-2h5v-4h9v8h-6z" id="outline"/><path class="icon-vs-bg" d="M13.5 10l1.5 1.5v1.5l-1-1v1.5c0 .827-.673 1.5-1.5 1.5h-1.5v-1h1.5c.275 0 .5-.225.5-.5v-1.5l-1 1v-1.5l1.5-1.5zm1.5-9v6h-5v-.938l-.073-.062h.073v-1h-1v.221l-1-.84v-3.381h7zm-5 2h-1v1h1v-1zm2 2h-1v1h1v-1zm0-2h-1v1h1v-1zm2 2h-1v1h1v-1zm0-2h-1v1h1v-1zm-5 4.136v6.864s-.059 1-1.059 1h-6s-.941 0-.941-1v-8c0-1 .941-1 .941-1h4.66l2.399 2.136zm-1 .864h-2v-2h-4v8h6v-6zm-5 1h3v-1h-3v1zm0 2h4v-1h-4v1zm0 2h4v-1h-4v1z" id="iconBg"/><path class="icon-vs-fg" d="M9 3h1v1h-1v-1zm2 3h1v-1h-1v1zm2-3v1h1v-1h-1zm0 3h1v-1h-1v1zm-2-2h1v-1h-1v1zm-3 4v6h-6v-8h4v2h-3v1h3v-1h2zm-1 4h-4v1h4v-1zm0-2h-4v1h4v-1zm2-5v.221l.927.779h.073v-1h-1z" id="iconFg"/></svg>