<svg xmlns="http://www.w3.org/2000/svg" viewBox="0 0 16 16"><style>.st0{opacity:0}.st0,.st1{fill:#f6f6f6}.st2{fill:#424242}.st3{fill:#f0eff1}</style><g id="outline"><path class="st0" d="M0 0h16v16H0z"/><path class="st1" d="M13.01 3V2h-1c-.412-1.164-1.686-2-2.99-2-1.303 0-2.596.836-3.01 2H5v1H3.01S3.002 7.336 3 11H0v3h1v2h14V3h-1.99z"/><path class="st1" d="M9.5 9a3.567 3.567 0 0 0-3.211 2H0v3h1v2h5v-2h.289A3.567 3.567 0 0 0 9.5 16c1.93 0 3.5-1.57 3.5-3.5S11.43 9 9.5 9z"/></g><g id="icon_x5F_bg"><path class="st2" d="M9.5 10c-1.209 0-2.269.859-2.5 2H1v1h1v2h1v-2h1v2h1v-2h2c.231 1.141 1.291 2 2.5 2a2.5 2.5 0 1 0 0-5zm0 4a1.5 1.5 0 1 1 .001-3.001A1.5 1.5 0 0 1 9.5 14z"/><path class="st2" d="M12 4V3h-1a2 2 0 1 0-4 0H6v1H4v7h1V5h8v9h-.352a3.515 3.515 0 0 1-.707 1H14V4h-2zM9.01 4C8.459 4 8 3.553 8 3a1 1 0 0 1 2 0 .99.99 0 0 1-.99 1z"/></g><g id="not_x5F_fg"><circle class="st3" cx="9.5" cy="12.5" r="1.5"/><circle class="st3" cx="9.01" cy="3" r="1"/><path class="st3" d="M13 14v-1.5c0 .539-.133 1.044-.352 1.5H13zM5 5v6h1.289A3.567 3.567 0 0 1 9.5 9c1.93 0 3.5 1.57 3.5 3.5V5H5z"/></g></svg>