<svg xmlns="http://www.w3.org/2000/svg" width="16" height="16"><style type="text/css">.icon-canvas-transparent{opacity:0;fill:#F6F6F6;} .icon-vs-out{fill:#F6F6F6;} .icon-vs-bg{fill:#424242;} .icon-vs-fg{fill:#F0EFF1;}</style><path class="icon-canvas-transparent" d="M16 16h-16v-16h16v16z" id="canvas"/><path class="icon-vs-out" d="M14 10.777c.628.563 1 1.37 1 2.223 0 1.654-1.346 3-3 3s-3-1.346-3-3c0-.853.372-1.66 1-2.223v-1.363l-3.612-3.612c-.115.152-.245.292-.388.42v4.54c.627.563 1 1.37 1 2.223 0 1.654-1.346 3-3 3s-3-1.346-3-3c0-.853.373-1.66 1-2.223v-4.54c-.627-.562-1-1.369-1-2.222 0-1.654 1.346-3 3-3 .976 0 1.845.469 2.393 1.193l2.193-2.193h1.414v2c2.056 0 4 1.944 4 4v4.777z" id="outline"/><path class="icon-vs-bg" d="M14 13c0 1.109-.891 2-2 2s-2-.891-2-2c0-.734.406-1.375 1-1.719v-5.281s-.5-1-1-1h-1v2l-3-3 3-3v2h1c1.5 0 3 1.5 3 3v5.281c.594.344 1 .985 1 1.719zm-1 0c0-.547-.453-1-1-1s-1 .453-1 1 .453 1 1 1 1-.453 1-1zm-7-9c0 .734-.406 1.375-1 1.719v5.547c.594.344 1 .984 1 1.719 0 1.109-.891 2-2 2s-2-.891-2-2c0-.734.406-1.375 1-1.719v-5.547c-.594-.344-1-.985-1-1.719 0-1.109.891-2 2-2s2 .891 2 2zm-1 9c0-.547-.453-1-1-1s-1 .453-1 1 .453 1 1 1 1-.453 1-1zm0-9c0-.547-.453-1-1-1s-1 .453-1 1 .453 1 1 1 1-.453 1-1z" id="iconBg"/><path class="icon-vs-fg" d="M5 4c0-.547-.453-1-1-1s-1 .453-1 1 .453 1 1 1 1-.453 1-1zm0 9c0-.547-.453-1-1-1s-1 .453-1 1 .453 1 1 1 1-.453 1-1zm8 0c0-.547-.453-1-1-1s-1 .453-1 1 .453 1 1 1 1-.453 1-1z" id="iconFg"/></svg>