<svg xmlns="http://www.w3.org/2000/svg" viewBox="0 0 16 16"><style>.st0{fill:#f6f6f6}.st1{fill:#424242}.st2{fill:#f0eff1}</style><path class="st0" d="M16 1h-3V0h-3v1H8V0H5v1H2v5.261A5.49 5.49 0 0 0 0 10.5C0 13.532 2.467 16 5.5 16a5.49 5.49 0 0 0 4.239-2H16V1z" id="outline"/><g id="icon_x5F_bg"><path class="st1" d="M11 1h1v2h-1zM6 1h1v2H6z"/><path class="st1" d="M13 2v2h-3V2H8v2H5V2H3v3.607A5.466 5.466 0 0 1 8.652 6H14v6h-3.213c-.1.349-.231.683-.394 1H15V2h-2z"/><path class="st1" d="M10.019 10.391a4.497 4.497 0 0 0-8.992.152 4.843 4.843 0 0 0 .067.743 4.488 4.488 0 0 0 3.696 3.691c.005.002.009.002.013.002a4.283 4.283 0 0 0 1.163.043 4.503 4.503 0 0 0 4.061-4.478c0-.053-.008-.103-.008-.153zM6.736 7.054c.757.262 1.4.758 1.844 1.406a7.23 7.23 0 0 1-1.255.319 7.554 7.554 0 0 0-.589-1.725zm.048 3.161c.004.371-.044.777-.135 1.207-.376.025-.744.037-1.118.035a12.03 12.03 0 0 1-1.182-.078 7.88 7.88 0 0 1-.079-1.153c.002-.247.02-.507.043-.737.387.043.79.055 1.209.055h.259c.314 0 .632.012.956-.012.026.218.045.451.047.683zm-.945-3.352a6.94 6.94 0 0 1 .786 1.997c-.367.025-.728.029-1.094.025-.386-.004-.759-.03-1.119-.071.15-.781.398-1.423.644-1.934.154-.02.311-.033.471-.033.106 0 .21.008.312.016zm-1.651.238a8.58 8.58 0 0 0-.471 1.613 12.359 12.359 0 0 1-1.223-.281 3.706 3.706 0 0 1 1.694-1.332zM2.141 9.063c.44.13.932.253 1.478.346a8.725 8.725 0 0 0-.049.81c-.004.342.021.695.063 1.051a12.62 12.62 0 0 1-1.788-.467c-.007-.086-.014-.172-.014-.26 0-.525.111-1.025.31-1.48zm1.606 2.939c.132.674.349 1.359.631 2.053a3.707 3.707 0 0 1-2.396-2.467c.513.156 1.101.308 1.765.414zm.731.096a11.327 11.327 0 0 0 1.304.061c.224 0 .45-.006.678-.018a13.563 13.563 0 0 1-.87 2.096c-.021 0-.041.004-.063.004a3.86 3.86 0 0 1-.324-.017 11.048 11.048 0 0 1-.725-2.126zm1.939 2.029c.35-.736.62-1.424.795-2.053a8.204 8.204 0 0 0 1.856-.472 3.7 3.7 0 0 1-2.651 2.525zm2.794-3.344a7.525 7.525 0 0 1-1.831.555c.07-.393.108-.768.104-1.119a7.64 7.64 0 0 0-.049-.742 8.158 8.158 0 0 0 1.489-.389c.191.446.298.938.298 1.455.001.08-.007.16-.011.24z"/></g><g id="icon_x5F_fg"><path class="st2" d="M8.699 6a5.5 5.5 0 0 1 2.322 4.489c0 .524-.078 1.03-.215 1.511H14V6H8.699zM4.188 7.101a3.706 3.706 0 0 0-1.694 1.332c.372.105.779.202 1.223.281a8.433 8.433 0 0 1 .471-1.613zM3.569 10.219c.003-.281.022-.548.049-.81a12.725 12.725 0 0 1-1.477-.346c-.198.454-.31.954-.31 1.48 0 .088.007.174.014.26.5.168 1.097.342 1.788.467a8.208 8.208 0 0 1-.064-1.051zM1.982 11.588a3.707 3.707 0 0 0 2.396 2.467c-.283-.693-.5-1.379-.631-2.053a13.148 13.148 0 0 1-1.765-.414zM5.531 11.457c.374.002.742-.01 1.118-.035.091-.43.139-.836.135-1.207a6.58 6.58 0 0 0-.046-.684c-.324.024-.642.012-.956.012h-.259c-.419 0-.822-.012-1.209-.055a7.588 7.588 0 0 0 .036 1.89c.379.044.771.073 1.181.079zM6.417 14.127a3.702 3.702 0 0 0 2.651-2.525 8.204 8.204 0 0 1-1.856.472c-.174.629-.445 1.317-.795 2.053zM6.736 7.054c.235.492.451 1.063.589 1.725A7.23 7.23 0 0 0 8.58 8.46a3.696 3.696 0 0 0-1.844-1.406zM7.485 10.219c.004.352-.034.727-.104 1.119a7.538 7.538 0 0 0 1.831-.555c.004-.08.012-.16.012-.24 0-.518-.107-1.009-.298-1.455a8.386 8.386 0 0 1-1.491.389c.025.24.047.484.05.742zM5.782 12.158c-.085 0-.173 0-.259-.002a10.988 10.988 0 0 1-1.045-.059c.154.695.402 1.408.725 2.125.107.01.214.017.324.017.021 0 .041-.004.063-.004.383-.76.674-1.457.87-2.096-.228.013-.455.019-.678.019zM6.625 8.86a6.94 6.94 0 0 0-.786-1.997 3.971 3.971 0 0 0-.312-.016c-.16 0-.317.014-.471.033a7.832 7.832 0 0 0-.644 1.934c.359.041.733.067 1.119.071.366.004.727 0 1.094-.025z"/></g></svg>