<svg xmlns="http://www.w3.org/2000/svg" viewBox="0 0 16 16"><style>.icon-canvas-transparent{opacity:0;fill:#f6f6f6}.icon-vs-out{fill:#f6f6f6}.icon-vs-bg{fill:#424242}</style><path class="icon-canvas-transparent" d="M16 0v16H0V0h16z" id="canvas"/><path class="icon-vs-out" d="M15.304 14.134A3.493 3.493 0 0 1 12.208 16H3.792a3.493 3.493 0 0 1-3.096-1.866 3.472 3.472 0 0 1-.377-1.24A5.076 5.076 0 0 1 .14 11.59c0-1.319.442-2.427 1.314-3.291a4.341 4.341 0 0 1 1.675-1.028L5 4.536V3H4V0h8v3h-1v1.536l4.097 5.987a3.496 3.496 0 0 1 .207 3.611z" id="outline"/><path class="icon-vs-bg" d="M4.314 11.207H6.86v3.217c-.705.384-1.491.576-2.357.576-1.001 0-1.812-.312-2.432-.935-.621-.624-.931-1.449-.931-2.475 0-1.048.34-1.909 1.018-2.581C2.837 8.336 3.699 8 4.744 8c.753 0 1.386.11 1.899.331v1.157c-.52-.346-1.139-.518-1.857-.518-.721 0-1.312.237-1.773.713-.462.475-.692 1.091-.692 1.846 0 .779.197 1.39.594 1.836.397.446.936.669 1.617.669.465 0 .869-.09 1.209-.27v-1.611H4.314v-.946zm9.958-.119L10 4.846V2h1V1H5v1h1v2.846L4.512 7.02c.079-.003.152-.02.232-.02.335 0 .638.039.939.078L7 5.154V2h2v3.154L11.631 9H7.86v6h4.348c.93 0 1.777-.511 2.211-1.333a2.493 2.493 0 0 0-.147-2.579z" id="iconBg"/></svg>