<svg xmlns="http://www.w3.org/2000/svg" viewBox="0 0 16 16"><style>.st0{opacity:0}.st0,.st1{fill:#f6f6f6}.st2{fill:#424242}.st3{fill:#f0eff1;stroke:#424242;stroke-width:.15;stroke-miterlimit:10}</style><g id="outline"><path class="st0" d="M0 0h16v16H0z"/><path class="st1" d="M10.217 3.27l-1.942.944L8.452 4 4.414 0H0v.414L1.586 2H0v4h1.586L0 7.586V8h4v4.899L9.129 16h2.374L16 12.854V6.242z"/></g><g id="icon_x5F_bg"><path class="st2" d="M10.057 4.396L5.215 6.845v5.503l5.102 3.213 4.383-3.213V6.845l-4.643-2.449zM10 5.24l3.838 1.891-3.58 2.149-3.869-2.206L10 5.24zm0 9.196l-.031.021v.02l-.012-.01-.01.01v-.02l-3.959-2.58V7.729L10 9.969v4.467zm3.994-2.432l-3.105 2.237V9.926l3.105-1.895v3.973zM4 1H2l2 2H0v2h4L2 7h2l3-3z"/></g><g id="icon_x5F_fg"><path class="st3" d="M10 5.24l3.838 1.891-3.58 2.149-3.869-2.206zM10 14.436l-.031.021v.02l-.012-.01-.01.01v-.02l-3.959-2.58V7.729L10 9.969zM13.994 12.004l-3.105 2.237V9.926l3.105-1.895z"/></g></svg>