<svg xmlns="http://www.w3.org/2000/svg" viewBox="0 0 16 16"><style>.st0{fill:#f6f6f6}.st1{fill:#424242}.st2{fill:#00539c}</style><path class="st0" d="M11.771 0h-.306L8.454 3.047 5.412 0H.593l1.996 2H0v4h2.589L.593 8h2.966L0 11.594V16h4.327L16 4.259z" id="outline"/><g id="icon_x5F_bg"><path class="st1" d="M11.586 1.25L9.9 3l2.994 3 1.685-1.75zM1 12.09V15h2.911zM9.152 4.252L5.412 8h-.503l-2.993 3 2.993 3 6.989-7z"/></g><path class="st2" d="M4.999 1H3.003l1.996 2H1.006v2h3.992L3.003 7h1.996l2.995-3-2.995-3z" id="color_x5F_action"/></svg>