<svg xmlns="http://www.w3.org/2000/svg" viewBox="0 0 16 16"><style>.st0{opacity:0}.st0,.st1{fill:#f6f6f6}.st2{fill:#424242}.st3{fill:#00539c}</style><g id="outline"><path class="st0" d="M0 0h16v16H0z"/><path class="st1" d="M11 10v3h4v3H3V8.705L1 7V2l2 1.709V3.5C3 1.57 4.57 0 6.5 0S10 1.57 10 3.5V5H8v2h8v3h-5z"/></g><path class="st2" d="M15 8v1H7V8h8zm-5 5v-3H4v3h6zm-6 2h10v-1H4v1z" id="icon_x5F_bg"/><path class="st3" d="M7 6V4L5 6.013V3.5C5 2.673 5.673 2 6.5 2S8 2.673 8 3.5V4h1v-.5a2.5 2.5 0 1 0-5 0v2.488L2 4v2l2.516 2.5L7 6z" id="color_x5F_importance"/></svg>