<svg xmlns="http://www.w3.org/2000/svg" viewBox="0 0 16 16"><style>.st0{opacity:0}.st0,.st1{fill:#f6f6f6}.st2{fill:#424242}.st3{fill:#00539c}.st4{fill:#f0eff1}</style><g id="outline"><path class="st0" d="M0 0h16v16H0z"/><path class="st1" d="M16 4.382v6.236l-9 4.5-7-3.5V2h2L0 0h6l1.588 1.588L9 .882l7 3.5z"/></g><path class="st2" d="M2 6L1 7V6h1zm7-4l-.667.333.903.903L12.764 5 7 7.882l-.588-.294L6 8H1v3l6 3 8-4V5L9 2z" id="icon_x5F_bg"/><path class="st3" d="M5 1H3l2 2H1v2h4L3 7h2l3-3-3-3z" id="color_x5F_action"/><path class="st4" d="M10 4l-.764-.764L12.764 5 7 7.882l-.588-.294L10 4z" id="icon_x5F_fg"/></svg>