<svg xmlns="http://www.w3.org/2000/svg" viewBox="0 0 16 16"><style>.st0{opacity:0}.st0,.st1{fill:#f6f6f6}.st2{fill:#424242}.st3{fill:#00539c}</style><g id="outline"><path class="st0" d="M0 0h16v16H0z"/><path class="st1" d="M6 0v1.586L4.414 0H.252l1.334 1H0v4h1.586L.252 6h4.162L6 4.414V7h4v8h6V0z"/></g><path class="st2" d="M15 1H7v1h8V1zm0 6h-4v1h4V7zm0-4H7v1h8V3zm0 2H7v1h8V5zm0 4h-4v1h4V9zm0 2h-4v1h4v-1zm0 2h-4v1h4v-1z" id="icon_x5F_bg"/><path class="st3" d="M2.666 5H4l2-2-2-2H2.666L4 2.334H1v1.332h3L2.666 5z" id="color_x5F_action"/></svg>