<svg xmlns="http://www.w3.org/2000/svg" viewBox="0 0 16 16"><style>.icon-canvas-transparent{opacity:0;fill:#f6f6f6}.icon-vs-out{fill:#f6f6f6}.icon-vs-bg{fill:#424242}.icon-vs-fg{fill:#f0eff1}.icon-vs-action-blue{fill:#00539c}</style><path class="icon-canvas-transparent" d="M16 16H0V0h16v16z" id="canvas"/><path class="icon-vs-out" d="M11.841 12.125l.51.793A2 2 0 0 1 10.668 16H2.332A1.998 1.998 0 1 1 .65 12.918L3.811 8H.586l2-2H0V2h2.586l-2-2h4.828l.994.994.231-.134C7.621.293 8.667.005 9.75.005a6.22 6.22 0 0 1 6.24 6.039c.007.1.01.155.01.211 0 2.671-1.665 4.983-4.159 5.87z" id="outline"/><path class="icon-vs-bg" d="M14.991 6.078A5.246 5.246 0 0 0 9.75 1.005c-.955 0-1.839.274-2.61.72l.687.687c.119-.06.236-.124.361-.172-.049.122-.092.264-.139.395l.645.645c.153-.49.328-.927.507-1.298.18-.023.362-.039.549-.039.124 0 .245.008.366.019.351.608.708 1.384.915 2.33-.345.023-.687.023-1.031.023V5h.048c.366 0 .737.059 1.116.03.028.254.049.547.053.819.004.434-.052.92-.157 1.42-.439.031-.869.046-1.306.043-.261-.002-.504-.023-.754-.041v.438l.256.402c.164.008.321.026.49.027.101.002.201.002.302.002.261 0 .524-.008.79-.021-.148.479-.357 1-.597 1.54l1.03 1.618A5.25 5.25 0 0 0 15 6.255c0-.06-.008-.118-.009-.177zM11.16 2.184a4.309 4.309 0 0 1 2.151 1.642c-.515.177-1 .3-1.463.371a8.655 8.655 0 0 0-.688-2.013zm-.372 8.254c.409-.861.725-1.662.929-2.396a9.548 9.548 0 0 0 2.164-.551 4.321 4.321 0 0 1-3.093 2.947zm3.261-3.902a8.806 8.806 0 0 1-2.136.647 6.907 6.907 0 0 0 .063-2.174 9.452 9.452 0 0 0 1.737-.453c.224.521.349 1.096.349 1.699.001.095-.007.188-.013.281zM10.668 15H2.332a1 1 0 0 1-.841-1.541L5 8h.414L6 7.414v.877L4.276 11h4.447L7 8.291V6.414L8.414 5H9v1H8v2l3.51 5.459A1 1 0 0 1 10.668 15z" id="iconBg"/><path class="icon-vs-fg" d="M11.977 5.009a9.452 9.452 0 0 0 1.737-.453c.224.521.349 1.096.349 1.699 0 .095-.008.188-.014.28a8.806 8.806 0 0 1-2.136.647 6.907 6.907 0 0 0 .064-2.173zm-.817-2.825a8.75 8.75 0 0 1 .688 2.013 8.445 8.445 0 0 0 1.463-.371 4.309 4.309 0 0 0-2.151-1.642zm2.721 5.307a9.548 9.548 0 0 1-2.164.551c-.204.734-.519 1.535-.929 2.396a4.321 4.321 0 0 0 3.093-2.947zM9.414 4H10v.315c.344 0 .686 0 1.031-.024a8.108 8.108 0 0 0-.915-2.33 4.418 4.418 0 0 0-.366-.018c-.187 0-.369.016-.549.039a9.572 9.572 0 0 0-.507 1.298l.72.72zM10 7H9v.271c.25.019.493.048.754.05.437.003.867-.003 1.306-.034.105-.5.161-.969.157-1.402a9.388 9.388 0 0 0-.053-.854c-.379.028-.75-.031-1.116-.031H10v2zm-.744 1.111l.985 1.548c.239-.539.449-1.06.597-1.54-.266.013-.529.021-.79.021-.101 0-.201 0-.302-.002-.169-.001-.326-.019-.49-.027zM8.724 11L7 8.291V6.414l-1 1v.877L4.276 11h4.448z" id="iconFg"/><path class="icon-vs-action-blue" d="M8 4L5 7H3l2-2H1V3h4L3 1h2l3 3z" id="colorAction"/></svg>