<svg xmlns="http://www.w3.org/2000/svg" viewBox="0 0 16 16"><style>.icon-canvas-transparent{opacity:0;fill:#f6f6f6}.icon-vs-out{fill:#f6f6f6}.icon-vs-bg{fill:#424242}.icon-vs-fg{fill:#f0eff1}.icon-vs-action-blue{fill:#00539c}.icon-vs-action-green{fill:#388a34}.icon-vs-action-orange{fill:#c27d1a}</style><path class="icon-canvas-transparent" d="M16 16H0V0h16v16z" id="canvas"/><path class="icon-vs-out" d="M16 4v12H4V8H.586l2-2H0V2h2.586l-2-2h4.828l1.839 1.839A2.998 2.998 0 0 1 10.01 0c1.304 0 2.416.836 2.829 2H14v2h2z" id="outline"/><path class="icon-vs-bg" d="M9.414 4l-1 1H12.5l.5-1V3h-.99a1.999 1.999 0 1 0-3.963-.367L9.414 4zm.596-2c.553 0 1 .447 1 1s-.438 1-.99 1c-.551 0-1.01-.447-1.01-1s.449-1 1-1z" id="iconBg"/><path class="icon-vs-fg" d="M8.959 2.979c0-.553.5-.979 1.051-.979A1 1 0 1 1 10 4c-.551 0-1.041-.469-1.041-1.021zM14 14v-3.527L12.236 14H14zm-5 0L6 8.002V14h3zm-.586-9L6 7.414V8h4.236l.382.764L12.5 5H8.414z" id="iconFg"/><path class="icon-vs-action-blue" d="M1 3h4L3 1h2l3 3-3 3H3l2-2H1V3z" id="colorAction"/><path class="icon-vs-action-orange" d="M15 9.958V15H5V8h.414L6 7.414V14h8v-3.527l1-.515z" id="colorImportance"/><path class="icon-vs-action-green" d="M15.618 5l-4.181 8H9.75L7.618 9H9.5l1.118 2.375 3-6.375h2z" id="notificationBg"/></svg>