<svg xmlns="http://www.w3.org/2000/svg" viewBox="0 0 16 16"><style>.icon-canvas-transparent{opacity:0;fill:#f6f6f6}.icon-vs-out{fill:#f6f6f6}.icon-vs-bg{fill:#424242}.icon-vs-fg{fill:#f0eff1}.icon-vs-action-blue{fill:#00539c}</style><path class="icon-canvas-transparent" d="M16 16H0V0h16v16z" id="canvas"/><path class="icon-vs-out" d="M16 9.373v3.102a1.991 1.991 0 0 1-1.332.525H10v1.414L8.414 16H2.586L1 14.414V8.586L1.586 8h-1l2-2H0V2h2.586l-2-2h4.828L7 1.586V1h7v3h-1v.706l3 4.667z" id="outline"/><path class="icon-vs-bg" d="M7 11.5a1.5 1.5 0 1 1-3.001-.001A1.5 1.5 0 0 1 7 11.5zM8 8l1 1v5l-1 1H3l-1-1V9l1-1h5zm0 3.5a2.5 2.5 0 1 0-5 0 2.5 2.5 0 0 0 5 0zm7.51-1.041L12 5V3h1V2H8v1h1v2L7.714 7h.7l.305.305L10 5.291V3h1v2.291L12.724 8h-3.31l.586.586V12h4.668a1 1 0 0 0 .842-1.541z" id="iconBg"/><path class="icon-vs-fg" d="M5.5 9a2.5 2.5 0 1 0 0 5 2.5 2.5 0 0 0 0-5zm0 4a1.5 1.5 0 1 1 .001-3.001A1.5 1.5 0 0 1 5.5 13zM11 3v2.291L12.724 8h-3.31l-.695-.695L10 5.291V3h1z" id="iconFg"/><path class="icon-vs-action-blue" d="M5 5H1V3h4L3 1h2l3 3-3 3H3l2-2z" id="colorAction"/></svg>