<svg xmlns="http://www.w3.org/2000/svg" viewBox="0 0 16 16"><style>.st0{opacity:0}.st0,.st1{fill:#f6f6f6}.st2{fill:#424242}.st3{fill:#00539c}</style><g id="outline"><path class="st0" d="M0 0h16v16H0z"/><path class="st1" d="M15 6.556c0 2.757-2.243 5-5 5-.469 0-.933-.067-1.386-.2l-2.907 2.907c-.123.123-.786.737-1.744.737-.426 0-1.061-.128-1.67-.737-1.253-1.253-.687-2.727 0-3.414L5.142 8H0l2-2H0V2h2L0 0h6l1.986 1.987A4.948 4.948 0 0 1 10 1.556c.703 0 1.394.151 2.052.448l1.319.596-2.957 2.957.586.585 2.957-2.957.595 1.319c.298.658.448 1.349.448 2.052z"/></g><path class="st2" d="M13.641 4.915L11 7.556l-2-2 2.641-2.641A3.968 3.968 0 0 0 10 2.556c-.433 0-.841.086-1.231.213L10 4 6.22 7.78c.046.139.08.283.14.415L3 11.556s-1 1 0 2 2 0 2 0l3.359-3.36c.502.227 1.055.36 1.641.36a4 4 0 0 0 4-4c0-.586-.133-1.139-.359-1.641z" id="icon_x5F_bg"/><path class="st3" d="M5 1H3l2 2H1v2h4L3 7h2l3-3z" id="color_x5F_action"/></svg>