<svg xmlns="http://www.w3.org/2000/svg" viewBox="0 0 16 16"><style>.st0{opacity:0}.st0,.st1{fill:#f6f6f6}.st2{fill:#424242}.st3{fill:#388a34}.st4{fill:#f0eff1}</style><g id="outline"><path class="st0" d="M0 0h16v16H0z"/><path class="st1" d="M1 1v4.585l-1-1v8.829l1-1V15h15V1z"/></g><path class="st2" d="M2 2v4.585L4.414 9 2 11.414V14h13V2H2zm4 11H3v-2h3v2zm0-6H3V5h3v2zm4 6H7v-2h3v2zm0-6H7V5h3v2zm4 6h-3v-2h3v2zm0-6h-3V5h3v2z" id="icon_x5F_bg"/><path class="st3" d="M1 7v4l2-2z" id="color_x5F_action"/><g id="icon_x5F_fg"><path class="st4" d="M7 11h3v2H7zM3 11h3v2H3zM3 5h3v2H3zM11 5h3v2h-3zM7 5h3v2H7zM11 11h3v2h-3z"/></g></svg>