<svg xmlns="http://www.w3.org/2000/svg" viewBox="0 0 16 16"><style>.st0{opacity:0}.st0,.st1{fill:#f6f6f6}.st2{fill:#424242}.st3{fill:#00539c}</style><g id="outline"><path class="st0" d="M0 0h16v16H0z"/><path class="st1" d="M16 1.414L11.414 6H16v1.414L7.414 16H5v-1.234L7.371 10H4V8.764L4.382 8H1l2-2H1V2h2L1 0h6l.921.921L8.382 0H16v1.414z"/></g><path class="st2" d="M15 1H9l-.333.666L11 4 7 8H5.5L5 9h3.985L6 15h1l8-8H9z" id="icon_x5F_bg"/><path class="st3" d="M6 1H4l2 2H2v2h4L4 7h2l3-3-3-3z" id="color_x5F_action"/></svg>