<svg xmlns="http://www.w3.org/2000/svg" viewBox="0 0 16 16"><style>.st0{fill:#f6f6f6}.st1{fill:none}.st2{fill:#424242}.st3{fill:#00539c}.st4{fill:#f0eff1}</style><path class="st0" d="M12 4V0H4v8H0l2 2H0v4h2l-2 2h6l4-4h6V4h-4zM6 8h2v2L6 8z" id="outline"/><g id="icon_x5F_bg"><path class="st1" d="M10 6h4v4h-4z"/><path class="st2" d="M6 2h4v2h1V1H5v6h3V6H6z"/><path class="st2" d="M9 5v6h6V5H9zm5 5h-4V6h4v4z"/></g><path class="st3" d="M5 9H3l2 2H1v2h4l-2 2h2l3-3-3-3z" id="color_x5F_action"/><g id="icon_x5F_fg"><path class="st4" d="M10 6h4v4h-4zM10 2H6v4h2V4h2z"/></g></svg>