<svg xmlns="http://www.w3.org/2000/svg" viewBox="0 0 16 16"><style>.st0{fill:#f6f6f6}.st1{fill:#424242}.st2{fill:#00539c}</style><path class="st0" d="M6 16v-3.586L4.414 14H.252l1.333-1.334H0V9.334h1.586L.252 8h4.162L6 9.586V0h5v2h5v5h-2v2h-2v2h4v5H6z" id="outline"/><path class="st1" d="M15 13H7v-1h8v1zm-4-2H7v-1h4v1zm-4 4h8v-1H7v1zm8-11H7V3h8v1zm-5-2H7V1h3v1zm3 6H7V7h6v1zM7 6h8V5H7v1z" id="icon_x5F_bg"/><path class="st2" d="M2.667 13H4l2-2-2-2H2.667L4 10.334H1v1.332h3L2.667 13z" id="color_x5F_action"/></svg>