<svg xmlns="http://www.w3.org/2000/svg" viewBox="0 0 16 16"><style>.st0{fill:#f6f6f6}.st1{fill:#424242}.st2{fill:#00539c}.st3{fill:#f0eff1}</style><path class="st0" d="M14.414 4H8V2H6.414L7 1.414V0H3.586L0 3.586v.828L3.586 8H4v3.414L5.586 13H6v3h2.535l2-3h3.879L16 11.414V5.586z" id="outline"/><path class="st1" d="M14 5H8v1h5.586l.414.414v4.172l-.414.414H9.465l-.297.445L8 13.197V11H6.414L6 10.586V8H5v3l1 1h1v3h1l2-3h4l1-1V6z" id="icon_x5F_bg"/><path class="st2" d="M4 5h3V3H4l2-2H4L1 4l3 3h2z" id="color_x5F_action"/><path class="st3" d="M13.586 6H6.414L7 6.586V8H6v2.586l.414.414H8v2.197l1.168-1.752.297-.445H13.586l.414-.414V6.414z" id="icon_x5F_fg"/></svg>