<svg xmlns="http://www.w3.org/2000/svg" viewBox="0 0 16 16"><style>.st0{fill:#f6f6f6}.st1{fill:#424242}.st2{fill:#00539c}</style><path class="st0" d="M15 9.006V7.008h1V4.01h-2V2.012H6.428L4.414 0H0v.413l1.586 1.586H0V16h15v-1.998h1v-2.998h-2V9.006h1zm-9 0v3.983H3V7.993h1.414L6 6.409v.599h1v1.998H6z" id="outline"/><g id="icon_x5F_bg"><path class="st1" d="M13 10.014L7 10v1h6zM8 7h6v1H8zM13 3H7v1h6zM8 14h6v1H8zM7 12h8v1H7zM7 5h8v1H7z"/></g><path class="st2" d="M2 7.003V5.004h2L2 7.003h2l3-2.999L4 1H2l2 2-3 .005V15h6v-1H2V7.003z" id="color_x5F_action"/></svg>