<svg xmlns="http://www.w3.org/2000/svg" viewBox="0 0 16 16"><style>.icon-canvas-transparent{opacity:0;fill:#f6f6f6}.icon-vs-out{fill:#f6f6f6}.icon-vs-bg{fill:#424242}.icon-vs-fg{fill:#f0eff1}.st0{fill:url(#SVGID_1_)}</style><path class="icon-canvas-transparent" d="M16 0v16H0V0h16z" id="canvas"/><path class="icon-vs-out" d="M16 2v11h-2v2H0V4l2-.001V2h14z" id="outline"/><path class="icon-vs-fg" d="M2 6v7h10V6H2zm9 6H3V7h8v5z" id="iconFg"/><path class="icon-vs-bg" d="M2.999 3.999zM3 3v.999h11V12h1V3H3zM1 5h12v9H1V5zm1 8h10V6H2v7z" id="iconBg"/><g id="colorImportance"><linearGradient id="SVGID_1_" gradientUnits="userSpaceOnUse" x1="-651.275" y1="420.958" x2="-650.475" y2="420.958" gradientTransform="matrix(12 0 0 -12 7817.5 5061)"><stop offset="0" stop-color="#f0eff1"/><stop offset="1" stop-color="#424242"/></linearGradient><path class="st0" d="M3 7h8v5H3z"/></g></svg>