<svg xmlns="http://www.w3.org/2000/svg" viewBox="0 0 16 16"><style>.st0{opacity:0}.st0,.st1{fill:#f6f6f6}.st2{fill:#f0eff1}.st3{fill:#424242}</style><g id="outline"><path class="st0" d="M0 0h16v16H0z"/><path class="st1" d="M16 8.929L14.858.936l-8.223.587L0 6.5v.794l4.931 7.67 8.752.584L16 9.176z"/></g><g id="background"><path class="st2" d="M2.5 7l5-3.667L13 3l-3 4zM3 8l3 5 6.042.292L10 8zM11 7.5L13.5 4l.833 4.75-1.458 3.875z"/><path class="st3" d="M14 2l-7 .5L1 7l4.5 7 7.5.5L15 9l-1-7zM7.5 3.333L13 3l-3 4H2.5l5-3.667zM6 13L3 8h7l2.042 5.292L6 13zm6.875-.375L11 7.5 13.5 4l.833 4.75-1.458 3.875z"/></g></svg>