<svg xmlns="http://www.w3.org/2000/svg" viewBox="0 0 16 16"><style>.st0{opacity:0}.st0,.st1{fill:#f6f6f6}.st2{fill:#424242}.st3{fill:#f0eff1}</style><g id="outline"><path class="st0" d="M0 0h16v16H0z"/><path class="st1" d="M14.414 0h-3.828L10.5.086 10.414 0H6.586L6.5.086 6.414 0H2.586L1 1.586v3.828L2.586 7h1.237l1.254 2.508L4 10.586v3.828L5.586 16h5.828L13 14.414v-3.828l-1.077-1.078L13.177 7h1.237L16 5.414V1.586z"/></g><path class="st2" d="M14 1h-3l-.5.5L10 1H7l-.5.5L6 1H3L2 2v3l1 1h1.441l2 4H6l-1 1v3l1 1h5l1-1v-3l-1-1h-.441l2-4H14l1-1V2l-1-1zM7 2h3v3H7V2zM3 5V2h3v3H3zm2.559 1H6l.5-.5.5.5h1v4h-.441l-2-4zM11 11v3H6v-3h5zm-1.559-1H9V6h1l.5-.5.5.5h.441l-2 4zM14 5h-3V2h3v3z" id="icon_x5F_bg"/><g id="icon_x5F_fg"><path class="st3" d="M6 11h5v3H6zM11 2h3v3h-3zM7 2h3v3H7zM3 2h3v3H3z"/></g></svg>