<svg xmlns="http://www.w3.org/2000/svg" viewBox="0 0 16 16"><style>.st0{opacity:0}.st0,.st1{fill:#f6f6f6}.st2{fill:#424242}.st3{fill:#f0eff1}</style><g id="outline"><path class="st0" d="M0 0h16v16H0z"/><path class="st1" d="M14.414 3h-3.828L9.508 4.077 7 2.823V1.586L5.414 0H1.586L0 1.586v3.828l.086.086L0 5.586v3.828l.086.086L0 9.586v3.828L1.586 15h3.828L7 13.414v-1.237l2.508-1.254L10.586 12h3.828L16 10.414V4.586z"/></g><path class="st2" d="M14 4h-3l-1 1v.441l-4-2V2L5 1H2L1 2v3l.5.5L1 6v3l.5.5-.5.5v3l1 1h3l1-1v-1.441l4-2V10l1 1h3l1-1V5l-1-1zm-9 9H2v-3h3v3zm0-4H2V6h3v3zm0-4H2V2h3v3zm5 3.441l-4 2V10l-.5-.5L6 9V8h4v.441zM10 7H6V6l-.5-.5L6 5v-.441l4 2V7zm4 3h-3V5h3v5z" id="icon_x5F_bg"/><g id="icon_x5F_fg"><path class="st3" d="M11 5h3v5h-3zM2 10h3v3H2zM2 6h3v3H2zM2 2h3v3H2z"/></g></svg>