<svg xmlns="http://www.w3.org/2000/svg" viewBox="0 0 16 16"><style>.st0{opacity:0}.st0,.st1{fill:#f6f6f6}.st2{fill:#424242}.st3{fill:#f0eff1}</style><g id="outline"><path class="st0" d="M0 0h16v16H0z"/><path class="st1" d="M14.414 9h-1.237l-1.254-2.508L13 5.414V1.586L11.414 0H5.586L4 1.586v3.828l1.077 1.078L3.823 9H2.586L1 10.586v3.828L2.586 16h3.828l.086-.086.086.086h3.828l.086-.086.086.086h3.828L16 14.414v-3.828z"/></g><path class="st2" d="M14 10h-1.441l-2-4H11l1-1V2l-1-1H6L5 2v3l1 1h.441l-2 4H3l-1 1v3l1 1h3l.5-.5.5.5h3l.5-.5.5.5h3l1-1v-3l-1-1zM6 5V2h5v3H6zm0 9H3v-3h3v3zm.5-3.5L6 10h-.441l2-4H8v4H7l-.5.5zM10 14H7v-3h3v3zm.5-3.5L10 10H9V6h.441l2 4H11l-.5.5zM14 14h-3v-3h3v3z" id="icon_x5F_bg"/><g id="icon_x5F_fg"><path class="st3" d="M6 2h5v3H6zM11 11h3v3h-3zM7 11h3v3H7zM3 11h3v3H3z"/></g></svg>