<svg xmlns="http://www.w3.org/2000/svg" viewBox="0 0 16 16"><style>.st0{opacity:0}.st0,.st1{fill:#f6f6f6}.st2{fill:#424242}.st3{fill:#f0eff1}</style><g id="outline"><path class="st0" d="M0 0h16v16H0z"/><path class="st1" d="M16 1.586L14.414 0h-3.828L9 1.586v1.237L6.492 4.077 5.414 3H1.586L0 4.586v5.828L1.586 12h3.828l1.078-1.077L9 12.177v1.237L10.586 15h3.828L16 13.414V9.586l-.086-.086.086-.086V5.586l-.086-.086.086-.086z"/></g><path class="st2" d="M15 2l-1-1h-3l-1 1v1.441l-4 2V5L5 4H2L1 5v5l1 1h3l1-1v-.441l4 2V13l1 1h3l1-1v-3l-.5-.5.5-.5V6l-.5-.5.5-.5V2zM5 10H2V5h3v5zm5 0v.441l-4-2V8h4v1l.5.5-.5.5zm0-4v1H6v-.441l4-2V5l.5.5-.5.5zm4 7h-3v-3h3v3zm0-4h-3V6h3v3zm0-4h-3V2h3v3z" id="icon_x5F_bg"/><g id="icon_x5F_fg"><path class="st3" d="M2 5h3v5H2zM11 10h3v3h-3zM11 6h3v3h-3zM11 2h3v3h-3z"/></g></svg>