<svg xmlns="http://www.w3.org/2000/svg" viewBox="0 0 16 16"><style>.st0{opacity:0}.st0,.st1{fill:#f6f6f6}.st2{fill:#424242}.st3{fill:#f0eff1}</style><g id="outline"><path class="st0" d="M0 0h16v16H0z"/><circle class="st1" cx="8.5" cy="7.5" r="7.5"/></g><path class="st2" d="M8.5 1a6.5 6.5 0 1 0 0 13 6.5 6.5 0 0 0 0-13zm2.5 9.419a4.498 4.498 0 0 1-1.139.43c-.423.1-.866.151-1.328.151-.517 0-.993-.078-1.425-.233a3.191 3.191 0 0 1-1.119-.673 2.972 2.972 0 0 1-.729-1.07C5.085 8.604 5 8.129 5 7.597c0-.362.044-.703.131-1.022a3.33 3.33 0 0 1 .959-1.593c.229-.21.484-.388.764-.533a3.9 3.9 0 0 1 .911-.333A4.5 4.5 0 0 1 8.796 4a6.225 6.225 0 0 1 1.667.224c.134.039.242.077.324.115v1.157a2.682 2.682 0 0 0-.391-.203 3.916 3.916 0 0 0-1.045-.275 4.657 4.657 0 0 0-.625-.04c-.343 0-.665.058-.967.174a2.304 2.304 0 0 0-.787.502 2.348 2.348 0 0 0-.531.8 2.81 2.81 0 0 0-.195 1.072c0 .425.061.794.182 1.106.122.314.29.573.502.78.212.206.464.358.753.46.291.101.603.15.938.15.218 0 .431-.021.638-.065.208-.044.394-.107.558-.188V8.167H8.351V7.2H11v3.219z" id="icon_x5F_bg"/><path class="st3" d="M8.351 7.2v.967h1.467v1.601a2.345 2.345 0 0 1-.558.189 3.055 3.055 0 0 1-.638.065c-.336 0-.648-.05-.938-.15a2.022 2.022 0 0 1-.753-.46 2.185 2.185 0 0 1-.503-.78 3.055 3.055 0 0 1-.182-1.106c0-.4.066-.757.196-1.072A2.285 2.285 0 0 1 7.76 5.152c.302-.116.624-.174.967-.174a4.657 4.657 0 0 1 1.186.15c.174.048.337.103.484.165.147.063.277.131.391.203V4.339a2.37 2.37 0 0 0-.324-.115 4.072 4.072 0 0 0-.459-.108A6.743 6.743 0 0 0 8.796 4a4.5 4.5 0 0 0-1.031.116 3.872 3.872 0 0 0-.911.333c-.28.145-.536.322-.764.533a3.287 3.287 0 0 0-.585.714c-.163.267-.287.56-.374.878A3.88 3.88 0 0 0 5 7.597c0 .532.085 1.007.26 1.428.171.421.415.776.729 1.069a3.21 3.21 0 0 0 1.119.673c.433.155.909.233 1.425.233.462 0 .904-.051 1.328-.151a4.498 4.498 0 0 0 1.139-.43V7.2H8.351z" id="icon_x5F_fg"/></svg>