<svg xmlns="http://www.w3.org/2000/svg" viewBox="0 0 16 16"><style>.st0{opacity:0}.st0,.st1{fill:#f6f6f6}.st2{fill:#424242}.st3{fill:#f0eff1}.st4{fill:#0ff}</style><g id="outline"><path class="st0" d="M0 0h16v16H0z"/><path class="st1" d="M1 1h14v14H1z"/></g><g id="icon_x5F_bg"><path class="st2" d="M10 8h1v1h-1zM7 5h1v1H7zM11 9h1v1h-1z"/><path class="st2" d="M2 2v12h12V2H2zm11 6h-1v1h1v1h-1v1h1v1h-1v1h-1v-1h-1v1H9v-1H8v1H3V8h1V7H3V6h1V5H3V4h1V3h1v1h1V3h1v1h1V3h5v5z"/><path class="st2" d="M9 11h1v1H9zM11 11h1v1h-1zM8 8h1v1H8zM8 10h1v1H8zM5 5h1v1H5zM7 7h1v1H7zM4 4h1v1H4zM6 6h1v1H6zM5 7h1v1H5zM10 10h1v1h-1zM4 6h1v1H4zM9 9h1v1H9zM6 4h1v1H6z"/></g><g id="icon_x5F_fg"><path class="st3" d="M6 3h1v1H6zM4 3h1v1H4zM11 12h1v1h-1zM3 4h1v1H3zM12 11h1v1h-1zM9 12h1v1H9zM3 6h1v1H3zM12 9h1v1h-1zM10 9h1v1h-1zM5 6h1v1H5zM8 11v-1h1V9H8V8H7V7H6v1H5V7H4v1H3v5h5v-1h1v-1zM4 5h1v1H4zM6 5h1v1H6zM9 10h1v1H9zM11 10h1v1h-1z"/><path class="st3" d="M13 8V3H8v1H7v1h1v1H7v1h1v1h1v1h1V8h1v1h1V8zM5 4h1v1H5zM10 11h1v1h-1z"/></g><path class="st4" d="M15 0h1v1h-1z" id="pixel"/></svg>