<svg xmlns="http://www.w3.org/2000/svg" viewBox="0 0 16 16"><style>.st0{opacity:0}.st0,.st1{fill:#f6f6f6}.st2{fill:#424242}.st3{fill:#f0eff1}</style><g id="outline"><path class="st0" d="M0 0h16v16H0z"/><path class="st1" d="M16 1H0v15h7v-1h9z"/></g><g id="icon_x5F_bg"><path class="st2" d="M3 14h1v1H3zM1 10h1v1H1zM3 12h1v1H3zM1 12h1v1H1zM1 14h1v1H1zM3 10h1v1H3z"/><path class="st2" d="M1 2v7h1V5h12v8H7v1h8V2zM5 14h1v1H5z"/><path class="st2" d="M5 10h1v1H5zM5 12h1v1H5z"/></g><path class="st3" d="M2 5v4h5v4h7V5z" id="icon_x5F_fg"/></svg>