<svg xmlns="http://www.w3.org/2000/svg" viewBox="0 0 16 16"><style>.st0{opacity:0}.st0,.st1{fill:#f6f6f6}.st2{fill:none}.st3{fill:#424242}.st4{fill:#f0eff1}</style><g id="outline"><path class="st0" d="M0 0h16v16H0z"/><path class="st1" d="M11.602 4C10.754 1.737 8.576.12 6.021.12A5.97 5.97 0 0 0 .057 6.084c0 2.578 1.648 4.772 3.943 5.604V16h12V4h-4.398z"/></g><g id="icon_x5F_bg"><path class="st2" d="M9 8.647V6H6v3h2.683c.117-.107.213-.233.317-.353z"/><path class="st2" d="M9.378 4a3.956 3.956 0 0 0-3.357-1.88 3.968 3.968 0 0 0-3.964 3.964c0 1.444.785 2.698 1.943 3.391V4h5.378zM12 12h2v2h-2zM9 12h2v2H9zM12 6h2v2h-2zM12 9h2v2h-2z"/><path class="st3" d="M11.881 5c.064.352.103.713.103 1.084A5.928 5.928 0 0 1 11 9.357V11H9.389a5.927 5.927 0 0 1-2.654 1H8v2H6v-1.954a5.884 5.884 0 0 1-1-.093V15h10V5h-3.119zM11 14H9v-2h2v2zm3 0h-2v-2h2v2zm0-3h-2V9h2v2zm0-3h-2V6h2v2z"/><path class="st3" d="M10.984 6.084a4.964 4.964 0 1 0-9.928 0 4.964 4.964 0 0 0 9.928 0zM4 6v3.475c-1.158-.693-1.943-1.947-1.943-3.391A3.968 3.968 0 0 1 6.021 2.12c1.419 0 2.656.756 3.357 1.88H4v2zm2 0h3v2.647c-.104.12-.2.246-.317.353H6V6z"/></g><g id="icon_x5F_fg"><path class="st4" d="M9 12h2v2H9zM6 12h2v2H6zM12 12h2v2h-2zM12 6h2v2h-2zM12 9h2v2h-2zM9.389 11H11V9.357A6.04 6.04 0 0 1 9.389 11zM9.378 4a3.956 3.956 0 0 0-3.357-1.88 3.968 3.968 0 0 0-3.964 3.964c0 1.444.785 2.698 1.943 3.391V4h5.378z"/><path class="st4" d="M9 8.647V6H6v3h2.683c.117-.107.213-.233.317-.353z"/></g></svg>