<svg xmlns="http://www.w3.org/2000/svg" viewBox="0 0 16 16"><style>.st0{opacity:0}.st0,.st1{fill:#f6f6f6}.st2{fill:none}.st3{fill:#424242}.st4{fill:#f0eff1}</style><g id="outline"><path class="st0" d="M0 0h16v16H0z"/><path class="st1" d="M16 5.007V1h-1V0H3l-.006 3.023H0V15h1v1h4v-1h7v1h4v-4h-1V5z"/></g><g id="icon_x5F_bg"><path class="st2" d="M9 13h4V4H9v9zm1-6l2 1.5-2 1.5V7zM8 13V4H4v9h4zM7 7v3L5 8.5 7 7z"/><path class="st3" d="M7 7L5 8.5 7 10z"/><path class="st3" d="M15 4V2h-1V1H4v3h4v9H4V4H1v10h1v1h2v-1h9v1h2v-2h-1V4h1zm-2 9H9V4h4v9z"/><path class="st3" d="M10 7v3l2-1.5z"/></g><g id="icon_x5F_fg"><path class="st2" d="M10 10l2-1.5L10 7zM7 7L5 8.5 7 10z"/><path class="st4" d="M4 13h4V4H4v9zm3-6v3L5 8.5 7 7zM9 4v9h4V4H9zm1 6V7l2 1.5-2 1.5z"/></g></svg>