<svg xmlns="http://www.w3.org/2000/svg" viewBox="0 0 16 16"><style>.st0{opacity:0}.st0,.st1{fill:#f6f6f6}.st2{fill:#424242}.st3{fill:#f0eff1}</style><g id="outline"><path class="st0" d="M0 0h16v16H0z"/><path class="st1" d="M1 0h15v15H1z"/></g><g id="icon_x5F_bg"><path class="st2" d="M9 9h3v1H9zM9 5h3v1H9zM2 1h1v1H2zM6 13h1v1H6zM4 9h3v1H4zM4 13h1v1H4zM2 3h1v1H2zM2 5h1v1H2zM8 1h1v1H8zM4 1h1v1H4zM10 1h1v1h-1zM2 11h1v1H2zM2 7h1v1H2zM2 9h1v1H2zM4 5h3v1H4zM2 13.001h1V14H2zM14 9h1v1h-1zM14 7h1v1h-1zM14 13h1v1h-1zM14 11h1v1h-1zM14 1h1v1h-1zM14 5h1v1h-1zM14 3h1v1h-1zM8 13h1v1H8zM12 13h1v1h-1zM10 13h1v1h-1zM12 1h1v1h-1zM6 1h1v1H6z"/><path class="st2" d="M8 7h5V4H8v3zm1-2h3v1H9V5zM8 11h5V8H8v3zm1-2h3v1H9V9z"/></g><g id="icon_x5F_fg"><path class="st3" d="M9 9h3v1H9zM9 5h3v1H9z"/></g></svg>