<svg xmlns="http://www.w3.org/2000/svg" viewBox="0 0 16 16"><style>.st0{fill:#f6f6f6}.st1{fill:#424242}</style><path class="st0" d="M3 0v8.1c-.295.108-.558.3-.74.572l-2 3.001A1.47 1.47 0 0 0 0 12.5c0 .402.156.779.441 1.063l1.998 1.998c.282.283.659.439 1.061.439h1c.228 0 .453-.055.668-.162l2-1c.358-.181.613-.488.739-.848.032.001.061.01.093.01a3.963 3.963 0 0 0 2.62-1H16V0H3z" id="outline"/><g id="icon_x5F_bg"><path class="st1" d="M4 1h3v3H4zM8 1h3v3H8zM8 6c1.201 0 2.267.541 3 1.38V5H8v1zM7 6.142V5H4v3h.555A3.978 3.978 0 0 1 7 6.142zM12 9h3v3h-3zM12 1h3v3h-3zM12 5h3v3h-3zM8 7a2.992 2.992 0 0 0-2.831 2.048l.842.842A1.995 1.995 0 0 1 10 10a2 2 0 0 1-2 2c-.032 0-.062-.008-.094-.01.059.162.094.332.094.51v.5a3.001 3.001 0 0 0 0-6z"/><path class="st1" d="M8.888 9.816l-.006-.005A.49.49 0 0 0 9 9.5a.5.5 0 0 0-.5-.5.495.495 0 0 0-.311.117l-.005-.005-2.404 1.961-1.926-1.927a.49.49 0 0 0-.762.082l-2 3A.483.483 0 0 0 1 12.5c0 .139.057.264.146.354l2 2c.09.089.215.146.354.146h1c.08 0 .154-.023.221-.057l2-1A.498.498 0 0 0 7 13.5v-1c0-.1-.037-.186-.086-.265l1.974-2.419z"/></g></svg>