<svg xmlns="http://www.w3.org/2000/svg" viewBox="0 0 16 16"><style>.st0{opacity:0}.st0,.st1{fill:#f6f6f6}.st2{fill:none}.st3{fill:#424242}.st4{fill:#f0eff1}</style><g id="outline"><path class="st0" d="M0 0h16v16H0z"/><path class="st1" d="M1 1h14v14H1z"/></g><g id="icon_x5F_bg"><path class="st2" d="M10 8h1v1h-1zM6 4h1v1H6zM3 6h1V5H3V4h1V3H3v5h1V7H3zM7 7h1v1H7zM4 6h1v1H4zM5 5h1v1H5zM6 6h1v1H6zM4 4h1v1H4zM10 12h1v1h-1zM5 7h1v1H5zM12 12h1v1h-1zM7 3h1v1H7zM5 3h1v1H5zM7 5h1v1H7zM12 10h1v1h-1zM11 9h1v1h-1zM11 11h1v1h-1zM12 8h1v1h-1zM9 11h1v1H9zM8 11h1v-1H8V9h1V8H8v5h1v-1H8zM10 10h1v1h-1zM9 9h1v1H9z"/><path class="st3" d="M11 10h1v1h-1zM10 9h1v1h-1zM9 10h1v1H9zM10 11h1v1h-1z"/><g><path class="st3" d="M5 6h1v1H5zM6 5h1v1H6zM5 4h1v1H5zM4 5h1v1H4z"/></g><path class="st3" d="M2 2v12h12V2H2zm11 7h-1v1h1v1h-1v1h1v1h-1v-1h-1v1h-1v-1H9v1H8v-1h1v-1H8v-1h1V9H8V8H7V7H6v1H5V7H4v1H3V7h1V6H3V5h1V4H3V3h1v1h1V3h1v1h1V3h1v1H7v1h1v1H7v1h1v1h1v1h1V8h1v1h1V8h1v1z"/></g><g id="icon_x5F_fg"><path class="st2" d="M10 9h1v1h-1zM5 6h1v1H5zM10 11h1v1h-1zM4 5h1v1H4zM9 10h1v1H9zM6 5h1v1H6zM5 4h1v1H5zM11 10h1v1h-1z"/><path class="st4" d="M4 6h1v1H4zM5 3h1v1H5zM7 3h1v1H7zM5 5h1v1H5zM7 5h1v1H7zM3 3h1v1H3zM3 7h1v1H3zM3 5h1v1H3zM5 7h1v1H5zM7 7h1v1H7zM4 4h1v1H4zM6 4h1v1H6zM6 6h1v1H6z"/><g><path class="st4" d="M8 12h1v1H8zM10 12h1v1h-1zM12 12h1v1h-1zM12 10h1v1h-1zM8 10h1v1H8zM9 11h1v1H9zM10 8h1v1h-1zM11 11h1v1h-1zM10 10h1v1h-1zM9 9h1v1H9zM11 9h1v1h-1zM12 8h1v1h-1zM8 8h1v1H8z"/></g></g></svg>