<svg xmlns="http://www.w3.org/2000/svg" viewBox="0 0 16 16"><style>.st0{opacity:0}.st0,.st1{fill:#f6f6f6}.st2{fill:none}.st3{fill:#424242}.st4{fill:#f0eff1}</style><g id="outline"><path class="st0" d="M0 0h16v16H0z"/><path class="st1" d="M1.007 4S1.005 5.959 1 6l-1 .5v3l.999.5c.004.035.001 2 .001 2 0 1.995 1.704 2.977 4 3h1v-3H5v-2c0-.625-.198-1.548-.5-2 .302-.453.5-1.376.5-2V5h1V1l-1 .015C2.703 1.04 1.007 1.99 1.007 4zM8 9v6h7V9c-.206-1.695-1.649-3-3.5-3C9.664 6 8.22 7.31 8 9z"/><path class="st1" d="M12 5.5a2.503 2.503 0 0 0 4-2C16 2.122 14.879 1 13.5 1c-.795 0-1.536.383-2 1H7v4h5v-.5z"/></g><g id="icon_x5F_bg"><path class="st2" d="M11 11h1v2h-1z"/><circle class="st2" cx="13.5" cy="3.5" r=".5"/><path class="st3" d="M9 14h5v-4H9v4zm2-3h1v2h-1v-2zM4 11.5V10c0-1-.395-1.685-1-2 .605-.322 1-1 1-2V4.507C4 3.5 4.5 3.5 5 3.5V2.003C2.5 2.003 2 3 2 4v2c0 1.163-.644.978-1 1v2c.387.024 1-.136 1 1v2c0 1 .5 2 3 2l.001-1.5c-1 0-1.001-1-1.001-1zM13.5 2c-.652 0-1.293.419-1.5 1H8v2h1V4h1v1h1V4h1c.207.581.848 1 1.5 1a1.5 1.5 0 0 0 0-3zm0 2a.5.5 0 1 1 0-1 .5.5 0 0 1 0 1zM11.5 7c-1.372 0-2.351.854-2.5 2h1c.14-.527.655-1 1.5-1 .82 0 1.352.47 1.5 1h1c-.14-1.146-1.127-2-2.5-2z"/></g><g id="icon_x5F_fg"><path class="st4" d="M11 11h1v2h-1z"/><circle class="st4" cx="13.5" cy="3.5" r=".5"/></g></svg>