<svg xmlns="http://www.w3.org/2000/svg" viewBox="0 0 16 16"><style>.st0{opacity:0}.st0,.st1{fill:#f6f6f6}.st2{fill:none}.st3{fill:#424242}.st4{fill:#f0eff1}</style><g id="outline"><path class="st0" d="M0 0h16v16H0z"/><path class="st1" d="M15 6v6H9v-2H7V5.5H6V6c0 .624-.198 1.547-.5 2 .302.452.5 1.375.5 2v.5h1V14H6c-2.296-.023-4-1.005-4-3 0 0 .003-.965-.001-1L1 9.5v-3L2 6c.005-.041.007-1 .007-1 0-2.01 1.696-2.96 3.993-2.985L7 2v2h6v2h2z"/></g><g id="icon_x5F_bg"><path class="st2" d="M11 8v2h2V8h-1zM11 6H9v2h1V7h1z"/><path class="st3" d="M5 10.5V10c0-1-.395-1.685-1-2 .605-.322 1-1 1-2v-.493C5 4.5 5.5 4.5 6 4.5V3.003C3.5 3.003 3 4 3 5v1c0 1.162-.644.978-1 1v2c.387.024 1-.137 1 1v1c0 1 .5 2 3 2l.001-1.5c-1 0-1.001-1-1.001-1zM12 7V5H8v4h2v2h4V7h-2zm-2 1H9V6h2v1h-1v1zm3 2h-2V8h2v2z"/></g><g id="icon_x5F_fg"><path class="st4" d="M11 6H9v2h1V7h1zM11 8h2v2h-2z"/></g></svg>