<svg xmlns="http://www.w3.org/2000/svg" width="16" height="16"><style type="text/css">.icon-canvas-transparent{opacity:0;fill:#F6F6F6;} .icon-vs-out{fill:#F6F6F6;} .icon-vs-bg{fill:#424242;}</style><path class="icon-canvas-transparent" d="M16 16h-16v-16h16v16z" id="canvas"/><path class="icon-vs-out" d="M9 2v-1h-4v-1h-5v16h5v-1h4v-1h7v-5h-7v-2h7v-5h-7z" id="outline"/><path class="icon-vs-bg" d="M8 2v1h-1v3h1v1h-3v-5h3zm-3 7v5h3v-1h-1v-3h1v-1h-3zm-4 6h3v-1h-1v-12h1v-1h-3v14zm9-12v1h5v-1h-5zm0 3h5v-1h-5v1zm0 5h5v-1h-5v1zm0 2h5v-1h-5v1z" id="iconBg"/></svg>