<svg xmlns="http://www.w3.org/2000/svg" width="16" height="16"><style type="text/css">.icon-canvas-transparent{opacity:0;fill:#F6F6F6;} .icon-vs-bg{fill:#424242;} .icon-vs-fg{fill:#F0EFF1;}</style><path class="icon-canvas-transparent" d="M16 16h-16v-16h16v16z" id="canvas"/><path class="icon-vs-bg" d="M0 0v4.04c.129-.026.263-.04.4-.04 1.105 0 2 .895 2 2s-.895 2-2 2c-.137 0-.271-.014-.4-.04v1.674l.481.573 1.119-1.407h.8v4h-2.4v3.2h16v-3.2h-2.4v-4h.8l1.119 1.407.481-.573v-1.674c-.13.026-.263.04-.4.04-1.105 0-2-.895-2-2s.895-2 2-2c.137 0 .27.014.4.04v-4.04h-16zm7.999 2.4c1.323 0 2.398 1.075 2.398 2.4s-1.075 2.4-2.398 2.4c-1.324 0-2.399-1.075-2.399-2.4s1.075-2.4 2.399-2.4zm4.001 11.2h-8v-5.6h2.4l1.6 2.4 1.6-2.4h2.4v5.6z" id="iconBg"/><path class="icon-vs-fg" d="M15.519 10.207l.481-.573v3.166h-2.4v-4h.8l1.119 1.407zm-7.519.193l-1.6-2.4h-2.4v5.6h8v-5.6h-2.4l-1.6 2.4zm-5.6-1.6h-.8l-1.119 1.407-.481-.573v3.166h2.4v-4zm5.599-1.6c1.323 0 2.398-1.075 2.398-2.4s-1.075-2.4-2.398-2.4c-1.324 0-2.399 1.075-2.399 2.4s1.075 2.4 2.399 2.4zm-5.599-1.2c0-1.105-.895-2-2-2-.137 0-.271.014-.4.04v3.92c.129.026.263.04.4.04 1.105 0 2-.895 2-2zm11.2 0c0 1.105.895 2 2 2 .137 0 .27-.014.4-.04v-3.92c-.13-.026-.263-.04-.4-.04-1.105 0-2 .895-2 2z" id="iconFg"/></svg>