<svg xmlns="http://www.w3.org/2000/svg" viewBox="0 0 16 16" enable-background="new 0 0 16 16"><style type="text/css">.icon-canvas-transparent{opacity:0;fill:#F6F6F6;} .icon-vs-bg{fill:#424242;} .icon-vs-fg{fill:#F0EFF1;} .icon-vs-out{fill:#F6F6F6;} .icon-vs-action-blue{fill:#00539C;}</style><rect id="XMLID_1_" class="icon-canvas-transparent" width="16" height="16"/><path id="XMLID_2_" class="icon-vs-out" d="M5 2h-1c-1.969.021-3 1.277-3 3v1l-1 1v2l1 1v1c0 1.71 1.317 2.979 3.286 3h11.714v-12h-11z"/><path id="XMLID_10_" class="icon-vs-fg" d="M7 10h7v2h-7v-2zm0-6v2h7v-2h-7z"/><path id="XMLID_4_" class="icon-vs-bg" d="M15 3v4h-9v-4h9zm-1 1h-7v2h7v-2zm-8 5h9v4h-9v-4zm1 3h7v-2h-7v2z"/><path class="icon-vs-action-blue" d="M4.227 13c-.826 0-1.426-.151-1.801-.455-.375-.303-.563-.843-.563-1.619v-1.363c0-.697-.288-1.045-.864-1.045v-1.046c.576 0 .864-.362.864-1.085v-1.268c0-.78.186-1.329.557-1.645.372-.316.974-.474 1.807-.474v1.063c-.606 0-.909.33-.909.989v1.21c0 .909-.292 1.483-.875 1.722v.023c.584.234.875.815.875 1.743v1.165c0 .371.071.634.213.79s.374.233.696.233v1.062z" id="colorAction"/></svg>