<svg xmlns="http://www.w3.org/2000/svg" viewBox="0 0 16 16"><style>.st0{fill:#f6f6f6}.st1{fill:#424242}</style><path class="st0" d="M16 0H3v.05C1.699.286 1 1.42 1 2.5V3H0v3h1v.484c0 .854.439 1.737 1.255 2.194L.26 11.673A1.47 1.47 0 0 0 0 12.5c0 .402.156.779.441 1.063l1.998 1.998c.282.283.659.439 1.061.439h1c.228 0 .453-.055.668-.162l2-1c.358-.181.613-.488.739-.848.032.001.061.01.093.01a3.963 3.963 0 0 0 2.62-1H16V0z" id="outline"/><g id="icon_x5F_bg"><path class="st1" d="M9 3h4v1H9zM11.445 8H13V7h-2.38c.328.286.605.622.825 1zM9 5h2v1H9z"/><path class="st1" d="M7.508 1c.217.302.368.644.439 1H14v9h-2.142a3.942 3.942 0 0 1-.413 1H15V1H7.508zM6 2.5v1c0 .309.104.693.354.997C6.144 4.732 6 5.061 6 5.5v.994c0 .022-.007.044-.009.066.313-.184.65-.326 1.009-.418V5.5c0-.402.275-.494.5-.5H8V4h-.5c-.402 0-.494-.275-.5-.5v-1C7 1.896 6.601 1 5.5 1H5v1h.5c.402 0 .494.275.5.5zM2 5.5v.984C2 7.104 2.399 8 3.5 8H4V7h-.5c-.402 0-.494-.275-.5-.506V5.5c0-.439-.144-.768-.354-1.003.25-.304.354-.688.354-.997v-1c.006-.225.098-.5.5-.5H4V1h-.5C2.399 1 2 1.896 2 2.5v1c-.006.225-.098.5-.5.5H1v1h.5c.225.006.5.098.5.5zM5 7v.38c.119-.136.244-.261.38-.38H5z"/><path class="st1" d="M8.001 7a2.99 2.99 0 0 0-2.832 2.048l.843.843A1.994 1.994 0 0 1 8.001 8a2 2 0 0 1 0 4c-.032 0-.063-.008-.095-.01.059.162.094.332.094.51v.5h.001a3 3 0 1 0 0-6z"/><path class="st1" d="M8.888 9.816l-.006-.005A.49.49 0 0 0 9 9.5a.5.5 0 0 0-.5-.5.495.495 0 0 0-.311.117l-.005-.005-2.404 1.961-1.926-1.927a.49.49 0 0 0-.762.082l-2 3A.483.483 0 0 0 1 12.5c0 .139.057.264.146.354l2 2c.09.089.215.146.354.146h1c.08 0 .154-.023.221-.057l2-1A.498.498 0 0 0 7 13.5v-1c0-.1-.037-.186-.086-.265l1.974-2.419z"/></g></svg>