<svg xmlns="http://www.w3.org/2000/svg" viewBox="0 0 16 16"><style>.st0{opacity:0}.st0,.st1{fill:#f6f6f6}.st2{fill:#424242}</style><g id="outline"><path class="st0" d="M0 0h16v16H0z"/><path class="st1" d="M14 1V0h-3v1h-1V0H7v1H5v1.197l-3-2L.336 2.693 5 5.803v.395l-3-2L.336 6.693l3.513 2.342L.2 13.9l2.4 1.799L5 12.5V16h1c1.935 0 3.438-.926 4.5-1.934C11.563 15.074 13.065 16 15 16h1V1h-2z"/></g><g id="icon_x5F_bg"><path class="st2" d="M6 8h4v1H6v1h4v1H6v1h3.693c-.772.913-2.037 2-3.693 2v1c2.084 0 3.604-1.316 4.5-2.396C11.396 13.684 12.916 15 15 15v-1c-1.656 0-2.921-1.087-3.693-2H15v-1h-4v-1h4V9h-4V8h4V5H6v3zm5-2h3v1h-3V6zM7 6h3v1H7V6zM13 2V1h-1v1H9V1H8v1H6v1h2v1h1V3h3v1h1V3h2V2z"/><path transform="rotate(-56.312 3.5 3)" class="st2" d="M3 1.197h1v3.606H3z"/><path transform="rotate(-56.312 3.5 7)" class="st2" d="M3 5.197h1v3.606H3z"/><path transform="rotate(-53.143 3.5 12)" class="st2" d="M1 11.5h5v1H1z"/></g></svg>