<svg xmlns="http://www.w3.org/2000/svg" viewBox="0 0 16 16" enable-background="new 0 0 16 16"><style type="text/css">.icon-canvas-transparent{opacity:0;fill:#F6F6F6;} .icon-vs-out{fill:#F6F6F6;} .icon-vs-bg{fill:#424242;} .icon-vs-fg{fill:#F0EFF1;}</style><path class="icon-canvas-transparent" d="M16 16h-16v-16h16v16z" id="canvas"/><path class="icon-vs-out" d="M0 12v-5.5c0-1.378 1.122-2.5 2.5-2.5h11c1.379 0 2.5 1.122 2.5 2.5v5.5h-16z" id="outline"/><path class="icon-vs-fg" d="M13.5 6h-11c-.276 0-.5.224-.5.5v3.5h12v-3.5c0-.276-.225-.5-.5-.5zm-2.5 2h-1v-1h1v1zm2 0h-1v-1h1v1z" id="iconFg"/><path class="icon-vs-bg" d="M15 11h-14v-4.5c0-.827.673-1.5 1.5-1.5h11c.827 0 1.5.673 1.5 1.5v4.5zm-13-1h12v-3.5c0-.276-.225-.5-.5-.5h-11c-.276 0-.5.224-.5.5v3.5zm9-3h-1v1h1v-1zm2 0h-1v1h1v-1z" id="iconBg"/></svg>