<svg xmlns="http://www.w3.org/2000/svg" viewBox="0 0 16 16"><style>.st0{fill:#f6f6f6}.st1{fill:#424242}</style><path class="st0" d="M1 0v9H.142v3.189L0 12.102v3.358l.571.271c.098.047.221.093.373.137.117.033.246.064.386.09.088.017.19.028.291.042h1.084c.249-.033.486-.082.694-.164.369-.142.685-.343.933-.589.261-.255.46-.558.592-.903.042-.112.068-.229.095-.344H16V0H1z" id="outline"/><g id="icon_x5F_bg"><path class="st1" d="M5 11h10v2H5zM2 1h13v4H2zM2 7h13v2H2zM4.105 13.342c0 .227-.039.441-.117.648a1.486 1.486 0 0 1-.354.541 1.689 1.689 0 0 1-.594.371 2.278 2.278 0 0 1-.838.139 3.526 3.526 0 0 1-.691-.067 3.16 3.16 0 0 1-.292-.068A1.39 1.39 0 0 1 1 14.828v-.934c.066.041.141.08.223.117.082.037.169.07.261.1.092.027.188.051.29.068s.204.025.308.025c.154 0 .29-.02.406-.057a.847.847 0 0 0 .292-.156.662.662 0 0 0 .178-.242.789.789 0 0 0 .061-.309.622.622 0 0 0-.262-.529.942.942 0 0 0-.33-.152 1.825 1.825 0 0 0-.465-.055c-.163 0-.319.008-.468.023-.148.016-.266.027-.351.039V10h2.743v.893H2.074v.992a4.024 4.024 0 0 1 .411-.022c.271 0 .509.037.712.113.202.076.371.182.506.313.135.133.235.289.303.469.066.18.099.375.099.584z"/></g></svg>