<svg xmlns="http://www.w3.org/2000/svg" viewBox="0 0 16 16"><style>.st0{opacity:0}.st0,.st1{fill:#f6f6f6}.st2{fill:#424242}</style><g id="outline"><path class="st0" d="M0 0h16v16H0z"/><path class="st1" d="M16 0H0v14h.501c.12.257.257.495.417.705.322.423.716.749 1.17.969.448.217.942.326 1.467.326a3.48 3.48 0 0 0 1.366-.271 3.3 3.3 0 0 0 1.113-.774c.256-.273.455-.599.616-.955H16V0z"/></g><g id="icon_x5F_bg"><path class="st2" d="M6.796 11.052A4.103 4.103 0 0 1 6.947 13H15v-2H6.772c.007.019.018.033.024.052zM1 1h14v4H1zM6.512 7H15v2H6.512zM6 12.378c0 .389-.062.743-.184 1.063a2.503 2.503 0 0 1-.512.828 2.285 2.285 0 0 1-.776.539 2.449 2.449 0 0 1-.973.192c-.374 0-.718-.075-1.031-.227a2.215 2.215 0 0 1-.81-.673 3.303 3.303 0 0 1-.527-1.114A5.786 5.786 0 0 1 1 11.439c0-.719.082-1.354.247-1.907.165-.552.39-1.015.678-1.389a2.902 2.902 0 0 1 1.012-.851A2.752 2.752 0 0 1 4.193 7c.277 0 .532.02.764.06.232.04.417.093.555.162v1.127a3.249 3.249 0 0 0-.566-.238 2.269 2.269 0 0 0-.69-.097c-.291 0-.559.065-.805.194-.246.13-.459.319-.639.567-.18.249-.32.553-.42.915a4.738 4.738 0 0 0-.156 1.232h.031c.072-.137.164-.262.272-.375a1.95 1.95 0 0 1 .366-.297c.135-.084.284-.15.447-.196a2.263 2.263 0 0 1 1.399.094c.261.11.484.269.669.475.186.207.328.458.429.753.101.294.151.628.151 1.002zm-1.215.103c0-.223-.025-.426-.075-.609a1.307 1.307 0 0 0-.229-.472 1.025 1.025 0 0 0-.384-.305 1.27 1.27 0 0 0-.542-.108c-.208 0-.391.039-.548.116-.158.077-.29.179-.397.305-.107.126-.188.27-.241.432a1.557 1.557 0 0 0-.081.496c0 .184.025.371.075.563.05.192.127.368.231.526.104.158.236.289.397.391.161.103.352.154.574.154.197 0 .372-.038.524-.113.152-.075.279-.18.381-.313.103-.134.18-.291.234-.473.054-.181.081-.378.081-.59z"/></g></svg>