<svg xmlns="http://www.w3.org/2000/svg" viewBox="0 0 16 16"><style>.st0{fill:#f6f6f6}.st1{fill:#424242}</style><path class="st0" d="M16 0H1v9.319a3.56 3.56 0 0 0-.296.162l-.456.296v3.691l.05-.043-.298.286V16h5.303v-2H16V0z" id="outline"/><g id="icon_x5F_bg"><path class="st1" d="M2 1h13v4H2zM2 7h13v2H2zM5.31 11c.013.108.028.216.028.328 0 .232-.028.462-.084.684A2.723 2.723 0 0 1 5 12.64V13h10v-2H5.31zM1 15v-.861l1.438-1.375c.151-.145.278-.275.382-.393.102-.115.185-.225.246-.324a1.048 1.048 0 0 0 .17-.574.797.797 0 0 0-.049-.281.587.587 0 0 0-.145-.219.665.665 0 0 0-.235-.143.993.993 0 0 0-.327-.051c-.119 0-.234.014-.347.041a1.86 1.86 0 0 0-.325.111 2.503 2.503 0 0 0-.298.164 2.97 2.97 0 0 0-.263.199v-.974a2.1 2.1 0 0 1 .268-.146 2.876 2.876 0 0 1 1.204-.27c.277 0 .518.037.723.111.203.072.372.174.505.303a1.2 1.2 0 0 1 .296.453c.064.174.096.359.096.557a1.722 1.722 0 0 1-.233.879 2.746 2.746 0 0 1-.322.453 4.593 4.593 0 0 1-.484.484l-1.032.918v.021h2.036V15H1z"/></g></svg>