<svg xmlns="http://www.w3.org/2000/svg" width="16" height="16"><style type="text/css">.icon-canvas-transparent{opacity:0;fill:#F6F6F6;} .icon-vs-out{fill:#F6F6F6;} .icon-vs-bg{fill:#424242;} .icon-vs-fg{fill:#F0EFF1;}</style><path class="icon-canvas-transparent" d="M16 16h-16v-16h16v16z" id="canvas"/><path class="icon-vs-out" d="M4 15c-.97 0-2-.701-2-2v-10c0-1.299 1.03-2 2-2h6.061l3.939 3.556v8.444c0 .97-.701 2-2 2h-8z" id="outline"/><path class="icon-vs-bg" d="M9.641,2H3.964C3.964,2,3,2,3,3c0,0.805,0,7.442,0,10c0,1,0.965,1,0.965,1s7,0,8,0S13,13,13,13V5L9.641,2z M12,13H4V3h5v3h3V13z" id="iconBg"/><path class="icon-vs-fg" d="M4 3h5v3h3v7h-8v-10z" id="iconFg"/><path class="icon-vs-bg" d="M9.607 7.462c.262.308.393.754.393 1.341v2.697h-1v-2.486c0-.395-.101-.694-.237-.897-.137-.203-.363-.305-.677-.305-.17 0-.322.033-.454.099-.133.066-.244.153-.336.261s-.16.234-.208.375c-.046.142-.088.289-.088.44v2.513h-1v-6.5h1v2.796h.036c.077-.12.163-.229.258-.326.096-.097.203-.18.322-.249s.249-.122.39-.161c.141-.039.297-.058.468-.058.494 0 .872.154 1.133.46z" id="colorImportance"/></svg>