<svg xmlns="http://www.w3.org/2000/svg" viewBox="0 0 16 16"><style>.st0{fill:#f6f6f6}.st1{fill:#424242}</style><path class="st0" d="M16 0H1v9.051l-.007.002c-.113.043-.255.085-.333.123L0 9.448V15.366l.553.276c.109.055.239.107.393.157a4.213 4.213 0 0 0 .863.174c.159.019.318.027.476.027.439 0 .834-.058 1.166-.168.373-.121.693-.301.944-.526a2.27 2.27 0 0 0 .743-1.305H16V0z" id="outline"/><g id="icon_x5F_bg"><path class="st1" d="M5 11h10v2H5zM2 1h13v4H2zM4.191 13.477c0 .213-.037.411-.111.595a1.258 1.258 0 0 1-.346.483 1.616 1.616 0 0 1-.592.325c-.24.081-.527.12-.857.12-.121 0-.244-.006-.367-.019a3.547 3.547 0 0 1-.352-.052 2.795 2.795 0 0 1-.316-.081 1.686 1.686 0 0 1-.25-.1v-.962a1.884 1.884 0 0 0 .57.276 2.308 2.308 0 0 0 .606.09c.293 0 .516-.063.67-.188a.607.607 0 0 0 .232-.502.581.581 0 0 0-.311-.531 1.164 1.164 0 0 0-.35-.128 2.254 2.254 0 0 0-.441-.042h-.451v-.847h.416c.174 0 .32-.016.445-.049a.887.887 0 0 0 .305-.137.548.548 0 0 0 .237-.465.671.671 0 0 0-.043-.245.486.486 0 0 0-.137-.194.635.635 0 0 0-.236-.128 1.18 1.18 0 0 0-.342-.046c-.096 0-.189.01-.283.028-.092.02-.18.044-.262.073a2.072 2.072 0 0 0-.435.225v-.903c.057-.027.125-.058.207-.089.082-.028.173-.057.279-.085a3.183 3.183 0 0 1 .746-.088c.293 0 .543.036.748.11.205.073.371.17.498.287.129.118.221.251.279.398.059.149.088.299.088.45 0 .143-.02.277-.055.407a1.108 1.108 0 0 1-.48.641c-.123.08-.273.142-.449.184v.018c.184.023.348.069.49.14a1.117 1.117 0 0 1 .65 1.031zM2 7v1.836c.136-.013.273-.025.416-.025.416 0 .775.056 1.091.17.015.005.028.013.042.019H15V7H2z"/></g></svg>