<svg xmlns="http://www.w3.org/2000/svg" viewBox="0 0 16 16"><style>.st0{fill:#f6f6f6}.st1{fill:#424242}</style><path class="st0" d="M16 0H1v9.84c-.061.064-.131.118-.188.189-.272.345-.48.757-.618 1.226A5.134 5.134 0 0 0 0 12.706c0 .475.057.908.169 1.288.122.412.305.77.546 1.067.257.314.571.553.934.711.345.152.724.228 1.126.228.383 0 .746-.07 1.075-.209a2.64 2.64 0 0 0 .868-.578c.248-.249.44-.546.574-.881.042-.106.067-.22.095-.332H16V0z" id="outline"/><g id="icon_x5F_bg"><path class="st1" d="M2 1h13v4H2zM4.489 13.273c0 .249-.042.479-.126.689a1.61 1.61 0 0 1-.896.906c-.21.088-.441.132-.692.132-.265 0-.507-.048-.726-.144a1.497 1.497 0 0 1-.562-.43 2.055 2.055 0 0 1-.36-.717A3.576 3.576 0 0 1 1 12.706c0-.431.051-.82.153-1.168.103-.348.251-.644.444-.89.193-.245.429-.434.706-.566.278-.133.592-.198.941-.198.21 0 .388.012.532.037.146.025.265.058.359.097v.905a1.736 1.736 0 0 0-.836-.208c-.193 0-.364.037-.513.11-.146.075-.273.18-.377.314a1.479 1.479 0 0 0-.24.487c-.056.19-.087.401-.091.634h.02a1.17 1.17 0 0 1 .42-.38c.176-.097.383-.144.62-.144.2 0 .383.033.547.1.165.067.308.166.427.296.12.13.213.291.278.481.066.191.099.41.099.66zm-1.067.069c0-.244-.054-.438-.161-.582-.106-.145-.269-.216-.485-.216a.65.65 0 0 0-.286.06.614.614 0 0 0-.208.165.727.727 0 0 0-.126.239.97.97 0 0 0-.043.285c0 .103.014.206.04.308a.872.872 0 0 0 .122.274.68.68 0 0 0 .208.199.547.547 0 0 0 .293.076.605.605 0 0 0 .275-.061.586.586 0 0 0 .201-.17.763.763 0 0 0 .127-.255c.028-.098.043-.205.043-.322zM5.137 11v.847c.079.136.146.283.2.44.074.219.112.461.132.713H15v-2H5.137zM2 7v2h.402c.268-.07.546-.116.843-.116.278 0 .514.019.705.052.089.016.153.044.232.064H15V7H2z"/></g></svg>