<svg xmlns="http://www.w3.org/2000/svg" viewBox="0 0 16 16"><style>.st0{opacity:0}.st0,.st1{fill:#f6f6f6}.st2{fill:#424242}.st3{fill:#f0eff1}</style><g id="outline"><path class="st0" d="M0 0h16v16H0z"/><path class="st1" d="M16 1H0v14h1.703c.77.616 1.734 1 2.797 1s2.027-.384 2.797-1H16V1z"/></g><g id="icon_x5F_bg"><path class="st2" d="M1 2v6.703a4.5 4.5 0 0 1 1-.943V5h12v8H8.725a4.51 4.51 0 0 1-.484 1H15V2H1z"/><path class="st2" d="M4.5 8a3.5 3.5 0 1 0 0 7 3.5 3.5 0 0 0 0-7zm.5 6H4v-1h1v1zm1-3c0 .551-.449 1-1 1v.5H4V12c0-.551.449-1 1-1v-1c-.08-.044-.252-.102-.5-.102s-.42.058-.5.102v.5H3V10c0-.58.631-1 1.5-1S6 9.42 6 10v1z"/></g><g id="icon_x5F_fg"><path class="st3" d="M2 5v2.76a4.5 4.5 0 0 1 7 3.74c0 .529-.108 1.028-.275 1.5H14V5H2z"/><path class="st3" d="M4.5 9C3.631 9 3 9.42 3 10v.5h1V10c.08-.044.252-.102.5-.102s.42.058.5.102v1c-.551 0-1 .449-1 1v.5h1V12c.551 0 1-.449 1-1v-1c0-.58-.631-1-1.5-1zM4 13h1v1H4z"/></g></svg>