<svg xmlns="http://www.w3.org/2000/svg" viewBox="0 0 16 16"><style>.st0{fill:#f6f6f6}.st1{fill:none}.st2{fill:#424242}.st3{fill:#f0eff1}</style><path class="st0" d="M15.266 11.731L12.33 8.795A5.006 5.006 0 0 0 7.5 2.5a4.87 4.87 0 0 0-1.07.122L5.118 0H.882L0 1.764v2.473L.882 6h1.883c-.156.486-.262.981-.264 1.488C1.024 8.226 0 9.736 0 11.5a4.5 4.5 0 0 0 8.9.935l2.831 2.832A2.502 2.502 0 0 0 16 13.5c0-.67-.261-1.298-.734-1.769z" id="outline"/><g id="icon_x5F_bg"><path class="st1" d="M4.5 9C3.631 9 3 9.42 3 10v.5h1V10c.08-.044.252-.102.5-.102s.42.058.5.102v1c-.551 0-1 .449-1 1v.5h1V12c.551 0 1-.449 1-1v-1c0-.58-.631-1-1.5-1zM4 13h1v1H4z"/><circle class="st1" cx="3" cy="3" r="1"/><path class="st2" d="M3.544 7.107C3.853 7.04 4.171 7 4.5 7c.19 0 .372.033.556.056L3.859 5.86a4.02 4.02 0 0 0-.315 1.247zM4.5 5l1-2-1-2h-3l-1 2 1 2h3zM3 2a1 1 0 1 1 0 2 1 1 0 0 1 0-2zM4.5 8a3.5 3.5 0 1 0 0 7 3.5 3.5 0 0 0 0-7zm.5 6H4v-1h1v1zm1-3c0 .551-.449 1-1 1v.5H4V12c0-.551.449-1 1-1v-1c-.08-.044-.252-.102-.5-.102s-.42.058-.5.102v.5H3V10c0-.58.631-1 1.5-1S6 9.42 6 10v1zM14.56 12.439l-3.377-3.377A4 4 0 0 0 7.5 3.5c-.586 0-1.139.133-1.641.36L9 7 7.682 8.318a4.48 4.48 0 0 1 1.289 2.894c.029-.012.061-.017.091-.028l3.377 3.376a1.5 1.5 0 0 0 2.121-2.121z"/></g><g id="icon_x5F_fg"><path class="st3" d="M4 13h1v1H4zM4.5 9C3.631 9 3 9.42 3 10v.5h1V10c.08-.044.252-.102.5-.102s.42.058.5.102v1c-.551 0-1 .449-1 1v.5h1V12c.551 0 1-.449 1-1v-1c0-.58-.631-1-1.5-1z"/></g></svg>