<?xml version="1.0" encoding="iso-8859-1"?>
<!-- Generator: Adobe Illustrator 21.0.2, SVG Export Plug-In . SVG Version: 6.00 Build 0)  -->
<svg version="1.1" xmlns="http://www.w3.org/2000/svg" xmlns:xlink="http://www.w3.org/1999/xlink" x="0px" y="0px"
	 viewBox="0 0 16 16" style="enable-background:new 0 0 16 16;" xml:space="preserve">
<style type="text/css">
	.icon_x002D_canvas_x002D_transparent{opacity:0;fill:#F6F6F6;}
	.icon_x002D_vs_x002D_out{fill:#F6F6F6;}
	.icon_x002D_vs_x002D_bg{fill:#424242;}
	.icon_x002D_vs_x002D_fg{fill:#F0EFF1;}
</style>
<g id="canvas">
	<path class="icon_x002D_canvas_x002D_transparent" d="M16,0v16H0L0,0L16,0z"/>
</g>
<g id="outline">
	<path class="icon_x002D_vs_x002D_out" d="M11,2l1,2h3v4h1v1.191L13.677,15H0L0,2H11z"/>
</g>
<g id="iconBg">
	<path class="icon_x002D_vs_x002D_bg" d="M13,5h1v1h-1V5z M11,6h1V5h-1V6z M10,5h1V4h-1V5z M9,4h1V3H9V4z M7,4h1V3H7V4z M5,4h1V3H5
		V4z M4,3H3v1h1V3z M1,3v1h1V3H1z M2,5H1v1h1V5z M2,7H1v1h1V7z M2,9H1v1h1V9z M2,11H1v1h1V11z M2,13H1v1h1V13z M4,13H3v1h1V13z
		 M6,13H5v1h1V13z M8,13H7v1h1V13z M10,13H9v1h1V13z M12,13h-1v1h1V13z M14,12h-1v1h1V12z M14,11.5h1v-1h-1V11.5z M14,10h1V9h-1V10z
		 M14,7h-1v1h1V7z M12,10h1V9h-1V10z M10,10h1V9h-1V10z M8,10h1V9H8V10z M6,10h1V9H6V10z M4,10h1V9H4V10z M4,11H3v1h1V11z"/>
</g>
<g id="iconFg">
	<path class="icon_x002D_vs_x002D_fg" d="M9,4l2,2h2v3H4l-2,5V4H9z"/>
	<g>
	</g>
	<g>
	</g>
	<g>
	</g>
	<g>
	</g>
	<g>
	</g>
	<g>
	</g>
</g>
</svg>
