<svg xmlns="http://www.w3.org/2000/svg" viewBox="0 0 16 16"><style>.st0{opacity:0}.st0,.st1{fill:#f6f6f6}.st2{fill:#424242}</style><g id="outline"><path class="st0" d="M0 0h16v16H0z"/><path class="st1" d="M1 1h15v13H1z"/></g><g id="icon_x5F_bg"><path class="st2" d="M10 12h1v1h-1zM14 12h1v1h-1zM12 12h1v1h-1zM14 10h1v1h-1zM10 2h1v1h-1zM12 2h1v1h-1zM14 8h1v1h-1zM2 10h1v1H2zM2 12h1v1H2zM6 12h1v1H6zM4 12h1v1H4zM8 12h1v1H8zM2 2h1v1H2zM2 8h1v1H2zM4 2h1v1H4zM6 2h1v1H6zM8 2h1v1H8zM14 2h1v1h-1zM14 6h1v1h-1zM2 6h1v1H2zM14 4h1v1h-1zM2 4h1v1H2zM12 4h1v7h-1zM6.63 7.361a1.058 1.058 0 0 0-.424-.294 1.643 1.643 0 0 0-.608-.102c-.119 0-.241.012-.368.033a3.716 3.716 0 0 0-.363.085 2.92 2.92 0 0 0-.31.11 1.313 1.313 0 0 0-.212.114v.768c.158-.132.341-.235.544-.313.204-.078.413-.117.627-.117.213 0 .377.063.494.186.116.125.174.324.174.6l-1.03.154c-.205.026-.38.077-.526.151a1.083 1.083 0 0 0-.563.66A1.562 1.562 0 0 0 4 9.857c0 .17.025.322.074.463s.121.26.216.361c.093.1.21.178.352.234.139.058.297.085.478.085.229 0 .431-.053.604-.16a1.3 1.3 0 0 0 .439-.463h.014v.529h.785V8.469c0-.238-.027-.451-.083-.637a1.286 1.286 0 0 0-.249-.471zm-.446 2.02c0 .131-.02.252-.059.365a.897.897 0 0 1-.165.295.76.76 0 0 1-.593.271.682.682 0 0 1-.242-.041.489.489 0 0 1-.302-.285.583.583 0 0 1-.041-.218c0-.086.01-.164.027-.232s.051-.127.098-.18a.546.546 0 0 1 .196-.133c.083-.033.189-.061.32-.078l.761-.109v.345zM8.71 7.656h-.013V5H8v5.887h.697v-.484h.013c.044.082.095.158.151.229.057.07.119.133.191.185a.835.835 0 0 0 .238.121.932.932 0 0 0 .292.043c.23 0 .434-.053.609-.16.176-.106.323-.254.443-.443a2.18 2.18 0 0 0 .273-.672c.062-.261.093-.54.093-.845a3.54 3.54 0 0 0-.074-.734 2.047 2.047 0 0 0-.228-.611 1.203 1.203 0 0 0-.394-.416 1.03 1.03 0 0 0-.573-.154c-.123 0-.234.018-.336.052a1.046 1.046 0 0 0-.279.147 1.153 1.153 0 0 0-.225.222 2.022 2.022 0 0 0-.181.289zm.467.082c.1-.055.21-.082.331-.082a.646.646 0 0 1 .571.32c.066.105.116.23.15.377.034.146.052.311.052.494 0 .234-.02.441-.06.621-.039.18-.095.328-.168.445a.747.747 0 0 1-.264.266.677.677 0 0 1-.651.016.74.74 0 0 1-.237-.207 1.009 1.009 0 0 1-.153-.306 1.262 1.262 0 0 1-.057-.381v-.506c0-.17.021-.326.061-.465s.096-.258.168-.359a.77.77 0 0 1 .257-.233z"/></g></svg>