<svg xmlns="http://www.w3.org/2000/svg" viewBox="0 0 16 16"><style>.st0{opacity:0}.st0,.st1{fill:#f6f6f6}.st2{fill:#424242}.st3{fill:#f0eff1}</style><g id="outline"><path class="st0" d="M0 0h16v16H0z"/><path class="st1" d="M1 14.938v-11h4.382l1-2H16v13z"/></g><g id="icon_x5F_bg"><path class="st2" d="M2 5h1v1H2zM2 7h1v1H2zM2 9h1v1H2zM2 11h1v1H2zM2 13h1v1H2zM4 13h1v1H4zM6 13h1v1H6zM8 13h1v1H8zM10 13h1v1h-1zM12 13h1v1h-1zM14 13h1v1h-1zM14 11h1v1h-1zM14 9h1v1h-1zM14 7h1v1h-1zM14 5h1v1h-1zM14 3h1v1h-1zM12 3h1v1h-1zM10 3h1v1h-1zM8 3h1v1H8zM6 4h1v1H6zM4 5h1v1H4z"/></g><path class="st3" d="M13 4H8L6 6H3v7h11V4h-1z" id="icon_x5F_fg"/></svg>