<svg xmlns="http://www.w3.org/2000/svg" viewBox="0 0 16 16"><style>.icon-canvas-transparent{opacity:0;fill:#f6f6f6}.icon-vs-out{fill:#f6f6f6}.icon-vs-bg{fill:#424242}.icon-vs-fg{fill:#f0eff1}.icon-folder{fill:#dcb67a}</style><path class="icon-canvas-transparent" d="M-.002 0h16v16h-16V0z" id="canvas"/><path class="icon-vs-out" d="M1.498 1h8.11l1 2h2.886c.827 0 1.504.673 1.504 1.5v4.202c1 .771 1.002 1.735 1.002 2.798A4.498 4.498 0 1 1 7.76 14H1.498c-.827 0-1.5-.673-1.5-1.5v-10c0-.827.673-1.5 1.5-1.5z" id="outline"/><path class="icon-folder" d="M.998 2.5v10a.5.5 0 0 0 .5.5h5.776a4.453 4.453 0 0 1-.275-1.5c0-2.481 2.02-4.5 4.501-4.5.923 0 1.498.281 2.498.76V4.5c0-.276-.227-.5-.504-.5H9.99l-1-2H1.498a.5.5 0 0 0-.5.5zm1 .5H7.99l.5 1H1.998V3z" id="iconBg"/><path class="icon-vs-fg" d="M7.998 3l.5 1h-6.5V3h6z" id="iconFg"/><path class="icon-vs-fg" d="M8.998 11.5c0 1.208.86 2.217 2 2.449V12h1v1.949a2.501 2.501 0 0 0 2-2.449c0-1.379-1.121-2.5-2.5-2.5s-2.5 1.121-2.5 2.5zm2-1.5h1v1h-1v-1z" id="notificationFg"/><g id="notificationBg"><path class="icon-vs-bg" d="M10.328 13.785l-.425.831a3.472 3.472 0 0 1-.884-.644l.661-.658c.19.188.408.347.648.471zm-1.365-1.884l-.923.146c.058.363.171.713.338 1.04l.832-.424a2.55 2.55 0 0 1-.247-.762zm4.343 1.423c-.191.189-.41.347-.65.468l.42.833c.328-.165.627-.38.888-.64l-.658-.661zM9.21 10.337l-.816-.455-.016.032a3.484 3.484 0 0 0-.338 1.04l.922.145c.041-.264.125-.521.248-.762zm4.576 2.326l.824.438.008-.016c.164-.323.277-.666.335-1.02l-.921-.151c-.043.26-.126.512-.246.749zM9.7 9.666c.192-.188.411-.344.653-.463l-.415-.837a3.49 3.49 0 0 0-.892.635l.654.665zm4.336 1.447l.922-.141a3.493 3.493 0 0 0-.331-1.042l-.834.418c.12.242.202.499.243.765zm-2.115-2.146l.153-.92a3.515 3.515 0 0 0-1.093-.009l.138.923c.267-.04.537-.038.802.006zm1.405.73l.665-.656a3.47 3.47 0 0 0-.88-.649l-.43.828c.24.125.457.285.645.477zm-2.328 4.338l-.055.921c.363.059.731.059 1.093.002l-.038-.922V12h-1v2.035zM10.998 10h1v1h-1v-1z"/></g></svg>