<svg xmlns="http://www.w3.org/2000/svg" viewBox="0 0 16 16"><style>.icon-canvas-transparent{opacity:0;fill:#f6f6f6}.icon-vs-out{fill:#f6f6f6}.icon-vs-bg{fill:#424242}.icon-vs-fg{fill:#f0eff1}</style><path class="icon-canvas-transparent" d="M16 16H0V0h16v16z" id="canvas"/><path class="icon-vs-out" d="M14.261 7.256l.933 5.244h-2.08l-1.081-1.496-.997 1.496h-.416A5.5 5.5 0 0 1 5.5 16a5.5 5.5 0 0 1 0-11c1.106 0 2.134.33 2.997.892A3.855 3.855 0 0 1 8 4c0-2.206 1.794-4 4-4 2.205 0 4 1.794 4 4 0 1.33-.676 2.519-1.739 3.256z" id="outline"/><path class="icon-vs-bg" d="M8.781 9.291l.939-.347c.091.247.161.504.208.769v.011l.001.003v.001l.001.003v.003l.001.003v.019l.003.015.001.004.02.137-.992.129a3.246 3.246 0 0 0-.182-.75zm.045 2.29l.951.308c.055-.171.101-.347.136-.527l.001-.003v-.001-.002-.002-.003-.003-.001-.002-.002-.002l.001-.002v-.001l.001-.004v-.001-.003-.003-.001-.003-.001-.004-.003-.001l.001-.003c.024-.131.042-.264.055-.399l-.991-.092c-.024.26-.076.516-.155.761zm.446-3.529a4.38 4.38 0 0 0-.173-.248l-.002-.002v-.001l-.002-.002-.002-.004v-.001l-.003-.001-.005-.008-.001-.001-.001-.001-.001-.001-.001-.002-.001-.002-.001-.001-.002-.002-.001-.001-.002-.002v-.001l-.004-.006h-.001l-.002-.003v-.001l-.002-.002v-.001a.002.002 0 0 1-.002-.002v-.001l-.003-.002a4.519 4.519 0 0 0-.286-.336l-.003-.003-.008-.008-.002-.003-.001-.001-.002-.002-.002-.002-.001-.001-.002-.002-.001-.001-.002-.002-.001-.001-.002-.002-.001-.001-.002-.002-.001-.001-.001-.001-.001-.001-.001-.001-.001-.002-.001-.001-.002-.002-.001-.001-.006-.006-.002-.003-.003-.002-.084-.085-.699.715c.186.181.351.384.493.601l.838-.544zM2.013 10.85l-.995.098.003.03v.007a.15.15 0 0 1 .002.02v.01l.002.017V11.045l.003.02v.012l.002.017v.006l.001.007.003.021.001.007c.029.203.071.402.127.596l.001.003.001.003v.001l.005.015v.001l.001.002v.002l.001.002v.002l.001.002.001.002v.003l.001.002.001.003v.001a.019.019 0 0 1 .002.007l.001.003.001.003.001.004.041.129.948-.317a3.74 3.74 0 0 1-.156-.754zm6.025 2.056l.726.688a4.29 4.29 0 0 0 .227-.259l.002-.002.001-.002.001-.001.002-.002.006-.008v-.001l.002-.002.001-.001.001-.002.001-.001.002-.002.001-.001.001-.002.001-.002.001-.001.002-.003.002-.003v-.001l.002-.002.002-.003v-.001l.002-.003.002-.002.002-.003.007-.009.002-.002.002-.003.002-.003c.116-.149.223-.305.32-.468l-.859-.511a3.33 3.33 0 0 1-.464.618zm-.922 1.793c.215-.083.422-.182.62-.296h.001l.003-.002.003-.002.007-.004.003-.002.001-.001.002-.001.002-.001.001-.001.002-.001.001-.001.002-.001h.001l.003-.001c.079-.046.157-.095.233-.146l-.557-.83a3.546 3.546 0 0 1-.688.359l.36.931zm-5.47-1.869c.1.166.211.325.332.476v.001l.002.002.001.001.002.002.001.001.002.002.001.001.001.001.001.001.003.003.001.002.001.001.001.002.001.001.001.002.001.001.002.002.001.001.002.002.001.001.005.006c.079.097.162.19.248.28l.721-.693a3.495 3.495 0 0 1-.474-.616l-.858.517zM3.03 8.017l-.704-.71-.012.01-.002.003-.003.003-.011.011-.003.003-.003.002-.011.012-.002.001v.001l-.003.003-.003.003-.013.014-.003.003-.014.014-.002.002-.001.001-.002.002v.001l-.002.002-.009.009-.002.002-.001.001-.002.002v.001a.002.002 0 0 0-.002.002l-.003.003-.006.006v.001l-.002.001-.001.001-.002.002-.001.001-.001.002-.001.001-.002.002v.001l-.006.005-.002.003h-.001l-.002.002v.001l-.002.002-.001.001-.002.002-.001.001-.01.011-.001.001-.001.001-.001.001-.002.002v.001a.002.002 0 0 0-.002.002v.001c-.002 0-.002.001-.003.002v.001l-.003.002-.001.001-.002.002-.001.001-.002.001-.001.001v.002l-.001.002-.001.001-.001.001-.001.002-.001.001-.004.003-.002.002-.001.001-.001.002-.001.001-.001.002-.001.001-.001.001-.002.002-.001.001-.001.001-.002.002-.001.001-.002.002-.001.001-.001.001-.002.003-.001.002-.001.001-.001.001-.002.001-.001.002-.001.001-.001.002-.001.001-.002.001-.002.003-.001.001-.001.001-.001.002-.002.001-.002.002-.001.001-.001.001-.001.001-.001.001-.001.002-.002.002-.003.004-.001.001-.001.001-.001.002-.002.001-.001.001-.001.002-.001.001-.001.001-.002.002-.001.001-.001.002-.004.004v.001l-.002.002-.001.001-.002.002-.001.001-.001.002-.001.001-.001.001-.001.001-.002.002v.001l-.004.004-.001.002-.001.001-.001.002-.001.001-.001.002-.002.001-.001.002v.001l-.003.001h-.001a.018.018 0 0 1-.005.007l-.001.001-.002.002-.001.001-.002.002-.001.001v.001l-.001.001-.001.002-.001.001-.001.002-.006.007-.003.003v.001l-.002.002-.002.002v.001l-.002.002v.001l-.008.01h-.001l-.002.002-.001.001-.001.002-.001.001-.001.001-.001.001A.002.002 0 0 1 2 7.665l-.008.01-.002.003-.002.003h-.001l-.001.002-.001.001-.008.01v.001l-.002.001v.001l-.002.002-.001.001-.001.002-.001.001-.002.002-.005.007-.002.003v.001l-.002.002v.001l-.003.001-.002.003-.008.011-.002.002-.001.001-.001.002-.001.001-.002.002v.001l-.008.01-.002.002v.001l-.002.002v.001l-.002.001v.001l-.008.01-.002.003-.002.003v.001l-.001.001-.002.001-.001.002-.007.01v.001l-.003.001-.001.002-.002.002v.001l-.002.002v.001l-.002.002-.001.001-.007.009v.001l-.002.002v.001l-.002.002-.001.001-.002.002v.001l-.001.002v.001l-.006.006v.001l-.001.002-.002.001-.001.002-.001.001-.001.002-.001.001-.001.002-.001.001-.001.001-.001.002-.002.003-.001.001-.001.002-.001.001-.001.002-.001.002-.001.001-.001.001-.002.002-.001.001-.001.002-.001.001-.001.001-.002.003-.001.002-.001.001-.001.002-.001.001-.001.001-.001.002-.001.001-.001.002-.001.001-.001.002-.001.001-.005.006-.001.001-.002.002-.001.001-.001.002-.001.001-.001.002-.001.001a.002.002 0 0 1-.002.002l-.001.001a.031.031 0 0 1-.005.01l-.002.003v.001l-.002.002-.003.003-.009.014-.002.003-.002.003a4.063 4.063 0 0 0-.091.137l.843.538c.139-.218.303-.422.488-.604zm-1.008 2.055c.032-.258.092-.512.179-.755l-.942-.338c-.065.182-.119.37-.16.563l-.001.003v.001l-.001.003v.001l-.001.003-.001.003-.001.004-.001.008V9.591l-.001.002v.003a.02.02 0 0 0-.008.013l-.001.003v.001l-.001.003v.001l-.001.003v.001l-.001.003a5.68 5.68 0 0 0-.051.326l.993.122zm2.315-2.876l-.331-.943c-.183.064-.36.14-.532.226l-.003.001-.003.001h-.001l-.003.001-.003.001c-.003.004-.007.006-.011.008h-.001l-.002.001h-.001l-.002.001h-.001l-.002.001-.003.001c-.003.004-.006.005-.009.007h-.001l-.002.001-.001.001-.002.001-.001.001-.002.001h-.001l-.001.001-.003.001-.001.001-.003.001H3.41l-.003.002-.001.001-.002.001-.002.001-.002.001-.001.001-.001.001h-.002l-.002.001h-.001l-.003.002-.004.002-.003.002h-.001l-.003.001v.001l-.002.001h-.001l-.003.002a.047.047 0 0 1-.01.005l-.004.003-.003.002-.004.002-.003.001-.014.008-.003.002-.004.002-.02.011c-.053.03-.106.06-.158.092l-.003.002-.014.009-.003.002-.003.002c-.002 0-.002.001-.003.002a.088.088 0 0 0-.01.006l-.004.002h-.001l-.002.002.532.847c.219-.138.454-.251.698-.337zm3.517-.53a4.524 4.524 0 0 0-.903-.426l-.323.947c.245.083.48.194.701.33l.525-.851zm-4.833 7.593a.85.85 0 0 0 .039.025l.003.002h.001l.002.002h.001a.003.003 0 0 0 .002.001l.001.001a.003.003 0 0 0 .002.001l.001.001.004.003.001.001.002.001.001.001.001.001.001.001a.003.003 0 0 0 .002.001l.001.001.002.001.001.001c.1.063.202.122.307.178l.003.001a.003.003 0 0 0 .002.001l.001.001.003.001h.001l.003.001.008.004.001.001.002.001.001.001.001.001a.003.003 0 0 0 .002.001l.002.001.002.001h.001l.004.002h.001l.003.001h.001l.003.002.003.002h.001l.003.001h.001l.002.001.001.001.003.001h.001l.003.002c.146.074.297.141.452.199l.352-.936a3.451 3.451 0 0 1-.69-.352l-.552.837zM5.762 7.01l.108.01.106-.994-.109-.011-.01-.001H5.828h-.003-.002-.002-.005-.007-.007H5.793h-.028-.004-.004-.004.001-.004H5.737 5.698h-.003-.004-.019l-.029-.001H5.623c-.016-.012-.031-.012-.045-.013h-.003c-.202-.004-.4.006-.596.029l.114.993c.22-.025.445-.029.669-.012zM5 9h1V8H5v1zm1.006 4.963H6v-.013c-.069.01-.14.012-.21.021.069-.009.141-.011.21-.021V10H5v4.069l-.122.889.021.003H4.91l.09.01V15h1v-.028l.014-.002.003-.001h.011l.061-.008.061-.008-.144-.99zm7.152-7.196L14 11.5h-.375L12 9l-1.009 1.682c.002-.061.009-.121.009-.182 0-.735-.147-1.436-.409-2.077l.251-1.656a3 3 0 1 1 2.316 0zm.342-2.768A1.5 1.5 0 1 0 10.499 4 1.5 1.5 0 0 0 13.5 4z" id="iconBg"/><path class="icon-vs-fg" d="M13.5 3.999a1.5 1.5 0 1 1-3 0 1.5 1.5 0 0 1 3 0zM9 10.5a3.5 3.5 0 1 0-7 0 3.49 3.49 0 0 0 3 3.45V10h1v3.95a3.49 3.49 0 0 0 3-3.45zM6 9H5V8h1v1z" id="notificationFg"/></svg>