<svg xmlns="http://www.w3.org/2000/svg" viewBox="0 0 16 16"><style>.st0{opacity:0}.st0,.st1{fill:#f6f6f6}.st2{fill:#424242}.st3{fill:#f0eff1}</style><g id="outline"><path class="st0" d="M0 0h16v16H0z"/><path class="st1" d="M11 6.172V4H6.469l1.666-2H0v1.362L.531 4H0v9h11V9.828l5 5V1.172z"/></g><g id="icon_x5F_bg"><path class="st2" d="M9 5h1v1H9zM7 5h1v1H7zM3.5 6L1 3h5z"/><path class="st2" d="M10 10H6V9h4V7H6V5H5v2H1v5h9v-2zm-5 0H2V9h3v1zM10.586 8L15 12.414V3.586L10.586 8zM14 10l-2-2 2-2v4z"/></g><path class="st3" d="M14 6l-2 2 2 2z" id="icon_x5F_fg"/></svg>