<svg xmlns="http://www.w3.org/2000/svg" viewBox="0 0 16 16"><style>.st0{opacity:0}.st0,.st1{fill:#f6f6f6}.st2{fill:#424242}.st3{fill:#f0eff1}</style><g id="outline"><path class="st0" d="M0 0h16v16H0z"/><path class="st1" d="M16 0H3v9h1.5l-.5.5v2l.826 1-.826 1v2l.5.494h2l.455-.776.214.153c.391.281.915.496 1.331.629h2c.535-.152 1.099-.4 1.558-.773L12.5 16h2l.5-.5v-2l-.819-.999L15 11.5v-2l-.516-.5H16V0zM6.949 9.774L6.5 9h2c-.523.154-1.102.408-1.551.774zm5.103.008l-.213-.153A4.15 4.15 0 0 0 10.5 9h2.049l-.497.782z"/><path class="st1" d="M.016 16h.762l4.742-4.038L.016 7.361v3.123H0v3h.016z"/></g><g id="icon_x5F_bg"><path class="st2" d="M4 1v7h11V1H4zm1.548.5l.522.767c-.126.15-.264.28-.38.45l-.438.64L4.5 2.253 5.548 1.5zM4.5 6.747l2.238-3.279C7.459 2.412 8.44 1.831 9.5 1.831c.626 0 1.217.225 1.752.609l-.738 1.078c-.322-.219-.666-.341-1.014-.341-.62 0-1.24.348-1.714 1.044L5.548 7.5 4.5 6.747zm8.951.753l-.522-.766c.128-.151.265-.281.38-.451l.438-.64.753 1.104-1.049.753zm-1.188-1.968C11.541 6.588 10.559 7.17 9.5 7.17c-.626 0-1.216-.226-1.75-.61l.735-1.077c.322.219.667.34 1.015.34.619 0 1.239-.347 1.713-1.044L13.451 1.5l1.049.753-2.237 3.279zM9.5 11.177c.348 0 .692.122 1.014.342l.738-1.078c-.535-.385-1.126-.609-1.752-.609-1.06 0-2.041.581-2.762 1.637L4.5 14.747l1.048.753 2.238-3.279c.474-.697 1.094-1.044 1.714-1.044zM6.07 10.267L5.548 9.5l-1.048.753.753 1.103.438-.64c.116-.169.253-.299.379-.449zM11.213 12.779c-.474.697-1.094 1.044-1.713 1.044-.348 0-.693-.121-1.015-.341L7.75 14.56c.534.385 1.124.61 1.75.61 1.059 0 2.041-.582 2.763-1.638l2.237-3.279-1.049-.753-2.238 3.279zM13.309 14.283c-.115.17-.252.3-.38.451l.522.766 1.049-.753-.754-1.103-.437.639zM3.969 11.969L1.016 9.5v1.984H0v1h1.016v2z"/></g><g id="icon_x5F_fg"><path class="st3" d="M5.69 2.717c.116-.17.254-.3.38-.45L5.548 1.5 4.5 2.253l.753 1.104.437-.64zM9.5 3.177c.348 0 .692.122 1.014.342l.738-1.078c-.535-.385-1.126-.61-1.752-.61-1.06 0-2.041.581-2.762 1.637L4.5 6.747l1.048.753 2.238-3.279C8.26 3.524 8.88 3.177 9.5 3.177zM13.451 1.5l-2.238 3.279c-.474.698-1.094 1.044-1.713 1.044-.348 0-.693-.121-1.015-.341L7.75 6.56c.534.384 1.124.61 1.75.61 1.059 0 2.041-.582 2.763-1.638L14.5 2.253 13.451 1.5zM13.309 6.283c-.115.17-.252.3-.38.451l.522.766 1.049-.753-.754-1.104-.437.64z"/></g></svg>