<svg xmlns="http://www.w3.org/2000/svg" viewBox="0 0 16 16"><style>.st0{opacity:0}.st0,.st1{fill:#f6f6f6}.st2{fill:#424242}.st3{fill:#00539c}.st4{fill:#f0eff1}</style><g id="outline"><path class="st0" d="M0 0h16v16H0z"/><path class="st1" d="M1 0v4.586l-1-1v4.828l1 1V16h15V0z"/></g><g id="icon_x5F_bg"><path class="st2" d="M2 15h13v-4H2v4zm1-3h11v2H3v-2zM9 6v2L8 7v1.5L9.5 10 11 8.5V7l-1 1V6zM14 6h-1v2l-1-1v1.5l1.5 1.5L15 8.5V7l-1 1z"/></g><path class="st3" d="M2 1v4h1v3L1 6v2l3 3 3-3V6L5 8V5h10V1H2zm12 3H3V2h11v2z" id="color_x5F_action"/><g id="icon_x5F_fg"><path class="st4" d="M3 12h11v2H3zM3 2h11v2H3z"/></g></svg>