<svg xmlns="http://www.w3.org/2000/svg" viewBox="0 0 16 16"><style>.st0{opacity:0}.st0,.st1{fill:#f6f6f6}.st2{fill:#424242}</style><g id="outline"><path class="st0" d="M0 0h16v16H0z"/><path class="st1" d="M16 8h-2V4h-2l.025-4H7v4H5v2.011c-1.416.028-2.612.511-3.55 1.456C.488 8.437 0 9.666 0 11.121c0 1.429.471 2.61 1.399 3.512.918.898 2.125 1.354 3.587 1.354.98 0 1.769-.147 2.458-.436L8 15.294v-1.358c1-.187.834-.477 1.147-.864.013-.016.05-.035.063-.052l6.79.032V8z"/></g><g id="icon_x5F_bg"><path class="st2" d="M8 1h3v3H8zM10 5h3v3h-3zM12 9h3v3h-3zM8.586 7.233c.157.14.282.298.414.451V5H6v1.069c.996.142 1.865.527 2.586 1.164zM9.761 9c.167.476.271.983.271 1.541 0 .532-.083 1.018-.237 1.459H11V9H9.761zM5.836 12.135h-.025c-.234.699-.693 1.047-1.375 1.047-.435 0-.785-.164-1.052-.488-.268-.326-.4-.766-.4-1.315 0-.73.183-1.336.549-1.818.365-.482.847-.723 1.444-.723.229 0 .43.063.609.186.18.125.293.275.346.449h.016c.01-.09.033-.277.072-.557h.809c-.153 1.709-.229 2.58-.229 2.611 0 .643.168.963.502.963.307 0 .561-.178.76-.537.203-.357.303-.822.303-1.393 0-.842-.271-1.529-.816-2.061-.544-.532-1.3-.8-2.265-.8-.928 0-1.691.324-2.3.969-.608.643-.912 1.449-.912 2.42 0 .955.293 1.725.877 2.311.586.586 1.372.881 2.362.881.783 0 1.451-.133 2.004-.4v.75c-.568.238-1.277.357-2.129.357-1.194 0-2.159-.355-2.889-1.068C1.366 13.207 1 12.273 1 11.121c0-1.188.387-2.17 1.16-2.949C2.935 7.391 3.921 7 5.123 7c1.127 0 2.061.328 2.801.982.738.654 1.107 1.508 1.107 2.559 0 .771-.199 1.404-.602 1.898-.4.496-.891.742-1.469.742-.745.001-1.122-.347-1.124-1.046zm-.777-2.608c-.355 0-.645.174-.863.523-.22.351-.329.787-.329 1.309 0 .348.074.625.22.828a.702.702 0 0 0 .594.303c.355 0 .639-.184.85-.553.207-.365.311-.854.311-1.457-.002-.637-.262-.953-.783-.953z"/></g></svg>