<svg xmlns="http://www.w3.org/2000/svg" viewBox="0 0 16 16"><style>.st0{opacity:0}.st0,.st1{fill:#f6f6f6}.st2{fill:#424242}.st3{fill:#f0eff1}</style><g id="outline"><path class="st0" d="M0 0h16v16H0z"/><path class="st1" d="M3 0h11v16H3z"/></g><path class="st2" d="M4 1v14h9V1H4zm2 13H5v-1h1v1zm3 0H8v-1h1v1zm3 0h-1v-1h1v1zm0-2H5V2h7v10zm-1-6H8V3h3v3zM7.5 8a1.5 1.5 0 1 0 0 3 1.5 1.5 0 0 0 0-3z" id="icon_x5F_bg"/><g id="icon_x5F_fg"><path class="st3" d="M11 13h1v1h-1zM8 13h1v1H8zM5 13h1v1H5zM5 2v10h7V2H5zm2.5 9a1.5 1.5 0 1 1 .001-3.001A1.5 1.5 0 0 1 7.5 11zM11 6H8V3h3v3z"/></g></svg>