<svg xmlns="http://www.w3.org/2000/svg" viewBox="0 0 16 16"><style>.st0{opacity:0}.st0,.st1{fill:#f6f6f6}.st2{fill:#424242}</style><g id="outline"><path class="st0" d="M0 0h16v16H0z"/><path class="st1" d="M12.439 0h-2.346L5.321 4.772h1.926L3.754 8.265l.321.32-.963.963.322.321L0 13.303v.193l1.545 1.545H4.94l1.833-1.833.321.321.963-.963.32.322 5.777-5.777L16 5.265V3.562z"/></g><path class="st2" d="M10.303 3.13l3.209 3.209-5.134 5.135-3.21-3.209 5.135-5.135zm1.926-1.926l-1.284 1.284 3.21 3.21 1.283-1.284-3.209-3.21zM4.526 9.548l2.567 2.567.642-.642-2.567-2.567-.642.642zm-3.209 3.851l.642.642h2.567l1.925-1.926-1.925-1.925-3.209 3.209zM9.019 3.13l2.567-1.926-.643-.642-3.208 3.21h1.284V3.13z" id="icon_x5F_bg"/></svg>