<svg xmlns="http://www.w3.org/2000/svg" viewBox="0 0 16 16"><style>.st0{opacity:0}.st0,.st1{fill:#f6f6f6}.st2{fill:#424242}</style><g id="outline"><path class="st0" d="M0 0h16v16H0z"/><path class="st1" d="M13 2.586l-2 2V0H0v10h5.586L2 13.586V16h4.414L16 6.414v-.828z"/></g><g id="icon_x5F_bg"><path transform="rotate(-45.001 10.5 8.5)" class="st2" d="M5.55 7.086h9.899v2.828H5.55z"/><path class="st2" d="M3.103 6.223a.557.557 0 0 0-.196.132c-.047.053-.08.112-.097.18s-.028.147-.028.233a.513.513 0 0 0 .157.39.528.528 0 0 0 .186.113.682.682 0 0 0 .242.041.76.76 0 0 0 .593-.271.897.897 0 0 0 .165-.295c.038-.113.059-.234.059-.365v-.346l-.761.11a1.29 1.29 0 0 0-.32.078zM8.079 4.977a.713.713 0 0 0-.244-.239.656.656 0 0 0-.327-.082c-.121 0-.341.031-.465.242-.321.549-.335 2.373.397 2.373a.68.68 0 0 0 .35-.092.747.747 0 0 0 .264-.266c.073-.117.129-.266.168-.445.04-.18.06-.387.06-.621 0-.184-.018-.348-.052-.494a1.222 1.222 0 0 0-.151-.376z"/><path class="st2" d="M6.689 8.896l.919-.919c-.008.001-.016.003-.025.003a.932.932 0 0 1-.292-.043.835.835 0 0 1-.238-.121.99.99 0 0 1-.192-.185 1.512 1.512 0 0 1-.151-.229h-.013V8H6V2h.831s-.065 2.65 0 2.563c.067-.086.201-.355.285-.417a.992.992 0 0 1 .615-.199c.582-.009 1.02.393 1.123.569.103.176.178.379.228.611.049.232.074.477.074.734 0 .294-.037.355-.094.607l.8-.745.138-.137V1H1v8h5.586l.103-.104zM4.962 8h-.785v-.623h-.014c-.12.203-.267.357-.439.463-.173.107-.374.16-.604.16-.181 0-.339-.027-.478-.084a.97.97 0 0 1-.352-.234 1.007 1.007 0 0 1-.216-.362A1.388 1.388 0 0 1 2 6.857c0-.164.021-.318.065-.461a1.065 1.065 0 0 1 .562-.66c.146-.074.321-.125.525-.152l1.03-.154c0-.275-.058-.475-.174-.6-.115-.123-.279-.185-.492-.185-.214 0-.423.039-.627.117a1.93 1.93 0 0 0-.544.312v-.767c.051-.035.121-.072.213-.113.093-.04.196-.076.31-.11.114-.034.236-.062.362-.085.127-.021.249-.033.368-.033.234 0 .438.033.608.102.171.066.313.164.424.293.11.129.194.287.249.471.056.186.083.398.083.637V8zM3 14v1h3l1-1-2-2z"/></g></svg>