<svg xmlns="http://www.w3.org/2000/svg" viewBox="0 0 16 16"><style>.st0{opacity:0}.st0,.st1{fill:#f6f6f6}.st2{fill:#424242}</style><g id="outline"><path class="st0" d="M0 0h16v16H0z"/><path class="st1" d="M15 10c-1.529 0-1.974-1.345-2.447-4.563C12.196 3.015 11.752 0 9 0 6.181 0 5.536 3.218 5.02 5.804 4.528 8.261 4.096 10 3 10V0H0v14h2v2h13v-2h1v-4h-1z"/></g><g id="icon_x5F_bg"><path class="st2" d="M9 14h1v1H9zM3 14h1v1H3zM5 14h1v1H5zM7 14h1v1H7zM11 14h1v1h-1zM2 1H1v12h14v-1H2zM13 14h1v1h-1z"/><path class="st2" d="M9 1C5 1 7 11 3 11h12c-5 0-2-10-6-10z"/></g></svg>