<svg xmlns="http://www.w3.org/2000/svg" viewBox="0 0 16 16" enable-background="new 0 0 16 16"><style type="text/css">.icon-canvas-transparent{opacity:0;fill:#F6F6F6;} .icon-vs-out{fill:#F6F6F6;} .icon-vs-bg{fill:#424242;} .icon-vs-fg{fill:#F0EFF1;}</style><path class="icon-canvas-transparent" d="M16 16h-16v-16h16v16z" id="canvas"/><path class="icon-vs-out" d="M16 0v14h-1.026c-.914 1.207-2.347 2-3.974 2-.532 0-1.041-.092-1.521-.249-.47.147-.961.249-1.479.249-1.627 0-3.061-.793-3.974-2h-3.026v-14h15z" id="outline"/><path class="icon-vs-bg" d="M15 11c0 2.209-1.791 4-4 4l-.028-.003c.46-.343.868-.753 1.187-1.231 1.081-.454 1.841-1.522 1.841-2.766s-.76-2.312-1.84-2.766c-.319-.478-.727-.888-1.187-1.231l.027-.003c2.209 0 4 1.791 4 4zm-13-10v12h1.424c-.14-.318-.252-.651-.323-1h-.101v-2h.101c.071-.349.183-.682.323-1h-.424v-2h2.031c.833-.62 1.853-1 2.969-1h-1v-2h3v2h-2c.519 0 1.01.102 1.481.249.478-.157.987-.249 1.519-.249v-2h3v2h-3c1.116 0 2.136.38 2.969 1h.031v.026c.379.287.716.624 1 1.005v-7.031h-13zm4 5h-3v-2h3v2zm2 1c-2.209 0-4 1.791-4 4s1.791 4 4 4 4-1.791 4-4-1.791-4-4-4zm0 7c-1.655 0-3-1.345-3-3s1.345-3 3-3 3 1.345 3 3-1.345 3-3 3zm0-3v-2h-1v3h3v-1h-2z" id="iconBg"/><g id="iconFg"><path class="icon-vs-fg" d="M6 6h-3v-2h3v2zm-.969 1h-2.031v2h.424c.352-.801.913-1.483 1.607-2zm-2.031 3v1c0-.342.035-.677.101-1h-.101zm7-4v-2h-3v2h3zm-7 5v1h.101c-.066-.323-.101-.658-.101-1zm8-7v2h3v-2h-3zm3 3.026v-.026h-.031l.031.026zm-1.84 1.208c.529.793.84 1.743.84 2.766s-.311 1.973-.84 2.766c1.08-.455 1.84-1.523 1.84-2.766 0-1.244-.76-2.312-1.84-2.766zm-4.16-.234c-1.655 0-3 1.345-3 3s1.345 3 3 3 3-1.345 3-3-1.345-3-3-3zm2 4h-3v-3h1v2h2v1z"/></g></svg>