<svg xmlns="http://www.w3.org/2000/svg" viewBox="0 0 16 16"><style>.st0{fill:#424242}.st1{fill:#ffd6d6}</style><path class="st0" d="M10 3H8v2H7a2 2 0 0 1-2-2c0-.366.105-.705.277-1h-1.25C2.804 2.911 2 4.356 2 6a5 5 0 0 0 5 5h1v2h2l5-5-5-5zm-.414 9H9v-2H7c-2.206 0-4-1.794-4-4 0-.992.365-1.923 1.021-2.649A3.004 3.004 0 0 0 7 6h2V4h.586l4 4-4 4z" id="icon_x5F_bg"/><path class="st1" d="M4.021 3.351A3.004 3.004 0 0 0 7 6h2V4h.586l4 4-4 4H9v-2H7c-2.206 0-4-1.794-4-4 0-.992.365-1.923 1.021-2.649" id="icon_x5F_fg"/></svg>