<svg xmlns="http://www.w3.org/2000/svg" viewBox="0 0 16 16"><style>.icon-canvas-transparent{opacity:0;fill:#f6f6f6}.icon-vs-out{fill:#f6f6f6}.icon-vs-fg{fill:#f0eff1}.icon-disabled-grey{fill:#848484}.st0{fill:none}</style><path class="icon-canvas-transparent" d="M16 16H0V0h16v16z" id="canvas"/><path class="icon-vs-out" d="M16 7.879v1.535l-1 1V16H1v-5.586l-1-1V7.879L7.879 0h.242L16 7.879z" id="outline"/><g id="iconFg"><path class="st0" d="M0 0h16v16H0z"/><path class="icon-vs-fg" d="M13 14h-3V9H6v5H3V7.707l5-5 5 5V14z"/></g><path class="icon-disabled-grey" d="M.646 8.646l.707.707L2 8.707V15h5v-5h2v5h5V8.707l.646.646.707-.707L8 1.293.646 8.646zM13 14h-3V9H6v5H3V7.707l5-5 5 5V14z" id="iconBg"/></svg>