<svg xmlns="http://www.w3.org/2000/svg" viewBox="0 0 16 16"><style>.icon-canvas-transparent{opacity:0;fill:#f6f6f6}.icon-vs-out{fill:#f6f6f6}.icon-vs-bg{fill:#424242}.icon-vs-fg{fill:#f0eff1}.icon-vs-blue{fill:#1ba1e2}.icon-vs-action-orange{fill:#c27d1a}</style><path class="icon-canvas-transparent" d="M16 16H0V0h16v16z" id="canvas"/><path class="icon-vs-out" d="M16 0v16H1V0h15z" id="outline"/><path class="icon-vs-bg" d="M9 10v5H8v-5h1zM2 1v14h5v-5H3V2h11v8h-4v5h5V1H2zm4 10v3l-2-1.5L6 11zm5 3v-2.983l1.969 1.483L11 14z" id="iconBg"/><path class="icon-vs-fg" d="M11 11.017l1.969 1.483L11 14v-2.983zM6 11l-2 1.5L6 14v-3zm8-9v7.311l-2-2.018-2 2-5-5-2 1.984V2h11zm-1 2.501C13 3.671 12.326 3 11.498 3S10 3.671 10 4.501C10 5.329 10.67 6 11.498 6S13 5.329 13 4.501zM10 10H9v5h1v-5zm-2 0H7v5h1v-5z" id="iconFg"/><path class="icon-vs-blue" d="M12 7.293l2 2.018V10H3V6.277l2-1.984 5 5 2-2z" id="colorAction"/><path class="icon-vs-action-orange" d="M13 4.501C13 5.329 12.326 6 11.498 6S10 5.329 10 4.501C10 3.671 10.67 3 11.498 3S13 3.671 13 4.501z" id="colorImportance"/></svg>