<svg xmlns="http://www.w3.org/2000/svg" viewBox="0 0 16 16"><style>.st0{opacity:0}.st0,.st1{fill:#f6f6f6}.st2{fill:#424242}.st3{fill:#00539c}</style><g id="outline"><path class="st0" d="M0 0h16v16H0z"/><path class="st1" d="M16 11.096a9.168 9.168 0 0 0-.247-2.092l-1.801.232c.003-.061.006-.122.007-.184.047-.53.129-3.371-3.176-4.954l-1.128 1.62c.009.009.819.815.983 1.864-.302-.712-.693-1.386-1.153-1.935.002-.049.015-.096.015-.147C9.5 3.57 7.93 2 6 2h-.084L7 .91V0H3.084L0 3.104v.828L3.087 7H4.5v2H6c.339 0 .66-.063.97-.154-.139.429-.302.903-.521 1.471-.387 1.005-.708 2.214-.153 3.561C6.479 14.327 7.44 16 8.786 16h1.043l.011-.984c.787.609 1.465.984 2.076.984h1.271L16 15.999v-.401l-1.235-.712c.955-1.064 1.218-2.468 1.235-3.639v-.151z"/></g><g id="icon_x5F_bg"><path class="st2" d="M11.823 12.096S12.959 10.419 12.959 9c0 0 .354-2.581-2.607-4 0 0 2.961 2.838 0 5.676 0-1.097-.468-2.612-1.167-3.743a3.488 3.488 0 0 1-.977 1.259 24.64 24.64 0 0 1-.827 2.484c-.376.978-.551 1.874-.16 2.824.186.455.923 1.5 1.565 1.5h1.043c-1.138-.002-1.931-2.144-1.043-3-.335.323.58 1.308.817 1.516.428.375 1.681 1.484 2.313 1.484h1.043s-2.615-1.484-1.136-2.904z"/><path class="st2" d="M14.785 9.258c0 1.419-1.481 2.838-1.481 2.838-1.481 1.42-.345 2.904-.345 2.904 2.964-1.419 1.826-5.742 1.826-5.742z"/></g><path class="st3" d="M8.5 5.5A2.5 2.5 0 0 0 6 3H3.512L5.5 1h-2L1 3.516 3.5 6h2L3.487 4H6c.827 0 1.5.673 1.5 1.5S6.827 7 6 7h-.5v1H6a2.5 2.5 0 0 0 2.5-2.5z" id="color_x5F_action"/></svg>