<?xml version="1.0" encoding="utf-8"?>
<!-- Generator: Adobe Illustrator 19.1.0, SVG Export Plug-In . SVG Version: 6.00 Build 0)  -->
<svg version="1.1" xmlns="http://www.w3.org/2000/svg" xmlns:xlink="http://www.w3.org/1999/xlink" x="0px" y="0px" width="16px"
	 height="16px" viewBox="0 0 16 16" style="enable-background:new 0 0 16 16;" xml:space="preserve">
<style type="text/css">
	.icon_x002D_canvas_x002D_transparent{opacity:0;fill:#F6F6F6;}
	.icon_x002D_vs_x002D_bg{fill:#424242;}
	.icon_x002D_vs_x002D_out{fill:#F6F6F6;}
</style>
<g id="canvas">
	<path id="XMLID_7_" class="icon_x002D_canvas_x002D_transparent" d="M16,16H0V0h16V16z"/>
</g>
<g id="outline">
	<path class="icon_x002D_vs_x002D_out" d="M13.859,3H15V0H2v3h1.019c0.158,2.05,1.283,3.901,3.039,4.998
		C4.305,9.093,3.178,10.953,3.02,13H2v3h13v-3h-1.141c-0.158-2.047-1.285-3.907-3.039-5.002C12.576,6.901,13.701,5.05,13.859,3z"/>
</g>
<g id="iconBg">
	<path id="XMLID_2_" class="icon_x002D_vs_x002D_bg" d="M14,1h-1.333h-1.063H5.275H4.212H3v1h1.036C4.021,2.166,4,2.33,4,2.5
		c0,2.106,1.19,3.923,2.929,4.846L6.922,7.359c0.172,0.156,0.305,0.324,0.305,0.656c0,0.27-0.184,0.501-0.38,0.678
		C5.152,9.629,4,11.426,4,13.5c0,0.17,0.021,0.334,0.036,0.5H3v1h1.212h1.063h6.328h1.063H14v-1h-1.157
		c0.016-0.166,0.036-0.33,0.036-0.5c0-2.074-1.152-3.871-2.847-4.807c-0.196-0.177-0.38-0.408-0.38-0.678
		c0-0.332,0.133-0.5,0.305-0.656L9.95,7.346c1.738-0.923,2.929-2.739,2.929-4.846c0-0.17-0.02-0.334-0.036-0.5H14V1z M11.879,2.5
		c0,1.595-0.835,2.987-2.086,3.787L9.522,6.526C9.486,6.559,9.447,6.588,9.413,6.622L9.41,6.625v0.001
		c-0.351,0.36-0.568,0.849-0.568,1.39c0,0.632,0.297,1.189,0.753,1.556l0.006,0.038c1.355,0.775,2.278,2.218,2.278,3.891
		c0,0.172-0.027,0.335-0.049,0.5h-1.035c-0.35-0.841-1.266-1.656-2.352-1.656c-1.085,0-2.001,0.815-2.351,1.656H5.049
		C5.027,13.835,5,13.672,5,13.5c0-1.673,0.924-3.115,2.278-3.891l0.006-0.038C7.74,9.205,8.037,8.647,8.037,8.016
		c0-0.541-0.218-1.029-0.568-1.39V6.625L7.466,6.622C7.432,6.588,7.393,6.559,7.356,6.526L7.086,6.287C5.835,5.487,5,4.095,5,2.5
		C5,2.329,5.027,2.165,5.049,2h6.781C11.852,2.165,11.879,2.329,11.879,2.5z M6.508,4h4.287c-0.319,0.879-1.154,1.51-2.144,1.51
		S6.827,4.879,6.508,4z"/>
</g>
</svg>
