<svg xmlns="http://www.w3.org/2000/svg" viewBox="0 0 16 16"><style>.st0{opacity:0}.st0,.st1{fill:#f6f6f6}.st2{fill:none}.st3{fill:#424242}.st4{fill:#f0eff1}</style><g id="outline"><path class="st0" d="M0 0h16v16H0z"/><path class="st1" d="M0 2v7h1v7h.739l1.597-1.754L4.114 16h.873l2.282-1.037L6.402 13H16V2H0zm5.626 7H7v1.275L5.626 9z"/></g><g id="icon_x5F_bg"><path class="st2" d="M9 11h5V4H9v7zm1-6h2v1h-2V5zm0 2h3v1h-3V7zm0 2h2v1h-2V9z"/><path class="st3" d="M10 9h2v1h-2zM10 7h3v1h-3zM10 5h2v1h-2zM5.955 14.459l-1.086-2.465h2.518L2 6.996v7.231l1.629-1.788L4.766 15z"/><path class="st3" d="M8 3v8.204l.857.796H15V3H8zm6 8H9V4h5v7zM1 3h6v2H1zM4.55 8H7V6H2.396z"/></g><path class="st4" d="M9 11h5V4H9v7zm1-5V5h2v1h-2zm0 2V7h3v1h-3zm0 2V9h2v1h-2z" id="icon_x5F_fg"/></svg>