<svg xmlns="http://www.w3.org/2000/svg" viewBox="0 0 16 16"><style>.st0{opacity:0}.st0,.st1{fill:#f6f6f6}.st2{fill:#424242}.st3{fill:#f0eff1}</style><g id="outline"><path class="st0" d="M0 0h16v16H0z"/><path class="st1" d="M1 0v2.196c-.271.196-.597.33-1 .337l.011.036L0 2.572v2.064l.318-.104c.273.006.491.077.682.176V15h15V0H1z"/></g><g id="icon_x5F_bg"><path class="st2" d="M4.117 1C4.721 2.369 7 2 7 2v2c0 1.014.752 1.014 1 1.014V13H6V9H4s-.012-.951-.02-1C3.979 8.049 2 8 2 8v6h13V1H4.117zM5 13H3v-2h2v2zm6 0H9V4h2v9zm3 0h-2V9h2v4z"/><path class="st2" d="M2.974 7.053s-.159-3.488 2.692-3.488l.004.001C2.817 3.566 2.968.045 2.968.045S3.127 3.533.276 3.533H.28c2.851 0 2.694 3.52 2.694 3.52zM5.684 8.262s-.095-2.061 1.59-2.061h.002c-1.686 0-1.596-2.078-1.596-2.078s.094 2.059-1.59 2.059h.002c1.683 0 1.592 2.08 1.592 2.08z"/></g><g id="icon_x5F_fg"><path class="st3" d="M3 11h2v2H3zM7 8c.002.105 0 1 0 1H6v4h2V7c-.141 0-.969.063-1 1zM12 9h2v4h-2zM9 4h2v9H9z"/></g></svg>