<svg xmlns="http://www.w3.org/2000/svg" viewBox="0 0 16 16"><style>.icon-canvas-transparent{opacity:0;fill:#f6f6f6}.icon-vs-out{fill:#f6f6f6}.icon-vs-bg{fill:#424242}.icon-vs-action-blue{fill:#00539c}</style><path class="icon-canvas-transparent" d="M16 16H0V0h16v16z" id="canvas"/><path class="icon-vs-out" d="M8.437 8.978L7.414 10H15v4H7.414l2 2H4.586l-4-4 3.18-3.18c-.051-.018-.106-.027-.155-.049a2.593 2.593 0 0 1-.893-.651 2.763 2.763 0 0 1-.541-.936A3.268 3.268 0 0 1 2 6.103c0-.426.063-.825.186-1.186.131-.385.326-.723.579-1.005.262-.29.579-.516.944-.674a2.97 2.97 0 0 1 1.181-.233c.146 0 .283.01.416.03a3.135 3.135 0 0 1 .651.169c.015.005.028.013.043.019V1h2.697v2.019h.033c.416 0 .79.104 1.11.308.21.132.386.312.542.513v-.019l.436-.297c.088-.061.209-.128.368-.2a4.296 4.296 0 0 1 .897-.262c.203-.034.379-.05.551-.05.361 0 .689.057.976.17.322.128.595.318.81.564.206.238.358.518.453.833.085.275.127.585.127.919v3.409h-2.189a2.246 2.246 0 0 1-.653.093c-.307 0-.593-.052-.849-.154a1.955 1.955 0 0 1-.708-.473 2.061 2.061 0 0 1-.229-.299 2.298 2.298 0 0 1-.672.629A2.14 2.14 0 0 1 8.583 9c-.052 0-.096-.019-.146-.022z" id="outline"/><path class="icon-vs-bg" d="M13.668 4.404a1.084 1.084 0 0 0-.424-.292 1.666 1.666 0 0 0-.608-.1c-.119 0-.241.012-.368.033a3.197 3.197 0 0 0-.672.193 1.478 1.478 0 0 0-.213.112v.758c.158-.129.341-.231.544-.309.204-.077.413-.116.627-.116.213 0 .377.062.494.183.116.124.174.321.174.593l-1.03.152a1.657 1.657 0 0 0-.525.151 1.073 1.073 0 0 0-.562.652 1.523 1.523 0 0 0-.065.456c0 .168.025.319.074.458a.986.986 0 0 0 .216.357c.093.098.21.175.352.231.137.057.295.084.476.084.229 0 .431-.052.603-.158a1.3 1.3 0 0 0 .439-.458h.014v.523H14V5.498c0-.235-.027-.446-.083-.629a1.266 1.266 0 0 0-.249-.465zM13.222 6.4c0 .129-.021.249-.059.361a.882.882 0 0 1-.165.292.81.81 0 0 1-.256.197.774.774 0 0 1-.337.071.683.683 0 0 1-.242-.04.54.54 0 0 1-.186-.112.472.472 0 0 1-.116-.17.573.573 0 0 1-.041-.216c0-.085.01-.163.027-.23a.417.417 0 0 1 .098-.178.551.551 0 0 1 .195-.131 1.34 1.34 0 0 1 .32-.077l.761-.108V6.4zM7.71 4.719h-.013V2H7v5.908h.697v-.479h.013c.044.081.095.156.151.226.057.069.119.131.192.183a.859.859 0 0 0 .53.162c.23 0 .434-.052.609-.158.176-.104.323-.25.443-.438a2.11 2.11 0 0 0 .272-.663c.062-.256.093-.532.093-.832a3.46 3.46 0 0 0-.074-.725 2.007 2.007 0 0 0-.228-.603 1.196 1.196 0 0 0-.394-.411 1.046 1.046 0 0 0-.574-.151.992.992 0 0 0-.614.195 1.205 1.205 0 0 0-.226.22 2.064 2.064 0 0 0-.18.285zm.467.081c.1-.054.21-.081.331-.081.122 0 .231.027.327.081a.71.71 0 0 1 .244.235c.066.104.116.228.15.372.034.145.052.307.052.488 0 .231-.02.436-.06.613a1.375 1.375 0 0 1-.168.44.73.73 0 0 1-.263.261.677.677 0 0 1-.888-.188.972.972 0 0 1-.154-.303 1.224 1.224 0 0 1-.057-.376v-.5c0-.167.02-.322.061-.458.04-.136.096-.254.168-.354a.76.76 0 0 1 .257-.23zM5.306 7.931a2.088 2.088 0 0 1-.57.069c-.266 0-.507-.049-.721-.144a1.57 1.57 0 0 1-.547-.398c-.15-.17-.266-.37-.347-.603A2.259 2.259 0 0 1 3 6.103c0-.317.044-.605.132-.863.088-.258.213-.477.377-.66.164-.182.363-.323.597-.424.233-.1.495-.151.784-.151.094 0 .183.006.268.019a2.227 2.227 0 0 1 .428.109c.058.021.106.045.146.066v.815a1.589 1.589 0 0 0-.378-.222 1.116 1.116 0 0 0-.437-.084 1.013 1.013 0 0 0-.787.342c-.1.112-.178.249-.234.413-.057.163-.086.35-.086.562 0 .196.025.373.076.53.05.157.122.291.217.399a.977.977 0 0 0 .344.253 1.11 1.11 0 0 0 .887-.005c.071-.029.142-.063.21-.101.068-.038.131-.08.188-.125v.771a1.686 1.686 0 0 1-.426.184z" id="iconBg"/><path class="icon-vs-action-blue" d="M9 11h5v2H5l2 2H5l-3-3 3-3h2l-2 2h4z" id="colorAction"/></svg>