<svg xmlns="http://www.w3.org/2000/svg" viewBox="0 0 16 16"><style>.st0{opacity:0}.st0,.st1{fill:#f6f6f6}.st2{fill:#424242}.st3{fill:#f0eff1}</style><g id="outline"><path class="st0" d="M0 0h16v16H0z"/><path class="st1" d="M12.023 0H5.964C5.012 0 4 .701 4 2v6.586l-4 4v.828L2.586 16h6.828l2-2h2.551c1.442 0 2.007-1.175 2.035-2V3.552L12.023 0z"/></g><g id="icon_x5F_bg"><circle class="st2" cx="6.042" cy="13" r="2"/><path class="st2" d="M9 11v1l1 1-1 1v1l2-2-2-2zm-6 4v-1l-1-1 1-1v-1l-2 2 2 2z"/><path class="st2" d="M11.641 1H5.964S5 1 5 2v7h1V2h5v3h3v7h-2v1h1.965c1 0 1.035-1 1.035-1V4l-3.359-3z"/></g><path class="st3" d="M11 5V2H6v8h2V8.586L11.414 12H14V5z" id="icon_x5F_fg"/></svg>