<svg xmlns="http://www.w3.org/2000/svg" viewBox="0 0 16 16"><style>.st0{opacity:0}.st0,.st1{fill:#f6f6f6}.st2{fill:#424242}</style><g id="outline"><path class="st0" d="M0 0h16v16H0z"/><path class="st1" d="M12 3.586l-1.457 1.456.397-1.587-3.395-.85L5.84 9.426 4.414 8l2-2L4 3.586l-4 4v.828l4 4 1.457-1.457-.397 1.588 3.395.849 1.705-6.82L11.586 8l-2 2L12 12.414l4-4v-.828z"/></g><g id="icon_x5F_bg"><path class="st2" d="M12 5l-1 1 2 2-2 2 1 1 3-3zM4 5L1 8l3 3 1-1-2-2 2-2z"/><path transform="rotate(-75.983 8 8)" class="st2" d="M3.877 7.25h8.246v1.5H3.877z"/></g></svg>