<svg xmlns="http://www.w3.org/2000/svg" viewBox="0 0 16 16"><style>.st0{opacity:0}.st0,.st1{fill:#f6f6f6}.st2{fill:#424242}.st3{fill:#f0eff1}</style><g id="outline"><path class="st0" d="M0 0h16v16H0z"/><path class="st1" d="M13 6.762V1H1v12h5.762a4.499 4.499 0 0 0 3.738 2c2.481 0 4.5-2.019 4.5-4.5 0-1.557-.796-2.93-2-3.738z"/></g><g id="icon_x5F_bg"><circle class="st2" cx="10.5" cy="10.5" r="3.5"/><path class="st2" d="M2 2v10h4.276v-.001a4.564 4.564 0 0 1-.197-.712c-.018-.093-.016-.192-.029-.287H3V3h8v3.05c.095.012.194.011.287.029.246.044.482.114.712.197H12V2H2z"/></g><path class="st3" d="M6 10.5C6 8.019 8.019 6 10.5 6c.171 0 .334.032.5.051V3H3v8h3.051c-.019-.166-.051-.329-.051-.5z" id="icon_x5F_fg"/></svg>