<svg xmlns="http://www.w3.org/2000/svg" viewBox="0 0 16 16"><style>.st0{opacity:0}.st0,.st1{fill:#f6f6f6}.st2{fill:#424242}.st3{fill:#e51400}.st4{fill:#fff}</style><g id="outline"><path class="st0" d="M0 0h16v16H0z"/><path class="st1" d="M14.914 8.585L16 7.513V5.312L10.676 0 8.014 2.657 5.334 0 0 5.312v2.201l5.331 5.312 1.696-1.686c-.01.122-.032.238-.032.362 0 2.485 2.017 4.5 4.502 4.5a4.506 4.506 0 0 0 4.507-4.5 4.446 4.446 0 0 0-1.09-2.916z"/></g><g id="icon_x5F_bg"><path class="st2" d="M5.351 10.319L1.443 6.412l3.908-3.907 1.252 1.25-2.657 2.657 2.657 2.657zM11.479 7.002L11.5 7c.721 0 1.393.186 1.997.487l1.075-1.075-3.908-3.907-1.252 1.25 2.657 2.657-.59.59z"/></g><path class="st3" d="M11.5 8a3.5 3.5 0 1 0 0 7 3.5 3.5 0 0 0 0-7zm1.854 4.646l-.707.707-1.147-1.146-1.146 1.146-.707-.707 1.146-1.146-1.146-1.146.707-.707 1.146 1.146 1.146-1.146.707.707-1.146 1.146 1.147 1.146z" id="not_x5F_bg"/><path class="st4" d="M13.354 10.354l-.708-.708-1.146 1.147-1.146-1.147-.708.708 1.147 1.146-1.147 1.146.708.708 1.146-1.147 1.146 1.147.708-.708-1.147-1.146z" id="not_x5F_fg"/></svg>