<svg xmlns="http://www.w3.org/2000/svg" viewBox="0 0 16 16"><style>.st0{opacity:0}.st0,.st1{fill:#f6f6f6}.st2{fill:#424242}</style><g id="outline"><path class="st0" d="M0 0h16v16H0z"/><path class="st1" d="M16 4V1H0v3h3v1.086l-.354-.354L0 7.379v2.242L2.379 12H0v3h16v-3h-2.379L16 9.621V7.379l-2.646-2.646-1.105 1.104-.044-.012c-.131-.054-.451-.059-.625-.082-.106-.012-.211.049-.322.049-.18-.001-.362.208-.547.208H8v.11c-.099-.069-.194-.145-.303-.201a2.732 2.732 0 0 0-1.256-.282c-.143 0-.441.01-.441.029V4h10zm-5 4.802c0-.093.266-.175.275-.245l.961.585-1.004 1.004L13.086 12H11V8.802zm-3.465 2.999c.167-.081.319-.183.465-.294V12H6.954c.203-.046.398-.111.581-.199z"/></g><g id="icon_x5F_bg"><path class="st2" d="M1 2h14v1H1zM1 13h14v1H1zM2.646 10.854L.293 8.5l2.353-2.354.708.708L1.707 8.5l1.647 1.646zM13.354 10.854l-.708-.708L14.293 8.5l-1.647-1.646.708-.708L15.707 8.5zM8.206 8.74c0 .334-.042.645-.126.93a2.168 2.168 0 0 1-.373.742 1.738 1.738 0 0 1-.609.489 1.898 1.898 0 0 1-.835.176 1.54 1.54 0 0 1-.399-.049 1.24 1.24 0 0 1-.59-.338 1.616 1.616 0 0 1-.207-.251h-.019v.534h-.957V4.692h.957V7.41h.017c.075-.116.158-.221.248-.317a1.519 1.519 0 0 1 .69-.408c.139-.039.293-.059.462-.059.304 0 .565.057.784.17.22.113.4.267.542.46a2 2 0 0 1 .313.674c.068.256.102.526.102.81zm-.987-.016c0-.202-.023-.383-.07-.545a1.198 1.198 0 0 0-.207-.415.92.92 0 0 0-.334-.263 1.068 1.068 0 0 0-.449-.091c-.166 0-.317.031-.454.091a1.01 1.01 0 0 0-.351.257 1.192 1.192 0 0 0-.23.396 1.486 1.486 0 0 0-.084.512v.559c0 .149.026.289.077.418.051.132.123.243.214.34a.974.974 0 0 0 .325.228 1.143 1.143 0 0 0 .891-.016.986.986 0 0 0 .362-.295c.1-.13.176-.293.23-.491.054-.198.08-.426.08-.685zM11.538 7.609a1.353 1.353 0 0 0-.451-.092.798.798 0 0 0-.661.339 1.258 1.258 0 0 0-.197.404 1.905 1.905 0 0 0-.072.541v2.171H9.2V6.731h.956v.824h.017c.052-.157.117-.293.196-.406a1.26 1.26 0 0 1 .261-.28 1 1 0 0 1 .628-.213c.072 0 .141.004.209.012a.764.764 0 0 1 .177.045v.949a.613.613 0 0 0-.106-.053z"/></g></svg>