<svg xmlns="http://www.w3.org/2000/svg" viewBox="0 0 16 16"><style>.st0{opacity:0}.st0,.st1{fill:#f6f6f6}.st2{fill:#424242}</style><g id="outline"><path class="st0" d="M0 0h16v16H0z"/><path class="st1" d="M16 9.388v-.825l-3-2.92V5c0-1.299-1.03-2-2-2h-1V2H6v3H4v-.012L0 8.563v.827l4 3.638v-1.871C5.105 12.552 6.876 13 8 13c1.991 0 3.244-.83 3.998-1.874l.217 2.173L16 9.388zM10 8c0 1.826-1.537 1.992-2 2-1.031 0-1.533-.49-1.776-1H7V5h2v1h1v2z"/></g><g id="icon_x5F_bg"><path class="st2" d="M7 3h2v1H7zM1 8.984l2 2.063V7.038zM14.998 8.984l-2 2.063V7.038zM11 4h-1v1h1v3c0 3-3 3-3 3-3 0-3-3-3-3h1V6H5v1S4 7 4 8c0 4 4 4 4 4 4 0 4-4 4-4V5c0-1-1-1-1-1z"/></g></svg>