<svg xmlns="http://www.w3.org/2000/svg" viewBox="0 0 16 16"><style>.st0{opacity:0}.st0,.st1{fill:#f6f6f6}.st2{fill:#424242}</style><g id="outline"><path class="st0" d="M0 0h16v16H0z"/><path class="st1" d="M10.203 9.156l.676.844H2v3h8.879l-.676.844 2.344 1.874 3.374-4.218-3.374-4.218-2.344 1.874zM11 12.849v-2.697l1.079 1.349L11 12.849zM8 3V0H5v1.52L3.453.282.079 4.5l3.374 4.218L5 7.48V9h3V6h8V3H8zm-3 .151v2.698L3.921 4.5 5 3.151z"/></g><path class="st2" d="M3.609 7.313L1.36 4.5l2.25-2.813.781.625L2.64 4.5l1.75 2.188-.781.625zm8 2l1.75 2.188-1.75 2.188.781.625 2.25-2.813-2.25-2.813-.781.625zM7 1H6v4h1V1zm0 5H6v2h1V6zm1-1h3V4H8v1zm4-1v1h3V4h-3zm-5 8h3v-1H7v1zm-4 0h3v-1H3v1z" id="icon_x5F_bg"/></svg>