<svg xmlns="http://www.w3.org/2000/svg" viewBox="0 0 16 16"><style>.st0{opacity:0}.st0,.st1{fill:#f6f6f6}.st2{fill:#424242}.st3{fill:#f0eff1}</style><g id="outline"><path class="st0" d="M0 0h16v16H0z"/><path class="st1" d="M10 3.745c-.7 0-1.371.121-2 .333V4L4 0 0 4v4.828l2-2V9h1.836a6.196 6.196 0 0 0-.086.989c0 .184.01.354.026.528.014.16.037.295.064.468.422 2.539 2.363 4.492 4.835 5.015h3.044a6.205 6.205 0 0 0 4.28-4.238V8.278A6.21 6.21 0 0 0 10 3.745z"/></g><g id="icon_x5F_bg"><path class="st2" d="M5 8V4.414l2 2v-2l-3-3-3 3v2l2-2V8z"/><path class="st2" d="M15.241 9.822A5.246 5.246 0 0 0 10 4.75a5.24 5.24 0 0 0-2 .399v1.044c.143-.075.286-.15.438-.209-.167.418-.314.901-.438 1.42v1.424L6.796 7.624c-.111-.029-.228-.056-.334-.086.034-.048.076-.09.111-.137L6 6.828v1.597c.02-.049.028-.104.049-.152.515.151 1.087.295 1.726.404a9.494 9.494 0 0 0-.058.944c-.005.4.025.812.073 1.227a14.72 14.72 0 0 1-2.087-.545A3.817 3.817 0 0 1 5.688 10c0-.346.051-.678.128-1h-.965a5.225 5.225 0 0 0-.101 1 5.205 5.205 0 0 0 .075.851l.002.014a5.245 5.245 0 0 0 4.724 4.363 5.094 5.094 0 0 0 .963-.003A5.25 5.25 0 0 0 15.25 10c0-.061-.008-.118-.009-.178zm-1.68-2.252c-.515.177-1 .3-1.463.372a8.766 8.766 0 0 0-.688-2.013 4.302 4.302 0 0 1 2.151 1.641zm-4.11-1.843c.18-.024.362-.039.549-.039.124 0 .245.008.366.019.351.608.708 1.384.915 2.33-.428.029-.85.033-1.277.029A12.699 12.699 0 0 1 8.7 7.982c.175-.911.464-1.66.751-2.255zm-.867 3.066c.452.051.923.085 1.412.09l.302.002c.366 0 .737-.012 1.116-.04.028.254.049.513.053.784.004.434-.052.902-.157 1.402-.438.031-.868.037-1.306.034a12.92 12.92 0 0 1-1.378-.092 9.257 9.257 0 0 1-.093-1.345 9.7 9.7 0 0 1 .051-.835zm-2.719 2.426c.598.184 1.283.359 2.058.483.154.785.406 1.587.736 2.396a4.321 4.321 0 0 1-2.794-2.879zm4.209 3.09c-.025.001-.049.004-.074.004a4.29 4.29 0 0 1-.378-.019 12.87 12.87 0 0 1-.846-2.479c.393.039.8.064 1.22.068.101.002.201.002.302.002.261 0 .524-.008.79-.021-.229.743-.569 1.558-1.014 2.445zm.964-.127c.409-.86.725-1.661.929-2.395a9.548 9.548 0 0 0 2.164-.551 4.318 4.318 0 0 1-3.093 2.946zm3.261-3.902a8.806 8.806 0 0 1-2.136.647 6.907 6.907 0 0 0 .063-2.174 9.373 9.373 0 0 0 1.737-.453 4.29 4.29 0 0 1 .349 1.699c.001.096-.007.189-.013.281z"/></g><g id="icon_x5F_fg"><path class="st3" d="M12.227 8.754a9.373 9.373 0 0 0 1.737-.453A4.29 4.29 0 0 1 14.313 10c0 .095-.008.188-.014.28a8.806 8.806 0 0 1-2.136.647 6.907 6.907 0 0 0 .064-2.173zM13.561 7.57c-.515.177-1 .3-1.463.372a8.766 8.766 0 0 0-.688-2.013 4.302 4.302 0 0 1 2.151 1.641zM10 14.313a4.29 4.29 0 0 1-.378-.019 12.87 12.87 0 0 1-.846-2.479c.393.039.8.064 1.22.068.101.002.201.002.302.002.261 0 .524-.008.79-.021-.229.743-.568 1.558-1.014 2.444-.025.002-.049.005-.074.005zM10.004 11.065a12.92 12.92 0 0 1-1.378-.092 9.257 9.257 0 0 1-.093-1.345 9.7 9.7 0 0 1 .051-.835c.452.051.923.085 1.412.09l.302.002c.366 0 .737-.012 1.116-.04.028.254.049.513.053.784.004.434-.052.902-.157 1.402-.439.032-.869.037-1.306.034zM10 5.688c.124 0 .245.008.366.019.351.608.708 1.384.915 2.33-.428.029-.85.033-1.277.029A12.699 12.699 0 0 1 8.7 7.982a9.12 9.12 0 0 1 .751-2.256c.18-.023.362-.038.549-.038zM5.865 11.219c.598.184 1.283.359 2.058.483.154.785.406 1.587.736 2.396a4.321 4.321 0 0 1-2.794-2.879zM11.038 14.182c.409-.86.725-1.661.929-2.395a9.548 9.548 0 0 0 2.164-.551 4.318 4.318 0 0 1-3.093 2.946zM8 6.193v1.211c.124-.519.271-1.002.438-1.42-.152.059-.295.134-.438.209zM6.573 7.401c-.035.047-.077.089-.111.137.106.03.223.057.334.086l-.223-.223zM7.774 8.677a14.897 14.897 0 0 1-1.725-.404c-.021.049-.029.103-.049.152V9h-.185a4.28 4.28 0 0 0-.128 1c0 .102.008.202.016.303.583.197 1.28.398 2.087.545a9.68 9.68 0 0 1-.073-1.227c.003-.328.025-.64.057-.944z"/></g></svg>