<svg xmlns="http://www.w3.org/2000/svg" viewBox="0 0 16 16"><style>.st0{opacity:0}.st0,.st1{fill:#f6f6f6}.st2{fill:#424242}.st3{fill:#f0eff1}</style><g id="outline"><path class="st0" d="M0 0h16v16H0z"/><path class="st1" d="M11 11.774a6.217 6.217 0 0 0 3.352-5.519c0-.052-.003-.104-.009-.212A6.222 6.222 0 0 0 8.102.005a6.257 6.257 0 0 0-6.25 6.25 5.938 5.938 0 0 0 .09 1.029A6.184 6.184 0 0 0 5 11.668V12H3v3h3v1h4v-1h3v-3h-2v-.226z"/></g><path class="st2" d="M10 12H9v-.594c2.468-.431 4.352-2.56 4.352-5.151 0-.06-.008-.118-.008-.178a5.248 5.248 0 0 0-10.492.178 5.205 5.205 0 0 0 .075.851l.002.014A5.237 5.237 0 0 0 7 11.37V12H6v1H4v1h3v1h2v-1h3v-1h-2v-1zm-.859-1.562c.408-.861.725-1.662.928-2.396a9.548 9.548 0 0 0 2.164-.551 4.323 4.323 0 0 1-3.092 2.947zm2.925-5.881c.223.521.348 1.095.348 1.699 0 .095-.008.187-.014.28a8.813 8.813 0 0 1-2.135.647 6.902 6.902 0 0 0 .062-2.174 9.463 9.463 0 0 0 1.739-.452zm-.402-.732c-.516.177-1 .3-1.463.372a8.813 8.813 0 0 0-.689-2.013 4.322 4.322 0 0 1 2.152 1.641zM7.553 1.982c.18-.023.362-.039.549-.039.124 0 .245.008.366.019.351.608.708 1.384.915 2.33-.427.029-.849.033-1.277.029a12.703 12.703 0 0 1-1.304-.083 9.12 9.12 0 0 1 .751-2.256zm-.867 3.066A13.551 13.551 0 0 0 8.4 5.14c.366 0 .737-.012 1.116-.04.029.254.049.513.053.785a6.58 6.58 0 0 1-.156 1.402c-.44.031-.87.037-1.307.034a12.92 12.92 0 0 1-1.378-.092 9.257 9.257 0 0 1-.093-1.345c.004-.289.024-.566.051-.836zM6.54 2.239a9.92 9.92 0 0 0-.549 1.882 14.216 14.216 0 0 1-1.427-.328A4.32 4.32 0 0 1 6.54 2.239zM3.79 6.255c0-.614.131-1.197.361-1.727.515.152 1.087.296 1.725.405a9.79 9.79 0 0 0-.057.943c-.005.401.025.812.073 1.228a14.71 14.71 0 0 1-2.087-.546 3.794 3.794 0 0 1-.015-.303zm.177 1.219a15.18 15.18 0 0 0 2.058.484c.154.785.406 1.587.736 2.396a4.323 4.323 0 0 1-2.794-2.88zm4.131.664c.101.002.201.002.302.002.261 0 .524-.008.79-.021-.228.743-.568 1.558-1.013 2.445-.025 0-.049.004-.074.004-.127 0-.254-.008-.378-.02a12.823 12.823 0 0 1-.847-2.478c.393.039.8.064 1.22.068z" id="icon_x5F_bg"/><g id="icon_x5F_fg"><path class="st3" d="M10.328 5.009c.545-.085 1.058-.231 1.674-.453.223.521.4 1.095.4 1.699 0 .095.006.187 0 .28a8.813 8.813 0 0 1-2.137.647 6.902 6.902 0 0 0 .063-2.173zM11.664 3.825c-.516.177-1 .3-1.463.372a8.813 8.813 0 0 0-.689-2.013 4.322 4.322 0 0 1 2.152 1.641zM8.102 10.568c-.127 0-.254-.008-.378-.02a12.885 12.885 0 0 1-.846-2.478c.393.039.8.064 1.22.068.101.002.201.002.302.002.261 0 .524-.008.79-.021-.228.743-.568 1.558-1.013 2.445-.026 0-.05.004-.075.004zM8.102 7.355c-.477-.005-.958-.074-1.4-.126a9.174 9.174 0 0 1-.067-1.345c.004-.29.02-.566.047-.836.452.052.927.102 1.416.107H8.4c.366 0 .737-.027 1.116-.055.029.254.049.513.053.785a6.58 6.58 0 0 1-.156 1.402c-.44.031-.873.071-1.311.068zM8.102 1.943c.124 0 .245.008.366.019.351.608.707 1.384.914 2.33-.428.029-.852.067-1.28.063a12.279 12.279 0 0 1-1.3-.1 9.271 9.271 0 0 1 .751-2.273c.18-.023.363-.039.549-.039zM6.54 2.239a9.92 9.92 0 0 0-.549 1.882 14.216 14.216 0 0 1-1.427-.328A4.32 4.32 0 0 1 6.54 2.239zM3.79 6.255c0-.614.131-1.197.361-1.727.515.152 1.087.296 1.725.405a9.79 9.79 0 0 0-.057.943c-.005.401.025.812.073 1.228a14.71 14.71 0 0 1-2.087-.546 3.794 3.794 0 0 1-.015-.303zM4.002 7.474c.598.184 1.226.359 2 .483.154.785.429 1.587.759 2.396-1.343-.439-2.359-1.519-2.759-2.879zM9.102 10.436c.41-.861.767-1.66.971-2.394.67-.086 1.379-.292 2.16-.586a4.417 4.417 0 0 1-3.131 2.98z"/></g></svg>