<svg xmlns="http://www.w3.org/2000/svg" width="16" height="16"><style type="text/css">.icon-canvas-transparent{opacity:0;fill:#F6F6F6;} .icon-vs-out{fill:#F6F6F6;} .icon-vs-bg{fill:#424242;} .icon-vs-fg{fill:#F0EFF1;}</style><path class="icon-canvas-transparent" d="M16 16h-16v-16h16v16z" id="canvas"/><path class="icon-vs-out" d="M11.352 5.083c.555.578 1.327.917 2.148.917 1.044 0 1.962-.537 2.5-1.348v-3.304c-.538-.811-1.456-1.348-2.5-1.348-1.363 0-2.522.921-2.883 2.175l-.86.215c-.896-1.475-2.486-2.39-4.257-2.39-2.757 0-5 2.243-5 5 0 1.77.915 3.359 2.39 4.256l-.216.861c-1.253.361-2.174 1.52-2.174 2.883 0 1.654 1.346 3 3 3s3-1.346 3-3c0-.82-.338-1.592-.917-2.148l.215-.86c.702-.044 1.381-.236 2.005-.567l1.802 1.802c-.069.252-.105.512-.105.773 0 1.654 1.346 3 3 3s3-1.346 3-3-1.346-3-3-3c-.261 0-.521.036-.773.105l-1.802-1.802c.331-.624.523-1.303.566-2.005l.861-.215z" id="outline"/><path class="icon-vs-bg" d="M13.5 5c1.105 0 2-.896 2-2 0-1.105-.895-2-2-2-1.1 0-1.99.887-1.998 1.984l-2.281.57c-.58-1.492-2.024-2.554-3.721-2.554-2.209 0-4 1.791-4 4 0 1.697 1.063 3.139 2.555 3.719l-.57 2.283c-1.098.008-1.985.898-1.985 1.998 0 1.105.895 2 2 2s2-.895 2-2c0-.758-.426-1.41-1.047-1.748l.574-2.301c.157.02.311.049.473.049.924 0 1.764-.326 2.441-.852l2.842 2.842c-.176.297-.283.639-.283 1.01 0 1.105.895 2 2 2s2-.895 2-2-.895-2-2-2c-.371 0-.713.107-1.01.283l-2.842-2.842c.526-.677.852-1.517.852-2.441 0-.162-.029-.316-.047-.473l2.299-.576c.338.623.99 1.049 1.748 1.049zm-8 2c-1.105 0-2-.895-2-2s.895-2 2-2 2 .895 2 2-.895 2-2 2z" id="iconBg"/><path class="icon-vs-fg" d="M5.5 7c-1.105 0-2-.895-2-2s.895-2 2-2 2 .895 2 2-.895 2-2 2z" id="iconFg"/></svg>