<svg id="Layer_1" xmlns="http://www.w3.org/2000/svg" viewBox="0 0 16 16"><style>.st0{fill:#f6f6f6}.st1{fill:#424242}</style><path class="st0" d="M0 0h16v16H0z"/><path class="st1" d="M1 10.999h1V12H1zM1 9h1v1H1zM1 7h1v1H1zM1 5h1v1H1zM1 3h1v1H1zM1 1h2v1H1zM8 1h1v1H8zM6 1h1v1H6zM4 1h1.001v1H4zM10 1h1v1h-1zM12 1h1v1h-1zM14 .999h1V3h-1zM1 13h1v2H1zM3 14h1v1H3zM5 14h1v1H5zM7 14h1v1H7zM9 14h1v1H9zM14 4h1v1h-1zM14 6h1v1h-1zM14 8h1v1h-1zM14 10h1v1h-1zM14 12h1v1h-1zM11 14h1v1h-1zM13 14h2.001v1H13zM3 9h5V5H3v4zm4-1H4V6h3v2zM3 10h8v1H3zM9 7h4v1H9zM9 5h4v1H9z"/></svg>