<svg xmlns="http://www.w3.org/2000/svg" viewBox="0 0 16 16"><style>.icon-canvas-transparent{opacity:0;fill:#f6f6f6}.icon-vs-out{fill:#f6f6f6}.icon-vs-bg{fill:#424242}.icon-white{fill:#fff}.icon-vs-action-blue{fill:#00539c}</style><path class="icon-canvas-transparent" d="M16 16H0V0h16v16z" id="canvas"/><path class="icon-vs-out" d="M11.697 11.752c.182.388.303.807.303 1.248 0 1.654-1.346 3-3 3H5a3.005 3.005 0 0 1-2.844-2.044l-.62-.349A3 3 0 0 1 0 11c0-1.654 1.346-3 3-3h1.35A5.976 5.976 0 0 1 4 6c0-3.309 2.691-6 6-6s6 2.691 6 6c0 2.719-1.819 5.018-4.303 5.752z" id="outline"/><path class="icon-white" d="M11 3v3.564l1.22-1.219 1.06 1.06L10 9.686 6.72 6.405l1.06-1.06L9 6.564V3z" id="iconFg"/><g id="iconBg"><path class="icon-vs-bg" d="M11 13c0 1.102-.898 2-2 2H5c-1.103 0-2-.898-2-2 0-1.103.897-2 2-2h1l-1 1a1.001 1.001 0 0 0 0 2h4a1 1 0 0 0 1-1 .995.995 0 0 0-.302-.713 2.96 2.96 0 0 0 .275-1.024c.61.344 1.027.989 1.027 1.737zm-4 0c1.102 0 2-.897 2-2s-.898-2-2-2H3c-1.103 0-2 .897-2 2 0 .748.417 1.393 1.027 1.736a2.96 2.96 0 0 1 .275-1.024A.99.99 0 0 1 2 11c0-.551.449-1 1-1h4a1.001 1.001 0 0 1 0 2l-1 1h1z"/><path class="icon-vs-action-blue" d="M10 1a5 5 0 0 0-5 5c0 .712.154 1.387.422 2H7c1.32 0 2.443.856 2.844 2.043l.62.35c.235.132.448.294.635.477A4.996 4.996 0 0 0 10 1zm1 2v3.564l1.22-1.22 1.061 1.061L10 9.686l-3.28-3.28 1.06-1.061L9 6.564V3h2z"/></g></svg>