<svg xmlns="http://www.w3.org/2000/svg" viewBox="0 0 16 16"><style>.st0{opacity:0}.st0,.st1{fill:#f6f6f6}.st2{fill:#424242}.st3{fill:#f0eff1}</style><g id="outline"><path class="st0" d="M0 0h16v16H0z"/><path class="st1" d="M0 1h16v14H0z"/></g><path class="st2" d="M1 2v12h14V2H1zm13 11H2V5h12v8zM3 6h2v2H3V6zm4 2h2V6H7v2zm4 0h2V6h-2v2zm-8 4h2v-2H3v2zm4 0h2v-2H7v2zm4 0h2v-2h-2v2z" id="icon_x5F_bg"/><path class="st3" d="M2 5v8h12V5H2zm3 7H3v-2h2v2zm0-4H3V6h2v2zm4 4H7v-2h2v2zm0-4H7V6h2v2zm4 4h-2v-2h2v2zm0-4h-2V6h2v2z" id="icon_x5F_fg"/></svg>