<svg xmlns="http://www.w3.org/2000/svg" viewBox="0 0 16 16"><style>.st0{opacity:0}.st0,.st1{fill:#f6f6f6}.st2{fill:#424242}.st3{fill:#f0eff1}</style><g id="outline"><path class="st0" d="M0 0h16v16H0z"/><path class="st1" d="M1 1h15v14H1z"/></g><path class="st2" d="M5 11H4v-1h1v1zm8-5h-2v2h2V6zM5 6H4v1h1V6zm8 4h-2v2h2v-2zM5 8H4v1h1V8zm5-2H8v2h2V6zm5-4v12H2V2h13zM6 5H3v8h3V5zm8 0H7v8h7V5zm-4 5H8v2h2v-2z" id="icon_x5F_bg"/><path class="st3" d="M3 5v8h3V5H3zm2 6H4v-1h1v1zm0-2H4V8h1v1zm0-2H4V6h1v1zm2-2v8h7V5H7zm3 7H8v-2h2v2zm0-4H8V6h2v2zm3 4h-2v-2h2v2zm0-4h-2V6h2v2z" id="icon_x5F_fg"/></svg>