<svg xmlns="http://www.w3.org/2000/svg" viewBox="0 0 16 16"><style>.st0{opacity:0}.st0,.st1{fill:#f6f6f6}.st2{fill:#424242}.st3{fill:#f0eff1}</style><g id="outline"><path class="st0" d="M0 0h16v16H0z"/><path class="st1" d="M15 0H1v5H0v11h6v-1h9V0z"/></g><g id="icon_x5F_bg"><path class="st2" d="M1 6v9h4V6H1zm3 8H2v-1h2v1zm0-2H2v-1h2v1zm0-3H2V7h2v2zM6 4v2h5V4z"/><path class="st2" d="M2 1v1h1v1H2v1h1v1h1V2h9v11H6v1h8V1z"/></g><g id="icon_x5F_fg"><path class="st3" d="M4 14H2v-1h2v1zm0-3H2v1h2v-1zm0-4H2v2h2V7zM4 2v3h2V4h5v2H6v7h7V2z"/></g></svg>