<svg xmlns="http://www.w3.org/2000/svg" viewBox="0 0 16 16"><style>.st0{opacity:0}.st0,.st1{fill:#f6f6f6}.st2{fill:#424242}.st3{fill:#f0eff1}</style><g id="outline"><path class="st0" d="M0 0h16v16H0z"/><path class="st1" d="M0 0h16v15H0z"/></g><g id="icon_x5F_bg"><path class="st2" d="M1 1v13h14V1H1zm13 12H2V4h12v9z"/><path class="st2" d="M3 5h4v7H3zM8 5h5v1H8zM8 7h4v1H8zM8 11h4v1H8zM8 9h5v1H8z"/></g><path class="st3" d="M2 4v9h12V4H2zm6 3h4v1H8V7zm-1 5H3V5h4v7zm5 0H8v-1h4v1zm1-2H8V9h5v1zm0-4H8V5h5v1z" id="icon_x5F_fg"/></svg>