<svg xmlns="http://www.w3.org/2000/svg" viewBox="0 0 16 16"><style>.st0{opacity:0}.st0,.st1{fill:#f6f6f6}.st2{fill:#424242}</style><g id="outline"><path class="st0" d="M0 0h16v16H0z"/><path class="st1" d="M9 5.521L7.074 6.623l-.115-.263-.14.308-2.425-1.53.066-.085-.068.009-1.557 3.89L.05 7.835 3.165.049l2.744 1.1.975-.56.102.229.108-.25 2.499 1.458-.115.15.146-.019V3H14v3H9v-.479zM2 13h5v-3H2v3zm11.165-5.951l-.75 1.874-2.321-1.354-.108.25-.102-.23-2.51 1.441.111.146-.108-.014v2.901l.083-.011-.065.085 2.425 1.53.14-.308.115.263.598-.342-.622 1.554 2.785 1.116 3.115-7.786-2.786-1.115z"/></g><g id="icon_x5F_bg"><path class="st2" d="M10.243 10.774l.878 1.097-.576.33-.559-1.281h-.018l-.585 1.29-.522-.329.869-1.116v-.028l-1.353.183v-.621l1.345.173v-.018l-.861-1.125.558-.32.567 1.281h.019L10.564 9l.548.32-.869 1.143v.018l1.38-.182v.621l-1.38-.173zM10 4h3v1h-3zM3 11h3v1H3z"/><path transform="rotate(-68.191 3 4.5)" class="st2" d="M-.193 4h6.386v1H-.193z"/><path class="st2" d="M7.243 3.747l1.38.173v-.621l-1.38.182v-.018l.869-1.143L7.563 2l-.558 1.29h-.019l-.567-1.281-.558.32.861 1.125v.018l-1.345-.173v.621l1.353-.183v.028l-.869 1.116.522.329.585-1.29h.018l.559 1.281.576-.33-.878-1.097z"/><path transform="rotate(-68.191 13.001 11.5)" class="st2" d="M9.807 11h6.386v1H9.807z"/></g></svg>