<svg xmlns="http://www.w3.org/2000/svg" width="16" height="16"><style type="text/css">.icon-canvas-transparent{opacity:0;fill:#F6F6F6;} .icon-vs-out{fill:#F6F6F6;} .icon-vs-bg{fill:#424242;} .icon-vs-fg{fill:#F0EFF1;}</style><path class="icon-canvas-transparent" d="M16 16h-16v-16h16v16z" id="canvas"/><path class="icon-vs-out" d="M16 4v12h-12v-5.586l-2 2-2-2v-.828l3.35-3.35c-.23-.548-.35-1.137-.35-1.736 0-2.481 2.019-4.5 4.5-4.5 2.31 0 4.197 1.756 4.45 4h4.05z" id="outline"/><path class="icon-vs-bg" d="M12 9h-2v-.762c.489-.328.91-.749 1.238-1.238h.762v2zm3-4v10h-10v-5.586l.764-.764.236.073v1.361l1.024-1.132c.158.017.315.048.476.048.434 0 .846-.081 1.244-.197l1.756 2.197 2-1 1.5 1v-5h-2.276c.114-.319.187-.653.226-1h3.05zm-1 8l-1.5-1.549-2 1.549-2.5-3.126-2 2.21v1.916h8v-1zm-3-8.5c0 1.933-1.567 3.5-3.5 3.5-.711 0-1.369-.215-1.922-.578l-3.578 3.578-1-1 3.578-3.578c-.363-.553-.578-1.211-.578-1.922 0-1.933 1.567-3.5 3.5-3.5s3.5 1.567 3.5 3.5zm-1 0c0-1.381-1.119-2.5-2.5-2.5s-2.5 1.119-2.5 2.5 1.119 2.5 2.5 2.5 2.5-1.119 2.5-2.5z" id="iconBg"/><g id="iconFg"><path class="icon-vs-fg" d="M6 8.723v1.361l1.024-1.132c-.351-.037-.693-.111-1.024-.229z"/><path class="icon-vs-fg" d="M14 6v5l-1.5-1-2 1-1.756-2.197c.449-.13.876-.31 1.256-.565v.762h2v-2h-.762c.206-.307.359-.647.485-1h2.277zm-3.5 7l-2.5-3.126-2 2.21v1.916h8v-1l-1.5-1.549-2 1.549zm-3-6c-1.381 0-2.5-1.119-2.5-2.5s1.119-2.5 2.5-2.5 2.5 1.119 2.5 2.5-1.119 2.5-2.5 2.5z"/></g></svg>