<svg xmlns="http://www.w3.org/2000/svg" viewBox="0 0 16 16"><style>.icon-canvas-transparent{opacity:0;fill:#f6f6f6}.icon-vs-out{fill:#f6f6f6}.icon-vs-bg{fill:#424242}.icon-vs-fg{fill:#f0eff1}.icon-vs-action-orange{fill:#c27d1a}.icon-vs-blue{fill:#1ba1e2}.st0{display:none}.st1{display:inline;fill:#f0eff1}</style><path class="icon-canvas-transparent" d="M0 0h16v16H0z" id="canvas"/><path class="icon-vs-out" d="M2 3.001V1h13v13h-2v1H1V3.001h1z" id="outline"/><path class="icon-vs-bg" d="M14 13h-1V3H3V2h11M2 4v6l1-1.042V5h8v5.2l1 .8V4H2z" id="iconBg"/><g id="iconFg" class="st0"><path class="st1" d="M3 5v3.969L5 6.75l2.719 3.547L9.5 8.906l1.5.985V5H3zm5.195 3.391a1.196 1.196 0 1 1 .002-2.392 1.196 1.196 0 0 1-.002 2.392z"/></g><g id="colorImportance"><circle class="icon-vs-action-orange" cx="8.195" cy="7.195" r="1.195"/><path class="icon-vs-blue" d="M5 6.873l2.688 3.486L9.5 9l2.5 2v3H2v-4z"/></g></svg>