<svg xmlns="http://www.w3.org/2000/svg" viewBox="0 0 16 16"><style>.icon-canvas-transparent{opacity:0;fill:#f6f6f6}.icon-vs-out{fill:#f6f6f6}.icon-vs-bg{fill:#424242}.icon-vs-blue{fill:#1ba1e2}.icon-vs-action-orange{fill:#c27d1a}.st0{fill:none}.st1{display:none}.st2{display:inline}.st3{fill:#f0eff1}</style><path class="icon-canvas-transparent" d="M0 0h16v16H0z" id="canvas"/><path class="icon-vs-out" d="M13 5.086V4H4v1.086l-3 3v.828l3 3V13h9v-1.086l3-3v-.828z" id="outline"/><g id="iconBg"><circle class="st0" cx="9.75" cy="7.25" r="1.021"/><path class="icon-vs-bg" d="M4 6.5v4l-2-2 2-2zm9 0v4l2-2-2-2zM5 5v5l1-.8V6h5v4.333L12 11V5H5z"/></g><g id="iconFg" class="st1"><g class="st2"><path class="st3" d="M6 6v5h5V6H6zm3.75 2.271a1.021 1.021 0 1 1 .001-2.043 1.021 1.021 0 0 1-.001 2.043z"/></g></g><g id="colorImportance"><circle class="icon-vs-action-orange" cx="9.75" cy="7.25" r=".924"/><path class="icon-vs-blue" d="M5 10l2.5-2 4.5 3v1H5z"/></g></svg>