<svg xmlns="http://www.w3.org/2000/svg" viewBox="0 0 16 16"><style>.st0{opacity:0}.st0,.st1{fill:#f6f6f6}.st2{fill:#434343}.st3{fill:#f0eff1}</style><g id="outline"><path class="st0" d="M0 0h16v16H0z"/><path class="st1" d="M8 3.967v-.381L4.415.001h-.83L0 3.586v4.828l2-2V8h2.027v8H16V3.967z"/></g><g id="icon_x5F_bg"><path class="st2" d="M3 7V4L1 6V4l3-3 3 3v2L5 4v3z"/><path class="st2" d="M8 5v1h6v5l-1.5-1-1.813 1.359L8 7.873l-.257.284L6 10.084V8H5v7h10V5H8zm6 7.719V14H6v-2.195l2-2.211L10.5 13l2-1.549 1.5 1.143v.125z"/><circle class="st2" cx="11.195" cy="8.195" r="1.195"/></g><g id="icon_x5F_fg"><path class="st3" d="M14 12.719l-1.5-1.172-2 1.594L8 9.797l-2 2.287V14h8z"/><path class="st3" d="M8 6v1.75l2.719 3.547L12.5 9.906l1.5.984V6H8zm3.195 3.391a1.196 1.196 0 1 1 .002-2.392 1.196 1.196 0 0 1-.002 2.392zM6 6.414v3.555L7.685 8.1z"/></g></svg>