<svg xmlns="http://www.w3.org/2000/svg" viewBox="0 0 16 16"><style>.st0{opacity:0}.st0,.st1{fill:#f6f6f6}.st2{fill:#424242}.st3{fill:#f0eff1}</style><g id="outline"><path class="st0" d="M0 0h16v16H0z"/><path class="st1" d="M12.061 0H6c-.97 0-2 .701-2 2v5H0v9h8.938v-2H14c1.299 0 2-1.03 2-2V3.556L12.061 0z"/></g><g id="icon_x5F_bg"><circle class="st2" cx="5.641" cy="10.359" r=".949"/><path class="st2" d="M1 8v7h7V8H1zm1 6l1.5-1.5 2 1.5H2zm5-.5L3.5 11 2 12.5V9h5v4.5z"/><path class="st2" d="M11.641 1H5.964S5 1 5 2v5h1V2h5v3h3v7H8.938v1h5.027c1 0 1.035-1 1.035-1V4l-3.359-3z"/><path class="st3" d="M11 5V2H6v5h2.938v5H14V5z"/></g><g id="icon_x5F_fg"><path class="st3" d="M2.031 9.031v3.438L3.5 11l3.469 2.477V9.031H2.031zm3.61 2.278a.95.95 0 1 1 0 0z"/><path class="st3" d="M3.5 12.5l-1.469 1.469h3.427z"/></g></svg>