<svg xmlns="http://www.w3.org/2000/svg" width="16" height="16"><style type="text/css">.icon-canvas-transparent{opacity:0;fill:#F6F6F6;} .icon-vs-out{fill:#F6F6F6;} .icon-vs-bg{fill:#424242;} .icon-vs-fg{fill:#F0EFF1;}</style><path class="icon-canvas-transparent" d="M16 16h-16v-16h16v16z" id="canvas"/><path class="icon-vs-out" d="M16 3.586v8.828l-2.586 2.586h-10.828l-2.586-2.586v-8.828l2.586-2.586h10.828l2.586 2.586z" id="outline"/><path class="icon-vs-bg" d="M11 5.5c0 .829-.672 1.5-1.5 1.5-.829 0-1.5-.671-1.5-1.5s.671-1.5 1.5-1.5c.828 0 1.5.671 1.5 1.5zm2-3.5l2 2v8l-2 2h-10l-2-2v-8l2-2h10zm.984 9.586l-2.016-1.604-2.982 2-3.996-3.958-2.969 3.583 1.393 1.393h9.172l1.398-1.414zm.016-7.172l-1.414-1.414h-9.172l-1.414 1.414v5.177l2.96-3.518 4.024 3.909 3-2 2.016 1.851v-5.419z" id="iconBg"/><path class="icon-vs-fg" d="M3.414 3l-1.414 1.414v5.177l2.96-3.518 4.024 3.909 3-2 2.016 1.851v-5.419l-1.414-1.414h-9.172zm6.086 4c-.829 0-1.5-.671-1.5-1.5s.671-1.5 1.5-1.5c.828 0 1.5.671 1.5 1.5s-.672 1.5-1.5 1.5zm2.469 2.981l2.016 1.604-1.399 1.415h-9.172l-1.393-1.393 2.969-3.583 3.996 3.958 2.983-2.001z" id="iconFg"/></svg>