<svg xmlns="http://www.w3.org/2000/svg" viewBox="0 0 16 16"><style>.st0{opacity:0}.st0,.st1{fill:#f6f6f6}.st2{fill:#424242}.st3{fill:#f0eff1}</style><g id="outline"><path class="st0" d="M0 0h16v16H0z"/><path class="st1" d="M7.979 15.958C3.58 15.958 0 12.378 0 7.979 0 3.579 3.58 0 7.979 0s7.98 3.579 7.98 7.979c0 4.399-3.58 7.979-7.98 7.979z"/></g><g id="icon_x5F_bg"><circle class="st2" cx="8.828" cy="6.393" r="1.515"/><path class="st2" d="M13.29 11.936a6.592 6.592 0 0 0 1.334-3.957 6.645 6.645 0 1 0-13.29 0c0 1.458.483 2.794 1.279 3.889l.038.047c1.211 1.635 3.137 2.708 5.327 2.708 2.175 0 4.088-1.061 5.3-2.675l.011.006v-.018zM7.979 2.669a5.316 5.316 0 0 1 5.311 5.31c0 .417-.032 1.204-.124 1.592l-1.932-1.353-2.615 1.407-3.336-2.669-2.488 2.148a5.277 5.277 0 0 1-.126-1.125 5.317 5.317 0 0 1 5.31-5.31zm0 10.62c-1.818 0-3.819-1.393-4.776-2.789l2.109-1.906 3.219 2.766 2.713-1.717 1.459 1.067c-1.139 1.708-3.015 2.579-4.724 2.579z"/></g><g id="icon_x5F_fg"><path class="st3" d="M11.294 9.626l-2.752 1.731-3.185-2.752-2.114 1.899a5.408 5.408 0 0 0 4.773 2.862c2.001 0 3.729-1.099 4.665-2.713l-1.387-1.027z"/><path class="st3" d="M5.295 6.936l3.339 2.69 2.628-1.392 1.886 1.354a5.346 5.346 0 0 0 .278-1.632A5.411 5.411 0 1 0 2.72 9.076l2.575-2.14zm3.532-2.058a1.515 1.515 0 1 1 .004 3.03 1.515 1.515 0 0 1-.004-3.03z"/></g></svg>