<svg xmlns="http://www.w3.org/2000/svg" width="16" height="16"><style>.icon-canvas-transparent{opacity:0;fill:#f6f6f6}.icon-vs-out{fill:#f6f6f6}.icon-vs-bg{fill:#424242}.icon-vs-fg{fill:#f0eff1}</style><path class="icon-canvas-transparent" d="M16 16H0V0h16v16z" id="canvas"/><path class="icon-vs-out" d="M0 0h16v15H0V0z" id="outline"/><path class="icon-vs-bg" d="M6 10h1v1H6v-1zm0-1h1V8H6v1zm0-2h1V6H6v1zM4 7h1V6H4v1zm11-6v13H1V1h14zm-1 1H7v1H6V2H2v4h1v1H2v6h4v-1h1v1h7V2zm-3 4h-1v1h1V6zM9 6H8v1h1V6zM6 5h1V4H6v1zm7 1h-1v1h1V6z" id="iconBg"/><path class="icon-vs-fg" d="M7 2v1H6V2H2v4h1v1H2v6h4v-1h1v1h7V2H7zM5 6v1H4V6h1zm2 5H6v-1h1v1zm0-3v1H6V8h1zm0-2v1H6V6h1zm2 0v1H8V6h1zm2 0v1h-1V6h1zm2 0v1h-1V6h1zM6 5V4h1v1H6z" id="iconFg"/></svg>