<svg xmlns="http://www.w3.org/2000/svg" viewBox="0 0 16 16"><defs><style>.icon-canvas-transparent,.icon-vs-out{fill:#f6f6f6}.icon-canvas-transparent{opacity:0}.a{fill:#424242}.icon-vs-fg{fill:#f0eff1}.icon-vs-blue{fill:#1ba1e2}.icon-vs-action-orange{fill:#c27d1a}</style></defs><title>ImageScrollViewer_16x</title><path class="icon-canvas-transparent" d="M16 16H0V0h16z"/><path class="icon-vs-out" d="M0 0h16v15H0z"/><path class="a" d="M10 7h5v1h-5z"/><path class="a" d="M15 6V1H1v13h14V9h-5v4H2V2h8v4h5z"/><path class="a" d="M11 10l1.5 2 1.5-2h-3zM14 5l-1.5-1.969L11.017 5H14z"/><path class="icon-vs-fg" d="M10 6h5v1h-5v1h5v1h-5v3.583L5.173 7.228 3 8.415v.026L2 9V2h8zm-1-.5A1.5 1.5 0 1 0 7.5 7 1.5 1.5 0 0 0 9 5.5zm3.5-2.471L11.017 5H14zM14 10h-3l1.5 2z"/><path class="icon-vs-blue" d="M2 9l3-2 5 6H2V9z"/><circle class="icon-vs-action-orange" cx="7.5" cy="5.501" r="1.5"/></svg>