<svg xmlns="http://www.w3.org/2000/svg" width="16" height="16"><style type="text/css">.icon-canvas-transparent{opacity:0;fill:#F6F6F6;} .icon-vs-out{fill:#F6F6F6;} .icon-vs-bg{fill:#424242;} .icon-vs-fg{fill:#F0EFF1;}</style><path class="icon-canvas-transparent" d="M16 16h-16v-16h16v16z" id="canvas"/><path class="icon-vs-out" d="M16 7h-2v7h-7v2h-7v-7h2v-7h7v-2h7v7z" id="outline"/><path class="icon-vs-bg" d="M13 3v10h-10v-10h10zm-1 8l-1.5-1.549-2 1.549-2.5-3.126-2 2.21v1.916h8v-1zm0-7h-8v4.084l2-2.21 2.5 3.126 2-1 1.5 1v-5zm-2 1h-2v2h2v-2zm5 1l-.019-5h-4.981v1h4v4h1zm-14 4l.019 5h4.981v-1h-4v-4h-1z" id="iconBg"/><path class="icon-vs-fg" d="M12 12h-8v-1.916l2-2.21 2.5 3.126 2-1.549 1.5 1.549v1zm0-8v5l-1.5-1-2 1-2.5-3.126-2 2.21v-4.084h8zm-2 1h-2v2h2v-2z" id="iconFg"/></svg>