<svg xmlns="http://www.w3.org/2000/svg" viewBox="0 0 16 16"><style>.st0{fill:#f6f6f6}.st1{fill:#424242}.st2{fill:none}.st3{fill:#f0eff1}</style><path class="st0" d="M1 0v6H0v10h10v-1h6V0z" id="outline"/><g id="icon_x5F_bg"><path class="st1" d="M2 5h1v1H2zM2 3h1v1H2zM2 1h1v1H2zM4 1h1.001v1H4zM6 1h1v1H6zM8 1h1v1H8zM10 1h1v1h-1zM12 1h1v1h-1zM14 1h1v1h-1zM14 3h1v1h-1zM14 5h1v1h-1zM14 7h1v1h-1zM14 9h1v1h-1zM14 10.999h1V12h-1zM14 13h1v1h-1zM12 13h1v1h-1zM11 11V5H5v1H4V4h8v7z"/><circle class="st1" cx="6.192" cy="9.807" r=".807"/><path class="st1" d="M1 7v8h8V7H1zm1 7.001v-.28l2.537-1.463L7.554 14l.001.001H2zm6-.93l-3.463-1.982L2 12.491v-4.49h6v5.07zM10 13h1v1h-1z"/></g><g id="icon_x5F_fg"><path class="st2" d="M2 14h5.554v.001H2z"/><path class="st3" d="M11 5v6h-1V6H5V5z"/><path class="st3" d="M2 12.491l2.537-1.402L8 13.071v-5.07H2v4.49zM6.192 9a.807.807 0 1 1 .001 1.615A.807.807 0 0 1 6.192 9z"/><path class="st3" d="M2 13.721V14h5.554l-3.017-1.742z"/></g></svg>