<svg xmlns="http://www.w3.org/2000/svg" viewBox="0 0 16 16"><style>.st0{opacity:0}.st0,.st1{fill:#f6f6f6}.st2{fill:#424242}</style><g id="outline"><path class="st0" d="M0 0h16v16H0z"/><path class="st1" d="M13.661 6.768l-1-2-1.158 1.738c-.08-1.073-.594-4.009-3.841-5.633l-2-.105 1 1.707c.007.007.422.719.766 1.752.138.412.2.813.188 1.201-.297-.928-.769-1.875-1.525-2.646L3.781.427l.613 3.241c.136.72-.6 2.269-1.086 3.295-.238.503-.452.957-.584 1.316-.528 1.434-.526 2.788.008 4.139.256.654 1.23 2.35 2.645 2.35h1.714l.001-.697c.625.441 1.188.697 1.713.697h1.3l.217.217.645-.322c4.155-2.079 2.776-7.651 2.694-7.895"/></g><path class="st2" d="M9.229 10.557s1.715-1.715 1.715-3.429c0 0 0-3.429-3.429-5.143 0 0 3.429 3.43 0 6.856 0-1.744-.46-3.863-1.714-5.143.27 1.427-1.256 3.902-1.715 5.143-.436 1.182-.453 2.282 0 3.43.216.549.971 1.713 1.715 1.713h1.714c-1.317-.002-2.742-2.395-1.714-3.428-.389.391.582 1.463.856 1.715.496.453 1.84 1.713 2.571 1.713h1.715c.001 0-3.427-1.713-1.714-3.427m3.428-3.43c0 1.714-1.713 3.429-1.713 3.429-1.715 1.715 0 3.428 0 3.428 3.428-1.713 1.713-6.857 1.713-6.857" id="icon_x5F_bg"/></svg>