<svg xmlns="http://www.w3.org/2000/svg" viewBox="0 0 16 16" enable-background="new 0 0 16 16"><style type="text/css">.icon-canvas-transparent{opacity:0;fill:#F6F6F6;} .icon-vs-out{fill:#F6F6F6;} .icon-vs-red{fill:#E51400;}</style><path class="icon-canvas-transparent" d="M16 16h-16v-16h16v16z" id="canvas"/><path class="icon-vs-out" d="M13.661 6.768c.082.244 1.461 5.816-2.695 7.894l-.645.322-.217-.217h-1.3c-.524 0-1.088-.256-1.713-.697l-.001.697h-1.713c-1.415 0-2.39-1.695-2.645-2.35-.534-1.352-.536-2.705-.008-4.139.132-.358.346-.812.585-1.315.486-1.026 1.221-2.575 1.086-3.295l-.614-3.241 2.31 2.355c.756.771 1.228 1.718 1.524 2.646.013-.389-.05-.789-.188-1.201-.343-1.033-.758-1.745-.765-1.752l-1-1.707 2 .105c3.247 1.624 3.761 4.56 3.841 5.633l1.158-1.738 1 2" id="outline"/><g id="iconBg"><path class="icon-vs-red" d="M9.229 10.557s1.715-1.715 1.715-3.429c0 0 0-3.429-3.429-5.143 0 0 3.429 3.43 0 6.856 0-1.744-.46-3.863-1.714-5.143.27 1.427-1.256 3.902-1.715 5.143-.436 1.182-.453 2.282 0 3.43.216.549.971 1.713 1.715 1.713h1.714c-1.317-.002-2.742-2.395-1.714-3.428-.389.391.582 1.463.856 1.715.496.453 1.84 1.713 2.571 1.713h1.715c.001 0-3.427-1.713-1.714-3.427m3.428-3.43c0 1.714-1.713 3.429-1.713 3.429-1.715 1.715 0 3.428 0 3.428 3.428-1.713 1.713-6.857 1.713-6.857"/></g></svg>