<svg xmlns="http://www.w3.org/2000/svg" viewBox="0 0 16 16"><style>.st0{opacity:0}.st0,.st1{fill:#f6f6f6}.st2{fill:#424242}.st3{fill:#00539c}.st4{fill:#f0eff1}</style><g id="outline"><path class="st0" d="M0 0h16v16H0z"/><path class="st1" d="M13 9V6.586L10.414 4H8.425L6.413 2H5V0H3.5C1.57 0 0 1.57 0 3.5c0 1.758 1.308 3.204 3 3.449V13.001C3 13.97 3.702 15 5 15h4v1h4v-3h3V9h-3zM3.5 4a.5.5 0 0 1-.494-.578L3.587 4H3.5z"/></g><g id="icon_x5F_bg"><path class="st2" d="M6 9h1v1H6zM8 9h1v1H8zM6 11h1v1H6zM10 13h2v2h-2zM10 10h2v2h-2zM13 10h2v2h-2z"/><path class="st2" d="M5 9H4v4s0 1 1 1h4v-1H5V9zM10 5h-.569l.483.48L9 6.4V8h2v1h1V7z"/></g><path class="st3" d="M6 8H4l1.988-2H3.5a2.5 2.5 0 1 1 0-5H4v1h-.5C2.673 2 2 2.673 2 3.5S2.673 5 3.5 5h2.513L4 3h2l2.5 2.484L6 8z" id="color_x5F_action_1_"/><path class="st4" d="M9 8V6.4L6.416 9H7v1H6V9H5v4h4v-3H8V9h3V8H9zm-2 4H6v-1h1v1z" id="icon_x5F_fg"/></svg>