<svg xmlns="http://www.w3.org/2000/svg" viewBox="0 0 16 16"><style>.st0{opacity:0}.st0,.st1{fill:#f6f6f6}.st2{fill:#424242}.st3{fill:#00539c}</style><g id="outline"><path class="st0" d="M0 0h16v16H0z"/><path class="st1" d="M9.43 5L6.413 2H5V0H3.5C1.57 0 0 1.57 0 3.5S1.57 7 3.5 7h.084L1.596 9H6.15L8 11.351V16h4v-4.649l4-5.081V5H9.43z"/></g><path class="st2" d="M15 6l-4 5v4H9v-4L6.962 8.452 9.398 6H15z" id="icon_x5F_bg"/><path class="st3" d="M8.5 5.485L6 3H4l2.013 2H3.5a1.501 1.501 0 0 1 0-3H4V1h-.5a2.5 2.5 0 1 0 0 5h2.488L4 8h2l2.5-2.515z" id="color_x5F_action"/></svg>