<svg xmlns="http://www.w3.org/2000/svg" viewBox="0 0 16 16"><style>.st0{opacity:0}.st0,.st1{fill:#f6f6f6}.st2{fill:#424242}.st3{fill:#00539c}.st4{fill:#f0eff1}</style><g id="outline"><path class="st0" d="M0 0h16v16H0z"/><path class="st1" d="M5 2V0H3.5C1.57 0 0 1.57 0 3.5c0 .95.384 1.811 1 2.441V15h15V2H5z"/></g><g id="icon_x5F_bg"><path class="st2" d="M8 13h1v1H8zM6 13h1v1H6zM4 13h1v1H4zM2 13h1v1H2zM10 3h1v1h-1zM10 13h1v1h-1zM2 11h1v1H2zM2 9h1v1H2zM14 5h1v1h-1zM14 11h1v1h-1zM14 9h1v1h-1zM14 7h1v1h-1zM14 3h1v1h-1zM14 13h1v1h-1zM12 13h1v1h-1zM12 3h1v1h-1zM11.313 5H9.431l.483.48-.517.52H11v1h1v3H9V6.4L8 7.406V10c0 1 .964 1 .964 1h3c1 0 1.036-1 1.036-1V7.137L11.313 5z"/></g><path class="st3" d="M4 8h2l2.5-2.516L6 3H4l2.013 2H3.5C2.673 5 2 4.327 2 3.5S2.673 2 3.5 2H4V1h-.5a2.5 2.5 0 1 0 0 5h2.488L4 8z" id="color_x5F_action"/><path class="st4" d="M11 7V6H9.397L9 6.355V10h3V7z" id="icon_x5F_fg"/></svg>