<svg xmlns="http://www.w3.org/2000/svg" viewBox="0 0 16 16"><style>.icon-canvas-transparent{opacity:0;fill:#f6f6f6}.icon-vs-out{fill:#f6f6f6}.icon-vs-bg{fill:#424242}.icon-cpp-purple{fill:#9b4f96}</style><path class="icon-canvas-transparent" d="M16 16H0V0h16v16z" id="canvas"/><path class="icon-vs-out" d="M16 11v3h-1c-1.276 0-1.943-.911-2.325-1.533l-.089.143C12.046 13.762 11.16 14 10.5 14c-1.629 0-2.261-.985-2.515-1.501-.375.603-1.062 1.5-2.319 1.5-1.279 0-1.96-.926-2.326-1.524C2.974 13.079 2.292 14 1 14H0v-3h.726c.039-.064.089-.146.147-.247.325-.563 1.003-1.74 2.461-1.74 1.278 0 1.965.91 2.338 1.514C6.042 9.925 6.729 9 8 9c1.28 0 1.951.909 2.335 1.531C10.704 9.927 11.389 9 12.667 9c1.434 0 2.107 1.131 2.469 1.739.063.107.116.261.159.261H16zM8.623 9.017c.417 0 .798-.141 1.124-.341.308-.185.567-.478.768-.796.016.028.028.059.045.086.195.299.436.537.71.702a1.97 1.97 0 0 0 1.048.291 2.006 2.006 0 0 0 1.348-.49L14 8.17V3.665l-.375-.3c-.068-.052-.133-.108-.211-.147a2.162 2.162 0 0 0-.299-.132 2.19 2.19 0 0 0-.685-.117c-.388 0-.75.097-1.087.295a2.358 2.358 0 0 0-.745.724 2.127 2.127 0 0 0-.711-.722C9.566 3.059 9.19 3 8.771 3H9V2H6v1.305a2.214 2.214 0 0 0-.388-.208 2.666 2.666 0 0 0-.986-.173c-.173 0-.363.016-.563.05a4.878 4.878 0 0 0-.485.109c-.152.045-.34.095-.484.156-.163.072-.381.142-.471.204L2 3.742V5.55c0 .157.014.33-.042.513-.073.236.082.493.082.758 0 .277.044.547.129.795a2.034 2.034 0 0 0 1.137 1.219c.257.105.545.191.854.191.231 0 .449-.026.654-.026h3.203c.187 0 .391.017.606.017z" id="outline"/><path class="icon-vs-bg" d="M5.67 4.32a1.08 1.08 0 0 0-.424-.295 1.644 1.644 0 0 0-.608-.101c-.119 0-.241.012-.368.033a3.266 3.266 0 0 0-.672.195 1.366 1.366 0 0 0-.213.114v.768c.158-.131.341-.234.544-.313.204-.078.413-.117.627-.117.213 0 .377.063.494.186.116.125.174.324.174.6l-1.03.154a1.613 1.613 0 0 0-.526.151 1.08 1.08 0 0 0-.563.661 1.583 1.583 0 0 0 .009.923.945.945 0 0 0 .568.596c.139.057.298.084.478.084.229 0 .431-.053.603-.16a1.3 1.3 0 0 0 .439-.463h.014v.529h.785V5.428c0-.238-.027-.451-.083-.637a1.27 1.27 0 0 0-.248-.471zm-.446 2.02c0 .131-.02.252-.059.365-.038.111-.093.211-.165.295s-.157.15-.256.199a.758.758 0 0 1-.337.073.682.682 0 0 1-.242-.041.495.495 0 0 1-.302-.286.583.583 0 0 1-.041-.218c0-.086.01-.164.027-.233a.435.435 0 0 1 .098-.18.557.557 0 0 1 .196-.132c.083-.033.189-.061.32-.078l.761-.109v.345zm4.514-1.865a1.203 1.203 0 0 0-.394-.416 1.037 1.037 0 0 0-.573-.152.987.987 0 0 0-.615.196 1.187 1.187 0 0 0-.225.223 2.022 2.022 0 0 0-.181.289h-.013V2.959H7.04v4.887h.697v-.485h.013c.044.082.095.158.151.229.057.07.119.133.191.186a.835.835 0 0 0 .238.121.928.928 0 0 0 .292.043c.23 0 .433-.053.609-.16.176-.106.323-.254.443-.443.12-.188.211-.412.272-.672.061-.26.092-.539.092-.844a3.54 3.54 0 0 0-.074-.734 1.98 1.98 0 0 0-.226-.612zm-.476 1.953c-.039.18-.095.328-.168.445a.755.755 0 0 1-.264.266.677.677 0 0 1-.651.016.764.764 0 0 1-.237-.208.988.988 0 0 1-.154-.306 1.262 1.262 0 0 1-.056-.381v-.506c0-.17.02-.326.06-.465.04-.139.096-.258.168-.359a.756.756 0 0 1 .257-.232c.1-.055.21-.082.331-.082a.646.646 0 0 1 .571.32c.067.105.116.23.15.377.034.147.052.311.052.494 0 .234-.019.441-.059.621zm3.672-2.332a.86.86 0 0 1 .106.066v.815a1.178 1.178 0 0 0-.273-.223.638.638 0 0 0-.317-.082c-.085 0-.161.032-.238.064-.263.181-.469.586-.469 1.301 0 .668.182 1.011.423 1.147.084.04.171.074.274.074.049 0 .101-.01.153-.027a.856.856 0 0 0 .158-.068 1.16 1.16 0 0 0 .288-.225v.769c-.09.076-.192.139-.309.184a1.107 1.107 0 0 1-.413.068.974.974 0 0 1-.523-.143 1.24 1.24 0 0 1-.396-.397 2.098 2.098 0 0 1-.252-.602 3.118 3.118 0 0 1-.088-.754c0-.316.032-.604.096-.861.063-.258.155-.479.273-.66.119-.182.265-.322.433-.424a1.102 1.102 0 0 1 1.074-.022z" id="iconBg"/><path class="icon-cpp-purple" d="M7.268 11.752C6.957 12.278 6.532 13 5.667 13c-.862 0-1.279-.712-1.584-1.233-.3-.513-.472-.754-.749-.754-.273 0-.432.226-.729.741C2.3 12.28 1.885 13 1 13v-1c.278 0 .439-.227.738-.746.302-.524.716-1.241 1.595-1.241.881 0 1.303.722 1.612 1.248.594 1.013.861 1.001 1.462-.018C6.717 10.718 7.141 10 8 10c.852 0 1.265.687 1.595 1.239.615 1.024.877 1.039 1.478.011.306-.528.727-1.25 1.594-1.25.866 0 1.296.724 1.61 1.252.302.508.472.748.723.748v1c-.848 0-1.255-.686-1.582-1.236-.613-1.029-.882-1.042-1.482-.01a9.16 9.16 0 0 1-.166.274c-.091-.006-.195.972-1.27.972-1.402 0-1.598-.972-1.763-1.247-.615-1.027-.867-1.019-1.469-.001z" id="colorImportance"/></svg>