<svg xmlns="http://www.w3.org/2000/svg" viewBox="0 0 16 16"><style>.st0{opacity:0}.st0,.st1{fill:#f6f6f6}.st2{fill:#424242}</style><g id="outline"><path class="st0" d="M0 0h16v16H0z"/><path class="st1" d="M12 0v8H9V5.121l-6.646 6.647L.232 9.646 6.879 3H4V0h8zm.354 8.732L11 10.086V10H8v.086L6.646 8.732 2.879 12.5l3.5 3.5h.535L8 14.914V15h3v-.086L12.086 16h.535L16 12.621v-.242l-3.646-3.647z"/></g><path class="st2" d="M5.354 7.354l-.708-.708 2-2 .707.707-1.999 2.001zm-1 1l-.708-.708-2 2 .707.707 2.001-1.999zM10 1H5v1h4.293L7.646 3.646l.707.707L10 2.707V7h1V1h-1zM7.354 14.146L5.707 12.5l1.646-1.646-.707-.707L4.293 12.5l2.354 2.354.707-.708zm7.353-1.646l-2.353-2.354-.707.707 1.647 1.646-1.647 1.646.707.707 2.353-2.352zM11 12h-1v-1H9v1H8v1h1v1h1v-1h1v-1z" id="icon_x5F_bg"/></svg>