<svg xmlns="http://www.w3.org/2000/svg" viewBox="0 0 16 16"><style>.st0{opacity:0}.st0,.st1{fill:#f6f6f6}.st2{fill:#424242}</style><g id="outline"><path class="st0" d="M0 0h16v16H0z"/><path class="st1" d="M12 12v-2h4V6h-4V4h3V0H5v2.066L2.911 0h-.822L0 2.066v3.831l1-1V7h3v2H1v2.102l-1-1v3.831L2.089 16h.822L5 13.933V16h10v-4h-3zm-4 0H5v-1.896l-1 .999V10h4v2zm0-6H4V4.898l1 1V4h3v2z"/></g><path class="st2" d="M14 3H6V1h8v2zm-3 1H9v2h2V4zm4 3H5v2h10V7zm-4 3H9v2h2v-2zm3 3H6v2h8v-2zM1 3.483l1-1V6h1V2.483l1 1v-1L2.5 1 1 2.483v1zm3.001 9.034l-1 .999v-4h-1v4l-1-1v1L2.501 15l1.5-1.484v-.999z" id="icon_x5F_bg"/></svg>