<svg xmlns="http://www.w3.org/2000/svg" viewBox="0 0 16 16"><style>.st0{opacity:0}.st0,.st1{fill:#f6f6f6}.st2{fill:#424242}</style><g id="outline"><path class="st0" d="M0 0h16v16H0z"/><path class="st1" d="M16 1h-4v3h-2V0H6v4H4V1H0v10h2.086L0 13.086v.828L2.086 16H5v-1h2v-3h2v3h2v1h2.914L16 13.914v-.828L13.914 11H16V1zM6 11H4V8h2v3zm6 0h-2V8h2v3z"/></g><path class="st2" d="M6 5v2H4V5h2zm4 0v2h2V5h-2zM7 1v10h2V1H7zm6 1v8h2V2h-2zM1 2v8h2V2H1zm0 11.5L2.5 15H4l-1-1h3v-1H3l1-1H2.5L1 13.5zM13.5 12H12l1 1h-3v1h3l-1 1h1.5l1.5-1.5-1.5-1.5z" id="icon_x5F_bg"/></svg>