<svg xmlns="http://www.w3.org/2000/svg" viewBox="0 0 16 16"><style>.st0{opacity:0}.st0,.st1{fill:#f6f6f6}.st2{fill:#424242}.st3{fill:#00539c}.st4{fill:#f0eff1}</style><g id="outline"><path class="st0" d="M0 0h16v16H0z"/><path class="st1" d="M16 10c0-.245-.019-.485-.048-.723l-2.264-.805 1.03-2.17a6.015 6.015 0 0 0-1.021-1.021l-2.17 1.03-.805-2.264A6.359 6.359 0 0 0 10 4c-.245 0-.485.02-.723.048l-.804 2.264L8 6.087V3L5 0H3L0 3v6l2-2v2h2.828l-.78.277A6.167 6.167 0 0 0 4 10c0 .245.02.485.048.723l2.264.805-1.03 2.17c.299.381.641.723 1.021 1.021l2.17-1.03.805 2.264c.237.028.477.047.722.047s.485-.019.723-.048l.805-2.264 2.17 1.03a6.015 6.015 0 0 0 1.021-1.021l-1.03-2.17 2.264-.805c.028-.237.047-.477.047-.722z"/></g><path class="st2" d="M15 10l-2.69-.957 1.226-2.578-2.579 1.225L10 5l-.957 2.69-2.578-1.225L7.69 9.043 5 10l2.69.957-1.226 2.578 2.578-1.226L10 15l.957-2.69 2.578 1.226-1.226-2.578L15 10zm-5 2a2 2 0 1 1 .001-4.001A2 2 0 0 1 10 12z" id="icon_x5F_bg"/><path class="st3" d="M3 8V4L1 6V4l3-3 3 3v2L5 4v4z" id="color_x5F_action"/><circle class="st4" cx="10" cy="10" r="2" id="icon_x5F_fg"/></svg>