<svg xmlns="http://www.w3.org/2000/svg" viewBox="0 0 16 16"><style>.st0{opacity:0}.st0,.st1{fill:#f6f6f6}.st2{fill:#424242}</style><g id="outline"><path class="st0" d="M0 0h16v16H0z"/><path class="st1" d="M13 8c-1.683 0-3 1.757-3 4H7v-2H5.414l1-1H2.086L0 11.086v.828L2.086 14h4.328l-1-1H7v3h4v-1.016c.527.627 1.221 1.016 2 1.016 1.683 0 3-1.757 3-4 0-2.243-1.317-4-3-4zM16 4c0-2.243-1.317-4-3-4-1.056 0-1.967.692-2.5 1.763C9.967.692 9.056 0 8 0 6.317 0 5 1.757 5 4H2v4h4V6.984C6.527 7.611 7.221 8 8 8c1.056 0 1.967-.692 2.5-1.763C11.033 7.308 11.944 8 13 8c1.683 0 3-1.757 3-4z"/></g><g id="icon_x5F_bg"><path class="st2" d="M8 1C6.896 1 6 2.343 6 4s.896 3 2 3 2-1.343 2-3-.896-3-2-3zm0 5c-.408 0-1-.779-1-2s.592-2 1-2c.408 0 1 .779 1 2s-.592 2-1 2zM13 7c1.104 0 2-1.343 2-3s-.896-3-2-3-2 1.343-2 3 .896 3 2 3zm0-5c.408 0 1 .779 1 2s-.592 2-1 2-1-.779-1-2 .592-2 1-2zM13 9c-1.104 0-2 1.343-2 3s.896 3 2 3 2-1.343 2-3-.896-3-2-3zm0 5c-.408 0-1-.779-1-2s.592-2 1-2 1 .779 1 2-.592 2-1 2zM3 5h2v2H3zM8 13h2v2H8zM4 10H2.5L1 11.5 2.5 13H4l-1-1h3v-1H3z"/></g></svg>