<svg xmlns="http://www.w3.org/2000/svg" viewBox="0 0 16 16"><style>.st0{opacity:0}.st0,.st1{fill:#f6f6f6}.st2{fill:#424242}.st3{fill:#00539c}.st4{fill:#f0eff1}</style><g id="outline"><path class="st0" d="M0 0h16v16H0z"/><path class="st1" d="M10 4a5.97 5.97 0 0 0-2 .349V3L5 0H3L0 3v5h1l1-1v2h2.09c-.055.326-.09.658-.09 1a6 6 0 1 0 6-6z"/></g><path class="st2" d="M10 5c-.712 0-1.387.154-2 .422V8H7l-.988-.988L6 7.027V9h-.899A5 5 0 0 0 10 15a5 5 0 0 0 5-5 5 5 0 0 0-5-5zm0 9V6a4 4 0 0 1 0 8z" id="icon_x5F_bg"/><path class="st3" d="M5 8V4l2 2V4L4 1 1 4v2l2-2v4z" id="color_x5F_action"/><path class="st4" d="M10 6v8a4 4 0 0 0 0-8z" id="icon_x5F_fg"/></svg>