<svg xmlns="http://www.w3.org/2000/svg" viewBox="0 0 16 16"><style>.st0{opacity:0}.st0,.st1{fill:#f6f6f6}.st2{fill:#424242}</style><g id="outline"><path class="st0" d="M0 0h16v16H0z"/><path class="st1" d="M8.5 10.167l.726.718A3.99 3.99 0 0 0 11.994 12 4.007 4.007 0 0 0 16 8c0-2.206-1.797-4-4.006-4a4 4 0 0 0-2.783 1.13l-.711.709-.726-.724A3.99 3.99 0 0 0 5.006 4 4.007 4.007 0 0 0 1 8a4.001 4.001 0 1 0 6.787 2.873l.713-.706zM12.998 8c0 .554-.45 1.004-1.004 1.004-.344 0-.588-.182-.682-.27L10.578 8l.72-.72a.997.997 0 0 1 .696-.284c.554 0 1.004.45 1.004 1.004zM4.002 8c0-.554.45-1.004 1.004-1.004.258 0 .505.101.682.27L6.422 8l-.714.714c-.115.108-.359.29-.703.29-.553 0-1.003-.45-1.003-1.004z"/></g><path class="st2" d="M10.606 6.559c.36-.34.847-.563 1.389-.563 1.105 0 2.004.902 2.004 2.004a2.001 2.001 0 0 1-3.393 1.442l-.61-.61-.705.705.626.625a2.995 2.995 0 0 0 2.077.838A2.998 2.998 0 0 0 15 8a3.002 3.002 0 0 0-5.083-2.162L6.395 9.441c-.36.34-.847.562-1.389.562a2.009 2.009 0 0 1-2.004-2.004 2.001 2.001 0 0 1 3.393-1.441l.609.609.706-.705-.627-.624A2.995 2.995 0 0 0 5.006 5 2.998 2.998 0 0 0 2 8a3.002 3.002 0 0 0 5.083 2.162l3.523-3.603z" id="icon_x5F_bg"/></svg>