<svg xmlns="http://www.w3.org/2000/svg" viewBox="0 0 16 16"><style>.st0{opacity:0}.st0,.st1{fill:#f6f6f6}.st2{fill:#424242}</style><g id="outline"><path class="st0" d="M0 0h16v16H0z"/><path class="st1" d="M10.167 7.5l.718-.726A3.99 3.99 0 0 0 12 4.006 4.007 4.007 0 0 0 8 0C5.794 0 4 1.797 4 4.006c0 1.033.396 2.016 1.13 2.784l.709.71-.724.726A3.99 3.99 0 0 0 4 10.994 4.007 4.007 0 0 0 8 15a4.001 4.001 0 1 0 2.873-6.787l-.706-.713zM8 3.002c.554 0 1.004.45 1.004 1.004 0 .344-.182.588-.27.682L8 5.422l-.72-.72a1.004 1.004 0 0 1-.284-.696c0-.554.45-1.004 1.004-1.004zm0 8.996c-.554 0-1.004-.45-1.004-1.004 0-.258.101-.506.27-.682L8 9.578l.714.713c.108.115.29.359.29.703 0 .554-.45 1.004-1.004 1.004z"/></g><path class="st2" d="M6.559 5.395a2.024 2.024 0 0 1-.563-1.389c0-1.104.902-2.004 2.004-2.004a2.001 2.001 0 0 1 1.442 3.393l-.61.609.705.706.625-.626c.516-.54.838-1.27.838-2.078A2.998 2.998 0 0 0 8 1a3.002 3.002 0 0 0-2.162 5.083l3.604 3.522c.34.36.562.847.562 1.389A2.008 2.008 0 0 1 8 12.998a2.001 2.001 0 0 1-1.441-3.393l.609-.609-.705-.705-.625.626A2.995 2.995 0 0 0 5 10.994 2.998 2.998 0 0 0 8 14a3.002 3.002 0 0 0 2.162-5.083L6.559 5.395z" id="icon_x5F_bg"/></svg>