<svg xmlns="http://www.w3.org/2000/svg" viewBox="0 0 16 16"><style>.icon-canvas-transparent{opacity:0;fill:#f6f6f6}.icon-vs-out{fill:#f6f6f6}.icon-vs-bg{fill:#424242}.icon-vs-fg{fill:#f0eff1}</style><path class="icon-canvas-transparent" d="M16 16.001H0v-16h16v16z" id="canvas"/><path class="icon-vs-out" d="M14.261 7.256l.933 5.244h-2.08l-1.081-1.496-.997 1.496h-.416A5.5 5.5 0 0 1 5.5 16a5.5 5.5 0 0 1 0-11c1.106 0 2.134.33 2.997.892A3.855 3.855 0 0 1 8 4c0-2.206 1.794-4 4-4 2.205 0 4 1.794 4 4 0 1.33-.676 2.519-1.739 3.256z" id="outline"/><path class="icon-vs-bg" d="M15 4.001a3 3 0 1 0-4.158 2.767l-.251 1.656c.262.641.409 1.342.409 2.077 0 .061-.007.121-.009.182L12 9.001l1.625 2.5H14l-.842-4.733A3.002 3.002 0 0 0 15 4.001zM12 5.5a1.5 1.5 0 1 1 0-3 1.5 1.5 0 0 1 0 3zM5.5 6a4.5 4.5 0 1 0 0 9 4.5 4.5 0 0 0 0-9zm.5 8H5V9h1v5zm0-6H5V7h1v1z" id="iconBg"/><path class="icon-vs-fg" d="M13.5 4a1.5 1.5 0 1 1-3 0 1.5 1.5 0 0 1 3 0zM5 9h1v5H5V9zm0-2v1h1V7H5z" id="notificationFg"/></svg>