<svg xmlns="http://www.w3.org/2000/svg" viewBox="0 0 16 16"><style>.st0{opacity:0}.st0,.st1{fill:#f6f6f6}.st2{fill:#424242}</style><g id="outline"><path class="st0" d="M0 0h16v16H0z"/><path class="st1" d="M13 3v1h-2v1H9v1H7.234A2.993 2.993 0 0 0 5 5V2H0v12h5v-3c.887 0 1.685-.387 2.234-1H9v1h2v1h2v1h3V3h-3z"/></g><path class="st2" d="M7 8a2 2 0 1 1-4.001-.001A2 2 0 0 1 7 8zM2 8a2.99 2.99 0 0 1 2-2.816V3H1v10h3v-2.184A2.99 2.99 0 0 1 2 8zm7-1H8v2h1V7zm2-1h-1v4h1V6zm2-1h-1v6h1V5zm2-1h-1v8h1V4z" id="icon_x5F_bg"/></svg>