<svg xmlns="http://www.w3.org/2000/svg" viewBox="0 0 16 16"><style>.st0{opacity:0}.st0,.st1{fill:#f6f6f6}.st2{fill:#424242}.st3{fill:#f0eff1}</style><g id="outline"><path class="st0" d="M0 0h16v16H0z"/><path class="st1" d="M15 13h-2v1H1V4h1V2h13z"/></g><g id="icon_x5F_bg"><path class="st2" d="M11 5H2v8h10V5h-1zm0 7H3V7h8v5zM3 3h1v1H3zM5 3h1v1H5zM7 3h1v1H7zM9 3h1v1H9zM11 3h1v1h-1zM13 3h1v1h-1zM13 5h1v1h-1zM13 7h1v1h-1zM13 9h1v1h-1zM13 11h1v1h-1z"/></g><path class="st3" d="M3 7h8v5H3z" id="icon_x5F_fg"/></svg>