<svg xmlns="http://www.w3.org/2000/svg" width="16" height="16"><style type="text/css">.icon-canvas-transparent{opacity:0;fill:#F6F6F6;} .icon-vs-out{fill:#F6F6F6;} .icon-vs-bg{fill:#424242;} .icon-vs-fg{fill:#F0EFF1;}</style><path class="icon-canvas-transparent" d="M16 16h-16v-16h16v16z" id="canvas"/><path class="icon-vs-out" d="M14 2v9h-2v2h-9v-9h2v-2h9z" id="outline"/><path class="icon-vs-bg" d="M6.999 4h-1v-1h1v1zm2.001-1h-1v1h1v-1zm2 0h-1v1h1v-1zm2 0h-1v1h1v-1zm-1 6v1h1v-1h-1zm0-2v1h1v-1h-1zm0-2v1h1v-1h-1zm-1 0v7h-7v-7h7zm-2 2h-3v3h3v-3z" id="iconBg"/><path class="icon-vs-fg" d="M9 10h-3v-3h3v3z" id="iconFg"/></svg>