<svg xmlns="http://www.w3.org/2000/svg" viewBox="0 0 16 16"><style>.icon-canvas-transparent{opacity:0;fill:#f6f6f6}.icon-vs-out{fill:#f6f6f6}.icon-vs-bg{fill:#424242}</style><path class="icon-canvas-transparent" d="M16 0v16H0V0h16z" id="canvas"/><path class="icon-vs-out" d="M16 0v11h-3v2H9.568c.277.622.432 1.3.432 2v1H0v-1c0-1.483.677-2.88 1.794-3.818A3.692 3.692 0 0 1 1.25 9.25 3.74 3.74 0 0 1 3 6.09V3h2V0h11z" id="outline"/><g id="iconBg"><path class="icon-vs-bg" d="M4 4h8v8H8.982a5.003 5.003 0 0 0-.776-.818c.036-.059.062-.122.095-.182H11V5H5v.5c-.349 0-.68.063-1 .153V4zm3-3H6v1h1V1zm2 0H8v1h1V1zm3 1h1V1h-1v1zm2-1v1h1V1h-1zm-3 0h-1v1h1V1zm3 9h1V9h-1v1zm0-4h1V5h-1v1zm0-2h1V3h-1v1zm0 4h1V7h-1v1zm-5 7H8c0-1.654-1.346-3-3-3s-3 1.346-3 3H1c0-1.595.945-2.964 2.299-3.606A2.735 2.735 0 0 1 2.25 9.25C2.25 7.733 3.483 6.5 5 6.5s2.75 1.233 2.75 2.75c0 .871-.415 1.64-1.049 2.144A3.995 3.995 0 0 1 9 15zM6.75 9.25c0-.965-.785-1.75-1.75-1.75s-1.75.785-1.75 1.75S4.035 11 5 11s1.75-.785 1.75-1.75z"/></g></svg>