<svg xmlns="http://www.w3.org/2000/svg" viewBox="0 0 16 16"><style>.icon-canvas-transparent{opacity:0;fill:#f6f6f6}.icon-vs-out{fill:#f6f6f6}.icon-vs-action-blue{fill:#00539c}.icon-vs-action-orange{fill:#c27d1a}</style><path class="icon-canvas-transparent" d="M16 16H0V0h16v16z" id="canvas"/><path class="icon-vs-out" d="M16 6.414L14.414 8H16v4h-1.586L16 13.586V14h-5.414L8 11.414 5.414 14H0v-.414L1.586 12H0V8h1.586L0 6.414V3h.878l-.621-.621L2.379.257 3 .878V0h3v.878l.621-.622 2.121 2.122L8.121 3H9v3h-.879l.621.621-1.353 1.354.611.611L10.586 6H16v.414z" id="outline"/><path class="icon-vs-action-blue" d="M5 7l3 3-3 3H2l2-2H1V9h3L2 7h3zm10 2h-3l2-2h-3l-3 3 3 3h3l-2-2h3V9z" id="iconBg"/><path class="icon-vs-action-orange" d="M2.292 6h1.415L4 5.707V6h1v-.293l1.621 1.621.707-.707L5.707 5H8V4H5.707l1.621-1.621-.707-.708L5 3.292V1H4v2.292L2.379 1.671l-.708.708L3.292 4H1v1h2.292l-1 1zM4 4h1v1H4V4z" id="colorAction"/></svg>