<svg xmlns="http://www.w3.org/2000/svg" viewBox="0 0 16 16"><style>.st0{opacity:0}.st0,.st1{fill:#f6f6f6}.st2{fill:#424242}</style><g id="outline"><path class="st0" d="M0 0h16v16H0z"/><path class="st0" d="M0 0h16v16H0z"/><path class="st1" d="M16 6h-5.414L8 8.586l-.611-.611 1.353-1.354L8.121 6H9V3h-.879l.621-.621L6.621.257 6 .878V0H3v.878L2.379.257.257 2.379.878 3H0v3.414L1.586 8H0v4h1.586L0 13.586V14h5.414L8 11.414 10.586 14H16v-.414L14.414 12H16V8h-1.586L16 6.414z"/></g><g id="icon_x5F_bg"><path class="st2" d="M2 7l2 2H1v2h3l-2 2h3l3-3-3-3zM15 9h-3l2-2h-3l-3 3 3 3h3l-2-2h3zM2.292 6h1.415L4 5.707V6h1v-.293l1.621 1.621.707-.707L5.707 5H8V4H5.707l1.621-1.621-.707-.708L5 3.292V1H4v2.292L2.379 1.671l-.708.708L3.292 4H1v1h2.292l-1 1zM4 4h1v1H4V4z"/></g></svg>