<svg xmlns="http://www.w3.org/2000/svg" width="16" height="16"><style type="text/css">.icon-canvas-transparent{opacity:0;fill:#F6F6F6;} .icon-vs-out{fill:#F6F6F6;} .icon-vs-bg{fill:#424242;}</style><path class="icon-canvas-transparent" d="M16 16h-16v-16h16v16z" id="canvas"/><path class="icon-vs-out" d="M.704 16h-.704v-1.179l.728-2.911c.633-2.53 2.095-3.577 3.384-3.753l.219-.749 1.271-.635.946-.841c1.978-1.758 6.745-5.846 8.291-5.846.384 0 .629.164.767.302.496.497 1.328 1.325-5.543 9.056l-.842.943-.635 1.265-.975.274c-.373 1.428-1.722 2.698-3.469 3.28-2.391.797-3.284.794-3.438.794z" id="outline"/><g id="iconBg"><path class="icon-vs-bg" d="M6.367 9.645c1.593 1.593.012 4.02-2.39 4.779-2.303.728-3.186.797-3.186.797l.797-3.186c.796-3.187 3.186-3.983 4.779-2.39zm.001-2.39l-1.594.797s3.186 0 3.186 3.186l.796-1.593-.041.04.041-.04c-.005-2.384-2.388-2.39-2.388-2.39zm8.674-6.304c-.797-.797-7.879 5.507-7.879 5.507s2.39 0 2.39 2.39c0 0 6.286-7.1 5.489-7.897z"/></g></svg>