<svg xmlns="http://www.w3.org/2000/svg" viewBox="0 0 16 16" enable-background="new 0 0 16 16"><path fill="#F6F6F6" d="M1 16v-11.298l-.227-.227c-.494-.494-.766-1.151-.766-1.851 0-.699.272-1.356.766-1.851.494-.494 1.151-.766 1.851-.766s1.357.272 1.851.766l2.227 2.227h9.298v13h-15z"/><path fill="#F0EFF1" d="M7.288 5l1.949 1.949.484 1.937.015-.004c.35 1.444.981 2.613 1.272 2.618.241-.013.448-.621.618-1.123.236-.701.505-1.496 1.146-1.822.386-.197.837-.225 1.228-.198v-3.357h-6.712zm-4.288 9h11v-4.639c-.271-.027-.566-.02-.773.084-.277.142-.477.731-.652 1.251-.271.805-.609 1.804-1.559 1.804h-.024c-1.064-.018-1.74-1.706-2.06-2.767l-1.983-.496-3.949-3.949v8.712zm-.812-10.939c-.241-.241-.241-.633 0-.874.242-.241.634-.24.874 0l.11.11-.875.874-.109-.11zm5.273 5.273l-4.457-4.456.873-.873 4.456 4.457.292 1.165-1.164-.293z"/><path fill="#424242" d="M7.702 4l1 1h5.298v3.357c-.391-.028-.842 0-1.227.197-.641.327-.909 1.121-1.146 1.822-.17.502-.377 1.11-.618 1.123-.291-.005-.923-1.174-1.272-2.618l-.015.005-.485-1.937-5.469-5.469c-.63-.63-1.656-.631-2.288 0-.631.631-.631 1.657 0 2.288l5.469 5.469 1.982.496c.32 1.061.996 2.749 2.06 2.767h.024c.949 0 1.287-.999 1.559-1.804.176-.519.375-1.109.652-1.251.208-.104.503-.111.774-.084v4.639h-11v-7.298l-1-1v9.298h13v-11h-7.298zm-5.514-.939c-.241-.241-.241-.633 0-.874.242-.241.634-.24.874 0l.11.11-.875.874-.109-.11zm5.273 5.273l-4.457-4.456.873-.873 4.456 4.457.292 1.165-1.164-.293z"/></svg>