<svg xmlns="http://www.w3.org/2000/svg" viewBox="0 0 16 16"><style>.st0{fill:#f6f6f6}.st1{fill:#424242}.st2{fill:#f0eff1}</style><path class="st0" d="M16 3V0H0v3h1v7H0v3h4.132l-2 3h3.403l.667-1h3.596l.667 1h3.403l-2-3H16v-3h-1V3z" id="outline"/><g id="icon_x5F_bg"><path class="st1" d="M4.534 8.415c.571-.037 1.187-.77 2.558-2.558.419-.547.981-1.28 1.401-1.745-.154.615-.454 1.503-.678 2.164-.811 2.395-1.054 3.274-.607 3.72a.633.633 0 0 0 .5.186c.533-.035 1.051-.651 2.288-2.272.494-.648 1.222-1.602 1.55-1.848a.5.5 0 0 0 .442-.846.643.643 0 0 0-.5-.186c-.533.036-1.05.652-2.288 2.273-.325.426-.751.985-1.098 1.387.158-.61.445-1.457.66-2.093.81-2.394 1.053-3.271.607-3.719a.665.665 0 0 0-.512-.19c-.571.038-1.187.77-2.559 2.56-.582.758-1.439 1.877-1.81 2.136a.502.502 0 0 0-.466.841.643.643 0 0 0 .512.19z"/><path class="st1" d="M15 2V1H1v1h1v9H1v1h5l-2 3h1l.667-1h4.666L11 15h1l-2-3h5v-1h-1V2h1zM6.333 13L7 12h2l.667 1H6.333zM13 11H3V2h10v9z"/></g><path class="st2" d="M3 2v9h10V2H3zm8.988 3.923a.495.495 0 0 1-.442.139c-.328.246-1.056 1.2-1.55 1.848-1.237 1.621-1.754 2.237-2.288 2.272l-.046.002a.628.628 0 0 1-.454-.188c-.447-.446-.204-1.325.607-3.72.224-.661.524-1.549.678-2.164-.42.465-.982 1.198-1.401 1.744-1.371 1.789-1.987 2.521-2.558 2.559a.644.644 0 0 1-.512-.19.502.502 0 0 1 .466-.841c.371-.259 1.229-1.378 1.81-2.136 1.372-1.789 1.987-2.522 2.559-2.56a.666.666 0 0 1 .512.19c.446.447.203 1.325-.607 3.719-.215.636-.502 1.483-.66 2.093.347-.402.773-.961 1.098-1.387 1.237-1.621 1.755-2.237 2.288-2.272a.643.643 0 0 1 .5.186.497.497 0 0 1 0 .706z" id="icon_x5F_fg"/></svg>