<svg xmlns="http://www.w3.org/2000/svg" width="16" height="16"><style type="text/css">.icon-canvas-transparent{opacity:0;fill:#F6F6F6;} .icon-vs-out{fill:#F6F6F6;} .icon-vs-bg{fill:#424242;} .icon-vs-fg{fill:#F0EFF1;}</style><path class="icon-canvas-transparent" d="M16 16h-16v-16h16v16z" id="canvas"/><path class="icon-vs-out" d="M14 3.586v9.414c-.028.825-.593 2-2.035 2h-8c-.953 0-1.965-.701-1.965-2v-11c0-1.299 1.012-2 1.964-2h6.45l3.586 3.586z" id="outline"/><path class="icon-vs-bg" d="M10 1h-6.036s-.964 0-.964 1v11c0 1 .965 1 .965 1h8l1.035-1v-9l-3-3zm-6 1h6v2h2v1h-8v-3zm0 5h8v2h-8v-2zm8 6h-8v-2h8v2z" id="iconBg"/><path class="icon-vs-fg" d="M4 11h8v2h-8v-2zm6-7v-2h-6v3h8v-1h-2zm-6 5h8v-2h-8v2z" id="iconFg"/></svg>