<svg xmlns="http://www.w3.org/2000/svg" width="16" height="16"><style type="text/css">.icon-canvas-transparent{opacity:0;fill:#F6F6F6;} .icon-vs-out{fill:#F6F6F6;} .icon-vs-bg{fill:#424242;} .icon-vs-fg{fill:#F0EFF1;} .icon-vs-action-blue{fill:#00539C;}</style><rect class="icon-canvas-transparent" width="16" height="16" id="canvas"/><polygon class="icon-vs-out" points="13.414,3 6.414,3 3.414,0 2.586,0 0,2.586 0,3.414 1.086,4.5 0,5.586 0,12.414 2.586,15 13.414,15 16,12.414 16,5.586" id="outline"/><polygon class="icon-vs-bg" points="13,4 7.414,4 8.414,5 12.586,5 14,6.414 14,11.586 12.586,13 3.414,13 2,11.586 2,6.414 2.358,6.057 2.5,5.914 1.793,5.207 1.624,5.376 1,6 1,12 3,14 13,14 15,12 15,6" id="iconBg"/><polygon class="icon-vs-fg" points="12.586,5 8.414,5 11,7.586 11,11 7.586,11 2.5,5.914 2.358,6.057 2,6.414 2,11.586 3.414,13 7.586,13 12.586,13 13.5,12.086 13.642,11.943 14,11.586 14,6.414" id="iconFg"/><g id="colorAction"><rect x="4.586" y="3.171" transform="matrix(.707 -.707 .707 .707 -2.485 6)" class="icon-vs-action-blue" width="2.828" height="5.656"/><rect x="1.086" y="1.793" transform="matrix(.707 -.707 .707 .707 -1.036 2.5)" class="icon-vs-action-blue" width="2.828" height="1.414"/><polygon class="icon-vs-action-blue" points="8,10 10,9.999 10,8"/><rect x="4.586" y="3.171" transform="matrix(.707 -.707 .707 .707 -2.485 6)" class="icon-vs-action-blue" width="2.828" height="5.656"/><rect x="1.086" y="1.793" transform="matrix(.707 -.707 .707 .707 -1.036 2.5)" class="icon-vs-action-blue" width="2.828" height="1.414"/><polygon class="icon-vs-action-blue" points="8,10 10,9.999 10,8"/></g></svg>