<svg xmlns="http://www.w3.org/2000/svg" viewBox="0 0 16 16"><style>.icon-canvas-transparent{opacity:0;fill:#f6f6f6}.icon-vs-out{fill:#f6f6f6}.icon-vs-action-blue{fill:#00539c}.st0{fill:#424242}</style><path class="icon-canvas-transparent" d="M16 0v16H0V0h16z" id="canvas"/><path class="icon-vs-out" d="M4 0v3h2.525l-2.03 2.03.97.97H0v4h5.465l-.97.97L6.525 13H3v3h13V0H4zm9 13H7.414l5-5-5-5H13v10z" id="outline"/><g id="iconBg"><path class="st0" d="M14 2H5V1h10v14H4v-1h10V2z"/><path class="icon-vs-action-blue" d="M6.97 12.03L11 8 6.97 3.97 5.909 5.03 7.879 7H1v2h6.879l-1.97 1.97z"/></g></svg>