<?xml version="1.0" encoding="utf-8"?>
<!-- Generator: Adobe Illustrator 18.0.0, SVG Export Plug-In . SVG Version: 6.00 Build 0)  -->
<!DOCTYPE svg PUBLIC "-//W3C//DTD SVG 1.1//EN" "http://www.w3.org/Graphics/SVG/1.1/DTD/svg11.dtd">
<svg version="1.1" xmlns="http://www.w3.org/2000/svg" xmlns:xlink="http://www.w3.org/1999/xlink" x="0px" y="0px" width="16px"
	 height="16px" viewBox="0 0 16 16" style="enable-background:new 0 0 16 16;" xml:space="preserve">
<style type="text/css">
	.st0{opacity:0;fill:#F6F6F6;}
	.st1{fill:#F6F6F6;fill-opacity:0;}
	.st2{fill:#F6F6F6;}
	.st3{fill:#424242;}
</style>
<g id="Outline">
	<rect class="st0" width="16" height="16"/>
	<path class="st1" d="M0,0h16v16H0V0z"/>
	<path class="st2" d="M15.419,10.5L11.896,7H11V4H7.897l2-2H6V0H0v16h10v-2h1.896L15.419,10.5z M4.074,3L3,4.081V3H4.074z M3,6.919
		L5.067,9H5v3h4.069l-1,1H3V6.919z"/>
</g>
<g id="icon_x5F_bg">
	<path class="st3" d="M2,2v12h7v1H1V1h4v1H2z"/>
	<path class="st3" d="M14,10.5L11.483,13h-2l2-2H6v-1h5.483l-2-2h2L14,10.5z"/>
	<path class="st3" d="M5.483,8L3,5.5L5.483,3h2l-2,2H10v1H5.483l2,2H5.483z"/>
	<g>
	</g>
	<g>
	</g>
	<g>
	</g>
	<g>
	</g>
	<g>
	</g>
	<g>
	</g>
</g>
</svg>
