<svg xmlns="http://www.w3.org/2000/svg" viewBox="0 0 16 16"><style>.st0{fill:#f6f6f6}.st1{fill:none}.st2{fill:#424242}.st3{fill:#f0eff1}</style><path class="st0" d="M16 0H5v4H0v12h11v-5h5z" id="outline"/><g id="icon_x5F_bg"><path class="st1" d="M2 9h3v1H2zM6 11h3v1H6zM2 7h3v1H2zM6 7h3v1H6zM6 9h3v1H6zM6 13h3v1H6zM2 11h3v1H2zM2 13h3v1H2z"/><path class="st2" d="M1 15h9V5H1v10zm5-8h3v1H6V7zm0 2h3v1H6V9zm0 2h3v1H6v-1zm0 2h3v1H6v-1zM2 7h3v1H2V7zm0 2h3v1H2V9zm0 2h3v1H2v-1zm0 2h3v1H2v-1z"/><path class="st2" d="M6 1v3h1V2h7v7h-3v1h4V1z"/></g><g id="icon_x5F_fg"><path class="st3" d="M2 9h3v1H2zM2 7h3v1H2zM2 13h3v1H2zM2 11h3v1H2zM6 9h3v1H6zM6 7h3v1H6zM7 2v2h4v5h3V2zM6 13h3v1H6zM6 11h3v1H6z"/></g></svg>