<svg xmlns="http://www.w3.org/2000/svg" viewBox="0 0 16 16"><style>.st0{opacity:0}.st0,.st1{fill:#f6f6f6}.st2{fill:#424242}.st3{fill:#f0eff1}</style><g id="outline"><path class="st0" d="M0 0h16v16H0z"/><path class="st1" d="M15 0v16H5V8H3V6H1V2h2V0h12z"/></g><g id="icon_x5F_bg"><path class="st2" d="M7 1v1h2v1h4v3H7v1h6v3H7V8H6v7h8V1H7zm6 13H7v-3h6v3z"/><path class="st2" d="M8 3H6l-.001-2H4v2H2v2h2v2h1.999V5H8z"/></g><g id="icon_x5F_fg"><path class="st3" d="M7 11h6v3H7zM7 8v2h6V7H7zM9 3h4v3H9z"/></g></svg>