<svg xmlns="http://www.w3.org/2000/svg" viewBox="0 0 16 16"><style>.st0{opacity:0;fill:none}.st1{fill:#f6f6f6}.st2{fill:#424242}.st3{fill:#00539c}</style><g id="outline"><path class="st0" d="M0 0h16v16H0z"/><path class="st1" d="M11 6v.83c-.82-.533-1.785-.816-2.893-.816a5.32 5.32 0 0 0-.768.061L9.414 4l-4-4H.586l2 2H0v14h5v-.863c.822.566 1.813.863 2.971.863.98 0 1.828-.146 2.516-.436l.513-.216V16h5V6h-5z"/></g><g id="icon_x5F_bg"><path class="st2" d="M12 7v.999h2V14h-2v1h3V7z"/><path class="st2" d="M8.82 12.148h-.025c-.234.699-.693 1.047-1.375 1.047a1.3 1.3 0 0 1-1.053-.488c-.268-.326-.4-.766-.4-1.314 0-.731.184-1.336.549-1.818.365-.482.848-.723 1.445-.723.229 0 .43.063.609.186.18.125.293.275.346.449h.016c.01-.09.033-.277.072-.557h.809c-.152 1.709-.229 2.58-.229 2.611 0 .643.168.963.502.963.307 0 .561-.178.76-.537.203-.357.303-.822.303-1.393 0-.842-.271-1.529-.816-2.061-.544-.534-1.3-.8-2.265-.8-.928 0-1.691.323-2.301.969-.607.643-.912 1.449-.912 2.42 0 .955.293 1.725.877 2.311.586.586 1.373.881 2.363.881.783 0 1.451-.133 2.004-.4v.75c-.568.237-1.277.356-2.128.356-1.195 0-2.16-.356-2.889-1.068-.732-.711-1.098-1.644-1.098-2.797 0-1.189.387-2.17 1.16-2.95.773-.781 1.76-1.171 2.963-1.171 1.127 0 2.061.327 2.801.981.738.655 1.107 1.509 1.107 2.56 0 .771-.199 1.404-.602 1.898-.4.496-.891.742-1.469.742-.745 0-1.122-.347-1.124-1.047zm-.777-2.607c-.355 0-.645.174-.863.523-.221.352-.33.787-.33 1.309 0 .348.074.625.221.828a.702.702 0 0 0 .594.303c.355 0 .639-.184.85-.553.207-.365.311-.853.311-1.457-.002-.639-.262-.953-.783-.953zM2 7H1v8h3v-1H2z"/></g><path class="st3" d="M5 1H3l2 2H1v2h4L3 7h2l3-3z" id="color_x5F_action"/></svg>