<svg xmlns="http://www.w3.org/2000/svg" viewBox="0 0 16 16"><style>.st0{fill:#f6f6f6}.st1{fill:#424242}.st2{fill:#00539c}.st3{fill:#f0eff1}</style><path class="st0" d="M11 5v1H9.414l2-2H6.586L6 4.586V0H0v6h4.586l-2 2 2 2H0v6h6v-4.586l.586.586h4.828l-2-2H11v1h5V5z" id="outline"/><g id="icon_x5F_bg"><path class="st1" d="M1 11h4v4H1zM15 7V6h-3v4h3V9h-2V7zM1 1h4v4H1z"/></g><path class="st2" d="M7 5h2L7 7h4v2H7l2 2H7L4 8z" id="color_x5F_action"/><path class="st3" d="M13 7h2v2h-2V7z" id="icon_x5F_fg"/></svg>