<svg xmlns="http://www.w3.org/2000/svg" viewBox="0 0 16 16"><style>.st0{fill:#f6f6f6}.st1{fill:#424242}.st2{fill:#f0eff1}</style><path class="st0" d="M9 3L6 0H0l2 2H0v4h2L0 8h3v8h13V3z" id="outline"/><g id="icon_x5F_bg"><path class="st1" d="M5 7l3-3-3-3H3l2 2H1v2h4L3 7zM10 4L9 5h5v9H5V8H4v7h11V4z"/><path class="st1" d="M8 6h1v1H8zM6 10h1v1H6zM6 12h1v1H6zM6 8h1v1H6zM8 10h1v1H8zM8 12h1v1H8zM8 8h1v1H8zM12 10h1v1h-1zM12 6h1v1h-1zM12 8h1v1h-1zM12 12h1v1h-1zM10 12h1v1h-1zM10 8h1v1h-1zM10 10h1v1h-1zM10 6h1v1h-1z"/></g><path class="st2" d="M9 5L8 6h1v1H8V6L6 8h1v1H6V8H5v6h9V5H9zm-2 8H6v-1h1v1zm0-2H6v-1h1v1zm2 2H8v-1h1v1zm0-2H8v-1h1v1zm0-2H8V8h1v1zm2 4h-1v-1h1v1zm0-2h-1v-1h1v1zm0-2h-1V8h1v1zm0-2h-1V6h1v1zm2 6h-1v-1h1v1zm0-2h-1v-1h1v1zm0-2h-1V8h1v1zm0-2h-1V6h1v1z" id="icon_x5F_fg"/></svg>