<svg xmlns="http://www.w3.org/2000/svg" viewBox="0 0 16 16"><style>.st0{opacity:0}.st0,.st1{fill:#f6f6f6}.st2{fill:#424242}.st3{fill:#388a34}.st4{fill:#f0eff1}</style><g id="outline"><path class="st0" d="M0 0h16v16H0z"/><path class="st1" d="M9 3V2H7V0H3v2H1v4h2v2h1v7h11V3z"/></g><g id="icon_x5F_bg"><path class="st2" d="M7 13h1v1H7zM5 13h1v1H5zM5 8h1v4H5zM9 13h1v1H9zM13 13h1v1h-1zM11 13h1v1h-1zM9 5V4h5v8h-1V5H9"/></g><g id="color_x5F_importance"><path id="Foreground_1_" class="st3" d="M8 3.018H6V1H4.019v2.018H2V5h2.019v2H6V5h2z"/></g><path class="st4" d="M13 5H9v1H7v2H6v5h7z" id="icon_x5F_fg"/></svg>