<svg xmlns="http://www.w3.org/2000/svg" viewBox="0 0 16 16"><style>.st0{fill:#f6f6f6}.st1{fill:#424242}.st2{fill:#00539c}.st3{fill:#f0eff1}</style><path class="st0" d="M12.061 0H7c-.342 0-.69.092-1 .262V0H3.5a2.505 2.505 0 0 0-2.373 1.713L0 .586v4.328l1.229 1.229C.555 6.407 0 7.039 0 8v6c0 1.299 1.012 2 1.964 2h5C8.405 16 8.971 14.825 9 14h5c1.299 0 2-1.03 2-2V3.556L12.061 0zM5 6H3.914L5 4.914V6z" id="outline"/><g id="icon_x5F_bg"><path class="st1" d="M6.313 7h-4.35S1 7 1 8v6c0 1 .964 1 .964 1h5C7.964 15 8 14 8 14V9.137L6.313 7zM7 12v2H2V8h3v2h2v2z"/><path class="st1" d="M11.641 1H6.964S6 1 6 2v4h.797L7 6.257V2h4v3h3v7H9v1h4.965c1 0 1.035-1 1.035-1V4l-3.359-3z"/></g><path class="st2" d="M4 4.5V3L3 4V2.5c0-.275.225-.5.5-.5H5V1H3.5C2.673 1 2 1.672 2 2.5V4L1 3v1.5L2.5 6 4 4.5z" id="color_x5F_action"/><g id="icon_x5F_fg"><path class="st3" d="M5 8H2v6h5v-4H5zM11 5V2H7v4.257L9 8.79V12h5V5z"/></g></svg>