<svg xmlns="http://www.w3.org/2000/svg" viewBox="0 0 16 16"><style>.st0{fill:#f6f6f6}.st1{fill:#424242}.st2{fill:#00539c}.st3{fill:#f0eff1}</style><path class="st0" d="M9 5l1-1-4-4H0l2 2H0v4h1v1L0 8h1v8h15V5z" id="outline"/><g id="icon_x5F_bg"><path class="st1" d="M2 10h1v1H2zM2 8h1v1H2zM6 14h1v1H6zM4 14h1v1H4zM2 14h1v1H2zM8 6h1v1H8zM10 6h1v1h-1zM8 14h1v1H8zM2 12h1v1H2zM14 12h1v1h-1zM14 14h1v1h-1zM14 10h1v1h-1zM14 8h1v1h-1zM14 6h1v1h-1zM10 9l1 1H9V8H8v2H6l1-1H5.5L4 10.5 5.5 12H7l-1-1h2v2h1v-2h2l-1 1h1.5l1.5-1.5L11.5 9zM12 14h1v1h-1zM12 6h1v1h-1zM10 14h1v1h-1z"/></g><path class="st2" d="M3 1l2 2H1v2h4L3 7h2l3-3-3-3z" id="color_x5F_action"/><path class="st3" d="M7 7L6 8H3v6h11V7H7zm4.5 5H10l1-1H9v2H8v-2H6l1 1H5.5L4 10.5 5.5 9H7l-1 1h2V8h1v2h2l-1-1h1.5l1.5 1.5-1.5 1.5z" id="icon_x5F_fg"/></svg>