<svg xmlns="http://www.w3.org/2000/svg" viewBox="0 0 16 16"><style>.st0{opacity:0}.st0,.st1{fill:#f6f6f6}.st2{fill:#424242}.st3{fill:#f0eff1}</style><g id="outline"><path class="st0" d="M0 0h16v16H0z"/><path class="st1" d="M16 6V2h-4v1H9V0H1v2H0v4h1v1H0v3h1v1H0v4h4v-1h3v1h3v-1h2v1h4v-4h-1v-1h1V7h-1V6z"/></g><path class="st2" d="M15 5V3h-2v1H8V1H2v2H1v2h1v3H1v1h1v3H1v2h2v-1h5v1h1v-1h4v1h2v-2h-1V9h1V8h-1V5h1zM3 2h4v2H3V2zm10 10H3V5h10v7z" id="icon_x5F_bg"/><g id="icon_x5F_fg"><path class="st3" d="M3 5h10v7H3zM3 2h4v2H3z"/></g></svg>