<svg xmlns="http://www.w3.org/2000/svg" viewBox="0 0 16 16"><style>.st0{opacity:0}.st0,.st1{fill:#f6f6f6}.st2{fill:none}.st3{fill:#424242}.st4{fill:#388a34}.st5{fill:#f0eff1}</style><g id="outline"><path class="st0" d="M0 0h16v16H0z"/><path class="st1" d="M6 1V0H2.018v1H1v1.018H0V6h1v9h15V1z"/></g><g id="icon_x5F_bg"><path class="st2" d="M11.001 8h3v2h-3zM11.001 11h3v2h-3zM3 11h3v2H3zM11.001 5h3v2h-3z"/><path class="st3" d="M8 2v4H6v4H3V8H2v6h13V2H8zM6 13H3v-2h3v2zm8.001 0h-3v-2h3v2zm0-3h-3V8h3v2zm0-3h-3V5h3v2z"/></g><path class="st4" d="M3.018 5H1V3.018h2.018V1H5v2.018h2V5H5v2H3.018V5z" id="color_x5F_importance"/><g id="icon_x5F_fg"><path class="st5" d="M11 5h3v2h-3zM11 8h3v2h-3zM3 8h3v2H3zM11 11h3v2h-3zM3 11h3v2H3z"/></g></svg>