<svg xmlns="http://www.w3.org/2000/svg" width="16" height="16"><style type="text/css">.icon-canvas-transparent{opacity:0;fill:#F6F6F6;} .icon-vs-out{fill:#F6F6F6;} .icon-vs-bg{fill:#424242;} .icon-vs-action-blue{fill:#00539C;}</style><path class="icon-canvas-transparent" d="M16 16h-16v-16h16v16z" id="canvas"/><path class="icon-vs-out" d="M14 8v-5h-6v.586l-3.586-3.586h-3.414v1.414l.586.586h-1.586v4h1.586l-.586.586v1.414h3v1h-4v5h6v2h10v-8h-2zm-6-2h-1.586l1.586-1.586v1.586z" id="outline"/><path class="icon-vs-bg" d="M10 11h-4v2h-5v-3h4v-3h4v-3h4v4h-3v3zm1-2v3h-4v3h8v-6h-4z" id="iconBg"/><path class="icon-vs-action-blue" d="M4 5h-3v-2h3l-2-2h2l3 3-3 3h-2l2-2z" id="colorAction"/></svg>