<svg xmlns="http://www.w3.org/2000/svg" viewBox="0 0 16 16"><style>.st0{fill:#f6f6f6}.st1{fill:#848484}</style><path class="st0" d="M16 7.019L9.39 0H8V10.78c-.532-.479-1.229-.78-2-.78s-1.468.301-2 .78V8.586l-4 4v.828L2.586 16H4v-.78c.532.479 1.229.78 2 .78s1.468-.301 2-.78V16h1.414l3-3-2.68-2.68.961-1.266 1.295 3.293 3.297-1.381L13.968 8H16v-.981z" id="outline"/><g id="icon_x5F_bg"><path class="st1" d="M3 15v-1l-1-1 1-1v-1l-2 2z"/><circle class="st1" cx="6" cy="13" r="2"/><path class="st1" d="M9 12l1 1-1 1v1l2-2-2-2zM10.952 7l1.549 4 1.116-.604-1.077-3.337 2.164-.151L9 1.037v8.267z"/></g></svg>