<svg xmlns="http://www.w3.org/2000/svg" viewBox="0 0 16 16"><style>.st0{opacity:0}.st0,.st1{fill:#f6f6f6}.st2{fill:#424242}</style><g id="outline"><path class="st0" d="M0 0h16v16H0z"/><path class="st1" d="M16 6.188L9.366 0H8V10.78c-.532-.479-1.229-.78-2-.78s-1.468.301-2 .78V8.586l-4 4v.828L2.586 16H4v-.78c.532.479 1.229.78 2 .78s1.468-.301 2-.78V16h1.414l3-3-2.794-2.794.952-1.125 1.359 3.1 3.287-1.482-1.328-3.038 2.11.107v-1.58z"/></g><g id="icon_x5F_bg"><path class="st2" d="M3 15v-1l-1-1 1-1v-1l-2 2z"/><circle class="st2" cx="6" cy="13" r="2"/><path class="st2" d="M9 12l1 1-1 1v1l2-2-2-2zM12.441 10.854l1.465-.661-1.579-3.612 2.779.14L9 1.026v8.365l1.845-2.18z"/></g></svg>