<svg xmlns="http://www.w3.org/2000/svg" viewBox="0 0 31 18"><style>.st0{fill:#f6f6f6}.st1{fill:#424242}.st2{fill:#f0eff1}</style><g id="outline"><path class="st0" d="M24 9l2-2V1l-2 2V1h-4v2l-2-2v6l2 2h-6v6h1v1h4v-1h6v1h4v-1h1V9zM0 3h12v12H0z"/></g><path class="st1" d="M1 4v10h10V4H1zm9 9H2V5h8v8zm-5-1L3.5 9H5l.5 1 2-4H9l-3 6H5zm10-2v4h1v1h2v-1h8v1h2v-1h1v-4H15zm2 2h-1v-1h1v1zm8-8v2l-3 3-3-3V4l2 2V2h2v4l2-2z" id="icon_x5F_bg"/><path class="st2" d="M2 13h8V5H2v8zm3-4l.5 1 2-4H9l-3 6H5L3.5 9H5zm12 3h-1v-1h1v1z" id="icon_x5F_fg"/></svg>