<svg xmlns="http://www.w3.org/2000/svg" viewBox="0 0 16 16"><style>.st0{opacity:0}.st0,.st1{fill:#f6f6f6}.st2{fill:#424242}.st3{fill:#f0eff1}</style><g id="outline"><path class="st0" d="M0 0h16v16H0z"/><path class="st1" d="M15 4l-3-3H6v2H3c-.969 0-2 .702-2 2v8c0 1.299 1.031 2 2 2h6c1.299 0 2-1.029 2-2v-1h4V4z"/></g><g id="icon_x5F_bg"><path class="st2" d="M7.625 4H2.964S2 4 2 5v8c0 1 .965 1 .965 1h6c1 0 1.035-1 1.035-1V6.137L7.625 4zM9 8v5H3V5h4v2h2v1zM9 2h1v1H9zM7 2h1v1H7zM13 8h1v1h-1zM13 6h1v1h-1zM13 4h1v1h-1zM11 2h1v1h-1zM11 4h1v1h-1zM11 10h1v1h-1zM13 10h1v1h-1z"/><path class="st2" d="M4 7h3v1H4zM4 9h4v1H4zM4 11h4v1H4z"/></g><path class="st3" d="M7 6.96V5H3v8h6V6.996L7 6.96zM4 7h3v1H4V7zm4 5H4v-1h4v1zm0-2H4V9h4v1z" id="icon_x5F_fg"/></svg>