<svg xmlns="http://www.w3.org/2000/svg" viewBox="0 0 31 18"><style>.st0{fill:#f6f6f6}.st1{fill:#424242}.st2{fill:#f0eff1}</style><path class="st0" d="M0 3h12v12H0V3zm31 9l-1.209-1.209A7.944 7.944 0 0 0 30 9a8 8 0 1 0-8 8h6l3-3v-2z" id="outline"/><g id="icon_x5F_bg"><path class="st1" d="M1 14h10V4H1v10zm1-9h8v8H2V5z"/><path class="st1" d="M5.5 10L5 9H3.5L5 12h1l3-6H7.5zM27 10h-2l2 2h-6v2h6l-2 2h2l3-3zM22 8a1 1 0 0 1 1 1h1a2 2 0 0 0-2-2 2.044 2.044 0 0 0-1.277.472l-.032.027a1.93 1.93 0 0 0-.627 1.019A2.008 2.008 0 0 0 20 9a2 2 0 0 0 2 2c.322 0 .621-.083.891-.218v-.001c.192-.097.359-.23.511-.38l-.694-.694A1 1 0 1 1 22 8zM19.565 7.26l-3.256-2.325a6.959 6.959 0 0 0-1.093 2.369l3.883.971c.091-.371.25-.713.466-1.015z"/><path class="st1" d="M22 6a3 3 0 0 1 3 3h4a7 7 0 0 0-7-7 6.963 6.963 0 0 0-3.128.744l1.792 3.583A2.973 2.973 0 0 1 22 6zM20 11.222A2.982 2.982 0 0 1 19 9h-4a7 7 0 0 0 7 7c.375 0 .739-.04 1.098-.098L24 15h-4v-3.778z"/></g><g id="icon_x5F_fg"><path class="st2" d="M2 13h8V5H2v8zm3-4l.5 1 2-4H9l-3 6H5L3.5 9H5zM28 9l.93.93c.043-.305.07-.614.07-.93h-1zM23.401 10.401c-.032.031-.058.07-.092.1l-.033.026a1.996 1.996 0 0 1-.386.254A1.965 1.965 0 0 1 22 11h2l-.599-.599zM22 6c-.482 0-.933.125-1.336.327l-1.792-3.583a7.033 7.033 0 0 0-2.564 2.19l3.256 2.325a2.974 2.974 0 0 0-.466 1.015l-3.88-.971A6.94 6.94 0 0 0 15 9h4c0 .885.391 1.672 1 2.222V11h2a2 2 0 0 1-2-2c0-.167.026-.328.065-.482a1.971 1.971 0 0 1 .625-1.019A2.044 2.044 0 0 1 22 7a2 2 0 0 1 2 2h1a3 3 0 0 0-3-3z"/></g></svg>