<svg xmlns="http://www.w3.org/2000/svg" viewBox="0 0 31 18"><style>.st0{fill:#f6f6f6}.st1{fill:#424242}.st2{fill:#f0eff1}</style><g id="outline"><path class="st0" d="M0 3h12v12H0zM24 9l2-2V1l-2 2V1h-4v2l-2-2v6l2 2h-6v6h1v1h4v-1h6v1h4v-1h1V9z"/></g><path class="st1" d="M15 10v4h1v1h2v-1h8v1h2v-1h1v-4H15zm2 2h-1v-1h1v1zm8-8v2l-3 3-3-3V4l2 2V2h2v4l2-2zM11 4v10H1V4h10zm-1 1H2v8h8V5zm-2 6H4V7h4v4z" id="icon_x5F_bg"/><path class="st2" d="M17 12h-1v-1h1v1zm-7-7H2v8h8V5zm-2 6H4V7h4v4z" id="icon_x5F_fg"/></svg>