<svg xmlns="http://www.w3.org/2000/svg" viewBox="0 0 16 16"><style>.st0{opacity:0}.st0,.st1{fill:#f6f6f6}.st2{fill:#424242}</style><g id="outline"><path class="st0" d="M0 0h16v16H0z"/><path class="st1" d="M13.432 6.034l1.5-1.5-2.914-2.931L10.604 3h-.172L7.417 0h-.796L2.104 4.525 4.569 7H2v2.586l-2-2v4.828L3.586 16h.828L8 12.414V10h1.604l1.965 2h.896l3.467-3.466-2.5-2.5zM7 8.568L6 9.586v-2.12l1-1.018v2.12z"/></g><g id="icon_x5F_bg"><path class="st2" d="M5 8H3v4l-2-2v2l3 3 3-3v-2l-2 2zM13.018 7.034l-1 1h-3v-3h1l-.5.5 1.5 1.5 2.5-2.5-1.5-1.5-1 1h-3l1-1-2-2-3.5 3.5 2 2 1.5-1.5h1v4h3l-.5.5 1.5 1.5 2.5-2.5z"/></g></svg>