<svg xmlns="http://www.w3.org/2000/svg" viewBox="0 0 16 16"><style>.st0{opacity:0;fill-rule:evenodd;clip-rule:evenodd}.st0,.st1{fill:#f6f6f6}.st1,.st2{fill-rule:evenodd;clip-rule:evenodd}.st2,.st3{fill:#424242}</style><g id="outline"><path class="st0" d="M0 0h16v16H0z"/><path class="st1" d="M3.699 12.414L7 9.113V16h.739l1.598-1.755.778 1.755h.867l2.287-1.04-.867-1.966h3.533L10.552 8H14V5h-2.887l2.301-2.301L11.301.586 9 2.887V0H6v2.887L3.699.586 1.586 2.699 3.887 5H1v3h2.887l-2.301 2.301z"/></g><g id="icon_x5F_bg"><path class="st2" d="M2 6h4v1H2z"/><path transform="rotate(-45.001 5 9)" class="st2" d="M2.666 8.506h4.668v.989H2.666z"/><path transform="rotate(-45.001 10 4)" class="st2" d="M7.666 3.506h4.668v.989H7.666z"/><path class="st2" d="M7 1h1v4H7z"/><path transform="rotate(-45.001 5 4)" class="st2" d="M4.506 1.666h.989v4.668h-.989z"/><path class="st3" d="M11.955 14.459l-1.086-2.465h2.518L8 6.996v7.231l1.629-1.788L10.766 15z"/><path class="st2" d="M9 6h4v1H9z"/></g></svg>