<svg xmlns="http://www.w3.org/2000/svg" viewBox="0 0 16 16"><style>.icon-canvas-transparent{opacity:0;fill:#f6f6f6}.icon-vs-out{fill:#f6f6f6}.icon-vs-fg{fill:#f0eff1}.icon-vs-action-blue{fill:#00539c}</style><path class="icon-canvas-transparent" d="M16 16H0V0h16v16z" id="canvas"/><path class="icon-vs-out" d="M11.5 3C9.586 3 7.899 4.24 7.273 6H5.591A2.99 2.99 0 0 0 3 4.5c-1.654 0-3 1.346-3 3s1.346 3 3 3c1.088 0 2.066-.59 2.591-1.5h1.683c.626 1.758 2.313 3 4.227 3 2.481 0 4.5-2.02 4.5-4.5A4.506 4.506 0 0 0 11.5 3z" id="outline"/><path class="icon-vs-fg" d="M11.5 9A1.501 1.501 0 1 1 13 7.5c0 .826-.673 1.5-1.5 1.5z" id="iconFg"/><path class="icon-vs-action-blue" d="M11.5 4C9.741 4 8.296 5.308 8.051 7H4.929A1.995 1.995 0 0 0 1 7.5a1.995 1.995 0 1 0 3.929.5h3.122c.245 1.691 1.69 3 3.449 3 1.93 0 3.5-1.57 3.5-3.5C15 5.569 13.43 4 11.5 4zm0 5A1.501 1.501 0 1 1 13 7.5c0 .826-.673 1.5-1.5 1.5z" id="iconBg"/></svg>