<svg xmlns="http://www.w3.org/2000/svg" viewBox="0 0 16 16"><style>.icon-canvas-transparent{opacity:0;fill:#f6f6f6}.icon-vs-out{fill:#f6f6f6}.icon-vs-bg{fill:#424242}.icon-vs-fg{fill:#f0eff1}</style><path class="icon-canvas-transparent" d="M16 16H0V0h16v16z" id="canvas"/><path class="icon-vs-out" d="M2 13V2h7v1h5v3H9v1h5v6H2z" id="outline"/><path class="icon-vs-fg" d="M7 5H4V4h3v1z" id="iconFg"/><g id="iconBg"><path class="icon-vs-bg" d="M13 5H9V4h4v1zm0 3h-2v1h2V8zM9 8H3v1h6V8zm-2 3H3v1h4v-1zm6 0H9v1h4v-1zM8 3v3H3V3h5zM7 4H4v1h3V4z"/></g></svg>