<svg xmlns="http://www.w3.org/2000/svg" viewBox="0 0 16 16"><style>.st0{fill:#f6f6f6}.st1{fill:#424242}.st2{fill:#f0eff1}</style><path class="st0" d="M12.061 0H6c-.97 0-2 .701-2 2v9.519A2.47 2.47 0 0 0 2.5 11C1.122 11 0 12.121 0 13.5S1.122 16 2.5 16a2.5 2.5 0 0 0 1.994-1h.013c.463.617 1.198 1 1.994 1 1.207 0 2.217-.86 2.449-2H14c1.299 0 2-1.03 2-2V3.556L12.061 0z" id="outline"/><g id="icon_x5F_bg"><path class="st1" d="M6.5 12c-.652 0-1.202.419-1.408 1H3.908A1.495 1.495 0 0 0 1 13.5a1.495 1.495 0 1 0 2.908.5h1.184A1.495 1.495 0 0 0 8 13.5 1.5 1.5 0 0 0 6.5 12zm0 2a.5.5 0 1 1 0-1 .5.5 0 0 1 0 1z"/><path class="st1" d="M11.641 1H5.964S5 1 5 2v9.519a2.471 2.471 0 0 1 1-.459V2h5v3h3v7H8.487c.221.292.386.628.462 1h5.016c1 0 1.035-1 1.035-1V4l-3.359-3z"/></g><g id="icon_x5F_fg"><circle class="st2" cx="6.5" cy="13.5" r=".5"/><path class="st2" d="M11 5V2H6v9.06c.163-.035.329-.06.5-.06.813 0 1.531.396 1.987 1H14V5h-3z"/></g></svg>