<svg xmlns="http://www.w3.org/2000/svg" viewBox="0 0 16 16"><style>.st0{opacity:0}.st0,.st1{fill:#f6f6f6}.st2{fill:#424242}.st3{fill:#fc0}.st4{fill:#f0eff1}</style><g id="outline"><path class="st0" d="M0 0h16v16H0z"/><path class="st1" d="M13 6v2h2v6H6.414l-2 2H2.382l1.5-3H2v-1.236L4.382 7H7V6H5V0h10v6h-2z"/></g><g id="icon_x5F_bg"><path class="st2" d="M9 8.414V10H7.414z"/><path class="st2" d="M14 5V1H6v4h2v2h1V4H7V2h6v2h-2v6h2v2H8.414l-1 1H14V9h-2V5z"/><path class="st3" d="M5 8l-2 4h2.5L4 15l4-4H5l3-3z"/></g><path class="st4" d="M13 4V2H7v2h2v7.414L8.414 12H13v-2h-2V4z" id="icon_x5F_fg"/></svg>