<svg xmlns="http://www.w3.org/2000/svg" viewBox="0 0 16 16"><style>.st0{opacity:0}.st0,.st1{fill:#f6f6f6}.st2{fill:#424242}.st3{fill:#f0eff1}</style><g id="outline"><path class="st0" d="M0 0h16v16H0z"/><path class="st1" d="M16 0H0v15h11v-1h5z"/></g><g id="icon_x5F_bg"><path class="st2" d="M7 12V9H4v1h1.293L4 11.293l.707.707L6 10.707V12zM1 5h1v1H1zM3 7.001h1V8H3zM5 13h1v1H5zM3 5h1v1H3zM3 13h1v1H3zM1 13h1v1H1zM1 11h1v1H1zM1 7h1v1H1zM1 9h1v1H1zM9 11h1v1H9zM9 9h1v1H9zM9 13h1v1H9zM9 7h1v1H9zM9 5h1v1H9z"/><path class="st2" d="M1 1v3h13v8h-3v1h4V1z"/><path class="st2" d="M7 7.001h1V8H7zM7 13h1v1H7zM5 5h1v1H5zM5 7.001h1V8H5zM7 5h1v1H7z"/></g><path class="st3" d="M14 12h-3V4h3v8z" id="icon_x5F_fg"/></svg>