<svg xmlns="http://www.w3.org/2000/svg" viewBox="0 0 16 16"><style>.st0{opacity:0}.st0,.st1{fill:#f6f6f6}.st2{fill:none}.st3{fill:#424242}.st4{fill:#f0eff1}</style><g id="outline"><path class="st0" d="M0 0h16v16H0z"/><path class="st1" d="M16 14H0V1h16v13z"/></g><g id="icon_x5F_bg"><path class="st2" d="M10 3H2v7h8V3zM5 9H3V7h2v2zm0-5h2v2H5V4zm4 5H7V7h2v2z"/><path class="st2" d="M11 11H2v1h12V3h-3z"/><path class="st3" d="M1 2v11h14V2H1zm1 1h8v7H2V3zm12 9H2v-1h9V3h3v9z"/><path class="st3" d="M5 4h2v2H5zM3 7h2v2H3zM7 7h2v2H7z"/></g><g id="icon_x5F_fg"><path class="st2" d="M7 7h2v2H7zM5 4h2v2H5zM3 7h2v2H3z"/><path class="st4" d="M10 3H2v7h8V3zM5 9H3V7h2v2zm0-5h2v2H5V4zm4 5H7V7h2v2z"/><path class="st4" d="M11 3v8H2v1h12V3z"/></g></svg>