<svg xmlns="http://www.w3.org/2000/svg" viewBox="0 0 16 16"><style>.icon-canvas-transparent{opacity:0;fill:#f6f6f6}.icon-vs-out{fill:#f6f6f6}.icon-vs-bg{fill:#424242}.icon-vs-fg{fill:#f0eff1}</style><path class="icon-canvas-transparent" d="M16 16H0V0h16v16z" id="canvas"/><path class="icon-vs-out" d="M0 0v13h3v3h1.443l3.6-3H16V0H0z" id="outline"/><path class="icon-vs-fg" d="M2 2v9h3v1.933L7.319 11H14V2H2zm6 4c0 1.085-.696 2.148-1.102 2.497-.215.185-.538.312-.898.393V7.696c.561-.383.833-1.058.833-1.616v-.123L6 6V4h2v2zm3 0c0 1.085-.696 2.148-1.102 2.497-.215.185-.538.312-.898.393V7.696c.561-.383.833-1.058.833-1.616v-.123L9 6V4h2v2z" id="iconFg"/><g id="iconBg"><path class="icon-vs-bg" d="M4 15.067V12H1V1h14v11H7.681L4 15.067zM2 11h3v1.933L7.319 11H14V2H2v9zm7-7h2v2c0 1.085-.696 2.148-1.102 2.497-.215.185-.538.312-.898.393V7.696c.561-.383.833-1.058.833-1.616v-.123L9 6V4zM6 4h2v2c0 1.085-.696 2.148-1.102 2.497-.215.185-.538.312-.898.393V7.696c.561-.383.833-1.058.833-1.616v-.123L6 6V4z"/></g></svg>