<?xml version="1.0" encoding="iso-8859-1"?>
<!-- Generator: Adobe Illustrator 21.0.0, SVG Export Plug-In . SVG Version: 6.00 Build 0)  -->
<svg version="1.1" xmlns="http://www.w3.org/2000/svg" xmlns:xlink="http://www.w3.org/1999/xlink" x="0px" y="0px"
	 viewBox="0 0 16 16" style="enable-background:new 0 0 16 16;" xml:space="preserve">
<style type="text/css">
	.icon_x002D_canvas_x002D_transparent{opacity:0;fill:#F6F6F6;}
	.icon_x002D_vs_x002D_out{fill:#F6F6F6;}
	.icon_x002D_vs_x002D_bg{fill:#424242;}
	.icon_x002D_vs_x002D_fg{fill:#F0EFF1;}
	.icon_x002D_vs_x002D_blue{fill:#1BA1E2;}
</style>
<g id="canvas">
	<path class="icon_x002D_canvas_x002D_transparent" d="M16,16H0V0h16V16z"/>
</g>
<g id="outline">
	<path class="icon_x002D_vs_x002D_out" d="M16,2.062V10c0,0.971-0.701,2-2,2h-4v1c0,1.711-2.149,3-5,3s-5-1.289-5-3V7
		c0-1.711,2.149-3,5-3c0.345,0,0.678,0.021,1,0.057V2c0-1.299,1.031-2,2-2h5.547L16,2.062z"/>
</g>
<g id="iconBg">
	<path class="icon_x002D_vs_x002D_bg" d="M15,3.136V10c0,0-0.059,1-1.059,1c-0.57,0-2.438,0-3.941,0v-1h4V6V5V4h-2V2H8v2.579
		C7.691,4.444,7.362,4.323,7,4.233C7,3.155,7,2.304,7,2c0-1,0.941-1,0.941-1h4.66L15,3.136z M9,5h3V4H9V5z M13,6H9.677
		C9.875,6.31,10,6.645,10,7h3V6z M13,8h-3v1h3V8z"/>
</g>
<g id="iconFg">
	<path class="icon_x002D_vs_x002D_fg" d="M8.325,7c0,0.527-1.326,1.325-3.325,1.325S1.675,7.527,1.675,7S3.001,5.675,5,5.675
		S8.325,6.473,8.325,7z M12,4v1H9V4H12V3.96V2H8v2.568C8.654,4.918,9.303,5.413,9.677,6H13v1h-3v1h3v1h-3v1h4V4H12z"/>
</g>
<g id="colorImportance">
	<path class="icon_x002D_vs_x002D_blue" d="M5,5C2.791,5,1,5.896,1,7v6c0,1.104,1.791,2,4,2s4-0.896,4-2V7C9,5.896,7.209,5,5,5z
		 M5,8.325C3.001,8.325,1.675,7.527,1.675,7S3.001,5.675,5,5.675S8.325,6.473,8.325,7S6.999,8.325,5,8.325z"/>
</g>
</svg>
