<svg xmlns="http://www.w3.org/2000/svg" viewBox="0 0 16 16"><style>.icon-canvas-transparent{opacity:0;fill:#f6f6f6}.icon-vs-out{fill:#f6f6f6}.icon-vs-bg{fill:#424242}.icon-vs-red{fill:#e51400}.icon-white{fill:#fff}</style><path class="icon-canvas-transparent" d="M16 0v16H0V0h16z" id="canvas"/><path class="icon-vs-out" d="M16 11.5a4.5 4.5 0 0 1-4.5 4.5c-2.314 0-4.198-1.753-4.45-4H0l.122-1.109a5.644 5.644 0 0 1 2.052-3.749 4.425 4.425 0 0 1-.918-2.7A4.445 4.445 0 0 1 5.697 0a4.446 4.446 0 0 1 4.44 4.441c0 .991-.33 1.936-.918 2.7.119.097.216.216.326.322A4.473 4.473 0 0 1 11.5 7a4.5 4.5 0 0 1 4.5 4.5z" id="outline"/><path class="icon-vs-bg" d="M8.692 8.01A4.592 4.592 0 0 0 7.6 7.304 3.439 3.439 0 0 0 5.697 1a3.446 3.446 0 0 0-3.442 3.441c0 1.194.612 2.245 1.538 2.863A4.62 4.62 0 0 0 1.116 11h1.013c.246-1.757 1.744-3.118 3.568-3.118.874 0 1.668.318 2.29.837.208-.262.444-.499.705-.709zM5.697 6.882a2.443 2.443 0 0 1-2.441-2.441A2.442 2.442 0 0 1 5.697 2a2.443 2.443 0 0 1 2.44 2.441 2.444 2.444 0 0 1-2.44 2.441z" id="iconBg"/><path class="icon-vs-red" d="M11.5 8a3.5 3.5 0 1 0 0 7 3.5 3.5 0 0 0 0-7zM9 12v-1h5v1H9z" id="notificationBg"/><g id="notificationFg"><path class="icon-white" d="M14 11v1H9v-1h5z"/></g></svg>