<?xml version="1.0" encoding="utf-8"?>
<!-- Generator: Adobe Illustrator 18.1.1, SVG Export Plug-In . SVG Version: 6.00 Build 0)  -->
<!DOCTYPE svg PUBLIC "-//W3C//DTD SVG 1.1//EN" "http://www.w3.org/Graphics/SVG/1.1/DTD/svg11.dtd">
<svg version="1.1" xmlns="http://www.w3.org/2000/svg" xmlns:xlink="http://www.w3.org/1999/xlink" x="0px" y="0px" width="16px"
	 height="16px" viewBox="0 0 16 16" style="enable-background:new 0 0 16 16;" xml:space="preserve">
<style type="text/css">
	.icon-canvas-transparent{opacity:0;fill:#F6F6F6;}
	.icon-vs-out{fill:#F6F6F6;}
	.icon-vs-bg{fill:#424242;}
	.icon-vs-fg{fill:#F0EFF1;}
</style>
<g id="canvas">
	<path class="icon-canvas-transparent" d="M16,16H0V0h16V16z"/>
</g>
<g id="outline">
	<path class="icon-vs-out" d="M16,4v8H1V4H16z"/>
</g>
<g id="iconBg">
	<path class="icon-vs-bg" d="M2,5v6h13V5H2z M14,10H3V6h11V10z M6,9H5V8h1V9z M9,9H8V8h1V9z M12,9h-1V8h1V9z"/>
</g>
<g id="iconFg">
	<path class="icon-vs-fg" d="M3,6v4h11V6H3z M6,9H5V8h1V9z M9,9H8V8h1V9z M12,9h-1V8h1V9z"/>
</g>
</svg>
