<svg xmlns="http://www.w3.org/2000/svg" viewBox="0 0 16 16"><style>.st0{opacity:0}.st0,.st1{fill:#f6f6f6}.st2{fill:#424242}</style><g id="outline"><path class="st0" d="M0 0h16v16H0z"/><path class="st1" d="M12.639 2.648l-.179-.093c-.257-.134-.524-.289-.807-.45C10.275 1.317 8.56.335 6.322.335c-.499 0-1.007.051-1.509.151C.994 1.247-.148 5.91.015 8.857c.07 1.261.718 2.238 1.602 2.995.835.621 1.588 1.37 6.931 2.678l.444 1.135 1.807-.761c.359.038.716.064 1.061.064h.001c1.319 0 2.256-.313 2.917-1.023.136-.17 1.322-1.78 1.216-5.591-.114-4.019-1.687-4.838-3.355-5.706z"/></g><g id="icon_x5F_bg"><path class="st2" d="M2 4h1v1H2zM1 6h1v1H1zM1 8h1v1H1zM2 10h1v1H2zM4 11h1v1H4zM3 2h1v1H3zM5 1h1v1H5zM7 1h1v1H7zM9 2h1v1H9zM11 3h1v1h-1zM13 4h1v1h-1zM14 6h1v1h-1zM14 8h1v1h-1zM14 10h1v1h-1zM13 12h1v1h-1zM9.441 13.828l1.465-.66-1.579-3.613 2.779.14L6 4v8.365l1.845-2.179z"/></g></svg>