<svg xmlns="http://www.w3.org/2000/svg" viewBox="0 0 16 16"><style>.st0{opacity:0}.st0,.st1{fill:#f6f6f6}.st2{fill:#424242}.st3{fill:#f0eff1}</style><g id="outline"><path class="st0" d="M0 0h16v16H0z"/><path class="st1" d="M7 16v-1H5v-2H1V3h4V1h2V0h3v1h2v2h4v10h-4v2h-2v1z"/></g><g id="icon_x5F_bg"><path class="st2" d="M3 11V8.284l-1-.923V12h5.025l-1.083-1zM3.459 4l1.062 1H14v6h-3.104l1.063 1H15V4zM2 6l6.5 6h2L2 4zM6 13h5v1H9v1H8v-1H6zM11 2H9V1H8v1H6v1h5z"/></g><g id="icon_x5F_fg"><path class="st3" d="M3 11h2.942L3 8.285zM4.521 5l6.375 6H14V5z"/></g></svg>