<svg xmlns="http://www.w3.org/2000/svg" viewBox="0 0 16 16"><style>.st0{opacity:0}.st0,.st1{fill:#f6f6f6}.st2{fill:#424242}</style><g id="outline"><path class="st0" d="M0 0h16v16H0z"/><path class="st1" d="M16 12.135h-.606A4.706 4.706 0 0 0 16 9.822c0-2.257-1.599-4.22-3.801-4.667l-3.441-.016 1.805-1.503L6.2 0H5v2.219a6.009 6.009 0 0 0-5 5.916c0 3.308 2.691 6 6 6 .35 0 .664-.045.956-.092l.589-.096c.619.574 1.474.867 2.342 1.043H14l2-1.96v-.895zm-9.94-1.008a.77.77 0 0 0-.06.008c-1.654 0-3-1.346-3-3 0-1.304.836-2.416 2-2.829V7h1l.605 1C6.215 8.693 6 9.621 6 10.447c0 .231.027.457.06.68z"/></g><g id="icon_x5F_bg"><path class="st2" d="M11 6v2.5l-1 1V8a2.564 2.564 0 0 0 0 5v1a3.764 3.764 0 0 1-3-3.688C7 8.868 7.823 7.626 9.02 7H7.5l1-1H11zm2.5 8l1-1h-1.519A3.736 3.736 0 0 0 15 9.688 3.765 3.765 0 0 0 12 6v1a2.563 2.563 0 0 1 0 5v-1.5l-1 1V14h2.5z"/><path class="st2" d="M6 12a4 4 0 0 1 0-8v2l3-2.5L6 1v2a5 5 0 1 0 0 10c.273 0 .536-.038.797-.08a4.794 4.794 0 0 1-.496-.95c-.1.007-.197.03-.301.03z"/></g></svg>