<svg xmlns="http://www.w3.org/2000/svg" viewBox="0 0 16 16"><style>.st0{opacity:0}.st0,.st1{fill:#f6f6f6}.st2{fill:#424242}</style><g id="outline"><path class="st0" d="M0 0h16v16H0z"/><path class="st1" d="M14 7.018V5h-3.382l.5-1H9.963l.6-.5L6.362 0H5v2.083A6.01 6.01 0 0 0 0 8c0 3.309 2.691 6 6 6a5.912 5.912 0 0 0 4.018-1.576V13H14v-2h2V7.018h-2zM5 7H3.176A3.015 3.015 0 0 1 5 5.171V7z"/></g><g id="icon_x5F_bg"><path id="Foreground_1_" class="st2" d="M15 8.018h-2V6h-1.982v2.018H9V10h2.018v2H13v-2h2z"/><path class="st2" d="M5.5 11L4 8h1.5L6 9l2-4h1.5l-3 6z"/><path class="st2" d="M6 12a4 4 0 0 1 0-8v2l3-2.5L6 1v2a5 5 0 1 0 0 10c1.631 0 3.064-.792 3.978-2H8.62c-.703.615-1.613 1-2.62 1z"/></g></svg>