<svg xmlns="http://www.w3.org/2000/svg" viewBox="0 0 16 16"><style>.st0{opacity:0}.st0,.st1{fill:#f6f6f6}.st2{fill:#424242}.st3{fill:#f0eff1}</style><g id="outline"><path class="st0" d="M0 0h16v16H0z"/><path class="st1" d="M16 2H0v12h1v2h5v-2h.5c.569 1.195 1.631 2 3 2 1.759 0 3.204-1.309 3.449-3H16V2z"/></g><g id="icon_x5F_bg"><path class="st2" d="M1 3v8h1V4h12v7h-1v1h2V3H1z"/><path class="st2" d="M4 7h8v1H4zM9.5 10c-1.209 0-2.269.859-2.5 2H1v1h1v2h1v-2h1v2h1v-2h2c.231 1.141 1.291 2 2.5 2a2.5 2.5 0 1 0 0-5zm0 4a1.5 1.5 0 1 1 .001-3.001A1.5 1.5 0 0 1 9.5 14z"/></g><g id="icon_x5F_fg"><path class="st3" d="M12.648 11H14V4H2v7h4.5c.569-1.195 1.631-2 3-2M12 8H4V7h8v1z"/><circle class="st3" cx="9.5" cy="12.5" r="1.5"/></g></svg>