<svg xmlns="http://www.w3.org/2000/svg" viewBox="0 0 16 16"><style>.st0{opacity:0}.st0,.st1{fill:#f6f6f6}.st2{fill:#424242}</style><g id="outline"><path class="st0" d="M0 0h16v16H0z"/><path class="st1" d="M15 2.5V8h-5v8H0V0h12.5C13.879 0 15 1.122 15 2.5z"/></g><path class="st2" d="M11 2.5a1.501 1.501 0 1 1 3.002.002A1.501 1.501 0 0 1 11 2.5zM2.5 12a1.5 1.5 0 1 0 .001-2.999A1.5 1.5 0 0 0 2.5 12zM4 1H1v3h3V1zm5 0H6v3h3V1zm0 8H6v3h3V9zM6 7h3V6H6v1zm5 0h3V6h-3v1zM1 7h3V6H1v1zm0 8h3v-1H1v1zm5 0h3v-1H6v1z" id="icon_x5F_bg"/></svg>