<svg xmlns="http://www.w3.org/2000/svg" viewBox="0 0 16 16"><style>.st0{fill:#f6f6f6}.st1{fill:#424242}.st2{fill:#f0eff1}</style><path class="st0" d="M10 3c-.89 0-1.483.618-2.001 1-.395-.293-.828-.712-1.409-.9L3.423 0h-.837L0 2.586V15h4.765C6 15 6 16 6 16h4s0-1 1.234-1H16V3h-6z" id="outline"/><g id="icon_x5F_bg"><path class="st1" d="M10 4c-.749 0-1.164.28-1.718.757l.856.838C9.377 5.271 9.91 5 10.628 5H14v8h-3.266c-.723 0-1.183-.012-1.734.328V11H7.609L7 10.393v2.936C6.45 12.988 5.989 13 5.265 13H2V5.407L1 4.41V14h4.265c.768 0 1.424.475 1.735 1h2c.309-.525.967-1 1.734-1H15V4h-5z"/><path transform="rotate(-45.001 6 6)" class="st1" d="M4.586 3.171h2.828v5.656H4.586z"/><path transform="rotate(-45.001 2.5 2.5)" class="st1" d="M1.086 1.793h2.828v1.414H1.086z"/><path class="st1" d="M10 8v1.999L8 10"/></g><g id="icon_x5F_fg"><path class="st2" d="M10.628 5c-.718 0-1.251.271-1.489.595L11 7.417V11H9v2.328c.551-.34 1.011-.328 1.734-.328H14V5h-3.372zM2 5.407V13h3.265c.724 0 1.185-.012 1.735.328v-2.936L2 5.407z"/></g></svg>