<svg xmlns="http://www.w3.org/2000/svg" viewBox="0 0 16 16"><style>.st0{opacity:0}.st0,.st1{fill:#f6f6f6}.st2{fill:#424242}.st3{fill:#f0eff1}</style><g id="outline"><path class="st0" d="M0 0h16v16H0z"/><path class="st1" d="M0 1h16v14H0z"/></g><g id="icon_x5F_bg"><path class="st2" d="M13 9.269c0 .48-.209.871-.626 1.173-.514.372-1.299.558-2.356.558-.796 0-1.457-.108-1.985-.323V9.381a3.65 3.65 0 0 0 2.029.591c.385 0 .676-.063.873-.189.164-.108.245-.242.245-.401 0-.186-.122-.354-.363-.509-.193-.119-.547-.269-1.062-.449C8.585 8.005 8 7.438 8 6.724c0-.521.254-.938.763-1.252C9.272 5.157 9.95 5 10.8 5c.746 0 1.367.074 1.863.223v1.209c-.519-.27-1.106-.404-1.767-.404-.329 0-.591.054-.784.162-.194.107-.292.249-.292.424 0 .187.085.342.256.465.161.117.473.256.932.421.683.249 1.169.489 1.462.724.354.287.53.635.53 1.045zm-6.733.997C6.756 9.776 7 9.071 7 8.15V5H5.233v3.088c0 1.049-.404 1.574-1.213 1.574-.375 0-.716-.101-1.02-.303v1.453c.352.126.733.188 1.146.188.926 0 1.633-.244 2.121-.734z"/><path class="st2" d="M1 2v12h14V2H1zm13 11H2V3h12v10z"/></g><path class="st3" d="M2 3v10h12V3H2zm5 5.15c0 .921-.244 1.626-.733 2.115-.488.491-1.195.735-2.121.735-.413 0-.794-.062-1.146-.187V9.359c.304.201.645.303 1.021.303.809 0 1.213-.525 1.213-1.574V5H7v3.15zm5.374 2.291c-.514.373-1.299.559-2.356.559-.796 0-1.457-.108-1.985-.323V9.381a3.65 3.65 0 0 0 2.029.591c.385 0 .676-.063.873-.189.164-.108.245-.242.245-.401 0-.186-.122-.354-.363-.509-.193-.119-.547-.269-1.062-.449C8.585 8.005 8 7.438 8 6.724c0-.521.254-.938.763-1.252C9.272 5.157 9.95 5 10.8 5c.746 0 1.367.074 1.863.223v1.209c-.519-.27-1.106-.404-1.767-.404-.329 0-.591.054-.784.162-.194.107-.292.249-.292.424 0 .187.085.342.256.465.161.117.473.256.932.421.683.249 1.169.489 1.462.724.354.287.53.635.53 1.045 0 .48-.209.871-.626 1.172z" id="icon_x5F_fg"/></svg>