<svg xmlns="http://www.w3.org/2000/svg" viewBox="0 0 16 16"><style>.st0{fill:#f6f6f6}.st1{fill:#424242}.st2{fill:#f16421}.st3{fill:#f0eff1}</style><path class="st0" d="M13 0H6C3.794 0 2 1.794 2 4v6h-.179L0 15.003V16h12v-2.092c.631-.648 1-1.493 1-2.408V5h3V3c0-1.654-1.346-3-3-3z" id="outline"/><g id="icon_x5F_bg"><path class="st1" d="M8.909 12.288c0 .191-.035.367-.105.532a1.206 1.206 0 0 1-.308.425 1.48 1.48 0 0 1-.499.281 2.056 2.056 0 0 1-.673.102h-.428V15H6v-3.981h1.405c.494 0 .868.107 1.123.319.254.214.381.53.381.95zm-.944.033c0-.205-.062-.358-.186-.46-.124-.103-.301-.153-.53-.153h-.353v1.241h.353c.241 0 .42-.056.539-.165.118-.11.177-.265.177-.463zM10 15v-4h1v4h-1zM3.542 11H2.493L1 15h.913l.285-.876.012-.037H3.784l.012.035.286.878h.919l-1.459-4zm-.026 2.432H2.393l.022-.067.449-1.342.002-.01.118-.354.381 1.107.2.598.022.067h-.071z"/></g><path class="st2" d="M13 1H6a3 3 0 0 0-3 3v6h2V4a1 1 0 0 1 1-1h5v7h1V4h3V3a2 2 0 0 0-2-2z" id="color_x5F_importance"/><path class="st3" d="M6 3a1 1 0 0 0-1 1v6h6V3H6z" id="icon_x5F_fg"/></svg>