<svg xmlns="http://www.w3.org/2000/svg" viewBox="0 0 16 16"><style>.st0{opacity:0;fill:#fff}.st1{fill:#f6f6f6}.st2{fill:#424242}.st3{fill:#f0eff1}.st4{fill:#f16421}</style><g id="outline"><path class="st0" d="M0 0h16v16H0z"/><path class="st1" d="M16 1H0v13h.227c.442 1 1.484 1.981 2.707 2h4.275c.116 0 .231-.135.278-.146C8.565 15.738 9.442 15 9.81 14H16V1z"/></g><path class="st2" d="M1 2v9.075c.138-.117.275-.236.437-.329A3.07 3.07 0 0 1 2 9.975V5h12v7H9.77c.135 1 .22 1 .224 1H15V2H1z" id="icon_x5F_bg"/><path class="st3" d="M2 5v4.975a3.298 3.298 0 0 1 2.347-.963c.614 0 1.211.165 1.723.472.08-.007.16-.01.24-.01 1.143 0 2.149.534 2.582 1.52.398.296.69 1.006.878 1.006H14V5H2z" id="icon_x5F_fg"/><g id="color_x5F_importance"><path class="st4" d="M8.063 11.774c-.191-.746-.904-1.301-1.753-1.301-.166 0-.327.021-.481.062a2.322 2.322 0 0 0-1.481-.523c-1.004 0-1.855.619-2.136 1.469C1.501 11.754 1 12.41 1 13.173c0 .991.86 1.81 1.934 1.827h4.275a.96.96 0 0 0 .17-.015c.917-.099 1.618-.828 1.618-1.708 0-.644-.378-1.207-.934-1.503zm-.854 2.222V14H2.934v-.001c-.516-.007-.934-.378-.934-.838 0-.462.425-.838.946-.838.073 0 .143.009.21.023a.992.992 0 0 1-.043-.273c0-.604.553-1.092 1.233-1.092.614 0 1.121.4 1.214.922.117-.268.406-.458.749-.458.443 0 .803.317.803.711 0 .148-.05.285-.136.399a.864.864 0 0 1 .193-.023c.457 0 .827.329.827.733.001.394-.348.712-.787.731z"/><path class="st4" d="M7.17 12.533a.864.864 0 0 0-.193.023.659.659 0 0 0 .136-.399c0-.394-.359-.711-.803-.711-.343 0-.632.19-.749.458-.093-.522-.6-.922-1.214-.922-.681 0-1.233.488-1.233 1.092 0 .095.018.185.043.273a1.024 1.024 0 0 0-.21-.023c-.522-.001-.947.375-.947.837 0 .46.418.831.934.838V14h4.275v-.004c.438-.02.788-.337.788-.73 0-.404-.37-.733-.827-.733z"/><path class="st3" d="M7.17 12.533a.864.864 0 0 0-.193.023.659.659 0 0 0 .136-.399c0-.394-.359-.711-.803-.711-.343 0-.632.19-.749.458-.093-.522-.6-.922-1.214-.922-.681 0-1.233.488-1.233 1.092 0 .095.018.185.043.273a1.024 1.024 0 0 0-.21-.023c-.522-.001-.947.375-.947.837 0 .46.418.831.934.838V14h4.275v-.004c.438-.02.788-.337.788-.73 0-.404-.37-.733-.827-.733z"/></g></svg>