<svg xmlns="http://www.w3.org/2000/svg" viewBox="0 0 16 16"><style>.st0{opacity:0}.st0,.st1{fill:#f6f6f6}.st2{fill:#f16421}.st3{fill:#f0eff1}</style><g id="outline"><path class="st0" d="M0 0h16v16H0z"/><path class="st1" d="M12.619 4H8.162c-.068-.136-.136-.273-.209-.401-.505-.892-1.453-1.264-2.29-1.592-1.138-.446-1.293-.599-1.268-.931L4.477 0H1.423v1c0 1.769.764 2.557 1.572 3H1v5.031c0 1.785.47 3.065 1.09 3.969H2v3h10v-2.763c.253-.354.463-.765.589-1.237h.03C14.642 12 16 9.873 16 7.887v-.328C16 5.497 14.578 4 12.619 4z"/></g><path class="st2" d="M12.619 5H7.518c-.097-.302-.248-.578-.435-.908C6.297 2.703 3.246 3 3.398 1h-.975c0 2 1.136 2.194 2.206 2.594.188.07 1.282.353 1.561.939.079.168.164.317.242.467H2v4.031C2 13.25 4.973 14 5 14H3v1h8v-1H9.371c.027 0 2.348-.781 2.348-3.016.05.002.223.016.275.016h.625C14.066 11 15 9.336 15 7.887v-.328C15 6.111 14.066 5 12.619 5zM11 7H3V6h8v1zm3 .887C14 8.646 13.469 10 11.969 10c-.02-.875.031-1.934.031-1.934v-2.02c1.031 0 2 .779 2 1.513v.328z" id="color_x5F_importance"/><path class="st3" d="M3 6h8v1H3z" id="icon_x5F_fg"/></svg>