<svg xmlns="http://www.w3.org/2000/svg" viewBox="0 0 16 16"><style>.st0{opacity:0}.st0,.st1{fill:#f6f6f6}.st2{fill:#f16421}.st3{fill:#f0eff1}</style><g id="outline"><path class="st0" d="M0 0h16v16H0z"/><path class="st0" d="M0 0h16v16H0z"/><path class="st1" d="M0 1h16v13H0z"/></g><path class="st2" d="M1 2v11h14V2H1zm6 4.001H4V9h3v1H4V9H3V6h1v-.999h3v1zm2 3H8v-1h1v1zm0-2H8v-1h1v1zM12 10l-2-5h1l2 5h-1z" id="icon_x5F_bg"/><g id="icon_x5F_fg"><path class="st3" d="M11 5h-1l2 5h1zM4 6H3v3h1V6.001h3v-1H4zM4 9h3v1H4zM8 6.001h1v1H8zM8 8.001h1v1H8z"/></g></svg>