<svg xmlns="http://www.w3.org/2000/svg" viewBox="0 0 16 16"><style>.st0{opacity:0}.st0,.st1{fill:#f6f6f6}.st2{fill:#424242}.st3{fill:#f16421}.st4{fill:#f0eff1}</style><g id="outline"><path class="st0" d="M0 0h16v16H0z"/><path class="st1" d="M16 1H0v15h7v-1h9z"/></g><path class="st2" d="M15 2v12H7v-1h7V5H2v4H1V2h14z" id="icon_x5F_bg"/><g id="color_x5F_importance"><path class="st3" d="M3 14h1v1H3zM3 12h1v1H3zM5 14h1v1H5zM5 12h1v1H5zM1 14h1v1H1zM1 12h1v1H1zM3 10h1v1H3zM5 10h1v1H5zM1 10h1v1H1z"/></g><path class="st4" d="M2 5v4h5v4h7V5z" id="icon_x5F_fg"/></svg>