<svg xmlns="http://www.w3.org/2000/svg" viewBox="0 0 16 16" enable-background="new 0 0 16 16"><style type="text/css">.icon-canvas-transparent{opacity:0;fill:#F6F6F6;} .icon-vs-out{fill:#F6F6F6;} .icon-vs-bg{fill:#424242;} .icon-vs-fg{fill:#F0EFF1;} .gradient-grey-1{fill:url(#SVGID_1_);} .gradient-grey-2{fill:url(#SVGID_2_);} .st0{fill:url(#path7508_1_);} .st1{fill:url(#path7510_1_);}</style><linearGradient id="SVGID_1_" gradientUnits="userSpaceOnUse" x2="-.707" y2=".707"><stop offset="0"/><stop offset="1" stop-color="#fff"/></linearGradient><linearGradient id="SVGID_2_" gradientUnits="userSpaceOnUse" x2=".707" y2="-.707"><stop offset="0"/><stop offset="1" stop-color="#fff"/></linearGradient><path class="icon-canvas-transparent" d="M16 16h-16v-16h16v16z" id="canvas"/><path class="icon-vs-out" d="M15 4.379v11.621h-13v-.555c-1.191-.693-2-1.968-2-3.445s.809-2.752 2-3.445v-8.555h8.621l4.379 4.379z" id="outline"/><path class="icon-vs-bg" d="M10.207 1h-7.207v7.141c.321-.083.653-.141 1-.141v-6h5v4h4v8h-5.555c-.22.378-.497.714-.825 1h7.38v-10.207l-3.793-3.793zm-.207 4v-2.793l2.793 2.793h-2.793z" id="iconBg"/><path class="icon-vs-fg" d="M12.793 5h-2.793v-2.793l2.793 2.793zm-3.793 1v-4h-5v6c2.209 0 4 1.791 4 4 0 .732-.211 1.41-.555 2h5.555v-8h-4z" id="iconFg"/><g id="colorImportance"><linearGradient id="path7508_1_" gradientUnits="userSpaceOnUse" x1="-399.313" y1="-723.797" x2="-395.066" y2="-728.045" gradientTransform="matrix(.999 0 0 -.999 400.67 -712.933)"><stop offset="0"/><stop offset="1" stop-color="#fff"/></linearGradient><path id="path7508" class="st0" d="M4.006 13.46c1.332 1.816 2.636-.507 2.634-1.904-.002-1.651-1.677-2.575-2.635-2.575-1.539 0-3.005 1.272-3.005 3.013 0 1.934 1.68 3.006 3.005 3.006-.3-.044-1.299-.258-1.312-2.559-.009-1.556.508-2.178 1.31-1.904.018.006.885.348.885 1.465 0 1.114-.882 1.458-.882 1.458z"/><linearGradient id="path7510_1_" gradientUnits="userSpaceOnUse" x1="-394.873" y1="-727.853" x2="-399.121" y2="-723.605" gradientTransform="matrix(.999 0 0 -.999 400.67 -712.933)"><stop offset="0"/><stop offset="1" stop-color="#fff"/></linearGradient><path id="path7510" class="st1" d="M4.004 10.536c-.88-.303-1.959.423-1.959 1.875.001 2.374 1.759 2.589 1.972 2.589 1.54 0 3.004-1.272 3.004-3.012 0-1.935-1.68-3.006-3.004-3.006.367-.05 1.977.397 1.977 2.598 0 1.436-1.202 2.217-1.985 1.883-.018-.006-.885-.348-.885-1.465.001-1.113.88-1.462.88-1.462z"/></g></svg>