<svg xmlns="http://www.w3.org/2000/svg" viewBox="0 0 16 16" enable-background="new 0 0 16 16"><style type="text/css">.icon-canvas-transparent{opacity:0;fill:#F6F6F6;} .icon-vs-out{fill:#F6F6F6;} .icon-vs-bg{fill:#424242;} .icon-vs-fg{fill:#F0EFF1;} .gradient-grey-1{fill:url(#SVGID_1_);} .gradient-grey-2{fill:url(#SVGID_2_);} .st0{fill:url(#path7508_1_);} .st1{fill:url(#path7510_1_);}</style><linearGradient id="SVGID_1_" gradientUnits="userSpaceOnUse" x2="-.707" y2=".707"><stop offset="0"/><stop offset="1" stop-color="#fff"/></linearGradient><linearGradient id="SVGID_2_" gradientUnits="userSpaceOnUse" x2=".707" y2="-.707"><stop offset="0"/><stop offset="1" stop-color="#fff"/></linearGradient><path class="icon-canvas-transparent" d="M16 16h-16v-16h16v16z" id="canvas"/><path class="icon-vs-out" d="M16 3v2h-3v6.5c0 1.93-1.57 3.5-3.5 3.5h-2.901c-.701.615-1.609 1-2.615 1-2.2 0-3.984-1.784-3.984-3.984l.026-.258-.026-.258v-1.5h.565c.349-.59.841-1.077 1.435-1.42v-4.58c0-2.206 1.794-4 4-4h7c1.654 0 3 1.346 3 3z" id="outline"/><path class="icon-vs-bg" d="M15 3v1h-3v7.5c0 1.381-1.119 2.5-2.5 2.5h-2.08c.339-.586.548-1.258.548-1.984 0-.353-.061-.689-.147-1.016h.179v.5c0 .828.672 1.5 1.5 1.5s1.5-.672 1.5-1.5v-8.5h-5c-.553 0-1 .447-1 1v4.178c-.326-.086-.662-.147-1.016-.147-.341 0-.667.057-.984.138v-4.169c0-1.657 1.343-3 3-3h7c1.104 0 2 .895 2 2z" id="iconBg"/><path class="icon-vs-fg" d="M11 3v8.5c0 .828-.672 1.5-1.5 1.5s-1.5-.672-1.5-1.5v-.5h-.178c-.365-1.379-1.443-2.457-2.822-2.822v-4.178c0-.553.447-1 1-1h5z" id="iconFg"/><g id="colorImportance"><linearGradient id="path7508_1_" gradientUnits="userSpaceOnUse" x1="-399.313" y1="-723.797" x2="-395.066" y2="-728.045" gradientTransform="matrix(.999 0 0 -.999 400.67 -712.933)"><stop offset="0"/><stop offset="1" stop-color="#fff"/></linearGradient><path id="path7508" class="st0" d="M4.006 13.46c1.332 1.816 2.636-.507 2.634-1.904-.002-1.651-1.677-2.575-2.635-2.575-1.539 0-3.005 1.272-3.005 3.013 0 1.934 1.68 3.006 3.005 3.006-.3-.044-1.299-.258-1.312-2.559-.009-1.556.508-2.178 1.31-1.904.018.006.885.348.885 1.465 0 1.114-.882 1.458-.882 1.458z"/><linearGradient id="path7510_1_" gradientUnits="userSpaceOnUse" x1="-394.873" y1="-727.853" x2="-399.121" y2="-723.605" gradientTransform="matrix(.999 0 0 -.999 400.67 -712.933)"><stop offset="0"/><stop offset="1" stop-color="#fff"/></linearGradient><path id="path7510" class="st1" d="M4.004 10.536c-.88-.303-1.959.423-1.959 1.875.001 2.374 1.759 2.589 1.972 2.589 1.54 0 3.004-1.272 3.004-3.012 0-1.935-1.68-3.006-3.004-3.006.367-.05 1.977.397 1.977 2.598 0 1.436-1.202 2.217-1.985 1.883-.018-.006-.885-.348-.885-1.465.001-1.113.88-1.462.88-1.462z"/></g></svg>