<svg xmlns="http://www.w3.org/2000/svg" viewBox="0 0 16 16"><style>.st0{opacity:0}.st0,.st1{fill:#f6f6f6}.st2{fill:#f16421}.st3{fill:#f0eff1}.st4{fill:#e51400}.st5{fill:#fff}</style><g id="outline"><path class="st0" d="M0 0h16v16H0z"/><path class="st1" d="M16 11.5c0-1.953-1.258-3.603-3-4.224V0H2v16h11v-.276c1.742-.622 3-2.271 3-4.224z"/></g><path class="st2" d="M7.762 14H7v-1h.276a4.419 4.419 0 0 1-.226-1H4V2h7v5.051c.166-.019.329-.051.5-.051s.334.032.5.051V1H3v14h5.707a4.508 4.508 0 0 1-.945-1zM5 14H4v-1h1v1z" id="icon_x5F_bg"/><g id="icon_x5F_fg"><path class="st3" d="M7 11.5c0-2.311 1.756-4.197 4-4.449V2H4v10h3.051c-.019-.166-.051-.329-.051-.5zM4 13h1v1H4zM7.275 13H7v1h.76a4.512 4.512 0 0 1-.485-1z"/></g><path class="st4" d="M11.5 8a3.5 3.5 0 1 0-.001 6.999A3.5 3.5 0 0 0 11.5 8zm1.854 4.646l-.707.707-1.147-1.146-1.146 1.147-.707-.707 1.147-1.146-1.147-1.146.707-.707 1.146 1.147 1.146-1.147.707.707-1.146 1.145 1.147 1.146z" id="not_x5F_bg"/><path class="st5" d="M13.354 10.354l-.708-.708-1.146 1.147-1.146-1.147-.708.708 1.147 1.146-1.147 1.146.708.708 1.146-1.147 1.146 1.147.708-.708-1.147-1.146z" id="not_x5F_fg"/></svg>