<svg xmlns="http://www.w3.org/2000/svg" viewBox="0 0 16 16"><style>.st0{opacity:0}.st0,.st1{fill:#f6f6f6}.st2{fill:#f16421}.st3{fill:#f0eff1}</style><g id="outline"><path class="st0" d="M0 0h16v16H0z"/><path class="st1" d="M13 0H6C3.794 0 2 1.793 2 4v6H0v1.5C0 13.43 1.57 15 3.5 15h6c1.93 0 3.5-1.57 3.5-3.5V5h3V3c0-1.654-1.346-3-3-3z"/></g><path class="st2" d="M13 1H6a3 3 0 0 0-3 3v6h2V4a1 1 0 0 1 1-1h5v8.5a1.5 1.5 0 0 1-3 0V11H1v.5A2.5 2.5 0 0 0 3.5 14h6a2.5 2.5 0 0 0 2.5-2.5V4h3V3a2 2 0 0 0-2-2z" id="color_x5F_importance"/><path class="st3" d="M6 3a1 1 0 0 0-1 1v6h6V3H6z" id="icon_x5F_fg"/></svg>