<svg xmlns="http://www.w3.org/2000/svg" viewBox="0 0 16 16"><style>.st0{opacity:0}.st0,.st1{fill:#f6f6f6}.st2{fill:#f16421}.st3{fill:#f0eff1}</style><g id="outline"><path class="st0" d="M0 0h16v16H0z"/><circle class="st1" cx="8" cy="8" r="8"/></g><path class="st2" d="M15 8c0-.08-.01-.157-.012-.237C14.862 4.008 11.786 1 8 1a7 7 0 0 0-7 7 6.692 6.692 0 0 0 .1 1.136l.002.018a6.995 6.995 0 0 0 5.75 5.745l.021.003A7.065 7.065 0 0 0 8 15a7 7 0 0 0 7-7zm-4.031-1.662a12.557 12.557 0 0 0 2.316-.604c.299.696.465 1.461.465 2.266 0 .126-.011.25-.019.374-1.038.452-1.972.722-2.848.863a9.32 9.32 0 0 0 .161-1.743 11.3 11.3 0 0 0-.075-1.156zm1.78-1.578c-.686.236-1.334.4-1.951.496a11.703 11.703 0 0 0-.917-2.685 5.757 5.757 0 0 1 2.868 2.189zM8 13.75c-.17 0-.338-.011-.504-.025-.503-1.116-.888-2.225-1.128-3.306a18.417 18.417 0 0 0 2.029.094c.348 0 .699-.01 1.054-.027-.306.991-.759 2.077-1.353 3.26-.033 0-.065.004-.098.004zm.006-4.329a17.427 17.427 0 0 1-1.838-.123 12.248 12.248 0 0 1-.123-1.793c.004-.386.031-.755.067-1.114a18.53 18.53 0 0 0 1.882.12l.403.002c.488 0 .982-.016 1.487-.054.038.339.066.685.07 1.046a8.673 8.673 0 0 1-.209 1.869c-.583.042-1.157.05-1.739.047zM8 2.25c.165 0 .327.011.488.024.468.812.944 1.846 1.221 3.108-.571.039-1.133.044-1.703.039a16.72 16.72 0 0 1-1.739-.111 12.138 12.138 0 0 1 1.001-3.008c.24-.031.483-.052.732-.052zm-2.083.395a13.08 13.08 0 0 0-.732 2.508 19.128 19.128 0 0 1-1.903-.435 5.768 5.768 0 0 1 2.635-2.073zM2.25 8c0-.819.174-1.597.482-2.302.686.202 1.448.393 2.3.539-.042.405-.072.82-.077 1.257a12.87 12.87 0 0 0 .099 1.637 19.445 19.445 0 0 1-2.784-.728c-.009-.133-.02-.267-.02-.403zm.236 1.625c.798.244 1.712.479 2.744.644.206 1.047.542 2.116.981 3.193a5.756 5.756 0 0 1-3.725-3.837zm6.898 3.95c.546-1.146.967-2.215 1.238-3.193a12.79 12.79 0 0 0 2.886-.734 5.753 5.753 0 0 1-4.124 3.927z" id="icon_x5F_bg"/><g id="icon_x5F_fg"><path class="st3" d="M10.969 6.338a12.557 12.557 0 0 0 2.316-.604c.299.696.465 1.461.465 2.266 0 .126-.011.25-.019.374-1.038.452-1.972.722-2.848.863a9.32 9.32 0 0 0 .161-1.743 11.3 11.3 0 0 0-.075-1.156zM12.749 4.76c-.686.236-1.334.4-1.951.496a11.703 11.703 0 0 0-.917-2.685 5.757 5.757 0 0 1 2.868 2.189zM8 13.75c-.17 0-.338-.011-.504-.025-.503-1.116-.888-2.225-1.128-3.306a18.417 18.417 0 0 0 2.029.094c.348 0 .699-.01 1.054-.027-.306.991-.759 2.077-1.353 3.26-.033 0-.065.004-.098.004zM8 9.421c-.636-.007-1.31-.102-1.9-.171-.084-.609-.061-1.161-.055-1.745.004-.386.031-.755.067-1.114A18.67 18.67 0 0 0 8 6.511l.4.002c.488 0 .98-.016 1.485-.054.038.339.066.685.07 1.046.006.578-.114 1.203-.255 1.87-.584.041-1.118.049-1.7.046zM8 2.25c.165 0 .327.011.488.024.468.812.935 1.846 1.212 3.108-.571.039-1.13.044-1.7.039-.6-.006-1.241-.047-1.8-.111.233-1.215.685-2.214 1.067-3.008.241-.031.484-.052.733-.052zM5.917 2.645a13.08 13.08 0 0 0-.732 2.508 19.128 19.128 0 0 1-1.903-.435 5.768 5.768 0 0 1 2.635-2.073zM2.25 8c0-.819.174-1.597.482-2.302.686.202 1.448.393 2.3.539-.042.405-.072.82-.077 1.257a12.87 12.87 0 0 0 .099 1.637 19.445 19.445 0 0 1-2.784-.728c-.009-.133-.02-.267-.02-.403zM2.486 9.625c.798.244 1.712.479 2.744.644.206 1.047.542 2.116.981 3.193a5.756 5.756 0 0 1-3.725-3.837zM9.384 13.575c.546-1.146.967-2.215 1.238-3.193a12.79 12.79 0 0 0 2.886-.734 5.753 5.753 0 0 1-4.124 3.927z"/></g></svg>