<svg xmlns="http://www.w3.org/2000/svg" viewBox="0 0 16 16"><style>.icon-canvas-transparent{opacity:0;fill:#f6f6f6}.icon-vs-out{fill:#f6f6f6}.VsFg{fill:#f0eff1}.st0{fill:#424242}.st1{fill:#f0eff1}.st2{fill:#f16421}</style><path class="icon-canvas-transparent" d="M16 16H0V0h16v16z" id="canvas"/><path class="icon-vs-out" d="M13 0H6C3.794 0 2 1.793 2 4v6H0v3.414L2.586 16H4v-.545c.524.338 1.213.545 2 .545s1.476-.207 2-.545V16h1.414l1.198-1.198C11.995 14.334 13 13.039 13 11.5V5h3V3c0-1.654-1.346-3-3-3z" id="outline"/><path class="st0" d="M13 1H6a3 3 0 0 0-3 3v5h2V4a1 1 0 0 1 1-1h5v8.5c0 .027-.006.052-.008.078l.831.831c.111-.282.177-.587.177-.909V4h3V3a2 2 0 0 0-2-2z" id="iconBg"/><path class="st1" d="M6 3a1 1 0 0 0-1 1v5h3.414S11 11.527 11 11.5V3H6z" id="iconFg"/><g id="colorImportance"><path class="st2" d="M11 13l-2 2v-1l1-1-1-1v-1l2 2zM3 11v1l-1 1 1 1v1l-2-2 2-2zM6 10c-1.104 0-2 .537-2 1.199v2.6C4 14.463 4.896 15 6 15s2-.537 2-1.201v-2.6C8 10.537 7.104 10 6 10zm0 1.949c-.858 0-1.5-.394-1.5-.75 0-.353.642-.75 1.5-.75s1.5.397 1.5.75c0 .356-.642.75-1.5.75z"/></g><path class="VsFg" d="M6 11.949c-.858 0-1.5-.394-1.5-.75 0-.353.642-.75 1.5-.75s1.5.397 1.5.75c0 .356-.642.75-1.5.75z" id="notificationFg"/></svg>