<svg xmlns="http://www.w3.org/2000/svg" viewBox="0 0 16 16"><style>.icon-canvas-transparent{opacity:0;fill:#f6f6f6}.icon-vs-out{fill:#f6f6f6}.icon-vs-bg{fill:#424242}</style><path class="icon-canvas-transparent" d="M16 0v16H0V0h16z" id="canvas"/><path class="icon-vs-out" d="M15.982 7.572v1.793l-.892.058c-.009.048-.017.12-.017.224v1.729c0 1.72-1.145 2.76-3.063 2.781l-1.01.011V13H5v1.168l-1.011-.012C2.064 14.135.914 13.094.914 11.375V9.646a1.21 1.21 0 0 0-.017-.221l-.856-.054L0 8.428V6.634l.894-.057c.01-.051.02-.13.02-.247V4.648c0-1.734 1.149-2.783 3.075-2.805L5 1.833v2.17a3.747 3.747 0 0 1 6.017.022L11 3.752V1.833l1.012.011c1.918.022 3.063 1.07 3.063 2.805V6.33c0 .115.01.194.02.245l.854.055.033.942z" id="outline"/><g id="iconBg"><path class="icon-vs-bg" d="M3.276 11.976c.139.178.38.271.724.278v.902c-1.391-.016-2.086-.609-2.086-1.781V9.646c0-.773-.305-1.18-.914-1.219v-.855c.609-.039.914-.453.914-1.242V4.648c0-1.188.695-1.789 2.086-1.805v.908c-.621.017-.932.39-.932 1.12v1.652c0 .789-.389 1.275-1.166 1.459V8c.778.172 1.166.654 1.166 1.447v1.635c0 .418.07.716.208.894zM14.074 6.33V4.648c0-1.188-.691-1.789-2.074-1.805v.908c.625.016.938.389.938 1.119v1.652c0 .789.385 1.275 1.154 1.459V8c-.77.172-1.154.654-1.154 1.447v1.635c0 .414-.071.711-.214.891s-.384.273-.724.281v.902c1.383-.016 2.074-.609 2.074-1.781V9.646c0-.773.303-1.18.908-1.219v-.855c-.605-.039-.908-.453-.908-1.242zM12 12h-1c0-1.654-1.346-3-3-3s-3 1.346-3 3H4c0-1.595.945-2.964 2.299-3.606A2.735 2.735 0 0 1 5.25 6.25C5.25 4.733 6.483 3.5 8 3.5s2.75 1.233 2.75 2.75c0 .871-.415 1.64-1.049 2.144A3.995 3.995 0 0 1 12 12zM9.75 6.25c0-.965-.785-1.75-1.75-1.75s-1.75.785-1.75 1.75S7.035 8 8 8s1.75-.785 1.75-1.75z"/></g></svg>