<svg xmlns="http://www.w3.org/2000/svg" viewBox="0 0 16 16"><style>.st0{fill:#f6f6f6}.st1{fill:#424242}.st2{fill:#00539c}.st3{fill:#f0eff1}</style><path class="st0" d="M13.009 4H9V3L5.946 0H0v12.5c0 1.104.719 2.042 1.713 2.373L.586 16h4.328l1.23-1.231C6.453 15.57 7.224 16 7.965 16h6c1.442 0 2.007-1.175 2.035-2V6.691L13.009 4zM6 11v1.086L4.914 11H6z" id="outline"/><g id="icon_x5F_bg"><path class="st1" d="M12.625 5h-4.66S7 5 7 6v8c0 1 .965 1 .965 1h6c1 0 1.035-1 1.035-1V7.137L12.625 5zM14 9v5H8V6h4v2h2v1zM1 3h1v1H1zM1 7h1v1H1zM1 1h1v1H1zM1 9h1v1H1zM7 3h1v1H7zM1 5h1v1H1zM5 1h1v1H5zM5 3h1v1H5zM3 9h1v1H3zM5 9h1v1H5zM3 1h1v1H3z"/></g><path class="st2" d="M4.5 12L6 13.5 4.5 15H3l1-1H2.5c-.827 0-1.5-.673-1.5-1.5V11h1v1.5c0 .275.225.5.5.5H4l-1-1h1.5z" id="color_x5F_action"/><path class="st3" d="M8 14V6h4v2h2v6z" id="icon_x5F_fg"/></svg>