<svg xmlns="http://www.w3.org/2000/svg" viewBox="0 0 16 16"><style>.icon-canvas-transparent{opacity:0;fill:#f6f6f6}.icon-vs-out{fill:#f6f6f6}.icon-vs-bg{fill:#424242}.icon-vs-fg{fill:#f0eff1}</style><path class="icon-canvas-transparent" d="M0 16V0h16v16H0z" id="canvas"/><path class="icon-vs-out" d="M0 6h7.273c.626-1.759 2.313-3 4.227-3C13.981 3 16 5.019 16 7.5S13.981 12 11.5 12c-1.914 0-3.601-1.241-4.227-3H6v2H1V9H0V6z" id="outline"/><path class="icon-vs-fg" d="M11.5 5C12.878 5 14 6.122 14 7.5S12.878 10 11.5 10 9 8.878 9 7.5 10.122 5 11.5 5z" id="iconFg"/><path class="icon-vs-bg" d="M4 8v2h1V8h3.051c.245 1.692 1.691 3 3.449 3 1.93 0 3.5-1.57 3.5-3.5S13.43 4 11.5 4C9.742 4 8.296 5.308 8.051 7H1v1h1v2h1V8h1zm7.5-3C12.878 5 14 6.122 14 7.5S12.878 10 11.5 10 9 8.878 9 7.5 10.122 5 11.5 5z" id="iconBg"/></svg>