<svg xmlns="http://www.w3.org/2000/svg" width="16" height="16" viewBox="0 0 16 16"><style>.icon-canvas-transparent{opacity:0;fill:#f6f6f6}.icon-vs-out{fill:#f6f6f6}.icon-vs-bg{fill:#424242}.icon-vs-fg{fill:#f0eff1}</style><path class="icon-canvas-transparent" d="M16 16H0V0h16v16z" id="canvas"/><path class="icon-vs-out" d="M8 1c2.206 0 4 1.794 4 4 0 1.475-.81 2.75-2 3.443V9h2v5h-2v1H6V8.443C4.811 7.75 4 6.475 4 5c0-2.206 1.794-4 4-4z" id="outline"/><path class="icon-vs-bg" d="M5 5c0 1.301.839 2.401 2 2.815V14h2v-1h2v-1H9v-1h2v-1H9V7.815A2.996 2.996 0 0 0 11 5c0-1.654-1.346-3-3-3-1.653 0-3 1.346-3 3zm4 0c0 .551-.449 1-1 1s-1-.449-1-1a1 1 0 0 1 2 0z" id="iconBg"/><path class="icon-vs-fg" d="M8 4a1 1 0 1 1 0 2 1 1 0 0 1 0-2" id="iconFg"/></svg>