<svg xmlns="http://www.w3.org/2000/svg" viewBox="0 0 16 16"><style>.st0{opacity:0}.st0,.st1{fill:#f6f6f6}.st2{fill:#424242}.st3{fill:#f0eff1}.st4{fill:#e51400}.st5{fill:#fff}</style><g id="outline"><path class="st0" d="M0 0h16v16H0z"/><path class="st1" d="M14.398 8.084A3.959 3.959 0 0 0 15 6c0-2.206-1.794-4-4-4-1.475 0-2.75.811-3.443 2H1v4h1v2h5V8h.557c.137.236.303.452.484.654A4.456 4.456 0 0 0 7 11.5a4.5 4.5 0 0 0 9 0c0-1.375-.63-2.591-1.602-3.416z"/></g><path class="st2" d="M11 3a2.996 2.996 0 0 0-2.815 2H2v2h1v2h1V7h1v2h1V7h2.185c.127.357.325.678.568.959A4.46 4.46 0 0 1 11.5 7c.75 0 1.447.201 2.068.526C13.836 7.077 14 6.56 14 6c0-1.654-1.346-3-3-3zm0 4c-.551 0-1-.449-1-1s.449-1 1-1a1 1 0 0 1 0 2z" id="icon_x5F_bg"/><circle class="st3" cx="11" cy="6" r="1" id="icon_x5F_fg"/><path class="st4" d="M11.5 8a3.5 3.5 0 1 0 0 7 3.5 3.5 0 0 0 0-7zm1.854 4.646l-.707.707-1.147-1.146-1.146 1.147-.707-.707 1.147-1.146-1.147-1.146.707-.707 1.146 1.147 1.146-1.147.707.707-1.146 1.145 1.147 1.146z" id="not_x5F_bg"/><path class="st5" d="M13.354 10.354l-.708-.708-1.146 1.147-1.146-1.147-.708.708 1.147 1.146-1.147 1.146.708.708 1.146-1.147 1.146 1.147.708-.708-1.147-1.146z" id="not_x5F_fg"/></svg>