<svg xmlns="http://www.w3.org/2000/svg" viewBox="0 0 16 16"><style>.icon-canvas-transparent{opacity:0;fill:#f6f6f6}.icon-vs-out{fill:#f6f6f6}.icon-vs-bg{fill:#424242}.icon-vs-fg{fill:#f0eff1}</style><path class="icon-canvas-transparent" d="M16 16H0V0h16v16z" id="canvas"/><path class="icon-vs-out" d="M8 11V9H6.711A3.567 3.567 0 0 1 3.5 11C1.57 11 0 9.43 0 7.5S1.57 4 3.5 4c1.395 0 2.636.805 3.211 2H14v3h-1v2H8z" id="outline"/><path class="icon-vs-bg" d="M6 7c-.231-1.143-1.291-2-2.5-2a2.5 2.5 0 1 0 0 5c1.209 0 2.269-.859 2.5-2h3v2h1V8h1v2h1V8h1V7H6zM3.5 9a1.5 1.5 0 1 1 .001-3.001A1.5 1.5 0 0 1 3.5 9z" id="iconBg"/><path class="icon-vs-fg" d="M3.5 9a1.5 1.5 0 1 1 .001-3.001A1.5 1.5 0 0 1 3.5 9z" id="iconFg"/></svg>