<svg xmlns="http://www.w3.org/2000/svg" viewBox="0 0 16 16"><style>.icon-canvas-transparent{opacity:0;fill:#f6f6f6}.icon-vs-out{fill:#f6f6f6}.icon-vs-bg{fill:#424242}.icon-vs-fg{fill:#f0eff1}</style><path class="icon-canvas-transparent" d="M0 16V0h16v16H0z" id="canvas"/><path class="icon-vs-out" d="M16 9h-1v2h-5V9H8.727c-.626 1.759-2.312 3-4.227 3C2.019 12 0 9.981 0 7.5S2.019 3 4.5 3c1.914 0 3.601 1.241 4.227 3H16v3z" id="outline"/><path class="icon-vs-fg" d="M7 7.5C7 8.878 5.878 10 4.5 10S2 8.878 2 7.5 3.122 5 4.5 5 7 6.122 7 7.5z" id="iconFg"/><g id="iconBg"><path class="icon-vs-bg" d="M13 8v2h1V8h1V7H7.949C7.704 5.308 6.258 4 4.5 4 2.57 4 1 5.57 1 7.5S2.57 11 4.5 11c1.758 0 3.204-1.308 3.449-3H11v2h1V8h1zm-6-.5C7 8.878 5.878 10 4.5 10S2 8.878 2 7.5 3.122 5 4.5 5 7 6.122 7 7.5z"/></g></svg>