<svg xmlns="http://www.w3.org/2000/svg" viewBox="0 0 16 16"><style>.icon-canvas-transparent{opacity:0;fill:#f6f6f6}.icon-vs-out{fill:#f6f6f6}.icon-vs-bg{fill:#424242}.icon-vs-fg{fill:#f0eff1}</style><path class="icon-canvas-transparent" d="M0 0h16v16H0V0z" id="canvas"/><path class="icon-vs-out" d="M10 0v7.273c1.759.626 3 2.313 3 4.227 0 2.481-2.019 4.5-4.5 4.5A4.505 4.505 0 0 1 4 11.5c0-1.914 1.241-3.601 3-4.227V6H5V1h2V0h3z" id="outline"/><path class="icon-vs-fg" d="M11 11.5c0 1.378-1.122 2.5-2.5 2.5S6 12.878 6 11.5 7.122 9 8.5 9s2.5 1.122 2.5 2.5z" id="iconFg"/><path class="icon-vs-bg" d="M8 4H6v1h2v3.051c-1.692.245-3 1.691-3 3.449C5 13.43 6.57 15 8.5 15s3.5-1.57 3.5-3.5c0-1.758-1.308-3.204-3-3.449V1H8v1H6v1h2v1zm3 7.5c0 1.378-1.122 2.5-2.5 2.5S6 12.878 6 11.5 7.122 9 8.5 9s2.5 1.122 2.5 2.5z" id="iconBg"/></svg>