<svg xmlns="http://www.w3.org/2000/svg" viewBox="0 0 16 16"><style>.st0{opacity:0}.st0,.st1{fill:#f6f6f6}.st2{fill:#424242}.st3{fill:#f0eff1}</style><g id="outline"><path class="st0" d="M0 0h16v16H0z"/><path class="st1" d="M5 0v5H0v5h2v3H0v3h10v-3h6V0z"/></g><g id="icon_x5F_bg"><path class="st2" d="M12 11h1v1h-1zM14 11h1v1h-1zM9 8h3v1H9zM3 11h7v1H3zM1 14h4v1H1zM6 14h3v1H6zM1 6v3h6V6H1zm5 2H2V7h4v1z"/><path class="st2" d="M6 1v4h1V2h7v8h1V1z"/></g><g id="icon_x5F_fg"><path class="st3" d="M2 7h4v1H2zM7 2v3h1v2h5v3h-2v1h3V2z"/></g></svg>