<svg xmlns="http://www.w3.org/2000/svg" viewBox="0 0 16 16"><style>.st0{opacity:0}.st0,.st1{fill:#f6f6f6}.st2{fill:#424242}.st3{fill:#f0eff1}.st4{fill:#fc0}</style><g id="outline"><path class="st0" d="M0 0h16v16H0z"/><path class="st1" d="M8.309 15.5l-.75-1.5 2.764-5.529-.521-.194a3.533 3.533 0 0 1-1.813-1.529L7.844 6.5H6.5v2h-4v-2h-1v-3h6.344l.145-.248C8.628 2.155 9.754 1.5 11 1.5c1.93 0 3.5 1.57 3.5 3.5a3.49 3.49 0 0 1-1.599 2.93l-.373.244L15.441 14l-.75 1.5H8.309z"/><path class="st1" d="M11 2c1.654 0 3 1.346 3 3a2.993 2.993 0 0 1-1.371 2.511l-.747.487.399.798L14.882 14l-.5 1H8.618l-.5-1 2.403-4.808.497-.995-1.041-.389A3.036 3.036 0 0 1 8.42 6.497L8.131 6H6v2H3V6H2V4H8.132l.288-.497C8.969 2.562 9.934 2 11 2m0-1c-1.475 0-2.75.811-3.443 2H1v4h1v2h5V7h.557a4.033 4.033 0 0 0 2.07 1.745L7 14l1 2h7l1-2-2.825-5.651A3.994 3.994 0 0 0 15 5c0-2.206-1.794-4-4-4z"/></g><path class="st2" d="M11 2a2.996 2.996 0 0 0-2.815 2H2v2h1v2h1V6h1v2h1V6h2.185a3.018 3.018 0 0 0 1.89 1.852L10.5 7h2l.224.448A2.996 2.996 0 0 0 14 5c0-1.654-1.346-3-3-3zm0 4c-.551 0-1-.449-1-1s.449-1 1-1a1 1 0 0 1 0 2z" id="icon_x5F_bg"/><circle class="st3" cx="11" cy="5" r="1" id="icon_x5F_fg"/><path class="st4" d="M11.891 8.016h-.781l-3.016 6 .515.984h5.766l.484-1-2.968-5.984zM12 14h-1v-1h1v1zm0-2h-1v-2h1v2z" id="not_x5F_bg"/><path d="M12 12h-1v-2h1v2zm0 1h-1v1h1v-1z" id="not_x5F_fg"/></svg>