<svg xmlns="http://www.w3.org/2000/svg" viewBox="0 0 16 16"><style>.st0{opacity:0}.st0,.st1{fill:#f6f6f6}.st2{fill:#424242}.st3{fill:#f0eff1}</style><g id="outline"><path class="st0" d="M0 0h16v16H0z"/><path class="st1" d="M16 1H0v13h3.586l2 2h.828l3.351-3.35c.548.231 1.135.35 1.735.35 2.481 0 4.5-2.019 4.5-4.5 0-.925-.281-1.784-.762-2.5H16V1z"/></g><g id="icon_x5F_bg"><path class="st2" d="M1 2v3h7.707c.77-.616 1.733-1 2.793-1s2.023.384 2.794 1H15V2H1zM7 8.5c0-.925.282-1.784.762-2.5H1v3h6.05C7.031 8.833 7 8.669 7 8.5zM7 10H1v3h3.586L7 10.585z"/><path class="st2" d="M11.5 5A3.5 3.5 0 0 0 8 8.5c0 .711.215 1.369.578 1.922L5 14l1 1 3.578-3.578A3.488 3.488 0 0 0 11.5 12a3.5 3.5 0 1 0 0-7zm0 6a2.5 2.5 0 1 1 0-5 2.5 2.5 0 0 1 0 5z"/></g><circle class="st3" cx="11.5" cy="8.5" r="2.5" id="icon_x5F_fg"/></svg>