<svg xmlns="http://www.w3.org/2000/svg" viewBox="0 0 16 16"><style>.st0{opacity:0}.st0,.st1{fill:#f6f6f6}.st2{fill:#424242}.st3{fill:#fc0}</style><g id="outline"><path class="st0" d="M0 0h16v16H0z"/><path class="st1" d="M8.309 15.5l-.75-1.5 2.25-4.5H7.5v4.382l-.191-.382H.5v-12h15v4h-4v2h.691l3.25 6.5-.75 1.5z"/><path class="st1" d="M15 2v3h-4v3h.882l3 6-.5 1H8.618l-.5-1 .776-1.553 1-2L10.618 9H7v4H1V2h14m1-1H0v13h7l1 2h7l1-2-3.5-7H12V6h4V1zM8 12v-2h1l-1 2z"/></g><g id="icon_x5F_bg"><path class="st2" d="M1 9h8.5l1-2h.5V6H1zM1 2h14v3H1zM1 10h6v3H1z"/></g><path class="st3" d="M11.891 8.016h-.781l-3.016 6 .515.984h5.766l.484-1-2.968-5.984zM12 14h-1v-1h1v1zm0-2h-1v-2h1v2z" id="not_x5F_bg"/><path d="M12 12h-1v-2h1v2zm0 1h-1v1h1v-1z" id="not_x5F_fg"/></svg>