<svg xmlns="http://www.w3.org/2000/svg" viewBox="0 0 16 16"><style>.st0{opacity:0}.st0,.st1{fill:#f6f6f6}.st2{fill:none}.st3{fill:#424242}.st4{fill:#f0eff1}</style><g id="outline"><path class="st0" d="M0 0h16v16H0z"/><path class="st1" d="M15.987 9.651c-.075-.485-.115-1.147-.115-1.914V4.512c0-2.867-1.584-4.511-4.345-4.511-1.251 0-2.501.326-3.431.895l-.685.419 1.047 3.031 1.076-.712c.449-.298 1.106-.476 1.793-.476.336 0 .585.042.745.201-1.939.158-3.142.726-3.89 1.414L5 3.501l-5 2 .001 10.498H10v-5.063c.221.035.445.064.69.064.696 0 1.363-.152 1.955-.431l.027.235H16V9.733l-.013-.082zm-3.661-2.752a.813.813 0 0 1-.018.17c-.045.129-.314.772-1.218.772-.412 0-.49-.175-.49-.497 0-.613.826-.846 1.726-.917v.472z"/></g><g id="icon_x5F_bg"><path class="st2" d="M5.999 12h2v2h-2zM1.999 9h2v2h-2zM1.999 12h2v2h-2zM5.999 9h2v2h-2z"/><path class="st3" d="M14.872 7.737V4.511C14.872 2.8 14.217 1 11.526 1c-1.11 0-2.182.303-2.909.748L8.98 2.8c.619-.409 1.473-.642 2.311-.642 1.799-.018 1.999 1.284 1.999 1.979v.178c-1.772-.01-3.123.303-4.021.893l.73.292v.773c.664-.736 2.054-.896 3.327-.87v1.496c0 .143-.019.321-.072.499-.255.731-1 1.444-2.164 1.444-.425 0-.814-.135-1.091-.412v1.497c.215.044.441.073.69.073 1.255 0 2.201-.605 2.691-1.283h.055l.127 1.088h1.436c-.09-.589-.126-1.32-.126-2.068zM5.999 5l-1 3-1-3-3 1 2 2H1v7h8V8H6.999l2-2-3-1zm-2 9h-2v-2h2v2zm0-3h-2V9h2v2zm4 3h-2v-2h2v2zm0-5v2h-2V9h2z"/></g><g id="icon_x5F_fg"><path class="st4" d="M2 12h2v2H2zM2 9h2v2H2zM6 9h2v2H6zM6 12h2v2H6z"/></g></svg>