<svg xmlns="http://www.w3.org/2000/svg" width="16" height="16"><style type="text/css">.icon-canvas-transparent{opacity:0;fill:#F6F6F6;} .icon-vs-out{fill:#F6F6F6;} .icon-vs-bg{fill:#424242;}</style><path class="icon-canvas-transparent" d="M16 16h-16v-16h16v16z" id="canvas"/><path class="icon-vs-out" d="M15.67 3.056c-.667-1.466-2.377-2.306-4.693-2.306-1.69 0-3.6.445-5.377 1.254-1.957.891-3.594 2.286-4.608 3.927-1.03 1.669-1.272 3.395-.661 4.736.578 1.271 1.944 2.069 3.807 2.259.363.552.973.928 1.671.956-.089.259-.246.599-.519 1.05l-.644 1.068h3.084l.342-.671c.369-.708.75-1.441.623-2.25-.04-.253-.095-.468-.158-.662.627-.188 1.253-.42 1.863-.697 4.066-1.851 6.528-5.899 5.27-8.664zm-6.434 6.104c-.779.354-1.579.611-2.359.78-.303-.165-.647-.267-1.022-.267-.487.009-.929.185-1.279.472-.986-.069-1.56-.365-1.686-.643-.156-.343-.12-1.097.494-2.093.714-1.155 1.946-2.192 3.381-2.845 1.419-.646 2.914-1.001 4.212-1.001 1.26 0 1.989.341 2.134.658.422.927-.729 3.507-3.875 4.939z" id="outline"/><g id="iconBg"><path class="icon-vs-bg" d="M10.109 11.079c-.616.28-1.241.507-1.862.689-.094-.15-.192-.268-.287-.36-.062-.339-.207-.647-.413-.91.661-.176 1.329-.402 1.98-.699 3.486-1.587 4.83-4.537 4.223-5.87-.305-.67-1.341-1.07-2.773-1.07-1.395 0-2.995.378-4.503 1.064-1.558.71-2.903 1.846-3.688 3.116-.645 1.045-.845 2.075-.535 2.755.23.504.875.855 1.791.998-.118.22-.199.459-.232.716l-.052.006.048.033-.023.272c.002.124.02.242.043.36-1.353-.212-2.401-.805-2.855-1.803-1.053-2.313 1.065-5.978 4.921-7.733 3.856-1.755 8.085-1.61 9.138.703 1.053 2.315-1.065 5.979-4.921 7.733zm-2.812.703h-.002l.002-.025c-.014-.776-.654-1.394-1.43-1.381-.776.014-1.394.655-1.381 1.431.014.776.654 1.394 1.43 1.381.23-.004.443-.069.634-.171l.044.171c.096.611-.271 1.394-.703 2.109h1.406c.369-.73.703-1.431.703-2.109 0-1.406-.703-1.406-.703-1.406z"/></g></svg>