<svg xmlns="http://www.w3.org/2000/svg" width="16" height="16"><style type="text/css">.icon-canvas-transparent{opacity:0;fill:#F6F6F6;} .icon-vs-out{fill:#F6F6F6;} .icon-vs-bg{fill:#424242;} .icon-vs-action-blue{fill:#00539C;}</style><path class="icon-canvas-transparent" d="M16 16h-16v-16h16v16z" id="canvas"/><path class="icon-vs-out" d="M12 5v2h2v4h-3v3h-7v-2h-2v-2.586l-.586.586h-1.414v-3.414l4-4v-1.586h12v4h-4z" id="outline"/><path class="icon-vs-bg" d="M15 2v2h-9.586l-.414-.414v-1.586h10zm-4 5v-2h-4.586l1.586 1.586v.414h3zm-5 5h-1v1h5v-2h-4v1zm2-2h5v-2h-5v2z" id="iconBg"/><g id="colorAction"><path class="icon-vs-action-blue" d="M3 11v-4l-2 2v-2l3-3 3 3v2l-2-2v4h-2z"/></g></svg>