<svg xmlns="http://www.w3.org/2000/svg" viewBox="0 0 16 16"><style>.st0{opacity:0}.st0,.st1{fill:#f6f6f6}.st2{fill:#424242}.st3{fill:#f0eff1}.st4{fill:#388a34}</style><g id="icon_x5F_bg"><path class="st0" d="M0 0h16v16H0z"/><path class="st1" d="M5.271 3L1.338 0H0v13h16V3z"/><path class="st2" d="M6.582 4l.076.058L5.401 5H14v6H2V7.551l-1 .75V12h14V4z"/><path class="st2" d="M3.988 6.06L2.035 7.524A4.144 4.144 0 0 0 2 8.053c0 1.287.492 1.933 1.477 1.933.491 0 .867-.174 1.129-.521.263-.348.394-.848.394-1.5C5 6.87 4.66 6.24 3.988 6.06zm-.483 3.276c-.386 0-.58-.436-.58-1.305 0-.922.197-1.383.591-1.383.37 0 .554.448.554 1.344.001.895-.187 1.344-.565 1.344zM9.558 6c-.506 0-.892.175-1.159.525-.266.351-.399.86-.399 1.527 0 1.288.492 1.934 1.477 1.934.49 0 .867-.174 1.129-.521.263-.348.394-.848.394-1.5C11 6.655 10.519 6 9.558 6zm-.052 3.336c-.387 0-.58-.436-.58-1.305 0-.921.197-1.383.592-1.383.369 0 .554.448.554 1.344-.001.894-.189 1.344-.566 1.344zM11.957 6.368c-.091.047-.194.077-.291.116v.772c.04-.013.081-.024.119-.04a1.92 1.92 0 0 0 .203-.101.981.981 0 0 0 .165-.117V10H13V6.035h-.514a3.509 3.509 0 0 1-.529.333zM5.957 6.333c-.091.047-.194.076-.29.116v.772c.04-.013.081-.024.119-.04.071-.031.138-.064.202-.1a.981.981 0 0 0 .165-.117v3.001H7V6h-.514a3.509 3.509 0 0 1-.529.333z"/><path class="st3" d="M10.071 7.992c0-.896-.185-1.344-.554-1.344-.395 0-.592.461-.592 1.383 0 .869.193 1.305.58 1.305.378 0 .566-.45.566-1.344z"/></g><path class="st4" d="M1 7.051l4-3L1 1v6.051z" id="color_x5F_action"/><g id="icon_x5F_fg"><path class="st3" d="M2.035 7.524L5.401 5H14v6H2z"/><path class="st2" d="M3.988 6.06L2.035 7.524A4.144 4.144 0 0 0 2 8.053c0 1.287.492 1.933 1.477 1.933.491 0 .867-.174 1.129-.521.263-.348.394-.848.394-1.5C5 6.87 4.66 6.24 3.988 6.06zm-.483 3.276c-.386 0-.58-.436-.58-1.305 0-.922.197-1.383.591-1.383.37 0 .554.448.554 1.344.001.895-.187 1.344-.565 1.344zM9.558 6c-.506 0-.892.175-1.159.525-.266.351-.399.86-.399 1.527 0 1.288.492 1.934 1.477 1.934.49 0 .867-.174 1.129-.521.263-.348.394-.848.394-1.5C11 6.655 10.519 6 9.558 6zm-.052 3.336c-.387 0-.58-.436-.58-1.305 0-.921.197-1.383.592-1.383.369 0 .554.448.554 1.344-.001.894-.189 1.344-.566 1.344zM11.957 6.368c-.091.047-.194.077-.291.116v.772c.04-.013.081-.024.119-.04a1.92 1.92 0 0 0 .203-.101.981.981 0 0 0 .165-.117V10H13V6.035h-.514a3.509 3.509 0 0 1-.529.333zM5.957 6.333c-.091.047-.194.076-.29.116v.772c.04-.013.081-.024.119-.04.071-.031.138-.064.202-.1a.981.981 0 0 0 .165-.117v3.001H7V6h-.514a3.509 3.509 0 0 1-.529.333z"/></g></svg>