<svg xmlns="http://www.w3.org/2000/svg" viewBox="0 0 16 16"><style>.st0{fill:#f6f6f6}.st1{fill:#424242}.st2{fill:#388a34}.st3{fill:#f0eff1}</style><path class="st0" d="M13.547 0H8c-.965 0-1.99.711-1.999 2H4L1.333 0H0v9l1-.75V12c0 1.299 1.031 2 2 2h2c0 1.299 1.031 2 2 2h6c1.299 0 2-1.03 2-2v-2.254c.65-.36 1-1.053 1-1.731V2.077L13.547 0z" id="outline"/><g id="icon_x5F_bg"><path class="st1" d="M11.625 5h-4.66S6 5 6 6v8c0 1 .965 1 .965 1h6c1 0 1.035-1 1.035-1V7.136L11.625 5zM13 9v5H7V6h4v2h2v1zM12.625 1h-4.66s-.952.018-.963 1H12v2h2v1.222l1 .84v-2.91L12.625 1zM7.625 3H5.333l1.334 1H8.737zM3 6.75L2 7.5V12c0 1 .965 1 .965 1H5v-1H3V6.75z"/></g><path class="st2" d="M5 4L1 7V1l4 3z" id="color_x5F_action"/><g id="icon_x5F_fg"><path class="st3" d="M7 6h4v1.96l2 .036V14H7zM12 3.976V2H8.547l2.38 2h1.62L14 5.221v-1.21zM3 6.75V12h2V6c0-.343.075-.642.199-.899L3 6.75z"/></g></svg>