<svg xmlns="http://www.w3.org/2000/svg" viewBox="0 0 16 16"><style>.st0{opacity:0}.st0,.st1{fill:#f6f6f6}.st2{fill:#424242}.st3{fill:#f0eff1}</style><g id="outline"><path class="st0" d="M0 0h16v16H0z"/><path class="st1" d="M16 0H5v7H0v2.414l3 3V16h4v-3h9z"/></g><path class="st2" d="M11 6H8V5h3v1zm2-3H8v1h5V3zm0 2h-1v1h1V5zM6 1v6h1V2h7v9H8.414l-1 1H15V1H6zm5 8h-1v.414L9.414 10H11V9zm1-2h-2v1h2V7zM9 8H1v1l3 3v3h2v-3l3-3V8z" id="icon_x5F_bg"/><path class="st3" d="M10 7h2v1h-2v1h1v1H9.414l-1 1H14V2H7v5h3zm3-1h-1V5h1v1zM8 3h5v1H8V3zm0 2h3v1H8V5z" id="icon_x5F_fg"/></svg>