<svg xmlns="http://www.w3.org/2000/svg" viewBox="0 0 16 16"><style>.st0{fill:#f6f6f6}.st1{fill:#424242}.st2{fill:#f0eff1}</style><path class="st0" d="M14.415 0H6.586L6 .586V0H3.5a2.504 2.504 0 0 0-2.373 1.713L1 2H0v2.914L1.336 6.25 0 7.586v6.828L1.585 16h7.829L11 14.414V11h3.414L16 9.414V1.586L14.415 0z" id="outline"/><g id="icon_x5F_bg"><path class="st1" d="M14 1H7L6 2v4h1V2h7v7h-3v1h3l1-1V2z"/><path class="st1" d="M11 7.586V8h2V3H8v3h1V4h1v2.585l1 1.001zM11 4h1v1h-1V4zm0 2h1v1h-1V6zM6 10h2v3H6zM3 9h2v2H3z"/><path class="st1" d="M2 7L1 8v6l1 1h7l1-1V8L9 7H2zm7 7H2V8h7v6zM4 4.5V3L3 4V2.5c0-.275.225-.5.5-.5H5V1H3.5C2.673 1 2 1.673 2 2.5V4L1 3v1.5L2.5 6 4 4.5z"/></g><g id="icon_x5F_fg"><path class="st2" d="M7 2v4h1V3h5v5h-2v1h3V2z"/><path class="st2" d="M9 6h.415l.585.585V4H9zM11 6h1v1h-1zM11 4h1v1h-1zM2 14h7V8H2v6zm4-4h2v3H6v-3zM3 9h2v2H3V9z"/></g></svg>