<svg xmlns="http://www.w3.org/2000/svg" viewBox="0 0 16 16"><style>.st0{fill:#f6f6f6}.st1{fill:#424242}.st2{fill:#f0eff1}</style><path class="st0" d="M0 0h16v16H0z" id="outline"/><g id="icon_x5F_bg"><path class="st1" d="M1 1v14h14V1H1zm13 13H2V2h12v12z"/><path class="st1" d="M8 4a4 4 0 1 0 0 8 4 4 0 0 0 0-8zm0 7c-1.654 0-3-1.346-3-3s1.346-3 3-3 3 1.346 3 3-1.346 3-3 3z"/></g><g id="icon_x5F_fg"><path class="st2" d="M2 2v12h12V2H2zm6 10a4 4 0 1 1 0-8 4 4 0 0 1 0 8z"/><circle class="st2" cx="8" cy="8" r="3"/></g></svg>