<svg xmlns="http://www.w3.org/2000/svg" viewBox="0 0 16 16"><style>.st0{fill:#f6f6f6}.st1{fill:#424242}.st2{fill:#f0eff1}</style><path class="st0" d="M0 0h16v16H0z" id="outline"/><g id="icon_x5F_bg"><path class="st1" d="M1 1v14h14V1H1zm13 13H2v-4h12v4zm0-5H2V2h12v7z"/><path class="st1" d="M6 12.5v.5h4v-.5l-2-2zM10.914 12H13v-1H9.914zM3 11v1h2.086l1-1z"/></g><g id="icon_x5F_fg"><path class="st2" d="M2 2h12v7H2zM2 10v4h12v-4H2zm1 2v-1h3.086l-1 1H3zm7 1H6v-.5l2-2 2 2v.5zm3-1h-2.086l-1-1H13v1z"/></g></svg>