<svg xmlns="http://www.w3.org/2000/svg" viewBox="0 0 16 16"><style>.st0{fill:#f6f6f6}.st1{fill:#424242}.st2{fill:none}.st3{fill:#f0eff1}</style><path class="st0" d="M16 0H5v7H0v9h11v-3h5z" id="outline"/><g id="icon_x5F_bg"><path class="st1" d="M6 1v6h1V2h7v9h-3v1h4V1z"/><path class="st1" d="M8 3h5v1H8zM12 5h1v1h-1zM11 7h1v1h-1zM8 5h3v1H8zM1 8h1v1H1zM3 8h1v1H3zM5 8h1v1H5zM7 8h1v1H7zM9 8h1v1H9zM1 14h1v1H1zM3 14h1v1H3zM5 14h1v1H5zM7 14h1v1H7zM9 14h1v1H9zM1 10h1v1H1zM1 12h1v1H1zM9 10h1v1H9zM9 12h1v1H9zM7 11h1v1H7zM5 11h1v1H5zM3 11h1v1H3z"/></g><g id="icon_x5F_fg"><path class="st2" d="M8 5h3v1H8zM8 3h5v1H8zM12 5h1v1h-1z"/><path class="st3" d="M2 14h7V9H2v5zm5-3h1v1H7v-1zm-2 0h1v1H5v-1zm-2 0h1v1H3v-1z"/><path class="st3" d="M7 2v5h5v1h-1v3h3V2H7zm4 4H8V5h3v1zm2 0h-1V5h1v1zm0-2H8V3h5v1z"/></g></svg>