<svg xmlns="http://www.w3.org/2000/svg" viewBox="0 0 16 16"><style>.st0{fill:#f6f6f6}.st1{fill:none}.st2{fill:#424242}.st3{fill:#f0eff1}</style><path class="st0" d="M16 8V3h-5v.382l-2-1V0H4v4.484L1.991 8H0v5h4.764L7 14.118V16h5v-3.764L14.118 8H16zm-6.618 3H7.236L5 9.882V8.516L7.009 5h.829L11 6.54v1.224L9.382 11z" id="outline"/><g id="icon_x5F_bg"><path class="st1" d="M9 13h1v1H9zM2 10h1v1H2zM6 2h1v1H6zM13 5h1v1h-1z"/><path class="st2" d="M8 1H5v3h3V1zM7 3H6V2h1v1zM8 15h3v-3H8v3zm1-2h1v1H9v-1zM11 4.5l-2-1v1l2 1zM12 4v3h3V4h-3zm2 2h-1V5h1v1zM10.5 11h1L13 8h-1zM5 12l2 1v-1l-2-1zM1 12h3V9H1v3zm1-2h1v1H2v-1zM4.857 5L3.143 8h1l1.714-3z"/></g><g id="icon_x5F_fg"><path class="st3" d="M6 2h1v1H6zM2 10h1v1H2zM13 5h1v1h-1zM9 13h1v1H9z"/></g></svg>