<svg xmlns="http://www.w3.org/2000/svg" viewBox="0 0 16 16"><style>.st0{opacity:0}.st0,.st1{fill:#f6f6f6}.st2{fill:none}.st3{fill:#424242}.st4{fill:#f0eff1}</style><g id="outline"><path class="st0" d="M0 0h16v16H0z"/><path class="st1" d="M13.414 5H9v.586L5.414 2H1.965C1.012 2 0 2.701 0 4v7c0 1.299 1.012 2 2 2h5.035C7.988 13 9 12.299 9 11v2h7V7.586L13.414 5z"/></g><g id="icon_x5F_bg"><path class="st2" d="M5 4H2v7h5V6H5z"/><path class="st3" d="M13 6h-3v6h5V8zM5 3H1.965S1 3 1 4h.001H1v7c0 1 .965 1 .965 1h5.07S8 12 8 11V6L5 3zm-3 8V4h3v2h2v5H2z"/></g><path class="st4" d="M7 11H2V4h3v2h2v5z" id="icon_x5F_fg"/></svg>