<svg xmlns="http://www.w3.org/2000/svg" viewBox="0 0 16 16"><style>.st0{opacity:0}.st0,.st1{fill:#f6f6f6}.st2{stroke:#424242;stroke-width:.15;stroke-miterlimit:10}.st2,.st3{fill:#f0eff1}.st4{fill:#424242}</style><g id="outline"><path class="st0" d="M0 0h16v16H0z"/><path class="st1" d="M3 16c-.97 0-2-.701-2-2V2C1 .701 2.03 0 3 0h8.061L15 3.556V14c0 .97-.701 2-2 2H3z"/></g><g id="icon_x5F_fg"><path class="st2" d="M7.995 5.188l3.07 1.513L8.201 8.42 5.106 6.655zM7.971 12.561v.016l-.01-.008-.008.008v-.016l-3.167-2.064V7.178l3.209 1.793v3.573zM11.19 10.599l-2.576 1.856V8.992l2.576-1.567z"/><path class="st3" d="M10 5V2H3v12h10V5h-3zm1.755 5.874l-3.507 2.57-4.081-2.57V6.471l3.874-1.959 3.714 1.959v4.403z"/></g><g id="icon_x5F_bg"><path class="st4" d="M10.641 1H2.964S2 1 2 2v12c0 1 .965 1 .965 1h10c1 0 1.035-1 1.035-1V4l-3.359-3zM13 14H3V2h7v3h3v9z"/><path class="st4" d="M11.755 10.874V6.471L8.041 4.512 4.167 6.471v4.403l4.081 2.57 3.507-2.57zm-3.76-5.686l3.07 1.513L8.201 8.42 5.106 6.655l2.889-1.467zm-.024 7.373v.016l-.01-.008-.008.008v-.016l-3.167-2.064V7.178L7.995 8.97v3.573l-.024.018zm3.219-1.962l-2.576 1.856V8.992l2.576-1.567v3.174z"/></g></svg>