<svg xmlns="http://www.w3.org/2000/svg" viewBox="0 0 16 16"><style>.st0{fill:#f6f6f6}.st1{fill:#424242}.st2{fill:#f0eff1}</style><path class="st0" d="M0 0h16v16H0z" id="outline"/><g id="icon_x5F_bg"><path class="st1" d="M1 1v14h14V1H1zm13 13H2V2h12v12z"/><path class="st1" d="M4 3h1v1H4zM4 6h1v1H4zM4 9h1v1H4zM6 3h6v1H6zM6 6h6v1H6zM6 9h6v1H6zM4 12h1v1H4zM6 12h6v1H6z"/></g><path class="st2" d="M2 2v12h12V2H2zm3 11H4v-1h1v1zm0-3H4V9h1v1zm0-3H4V6h1v1zm0-3H4V3h1v1zm7 9H6v-1h6v1zm0-3H6V9h6v1zm0-3H6V6h6v1zm0-3H6V3h6v1z" id="icon_x5F_fg"/></svg>