<svg xmlns="http://www.w3.org/2000/svg" viewBox="0 0 16 16"><style>.st0{opacity:0}.st0,.st1{fill:#f6f6f6}.st2{fill:#424242}.st3{fill:#f0eff1}</style><g id="outline"><path class="st0" d="M0 0h16v16H0z"/><path class="st1" d="M14.82 9H13V0H3v5H0v11h16v-1.1z"/></g><g id="icon_x5F_bg"><path class="st2" d="M6 12h5V2H5v3H4V1h8v9h2l1 5H6z"/><path class="st2" d="M6 3h4v1H6zM9 10h1v1H9zM6 5h4v1H6zM1 15h4V6H1v9zm1-8h2v2H2V7zm0 4h2v1H2v-1zm0 2h2v1H2v-1z"/></g><path class="st3" d="M5 2v3h5v1H6v6h5V2H5zm5 9H9v-1h1v1zm0-7H6V3h4v1zm-8 7h2v1H2v-1zm0 2h2v1H2v-1zm0-6h2v2H2V7z" id="icon_x5F_fg"/></svg>