<svg xmlns="http://www.w3.org/2000/svg" viewBox="0 0 16 16"><style>.st0{opacity:0}.st0,.st1{fill:#f6f6f6}.st2{fill:#424242}.st3{fill:#f0eff1}</style><g id="outline"><path class="st0" d="M0 0h16v16H0z"/><path class="st1" d="M16 1h-5V0H5v4.102l-.525.065-.206 1.653-1.317-1.023-.613.477a5.993 5.993 0 0 0-1.068 1.067l-.474.615 1.022 1.313-1.65.206-.115.9A4.453 4.453 0 0 0 0 10c0 .215.025.42.054.626l.115.9 1.65.206-1.022 1.311.474.614c.305.394.663.754 1.066 1.068l.614.479 1.317-1.025.206 1.656.912.112c.203.029.404.053.614.053s.411-.024.613-.052l.912-.112.206-1.656 1.317 1.025.614-.479a6.02 6.02 0 0 0 1.066-1.068l.474-.614L10.39 12H16V1z"/></g><g id="icon_x5F_bg"><path class="st2" d="M10.936 10.631c.027-.209.064-.414.064-.631 0-.215-.037-.42-.064-.629l-1.543-.193a3.474 3.474 0 0 0-.414-.994l.959-1.231a5.032 5.032 0 0 0-.89-.89l-1.232.959a3.45 3.45 0 0 0-.994-.414L6.63 5.064C6.421 5.038 6.216 5 6 5s-.421.038-.63.064l-.192 1.544a3.45 3.45 0 0 0-.994.414l-1.232-.959a4.993 4.993 0 0 0-.889.89l.959 1.231a3.448 3.448 0 0 0-.415.994l-1.544.193C1.037 9.58 1 9.785 1 10c0 .217.037.422.063.631l1.544.191c.086.357.228.689.414.994l-.959 1.231c.258.334.557.631.89.891l1.231-.959c.305.186.638.328.994.414l.192 1.545c.21.025.415.062.631.062s.421-.037.63-.063l.192-1.545c.356-.086.689-.229.994-.414l1.231.959c.333-.26.632-.557.89-.891l-.959-1.231c.187-.305.328-.637.414-.994l1.544-.19zM6 12a2 2 0 1 1 0-4 2 2 0 0 1 0 4z"/><path class="st2" d="M6 1v3c.211 0 .414.025.617.053l.908.114.206 1.653 1.316-1.023.613.477c.121.093.229.198.34.299V1H6zm3 2H7V2h2v1zM11 2v4.693l.203.263-.203.26v1.155l.831.104.115.9c.029.206.054.412.054.625V9h2v1h-2c0 .215-.025.42-.054.626l-.048.374H15V2h-4zm3 6h-2V7h2v1zm0-3h-2V3h2v2z"/><circle class="st2" cx="6" cy="10" r="1"/></g><path class="st3" d="M9 3H7V2h2v1zm3 7h2V9h-2v1zm0-7v2h2V3h-2zm0 5h2V7h-2v1zm-4 2a2 2 0 1 1-3.999.001A2 2 0 0 1 8 10zm-1 0a1 1 0 1 0-2 0 1 1 0 0 0 2 0z" id="icon_x5F_fg"/></svg>