<svg xmlns="http://www.w3.org/2000/svg" viewBox="0 0 16 16"><style>.st0{opacity:0}.st0,.st1{fill:#f6f6f6}.st2{fill:#424242}.st3{fill:#f0eff1}</style><g id="outline"><path class="st0" d="M0 0h16v16H0z"/><path class="st1" d="M14.819 9H12V0H4v5H0v11h16v-1.099z"/></g><g id="icon_x5F_bg"><path class="st2" d="M15 15H6v-2h6v-3h2z"/><path class="st2" d="M5 1v4h1V4h4v1H6v7h5V1H5zm5 10H9v-1h1v1zm0-8H6V2h4v1zM1 6v9h4V6H1zm3 8H2v-1h2v1zm0-2H2v-1h2v1zm0-3H2V7h2v2z"/></g><path class="st3" d="M9 10h1v1H9v-1zM6 2v1h4V2H6zm0 3h4V4H6v1zm-4 7h2v-1H2v1zm0 2h2v-1H2v1zm0-5h2V7H2v2z" id="icon_x5F_fg"/></svg>