<svg xmlns="http://www.w3.org/2000/svg" viewBox="0 0 16 16"><style>.st0{opacity:0}.st0,.st1{fill:#f6f6f6}.st2{fill:#424242}.st3{fill:#f0eff1}</style><g id="outline"><path class="st0" d="M0 0h16v16H0z"/><path class="st1" d="M15 4.75c0 .976-.339 1.913-.979 2.713A382 382 0 0 1 12 10.321V15H8v1H2V5h2.018l-.001-.03A1.461 1.461 0 0 1 4 4.75C4 2.131 6.467 0 9.5 0 12.532 0 15 2.131 15 4.75z"/></g><g id="icon_x5F_bg"><path class="st2" d="M3 6h4v9H3z"/><path class="st2" d="M4 13h2v1H4zM4 11h2v1H4zM4 7h2v2H4zM8 11h3v1H8zM8 13h3v1H8zM14 4.75c0 .78-.287 1.504-.773 2.104-.022.042-2.225 3.146-2.225 3.146H8V4.917H5.016C5.012 4.861 5 4.807 5 4.75 5 2.679 7.015 1 9.5 1 11.986 1 14 2.679 14 4.75z"/></g><path class="st3" d="M6 14H4v-1h2v1zm0-3H4v1h2v-1zm0-4H4v2h2V7z" id="icon_x5F_fg"/></svg>