<svg xmlns="http://www.w3.org/2000/svg" viewBox="0 0 16 16"><style>.st0{opacity:0}.st0,.st1{fill:#f6f6f6}.st2{fill:#424242}</style><g id="outline"><path class="st0" d="M0 0h16v16H0z"/><path class="st1" d="M14 4.75C14 2.131 11.532 0 8.5 0S3 2.131 3 4.75c0 .976.41 1.834.98 2.713.155.225.611.871 2.02 2.857V15h5v-4.68a372.553 372.553 0 0 0 2.019-2.857c.609-.879.981-1.737.981-2.713z"/></g><g id="icon_x5F_bg"><path class="st2" d="M7 13h3v1H7zM7 11h3v1H7zM8.5 1C6.015 1 4 2.679 4 4.75c0 .78.287 1.504.774 2.104C4.796 6.896 6.999 10 6.999 10h3.002s2.203-3.104 2.225-3.146c.487-.6.774-1.324.774-2.104C13 2.679 10.985 1 8.5 1z"/></g></svg>