<svg xmlns="http://www.w3.org/2000/svg" viewBox="0 0 16 16"><style>.st0{opacity:0}.st0,.st1{fill:#f6f6f6}.st2{fill:#424242}</style><g id="outline"><path class="st0" d="M0 0h16v16H0z"/><path class="st1" d="M15 16v-2h1V2H3V0H0v14h2v2z"/></g><g id="icon_x5F_bg"><path class="st2" d="M15 12v1H1V0h1v12zM3 14h1v1H3zM5 14h1v1H5zM7 14h1v1H7zM9 14h1v1H9zM11 14h1v1h-1zM13 14h1v1h-1z"/><path class="st2" d="M4.671 8.946v-.64h.763V6.014l-.783.169v-.658l1.592-.321v3.103H7v.64H4.671zM7.724 8.938v-.63L8.78 7.3a5.13 5.13 0 0 0 .28-.288c.074-.085.135-.165.18-.238a.897.897 0 0 0 .096-.213.727.727 0 0 0-.007-.415.443.443 0 0 0-.279-.266.738.738 0 0 0-.24-.037c-.087 0-.171.01-.254.03a1.578 1.578 0 0 0-.457.203 2.025 2.025 0 0 0-.193.145v-.714a2.056 2.056 0 0 1 1.079-.305c.202 0 .379.027.53.08.148.054.272.129.369.222a.877.877 0 0 1 .218.333 1.295 1.295 0 0 1-.101 1.053c-.06.108-.138.22-.235.333a3.31 3.31 0 0 1-.356.355l-.757.673v.017h1.494v.671H7.724zM13.342 7.884c0 .156-.027.302-.081.437a.946.946 0 0 1-.254.354 1.204 1.204 0 0 1-.434.238 2.002 2.002 0 0 1-.63.087 2.911 2.911 0 0 1-.528-.051 2.303 2.303 0 0 1-.232-.06A1.482 1.482 0 0 1 11 8.816V8.11a1.525 1.525 0 0 0 .419.202 1.673 1.673 0 0 0 .445.067c.215 0 .378-.046.491-.138a.447.447 0 0 0 .171-.368.428.428 0 0 0-.061-.229.473.473 0 0 0-.168-.161.875.875 0 0 0-.256-.094 1.642 1.642 0 0 0-.324-.031h-.331v-.619h.305c.129 0 .236-.012.326-.037a.658.658 0 0 0 .225-.1.393.393 0 0 0 .173-.341.523.523 0 0 0-.03-.18.382.382 0 0 0-.101-.142.46.46 0 0 0-.174-.095 1.026 1.026 0 0 0-.458-.012 1.49 1.49 0 0 0-.192.053c-.06.023-.117.048-.173.076a1.545 1.545 0 0 0-.147.089v-.661a1.92 1.92 0 0 1 .608-.177c.092-.012.191-.018.296-.018.215 0 .398.026.548.081.15.054.273.125.366.211a.802.802 0 0 1 .205.292.887.887 0 0 1 .063.33c0 .104-.014.203-.04.298a.809.809 0 0 1-.352.47 1.08 1.08 0 0 1-.33.135v.012c.135.017.255.051.359.103a.836.836 0 0 1 .424.45c.035.098.055.2.055.308z"/><path class="st2" d="M3 3v8h12V3H3zm11 7H4V4h10v6z"/></g></svg>