<svg xmlns="http://www.w3.org/2000/svg" viewBox="0 0 16 16"><style>.icon-canvas-transparent{opacity:0;fill:#f6f6f6}.icon-vs-out{fill:#f6f6f6}.icon-vs-bg{fill:#424242}.icon-vs-green{fill:#393}</style><path class="icon-canvas-transparent" d="M16 0v16H0V0h16z" id="canvas"/><path class="icon-vs-out" d="M14.115 6.26l-.266.266a3.49 3.49 0 0 0-2.713-2.464l-.487-.09A3.506 3.506 0 0 0 7.5 2h-4C1.57 2 0 3.57 0 5.5a3.499 3.499 0 0 0 2.864 3.438l.487.09a3.51 3.51 0 0 0 1.391 1.49l-1.04 1.041L8.143 16h.828L16 8.973v-.83L14.115 6.26z" id="outline"/><path class="icon-vs-bg" d="M2 5.5c0 .672.447 1.236 1.058 1.426A3.5 3.5 0 0 0 3 7.5c0 .155.026.304.046.454A2.5 2.5 0 0 1 1 5.5C1 4.122 2.122 3 3.5 3h4C8.879 3 10 4.122 10 5.5S8.879 8 7.5 8H6.43l-.094-.034A.5.5 0 0 1 6 7.5a.5.5 0 0 1 .336-.466L6.405 7H7.5C8.327 7 9 6.327 9 5.5S8.327 4 7.5 4h-4C2.673 4 2 4.673 2 5.5zm8.954-.454c.02.15.046.298.046.454a3.5 3.5 0 0 1-.058.574C11.553 6.264 12 6.828 12 7.5c0 .827-.673 1.5-1.5 1.5H6v-.092c-.581-.207-1-.757-1-1.408s.419-1.201 1-1.408V6h1.5a.5.5 0 0 0 0-1h-1A2.503 2.503 0 0 0 4 7.5a2.5 2.5 0 0 0 1.481 2.278l.518-.519.741.741h3.636l2.614-2.614a2.497 2.497 0 0 0-2.036-2.34z" id="iconBg"/><g id="colorImportance"><path class="icon-vs-green" d="M8.558 15l-3.442-3.441.884-.885 2.558 2.558 5.557-5.558.885.884z"/></g></svg>