<svg xmlns="http://www.w3.org/2000/svg" viewBox="0 0 16 16"><style>.st0{opacity:0}.st0,.st1{fill:#f6f6f6}.st2{fill:#424242}.st3{fill:#00539c}</style><g id="outline"><path class="st0" d="M0 0h16v16H0z"/><path class="st1" d="M0 0v8h5v3H2v5h13V3h-4v3H8.005l.005-1H6.844L8 4.094V0H3.906L3 1.157V0z"/></g><g id="icon_x5F_bg"><path class="st2" d="M3 12h2v3H3zM6 9h2v6H6zM12 4h2v11h-2zM9 7h2v8H9z"/></g><g id="color_x5F_action"><path class="st3" d="M7.004 6H2V1H1v6h6z"/><path class="st3" d="M4.32 1.108l-.857.857h1.965l-2.32 2.32.607.607 2.319-2.321v1.967l.857-.859V1.108z"/></g></svg>