<svg xmlns="http://www.w3.org/2000/svg" viewBox="0 0 16 16"><defs><style>.icon-canvas-transparent-,.icon-vs-out{fill:#f6f6f6}.icon-canvas-transparent-{opacity:0}.a{fill:#424242}.icon-vs-fg{fill:#f0eff1}.icon-vs-action-blue{fill:#00539c}</style></defs><title>LinkButton_16x</title><path class="icon-canvas-transparent-" d="M16 16H0V0h16z"/><path class="icon-vs-out" d="M16 3.349v8.3A2.349 2.349 0 0 1 13.651 14h-10.3A2.35 2.35 0 0 1 1 11.65v-8.3A2.35 2.35 0 0 1 3.35 1h10.301A2.349 2.349 0 0 1 16 3.349z"/><path class="a" d="M5 10h7v1H5zm.074-1.68A1.4 1.4 0 0 1 5 7.857a1.562 1.562 0 0 1 .065-.457 1.077 1.077 0 0 1 .205-.381 1.1 1.1 0 0 1 .357-.279 1.64 1.64 0 0 1 .525-.152l1.03-.154a.861.861 0 0 0-.174-.6.649.649 0 0 0-.494-.186 1.742 1.742 0 0 0-.627.117 1.939 1.939 0 0 0-.544.313v-.771a1.367 1.367 0 0 1 .213-.113 2.906 2.906 0 0 1 .31-.109A3.274 3.274 0 0 1 6.229 5a2.21 2.21 0 0 1 .371-.035 1.636 1.636 0 0 1 .608.1 1.076 1.076 0 0 1 .424.295 1.278 1.278 0 0 1 .249.471 2.223 2.223 0 0 1 .083.637v2.438h-.787v-.529h-.014a1.3 1.3 0 0 1-.44.463 1.118 1.118 0 0 1-.6.16 1.26 1.26 0 0 1-.479-.084.957.957 0 0 1-.352-.234 1 1 0 0 1-.218-.362zm.708-.553a.582.582 0 0 0 .041.219.491.491 0 0 0 .116.172.531.531 0 0 0 .185.113.678.678 0 0 0 .242.041.76.76 0 0 0 .334-.072.806.806 0 0 0 .256-.2.892.892 0 0 0 .165-.295 1.137 1.137 0 0 0 .059-.365v-.345l-.761.109a1.365 1.365 0 0 0-.32.078.546.546 0 0 0-.2.133.427.427 0 0 0-.1.18.936.936 0 0 0-.017.233zm6.144-1.641a3.558 3.558 0 0 1 .074.735 3.7 3.7 0 0 1-.092.844 2.16 2.16 0 0 1-.273.672 1.345 1.345 0 0 1-.443.443 1.145 1.145 0 0 1-.609.16.921.921 0 0 1-.292-.043.859.859 0 0 1-.238-.121 1.018 1.018 0 0 1-.191-.186 1.471 1.471 0 0 1-.152-.23H9.7v.484H9V4h.7v1.656h.01a2.006 2.006 0 0 1 .181-.289 1.187 1.187 0 0 1 .226-.223A1.012 1.012 0 0 1 10.394 5a1.047 1.047 0 0 1 .336-.052 1.033 1.033 0 0 1 .57.152 1.214 1.214 0 0 1 .394.416 2.058 2.058 0 0 1 .232.611zm-.644.721a2.176 2.176 0 0 0-.052-.494 1.221 1.221 0 0 0-.15-.377.718.718 0 0 0-.244-.238.649.649 0 0 0-.327-.082.676.676 0 0 0-.331.082.774.774 0 0 0-.257.232 1.175 1.175 0 0 0-.168.359 1.678 1.678 0 0 0-.061.465V7.3a1.254 1.254 0 0 0 .057.381.987.987 0 0 0 .154.307.745.745 0 0 0 .237.207.615.615 0 0 0 .3.076.682.682 0 0 0 .35-.092.746.746 0 0 0 .264-.266 1.4 1.4 0 0 0 .168-.445 2.878 2.878 0 0 0 .059-.62z"/><path class="a" d="M13.651 3a.35.35 0 0 1 .349.349v8.3a.35.35 0 0 1-.349.349H3.349A.35.35 0 0 1 3 11.651v-8.3A.35.35 0 0 1 3.349 3h10.3m0-1h-10.3A1.349 1.349 0 0 0 2 3.349v8.3A1.349 1.349 0 0 0 3.349 13h10.3A1.349 1.349 0 0 0 15 11.651v-8.3A1.349 1.349 0 0 0 13.651 2z"/><path class="icon-vs-fg" d="M13.651 3a.35.35 0 0 1 .349.349v8.3a.35.35 0 0 1-.349.349H3.349A.35.35 0 0 1 3 11.651v-8.3A.35.35 0 0 1 3.349 3h10.3"/><path class="icon-vs-action-blue" d="M5 10h7v1H5zm.074-1.68A1.4 1.4 0 0 1 5 7.857a1.562 1.562 0 0 1 .065-.457 1.077 1.077 0 0 1 .205-.381 1.1 1.1 0 0 1 .357-.279 1.64 1.64 0 0 1 .525-.152l1.03-.154a.861.861 0 0 0-.174-.6.649.649 0 0 0-.494-.186 1.742 1.742 0 0 0-.627.117 1.939 1.939 0 0 0-.544.313v-.771a1.367 1.367 0 0 1 .213-.113 2.906 2.906 0 0 1 .31-.109A3.274 3.274 0 0 1 6.229 5a2.21 2.21 0 0 1 .371-.035 1.636 1.636 0 0 1 .608.1 1.076 1.076 0 0 1 .424.295 1.278 1.278 0 0 1 .249.471 2.223 2.223 0 0 1 .083.637v2.438h-.787v-.529h-.014a1.3 1.3 0 0 1-.44.463 1.118 1.118 0 0 1-.6.16 1.26 1.26 0 0 1-.479-.084.957.957 0 0 1-.352-.234 1 1 0 0 1-.218-.362zm.708-.553a.582.582 0 0 0 .041.219.491.491 0 0 0 .116.172.531.531 0 0 0 .185.113.678.678 0 0 0 .242.041.76.76 0 0 0 .334-.072.806.806 0 0 0 .256-.2.892.892 0 0 0 .165-.295 1.137 1.137 0 0 0 .059-.365v-.345l-.761.109a1.365 1.365 0 0 0-.32.078.546.546 0 0 0-.2.133.427.427 0 0 0-.1.18.936.936 0 0 0-.017.233zm6.144-1.641a3.558 3.558 0 0 1 .074.735 3.7 3.7 0 0 1-.092.844 2.16 2.16 0 0 1-.273.672 1.345 1.345 0 0 1-.443.443 1.145 1.145 0 0 1-.609.16.921.921 0 0 1-.292-.043.859.859 0 0 1-.238-.121 1.018 1.018 0 0 1-.191-.186 1.471 1.471 0 0 1-.152-.23H9.7v.484H9V4h.7v1.656h.01a2.006 2.006 0 0 1 .181-.289 1.187 1.187 0 0 1 .226-.223A1.012 1.012 0 0 1 10.394 5a1.047 1.047 0 0 1 .336-.052 1.033 1.033 0 0 1 .57.152 1.214 1.214 0 0 1 .394.416 2.058 2.058 0 0 1 .232.611zm-.644.721a2.176 2.176 0 0 0-.052-.494 1.221 1.221 0 0 0-.15-.377.718.718 0 0 0-.244-.238.649.649 0 0 0-.327-.082.676.676 0 0 0-.331.082.774.774 0 0 0-.257.232 1.175 1.175 0 0 0-.168.359 1.678 1.678 0 0 0-.061.465V7.3a1.254 1.254 0 0 0 .057.381.987.987 0 0 0 .154.307.745.745 0 0 0 .237.207.615.615 0 0 0 .3.076.682.682 0 0 0 .35-.092.746.746 0 0 0 .264-.266 1.4 1.4 0 0 0 .168-.445 2.878 2.878 0 0 0 .059-.62z"/></svg>