<svg xmlns="http://www.w3.org/2000/svg" viewBox="0 0 16 16"><style>.icon-canvas-transparent{opacity:0;fill:#f6f6f6}.icon-vs-out{fill:#f6f6f6}.icon-vs-bg{fill:#424242}.icon-vs-red{fill:#e51400}</style><path class="icon-canvas-transparent" d="M16 0v16H0V0h16z" id="canvas"/><path class="icon-vs-out" d="M8.379 14.293L10.086 16h.828l1.482-1.482L13.879 16h.828L16 14.707v-.828l-1.482-1.482L16 10.914v-.828l-.129-.129C15.948 9.649 16 9.332 16 9a4 4 0 0 0-2.688-3.765l-.417-.146A4.007 4.007 0 0 0 9 2H4C1.794 2 0 3.794 0 6c0 1.69 1.08 3.203 2.688 3.766l.417.146A4.006 4.006 0 0 0 7 13h2.672l-1.293 1.293z" id="outline"/><path class="icon-vs-bg" d="M2 6c0-1.103.897-2 2-2h5c1.102 0 2 .897 2 2s-.898 2-2 2H7c-.551 0-1 .449-1 1h3c1.654 0 3-1.346 3-3s-1.346-3-3-3H4C2.346 3 1 4.346 1 6c0 1.309.847 2.412 2.018 2.821.016-.345.079-.676.177-.993A2.001 2.001 0 0 1 2 6zm12 3h.914l.078.078C14.993 9.052 15 9.027 15 9a2.993 2.993 0 0 0-2.018-2.821 3.967 3.967 0 0 1-.177.993A2.002 2.002 0 0 1 14 9zm-5.121 2H7c-1.103 0-2-.898-2-2 0-1.103.897-2 2-2h2c.552 0 1-.449 1-1H7C5.346 6 4 7.346 4 9s1.346 3 3 3h2.879l-1-1z" id="iconBg"/><g id="colorNotification"><path class="icon-vs-red" d="M15 10.5l-1.896 1.896L15 14.293l-.707.707-1.897-1.896L10.5 15l-.707-.707 1.896-1.897L9.793 10.5l.707-.707 1.896 1.896 1.897-1.896z"/></g></svg>