<svg xmlns="http://www.w3.org/2000/svg" viewBox="0 0 16 16"><style>.icon-canvas-transparent{opacity:0;fill:#f6f6f6}.icon-vs-out{fill:#f6f6f6}.icon-vs-bg{fill:#424242}.icon-vs-fg{fill:#f0eff1}</style><path class="icon-canvas-transparent" d="M16 0v16H0V0h16z" id="canvas"/><path class="icon-vs-out" d="M16 4v12H2v-2.132l-.463-.261A2.99 2.99 0 0 1 .198 12H0V0h14v4h2z" id="outline"/><path class="icon-vs-fg" d="M14 8v6h-2.184c.112-.314.184-.648.184-1a3.003 3.003 0 0 0-1.535-2.607l-.621-.35A3.007 3.007 0 0 0 7 8h7z" id="iconFg"/><g id="iconBg"><path class="icon-vs-bg" d="M2 8.184a2.989 2.989 0 0 0-1 .596V1h12v3H2v4.184zM3 5v3h11v6h-2.184a2.989 2.989 0 0 1-.596 1H15V5H3zm0 5h4a1.001 1.001 0 0 1 0 2l-1 1h1c1.102 0 2-.897 2-2s-.898-2-2-2H3c-1.103 0-2 .897-2 2 0 .748.417 1.393 1.027 1.736a2.96 2.96 0 0 1 .275-1.024A.99.99 0 0 1 2 11c0-.551.449-1 1-1zm6.973 1.264a2.965 2.965 0 0 1-.275 1.024A.99.99 0 0 1 10 13a1 1 0 0 1-1 1H5a1.001 1.001 0 0 1 0-2l1-1H5c-1.103 0-2 .897-2 2 0 1.102.897 2 2 2h4c1.102 0 2-.898 2-2 0-.748-.417-1.393-1.027-1.736z"/></g></svg>