<svg xmlns="http://www.w3.org/2000/svg" viewBox="0 0 16 16"><style>.st0{fill:#f6f6f6}.st1{fill:#424242}.st2{fill:#00539c}</style><path class="st0" d="M12.5 7c.839-.733 1.5-1.798 1.5-3a4 4 0 0 0-4-4c-.732 0-1.41.211-2 .555V.108H3.906L2.857 1.157V0H0v8h4v8h12V7h-3.5z" id="outline"/><g id="icon_x5F_bg"><path class="st1" d="M8 4.094l-.856.777c.027.091.048.185.084.271h.782l-.006 1.083A2.974 2.974 0 0 0 10 7c1.654 0 3-1.343 3-3 0-1.656-1.346-3-3-3-.771 0-1.468.3-2 .779v2.315zM12 8l-2 3-2-3H5v7h10V8z"/></g><g id="color_x5F_action"><path class="st2" d="M7.004 6H2V1H1v6h6z"/><path class="st2" d="M4.32 1.108l-.857.857h1.966L3.108 4.286l.607.606 2.319-2.32v1.966l.858-.858V1.108z"/></g></svg>