<svg xmlns="http://www.w3.org/2000/svg" viewBox="0 0 16 16"><style>.icon-canvas-transparent{opacity:0;fill:#f6f6f6}.icon-vs-out{fill:#f6f6f6}.icon-vs-bg{fill:#424242}.icon-vs-blue{fill:#1ba1e2}.icon-white{fill:#fff}</style><path class="icon-canvas-transparent" d="M16 0v16H0V0h16z" id="canvas"/><path class="icon-vs-out" d="M15.946 10.532l.054.054v1.828L12.414 16h-1.828l-2-2H7a4.008 4.008 0 0 1-3.896-3.089l-.417-.146A4 4 0 0 1 0 7c0-2.206 1.794-4 4-4h5a4.009 4.009 0 0 1 3.896 3.089l.417.146A4 4 0 0 1 16 10c0 .182-.03.356-.054.532z" id="outline"/><path class="icon-vs-bg" d="M14.964 9.55l-2.022-2.021c.016-.116.034-.231.04-.35a3.001 3.001 0 0 1 1.982 2.371zM6 10h1.586l1-1H7c-.551 0-1 .449-1 1zm-2 0c0 1.654 1.346 3 3 3h.586L7 12.414V12c-1.103 0-2-.898-2-2 0-1.103.897-2 2-2h2c.552 0 1-.449 1-1H7c-1.654 0-3 1.346-3 3zm5-6H4C2.346 4 1 5.346 1 7c0 1.309.847 2.412 2.018 2.821.016-.345.079-.676.177-.993A2.001 2.001 0 0 1 2 7c0-1.103.897-2 2-2h5c1.102 0 2 .897 2 2h1c0-1.654-1.346-3-3-3z" id="iconBg"/><path class="icon-vs-blue" d="M12 8h-1l-3 3v1l3 3h1l3-3v-1l-3-3zm0 6h-1v-1h1v1zm0-2h-1V9h1v3z" id="notificationBg"/><g id="notificationFg"><path class="icon-white" d="M12 12h-1V9h1v3zm0 1h-1v1h1v-1z"/></g></svg>