<svg xmlns="http://www.w3.org/2000/svg" viewBox="0 0 16 16"><style>.icon-canvas-transparent{opacity:0;fill:#f6f6f6}.icon-vs-out{fill:#f6f6f6}.icon-vs-fg{fill:#f0eff1}.icon-vs-bg{fill:#424242}</style><path class="icon-canvas-transparent" d="M16 16H0V0h16v16z" id="canvas"/><path class="icon-vs-out" d="M15 4.379V16H2v-2.132l-.463-.261A2.998 2.998 0 0 1 0 11c0-1.302.839-2.402 2-2.816V0h8.621L15 4.379z" id="outline"/><path class="icon-vs-fg" d="M12.793 5H10V2.207L12.793 5zM9 6V2H4v6h3c1.319 0 2.443.856 2.844 2.042l.621.35A3.006 3.006 0 0 1 12 13c0 .352-.072.686-.184 1H13V6H9z" id="iconFg"/><g id="iconBg"><path class="icon-vs-bg" d="M10.207 1H3v7h1V2h5v4h4v8h-1.184a2.989 2.989 0 0 1-.596 1H14V4.793L10.207 1zM10 5V2.207L12.793 5H10zm-8 6a.99.99 0 0 0 .302.712 2.96 2.96 0 0 0-.275 1.024A1.991 1.991 0 0 1 1 11c0-1.103.897-2 2-2h4c1.102 0 2 .897 2 2s-.898 2-2 2H6l1-1a1.001 1.001 0 0 0 0-2H3c-.551 0-1 .449-1 1zm9 2c0 1.102-.898 2-2 2H5c-1.103 0-2-.898-2-2 0-1.103.897-2 2-2h1l-1 1a1.001 1.001 0 0 0 0 2h4a1 1 0 0 0 1-1 .995.995 0 0 0-.302-.713 2.96 2.96 0 0 0 .275-1.024c.61.344 1.027.989 1.027 1.737z"/></g></svg>