<svg xmlns="http://www.w3.org/2000/svg" viewBox="0 0 16 16"><style>.st0{fill:#f6f6f6}.st1{fill:#424242}.st2{fill:#00539c}.st3{fill:#f0eff1}</style><path class="st0" d="M9.329 6.341l-.963-1.924-1.004.726h-.518L8 4.094V.108H3.906L3 1.014l-.143.143V0H0v16h16V.782L9.329 6.341zM15 15H1V8h1v6h13v1zm0-11.083V13H3V8h4.994l.011-2.069L9 7.917l6-5v1z" id="outline"/><g id="icon_x5F_bg"><path class="st0" d="M3 1.014V0h-.143v1.157zM5.113 8H3.345l.585.854z"/><path class="st1" d="M1 15h14v-1H2V8H1z"/><path class="st1" d="M11 8.447L6.897 12.55l-1.098-2.196-2.799.7V13h12V7.806l-1.955 2.686z"/><path class="st1" d="M9 7.917l-.995-1.986L7.994 8H5.113l-1.183.854L3.345 8H3v2.28l3.201-.8.902 1.804L11 7.387l1.955 1.955L15 6.533V2.917z"/><path class="st0" d="M3 7.495V8h.345z"/></g><g id="color_x5F_action"><path class="st2" d="M7.004 6H2V1H1v6h6z"/><path class="st2" d="M4.32 1.108l-.857.857h1.966L3.108 4.286l.607.606 2.319-2.32v1.966l.858-.858V1.108z"/></g><path class="st3" d="M15 6.533l-2.045 2.809L11 7.387l-3.897 3.897-.902-1.804-3.201.8v.774l2.799-.7 1.098 2.196L11 8.447l2.045 2.045L15 7.806z" id="icon_x5F_fg"/></svg>