<svg xmlns="http://www.w3.org/2000/svg" viewBox="0 0 16 16" enable-background="new 0 0 16 16"><style type="text/css">.icon-canvas-transparent{opacity:0;fill:#F6F6F6;} .icon-vs-out{fill:#F6F6F6;} .icon-vs-bg{fill:#424242;}</style><path class="icon-canvas-transparent" d="M16 16h-16v-16h16v16z" id="canvas"/><path class="icon-vs-out" d="M8.5 16c-1.93 0-3.5-1.584-3.5-3.531v-8.938c0-1.947 1.57-3.531 3.5-3.531s3.5 1.584 3.5 3.531v8.938c0 1.947-1.57 3.531-3.5 3.531z" id="outline"/><path class="icon-vs-bg" d="M8.516 10.492c-1.411 0-2.516-1.095-2.516-2.492v-4.469c0-1.395 1.122-2.531 2.5-2.531 1.379 0 2.5 1.136 2.5 2.531v1.469h-1v-1.469c0-.859-.659-1.531-1.5-1.531s-1.5.672-1.5 1.531v4.469c0 .837.666 1.492 1.516 1.492v1zm2.484 1.977v-4.469c0-1.397-1.098-2.492-2.5-2.492v1c.841 0 1.5.655 1.5 1.492v4.469c0 .858-.659 1.531-1.5 1.531s-1.5-.673-1.5-1.531v-1.469h-1v1.469c0 1.395 1.122 2.531 2.5 2.531 1.379 0 2.5-1.136 2.5-2.531z" id="iconBg"/></svg>