<svg xmlns="http://www.w3.org/2000/svg" viewBox="0 0 16 16"><style>.icon-canvas-transparent{opacity:0;fill:#f6f6f6}.icon-vs-out{fill:#f6f6f6}.icon-vs-bg{fill:#424242}</style><path class="icon-canvas-transparent" d="M16 0v16H0V0h16z" id="canvas"/><path class="icon-vs-out" d="M13.349 10.844A2.976 2.976 0 0 0 14 9c0-1.015-.537-1.949-1.392-2.5H15V1H9.5v3h.379l-.109.109A2.97 2.97 0 0 0 9 4H5.565l.47-.47L2.5-.005 0 2.495v2.07l1 1V15h9.435l1 1h2.07l2.5-2.5-2.656-2.656zM4 9.879v-.011l.007.004L4 9.879zM6.121 12l.109-.109c.247.066.503.109.77.109h-.879zM12 6.131l-.006-.003.006-.007v.01z" id="outline"/><g id="iconBg"><path class="icon-vs-bg" d="M12.293 3H10.5V2H14v3.5h-1V3.707l-1.558 1.558a3.004 3.004 0 0 0-.707-.707L12.293 3zm.32 8.522a2.94 2.94 0 0 1-.565.279l-.285.285.914.914h-8.97l1.557-1.557a3.004 3.004 0 0 1-.706-.708L3 12.293V9.204A2.977 2.977 0 0 1 2 7v7h10.677l-.914.914.707.707 2.121-2.121-1.978-1.978zM3 3.323l.894.894c.019-.007.039-.011.058-.018l.669-.669L2.5 1.409.379 3.53l.707.707L2 3.323V7c0-.883.391-1.67 1-2.22V3.323zM3 7c0 .748.417 1.393 1.027 1.736a2.96 2.96 0 0 1 .275-1.024A.99.99 0 0 1 4 7c0-.551.449-1 1-1h4a1.001 1.001 0 0 1 0 2L8 9h1c1.102 0 2-.897 2-2s-.898-2-2-2H5c-1.103 0-2 .897-2 2zm4 1l1-1H7c-1.103 0-2 .897-2 2 0 1.102.897 2 2 2h4c1.102 0 2-.898 2-2 0-.748-.417-1.393-1.027-1.736a2.965 2.965 0 0 1-.275 1.024A.99.99 0 0 1 12 9a1 1 0 0 1-1 1H7a1.001 1.001 0 0 1 0-2z"/></g></svg>