<svg xmlns="http://www.w3.org/2000/svg" viewBox="0 0 16 16"><style>.st0{fill:#f6f6f6}.st1{display:none;fill:#434343}.st2{fill:#424242}.st3{fill:none}.st4{fill:#f0eff1}.st5{fill:#00539c}</style><path class="st0" d="M8 0c-.429 0-.847.055-1.258.055H3.906L3 1.208V.055H0v7.973C0 12.43 3.582 16 8 16s8-3.597 8-8c0-4.403-3.582-8-8-8z" id="outline"/><g id="icon_x5F_bg"><path class="st1" d="M12 4L7.07 7.07a1.496 1.496 0 1 0 1.86 1.86L12 4z"/><path class="st2" d="M6 11h4v1H6z"/><path class="st2" d="M8 1v3c.171 0 .334.029.5.051V2.025a5.941 5.941 0 0 1 3.357 1.411l-1.211 1.211.121.121L7.07 7.07a1.496 1.496 0 1 0 1.86 1.86l2.303-3.697.121.121 1.214-1.214a5.978 5.978 0 0 1 1.387 3.36H11.95c.021.166.05.329.05.5 0 .171-.029.334-.051.5h2.025A5.997 5.997 0 0 1 8 14a5.998 5.998 0 0 1-5.975-5.5H4.05C4.029 8.334 4 8.171 4 8H1a7 7 0 1 0 7-7z"/></g><g id="icon_x5F_fg"><path class="st3" d="M6 11h4v1H6z"/><path class="st4" d="M10.441 4.853l1.416-1.417A5.955 5.955 0 0 0 8.5 2.025V4.05C8.334 4.029 8.171 4 8 4v.094L6.844 5.143H8.01L8.002 6.49l2.512-1.564c-.024-.026-.045-.052-.073-.073z"/><path class="st4" d="M11.949 8.5c.022-.166.051-.329.051-.5 0-.171-.029-.334-.051-.5h2.005a5.964 5.964 0 0 0-1.387-3.36l-1.419 1.42c-.021-.028-.048-.05-.074-.074L8.93 8.93A1.496 1.496 0 1 1 6.089 8H4c0 .171.029.334.05.5H2.025A5.998 5.998 0 0 0 8 14a5.999 5.999 0 0 0 5.975-5.5h-2.026zM10 12H6v-1h4v1z"/></g><g id="color_x5F_action"><path class="st5" d="M7.004 6H2V1H1v6h6z"/><path class="st5" d="M4.32 1.108l-.857.857h1.966L3.108 4.286l.607.606 2.319-2.32v1.966l.858-.858V1.108z"/></g></svg>