<svg xmlns="http://www.w3.org/2000/svg" viewBox="0 0 16 16"><style>.icon-canvas-transparent{opacity:0;fill:#f6f6f6}.icon-vs-out{fill:#f6f6f6}.icon-vs-bg{fill:#424242}.icon-vs-fg{fill:#f0eff1}</style><path class="icon-canvas-transparent" d="M16 0v16H0V0h16z" id="canvas"/><path class="icon-vs-out" d="M15 3.349L8.713 0H7.595L1 3.327V8.78c-.609.55-1 1.337-1 2.22 0 1.076.589 2.075 1.537 2.607l.62.349A3.003 3.003 0 0 0 5 16H9c1.303 0 2.404-.84 2.817-2.004L15 11.752V3.349z" id="outline"/><path class="icon-vs-fg" d="M3 5.102l5 2.792v.282A2.966 2.966 0 0 0 7 8H3V5.102zm5.144-3.139L3.565 4.272 8.487 7.02l4.228-2.622-4.571-2.435zM9 7.878v.898c.38.342.677.773.844 1.266l.621.35c.528.298.929.749 1.194 1.269L13 10.716V5.398l-4 2.48z" id="iconFg"/><g id="iconBg"><path class="icon-vs-bg" d="M8.156.837L2 3.942v4.242A2.966 2.966 0 0 1 3 8V5.102l5 2.792v.282c.374.133.711.34 1 .6v-.898l4-2.48v5.317l-1.341.946c.161.315.257.656.297 1.013L14 11.233V3.95L8.156.837zm.331 6.183L3.565 4.272l4.578-2.309 4.571 2.436L8.487 7.02zM2 11a.99.99 0 0 0 .302.712 2.96 2.96 0 0 0-.275 1.024A1.991 1.991 0 0 1 1 11c0-1.103.897-2 2-2h4c1.102 0 2 .897 2 2s-.898 2-2 2H6l1-1a1.001 1.001 0 0 0 0-2H3c-.551 0-1 .449-1 1zm9 2c0 1.102-.898 2-2 2H5c-1.103 0-2-.898-2-2 0-1.103.897-2 2-2h1l-1 1a1.001 1.001 0 0 0 0 2h4a1 1 0 0 0 1-1 .995.995 0 0 0-.302-.713 2.96 2.96 0 0 0 .275-1.024c.61.344 1.027.989 1.027 1.737z"/></g></svg>