<svg xmlns="http://www.w3.org/2000/svg" viewBox="0 0 16 16"><style>.icon-canvas-transparent{opacity:0;fill:#f6f6f6}.icon-vs-out{fill:#f6f6f6}.icon-vs-bg{fill:#424242}.icon-vs-fg{fill:#f0eff1}</style><path class="icon-canvas-transparent" d="M16 0v16H0V0h16z" id="canvas"/><path class="icon-vs-out" d="M16 3.379V13h-4c0 1.654-1.346 3-3 3H5a3.005 3.005 0 0 1-2.844-2.044l-.62-.349A3 3 0 0 1 0 11c0-1.654 1.346-3 3-3h2V0h7.621L16 3.379z" id="outline"/><path class="icon-vs-fg" d="M11.793 2H7v6c1.319 0 2.443.856 2.844 2.042l.621.35c.285.16.524.373.738.607H14V4.207L11.793 2zM11 9h-1V8h1v1zm0-2h-1V4h1v3z" id="iconFg"/><g id="iconBg"><path class="icon-vs-bg" d="M10 8h1v1h-1V8zm2.207-7H6v7h1V2h4.793L14 4.207V11h-2.798c.266.292.466.631.6 1H15V3.793L12.207 1zM10 7h1V4h-1v3zm-7 3h4a1.001 1.001 0 0 1 0 2l-1 1h1c1.102 0 2-.897 2-2s-.898-2-2-2H3c-1.103 0-2 .897-2 2 0 .748.417 1.393 1.027 1.736a2.96 2.96 0 0 1 .275-1.024A.99.99 0 0 1 2 11c0-.551.449-1 1-1zm6.973 1.264a2.965 2.965 0 0 1-.275 1.024A.99.99 0 0 1 10 13a1 1 0 0 1-1 1H5a1.001 1.001 0 0 1 0-2l1-1H5c-1.103 0-2 .897-2 2 0 1.102.897 2 2 2h4c1.102 0 2-.898 2-2 0-.748-.417-1.393-1.027-1.736z"/></g></svg>