<svg xmlns="http://www.w3.org/2000/svg" viewBox="0 0 16 16" enable-background="new 0 0 16 16"><style type="text/css">.icon-canvas-transparent{opacity:0;fill:#F6F6F6;} .icon-vs-out{fill:#F6F6F6;} .icon-vs-bg{fill:#424242;}</style><path class="icon-canvas-transparent" d="M16 0v16h-16v-16h16z" id="canvas"/><path class="icon-vs-out" d="M16 7.5c0 1.93-1.584 3.5-3.531 3.5h-8.938c-1.947 0-3.531-1.57-3.531-3.5s1.584-3.5 3.531-3.5h8.938c1.947 0 3.531 1.57 3.531 3.5z" id="outline"/><path class="icon-vs-bg" d="M10.492 7.484c0 1.411-1.095 2.516-2.492 2.516h-4.469c-1.395 0-2.531-1.122-2.531-2.5 0-1.379 1.136-2.5 2.531-2.5h1.469v1h-1.469c-.859 0-1.531.659-1.531 1.5s.672 1.5 1.531 1.5h4.469c.837 0 1.492-.666 1.492-1.516h1zm1.977-2.484h-4.469c-1.397 0-2.492 1.098-2.492 2.5h1c0-.841.655-1.5 1.492-1.5h4.469c.858 0 1.531.659 1.531 1.5s-.673 1.5-1.531 1.5h-1.469v1h1.469c1.395 0 2.531-1.122 2.531-2.5 0-1.379-1.136-2.5-2.531-2.5z" id="iconBg"/></svg>