<svg xmlns="http://www.w3.org/2000/svg" viewBox="0 0 16 16"><style>.icon-canvas-transparent{opacity:0;fill:#f6f6f6}.icon-vs-out{fill:#f6f6f6}.icon-vs-bg{fill:#424242}.icon-vs-fg{fill:#f0eff1}</style><path class="icon-canvas-transparent" d="M16 0v16H0V0h16z" id="canvas"/><path class="icon-vs-out" d="M15 2.5V15h-3.78c-.55.609-1.337 1-2.22 1H5a3.005 3.005 0 0 1-2.844-2.044l-.62-.349A3 3 0 0 1 0 11c0-1.654 1.346-3 3-3h2V2.5C5 1.122 6.122 0 7.5 0h5C13.879 0 15 1.122 15 2.5z" id="outline"/><path class="icon-vs-fg" d="M12.5 2h-5a.5.5 0 0 0-.5.5V8c.884 0 1.674.39 2.224 1H12v1H9.826c.005.015.013.028.018.042l.621.35c.285.16.524.373.738.607H12v1h-.198c.116.32.198.652.198 1.001h1V2.5a.5.5 0 0 0-.5-.5zM12 4H8V3h4v1z" id="iconFg"/><g id="iconBg"><path class="icon-vs-bg" d="M9.826 10a3.004 3.004 0 0 0-.602-1H12v1H9.826zM12 11h-.798c.266.292.466.631.6 1H12v-1zm.5-10h-5C6.673 1 6 1.673 6 2.5V8h1V2.5a.5.5 0 0 1 .5-.5h5a.5.5 0 0 1 .5.5V13h-1c0 .352-.072.686-.184 1H14V2.5c0-.827-.673-1.5-1.5-1.5zM12 3H8v1h4V3zm-9 7h4a1.001 1.001 0 0 1 0 2l-1 1h1c1.102 0 2-.897 2-2s-.898-2-2-2H3c-1.103 0-2 .897-2 2 0 .748.417 1.393 1.027 1.736a2.96 2.96 0 0 1 .275-1.024A.99.99 0 0 1 2 11c0-.551.449-1 1-1zm6.973 1.264a2.965 2.965 0 0 1-.275 1.024A.99.99 0 0 1 10 13a1 1 0 0 1-1 1H5a1.001 1.001 0 0 1 0-2l1-1H5c-1.103 0-2 .897-2 2 0 1.102.897 2 2 2h4c1.102 0 2-.898 2-2 0-.748-.417-1.393-1.027-1.736z"/></g></svg>