<svg xmlns="http://www.w3.org/2000/svg" viewBox="0 0 16 16"><style>.icon-canvas-transparent{opacity:0;fill:#f6f6f6}.icon-vs-out{fill:#f6f6f6}.icon-vs-bg{fill:#424242}</style><path class="icon-canvas-transparent" d="M16 0v16H0V0h16z" id="canvas"/><path class="icon-vs-out" d="M16 0v14h-4.184A2.996 2.996 0 0 1 9 16H5a3.002 3.002 0 0 1-2.825-2H0V0h5v3H3v3h3V5h3V2h2V0h5z" id="outline"/><g id="iconBg"><path class="icon-vs-bg" d="M4 7h2v1H4V7zm5-1H7v2c.77 0 1.468.297 2 .776V6zM2 2h2V1H1v7.78c.289-.26.626-.463 1-.596V2zm10-1v1h2v10h-2.198c.116.319.198.651.198 1h3V1h-3zm0 2h-2v7.131l.465.262c.285.16.524.373.738.607H12V3zm-9 7h4a1.001 1.001 0 0 1 0 2l-1 1h1c1.102 0 2-.897 2-2s-.898-2-2-2H3c-1.103 0-2 .897-2 2 0 .748.417 1.393 1.027 1.736a2.96 2.96 0 0 1 .275-1.024A.99.99 0 0 1 2 11c0-.551.449-1 1-1zm6.973 1.264a2.965 2.965 0 0 1-.275 1.024A.99.99 0 0 1 10 13a1 1 0 0 1-1 1H5a1.001 1.001 0 0 1 0-2l1-1H5c-1.103 0-2 .897-2 2 0 1.102.897 2 2 2h4c1.102 0 2-.898 2-2 0-.748-.417-1.393-1.027-1.736z"/></g></svg>