<svg xmlns="http://www.w3.org/2000/svg" viewBox="0 0 16 16"><style>.st0{opacity:0}.st0,.st1{fill:#f6f6f6}.st2{fill:#424242}.st3{fill:#f0eff1}</style><g id="outline"><path class="st0" d="M0 0h16v16H0z"/><path class="st1" d="M16 0H3v8.1c-.295.108-.558.3-.74.572l-2 3.001A1.47 1.47 0 0 0 0 12.5c0 .402.156.779.441 1.063l1.998 1.998c.282.283.659.439 1.061.439h1c.228 0 .453-.055.668-.162l2-1c.358-.181.613-.488.739-.848.032.001.061.01.093.01a3.963 3.963 0 0 0 2.62-1H16V0z"/></g><g id="icon_x5F_bg"><path class="st2" d="M6 3h7v1H6zM6 5h5v1H6zM11.445 8H13V7h-2.38c.328.286.605.622.825 1zM8 7a2.992 2.992 0 0 0-2.831 2.048l.842.842A1.995 1.995 0 0 1 10 10a2 2 0 0 1-2 2c-.032 0-.062-.008-.094-.01.059.162.094.332.094.51v.5a3.001 3.001 0 0 0 0-6z"/><path class="st2" d="M8.888 9.816l-.006-.005A.49.49 0 0 0 9 9.5a.5.5 0 0 0-.5-.5.495.495 0 0 0-.311.117l-.005-.005-2.404 1.961-1.926-1.927a.49.49 0 0 0-.762.082l-2 3A.483.483 0 0 0 1 12.5c0 .139.057.264.146.354l2 2c.09.089.215.146.354.146h1c.08 0 .154-.023.221-.057l2-1A.498.498 0 0 0 7 13.5v-1c0-.1-.037-.186-.086-.265l1.974-2.419z"/><path class="st2" d="M4 1v7.091c.145.051.279.124.402.218.162-.335.356-.652.598-.929V2h9v9h-2.142a3.942 3.942 0 0 1-.413 1H15V1H4z"/></g><path class="st3" d="M13 2H5v5.387A3.966 3.966 0 0 1 8 6c1.005 0 1.914.385 2.617 1H13v1h-1.557c.345.59.557 1.268.557 2 0 .348-.059.679-.142 1H14V2h-1zm-2 4H6V5h5v1zm2-2H6V3h7v1z" id="icon_x5F_fg"/></svg>