<svg xmlns="http://www.w3.org/2000/svg" viewBox="0 0 16 16"><style>.st0{opacity:0}.st0,.st1{fill:#f6f6f6}.st2{fill:none}.st3{fill:#424242}.st4{fill:#f0eff1}</style><g id="outline"><path class="st0" d="M0 0h16v16H0z"/><path class="st1" d="M16 0H0v14.947L1.026 16H3l1-1h12z"/></g><g id="icon_x5F_bg"><path class="st2" d="M14 10h-3l1.5 2zM11 5h3l-1.5-2z"/><circle class="st2" cx="5.5" cy="11.086" r="1.5"/><path class="st3" d="M4 6h5v1H4zM5.5 8.586a2.5 2.5 0 0 0-2.5 2.5c0 .432.12.832.313 1.188L1 14.586l1 1 2.313-2.313c.354.193.755.313 1.188.313a2.5 2.5 0 1 0-.001-5zm0 4a1.5 1.5 0 1 1 .001-3.001 1.5 1.5 0 0 1-.001 3.001zM4 4h3v1H4zM10 12H8.863a3.5 3.5 0 0 1-1.432 2H15V9h-5v3zm4-2l-1.5 2-1.5-2h3z"/><path class="st3" d="M1 1v12.232l1.137-1.197A3.356 3.356 0 0 1 2 11.086c0-.95.384-1.811 1-2.442V3h7v3h5V1H1zm10 4l1.5-2L14 5h-3z"/><path class="st3" d="M10 7h5v1h-5z"/></g><g id="icon_x5F_fg"><path class="st2" d="M4 4h3v1H4zM4 6h5v1H4z"/><path class="st4" d="M12.5 3L11 5h3z"/><circle class="st4" cx="5.5" cy="11.086" r="1.5"/><path class="st4" d="M15 7V6h-5V3H3v5.644a3.487 3.487 0 0 1 2.5-1.058c1.93 0 3.5 1.57 3.5 3.5 0 .318-.057.621-.137.914H10V9h5V8h-5V7h5zM4 4h3v1H4V4zm5 3H4V6h5v1z"/><path class="st4" d="M12.5 12l1.5-2h-3z"/></g></svg>