<svg xmlns="http://www.w3.org/2000/svg" viewBox="0 0 16 16"><style>.st0{opacity:0}.st0,.st1{fill:#f6f6f6}.st2{fill:#424242}.st3{fill:#f0eff1}</style><g id="outline"><path class="st0" d="M0 0h16v16H0z"/><path class="st1" d="M16 0H4v5.212A5.499 5.499 0 1 0 10.975 11H16V0z"/></g><g id="icon_x5F_bg"><path class="st2" d="M7 3h4v1H7z"/><path class="st2" d="M5 1v4.025C5.165 5.01 5.331 5 5.5 5s.335.01.5.025V2h8v7h-3.213c.092.322.156.656.188 1H15V1H5z"/><path class="st2" d="M12 7H9.742c.254.307.47.643.652 1H12V7zM7 5.212c.6.17 1.158.438 1.656.788H13V5H7v.212zM5.5 6a4.5 4.5 0 1 0 0 9 4.5 4.5 0 0 0 0-9zm0 8A3.491 3.491 0 1 1 5 7.05V11h3v-1H6V7.05a3.49 3.49 0 0 1 3 3.45A3.5 3.5 0 0 1 5.5 14z"/></g><g id="icon_x5F_fg"><path class="st3" d="M6 2v3.025c.344.031.677.096 1 .187V5h6v1H8.656c.404.285.771.619 1.086 1H12v1h-1.606c.162.317.294.651.393 1H14V2H6zm5 2H7V3h4v1zM6 7.05V10h2v1H5V7.05A3.491 3.491 0 0 0 5.5 14 3.491 3.491 0 1 0 6 7.05z"/></g></svg>