<svg xmlns="http://www.w3.org/2000/svg" width="16" height="16"><style type="text/css">.icon-canvas-transparent{opacity:0;fill:#F6F6F6;} .icon-vs-out{fill:#F6F6F6;} .icon-vs-bg{fill:#424242;} .icon-vs-action-blue{fill:#00539C;}</style><path class="icon-canvas-transparent" d="M16 16h-16v-16h16v16z" id="canvas"/><path class="icon-vs-out" d="M12 5v2h2v4h-3v3h-7v-1l-4-4v-5h1l1 1v-2h2v-2h12v4h-4z" id="outline"/><path class="icon-vs-bg" d="M6 11h4v2h-5v-1l1-1zm5-6h-3v2h3v-2zm-3 4l-1 1h6v-2h-5v1zm-3-7v1h1v1h9v-2h-10z" id="iconBg"/><path class="icon-vs-action-blue" d="M5 4v4l2-2v2l-3 3-3-3v-2l2 2v-4h2z" id="colorAction"/></svg>