<svg xmlns="http://www.w3.org/2000/svg" viewBox="0 0 16 16"><style>.st0{opacity:0}.st0,.st1{fill:#f6f6f6}.st2{fill:#424242}.st3{fill:#f0eff1}</style><g id="outline"><path class="st0" d="M0 0h16v16H0z"/><path class="st1" d="M16 14V0H1v14h8.703z"/><path class="st1" d="M16 0H1v5H0v11h12v-2h4z"/></g><g id="icon_x5F_bg"><path class="st2" d="M2 1v4h1V4h3v1h1V4h3v1h1V4h3v8h-2v1h3V1z"/><path class="st2" d="M1 6v9h10V6H1zm9 8H2V7h8v7z"/><path class="st2" d="M3 8h3v1H3zM3 12h4v1H3zM3 10h5v1H3z"/></g><g id="icon_x5F_fg"><path class="st3" d="M7 4h3v1H7zM3 4h3v1H3zM11 4v1h1v7h2V4zM2 7v7h8V7H2zm1 1h3v1H3V8zm0 2h5v1H3v-1zm0 3v-1h4v1H3z"/></g></svg>