<svg xmlns="http://www.w3.org/2000/svg" viewBox="0 0 16 16"><defs><style>.a,.icon-canvas-transparent{fill:#f6f6f6}.icon-canvas-transparent{opacity:0}.b{fill:#424242}.c{fill:#1ba1e2}.icon-vs-fg{fill:#f0eff1}</style></defs><title>ListBox_16x</title><path class="icon-canvas-transparent" d="M16 16H0V0h16z"/><path class="a" d="M10 9h5v4h-5z"/><path class="a" d="M0 0h16v15H0z"/><path class="b" d="M1 1v13h14v-1H2V2h13V1H1z"/><path class="b" d="M3 10h5v1H3zM10 7h5v1h-5zM3 8h4v1H3zM3 4h4v1H3zM3 6h6v1H3zM14 10h-3l1.5 2 1.5-2zM12.5 3.031L11.017 5H14l-1.5-1.969z"/><path class="b" d="M1 1v13h14v-1H2V2h13V1H1z"/><path class="b" d="M3 10h5v1H3zM10 7h5v1h-5zM3 8h4v1H3zM3 4h4v1H3zM3 6h6v1H3zM14 10h-3l1.5 2 1.5-2z"/><path class="c" d="M12.5 3.031L11.017 5H14l-1.5-1.969z"/><path class="c" d="M15 9h-5v4h5zm-2.5 3L11 10h3zM10 6h5V2h-5zm2.5-2.969L14 5h-2.983z"/><path class="icon-vs-fg" d="M12.5 12L11 10h3zm0-8.969L11.017 5H14zM10 7v1h5v1h-5v4H2V2h8v4h5v1zM3 5h4V4H3zm0 4h4V8H3zm5 1H3v1h5zm1-4H3v1h6z"/></svg>