<svg xmlns="http://www.w3.org/2000/svg" viewBox="0 0 16 16"><style>.st0{opacity:0}.st0,.st1{fill:#f6f6f6}.st2{fill:#424242}.st3{fill:#f0eff1}</style><g id="outline"><path class="st0" d="M0 0h16v16H0z"/><path class="st1" d="M16 1H1v10H0v3h1v2h5v-1h1.189c.589.619 1.375 1 2.311 1 .95 0 1.811-.384 2.441-1H16V1z"/></g><g id="icon_x5F_bg"><path class="st2" d="M9.5 10c-1.209 0-2.269.859-2.5 2H1v1h1v2h1v-2h1v2h1v-2h2c.231 1.141 1.291 2 2.5 2a2.5 2.5 0 1 0 0-5zm0 4a1.5 1.5 0 1 1 .001-3.001A1.5 1.5 0 0 1 9.5 14z"/><path class="st2" d="M2 2v9h1V5h3v6h.353c.164-.351.38-.671.647-.944V5h3v4.051c.162.023.319.059.474.104l.095.029c.147.048.292.1.431.166V5h3v8h-1c0 1-.051 0 0 1h2V2H2z"/></g><g id="icon_x5F_fg"><path class="st3" d="M7 10.206C7.604 9.463 8.463 9 9.5 9c.171 0 .335.026.5.051V5H7v5.206zM3 5h3v6H3zM11 5v4.352c1.178.563 2 1.758 2 3.148 0 .171-.026.335-.051.5H14V5h-3z"/><circle class="st3" cx="9.5" cy="12.5" r="1.5"/></g></svg>