<svg xmlns="http://www.w3.org/2000/svg" viewBox="0 0 16 16" enable-background="new 0 0 16 16"><style type="text/css">.icon-canvas-transparent{opacity:0;fill:#F6F6F6;} .icon-vs-out{fill:#F6F6F6;} .icon-vs-bg{fill:#424242;} .icon-vs-fg{fill:#F0EFF1;}</style><path class="icon-canvas-transparent" d="M16 16h-16v-16h16v16z" id="canvas"/><path class="icon-vs-out" d="M15 5v3c0 2.085-1.068 3.924-2.687 5h.687v3h-9v-3h.687c-1.619-1.076-2.687-2.915-2.687-5v-3h2v-1c0-2.206 1.794-4 4-4h1c2.206 0 4 1.794 4 4v1h2z" id="outline"/><path class="icon-vs-bg" d="M14 6v2c0 2.757-2.243 5-5 5v1h3v1h-7v-1h3v-1c-2.757 0-5-2.243-5-5v-2h1v2c0 2.206 1.794 4 4 4h1c2.206 0 4-1.794 4-4v-2h1zm-2-2v4c0 1.65-1.35 3-3 3h-1c-1.65 0-3-1.35-3-3v-4c0-1.65 1.35-3 3-3h1c1.65 0 3 1.35 3 3zm-1 0c0-1.103-.897-2-2-2h-1c-1.103 0-2 .897-2 2v4c0 1.103.897 2 2 2h1c1.103 0 2-.897 2-2v-4z" id="iconBg"/><g id="iconFg"><path class="icon-vs-fg" d="M11 4v4c0 1.103-.897 2-2 2h-1c-1.103 0-2-.897-2-2v-4c0-1.103.897-2 2-2h1c1.103 0 2 .897 2 2z"/></g></svg>