<svg xmlns="http://www.w3.org/2000/svg" viewBox="0 0 16 16"><style>.icon-canvas-transparent{opacity:0;fill:#f6f6f6}.icon-vs-out{fill:#f6f6f6}.icon-vs-bg{fill:#424242}.icon-vs-fg{fill:#f0eff1}</style><path class="icon-canvas-transparent" d="M16 16H0V0h16v16z" id="canvas"/><path class="icon-vs-out" d="M16 3.586V14c0 .987-.701 2-2 2H7.346l.001-.003c-.037.002-5.581.003-5.581.003-.73 0-1.38-.379-1.74-1.015-.012-.02-.015-.043-.026-.063v-1.833c.02-.039.029-.08.051-.118L2 9.723V9H1V6h2V2c0-.988.701-2 2-2h7.414L16 3.586z" id="outline"/><path class="icon-vs-bg" d="M9.354 7.354L8 8.707V7.293l.646-.646.708.707zM7.707 9H7v.707L7.707 9zm.939.646l-1.08 1.08.514.899 1.272-1.273-.706-.706zm.708-5.292l-.708-.708L7 5.293l-.646-.647-.708.708.647.646h1.414l1.647-1.646zM12 1H5c-1 0-1 .965-1 .965V6h1V2h7v2h2v10H9.234c0 .337-.084.675-.259.985-.003.006-.008.01-.011.015H14c1 0 1-.965 1-.965V4l-3-3zM8.091 13.486A1 1 0 0 1 7.234 15H1.766a1 1 0 0 1-.857-1.514L3 10V8H2V7h5v1H6v2l2.091 3.486zM5.968 12L5 10.303V8H4v2.303L3.032 12h2.936zM10 12h3v-1h-3v1zm0-3h3V8h-3v1zm0-3h3V5h-3v1z" id="iconBg"/><path class="icon-vs-fg" d="M12 4V2H5v4h1.293l-.647-.646.707-.707.647.646 1.646-1.646.707.707L7.707 6H8v1.293l.646-.646.707.707L8 8.707V9h-.293L7 9.707v.016l.589.982 1.058-1.058.707.707-1.235 1.235.829 1.383c.193.319.286.673.286 1.028H14V4h-2zm1 8h-3v-1h3v1zm0-3h-3V8h3v1zm0-3h-3V5h3v1zM5 8v2.303L5.968 12H3.032L4 10.303V8h1z" id="iconFg"/></svg>