<?xml version="1.0" encoding="iso-8859-1"?>
<!-- Generator: Adobe Illustrator 21.0.0, SVG Export Plug-In . SVG Version: 6.00 Build 0)  -->
<svg version="1.1" xmlns="http://www.w3.org/2000/svg" xmlns:xlink="http://www.w3.org/1999/xlink" x="0px" y="0px"
	 viewBox="0 0 16 16" style="enable-background:new 0 0 16 16;" xml:space="preserve">
<style type="text/css">
	.icon_x002D_canvas_x002D_transparent{opacity:0;fill:#F6F6F6;}
	.icon_x002D_vs_x002D_out{fill:#F6F6F6;}
	.icon_x002D_vs_x002D_bg{fill:#424242;}
	.icon_x002D_vs_x002D_fg{fill:#F0EFF1;}
	.icon_x002D_vs_x002D_blue{fill:#1BA1E2;}
</style>
<g id="canvas">
	<path class="icon_x002D_canvas_x002D_transparent" d="M16,16H0V0h16V16z"/>
</g>
<g id="outline">
	<path class="icon_x002D_vs_x002D_out" d="M11,11.435V12h2v3h-2v1H5v-1H3v-3h2v-0.565C3.746,10.899,3,10.029,3,9V3
		c0-0.851,0.534-1.625,1.504-2.179C5.431,0.292,6.672,0,8,0c1.327,0,2.569,0.292,3.496,0.821C12.466,1.375,13,2.149,13,3v6
		C13,10.029,12.255,10.899,11,11.435z"/>
</g>
<g id="iconBg">
	<path class="icon_x002D_vs_x002D_bg" d="M8,11c0.355,0,0.693-0.031,1.021-0.074C9.014,10.927,9.007,10.929,9,10.93V12h1v1h2v1h-2v1
		H6v-1H4v-1h2v-1h1v-1.07c-0.007-0.001-0.014-0.003-0.021-0.004C7.307,10.969,7.645,11,8,11z"/>
</g>
<g id="iconFg">
	<path class="icon_x002D_vs_x002D_fg" d="M11.325,3c0,0.527-1.326,1.325-3.325,1.325S4.675,3.527,4.675,3S6.001,1.675,8,1.675
		S11.325,2.473,11.325,3z"/>
</g>
<g id="colorImportance">
	<path class="icon_x002D_vs_x002D_blue" d="M11,1.689C10.267,1.271,9.201,1,8,1S5.733,1.271,5,1.689C4.385,2.041,4,2.496,4,3v3v3
		c0,1.105,1.791,2,4,2s4-0.895,4-2V6V3C12,2.496,11.615,2.041,11,1.689z M8,1.675c1.999,0,3.325,0.798,3.325,1.325
		S9.999,4.325,8,4.325S4.675,3.527,4.675,3S6.001,1.675,8,1.675z"/>
</g>
</svg>
