<svg xmlns="http://www.w3.org/2000/svg" viewBox="0 0 16 16"><style>.icon-canvas-transparent{opacity:0;fill:#f6f6f6}.icon-vs-out{fill:#f6f6f6}.icon-vs-bg{fill:#424242}.icon-vs-fg{fill:#f0eff1}</style><path class="icon-canvas-transparent" d="M16 16H0V0h16v16z" id="canvas"/><path class="icon-vs-out" d="M15.424 10.959A2 2 0 0 1 13.668 12H7.414L5 14.414l-4-4V5.586l2 2V5h3.168L7 3.707V3H6V0h7v3h-1v.706l3.351 5.212c.396.617.423 1.398.073 2.041z" id="outline"/><path class="icon-vs-bg" d="M8 8v2l-3 3-3-3V8l2 2V6h2v4l2-2zm6.51 1.459L11 4V2h1V1H7v1h1v2L7 5.556v2.03L7.586 7h-.31L9 4.291V2h1v2.291L11.724 7H9v3.414L8.414 11h5.254a1 1 0 0 0 .842-1.541z" id="iconBg"/><path class="icon-vs-fg" d="M10 2v2.291L11.724 7H7.276L9 4.291V2h1z" id="iconFg"/></svg>