<svg xmlns="http://www.w3.org/2000/svg" viewBox="0 0 16 16"><style>.st0,.st1{opacity:.5;fill:#f6f6f6}.st1{fill:#007acc}.st2,.st3{opacity:.4;fill:#f6f6f6}.st3{fill:#007acc}.st4,.st5{opacity:.3;fill:#f6f6f6}.st5{fill:#007acc}.st6,.st7{opacity:.2;fill:#f6f6f6}.st7{fill:#007acc}.st8,.st9{opacity:.1;fill:#f6f6f6}.st9{fill:#007acc}.st10{fill:#f6f6f6}.st11{fill:#007acc}.st12,.st13{opacity:.9;fill:#f6f6f6}.st13{fill:#007acc}.st14,.st15{opacity:.8;fill:#f6f6f6}.st15{fill:#007acc}.st16,.st17{opacity:.7;fill:#f6f6f6}.st17{fill:#007acc}.st18,.st19{opacity:.6;fill:#f6f6f6}.st19{fill:#007acc}.st20{display:none}.st21,.st22{display:inline;opacity:.5;fill:#f6f6f6}.st22{fill:#007acc}.st23,.st24,.st25,.st26{display:inline;opacity:.4;fill:#f6f6f6}.st24,.st25,.st26{fill:#007acc}.st25,.st26{opacity:.3;fill:#f6f6f6}.st26{fill:#007acc}.st27,.st28,.st29,.st30{display:inline;opacity:.2;fill:#f6f6f6}.st28,.st29,.st30{fill:#007acc}.st29,.st30{opacity:.1;fill:#f6f6f6}.st30{fill:#007acc}.st31,.st32{display:inline;fill:#f6f6f6}.st32{fill:#007acc}.st33,.st34,.st35,.st36{display:inline;opacity:.9;fill:#f6f6f6}.st34,.st35,.st36{fill:#007acc}.st35,.st36{opacity:.8;fill:#f6f6f6}.st36{fill:#007acc}.st37,.st38,.st39,.st40{display:inline;opacity:.7;fill:#f6f6f6}.st38,.st39,.st40{fill:#007acc}.st39,.st40{opacity:.6;fill:#f6f6f6}.st40{fill:#007acc}</style><g id="_x31_0"><ellipse transform="rotate(-36.002 11.429 12.763)" class="st0" cx="11.429" cy="12.763" rx="2.174" ry="2.175"/><ellipse transform="rotate(-36.002 11.428 12.763)" class="st1" cx="11.429" cy="12.763" rx="1.175" ry="1.175"/><path class="st2" d="M12.304 8.071a2.183 2.183 0 0 1 1.946-.311 2.178 2.178 0 0 1 1.403 2.737c-.143.442-.416.82-.791 1.092a2.183 2.183 0 0 1-1.946.311 2.157 2.157 0 0 1-1.268-1.077 2.157 2.157 0 0 1-.134-1.659 2.16 2.16 0 0 1 .79-1.093z"/><ellipse transform="rotate(-72.145 13.584 9.83)" class="st3" cx="13.583" cy="9.83" rx="1.175" ry="1.175"/><path class="st4" d="M12.314 4.432c.181-.132.382-.234.596-.305a2.163 2.163 0 0 1 1.66.122c.519.261.905.708 1.088 1.26a2.168 2.168 0 0 1-1.382 2.747 2.163 2.163 0 0 1-1.66-.122 2.162 2.162 0 0 1-1.088-1.26 2.168 2.168 0 0 1 .786-2.442z"/><ellipse transform="rotate(-18.294 13.593 6.192)" class="st5" cx="13.593" cy="6.192" rx="1.175" ry="1.175"/><path class="st6" d="M10.175 1.488a2.174 2.174 0 0 1 3.424 1.403 2.155 2.155 0 0 1-.376 1.621 2.172 2.172 0 0 1-3.034.505 2.18 2.18 0 0 1-.014-3.529z"/><ellipse transform="rotate(-54.442 11.455 3.248)" class="st7" cx="11.454" cy="3.248" rx="1.175" ry="1.175"/><path class="st8" d="M6.713.371c.367-.267.801-.41 1.255-.415a2.158 2.158 0 0 1 1.544.622 2.176 2.176 0 0 1-3.043 3.108 2.167 2.167 0 0 1-.653-1.532A2.183 2.183 0 0 1 6.713.371z"/><ellipse transform="rotate(-.59 7.989 2.129)" class="st9" cx="7.991" cy="2.132" rx="1.175" ry="1.175"/><path class="st10" d="M3.257 1.515a2.184 2.184 0 0 1 3.022.459 2.178 2.178 0 0 1-.441 3.043c-.982.712-2.337.507-3.045-.443a2.155 2.155 0 0 1-.409-1.612 2.163 2.163 0 0 1 .851-1.431l.022-.016z"/><ellipse transform="rotate(-36.739 4.536 3.274)" class="st11" cx="4.536" cy="3.274" rx="1.175" ry="1.175"/><path class="st12" d="M1.141 4.475c.551-.4 1.269-.52 1.919-.319a2.177 2.177 0 0 1 1.438 2.717 2.16 2.16 0 0 1-.8 1.118c-.552.401-1.27.52-1.921.319C1.224 8.14.768 7.764.496 7.25S.17 6.149.342 5.593c.139-.453.416-.839.799-1.118z"/><ellipse transform="rotate(-72.884 2.42 6.234)" class="st13" cx="2.42" cy="6.234" rx="1.175" ry="1.175"/><path class="st14" d="M1.178 8.113c.174-.126.366-.226.57-.296a2.158 2.158 0 0 1 1.661.1c.523.254.914.696 1.103 1.246a2.162 2.162 0 0 1-.777 2.468 2.194 2.194 0 0 1-.57.297 2.159 2.159 0 0 1-1.661-.101A2.155 2.155 0 0 1 .4 10.58a2.165 2.165 0 0 1 .778-2.467z"/><ellipse transform="rotate(-19.033 2.457 9.873)" class="st15" cx="2.457" cy="9.872" rx="1.175" ry="1.175"/><path class="st16" d="M3.355 11.029a2.176 2.176 0 0 1 2.557 3.519 2.174 2.174 0 0 1-2.557-3.519z"/><ellipse transform="rotate(-55.18 4.633 12.788)" class="st17" cx="4.633" cy="12.789" rx="1.175" ry="1.175"/><path class="st18" d="M6.833 12.1a2.159 2.159 0 0 1 1.227-.414 2.18 2.18 0 0 1 2.225 2.122 2.179 2.179 0 0 1-2.125 2.226A2.175 2.175 0 1 1 6.833 12.1z"/><ellipse transform="rotate(-1.329 8.102 13.844)" class="st19" cx="8.111" cy="13.86" rx="1.175" ry="1.175"/></g><g id="_x39_" class="st20"><ellipse transform="rotate(-72.002 13.578 9.843)" class="st21" cx="13.579" cy="9.843" rx="2.174" ry="2.175"/><ellipse transform="rotate(-72.002 13.578 9.843)" class="st22" cx="13.579" cy="9.843" rx="1.175" ry="1.175"/><path class="st23" d="M11.53 5.533a2.182 2.182 0 0 1 1.391-1.395 2.179 2.179 0 0 1 2.744 1.39c.144.442.145.908.002 1.348a2.182 2.182 0 0 1-1.392 1.395 2.16 2.16 0 0 1-1.659-.126 2.156 2.156 0 0 1-1.084-1.264 2.15 2.15 0 0 1-.002-1.348z"/><ellipse transform="rotate(-18.149 13.597 6.204)" class="st24" cx="13.598" cy="6.205" rx="1.175" ry="1.175"/><path class="st25" d="M9.398 2.583a2.21 2.21 0 0 1 .303-.597 2.159 2.159 0 0 1 1.415-.877 2.162 2.162 0 0 1 1.621.38 2.168 2.168 0 0 1 .497 3.035 2.159 2.159 0 0 1-1.415.877 2.162 2.162 0 0 1-1.621-.38 2.169 2.169 0 0 1-.8-2.438z"/><ellipse transform="rotate(-54.294 11.468 3.255)" class="st26" cx="11.467" cy="3.255" rx="1.175" ry="1.175"/><path class="st27" d="M5.938 1.459A2.172 2.172 0 0 1 9.532.581a2.175 2.175 0 1 1-3.594.878z"/><ellipse transform="rotate(-.441 8.03 2.135)" class="st28" cx="8.007" cy="2.131" rx="1.175" ry="1.175"/><path class="st29" d="M2.48 2.59c.14-.431.408-.802.772-1.073a2.158 2.158 0 0 1 1.615-.404 2.176 2.176 0 0 1-.636 4.302 2.16 2.16 0 0 1-1.428-.855 2.182 2.182 0 0 1-.323-1.97z"/><ellipse transform="rotate(-36.592 4.549 3.264)" class="st30" cx="4.549" cy="3.264" rx="1.175" ry="1.175"/><path class="st31" d="M.357 5.546a2.182 2.182 0 0 1 2.714-1.404 2.177 2.177 0 0 1 1.431 2.721C4.128 8.016 2.91 8.647 1.779 8.294 1.226 8.123.771 7.745.5 7.231S.176 6.128.348 5.573l.009-.027z"/><ellipse transform="rotate(-72.741 2.425 6.218)" class="st32" cx="2.425" cy="6.218" rx="1.175" ry="1.175"/><path class="st33" d="M.385 9.185A2.186 2.186 0 0 1 1.75 7.799a2.178 2.178 0 0 1 2.761 1.353 2.18 2.18 0 0 1-1.356 2.762c-.548.188-1.137.151-1.659-.105s-.913-.699-1.1-1.25a2.14 2.14 0 0 1-.011-1.374z"/><ellipse transform="rotate(-18.886 2.453 9.856)" class="st34" cx="2.453" cy="9.857" rx="1.175" ry="1.175"/><path class="st35" d="M2.553 12.107c.066-.204.163-.398.287-.574a2.157 2.157 0 0 1 1.403-.895 2.156 2.156 0 0 1 1.625.359 2.161 2.161 0 0 1 .822 2.453 2.165 2.165 0 0 1-.287.575A2.163 2.163 0 0 1 5 14.92a2.155 2.155 0 0 1-1.626-.36 2.162 2.162 0 0 1-.821-2.453z"/><ellipse transform="rotate(-55.033 4.622 12.778)" class="st36" cx="4.622" cy="12.779" rx="1.175" ry="1.175"/><path class="st37" d="M6.028 13.187a2.176 2.176 0 1 1 2.113 2.846 2.176 2.176 0 0 1-2.113-2.846z"/><ellipse transform="rotate(-1.146 8.103 13.855)" class="st38" cx="8.096" cy="13.859" rx="1.175" ry="1.175"/><path class="st39" d="M9.471 12.008a2.16 2.16 0 0 1 .749-1.056 2.18 2.18 0 0 1 3.048.409 2.18 2.18 0 0 1 .34 1.994A2.179 2.179 0 0 1 9.81 14a2.176 2.176 0 0 1-.339-1.992z"/><ellipse transform="rotate(-37.328 11.539 12.68)" class="st40" cx="11.539" cy="12.681" rx="1.175" ry="1.175"/></g><g id="_x38_" class="st20"><ellipse transform="rotate(-17.998 13.602 6.226)" class="st21" cx="13.601" cy="6.226" rx="2.175" ry="2.174"/><ellipse transform="rotate(-17.998 13.602 6.226)" class="st22" cx="13.601" cy="6.226" rx="1.175" ry="1.175"/><path class="st23" d="M9.409 3.943a2.181 2.181 0 0 1 .306-1.947 2.18 2.18 0 0 1 3.037-.489c.377.272.651.649.794 1.09.214.658.1 1.386-.306 1.947a2.154 2.154 0 0 1-1.416.873 2.164 2.164 0 0 1-1.62-.385 2.157 2.157 0 0 1-.795-1.089z"/><ellipse transform="rotate(-54.148 11.478 3.271)" class="st24" cx="11.478" cy="3.271" rx="1.175" ry="1.175"/><path class="st25" d="M5.951 2.81a2.214 2.214 0 0 1-.106-.662c-.003-.58.22-1.128.63-1.541A2.158 2.158 0 0 1 8.01-.038a2.169 2.169 0 0 1 2.186 2.163 2.159 2.159 0 0 1-.629 1.541c-.41.414-.955.643-1.536.646a2.169 2.169 0 0 1-2.08-1.502z"/><ellipse transform="translate(-.01 .041)" class="st26" cx="8.02" cy="2.137" rx="1.175" ry="1.175"/><path class="st27" d="M2.491 3.934a2.171 2.171 0 0 1 .777-2.422 2.162 2.162 0 0 1 1.615-.401 2.16 2.16 0 0 1 1.745 1.478 2.169 2.169 0 0 1-.777 2.421 2.179 2.179 0 0 1-3.36-1.076z"/><ellipse transform="rotate(-36.44 4.56 3.261)" class="st28" cx="4.559" cy="3.261" rx="1.175" ry="1.175"/><path class="st29" d="M.359 6.882A2.163 2.163 0 0 1 .352 5.56a2.164 2.164 0 0 1 1.069-1.277 2.178 2.178 0 0 1 3.076 1.256c.14.431.142.889.006 1.322a2.165 2.165 0 0 1-1.068 1.277A2.18 2.18 0 0 1 .359 6.882z"/><ellipse transform="rotate(-72.59 2.428 6.21)" class="st30" cx="2.428" cy="6.21" rx="1.175" ry="1.175"/><path class="st31" d="M.378 10.522a2.182 2.182 0 0 1 1.37-2.732 2.178 2.178 0 0 1 2.758 1.36c.375 1.154-.239 2.379-1.362 2.759a2.162 2.162 0 0 1-1.66-.109 2.165 2.165 0 0 1-1.098-1.251l-.008-.027z"/><ellipse transform="rotate(-18.738 2.446 9.85)" class="st32" cx="2.446" cy="9.849" rx="1.175" ry="1.175"/><path class="st33" d="M2.54 13.449a2.187 2.187 0 0 1 .29-1.924 2.178 2.178 0 0 1 3.029-.528 2.182 2.182 0 0 1 .526 3.032c-.333.474-.831.791-1.404.89s-1.149-.029-1.625-.364a2.156 2.156 0 0 1-.816-1.106z"/><ellipse transform="rotate(-54.886 4.607 12.776)" class="st34" cx="4.607" cy="12.776" rx="1.175" ry="1.175"/><path class="st35" d="M6.011 14.538a2.158 2.158 0 0 1-.105-.633 2.159 2.159 0 0 1 .609-1.549 2.157 2.157 0 0 1 1.526-.664 2.162 2.162 0 0 1 2.107 1.501c.066.204.102.418.106.634a2.16 2.16 0 0 1-.609 1.548 2.16 2.16 0 0 1-1.527.664 2.162 2.162 0 0 1-2.107-1.501z"/><ellipse transform="rotate(-1.031 8.092 13.884)" class="st36" cx="8.079" cy="13.865" rx="1.175" ry="1.175"/><path class="st37" d="M9.457 13.369a2.174 2.174 0 1 1 4.135-1.343 2.174 2.174 0 0 1-4.135 1.343z"/><ellipse transform="rotate(-37.18 11.526 12.697)" class="st38" cx="11.525" cy="12.697" rx="1.175" ry="1.175"/><path class="st39" d="M11.55 10.392a2.167 2.167 0 0 1-.015-1.295 2.174 2.174 0 1 1 1.459 2.707 2.174 2.174 0 0 1-1.444-1.412z"/><ellipse transform="rotate(-73.328 13.618 9.72)" class="st40" cx="13.619" cy="9.72" rx="1.175" ry="1.175"/></g><g id="_x37_" class="st20"><ellipse transform="rotate(-53.999 11.488 3.286)" class="st21" cx="11.488" cy="3.286" rx="2.175" ry="2.174"/><ellipse transform="rotate(-53.999 11.488 3.286)" class="st22" cx="11.488" cy="3.286" rx="1.175" ry="1.175"/><path class="st23" d="M6.755 3.904a2.184 2.184 0 0 1-.897-1.755 2.178 2.178 0 0 1 2.17-2.18c.465-.001.908.142 1.283.415.56.407.895 1.063.897 1.755a2.161 2.161 0 0 1-.632 1.539 2.16 2.16 0 0 1-1.537.64 2.164 2.164 0 0 1-1.284-.414z"/><ellipse transform="translate(-.005 .02)" class="st24" cx="8.033" cy="2.144" rx="1.175" ry="1.175"/><path class="st25" d="M3.291 5.019a2.17 2.17 0 0 1-.474-.473A2.158 2.158 0 0 1 2.42 2.93c.088-.574.394-1.08.862-1.424a2.17 2.17 0 0 1 3.04.466c.344.468.485 1.042.397 1.616a2.163 2.163 0 0 1-.862 1.424 2.17 2.17 0 0 1-2.566.007z"/><ellipse transform="rotate(-36.293 4.57 3.26)" class="st26" cx="4.569" cy="3.259" rx="1.175" ry="1.175"/><path class="st27" d="M1.152 7.963a2.174 2.174 0 1 1 2.555-3.519 2.174 2.174 0 0 1-2.555 3.519z"/><ellipse transform="rotate(-72.44 2.43 6.203)" class="st28" cx="2.43" cy="6.202" rx="1.175" ry="1.175"/><path class="st29" d="M1.16 11.6a2.167 2.167 0 0 1-.782-1.066 2.157 2.157 0 0 1 .114-1.66 2.177 2.177 0 0 1 4.009.274 2.168 2.168 0 0 1-.113 1.661 2.16 2.16 0 0 1-1.255 1.094A2.182 2.182 0 0 1 1.16 11.6z"/><ellipse transform="rotate(-18.594 2.439 9.841)" class="st30" cx="2.44" cy="9.841" rx="1.175" ry="1.175"/><path class="st31" d="M3.315 14.534a2.183 2.183 0 0 1-.497-3.016 2.178 2.178 0 0 1 3.03-.52c.981.713 1.205 2.065.52 3.032a2.162 2.162 0 0 1-1.407.888 2.166 2.166 0 0 1-1.624-.367l-.022-.017z"/><ellipse transform="rotate(-54.738 4.593 12.774)" class="st32" cx="4.593" cy="12.774" rx="1.175" ry="1.175"/><path class="st33" d="M6.785 15.631a2.184 2.184 0 0 1-.896-1.727 2.178 2.178 0 0 1 2.14-2.208c.476-.007.929.137 1.311.415.552.401.887 1.047.897 1.728a2.162 2.162 0 0 1-.612 1.546 2.156 2.156 0 0 1-1.529.66 2.14 2.14 0 0 1-1.311-.414z"/><ellipse transform="rotate(-.81 8.053 13.82)" class="st34" cx="8.062" cy="13.872" rx="1.175" ry="1.175"/><path class="st35" d="M10.233 14.472a2.124 2.124 0 0 1-.457-.451 2.161 2.161 0 0 1-.418-1.611c.08-.576.38-1.084.844-1.434a2.162 2.162 0 0 1 2.587-.024 2.16 2.16 0 0 1 .876 2.06 2.154 2.154 0 0 1-.845 1.435 2.16 2.16 0 0 1-2.587.025z"/><ellipse transform="rotate(-37.032 11.511 12.712)" class="st36" cx="11.511" cy="12.712" rx="1.175" ry="1.175"/><path class="st37" d="M12.334 11.501a2.175 2.175 0 1 1 2.559-3.518 2.175 2.175 0 0 1-2.559 3.518z"/><ellipse transform="rotate(-73.178 13.613 9.742)" class="st38" cx="13.612" cy="9.741" rx="1.175" ry="1.175"/><path class="st39" d="M12.277 7.862a2.164 2.164 0 0 1-.773-1.039 2.18 2.18 0 0 1 1.331-2.772 2.177 2.177 0 0 1 2.774 1.333 2.174 2.174 0 1 1-3.332 2.478z"/><ellipse transform="rotate(-19.33 13.555 6.103)" class="st40" cx="13.556" cy="6.103" rx="1.175" ry="1.175"/></g><g id="_x36_" class="st20"><circle class="st21" cx="8.046" cy="2.15" r="2.175"/><circle class="st22" cx="8.046" cy="2.15" r="1.175"/><path class="st23" d="M4.58 5.432a2.182 2.182 0 0 1-1.757-.892 2.18 2.18 0 0 1 .474-3.04 2.18 2.18 0 0 1 3.432 2.092 2.164 2.164 0 0 1-.867 1.421 2.159 2.159 0 0 1-1.282.419z"/><ellipse transform="rotate(-36.148 4.58 3.257)" class="st24" cx="4.58" cy="3.257" rx="1.175" ry="1.175"/><path class="st25" d="M2.433 8.37c-.224 0-.447-.035-.662-.104a2.156 2.156 0 0 1-1.27-1.074 2.161 2.161 0 0 1-.14-1.659 2.168 2.168 0 0 1 2.734-1.409 2.155 2.155 0 0 1 1.27 1.074c.267.516.316 1.105.139 1.659A2.167 2.167 0 0 1 2.433 8.37z"/><ellipse transform="rotate(-72.295 2.433 6.195)" class="st26" cx="2.433" cy="6.195" rx="1.175" ry="1.175"/><path class="st27" d="M2.433 12.009A2.172 2.172 0 0 1 .488 8.862a2.18 2.18 0 0 1 1.945-1.203c.938 0 1.767.598 2.063 1.487a2.18 2.18 0 0 1-2.063 2.863z"/><ellipse transform="rotate(-18.45 2.431 9.832)" class="st28" cx="2.433" cy="9.834" rx="1.175" ry="1.175"/><path class="st29" d="M4.578 14.947c-.454 0-.889-.14-1.259-.402a2.165 2.165 0 0 1-.884-1.411 2.178 2.178 0 0 1 3.404-2.135c.473.337.787.838.884 1.41a2.164 2.164 0 0 1-.372 1.623 2.181 2.181 0 0 1-1.773.915z"/><ellipse transform="rotate(-54.59 4.579 12.772)" class="st30" cx="4.579" cy="12.772" rx="1.175" ry="1.175"/><path class="st31" d="M8.045 16.054a2.183 2.183 0 0 1-2.175-2.147 2.178 2.178 0 0 1 2.146-2.202c1.213 0 2.188.963 2.203 2.147.008.579-.211 1.129-.616 1.545s-.949.649-1.529.657h-.029z"/><ellipse transform="rotate(-.81 8.009 13.86)" class="st32" cx="8.045" cy="13.879" rx="1.175" ry="1.175"/><path class="st33" d="M11.498 14.902a2.184 2.184 0 0 1-1.74-.87 2.178 2.178 0 0 1 .434-3.044 2.162 2.162 0 0 1 1.305-.435c.683 0 1.333.325 1.741.871.348.463.495 1.035.413 1.61s-.383 1.084-.849 1.433a2.15 2.15 0 0 1-1.304.435z"/><ellipse transform="rotate(-36.886 11.497 12.728)" class="st34" cx="11.497" cy="12.728" rx="1.175" ry="1.175"/><path class="st35" d="M13.606 11.937a2.14 2.14 0 0 1-.635-.096c-.556-.169-1.012-.545-1.285-1.058s-.33-1.101-.16-1.656a2.162 2.162 0 0 1 2.079-1.54c.215 0 .429.032.636.095a2.155 2.155 0 0 1 1.284 1.058 2.16 2.16 0 0 1 .16 1.657 2.162 2.162 0 0 1-2.079 1.54z"/><ellipse transform="rotate(-73.034 13.605 9.762)" class="st36" cx="13.606" cy="9.763" rx="1.175" ry="1.175"/><path class="st37" d="M13.559 8.299c-.925 0-1.75-.587-2.054-1.46a2.177 2.177 0 0 1 2.054-2.89c.925 0 1.75.587 2.054 1.461a2.177 2.177 0 0 1-2.054 2.889z"/><ellipse transform="rotate(-19.178 13.56 6.125)" class="st38" cx="13.559" cy="6.124" rx="1.175" ry="1.175"/><path class="st39" d="M11.375 5.389c-.443 0-.871-.134-1.236-.386a2.18 2.18 0 0 1-.554-3.025 2.178 2.178 0 0 1 3.027-.552 2.176 2.176 0 1 1-1.237 3.963z"/><ellipse transform="rotate(-55.326 11.376 3.214)" class="st40" cx="11.375" cy="3.214" rx="1.175" ry="1.175"/></g><g id="_x35_" class="st20"><ellipse transform="rotate(-36.002 4.59 3.252)" class="st21" cx="4.59" cy="3.252" rx="2.174" ry="2.175"/><ellipse transform="rotate(-36.002 4.59 3.252)" class="st22" cx="4.59" cy="3.252" rx="1.175" ry="1.175"/><path class="st23" d="M3.715 7.943a2.183 2.183 0 0 1-1.946.311A2.178 2.178 0 0 1 .366 5.517c.143-.442.416-.82.791-1.092a2.183 2.183 0 0 1 1.946-.311 2.157 2.157 0 0 1 1.268 1.077c.265.517.313 1.107.134 1.659a2.146 2.146 0 0 1-.79 1.093z"/><ellipse transform="rotate(-72.145 2.436 6.185)" class="st24" cx="2.436" cy="6.184" rx="1.175" ry="1.175"/><path class="st25" d="M3.705 11.583a2.168 2.168 0 0 1-.596.305 2.163 2.163 0 0 1-1.66-.122 2.162 2.162 0 0 1-1.088-1.26 2.17 2.17 0 0 1 1.383-2.748 2.163 2.163 0 0 1 1.66.122c.519.261.905.708 1.088 1.26a2.171 2.171 0 0 1-.787 2.443z"/><ellipse transform="rotate(-18.294 2.427 9.823)" class="st26" cx="2.426" cy="9.823" rx="1.175" ry="1.175"/><path class="st27" d="M5.844 14.526a2.174 2.174 0 0 1-3.424-1.403 2.155 2.155 0 0 1 .376-1.621 2.172 2.172 0 0 1 3.034-.505 2.178 2.178 0 0 1 .014 3.529z"/><ellipse transform="rotate(-54.442 4.565 12.768)" class="st28" cx="4.565" cy="12.767" rx="1.175" ry="1.175"/><path class="st29" d="M9.306 15.643c-.367.267-.801.41-1.255.415a2.158 2.158 0 0 1-1.544-.622 2.176 2.176 0 0 1 1.499-3.728 2.162 2.162 0 0 1 1.544.621c.415.407.647.951.653 1.532a2.18 2.18 0 0 1-.897 1.782z"/><ellipse transform="rotate(-.59 8.026 13.886)" class="st30" cx="8.028" cy="13.883" rx="1.175" ry="1.175"/><path class="st31" d="M12.762 14.5a2.184 2.184 0 0 1-3.022-.459 2.178 2.178 0 0 1 .441-3.043 2.19 2.19 0 0 1 3.045.442 2.16 2.16 0 0 1 .41 1.612 2.163 2.163 0 0 1-.851 1.431l-.023.017z"/><ellipse transform="rotate(-36.739 11.482 12.74)" class="st32" cx="11.483" cy="12.741" rx="1.175" ry="1.175"/><path class="st33" d="M14.878 11.539c-.551.4-1.269.52-1.919.319a2.177 2.177 0 0 1-1.438-2.717 2.16 2.16 0 0 1 .8-1.118 2.186 2.186 0 0 1 1.921-.319c.553.17 1.009.546 1.281 1.06s.327 1.102.156 1.658a2.165 2.165 0 0 1-.801 1.117z"/><ellipse transform="rotate(-72.884 13.6 9.781)" class="st34" cx="13.599" cy="9.781" rx="1.175" ry="1.175"/><path class="st35" d="M14.841 7.902a2.177 2.177 0 0 1-.57.296 2.158 2.158 0 0 1-1.661-.1 2.152 2.152 0 0 1-1.103-1.246 2.162 2.162 0 0 1 .777-2.468c.174-.126.365-.226.57-.297a2.159 2.159 0 0 1 1.661.101c.523.254.915.697 1.104 1.247a2.163 2.163 0 0 1-.778 2.467z"/><ellipse transform="rotate(-19.033 13.563 6.142)" class="st36" cx="13.562" cy="6.142" rx="1.175" ry="1.175"/><path class="st37" d="M12.664 4.985a2.176 2.176 0 0 1-2.557-3.519 2.174 2.174 0 0 1 2.557 3.519z"/><ellipse transform="rotate(-55.18 11.386 3.226)" class="st38" cx="11.386" cy="3.226" rx="1.175" ry="1.175"/><path class="st39" d="M9.186 3.915a2.178 2.178 0 0 1-3.452-1.708A2.179 2.179 0 0 1 7.859-.019a2.179 2.179 0 0 1 2.224 2.124 2.177 2.177 0 0 1-.897 1.81z"/><ellipse transform="rotate(-1.329 7.902 2.152)" class="st40" cx="7.908" cy="2.155" rx="1.175" ry="1.175"/></g><g id="_x34_" class="st20"><ellipse transform="rotate(-72.002 2.44 6.171)" class="st21" cx="2.44" cy="6.171" rx="2.174" ry="2.175"/><ellipse transform="rotate(-72.002 2.44 6.17)" class="st22" cx="2.44" cy="6.171" rx="1.175" ry="1.175"/><path class="st23" d="M4.49 10.481a2.182 2.182 0 0 1-1.391 1.395A2.179 2.179 0 0 1 .352 9.139a2.182 2.182 0 0 1 1.392-1.395 2.156 2.156 0 0 1 1.659.126c.519.262.903.711 1.084 1.264.145.44.146.906.003 1.347z"/><ellipse transform="rotate(-18.149 2.42 9.809)" class="st24" cx="2.421" cy="9.81" rx="1.175" ry="1.175"/><path class="st25" d="M6.621 13.431a2.155 2.155 0 0 1-.303.597 2.159 2.159 0 0 1-1.415.877 2.162 2.162 0 0 1-1.621-.38 2.168 2.168 0 0 1-.497-3.035 2.159 2.159 0 0 1 1.415-.877 2.162 2.162 0 0 1 1.621.38 2.169 2.169 0 0 1 .8 2.438z"/><ellipse transform="rotate(-54.294 4.552 12.76)" class="st26" cx="4.552" cy="12.759" rx="1.175" ry="1.175"/><path class="st27" d="M10.081 14.556a2.172 2.172 0 0 1-3.594.878 2.175 2.175 0 1 1 3.594-.878z"/><ellipse transform="matrix(1 -.0077 .0077 1 -.107 .062)" class="st28" cx="8.012" cy="13.884" rx="1.175" ry="1.175"/><path class="st29" d="M13.539 13.424c-.14.431-.408.802-.772 1.073-.467.346-1.04.49-1.615.404a2.176 2.176 0 1 1 2.065-3.447c.418.565.539 1.302.322 1.97z"/><ellipse transform="rotate(-36.592 11.47 12.751)" class="st30" cx="11.47" cy="12.751" rx="1.175" ry="1.175"/><path class="st31" d="M15.663 10.468a2.184 2.184 0 0 1-2.714 1.405 2.177 2.177 0 0 1-1.431-2.721c.375-1.154 1.592-1.784 2.723-1.432a2.163 2.163 0 0 1 1.279 1.063c.27.514.324 1.103.152 1.658l-.009.027z"/><ellipse transform="rotate(-72.741 13.593 9.796)" class="st32" cx="13.594" cy="9.797" rx="1.175" ry="1.175"/><path class="st33" d="M15.634 6.829a2.186 2.186 0 0 1-1.365 1.386 2.178 2.178 0 0 1-2.761-1.353 2.157 2.157 0 0 1-.01-1.375A2.184 2.184 0 0 1 12.865 4.1c.548-.188 1.137-.151 1.659.105s.913.699 1.1 1.25c.154.448.157.924.01 1.374z"/><ellipse transform="rotate(-18.886 13.565 6.158)" class="st34" cx="13.566" cy="6.158" rx="1.175" ry="1.175"/><path class="st35" d="M13.466 3.908a2.144 2.144 0 0 1-.287.574 2.157 2.157 0 0 1-1.403.895 2.156 2.156 0 0 1-1.625-.359 2.163 2.163 0 0 1-.822-2.453 2.163 2.163 0 0 1 1.69-1.471 2.155 2.155 0 0 1 1.626.36 2.164 2.164 0 0 1 .821 2.454z"/><ellipse transform="rotate(-55.033 11.397 3.236)" class="st36" cx="11.398" cy="3.236" rx="1.175" ry="1.175"/><path class="st37" d="M9.991 2.828A2.176 2.176 0 1 1 7.878-.018a2.176 2.176 0 0 1 2.113 2.846z"/><ellipse transform="rotate(-1.146 7.926 2.15)" class="st38" cx="7.923" cy="2.156" rx="1.175" ry="1.175"/><path class="st39" d="M6.548 4.006a2.168 2.168 0 0 1-.749 1.057 2.18 2.18 0 0 1-3.048-.409 2.18 2.18 0 0 1 .411-3.05 2.179 2.179 0 0 1 3.048.411c.432.568.559 1.312.338 1.991z"/><ellipse transform="rotate(-37.328 4.48 3.333)" class="st40" cx="4.48" cy="3.334" rx="1.175" ry="1.175"/></g><g id="_x33_" class="st20"><ellipse transform="rotate(-17.998 2.419 9.79)" class="st21" cx="2.418" cy="9.789" rx="2.175" ry="2.174"/><ellipse transform="rotate(-17.998 2.419 9.79)" class="st22" cx="2.418" cy="9.789" rx="1.175" ry="1.175"/><path class="st23" d="M6.61 12.071c.214.658.1 1.386-.306 1.947a2.18 2.18 0 0 1-3.037.489 2.154 2.154 0 0 1-.794-1.09 2.181 2.181 0 0 1 .306-1.947 2.154 2.154 0 0 1 1.416-.873 2.164 2.164 0 0 1 1.62.385c.377.271.652.648.795 1.089z"/><ellipse transform="rotate(-54.148 4.542 12.744)" class="st24" cx="4.542" cy="12.744" rx="1.175" ry="1.175"/><path class="st25" d="M10.068 13.205A2.177 2.177 0 0 1 5.93 14.55a2.182 2.182 0 0 1 .523-2.202 2.158 2.158 0 0 1 1.535-.645 2.167 2.167 0 0 1 2.08 1.502z"/><ellipse transform="translate(-.071 .041)" class="st26" cx="7.999" cy="13.878" rx="1.175" ry="1.175"/><path class="st27" d="M13.529 12.081a2.171 2.171 0 0 1-.777 2.422 2.162 2.162 0 0 1-1.615.401 2.16 2.16 0 0 1-1.745-1.478 2.169 2.169 0 0 1 .777-2.421 2.179 2.179 0 0 1 3.36 1.076z"/><ellipse transform="rotate(-36.44 11.46 12.754)" class="st28" cx="11.46" cy="12.753" rx="1.175" ry="1.175"/><path class="st29" d="M15.661 9.133c.14.431.142.889.006 1.322a2.164 2.164 0 0 1-1.069 1.277 2.178 2.178 0 0 1-3.076-1.256 2.162 2.162 0 0 1-.006-1.322 2.165 2.165 0 0 1 1.068-1.277 2.167 2.167 0 0 1 1.659-.148c.669.21 1.2.735 1.418 1.404z"/><ellipse transform="rotate(-72.59 13.591 9.804)" class="st30" cx="13.591" cy="9.804" rx="1.175" ry="1.175"/><path class="st31" d="M15.641 5.493a2.183 2.183 0 0 1-1.37 2.732 2.177 2.177 0 0 1-2.757-1.36c-.375-1.154.239-2.379 1.362-2.759a2.162 2.162 0 0 1 1.66.109c.521.257.911.702 1.098 1.251l.007.027z"/><ellipse transform="rotate(-18.738 13.574 6.166)" class="st32" cx="13.573" cy="6.166" rx="1.175" ry="1.175"/><path class="st33" d="M13.479 2.566c.21.647.102 1.367-.29 1.924a2.178 2.178 0 0 1-3.029.528 2.182 2.182 0 0 1-.526-3.032 2.152 2.152 0 0 1 1.404-.89c.572-.1 1.149.029 1.625.364.389.272.67.655.816 1.106z"/><ellipse transform="rotate(-54.886 11.412 3.238)" class="st34" cx="11.412" cy="3.238" rx="1.175" ry="1.175"/><path class="st35" d="M10.008 1.477c.066.204.102.418.105.633a2.159 2.159 0 0 1-.609 1.549 2.15 2.15 0 0 1-1.525.664 2.161 2.161 0 0 1-2.107-1.501A2.167 2.167 0 0 1 6.374.64a2.158 2.158 0 0 1 1.527-.665 2.162 2.162 0 0 1 2.107 1.502z"/><ellipse transform="rotate(-1.031 7.953 2.155)" class="st36" cx="7.94" cy="2.149" rx="1.175" ry="1.175"/><path class="st37" d="M6.562 2.646a2.174 2.174 0 1 1-4.135 1.343 2.174 2.174 0 0 1 4.135-1.343z"/><ellipse transform="rotate(-37.18 4.494 3.318)" class="st38" cx="4.494" cy="3.318" rx="1.175" ry="1.175"/><path class="st39" d="M4.469 5.623c.137.422.142.87.015 1.295a2.179 2.179 0 0 1-2.706 1.46A2.176 2.176 0 0 1 .317 5.67a2.174 2.174 0 1 1 4.152-.047z"/><ellipse transform="rotate(-73.328 2.4 6.294)" class="st40" cx="2.401" cy="6.294" rx="1.175" ry="1.175"/></g><g id="_x32_" class="st20"><ellipse transform="rotate(-53.999 4.532 12.729)" class="st21" cx="4.531" cy="12.729" rx="2.175" ry="2.174"/><ellipse transform="rotate(-53.999 4.532 12.729)" class="st22" cx="4.531" cy="12.728" rx="1.175" ry="1.175"/><path class="st23" d="M9.264 12.111c.56.407.895 1.063.897 1.754a2.178 2.178 0 0 1-2.169 2.18 2.156 2.156 0 0 1-1.283-.415 2.184 2.184 0 0 1-.897-1.755 2.161 2.161 0 0 1 .632-1.539 2.16 2.16 0 0 1 1.537-.64c.464-.001.908.142 1.283.415z"/><ellipse transform="translate(-.036 .02)" class="st24" cx="7.986" cy="13.871" rx="1.175" ry="1.175"/><path class="st25" d="M12.728 10.996c.181.132.341.291.474.473a2.16 2.16 0 0 1 .397 1.617 2.163 2.163 0 0 1-.862 1.424 2.168 2.168 0 0 1-3.039-.466 2.16 2.16 0 0 1-.397-1.617c.088-.574.394-1.08.862-1.424a2.167 2.167 0 0 1 2.565-.007z"/><ellipse transform="rotate(-36.293 11.45 12.757)" class="st26" cx="11.45" cy="12.756" rx="1.175" ry="1.175"/><path class="st27" d="M14.867 8.052a2.173 2.173 0 0 1-.276 3.69 2.16 2.16 0 0 1-2.28-.17 2.172 2.172 0 0 1-.795-2.415 2.18 2.18 0 0 1 3.351-1.105z"/><ellipse transform="rotate(-72.44 13.59 9.812)" class="st28" cx="13.589" cy="9.812" rx="1.175" ry="1.175"/><path class="st29" d="M14.859 4.414c.367.267.637.636.782 1.066a2.164 2.164 0 0 1-.114 1.661c-.258.52-.704.908-1.254 1.094a2.183 2.183 0 0 1-1.973-.302 2.167 2.167 0 0 1-.782-1.066 2.168 2.168 0 0 1 .113-1.661 2.16 2.16 0 0 1 1.255-1.094 2.182 2.182 0 0 1 1.973.302z"/><ellipse transform="rotate(-18.594 13.58 6.174)" class="st30" cx="13.58" cy="6.173" rx="1.175" ry="1.175"/><path class="st31" d="M12.704 1.481a2.183 2.183 0 0 1 .497 3.016 2.178 2.178 0 0 1-3.03.52c-.981-.713-1.204-2.065-.52-3.032.334-.473.834-.789 1.407-.888s1.149.032 1.624.367l.022.017z"/><ellipse transform="rotate(-54.738 11.426 3.24)" class="st32" cx="11.426" cy="3.241" rx="1.175" ry="1.175"/><path class="st33" d="M9.234.383c.551.4.886 1.046.896 1.727a2.178 2.178 0 0 1-2.14 2.208 2.157 2.157 0 0 1-1.31-.416 2.184 2.184 0 0 1-.897-1.728A2.155 2.155 0 0 1 6.396.629a2.155 2.155 0 0 1 1.528-.661c.474-.008.927.137 1.31.415z"/><ellipse transform="rotate(-.81 7.935 2.129)" class="st34" cx="7.957" cy="2.143" rx="1.175" ry="1.175"/><path class="st35" d="M5.786 1.542c.174.127.328.279.457.451.35.463.498 1.036.418 1.611s-.38 1.084-.844 1.434c-.769.58-1.808.59-2.587.024a2.16 2.16 0 0 1-.876-2.06c.08-.576.38-1.085.845-1.435a2.162 2.162 0 0 1 2.587-.025z"/><ellipse transform="rotate(-37.032 4.508 3.302)" class="st36" cx="4.508" cy="3.302" rx="1.175" ry="1.175"/><path class="st37" d="M3.685 4.514a2.175 2.175 0 1 1-3.359 1.13 2.176 2.176 0 0 1 3.359-1.13z"/><ellipse transform="rotate(-73.178 2.407 6.273)" class="st38" cx="2.407" cy="6.273" rx="1.175" ry="1.175"/><path class="st39" d="M3.742 8.152c.359.261.626.62.773 1.039a2.175 2.175 0 1 1-2.772-1.332 2.18 2.18 0 0 1 1.999.293z"/><ellipse transform="rotate(-19.33 2.463 9.91)" class="st40" cx="2.463" cy="9.911" rx="1.175" ry="1.175"/></g><g id="_x31_" class="st20"><circle class="st21" cx="7.973" cy="13.864" r="2.175"/><circle class="st22" cx="7.973" cy="13.864" r="1.175"/><path class="st23" d="M11.439 10.583c.692 0 1.349.333 1.757.892a2.178 2.178 0 0 1-.474 3.039 2.18 2.18 0 0 1-3.432-2.092 2.154 2.154 0 0 1 .867-1.421 2.165 2.165 0 0 1 1.282-.418z"/><ellipse transform="rotate(-36.148 11.44 12.757)" class="st24" cx="11.44" cy="12.758" rx="1.175" ry="1.175"/><path class="st25" d="M13.586 7.645c.224 0 .447.035.662.104a2.16 2.16 0 0 1 1.271 1.075c.267.516.316 1.105.139 1.659a2.169 2.169 0 0 1-2.733 1.41 2.16 2.16 0 0 1-1.271-1.075 2.157 2.157 0 0 1-.139-1.659 2.166 2.166 0 0 1 2.071-1.514z"/><ellipse transform="rotate(-72.295 13.587 9.82)" class="st26" cx="13.586" cy="9.82" rx="1.175" ry="1.175"/><path class="st27" d="M13.586 4.006c.938 0 1.767.598 2.063 1.487a2.157 2.157 0 0 1-.118 1.66 2.18 2.18 0 0 1-1.945 1.203 2.171 2.171 0 0 1-2.063-1.487 2.18 2.18 0 0 1 2.063-2.863z"/><ellipse transform="rotate(-18.45 13.584 6.181)" class="st28" cx="13.587" cy="6.181" rx="1.175" ry="1.175"/><path class="st29" d="M11.442 1.067c.454 0 .889.14 1.259.402.473.337.787.838.884 1.411a2.178 2.178 0 0 1-3.404 2.135 2.165 2.165 0 0 1-.884-1.41 2.159 2.159 0 0 1 .371-1.623 2.181 2.181 0 0 1 1.774-.915z"/><ellipse transform="rotate(-54.59 11.44 3.243)" class="st30" cx="11.44" cy="3.243" rx="1.175" ry="1.175"/><path class="st31" d="M7.974-.039c1.184 0 2.16.963 2.175 2.147A2.178 2.178 0 0 1 8.003 4.31c-1.213 0-2.188-.963-2.203-2.147-.008-.579.211-1.129.616-1.545s.949-.649 1.529-.657h.029z"/><ellipse transform="rotate(-.81 7.96 2.14)" class="st32" cx="7.974" cy="2.136" rx="1.175" ry="1.175"/><path class="st33" d="M4.522 1.112c.681 0 1.332.325 1.74.87a2.178 2.178 0 0 1-.434 3.044 2.155 2.155 0 0 1-1.304.435 2.181 2.181 0 0 1-1.741-.871c-.348-.463-.495-1.035-.413-1.61s.383-1.084.849-1.433a2.148 2.148 0 0 1 1.303-.435z"/><ellipse transform="rotate(-36.886 4.522 3.287)" class="st34" cx="4.522" cy="3.287" rx="1.175" ry="1.175"/><path class="st35" d="M2.413 4.077c.215 0 .429.032.635.096.556.169 1.012.545 1.285 1.057s.33 1.101.16 1.656a2.162 2.162 0 0 1-2.079 1.54c-.215 0-.429-.032-.636-.095A2.155 2.155 0 0 1 .494 7.274a2.16 2.16 0 0 1-.16-1.657 2.162 2.162 0 0 1 2.079-1.54z"/><ellipse transform="rotate(-73.034 2.414 6.252)" class="st36" cx="2.414" cy="6.252" rx="1.175" ry="1.175"/><path class="st37" d="M2.46 7.716c.925 0 1.75.587 2.054 1.46a2.177 2.177 0 0 1-2.054 2.89c-.925 0-1.75-.587-2.054-1.461A2.177 2.177 0 0 1 2.46 7.716z"/><ellipse transform="rotate(-19.178 2.46 9.892)" class="st38" cx="2.46" cy="9.891" rx="1.175" ry="1.175"/><path class="st39" d="M4.645 10.626c.443 0 .871.134 1.236.386a2.18 2.18 0 0 1 .553 3.025 2.178 2.178 0 0 1-3.027.552 2.176 2.176 0 1 1 1.238-3.963z"/><ellipse transform="rotate(-55.326 4.644 12.801)" class="st40" cx="4.644" cy="12.801" rx="1.175" ry="1.175"/></g></svg>