<svg xmlns="http://www.w3.org/2000/svg" viewBox="0 0 16 16"><style>.icon-canvas-transparent{opacity:0;fill:#f6f6f6}.icon-vs-out{fill:#f6f6f6}.icon-vs-bg{fill:#424242}.icon-vs-fg{fill:#f0eff1}.icon-vs-action-green{fill:#388a34}</style><path class="icon-canvas-transparent" d="M16 16H0V0h16v16z" id="canvas"/><path class="icon-vs-out" d="M13 3.706V3h1V0H7v2H6V0H2v2H0v4h2v3.586l-2-2v4.828L3.586 16h.828L8 12.414V12h6.668c.503 0 .97-.199 1.332-.525V8.373l-3-4.667zM6 6.817V6h.525L6 6.817z" id="outline"/><path class="icon-vs-bg" d="M5 12l2-2v2l-3 3-3-3v-2l2 2V9h2v3zm10.51-2.541A1 1 0 0 1 14.668 11H8V9H6.586L6 9.586v-.919L9 4V2H8V1h5v1h-1v2l3.51 5.459zM12.724 7L11 4.291V2h-1v2.291L8.276 7h4.448z" id="iconBg"/><path class="icon-vs-fg" d="M11 4.291L12.724 7H8.276L10 4.291V2h1v2.291z" id="iconFg"/><path class="icon-vs-action-green" d="M3 5H1V3h2V1h2v2h2v2H5v2H3V5z" id="colorAction"/></svg>