<svg xmlns="http://www.w3.org/2000/svg" viewBox="0 0 16 16"><style>.st0{opacity:0}.st0,.st1{fill:#f6f6f6}.st2{fill:#424242}.st3{fill:#f0eff1}</style><g id="outline"><path class="st0" d="M0 0h16v16H0z"/><path class="st1" d="M7 0v5.585L6.415 5H4C2.701 5 2 6.047 2 7H0v9h7v-2c1.264 0 1.963-1.054 2-2h-.001H16V0H7z"/></g><g id="icon_x5F_bg"><path class="st2" d="M1 8h1v1H1zM1 10h1v1H1zM1 12h1v1H1zM1 14h1v1H1zM3 14h1v1H3zM5 14h1v1H5zM8 1v5.586l1 1V11h2V9h1v2h3V1H8zm3 6H9V5h2v2zm0-3H9V2h2v2zm3 3h-2V5h2v2zm0-3h-2V2h2v2zM8 8L6 6H4c-1 0-1 .965-1 .965V12c0 1 .965 1 .965 1H7c1 0 1-1 1-1s0 .012 0 0V8zm-1 4H4V7h1.997v1H7v4z"/></g><g id="icon_x5F_fg"><path class="st3" d="M6 7H4v5h3V8H5.998zM9 2h2v2H9zM9 5h2v2H9zM11 9h1v2h-1zM12 2h2v2h-2zM12 5h2v2h-2z"/></g></svg>