<svg xmlns="http://www.w3.org/2000/svg" viewBox="0 0 16 16"><style>.st0{opacity:0}.st0,.st1{fill:#f6f6f6}.st2{fill:#424242}.st3{fill:#f0eff1}</style><g id="outline"><path class="st0" d="M0 0h16v16H0z"/><path class="st1" d="M14 8.5c0 2.481-2.019 4.5-4.5 4.5a4.466 4.466 0 0 1-1.736-.35L4.414 16h-.828l-2-2 3.764-3.764c-.018-.042-.024-.089-.041-.131L3 12.414.586 10 4.35 6.235A4.474 4.474 0 0 1 4 4.5C4 2.019 6.019 0 8.5 0S13 2.019 13 4.5c0 .361-.054.707-.135 1.043A4.461 4.461 0 0 1 14 8.5z"/></g><g id="icon_x5F_bg"><path class="st2" d="M5.555 6.38A3.476 3.476 0 0 1 5 4.5a3.5 3.5 0 1 1 7 0c0 .085-.019.165-.025.248a4.478 4.478 0 0 0-.998-.479A2.492 2.492 0 0 0 8.5 2a2.5 2.5 0 0 0-2.305 3.47c-.251.274-.462.58-.64.91zM5.046 8.954C5.03 8.803 5 8.656 5 8.5c0-.713.182-1.378.478-1.978L2 10l1 1 2.046-2.046z"/><path class="st2" d="M13 8.5A3.5 3.5 0 0 1 9.5 12a3.488 3.488 0 0 1-1.922-.578L4 15l-1-1 3.579-3.578A3.48 3.48 0 0 1 6 8.5a3.5 3.5 0 1 1 7 0z"/><circle class="st2" cx="9.5" cy="8.5" r="2.5"/></g><path class="st3" d="M9.5 11a2.5 2.5 0 1 1 0-5 2.5 2.5 0 0 1 0 5zm0-7a4.45 4.45 0 0 1 1.477.269A2.492 2.492 0 0 0 8.5 2a2.5 2.5 0 0 0-2.305 3.47A4.476 4.476 0 0 1 9.5 4z" id="icon_x5F_fg"/></svg>