<svg xmlns="http://www.w3.org/2000/svg" viewBox="0 0 16 16"><style>.st0{opacity:0}.st0,.st1{fill:#f6f6f6}.st2{fill:#424242}</style><g id="outline"><path class="st0" d="M0 0h16v16H0z"/><path class="st1" d="M11 1v3h2v7h-1.043l1.037-1.037-1.635-1.631L12.99 6.7l-2.805-2.798-.945.947-3.262-3.263L5 2.564V1H0v13h5v-3h2.171l2.002 2h.783L11 11.957V14h5V1h-5zM3.564 4L3 4.564V4h.564zM3 11V7.437l1.807 1.786L5 9.041V11H3z"/></g><g id="icon_x5F_bg"><path class="st2" d="M1 2v11h3v-1H2V3h2V2zM12 2v1h2v9h-2v1h3V2z"/><path class="st2" d="M10.191 8.578L9.771 9H6.976V7h1.529l-.332.331 1.388 1.384 2.015-2.014-1.388-1.384L9.506 6H6.604l1.185-1.186L5.977 3 2.976 6.001l1.818 1.812 1.182-1.176V10h2.796l-.595.592 1.387 1.387 2.016-2.014z"/></g></svg>