<svg xmlns="http://www.w3.org/2000/svg" viewBox="0 0 16 16" enable-background="new 0 0 16 16"><style type="text/css">.icon-canvas-transparent{opacity:0;fill:#F6F6F6;} .icon-vs-out{fill:#F6F6F6;} .icon-vs-bg{fill:#424242;} .icon-vs-fg{fill:#F0EFF1;}</style><path class="icon-canvas-transparent" d="M16 16h-16v-16h16v16z" id="canvas"/><path class="icon-vs-out" d="M3 16v-14c0-1.103.897-2 2-2h6c1.102 0 2 .897 2 2v14h-10z" id="outline"/><path class="icon-vs-bg" d="M12 15h-8v-13c0-.551.449-1 1-1h6c.552 0 1 .449 1 1v13zm-7-1h6v-12h-6v12zm5-11h-4v1h4v-1zm0 7h-4v1h4v-1zm0 2h-4v1h4v-1z" id="iconBg"/><path class="icon-vs-fg" d="M5 2v12h6v-12h-6zm5 11h-4v-1h4v1zm0-2h-4v-1h4v1zm0-7h-4v-1h4v1z" id="iconFg"/></svg>