<svg xmlns="http://www.w3.org/2000/svg" viewBox="0 0 16 16"><style>.st0{opacity:0}.st0,.st1{fill:#f6f6f6}.st2{fill:#424242}.st3{fill:#f0eff1}</style><g id="outline"><path class="st0" d="M0 0h16v16H0z"/><path class="st1" d="M6 0v5.013C6 5.009 5.709 5 5.625 5 2.593 5 .063 7.467.063 10.5c0 1.387.488 2.651 1.338 3.619C2.108 15.246 3.322 16 4.75 16H16V0H6z"/></g><g id="icon_x5F_bg"><path class="st2" d="M7 1v4.213c.349.099.683.231 1 .394V5h6v1H8.652A5.495 5.495 0 0 1 11 10.5c0 1.86-.931 3.504-2.348 4.5H15V1H7zm7 13h-2v-1h2v1zm0-10H8V3h6v1z"/><path class="st2" d="M10.027 10.543c0-.053-.008-.102-.008-.153a4.495 4.495 0 0 0-4.492-4.347 4.5 4.5 0 0 0-4.5 4.501 4.186 4.186 0 0 0 .065.729 4.491 4.491 0 0 0 3.698 3.705l.013.002a4.283 4.283 0 0 0 1.165.043 4.505 4.505 0 0 0 4.059-4.48zM7.436 9.475a8.07 8.07 0 0 0 1.489-.388c.19.446.299.938.299 1.456 0 .08-.008.16-.012.24a7.538 7.538 0 0 1-1.831.555c.07-.393.108-.768.105-1.12a8.318 8.318 0 0 0-.05-.743zM8.58 8.459a7.185 7.185 0 0 1-1.255.319 7.459 7.459 0 0 0-.589-1.725A3.692 3.692 0 0 1 8.58 8.459zm-3.053 5.779c-.109 0-.217-.008-.324-.018-.322-.717-.57-1.43-.725-2.123a11.327 11.327 0 0 0 1.304.061c.224 0 .45-.006.678-.018a13.63 13.63 0 0 1-.87 2.094c-.022.002-.041.004-.063.004zm.004-2.781a11.87 11.87 0 0 1-1.204-.08 7.905 7.905 0 0 1-.056-1.152c.002-.248.019-.508.043-.738.387.045.789.057 1.209.057h.259c.315 0 .632.012.956-.012.025.219.044.451.046.682.004.373-.044.779-.135 1.209a16.09 16.09 0 0 1-1.118.034zm-.004-4.611c.107 0 .21.008.313.016a6.94 6.94 0 0 1 .786 1.997c-.367.025-.728.029-1.095.025-.386-.004-.76-.03-1.119-.071a7.76 7.76 0 0 1 .645-1.934c.154-.019.31-.033.47-.033zM4.188 7.1a8.58 8.58 0 0 0-.471 1.613c-.443-.079-.85-.175-1.223-.281A3.706 3.706 0 0 1 4.188 7.1zm-2.357 3.443c0-.526.112-1.026.31-1.481.441.13.932.253 1.479.346a8.079 8.079 0 0 0-.05.81 8.23 8.23 0 0 0 .063 1.052 12.897 12.897 0 0 1-1.788-.467c-.007-.086-.014-.172-.014-.26zm.151 1.043c.514.158 1.102.311 1.765.416.132.672.349 1.359.632 2.053a3.705 3.705 0 0 1-2.397-2.469zm4.436 2.541c.35-.738.62-1.424.795-2.055a8.094 8.094 0 0 0 1.855-.47 3.7 3.7 0 0 1-2.65 2.525z"/></g><g id="icon_x5F_fg"><path class="st3" d="M7.428 9.484a8.473 8.473 0 0 0 1.5-.384c.189.441.266.93.266 1.443 0 .08-.008.158-.012.238a7.584 7.584 0 0 1-1.816.551c.07-.391.108-.762.104-1.111a8.284 8.284 0 0 0-.042-.737zM5.527 14.209c-.108 0-.215-.006-.321-.016a11.313 11.313 0 0 1-.719-2.15c.333.033.684.098 1.04.1.086.002.699.012.925 0-.194.633-.483 1.309-.862 2.063-.022-.001-.041.003-.063.003zM5.531 11.449c-.406-.006-.796-.064-1.172-.107a7.035 7.035 0 0 1-.072-1.1 8.64 8.64 0 0 1 .04-.75c.384.043.784.051 1.2.051.086 0-.085 0 0 0 .312 0 .879.023 1.2 0 .025.217-.002.441 0 .672.004.367-.011.772-.101 1.197-.372.026-.724.039-1.095.037zM1.861 10.543c0-.522.111-1.051.308-1.5.437.129.917.283 1.458.375-.025.26-.038.445-.041.725-.004.34 0 .768.041 1.121a12.366 12.366 0 0 1-1.752-.463c-.007-.086-.014-.172-.014-.258zM2.012 11.643a12.93 12.93 0 0 0 1.75.4c.131.666.346 1.295.626 1.982-1.142-.373-2.035-1.226-2.376-2.382zM6.41 14.098c.348-.733.615-1.43.789-2.055.569-.072 1.176-.15 1.84-.4-.369 1.234-1.371 2.142-2.629 2.455zM8.58 8.442a7.075 7.075 0 0 1-1.255.3 7.285 7.285 0 0 0-.589-1.7 3.686 3.686 0 0 1 1.844 1.4zM5.527 6.942c.107 0 .21-.008.313 0 .302.522.608 1.089.786 1.9-.367.025-.728.004-1.095 0-.386-.004-.744-.059-1.104-.1a6.72 6.72 0 0 1 .6-1.8c.155-.019.34 0 .5 0zM4.188 7.1a8.58 8.58 0 0 0-.471 1.613c-.443-.079-.85-.175-1.223-.281A3.706 3.706 0 0 1 4.188 7.1zM8 3h6v1H8zM8 5v.608c.227.116.444.246.651.392H14V5H8zM12 13h2v1h-2z"/></g></svg>