<svg xmlns="http://www.w3.org/2000/svg" viewBox="0 0 16 16"><style>.icon-canvas-transparent{opacity:0;fill:#f6f6f6}.st0{fill:#f6f6f6}.st1{fill:#dcb67a}.st2{fill:#f0eff1}.st3{fill:#00539c}</style><path class="icon-canvas-transparent" d="M0 0h16v16H0z" id="canvas"/><path class="st0" d="M2 0h7.116l1 2H13c.97 0 2 .951 2 2.25V6h1v1.446l-1.381 3.302L16 12.129v1.828L14.958 15h-.915l-2.001-2h-.436a6.165 6.165 0 0 1-.781 0H2s-.86.104-1.43-.44c-.343-.333-.57-.693-.57-1.31v-9C0 .947 1.005 0 2 0z" id="outline"/><path class="st1" d="M2 1h6.5l1 2H13s1 .25 1 1.25V7h1l-.692 1.732A3.247 3.247 0 0 0 12.884 7H13V4H9L8 2H2v10s-1-.056-1-1.056V2.25C1 1.25 2 1 2 1zm7.616 6H5l-3 5h6.879A3.227 3.227 0 0 1 8 9.793 3.24 3.24 0 0 1 9.616 7z" id="iconBg"/><path class="st2" d="M10 9.793a1.25 1.25 0 1 1 2.5 0 1.25 1.25 0 0 1-2.5 0zM2 2v9.737L5 7h4.616c.481-.283 1.036-.457 1.634-.457s1.152.174 1.634.457H13V4H9L8 2H2z" id="iconFg"/><path class="st3" d="M9 9.793a2.25 2.25 0 0 0 2.25 2.25c.363 0 .7-.094 1.003-.246l2.247 2.246 1-1-2.246-2.246c.153-.304.247-.642.247-1.004a2.25 2.25 0 0 0-4.501 0zm1 0a1.25 1.25 0 1 1 2.5 0 1.25 1.25 0 0 1-2.5 0z" id="colorAction"/></svg>