<svg xmlns="http://www.w3.org/2000/svg" viewBox="0 0 16 16"><style>.st0{fill:#f6f6f6}.st1{fill:#424242}.st2{opacity:0;fill:#f6f6f6}.st3{fill:#f0eff1}</style><path class="st0" d="M16 0v16H1.586L0 14.414v-.828l2-2V0h14z" id="outline"/><path class="st1" d="M15 1v14H3.414l1.137-1.137c.31.091.627.137.949.137.95 0 1.811-.384 2.442-1H13V3H5v4.051a3.48 3.48 0 0 0-2 1.007V1h12zM5.5 8A2.5 2.5 0 0 0 3 10.5c0 .432.12.832.313 1.188L1 14l1 1 2.313-2.313A2.46 2.46 0 0 0 5.5 13a2.5 2.5 0 1 0 0-5zm0 1a1.5 1.5 0 1 1-.001 3.001A1.5 1.5 0 0 1 5.5 9z" id="icon_x5F_bg"/><g id="icon_x5F_fg"><path class="st2" d="M0 0h16v16H0z"/><path class="st3" d="M5.5 9a1.5 1.5 0 1 1-.001 3.001A1.5 1.5 0 0 1 5.5 9zM5 3v4.051c.165-.024.329-.051.5-.051C7.43 7 9 8.57 9 10.5c0 .979-.407 1.864-1.058 2.5H13V3H5z"/></g></svg>