<svg xmlns="http://www.w3.org/2000/svg" viewBox="0 0 16 16"><style>.st0{opacity:0}.st0,.st1{fill:#f6f6f6}.st2{fill:#424242}.st3{fill:#f0eff1}</style><g id="outline"><path class="st0" d="M0 0h16v16H0z"/><path class="st1" d="M10.5 0A5.506 5.506 0 0 0 5 5.5c0 .168.011.335.026.5H0v10h9v-5.213c.478.136.979.213 1.5.213 3.032 0 5.5-2.467 5.5-5.5S13.532 0 10.5 0z"/></g><g id="icon_x5F_bg"><path class="st2" d="M7 9.739V14H2V8h3.608a5.416 5.416 0 0 1-.394-1H1v8h7v-4.607a5.553 5.553 0 0 1-1-.654z"/><path class="st2" d="M5.638 9.271a1.138 1.138 0 0 0-.451-.315 1.768 1.768 0 0 0-.649-.108c-.127 0-.257.012-.392.036a3.203 3.203 0 0 0-.386.092 2.746 2.746 0 0 0-.33.116 1.414 1.414 0 0 0-.227.121v.817c.168-.14.363-.249.579-.333.218-.083.441-.125.669-.125.227 0 .401.067.526.198.124.133.185.346.185.639l-1.098.165a1.7 1.7 0 0 0-.56.162 1.159 1.159 0 0 0-.6.703 1.66 1.66 0 0 0 .01.985c.052.149.128.276.229.385.099.105.224.189.375.249.149.06.318.09.51.09.245 0 .459-.056.643-.171.185-.112.341-.276.469-.493h.015v.564h.836V10.45c0-.254-.029-.48-.088-.679a1.33 1.33 0 0 0-.265-.5zm-.475 2.152c0 .139-.021.268-.063.39a.948.948 0 0 1-.176.314.845.845 0 0 1-.273.213.81.81 0 0 1-.359.076.724.724 0 0 1-.258-.043.55.55 0 0 1-.198-.121.512.512 0 0 1-.124-.183.6.6 0 0 1-.044-.233c0-.092.01-.174.029-.248a.453.453 0 0 1 .104-.191.596.596 0 0 1 .208-.142c.088-.035.202-.063.341-.083l.811-.116v.367zM15.027 5.542c0-.053-.008-.102-.008-.152a4.497 4.497 0 1 0-8.972.541 4.74 4.74 0 0 0 .047.354A4.494 4.494 0 0 0 9.79 9.977l.013.002a4.143 4.143 0 0 0 1.164.043 4.504 4.504 0 0 0 4.06-4.48zm-2.591-1.067a8.07 8.07 0 0 0 1.489-.388c.19.445.299.938.299 1.455 0 .08-.008.16-.012.24a7.538 7.538 0 0 1-1.831.555c.07-.393.108-.768.104-1.119a7.967 7.967 0 0 0-.049-.743zm1.144-1.017a7.185 7.185 0 0 1-1.255.319 7.571 7.571 0 0 0-.589-1.725 3.703 3.703 0 0 1 1.844 1.406zm-3.053 5.78c-.109 0-.217-.008-.324-.018a11.122 11.122 0 0 1-.725-2.124 11.327 11.327 0 0 0 1.304.061c.224 0 .45-.006.678-.018a13.548 13.548 0 0 1-.87 2.094.446.446 0 0 1-.063.005zm.004-2.781c-.41-.006-.824-.035-1.204-.079a7.787 7.787 0 0 1-.056-1.153c.002-.247.02-.507.043-.737.387.044.789.056 1.209.056h.259c.314 0 .632.012.956-.012.025.219.044.451.046.683.004.372-.044.778-.135 1.208-.376.024-.744.035-1.118.034zm-.004-4.611c.106 0 .21.008.313.016.302.522.608 1.187.786 1.997-.367.025-.729.029-1.095.025-.386-.004-.76-.029-1.119-.07.15-.782.398-1.424.644-1.935.155-.019.311-.033.471-.033zM9.188 2.1a8.568 8.568 0 0 0-.471 1.612c-.443-.078-.85-.175-1.223-.28A3.706 3.706 0 0 1 9.188 2.1zM6.831 5.542a3.7 3.7 0 0 1 .31-1.48c.44.131.932.254 1.479.346a8.06 8.06 0 0 0-.05.81 8.39 8.39 0 0 0 .063 1.051 12.72 12.72 0 0 1-1.788-.467 3.185 3.185 0 0 1-.014-.26zm.151 1.044c.514.157 1.102.31 1.765.415.132.673.349 1.359.632 2.053a3.706 3.706 0 0 1-2.397-2.468zm4.436 2.541c.35-.738.62-1.424.795-2.054a8.165 8.165 0 0 0 1.856-.472 3.705 3.705 0 0 1-2.651 2.526z"/></g><g id="icon_x5F_fg"><path class="st3" d="M5.608 8H2v6h5V9.739A5.54 5.54 0 0 1 5.608 8z"/><path class="st2" d="M5.638 9.271a1.138 1.138 0 0 0-.451-.315 1.768 1.768 0 0 0-.649-.108c-.127 0-.257.012-.392.036a3.203 3.203 0 0 0-.386.092 2.746 2.746 0 0 0-.33.116 1.414 1.414 0 0 0-.227.121v.817c.168-.14.363-.249.579-.333.218-.083.441-.125.669-.125.227 0 .401.067.526.198.124.133.185.346.185.639l-1.098.165a1.7 1.7 0 0 0-.56.162 1.159 1.159 0 0 0-.6.703 1.66 1.66 0 0 0 .01.985c.052.149.128.276.229.385.099.105.224.189.375.249.149.06.318.09.51.09.245 0 .459-.056.643-.171.185-.112.341-.276.469-.493h.015v.564h.836V10.45c0-.254-.029-.48-.088-.679a1.33 1.33 0 0 0-.265-.5zm-.475 2.152c0 .139-.021.268-.063.39a.948.948 0 0 1-.176.314.845.845 0 0 1-.273.213.81.81 0 0 1-.359.076.724.724 0 0 1-.258-.043.55.55 0 0 1-.198-.121.512.512 0 0 1-.124-.183.6.6 0 0 1-.044-.233c0-.092.01-.174.029-.248a.453.453 0 0 1 .104-.191.596.596 0 0 1 .208-.142c.088-.035.202-.063.341-.083l.811-.116v.367z"/><path class="st3" d="M12.428 4.484a8.29 8.29 0 0 0 1.5-.385c.189.442.266.93.266 1.443 0 .08-.008.159-.012.238a7.538 7.538 0 0 1-1.816.551c.07-.391.108-.762.104-1.111a8.24 8.24 0 0 0-.042-.736zM10.527 9.209c-.108 0-.215-.006-.321-.016a11.346 11.346 0 0 1-.719-2.151c.333.033.684.098 1.04.1.086.002.699.012.925 0-.194.633-.483 1.309-.862 2.063-.022 0-.041.004-.063.004zM10.531 6.449c-.406-.005-.796-.063-1.172-.106a7.042 7.042 0 0 1-.072-1.1c.002-.245.017-.522.04-.751.384.043.784.051 1.2.051.086 0-.085 0 0 0 .312 0 .879.023 1.2 0 .025.217-.002.442 0 .672.004.368-.011.772-.101 1.198a14.85 14.85 0 0 1-1.095.036zM6.861 5.542c0-.521.111-1.05.308-1.5.437.129.917.283 1.458.375-.025.26-.038.445-.041.725-.004.34 0 .768.041 1.121A12.232 12.232 0 0 1 6.875 5.8c-.007-.086-.014-.171-.014-.258zM7.012 6.642a12.93 12.93 0 0 0 1.75.4c.131.667.346 1.295.626 1.983-1.142-.373-2.034-1.226-2.376-2.383zM11.41 9.098a13 13 0 0 0 .789-2.055c.569-.072 1.176-.15 1.84-.4-.369 1.233-1.371 2.143-2.629 2.455zM13.58 3.443a7.142 7.142 0 0 1-1.255.3 7.348 7.348 0 0 0-.589-1.7 3.675 3.675 0 0 1 1.844 1.4zM10.527 1.942c.106 0 .21-.008.313 0 .302.522.608 1.089.786 1.9-.367.025-.729.004-1.095 0-.386-.004-.744-.059-1.104-.1a6.72 6.72 0 0 1 .6-1.8c.155-.019.34 0 .5 0zM9.188 2.1a8.568 8.568 0 0 0-.471 1.612c-.443-.078-.85-.175-1.223-.28A3.706 3.706 0 0 1 9.188 2.1z"/></g></svg>