<svg xmlns="http://www.w3.org/2000/svg" viewBox="0 0 16 16"><style>.st0{opacity:0}.st0,.st1{fill:#f6f6f6}.st2{fill:#424242}.st3{fill:#f0eff1}</style><g id="outline"><path class="st0" d="M0 0h16v16H0z"/><path class="st1" d="M16 2.988L13.76 1H7.172L5 3.172v3.656L6.172 8H0v6h1v1h4v-1h6v1h4v-1h1V8h-1.172L16 6.828z"/><path class="st1" d="M16 2.988L13.76 1H7.172L5 3.172v3.656L6.172 8H0v6h1v1h4v-1h6v1h4v-1h1V8h-1.172L16 6.828z"/></g><g id="icon_x5F_bg"><path class="st2" d="M13.38 2H7.586L6 3.586v2.828L7.586 8h1.423l.018 2h1.548l1.257-1.981 1.589-.025L15 6.414V3.438L13.38 2zM14 6l-1 1-1.724.027-1.258 1.984L10 7H8L7 6V4l1-1h5l1 .888V6z"/><path class="st2" d="M12.386 9.01L11.124 11H8.035l-.017-2H1v4h1v1h2v-1h8v1h2v-1h1V9h-1.981l-.633.01zM3 11H2v-1h1v1z"/></g><g id="icon_x5F_fg"><path class="st3" d="M2 10h1v1H2zM8 3L7 4v2l1 1h2l.018 2.011 1.258-1.984L13 7l1-1V3.888L13 3z"/></g></svg>