<svg xmlns="http://www.w3.org/2000/svg" viewBox="0 0 16 16"><style>.icon-canvas-transparent{opacity:0;fill:#f6f6f6}.icon-vs-out{fill:#f6f6f6}.icon-vs-bg{fill:#424242}.icon-vs-fg{fill:#f0eff1}</style><path class="icon-canvas-transparent" d="M16 16H0V0h16v16z" id="canvas"/><path class="icon-vs-out" d="M15 0H6v6H2v3h1v.723l-1.949 3.248a1.977 1.977 0 0 0-.025 2.015A1.977 1.977 0 0 0 2.766 16h5.467c.731 0 1.381-.379 1.741-1.015A1.973 1.973 0 0 0 9.96 13H15V0z" id="outline"/><path class="icon-vs-bg" d="M7 1v5h2v3H8v.734L9.295 12H14V1H7zm6 10h-1v-1h1v1zm0-6H8V4h5v1zm0-2H8V2h5v1zm-6 7V8h1V7H3v1h1v2l-2.091 3.486A1 1 0 0 0 2.766 15h5.468a1 1 0 0 0 .858-1.514L7 10zm-2.968 2L5 10.303V8h1v2.303L6.968 12H4.032z" id="iconBg"/><path class="icon-vs-fg" d="M8 2h5v1H8V2zm0 3h5V4H8v1zm4 6h1v-1h-1v1zm-7-.697L4.032 12h2.936L6 10.303V8H5v2.303z" id="iconFg"/></svg>