<svg xmlns="http://www.w3.org/2000/svg" viewBox="0 0 16 16"><style>.icon-canvas-transparent{opacity:0;fill:#f6f6f6}.icon-vs-out{fill:#f6f6f6}.icon-vs-bg{fill:#424242}.icon-vs-fg{fill:#f0eff1}</style><path class="icon-canvas-transparent" d="M16 0v16H0V0h16z" id="canvas"/><path class="icon-vs-out" d="M16 11v5H9V11h.052c.151-1.139.622-2.982 3.543-2.982 2.767 0 3.225 1.799 3.351 2.982H16z" id="outline"/><path class="icon-vs-bg" d="M9.991 11.576c.132-1.137.183-2.559 2.604-2.559 2.251 0 2.31 1.427 2.396 2.559h-.976c-.014-.754-.157-1.558-1.419-1.558-1.255 0-1.532.82-1.592 1.558H9.991zM15 12v3h-5v-3h5zm-2 1h-1v1h1v-1z" id="iconBg"/><g id="iconFg"><path class="icon-vs-fg" d="M13 13v1h-1v-1h1z"/></g></svg>