<svg xmlns="http://www.w3.org/2000/svg" viewBox="0 0 16 16"><style>.st0{opacity:0}.st0,.st1{fill:#f6f6f6}.st2{fill:#424242}.st3{fill:#f0eff1}</style><g id="outline"><path class="st0" d="M0 0h16v16H0z"/><path class="st1" d="M3.5 7C1.664 7 .22 8.31 0 10v6h7v-6c-.207-1.695-1.65-3-3.5-3z"/><path class="st1" d="M11.882 0L10 3.764 8.118 0H3.323L8 8.653V14h4V8.653l4-7.401V0z"/></g><g id="icon_x5F_bg"><path class="st2" d="M1 15h5v-4H1v4zm2-3h1v2H3v-2zM3.5 8c-1.373 0-2.352.854-2.5 2h1c.141-.527.654-1 1.5-1 .82 0 1.353.471 1.5 1h1c-.14-1.146-1.127-2-2.5-2zM12.5 1L10 6 7.5 1H5l4 7.4V13h2V8.4L15 1z"/></g><path class="st3" d="M3 12h1v2H3z" id="icon_x5F_fg"/></svg>