<svg xmlns="http://www.w3.org/2000/svg" viewBox="0 0 16 16"><style>.st0{opacity:0}.st0,.st1{fill:#f6f6f6}.st2{fill:#424242}.st3{fill:#f0eff1}</style><g id="outline"><path class="st0" d="M0 0h16v16H0z"/><path class="st1" d="M16 0H4v4h6.191l-3.97 4.235C5.583 7.482 4.619 7 3.5 7 1.664 7 .22 8.31 0 10v6h7v-2h9v-4H9.809L16 3.396V0z"/></g><g id="icon_x5F_bg"><path class="st2" d="M15 1H5v2h7.5L6.757 9.126c.114.277.205.565.243.874v3h8v-2H7.5L15 3V1zM1 15h5v-4H1v4zm2-3h1v2H3v-2zM3.5 8c-1.373 0-2.352.854-2.5 2h1c.141-.527.654-1 1.5-1 .82 0 1.353.471 1.5 1h1c-.14-1.146-1.127-2-2.5-2z"/></g><path class="st3" d="M3 12h1v2H3z" id="icon_x5F_fg"/></svg>