<svg xmlns="http://www.w3.org/2000/svg" viewBox="0 0 16 16"><style>.icon-canvas-transparent{opacity:0;fill:#f6f6f6}.icon-vs-out{fill:#f6f6f6}.icon-vs-bg{fill:#424242}.icon-vs-fg{fill:#f0eff1}</style><path class="icon-canvas-transparent" d="M16 16H0V0h16v16z" id="canvas"/><path class="icon-vs-out" d="M8 16V9h1c0-1.654 1.346-3 3-3s3 1.346 3 3h1v7H8z" id="outline"/><path class="icon-vs-fg" d="M11 9c0-.551.449-1 1-1s1 .449 1 1v1h-2V9zm3 5h-4v-3h4v3z" id="iconFg"/><path class="icon-vs-bg" d="M14 10V9c0-1.103-.898-2-2-2-1.103 0-2 .897-2 2v1H9v5h6v-5h-1zm-3-1c0-.551.449-1 1-1s1 .449 1 1v1h-2V9zm3 5h-4v-3h4v3z" id="iconBg"/></svg>