<svg xmlns="http://www.w3.org/2000/svg" viewBox="0 0 16 16"><style>.icon-canvas-transparent{opacity:0;fill:#f6f6f6}.icon-vs-out{fill:#f6f6f6}.icon-vs-fg{fill:#f0eff1}.icon-vs-blue{fill:#1ba1e2}</style><path class="icon-canvas-transparent" d="M16 16H0V0h16v16z" id="canvas"/><path class="icon-vs-out" d="M5 12V6h.5c0-1.654 1.346-3 3-3s3 1.346 3 3h.5v6H5z" id="outline"/><path class="icon-vs-blue" d="M10.5 7V6c0-1.103-.897-2-2-2s-2 .897-2 2v1H6v4h5V7h-.5zM9 10H8V8h1v2zm.5-3h-2V6c0-.551.449-1 1-1s1 .449 1 1v1z" id="iconBg"/><path class="icon-vs-fg" d="M9 10H8V8h1v2z" id="iconFg"/></svg>