<svg xmlns="http://www.w3.org/2000/svg" viewBox="0 0 16 16"><style>.st0{opacity:0}.st0,.st1{fill:#f6f6f6}.st2{fill:#424242}.st3{fill:#f0eff1}</style><g id="outline"><path class="st0" d="M0 0h16v16H0z"/><path class="st1" d="M16 0h-4.055L10 3.113 8.055 0h-4.86L7.57 7 6.528 8.667C5.923 7.671 4.82 7 3.5 7 1.664 7 .22 8.31 0 10v6h7v-2h1.055L10 10.887 11.945 14H16v-1.287L12.43 7 16 1.288V0z"/></g><g id="icon_x5F_bg"><path class="st2" d="M15 1h-2.5L10 5 7.5 1H5l3.75 6-1.782 2.852c.008.05.026.097.032.148v3h.5L10 9l2.5 4H15l-3.75-6L15 1zM3.5 8c-1.373 0-2.352.854-2.5 2h1c.141-.527.654-1 1.5-1 .82 0 1.353.471 1.5 1h1c-.14-1.146-1.127-2-2.5-2zM1 15h5v-4H1v4zm2-3h1v2H3v-2z"/></g><path class="st3" d="M4 14H3v-2h1v2z" id="icon_x5F_fg"/></svg>