<svg xmlns="http://www.w3.org/2000/svg" viewBox="0 0 16 16"><style>.icon-canvas-transparent{opacity:0;fill:#f6f6f6}.icon-vs-out{fill:#f6f6f6}.icon-vs-bg{fill:#424242}.icon-vs-fg{fill:#f0eff1}</style><path class="icon-canvas-transparent" d="M16 16H0V0h16v16z" id="canvas"/><path class="icon-vs-out" d="M4 13V6h1c0-1.654 1.346-3 3-3s3 1.346 3 3h1v7H4z" id="outline"/><path class="icon-vs-fg" d="M7 6c0-.551.449-1 1-1s1 .449 1 1v1H7V6zm3 5H6V8h4v3z" id="iconFg"/><path class="icon-vs-bg" d="M10 7V6c0-1.103-.897-2-2-2s-2 .897-2 2v1H5v5h6V7h-1zM7 6c0-.551.449-1 1-1s1 .449 1 1v1H7V6zm3 5H6V8h4v3z" id="iconBg"/></svg>