<svg xmlns="http://www.w3.org/2000/svg" viewBox="0 0 16 16"><style>.st0{opacity:0}.st0,.st1{fill:#f6f6f6}.st2{fill:#424242}.st3{fill:#f0eff1}</style><g id="outline"><path class="st0" d="M0 0h16v16H0z"/><path class="st1" d="M15 0H1v8.018A3.367 3.367 0 0 0 0 10v6h7v-3h8V0z"/></g><g id="icon_x5F_bg"><path class="st2" d="M11 9h-1V8H9V7h1V6h1v1h1v1h-1zM7 9h1v1H7zM9 5h1v1H9zM7 8h1V7H7V6H6v1H5v.328c.375.168.71.395.996.672H6v.004c.293.287.531.623.703.996H7V8zM5 5h1v1H5zM7 5h1v1H7zM11 5h1v1h-1zM11 9h1v1h-1z"/><path class="st2" d="M14 1H2v6.332a3.606 3.606 0 0 1 1-.287V4h10v7H7v1h7V1z"/><path class="st2" d="M9 9h1v1H9zM5.996 8l.003.004L6 8zM3.5 9c.82 0 1.353.471 1.5 1h1c-.14-1.146-1.127-2-2.5-2s-2.352.854-2.5 2h1c.141-.527.654-1 1.5-1zM1 15h5v-4H1v4zm2-3h1v2H3v-2z"/></g><path class="st3" d="M5 7.328V7h1V6H5V5h1v1h1V5h1v1H7v1h1v1H7v1h1v1H7v1h6V4H3v3.045c.164-.022.328-.045.5-.045.545 0 1.047.125 1.5.328zM9 9h1V8H9V7h1V6H9V5h1v1h1V5h1v1h-1v1h1v1h-1v1h1v1h-1V9h-1v1H9V9zM7 9v1a3.326 3.326 0 0 0-.297-1H7zm-3 5H3v-2h1v2z" id="icon_x5F_fg"/></svg>