<svg xmlns="http://www.w3.org/2000/svg" viewBox="0 0 16 16"><style>.st0{opacity:0}.st0,.st1{fill:#f6f6f6}.st2{fill:#424242}.st3{fill:#f0eff1}</style><g id="outline"><path class="st0" d="M0 0h16v16H0z"/><path class="st1" d="M0 2h16v12H0z"/></g><path class="st2" d="M9 3v5H7V3H1v10h6V9h2v4h6V3H9zm-3 9H5v-1h1v1zm0-5H2V6h4v1zm0-2H2V4h4v1zm8 7h-1v-1h1v1zm0-5h-4V6h4v1zm0-2h-4V4h4v1z" id="icon_x5F_bg"/><g id="icon_x5F_fg"><path class="st3" d="M6 5H2V4h4v1zm0 1H2v1h4V6zm0 5H5v1h1v-1zM14 5h-4V4h4v1zm0 1h-4v1h4V6zm0 5h-1v1h1v-1z"/></g></svg>