<svg xmlns="http://www.w3.org/2000/svg" viewBox="0 0 16 16"><style>.st0{opacity:0}.st0,.st1{fill:#f6f6f6}.st2{fill:#424242}.st3{fill:#f0eff1}</style><g id="outline"><path class="st0" d="M0 0h16v16H0z"/><path class="st1" d="M10.5 0C7.314 0 5 2.103 5 5v2H3.5L0 10.5v2L3.5 16H16V5c0-2.897-2.312-5-5.5-5z"/></g><path class="st2" d="M6 7.5l3 3v2L6.5 15H15V7H6v.5zM10 9h1v4h-1V9zm5-4v1h-2V5c0-1-.5-2-2.5-2S8 4 8 5v1H6V5c0-2.575 2.138-4 4.5-4C12.863 1 15 2.425 15 5z" id="icon_x5F_bg"/><path class="st3" d="M11 13h-1V9h1v4z" id="icon_x5F_fg"/><path class="st2" d="M5 8H4l-3 3v1l3 3h1l3-3v-1L5 8zm0 6H4v-1h1v1zm0-2H4V9h1v3z" id="not_x5F_bg"/><path class="st3" d="M5 12H4V9h1v3zm0 1H4v1h1v-1z" id="not_x5F_fg"/></svg>