<svg xmlns="http://www.w3.org/2000/svg" viewBox="0 0 16 16"><style>.st0{opacity:0;fill:#fff}.st1{fill:#f6f6f6}.st2{fill:#424242}</style><g id="outline"><path class="st0" d="M0 0h16v16H0z"/><path class="st1" d="M16 0H1v8.016A3.401 3.401 0 0 0 0 10v6h7v-2h9V0z"/></g><g id="icon_x5F_bg"><path class="st2" d="M12 4h1v6h-1z"/><path class="st2" d="M15 1H2v6.332a3.597 3.597 0 0 1 1-.288V2h11v10H7v1h8V1z"/><path class="st2" d="M2 10H1c.149-1.146 1.128-2 2.5-2 1.373 0 2.36.854 2.5 2H5c-.147-.529-.68-1-1.5-1-.845 0-1.36.473-1.5 1zM1 11v4h5v-4H1zm3 3H3v-2h1v2z"/></g><g id="not_x5F_fg"><path class="st2" d="M7.668 6.699a1.058 1.058 0 0 0-.424-.294 1.623 1.623 0 0 0-.608-.102c-.119 0-.241.012-.368.033a3.716 3.716 0 0 0-.363.085 2.92 2.92 0 0 0-.31.11 1.405 1.405 0 0 0-.212.113v.768a1.93 1.93 0 0 1 .544-.312c.204-.079.413-.118.627-.118.213 0 .377.063.494.186.116.125.174.324.174.6l-1.03.154a1.637 1.637 0 0 0-.526.152 1.09 1.09 0 0 0-.563.66 1.595 1.595 0 0 0 .009.924.945.945 0 0 0 .568.595c.14.057.298.084.478.084.23 0 .431-.053.604-.16a1.3 1.3 0 0 0 .439-.463h.014v.529H8V7.807c0-.239-.027-.452-.083-.637a1.286 1.286 0 0 0-.249-.471zm-.446 2.02c0 .131-.021.252-.059.365a.897.897 0 0 1-.165.295.757.757 0 0 1-.593.271.682.682 0 0 1-.242-.041.489.489 0 0 1-.301-.285.566.566 0 0 1-.042-.219.96.96 0 0 1 .027-.232.424.424 0 0 1 .098-.18.573.573 0 0 1 .196-.133c.083-.033.189-.06.32-.078l.761-.109v.346zM9.21 6.994h-.013V4.338H8.5v5.887h.697V9.74h.013c.044.082.095.158.151.229.057.07.119.133.191.185a.835.835 0 0 0 .238.121.932.932 0 0 0 .292.043c.231 0 .434-.053.609-.16.176-.106.323-.254.443-.443a2.18 2.18 0 0 0 .273-.672c.061-.26.092-.539.092-.844a3.54 3.54 0 0 0-.074-.734 2.047 2.047 0 0 0-.228-.611 1.221 1.221 0 0 0-.394-.416 1.03 1.03 0 0 0-.573-.154 1 1 0 0 0-.614.199 1.153 1.153 0 0 0-.225.222 2.022 2.022 0 0 0-.181.289zm.467.082c.1-.055.21-.082.331-.082a.646.646 0 0 1 .571.32c.066.105.116.23.15.377.034.146.052.311.052.494 0 .234-.02.441-.06.621-.039.18-.095.328-.168.445a.747.747 0 0 1-.264.266.677.677 0 0 1-.651.016.769.769 0 0 1-.236-.207.983.983 0 0 1-.154-.307 1.255 1.255 0 0 1-.057-.38v-.506c0-.17.021-.326.061-.465.04-.139.096-.258.168-.36a.777.777 0 0 1 .257-.232z"/></g></svg>