<svg xmlns="http://www.w3.org/2000/svg" viewBox="0 0 16 16"><style>.st0{opacity:0}.st0,.st1{fill:#f6f6f6}.st2{fill:#424242}.st3{fill:#f0eff1}</style><g id="outline"><path class="st0" d="M0 0h16v16H0z"/><path class="st1" d="M1 0v6.383C.385 7.086 0 7.995 0 9c0 2.205 1.794 4 4 4 .348 0 .693-.047 1.031-.141l2.554 2.555a2 2 0 0 0 2.829-2.828l-2.555-2.555C7.953 9.693 8 9.348 8 9h7V8h1V0H1z"/></g><g id="icon_x5F_bg"><path class="st2" d="M6 3h1v2H6zM4 3h1v2H4z"/><path class="st2" d="M2 1v4.557a3.984 3.984 0 0 1 1-.415V2h11v4h-1v1h-1V6h-1v1h-1V6H7v.383c.402.46.7 1.008.858 1.617H8V7h1v1h5V7h1V1H2z"/><path class="st2" d="M10 3h1v2h-1zM12 3h1v2h-1zM8 3h1v2H8zM9.707 13.293L6.7 10.286C6.887 9.895 7 9.463 7 9a3 3 0 0 0-3-3 2.95 2.95 0 0 0-.86.141L5 8l-2 2-1.86-1.859A2.97 2.97 0 0 0 1 9a3 3 0 0 0 3 3c.462 0 .895-.113 1.286-.3l3.006 3.007a1.001 1.001 0 0 0 1.415-1.414z"/></g><path class="st3" d="M3 2v3.142A3.978 3.978 0 0 1 4 5V3h1v2H4c1.2 0 2.266.542 3 1.383V6h3v1h1V6h1v1h1V6h1V2H3zm4 3H6V3h1v2zm2 0H8V3h1v2zm2 0h-1V3h1v2zm2 0h-1V3h1v2z" id="icon_x5F_fg"/></svg>