<svg xmlns="http://www.w3.org/2000/svg" viewBox="0 0 16 16"><defs><style>.icon-canvas-transparent,.icon-vs-out{fill:#f6f6f6}.icon-canvas-transparent{opacity:0}.icon-vs-fg{fill:#f0eff1}.icon-vs-bg{fill:#424242}</style></defs><title>LoginWindowsAuthentication_16x</title><path class="icon-canvas-transparent" d="M16 16H0V0h16z" id="canvas"/><path class="icon-vs-out" d="M16 2v14H0v-1a3.621 3.621 0 0 1 .9-2.4 3.01 3.01 0 0 1-.289-1.293A3.041 3.041 0 0 1 4.4 8.361 3.024 3.024 0 0 1 6 4.905V2a2 2 0 0 1 2-2h6a2 2 0 0 1 2 2z" id="outline"/><path class="icon-vs-fg" d="M8 2v2.652a3.041 3.041 0 0 1 2.385 2.964 3 3 0 0 1-.285 1.292A3.627 3.627 0 0 1 10.756 10H13v1h-2.028c.009.1.028.2.028.307V12h2v1H9v-1H8v2h6V2zm5 2H9V3h4z" id="iconFg"/><path class="icon-vs-bg" d="M5.074 12.765a2.03 2.03 0 0 0 .619-1.458 1.654 1.654 0 1 1 3.308 0h1a2.648 2.648 0 0 0-1.235-2.234 2.038 2.038 0 1 0-2.84 0 2.663 2.663 0 0 0-.814.814 2.035 2.035 0 1 0-2.878 2.878A2.649 2.649 0 0 0 1 15h1a1.654 1.654 0 1 1 3.308 0h1a2.649 2.649 0 0 0-1.234-2.235zm2.272-6.188a1.038 1.038 0 1 1-1.038 1.038 1.04 1.04 0 0 1 1.038-1.038zm-3.692 5.769a1.038 1.038 0 1 1 1.039-1.039 1.04 1.04 0 0 1-1.039 1.039zM15 2v13H7.308A3.614 3.614 0 0 0 7 13.562V12h1v2h6V2H8v2.652a3.023 3.023 0 0 0-.654-.075A2.976 2.976 0 0 0 7 4.612V2a1 1 0 0 1 1-1h6a1 1 0 0 1 1 1zm-2 2H9V3h4zm0 7h-2.028a3.624 3.624 0 0 0-.216-1H13zm-4 1h4v1H9z" id="iconBg"/></svg>