<svg id="Layer_1" xmlns="http://www.w3.org/2000/svg" viewBox="0 0 16 16"><style>.st0{opacity:0}.st0,.st1{fill:#f6f6f6}.st2{fill:#424242}.st3{fill:#f0eff1}</style><path class="st0" d="M0 0h16v16H0z"/><path class="st1" d="M0 0v15h9.586l1 1h4.828L14 14.586V14h2v-4h-2v-.586L15.414 8H14V0z"/><path class="st2" d="M5 4v2h5V4z"/><path class="st2" d="M3 13V2h9v6h1V1H1v1h1v1H1v1h1v1H1v1h1v1H1v1h1v1H1v1h1v1H1v1h1v1H1v1h7.586l-1-1z"/><path class="st2" d="M15 13h-4l2 2h-2l-3-3 3-3h2l-2 2h4z"/><path class="st3" d="M6.586 12l4-4H12V2H3v11h4.586l-1-1zM5 5V4h5v2H5V5z"/></svg>