<svg xmlns="http://www.w3.org/2000/svg" viewBox="0 0 16 16"><defs><style>.icon-canvas-transparent,.icon-vs-out{fill:#f6f6f6}.icon-canvas-transparent{opacity:0}.icon-vs-bg{fill:#424242}</style></defs><title>LookupGroup_16x</title><path class="icon-canvas-transparent" d="M16 0v16H0V0z" id="canvas"/><path class="icon-vs-out" d="M16 2v14H4V8.121l-1.439 1.44A1.5 1.5 0 0 1 .439 7.439l1.881-1.88A3.94 3.94 0 0 1 2 4a3.987 3.987 0 0 1 7.444-2z" id="outline"/><path class="icon-vs-bg" d="M10 10a2 2 0 0 1-2-2 1.979 1.979 0 0 1 .106-.614 4.009 4.009 0 0 0 1.28-1.28A1.979 1.979 0 0 1 10 6a2 2 0 0 1 0 4zm-3 3h6a3 3 0 0 0-6 0zM9.858 3A3.954 3.954 0 0 1 10 4h4v10H6V8a3.925 3.925 0 0 1-1-.145V15h10V3zM6 7a2.975 2.975 0 0 1-1.733-.56L1.854 8.854a.5.5 0 0 1-.707-.707L3.56 5.733A2.994 2.994 0 1 1 6 7zm0-1a2 2 0 1 0-2-2 2 2 0 0 0 2 2z" id="iconBg"/></svg>