<svg xmlns="http://www.w3.org/2000/svg" viewBox="0 0 16 16"><defs><style>.icon-canvas-transparent,.icon-vs-out{fill:#f6f6f6}.icon-canvas-transparent{opacity:0}.icon-vs-bg{fill:#424242}</style></defs><title>LookupGroupMembers_16x</title><path class="icon-canvas-transparent" d="M16 0v16H0V0z" id="canvas"/><path class="icon-vs-out" d="M16 13a4 4 0 0 0-1.6-3.2 3 3 0 1 0-5.39-2.027 3.014 3.014 0 0 0-.745-.482A4 4 0 1 0 2 4a3.94 3.94 0 0 0 .32 1.559L.439 7.439a1.5 1.5 0 1 0 2.122 2.122l1.88-1.881a3.945 3.945 0 0 0 .493.155A2.984 2.984 0 0 0 4.6 11.8 4 4 0 0 0 3 15v1h8v-1a3.9 3.9 0 0 0-.13-1H16z" id="outline"/><path class="icon-vs-bg" d="M6 7a3.018 3.018 0 1 0-2.44-1.267L1.146 8.146a.5.5 0 1 0 .707.707L4.267 6.44A2.975 2.975 0 0 0 6 7zm0-5a2 2 0 1 1-2 2 2 2 0 0 1 2-2zm1 10a2 2 0 1 1 2-2 2 2 0 0 1-2 2zm2.221 1A2.978 2.978 0 0 1 10 15H4a2.99 2.99 0 0 1 5.021-2.2A2.993 2.993 0 0 1 15 13zM12 10a2 2 0 1 1 2-2 2 2 0 0 1-2 2z" id="iconBg"/></svg>