<svg xmlns="http://www.w3.org/2000/svg" viewBox="0 0 16 16"><defs><style>.icon-canvas-transparent,.icon-vs-out{fill:#f6f6f6;}.icon-canvas-transparent{opacity:0;}.icon-vs-bg{fill:#424242;}</style></defs><title>LookupUserProperty_16x</title><g id="canvas"><path class="icon-canvas-transparent" d="M16,0V16H0V0Z"/></g><g id="outline"><path class="icon-vs-out" d="M16,16l-.121-1.109a5.639,5.639,0,0,0-2.052-3.749A4.439,4.439,0,0,0,10.3,4c-.105,0-.2.024-.308.031,0-.011,0-.02,0-.031A4,4,0,0,0,2,4a3.94,3.94,0,0,0,.32,1.559L.439,7.439a1.5,1.5,0,0,0,0,2.121,1.487,1.487,0,0,0,.679.384,2.911,2.911,0,0,0,1.037,3.146v1.139a1.768,1.768,0,0,0,2.468,1.626L4.608,16Z"/></g><g id="iconBg"><path class="icon-vs-bg" d="M6,7A3.018,3.018,0,1,0,3.56,5.733L1.146,8.146a.5.5,0,1,0,.707.707L4.267,6.44A2.975,2.975,0,0,0,6,7ZM6,2A2,2,0,1,1,4,4,2,2,0,0,1,6,2Zm8.885,13H13.871a3.6,3.6,0,0,0-7.134,0H5.724A4.618,4.618,0,0,1,8.4,11.3,3.332,3.332,0,0,1,6.92,7.883a3.967,3.967,0,0,0,1.2-.5,2.413,2.413,0,0,0-.253,1.061A2.449,2.449,0,1,0,9.332,6.2a3.98,3.98,0,0,0,.511-1.158A3.391,3.391,0,0,1,10.3,5a3.439,3.439,0,0,1,1.9,6.3A4.618,4.618,0,0,1,14.885,15ZM5.852,10.763A1.923,1.923,0,0,1,4.7,12.527v1.7a.77.77,0,1,1-1.541,0v-1.7A1.923,1.923,0,0,1,3.156,9v2.148H4.7V9A1.923,1.923,0,0,1,5.852,10.763Z"/></g></svg>