<svg xmlns="http://www.w3.org/2000/svg" viewBox="0 0 16 16"><defs><style>.icon-canvas-transparent,.icon-vs-out{fill:#f6f6f6}.icon-canvas-transparent{opacity:0}.icon-vs-bg{fill:#424242}</style></defs><title>LookupPrincipalId_16x</title><path class="icon-canvas-transparent" d="M16 0v16H0V0z" id="canvas"/><path class="icon-vs-out" d="M16 15v1H8v-.684a2.926 2.926 0 0 1-3-.585V15H0V0h12v7a3 3 0 0 1 2.4 4.8A4 4 0 0 1 16 15z" id="outline"/><path class="icon-vs-bg" d="M6 7a3 3 0 0 1 3 3h-.348a2.934 2.934 0 0 0-3.277 0H3a3 3 0 0 1 3-3zM2 2h8v5.78a2.986 2.986 0 0 1 1-.6V1H1v10h1zm6 3a2 2 0 1 0-2 2 2 2 0 0 0 2-2zm4 7a2.98 2.98 0 0 0-2.031.8 2.979 2.979 0 0 1-.938 1.89A2.938 2.938 0 0 0 9 15h6a3 3 0 0 0-3-3zm2-2a2 2 0 1 0-2 2 2 2 0 0 0 2-2zm-5 2.5a2 2 0 0 1-3.929.5H4v1H3v-1H2v1H1v-2h4.071A2 2 0 0 1 9 12.5zm-1 0a1 1 0 1 0-1 1 1 1 0 0 0 1-1z" id="iconBg"/></svg>