<svg xmlns="http://www.w3.org/2000/svg" viewBox="0 0 16 16"><style>.st0{opacity:0}.st0,.st1{fill:#f6f6f6}.st2{fill:#424242}.st3{fill:#f0eff1}</style><g id="outline"><path class="st0" d="M0 0h16v16H0z"/><path class="st1" d="M8.649 5C8.867 4.543 9 4.039 9 3.5 9 1.57 7.43 0 5.5 0S2 1.57 2 3.5c0 .322.046.64.136.949L.293 6.293 0 6.63v-.044V16h16V5H8.649z"/></g><g id="icon_x5F_bg"><path class="st2" d="M4 10h8v1H4zM8 3.5A2.5 2.5 0 0 1 5.5 6c-.432 0-.832-.12-1.187-.312L2 8 1 7l2.313-2.313A2.46 2.46 0 0 1 3 3.5a2.5 2.5 0 1 1 5 0zm-4 0a1.5 1.5 0 1 0 3.001-.001A1.5 1.5 0 0 0 4 3.5z"/><path class="st2" d="M9 6H7.942a3.482 3.482 0 0 1-2.27.983V7H14v7H2V9.414l-1-1V15h14V6H9z"/></g><g id="icon_x5F_fg"><circle class="st3" cx="5.5" cy="3.5" r="1.5"/><path class="st3" d="M4.414 7L2 9.414V14h12V7H4.414zM12 11H4v-1h8v1z"/></g></svg>