<svg xmlns="http://www.w3.org/2000/svg" viewBox="0 0 16 16"><style>.icon-canvas-transparent{opacity:0;fill:#f6f6f6}.icon-vs-out{fill:#f6f6f6}.icon-vs-bg{fill:#424242}</style><path class="icon-canvas-transparent" d="M16 0v16H0V0h16z" id="canvas"/><path class="icon-vs-out" d="M16 15v1H8v-1c0-.73.202-1.411.544-2H6v1c0 1.103-.896 2-2 2s-2-.897-2-2v-1H0V0h12v7c1.654 0 3 1.346 3 3 0 .675-.224 1.299-.602 1.801A3.995 3.995 0 0 1 16 15z" id="outline"/><g id="iconBg"><path class="icon-vs-bg" d="M6 3a2 2 0 0 0-2 2c0 .378.111.728.294 1.03.81.069 1.541.404 2.1.931A2 2 0 0 0 6 3zM2 6.635V2h8v5.78c.289-.26.626-.463 1-.596V1H1v6.726c.255-.43.592-.804 1-1.091zM9 10a2.993 2.993 0 0 0-2.507-2.95A3.486 3.486 0 0 1 7.5 9.5c0 .171-.037.334-.061.5H9zm3 2a3 3 0 0 0-3 3h6a3 3 0 0 0-3-3zm2-2a2 2 0 1 0-3.999-.001A2 2 0 0 0 14 10zM5 7.211V10H3V7.211c-.883.387-1.5 1.265-1.5 2.289s.618 1.902 1.5 2.289V14a1 1 0 1 0 2 0v-2.211a2.497 2.497 0 0 0 0-4.578z"/></g></svg>