<svg xmlns="http://www.w3.org/2000/svg" viewBox="0 0 16 16"><defs><style>.icon-canvas-transparent,.icon-vs-out{fill:#f6f6f6;}.icon-canvas-transparent{opacity:0;}.icon-vs-bg{fill:#424242;}</style></defs><title>LookupUser_16x</title><g id="canvas"><path class="icon-canvas-transparent" d="M16,0V16H0V0Z"/></g><g id="outline"><path class="icon-vs-out" d="M6.781,11.142a4.426,4.426,0,0,1-.918-2.7,4.343,4.343,0,0,1,.046-.451A3.935,3.935,0,0,1,4.441,7.68L2.561,9.561A1.5,1.5,0,1,1,.439,7.439L2.32,5.559A3.94,3.94,0,0,1,2,4a4,4,0,0,1,8,0c0,.011,0,.021,0,.031.1-.007.2-.031.308-.031a4.439,4.439,0,0,1,3.522,7.142,5.639,5.639,0,0,1,2.052,3.749L16,16H4.608l.122-1.109A5.641,5.641,0,0,1,6.781,11.142Z"/></g><g id="iconBg"><path class="icon-vs-bg" d="M14.885,15H13.871a3.6,3.6,0,0,0-7.134,0H5.724A4.618,4.618,0,0,1,8.4,11.3,3.332,3.332,0,0,1,6.92,7.883a3.967,3.967,0,0,0,1.2-.5,2.413,2.413,0,0,0-.253,1.061A2.449,2.449,0,1,0,9.332,6.2a3.979,3.979,0,0,0,.511-1.158A3.391,3.391,0,0,1,10.3,5a3.439,3.439,0,0,1,1.9,6.3A4.618,4.618,0,0,1,14.885,15ZM6,7a2.975,2.975,0,0,1-1.733-.56L1.854,8.854a.5.5,0,0,1-.707-.707L3.56,5.733A2.994,2.994,0,1,1,6,7ZM6,6A2,2,0,1,0,4,4,2,2,0,0,0,6,6Z"/></g></svg>