<svg xmlns="http://www.w3.org/2000/svg" viewBox="0 0 16 16"><style>.st0{opacity:0}.st0,.st1{fill:#f6f6f6}.st2{fill:#424242}.st3{fill:#f0eff1}</style><g id="outline"><path class="st0" d="M0 0h16v16H0z"/><path class="st1" d="M7.941 1a3.48 3.48 0 0 0-4.882 0H1v4.586l-1 1v.828l1 1V15h15V1H7.941z"/></g><g id="icon_x5F_bg"><path class="st2" d="M8 3.5A2.5 2.5 0 0 1 5.5 6c-.432 0-.832-.119-1.187-.312L2 8 1 7l2.313-2.313A2.462 2.462 0 0 1 3 3.5a2.5 2.5 0 1 1 5 0zm-4 0a1.5 1.5 0 1 0 3.001-.001A1.5 1.5 0 0 0 4 3.5z"/><path class="st2" d="M8.649 2c.218.457.351.961.351 1.5S8.867 4.543 8.649 5H10v8H7V6.649c-.312.149-.646.25-1 .3V13H3V8.414l-1 1V14h13V2H8.649zM14 13h-3V5h3v8z"/></g><g id="icon_x5F_fg"><path class="st3" d="M11 5h3v8h-3z"/><circle class="st3" cx="5.5" cy="3.5" r="1.5"/><path class="st3" d="M8.648 5A3.492 3.492 0 0 1 7 6.648V13h3V5H8.648zM5.5 7c-.322 0-.64-.046-.949-.137L3 8.414V13h3V6.949c-.164.025-.328.051-.5.051z"/></g></svg>