<svg xmlns="http://www.w3.org/2000/svg" viewBox="0 0 16 16"><defs><style>.icon-canvas-transparent,.icon-vs-out{fill:#f6f6f6}.icon-canvas-transparent{opacity:0}.icon-vs-bg{fill:#424242}</style></defs><title>LookupPrincipal_16x</title><path class="icon-canvas-transparent" d="M16 0v16H0V0z" id="canvas"/><path class="icon-vs-out" d="M16 15v1H8v-1a3.966 3.966 0 0 1 .544-2H0V0h12v7a3 3 0 0 1 2.4 4.8A4 4 0 0 1 16 15z" id="outline"/><path class="icon-vs-bg" d="M6 7a2 2 0 1 1 2-2 2 2 0 0 1-2 2zm-3 3h6a3 3 0 0 0-6 0zm6.6 1.8a2.993 2.993 0 0 1-.427-.8H2V2h8v5.78a2.986 2.986 0 0 1 1-.6V1H1v11h8.366c.077-.068.153-.137.234-.2zm2.4.2a3 3 0 0 0-3 3h6a3 3 0 0 0-3-3zm2-2a2 2 0 1 0-2 2 2 2 0 0 0 2-2z" id="iconBg"/></svg>