<svg xmlns="http://www.w3.org/2000/svg" viewBox="0 0 16 16"><style>.st0{opacity:0}.st0,.st1{fill:#f6f6f6}.st2{fill:#424242}.st3{fill:#f0eff1}</style><g id="outline"><path class="st0" d="M0 0h16v16H0z"/><path class="st1" d="M11 2v2h-1V2H8.649A3.495 3.495 0 0 0 5.5 0C3.57 0 2 1.57 2 3.5c0 .322.046.639.137.949L0 6.586v.828l2 2 2.551-2.551c.148.044.298.075.449.098V16h5v-2h.906v2H16V2h-5z"/></g><g id="icon_x5F_bg"><path class="st2" d="M8 3.5A2.5 2.5 0 0 1 5.5 6a2.47 2.47 0 0 1-1.187-.312L2 8 1 7l2.313-2.313A2.47 2.47 0 0 1 3 3.5a2.5 2.5 0 1 1 5 0zm-4 0a1.5 1.5 0 1 0 3.001-.001A1.5 1.5 0 0 0 4 3.5zM12 3v1h2v10h-2v1h3V3zM7 6.649a3.434 3.434 0 0 1-.922.292L6 7v8h3v-1H7V6.649z"/><path class="st2" d="M8.649 5A3.532 3.532 0 0 1 8 5.942V13h5V5H8.649z"/></g><circle class="st3" cx="5.5" cy="3.5" r="1.5" id="icon_x5F_fg"/></svg>