<svg xmlns="http://www.w3.org/2000/svg" viewBox="0 0 16 16"><style>.st0{opacity:0}.st0,.st1{fill:#f6f6f6}.st2{fill:#424242}</style><g id="outline"><path class="st0" d="M0 0h16v16H0z"/><path class="st1" d="M16 7.894c-.017-.196-.064-.359-.165-.667l-.454-1.377-1.577 1.28L16 2.736V2h-3.618l-.386.772L9.4 0H8v2.17c-2.44.537-4.382 2.293-4.969 4.582L2.57 8.519a3.493 3.493 0 0 0-.832 2.915L.585 12.586a2 2 0 0 0 2.829 2.828l1.152-1.152a3.491 3.491 0 0 0 1.684-.115l.472.224A6.455 6.455 0 0 0 9.5 15c3.584 0 6.5-2.916 6.5-6.5v-.606zm-7.487 3.94l.013-.045.027.055a.292.292 0 0 0-.04-.01z"/></g><g id="icon_x5F_bg"><path class="st2" d="M14.885 7.539l-.902.732c.003.077.017.151.017.229A4.5 4.5 0 0 1 9.5 13c-.47 0-.913-.092-1.339-.226a4.133 4.133 0 0 1-1.011.692A5.456 5.456 0 0 0 9.5 14 5.5 5.5 0 0 0 15 8.5c0-.596.061-.425-.115-.961zM9 5.857L11.308 3.5 9 1.035v1.99C6.659 3.237 4.568 4.782 4 7c.348-.16.914-.109 1.307-.128A4.503 4.503 0 0 1 9 4.051v1.806z"/><path class="st2" d="M9.25 11h1.5l4-8H13l-3 6-1-2H7.25l.05.1zM7.508 9.906l-1.973 1.973-1.414-1.414 1.972-1.972a2.497 2.497 0 0 0-3.238 3.238l-1.563 1.563a.997.997 0 0 0 0 1.414.997.997 0 0 0 1.414 0l1.563-1.563a2.499 2.499 0 0 0 3.239-3.239z"/></g></svg>