<svg xmlns="http://www.w3.org/2000/svg" viewBox="0 0 16 16"><style>.st0{opacity:0}.st0,.st1{fill:#f6f6f6}.st2{fill:#424242}.st3{fill:#f0eff1}</style><g id="outline"><path class="st0" d="M0 0h16v16H0z"/><path class="st1" d="M16 3H8.949C8.704 1.309 7.258 0 5.5 0 3.57 0 2 1.57 2 3.5c0 .322.046.639.137.949L0 6.586v.828l2 2 1-1V11H0v3h1v2h5v-2h.583c.569 1.195 1.631 2 3 2 1.93 0 3.5-1.57 3.5-3.5 0-.176-.026-.344-.052-.512L16 11.984V3z"/></g><g id="icon_x5F_bg"><path class="st2" d="M8 3.5A2.5 2.5 0 0 1 5.5 6c-.432 0-.832-.119-1.187-.312L2 8 1 7l2.313-2.313A2.462 2.462 0 0 1 3 3.5a2.5 2.5 0 1 1 5 0zm-4 0a1.5 1.5 0 1 0 3.001-.001A1.5 1.5 0 0 0 4 3.5zM9.5 10c-1.209 0-2.269.859-2.5 2H1v1h1v2h1v-2h1v2h1v-2h2c.231 1.141 1.291 2 2.5 2a2.5 2.5 0 1 0 0-5zm0 4a1.5 1.5 0 1 1 .001-3.001A1.5 1.5 0 0 1 9.5 14zM7 7h5v1H7z"/><path class="st2" d="M7.056 10H5V6.961a3.332 3.332 0 0 1-.449-.098L4 7.414V11h2.35c.178-.373.413-.714.706-1zM8.949 4a3.45 3.45 0 0 1-.3 1H14v5h-2.056c.292.286.527.627.706 1H15V4H8.949z"/></g><g id="icon_x5F_fg"><circle class="st3" cx="5.5" cy="3.5" r="1.5"/><circle class="st3" cx="9.5" cy="12.5" r="1.5"/><path class="st3" d="M8.649 5A3.495 3.495 0 0 1 5.5 7c-.168 0-.335-.014-.5-.039V10h2.056c.631-.617 1.492-1 2.444-1 .015 0 .027.004.042.004.015 0 .026-.004.041-.004.95 0 1.811.384 2.441 1H14V5H8.649zM12 8H7V7h5v1z"/></g></svg>