<svg xmlns="http://www.w3.org/2000/svg" viewBox="0 0 16 16"><style>.st0{opacity:0}.st0,.st1{fill:#f6f6f6}.st2{fill:#424242}.st3{fill:#f0eff1}</style><g id="outline"><path class="st0" d="M0 0h16v16H0z"/><path class="st1" d="M3 0h11v16H3z"/></g><path class="st2" d="M4 1v14h9V1H4zm2 13H5v-1h1v1zm3 0H8v-1h1v1zm3 0h-1v-1h1v1zm0-2H9.816c.112-.314.184-.648.184-1a3 3 0 0 0-3-3c-.772 0-1.468.3-2 .778V2h2v5h5v5z" id="icon_x5F_bg"/><path class="st3" d="M8 13h1v1H8v-1zm-3 1h1v-1H5v1zm6 0h1v-1h-1v1zM7 7V2H5v6.778A2.982 2.982 0 0 1 7 8a3 3 0 0 1 3 3c0 .352-.072.686-.184 1H12V7H7z" id="icon_x5F_fg"/></svg>