<svg xmlns="http://www.w3.org/2000/svg" viewBox="0 0 16 16"><style>.st0{opacity:0}.st0,.st1{fill:#f6f6f6}.st2{fill:#424242}.st3{fill:#f0eff1}</style><g id="outline"><path class="st0" d="M0 0h16v16H0z"/><path class="st1" d="M16 7h-1V3H6.949C6.704 1.309 5.259 0 3.5 0 1.57 0 0 1.57 0 3.5v8c0 1.533.997 3.027 2.372 3.5H7v1h5v-1h3v-3h1V7z"/></g><g id="icon_x5F_bg"><path class="st2" d="M3.507 12.993L3.501 13h-.006A1.5 1.5 0 0 1 2 11.5c0-.072.012-.141.021-.211C2.124 10.561 2.744 10 3.5 10s1.376.561 1.479 1.289L5 12h1V5h7v2h1V4H6v-.5a2.5 2.5 0 1 0-5 0v8a2.494 2.494 0 0 0 2.372 2.487V14H7v-1H3.507v-.007zM13 13h-1v1h2v-2h-1z"/><path class="st2" d="M8 8h3v3H8zM12 8h3v3h-3zM8 12h3v3H8z"/></g><g id="icon_x5F_fg"><path class="st3" d="M7 13V7h6V5H6v7H5l-.021-.711C4.876 10.561 4.256 10 3.5 10s-1.376.561-1.479 1.289c-.009.07-.021.139-.021.211A1.5 1.5 0 0 0 3.495 13h.006l.006-.007V13H7zM12 12h1v1h-1z"/></g></svg>