<svg xmlns="http://www.w3.org/2000/svg" viewBox="0 0 16 16"><style>.st0{opacity:0}.st0,.st1{fill:#f6f6f6}.st2{fill:#424242}</style><g id="outline"><path class="st0" d="M0 0h16v16H0z"/><path class="st1" d="M15.414 13L13 15.414l-4.5-4.5L7.586 10 7.5 9.914 6.586 9 6 8.414V9H3V8L2 9 0 7l1-1H0V3h1L0 2l2-2 1 1V0h3v1l1-1 2 2-1 1h1v3h-.586L9 6.586l.914.914.086.086.914.914 4.5 4.5z"/></g><path class="st2" d="M14 13l-1 1-4-4 1-1 4 4zM8 7L7 8l.5.5 1-1L8 7zm1 1L8 9l.5.5 1-1L9 8zM3.489 2.783l-1.11-1.111-.708.707L2.782 3.49c.173-.293.415-.535.707-.707zm2.022 0l1.11-1.111.708.707L6.218 3.49a1.995 1.995 0 0 0-.707-.707zM2.571 5H1V4h1.571c-.042.16-.071.326-.071.5s.029.34.071.5zM4 2.57V1h1v1.57c-.161-.041-.326-.07-.5-.07s-.339.029-.5.07zm2.218 2.94l1.111 1.111-.708.707-1.11-1.111c.292-.172.534-.414.707-.707zM8 4v1H6.429c.042-.16.071-.326.071-.5s-.029-.34-.071-.5H8zM3.489 6.217l-1.11 1.111-.708-.707L2.782 5.51c.173.293.415.535.707.707zM5 6.43V8H4V6.43c.161.041.326.07.5.07s.339-.029.5-.07z" id="icon_x5F_bg"/></svg>