<svg xmlns="http://www.w3.org/2000/svg" viewBox="0 0 16 16"><style>.icon-canvas-transparent{opacity:0;fill:#f6f6f6}.icon-vs-bg{fill:#424242}.icon-vs-fg{fill:#f0eff1}</style><path class="icon-canvas-transparent" d="M16 16H0V0h16v16z" id="canvas"/><path class="icon-vs-fg" d="M8.695 2h-1.39L8 1.583 8.695 2zM4 3.983l-3 1.8V6l3 1.441V3.983zm4 5.458l-3-1.5V3h6v4.941l-3 1.5zM6 5h4V4H6v1zm0 2h4V6H6v1zm-5 .059V14h14V7.059l-7 3.5-7-3.5zm11-3.076v3.458L15 6v-.217l-3-1.8z" id="iconFg"/><path class="icon-vs-bg" d="M12 2.817V2h-1.362L8 .417 5.362 2H4v.817l-4 2.4V15h16V5.217l-4-2.4zM8 1.583L8.695 2h-1.39L8 1.583zM5 3h6v4.941l-3 1.5-3-1.5V3zM1 5.783l3-1.8v3.458L1 6v-.217zM15 14H1V7.059l7 3.5 7-3.5V14zm0-8l-3 1.441V3.983l3 1.8V6zm-5-1H6V4h4v1zm0 2H6V6h4v1z" id="iconBg"/></svg>