<svg xmlns="http://www.w3.org/2000/svg" viewBox="0 0 16 16"><style>.icon-canvas-transparent{opacity:0;fill:#f6f6f6}.icon-vs-bg{fill:#424242}.icon-vs-fg{fill:#f0eff1}.icon-vs-out{fill:#f6f6f6}</style><path class="icon-canvas-transparent" d="M16 16H0V0h16v16z" id="canvas"/><path class="icon-vs-fg" d="M8.48 3h-.96L8 2.631 8.48 3zM12 5.708v2.244l1.621-.997L12 5.708zm-8 0L2.38 6.954 4 7.951V5.708zm4 5.879L2 7.895V14h12V7.895l-6 3.692zm0-1.174L5 8.567V4h6v4.567l-3 1.846zM6 6h4V5H6v1zm0 2h4V7H6v1z" id="iconFg"/><g id="iconBg"><path class="icon-vs-out" d="M0 16V6.262l3-2.308V2h2.54L8 .107 10.46 2H13v1.954l3 2.308V16H0z"/><path class="icon-vs-bg" d="M12 4.446V3h-1.88L8 1.369 5.88 3H4v1.446L1 6.754V15h14V6.754l-3-2.308zm1.621 2.508L12 7.952V5.708l1.621 1.246zM8 2.631L8.48 3h-.96L8 2.631zM11 4v4.567l-3 1.846-3-1.846V4h6zM4 7.951l-1.62-.997L4 5.708v2.243zM2 14V7.895l6 3.692 6-3.692V14H2zm8-8H6V5h4v1zm0 1H6v1h4V7z"/></g></svg>