<svg xmlns="http://www.w3.org/2000/svg" viewBox="0 0 16 16"><style>.st0{opacity:0}.st0,.st1{fill:#f6f6f6}.st2{fill:#424242}.st3{fill:#f0eff1}</style><g id="outline"><path class="st0" d="M0 0h16v16H0z"/><path class="st1" d="M16 0H0v14.99S-.043 16 1.069 16h7.91C9.989 16 10 14.965 10 14.965V14h6V0z"/></g><g id="icon_x5F_bg"><path class="st2" d="M1 1v4h1V4h12v8h-4v1h5V1z"/><path class="st2" d="M1 6.954v7.05S.867 15 2.004 15h5.99C8.904 15 9 14.055 9 14.055V9L6 6H2.004S1 6.069 1 6.954zM8 14H2V7h4v2h2v5z"/><path class="st2" d="M3 8h2v1H3zM3 10h4v1H3zM3 12h4v1H3z"/></g><g id="icon_x5F_fg"><path class="st3" d="M2 4v1h4.414L10 8.586V12h4V4z"/><path class="st3" d="M6 7H2v7h6V9H6V7zM3 8h2v1H3V8zm4 5H3v-1h4v1zm0-3v1H3v-1h4z"/></g></svg>