<svg xmlns="http://www.w3.org/2000/svg" viewBox="0 0 16 16"><style>.st0{opacity:0}.st0,.st1{fill:#f6f6f6}.st2{fill:#424242}.st3{fill:#f0eff1}</style><g id="outline"><path class="st0" d="M0 0h16v16H0z"/><path class="st1" d="M7.373 16c.32 0 .627-.566.627-.869V15h8V1H0v8c0-1.136.788-1.815 1.635-1.967C.788 7.185 0 7.863 0 9v5c0 1.299 1.029 2 2 2h5.373z"/></g><g id="icon_x5F_bg"><path class="st2" d="M1 2v5.262A2.09 2.09 0 0 1 1.999 7H2V5h12v8H8v1h7V2H1z"/><path class="st2" d="M5.313 8h-3.35S1 8 1 9v5c0 1 .964 1 .964 1h4C6.964 15 7 14 7 14v-3.863L5.313 8zM6 12v2H2V9h3v1h1v2z"/></g><g id="icon_x5F_fg"><path class="st3" d="M2 5v2h3.833L8 9.5V13h6V5z"/><path class="st3" d="M2 9h3v1h1v4H2z"/></g></svg>