<svg xmlns="http://www.w3.org/2000/svg" viewBox="0 0 16 16"><style>.st0{opacity:0}.st0,.st1{fill:#f6f6f6}.st2{fill:#424242}.st3{fill:#f0eff1}</style><g id="outline"><path class="st0" d="M0 0h16v16H0z"/><path class="st1" d="M15.889 10.096a2.545 2.545 0 0 0-.586-.953l-1.485-1.418c.107-.404.166-.83.166-1.233A4.498 4.498 0 0 0 9.491 2c-.257 0-.573.016-.908.069L8.618 2l-1-2H2.404L1.381 2.285 2.917 5h2.297A5.16 5.16 0 0 0 5 6.491c0 .532.109 1.035.279 1.509H0v8h8v-5.291c.469.167.966.274 1.491.274.447 0 .855-.041 1.22-.123l1.448 1.459c.114.115.726.681 1.612.681.396 0 .985-.117 1.548-.681.625-.624.832-1.434.57-2.223z"/></g><g id="icon_x5F_bg"><path class="st2" d="M14.612 11.612c-.873.873-1.746 0-1.746 0l-1.875-1.89c-.439.198-.987.261-1.5.261-.535 0-1.037-.13-1.491-.346V8H6.355A3.472 3.472 0 0 1 6 6.491c0-.511.074-1.05.272-1.487l2.346 2.361 1.747-1.746L7.991 3.27c.439-.199.989-.27 1.5-.27a3.491 3.491 0 0 1 3.492 3.491c0 .512-.123 1.073-.32 1.513l1.949 1.862s.873.873 0 1.746zM5.5 10.756L7 13.381V15H1v-1.542l1-1.333 1.2 1.6a.39.39 0 0 0 .323.15.378.378 0 0 0 .302-.189l1.675-2.93z"/><path class="st2" d="M1 9h6v2.869L5.825 9.813c-.133-.233-.518-.233-.65 0l-1.717 3.005L2.3 11.275a.377.377 0 0 0-.6 0l-.7.933V9zM6.5 0h-3l-1 2.232L3.5 4h3l1-2-1-2zM5 3a1 1 0 1 1 0-2 1 1 0 1 1 0 2z"/></g><g id="icon_x5F_fg"><path class="st3" d="M7 11.869v1.512l-1.5-2.625-1.675 2.93a.375.375 0 0 1-.302.189.394.394 0 0 1-.323-.15l-1.2-1.6-1 1.333v-1.25l.7-.933a.377.377 0 0 1 .6 0l1.158 1.543 1.717-3.005c.133-.233.518-.233.65 0L7 11.869z"/><circle class="st3" cx="5" cy="2" r="1"/></g></svg>