<svg xmlns="http://www.w3.org/2000/svg" width="16" height="16"><style type="text/css">.icon-canvas-transparent{opacity:0;fill:#F6F6F6;} .icon-vs-out{fill:#F6F6F6;} .icon-vs-bg{fill:#424242;} .icon-vs-fg{fill:#F0EFF1;}</style><path class="icon-canvas-transparent" d="M16 16h-16v-16h16v16z" id="canvas"/><path class="icon-vs-out" d="M9 5v-1.414l-3.586-3.586h-.828l-3.586 3.586v12.414h7v-3h7v-8h-6zm-6 3h-1.586l1.586-1.586v1.586z" id="outline"/><path class="icon-vs-bg" d="M9 6v2c-1.102 0-3-.847-3-2v-2l2 2v-2l-3-3-3 3v2l2-2v5h-2v6h5v-5.415c.657.278 1.373.415 2 .415v2h5v-6h-5zm-3 8h-3v-4h3v4zm7-3h-3v-4h3v4z" id="iconBg"/><g id="iconFg"><path class="icon-vs-fg" d="M10 11v-4h3v4h-3zm-4 3v-4h-3v4h3z"/></g></svg>