<svg xmlns="http://www.w3.org/2000/svg" viewBox="0 0 14 17"><style>.st0{fill:#f6f6f6}.st1{fill:#424242}.st2{fill:#f0eff1}</style><path class="st0" d="M0 1.007h14v14H0z" id="outline"/><g id="icon_x5F_bg"><path class="st1" d="M1.014 2.007v12h12v-12h-12zm11 11h-10v-10h10v10z"/><path class="st1" d="M9.625 9.585l-.42.422H6.41v-2h1.529l-.332.33 1.388 1.385 2.015-2.015-1.389-1.384-.682.684H6.038L7.223 5.82 5.411 4.007 2.41 7.008l1.819 1.81L5.41 7.644v3.363h2.796l-.595.592 1.388 1.385 2.015-2.013z"/></g><path class="st2" d="M2.014 3.007v10h10v-10h-10zm6.985 9.977l-1.388-1.386.595-.592H5.401L5.37 7.825 4.19 8.973 2.267 7.008l3.072-3.001L7.187 5.82 6.038 7.007H8.94l.682-.684 1.389 1.384-2.016 2.015-1.388-1.385.332-.33H6.456v2h2.749l.42-.422 1.389 1.386-2.015 2.013z" id="not_x5F_fg"/></svg>