<svg xmlns="http://www.w3.org/2000/svg" viewBox="0 0 16 16"><style>.st0{opacity:0}.st0,.st1{fill:#f6f6f6}.st2{fill:#424242}.st3{fill:#f0eff1}</style><g id="outline"><path class="st0" d="M0 0h16v16H0z"/><path class="st1" d="M16 3v13H2.372C.997 15.527 0 14.033 0 12.5v-9C0 1.57 1.57 0 3.5 0c1.759 0 3.204 1.309 3.449 3H16z"/></g><g id="icon_x5F_bg"><path class="st2" d="M7 6h1v1H7zM9 6h4v1H9zM9 9h2v1H9zM9 12h4v1H9zM7 12h1v1H7zM7 9h1v1H7z"/><path class="st2" d="M6 4v-.5a2.5 2.5 0 1 0-5 0v9a2.494 2.494 0 0 0 2.372 2.487V15H15V4H6zm8 10H3.507v-.007L3.501 14h-.006A1.5 1.5 0 0 1 2 12.5c0-.072.012-.141.021-.211C2.124 11.561 2.744 11 3.5 11s1.376.561 1.479 1.289L5 13h1V5h8v9z"/></g><path class="st3" d="M6 13H5l-.021-.711C4.876 11.561 4.256 11 3.5 11s-1.376.561-1.479 1.289c-.009.07-.021.139-.021.211A1.5 1.5 0 0 0 3.495 14h.006l.006-.007V14H14V5H6v8zm3-7h4v1H9V6zm0 3h2v1H9V9zm0 3h4v1H9v-1zM7 6h1v1H7V6zm0 3h1v1H7V9zm1 3v1H7v-1h1z" id="icon_x5F_fg"/></svg>