<svg xmlns="http://www.w3.org/2000/svg" viewBox="0 0 16 16"><style>.icon-canvas-transparent{opacity:0;fill:#f6f6f6}.icon-vs-out{fill:#f6f6f6}.icon-vs-bg{fill:#424242}.icon-vs-fg{fill:#f0eff1}.st0{fill:none}</style><path class="icon-canvas-transparent" d="M16 16H0V0h16v16z" id="canvas"/><path class="icon-vs-out" d="M11.192 5l.413-.414L7.019 0h-.726L4.534 1.758l.708.707-.512.512-3.675.918A1.962 1.962 0 0 0 0 4.582v2.503c.044.054.076.114.126.165l3.866 3.866a1.999 1.999 0 0 0 3.355-.929l.918-3.675L8.777 6l.707.707.516-.515V13.5c0 1.379 1.121 2.5 2.5 2.5s2.5-1.121 2.5-2.5V5h-3.808z" id="outline"/><path class="icon-vs-bg" d="M11 6v7.5c0 .825.675 1.5 1.5 1.5s1.5-.675 1.5-1.5V6h-3zm2 5h-1V7h1v4zM5.948 1.758l.707.707-1.414 1.414-3.943.986a1 1 0 0 0-.465 1.677L4.7 10.408a1 1 0 0 0 1.677-.465L7.363 6l1.414-1.414.707.707.707-.707-3.535-3.535-.708.707zM8.07 3.879L6.442 5.507l-.516 1.885L3.85 5.316 5.734 4.8l1.628-1.628.708.707z" id="iconBg"/><g id="iconFg"><path class="st0" d="M12 7h1v4h-1z"/><path class="icon-vs-fg" d="M13 7v4h-1V7h1zM3.85 5.316l2.076 2.076.516-1.884L8.07 3.879l-.707-.707L5.734 4.8l-1.884.516z"/></g></svg>