<svg xmlns="http://www.w3.org/2000/svg" viewBox="0 0 16 16"><style>.st0{fill:#f6f6f6}.st1{fill:#424242}</style><path class="st0" d="M16 8c0-2.206-1.797-4-4.006-4a4.01 4.01 0 0 0-2.793 1.139l-.692.709-.735-.733A3.99 3.99 0 0 0 5.006 4H5V2.086L2.914 0h-.828L0 2.086v4.328l1-1V15h9.586l-1 1h4.328L16 13.914v-.828l-1.769-1.77A3.997 3.997 0 0 0 16 8zm-4.709-.714c.115-.108.359-.29.703-.29a1.005 1.005 0 0 1 0 2.008.992.992 0 0 1-.682-.27l-.727-.727.706-.721zm-5.603-.02l.726.727-.706.721c-.115.108-.359.29-.703.29a1.005 1.005 0 0 1 0-2.008c.259 0 .506.101.683.27zM5.006 12H4v-.144c.323.084.656.144 1.006.144a4.006 4.006 0 0 0 2.792-1.139l.693-.709.734.733c.257.245.547.438.85.604l.511.511h-5.58z" id="outline"/><g id="icon_x5F_bg"><path class="st1" d="M12 12l1 1H3v-1.559a4.019 4.019 0 0 1-1-.826V14h11l-1 1h1.5l1.5-1.5-1.5-1.5H12zM2 5.384a4.019 4.019 0 0 1 1-.826V3l1 1V2.5L2.5 1 1 2.5V4l1-1v2.384z"/><path class="st1" d="M2 8a3.002 3.002 0 0 0 5.083 2.162l3.522-3.604c.36-.34.847-.563 1.389-.563 1.105 0 2.004.902 2.004 2.004a2.001 2.001 0 0 1-3.393 1.442l-.609-.609-.705.705.626.625a2.995 2.995 0 0 0 2.077.838A2.998 2.998 0 0 0 15 8a3.002 3.002 0 0 0-5.083-2.162L6.395 9.441c-.36.34-.847.562-1.389.562a2.009 2.009 0 0 1-2.004-2.004 2.001 2.001 0 0 1 3.393-1.441l.609.609.706-.705-.627-.624A2.995 2.995 0 0 0 5.006 5 2.998 2.998 0 0 0 2 8z"/></g></svg>