<svg xmlns="http://www.w3.org/2000/svg" viewBox="0 0 16 16"><style>.st0{fill:#f6f6f6}.st1{fill:#424242}.st2{fill:#f0eff1}</style><g id="outline"><path class="st0" d="M7.5 2c-.569-1.195-1.631-2-3-2C2.57 0 1 1.57 1 3.5c0 .539.133 1.043.352 1.5H0v7h8V7h5V5h1V2H7.5z"/><path class="st0" d="M9 9h7v7H9z"/></g><g id="icon_x5F_bg"><path class="st1" d="M7 3c-.231-1.143-1.291-2-2.5-2A2.5 2.5 0 0 0 2 3.5c0 .565.194 1.081.512 1.5H4.5a1.5 1.5 0 1 1 .001-3.001A1.5 1.5 0 0 1 4.5 5h2.026c.229-.292.399-.629.474-1h2v2h1V4h1v2h1V4h1V3H7zM1 11h6V6H1v5zm1-3h4v1H2V8z"/></g><path class="st2" d="M2 8h4v1H2z" id="icon_x5F_fg"/><path class="st1" d="M10 10v5h5v-5h-5zm4 3l-1 1v-1.5L11.5 14l-.5-.5 1.5-1.5H11l1-1h2v2z" id="not_x5F_bg"/><path class="st2" d="M14 11v2l-1 1v-1.5L11.5 14l-.5-.5 1.5-1.5H11l1-1z" id="not_x5F_fg"/></svg>