<svg xmlns="http://www.w3.org/2000/svg" viewBox="0 0 16 16"><style>.icon-canvas-transparent{opacity:0;fill:#f6f6f6}.icon-vs-out{fill:#f6f6f6}.icon-vs-bg{fill:#424242}.icon-vs-fg{fill:#f0eff1}</style><path class="icon-canvas-transparent" d="M0 16V0h16v16H0z" id="canvas"/><path class="icon-vs-out" d="M8.727 3C8.101 1.241 6.414 0 4.5 0A4.505 4.505 0 0 0 0 4.5C0 5.425.282 6.284.762 7H0v9h10V8h5V6h1V3H8.727z" id="outline"/><path class="icon-vs-fg" d="M7 4.5C7 5.878 5.878 7 4.5 7S2 5.878 2 4.5 3.122 2 4.5 2 7 3.122 7 4.5zM2 9v5h6V9H2zm5 3H3v-1h4v1z" id="iconFg"/><g id="iconBg"><path class="icon-vs-bg" d="M15 4v1h-1v2h-1V5h-1v2h-1V5H7.949A3.499 3.499 0 0 1 6.92 7H4.5C5.878 7 7 5.878 7 4.5S5.878 2 4.5 2 2 3.122 2 4.5 3.122 7 4.5 7H2.058A3.485 3.485 0 0 1 1 4.5C1 2.57 2.57 1 4.5 1c1.758 0 3.204 1.308 3.449 3H15zM9 8v7H1V8h8zM8 9H2v5h6V9zm-1 2H3v1h4v-1z"/></g></svg>