<svg xmlns="http://www.w3.org/2000/svg" viewBox="0 0 16 16"><style>.icon-canvas-transparent{opacity:0;fill:#f6f6f6}.icon-vs-out{fill:#f6f6f6}.icon-vs-bg{fill:#424242}.icon-vs-fg{fill:#f0eff1}</style><path class="icon-canvas-transparent" d="M16 16H0V0h16v16z" id="canvas"/><path class="icon-vs-out" d="M14 4v3h-1v2H8v5H0V7h1.352A3.454 3.454 0 0 1 1 5.5C1 3.57 2.57 2 4.5 2c1.369 0 2.431.805 3 2H14z" id="outline"/><path class="icon-vs-fg" d="M6 11H2v-1h4v1zM4.5 4a1.5 1.5 0 1 0 .001 3.001A1.5 1.5 0 0 0 4.5 4z" id="iconFg"/><g id="iconBg"><path class="icon-vs-bg" d="M13 5v1h-1v2h-1V6h-1v2H9V6H7a2.392 2.392 0 0 1-.474 1H4.5a1.5 1.5 0 1 0-.001-3.001A1.5 1.5 0 0 0 4.5 7H2.512A2.47 2.47 0 0 1 2 5.5 2.5 2.5 0 0 1 4.5 3c1.209 0 2.269.857 2.5 2h6zM1 8h6v5H1V8zm1 3h4v-1H2v1z"/></g></svg>