<svg xmlns="http://www.w3.org/2000/svg" viewBox="0 0 16 16"><style>.st0{fill-rule:evenodd;clip-rule:evenodd;fill:#f6f6f6}.st1{fill:#424242}.st2{fill:#f0eff1}</style><path class="st0" d="M0 0h16v16H0z" id="outline"/><g id="icon_x5F_bg"><path class="st1" d="M3.98 8h-.13v.15l.15.151V8zM5.799 11.601l.15-.151.151-.149V11l.15-.149v-.3h.299l.15-.151v-.15h.151V9.801L7 9.65l.15-.299v-.3H7l-.025-.026L6.949 9H4v-.699h-.15l-.151.149v.601l.151.3.15.299.299.3.301.151V11l.133.267.017.034v.149l-.15.151.15.45v.149l.149.151-.149.149h.149l.15.301.15.3.301.149h.149l.15-.149H5.5v-.151h-.15v-.3h.15v-.15h-.15v-.149l.15-.151h-.15v-.149h.15l.299-.151v-.15l-.15-.149v-.151z"/><path class="st1" d="M4.117 1c.288.652.954.91 1.576 1h.782l.021.042C6.796 2.032 7 2 7 2V3.35l.082.475.836-.084.066-.734.215-.107h.15l.301-.149H8.5l.15-.15.148.15V2.45h.15L9.1 2.3l-.151-.15h.301l.299-.149h-.75V2H14l-.9.9H12.549l-.15.149V3.2H11.95v-.15h.301L12.1 2.9l-.301-.149h-.15l-.299-.15-.301.15h-.299v.299l-.301.15-.15.15-.15.15.15.149h.15l.151.151h.15v-.299l.299-.15V3.05h.301v.15l-.15.15v.15h.449l-.149.15h-.301v.15l-.15.15-.15-.15-.149.15h-.3l-.15.15-.909.15s-.688.438-.328.594c.359.156.937.007.937.007l.299.15.15-.15.15.15h.15l-.137-.273.137-.027a2.61 2.61 0 0 1 .568-.019c.805.061 1.011.559 1.08.769.086.253-.148.301-.148.301l-.625.296-.516.016-1.672.5-.786.236-.15.301v.3l.05.05.1.1.149.149v.15l.15.15s.15.15.301.15h.6L10 8l.148.15h.3v.6l.152.15.15.15v.6l-.15.15v.3l.15.3v.15l.148.3.15.3v.299l.301.15.299-.15.301-.149.15-.15.15-.45.148-.45.301-1.199V8.9s-.269-.963-.199-1.057c-.195-1.109-.563-1.5-.563-1.5l.453-.313.172.094.063.203.234.094.59-.071-.15-.301V5.9l.15.149.152.151h.15l.25.553V14H2V6.984s.053-1.746-1-2.304V15h14V1H4.117z"/><path class="st1" d="M2.974 7.053s.002-.073 0-.189c-.003.116 0 .189 0 .189zM.279 3.533l-.004.001.008-.001zM2.968.045s-.002.07 0 .185c.002-.114 0-.185 0-.185zM5.666 3.565h-.004l.008.001z"/><path class="st1" d="M2.974 6.863c.015-.72.238-3.295 2.688-3.298C3.208 3.559 2.983.947 2.968.23 2.954.943 2.735 3.527.283 3.533c2.452.004 2.675 2.606 2.691 3.33zM4.09 6.182h.002c1.461 0 1.584 1.563 1.592 1.978.007-.411.128-1.958 1.59-1.958h.002c-1.465 0-1.588-1.566-1.596-1.978-.007.408-.128 1.958-1.59 1.958zM5.684 8.262v0zM5.68 4.123v0z"/></g><g id="icon_x5F_fg"><path class="st2" d="M6.496 2.042L6.475 2h-.783c.294.042.576.05.804.042zM13.6 6.2l-.15-.15-.151-.15v.15l.15.301-.59.071-.234-.094-.063-.203-.172-.094-.453.313s.367.391.563 1.5c-.07.094.199 1.056.199 1.056v.15l-.301 1.199-.148.451-.15.45-.15.15-.301.149-.299.15-.301-.15v-.299l-.15-.3-.148-.3v-.15l-.15-.3v-.3l.15-.15v-.6L10.6 8.9l-.15-.15v-.6h-.3L10 8l-.15.15H9.399h-.148C9.1 8.15 8.949 8 8.949 8l-.15-.149V7.7l-.149-.149-.1-.101-.05-.05v-.3l.15-.3.785-.235 1.674-.502.516-.016.625-.296s.234-.048.148-.301c-.069-.21-.275-.708-1.08-.769a2.61 2.61 0 0 0-.568.019l-.137.027.137.273h-.15l-.15-.15-.15.15-.3-.149s-.578.149-.938-.007c-.359-.156.329-.594.329-.594l.908-.149.15-.15h.3l.148-.15.15.15.15-.15V3.65h.303l.148-.149h-.449v-.15l.15-.15V3.05h-.301v.301l-.299.15V3.8H10.6l-.15-.149h-.15l-.15-.149.15-.15.15-.15.301-.15v-.301h.299l.301-.15.299.15h.15l.3.149.15.149h-.301V3.2H12.398v-.15l.15-.149H13.1L14 2H8.799v.001h.75l-.299.149h-.3l.15.15-.15.15H8.8v.3l-.15-.149-.15.15h.15l-.3.149H8.2l-.216.107-.066.734-.836.084L7 3.351V4c0 1.014.752 1.014 1 1.014V7c-.141 0-.969.063-1 1 .002.105 0 1 0 1h-.051l.025.025.026.026h.15v.3L7 9.65l-.15.15V10.25H6.7v.15l-.15.15h-.3v.3L6.1 11v.3l-.15.149-.15.15-.149-.15v.15l.149.149v.15l-.3.153h-.15v.149h.15l-.15.15v.15h.15v.15h-.15v.299h.15v.15h.298l-.149.151H5.5l-.301-.149-.15-.3-.15-.301H4.75l.149-.149-.149-.151v-.149l-.15-.45.15-.15v-.149l-.017-.034L4.6 11V10.1l-.301-.15L4 9.65l-.15-.3-.15-.3v-.6l.15-.149H4l-.15-.151V8H2v6h12V6.753l-.25-.553h-.15z"/></g></svg>