<svg xmlns="http://www.w3.org/2000/svg" viewBox="0 0 16 16"><style>.st0{fill:#f6f6f6}.st1{fill:#424242}.st2{fill-rule:evenodd;clip-rule:evenodd;fill:#f0eff1}</style><path class="st0" d="M0 0h16v16H0z" id="outline"/><g id="icon_x5F_bg"><path class="st1" d="M1 1v14h14V1H1zm1 13v-3h2v2h5v1H2zm12 0h-4v-1.764l-1-.5V12H5v-2H2V8h1.764L14 13.118V14zm0-2L4 7H2V2h5v3l7 3.5V12zm0-4.618l-6-3V2h1v1.764L11.473 5H14v2.382zM14 4h-4V2h4v2z"/><path class="st1" d="M10 7.618l-1-.5v1.264l1 .5z"/></g><g id="icon_x5F_fg"><path class="st2" d="M4 11H2v3h7v-1H4zM10 2h4v2h-4zM14 6.264V5h-2.527zM10 8.882l4 2V9.618l-4-2zM10 14h3.527L10 12.236zM6 2H2v4h2.236L9 8.382V7.118l-3-1.5z"/><path class="st2" d="M2 9v1h3v2h4v-.264L3.528 9z"/></g></svg>