<svg xmlns="http://www.w3.org/2000/svg" viewBox="0 0 16 16"><style>.st0,.st1,.st2{fill-rule:evenodd;clip-rule:evenodd;fill:#f6f6f6}.st1,.st2{fill:#424242}.st2{fill:#f0eff1}</style><path class="st0" d="M0 0h16v16H0z" id="outline"/><g id="icon_x5F_bg"><path class="st1" d="M1 1v14h14V1H1zm13 13H2V2h12v12z"/><path class="st1" d="M13 13l-2-5 2-2-6-3-4 5 2 5h8zM7.276 4.256l4.036 2.018-1.018 1.019-.468.466.245.612L11.523 12H5.677L4.145 8.169l3.131-3.913z"/></g><g id="icon_x5F_fg"><path class="st2" d="M11.311 6.274L7.276 4.256 4.145 8.169 5.677 12h5.846l-1.452-3.628-.245-.613.467-.466z"/><path class="st2" d="M2 2v12h12V2H2zm11 11H5L3 8l4-5 6 3-2 2 2 5z"/></g></svg>