<svg xmlns="http://www.w3.org/2000/svg" viewBox="0 0 16 16"><style>.st0{opacity:0}.st0,.st1{fill:#f6f6f6}.st2{fill:#e51400}.st3{fill:#fff}</style><g id="outline"><path class="st0" d="M0 0h16v16H0z"/><path class="st1" d="M7.586 0L0 7.586v.828L7.586 16h.828L16 8.414v-.828L8.414 0z"/></g><g id="icon_x5F_bg"><path class="st2" d="M8 1L1 8l7 7 7-7-7-7zM2.5 8L8 2.5 13.5 8 8 13.5 2.5 8z"/><path transform="rotate(-45.001 8 8)" class="st2" d="M5.879 5.879h4.243v4.243H5.879z"/></g><path class="st3" d="M8 2.5L2.5 8 8 13.5 13.5 8 8 2.5zM5 8l3-3 3 3-3 3-3-3z" id="icon_x5F_fg"/></svg>