<svg xmlns="http://www.w3.org/2000/svg" viewBox="0 0 16 16"><style>.st0{opacity:0}.st0,.st1{fill:#f6f6f6}.st2{fill:#e51400}.st3{fill:#fff}</style><g id="outline"><path class="st0" d="M0 0h16v16H0z"/><path class="st1" d="M15 8A7 7 0 1 1 .999 7.999 7 7 0 0 1 15 8z"/></g><g id="icon_x5F_bg"><path class="st2" d="M8 2a6 6 0 1 0 0 12A6 6 0 0 0 8 2zm0 11A5 5 0 1 1 8 3a5 5 0 1 1 0 10z"/><path transform="rotate(-45.001 8 8)" class="st2" d="M5.879 5.879h4.243v4.243H5.879z"/></g><path class="st3" d="M8 3a5 5 0 1 0 0 10A5 5 0 0 0 8 3zm0 8L5 8l3-3 3 3-3 3z" id="icon_x5F_fg"/></svg>