<svg xmlns="http://www.w3.org/2000/svg" viewBox="0 0 16 16"><style>.st0{fill:#f6f6f6}.st1{fill:#424242}.st2{fill:#f0eff1}</style><g id="outline"><path class="st0" d="M3.5 7c1.369 0 2.431-.805 3-2H8v2h5V5h1V2H6.5c-.569-1.195-1.631-2-3-2C1.57 0 0 1.57 0 3.5S1.57 7 3.5 7zM9 9h7v7H9z"/></g><path class="st1" d="M6 3c-.231-1.143-1.291-2-2.5-2a2.5 2.5 0 1 0 0 5C4.709 6 5.769 5.141 6 4h3v2h1V4h1v2h1V4h1V3H6zM3.5 5a1.5 1.5 0 1 1 .001-3.001A1.5 1.5 0 0 1 3.5 5z" id="icon_x5F_bg"/><path class="st1" d="M10 10v5h5v-5h-5zm4 3l-1 1v-1.5L11.5 14l-.5-.5 1.5-1.5H11l1-1h2v2z" id="not_x5F_bg"/><path class="st2" d="M14 11v2l-1 1v-1.5L11.5 14l-.5-.5 1.5-1.5H11l1-1z" id="not_x5F_fg"/></svg>