<svg xmlns="http://www.w3.org/2000/svg" viewBox="0 0 16 16"><style>.icon-vs-out{fill:#f6f6f6}.icon-vs-bg{fill:#424242}.icon-vs-fg{fill:#f0eff1}.icon-vs-action-orange{fill:#c27d1a}</style><path class="icon-vs-out" d="M0 0h16v16H0z" id="outline"/><path class="icon-vs-fg" d="M2 2h12v12H2z" id="iconFg"/><g id="iconBg"><path class="icon-vs-action-orange" d="M7.078 2.157L7 2h3.917l-.314.157h-.391l.196.196-.196.196h-.196v.391l-.196-.195-.196.195h.196l-.391.196h-.196l-.282.138-.087.96-1.091.109-.107-.619v-.392l-.391-.98-.197-.195zM2.861 6.835l.625.361.833.542v.361l.208.181h-.209l-.208.181V9.184l.208.361.208.361.416.361.417.181v1.083l.208.362v.18l-.208.181.208.542v.18l.208.181-.208.18h.208l.208.363.209.361.416.18h.208l.208-.18h-.416v-.181H6.4v-.361h.208v-.181H6.4v-.18l.208-.181H6.4v-.18h.208l.416-.181v-.181l-.208-.18v-.181l.208.181.209-.181.208-.18v-.362l.208-.18v-.362h.416l.209-.181v-.181h.208V10.087l.208-.181.208-.361v-.361h-.209l-.208-.181-.208-.181h-.417l-.208-.18H7.44l-.208-.361-.208-.182-.208-.181H6.4l-.208-.361h-.625l-.208-.18h-.417l-.208.18-.208.181-.416-.181-.209-.18-.415-.542-.208-.181h-.417s-1.023-.806-.503-1.314c.52-.508.477-.64 1.301-.433.824.207.659.663.659.663V6.113l.49-.151v-.565l.043-.169.091-.199.209-.181.208-.361h.208l.416-.181v-.181h.209l.208-.181v.181h.208l.416-.181h-.416v-.361H6.4l-.417-.723-.208.181v.181h-.208l-.208.18v-.361h.208l-.208-.181h-.208l-.209-.18-.208.18.013-.654-2.988-.309v4.342l.061.054 1.041.542zM14.577 2v.157l.161.157h-.161l-.321-.157-.16.157h-.643l-.161.157v.157h-.482v-.157h.321l-.16-.157-.322-.157h-.161L12.168 2l-.322.157h-.321v.314l-.321.157-.161.158-.161.157.161.157h.161l.161.157h.16v-.314l.321-.157v-.315h.322v.157l-.161.158v.157h.481l-.16.157h-.321v.157l-.161.157-.161-.157-.16.157h-.321l-.161.158-.974.157s-.736.459-.351.622c.385.164 1.004.007 1.004.007l.321.157.161-.157.161.157h.16l-.146-.285.145-.029c1.389-.193 1.676.521 1.767.786.091.265-.16.315-.16.315l-.669.311-.552.015s-.571-.145-1.268.029c-.698.175-1.367.745-1.367.745l-.16.315v.314l.161.158.161.157v.158l.161.157s.161.158.321.158h.643l.16-.158.16.158h.322v.629l.161.158.16.158v.628l-.16.158v.314l.16.314v.158l.16.314.161.314v.315l.322.158.32-.158.322-.157.161-.158.16-.472.16-.472.322-1.257v-.16s-.289-1.009-.214-1.107c-.208-1.163-.602-1.572-.602-1.572l.485-.328.184.098.067.213.251.098.633-.075-.161-.315v-.156l.161.157.16.157h.161l.262.566V2H14.577zm-5.624-.999h.877l-.07.034h5.268v.667h.006V1H8.951l.002.001zM1.006 15.006V6.387L1 6.381v8.654h14.035V6.558l-.006-.014v8.462H1.006zM6.251 1.035L6.233 1H1v1.17h.006V1.035h5.245z"/><path class="icon-vs-bg" d="M14 2v12H2V2h12m1-1H1v14h14V1z"/></g></svg>