<svg xmlns="http://www.w3.org/2000/svg" viewBox="0 0 16 16"><style>.st0{fill:#f6f6f6}.st1{fill:#424242}.st2{fill:#f0eff1}</style><path class="st0" d="M8 0a7.96 7.96 0 0 0-3.88 1.006 1.828 1.828 0 0 1-.151-.759C3.969.09 3.967 0 3.967 0L1.969.003s-.004.09-.001.246C1.942 1.104 1.374 2.51 0 2.533l.011.036L0 2.572v1.953a1.76 1.76 0 0 1 .772.062A7.96 7.96 0 0 0 0 8a8 8 0 1 0 8-8z" id="outline"/><g id="icon_x5F_bg"><path class="st1" d="M2.974 7.053s-.159-3.488 2.692-3.488l.004.001C2.817 3.566 2.968.045 2.968.045S3.127 3.533.276 3.533H.28c2.851 0 2.694 3.52 2.694 3.52zM5.684 8.262s-.095-2.061 1.59-2.061h.002c-1.686 0-1.596-2.078-1.596-2.078s.094 2.059-1.59 2.059h.002c1.683 0 1.592 2.08 1.592 2.08z"/><path class="st1" d="M14.988 7.764C14.862 4.008 11.786 1 8 1a6.956 6.956 0 0 0-3.142.751C5.753 2.2 7 2 7 2v.897c.088-.209.178-.409.268-.595.24-.031.483-.052.732-.052.165 0 .327.011.488.024.468.812.944 1.846 1.221 3.108-.571.039-1.133.044-1.703.039H8v1.09l.397.003c.488 0 .982-.016 1.487-.055.038.34.066.686.07 1.047a8.673 8.673 0 0 1-.209 1.869c-.584.041-1.158.049-1.74.046a17.426 17.426 0 0 1-1.837-.123c-.014-.101-.02-.198-.031-.298H5.042l.012.131c-.222-.04-.433-.085-.642-.131H4v-.096a20.16 20.16 0 0 1-1.729-.501C2.261 8.27 2.25 8.137 2.25 8H2V6.984s.031-1.025-.427-1.756A6.98 6.98 0 0 0 1 8a6.692 6.692 0 0 0 .1 1.136l.002.018a6.995 6.995 0 0 0 5.75 5.745l.021.003A7.065 7.065 0 0 0 8 15a7 7 0 0 0 7-7c0-.08-.01-.157-.012-.236zM9.881 2.571a5.755 5.755 0 0 1 2.868 2.188c-.686.236-1.334.4-1.951.496a11.71 11.71 0 0 0-.917-2.684zM2.486 9.625c.798.244 1.712.479 2.744.644.206 1.047.542 2.116.981 3.193a5.758 5.758 0 0 1-3.725-3.837zm5.613 4.12c-.034.001-.066.005-.099.005-.17 0-.338-.011-.504-.025-.503-1.116-.888-2.225-1.128-3.306a18.417 18.417 0 0 0 2.029.094c.348 0 .699-.01 1.054-.027-.305.991-.759 2.077-1.352 3.259zm1.285-.17c.546-1.146.967-2.215 1.238-3.193a12.79 12.79 0 0 0 2.886-.734 5.753 5.753 0 0 1-4.124 3.927zm4.347-5.201c-1.038.452-1.972.722-2.848.863a9.32 9.32 0 0 0 .161-1.743c-.004-.4-.035-.782-.076-1.156a12.478 12.478 0 0 0 2.316-.604c.3.696.466 1.461.466 2.266 0 .126-.011.25-.019.374z"/></g><g id="icon_x5F_fg"><path class="st2" d="M10.969 6.338a12.478 12.478 0 0 0 2.316-.604c.299.696.465 1.461.465 2.266 0 .126-.011.25-.019.374-1.038.452-1.972.722-2.848.863a9.32 9.32 0 0 0 .161-1.743 11.3 11.3 0 0 0-.075-1.156zM12.749 4.76c-.686.236-1.334.4-1.951.496a11.703 11.703 0 0 0-.917-2.685 5.757 5.757 0 0 1 2.868 2.189zM8 13.75c-.17 0-.338-.011-.504-.025-.503-1.116-.888-2.225-1.128-3.306a18.417 18.417 0 0 0 2.029.094c.348 0 .699-.01 1.054-.027-.306.991-.759 2.077-1.353 3.26-.033 0-.065.004-.098.004zM2.486 9.625c.798.244 1.712.479 2.744.644.206 1.047.542 2.116.981 3.193a5.758 5.758 0 0 1-3.725-3.837zM9.384 13.575c.546-1.146.967-2.215 1.238-3.193a12.79 12.79 0 0 0 2.886-.734 5.753 5.753 0 0 1-4.124 3.927zM8.488 2.274A6.04 6.04 0 0 0 8 2.25c-.249 0-.492.021-.732.052-.09.186-.18.386-.268.595V4c0 1.014.752 1.014 1 1.014v.406h.006c.57.005 1.132 0 1.703-.039a10.86 10.86 0 0 0-1.221-3.107zM9.885 6.459a19.26 19.26 0 0 1-1.488.055L8 6.511V7c-.141 0-.969.063-1 1 .002.105 0 1 0 1h-.863c.012.1.018.197.031.298.59.069 1.202.116 1.838.123.582.003 1.156-.005 1.74-.046a8.673 8.673 0 0 0 .209-1.869 10.395 10.395 0 0 0-.07-1.047zM4 8H2.25c0 .137.011.27.021.403.509.173 1.09.346 1.729.501V8zM4.412 9c.209.046.42.091.642.131L5.042 9h-.63z"/></g></svg>