<svg xmlns="http://www.w3.org/2000/svg" viewBox="0 0 16 16"><style>.st0{opacity:0}.st0,.st1{fill:#f6f6f6}.st2{fill:#424242}.st3{fill:#f0eff1}</style><g id="outline"><path class="st0" d="M0 0h16v16H0z"/><path class="st1" d="M12 11h4V0H1v15h11z"/></g><g id="icon_x5F_bg"><path class="st2" d="M2 9h1v1H2zM2 13h1v1H2zM2 11h1v1H2zM2 7h1v1H2zM8 1h1v1H8zM10 1h1v1h-1zM12 1h1v1h-1zM2 5h1v1H2zM6 1h1v1H6zM4 1h1v1H4zM12 9h1v1h-1z"/><path class="st2" d="M6 14h1V6h8V5H6zM2 3h1v1H2zM14 1h1v1h-1zM14 9h1v1h-1zM2 1h1v1H2z"/><path class="st2" d="M10 9h1v1h-1zM10 13h1v1h-1zM10 11h1v1h-1z"/></g><g id="icon_x5F_fg"><path class="st3" d="M3 2v12h3V5h9V2z"/><path class="st3" d="M7 14h3V9h5V6H7z"/></g></svg>