<svg xmlns="http://www.w3.org/2000/svg" width="16" height="16"><style type="text/css">.icon-canvas-transparent{opacity:0;fill:#F6F6F6;} .icon-vs-out{fill:#F6F6F6;} .icon-vs-bg{fill:#424242;}</style><path class="icon-canvas-transparent" d="M16 16h-16v-16.001h16v16.001z" id="canvas"/><path class="icon-vs-out" d="M10 2.171l-2 2-2-2-5.415 5.414 5.415 5.414 2-2 2 2 5.414-5.414-5.414-5.414zm-2 8l-2.586-2.586 2.586-2.586 2.586 2.586-2.586 2.586z" id="outline"/><path class="icon-vs-bg" d="M7 4.585l-3 3 3 3-1 1-4-4 4-4 1 1zm3-1l-1 1 3 3-3 3 1 1 4-4-4-4z" id="iconBg"/></svg>