<svg xmlns="http://www.w3.org/2000/svg" viewBox="0 0 16 11"><style>.st0{fill:#f6f6f6}.st1{fill:#f0eff1}.st2{fill:#424242}</style><path class="st0" d="M0 0h16v11H0z" id="outline"/><g id="icon_x5F_bg"><path class="st1" d="M2.933 7.158a.519.519 0 0 0 .186.113.655.655 0 0 0 .241.042.76.76 0 0 0 .593-.271.912.912 0 0 0 .165-.296c.038-.113.059-.234.059-.365v-.346l-.761.11a1.386 1.386 0 0 0-.32.078.557.557 0 0 0-.196.132.429.429 0 0 0-.098.18.975.975 0 0 0-.027.233c0 .078.014.15.041.219a.5.5 0 0 0 .117.171zM8.072 4.996a.646.646 0 0 0-.571-.32.674.674 0 0 0-.331.082.777.777 0 0 0-.257.232c-.072.102-.128.221-.168.36s-.06.295-.06.464v.506c0 .137.02.264.057.381s.088.221.154.307a.74.74 0 0 0 .237.207.68.68 0 0 0 .651-.016.747.747 0 0 0 .264-.266c.072-.117.128-.265.167-.445.04-.18.06-.387.06-.621 0-.184-.018-.348-.052-.494a1.214 1.214 0 0 0-.151-.377z"/><path class="st1" d="M6.993 2h-5v4.857c0-.164.021-.318.065-.461a1.065 1.065 0 0 1 .562-.66c.146-.074.321-.125.525-.152l1.03-.154c0-.275-.058-.475-.174-.6-.115-.123-.279-.185-.492-.185-.214 0-.423.039-.627.117a1.93 1.93 0 0 0-.544.312v-.767c.051-.035.121-.072.213-.113.093-.039.196-.076.31-.109.114-.035.236-.063.362-.085a2.06 2.06 0 0 1 .368-.035c.234 0 .438.033.608.101.171.069.313.166.424.295.11.129.194.287.249.471.056.186.083.398.083.637v2.438H4.17v-.53h-.014c-.12.203-.266.357-.439.463-.173.107-.374.16-.604.16a1.25 1.25 0 0 1-.478-.084.97.97 0 0 1-.352-.234 1.021 1.021 0 0 1-.216-.362 1.414 1.414 0 0 1-.074-.463V9h12V8h-1V7h1V2h-7zm1.636 5.396c-.12.19-.268.338-.443.444a1.15 1.15 0 0 1-.61.16.932.932 0 0 1-.292-.043.835.835 0 0 1-.238-.121.99.99 0 0 1-.191-.186 1.436 1.436 0 0 1-.152-.228H6.69v.484h-.697V2.02h.697v2.656h.013c.054-.106.115-.201.181-.289.067-.086.142-.16.226-.223a.997.997 0 0 1 .614-.198c.222 0 .413.05.573.153.159.102.291.24.395.416.103.176.178.379.228.611.049.232.074.477.074.734 0 .305-.031.584-.092.844a2.17 2.17 0 0 1-.273.672zM9.993 8h-1V7h1v1zm1-1h1v1h-1V7z"/><g><path class="st2" d="M.993 1v9h14V1h-14zm13 6v2h-12V2h12v5z"/><path class="st2" d="M10.993 7h1v1h-1zM8.993 7h1v1h-1zM2.283 7.682c.093.1.21.178.352.234.139.057.298.084.478.084.229 0 .431-.053.604-.16.173-.106.319-.26.439-.463h.014v.529h.785V5.469c0-.238-.027-.451-.083-.637a1.286 1.286 0 0 0-.249-.471 1.08 1.08 0 0 0-.424-.295 1.665 1.665 0 0 0-.608-.101c-.119 0-.241.012-.368.033a3.266 3.266 0 0 0-.673.195 1.313 1.313 0 0 0-.212.114v.768c.158-.132.341-.235.544-.313.204-.078.413-.117.627-.117.213 0 .377.063.494.186.116.125.174.324.174.6l-1.03.154a1.613 1.613 0 0 0-.526.151 1.093 1.093 0 0 0-.562.66 1.561 1.561 0 0 0 .008.924c.049.141.122.26.216.362zm.52-1.147a.433.433 0 0 1 .097-.18.541.541 0 0 1 .195-.133c.083-.033.189-.061.32-.078l.761-.109v.346c0 .131-.021.252-.059.365a.877.877 0 0 1-.164.295.758.758 0 0 1-.593.272.682.682 0 0 1-.242-.041.53.53 0 0 1-.185-.114.48.48 0 0 1-.116-.172.564.564 0 0 1-.042-.218c0-.086.01-.164.028-.233zM8.919 5.146a2.047 2.047 0 0 0-.228-.611 1.212 1.212 0 0 0-.394-.416 1.037 1.037 0 0 0-.573-.153 1.016 1.016 0 0 0-.615.198 1.187 1.187 0 0 0-.225.223 1.968 1.968 0 0 0-.181.289H6.69V2.02h-.697v5.887h.697v-.485h.013c.044.082.095.158.152.228.057.07.119.133.191.186a.835.835 0 0 0 .238.121.932.932 0 0 0 .292.043c.23 0 .434-.053.609-.16a1.34 1.34 0 0 0 .443-.443c.12-.188.211-.412.272-.672.061-.26.092-.539.092-.844a3.49 3.49 0 0 0-.073-.735zm-.704 1.342c-.039.18-.095.328-.168.446a.747.747 0 0 1-.264.266.677.677 0 0 1-.651.016.74.74 0 0 1-.237-.207c-.066-.087-.117-.191-.154-.308s-.056-.244-.056-.381v-.506c0-.17.021-.326.061-.465s.095-.257.167-.359a.756.756 0 0 1 .257-.232c.1-.055.21-.082.331-.082a.646.646 0 0 1 .571.32c.066.105.116.23.15.377.035.147.052.311.052.494 0 .235-.019.442-.059.621zM12.993 7h1v1h-1z"/></g></g></svg>