<svg xmlns="http://www.w3.org/2000/svg" viewBox="0 0 16 16"><style>.st0{opacity:0}.st0,.st1{fill:#f6f6f6}.st2{fill:#424242}</style><g id="outline"><path class="st0" d="M0 0h16v16H0z"/><path class="st1" d="M11.96 8c.011-.168.04-.322.04-.5.002-3.486-2.308-5.232-2.406-5.305L9.329 2H2.671l-.265.196C2.308 2.269-.002 4.015 0 7.5c.002 3.509 2.313 5.236 2.41 5.307l.264.193h6.652l.264-.192c.054-.04.771-.597 1.41-1.654V12h5V8h-4.04zM8.962 8H3.038C3.023 7.835 3 7.678 3 7.5c0-2.414 1.546-3.657 1.605-3.704l1.418-1.078 1.365 1.073C7.454 3.843 9 5.086 9 7.5c0 .178-.023.335-.038.5z"/></g><g id="icon_x5F_bg"><path class="st2" d="M4 3H3S.998 4.479 1 7.5c.002 3.042 2 4.5 2 4.5h1s-2-1.458-2-4.5C2 4.521 4 3 4 3zM5 9h2v2H5zM12 9h3v2h-3zM9 3H8s2 1.521 2 4.5c0 3.042-2 4.5-2 4.5h1s1.998-1.458 2-4.5C11.002 4.479 9 3 9 3z"/></g></svg>