<svg xmlns="http://www.w3.org/2000/svg" viewBox="0 0 16 16"><style>.st0{opacity:0}.st0,.st1{fill:#f6f6f6}.st2{fill:#424242}.st3{fill:#f0eff1}</style><g id="outline"><path class="st0" d="M0 0h16v16H0z"/><path class="st1" d="M0 1h16v14H0z"/></g><g id="icon_x5F_bg"><path class="st2" d="M5 6H4V5H2v2h1v1H2v5h12V5H5v1zm0 6H4v-1h1v1zm0-2H4V9h1v1zm0-2H4V7h1v1zm7-1h1v1h-1V7zm-2 0h1v1h-1V7zM8 7h1v1H8V7zM6 7h1v1H6V7z"/><path class="st2" d="M12 7h1v1h-1zM4 7h1v1H4zM4 11h1v1H4zM4 9h1v1H4zM10 7h1v1h-1z"/><path class="st2" d="M1 2v12h14V2H1zm13 11H2V8h1V7H2V5h2v1h1V5h9v8z"/><path class="st2" d="M8 7h1v1H8zM6 7h1v1H6z"/></g><path class="st3" d="M5 5v1H4V5H2v2h1v1H2v5h12V5H5zm0 7H4v-1h1v1zm0-2H4V9h1v1zm0-2H4V7h1v1zm2 0H6V7h1v1zm2 0H8V7h1v1zm2 0h-1V7h1v1zm2 0h-1V7h1v1z" id="icon_x5F_fg"/></svg>