<svg xmlns="http://www.w3.org/2000/svg" viewBox="0 0 16 16" enable-background="new 0 0 16 16"><style type="text/css">.icon-canvas-transparent{opacity:0;fill:#F6F6F6;} .icon-vs-out{fill:#F6F6F6;} .icon-vs-fg{fill:#F0EFF1;} .icon-vs-bg{fill:#424242;}</style><path class="icon-canvas-transparent" d="M16 16h-16v-16h16v16z" id="canvas"/><path class="icon-vs-out" d="M15 4.379v11.621h-13v-6.5c-1.195-.569-2-1.631-2-3 0-1.391.822-2.585 2-3.149v-3.351h8.621l4.379 4.379z" id="outline"/><path class="icon-vs-fg" d="M12.793 5h-2.793v-2.793l2.793 2.793zm-3.793 1v-4h-5v1.051c1.692.245 3 1.691 3 3.449 0 1.369-.805 2.431-2 3v.5h2v4h6v-8h-4zm-7 .5c0 .828.671 1.5 1.5 1.5s1.5-.672 1.5-1.5-.671-1.5-1.5-1.5-1.5.672-1.5 1.5z" id="iconFg"/><path class="icon-vs-bg" d="M10.207 1h-7.207v2.051c.165-.024.329-.051.5-.051l.5.051v-1.051h5v4h4v8h-6v1h7v-10.207l-3.793-3.793zm-.207 4v-2.793l2.793 2.793h-2.793zm-9 1.5c0 1.209.859 2.269 2 2.5v6h1v-1h2v-1h-2v-1h2v-1h-2v-2c1.141-.231 2-1.291 2-2.5 0-1.381-1.119-2.5-2.5-2.5s-2.5 1.119-2.5 2.5zm4 0c0 .828-.671 1.5-1.5 1.5s-1.5-.672-1.5-1.5.671-1.5 1.5-1.5 1.5.672 1.5 1.5z" id="iconBg"/></svg>