<svg xmlns="http://www.w3.org/2000/svg" viewBox="0 0 16 16"><style>.st0{fill:#f6f6f6}.st1{fill:#424242}.st2{fill:#00539c}</style><path class="st0" d="M15 8c-.004-.035 0-1 0-1 0-1.723-1.031-2.979-3-3h-1v2.586L8.414 4H4V3h1V0H4C2.031.021 1 1.277 1 3c0 0 .004.965 0 1L0 5v2l1 1c.003.03 0 1 0 1 0 1.516 1.038 2.681 2.645 2.941L3.586 12h4.828l3.658-3.658c.188.565.716 1.34.928 1.658-.259.388-1 1.465-1 2v1h-1v3h1c1.969-.021 3-1.29 3-3 0 0-.003-.97 0-1l1-1V9l-1-1z" id="outline"/><g id="icon_x5F_bg"><path class="st1" d="M2 3v1c0 .969-.703.981-1 1v2c.322.02 1 .053 1 1v1c0 .834-.083 2 2 2v-1c-.833 0-1-1-1-1V8c0-.834-.496-1.736-1-2 .504-.269 1-1.167 1-2V3c0-.84.584-1 1-1V1C1.917 1 2 2.166 2 3zM14 8V7c0-.834.083-2-2-2v1c.416 0 1 .16 1 1v1c0 .833.496 1.731 1 2-.504.264-1 1.166-1 2v1s-.167 1-1 1v1c2.083 0 2-1.166 2-2v-1c0-.947.678-.981 1-1V9c-.297-.019-1-.031-1-1z"/></g><path class="st2" d="M6 5l2 2H5v2h3l-2 2h2l3-3-3-3z" id="color_x5F_action"/></svg>