<svg xmlns="http://www.w3.org/2000/svg" viewBox="0 0 16 16"><style>.st0{opacity:0}.st0,.st1{fill:#f6f6f6}.st2{fill:#424242}.st3{fill:#00539c}</style><g id="outline"><path class="st0" d="M0 0h16v16H0z"/><path class="st1" d="M16 10.879l-2.646-2.646L12 9.586l-1.354-1.354-2.25 2.25L5.914 8H4V7h-.586L4 6.414l1.354 1.354L9.121 4 5.354.232 4 1.586 2.646.232 0 2.879v2.242L1.879 7H1v2.5c0 1.104.719 2.042 1.713 2.373L1.586 13h4.328l.982-.982 3.75 3.75L12 14.414l1.354 1.354L16 13.121v-2.242zM4 3.121L4.879 4 4 4.879 3.121 4 4 3.121zm8 9.758L11.121 12l.879-.879.879.879-.879.879z"/></g><g id="icon_x5F_bg"><path class="st2" d="M2.646 1.646L.293 4l2.353 2.354.708-.708L1.707 4l1.647-1.646zM4.646 2.354L6.293 4 4.646 5.646l.708.708L7.707 4 5.354 1.646zM13.354 9.646l-.708.708L14.293 12l-1.647 1.646.708.708L15.707 12zM10.646 9.646L8.293 12l2.353 2.354.708-.708L9.707 12l1.647-1.646z"/></g><path class="st3" d="M5.5 9L7 10.5 5.5 12H4l1-1H3.5C2.672 11 2 10.327 2 9.5V8h1v1.5c0 .275.225.5.5.5H5L4 9h1.5z" id="color_x5F_action"/></svg>