<svg xmlns="http://www.w3.org/2000/svg" width="16" height="16"><style type="text/css">.icon-canvas-transparent{opacity:0;fill:#F6F6F6;} .icon-vs-out{fill:#F6F6F6;} .icon-vs-bg{fill:#424242;} .icon-vs-fg{fill:#F0EFF1;}</style><path class="icon-canvas-transparent" d="M16 16h-16v-16h16v16z" id="canvas"/><path class="icon-vs-out" d="M11.741 11.741c-.748 2.462-3.038 4.259-5.741 4.259-3.309 0-6-2.691-6-6 0-2.703 1.797-4.993 4.259-5.741.748-2.462 3.038-4.259 5.741-4.259 3.309 0 6 2.691 6 6 0 2.703-1.797 4.993-4.259 5.741z" id="outline"/><path class="icon-vs-bg" d="M15 6c0 2.062-1.249 3.829-3.03 4.594.019-.195.03-.393.03-.594 0-3.309-2.691-6-6-6-.201 0-.399.011-.594.03.765-1.781 2.532-3.03 4.594-3.03 2.762 0 5 2.238 5 5zm-4 4c0 2.762-2.238 5-5 5s-5-2.238-5-5 2.238-5 5-5 5 2.238 5 5zm-4-1c0-1.104-.896-2-2-2s-2 .896-2 2 .896 2 2 2 2-.896 2-2z" id="iconBg"/><g id="iconFg"><path class="icon-vs-fg" d="M7 9c0 1.104-.896 2-2 2s-2-.896-2-2 .896-2 2-2 2 .896 2 2z"/></g></svg>