<svg xmlns="http://www.w3.org/2000/svg" viewBox="0 0 16 16"><style>.st0{opacity:0}.st0,.st1{fill:#f6f6f6}.st2{fill:#424242}.st3{fill:#f0eff1}</style><g id="outline"><path class="st0" d="M0 0h16v16H0z"/><path class="st1" d="M16 15H1V1h15v14z"/></g><path class="st2" d="M2 2v12h13V2H2zm7 11H5v-2h4v2zm0-3H5V8h4v2zm0-3H5V5h4v2zm5 6h-4v-2h4v2zm0-3h-4V8h4v2zm0-3h-4V5h4v2z" id="icon_x5F_bg"/><path class="st3" d="M14 7h-4V5h4v2zm0 1h-4v2h4V8zm0 3h-4v2h4v-2zM9 5H5v2h4V5zm0 3H5v2h4V8zm0 3H5v2h4v-2z" id="icon_x5F_fg"/></svg>