<svg xmlns="http://www.w3.org/2000/svg" viewBox="0 0 16 16"><style>.st0{opacity:0}.st0,.st1{fill:#f6f6f6}.st2{fill:none}.st3{fill:#424242}.st4{fill:#f0eff1}</style><g id="outline"><path class="st0" d="M0 0h16v16H0z"/><path class="st1" d="M16 1H0v15h11v-1h5z"/></g><g id="icon_x5F_bg"><path class="st2" d="M9 9H2v5h7V9zm-5 4H3v-1h1v1zm0-2H3v-1h1v1zm4 2H5v-1h3v1zm0-2H5v-1h3v1z"/><path class="st3" d="M3 10h1v1H3zM5 12h3v1H5zM3 12h1v1H3z"/><path class="st3" d="M1 15h9V7H1v8zm1-6h7v5H2V9z"/><path class="st3" d="M1 2v4h1V5h12v8h-3v1h4V2z"/><path class="st3" d="M5 10h3v1H5z"/></g><g id="icon_x5F_fg"><path class="st2" d="M5 12h3v1H5zM3 10h1v1H3zM5 10h3v1H5zM3 12h1v1H3z"/><path class="st4" d="M2 5v1h9v7h3V5z"/><path class="st4" d="M2 14h7V9H2v5zm3-4h3v1H5v-1zm0 2h3v1H5v-1zm-2-2h1v1H3v-1zm0 2h1v1H3v-1z"/></g></svg>