<svg xmlns="http://www.w3.org/2000/svg" viewBox="0 0 16 16"><style>.st0{opacity:0}.st0,.st1{fill:#f6f6f6}.st2{fill:#424242}.st3{stroke:#424242;stroke-width:.15;stroke-miterlimit:10}.st3,.st4{fill:#f0eff1}</style><g id="outline"><path class="st0" d="M0 0h16v16H0z"/><path class="st1" d="M15.88 3.459L9.598.145H8.555L2.024 3.447V9H0v7h14v-3.177l1.88-1.378z"/></g><g id="icon_x5F_bg"><path class="st2" d="M13 10h-1l-.5 1.25L11 10h-1l1 2.5-1 2.5h1l.5-1.25L12 15h1l-1-2.5zM7.189 10H6v5h1.189c.541 0 .975-.238 1.299-.701.325-.461.488-1.088.488-1.861C8.977 10.824 8.381 10 7.189 10zM7 11h.125c.075 0 .146.007.213.018.291.084.662.399.662 1.466 0 1.127-.413 1.428-.708 1.502-.052.006-.104.014-.161.014H7v-3zM5 15h-.943v-2.42c0-.129.018-.307.057-.533l-.846 2.504H2.77l-.85-2.504c.038.23.058.408.058.533V15h-.943v-5h.927l1.029 2.805a.839.839 0 0 1 .026.223c0-.053.008-.127.026-.223L4.073 10H5v5z"/><path class="st2" d="M9.077 1L3.024 4.062V9h.967V5.166l5.015 2.8V9h.967V8L14 5.365v6.219l.88-.645V4.062L9.077 1zm.251 6.105L4.492 4.348l4.514-2.292 4.799 2.364-4.477 2.685z"/></g><g id="icon_x5F_fg"><path class="st3" d="M9.006 2.056l4.799 2.364-4.477 2.685-4.836-2.757z"/><path class="st4" d="M9.006 9V7.966l-5.015-2.8V9zM9.973 8v1H14V5.365z"/><path class="st2" d="M4.066 9V5.294L8.931 8.01V9h.15V7.922L3.916 5.038V9zM9.932 7.937l-.035.022V9h.151v-.959l3.877-2.537V9H14v1.602l.075-.055v-5.32z"/></g></svg>