<svg xmlns="http://www.w3.org/2000/svg" viewBox="0 0 16 16"><style>.st0{fill:#f6f6f6}.st1{fill:#424242}</style><path class="st0" d="M14.213 11.251c-.035-.097-.07-.199-.107-.308.152.031.294.047.43.047A1.453 1.453 0 0 0 16 9.514c0-.532-.234-.874-.425-1.062-.193-.193-.539-.424-1.089-.424a1.88 1.88 0 0 0-.885.22c-.136.072-.273.17-.419.299a770.82 770.82 0 0 0-.343-.519h-.747A1.597 1.597 0 0 0 12 6.905V0H8v3H4v1H0v8h6.07l-.289 1.099a1.653 1.653 0 0 0-.24-.017c-.515 0-.858.207-1.055.381A1.403 1.403 0 0 0 4 14.523c0 .439.2.838.561 1.119.299.238.697.358 1.182.358.603 0 1.149-.159 1.625-.472.448-.294.835-.732 1.153-1.311.084-.154.166-.331.248-.53.073.152.173.289.296.408a1.49 1.49 0 0 0 1.066.411c.294 0 .577-.061.849-.186.243-.113.49-.302.775-.587.03-.03.067-.067.108-.111.16.253.352.453.573.597.291.191.637.288 1.026.288.395 0 .776-.126 1.122-.364.37-.248.718-.631 1.063-1.168l.353-.551v-.463l-1.631-.92-.156.21z" id="outline"/><g id="icon_x5F_bg"><path class="st1" d="M1 5h2v6H1zM10.778 10.699a1.221 1.221 0 0 1-.195.057l-1.001.195-.013.049h1.308a9.064 9.064 0 0 0-.099-.301zM11 6.093V1H9v5.297C9.41 6.103 9.855 6 10.329 6c.248 0 .469.035.671.093zM6.427 10.646h-.664l.736-2.521.501.007V4H5v7h1.333l.094-.354zM9.028 9.135c.186-.739.432-1.279.739-1.619.186-.213.367-.318.545-.318.036 0 .065.01.087.029a.103.103 0 0 1 .035.08c0 .028-.025.084-.076.166a.457.457 0 0 0-.073.231c0 .103.039.19.117.263a.423.423 0 0 0 .297.109.429.429 0 0 0 .323-.135.487.487 0 0 0 .132-.359.513.513 0 0 0-.196-.42c-.132-.108-.342-.162-.629-.162-.45 0-.858.128-1.224.385-.367.256-.714.68-1.044 1.273-.115.203-.223.335-.325.393-.103.059-.266.087-.49.084l-.149.511h.627l-.919 3.496c-.152.574-.257.928-.312 1.061a1.268 1.268 0 0 1-.355.499.331.331 0 0 1-.229.085.1.1 0 0 1-.064-.023l-.022-.03c0-.015.022-.044.068-.089.045-.045.068-.115.068-.207a.332.332 0 0 0-.109-.254c-.071-.068-.175-.102-.309-.102a.57.57 0 0 0-.394.132.4.4 0 0 0-.147.309c0 .129.06.24.181.335.119.095.306.142.562.142.404 0 .764-.102 1.077-.309.314-.205.587-.523.822-.95.232-.429.474-1.12.72-2.075l.527-2.02h.634l.158-.512h-.653z"/><path class="st1" d="M13.947 9.891c.047 0 .135.016.258.049.126.033.235.051.331.051A.453.453 0 0 0 15 9.514a.471.471 0 0 0-.132-.354c-.088-.088-.216-.131-.382-.131a.88.88 0 0 0-.416.103c-.13.068-.296.217-.497.443-.149.17-.372.465-.666.889-.117-.521-.317-1-.604-1.435h-1.912v.746c.117-.022.527-.353.607-.353.157 0 .285.066.388.197.162.204.388.824.676 1.862-.226.295-.653.79-.737.88-.138.146-.253.24-.342.283a.484.484 0 0 1-.234.054c-.065 0-.175-.034-.324-.106a.694.694 0 0 0-.274-.069.522.522 0 0 0-.379.146.482.482 0 0 0-.147.367c0 .139.045.252.138.342.09.086.215.13.371.13.149 0 .291-.03.423-.091.132-.063.297-.192.497-.393.2-.199.748-.818 1.099-1.253.135.413.396 1.019.494 1.206.099.187.212.322.34.406a.868.868 0 0 0 .479.124.982.982 0 0 0 .566-.196c.252-.168.511-.461.775-.875l-.161-.091c-.182.243-.315.398-.401.459a.36.36 0 0 1-.204.058c-.092 0-.184-.058-.274-.173-.153-.191-.499-1.026-.754-1.901.228-.392.42-.646.575-.766a.574.574 0 0 1 .359-.131z"/></g></svg>