<svg xmlns="http://www.w3.org/2000/svg" viewBox="0 0 16 16"><style>.st0{fill:#f6f6f6}.st1{fill:none}.st2{fill:#424242}.st3{fill:#f0eff1}</style><path class="st0" d="M14.414 4H12V0H8v3H4v1H0v8h7v2.414L8.585 16h5.829L16 14.414V5.586z" id="outline"/><g id="icon_x5F_bg"><path class="st1" d="M10 6H9v8h5V6h-4zm1 6h-1v-1h1v1zm0-2h-1V9h1v1zm2 3h-1v-2h1v2zm0-3h-1V9h1v1zm0-2h-3V7h3v1z"/><path class="st2" d="M1 5h2v6H1zM5 4h2v7H5zM9 1h2v3H9zM14 5H9L8 6v8l1 1h5l1-1V6l-1-1zm0 8v1H9V6h5v7z"/><path class="st2" d="M12 11h1v2h-1zM10 9h1v1h-1zM12 9h1v1h-1zM10 11h1v1h-1zM10 7h3v1h-3z"/></g><path class="st3" d="M13 6H9v8h5V6h-1zm-2 6h-1v-1h1v1zm0-2h-1V9h1v1zm2 3h-1v-2h1v2zm0-3h-1V9h1v1zm0-2h-3V7h3v1z" id="icon_x5F_fg"/></svg>