<svg xmlns="http://www.w3.org/2000/svg" viewBox="0 0 16 16"><style>.st0{fill:#f6f6f6}.st1{fill:none}.st2{fill:#424242}.st3{fill:#f0eff1}</style><path class="st0" d="M16 0H4v4.051C1.756 4.303 0 6.19 0 8.5 0 10.981 2.019 13 4.5 13c.615 0 1.201-.125 1.736-.35L9.586 16h.828l2-2-2-2H16V0z" id="outline"/><g id="icon_x5F_bg"><circle class="st1" cx="4.5" cy="8.5" r="2.5"/><path class="st2" d="M8 8.5A3.5 3.5 0 1 0 4.5 12c.711 0 1.369-.215 1.922-.578L10 15l1-1-3.578-3.578A3.488 3.488 0 0 0 8 8.5zM4.5 11a2.5 2.5 0 1 1 0-5 2.5 2.5 0 0 1 0 5z"/><circle class="st2" cx="11" cy="4" r="1"/><path class="st2" d="M5 1v3.051c.347.039.681.112 1 .226V2h8v5l-1.5-1-2 1L8 5l-.319.319a4.48 4.48 0 0 1 1.242 2.419L10.5 9l2-1L14 9v1H8.724c-.028.077-.042.161-.073.236l.763.764H15V1H5z"/></g><g id="icon_x5F_fg"><circle class="st1" cx="11" cy="4" r="1"/><path class="st3" d="M10.5 9L8.923 7.738c.043.249.077.501.077.762 0 .528-.108 1.028-.276 1.5H14V9l-1.5-1-2 1zM6 2v2.276a4.51 4.51 0 0 1 1.681 1.043L8 5l2.5 2 2-1L14 7V2H6zm5 3a1 1 0 1 1 0-2 1 1 0 1 1 0 2z"/><circle class="st3" cx="4.5" cy="8.5" r="2.5"/></g></svg>