<svg xmlns="http://www.w3.org/2000/svg" viewBox="0 0 16 16"><style>.icon-canvas-transparent{opacity:0;fill:#f6f6f6}.icon-vs-out{fill:#f6f6f6}.icon-vs-bg{fill:#424242}.icon-vs-fg{fill:#f0eff1}.icon-vs-action-green{fill:#388a34}</style><path class="icon-canvas-transparent" d="M16 16H0V0h16v16z" id="canvas"/><path class="icon-vs-out" d="M0 15V2h16v13H0z" id="outline"/><path class="icon-vs-bg" d="M1 3v11h14V3H1zm13 10h-1v-1h-1v1H4v-1H3v1H2V4h1v1h1V4h8v1h1V4h1v9zM3 6h1v1H3V6zm0 2h1v1H3V8zm0 2h1v1H3v-1zm9 0h1v1h-1v-1zm0-2h1v1h-1V8zm0-2h1v1h-1V6z" id="iconBg"/><path class="icon-vs-fg" d="M13 5h-1V4H4v1H3V4H2v9h1v-1h1v1h8v-1h1v1h1V4h-1v1zm-9 6H3v-1h1v1zm0-2H3V8h1v1zm0-2H3V6h1v1zm2 4.4V5.6l4.4 2.9L6 11.4zm7-.4h-1v-1h1v1zm0-2h-1V8h1v1zm0-2h-1V6h1v1zM8.6 8.5L7 9.6V7.4l1.6 1.1z" id="iconFg"/><path class="icon-vs-action-green" d="M6 11.4l4.4-2.9L6 5.6v5.8zm1-4l1.6 1.1L7 9.6V7.4z" id="colorImportance"/></svg>