<svg xmlns="http://www.w3.org/2000/svg" viewBox="0 0 16 16"><style>.icon-canvas-transparent{opacity:0;fill:#f6f6f6}.icon-vs-bg{fill:#424242}.icon-vs-fg{fill:#f0eff1}.icon-folder{fill:#dcb67a}.st0{fill:#f6f6f6}</style><path class="icon-canvas-transparent" d="M0 0h16v16H0z" id="canvas"/><path class="st0" d="M6.597 0l1.007 2H9.4c.776 0 1.6.645 1.6 1.673V4h1.618l-.245.49A6 6 0 1 1 4 10H1.562C.657 9.979 0 9.305 0 8.399V0h6.597z" id="outline"/><g id="iconBg"><path class="icon-vs-bg" d="M10 5a5 5 0 0 1 5 5c0 2.762-2.238 5-5 5s-5-2.238-5-5a5 5 0 0 1 5-5zm1 6a2 2 0 1 0-.001-4.001A2 2 0 0 0 11 11z"/><path class="icon-folder" d="M5.981 1L7 3.025V3h2.344s.656.036.656.673V4c-.341 0-.674.035-1 .09V4H6L4.97 2H2v7h-.414C1.463 8.997 1 8.951 1 8.399V1h4.981z"/><path class="icon-folder" d="M4 5h2.687A5.995 5.995 0 0 0 4.09 9H2l.5-1L4 5z"/><path class="icon-folder" d="M5.981 1L7 3.025V3h2.344s.656.036.656.673V4c-.341 0-.674.035-1 .09V4H6L4.97 2H2v7h-.414C1.463 8.997 1 8.951 1 8.399V1h4.981z"/><path class="icon-folder" d="M4 5h2.687A5.995 5.995 0 0 0 4.09 9H2l.5-1L4 5z"/></g><g id="iconFg"><path class="icon-vs-fg" d="M11 7a2 2 0 1 1-.001 4.001A2 2 0 0 1 11 7zM4.97 2L6 4h3v.09A5.951 5.951 0 0 0 6.687 5H4L2.5 8 2 9V2h2.97z"/><path class="icon-vs-fg" d="M11 7a2 2 0 1 1-.001 4.001A2 2 0 0 1 11 7zM4.97 2L6 4h3v.09A5.951 5.951 0 0 0 6.687 5H4L2.5 8 2 9V2h2.97z"/></g></svg>