<svg xmlns="http://www.w3.org/2000/svg" viewBox="0 0 16 16"><style>.st0{fill:#f6f6f6}.st1{fill:#424242}.st2{fill:#f0eff1}.st3{fill:#1ba1e2}.st4{fill:none;stroke:#ccc;stroke-miterlimit:10}.st5{fill:#fff}</style><path class="st0" d="M11.903 7.041C11.963 6.702 12 6.355 12 6c0-3.309-2.691-6-6-6S0 2.691 0 6s2.691 6 6 6c.355 0 .702-.037 1.041-.097C7.248 14.196 9.152 16 11.5 16a4.5 4.5 0 0 0 4.5-4.5c0-2.348-1.804-4.252-4.097-4.459z" id="outline"/><path class="st1" d="M6 1C3.238 1 1 3.238 1 6s2.238 5 5 5a5.04 5.04 0 0 0 1.063-.118 4.472 4.472 0 0 1 3.819-3.819A5.04 5.04 0 0 0 11 6a5 5 0 0 0-5-5zM5 7a2 2 0 1 1 .001-4.001A2 2 0 0 1 5 7z" id="icon_x5F_bg"/><circle class="st2" cx="5" cy="5" r="2" id="icon_x5F_fg"/><path class="st3" d="M11.5 8a3.5 3.5 0 1 0 0 7 3.5 3.5 0 0 0 0-7zm.5 6h-1v-1h1v1zm1-3c0 .551-.449 1-1 1v.5h-1V12c0-.551.449-1 1-1v-1c-.08-.044-.252-.102-.5-.102s-.42.058-.5.102v1h-1v-1c0-.58.631-1 1.5-1s1.5.42 1.5 1v1z" id="not_x5F_bg"/><path class="st5" d="M12 12.5h-1V12c0-.551.449-1 1-1v-1c-.08-.044-.252-.102-.5-.102s-.42.058-.5.102v1h-1v-1c0-.58.631-1 1.5-1s1.5.42 1.5 1v1c0 .551-.449 1-1 1v.5zm0 .5h-1v1h1v-1z" id="not_x5F_fg"/></svg>