<svg xmlns="http://www.w3.org/2000/svg" viewBox="0 0 16 16"><style>.st0{opacity:0}.st0,.st1{fill:#f6f6f6}.st2{fill:#424242}.st3{fill:#f0eff1}</style><g id="outline"><path class="st0" d="M0 0h16v16H0z"/><path class="st1" d="M16 7.5c0 4.143-3.357 7.5-7.5 7.5A7.499 7.499 0 0 1 1 7.5C1 3.357 4.357 0 8.5 0S16 3.357 16 7.5z"/></g><path class="st2" d="M8.5 1a6.5 6.5 0 1 0 0 13 6.5 6.5 0 0 0 0-13zM7 8a2 2 0 1 1 .001-4.001A2 2 0 0 1 7 8z" id="icon_x5F_bg"/><path class="st3" d="M9 6a2 2 0 1 1-4.001-.001A2 2 0 0 1 9 6z" id="icon_x5F_fg"/></svg>