<?xml version="1.0" encoding="iso-8859-1"?>
<!-- Generator: Adobe Illustrator 21.0.0, SVG Export Plug-In . SVG Version: 6.00 Build 0)  -->
<svg version="1.1" xmlns="http://www.w3.org/2000/svg" xmlns:xlink="http://www.w3.org/1999/xlink" x="0px" y="0px"
	 viewBox="0 0 16 16" style="enable-background:new 0 0 16 16;" xml:space="preserve">
<style type="text/css">
	.icon_x002D_canvas_x002D_transparent{opacity:0;fill:#F6F6F6;}
	.icon_x002D_vs_x002D_out{fill:#F6F6F6;}
	.icon_x002D_vs_x002D_bg{fill:#424242;}
	.icon_x002D_vs_x002D_fg{fill:#F0EFF1;}
	.icon_x002D_vs_x002D_blue{fill:#1BA1E2;}
</style>
<g id="canvas">
	<path class="icon_x002D_canvas_x002D_transparent" d="M16,16H0V0h16V16z"/>
</g>
<g id="outline">
	<path class="icon_x002D_vs_x002D_out" d="M16,6c0,3.309-2.691,6-6,6v1c0,1.711-2.149,3-5,3s-5-1.289-5-3V7
		c0-1.574,1.827-2.777,4.336-2.962C5.151,1.691,7.379,0,10,0C13.309,0,16,2.691,16,6z"/>
</g>
<g id="iconBg">
	<path class="icon_x002D_vs_x002D_bg" d="M15,6c0,2.762-2.238,5-5,5V7c0-0.088-0.029-0.17-0.04-0.255C10.577,6.404,11,5.755,11,5
		c0-1.104-0.896-2-2-2C8.151,3,7.43,3.531,7.14,4.278c-0.527-0.143-1.11-0.227-1.73-0.254C6.176,2.246,7.941,1,10,1
		C12.762,1,15,3.238,15,6z"/>
</g>
<g id="iconFg">
	<path class="icon_x002D_vs_x002D_fg" d="M11,5c0,0.755-0.423,1.404-1.04,1.745C9.813,5.62,8.734,4.709,7.14,4.278
		C7.43,3.531,8.151,3,9,3C10.104,3,11,3.896,11,5z M5,5.675C3.001,5.675,1.675,6.473,1.675,7S3.001,8.325,5,8.325
		S8.325,7.527,8.325,7S6.999,5.675,5,5.675z"/>
</g>
<g id="colorImportance">
	<path class="icon_x002D_vs_x002D_blue" d="M8,5.689C7.267,5.271,6.201,5,5,5S2.733,5.271,2,5.689C1.385,6.041,1,6.496,1,7v3v3
		c0,1.104,1.791,2,4,2s4-0.896,4-2v-3V7C9,6.496,8.615,6.041,8,5.689z M5,8.325C3.001,8.325,1.675,7.527,1.675,7
		S3.001,5.675,5,5.675S8.325,6.473,8.325,7S6.999,8.325,5,8.325z"/>
</g>
</svg>
