<svg xmlns="http://www.w3.org/2000/svg" viewBox="0 0 16 16"><style>.icon-canvas-transparent{opacity:0;fill:#f6f6f6}.icon-vs-bg{fill:#424242}.icon-vs-fg{fill:#f0eff1}.icon-folder{fill:#dcb67a}.st0{fill:#f6f6f6}</style><path class="icon-canvas-transparent" d="M0 0h16v16H0z" id="canvas"/><path class="st0" d="M6.597 0l1.007 2 1.796.001c.776.043 1.6.644 1.6 1.672v.417A5.997 5.997 0 0 1 10 16a6 6 0 0 1-6-6H1.6c-.17 0-.505-.028-.836-.219C.278 9.503 0 8.999 0 8.399V0h6.597z" id="outline"/><g id="iconBg"><path class="icon-vs-bg" d="M5 10c0 2.762 2.238 5 5 5s5-2.238 5-5-2.238-5-5-5-5 2.238-5 5zm4-1a2 2 0 1 1 4.001.001A2 2 0 0 1 9 9z"/><path class="icon-folder" d="M1 1v7.399c0 .637.617.601.617.601H4.09A5.997 5.997 0 0 1 10 4v-.327C10 3.036 9.344 3 9.344 3H7v.025L5.981 1H1zm1 1h2.981l.5 1H2V2z"/></g><g id="iconFg"><path class="icon-vs-fg" d="M11 7a2 2 0 1 1-.001 4.001A2 2 0 0 1 11 7zM2 2v1h3.47l-.5-1z"/><path class="icon-vs-fg" d="M11 7a2 2 0 1 1-.001 4.001A2 2 0 0 1 11 7zM2 2v1h3.47l-.5-1z"/></g></svg>