<svg xmlns="http://www.w3.org/2000/svg" viewBox="0 0 16 16"><style>.st0{fill:#f6f6f6}.st1{fill:none}.st2{fill:#424242}.st3{fill:#f0eff1}</style><path class="st0" d="M10 0C7.394 0 5.176 1.673 4.35 4H1L0 5v10l1 1h7l1-1v-3.09c.326.055.658.09 1 .09 3.309 0 6-2.691 6-6s-2.691-6-6-6z" id="outline"/><g id="icon_x5F_bg"><path class="st1" d="M3 6H2v8h5V6H3zm1 6H3v-1h1v1zm0-2H3V9h1v1zm2 3H5v-2h1v2zm0-3H5V9h1v1zm0-2H3V7h3v1z"/><path class="st2" d="M10 1a4.996 4.996 0 0 0-4.578 3h1.855A1.994 1.994 0 0 1 11 5a2 2 0 0 1-2 2v3.899A5 5 0 0 0 15 6a5 5 0 0 0-5-5z"/><path class="st2" d="M2 5L1 6v8l1 1h5l1-1V6L7 5H2zm5 8v1H2V6h5v7z"/><path class="st2" d="M3 7h3v1H3zM3 9h1v1H3zM5 9h1v1H5zM3 11h1v1H3zM5 11h1v2H5z"/></g><g id="icon_x5F_fg"><path class="st1" d="M5 11h1v2H5zM3 11h1v1H3zM5 9h1v1H5zM3 9h1v1H3zM3 7h3v1H3z"/><path class="st3" d="M9 3c-.738 0-1.376.405-1.723 1H8l1 1v2a2 2 0 0 0 0-4zM3 6H2v8h5V6H3zm1 6H3v-1h1v1zm0-2H3V9h1v1zm2 3H5v-2h1v2zm0-3H5V9h1v1zm0-2H3V7h3v1z"/></g></svg>