<svg xmlns="http://www.w3.org/2000/svg" viewBox="0 0 16 16"><style>.st0{opacity:0}.st0,.st1{fill:#f6f6f6}.st2{fill:#424242}.st3{fill:#f0eff1}</style><g id="outline"><path class="st0" d="M0 0h16v16H0z"/><path class="st1" d="M16 1H1v12h1v1h13v-1h1z"/></g><g id="icon_x5F_bg"><path class="st2" d="M8 8h1v2H8zM4 8h1v2H4zM6 8h1v2H6zM10 8h1v2h-1z"/><path class="st2" d="M2 2v10h1v1h5v-1h1v1h5v-1h1V2H2zm12 9h-1v1h-1v-1h-1v1h-1v-1H7v1H6v-1H5v1H4v-1H3V7h11v4zm0-5H3V5h11v1zm0-2H3V3h11v1z"/><path class="st2" d="M12 8h1v2h-1z"/></g><g id="icon_x5F_fg"><path class="st3" d="M3 7v4h1v1h1v-1h1v1h1v-1h3v1h1v-1h1v1h1v-1h1V7H3zm2 3H4V8h1v2zm2 0H6V8h1v2zm2 0H8V8h1v2zm2 0h-1V8h1v2zm2 0h-1V8h1v2zM3 5h11v1H3zM3 3h11v1H3z"/></g></svg>