<svg xmlns="http://www.w3.org/2000/svg" viewBox="0 0 16 16"><style>.st0{opacity:0}.st0,.st1{fill:#f6f6f6}.st2{fill:#424242}.st3{fill:#f0eff1}</style><g id="outline"><path class="st0" d="M0 0h16v16H0z"/><path class="st1" d="M16 3H1v8h1v1h13v-1h1z"/></g><path class="st2" d="M2 4v6h1v1h5v-1h1v1h5v-1h1V4H2zm12 5h-1v1h-1V9h-1v1h-1V9H7v1H6V9H5v1H4V9H3V5h11v4zm-2-3h1v2h-1V6zm-2 2h1V6h-1v2zM8 8h1V6H8v2zM6 8h1V6H6v2zM4 8h1V6H4v2z" id="icon_x5F_bg"/><path class="st3" d="M3 5v4h1v1h1V9h1v1h1V9h3v1h1V9h1v1h1V9h1V5H3zm2 3H4V6h1v2zm2 0H6V6h1v2zm2 0H8V6h1v2zm2 0h-1V6h1v2zm2 0h-1V6h1v2z" id="icon_x5F_fg"/></svg>