<svg xmlns="http://www.w3.org/2000/svg" viewBox="0 0 16 16"><style>.icon-canvas-transparent{opacity:0;fill:#f6f6f6}.icon-vs-out{fill:#f6f6f6}.icon-vs-bg{fill:#424242}.icon-vs-blue,.st0{fill:#1ba1e2}.st0{display:none}.st1{fill:#f0eff1}</style><path class="icon-canvas-transparent" d="M0 0h16v16H0z" id="canvas"/><path class="icon-vs-out" d="M10 3V0H0v16h16V3z" id="outline"/><g id="iconBg"><path class="st0" d="M1 8h14v3H1z"/><path class="icon-vs-bg" d="M9 4V1H1v14h14V4H9zM2 2h6v2H2V2zm12 12H2v-3h12v3zM3 10V9h10v1H3zm11-2H2V5h12v3z"/><path class="icon-vs-bg" d="M3 6h7v1H3zM3 12h8v1H3z"/><g><path class="icon-vs-bg" d="M9 4V1H1v14h14V4H9zM2 2h6v2H2V2zm12 12H2v-3h12v3zM3 10V9h10v1H3zm11-2H2V5h12v3z"/><path class="icon-vs-bg" d="M3 6h7v1H3zM3 12h8v1H3z"/></g></g><path class="icon-vs-blue" d="M1 8v3h14V8H1zm12 2H3V9h10v1z" id="colorImportance"/><g id="iconFg"><path class="st1" d="M2 2h6v2H2zM2 5v3h12V5H2zm8 2H3V6h7v1zM3 9h10v1H3zM2 14h12v-3H2v3zm1-2h8v1H3v-1z"/></g></svg>