<svg xmlns="http://www.w3.org/2000/svg" viewBox="0 0 16 16"><style>.st0{fill:#f6f6f6}.st1{fill:#424242}.st2{fill:#e51400}.st3{fill:#fff}</style><path class="st0" d="M11 4H7V2.586L4.414 0H2.586L0 2.586v4.047L2 4.74V10h3v6h11V4z" id="outline"/><g id="icon_x5F_bg"><path class="st1" d="M6 7h-.267C4.782 7 4 6.252 4 5.301V2.416L5.691 4 6 4.289V3L3.5.5 1 3v1.31l2-1.894V9h1V7.389C4 7.775 5.078 8 5.733 8H7V7H6zM15 8.707V5h-4v2.051c.166-.019.329-.051.5-.051 1.421 0 2.675.675 3.5 1.707zM15 14.294a4.532 4.532 0 0 1-.706.706H15v-.706zM7 11.5c0-.528.108-1.028.276-1.5H6v5h2.707C7.675 14.175 7 12.921 7 11.5z"/><path class="st1" d="M10 7.276V5H6v4h1.762A4.514 4.514 0 0 1 10 7.276z"/></g><path class="st2" d="M11.5 8a3.5 3.5 0 1 0 .001 7.001A3.5 3.5 0 0 0 11.5 8zM9 12v-1h5v1H9z" id="not_x5F_bg"/><path class="st3" d="M14 12H9v-1h5v1z" id="not_x5F_fg"/></svg>