<svg xmlns="http://www.w3.org/2000/svg" viewBox="0 0 16 16"><style>.st0{opacity:0}.st0,.st1{fill:#f6f6f6}.st2{fill:#424242}</style><g id="outline"><path class="st0" d="M0 0h16v16H0z"/><path class="st1" d="M8 8v2H6V9H5v-.466C5.325 8.62 5.661 9 6 9h1V6H6V2.75L3.5.25 1 2.75v4.328l1-1V9H1v5h5v-1h2v2h6V8H8z"/></g><g id="icon_x5F_bg"><path class="st2" d="M2 10h3v3H2zM9 9h4v4.914H9zM6 11h2v1H6zM6 6.664a2 2 0 0 1-1.999-2H4v-1l1 1v-1.5l-1.5-1.5-1.5 1.5v1.5l1-1v5h1V6.885a2.978 2.978 0 0 0 2 .779v-1z"/></g></svg>