<svg xmlns="http://www.w3.org/2000/svg" viewBox="0 0 16 16"><style>.st0{opacity:0}.st0,.st1{fill:#f6f6f6}.st2{fill:#424242}.st3{fill:#e51400}.st4{fill:#fff}</style><g id="outline"><path class="st0" d="M0 0h16v16H0z"/><path class="st1" d="M11.5 7C9.564 7 7.925 8.235 7.291 9.953H5.953v-1h-1v-.7c0 .085.676-.3 1.016-.3h.984v-3h-1V2.469L3.484 0h-.062L.953 2.469v4.328l1-1v3.156h-1v5h5v-1h1.309C7.87 14.72 9.53 16 11.5 16c2.481 0 4.5-2.019 4.5-4.5S13.981 7 11.5 7z"/></g><g id="icon_x5F_bg"><path class="st2" d="M2 10h3v3H2zM5.516 10.516v1h1.537c.008-.5.049-.705.118-1H5.516zM6.016 6.43a2 2 0 0 1-1.999-2h-.001v-1l1 1v-1.5l-1.5-1.5-1.5 1.5v1.5l1-1v5h1V6.651a2.978 2.978 0 0 0 2 .779v-1z"/></g><path class="st3" d="M11.547 8.047a3.5 3.5 0 1 0 0 7 3.5 3.5 0 0 0 0-7m-2.5 3h5v1h-5v-1z" id="not_x5F_bg"/><path class="st4" d="M9.047 11.047h5v1h-5z" id="not_x5F_fg"/></svg>