<svg xmlns="http://www.w3.org/2000/svg" width="16" height="16"><style type="text/css">.icon-canvas-transparent{opacity:0;fill:#F6F6F6;} .icon-vs-out{fill:#F6F6F6;} .icon-vs-bg{fill:#424242;}</style><path class="icon-canvas-transparent" d="M16 16h-16v-16h16v16z" id="canvas"/><path class="icon-vs-out" d="M14 11v4h-1.5c-.862 0-1.713-.173-2.5-.5v1.5h-4v-8.5l-3 3v-5.5l5-5 5 5v5.5l-3-3v1c0 1.379 1.121 2.5 2.5 2.5h1.5z" id="outline"/><path class="icon-vs-bg" d="M13 12v2h-.5c-1.33 0-2.549-.472-3.5-1.258v2.258h-2v-10l-3 3v-2.5l4-4 4 4v2.5l-3-3v3.5c0 1.934 1.567 3.5 3.5 3.5h.5z" id="iconBg"/></svg>