<svg xmlns="http://www.w3.org/2000/svg" viewBox="0 0 16 16"><style>.st0{opacity:0}.st0,.st1{fill:#f6f6f6}.st2{fill:#424242}</style><g id="outline"><path class="st0" d="M0 0h16v16H0z"/><path class="st1" d="M14 7V3.586L10.414 0h-.828L6 3.586v4.828l2-2V9.02l-.832-.833-1 1-1-.915v-.585L2.541 5.9.881 7.56l1.787 2.628h.586l.914 1-1 1 1 1h1.086l2.207 2.207c.153.136.726.605 1.508.605.527 0 1.015-.211 1.41-.609 1.045-1.053.577-2.311.009-2.898L9.896 12H12v-1.328A6.258 6.258 0 0 0 14 11h1V7h-1z"/></g><g id="icon_x5F_bg"><path class="st2" d="M11 6V4l2 2V4l-3-3-3 3v2l2-2v7h2V9c.833.712 2.03 1 3 1V8c-1.102 0-3-.847-3-2zM9.668 13.188s.734.76 0 1.5c-.699.705-1.5 0-1.5 0l-2-2 1.5-1.5 2 2zm-7.5-5.501l1 1.5h.5l2 2-1 1h1l1.5-1.5v-1l-1 1-2-2v-.5l-1.5-1-.5.5z"/></g></svg>