<svg xmlns="http://www.w3.org/2000/svg" viewBox="0 0 16 16"><style>.st0{opacity:0}.st0,.st1{fill:#f6f6f6}.st2{fill:#424242}.st3{fill:#e51400}.st4{fill:#fff}</style><g id="outline"><path class="st0" d="M0 0h16v16H0z"/><path class="st1" d="M16 1H8v3H6V2H0v7h6V7h2v1.707c-.615.77-1 1.732-1 2.793 0 2.481 2.019 4.5 4.5 4.5s4.5-2.019 4.5-4.5c0-.528-.108-1.028-.276-1.5H16V1z"/></g><g id="icon_x5F_bg"><path class="st2" d="M1 3h4v5H1zM6 5h2v1H6zM15 8.664V2H9v5.683a4.499 4.499 0 0 1 2.471-.74c1.435-.001 2.699.68 3.529 1.721z"/></g><path class="st3" d="M11.5 8a3.5 3.5 0 1 0 0 7 3.5 3.5 0 0 0 0-7zM9 12v-1h5v1H9z" id="not_x5F_bg"/><path class="st4" d="M14 12H9v-1h5v1z" id="not_x5F_fg"/></svg>