<svg xmlns="http://www.w3.org/2000/svg" viewBox="0 0 16 16"><style>.st0{fill:#f6f6f6}.st1{fill:#424242}.st2{fill:#f0eff1}.st3{fill:#fc0}.st4{stroke:#ccc;stroke-miterlimit:10}.st4,.st5{fill:none}</style><path class="st0" d="M16 0H4v2H2v2H0v11h7.387l.524 1h6.997l.971-2.005L14.394 11H16z" id="outline"/><g id="icon_x5F_bg"><path class="st1" d="M12 7.016h.417L13 8.191V3H3v1h9z"/><path class="st1" d="M14 10h1V1H5v1h9z"/><path class="st1" d="M7.392 13H2V8l3 3h2l2.809-2.808.591-1.176h.6V5H1v9h5.889l.503-1zM10 6l-4 4-4-4h8z"/></g><g id="icon_x5F_fg"><path class="st2" d="M9.809 8.192L7 11H5L2 8v5h5.392z"/><path class="st2" d="M10 6l-4 4-4-4h8z"/></g><path class="st3" d="M11.891 8h-.781l-3.016 6.008.515.992h5.766l.484-1.008L11.891 8zM12 14h-1v-1h1v1zm0-2h-1v-2h1v2z" id="not_x5F_bg"/><g id="not_x5F_fg"><path class="st5" d="M9 7H3l3 3z"/><path class="st5" d="M5 11L3 9v3h6V9l-2 2z"/><path d="M12 12h-1v-2h1v2zm0 1h-1v1h1v-1z"/></g></svg>