<svg xmlns="http://www.w3.org/2000/svg" viewBox="0 0 16 16"><style>.st0{fill:#f6f6f6}.st1{fill:#424242}.st2{fill:#f0eff1}.st3{fill:#e51400}.st4{fill:none;stroke:#ccc;stroke-miterlimit:10}.st5{fill:#fff}</style><path class="st0" d="M16 0H4v2H2v2H0v11h8.707c.77.616 1.733 1 2.793 1 2.481 0 4.5-2.019 4.5-4.5V0z" id="outline"/><g id="icon_x5F_bg"><path class="st1" d="M14 7.762c.384.258.712.584 1 .945V1H5v1h9v5.762z"/><path class="st1" d="M12 7.051c.347.039.682.112 1 .226V3H3v1h9v3.051z"/><path class="st1" d="M7.276 13H2V8l3 3h2l.056-.057A4.477 4.477 0 0 1 11 7.051V5H1v9h6.762a4.472 4.472 0 0 1-.486-1zM10 6l-4 4-4-4h8z"/></g><g id="icon_x5F_fg"><path class="st2" d="M7 11.5c0-.19.033-.372.056-.557L7 11H5L2 8v5h5.276A4.454 4.454 0 0 1 7 11.5zM10 6l-4 4-4-4h8z"/></g><path class="st3" d="M11.5 8a3.5 3.5 0 1 0 0 7 3.5 3.5 0 0 0 0-7zm1.854 4.646l-.707.707-1.147-1.146-1.146 1.147-.707-.707 1.147-1.146-1.147-1.146.707-.707 1.146 1.147 1.146-1.147.707.707-1.146 1.145 1.147 1.146z" id="not_x5F_bg"/><path class="st5" d="M12.646 9.646L11.5 10.793l-1.146-1.147-.708.708 1.147 1.146-1.147 1.146.708.708 1.146-1.147 1.146 1.147.708-.708-1.147-1.146 1.147-1.146z" id="not_x5F_fg"/></svg>