<svg xmlns="http://www.w3.org/2000/svg" viewBox="0 0 16 16"><style>.st0{fill:#f6f6f6}.st1{fill:#424242}.st2{fill:#f0eff1}</style><path class="st0" d="M16 0H6v7H0v9h10v-1h1.5a2.505 2.505 0 0 0 2.373-1.713L15 14.414v-4.328L13.914 9H16V0zm-6 10.086V9h1.086L10 10.086z" id="outline"/><g id="icon_x5F_bg"><path class="st1" d="M7 1v7H1v7h8V8h6V1H7zm1 13H2v-3l2 2h2l2-2v3zm-3-2L2 9h6l-3 3zm9-5H8V4l2 2h2l2-2v3zm-3-2L8 2h6l-3 3z"/><path class="st1" d="M11 10.5V12l1-1v1.5c0 .275-.225.5-.5.5H10v1h1.5c.826 0 1.5-.673 1.5-1.5V11l1 1v-1.5L12.5 9 11 10.5z"/></g><g id="icon_x5F_fg"><path class="st2" d="M10 6L8 4v3h6V4l-2 2z"/><path class="st2" d="M14 2H8l3 3z"/><g><path class="st2" d="M4 13l-2-2v3h6v-3l-2 2z"/><path class="st2" d="M8 9H2l3 3z"/></g></g></svg>