<svg xmlns="http://www.w3.org/2000/svg" viewBox="0 0 16 16"><style>.st0{fill:#f6f6f6}.st1{fill:#424242}.st2{fill:#f0eff1}.st3{fill:#fc0}</style><path class="st0" d="M16 0H2v5H0v11H15.002l.971-2.005-1.475-2.974H16V0z" id="outline"/><g id="icon_x5F_bg"><path class="st1" d="M6.97 14.025L6.982 14H2V9l4 3h1.988l1.505-2.994L7 11 2 7l10.511.016.489.986V6H1v9h6.48z"/><path class="st1" d="M3 1v4h1V4l1.332 1H7.75L6.5 4 4 2h10l-2.5 2-1.25 1h2.418L14 4v6h1V1z"/></g><g id="icon_x5F_fg"><path class="st2" d="M9.492 9.006l1.001-1.991h1.488L12 7H2l5 4zM7.988 12H6L2 9v5h4.982z"/><g><path class="st2" d="M10.25 5L14 2H4l3.75 3H6h6zM5.281 4.961L4 4v1h1.281zM12.707 4.971V5H14V4z"/></g></g><path class="st3" d="M11.891 8.016h-.781l-3.016 6 .515.984h5.766l.484-1-2.968-5.984zM12 14h-1v-1h1v1zm0-2h-1v-2h1v2z" id="not_x5F_bg"/><path d="M12 12h-1v-2h1v2zm0 1h-1v1h1v-1z" id="not_x5F_fg"/></svg>