<svg xmlns="http://www.w3.org/2000/svg" viewBox="0 0 16 16"><style>.st0{fill:#f6f6f6}.st1{fill:#424242}.st2{fill:#f0eff1}.st3{fill:#e51400}.st4{fill:#fff}</style><path class="st0" d="M16 0H2v5H0v11h14v-.762a4.499 4.499 0 0 0 2-3.738c0-.171-.032-.334-.051-.5H16V0z" id="outline"/><g id="icon_x5F_bg"><path class="st1" d="M4 2h10l-3.75 3h2.418L14 4v3.762c.384.258.712.584 1 .945V1H3v4h1V4l1.332 1H7.75L4 2z"/><path class="st1" d="M7.762 14H2V9l4 3h1.051c-.019-.166-.051-.329-.051-.5 0-.186.033-.363.055-.544L7 11 2 7h10l-.056.045c.366.037.72.112 1.056.231V6H1v9h7.707a4.508 4.508 0 0 1-.945-1z"/></g><g id="icon_x5F_fg"><path class="st2" d="M5.332 5L4 4v1zM14 5V4l-1.332 1zM10.25 5L14 2H4l3.749 3zM11.944 7.045L12 7h-.495c.15 0 .293.03.439.045zM7.055 10.956C7.327 8.735 9.202 7.003 11.495 7H2l5 4 .055-.044zM7.051 12H6L2 9v5h5.761a4.482 4.482 0 0 1-.71-2z"/></g><path class="st3" d="M11.5 8a3.5 3.5 0 1 0-.001 6.999A3.5 3.5 0 0 0 11.5 8zm1.854 4.646l-.707.707-1.147-1.146-1.146 1.147-.707-.707 1.147-1.146-1.147-1.146.707-.707 1.146 1.147 1.146-1.147.707.707-1.146 1.145 1.147 1.146z" id="not_x5F_bg"/><path class="st4" d="M13.354 10.354l-.708-.708-1.146 1.147-1.146-1.147-.708.708 1.147 1.146-1.147 1.146.708.708 1.146-1.147 1.146 1.147.708-.708-1.147-1.146z" id="not_x5F_fg"/></svg>