<svg xmlns="http://www.w3.org/2000/svg" viewBox="0 0 16 16"><style>.st0{fill:#f6f6f6}.st1{fill:#424242}.st2{fill:#f0eff1}</style><path class="st0" d="M16 0H0v16h8v-4h8z" id="outline"/><g id="icon_x5F_bg"><path class="st1" d="M1.7 11.275l-.7.933V9h6v2.869L5.825 9.813c-.133-.233-.518-.233-.65 0l-1.717 3.005L2.3 11.275a.377.377 0 0 0-.6 0zm3.8-.519L7 13.381V15H1v-1.542l1-1.333 1.2 1.6a.39.39 0 0 0 .323.15.378.378 0 0 0 .302-.189l1.675-2.93z"/><path class="st1" d="M3.825 13.686a.375.375 0 0 1-.302.189.394.394 0 0 1-.323-.15l-1.2-1.6-1 1.333V15h6v-1.619l-1.5-2.625-1.675 2.93z"/><path class="st1" d="M1 9v3.208l.7-.933a.377.377 0 0 1 .6 0l1.158 1.543 1.717-3.005c.133-.233.518-.233.65 0L7 11.869V9H1z"/><path class="st1" d="M1 1v7h1V3l5 5h2l5-5v7H8v1h7V1H1zm7 6L3 2h10L8 7z"/></g><g id="icon_x5F_fg"><path class="st2" d="M3 2h10L8 7zM5.825 9.813c-.133-.233-.518-.233-.65 0l-1.717 3.005L2.3 11.275a.377.377 0 0 0-.6 0l-.7.933v1.25l1-1.333 1.2 1.6a.39.39 0 0 0 .323.15.378.378 0 0 0 .302-.189l1.675-2.93L7 13.381v-1.512L5.825 9.813zM7 8L2 3v5zM9 8H8v2h6V3z"/></g></svg>