<svg xmlns="http://www.w3.org/2000/svg" viewBox="0 0 16 16"><style>.st0{opacity:0}.st0,.st1{fill:#f6f6f6}.st2{fill:#424242}.st3{fill:#f0eff1}.st4{fill:#fff}</style><g id="outline"><path class="st0" d="M0 0h16v16H0z"/><path class="st1" d="M0 0v12h7.051c.252 2.244 2.139 4 4.449 4 2.311 0 4.197-1.756 4.449-4H16V0H0z"/></g><g id="icon_x5F_bg"><path class="st2" d="M2 10V3l5 5h1.707c.252-.201.522-.377.814-.521l.001-.001L14 3v4.762c.38.255.714.572 1 .928V1H1v10h6.049c.044-.345.114-.682.228-1H2zm11-8L8 7 3 2h10z"/><path class="st2" d="M14.944 11a3.479 3.479 0 0 0-.947-1.944A3.48 3.48 0 0 0 11.5 8a3.485 3.485 0 0 0-3.444 3c-.024.165-.051.329-.051.5 0 1.933 1.565 3.5 3.494 3.5a3.498 3.498 0 0 0 3.495-3.5c.001-.171-.025-.335-.05-.5zm-2.298 2.354L11.5 12.207l-1.144 1.147-.706-.707 1.145-1.146-.5-.5-.645-.646.353-.355.353-.354.353.354.791.793.792-.793.354-.354.352.354.354.354-.646.646-.5.5 1.145 1.146-.705.708z"/></g><g id="icon_x5F_fg"><path class="st3" d="M14 7.762V3L9.521 7.479A4.442 4.442 0 0 1 11.5 7c.925 0 1.784.281 2.5.762zM8.707 8H7L2 3v7h5.276a4.503 4.503 0 0 1 1.431-2zM3 2h10L8 7z"/></g><path class="st4" d="M13.354 10.354l-.708-.708-1.146 1.147-1.146-1.147-.708.708 1.147 1.146-1.147 1.146.708.708 1.146-1.147 1.146 1.147.708-.708-1.147-1.146z" id="not_x5F_fg"/></svg>