<svg xmlns="http://www.w3.org/2000/svg" viewBox="0 0 16 16"><style>.icon-canvas-transparent{opacity:0;fill:#f6f6f6}.icon-vs-out{fill:#f6f6f6}.icon-vs-bg{fill:#424242}.icon-vs-fg{fill:#f0eff1}.icon-vs-blue{fill:#1ba1e2}</style><path class="icon-canvas-transparent" d="M16 16H0V0h16v16z" id="canvas"/><path class="icon-vs-out" d="M16 14H0V2h16v12z" id="outline"/><path class="icon-vs-bg" d="M1 3v10h14V3H1zm13 9H2V4h12v8z" id="iconBg"/><path class="icon-vs-fg" d="M2 4v8h12V4H2zm5 6l-1 1-3-3 3-3 1 1-2 2 2 2zm3 1l-1-1 2-2-2-2 1-1 3 3-3 3z" id="iconFg"/><path class="icon-vs-blue" d="M13 8l-3 3-1-1 2-2-2-2 1-1 3 3zM3 8l3 3 1-1-2-2 2-2-1-1-3 3z" id="colorImportance"/></svg>