<svg xmlns="http://www.w3.org/2000/svg" viewBox="0 0 16 16"><style>.st0{opacity:0}.st0,.st1{fill:#f6f6f6}.st2{fill:#424242}.st3{fill:#f0eff1}</style><g id="outline"><path class="st0" d="M0 0h16v16H0z"/><path class="st1" d="M0 3h16v10H0z"/></g><path class="st2" d="M1.007 4v8h14V4h-14zm5.5 5.5l-.5.5-2-2 2-2 .5.5-1.5 1.5 1.5 1.5zm3.5.5l-.5-.5 1.5-1.5-1.5-1.5.5-.5 2 2-2 2z" id="icon_x5F_bg"/><path class="st3" d="M6.507 6.5L5.007 8l1.5 1.5-.5.5-2-2 2-2 .5.5zm3 0l1.5 1.5-1.5 1.5.5.5 2-2-2-2-.5.5z" id="icon_x5F_fg"/></svg>