<svg xmlns="http://www.w3.org/2000/svg" viewBox="0 0 16 16"><style>.st0{opacity:0}.st0,.st1{fill:#f6f6f6}.st2{fill:#424242}.st3{stroke:#424242;stroke-width:.15;stroke-miterlimit:10}.st3,.st4{fill:#f0eff1}</style><g id="outline"><path class="st0" d="M0 0h16v16H0z"/><path class="st1" d="M10.066.27L4.215 3.23v1.482l-3 1.518v6.669L6.137 16h2.272l4.29-3.146v-.8l3-2.2V3.242z"/></g><path class="st2" d="M10.057 1.396L5.215 3.845v1.482l.184-.093-3.184 1.61v5.503l5.102 3.213 4.383-3.213v-.801l3-2.199V3.845l-4.643-2.449zM5.988 4.729l.195.109-.195.098v-.207zM7 14.436l-.031.021v.02l-.012-.01-.01.01v-.02l-3.959-2.58V7.728L7 9.969v4.467zm.258-5.156L3.389 7.074 7 5.24l3.838 1.891-3.58 2.149zm3.736 2.724l-3.105 2.237V9.926l3.105-1.894v3.972zm3-3l-2.295 1.653V6.845L7.057 4.396l-.724.366.669-.338-.613-.35L10 2.24l3.838 1.891-3.406 2.045.904.477 2.658-1.622v3.973z" id="icon_x5F_bg"/><g id="icon_x5F_fg"><path class="st3" d="M7 5.24l3.838 1.891-3.58 2.149-3.869-2.206zM7 14.436l-.031.021v.02l-.012-.01-.01.01v-.02l-3.959-2.58V7.728L7 9.969zM10.994 12.004l-3.105 2.237V9.926l3.105-1.894z"/><path class="st4" d="M11.336 6.653l.363.192v3.812l2.295-1.653V5.031z"/><path class="st2" d="M11.259 6.612l.154.082 2.506-1.529v3.8l-2.22 1.599v.186l2.37-1.708V4.897z"/><path class="st4" d="M7.057 4.396l3.375 1.78 3.406-2.045L10 2.24 6.389 4.074l.612.349z"/><path class="st2" d="M10.033 2.173l-.034-.017L6.23 4.07l.691.394.136-.068.628.331-1.138-.649 3.454-1.754 3.681 1.813-3.328 1.998.155.082 3.368-2.022.117-.07z"/></g></svg>