<svg xmlns="http://www.w3.org/2000/svg" viewBox="0 0 16 16" enable-background="new 0 0 16 16"><style type="text/css">.icon-canvas-transparent{opacity:0;fill:#F6F6F6;} .icon-vs-out{fill:#F6F6F6;} .icon-vs-fg{fill:#F0EFF1;} .icon-vs-action-purple{fill:#652D90;}</style><path class="icon-canvas-transparent" d="M16 16h-16v-16h16v16z" id="canvas"/><path class="icon-vs-out" d="M0 11.14v-7.234l6.147-3.208 5.853 3.232v7.344l-5.522 4.046-6.478-4.18z" id="outline"/><path class="icon-vs-fg" d="M9.776 4.986l-3.365 2.087-3.941-2.2 3.65-1.906 3.656 2.019zm-7.776.77l4 2.233v4.642l-4-2.581v-4.294zm5 6.702v-4.574l3-1.86v4.234l-3 2.2z" id="iconFg"/><path class="icon-vs-action-purple" d="M6.134 1.833l-5.134 2.679v6.083l5.442 3.512 4.558-3.34v-6.247l-4.866-2.687zm3.642 3.153l-3.365 2.087-3.941-2.2 3.65-1.906 3.656 2.019zm-7.776.77l4 2.233v4.642l-4-2.581v-4.294zm5 6.702v-4.574l3-1.86v4.234l-3 2.2z" id="iconBg"/></svg>