<svg xmlns="http://www.w3.org/2000/svg" viewBox="0 0 16 16"><style>.st0{opacity:0}.st0,.st1{fill:#f6f6f6}.st2{fill:#388a34}.st3{fill:#652d90}.st4{fill:#f0eff1;stroke:#652d90;stroke-width:.15;stroke-miterlimit:10}</style><g id="outline"><path class="st0" d="M0 0h16v16H0z"/><path class="st1" d="M16 10h-2V8h-4v2H8v4h2v2h4v-2h2z"/><path class="st1" d="M.167 8.426v-5.57L5.051.386l4.704 2.481V8.38l-4.464 3.272L.167 8.426z"/></g><g id="color_x5F_action"><path id="Foreground_2_" class="st2" d="M15 11h-2V9h-2v2H9v2h2v2h2v-2h2z"/></g><path class="st3" d="M8.755 7.874V3.471L5.041 1.512 1.167 3.471v4.403l4.081 2.57 3.507-2.57zm-3.76-5.686l3.07 1.514L5.201 5.42 2.106 3.654l2.889-1.466zm-.024 7.374v.016l-.01-.008-.008.007v-.015L1.786 7.497V4.178l3.209 1.793v3.573l-.024.018zM8.19 7.599L5.614 9.455V5.992L8.19 4.426v3.173z" id="color_x5F_decoration"/><g id="icon_x5F_fg"><path class="st4" d="M4.995 2.188l3.07 1.513L5.201 5.42 2.106 3.654zM4.971 9.562v.015l-.01-.008-.008.008v-.015L1.786 7.497V4.178l3.209 1.793v3.573zM8.19 7.599L5.614 9.455V5.992L8.19 4.426z"/></g></svg>