<svg xmlns="http://www.w3.org/2000/svg" viewBox="0 0 16 16"><style>.icon-canvas-transparent{opacity:0;fill:#f6f6f6}.icon-vs-out{fill:#f6f6f6}.icon-vs-fg{fill:#f0eff1}.icon-vs-action-red{fill:#a1260d}.icon-vs-action-purple{fill:#652d90}</style><path class="icon-canvas-transparent" d="M16 16H0V0h16v16z" id="canvas"/><path class="icon-vs-out" d="M7.525 14l1.97-1.97-1.97-1.97.17-.17-2.405 1.763L.167 8.426v-5.57L5.051.386l4.704 2.481V7.83L10 7.586l1.97 1.97 1.97-1.97L16 9.646v.828l-1.556 1.556L16 13.586v.828L14.414 16h-.949l-1.495-1.495L10.475 16h-.95l-2-2z" id="outline"/><path class="icon-vs-fg" d="M8.065 3.701L5.201 5.42 2.106 3.654l2.889-1.467 3.07 1.514zM5.614 5.992v3.463L8.19 7.599V4.426L5.614 5.992zM1.786 7.497l3.167 2.064v.016l.008-.008.01.008v-.015l.024-.018V5.971L1.786 4.178v3.319z" id="iconBg"/><path class="icon-vs-action-purple" d="M5.041 1.512L1.167 3.471v4.403l4.081 2.57 3.507-2.57V3.471L5.041 1.512zm2.868 2.196L5.2 5.333 2.265 3.658l2.731-1.387 2.913 1.437zM4.92 9.45L1.861 7.457V4.306L4.92 6.015V9.45zm3.195-1.89L5.689 9.309V6.034l2.426-1.475V7.56z" id="iconFg"/><path class="icon-vs-action-red" d="M13.03 12.03L15 14l-1.061 1.061-1.97-1.97L10 15.061 8.939 14l1.97-1.97-1.97-1.97L10 9l1.97 1.97L13.939 9 15 10.061l-1.97 1.969z" id="colorAction"/></svg>