<svg xmlns="http://www.w3.org/2000/svg" viewBox="0 0 16 16"><style>.st0{fill:#f6f6f6}.st1{fill:#424242}.st2{fill:#f0eff1}</style><path class="st0" d="M14.432 6.034l1.5-1.5-2.914-2.914-1.414 1.414h-.172L8.397 0h-.76l-3 3H0v13h13v-4h.465L16 9.466V7.603l-1.568-1.569zM7 7.465l1.017-1.017V9H7V7.465z" id="outline"/><g id="icon_x5F_bg"><path class="st1" d="M1 9h5V4H1v5zm1-4h.884l.535 1.774.024.094.028.109c.008.038.017.074.023.11a.84.84 0 0 1 .017.095h.012l.021-.097.028-.11.03-.11a.902.902 0 0 0 .025-.095L4.137 5H5v3h-.584V6.227c0-.063 0-.125.002-.187l.006-.175a4.9 4.9 0 0 1 .008-.15l.006-.114h-.015l-.02.103c-.006.035-.012.071-.02.105a1.746 1.746 0 0 1-.043.172L3.734 8h-.51L2.61 6.004a.852.852 0 0 1-.02-.074l-.024-.11a26.003 26.003 0 0 0-.021-.116l-.018-.103h-.016a4.201 4.201 0 0 1 .016.359l.006.208.001.196V8H2V5zM1 15h5v-5H1v5zm1-4h2.594v.549h-1.91v.905h1.823V13H2.684v1H2v-3zM7 10v5h5v-5H7zm3.519 1.748a1.323 1.323 0 0 0-.281-.126 1.222 1.222 0 0 0-.386-.056c-.124 0-.242.021-.352.061a.82.82 0 0 0-.288.18.844.844 0 0 0-.193.297 1.118 1.118 0 0 0-.071.414c0 .134.02.257.062.369.041.112.1.209.176.291a.774.774 0 0 0 .273.189.899.899 0 0 0 .362.069c.075 0 .146-.006.215-.016a1.527 1.527 0 0 0 .353-.105c.05-.023.093-.045.13-.069v.6a.92.92 0 0 1-.147.061c-.061.02-.125.035-.197.048A2.627 2.627 0 0 1 9.69 14c-.236 0-.444-.037-.623-.111a1.26 1.26 0 0 1-.447-.305 1.263 1.263 0 0 1-.269-.455 1.728 1.728 0 0 1-.091-.564c0-.234.038-.447.114-.64.076-.191.183-.356.319-.493.137-.136.299-.241.488-.315.188-.074.396-.111.621-.111.074 0 .148.003.221.009a2.777 2.777 0 0 1 .377.054c.051.013.09.026.117.04v.639z"/><path class="st1" d="M14.018 7.034l-1 1h-3v-3h1l-.5.5 1.5 1.5 2.5-2.5-1.5-1.5-1 1h-3l1-1-2.001-2L6.051 3H7v3.051l1.017-1.017h1.001V9H13v2.017l.018.017 2.5-2.5z"/></g><g id="icon_x5F_fg"><path class="st2" d="M2.684 13h1.823v-.546H2.684v-.905h1.91V11H2v3h.684zM10.231 11.036a2.37 2.37 0 0 0-.206-.022 2.667 2.667 0 0 0-.221-.009c-.226 0-.433.037-.621.111a1.42 1.42 0 0 0-.488.315 1.451 1.451 0 0 0-.319.493 1.724 1.724 0 0 0-.114.64c0 .201.031.39.091.564.06.174.148.326.269.455.12.13.27.231.447.305.177.075.385.112.621.112a2.59 2.59 0 0 0 .484-.045c.072-.013.137-.028.197-.048a.87.87 0 0 0 .147-.061v-.6a1.218 1.218 0 0 1-.292.13 1.569 1.569 0 0 1-.191.044c-.068.01-.14.016-.215.016a.896.896 0 0 1-.362-.069.787.787 0 0 1-.273-.189.856.856 0 0 1-.176-.291 1.066 1.066 0 0 1-.062-.369c0-.157.024-.296.071-.414a.844.844 0 0 1 .193-.297.82.82 0 0 1 .288-.18c.109-.04.228-.061.352-.061a1.226 1.226 0 0 1 .667.182v-.64a.599.599 0 0 0-.117-.04 2.097 2.097 0 0 0-.17-.032zM2.534 6.364l-.001-.196-.006-.208a4.075 4.075 0 0 0-.016-.359h.017l.017.103.021.116.024.11a.852.852 0 0 0 .02.074L3.225 8h.51l.605-2.019a.563.563 0 0 0 .02-.075c.008-.03.016-.063.022-.098.008-.033.015-.069.021-.104l.02-.104h.015l-.006.115a4.9 4.9 0 0 0-.008.15l-.006.175c-.002.062-.002.123-.002.187V8H5V5h-.863l-.508 1.771-.025.094-.03.11c-.011.038-.02.074-.028.11-.01.036-.017.068-.023.098h-.011a.88.88 0 0 0-.017-.095l-.023-.11a1.954 1.954 0 0 1-.028-.109 1.458 1.458 0 0 1-.024-.094L2.884 5H2v3h.534V6.364z"/></g></svg>