<?xml version="1.0" encoding="iso-8859-1"?>
<!-- Generator: Adobe Illustrator 21.0.0, SVG Export Plug-In . SVG Version: 6.00 Build 0)  -->
<svg version="1.1" xmlns="http://www.w3.org/2000/svg" xmlns:xlink="http://www.w3.org/1999/xlink" x="0px" y="0px"
	 viewBox="0 0 16 16" style="enable-background:new 0 0 16 16;" xml:space="preserve">
<style type="text/css">
	.icon_x002D_canvas_x002D_transparent{opacity:0;fill:#F6F6F6;}
	.icon_x002D_vs_x002D_out{fill:#F6F6F6;}
	.icon_x002D_vs_x002D_bg{fill:#424242;}
	.icon_x002D_vs_x002D_fg{fill:#F0EFF1;}
	.icon_x002D_vs_x002D_blue{fill:#1BA1E2;}
</style>
<g id="canvas">
	<path class="icon_x002D_canvas_x002D_transparent" d="M16,16H0V0h16V16z"/>
</g>
<g id="outline">
	<path class="icon_x002D_vs_x002D_out" d="M16,3v6c0,1.279-1.202,2.321-3,2.767V16H0V3h6c0-1.711,2.149-3,5-3
		C13.851,0,16,1.289,16,3z"/>
</g>
<g id="iconBg">
	<path class="icon_x002D_vs_x002D_bg" d="M1,9h5V4H1V9z M2,5h0.884l0.535,1.774c0.007,0.027,0.015,0.059,0.024,0.094
		c0.009,0.035,0.018,0.071,0.028,0.109c0.008,0.038,0.017,0.074,0.023,0.11c0.008,0.035,0.014,0.067,0.017,0.095h0.012
		c0.006-0.029,0.013-0.062,0.021-0.097c0.009-0.036,0.018-0.072,0.028-0.11c0.011-0.038,0.021-0.074,0.03-0.11
		c0.011-0.034,0.019-0.066,0.025-0.095L4.137,5H5v3H4.416V6.227c0-0.063,0-0.125,0.002-0.187C4.42,5.979,4.423,5.921,4.424,5.865
		C4.426,5.81,4.429,5.76,4.432,5.715C4.435,5.668,4.437,5.63,4.438,5.601H4.423C4.416,5.633,4.41,5.667,4.403,5.704
		C4.397,5.739,4.391,5.775,4.383,5.809C4.376,5.843,4.368,5.876,4.36,5.906C4.354,5.936,4.347,5.961,4.34,5.981L3.734,8h-0.51
		L2.61,6.004C2.604,5.987,2.598,5.963,2.59,5.93C2.582,5.896,2.575,5.859,2.566,5.82C2.559,5.781,2.552,5.742,2.545,5.704
		C2.538,5.664,2.532,5.63,2.527,5.601H2.511c0.004,0.045,0.007,0.099,0.01,0.161C2.522,5.824,2.524,5.891,2.527,5.96
		c0.002,0.068,0.004,0.139,0.006,0.208c0.001,0.071,0.001,0.137,0.001,0.196V8H2V5z M1,15h5v-5H1V15z M2,11h2.594v0.549h-1.91v0.905
		h1.823V13H2.684v1H2V11z M7,10v5h5v-5H7z M10.519,11.748c-0.076-0.047-0.169-0.089-0.281-0.126
		c-0.111-0.037-0.24-0.056-0.386-0.056c-0.124,0-0.242,0.021-0.352,0.061c-0.109,0.04-0.206,0.101-0.288,0.18
		c-0.082,0.08-0.146,0.179-0.193,0.297c-0.047,0.118-0.071,0.257-0.071,0.414c0,0.134,0.02,0.257,0.062,0.369
		c0.041,0.112,0.1,0.209,0.176,0.291c0.075,0.081,0.167,0.145,0.273,0.189c0.108,0.047,0.229,0.069,0.362,0.069
		c0.075,0,0.146-0.006,0.215-0.016c0.067-0.012,0.131-0.025,0.191-0.044c0.059-0.018,0.113-0.038,0.162-0.061
		c0.05-0.023,0.093-0.045,0.13-0.069v0.6c-0.039,0.022-0.089,0.041-0.147,0.061c-0.061,0.02-0.125,0.035-0.197,0.048
		c-0.073,0.014-0.149,0.024-0.23,0.033C9.863,13.996,9.778,14,9.69,14c-0.236,0-0.444-0.037-0.623-0.111
		C8.89,13.815,8.74,13.714,8.62,13.584c-0.12-0.129-0.209-0.281-0.269-0.455c-0.06-0.175-0.091-0.363-0.091-0.564
		c0-0.234,0.038-0.447,0.114-0.64c0.076-0.191,0.183-0.356,0.319-0.493c0.137-0.136,0.299-0.241,0.488-0.315
		c0.188-0.074,0.396-0.111,0.621-0.111c0.074,0,0.148,0.003,0.221,0.009c0.074,0.005,0.143,0.013,0.206,0.022
		c0.064,0.009,0.122,0.02,0.171,0.032c0.051,0.013,0.09,0.026,0.117,0.04V11.748z"/>
</g>
<g id="iconFg">
	<path class="icon_x002D_vs_x002D_fg" d="M2.684,14H2v-3h2.594v0.549h-1.91v0.905h1.823V13H2.684V14z M10.231,11.036
		c-0.064-0.01-0.132-0.017-0.206-0.022c-0.072-0.006-0.146-0.009-0.221-0.009c-0.226,0-0.433,0.037-0.621,0.111
		c-0.189,0.074-0.352,0.18-0.488,0.315c-0.137,0.138-0.243,0.302-0.319,0.493c-0.076,0.192-0.114,0.405-0.114,0.64
		c0,0.201,0.031,0.39,0.091,0.564c0.06,0.174,0.148,0.326,0.269,0.455c0.12,0.13,0.27,0.231,0.447,0.305
		C9.246,13.963,9.454,14,9.69,14c0.088,0,0.173-0.004,0.254-0.012c0.081-0.009,0.157-0.02,0.23-0.033
		c0.072-0.013,0.137-0.028,0.197-0.048c0.058-0.019,0.107-0.039,0.147-0.061v-0.6c-0.037,0.024-0.08,0.047-0.13,0.069
		c-0.049,0.023-0.103,0.043-0.162,0.061c-0.061,0.019-0.124,0.032-0.191,0.044c-0.068,0.01-0.14,0.016-0.215,0.016
		c-0.134,0-0.254-0.022-0.362-0.069c-0.106-0.045-0.198-0.108-0.273-0.189c-0.076-0.082-0.135-0.179-0.176-0.291
		c-0.041-0.112-0.062-0.235-0.062-0.369c0-0.157,0.024-0.296,0.071-0.414c0.047-0.118,0.111-0.217,0.193-0.297
		c0.082-0.079,0.179-0.14,0.288-0.18c0.109-0.04,0.228-0.061,0.352-0.061c0.146,0,0.274,0.019,0.386,0.056
		c0.112,0.037,0.205,0.079,0.281,0.126v-0.64c-0.027-0.014-0.067-0.027-0.117-0.04C10.352,11.057,10.295,11.045,10.231,11.036z
		 M2.534,6.364c0-0.06,0-0.125-0.001-0.196C2.531,6.099,2.529,6.028,2.527,5.96C2.524,5.891,2.522,5.824,2.521,5.762
		c-0.003-0.063-0.006-0.116-0.01-0.161h0.017C2.532,5.63,2.538,5.664,2.545,5.704C2.552,5.742,2.559,5.781,2.566,5.82
		C2.575,5.859,2.582,5.896,2.59,5.93C2.598,5.963,2.604,5.987,2.61,6.004L3.225,8h0.51L4.34,5.981
		C4.347,5.961,4.354,5.936,4.36,5.906c0.008-0.03,0.016-0.063,0.022-0.098c0.008-0.033,0.015-0.069,0.021-0.104
		c0.007-0.037,0.013-0.071,0.02-0.104h0.015C4.437,5.63,4.435,5.668,4.432,5.715C4.429,5.76,4.426,5.81,4.424,5.865
		C4.423,5.921,4.42,5.979,4.418,6.04C4.416,6.102,4.416,6.163,4.416,6.227V8H5V5H4.137L3.629,6.771
		C3.622,6.799,3.614,6.831,3.604,6.865c-0.01,0.036-0.02,0.072-0.03,0.11c-0.011,0.038-0.02,0.074-0.028,0.11
		C3.536,7.121,3.529,7.153,3.523,7.183H3.512c-0.003-0.027-0.009-0.06-0.017-0.095c-0.007-0.036-0.016-0.072-0.023-0.11
		c-0.011-0.038-0.02-0.074-0.028-0.109c-0.01-0.035-0.018-0.066-0.024-0.094L2.884,5H2v3h0.534V6.364z M11,1.675
		C9.001,1.675,7.675,2.473,7.675,3S9.001,4.325,11,4.325c1.999,0,3.325-0.798,3.325-1.325S12.999,1.675,11,1.675z"/>
</g>
<g id="colorImportance">
	<path class="icon_x002D_vs_x002D_blue" d="M11,1C8.791,1,7,1.896,7,3v6h6v1.723c1.19-0.347,2-0.984,2-1.723V3
		C15,1.896,13.209,1,11,1z M11,4.325C9.001,4.325,7.675,3.527,7.675,3S9.001,1.675,11,1.675c1.999,0,3.325,0.798,3.325,1.325
		S12.999,4.325,11,4.325z"/>
</g>
</svg>
