<svg xmlns="http://www.w3.org/2000/svg" width="16" height="16"><style type="text/css">.icon-canvas-transparent{opacity:0;fill:#F6F6F6;} .icon-vs-out{fill:#F6F6F6;} .icon-vs-bg{fill:#424242;} .icon-vs-fg{fill:#F0EFF1;}</style><path class="icon-canvas-transparent" d="M16 16h-16v-16h16v16z" id="canvas"/><path class="icon-vs-out" d="M4 15c-.97 0-2-.701-2-2v-10c0-1.299 1.03-2 2-2h6.061l3.939 3.556v8.444c0 .97-.701 2-2 2h-8z" id="outline"/><path class="icon-vs-bg" d="M9.641,2H3.964C3.964,2,3,2,3,3c0,0.805,0,7.442,0,10c0,1,0.965,1,0.965,1s7,0,8,0S13,13,13,13V5L9.641,2z M12,13H4V3h5v3h3V13z" id="iconBg"/><path class="icon-vs-fg" d="M4 3h5v3h3v7h-8v-10z" id="iconFg"/><path class="icon-vs-bg" d="M11 11h-.909v-2.187c0-.421-.06-.725-.179-.913-.118-.188-.319-.282-.601-.282-.237 0-.44.119-.606.357-.165.237-.248.522-.248.854v2.171h-.914v-2.261c0-.747-.264-1.121-.792-1.121-.246 0-.448.112-.605.337-.158.224-.237.516-.237.874v2.171h-.909v-4.013h.909v.635h.016c.29-.486.712-.729 1.266-.729.277 0 .519.076.727.229.207.153.349.353.425.602.298-.554.742-.831 1.332-.831.884 0 1.325.545 1.325 1.634v2.473z" id="colorImportance"/></svg>