<svg xmlns="http://www.w3.org/2000/svg" viewBox="0 0 16 16"><style>.st0{opacity:0}.st0,.st1{fill:#f6f6f6}.st2{fill:#424242}.st3{fill:#f0eff1}.st4{fill:#e51400}</style><g id="outline"><path class="st0" d="M0 0h16v16H0z"/><path class="st1" d="M14.297 8C15.327 7.175 16 5.922 16 4.5a4.5 4.5 0 0 0-9 0c0 .082.02.158.024.239l-5.777 6.603-.455.452c-.322.322-.5.751-.5 1.207 0 .456.178.885.5 1.207l1 1c.322.322.751.5 1.207.5.456 0 .885-.178 1.207-.5l.501-.501 2.437-2.131A4.492 4.492 0 0 0 11.5 16a4.5 4.5 0 0 0 4.5-4.5c0-1.423-.673-2.675-1.703-3.5z"/></g><path class="st2" d="M11.5 1A3.499 3.499 0 0 0 8 4.5c0 .197.026.388.059.576L2 12l-.501.501a.707.707 0 0 0 0 1l.5.5.5.5a.707.707 0 0 0 1 0L4 14l3.014-2.637A4.492 4.492 0 0 1 11.5 7 2.502 2.502 0 0 1 9 4.5c0-.509.154-.981.416-1.377l3.461 3.461A2.486 2.486 0 0 1 11.5 7c.682 0 1.32.163 1.899.434A3.491 3.491 0 0 0 15 4.5C15 2.566 13.434 1 11.5 1zm2.084 4.877l-3.461-3.461A2.486 2.486 0 0 1 11.5 2C12.879 2 14 3.121 14 4.5c0 .509-.154.981-.416 1.377z" id="icon_x5F_bg"/><g id="icon_x5F_fg"><path class="st3" d="M13.584 5.877c.262-.396.416-.868.416-1.377C14 3.121 12.879 2 11.5 2c-.509 0-.981.154-1.377.416l3.461 3.461zM9.416 3.123A2.486 2.486 0 0 0 9 4.5C9 5.879 10.121 7 11.5 7c.509 0 .981-.154 1.377-.416L9.416 3.123z"/></g><path class="st4" d="M11.487 8a3.488 3.488 0 1 0 .002 6.976A3.488 3.488 0 0 0 11.487 8zM9 11.487c0-.529.169-1.019.452-1.422l3.37 3.514a2.473 2.473 0 0 1-1.335.396A2.491 2.491 0 0 1 9 11.487zm4.543 1.398L10.181 9.38A2.47 2.47 0 0 1 11.487 9a2.49 2.49 0 0 1 2.487 2.487c.001.518-.16.999-.431 1.398z" id="not_x5F_bg"/></svg>