<svg xmlns="http://www.w3.org/2000/svg" viewBox="0 0 16 16"><style>.st0{opacity:0}.st0,.st1{fill:#f6f6f6}.st2{fill:none}.st3{fill:#424242}.st4{fill:#f0eff1}</style><g id="outline"><path class="st0" d="M0 0h16v16H0z"/><path class="st1" d="M1 0h15v16H1z"/></g><g id="icon_x5F_bg"><path class="st2" d="M10 4.5V6L9 5v2H8V5L7 6V4.5L8.5 3H3v5.5L4.5 7H6L5 8h2v1H5l1 1H4.5L3 8.5V14h5.5L7 12.5V11l1 1v-2h1v2l1-1v1.5L8.5 14H14V8.5L12.5 10H11l1-1h-2V8h2l-1-1h1.5L14 8.5V3H8.5z"/><path class="st3" d="M2 1v14h13V1H2zm12 7.5V14H3V3h11v5.5z"/><path class="st3" d="M6 10L5 9h2V8H5l1-1H4.5L3 8.5 4.5 10zM7 6l1-1v2h1V5l1 1V4.5L8.5 3 7 4.5zM10 11l-1 1v-2H8v2l-1-1v1.5L8.5 14l1.5-1.5zM11 7l1 1h-2v1h2l-1 1h1.5L14 8.5 12.5 7z"/></g><path class="st4" d="M8.5 3L10 4.5V6L9 5v2H8V5L7 6V4.5L8.5 3H3v5.5L4.5 7H6L5 8h2v1H5l1 1H4.5L3 8.5V14h5.5L7 12.5V11l1 1v-2h1v2l1-1v1.5L8.5 14H14V8.5L12.5 10H11l1-1h-2V8h2l-1-1h1.5L14 8.5V3z" id="icon_x5F_fg"/></svg>