<svg xmlns="http://www.w3.org/2000/svg" viewBox="0 0 16 16"><style>.icon-canvas-transparent{opacity:0;fill:#f6f6f6}.icon-vs-out{fill:#f6f6f6}.icon-vs-bg{fill:#424242}</style><path class="icon-canvas-transparent" d="M16 16H0V0h16v16z" id="canvas"/><path class="icon-vs-out" d="M14 2v11h-4v1H2v-1.6l1-1.6V2h11z" id="outline"/><g id="iconBg"><path class="icon-vs-bg" d="M3 13l3-5 3 5H3zm5.082-3.67A3.001 3.001 0 0 1 11 7a2.98 2.98 0 0 1 2 .78V3H4v6.201L6 6l2.082 3.33zm2.856-1.392a2.062 2.062 0 1 0-.002 4.124 2.062 2.062 0 0 0 .002-4.124z"/></g></svg>