<svg xmlns="http://www.w3.org/2000/svg" viewBox="0 0 16 16"><defs><style>.icon-canvas-transparent,.icon-vs-out{fill:#f6f6f6;}.icon-canvas-transparent{opacity:0;}.icon-vs-fg{fill:#f0eff1;}.icon-vs-bg{fill:#424242;}</style></defs><title>MobileUserControl_16x</title><g id="canvas"><path class="icon-canvas-transparent" d="M16,0V16H0V0Z"/></g><g id="outline"><path class="icon-vs-out" d="M16,12H8v2a2,2,0,0,1-2,2H2a2,2,0,0,1-2-2V7A2,2,0,0,1,2,5H5.91a4.41,4.41,0,0,1-.046-.559,4.441,4.441,0,1,1,7.964,2.7,5.639,5.639,0,0,1,2.052,3.749Z"/></g><g id="iconFg"><path class="icon-vs-fg" d="M2,7v7H6V7Zm2.5,6h-1V12h1Z"/></g><g id="iconBg"><path class="icon-vs-bg" d="M12.208,7.3A3.445,3.445,0,1,0,6.964,5.259,1.993,1.993,0,0,1,8,6.985a3.468,3.468,0,0,0,.4.32c-.139.063-.27.139-.4.215V8.73a3.564,3.564,0,0,1,2.3-.848A3.611,3.611,0,0,1,13.871,11h1.013A4.618,4.618,0,0,0,12.208,7.3Zm-1.9-.422a2.441,2.441,0,1,1,2.44-2.441A2.444,2.444,0,0,1,10.3,6.882ZM6,6H2A1,1,0,0,0,1,7v7a1,1,0,0,0,1,1H6a1,1,0,0,0,1-1V7A1,1,0,0,0,6,6Zm0,8.5V14H2V7H6v7H6ZM3.5,12h1v1h-1Z"/></g></svg>