<svg xmlns="http://www.w3.org/2000/svg" viewBox="0 0 16 16"><style>.st0{opacity:0}.st0,.st1{fill:#f6f6f6}.st2{fill:none}.st3{fill:#424242}.st4{fill:#f0eff1}</style><g id="outline"><path class="st0" d="M0 0h16v16H0z"/><path class="st1" d="M16 9V0H9v6.638l-.396.396h-.172L5.018 3.62.104 8.534l3.414 3.414 1.5-1.5v3.586h2.586L9.568 16h.897l3.467-3.466-2.5-2.5L12.466 9z"/></g><g id="icon_x5F_bg"><path class="st2" d="M11 6h1v1h-1zM11 2h3v3h-3zM13 6h1v1h-1z"/><path class="st3" d="M11.018 11.034l-1 1h-3v-3h1l-.5.5 1.5 1.5 2.5-2.5-1.5-1.5-1 1h-3l1-1-2-2-3.5 3.5 2 2 1.5-1.5h1v4h3l-.5.5 1.5 1.5 2.5-2.5zM10 1v4.638l.018-.018.982.983V6h1v1h-.602l1 1H15V1h-5zm4 6h-1V6h1v1zm0-2h-3V2h3v3z"/></g><g id="icon_x5F_fg"><path class="st4" d="M11 2h3v3h-3zM13 6h1v1h-1zM11.398 7H12V6h-1v.603z"/></g></svg>