<svg xmlns="http://www.w3.org/2000/svg" viewBox="0 0 16 16"><style>.st0{fill:#f6f6f6}.st1{fill:#424242}.st2{fill:#f0eff1}</style><path class="st0" d="M12.061 0H6c-.97 0-2 .701-2 2v.903l-.5-.218V2.68l-1.402.616A3.503 3.503 0 0 0 0 6.5c0 1.157.572 2.222 1.5 2.868V11c0 1.103.897 2 2 2 .247 0 .481-.051.7-.134.179.384.458.684.8.871V16h7v-2h2c1.299 0 2-1.03 2-2V3.556L12.061 0z" id="outline"/><g id="icon_x5F_bg"><path class="st1" d="M4.5 4.211V7h-2V4.211a2.495 2.495 0 1 0 0 4.576V11a1 1 0 0 0 2 0V8.789a2.497 2.497 0 0 0 0-4.578zM6 8v7h5V8H6zm2 6H7v-1h1v1zm2 0H9v-1h1v1zm0-2H7V9h3v3z"/><path class="st1" d="M11.641 1H5.964S5 1 5 2v1.348c.38.181.715.425 1 .717V2h5v3h3v7h-2v1h1.965c1 0 1.035-1 1.035-1V4l-3.359-3z"/></g><g id="icon_x5F_fg"><path class="st2" d="M7 13h1v1H7zM9 13h1v1H9zM7 9h3v3H7z"/><path class="st2" d="M11 5V2H6v2.064c.625.642 1 1.507 1 2.436 0 .171-.037.334-.062.5H12v5h2V5h-3z"/></g></svg>