<svg xmlns="http://www.w3.org/2000/svg" viewBox="0 0 16 16"><style>.st0{opacity:0}.st0,.st1{fill:#f6f6f6}.st2{fill:#424242}.st3{fill:#f0eff1}</style><g id="outline"><path class="st0" d="M0 0h16v16H0z"/><path class="st1" d="M13 1V0H1v15h3v1h12V1h-3z"/></g><path class="st2" d="M11 2V1H2v13h4v1h9V2h-4zM4 13H3v-1h1v1zm2-2H3V2h3v9zm2 3H7v-1h1v1zm3 0h-1v-1h1v1zm3 0h-1v-1h1v1zm0-2H7V3h7v9z" id="icon_x5F_bg"/><g id="icon_x5F_fg"><path class="st3" d="M11 14h-1v-.917h1V14zm3-.917h-1V14h1v-.917zm-6 0H7V14h1v-.917zM14 3H7v9h7V3zM3 12h1v1H3zM3 2h3v9H3z"/></g></svg>