<svg xmlns="http://www.w3.org/2000/svg" viewBox="0 0 16 16"><style>.st0{fill:#f6f6f6}.st1{fill:#424242}.st2{fill:#77bf30}</style><path class="st0" d="M2.586 16L0 13.414V2.586L2.586 0h10.828L16 2.586v10.828L13.414 16H2.586z" id="outline"/><path class="st1" d="M13 1H3L1 3v10l2 2h10l2-2V3l-2-2zm-.342 10.213l.002.006c-.136.07-.989.627-1.611 1.032-1.878 1.226-1.876 1.222-2.126 1.146a.56.56 0 0 1-.342-.284c-.184-.356-.184-.356 1.717-3.444l.453-.736c-.766.492-1.656 1.07-2.459 1.59-3.907 2.536-4.475 2.904-4.744 2.904-.046 0-.083-.011-.126-.023a.569.569 0 0 1-.336-.28c-.253-.476-.253-.476 4.522-5.28.333-.335.68-.683 1.026-1.033l-.364.236c-4.56 2.96-4.556 2.952-4.845 2.868a.568.568 0 0 1-.34-.281c-.214-.407-.214-.407 2.61-4.041l.601-.773c-1.398.908-2.036 1.321-2.378 1.504a.513.513 0 0 1-.34.14c-.012 0-.023-.006-.035-.008a.478.478 0 0 1-.122-.02l.002-.006a.589.589 0 0 1-.395-.569c0-.254.144-.469.346-.559l-.004-.01c.188-.093 1.461-.919 2.483-1.585 2.711-1.763 2.711-1.76 2.978-1.681a.56.56 0 0 1 .33.272c.223.41.223.41-2.629 4.077-.202.259-.412.532-.624.802l1.801-1.165c4.895-3.178 4.889-3.175 5.202-2.604.251.484.251.484-4.56 5.323-.319.321-.651.658-.984.992l.365-.236c4.565-2.963 4.555-2.958 4.854-2.872a.566.566 0 0 1 .341.286c.184.354.184.354-1.718 3.444l-.41.667c.778-.505 1.167-.755 1.393-.871a.5.5 0 0 1 .28-.094c.305 0 .552.269.552.603a.603.603 0 0 1-.366.563z" id="icon_x5F_bg"/><path class="st2" d="M13.023 10.649a.602.602 0 0 1-.365.564l.002.006c-.136.07-.989.627-1.611 1.032-1.878 1.226-1.876 1.222-2.126 1.146a.56.56 0 0 1-.342-.284c-.184-.356-.184-.356 1.717-3.444l.453-.736c-.766.492-1.656 1.07-2.459 1.59-3.907 2.536-4.475 2.904-4.744 2.904-.046 0-.083-.011-.126-.023a.569.569 0 0 1-.336-.28c-.253-.476-.253-.476 4.522-5.28.333-.335.68-.683 1.026-1.033l-.364.236c-4.56 2.96-4.556 2.952-4.845 2.868a.568.568 0 0 1-.34-.281c-.214-.407-.214-.407 2.61-4.041l.601-.773c-1.398.908-2.036 1.321-2.378 1.504a.513.513 0 0 1-.34.14c-.012 0-.023-.006-.035-.008a.478.478 0 0 1-.122-.02l.002-.006a.589.589 0 0 1-.395-.569c0-.254.144-.469.346-.559l-.004-.01c.188-.093 1.461-.919 2.483-1.585 2.711-1.763 2.711-1.76 2.978-1.681a.56.56 0 0 1 .33.272c.223.41.223.41-2.629 4.077-.202.259-.412.532-.624.802l1.801-1.165c4.895-3.178 4.889-3.175 5.202-2.604.251.484.251.484-4.56 5.323-.319.321-.651.658-.984.992l.365-.236c4.565-2.963 4.555-2.958 4.854-2.872a.566.566 0 0 1 .341.286c.184.354.184.354-1.718 3.444l-.41.667c.778-.505 1.167-.755 1.393-.871a.5.5 0 0 1 .28-.094c.304-.001.551.268.551.602z" id="icon_x5F_fg"/></svg>