<svg xmlns="http://www.w3.org/2000/svg" width="16" height="16"><style type="text/css">.icon-canvas-transparent{opacity:0;fill:#F6F6F6;} .icon-vs-out{fill:#F6F6F6;} .icon-vs-bg{fill:#424242;} .icon-highlight-green{fill:#77BF30;}</style><path class="icon-canvas-transparent" d="M16 16h-16v-16h16v16z" id="canvas"/><path class="icon-vs-out" d="M8.824 10.667l2.667 5.333h-5.649l-2.208-4.415-3.634 3.634v-15.219h1.827l12.444 10.667h-5.447z" id="outline"/><path class="icon-vs-bg" d="M10.667 9.333l-9.333-8v10.667l2.666-2.667 2.667 5.333h2.667l-2.667-5.333h4zm-8.667-6.55l.21.18-.21.383v-.563zm2.183 5.425l-2.183 2.183v-.912l1.361-1.385 1.109-1.129-.461.27-2.009 1.176v-2.615l.199-.246.78-.964-.099.059-.88.513v-1.158l.375-.219.47-.274 1.353 1.16-1.222 1.513-.773.954 1.3-.762 1.597-.933 1.228 1.053c-.484.502-1.14 1.17-1.987 2.031l-.158-.315zm.835 1.67l-.448-.896.042-.025c1.178-.692 2.059-1.209 2.727-1.598l1.525 1.307h-1.669l.078-.046.111-.13-.301.177h-1.495l.339.677-.809.475-.1.059zm2.725 3.1l-.105.176-.473.788.43-.251.389-.227.271.536h-1.176l-.507-1.013.209-.348.433-.72.529 1.059zm-1.055-2.113l-.216.255.265-.155.448.896-.437.255-.473.276-.812-1.625.277-.329c-.087-.034-.149-.103-.22-.219-.143-.237-.066-.545.171-.686l.06-.032.199-.111.12.241.618 1.234z" id="iconBg"/><g id="colorImportance"><path class="icon-highlight-green" d="M6.327 6.492c-.484.502-1.14 1.17-1.987 2.031l-.157-.315-2.183 2.183v-.912l1.361-1.385 1.109-1.129-.461.27-2.009 1.176v-2.615l.199-.246.78-.964-.099.059-.88.513v-1.158l.375-.219.47-.274 1.353 1.16-1.222 1.513-.773.954 1.3-.762 1.597-.933 1.227 1.053zm-4.327-3.709v.563l.21-.384-.21-.179zm3.588 5.884h1.495l.301-.176-.111.13-.078.046h1.669l-1.525-1.308c-.668.389-1.549.906-2.727 1.598l-.042.025.448.896.101-.059.808-.475-.339-.677zm.984 4.32l.507 1.013h1.176l-.269-.536-.389.227-.43.251.473-.788.105-.176-.529-1.059-.433.72-.211.348zm-.622-3.596l-.199.11-.06.032c-.237.142-.314.449-.172.686.071.116.133.185.22.219l-.277.329.812 1.625.473-.276.437-.255-.448-.896-.264.155.216-.255-.618-1.233-.12-.241z"/></g></svg>