<svg xmlns="http://www.w3.org/2000/svg" viewBox="0 0 16 16"><style>.st0{fill:#f6f6f6}.st1{fill:none}.st2{fill:#424242}.st3{fill:#f0eff1}</style><path class="st0" d="M15 7V0H0v13h1.056c.18.879.817 1.595 1.657 1.873L1.586 16h4.328L6 15.914V16h10V7h-1z" id="outline"/><g id="icon_x5F_bg"><path class="st1" d="M2 4v1.293L3.293 4zM4.707 4L2 6.707v1.586L6.293 4z"/><path class="st2" d="M2 9.707L7.707 4h1.586l-3 3h1.414l3-3h1.586l-3 3h1.414L13 4.707v1.586L12.293 7H14V1H1v9h1v-.293zM2 4h1.293L2 5.293V4zm0 2.707L4.707 4h1.586L2 8.293V6.707z"/><path class="st2" d="M7 8v4.086l1 1V10h6v4H8v-.086l-1 1V15h8V8zM5.5 12H4l1 1H3.5a.501.501 0 0 1-.5-.5V11H2v1.5c0 .827.673 1.5 1.5 1.5H5l-1 1h1.5L7 13.5 5.5 12zM6 11.086v-.793L5.293 11h.621zM6 7.293L3.293 10H4v.707l2-2z"/></g><g id="icon_x5F_fg"><path class="st3" d="M8 10v3.086l.414.414-.414.414V14h6v-4zM12.293 4h-1.586l-3 3h1.586zM12.293 7L13 6.293V4.707L10.707 7zM3.707 11H5.293L6 10.293V8.707l-2 2zM4.707 4L2 6.707v1.586L6.293 4zM2 4v1.293L3.293 4zM7.707 4L2 9.707V11h.293l1-1L6 7.293V7h.293l3-3z"/></g></svg>