<svg xmlns="http://www.w3.org/2000/svg" viewBox="0 0 16 16"><style>.st0{fill:#f6f6f6}.st1{fill:none}.st2{fill:#424242}.st3{fill:#f0eff1}</style><path class="st0" d="M15 7V0H0v13h6v3h10V7z" id="outline"/><g id="icon_x5F_bg"><path class="st1" d="M2 6.822v1.76L6.581 4h-1.76zM2 4v1.407L3.407 4zM8 10h6v4H8z"/><path class="st2" d="M8.362 7l3-3H13v.072l-.008-.008L10.057 7h1.414L13 5.471V7h1V1H1v11h5v-1H4.36h.002L6 9.362V7.948L2.925 11H2V9.996L7.995 4h1.953l-3 3h1.414zM2 4h1.407L2 5.407V4zm0 4.582v-1.76L4.821 4h1.76L2 8.582z"/><path class="st2" d="M7 8v7h8V8H7zm7 6H8v-4h6v4z"/></g><g id="icon_x5F_fg"><path class="st3" d="M13 7V5.471L11.471 7zM10.057 7l2.935-2.936.008.008V4h-1.638l-3 3zM4.821 4L2 6.822v1.76L6.581 4zM2 4v1.407L3.407 4zM8 10h6v4H8zM7.995 4L2 9.996V11h.948L6 7.948V7h.948l3-3zM6 11V9.362L4.362 11z"/></g></svg>