<svg xmlns="http://www.w3.org/2000/svg" viewBox="0 0 16 16"><style>.st0{fill:#f6f6f6}.st1{fill:#424242}.st2{fill:#f0eff1}</style><path class="st0" d="M12.061 0H6c-.97 0-2 .701-2 2v5H0v9h9v-2h5c1.299 0 2-1.03 2-2V3.556L12.061 0z" id="outline"/><g id="icon_x5F_bg"><path class="st1" d="M8 15H1v-3h7v3zM4 8H1v3h3V8zm4 0H5v3h3V8z"/><path class="st1" d="M11.641 1H5.964S5 1 5 2v5h1V2h5v3h3v7H9v1h4.965c1 0 1.035-1 1.035-1V4l-3.359-3z"/></g><path class="st2" d="M11 5V2H6v5h3v5h5V5z" id="icon_x5F_fg"/></svg>