<svg xmlns="http://www.w3.org/2000/svg" viewBox="0 0 16 16"><style>.st0{fill:#f6f6f6}.st1{fill:#424242}.st2{fill:#e51400}.st3{fill:#fff}</style><path class="st0" d="M16 11.5a4.5 4.5 0 0 1-4.5 4.5c-2.314 0-4.198-1.753-4.449-4H0V0h12v7.05c2.247.252 4 2.136 4 4.45z" id="outline"/><path class="st1" d="M7.051 11H1V7h10v.05A4.47 4.47 0 0 0 7.051 11zM11 1H7v4h4V1zM5 1H1v4h4V1z" id="icon_x5F_bg"/><path class="st2" d="M11.5 8a3.5 3.5 0 1 0 0 7 3.5 3.5 0 0 0 0-7zm1.854 4.646l-.707.707-1.147-1.146-1.146 1.147-.707-.707 1.147-1.146-1.147-1.146.707-.707 1.146 1.147 1.146-1.147.707.707-1.146 1.145 1.147 1.146z" id="not_x5F_bg"/><path class="st3" d="M12.646 9.646L11.5 10.793l-1.146-1.147-.708.708 1.147 1.146-1.147 1.146.708.708 1.146-1.147 1.146 1.147.708-.708-1.147-1.146 1.147-1.146z" id="not_x5F_fg"/></svg>