<svg xmlns="http://www.w3.org/2000/svg" viewBox="0 0 16 16"><style>.st0{fill:#f6f6f6}.st1{fill:#652d90}.st2{fill:#424242}.st3{fill:#f0eff1}</style><path class="st0" d="M12 9V0H0v11h9v5h7V9z" id="outline"/><g id="color_x5F_importance"><path class="st1" d="M1 1h4v4H1zM7 1h4v4H7zM9 9h2V6H1v4h8z"/></g><path class="st2" d="M10 10v5h5v-5h-5zm4 3l-1 1v-1.5L11.5 14l-.5-.5 1.5-1.5H11l1-1h2v2z" id="not_x5F_bg"/><path class="st3" d="M14 11v2l-1 1v-1.5L11.5 14l-.5-.5 1.5-1.5H11l1-1z" id="not_x5F_fg"/></svg>