<?xml version="1.0" encoding="utf-8"?>
<!-- Generator: Adobe Illustrator 18.1.1, SVG Export Plug-In . SVG Version: 6.00 Build 0)  -->
<!DOCTYPE svg PUBLIC "-//W3C//DTD SVG 1.1//EN" "http://www.w3.org/Graphics/SVG/1.1/DTD/svg11.dtd">
<svg version="1.1" xmlns="http://www.w3.org/2000/svg" xmlns:xlink="http://www.w3.org/1999/xlink" x="0px" y="0px" width="16px"
	 height="16px" viewBox="0 0 16 16" style="enable-background:new 0 0 16 16;" xml:space="preserve">
<style type="text/css">
	.icon-canvas-transparent{opacity:0;fill:#F6F6F6;}
	.icon-white{fill:#FFFFFF;}
</style>
<g id="canvas">
	<path class="icon-canvas-transparent" d="M16,16H0V0h16V16z"/>
</g>
<g id="iconBg">
	<path class="icon-white" d="M12,13h1v-3h-1V13z M11,11h-1v2h1V11z M8,13h1v-1H8V13z M10,9H8v1h2V9z M11.949,5
		c-0.039,0.347-0.112,0.681-0.226,1H14v8H7V8.95C6.658,8.912,6.324,8.838,6,8.723V15h9V5H11.949z M10.294,8H12V7h-0.762
		C10.981,7.384,10.653,7.712,10.294,8z M7.5,1C5.567,1,4,2.567,4,4.5c0,0.711,0.215,1.369,0.579,1.922L1,10l1,1l3.579-3.578
		C6.131,7.785,6.79,8,7.5,8C9.433,8,11,6.433,11,4.5S9.433,1,7.5,1z M7.5,7C6.12,7,5,5.881,5,4.5S6.12,2,7.5,2S10,3.119,10,4.5
		S8.881,7,7.5,7z M10,13h1v-2h-1V13z M8,13h1v-1H8V13z M10,9H8v1h2V9z M12,13h1v-3h-1V13z"/>
</g>
</svg>
