<?xml version="1.0" encoding="utf-8"?>
<!-- Generator: Adobe Illustrator 18.0.0, SVG Export Plug-In . SVG Version: 6.00 Build 0)  -->
<!DOCTYPE svg PUBLIC "-//W3C//DTD SVG 1.1//EN" "http://www.w3.org/Graphics/SVG/1.1/DTD/svg11.dtd">
<svg version="1.1" xmlns="http://www.w3.org/2000/svg" xmlns:xlink="http://www.w3.org/1999/xlink" x="0px" y="0px" width="16px"
	 height="16px" viewBox="0 0 16 16" style="enable-background:new 0 0 16 16;" xml:space="preserve">
<style type="text/css">
	.st0{opacity:0;fill:#424242;}
	.st1{fill:#FFCC00;}
	.st2{fill:#424242;}
</style>
<g id="outline">
	<path class="st0" d="M16,16H0V0h16V16z"/>
</g>
<g id="icon_x5F_bg">
	<path class="st1" d="M15,8c0,3.866-3.134,7-7,7c-3.866,0-7-3.134-7-7c0-3.866,3.134-7,7-7C11.866,1,15,4.134,15,8z"/>
	<path class="st2" d="M10.973,6.5c0,0.5-0.447,0.5-1,0.5s-1,0-1-0.5c0-1.104,1-1.5,1-1.5S10.973,5.396,10.973,6.5z"/>
	<path class="st2" d="M6.973,6.5c0,0.5-0.447,0.5-1,0.5c-0.553,0-1,0-1-0.5c0-1.104,1-1.5,1-1.5S6.973,5.396,6.973,6.5z"/>
	<path class="st2" d="M4.143,12c0.475-1.678,2-2.917,3.83-2.917c1.83,0,3.354,1.239,3.828,2.917h-0.916
		c-0.473-1.146-1.635-2-2.912-2c-1.276,0-2.41,0.854-2.869,2H4.143z"/>
	<g>
	</g>
	<g>
	</g>
</g>
</svg>
