<svg xmlns="http://www.w3.org/2000/svg" width="16" height="16"><style type="text/css">.icon-canvas-transparent{opacity:0;fill:#F6F6F6;} .icon-white{fill:#FFFFFF;}</style><path class="icon-canvas-transparent" d="M16 16h-16v-16h16v16z" id="canvas"/><path class="icon-white" d="M15 4v5.035s0 .965-1 .965h-1v-1h1v-5h-2v-2h-4v2.051c-.347.038-.681.112-1 .225v-2.312c0 .001 0-.964 1-.964h4l3 3zm-8 8.724v1.276h-5v-7h2.276c.054-.15.112-.296.181-.439.088-.195.187-.384.305-.561h-2.762c-1 0-1 .965-1 .965v7.035c0 1 .965 1 .965 1h5.035c1 0 1-.965 1-.965v-1.086c-.347-.039-.681-.112-1-.225zm4.422-2.302l3.578 3.578-1 1-3.578-3.578c-.553.363-1.211.578-1.922.578-1.933 0-3.5-1.567-3.5-3.5s1.567-3.5 3.5-3.5 3.5 1.567 3.5 3.5c0 .711-.215 1.369-.578 1.922zm-.422-1.922c0-1.381-1.119-2.5-2.5-2.5s-2.5 1.119-2.5 2.5 1.119 2.5 2.5 2.5 2.5-1.119 2.5-2.5z" id="iconBg"/></svg>