<?xml version="1.0" encoding="utf-8"?>
<!-- Generator: Adobe Illustrator 18.0.0, SVG Export Plug-In . SVG Version: 6.00 Build 0)  -->
<!DOCTYPE svg PUBLIC "-//W3C//DTD SVG 1.1//EN" "http://www.w3.org/Graphics/SVG/1.1/DTD/svg11.dtd">
<svg version="1.1" xmlns="http://www.w3.org/2000/svg" xmlns:xlink="http://www.w3.org/1999/xlink" x="0px" y="0px" width="16px"
	 height="16px" viewBox="0 0 16 16" style="enable-background:new 0 0 16 16;" xml:space="preserve">
<style type="text/css">
	.st0{opacity:0;fill:#424242;}
	.st1{fill:#FFCC00;}
	.st2{fill:#424242;}
</style>
<g id="outline">
	<path class="st0" d="M16,16H0V0h16V16z"/>
</g>
<g id="icon_x5F_bg">
	<path class="st1" d="M8,1C4.134,1,1,4.134,1,8c0,3.866,3.134,7,7,7c3.866,0,7-3.134,7-7C15,4.134,11.866,1,8,1z"/>
	<path class="st2" d="M11,6.5C11,7,10.553,7,10,7C9.447,7,9,7,9,6.5C9,5.396,10,5,10,5S11,5.396,11,6.5z"/>
	<path class="st2" d="M11.851,9.025C11.396,10.734,9.853,12,8,12c-1.852,0-3.396-1.266-3.851-2.975h0.951
		C5.545,10.202,6.701,11.083,8,11.083s2.486-0.881,2.943-2.058H11.851z"/>
	<path class="st2" d="M7,6.5C7,6.5,6.553,7,6,7S5,7,5,6.5C5,5.396,6,5,6,5S7,5.396,7,6.5z"/>
	<g>
	</g>
	<g>
	</g>
</g>
</svg>
