<svg xmlns="http://www.w3.org/2000/svg" viewBox="0 0 16 16"><style>.st0{fill:#f6f6f6}.st1{fill:#424242}.st2{fill:#f0eff1}</style><path class="st0" d="M8.531 5L3.423 0h-.837L0 2.586v.827l2 1.994V7H0v9h14v-2h2V5z" id="outline"/><g id="icon_x5F_bg"><path class="st1" d="M3.586 7l-.587-.587V7zM9.999 11h1v1h-1zM2.999 11h1v1h-1z"/><path class="st1" d="M11 8v2h.999v3h-1v1h-8v-1h-1v-3h1V9h2.586l-.999-1H.999v7h12V8z"/><path class="st1" d="M7.609 11l-1.003-1h-.02l-.627-.627c-.574.439-.96 1.224-.96 2.127 0 1.381.895 2.5 2 2.5s2-1.119 2-2.5c0-.173-.019-.338-.046-.5H7.609zM9.553 6l1.021 1h3.425v6h1V6z"/><path transform="rotate(-45.001 6 6)" class="st1" d="M4.586 3.171h2.828v5.656H4.586z"/><path transform="rotate(-45.001 2.5 2.5)" class="st1" d="M1.086 1.793h2.828v1.414H1.086z"/><path class="st1" d="M10 8v1.999L8 10"/></g><g id="icon_x5F_fg"><path class="st2" d="M5 11.5c0-.902.386-1.688.96-2.127L5.586 9H3v1H2v3h1v1h4c-1.105 0-2-1.119-2-2.5zM4 12H3v-1h1v1zM11 10v2h-1v-1H8.954c.027.162.046.328.046.5 0 1.381-.895 2.5-2 2.5h4v-1h1v-3h-1z"/></g></svg>