<svg xmlns="http://www.w3.org/2000/svg" viewBox="0 0 16 16"><defs><style>.icon-canvas-transparent,.icon-vs-out{fill:#f6f6f6}.icon-canvas-transparent{opacity:0}.a{fill:#424242}.icon-vs-fg{fill:#f0eff1}.icon-vs-action-orange{fill:#c27d1a}</style></defs><title>MonthCalendar_16x</title><path class="icon-canvas-transparent" d="M16 16H0V0h16z"/><path class="icon-vs-out" d="M16 15H1V0h15z"/><path class="a" d="M10 7h1v1h-1zM8 7h1v1H8zM4 11h1v1H4zM12 7h1v1h-1zM8 9h1v1H8zM8 11h1v1H8zM4 9h1v1H4zM6 11h1v1H6zM4 7h1v1H4zM6 7h1v1H6zM6 9h1v1H6z"/><path class="a" d="M2 1h13v13H2z"/><path class="icon-vs-fg" d="M6 5L4 3.5 6 2zm5-3v3l2-1.5zm3 4v7H3V6zm-4 2h1V7h-1zm-5 3H4v1h1zm0-2H4v1h1zm0-2H4v1h1zm2 4H6v1h1zm0-2H6v1h1zm0-2H6v1h1zm2 4H8v1h1zm0-2H8v1h1zm0-2H8v1h1zm4 2h-3v3h3zm0-2h-1v1h1z"/><path class="icon-vs-action-orange" d="M10 9h3v3h-3z"/></svg>