<svg xmlns="http://www.w3.org/2000/svg" viewBox="0 0 16 16"><style>.st0{opacity:0}.st0,.st1{fill:#f6f6f6}.st2{fill:#424242}.st3{fill:#f0eff1}</style><g id="outline"><path class="st0" d="M0 0h16v16H0z"/><path class="st1" d="M0 1h16v14H0z"/></g><g id="icon_x5F_bg"><path class="st2" d="M1 2v12h14V2H1zm13 11H7v-1H5v1H4v-1H3v1H2V3h1v4h1V3h1v4h1V3h2v1h2V3h1v1h2V3h1v10z"/><path class="st2" d="M8 6h2v2H8zM6 9h1v2H6zM3 9h2v2H3zM11 5h2v2h-2zM9 11h4v1H9zM9 9h4v1H9z"/></g><path class="st3" d="M13 3v1h-2V3h-1v1H8V3H6v4H5V3H4v4H3V3H2v10h1v-1h1v1h1v-1h2v1h7V3h-1zm-8 8H3V9h2v2zm2 0H6V9h1v2zm1-5h2v2H8V6zm5 6H9v-1h4v1zm0-2H9V9h4v1zm0-3h-2V5h2v2z" id="icon_x5F_fg"/></svg>