<svg xmlns="http://www.w3.org/2000/svg" viewBox="0 0 16 16"><style>.st0{opacity:0}.st0,.st1{fill:#f6f6f6}.st2{fill:#424242}.st3{fill:#00539c}.st4{fill:#f0eff1}</style><g id="outline"><path class="st0" d="M0 0h16v16H0z"/><path class="st1" d="M16 6v6l-7 3.5L4 13V8H0l2-2H0V2h2L0 0h6l4 4 1-.5L16 6z"/></g><path class="st2" d="M11 5L5 8v4l4 2 6-3V7l-4-2zM9 9L7 8l4-2 2 1-4 2z" id="icon_x5F_bg"/><path class="st3" d="M8 4L5 7H3l2-2H1V3h4L3 1h2l3 3z" id="color_x5F_importance"/><path class="st4" d="M11 6l2 1-4 2-2-1 4-2z" id="icon_x5F_fg"/></svg>