<svg xmlns="http://www.w3.org/2000/svg" viewBox="0 0 16 16"><style>.st0{fill:#f6f6f6}.st1{fill:#424242}</style><path class="st0" d="M13.412 3.727H12.19V2.505L9.686 0H7.274L4.769 2.505v1.222H3.547L0 7.274v.327l3.547 3.547h1.222v1.222L8.398 16h.163l3.629-3.63v-1.222h1.222L16 8.561V6.314z" id="outline"/><g id="icon_x5F_bg"><path class="st1" d="M9.384 9.5H7.576v2.456l-1.807-1.808v1.808l2.71 2.711 2.711-2.711v-1.808l-1.806 1.808zM7.576 5.5h1.808V2.919l1.806 1.808V2.919L8.479.208l-2.71 2.711v1.808l1.807-1.808z"/><path class="st1" d="M6.542 8.342V6.534H3.961l1.808-1.807H3.961L1.25 7.438l2.711 2.71h1.808L3.961 8.342zM12.998 4.727H11.19l1.808 1.807h-2.456v1.808h2.456l-1.808 1.806h1.808l2.711-2.71zM7.576 6.534h1.808v1.808H7.576z"/></g></svg>