<svg xmlns="http://www.w3.org/2000/svg" viewBox="0 0 15 15"><style>.st0{fill:#f6f6f6}.st1{fill:#424242}.st2{fill:#f0eff1}</style><path class="st0" d="M0 0h15v15H0z" id="outline"/><g id="icon_x5F_bg"><path class="st1" d="M1 1v13h13V1H1zm12 6.5V13H2V2h11v5.5z"/><path class="st1" d="M10.5 6l.979 1H8V3.521L9 4.5v-1L7.5 2 6 3.5v1l1-.979V7H3.512L4.5 6h-1L2 7.5 3.5 9h1l-.988-1H7v3.488L6 10.5v1L7.5 13 9 11.5v-1l-1 .988V8h3.479L10.5 9h1L13 7.5 11.5 6z"/></g><g id="icon_x5F_fg"><path class="st2" d="M6 10.5l1 .988V8H3.512L4.5 9h-1L2 7.5V13h5.5L6 11.5zM11.5 9h-1l.979-1H8v3.488l1-.988v1L7.5 13H13V7.5z"/><g><path class="st2" d="M7.5 2L9 3.5v1l-1-.979V7h3.479L10.5 6h1L13 7.5V2zM2 7.5L3.5 6h1l-.988 1H7V3.521L6 4.5v-1L7.5 2H2z"/></g></g></svg>