<svg xmlns="http://www.w3.org/2000/svg" viewBox="0 0 16 16"><style>.st0{opacity:0}.st0,.st1{fill:#f6f6f6}.st2{fill:#424242}.st3{fill:#f0eff1}</style><g id="outline"><path class="st0" d="M0 0h16v16H0z"/><path class="st1" d="M14 8a7 7 0 1 0-7 7c.512 0 1.01-.059 1.49-.163.394.096.811.163 1.266.163 1.102 0 2.244-.317 3.405-.945A1.999 1.999 0 0 0 16 12.24V10c0-1.103-.896-2-2-2z"/></g><g id="icon_x5F_bg"><path class="st2" d="M8.49 8.934a.413.413 0 0 0 .342-.177c.091-.125.136-.29.136-.496v-.184a.613.613 0 0 0-.127-.399.414.414 0 0 0-.334-.157.408.408 0 0 0-.363.201c-.085.135-.128.314-.128.539 0 .227.046.398.139.515a.403.403 0 0 0 .335.158z"/><path class="st2" d="M14 9h-1.09c.055-.326.09-.659.09-1a6 6 0 1 0-6 6 5.98 5.98 0 0 0 1.494-.195c.378.113.789.195 1.262.195 1.098 0 2.258-.381 3.459-1.134l.059.061a1.003 1.003 0 0 0 1.097.243c.379-.152.629-.52.629-.93V10a1 1 0 0 0-1-1zm-3.988-1.998h.697v.388h.008c.165-.299.406-.448.726-.448.5 0 .749.336.749 1.01v1.5h-.693V8.091c0-.38-.125-.57-.375-.57a.359.359 0 0 0-.299.153.614.614 0 0 0-.115.381v1.397h-.697v-2.45zm-2.415.299a.903.903 0 0 1 .741-.359c.291 0 .494.113.608.34h.009V5.824h.697v3.629h-.697v-.337h-.009a.767.767 0 0 1-.699.398.828.828 0 0 1-.65-.287c-.193-.219-.289-.534-.289-.944 0-.408.096-.736.289-.982zm-2.24 2.152h-.694V8.056c0-.356-.121-.534-.361-.534-.115 0-.208.054-.28.161a.7.7 0 0 0-.108.4v1.371h-.698V8.041c0-.346-.118-.52-.354-.52a.334.334 0 0 0-.286.153.723.723 0 0 0-.107.417v1.362h-.697V7.002h.697v.383h.009a.834.834 0 0 1 .271-.299.792.792 0 0 1 .458-.144c.32 0 .539.152.655.457.172-.305.425-.457.758-.457.491 0 .736.329.736.986v1.525zm.894.061c-.238 0-.456-.041-.655-.125v-.613c.227.148.442.223.646.223.221 0 .331-.074.331-.223a.193.193 0 0 0-.079-.16 1.773 1.773 0 0 0-.347-.173 1.052 1.052 0 0 1-.401-.258.685.685 0 0 1-.15-.462c0-.234.085-.423.256-.566.17-.143.401-.214.692-.214.187 0 .373.033.56.098v.584a1.005 1.005 0 0 0-.551-.168c-.184 0-.276.068-.276.206 0 .073.026.132.077.177.046.038.138.085.276.139.203.078.351.167.445.268.11.118.165.271.165.457 0 .236-.08.427-.24.569-.176.161-.426.241-.749.241zM14 12.24l-.644-.682C9.026 14.773 7 11.607 7 11.607s2.154 2.084 5.41-1.049L11.882 10H14v2.24z"/></g><path class="st3" d="M14 10v2.24l-.644-.682C9.026 14.773 7 11.607 7 11.607s2.154 2.084 5.41-1.049L11.882 10H14zM5.357 7.929c0-.658-.246-.986-.736-.986-.334 0-.586.152-.758.457-.117-.305-.335-.458-.655-.458a.85.85 0 0 0-.729.443h-.01v-.383h-.697v2.451h.697V8.091c0-.175.036-.314.107-.417a.333.333 0 0 1 .286-.153c.236 0 .354.173.354.52v1.412h.697V8.082a.7.7 0 0 1 .108-.4c.072-.107.166-.161.28-.161.241 0 .361.178.361.534v1.397h.694V7.929zm1.719.318c-.095-.101-.243-.19-.446-.268a1.125 1.125 0 0 1-.276-.139.225.225 0 0 1-.077-.177c0-.138.092-.206.276-.206.192 0 .376.056.551.167v-.583a1.694 1.694 0 0 0-.56-.098c-.291 0-.522.071-.692.214a.705.705 0 0 0-.256.566c0 .191.05.346.15.462.084.097.218.183.401.258.178.074.293.131.347.173a.195.195 0 0 1 .079.16c0 .148-.11.223-.331.223-.204 0-.419-.074-.646-.223v.613c.199.084.417.125.655.125.323 0 .573-.08.75-.24a.726.726 0 0 0 .24-.569.645.645 0 0 0-.165-.458zm2.575-2.423h-.696v1.458h-.009c-.114-.227-.317-.34-.608-.34a.903.903 0 0 0-.741.359c-.193.246-.289.574-.289.982 0 .411.096.725.289.944a.83.83 0 0 0 .65.287c.307 0 .54-.133.699-.397h.009v.337h.697v-3.63zm-.819 2.933a.413.413 0 0 1-.342.177.403.403 0 0 1-.335-.158c-.093-.116-.139-.288-.139-.515 0-.225.043-.404.129-.539a.408.408 0 0 1 .362-.201c.137 0 .248.052.333.157a.613.613 0 0 1 .127.399v.184a.823.823 0 0 1-.135.496zm3.359-.804c0-.674-.249-1.01-.749-1.01-.319 0-.561.149-.726.448h-.008v-.389h-.697v2.451h.697V8.056c0-.152.038-.279.115-.381a.359.359 0 0 1 .299-.153c.25 0 .375.19.375.57v1.362h.693V7.953z" id="icon_x5F_fg"/></svg>