<svg xmlns="http://www.w3.org/2000/svg" viewBox="0 0 16 16"><style>.st0{fill:#f6f6f6}.st1{fill:#424242}.st2{fill:#1ba1e2}.st3{fill:#fff}.st4{fill:#f0eff1}</style><g id="outline"><circle class="st0" cx="11.5" cy="11.5" r="4.5"/><path class="st0" d="M12 7.05V3.556L8.061 0H2c-.97 0-2 .701-2 2v10c0 1.299 1.03 2 2 2h5.76A4.5 4.5 0 0 0 16 11.5c0-2.314-1.753-4.198-4-4.45z"/></g><path class="st1" d="M7.05 12H2V2h5v3h3v2.275a4.472 4.472 0 0 1 1-.225V4L7.641 1H1.964S1 1 1 2v10c0 1 .964 1 .964 1h5.311a4.472 4.472 0 0 1-.225-1z" id="icon_x5F_bg"/><path class="st2" d="M11.5 8a3.5 3.5 0 1 0 0 7 3.5 3.5 0 0 0 0-7zm.5 6h-1v-1h1v1zm1-3c0 .551-.449 1-1 1v.5h-1V12c0-.551.449-1 1-1v-1c-.08-.044-.252-.102-.5-.102s-.42.058-.5.102v1h-1v-1c0-.58.631-1 1.5-1s1.5.42 1.5 1v1z" id="not_x5F_bg"/><g id="not_x5F_fg"><path class="st3" d="M12 12.5h-1V12c0-.551.449-1 1-1v-1c-.08-.044-.252-.102-.5-.102s-.42.058-.5.102v1h-1v-1c0-.58.631-1 1.5-1s1.5.42 1.5 1v1c0 .551-.449 1-1 1v.5zm0 .5h-1v1h1v-1z"/><path class="st4" d="M7 11.5c0-1.957 1.256-3.604 3-4.225V5H7V2H2v10h5.05c-.018-.166-.05-.329-.05-.5z"/></g></svg>