<svg xmlns="http://www.w3.org/2000/svg" viewBox="0 0 16 16"><style>.st0{opacity:0}.st0,.st1{fill:#f6f6f6}.st2{fill:#424242}.st3{fill:#f0eff1}</style><g id="outline"><path class="st0" d="M0 0h16v16H0z"/><path class="st1" d="M10 1c-.89 0-1.483.618-2.001 1C7.481 1.616 6.9 1.007 6 1H0v12h.275c.62 1.744 2.268 3 4.225 3 1.56 0 2.933-.795 3.74-2H10s0-1 1.234-1H16V1h-6z"/></g><g id="icon_x5F_bg"><path class="st2" d="M10 2c-.874 0-1.28.364-2.001 1C7.288 2.374 6.894 2.007 6 2H1v6.703a4.5 4.5 0 0 1 1-.943V3h3.341C6.286 3 7 3.6 7 4v3.76c1.206.807 2 2.18 2 3.74 0 .529-.108 1.028-.275 1.5H9c.309-.525.967-1 1.734-1H15V2h-5zm4 9h-3.266c-.723 0-1.183-.012-1.734.328V3.967C9 3.508 9.645 3 10.628 3H14v8z"/><path class="st2" d="M4.5 8a3.5 3.5 0 1 0 0 7 3.5 3.5 0 0 0 0-7zm.5 6H4v-1h1v1zm1-3c0 .551-.449 1-1 1v.5H4V12c0-.551.449-1 1-1v-1c-.08-.044-.252-.102-.5-.102s-.42.058-.5.102v.5H3V10c0-.58.631-1 1.5-1S6 9.42 6 10v1z"/></g><path class="st3" d="M2 7.76V3h3.341C6.286 3 7 3.6 7 4v3.76C6.285 7.281 5.425 7 4.5 7s-1.785.281-2.5.76zM10.628 3C9.645 3 9 3.508 9 3.967v7.361c.551-.34 1.011-.328 1.734-.328H14V3h-3.372zM5 12c.551 0 1-.449 1-1v-1c0-.58-.631-1-1.5-1S3 9.42 3 10v.5h1V10c.08-.044.252-.102.5-.102s.42.058.5.102v1c-.551 0-1 .449-1 1v.5h1V12zm0 2H4v-1h1v1z" id="icon_x5F_fg"/></svg>