<svg xmlns="http://www.w3.org/2000/svg" viewBox="0 0 16 16"><style>.st0{opacity:0}.st0,.st1{fill:#f6f6f6}.st2{fill:#424242}.st3{fill:#f0eff1}</style><g id="outline"><path class="st0" d="M0 0h16v16H0z"/><path class="st1" d="M14 12V3h-2V0H2v9h2v3h1v1H3v3h10v-3h-2v-1z"/></g><g id="icon_x5F_bg"><path class="st2" d="M4 7V3h1L4 2h6L9 3h2V1H3v7h1z"/><path class="st2" d="M13 11V4H5v7h2v2H6v1H4v1h8v-1h-2v-1H9v-2h4zm-1-6L9 8 6 5h6zm-6 5V6.571L8.413 9h1.242L12 6.599V10H6z"/></g><g id="icon_x5F_fg"><path class="st3" d="M9 8l3-3H6z"/><path class="st3" d="M8.303 9L6.039 6.709 6 10h6V6.709L9.82 9zM10 2H4l1 1h4z"/></g></svg>