<svg xmlns="http://www.w3.org/2000/svg" viewBox="0 0 16 16"><style>.st0{opacity:0}.st0,.st1{fill:#f6f6f6}.st2{fill:#424242}.st3{fill:#f0eff1}</style><g id="outline"><path class="st0" d="M0 0h16v16H0z"/><path class="st1" d="M5.585 13L4 11.414V10H0V5h4V3.586L5.586 2h8.829L16 3.586v7.828L14.414 13H5.585z"/></g><g id="icon_x5F_bg"><path class="st2" d="M5 4v3H4V6H1v3h3V8h1v3l1 1h8l1-1V4l-1-1H6L5 4zm9 7H6V4h8v7z"/><path class="st2" d="M11 5h2v2h-2zM7 6h3v3H7zM11 8h2v2h-2z"/></g><path class="st3" d="M6 4v7h8V4H6zm4 5H7V6h3v3zm3 1h-2V8h2v2zm0-3h-2V5h2v2z" id="icon_x5F_fg"/></svg>