<svg xmlns="http://www.w3.org/2000/svg" viewBox="0 0 16 16"><style>.icon-canvas-transparent{opacity:0;fill:#f6f6f6}.icon-vs-out{fill:#f6f6f6}.icon-vs-bg{fill:#424242}.st0{fill:#f6f6f6}</style><g id="canvas"><path class="icon-canvas-transparent" d="M16 0v16H0V0h16z"/><path class="st0" d="M12.515 12.471c-.044-.093-.034-.19-.034-.19V8.789l-.557-.275c-.418-.207-.966-.303-1.725-.303-.334 0-.67.041-.996.121a3.15 3.15 0 0 0-.971.415c-.08.052-.144.119-.217.178v-.62H5.079l-1.057 2.618-1.033-2.618H0V16h10s.43-.061.629-.104c.364-.079.697-.212.991-.397.33-.208.598-.483.794-.818a2.39 2.39 0 0 0 .309-1.224c0-.356-.071-.688-.208-.986z"/></g><path class="icon-vs-out" d="M3.792 16a3.493 3.493 0 0 1-3.096-1.866 3.492 3.492 0 0 1 .207-3.61L5 4.536V3H4V0h8v3h-1v1.536l4.097 5.987a3.494 3.494 0 0 1 .207 3.61A3.492 3.492 0 0 1 12.208 16H3.792z" id="outline"/><path class="icon-vs-bg" d="M14.419 13.667A2.494 2.494 0 0 1 12.208 15h-.036c.086-.102.174-.202.242-.319a2.39 2.39 0 0 0 .309-1.224c0-.356-.07-.688-.208-.986-.044-.093-.034-.19-.034-.19V8.789l-.557-.275a2.79 2.79 0 0 0-.786-.235L9 5.154V2H7v3.154L4.369 9h.43l-.776 1.923-.798-2.022L6 4.846V2H5V1h6v1h-1v2.846l4.272 6.242c.525.767.582 1.756.147 2.579zm-10.165-.648c-.06.143-.138.361-.234.656H4a5.374 5.374 0 0 0-.219-.641l-1.473-3.73H1v5.602h.859v-3.617c0-.508-.011-.873-.031-1.098h.016c.052.25.102.436.148.559l1.676 4.156h.641l1.672-4.188a3.85 3.85 0 0 0 .152-.527h.016c-.036.43-.055.793-.055 1.09v3.625h.922V9.305H5.754l-1.5 3.714zm7.041-.578a2.604 2.604 0 0 0-.457-.371 6.746 6.746 0 0 0-.553-.32c-.19-.084-.357-.16-.502-.232a2.338 2.338 0 0 1-.367-.221.823.823 0 0 1-.229-.25.645.645 0 0 1-.078-.324c0-.133.034-.246.102-.34a.79.79 0 0 1 .264-.231 1.2 1.2 0 0 1 .367-.129 2.29 2.29 0 0 1 .412-.039c.5 0 .909.115 1.227.344V9.41c-.269-.133-.695-.199-1.281-.199-.258 0-.511.031-.758.092a2.16 2.16 0 0 0-.663.281c-.194.126-.35.287-.469.481a1.29 1.29 0 0 0-.178.685c0 .213.034.4.104.559.069.158.164.301.285.428.121.127.264.242.428.346.164.104.341.207.531.309.177.08.343.158.498.232.155.074.29.152.404.232.114.08.204.17.268.268a.618.618 0 0 1 .096.346.643.643 0 0 1-.287.566c-.191.13-.482.195-.873.195-.112 0-.234-.012-.367-.035a2.862 2.862 0 0 1-.398-.1 2.444 2.444 0 0 1-.378-.158 1.521 1.521 0 0 1-.307-.211v.957c.078.05.181.094.309.133.128.039.263.072.406.1.143.027.283.048.42.063a3.763 3.763 0 0 0 1.147-.062c.253-.055.476-.144.67-.266.194-.122.349-.281.463-.477.114-.195.172-.436.172-.719 0-.211-.038-.398-.115-.564a1.646 1.646 0 0 0-.313-.451z" id="iconBg"/></svg>