<svg xmlns="http://www.w3.org/2000/svg" viewBox="0 0 16 16"><style>.st0{opacity:0}.st0,.st1{fill:#f6f6f6}.st2{fill:#424242}.st3{fill:#f0eff1}</style><g id="outline"><path class="st0" d="M0 0h16v16H0z"/><path class="st1" d="M16 0v11h-2v2h-2v2H0V4h2V2h2V0z"/></g><path class="st2" d="M4 8H3V7h1v1zm0 1H3v1h1V9zm-1 3h1v-1H3v1zm2 0h1v-1H5v1zm2 0h1v-1H7v1zM6 7H5v1h1V7zm-1 3h1V9H5v1zm2 0h1V9H7v1zm8-9v9h-2v2h-2v2H1V5h2V3h2V1h10zm-5 11H9v-1h1v-1H9V9h1V6H2v7h8v-1zm2-8H4v1h7v6h1V4zm2-2H6v1h7v6h1V2z" id="icon_x5F_bg"/><path class="st3" d="M14 2v7h-1V3H6V2h8zM4 4v1h7v6h1V4H4zm6 2v3H9v1h1v1H9v1h1v1H2V6h8zM5 7v1h1V7H5zm0 2v1h1V9H5zM3 8h1V7H3v1zm0 2h1V9H3v1zm1 2v-1H3v1h1zm2 0v-1H5v1h1zm2-1H7v1h1v-1zm0-2H7v1h1V9z" id="icon_x5F_fg"/></svg>