<svg xmlns="http://www.w3.org/2000/svg" viewBox="0 0 16 16"><style>.st0{opacity:0}.st0,.st1{fill:#f6f6f6}.st2{fill:#424242}.st3{fill:#e51400}.st4{fill:#fff}</style><g id="outline"><path class="st0" d="M0 0h16v16H0z"/><circle class="st1" cx="11.563" cy="11.5" r="4.5"/><path class="st1" d="M16 6.414v-.826l-3-3.016V0H4v2H0v12h7.492a4.499 4.499 0 0 0 3.738 2c2.481 0 4.567-2.019 4.567-4.5 0-1.406-.563-2.648-1.576-3.474L16 6.414z"/></g><g id="icon_x5F_bg"><path class="st2" d="M8 4V3H1v10h6.063v-1H2V4zM5 1v1h7V1zM12.016 3H9.5l2.055 2.023-2.101.004L11.415 7c.05 0 .097-.007.148-.007.708 0 1.369.183 1.966.476L15 5.998 12.016 3z"/><path class="st2" d="M7.113 11a4.479 4.479 0 0 1 3.115-3.775L8.016 5H5.5l2.023 2.023L4 7.03V9h3.484l-1.938 2h1.567z"/></g><path class="st3" d="M15 11.5a3.5 3.5 0 1 0-7 0 3.5 3.5 0 0 0 7 0zM9 12v-1h5v1H9z" id="not_x5F_bg"/><path class="st4" d="M9 12v-1h5v1H9z" id="not_x5F_fg"/></svg>