<svg xmlns="http://www.w3.org/2000/svg" viewBox="0 0 16 16"><style>.st0{opacity:0}.st0,.st1{fill:#f6f6f6}.st2{fill:#424242}.st3{fill:#00539c}.st4{fill:#f0eff1}</style><g id="outline"><path class="st0" d="M0 0h16v16H0z"/><path class="st1" d="M16 6c0-3.309-2.691-6-6-6a5.968 5.968 0 0 0-3.331 1.013L5.656 0h-.484L4 1.172 2.828 0h-.484L0 2.343v.485L1.172 4 0 5.171v.485l2.492 2.492-.729 2.498h.664l-.646 2.452a1.653 1.653 0 0 0-.24-.017c-.515 0-.858.207-1.055.381A1.407 1.407 0 0 0 0 14.523c0 .439.2.838.561 1.119.299.238.697.358 1.182.358.603 0 1.149-.159 1.625-.472.448-.294.835-.732 1.153-1.311.084-.154.166-.331.248-.53.073.152.173.289.296.408a1.49 1.49 0 0 0 1.066.411c.294 0 .577-.061.849-.186.243-.113.49-.302.775-.587.03-.03.067-.067.108-.111.16.253.353.453.573.597.291.191.637.288 1.026.288.395 0 .776-.126 1.122-.364.37-.248.718-.631 1.063-1.168l.353-.551v-.463l-.35-.197C14.158 11.045 16 8.736 16 6zM3.208 8.135L2.7 8.128l1.3-1.3.076.076.007.048c-.311.31-.601.696-.875 1.183zm3.447 3.474a1.544 1.544 0 0 0-.506-.087c-.279 0-.54.067-.768.196l.2-.768.821-.16c.166.125.338.241.517.349l.037.118a13.47 13.47 0 0 1-.301.352z"/></g><path class="st2" d="M10.868 9.159a.474.474 0 0 1 .132.355.453.453 0 0 1-.464.477 1.33 1.33 0 0 1-.331-.051 1.197 1.197 0 0 0-.258-.049.584.584 0 0 0-.361.131c-.155.119-.348.374-.575.766.255.875.601 1.711.754 1.901.091.115.183.173.274.173a.36.36 0 0 0 .204-.058c.086-.062.22-.216.401-.459l.161.091c-.265.414-.524.707-.775.875a.984.984 0 0 1-.566.196.865.865 0 0 1-.479-.124 1.075 1.075 0 0 1-.34-.406 10.726 10.726 0 0 1-.494-1.206 21.284 21.284 0 0 1-1.099 1.253c-.2.2-.365.33-.497.393a.996.996 0 0 1-.423.091.518.518 0 0 1-.371-.13.453.453 0 0 1-.138-.342c0-.15.048-.272.147-.367a.522.522 0 0 1 .379-.146.69.69 0 0 1 .274.069c.149.072.259.106.324.106a.484.484 0 0 0 .234-.054c.089-.043.204-.137.342-.283.084-.09.512-.585.737-.88-.288-1.038-.514-1.658-.676-1.862a.472.472 0 0 0-.388-.197c-.08 0-.49.33-.607.353v-.747h1.912c.289.435.489.913.606 1.435.294-.424.517-.719.666-.889.201-.226.367-.375.497-.443a.896.896 0 0 1 .416-.103c.166 0 .294.043.382.131zM10 1c-.955 0-1.838.282-2.598.746l.84.84L6.828 4l.304.304A1.995 1.995 0 0 1 11 5a2 2 0 0 1-2 2 1.98 1.98 0 0 1-1.252-.452c.257.278.406.636.406 1.034 0 .166-.022.315-.061.446h.747l.343.519a1.892 1.892 0 0 1 1.304-.519c.55 0 .895.23 1.089.424.19.188.424.529.424 1.062 0 .408-.146.772-.423 1.049-.124.125-.269.22-.427.291A4.992 4.992 0 0 0 15 6a5 5 0 0 0-5-5zM5.028 9.135c.092-.368.2-.687.323-.956l-.543-.543c-.259.253-.508.592-.747 1.022-.115.203-.223.335-.325.393-.103.059-.266.087-.49.084l-.149.511h.627l-.919 3.496c-.152.574-.257.928-.312 1.061a1.268 1.268 0 0 1-.355.499.331.331 0 0 1-.229.085.1.1 0 0 1-.064-.023l-.022-.03c0-.015.022-.044.068-.089.045-.045.068-.115.068-.207a.332.332 0 0 0-.109-.254c-.071-.068-.175-.102-.309-.102a.57.57 0 0 0-.394.132.4.4 0 0 0-.147.309c0 .129.06.24.181.335.119.095.306.142.562.142.404 0 .764-.102 1.077-.309.314-.205.587-.523.822-.95.232-.429.474-1.12.72-2.075l.527-2.02h.634l.158-.512h-.653zM7.376 6.28c.054.033.122.049.171.087-.042-.044-.076-.096-.113-.144l-.058.057zM6.284 7.704c0 .103.039.19.117.263a.423.423 0 0 0 .297.109.429.429 0 0 0 .323-.135.487.487 0 0 0 .132-.359.513.513 0 0 0-.196-.42.748.748 0 0 0-.333-.13l-.216.216c.012.018.026.034.026.059 0 .028-.025.084-.076.166a.46.46 0 0 0-.074.231z" id="icon_x5F_bg"/><path class="st3" d="M1.172 5.414L2.586 4 1.172 2.586l1.414-1.414L4 2.586l1.414-1.414 1.414 1.414L5.414 4l1.414 1.414-1.414 1.414L4 5.414 2.586 6.828 1.172 5.414z" id="color_x5F_action"/><path class="st4" d="M9 3c-.858 0-1.585.544-1.868 1.304l1.11 1.11-.811.812C7.796 6.694 8.36 7 9 7a2 2 0 0 0 0-4z" id="icon_x5F_fg"/></svg>