<svg xmlns="http://www.w3.org/2000/svg" viewBox="0 0 16 16"><style>.st0{opacity:0}.st0,.st1{fill:#f6f6f6}.st2{fill:#424242}.st3{fill:#f0eff1}</style><g id="outline"><path class="st0" d="M0 0h16v16H0z"/><path class="st1" d="M16 0H7v5H0v11h13V9h3z"/></g><g id="icon_x5F_bg"><path class="st2" d="M10 3h1v1h-1zM12 3h1v1h-1zM11 4h1v1h-1z"/><path class="st2" d="M8 1v4h1V2h5v5h-1v1h2V1z"/><path class="st2" d="M1 15h11V6H1v9zm1-8h9v7H2V7z"/><path class="st2" d="M3 8h1v1H3zM4 9h1v1H4zM5 8h1v1H5zM3 10h1v1H3zM4 11h1v1H4zM5 10h1v1H5zM6 9h1v1H6zM7 8h1v1H7zM3 12h1v1H3z"/></g><g id="icon_x5F_fg"><path class="st3" d="M9 2v3h2V4h-1V3h1v1h1V3h1v1h-1v1h1v2h1V2zM2 14h9V7H2v7zm1-2h1v-1H3v-1h1V9H3V8h1v1h1V8h1v1h1V8h1v1H7v1H6v1H5v1H4v1H3v-1z"/><path class="st3" d="M5 9h1v1H5zM4 10h1v1H4z"/></g></svg>