<svg xmlns="http://www.w3.org/2000/svg" viewBox="0 0 16 16"><style>.st0{opacity:0}.st0,.st1{fill:#f6f6f6}.st2{fill:#424242}.st3{fill:#f0eff1}</style><g id="outline"><path class="st0" d="M0 0h16v16H0z"/><path class="st1" d="M13.03 10.016V4.688l-2.024-1.801V2L8.553 0h-4.57c-.969 0-2 .701-2 2v6.016c0 1.299 1.03 2 2 2h.023c0 1.221.884 1.906 1.772 1.984H5v1H3v3h10v-3h-2v-.987c1.403-.017 1.982-1.164 2.03-1.997z"/></g><g id="icon_x5F_bg"><path class="st2" d="M3.984 4c0-.081.015-.152.023-.228V2h4.748L7.631 1H3.948s-.941 0-.941 1v6.016c0 1 .941 1 .941 1h.036V4z"/><path class="st2" d="M10.972 11.016c1 0 1.059-1 1.059-1V5.137L9.631 3H5.948s-.941 0-.941 1v6.015c0 1 .941 1 .941 1H7V13H6v1H4v1h8v-1h-2v-1H9v-1.984h1.972zM6.007 4H9.03v2h2v4.016H6.007V4z"/><path class="st2" d="M7 6h2v1H7zM7 8h3v1H7z"/></g><g id="icon_x5F_fg"><path class="st3" d="M5.983 2h.958-2.957v2c0-1.298 1.03-2 1.999-2zM8.942 5.96V4H5.984v6.015h5.024v-4.02L8.942 5.96zM7 6h2v1H7V6zm3 3H7V8h3v1z"/></g></svg>