<svg xmlns="http://www.w3.org/2000/svg" viewBox="0 0 16 16"><style>.st0{opacity:0}.st0,.st1{fill:#f6f6f6}.st2{fill:#424242}.st3{fill:#00539c}.st4{fill:#f0eff1}</style><g id="outline"><path class="st0" d="M0 0h16v16H0z"/><path class="st1" d="M9 3c-.456 0-.897.056-1.324.152l.566-.566L5.656 0h-.484L4 1.172 2.828 0h-.484L0 2.344v.484L1.172 4 0 5.172v.484l2.586 2.586.566-.566A6.017 6.017 0 0 0 3 9c0 3.309 2.691 6 6 6s6-2.691 6-6-2.691-6-6-6z"/></g><g id="icon_x5F_bg"><path class="st2" d="M9 4c-.644 0-1.254.132-1.818.354l1.061 1.061-.625.624A2 2 0 1 1 6 8c0-.131.015-.258.039-.382l-.625.624-1.06-1.06A4.946 4.946 0 0 0 4 9a5 5 0 0 0 5 5 5 5 0 0 0 5-5 5 5 0 0 0-5-5z"/><path class="st3" d="M5.414 6.828l1.414-1.414L5.414 4l1.414-1.414-1.414-1.414L4 2.586 2.586 1.172 1.172 2.586 2.586 4 1.172 5.414l1.414 1.414L4 5.414z"/></g><path class="st4" d="M8 6c-.131 0-.258.015-.382.039L6.039 7.618A2 2 0 1 0 8 6z" id="icon_x5F_fg"/><path class="st4" d="M6 0H1.5 6z" id="not_x5F_fg"/></svg>