<svg xmlns="http://www.w3.org/2000/svg" viewBox="0 0 16 16"><style>.st0{opacity:0}.st0,.st1{fill:#f6f6f6}.st2,.st3{fill:#424242}.st3{stroke:#424242;stroke-width:.25;stroke-miterlimit:10}.st4{fill:#f0eff1}</style><g id="outline"><path class="st0" d="M0 0h16v16H0z"/><path class="st1" d="M1 0h15v15H1z"/></g><g id="icon_x5F_bg"><path class="st2" d="M3 2h1.904l.952-1H2v1.604L2.567 2zM7 6H5.023L5 6.023V6H3v-.941l-1-.941V7h6V3.028l-1 .998z"/><path class="st3" d="M4.615 5.205L2.658 3.364l.684-.728 1.234 1.16L7.218 1.02l.724.689z"/><path class="st2" d="M2 8v6h6V8H2zm5 5H3V9h4v4zM10 9h1.904l.952-1H9v1.604L9.567 9zM14 13h-1.977l-.023.023V13h-2v-.941l-1-.941V14h6v-3.973l-1 .999z"/><path class="st3" d="M11.615 12.205l-1.957-1.841.684-.728 1.234 1.16 2.642-2.776.724.689z"/><path class="st2" d="M9 1v6h6V1H9zm5 5h-4V2h4v4z"/></g><g id="icon_x5F_fg"><path class="st4" d="M3 6h1.001L3 5.059zM4.904 2h-.778l.411.386zM5.023 6H7V4.026zM10 2h4v4h-4zM3 9h4v4H3z"/><g><path class="st4" d="M12.023 13H14v-1.974zM11.904 9h-.778l.411.387zM10 13h1.001L10 12.059z"/></g></g></svg>