<svg xmlns="http://www.w3.org/2000/svg" viewBox="0 0 16 16"><style>.st0{opacity:0}.st0,.st1{fill:#f6f6f6}.st2{fill:#424242}.st3{fill:#f0eff1}</style><g id="outline"><path class="st0" d="M0 0h16v16H0z"/><path class="st1" d="M10 0v2H6V0H0v6h1.881l3.333 4H5v6h6v-6h-.214l3.333-4H16V0h-6zM8 8.657L5.786 6H6V5h4v1h.215L8 8.657z"/></g><path class="st2" d="M11 1v2H5V1H1v4h1.349l5 6H6v4h4v-4H8.651l5-6H15V1h-4zM2 4V2h2v2H2zm7 8v2H7v-2h2zm-1-1.781L3.651 5H5V4h6v1h1.35L8 10.219zM14 4h-2V2h2v2z" id="icon_x5F_bg"/><g id="icon_x5F_fg"><path class="st3" d="M2 2h2v2H2zM12 2h2v2h-2zM7 12h2v2H7z"/></g></svg>