<svg xmlns="http://www.w3.org/2000/svg" viewBox="0 0 16 16"><style>.icon-canvas-transparent{opacity:0;fill:#f6f6f6}.icon-vs-out{fill:#f6f6f6}.icon-vs-bg{fill:#424242}</style><path class="icon-canvas-transparent" d="M16 16H0V0h16v16z" id="canvas"/><path class="icon-vs-out" d="M7 11h1v-1c0-.537.741-1.613 1-2-.259-.389-1-1.467-1-2V5H7V2h1c1.969.021 3 1.277 3 3 0 0-.004.965 0 1l1 1v2l-1 1c-.003.029 0 1 0 1 0 1.709-1.031 2.979-3 3H7v-3zm-2 0H4v-1c0-.537-.741-1.613-1-2 .259-.389 1-1.467 1-2V5h1V2H4c-1.969.021-3 1.277-3 3 0 0 .004.965 0 1L0 7v2l1 1c.003.029 0 1 0 1 0 1.709 1.317 2.979 3.286 3H5v-3z" id="outline"/><g id="iconBg"><path class="icon-vs-bg" d="M9 11v-1c0-.834.496-1.738 1-2-.504-.27-1-1.168-1-2V5c0-.84-.584-1-1-1V3c2.083 0 2 1.166 2 2v1c0 .969.703.98 1 1v2c-.322.02-1 .053-1 1v1c0 .834.083 2-2 2v-1c.833 0 1-1 1-1zm-6 0v-1c0-.834-.496-1.738-1-2 .504-.27 1-1.168 1-2V5c0-.84.584-1 1-1V3C1.917 3 2 4.166 2 5v1c0 .969-.703.98-1 1v2c.322.02 1 .053 1 1v1c0 .834-.083 2 2 2v-1c-.833 0-1-1-1-1z"/></g></svg>