<svg xmlns="http://www.w3.org/2000/svg" viewBox="0 0 16 16"><style>.icon-canvas-transparent{opacity:0;fill:#f6f6f6}.icon-vs-out{fill:#f6f6f6}.icon-vs-bg{fill:#424242}.icon-vs-blue{fill:#1ba1e2}</style><path class="icon-canvas-transparent" d="M16 0v16H0V0h16z" id="canvas"/><path class="icon-vs-out" d="M15.969 3.493a3.48 3.48 0 0 1-.938 2.365v6.15c0 2.275-3.01 3.992-7 3.992-1.81 0-3.413-.356-4.63-.954L2.445 16H.413l1.186-2.366c-.148-.2-.265-.41-.355-.628H.031v-1.234l1-1.996V4.023c0-2.276 3.01-3.992 7-3.992 1.049 0 2.027.121 2.904.337A3.47 3.47 0 0 1 12.469 0c1.929 0 3.5 1.567 3.5 3.493z" id="outline"/><g id="iconBg"><path class="icon-vs-blue" d="M14 9.233v2.798c0 1.657-2.687 3-6 3-1.478 0-2.829-.269-3.875-.711l.774-.774c.819.286 1.863.485 3.101.485 3.052 0 5-1.185 5-2l.005-2.123c.399-.119.743-.355.995-.675zM10.574 6.51c-.193-.14-.817-.748-.978-.919-.564.101-1.185.168-1.871.168-3.052 0-4.454-.912-4.454-1.728s1.675-2 4.727-2c.438 0 .845.03 1.234.074.15-.344.361-.653.608-.929A11.64 11.64 0 0 0 8 1.031c-3.313 0-6 1.343-6 3v3.764l.382-.764L2.644 7H3V5.661c1.206.907 3.107 1.132 5.162 1.132.856-.001 1.67-.107 2.412-.283z"/><path class="icon-vs-bg" d="M6.063 8.031l-3 3h3l-4 4 1.5-3h-2.5l2-4h3zm7.437-6.82V4h-2V1.211C10.617 1.598 10 2.476 10 3.5s.617 1.902 1.5 2.289V8a1 1 0 1 0 2 0V5.789a2.497 2.497 0 0 0 0-4.578z"/></g></svg>