<svg xmlns="http://www.w3.org/2000/svg" viewBox="0 0 16 16"><style>.st0{fill:#f6f6f6}.st1{fill:#424242}</style><path class="st0" d="M15 6c-.004-.035 0-1 0-1 0-1.723-1.031-2.979-3-3h-1v3h1v1c0 .534.741 1.611 1 2-.259.388-1 1.465-1 2V7H4v3c0-.535-.741-1.612-1-2 .259-.389 1-1.466 1-2V5h1V2H4c-1.969.021-3 1.277-3 3 0 0 .004.965 0 1L0 7v2l1 1c.003.03 0 1 0 1 0 1.71 1.317 2.979 3.286 3H5v-3h6v3h1c1.969-.021 3-1.29 3-3 0 0-.003-.97 0-1l1-1V7l-1-1z" id="outline"/><g id="icon_x5F_bg"><path class="st1" d="M14 6V5c0-.834.083-2-2-2v1c.416 0 1 .16 1 1v1c0 .833.496 1.731 1 2-.504.264-1 1.166-1 2v1s-.167 1-1 1v1c2.083 0 2-1.166 2-2v-1c0-.947.678-.98 1-1V7c-.297-.019-1-.031-1-1zM2 5v1c0 .969-.703.981-1 1v2c.322.02 1 .053 1 1v1c0 .834-.083 2 2 2v-1c-.833 0-1-1-1-1v-1c0-.834-.496-1.736-1-2 .504-.269 1-1.167 1-2V5c0-.84.584-1 1-1V3C1.917 3 2 4.166 2 5zM5 8h2v2H5zM9 8h2v2H9z"/></g></svg>