<svg xmlns="http://www.w3.org/2000/svg" viewBox="0 0 16 16"><style>.st0{opacity:0}.st0,.st1{fill:#f6f6f6}.st2{fill:#424242}.st3{fill:#f0eff1}</style><g id="outline"><path class="st0" d="M0 0h16v16H0z"/><path class="st1" d="M1 3s.004.965 0 1L0 5v2l1 1c.003.029 0 1 0 1 0 1.709 1.317 2.979 3.286 3H5V9H4V8c0-.537-.741-1.613-1-2 .259-.389 1-1.467 1-2V3h1V0H4C2.031.021 1 1.277 1 3zM11 9s-.003-.971 0-1l1-1V5l-1-1c-.004-.035 0-1 0-1C11 1.277 9.969.021 8 0H7v3h1v1c0 .533.741 1.611 1 2-.259.387-1 1.463-1 2v1H7v3h1a3.713 3.713 0 0 0 1-.152V16h7V9h-5z"/></g><g id="icon_x5F_bg"><path class="st2" d="M2 3v1c0 .969-.703.98-1 1v2c.322.02 1 .053 1 1v1c0 .834-.083 2 2 2v-1c-.833 0-1-1-1-1V8c0-.834-.496-1.738-1-2 .504-.27 1-1.168 1-2V3c0-.84.584-1 1-1V1C1.917 1 2 2.166 2 3zM10 8c0-.947.678-.98 1-1V5c-.297-.02-1-.031-1-1V3c0-.834.083-2-2-2v1c.416 0 1 .16 1 1v1c0 .832.496 1.73 1 2-.504.262-1 1.166-1 2v1h1V8zM9 9s-.167 1-1 1v1a3.2 3.2 0 0 0 1-.142V9zM10 10v5h5v-5h-5zm4 3l-1 1v-1.5L11.5 14l-.5-.5 1.5-1.5H11l1-1h2v2z"/></g><path class="st3" d="M14 11v2l-1 1v-1.5L11.5 14l-.5-.5 1.5-1.5H11l1-1z" id="icon_x5F_fg"/></svg>