<svg xmlns="http://www.w3.org/2000/svg" viewBox="0 0 16 16"><style>.st0{opacity:0}.st0,.st1{fill:#f6f6f6}.st2{fill:#424242}.st3{fill:#f0eff1}</style><g id="outline"><path class="st0" d="M0 0h16v16H0z"/><path class="st1" d="M16 0H3v6.051C1.309 6.296 0 7.742 0 9.5c0 1.156.572 2.223 1.5 2.869V14a2 2 0 0 0 4 0v-1.631c.154-.106.281-.241.415-.369H16V0z"/></g><g id="icon_x5F_bg"><path class="st2" d="M4 1v5.051a3.45 3.45 0 0 1 1 .3V2h9v8H6.938a3.465 3.465 0 0 1-.292 1H15V1H4z"/><path class="st2" d="M4.5 7.211V10h-2V7.211A2.5 2.5 0 0 0 1 9.5c0 1.023.618 1.902 1.5 2.289V14a1 1 0 1 0 2 0v-2.211a2.498 2.498 0 0 0 0-4.578zM11 9l1.5-1.5L11 6h-1l1 1H8v1h3l-1 1zM8 3L6.5 4.5 8 6h1L8 5h3V4H8l1-1z"/></g><path class="st3" d="M5 2v4.351c1.178.564 2 1.758 2 3.149 0 .171-.037.334-.062.5H14V2H5zm1.5 2.5L8 3h1L8 4h3v1H8l1 1H8L6.5 4.5zM11 9h-1l1-1H8V7h3l-1-1h1l1.5 1.5L11 9z" id="icon_x5F_fg"/></svg>