<svg xmlns="http://www.w3.org/2000/svg" viewBox="0 0 16 16"><style>.st0{opacity:0}.st0,.st1{fill:#f6f6f6}.st2{fill:#424242}.st3{fill:#f0eff1}</style><g id="outline"><path class="st0" d="M0 0h16v16H0z"/><path class="st1" d="M0 1v15h11v-1h5V1z"/></g><g id="icon_x5F_bg"><path class="st2" d="M1 2v7h1V5h12v8h-3v1h4V2z"/><path class="st2" d="M1 15h4v-5H1v5zm3-4v3l-2-1.5L4 11zM6 15h4v-5H6v5zm1-4l2 1.5L7 14v-3z"/></g><g id="icon_x5F_fg"><path class="st3" d="M2 5v4h9v4h3V5zM4 14v-3l-2 1.5z"/><path class="st3" d="M7 14l2-1.5L7 11z"/></g></svg>