<svg xmlns="http://www.w3.org/2000/svg" viewBox="0 0 16 16"><style>.st0{opacity:0}.st0,.st1{fill:#f6f6f6}.st2{fill:#424242}.st3{fill:#f0eff1}</style><g id="outline"><path class="st0" d="M0 0h16v16H0z"/><path class="st1" d="M9 0H4v2H3v1H0v13h12v-3h4V0z"/></g><g id="icon_x5F_bg"><path class="st2" d="M9 1v2h5v2h-2v1h2v2h-2v1h2v2h-2v1h3V1z"/><path class="st2" d="M8 4.914L6.914 6H7v8H5V6.914l-2-2V4H1v11h10V4H8v.914zM4 14H2v-2h2v2zm0-3H2V9h2v2zm0-3H2V6h2v2zm6 6H8v-2h2v2zm0-3H8V9h2v2zm0-3H8V6h2v2z"/><path class="st2" d="M7 4.5V3L6 4V2.5c0-.275.225-.5.5-.5H8V1H6.5C5.673 1 5 1.673 5 2.5V4L4 3v1.5L5.5 6 7 4.5z"/></g><g id="icon_x5F_fg"><path class="st3" d="M12 9h2v2h-2zM12 6h2v2h-2zM12 3h2v2h-2zM2 6h2v2H2zM5.5 7.414l-.5-.5V14h2V6h-.086zM2 12h2v2H2zM2 9h2v2H2zM8 12h2v2H8zM8 6h2v2H8zM8 9h2v2H8z"/></g></svg>