<svg xmlns="http://www.w3.org/2000/svg" viewBox="0 0 16 16"><style>.icon-canvas-transparent{opacity:0;fill:#f6f6f6}.icon-vs-out{fill:#f6f6f6}.icon-vs-bg{fill:#424242}.icon-vs-fg{fill:#f0eff1}.icon-vs-action-red{fill:#a1260d}</style><path class="icon-canvas-transparent" d="M16 16H0V0h16v16z" id="canvas"/><path class="icon-vs-out" d="M7.525 14l1-1H0V1h16v10.06l-.293-.293-1.263 1.263L16 13.586v.828L14.414 16h-.949l-1.495-1.495L10.475 16h-.95l-2-2z" id="outline"/><path class="icon-vs-fg" d="M8 8L3 3h10L8 8zm3.97 1.556l1.97-1.97.06.06V4l-3.793 3.793 1.763 1.763zm-4.445.505L8.586 9H7L2 4v7h6.465l-.94-.939z" id="iconFg"/><path class="icon-vs-bg" d="M15 11.475V12h-.525l.525-.525zM9.465 12H1V2h14v6.646l-1-1V4l-3.793 3.793L10 7.586 8.586 9H7L2 4v7h6.465l1 1zM3 3l5 5 5-5H3z" id="iconBg"/><path class="icon-vs-action-red" d="M13.03 12.03L15 14l-1.061 1.061-1.97-1.97L10 15.061 8.939 14l1.97-1.97-1.97-1.97L10 9l1.97 1.97L13.939 9 15 10.061l-1.97 1.969z" id="colorAction"/></svg>