<svg xmlns="http://www.w3.org/2000/svg" viewBox="0 0 16 16"><style>.st0{opacity:0}.st0,.st1{fill:#f6f6f6}.st2{fill:#424242}.st3{fill:#f0eff1}</style><g id="outline"><path class="st0" d="M0 0h16v16H0z"/><path class="st1" d="M11.375 9.79l.211.21h2.828L16 8.414V6.586L14.414 5h-2.828L10 6.586v-5L8.414 0H1.586L0 1.586v11.828L1.586 15h6.828l1.21-1.21.376.125v.499L11.586 16h2.828L16 14.414v-1.828L14.414 11h-2.828l-.211.21L10 10.752v-.504z"/></g><g id="icon_x5F_bg"><path class="st2" d="M6 12H3l-1-1v-1l1-1h1V5H3L2 4V3l1-1h3l1 1v1L6 5H5v4h1l.354.354L9 8.473V2L8 1H2L1 2v11l1 1h6l1-1v-.473l-2.646-.881z"/><path class="st2" d="M7 10.194v.612l2 .667V9.527zM3 3h3v1H3zM3 10h3v1H3zM11.646 8.646L12 9h2l1-1V7l-1-1h-2l-1 1v.806l-2 .667v1.055l2.646-.882zM12 7h2v1h-2V7zM11 13.194V14l1 1h2l1-1v-1l-1-1h-2l-.354.354L9 11.473v1.055l2 .666zM12 13h2v1h-2v-1z"/></g><g id="icon_x5F_fg"><path class="st3" d="M6 9H5V5h1l1-1V3L6 2H3L2 3v1l1 1h1v4H3l-1 1v1l1 1h3l.354-.354L9 12.527v-1.055l-2-.667v-.611l2-.667V8.473l-2.646.881L6 9zM3 4V3h3v1H3zm3 7H3v-1h3v1zM12 7h2v1h-2zM12 13h2v1h-2z"/></g></svg>