<svg xmlns="http://www.w3.org/2000/svg" viewBox="0 0 16 16"><style>.st0{opacity:0}.st0,.st1{fill:#f6f6f6}.st2{fill:#424242}.st3{fill:#f0eff1}</style><g id="outline"><path class="st0" d="M0 0h16v16H0z"/><path class="st1" d="M15 6V0H0v14h5v1h11V6z"/></g><path class="st2" d="M14 7V1H1v12h5v1h9V7h-1zm-9 5H2v-2h3v2zm0-3H2V7h3v2zm0-3H2V4h3v2zm1-2h3v2H6V4zm4 9H7v-2h3v2zm0-3H7V8h3v2zm0-6h3v2h-3V4zm4 9h-3v-2h3v2zm0-3h-3V8h3v2z" id="icon_x5F_bg"/><g id="icon_x5F_fg"><path class="st3" d="M7 8h3v2H7zM11 8h3v2h-3zM7 11h3v2H7zM11 11h3v2h-3zM2 4h3v2H2zM6 4h3v2H6zM10 4h3v2h-3zM2 7h3v2H2zM2 10h3v2H2z"/></g></svg>