<svg xmlns="http://www.w3.org/2000/svg" viewBox="0 0 16 16"><style>.st0{opacity:0}.st0,.st1{fill:#f6f6f6}.st2{fill:#424242}.st3{fill:#f0eff1}</style><g id="outline"><path class="st0" d="M0 0h16v16H0z"/><path class="st1" d="M4 0v6.786L3.5 6.5 0 8.5V16h7v-1h1v1h4v-1h3v-3h1V0z"/></g><g id="icon_x5F_bg"><path class="st2" d="M15 11V1H5v6.357l1 .572V2h8v8H7v1h2v1H8v1H7v1h2v1h2v-1h3v-1h-2v-1h-1v-1z"/><path class="st2" d="M4 8l-.5 2L3 8 1 9l1.5 1H1v5h5v-5H4.5L6 9 4 8zm-1 6H2v-1h1v1zm0-2H2v-1h1v1zm2 2H4v-1h1v1zm0-3v1H4v-1h1zM12 6.092V4H9.908A1.496 1.496 0 0 0 7 4.5a1.496 1.496 0 1 0 2.908.5H11v1.092A1.496 1.496 0 0 0 11.5 9a1.496 1.496 0 1 0 .5-2.908zM8.5 5a.5.5 0 1 1 0-1 .5.5 0 0 1 0 1zm3 3a.5.5 0 1 1 0-1 .5.5 0 0 1 0 1z"/></g><g id="icon_x5F_fg"><path class="st3" d="M2 11h1v1H2zM4 13h1v1H4zM2 13h1v1H2zM4 11h1v1H4zM6 2v8h8V2H6zm5.5 7a1.496 1.496 0 1 1-.5-2.908V5H9.908A1.496 1.496 0 0 1 7 4.5 1.496 1.496 0 1 1 9.908 4H12v2.092A1.496 1.496 0 0 1 11.5 9z"/><circle class="st3" cx="11.5" cy="7.5" r=".5"/><circle class="st3" cx="8.5" cy="4.5" r=".5"/></g></svg>