<svg xmlns="http://www.w3.org/2000/svg" viewBox="0 0 16 16"><style>.st0{opacity:0}.st0,.st1{fill:#f6f6f6}.st2{fill:#424242}.st3{fill:#f0eff1}</style><g id="outline"><path class="st0" d="M0 0h16v16H0z"/><path class="st1" d="M8 13v-1H4v1H1V2h3v1h12v9h-1v1H8z"/></g><g id="icon_x5F_bg"><path class="st2" d="M10 6h1v1h-1zM8 6h1v3H8zM10 8h1v1h-1zM12 6h1v3h-1zM4 6h1v3H4z"/><path class="st2" d="M3 4V3H2v9h1v-1h6v1h5v-1h1V4H3zm11 6h-1v1h-1v-1h-1v1h-1v-1H3V5h11v5z"/><path class="st2" d="M6 8h1v1H6zM6 6h1v1H6z"/></g><path class="st3" d="M3 5v5h7v1h1v-1h1v1h1v-1h1V5H3zm2 4H4V6h1v3zm2 0H6V8h1v1zm0-2H6V6h1v1zm2 2H8V6h1v3zm2 0h-1V8h1v1zm0-2h-1V6h1v1zm2 2h-1V6h1v3z" id="icon_x5F_fg"/></svg>