<svg xmlns="http://www.w3.org/2000/svg" width="16" height="16"><style type="text/css">.icon-canvas-transparent{opacity:0;fill:#F6F6F6;} .icon-vs-out{fill:#F6F6F6;} .icon-vs-bg{fill:#424242;}</style><path class="icon-canvas-transparent" d="M16 16h-16v-16h16v16z" id="canvas"/><path class="icon-vs-out" d="M8 11h8v5h-13v-5h2v-1.432l-5-4.175v-1.776c1.646-1.834 3.969-2.889 6.445-2.889 2.543 0 4.904 1.101 6.555 3.016v1.75l-5 3.953v1.553z" id="outline"/><g id="iconBg"><path class="icon-vs-bg" d="M14 12h-7v-3h-1v3h-2v3h11v-3h-1zm-4.016 2h-1v-1h1v1zm2 0h-1v-1h1v1zm2.016 0h-1v-1h1v1zm-10.805-7.238l-.766-.639c.924-1.312 2.41-2.089 4.026-2.089 1.669 0 3.199.829 4.115 2.221l-.58.484-.205.129c-.726-1.152-1.971-1.84-3.331-1.84-1.317-.001-2.525.646-3.259 1.734zm3.259.524c.657 0 1.256.387 1.527.985l.731-.469c-.433-.843-1.303-1.385-2.258-1.385-.9 0-1.726.481-2.181 1.243l.679.565c.28-.571.863-.939 1.502-.939zm5.263-1.987l.762-.635c-1.451-1.846-3.67-2.935-6.035-2.935-2.301 0-4.46 1.02-5.925 2.797l.766.631c1.275-1.548 3.155-2.436 5.159-2.436 2.07 0 4.01.957 5.273 2.578z"/></g></svg>