<svg xmlns="http://www.w3.org/2000/svg" viewBox="0 0 16 16"><style>.st0{opacity:0}.st0,.st1{fill:#f6f6f6}.st2{fill:#424242}.st3{fill:#f0eff1}</style><g id="outline"><path class="st0" d="M0 0h16v16H0z"/><path class="st1" d="M4 1V0H1v6.382C.385 7.086 0 7.995 0 9c0 2.205 1.794 4 4 4 .348 0 .693-.047 1.031-.141l2.554 2.555a2 2 0 0 0 2.829-2.828L8.828 11H15v-1h1V1H4z"/></g><g id="icon_x5F_bg"><path class="st2" d="M7 6.382V6h-.382c.136.119.263.246.382.382zM6 4h1v1H6z"/><path class="st2" d="M3 2V1H2v4.557a3.984 3.984 0 0 1 1-.415V3h11v5h-1v1h-1V8h-1v1h-1V8H7.858c.083.321.142.653.142 1h1v1h5V9h1V2H3z"/><path class="st2" d="M4 5c.347 0 .679.059 1 .142V4H4v1zM10 4h1v1h-1zM12 4h1v3h-1zM10 6h1v1h-1zM8 4h1v3H8zM9.707 13.293L6.7 10.286C6.887 9.895 7 9.463 7 9a3 3 0 0 0-3-3c-.301 0-.586.058-.86.14L5 8l-2 2-1.86-1.86C1.058 8.414 1 8.699 1 9a3 3 0 0 0 3 3c.462 0 .895-.113 1.286-.3l3.006 3.007a1.001 1.001 0 0 0 1.415-1.414z"/></g><path class="st3" d="M3 3v2.142A3.978 3.978 0 0 1 4 5V4h1v1.142A3.977 3.977 0 0 1 6.618 6H7v.382c.402.461.7 1.009.858 1.618H10v1h1V8h1v1h1V8h1V3H3zm4 2H6V4h1v1zm2 2H8V4h1v3zm2 0h-1V6h1v1zm0-2h-1V4h1v1zm2 2h-1V4h1v3z" id="icon_x5F_fg"/></svg>