<svg xmlns="http://www.w3.org/2000/svg" viewBox="0 0 16 16"><style>.st0{opacity:0}.st0,.st1{fill:#f6f6f6}.st2{fill:#424242}.st3{fill:#f0eff1}</style><g id="outline"><path class="st0" d="M0 0h16v16H0z"/><path class="st1" d="M2 0v12h1v3h3v1h4v-1h3v-3h1V0z"/></g><g id="icon_x5F_bg"><path class="st2" d="M10 6.092V4H7.908A1.496 1.496 0 0 0 5 4.5a1.496 1.496 0 1 0 2.908.5H9v1.092A1.496 1.496 0 0 0 9.5 9a1.496 1.496 0 1 0 .5-2.908zM6.5 5a.5.5 0 1 1 0-1 .5.5 0 0 1 0 1zm3 3a.5.5 0 1 1 0-1 .5.5 0 0 1 0 1z"/><path class="st2" d="M13 11V1H3v10h4v1H6v1H4v1h3v1h2v-1h3v-1h-2v-1H9v-1h4zm-9-1V2h8v8H4z"/></g><g id="icon_x5F_fg"><circle class="st3" cx="6.5" cy="4.5" r=".5"/><circle class="st3" cx="9.5" cy="7.5" r=".5"/><path class="st3" d="M4 2v8h8V2H4zm5.5 7A1.496 1.496 0 1 1 9 6.092V5H7.908A1.496 1.496 0 0 1 5 4.5 1.496 1.496 0 1 1 7.908 4H10v2.092A1.496 1.496 0 0 1 9.5 9z"/></g></svg>