<svg xmlns="http://www.w3.org/2000/svg" viewBox="0 0 16 16"><style>.st0{opacity:0}.st0,.st1{fill:#f6f6f6}.st2{fill:#424242}.st3{fill:#f0eff1}</style><g id="outline"><path class="st0" d="M0 0h16v16H0z"/><path class="st1" d="M14.91 12.236l-.555-1.388A2.987 2.987 0 0 0 15 9a3.004 3.004 0 0 0-3.192-2.993l-.661-.99A3.43 3.43 0 0 0 11.5 3.5C11.5 1.57 9.93 0 8 0S4.5 1.57 4.5 3.5c0 .53.121 1.044.353 1.517l-.661.99A3.004 3.004 0 0 0 1 9c0 .674.233 1.325.645 1.849l-.555 1.387A1.97 1.97 0 0 0 0 14c0 1.102.897 2 2 2s2-.898 2-2c0-.225-.041-.447-.12-.66l.12-.301.12.301c-.079.213-.12.435-.12.66 0 1.102.897 2 2 2s2-.898 2-2a1.97 1.97 0 0 0-1.09-1.764l-.555-1.388a2.962 2.962 0 0 0 .331-3.173l.514-.772a3.312 3.312 0 0 0 1.6 0l.515.771a2.957 2.957 0 0 0 .33 3.175l-.555 1.387A1.97 1.97 0 0 0 8 14c0 1.102.897 2 2 2 1.104 0 2-.898 2-2 0-.225-.041-.447-.12-.66l.12-.301.12.301c-.079.213-.12.435-.12.66 0 1.102.896 2 2 2s2-.898 2-2a1.97 1.97 0 0 0-1.09-1.764z"/></g><path class="st2" d="M14.15 13.03l-.969-2.424C13.676 10.242 14 9.661 14 9a2 2 0 0 0-2-2c-.231 0-.447.047-.653.118L9.959 5.036c.334-.425.541-.954.541-1.536a2.5 2.5 0 1 0-5 0c0 .582.208 1.111.542 1.536L4.653 7.118A1.989 1.989 0 0 0 4 7a2 2 0 0 0-2 2c0 .661.325 1.242.819 1.606l-.97 2.424A.987.987 0 0 0 1 14a1 1 0 1 0 2 0 .98.98 0 0 0-.221-.601l.97-2.425c.083.011.165.026.251.026s.168-.015.251-.025l.97 2.425A.975.975 0 0 0 5 14a1 1 0 1 0 2 0 .987.987 0 0 0-.849-.97l-.97-2.424C5.675 10.242 6 9.661 6 9c0-.512-.198-.974-.514-1.327L6.81 5.686C7.166 5.88 7.567 6 8 6s.834-.12 1.189-.314l1.324 1.987A1.982 1.982 0 0 0 10 9c0 .661.324 1.242.818 1.606L9.85 13.03A.987.987 0 0 0 9 14a1 1 0 1 0 2 0 .98.98 0 0 0-.221-.601l.97-2.425c.083.011.165.026.251.026s.168-.015.251-.025l.97 2.425A.975.975 0 0 0 13 14a1 1 0 1 0 2 0 .987.987 0 0 0-.85-.97zM4 10a1.001 1.001 0 0 1 0-2 1.001 1.001 0 0 1 0 2zm4-5c-.827 0-1.5-.673-1.5-1.5S7.173 2 8 2s1.5.673 1.5 1.5S8.827 5 8 5zm4 5a1.001 1.001 0 0 1 0-2 1.001 1.001 0 0 1 0 2z" id="icon_x5F_bg"/><g id="icon_x5F_fg"><circle class="st3" cx="8" cy="3.5" r="1.5"/><circle class="st3" cx="4" cy="9" r="1"/><circle class="st3" cx="12" cy="9" r="1"/></g></svg>