<svg xmlns="http://www.w3.org/2000/svg" viewBox="0 0 16 16"><style>.st0{opacity:0}.st0,.st1{fill:#f6f6f6}.st2{fill:#424242}.st3{fill:#c27d1a}</style><g id="outline"><path class="st0" d="M0 0h16v16H0z"/><path class="st1" d="M16 0h-6l.001 1.547c-.379-.264-.872-.456-1.518-.517L7.28.917l-.659-.66-.545.546L6 .796V0H3v.878L2.379.257.257 2.379.878 3H0v3h.878l-.621.621 1.001 1-.146.58A3.325 3.325 0 0 0 1 9c0 .158-.161.392-.287.517L0 9.563v2.877l.915.056c.023.004.057.017.075.017.005 0 .009-.001.01-.004V13c0 1.445.939 3 3 3h1v-2h3v-3c1.055 0 1.811-.409 2.303-1H16V6h-1.465l.667-1-.667-1H16V0zM4 10v2.5c0-.579-.228-1.094-.532-1.503.304-.411.532-.924.532-1.497v.5zm4-2.5v-.137l.015-.015c-.004.051-.015.1-.015.152zm.369-1.252L8.121 6h.409c-.058.078-.11.163-.161.248zm2.917-1.731C11.16 4.391 11 4.158 11 4v-.2l.486.729-.2-.012z"/></g><g id="icon_x5F_bg"><path class="st2" d="M6 8.121V9H5v1h2V8.363l-.379.379zM5 11h2v2H5zM3 8.121l-.621.621-.297-.297A2.343 2.343 0 0 0 2 9c0 .773-.764 1.484-1 1.5v1c.258.016 1 .242 1 1v.5c0 .666.333 2 2 2v-1c-1 0-1-.5-1-.5v-1c0-.668-.597-1.291-1-1.5.403-.215 1-.834 1-1.5V8.121zM11 5.5c-.237-.016-1-.727-1-1.5v-.5c0-.61-.291-1.35-1.611-1.475l.353.354L8.121 3H9v1.5c0 .666.597 1.285 1 1.5-.403.209-1 .832-1 1.5v1S9 9 8 9v1c1.667 0 2-1.334 2-2 0-.758.742-1.484 1-1.5v-1zM15 8.002V7h-1v1h-2.004L12 7.997 14 5l-1.999-3H14v1h1V1h-4v1h.002L13 4.998 11 8v1h4z"/></g><path class="st3" d="M8 4H5.707l1.621-1.621-.707-.708L5 3.292V1H4v2.292L2.379 1.671l-.708.708L3.292 4H1v1h2.292L1.671 6.621l.708.707L4 5.707V8h1V5.707l1.621 1.621.707-.707L5.707 5H8V4zM5 5H4V4h1v1z" id="color_x5F_importance"/></svg>