<svg xmlns="http://www.w3.org/2000/svg" viewBox="0 0 16 16"><style>.st0{opacity:0;fill:#c27d1a}.st1{fill:#f6f6f6}.st2{fill:#424242}.st3{fill:#c27d1a}</style><g id="outline"><path class="st0" d="M0 0h16v16H0z"/><path class="st1" d="M15.404 7.004a5.062 5.062 0 0 0-1.298-1.692 5.644 5.644 0 0 0-1.861-1.04A6.8 6.8 0 0 0 9 4.002V3h-.879l.621-.621L6.621.257 6 .878V0H3v.878L2.379.257.257 2.379.878 3H0v3h.878l-.621.621 2.122 2.121L3 8.121V9h.989c-.061.366-.103.74-.103 1.127 0 .858.15 1.653.444 2.357.294.712.72 1.336 1.267 1.855a5.618 5.618 0 0 0 1.915 1.178c.716.266 1.509.4 2.355.4a10.961 10.961 0 0 0 1.901-.157c.262-.05.555-.106.756-.172.203-.066.501-.13.642-.193L14 15.13v-1.703c0-.017-.168-.034-.129-.053.438-.204.589-.507.942-.912.325-.383.588-.847.782-1.382.192-.538.29-1.153.29-1.828a5.2 5.2 0 0 0-.481-2.248zm-5.557 3.068a1.884 1.884 0 0 1-.172.519c-.049.091-.104.159-.126.242 0 0-.026-.034-.048-.1a1.202 1.202 0 0 1-.037-.322c0-.19.022-.393.064-.589.043-.191.102-.35.18-.492a.739.739 0 0 1 .191-.231.822.822 0 0 1 .017.18c0 .272-.024.545-.069.793z"/></g><g id="icon_x5F_bg"><path class="st2" d="M11.688 13.74c-.179.063-.273.116-.479.158-.209.042-.379.077-.621.1a6.729 6.729 0 0 1-.753.037c-.624 0-1.17-.098-1.663-.293a3.594 3.594 0 0 1-1.245-.812 3.506 3.506 0 0 1-.783-1.248 4.531 4.531 0 0 1-.268-1.592c0-.605.1-1.169.303-1.691.009-.023.023-.042.032-.065L6 8.121V9H4.899a5.79 5.79 0 0 0-.118 1.128c0 .726.122 1.386.368 1.975a4.37 4.37 0 0 0 1.031 1.513c.441.419.969.74 1.574.966a5.752 5.752 0 0 0 2.008.338 8.651 8.651 0 0 0 1.653-.14c.217-.042.585-.244.585-.295v-.948c0 .07-.133.14-.312.203z"/><path class="st2" d="M14.398 7.438a4.068 4.068 0 0 0-1.044-1.362 4.628 4.628 0 0 0-1.537-.855 5.771 5.771 0 0 0-1.878-.301A5.81 5.81 0 0 0 9 5v.914a4.668 4.668 0 0 1 2.173.042 3.8 3.8 0 0 1 .967.41c.282.176.518.377.715.608.198.231.359.479.486.74.125.264.215.534.273.813.056.281.084.556.084.823 0 .382-.037.726-.113 1.028-.075.305-.176.56-.298.771a1.43 1.43 0 0 1-.429.481.88.88 0 0 1-.504.165.58.58 0 0 1-.238-.05.403.403 0 0 1-.184-.174 1.009 1.009 0 0 1-.12-.339 2.883 2.883 0 0 1-.044-.547c0-.07.009-.19.019-.361.011-.169.029-.367.046-.59.018-.224.039-.462.062-.715.019-.251.042-.493.063-.719.02-.228.037-.587.054-.764s.027-.536.03-.536h-1.021l-.06 1h-.023c-.029 0-.078-.227-.151-.322a1.041 1.041 0 0 0-.259-.244 1.294 1.294 0 0 0-.752-.214c-.374 0-.717.079-1.025.24-.313.16-.576.381-.801.665a3.091 3.091 0 0 0-.517 1.005 4.028 4.028 0 0 0-.188 1.26c0 .382.05.716.148 1.002.099.288.234.525.4.718.17.19.365.333.593.425a1.804 1.804 0 0 0 1.267.053c.172-.058.335-.144.479-.258.149-.116.589-.33.65-1.33h.029c0 1 .112.914.342 1.156.229.244.557.449.986.449.325 0 .645-.03.959-.179.315-.146.597-.344.848-.631.246-.29.449-.638.604-1.063.153-.429.231-.919.231-1.485 0-.672-.13-1.272-.383-1.809zm-3.675 2.831c-.062.308-.15.574-.273.799a1.574 1.574 0 0 1-.453.534 1.07 1.07 0 0 1-.636.195.855.855 0 0 1-.382-.087.914.914 0 0 1-.321-.258 1.375 1.375 0 0 1-.22-.433 2.118 2.118 0 0 1-.079-.607c0-.264.03-.535.089-.811.063-.275.152-.525.278-.752.122-.223.278-.404.463-.547.183-.142.4-.213.646-.213.137 0 .261.023.378.069a.823.823 0 0 1 .311.218c.089.097.161.22.21.367a1.7 1.7 0 0 1 .078.534 5.69 5.69 0 0 1-.089.992z"/></g><path class="st3" d="M8 4H5.707l1.621-1.621-.707-.708L5 3.292V1H4v2.292L2.379 1.671l-.708.708L3.292 4H1v1h2.292L1.671 6.621l.708.707L4 5.707V8h1V5.707l1.621 1.621.707-.707L5.707 5H8V4zM5 5H4V4h1v1z" id="color_x5F_action"/></svg>