<svg xmlns="http://www.w3.org/2000/svg" viewBox="0 0 16 16"><style>.st0,.st1{fill:#f6f6f6}.st1{opacity:0}.st2{fill:#424242}.st3{fill:#c27d1a}.st4{fill:#f0eff1}</style><g id="outline"><path class="st0" d="M11.414 1h-4.05L6.621.257 6 .878V0H3v.878L2.379.257.257 2.379.878 3H0v3h.878l-.621.621L2 8.363V13c0 1.299 1.031 2 2 2h9c.97 0 2-.701 2-2V4.585L11.414 1z"/><path class="st1" d="M0 0h16v16H0z"/></g><g id="icon_x5F_bg"><path class="st2" d="M7 10h2v2H7zM9 5H8v3H7v1h2z"/><path class="st2" d="M11 2H8v1h2v3h3v7H4V9H3V8v5c0 1 1 1 1 1h9s1 0 1-1V5l-3-3z"/></g><path class="st3" d="M8 4H5.707l1.621-1.621-.707-.708L5 3.292V1H4v2.292L2.379 1.671l-.708.708L3.292 4H1v1h2.292L1.671 6.621l.708.707L4 5.707V8h1V5.707l1.621 1.621.707-.707L5.707 5H8V4zM5 5H4V4h1v1z" id="color_x5F_action"/><path class="st4" d="M10 6V3H9v6H7V8H6v1H4v4h9V6h-3zm-1 6H7v-2h2v2z" id="icon_x5F_fg"/></svg>