<svg xmlns="http://www.w3.org/2000/svg" viewBox="0 0 16 16"><style>.st0{opacity:0}.st0,.st1{fill:#f6f6f6}.st2{fill:#424242}.st3{fill:#c27d1a}</style><path class="st0" d="M0 0h16v16H0z" id="outline"/><g id="icon_x5F_bg"><path class="st1" d="M16 8.586c0-2.201-1.794-3-3-3-1.431 0-2.385.668-3.002 1.561a3.665 3.665 0 0 0-1.071-1.03L8.74 6H9V3h-.879l.621-.621L6.621.257 6 .878V0H3v.878L2.379.257.257 2.379.878 3H0v3h.878l-.621.621 2.122 2.121L3 8.121V9h1.03l.092.296c.185.597.813 1.878 2.837 2.21l-2.324 2.322 2.124 2.121L10 12.707 13.291 16l2.124-2.12-2.374-2.374C15.352 11.128 16 9.499 16 8.586z"/><path class="st2" d="M15 8.586c0-2-2-2-2-2-3 0-3 4-3 4S9.996 7.96 8.398 6.965l-.706.706c.304.293.601.575.635.589.487.581.673 1.326.673 1.326H7.514c-.851 0-1.216-.312-1.379-.586H5.077c.181.585.799 1.586 2.923 1.586h1.293L6.05 13.828l.708.707L10 11.293l3.292 3.293.708-.707-3.293-3.293H12c3 0 3-2 3-2zm-2.01-1s1.01 0 1.01 1.01c0 0 0 .99-1.514.99H11s.477-2 1.99-2z"/></g><path class="st3" d="M8 4H5.707l1.621-1.621-.707-.708L5 3.292V1H4v2.292L2.379 1.671l-.708.708L3.292 4H1v1h2.292L1.671 6.621l.708.707L4 5.707V8h1V5.707l1.621 1.621.707-.707L5.707 5H8V4zM5 5H4V4h1v1z" id="color_x5F_action"/></svg>