<svg xmlns="http://www.w3.org/2000/svg" viewBox="0 0 16 16"><style>.icon-canvas-transparent{opacity:0;fill:#f6f6f6}.icon-vs-out{fill:#f6f6f6}.icon-vs-fg{fill:#f0eff1}.icon-vs-bg{fill:#424242}.icon-vs-action-orange{fill:#c27d1a}</style><path class="icon-canvas-transparent" d="M16 0v16H0V0h16z" id="canvas"/><path class="icon-vs-out" d="M15 6v4a3.98 3.98 0 0 1-2.5 3.701V16h-3v-2.299A3.98 3.98 0 0 1 7 10V8.363l-.379.379L6 8.121V9H3v-.879l-.621.621L.257 6.621.878 6H0V3h.878l-.621-.621L2.379.257 3 .878V0h3v.878l.621-.622 2.121 2.122L8.121 3H9v1h5v2h1z" id="outline"/><path class="icon-vs-fg" d="M13 8v2c0 1.102-.898 2-2 2-1.103 0-2-.898-2-2V8h4z" id="iconFg"/><path class="icon-vs-bg" d="M13 7V5h-1v2h-2V5H9v2h-.637L8 7.363V10a2.997 2.997 0 0 0 2.5 2.949V15h1v-2.051A2.997 2.997 0 0 0 14 10V7h-1zm0 3c0 1.102-.898 2-2 2-1.103 0-2-.898-2-2V8h4v2z" id="iconBg"/><g id="colorAction"><path class="icon-vs-action-orange" d="M8 4H5.707l1.621-1.621-.707-.708L5 3.292V1H4v2.292L2.379 1.671l-.708.708L3.292 4H1v1h2.292L1.671 6.621l.708.707L4 5.707V8h1V5.707l1.621 1.621.707-.707L5.707 5H8V4zM5 5H4V4h1v1z"/></g></svg>