<svg xmlns="http://www.w3.org/2000/svg" viewBox="0 0 16 16"><style>.st0{opacity:0}.st0,.st1{fill-rule:evenodd;clip-rule:evenodd;fill:#f6f6f6}.st2{fill:#424242}.st3{fill:#c27d1a}.st4{fill:none}.st5{fill:#f0eff1}</style><g id="outline"><path class="st0" d="M0 0h16v16H0z"/><path class="st1" d="M7.364 1L6.621.257 6 .878V0H3v.878L2.379.257.257 2.379.878 3H0v3h.878l-.621.621L2 8.363V16h14V1z"/></g><g id="icon_x5F_bg"><path class="st2" d="M10 2H8.363l.379.379L8.121 3H14v11H5V9H4v1H3v1h1v1H3v1h1v1H3v1h12V2z"/><path class="st2" d="M10 7h2V5H9v1h-.879l.621.621L8.363 7H9z"/></g><path class="st3" d="M8 4H5.707l1.621-1.621-.707-.708L5 3.292V1H4v2.292L2.379 1.671l-.708.708L3.292 4H1v1h2.292L1.671 6.621l.708.707L4 5.707V8h1V5.707l1.621 1.621.707-.707L5.707 5H8V4zM5 5H4V4h1v1z" id="color_x5F_action"/><g id="icon_x5F_fg"><path class="st4" d="M8 8v-.637L7.363 8zM8.121 6l.621.621L8.363 7H12V5H9v1z"/><path class="st5" d="M9 3v2h3v2H8.363L8 7.363 7.363 8l-.742.742L6 8.121V9H5v5h9V3z"/></g></svg>