<svg xmlns="http://www.w3.org/2000/svg" viewBox="0 0 16 16"><style>.st0{opacity:0}.st0,.st1{fill:#f6f6f6}.st2{fill:#424242}.st3{fill:#f0eff1}.st4{fill:#c27d1a}</style><g id="outline"><path class="st0" d="M0 0h16v16H0z"/><path class="st1" d="M16 13.086L13.914 11h-1.111L15 9.535v-6.07L9.803 0h-.606l-1.7 1.134-.876-.876L6 .879V0H3v.879L2.379.258.257 2.379.878 3H0v3h.878l-.621.621 1.354 1.354L1 8.586V15h9.586l-1 1h4.328L16 13.914v-.828zM4 12V9.535L7.697 12H4z"/><path class="st1" d="M4.516 9.629V2.96L10.367 0 16 2.972v6.613L10.66 13.5 4.516 9.629z"/></g><g id="icon_x5F_bg"><path class="st2" d="M15 13.5L13.5 15H12l1-1H2V9l1-1v5h10l-1-1h1.5l1.5 1.5z"/><path class="st3" d="M14.295 8.734l-3.106 2.237V6.655l3.106-1.893zM9 5.972V6h-.879l.621.621-2.121 2.121-.332-.332v.197l3.959 2.58v.02l.01-.01.012.01v-.02l.031-.022V6.698zM10.301 1.97L8.273 3H9v2.122l1.559.888 3.58-2.149z"/><path class="st2" d="M10.357 1.125l-1.904.964.29.29L8.121 3h.344l1.862-.946 3.681 1.813-3.425 2.056L9 5.021V6h-.312l1.512.844v4.311L6.339 8.639V8.46L6 8.121V9h-.484v.078l5.102 3.213L15 9.078V3.575l-4.643-2.45zm3.812 7.546L11.214 10.8V6.672l2.955-1.802v3.801z"/></g><path class="st4" d="M8 4H5.707l1.621-1.621-.707-.708L5 3.292V1H4v2.292L2.379 1.671l-.708.708L3.292 4H1v1h2.292L1.671 6.621l.708.707L4 5.707V8h1V5.707l1.621 1.621.707-.707L5.707 5H8V4zM5 5H4V4h1v1z" id="color_x5F_action"/></svg>