<svg xmlns="http://www.w3.org/2000/svg" viewBox="0 0 16 16"><style>.st0{opacity:0}.st0,.st1{fill:#f6f6f6}.st2{fill:#424242}.st3{fill:#c27d1a}.st4{fill:#f0eff1}</style><g id="outline"><path class="st0" d="M0 0h16v16H0z"/><path class="st1" d="M16 5H9V3h-.879l.621-.621L6.621.257 6 .878V0H3v.878L2.379.257.257 2.379.878 3H0v3h.878l-.621.621 2.122 2.121L3 8.121V9h1v7h8v-2h4z"/></g><path class="st2" d="M12 10.381V12h3v-1.619l-1.5-2.626-1.5 2.626zM9 6v2h3v.869l1.175-2.055c.133-.233.518-.233.65 0L15 8.869V6H9zm-3.3 5.275l-.7.933V9h6v2.869L9.825 9.813c-.133-.233-.518-.233-.65 0l-1.717 3.005L6.3 11.275a.377.377 0 0 0-.6 0zm2.125 2.411a.375.375 0 0 1-.302.189.394.394 0 0 1-.323-.15l-1.2-1.6-1 1.333V15h6v-1.619l-1.5-2.625-1.675 2.93z" id="icon_x5F_bg"/><path class="st3" d="M8 4H5.707l1.621-1.621-.707-.708L5 3.292V1H4v2.292L2.379 1.671l-.708.708L3.292 4H1v1h2.292L1.671 6.621l.708.707L4 5.707V8h1V5.707l1.621 1.621.707-.707L5.707 5H8V4zM5 5H4V4h1v1z" id="color_x5F_action"/><path class="st4" d="M13.825 6.813L15 8.869v1.512l-1.5-2.626-1.5 2.626V8.869l1.175-2.055c.133-.234.517-.234.65-.001zm-4 3c-.133-.233-.518-.233-.65 0l-1.717 3.005L6.3 11.275a.377.377 0 0 0-.6 0l-.7.933v1.25l1-1.333 1.2 1.6a.39.39 0 0 0 .323.15.378.378 0 0 0 .302-.189l1.675-2.93 1.5 2.625v-1.512L9.825 9.813z" id="icon_x5F_fg"/></svg>