<svg xmlns="http://www.w3.org/2000/svg" viewBox="0 0 16 16"><style>.st0{opacity:0}.st0,.st1{fill:#f6f6f6}.st2{fill:none}.st3{fill:#424242}.st4{fill:#c27d1a}</style><g id="outline"><path class="st0" d="M0 0h16v16H0z"/><path class="st1" d="M9 4V3h-.879l.621-.621L6.621.257 6 .878V0H3v.878L2.379.257.257 2.379.878 3H0v3h.878l-.621.621.743.743V16h15V4z"/></g><g id="icon_x5F_bg"><path class="st2" d="M6 8.121V9H3v5h11V7H8.363L6.621 8.742z"/><path class="st3" d="M9 5v1h-.879l.621.621L8.363 7H14v7H3V8.121l-.621.621L2 8.363V15h13V5z"/><path class="st3" d="M7.363 8l-.742.742L6 8.121V9h1v1H6v1h1v1H5V9H4v4h9V8H7.363zM9 11.998H8v-1h1v1zm0-2H8v-1h1v1zM11 12l-1-3h1l1 3h-1z"/></g><path class="st4" d="M8 4H5.707l1.621-1.621-.707-.708L5 3.292V1H4v2.292L2.379 1.671l-.708.708L3.292 4H1v1h2.292L1.671 6.621l.708.707L4 5.707V8h1V5.707l1.621 1.621.707-.707L5.707 5H8V4zM5 5H4V4h1v1z" id="color_x5F_action"/></svg>