<svg xmlns="http://www.w3.org/2000/svg" viewBox="0 0 16 16"><style>.st0{opacity:0;fill:#424242}.st1{fill:#f6f6f6}.st2{fill:#424242}.st3{fill:#c27d1a}.st4{fill:#f0eff1}</style><g id="outline"><path class="st0" d="M0 0h16v16H0z"/><path class="st1" d="M10.109 2.292L8.648 3h-.527l.621-.621L6.621.257 6 .878V0H3v.878L2.379.257.257 2.379.878 3H0v3h.878l-.621.621 2.122 2.121L3 8.121V9h1v2.922l6.402 3.869L16 11.877V5.264l-5.891-2.972z"/></g><path class="st2" d="M10.229 3.417L9 3.974v.916l1.069-.543L13.75 6.16l-3.425 2.056-2.023-1.154-.715.743L10 9.136v4.311L6 10.93V8.121 9H5v2.37l5.359 3.213L15 11.37V5.867l-4.771-2.45zM14 10.963l-3 2.129V8.964l3-1.802v3.801z" id="icon_x5F_bg"/><path class="st3" d="M8 4H5.707l1.621-1.621-.707-.708L5 3.292V1H4v2.292L2.379 1.671l-.708.708L3.292 4H1v1h2.292L1.671 6.621l.708.707L4 5.707V8h1V5.707l1.621 1.621.707-.707L5.707 5H8V4zM5 5H4V4h1v1z" id="color_x5F_action"/><g id="icon_x5F_fg"><path class="st4" d="M7.587 7.805l-.992.937L6 8.202v2.729l4 2.517V9.136zM10.069 4.346L9 4.889V6h-.879l.621.621-.44.441 2.023 1.153L13.75 6.16zM13.911 10.963l-2.955 2.129V8.964l2.955-1.802z"/></g></svg>