<svg xmlns="http://www.w3.org/2000/svg" viewBox="0 0 16 16"><style>.st0{opacity:0}.st0,.st1{fill:#f6f6f6}.st2{fill:#424242}.st3{fill:#c27d1a}.st4{fill:#f0eff1}</style><g id="outline"><path class="st0" d="M0 0h16v16H0z"/><path class="st1" d="M16 .001H7v.635L6.621.257 6 .878V0H3v.878L2.379.257.257 2.379.878 3H0v3h.878l-.621.621 2.122 2.121L3 8.121V14.414L4.586 16h5.828l1-1H16V.001z"/></g><g id="icon_x5F_bg"><path class="st2" d="M8 11h1v2H8zM6 9h1v1H6zM6 11h1v1H6zM8 9h1v1H8zM8 7.001h1v1H8zM8 1.001v2h6v3h-2v1h2V10h-2v1h2v2h-2v1h3V1.001z"/><path class="st2" d="M10 5.001H9v1h1V14H5V9H4v5l1 1h5l1-1V6.001z"/></g><path class="st3" d="M8 4H5.707l1.621-1.621-.707-.708L5 3.292V1H4v2.292L2.379 1.671l-.708.708L3.292 4H1v1h2.292L1.671 6.621l.708.707L4 5.707V8h1V5.707l1.621 1.621.707-.707L5.707 5H8V4zM5 5H4V4h1v1z" id="color_x5F_action"/><g id="icon_x5F_fg"><path class="st4" d="M9 3.001v1h1.414L12 5.587v.414h2v-3zM12 7.001h2V10h-2zM12 11h2v2h-2zM8.123 6.001l.62.62-.38.38H9v1H8v-.71l-.8.85.018.005-.597.596L6 8.121V9h1v1H6V9H5v5h5V6.001H8.123zM7 12H6v-1h1v1zm2 1H8v-2h1v2zm0-3H8V9h1v1z"/><path class="st4" d="M8.04 7.323l.322-.322H8v.29l.042-.043z"/></g></svg>