<?xml version="1.0" encoding="iso-8859-1"?>
<!-- Generator: Adobe Illustrator 21.0.0, SVG Export Plug-In . SVG Version: 6.00 Build 0)  -->
<svg version="1.1" xmlns="http://www.w3.org/2000/svg" xmlns:xlink="http://www.w3.org/1999/xlink" x="0px" y="0px"
	 viewBox="0 0 16 16" style="enable-background:new 0 0 16 16;" xml:space="preserve">
<style type="text/css">
	.icon_x002D_canvas_x002D_transparent{opacity:0;fill:#F6F6F6;}
	.icon_x002D_vs_x002D_out{fill:#F6F6F6;}
	.icon_x002D_vs_x002D_fg{fill:#F0EFF1;}
	.icon_x002D_vs_x002D_blue{fill:#1BA1E2;}
	.icon_x002D_vs_x002D_action_x002D_blue{fill:#00539C;}
	.icon_x002D_vs_x002D_action_x002D_orange{fill:#C27D1A;}
</style>
<g id="canvas">
	<path class="icon_x002D_canvas_x002D_transparent" d="M16,16H0V0h16V16z"/>
</g>
<g id="outline">
	<path class="icon_x002D_vs_x002D_out" d="M16,3c0-0.851-0.534-1.625-1.504-2.179C13.569,0.292,12.327,0,11,0
		C9.699,0,8.474,0.284,7.549,0.799L7.301,0.937l-0.68-0.68L6,0.878V0H3v0.878L2.379,0.257L0.257,2.379L0.878,3H0v10
		c0,1.71,2.149,3,5,3c2.011,0,3.654-0.649,4.459-1.627L11.086,16h4.328l-1.127-1.127C15.281,14.542,16,13.604,16,12.5V10h-0.286
		C15.888,9.688,16,9.356,16,9V3z M10,11.935c0.048,0.006,0.092,0.009,0.138,0.014L10,12.086V11.935z"/>
</g>
<g id="iconBg">
	<path class="icon_x002D_vs_x002D_blue" d="M8.444,6C8.792,6.294,9,6.633,9,7v3v3c0,1.104-1.791,2-4,2s-4-0.896-4-2v-3V7.364
		l1.379,1.378L3,8.121V9h3V8.247C6.037,8.242,6.073,8.236,6.109,8.23l0.512,0.512l0.988-0.988c0.417-0.226,0.666-0.48,0.7-0.7
		l0.433-0.433L8.121,6H8.444z M14,1.689C13.267,1.271,12.201,1,11,1C9.816,1,8.769,1.264,8.036,1.672l0.497,0.497
		C9.116,1.89,9.965,1.675,11,1.675c1.999,0,3.325,0.798,3.325,1.325S12.999,4.325,11,4.325c-0.785,0-1.462-0.125-2-0.307v1.15
		c0.627,0.5,1,1.127,1,1.831v3.93c0.321,0.041,0.652,0.07,1,0.07c2.209,0,4-0.896,4-2V6V3C15,2.496,14.615,2.041,14,1.689z"/>
</g>
<g id="iconFg">
	<path class="icon_x002D_vs_x002D_fg" d="M6.109,8.23C6.073,8.236,6.037,8.242,6,8.247V8.121L6.109,8.23z M11,1.675
		c-1.035,0-1.884,0.215-2.467,0.495l0.209,0.209L8.121,3H9v1.019c0.538,0.181,1.215,0.307,2,0.307c1.999,0,3.325-0.798,3.325-1.325
		S12.999,1.675,11,1.675z M7.609,7.754c0.417-0.226,0.666-0.48,0.7-0.7L7.609,7.754z"/>
</g>
<g id="colorAction">
	<path class="icon_x002D_vs_x002D_action_x002D_blue" d="M15,11v1.5c0,0.827-0.673,1.5-1.5,1.5H12l1,1h-1.5L10,13.5l1.5-1.5H13l-1,1
		h1.5c0.275,0,0.5-0.225,0.5-0.5V11H15z"/>
</g>
<g id="colorImportance">
	<path class="icon_x002D_vs_x002D_action_x002D_orange" d="M8,4H5.707l1.621-1.621L6.621,1.671L5,3.292V1H4v2.292L2.379,1.671
		L1.671,2.379L3.292,4H1v1h2.292L1.671,6.621l0.708,0.707L4,5.707V8h1V5.707l1.621,1.621l0.707-0.707L5.707,5H8V4z M5,5H4V4h1V5z"/>
</g>
</svg>
