<?xml version="1.0" encoding="iso-8859-1"?>
<!-- Generator: Adobe Illustrator 21.0.0, SVG Export Plug-In . SVG Version: 6.00 Build 0)  -->
<svg version="1.1" xmlns="http://www.w3.org/2000/svg" xmlns:xlink="http://www.w3.org/1999/xlink" x="0px" y="0px"
	 viewBox="0 0 16 16" style="enable-background:new 0 0 16 16;" xml:space="preserve">
<style type="text/css">
	.icon_x002D_canvas_x002D_transparent{opacity:0;fill:#F6F6F6;}
	.icon_x002D_vs_x002D_out{fill:#F6F6F6;}
	.icon_x002D_vs_x002D_bg{fill:#424242;}
	.icon_x002D_vs_x002D_fg{fill:#F0EFF1;}
	.icon_x002D_vs_x002D_action_x002D_orange{fill:#C27D1A;}
	.icon_x002D_vs_x002D_blue_x0020_2{fill:#1BA1E2;}
</style>
<g id="canvas">
	<path class="icon_x002D_canvas_x002D_transparent" d="M16,16H0V0h16V16z"/>
</g>
<g id="outline">
	<path class="icon_x002D_vs_x002D_out" d="M15.692,8.427V2.835L15.266,2.61V2.513l-0.085,0.052l-4.13-2.178L8.194,1.831L6.621,0.257
		L6,0.878V0H3v0.878L2.379,0.257L0.257,2.379L0.878,3H0v3h0.878L0.257,6.621l1.648,1.647C0.76,8.67,0,9.493,0,10.5v3
		C0,14.925,1.505,16,3.5,16S7,14.925,7,13.5v-3c0-0.712-0.375-1.336-1-1.783V8.321l0.54,0.34l0.082,0.082L6.64,8.724l3.294,2.074
		l0.025,0.553l0.002,0.633l0.026-0.026l0.004,0.083l0.548-0.542v0.049L8.586,13.5l2.5,2.5h4.328l-1.127-1.127
		C15.281,14.542,16,13.604,16,12.5V9h-1.09L15.692,8.427z M13,11h-0.817L13,10.4V11z"/>
</g>
<g id="iconBg">
	<path class="icon_x002D_vs_x002D_bg" d="M15,10v2.5c0,0.827-0.672,1.5-1.5,1.5H12l1,1h-1.5L10,13.5l1.5-1.5H13l-1,1h1.5
		c0.275,0,0.5-0.225,0.5-0.5V10H15z M14.755,3.471v4.403l-3.507,2.57L7.365,7.999L7.78,7.583l0.054-0.054l0.054-0.054L10.92,9.45
		V6.014L9,4.942V4.856V4.77V4.25V4.165V4.078l2.2,1.255l2.709-1.626l-2.913-1.435L9,3.285V3.201V3.117V3H8.121l0.023-0.023
		l2.897-1.465L14.755,3.471z M14.115,4.559L11.69,6.034v3.274l2.426-1.749V4.559z"/>
</g>
<g id="iconFg">
	<path class="icon_x002D_vs_x002D_fg" d="M5.425,10.5c0,0.428-0.841,0.925-1.925,0.925S1.575,10.928,1.575,10.5
		S2.416,9.575,3.5,9.575S5.425,10.072,5.425,10.5z M14.115,4.559L11.69,6.034v3.274l2.426-1.749V4.559z M11.2,5.333L9,4.078V3.285
		l1.996-1.013l2.913,1.435L11.2,5.333z M10.92,9.45L7.889,7.475l0.854-0.854L8.121,6H9V4.942l1.92,1.072V9.45z"/>
</g>
<g id="colorAction">
	<path class="icon_x002D_vs_x002D_action_x002D_orange" d="M8,4H5.707l1.621-1.621L6.621,1.671L5,3.292V1H4v2.292L2.379,1.671
		L1.671,2.379L3.292,4H1v1h2.292L1.671,6.621l0.708,0.707L4,5.707V8h1V5.707l1.621,1.621l0.707-0.707L5.707,5H8V4z M5,5H4V4h1V5z"/>
</g>
<g id="colorImportance">
	<path class="icon_x002D_vs_x002D_blue_x0020_2" d="M3.5,9C2.119,9,1,9.672,1,10.5v3C1,14.328,2.119,15,3.5,15S6,14.328,6,13.5v-3
		C6,9.672,4.881,9,3.5,9z M3.5,11.425c-1.084,0-1.925-0.497-1.925-0.925S2.416,9.575,3.5,9.575s1.925,0.497,1.925,0.925
		S4.584,11.425,3.5,11.425z"/>
</g>
</svg>
