<svg xmlns="http://www.w3.org/2000/svg" viewBox="0 0 16 16"><style>.st0{opacity:0}.st0,.st1{fill:#f6f6f6}.st2{fill:#424242}.st3{fill:#c27d1a}.st4{fill:#f0eff1}</style><g id="outline"><path class="st0" d="M0 0h16v16H0z"/><path class="st0" d="M0 0h16v16H0z"/><path class="st1" d="M16 13.086L13.914 11h-2.939a5.46 5.46 0 0 0-.676-3.179L12 6.121v1.293l3-3V1h-3.414L9 3.586V3h-.879l.621-.621L6.621.257 6 .878V0H3v.878L2.379.257.257 2.379.878 3H0v3h.878l-.621.621.736.736A5.464 5.464 0 0 0 0 10.5C0 13.533 2.467 16 5.5 16a5.466 5.466 0 0 0 3.152-1h1.934l-1 1h4.328L16 13.914v-.828zM9 4.878V4h.878L9 4.878z"/></g><g id="icon_x5F_bg"><path class="st2" d="M9.018 6.274L12.293 3H11l1-1h2v2l-1 1V3.707L9.725 6.981a5.491 5.491 0 0 0-.707-.707zM13.5 12H12l1 1h-2.606a5.69 5.69 0 0 1-.652 1H13l-1 1h1.5l1.5-1.5-1.5-1.5zM10.019 10.391c-.045-1.361-.706-2.553-1.698-3.349l-.56.56c.317.24.594.528.819.857a7.14 7.14 0 0 1-1.255.319c-.043-.206-.105-.389-.161-.578l-.543.542-.047-.047c.014.058.038.104.051.164-.209.015-.417.012-.625.015V9H3v-.451c-.114-.027-.239-.051-.348-.08l-.273.273-.63-.63a4.465 4.465 0 0 0-.722 2.431 4.74 4.74 0 0 0 .067.743 4.49 4.49 0 0 0 3.696 3.691l.013.002a4.283 4.283 0 0 0 1.163.043 4.503 4.503 0 0 0 4.061-4.478c0-.054-.008-.103-.008-.153zm-5.705-.904c.387.044.79.056 1.209.056h.259c.314 0 .632.012.956-.012.025.219.044.451.046.683.004.372-.044.778-.135 1.208-.376.025-.744.037-1.118.035-.41-.006-.825-.035-1.204-.079a7.787 7.787 0 0 1-.056-1.153c.001-.247.019-.507.043-.738zm-2.483 1.056c0-.525.112-1.025.31-1.481.44.131.932.254 1.478.346a8.74 8.74 0 0 0-.05.811c-.004.342.021.694.063 1.051a12.757 12.757 0 0 1-1.788-.467 3.187 3.187 0 0 1-.013-.26zm.151 1.044c.513.157 1.101.31 1.765.415.132.673.349 1.359.631 2.053a3.706 3.706 0 0 1-2.396-2.468zm3.607 2.648c-.021.001-.041.004-.063.004-.109 0-.217-.008-.324-.018a11.03 11.03 0 0 1-.725-2.124 11.327 11.327 0 0 0 1.304.061c.224 0 .45-.006.678-.018a13.556 13.556 0 0 1-.87 2.095zm.828-.108c.35-.737.62-1.424.795-2.054a8.165 8.165 0 0 0 1.856-.472 3.7 3.7 0 0 1-2.651 2.526zm2.794-3.344a7.525 7.525 0 0 1-1.831.555c.07-.393.108-.768.104-1.119a7.64 7.64 0 0 0-.049-.743 8.07 8.07 0 0 0 1.489-.388c.191.445.298.938.298 1.455.001.08-.007.16-.011.24z"/></g><path class="st3" d="M8 4H5.707l1.621-1.621-.707-.708L5 3.292V1H4v2.292L2.379 1.671l-.708.708L3.292 4H1v1h2.292L1.671 6.621l.708.707L4 5.707V8h1V5.707l1.621 1.621.707-.707L5.707 5H8V4zM5 5H4V4h1v1z" id="color_x5F_action"/><g id="icon_x5F_fg"><path class="st4" d="M7.427 9.484a8.366 8.366 0 0 0 1.5-.384c.19.442.266.93.266 1.443 0 .08-.008.159-.012.238a7.545 7.545 0 0 1-1.817.551c.07-.391.107-.762.104-1.111a7.599 7.599 0 0 0-.041-.737zM5.527 14.209c-.108 0-.215-.006-.321-.016a11.36 11.36 0 0 1-.719-2.15c.333.033.684.098 1.04.1.086.002.699.012.925 0-.194.633-.483 1.309-.862 2.063-.022 0-.042.003-.063.003zM5.531 11.449c-.406-.005-.796-.063-1.172-.106a7.042 7.042 0 0 1-.072-1.1 8.62 8.62 0 0 1 .04-.751c.384.043.784.051 1.2.051.086 0-.085 0 0 0 .312 0 .879.023 1.2 0 .025.217-.002.442 0 .672.004.368-.011.773-.101 1.198a14.32 14.32 0 0 1-1.095.036zM1.861 10.543c0-.522.111-1.05.308-1.5.437.129.917.283 1.458.375a7.29 7.29 0 0 0-.042.725c-.004.34 0 .768.042 1.121a12.232 12.232 0 0 1-1.752-.463c-.007-.086-.014-.171-.014-.258zM2.011 11.643a12.93 12.93 0 0 0 1.75.4c.131.667.346 1.295.626 1.982-1.141-.373-2.034-1.225-2.376-2.382zM6.41 14.098c.348-.731.615-1.43.789-2.055.569-.072 1.176-.15 1.84-.4-.37 1.234-1.372 2.143-2.629 2.455zM7.769 7.594l-.6.6c.054.18.114.35.155.549a7.095 7.095 0 0 0 1.255-.3 3.63 3.63 0 0 0-.81-.849z"/></g></svg>