<svg xmlns="http://www.w3.org/2000/svg" viewBox="0 0 16 16"><style>.st0{opacity:0}.st0,.st1{fill:#f6f6f6}.st2{fill:#424242}.st3{fill:#c27d1a}.st4{fill:#f0eff1}</style><g id="outline"><path class="st0" d="M0 0h16v16H0z"/><path class="st1" d="M8.121 3l.621-.621L6.621.257 6 .878V0H3v.878L2.379.257.257 2.379.878 3H0v3h.878l-.621.621L.636 7H0v5.5c0 1.528.986 3.03 2.372 3.5H16V3H8.121z"/></g><g id="icon_x5F_bg"><path class="st2" d="M8 12h3v3H8zM8 8h3v3H8zM14 14h-2v1h3v-3h-1zM12 8h3v3h-3zM3.507 13.993L3.501 14h-.006A1.5 1.5 0 0 1 2 12.5c0-.072.012-.141.021-.211C2.124 11.561 2.744 11 3.5 11s1.376.561 1.479 1.289L5 13h1V9H3V8H1v4.5a2.494 2.494 0 0 0 2.372 2.487V15H7v-1H3.507v-.007zM9 4v1h5v2h1V4z"/></g><path class="st3" d="M8 4H5.707l1.621-1.621-.707-.708L5 3.292V1H4v2.292L2.379 1.671l-.708.708L3.292 4H1v1h2.292L1.671 6.621l.708.707L4 5.707V8h1V5.707l1.621 1.621.707-.707L5.707 5H8V4zM5 5H4V4h1v1z" id="color_x5F_action"/><g id="icon_x5F_fg"><path class="st4" d="M6.621 8.742L6 8.121V13H5l-.021-.711C4.876 11.561 4.256 11 3.5 11s-1.376.561-1.479 1.289c-.009.07-.021.139-.021.211A1.5 1.5 0 0 0 3.495 14h.006l.006-.007V14H7V8.363l-.379.379zM12 12h2v2h-2zM9 5v1h-.879l.621.621-.34.379H14V5z"/></g></svg>