<svg xmlns="http://www.w3.org/2000/svg" viewBox="0 0 16 16"><style>.st0{opacity:0}.st0,.st1{fill:#f6f6f6}.st2{fill:#424242}.st3{fill:#c27d1a}.st4{fill:#f0eff1}</style><g id="outline"><path class="st0" d="M0 0h16v16H0z"/><path class="st1" d="M15 9V5.781L12 3H8.121l.621-.621L6.621.257 6 .878V0H3v.878L2.379.257.257 2.379.878 3H0v3h.878l-.621.621 2.122 2.121L3 8.121V9h2v4c0 1.299 1.031 2 2 2h2v1h4v-1c1.299 0 2-1.03 2-2h1V9h-1z"/></g><g id="icon_x5F_bg"><path class="st2" d="M13 13v.995c.963-.025 1.023-.995 1.023-.995H13zM6.023 8.145V13c0 1 .941 1 .941 1H9v-1H7.023V8.34l-.402.402-.598-.597zM11.625 4H9v1h2.023v2h2v2h1V6.136zM13 10h2v2h-2zM10 13h2v2h-2zM10 10h2v2h-2z"/><path class="st2" d="M8 10h1v1H8zM8 8h1v1H8zM10 8h1v1h-1z"/></g><path class="st3" d="M8 4H5.707l1.621-1.621-.707-.708L5 3.292V1H4v2.292L2.379 1.671l-.708.708L3.292 4H1v1h2.292L1.671 6.621l.708.707L4 5.707V8h1V5.707l1.621 1.621.707-.707L5.707 5H8V4zM5 5H4V4h1v1z" id="color_x5F_action"/><path class="st4" d="M10.936 6.96V5H9v1h-.879l.621.621L7 8.363V13h2v-2H8v-1h1V9H8V8h1v1h1V8h1v1h2V6.996z" id="icon_x5F_fg"/></svg>