<svg xmlns="http://www.w3.org/2000/svg" viewBox="0 0 16 16"><style>.st0{opacity:0}.st0,.st1{fill:#f6f6f6}.st2{fill:#424242}.st3{fill:none}.st4{fill:#f0eff1}.st5{fill:#c27d1a}</style><g id="outline"><path class="st0" d="M0 0h16v16H0z"/><path class="st1" d="M8 0H7v.636L6.621.257 6 .878V0H3v.878L2.379.257.257 2.379.878 3H0v3h.878l-.621.621L.636 7H0v1c0 4.411 3.589 8 8 8s8-3.589 8-8-3.589-8-8-8z"/></g><g id="icon_x5F_bg"><path class="st2" d="M6 8.121V8.5c0-.114.03-.219.054-.325L6 8.121z"/><path class="st2" d="M9 5.869L8.789 6l-.412.256.365.365-2.121 2.121-.567-.567C6.03 8.281 6 8.386 6 8.5a1.496 1.496 0 1 0 2.93.43L12 4 9 5.869zM2.621 8.5H3v-.379z"/><path class="st2" d="M8 1v.636l.5.5v-.111a5.941 5.941 0 0 1 3.357 1.411l-1.211 1.211.707.707 1.214-1.214a5.978 5.978 0 0 1 1.387 3.36h-2.005c.022.166.051.329.051.5 0 .171-.029.334-.051.5h2.025A5.997 5.997 0 0 1 8 14a5.998 5.998 0 0 1-5.975-5.5h.111l-.5-.5H1a7 7 0 1 0 7-7z"/><path class="st2" d="M8.5 3v-.379L8.121 3zM6 11h4v1H6z"/></g><g id="icon_x5F_fg"><path class="st3" d="M6 11h4v1H6z"/><path class="st4" d="M10.441 4.853l1.416-1.417A5.955 5.955 0 0 0 8.5 2.025V3H9v2.869l1.515-.943c-.025-.026-.046-.052-.074-.073zM6 8.5c0-.176.033-.344.089-.5H6v.5z"/><path class="st4" d="M11.949 8.5c.022-.166.051-.329.051-.5 0-.171-.029-.334-.051-.5h2.005a5.964 5.964 0 0 0-1.387-3.36l-1.419 1.42c-.021-.028-.048-.05-.074-.074L8.93 8.93A1.496 1.496 0 0 1 6 8.5V9H3v-.5h-.975A5.998 5.998 0 0 0 8 14a5.999 5.999 0 0 0 5.975-5.5h-2.026zM10 12H6v-1h4v1z"/></g><path class="st5" d="M8 4H5.707l1.621-1.621-.707-.708L5 3.292V1H4v2.292L2.379 1.671l-.708.708L3.292 4H1v1h2.292L1.671 6.621l.708.707L4 5.707V8h1V5.707l1.621 1.621.707-.707L5.707 5H8V4zM5 5H4V4h1v1z" id="color_x5F_action"/></svg>