<svg xmlns="http://www.w3.org/2000/svg" viewBox="0 0 16 16"><style>.st0{opacity:0}.st0,.st1{fill:#f6f6f6}.st2{fill:#424242}.st3{fill:#c27d1a}</style><g id="outline"><path class="st0" d="M0 0h16v16H0z"/><path class="st1" d="M16 13.086L13.914 11h-.926c-.013-1.231-.259-2.613-.773-3.801L15 4.414V1h-3.414L9 3.586V3h-.879l.621-.621L6.621.257 6 .878V0H3v.878L2.379.257.257 2.379.878 3H0v3h.878l-.621.621 1.354 1.354L1 8.586v4.828L2.586 15h8l-1 1h4.328L16 13.914v-.828zm-12-3.5V9h.586L4 9.586zM6.414 12l2-2h1.063c.462.699.789 1.352 1.006 2H6.414z"/></g><g id="icon_x5F_bg"><path class="st2" d="M10.802 6.666l.481-.912-1.037-1.037-.912.481c-.104-.071-.223-.129-.334-.193V6h-.879l.621.621-2.121 2.121-.182-.181L2 13l1 1 5-5h2.001c.856 1.194 1.406 2.317 1.655 3.5h.201c.36-1.572.05-4.214-1.055-5.834zM11.12 4.173l.707.707L13 3.707V5l1-1V2h-2l-1 1h1.293z"/><path class="st2" d="M13.5 12h-.549c-.027.255-.064.5-.115.723l-.021.092L13 13H5.418l-1 1H13l-1 1h1.5l1.5-1.5-1.5-1.5zM2 11.59l1-1V8L2 9z"/></g><path class="st3" d="M8 4H5.707l1.621-1.621-.707-.708L5 3.292V1H4v2.292L2.379 1.671l-.708.708L3.292 4H1v1h2.292L1.671 6.621l.708.707L4 5.707V8h1V5.707l1.621 1.621.707-.707L5.707 5H8V4zM5 5H4V4h1v1z" id="color_x5F_action"/></svg>