<svg xmlns="http://www.w3.org/2000/svg" viewBox="0 0 16 16"><style>.icon-canvas-transparent{opacity:0;fill:#f6f6f6}.icon-vs-out{fill:#f6f6f6}.icon-vs-fg{fill:#f0eff1}.icon-vs-action-blue{fill:#00539c}.icon-vs-action-orange{fill:#c27d1a}</style><path class="icon-canvas-transparent" d="M16 16H0V0h16v16z" id="canvas"/><path class="icon-vs-out" d="M16 6.382v5.236l-7 3.5-5-2.5V9H3v-.879l-.621.621L.257 6.621.878 6H0V3h.878l-.621-.621L2.379.257 3 .878V0h3v.878l.621-.622 2.121 2.122L8.121 3H9v1.882l2-1 5 2.5z" id="outline"/><path class="icon-vs-fg" d="M13 7L9 9l-1.758-.879.874-.489L11 6l2 1z" id="iconFg"/><path class="icon-vs-action-orange" d="M8 4H5.707l1.621-1.621-.707-.708L5 3.292V1H4v2.292L2.379 1.671l-.708.708L3.292 4H1v1h2.292L1.671 6.621l.708.707L4 5.707V8h1V5.707l1.621 1.621.707-.707L5.707 5H8V4zM5 5H4V4h1v1z" id="colorAction"/><path class="icon-vs-action-blue" d="M15 7v4l-6 3-4-2V9h1v-.879l.621.621.621-.621L9 9l4-2-2-1-3.709 2.104L8 7.363l.742-.742-.328-.328L11 5l4 2z" id="colorImportance"/></svg>