<svg xmlns="http://www.w3.org/2000/svg" viewBox="0 0 16 16"><style>.st0{opacity:0}.st0,.st1{fill:#f6f6f6}.st2{fill:#424242}.st3{fill:#c27d1a}.st4{fill:#f0eff1}</style><g id="outline"><path class="st0" d="M0 0h16v16H0z"/><path class="st1" d="M16 0H7v.635L6.621.257 6 .878V0H3v.878L2.379.257.257 2.379.878 3H0v3h.878l-.621.621L.636 7H0l.004 6.909c-.013.144-.051.889.489 1.48.254.279.722.611 1.507.611h6.016c.706 0 1.152-.301 1.402-.554.562-.568.584-1.326.582-1.462V10h6V0z"/></g><g id="icon_x5F_bg"><path class="st2" d="M11 5h1v1h-1zM9 5h1v1H9zM6 8v1h2v5H2V8H1v6s-.091 1 1 1h6.016C9.011 15 9 13.984 9 13.984V9L8 8H6z"/><path class="st2" d="M8 1v2h1v1h1V3h4v2h-1v1h1v2h-4V7H9v.586l1 1V9h5V1z"/></g><path class="st3" d="M8 4H5.707l1.621-1.621-.707-.708L5 3.292V1H4v2.292L2.379 1.671l-.708.708L3.292 4H1v1h2.292L1.671 6.621l.708.707L4 5.707V8h1V5.707l1.621 1.621.707-.707L5.707 5H8V4zM5 5H4V4h1v1z" id="color_x5F_action"/><g id="icon_x5F_fg"><path class="st4" d="M14 5V3h-4v1H9v1h1v1H8v.586l1 1V7h1v1h4V6h-1V5h1zm-2 1h-1V5h1v1zM3 9V8H2v6h6V9H6z"/></g></svg>