<svg xmlns="http://www.w3.org/2000/svg" viewBox="0 0 16 16" enable-background="new 0 0 16 16"><style type="text/css">.icon-canvas-transparent{opacity:0;fill:#F6F6F6;} .icon-vs-out{fill:#F6F6F6;} .icon-vs-bg{fill:#424242;} .icon-vs-action-orange{fill:#C27D1A;} .icon-vs-fg{fill:#F0EFF1;}</style><rect class="icon-canvas-transparent" width="16" height="16" id="canvas"/><path class="icon-vs-out" d="M15 3.586l-2.586-2.586h-5.05l-.743-.743-.621.621v-.878h-3v.878l-.621-.621-2.122 2.122.621.621h-.878v3h.878l-.621.621.743.743v4.636c0 .97.701 2 2 2h1.006c0 1.299 1.03 2 2 2h6c1.299 0 2-1.03 2-2v-3l.994-.901v-6.513zm-11 7.414v-2h.006v2h-.006z" id="outline"/><path class="icon-vs-bg" d="M3 12h1v1h-1l-1-1v-3.637l.379.379.621-.621v3.879zm7.602-6h-2.481l.621.621-.379.379h1.637v2h2v5h-6v-5h-1v5c0 1 .941 1 .941 1h6l1.059-1v-5.863l-2.398-2.137zm1.398-4h-3.637l.379.379-.621.621h2.879v2l1.973-.012v1.602l1.027 1.053v-3.643l-2-2z" id="iconBg"/><path class="icon-vs-fg" d="M12.006 8.996v5.004h-6v-5.873l.615.615 1.742-1.742h1.637v1.96l2.006.036zm-8.006.004h-1v3h1v-3zm7-4l2 2v-2h-2zm0 0v-2h-3l3 2z" id="iconFg"/><path class="icon-vs-action-orange" d="M8 4h-2.293l1.621-1.621-.707-.708-1.621 1.621v-2.292h-1v2.292l-1.621-1.621-.708.708 1.621 1.621h-2.292v1h2.292l-1.621 1.621.708.707 1.621-1.621v2.293h1v-2.293l1.621 1.621.707-.707-1.621-1.621h2.293v-1zm-3 1h-1v-1h1v1z" id="colorAction"/></svg>