<svg xmlns="http://www.w3.org/2000/svg" viewBox="0 0 16 16"><style>.st0{opacity:0}.st0,.st1{fill:#f6f6f6}.st2{fill:#424242}.st3{fill:#c27d1a}.st4{fill:#f0eff1}</style><g id="outline"><path class="st0" d="M0 0h16v16H0z"/><path class="st1" d="M13 4H9V3h-.879l.621-.621L6.621.257 6 .878V0H3v.878L2.379.257.257 2.379.878 3H0v3h.878l-.621.621 2.122 2.121L3 8.121V9h3v5c0 1.299 1.031 2 2 2h6c1.299 0 2-1.03 2-2V6.616L13 4z"/></g><g id="icon_x5F_bg"><path class="st2" d="M9 8v5h1v-2h2v2h1v-3h-3V8z"/><path class="st2" d="M12.625 5H9v1h3v2h2v6H8V7.363L7 8.34V14c0 1 .965 1 .965 1h6c1 0 1.035-1 1.035-1V7.136L12.625 5z"/></g><path class="st3" d="M8 4H5.707l1.621-1.621-.707-.708L5 3.292V1H4v2.292L2.379 1.671l-.708.708L3.292 4H1v1h2.292L1.671 6.621l.708.707L4 5.707V8h1V5.707l1.621 1.621.707-.707L5.707 5H8V4zM5 5H4V4h1v1z" id="color_x5F_action"/><path class="st4" d="M12 8V6H8.121l.621.621L8 7.363V14h6V8h-2zm1 5h-1v-2h-2v2H9V8h1v2h3v3z" id="icon_x5F_fg"/></svg>