<svg xmlns="http://www.w3.org/2000/svg" viewBox="0 0 16 16"><style>.st0{opacity:0}.st0,.st1{fill:#f6f6f6}.st2{fill:#424242}.st3{fill:#c27d1a}.st4{fill:#f0eff1}</style><g id="outline"><path class="st0" d="M0 0h16v16H0z"/><path class="st1" d="M9 4V3h-.879l.621-.621L6.621.257 6 .878V0H3v.878L2.379.257.257 2.379.878 3H0v3h.878l-.621.621 2.122 2.121L3 8.121V9h1v7h12V4z"/></g><g id="icon_x5F_bg"><path class="st2" d="M9 4.999V6h5v5l-1.5-1-1.766 1.156L8 7.874l-2 2.21V9h-.999v6H15V4.999H9zM14 14H6v-2.142l2-1.984L10.5 13l2-1.549 1.5 1.157V14z"/><circle class="st2" cx="11.999" cy="7.994" r="1.209"/></g><path class="st3" d="M8 4H5.707l1.621-1.621-.707-.708L5 3.292V1H4v2.292L2.379 1.671l-.708.708L3.292 4H1v1h2.292L1.671 6.621l.708.707L4 5.707V8h1V5.707l1.621 1.621.707-.707L5.707 5H8V4zM5 5H4V4h1v1z" id="color_x5F_action"/><g id="icon_x5F_fg"><path class="st4" d="M9 6h-.879l.621.621-2.121 2.121L6 8.121v1.775l2-2.21 2.734 3.366L12.5 9.896l1.49.917V6H9zm2.999 3.313c-.667 0-1.311-.651-1.311-1.318s.521-1.348 1.311-1.348c.667 0 1.314.583 1.314 1.348 0 .666-.647 1.318-1.314 1.318z"/><path class="st4" d="M6 14v-2.031l2-1.875 2.5 3.047 2-1.594 1.484 1.094V14z"/></g></svg>