<svg xmlns="http://www.w3.org/2000/svg" viewBox="0 0 16 16"><style>.st0{opacity:0}.st0,.st1{fill:#f6f6f6}.st2{fill:#424242}.st3{fill:#434343}.st4{fill:#c27d1a}.st5{fill:#f0eff1}.st6{fill:#efeef0}</style><g id="outline"><path class="st0" d="M0 0h16v16H0z"/><path class="st1" d="M16 0H7v.636L6.621.257 6 .878V0H3v.878L2.379.257.257 2.379.878 3H0v13h12v-3h4z"/></g><g id="icon_x5F_bg"><path class="st2" d="M12 5h1v1h-1zM9 3h4v1H9z"/><path class="st2" d="M7.364 1l.999 1H14v9h-2v1h3V1z"/><path class="st2" d="M9 5.002V6h1v5l-1.507-1-1.769 1.156L4.924 9H3v-.036l-1 1.12V8.35l-1-.999V15h10V4.999l-2 .003zM10 14H2v-2.142l1.993-1.984L6.49 13l2.005-1.549L10 12.608V14z"/><path class="st3" d="M8.472 6.892l-1.59 1.589a1.208 1.208 0 0 0 2.312-.487c0-.493-.298-.915-.722-1.102z"/></g><path class="st4" d="M8 4H5.707l1.621-1.621-.707-.708L5 3.292V1H4v2.292L2.379 1.671l-.708.708L3.292 4H1v1h2.292L1.671 6.621l.708.707L4 5.707V8h1V5.707l1.621 1.621.707-.707L5.707 5H8V4zM5 5H4V4h1v1z" id="color_x5F_action"/><g id="icon_x5F_fg"><path class="st5" d="M8.363 2l.379.379L8.121 3H13v1h-1v1h1v1h-1v5h2V2z"/><path class="st6" d="M1.986 14v-2.031l2-1.875 2.5 3.047 2-1.594 1.485 1.094V14z"/><path class="st1" d="M3 8.121l-.621.621-.367-.367v1.571L3 8.815zM9 6h-.879l.621.621-.178.178c.417.221.735.661.735 1.195 0 .667-.646 1.318-1.313 1.318-.477 0-.938-.335-1.165-.77l-.2.2L6 8.121V9h-.946l1.666 2.052 1.777-1.156 1.503.917V6H9z"/></g></svg>