<svg xmlns="http://www.w3.org/2000/svg" viewBox="0 0 16 16"><style>.st0{opacity:0}.st0,.st1{fill:#f6f6f6}.st2{fill:#424242}.st3{fill:#c27d1a}.st4{fill:#f0eff1}</style><path class="st0" d="M0 0h16v16H0z" id="outline"/><g id="icon_x5F_bg"><path class="st1" d="M14 7c0-2.206-1.794-4-4-4-.331 0-.663.061-1 .151V3h-.879l.621-.621L6.621.257 6 .878V0H3v.878L2.379.257.257 2.379.878 3H0v3h.878l-.621.621 2.122 2.121L3 8.121V9h3v-.879l.266.266.049.119A4.035 4.035 0 0 0 8 10.447V16h4v-1h2v-5h-1.371A3.99 3.99 0 0 0 14 7z"/><path class="st2" d="M11 9.815A2.996 2.996 0 0 0 13 7c0-1.654-1.346-3-3-3-.353 0-.686.072-1 .185V6h-.879l.621.621-1.503 1.503A3.01 3.01 0 0 0 9 9.815V15h2v-1h2v-1h-2v-1h2v-1h-2V9.815zM10 8a1 1 0 1 1 0-2 1 1 0 0 1 0 2z"/></g><path class="st3" d="M8 4H5.707l1.621-1.621-.707-.708L5 3.292V1H4v2.292L2.379 1.671l-.708.708L3.292 4H1v1h2.292L1.671 6.621l.708.707L4 5.707V8h1V5.707l1.621 1.621.707-.707L5.707 5H8V4zM5 5H4V4h1v1z" id="color_x5F_action"/><path class="st4" d="M10 6a1 1 0 1 1 0 2 1 1 0 0 1 0-2" id="icon_x5F_fg"/></svg>