<svg xmlns="http://www.w3.org/2000/svg" viewBox="0 0 16 16"><style>.icon-canvas-transparent{opacity:0;fill:#f6f6f6}.icon-vs-out{fill:#f6f6f6}.icon-vs-bg{fill:#424242}.icon-vs-fg{fill:#f0eff1}.icon-vs-action-orange{fill:#c27d1a}</style><path class="icon-canvas-transparent" d="M16 16H0V0h16v16z" id="canvas"/><path class="icon-vs-out" d="M16 1.586v7.828L14.414 11H11v3.414L9.414 16H1.585L0 14.414V7.586l.611-.611-.353-.354L.879 6H0V2h.637l.639-.639A2.51 2.51 0 0 1 2.36.277l.02-.02.008.008C2.578.169 2.785.1 3 .056V0h3v.586L6.586 0h7.829L16 1.586z" id="outline"/><path class="icon-vs-fg" d="M12 5h-1V4h1v1zM7.363 8H9v6H2V8.363l.379.379L3 8.121V11h2V9h1v-.879l.621.621L7.363 8zM8 10H6v3h2v-3zm1-4h.415l.585.585V4H9v2zm-.637-4l.379.379L8.121 3H13v5h-2v1h3V2H8.363zM11 7h1V6h-1v1z" id="iconFg"/><path class="icon-vs-bg" d="M8 13H6v-3h2v3zm.363-6l-1 1H9v6H2V8.363l-.682-.681L1 8v6l1 1h7l1-1V8L9 7h-.637zM5 9H3v2h2V9zm9-8H7.364l.735.735.264.265H14v7h-3v1h3l1-1V2l-1-1zm-4 5.585V4H9V3h4v5h-2v-.414l-1-1.001zM11 5h1V4h-1v1zm0 2h1V6h-1v1z" id="iconBg"/><g id="colorAction"><path class="icon-vs-action-orange" d="M8 4H5.707l1.621-1.621-.707-.708L5 3.293V1H4v2.293L2.379 1.671l-.707.708L3.293 4H1v1h2.293L1.672 6.621l.707.707L4 5.707V8h1V5.707l1.621 1.621.707-.707L5.707 5H8V4zM5 5H4V4h1v1z"/></g></svg>