<svg xmlns="http://www.w3.org/2000/svg" viewBox="0 0 16 16"><style>.icon-canvas-transparent{opacity:0;fill:#f6f6f6}.icon-vs-out{fill:#f6f6f6}.icon-vs-fg{fill:#f0eff1}.icon-vs-bg{fill:#424242}.icon-vs-action-orange{fill:#c27d1a}</style><path class="icon-canvas-transparent" d="M16 16H0V0h16v16z" id="canvas"/><path class="icon-vs-out" d="M15 4.379V16H2v-2.132l-.463-.261A2.998 2.998 0 0 1 0 11c0-1.254.781-2.314 1.876-2.761L.257 6.621.878 6H0V3h.878l-.621-.621L2 .636V0h8.621L15 4.379z" id="outline"/><path class="icon-vs-fg" d="M8.121 3l.621-.621L8.363 2H9v1h-.879zM10 2.207V5h2.793L10 2.207zM9 6h-.879l.621.621-1.406 1.406a3.005 3.005 0 0 1 2.508 2.015l.621.35A3.006 3.006 0 0 1 12 13c0 .352-.072.686-.184 1H13V6H9z" id="iconFg"/><path class="icon-vs-bg" d="M2 11a.99.99 0 0 0 .302.712 2.96 2.96 0 0 0-.275 1.024A1.991 1.991 0 0 1 1 11c0-1.103.897-2 2-2h4c1.102 0 2 .897 2 2s-.898 2-2 2H6l1-1a1.001 1.001 0 0 0 0-2H3c-.551 0-1 .449-1 1zm7.973.264a2.965 2.965 0 0 1-.275 1.024A.99.99 0 0 1 10 13a1 1 0 0 1-1 1H5a1.001 1.001 0 0 1 0-2l1-1H5c-1.103 0-2 .897-2 2 0 1.102.897 2 2 2h4c1.102 0 2-.898 2-2 0-.748-.417-1.393-1.027-1.736zM14 4.793V15h-2.78c.26-.289.463-.626.596-1H13V6H9V2h-.637l-1-1h2.843L14 4.793zM12.793 5L10 2.207V5h2.793z" id="iconBg"/><g id="colorAction"><path class="icon-vs-action-orange" d="M8 4H5.707l1.621-1.621-.707-.708L5 3.292V1H4v2.292L2.379 1.671l-.708.708L3.292 4H1v1h2.292L1.671 6.621l.708.707L4 5.707V8h1V5.707l1.621 1.621.707-.707L5.707 5H8V4zM5 5H4V4h1v1z"/></g></svg>