<svg xmlns="http://www.w3.org/2000/svg" viewBox="0 0 16 16"><style>.icon-canvas-transparent{opacity:0;fill:#f6f6f6}.icon-vs-out{fill:#f6f6f6}.icon-vs-bg{fill:#424242}.icon-vs-fg{fill:#f0eff1}.icon-vs-action-orange{fill:#c27d1a}</style><path class="icon-canvas-transparent" d="M16 16H0V0h16v16z" id="canvas"/><path class="icon-vs-out" d="M15.424 11.959A2 2 0 0 1 13.668 13H7.414l-3 3h-.828L0 12.414V9h1.414L2 9.586V8.363L.257 6.621.878 6H0V3h.878l-.621-.621L2.379.257 3 .878V0h3v.878l.621-.622.743.744H13v3h-1v.706l3.351 5.212c.396.617.423 1.398.073 2.041z" id="outline"/><path class="icon-vs-bg" d="M5 12l2-2v2l-3 3-3-3v-2l2 2V9h2v3zm9.51-1.541L11 5V3h1V2H8.363l.379.379L8.121 3H10v2.291L11.724 8H6v1.586L6.586 9H8v3h5.668a1 1 0 0 0 .842-1.541z" id="iconBg"/><path class="icon-vs-fg" d="M9 5.291V3h1v2.291L11.724 8h-4.36l1.379-1.379-.36-.36L8.549 6H9v-.709z" id="iconFg"/><path class="icon-vs-action-orange" d="M8 4H5.707l1.621-1.621-.707-.708L5 3.292V1H4v2.292L2.379 1.671l-.708.708L3.292 4H1v1h2.292L1.671 6.621l.708.707L4 5.707V8h1V5.707l1.621 1.621.707-.707L5.707 5H8V4zM5 5H4V4h1v1z" id="colorAction"/></svg>