<svg xmlns="http://www.w3.org/2000/svg" viewBox="0 0 16 16"><style>.st0{opacity:0}.st0,.st1{fill:#f6f6f6}.st2{fill:#424242}.st3{fill:#c27d1a}.st4{fill:#f0eff1}</style><g id="outline"><path class="st0" d="M0 0h16v16H0z"/><path class="st1" d="M7.38 1.017l-.759-.76L6 .878V0H3v.878L2.379.257l-.759.76H0V16h16V1.017z"/></g><path class="st2" d="M8.363 2l.379.379L8.121 3H14v2H9v1h5v2H7.363l-.742.742L6 8.121V9h8v2H5V9H4v2H2V9h1v-.879l-.621.621L1.636 8 1 7.364V15h14V2H8.363zM4 14H2v-2h2v2zm10 0H5v-2h9v2z" id="icon_x5F_bg"/><path class="st3" d="M8 4H5.707l1.621-1.621-.707-.708L5 3.292V1H4v2.292L2.379 1.671l-.708.708L3.292 4H1v1h2.292L1.671 6.621l.708.707L4 5.707V8h1V5.707l1.621 1.621.707-.707L5.707 5H8V4zM5 5H4V4h1v1z" id="color_x5F_action"/><g id="icon_x5F_fg"><path class="st4" d="M2 9v2h2V9H3zM8.122 3h-.001H9v2h5V3zM9 6h-.879l.621.621L7.364 8H14V6zM5 9h9v2H5z"/><path class="st4" d="M2 9h2v2H2zM2 12h2v2H2zM5 12h9v2H5z"/></g></svg>