<svg xmlns="http://www.w3.org/2000/svg" viewBox="0 0 16 16"><style>.icon-canvas-transparent{opacity:0;fill:#f6f6f6}.icon-vs-out{fill:#f6f6f6}.icon-vs-bg{fill:#424242}.icon-vs-fg{fill:#f0eff1}.icon-vs-action-green{fill:#388a34}.icon-vs-action-orange{fill:#c27d1a}</style><path class="icon-canvas-transparent" d="M16 0v16H0V0h16z" id="canvas"/><path class="icon-vs-out" d="M14.058 3.085L14 3.143V2h-2.55A2.504 2.504 0 0 0 9 0a2.49 2.49 0 0 0-1.83.806l-.549-.55L6 .878V0H3v.878L2.379.257.257 2.379.878 3H0v3h.878l-.621.621 1.606 1.606A3.002 3.002 0 0 0 0 11c0 1.076.589 2.075 1.537 2.607l.62.349A3.003 3.003 0 0 0 5 16h4a2.996 2.996 0 0 0 2.816-2H14V7.739l2-2v-.714l-1.942-1.94z" id="outline"/><path class="icon-vs-bg" d="M9 3h-.879l.399-.399c.048.226.24.399.48.399zm1.408 0c.056-.157.092-.324.092-.5C10.5 1.673 9.827 1 9 1c-.448 0-.847.202-1.122.515l.713.714A.492.492 0 0 1 9 2a.5.5 0 0 1 0 1v1h4V3h-2.592zm-.435 8.264a2.965 2.965 0 0 1-.275 1.024A.99.99 0 0 1 10 13a1 1 0 0 1-1 1H5a1.001 1.001 0 0 1 0-2l1-1H5c-1.103 0-2 .897-2 2 0 1.102.897 2 2 2h4c1.102 0 2-.898 2-2 0-.748-.417-1.393-1.027-1.736zM3 10h4a1.001 1.001 0 0 1 0 2l-1 1h1c1.102 0 2-.897 2-2s-.898-2-2-2H3c-1.103 0-2 .897-2 2 0 .748.417 1.393 1.027 1.736a2.96 2.96 0 0 1 .275-1.024A.99.99 0 0 1 2 11c0-.551.449-1 1-1z" id="iconBg"/><path class="icon-vs-fg" d="M8.52 2.601l.222-.222-.151-.151A.494.494 0 0 1 9 2a.5.5 0 0 1 0 1 .494.494 0 0 1-.48-.399zM11.802 12H12V9.739l-1.033 1.032c.382.336.664.757.835 1.229zM9 4v2h-.779l1.461 1.461L12 5.143V4H9z" id="iconFg"/><g id="colorImportance"><path class="icon-vs-action-orange" d="M12 9.739l1-1V13h-1c0-.349-.082-.681-.198-1H12V9.739zM12 4v1.143l1-1V4h-1z"/><path class="icon-vs-action-green" d="M9.844 10.042l.28.158 4.818-4.818-.885-.884-4.375 4.377-1.74-1.74-.87.871a3.004 3.004 0 0 1 2.772 2.036z"/></g><g id="colorAction"><path class="icon-vs-action-orange" d="M8 4H5.707l1.621-1.621-.707-.708L5 3.292V1H4v2.292L2.379 1.671l-.708.708L3.292 4H1v1h2.292L1.671 6.621l.708.707L4 5.707V8h1V5.707l1.621 1.621.707-.707L5.707 5H8V4zM5 5H4V4h1v1z"/></g></svg>