<svg xmlns="http://www.w3.org/2000/svg" viewBox="0 0 16 16"><style>.icon-canvas-transparent{opacity:0;fill:#f6f6f6}.icon-vs-out{fill:#f6f6f6}.icon-vs-bg{fill:#424242}.icon-vs-fg{fill:#f0eff1}.icon-vs-action-orange{fill:#c27d1a}</style><path class="icon-canvas-transparent" d="M16 16H0V0h16v16z" id="canvas"/><path class="icon-vs-out" d="M16 5v8.5c0 1.379-1.121 2.5-2.5 2.5S11 14.879 11 13.5V8h-.17l-.979 4.505a1.99 1.99 0 0 1-1.959 1.575 1.985 1.985 0 0 1-1.41-.587L.586 7.599A1.991 1.991 0 0 1 .024 6H0V3h.878l-.621-.621L2.379.257 3 .878V0h3v.878l.621-.622 1.126 1.126L9.131 0h.828l4.535 4.536L14.03 5H16z" id="outline"/><path class="icon-vs-bg" d="M12 6v7.5c0 .825.675 1.5 1.5 1.5s1.5-.675 1.5-1.5V6h-3zm2 5h-1V7h1v4zm-.92-6.464l-.707.707-.707-.707-1.414 1.414-1.379 6.342a1 1 0 0 1-1.684.495L3.402 9H6v-.879l.621.621.48-.48.61-.61.931.931.697-3.134 1.62-1.62-.707-.707L9 4.373V3h-.041l.586-.586-.708-.707L9.544 1l3.536 3.536z" id="iconBg"/><path class="icon-vs-fg" d="M14 11h-1V7h1v4zm-3.748-7.879L9 4.373V6h-.879l.621.621-1.031 1.031.931.931.697-3.134 1.62-1.62-.707-.708z" id="iconFg"/><path class="icon-vs-action-orange" d="M8 4H5.707l1.621-1.621-.707-.708L5 3.292V1H4v2.292L2.379 1.671l-.708.708L3.292 4H1v1h2.292L1.671 6.621l.708.707L4 5.707V8h1V5.707l1.621 1.621.707-.707L5.707 5H8V4zM5 5H4V4h1v1z" id="colorAction"/></svg>