<svg xmlns="http://www.w3.org/2000/svg" viewBox="0 0 16 16"><style>.st0{fill:#f6f6f6}.st1{fill:#424242}.st2{fill:#c27d1a}.st3{fill:#f0eff1}</style><path class="st0" d="M0 0h16v16H0z" id="outline"/><g id="icon_x5F_bg"><path class="st1" d="M10 3v1h1.3l-1.05 5.25L9 3v3h-.879l.621.621-.431.432L9.5 13H11l2-10zM6.621 8.742L6 8.121V9h-.2l-.05.25L5.7 9H4.2l.8 4h1.5l1-5h-.136z"/><path class="st1" d="M7.364 1l.999 1H14v12H2V8.363l-.198-.197L1.636 8v-.001L1 7.364V15h14V1z"/></g><path class="st2" d="M8 4H5.707l1.621-1.621-.707-.708L5 3.292V1H4v2.292L2.379 1.671l-.708.708L3.292 4H1v1h2.292L1.671 6.621l.708.707L4 5.707V8h1V5.707l1.621 1.621.707-.707L5.707 5H8V4zM5 5H4V4h1v1z" id="color_x5F_action"/><path class="st3" d="M8.363 2l.379.379L8.121 3H9l1.25 6.25L11.3 4H10V3h3l-2 10H9.5L8.311 7.053 8 7.363 7.5 8l-1 5H5l-.8-4H3v-.879l-.621.621L2 8.363V14h12V2z" id="icon_x5F_fg"/></svg>