<svg xmlns="http://www.w3.org/2000/svg" viewBox="0 0 16 16"><style>.st0{opacity:0}.st0,.st1{fill:#f6f6f6}.st2{fill:#424242}.st3{fill:#c27d1a}</style><g id="outline"><path class="st0" d="M0 0h16v16H0z"/><path class="st1" d="M15.973 7.056L15 6.998V5.911c.002-.545.006-1.458-.677-2.142C13.808 3.251 13.048 3 12 3h-1v2l.097 1.01H12V7c0 .693.24 1.424.617 1.999A3.758 3.758 0 0 0 12 11V8H7.363l1.379-1.379L8.121 6H9V3h-.879l.621-.621L6.621.257 6 .878V0H3v.878L2.379.257.257 2.379.878 3H0v3h.878l-.621.621L.636 7H0v3l.008.942.992.06v1.087c-.002.545-.005 1.458.677 2.142C2.192 14.748 2.952 15 4 15h1v-2l.078-.967h-1c-.007-.006-.015-.021-.022-.033H11v3h1c1.048 0 1.808-.252 2.323-.769.683-.684.679-1.597.677-2.231v-.998l1-.061V8l-.027-.944zM3.401 9.025L3.424 9H4v2c0-.686-.232-1.405-.599-1.975z"/></g><g id="icon_x5F_bg"><path class="st2" d="M14 7V6c0-.834.083-2-2-2v1c.416 0 1 .16 1 1v1c0 .833.496 1.731 1 2-.504.264-1 1.166-1 2v1s-.167 1-1 1v1c2.083 0 2-1.166 2-2v-1c0-.947.678-.981 1-1V8c-.297-.019-1-.031-1-1zM5 9h2v2H5zM9 9h2v2H9zM3 12v-1c0-.834-.496-1.736-1-2 .118-.063.233-.168.344-.292L1.636 8H1v2c.322.019 1 .053 1 1v1c0 .834-.083 2 2 2v-1c-.833 0-1-1-1-1z"/></g><path class="st3" d="M8 4H5.707l1.621-1.621-.707-.708L5 3.292V1H4v2.292L2.379 1.671l-.708.708L3.292 4H1v1h2.292L1.671 6.621l.708.707L4 5.707V8h1V5.707l1.621 1.621.707-.707L5.707 5H8V4zM5 5H4V4h1v1z" id="color_x5F_action"/></svg>