<svg xmlns="http://www.w3.org/2000/svg" viewBox="0 0 16 16"><style>.st0{opacity:0}.st0,.st1{fill:#f6f6f6}.st2{fill:#424242}.st3{fill:#c27d1a}</style><g id="outline"><path class="st0" d="M0 0h16v16H0z"/><path class="st1" d="M16 9V6H9V3h-.879l.621-.621L6.621.257 6 .879V0H3v.879L2.379.258.257 2.379.878 3H0v3h.878l-.621.621 2.122 2.121L3 8.121V9h3v1.234c-.715.227-1 .555-1 1.083V13h.759L5 13.904V16h5v-2h6v-3H9.334a1.985 1.985 0 0 0-.316-.408L9 10.578V9h7z"/></g><g id="icon_x5F_bg"><path class="st2" d="M9 7h5.981v1H9zM9 12h5.981v1H9zM6.563 10.016v-1H7V6.902l-.574.185v-.72L8 6.016v3h.469v1H6.563zM8 14h-.453s.84-1.094.904-1.208c.064-.115.112-.228.141-.343a1.46 1.46 0 0 0 .042-.344c0-.154-.025-.301-.075-.437a.932.932 0 0 0-.23-.353 1.094 1.094 0 0 0-.395-.236 1.676 1.676 0 0 0-.564-.086c-.121 0-.237.01-.35.029-.115.02-1.02.257-1.02.295v.983c0-.056.521-.246.604-.283s.193-.066.282-.088c.087-.021.191-.031.284-.031.096 0 .188.015.262.04.074.026.233.226.2.375-.034.149-.123.355-.319.604C7.236 13.014 6 14.298 6 14.298V15h2.609v-1H8z"/></g><path class="st3" d="M5 8V5.566l1.061-.212L5.707 5h2.128L8 4.967V4H5.707l1.621-1.621-.707-.707L5 3.293V1H4v2.293L2.379 1.672l-.708.707L3.292 4H1v1h2.292L1.671 6.621l.708.707L4 5.707V8h1zM4 4h1v1H4V4z" id="color_x5F_action"/></svg>