<svg xmlns="http://www.w3.org/2000/svg" width="16" height="16"><style type="text/css">.icon-canvas-transparent{opacity:0;fill:#F6F6F6;} .icon-vs-out{fill:#F6F6F6;} .icon-vs-bg{fill:#424242;} .icon-vs-action-orange{fill:#C27D1A;}</style><path class="icon-canvas-transparent" d="M16 16h-16v-16h16v16z" id="canvas"/><path class="icon-vs-out" d="M16 7v9h-12v-7h-1v-.879l-.621.621-2.122-2.121.621-.621h-.878v-3h.878l-.621-.621 2.122-2.122.621.621v-.878h3v.878l.621-.622 1.854 1.854 2.111-2.11h.828l3.586 3.586v3.414h1z" id="outline"/><path class="icon-vs-bg" d="M7 13h8v2h-10v-6h1v-.879l.621.621.379-.379v4.637zm5-7v-2l2 2v-2l-3-3-2 2v2l1-1v8h2v-3c.833.712 2.03 1 3 1v-2c-1.102 0-3-.847-3-2z" id="iconBg"/><path class="icon-vs-action-orange" d="M8 4h-2.293l1.621-1.621-.707-.708-1.621 1.621v-2.292h-1v2.292l-1.621-1.621-.708.708 1.621 1.621h-2.292v1h2.292l-1.621 1.621.708.707 1.621-1.621v2.293h1v-2.293l1.621 1.621.707-.707-1.621-1.621h2.293v-1zm-3 1h-1v-1h1v1z" id="colorAction"/></svg>