<svg xmlns="http://www.w3.org/2000/svg" viewBox="0 0 16 16"><style>.st0{opacity:0}.st0,.st1{fill:#f6f6f6}.st2{fill:#424242}.st3{fill:#c27d1a}.st4{fill:#f0eff1}</style><g id="outline"><path class="st0" d="M0 0h16v16H0z"/><path class="st1" d="M8.363 2L6.621.257 6 .878V0H3v.878L2.379.257.257 2.379.878 3H0v3h.878l-.621.621L2 8.363V14h14V2z"/></g><g id="icon_x5F_bg"><path class="st2" d="M13 9.66l-1.972-2.761-2.604 3.367a.5.5 0 0 1-.403.234.485.485 0 0 1-.42-.2L6.446 8.762 5 10.207V11h8V9.66z"/><path class="st2" d="M9 5v1h-.879l.621.621-1.515 1.516.735.98 2.614-3.382a.5.5 0 0 1 .831-.026L13 7.94V5H9z"/><path class="st2" d="M9 3v1h5v8H4V9H3v4h12V3z"/></g><path class="st3" d="M8 4H5.707l1.621-1.621-.707-.708L5 3.292V1H4v2.292L2.379 1.671l-.708.708L3.292 4H1v1h2.292L1.671 6.621l.708.707L4 5.707V8h1V5.707l1.621 1.621.707-.707L5.707 5H8V4zM5 5H4V4h1v1z" id="color_x5F_action"/><path class="st4" d="M9 4v1h4v2.94l-1.593-2.23a.498.498 0 0 0-.831.026L7.962 9.117l-.735-.98-.606.605L6 8.121V9H4v3h10V4H9zm4 7H5v-.793l1.446-1.445L7.601 10.3a.485.485 0 0 0 .42.2.504.504 0 0 0 .403-.234l2.604-3.367L13 9.66V11z" id="icon_x5F_fg"/></svg>