<svg xmlns="http://www.w3.org/2000/svg" viewBox="0 0 16 16"><style>.st0{opacity:0}.st0,.st1{fill:#f6f6f6}.st2{fill:#424242}.st3{fill:#efeef0}</style><g id="outline"><path class="st0" d="M0 0h16v16H0z"/><path class="st1" d="M14 4.552L10.023 1H3.964C3.012 1 2 1.701 2 3v2H1v6.969h1V13c0 1.299 1.012 2 1.965 2h8c1.442 0 2.007-1.175 2.035-2V8.391l-.046.017a2.53 2.53 0 0 0 .046-.47v-1c0-.134-.023-.259-.045-.384l.045.017V4.552z"/></g><g id="icon_x5F_bg"><path class="st2" d="M4 4.969V3h5v1.969h3.219c.268 0 .533.052.781.147V5L9.641 2H3.964S3 2 3 3v1.969h1zM12.016 10.016L12 13H4v-1H3v1c0 1 .965 1 .965 1h8c1 0 1.035-1 1.035-1V9.832a3.507 3.507 0 0 1-.984.184z"/><path class="st2" d="M6.004 6v5h1V9h1v2h1V6h-1v2h-1V6zM4 6H2v4.969h1v-2h1c.719 0 1-.443 1-1.031v-1C5 5.938 4 6 4 6zm0 2H3V6.969h1V8zM12 6h-2v4.969h1v-2h1c.719 0 1-.443 1-1.031v-1c0-1-1-.938-1-.938zm0 2h-1V6.969h1V8z"/></g><g id="icon_x5F_fg"><path class="st3" d="M4.082 4.969c.319 0 .635.077.922.213v-.213H9V3H4v1.969h.082zM4 12h8v1H4z"/></g></svg>