<svg id="Layer_1" xmlns="http://www.w3.org/2000/svg" viewBox="0 0 16 16"><style>.st0{fill:#c07e2a}.st0,.st1{opacity:0}.st1,.st2{fill:#f6f6f6}.st3{fill:#424242}.st4,.st5{fill:#f0eff1;stroke:#424242;stroke-width:.15;stroke-miterlimit:10}.st5{fill:none;stroke-width:.7}.st6{fill:#c07e2a}</style><path class="st0" d="M0 0h16v16H0z"/><path class="st1" d="M0 0h16v16H0z"/><path class="st2" d="M9.718.144H8.674L2.145 3.447v8.043L9.302 16h.487L16 11.445V3.458z"/><path class="st3" d="M15 10.939V4.062L9.197 1 3.145 4.062v6.877l6.377 4.018L15 10.939zM9.126 2.056l4.799 2.364-4.477 2.686-4.835-2.758 4.513-2.292zm-.04 11.52v.024l-.014-.012-.013.012v-.023l-4.947-3.226V5.166l5.015 2.8v5.584l-.041.026zm5.034-3.067l-4.027 2.901V8l4.027-2.635v5.144z"/><path class="st4" d="M9.126 2.056l4.799 2.364-4.477 2.686-4.835-2.758zM9.086 13.576v.024l-.014-.012-.013.012v-.024l-4.948-3.225V5.166l5.015 2.8v5.584zM14.12 10.509l-4.027 2.901V8l4.027-2.635z"/><path class="st2" d="M0 8h8.063v8H0z"/><path class="st2" d="M0 8h8v8H0z"/><path class="st3" d="M5.044 11.591l1.831-1.774-.656-.317-1.662 1.602zM3.082 12.524l-1.961 1.891.508.483 1.943-1.882zM3.505 11.083L1.844 9.44l-.497.438 1.685 1.679zM4.962 12.523l-.479.479 1.951 1.942.289-.68z"/><path class="st3" d="M6.326 9.711v4.579H1.731V9.711h4.595m.7-.7H1.031v5.979h5.995V9.011z"/><path class="st2" d="M3 9v-.879l-.621.621L.257 6.621.878 6H0V3h.878l-.621-.621L2.379.257 3 .878V0h3v.878l.621-.621 2.121 2.122L8.121 3H9v3h-.879l.621.621-2.121 2.121L6 8.121V9z"/><path class="st6" d="M8 4H5.707l1.621-1.621-.707-.708L5 3.292V1H4v2.292L2.379 1.671l-.708.708L3.292 4H1v1h2.292L1.671 6.621l.708.707L4 5.707V8h1V5.707l1.621 1.621.707-.707L5.707 5H8V4zM5 5H4V4h1v1z"/></svg>