<svg xmlns="http://www.w3.org/2000/svg" viewBox="0 0 16 16"><style>.st0{opacity:0}.st0,.st1{fill:#f6f6f6}.st2{fill:#424242}.st3{fill:#c27d1a}.st4{fill:#f0eff1}</style><g id="outline"><path class="st0" d="M0 0h16v16H0z"/><path class="st1" d="M3 9v-.879l-.621.621L.257 6.621.878 6H0V3h.878l-.621-.621L2.379.257 3 .878V0h3v.878l.621-.621 2.121 2.122L8.121 3H9v3h-.879l.621.621-2.121 2.121L6 8.121V9z"/></g><g id="icon_x5F_bg"><path class="st1" d="M13.5 4.798l-.5.333V3.985L9.081 1.186 8.438.84l-1.59 1.059.48.48L5.707 4H8v.075l.996.68-2.071 1.381.403.485L6 7.949V8H3v2.515l4.48 3.2.52-.347v1.167L10.197 16h.606L16 12.535v-6.07z"/><path class="st2" d="M13.5 6L12 7V4.5L8.5 2l-.082.055.324.324L8.121 3H9v.573l1.648 1.228L9 5.899V6h-.151l-.437.291.33.33L7 8.363v2.602l-2-1.5V9H4v1l3.5 2.5 1.5-1V14l1.5 1 4.5-3V7l-1.5-1zM11 7.666L9 9v1.299l-1 .666V7.768l3-2v1.898z"/></g><path class="st3" d="M8 4H5.707l1.621-1.621-.707-.708L5 3.292V1H4v2.292L2.379 1.671l-.708.708L3.292 4H1v1h2.292L1.671 6.621l.708.707L4 5.707V8h1V5.707l1.621 1.621.707-.707L5.707 5H8V4zM5 5H4V4h1v1z" id="color_x5F_action"/><g id="icon_x5F_fg"><path class="st4" d="M8 7.768v3.197l1-.666V9l2-1.334V5.768zM8 6v.565L8.849 6zM9 3.573v2.326l1.648-1.098z"/><g><path class="st4" d="M6 8v1H5v.465l2 1.5V8z"/></g></g></svg>