<svg xmlns="http://www.w3.org/2000/svg" viewBox="0 0 16 16"><style>.st0{opacity:0}.st0,.st1{fill:#f6f6f6}.st2{fill:#424242}.st3{fill:#c27d1a}</style><g id="outline"><path class="st0" d="M0 0h16v16H0z"/><path class="st1" d="M13.632 5.605l-.598-1.325-2.662 2.68-.326-.326 2.692-2.667-1.326-.597c-.656-.296-1.401-.358-1.911-.358A3.63 3.63 0 0 0 9 3.053V3h-.879l.621-.621L6.621.257 6 .878V0H3v.878L2.379.257.257 2.379.878 3H0v3h.878l-.621.621 2.122 2.121L3 8.121V9h1.909l-2.225 2.16c-.114.113-.682.726-.682 1.612 0 .396.119.985.681 1.548s1.152.681 1.547.681c.887 0 1.499-.567 1.614-.683l2.435-2.446c.365.082.773.123 1.221.123a4.498 4.498 0 0 0 4.492-4.492c.001-.5-.061-1.234-.36-1.898z"/></g><g id="icon_x5F_bg"><path class="st2" d="M9 6h-.879l.569.569 2.311-2.288c-.44-.198-.989-.27-1.5-.27-.172 0-.336.027-.501.05V6zM12.72 6.016l-2.346 2.361L8.68 6.683 6.621 8.742l-.514-.514c.05.279.116.552.222.788l-2.938 2.852s-.874.873 0 1.746c.872.873 1.745 0 1.745 0l2.865-2.879c.438.198.987.261 1.5.261a3.492 3.492 0 0 0 3.492-3.492c0-.512-.076-1.05-.273-1.488z"/></g><path class="st3" d="M8 4H5.707l1.621-1.621-.707-.708L5 3.292V1H4v2.292L2.379 1.671l-.708.708L3.292 4H1v1h2.292L1.671 6.621l.708.707L4 5.707V8h1V5.707l1.621 1.621.707-.707L5.707 5H8V4zM5 5H4V4h1v1z" id="color_x5F_action"/></svg>