<svg xmlns="http://www.w3.org/2000/svg" viewBox="0 0 16 16"><style>.st0{opacity:0}.st0,.st1{fill:#f6f6f6}.st2{fill:#424242}.st3{fill:#c27d1a}</style><g id="outline"><path class="st0" d="M0 0h16v16H0z"/><path class="st1" d="M12 4v2.047a5.24 5.24 0 0 0-1.374-.725A6.087 6.087 0 0 0 9 5.03V3h-.879l.621-.621L6.621.257 6 .878V0H3v.878L2.379.257.257 2.379.878 3H0v3h.878l-.621.621.743.743V16h4v-1.162c.397.301.828.563 1.319.746a6.148 6.148 0 0 0 2.145.365c.336 0 .642-.013.917-.039.275-.027.52-.063.751-.104l.132-.024c.21-.039.437-.084.581-.131l.119-.028c.687-.154 1.036-.512 1.036-1.062V16h4V4h-4z"/></g><g id="icon_x5F_bg"><path class="st2" d="M9.848 14.036a6.546 6.546 0 0 1-1.297.122 4.047 4.047 0 0 1-1.5-.262 3.237 3.237 0 0 1-1.119-.728 3.135 3.135 0 0 1-.704-1.117 4.055 4.055 0 0 1-.241-1.425c0-.542.089-1.046.271-1.513.016-.04.04-.073.057-.113h-1.03c-.048.139-.096.277-.132.422-.1.397-.147.81-.147 1.24 0 .649.109 1.239.33 1.767.218.528.528.978.923 1.353s.867.663 1.409.864a5.133 5.133 0 0 0 1.796.303c.301 0 .574-.011.818-.034.246-.024.465-.056.661-.091.193-.037.45-.078.597-.125.146-.048.46-.093.46-.138v-.849c0 .063-.386.124-.547.182-.16.056-.422.104-.605.142z"/><path class="st2" d="M12.612 8.254a3.65 3.65 0 0 0-.934-1.219 4.181 4.181 0 0 0-1.376-.766A5.158 5.158 0 0 0 8.622 6c-.163 0-.317.015-.473.028l.593.593-.177.177c.015 0 .029-.004.044-.004.418 0 .793.044 1.117.135.326.091.615.214.864.367.253.158.464.338.64.544.178.208.322.428.436.663.112.236.192.478.245.728.05.252.074.497.074.737 0 .342-.033.649-.102.92a2.548 2.548 0 0 1-.266.69 1.268 1.268 0 0 1-.385.432.783.783 0 0 1-.45.148.514.514 0 0 1-.213-.045.363.363 0 0 1-.164-.155.922.922 0 0 1-.108-.304 2.664 2.664 0 0 1-.039-.489c0-.063.008-.17.018-.323.01-.151.026-.328.041-.527.016-.2.035-.414.056-.64.017-.228.037-.445.057-.647.017-.203.033-.456.048-.613.014-.159.023-.415.026-.415H9.59l-.053 1h-.02c-.027 0-.07-.324-.136-.409-.063-.083-.141-.219-.233-.28-.09-.06-.191-.138-.306-.172a1.264 1.264 0 0 0-.366-.065c-.334 0-.642.063-.917.207-.28.144-.516.337-.717.591-.2.253-.354.551-.463.898a3.615 3.615 0 0 0-.167 1.126c0 .342.044.641.132.897.089.259.21.47.359.642.152.171.327.298.53.381a1.628 1.628 0 0 0 1.134.047c.153-.052.3-.13.429-.231.133-.104.525-.632.581-.632h.025s.101.539.306.756c.206.219.498.262.883.262.291 0 .577-.096.858-.229.282-.132.533-.343.759-.6.221-.26.402-.589.54-.969.137-.384.207-.832.207-1.339 0-.601-.116-1.146-.343-1.627zm-3.289 2.534a2.533 2.533 0 0 1-.244.715 1.41 1.41 0 0 1-.405.478.956.956 0 0 1-.569.176.758.758 0 0 1-.341-.078.826.826 0 0 1-.288-.23 1.243 1.243 0 0 1-.196-.387 1.92 1.92 0 0 1-.071-.544c0-.236.027-.479.08-.726.056-.246.136-.47.249-.673.109-.199.249-.361.414-.49a.925.925 0 0 1 .578-.19.9.9 0 0 1 .339.063.737.737 0 0 1 .277.195c.08.086.144.196.188.329.045.132.07.292.07.478a5.101 5.101 0 0 1-.081.884zM13 5v1h1v8h-1v1h2V5zM3 9v-.879l-.621.621L2 8.363V15h2v-1H3z"/></g><path class="st3" d="M8 4H5.707l1.621-1.621-.707-.708L5 3.292V1H4v2.292L2.379 1.671l-.708.708L3.292 4H1v1h2.292L1.671 6.621l.708.707L4 5.707V8h1V5.707l1.621 1.621.707-.707L5.707 5H8V4zM5 5H4V4h1v1z" id="color_x5F_action"/></svg>