<svg xmlns="http://www.w3.org/2000/svg" width="16" height="16"><style type="text/css">.icon-canvas-transparent{opacity:0;fill:#F6F6F6;} .icon-vs-out{fill:#F6F6F6;} .icon-vs-bg{fill:#424242;} .icon-vs-fg{fill:#F0EFF1;} .icon-vs-action-orange{fill:#C27D1A;}</style><path class="icon-canvas-transparent" d="M16 16h-16v-16h16v16z" id="canvas"/><path class="icon-vs-out" d="M16 12h-2v3h-10v-6h-1v-.879l-.621.621-2.122-2.121.621-.621h-.878v-3h.878l-.621-.621 2.122-2.122.621.621v-.878h3v.878l.621-.622 2.121 2.122-.621.622h7.879v9z" id="outline"/><path class="icon-vs-bg" d="M9 4v2h5v4h-1v-3h-4.637l-1.742 1.742-.621-.621v.879h1v2h5v2h-6v-4h-1v5h8v-3h2v-7h-6zm3 5.999l-.001.001h-3.999v-1h4v.999z" id="iconBg"/><path class="icon-vs-fg" d="M5.999 9h1v2h5v2h-6v-4zm3.001-3h-.879l.621.621-.378.379h4.636v3h1v-4h-5zm2.999 3h-4v1h4v-1z" id="iconFg"/><path class="icon-vs-action-orange" d="M8 4h-2.293l1.621-1.621-.707-.708-1.621 1.621v-2.292h-1v2.292l-1.621-1.621-.708.708 1.621 1.621h-2.292v1h2.292l-1.621 1.621.708.707 1.621-1.621v2.293h1v-2.293l1.621 1.621.707-.707-1.621-1.621h2.293v-1zm-3 1h-1v-1h1v1z" id="colorAction"/></svg>