<svg xmlns="http://www.w3.org/2000/svg" viewBox="0 0 16 16"><style>.st0{opacity:0}.st0,.st1{fill:#f6f6f6}.st2{fill:#424242}.st3{fill:#c27d1a}</style><g id="outline"><path class="st0" d="M0 0h16v16H0z"/><path class="st1" d="M6 9v-.879l.621.621L7 8.363V15h1.351l6.25-5L9 5.52V3h-.879l.621-.621L6.621.257 6 .878V0H3v.878L2.379.257.257 2.379.878 3H0v3h.878l-.621.621 2.122 2.121L3 8.121V9z"/></g><path class="st2" d="M8 6v8l5-4-5-4z" id="icon_x5F_bg"/><path class="st3" d="M7 6.293L5.707 5H8V4H5.707l1.621-1.621-.707-.708L5 3.292V1H4v2.292L2.379 1.671l-.708.708L3.292 4H1v1h2.292L1.671 6.621l.708.707L4 5.707V8h1V5.707l1.621 1.621L7 6.949v-.656zM5 5H4V4h1v1z" id="color_x5F_action"/></svg>