<svg xmlns="http://www.w3.org/2000/svg" viewBox="0 0 16 16"><style>.st0{opacity:0}.st0,.st1{fill:#f6f6f6}.st2{fill:#424242}.st3{fill:#c27d1a}.st4{fill:#f0eff1}</style><path class="st0" d="M0 0h16v16H0z" id="outline"/><g id="icon_x5F_bg"><path class="st1" d="M8.195 2.926l.547-.547L6.621.257 6 .878V0H3v.878L2.379.257.257 2.379.878 3H0v3h.878l-.621.621 2.122 2.121L3 8.121V9h1.005v7H16V2.926z"/><path class="st2" d="M12 7.999a2 2 0 0 0-4 0c0 .672.334 1.265.844 1.626L8 12.999h1l1-3 1 3h1l-.844-3.374c.51-.361.844-.954.844-1.626zm-2 1a1 1 0 1 1 0-2 1 1 0 1 1 0 2z"/><path class="st2" d="M9 3.999v1h5v9H6V8v1H5v6h10V3.999z"/></g><path class="st3" d="M8 4H5.707l1.621-1.621-.707-.708L5 3.292V1H4v2.292L2.379 1.671l-.708.708L3.292 4H1v1h2.292L1.671 6.621l.708.707L4 5.707V8h1V5.707l1.621 1.621.707-.707L5.707 5H8V4zM5 5H4V4h1v1z" id="color_x5F_action"/><g id="icon_x5F_fg"><path class="st4" d="M10 7.078c-.553 0-.953.369-.953.922s.4.922.953.922c.553 0 .922-.369.922-.922s-.369-.922-.922-.922z"/><path class="st4" d="M9 5v1h-.879l.455.455A2.198 2.198 0 0 1 10 5.906c1.104 0 2.078.989 2.078 2.094 0 .672-.318 1.265-.828 1.626l.859 3.452h-1.172L10 10.156l-.938 2.906H7.844l.906-3.437A1.973 1.973 0 0 1 7.922 8c0-.29.045-.626.156-.875L6.621 8.742 6 8.121V14h8V5H9z"/></g></svg>