<svg xmlns="http://www.w3.org/2000/svg" viewBox="0 0 16 16"><style>.st0{opacity:0}.st0,.st1{fill:#f6f6f6}.st2{fill:#424242}.st3{fill:#c27d1a}.st4{fill:#f0eff1}</style><g id="outline"><path class="st0" d="M0 0h16v16H0z"/><path class="st1" d="M14.414 3H8.121l.621-.621L6.621.257 6 .878V0H3v.878L2.379.257.257 2.379.878 3H0v3h.878l-.621.621 2.122 2.121L3 8.121V9h1v4.414L5.586 15h8.828L16 13.414V4.586L14.414 3z"/></g><g id="icon_x5F_bg"><circle class="st2" cx="10" cy="9" r="2"/><path class="st2" d="M14 4H9v1.663c.318-.096.65-.163 1-.163A3.5 3.5 0 1 1 6.5 9c0-.119.017-.233.031-.348L6 8.121V9H5v4l1 1h8l1-1V5l-1-1z"/></g><path class="st3" d="M8 4H5.707l1.621-1.621-.707-.708L5 3.292V1H4v2.292L2.379 1.671l-.708.708L3.292 4H1v1h2.292L1.671 6.621l.708.707L4 5.707V8h1V5.707l1.621 1.621.707-.707L5.707 5H8V4zM5 5H4V4h1v1z" id="color_x5F_action"/><path class="st4" d="M10 5.5c-.35 0-.682.067-1 .163V6h-.776a3.598 3.598 0 0 0-.064.039l.583.583-2.122 2.12-.09-.09c-.014.115-.031.229-.031.348A3.5 3.5 0 1 0 10 5.5zm0 5.5a2 2 0 1 1-.001-3.999A2 2 0 0 1 10 11z" id="icon_x5F_fg"/></svg>