<svg xmlns="http://www.w3.org/2000/svg" viewBox="0 0 16 16"><style>.st0{opacity:0}.st0,.st1{fill:#f6f6f6}.st2{fill:#f0eff1}.st3{fill:#424242}.st4{fill:#c27d1a}</style><g id="outline"><path class="st0" d="M0 0h16v16H0z"/><path class="st1" d="M13.227 1.038H7.996c-.148 0-.375.039-.522.072L6.621.257 6 .878V0H3v.878L2.379.257.257 2.379.878 3H0v3h.878l-.621.621 2.122 2.121L3 8.121V9h1.076c-.011.095-.034.19-.034.283V14h2.029a2.22 2.22 0 0 0 .612 1.254c.701.71 1.671.746 1.859.746 1.005 0 2.5-.648 2.5-2.428v-1.437H14c1.299 0 2-1.029 2-2V3.369l-2.773-2.331zM5.31 6.855c-.054.046-.11.088-.161.136.051-.048.107-.09.161-.136zm.6-.411c-.091.05-.185.097-.271.154.086-.058.179-.103.271-.154zM4.442 7.902l-.017.029.017-.029zm.373-.547l-.071.085.071-.085z"/><path class="st2" d="M12.002 4.994V3.016H9V6h-.65c1.595.372 2.757 1.845 2.757 3.163v.854h2.959V4.994h-2.064z"/><path class="st3" d="M12.602 2H8.363l.379.379-.607.607H12v2h2v5h-2.981v1h2.923c1 0 1.059-1 1.059-1V4.123L12.602 2zM9.983 9.207v4.289c0 1.428-1.499 1.428-1.499 1.428-.004 0-1.52 0-1.5-1.428V9.071h1s-.012 4.368 0 4.425c.002.008-.043.428.5.428.5 0 .498-.418.5-.428.006-.029.04-3.29 0-4.289-.01-.256.001-1.283-1.5-1.283-1.5 0-1.5 1.188-1.5 1.283v3.717h-1V9.207c0-.889 1.003-2.284 2.5-2.283 1.502-.001 2.499 1.394 2.499 2.283z"/></g><path class="st4" d="M4.386 8A3.7 3.7 0 0 1 5 7.135V5.707l.799.799c.307-.184.636-.334.996-.418L5.707 5H8V4H5.707l1.621-1.621-.707-.708L5 3.292V1H4v2.292L2.379 1.671l-.708.708L3.292 4H1v1h2.292L1.671 6.621l.708.707L4 5.707V8h.386zM4 4h1v1H4V4z" id="color_x5F_action"/></svg>