<svg xmlns="http://www.w3.org/2000/svg" viewBox="0 0 16 16"><style>.st0{opacity:0}.st0,.st1{fill:#f6f6f6}.st2{fill:#efeef0}.st3{fill:#424242}.st4{fill:#f0eff1}.st5{fill:#c27d1a}</style><g id="outline"><path class="st0" d="M0 0h16v16H0z"/><path class="st1" d="M16 12.5V9h-1.09l.845-.619V2.868L11.051.387 8.194 1.831 6.621.257 6 .878V0H3v.878L2.379.257.257 2.379.878 3H0v3h.878l-.621.621.146.146C.157 7.085 0 7.497 0 8v6c0 1.299 1.03 2 2 2h5.023c1.298 0 2-1.03 2-2v-.064L11.086 16h4.328l-1.127-1.127A2.505 2.505 0 0 0 16 12.5zm-6.978-2.275l1.742 1.097-1.742 1.742v-2.839zm3.161.775l.817-.6v.6h-.817z"/></g><g id="icon_x5F_bg"><path class="st2" d="M4.935 9H3v-.879l-.621.621-.402-.402V14H7V9.996L4.935 9.96z"/><path class="st3" d="M6.621 8.742L6 8.121V9h-.977v1h2v4H2V8.363l-.88-.879C1.05 7.618 1 7.781 1 8v6c0 1 .941 1 .941 1h5.023c1 0 1.059-1 1.059-1V9.137l-.95-.846-.452.451zM14 10v2.5c0 .275-.225.5-.5.5H12l1-1h-1.5L10 13.5l1.5 1.5H13l-1-1h1.5c.828 0 1.5-.673 1.5-1.5V10h-1zM11.041 1.512L8.145 2.977 8.121 3H9v.201l1.995-1.013 3.07 1.513-2.864 1.719L9 4.165v.691l1.995 1.114v3.574l-.024.018v.016l-.01-.008-.008.008v-.016L7.834 7.529l-.469.47 3.883 2.446 3.507-2.57V3.471l-3.714-1.959zm3.149 6.087l-2.576 1.856V5.992l2.576-1.567v3.174z"/><path class="st4" d="M14.19 7.599l-2.576 1.856V5.992l2.576-1.567zM10.995 2.188L9 3.201v.964l2.201 1.255 2.864-1.719zM9 4.856V6h-.879l.621.621-.908.908 3.119 2.033v.015l.008-.008.01.008v-.015l.024-.018V5.97z"/><g><path class="st3" d="M11.539 9.602V5.95l2.727-1.658v3.345l-2.727 1.965zM12 5.917v3.392l2.115-1.749V4.559L12 5.917zM11.028 2.121l-.034-.017L9 3.117v.168l1.996-1.013 2.913 1.435-2.54 1.626L9 4.078v.172l2.333 1.235-.131.022 2.902-1.742.118-.071zM9 4.77v.172L11 6v3.484L7.889 7.475l-.109.108 3.099 2.02.007.147.084-.083.076.051V9.6l.024-.018V5.926z"/></g></g><path class="st5" d="M8 4H5.707l1.621-1.621-.707-.708L5 3.292V1H4v2.292L2.379 1.671l-.708.708L3.292 4H1v1h2.292L1.671 6.621l.708.707L4 5.707V8h1V5.707l1.621 1.621.707-.707L5.707 5H8V4zM5 5H4V4h1v1z" id="color_x5F_action"/></svg>