<svg xmlns="http://www.w3.org/2000/svg" viewBox="0 0 16 16"><style>.st0{opacity:0}.st0,.st1{fill:#f6f6f6}.st2{fill:#424242}</style><g id="outline"><path class="st0" d="M0 0h16v16H0z"/><path class="st1" d="M14.748 10.117L10.851 7H11V4h-.879l.621-.621-2.121-2.122L8 1.878V1H5v.878l-.621-.621-2.122 2.122.621.621H2v3h.878l-.621.621 2.122 2.121L5 9.121V10h2v4.767z"/></g><g id="icon_x5F_bg"><path class="st2" d="M9.601 6H10V5H8.351z"/><path class="st2" d="M7 9V6H6V5H7.707l1.621-1.621-.707-.708L7 4.292V2H6v2.292L4.379 2.671l-.708.708L5.292 5H3v1h2.292L3.671 7.621l.708.707L6 6.707V9z"/><path class="st2" d="M8 6v7l5-3z"/></g></svg>