<svg xmlns="http://www.w3.org/2000/svg" viewBox="0 0 16 16"><style>.st0{opacity:0}.st0,.st1{fill:#f6f6f6}.st2{fill:#424242}.st3{fill:#c27d1a}.st4{fill:#f0eff1}.st5{fill:#fc0}</style><g id="outline"><path class="st0" d="M0 0h16v16H0z"/><path class="st1" d="M13.979 8.6V1.972H8.335L6.621.257 6 .878V0H3v.878L2.379.257.257 2.379.878 3H0v3h.878l-.621.621 1.772 1.771v6.574h5.984L8.602 16H16v-2.952z"/></g><g id="icon_x5F_bg"><path class="st2" d="M10 7c0-.738-.404-1.376-1-1.723V6h-.879l.031.031c.477.075.848.47.848.969a1 1 0 0 1-1 1h-.637l-.576.576c.02.016.036.036.057.051L6 12h1l1-3 1 3h.484l.345-.685-.673-2.688C9.666 8.264 10 7.672 10 7z"/><path class="st2" d="M4 9H3v5h5.48l.503-1H4zM9 3v1h3v4h1V3z"/></g><path class="st3" d="M8 4H5.707l1.621-1.621-.707-.708L5 3.292V1H4v2.292L2.379 1.671l-.708.708L3.292 4H1v1h2.292L1.671 6.621l.708.707L4 5.707V8h1V5.707l1.621 1.621.707-.707L5.707 5H8V4zM5 5H4V4h1v1z" id="color_x5F_action"/><g id="icon_x5F_fg"><path class="st4" d="M8.152 6.031l.59.59L8 7.363V8a1 1 0 0 0 1-1 .986.986 0 0 0-.848-.969zM9 4v1.188c.596.346 1.063 1.074 1.063 1.812 0 .672-.318 1.264-.828 1.627l.705 2.578L11.493 8H12V4H9zM8 9.203l-1 2.891H5.891l.875-3.467c-.232-.165-.342-.382-.486-.627H6v1H4v4h4.983l.455-.953h-.516L8 9.203zM7.363 8l.631-.557L8 8z"/></g><path class="st5" d="M12.891 9h-.781l-3.016 6.008.515.992h5.766l.484-1.008L12.891 9zM13 15h-1v-1h1v1zm0-2h-1v-2h1v2z" id="not_x5F_bg"/><path d="M12 14h1v1h-1v-1zm0-1h1v-2h-1v2z" id="not_x5F_fg"/></svg>