<svg xmlns="http://www.w3.org/2000/svg" viewBox="0 0 16 16"><style>.st0{opacity:0}.st0,.st1{fill:#f6f6f6}.st2{fill:#424242}.st3{fill:#c07e2a}.st4{fill:#efeef0}</style><g id="outline"><path class="st0" d="M0 0h16v16H0z"/><path class="st1" d="M13 4H9V3h-.879l.621-.621L6.621.257 6 .878V0H3v.878L2.379.257.257 2.379.878 3H0v3h.878l-.621.621 1.762 1.761v1.636H0V14h2.019v2H6v-2c0 1.299 1.031 2 2 2h6c1.299 0 2-1.03 2-2V6.542L13 4z"/></g><g id="icon_x5F_bg"><path class="st2" d="M12.625 5H9v1h3.023v2h2v6h-6V7.34l-1 1V10H8v4h-.977c0 1 .941 1 .941 1h6c1 0 1.059-1 1.059-1V7.136L12.625 5zM5 9H3.019v2.018H1V13h2.019v2H5v-2h2v-1.982H5z"/></g><path class="st3" d="M8 4H5.707l1.621-1.621-.707-.708L5 3.292V1H4v2.292L2.379 1.671l-.708.708L3.292 4H1v1h2.292L1.671 6.621l.708.707L4 5.707V8h1V5.707l1.621 1.621.707-.707L5.707 5H8V4zM5 5H4V4h1v1z" id="color_x5F_action"/><path class="st4" d="M11.936 7.96V6H8.121l.621.621L8 7.363V14h6V7.996z" id="icon_x5F_fg"/></svg>