<svg id="Layer_1" xmlns="http://www.w3.org/2000/svg" viewBox="0 0 16 16"><style>.st0{opacity:0}.st0,.st1{fill:#f6f6f6}.st2{fill:#f0eff1}.st3{fill:#424242}.st4{fill:#c27d1a}</style><path class="st0" d="M0 0h16v16H0z"/><circle class="st1" cx="5" cy="11" r="3"/><circle class="st2" cx="5" cy="11" r="2"/><circle class="st1" cx="11.5" cy="6.5" r="4.5"/><circle class="st3" cx="11.5" cy="6.5" r="3.5"/><path class="st3" d="M10 8.833V4.167l3.496 2.331z"/><path class="st2" d="M10 9V4l3.745 2.498z"/><path class="st1" d="M5 16a3.8 3.8 0 0 1-.536-.046l-.769-.099-.191-.783-.044-.353-.897.698-.615-.477a5.071 5.071 0 0 1-.89-.891l-.475-.614.698-.896L.158 12.4l-.099-.769C.021 11.359 0 11.184 0 11s.021-.359.046-.535l.099-.769.782-.191.354-.045-.698-.895.475-.614c.257-.333.557-.632.89-.891l.614-.477.898.699.139-1.124.77-.099C4.641 6.021 4.817 6 5 6s.359.021.536.046l.769.099.191.783.044.354.897-.699.615.477c.333.259.632.559.89.891l.476.614-.699.895 1.123.14.1.769c.037.272.058.447.058.631s-.021.359-.046.535l-.099.769-.782.191-.354.045.698.896-.476.614a5.037 5.037 0 0 1-.89.891l-.614.477-.897-.699-.139 1.123-.77.1A4.614 4.614 0 0 1 5 16zm0-6a1.001 1.001 0 0 0 0 2 1.001 1.001 0 0 0 0-2z"/><path class="st3" d="M8.949 11.504C8.971 11.337 9 11.173 9 11s-.029-.337-.051-.504l-1.235-.154a2.747 2.747 0 0 0-.331-.795l.767-.984a3.972 3.972 0 0 0-.712-.713l-.985.767a2.786 2.786 0 0 0-.796-.331l-.153-1.235C5.337 7.029 5.173 7 5 7s-.337.029-.504.051l-.153 1.235a2.786 2.786 0 0 0-.796.331l-.985-.767a3.972 3.972 0 0 0-.712.713l.768.984c-.149.244-.263.51-.331.795l-1.235.154C1.029 10.663 1 10.827 1 11s.029.337.051.504l1.235.154c.068.285.182.551.331.795l-.767.985c.207.268.445.506.712.713l.985-.768c.243.148.51.262.796.331l.153 1.235c.167.022.331.051.504.051s.337-.029.504-.051l.153-1.235c.286-.069.553-.183.796-.331l.985.768c.267-.207.505-.445.712-.713l-.768-.984c.149-.244.263-.51.331-.795l1.236-.155zM5 13a2 2 0 1 1-.001-3.999A2 2 0 0 1 5 13z"/><circle class="st1" cx="5" cy="11" r="2"/><circle class="st3" cx="5" cy="11" r="1"/><circle class="st1" cx="5" cy="11" r="2"/><circle class="st3" cx="5" cy="11" r="1"/><path class="st1" d="M3 9v-.879l-.621.621L.257 6.621.878 6H0V3h.878l-.621-.621L2.379.257 3 .878V0h3v.878l.621-.621 2.121 2.122L8.121 3H9v3h-.879l.621.621-2.121 2.121L6 8.121V9z"/><path class="st4" d="M8 4H5.707l1.621-1.621-.707-.708L5 3.292V1H4v2.292L2.379 1.671l-.708.708L3.293 4H1v1h2.293L1.671 6.621l.708.707L4 5.707V8h1V5.707l1.621 1.621.707-.707L5.707 5H8V4zM5 5H4V4h1v1z"/></svg>