<svg xmlns="http://www.w3.org/2000/svg" viewBox="0 0 16 16"><style>.st0{opacity:0}.st0,.st1{fill:#f6f6f6}.st2{fill:none}.st3{fill:#424242}.st4{fill:#f0eff1}.st5{fill:#c27d1a}</style><g id="outline"><path class="st0" d="M0 0h16v16H0z"/><path class="st0" d="M0 0h16v16H0z"/><path class="st1" d="M16 1H7.364L6.621.257 6 .878V0H3v.878L2.379.257 1.636 1H1v.636l-.742.743L.879 3H0v3h.879l-.621.621.742.742v.984c-.09.135-.165.28-.232.428A2.972 2.972 0 0 0 .5 10c0 .588.184 1.152.5 1.635v1.24L.219 16h3.002l.279-.838.279.838h3.002l-.5-2H16V1z"/></g><g id="icon_x5F_bg"><circle class="st2" cx="6.5" cy="10.5" r=".75"/><path class="st3" d="M9 5h3v1H9z"/><path class="st3" d="M8.363 2l.379.379L8.121 3H10v1h1V3h1v1h1V3h1v1h-1v1h1v1h-1v1h1v1h-1v1h1v1h-1v1h1v1h-1v-1h-1v1h-1v-1h-1v1H9v-1H8v1H7v-1h-.678v.001a3.185 3.185 0 0 1-.229.496l-.003.006a2.89 2.89 0 0 1-.32.452L6.031 13H15V2H8.363z"/><path class="st3" d="M8.363 7l-1 1H11V7zM5.5 10c0-.366-.105-.705-.277-1H3.5a1 1 0 1 1 0 2 1 1 0 0 1 0-2H3v-.879l-.621.621-.218-.218A1.988 1.988 0 0 0 1.5 10c0 .672.335 1.264.843 1.627L1.5 15h1l1-3 1 3h1l-.843-3.373c.508-.363.843-.955.843-1.627z"/></g><g id="icon_x5F_fg"><path class="st4" d="M5.781 12zM3 7.05zM6.09 11.503a2.89 2.89 0 0 1-.32.452l.011.045-.011-.045a3.022 3.022 0 0 0 .323-.458l-.003.006zM4 7.051z"/></g><g id="color_x5F_action"><path class="st5" d="M8 4H5.707l1.621-1.621-.707-.708L5 3.293V1H4v2.293L2.379 1.671l-.707.708L3.293 4H1v1h2.293L1.672 6.621l.707.707L4 5.707V8h1V5.707l1.621 1.621.707-.707L5.707 5H8V4zM5 5H4V4h1v1z"/><path class="st2" d="M3 5h1v1H3zM3 3h1v1H3zM3 7.037c.055-.012.242-.021.38-.028.04-.002.079-.009.12-.009H3v.037z"/><circle class="st2" cx="3.5" cy="10" r="1"/><path class="st4" d="M13 3h1v1h-1zM13 11h1v1h-1z"/><circle class="st4" cx="3.5" cy="10" r="1"/><path class="st4" d="M14 6V5h-1V4h-1V3h-1v1h-1V3H9v2h3v1H8.121l.621.621L8.363 7H11v1H7.363l-.742.742L6 8.121v.421c.217.432.34.927.34 1.458 0 .345-.337.682-.34 1h1v1h1v-1h1v1h1v-1h1v1h1v-1h1v-1h1V9h-1V8h1V7h-1V6h1z"/></g></svg>