<svg xmlns="http://www.w3.org/2000/svg" viewBox="0 0 16 16"><style>.st0{opacity:0}.st0,.st1{fill:#f6f6f6}.st2{fill:#424242}.st3{fill:#c27d1a}.st4{fill:none}.st5{fill:#f0eff1}</style><g id="outline"><path class="st0" d="M0 0h16v16H0z"/><path class="st1" d="M10.061 1H7.363L6.621.257 6 .879V0H3v.878l-.621-.62L.258 2.379.879 3H0v3h.879l-.622.622L2 8.364V13c0 1.299 1.03 2 2 2h8c1.299 0 2-1.029 2-2V4.556L10.061 1z"/></g><g id="icon_x5F_bg"><path class="st2" d="M9.705 7l-5.27 5h1.406l1.187-1H10v1h1V7H9.705zM10 10H7.968L10 8v2z"/><path class="st2" d="M9.639 2H8.363l.379.379L8.121 3H9v3h3v7H4V9H3v4c0 1 .965 1 .965 1h8c1 0 1.035-1 1.035-1V5L9.639 2z"/></g><path class="st3" d="M8 4H5.707l1.621-1.621-.707-.707L5 3.293V1H4v2.293L2.379 1.672l-.707.707L3.293 4H1v1h2.293L1.672 6.622l.707.707L4 5.708V8h1V5.708l1.621 1.621.707-.707L5.707 5H8V4zM5 5H4V4h1v1z" id="color_x5F_action"/><g id="icon_x5F_fg"><path class="st4" d="M10 10V8l-2.032 2zM4 4h1v1H4z"/><path class="st4" d="M4.436 12h1.406l1.187-1H10v1h1V7H9.705l-5.269 5zM10 10H7.968L10 8v2z"/><path class="st5" d="M10 10V8l-2.032 2z"/><path class="st5" d="M9 6h-.879l.621.621-2.121 2.122L6 8.122V9H4v4h8V6H9zm2 6h-1v-1H7.028l-1.187 1H4.436l5.27-5H11v5z"/></g></svg>