<?xml version="1.0" encoding="utf-8"?>
<!-- Generator: Adobe Illustrator 18.1.1, SVG Export Plug-In . SVG Version: 6.00 Build 0)  -->
<!DOCTYPE svg PUBLIC "-//W3C//DTD SVG 1.1//EN" "http://www.w3.org/Graphics/SVG/1.1/DTD/svg11.dtd">
<svg version="1.1" xmlns="http://www.w3.org/2000/svg" xmlns:xlink="http://www.w3.org/1999/xlink" x="0px" y="0px" width="16px"
	 height="16px" viewBox="0 0 16 16" style="enable-background:new 0 0 16 16;" xml:space="preserve">
<style type="text/css">
	.icon-canvas-transparent{opacity:0;fill:#F6F6F6;}
	.icon-vs-out{fill:#F6F6F6;}
	.icon-vs-bg{fill:#424242;}
	.icon-vs-fg{fill:#F0EFF1;}
	.icon-vs-action-orange{fill:#C27D1A;}
	.icon-git-orange{fill:#F05133;}
</style>
<g id="canvas">
	<path class="icon-canvas-transparent" d="M16,16H0V0h16V16z"/>
</g>
<g id="outline">
	<path class="icon-vs-out" d="M16,9v5H9v-1H8.642l-2.556,2.557C5.797,15.844,5.417,16,5.014,16
		c-0.404,0-0.785-0.157-1.07-0.442l-3.5-3.498c-0.59-0.594-0.589-1.555-0.001-2.144L1.998,8.36l-1.74-1.739L0.88,6H0V3h0.88
		L0.258,2.379L2.38,0.257L3,0.878V0h3v0.878l0.622-0.622l2.122,2.122L8.122,3H9v1c1,0.001,1.607,0.564,1.88,1.344
		C11.2,5.127,11.585,5,12,5h1c1.102,0,2,0.897,2,2v1c0,0.366-0.106,0.705-0.278,1H16z"/>
</g>
<g id="iconBg">
	<path class="icon-vs-bg" d="M11,8V7c0-0.553,0.448-1,1-1h1c0.552,0,1,0.447,1,1v1c0,0.553-0.448,1-1,1h-1
		C11.448,9,11,8.553,11,8z M12.5,12L11,10h-1v3h5v-3h-1L12.5,12z M7.446,7.81C7.607,7.921,7.791,8,8,8h1c0.552,0,1-0.447,1-1V6
		c0-0.553-0.448-1-1-1H8C7.448,5,7,5.447,7,6v1c0,0.21,0.079,0.393,0.19,0.554L7.446,7.81z"/>
</g>
<g id="colorAction">
	<path class="icon-vs-action-orange" d="M1.673,6.621L2.38,7.328L4,5.707v0.664C4,6.127,4.625,6,4.997,6
		C4.999,6,5,6,5,6V5.707l0.349,0.349C5.587,6.115,5.814,6.211,6,6.377V6c0-0.212,0.042-0.413,0.104-0.605L5.708,5h0.57
		C6.625,4.405,7.263,4,8,4H5.708l1.621-1.621L6.622,1.671L5,3.292V1H4v2.292L2.38,1.671L1.672,2.379L3.294,4H1v1h2.294L1.673,6.621z
		 M4.001,4h1v1h-1V4z"/>
</g>
<g id="notificationBg">
	<path class="icon-git-orange" d="M8.86,11.368l-3.481,3.481c-0.202,0.201-0.528,0.201-0.729,0l-3.499-3.497
		c-0.201-0.202-0.201-0.529,0-0.731l2.398-2.398l0.132-0.132l0.628,0.628C4.274,8.807,4.252,8.9,4.252,9
		c0,0.283,0.16,0.52,0.388,0.652v2.252c-0.228,0.133-0.388,0.369-0.388,0.652c0,0.423,0.343,0.766,0.766,0.766
		c0.423,0,0.766-0.343,0.766-0.766c0-0.283-0.16-0.52-0.388-0.652V9.805l0.687,0.687c-0.028,0.079-0.05,0.161-0.05,0.249
		c0,0.423,0.343,0.766,0.766,0.766c0.423,0,0.766-0.343,0.766-0.766c0-0.423-0.343-0.766-0.766-0.766
		c-0.089,0-0.17,0.023-0.249,0.05L5.745,9.224C5.768,9.153,5.784,9.079,5.784,9c0-0.423-0.343-0.766-0.766-0.766
		C4.94,8.234,4.87,8.257,4.8,8.278L4.147,7.626l0.485-0.485c0.202-0.202,0.529-0.202,0.73,0l3.498,3.497
		C9.061,10.84,9.061,11.166,8.86,11.368z"/>
</g>
<g id="notificationFg">
	<path class="icon-vs-fg" d="M4.309,8.719L3.681,8.092l0.466-0.466L4.8,8.278C4.87,8.257,4.94,8.234,5.018,8.234
		c0.423,0,0.766,0.343,0.766,0.766c0,0.079-0.015,0.153-0.038,0.224l0.803,0.803c0.079-0.028,0.161-0.05,0.249-0.05
		c0.423,0,0.766,0.343,0.766,0.766c0,0.423-0.343,0.766-0.766,0.766c-0.423,0-0.766-0.343-0.766-0.766
		c0-0.089,0.023-0.17,0.05-0.249L5.395,9.805v2.098c0.228,0.133,0.388,0.369,0.388,0.652c0,0.423-0.343,0.766-0.766,0.766
		c-0.423,0-0.766-0.343-0.766-0.766c0-0.283,0.16-0.52,0.388-0.652V9.652C4.413,9.519,4.252,9.283,4.252,9
		C4.252,8.9,4.274,8.807,4.309,8.719z"/>
</g>
</svg>
