<svg xmlns="http://www.w3.org/2000/svg" viewBox="0 0 16 16"><style>.st0{fill:#f6f6f6}.st1{fill:#424242}.st2{fill:#c27d1a}.st3{fill:#f0eff1}</style><path class="st0" d="M7.364 1L6.621.257 6 .878V0H3v.878L2.379.257.257 2.379.878 3H0v3h.878l-.621.621 2.122 2.121L3 8.121V9h1v4h2.001v3H16V1.017z" id="outline"/><path class="st1" d="M8.363 2l.379.379L8.121 3H14v2H9v1h5v2H7.363l-.742.742L6 8.121V9h2v2H6V9H5v3h2v3h8V2H8.363zM10 14H8v-2h2v2zm4 0h-3v-2h3v2zm0-3H9V9h5v2z" id="icon_x5F_bg"/><path class="st2" d="M8 4H5.707l1.621-1.621-.707-.708L5 3.293V1H4v2.293L2.379 1.671l-.708.708L3.293 4H1v1h2.293L1.671 6.621l.708.707L4 5.707V8h1V5.707l1.621 1.621.707-.707L5.707 5H8V4zM5 5H4V4h1v1z" id="color_x5F_action"/><g id="icon_x5F_fg"><path class="st3" d="M8 12h2v2H8zM6 9h2v2H6zM11 12h3v2h-3zM9 3h5v2H9zM9 9h5v2H9zM9 6h-.879l.621.621L7.363 8H14V6z"/></g></svg>