<svg xmlns="http://www.w3.org/2000/svg" viewBox="0 0 16 16"><style>.st0{fill:#f6f6f6}.st1{fill:#424242}.st2{fill:#c27d1a}.st3{fill:#f0eff1}</style><path class="st0" d="M9 4V3h-.879l.621-.621L6.621.257 6 .878V0H3v.878L2.379.257.257 2.379.878 3H0v13h16V4z" id="outline"/><g id="icon_x5F_bg"><circle class="st1" cx="6" cy="10" r="1"/><path class="st1" d="M10 13l3.5-3L10 7zM7.364 8H8h-.636l-.308.308C7.621 8.661 8 9.284 8 10a2 2 0 0 1-4 0c0-.366.105-.705.277-1H3v3l1 1h4l1-1V8l-.818-.818L7.364 8z"/><path class="st1" d="M9 5v1h5v8H2V8.363l-1-.999V15h14V5z"/></g><path class="st2" d="M8 4H5.707l1.621-1.621-.707-.708L5 3.293V1H4v2.293L2.379 1.671l-.708.708L3.293 4H1v1h2.293L1.671 6.621l.708.707L4 5.707V8h1V5.707l1.621 1.621.707-.707L5.707 5H8V4zM5 5H4V4h1v1z" id="color_x5F_action"/><g id="icon_x5F_fg"><path class="st3" d="M9 6h-.879l.621.621-.56.561L9 8v4l-1 1H4l-1-1V8.121l-.621.621L2 8.363V14h12V6H9zm1 7V7l3.5 3-3.5 3z"/><path class="st3" d="M7.056 8.308l-.435.434L6 8.121V9a1 1 0 1 1 0 2 1 1 0 0 1 0-2H4.277A1.977 1.977 0 0 0 4 10a2 2 0 0 0 4 0c0-.716-.379-1.339-.944-1.692z"/></g></svg>