<svg xmlns="http://www.w3.org/2000/svg" viewBox="0 0 16 16"><style>.st0{opacity:0}.st0,.st1{fill:#f6f6f6}.st2{fill:#424242}.st3{fill:#c27d1a}.st4{fill:#f0eff1}</style><g id="outline"><path class="st0" d="M0 0h16v16H0z"/><path class="st1" d="M10.986.382L8.159 1.795 6.621.257 6 .878V0H3v.878L2.379.257.257 2.379.878 3H0v3h.878l-.621.621.594.593-.138.182A3.461 3.461 0 0 0 0 9.5c0 1.156.571 2.223 1.499 2.869V14c0 1.102.897 2 2 2s2-.898 2-2v-1.63a3.492 3.492 0 0 0 1.324-1.834l2.163 1.082 7-3.5V2.882l-5-2.5z"/></g><g id="icon_x5F_bg"><path class="st2" d="M4.499 9v1h-2V8H1.51c-.317.418-.51.935-.51 1.5 0 1.024.618 1.902 1.499 2.289V14a1 1 0 1 0 2 0v-2.211A2.498 2.498 0 0 0 6 9.5c0-.172-.023-.338-.057-.5H4.499zM10.986 1.5L8 2.993V3h1v.493l1.986-.993 2 1L9 5.493V6H8v2H6.656c.219.454.344.962.344 1.5l-.001.006 1.987.994 6-3v-4l-4-2z"/></g><path class="st3" d="M8 4H5.707l1.621-1.621-.707-.708L5 3.292V1H4v2.292L2.379 1.671l-.708.708L3.292 4H1v1h2.292L1.671 6.621l.708.707L4 5.707V8h1V5.707l1.621 1.621.707-.707L5.707 5H8V4zM5 5H4V4h1v1z" id="color_x5F_action"/><path class="st4" d="M9 5.493L12.986 3.5l-2-1L9 3.493z" id="icon_x5F_fg"/></svg>