<svg xmlns="http://www.w3.org/2000/svg" viewBox="0 0 16 16"><style>.icon-canvas-transparent{opacity:0;fill:#f6f6f6}.icon-vs-out{fill:#f6f6f6}.icon-vs-bg{fill:#424242}.icon-vs-action-orange{fill:#c27d1a}.icon-vs-fg{fill:#f0eff1}</style><path class="icon-canvas-transparent" d="M16 16H0V0h16v16z" id="canvas"/><path class="icon-vs-out" d="M15.424 12.959A2 2 0 0 1 13.668 14H5.5c0 1.103-.897 2-2 2s-2-.897-2-2v-1.633A3.493 3.493 0 0 1 0 9.5c0-.873.331-1.662.861-2.275l-.604-.604L.878 6H0V3h.878l-.621-.621L2.379.257 3 .878V0h3v.878l.621-.622L8.363 2H13v3h-1v.706l3.351 5.212c.396.617.423 1.398.073 2.041z" id="outline"/><path class="icon-vs-bg" d="M6 9.5a2.498 2.498 0 0 1-1.5 2.289V14a1 1 0 1 1-2 0v-2.211A2.502 2.502 0 0 1 1 9.5c0-.598.215-1.142.565-1.571l.814.814.121-.122V10h2V9h1.444c.033.162.056.328.056.5zm8.51 1.959L11 6V4h1V3H9v1h1v2.291L11.724 9H7.276L9 6.291V6h-.879l.621.621-1.903 1.903c.094.312.161.634.161.976a3.493 3.493 0 0 1-1.5 2.867V13h8.168a1 1 0 0 0 .842-1.541z" id="iconBg"/><path class="icon-vs-fg" d="M10 4H9v2.291L7.276 9h4.448L10 6.291z" id="iconFg"/><path class="icon-vs-action-orange" d="M8 4H5.707l1.621-1.621-.707-.708L5 3.292V1H4v2.292L2.379 1.671l-.708.708L3.292 4H1v1h2.292L1.671 6.621l.708.707L4 5.707V8h1V5.707l1.621 1.621.707-.707L5.707 5H8V4zM5 5H4V4h1v1z" id="color_x5F_importance"/></svg>