<svg xmlns="http://www.w3.org/2000/svg" viewBox="0 0 16 16"><style>.st0{fill:#f6f6f6}.st1{fill:#424242}.st2{fill:#c27d1a}.st3{fill:#f0eff1}</style><path class="st0" d="M8.363 2L6.621.257 6 .878V0H3v.878L2.379.257.257 2.379.878 3H0v3h.878l-.621.621.743.743V16h15V2z" id="outline"/><path class="st1" d="M9 3v3h-.879l.621.621-2.121 2.121L6 8.121V9h8v5H3V8.121l-.621.621L2 8.363V15h13V3z" id="icon_x5F_bg"/><path class="st2" d="M8 4H5.707l1.621-1.621-.707-.708L5 3.293V1H4v2.293L2.379 1.671l-.707.708L3.293 4H1v1h2.293L1.672 6.621l.707.707L4 5.707V8h1V5.707l1.621 1.621.707-.707L5.707 5H8V4zM5 5H4V4h1v1z" id="color_x5F_action"/><path class="st3" d="M3 9h11v5H3V9z" id="icon_x5F_fg"/></svg>