<svg xmlns="http://www.w3.org/2000/svg" viewBox="0 0 16 16"><style>.st0{opacity:0}.st0,.st1{fill:#f6f6f6}.st2{fill:#424242}.st3{fill:#c27d1a}.st4{fill:#f0eff1}</style><g id="outline"><path class="st0" d="M0 0h16v16H0z"/><path class="st1" d="M9 4V3h-.879l.621-.621L6.621.257 6 .878V0H3v.878L2.379.257.258 2.379.879 3H0v3h.879l-.622.621 2.122 2.121L3 8.121V9h1v6h12V4z"/></g><path class="st2" d="M9 5v1h-.879l.621.621L8 7.363V9H5v5h10V5H9zm-1 8H6v-1h2v1zm0-2H6v-1h2v1zm3 2H9v-1h2v1zm0-2H9v-1h2v1zm0-2H9V8h2v1zm3 4h-2v-1h2v1zm0-2h-2v-1h2v1zm0-2h-2V8h2v1z" id="icon_x5F_bg"/><path class="st3" d="M8 4H5.707l1.621-1.621-.707-.708L5 3.293V1H4v2.293L2.379 1.671l-.707.708L3.293 4H1v1h2.293L1.672 6.621l.707.707L4 5.707V8h1V5.707l1.621 1.621.707-.707L5.707 5H8V4zM5 5H4V4h1v1z" id="color_x5F_action"/><path class="st4" d="M8 13H6v-1h2v1zm0-3H6v1h2v-1zm0-2H6v1h2V8zm3 4H9v1h2v-1zm0-2H9v1h2v-1zm0-2H9v1h2V8zm3 4h-2v1h2v-1zm0-2h-2v1h2v-1zm0-2h-2v1h2V8z" id="icon_x5F_fg"/></svg>