<svg xmlns="http://www.w3.org/2000/svg" viewBox="0 0 16 16"><style>.st0{opacity:0}.st0,.st1{fill:#f6f6f6}.st2{fill:none}.st3{fill:#424242}.st4{fill:#c27d1a}.st5{stroke:#424242;stroke-width:.15;stroke-miterlimit:10}.st5,.st6{fill:#f0eff1}</style><g id="outline"><path class="st0" d="M0 0h16v16H0z"/><path class="st1" d="M12.213 0H9.839L7.531 1.167l-.91-.91L6 .878V0H3v.878L2.379.257.257 2.379.878 3H0v3h.878l-.621.621.828.827a5.453 5.453 0 0 0-.612 2.509c0 3.033 2.467 5.5 5.5 5.5a5.507 5.507 0 0 0 5.467-4.912l4.314-3.164V1.869L12.213 0z"/></g><g id="icon_x5F_bg"><path class="st2" d="M6.004 10.914c.374.002.742-.01 1.118-.035.091-.43.139-.836.135-1.208a6.56 6.56 0 0 0-.046-.683c-.324.024-.642.012-.956.012h-.259c-.419 0-.822-.012-1.209-.056-.024.23-.041.49-.043.737-.004.375.024.762.079 1.153.379.045.771.074 1.181.08zM7.855 6.814a3.703 3.703 0 0 0-.646-.304c.051.107.095.233.144.347v-.043h.502zM4.042 9.676c.003-.282.022-.549.049-.81a12.725 12.725 0 0 1-1.477-.346c-.198.454-.31.955-.31 1.48 0 .088.007.174.014.26.5.168 1.097.341 1.788.467a8.405 8.405 0 0 1-.064-1.051zM7.908 8.933c.025.24.047.484.05.743.004.352-.034.727-.104 1.119a7.538 7.538 0 0 0 1.831-.555c.004-.08.012-.16.012-.24 0-.518-.108-1.009-.299-1.456a8.188 8.188 0 0 1-1.49.389zM6.891 13.584a3.699 3.699 0 0 0 2.65-2.525 8.21 8.21 0 0 1-1.855.472c-.175.629-.446 1.316-.795 2.053zM6.255 11.615c-.085 0-.173 0-.259-.002a10.988 10.988 0 0 1-1.045-.059c.154.694.402 1.407.725 2.124.107.01.214.018.324.018.021 0 .041-.003.063-.004.383-.76.674-1.457.87-2.095-.228.012-.454.018-.678.018zM2.455 11.044a3.706 3.706 0 0 0 2.396 2.468 11.05 11.05 0 0 1-.631-2.053 12.84 12.84 0 0 1-1.765-.415z"/><path class="st3" d="M10.492 9.848A4.467 4.467 0 0 0 9.343 7.02c-.06-.067-.111-.142-.175-.205a4.513 4.513 0 0 0-.918-.686l.492.492-.487.487c.303.232.581.493.798.809a7.222 7.222 0 0 1-1.255.318c-.039-.187-.091-.356-.143-.527l-.569.569c.003.015.009.025.012.04l-.053.001-.424.424-.405-.405c-.071 0-.141.006-.212.005H6V9h.255c.314 0 .632.012.956-.012.025.219.044.451.046.683.004.372-.044.778-.135 1.208-.376.025-.744.037-1.118.035-.41-.006-.802-.035-1.182-.079a7.861 7.861 0 0 1-.079-1.153c.003-.229.02-.465.041-.682h-.7c-.02.22-.039.44-.041.676-.004.342.021.694.063 1.051a12.757 12.757 0 0 1-1.788-.467c-.007-.086-.014-.172-.014-.26 0-.525.112-1.026.31-1.48.121.036.257.069.386.103v-.502l-.621.621-.514-.514A4.47 4.47 0 0 0 1.5 10a4.74 4.74 0 0 0 .067.743 4.49 4.49 0 0 0 3.696 3.691l.013.002a4.473 4.473 0 0 0 1.163.043A4.503 4.503 0 0 0 10.5 10c0-.053-.008-.102-.008-.152zm-8.037 1.196c.513.157 1.101.31 1.765.415.132.673.349 1.359.631 2.053a3.706 3.706 0 0 1-2.396-2.468zm3.608 2.648c-.022.001-.042.004-.063.004-.109 0-.217-.008-.324-.018a11.03 11.03 0 0 1-.725-2.124 11.327 11.327 0 0 0 1.304.061c.224 0 .45-.006.678-.017a13.79 13.79 0 0 1-.87 2.094zm.828-.108c.35-.737.62-1.424.795-2.054a8.144 8.144 0 0 0 1.855-.472 3.7 3.7 0 0 1-2.65 2.526zm2.794-3.344a7.551 7.551 0 0 1-1.831.555c.07-.393.108-.768.104-1.119a7.633 7.633 0 0 0-.05-.743 8.232 8.232 0 0 0 1.489-.388c.191.446.299.937.299 1.455 0 .08-.008.16-.011.24zM8.711 3l-.376-.214L8.121 3z"/><path class="st3" d="M11.041.513L8.275 1.912l.437.437 2.284-1.16 3.07 1.513-2.865 1.718L9 3.165v.691l1.995 1.114v2.755c.221.495.37 1.027.436 1.584l3.323-2.436V2.472L11.041.513zm3.149 6.086l-2.576 1.856V4.993l2.576-1.567v3.173z"/></g><path class="st4" d="M8 4H5.707l1.621-1.621-.707-.708L5 3.292V1H4v2.292L2.379 1.671l-.708.708L3.292 4H1v1h2.292L1.671 6.621l.708.707L4 5.707V8h1V5.707l1.621 1.621.707-.707L5.707 5H8V4zM5 5H4V4h1v1z" id="color_x5F_action"/><g id="icon_x5F_fg"><path class="st5" d="M14.19 6.599l-2.576 1.857V4.993l2.576-1.567z"/><path class="st6" d="M7.893 8.941a8.101 8.101 0 0 0 1.477-.385c.189.443.296.93.296 1.444 0 .08-.008.159-.012.238a7.538 7.538 0 0 1-1.816.551c.07-.391.107-.762.104-1.111a8.238 8.238 0 0 0-.049-.737zM6 13.666c-.108 0-.215-.008-.321-.018a10.981 10.981 0 0 1-.719-2.106c.333.033.68.056 1.036.058.086.002.172.002.257.002.222 0 .446-.006.672-.018a13.522 13.522 0 0 1-.862 2.078c-.022.001-.042.004-.063.004zM6.004 10.906a11.528 11.528 0 0 1-1.172-.078 7.738 7.738 0 0 1-.078-1.144c.002-.245.02-.507.043-.735.384.043.783.051 1.199.051h.257c.311 0 .627.016.948-.008.025.217.043.45.045.68.004.368-.043.772-.133 1.198-.373.026-.738.038-1.109.036zM2.484 11.035c.509.156 1.092.307 1.75.412.131.667.346 1.348.626 2.035a3.674 3.674 0 0 1-2.376-2.447zM6.883 13.555c.348-.731.615-1.412.789-2.037a8.064 8.064 0 0 0 1.84-.468 3.672 3.672 0 0 1-2.629 2.505zM4.1 9H3v-.372c-.12-.032-.246-.063-.358-.096-.197.45-.308.947-.308 1.468 0 .087.007.172.014.258.496.167 1.088.338 1.773.463a8.456 8.456 0 0 1-.063-1.043c.003-.236.022-.457.042-.678zM8.255 7.108l-.6.6c.051.171.104.34.143.527a7.23 7.23 0 0 0 1.255-.319 3.62 3.62 0 0 0-.798-.808zM9 3.856v1.541a5.51 5.51 0 0 1 1.995 2.329V4.971L9 3.856z"/><path class="st3" d="M9 3.771v.172l1.92 1.072V7.57c.053.109.104.219.15.332V4.927L9 3.771z"/><path class="st6" d="M10.995 1.188l-2.284 1.16.031.031-.407.407.376.214H9v.165l2.201 1.255 2.864-1.719z"/><g><path class="st3" d="M8.39 2.731l-.11.11.28.159h.302zM11.028 1.121l-.034-.017-2.339 1.188.087.087-.076.077 2.33-1.184 2.913 1.436L11.2 4.333 9 3.079v.172l2.164 1.234.038.022 2.902-1.741.118-.071z"/></g></g></svg>