<svg xmlns="http://www.w3.org/2000/svg" viewBox="0 0 16 16"><style>.icon-canvas-transparent{opacity:0;fill:#f6f6f6}.icon-vs-out{fill:#f6f6f6}.icon-vs-bg{fill:#424242}.icon-vs-fg{fill:#f0eff1}.icon-vs-action-orange{fill:#c27d1a}</style><path class="icon-canvas-transparent" d="M16 16H0V0h16v16z" id="canvas"/><path class="icon-vs-out" d="M16 3.552V12c-.028.825-.593 2-2.035 2H9.234c0 .337-.084.675-.259.985A1.98 1.98 0 0 1 7.233 16H1.766c-.73 0-1.38-.379-1.74-1.015-.012-.02-.015-.043-.026-.063v-1.833c.02-.039.029-.08.051-.118L2 9.723V9H1V7.363l-.742-.742L.879 6H0V3h.879l-.621-.621L2.379.257 3 .878V0h9.022L16 3.552z" id="outline"/><path class="icon-vs-bg" d="M10 5H9V4h1v1zM8 9h5V8H8v1zm-.848 1l.571 1H13v-1H7.152zm4.489-9H7.364l1 1H11v3h3v7H8.294l.572 1h5.099c1 0 1.035-1 1.035-1V4l-3.359-3zM9 6h-.879l.621.621L8.363 7H13V6H9zm-3 4V9H5v1.303L5.968 12H3.032L4 10.303V9H3v1L.909 13.485A1 1 0 0 0 1.766 15h5.468a1 1 0 0 0 .857-1.515L6 10z" id="iconBg"/><path class="icon-vs-fg" d="M14 5v7H8.294l-.571-1H13v-1H7.152L7 9.734V9h6V8H8v-.637L8.363 7H13V6H9V5h1V4H9V3h-.879l.621-.621L8.363 2H11v3h3zM3.032 12h2.936L5 10.303V9H4v1.303L3.032 12z" id="iconFg"/><path class="icon-vs-action-orange" d="M8 4H5.707l1.621-1.621-.707-.708L5 3.292V1H4v2.292L2.379 1.671l-.707.708L3.293 4H1v1h2.293L1.672 6.621l.707.707L4 5.707V8h1V5.707l1.621 1.621.707-.707L5.707 5H8V4zM5 5H4V4h1v1z" id="colorAction"/></svg>