<svg xmlns="http://www.w3.org/2000/svg" viewBox="0 0 16 16"><style>.st0{opacity:0}.st0,.st1{fill:#f6f6f6}.st2{fill:#424242}.st3{fill:#c27d1a}</style><g id="outline"><path class="st0" d="M0 0h16v16H0z"/><path class="st1" d="M15.814 8.526a3.573 3.573 0 0 0-.635-1.247 3.164 3.164 0 0 0-1.14-.895c-.452-.214-.98-.323-1.572-.323a3.829 3.829 0 0 0-1.074.15V3H9V1H7.364L6.621.257 6 .878V0H3v.878L2.379.257.257 2.379.878 3H0v3h.878l-.621.621.327.327-.002.001V9.53c-.181.228-.32.481-.415.755A3.064 3.064 0 0 0 0 11.302c0 .377.066.733.196 1.058.137.344.341.644.61.897.261.243.578.432.944.562.343.12.727.181 1.14.181.345 0 .671-.047.974-.14H6V16h3v-2.139h2.177a3.458 3.458 0 0 0 .995.139c.597 0 1.143-.107 1.623-.321a3.512 3.512 0 0 0 1.237-.914c.324-.378.572-.827.736-1.337.153-.479.231-1 .231-1.547a4.843 4.843 0 0 0-.185-1.355zm-3.337 1.964a.835.835 0 0 1-.143.298.386.386 0 0 1-.152.113.77.77 0 0 1-.305.054.624.624 0 0 1-.229-.039.403.403 0 0 1-.267-.388v-.746a.85.85 0 0 1 .053-.319.496.496 0 0 1 .292-.308.755.755 0 0 1 .283-.048c.107 0 .198.014.265.042.05.021.087.048.12.087a.55.55 0 0 1 .103.198c.037.117.056.261.056.426 0 .248-.026.46-.076.63z"/></g><g id="icon_x5F_bg"><path class="st2" d="M5.439 7.589a1.809 1.809 0 0 0-.715-.438A3.116 3.116 0 0 0 3.698 7a4.06 4.06 0 0 0-.622.05 6.565 6.565 0 0 0-.61.125 4.64 4.64 0 0 0-.523.165c-.156.06-.277.116-.361.168v1.14a3.38 3.38 0 0 1 .918-.463 3.299 3.299 0 0 1 1.058-.173c.36 0 .639.092.834.276.196.185.293.481.293.891l-1.737.229a3.03 3.03 0 0 0-.887.227 1.852 1.852 0 0 0-.604.412 1.564 1.564 0 0 0-.346.568 2.066 2.066 0 0 0-.111.687c0 .249.041.479.125.687.084.209.205.388.363.537.159.148.356.266.593.35.237.082.506.124.809.124a2.11 2.11 0 0 0 1.02-.237c.293-.158.54-.388.742-.69h.023v.788H6V9.234a2.92 2.92 0 0 0-.14-.944 1.805 1.805 0 0 0-.421-.701zm-.753 3.003c0 .193-.033.375-.099.543a1.333 1.333 0 0 1-.279.438c-.12.125-.265.224-.433.297a1.426 1.426 0 0 1-.567.108c-.151 0-.288-.021-.41-.061a.954.954 0 0 1-.311-.168.73.73 0 0 1-.268-.58c0-.131.016-.246.046-.347a.635.635 0 0 1 .166-.269.926.926 0 0 1 .328-.195c.141-.053.321-.092.542-.118l1.285-.162v.514zM14.852 8.801a2.57 2.57 0 0 0-.455-.899 2.17 2.17 0 0 0-.787-.614c-.318-.151-.699-.227-1.143-.227a2.8 2.8 0 0 0-.675.077 2.226 2.226 0 0 0-1.011.545 2.789 2.789 0 0 0-.364.423h-.024V4H9v8.861h1.393v-.713h.024c.089.121.189.234.302.338a1.97 1.97 0 0 0 .868.449c.177.044.372.065.585.065a2.97 2.97 0 0 0 1.215-.234 2.49 2.49 0 0 0 .887-.653c.239-.278.42-.608.543-.989.122-.383.183-.796.183-1.243 0-.379-.049-.74-.148-1.08zm-1.416 1.973a1.8 1.8 0 0 1-.335.655 1.39 1.39 0 0 1-.528.393 1.761 1.761 0 0 1-.695.133c-.218 0-.418-.037-.601-.111a1.398 1.398 0 0 1-.896-1.316v-.746c0-.251.04-.479.121-.683a1.492 1.492 0 0 1 .847-.872c.199-.081.419-.122.66-.122.245 0 .464.041.654.122.191.081.352.198.485.351.133.153.233.337.302.553.068.216.102.458.102.728.001.347-.038.653-.116.915zM7 2h1v13H7z"/></g><path class="st3" d="M2.024 6.268c.066-.02.12-.042.19-.06.224-.058.459-.106.706-.145.266-.042.525-.063.778-.063h.009L4 5.707v.315c.363.021.702.073 1 .172v-.487l1 1V5.293L5.707 5H6V4h-.293L6 3.707V2.292l-1 1V1H4v2.292L2.379 1.671l-.708.708L3.292 4H1v1h2.292L2.024 6.268zM4 4h1v1H4V4z" id="color_x5F_action"/></svg>