<svg xmlns="http://www.w3.org/2000/svg" viewBox="0 0 16 16"><style>.icon-canvas-transparent{opacity:0;fill:#f6f6f6}.icon-vs-out{fill:#f6f6f6}.icon-vs-bg{fill:#424242}.icon-vs-action-orange{fill:#c27d1a}.icon-vs-fg{fill:#f0eff1}</style><path class="icon-canvas-transparent" d="M16 16H0V0h16v16z" id="canvas"/><path class="icon-vs-out" d="M16 9.087v1.834c-.011.021-.015.044-.026.065A1.979 1.979 0 0 1 14.233 12h-1.267a1.98 1.98 0 0 1 .007 1.986A1.976 1.976 0 0 1 11.233 15H5.766c-.73 0-1.38-.379-1.74-1.015a1.977 1.977 0 0 1 .025-2.015L5.834 9H3v-.879l-.621.621L.257 6.621.878 6H0V3h.878l-.621-.621L2.379.257 3 .878V0h3v.878l.621-.622L8.363 2H15v3h-1v.723l1.949 3.248c.023.037.031.078.051.116z" id="outline"/><path class="icon-vs-bg" d="M12.091 12.485A1 1 0 0 1 11.234 14H5.766a1 1 0 0 1-.857-1.515L7 9v-.637l1-1v1.939L7.032 11h2.936L9 9.303V7h-.637l.379-.379L8.121 6H11v1h-1v2l2.091 3.485zm3-3L13 6V4h1V3H9v1h1v1h1V4h1v2.303L12.968 8H11v.723L12.366 11h1.868a1 1 0 0 0 .857-1.515z" id="iconBg"/><path class="icon-vs-fg" d="M11 4h1v1h-1V4zm1 2.359V8h.936L12 6.359zM9 9.303V7h-.637L8 7.363v1.939L7.032 11h2.936L9 9.303z" id="iconFg"/><g id="colorAction"><path class="icon-vs-fg" d="M11 4h1v1h-1V4zm1 2.359V8h.936L12 6.359zM9 9.303V7h-.637L8 7.363v1.939L7.032 11h2.936L9 9.303z"/><path class="icon-vs-action-orange" d="M8 4H5.707l1.621-1.621-.707-.708L5 3.293V1H4v2.293L2.379 1.671l-.708.708L3.292 4H1v1h2.292L1.671 6.621l.708.707L4 5.707V8h1V5.707l1.621 1.621.707-.707L5.707 5H8V4zM5 5H4V4h1v1z"/></g></svg>