<svg xmlns="http://www.w3.org/2000/svg" viewBox="0 0 16 16"><style>.icon-canvas-transparent{opacity:0;fill:#f6f6f6}.icon-vs-out{fill:#f6f6f6}.icon-vs-bg{fill:#424242}.icon-vs-action-orange{fill:#c27d1a}.icon-vs-fg{fill:#f0eff1}</style><path class="icon-canvas-transparent" d="M16 16H0V0h16v16z" id="canvas"/><path class="icon-vs-out" d="M14.424 13.959A2 2 0 0 1 12.668 15H4.332a1.998 1.998 0 1 1-1.682-3.082L4.525 9H3v-.879l-.621.621L.257 6.621.878 6H0V3h.878l-.621-.621L2.379.257 3 .878V0h3v.878l.621-.622 2.121 2.122L8.121 3H12v3h-1v.706l3.351 5.212c.396.617.423 1.398.073 2.041z" id="outline"/><path class="icon-vs-bg" d="M12.668 14H4.332a1 1 0 0 1-.841-1.541L5.714 9H6v-.444l.17-.264.451.451L7.874 7.49 6.276 10h4.447L9 7.291V4h2v1h-1v2l3.51 5.459A1 1 0 0 1 12.668 14z" id="iconBg"/><g id="colorImportance"><path class="icon-vs-action-orange" d="M8 4H5.707l1.621-1.621-.707-.708L5 3.292V1H4v2.292L2.379 1.671l-.708.708L3.292 4H1v1h2.292L1.671 6.621l.708.707L4 5.707V8h1V5.707l1.621 1.621.707-.707L5.707 5H8V4zM5 5H4V4h1v1z"/><path class="icon-vs-fg" d="M10.724 10H6.276l1.597-2.51.869-.869L8.121 6H9v1.291L10.724 10z"/></g></svg>