<svg xmlns="http://www.w3.org/2000/svg" viewBox="0 0 16 16"><style>.st0{opacity:0}.st0,.st1{fill:#f6f6f6}.st2{fill:#424242}.st3{fill:#c27d1a}.st4{fill:#f0eff1}</style><g id="outline"><path class="st0" d="M0 0h16v16H0z"/><path class="st1" d="M8.121 3l.621-.621L6.621.257 6 .878V0H3v.878L2.379.257.257 2.379.878 3H0v3h.878l-.621.621 2.122 2.121L3 8.121V15h6v1h7V3z"/></g><g id="icon_x5F_bg"><path class="st2" d="M5 13V9H4v5h1zM14 9v1a1 1 0 0 1-1 1h-1a1 1 0 0 1-1-1V9a1 1 0 0 1 1-1h1a1 1 0 0 1 1 1zm-6 1h1a1 1 0 0 0 1-1V8a1 1 0 0 0-1-1H8a1 1 0 0 0-1 1v1a1 1 0 0 0 1 1zm2 2v3h5v-3l-2.5 1-2.5-1zm-1.5 0L6 11v3h3v-2.334L8.5 12z"/><path class="st2" d="M9 4v2h5v1.278c.595.347 1 .985 1 1.722V4H9z"/></g><path class="st3" d="M8 4H5.707l1.621-1.621-.707-.708L5 3.293V1H4v2.293L2.379 1.671l-.708.708L3.292 4H1v1h2.292L1.671 6.621l.708.707L4 5.707V8h1V5.707l1.621 1.621.707-.707L5.707 5H8V4zM5 5H4V4h1v1z" id="color_x5F_action"/><g id="icon_x5F_fg"><path class="st4" d="M6 9H5v.523l1.292.517A1.992 1.992 0 0 1 6 9zM10.888 7.338A1.993 1.993 0 0 1 12 7h1c.366 0 .705.106 1 .278V6H9c.871 0 1.614.56 1.888 1.338z"/></g></svg>