<svg xmlns="http://www.w3.org/2000/svg" viewBox="0 0 16 16"><style>.icon-canvas-transparent{opacity:0;fill:#f6f6f6}.icon-vs-out{fill:#f6f6f6}.icon-vs-bg{fill:#424242}.icon-vs-fg{fill:#f0eff1}.icon-vs-action-orange{fill:#c27d1a}</style><path class="icon-canvas-transparent" d="M16 16H0V0h16v16z" id="canvas"/><path class="icon-vs-out" d="M16 11h-4.882l1.233 1.918A2 2 0 0 1 10.668 16H2.332A1.998 1.998 0 1 1 .65 12.918L3.168 9H3v-.879l-.621.621L.257 6.621.878 6H0V3h.878l-.621-.621L2.379.257 3 .878V0h3v.878l.621-.622.379.38V0h9v11z" id="outline"/><path class="icon-vs-bg" d="M10 3h3v2h-3V3zM9 1H8v.636l.742.743L8.121 3H9V2h5v7H9.832l.643 1H15V1H9zm2.51 12.459L8 8v-.637l-.972.972L8.724 11H4.276l1.273-2H4.357L1.49 13.459A1 1 0 0 0 2.332 15h8.337a1 1 0 0 0 .841-1.541z" id="iconBg"/><path class="icon-vs-fg" d="M14 2v7H9.832L9 7.706V7h1V5h3V3h-3v1H9V2h5zM6.621 8.742l-.582-.582L6 8.223V9h-.482l-1.241 2h4.447L7.028 8.335l-.407.407z" id="iconFg"/><path class="icon-vs-action-orange" d="M8 4H5.707l1.621-1.621-.707-.708L5 3.292V1H4v2.292L2.379 1.671l-.708.708L3.292 4H1v1h2.292L1.671 6.621l.708.707L4 5.707V8h1V5.707l1.621 1.621.707-.707L5.707 5H8V4zM5 5H4V4h1v1z" id="colorAction"/></svg>