<svg xmlns="http://www.w3.org/2000/svg" viewBox="0 0 16 16"><style>.st0{fill:#f6f6f6}.st1{fill:#424242}.st2{fill:#c27d1a}</style><path class="st0" d="M12.618 7A3.975 3.975 0 0 0 14 4c0-2.206-1.794-4-4-4a3.97 3.97 0 0 0-2.628 1.008L6.621.257 6 .878V0H3v.878L2.379.257.257 2.379.878 3H0v3h.878l-.621.621 2.122 2.121L3 8.121V9h1v7h12V7h-3.382z" id="outline"/><g id="icon_x5F_bg"><path class="st1" d="M12 8l-2 3-2-3h-.637l-.742.742L6 8.121V9H5v6h10V8zM10 1c-.735 0-1.4.275-1.922.714l.664.664L8.121 3H9v3h-.879l.621.621-.061.061C9.08 6.879 9.524 7 10 7c1.654 0 3-1.343 3-3 0-1.656-1.346-3-3-3z"/></g><path class="st2" d="M8 4H5.707l1.621-1.621-.707-.708L5 3.293V1H4v2.293L2.379 1.671l-.708.708L3.292 4H1v1h2.292L1.671 6.621l.708.707L4 5.707V8h1V5.707l1.621 1.621.707-.707L5.707 5H8V4zM5 5H4V4h1v1z" id="color_x5F_action"/></svg>