<svg xmlns="http://www.w3.org/2000/svg" viewBox="0 0 16 16"><style>.st0{opacity:0}.st0,.st1{fill:#f6f6f6}.st2{fill:#424242}.st3{fill:#c27d1a}.st4{fill:#f0eff1}</style><g id="outline"><path class="st0" d="M0 0h16v16H0z"/><path class="st1" d="M9 4V3h-.879l.621-.621L6.621.257 6 .878V0H3v.878L2.379.257.258 2.379.879 3H0v3h.879l-.622.621 2.122 2.121L3 8.121V9h2l-1.132 2.264L3.736 11H0l2.5 5h2.736L6 14.473V16h10V4z"/></g><g id="icon_x5F_bg"><path class="st2" d="M6.118 9l-2.25 4.5-.75-1.5h-1.5l1.5 3h1.5l3-6zM14 5H9v1h5v8H8v-3.527l-1 2V15h8V5z"/><path class="st2" d="M13 9a2 2 0 0 0-4 0c0 .672.334 1.264.843 1.627L9.25 13h1.083L11 11l.666 2h1.084l-.594-2.373c.51-.363.844-.955.844-1.627zm-2 1a1 1 0 1 1-.002-1.998A1 1 0 0 1 11 10z"/></g><path class="st3" d="M8 4H5.707l1.621-1.621-.707-.708L5 3.292V1H4v2.292L2.379 1.671l-.707.708L3.293 4H1v1h2.293L1.672 6.621l.707.707L4 5.707V8h1V5.707l1.621 1.621.707-.707L5.707 5H8V4zM5 5H4V4h1v1z" id="color_x5F_action"/><g id="icon_x5F_fg"><circle class="st4" cx="11" cy="9" r="1"/><path class="st4" d="M9 6h-.879l.621.621L8 7.363V8h1.236L8 10.473V14h6V6H9zm3.75 7h-1.084L11 11l-.667 2H9.25l.593-2.373A1.995 1.995 0 0 1 9 9a2 2 0 0 1 4 0c0 .672-.334 1.264-.844 1.627L12.75 13z"/></g></svg>