<svg xmlns="http://www.w3.org/2000/svg" viewBox="0 0 16 16"><style>.st0{fill:#f6f6f6}.st1{fill:#424242}.st2{fill:#c27d1a}.st3{fill:#f0eff1}</style><path class="st0" d="M14 4H9V3h-.879l.621-.621L6.621.257 6 .878V0H3v.878L2.379.257.257 2.379.878 3H0v11c0 1.102.897 2 2 2h12c1.102 0 2-.898 2-2V6c0-1.103-.898-2-2-2z" id="outline"/><path class="st1" d="M14 5H9v1h-.879l.621.621L7.363 8h.288l3.303 2L6 13V9H3v-.879l-.621.621L1 7.364V14a1 1 0 0 0 1 1h12a1 1 0 0 0 1-1V6a1 1 0 0 0-1-1z" id="icon_x5F_bg"/><path class="st2" d="M8 4H5.707l1.621-1.621-.707-.708L5 3.292V1H4v2.292L2.379 1.671l-.708.708L3.292 4H1v1h2.292L1.671 6.621l.708.707L4 5.707V8h1V5.707l1.621 1.621.707-.707L5.707 5H8V4zM5 5H4V4h1v1z" id="color_x5F_action"/><path class="st3" d="M7.651 8h-.288l-.742.742L6 8.121V13l4.954-3z" id="icon_x5F_fg"/></svg>