<svg xmlns="http://www.w3.org/2000/svg" viewBox="0 0 16 16"><style>.icon-canvas-transparent{opacity:0;fill:#f6f6f6}.icon-vs-out{fill:#f6f6f6}.icon-vs-bg{fill:#424242}.icon-vs-fg{fill:#f0eff1}.icon-vs-action-orange{fill:#c27d1a}</style><path class="icon-canvas-transparent" d="M16 16H0V0h16v16z" id="canvas"/><path class="icon-vs-out" d="M11.324 11.322l1.026 1.596A1.998 1.998 0 0 1 10.668 16H2.332A2 2 0 0 1 .65 12.919L3.168 9H3v-.879l-.621.621L.257 6.621.878 6H0V3h.878l-.621-.621L2.379.257 3 .878V0h3v.878l.621-.622.853.854.362-.157a5.473 5.473 0 0 1 7.655 4.86c.006.083.009.135.009.187a5.465 5.465 0 0 1-4.176 5.322z" id="outline"/><path class="icon-vs-bg" d="M11.51 13.459L8 8v-.637l-.972.972L8.724 11H4.276l1.273-2H4.357L1.49 13.459A1 1 0 0 0 2.332 15h8.337a1 1 0 0 0 .841-1.541zm2.982-7.612A4.496 4.496 0 0 0 10 1.5c-.63 0-1.225.135-1.766.37l.508.509-.267.267c.063-.029.122-.064.186-.089-.055.138-.104.292-.154.443H9v.854a8.076 8.076 0 0 1 .529-1.518c.155-.019.311-.032.471-.032.106 0 .21.008.313.016a6.98 6.98 0 0 1 .786 1.997c-.367.025-.978.029-1.345.025C9.58 4.34 10 4.32 9 4.31v.667c1 .005.824.023.996.023h.259c.314 0 .632.012.956-.012.025.219.044.452.046.683.004.372-.044.778-.135 1.208-.376.025-.994.037-1.368.035C9.579 6.912 10 6.891 9 6.88v.677a11.012 11.012 0 0 0 1.255.058c.224 0 .45-.006.678-.018a13.542 13.542 0 0 1-.78 1.901l.592.921C12.872 10.061 14.5 8.229 14.5 6c0-.052-.008-.102-.008-.153zM11.209 2.51c.757.262 1.4.758 1.844 1.406a7.185 7.185 0 0 1-1.255.319 7.571 7.571 0 0 0-.589-1.725zm-.318 7.074c.35-.737.62-1.424.795-2.054a8.165 8.165 0 0 0 1.856-.472 3.703 3.703 0 0 1-2.651 2.526zm2.794-3.344a7.551 7.551 0 0 1-1.831.555c.07-.393.108-.768.104-1.12a7.676 7.676 0 0 0-.05-.743 8.232 8.232 0 0 0 1.489-.388c.19.446.299.938.299 1.456 0 .08-.008.16-.011.24z" id="iconBg"/><path class="icon-vs-fg" d="M11.201 4.992c.025.217.043.45.045.68.004.368-.043.772-.133 1.198a15.25 15.25 0 0 1-1.109.036c-.175-.002-.335-.023-.504-.033V4.979c.165.007.324.021.496.021h.257c.312 0 .627.016.948-.008zm1.85-1.072a3.696 3.696 0 0 0-1.844-1.406c.234.492.451 1.063.588 1.725a7.15 7.15 0 0 0 1.256-.319zm-2.798 3.682c-.085 0-.171 0-.257-.002A10.991 10.991 0 0 1 9 7.544v.139c.003.014.008.027.012.041l1.132 1.761c.335-.683.602-1.32.781-1.902-.226.013-.45.019-.672.019zm.63 1.953a3.672 3.672 0 0 0 2.629-2.505 8.064 8.064 0 0 1-1.84.468 12.852 12.852 0 0 1-.789 2.037zM9.5 4.314c.167.011.328.03.502.032.365.004.727 0 1.094-.025a6.969 6.969 0 0 0-.785-1.997c-.104-.008-.207-.016-.312-.016-.16 0-.316.014-.471.033-.196.406-.38.92-.528 1.496V4h.5v.314zm3.869.243a8.08 8.08 0 0 1-1.477.385c.025.238.046.48.049.736.004.35-.033.721-.104 1.111a7.525 7.525 0 0 0 1.816-.551c.005-.079.013-.158.013-.238 0-.514-.107-1.001-.297-1.443zM6.621 8.742l-.582-.582L6 8.223V9h-.482l-1.241 2h4.447L7.028 8.335l-.407.407z" id="iconFg"/><path class="icon-vs-action-orange" d="M8 4H5.707l1.621-1.621-.707-.708L5 3.292V1H4v2.292L2.379 1.671l-.708.708L3.292 4H1v1h2.292L1.671 6.621l.708.707L4 5.707V8h1V5.707l1.621 1.621.707-.707L5.707 5H8V4zM5 5H4V4h1v1z" id="colorAction"/></svg>