<svg xmlns="http://www.w3.org/2000/svg" viewBox="0 0 16 16"><style>.icon-canvas-transparent{opacity:0;fill:#f6f6f6}.icon-vs-out{fill:#f6f6f6}.icon-vs-bg{fill:#424242}.icon-vs-fg{fill:#f0eff1}.icon-vs-action-orange{fill:#c27d1a}</style><path class="icon-canvas-transparent" d="M16 16H0V0h16v16z" id="canvas"/><path class="icon-vs-out" d="M16 11.089c-.02-.039-.029-.081-.052-.119L14 7.723V7h1V4H9V3h-.879l.621-.621L6.621.257 6 .878V0H3v.878L2.379.257.257 2.379.878 3H0v3h.878l-.621.621 2.122 2.121L3 8.121V9h.018v1.018H1V14h2.018v2H7v-2h7.233c.73 0 1.381-.379 1.741-1.015.011-.02.015-.042.025-.063v-1.833zM9 7.723l-1.377 2.294H7V8.363L8.363 7H9v.723z" id="outline"/><path class="icon-vs-bg" d="M7.037 13H6v2H4.018v-2H2v-1.982h2.018V9H6v2.018h1.031a1.973 1.973 0 0 0-.005 1.968l.011.014zM13 8V6h1V5H9v1h1v2l-2.091 3.485A1 1 0 0 0 8.766 13h5.468a1 1 0 0 0 .857-1.515L13 8zm-2.968 2L11 8.303V6h1v2.303L12.968 10h-2.936z" id="iconBg"/><path class="icon-vs-fg" d="M12 8.303L12.968 10h-2.936L11 8.303V6h1v2.303z" id="iconFg"/><path class="icon-vs-action-orange" d="M8 4H5.707l1.621-1.621-.707-.708L5 3.292V1H4v2.292L2.379 1.671l-.708.708L3.292 4H1v1h2.292L1.671 6.621l.708.707L4 5.707V8h1V5.707l1.621 1.621.707-.707L5.707 5H8V4zM5 5H4V4h1v1z" id="colorAction"/></svg>