<svg xmlns="http://www.w3.org/2000/svg" viewBox="0 0 16 16"><style>.st0{fill:#f6f6f6}.st1{fill:#424242}.st2{fill:#c27d1a}.st3{stroke:#424242;stroke-width:.15;stroke-miterlimit:10}.st3,.st4{fill:#f0eff1}</style><path class="st0" d="M16 12.5V9h-2.454l2.209-1.619V1.868L12.214 0H9.838L7.53 1.166l-.909-.91L6 .878V0H3v.878L2.379.257.257 2.379.878 3H0v3h.878l-.621.621.736.736a5.464 5.464 0 0 0-.97 3.617c.01.113.025.227.042.338l.001.124.034.083c.424 2.265 2.218 4.026 4.462 4.394l.111.022h.021a5.01 5.01 0 0 0 1.343.039 5.47 5.47 0 0 0 3.39-1.633L11.086 16h4.328l-1.127-1.127A2.505 2.505 0 0 0 16 12.5zM13 11h-1.914l-.146.146c.025-.213.06-.425.06-.646a.303.303 0 0 0-.002-.031l.293.185L13 9.4V11z" id="outline"/><g id="icon_x5F_bg"><path class="st1" d="M14 12.5c0 .275-.225.5-.5.5H12l1-1h-1.5L10 13.5l1.5 1.5H13l-1-1h1.5c.827 0 1.5-.673 1.5-1.5V10h-1v2.5zM9.992 10.348a4.476 4.476 0 0 0-1.66-3.317l-.56.56c.3.234.564.511.78.826a7.28 7.28 0 0 1-1.254.318c-.039-.187-.096-.351-.146-.524l-.531.531-.066-.066c.012.05.033.089.044.141-.201.013-.4.01-.599.013V9H3v-.488c-.104-.025-.218-.046-.318-.073l-.303.303-.663-.662A4.473 4.473 0 0 0 1 10.5a4.74 4.74 0 0 0 .067.743 4.49 4.49 0 0 0 3.696 3.691l.013.002a4.473 4.473 0 0 0 1.163.043A4.503 4.503 0 0 0 10 10.5c0-.053-.008-.102-.008-.152zm-5.705-.904c.387.044.789.056 1.209.056h.259c.314 0 .632.012.956-.012.025.219.044.451.046.683.004.372-.044.778-.135 1.208-.376.025-.744.037-1.118.035-.41-.006-.803-.035-1.182-.079a7.722 7.722 0 0 1-.035-1.891zM1.804 10.5a3.7 3.7 0 0 1 .31-1.48c.44.131.932.254 1.479.346a8.394 8.394 0 0 0-.049.811c-.004.342.021.694.063 1.051a12.757 12.757 0 0 1-1.788-.467 2.834 2.834 0 0 1-.015-.261zm.151 1.044c.514.157 1.102.31 1.765.415.132.673.349 1.359.632 2.053a3.703 3.703 0 0 1-2.397-2.468zm3.608 2.648c-.021.001-.041.004-.063.004-.109 0-.217-.008-.324-.018-.322-.717-.57-1.43-.725-2.124a11.327 11.327 0 0 0 1.304.061c.224 0 .45-.006.678-.017a13.79 13.79 0 0 1-.87 2.094zm.828-.108c.35-.737.62-1.424.795-2.054a8.144 8.144 0 0 0 1.855-.472 3.7 3.7 0 0 1-2.65 2.526zm2.793-3.344a7.532 7.532 0 0 1-1.83.555c.07-.393.108-.768.104-1.119a7.633 7.633 0 0 0-.05-.743 8.07 8.07 0 0 0 1.489-.388c.191.445.298.937.298 1.455 0 .08-.007.16-.011.24zM8.712 3l-.376-.215L8.121 3z"/><path class="st1" d="M11.041.512L8.274 1.911l.437.437 2.284-1.16 3.07 1.513-2.864 1.719L9 3.164v.692l1.995 1.115v3.573l-.024.018v.016l-.01-.008-.008.008v-.016l-.423-.276c.127.287.227.587.304.897l.414.261 3.507-2.57V2.471L11.041.512zm3.149 6.087l-2.576 1.856V4.992l2.576-1.566v3.173z"/></g><path class="st2" d="M8 4H5.707l1.621-1.621-.707-.708L5 3.292V1H4v2.292L2.379 1.671l-.708.708L3.292 4H1v1h2.292L1.671 6.621l.708.707L4 5.707V8h1V5.707l1.621 1.621.707-.707L5.707 5H8V4zM5 5H4V4h1v1z" id="color_x5F_action"/><g id="icon_x5F_fg"><path class="st3" d="M14.19 6.599l-2.576 1.856V4.992l2.576-1.566z"/><path class="st4" d="M7.393 9.441a8.101 8.101 0 0 0 1.477-.385c.189.442.297.93.297 1.443 0 .08-.008.159-.012.238a7.538 7.538 0 0 1-1.816.551c.07-.391.107-.762.104-1.111a8.624 8.624 0 0 0-.05-.736zM5.5 14.166c-.108 0-.215-.008-.321-.018a10.981 10.981 0 0 1-.719-2.106c.333.033.68.056 1.036.058.086.002.172.002.257.002.222 0 .446-.006.672-.018a13.522 13.522 0 0 1-.862 2.078c-.022.001-.042.004-.063.004zM5.504 11.406a11.528 11.528 0 0 1-1.172-.078 7.738 7.738 0 0 1-.078-1.144c.002-.245.02-.507.043-.735.384.043.783.051 1.199.051h.257c.312 0 .627.016.948-.008.025.217.043.45.045.68.004.368-.043.772-.133 1.198-.373.026-.738.038-1.109.036zM1.834 10.5c0-.521.111-1.018.308-1.468.437.129.924.251 1.466.343-.026.26-.046.523-.049.803-.004.34.021.689.063 1.043a12.58 12.58 0 0 1-1.773-.463 2.769 2.769 0 0 1-.015-.258zM1.984 11.535c.509.156 1.092.307 1.75.412.131.667.346 1.348.626 2.035a3.674 3.674 0 0 1-2.376-2.447zM6.383 14.055c.348-.731.615-1.412.789-2.037a8.064 8.064 0 0 0 1.84-.468 3.672 3.672 0 0 1-2.629 2.505zM3 8.121l-.318.318c.1.027.214.048.318.073v-.391zM6 8.121v.709c.199-.003.398 0 .599-.014-.011-.052-.032-.09-.044-.141L6 8.121zM7.773 7.59l-.621.621c.05.173.107.337.146.524a7.321 7.321 0 0 0 1.255-.319 3.73 3.73 0 0 0-.78-.826zM10.995 1.188l-2.284 1.16.031.031-.406.406.376.215H9v.164l2.201 1.256 2.864-1.719z"/><g><path class="st1" d="M8.391 2.73l-.11.11.28.16h.303zM11.028 1.121l-.034-.017-2.339 1.188.087.087-.075.075 2.329-1.182 2.913 1.436L11.2 4.333 9 3.078v.172l2.164 1.235.038.022 2.902-1.741.118-.071z"/></g><path class="st4" d="M9 3.856V6h-.352a5.517 5.517 0 0 1 1.882 2.286l.423.275v.016l.008-.008.01.008v-.015l.024-.018V4.971L9 3.856z"/><path class="st1" d="M9 3.77v.172l1.92 1.073v3.437l-.452-.295c.04.084.082.168.117.256l.294.191.007.146.084-.084.076.052V8.6l.024-.018V4.927L9 3.77z"/></g></svg>