<svg xmlns="http://www.w3.org/2000/svg" viewBox="0 0 16 16"><style>.icon-canvas-transparent{opacity:0;fill:#f6f6f6}.icon-vs-out{fill:#f6f6f6}.icon-vs-bg{fill:#424242}.icon-vs-fg{fill:#f0eff1}.icon-vs-action-green{fill:#388a34}.icon-vs-action-orange{fill:#c27d1a}</style><path class="icon-canvas-transparent" d="M16 16H0V0h16v16z" id="canvas"/><path class="icon-vs-out" d="M16 4v.473l-1 2V16H3.01c-.012.011-.012-3.587-.008-7H3v-.879l-.621.621L.257 6.621.878 6H0V3h.878l-.621-.621L2.379.257 3 .878V0h3v.878l.621-.622.417.417A3.381 3.381 0 0 1 9.02 0c1.305 0 2.578.836 2.99 2H13v1h2v1h1z" id="outline"/><g id="iconBg"><path class="icon-vs-bg" d="M12 3v1l-.5 1H9V3.996c.007 0 .013.004.02.004.553 0 .99-.447.99-1s-.447-1-1-1a.974.974 0 0 0-.496.151l-.724-.725A1.979 1.979 0 0 1 9.01 1a2 2 0 0 1 2 2H12z"/><path class="icon-vs-action-orange" d="M14 9.958V15H4V9h1v5h8v-3.527z"/></g><path class="icon-vs-fg" d="M8.121 3l.621-.621-.237-.237A1.08 1.08 0 0 1 9.01 2 1 1 0 1 1 9 4V3h-.879zM5 9v5h3L5.5 9H5zm6.236 5H13v-3.527L11.236 14zM9 5v1h-.879l.621.621L7.363 8h1.873l.382.764L11.5 5H9z" id="iconFg"/><path class="icon-vs-action-green" d="M14.618 5l-4.181 8H8.75L6.618 9H8.5l1.118 2.375 3-6.375h2z" id="colorImportance"/><g id="colorAction"><path class="icon-vs-action-orange" d="M8 4H5.707l1.621-1.621-.707-.708L5 3.292V1H4v2.292L2.379 1.671l-.708.708L3.292 4H1v1h2.292L1.671 6.621l.708.707L4 5.707V8h1V5.707l1.621 1.621.707-.707L5.707 5H8V4zM5 5H4V4h1v1z"/></g></svg>