<svg xmlns="http://www.w3.org/2000/svg" viewBox="0 0 16 16"><style>.icon-canvas-transparent{opacity:0;fill:#f6f6f6}.icon-vs-out{fill:#f6f6f6}.icon-vs-bg{fill:#424242}.icon-vs-fg{fill:#f0eff1}.icon-vs-action-orange{fill:#c27d1a}</style><path class="icon-canvas-transparent" d="M16 0v16H0V0h16z" id="canvas"/><path class="icon-vs-out" d="M16 8.277v3.419A6.2 6.2 0 0 1 11.752 16H8.675c-2.473-.523-4.414-2.476-4.835-5.015-.028-.173-.051-.308-.064-.468a5.657 5.657 0 0 1-.026-.528c0-.338.034-.666.086-.989H3v-.879l-.621.621L.257 6.621.878 6H0V3h.878l-.621-.621L2.379.257 3 .878V0h3v.878l.621-.622 2.121 2.122L8.121 3H9v.832a6.218 6.218 0 0 1 1-.087c2.862 0 5.257 1.9 6 4.532z" id="outline"/><path class="icon-vs-fg" d="M12.099 7.942a8.766 8.766 0 0 0-.688-2.013 4.307 4.307 0 0 1 2.151 1.641c-.515.177-1 .3-1.463.372zm-.818.094a8.137 8.137 0 0 0-.915-2.33A4.418 4.418 0 0 0 10 5.688c-.187 0-.369.016-.549.039A9.112 9.112 0 0 0 8.7 7.982c.419.048.854.078 1.304.083.428.004.85 0 1.277-.029zm2.683.265a9.452 9.452 0 0 1-1.737.453 6.907 6.907 0 0 1-.063 2.174 8.864 8.864 0 0 0 2.136-.647c.006-.093.014-.186.014-.28a4.31 4.31 0 0 0-.35-1.7zm-3.666 3.584c-.101 0-.201 0-.302-.002-.42-.004-.827-.029-1.22-.068.18.81.469 1.642.846 2.478.124.012.251.02.378.02.025 0 .049-.003.074-.004.445-.887.785-1.701 1.014-2.444-.266.012-.529.02-.79.02zm-.294-.82c.438.003.867-.003 1.306-.034.105-.5.161-.969.157-1.402a7.892 7.892 0 0 0-.053-.784c-.379.028-.75.04-1.116.04-.101 0-.201 0-.302-.002-.489-.005-.96-.039-1.412-.09-.027.27-.047.547-.051.836-.004.438.029.888.093 1.345.442.051.901.086 1.378.091zm-4.139.154a4.32 4.32 0 0 0 2.794 2.879c-.33-.809-.582-1.61-.736-2.396-.775-.124-1.46-.3-2.058-.483zm5.173 2.963a4.318 4.318 0 0 0 3.093-2.946 9.548 9.548 0 0 1-2.164.551c-.204.734-.52 1.534-.929 2.395zM8.432 6h-.028c-.066.026-.127.062-.192.091l.14.139c.027-.074.051-.159.08-.23zm-.419 1.35l-.449.449c.109.021.212.046.325.066.034-.183.082-.344.124-.515zm-.296 2.271c.003-.328.025-.64.058-.943a13.955 13.955 0 0 1-.904-.185l-.25.25-.431-.432c-.045-.013-.097-.024-.141-.038-.021.049-.029.103-.049.152V9h-.185a4.28 4.28 0 0 0-.128 1c0 .102.008.202.016.303.583.197 1.28.398 2.087.545a9.69 9.69 0 0 1-.073-1.227z" id="iconFg"/><path class="icon-vs-bg" d="M15.241 9.822A5.246 5.246 0 0 0 10 4.75c-.343 0-.676.038-1 .101V6h-.568c-.028.071-.053.156-.08.23l.391.391-.73.729c-.042.171-.09.332-.125.515-.113-.02-.216-.044-.325-.066l-.692.694c.286.068.586.131.904.185a9.455 9.455 0 0 0-.058.943c-.005.4.025.811.073 1.227a14.585 14.585 0 0 1-2.087-.545A3.817 3.817 0 0 1 5.688 10c0-.346.051-.678.128-1h-.965a5.225 5.225 0 0 0-.101 1 5.205 5.205 0 0 0 .075.851l.002.014a5.245 5.245 0 0 0 4.724 4.363 5.094 5.094 0 0 0 .963-.003A5.25 5.25 0 0 0 15.25 10c0-.061-.008-.118-.009-.178zM13.562 7.57c-.515.177-1 .3-1.463.372a8.766 8.766 0 0 0-.688-2.013 4.31 4.31 0 0 1 2.151 1.641zM9.451 5.727c.18-.024.362-.039.549-.039.124 0 .245.008.366.019.351.608.708 1.384.915 2.33-.428.029-.85.033-1.277.029A12.699 12.699 0 0 1 8.7 7.982c.175-.911.464-1.66.751-2.255zm-.867 3.066c.452.051.923.085 1.412.09.101.002.201.002.302.002.366 0 .737-.012 1.116-.04.028.254.049.513.053.784.004.434-.052.902-.157 1.402-.438.031-.868.037-1.306.034a12.92 12.92 0 0 1-1.378-.092 9.257 9.257 0 0 1-.093-1.345 9.7 9.7 0 0 1 .051-.835zm-2.719 2.426c.598.183 1.283.359 2.058.483.154.785.406 1.587.736 2.396a4.321 4.321 0 0 1-2.794-2.879zm4.209 3.09c-.025.001-.049.004-.074.004-.127 0-.254-.008-.378-.02a12.885 12.885 0 0 1-.846-2.478c.393.039.8.064 1.22.068.101.002.201.002.302.002.261 0 .524-.008.79-.021-.229.743-.569 1.558-1.014 2.445zm.964-.127c.409-.86.725-1.661.929-2.396a9.548 9.548 0 0 0 2.164-.551 4.318 4.318 0 0 1-3.093 2.947zm3.261-3.902a8.806 8.806 0 0 1-2.136.647 6.907 6.907 0 0 0 .063-2.174 9.452 9.452 0 0 0 1.737-.453c.224.521.349 1.096.349 1.699.001.096-.007.189-.013.281z" id="iconBg"/><g id="colorAction"><path class="icon-vs-action-orange" d="M8 4H5.707l1.621-1.621-.707-.708L5 3.293V1H4v2.293L2.379 1.671l-.707.708L3.293 4H1v1h2.293L1.672 6.621l.707.707L4 5.707V8h1V5.707l1.621 1.621.707-.707L5.707 5H8V4zM5 5H4V4h1v1z"/></g></svg>