<svg xmlns="http://www.w3.org/2000/svg" viewBox="0 0 16 16"><style>.st0{opacity:0}.st0,.st1{fill:#f6f6f6}.st2{fill:#00539c}.st3{fill:#424242}.st4{fill:#f0eff1}</style><g id="outline"><path class="st0" d="M0 0h16v16H0z"/><path class="st1" d="M16 10a6 6 0 1 1-12 0c0-.702.127-1.374.349-2H0l2-2H0V2h2L0 0h6l4 4a6 6 0 0 1 6 6z"/></g><path class="st2" d="M5 1H3l2 2H1v2h4L3 7h2l3-3z" id="color_x5F_action"/><path class="st3" d="M10 5c-.396 0-.775.057-1.144.144L6 8h-.578A4.959 4.959 0 0 0 5 10a5 5 0 0 0 5 5 5 5 0 0 0 5-5 5 5 0 0 0-5-5zm3 7l-1 1-2-2-2 2-1-1 2-2.027L7 8l1-1 2 2 2-2 1 1-2 1.973L13 12z" id="not_x5F_bg"/><path class="st4" d="M11 9.973L13 12l-1 1-2-2-2 2-1-1 2-2.027L7 8l1-1 2 2 2-2 1 1-2 1.973z" id="not_x5F_fg"/></svg>