<svg xmlns="http://www.w3.org/2000/svg" viewBox="0 0 30 18"><style>.icon-vs-fg{fill:#f0eff1}.icon-vs-bg{fill:#424242}.icon-vs-out{fill:#f6f6f6}</style><path class="icon-vs-out" d="M21.144 12.32l-3.807 3.807-3.464-3.464 3.807-3.807-3.807-3.806 3.464-3.464 3.807 3.807 3.807-3.807 3.464 3.464-3.807 3.807 3.807 3.807-3.464 3.464-3.807-3.808zM0 15V3h12v12H0z" id="outline"/><path class="icon-vs-bg" d="M1 4v10h10V4H1zm9 9H2V5h8v8zM8 7H4v4h4V7zm15.193 1.857L27 12.664l-2.05 2.05-3.807-3.807-3.807 3.807-2.05-2.05 3.807-3.807-3.806-3.807L17.337 3l3.807 3.807L24.95 3 27 5.05l-3.807 3.807z" id="icon_x5F_bg"/><path class="icon-vs-fg" d="M10 13H2V5h8v8zM8 7H4v4h4V7z" id="icon_x5F_fg"/></svg>