<svg xmlns="http://www.w3.org/2000/svg" viewBox="0 0 16 16"><style>.st0{opacity:0}.st0,.st1{fill:#f6f6f6}.st2{fill:#f0eff1}.st3{fill:#424242}</style><g id="outline"><path class="st0" d="M0 0h16v16H0z"/><path class="st1" d="M4 16c-.971 0-2-.701-2-2V2C2 .701 3.029 0 4 0h7.061L15 3.556V14c0 .97-.701 2-2 2H4z"/></g><g id="icon_x5F_bg"><path class="st2" d="M10 5V2H4v12h9V5h-3zm-4 8H5v-1h1v1zm0-2H5v-1h1v1zm2 2H7v-1h1v1zm0-2H7v-1h1v1zm2 2H9v-1h1v1zm0-2H9v-1h1v1zm2 2h-1v-1h1v1zm0-2h-1v-1h1v1z"/><path class="st3" d="M10.641 1H3.963S3 1 3 2v12c0 1 .965 1 .965 1h9c1 0 1.035-1 1.035-1V4l-3.359-3zM13 14H4V2h6v3h3v9z"/><path class="st3" d="M5 12h1v1H5zM9 12h1v1H9zM7 12h1v1H7zM11 12h1v1h-1zM7 10h1v1H7zM11 10h1v1h-1zM9 10h1v1H9zM5 10h1v1H5z"/></g></svg>