<svg xmlns="http://www.w3.org/2000/svg" viewBox="0 0 16 16"><style>.icon-canvas-transparent{opacity:0;fill:#f6f6f6}.icon-vs-out{fill:#f6f6f6}.icon-vs-bg{fill:#424242}.icon-vs-fg{fill:#f0eff1}</style><path class="icon-canvas-transparent" d="M16 16H0V0h16v16z" id="canvas"/><path class="icon-vs-out" d="M0 8a8 8 0 1 1 16 0A8 8 0 0 1 0 8z" id="outline"/><path class="icon-vs-fg" d="M14 8A6 6 0 1 1 2 8a6 6 0 0 1 12 0z" id="iconFg"/><g id="iconBg"><path class="icon-vs-bg" d="M8 1a7 7 0 1 0 0 14A7 7 0 0 0 8 1zm0 13A6 6 0 1 1 8 2a6 6 0 0 1 0 12z"/></g></svg>