<svg xmlns="http://www.w3.org/2000/svg" viewBox="0 0 16 16"><style>.icon-canvas-transparent{opacity:0;fill:#f6f6f6}.icon-vs-out{fill:#f6f6f6}.icon-vs-bg{fill:#424242}.icon-vs-fg{fill:#f0eff1}.icon-vs-red{fill:#e51400}.icon-vs-action-blue{fill:#00539c}</style><path class="icon-canvas-transparent" d="M16 16H0V0h16v16z" id="canvas"/><path class="icon-vs-out" d="M16 13H8.725c-.62 1.744-2.269 3-4.225 3A4.5 4.5 0 0 1 0 11.5c0-1.956 1.256-3.604 3-4.225V0h13v13z" id="outline"/><path class="icon-vs-bg" d="M5 5H4V1h4v1H5v3zm6-4v1h3v3h1V1h-4zm3 10h-3v1h4V8h-1v3z" id="iconBg"/><path class="icon-vs-fg" d="M11 3v3H8V3h1v2h1V3h1zm-9 9h5v-1H2v1z" id="iconFg"/><path class="icon-vs-red" d="M4.5 8a3.5 3.5 0 1 0 0 7 3.5 3.5 0 0 0 0-7zM7 12H2v-1h5v1z" id="colorAction"/><path class="icon-vs-action-blue" d="M10 5H9V3h1v2zm3 0l-2-2v3H8V3H6v4.275A4.491 4.491 0 0 1 8.725 10H13V5z" id="colorImportance"/></svg>