<svg xmlns="http://www.w3.org/2000/svg" viewBox="0 0 16 16"><style>.icon-canvas-transparent{opacity:0;fill:#f6f6f6}.icon-vs-out{fill:#f6f6f6}.icon-vs-bg{fill:#424242}.icon-vs-fg{fill:#f0eff1}.icon-vs-action-red{fill:#a1260d}</style><path class="icon-canvas-transparent" d="M16 16H0V0h16v16z" id="canvas"/><path class="icon-vs-out" d="M16 10.535l-1.495 1.495L16 13.525v.949L14.475 16h-.949l-1.495-1.495L10.535 16h-.949l-2-2H1.965C1.012 14 0 13.299 0 12V2C0 .701 1.012 0 1.964 0h6.058L12 3.552v5.973l.03.03L14 7.586l2 2v.949z" id="outline"/><path class="icon-vs-bg" d="M8.586 13H1.965S1 13 1 12V2c0-1 .964-1 .964-1h5.677L11 4v4.525l-.939-.939-.061.06V5H7V2H2v10h7.525l.03.03-.969.97z" id="iconBg"/><path class="icon-vs-fg" d="M7.602 12H2V2h5v3h3v2.646L7.586 10.06 9.525 12H7.602z" id="iconFg"/><path class="icon-vs-action-red" d="M13.091 12.03l1.97 1.97L14 15.061l-1.97-1.97-1.97 1.97L9 14l1.97-1.97L9 10.061 10.061 9l1.97 1.97L14 9l1.061 1.061-1.97 1.969z" id="colorAction"/></svg>