<svg xmlns="http://www.w3.org/2000/svg" viewBox="0 0 16 16"><style>.icon-canvas-transparent{opacity:0;fill:#f6f6f6}.icon-vs-out{fill:#f6f6f6}.icon-vs-fg{fill:#f0eff1}.icon-vs-green{fill:#393}.icon-vs-action-red{fill:#a1260d}</style><path class="icon-canvas-transparent" d="M16 16H0V0h16v16z" id="canvas"/><path class="icon-vs-out" d="M7.04 11.896A5.725 5.725 0 0 1 6 12c-.372 0-.755-.038-1.141-.114l-.099-.017a5.926 5.926 0 0 1-.957-.296A5.981 5.981 0 0 1 .669 8.712l-.031-.061a6.304 6.304 0 0 1-.471-1.286 5.752 5.752 0 0 1-.066-.345A5.521 5.521 0 0 1 0 6c0-3.309 2.691-6 6-6s6 2.691 6 6c0 .372-.038.755-.114 1.141l-.017.099a5.988 5.988 0 0 1-.296.957c-.083.21-.196.403-.301.601l.758.758L14 7.586l2 2v.949l-1.495 1.495L16 13.525v.949L14.475 16h-.949l-1.495-1.495L10.535 16h-.949l-2-2 1.97-1.97-.749-.749-.001.001-.183.182h-.189a6.115 6.115 0 0 1-1.071.369 6.278 6.278 0 0 1-.323.063z" id="outline"/><path class="icon-vs-green" d="M8.056 10.531l-.47-.47 2.475-2.475.469.469c.035-.077.083-.146.114-.225a4.91 4.91 0 0 0 .247-.797c.006-.028.008-.057.014-.085A4.94 4.94 0 0 0 11 6c0-2.762-2.238-5-5-5S1 3.238 1 6c0 .289.035.568.085.841.016.096.032.191.054.286.049.201.111.398.183.589a4.982 4.982 0 0 0 .214.495 4.992 4.992 0 0 0 2.635 2.433c.257.102.522.189.797.247.028.006.057.008.085.014.307.06.622.095.947.095.289 0 .567-.035.841-.085.096-.016.192-.032.286-.054.201-.049.398-.11.589-.183.117-.042.228-.095.34-.147zm-.902-3.377l-1.33 1.14-.699.599L5 9V3l3.5 3-1.346 1.154z" id="iconBg"/><path class="icon-vs-fg" d="M5 3l3.5 3L5 9V3z" id="iconFg"/><path class="icon-vs-action-red" d="M13.091 12.03l1.97 1.97L14 15.061l-1.97-1.97-1.97 1.97L9 14l1.97-1.97L9 10.061 10.061 9l1.97 1.97L14 9l1.061 1.061-1.97 1.969z" id="colorAction"/></svg>