<svg xmlns="http://www.w3.org/2000/svg" viewBox="0 0 16 16"><style>.st0{fill:#f6f6f6}.st1{fill:#424242}.st2{fill:#f0eff1}.st3{fill:#e51400}.st4{fill:#fff}</style><path class="st0" d="M2.063 0L0 2.046V10.8L2.061 13H4v3h2.486l1.298-1.965A4.5 4.5 0 0 0 16 11.5c0-.21-.034-.41-.061-.612l.061-.06v-8.81L13.765 0H2.063z" id="outline"/><g id="icon_x5F_bg"><path class="st1" d="M5.535 5H10V4H5.535l1-1h-1L4.051 4.5 5.535 6h1z"/><path class="st1" d="M7.001 11.517L6 13.482V11H2.887L2 9.979V2.87L2.887 2h10.081L14 2.87v4.89a4.5 4.5 0 0 1 1 .943V2.46L13.378 1H2.477L1 2.46v7.928L2.477 12H5v3h.938l1.333-2.018a4.426 4.426 0 0 1-.27-1.465z"/><path class="st1" d="M11.5 7c.018 0 .033.005.051.005L10.535 6h-1l1 1H6v1h2.703c.771-.616 1.735-1 2.797-1z"/></g><path class="st2" d="M7.005 11.555c0-.019-.005-.036-.005-.055 0-1.423.673-2.675 1.703-3.5H6V7h4.535l-1-1h1l1.016 1.005A4.484 4.484 0 0 1 14 7.76V2.896L12.994 2H2.913L2 2.896v7.109l.913.995H6v2.509l1.005-1.954zM5.535 6L4.051 4.5 5.535 3h1l-1 1H10v1H5.535l1 1h-1z" id="icon_x5F_fg"/><path class="st3" d="M11.5 8a3.5 3.5 0 1 0 0 7 3.5 3.5 0 0 0 0-7zm1.854 4.646l-.707.707-1.147-1.146-1.146 1.147-.707-.707 1.147-1.146-1.147-1.146.707-.707 1.146 1.147 1.146-1.147.707.707-1.146 1.145 1.147 1.146z" id="not_x5F_bg"/><path class="st4" d="M13.354 10.354l-.708-.708-1.146 1.147-1.146-1.147-.708.708 1.147 1.146-1.147 1.146.708.708 1.146-1.147 1.146 1.147.708-.708-1.147-1.146z" id="not_x5F_fg"/></svg>