<?xml version="1.0" encoding="utf-8"?>
<!-- Generator: Adobe Illustrator 18.1.1, SVG Export Plug-In . SVG Version: 6.00 Build 0)  -->
<!DOCTYPE svg PUBLIC "-//W3C//DTD SVG 1.1//EN" "http://www.w3.org/Graphics/SVG/1.1/DTD/svg11.dtd">
<svg version="1.1" xmlns="http://www.w3.org/2000/svg" xmlns:xlink="http://www.w3.org/1999/xlink" x="0px" y="0px" width="16px"
	 height="16px" viewBox="0 0 16 16" style="enable-background:new 0 0 16 16;" xml:space="preserve">
<style type="text/css">
	.icon-canvas-transparent{opacity:0;fill:#F6F6F6;}
	.icon-vs-out{fill:#F6F6F6;}
	.icon-vs-bg{fill:#424242;}
	.icon-vs-fg{fill:#F0EFF1;}
</style>
<g id="canvas">
	<path class="icon-canvas-transparent" d="M16,16H0V0h16V16z"/>
</g>
<g id="outline">
	<path class="icon-vs-out" d="M4,16v-3H2.061L0,10.8V2.046L2.063,0h11.702L16,2.018v8.81L13.767,13H8.468l-1.982,3H4z"
		/>
</g>
<g id="iconBg">
	<path class="icon-vs-bg" d="M13.378,1H2.477L1,2.46v7.928L2.477,12H5v3h0.938l1.982-3h5.458L15,10.388V2.46L13.378,1z
		 M14,9.979L12.968,11H7.265L6,13.482V11H2.887L2,9.979V2.87L2.887,2h10.081L14,2.87V9.979z M10.535,6l1.516,1.5L10.535,9h-1l1-1H6
		V7h4.535l-1-1H10.535z M6.535,6h-1L4.051,4.5L5.535,3h1l-1,1H10v1H5.535L6.535,6z"/>
</g>
<g id="iconFg">
	<path class="icon-vs-fg" d="M12.994,2H2.913L2,2.896v7.109L2.913,11H6v2.509L7.291,11h5.704L14,10.005V2.896L12.994,2z
		 M5.535,6L4.051,4.5L5.535,3h1l-1,1H10v1H5.535l1,1H5.535z M10.535,9h-1l1-1H6V7h4.535l-1-1h1l1.516,1.5L10.535,9z"/>
</g>
</svg>
