<svg xmlns="http://www.w3.org/2000/svg" viewBox="0 0 16 16"><style>.st0{fill:#f6f6f6}.st1{fill:none}.st2{fill:#424242}.st3{fill:#f0eff1}.st4{fill:#e51400}.st5{fill:#fff}</style><path class="st0" d="M16 2.001L13.765 0H4.063L2 2.062 0 4.029v6.681L2.061 13H4v3h2.486l1.299-1.967A4.497 4.497 0 0 0 11.5 16c2.481 0 4.5-2.019 4.5-4.5 0-.791-.223-1.524-.583-2.171L16 8.738V2.001z" id="outline"/><g id="icon_x5F_bg"><path class="st1" d="M10.968 4H2.887L2 4.854v5.034l.166.175L3 11h3v2l1.321-2H11l1-1.111V4.854l-.903-.751L10.968 4zM5.483 8h-1L3 6.5 4.483 5h1l-1 1H8v1H4.483l1 1zm4.051 2h-1l1-1H6V8h3.534l-1-1h1l1.516 1.5L9.534 10z"/><path class="st2" d="M8 6H4.483l1-1h-1L3 6.5 4.483 8h1l-1-1H8z"/><path class="st2" d="M7 11.5l.001-.017L6 13v-2H3l-.834-.938L2 9.888V4.854L2.887 4h8.081l.129.102.903.752v2.197c.347.039.682.112 1 .226V4.443L11.378 3H2.477L1 4.443v5.855L2.477 12H5v3h.938l1.333-2.019A4.444 4.444 0 0 1 7 11.5z"/><path class="st2" d="M9.858 7.321L9.534 7h-1l.657.658c.213-.129.433-.245.667-.337zM8.707 8H6v1h1.762c.258-.384.585-.712.945-1zM12.968 2l.129.102.903.752V7.76c.306.205.574.455.82.727l.18-.189V2.443L13.378 1H4.477L3.454 2h9.514z"/></g><g id="icon_x5F_fg"><path class="st3" d="M13.097 2.102L12.968 2h-1.203L14 4.001V2.854zM7.002 11.483A4.475 4.475 0 0 1 7.762 9H6V8h2.707c.155-.124.315-.239.485-.342L8.534 7h1l.324.321A4.463 4.463 0 0 1 11.5 7c.171 0 .334.032.5.051V4.854l-.903-.752L10.968 4H2.887L2 4.854v5.034l.166.175L3 11h3v2l1.002-1.517zM5.483 8h-1L3 6.5 4.483 5h1l-1 1H8v1H4.483l1 1z"/></g><path class="st4" d="M11.5 8a3.5 3.5 0 1 0 0 7 3.5 3.5 0 0 0 0-7zm1.854 4.646l-.707.707-1.147-1.146-1.146 1.147-.707-.707 1.147-1.146-1.147-1.146.707-.707 1.146 1.147 1.146-1.147.707.707-1.146 1.145 1.147 1.146z" id="not_x5F_bg"/><path class="st5" d="M13.354 10.354l-.708-.708-1.146 1.147-1.146-1.147-.708.708 1.147 1.146-1.147 1.146.708.708 1.146-1.147 1.146 1.147.708-.708-1.147-1.146z" id="not_x5F_fg"/></svg>