<svg xmlns="http://www.w3.org/2000/svg" viewBox="0 0 16 16"><style>.icon-canvas-transparent{opacity:0;fill:#f6f6f6}.icon-vs-out{fill:#f6f6f6}.icon-vs-bg{fill:#424242}.icon-vs-fg{fill:#f0eff1}.icon-vs-action-red{fill:#a1260d}</style><path class="icon-canvas-transparent" d="M16 16H0V0h16v16z" id="canvas"/><path class="icon-vs-out" d="M11 7H5v1H1V7H0V1h16v6h-1v1h-.646L16 9.646v.828l-1.556 1.556L16 13.586v.828L14.414 16h-.949l-1.495-1.495L10.475 16h-.95l-2-2 1.97-1.97-1.97-1.97L10 7.586l1.97 1.97L13.525 8H11V7z" id="outline"/><path class="icon-vs-bg" d="M1 2v4h1v1h2V6h8v1h2V6h1V2H1zm2 2H2V3h1v1z" id="iconBg"/><path class="icon-vs-fg" d="M3 4H2V3h1v1z" id="iconFg"/><path class="icon-vs-action-red" d="M13.03 12.03L15 14l-1.061 1.061-1.97-1.97L10 15.061 8.939 14l1.97-1.97-1.97-1.97L10 9l1.97 1.97L13.939 9 15 10.061l-1.97 1.969z" id="colorAction"/></svg>