<svg xmlns="http://www.w3.org/2000/svg" viewBox="0 0 16 16"><style>.st0{fill:#f6f6f6}.st1{fill:#424242}.st2{fill:#f0eff1}</style><path class="st0" d="M13.765 0H4.063L2 2.062 0 4.029v6.681L2.061 13H4v3h2.486l1.321-2h.679l.66-1h2.621l1.974-2h.026L16 8.738V2.001z" id="outline"/><g id="icon_x5F_bg"><path class="st1" d="M13.378 1H4.477L3.454 2h9.514l.129.102.903.752v6.494l1-1.05V2.443zM8.534 7l1 1H6v1h3.534l-1 1h1l1.516-1.5L9.534 7zM4.483 7H8V6H4.483l1-1h-1L3 6.5 4.483 8h1z"/><path class="st1" d="M11.378 3H2.477L1 4.443v5.855L2.477 12H5v3h.938l1.981-3h3.459L13 10.298V4.443L11.378 3zM12 9.889L11 11H7.321L6 13v-2H3l-.834-.938L2 9.888V4.854L2.887 4h8.081l.129.102.903.752v5.035z"/></g><g id="icon_x5F_fg"><path class="st2" d="M2.887 4L2 4.854v5.034l.166.175L3 11h3v2l1.321-2H11l1-1.111V4.854l-.903-.752L10.968 4H2.887zm2.596 4h-1L3 6.5 4.483 5h1l-1 1H8v1H4.483l1 1zm4.051 2h-1l1-1H6V8h3.534l-1-1h1l1.516 1.5L9.534 10zM13.097 2.102L12.968 2h-1.203L14 4.001V2.854z"/></g></svg>