<svg xmlns="http://www.w3.org/2000/svg" width="16" height="16"><style type="text/css">.icon-canvas-transparent{opacity:0;fill:#F6F6F6;} .icon-vs-out{fill:#F6F6F6;} .icon-vs-bg{fill:#424242;} .icon-vs-fg{fill:#F0EFF1;}</style><path class="icon-canvas-transparent" d="M16 16h-16v-16h16v16z" id="canvas"/><path class="icon-vs-out" d="M0 0h16v15h-16v-15z" id="outline"/><path class="icon-vs-fg" d="M10 2h-8v11h8v-4h5v-1h-5v-1h5v-1h-5v-4zm-5.73 1.597c.229-.065.444-.149.647-.25.203-.102.386-.213.55-.335h.533v3.988h-.879v-3.02l-.172.119-.21.1-.231.076-.238.045v-.723zm2.392 7.657v.712h-2.662v-.294c0-.199.035-.379.104-.537s.155-.301.259-.428c.104-.125.218-.236.342-.334l.353-.262.308-.234.223-.222.136-.224.044-.24c0-.167-.048-.293-.145-.378-.097-.085-.245-.127-.444-.127-.344 0-.673.133-.988.4v-.757c.349-.22.741-.329 1.178-.329.203 0 .385.025.545.078.161.051.297.125.409.221.112.096.197.213.255.35.059.136.088.289.088.458 0 .179-.028.339-.085.479-.056.139-.132.266-.226.381-.094.113-.202.219-.325.315l-.382.275-.258.183-.219.18-.15.173-.056.161h1.696zm5.838.746l-1.5-2h3l-1.5 2zm1.5-7h-2.983l1.483-1.969 1.5 1.969z" id="iconFg"/><path class="icon-vs-bg" d="M10 7h5v1h-5v-1zm5-6v5h-5v-4h-8v11h8v-4h5v5h-14v-13h14zm-4 9l1.5 2 1.5-2h-3zm3-5l-1.5-1.969-1.483 1.969h2.983zm-9.261-.801l.21-.1.172-.119v3.02h.879v-3.988h-.533c-.164.122-.347.233-.55.335-.203.101-.418.185-.647.25v.723l.237-.045.232-.076zm.433 6.721l.219-.18.258-.184.382-.275c.123-.096.231-.201.325-.315.094-.114.17-.241.227-.38.057-.14.085-.3.085-.479 0-.169-.029-.322-.088-.458-.059-.137-.144-.254-.255-.35-.111-.096-.248-.17-.409-.221-.161-.053-.343-.078-.546-.078-.437 0-.83.109-1.178.329v.757c.314-.267.644-.4.988-.4.199 0 .347.042.444.127.097.085.145.211.145.378l-.044.24-.136.224-.223.222-.308.234-.353.262c-.124.098-.238.209-.342.334-.104.127-.19.27-.259.428s-.104.338-.104.537v.294h2.662v-.712h-1.697l.056-.161.151-.173z" id="iconBg"/></svg>