<svg xmlns="http://www.w3.org/2000/svg" viewBox="0 0 16 16"><style>.icon-canvas-transparent{opacity:0;fill:#f6f6f6}.icon-vs-out{fill:#f6f6f6}.icon-vs-bg{fill:#424242}.icon-vs-fg{fill:#f0eff1}.icon-vs-action-green{fill:#388a34}</style><path class="icon-canvas-transparent" d="M16 16H0V0h16v16z" id="canvas"/><path class="icon-vs-out" d="M14 4v3h-2v3h-1v3H0v-3h2V7H0V2h9v2h5z" id="outline"/><path class="icon-vs-fg" d="M7 5H2V4h5v1z" id="iconFg"/><g id="iconBg"><path class="icon-vs-bg" d="M13 6h-3V5h3v1zm-2 2H3v1h8V8zm-6 3H1v1h4v-1zm5 0H7v1h3v-1z"/><path class="icon-vs-action-green" d="M1 3v3h7V3H1zm6 2H2V4h5v1z"/></g></svg>