<svg xmlns="http://www.w3.org/2000/svg" viewBox="0 0 16 16"><style>.st0{fill:#f6f6f6}.st1{fill:#424242}.st2{fill:#388a34}.st3{fill:#f0eff1}</style><path class="st0" d="M11 9V8h1V5h2V2H9V0H0v5h2v3H0v3h9v5h7V9z" id="outline"/><g id="icon_x5F_bg"><path class="st1" d="M10 3h3v1h-3zM3 6h8v1H3zM1 9h4v1H1zM7 9h2v1H7zM10 10v5h5v-5h-5zm4 3l-1 1v-1.5L11.5 14l-.5-.5 1.5-1.5H11l1-1h2v2z"/></g><path class="st2" d="M1 1v3h7V1H1zm6 2H2V2h5v1z" id="color_x5F_importance"/><path class="st3" d="M2 2h5v1H2z" id="icon_x5F_fg"/><path class="st3" d="M14 11v2l-1 1v-1.5L11.5 14l-.5-.5 1.5-1.5H11l1-1z" id="not_x5F_fg"/></svg>