<svg xmlns="http://www.w3.org/2000/svg" viewBox="0 0 16 16"><style>.st0{fill:#f6f6f6}.st1{fill:#424242}.st2{fill:#f0eff1}</style><path class="st0" d="M16 7.603l-1.568-1.568 1.5-1.5-2.914-2.932L11.604 3h-.172L8.417 0h-.796L3.103 4.525l.14.145A6 6 0 0 0 6 16a5.998 5.998 0 0 0 5.857-4.712l.711.712h.896L16 9.466V7.603z" id="outline"/><g id="icon_x5F_bg"><path class="st1" d="M6 10V7H5v4h3v-1z"/><path class="st1" d="M6 5a5 5 0 0 0-5 5c0 2.762 2.238 5 5 5s5-2.238 5-5a5 5 0 0 0-5-5zm0 8.881a3.882 3.882 0 1 1 .001-7.763A3.882 3.882 0 0 1 6 13.88z"/><path class="st1" d="M6 4c1.547 0 2.954.591 4.018 1.553v-.519h1l-.5.5 1.5 1.5 2.5-2.5-1.5-1.5-1 1h-3l1-1-2-2-3.063 3.063C5.295 4.037 5.643 4 6 4zM14.018 7.034l-1 1h-1.354c.111.322.195.656.251 1h.103l-.089.089c.042.287.071.578.071.877l-.001.016 1.019 1.019 2.5-2.5-1.5-1.501z"/></g><path class="st2" d="M6 6.119a3.882 3.882 0 1 0 .001 7.763A3.882 3.882 0 0 0 6 6.12zM8 11H5V7h1v3h2v1z" id="icon_x5F_fg"/></svg>