<svg xmlns="http://www.w3.org/2000/svg" viewBox="0 0 16 16"><style>.icon-canvas-transparent{opacity:0;fill:#f6f6f6}.icon-vs-out{fill:#f6f6f6}.icon-vs-bg{fill:#424242}.icon-vs-fg{fill:#f0eff1}.icon-vs-blue{fill:#1ba1e2}</style><path class="icon-canvas-transparent" d="M0 0h16v16H0z" id="canvas"/><path class="icon-vs-out" d="M13.726.614C12.707.218 11.384 0 10 0S7.292.218 6.274.614C4.295 1.384 4 2.596 4 3.25V8H3c-1.654 0-3 1.346-3 3 0 1.076.589 2.075 1.537 2.607l.62.349A3.003 3.003 0 0 0 5 16h4c.096 0 .187-.019.281-.028.238.013.476.028.719.028 1.383 0 2.706-.219 3.726-.615C15.704 14.616 16 13.404 16 12.75v-9.5c0-.654-.296-1.866-2.274-2.636z" id="outline"/><path class="icon-vs-fg" d="M10 4.5c2.588 0 4-.826 4-1.25S12.588 2 10 2s-4 .826-4 1.25S7.412 4.5 10 4.5z" id="iconFg"/><g id="iconBg"><path class="icon-vs-blue" d="M13.363 1.547C12.457 1.194 11.263 1 10 1s-2.457.194-3.363.547C5.581 1.957 5 2.562 5 3.25V8h2c1.319 0 2.443.856 2.844 2.042l.621.35A3.006 3.006 0 0 1 12 13c0 .735-.276 1.4-.716 1.922.772-.085 1.49-.24 2.079-.469C14.419 14.043 15 13.438 15 12.75v-9.5c0-.688-.581-1.293-1.637-1.703zM10 4.5c-2.588 0-4-.826-4-1.25S7.412 2 10 2s4 .826 4 1.25-1.412 1.25-4 1.25z"/><path class="icon-vs-bg" d="M11 13c0 1.102-.898 2-2 2H5c-1.103 0-2-.898-2-2 0-1.103.897-2 2-2h1l-1 1a1.001 1.001 0 0 0 0 2h4a1 1 0 0 0 1-1 .995.995 0 0 0-.302-.713 2.96 2.96 0 0 0 .275-1.024c.61.344 1.027.989 1.027 1.737zm-4 0c1.102 0 2-.897 2-2s-.898-2-2-2H3c-1.103 0-2 .897-2 2 0 .748.417 1.393 1.027 1.736a2.96 2.96 0 0 1 .275-1.024A.99.99 0 0 1 2 11c0-.551.449-1 1-1h4a1.001 1.001 0 0 1 0 2l-1 1h1z"/></g></svg>