<svg xmlns="http://www.w3.org/2000/svg" viewBox="0 0 16 16"><style>.st0{opacity:0}.st0,.st1{fill:#f6f6f6}.st2{fill:#424242}.st3{fill:#00539c}</style><g id="outline"><path class="st0" d="M0 0h16v16H0z"/><path class="st1" d="M.586 8l2 2H0v4h2.586l-2 2h4.828l4-4-4-4zM13.001.039L12.972 0h-1.541l-.591.699-.23-.297-1.214 1.342-.191-.294-1.868 2.198.159.261A2.14 2.14 0 0 0 7 3.845a2.156 2.156 0 0 0-2.154 2.153c0 1.188.966 2.154 2.154 2.154.171 0 .335-.025.495-.063l-.158.261 1.869 2.195.189-.292 1.213 1.342.231-.298 1.407 1.669.754-1.007a9.878 9.878 0 0 0 .001-11.92z"/></g><g id="icon_x5F_bg"><path class="st2" d="M11 2.6c.636 1.024 1 2.176 1 3.398 0 1.213-.373 2.349-1 3.367-.142.229-.282.459-.449.674L10 9.43c.751-1.008 1.211-2.179 1.211-3.431 0-1.252-.46-2.422-1.211-3.431l.551-.609c.161.208.312.42.449.641zM10 5.999c0 1.028-.329 1.999-.901 2.878l-.532-.625c.427-.7.683-1.458.683-2.254s-.256-1.554-.683-2.254l.532-.624C9.671 4 10 4.971 10 5.999z"/><path class="st2" d="M12.341 9.684a7.92 7.92 0 0 0 .475-1.106c.011-.03.02-.061.03-.092.122-.371.221-.752.287-1.146.007-.038.01-.076.016-.114.063-.4.102-.809.102-1.228 0-.245-.012-.488-.033-.728-.014-.147-.038-.292-.06-.437-.013-.09-.021-.182-.037-.27A7.42 7.42 0 0 0 12.993 4c-.011-.04-.018-.081-.028-.121a7.798 7.798 0 0 0-.208-.644l-.005-.016a8.009 8.009 0 0 0-1.071-1.967L12.2.638a8.908 8.908 0 0 1 1.8 5.36 8.911 8.911 0 0 1-1.8 5.361l-.521-.617c.244-.328.461-.678.653-1.045.004-.004.006-.009.009-.013z"/><circle class="st2" cx="7" cy="5.999" r="1.154"/></g><path class="st3" d="M5 9H3l2 2H1v2h4l-2 2h2l3-3z" id="color_x5F_decoration"/></svg>