<svg xmlns="http://www.w3.org/2000/svg" viewBox="0 0 16 16"><style>.st0{opacity:0}.st0,.st1{fill:#f6f6f6}.st2{fill:#424242}.st3{fill:#f0eff1}</style><g id="outline"><path class="st0" d="M0 0h16v16H0z"/><path class="st1" d="M16 7.465l-2.267-1.511a6.791 6.791 0 0 0-.642-1.507C12.506 3.503 11.651 3 10.613 3H4.684c-1.33 0-2.438.805-3.074 2.205L0 4.131v7.737l1.61-1.073C2.246 12.195 3.354 13 4.684 13h5.929c1.01 0 1.841-.481 2.425-1.365.044-.061.089-.121.13-.183l.281-.465c.152-.289.277-.61.373-.987h-.02L16 8.535v-1.07z"/></g><g id="icon_x5F_bg"><path class="st2" d="M1 6v4l3-2zM12 6v4l3-2z"/><path class="st2" d="M11 11v-.023c-.021.012-.041.023-.057.023H5.607l.011-.019c.465-.634.715-1.672.715-2.981 0-1.319-.253-2.368-.727-3h5.336c.017 0 .039.021.058.03V5h1.264c-.37-.612-.902-1-1.65-1h-5.93c-1.03 0-1.8.701-2.235 1.765l.808.538c.231-.813.574-1.256.743-1.29v.001c.007-.001.018-.014.024-.014H4.307c.603.659 1.037 1.701 1.037 3 0 .757-.132 1.397-.344 1.937-.163.413-.368.772-.621 1.045L4.366 11h-.342c-.16 0-.527-.457-.767-1.303l-.808.538C2.884 11.299 3.654 12 4.684 12h5.929c.751 0 1.287-.386 1.659-1H11z"/></g><g id="icon_x5F_fg"><path class="st3" d="M4.307 4.99h-.284c-.161 0-.525.47-.765 1.314L5 7.465v1.07L3.271 9.688c.239.807.595 1.242.752 1.242h.342c.591-.62.978-1.634.978-2.97 0-1.286-.434-2.317-1.036-2.97zM11 5.03c-.019-.009-.041-.03-.057-.03H5.607c.474.632.727 1.68.727 3 0 1.309-.25 2.347-.716 2.981L5.607 11h5.336c.016 0 .036-.011.057-.023V5.03z"/></g></svg>