<?xml version="1.0" encoding="utf-8"?>
<!-- Generator: Adobe Illustrator 18.1.1, SVG Export Plug-In . SVG Version: 6.00 Build 0)  -->
<!DOCTYPE svg PUBLIC "-//W3C//DTD SVG 1.1//EN" "http://www.w3.org/Graphics/SVG/1.1/DTD/svg11.dtd">
<svg version="1.1" xmlns="http://www.w3.org/2000/svg" xmlns:xlink="http://www.w3.org/1999/xlink" x="0px" y="0px" width="16px"
	 height="16px" viewBox="0 0 16 16" style="enable-background:new 0 0 16 16;" xml:space="preserve">
<style type="text/css">
	.icon_x002D_canvas_x002D_transparent{opacity:0;fill:#F6F6F6;}
	.icon_x002D_vs_x002D_out{fill:#F6F6F6;}
	.icon_x002D_vs_x002D_fg{fill:#F0EFF1;}
	.icon_x002D_disabled_x002D_grey{fill:#848484;}
	.icon_x002D_vs_x002D_blue{fill:#1BA1E2;}
	.icon_x002D_white{fill:#FFFFFF;}
</style>
<g id="canvas">
	<path class="icon_x002D_canvas_x002D_transparent" d="M16,16H0V0h16V16z"/>
</g>
<g id="outline">
	<path class="icon_x002D_vs_x002D_out" d="M16,0v13h-0.276c-0.621,1.742-2.271,3-4.224,3c-0.837,0-1.612-0.245-2.284-0.644
		C8.763,15.627,8.275,15.849,7.753,16H5.075h-0.02h-0.38C2.42,15.523,0.62,13.85,0,11.632V8.255C0.465,6.648,1.562,5.31,3,4.518V0
		H16z"/>
</g>
<g id="iconBg">
	<path class="icon_x002D_disabled_x002D_grey" d="M13,6h-1V5h1V6z M14.293,8H15V7h-1v0.762C14.105,7.832,14.195,7.921,14.293,8z
		 M13,1h-1v1h1V1z M11,1h-1v1h1V1z M15,3h-1v1h1V3z M15,1h-1v1h1V1z M15,5h-1v1h1V5z M5,1H4v1h1V1z M5,3H4v1h1V3z M8.339,14.697
		c-0.56,0.279-1.174,0.464-1.826,0.528C6.345,15.24,6.174,15.25,6,15.25c-0.152,0-0.302-0.009-0.45-0.023
		c-0.134-0.012-0.265-0.03-0.395-0.052c-0.005,0-0.01-0.001-0.015-0.002c-2.208-0.365-3.946-2.102-4.313-4.309
		c-0.001-0.005-0.001-0.009-0.002-0.014c-0.021-0.131-0.041-0.264-0.053-0.398C0.759,10.304,0.75,10.153,0.75,10
		c0-2.899,2.351-5.25,5.25-5.25c1.847,0,3.456,0.963,4.39,2.405c-0.313,0.08-0.609,0.194-0.892,0.336
		C8.984,6.775,8.26,6.223,7.41,5.929c0.275,0.574,0.527,1.239,0.688,2.013C8.418,7.892,8.752,7.809,9.095,7.71
		C8.391,8.158,7.828,8.797,7.462,9.552C7.455,9.31,7.44,9.074,7.414,8.845c-0.379,0.028-0.75,0.04-1.116,0.04
		c-0.101,0-0.201,0-0.302-0.002c-0.489-0.005-0.96-0.039-1.412-0.09C4.557,9.063,4.537,9.34,4.533,9.629
		c-0.004,0.437,0.029,0.888,0.093,1.345c0.442,0.052,0.901,0.087,1.378,0.092c0.349,0.002,0.695-0.01,1.043-0.027
		C7.031,11.192,7,11.342,7,11.5c0,0.125,0.027,0.243,0.037,0.366c-0.248,0.011-0.495,0.019-0.739,0.019
		c-0.101,0-0.201,0-0.302-0.002c-0.42-0.004-0.827-0.029-1.22-0.068c0.18,0.811,0.469,1.642,0.846,2.479
		C5.746,14.305,5.873,14.313,6,14.313c0.025,0,0.049-0.003,0.074-0.004c0.424-0.845,0.746-1.62,0.974-2.335
		c0.051,0.481,0.164,0.943,0.356,1.367c-0.116,0.277-0.227,0.55-0.366,0.841c0.24-0.059,0.468-0.145,0.69-0.243
		C7.906,14.212,8.108,14.468,8.339,14.697z M4.7,7.982C5.119,8.03,5.555,8.061,6.004,8.065c0.428,0.004,0.85,0,1.277-0.029
		C7.074,7.09,6.717,6.314,6.366,5.706C6.245,5.695,6.124,5.688,6,5.688c-0.187,0-0.369,0.016-0.549,0.039
		C5.164,6.322,4.875,7.071,4.7,7.982z M2.462,7.538C2.896,7.66,3.37,7.774,3.889,7.865C4.021,7.15,4.221,6.526,4.438,5.984
		C3.635,6.297,2.947,6.841,2.462,7.538z M1.703,10.303c0.583,0.197,1.28,0.398,2.087,0.545c-0.048-0.415-0.078-0.826-0.073-1.227
		c0.003-0.328,0.025-0.64,0.058-0.943C3.136,8.568,2.563,8.425,2.049,8.273C1.818,8.803,1.688,9.386,1.688,10
		C1.688,10.102,1.695,10.202,1.703,10.303z M4.659,14.098c-0.33-0.809-0.582-1.61-0.736-2.396c-0.774-0.124-1.46-0.3-2.058-0.483
		C2.266,12.579,3.316,13.658,4.659,14.098z M9,1H8v1h1V1z M11,5h-1v1h1V5z M7,1H6v1h1V1z M9,3H8v1h1V3z"/>
</g>
<g id="iconFg">
	<path class="icon_x002D_vs_x002D_fg" d="M4.626,10.974c-0.063-0.457-0.097-0.907-0.093-1.345C4.537,9.34,4.557,9.063,4.584,8.793
		c0.452,0.051,0.923,0.085,1.412,0.09c0.101,0.002,0.201,0.002,0.302,0.002c0.366,0,0.737-0.012,1.116-0.04
		C7.44,9.074,7.455,9.31,7.462,9.552c-0.222,0.458-0.36,0.958-0.415,1.486c-0.348,0.017-0.693,0.03-1.043,0.027
		C5.527,11.061,5.068,11.025,4.626,10.974z M4.438,5.984c-0.803,0.313-1.49,0.856-1.976,1.554C2.896,7.66,3.37,7.774,3.889,7.865
		C4.021,7.15,4.221,6.526,4.438,5.984z M9.095,7.71c0.129-0.082,0.266-0.15,0.403-0.219C8.984,6.775,8.26,6.223,7.41,5.929
		c0.275,0.574,0.527,1.239,0.688,2.013C8.418,7.892,8.752,7.809,9.095,7.71z M7.281,8.036C7.074,7.09,6.717,6.314,6.366,5.706
		C6.245,5.695,6.124,5.688,6,5.688c-0.187,0-0.369,0.016-0.549,0.039C5.164,6.322,4.875,7.071,4.7,7.982
		C5.119,8.03,5.555,8.061,6.004,8.065C6.432,8.069,6.854,8.065,7.281,8.036z M3.717,9.621c0.003-0.328,0.025-0.64,0.058-0.943
		C3.136,8.568,2.563,8.425,2.049,8.273C1.818,8.803,1.688,9.386,1.688,10c0,0.102,0.008,0.202,0.016,0.303
		c0.583,0.197,1.28,0.398,2.087,0.545C3.742,10.433,3.712,10.021,3.717,9.621z M7.404,13.341c-0.116,0.277-0.227,0.55-0.366,0.841
		c0.24-0.059,0.468-0.145,0.69-0.243C7.605,13.749,7.497,13.549,7.404,13.341z M7.037,11.866c-0.248,0.011-0.495,0.019-0.739,0.019
		c-0.101,0-0.201,0-0.302-0.002c-0.42-0.004-0.827-0.029-1.22-0.068c0.18,0.811,0.469,1.642,0.846,2.479
		C5.746,14.305,5.873,14.313,6,14.313c0.025,0,0.049-0.003,0.074-0.004c0.424-0.845,0.746-1.62,0.974-2.335
		C7.044,11.938,7.04,11.902,7.037,11.866z M1.865,11.219c0.4,1.36,1.451,2.439,2.794,2.879c-0.33-0.809-0.582-1.61-0.736-2.396
		C3.148,11.578,2.463,11.402,1.865,11.219z"/>
</g>
<g id="notificationBg">
	<path class="icon_x002D_vs_x002D_blue" d="M8,11.5c0,1.934,1.566,3.5,3.5,3.5c1.934,0,3.5-1.566,3.5-3.5C15,9.566,13.434,8,11.5,8
		C9.566,8,8,9.566,8,11.5z M12,12.5l1.5-1.5v1.5L12,14h-1l-1.5-1.5V11l1.5,1.5V9h1V12.5z"/>
</g>
<g id="notificationFg">
	<path class="icon_x002D_white" d="M12,9v3.5l1.5-1.5v1.5L12,14h-1l-1.5-1.5V11l1.5,1.5V9H12z"/>
	<g>
	</g>
	<g>
	</g>
	<g>
	</g>
	<g>
	</g>
	<g>
	</g>
	<g>
	</g>
</g>
</svg>
