<svg xmlns="http://www.w3.org/2000/svg" viewBox="0 0 16 16"><style>.st0{fill:#f6f6f6}.st1{fill:#424242}.st2{fill:#f0eff1}</style><path class="st0" d="M16 0H3v4.518a6.27 6.27 0 0 0-3 3.737v3.377A6.16 6.16 0 0 0 4.676 16h3.078a6.21 6.21 0 0 0 3.732-3H16V0z" id="outline"/><g id="icon_x5F_bg"><path class="st1" d="M8 3h1v1H8zM8 1h1v1H8zM4 3h1v1H4zM6 1h1v1H6zM4 1h1v1H4zM14 1h1v1h-1zM14 11h1v1h-1zM14 9h1v1h-1zM14 7h1v1h-1zM14 3h1v1h-1zM14 5h1v1h-1zM10 5h1v1h-1zM10 1h1v1h-1zM12 5h1v1h-1zM12 11h1v1h-1zM12 1h1v1h-1zM11.25 10c0-.061-.008-.118-.009-.178a5.246 5.246 0 1 0-10.469.631c.012.135.031.268.053.398l.002.014a5.245 5.245 0 0 0 4.313 4.309l.015.002a5.136 5.136 0 0 0 1.359.049A5.25 5.25 0 0 0 11.25 10zM8.227 8.754a9.452 9.452 0 0 0 1.737-.453c.224.521.349 1.096.349 1.699 0 .095-.008.188-.014.28a8.793 8.793 0 0 1-2.136.647 6.907 6.907 0 0 0 .064-2.173zM9.562 7.57c-.515.177-1 .3-1.463.371a8.71 8.71 0 0 0-.689-2.012A4.308 4.308 0 0 1 9.562 7.57zM6 14.313a4.29 4.29 0 0 1-.378-.019 12.87 12.87 0 0 1-.846-2.479c.393.039.8.064 1.22.068.101.002.201.002.302.002.261 0 .524-.008.79-.021-.229.743-.568 1.558-1.014 2.444-.025.002-.049.005-.074.005zm.004-3.248a12.92 12.92 0 0 1-1.378-.092 9.257 9.257 0 0 1-.093-1.345 9.7 9.7 0 0 1 .051-.835c.452.051.923.085 1.412.09.101.002.201.002.302.002.366 0 .737-.012 1.116-.04.028.254.049.513.053.784.004.434-.052.902-.157 1.402-.439.032-.869.037-1.306.034zM6 5.688c.124 0 .245.008.366.019.351.608.708 1.384.915 2.33-.428.029-.85.033-1.277.029A12.699 12.699 0 0 1 4.7 7.982c.175-.911.464-1.66.751-2.256.18-.023.362-.038.549-.038zm-1.562.296a9.835 9.835 0 0 0-.549 1.881 14.507 14.507 0 0 1-1.427-.327 4.32 4.32 0 0 1 1.976-1.554zM1.688 10c0-.614.131-1.197.361-1.727.515.151 1.087.295 1.726.404a9.494 9.494 0 0 0-.058.944c-.005.4.025.812.073 1.227a14.72 14.72 0 0 1-2.087-.545A3.817 3.817 0 0 1 1.688 10zm.177 1.219c.598.184 1.283.359 2.058.483.154.785.406 1.587.736 2.396a4.321 4.321 0 0 1-2.794-2.879zm5.173 2.963c.409-.86.725-1.661.929-2.395a9.548 9.548 0 0 0 2.164-.551 4.318 4.318 0 0 1-3.093 2.946z"/></g><g id="icon_x5F_fg"><path class="st2" d="M8.227 8.754a9.452 9.452 0 0 0 1.737-.453c.224.521.349 1.096.349 1.699 0 .095-.008.188-.014.28a8.793 8.793 0 0 1-2.136.647 6.907 6.907 0 0 0 .064-2.173zM9.562 7.57c-.515.177-1 .3-1.463.371a8.71 8.71 0 0 0-.689-2.012A4.308 4.308 0 0 1 9.562 7.57zM6 14.313a4.29 4.29 0 0 1-.378-.019 12.87 12.87 0 0 1-.846-2.479c.393.039.8.064 1.22.068.101.002.201.002.302.002.261 0 .524-.008.79-.021-.229.743-.568 1.558-1.014 2.444-.025.002-.049.005-.074.005zM6.004 11.065a12.92 12.92 0 0 1-1.378-.092 9.257 9.257 0 0 1-.093-1.345 9.7 9.7 0 0 1 .051-.835c.452.051.923.085 1.412.09.101.002.201.002.302.002.366 0 .737-.012 1.116-.04.028.254.049.513.053.784.004.434-.052.902-.157 1.402-.439.032-.869.037-1.306.034zM6 5.688c.124 0 .245.008.366.019.351.608.708 1.384.915 2.33-.428.029-.85.033-1.277.029A12.699 12.699 0 0 1 4.7 7.982c.175-.911.464-1.66.751-2.256.18-.023.362-.038.549-.038zM4.438 5.984a9.835 9.835 0 0 0-.549 1.881 14.507 14.507 0 0 1-1.427-.327 4.32 4.32 0 0 1 1.976-1.554zM1.688 10c0-.614.131-1.197.361-1.727.515.151 1.087.295 1.726.404a9.494 9.494 0 0 0-.058.944c-.005.4.025.812.073 1.227a14.72 14.72 0 0 1-2.087-.545A3.817 3.817 0 0 1 1.688 10zM1.865 11.219c.598.184 1.283.359 2.058.483.154.785.406 1.587.736 2.396a4.321 4.321 0 0 1-2.794-2.879zM7.038 14.182c.409-.86.725-1.661.929-2.395a9.548 9.548 0 0 0 2.164-.551 4.318 4.318 0 0 1-3.093 2.946z"/></g></svg>