<?xml version="1.0" encoding="iso-8859-1"?>
<!-- Generator: Adobe Illustrator 21.0.0, SVG Export Plug-In . SVG Version: 6.00 Build 0)  -->
<svg version="1.1" xmlns="http://www.w3.org/2000/svg" xmlns:xlink="http://www.w3.org/1999/xlink" x="0px" y="0px"
	 viewBox="0 0 16 16" style="enable-background:new 0 0 16 16;" xml:space="preserve">
<style type="text/css">
	.icon_x002D_canvas_x002D_transparent{opacity:0;fill:#F6F6F6;}
	.icon_x002D_vs_x002D_out{fill:#F6F6F6;}
	.icon_x002D_vs_x002D_bg{fill:#424242;}
	.icon_x002D_vs_x002D_fg{fill:#F0EFF1;}
	.icon_x002D_vs_x002D_blue{fill:#1BA1E2;}
</style>
<g id="canvas">
	<path class="icon_x002D_canvas_x002D_transparent" d="M16,16H0V0h16V16z"/>
</g>
<g id="outline">
	<path class="icon_x002D_vs_x002D_out" d="M15,4v8c0,2.28-3.01,4-7,4c-0.342,0-0.674-0.018-1-0.042V16H0V7h1V4c0-2.28,3.01-4,7-4
		C11.99,0,15,1.72,15,4z"/>
</g>
<g id="iconBg">
	<path class="icon_x002D_vs_x002D_bg" d="M1,8v7h5V8H1z M3,12H2v-1h1V12z M3,10H2V9h1V10z M5,12H4v-1h1V12z M5,10H4V9h1V10z"/>
</g>
<g id="iconFg">
	<path class="icon_x002D_vs_x002D_fg" d="M12.997,4c0,0.815-1.948,2-5,2c-3.052,0-5-1.185-5-2s1.948-2,5-2
		C11.049,2,12.997,3.185,12.997,4z M3,9H2v1h1V9z M5,10H4V9h1V10z M3,12H2v-1h1V12z M5,12H4v-1h1V12z M4,15H3v-2h1V15z"/>
</g>
<g id="colorImportance">
	<path class="icon_x002D_vs_x002D_blue" d="M8,1C4.687,1,2,2.343,2,4v3h5v7.955C7.326,14.982,7.659,15,8,15c3.314,0,6-1.343,6-3V4
		C14,2.343,11.314,1,8,1z M7.997,6c-3.052,0-5-1.185-5-2s1.948-2,5-2c3.052,0,5,1.185,5,2S11.049,6,7.997,6z"/>
</g>
</svg>
