<svg xmlns="http://www.w3.org/2000/svg" viewBox="0 0 16 16"><style>.st0{fill:#f6f6f6}.st1{fill:#424242}.st2{fill:#00539c}.st3{fill:#f0eff1}</style><path class="st0" d="M14.01 3V2h-1c-.412-1.164-1.686-2-2.99-2-1.303 0-2.596.836-3.01 2H6v.522L3.423 0h-.837L0 2.586v.827l4.004 3.992c-.005 3.776-.008 8.608.006 8.595H16V3h-1.99z" id="outline"/><g id="icon_x5F_bg"><path class="st1" d="M13 4V3h-.99a2 2 0 0 0-4 0h-1v.511L8.531 5H14v9H6V9.396l-.99-.988V15H15V4h-2zm-2.981 0c-.55 0-1.009-.447-1.009-1a1 1 0 0 1 2 0c0 .553-.438 1-.991 1z"/><path class="st1" d="M11 9h2v1h-2zM10.574 7l.426.417V8h2V7z"/></g><g id="color_x5F_action"><path transform="rotate(-45.001 6 6)" class="st2" d="M4.586 3.171h2.828v5.656H4.586z"/><path transform="rotate(-45.001 2.5 2.5)" class="st2" d="M1.086 1.793h2.828v1.414H1.086z"/><path class="st2" d="M10 8v1.999L8 10"/></g><g id="icon_x5F_fg"><path class="st3" d="M10.01 4.031c.553 0 1-.479 1-1.031s-.447-1-1-1c-.551 0-1.041.432-1.041.984 0 .553.49 1.047 1.041 1.047zM8.531 5l2.043 2H13v1h-2v1h2v1h-2v1H7.609L6 9.396V14h8V5z"/></g></svg>