<svg xmlns="http://www.w3.org/2000/svg" viewBox="0 0 16 16"><style>.icon-canvas-transparent{opacity:0;fill:#f6f6f6}.icon-vs-out{fill:#f6f6f6}.icon-vs-bg{fill:#424242}.icon-vs-fg{fill:#f0eff1}.icon-vs-action-red{fill:#a1260d}</style><path class="icon-canvas-transparent" d="M16 16H0V0h16v16z" id="canvas"/><path class="icon-vs-out" d="M16 10.535l-1.495 1.495L16 13.525v.949L14.475 16h-.949l-1.495-1.495-.031.03V16H.01c-.023.021 0-13 0-13H2V2h1.01C3.423.836 4.717 0 6.02 0c1.305 0 2.578.836 2.99 2h1v1H12v6.525l.03.03L14 7.586l2 2v.949z" id="outline"/><path class="icon-vs-bg" d="M8.01 3a2 2 0 0 0-4 0H3v2h6V3h-.99zM6.02 4c-.551 0-1.01-.447-1.01-1a1 1 0 0 1 2 0c0 .553-.438 1-.99 1zM10 5H9V4h2v4.525l-.939-.939-.061.06V5zM8.586 15H1V4h2v1H2v9h5.586l1 1zM9 7v1H3V7h6zM7.163 9h1.483l-1 1H3V9h4.163z" id="iconBg"/><path class="icon-vs-fg" d="M9.556 12.03l-1.97-1.97.06-.06H3V9h5.646L10 7.646V5H2v9h5.586l1.97-1.97zM3 7h6v1H3V7z" id="iconFg"/><path class="icon-vs-action-red" d="M13.091 12.03l1.97 1.97L14 15.061l-1.97-1.97-1.97 1.97L9 14l1.97-1.97L9 10.061 10.061 9l1.97 1.97L14 9l1.061 1.061-1.97 1.969z" id="colorAction"/></svg>