<svg xmlns="http://www.w3.org/2000/svg" viewBox="0 0 16 16"><style>.st0{fill:#f6f6f6}.st1{fill:#424242}</style><path class="st0" d="M16 10.5L10.5 16H8v-2.35A5.971 5.971 0 0 1 6 14c-3.309 0-6-2.691-6-6a6.01 6.01 0 0 1 5-5.917V0h1.362l4.2 3.5-.6.5h1.156l-.5 1h.613l.263.599a5.947 5.947 0 0 1 .24 4.167L13.5 8l2.5 2.5z" id="outline"/><g id="icon_x5F_bg"><path class="st1" d="M6 9l-.5-1H4l1.5 3h1l3-6H8zM8.5 15.5H10L8.5 14z"/><path class="st1" d="M11 8c0-.712-.153-1.387-.422-2h-.46l-.352.706C9.91 7.111 10 7.543 10 8a4 4 0 1 1-4-4v2l3-2.5L6 1v2a5 5 0 1 0 5 5z"/><path transform="rotate(-45.001 13.75 10.25)" class="st1" d="M13.043 9.189h1.414v2.121h-1.414z"/><path transform="rotate(-45.001 11.25 12.75)" class="st1" d="M9.129 11.689h4.243v2.121H9.129z"/></g></svg>