<svg xmlns="http://www.w3.org/2000/svg" viewBox="0 0 16 16"><style>.icon-canvas-transparent{opacity:0;fill:#f6f6f6}.icon-vs-out{fill:#f6f6f6}.icon-vs-bg{fill:#424242}</style><path class="icon-canvas-transparent" d="M16 16H0V0h16v16z" id="canvas"/><path class="icon-vs-out" d="M16 10.475l-1.495 1.495L16 13.465v.949L14.414 16h-.828l-1.556-1.556L10.475 16h-.829l-2.061-2.061.217-.217A5.959 5.959 0 0 1 6 14c-3.309 0-6-2.691-6-6a6.01 6.01 0 0 1 5-5.917V0h1.362l4.2 3.5-.6.5h1.156l-.5 1h.613l.263.599C11.83 6.365 12 7.174 12 8c0 .452-.055.891-.15 1.315l.18.18L14 7.525l2 2v.95z" id="outline"/><path class="icon-vs-bg" d="M8 5h1.5l-3 6h-1L4 8h1.5L6 9l2-4zm2.061 2.525l.897.897C10.969 8.281 11 8.145 11 8c0-.712-.153-1.387-.422-2h-.46l-.352.706c.103.29.164.599.198.916l.097-.097zm-1.459 3.491A3.967 3.967 0 0 1 6 12a4 4 0 0 1 0-8v2l3-2.5L6 1v2a5 5 0 0 0 0 10 4.963 4.963 0 0 0 3.309-1.277l-.707-.707zM15.061 10L14 8.939l-1.97 1.97-1.97-1.97L9 10l1.97 1.97L9 13.939 10.061 15l1.97-1.97L14 15l1.061-1.061-1.97-1.97L15.061 10z" id="iconBg"/></svg>