<svg xmlns="http://www.w3.org/2000/svg" viewBox="0 0 16 16"><style>.st0{opacity:0}.st0,.st1{fill:#f6f6f6}.st2{fill:#424242}</style><g id="outline"><path class="st0" d="M0 0h16v16H0z"/><path class="st1" d="M11.909 8.987l.059-.579C11.985 8.274 12 8.139 12 8c0-.827-.17-1.635-.506-2.401L11.231 5h-.613l.5-1H9.963l.6-.5L6.362 0H5v2.083A6.01 6.01 0 0 0 0 8c0 3.309 2.691 6 6 6a5.935 5.935 0 0 0 3-.812V16h1.279L16 12.536v-1.072l-4.091-2.477zM3.03 8.296l.956 1.912a2.973 2.973 0 0 1-.956-1.912zM5 7H3.176A3.015 3.015 0 0 1 5 5.171V7zm3.247 2.941c-.065.075-.132.133-.199.198L9 8.237v.844l-.753.86z"/></g><g id="icon_x5F_bg"><path class="st2" d="M10 9l4.954 3L10 15V9zM6 9l-.5-1H4l1.5 3h1l3-6H8z"/><path class="st2" d="M9 10.6c-.289.33-.618.623-1 .846A3.964 3.964 0 0 1 6 12a4 4 0 0 1 0-8v2l3-2.5L6 1v2a5 5 0 1 0 0 10 4.962 4.962 0 0 0 3-1.01V10.6zM10.96 8.413c.014-.138.04-.272.04-.413 0-.712-.153-1.387-.422-2h-.46l-.352.706c.125.351.197.726.218 1.115l.976.592z"/></g></svg>