<svg xmlns="http://www.w3.org/2000/svg" viewBox="0 0 16 16"><style>.st0{opacity:0}.st0,.st1{fill:#f6f6f6}.st2{fill:#424242}.st3{fill:#f0eff1}.st4{fill:#00539c}</style><g id="outline"><path class="st0" d="M0 0h16v16H0z"/><path class="st1" d="M7.853 1L7 0H2l.854 1H0v15h16V1z"/></g><g id="icon_x5F_bg"><path class="st2" d="M8.705 2l.852 1H14v11H2V8.649a3.502 3.502 0 0 1-1-.707V15h14V2H8.705z"/><path class="st2" d="M13 13V4H9.586L7 7h2v1H7V7H6v1H5v1h1v1H4V9h-.5c-.171 0-.335-.027-.5-.051V13h10zm-3-6h2v1h-2V7zm0 2h2v1h-2V9zm0 2h2v1h-2v-1zM7 9h2v1H7V9zm0 2h2v1H7v-1zm-3 0h2v1H4v-1z"/><path class="st3" d="M5 7h1v1H5z"/><path class="st3" d="M14 14V3H9.557l.443.52-.414.48H13v9H3V8.949a3.45 3.45 0 0 1-1-.3V14h12z"/></g><path class="st4" d="M6 1H4l1.988 2H3.5a2.5 2.5 0 1 0 0 5H4V7h-.5C2.673 7 2 6.327 2 5.5S2.673 4 3.5 4h2.513L4 6h2l2.5-2.485L6 1z" id="color_x5F_action"/><g id="icon_x5F_fg"><path class="st3" d="M6 10H4V9h2zM5 7h1v1H5zM7 11h2v1H7zM7 7h2v1H7zM4 11h2v1H4zM10 11h2v1h-2zM7 9h2v1H7zM10 7h2v1h-2zM10 9h2v1h-2z"/><path class="st3" d="M9.557 3l.443.52-.414.48H13v9H3V8.949a3.45 3.45 0 0 1-1-.3V14h12V3H9.557z"/></g></svg>