<svg xmlns="http://www.w3.org/2000/svg" viewBox="0 0 16 16"><style>.icon-canvas-transparent{opacity:0;fill:#f6f6f6}.icon-vs-out{fill:#f6f6f6}.icon-vs-bg{fill:#424242}</style><path class="icon-canvas-transparent" d="M16 0v16H0V0h16z" id="canvas"/><path class="icon-vs-out" d="M16 6.672v.656l-5.793 5.793-2.828-2.828L8.672 9H5.5C4.673 9 4 9.673 4 10.5S4.673 12 5.5 12h1v4h-1A5.506 5.506 0 0 1 0 10.5C0 7.467 2.467 5 5.5 5h3.172L7.379 3.707 10.207.879 16 6.672z" id="outline"/><path class="icon-vs-bg" d="M14.914 7l-4.707 4.707-1.414-1.414L11.086 8H5.5C4.122 8 3 9.121 3 10.5S4.122 13 5.5 13v2C3.019 15 1 12.981 1 10.5S3.019 6 5.5 6h5.586L8.793 3.707l1.414-1.414L14.914 7z" id="iconBg"/></svg>