<svg xmlns="http://www.w3.org/2000/svg" viewBox="0 0 16 16"><style>.st0{opacity:0}.st0,.st1{fill:#f6f6f6}.st2{fill:#424242}.st3{fill:#00539c}.st4{fill:#f0eff1}</style><g id="outline"><path class="st0" d="M0 0h16v16H0z"/><path class="st1" d="M0 16V3h2V0h14v13h-2v3H0z"/></g><path class="st2" d="M5 9V8h6v1H5zm10-8H7.853l1.705 2H14v8h-1V4H9.586L7.862 6H12v5H4V9h-.5c-.171 0-.335-.027-.5-.051V12h9v2H2V8.649a3.502 3.502 0 0 1-1-.707V15h12v-3h2V1zM3 2.051c.165-.024.329-.051.5-.051h.209L3 1.17v.881z" id="icon_x5F_bg"/><path class="st3" d="M6 1H4l1.988 2H3.5a2.5 2.5 0 1 0 0 5H4V7h-.5C2.673 7 2 6.327 2 5.5S2.673 4 3.5 4h2.513L4 6h2l2.5-2.485L6 1z" id="color_x5F_action"/><path class="st4" d="M7.862 6H12v5H4V9h7V8H5V7h2l.862-1zM3 8.949a3.45 3.45 0 0 1-1-.3V14h10v-2H3V8.949zM9.558 3l.442.52-.414.48H13v7h1V3H9.558z" id="icon_x5F_fg"/></svg>