<svg xmlns="http://www.w3.org/2000/svg" viewBox="0 0 16 16"><style>.st0{opacity:0}.st0,.st1{fill:#f6f6f6}.st2{fill:#424242}.st3{fill:#00539c}.st4{fill:#f0eff1}</style><g id="outline"><path class="st0" d="M0 0h16v16H0z"/><path class="st1" d="M16 4v12H6.021V7H5v2H3.5C1.57 9 0 7.43 0 5.5S1.57 2 3.5 2h.209L2 0h5l3 3.52-.414.48H16z"/></g><g id="icon_x5F_bg"><path class="st2" d="M9 5L8 6h6v8H8V6L7 7v8h8V5z"/><path class="st2" d="M9 9h4v1H9zM10 7h3v1h-3zM9 11h3v1H9z"/></g><path class="st3" d="M8.5 3.516L6 6H4l2.013-2H3.5C2.673 4 2 4.673 2 5.5S2.673 7 3.5 7H4v1h-.5a2.5 2.5 0 1 1 0-5h2.488L4 1h2l2.5 2.516z" id="color_x5F_action"/><path class="st4" d="M8 6v8h6V6H8zm4 6H9v-1h3v1zm1-2H9V9h4v1zm0-2h-3V7h3v1z" id="icon_x5F_fg"/></svg>