<svg xmlns="http://www.w3.org/2000/svg" width="16" height="16"><style type="text/css">.icon-canvas-transparent{opacity:0;fill:#F6F6F6;} .icon-vs-out{fill:#F6F6F6;} .icon-vs-bg{fill:#424242;} .icon-vs-action-blue{fill:#00539C;}</style><path class="icon-canvas-transparent" d="M16 16h-16v-16h16v16z" id="canvas"/><path class="icon-vs-out" d="M7.42 6l2.494-2.48-3.498-3.52h-4.819l1.987 2h-.084c-1.93 0-3.5 1.57-3.5 3.5 0 .758.247 1.485.713 2.104.673.887 1.688 1.396 2.787 1.396h-3.5v3h16v-6h-8.58z" id="outline"/><path class="icon-vs-bg" d="M15 7v4h-14v-1h6v-3h8z" id="iconBg"/><path class="icon-vs-action-blue" d="M8.5 3.516l-1.494 1.484h-.006l-1 1h-2l2.013-2h-2.513c-.827 0-1.5.673-1.5 1.5s.673 1.5 1.5 1.5h.5v1h-.5c-.815 0-1.532-.396-1.989-1-.317-.419-.511-.935-.511-1.5 0-1.381 1.119-2.5 2.5-2.5h2.487l-1.987-2h2l2.5 2.516z" id="colorAction"/></svg>