<svg xmlns="http://www.w3.org/2000/svg" viewBox="0 0 16 16"><style>.st0{opacity:0}.st0,.st1{fill:#f6f6f6}.st2{fill:#424242}.st3{fill:#00539c}.st4{fill:#f0eff1}</style><g id="outline"><path class="st0" d="M0 0h16v16H0z"/><path class="st1" d="M16 1H0v14h1.059c.631.617 1.491 1 2.441 1H5v-1h11V1z"/></g><path class="st2" d="M15 2H1v8.059a3.496 3.496 0 0 1 1-.707V5h12v8H7.862L7 14h8V2z" id="icon_x5F_bg"/><path class="st3" d="M8.5 10.516L6 13H4l2.013-2H3.5c-.827 0-1.5.673-1.5 1.5S2.673 14 3.5 14H4v1h-.5a2.5 2.5 0 1 1 0-5h2.488L4 8h2l2.5 2.516z" id="color_x5F_importance"/><path class="st4" d="M3.5 9c-.539 0-1.044.133-1.5.352V7l1.709 2H3.5zM14 5H2v2h5l3 3.519L7.862 13H14V5z" id="icon_x5F_fg"/></svg>