<svg xmlns="http://www.w3.org/2000/svg" viewBox="0 0 16 16"><style>.st0{opacity:0}.st0,.st1{fill:#f6f6f6}.st2{fill:#424242}.st3{fill:#00539c}</style><g id="outline"><path class="st0" d="M0 0h16v16H0z"/><path class="st0" d="M0 0h16v16H0z"/><path class="st1" d="M3.5 9H5v2h2v1.527c0 1.837 1.428 3.332 3.229 3.473h.541c1.802-.141 3.23-1.636 3.23-3.473v-4a4.502 4.502 0 0 0-4.442-4.494L10 3.52 7 0H2l1.709 2H3.5C1.57 2 0 3.57 0 5.5S1.57 9 3.5 9zM5 7h.285A4.428 4.428 0 0 0 5 8.527V7z"/></g><path class="st2" d="M9.5 5.027c-.319 0-.623.057-.917.137L7 7h-.636A3.467 3.467 0 0 0 6 8.527v1.5h1v-1.5a2.5 2.5 0 1 1 5 0v4a1.5 1.5 0 1 1-3 0v-3.5s0-.5.5-.5.5.5.5.5v3.5h1v-3.5s0-1.5-1.5-1.5-1.5 1.5-1.5 1.5v3.5a2.5 2.5 0 1 0 5 0v-4a3.5 3.5 0 0 0-3.5-3.5z" id="icon_x5F_bg"/><path class="st3" d="M6 1H4l1.988 2H3.5a2.5 2.5 0 1 0 0 5H4V7h-.5C2.673 7 2 6.327 2 5.5S2.673 4 3.5 4h2.513L4 6h2l2.5-2.485L6 1z" id="color_x5F_importance"/></svg>