<svg xmlns="http://www.w3.org/2000/svg" viewBox="0 0 16 16"><style>.st0{opacity:0;fill:#f6f6f6}.st1{fill:none}.st2{fill:#f6f6f6}.st3{fill:#424242}.st4{fill:#f0eff1}</style><g id="outline"><path class="st0" d="M0 0h16v16H0z"/><path class="st1" d="M11.241 9.667a3.619 3.619 0 0 1-.684.452A3.5 3.5 0 0 0 11.866 9c-.159.228-.35.431-.558.611-.021.02-.044.037-.067.056z"/><path class="st2" d="M16 6.254c0-.056-.003-.112-.01-.213A6.222 6.222 0 0 0 9.75 0a6.25 6.25 0 0 0-6.238 6H3a2 2 0 0 0-2 2v1c0 .384.114.74.301 1.044L0 9.523V15h4v1h7v-3.622a6.221 6.221 0 0 0 5-6.124zM5 10.923v-.2c.039-.024.082-.04.12-.066.047.136.107.266.182.387L5 10.923z"/></g><g id="icon_x5F_bg"><path class="st3" d="M14.991 6.078A5.246 5.246 0 0 0 9.75 1.005c-2.84 0-5.14 2.26-5.232 5.078a1.993 1.993 0 0 1 1.363 1.26A1.982 1.982 0 0 1 7 7h.08a15.649 15.649 0 0 1-1.627-.442 3.794 3.794 0 0 1-.015-.303c0-.614.131-1.197.361-1.727.514.152 1.087.296 1.725.405a9.79 9.79 0 0 0-.057.943c-.005.368.026.744.067 1.124H8c.124 0 .245.015.363.037a9.109 9.109 0 0 1-.08-1.152c.004-.29.023-.566.051-.836a13.837 13.837 0 0 0 1.714.091c.366 0 .737-.012 1.116-.04.028.254.049.513.053.785.004.433-.052.902-.157 1.402-.438.031-.868.037-1.306.034-.266-.003-.514-.032-.769-.051.353.201.636.502.813.869l.25.001c.261 0 .524-.008.79-.021-.202.657-.505 1.378-.877 2.148a1.979 1.979 0 0 1-.262.776l1.301-.52v.814c2.293-.564 4-2.616 4-5.083 0-.059-.008-.117-.009-.176zM7.639 4.121a14.216 14.216 0 0 1-1.427-.328 4.32 4.32 0 0 1 1.976-1.554 9.847 9.847 0 0 0-.549 1.882zm2.115.2a12.703 12.703 0 0 1-1.304-.083 9.12 9.12 0 0 1 .751-2.256c.18-.023.362-.039.549-.039.124 0 .245.008.366.019.351.608.708 1.384.915 2.33-.427.029-.849.033-1.277.029zm1.406-2.137a4.307 4.307 0 0 1 2.151 1.641c-.515.177-1 .3-1.463.372a8.672 8.672 0 0 0-.688-2.013zm-.372 8.254c.409-.861.725-1.662.929-2.396a9.548 9.548 0 0 0 2.164-.551 4.321 4.321 0 0 1-3.093 2.947zm3.261-3.902a8.806 8.806 0 0 1-2.136.647 6.907 6.907 0 0 0 .063-2.174 9.373 9.373 0 0 0 1.737-.453 4.29 4.29 0 0 1 .349 1.699c.001.095-.007.187-.013.281z"/><path class="st3" d="M9 9v1a1 1 0 0 1-1 1H7a1 1 0 0 1-1-1V9a1 1 0 0 1 1-1h1a1 1 0 0 1 1 1zM3 10h1a1 1 0 0 0 1-1V8a1 1 0 0 0-1-1H3a1 1 0 0 0-1 1v1a1 1 0 0 0 1 1zM5 12v3h5v-3l-2.5 1zM3.5 12L1 11v3h3v-2.334z"/></g><g id="icon_x5F_fg"><path class="st4" d="M12.444 6.443a4.142 4.142 0 0 0 .001.006l-.001-.006z"/><path class="st4" d="M11.977 5.009c.545-.085 1.057-.231 1.674-.453.223.521.399 1.095.399 1.699 0 .095.006.187 0 .28a8.8 8.8 0 0 1-2.137.647 6.907 6.907 0 0 0 .064-2.173zM13.311 3.825c-.515.177-1 .3-1.463.372a8.766 8.766 0 0 0-.688-2.013 4.307 4.307 0 0 1 2.151 1.641zM10 9v1c0 .093-.026.178-.039.268.372-.77.675-1.491.877-2.148-.266.013-.529.021-.79.021l-.25-.001c.126.26.202.55.202.86zM9.75 7.355c-.477-.005-.958-.074-1.4-.126a9.174 9.174 0 0 1-.067-1.345c.004-.29.02-.566.047-.836.452.052.927.102 1.416.107h.302c.366 0 .737-.027 1.116-.055.028.254.049.513.053.785.004.433-.052.902-.157 1.402-.439.031-.872.071-1.31.068zM9.75 1.943c.124 0 .245.008.366.019.351.608.706 1.384.913 2.33-.428.029-.852.068-1.279.064a12.279 12.279 0 0 1-1.3-.1 9.271 9.271 0 0 1 .751-2.273c.18-.024.362-.04.549-.04zM8.188 2.239a9.847 9.847 0 0 0-.549 1.882 14.216 14.216 0 0 1-1.427-.328 4.32 4.32 0 0 1 1.976-1.554zM5.438 6.255c0-.614.131-1.197.361-1.727.514.152 1.087.296 1.725.405a9.79 9.79 0 0 0-.057.943c-.005.401.025.812.073 1.228a14.71 14.71 0 0 1-2.087-.546 3.794 3.794 0 0 1-.015-.303zM10.75 10.436c.409-.861.766-1.66.971-2.394.67-.086 1.378-.292 2.159-.586a4.417 4.417 0 0 1-3.13 2.98z"/></g></svg>