<svg xmlns="http://www.w3.org/2000/svg" viewBox="0 0 16 16"><style>.st0{opacity:0}.st0,.st1{fill:#f6f6f6}.st2{fill:#424242}.st3{fill:#00539c}.st4{fill:#f0eff1}</style><g id="outline"><path class="st0" d="M0 0h16v16H0z"/><path class="st1" d="M10.5 3.513c-.189 0-.375.01-.559.028L7.416 1h-4.82l1.988 2H4.5C2.57 3 1 4.57 1 6.5S2.57 10 4.5 10h.594c.467 2.563 2.711 4.513 5.406 4.513 3.031 0 5.5-2.467 5.5-5.5s-2.469-5.5-5.5-5.5zM4.006 6.578A.503.503 0 0 1 4.5 6h.087l-.581.578z"/></g><path class="st2" d="M15.019 8.903a4.485 4.485 0 0 0-4.173-4.316L8.883 6.539c-.061.22-.121.442-.167.687-.154-.028-.28-.067-.426-.098l-.599.595c.292.074.596.143.927.198a8.399 8.399 0 0 0-.048.81c-.004.342.021.695.062 1.051a12.757 12.757 0 0 1-1.788-.467c-.007-.086-.014-.172-.014-.26 0-.369.072-.718.173-1.056h-.838a4.444 4.444 0 0 0-.138 1.057 4.74 4.74 0 0 0 .067.743 4.49 4.49 0 0 0 3.695 3.691l.014.002a4.221 4.221 0 0 0 .725.065 4.504 4.504 0 0 0 4.5-4.501c-.001-.053-.009-.102-.009-.153zM13.58 6.972a7.194 7.194 0 0 1-1.256.319 7.55 7.55 0 0 0-.588-1.726 3.703 3.703 0 0 1 1.844 1.407zm-3.523-1.579c.154-.02.311-.033.471-.033.106 0 .209.008.313.016.301.522.608 1.187.785 1.997-.367.025-.729.029-1.094.025-.387-.004-.76-.029-1.119-.07.15-.783.398-1.425.644-1.935zm-.743 2.579c.387.044.79.028 1.209.028h.258c.314 0 .633.04.957.016.025.219.043.465.045.697.004.372-.043.785-.135 1.215-.375.025-.744.04-1.117.038-.41-.006-.824-.033-1.205-.077a8.247 8.247 0 0 1-.055-1.166c.002-.247.02-.52.043-.751zM6.982 10.1c.513.157 1.101.31 1.765.415.132.673.349 1.359.632 2.053A3.708 3.708 0 0 1 6.982 10.1zm3.608 2.648c-.021.001-.041.004-.063.004-.109 0-.217-.008-.324-.018-.322-.717-.57-1.43-.725-2.124.336.033.686.057 1.045.058.086.002.174.002.258.002.225 0 .451-.006.678-.018a13.453 13.453 0 0 1-.869 2.096zm.828-.108c.35-.737.619-1.424.795-2.054a8.165 8.165 0 0 0 1.856-.472 3.707 3.707 0 0 1-2.651 2.526zm2.793-3.344a7.532 7.532 0 0 1-1.83.555c.07-.393.107-.768.103-1.119a7.337 7.337 0 0 0-.049-.743 8.04 8.04 0 0 0 1.488-.388c.191.445.299.937.299 1.455.001.08-.007.16-.011.24z" id="icon_x5F_bg"/><path class="st3" d="M9.5 4.516L7 7H5l2.013-2H4.5C3.673 5 3 5.673 3 6.5S3.673 8 4.5 8H5v1h-.5a2.5 2.5 0 1 1 0-5h2.488L5 2h2l2.5 2.516z" id="color_x5F_action"/><g id="icon_x5F_fg"><path class="st4" d="M12.428 7.997a8.29 8.29 0 0 0 1.5-.385c.189.442.266.93.266 1.443 0 .08-.008.159-.012.238a7.538 7.538 0 0 1-1.816.551c.07-.391.108-.762.104-1.111a8.654 8.654 0 0 0-.042-.736zM10.527 12.722c-.109 0-.215-.006-.322-.016a11.36 11.36 0 0 1-.719-2.15c.334.033.684.098 1.041.1.086.002.699.012.924 0-.193.633-.482 1.309-.861 2.063-.022 0-.041.003-.063.003zM10.531 9.962c-.406-.005-.797-.063-1.172-.106a7.042 7.042 0 0 1-.072-1.1c.002-.245.016-.522.039-.751.385.043.785.051 1.201.051.086 0-.086 0 0 0 .311 0 .879.023 1.199 0 .025.217-.002.442 0 .672a5.43 5.43 0 0 1-.1 1.198 14.85 14.85 0 0 1-1.095.036zM6.861 9.056c0-.521.111-1.05.308-1.5.437.129.917.283 1.458.375a7.27 7.27 0 0 0-.042.724c-.004.34 0 .768.041 1.121a12.252 12.252 0 0 1-1.751-.463c-.007-.085-.014-.17-.014-.257zM7.011 10.155a12.93 12.93 0 0 0 1.75.4c.131.667.346 1.295.625 1.982-1.14-.372-2.033-1.224-2.375-2.382zM11.41 12.61a13 13 0 0 0 .789-2.055c.568-.072 1.176-.15 1.84-.4-.369 1.235-1.371 2.144-2.629 2.455zM13.58 6.956a7.152 7.152 0 0 1-1.256.3 7.302 7.302 0 0 0-.588-1.7 3.685 3.685 0 0 1 1.844 1.4zM10.527 5.456c.106 0 .209-.008.313 0 .301.521.608 1.089.785 1.899-.367.025-.729.004-1.094 0-.387-.004-.744-.059-1.104-.1.148-.782.354-1.29.6-1.8.155-.018.34.001.5.001z"/></g></svg>