<svg xmlns="http://www.w3.org/2000/svg" width="16" height="16"><style type="text/css">.icon-canvas-transparent{opacity:0;fill:#F6F6F6;} .icon-vs-out{fill:#F6F6F6;} .icon-vs-bg{fill:#424242;} .icon-vs-fg{fill:#F0EFF1;} .icon-vs-action-blue{fill:#00539C;}</style><path class="icon-canvas-transparent" d="M16 16h-16v-16h16v16z" id="canvas"/><path class="icon-vs-out" d="M16 4v12h-14v-7.351c-1.178-.564-2-1.758-2-3.149 0-1.93 1.57-3.5 3.5-3.5h.084l-1.988-2h4.82l3.498 3.52-.483.48h6.569z" id="outline"/><path class="icon-vs-bg" d="M13 13h-8v-.793l1.446-1.445 1.155 1.538c.098.132.264.216.42.2.166-.008.316-.096.403-.234l2.604-3.367 1.972 2.761v1.34zm0-6h-8v3.793l1.146-1.146c.103-.103.237-.154.39-.145.145.01.277.082.363.198l1.063 1.417 2.614-3.382c.089-.142.241-.229.408-.235.188.003.326.074.423.209l1.593 2.23v-2.939zm-4.575-2l-1.006 1h6.581v8h-10v-5h-.5c-.171 0-.335-.027-.5-.051v6.051h12v-10h-6.575z" id="iconBg"/><path class="icon-vs-fg" d="M7.419 6l-1.006 1h6.587v2.939l-1.593-2.23c-.097-.135-.235-.206-.423-.209-.167.005-.319.093-.408.235l-2.614 3.382-1.063-1.417c-.086-.116-.218-.188-.363-.198-.152-.01-.287.042-.39.145l-1.146 1.146v-1.793h-1v5h10v-8h-6.581zm5.581 7h-8v-.793l1.446-1.445 1.155 1.538c.098.132.264.216.42.2.166-.008.316-.096.403-.234l2.604-3.367 1.972 2.761v1.34z" id="iconFg"/><path class="icon-vs-action-blue" d="M6 1h-2l1.988 2h-2.488c-1.381 0-2.5 1.119-2.5 2.5s1.119 2.5 2.5 2.5h.5v-1h-.5c-.827 0-1.5-.673-1.5-1.5s.673-1.5 1.5-1.5h2.513l-2.013 2h2l2.5-2.485-2.5-2.515z" id="colorAction"/></svg>