<svg xmlns="http://www.w3.org/2000/svg" viewBox="0 0 16 16"><style>.icon-canvas-transparent{opacity:0;fill:#f6f6f6}.icon-vs-out{fill:#f6f6f6}.icon-vs-bg{fill:#424242}.icon-vs-action-blue{fill:#00539c}</style><path class="icon-canvas-transparent" d="M16 0v16H0V0h16z" id="canvas"/><path class="icon-vs-out" d="M16 11c0 2.206-1.794 4-4 4H7a4.008 4.008 0 0 1-3.896-3.089l-.417-.146A4 4 0 0 1 0 8c0-.452.092-.879.23-1.284A3.462 3.462 0 0 1 0 5.5C0 3.57 1.57 2 3.5 2h.879l-.647-.646L5.086 0h1.535l3.5 3.5-.55.55a4.005 4.005 0 0 1 3.324 3.039l.417.146A4 4 0 0 1 16 11z" id="outline"/><path class="icon-vs-bg" d="M9 6H7.621l1-1H9c1.654 0 3 1.346 3 3s-1.346 3-3 3H6c0-.551.449-1 1-1h2c1.102 0 2-.897 2-2s-.898-2-2-2zm3.982 2.179a3.967 3.967 0 0 1-.177.993A2.002 2.002 0 0 1 14 11c0 1.102-.898 2-2 2H7c-1.103 0-2-.898-2-2 0-1.103.897-2 2-2h2c.552 0 1-.449 1-1H7c-1.654 0-3 1.346-3 3s1.346 3 3 3h5c1.654 0 3-1.346 3-3a2.993 2.993 0 0 0-2.018-2.821zM2.156 8.73a3.517 3.517 0 0 1-1.151-.782C1.005 7.966 1 7.982 1 8c0 1.309.847 2.412 2.018 2.821.016-.345.079-.676.177-.993A2.004 2.004 0 0 1 2.156 8.73z" id="iconBg"/><g id="colorAction"><path class="icon-vs-action-blue" d="M8.707 3.5L5.854 6.354l-.708-.708L6.793 4H3.5C2.673 4 2 4.673 2 5.5S2.673 7 3.5 7v1C2.122 8 1 6.878 1 5.5S2.122 3 3.5 3h3.293L5.146 1.354l.707-.707L8.707 3.5z"/></g></svg>