<svg xmlns="http://www.w3.org/2000/svg" viewBox="0 0 16 16"><style>.st0{fill:#f6f6f6}.st1{fill:#00539c}.st2{fill:#424242}.st3{fill:#f0eff1}</style><path class="st0" d="M11 9V0H0v11h9v5h7V9z" id="outline"/><g id="icon_x5F_bg"><path class="st1" d="M9 9h1V1H1v9h8V9zM5 9H2V8h3v1zm0-2H2V6h3v1zm0-3H4v1H3V4H2V3h1V2h1v1h1v1zm1-1h3v1H6V3zm1.943 3.022h1.16L7.21 9.004l-1.189-.025 1.922-2.957z"/><path class="st2" d="M10 10v5h5v-5h-5zm4 3l-1 1v-1.5L11.5 14l-.5-.5 1.5-1.5H11l1-1h2v2z"/><path class="st3" d="M14 11v2l-1 1v-1.5L11.5 14l-.5-.5 1.5-1.5H11l1-1z"/></g><g id="icon_x5F_fg"><path class="st3" d="M4 2H3v1H2v1h1v1h1V4h1V3H4zM2 6h3v1H2zM2 8h3v1H2zM6 3h3v1H6zM7.21 9.004l-1.189-.025 1.922-2.957h1.161z"/></g></svg>