<svg xmlns="http://www.w3.org/2000/svg" viewBox="0 0 16 16"><style>.st0{opacity:0}.st0,.st1{fill:#f6f6f6}.st2{fill:#424242}.st3{fill:#f0eff1}</style><g id="outline"><path class="st0" d="M0 0h16v16H0z"/><circle class="st1" cx="8" cy="8" r="8"/></g><g id="icon_x5F_bg"><path class="st2" d="M10.106 11.95l-1.188-.025L11 8h1.16z"/><path class="st2" d="M8.033 2c3.308 0 6 2.692 6 6s-2.692 6-6 6-6-2.692-6-6 2.692-6 6-6m0-1a7 7 0 1 0 0 14 7 7 0 0 0 0-14z"/><path class="st2" d="M8 5H6V3H5v2H3v1h2v2h1V6h2zM9 5h4v1H9zM4 9h4v1H4zM4 11h4v1H4z"/></g><path class="st3" d="M8.033 2c-3.308 0-6 2.692-6 6s2.692 6 6 6 6-2.692 6-6-2.692-6-6-6zM8 12H4v-1h4v1zm0-2H4V9h4v1zm0-4H6v2H5V6H3V5h2V3h1v2h2v1zm2.106 5.95l-1.188-.025L11 8h1.16l-2.054 3.95zM9 6V5h4v1H9z" id="icon_x5F_fg"/></svg>