<svg xmlns="http://www.w3.org/2000/svg" viewBox="0 0 16 16"><style>.icon-canvas-transparent{opacity:0;fill:#f6f6f6}.icon-vs-out{fill:#f6f6f6}.icon-vs-fg{fill:#f0eff1}.icon-vs-action-blue{fill:#00539c}</style><path class="icon-canvas-transparent" d="M16 16H0V0h16v16z" id="canvas"/><path class="icon-vs-out" d="M0 13V2h11v11H0z" id="outline"/><path class="icon-vs-action-blue" d="M1 3v9h9V3H1zm4 8H2v-1h3v1zm0-2H2V8h3v1zm0-3H4v1H3V6H2V5h1V4h1v1h1v1zm1-1h3v1H6V5zm1.21 6.004l-1.188-.025 1.921-2.957h1.161L7.21 11.004z" id="iconBg"/><g id="iconFg"><path class="icon-vs-fg" d="M4 5h1v1H4v1H3V6H2V5h1V4h1v1zM2 9h3V8H2v1zm0 2h3v-1H2v1zm4-6v1h3V5H6zm3.104 3.022H7.943l-1.921 2.957 1.188.025 1.894-2.982z"/></g></svg>