<svg xmlns="http://www.w3.org/2000/svg" viewBox="0 0 16 16"><style>.st0{opacity:0}.st0,.st1{fill:#f6f6f6}.st2{fill:#424242}.st3{fill:#f0eff1}</style><g id="outline"><path class="st0" d="M0 0h16v16H0z"/><path class="st1" d="M3 2h11v11H3z"/></g><path class="st2" d="M4 3v9h9V3H4zm4 8H5v-1h3v1zm0-2H5V8h3v1zm0-3H7v1H6V6H5V5h1V4h1v1h1v1zm1-1h3v1H9V5zm1.21 6.004l-1.188-.025 1.921-2.957h1.161l-1.894 2.982z" id="icon_x5F_bg"/><g id="icon_x5F_fg"><path class="st3" d="M7 4H6v1H5v1h1v1h1V6h1V5H7zM5 8h3v1H5zM5 10h3v1H5zM9 5h3v1H9zM10.21 11.004l-1.188-.025 1.921-2.957h1.161z"/></g></svg>