<?xml version="1.0" encoding="iso-8859-1"?>
<!-- Generator: Adobe Illustrator 21.0.0, SVG Export Plug-In . SVG Version: 6.00 Build 0)  -->
<svg version="1.1" xmlns="http://www.w3.org/2000/svg" xmlns:xlink="http://www.w3.org/1999/xlink" x="0px" y="0px"
	 viewBox="0 0 23 16" style="enable-background:new 0 0 23 16;" xml:space="preserve">
<style type="text/css">
	.st0{fill:#F6F6F6;}
	.st1{fill:#424242;}
	.st2{fill:#F0EFF1;}
</style>
<g id="_x7B__PAGE_GRID__x7D_">
</g>
<g id="outline">
	<path class="st0" d="M16,8c0,4.418-3.582,8-8,8c-4.418,0-8-3.582-8-8c0-4.418,3.582-8,8-8C12.418,0,16,3.582,16,8z M16,5.586V8l3,3
		l3-3V5.586H16z"/>
</g>
<g id="icon_x5F_bg">
	<path class="st1" d="M12.714,9.602c-0.07,0.207-0.15,0.407-0.246,0.601l1.017,2.139c-0.335,0.424-0.718,0.807-1.142,1.143
		l-2.14-1.018c-0.193,0.097-0.394,0.176-0.601,0.247l-0.795,2.235C8.542,14.981,8.273,15,8,15c-0.273,0-0.541-0.019-0.806-0.05
		l-0.795-2.235c-0.207-0.071-0.408-0.15-0.602-0.247l-2.14,1.017c-0.424-0.336-0.807-0.719-1.143-1.143l1.017-2.139
		C3.437,10.009,3.356,9.81,3.286,9.602L1.05,8.807C1.02,8.542,1,8.273,1,8c0-0.273,0.02-0.542,0.05-0.807l2.236-0.795
		c0.07-0.207,0.15-0.407,0.246-0.601L2.516,3.658c0.336-0.423,0.719-0.807,1.143-1.142l2.14,1.017
		c0.193-0.096,0.394-0.176,0.602-0.247L7.194,1.05C7.459,1.02,7.727,1,8,1c0.273,0,0.542,0.02,0.808,0.05l0.795,2.236
		c0.207,0.07,0.407,0.15,0.601,0.246l2.14-1.017c0.424,0.335,0.807,0.719,1.142,1.142l-1.017,2.139
		c0.096,0.194,0.176,0.394,0.246,0.601l2.236,0.795C14.981,7.458,15,7.727,15,8c0,0.273-0.019,0.542-0.05,0.807L12.714,9.602z M8,5
		C6.343,5,5,6.343,5,8s1.343,3,3,3c1.657,0,3-1.343,3-3S9.657,5,8,5z M8,6.5C7.171,6.5,6.5,7.172,6.5,8S7.171,9.5,8,9.5
		S9.5,8.828,9.5,8S8.829,6.5,8,6.5z M17,6.586v1l2,2l2-2v-1H17z"/>
</g>
<g id="icon_x5F_fg">
	<path class="st2" d="M8,5C6.343,5,5,6.343,5,8s1.343,3,3,3c1.657,0,3-1.343,3-3S9.657,5,8,5z M8,9.5C7.172,9.5,6.5,8.828,6.5,8
		S7.172,6.5,8,6.5S9.5,7.172,9.5,8S8.828,9.5,8,9.5z"/>
</g>
<g id="not_x5F_bg">
</g>
<g id="not_x5F_fg">
	<g>
	</g>
	<g>
	</g>
	<g>
	</g>
	<g>
	</g>
	<g>
	</g>
	<g>
	</g>
</g>
</svg>
