<svg xmlns="http://www.w3.org/2000/svg" viewBox="0 0 16 16"><style>.st0{fill:#fff}.st1{fill:#529ad3}.st2,.st3{fill-rule:evenodd;clip-rule:evenodd;fill:#848484}.st3{fill:#505150}</style><g id="white"><path class="st0" d="M6 6v3h1v6h9V6z"/><path class="st0" d="M12.042 3H1v6h3V4h8.042z"/></g><path class="st1" d="M1.001 10v.984h2.044v1.032h-.998V13H1.008v1H1v.016H0V15h.968l.032.033V16h1v-1h1v-1h1v-1h1v2h.979v-5z" id="blue"/><g id="light_grey"><path class="st2" d="M.989 5h3v.99h-3zM.916 8.025H3.96v.936H.916zM10.03 7H14v2h-3.97zM7.031 10H9v4H7.031zM4 3h.979v1H4zM8 3h1v1H8zM7.031 7h1.941v1.981H7.031z"/></g><g id="dark_grey"><path class="st3" d="M5 5v4h1V6h9.037v9H7.018v.988L16 16V5z"/><path class="st3" d="M.011 0v9H1V3h11v1h1V0z"/></g></svg>