<svg xmlns="http://www.w3.org/2000/svg" viewBox="0 0 16 16"><style>.st0{opacity:0}.st0,.st1{fill:#f6f6f6}.st2{fill:#424242}.st3{fill:#f0eff1}</style><g id="outline"><path class="st0" d="M0 0h16v16H0z"/><path class="st1" d="M16 1H4.954v4.975H0V15h11v-2h3v-2.586l2 2V7.586L15.414 7H16z"/></g><g id="icon_x5F_bg"><path class="st2" d="M9 8v2l2-2v4h2V8l2 2V8l-3-3zM3 9h2v2H3zM6 10h2v2H6z"/><path class="st2" d="M9 13H2V8h6v-.414L8.586 7H1v7h9V10.414l-1 1zM14 2H6v4h1V3h7V5.586l1 1V2z"/><path class="st2" d="M10 5.586V4H8v2h1.586z"/></g><g id="icon_x5F_fg"><path class="st3" d="M8 12H6v-2h2V8H2v5h7v-1.586l-1 1V12zm-3-1H3V9h2v2zM7 3v3h1V4h2v1.586l2-2 2 2V3z"/></g></svg>