<svg xmlns="http://www.w3.org/2000/svg" viewBox="0 0 16 16"><style>.icon-canvas-transparent{opacity:0;fill:#f6f6f6}.icon-vs-out{fill:#f6f6f6}.icon-vs-bg{fill:#424242}.icon-vs-fg{fill:#f0eff1}</style><path class="icon-canvas-transparent" d="M16 16H0V0h16v16z" id="canvas"/><path class="icon-vs-out" d="M8.477 4v2H16v3H7v.723l1 1.667V11h8v3H9.234c0 .337-.084.675-.259.985A1.98 1.98 0 0 1 7.233 16H1.766c-.73 0-1.38-.379-1.74-1.015-.012-.02-.015-.043-.026-.063v-1.833c.02-.039.029-.08.051-.118L2 9.723V9H1V6h3.571V3.46l-.137.044V.608L7.158 0H8v1h8v3H8.477z" id="outline"/><path class="icon-vs-bg" d="M15 2v1H9V2h6zM9 8h6V7H9v1zm0 5h6v-1H9v1zM7 4V1.06l-1.566.35v.72l.574-.186V4h-.437v1h1.906V4H7zm1.091 9.486A1 1 0 0 1 7.234 15H1.766a1 1 0 0 1-.857-1.514L3 10V8H2V7h5v1H6v2l2.091 3.486zM5.968 12L5 10.303V8H4v2.303L3.032 12h2.936z" id="iconBg"/><path class="icon-vs-fg" d="M5 8v2.303L5.968 12H3.032L4 10.303V8h1z" id="iconFg"/></svg>