<svg xmlns="http://www.w3.org/2000/svg" viewBox="0 0 16 16"><style>.st0{opacity:0}.st0,.st1{fill:#f6f6f6}.st2{fill:#424242}</style><g id="outline"><path class="st0" d="M0 0h16v16H0z"/><path class="st1" d="M13.906 7.604l.796-3.31-3.835-.992-.709 2.88A56.688 56.688 0 0 0 10 6.158V3H6v3.158c-.052.008-.104.015-.155.024l-.712-2.896-3.835.992.799 3.323C.793 8.487 0 9.674 0 11v1h3v-.639l.333 1.384L6.131 12h3.678l2.859.762.332-1.385V12h3v-1c0-1.325-.791-2.511-2.094-3.396z"/></g><path class="st2" d="M12.765 8.076l.735-3.06-1.904-.492-.697 2.838A11.265 11.265 0 0 0 9 7.045V4H7v3.045a11.2 11.2 0 0 0-1.895.316l-.701-2.853L2.5 5l.739 3.074C1.865 8.805 1 9.844 1 11h1c0-.757.551-1.447 1.467-1.975l.598 2.49L6 11l-.662-2.693A10.76 10.76 0 0 1 7 8.044V11h2V8.044c.592.048 1.15.138 1.666.265L10 11.016l1.935.516.602-2.504C13.451 9.555 14 10.244 14 11h1c0-1.156-.863-2.193-2.235-2.924z" id="icon_x5F_bg"/></svg>