<svg xmlns="http://www.w3.org/2000/svg" viewBox="0 0 16 16"><style>.icon-vs-out{fill:#f6f6f6}.icon-vs-bg{fill:#424242}.icon-vs-fg{fill:#f0eff1}</style><g id="outline"><path class="icon-vs-out" d="M16 3.342v2.315c-.348.45-.888.746-1.5.746-.438 0-.836-.154-1.158-.403H8.9L7.186 9H2.025L0 5.456V3.544L2.025 0h5.161L8.9 3h4.442c.322-.249.72-.403 1.158-.403.612 0 1.152.295 1.5.745z"/><path class="icon-vs-out" d="M16 10.545v1.911L13.975 16h-5.16L7.1 13H2.658c-.322.249-.72.403-1.158.403a1.892 1.892 0 0 1-1.5-.746v-2.315c.348-.45.888-.746 1.5-.746.437 0 .836.154 1.158.403H7.1l1.714-3h5.16L16 10.545z"/></g><g id="iconBg"><path class="icon-vs-bg" d="M3.71 6L2.9 4.5 3.71 3h1.68l.81 1.5L5.39 6H3.71z"/><path class="icon-vs-bg" d="M9 4h-.68L6.606 1h-4l-2 3.5 2 3.5h4L8.32 5H9V4zM6.106 7h-3l-1.5-2.5 1.5-2.5h3l1.5 2.5-1.5 2.5zM10 4h1v1h-1V4zM15.403 4.5a.903.903 0 1 1-1.807 0 .903.903 0 0 1 1.807 0zM12.29 10l.81 1.5-.81 1.5h-1.68l-.81-1.5.81-1.5h1.68z"/><path class="icon-vs-bg" d="M7 12h.68l1.714 3h4l2-3.5-2-3.5h-4L7.68 11H7v1zm2.894-3h3l1.5 2.5-1.5 2.5h-3l-1.5-2.5 1.5-2.5zM6 12H5v-1h1v1zM4 12H3v-1h1v1zM.597 11.5a.903.903 0 1 1 1.805 0 .903.903 0 0 1-1.805 0zM12 4h1v1h-1V4z"/></g><g id="colorAction"><path class="icon-vs-fg" d="M6.106 2h-3l-1.5 2.5 1.5 2.5h3l1.5-2.5-1.5-2.5zM5.39 6H3.71L2.9 4.5 3.71 3h1.68l.81 1.5L5.39 6zM12.894 9h-3l-1.5 2.5 1.5 2.5h3l1.5-2.5-1.5-2.5zm-.604 4h-1.68l-.81-1.5.81-1.5h1.68l.81 1.5-.81 1.5z"/></g></svg>