<svg xmlns="http://www.w3.org/2000/svg" viewBox="0 0 16 16"><style>.st0{opacity:0}.st0,.st1{fill:#f6f6f6}.st2{fill:#424242}.st3{fill:#f0eff1}</style><g id="outline"><path class="st0" d="M0 0h16v16H0z"/><path class="st1" d="M5 14c-2.206 0-4-1.793-4-4V6c0-2.206 1.794-4 4-4h7c2.206 0 4 1.794 4 4v4c0 2.207-1.794 4-4 4H5z"/></g><path class="st2" d="M12 3H5C3.346 3 2 4.346 2 6v4c0 1.654 1.346 3 3 3h7c1.654 0 3-1.346 3-3V6c0-1.654-1.346-3-3-3zm1 7a1 1 0 0 1-1 1H5a1 1 0 0 1-1-1V6a1 1 0 0 1 1-1h7a1 1 0 0 1 1 1v4z" id="icon_x5F_bg"/><path class="st3" d="M12 5H5a1 1 0 0 0-1 1v4a1 1 0 0 0 1 1h7a1 1 0 0 0 1-1V6a1 1 0 0 0-1-1z" id="icon_x5F_fg"/></svg>