<svg xmlns="http://www.w3.org/2000/svg" viewBox="0 0 16 16"><style>.st0{opacity:0}.st0,.st1{fill:#f6f6f6}.st2{fill:none}.st3{fill:#424242}.st4{fill:#f0eff1}</style><g id="outline"><path class="st0" d="M0 0h16v16H0z"/><path class="st1" d="M16 0H5v9H1v7h11v-4h4z"/></g><g id="icon_x5F_bg"><path class="st2" d="M7 10h7V2H7v8zm4-1h-1V7h1v2zm2 0h-1V6h1v3zM8 3h4v1H8V3zm0 2h2v1H8V5zm0 3h1v1H8V8z"/><path class="st3" d="M12 6h1v3h-1zM8 3h4v1H8zM10 7h1v2h-1zM8 5h2v1H8zM8 8h1v1H8z"/><path class="st3" d="M6 1v8h1V2h7v8h-2v1h3V1z"/><path class="st3" d="M2 10v5h9v-5H2zm8 3v1H9v-2H8v2H7v-2H6v2H5v-2H4v2H3v-3h7v2z"/></g><g id="icon_x5F_fg"><path class="st4" d="M7 2v7h1V8h1v1h1V7h1v2h1V6h1v3h-1v1h2V2H7zm3 4H8V5h2v1zm2-2H8V3h4v1zM3 14h1v-2h1v2h1v-2h1v2h1v-2h1v2h1v-3H3z"/></g></svg>