<?xml version="1.0" encoding="iso-8859-1"?>
<!-- Generator: Adobe Illustrator 21.0.0, SVG Export Plug-In . SVG Version: 6.00 Build 0)  -->
<svg version="1.1" xmlns="http://www.w3.org/2000/svg" xmlns:xlink="http://www.w3.org/1999/xlink" x="0px" y="0px"
	 viewBox="0 0 16 16" style="enable-background:new 0 0 16 16;" xml:space="preserve">
<style type="text/css">
	.icon_x002D_canvas_x002D_transparent{opacity:0;fill:#F6F6F6;}
	.icon_x002D_vs_x002D_out{fill:#F6F6F6;}
	.icon_x002D_vs_x002D_bg{fill:#424242;}
	.icon_x002D_vs_x002D_fg{fill:#F0EFF1;}
	.icon_x002D_vs_x002D_blue{fill:#1BA1E2;}
</style>
<g id="canvas">
	<path class="icon_x002D_canvas_x002D_transparent" d="M16,16H0V0h16V16z"/>
</g>
<g id="outline">
	<path class="icon_x002D_vs_x002D_out" d="M16,3v6c0,1.711-2.149,3-5,3v4H0V4h6V3c0-1.711,2.149-3,5-3C13.851,0,16,1.289,16,3z"/>
</g>
<g id="iconBg">
	<path class="icon_x002D_vs_x002D_bg" d="M5,10H3V9h2V10z M7,13h1v-3H7V13z M5,13h1v-2H5V13z M7,7H3v1h4V7z M1,5h9v10H1V5z M2,14h7
		V6H2V14z M3,13h1v-1H3V13z"/>
</g>
<g id="iconFg">
	<path class="icon_x002D_vs_x002D_fg" d="M2,14h7V6H2V14z M6,13H5v-2h1V13z M8,13H7v-3h1V13z M3,7h4v1H3V7z M3,9h2v1H3V9z M3,12h1v1
		H3V12z M14.325,3c0,0.527-1.326,1.325-3.325,1.325V4H8.952c-0.8-0.28-1.277-0.687-1.277-1c0-0.527,1.326-1.325,3.325-1.325
		C12.999,1.675,14.325,2.473,14.325,3z"/>
</g>
<g id="colorImportance">
	<path class="icon_x002D_vs_x002D_blue" d="M15,3v3v3c0,1.104-1.791,2-4,2V4.325c1.999,0,3.325-0.798,3.325-1.325
		S12.999,1.675,11,1.675C9.001,1.675,7.675,2.473,7.675,3c0,0.313,0.477,0.72,1.277,1H7V3c0-0.504,0.385-0.959,1-1.311
		C8.733,1.271,9.799,1,11,1c1.201,0,2.267,0.271,3,0.689C14.615,2.041,15,2.496,15,3z"/>
</g>
</svg>
