<svg xmlns="http://www.w3.org/2000/svg" viewBox="0 0 16 16"><style>.icon-canvas-transparent{opacity:0;fill:#f6f6f6}.icon-vs-out{fill:#f6f6f6}.icon-vs-action-blue{fill:#00539c}.st0{fill:#424242}</style><path class="icon-canvas-transparent" d="M16 0v16H0V0h16z" id="canvas"/><path class="icon-vs-out" d="M16 8.414v-.828L11.414 3H12V0H0v16h13v-3h-1.586L16 8.414zM9.465 6H4v4h5.465l-.97.97 2.03 2.03H3V3h7.525l-2.03 2.03.97.97z" id="outline"/><g id="iconBg"><path class="st0" d="M2 14h10v1H1V1h10v1H2v12z"/><path class="icon-vs-action-blue" d="M10.97 12.03L15 8l-4.03-4.03-1.061 1.06L11.879 7H5v2h6.879l-1.97 1.97z"/></g></svg>