<svg xmlns="http://www.w3.org/2000/svg" viewBox="0 0 16 16"><style>.st0{opacity:0}.st0,.st1{fill:#f6f6f6}.st2{fill:#424242}.st3{fill:#e51400}.st4{fill:#fff}</style><g id="outline"><path class="st0" d="M0 0h16v16H0z"/><path class="st1" d="M16 7.021L12 3h-1V0L0 .003V16h11.5c2.481 0 4.5-2.019 4.5-4.5 0-.723-.188-1.396-.491-2.003L16 9V7.021zM3 3h2.223L7.98 5.981 3 6.001V3zm0 10v-3h4.276a4.49 4.49 0 0 0-.236 1.099L5.244 13H3z"/></g><g id="icon_x5F_bg"><path class="st2" d="M11.5 7c1.235 0 2.354.501 3.169 1.31l.315-.31L11.5 4H8l2.453 3H4v2h3.762A4.496 4.496 0 0 1 11.5 7z"/><path class="st2" d="M7.762 14H2V2h8V1H1v14h7.707a4.508 4.508 0 0 1-.945-1z"/></g><path class="st3" d="M11.5 8a3.5 3.5 0 1 0 0 7 3.5 3.5 0 0 0 0-7zM9 12v-1h5v1H9z" id="not_x5F_bg"/><path class="st4" d="M9 11h5v1H9z" id="not_x5F_fg"/></svg>