<svg xmlns="http://www.w3.org/2000/svg" viewBox="0 0 16 16"><style>.st0{opacity:0}.st0,.st1{fill:#f6f6f6}.st2{fill:#424242}</style><g id="Outline"><path class="st0" d="M0 0h16v16H0z"/><path class="st1" d="M13 2.572V0H4v2H2v2H0v12h9v-2h2v-2h2V9.414l3-3v-.826l-3-3.016z"/></g><g id="icon_x5F_bg"><path class="st2" d="M5 1h7v1H5zM11.413 11h.586l.006-.593zM11 4.493l2.709 2.792 1.297-1.291L12.021 3H11zM9.409 13h.59v-.59zM3 3h7v1H3zM9 6.496l2.704 2.787 1.295-1.289L10.014 5H9z"/><g><path class="st2" d="M7.995 6V5H.999v10h6.996v-1h-6V6z"/><path class="st2" d="M8.01 7H5.495l2.023 2.023L3.999 9v2h3.562l-2.019 2h2.453l3-3z"/></g></g></svg>