<svg xmlns="http://www.w3.org/2000/svg" viewBox="0 0 16 16"><style>.st0{opacity:0}.st0,.st1{fill:#f6f6f6}.st2{fill:#424242}.st3{fill:#00539c}</style><g id="outline"><path class="st0" d="M0 0h16v16H0z"/><path class="st1" d="M14.221 6.395a5.66 5.66 0 0 0-1.862-1.041A6.8 6.8 0 0 0 10.158 5c-.611 0-1.194.074-1.734.221-.147.04-.283.096-.424.145V3L5 0H3L0 3v6l2-2v2h2.376c-.066.191-.133.383-.181.58A6.68 6.68 0 0 0 4 11.209c0 .859.149 1.652.444 2.357a5.403 5.403 0 0 0 1.267 1.856c.228.217.487.402.754.578h7.156v-1.491c.039-.017.078-.034.117-.054a3.574 3.574 0 0 0 1.189-.91c.325-.384.588-.848.782-1.383.193-.538.291-1.152.291-1.828 0-.813-.161-1.568-.481-2.248a5.069 5.069 0 0 0-1.298-1.691z"/></g><path class="st2" d="M13.573 7.157a4.63 4.63 0 0 0-1.537-.856A5.771 5.771 0 0 0 10.158 6c-.524 0-1.012.061-1.471.186a5.1 5.1 0 0 0-1.26.525A4.735 4.735 0 0 0 5.64 8.58a5.33 5.33 0 0 0-.475 1.243A5.7 5.7 0 0 0 5 11.209c0 .726.122 1.386.368 1.975a4.37 4.37 0 0 0 1.031 1.513c.441.419.969.74 1.574.966A5.76 5.76 0 0 0 9.981 16a9.072 9.072 0 0 0 1.653-.14 4.693 4.693 0 0 0 .986-.294v-.948c-.162.07-.334.14-.514.203a4.432 4.432 0 0 1-.579.158 7.212 7.212 0 0 1-1.449.137c-.624 0-1.183-.098-1.676-.293a3.608 3.608 0 0 1-1.251-.813 3.513 3.513 0 0 1-.786-1.248 4.531 4.531 0 0 1-.27-1.592c0-.606.1-1.169.303-1.691.202-.522.483-.977.842-1.36a3.93 3.93 0 0 1 1.284-.906 3.983 3.983 0 0 1 1.619-.327c.466 0 .886.049 1.247.151.365.101.689.239.967.41.282.175.518.376.715.608.198.231.359.479.486.74.125.264.215.534.273.813.056.281.084.556.084.823 0 .382-.037.726-.113 1.028-.075.305-.176.56-.298.771a1.43 1.43 0 0 1-.429.481.88.88 0 0 1-.504.165.58.58 0 0 1-.238-.05.403.403 0 0 1-.184-.174 1.009 1.009 0 0 1-.12-.339 2.883 2.883 0 0 1-.044-.547c0-.07.009-.189.019-.361.011-.169.029-.367.046-.59.018-.224.039-.462.062-.715.019-.251.042-.493.063-.719.02-.228.037-.43.054-.606.017-.177.026-.305.029-.383H11.24l-.059.666h-.024a.865.865 0 0 0-.151-.313 1.023 1.023 0 0 0-.259-.239 1.288 1.288 0 0 0-.342-.156 1.583 1.583 0 0 0-.41-.05c-.374 0-.717.079-1.025.24-.313.16-.576.382-.801.665a3.079 3.079 0 0 0-.518 1.006 4.028 4.028 0 0 0-.188 1.26c0 .382.05.716.148 1.002.099.288.234.525.4.718.17.191.365.333.593.425a1.804 1.804 0 0 0 1.267.053c.172-.058.335-.145.48-.258.148-.115.275-.256.387-.423.112-.165.201-.358.263-.577h.029c0 .418.112.749.342.992.229.244.557.366.986.366.325 0 .644-.071.959-.22.315-.147.597-.364.848-.651a3.5 3.5 0 0 0 .604-1.072c.153-.43.231-.926.231-1.492 0-.673-.13-1.278-.383-1.815a4.058 4.058 0 0 0-1.044-1.362m-2.632 4.194c-.061.308-.15.574-.273.799a1.564 1.564 0 0 1-.453.534 1.07 1.07 0 0 1-.636.195.855.855 0 0 1-.382-.087.914.914 0 0 1-.321-.258 1.375 1.375 0 0 1-.22-.433 2.12 2.12 0 0 1-.079-.608c0-.264.03-.535.089-.81.063-.275.152-.525.278-.752.122-.223.278-.404.463-.547.183-.142.4-.213.646-.213.137 0 .261.023.378.069a.823.823 0 0 1 .311.218c.089.097.161.22.21.367a1.7 1.7 0 0 1 .078.534c0 .354-.033.685-.089.992" id="icon_x5F_bg"/><path class="st3" d="M7 6L5 4v4H3V4L1 6V4l3-3 3 3v2z" id="color_x5F_action"/></svg>