<svg xmlns="http://www.w3.org/2000/svg" viewBox="0 0 16 16"><style>.st0{opacity:0}.st0,.st1{fill:#f6f6f6}.st2{fill:#424242}.st3{fill:#f0eff1}.st4{fill:#fc0}</style><g id="outline"><path class="st0" d="M0 0h16v16H0z"/><path class="st1" d="M15 14l-1 2H2V0h10v8l3 6z"/></g><path class="st2" d="M6 14l3.5-7H11V1H3v14h3.5L6 14zM5 3h4v1H5V3zm0 2h4v1H5V5z" id="icon_x5F_bg"/><path class="st3" d="M9 4H5V3h4v1zm0 1H5v1h4V5z" id="icon_x5F_fg"/><path class="st4" d="M10.914 8h-.781l-3.016 6 .516.984h5.766l.484-1L10.914 8zm.109 5.984h-1v-1h1v1zm0-2h-1v-2h1v2z" id="not_x5F_bg"/><path d="M11 12h-1v-2h1v2zm0 1h-1v1h1v-1z" id="not_x5F_fg"/></svg>