<svg xmlns="http://www.w3.org/2000/svg" viewBox="0 0 16 16"><style>.st0{opacity:0;stroke:#424242;stroke-width:.15;stroke-miterlimit:10}.st0,.st1{fill:#f6f6f6}.st2{fill:#424242}.st3{stroke:#424242;stroke-width:.15;stroke-miterlimit:10}.st3,.st4{fill:#f0eff1}</style><g id="outline"><path class="st0" d="M0 0h16v16H0z"/><path class="st1" d="M11.051.387L6.166 2.856v.591l-.115-.06-4.885 2.469v5.57l5.125 3.227 4.463-3.272v-.066l.537.338 4.463-3.272V2.868z"/></g><g id="icon_x5F_bg"><path class="st2" d="M9.754 10.874V6.471L6.041 4.512 2.166 6.471v4.403l4.082 2.57 3.506-2.57zm-3.76-5.686l3.07 1.514L6.201 8.42 3.105 6.654l2.889-1.466zm-.023 7.373v.016l-.01-.008-.008.008v-.016l-3.168-2.064V7.178l3.209 1.793v3.573l-.023.017zm3.218-1.962l-2.576 1.856V8.992l2.576-1.566v3.173z"/><path class="st2" d="M11.041 1.512L7.166 3.471v.504l.619.327v-.124l3.209 1.793v3.573l-.023.018v.016l-.01-.008-.008.008v-.016l-.199-.13v.701l.494.311 3.506-2.57V3.471l-3.713-1.959zm.16 3.908L8.105 3.654l2.889-1.467 3.07 1.514-2.863 1.719zm2.988 2.179l-2.576 1.856V5.992l2.576-1.566v3.173z"/></g><g id="icon_x5F_fg"><path class="st3" d="M10.994 2.188l3.07 1.513-2.863 1.719-3.096-1.766zM14.189 7.599l-2.576 1.856V5.992l2.576-1.566zM5.994 5.188l3.07 1.513L6.201 8.42 3.105 6.654zM5.971 12.561v.016l-.01-.008-.008.008v-.016l-3.168-2.064V7.178l3.209 1.793v3.573zM9.189 10.599l-2.576 1.856V8.992l2.576-1.566z"/><path class="st4" d="M7.785 4.178v.124l2.969 1.566v3.564l.199.13v.015l.008-.008.01.008v-.015l.023-.018V5.971z"/><path class="st2" d="M7.71 4.05v.212l.15.079v-.035l1.151.642 1.743.92v.054l.165.093V9.45l-.165-.107v.178l.125.082.007.148.084-.084.076.051v-.119l.023-.018V5.927z"/></g></svg>