<svg xmlns="http://www.w3.org/2000/svg" viewBox="0 0 16 16"><style>.st0{opacity:0}.st0,.st1{fill:#f6f6f6}.st2{fill:#424242}.st3{fill:#00539c}.st4{fill:#f0eff1}</style><g id="outline"><path class="st0" d="M0 0h16v16H0z"/><path class="st1" d="M13 9V6.455L6.335 0H0l2 2H0v4h2L0 8h3v5s0 2 2 2h4v1h4v-3h3V9h-3z"/></g><path class="st2" d="M5 13h4v1H5c-1 0-1-1-1-1V8h1v5zm1-1h1v-1H6v1zm1-3H6v1h1V9zm1 1h1V9H8v1zm2 5h2v-2h-2v2zm3-5v2h2v-2h-2zM8 6h1v2h2v1h1V7l-2-2H9L8 6zm2 6h2v-2h-2v2z" id="icon_x5F_bg"/><path class="st3" d="M3 7l2-2H1V3h4L3 1h2l3 3-3 3H3z" id="color_x5F_action_1_"/><path class="st4" d="M9 8V6H8L6 8H5v5h4v-3H8V9h3V8H9zm-2 4H6v-1h1v1zm0-2H6V9h1v1z" id="icon_x5F_fg"/></svg>