<svg xmlns="http://www.w3.org/2000/svg" viewBox="0 0 16 16"><style>.icon-vs-out{fill:#f6f6f6}.icon-vs-bg{fill:#424242}.icon-folder{fill:#dcb67a}.icon-canvas-transparent_x0020_{opacity:0;fill:#f6f6f6}</style><path class="icon-canvas-transparent_x0020_" d="M0 0h16v16H0V0z" id="canvas"/><path class="icon-vs-out" d="M15 6V4c0-1.299-1.03-2-2-2h-2.884l-1-2H2c-.995 0-2 .697-2 2v14h7.006L7 13h6.677L16 7.196V6h-1z" id="outline"/><g id="iconBg"><path class="icon-folder" d="M14 7V4c0-1-1.236-1-1-1H9.5l-1-2H2S1 1 1 2v5.72l1-.548V2h6l1 2h4v3H4.814l2.088 1.039V12H13l2-5h-1z"/><path class="icon-vs-bg" d="M6 9L4.424 8 3.5 10l-.773-2L1 9l1.5 1H1v5h5v-5H4.5L6 9zm-3 5H2v-1h1v1zm0-2H2v-1h1v1zm2 2H4v-1h1v1zm0-3v1H4v-1h1z"/></g><path class="icon-canvas-transparent_x0020_" d="M3 12H2v-1h1v1zm0 1H2v1h1v-1zm2-2H4v1h1v-1zm0 2H4v1h1v-1z" id="iconFg"/></svg>