<svg xmlns="http://www.w3.org/2000/svg" viewBox="0 0 16 16"><style>.st0{opacity:0;fill:#f16421}.st1{fill:#f6f6f6}.st2{fill:#424242}.st3{fill:#f0eff1}.st4{fill:#fc0}</style><g id="outline"><path class="st0" d="M0 0h16v16H0z"/><path class="st1" d="M12.399 7H12V2.5L8.5 0h-1L6 2.5 4.5 0h-1L0 2.5V16h15.011l1.018-2.013z"/></g><path class="st2" d="M6.59 14.017l.41-.78V11h1.178l1.053-2H7V6h3v1.538L10.283 7H11V5H7.167l1.146-.75 1.888-1.2L7.85 1 6 4.5 4.171 1.049 1.879 3.125l1.902 1.094L4.899 5H1v10h6.127l-.537-.983zM5 14H2v-3h3v3zm0-5H2V6h3v3z" id="icon_x5F_bg"/><g id="icon_x5F_fg"><path class="st3" d="M2 11h3v3H2zM2 6h3v3H2zM8.178 11H7v2.237zM10 7.538V6H7v3h2.231z"/></g><path class="st4" d="M11.835 8h-.819l-3.162 6.008.541.992h6.045l.508-1.008L11.835 8zM12 14h-1v-1h1v1zm.004-1.984h-.984V10.02h.984v1.996z" id="not_x5F_bg"/><g id="not_x5F_fg_1_"><path d="M11.02 10.02h.984v1.996h-.984zM11 13h1v1h-1z"/></g></svg>