<svg xmlns="http://www.w3.org/2000/svg" viewBox="0 0 16 16"><style>.icon-vs-out{fill:#f6f6f6}.icon-vs-bg{fill:#424242}.icon-vs-fg{fill:#f0eff1}.icon-folder{fill:#dcb67a}.icon-canvas-transparent_x0020_{opacity:0;fill:#f6f6f6}</style><path class="icon-canvas-transparent_x0020_" d="M0 0h16v16H0V0z" id="canvas"/><path class="icon-vs-out" d="M13.496 2.167H10.61l-1-2H1.5C.673.167 0 .84 0 1.667v10c0 .064.011.124.019.186L.041 16h7v-3h6.455c.827 0 1.5-.673 1.5-1.5V3.667c0-.828-.673-1.5-1.5-1.5z" id="outline"/><path class="icon-vs-bg" d="M6 9L4.424 8 3.5 10l-.773-2L1 9l1.5 1H1v5h5v-5H4.5L6 9zm-3 5H2v-1h1v1zm0-2H2v-1h1v1zm2 2H4v-1h1v1zm0-3v1H4v-1h1z" id="iconBg"/><g id="iconFg"><path class="icon-folder" d="M13.496 3H9.992l-1-2H1.5a.5.5 0 0 0-.5.5v6.297l2.279-1.248.344.89.414-.895 3.005 1.495V12h6.455a.5.5 0 0 0 .5-.5v-8a.501.501 0 0 0-.501-.5zM2 3V2h6.374l.5 1H2z"/><path class="icon-vs-fg" d="M3 12H2v-1h1v1zm0 1H2v1h1v-1zm2-2H4v1h1v-1zm0 2H4v1h1v-1zM2 2h6.374l.5 1H2V2z"/></g></svg>