<svg xmlns="http://www.w3.org/2000/svg" viewBox="0 0 16 16"><style>.st0{opacity:0}.st0,.st1{fill:#f6f6f6}.st2{fill:#424242}.st3{fill:#f0eff1}</style><path class="st0" d="M0 0h16v16H0z" id="outline"/><g id="icon_x5F_bg"><path class="st1" d="M3.872 15C2.769 15 1 14.646 1 13v-1.631c0-.646-1-1.713-1-2.869 0-1.389.449-2.964 1.724-3.522 0 0 3.243-.016 3.276 0V3h.586L4.149 1.563 9.633 0 10 .838 10.367 0l5.484 1.563L14.414 3H15v9H5.872v1c0 1.102-.897 2-2 2z"/><path class="st2" d="M6 8.5a2.499 2.499 0 0 1-1.501 2.289V13a1 1 0 1 1-2 0v-2.211a2.497 2.497 0 0 1 0-4.578V9h2V6.211A2.498 2.498 0 0 1 6 8.5zM12 4h2v7H6v-.076A3.48 3.48 0 0 0 7 8.5V10h2V8H7v.5c0-.951-.384-1.811-1-2.442V4h2L6 2l3-1 1 3 1-3 3 1-2 2zM9 5H7v2h2V5zm4 3h-2v2h2V8zm-2-3v2h2V5h-2z"/></g><path class="st3" d="M9 6.998H7v-2h2v2zm4-2h-2v2h2v-2zm-4 3H7v2h2v-2zm4 0h-2v2h2v-2z" id="icon_x5F_fg"/></svg>