<svg xmlns="http://www.w3.org/2000/svg" viewBox="0 0 16 16"><style>.st0{opacity:0}.st0,.st1{fill:#f6f6f6}.st2{fill:#424242}.st3{fill:#f0eff1}</style><g id="outline"><path class="st0" d="M0 0h16v16H0z"/><path class="st1" d="M1 0h15v15H1z"/></g><path class="st2" d="M3 2H2V1h1v1zm0 1H2v1h1V3zm0 2H2v1h1V5zm0 2.001H2v1h1v-1zm0 2.001H2v1h1v-1zm0 2H2v1h1v-1zm0 2H2v1h1v-1zm2 0H4v1h1v-1zm2 0H6v1h1v-1zm2 0H8v1h1v-1zm2 0h-1v1h1v-1zm2 0h-1v1h1v-1zM5 1H4v1h1V1zm2 0H6v1h1V1zm2 0H8v1h1V1zm2 0h-1v1h1V1zm2 0h-1v1h1V1zm2 0h-1v1h1V1zm0 2h-1v1h1V3zm0 2h-1v1h1V5zm0 2.001h-1v1h1v-1zm0 2.001h-1v1h1v-1zm0 2h-1v1h1v-1zm0 2h-1v1h1v-1zM10 7H7v1h3V7zm0 2H7v1h3V9zm2-6v9H5V3h7zm-1 1H6v7h5V4zm-1 1H7v1h3V5z" id="icon_x5F_bg"/><path class="st3" d="M6 11h5V4H6v7zm1-6h3v1H7V5zm0 2h3v1H7V7zm0 2h3v1H7V9z" id="icon_x5F_fg"/></svg>