<svg xmlns="http://www.w3.org/2000/svg" viewBox="0 0 16 16"><style>.st0{opacity:0}.st0,.st1{fill:#f6f6f6}.st2{fill:#424242}.st3{fill:#f0eff1}</style><g id="outline"><path class="st0" d="M0 0h16v16H0z"/><path class="st1" d="M12.061 0H6c-.97 0-2 .701-2 2v5H0v8h1v1h11v-1h1v-1h1c1.299 0 2-1.03 2-2V3.556L12.061 0z"/></g><g id="icon_x5F_bg"><path class="st2" d="M11.641 1H5.964S5 1 5 2v5h1V2h5v3h3v7h-1v1h.965c1 0 1.035-1 1.035-1V4l-3.359-3z"/><path class="st2" d="M9 10h1v2H9zM7 10h1v2H7z"/><path class="st2" d="M1 14h1v1h4v-1h1v1h4v-1h1V8H1v6zm1-5h9v4h-1v1H8v-1H5v1H3v-1H2V9z"/><path class="st2" d="M5 10h1v2H5zM3 10h1v2H3z"/></g><g id="icon_x5F_fg"><path class="st3" d="M2 9v4h1v1h2v-1h3v1h2v-1h1V9H2zm2 3H3v-2h1v2zm2 0H5v-2h1v2zm2 0H7v-2h1v2zm2 0H9v-2h1v2z"/><path class="st3" d="M11 5V2H6v5h7v5h1V5z"/></g></svg>