<svg xmlns="http://www.w3.org/2000/svg" viewBox="0 0 16 16"><style>.icon-canvas-transparent{opacity:0;fill:#f6f6f6}.icon-vs-out{fill:#f6f6f6}.icon-vs-bg{fill:#424242}.icon-vs-fg{fill:#f0eff1}.icon-vs-blue{fill:#1ba1e2}</style><path class="icon-canvas-transparent" d="M16 16H0V0h16v16z" id="canvas"/><path class="icon-vs-out" d="M15 0v16H1V0h14z" id="outline"/><path class="icon-vs-bg" d="M2 1v14h12V1H2zm11 13H3V2h10v12zM12 4H4V3h8v1zm0 2H4V5h8v1zm0 2H4V7h8v1z" id="iconBg"/><path class="icon-vs-fg" d="M3 2v12h10V2H3zm9 11H4v-3h8v3zm0-5H4V7h8v1zm0-2H4V5h8v1zm0-2H4V3h8v1zm-1 8H5v-1h6v1z" id="iconFg"/><path class="icon-vs-blue" d="M12 10H4v3h8v-3zm-1 2H5v-1h6v1z" id="colorImportance"/></svg>