<svg xmlns="http://www.w3.org/2000/svg" viewBox="0 0 16 16"><style>.st0{opacity:0;fill:#f6f6f6}.st1{fill:#f5f5f5}.st2{fill:#424242}.st3{fill:#efeef0}</style><g id="outline"><path class="st0" d="M0 0h16v16H0z"/><path class="st1" d="M12.061 0H6c-.97 0-2 .701-2 2v3.221c-.476.134-.922.32-1.324.557A5.285 5.285 0 0 0 .694 7.851a5.786 5.786 0 0 0-.516 1.347A6.163 6.163 0 0 0 0 10.689c0 .787.138 1.515.407 2.158a4.96 4.96 0 0 0 1.163 1.704 5.138 5.138 0 0 0 1.759 1.084A6.22 6.22 0 0 0 5.483 16a9.323 9.323 0 0 0 1.675-.144c.239-.046.449-.098.64-.158.187-.062.346-.12.474-.179l.586-.266V14H14c1.299 0 2-1.03 2-2V3.556L12.061 0z"/></g><g id="icon_x5F_bg"><path class="st2" d="M11.641 1H5.964S5 1 5 2v3.04c.211-.021.423-.04.643-.04.122 0 .237.021.357.028V2h5v3h3v7h-3.459a3.893 3.893 0 0 1-.527.852c-.05.057-.106.096-.157.148h4.107c1 0 1.035-1 1.035-1V4l-3.358-3z"/><path class="st2" d="M9.655 8.267a3.664 3.664 0 0 0-.939-1.226 4.168 4.168 0 0 0-1.383-.77A5.17 5.17 0 0 0 5.643 6a5.03 5.03 0 0 0-1.325.167c-.413.112-.791.27-1.134.473a4.285 4.285 0 0 0-1.608 1.682c-.186.347-.33.721-.428 1.119-.1.4-.148.815-.148 1.248 0 .652.11 1.247.332 1.776.22.531.531.983.928 1.361a4.11 4.11 0 0 0 1.417.87A5.185 5.185 0 0 0 5.483 15a8.084 8.084 0 0 0 1.488-.126 3.997 3.997 0 0 0 .888-.265v-.853c-.146.063-.3.126-.462.184a4.107 4.107 0 0 1-.521.142 6.337 6.337 0 0 1-1.304.123 4.062 4.062 0 0 1-1.508-.264 3.272 3.272 0 0 1-1.126-.73 3.16 3.16 0 0 1-.708-1.124 4.078 4.078 0 0 1-.243-1.433c0-.545.09-1.052.272-1.522.182-.47.435-.878.758-1.224a3.54 3.54 0 0 1 1.156-.816 3.586 3.586 0 0 1 1.457-.294c.419 0 .797.044 1.123.136.329.091.62.215.87.369.253.158.465.339.643.547.178.209.324.431.438.666.112.237.193.481.246.732.05.254.075.5.075.741 0 .344-.033.653-.102.926a2.638 2.638 0 0 1-.269.694c-.109.189-.24.335-.386.433a.786.786 0 0 1-.454.149.535.535 0 0 1-.214-.045.361.361 0 0 1-.166-.157.912.912 0 0 1-.108-.305 2.602 2.602 0 0 1-.04-.492c0-.064.008-.17.018-.325.01-.152.026-.33.042-.53.016-.202.035-.416.055-.644.019-.226.039-.443.059-.646l.048-.547c.015-.159.024-.274.026-.345h-.918l-.054.6h-.02a.782.782 0 0 0-.137-.281.924.924 0 0 0-.233-.215 1.12 1.12 0 0 0-.307-.141 1.333 1.333 0 0 0-.369-.048c-.336 0-.645.071-.923.216a2.181 2.181 0 0 0-.721.599 2.777 2.777 0 0 0-.466.905c-.114.35-.169.726-.169 1.134 0 .344.045.644.134.901.089.26.211.473.36.646.153.171.329.3.534.382a1.631 1.631 0 0 0 1.14.048c.155-.052.302-.13.432-.233a1.765 1.765 0 0 0 .584-.9h.026c0 .376.101.674.308.893.207.22.501.329.888.329.292 0 .58-.064.863-.197.284-.132.537-.328.763-.586.221-.262.404-.583.543-.966.138-.385.208-.831.208-1.341 0-.605-.117-1.15-.345-1.633zm-3.308 2.548a2.53 2.53 0 0 1-.245.719c-.11.203-.246.363-.408.481a.972.972 0 0 1-.572.176.824.824 0 0 1-.633-.31 1.24 1.24 0 0 1-.198-.39 1.931 1.931 0 0 1-.071-.547c0-.237.027-.481.08-.729.056-.247.137-.473.25-.677.11-.2.25-.363.417-.491a.923.923 0 0 1 .581-.192c.123 0 .235.021.34.063a.736.736 0 0 1 .279.196.9.9 0 0 1 .189.33c.044.134.07.294.07.48.001.317-.029.615-.079.891z"/></g><path class="st3" d="M11 5V2H6v3.028a6.138 6.138 0 0 1 1.656.296 5.19 5.19 0 0 1 1.707.954c.504.427.905.951 1.195 1.558.294.625.442 1.318.442 2.064 0 .618-.09 1.184-.267 1.678-.055.15-.126.283-.192.422H14V5h-3z" id="icon_x5F_fg"/></svg>