<svg xmlns="http://www.w3.org/2000/svg" viewBox="0 0 16 16"><style>.icon-canvas-transparent{opacity:0;fill:#f6f6f6}.icon-vs-out{fill:#f6f6f6}.icon-vs-bg{fill:#424242}.icon-vs-fg{fill:#f0eff1}.icon-vs-blue{fill:#1ba1e2}</style><path class="icon-canvas-transparent" d="M16 16H0V0h16v16z" id="canvas"/><path class="icon-vs-out" d="M14 13h-2v2H2V3h2V1h10v12z" id="outline"/><path class="icon-vs-bg" d="M13 2v10h-1V3H5V2h8zm-2 2v10H3V4h8zm-1 1H4v8h6V5zm-5 7h4v-1H5v1z" id="iconBg"/><path class="icon-vs-fg" d="M8 8H6V7h2v1zm2-3v8H4V5h6zm-1 6H5v1h4v-1zm0-5H5v3h4V6z" id="iconFg"/><path class="icon-vs-blue" d="M9 6H5v3h4V6zM8 8H6V7h2v1z" id="colorImportance"/></svg>