<svg xmlns="http://www.w3.org/2000/svg" viewBox="0 0 16 16"><style>.st0{opacity:0}.st0,.st1{fill:#f6f6f6}.st2{fill:#424242}</style><g id="outline"><path class="st0" d="M0 0h16v16H0z"/><path class="st1" d="M16 0H1v8.027A4.96 4.96 0 0 0 0 11c0 1.118.38 2.14 1 2.973V15h1.027c.833.62 1.855 1 2.973 1s2.14-.38 2.973-1H16V0z"/></g><g id="icon_x5F_bg"><path class="st2" d="M14 9h1v1h-1zM2 1h1v1H2zM6 1h1v1H6zM8 1h1v1H8zM10 1h1v1h-1zM12 1h1v1h-1zM14 1h1v1h-1zM14 11h1v1h-1zM14 13h1v1h-1zM12 13h1v1h-1zM14 7h1v1h-1zM14 5h1v1h-1zM12 3h1v1h-1zM14 3h1v1h-1zM10 13h1v1h-1zM2 5h1v1H2zM2 3h1v1H2zM10 3h1v1h-1zM8 3h1v1H8zM6 3h1v1H6zM4 1h1v1H4zM4 3h1v1H4z"/><circle class="st2" cx="5" cy="11" r="4"/></g></svg>