<svg xmlns="http://www.w3.org/2000/svg" viewBox="0 0 16 16"><style>.st0{opacity:0}.st0,.st1{fill:#f6f6f6}.st2{fill:#424242}.st3{fill:#f0eff1}</style><g id="outline"><path class="st0" d="M0 0h16v16H0z"/><path class="st1" d="M4 15c-.97 0-2-.701-2-2V3c0-1.299 1.03-2 2-2h6.061L14 4.556V13c0 .97-.701 2-2 2H4z"/></g><g id="icon_x5F_bg"><path class="st2" d="M9.641 2H3.964S3 2 3 3v10c0 1 .964 1 .964 1h8c1 0 1.036-1 1.036-1V5L9.641 2zM12 13H4V3h5v3h3v7z"/><path class="st2" d="M6 3h1v1H6zM6 5h1v1H6zM4 9h1v1H4zM8 9h1v1H8zM10 9h1v1h-1zM6 9h1v1H6zM6 7h1v1H6zM6 11h1v1H6z"/></g><path class="st3" d="M9 6V3H7v1H6V3H4v6h1v1H4v3h8V6H9zm-2 6H6v-1h1v1zm0-2H6V9h1v1zm0-2H6V7h1v1zm0-2H6V5h1v1zm2 4H8V9h1v1zm2 0h-1V9h1v1z" id="icon_x5F_fg"/></svg>