<svg xmlns="http://www.w3.org/2000/svg" viewBox="0 0 16 16"><style>.icon-canvas-transparent{opacity:0;fill:#f6f6f6}.icon-vs-out{fill:#f6f6f6}.icon-vs-bg{fill:#424242}.icon-vs-fg{fill:#f0eff1}.icon-vs-blue{fill:#1ba1e2}</style><path class="icon-canvas-transparent" d="M16 16H0V0h16v16z" id="canvas"/><path class="icon-vs-out" d="M14 13h-2v2H2V3h2V1h10v12z" id="outline"/><path class="icon-vs-bg" d="M3 4v10h8V4H3zm7 9H4V5h6v8zm3-11v10h-1V3H5V2h8zM9 7H5V6h4v1z" id="iconBg"/><path class="icon-vs-fg" d="M8 11H6v-1h2v1zm2-6v8H4V5h6zM9 9H5v3h4V9zm0-3H5v1h4V6z" id="iconFg"/><path class="icon-vs-blue" d="M5 9v3h4V9H5zm3 2H6v-1h2v1z" id="colorImportance"/></svg>