<svg xmlns="http://www.w3.org/2000/svg" width="16" height="16"><style type="text/css">.icon-canvas-transparent{opacity:0;fill:#F6F6F6;} .icon-vs-out{fill:#F6F6F6;} .icon-vs-bg{fill:#424242;} .icon-vs-fg{fill:#F0EFF1;}</style><path class="icon-canvas-transparent" d="M16 16h-16v-16h16v16z" id="canvas"/><path class="icon-vs-out" d="M14 9.914v3.086c0 .97-.701 2-2 2h-8c-.97 0-2-.701-2-2v-10c0-1.299 1.03-2 2-2h6.06l3.94 3.556v4.53l.414.414-.414.414z" id="outline"/><path class="icon-vs-bg" d="M13 11v2s-.035 1-1.035 1h-8s-.965 0-.965-1v-10c0-1 .964-1 .964-1h5.677l3.359 3v3l-1-.914v-1.086h-3v-3h-5v10h8v-1.086l1-.914zm-1.5-3h-1.5l1 1h-3v-3h-1v3c0 .552.448 1 1 1h3l-1 1h1.5l1.5-1.5-1.5-1.5z" id="iconBg"/><g id="iconFg"><path class="icon-vs-fg" d="M12 11.914v1.086h-8v-10h5v2h-3v4c0 1.103.897 2 2 2h.586l-1 1h4.328l.086-.086zm-3-4.914h2.914l.086.086v-1.086h-3v1z"/></g></svg>