<svg xmlns="http://www.w3.org/2000/svg" viewBox="0 0 16 16"><style>.st0{opacity:0}.st0,.st1{fill:#f6f6f6}.st2{fill:#efeef0}.st3{fill:#424242}</style><g id="outline"><path class="st0" d="M0 0h16v16H0z"/><path class="st1" d="M5 15c-.97 0-2-.701-2-2V3c0-1.299 1.03-2 2-2h5.03l3.939 3.556V13c0 .97-.701 2-2 2H5z"/></g><g id="icon_x5F_bg"><path class="st2" d="M11.969 7V6h-3V3H5v4zM5 10h6.969v3H5z"/><path class="st3" d="M4 8h1v1H4zM6 8h1v1H6zM8 8h1v1H8zM10 8h1v1h-1zM12 8h1v1h-1z"/><g><path class="st3" d="M5.031 7V3H9v3h3v1h1V5L9.641 2H4.995s-.964 0-.964 1v4h1zM12 10v3H5.031v-3h-1v3c0 1 .964 1 .964 1h6.969c1 0 1.036-1 1.036-1v-3h-1z"/></g></g></svg>