<svg xmlns="http://www.w3.org/2000/svg" viewBox="0 0 16 16"><style>.icon-canvas-transparent{opacity:0;fill:#f6f6f6}.icon-vs-out{fill:#f6f6f6}.icon-vs-bg{fill:#424242}.icon-vs-fg{fill:#f0eff1}</style><path class="icon-canvas-transparent" d="M16 0v16H0V0h16z" id="canvas"/><path class="icon-vs-out" d="M14.415 0H6.586L6 .586V0H3.5a2.505 2.505 0 0 0-2.373 1.713L1 2H0v2.914L1.336 6.25 0 7.586v6.828L1.585 16h7.829L11 14.414V11h3.414L16 9.414V1.586L14.415 0zM5 6H3.914L5 4.914V6z" id="outline"/><path class="icon-vs-fg" d="M12 5h-1V4h1v1zM7 8h2v6H2V8h5zM5 9H3v2h2V9zm3 1H6v3h2v-3zm6-8v7h-4V8l-.999-1H7V2h7zm-1 1H8v3h1V4h1v2.585l1 1.001V8h2V3zm-1 3h-1v1h1V6z" id="iconFg"/><g id="iconBg"><path class="icon-vs-bg" d="M8 13H6v-3h2v3zM4 4.5V3L3 4V2.5c0-.275.225-.5.5-.5H5V1H3.5C2.673 1 2 1.673 2 2.5V4L1 3v1.5L2.5 6 4 4.5zM5 9H3v2h2V9zm4.001-2L10 8v6l-1 1H1.999L1 14V8l1-1h7.001zM9 8H2v6h7V8zm5.001-7H7L6 2v4h1V2h7v7h-3v1h3l1-1V2l-.999-1zM10 6.585V4H9v2H8V3h5v5h-2v-.414l-1-1.001zM11 5h1V4h-1v1zm0 2h1V6h-1v1z"/><path class="icon-vs-bg" d="M15 2v7l-1 1h-3V9h3V2H7v4H6V2l1-1h7.001L15 2zm-5 4.585V4H9v2H8V3h5v5h-2v-.414l-1-1.001zM11 5h1V4h-1v1zm0 2h1V6h-1v1zM9.001 7L10 8v6l-1 1H1.999L1 14V8l1-1h7.001zM9 8H2v6h7V8zM5 9H3v2h2V9zm3 1H6v3h2v-3zM4 4.5V3L3 4V2.5c0-.275.225-.5.5-.5H5V1H3.5C2.673 1 2 1.673 2 2.5V4L1 3v1.5L2.5 6 4 4.5z"/></g></svg>