<svg xmlns="http://www.w3.org/2000/svg" viewBox="0 0 16 16"><style>.icon-canvas-transparent{opacity:0;fill:#f6f6f6}.icon-vs-out{fill:#f6f6f6}.icon-vs-bg{fill:#424242}.icon-vs-fg{fill:#f0eff1}.icon-vs-blue{fill:#1ba1e2}</style><path class="icon-canvas-transparent" d="M16 16H0V0h16v16z" id="canvas"/><path class="icon-vs-out" d="M15 0v16H1V0h14z" id="outline"/><path class="icon-vs-bg" d="M2 1v14h12V1H2zm11 13H3V2h10v12zM12 4H4V3h8v1zm0 9H4v-1h8v1z" id="iconBg"/><path class="icon-vs-fg" d="M11 9H5V7h6v2zm2-7v12H3V2h10zm-1 10H4v1h8v-1zm0-6H4v4h8V6zm0-3H4v1h8V3z" id="iconFg"/><path class="icon-vs-blue" d="M12 6H4v4h8V6zm-1 3H5V7h6v2z" id="colorImportance"/></svg>