<svg xmlns="http://www.w3.org/2000/svg" viewBox="0 0 16 16"><style>.st0{opacity:0;fill:#f6f6f6}.st1{fill:#f5f5f5}.st2{fill:#424242}.st3{fill:#f0eff1}</style><g id="outline"><path class="st0" d="M0 0h16v16H0z"/><path class="st1" d="M4 15c-.97 0-2-.701-2-2V3c0-1.299 1.03-2 2-2h6.061L14 4.556V13c0 .97-.701 2-2 2H4z"/></g><g id="icon_x5F_bg"><path class="st2" d="M8 8h1v1H8zM8 10h1v1H8zM8 12h1v1H8zM6 8h1v1H6zM4 8h1v1H4zM4 13V9H3v4c0 1 .964 1 .964 1H8v-1H4z"/><path class="st2" d="M9.641 2H3.964S3 2 3 3v5h1V3h5v3h3v7H9v1h2.965c1 0 1.035-1 1.035-1V5L9.641 2z"/></g><g id="icon_x5F_fg"><path class="st3" d="M9 6V3H4v5h1v1H4v4h4v-1h1v1h3V6H9zM7 9H6V8h1v1zm2 2H8v-1h1v1zm0-2H8V8h1v1zM3 8h1v1H3zM8 13h1v1H8z"/></g></svg>