<svg xmlns="http://www.w3.org/2000/svg" viewBox="0 0 16 16"><style>.st0{opacity:0}.st0,.st1{fill:#f6f6f6}.st2{fill:#424242}.st3{fill:#f0eff1}</style><g id="outline"><path class="st0" d="M0 0h16v16H0z"/><path class="st1" d="M8 11.347V16h.08l2.492-2.944L11.862 16h.413l2.943-1.326-1.328-3.039 2.11.106v-1.58l-5.106-4.763A5.497 5.497 0 0 0 5.5.987C2.462.987 0 3.441 0 6.468c0 3.028 2.462 5.481 5.5 5.481.901 0 1.75-.22 2.5-.602z"/></g><g id="icon_x5F_bg"><path class="st2" d="M8 9.236c-.444.401-.983.7-1.583.848.35-.736.62-1.424.795-2.053.254-.032.518-.086.788-.15v-.729c-.21.055-.421.111-.62.143.07-.393.108-.768.104-1.119a7.64 7.64 0 0 0-.049-.742c.183-.03.374-.073.565-.119v-.724c-.23.061-.456.111-.675.145a7.554 7.554 0 0 0-.589-1.725c.476.164.899.43 1.264.76V2.742A4.5 4.5 0 0 0 1.027 6.5a4.843 4.843 0 0 0 .067.743 4.488 4.488 0 0 0 3.696 3.691c.005.002.009.002.013.002a4.473 4.473 0 0 0 1.163.043A4.466 4.466 0 0 0 8 10.239V9.236zM5.056 2.837c.154-.02.311-.033.471-.033.106 0 .21.008.313.016a6.98 6.98 0 0 1 .786 1.997c-.368.025-.729.029-1.095.025-.386-.004-.759-.03-1.119-.071.15-.781.398-1.423.644-1.934zm-.742 2.608c.387.043.79.055 1.209.055h.259c.314 0 .632.012.956-.012.025.219.044.452.046.684.004.371-.044.777-.135 1.207-.376.025-.744.037-1.118.035-.41-.006-.825-.035-1.204-.078a7.8 7.8 0 0 1-.056-1.153c.001-.247.019-.507.043-.738zm-.126-2.387a8.58 8.58 0 0 0-.471 1.613 12.359 12.359 0 0 1-1.223-.281 3.706 3.706 0 0 1 1.694-1.332zM1.831 6.5c0-.525.112-1.025.31-1.479.44.13.932.253 1.478.346a8.725 8.725 0 0 0-.049.81c-.005.341.021.694.062 1.05a12.62 12.62 0 0 1-1.788-.467 3.187 3.187 0 0 1-.013-.26zm.151 1.045c.513.156 1.101.309 1.765.414.132.674.349 1.359.631 2.053a3.707 3.707 0 0 1-2.396-2.467zm3.607 2.648c-.021 0-.041.004-.063.004-.109 0-.217-.008-.324-.018a11.047 11.047 0 0 1-.724-2.124 11.327 11.327 0 0 0 1.304.061c.224 0 .45-.006.678-.018a13.668 13.668 0 0 1-.871 2.095zM12.441 14.828l1.465-.66-1.579-3.613 2.779.14L9 5v8.365l1.845-2.179z"/></g><g id="icon_x5F_fg"><path class="st3" d="M8 7.186V5.367a8.11 8.11 0 0 1-.573.117c.025.238.038.48.041.736.004.35-.033.721-.104 1.111.205-.032.421-.089.636-.145zM5.527 10.166c-.108 0-.215-.006-.321-.016A11.197 11.197 0 0 1 4.487 8c.333.033.683.098 1.04.1.086.002.699.012.925 0-.194.633-.483 1.309-.862 2.062-.022.002-.042.004-.063.004zM5.531 7.406c-.406-.004-.796-.062-1.172-.105a7.05 7.05 0 0 1-.072-1.1c.002-.246.017-.523.04-.752.383.043.784.051 1.2.051.086 0-.085 0 0 0 .312 0 .879.023 1.2 0 .025.217-.002.443 0 .672.004.369-.011.773-.101 1.199-.372.025-.724.037-1.095.035zM1.861 6.5c0-.521.111-1.049.308-1.5.437.129.917.283 1.458.375-.026.26-.039.446-.042.726-.004.34 0 .767.042 1.12a12.102 12.102 0 0 1-1.752-.463c-.007-.086-.014-.17-.014-.258zM2.011 7.6a12.93 12.93 0 0 0 1.75.4c.131.668.346 1.295.626 1.982C3.246 9.609 2.353 8.758 2.011 7.6zM8 7.88c-.275.051-.543.087-.801.12a13.061 13.061 0 0 1-.789 2.055A3.754 3.754 0 0 0 8 9.221V7.88zM8 3.799a3.726 3.726 0 0 0-1.264-.756c.235.492.451 1.039.589 1.7.219-.033.445-.078.675-.134v-.81zM5.527 2.9c.106 0 .21-.008.313 0 .301.522.607 1.09.785 1.9-.367.025-.729.004-1.095 0-.386-.004-.745-.059-1.104-.1.15-.782.354-1.29.6-1.8.155-.019.341 0 .501 0zM4.188 3.058a8.58 8.58 0 0 0-.471 1.613 12.359 12.359 0 0 1-1.223-.281 3.706 3.706 0 0 1 1.694-1.332z"/></g></svg>