<svg xmlns="http://www.w3.org/2000/svg" viewBox="0 0 16 16"><style>.st0{opacity:0}.st0,.st1{fill:#f6f6f6}.st2{fill:#424242}.st3{fill:#f0eff1}</style><g id="outline"><path class="st0" d="M0 0h16v16H0z"/><path class="st1" d="M12.061 0H6c-.97 0-2 .701-2 2v5.945l-1.944-.599.361.654H0v3h1v1H0v3h1.755l-.605.925 5.09-1.557L7.441 16h2.058v-2H14c1.299 0 2-1.03 2-2V3.556L12.061 0z"/></g><g id="icon_x5F_bg"><path class="st2" d="M11.641 1H5.964S5 1 5 2v6.253l1 .309V2h5v3h3v6.226l.088.028-.088.032V12h-1.956l-2.545.929V13h4.466c1 0 1.035-1 1.035-1V4l-3.359-3zM2 11h1v1H2zM1 13h2v1H1z"/><path class="st2" d="M8.494 10.516l.005-2.766-1.757 2.086-2.616-.806 1.249 2.267L3.5 14.16l3.124-.955 1.875 2.545v-3.521L11 11.316zM1 9h2v1H1z"/></g><g id="icon_x5F_fg"><path class="st3" d="M12.044 12H14v-.714zM6.403 8.686l3.101-3.681-.009 4.781L14 11.226V5h-3V2H6v6.562z"/></g></svg>