<svg xmlns="http://www.w3.org/2000/svg" viewBox="0 0 16 16"><style>.st0{opacity:0}.st0,.st1{fill:#f6f6f6}.st2{fill:#424242}</style><g id="outline"><path class="st0" d="M0 0h16v16H0z"/><path class="st1" d="M1 0h15v15H1z"/></g><path class="st2" d="M11 14h-1v-1h1v1zm4-1h-1v1h1v-1zm-2 0h-1v1h1v-1zm2-2h-1v1h1v-1zM11 1h-1v1h1V1zm2 0h-1v1h1V1zm2 0h-1v1h1V1zm0 4h-1v1h1V5zm0 4h-1v1h1V9zM3 11H2v1h1v-1zm0 2H2v1h1v-1zm4 0H6v1h1v-1zm-2 0H4v1h1v-1zm4 0H8v1h1v-1zM3 1H2v1h1V1zm0 2H2v1h1V3zm0 2H2v1h1V5zm0 4H2v1h1V9zm2-8H4v1h1V1zm2 0H6v1h1V1zm2 0H8v1h1V1zm6 2h-1v1h1V3zm0 4h-1v1h1V7zM3 7H2v1h1V7zm5-3H5v3h3V4zm4 0H9v1h3V4zm0 2H9v1h3V6zm0 2H4.946v1H12V8zm0 2H4.946v1H12v-1z" id="icon_x5F_bg"/></svg>