<svg xmlns="http://www.w3.org/2000/svg" viewBox="0 0 16 16"><style>.st0{opacity:0}.st0,.st1{fill:#f6f6f6}.st2{fill:#424242}</style><g id="outline"><path class="st0" d="M0 0h16v16H0z"/><path class="st1" d="M16 4V1H5.001V0H0l.013 13.512L2.5 16h7.001l2-2H16v-3h-4.499l-2-2H16V6H5.001V4H16z"/></g><g id="icon_x5F_bg"><path class="st2" d="M1.007 6h3v3h-3zM1.007 1h3v3h-3zM6.008 2h8.999v1H6.008zM13.008 12.5l-.5.5h2.499v-1h-2.499zM6.008 7h8.999v1H6.008zM9.008 10h-2l1.5 1.5H3.511L5.008 10H3.007l-2.5 2.5 2.5 2.5h2.001l-1.497-1.5h4.997l-1.5 1.5h2l2.5-2.5z"/></g></svg>