<svg xmlns="http://www.w3.org/2000/svg" viewBox="0 0 16 16"><style>.st0{opacity:0}.st0,.st1{fill:#f6f6f6}.st2{fill:#424242}.st3{fill:#f0eff1}</style><g id="outline"><path class="st0" d="M0 0h16v16H0z"/><path class="st1" d="M11.351 3l-.932-1H4.96c-.65 0-1.33.356-1.692 1H0v10h16V3h-4.649z"/><path class="st2" d="M3 11.021V11H2V5h1V4H1.964S1 3.875 1 4.875V11c0 1 .965 1 .965 1h1.273A2.053 2.053 0 0 1 3 11.021zM14.035 4H12.28l.72.774V5h1v6h-1v.021c-.021.31-.117.659-.299.979h1.334S15 12 15 11V4.875c0-1-.965-.875-.965-.875z"/></g><path class="st2" d="M9.985 3H4.96S4 3.03 4 4.03v6.991c0 1 .961.979.961.979h5.969c1 0 1.07-.979 1.07-.979V5.167L9.985 3zM10 10H6v-.876s1.575-1.568 1.698-1.687c.323-.308.643-.753.698-.937.055-.185.246-.844-1.245-.313C7.018 6.235 6 6.774 6 6.843V5.625c0-.047 1.308-.859 2.849-.533.263.056.502.15.657.293.42.389.476.857.418 1.226-.047.304-.343.756-.49.918C8.962 8.046 8.069 9 8.069 9H10v1z" id="icon_x5F_bg"/><g id="icon_x5F_fg"><path class="st3" d="M2 5h1v6H2zM13.031 5L13 11h1V5zM8.069 9s.896-.954 1.367-1.472c.148-.161.446-.614.493-.918.058-.368.007-.837-.413-1.226-.155-.142-.383-.237-.646-.292-1.542-.326-2.829.486-2.829.533v1.218c0-.069 1.002-.608 1.136-.656 1.49-.531 1.284.128 1.229.313-.055.184-.365.629-.687.938a404.47 404.47 0 0 0-1.678 1.686v.872h3.947V9H8.069z"/></g></svg>