<svg xmlns="http://www.w3.org/2000/svg" viewBox="0 0 16 16"><style>.st0{opacity:0}.st0,.st1{fill:#f6f6f6}.st2{fill:#424242}</style><g id="outline"><path class="st0" d="M0 0h16v16H0z"/><path class="st1" d="M15.465 0L9.404 6.06A3.004 3.004 0 0 0 7 9c0 .018.005.034.005.051C6.839 9.027 6.673 9 6.5 9c-.64 0-1.272.182-1.856.542a3.825 3.825 0 0 0-1.111 1.138c-.141.251-.376.758-.596 1.656l-.016.013C2.445 13.863 1.247 13.993 1 14H0v2h6.5c1.923 0 3.492-1.572 3.499-3.513-.001-.169-.028-.33-.052-.493.018.001.035.006.053.006a3.005 3.005 0 0 0 2.94-2.403L16 6.535V0h-.535z"/></g><g id="icon_x5F_bg"><circle class="st2" cx="10" cy="9" r="2"/><path class="st2" d="M15 1.879l-4.233 4.233a2.994 2.994 0 0 1 2.121 2.121L15 6.121V1.879zM6.5 10c-.48 0-.925.142-1.306.377a2.83 2.83 0 0 0-.852.882l-.005.009a2.44 2.44 0 0 0-.158.315 2.132 2.132 0 0 0-.135.417H4.04C3.542 15 1 15 1 15h5.5c1.378 0 2.495-1.132 2.499-2.508A2.499 2.499 0 0 0 6.5 10z"/></g></svg>