<svg xmlns="http://www.w3.org/2000/svg" width="16" height="16"><style type="text/css">.icon-canvas-transparent{opacity:0;fill:#F6F6F6;} .icon-vs-out{fill:#F6F6F6;} .icon-vs-bg{fill:#424242;} .icon-vs-fg{fill:#F0EFF1;}</style><path class="icon-canvas-transparent" d="M16 16h-16v-16h16v16z" id="canvas"/><rect class="icon-vs-out" width="16" height="16" id="outline"/><path class="icon-vs-bg" d="M15 3h-11v-2h11v2zm-12-2h-2v2h2v-2zm-2 14h2v-11h-2v11zm14-11v11h-11v-11h11zm-6 6h-4v4h4v-4zm0-5h-4v4h4v-4zm5 5h-4v4h4v-4zm0-5h-4v4h4v-4z" id="iconBg"/><g id="iconFg"><path class="icon-vs-fg" d="M9 9h-4v-4h4v4zm-4 1v4h4v-4h-4zm5 4h4v-4h-4v4zm0-9v4h4v-4h-4z"/></g></svg>