<svg xmlns="http://www.w3.org/2000/svg" viewBox="0 0 16 16"><style>.st0{opacity:0}.st0,.st1{fill:#f6f6f6}.st2{fill:#424242}.st3{fill:#f0eff1}</style><g id="outline"><path class="st0" d="M0 0h16v16H0z"/><path class="st1" d="M1 0h15v15H1z"/></g><path class="st2" d="M2 1v13h13V1H2zm12 12H3V2h11v11zM5 4H4V3h1v1zm2 0H6V3h1v1zm2 0H8V3h1v1zm2 0h-1V3h1v1zm2 0h-1V3h1v1zM5 6H4V5h1v1zm2 0H6V5h1v1zm2 0H8V5h1v1zm2 0h-1V5h1v1zm2 0h-1V5h1v1zM5 8H4V7h1v1zm2 0H6V7h1v1zm2 0H8V7h1v1zm2 0h-1V7h1v1zm2 0h-1V7h1v1zm-8 2H4V9h1v1zm2 0H6V9h1v1zm2 0H8V9h1v1zm2 0h-1V9h1v1zm2 0h-1V9h1v1zm-8 2H4v-1h1v1zm2 0H6v-1h1v1zm2 0H8v-1h1v1zm2 0h-1v-1h1v1zm2 0h-1v-1h1v1z" id="icon_x5F_bg"/><path class="st3" d="M3 2v11h11V2H3zm2 10H4v-1h1v1zm0-2H4V9h1v1zm0-2H4V7h1v1zm0-2H4V5h1v1zm0-2H4V3h1v1zm2 8H6v-1h1v1zm0-2H6V9h1v1zm0-2H6V7h1v1zm0-2H6V5h1v1zm0-2H6V3h1v1zm2 8H8v-1h1v1zm0-2H8V9h1v1zm0-2H8V7h1v1zm0-2H8V5h1v1zm0-2H8V3h1v1zm2 8h-1v-1h1v1zm0-2h-1V9h1v1zm0-2h-1V7h1v1zm0-2h-1V5h1v1zm0-2h-1V3h1v1zm2 8h-1v-1h1v1zm0-2h-1V9h1v1zm0-2h-1V7h1v1zm0-2h-1V5h1v1zm0-2h-1V3h1v1z" id="icon_x5F_fg"/></svg>