<svg xmlns="http://www.w3.org/2000/svg" viewBox="0 0 16 16"><style>.st0{opacity:0}.st0,.st1{fill:#f6f6f6}.st2{fill:#424242}.st3{fill:#f0eff1}</style><g id="outline"><path class="st0" d="M0 0h16v16H0z"/><path class="st1" d="M16 12.127l-1-.928V0H0v15h8v1h.739l.91-1h1.023l.443 1h.867l2.199-1H15v-2.006h1z"/></g><g id="icon_x5F_bg"><path class="st2" d="M7 3h1v1H7zM7 5h1v1H7zM11 5h1v1h-1zM7 9h1v1H7zM11 3h1v1h-1zM9 3h1v1H9zM7 7h1v1H7zM3 9h1v1H3zM3 7h1v1H3zM3 5h1v1H3zM3 11h1v1H3zM3 3h1v1H3zM5 7h1v1H5zM5 5h1v1H5zM5 11h1v1H5zM7 11h1v1H7zM5 3h1v1H5zM5 9h1v1H5zM9.411 6H10V5H9v.586zM11.552 8H12V7h-1v.488z"/><path class="st2" d="M8 13H2V2h11v7.344l1 .927V1H1v13h7z"/><path class="st2" d="M12.955 14.459l-1.086-2.465h2.518L9 6.996v7.231l1.629-1.788L11.766 15z"/></g><path class="st3" d="M8 12H7v-1h1v-1H7V9h1V8H7V7h1V6H7V5h1v-.42l1 1.006V5h1v1h-.589l.171.172L11 7.488V7h1v1h-.448L13 9.344V2H2v11h6v-1zm3-9h1v1h-1V3zm0 2h1v1h-1V5zM9 3h1v1H9V3zM7 3h1v1H7V3zm-3 9H3v-1h1v1zm0-2H3V9h1v1zm0-2H3V7h1v1zm0-2H3V5h1v1zm0-2H3V3h1v1zm2 8H5v-1h1v1zm0-2H5V9h1v1zm0-2H5V7h1v1zm0-2H5V5h1v1zm0-2H5V3h1v1z" id="icon_x5F_fg"/></svg>