<?xml version="1.0" encoding="utf-8"?>
<!-- Generator: Adobe Illustrator 20.0.0, SVG Export Plug-In . SVG Version: 6.00 Build 0)  -->
<svg version="1.1" xmlns="http://www.w3.org/2000/svg" xmlns:xlink="http://www.w3.org/1999/xlink" x="0px" y="0px"
	 viewBox="0 0 16 16" style="enable-background:new 0 0 16 16;" xml:space="preserve">
<style type="text/css">
	.icon_x002D_canvas_x002D_transparent{opacity:0;fill:#F6F6F6;}
	.icon_x002D_vs_x002D_out{fill:#F6F6F6;}
	.icon_x002D_vs_x002D_bg{fill:#424242;}
</style>
<g id="canvas">
	<path class="icon_x002D_canvas_x002D_transparent" d="M16,16H0V0h16V16z"/>
</g>
<g id="outline">
	<path class="icon_x002D_vs_x002D_out" d="M15.767,4.574l-0.41,1.44L14.8,8.243c-0.181,0.877-0.826,3.715-1.797,5.028V16h-8v-2.499
		c-0.803-0.509-2.152-1.683-3.212-4.21C1.11,8.606,0.655,7.333,1.339,6.42C1.724,5.907,2.337,5.6,2.979,5.6
		c0.061,0,0.119,0.002,0.178,0.007L2.55,4.391C2.04,3.382,2.446,2.146,3.454,1.636c0.287-0.145,0.606-0.221,0.925-0.221
		c0.556,0,1.073,0.22,1.451,0.6C5.849,0.901,6.761,0,7.88,0c0.742,0,1.395,0.397,1.754,0.989C9.94,0.805,10.298,0.7,10.68,0.7
		c0.976,0,1.794,0.685,1.999,1.598c0.327-0.218,0.713-0.339,1.118-0.339c0.19,0,0.38,0.026,0.564,0.079
		c0.527,0.151,0.963,0.498,1.228,0.976C15.856,3.494,15.919,4.048,15.767,4.574z"/>
</g>
<g id="iconBg">
	<path class="icon_x002D_vs_x002D_bg" d="M14.806,4.298l-0.41,1.441L13.829,8c0,0-0.826,4-1.826,4.9V15h-6v-2.1
		c0,0-1.974-0.7-3.373-4.2C2.166,8.352,1.792,7.484,2.14,7.02C2.487,6.556,3.146,6.462,3.61,6.81
		c0.072,0.054,0.131,0.118,0.186,0.185c0.007,0.001,0.012,0.002,0.018,0.003L5.621,9V8.327L3.619,4.288L3.442,3.939
		C3.181,3.422,3.39,2.79,3.906,2.528c0.518-0.261,1.148-0.054,1.411,0.464l0.159,0.315l1.532,2.919h0.012V6.25l0.351,0.677
		L6.829,2.05C6.829,1.47,7.3,1,7.88,1c0.579,0,1.05,0.47,1.05,1.05l0.892,4.877L9.63,2.75c0-0.58,0.47-1.05,1.05-1.05
		c0.579,0,1.05,0.47,1.05,1.05l0.191,4.877l0.082-0.164l0.785-3.742c0.158-0.558,0.74-0.88,1.298-0.721
		C14.644,3.16,14.966,3.741,14.806,4.298z"/>
	<g>
	</g>
	<g>
	</g>
	<g>
	</g>
	<g>
	</g>
	<g>
	</g>
	<g>
	</g>
</g>
</svg>
