<svg xmlns="http://www.w3.org/2000/svg" viewBox="0 0 16 16"><style>.icon-canvas-transparent{opacity:0;fill:#f6f6f6}.icon-vs-out{fill:#f6f6f6}.icon-vs-bg{fill:#424242}.icon-vs-fg{fill:#f0eff1}.icon-vs-action-blue{fill:#00539c}</style><path class="icon-canvas-transparent" d="M16 16H0V0h16v16z" id="canvas"/><path class="icon-vs-out" d="M9 4V1H8V0H5v1H4V0H1v1H0v6h1v1h3V7h1v1h1.586L5 9.586v4.828l1-1V16h10V4H9zm3 8h-1V9.586L9.414 8H12v4z" id="outline"/><path class="icon-vs-bg" d="M3 1H2v1H1v4h1v1h1V6h1V2H3V1zm0 4H2V3h1v2zm3 2h1V6h1V2H7V1H6v1H5v4h1v1zm0-4h1v2H6V3z" id="iconBg"/><path class="icon-vs-fg" d="M2 3h1v2H2V3zm4 0v2h1V3H6z" id="iconFg"/><path class="icon-vs-action-blue" d="M15 5v10H7v-4l-1 1v-2l2-2 2 2v2l-1-1v2h4V7H9V5h6z" id="colorAction"/></svg>