<svg xmlns="http://www.w3.org/2000/svg" viewBox="0 0 16 16"><style>.st0{opacity:0}.st0,.st1{fill:#f6f6f6}.st2{fill:#424242}.st3{fill:#f0eff1}</style><g id="outline"><path class="st0" d="M0 0h16v16H0z"/><path class="st1" d="M4.884 12c-1.517 0-2.89-1.106-3.194-2.574l-.629-3.041a2.807 2.807 0 0 1 .559-2.351C2.156 3.377 2.969 3 3.851 3h9.299c.882 0 1.694.377 2.231 1.034.529.649.733 1.506.56 2.35l-.628 3.04c-.307 1.47-1.68 2.576-3.197 2.576H4.884z"/></g><path class="st2" d="M14.604 4.666C14.26 4.243 13.729 4 13.149 4H3.851c-.58 0-1.11.243-1.455.666a1.81 1.81 0 0 0-.356 1.517l.628 3.04C2.879 10.236 3.831 11 4.884 11h7.232c1.053 0 2.005-.764 2.216-1.778l.628-3.04a1.81 1.81 0 0 0-.356-1.516zM13.352 9.02c-.112.541-.664.98-1.236.98H4.884c-.571 0-1.124-.439-1.237-.98L3.02 5.98c-.112-.541.259-.98.831-.98h9.299c.571 0 .942.439.831.98l-.629 3.04zM7.25 6.5a.75.75 0 1 1-1.5 0 .75.75 0 0 1 1.5 0zm1.25-.75a.75.75 0 1 0 0 1.5.75.75 0 0 0 0-1.5zm2 0a.75.75 0 1 0 0 1.5.75.75 0 0 0 0-1.5zm2 0a.75.75 0 1 0 0 1.5.75.75 0 0 0 0-1.5zm-5 2a.75.75 0 1 0 0 1.5.75.75 0 0 0 0-1.5zm2 0a.75.75 0 1 0 0 1.5.75.75 0 0 0 0-1.5zm-5-2a.75.75 0 1 0 0 1.5.75.75 0 0 0 0-1.5zm1 2a.75.75 0 1 0 0 1.5.75.75 0 0 0 0-1.5zm6 0a.75.75 0 1 0 0 1.5.75.75 0 0 0 0-1.5z" id="icon_x5F_bg"/><path class="st3" d="M13.149 5H3.851c-.572 0-.943.439-.831.98l.627 3.04c.113.541.666.98 1.237.98h7.232c.571 0 1.124-.439 1.236-.98l.628-3.039c.112-.542-.259-.981-.831-.981zM3.75 6.5a.75.75 0 1 1 1.5 0 .75.75 0 0 1-1.5 0zM5.5 9.25a.75.75 0 1 1 0-1.5.75.75 0 0 1 0 1.5zm.25-2.75a.75.75 0 1 1 1.5 0 .75.75 0 0 1-1.5 0zM7.5 9.25a.75.75 0 1 1 0-1.5.75.75 0 0 1 0 1.5zm.25-2.75a.75.75 0 1 1 1.5 0 .75.75 0 0 1-1.5 0zM9.5 9.25a.75.75 0 1 1 0-1.5.75.75 0 0 1 0 1.5zm.25-2.75a.75.75 0 1 1 1.5 0 .75.75 0 0 1-1.5 0zm1.75 2.75a.75.75 0 1 1 0-1.5.75.75 0 0 1 0 1.5zm1-2a.75.75 0 1 1 0-1.5.75.75 0 0 1 0 1.5z" id="icon_x5F_fg"/></svg>