<svg xmlns="http://www.w3.org/2000/svg" viewBox="0 0 16 16"><style>.st0{opacity:0}.st0,.st1{fill:#f6f6f6}.st2{fill:#424242}</style><g id="outline"><path class="st0" d="M0 0h16v16H0z"/><path class="st1" d="M16 .017H1V4.78C.391 5.33 0 6.117 0 7v6c0 1.654 1.346 3 3 3a3 3 0 0 0 1.503-.413L5 15.298v-.281h11v-15z"/></g><path class="st2" d="M9 4V1h6v3H9zM8 1H2v3h6V1zM5 9h3V6H5v3zm10 0V6H9v3h6zm0 5v-3H9v3h6zM5 11v3h3v-3H5zM1 7v6a2 2 0 0 0 2 2 1.99 1.99 0 0 0 1-.277V12H2V8h2V5.277A1.98 1.98 0 0 0 3 5a2 2 0 0 0-2 2z" id="icon_x5F_bg"/></svg>