<svg xmlns="http://www.w3.org/2000/svg" viewBox="0 0 16 16"><style>.st0{fill:#f6f6f6}.st1{fill:#424242}.st2{fill:#fc0}</style><g id="outline"><path class="st0" d="M8.309 15.5l-.75-1.5 1.48-2.959-1.038.242s-.22.058-.275.068a9.678 9.678 0 0 1-1.745.149 6.257 6.257 0 0 1-2.182-.369 5.124 5.124 0 0 1-1.745-1.071A4.898 4.898 0 0 1 .905 8.375C.636 7.73.5 7.002.5 6.209c0-.524.061-1.031.18-1.507.116-.473.29-.928.519-1.357A5.31 5.31 0 0 1 3.172 1.28c.415-.246.88-.439 1.383-.577A6.12 6.12 0 0 1 6.158.5c.716 0 1.402.11 2.039.327a5.16 5.16 0 0 1 1.7.949c.492.418.886.932 1.17 1.525.287.609.433 1.293.433 2.033 0 .532-.076 1.042-.226 1.515l-.206.651h1.123l3.25 6.5-.75 1.5H8.309z"/><path class="st0" d="M6.158 1c.661 0 1.293.101 1.88.301a4.67 4.67 0 0 1 1.535.856c.438.373.79.831 1.041 1.355.256.544.386 1.156.386 1.822 0 .48-.068.939-.202 1.365L10.386 8h1.496l3 6-.5 1H8.618l-.5-1 .892-1.782.954-1.907-2.077.486-.142.036c-.036.01-.072.019-.103.025A8.642 8.642 0 0 1 5.981 11a5.725 5.725 0 0 1-2.006-.338A4.588 4.588 0 0 1 2.4 9.697a4.412 4.412 0 0 1-1.033-1.516C1.124 7.599 1 6.935 1 6.209c0-.483.056-.949.167-1.392.104-.429.264-.845.474-1.239a4.788 4.788 0 0 1 3.044-2.392A5.654 5.654 0 0 1 6.158 1m0-1c-.611 0-1.194.074-1.734.221A6.071 6.071 0 0 0 2.918.85a5.784 5.784 0 0 0-2.16 2.259A6.315 6.315 0 0 0 .195 4.58 6.687 6.687 0 0 0 0 6.209c0 .859.149 1.652.444 2.357a5.39 5.39 0 0 0 1.267 1.855A5.59 5.59 0 0 0 3.626 11.6c.716.265 1.509.4 2.355.4a9.798 9.798 0 0 0 1.84-.157c.111-.022.194-.049.294-.072L7 14l1 2h7l1-2-3.5-7h-.749c.158-.5.249-1.054.249-1.666 0-.813-.161-1.568-.481-2.248a5.069 5.069 0 0 0-1.298-1.691A5.636 5.636 0 0 0 8.358.354 6.79 6.79 0 0 0 6.158 0z"/></g><path class="st1" d="M8.204 10.721c.164-.054.305-.104.417-.154v-.949c-.162.07-.334.14-.514.203a4.24 4.24 0 0 1-.579.158 7.212 7.212 0 0 1-1.449.137c-.624 0-1.183-.098-1.676-.293a3.62 3.62 0 0 1-1.251-.812 3.527 3.527 0 0 1-.786-1.248 4.531 4.531 0 0 1-.27-1.592c0-.605.1-1.169.303-1.691.202-.522.483-.977.842-1.36a3.93 3.93 0 0 1 1.284-.906 3.983 3.983 0 0 1 1.619-.326c.466 0 .886.049 1.247.15a3.8 3.8 0 0 1 .967.41c.282.176.518.377.715.608.198.231.359.479.486.74.126.264.215.534.274.813.056.281.084.556.084.823 0 .382-.037.726-.113 1.028-.075.305-.176.56-.298.771a1.438 1.438 0 0 1-.429.483.88.88 0 0 1-.504.165.58.58 0 0 1-.238-.05.403.403 0 0 1-.184-.174 1.054 1.054 0 0 1-.12-.339 2.872 2.872 0 0 1-.044-.546c0-.07.009-.189.02-.361.011-.169.029-.367.046-.59.017-.224.039-.463.061-.715.02-.251.042-.493.063-.719.02-.228.037-.43.054-.606.017-.177.026-.305.029-.383H7.24l-.06.666h-.023a.857.857 0 0 0-.151-.313 1.023 1.023 0 0 0-.259-.239 1.243 1.243 0 0 0-.342-.156 1.426 1.426 0 0 0-.41-.054c-.374 0-.717.079-1.025.24-.313.16-.576.382-.801.665a3.079 3.079 0 0 0-.518 1.006 4.028 4.028 0 0 0-.187 1.26c0 .382.05.716.148 1.002.099.288.234.525.4.718.17.19.365.333.593.425a1.82 1.82 0 0 0 1.267.052c.172-.058.335-.145.48-.258a1.959 1.959 0 0 0 .649-1h.029c0 .418.112.749.342.992.229.244.557.366.986.366.325 0 .645-.071.959-.22.23-.107.437-.265.632-.447L10.5 7h.189c.025-.061.057-.111.08-.175.153-.429.231-.925.231-1.491 0-.673-.13-1.278-.383-1.815a4.068 4.068 0 0 0-1.044-1.362 4.613 4.613 0 0 0-1.537-.856A5.771 5.771 0 0 0 6.158 1c-.524 0-1.012.061-1.471.186a5.1 5.1 0 0 0-1.26.525A4.735 4.735 0 0 0 1.64 3.58a5.33 5.33 0 0 0-.475 1.243A5.7 5.7 0 0 0 1 6.209c0 .726.122 1.386.368 1.975a4.37 4.37 0 0 0 1.031 1.513c.441.419.969.74 1.574.966A5.76 5.76 0 0 0 5.981 11a9.072 9.072 0 0 0 1.653-.14c.217-.041.407-.087.57-.139zm-1.263-4.37c-.061.307-.15.574-.272.798a1.568 1.568 0 0 1-.453.535 1.07 1.07 0 0 1-.636.195.855.855 0 0 1-.382-.087.923.923 0 0 1-.321-.258 1.375 1.375 0 0 1-.22-.433 2.108 2.108 0 0 1-.079-.607c0-.264.03-.535.089-.811.063-.275.152-.525.278-.752.122-.223.278-.404.463-.547.183-.142.4-.213.646-.213.137 0 .261.023.378.069.119.048.22.12.31.219.089.097.161.22.21.367.049.149.078.326.078.534 0 .353-.033.684-.089.991z" id="icon_x5F_bg"/><path class="st2" d="M11.891 8.016h-.781l-3.016 6 .515.984h5.766l.484-1-2.968-5.984zM12 14h-1v-1h1v1zm0-2h-1v-2h1v2z" id="not_x5F_bg"/><path d="M12 12h-1v-2h1v2zm0 1h-1v1h1v-1z" id="not_x5F_fg"/></svg>