<svg xmlns="http://www.w3.org/2000/svg" viewBox="0 0 16 16"><style>.st0{opacity:0}.st0,.st1{fill:#f6f6f6}.st2{fill:#424242}.st3{fill:#e51400}.st4{fill:#fff}</style><g id="outline"><path class="st0" d="M0 0h16v16H0z"/><path class="st1" d="M11.744 7.024A5.445 5.445 0 0 0 12 5.334c0-.813-.161-1.568-.481-2.248a5.069 5.069 0 0 0-1.298-1.691A5.636 5.636 0 0 0 8.358.354 6.79 6.79 0 0 0 6.158 0c-.611 0-1.194.074-1.734.221A6.071 6.071 0 0 0 2.918.85a5.784 5.784 0 0 0-2.16 2.259A6.315 6.315 0 0 0 .195 4.58 6.687 6.687 0 0 0 0 6.209c0 .859.149 1.652.444 2.357a5.39 5.39 0 0 0 1.267 1.855A5.59 5.59 0 0 0 3.626 11.6c.716.265 1.509.4 2.355.4.372 0 .711-.014 1.011-.043.02-.002.034-.006.053-.008C7.274 14.221 9.169 16 11.5 16a4.5 4.5 0 0 0 4.5-4.5c0-2.401-1.887-4.346-4.256-4.476z"/></g><path class="st2" d="M7.27 10.018c-.135.022-.264.048-.413.061a7.212 7.212 0 0 1-.778.037c-.624 0-1.183-.098-1.676-.293a3.62 3.62 0 0 1-1.251-.812 3.527 3.527 0 0 1-.786-1.248 4.531 4.531 0 0 1-.27-1.592c0-.605.1-1.169.303-1.691.202-.522.483-.977.842-1.36a3.93 3.93 0 0 1 1.284-.906 3.983 3.983 0 0 1 1.619-.326c.466 0 .886.049 1.247.15a3.8 3.8 0 0 1 .967.41c.282.176.518.377.715.608.198.231.359.479.486.74.126.264.215.534.274.813.056.281.084.556.084.823 0 .382-.037.726-.113 1.028-.075.305-.176.56-.298.771a1.438 1.438 0 0 1-.429.483.88.88 0 0 1-.504.165.58.58 0 0 1-.238-.05.403.403 0 0 1-.184-.174 1.054 1.054 0 0 1-.12-.339 2.872 2.872 0 0 1-.044-.546c0-.07.009-.189.02-.361.011-.169.029-.367.046-.59.017-.224.039-.463.061-.715.02-.251.042-.493.063-.719.02-.228.037-.43.054-.606.017-.177.026-.305.029-.383H7.24l-.06.666h-.023a.857.857 0 0 0-.151-.313 1.023 1.023 0 0 0-.259-.239 1.243 1.243 0 0 0-.342-.156 1.426 1.426 0 0 0-.41-.054c-.374 0-.717.079-1.025.24-.313.16-.576.382-.801.665a3.079 3.079 0 0 0-.518 1.006 4.028 4.028 0 0 0-.187 1.26c0 .382.05.716.148 1.002.099.288.234.525.4.718.17.19.365.333.593.425a1.82 1.82 0 0 0 1.267.052c.172-.058.335-.145.48-.258a1.959 1.959 0 0 0 .649-1h.029c0 .418.112.749.342.992.156.166.375.255.623.308a4.476 4.476 0 0 1 2.655-1.624c.039-.088.085-.167.119-.261.153-.429.231-.925.231-1.491 0-.673-.13-1.278-.383-1.815a4.068 4.068 0 0 0-1.044-1.362 4.613 4.613 0 0 0-1.537-.856A5.771 5.771 0 0 0 6.158 1c-.524 0-1.012.061-1.471.186a5.1 5.1 0 0 0-1.26.525A4.735 4.735 0 0 0 1.64 3.58a5.33 5.33 0 0 0-.475 1.243A5.7 5.7 0 0 0 1 6.209c0 .726.122 1.386.368 1.975a4.37 4.37 0 0 0 1.031 1.513c.441.419.969.74 1.574.966A5.76 5.76 0 0 0 5.981 11c.336 0 .642-.012.915-.039.059-.006.104-.016.16-.021.041-.32.111-.627.214-.922zm-.329-3.667c-.061.307-.15.574-.272.798a1.568 1.568 0 0 1-.453.535 1.07 1.07 0 0 1-.636.195.855.855 0 0 1-.382-.087.923.923 0 0 1-.321-.258 1.375 1.375 0 0 1-.22-.433 2.108 2.108 0 0 1-.079-.607c0-.264.03-.535.089-.811.063-.275.152-.525.278-.752.122-.223.278-.404.463-.547.183-.142.4-.213.646-.213.137 0 .261.023.378.069.119.048.22.12.31.219.089.097.161.22.21.367.049.149.078.326.078.534 0 .353-.033.684-.089.991z" id="icon_x5F_bg"/><path class="st3" d="M11.5 8a3.5 3.5 0 1 0 0 7 3.5 3.5 0 0 0 0-7zm1.854 4.646l-.707.707-1.147-1.146-1.146 1.147-.707-.707 1.147-1.146-1.147-1.146.707-.707 1.146 1.147 1.146-1.147.707.707-1.146 1.145 1.147 1.146z" id="not_x5F_bg"/><path class="st4" d="M13.354 10.354l-.708-.708-1.146 1.147-1.146-1.147-.708.708 1.147 1.146-1.147 1.146.708.708 1.146-1.147 1.146 1.147.708-.708-1.147-1.146z" id="not_x5F_fg"/></svg>