<svg xmlns="http://www.w3.org/2000/svg" viewBox="0 0 16 16"><style>.st0{opacity:0}.st0,.st1{fill:#f6f6f6}.st2{fill:#424242}</style><g id="outline"><path class="st0" d="M0 0h16v16H0z"/><path class="st1" d="M13.5 4H8V2H1v6H0v5h9v-2.586l2.086 2.086H15v-.414l-.713-.713A2.505 2.505 0 0 0 16 9V6.5C16 5.121 14.879 4 13.5 4zM13 7.5h-1.914L9 9.586V8H8V7h5v.5z"/></g><g id="icon_x5F_bg"><path class="st2" d="M1 9h3v3H1zM5 9h3v3H5zM2 3h5v5H2zM13.5 5H9v1h4.5c.275 0 .5.225.5.5V9c0 .275-.225.5-.5.5H12l1-1h-1.5L10 10l1.5 1.5H13l-1-1h1.5c.827 0 1.5-.673 1.5-1.5V6.5c0-.827-.673-1.5-1.5-1.5z"/></g></svg>