<svg xmlns="http://www.w3.org/2000/svg" viewBox="0 0 16 16"><style>.st0{fill:#f6f6f6}.st1{fill:#424242}.st2{fill:#f0eff1}</style><path class="st0" d="M13 8.586V3h-3V1H8V0H5v1H3v2H0v8h3v2h2v1h3v-1h.586l3 3H16v-4.414l-3-3zM4 2h2V1h1v1h2v1H4V2zm5 10H7v1H6v-1H4v-1h5v1zm-1-2H1V4h11v6H8zm7 5h-3l-1-1h2l-2.501-3h1.583L14 13v-2l1 1v3z" id="outline"/><g id="icon_x5F_bg"><path class="st1" d="M4 12h2v1h1v-1h2v-1H4zM9 2H7V1H6v1H4v1h5zM12 4H1v6h11V4zm-1 5H2V5h9v4zM14 13l-1.918-2h-1.583L13 14h-2l1 1h3v-3l-1-1z"/></g><path class="st2" d="M2 9h9V5H2z" id="icon_x5F_fg"/></svg>