<svg xmlns="http://www.w3.org/2000/svg" viewBox="0 0 16 16"><style>.st0{fill:#f6f6f6}.st1{fill:none}.st2{fill:#424242}.st3{fill:#f0eff1}.st4{fill:#e51400}.st5{display:none}.st5,.st6{fill:#fff}</style><path class="st0" d="M13.5 3.798l-1 .667v-1L7.303 0h-.606L0 4.465v6.07l1.468.978-.145.471h.537l-.372 1.328-.056-.002c-.46 0-.772.181-.95.329a1.287 1.287 0 0 0 .067 2.059c.275.202.617.302 1.045.302.512 0 .979-.128 1.387-.379.391-.24.727-.598.999-1.065.022-.039.046-.08.067-.123a1.416 1.416 0 0 0 1.059.447c.256 0 .503-.05.744-.153.2-.09.4-.228.62-.428.009.011.021.016.03.026v.21L8.697 16h.605l.504-.336A4.485 4.485 0 0 0 11.5 16a4.497 4.497 0 0 0 4.496-4.462l.004-.003v-6.07l-2.5-1.667z" id="outline"/><g id="icon_x5F_bg"><path class="st1" d="M2.353 5.301L5.5 7.398l4.648-3.097L7 2.201z"/><path class="st2" d="M4.223 10.602c.148-.555.346-.959.591-1.215.148-.16.294-.238.435-.238.031 0 .053.006.07.021.02.016.028.035.028.061 0 .021-.021.063-.06.124a.325.325 0 0 0-.06.174c0 .077.03.142.094.196a.347.347 0 0 0 .237.082.362.362 0 0 0 .26-.1.36.36 0 0 0 .104-.271.378.378 0 0 0-.157-.314C5.662 9.04 5.494 9 5.264 9c-.36 0-.688.096-.98.289-.294.191-.571.51-.835.955-.092.152-.179.251-.26.295-.082.043-.213.064-.393.063l-.119.383h.501l-.735 2.623c-.121.43-.205.695-.248.796a.962.962 0 0 1-.285.374.278.278 0 0 1-.183.063.087.087 0 0 1-.052-.017l-.017-.024c0-.011.018-.032.055-.066.035-.034.055-.087.055-.155a.238.238 0 0 0-.087-.19c-.058-.052-.141-.077-.249-.077a.47.47 0 0 0-.313.1.286.286 0 0 0-.119.231c0 .097.047.18.145.251.095.071.245.106.449.106.324 0 .612-.076.863-.231.25-.154.47-.392.657-.714.187-.321.38-.841.575-1.556l.422-1.516h.508l.127-.383h-.523z"/><path class="st2" d="M13.5 5l-2 1.333V4L7 1 1 5v5l.776.518.287-.927.129.002L2 9.465V6.268l2.693 1.795c.185-.038.374-.063.571-.063.336 0 .605.078.845.195L10.5 5.268V7l-.338.225A4.463 4.463 0 0 1 11.5 7c1.423 0 2.676.673 3.5 1.703V6l-1.5-1zm-8 2.398L2.353 5.301 7 2.201l3.148 2.1L5.5 7.398zM7.06 10.903c-.066-.13-.132-.261-.218-.382H5.313v.56c.094-.017.422-.265.486-.265.125 0 .229.049.31.148.13.152.311.617.541 1.397-.181.221-.522.592-.59.66-.11.109-.202.18-.274.213a.416.416 0 0 1-.188.039.723.723 0 0 1-.259-.08.596.596 0 0 0-.22-.052.437.437 0 0 0-.303.109.35.35 0 0 0-.119.274c0 .106.037.189.111.258a.433.433 0 0 0 .297.097.875.875 0 0 0 .338-.067c.105-.047.238-.144.398-.295.16-.149.598-.613.879-.939.107.311.316.764.395.904.079.14.17.242.272.305a.705.705 0 0 0 .295.071A4.465 4.465 0 0 1 7 11.5c0-.204.034-.399.06-.597z"/></g><g id="icon_x5F_fg"><path class="st3" d="M2 9.465l.192.128.478.007c.338-.53.682-.896 1.066-1.148.294-.194.616-.319.957-.39L2 6.268v3.197zM7 2.201l-4.647 3.1L5.5 7.398l4.648-3.097zM6.109 8.195c.092.044.194.076.273.139a1.363 1.363 0 0 1 .537 1.188h.439l.066.094c.024-.048.053-.091.076-.137V9l.567-.379a4.485 4.485 0 0 1 2.095-1.396L10.5 7V5.268L6.109 8.195z"/></g><path class="st4" d="M11.5 8a3.5 3.5 0 1 0 0 7 3.5 3.5 0 0 0 0-7zm0 4.207l-1.146 1.147-.707-.707 1.147-1.146-1.147-1.146.707-.707 1.146 1.147 1.146-1.147.707.707-1.146 1.145 1.147 1.146-.707.707-1.147-1.146z" id="not_x5F_bg"/><g id="not_x5F_fg"><path class="st5" d="M13.354 10.354l-.708-.708-1.146 1.147-1.146-1.147-.708.708 1.147 1.146-1.147 1.146.708.708 1.146-1.147 1.146 1.147.708-.708-1.147-1.146z"/><path class="st6" d="M10.354 13.354l1.146-1.147 1.146 1.147.708-.708-1.147-1.146 1.147-1.146-.708-.708-1.146 1.147-1.146-1.147-.708.708 1.147 1.146-1.147 1.146z"/></g></svg>