<svg xmlns="http://www.w3.org/2000/svg" viewBox="0 0 16 16"><style>.st0{fill:#f6f6f6}.st1{fill:#424242}.st2{fill:#f0eff1}.st3{fill:#e51400}.st4{fill:#fff}</style><path class="st0" d="M13.5 3.798l-1 .667v-1L7.303 0h-.606L0 4.465v6.07l1 .667V13H0v3h9.303l.504-.336A4.476 4.476 0 0 0 11.5 16a4.497 4.497 0 0 0 4.496-4.462l.004-.003v-6.07l-2.5-1.667z" id="outline"/><path class="st1" d="M13.5 5l-2 1.333V4L7 1 1 5v5h1V6.268L3.099 7h1.804l-2.55-1.699L7 2.201l3.148 2.1L6.098 7H7v.601l3.5-2.333V7l-.338.225A4.463 4.463 0 0 1 11.5 7c1.423 0 2.676.673 3.5 1.703V6l-1.5-1zM7 14v-3H5V9h1V8H3v1h1v2H2v3H1v1h3v-1H3v-2h3v2H5v1h3v-.703c-.08-.1-.169-.191-.24-.297H7z" id="icon_x5F_bg"/><path class="st2" d="M7 7.601l3.5-2.333V7l-.338.225a4.485 4.485 0 0 0-2.095 1.396L7.5 9v.479a4.47 4.47 0 0 0-.225.521H7V7.601zm0-5.4l-4.647 3.1L4.902 7h1.195l4.05-2.699L7 2.201zM2 7h1.099L2 6.268V7z" id="icon_x5F_fg"/><path class="st3" d="M11.5 8a3.5 3.5 0 1 0 0 7 3.5 3.5 0 0 0 0-7zm1.854 4.646l-.707.707-1.147-1.146-1.146 1.147-.707-.707 1.147-1.146-1.147-1.146.707-.707 1.146 1.147 1.146-1.147.707.707-1.146 1.145 1.147 1.146z" id="not_x5F_bg"/><path class="st4" d="M13.354 10.354l-.708-.708-1.146 1.147-1.146-1.147-.708.708 1.147 1.146-1.147 1.146.708.708 1.146-1.147 1.146 1.147.708-.708-1.147-1.146z" id="not_x5F_fg"/></svg>