<svg xmlns="http://www.w3.org/2000/svg" viewBox="0 0 16 16"><style>.st0{fill:#f6f6f6}.st1{fill:none}.st2{fill:#424242}.st3{fill:#f0eff1}.st4{fill:#fc0}</style><g id="outline"><path class="st0" d="M8.309 15.5l-.27-.54L7 14.268v-.128l-.158-.183-.018-.014-.301-.368-.39.356a1.938 1.938 0 0 1-.488.341 1.36 1.36 0 0 1-.54.109.919.919 0 0 1-.632-.226l-.491-.54-.382.595-.054.098c-.228.391-.507.69-.827.888a2.117 2.117 0 0 1-1.125.304c-.316 0-.561-.067-.748-.205A.784.784 0 0 1 .8 14.026a.958.958 0 0 1 .631-.215h.379l.158-.363.55-1.963H2l.056-.18L.5 10.268V4.732L6.849.5h.303L12 3.732v1.667l1.5-1 2 1.333v5.535l-1.068.713L15.441 14l-.75 1.5H8.309z"/><path class="st0" d="M7 1l4.5 3v2.334l1.555-1.037L13.5 5 15 6v5l-.479.319-.734.49.394.789.7 1.401-.5 1H8.618l-.072-.144-.119-.237-.221-.148L7.5 14v-.047l-.243-.281-.087-.097-.594-.725-.779.71a1.437 1.437 0 0 1-.341.248.864.864 0 0 1-.35.072.429.429 0 0 1-.318-.119l-.982-1.08-.653 1.306-.037.066c-.188.322-.41.564-.659.717-.253.155-.535.23-.863.23-.306 0-.416-.081-.455-.11-.052-.038-.139-.121-.139-.247 0-.058.012-.145.123-.235a.47.47 0 0 1 .309-.096h.003l.8.042.216-.772.372-1.328.356-1.269h-.702l-.454-.303L1 10V5l6-4m.303-1h-.606L0 4.465v6.07l1.468.978-.145.471h.537l-.372 1.328-.056-.002c-.46 0-.772.181-.95.329a1.287 1.287 0 0 0 .067 2.059c.275.202.617.302 1.045.302.512 0 .979-.128 1.387-.379.391-.24.727-.598.999-1.065.022-.039.046-.08.067-.123a1.416 1.416 0 0 0 1.059.447c.256 0 .503-.05.744-.153.2-.09.4-.228.62-.428.009.011.021.016.03.026v.21l1.151.767L8 16h7l1-2-.924-1.849.924-.616v-6.07l-2.5-1.667-1 .667v-1L7.303 0z"/></g><g id="icon_x5F_bg"><path class="st1" d="M2.353 5.301L5.5 7.398l4.648-3.097L7 2.201z"/><path class="st2" d="M8.256 10.598c-.104.052-.236.162-.397.334a7.7 7.7 0 0 0-.533.666 3.09 3.09 0 0 0-.484-1.076H5.313v.56c.094-.017.422-.265.486-.265.125 0 .229.049.31.148.13.152.311.617.541 1.397-.181.221-.522.592-.59.66-.11.109-.202.18-.274.213a.416.416 0 0 1-.188.039.723.723 0 0 1-.259-.08.596.596 0 0 0-.22-.052.437.437 0 0 0-.303.109.35.35 0 0 0-.119.274c0 .106.037.189.111.258a.433.433 0 0 0 .297.097.875.875 0 0 0 .338-.067c.105-.047.238-.144.398-.295.16-.149.598-.613.879-.939.107.311.316.764.395.904.026.046.055.081.084.119l.491-.982a9.642 9.642 0 0 1-.282-.78c.183-.293.336-.484.461-.574a.491.491 0 0 1 .289-.098c.037 0 .107.012.205.037.012.003.02.002.032.005l.324-.648c-.045-.012-.073-.041-.129-.041a.757.757 0 0 0-.334.077z"/><path class="st2" d="M4.223 10.602c.148-.555.346-.959.591-1.215.148-.16.294-.238.435-.238.031 0 .053.006.07.021.02.016.028.035.028.061 0 .021-.021.063-.06.124a.325.325 0 0 0-.06.174c0 .077.03.142.094.196a.347.347 0 0 0 .237.082.362.362 0 0 0 .26-.1.36.36 0 0 0 .104-.271.378.378 0 0 0-.157-.314C5.662 9.04 5.494 9 5.264 9c-.36 0-.688.096-.98.289-.294.191-.571.51-.835.955-.092.152-.179.251-.26.295-.082.043-.213.064-.393.063l-.119.383h.501l-.735 2.623c-.121.43-.205.695-.248.796a.962.962 0 0 1-.285.374.278.278 0 0 1-.183.063.087.087 0 0 1-.052-.017l-.017-.024c0-.011.018-.032.055-.066.035-.034.055-.087.055-.155a.238.238 0 0 0-.087-.19c-.058-.052-.141-.077-.249-.077a.47.47 0 0 0-.313.1.286.286 0 0 0-.119.231c0 .097.047.18.145.251.095.071.245.106.449.106.324 0 .612-.076.863-.231.25-.154.47-.392.657-.714.187-.321.38-.841.575-1.556l.422-1.516h.508l.127-.383h-.523z"/><path class="st2" d="M13.5 5l-2 1.333V4L7 1 1 5v5l.776.518.287-.927.129.002L2 9.465V6.268l2.693 1.795c.185-.037.374-.063.571-.063.336 0 .605.078.845.195L10.5 5.268V7h2l2.125 4.25L15 11V6l-1.5-1zm-8 2.398L2.353 5.301 7 2.201l3.148 2.1L5.5 7.398z"/><path class="st2" d="M7.5 9.721l.084.119a1.756 1.756 0 0 1 1.006-.319c.237 0 .432.048.592.115L10.5 7l-3 2v.721z"/></g><g id="icon_x5F_fg"><path class="st3" d="M7 2.201l-4.647 3.1L5.5 7.398l4.648-3.097zM2 9.465l.192.128.478.007c.338-.53.682-.896 1.066-1.148a2.69 2.69 0 0 1 .957-.389L2 6.268v3.197zM6.109 8.195c.092.044.194.077.273.139a1.363 1.363 0 0 1 .537 1.188h.439l.142.199V9l3-2V5.268L6.109 8.195z"/></g><path class="st4" d="M11.891 8.016h-.781l-3.016 6 .515.984h5.766l.484-1-2.968-5.984zM12 14h-1v-1h1v1zm0-2h-1v-2h1v2z" id="not_x5F_bg"/><path d="M12 12h-1v-2h1v2zm0 1h-1v1h1v-1z" id="not_x5F_fg"/></svg>