<svg xmlns="http://www.w3.org/2000/svg" viewBox="0 0 16 16"><style>.st0{fill:#f6f6f6}.st1{fill:#424242}.st2{fill:#f0eff1}</style><path class="st0" d="M13.5 3.798l-1 .667v-1L7.303 0h-.606L0 4.465v6.07l1 .667V13H0v3h9.303L16 11.535v-6.07z" id="outline"/><g id="icon_x5F_bg"><path class="st1" d="M7 11H5V9h1V8H3v1h1v2H2v3H1v1h3v-1H3v-2h3v2H5v1h3v-1H7z"/><path class="st1" d="M13.5 5l-2 1.333V4L7 1 1 5v5h1V6.268L3.099 7h1.803L2.353 5.301 7 2.201l3.148 2.1L6.098 7H7v.601l3.5-2.333V7l-3 2v1H8v3h1v2l6-4V6z"/></g><g id="icon_x5F_fg"><path class="st2" d="M10.5 7V5.268L7 7.601V10h.5V9zM2 7h1.099L2 6.268zM7 2.201l-4.647 3.1L4.902 7h1.196l4.05-2.699z"/></g></svg>