<svg xmlns="http://www.w3.org/2000/svg" width="16" height="16"><style type="text/css">.icon-canvas-transparent{opacity:0;fill:#F6F6F6;} .icon-vs-out{fill:#F6F6F6;} .icon-vs-bg{fill:#424242;} .icon-vs-fg{fill:#F0EFF1;} .icon-vs-green{fill:#339933;}</style><path class="icon-canvas-transparent" d="M16 16h-16v-16h16v16z" id="canvas"/><path class="icon-vs-out" d="M14 5v-2h-13v6h3.764l3 6h3.236l5-10h-2z" id="outline"/><path class="icon-vs-bg" d="M10 7h-2v-2h5v-1h-11v4h7.5l.5-1zm-3 0h-4v-2h4v2zm7.382-1l-4 8h-2l-2-4h2l1 2 3-6h2z" id="iconBg"/><path class="icon-vs-fg" d="M10.764 7h-2.764v-2h3.764l-1 2z" id="iconFg"/><g id="colorImportance"><path class="icon-vs-green" d="M7 7h-4v-2h4v2z"/></g></svg>