<svg xmlns="http://www.w3.org/2000/svg" viewBox="0 0 16 16"><style>.st0{fill:#f6f6f6}.st1{fill:#424242}.st2{fill:#f0eff1}.st3{fill:#fc0}</style><g id="outline"><path class="st0" d="M.5 15.5v-2h1v-2.565l-1-.667V4.732L6.849.5h.302L12 3.732v1.667l1.5-1 2 1.333v5.536l-1.068.713L15.441 14l-.75 1.5z"/><path class="st0" d="M7 1l4.5 3v2.334l1.555-1.037L13.5 5 15 6v5l-.479.319-.734.49.394.789.7 1.401-.5 1H1v-1h1v-3.333l-.445-.296L1 10V5l6-4m.303-1h-.606L0 4.465v6.07l1 .667V13H0v3h15l1-2-.924-1.849.924-.616v-6.07l-2.5-1.667-1 .667v-1L7.303 0z"/></g><path class="st1" d="M7.5 9l3-2L8 12v-2h-.5V9zm6-4l-2 1.333V4L7 1 1 5v5h1V6.268L3.099 7h1.804l-2.55-1.699L7 2.201l3.148 2.1L6.098 7H7v.601l3.5-2.333V7h2l2.125 4.25L15 11V6l-1.5-1zM7 11H5V9h1V8H3v1h1v2H2v3H1v1h3v-1H3v-2h3v2H5v1h2.5L7 14v-3z" id="icon_x5F_bg"/><path class="st2" d="M4.902 7l-2.55-1.699L7 2.201l3.148 2.1L6.098 7H4.902zM2 6.268V7h1.099L2 6.268zm5 1.333V10h.5V9l3-2V5.268L7 7.601z" id="icon_x5F_fg"/><path class="st3" d="M11.891 8.016h-.781l-3.016 6 .515.984h5.766l.484-1-2.968-5.984zM12 14h-1v-1h1v1zm0-2h-1v-2h1v2z" id="not_x5F_bg"/><path d="M12 12h-1v-2h1v2zm0 1h-1v1h1v-1z" id="not_x5F_fg"/></svg>