<svg xmlns="http://www.w3.org/2000/svg" viewBox="0 0 16 16"><style>.st0{opacity:0}.st0,.st1{fill:#f6f6f6}.st2{fill:#424242}.st3{fill:#f0eff1}</style><g id="outline"><path class="st0" d="M0 0h16v16H0z"/><path class="st1" d="M13.5 3.798l-1 .667v-1L7.303 0h-.606L0 4.465v6.07l1.467.978-.146.471h.539l-.373 1.328a1.462 1.462 0 0 0-1.006.327c-.31.257-.481.614-.481 1.004 0 .415.202.801.549 1.055.275.202.617.302 1.045.302.511 0 .978-.128 1.386-.379.391-.24.726-.598.999-1.065.023-.039.045-.08.068-.123.029.032.061.063.093.094.179.16.492.353.965.353.256 0 .502-.05.744-.153.2-.09.4-.228.62-.428.009.011.021.016.03.026v.21L8.697 16h.605L16 11.535v-6.07l-2.5-1.667z"/></g><g id="icon_x5F_bg"><path class="st2" d="M13.5 5l-2 1.334V4L7 1 1 5v5l.775.517.287-.926.13.002L2 9.465V6.267l2.694 1.796A2.81 2.81 0 0 1 5.263 8c.337 0 .605.078.846.194L10.5 5.267V7l-3 2v.72l.084.12c.076-.055.151-.1.226-.137.25-.122.51-.182.779-.182.493 0 .809.2.989.368.27.248.422.604.422.996 0 .382-.15.732-.422.987a1.323 1.323 0 0 1-.389.257l1.114.584-.633.928c-.294.431-.594.738-.916.939-.072.047-.151.07-.226.106L9 15l6-4V6l-1.5-1zm-8 2.398L2.353 5.301 7 2.201l3.148 2.1L5.5 7.398z"/><path class="st2" d="M5.474 12.188l.055-.061a1.615 1.615 0 0 0-.021-.064l-.438.08.05-.001c.117 0 .234.014.354.046zM4.223 10.602c.148-.555.345-.959.59-1.215.148-.16.294-.238.435-.238.03 0 .053.006.07.021.02.016.028.035.028.061 0 .021-.021.063-.06.124a.327.327 0 0 0-.058.173c0 .077.031.142.094.196a.347.347 0 0 0 .237.082.358.358 0 0 0 .259-.1.357.357 0 0 0 .105-.271.378.378 0 0 0-.157-.314C5.662 9.04 5.494 9 5.263 9c-.359 0-.686.096-.979.289-.293.191-.571.51-.835.955-.091.152-.178.251-.259.295-.082.043-.213.064-.393.063l-.119.383h.501l-.735 2.623c-.122.43-.206.695-.248.796a.962.962 0 0 1-.285.374.278.278 0 0 1-.183.063.082.082 0 0 1-.051-.017l-.019-.024c0-.011.018-.032.055-.066.035-.034.054-.087.054-.155a.24.24 0 0 0-.086-.19c-.058-.052-.141-.077-.249-.077a.469.469 0 0 0-.313.1.29.29 0 0 0-.119.231c0 .097.047.18.144.251.096.071.246.106.45.106.324 0 .612-.076.862-.231.251-.154.47-.392.658-.714.186-.321.38-.84.575-1.555l.422-1.516h.508l.126-.383h-.522z"/><path class="st2" d="M8.845 13.076l-.129-.067c-.145.183-.252.298-.32.344a.308.308 0 0 1-.164.044c-.074 0-.147-.044-.219-.13-.124-.144-.4-.77-.604-1.427.183-.293.336-.484.461-.574a.489.489 0 0 1 .289-.098c.038 0 .108.012.206.037.101.025.189.037.265.037a.369.369 0 0 0 .265-.1.334.334 0 0 0 .105-.257.344.344 0 0 0-.106-.266c-.07-.065-.172-.098-.305-.098a.752.752 0 0 0-.333.076c-.104.053-.236.163-.397.335-.12.127-.298.348-.533.666a3.09 3.09 0 0 0-.484-1.076H5.313v.56c.093-.017.421-.265.485-.265.125 0 .229.049.31.148.13.152.311.617.541 1.397-.181.221-.522.592-.59.66-.11.109-.202.18-.274.213a.416.416 0 0 1-.188.039.723.723 0 0 1-.259-.08.6.6 0 0 0-.219-.052.433.433 0 0 0-.303.109.35.35 0 0 0-.119.274c0 .106.037.189.111.258a.43.43 0 0 0 .298.097.866.866 0 0 0 .337-.067c.105-.047.238-.144.398-.295.16-.149.598-.613.879-.939.107.311.316.764.395.904.079.14.17.242.272.305a.73.73 0 0 0 .384.092c.148 0 .3-.048.453-.148.202-.125.409-.345.621-.656z"/></g><g id="icon_x5F_fg"><path class="st3" d="M7 2.201l-4.647 3.1L5.5 7.398l4.648-3.097zM6.109 8.194c.092.045.194.078.274.14a1.361 1.361 0 0 1 .538 1.187h.439l.14.199V9l3-2V5.267L6.109 8.194zM2 9.465l.192.128.478.007c.338-.53.682-.896 1.066-1.148.295-.194.617-.32.958-.389L2 6.267v3.198z"/></g></svg>