<svg xmlns="http://www.w3.org/2000/svg" viewBox="0 0 16 16"><style>.st0{opacity:0}.st0,.st1{fill:#f6f6f6}.st2{fill:#424242}</style><g id="outline"><path class="st0" d="M0 0h16v16H0z"/><path class="st1" d="M3 15V5h2.764A2.983 2.983 0 0 1 5 3c0-1.654 1.346-3 3-3s3 1.346 3 3c0 .745-.271 1.449-.764 2H13v2.5c0 1.402-.939 2.5-2.139 2.5-.887 0-1.762-.512-2.341-.851A1.006 1.006 0 0 0 8 9a1.001 1.001 0 0 0 0 2c.175 0 .34-.045.49-.133.609-.355 1.484-.867 2.371-.867 1.2 0 2.139 1.098 2.139 2.5V15H3z"/></g><path class="st2" d="M6 10a2 2 0 0 0 2 2c.363 0 .702-.098.994-.269.497-.29 1.238-.731 1.867-.731S12 11.672 12 12.5V14H4V6h3.03c.266-.527.12-1.021-.443-1.585a2 2 0 1 1 2.826 0C8.85 4.979 8.704 5.473 8.971 6H12v1.5c0 .828-.51 1.5-1.139 1.5s-1.37-.441-1.867-.731A1.959 1.959 0 0 0 8 8a2 2 0 0 0-2 2z" id="icon_x5F_bg"/></svg>