<svg xmlns="http://www.w3.org/2000/svg" viewBox="0 0 16 16"><style>.st0{fill:#f6f6f6}.st1{fill:#424242}.st2{fill:#f0eff1}</style><path class="st0" d="M13.5 3.798l-1 .667v-1L7.303 0h-.606L0 4.465v6.07l5.5 3.666 1-.666v1L8.697 16h.606L16 11.535v-6.07z" id="outline"/><path class="st1" d="M13.5 5l-2 1.334V4L7 1 1 5v5l4.5 3 2-1.334V14L9 15l6-4V6l-1.5-1zM5 11.465l-3-2V6.267l3 2v3.198zM2.353 5.301L7 2.201l3.148 2.1L5.5 7.398 2.353 5.301zM10.5 7l-3 2v1.465l-1.5 1V8.267l4.5-3V7z" id="icon_x5F_bg"/><g id="icon_x5F_fg"><path class="st2" d="M7 2.201l-4.647 3.1L5.5 7.398l4.648-3.097zM2 9.465l3 2V8.267l-3-2zM6 8.267v3.198l1.5-1V9l3-2V5.267z"/></g></svg>