<svg xmlns="http://www.w3.org/2000/svg" viewBox="0 0 16 16"><style>.st0{fill:#f6f6f6}.st1{fill:#424242}.st2{fill:#fc0}</style><path class="st0" d="M12.5 7h-2l-.584 1.167c.049-.213.084-.433.084-.667V5H7.236A2.983 2.983 0 0 0 8 3c0-1.654-1.346-3-3-3S2 1.346 2 3c0 .745.271 1.449.764 2H0v10h7.5l.5 1h7l1-2-3.5-7zm-3.645 3.29c-.296-.18-.63-.29-.994-.29-.888 0-1.763.512-2.371.867A.957.957 0 0 1 5 11a1.001 1.001 0 0 1 0-2c.175 0 .34.045.52.149.579.339 1.454.851 2.341.851.583 0 1.102-.263 1.484-.69l-.49.98z" id="outline"/><path class="st1" d="M8.405 11.189L7 14H1V6h3.03c.266-.527.12-1.021-.443-1.585a2 2 0 1 1 2.826 0C5.85 4.979 5.704 5.473 5.971 6H9v1.5C9 8.328 8.49 9 7.861 9s-1.37-.441-1.867-.731A1.959 1.959 0 0 0 5 8a2 2 0 0 0 0 4c.363 0 .702-.098.994-.269.497-.29 1.238-.731 1.867-.731.199 0 .381.072.544.189z" id="icon_x5F_bg"/><path class="st2" d="M11.891 8.016h-.781l-3.016 6 .515.984h5.766l.484-1-2.968-5.984zM12 14h-1v-1h1v1zm0-2h-1v-2h1v2z" id="not_x5F_bg"/><path d="M12 12h-1v-2h1v2zm0 1h-1v1h1v-1z" id="not_x5F_fg"/></svg>