<svg xmlns="http://www.w3.org/2000/svg" viewBox="0 0 16 16"><style>.st0{fill:#f6f6f6}.st1{fill:#424242}.st2{fill:#f0eff1}</style><path class="st0" d="M16 0v13H7v3H0V0h16z" id="outline"/><g id="icon_x5F_bg"><path class="st1" d="M1 12v3h5v-4H1v1zm2 0h1v2H3v-2zM3.5 8c-1.372 0-2.351.854-2.5 2h1c.14-.527.655-1 1.5-1 .82 0 1.353.471 1.5 1h1c-.14-1.146-1.127-2-2.5-2zM4 4h1v1H4zM7 8H6v.003c.294.287.531.622.704.997H7V8zM7 7V6H6V5H5v1H4v1h1v.327c.376.168.711.395.997.673H6V7h1zM6 4h1v1H6zM11 8V7h1V6h-1V5h-1v1H9v1h1v1zM11 8h1v1h-1zM9 8h1v1H9zM11 4h1v1h-1zM9 4h1v1H9z"/><path class="st1" d="M1 1v7.016a3.438 3.438 0 0 1 1-.678V2h12v9H7v1h8V1H1z"/></g><g id="icon_x5F_fg"><path class="st2" d="M3 12h1v2H3zM3 2H2v5.305a3.855 3.855 0 0 1 3-.003V7H4V6h1V5H4V4h1v1h1V4h1v1H6v1h1v1H6v.94c.021.019.04.04.06.06H7v1h-.257c.118.275.211.564.25.879l.007.06V11h7V2H3zm9 3h-1v1h1v1h-1v1h1v1h-1V8h-1v1H9V8h1V7H9V6h1V5H9V4h1v1h1V4h1v1z"/></g></svg>