<svg xmlns="http://www.w3.org/2000/svg" viewBox="0 0 16 16"><style>.st0{opacity:0}.st0,.st1{fill:#f6f6f6}.st2{fill:#424242}.st3{fill:#f0eff1}</style><g id="outline"><path class="st0" d="M0 0h16v16H0z"/><path class="st1" d="M16 8.969v-.938l-5-4.167v.313c-.447-.65-1.094-1.119-2.029-1.119C7.85 3.059 7.081 3.003 7 3l-2.951.001-.192-.003c-.692 0-1.64.114-2.217.655l-.097.087C.777 4.422.029 5.345.029 8.412c0 2.958 1.42 4.588 4 4.588h4.9c.069-.001 1.194-.042 2.07-1.261v1.396L16 8.969z"/></g><g id="icon_x5F_bg"><path class="st2" d="M1 8h3v1H1z"/><path class="st2" d="M15 8.5L12 6v2h-1c0-1.319-.253-2.367-.727-3h-.001c-.37-.612-.902-1-1.65-1H3.568c-.724 0-1.315.355-1.755.932v-.026L1.743 5h-.009.009c-.27.364-.569.877-.688 2h1.01c.064-.566.175-1.002.306-1.316.191-.412.395-.647.513-.671v.001c.007-.001.017-.014.024-.014h1.065c.603.659 1.037 1.701 1.037 3 0 .757-.131 1.397-.344 1.937-.162.413-.367.772-.62 1.045L4.032 11H2.908c-.138 0-.428-.361-.658-1H1.229c.107.334.249.6.424.838.024.039.043.085.068.122l.012.021.011.019h.008c.446.62 1.061 1 1.816 1H8.621c.751 0 1.287-.386 1.659-1h-.008l.011-.019c.339-.462.561-1.143.657-1.981H12v2l3-2.5zM9.666 9.937c-.162.413-.367.772-.62 1.045L9.032 11h-.023v-.023c-.021.012-.041.023-.057.023H5.273l.011-.019C5.75 10.347 6 9.309 6 8c0-1.319-.253-2.368-.727-3h3.679c.01 0 .022.01.035.018.595.661 1.023 1.694 1.023 2.982H10v.111c-.013.705-.133 1.315-.334 1.826z"/></g><g id="icon_x5F_fg"><path class="st3" d="M5.264 11h3.678c.016 0 .036-.012.057-.023V11h.023c.005-.006.009-.014.014-.019.253-.272.458-.631.62-1.045C9.869 9.396 10 8.756 10 8c0-1.289-.428-2.322-1.022-2.982C8.965 5.01 8.952 5 8.942 5H5.264c.473.632.726 1.68.726 3 0 1.309-.25 2.346-.716 2.981l-.01.019zM4.99 8.116C4.991 8.074 5 8.041 5 8c0-.043-.009-.08-.01-.123v.239zM2.24 10c.23.639.52 1 .658 1h1.124c.005-.006.009-.014.014-.019.239-.258.433-.596.59-.981H2.24zM3.964 5H2.898c-.006 0-.017.012-.024.014v-.001c-.118.024-.321.259-.513.671-.131.314-.242.75-.306 1.316h2.849c-.158-.836-.502-1.521-.94-2z"/></g></svg>