<svg xmlns="http://www.w3.org/2000/svg" viewBox="0 0 16 16"><style>.st0{fill:#f6f6f6}.st1{fill:#424242}.st2{fill:#f0eff1}</style><path class="st0" d="M16 0H0v13h.275c.62 1.744 2.268 3 4.225 3s3.604-1.256 4.225-3H16V0z" id="outline"/><g id="icon_x5F_bg"><path class="st1" d="M1 1v7.703a4.5 4.5 0 0 1 1-.943V2h12v9H8.95c.018.166.05.329.05.5s-.032.334-.05.5H15V1H1z"/><path class="st1" d="M4 4h1v1H4zM11 8h1v1h-1zM9 8h1v1H9zM9 4h1v1H9zM11 4h1v1h-1zM11 7h1V6h-1V5h-1v1H9v1h1v1h1zM6 4h1v1H6zM5 7v.05c.347.039.681.112 1 .225V7h1V6H6V5H5v1H4v1h1zM4.5 8a3.5 3.5 0 1 0-.001 6.999A3.5 3.5 0 0 0 4.5 8zm.5 6H4v-1h1v1zm1-3c0 .551-.449 1-1 1v.5H4V12a1 1 0 0 1 1-1v-1a1.095 1.095 0 0 0-.5-.102c-.248 0-.422.058-.5.102v1H3v-1c0-.58.631-1 1.5-1 .87 0 1.5.42 1.5 1v1z"/></g><g id="icon_x5F_fg"><path class="st2" d="M5 7h-.5c.171 0 .333.032.5.05V7z"/><path class="st2" d="M2 2v5.76A4.478 4.478 0 0 1 4.5 7H4V6h1V5H4V4h1v1h1V4h1v1H6v1h1v1H6v.275A4.479 4.479 0 0 1 8.95 11H14V2H2zm10 3h-1v1h1v1h-1v1h1v1h-1V8h-1v1H9V8h1V7H9V6h1V5H9V4h1v1h1V4h1v1z"/><path class="st2" d="M5 12.5H4V12a1 1 0 0 1 1-1v-1a1.095 1.095 0 0 0-.5-.102c-.248 0-.422.058-.5.102v1H3v-1c0-.58.631-1 1.5-1 .87 0 1.5.42 1.5 1v1c0 .551-.449 1-1 1v.5zm0 .5H4v1h1v-1z"/></g></svg>