<svg xmlns="http://www.w3.org/2000/svg" viewBox="0 0 16 16"><style>.st0{fill:#f6f6f6}.st1{fill:#424242}.st2{fill:#f0eff1}</style><path class="st0" d="M14 3V2h-1.171A3.006 3.006 0 0 0 10 0a3.006 3.006 0 0 0-2.829 2H6v1H4v2H0v11h16V3h-2z" id="outline"/><g id="icon_x5F_bg"><path class="st1" d="M1 10h3.001L6 11.999 7.999 10H11V6H1v4zm7-2.999h2v2H8v-2zm-3 0h2v2H5v-2zm-3 0h2v2H2v-2z"/><path class="st1" d="M13 4V3h-1a2 2 0 0 0-4 0H7l-.001 1H5v1h9v9h-2v1h3V4h-2zm-2.99 0C9.458 4 9 3.553 9 3a1 1 0 1 1 2 0c0 .553-.439 1-.99 1z"/><path class="st1" d="M7 12.414V14H5v-1.586L3.586 11H1v4h10v-4H8.414L7 12.414zM4 14H2v-2h2v2zm6 0H8v-2h2v2z"/></g><g id="icon_x5F_fg"><circle class="st2" cx="10" cy="3" r="1"/><path class="st2" d="M2 7.001h2v2H2zM5 7.001h2v2H5zM8 7.001h2v2H8zM12 5h2v9h-2zM2 12h2v2H2zM8 12h2v2H8zM5.586 13L5 12.414V14h2v-1.586L6.414 13z"/></g></svg>