<svg xmlns="http://www.w3.org/2000/svg" viewBox="0 0 16 16"><style>.st0{opacity:0}.st0,.st1{fill:#f6f6f6}.st2{fill:#424242}.st3{fill:#f0eff1}</style><g id="outline"><path class="st0" d="M0 0h16v16H0z"/><path class="st1" d="M14 3V2h-1.171A3.006 3.006 0 0 0 10 0a3.006 3.006 0 0 0-2.829 2h-1.17L6 2.999 4 3v4H1v3H0v6h16V3h-2z"/></g><g id="icon_x5F_bg"><path class="st2" d="M12 10V8H2v2h1V9h2v1h1V9h2v1h1V9h2v1z"/><path class="st2" d="M13 4V3h-1a2 2 0 0 0-4 0H7l-.001 1H5v3h1V5h8v9h-2v1h3V4h-2zm-3 0a1 1 0 1 1 0-2 1 1 0 0 1 0 2z"/><path class="st2" d="M1 15h10v-4H1v4zm7-3h2v2H8v-2zm-3 0h2v2H5v-2zm-3 0h2v2H2v-2z"/></g><g id="icon_x5F_fg"><circle class="st3" cx="10" cy="3" r="1"/><path class="st3" d="M9 9h2v1H9zM6 9h2v1H6zM3 9h2v1H3zM2 12h2v2H2zM5 12h2v2H5zM8 12h2v2H8z"/><path class="st3" d="M6 5v2h7v4h-1v3h2V5z"/></g></svg>