<svg xmlns="http://www.w3.org/2000/svg" viewBox="0 0 16 16"><style>.st0{opacity:0}.st0,.st1{fill:#f6f6f6}.st2{fill:#424242}.st3{fill:#f0eff1}</style><g id="outline"><path class="st0" d="M0 0h16v16H0z"/><path class="st1" d="M14 3V2h-1.171A3.006 3.006 0 0 0 10 0a3.006 3.006 0 0 0-2.829 2h-1.17L6 2.999 4 3v3H0v10h16V3h-2z"/></g><g id="icon_x5F_bg"><path class="st2" d="M13 4V3h-1a2 2 0 0 0-4 0H7l-.001 1H5v2h1V5h8v9h-2v1h3V4h-2zm-2.99 0C9.458 4 9 3.553 9 3a1 1 0 1 1 2 0c0 .553-.439 1-.99 1z"/><path class="st2" d="M1 15h10V7H1v8zm7-6h2v2H8V9zm0 3h2v2H8v-2zM5 9h2v2H5V9zm0 3h2v2H5v-2zM2 9h2v2H2V9zm0 3h2v2H2v-2z"/></g><g id="icon_x5F_fg"><circle class="st3" cx="10" cy="3" r="1"/><path class="st3" d="M2 9h2v2H2zM2 12h2v2H2zM5 12h2v2H5zM8 9h2v2H8zM8 12h2v2H8zM5 9h2v2H5z"/><path class="st3" d="M6 5v1h6v8h2V5z"/></g></svg>