<svg xmlns="http://www.w3.org/2000/svg" viewBox="0 0 16 16"><style>.st0{opacity:0}.st0,.st1{fill:#f6f6f6}.st2{fill:#424242}</style><g id="outline"><path class="st0" d="M0 0h16v16H0z"/><path class="st1" d="M13.252 10H10v2H4v-2h4v-.66c.476.412 1.063.64 1.732.64.64 0 1.222-.233 1.74-.697.627.57 1.276.717 1.78.717.781 0 1.47-.325 1.99-.939.489-.576.738-1.267.738-2.055 0-.836-.245-1.54-.729-2.09-.509-.582-1.201-.889-2-.889-.483 0-1.11.141-1.733.686a2.6 2.6 0 0 0-1.787-.706c-.776 0-1.463.323-1.988.934C7.25 5.515 7 6.207 7 6.996V7H4V6h2V0H0v6h1v9h9v1h6v-6h-2.748z"/></g><g id="icon_x5F_bg"><path class="st2" d="M6 8h1v1H6z"/><path class="st2" d="M11 13H3V5h2V1H1v4h1v9h9v1h4v-4h-4z"/><path class="st2" d="M4 8h1v1H4zM11.488 7.667c-.516.875-1.1 1.312-1.756 1.312-.512 0-.928-.182-1.25-.548C8.161 8.067 8 7.588 8 6.996c0-.545.167-1.013.503-1.403.335-.391.745-.586 1.229-.586.717 0 1.303.442 1.76 1.328.506-.872 1.092-1.307 1.76-1.307.512 0 .928.182 1.248.548.32.365.481.842.481 1.431 0 .545-.166 1.014-.5 1.406-.333.391-.741.587-1.229.587-.691 0-1.279-.444-1.764-1.333zm-.377-.682c-.381-.777-.84-1.166-1.379-1.166a.807.807 0 0 0-.676.331c-.168.221-.252.504-.252.85 0 .33.093.604.278.821a.9.9 0 0 0 .715.326c.48 0 .918-.387 1.314-1.162zm.758.021c.379.774.842 1.161 1.383 1.161a.802.802 0 0 0 .664-.32c.168-.214.25-.496.25-.846 0-.333-.086-.609-.26-.828a.8.8 0 0 0-.654-.329c-.5 0-.961.388-1.383 1.162z"/></g></svg>