<svg xmlns="http://www.w3.org/2000/svg" viewBox="0 0 16 16"><style>.st0{opacity:0}.st0,.st1{fill:#f6f6f6}.st2{fill:#424242}</style><g id="outline"><path class="st0" d="M0 0h16v16H0z"/><path class="st1" d="M9 13v-1.526c-.989-.752-1.679-1.787-2.248-2.642-.187-.28-.376-.564-.57-.832H2V6.843a9.96 9.96 0 0 0-.651.219L0 7.564V4.346l.679-.23c.449-.153.891-.278 1.321-.374V3h5v1.526c.988.752 1.678 1.788 2.248 2.642.187.28.376.564.569.832H14v1.157c.248-.075.47-.151.65-.219L16 8.434v3.219l-.678.23c-.449.153-.892.278-1.322.374V13H9z"/></g><path class="st2" d="M15 9.875c-.513.191-1.227.417-2 .536V9h-3v.725c-.585-.513-1.067-1.227-1.584-2.002C7.761 6.74 7.042 5.68 6 5.053V4H3v.577c-.75.102-1.443.297-2 .486v1.062a10.468 10.468 0 0 1 2-.536V7h3v-.725c.585.513 1.067 1.227 1.584 2.002.655.984 1.374 2.043 2.416 2.669V12h3v-.577c.75-.102 1.443-.296 2-.485V9.875z" id="icon_x5F_bg"/></svg>