<svg xmlns="http://www.w3.org/2000/svg" viewBox="0 0 16 16"><style>.st0{opacity:0}.st0,.st1{fill:#f6f6f6}.st2{fill:none}.st3{fill:#424242}.st4{fill:#f0eff1}</style><g id="outline"><path class="st0" d="M0 0h16v16H0z"/><path class="st1" d="M16 8.435l-1 .376V7h-2.586L16 3.414V3H7V2H1v2.01c-.111.035-1 .336-1 .336v3.219l1-.376V8h5.182c.194.268.383.552.57.832.376.564.779 1.153 1.248 1.691V14h7v-2.01c.112-.035.221-.071.324-.106l.676-.233V8.435z"/></g><g id="icon_x5F_bg"><path class="st2" d="M3 4h2v2H3z"/><path class="st3" d="M14 4H9l2.5 2.5z"/><path class="st3" d="M14 10.204V8H9v.573a30.335 30.335 0 0 1-.584-.85C7.761 6.74 7.042 5.68 6 5.053V3H2v1.768c-.366.089-.701.192-1 .294V6.12c.28-.105.622-.221 1-.324V7h4v-.725c.585.513 1.067 1.227 1.584 2.002.422.634.874 1.295 1.416 1.859V13h5v-1.768c.366-.09.701-.192 1-.295V9.88c-.28.105-.621.222-1 .324zM5 6H3V4h2v2z"/></g><path class="st4" d="M3 4h2v2H3z" id="icon_x5F_fg"/></svg>