<svg xmlns="http://www.w3.org/2000/svg" viewBox="0 0 16 16"><style>.st0{fill:#f6f6f6}.st1{fill:#424242}</style><circle class="st0" cx="8.063" cy="8" r="8" id="outline"/><path class="st1" d="M8.063 1a7 7 0 1 0 0 14 7 7 0 0 0 0-14zm0 13c-3.309 0-6-2.691-6-6 0-1.18.347-2.278.937-3.207V8h4v-.717l3 2.038V11h3.251a6.001 6.001 0 0 1-5.188 3zm0-12c2.968 0 5.432 2.167 5.91 5H10v1L7 6.054V4H3.603a5.981 5.981 0 0 1 4.46-2zm6 6c0 .278-.025.55-.063.818V7.181c.037.269.063.54.063.819z" id="icon_x5F_bg"/></svg>