<svg xmlns="http://www.w3.org/2000/svg" viewBox="0 0 16 16"><style>.st0{fill:#f6f6f6}.st1{fill:#424242}.st2{fill:#f0eff1}</style><path class="st0" d="M11.516 9.258L16 6.567V5.532L9.361 0h-.647L0 5.446v.719L3.279 16H16v-1.361l-4.484-5.381z" id="outline"/><path class="st1" d="M15 6L9 1 1 6l3 9h11l-5-6 5-3zm-2.135 8H4.721L2.198 6.431l6.718-4.199 4.362 3.635-3.793 2.276-1.001.6.747.897L12.865 14z" id="icon_x5F_bg"/><path class="st2" d="M8.916 2.232l4.362 3.635-3.793 2.276-1.001.6.747.898L12.865 14H4.721L2.198 6.431z" id="icon_x5F_fg"/></svg>