<svg xmlns="http://www.w3.org/2000/svg" viewBox="0 0 16 16"><style>.st0{opacity:0}.st0,.st1{fill:#f6f6f6}.st2{fill:#424242}.st3{fill:#00539c}.st4{fill:#f0eff1}</style><g id="outline"><path class="st0" d="M0 0h16v16H0z"/><path class="st1" d="M8 3V0H0v14h16V3z"/></g><path class="st2" d="M8 4v1h4v7H2V8H1v5h14V4H8zm6 8h-1v-1h1v1zm0-3h-1V8h1v1zm0-3h-1V5h1v1z" id="icon_x5F_bg"/><g id="color_x5F_action"><path class="st3" d="M5 1h2v6H5zM1 1h2v6H1z"/></g><g id="icon_x5F_fg"><path class="st4" d="M8 8H2v4h10V5H8zM13 11h1v1h-1zM13 8h1v1h-1zM13 5h1v1h-1z"/></g></svg>