<?xml version="1.0" encoding="iso-8859-1"?>
<!-- Generator: Adobe Illustrator 21.0.0, SVG Export Plug-In . SVG Version: 6.00 Build 0)  -->
<svg version="1.1" xmlns="http://www.w3.org/2000/svg" xmlns:xlink="http://www.w3.org/1999/xlink" x="0px" y="0px"
	 viewBox="0 0 16 16" style="enable-background:new 0 0 16 16;" xml:space="preserve">
<style type="text/css">
	.icon_x002D_canvas_x002D_transparent{opacity:0;fill:#F6F6F6;}
	.icon_x002D_vs_x002D_out{fill:#F6F6F6;}
	.icon_x002D_vs_x002D_bg{fill:#424242;}
	.icon_x002D_vs_x002D_fg{fill:#F0EFF1;}
	.icon_x002D_vs_x002D_blue{fill:#1BA1E2;}
</style>
<g id="canvas">
	<path class="icon_x002D_canvas_x002D_transparent" d="M16,16H0V0h16V16z"/>
</g>
<g id="outline">
	<path class="icon_x002D_vs_x002D_out" d="M16,5.5v3c0,1.304-1.259,2.314-3,2.477V11.5c0,1.425-1.505,2.5-3.5,2.5
		c-0.789,0-1.56-0.186-2.17-0.524l-0.252-0.14L4.414,16H0v-0.414L1.586,14H0v-4h1.586L0,8.414V8h3V5.5c0-1.303,1.259-2.314,3-2.477
		V2.5C6,1.075,7.505,0,9.5,0S13,1.075,13,2.5v0.523C14.741,3.186,16,4.197,16,5.5z"/>
</g>
<g id="iconBg">
	<path class="icon_x002D_vs_x002D_bg" d="M4,9l3,3l-3,3H2l2-2H1v-2h3L2,9H4z"/>
</g>
<g id="iconFg">
	<path class="icon_x002D_vs_x002D_fg" d="M7.575,2.5c0-0.428,0.841-0.925,1.925-0.925s1.924,0.497,1.924,0.925
		S10.584,3.425,9.5,3.425S7.575,2.928,7.575,2.5z M12.5,4.575c-1.084,0-1.926,0.497-1.926,0.925s0.842,0.925,1.926,0.925
		s1.924-0.497,1.924-0.925S13.584,4.575,12.5,4.575z M8.424,5.5c0-0.428-0.84-0.925-1.924-0.925S4.575,5.072,4.575,5.5
		S5.416,6.425,6.5,6.425S8.424,5.928,8.424,5.5z M9.5,7.575c-1.084,0-1.925,0.497-1.925,0.925S8.416,9.425,9.5,9.425
		s1.924-0.497,1.924-0.925S10.584,7.575,9.5,7.575z"/>
</g>
<g id="colorImportance">
	<path class="icon_x002D_vs_x002D_blue" d="M12.5,4c-0.172,0-0.338,0.011-0.5,0.03V2.5C12,1.672,10.881,1,9.5,1S7,1.672,7,2.5v1.53
		C6.838,4.011,6.671,4,6.5,4C5.119,4,4,4.672,4,5.5V8h0.414l1.995,1.994C6.439,9.995,6.469,10,6.5,10C6.671,10,6.838,9.989,7,9.97
		v0.616L8.414,12l-0.601,0.601C8.258,12.847,8.848,13,9.5,13c1.381,0,2.5-0.672,2.5-1.5V9.97c0.162,0.02,0.328,0.03,0.5,0.03
		c1.381,0,2.5-0.672,2.5-1.5v-3C15,4.672,13.881,4,12.5,4z M9.5,1.575c1.084,0,1.924,0.497,1.924,0.925S10.584,3.425,9.5,3.425
		S7.575,2.928,7.575,2.5S8.416,1.575,9.5,1.575z M6.5,6.425c-1.084,0-1.925-0.497-1.925-0.925S5.416,4.575,6.5,4.575
		S8.424,5.072,8.424,5.5S7.584,6.425,6.5,6.425z M9.5,9.425c-1.084,0-1.925-0.497-1.925-0.925S8.416,7.575,9.5,7.575
		s1.924,0.497,1.924,0.925S10.584,9.425,9.5,9.425z M12.5,6.425c-1.084,0-1.926-0.497-1.926-0.925s0.842-0.925,1.926-0.925
		s1.924,0.497,1.924,0.925S13.584,6.425,12.5,6.425z"/>
</g>
</svg>
