<svg xmlns="http://www.w3.org/2000/svg" viewBox="0 0 16 16"><style>.st0{fill:#f6f6f6}.st1{fill:#424242}.st2{fill:#f0eff1}</style><path class="st0" d="M16 4.874l-.672.748-8.485 8.485-.707-.707-2.121 2.122-.707-.707L2.122 16h-.456L0 14.334v-.455l1.187-1.186-.707-.708 2.12-2.12-.707-.708L11.09 0l.238.201A3.512 3.512 0 0 1 12.5 0c.935 0 1.814.364 2.475 1.025a3.513 3.513 0 0 1 .823 3.645l.202.204z" id="outline"/><path class="st1" d="M14.585 4.879a2.499 2.499 0 0 0-3.465-3.464l-.035-.036-7.778 7.778.708.708-2.122 2.12.707.707-1.414 1.415.707.707 1.415-1.415.707.708 2.121-2.122.707.707 7.425-7.424.354-.354-.037-.035zm-10.57 7.813l-.708-.707 1.415-1.414.707.707-1.414 1.414zm7.842-10.541a1.494 1.494 0 0 1 1.703.289c.461.461.553 1.146.288 1.703l-1.991-1.992zm-.772.642l2.122 2.122-.708.707L10.378 3.5l.707-.707z" id="icon_x5F_bg"/><path class="st2" d="M5.429 11.278l-1.414 1.414-.708-.707 1.415-1.414.707.707zm8.132-8.839a1.498 1.498 0 0 0-1.703-.289l1.991 1.992a1.5 1.5 0 0 0-.288-1.703zm-1.062 3.183l.708-.707-2.122-2.122-.707.707 2.121 2.122z" id="icon_x5F_fg"/></svg>