<svg xmlns="http://www.w3.org/2000/svg" viewBox="0 0 16 16"><style>.st0{fill:#f6f6f6}.st1{fill:#424242}.st2{fill:#f0eff1}</style><path class="st0" d="M16 0v6.414l-6.455 6.455-6.137 2.137-.994.994h-.828L0 14.414v-.828l.994-.994 2.137-6.137L9.586 0H16z" id="outline"/><path class="st1" d="M8.072 4.392L11.465 1H10L4 7l-2.137 6.137L1 14l1 1 .863-.863L9 12l6-6V4.536l-3.393 3.392-3.535-3.536zm-4.314 8.557l-.708-.707L4.465 8 8 11.535l-4.242 1.414zm5.727-2.898L5.95 6.515l.707-.707 3.535 3.536-.707.707z" id="icon_x5F_bg"/><path class="st2" d="M6.657 5.808l3.535 3.536-.707.707L5.95 6.515l.707-.707zM3.05 12.242l.708.707L8 11.535 4.465 8 3.05 12.242zM11.465 1L8.072 4.392l3.535 3.536L15 4.536V1h-3.535z" id="icon_x5F_fg"/></svg>