<svg xmlns="http://www.w3.org/2000/svg" viewBox="0 0 16 16"><style>.st0{fill:#f6f6f6}.st1{fill:#424242}.st2{fill:#f0eff1}</style><path class="st0" d="M16 0v4.95l-7.222 7.222-.707-.707L4.536 15l-.707-.707L2.121 16h-.828L0 14.707v-.828l1.707-1.707-.708-.707 3.537-3.536-.707-.707L11.051 0H16z" id="outline"/><path class="st1" d="M8.778 9.344L6.657 7.222 12.879 1h-1.414L5.243 7.222l.707.707-3.536 3.536.708.707L1 14.293l.707.707 2.122-2.121.707.707 3.535-3.535.707.707L15 4.536V3.122L8.778 9.344zm-4.242 2.828l-.707-.707 2.828-2.829.707.708-2.828 2.828z" id="icon_x5F_bg"/><path class="st2" d="M6.657 8.636l.707.708-2.828 2.828-.707-.707 2.828-2.829zM12.879 1L6.657 7.222l2.121 2.122L15 3.122V1h-2.121z" id="icon_x5F_fg"/></svg>