<svg xmlns="http://www.w3.org/2000/svg" width="16" height="16"><style type="text/css">.icon-canvas-transparent{opacity:0;fill:#F6F6F6;} .icon-vs-out{fill:#F6F6F6;} .icon-vs-bg{fill:#424242;}</style><path class="icon-canvas-transparent" d="M16 16h-16v-16h16v16z" id="canvas"/><path class="icon-vs-out" d="M16.091 8.883l-2.912-8.883h-3.358l-2.912 8.883.659 1.117h-1.568v-2h-4v2h-2v4h2v2h4v-2h2v1h1v1h5v-1h1v-3h-.748l1.839-3.117z" id="outline"/><g id="iconBg"><path class="icon-vs-bg" d="M12.455 1h-.636v5.176h.636v1.941h-1.909v-1.941h.636v-5.176h-.636l-2.546 7.765 1.909 3.235h3.182l1.909-3.235-2.545-7.765zm1.545 12v1h-1v1h-3v-1h-1v-1h5zm-7 0h-2v2h-2v-2h-2v-2h2v-2h2v2h2v2z"/></g></svg>