<svg xmlns="http://www.w3.org/2000/svg" viewBox="0 0 16 16"><style>.st0{fill:#f6f6f6}.st1{fill:#424242}.st2{fill:#00539c}.st3{fill:#f0eff1}</style><path class="st0" d="M14.414 9H12.47l-1.334-2h.278L13 5.414V1.586L11.414 0H4.585l-.054.054C4.356.03 4.182 0 4 0a4 4 0 0 0 0 8c.072 0 .14-.018.211-.021L3.53 9H1.586L0 10.586v3.828L1.586 16h4.828L8 14.414 9.586 16h4.828L16 14.414v-3.828L14.414 9zM8 10.586L6.847 9.434 8 7.705l1.152 1.729L8 10.586z" id="outline"/><path class="st1" d="M14 10h-2.065L9.268 6H11l1-1V2l-1-1H6.62c.328.286.605.622.825 1H11v3H7.858a3.994 3.994 0 0 1-2.22 2.642L4.065 10H2l-1 1v3l1 1h4l1-1v-3l-1-1h-.732l2.667-4h.131l2.667 4H10l-1 1v3l1 1h4l1-1v-3l-1-1zm-8 1v3H2v-3h4zm8 3h-4v-3h4v3z" id="icon_x5F_bg"/><path class="st2" d="M4 1a3 3 0 1 0 0 6 3 3 0 0 0 0-6zm0 5a2 2 0 0 1-2-2c0-.738.404-1.376 1-1.723V5h2V4H4V2a2 2 0 0 1 0 4z" id="color_x5F_action"/><g id="icon_x5F_fg"><path class="st3" d="M10 11h4v3h-4zM2 11h4v3H2zM7.445 2C7.789 2.59 8 3.268 8 4c0 .348-.058.679-.142 1H11V2H7.445z"/><g><path class="st3" d="M4 2v2h1v1H3V2.277C2.404 2.624 2 3.262 2 4a2 2 0 1 0 2-2z"/></g></g></svg>