<svg xmlns="http://www.w3.org/2000/svg" width="16" height="16"><style type="text/css">.icon-canvas-transparent{opacity:0;fill:#F6F6F6;} .icon-vs-out{fill:#F6F6F6;} .icon-vs-bg{fill:#424242;}</style><path class="icon-canvas-transparent" d="M16 16h-16v-16h16v16z" id="canvas"/><polygon class="icon-vs-out" points="16,9.037 16,8.606 13.179,0 9.821,0 7,8.605 7,9.038 7.568,10 0,10 0,14 8,14 8,15 9,15 9,16 14,16 14,15 15,15 15,12 14.252,12" id="outline"/><g id="iconBg"><path class="icon-vs-bg" d="M12.455 1h-.636v5.176h.636v1.941h-1.909v-1.941h.636v-5.176h-.636l-2.546 7.765 1.909 3.235h3.182l1.909-3.235-2.545-7.765zm1.545 12v1h-1v1h-3v-1h-1v-1h5zm-7 0h-6v-2h6v2z"/></g></svg>