<svg xmlns="http://www.w3.org/2000/svg" viewBox="0 0 16 16"><style>.st0{opacity:0;fill:#fff;stroke:#000;stroke-miterlimit:10}.st1{fill:#f6f6f6}.st2{fill:#424242}.st3{fill:#f0eff1}</style><g id="outline"><path class="st0" d="M0 0h16v16H0z"/><path class="st1" d="M10.277 0h-3.56C5.303 1.997 2.885 5.743 2.885 8c0 1.624.582 3.185 1.115 4.285V16h9v-3.727c.529-1.101 1.108-2.672 1.108-4.273 0-2.255-2.418-6.002-3.831-8z"/></g><g id="icon_x5F_bg"><path class="st2" d="M5 13h7v2H5z"/><path class="st2" d="M9.045 0H7.948c-.8 1.093-4.063 5.693-4.063 8 0 2.563 1.711 5.117 1.784 5.225l1.008.052C6.661 13.252 4.685 10.319 4.685 8c0-1.58 2.005-4.808 3.344-6.736V8H7v2h3V8H9V1.315C10.338 3.248 12.308 6.433 12.308 8c0 2.313-1.905 5.184-1.922 5.207l.939.018c.073-.107 1.784-2.662 1.784-5.225-.001-2.307-3.264-6.907-4.064-8z"/></g><path class="st3" d="M11.973 7.904C11.834 5.963 9.269 2.15 9.269 2.15l.104 5.684h1.04V10.4H8.895l-2.322-.035V7.8h1.04l.104-5.684S5.152 5.929 5.013 7.87c-.139 1.941 1.733 4.956 1.733 4.956l3.493.035c.001 0 1.872-3.016 1.734-4.957z" id="icon_x5F_fg"/></svg>