<svg xmlns="http://www.w3.org/2000/svg" viewBox="0 0 16 16"><style>.st0{opacity:0}.st0,.st1{fill:#f6f6f6}.st2{fill:#424242}</style><g id="outline"><path class="st0" d="M0 0h16v16H0z"/><path class="st1" d="M10 11l2-3-3-7h-.5v4H9v2H7V5h.5V1H7L4 8l2 3z"/><path class="st1" d="M11.202 11H12v4h-1v1H5v-1H4v-4h.798l-1.93-2.896L6.341 0h3.318l3.474 8.104L11.202 11z"/><path class="st1" d="M5 14h1v-1h2v1H6v1h4v-1h1v-2H5z"/></g><g id="icon_x5F_bg"><path class="st2" d="M10 11l2-3-3-7h-.5v4H9v2H7V5h.5V1H7L4 8l2 3zM5 14h1v-1h2v1H6v1h4v-1h1v-2H5z"/></g></svg>