<svg xmlns="http://www.w3.org/2000/svg" viewBox="0 0 16 16"><style>.st0{opacity:0}.st0,.st1{fill:#f6f6f6}.st2{fill:#424242}</style><g id="outline"><path class="st0" d="M0 0h16v16H0z"/><path class="st1" d="M2.064 15l3.118-5.525c-.411.148-.841.22-1.271.22C1.981 9.695.024 8.226 0 4.942 0 2.04 1.655.019 4.026.019c2.328 0 3.836 1.833 3.854 4.675L10.528 0h3.368l-3.067 5.437c.406-.15.848-.229 1.316-.229C14.487 5.208 16 7.069 16 9.949c0 3.423-1.993 4.955-3.969 4.955-1.908 0-3.845-1.445-3.909-4.669L5.433 15H2.064zm9.986-6.77c-.218 0-.607.613-.607 1.836-.023.934.211 1.503.417 1.715.091.092.155.1.21.1.418 0 .609-.961.609-1.854 0-.667-.133-1.797-.629-1.797zM3.93 3.042c-.254 0-.608.691-.608 1.816-.022.934.21 1.504.417 1.715.09.092.156.1.21.1.419 0 .608-.951.608-1.835.001-.184-.017-1.796-.627-1.796z"/></g><path class="st2" d="M6.88 4.742c0 2.643-1.359 3.954-2.969 3.954-1.57 0-2.893-1.253-2.911-3.761 0-2.507 1.341-3.916 3.026-3.916 1.723 0 2.854 1.35 2.854 3.723zm-4.559.115c-.038 1.601.575 2.816 1.628 2.816 1.11 0 1.608-1.196 1.608-2.835 0-1.543-.44-2.797-1.628-2.797-1.033.001-1.608 1.254-1.608 2.816zM3.776 14l7.336-13h1.072L4.849 14H3.776zM15 9.949c0 2.643-1.36 3.955-2.969 3.955-1.57 0-2.892-1.254-2.911-3.781 0-2.507 1.341-3.915 3.025-3.915C13.87 6.208 15 7.558 15 9.949zm-4.558.117c-.039 1.6.574 2.815 1.627 2.815 1.111 0 1.609-1.195 1.609-2.854 0-1.523-.441-2.797-1.629-2.797-1.032 0-1.607 1.254-1.607 2.836z" id="icon_x5F_bg"/></svg>