<svg xmlns="http://www.w3.org/2000/svg" viewBox="0 0 16 16"><style>.st0{opacity:0}.st0,.st1{fill:#f6f6f6}.st2{fill:#424242}.st3{fill:#f0eff1}.st4{fill:#fc0}</style><g id="outline"><path class="st0" d="M0 0h16v16H0z"/><path class="st1" d="M7.309 15.5l-.75-1.5 1.25-2.5H.5V.5h13v11.617L14.441 14l-.75 1.5z"/><path class="st1" d="M13 1v11.236l.106.211.777 1.553-.5 1H7.618l-.5-1 .776-1.553L8.618 11H1V1h12m1-1H0v12h7l-1 2 1 2h7l1-2-1-2V0z"/></g><g id="icon_x5F_bg"><path class="st2" d="M8 10H2V2h10v6l1 2V1H1v10h6.5z"/><path class="st2" d="M11 3H3v3.793l1.146-1.146a.49.49 0 0 1 .389-.145.49.49 0 0 1 .363.198l1.063 1.417 2.615-3.382a.496.496 0 0 1 .408-.235.493.493 0 0 1 .422.209L11 5.94V3z"/><path class="st2" d="M6.424 8.265a.501.501 0 0 1-.404.235.487.487 0 0 1-.42-.2L4.445 6.761 3 8.207V9h5.5l1-2h1.027l-1.5-2.101-2.603 3.366z"/></g><path class="st3" d="M2 2v8h6l.5-1H3v-.793l1.445-1.445L5.6 8.3a.503.503 0 0 0 .824-.034L9.028 4.9 10.527 7h.973l.5 1V2H2zm9 3.94L9.406 3.71a.497.497 0 0 0-.83.025L5.961 7.117 4.898 5.7a.495.495 0 0 0-.752-.054L3 6.793V3h8v2.94z" id="icon_x5F_fg"/><path class="st4" d="M10.914 8h-.781l-3.016 6 .516.984h5.766l.484-1L10.914 8zm.109 5.984h-1v-1h1v1zm0-2h-1v-2h1v2z" id="not_x5F_bg"/><path d="M11 12h-1v-2h1v2zm0 1h-1v1h1v-1z" id="not_x5F_fg"/></svg>