<svg xmlns="http://www.w3.org/2000/svg" viewBox="0 0 16 16"><style>.st0{fill:#f6f6f6}.st1{fill:#424242}.st2{fill:#f0eff1}</style><path class="st0" d="M4.11 1a1.961 1.961 0 0 1-.141-.754C3.969.09 3.967 0 3.967 0L1.969.003s-.004.09-.001.245a2.74 2.74 0 0 1-.14.752H0v15h16V1H4.11z" id="outline"/><g id="icon_x5F_bg"><path class="st1" d="M7.947 11.724a.498.498 0 0 1-.863.053L5.539 9.459 3.572 13H13v-2.361l-2.46-4.101-2.593 5.186z"/><path class="st1" d="M7 2v1h7v11H2V6.904c-.003-.337-.076-1.734-1-2.224V15h14V2H7z"/><path class="st1" d="M4 9V8H3v3.97L4.65 9zM7 4c0 1.014.752 1.014 1 1.014V7c-.141 0-.969.063-1 1 .002.105 0 1 0 1h-.565l1.004 1.506 2.614-5.23A.501.501 0 0 1 10.481 5c.216-.017.354.086.448.242L13 8.695V4H7z"/><g><path class="st1" d="M2.974 7.053s-.159-3.488 2.692-3.488l.004.001C2.817 3.566 2.968.045 2.968.045S3.127 3.533.276 3.533H.28c2.851 0 2.694 3.52 2.694 3.52zM5.684 8.262s-.095-2.061 1.59-2.061h.002c-1.686 0-1.596-2.078-1.596-2.078s.094 2.059-1.59 2.059h.002c1.683 0 1.592 2.08 1.592 2.08z"/></g></g><path class="st2" d="M7 3v1h6v4.695l-2.071-3.452c-.094-.156-.233-.26-.448-.243a.501.501 0 0 0-.428.276l-2.614 5.23L6.435 9H4.65L3 11.97V8H2v6h12V3H7zm6 10H3.572l1.967-3.541 1.545 2.318a.5.5 0 0 0 .863-.053l2.593-5.186L13 10.639V13z" id="icon_x5F_fg"/></svg>