<svg xmlns="http://www.w3.org/2000/svg" viewBox="0 0 16 16"><style>.st0{opacity:0}.st0,.st1{fill:#f6f6f6}.st2{fill:#424242}.st3{fill:none}.st4{fill:#f0eff1}</style><g id="outline"><path class="st0" d="M0 0h16v16H0z"/><path class="st1" d="M15 12H8v4H0V8h4V0h11v12z"/></g><g id="icon_x5F_bg"><path class="st2" d="M7 3h4v1H7zM1 12.208l.7-.933a.377.377 0 0 1 .6 0l1.158 1.543 1.717-3.005c.133-.233.518-.233.65 0L7 11.869V9H1v3.208z"/><path class="st2" d="M3.825 13.686a.375.375 0 0 1-.302.189.394.394 0 0 1-.323-.15l-1.2-1.6-1 1.333V15h6v-1.619l-1.5-2.625-1.675 2.93zM9 7h1v2H9zM11 6h1v3h-1z"/><path class="st2" d="M5 1v7h1V2h7v8H8v1h6V1z"/><path class="st2" d="M7 5h2v1H7z"/></g><g id="icon_x5F_fg"><path class="st3" d="M7 5h2v1H7zM7 3h4v1H7zM9 7h1v2H9zM11 6h1v3h-1z"/><path class="st4" d="M5.175 9.813l-1.717 3.005L2.3 11.275a.377.377 0 0 0-.6 0l-.7.933v1.25l1-1.333 1.2 1.6a.39.39 0 0 0 .323.15.378.378 0 0 0 .302-.189l1.675-2.93L7 13.381v-1.512L5.825 9.813c-.133-.233-.517-.233-.65 0zM6 2v6h2v2h5V2H6zm1 1h4v1H7V3zm0 3V5h2v1H7zm3 3H9V7h1v2zm2 0h-1V6h1v3z"/></g></svg>