<svg xmlns="http://www.w3.org/2000/svg" viewBox="0 0 16 16"><style>.st0{opacity:0}.st0,.st1{fill:#f6f6f6}.st2{fill:#424242}.st3{fill:#f0eff1}</style><g id="outline"><path class="st0" d="M0 0h16v16H0z"/><path class="st1" d="M16 1H2v5.15L0 7.203v5.57l5.124 3.206L9.16 13H16z"/></g><g id="icon_x5F_bg"><path class="st2" d="M3 2v3.686l1-.506V3h10v8h-4v1h5V2z"/><path class="st2" d="M5 4v.795l3.928 2.072 1.648-2.132a.5.5 0 0 1 .831-.026L13 6.94V4H5z"/><path class="st2" d="M11.234 5.899L10 7.761V10h3V8.66zM4.916 6.012L1.042 7.971v4.403l4.081 2.57 3.507-2.57V7.971L4.916 6.012zm-.09 4.502v3.437l-3.059-1.994v-3.15l3.059 1.707zm.249-.702L2.139 8.137 4.871 6.75l2.913 1.435-2.709 1.627zm2.958 2.205l-2.425 1.748v-3.274l2.425-1.476v3.002z"/></g><g id="icon_x5F_fg"><path class="st3" d="M13 3H4v2.18l.884-.447.116.062V4h8v2.94l-1.593-2.23a.498.498 0 0 0-.831.026L9.134 6.867l.866.348v.546l1.234-1.862L13 8.66V10h-3v1h4V3h-1zM4.826 10.514v3.437l-3.058-1.994V8.806z"/><path class="st3" d="M5.075 9.812L2.139 8.137 4.871 6.75l2.913 1.436zM8.033 12.017l-2.425 1.749v-3.275l2.425-1.475z"/></g></svg>