<svg xmlns="http://www.w3.org/2000/svg" viewBox="0 0 16 16"><style>.icon-canvas-transparent{opacity:0;fill:#f6f6f6}.icon-vs-out{fill:#f6f6f6}.icon-vs-bg{fill:#424242}.icon-vs-fg{fill:#f0eff1}</style><path class="icon-canvas-transparent" d="M16 16H0V0h16v16z" id="canvas"/><path class="icon-vs-out" d="M16 15H0V0h16v15z" id="outline"/><path class="icon-vs-bg" d="M10.54 5.538L13 9.639V12H3.572l1.967-3.541 1.545 2.318a.5.5 0 0 0 .863-.053l2.593-5.186zM15 1v13H1V1h14zm-1 1H2v11h12V2zM5.479 7a.483.483 0 0 1 .437.222l1.522 2.283 2.614-5.229A.504.504 0 0 1 10.481 4c.216-.017.354.086.448.242L13 7.695V3H3v7.97l2.063-3.712A.5.5 0 0 1 5.479 7z" id="iconBg"/><g id="iconFg"><path class="icon-vs-fg" d="M2 2v11h12V2H2zm11 1v4.695l-2.071-3.452c-.094-.156-.233-.26-.448-.243a.501.501 0 0 0-.428.276l-2.615 5.23-1.522-2.283A.482.482 0 0 0 5.479 7a.5.5 0 0 0-.416.257L3 10.97V3h10zm-9.428 9l1.967-3.541 1.545 2.318a.5.5 0 0 0 .863-.053l2.593-5.186L13 9.639V12H3.572z"/></g></svg>