<svg xmlns="http://www.w3.org/2000/svg" viewBox="0 0 16 16"><style>.st0{opacity:0}.st0,.st1{fill:#f6f6f6}.st2{fill:#424242}.st3{fill:#f0eff1}</style><g id="outline"><path class="st0" d="M0 0h16v16H0z"/><path class="st1" d="M15 0H1v8H0v8h8v-1h7z"/></g><g id="icon_x5F_bg"><path class="st2" d="M1 12.208l.7-.933a.374.374 0 0 1 .6 0l1.158 1.543 1.716-3.005c.135-.233.518-.233.652 0L7 11.869V9H1v3.208z"/><path class="st2" d="M3.826 13.686a.375.375 0 0 1-.302.189.392.392 0 0 1-.323-.15l-1.2-1.6-1 1.333V15h6v-1.619l-1.5-2.625-1.675 2.93zM6 4v2h5V4z"/><path class="st2" d="M2 1v1h1v1H2v1h1v1H2v1h1v1H2v1h2V2h9v11H8v1h6V1z"/></g><g id="icon_x5F_fg"><path class="st3" d="M5.174 9.813l-1.716 3.005L2.3 11.275a.374.374 0 0 0-.6 0l-.7.933v1.25l1-1.333 1.2 1.6a.39.39 0 0 0 .323.15.376.376 0 0 0 .302-.189l1.674-2.93L7 13.381v-1.512L5.826 9.813c-.135-.233-.517-.233-.652 0z"/><path class="st3" d="M4 2v6h4v5h5V2H4zm7 3v1H6V4h5v1z"/></g></svg>