<svg xmlns="http://www.w3.org/2000/svg" viewBox="0 0 16 16"><style>.st0{fill:#f6f6f6}.st1{fill:none}.st2{fill:#424242}.st3{fill:#f0eff1}</style><path class="st0" d="M16 0H2v4H0v12h14v-4h2z" id="outline"/><g id="icon_x5F_bg"><path class="st1" d="M12 6H2v8h10V6zm-1 7H3v-.793l1.446-1.445L5.601 12.3a.485.485 0 0 0 .42.2.504.504 0 0 0 .403-.234l2.604-3.367L11 11.66V13zm0-3.061l-1.593-2.23a.498.498 0 0 0-.831.026l-2.614 3.382L4.899 9.7a.493.493 0 0 0-.363-.198.492.492 0 0 0-.39.145L3 10.793V7h8v2.939z"/><path class="st2" d="M3 10.793l1.146-1.147a.497.497 0 0 1 .753.054l1.063 1.417 2.614-3.382a.498.498 0 0 1 .831-.026L11 9.939V7H3v3.793z"/><path class="st2" d="M6.424 12.266a.5.5 0 0 1-.403.234.485.485 0 0 1-.42-.2l-1.154-1.538L3 12.207V13h8v-1.34L9.028 8.899l-2.604 3.367zM3 1v3h1V2h10v9h1V1z"/><path class="st2" d="M1 15h12V5H1v10zm1-9h10v8H2V6zM5 4h5.371l.205-.265a.5.5 0 0 1 .831-.026l.207.291H13V3H5v1z"/></g><g id="icon_x5F_fg"><path class="st1" d="M11 11.66L9.028 8.899l-2.604 3.367a.5.5 0 0 1-.403.234.485.485 0 0 1-.42-.2l-1.154-1.538L3 12.207V13h8v-1.34z"/><path class="st1" d="M4.536 9.502c.145.01.277.082.363.198l1.063 1.417 2.614-3.382a.498.498 0 0 1 .831-.026L11 9.939V7H3v3.793l1.146-1.147a.495.495 0 0 1 .39-.144z"/><path class="st3" d="M10.984 3.5a.498.498 0 0 0-.408.235L10.371 4h1.243l-.207-.291a.496.496 0 0 0-.423-.209z"/><path class="st3" d="M4 2v2h1V3h8v1h1V2zM2 14h10V6H2v8zm1-7h8v2.939l-1.593-2.23a.498.498 0 0 0-.831.026l-2.614 3.382L4.899 9.7a.493.493 0 0 0-.363-.198.492.492 0 0 0-.39.145L3 10.793V7zm0 5.207l1.446-1.445L5.601 12.3a.485.485 0 0 0 .42.2.504.504 0 0 0 .403-.234l2.604-3.367L11 11.66V13H3v-.793z"/></g></svg>