<svg xmlns="http://www.w3.org/2000/svg" viewBox="0 0 16 16"><style>.st0{opacity:0}.st0,.st1{fill:#f6f6f6}.st2{fill:#424242}</style><g id="outline"><path class="st0" d="M0 0h16v16H0z"/><path class="st1" d="M12.5 7c.839-.733 1.5-1.799 1.5-3a4 4 0 0 0-8 0c0 .021.004.042.004.063A3.487 3.487 0 0 0 3.5 3C1.57 3 0 4.57 0 6.5c0 1.369.805 2.431 2 3V16h14V7h-3.5zM6.963 7A3.4 3.4 0 0 0 7 6.5l-.001-.011c.157.183.324.356.501.511h-.537z"/></g><g id="icon_x5F_bg"><circle class="st2" cx="10" cy="4" r="3"/><path class="st2" d="M12 8l-2 3-2-3H6.624C6.276 8.646 5.71 9.162 5 9.5v.5h2v5h8V8h-3z"/><path class="st2" d="M4 9c1.141-.231 2-1.291 2-2.5a2.5 2.5 0 1 0-5 0c0 1.209.859 2.269 2 2.5v6h1v-1h2v-1H4v-1h2v-1H4V9zm-.5-1a1.5 1.5 0 1 1 .001-3.001A1.5 1.5 0 0 1 3.5 8z"/></g></svg>