<svg xmlns="http://www.w3.org/2000/svg" viewBox="0 0 16 16"><style>.st0{opacity:0}.st0,.st1{fill:#f6f6f6}.st2{fill:#424242}.st3{fill:#f0eff1}</style><g id="outline"><path class="st0" d="M0 0h16v16H0z"/><path class="st1" d="M8.713 0L0 5.446v8.356L9.893 16h.695L16 6.259V0z"/></g><path class="st2" d="M9 1L1 6v7l9 2 5-9V1H9zm0 12.413l-7-1.215V7h7v6.413zM9 6H3.4L9 2h4.444L9 6zm5 0l-4 6.667V7l4-4.444V6z" id="icon_x5F_bg"/><g id="icon_x5F_fg"><path class="st3" d="M2 12.198l7 1.215V7H2zM9 2L3.4 6H9l4.444-4zM10 7v5.667L14 6V2.556z"/></g></svg>