<svg xmlns="http://www.w3.org/2000/svg" viewBox="0 0 16 16"><style>.st0{fill:#f6f6f6}.st1{fill:none}.st2{fill:#424242}.st3{fill:#f0eff1}</style><path class="st0" d="M16 3h-3V0H1v8.586l-1 1V16h6.414L9 13.414V13h7z" id="outline"/><g id="icon_x5F_bg"><path class="st1" d="M6.293 9H4v1h1.293zM6 12h1V9.707l-1 1zM3 11H2v2.293l1-1zM3 9.414L2.414 10H3zM6 13.586L6.586 13H6zM4 11h1v1H4zM5 14v-1H3.707l-1 1zM12 6h2v2h-2zM12 9h2v2h-2z"/><path class="st2" d="M5 4v3h1V6h2v1h1V6h2v2H9v1h2v2H9v1h6V4H5zm9 7h-2V9h2v2zm0-3h-2V6h2v2z"/><path class="st2" d="M3 7V6h1V5H3V3h9V1H2v6.586L2.586 7zM1 10v5h5l2-2V8H3l-2 2zm2-.586V10h-.586L3 9.414zM2 11h1v1.293l-1 1V11zm4 2.586V13h.586L6 13.586zM7 12H6v-1.293l1-1V12zM4 9h2.293l-1 1H4V9zm0 2h1v1H4v-1zm1 2v1H2.707l1-1H5z"/></g><g id="icon_x5F_fg"><path class="st3" d="M3 3h1v2H3zM9 9h2v2H9zM6 6h2v1H6zM12 9h2v2h-2zM12 6h2v2h-2zM9 7v1h2V6H9zM3 6h1v1H3zM2.707 14H5v-1H3.707zM3 11H2v2.293l1-1zM6 13.586L6.586 13H6zM4 11h1v1H4zM6 12h1V9.707l-1 1zM4 9v1h1.293l1-1zM3 9.414L2.414 10H3z"/></g></svg>