<svg xmlns="http://www.w3.org/2000/svg" viewBox="0 0 16 16"><style>.st0{opacity:0}.st0,.st1{fill:#f6f6f6}.st2{fill:#424242}.st3,.st4{fill:#f0eff1}.st4{stroke:#424242;stroke-width:.15;stroke-miterlimit:10}</style><g id="outline"><path class="st0" d="M0 0h16v16H0z"/><path class="st1" d="M8.598.144H7.555L1.024 3.447V8H0v8h8v-.114l.182.114h.486l6.212-4.555V3.458z"/></g><g id="icon_x5F_bg"><path class="st2" d="M1 15h6V9H1v6zm1-4.292l1.121 1.122.708-.708L2.707 10h2.585L4.17 11.121l.708.708L6 10.707v2.585L4.879 12.17l-.708.708L5.293 14H2.708l1.122-1.121-.708-.708L2 13.293v-2.585z"/><path class="st2" d="M8.077 1L2.024 4.062V8h.967V5.166l5.015 2.8v5.584L8 13.554v1.15l.4.252 5.48-4.018V4.062L8.077 1zm.251 6.106L3.493 4.348l4.513-2.292 4.799 2.364-4.477 2.686zM13 10.509L8.973 13.41V8L13 5.365v5.144z"/></g><g id="icon_x5F_fg"><path class="st3" d="M4.17 11.121L5.292 10H2.707l1.122 1.122-.708.708L2 10.708v2.585l1.122-1.122.708.708L2.708 14h2.585l-1.122-1.122.708-.708L6 13.292v-2.585l-1.122 1.122z"/><path class="st4" d="M8.006 2.056l4.799 2.364-4.477 2.686-4.835-2.758zM13 10.509L8.973 13.41V8L13 5.365z"/><path class="st3" d="M2.991 5.166V8H8v5.554l.006-.004V7.966z"/><path class="st2" d="M2.916 5.038V8h.15V5.293L7.913 8H8v5.727l.041.036v-.147l.04-.026V7.922z"/></g></svg>