<svg xmlns="http://www.w3.org/2000/svg" viewBox="0 0 16 16"><style>.st0{fill:#f6f6f6}.st1{fill:#424242}.st2{fill:#00539c}.st3{fill:#f0eff1}</style><path class="st0" d="M15 11V9h-2V5H9V2.586L6.414 0H0v9h6v2H5v5h5v-4h1v4h5v-5z" id="outline"/><path class="st1" d="M14 12v-2h-3V9h1V6H9v3h1v1H7v2H6v3h3v-3H8v-1h5v1h-1v3h3v-3h-1zm-6 2H7v-1h1v1zm2-7h1v1h-1V7zm4 7h-1v-1h1v1z" id="icon_x5F_bg"/><g id="color_x5F_action"><path class="st2" d="M4 1h1v2H4z"/><path class="st2" d="M8 3L6 1v3H3V1H1v7h7z"/></g><g id="icon_x5F_fg"><path class="st3" d="M7 13h1v1H7zM10 7h1v1h-1zM13 13h1v1h-1zM5 3H4V1H3v3h3V1H5z"/></g></svg>