<svg xmlns="http://www.w3.org/2000/svg" viewBox="0 0 16 16"><style>.icon-canvas-transparent{opacity:0;fill:#f6f6f6}.icon-vs-out{fill:#f6f6f6}.icon-vs-bg{fill:#424242}.icon-vs-fg{fill:#f0eff1}</style><path class="icon-canvas-transparent" d="M16 0v16H0V0h16z" id="canvas"/><path class="icon-vs-out" d="M16 2v12H0V2h16z" id="outline"/><path class="icon-vs-fg" d="M6 10h2v2H6v-2zm6 2h2v-2h-2v2zM9 9h2V7H9v2zm3 0h2V7h-2v2zM9 6h2V4H9v2zM6 9h2V7H6v2zm0-3h2V4H6v2zm6-2v2h2V4h-2z" id="iconFg"/><g id="iconBg"><path class="icon-vs-bg" d="M1 3v10h14V3H1zm7 9H6v-2h2v2zm0-3H6V7h2v2zm0-3H6V4h2v2zm3 3H9V7h2v2zm0-3H9V4h2v2zm3 6h-2v-2h2v2zm0-3h-2V7h2v2zm0-3h-2V4h2v2z"/></g></svg>