<svg xmlns="http://www.w3.org/2000/svg" viewBox="0 0 16 16"><style>.st0{opacity:0}.st0,.st1{fill:#f6f6f6}.st2{fill:#424242}.st3{fill:#f0eff1}</style><g id="outline"><path class="st0" d="M0 0h16v16H0z"/><path class="st1" d="M5 0v6H3.933l-.46 1.295-1.876-.892L.42 7.58l.892 1.876L0 9.922v2.123l1.312.467-.903 1.898 1.165 1.164 1.899-.902L3.944 16H16V0z"/></g><g id="icon_x5F_bg"><path class="st2" d="M6 1v5h.067l.46 1.295L7 7.07V2h7v10h-4v.045l-1.312.467.902 1.898L9 15h6V1H6zm5 13h-1v-1h1v1zm3 0h-1v-1h1v1zM6.527 14.672l.691.328h-.807z"/><g><path class="st2" d="M10 11l-2.69-.957 1.226-2.578L5.957 8.69 5 6l-.957 2.69-2.578-1.225 1.226 2.578L0 11l2.69.957-1.226 2.578 2.578-1.226L5 16l.957-2.69 2.578 1.226-1.225-2.579L10 11zm-5 2a2 2 0 1 1 .001-4.001A2 2 0 0 1 5 13z"/></g></g><path class="st3" d="M10 13h1v1h-1v-1zm3 1h1v-1h-1v1zM9.58 7.58l-.892 1.876L10 9.923V12h4V2H7v5.07l1.403-.667L9.58 7.58zM5 9a2 2 0 1 0 .001 4.001A2 2 0 0 0 5 9z" id="icon_x5F_fg"/></svg>