<svg xmlns="http://www.w3.org/2000/svg" viewBox="0 0 16 16"><style>.st0{opacity:0}.st0,.st1{fill:#f6f6f6}.st2{fill:#424242}.st3{fill:#f0eff1}</style><g id="outline"><path class="st0" d="M0 0h16v16H0z"/><path class="st1" d="M15 0v16H2v-5h2V0h11z"/></g><path class="st2" d="M5 1v8h1V2h7v10H9v1h1v1H9v1h5V1H5zm8 13h-1v-1h1v1zm-8-4v2H3v3h5v-5H5zm0 4H4v-1h1v1zm2 0H6v-1h1v1zm0-2H6v-1h1v1z" id="icon_x5F_bg"/><path class="st3" d="M9 13h1v1H9v-1zm3 1h1v-1h-1v1zM6 2v7h3v3h4V2H6zM5 13H4v1h1v-1zm2 1H6v-1h1v1zm0-2H6v-1h1v1z" id="icon_x5F_fg"/></svg>