<svg xmlns="http://www.w3.org/2000/svg" viewBox="0 0 16 16"><style>.st0{opacity:0}.st0,.st1{fill:#f6f6f6}.st2{fill:none}.st3{fill:#424242}.st4{fill:#f0eff1}</style><g id="outline"><path class="st0" d="M0 0h16v16H0z"/><path class="st1" d="M14 16H3V0h11v16z"/></g><g id="icon_x5F_bg"><path class="st2" d="M5 10v2h2a2 2 0 0 1-2-2zM8 13h1v1H8zM11 13h1v1h-1zM5 13h1v1H5z"/><path class="st2" d="M8 2H5v8a2 2 0 1 1 2 2h5V6H8V2z"/><circle class="st3" cx="7" cy="10" r="2"/><path class="st3" d="M4 1v14h9V1H4zm2 13H5v-1h1v1zm3 0H8v-1h1v1zm3 0h-1v-1h1v1zm0-2H5V2h3v4h4v6z"/></g><g id="icon_x5F_fg"><circle class="st2" cx="7" cy="10" r="2"/><path class="st4" d="M5 13h1v1H5zM8 13h1v1H8zM8 2H5v8a2 2 0 1 1 2 2h5V6H8V2z"/><path class="st4" d="M5 10v2h2a2 2 0 0 1-2-2zM11 13h1v1h-1z"/></g></svg>