<?xml version="1.0" encoding="utf-8"?>
<!-- Generator: Adobe Illustrator 18.1.1, SVG Export Plug-In . SVG Version: 6.00 Build 0)  -->
<!DOCTYPE svg PUBLIC "-//W3C//DTD SVG 1.1//EN" "http://www.w3.org/Graphics/SVG/1.1/DTD/svg11.dtd">
<svg version="1.1" xmlns="http://www.w3.org/2000/svg" xmlns:xlink="http://www.w3.org/1999/xlink" x="0px" y="0px" width="16px"
	 height="16px" viewBox="0 0 16 16" style="enable-background:new 0 0 16 16;" xml:space="preserve">
<style type="text/css">
	.icon-canvas-transparent{opacity:0;fill:#F6F6F6;}
	.icon-vs-out{fill:#F6F6F6;}
	.icon-vs-bg{fill:#424242;}
	.icon-vs-fg{fill:#F0EFF1;}
</style>
<g id="canvas">
	<path class="icon-canvas-transparent" d="M16,16H0V0h16V16z"/>
</g>
<g id="outline">
	<path class="icon-vs-out" d="M16,0v16H4.254l-4.087-2.574V7.856L5,5.413V0H16z"/>
</g>
<g id="iconBg">
	<path class="icon-vs-bg" d="M6,1v4.888l1,0.527V2h7v10H9.755v1.381L7.546,15H15V1H6z M11,14h-1v-1h1V14z M14,14h-1v-1
		h1V14z M8.755,12.874V8.471L5.041,6.512L1.167,8.471v4.403l4.081,2.57L8.755,12.874z M4.995,7.188l3.07,1.513L5.201,10.42
		L2.106,8.655L4.995,7.188z M4.971,14.561v0.016l-0.01-0.008l-0.008,0.008v-0.016l-3.167-2.064V9.178l3.209,1.793v3.573
		L4.971,14.561z M8.19,12.599l-2.576,1.856v-3.463L8.19,9.426V12.599z"/>
</g>
<g id="iconFg">
	<path class="icon-vs-fg" d="M10,13h1v1h-1V13z M13,14h1v-1h-1V14z M7,2v4.415l2.755,1.453V12H14V2H7z M4.995,7.188
		l3.07,1.513L5.201,10.42L2.106,8.655L4.995,7.188z M4.971,14.561v0.016l-0.01-0.008l-0.008,0.008v-0.016l-3.167-2.064V9.178
		l3.209,1.793v3.573L4.971,14.561z M8.19,12.599l-2.576,1.856v-3.463L8.19,9.426V12.599z"/>
</g>
</svg>
