<svg xmlns="http://www.w3.org/2000/svg" viewBox="0 0 16 16"><style>.icon-canvas-transparent{opacity:0;fill:#f6f6f6}.icon-vs-out{fill:#f6f6f6}.icon-vs-bg{fill:#424242}.icon-vs-fg{fill:#f0eff1}.icon-vs-action-blue{fill:#00539c}</style><path class="icon-canvas-transparent" d="M16 16H0V0h16v16z" id="canvas"/><path class="icon-vs-out" d="M16 2.586v10.828L14.414 15H11v1H7.609l-1.003-1h-5.02L0 13.414V2.586L1.586 1H2V0h3v1h9.414L16 2.586z" id="outline"/><path class="icon-vs-bg" d="M7 7h1v1H7V7zm3 0H9v1h1V7zm2 0h-1v1h1V7zm-3 3h1V9H9v1zm3-1h-1v1h1V9zm-1 3h1v-1h-1v1zm1-8H7v2h5V4zm-2 7.439V11h-.447l.447.439zM8 9.48V9h-.491L8 9.48zM4.601 13H2v-2.593L1 9.41V13l1 1h3.604l-1.003-1zM14 2H4V1H3v1H2L1 3v3.586l1-1V3h2v2.565l1 .979V3h9v10h-3v1h3l1-1V3l-1-1z" id="iconBg"/><path class="icon-vs-fg" d="M4.601 13H2v-2.593L4.601 13zM14 3v10h-3v-.583l-1-.978V11h-.447L8 9.48V9h-.491L5 6.544V3h9zM8 7H7v1h1V7zm2 2H9v1h1V9zm0-2H9v1h1V7zm2 4h-1v1h1v-1zm0-2h-1v1h1V9zm0-2h-1v1h1V7zm0-3H7v2h5V4zM2.586 5h.837L4 5.565V3H2v2.586L2.586 5z" id="iconFg"/><path class="icon-vs-action-blue" d="M9 11.999l-2 2L3 10l2-2 4 3.999zM3 6L1 8l1 1 2-2-1-1zm5 9l2-.001V13" id="colorImportance"/></svg>