<svg xmlns="http://www.w3.org/2000/svg" viewBox="0 0 16 16"><style>.st0{opacity:0}.st0,.st1{fill:#f6f6f6}.st2{fill:#424242}.st3{fill:#f0eff1}</style><g id="outline"><path class="st0" d="M0 0h16v16H0z"/><path class="st1" d="M14 0v16H3v-1H2v-2.5l-2-2L2.5 8H3V0h11z"/></g><path class="st2" d="M4 1v7h1V2h7v10H8.5l1.5 1.5L8.5 15H13V1H4zm8 13h-1v-1h1v1zm-3.483-.5L7 15H6l1-1H3v-1h4l-1-1h1l1.517 1.5zM4 12l-1-1h4v-1H3l1-1H3l-1.483 1.5L3 12h1z" id="icon_x5F_bg"/><path class="st3" d="M11 13h1v1h-1v-1zM5 2v6h1L5 9h3v2.5l.5.5H12V2H5z" id="icon_x5F_fg"/></svg>