<svg xmlns="http://www.w3.org/2000/svg" viewBox="0 0 16 16"><style>.st0{opacity:0}.st0,.st1{fill:#f6f6f6}.st2{fill:#424242}.st3{fill:#f0eff1}</style><g id="outline"><path class="st0" d="M0 0h16v16H0z"/><path class="st1" d="M13 16H2V0h11v16z"/></g><path class="st2" d="M10 4H7V3h3v1zm0 2H6V5h4v1zM3 1v14h9V1H3zm2 13H4v-1h1v1zm3 0H7v-1h1v1zm3 0h-1v-1h1v1zm0-2H4V2h7v10z" id="icon_x5F_bg"/><path class="st3" d="M11 14h-1v-1h1v1zm-3-1H7v1h1v-1zm-3 0H4v1h1v-1zm6-11v10H4V2h7zm-1 3H6v1h4V5zm0-2H7v1h3V3z" id="icon_x5F_fg"/></svg>