<svg xmlns="http://www.w3.org/2000/svg" viewBox="0 0 16 16"><style>.st0{opacity:0}.st0,.st1{fill:#f6f6f6}.st2{fill:#424242}.st3{fill:#f0eff1}</style><g id="outline"><path class="st0" d="M0 0h16v16H0z"/><path class="st1" d="M15 0v16H2V5h2V0h11z"/></g><path class="st2" d="M3 6v9h4V6H3zm3 8H4v-1h2v1zm0-2H4v-1h2v1zm0-3H4V7h2v2zM5 1v4h1V2h7v10H8v3h6V1H5zm5 13H9v-1h1v1zm3 0h-1v-1h1v1z" id="icon_x5F_bg"/><path class="st3" d="M13 2v10H8V5H6V2h7zM9 14h1v-1H9v1zm3 0h1v-1h-1v1zm-6-1H4v1h2v-1zm0-1H4v-1h2v1zm0-3H4V7h2v2z" id="icon_x5F_fg"/></svg>