<?xml version="1.0" encoding="utf-8"?>
<!-- Generator: Adobe Illustrator 18.1.1, SVG Export Plug-In . SVG Version: 6.00 Build 0)  -->
<!DOCTYPE svg PUBLIC "-//W3C//DTD SVG 1.1//EN" "http://www.w3.org/Graphics/SVG/1.1/DTD/svg11.dtd">
<svg version="1.1" xmlns="http://www.w3.org/2000/svg" xmlns:xlink="http://www.w3.org/1999/xlink" x="0px" y="0px" width="16px"
	 height="16px" viewBox="0 0 16 16" style="enable-background:new 0 0 16 16;" xml:space="preserve">
<style type="text/css">
	.icon-canvas-transparent{opacity:0;fill:#F6F6F6;}
	.icon-vs-out{fill:#F6F6F6;}
	.icon-vs-bg{fill:#424242;}
	.icon-vs-fg{fill:#F0EFF1;}
</style>
<g id="canvas">
	<path class="icon-canvas-transparent" d="M16,16H0V0h16V16z"/>
</g>
<g id="outline">
	<path class="icon-vs-out" d="M14,16H3V0h11V16z"/>
</g>
<g id="iconBg">
	<path class="icon-vs-bg" d="M4,1v14h9V1H4z M6,14H5v-1h1V14z M9,14H8v-1h1V14z M12,14h-1v-1h1V14z M12,12H5V2h7V12z"/>
</g>
<g id="iconFg">
	<path class="icon-vs-fg" d="M9,14H8v-1h1V14z M12,13h-1v1h1V13z M6,13H5v1h1V13z M12,2H5v10h7V2z"/>
</g>
</svg>
