<svg xmlns="http://www.w3.org/2000/svg" viewBox="0 0 16 16"><style>.st0{opacity:0}.st0,.st1{fill:#f6f6f6}.st2{fill:#424242}.st3{fill:#f0eff1}.st4{fill:#fc0}</style><g id="outline"><path class="st0" d="M0 0h16v16H0z"/><path class="st1" d="M3 16V1h10v9.118l2.191 4.132-.5 1.75z"/><path class="st1" d="M13 1v9.236l.106.211L14.882 14l-.5 1H4V1h9m1-1H3v16h12l1-2-2-4V0z"/></g><path class="st2" d="M7 14l1-2H5V2h7v5h.5l.5 1V1H4v14h3.5L7 14zm-1 0H5v-1h1v1z" id="icon_x5F_bg"/><g id="icon_x5F_fg"><path class="st3" d="M5 13h1v1H5zM10.5 7H12V2H5v10h3z"/></g><path class="st4" d="M11.891 8.016h-.781l-3.016 6 .515.984h5.766l.484-1-2.968-5.984zM12 14h-1v-1h1v1zm0-2h-1v-2h1v2z" id="not_x5F_bg"/><path d="M12 12h-1v-2h1v2zm0 1h-1v1h1v-1z" id="not_x5F_fg"/></svg>