<svg xmlns="http://www.w3.org/2000/svg" viewBox="0 0 16 16"><style>.st0{opacity:0}.st0,.st1{fill:#f6f6f6}.st2{fill:#424242}.st3{fill:#f0eff1}</style><g id="outline"><path class="st0" d="M0 0h16v16H0z"/><path class="st1" d="M9 3V0H0v14h16V3z"/></g><g id="icon_x5F_bg"><path class="st2" d="M9 4v1h3v7H2V9H1v4h14V4H9zm5 8h-1v-1h1v1zm0-3h-1V8h1v1zm0-3h-1V5h1v1z"/><path class="st2" d="M8 1H1v7h7V1zM2 7l1.5-1.5 2 1.5H2zm5-.5L3.5 4 2 5.5V2h5v4.5z"/><circle class="st2" cx="5.75" cy="3.25" r=".75"/></g><g id="icon_x5F_fg"><path class="st3" d="M13 11h1v1h-1zM9 9H2v3h10V5H9zM13 8h1v1h-1zM13 5h1v1h-1z"/><path class="st3" d="M3.5 5.5L2 7h3.5z"/><path class="st3" d="M7 6.5V2H2v3.5L3.5 4 7 6.5zm-1.25-4a.75.75 0 1 1 0 1.5.75.75 0 0 1 0-1.5z"/></g></svg>