<svg xmlns="http://www.w3.org/2000/svg" viewBox="0 0 16 16"><style>.st0{fill:#f6f6f6}.st1{fill:none}.st2{fill:#424242}.st3{fill:#f0eff1}</style><path class="st0" d="M16 0v16H2.586L0 13.414v-.828L2.586 10H5V0h11z" id="outline"/><g id="icon_x5F_bg"><path class="st1" d="M13 13h1v1h-1z"/><path class="st2" d="M4 11h4v4H4zM3 15v-1l-1-1 1-1v-1l-2 2zM9 15l2-2-2-2v1l1 1-1 1z"/><path class="st2" d="M6 1v9h1V2h7v10h-2.586l.586.586v.828L10.414 15H15V1H6zm8 13h-1v-1h1v1z"/></g><g id="icon_x5F_fg"><path class="st3" d="M13 13h1v1h-1zM7 2v8h2.414l2 2H14V2z"/></g></svg>