<svg xmlns="http://www.w3.org/2000/svg" viewBox="0 0 16 16"><style>.st0{opacity:0}.st0,.st1{fill:#f6f6f6}.st2{fill:#424242}.st3{fill:#f0eff1}</style><g id="outline"><path class="st0" d="M0 0h16v16H0z"/><path class="st1" d="M5 0v5H3v3H0v8h16V0z"/></g><g id="icon_x5F_bg"><path class="st2" d="M6 1v4h1V2h7v10h-2v3h3V1H6zm8 13h-1v-1h1v1z"/><path class="st2" d="M8 8V6H4v2h1V7h2v1zM1 9v2h2v-1h1v1h4v-1h1v1h2V9zM9 13H8v-1H4v1H3v-1H1v3h10v-3H9z"/></g><g id="icon_x5F_fg"><path class="st3" d="M13 13h1v1h-1zM9 10H8v1H4v-1H3v1H1v1h2v1h1v-1h4v1h1v-1h2v-1H9zM7 2v3h2v3h3v4h2V2z"/></g></svg>