<svg xmlns="http://www.w3.org/2000/svg" viewBox="0 0 16 16"><style>.st0{fill:#f6f6f6}.st1{fill:#424242}.st2{fill:#f0eff1}</style><path class="st0" d="M5 0v6a5 5 0 1 0 0 10h11V0H5z" id="outline"/><g id="icon_x5F_bg"><path class="st1" d="M6 1v5.101c.349.071.682.182 1 .321V2h7v10H9.899a4.987 4.987 0 0 1-1.927 3H15V1H6zm5 13h-1v-1h1v1zm3 0h-1v-1h1v1z"/><path class="st1" d="M5 7a4 4 0 1 0 0 8 4 4 0 0 0 0-8zm0 6.666c-.231 0-.452-.039-.668-.094A2.659 2.659 0 0 0 6.333 11c0-1.24-.852-2.274-2.001-2.572.216-.055.437-.094.668-.094a2.666 2.666 0 1 1 0 5.332z"/></g><g id="icon_x5F_fg"><path class="st2" d="M10 13h1v1h-1zM7 2v4.422A4.996 4.996 0 0 1 9.899 12H14V2H7zM13 13h1v1h-1zM5 8.334c-.231 0-.452.039-.668.094A2.662 2.662 0 0 1 6.333 11a2.659 2.659 0 0 1-2.001 2.572c.216.055.437.094.668.094a2.665 2.665 0 1 0 0-5.332z"/></g></svg>