<svg xmlns="http://www.w3.org/2000/svg" viewBox="0 0 16 16"><style>.st0{opacity:0}.st0,.st1{fill:#f6f6f6}.st2{fill:#424242}</style><g id="outline"><path class="st0" d="M0 0h16v16H0z"/><path class="st1" d="M13 4H5v.78A2.98 2.98 0 0 0 3 4H0v8h3v-2a2.98 2.98 0 0 0 2-.78V12h8v-2c1.654 0 3-1.346 3-3s-1.346-3-3-3z"/><path class="st2" d="M9 5v2H7V5H6v6h1V8h2v3h1V5zM3 5H1v6h1V9h1a2 2 0 0 0 0-4zm0 3H2V6h1a1.001 1.001 0 0 1 0 2zM13 5h-2v6h1V9h1a2 2 0 0 0 0-4zm0 3h-1V6h1a1.001 1.001 0 0 1 0 2z"/></g></svg>