<svg xmlns="http://www.w3.org/2000/svg" viewBox="0 0 16 16"><style>.icon-canvas-transparent{opacity:0;fill:#f6f6f6}.icon-vs-out{fill:#f6f6f6}.icon-vs-bg{fill:#424242}.icon-vs-fg{fill:#f0eff1}</style><path class="icon-canvas-transparent" d="M16 16H0V0h16v16z" id="canvas"/><path class="icon-vs-out" d="M0 0v13h3v3h1.443l3.6-3H16V0H0z" id="outline"/><path class="icon-vs-fg" d="M2 2v9h3v1.933L7.319 11H14V2H2zm8.008 6.001L8.862 9 8 7.074 7.137 9 6 8.001l1.491-1.284L5.5 6.528 6 5.001l1.694 1-.431-2h1.474l-.432 2 1.694-1 .5 1.527-1.99.189 1.499 1.284z" id="iconFg"/><g id="iconBg"><path class="icon-vs-bg" d="M4 15.067V12H1V1h14v11H7.681L4 15.067zM2 11h3v1.933L7.319 11H14V2H2v9zm8.5-4.472l-1.991.189 1.499 1.284L8.862 9 8 7.074 7.137 9 6 8.001l1.491-1.284L5.5 6.528 6 5.001l1.694 1-.431-2h1.474l-.432 2 1.694-1 .501 1.527z"/></g></svg>