<svg xmlns="http://www.w3.org/2000/svg" viewBox="0 0 16 16" enable-background="new 0 0 16 16"><style type="text/css">.icon-canvas-transparent{opacity:0;fill:#F6F6F6;} .icon-vs-out{fill:#F6F6F6;} .icon-vs-bg{fill:#424242;}</style><path class="icon-canvas-transparent" d="M16 16h-16v-16h16v16z" id="canvas"/><path class="icon-vs-out" d="M16 7.892l-3.086 3.086h-.853l-1.694-1.697.282-.281h-5.321l.305.305-1.695 1.695h-.852l-3.086-3.086v-.828l3.478-3.478 2.122 2.121-.271.271h5.364l-.293-.293 2.121-2.121 3.479 3.478v.828z" id="outline"/><g id="iconBg"><path class="icon-vs-bg" d="M11 8h-6v-1h6v1zm-7.477 2l.695-.695-1.804-1.805 1.771-1.771-.707-.707-2.478 2.478 2.5 2.5h.023zm8.977-.022l2.5-2.5-2.478-2.478-.707.707 1.771 1.771-1.805 1.805.695.695h.024z"/></g></svg>