<svg xmlns="http://www.w3.org/2000/svg" viewBox="0 0 16 16"><style>.icon-canvas-transparent{opacity:0;fill:#f6f6f6}.icon-vs-out{fill:#f6f6f6}.icon-vs-bg{fill:#424242}.icon-vs-fg{fill:#f0eff1}</style><path class="icon-canvas-transparent" d="M16 16H0V0h16v16z" id="canvas"/><path class="icon-vs-out" d="M0 0v13h3v3h1.443l3.6-3H16V0H0z" id="outline"/><path class="icon-vs-fg" d="M2 2v9h3v1.933L7.319 11H14V2H2zm3 7.5l-.5.5L3 8.5 4.5 7l.5.5-1 1 1 1zm0-4l-.5.5L3 4.5 4.5 3l.5.5-1 1 1 1zM10 9H6V8h4v1zm0-4H6V4h4v1zm1.5 5l-.5-.5 1-1-1-1 .5-.5L13 8.5 11.5 10zm0-4l-.5-.5 1-1-1-1 .5-.5L13 4.5 11.5 6z" id="iconFg"/><g id="iconBg"><path class="icon-vs-bg" d="M4 15.067V12H1V1h14v11H7.681L4 15.067zM2 11h3v1.933L7.319 11H14V2H2v9zm3-7.5l-1 1 1 1-.5.5L3 4.5 4.5 3l.5.5zm6.5-.5L13 4.5 11.5 6l-.5-.5 1-1-1-1 .5-.5zM6 4h4v1H6V4zM5 7.5l-1 1 1 1-.5.5L3 8.5 4.5 7l.5.5zm6.5-.5L13 8.5 11.5 10l-.5-.5 1-1-1-1 .5-.5zM6 8h4v1H6V8z"/></g></svg>