<svg xmlns="http://www.w3.org/2000/svg" viewBox="0 0 16 16"><style>.st0{opacity:0}.st0,.st1{fill:#f6f6f6}.st2{fill:none}.st3{fill:#424242}.st4{fill:#f0eff1}</style><g id="outline"><path class="st0" d="M0 0h16v16H0z"/><path class="st1" d="M0 2h16v12H0z"/></g><g id="icon_x5F_bg"><path class="st2" d="M2 12h12V4H2v8zm8-4h2v2h-2V8zM7 8h2v2H7V8zM4 8h2v2H4V8z"/><path class="st3" d="M10 8h2v2h-2zM7 8h2v2H7zM4 8h2v2H4z"/><path class="st3" d="M1 3v10h14V3H1zm13 9H2V4h12v8z"/></g><path class="st4" d="M2 12h12V4H2v8zm8-4h2v2h-2V8zM7 8h2v2H7V8zM4 8h2v2H4V8z" id="icon_x5F_fg"/></svg>