<svg xmlns="http://www.w3.org/2000/svg" viewBox="0 0 16 16"><style>.st0{fill:#f6f6f6}.st1{fill:#424242}.st2{fill:#f0eff1}</style><path class="st0" d="M15.994 11.927V3.556L12.055 0 5.84.004c-.742.067-1.846.661-1.846 2.024V9H0v7h9v-2h5.046c.79 0 1.252-.341 1.501-.626.464-.534.468-1.186.447-1.447z" id="outline"/><g id="icon_x5F_bg"><path class="st1" d="M1 10h7v5H1zM10 9h4v1h-4z"/><path class="st1" d="M15 11.976V4l-3.33-3H5.929S5 1.084 5 2.028V9h1V2h5v3h3v7H9v1h5.046c1.092 0 .954-1.024.954-1.024z"/><path class="st1" d="M9 10h.596L9 9.063zM7.016 9h1.943l-.348-.547L9.602 7H8.588l-.432.834a1.84 1.84 0 0 0-.069.148L8.08 8h-.107l-.004-.008C7.946 7.941 7.473 7 7.473 7H6.399l.952 1.506L7.016 9z"/></g><g id="icon_x5F_fg"><path class="st2" d="M2 13h1v1H2zM4 13h1v1H4zM6 13h1v1H6zM14 9V5h-3V2H6v7h1.016l.335-.494L6.399 7h1.073l.427.841c.023.05.185.148.188.142.021-.053.045-.102.069-.149L8.588 7h1.014l-.99 1.453.347.547H9v.063l.596.937H9v2h5v-2h-4V9h4z"/></g></svg>