<svg xmlns="http://www.w3.org/2000/svg" viewBox="0 0 16 16"><style>.icon-canvas-transparent{opacity:0;fill:#f6f6f6}.icon-vs-out{fill:#f6f6f6}.icon-vs-bg{fill:#424242}.icon-vs-action-blue{fill:#00539c}.icon-vs-action-green{fill:#388a34}</style><path class="icon-canvas-transparent" d="M16 16H0V0h16v16z" id="canvas"/><path class="icon-vs-out" d="M15 4V1.586l-1 1V0H2v2.586l-1-1V4H0v7h1v1.914l2.5 2.5 2.5-2.5V11h1V4H6V2.415h4V4H9v7H7.382l2.5 5h2.736l2.5-5H16V4h-1zm-3.75 7.264L11.118 11h.264l-.132.264z" id="outline"/><path class="icon-vs-bg" d="M6 5v5H4V9h1V5.915L5.915 5H6zm-4 .915L1.085 5H1v5h2V9H2V5.915zM14.914 5L14 5.914V8h1V5h-.086zM11 5.914L10.086 5H10v5h1.882l.5-1H11V5.914z" id="iconBg"/><g id="colorAction"><path class="icon-vs-action-green" d="M13.5 9H15l-3 6h-1.5L9 12h1.5l.75 1.5L13.5 9z"/><path class="icon-vs-action-blue" d="M3.5 6L2 4.5V3l1 1V1h10v3l1-1v1.5L12.5 6 11 4.5V3l1 1V2H4v2l1-1v1.5L3.5 6zm.5 6V8H3v4l-1-1v1.5L3.5 14 5 12.5V11l-1 1z"/></g></svg>