<svg xmlns="http://www.w3.org/2000/svg" viewBox="0 0 16 16"><style>.icon-canvas-transparent{opacity:0;fill:#f6f6f6}.icon-vs-out{fill:#f6f6f6}.icon-vs-bg{fill:#424242}.icon-vs-fg{fill:#f0eff1}.icon-vs-action-blue{fill:#00539c}.icon-vs-action-green{fill:#388a34}</style><path class="icon-canvas-transparent" d="M16 16H0V0h16v16z" id="canvas"/><path class="icon-vs-out" d="M15 4v9h-4.882l-1.5 3H5.882l-1.5-3H1V4h3V1h1.414L6 1.586V0h4v1.586L10.586 1H12v3h3z" id="outline"/><path class="icon-vs-bg" d="M3.382 11l.5 1H2V5h2.586l1 1H3v5h.382zm8.032-6l-1 1H13v5h-1.882l-.5 1H14V5h-2.586z" id="iconBg"/><path class="icon-vs-fg" d="M13 6v5h-1.882l1.5-3H8.882l-1.5 3H3V6h2.586l2 2h.828l2-2H13z" id="iconFg"/><g id="colorAction"><path class="icon-vs-action-blue" d="M8 7L5 4V2l2 2V1h2v3l2-2v2L8 7z"/><path class="icon-vs-action-green" d="M11 9l-3 6H6.5L5 12h1.5l.75 1.5L9.5 9H11z"/></g></svg>