<svg xmlns="http://www.w3.org/2000/svg" viewBox="0 0 16 16"><style>.st0{opacity:0}.st0,.st1{fill:#f6f6f6}.st2{fill:none}.st3{fill:#424242}.st4{fill:#f0eff1}</style><g id="outline"><path class="st0" d="M0 0h16v16H0z"/><path class="st1" d="M16 15H0V1h16v14z"/></g><g id="icon_x5F_bg"><path class="st2" d="M2 13h12V3H2v10zm7-9h4v2H9V4zm0 3h3v1H9V7zm0 2h4v1H9V9zm0 2h3v1H9v-1zM3 5h5v4.473L4.961 8.46 3 9.44V5zm0 5.559L5.039 9.54 8 10.527V11H3v-.441z"/><circle class="st2" cx="6" cy="7" r="1"/><path class="st3" d="M9 7h3v1H9z"/><path class="st3" d="M1 2v12h14V2H1zm13 11H2V3h12v10z"/><path class="st3" d="M9 4h4v2H9zM9 9h4v1H9zM8 10.527L5.039 9.54 3 10.559V11h5zM8 9.473V5H3v4.44l1.961-.98L8 9.473zM6 6a1 1 0 1 1 0 2 1 1 0 1 1 0-2zM9 11h3v1H9z"/></g><g id="icon_x5F_fg"><path class="st2" d="M9 11h3v1H9zM3 10.559V11h5v-.473L5.039 9.54zM9 7h3v1H9zM3 9.44l1.961-.98L8 9.473V5H3v4.44zM6 6a1 1 0 1 1 0 2 1 1 0 1 1 0-2zM9 4h4v2H9zM9 9h4v1H9z"/><circle class="st4" cx="6" cy="7" r="1"/><path class="st4" d="M2 3v10h12V3H2zm7 4h3v1H9V7zm-1 4H3v-.441L5.039 9.54 8 10.527V11zm0-1.527L4.961 8.46 3 9.44V5h5v4.473zM12 12H9v-1h3v1zm1-2H9V9h4v1zm0-4H9V4h4v2z"/></g></svg>