<svg xmlns="http://www.w3.org/2000/svg" viewBox="0 0 16 16"><style>.st0{fill:#f6f6f6}.st1{fill:none}.st2{fill:#424242}.st3{fill:#f0eff1}</style><path class="st0" d="M15.414 4L16 3.414V0h-3.414L12 .586V2H4V.586L3.414 0H0v3.414L.586 4H2v8H.586L0 12.586V16h3.414L4 15.414V14h8v1.414l.586.586H16v-3.414L15.414 12H14V4z" id="outline"/><g id="icon_x5F_bg"><path class="st1" d="M12 11l-1.5-1-2 1L6 9l-2 2v1h8zM8.5 9l2-1L12 9V4H4v5l2-2 2.5 2zM9 5a1 1 0 1 1 0 2 1 1 0 1 1 0-2z"/><circle class="st2" cx="9" cy="6" r="1"/><path class="st2" d="M14 16v-1l1 1h1v-1l-1-1h1l-1-1h-2v2zM0 14h1l-1 1v1h1l1-1v1l1-1v-2H1zM2 0v1L1 0H0v1l1 1H0l1 1h2V1zM3 13h10V3H3v10zm1-9h8v5l-1.5-1-2 1L6 7 4 9V4zm0 7l2-2 2.5 2 2-1 1.5 1v1H4v-1zM16 0h-1l-1 1V0l-1 1v2h2l1-1h-1l1-1z"/></g><g id="icon_x5F_fg"><circle class="st1" cx="9" cy="6" r="1"/><path class="st3" d="M8.5 11L6 9l-2 2v1h8v-1l-1.5-1zM4 4v5l2-2 2.5 2 2-1L12 9V4H4zm5 3a1 1 0 1 1 0-2 1 1 0 1 1 0 2z"/></g></svg>