<svg xmlns="http://www.w3.org/2000/svg" width="16" height="16"><style type="text/css">.icon-canvas-transparent{opacity:0;fill:#F6F6F6;} .icon-vs-out{fill:#F6F6F6;} .icon-vs-bg{fill:#424242;} .icon-vs-fg{fill:#F0EFF1;}</style><path class="icon-canvas-transparent" d="M16 16h-16v-16h16v16z" id="canvas"/><path class="icon-vs-out" d="M16 7.5c0 4.143-3.357 7.5-7.5 7.5-4.142 0-7.5-3.357-7.5-7.5 0-4.142 3.358-7.5 7.5-7.5 4.143 0 7.5 3.358 7.5 7.5z" id="outline"/><path class="icon-vs-bg" d="M8.5 1c-3.59 0-6.5 2.91-6.5 6.5s2.91 6.5 6.5 6.5 6.5-2.91 6.5-6.5-2.91-6.5-6.5-6.5zm.149 11.964c-3.129 0-5.669-2.452-5.669-5.478 0-3.025 2.54-5.478 5.669-5.478 1.035 0 2.005.268 2.839.732l-2.839 4.746 4.925 2.718c-.975 1.648-2.815 2.76-4.925 2.76z" id="iconBg"/><path class="icon-vs-fg" d="M8.649 7.486l4.925 2.718c-.976 1.648-2.815 2.76-4.925 2.76-3.129 0-5.669-2.452-5.669-5.478 0-3.025 2.54-5.478 5.669-5.478 1.035 0 2.005.268 2.839.732l-2.839 4.746z" id="iconFg"/></svg>