<svg xmlns="http://www.w3.org/2000/svg" viewBox="0 0 16 16"><style>.st0{opacity:0;fill:#fff;stroke:#231f20;stroke-miterlimit:10}.st1{fill:#f6f6f6}.st2{fill:#424242}.st3{fill:#f0eff1}</style><path class="st0" d="M0 0h16v16H0z" id="outline"/><g id="icon_x5F_fg"><path class="st1" d="M14.717 6.232l-4.949-4.95-4.95 4.95-.707-.707L1.99 7.646l2.121 2.122-2.829 2.828 2.122 2.121 2.828-2.828 2.122 2.121 2.121-2.121-.707-.707z"/><path class="st2" d="M9.768 4.111l1.414 1.414-3.536 3.536-1.414-1.415 3.536-3.535zm-1.414 7.071l.707.707-.707.707-2.121-2.121-2.828 2.828-.707-.707 2.828-2.828-2.122-2.122.707-.707.707.707 4.95-4.95 3.536 3.536-4.95 4.95zm2.828-5.657L9.768 4.111 6.232 7.646 7.646 9.06l3.536-3.535z"/><path transform="rotate(-45.001 8.707 6.586)" class="st3" d="M6.207 5.586h5v2h-5z"/></g></svg>