<svg xmlns="http://www.w3.org/2000/svg" viewBox="0 0 16 16" enable-background="new 0 0 16 16"><style type="text/css">.icon-canvas-transparent{opacity:0;fill:#F6F6F6;} .icon-vs-out{fill:#F6F6F6;} .icon-folder{fill:#DCB67A;} .icon-vs-fg{fill:#F0EFF1;} .icon-vs-bg{fill:#424242;}</style><path class="icon-canvas-transparent" d="M0 0h16v16h-16v-16z" id="canvas"/><path class="icon-vs-out" d="M14.996 4.5v8c0 .827-.673 1.5-1.5 1.5h-2.262c-.435 1.189-1.369 2-2.484 2h-6c-1.542 0-2.75-1.537-2.75-3.5v-10c0-.827.673-1.5 1.5-1.5h8.11l1 2h2.886c.827 0 1.5.673 1.5 1.5z" id="outline"/><g id="iconBg"><path class="icon-folder" d="M13.496 4h-3.504l-1-2h-7.492c-.275 0-.5.224-.5.5v7.301c.474-.495 1.076-.801 1.75-.801h6c1.542 0 2.75 1.537 2.75 3.5 0 .172-.021.335-.038.5h2.035c.277 0 .5-.224.5-.5v-8c-.001-.276-.224-.5-.501-.5zm-11.496 0v-1h6.374l.5 1h-6.874z"/><path class="icon-vs-bg" d="M8.75 10h-6c-.981 0-1.75 1.098-1.75 2.5s.769 2.5 1.75 2.5h6c.981 0 1.75-1.098 1.75-2.5s-.769-2.5-1.75-2.5zm-6 4c-.354 0-.75-.642-.75-1.5s.396-1.5.75-1.5.75.642.75 1.5-.396 1.5-.75 1.5zm6 0h-4.598c.216-.416.348-.93.348-1.5s-.132-1.084-.348-1.5h4.598c.354 0 .75.642.75 1.5s-.396 1.5-.75 1.5z"/></g><path class="icon-vs-fg" d="M2 3h6.374l.5 1h-6.874v-1zm.75 11c-.354 0-.75-.642-.75-1.5s.396-1.5.75-1.5.75.642.75 1.5-.396 1.5-.75 1.5zm6 0h-4.598c.216-.416.348-.93.348-1.5s-.132-1.084-.348-1.5h4.598c.354 0 .75.642.75 1.5s-.396 1.5-.75 1.5z" id="iconFg"/></svg>