<svg xmlns="http://www.w3.org/2000/svg" viewBox="0 0 16 16" enable-background="new 0 0 16 16"><style type="text/css">.icon-canvas-transparent{opacity:0;fill:#F6F6F6;} .icon-vs-out{fill:#F6F6F6;} .icon-vs-bg{fill:#424242;} .icon-vs-fg{fill:#F0EFF1;}</style><path class="icon-canvas-transparent" d="M16 16h-16v-16h16v16z" id="canvas"/><path class="icon-vs-out" d="M3.25 12c-1.822 0-3.25-1.757-3.25-4s1.428-4 3.25-4h9.5c1.822 0 3.25 1.757 3.25 4s-1.428 4-3.25 4h-9.5z" id="outline"/><path class="icon-vs-fg" d="M2 8c0-1.084.572-2 1.25-2s1.25.916 1.25 2-.572 2-1.25 2-1.25-.916-1.25-2zm10.75 2h-7.821c.353-.528.571-1.221.571-2 0-.779-.218-1.472-.571-2h7.821c.678 0 1.25.916 1.25 2s-.572 2-1.25 2z" id="iconFg"/><path class="icon-vs-bg" d="M12.75 5h-9.5c-1.262 0-2.25 1.318-2.25 3 0 1.683.988 3 2.25 3h9.5c1.262 0 2.25-1.317 2.25-3 0-1.682-.988-3-2.25-3zm-10.75 3c0-1.084.572-2 1.25-2s1.25.916 1.25 2-.572 2-1.25 2-1.25-.916-1.25-2zm10.75 2h-7.821c.353-.528.571-1.221.571-2 0-.779-.218-1.472-.571-2h7.821c.678 0 1.25.916 1.25 2s-.572 2-1.25 2z" id="iconBg"/></svg>