<svg xmlns="http://www.w3.org/2000/svg" viewBox="0 0 16 16"><style>.icon-canvas-transparent{opacity:0;fill:#f6f6f6}.icon-vs-out{fill:#f6f6f6}.icon-vs-fg{fill:#f0eff1}.icon-folder{fill:#dcb67a}.icon-vs-bg{fill:#424242}</style><path class="icon-canvas-transparent" d="M0 0h16v16H0V0z" id="canvas"/><path class="icon-vs-out" d="M16 6.969v1.196l-2.323 5.804h-2.429C10.818 15.175 9.876 16 8.75 16h-6C1.208 16 0 14.463 0 12.5c0-.1.016-.193.022-.291-.008-.08-.022-.156-.022-.24v-9c0-1.303 1.005-2 2-2h7.116l1 2H13c.97 0 2 .701 2 2v2h1z" id="outline"/><path class="icon-vs-fg" d="M3.5 12.5c0 .858-.396 1.5-.75 1.5S2 13.358 2 12.5s.396-1.5.75-1.5.75.642.75 1.5zM8.75 11H4.152c.216.416.348.93.348 1.5s-.132 1.084-.348 1.5H8.75c.354 0 .75-.642.75-1.5S9.104 11 8.75 11z" id="iconFg"/><g id="iconBg"><path class="icon-folder" d="M14 8V5c0-1-1.236-1-1-1H9.5l-1-2H2S1 2 1 3v6.801a2.555 2.555 0 0 1 1-.658V3h6l1 2h4v3H4l-.4 1h5.15c1.542 0 2.75 1.537 2.75 3.5 0 .172-.021.335-.038.5H13l2-5h-1z"/><path class="icon-vs-bg" d="M8.75 10h-6C1.769 10 1 11.098 1 12.5S1.769 15 2.75 15h6c.981 0 1.75-1.098 1.75-2.5S9.731 10 8.75 10zm-6 4c-.354 0-.75-.642-.75-1.5s.396-1.5.75-1.5.75.642.75 1.5-.396 1.5-.75 1.5zm6 0H4.152c.216-.416.348-.93.348-1.5s-.132-1.084-.348-1.5H8.75c.354 0 .75.642.75 1.5S9.104 14 8.75 14z"/></g></svg>