<svg xmlns="http://www.w3.org/2000/svg" width="16" height="16"><style type="text/css">.icon-canvas-transparent{opacity:0;fill:#F6F6F6;} .icon-vs-out{fill:#F6F6F6;} .icon-vs-bg{fill:#424242;} .icon-vs-fg{fill:#F0EFF1;}</style><path class="icon-canvas-transparent" d="M16 16h-16v-16h16v16z" id="canvas"/><path class="icon-vs-out" d="M16 14h-4v2h-12v-11h2v-5h14v14z" id="outline"/><path class="icon-vs-bg" d="M1 6v9h10v-9h-10zm9 8h-8v-7h8v7zm-2.5-6l1.5 1.5v.5h-1v.5c0 .828-.673 1.5-1.5 1.5h-1.5v1h-.5l-1.5-1.5 1.5-1.5h.5v1h1.5c.275 0 .5-.225.5-.5v-.5h-1v-.5l1.5-1.5zm.5-5h2v2h-2v-2zm-3 1h2v1h-2v-1zm10-3v12h-3v-8h-1v-1h2v8h1v-10h-10v3h-1v-4h12z" id="iconBg"/><path class="icon-vs-fg" d="M2 7v7h8v-7h-8zm7 3h-1v.5c0 .828-.673 1.5-1.5 1.5h-1.5v1h-.5l-1.5-1.5 1.5-1.5h.5v1h1.5c.275 0 .5-.225.5-.5v-.5h-1v-.5l1.5-1.5 1.5 1.5v.5zm5-8v10h-1v-8h-2v1h-1v-2h-2v2h-1v-1h-2v1h-1v-3h10z" id="iconFg"/></svg>