<svg xmlns="http://www.w3.org/2000/svg" width="16" height="16"><style type="text/css">.icon-canvas-transparent{opacity:0;fill:#F6F6F6;} .icon-vs-out{fill:#F6F6F6;} .icon-vs-bg{fill:#424242;} .icon-vs-fg{fill:#F0EFF1;}</style><path class="icon-canvas-transparent" d="M16 16h-16v-16h16v16z" id="canvas"/><path class="icon-vs-out" d="M16 0v16h-16v-16h16z" id="outline"/><path class="icon-vs-bg" d="M1 1v14h14v-14h-14zm13 13h-12v-12h12v12zm-5.5-1l-1.5-1.5 1.5-1.5h1.5l-1 1h1.5c.275 0 .5-.225.5-.5v-1.5l-1 1v-1.5l1.5-1.5 1.5 1.5v1.5l-1-1v1.5c0 .827-.673 1.5-1.5 1.5h-1.5l1 1h-1.5zm4.5-7h-6v-3h6v3zm-7 7h-3v-6h3v6zm0-7h-3v-3h3v3z" id="iconBg"/><path class="icon-vs-fg" d="M2 2v12h12v-12h-12zm4 11h-3v-6h3v6zm0-7h-3v-3h3v3zm7 4l-1-1v1.5c0 .827-.673 1.5-1.5 1.5h-1.5l1 1h-1.5l-1.5-1.5 1.5-1.5h1.5v-1.5l1.5-1.5 1.5 1.5v1.5zm0-4h-6v-3h6v3zm-4 5l1-1 1-1v1.5c0 .275-.225.5-.5.5h-1.5z" id="iconFg"/></svg>