<svg xmlns="http://www.w3.org/2000/svg" viewBox="0 0 16 16"><style>.st0{opacity:0}.st0,.st1{fill:#f6f6f6}.st2{fill:#424242}</style><g id="outline"><path class="st0" d="M0 0h16v16H0z"/><path class="st1" d="M16 5V2H1v3h5v2.365a2.12 2.12 0 0 0-.423-.227 2.624 2.624 0 0 0-.979-.173c-.173 0-.351.017-.551.051a4.463 4.463 0 0 0-.469.11 4.344 4.344 0 0 0-.429.154 2.494 2.494 0 0 0-.374.204l-.43.299v1.808c-.1.157-.179.328-.235.511a2.558 2.558 0 0 0 .02 1.546c.094.27.237.511.429.715.193.208.433.37.707.479.257.105.545.158.854.158.23 0 .449-.031.653-.094h2.188v-.02h1.015a1.9 1.9 0 0 0 .606.094c.417 0 .798-.104 1.124-.303.309-.186.568-.442.77-.762.021-.032.035-.072.055-.106.083.117.166.234.268.341.261.267.575.48.953.637.358.142.75.213 1.163.213.333 0 .621-.034.916-.111.319-.079 1.169-.29 1.169-1.144l-.003-1.12.003.002V8.159c0-.224-.078-.769-.821-1.012a2.85 2.85 0 0 0-.663-.157 3.193 3.193 0 0 0-.424-.027c-.445 0-.86.075-1.235.222-.39.154-.727.375-1.004.655-.088.089-.158.193-.233.293-.02-.041-.036-.086-.059-.126a2.206 2.206 0 0 0-.713-.748 2.04 2.04 0 0 0-1.118-.313h-.033V5H16zm-3.195 4.754c.03-.078.059-.11.065-.118l.094-.062a.407.407 0 0 1 .152-.027c.059 0 .117.011.168.03 0 0 .166.058.173.058l.544.349-.503.285-.102.048c-.041.022-.072.041-.115.057a.78.78 0 0 1-.175.041.416.416 0 0 1-.249-.071l-.054-.099a.723.723 0 0 1-.032-.238c0-.142.022-.223.034-.253z"/></g><g id="icon_x5F_bg"><path class="st2" d="M2 3h13v1H2zM5.63 8.361a1.08 1.08 0 0 0-.424-.295 1.644 1.644 0 0 0-.608-.101c-.119 0-.241.012-.368.033a3.213 3.213 0 0 0-.673.195 1.313 1.313 0 0 0-.212.114v.768c.158-.132.341-.235.544-.313.204-.078.413-.117.627-.117.213 0 .377.063.494.186.116.125.174.324.174.6l-1.03.154c-.205.026-.38.077-.526.151a1.08 1.08 0 0 0-.562.66 1.53 1.53 0 0 0-.066.461c0 .17.025.322.074.463s.121.26.216.361c.093.1.21.178.352.234.139.058.297.085.478.085.229 0 .431-.053.604-.16a1.3 1.3 0 0 0 .439-.463h.014v.529h.785V9.469c0-.238-.027-.451-.083-.637a1.286 1.286 0 0 0-.249-.471zm-.446 2.02c0 .131-.02.252-.059.365a.897.897 0 0 1-.165.295.76.76 0 0 1-.593.271.682.682 0 0 1-.242-.041.489.489 0 0 1-.302-.285.588.588 0 0 1-.041-.219.96.96 0 0 1 .027-.232.435.435 0 0 1 .098-.18.541.541 0 0 1 .195-.133c.083-.033.189-.061.32-.078l.761-.109v.346zM7.71 8.656h-.013V6H7v5.887h.697v-.484h.013c.044.082.095.158.151.229.057.07.119.133.191.185a.835.835 0 0 0 .238.121.932.932 0 0 0 .292.043c.23 0 .434-.053.609-.16.176-.106.323-.254.443-.443.12-.188.211-.412.272-.672A3.58 3.58 0 0 0 10 9.861a3.54 3.54 0 0 0-.074-.734 2.047 2.047 0 0 0-.228-.611 1.203 1.203 0 0 0-.394-.416 1.03 1.03 0 0 0-.574-.154 1 1 0 0 0-.614.199 1.153 1.153 0 0 0-.225.222 2.022 2.022 0 0 0-.181.289zm.467.082c.1-.055.21-.082.331-.082a.646.646 0 0 1 .571.32c.066.105.116.23.15.377.035.147.052.311.052.495 0 .234-.02.441-.06.621-.039.18-.095.328-.168.445a.747.747 0 0 1-.264.266.677.677 0 0 1-.651.016.74.74 0 0 1-.237-.207.983.983 0 0 1-.154-.307 1.257 1.257 0 0 1-.057-.381v-.506c0-.17.02-.326.061-.465s.097-.258.169-.359a.77.77 0 0 1 .257-.233z"/><g><path class="st2" d="M13.536 11.921a2.442 2.442 0 0 1-.622.069c-.291 0-.554-.047-.787-.144a1.723 1.723 0 0 1-.597-.396 1.788 1.788 0 0 1-.38-.602 2.132 2.132 0 0 1-.132-.753c0-.317.048-.604.144-.861a1.81 1.81 0 0 1 .411-.66c.18-.182.398-.323.65-.424.258-.1.544-.15.859-.15.103 0 .198.006.291.019.092.013.178.028.255.046.08.019.149.039.214.062.062.021.115.044.158.066v.813a1.845 1.845 0 0 0-.41-.221 1.329 1.329 0 0 0-.477-.083c-.17 0-.327.029-.477.087a1.087 1.087 0 0 0-.384.254 1.195 1.195 0 0 0-.256.413 1.553 1.553 0 0 0-.093.561c0 .195.026.372.082.528.055.159.133.291.237.4.102.108.228.193.374.253a1.336 1.336 0 0 0 .731.063c.08-.017.158-.039.238-.069a1.742 1.742 0 0 0 .434-.224v.769c-.134.077-.289.14-.463.184z"/></g></g></svg>