<svg xmlns="http://www.w3.org/2000/svg" viewBox="0 0 16 16"><style>.icon-vs-out{fill:#f6f6f6}.icon-vs-bg{fill:#424242}.icon-vs-green{fill:#393}.icon-canvas-transparent{opacity:0;fill:#f6f6f6}.st0{fill:none}</style><path class="icon-canvas-transparent" d="M0 0h16v16H0z" id="canvas"/><path class="icon-vs-out" d="M11.966 9H11.9c.172-.052.342-.11.499-.198a2.72 2.72 0 0 0 .925-.855c.225-.329.393-.713.502-1.144.102-.399.153-.832.153-1.285 0-.386-.041-.765-.123-1.128a3.444 3.444 0 0 0-.431-1.061 2.564 2.564 0 0 0-.857-.839 2.437 2.437 0 0 0-1.268-.33c-.102 0-.202.005-.3.017V0H8v4.558l-.001-.097-.027.005a3.554 3.554 0 0 0-.116-.653 2.577 2.577 0 0 0-.513-.96c-.246-.288-.557-.509-1.014-.685A3.573 3.573 0 0 0 5.211 2c-.217 0-.44.018-.673.056a6.247 6.247 0 0 0-.594.127 4.682 4.682 0 0 0-.543.178 2.82 2.82 0 0 0-.461.227l-.466.294v2.231a2.312 2.312 0 0 0-.334.645 2.826 2.826 0 0 0-.143.902c0 .333.057.651.169.941.118.31.297.584.537.819.232.224.514.398.842.519.165.06.342.101.524.128L.637 12.5l3.5 3.5h7.829l3.5-3.5-3.5-3.5zm-6.589-.013H8V9H5.317c.019-.005.04-.007.06-.013zm2.674 6.099L6.965 14h2.173l-1.087 1.086zM6.965 11l1.087-1.086L9.138 11H6.965z" id="outline"/><g id="iconBg"><path class="st0" d="M7.008 6.078V5.64l-.009.002v.491c.001-.02.009-.036.009-.055zM7.008 4.875c0-.028-.008-.045-.009-.072v.074l.009-.002z"/><path class="icon-vs-bg" d="M6.897 4.098a1.6 1.6 0 0 0-.314-.596 1.328 1.328 0 0 0-.532-.374l-.037-.01A2.544 2.544 0 0 0 5.211 3c-.165 0-.334.014-.51.043a5.116 5.116 0 0 0-.5.107 3.82 3.82 0 0 0-.43.14 1.94 1.94 0 0 0-.297.143v.97c.22-.165.471-.297.754-.395.284-.099.573-.148.869-.148.296 0 .525.079.685.235.147.144.22.379.232.686.001.027.009.044.009.072l-.009.003-1.418.192c-.283.035-.527.1-.727.193a1.511 1.511 0 0 0-.497.352 1.331 1.331 0 0 0-.284.482 1.82 1.82 0 0 0-.091.585c0 .212.035.407.103.584.068.178.168.33.297.457.131.126.293.226.488.297.194.07.415.108.663.108a1.7 1.7 0 0 0 .839-.202c.238-.135.442-.33.607-.587h.021v.671H7V4.901c0-.3-.034-.569-.103-.803zm-.874 1.959c0 .02-.008.036-.009.055-.006.142-.024.28-.073.406a1.097 1.097 0 0 1-1.049.718 1.04 1.04 0 0 1-.336-.052.8.8 0 0 1-.256-.143.63.63 0 0 1-.162-.219.675.675 0 0 1-.057-.276c0-.11.013-.209.039-.294a.534.534 0 0 1 .134-.229.764.764 0 0 1 .271-.166c.114-.044.262-.078.443-.1l1.045-.137.009-.002v.439zm6.858-1.443a2.422 2.422 0 0 0-.302-.751 1.557 1.557 0 0 0-.523-.514 1.45 1.45 0 0 0-.756-.189c-.163 0-.313.022-.448.064-.137.044-.26.103-.37.181-.11.077-.211.169-.299.275-.068.08-.125.173-.183.267V1H9v7h1v-.502c.044.068.087.138.139.198.075.086.161.162.257.227.097.065.201.115.319.149a1.624 1.624 0 0 0 1.194-.141c.234-.132.431-.313.589-.546.158-.232.278-.509.359-.828.081-.319.122-.665.122-1.039a4.12 4.12 0 0 0-.098-.904zm-.928 1.66a1.602 1.602 0 0 1-.227.552.957.957 0 0 1-.351.329.979.979 0 0 1-.468.114.873.873 0 0 1-.403-.094.999.999 0 0 1-.318-.256 1.222 1.222 0 0 1-.206-.379 1.512 1.512 0 0 1-.076-.473v-.626c0-.21.028-.404.082-.576.053-.171.127-.318.226-.444a.998.998 0 0 1 .343-.288.97.97 0 0 1 .442-.101c.163 0 .309.034.438.101a.925.925 0 0 1 .325.296c.09.13.155.284.202.466.046.182.068.385.068.612a3.22 3.22 0 0 1-.077.767z"/></g><path class="icon-vs-green" d="M11.511 10H9.519l1.992 2H4.54l1.991-2H4.54l-2.489 2.5L4.54 15h1.991L4.54 13h6.971l-1.992 2h1.992L14 12.5z" id="colorImportance"/></svg>