<svg xmlns="http://www.w3.org/2000/svg" viewBox="0 0 16 16"><style>.st0{opacity:0}.st0,.st1{fill:#f6f6f6}.st2{fill:#424242}.st3{fill:#f0eff1}</style><path class="st0" d="M0 0h16v16H0z" id="outline"/><g id="icon_x5F_fg"><path class="st1" d="M2 2h12v12H2z"/><path class="st2" d="M2.923 3.091v9.818h10.154V3.091H2.923zm8.769 1.091L8 7.576 4.308 4.182h7.384zm-4.384 4.03l-3.462 3.182V5.03l3.462 3.182zm-2.539 3.606L8 8.848l3.231 2.97H4.769zm7.385-.424L8.692 8.212l3.462-3.182v6.364z"/><path class="st3" d="M8.692 8.212l3.462-3.182v6.364L8.692 8.212zm3-4.03H4.308L8 7.576l3.692-3.394zm-6.923 7.636h6.462L8 8.848l-3.231 2.97zm-.923-.424l3.462-3.182L3.846 5.03v6.364z"/></g></svg>