<svg xmlns="http://www.w3.org/2000/svg" viewBox="0 0 16 16"><style>.st0{fill:#424242}.st0,.st1{opacity:0}.st1,.st2{fill:#f6f6f6}.st3{fill:#424242}.st4{fill:#f0eff1}</style><g id="outline"><path class="st0" d="M0 0h16v16H0z"/><path class="st1" d="M0 0h16v16H0z"/><path class="st2" d="M4 0v9H3v2H2v1H0v3h2v1h5v-1h2v-3h7V0z"/></g><g id="icon_x5F_bg"><path class="st3" d="M8 13H6v-1H5v-2H4v2H3v1H1v1h2v1h3v-1h2z"/><path class="st3" d="M5 1v8h1V2.707L9.293 6 6 9.293V11h9V1H5zm1.707 1h6.586L10 5.293 6.707 2zm0 8L10 6.707 13.293 10H6.707zM14 9.293L10.707 6 14 2.707v6.586z"/></g><g id="icon_x5F_fg"><path class="st4" d="M14 2.707v6.586L10.707 6zM10 5.293L6.707 2h6.586zM9.293 6L6 9.293V2.707zM10 6.707L13.293 10H6.707z"/></g></svg>