<svg xmlns="http://www.w3.org/2000/svg" viewBox="0 0 16 16"><style>.st0{opacity:0}.st0,.st1{fill:#f6f6f6}.st2{fill:#424242}.st3{fill:#f0eff1}</style><g id="outline"><path class="st0" d="M0 0h16v16H0z"/><path class="st1" d="M16 4v8c0 1.102-.898 2-2 2H2c-1.103 0-2-.898-2-2V4c0-1.103.897-2 2-2h12c1.102 0 2 .897 2 2z"/></g><path class="st2" d="M14 3H2a1 1 0 0 0-1 1v8a1 1 0 0 0 1 1h12a1 1 0 0 0 1-1V4a1 1 0 0 0-1-1zm-8 8V5l4.954 3L6 11z" id="icon_x5F_bg"/><path class="st3" d="M6 5l4.954 3L6 11V5z" id="icon_x5F_fg"/></svg>