<svg xmlns="http://www.w3.org/2000/svg" viewBox="0 0 16 16"><style>.icon-canvas-transparent{opacity:0;fill:#f6f6f6}.icon-vs-out{fill:#f6f6f6}.icon-vs-bg{fill:#424242}</style><path class="icon-canvas-transparent" d="M16 16H0V0h16v16z" id="canvas"/><path class="icon-vs-out" d="M1.086 12.566L2.953 10.7l-.934-.933L3.886 7.9l-.933-.933 4.014-4.014.933.933 1.867-1.867.933.934 1.866-1.867 2.348 2.347L13.047 5.3l.934.934L12.114 8.1l.933.933-4.014 4.014-.933-.933-1.867 1.866-.933-.933-1.867 1.867-2.347-2.348z" id="outline"/><path class="icon-vs-bg" d="M6.033 5.3l.933-.933.934.933 1.867-1.867.933.934L12.567 2.5l.933.933L11.633 5.3l.933.933L10.7 8.1l.933.933-.933.934L6.033 5.3zm-.733.733l-.933.934.933.933-1.867 1.867.934.933L2.5 12.567l.933.933L5.3 11.633l.933.933L8.1 10.7l.933.933.934-.933L5.3 6.033z" id="iconBg"/></svg>