<svg xmlns="http://www.w3.org/2000/svg" viewBox="0 0 16 16"><style>.st0{fill:#f6f6f6}.st1{fill:#424242}.st2{fill:none}.st3{fill:#f0eff1}</style><path class="st0" d="M16 2.586L14.414 1H14V0H9v1h-.414L7 2.586V5H0v11h15v-4.586l1-1z" id="outline"/><g id="icon_x5F_bg"><path class="st1" d="M5 13h5v-1H5zM5 8h1v1H5zM11 12h1v1h-1zM5 10h1v1H5zM7.586 11L7 10.414V11zM3 8h1v1H3z"/><path class="st1" d="M13 12v2H2V7h5V6H1v9h13v-3z"/><path class="st1" d="M3 12h1v1H3zM3 10h1v1H3zM14 2h-2V1h-1v1H9L8 3v7l1 1h5l1-1V3l-1-1zM9 3.414L9.414 3H11v2H9V3.414zm5 6.172l-.414.414H9.414L9 9.586V6h5v3.586zM14 5h-2V3h1.586l.414.414V5z"/></g><g id="icon_x5F_fg"><path class="st2" d="M5 8h1v1H5zM3 8h1v1H3zM3 12h1v1H3zM5 10h1v1H5zM3 10h1v1H3z"/><path class="st3" d="M11 3H9.414L9 3.414V5h2zM9 9.586l.414.414h4.172L14 9.586V6H9z"/><path class="st3" d="M12 13h-1v-1h-1v1H5v-1h3.586l-1-1H7V7H2v7h11v-2h-1v1zM5 8h1v1H5V8zm0 2h1v1H5v-1zm-1 3H3v-1h1v1zm0-2H3v-1h1v1zm0-2H3V8h1v1zM13.586 3H12v2h2V3.414z"/></g></svg>