<svg xmlns="http://www.w3.org/2000/svg" viewBox="0 0 16 16"><style>.st0{opacity:0}.st0,.st1{fill:#f6f6f6}.st2{fill:#f0eff1}.st3{fill:#424242}</style><g id="outline"><path class="st0" d="M0 0h16v16H0z"/><path class="st1" d="M0 0h16v15H0z"/></g><path class="st2" d="M2 2v11h12V2H2zm2 7a1 1 0 1 1 0-2 1 1 0 0 1 0 2zm2-3a1 1 0 1 1 0-2 1 1 0 0 1 0 2zm3 2a1 1 0 1 1 0-2 1 1 0 0 1 0 2zm3 3a1 1 0 1 1 0-2 1 1 0 1 1 0 2z" id="icon_x5F_fg"/><g id="icon_x5F_bg"><path class="st3" d="M1 1v13h14V1H1zm13 12H2V2h12v11z"/><circle class="st3" cx="4" cy="8" r="1"/><circle class="st3" cx="6" cy="5" r="1"/><circle class="st3" cx="9" cy="7" r="1"/><circle class="st3" cx="12" cy="10" r="1"/></g></svg>