<svg xmlns="http://www.w3.org/2000/svg" viewBox="0 0 16 16"><style>.st0{opacity:0}.st0,.st1{fill:#f6f6f6}.st2{fill:#424242}.st3{fill:#f0eff1}</style><g id="outline"><path class="st0" d="M0 0h16v16H0z"/><path class="st1" d="M0 0h16v15H0z"/></g><g id="icon_x5F_bg"><path class="st2" d="M1 1v13h14V1H1zm13 12H2V2h12v11z"/><path class="st2" d="M12.529 4.574a1.67 1.67 0 0 0-.611-.419A2.25 2.25 0 0 0 11.043 4c-.301 0-.579.042-.828.128-.25.085-.466.214-.645.383-.181.17-.32.379-.422.629-.099.251-.148.54-.148.869 0 .302.044.575.133.819.09.244.219.453.388.625.169.171.377.304.623.396.247.094.525.139.838.139.324 0 .611-.049.863-.147.252-.098.465-.235.636-.414.173-.178.303-.394.393-.645.092-.251.136-.532.136-.841 0-.265-.04-.515-.119-.75-.08-.234-.2-.441-.362-.617zm-.89 2.236c-.142.187-.348.28-.618.28a.922.922 0 0 1-.346-.062.713.713 0 0 1-.273-.198.939.939 0 0 1-.18-.34 1.705 1.705 0 0 1-.063-.496c0-.184.019-.344.059-.481a.965.965 0 0 1 .173-.342.708.708 0 0 1 .271-.204.879.879 0 0 1 .353-.069c.28 0 .489.095.63.284.138.189.206.45.206.782-.001.377-.072.658-.212.846zM12.529 9.574a1.66 1.66 0 0 0-.611-.42A2.27 2.27 0 0 0 11.043 9c-.301 0-.579.042-.828.129-.25.084-.466.213-.645.383-.182.169-.32.379-.422.629-.099.25-.148.539-.148.869 0 .301.044.574.133.818.09.244.219.453.388.625s.377.304.623.396c.247.094.525.139.838.139.324 0 .611-.049.863-.147a1.72 1.72 0 0 0 .636-.414c.173-.178.303-.392.393-.644.092-.25.136-.531.136-.841 0-.265-.04-.515-.119-.751-.08-.234-.2-.441-.362-.617zm-.89 2.236c-.142.187-.348.28-.618.28a.922.922 0 0 1-.346-.063.71.71 0 0 1-.273-.197.947.947 0 0 1-.18-.34 1.71 1.71 0 0 1-.063-.496c0-.184.019-.344.059-.48a.965.965 0 0 1 .173-.342.708.708 0 0 1 .271-.204.879.879 0 0 1 .353-.069c.28 0 .489.096.63.285.138.189.206.449.206.781-.001.376-.072.657-.212.845zM3 6h1.418L5 4.91a1.07 1.07 0 0 0 .082-.166c.026-.063.05-.125.07-.185h.016c.024.057.049.117.078.179.029.062.059.124.09.184L5.922 6h1.422L6.032 3.938 7.352 2H6l-.574 1.113c-.034.06-.065.125-.094.197l-.074.186h-.016a.971.971 0 0 0-.066-.173 12.455 12.455 0 0 1-.094-.202L4.512 2h-1.43l1.27 2.008L3 6zM6 7l-.574 1.113c-.034.06-.065.125-.094.197l-.074.186h-.016a.971.971 0 0 0-.066-.173 12.455 12.455 0 0 1-.094-.202L4.512 7h-1.43l1.27 2.008L3 11h1.418L5 9.91c.029-.047.056-.102.082-.166.026-.063.05-.125.07-.186h.016c.024.057.049.117.078.18.029.063.059.123.09.184L5.922 11h1.422L6.031 8.938 7.352 7H6z"/></g><g id="icon_x5F_fg"><path class="st3" d="M5.176 3.323c.031.066.053.124.066.173h.016l.074-.186c.029-.072.06-.137.094-.197L6 2H4.512l.57 1.121.094.202zM11.014 4.899a.865.865 0 0 0-.353.069.713.713 0 0 0-.271.204.973.973 0 0 0-.173.342c-.04.137-.059.297-.059.481 0 .193.021.358.063.496.043.138.102.25.18.34a.735.735 0 0 0 .273.198c.104.042.22.062.346.062.271 0 .477-.093.618-.28.141-.188.211-.469.211-.845 0-.332-.068-.592-.206-.782-.14-.19-.349-.285-.629-.285zM11.014 9.898a.882.882 0 0 0-.353.069.723.723 0 0 0-.271.204.965.965 0 0 0-.173.342c-.04.137-.059.297-.059.48 0 .193.021.359.063.496.043.138.102.25.18.34a.71.71 0 0 0 .273.197c.104.042.22.063.346.063.271 0 .477-.094.618-.28.141-.188.211-.469.211-.845 0-.332-.068-.592-.206-.781-.14-.189-.349-.285-.629-.285z"/><path class="st3" d="M7.352 2l-1.32 1.938L7.344 6H5.922l-.586-1.078a5.228 5.228 0 0 1-.09-.184c-.029-.062-.054-.122-.078-.179h-.016c-.02.06-.044.122-.07.185A1.07 1.07 0 0 1 5 4.91L4.418 6H3l1.352-1.992L3.082 2H2v11h12V2H7.352zm-.008 9H5.922l-.586-1.078a5.228 5.228 0 0 1-.09-.184c-.029-.063-.054-.123-.078-.18h-.016c-.02.061-.044.122-.07.186A1.07 1.07 0 0 1 5 9.91L4.418 11H3l1.352-1.992L3.082 7h1.43l.57 1.121.094.202c.031.066.053.124.066.173h.016l.074-.186c.029-.072.06-.137.094-.197L6 7h1.352l-1.32 1.938L7.344 11zm5.53.783a1.773 1.773 0 0 1-.393.644 1.72 1.72 0 0 1-.636.414 2.366 2.366 0 0 1-.863.147c-.313 0-.591-.045-.838-.139a1.715 1.715 0 0 1-.623-.396 1.736 1.736 0 0 1-.388-.625A2.375 2.375 0 0 1 9 11.01c0-.33.049-.619.148-.869.102-.25.24-.46.422-.629.179-.17.395-.299.644-.383.25-.087.528-.129.829-.129.336 0 .627.051.875.154a1.66 1.66 0 0 1 .972 1.037c.079.236.119.486.119.751.001.31-.043.591-.135.841zm0-4.999a1.803 1.803 0 0 1-.393.645 1.733 1.733 0 0 1-.636.414 2.366 2.366 0 0 1-.863.147c-.313 0-.591-.045-.838-.139a1.702 1.702 0 0 1-.623-.398 1.736 1.736 0 0 1-.388-.625A2.377 2.377 0 0 1 9 6.009c0-.329.049-.618.148-.869.102-.25.241-.459.422-.629.179-.169.395-.298.644-.383.25-.086.528-.128.829-.128.336 0 .627.051.875.155a1.67 1.67 0 0 1 .972 1.037c.079.235.119.486.119.75.001.309-.043.591-.135.842z"/></g></svg>