<svg xmlns="http://www.w3.org/2000/svg" viewBox="0 0 16 16"><style>.st0{opacity:0}.st0,.st1{fill:#f6f6f6}.st2{fill:#424242}.st3{fill:#f0eff1}</style><g id="outline"><path class="st0" d="M0 0h16v16H0z"/><path class="st1" d="M1 0h15v15H1z"/></g><g id="icon_x5F_bg"><path class="st2" d="M2 1v13h13V1H2zm12 12H3V2h11v11z"/><path class="st2" d="M8 3h1v1H8zM12 7h1v1h-1zM8 11h1v1H8zM4 7h1v1H4zM5 4h1v1H5zM11 4h1v1h-1zM11 10h1v1h-1zM5 10h1v1H5zM8 9h1V8h1V7H9V6H8v1H7v1h1z"/></g><path class="st3" d="M3 2v11h11V2H3zm8 2h1v1h-1V4zM8 3h1v1H8V3zM4 7h1v1H4V7zm2 4H5v-1h1v1zm0-6H5V4h1v1zm3 7H8v-1h1v1zm1-4H9v1H8V8H7V7h1V6h1v1h1v1zm2 3h-1v-1h1v1zm1-3h-1V7h1v1z" id="icon_x5F_fg"/></svg>