<svg xmlns="http://www.w3.org/2000/svg" viewBox="0 0 15.999 15.991"><style>.st0{opacity:0}.st0,.st1{fill:#f6f6f6}.st2{fill:#1ba1e2}.st3{fill:#f0eff1}</style><g id="outline"><path class="st0" d="M0 .001h16v16H0z"/><path class="st1" d="M12.296 16l-.279-.838-.28.838H8.735l1.012-4.045A2.997 2.997 0 0 1 9.017 10c0-1.654 1.346-3 3-3s3 1.346 3 3c0 .723-.266 1.416-.73 1.955L15.298 16h-3.002z"/></g><path class="st2" d="M14.017 10a2 2 0 0 0-4 0c0 .672.334 1.264.844 1.627L10.017 15h1l1-3 1 3h1l-.844-3.373c.51-.363.844-.955.844-1.627zm-2 1a1 1 0 1 1 0-2 1 1 0 1 1 0 2z" id="icon_x5F_bg"/><path class="st3" d="M13.017 10a1 1 0 1 1-2 0 1 1 0 1 1 2 0z" id="icon_x5F_fg"/></svg>