<svg xmlns="http://www.w3.org/2000/svg" viewBox="0 0 16 16"><style>.st0{opacity:0}.st0,.st1{fill:#f6f6f6}.st2{fill:#424242}.st3{fill:#f0eff1}</style><g id="outline"><path class="st0" d="M0 0h16v16H0z"/><path class="st1" d="M16 1H0v14h1.111l-.17 1H3l.75-1h.586l.813 1h2.07l-.199-1H16z"/></g><g id="icon_x5F_bg"><path class="st2" d="M1 14h.28l.457-2.701A3.999 3.999 0 0 1 1 10.646V14zM1 2v3.382A3.974 3.974 0 0 1 4 4c1.005 0 1.915.385 2.618 1H14v8H6.622l.199 1H15V2H1z"/><path class="st2" d="M7 8a3 3 0 1 0-4.158 2.767L2.125 15H2.5L4 13l1.625 2H6l-.842-4.233A3 3 0 0 0 7 8zM4 9.499a1.5 1.5 0 1 1 0-3 1.5 1.5 0 0 1 0 3z"/></g><g id="icon_x5F_fg"><path class="st3" d="M6.618 5a3.975 3.975 0 0 1-.337 6.285L6.622 13H14V5H6.618z"/><circle class="st3" cx="4" cy="7.999" r="1.5"/></g></svg>