<svg xmlns="http://www.w3.org/2000/svg" viewBox="0 0 16 16"><style>.st0{opacity:0}.st0,.st1{fill:#f6f6f6}.st2{fill:#424242}.st3{fill:#f0eff1}.st4{fill:#fc0}</style><g id="outline"><path class="st0" d="M0 0h16v16H0z"/><path class="st1" d="M14 10.027V3.556L10.061 0H4c-.97 0-2 .701-2 2v1.557C.81 4.25 0 5.526 0 7c0 1.339.662 2.563 1.737 3.299L.941 15H3l.766-1.021c.078.009.156.021.234.021h.336l.813 1h2.069l-.157-.789.93 1.789h7.002l.968-2.015L14 10.027z"/></g><g id="icon_x5F_bg"><path class="st2" d="M6.821 13h.649l.502-1h-1.35l.199 1zM9.641 1H3.964S3 1 3 2v1.142A3.978 3.978 0 0 1 4 3V2h5v3h3v2h.5l.5 1.009V4L9.641 1z"/><path class="st2" d="M7 7a3 3 0 1 0-4.158 2.767L2.125 14H2.5L4 12l1.625 2H6l-.842-4.233A3.002 3.002 0 0 0 7 7zM4 8.499a1.5 1.5 0 1 1 0-3 1.5 1.5 0 0 1 0 3z"/></g><g id="icon_x5F_fg"><circle class="st3" cx="4" cy="6.999" r="1.5"/><path class="st3" d="M9 5V2H4v1c2.206 0 4 1.794 4 4a3.988 3.988 0 0 1-1.719 3.286L6.622 12h1.35l2.51-5H12V5H9z"/></g><path class="st4" d="M11.88 8h-.781l-3.016 6.008.516.992h5.766l.484-1.008L11.88 8zm.109 6.006h-1v-1h1v1zm0-2h-1v-2h1v2z" id="not_x5F_bg"/><g id="not_x5F_fg"><path d="M11 10h1v2h-1zM11 13h1v1h-1z"/></g></svg>