<svg xmlns="http://www.w3.org/2000/svg" viewBox="0 0 16 16" enable-background="new 0 0 16 16"><style type="text/css">.icon-canvas-transparent{opacity:0;fill:#F6F6F6;} .icon-vs-out{fill:#F6F6F6;} .icon-vs-bg{fill:#424242;} .icon-vs-fg{fill:#F0EFF1;}</style><path class="icon-canvas-transparent" d="M16 16h-16v-16h16v16z" id="canvas"/><path class="icon-vs-out" d="M4 9.249c-.958-1.02-1.5-2.362-1.5-3.749 0-3.033 2.467-5.5 5.5-5.5 3.032 0 5.5 2.467 5.5 5.5 0 1.387-.542 2.729-1.5 3.749v6.751h-1.354l-2.646-1.323-2.646 1.323h-1.354v-6.751z" id="outline"/><path class="icon-vs-fg" d="M4.5 5.5c0-1.93 1.57-3.5 3.5-3.5s3.5 1.57 3.5 3.5-1.57 3.5-3.5 3.5-3.5-1.57-3.5-3.5zm5.5 7.941l-2-1-2 1v-3.931c.605.303 1.278.49 2 .49s1.395-.187 2-.49v3.931z" id="iconFg"/><path class="icon-vs-bg" d="M12.5 5.5c0-2.481-2.019-4.5-4.5-4.5s-4.5 2.019-4.5 4.5c0 1.325.586 2.505 1.5 3.33v6.229l3-1.5 3 1.5v-6.229c.914-.825 1.5-2.005 1.5-3.33zm-8 0c0-1.93 1.57-3.5 3.5-3.5s3.5 1.57 3.5 3.5-1.57 3.5-3.5 3.5-3.5-1.57-3.5-3.5zm5.5 7.941l-2-1-2 1v-3.931c.605.303 1.278.49 2 .49s1.395-.187 2-.49v3.931zm-2-5.441c1.379 0 2.5-1.122 2.5-2.5s-1.121-2.5-2.5-2.5-2.5 1.122-2.5 2.5 1.121 2.5 2.5 2.5zm0-4c.827 0 1.5.673 1.5 1.5s-.673 1.5-1.5 1.5-1.5-.673-1.5-1.5.673-1.5 1.5-1.5z" id="iconBg"/></svg>