<svg xmlns="http://www.w3.org/2000/svg" viewBox="0 0 16 16"><style>.st0{fill:#f6f6f6}.st1{fill:#424242}.st2{fill:#f0eff1}</style><path class="st0" d="M8.24 7A4.5 4.5 0 1 0 0 4.5c0 2.314 1.753 4.198 4 4.45V10h2v3H4v3h8v-2h2v-2h2V7H8.24z" id="outline"/><g id="icon_x5F_bg"><path class="st1" d="M7 10h4v1H7zM5 8.95V9h4V8H7.297A4.45 4.45 0 0 1 5 8.95zM12 10h3v1h-3zM5 14h6v1H5zM10 8h5v1h-5zM7 12h6v1H7zM7.373 2.504l-.602.964c.024.052.043.107.063.159.042.111.08.223.105.34.007.029.01.06.016.09.027.145.045.291.045.443C7 5.879 5.879 7 4.5 7S2 5.879 2 4.5C2 3.122 3.121 2 4.5 2c.152 0 .299.018.443.045.029.006.061.009.09.016.117.026.23.063.34.105.054.02.106.039.158.063l.002.001.963-.603A3.5 3.5 0 1 0 4.5 8a3.499 3.499 0 0 0 2.873-5.496z"/><path class="st1" d="M4 5h1l2-3-3 2z"/></g><path class="st2" d="M7.656 2.049a3.987 3.987 0 0 0-.705-.705l-1.418.886A2.483 2.483 0 0 0 4.5 2 2.503 2.503 0 0 0 2 4.5C2 5.879 3.121 7 4.5 7S7 5.879 7 4.5a2.49 2.49 0 0 0-.229-1.032l.885-1.419zM5 5H4V4l3-2-2 3z" id="icon_x5F_fg"/></svg>