<svg xmlns="http://www.w3.org/2000/svg" viewBox="0 0 16 16"><style>.st0{opacity:0}.st0,.st1{fill:#f6f6f6}.st2{fill:#424242}.st3{fill:#f0eff1}</style><g id="outline"><path class="st0" d="M0 0h16v16H0z"/><path class="st1" d="M1.586 2h9.828L13 3.586V5h3v6h-3v1.414L11.414 14H1.586L0 12.414V3.586z"/></g><path class="st2" d="M12 6V4l-1-1H2L1 4v8l1 1h9l1-1v-2h3V6h-3zm-1 6H2V4h9v2H9v4h2v2zm3-3h-4V7h4v2z" id="icon_x5F_bg"/><g id="icon_x5F_fg"><path class="st3" d="M9 6h2V4H2v8h9v-2H9z"/><path class="st3" d="M10 7h4v2h-4z"/></g></svg>