<svg xmlns="http://www.w3.org/2000/svg" viewBox="0 0 16 16"><style>.st0{opacity:0}.st0,.st1{fill:#f6f6f6}.st2{fill:#424242}.st3{fill:#393}.st4{fill:#f0eff1}</style><g id="outline"><path class="st0" d="M0 0h16v16H0z"/><path class="st1" d="M16 1H0v12h6.882l1.5 3h3.236l1.5-3H16z"/></g><g id="icon_x5F_bg"><path class="st2" d="M5.882 11H2V4l5 5h2l5-5v2h1V2H1v10h5.382l-.5-1zM13 3L8 8 3 3h10zM13.618 12H15V9.236z"/></g><path class="st3" d="M13 7l-3 6-1-2H7l2 4h2l4-8z" id="color_x5F_importance"/><g id="icon_x5F_fg"><path class="st4" d="M13 3H3l5 5z"/><path class="st4" d="M14 4L9 9H7L2 4v7h3.882l-.5-1h4.236l.382.764L12.382 6H14z"/></g></svg>