<svg xmlns="http://www.w3.org/2000/svg" viewBox="0 0 16 16"><style>.st0{fill:#f6f6f6}.st1{fill:#424242}.st2{fill:#f0eff1}.st3{fill:#fc0}</style><g id="outline"><path class="st0" d="M6.5 15.5v-.65l-.752.44c-.239.14-.49.21-.748.21H2c-.827 0-1.5-.673-1.5-1.5v-1.5h1V10c0-.827.673-1.5 1.5-1.5h3.5v-8h9v15h-9z"/><path class="st0" d="M15 1v14H7v-1.023l-1.505.881A.974.974 0 0 1 5 15H2c-.551 0-1-.448-1-1v-1h1v-3c0-.552.449-1 1-1h4V1h8m1-1H6v8H3a2 2 0 0 0-2 2v2H0v2c0 1.104.897 2 2 2h3c.366 0 .705-.106 1-.278V16h10V0z"/></g><g id="icon_x5F_bg"><path class="st1" d="M7.5 15L7 14v1zM7 14l1-2H7zM7 1v7.278c.595.347 1 .985 1 1.722v2l2.5-5h2l2.5 5V1H7zm6 5H9V5h4v1zm0-2H9V3h4v1zM7 10a1 1 0 0 0-1-1H3a1 1 0 0 0-1 1v2.5h1V10h2v3.5a.5.5 0 0 1-1 0V13H1v1a1 1 0 0 0 1 1h3a1 1 0 0 0 1-1v-3h1v-1z"/></g><g id="icon_x5F_fg"><path class="st2" d="M9 3h4v1H9zM9 5h4v1H9zM3 10v3h1v.5a.5.5 0 0 0 1 0V10H3z"/></g><path class="st3" d="M11.891 8.016h-.781l-3.016 6 .515.984h5.766l.484-1-2.968-5.984zM12 14h-1v-1h1v1zm0-2h-1v-2h1v2z" id="not_x5F_bg"/><path d="M12 12h-1v-2h1v2zm0 1h-1v1h1v-1z" id="not_x5F_fg"/></svg>