<svg xmlns="http://www.w3.org/2000/svg" viewBox="0 0 16 16"><style>.st0{fill:#f6f6f6}.st1{fill:none}.st2{fill:#424242}.st3{fill:#f0eff1}.st4{fill:#e51400}.st5{fill:#fff}</style><path class="st0" d="M6 0v8H3a2 2 0 0 0-2 2v2H0v2c0 1.104.897 2 2 2h3c.366 0 .705-.106 1-.278V16h10V0H6z" id="outline"/><g id="icon_x5F_bg"><path class="st1" d="M9 5h4v1H9zM9 3h4v1H9z"/><path class="st2" d="M7 10a1 1 0 0 0-1-1H3a1 1 0 0 0-1 1v2.5h1V10h2v3.5a.5.5 0 0 1-1 0V13H1v1a1 1 0 0 0 1 1h3a1 1 0 0 0 1-1v-3h1v-1zM7.05 12H7v3h1.703a4.47 4.47 0 0 1-1.653-3zM7 1v7.278c.311.181.564.444.741.756A4.492 4.492 0 0 1 11.5 7c1.423 0 2.676.673 3.5 1.703V1H7zm6 5H9V5h4v1zm0-2H9V3h4v1zM15 15v-.703c-.209.26-.443.494-.703.703H15z"/></g><g id="icon_x5F_fg"><path class="st3" d="M9 3h4v1H9zM9 5h4v1H9zM3 10v3h1v.5a.5.5 0 0 0 1 0V10H3z"/></g><path class="st4" d="M11.5 8a3.5 3.5 0 1 0 0 7 3.5 3.5 0 0 0 0-7zm1.854 4.646l-.707.707-1.147-1.146-1.146 1.147-.707-.707 1.147-1.146-1.147-1.146.707-.707 1.146 1.147 1.146-1.147.707.707-1.146 1.145 1.147 1.146z" id="not_x5F_bg"/><path class="st5" d="M13.354 10.354l-.708-.708-1.146 1.147-1.146-1.147-.708.708 1.147 1.146-1.147 1.146.708.708 1.146-1.147 1.146 1.147.708-.708-1.147-1.146z" id="not_x5F_fg"/></svg>