<svg xmlns="http://www.w3.org/2000/svg" viewBox="0 0 16 16"><style>.st0{fill:#f6f6f6}.st1{fill:none}.st2{fill:#424242}.st3{fill:#f0eff1}</style><path class="st0" d="M6 0v8H3a2 2 0 0 0-2 2v2H0v2c0 1.104.897 2 2 2h3c.366 0 .705-.106 1-.278V16h10V0H6z" id="outline"/><g id="icon_x5F_bg"><path class="st1" d="M12 12h1v1h-1zM9 3h4v1H9zM9 5h4v1H9z"/><path class="st2" d="M7 1v7.278c.596.347 1 .985 1 1.722v2H7v3h8V1H7zm6 12h-1v-1h1v1zm0-7H9V5h4v1zm0-2H9V3h4v1zM7 10a1 1 0 0 0-1-1H3a1 1 0 0 0-1 1v2.5h1V10h2v3.5a.5.5 0 0 1-1 0V13H1v1a1 1 0 0 0 1 1h3a1 1 0 0 0 1-1v-3h1v-1z"/></g><g id="icon_x5F_fg"><path class="st3" d="M3 13h1v.5a.5.5 0 0 0 1 0V10H3v3zM9 5h4v1H9zM12 12h1v1h-1zM9 3h4v1H9z"/></g></svg>