<svg xmlns="http://www.w3.org/2000/svg" viewBox="0 0 16 16"><style>.st0{fill:#f6f6f6}.st1{fill:#424242}</style><path class="st0" d="M16 13.086L13.914 11H9.998c.015-.151.033-.3.033-.459 0-.74-.161-1.402-.454-1.998L12 6.121v1.293l3-3V1h-3.414l-3 3h1.293L7.396 6.483A5.427 5.427 0 0 0 5.124 6c-.043 0-.082.01-.124.011V2.086L2.914 0h-.828L0 2.086v4.328l1-1V8.02c-.652.873-1 1.906-1 3.102 0 1.429.471 2.61 1.399 3.512.918.898 2.126 1.354 3.588 1.354.98 0 1.827-.147 2.516-.436l.613-.257V15h2.47l-1 1h4.328L16 13.914v-.828zM4 6.11v-.696l.629.629c-.212.018-.428.028-.629.067zM9.795 12c.069-.2.122-.411.16-.631l.631.631h-.791z" id="outline"/><g id="icon_x5F_bg"><path class="st1" d="M2 6h1V3l1 1V2.5L2.5 1 1 2.5V4l1-1zM13.5 12H12l1 1H9v1h4l-1 1h1.5l1.5-1.5zM12 2l-1 1h1.293l-4 4-.008.013c.1.075.207.136.302.22.162.143.291.305.425.462L13 3.707V5l1-1V2h-2zM5.836 12.135h-.025c-.234.699-.693 1.047-1.375 1.047-.435 0-.786-.164-1.052-.488-.268-.326-.4-.766-.4-1.315 0-.73.183-1.336.549-1.818.365-.482.847-.723 1.445-.723.229 0 .43.063.609.186.18.125.293.275.346.449h.016c.01-.09.033-.277.072-.557h.809c-.154 1.709-.23 2.58-.23 2.611 0 .643.168.963.502.963.307 0 .561-.178.76-.537.203-.357.303-.822.303-1.393 0-.842-.271-1.529-.816-2.061-.544-.533-1.3-.8-2.265-.8-.928 0-1.692.324-2.3.969-.608.643-.912 1.449-.912 2.42 0 .955.293 1.725.877 2.311.586.586 1.373.881 2.363.881.783 0 1.451-.133 2.004-.4v.75c-.568.238-1.277.357-2.129.357-1.195 0-2.16-.355-2.889-1.068C1.366 13.207 1 12.273 1 11.121c0-1.188.387-2.17 1.16-2.95C2.935 7.39 3.921 7 5.124 7c1.126 0 2.06.328 2.8.982.738.655 1.107 1.508 1.107 2.559 0 .771-.199 1.404-.601 1.898-.4.496-.891.742-1.469.742-.746.001-1.123-.347-1.125-1.046zm-.777-2.608c-.355 0-.645.174-.863.523-.22.351-.33.787-.33 1.309 0 .348.074.625.22.828a.702.702 0 0 0 .594.303c.355 0 .639-.184.85-.553.207-.365.311-.854.311-1.457-.001-.637-.26-.953-.782-.953z"/></g></svg>