<svg xmlns="http://www.w3.org/2000/svg" viewBox="0 0 16 16"><style>.st0{opacity:0}.st0,.st1{fill:#f6f6f6}.st2{fill:none}.st3{fill:#424242}.st4{fill:#f0eff1}</style><g id="outline"><path class="st0" d="M0 0h16v16H0z"/><path class="st1" d="M1.586 15L0 13.414V2.586L1.586 1H2V0h3v1h9.414L16 2.586v10.828L14.414 15H1.586z"/></g><g id="icon_x5F_bg"><path class="st2" d="M2 3h2v10H2zM5 13h9V3H5v10zm5-1H9v-1h1v1zm0-2H9V9h1v1zm0-2H9V7h1v1zm2 4h-1v-1h1v1zm0-2h-1V9h1v1zm0-2h-1V7h1v1zM7 4h5v2H7V4zm0 3h1v1H7V7zm0 2h1v1H7V9zm0 2h1v1H7v-1z"/><path class="st3" d="M7 7h1v1H7zM9 7h1v1H9zM11 7h1v1h-1zM7 9h1v1H7zM9 9h1v1H9zM11 9h1v1h-1zM7 11h1v1H7zM9 11h1v1H9zM11 11h1v1h-1zM7 4h5v2H7z"/><path class="st3" d="M14 2H4V1H3v1H2L1 3v10l1 1h12l1-1V3l-1-1zM4 13H2V3h2v10zm10 0H5V3h9v10z"/></g><g id="icon_x5F_fg"><path class="st2" d="M9 7h1v1H9zM9 11h1v1H9zM9 9h1v1H9zM7 7h1v1H7zM7 11h1v1H7zM7 9h1v1H7zM7 4h5v2H7zM11 9h1v1h-1zM11 7h1v1h-1zM11 11h1v1h-1z"/><path class="st4" d="M2 3h2v10H2zM5 3v10h9V3H5zm3 9H7v-1h1v1zm0-2H7V9h1v1zm0-2H7V7h1v1zm2 4H9v-1h1v1zm0-2H9V9h1v1zm0-2H9V7h1v1zm2 4h-1v-1h1v1zm0-2h-1V9h1v1zm0-2h-1V7h1v1zm0-2H7V4h5v2z"/></g></svg>