<svg xmlns="http://www.w3.org/2000/svg" width="16" height="16"><style type="text/css">.icon-canvas-transparent{opacity:0;fill:#F6F6F6;} .icon-vs-out{fill:#F6F6F6;} .icon-vs-bg{fill:#424242;} .icon-vs-fg{fill:#F0EFF1;}</style><path class="icon-canvas-transparent" d="M16 16h-16v-16h16v16z" id="canvas"/><path class="icon-vs-out" d="M4.586 16l-1.586-1.586v-11.828l1.586-1.586h1.414v-1h5v1h1.414l1.586 1.586v11.828l-1.586 1.586h-7.828z" id="outline"/><path class="icon-vs-bg" d="M10 6h-1v1h-1v-1h-1v-1h1v-1h1v1h1v1zm3-3v11l-1 1h-7l-1-1v-11l1-1h2v-1h3v1h2l1 1zm-3 8h-3v1h3v-1zm2-8h-7v5h7v-5z" id="iconBg"/><path class="icon-vs-fg" d="M5 3v5h7v-5h-7zm5 3h-1v1h-1v-1h-1v-1h1v-1h1v1h1v1zm0 6h-3v-1h3v1z" id="iconFg"/></svg>