<svg xmlns="http://www.w3.org/2000/svg" viewBox="0 0 16 16"><style>.st0{fill:#f6f6f6}.st1{fill:#424242}.st2{fill:#f0eff1}</style><path class="st0" d="M14.414 1H13V0H8v1H6.586L5 2.586V3H1v3H0v4h1v1h1v3h3v.414L6.586 16h7.828L16 14.414V2.586z" id="outline"/><g id="icon_x5F_bg"><path class="st1" d="M14 2h-2V1H9v1H7L6 3v3h1V3h7v5H7v2H6v4l1 1h7l1-1V3l-1-1zm-2 10H9v-1h3v1z"/><path class="st1" d="M10 4v1H9v1h1v1h1V6h1V5h-1V4zM4 4h1v2H4zM6 7H1v2h1v1h1v3h1v-3h1V9h1zM2 4h1v2H2z"/></g><g id="icon_x5F_fg"><path class="st2" d="M9 11h3v1H9zM7 3v5h7V3H7zm5 3h-1v1h-1V6H9V5h1V4h1v1h1v1z"/></g></svg>