<svg xmlns="http://www.w3.org/2000/svg" viewBox="0 0 16 16"><style>.icon-vs-blue{fill:#1ba1e2}.icon-vs-out,.st0{fill:#f6f6f6}.st0{opacity:0}.st1{fill:#424242}.st2{fill:#f0eff1}</style><g id="iconBg"><path class="st0" d="M0 0h16v16H0z"/><path class="icon-vs-out" d="M13 0H6C3.794 0 2 1.794 2 4v2.812l-.194-.159L0 8.58v5.307l1.739 1.994 1.229-.936c.011.003.022.003.032.005V16h6v-1h.5c1.93 0 3.5-1.57 3.5-3.5V5h3V3c0-1.654-1.346-3-3-3z"/><path class="st1" d="M13 1H6a3 3 0 0 0-3 3v3.631l2 1.638V4a1 1 0 0 1 1-1h5v8.5a1.5 1.5 0 0 1-3 0V11h-.885l.499.408L5.523 13H9v1h.5a2.5 2.5 0 0 0 2.5-2.5V4h3V3a2 2 0 0 0-2-2z"/><path class="st2" d="M6 3a1 1 0 0 0-1 1v5.268L7.115 11H8v.5a1.5 1.5 0 0 0 3 0V3H6z"/></g><path class="icon-vs-blue" d="M1.877 14.52l-.859-.985 2.876-2.189L1 8.975l.896-.955L6 11.38l-4.123 3.14zM8 14H4v1h4v-1z" id="colorImportance"/></svg>