<svg xmlns="http://www.w3.org/2000/svg" viewBox="0 0 16 16"><style>.st0{fill:#f6f6f6}.st1{fill:#424242}.st2{fill:#f0eff1}</style><path class="st0" d="M16 2.086L13.914 0H6.086L4 2.086v2.276L6.198 7H0v7h4v2h7v-5.638l5-6V2.086zM7 7.962L7.865 9H7V7.962z" id="outline"/><g id="icon_x5F_bg"><path class="st1" d="M13.5 1h-7L5 2.5V4l4.167 5h1.666L15 4V2.5L13.5 1zM9 2h2l.678 1H8.323L9 2zM7 2h1l-.737 1H6l1-1zM6 4h1.305l1.486 3.139L6 4zm4 4.214L8.296 4h3.408L10 8.214zm1.209-1.075L12.695 4H14l-2.791 3.139zM12.737 3L12 2h1l1 1h-1.263zM6 8H1v5h4v2h5v-5H6V8zm-1 4H2v-2h3v2zm4 0v2H6v-2h3z"/></g><g id="icon_x5F_fg"><path class="st2" d="M2 10h3v2H2zM6 12h3v2H6zM11 2H9l-.677 1h3.355zM8 2H7L6 3h1.263zM14 3l-1-1h-1l.737 1zM8.296 4L10 8.214 11.704 4zM7.305 4H6l2.791 3.139zM11.209 7.139L14 4h-1.305z"/></g></svg>