<svg xmlns="http://www.w3.org/2000/svg" viewBox="0 0 16 16"><style>.st0{opacity:0}.st0,.st1{fill:#f6f6f6}.st2{fill:#424242}.st3{fill:#f0eff1}</style><g id="outline"><path class="st0" d="M0 0h16v16H0z"/><path class="st1" d="M16 2.086L13.914 0H6.086L4 2.086v2.276l1.467 1.761a3.06 3.06 0 0 0-.933.442c-.489.34-.924.854-1.326 1.569l-.709-.009-.736 2.521h.664l-.646 2.452a1.653 1.653 0 0 0-.24-.017c-.515 0-.858.207-1.055.381A1.407 1.407 0 0 0 0 14.523c0 .439.2.838.561 1.119.299.238.697.358 1.182.358.603 0 1.149-.159 1.625-.472.448-.294.835-.732 1.153-1.311.084-.154.166-.331.248-.53.073.152.173.289.296.408a1.49 1.49 0 0 0 1.066.411c.294 0 .577-.061.849-.186.243-.113.49-.302.775-.587.03-.03.067-.067.108-.111.16.253.353.453.573.597.291.191.637.288 1.026.288.395 0 .776-.126 1.122-.364.37-.248.718-.631 1.063-1.168l.353-.551v-.463l-1.631-.92-.156.21a14.036 14.036 0 0 1-.087-.251h.343l.013-.016c.018 0 .037.006.055.006A1.453 1.453 0 0 0 12 9.514c0-.114-.016-.214-.034-.311L16 4.362V2.086zm-9.345 9.523a1.544 1.544 0 0 0-.506-.087c-.279 0-.54.067-.768.196l.2-.768 1.001-.195c.068-.014.134-.033.195-.057.05.143.108.326.179.559a13.47 13.47 0 0 1-.301.352z"/></g><g id="icon_x5F_bg"><path class="st2" d="M13.5 1h-7L5 2.5V4l1.71 2.053c.346.051.655.149.884.339.358.292.559.716.559 1.189 0 .065-.017.115-.023.174l.227.272h.483l.343.519c.146-.129.283-.228.419-.3a1.87 1.87 0 0 1 .357-.136L8.296 4h3.408l-1.65 4.081a1.9 1.9 0 0 1 .433-.052c.418 0 .717.133.922.282L15 4V2.5L13.5 1zM7 2h1l-.737 1H6l1-1zm1.791 5.139L6 4h1.305l1.486 3.139zM8.323 3L9 2h2l.678 1H8.323zm2.886 4.139L12.695 4H14l-2.791 3.139zM12.737 3L12 2h1l1 1h-1.263zM5.028 9.135c.186-.738.432-1.279.739-1.619.186-.213.367-.319.545-.319.036 0 .064.009.087.03a.101.101 0 0 1 .035.079c0 .029-.025.085-.076.167a.46.46 0 0 0-.074.231c0 .102.039.19.117.262.079.074.177.11.297.11a.428.428 0 0 0 .323-.134.488.488 0 0 0 .132-.36.512.512 0 0 0-.196-.419C6.826 7.054 6.616 7 6.329 7c-.45 0-.858.128-1.224.385-.367.256-.715.68-1.045 1.272-.114.205-.222.336-.324.394-.103.059-.266.087-.49.084l-.149.511h.627l-.919 3.496c-.152.574-.257.928-.312 1.061a1.268 1.268 0 0 1-.355.499.331.331 0 0 1-.229.085.1.1 0 0 1-.064-.023l-.022-.03c0-.015.022-.044.068-.089.045-.045.068-.115.068-.207a.332.332 0 0 0-.109-.254c-.071-.068-.175-.102-.309-.102a.57.57 0 0 0-.394.132.4.4 0 0 0-.147.309c0 .129.06.24.181.335.119.095.306.142.562.142.404 0 .764-.102 1.077-.309.314-.205.587-.523.822-.95.232-.429.474-1.12.72-2.075l.527-2.02h.634l.158-.512h-.653z"/><path class="st2" d="M10.486 9.028a.88.88 0 0 0-.416.103c-.13.068-.296.217-.497.443-.149.17-.372.465-.666.889-.117-.521-.317-1-.605-1.435H6.391v.746c.117-.022.527-.353.607-.353.157 0 .285.066.388.197.162.204.388.824.676 1.862-.226.295-.653.79-.737.88-.138.146-.253.24-.342.283a.484.484 0 0 1-.234.054c-.065 0-.175-.034-.324-.106a.694.694 0 0 0-.274-.069.522.522 0 0 0-.379.146.482.482 0 0 0-.147.367c0 .139.045.252.138.342.09.086.215.13.371.13.149 0 .291-.03.423-.091.132-.063.297-.192.497-.393.2-.199.748-.818 1.099-1.253.135.413.396 1.019.494 1.206.099.187.212.322.34.406a.868.868 0 0 0 .479.124.982.982 0 0 0 .566-.196c.252-.168.511-.461.775-.875l-.161-.091c-.182.243-.315.398-.401.459a.36.36 0 0 1-.204.058c-.092 0-.184-.058-.274-.173-.153-.191-.499-1.026-.754-1.901.228-.392.42-.646.575-.766a.584.584 0 0 1 .361-.131c.047 0 .135.016.258.049.126.033.235.051.331.051a.453.453 0 0 0 .332-.133.47.47 0 0 0 .13-.343.471.471 0 0 0-.132-.354c-.088-.089-.216-.132-.382-.132z"/></g><g id="icon_x5F_fg"><path class="st3" d="M11 2H9l-.677 1h3.355zM8 2H7L6 3h1.263zM14 3l-1-1h-1l.737 1zM6 4l2.791 3.139L7.305 4zM11.209 7.139L14 4h-1.305zM8.296 4L10 8.214 11.704 4z"/></g></svg>