<svg xmlns="http://www.w3.org/2000/svg" width="16" height="16"><style type="text/css">.icon-canvas-transparent{opacity:0;fill:#F6F6F6;} .icon-vs-out{fill:#F6F6F6;} .icon-vs-bg{fill:#424242;}</style><path class="icon-canvas-transparent" d="M16 16h-16v-16h16v16z" id="canvas"/><path class="icon-vs-out" d="M4 4h8v-1h-2v-3h3c.97 0 2 .701 2 2v4.169c.163.203.387.441.612.616l.388.3v1.83l-.388.3c-.258.201-.484.458-.612.617v4.168c0 1.299-1.03 2-2 2h-3v-3h-4v3h-3c-.97 0-2-.701-2-2v-4.169c-.131-.162-.355-.419-.614-.62l-.386-.3v-1.822l.386-.3c.228-.178.451-.417.614-.62v-4.169c0-1.299 1.03-2 2-2h3v3h-2" id="outline"/><g id="iconBg"><path class="icon-vs-bg" d="M3 6.5v-4.5h2v-1h-2s-1 0-1 1v4.273c0 .144-.031.273-.087.349-.152.207-.495.631-.913.956v.844c.403.313.735.717.895.932.068.089.105.213.105.334v4.312c0 1 1 1 1 1h2v-1h-2v-4.5c0-1.363-.932-1.5-.932-1.5s.932-.045.932-1.5m11.996 1.074c-.417-.324-.758-.746-.909-.952-.056-.076-.087-.205-.087-.349v-4.273c0-1-1-1-1-1h-2v1h2v4.5c0 1.454.988 1.5.988 1.5s-.988.136-.988 1.5v4.5h-2v1h2s1 0 1-1v-4.312c0-.12.037-.244.106-.334.159-.214.49-.616.891-.928v-.852zm-3.996-1.574h-6v-1h6v1zm0 3h-3v-1h3v1zm0 3h-6v-1h6v1z"/></g></svg>