<svg xmlns="http://www.w3.org/2000/svg" viewBox="0 0 16 16"><style>.st0{opacity:0}.st0,.st1{fill:#f6f6f6}.st2{fill:#424242}.st3{fill:#00539c}.st4{fill:#f0eff1}</style><g id="outline"><path class="st0" d="M0 0h16v16H0z"/><path class="st1" d="M10 4V2H8l2-2H4L0 4l4 4h.349A5.97 5.97 0 0 0 4 10a6 6 0 1 0 6-6z"/></g><path class="st2" d="M10 5v1H8l2 2H9l1 1 2-2 1 1-2 1.973L13 12l-1 1-2-2-2 2-1-1 2-2.027L7 8H5.422A4.959 4.959 0 0 0 5 10a5 5 0 0 0 5 5 5 5 0 0 0 5-5 5 5 0 0 0-5-5z" id="icon_x5F_bg"/><path class="st3" d="M9 5H5l2 2H5L2 4l3-3h2L5 3h4z" id="color_x5F_action"/><path class="st4" d="M9 9.973L7 12l1 1 2-2 2 2 1-1-2-2.027L13 8l-1-1-2 2-1-1H7z" id="icon_x5F_fg"/></svg>