<svg xmlns="http://www.w3.org/2000/svg" width="16" height="16"><style type="text/css">.icon-canvas-transparent{opacity:0;fill:#F6F6F6;} .icon-vs-out{fill:#F6F6F6;} .icon-vs-bg{fill:#424242;} .icon-vs-fg{fill:#F0EFF1;}</style><path class="icon-canvas-transparent" d="M16 16h-16v-16h16v16z" id="canvas"/><path class="icon-vs-out" d="M16 1.001v13.974h-1.389l-1.025 1.025-1.025-1.025h-12.561v-13.974h16z" id="outline"/><path class="icon-vs-bg" d="M11.035 13.449c-.31.091-.627.137-.949.137-.714 0-1.378-.217-1.932-.586h-6.154v-8h12v6.586l1 1v-10.586h-14v12h10.586l-.551-.551zm-.035-10.449h3v1h-3v-1zm-4 0h3v1h-3v-1zm3.086 4.586c1.381 0 2.5 1.119 2.5 2.5 0 .432-.12.832-.313 1.188l2.313 2.313-1 1-2.313-2.313c-.355.193-.756.313-1.188.313-1.381 0-2.5-1.119-2.5-2.5.001-1.382 1.12-2.501 2.501-2.501zm0 1c-.828 0-1.5.672-1.5 1.5s.672 1.5 1.5 1.5 1.5-.672 1.5-1.5-.672-1.5-1.5-1.5z" id="iconBg"/><path class="icon-vs-fg" d="M7 3h3v1h-3v-1zm4.586 7.086c0 .828-.672 1.5-1.5 1.5s-1.5-.672-1.5-1.5.672-1.5 1.5-1.5 1.5.672 1.5 1.5zm-.586-7.086h3v1h-3v-1zm-2.846 10h-6.154v-8h12v6.586l-.551-.551c.091-.31.137-.627.137-.949 0-1.93-1.57-3.5-3.5-3.5s-3.5 1.57-3.5 3.5c0 1.216.624 2.286 1.568 2.914z" id="iconFg"/></svg>