<svg xmlns="http://www.w3.org/2000/svg" viewBox="0 0 16 16"><style>.st0{opacity:0}.st0,.st1{fill:#f6f6f6}.st2{fill:#424242}.st3{fill:#f0eff1}</style><g id="outline"><path class="st0" d="M0 0h16v16H0z"/><path class="st1" d="M13 6.711A3.567 3.567 0 0 0 15 3.5C15 1.57 13.43 0 11.5 0a3.504 3.504 0 0 0-3.226 4.86L7.414 4H1.586L0 5.586v8.828L1.586 16h5.828L9 14.414V5.973c.287.3.621.555 1 .738V13h3v-1h2V7h-2v-.289zM11.5 4a.5.5 0 1 1 .002-1.002A.5.5 0 0 1 11.5 4z"/></g><g id="icon_x5F_bg"><path class="st2" d="M2 5L1 6v8l1 1h5l1-1V6L7 5H2zm5 8v1H2V6h5v7z"/><path class="st2" d="M3 7h3v1H3zM3 9h1v1H3zM5 9h1v1H5zM3 11h1v1H3zM5 11h1v2H5zM12 6c1.141-.231 2-1.291 2-2.5a2.5 2.5 0 1 0-5 0c0 1.209.859 2.269 2 2.5v6h1v-1h2v-1h-2V9h2V8h-2V6zm-.5-1a1.5 1.5 0 1 1 .001-3.001A1.5 1.5 0 0 1 11.5 5z"/></g><path class="st3" d="M6 6H2v8h5V6H6zm-2 6H3v-1h1v1zm0-2H3V9h1v1zm2 3H5v-2h1v2zm0-3H5V9h1v1zm0-2H3V7h3v1z" id="icon_x5F_fg"/></svg>