<svg xmlns="http://www.w3.org/2000/svg" viewBox="0 0 16 16"><style>.st0{opacity:0;fill:#fff;stroke:#000;stroke-miterlimit:10}.st1{fill:#f6f6f6}.st2{fill:#424242}.st3{fill:#f0eff1}</style><path class="st0" d="M0 0h16v16H0z" id="outline"/><g id="icon_x5F_bg"><path class="st1" d="M3 16v-3H0V6h2V3h2V0h7.98v3H14v3h2v7h-3v3H3z"/><path class="st2" d="M13 7V4h-.833v3h-1.186V1H5v6H4V4H3v3H1v5h3v3h8v-3h3V7h-2zM3 9H2V8h1v1zm1-1h1v1H4V8zm7 6H5v-4h6v4z"/></g><g id="icon_x5F_fg"><path class="st3" d="M2 8h1v1H2zM4 8h1v1H4zM5 10h6v4H5z"/></g></svg>