<svg xmlns="http://www.w3.org/2000/svg" viewBox="0 0 16 16"><style>.icon-canvas-transparent{opacity:0;fill:#f6f6f6}.icon-vs-out{fill:#f6f6f6}.icon-vs-fg{fill:#f0eff1}.icon-vs-action-blue{fill:#00539c}.st0{fill:#424242}</style><path class="icon-canvas-transparent" d="M0 0h16v16H0z" id="canvas"/><path class="icon-vs-out" d="M13.547 0H8c-.969 0-2 .701-2 2v3H2v3H0v6h2v2h8v-2h2v-2h2c1.299 0 2-1.03 2-2V2.062L13.547 0z" id="outline"/><path class="st0" d="M12.625 1h-4.66S7 1 7 2v3h1V2h4v2h2v6h-2v1h1.965c1 0 1.035-1 1.035-1V3.137L12.625 1z" id="iconBg"/><path class="icon-vs-action-blue" d="M9 6H3v3H1v4h2v2h6v-2h2V9H9V6zm-6 5H2v-1h1v1zm1-1h1v1H4v-1zm4 4H4v-1h4v1zm0-5H4V7h4v2z" id="colorImportance"/><g id="iconFg"><path class="icon-vs-fg" d="M4 10h1v1H4zM2 10h1v1H2zM4 13h4v1H4zM4 7h4v2H4zM12 3.96V2H8v3h2v3h2v2h2V3.996z"/><g><path class="icon-vs-fg" d="M4 10h1v1H4zM2 10h1v1H2zM4 13h4v1H4zM4 7h4v2H4zM12 3.96V2H8v3h2v3h2v2h2V3.996z"/></g></g></svg>