<svg xmlns="http://www.w3.org/2000/svg" viewBox="0 0 16 16"><style>.st0{opacity:0}.st0,.st1{fill:#f6f6f6}.st2{fill:#424242}.st3{fill:#f0eff1}</style><g id="outline"><path class="st0" d="M0 0h16v16H0z"/><path class="st1" d="M1 1h14v14H1z"/></g><path class="st2" d="M2 2v12h12V2H2zm7 2v2H7V4h2zm0 3v2H7V7h2zM4 4h2v2H4V4zm0 3h2v2H4V7zm0 5v-2h2v2H4zm3 0v-2h2v2H7zm5 0h-2v-2h2v2zm0-3h-2V7h2v2zm0-3h-2V4h2v2z" id="icon_x5F_bg"/><g id="icon_x5F_fg"><path class="st3" d="M4 7h2v2H4zM10 4h2v2h-2zM7 10h2v2H7zM4 10h2v2H4zM4 4h2v2H4zM10 10h2v2h-2zM10 7h2v2h-2zM7 4h2v2H7zM7 7h2v2H7z"/></g></svg>