<svg xmlns="http://www.w3.org/2000/svg" viewBox="0 0 16 16"><style>.st0{opacity:0}.st0,.st1{fill:#f6f6f6}.st2{fill:#424242}.st3{fill:#f0eff1}</style><g id="outline"><path class="st0" d="M0 0h16v16H0z"/><path class="st1" d="M4 15c-.97 0-2-.701-2-2V3c0-1.299 1.03-2 2-2h6.061L14 4.556V13c0 .97-.701 2-2 2H4z"/></g><g id="icon_x5F_bg"><path class="st1" d="M4 15c-.97 0-2-.701-2-2V3c0-1.299 1.03-2 2-2h6.061L14 4.556V13c0 .97-.701 2-2 2H4z"/><path class="st2" d="M9.641 2H3.964S3 2 3 3v10c0 1 .965 1 .965 1h8c1 0 1.035-1 1.035-1V5L9.641 2zM4 3h2v7H4V3zm0 10v-2h2v2H4zm8 0H7v-2h5v2zm0-3H7V3h2v3h3v4z"/></g><g id="icon_x5F_fg"><path class="st3" d="M4 11h2v2H4zM4 3h2v7H4zM7 11h5v2H7zM9 6V3H7v7h5V6z"/></g></svg>