<svg xmlns="http://www.w3.org/2000/svg" viewBox="0 0 16 16"><style>.icon-canvas-transparent{opacity:0;fill:#f6f6f6}.icon-vs-out{fill:#f6f6f6}.icon-vs-bg{fill:#424242}.icon-vs-fg{fill:#f0eff1}.icon-vs-action-blue{fill:#00539c}</style><path class="icon-canvas-transparent" d="M0 0h16v16H0z" id="canvas"/><path class="icon-vs-out" d="M16 0H4v4.689a4.467 4.467 0 0 0-.649 4.547L0 12.586l.001.829L2 15.414l3.765-3.764c.533.225 1.121.35 1.735.35 1.552 0 2.901-.801 3.707-2H16V0z" id="outline"/><path class="icon-vs-bg" d="M5 1v2.762a4.469 4.469 0 0 1 1-.485V3h8v5h-2.051a4.407 4.407 0 0 1-.226 1H15V1H5z" id="iconBg"/><g id="iconFg"><circle class="icon-vs-fg" cx="7.5" cy="7.5" r="2.5"/><path class="icon-vs-fg" d="M6 3.276A4.454 4.454 0 0 1 7.5 3H6v.276zM7.5 3C9.981 3 12 5.019 12 7.5c0 .171-.032.333-.051.5H14V3H7.5z"/><g><circle class="icon-vs-fg" cx="7.5" cy="7.5" r="2.5"/><path class="icon-vs-fg" d="M6 3.276A4.454 4.454 0 0 1 7.5 3H6v.276zM7.5 3C9.981 3 12 5.019 12 7.5c0 .171-.032.333-.051.5H14V3H7.5z"/></g></g><path class="icon-vs-action-blue" d="M7.5 4A3.5 3.5 0 0 0 4 7.5c0 .71.215 1.369.579 1.921L1 13l1 1 3.579-3.579A3.478 3.478 0 0 0 7.5 11a3.5 3.5 0 1 0 0-7zm0 6a2.5 2.5 0 1 1 0-5 2.5 2.5 0 0 1 0 5z" id="colorAction"/></svg>