<svg xmlns="http://www.w3.org/2000/svg" viewBox="0 0 16 16"><style>.st0{opacity:0}.st0,.st1{fill:#f6f6f6}.st2{fill:#424242}.st3{fill:#f0eff1}</style><g id="outline"><path class="st0" d="M0 0h16v16H0z"/><path class="st1" d="M1 1h14v14H1z"/></g><path class="st2" d="M2 2v12h12V2H2zm7 2v3H7V4h2zM4 4h2v3H4V4zm0 8V9h2v3H4zm3 0V9h2v3H7zm5 0h-2V9h2v3zm0-5h-2V4h2v3z" id="icon_x5F_bg"/><g id="icon_x5F_fg"><path class="st3" d="M4 4h2v3H4zM4 9h2v3H4zM7 9h2v3H7zM7 4h2v3H7zM10 4h2v3h-2zM10 9h2v3h-2z"/></g></svg>