<svg xmlns="http://www.w3.org/2000/svg" viewBox="0 0 16 16"><style>.st0{opacity:0;fill:#fff;stroke:#000;stroke-miterlimit:10}.st1{fill:#f6f6f6}.st2{fill:#424242}.st3{fill:#f0eff1}</style><g id="outline"><path class="st0" d="M0 0h16v16H0z"/><path class="st0" d="M0 0h16v16H0z"/></g><g id="icon_x5F_bg"><path class="st1" d="M3 16v-3H0V6h2V3h12v3h2v7h-3v3H3z"/><path class="st2" d="M5 12h6v4H5zM13 7V4H3v3H1v5h3v-2h8v2h3V7h-2zM3 9H2V8h1v1zm2 0H4V8h1v1zm5.981-2H4V5h8.167v2h-1.186z"/></g><g id="icon_x5F_fg"><path class="st3" d="M2 8h1v1H2zM4 8h1v1H4zM4 5h8v2H4z"/></g></svg>