<svg xmlns="http://www.w3.org/2000/svg" viewBox="0 0 16 16"><style>.icon-canvas-transparent{opacity:0;fill:#f6f6f6}.icon-vs-out{fill:#f6f6f6}.icon-vs-bg{fill:#424242}.icon-vs-fg{fill:#f0eff1}.icon-vs-action-blue{fill:#00539c}</style><path class="icon-canvas-transparent" d="M0 0h16v16H0z" id="canvas"/><path class="icon-vs-out" d="M16 0H4v4H2v3H0v6h2v2h8v-2h2v-3h4z" id="outline"/><path class="icon-vs-bg" d="M5 1v3h1V3h8v5h-2v1h3V1z" id="iconBg"/><g id="iconFg"><path class="icon-vs-fg" d="M2 9h1v1H2zM4 9h1v1H4zM4 12h4v1H4zM4 6h4v2H4zM6 3v1h4v3h2v1h2V3z"/></g><path class="icon-vs-action-blue" d="M9 5H3v3H1v4h2v2h6v-2h2V8H9V5zm-6 5H2V9h1v1zm1-1h1v1H4V9zm4 4H4v-1h4v1zm0-5H4V6h4v2z" id="colorImportance"/></svg>