<svg xmlns="http://www.w3.org/2000/svg" viewBox="0 0 16 16"><style>.st0{fill:#f6f6f6}.st1{fill:none}.st2{fill:#424242}.st3{fill:#f0eff1}</style><path class="st0" d="M4 0v2H2v5.246c-.813.308-1.276.867-1.546 1.46A3.34 3.34 0 0 0 0 10v6h7v-3h7v-2h2V0H4z" id="outline"/><g id="icon_x5F_bg"><path class="st1" d="M3.5 8.85C2 8.85 2 10.208 2 11h3c0-.83 0-2.15-1.5-2.15zM3 12h1v2H3zM12 4H4l4 4z"/><path class="st2" d="M3 7.041c.164-.02.328-.041.5-.041s.336.021.5.04V6s2.095 1.966 2.417 2.417L7 9h2l3-3v5H7v1h6V3H3v4.041zM12 4L8 8 4 4h8z"/><path class="st2" d="M5 1v1h9v8h1V1zM3.5 8C1 8 1.148 9.854 1 11v4h5v-4c-.14-1.146 0-3-2.5-3zm.5 6H3v-2h1v2zm-2-3c0-.792 0-2.15 1.5-2.15S5 10.17 5 11H2z"/></g><g id="icon_x5F_fg"><path class="st3" d="M5.734 7.672L4 6v1.04s.578.007 1.031.226C5.484 7.484 6.058 8 6.058 8c-.118-.116-.187-.23-.324-.328zM12 4H4l4 4z"/><path class="st3" d="M9 9H7l-.583-.583C6.717 8.837 7 9 7 10v1h5V6l-2 2-1 1zM3 12h1v2H3z"/></g></svg>