<svg xmlns="http://www.w3.org/2000/svg" viewBox="0 0 16 16"><style>.st0{fill:#f6f6f6}.st1{fill:#424242}.st2{fill:none}.st3{fill:#f0eff1}</style><path class="st0" d="M16 4h-2V1.382l-2 1V0H9v2.382l-2-1V4H5v3.234A4.814 4.814 0 0 0 3.5 7C1.664 7 .22 8.31 0 10v6h7v-3h9V4z" id="outline"/><g id="icon_x5F_bg"><path class="st1" d="M13 4.2V2.85L11 4.3V1h-1v3.3L8 2.85V4.2L10.5 6z"/><path class="st2" d="M3 12h1v2H3z"/><path class="st1" d="M14 5v6H7v1h8V5zM7 8V5H6v2.757C6 8 6 8 7 8zM3.5 9c.82 0 1.353.471 1.5 1h1c-.14-1.146-1.127-2-2.5-2s-2.352.854-2.5 2h1c.141-.527.654-1 1.5-1zM1 15h5v-4H1v4zm2-3h1v2H3v-2z"/><path class="st1" d="M12 7h1v1h-1zM11 9h1v1h-1zM10 7h1v1h-1zM9 9h1v1H9zM8 7h1v1H8z"/></g><g id="icon_x5F_fg"><path class="st3" d="M4 14H3v-2h1v2zM10.823 7H11v1h-1V7h.177L7.399 5H7v6h7V5h-.399l-2.778 2zM8 7h1v1H8V7zm2 3H9V9h1v1zm2 0h-1V9h1v1zm1-2h-1V7h1v1z"/></g></svg>