<svg xmlns="http://www.w3.org/2000/svg" viewBox="0 0 16 16"><style>.st0{fill:#f6f6f6}.st1{fill:#424242}.st2{fill:#f0eff1}</style><path class="st0" d="M16 0H1v8.025l-.417.538.417.536v.396l-.073.009-.782.191-.099.77C.021 10.641 0 10.816 0 11s.021.359.059.632l.099.768.842.105v.396l-.417.535.417.538V15h1.025l.537.417.536-.417h.396l.009.072.191.783.769.099c.178.025.354.046.537.046s.359-.021.631-.059l.77-.1.104-.841h.396l.536.417.538-.417H16V0z" id="outline"/><g id="icon_x5F_bg"><path class="st1" d="M8.949 11.504C8.971 11.337 9 11.173 9 11s-.029-.337-.051-.504l-1.235-.154a2.747 2.747 0 0 0-.331-.795l.767-.985a3.999 3.999 0 0 0-.712-.712l-.985.767a2.758 2.758 0 0 0-.796-.331l-.153-1.235C5.337 7.03 5.173 7 5 7s-.337.03-.504.051l-.153 1.235a2.758 2.758 0 0 0-.796.331l-.985-.767a3.999 3.999 0 0 0-.712.712l.768.985c-.149.244-.263.51-.331.795l-1.235.154C1.029 10.663 1 10.827 1 11s.029.337.051.504l1.235.154c.068.285.182.551.331.795l-.767.985c.207.268.445.506.712.713l.985-.768c.243.148.51.262.796.331l.153 1.235c.167.022.331.051.504.051s.337-.029.504-.051l.153-1.235c.286-.069.553-.183.796-.331l.985.768c.267-.207.505-.445.712-.713l-.768-.984c.149-.244.263-.51.331-.795l1.236-.155zM5 13a2 2 0 1 1-.001-3.999A2 2 0 0 1 5 13zM4 5h4v1H4zM9 7h2v1H9z"/><circle class="st1" cx="5" cy="11" r="1"/><path class="st1" d="M2 1v6.02l.563-.437.437.341V4h11v9H9.077l.34.436L8.98 14H15V1z"/><path class="st1" d="M10 11c0 .184-.021.359-.046.535L9.895 12H13v-1h-3zM9.077 9l-.358.46 1.123.14.052.4H12V9z"/></g><path class="st2" d="M3 4v2.924l.459.358.141-1.126.874-.111C4.646 6.021 4.82 6 5 6H4V5h4v1H5c.18 0 .354.021.526.045l.874.111.14 1.126.897-.699.615.477c.333.259.632.558.889.889l.476.614-.34.437H12v1H9.894l.048.368c.037.273.058.448.058.632h3v1H9.895l-.039.305-.782.191-.355.044.358.46H14V4H3zm8 4H9V7h2v1z" id="icon_x5F_fg"/></svg>