<svg xmlns="http://www.w3.org/2000/svg" viewBox="0 0 16 16"><style>.st0{opacity:0}.st0,.st1{fill:#f6f6f6}.st2{fill:#424242}.st3{fill:#f0eff1}.st4{fill:#fc0}</style><path class="st0" d="M0 0h16v16H0z" id="outline"/><g id="icon_x5F_bg"><path class="st0" d="M0 0h16v16H0z"/><path class="st1" d="M16 0H0v14h6.979l-.009.018L8.004 16h6.998l.965-2H16z"/><path class="st2" d="M3 8h5v1H3zM9 7h2V6H9zM3 10h2v1H3z"/><path class="st2" d="M7.983 12H2V4h12v6.006l1 2.018V1H1v12h6.48z"/><path class="st2" d="M3 6h5v1H3zM9 8v1h.489l.502-1zM8.987 10H6v1h2.485z"/><path class="st3" d="M8.485 11H6v-1h2.987l.502-1H9V8h.991l.502-1H9V6h2v1h1.511L14 10.006V4H2v8h5.983l.502-1zM3 6h5v1H3V6zm0 2h5v1H3V8zm2 3H3v-1h2v1z"/></g><path class="st4" d="M11.891 8.016h-.781l-3.016 6 .515.984h5.766l.484-1-2.968-5.984zM12 14h-1v-1h1v1zm0-2h-1v-2h1v2z" id="not_x5F_bg"/><path d="M12 12h-1v-2h1v2zm0 1h-1v1h1v-1z" id="not_x5F_fg"/></svg>