<svg xmlns="http://www.w3.org/2000/svg" viewBox="0 0 16 16"><style>.st0{opacity:0}.st0,.st1{fill:#f6f6f6}.st2{fill:#424242}.st3{fill:#f0eff1}.st4{fill:#e51400}.st5{fill:#fff}</style><path class="st0" d="M0 0h16v16H0z" id="outline"/><g id="icon_x5F_bg"><path class="st0" d="M0 0h16v16H0z"/><path class="st1" d="M16 5.743l-1.018-.559L16 4.586v-.572l-.101-.355a4.026 4.026 0 0 0-.185-.556 4.114 4.114 0 0 0-.267-.496l-.452-.77-1.294.376.34-1.303-.681-.376A5.391 5.391 0 0 0 12.1.032L11.976 0h-.719l-.561 1.021L10.098 0h-.575l-.364.105c-.182.05-.362.104-.538.18-.18.077-.344.172-.506.271l-.763.452.375 1.291-1.307-.34-.375.684a5.417 5.417 0 0 0-.5 1.262l-.193.751 1.18.647-1.159.681.014.049C5.259 6.018 5.133 6 5 6c-.184 0-.359.022-.631.059l-.77.1-.139 1.122-.897-.699-.615.478a5.043 5.043 0 0 0-.89.892l-.474.612.697.896-.354.044-.782.191-.099.769C.021 10.641 0 10.816 0 11s.021.359.059.632l.099.768 1.124.14-.698.896.475.614c.258.332.557.632.89.891l.614.477.898-.698.044.354.191.783.769.099c.176.023.351.044.535.044s.359-.021.631-.059l.77-.1.14-1.123.898.698.614-.477c.333-.259.632-.559.89-.891l.476-.614-.7-.894.354-.044.782-.191.099-.769c.025-.177.046-.352.046-.536a3.71 3.71 0 0 0-.029-.398l.196.051.65-1.184.681 1.161.851-.244c.184-.05.367-.104.549-.183.19-.083.362-.184.604-.333l.657-.397-.373-1.283 1.306.341.376-.682a5.41 5.41 0 0 0 .501-1.264L16 6.463v-.72z"/><path class="st2" d="M13.797 5.675a3.04 3.04 0 0 0-.012-.947l1.181-.693c-.051-.179-.093-.357-.168-.531-.076-.175-.177-.327-.271-.487l-1.316.382a2.966 2.966 0 0 0-.68-.658l.347-1.329a4.44 4.44 0 0 0-1.029-.41l-.661 1.205a3.018 3.018 0 0 0-.948.012l-.694-1.184c-.177.051-.356.094-.53.168-.175.076-.328.177-.488.272l.383 1.314a3.037 3.037 0 0 0-.659.681l-1.33-.347c-.179.326-.316.67-.408 1.03l1.203.66a3.04 3.04 0 0 0 .012.947l-1.181.694c.052.179.093.357.169.531.074.175.176.328.269.488l1.315-.382c.194.259.425.477.681.658l-.347 1.329c.326.18.671.316 1.03.41l.661-1.205c.311.045.629.043.948-.012l.693 1.182c.177-.051.356-.093.53-.168.175-.076.328-.176.486-.272l-.382-1.314c.259-.194.479-.425.659-.681l1.33.347c.18-.326.315-.67.408-1.03l-1.201-.66zm-2.169 1.59a2.2 2.2 0 1 1-1.743-4.042 2.2 2.2 0 0 1 1.743 4.042z"/><path class="st2" d="M7.714 10.342a2.747 2.747 0 0 0-.331-.795l.767-.984a3.972 3.972 0 0 0-.712-.713l-.985.767a2.815 2.815 0 0 0-.796-.331l-.153-1.235C5.337 7.029 5.173 7 5 7s-.337.029-.504.051l-.153 1.235c-.286.07-.553.183-.796.331l-.985-.767a3.972 3.972 0 0 0-.712.713l.768.984c-.149.244-.263.51-.331.795l-1.235.154C1.029 10.663 1 10.827 1 11s.029.337.051.504l1.235.154c.068.285.182.551.331.795l-.767.985c.207.268.445.506.712.713l.985-.768c.243.148.51.262.796.331l.153 1.235c.167.022.331.051.504.051s.337-.029.504-.051l.153-1.235c.286-.069.553-.183.796-.331l.985.768c.267-.207.505-.445.712-.713l-.768-.984c.149-.244.263-.51.331-.795l1.235-.154C8.971 11.337 9 11.173 9 11s-.029-.337-.051-.504l-1.235-.154zM5 13a2 2 0 1 1 0-4 2 2 0 0 1 0 4z"/><circle class="st2" cx="5" cy="11" r="1"/><ellipse transform="rotate(-23.307 10.756 5.243)" class="st2" cx="10.757" cy="5.244" rx="1.1" ry="1.099"/></g><g id="icon_x5F_fg"><path class="st3" d="M5 9a2 2 0 1 0 0 4 2 2 0 0 0 0-4zm0 3.05a1.05 1.05 0 1 1 .001-2.101A1.05 1.05 0 0 1 5 12.05zM9.952 7.291A4.457 4.457 0 0 1 11.5 7c.175 0 .341.032.511.052a2.2 2.2 0 1 0-2.059.239zm.348-3.107a1.156 1.156 0 0 1 1.518.603 1.156 1.156 0 1 1-1.518-.603z"/></g><g id="not_x5F_bg"><circle class="st1" cx="11.5" cy="11.5" r="4.5"/><path class="st4" d="M11.5 8a3.5 3.5 0 1 0 0 7 3.5 3.5 0 0 0 0-7zm1.854 4.646l-.707.707-1.147-1.146-1.146 1.147-.707-.707 1.147-1.146-1.147-1.146.707-.707 1.146 1.147 1.146-1.147.707.707-1.146 1.145 1.147 1.146z"/></g><path class="st5" d="M12.207 11.5l1.147 1.146-.707.707-1.147-1.146-1.146 1.147-.707-.707 1.147-1.146-1.147-1.146.707-.707 1.146 1.147 1.146-1.147.707.707-1.146 1.145z" id="not_x5F_fg"/></svg>