<svg xmlns="http://www.w3.org/2000/svg" viewBox="0 0 16 16" enable-background="new 0 0 16 16"><style type="text/css">.icon-canvas-transparent{opacity:0;fill:#F6F6F6;} .icon-vs-out{fill:#F6F6F6;} .icon-vs-bg{fill:#424242;} .icon-vs-fg{fill:#F0EFF1;}</style><path class="icon-canvas-transparent" d="M16 16h-16v-16h16v16z" id="canvas"/><path class="icon-vs-out" d="M16 15h-16v-14h16v14z" id="outline"/><path class="icon-vs-bg" d="M11.375 6.485c0 .484-.392.875-.875.875s-.875-.391-.875-.875c0-.483.392-.875.875-.875s.875.392.875.875zm-5.875 2.125c-.483 0-.875.392-.875.875 0 .484.392.875.875.875s.875-.391.875-.875c0-.483-.392-.875-.875-.875zm2.375 1.465c-.06.25-.159.482-.29.696l.672.861c-.181.234-.39.443-.623.624l-.862-.672c-.213.13-.446.229-.696.29l-.134 1.08c-.147.02-.291.046-.442.046-.151 0-.295-.026-.441-.044l-.134-1.08c-.25-.062-.484-.161-.696-.29l-.862.672c-.233-.181-.442-.39-.623-.624l.672-.861c-.131-.214-.23-.446-.29-.696l-1.082-.137c-.018-.145-.044-.288-.044-.44 0-.15.026-.294.044-.441l1.081-.135c.06-.25.159-.481.29-.695l-.672-.862c.181-.234.39-.443.623-.624l.862.672c.213-.13.446-.229.696-.29l.134-1.081c.147-.018.291-.044.442-.044.151 0 .295.026.441.044l.134 1.081c.25.061.484.16.696.29l.862-.672c.233.181.442.39.623.624l-.671.861c.131.214.23.446.29.695l1.081.135c.018.148.044.291.044.442 0 .152-.026.295-.044.44l-1.081.135zm-.625-.575c0-.966-.784-1.75-1.75-1.75s-1.75.784-1.75 1.75c0 .967.784 1.75 1.75 1.75s1.75-.783 1.75-1.75zm7.75-7.5v12h-14v-12h14zm-1 1h-12v10h12v-10zm-.044 3.94c.018-.145.044-.288.044-.44 0-.15-.026-.294-.044-.441l-1.081-.135c-.06-.25-.159-.482-.29-.695l.672-.861c-.181-.234-.39-.443-.623-.624l-.862.672c-.213-.13-.446-.229-.696-.29l-.134-1.081c-.147-.019-.291-.045-.442-.045-.151 0-.295.026-.441.044l-.134 1.081c-.25.061-.484.16-.696.29l-.863-.672c-.233.181-.442.39-.623.624l.672.861c-.121.199-.212.415-.273.644l.105.081c.183.142.351.303.51.473.04-.931.802-1.676 1.743-1.676.966 0 1.75.784 1.75 1.75 0 .967-.784 1.75-1.75 1.75-.491 0-.933-.203-1.251-.529l-.261.334.856.106.102.765c.032.224.049.38.052.536l.061.492c.146.02.29.046.441.046.151 0 .295-.026.441-.044l.134-1.08c.25-.062.484-.161.696-.29l.862.672c.233-.181.442-.39.623-.624l-.672-.861c.131-.214.23-.446.29-.696l1.082-.137z" id="iconBg"/><g id="iconFg"><path class="icon-vs-fg" d="M5.504 7.756c-.966 0-1.75.784-1.75 1.75s.784 1.75 1.75 1.75 1.75-.784 1.75-1.75-.783-1.75-1.75-1.75zm0 2.625c-.483 0-.875-.391-.875-.875s.392-.875.875-.875.875.391.875.875-.392.875-.875.875zm5-5.625c-.94 0-1.702.744-1.742 1.674l.285.324.477.615-.275.352c.318.329.762.535 1.256.535.966 0 1.75-.784 1.75-1.75s-.784-1.75-1.751-1.75zm0 2.625c-.483 0-.875-.391-.875-.875s.392-.875.875-.875.875.391.875.875-.392.875-.875.875zm-8.504-.679v-3.702h5.7c-.278.223-.531.475-.747.756l-.475.614.534.685-.091.011-.27.068-.67-.093c-.158-.022-.316-.041-.481-.041s-.323.019-.567.052l-.77.098-.108.862-.688-.536-.615.478c-.28.218-.531.471-.752.748zm7.055-3.69l-.016-.012h.017l-.001.012zm2.89 0l-.002-.012h.017l-.015.012zm2.043 4.932l.012-.002v.016l-.012-.014zm-.688-4.944h.7v.701c-.207-.259-.442-.494-.7-.701zm.7 2.04v.016l-.012-.001.012-.015zm-11.988 3.015l-.012.001v-.016l.012.015zm11.988 1.237v3.708h-5.707c.279-.223.535-.474.754-.755l.477-.614-.535-.687.091-.011.29-.066.632.09c.164.022.328.043.498.043s.334-.021.574-.054l.764-.103.107-.856.688.537.615-.479c.281-.218.53-.475.752-.753zm-11.299 3.708h-.701v-.702c.206.258.441.494.701.702zm-.701-2.041v-.017l.012.002-.012.015zm2.055 2.028l.002.013h-.019l.017-.013zm2.888.013l.002-.013.017.013h-.019z"/></g></svg>