<svg xmlns="http://www.w3.org/2000/svg" viewBox="0 0 16 16"><style>.icon-canvas-transparent{opacity:0;fill:#f6f6f6}.icon-vs-out{fill:#f6f6f6}.icon-vs-bg{fill:#424242}.icon-vs-fg{fill:#f0eff1}.icon-vs-action-red{fill:#a1260d}</style><path class="icon-canvas-transparent" d="M16 16H0V0h16v16z" id="canvas"/><path class="icon-vs-out" d="M0 0v14h7.586l2 2h.949l1.495-1.495L13.525 16h.949L16 14.475v-.949l-1.495-1.495 1.263-1.263L16 11V0H0z" id="outline"/><path class="icon-vs-fg" d="M9.525 12H2V4h12v3.586l-1.97 1.97-1.97-1.97-2.475 2.475L9.525 12z" id="iconFg"/><path class="icon-vs-bg" d="M7.646 10l-.061.061.94.939H6v-1h1.646zM3 11h2v-1H3v1zm4.225-3H3v1h5V8h-.775zM3 7h5V6H3v1zM1 1v12h7.586l.97-.97-.031-.03H2V4h12v3.586l1 1V1H1zm10.475 8H12V8h-1.525l1 1zM9 8v.646L9.646 8H9zm2-2H9v1h2V6z" id="iconBg"/><path class="icon-vs-action-red" d="M13.091 12.03l1.97 1.97L14 15.061l-1.97-1.97-1.97 1.97L9 14l1.97-1.97L9 10.061 10.061 9l1.97 1.97L14 9l1.061 1.061-1.97 1.969z" id="colorAction"/></svg>