<svg xmlns="http://www.w3.org/2000/svg" viewBox="0 0 16 16"><style>.st0{opacity:0}.st0,.st1{fill:#f6f6f6}.st2{fill:#424242}.st3{fill:#f0eff1}.st4{fill:#393}.st5{fill:#fff}</style><g id="outline"><path class="st0" d="M0 0h16v16H0z"/><path class="st1" d="M16 4.013l-.101-.354a3.982 3.982 0 0 0-.185-.556 4.286 4.286 0 0 0-.267-.497l-.452-.769-1.294.375.34-1.303-.681-.376A5.432 5.432 0 0 0 12.1.032L11.976 0h-.719l-.561 1.021L10.098 0h-.576l-.363.105c-.182.05-.363.104-.539.18a4.01 4.01 0 0 0-.506.271l-.763.452.376 1.292-1.307-.341-.375.683c-.22.4-.388.824-.5 1.262l-.194.753 1.181.647-1.159.68.014.049C5.259 6.018 5.132 6 5 6c-.183 0-.359.021-.631.059l-.77.099-.139 1.124-.897-.699-.615.477a5.071 5.071 0 0 0-.89.891l-.475.614.698.895-.354.044-.782.191-.099.769C.021 10.641 0 10.816 0 11s.021.359.059.632l.099.768 1.124.14-.698.896.475.614c.257.332.557.632.89.891l.614.477.897-.698.044.354.191.783.769.099c.177.023.353.044.536.044s.359-.021.631-.059l.77-.1.139-1.123.897.698.614-.477c.099-.077.188-.165.281-.249A4.483 4.483 0 0 0 11.5 16c2.481 0 4.5-2.019 4.5-4.5 0-.898-.276-1.774-.779-2.514l.086-.085-.48-.441.266.069.376-.681c.218-.396.387-.821.501-1.264l.03-.121v-.72l-1.018-.559L16 4.586v-.573z"/></g><g id="icon_x5F_bg"><path class="st2" d="M8.982 7.749l-.008.03c.301-.205.633-.36.979-.488a2.2 2.2 0 1 1 2.062-.242 4.42 4.42 0 0 1 1.026.236c.076-.086.153-.172.22-.266l1.33.347c.18-.326.315-.67.408-1.03l-1.203-.66a3.041 3.041 0 0 0-.012-.947l1.181-.693c-.051-.178-.093-.357-.168-.531-.076-.175-.177-.328-.271-.487L13.21 3.4a3.008 3.008 0 0 0-.68-.658l.347-1.329a4.396 4.396 0 0 0-1.029-.41l-.661 1.205a3.079 3.079 0 0 0-.948.012l-.693-1.185c-.177.051-.356.093-.53.168-.175.076-.328.177-.488.271l.383 1.315a3.037 3.037 0 0 0-.659.681l-1.33-.347c-.179.326-.316.67-.409 1.03l1.204.66c-.044.312-.043.63.012.948l-1.181.693c.051.179.093.357.168.531.076.175.176.328.271.488l1.315-.382c.193.258.424.477.68.658zM7 11.5c0-.672.158-1.303.422-1.876-.014-.024-.024-.053-.039-.077l.27-.346c.14-.234.301-.451.48-.656a3.975 3.975 0 0 0-.695-.695l-.985.767a2.786 2.786 0 0 0-.796-.331l-.153-1.235C5.337 7.029 5.173 7 5 7s-.337.029-.504.051l-.153 1.235a2.786 2.786 0 0 0-.796.331l-.985-.767a3.972 3.972 0 0 0-.712.713l.768.984c-.149.244-.263.51-.331.795l-1.235.154C1.029 10.663 1 10.827 1 11s.029.337.051.504l1.235.154c.068.285.182.551.331.795l-.767.985c.207.268.445.506.712.713l.985-.768c.243.148.51.262.796.331l.153 1.235c.167.022.331.051.504.051s.337-.029.504-.051l.153-1.235c.286-.069.553-.183.796-.331l.985.768c.098-.076.172-.178.262-.263A4.466 4.466 0 0 1 7 11.5zM5 13a2 2 0 1 1 .001-4.001A2 2 0 0 1 5 13z"/><circle class="st2" cx="5" cy="11" r="1"/><ellipse transform="rotate(-23.296 10.757 5.244)" class="st2" cx="10.757" cy="5.244" rx="1.1" ry="1.1"/></g><g id="icon_x5F_fg"><path class="st3" d="M5 9a2 2 0 1 0 .001 4.001A2 2 0 0 0 5 9zm0 3.05a1.05 1.05 0 1 1 .001-2.101A1.05 1.05 0 0 1 5 12.05zM9.953 7.291A4.447 4.447 0 0 1 11.5 7c.174 0 .345.028.516.049a2.201 2.201 0 1 0-2.063.242zm.347-3.107a1.156 1.156 0 1 1 .914 2.123 1.156 1.156 0 0 1-.914-2.123z"/><path class="st4" d="M15 11.5A3.5 3.5 0 1 1 11.5 8c.913 0 1.737.358 2.361.932L10.5 12.293l-1.146-1.147-.707.707 1.854 1.853 3.994-3.994a3.486 3.486 0 0 0-.633-.781A3.483 3.483 0 0 1 15 11.5z"/><path class="st5" d="M10.5 12.293l3.361-3.361c.248.229.459.49.633.781L10.5 13.707l-1.854-1.853.707-.707 1.147 1.146z"/></g></svg>