<svg xmlns="http://www.w3.org/2000/svg" viewBox="0 0 16 16"><style>.st0{opacity:0;fill:#fff;stroke:#000;stroke-miterlimit:10}.st1{fill:#f6f6f6}.st2{fill:#424242}.st3{fill:#f0eff1}</style><g id="outline"><path class="st0" d="M0 0h16v16H0z"/><path class="st1" d="M2 14c-.901 0-1.975-.347-1.975-2V4.975C.025 3.665.69 3 2 3h12c1.309 0 2 .691 2 2v7c0 1.309-.691 2-2 2H2z"/></g><g id="icon_x5F_bg"><path class="st2" d="M14 4H2c-.752 0-.975.222-.975.975V12c0 .752.222 1 .975 1h12c.752 0 1-.248 1-1V5c0-.752-.248-1-1-1zm0 7H2V6h12v5z"/><path class="st3" d="M2 6v5h12V6H2zm3.875 4H4V7h1.875v3zM8 10H7V7h1v3z"/><path class="st2" d="M4.125 7h1.75v3h-1.75zM7 7h1v3H7z"/></g></svg>