<svg xmlns="http://www.w3.org/2000/svg" viewBox="0 0 16 16"><style>.st0{opacity:0}.st0,.st1{fill:#f6f6f6}.st2{fill:#424242}.st3{fill:#00539c}</style><g id="outline"><path class="st0" d="M0 0h16v16H0z"/><path class="st1" d="M15 4l-4-4H5l2 2H2v4h5L5 8H3.323l-2.8 7h3.154l.399-1h.846l.399 1H15v-3h-1.797L15 10.46V8h-4l4-4zm-7 8.54v1.269L5.677 8H8v3h1.797L8 12.54z"/></g><g id="icon_x5F_bg"><path class="st2" d="M5 9H4l-2 5h1l.399-1H5.6l.4 1h1L5 9zm-1.2 3l.7-1.75.7 1.75H3.8zM14 10l-3.5 3H14v1H9v-1l3.5-3H9V9h5z"/></g><path class="st3" d="M8 7l2-2H3V3h7L8 1h2l3 3-3 3H8z" id="color_x5F_importance"/></svg>