<svg xmlns="http://www.w3.org/2000/svg" viewBox="0 0 16 16"><style>.st0{opacity:0}.st0,.st1{fill:#f6f6f6}.st2{fill:#424242}.st3{fill:#f0eff1}</style><g id="outline"><path class="st0" d="M0 0h16v16H0z"/><path class="st1" d="M16 10a5.996 5.996 0 0 0-5-5.91V0H0v16h11v-.09A5.995 5.995 0 0 0 16 10z"/></g><g id="icon_x5F_bg"><path class="st2" d="M6.687 15H1V1h9v3c-.342 0-.674.035-1 .09V2H2v12h3.537c.34.379.724.717 1.15 1zM3 4h1V3H3v1zm2 0h1V3H5v1zm2-1v1h1V3H7zM3 6h1V5H3v1zm3-.463V5H5v1h.537c.146-.163.3-.317.463-.463zM3 7v3h1c0-1.094.298-2.117.81-3H3z"/><path class="st2" d="M10 10V7H9v4h3v-1z"/><path class="st2" d="M10 5a5 5 0 0 0-5 5 5 5 0 0 0 5 5 5 5 0 0 0 5-5 5 5 0 0 0-5-5zm0 8.881a3.882 3.882 0 1 1 .001-7.763A3.882 3.882 0 0 1 10 13.88z"/></g><g id="icon_x5F_fg"><path class="st3" d="M2 2v12h3.537A5.968 5.968 0 0 1 4 10H3V7h1.81c.208-.359.452-.693.728-1H5V5h1v.537A5.967 5.967 0 0 1 9 4.09V2H2zm2 4H3V5h1v1zm0-2H3V3h1v1zm2 0H5V3h1v1zm1 0V3h1v1H7z"/><path class="st3" d="M10 6.119a3.882 3.882 0 1 0 .001 7.763A3.882 3.882 0 0 0 10 6.12zM12 11H9V7h1v3h2v1z"/></g></svg>