<svg xmlns="http://www.w3.org/2000/svg" viewBox="0 0 16 16"><style>.st0{opacity:0}.st0,.st1{fill:#f6f6f6}.st2{fill:#424242}</style><g id="outline"><path class="st0" d="M0 0h16v16H0z"/><path class="st1" d="M15 3c0-1.103-.898-2-2-2-.381 0-.732.113-1.036.298a4.601 4.601 0 0 0-1.31-.208c-.968 0-1.919.299-2.677.841l-5.52 3.941.129.128H0v1.414l3.546 3.546A2.471 2.471 0 0 0 3 12.5C3 13.879 4.121 15 5.5 15c.584 0 1.114-.209 1.54-.546L8.586 16H10v-2.586l.128.128 3.941-5.52c.84-1.175 1.032-2.687.639-3.998.182-.3.292-.648.292-1.024z"/></g><g id="icon_x5F_bg"><path class="st2" d="M1 7l4.07 4.07a1.496 1.496 0 1 0 1.86 1.86L9 15v-2L3 7H1zM14 3a1 1 0 0 0-1-1 .984.984 0 0 0-.809.444c-1.112-.539-2.568-.46-3.633.3L4 6l6 6 3.256-4.559c.761-1.064.839-2.521.3-3.633A.982.982 0 0 0 14 3z"/></g></svg>