<svg xmlns="http://www.w3.org/2000/svg" viewBox="0 0 16 16"><style>.st0{opacity:0;fill:#f6f6f6}.st1{fill:#f5f5f5}.st2{fill:#f6f6f6}.st3{fill:#424242}.st4{fill:#dcb67a}.st5{fill:#f0eff1}</style><g id="outline"><path class="st0" d="M0 0h16v16H0z"/><path class="st1" d="M3.382 16l-3-6H2V7h3v3h6.5l4.5 6z"/><path class="st2" d="M14 4H8V2.311L5.963 0H1.999C1.029 0 0 .701 0 2v5c0 1.299 1 2 2 2v1H.381l3 6H14c.969 0 2-.701 2-2V6c0-1.299-1.031-2-2-2z"/></g><g id="icon_x5F_bg"><path class="st3" d="M5.313 1h-3.35S1 1 1 2v5c0 1 .964 1 .964 1h4C6.964 8 7 7 7 7V3.137L5.313 1zM6 5v2H2V2h3v1h1v2z"/><path class="st4" d="M4 11V9H3v2H1.996l2 4h10l-3-4H4zM13.996 5H8v1h6v9s1 0 1-1V6c0-1-1.004-1-1.004-1z"/></g><path class="st5" d="M4 11V8h4l1-2h5v8.969L11 11z" id="icon_x5F_fg"/></svg>