<svg xmlns="http://www.w3.org/2000/svg" viewBox="0 0 16 16"><style>.st0{opacity:0}.st0,.st1{fill:#f6f6f6}.st2{fill:#424242}.st3{fill:#f0eff1}</style><g id="outline"><path class="st0" d="M0 0h16v16H0z"/><path class="st1" d="M14 3H8v-.21L5.797 0H1.963C1.011 0 0 .701 0 2v5c0 .849.435 1.437 1 1.747V9H0v1.196L2.323 16H14s.86-.021 1.43-.565c.343-.333.57-.818.57-1.435V5c0-1.303-1.005-2-2-2z"/></g><g id="icon_x5F_bg"><path class="st2" d="M5.313 1h-3.35S1 1 1 2v5c0 1 .964 1 .964 1h4C6.964 8 7 7 7 7V3.137L5.313 1zM6 5v2H2V2h3v1h1v2zM3 10V9H2v1H1l2 5h11l-3-5H3zM14 4H8v1h6v9.984S15 15 15 14V5c0-1-1-1-1-1z"/></g><g id="icon_x5F_fg"><path class="st3" d="M2 2h3v1h1v4H2z"/><path class="st3" d="M8 5v2c-.029.826-.595 2-2.036 2H3v1h8l3 5V5H8z"/></g></svg>