<svg xmlns="http://www.w3.org/2000/svg" viewBox="0 0 16 16"><style>.st0{opacity:0}.st0,.st1{fill:#f6f6f6}.st2{fill:#424242}.st3{fill:#f0eff1}</style><g id="outline"><path class="st0" d="M0 0h16v16H0z"/><path class="st1" d="M16 1.02H0V15h.258c.364.65 1.064 1 1.742 1h6c.84 0 1.426-.433 1.738-1H16V1.02z"/></g><g id="icon_x5F_bg"><path class="st2" d="M1 2v3h13v8h-4v1h5V2z"/><path class="st2" d="M6.602 6H1.941S1 6 1 7v7c0 1 .941 1 .941 1h6C8.941 15 9 14 9 14l-.023-6-2.375-2zM8 9v5H2V7h4v2h2z"/><path class="st2" d="M3 7.99h1.977v1.011H3zM3 10h4v1H3zM3 12h4v1H3z"/></g><g id="icon_x5F_fg"><path class="st3" d="M7 5h.546L10 7.062V13h4V5zM6 9V7H2v7h6V9H6zM3 7.99h1.977v1.011H3V7.99zM7 13H3v-1h4v1zm0-2H3v-1h4v1z"/></g></svg>