<svg xmlns="http://www.w3.org/2000/svg" viewBox="0 0 16 16"><style>.st0,.st1{opacity:0;fill:#f6f6f6}.st1{fill:#f0eff1}.st2{fill:#f6f6f6}.st3{fill:#424242}.st4{fill:#f0eff1}</style><g id="outline"><path class="st0" d="M0 0h16v16H0z"/><path class="st1" d="M0 16V0h16"/><path class="st0" d="M0 16V0h16"/><path class="st2" d="M16 3.5C16 1.57 14.436 0 12.516 0h-1.5v.593A7.968 7.968 0 0 0 8 0a8 8 0 1 0 8 8c0-.963-.179-1.883-.491-2.738.305-.52.491-1.117.491-1.762z"/></g><g id="icon_x5F_bg"><path class="st3" d="M9.746 9.375c-.584.041-1.158.049-1.74.046a17.427 17.427 0 0 1-1.838-.123 12.248 12.248 0 0 1-.123-1.793c.004-.386.031-.755.067-1.114.319.036.646.064.979.085l-.989-.996.171-.169h-.006a12.133 12.133 0 0 1 1.001-3.009c.24-.031.483-.052.732-.052.165 0 .327.011.488.024.098.17.196.355.292.544L9.604 2h1.412v-.309A6.942 6.942 0 0 0 8 1a7 7 0 0 0-7 7 6.692 6.692 0 0 0 .1 1.136l.002.018a6.995 6.995 0 0 0 5.75 5.745l.021.003A7.065 7.065 0 0 0 8 15a7 7 0 0 0 7-7c0-.08-.01-.157-.012-.237a6.977 6.977 0 0 0-.246-1.594 3.448 3.448 0 0 1-1.119.633c.082.386.127.787.127 1.198 0 .104-.009.208-.016.311M5.917 2.645a13.08 13.08 0 0 0-.732 2.508 19.128 19.128 0 0 1-1.903-.435 5.768 5.768 0 0 1 2.635-2.073zM2.25 8c0-.819.174-1.597.482-2.302.686.202 1.448.393 2.3.539-.042.405-.072.82-.077 1.257a12.87 12.87 0 0 0 .099 1.637 19.429 19.429 0 0 1-2.783-.728C2.261 8.27 2.25 8.136 2.25 8zm.236 1.625c.798.244 1.712.479 2.744.644.206 1.047.542 2.116.981 3.193a5.758 5.758 0 0 1-3.725-3.837zm5.613 4.12c-.034.001-.066.005-.099.005-.17 0-.338-.011-.504-.025-.503-1.116-.888-2.225-1.128-3.306a18.417 18.417 0 0 0 2.029.094c.348 0 .699-.01 1.054-.027-.305.991-.759 2.077-1.352 3.259zm1.285-.17c.546-1.146.967-2.215 1.238-3.193a12.79 12.79 0 0 0 2.886-.734 5.753 5.753 0 0 1-4.124 3.927z"/><path class="st3" d="M10.016 8h2l-1.988-2h2.488C13.896 6 15 4.881 15 3.5S13.896 1 12.516 1h-.5v1h.5c.827 0 1.5.673 1.5 1.5s-.673 1.5-1.5 1.5h-2.513l2.013-2h-2l-2.5 2.484L10.016 8z"/></g><g id="icon_x5F_fg"><path class="st4" d="M12.432 7l1.303 1.311c.006-.103.015-.207.015-.311 0-.411-.045-.812-.127-1.198-.35.119-.718.198-1.107.198h-.084zM8 13.75c-.17 0-.338-.011-.504-.025-.503-1.116-.888-2.225-1.128-3.306a18.417 18.417 0 0 0 2.029.094c.348 0 .699-.01 1.054-.027-.306.991-.759 2.077-1.353 3.26-.033 0-.065.004-.098.004zM13.729 8.313l-4.354.395v-.005L7.091 6.476c-.333-.021-.66-.049-.979-.085-.036.359-.063.728-.067 1.114-.006.584.039 1.183.123 1.793.59.069 1.202.116 1.838.123.582.003 3.463.048 5.729-.78l-.006-.328zM8.78 2.818a11.82 11.82 0 0 0-.292-.544A6.04 6.04 0 0 0 8 2.25c-.249 0-.492.021-.732.052A12.138 12.138 0 0 0 6.267 5.31h.006L8.78 2.818zM5.917 2.645a13.08 13.08 0 0 0-.732 2.508 19.128 19.128 0 0 1-1.903-.435 5.768 5.768 0 0 1 2.635-2.073zM2.25 8c0-.819.174-1.597.482-2.302.686.202 1.448.393 2.3.539-.042.405-.072.82-.077 1.257a12.87 12.87 0 0 0 .099 1.637 19.429 19.429 0 0 1-2.783-.728C2.261 8.27 2.25 8.136 2.25 8zM2.486 9.625c.798.244 1.712.479 2.744.644.206 1.047.542 2.116.981 3.193a5.758 5.758 0 0 1-3.725-3.837zM9.384 13.575c.546-1.146.967-2.215 1.238-3.193a12.79 12.79 0 0 0 2.886-.734 5.753 5.753 0 0 1-4.124 3.927z"/></g></svg>