<?xml version="1.0" encoding="iso-8859-1"?>
<!-- Generator: Adobe Illustrator 21.0.0, SVG Export Plug-In . SVG Version: 6.00 Build 0)  -->
<svg version="1.1" xmlns="http://www.w3.org/2000/svg" xmlns:xlink="http://www.w3.org/1999/xlink" x="0px" y="0px"
	 viewBox="0 0 16 16" style="enable-background:new 0 0 16 16;" xml:space="preserve">
<style type="text/css">
	.icon_x002D_canvas_x002D_transparent{opacity:0;fill:#F6F6F6;}
	.icon_x002D_vs_x002D_out{fill:#F6F6F6;}
	.icon_x002D_vs_x002D_bg{fill:#424242;}
	.icon_x002D_vs_x002D_fg{fill:#F0EFF1;}
	.icon_x002D_vs_x002D_blue{fill:#1BA1E2;}
</style>
<g id="canvas">
	<path class="icon_x002D_canvas_x002D_transparent" d="M16,16H0V0h16V16z"/>
</g>
<g id="outline">
	<path class="icon_x002D_vs_x002D_out" d="M14.809,7.536l-0.268-1.13L10.814,7.9l0.138,0.798C10.977,8.846,11,8.996,11,9.149
		c0,1.302-0.839,2.401-2,2.815V9.5c0-0.451-0.165-0.861-0.435-1.219l5.006-4.128L8.541,0H7v2.223C3.612,2.709,1,5.63,1,9.149
		c0,1.335,0.387,2.575,1.038,3.638c0.123,0.825,0.757,1.502,1.697,1.881C4.558,15.305,5.511,15.779,6.564,16h2.871
		C12.608,15.336,15,12.517,15,9.149C15,8.613,14.936,8.07,14.809,7.536z M7,7.232c-0.342-0.11-0.717-0.177-1.115-0.207
		C6.197,6.715,6.576,6.47,7,6.32V7.232z"/>
</g>
<g id="iconBg">
	<path class="icon_x002D_vs_x002D_bg" d="M2.013,9.403C2.009,9.318,2,9.235,2,9.149c0-3.313,2.686-5.998,6-5.998V0.85l4,3.301
		L8,7.45V5.149c-1.451,0-2.711,0.782-3.413,1.94C3.109,7.356,2.07,8.254,2.013,9.403z M13.836,7.767l-1.898,0.761
		C11.973,8.73,12,8.938,12,9.149c0,1.891-1.313,3.464-3.075,3.882c-0.267,0.95-1.246,1.664-2.554,1.889
		C6.89,15.065,7.435,15.149,8,15.149c3.316,0,6-2.688,6-6C14,8.672,13.941,8.211,13.836,7.767z"/>
</g>
<g id="iconFg">
	<path class="icon_x002D_vs_x002D_fg" d="M7.5,9.5c0,0.473-0.855,1-2,1s-2-0.527-2-1s0.855-1,2-1S7.5,9.027,7.5,9.5z"/>
</g>
<g id="colorImportance">
	<path class="icon_x002D_vs_x002D_blue" d="M5.5,8C4.119,8,3,8.672,3,9.5v3C3,13.328,4.119,14,5.5,14S8,13.328,8,12.5v-3
		C8,8.672,6.881,8,5.5,8z M5.5,10.5c-1.145,0-2-0.527-2-1s0.855-1,2-1s2,0.527,2,1S6.645,10.5,5.5,10.5z"/>
</g>
</svg>
