<svg xmlns="http://www.w3.org/2000/svg" width="16" height="16"><style type="text/css">.icon-canvas-transparent{opacity:0;fill:#F6F6F6;} .icon-vs-out{fill:#F6F6F6;} .icon-vs-bg{fill:#424242;} .icon-vs-fg{fill:#F0EFF1;}</style><path class="icon-canvas-transparent" d="M16 16h-16v-16h16v16z" id="canvas"/><path class="icon-vs-out" d="M15 10v3h-1c0 .97-.701 2-2 2h-8c-.97 0-2-.701-2-2h-2v-7h2v-3c0-1.299 1.03-2 2-2h6.06l3.94 3.556v5.444h1z" id="outline"/><path class="icon-vs-bg" d="M3 6v-3c0-1 .964-1 .964-1h5.677l3.359 3v1h-4v-3h-5v3h-1zm1 7h-1c0 1 .965 1 .965 1h8l1.035-1h-9zm3-5v1h-1v3h-1v-5h1v1h1zm0 4h1v-3h-1v3zm2-5v1h-1v1h1v3h1v-5h-1zm-7 0v2h-1v-2h1zm2 0h-1v2h1v-2zm-2 2v1h1v-1h-1zm-1 3h1v-2h-1v2zm3 0v-2h-1v2h1zm10-1v1h-3v-5h1v4h2z" id="iconBg"/><g id="iconFg"><path class="icon-vs-fg" d="M4 6v-3h5v3h-1v1h-1v-1h-3z"/></g></svg>