<svg xmlns="http://www.w3.org/2000/svg" viewBox="0 0 16 16"><style>.st0{opacity:0}.st0,.st1{fill:#f6f6f6}.st2{fill:#424242}.st3{fill:#00539c}.st4{fill:#f0eff1}</style><g id="outline"><path class="st0" d="M0 0h16v16H0z"/><path class="st1" d="M16 5.586v4.828l-4 4-3-3V14H0V9h1V6h1V2h5v4h1v-.414l2 2V3h4v4.586l2-2z"/></g><path class="st2" d="M7 10V8H5V6h1V3H3v3h1v2H2v2H1v3h3v-3H3V9h3v1H5v3h3v-3H7zm-4 2H2v-1h1v1zm1-8h1v1H4V4zm3 8H6v-1h1v1z" id="icon_x5F_bg"/><path class="st3" d="M15 8v2l-3 3-3-3V8l2 2V4h2v6l2-2z" id="color_x5F_importance"/><path class="st4" d="M2 11h1v1H2v-1zm2-6h1V4H4v1zm2 6v1h1v-1H6z" id="icon_x5F_fg"/></svg>