<svg xmlns="http://www.w3.org/2000/svg" viewBox="0 0 16 16"><style>.st0{opacity:0}.st0,.st1{fill:#f6f6f6}.st2{fill:#424242}.st3{fill:#00539c}.st4{fill:#f0eff1}</style><g id="outline"><path class="st0" d="M0 0h16v16H0z"/><path class="st1" d="M11 4L9 5V0H3.594L.09 3.493h2.885C1.758 4.357.816 4.48.381 4.48c-.102 0-.17-.007-.174-.007L0 4.43V8h.006c.148-.001 2.963-.048 5.496-2.033v.782L4 7.5v6L9 16l7-3.5v-6L11 4z"/></g><path class="st2" d="M11 5.5l-6 3v4l4 2 6-3v-4l-4-2zm-2 4l-2-1 4-2 2 1-4 2z" id="icon_x5F_bg"/><path class="st3" d="M5.504 2.493H2.51L4.006 1H8v3.982L6.502 6.475V3.489C4.006 6.973 0 7 0 7l.002-1.548s2.508.526 5.502-2.959z" id="color_x5F_action"/><path class="st4" d="M7 8.5l2 1 4-2-2-1z" id="icon_x5F_fg"/></svg>