<svg xmlns="http://www.w3.org/2000/svg" viewBox="0 0 16 16" enable-background="new 0 0 16 16"><style type="text/css">.icon-canvas-transparent{opacity:0;fill:#F6F6F6;} .icon-vs-out{fill:#F6F6F6;} .icon-vs-bg{fill:#424242;} .icon-vs-fg{fill:#F0EFF1;}</style><path class="icon-canvas-transparent" d="M16 16h-16v-16h16v16z" id="canvas"/><path class="icon-vs-out" d="M16 7.362l-5.531 6.638h-10.469v-13h10.414l5.586 5.586v.776z" id="outline"/><path class="icon-vs-bg" d="M7.244 9.664c.164.145.245.329.245.552 0 .227-.08.413-.241.562-.163.148-.371.222-.623.222s-.461-.076-.628-.227c-.167-.158-.25-.343-.25-.557 0-.22.084-.405.25-.552.167-.148.376-.222.628-.222.249 0 .455.074.619.222zm1.122-5.247c-.198-.14-.43-.243-.698-.309-.266-.066-.555-.099-.866-.099-.324 0-.637.037-.941.11-.304.074-.584.184-.841.331v1.442c.25-.211.516-.368.796-.472.28-.104.551-.156.811-.156.12 0 .229.018.328.053s.182.083.25.144c.069.061.121.133.158.218.037.085.055.176.055.275 0 .115-.017.219-.05.314-.034.094-.084.185-.15.273l-.243.264-.333.285c-.12.096-.225.193-.315.29-.09.097-.165.2-.225.307-.06.107-.105.221-.135.342s-.046.255-.046.402l.028.295.078.28h1.317l-.089-.201-.032-.235c0-.112.015-.212.045-.299.03-.088.074-.171.133-.249l.22-.237.308-.259c.173-.137.327-.271.461-.4s.245-.264.335-.405c.09-.14.158-.29.205-.448s.07-.334.07-.529c0-.307-.056-.569-.167-.788-.112-.219-.268-.399-.467-.539zm6.634 2.583l-5 6h-9v-11h9l5 5zm-1.353.061l-4.061-4.061h-7.586v9h7.532l4.115-4.939z" id="iconBg"/><g id="iconFg"><path class="icon-vs-fg" d="M9.586 3h-7.586v9h7.532l4.116-4.939-4.062-4.061zm-2.338 7.778c-.163.148-.371.222-.623.222s-.461-.076-.628-.227c-.167-.158-.25-.343-.25-.557 0-.22.084-.405.25-.552.167-.148.376-.222.628-.222.249 0 .455.074.618.222.164.145.245.329.245.552.001.227-.079.414-.24.562zm1.682-4.505c-.047.158-.115.307-.205.448-.09.14-.202.275-.335.405s-.287.263-.461.4l-.308.258-.22.237c-.059.078-.103.162-.133.249-.03.088-.045.188-.045.3l.033.235.088.201h-1.318l-.078-.28-.027-.295c0-.147.015-.281.045-.402s.075-.236.135-.342c.06-.107.135-.209.225-.307.09-.097.195-.194.315-.29l.334-.285.243-.264s.117-.179.15-.273c.034-.094.05-.199.05-.314 0-.099-.019-.191-.055-.275-.037-.085-.089-.157-.158-.218-.068-.061-.151-.109-.25-.144-.099-.035-.208-.052-.328-.052-.26 0-.531.052-.811.156-.28.103-.546.26-.796.471v-1.442c.257-.147.537-.257.841-.33.304-.073.617-.11.941-.11.31 0 .599.033.866.098.267.066.5.169.698.309.199.14.354.32.467.539.111.218.167.481.167.788 0 .195-.023.371-.07.529z"/></g></svg>