<svg xmlns="http://www.w3.org/2000/svg" width="16" height="16"><style type="text/css">.icon-canvas-transparent{opacity:0;fill:#F6F6F6;} .icon-vs-bg{fill:#424242;} .icon-vs-out{fill:#F6F6F6;}</style><path class="icon-canvas-transparent" d="M16 16h-16v-16h16v16z" id="canvas"/><g id="iconBg"><path class="icon-vs-out" d="M3 12v-3h1v-1h-2v-3h.502l-.412-.258 1.594-2.542 1.316.825v-1.025h3v3h2.978c1.115 0 2.022.908 2.022 2.023v1.977h1v3h-11z"/><path class="icon-vs-bg" d="M13 10v1h-9v-1h1v-2.977c0-.565.458-1.023 1.023-1.023h4.954c.565 0 1.023.458 1.023 1.023v2.977h1zm-6-7h-1v2h1v-2zm-3 .579l-.531.847 1.695 1.062.531-.847-1.695-1.062zm1 2.421h-2v1h2v-1z"/></g></svg>