<svg xmlns="http://www.w3.org/2000/svg" viewBox="0 0 16 16"><style>.st0{opacity:0}.st0,.st1{fill:#f6f6f6}.st2{fill:#424242}</style><g id="outline"><path class="st0" d="M0 0h16v16H0z"/><path class="st1" d="M3.5 6C1.57 6 0 7.57 0 9.5c0 1.156.572 2.223 1.5 2.869V14a2 2 0 0 0 4 0v-1.631A3.493 3.493 0 0 0 7 9.5C7 7.57 5.43 6 3.5 6z"/></g><path class="st2" d="M4.5 7.211V10h-2V7.211A2.5 2.5 0 0 0 1 9.5c0 1.023.618 1.902 1.5 2.289V14a1 1 0 1 0 2 0v-2.211a2.498 2.498 0 0 0 0-4.578z" id="icon_x5F_bg"/></svg>