<svg xmlns="http://www.w3.org/2000/svg" viewBox="0 0 16 16"><style>.st0{opacity:0}.st0,.st1{fill:#f6f6f6}.st2{fill:#424242}.st3{fill:#f0eff1}</style><g id="outline"><path class="st0" d="M0 0h16v16H0z"/><path class="st1" d="M16 0H5v4.762A4.496 4.496 0 0 0 3 8.5c0 .29.031.578.093.871L.735 11.729A2.482 2.482 0 0 0 0 13.5C0 14.879 1.122 16 2.5 16c.668 0 1.297-.261 1.769-.734l2.359-2.358c.292.062.581.092.872.092a4.458 4.458 0 0 0 2.794-1H16V0z"/></g><g id="icon_x5F_bg"><path class="st2" d="M8 10L6 8l2.758-2.758A3.49 3.49 0 0 0 7.5 5 3.5 3.5 0 0 0 4 8.5c0 .41.084.799.214 1.164l-2.773 2.773a1.5 1.5 0 1 0 2.121 2.122l2.773-2.773c.366.13.755.214 1.165.214A3.5 3.5 0 0 0 11 8.5a3.48 3.48 0 0 0-.242-1.258L8 10zM12 10h1v1h-1zM14 10h1v1h-1z"/><path class="st2" d="M6 1v3.276a4.431 4.431 0 0 1 1-.226V2h7v7h1V1H6z"/></g><path class="st3" d="M7 2v2.05c.167-.019.329-.05.5-.05A4.5 4.5 0 0 1 12 8.5c0 .171-.032.333-.051.5H14V2H7z" id="icon_x5F_fg"/></svg>