<svg xmlns="http://www.w3.org/2000/svg" viewBox="0 0 16 16"><style>.st0{opacity:0}.st0,.st1{fill:#f6f6f6}.st2{fill:#424242}.st3{fill:#f0eff1}</style><g id="outline"><path class="st0" d="M0 0h16v16H0z"/><path class="st1" d="M16 0H5v7H0v9h11v-3h5z"/></g><g id="icon_x5F_bg"><path class="st2" d="M8 5h3v1H8zM8 3h5v1H8zM12 5h1v1h-1z"/><path class="st2" d="M15 1H6v6h1V2h7v9h-3v1h4z"/><path class="st2" d="M11 7h1v1h-1zM2.998 8h1v1h-1zM4.999 14h1v1h-1zM2.998 14h1v1h-1zM6.999 14h1v1h-1zM.997 8h1v1h-1zM9 14h1v1H9zM9 12h1v1H9zM.997 14h1v1h-1zM9 10h1v1H9zM.997 12h1v1h-1zM.997 10h1v1h-1zM6.999 8h1v1h-1zM9.999 9V8h-1v1H9zM4.999 8h1v1h-1zM5 11h1v1H5zM7 11h1v1H7zM3 11h1v1H3z"/></g><path class="st3" d="M12 7v1h-1v3h3V2H7v5h5zm1-1h-1V5h1v1zM8 3h5v1H8V3zm0 2h3v1H8V5zm1 4H2v5h7V9zm-5 3H3v-1h1v1zm2 0H5v-1h1v1zm2 0H7v-1h1v1z" id="icon_x5F_fg"/></svg>