<svg xmlns="http://www.w3.org/2000/svg" viewBox="0 0 16 16"><style>.st0{opacity:0}.st0,.st1{fill:#f6f6f6}.st2{fill:#424242}.st3{fill:#f0eff1}</style><g id="outline"><path class="st0" d="M0 0h16v16H0z"/><path class="st1" d="M12.063 8h2v5h-2v1h-4v-2.053a3.506 3.506 0 0 1-.5.423V14c0 1.102-.897 2-2 2s-2-.898-2-2v-1.63a3.5 3.5 0 0 1-1.5-2.87 3.5 3.5 0 0 1 2.1-3.205s.956-.241 1.338-.241c.317 0 1.226.137 1.226.137A3.953 3.953 0 0 1 6.063 4c0-2.206 1.794-4 4-4 2.207 0 4 1.794 4 4a3.998 3.998 0 0 1-2 3.45V8z"/></g><g id="icon_x5F_bg"><path class="st2" d="M8 9.5a2.497 2.497 0 0 1-1.5 2.289V14a1 1 0 1 1-2 0v-2.211A2.499 2.499 0 0 1 3 9.5a2.5 2.5 0 0 1 1.5-2.289V10h2V7.211A2.497 2.497 0 0 1 8 9.5zM11 6.815c1.16-.414 2-1.514 2-2.815 0-1.654-1.346-3-3-3S7 2.346 7 4c0 1.301.839 2.401 2 2.815V13h2v-1h2v-1h-2v-1h2V9h-2V6.815zM10 5a1 1 0 1 1 0-2 1 1 0 0 1 0 2z"/></g><circle class="st3" cx="10" cy="4" r="1" id="icon_x5F_fg"/></svg>