<svg xmlns="http://www.w3.org/2000/svg" viewBox="0 0 16 16"><style>.st0{opacity:0}.st0,.st1,.st2,.st3{fill:#f6f6f6}.st2,.st3{display:none}.st3{fill:#c27d1a}.st4{fill:#424242}</style><g id="outline"><path class="st0" d="M0 0h16v16H0z"/><path class="st1" d="M15 11V8h-4l-1 1v2h1v2h-1v3h5v-3h-1v-2z"/><path class="st2" d="M10.414 6l1.5-1.5L9 1.585 7.586 3h-.172l-3-3h-.828L0 3.585v1.829l2.5 2.5 1.5-1.5V10h2.586L9 12.414 12.914 8.5z"/><path class="st3" d="M10 7L9 8H6V5h1l-.5.5L8 7l2.5-2.5L9 3 8 4H5l1-1-2-2L.5 4.5l2 2L4 5h1v4h3l-.5.5L9 11l2.5-2.5z"/></g><g id="icon_x5F_bg"><path class="st4" d="M12 10h1v4h-1zM13 9h1v1h-1zM11 9h1v1h-1zM11 14h1v1h-1zM13 14h1v1h-1z"/><path class="st1" d="M2.5 12A2.503 2.503 0 0 1 .734 7.729l2.358-2.358A4.187 4.187 0 0 1 3 4.5C3 2.018 5.019 0 7.5 0S12 2.018 12 4.5C12 6.98 9.981 9 7.5 9c-.29 0-.579-.031-.872-.094l-2.359 2.359c-.472.473-1.1.735-1.769.735z"/><path class="st4" d="M8 6L6 4l2.758-2.758A3.49 3.49 0 0 0 7.5 1 3.5 3.5 0 0 0 4 4.5c0 .41.084.799.214 1.164L1.44 8.438a1.5 1.5 0 1 0 2.122 2.121l2.773-2.773C6.701 7.916 7.09 8 7.5 8A3.5 3.5 0 0 0 11 4.5a3.48 3.48 0 0 0-.242-1.258L8 6z"/></g></svg>