<svg xmlns="http://www.w3.org/2000/svg" viewBox="0 0 16 16"><style>.icon-canvas-transparent{opacity:0;fill:#f6f6f6}.icon-vs-out{fill:#f6f6f6}.icon-vs-bg{fill:#424242}.icon-vs-action-red{fill:#a1260d}</style><path class="icon-canvas-transparent" d="M0 0h16v16H0z" id="canvas"/><path class="icon-vs-out" d="M16 9.646l-2.061-2.061-1.97 1.97-1.61-1.61C11.353 7.119 12 5.89 12 4.5 12 2.018 9.981 0 7.5 0S3 2.018 3 4.5c0 .289.03.578.093.871L.734 7.729A2.503 2.503 0 0 0 2.5 12c.669 0 1.297-.262 1.769-.734l2.359-2.359c.293.062.582.093.872.093.455 0 .886-.088 1.3-.214l-1.275 1.275 1.97 1.97L7.525 14l2 2h.949l1.495-1.495L13.465 16h.949L16 14.414v-.828l-1.556-1.556L16 10.475v-.829z" id="outline"/><path class="icon-vs-bg" d="M8 6L6 4l2.758-2.758A3.49 3.49 0 0 0 7.5 1 3.5 3.5 0 0 0 4 4.5c0 .41.084.799.214 1.164L1.44 8.438a1.5 1.5 0 1 0 2.122 2.121l2.773-2.773C6.701 7.916 7.09 8 7.5 8A3.5 3.5 0 0 0 11 4.5a3.48 3.48 0 0 0-.242-1.258L8 6z" id="iconBg"/><path class="icon-vs-action-red" d="M13.03 12.03L15 14l-1.061 1.061-1.97-1.97L10 15.061 8.939 14l1.97-1.97-1.97-1.97L10 9l1.97 1.97L13.939 9 15 10.061l-1.97 1.969z" id="colorAction"/></svg>