<svg xmlns="http://www.w3.org/2000/svg" viewBox="0 0 16 16"><style>.st0{opacity:0}.st0,.st1{fill:#f6f6f6}.st2{fill:#424242}</style><g id="outline"><path class="st0" d="M0 0h16v16H0z"/><path class="st1" d="M12.443 8h-2.15C11.325 7.175 12 5.92 12 4.5 12 2.018 9.981 0 7.5 0S3 2.018 3 4.5c0 .289.03.578.093.871L.734 7.729A2.503 2.503 0 0 0 2.5 12c.669 0 1.297-.262 1.769-.734l2.359-2.359c.293.062.582.093.872.093.343 0 .674-.046.996-.12L9.615 10H7.029v4h2.586l-2 2h4.828L16 12.443v-.887L12.443 8z"/></g><g id="icon_x5F_bg"><path class="st2" d="M8 6L6 4l2.758-2.758A3.49 3.49 0 0 0 7.5 1 3.5 3.5 0 0 0 4 4.5c0 .41.084.799.214 1.164L1.44 8.438a1.5 1.5 0 1 0 2.122 2.121l2.773-2.773C6.701 7.916 7.09 8 7.5 8A3.5 3.5 0 0 0 11 4.5a3.48 3.48 0 0 0-.242-1.258L8 6zM12.029 9h-2l2 2h-4v2h4l-2 2h2l3-3z"/></g></svg>