<svg xmlns="http://www.w3.org/2000/svg" viewBox="0 0 16 16"><style>.st0{opacity:0;fill:#f6f6f6}.st1{opacity:.01}.st1,.st2{fill:#f6f6f6}.st3{fill:#424242}.st4{fill:#388a34}</style><g id="outline"><path class="st0" d="M0 0h16v16H0z"/><path class="st1" d="M0 0h16v16H0z"/><path class="st2" d="M14 10V8h-3.602C11.369 7 12 5.915 12 4.543 12 2.061 9.981.022 7.5.022S3 2.028 3 4.511c0 .289.03.572.093.865L.734 7.732A2.482 2.482 0 0 0 0 9.501c0 1.378 1.121 2.5 2.5 2.5.669 0 1.297-.263 1.769-.735l2.359-2.359c.293.062.573.093.863.093C8.423 9 9 8.715 10 8.228V10H8v4h2v2h4v-2h2v-4h-2z"/></g><path class="st3" d="M8 6L6 4l2.758-2.758A3.49 3.49 0 0 0 7.5 1 3.5 3.5 0 0 0 4 4.5c0 .41.084.799.214 1.164L1.44 8.438a1.5 1.5 0 1 0 2.122 2.121l2.773-2.773C6.701 7.916 7.09 8 7.5 8A3.5 3.5 0 0 0 11 4.5a3.48 3.48 0 0 0-.242-1.258L8 6z" id="icon_x5F_bg"/><g id="color_x5F_action"><path id="Foreground_2_" class="st4" d="M15 11.018h-2V9h-1.982v2.018H9V13h2.018v2H13v-2h2z"/></g></svg>