<svg xmlns="http://www.w3.org/2000/svg" viewBox="0 0 16 16"><style>.st0{opacity:0}.st0,.st1{fill:#f6f6f6}.st2{fill:#424242}.st3{fill:#f0eff1}</style><g id="outline"><path class="st0" d="M0 0h16v16H0z"/><path class="st1" d="M14.4 9h-3.829L9 10.571v2.842l1 1.001V16h1.661l1.117-1h1.623L16 13.401v-2.802zM2.5 12A2.503 2.503 0 0 1 .734 7.729l2.358-2.358A4.187 4.187 0 0 1 3 4.5C3 2.018 5.019 0 7.5 0S12 2.018 12 4.5C12 6.98 9.981 9 7.5 9c-.29 0-.579-.031-.872-.094l-2.359 2.359c-.472.473-1.1.735-1.769.735z"/></g><g id="icon_x5F_bg"><path class="st2" d="M13.986 10h-3.001l-.985.985v2.014L11 14v1.25L12.396 14h1.591L15 12.987v-1.975L13.986 10zm.015 3h-3v-2h3v2zM8 6L6 4l2.758-2.758A3.49 3.49 0 0 0 7.5 1 3.5 3.5 0 0 0 4 4.5c0 .41.084.799.214 1.164L1.44 8.438a1.5 1.5 0 1 0 2.122 2.121l2.773-2.773C6.701 7.916 7.09 8 7.5 8A3.5 3.5 0 0 0 11 4.5a3.48 3.48 0 0 0-.242-1.258L8 6z"/></g><path class="st3" d="M11 11h3v2h-3z" id="icon_x5F_fg"/></svg>