<svg xmlns="http://www.w3.org/2000/svg" viewBox="0 0 16 16"><style>.st0{opacity:0}.st0,.st1{fill:#f6f6f6}.st2{fill:#424242}</style><g id="outline"><path class="st0" d="M0 0h16v16H0z"/><path class="st1" d="M11.5 0A4.505 4.505 0 0 0 7 4.5c0 .674.152 1.33.445 1.934L6.146 7.732 5 6.586l-5 5v.828L3.586 16h.828l5-5-1.146-1.146 1.299-1.299A4.407 4.407 0 0 0 11.5 9C13.981 9 16 6.981 16 4.5S13.981 0 11.5 0zM4 12.172L3.828 12 5 10.828l.172.172L4 12.172zM11.5 6c-.827 0-1.5-.673-1.5-1.5S10.673 3 11.5 3s1.5.673 1.5 1.5S12.327 6 11.5 6z"/></g><path class="st2" d="M11.5 1A3.5 3.5 0 0 0 8 4.5c0 .786.269 1.503.705 2.087L6.146 9.146 5 8l-4 4 3 3 4-4-1.146-1.146 2.559-2.559A3.475 3.475 0 0 0 11.5 8a3.5 3.5 0 1 0 0-7zM4 13.586L2.414 12 5 9.414 6.586 11 4 13.586zM11.5 7a2.5 2.5 0 1 1 0-5 2.5 2.5 0 0 1 0 5z" id="icon_x5F_bg"/></svg>