<svg xmlns="http://www.w3.org/2000/svg" viewBox="0 0 16 16"><style>.st0{opacity:0}.st0,.st1{fill:#f6f6f6}.st2{fill:#424242}.st3{fill:#f0eff1}</style><g id="outline"><path class="st0" d="M0 0h16v16H0z"/><path class="st1" d="M15.148 0H2v3.004H0V16h12.988v-2H16V0z"/></g><g id="icon_x5F_bg"><path class="st2" d="M3 1h1v1H3zM3 3h1v1H3zM3 5h1v1H3zM3 7h1v1H3zM1 4h1v1H1zM1 6h1v1H1zM1 8h1v1H1zM1 10h1v1H1zM1 12h1v1H1zM3 14h1v1H3zM1 14h1v1H1zM5 14h1v1H5zM7 14h1v1H7zM9 14h1v1H9zM11 14h1v1h-1zM5 1h1v1H5zM7 1h1v1H7zM9 1h1v1H9zM14 6h1v1h-1zM14 8h1v1h-1zM14 10h1v1h-1zM14 12h1v1h-1zM12 12h1v1h-1zM10 12h1v1h-1zM8 12h1v1H8zM7.009 10.723c.438.198.987.261 1.5.261A3.493 3.493 0 0 0 12 7.491c0-.511-.074-1.05-.273-1.487L9.382 8.365 7.635 6.619l2.374-2.35C9.57 4.071 9.02 4 8.509 4a3.492 3.492 0 0 0-3.493 3.491c0 .512.124 1.073.321 1.513l-1.949 1.862s-.874.873 0 1.746c.872.873 1.746 0 1.746 0l1.875-1.889zM14.5 5l1-1.768L14.5 1h-3l-1 2 1 2h3zM13 2a1 1 0 1 1 0 2 1 1 0 1 1 0-2z"/></g><g id="icon_x5F_fg"><path class="st3" d="M12.786 6A5.16 5.16 0 0 1 13 7.491a4.497 4.497 0 0 1-4.491 4.492c-.447 0-.855-.041-1.22-.123L7.15 12H14V6h-1.214zM8.509 3c.257 0 .573.017.907.069L9.382 3l.5-1H4v6.898l.182-.174a4.885 4.885 0 0 1-.166-1.233A4.498 4.498 0 0 1 8.509 3zM9.379 6.949l1.315-1.324-.21-.42-1.431 1.418z"/></g></svg>