<svg xmlns="http://www.w3.org/2000/svg" width="16" height="16"><style type="text/css">.icon-canvas-transparent{opacity:0;fill:#F6F6F6;} .icon-vs-out{fill:#F6F6F6;} .icon-vs-bg{fill:#424242;}</style><path class="icon-canvas-transparent" d="M16 16h-16v-16h16v16z" id="canvas"/><path class="icon-vs-out" d="M16 15h-9v-.249c-1 .376-1.502.565-2.368.565-.713 0-1.359-.107-1.922-.32-.572-.214-1.069-.521-1.473-.908-.41-.396-.722-.868-.929-1.406-.2-.519-.301-1.078-.301-1.666 0-.61.095-1.184.281-1.705.195-.546.5-1.038.905-1.458.394-.409.891-.749 1.477-1.013.559-.251 1.218-.429 1.961-.529l2.491-.347-.045-.177c-.068-.224-.156-.396-.263-.514-.1-.111-.215-.188-.354-.24-.18-.066-.392-.1-.628-.1-.564 0-1.116.102-1.639.301-.473.18-1.062.547-1.536.958l-1.657 1.439v-4.574l.42-.299c.237-.169.591-.412.932-.568.326-.146.682-.279 1.062-.396.387-.12.8-.219 1.224-.295.448-.081.895-.122 1.328-.122 1.611 0 2.872.481 3.747 1.429.853.923 1.287 2.212 1.287 3.829v-2.635h5v5h-5v1h5v5z" id="outline"/><g id="iconBg"><path class="icon-vs-bg" d="M7.999 14.004v-1.743h.134c-.378.667-.865 1.176-1.462 1.528-.597.352-1.277.527-2.04.527-.593 0-1.116-.085-1.567-.256-.452-.169-.83-.401-1.134-.693-.304-.294-.534-.643-.689-1.046-.155-.403-.233-.839-.233-1.306 0-.497.074-.953.223-1.367.148-.415.375-.782.684-1.102.306-.317.695-.582 1.166-.794.47-.211 1.032-.361 1.684-.449l3.436-.478c0-.519-.056-.962-.167-1.328-.112-.368-.272-.667-.479-.895-.207-.231-.458-.4-.75-.507-.293-.108-.617-.161-.973-.161-.689 0-1.354.122-1.996.367-.641.244-1.329.7-1.832 1.138v-1.868c.156-.111.488-.344.765-.471.278-.125.591-.242.94-.35.348-.107.717-.197 1.106-.267.389-.07.773-.106 1.151-.106 1.326 0 2.331.369 3.012 1.107.681.737 1.022 1.789 1.022 3.151v7.369h-2.001zm-2.578-5.334c-.519.066-.945.16-1.279.283-.333.123-.593.273-.778.449-.186.179-.313.391-.383.635-.071.244-.106.522-.106.834 0 .267.048.515.145.745.096.229.235.429.417.6.182.17.408.304.679.399.27.097.584.145.939.145.46 0 .882-.085 1.268-.256.385-.169.716-.404.995-.705.278-.301.406-.563.562-.967.155-.404.234-.839.234-1.306v-1.156l-2.693.3zm9.579-3.67h-3v3h3v-3zm0 6h-3v3h3v-3z"/></g></svg>