<svg xmlns="http://www.w3.org/2000/svg" viewBox="0 0 16 16"><style>.st0{fill:#f6f6f6}.st1{fill:#424242}.st2{fill:#f0eff1}</style><path class="st0" d="M0 0h16v16H0z" id="outline"/><g id="icon_x5F_bg"><path class="st1" d="M1 1v14h14V1H1zm13 13H2V2h12v12z"/><path class="st1" d="M12.504 5.01L11 6.514v1.148l1.004-.928V7H12v1c0 2.396-2.001 3.303-2.81 3.571a1.398 1.398 0 0 1-.125.04 4.213 4.213 0 0 1-.239.062l.175-.343c.291-.639.53-1.245.685-1.8.101-.012.21-.042.314-.059v-.709c-.048.008-.1.025-.146.033.07-.393.108-.768.104-1.119a7.633 7.633 0 0 0-.05-.743c.03-.005.062-.015.092-.019v-.721c-.066.014-.137.032-.202.042a7.571 7.571 0 0 0-.589-1.725 3.69 3.69 0 0 1 1.451.929l.561-.562A4.465 4.465 0 0 0 8 3.5 4.5 4.5 0 0 0 3.5 8a4.74 4.74 0 0 0 .067.743 4.49 4.49 0 0 0 3.696 3.691l.013.002a4.473 4.473 0 0 0 1.163.043c.056-.006.109-.019.164-.025 1.051-.092 1.698-.369 2.15-.642C12.979 10.61 13 8 13 8h.004V6.766L14 7.76V6.506L12.504 5.01zm-4.975-.673c.155-.02.311-.033.471-.033.106 0 .21.008.313.016a6.99 6.99 0 0 1 .786 1.996c-.368.026-.729.03-1.095.026-.386-.004-.76-.029-1.119-.07.15-.783.398-1.425.644-1.935zm-.742 2.607c.387.044.789.056 1.209.056h.259c.314 0 .632.012.956-.012.025.219.044.451.046.683.004.372-.044.778-.135 1.208-.376.025-.744.037-1.118.035-.41-.006-.803-.035-1.182-.079a7.858 7.858 0 0 1-.078-1.153c.002-.247.02-.507.043-.738zM6.66 4.558a8.697 8.697 0 0 0-.471 1.612 12.479 12.479 0 0 1-1.222-.28A3.702 3.702 0 0 1 6.66 4.558zM4.304 8a3.7 3.7 0 0 1 .31-1.48c.44.131.932.254 1.479.346a7.776 7.776 0 0 0 .012 1.861 12.757 12.757 0 0 1-1.788-.467c-.006-.086-.013-.172-.013-.26zm.151 1.044c.514.157 1.102.31 1.765.415.132.673.349 1.359.632 2.053a3.703 3.703 0 0 1-2.397-2.468zm2.496.511c.336.033.686.057 1.045.059l.259.001c.224 0 .45-.006.678-.018a13.596 13.596 0 0 1-.87 2.095c-.022.001-.042.004-.063.004-.109 0-.217-.008-.324-.018a11.067 11.067 0 0 1-.725-2.123z"/></g><g id="icon_x5F_fg"><path class="st2" d="M8 11.666c-.108 0-.215-.008-.321-.018a10.981 10.981 0 0 1-.719-2.106c.333.033.68.056 1.036.058.086.002.172.002.257.002.222 0 .446-.006.672-.018a13.522 13.522 0 0 1-.862 2.078c-.022.001-.042.004-.063.004zM8.004 8.906a11.528 11.528 0 0 1-1.172-.078 7.724 7.724 0 0 1-.078-1.143c.002-.245.02-.507.043-.735.384.042.783.05 1.199.05h.257c.311 0 .627.016.948-.008.025.217.043.45.045.68.004.368-.043.772-.133 1.198-.373.026-.738.038-1.109.036zM4.334 8c0-.521.111-1.018.308-1.468.437.129.924.251 1.466.343-.026.26-.046.523-.049.803-.004.34.021.689.062 1.043a12.617 12.617 0 0 1-1.773-.463c-.007-.086-.014-.171-.014-.258zM4.484 9.035c.509.156 1.092.307 1.75.412.131.667.346 1.348.626 2.035a3.674 3.674 0 0 1-2.376-2.447zM9.099 6.316a7.01 7.01 0 0 0-.786-1.997c-.103-.007-.207-.015-.313-.015-.16 0-.316.014-.471.033a7.837 7.837 0 0 0-.645 1.935c.359.041.733.066 1.119.07.367.004.728 0 1.096-.026zM6.66 4.558A3.702 3.702 0 0 0 4.967 5.89c.373.105.779.202 1.222.28a8.697 8.697 0 0 1 .471-1.612zM10.648 9.396l-.616.57v-.495c-.109.019-.223.049-.329.062-.081.291-.187.596-.307.91.416-.196.913-.515 1.252-1.047zM10 8.752V6.919c-.035.006-.072.017-.107.022.025.238.046.48.049.736.004.35-.033.721-.104 1.111.052-.007.109-.026.162-.036zM10 6.193V6.1l.66-.66a3.682 3.682 0 0 0-1.451-.93c.235.492.451 1.064.589 1.725.065-.01.136-.028.202-.042z"/></g></svg>