<svg xmlns="http://www.w3.org/2000/svg" viewBox="0 0 16 16"><style>.st0{opacity:0}.st0,.st1{fill:#f6f6f6}.st2{fill:#424242}.st3{fill:#f0eff1}</style><g id="outline"><path class="st0" d="M0 0h16v16H0z"/><path class="st1" d="M4 0v2H2v6H0v7h3.016c.341 0 .534.016.641.03l.423.97h.849l.443-.97c.106-.014.3-.03.644-.03H9v-2h5v-2h2V0H4z"/></g><g id="icon_x5F_bg"><path class="st2" d="M8.016 9v5h-2c-1.067 0-1.346.131-1.5.5-.156-.369-.433-.5-1.5-.5h-2V9h2.5c.447.002.645.535 1 1 .361-.471.563-1 1-1h2.5zm-4 2c0-.207-.123-1-.5-1h-1.5v3h1c.29 0 .779-.117 1 0v-2zm3-1h-1.5c-.393 0-.5.764-.5 1v2c.221-.117.71 0 1 0h1v-3z"/><path class="st2" d="M8.016 9v5h-2c-1.067 0-1.346.131-1.5.5-.156-.369-.433-.5-1.5-.5h-2V9h2.5c.447.002.645.535 1 1 .361-.471.563-1 1-1h2.5zm-4 2c0-.207-.123-1-.5-1h-1.5v3h1c.29 0 .779-.117 1 0v-2zm3-1h-1.5c-.393 0-.5.764-.5 1v2c.221-.117.71 0 1 0h1v-3z"/><path class="st2" d="M8.016 9v5h-2c-1.067 0-1.346.131-1.5.5-.156-.369-.433-.5-1.5-.5h-2V9h2.5c.447.002.645.535 1 1 .361-.471.563-1 1-1h2.5zm-4 2c0-.207-.123-1-.5-1h-1.5v3h1c.29 0 .779-.117 1 0v-2zm3-1h-1.5c-.393 0-.5.764-.5 1v2c.221-.117.71 0 1 0h1v-3zM5 1v1h9v8h1V1z"/><g><path class="st2" d="M8.016 9v5h-2c-1.067 0-1.346.131-1.5.5-.156-.369-.433-.5-1.5-.5h-2V9h2.5c.447.002.645.535 1 1 .361-.471.563-1 1-1h2.5zm-4 2c0-.207-.123-1-.5-1h-1.5v3h1c.29 0 .779-.117 1 0v-2zm3-1h-1.5c-.393 0-.5.764-.5 1v2c.221-.117.71 0 1 0h1v-3zM5 1v1h9v8h1V1z"/><path class="st2" d="M3 3v5h.516c.18.001.338.035.484.085V5.573S5.886 7.317 6.588 8H8L4 4h8L8 8h1v.588l3-3.077V11H9v1h4V3H3z"/></g></g><g id="icon_x5F_fg"><path class="st3" d="M4.016 13c-.221-.117-.71 0-1 0h-1v-3h1.5c.377 0 .5.793.5 1v2zm3-3h-1.5c-.393 0-.5.764-.5 1v2c.221-.117.71 0 1 0h1v-3zM4 8.085c.198.067.37.168.515.29A1.495 1.495 0 0 1 5.516 8h1.042A744.156 744.156 0 0 0 4 5.542v2.543zM12 5.604L9 8.711V11h3zM4 4l4 4 4-4z"/></g></svg>