<svg xmlns="http://www.w3.org/2000/svg" width="16" height="16"><style type="text/css">.icon-canvas-transparent{opacity:0;fill:#F6F6F6;} .icon-vs-out{fill:#F6F6F6;} .icon-vs-bg{fill:#424242;}</style><path class="icon-canvas-transparent" d="M16 16h-16v-16h16v16z" id="canvas"/><path class="icon-vs-out" d="M16 6v10h-16v-10h3v-2.414l3.586-3.586h.828l3.586 3.586v3.414h1v-1h4z" id="outline"/><path class="icon-vs-bg" d="M11 8v2c-.97 0-2.167-.288-3-1v3h-2v-8l-2 2v-2l3-3 3 3v2l-2-2v2c0 1.153 1.898 2 3 2zm2-1v6h-10v-6h-2v8h14v-8h-2z" id="iconBg"/></svg>