<svg xmlns="http://www.w3.org/2000/svg" viewBox="0 0 16 16"><style>.icon-canvas-transparent{opacity:0;fill:#f6f6f6}.icon-vs-bg{fill:#424242}.st0{fill:#f6f6f6}</style><path class="icon-canvas-transparent" d="M16 16H0V0h16v16z" id="canvas"/><path class="st0" d="M16 8v3h-3.602l-1.321 3.875-1.953-4.867L7.275 16H7.02l-2.231-5H0V8h2.981l1.981-4.313 1.724 3.448L8.469 0h.977l1.643 5.498.817-2.268L14.012 8H16z" id="outline"/><path class="icon-vs-bg" d="M7 13.5L4.992 9l-.616 1H1V9h2.623L5 6l2 4 2-8 2 6.694 1-2.775L13.36 9H15v1h-2.36L12 9.067 11 12 9 7.015 7 13.5z" id="iconBg"/></svg>