<svg xmlns="http://www.w3.org/2000/svg" viewBox="0 0 16 16"><style>.st0{opacity:0}.st0,.st1{fill:#f6f6f6}.st2{fill:#424242}.st3{fill:#f0eff1}.st4{fill:#e51400}.st5{fill:#fff}</style><g id="outline"><path class="st0" d="M0 0h16v16H0z"/><path class="st1" d="M14.304 8.007A4.487 4.487 0 0 0 16 4.5C16 2.019 13.981 0 11.5 0 9.547 0 7.898 1.258 7.276 3H2.063L0 5.063v5.647L2.061 13H4v3h2.486l1.298-1.965A4.5 4.5 0 0 0 16 11.5c0-1.419-.67-2.669-1.696-3.493z"/></g><g id="icon_x5F_bg"><path class="st2" d="M9.601 7.434A4.461 4.461 0 0 1 11.5 7H10V4h2V3h-2V2h3v3h-2v1h2v1h-1.5c.681 0 1.32.163 1.899.434A3.491 3.491 0 0 0 15 4.5a3.5 3.5 0 1 0-7 0c0 1.232.639 2.31 1.601 2.934zM7 11.5c0-.025.007-.048.007-.073L6 13v-2H3l-.833-.936L2 9.888v-4L2.887 5h4.164C7.032 4.834 7 4.671 7 4.5s.032-.334.051-.5H2.477L1 5.477v4.82l1 1.152.477.551H5v3h.938l1.32-2 .012-.019A4.43 4.43 0 0 1 7 11.5z"/></g><g id="icon_x5F_fg"><path class="st3" d="M10 3h2v1h-2v3h3V6h-2V5h2V2h-3zM7.007 11.427a4.473 4.473 0 0 1 1.701-3.431A4.502 4.502 0 0 1 7.051 5H2.887L2 5.888v4l.167.176L3 11h3v2l1.007-1.573z"/></g><path class="st4" d="M11.5 8a3.5 3.5 0 1 0 0 7 3.5 3.5 0 0 0 0-7zm1.854 4.646l-.707.707-1.147-1.146-1.146 1.147-.707-.707 1.146-1.146-1.146-1.146.707-.707 1.146 1.147 1.146-1.147.707.707-1.146 1.145 1.147 1.146z" id="not_x5F_bg"/><path class="st5" d="M13.354 10.354l-.708-.708-1.146 1.147-1.146-1.147-.708.708 1.147 1.146-1.147 1.146.708.708 1.146-1.147 1.146 1.147.708-.708-1.147-1.146z" id="not_x5F_fg"/></svg>