<svg xmlns="http://www.w3.org/2000/svg" viewBox="0 0 16 16"><style>.st0{opacity:0}.st0,.st1{fill:#f6f6f6}.st2{fill:#424242}.st3{fill:#f0eff1}</style><g id="outline"><path class="st0" d="M0 0h16v16H0z"/><path class="st1" d="M16 4.5C16 2.019 13.981 0 11.5 0 9.547 0 7.898 1.258 7.276 3H2.063L0 5.063v5.647L2.061 13H4v3h2.486l1.982-3h3.299L14 10.738v-2.5A4.496 4.496 0 0 0 16 4.5z"/></g><g id="icon_x5F_bg"><path class="st2" d="M12 8.949v.939L11 11H7.252l-.114.224L6 13v-2H3l-.833-.936L2 9.888v-4L2.887 5h4.164C7.032 4.834 7 4.671 7 4.5s.032-.334.051-.5H2.477L1 5.477v4.82l1 1.152.477.551H5v3h.938l1.32-2 .661-1h3.459l.622-.652 1-1.05V8.724a4.485 4.485 0 0 1-1 .225z"/><path class="st2" d="M11.5 1a3.5 3.5 0 1 0 0 7 3.5 3.5 0 1 0 0-7zM13 5h-2v1h2v1h-3V4h2V3h-2V2h3v3z"/></g><g id="icon_x5F_fg"><path class="st3" d="M10 3h2v1h-2v3h3V6h-2V5h2V2h-3zM11.5 9C9.19 9 7.303 7.244 7.051 5H2.887L2 5.888v4l.167.176L3 11h3v2l1.138-1.776.114-.224H11l1-1.111v-.94c-.167.019-.329.051-.5.051z"/></g></svg>