<svg xmlns="http://www.w3.org/2000/svg" viewBox="0 0 16 16"><style>.st0{opacity:0}.st0,.st1{fill:#f6f6f6}.st2{fill:#424242}.st3{fill:none}.st4{fill:#f0eff1}</style><g id="outline"><path class="st0" d="M0 0h16v16H0z"/><path class="st1" d="M16 4.5C16 2.019 13.981 0 11.5 0 9.943 0 8.57.795 7.762 2H4.063L2 4.046v2.017L0 8.046v3.648L2.061 14h.94l-.023 2h2.517l1.973-2h1.299L11 11.721V9.762l.773-.789C14.125 8.828 16 6.888 16 4.5z"/></g><g id="icon_x5F_bg"><path class="st2" d="M7.276 3H4.477L3 4.477V6h1V4.888L4.887 4h2.164c.038-.347.112-.682.225-1zM7.762 7H2.477L1 8.477v2.821l1 1.151.477.551H4l.009 2h.938l.986-1 .986-1h1.459L9 12.348l1-1.049V8.724A4.514 4.514 0 0 1 7.762 7zM9 10.889L7.891 12H6.156l-1.147 2-.009.007V12H3.099L2 10.889V8.888L2.887 8h5.081L9 8.888v2.001zM11.5 1a3.5 3.5 0 1 0 0 7 3.5 3.5 0 1 0 0-7zM13 5h-2v1h2v1h-3V4h2V3h-2V2h3v3z"/></g><g id="icon_x5F_fg"><path class="st3" d="M7.01 10.007L7.014 10H7.01zM5.01 14.007L5.014 14H5.01z"/><path class="st4" d="M4.978 12H5l.01 2h.004l1.142-2h1.735L9 10.889V8.888L7.968 8H2.887L2 8.888v2.001L3.099 12zM7 4.5c0-.171.032-.334.05-.5H4.887L4 4.888V6h3.275A4.473 4.473 0 0 1 7 4.5zM10 3h2v1h-2v3h3V6h-2V5h2V2h-3z"/></g></svg>