<svg xmlns="http://www.w3.org/2000/svg" viewBox="0 0 16 16"><style>.st0{opacity:0}.st0,.st1{fill:#f6f6f6}.st2{fill:#1ba1e2}.st3{fill:#424242}</style><g id="outline"><path class="st0" d="M0 0h16v16H0z"/><path class="st1" d="M14.196 7.981L11 8.62V12h-1c-1.302 0-2.449-.793-3.18-2H4.29c-.615.613-1.411 1-2.29 1H1V3h1c.879 0 1.675.385 2.291 1h2.53C7.551 2.793 8.698 2 10 2h1v3.38l3.196.639v1.962z"/></g><g id="icon_x5F_bg"><path class="st2" d="M10 3v8c-1.107 0-2.064-.811-2.584-2H3.852c-.458.609-1.114 1-1.852 1V4c.738 0 1.394.391 1.852 1h3.564C7.936 3.81 8.893 3 10 3z"/><path class="st3" d="M10 7.799L14 7l-4-.8z"/></g></svg>