<svg xmlns="http://www.w3.org/2000/svg" viewBox="0 0 16 16"><style>.st0{opacity:0}.st0,.st1{fill:#f6f6f6}.st2{fill:#879636}</style><g id="outline"><path class="st0" d="M0 0h16v16H0z"/><path class="st1" d="M15 3h-3.539l-.887 1.767L9.695 3H5.289l.016.028C5.105 3.01 4.895 3 4.668 3H1v9h3.704V9.585c1.058-.03 1.94-.321 2.625-.865.3-.239.528-.522.718-.825l.512.908V12h3.816V8.78L15 4.271V3z"/></g><g id="color_x5F_importance"><path class="st2" d="M4.668 4H2v7h1.704V8.588h.812c.914 0 1.645-.217 2.191-.651.547-.435.82-1.003.82-1.706C7.527 4.744 6.574 4 4.668 4zm-.295 3.392h-.669V5.211h.669c.908 0 1.361.36 1.361 1.079 0 .735-.453 1.102-1.361 1.102zM12.078 4l-1.321 2.631a2.331 2.331 0 0 0-.175.553h-.022a7.097 7.097 0 0 0-.187-.572L9.076 4H7l2.559 4.54V11h1.816V8.511L14 4h-1.922z"/></g></svg>