<svg xmlns="http://www.w3.org/2000/svg" viewBox="0 0 16 16"><style>.st0{opacity:0}.st0,.st1{fill:#f6f6f6}.st2{fill:#424242}.st3{fill:#879636}.st4{fill:#f0eff1}</style><g id="outline"><path class="st0" d="M0 0h16v16H0z"/><path class="st1" d="M16 1v14H0V1h16z"/></g><g id="icon_x5F_bg"><path class="st2" d="M5.225 5H3v6h1.42V8.933h.677c.762 0 1.37-.186 1.826-.559.455-.372.683-.859.683-1.462C7.605 5.638 6.813 5 5.225 5zm-.246 2.907H4.42V6.038h.559c.756 0 1.133.309 1.133.925-.001.63-.378.944-1.133.944zM9.529 8.892L7.529 5H9.15l1.016 2.238c.018.043.066.205.144.49h.018c.039-.201.084-.358.137-.474L11.498 5H13l-2.052 3.866V11H9.529V8.892z"/></g><path class="st3" d="M1 2v12h14V2H1zm13 11H2V3h12v10z" id="color_x5F_importance"/><path class="st4" d="M6.111 6.963c0 .63-.377.944-1.133.944H4.42V6.038h.559c.755 0 1.132.309 1.132.925zM14 3v10H2V3h12zM7.605 6.912C7.605 5.638 6.813 5 5.225 5H3v6h1.42V8.933h.677c.762 0 1.37-.186 1.826-.559.455-.372.682-.859.682-1.462zM13 5h-1.502l-1.033 2.255a2.133 2.133 0 0 0-.137.474h-.018a7.757 7.757 0 0 0-.144-.49L9.15 5H7.529l2 3.892V11h1.419V8.866L13 5z" id="icon_x5F_fg"/></svg>