<svg xmlns="http://www.w3.org/2000/svg" viewBox="0 0 16 16"><style>.st0{opacity:0}.st0,.st1{fill:#f6f6f6}.st2{fill:#424242}.st3{fill:#879636}.st4{fill:#f0eff1}</style><g id="outline"><path class="st0" d="M0 0h16v16H0z"/><path class="st1" d="M11.023 0H4.964C4.012 0 3 .701 3 2l.001 3.586L0 8.588v.829l2.818 2.806.182-.182V14h2.195l2.002 2h.783l2.001-2h2.983c1.442 0 2.007-1.175 2.035-2V3.552L11.023 0z"/></g><path class="st2" d="M10.641 1H4.964S4 1 4 2v2.587l.001-.001.999.998V2h5v3h3v7h-2.946l.965.963-.038.037h1.983c1 0 1.035-1 1.035-1V4l-3.358-3z" id="icon_x5F_bg"/><path class="st3" d="M8.215 11.578l-.42.422H5v-2h1.53l-.332.33 1.387 1.385L9.6 9.7 8.211 8.316 7.529 9H4.628l1.184-1.187L4.001 6 1 9.001l1.818 1.81L4 9.637V13h2.796l-.594.592 1.387 1.385 2.015-2.013z" id="color_x5F_importance"/><path class="st4" d="M10 5V2H5v3.584l2.265 2.265.944-.948 2.806 2.798-1.632 1.632.671.669H13V5z" id="icon_x5F_fg"/></svg>