<svg xmlns="http://www.w3.org/2000/svg" viewBox="0 0 16 16"><style>.st0{opacity:0}.st0,.st1{fill:#f6f6f6}.st2{fill:#424242}.st3{fill:#879636}.st4{fill:#f0eff1}</style><g id="outline"><path class="st0" d="M0 0h16v16H0z"/><path class="st1" d="M16 1h-5V0H5v1H0v13h5.195l2.002 2h.783l2.001-2H16z"/></g><g id="icon_x5F_bg"><path class="st2" d="M3 12.041l-.182.182L2.595 12H2v-.592l-1-.996V13h2zM3.587 5H2V3h2v1.587l.002-.002.998.998V2H1v5.588zM11 2v11h4V2h-4zm3 10h-2v-1h2v1zm0-2h-2V9h2v1zm0-5h-2V3h2v2z"/><g><path class="st2" d="M10 10.714l-.617.617.617.616zM7.265 7.849l.944-.947L10 8.688V1H6v5.584l1.265 1.265zM7 2h2v1H7V2z"/></g></g><path class="st3" d="M8.215 11.578l-.42.422H5v-2h1.529l-.332.33 1.388 1.385L9.6 9.7 8.211 8.316 7.529 9H4.628l1.185-1.187L4.001 6 1 9.001l1.818 1.81L4 9.637V13h2.796l-.595.592 1.388 1.385 2.015-2.013z" id="color_x5F_importance"/><g id="icon_x5F_fg"><path class="st4" d="M2 3h2v2H2zM12 11h2v1h-2zM12 3h2v2h-2zM12 9h2v1h-2zM7 2h2v1H7z"/></g></svg>