<svg xmlns="http://www.w3.org/2000/svg" viewBox="0 0 16 16"><style>.st0{opacity:0}.st0,.st1{fill:#f6f6f6}.st2{fill:#424242}.st3{fill:#388a34}.st4{fill:#879636}.st5{fill:#f0eff1}</style><g id="outline"><path class="st0" d="M0 0h16v16H0z"/><path class="st1" d="M0 0v9l1-.75V15h15V0z"/></g><g id="icon_x5F_bg"><path class="st2" d="M9 7h2v1H9zM9 9h3v1H9zM7 11h6v1H7zM4 11h2v1H4zM4 7h4v1H4zM4 9h4v1H4zM5.333 5L4 6h4V5z"/></g><path class="st3" d="M1 1v6l4-3z" id="color_x5F_action"/><path class="st4" d="M2.667 1l4 3H14v9H3V6.75L2 7.5V14h13V1z" id="color_x5F_importance"/><path class="st5" d="M6.667 4L5.333 5H8v1H4l-1 .75V13h11V4H6.667zM9 7h2v1H9V7zm0 2h3v1H9V9zM4 7h4v1H4V7zm0 2h4v1H4V9zm2 3H4v-1h2v1zm7 0H7v-1h6v1z" id="icon_x5F_fg"/></svg>