<svg xmlns="http://www.w3.org/2000/svg" viewBox="0 0 16 16"><style>.st0{opacity:0}.st0,.st1{fill:#f6f6f6}.st2{fill:#424242}.st3{fill:#f0eff1}</style><g id="outline"><path class="st0" d="M0 0h16v16H0z"/><path class="st1" d="M0 0h16v15H0z"/></g><g id="icon_x5F_bg"><path class="st2" d="M1 1v13h14V1H1zm13 12H2V2h12v11z"/><path class="st2" d="M13 11L9 3H7l-4 8v1h10v-1zM7.118 5h1.764l1 2H6.118l1-2zm-3 6l1-2h5.764l1 2H4.118z"/></g><g id="icon_x5F_fg"><path class="st3" d="M7.118 5l-1 2h3.764l-1-2zM4.118 11h7.764l-1-2H5.118z"/><path class="st3" d="M2 2v11h12V2H2zm11 10H3v-1l4-8h2l4 8v1z"/></g></svg>