<svg xmlns="http://www.w3.org/2000/svg" viewBox="0 0 16 16"><style>.st0{opacity:0}.st0,.st1{fill:#f6f6f6}.st2{fill:#879636}.st3{fill:#f0eff1}</style><g id="outline"><path class="st0" d="M0 0h16v16H0z"/><path class="st1" d="M15.99 8.56c-.098.791-.809 1.005-1.234 1.133-.109.032-.234.07-.371.118-.646.223-1.539 1.099-2.326 1.872-.736.723-1.432 1.406-2.102 1.76-.658.33-.877.439-1.1.609l-.135.101c-.025.273-.076.566-.164.779a1.601 1.601 0 0 1-1.105.974c-.211.054-.441.08-.684.08-1.528 0-3.798-1.063-5.426-3.437C.208 10.894-.241 9.016.125 7.48.02 5.825.703 3.68 2.266 2.625 3.171 1.851 5.669 0 8.553 0c.818 0 1.611.149 2.355.445 2.709 1.077 3.453 2.619 3.644 3.56.613.403.955 1.063 1.104 1.564a.996.996 0 0 1-.211 1.157c.377.568.608 1.3.545 1.834z"/></g><path class="st2" d="M14.359 6.971c-.838-.738-1.731-.688-2.078-.701.469-.127 1.141-.299 1.375-1.143.643-.012 1.078.875 1.078.875s-.219-1.125-1.125-1.328c.018-.219.078-2.047-3.07-3.299C6.741-.136 2.911 3.398 2.825 3.453c-1.356.916-1.817 2.885-1.69 4.115C.844 8.58.958 10.22 2.168 11.983c1.631 2.379 3.957 3.227 5.037 2.953a.605.605 0 0 0 .428-.383c.051-.096.129-.615.105-.93.021 0 .127-.082.514-.369.307-.232.584-.369 1.238-.697 1.244-.656 3.053-3.171 4.562-3.69.543-.191.92-.232.943-.424.046-.382-.261-1.13-.636-1.472zM2.981 3.949c1.043-1.053 3.678-1.463 5.148-1.613 3.887-.443 4.639 1.584 4.621 2.322 0 .041-1.531-.031-3.156 1.797-.031 0-.859-.188-1.234-.281-.594-.031-1.964-.961-4-.734-.844.093-1.313.281-1.766.546-.181-.369-.26-1.326.387-2.037zm1.098 9.256c-.729-.273-2.329-1.891-1.829-3.969.483-.015 1.446.272 1.75.75.898 1.416 1.078 2.163 1 2.681-.109.726-.781.538-.921.538zm2.002-2.097c-.492-.82-1.371-2.255-2.045-3.144.184-.229.488-.508.902-.604.893-.205 2.671-.162 3.937-.203-.229.275-1.422 1.236-1.896 2.817-.139.46-.615.752-.898 1.134zm6.269-3.303c-1.156.424-2.043 1.531-2.334 1.9-.643.833-1.758 2.142-2.383 2.47a1.27 1.27 0 0 0-.008-.123 4.466 4.466 0 0 1 .068-.943c.381-.52.906-1.407 1.238-1.831 1.314-1.682 2.908-2.629 2.959-2.697.209.027 1.35.068 1.672.422.641.702-.484.528-1.212.802z" id="icon_x5F_bg"/><path class="st3" d="M2.981 3.949c1.043-1.053 3.678-1.463 5.148-1.613 3.887-.443 4.639 1.584 4.621 2.322 0 .041-1.531-.031-3.156 1.797-.031 0-.859-.188-1.234-.281-.594-.031-1.964-.961-4-.734-.844.093-1.313.281-1.766.546-.181-.369-.26-1.326.387-2.037zm1.098 9.256c-.729-.273-2.329-1.891-1.829-3.969.483-.015 1.446.272 1.75.75.898 1.416 1.078 2.163 1 2.681-.109.726-.781.538-.921.538zm2.002-2.097c-.492-.82-1.371-2.255-2.045-3.144.184-.229.488-.508.902-.604.893-.205 2.671-.162 3.937-.203-.229.275-1.422 1.236-1.896 2.817-.139.46-.615.752-.898 1.134zm6.269-3.303c-1.156.424-2.043 1.531-2.334 1.9-.643.833-1.758 2.142-2.383 2.47a1.27 1.27 0 0 0-.008-.123 4.466 4.466 0 0 1 .068-.943c.381-.52.906-1.407 1.238-1.831 1.314-1.682 2.908-2.629 2.959-2.697.209.027 1.35.068 1.672.422.641.702-.484.528-1.212.802z" id="icon_x5F_fg"/></svg>