<svg xmlns="http://www.w3.org/2000/svg" viewBox="0 0 16 16"><style>.st0{opacity:0}.st0,.st1{fill:#f6f6f6}.st2{fill:#879636}.st3{fill:#f0eff1}</style><g id="outline"><path class="st0" d="M0 0h16v16H0z"/><circle class="st1" cx="8" cy="8" r="8"/></g><path class="st2" d="M15 8c0-.08-.01-.157-.012-.237A6.994 6.994 0 0 0 8 1a7 7 0 0 0-7 7 6.692 6.692 0 0 0 .1 1.136l.002.018a6.995 6.995 0 0 0 5.75 5.745l.021.003A7.584 7.584 0 0 0 8 15a7 7 0 0 0 7-7zm-4.031-1.662a12.557 12.557 0 0 0 2.316-.604c.299.696.465 1.461.465 2.266 0 .126-.01.25-.018.374-1.039.452-1.973.722-2.848.863a9.4 9.4 0 0 0 .16-1.743 11.3 11.3 0 0 0-.075-1.156zM12.75 4.76c-.688.236-1.334.4-1.951.496a11.702 11.702 0 0 0-.918-2.685A5.759 5.759 0 0 1 12.75 4.76zM8 13.75c-.17 0-.338-.011-.504-.025-.503-1.116-.888-2.225-1.128-3.306a18.417 18.417 0 0 0 2.029.094c.348 0 .7-.01 1.053-.027-.305.991-.758 2.077-1.352 3.26-.032 0-.064.004-.098.004zm.006-4.329a17.445 17.445 0 0 1-1.838-.123 12.388 12.388 0 0 1-.123-1.793c.004-.386.032-.755.068-1.114.603.068 1.23.113 1.882.12l.403.002c.488 0 .983-.016 1.487-.054.039.339.066.685.07 1.046a8.673 8.673 0 0 1-.209 1.869c-.584.042-1.158.05-1.74.047zM8 2.25c.165 0 .327.011.488.024.468.812.943 1.846 1.22 3.107-.57.039-1.132.044-1.703.039a16.72 16.72 0 0 1-1.739-.111 12.183 12.183 0 0 1 1.002-3.007c.24-.031.483-.052.732-.052zm-2.083.395c-.29.723-.555 1.555-.732 2.508a19.17 19.17 0 0 1-1.902-.435 5.76 5.76 0 0 1 2.634-2.073zM2.25 8c0-.819.174-1.597.482-2.302.686.202 1.448.393 2.3.539-.041.405-.072.82-.076 1.257-.006.535.034 1.083.098 1.637a19.429 19.429 0 0 1-2.783-.728C2.261 8.27 2.25 8.136 2.25 8zm.237 1.625c.798.244 1.712.479 2.744.644.206 1.047.542 2.116.981 3.193a5.754 5.754 0 0 1-3.725-3.837zm6.898 3.95c.545-1.146.967-2.215 1.238-3.193a12.796 12.796 0 0 0 2.885-.734 5.754 5.754 0 0 1-4.123 3.927z" id="icon_x5F_bg"/><g id="icon_x5F_fg"><path class="st3" d="M10.969 6.338a12.557 12.557 0 0 0 2.316-.604c.299.696.465 1.461.465 2.266 0 .126-.01.25-.018.374-1.039.452-1.973.722-2.848.863a9.4 9.4 0 0 0 .16-1.743 11.3 11.3 0 0 0-.075-1.156zM12.75 4.76c-.688.236-1.334.4-1.951.496a11.702 11.702 0 0 0-.918-2.685A5.759 5.759 0 0 1 12.75 4.76zM8 13.75c-.17 0-.338-.011-.504-.025-.503-1.116-.888-2.225-1.128-3.306a18.417 18.417 0 0 0 2.029.094c.348 0 .7-.01 1.053-.027-.305.991-.758 2.077-1.352 3.26-.032 0-.064.004-.098.004zM8 9.344a16.802 16.802 0 0 1-1.797-.094c-.084-.609-.1-1.161-.094-1.745.004-.386-.021-.677.016-1.037.603.068 1.14.12 1.792.126l.4.002c.488 0 1.008-.028 1.512-.066.038.34.042.614.046.976a7.721 7.721 0 0 1-.174 1.775c-.584.041-1.118.066-1.701.063zM8 2.25c.165 0 .327.011.488.024.468.812.89 1.776 1.167 3.038-.571.04-1.116.068-1.686.063-.6-.006-1.145-.03-1.703-.094.233-1.215.62-2.186 1.002-2.979.24-.031.483-.052.732-.052zM5.917 2.645c-.29.723-.555 1.555-.732 2.508a19.17 19.17 0 0 1-1.902-.435 5.76 5.76 0 0 1 2.634-2.073zM2.25 8c0-.819.174-1.597.482-2.302.686.202 1.448.393 2.3.539-.041.405-.072.82-.076 1.257-.006.535.034 1.083.098 1.637a19.429 19.429 0 0 1-2.783-.728C2.261 8.27 2.25 8.136 2.25 8zM2.487 9.625c.798.244 1.712.479 2.744.644.206 1.047.542 2.116.981 3.193a5.754 5.754 0 0 1-3.725-3.837zM9.385 13.575c.545-1.146.967-2.215 1.238-3.193a12.796 12.796 0 0 0 2.885-.734 5.754 5.754 0 0 1-4.123 3.927z"/></g></svg>