<svg xmlns="http://www.w3.org/2000/svg" viewBox="0 0 16 16"><style>.st0{opacity:0}.st0,.st1{fill:#f6f6f6}.st2{fill:#424242}.st3{fill:#879636}.st4{fill:#f0eff1}</style><g id="outline"><path class="st0" d="M0 0h16v16H0z"/><path class="st1" d="M16 1H0v14h2.344c.894.628 1.98 1 3.156 1a5.471 5.471 0 0 0 3.156-1H16V1z"/></g><path class="st2" d="M1 2v5.348a5.551 5.551 0 0 1 1-1.087V5h12v8h-3.606l-.007.011a5.562 5.562 0 0 1-.648.989H15V2H1z" id="icon_x5F_bg"/><path class="st3" d="M10.019 10.391a4.497 4.497 0 1 0-8.972.541 4.74 4.74 0 0 0 .047.354 4.49 4.49 0 0 0 3.696 3.691l.013.002a4.283 4.283 0 0 0 1.163.043 4.503 4.503 0 0 0 4.061-4.478c0-.054-.008-.103-.008-.153zM6.736 7.053c.757.262 1.4.758 1.844 1.406a7.14 7.14 0 0 1-1.255.319 7.571 7.571 0 0 0-.589-1.725zm.048 3.161c.004.372-.044.778-.135 1.208-.376.025-.744.037-1.118.035-.41-.006-.825-.035-1.204-.079a7.787 7.787 0 0 1-.056-1.153c.002-.247.02-.507.043-.737.387.044.79.056 1.209.056h.259c.314 0 .632.012.956-.012.025.218.044.45.046.682zm-.159-1.355c-.367.026-.728.03-1.094.026-.386-.004-.759-.03-1.119-.071.15-.782.398-1.424.644-1.934.154-.02.311-.033.471-.033.106 0 .21.008.313.016.301.521.607 1.186.785 1.996zM4.188 7.101a8.58 8.58 0 0 0-.471 1.613 12.649 12.649 0 0 1-1.223-.281 3.7 3.7 0 0 1 1.694-1.332zM2.141 9.063c.44.131.932.254 1.478.346a8.697 8.697 0 0 0-.05.81c-.004.342.021.694.063 1.051a12.757 12.757 0 0 1-1.788-.467c-.007-.086-.014-.172-.014-.26a3.7 3.7 0 0 1 .311-1.48zm1.606 2.939c.132.673.349 1.359.631 2.053a3.706 3.706 0 0 1-2.396-2.468c.513.157 1.101.309 1.765.415zm1.456 2.22a11.03 11.03 0 0 1-.725-2.124 11.327 11.327 0 0 0 1.304.061c.224 0 .45-.006.678-.018a13.596 13.596 0 0 1-.87 2.095c-.021.001-.041.004-.063.004a4.306 4.306 0 0 1-.324-.018zm1.214-.095c.35-.737.62-1.424.795-2.054a8.165 8.165 0 0 0 1.856-.472 3.7 3.7 0 0 1-2.651 2.526zm2.794-3.344a7.525 7.525 0 0 1-1.831.555c.07-.393.108-.768.104-1.119a7.64 7.64 0 0 0-.049-.743 8.07 8.07 0 0 0 1.489-.388c.191.445.298.938.298 1.455.001.08-.007.16-.011.24z" id="color_x5F_importance"/><g id="icon_x5F_fg"><path class="st4" d="M5.51 5A5.5 5.5 0 0 1 11 10.5c0 .901-.221 1.749-.606 2.5H14V5H5.51zM5.49 5H2v1.256A5.479 5.479 0 0 1 5.49 5z"/><g><path class="st4" d="M3.569 10.219a8.74 8.74 0 0 1 .05-.811 12.504 12.504 0 0 1-1.478-.345c-.198.455-.31.955-.31 1.481 0 .088.007.174.014.26.5.168 1.097.341 1.788.467a8.245 8.245 0 0 1-.064-1.052zM4.188 7.101a3.7 3.7 0 0 0-1.694 1.332c.372.105.779.202 1.223.281a8.39 8.39 0 0 1 .471-1.613zM1.982 11.587a3.706 3.706 0 0 0 2.396 2.468 11.05 11.05 0 0 1-.631-2.053 12.988 12.988 0 0 1-1.765-.415zM5.531 11.457c.374.002.742-.01 1.118-.035.091-.43.139-.836.135-1.208a6.56 6.56 0 0 0-.046-.683c-.324.024-.642.012-.956.012h-.259c-.419 0-.822-.012-1.209-.056-.024.23-.042.49-.043.737-.004.375.002.762.056 1.153.379.045.794.074 1.204.08zM6.625 8.859a6.951 6.951 0 0 0-.786-1.997 3.976 3.976 0 0 0-.312-.015c-.16 0-.317.014-.471.033a7.803 7.803 0 0 0-.644 1.934c.359.041.733.067 1.119.071.366.004.727 0 1.094-.026zM7.485 10.219c.004.352-.034.727-.104 1.119a7.538 7.538 0 0 0 1.831-.555c.004-.08.012-.16.012-.24 0-.518-.107-1.01-.298-1.455a8.293 8.293 0 0 1-1.491.388c.025.24.047.484.05.743zM5.782 12.158c-.085 0-.173 0-.259-.002a10.988 10.988 0 0 1-1.045-.059c.154.694.402 1.407.725 2.124.107.01.214.018.324.018.021 0 .041-.003.063-.004.383-.76.674-1.457.87-2.095-.228.012-.455.018-.678.018zM6.736 7.053c.235.492.451 1.063.589 1.725a7.14 7.14 0 0 0 1.255-.319 3.707 3.707 0 0 0-1.844-1.406zM6.417 14.127a3.702 3.702 0 0 0 2.651-2.525 8.146 8.146 0 0 1-1.856.471c-.174.63-.445 1.317-.795 2.054z"/></g></g></svg>