<svg xmlns="http://www.w3.org/2000/svg" viewBox="0 0 16 16"><style>.st0{opacity:0}.st0,.st1{fill:#f6f6f6}.st2{fill:#424242}.st3{fill:#879636}.st4{fill:#f0eff1}</style><g id="outline"><path class="st0" d="M0 0h16v16H0z"/><path class="st1" d="M16 15h-5.586l-1 1H2.586l-1-1H0V1h16v14z"/></g><path class="st2" d="M15 2v12h-3.584l.584-.586V13h2V5H2v5.586l-1 1V2h14z" id="icon_x5F_bg"/><path class="st3" d="M8 15H4v-4h4v4zm1-4v1l1 1-1 1v1l2-2-2-2zm-8 2l2 2v-1l-1-1 1-1v-1l-2 2z" id="color_x5F_importance"/><path class="st4" d="M14 5v8h-2v-.414L9.414 10H2.586L2 10.586V5h12z" id="icon_x5F_fg"/></svg>