<svg xmlns="http://www.w3.org/2000/svg" viewBox="0 0 16 16"><style>.st0{opacity:0}.st0,.st1{fill:#f6f6f6}.st2{fill:#424242}.st3{fill:#c27d1a}</style><g id="outline"><path class="st0" d="M0 0h16v16H0z"/><path class="st1" d="M13.601 10l-6.249 5H6v-5H5V9l-1 1-2-2 1-1H2V4h1L2 3l2-2 1 1V1h3v1l1-1 2 2-1 1h1v3h-1l.598.598L13.601 10z"/></g><path class="st2" d="M12 10l-5 4V6l5 4z" id="icon_x5F_bg"/><path class="st3" d="M7 3.571c-.161-.042-.326-.071-.5-.071s-.339.029-.5.071V2h1v1.571zm1.218.919l1.111-1.111-.708-.708-1.11 1.111c.292.173.534.415.707.708zM8.601 6H10V5H8.429c.042.16.071.326.071.5 0 .131-.027.254-.054.376L8.601 6zm-4.93-2.621L4.782 4.49c.173-.292.415-.535.707-.707l-1.11-1.111-.708.707zM4.5 5.5c0-.174.029-.34.071-.5H3v1h1.571a1.96 1.96 0 0 1-.071-.5zm.282 1.01L3.671 7.621l.708.707 1.11-1.111a1.995 1.995 0 0 1-.707-.707z" id="color_x5F_importance"/></svg>