<svg xmlns="http://www.w3.org/2000/svg" viewBox="0 0 16 16"><style>.icon-canvas-transparent{opacity:0;fill:#f6f6f6}.icon-vs-out{fill:#f6f6f6}.icon-vs-bg{fill:#424242}.icon-vs-fg{fill:#f0eff1}</style><path class="icon-canvas-transparent" d="M16 16H0V0h16v16z" id="canvas"/><path class="icon-vs-out" d="M0 16V3h2V0h14v13h-2v3H0z" id="outline"/><path class="icon-vs-bg" d="M15 1H3v3H1v11h12v-3h2V1zm-3 13H2V6h1v6h9v2zm0-3H4V6h8v5zm2 0h-1V4H4V3h10v8zM5 9V8h6v1H5z" id="iconBg"/><g id="iconFg"><path class="icon-vs-fg" d="M2 6h1v6h9v2H2V6zm2-3v1h9v7h1V3H4zm8 3v5H4V6h8zm-1 2H5v1h6V8z"/></g></svg>