<svg xmlns="http://www.w3.org/2000/svg" viewBox="0 0 16 16"><style>.st0{opacity:0}.st0,.st1{fill:#f6f6f6}.st2{fill:#424242}.st3{fill:#f0eff1}.st4{fill:#e51400}.st5{fill:#fff}</style><g id="outline"><path class="st0" d="M0 0h16v16H0z"/><path class="st1" d="M2 0v3H0v13h14v-.76A4.497 4.497 0 0 0 15.725 13H16V0H2z"/></g><g id="icon_x5F_bg"><path class="st2" d="M5 8v1h2.76a4.5 4.5 0 0 1 .943-1H5z"/><path class="st2" d="M7.76 14H2V6h1v6h4.051c-.019-.166-.051-.329-.051-.5s.032-.334.05-.5H4V6h8v1.05c.347.039.682.112 1 .225V4H4V3h10v4.76a4.5 4.5 0 0 1 1 .943V1H3v3H1v11h7.704a4.527 4.527 0 0 1-.944-1z"/></g><path class="st3" d="M12.207 11.5l1.147 1.146-.707.707-1.147-1.146-1.146 1.147-.707-.707 1.147-1.146-1.147-1.146.707-.707 1.146 1.147 1.146-1.147.707.707-1.146 1.145zM13 7.275a4.51 4.51 0 0 1 1 .484V3H4v1h9v3.275zM7.76 9H5V8h3.704c.77-.616 1.734-1 2.796-1 .171 0 .334.032.5.05V6H4v5h3.051a4.476 4.476 0 0 1 .709-2zm-.709 3H3V6H2v8h5.76a4.476 4.476 0 0 1-.709-2z" id="icon_x5F_fg"/><path class="st4" d="M11.5 8a3.5 3.5 0 1 0 0 7 3.5 3.5 0 0 0 0-7zm1.854 4.646l-.707.707-1.147-1.146-1.146 1.147-.707-.707 1.147-1.146-1.147-1.146.707-.707 1.146 1.147 1.146-1.147.707.707-1.146 1.145 1.147 1.146z" id="not_x5F_bg"/><path class="st5" d="M12.207 11.5l1.147 1.146-.708.708-1.146-1.147-1.146 1.147-.708-.708 1.147-1.146-1.147-1.146.708-.708 1.146 1.147 1.146-1.147.708.708z" id="not_x5F_fg"/></svg>