<svg xmlns="http://www.w3.org/2000/svg" viewBox="0 0 16 16"><style>.icon-canvas-transparent{opacity:0;fill:#f6f6f6}.icon-vs-out{fill:#f6f6f6}.icon-vs-bg{fill:#424242}.icon-vs-fg{fill:#f0eff1}.icon-vs-action-red{fill:#a1260d}</style><path class="icon-canvas-transparent" d="M16 16H0V0h16v16z" id="canvas"/><path class="icon-vs-out" d="M2 0v3H0v13h11l-.232-.232 1.263-1.263L13.525 16h.949L16 14.475v-.949l-1.495-1.495 1.263-1.263L16 11V0H2zm6 13h.586l-.293.293L8 13z" id="outline"/><path class="icon-vs-bg" d="M15 1v7.586l-1-1V3H4v1h9v4.586l-.97.97-.03-.031V6H4v5h4.526l1 1H3V6H2v8h5.586l1 1H1V4h2V1h12zm-4 7.525V8h-.525l.525.525zM7 8H5v1h3.647l1-1H7z" id="iconBg"/><path class="icon-vs-fg" d="M8.525 11H4V6h8v3.526l-1-1V8h-.525l-.414-.414L9.646 8H5v1h3.646l-1.061 1.061.94.939zM13 6v2.586l1-1V3H4v1h9v2zm-3.475 6H3V6H2v8h5.586l1.97-1.97-.031-.03z" id="iconFg"/><path class="icon-vs-action-red" d="M13.091 12.03l1.97 1.97L14 15.061l-1.97-1.97-1.97 1.97L9 14l1.97-1.97L9 10.061 10.061 9l1.97 1.97L14 9l1.061 1.061-1.97 1.969z" id="colorAction"/></svg>