<svg xmlns="http://www.w3.org/2000/svg" viewBox="0 0 16 16"><style>.st0{opacity:0}.st0,.st1{fill:#f6f6f6}.st2{fill:#424242}.st3{fill:#f0eff1}.st4{fill:#fc0}</style><g id="outline"><path class="st0" d="M0 0h16v16H0z"/><path class="st1" d="M0 16V3h2V0h14v14l-1 2z"/></g><path class="st2" d="M7 14l.5 1H1V4h2V1h12v11l-1-2V3H4v1h9v4l-.5-1H12V6H4v5h4.5L8 12H3V6H2v8h5zM5 8v1h4.5l.5-1H5z" id="icon_x5F_bg"/><path class="st3" d="M14 10l-1-2V4H4V3h10v7zM3 12V6H2v8h5l1-2H3zm2-3V8h5l.5-1H12V6H4v5h4.5l1-2H5z" id="icon_x5F_fg"/><path class="st4" d="M11.891 8.016h-.781l-3.016 6 .515.984h5.766l.484-1-2.968-5.984zM12 14h-1v-1h1v1zm0-2h-1v-2h1v2z" id="not_x5F_bg"/><path d="M11 13h1v1h-1v-1zm0-1h1v-2h-1v2z" id="not_x5F_fg"/></svg>