<svg xmlns="http://www.w3.org/2000/svg" viewBox="0 0 16 16"><style>.icon-canvas-transparent{opacity:0;fill:#f6f6f6}.icon-vs-out{fill:#f6f6f6}.icon-vs-fg{fill:#f0eff1}.icon-folder{fill:#dcb67a}.icon-vs-bg{fill:#424242}</style><path class="icon-canvas-transparent" d="M0 0h16v16H0V0z" id="canvas"/><path class="icon-vs-out" d="M16 6v7h-1.935l-.388.969H13V16H6v-2.031H2s-.86-.022-1.43-.566c-.343-.332-.57-.817-.57-1.434v-9c0-1.303 1.005-2 2-2h7.116l1 2H13c.97 0 2 .701 2 2V6h1z" id="outline"/><path class="icon-vs-fg" d="M8 12h3v2H8v-2zm3-3v1h1v1h2V9h-3z" id="iconFg"/><g id="iconBg"><path class="icon-folder" d="M4 8h5v1H6v4H2l2-5zm9-4H9.5l-1-2H2S1 2 1 3v9c0 .97.94.984.997.984H2V3h6l1 2h4v1h1V5c0-1-1.236-1-1-1z"/><path class="icon-vs-bg" d="M15 7h-5v3H7v5h5v-3h3V7zm-4 7H8v-2h3v2zm3-3h-2v-1h-1V9h3v2z"/></g></svg>