<svg xmlns="http://www.w3.org/2000/svg" viewBox="0 0 16 16"><style>.st0,.st1{opacity:0;fill:#f6f6f6}.st1{fill:none}.st2{fill:#f6f6f6}.st3{fill:#424242}.st4{fill:#f0eff1}</style><g id="outline"><path class="st0" d="M0 0h16v16H0z"/><path class="st1" d="M0 0h16v16H0z"/><path class="st2" d="M16 0H6v3H4v5.539l-.052.025a3.84 3.84 0 0 0-.829.66c-.043.045-.078.095-.119.142V8H0v8h3v-1.234c.053.057.094.123.15.177.356.339.788.606 1.287.793A4.45 4.45 0 0 0 5.988 16c.241 0 .486-.008.671-.028a8.06 8.06 0 0 0 .552-.071c.179-.034.389-.073.537-.121.071-.024.164-.047.252-.069V16h4v-4h2V9h2V0z"/></g><g id="icon_x5F_bg"><path class="st3" d="M7 1v3H5v4.137a4.332 4.332 0 0 1 1-.131V6h1v2h5v3h1V8h2V1H7zm5 5.999L11.999 7H8V6h4v.999zM14 7h-1V4H8V3h6v4zM1 9v6h1.5v-1H2v-4h.5V9H2z"/><path class="st3" d="M11 9v6H9.5v-1h.5v-4h-.5V9h.5zM8.771 10.512a2.43 2.43 0 0 0-.627-.818 2.813 2.813 0 0 0-.922-.514A3.483 3.483 0 0 0 6.096 9c-.316 0-.609.037-.884.111a3.07 3.07 0 0 0-.756.314 2.81 2.81 0 0 0-.615.49c-.182.189-.334.4-.457.633A3.364 3.364 0 0 0 3 12.126c0 .434.073.83.221 1.184.146.354.354.656.619.908s.581.443.944.58a3.45 3.45 0 0 0 1.204.201 5.441 5.441 0 0 0 .992-.084 2.698 2.698 0 0 0 .593-.176v-.568c-.098.041-.201.084-.309.121a3.015 3.015 0 0 1-.75.155c-.143.018-.3.023-.468.023a2.72 2.72 0 0 1-1.005-.176 2.17 2.17 0 0 1-.751-.488 2.108 2.108 0 0 1-.471-.748 2.723 2.723 0 0 1-.162-.955c0-.362.06-.702.182-1.015.121-.314.289-.586.505-.816.217-.23.472-.412.771-.543.297-.131.623-.197.971-.197.28 0 .531.029.75.092.218.061.412.143.579.246.17.105.311.225.429.364.119.14.216.287.292.444.075.158.129.32.164.488.033.168.051.333.051.493 0 .229-.022.436-.068.617a1.727 1.727 0 0 1-.179.463.86.86 0 0 1-.257.289.532.532 0 0 1-.303.1.349.349 0 0 1-.143-.031.241.241 0 0 1-.11-.103.598.598 0 0 1-.072-.203 1.717 1.717 0 0 1-.026-.328c0-.043.006-.113.012-.217.006-.101.018-.221.027-.354l.037-.429c.012-.151.025-.297.038-.432l.032-.364c.01-.106.016-.183.018-.229h-.613l-.036.399h-.013a.558.558 0 0 0-.246-.331.823.823 0 0 0-.206-.094.926.926 0 0 0-.246-.032c-.224 0-.431.048-.615.144-.188.097-.346.23-.48.4a1.85 1.85 0 0 0-.311.603 2.414 2.414 0 0 0-.112.755c0 .229.029.43.089.602s.141.314.24.43c.103.115.22.201.356.256a1.074 1.074 0 0 0 .76.031.96.96 0 0 0 .287-.154c.09-.07.166-.154.232-.254.067-.1.12-.215.158-.346h.016c0 .25.068.449.207.594.137.146.333.221.591.221.195 0 .387-.043.575-.133a1.52 1.52 0 0 0 .441-.326c.021-.023.046-.04.067-.064.147-.174.27-.389.362-.643.093-.259.14-.556.14-.895 0-.404-.078-.767-.229-1.089zM6.564 12.21c-.036.186-.09.344-.163.479a.943.943 0 0 1-.272.322.645.645 0 0 1-.381.117.556.556 0 0 1-.422-.207.775.775 0 0 1-.132-.26 1.318 1.318 0 0 1-.048-.365c0-.158.019-.32.054-.485a1.67 1.67 0 0 1 .167-.451c.073-.135.167-.242.277-.328a.61.61 0 0 1 .388-.129c.082 0 .157.016.228.043a.552.552 0 0 1 .311.35.99.99 0 0 1 .047.322c-.001.21-.019.408-.054.592z"/></g><g id="icon_x5F_fg"><path class="st4" d="M8 3v1h5v3h1V3z"/><path class="st4" d="M12 6.999V6H8v1h3.999zM6.096 8c.506 0 .993.078 1.448.233.16.054.307.13.456.202V8H7V6H6v2.006c.032-.001.063-.006.096-.006z"/></g></svg>