<svg xmlns="http://www.w3.org/2000/svg" viewBox="0 0 16 16"><style>.st0{opacity:0}.st0,.st1{fill:#f6f6f6}.st2{fill:#424242}.st3{fill:#00539c}.st4{fill:#f0eff1}</style><g id="outline"><path class="st0" d="M0 0h16v16H0z"/><path class="st1" d="M0 16V3h2V0h14v13h-2v3z"/></g><path class="st2" d="M2 4H1v3l1 1V4zm-1 9v2h2l-2-2zM3 1v3h1V3h10v8h-1V4H6v2h6v5H8v1h4v2H6l-1 1h8v-3h2V1H3z" id="icon_x5F_bg"/><path class="st3" d="M7 9v2l-3 3-3-3V9l2 2V5h2v6z" id="color_x5F_action"/><path class="st4" d="M14 3v8h-1V4H4V3h10zM6 8l2-2H6v2zm6 6v-2H8l-2 2h6zm0-3V6H8v5h4z" id="icon_x5F_fg"/></svg>