<svg xmlns="http://www.w3.org/2000/svg" viewBox="0 0 16 16"><style>.st0{opacity:0}.st0,.st1{fill:#f6f6f6}.st2{fill:#424242}.st3{fill:#f0eff1}</style><g id="outline"><path class="st0" d="M0 0h16v16H0z"/><path class="st1" d="M11.5 2H4v2H3v3h1v1H2v2H0v3h4.586L6 14.414l3.764-3.764c.534.225 1.121.35 1.736.35 2.481 0 4.5-2.019 4.5-4.5S13.981 2 11.5 2z"/></g><path class="st2" d="M7.762 4H5V3h3.706a4.55 4.55 0 0 0-.944 1zM4 5v1h3.051c.039-.347.112-.681.225-1H4zm1 2v1h2.276a4.485 4.485 0 0 1-.225-1H5zM3 9v1h2.586l1-1H3zm-2 2v1h2.586l1-1H1zm14-4.5a3.5 3.5 0 0 1-3.5 3.5c-.71 0-1.369-.215-1.921-.578L6 13l-1-1 3.579-3.578A3.48 3.48 0 0 1 8 6.5a3.5 3.5 0 1 1 7 0zm-1 0a2.5 2.5 0 1 0-5 0 2.5 2.5 0 0 0 5 0z" id="icon_x5F_bg"/><circle class="st3" cx="11.5" cy="6.5" r="2.5" id="icon_x5F_fg"/></svg>