<svg xmlns="http://www.w3.org/2000/svg" viewBox="0 0 16 16"><style>.st0{opacity:0;fill:#00539c}.st1{fill:#f6f6f6}.st2{fill:#424242}.st3{fill:#00539c}</style><g id="outline"><path class="st0" d="M0 0h16v16H0z"/><path class="st1" d="M14.837 7.792l-.268-1.13-3.403 1.365.136.796c.02.114.038.229.038.347 0 1.279-1.04 2.32-2.32 2.32a2.323 2.323 0 0 1-2.321-2.32c0-.921.54-1.719 1.321-2.093v2.804l5.891-4.858L8.148.266 8.414 0H2.382L0 4.764V6h1.882L.375 9.042h2l.746-.748c-.043.288-.08.578-.08.877 0 3.297 2.682 5.979 5.979 5.979S15 12.467 15 9.17c0-.457-.055-.921-.163-1.378zM8.021.394V3H5.414L8.021.394z"/></g><g id="icon_x5F_bg"><path class="st2" d="M3 1L1 5h2.5L2 8l4-4H3l3-3z"/><path class="st3" d="M13.864 8.023l-1.575.632c.029.168.052.34.052.516a3.321 3.321 0 0 1-6.641 0 3.322 3.322 0 0 1 3.321-3.319v1.91l3.32-2.738-3.32-2.74v1.91c-.911 0-1.754.263-2.489.69L4.731 6.683a4.927 4.927 0 0 0-.689 2.487 4.979 4.979 0 1 0 9.822-1.147z"/></g></svg>