<svg xmlns="http://www.w3.org/2000/svg" viewBox="0 0 16 16"><style>.st0{opacity:0}.st0,.st1{fill:#f6f6f6}.st2{fill:#424242}.st3{fill:#00539c}.st4{fill:#f0eff1}</style><g id="outline"><path class="st0" d="M0 0h16v16H0z"/><path class="st1" d="M14.849 3.924a2.73 2.73 0 0 0-.482-.945 2.43 2.43 0 0 0-.876-.688 2.736 2.736 0 0 0-1.19-.249 3.18 3.18 0 0 0-.372.022V0H9v1H5.479A2.51 2.51 0 0 0 3.01 3.145L3 3.216v.37l-1-1v4.328L3.086 8H1v8h9V8H5.914L7 6.914V4h2v3.908h2.402l.072.018c.196.049.408.074.628.074.446 0 .856-.082 1.217-.243.362-.162.678-.394.943-.698.241-.282.427-.619.552-1.002.113-.35.171-.731.171-1.134 0-.347-.046-.683-.136-.999z"/></g><g id="icon_x5F_bg"><path class="st2" d="M2 9v6h7V9H2zm5 2.011c0-.092-.268-.166-.414-.222a1.333 1.333 0 0 0-.481-.084c-.17 0-.33.029-.479.088a1.078 1.078 0 0 0-.387.256c-.107.111-.193.25-.256.414s-.094.352-.094.563c0 .197.027.375.082.533.055.157.135.291.238.4.104.109.229.194.377.254a1.321 1.321 0 0 0 .972-.005c.079-.028.158-.063.233-.101.076-.039.209-.081.209-.126v.773c0 .077-.293.139-.469.186a2.556 2.556 0 0 1-.626.068c-.293 0-.557-.048-.792-.144a1.733 1.733 0 0 1-.6-.399 1.75 1.75 0 0 1-.381-.604A2.132 2.132 0 0 1 4 12.104c0-.318.048-.606.145-.866.096-.258.234-.48.414-.662.18-.184.398-.324.654-.426.256-.1.543-.15.861-.15a2.278 2.278 0 0 1 .765.128c.063.02.161.044.161.065v.818zM13.888 4.201a1.72 1.72 0 0 0-.303-.599 1.467 1.467 0 0 0-.525-.409 1.752 1.752 0 0 0-.76-.151c-.163 0-.313.017-.447.052a1.477 1.477 0 0 0-.669.363 1.862 1.862 0 0 0-.24.282h-.016V1H10v5.908h.928v-.475h.016a1.463 1.463 0 0 0 .455.406c.095.05.201.09.318.117.115.029.244.044.385.044.306 0 .575-.052.81-.156.233-.104.43-.25.591-.435a1.91 1.91 0 0 0 .36-.661c.082-.253.122-.529.122-.826a2.61 2.61 0 0 0-.097-.721zm-.936 1.316a1.179 1.179 0 0 1-.224.437.917.917 0 0 1-.352.263 1.196 1.196 0 0 1-.862.014.918.918 0 0 1-.52-.506.92.92 0 0 1-.075-.372v-.497c0-.167.027-.319.08-.455a1.02 1.02 0 0 1 .565-.581c.132-.053.278-.081.439-.081.163 0 .308.028.436.081a.875.875 0 0 1 .322.233c.089.103.155.226.201.369.045.144.067.305.067.485 0 .23-.024.433-.077.61z"/></g><path class="st3" d="M5.479 3H9V2H5.479C4.724 2 4.104 2.562 4 3.288V6L3 5v1.5L4.5 8 6 6.5V5L5 6V3.394A.494.494 0 0 1 5.479 3z" id="color_x5F_importance"/><path class="st4" d="M6.623 10.064a3.426 3.426 0 0 0-.257-.047A2.48 2.48 0 0 0 6.074 10c-.318 0-.605.05-.861.15a1.854 1.854 0 0 0-.654.426c-.18.183-.318.404-.414.662-.097.26-.145.548-.145.866 0 .271.044.523.133.756a1.71 1.71 0 0 0 .981 1.003c.234.096.498.144.791.144.24 0 .451-.023.627-.068.175-.046.468-.108.468-.185v-.773c0 .045-.133.087-.208.125a2.169 2.169 0 0 1-.232.101 1.736 1.736 0 0 1-.238.069 1.325 1.325 0 0 1-.736-.064 1.055 1.055 0 0 1-.615-.654 1.616 1.616 0 0 1-.082-.533c0-.211.031-.398.094-.563s.148-.303.256-.414c.109-.113.238-.197.387-.256a1.29 1.29 0 0 1 .479-.088c.172 0 .334.027.482.084.145.057.413.131.413.223v-.817c0-.022-.098-.045-.161-.066a2.163 2.163 0 0 0-.216-.064z" id="icon_x5F_fg"/></svg>