<svg xmlns="http://www.w3.org/2000/svg" viewBox="0 0 16 16"><style>.st0{opacity:0}.st0,.st1{fill:#f6f6f6}.st2{fill:#424242}</style><g id="outline"><path class="st0" d="M0 0h16v16H0z"/><path class="st1" d="M11.903 8.917a3.03 3.03 0 0 0-.344-.909 2.188 2.188 0 0 0-.713-.748 2.022 2.022 0 0 0-1.116-.314h-.033V5H7v2.365a2.12 2.12 0 0 0-.423-.227 2.624 2.624 0 0 0-.979-.173c-.173 0-.351.016-.551.05-.162.03-.319.066-.469.11a4.619 4.619 0 0 0-.429.155 2.407 2.407 0 0 0-.374.204l-.43.299v1.808c-.1.157-.179.328-.235.511a2.558 2.558 0 0 0 .02 1.546c.094.27.237.511.429.715.193.208.433.37.707.479.257.105.545.158.854.158.23 0 .449-.031.653-.094h2.189v-.02h1.015c.188.063.392.094.606.094.417 0 .798-.104 1.124-.303.309-.186.568-.442.771-.762.181-.281.316-.611.404-.984.078-.334.118-.695.118-1.07 0-.321-.032-.638-.097-.944z"/><path class="st1" d="M2 3H0v4h5V3H3zM14 3h-3v4h5V3z"/></g><g id="icon_x5F_bg"><path class="st2" d="M1 4h1v2H1zM3 4h1v2H3zM12 4h1v2h-1zM14 4h1v2h-1zM6.63 8.361a1.058 1.058 0 0 0-.424-.294 1.643 1.643 0 0 0-.608-.102c-.119 0-.241.012-.368.033a3.649 3.649 0 0 0-.363.085 2.92 2.92 0 0 0-.31.11 1.313 1.313 0 0 0-.212.114v.768c.158-.132.341-.235.544-.313.204-.078.413-.117.627-.117.213 0 .377.063.494.186.116.125.174.324.174.6l-1.03.154c-.205.026-.38.077-.526.151a1.08 1.08 0 0 0-.562.66 1.561 1.561 0 0 0 .008.924.945.945 0 0 0 .568.595c.139.058.297.085.478.085.229 0 .431-.053.603-.16a1.3 1.3 0 0 0 .439-.463h.014v.529h.785V9.469c0-.238-.027-.451-.083-.637a1.27 1.27 0 0 0-.248-.471zm-.446 2.02c0 .131-.021.252-.059.365a.897.897 0 0 1-.165.295.76.76 0 0 1-.593.271.682.682 0 0 1-.242-.041.489.489 0 0 1-.302-.285.588.588 0 0 1-.041-.219.96.96 0 0 1 .027-.232.424.424 0 0 1 .098-.18.541.541 0 0 1 .195-.133c.083-.033.189-.061.32-.078l.761-.109v.346zM8.71 8.656h-.013V6H8v5.887h.697v-.484h.013c.044.082.095.158.151.229.057.07.119.133.191.185a.835.835 0 0 0 .238.121.932.932 0 0 0 .292.043c.231 0 .434-.053.609-.16.176-.106.323-.254.443-.443a2.18 2.18 0 0 0 .273-.672c.062-.261.093-.54.093-.845a3.54 3.54 0 0 0-.074-.734 2.047 2.047 0 0 0-.228-.611 1.203 1.203 0 0 0-.394-.416 1.03 1.03 0 0 0-.573-.154c-.123 0-.234.018-.336.052a1.046 1.046 0 0 0-.279.147 1.153 1.153 0 0 0-.225.222 2.022 2.022 0 0 0-.181.289zm.467.082c.1-.055.21-.082.331-.082a.646.646 0 0 1 .571.32c.066.105.116.23.15.377.034.146.052.311.052.494 0 .234-.02.441-.06.621-.039.18-.095.328-.168.445a.747.747 0 0 1-.264.266.677.677 0 0 1-.651.016.74.74 0 0 1-.237-.207.983.983 0 0 1-.154-.307 1.257 1.257 0 0 1-.057-.381v-.505c0-.17.021-.326.061-.465.04-.139.096-.258.168-.359a.782.782 0 0 1 .258-.233z"/></g></svg>