<svg xmlns="http://www.w3.org/2000/svg" width="16" height="16"><style type="text/css">.icon-canvas-transparent{opacity:0;fill:#F6F6F6;} .icon-css-red{fill:#BD1E2D;} .icon-vs-out{fill:#F6F6F6;}</style><path class="icon-canvas-transparent" d="M16 16h-16v-16h16v16z" id="canvas"/><path class="icon-vs-out" d="M9.289 13l-1.41-2.236v2.236h-3.879v-10h3.979c3.644 0 4.038 2.221 4.038 3.176 0 .402-.067.781-.199 1.128-.132.346-.318.66-.555.935-.108.126-.229.246-.358.356l.035.044.318.445 2.611 3.916h-4.58z" id="outline"/><g id="iconBg"><path class="icon-css-red" d="M12 12h-2.159l-1.297-2.059-.279-.418c-.09-.123-.18-.228-.271-.315-.092-.088-.186-.155-.285-.201-.099-.046-.207-.07-.323-.07h-.507v3.063h-1.879v-8h2.979c2.025 0 3.037.725 3.037 2.176 0 .279-.044.537-.134.773-.09.236-.215.449-.378.639s-.36.353-.591.491c-.23.137-.487.245-.77.323v.022c.124.037.244.098.361.181.116.084.228.182.337.293.109.112.212.232.312.36l.27.377 1.577 2.365zm-5.121-6.65v2.226h.815c.403 0 .727-.112.972-.335.248-.227.372-.508.372-.842 0-.699-.436-1.049-1.309-1.049h-.85z"/></g></svg>