<svg xmlns="http://www.w3.org/2000/svg" width="16" height="16"><style type="text/css">.icon-canvas-transparent{opacity:0;fill:#F6F6F6;} .icon-vs-out{fill:#F6F6F6;} .icon-vs-fg{fill:#F0EFF1;} .icon-vs-bg{fill:#424242;} .icon-css-red{fill:#BD1E2D;}</style><path class="icon-canvas-transparent" d="M16 16h-16v-16h16v16z" id="canvas"/><path class="icon-vs-out" d="M0 15v-14h16v14h-16z" id="outline"/><g id="iconBg"><path class="icon-vs-fg" d="M2 13v-10h12v10h-12z"/><path class="icon-css-red" d="M1 2v12h14v-12h-14zm13 11h-12v-10h12v10z"/><path class="icon-vs-bg" d="M10.027 11l-1.223-1.955c-.102-.173-.201-.321-.296-.443-.093-.118-.188-.215-.285-.289-.092-.071-.193-.124-.301-.157-.109-.034-.234-.05-.373-.05h-.557v2.894h-.992v-7h2.129c.305 0 .591.039.851.116.262.077.493.197.689.357.196.162.35.364.461.601.11.238.165.52.165.836 0 .245-.037.476-.112.685-.076.209-.184.397-.321.559-.138.163-.306.304-.5.418-.135.08-.284.148-.444.203l.126.083c.09.069.174.149.255.244l.232.31.251.394 1.37 2.194h-1.125zm-2.05-3.811c.188 0 .363-.028.519-.084.157-.056.294-.136.407-.239.113-.103.203-.23.266-.379.064-.151.096-.323.096-.51 0-.338-.104-.593-.319-.779-.217-.187-.54-.282-.959-.282h-.995v2.273h.985z"/></g></svg>