<svg xmlns="http://www.w3.org/2000/svg" viewBox="0 0 16 16"><style>.st0{opacity:0}.st0,.st1{fill:#f6f6f6}.st2{fill:#424242}.st3{fill:#f0eff1}</style><g id="outline"><path class="st0" d="M0 0h16v16H0z"/><path class="st1" d="M1 0h15v15H1z"/></g><g id="icon_x5F_bg"><path class="st2" d="M2 1v13h13V1H2zm12 12H3V2h11v11z"/><path class="st2" d="M10 5h1v1h-1zM12 3h1v1h-1zM6 5h1v1H6zM4 3h1v1H4zM10 9h1v1h-1zM12 11h1v1h-1zM6 9h1v1H6zM4 11h1v1H4zM8 3h1v1H8zM4 7h1v1H4zM12 7h1v1h-1zM8 11h1v1H8z"/><path class="st2" d="M8 8v2h1V8h2V7H9V5H8v2H6v1h1z"/></g><path class="st3" d="M3 2v11h11V2H3zm5 1h1v1H8V3zM6 5h1v1H6V5zm-1 7H4v-1h1v1zm0-4H4V7h1v1zm0-4H4V3h1v1zm2 6H6V9h1v1zm2 2H8v-1h1v1zm2-2h-1V9h1v1zm0-2H9v2H8V8H6V7h2V5h1v2h2v1zm0-2h-1V5h1v1zm2 6h-1v-1h1v1zm0-4h-1V7h1v1zm0-4h-1V3h1v1z" id="icon_x5F_fg"/></svg>