<svg xmlns="http://www.w3.org/2000/svg" viewBox="0 0 16 16"><style>.st0{opacity:0}.st0,.st1{fill:#f6f6f6}.st2{fill:#424242}.st3{fill:#f0eff1}</style><g id="outline"><path class="st0" d="M0 0h16v16H0z"/><path class="st1" d="M5.22 5H16V1H5.22C4.67.391 3.883 0 3 0 1.346 0 0 1.346 0 3c0 1.043.537 1.962 1.348 2.5A2.998 2.998 0 0 0 0 8c0 1.043.537 1.963 1.348 2.5A2.997 2.997 0 0 0 3 16c.883 0 1.67-.391 2.22-1H16v-4H5.22a3.034 3.034 0 0 0-.567-.5c.211-.141.397-.312.567-.5H16V6H5.22a3.04 3.04 0 0 0-.568-.5A3.04 3.04 0 0 0 5.22 5z"/></g><path class="st2" d="M15 4H7V2h8v2zm0 8H7v2h8v-2zm0-5H7v2h8V7zM3 1a2 2 0 1 0 .001 4.001A2 2 0 0 0 3 1zm2 7a2 2 0 1 1-4.001-.001A2 2 0 0 1 5 8zM4 8a1 1 0 1 0-2 0 1 1 0 0 0 2 0zm1 5a2 2 0 1 1-4.001-.001A2 2 0 0 1 5 13zm-1 0a1 1 0 1 0-2 0 1 1 0 0 0 2 0z" id="icon_x5F_bg"/><path class="st3" d="M4 8a1 1 0 1 1-2 0 1 1 0 0 1 2 0zm-1 4a1 1 0 1 0 0 2 1 1 0 1 0 0-2z" id="icon_x5F_fg"/></svg>