<svg xmlns="http://www.w3.org/2000/svg" viewBox="0 0 16 16"><style>.icon-canvas-transparent{opacity:0;fill:#f6f6f6}.icon-vs-out{fill:#f6f6f6}.icon-vs-bg{fill:#424242}.icon-vs-action-green{fill:#388a34}</style><path class="icon-canvas-transparent" d="M16 16H0V0h16v16z" id="canvas"/><path class="icon-vs-out" d="M16 5v11H3v-6h-.618L0 5.236V4h3.618L4 4.764 6.382 0H10v1.236L8.118 5H16z" id="outline"/><path class="icon-vs-bg" d="M4 14h11v1H4v-1zm2-4.764L5.618 10h-.951L4 10.5 6 12V9.236zM13 12l2-1.5L13 9v3zM7.618 6l-.5 1H15V6H7.618zm3.685 6.97v-.894H9.267v-.02l1.032-.895c.191-.164.353-.321.484-.473.133-.151.24-.3.322-.442.083-.144.142-.285.179-.427.036-.141.054-.284.054-.431 0-.192-.031-.374-.096-.544a1.172 1.172 0 0 0-.296-.442 1.404 1.404 0 0 0-.505-.295A2.205 2.205 0 0 0 9.719 8c-.155 0-.304.012-.448.036a3.093 3.093 0 0 0-.756.226 2.464 2.464 0 0 0-.267.144v.95a2.74 2.74 0 0 1 .263-.193 2.17 2.17 0 0 1 .298-.16c.105-.046.213-.083.325-.109.112-.027.227-.04.346-.04.123 0 .232.017.327.049a.604.604 0 0 1 .379.352.762.762 0 0 1 .049.274.981.981 0 0 1-.17.559 2.326 2.326 0 0 1-.246.317c-.104.114-.23.242-.382.383L8 12.131v.839h3.303z" id="iconBg"/><path class="icon-vs-action-green" d="M9 1L5 9H3L1 5h2l1 2 3-6h2z" id="colorAction"/></svg>