<svg xmlns="http://www.w3.org/2000/svg" viewBox="0 0 16 16"><style>.st0{opacity:0}.st0,.st1{fill:#f6f6f6}.st2{fill:#424242}</style><g id="outline"><path class="st0" d="M0 0h16v16H0z"/><path class="st1" d="M14.334 3l-1.12 3-2.595-.014v-.001H7.851L6.731 3H5.334l-1.12 2.985H1.443L1 7.462l2.076 1.557L2.031 12l1 1 3-1.814 3 1.814 1-1-1.044-2.981 1.544-1.159 1.545 1.159L11.031 12l1 1L16 11V3z"/></g><path class="st2" d="M7.757 8.683L9 12l-3-2-3 2 1.244-3.317L2 7h2.876L6 4l1.126 3H10L7.757 8.683zm3.274-1.682l2.244 1.683L12.031 12 15 10.021V4.086l-1.093 2.915h-2.876z" id="icon_x5F_bg"/></svg>