<svg xmlns="http://www.w3.org/2000/svg" viewBox="0 0 16 16"><style>.st0{opacity:0;fill:#f6f6f6}.st1{fill:#424242}.st2{fill:#f6f6f6}.st3{fill:#f0eff1}</style><path class="st0" d="M0 0h16v16H0z" id="outline"/><g id="icon_x5F_bg"><path class="st1" d="M4 6h2v1H4zM5 10h4v2H5zM5 8h3v1H5zM7 6h3v1H7zM9 8h1v1H9z"/><path class="st2" d="M3.964 15C3.012 15 2 14.299 2 13V3c0-1.299 1.012-2 1.964-2h6.059L14 4.552V13c-.028.825-.593 2-2.035 2H3.964z"/><path class="st1" d="M9.641 2H3.964S3 2 3 3v10c0 1 .964 1 .964 1h8c1 0 1.036-1 1.036-1V5L9.641 2zM12 13H4V3h5v3h3v7z"/><path class="st1" d="M4 6h2v1H4zM7 6h3v1H7zM5 8h3v1H5zM9 8h1v1H9zM5 10h4v2H5z"/></g><path class="st3" d="M10 6v1H7V6h2V3H4v3h2v1H4v6h8V6h-2zM5 8h3v1H5V8zm4 4H5v-2h4v2zm1-3H9V8h1v1z" id="icon_x5F_fg"/></svg>