<svg xmlns="http://www.w3.org/2000/svg" viewBox="0 0 16 16"><style>.st0{opacity:0}.st0,.st1{fill:#f6f6f6}.st2{fill:#424242}</style><g id="outline"><path class="st0" d="M0 0h16v16H0z"/><path class="st1" d="M14.684 5.641c0-.87-.429-1.604-1.207-2.069C12.833 3.187 11.992 3 10.908 3H7v.464C6.457 3.185 5.717 3 4.701 3H1v9h3.704v-1.75L5.848 12h5.222c1.117 0 2.035-.254 2.727-.752C14.584 10.685 15 9.876 15 8.91a2.44 2.44 0 0 0-.813-1.835c.326-.418.497-.907.497-1.434z"/></g><path class="st2" d="M13.49 7.794c-.339-.307-.794-.491-1.361-.553v-.02c.453-.11.824-.308 1.116-.591.292-.283.439-.613.439-.99 0-.521-.24-.925-.719-1.211C12.484 4.144 11.799 4 10.908 4H8v6.5L6.916 8.93a5.398 5.398 0 0 0-.246-.329 3.908 3.908 0 0 0-.281-.315 2.324 2.324 0 0 0-.307-.257 1.14 1.14 0 0 0-.326-.158v-.02c.256-.069.488-.162.697-.283.21-.119.389-.264.535-.431a1.807 1.807 0 0 0 .465-1.234C7.453 4.635 6.535 4 4.701 4H2v7h1.704V8.32h.458c.105 0 .203.02.293.062.09.04.176.098.258.176.083.075.165.167.246.275.081.107.165.23.253.366L6.389 11h4.682c.906 0 1.621-.188 2.144-.564.523-.375.785-.884.785-1.526 0-.438-.17-.81-.51-1.116zm-8.168-.957c-.22.194-.514.293-.88.293h-.738V5.182h.77c.791 0 1.187.305 1.187.917a.95.95 0 0 1-.339.738zM9.8 5.162h.675c.876 0 1.314.256 1.314.771a.77.77 0 0 1-.32.651c-.215.157-.507.236-.878.236H9.8V5.162zm1.952 4.422c-.236.17-.561.254-.978.254H9.8V7.993h.985c.416 0 .74.08.973.238.232.161.349.38.349.659a.811.811 0 0 1-.355.694z" id="icon_x5F_bg"/></svg>