<svg xmlns="http://www.w3.org/2000/svg" viewBox="0 0 16 16"><style>.st0{opacity:0}.st0,.st1{fill:#f6f6f6}.st2{fill:#424242}.st3{fill:#f0eff1}</style><g id="Layer_1"><path class="st0" d="M0 0h16v16H0z"/><path class="st1" d="M0 1h16v14H0z"/><path class="st2" d="M1 14h14V2H1v12zm13-1H2V3h12v10z"/><path class="st2" d="M12.369 8.158c-.257-.232-.601-.372-1.031-.419v-.014c.344-.083.624-.233.846-.447.221-.215.332-.465.332-.75 0-.394-.182-.7-.545-.917-.363-.217-.883-.326-1.558-.326H8.21v4.924l-.821-1.19a3.76 3.76 0 0 0-.4-.488 1.646 1.646 0 0 0-.232-.194.83.83 0 0 0-.247-.12v-.015c.194-.052.37-.123.528-.214.159-.09.295-.2.405-.326a1.38 1.38 0 0 0 .353-.934c0-.961-.695-1.442-2.085-1.442H3.665v5.303h1.291v-2.03h.347c.08 0 .154.015.222.047a.67.67 0 0 1 .195.133c.063.058.125.127.187.209.061.078.124.172.191.275l.892 1.364H10.536c.687 0 1.228-.143 1.624-.428a1.35 1.35 0 0 0 .595-1.155c0-.332-.128-.614-.386-.846zm-6.187-.725c-.167.147-.39.222-.666.222h-.56V6.179h.583c.599 0 .898.231.898.695a.713.713 0 0 1-.255.559zm3.391-1.268h.512c.663 0 .995.194.995.584a.582.582 0 0 1-.242.493c-.163.119-.384.179-.665.179h-.6V6.165zm1.48 3.35c-.18.128-.425.191-.741.191h-.739V8.31h.747c.314 0 .561.061.736.18a.577.577 0 0 1 .265.5c0 .221-.09.396-.268.525z"/></g><g id="Layer_2"><path class="st3" d="M10.838 7.242a.583.583 0 0 0 .242-.493c0-.391-.332-.584-.995-.584h-.512v1.257h.6c.281-.001.502-.061.665-.18z"/><path class="st3" d="M2.068 3.282v9.694h11.841V3.282H2.068zm10.092 6.877c-.397.285-.938.428-1.624.428H6.989l-.891-1.364a4.528 4.528 0 0 0-.192-.278 1.496 1.496 0 0 0-.186-.209.69.69 0 0 0-.196-.132.493.493 0 0 0-.221-.047h-.347v2.03H3.665V5.284h2.046c1.39 0 2.085.481 2.085 1.442a1.37 1.37 0 0 1-.353.935c-.11.126-.246.236-.405.326a2.188 2.188 0 0 1-.528.215v.015a.83.83 0 0 1 .247.12c.08.055.157.12.232.194.074.073.146.154.213.239.068.085.131.168.187.249l.821 1.189V5.284h2.203c.675 0 1.194.109 1.558.326.363.217.545.523.545.917 0 .286-.111.536-.332.75a1.796 1.796 0 0 1-.846.447v.015c.43.047.774.187 1.031.419.258.231.386.514.386.846 0 .486-.198.871-.595 1.155z"/><path class="st3" d="M10.32 8.31h-.747v1.396h.738c.316 0 .562-.063.741-.191a.614.614 0 0 0 .269-.525.577.577 0 0 0-.265-.5c-.175-.12-.421-.18-.736-.18zM5.539 6.179h-.583v1.476h.56c.276 0 .499-.075.666-.222a.717.717 0 0 0 .256-.559c0-.464-.3-.695-.899-.695z"/></g></svg>