<?xml version="1.0" encoding="iso-8859-1"?>
<!-- Generator: Adobe Illustrator 21.0.0, SVG Export Plug-In . SVG Version: 6.00 Build 0)  -->
<svg version="1.1" xmlns="http://www.w3.org/2000/svg" xmlns:xlink="http://www.w3.org/1999/xlink" x="0px" y="0px"
	 viewBox="0 0 16 16" style="enable-background:new 0 0 16 16;" xml:space="preserve">
<style type="text/css">
	.icon_x002D_canvas_x002D_transparent{opacity:0;fill:#F6F6F6;}
	.icon_x002D_vs_x002D_out{fill:#F6F6F6;}
	.icon_x002D_vs_x002D_bg{fill:#424242;}
	.icon_x002D_vs_x002D_fg{fill:#F0EFF1;}
	.icon_x002D_vs_x002D_blue{fill:#1BA1E2;}
</style>
<g id="canvas">
	<path class="icon_x002D_canvas_x002D_transparent" d="M16,16H0V0h16V16z"/>
</g>
<g id="outline">
	<path class="icon_x002D_vs_x002D_out" d="M16,4v8c0,2.28-3.01,4-7,4c-0.701,0-9,0-9,0v-6c0.154-1.189,0.922-2.177,2-2.663V4
		c0-2.28,3.01-4,7-4C12.99,0,16,1.72,16,4z"/>
</g>
<g id="iconBg">
	<path class="icon_x002D_vs_x002D_bg" d="M1,15h5v-4H1V15z M3,12h1v2H3V12z M6,10H5C4.853,9.471,4.32,9,3.5,9
		C2.655,9,2.14,9.473,2,10H1c0.149-1.146,1.128-2,2.5-2C4.873,8,5.86,8.854,6,10z"/>
</g>
<g id="iconFg">
	<path class="icon_x002D_vs_x002D_fg" d="M13.997,4c0,0.815-1.948,2-5,2c-3.052,0-5-1.185-5-2s1.948-2,5-2
		C12.049,2,13.997,3.185,13.997,4z M4,12H3v2h1V12z"/>
</g>
<g id="colorImportance">
	<path class="icon_x002D_vs_x002D_blue" d="M9,1C5.687,1,3,2.343,3,4v3.044C3.164,7.022,3.328,7,3.5,7C5.351,7,6.794,8.305,7,10
		v4.826C7.626,14.936,8.298,15,9,15c3.314,0,6-1.343,6-3V4C15,2.343,12.314,1,9,1z M8.997,6c-3.052,0-5-1.185-5-2s1.948-2,5-2
		c3.052,0,5,1.185,5,2S12.049,6,8.997,6z"/>
</g>
</svg>
