<svg xmlns="http://www.w3.org/2000/svg" viewBox="0 0 16 16"><style>.st0{opacity:0}.st0,.st1{fill:#f6f6f6}.st2{fill:#424242}</style><g id="outline"><path class="st0" d="M0 0h16v16H0z"/><path class="st1" d="M16 4h-2V1.382l-2 1V0H9v2.382l-2-1V4H5v3.05C4.833 7.032 4.671 7 4.5 7a4.5 4.5 0 0 0 0 9c1.957 0 3.604-1.256 4.225-3H16V4z"/></g><g id="icon_x5F_bg"><path class="st2" d="M11 9h1v1h-1zM12 7h1v1h-1zM13 4.2V2.85L11 4.3V1h-1v3.3L8 2.85V4.2L10.5 6zM10 7h1v1h-1zM8 7h1v1H8z"/><path class="st2" d="M9 12h6V5h-1v6H9zM7 6.76V5H6v2c.354.126 1 0 1-.24z"/><path class="st2" d="M9 9h1v1H9z"/></g><path class="st2" d="M4.5 8a3.5 3.5 0 1 0 0 7 3.5 3.5 0 0 0 0-7zm.5 6H4v-3h1v3zm0-4H4V9h1v1z" id="not_x5F_bg"/></svg>