<?xml version="1.0" encoding="utf-8"?>
<!-- Generator: Adobe Illustrator 18.1.1, SVG Export Plug-In . SVG Version: 6.00 Build 0)  -->
<!DOCTYPE svg PUBLIC "-//W3C//DTD SVG 1.1//EN" "http://www.w3.org/Graphics/SVG/1.1/DTD/svg11.dtd">
<svg version="1.1" xmlns="http://www.w3.org/2000/svg" xmlns:xlink="http://www.w3.org/1999/xlink" x="0px" y="0px" width="16px"
	 height="16px" viewBox="0 0 16 16" style="enable-background:new 0 0 16 16;" xml:space="preserve">
<style type="text/css">
	.icon-canvas-transparent{opacity:0;fill:#F6F6F6;}
	.icon-vs-out{fill:#F6F6F6;}
	.icon-vs-bg{fill:#424242;}
	.icon-vs-fg{fill:#F0EFF1;}
</style>
<g id="canvas">
	<path class="icon-canvas-transparent" d="M16,16H0V0h16V16z"/>
</g>
<g id="outline">
	<path class="icon-vs-out" d="M2,16v-4.586l-2,2V8.586l2.129-2.129C1.15,5.835,0.5,4.742,0.5,3.5C0.5,1.57,2.07,0,4,0
		c1.652,0,3.041,1.151,3.406,2.693L10.638,0h4.776l-2,2H14c1.103,0,2,0.897,2,2v10c0,1.103-0.897,2-2,2H2z M13,13V7h-2.362
		L7.406,4.307c-0.213,0.901-0.775,1.668-1.535,2.15L8,8.586V13H13z"/>
</g>
<g id="iconBg">
	<path class="icon-vs-bg" d="M7,11L5,9v6H3V9l-2,2V9l3-3l3,3V11z M4,1C2.619,1,1.5,2.119,1.5,3.5C1.5,4.881,2.619,6,4,6
		s2.5-1.119,2.5-2.5C6.5,2.119,5.381,1,4,1z M4,5C3.173,5,2.5,4.327,2.5,3.5S3.173,2,4,2s1.5,0.673,1.5,1.5S4.827,5,4,5z M15,13h-1
		v-1h1V13z M13,14h-1v1h1V14z M13,6l-2-2h2.5C13.776,4,14,4.224,14,4.5V7h1V4c0-0.552-0.448-1-1-1h-3l2-2h-2L8,3.5L11,6H13z M11,15
		v-1h-1v1H11z M9,14H8v1h1V14z M14,15c0.552,0,1-0.448,1-1h-1V15z M14,10v1h1v-1H14z M14,8v1h1V8H14z M7,14H6v1h1V14z"/>
</g>
<g id="iconFg">
	<path class="icon-vs-fg" d="M4,5C3.173,5,2.5,4.327,2.5,3.5S3.173,2,4,2s1.5,0.673,1.5,1.5S4.827,5,4,5z"/>
</g>
</svg>
