<svg xmlns="http://www.w3.org/2000/svg" viewBox="0 0 16 16"><style>.st0{opacity:0}.st0,.st1{fill:#f6f6f6}.st2{fill:#424242}.st3{fill:#f0eff1}</style><g id="outline"><path class="st0" d="M0 0h16v16H0z"/><path class="st1" d="M15 6.167V3.556L11.061 0H5S3 0 3 2v4h-.914L0 8.086V9h.605A4.71 4.71 0 0 0 0 11.313c0 2.257 1.599 4.221 3.801 4.668l.096.019h4.017l2-2H13c2 0 2-2 2-2V9h1V6.167h-1z"/></g><g id="icon_x5F_bg"><path class="st2" d="M10 7h1v1h-1zM12 7h1v1h-1zM14 7h1v1h-1zM9 10.688A3.764 3.764 0 0 0 6 7v1a2.562 2.562 0 0 1 0 5v-1.5l-1 1V15h2.5l1-1H6.98A3.735 3.735 0 0 0 9 10.688zM5 9.5V7H2.5l-1 1h1.519A3.738 3.738 0 0 0 1 11.313a3.765 3.765 0 0 0 3 3.688v-1A2.562 2.562 0 0 1 4 9v1.5l1-1zM13 12h-3c-.102.349.177.686 0 1h3c1 0 1-1 1-1V9h-1v3zM10.676 1H5S4 1 4 2v4h1V2h5v3h3v1h1V4l-3.324-3z"/></g><g id="icon_x5F_fg"><path class="st3" d="M9 6h4V5h-3V2H5v3.776l1.199.244A4.723 4.723 0 0 1 9 7.784V6zM9.684 9c.201.528.316 1.097.316 1.688 0 .452-.069.891-.191 1.312H13V9H9.684z"/></g></svg>