<svg xmlns="http://www.w3.org/2000/svg" viewBox="0 0 16 16"><style>.st0{opacity:0}.st0,.st1{fill:#f6f6f6}.st2{fill:#424242}.st3{fill:#f0eff1}</style><g id="outline"><path class="st0" d="M0 0h16v16H0z"/><path class="st1" d="M15 11.086v-4.5L10.414 2H8V1H6.586L6 1.586V0H2v1.586L1.414 1H0v3.414L2.086 6.5 2 6.586V16h13v-.086l1-1v-2.828z"/></g><g id="icon_x5F_bg"><path class="st2" d="M14.5 12H13l1 1h-3v1h3l-1 1h1.5l1.5-1.5z"/><path class="st2" d="M7 12h3l3-3v2h1V7l-4-4H8v1h1.586l3 3H5.414l-1 1h-.828L3 7.414V15h7v-1H4V9z"/></g><path class="st2" d="M7 4V2L5 4V1H3v3L1 2v2l3 3z" id="color_x5F_action"/><g id="icon_x5F_fg"><path class="st3" d="M4 9v5h6v-2H7zM10 12h2v-1h1V9zM9.586 4H8v.414L5.414 7h7.172z"/></g></svg>