<svg xmlns="http://www.w3.org/2000/svg" viewBox="0 0 16 16"><style>.icon-canvas-transparent{opacity:0;fill:#f6f6f6}.icon-vs-out{fill:#f6f6f6}.icon-vs-fg{fill:#f0eff1}.icon-folder{fill:#dcb67a}.icon-vs-action-blue{fill:#00539c}.st0{fill:none}</style><path class="icon-canvas-transparent" d="M16 16H0V0h16v16z" id="canvas"/><path class="icon-vs-out" d="M16 12.086v2.828l-1 1V16H2V6.586l.086-.086L0 4.414V1h1.414L2 1.586V0h4v1.586L6.586 1H8v1h2.414L15 6.586v4.5l1 1z" id="outline"/><path class="icon-folder" d="M14 7v1H4.414L8 4.414V3h2l4 4zm-7 5L3 8v7h7v-3H7zm5-1h2V8l-4 4h2v-1z" id="iconBg"/><g id="iconFg"><path class="st0" d="M7 12L4 9v5h9V9l-3 3z"/><path class="icon-vs-fg" d="M3 8h11l-4 4H7L3 8"/></g><path class="icon-vs-action-blue" d="M16 13.5L14.5 15H13l1-1h-3v-1h3l-1-1h1.5l1.5 1.5zM7 4V2L5 4V1H3v3L1 2v2l3 3 3-3z" id="colorAction"/></svg>