<svg xmlns="http://www.w3.org/2000/svg" viewBox="0 0 16 16"><style>.st0{opacity:0}.st0,.st1{fill:#f6f6f6}.st2{fill:#424242}.st3{fill:#f0eff1}</style><g id="outline"><path class="st0" d="M0 0h16v16H0z"/><path class="st1" d="M8 4V0L6 2V0H2v2L0 0v6l2 2.104V16h14V4z"/><path class="st1" d="M0 4h16v12H0z"/></g><path class="st2" d="M8 5v.414L7.414 6H13l-5 5-2.793-2.793-1 1L7 12h2l5-5v7H2V7.414l-1-1V15h14V5z" id="icon_x5F_bg"/><path class="st2" d="M5 5V1H3v4L1 3v2l3 3 3-3V3L5 5z" id="color_x5F_importance"/><g id="icon_x5F_fg"><path class="st3" d="M9 12H7L4.207 9.207 4 9.414l-2-2V14h12V7z"/><path class="st3" d="M7.414 6L5.207 8.207 8 11l5-5z"/></g></svg>