<svg xmlns="http://www.w3.org/2000/svg" viewBox="0 0 16 16"><style>.st0{opacity:0}.st0,.st1{fill:#f6f6f6}.st2{fill:#424242}.st3{fill:#00539c}.st4{fill:#f0eff1}</style><g id="outline"><path class="st0" d="M0 0h16v16H0z"/><path class="st1" d="M10.414 2H8V1H6.586L6 1.586V0H2v1.586L1.414 1H0v3.414L2.086 6.5 2 6.586V16h13V6.586z"/></g><path class="st2" d="M10 3H8v1h1.586l3 3H5.414l-1 1h-.828L3 7.414V15h11V7l-4-4zm3 11H4V9l3 3h3l3-3v5z" id="icon_x5F_bg"/><path class="st3" d="M7 4V2L5 4V1H3v3L1 2v2l3 3z" id="color_x5F_action"/><g id="icon_x5F_fg"><path class="st4" d="M10 12H7L4 9v5h9V9zM9.586 4H8v.414L5.414 7h7.172z"/></g></svg>