<svg xmlns="http://www.w3.org/2000/svg" viewBox="0 0 16 16"><style>.st0{opacity:0}.st0,.st1{fill:#f6f6f6}.st2{fill:#424242}.st3{fill:#f0eff1}</style><g id="outline"><path class="st0" d="M0 0h16v16H0z"/><path class="st1" d="M16 0H1v5.132a3.608 3.608 0 0 0 0 4.985V13h4.731l2.835 2.481.352.351c.063.064.133.117.204.168h1.757c.071-.051.141-.104.203-.168l.75-.748A1.52 1.52 0 0 0 11.899 13H16V0z"/></g><g id="icon_x5F_bg"><path class="st2" d="M8 3h1v1H8zM6 3h1v1H6zM9 9h-.64l.64.731zM10 3h1v1h-1zM10 9h1v1h-1zM12 3h1v1h-1zM12 5h1v1h-1zM4 3h1v1H4zM12 9h1v1h-1zM12 7h1v1h-1z"/><path class="st2" d="M2 1v3.389c.31-.157.647-.27 1-.332V2h11v9h-3.891l.875 1H15V1H2zM3.625 11.25A3.606 3.606 0 0 1 2 10.861V12h2.589l-.859-.752c-.035.002-.07.002-.105.002z"/><path class="st2" d="M10.75 13.25L6.206 8.057a2.56 2.56 0 0 0 .044-.432 2.625 2.625 0 1 0-2.625 2.625c.148 0 .29-.019.432-.044L9.25 14.75l.375.375a.529.529 0 0 0 .75 0l.375-.375.375-.375a.529.529 0 0 0 0-.75l-.375-.375zm-9-5.625c0-1.034.841-1.875 1.875-1.875.381 0 .736.116 1.033.312L2.062 8.658a1.87 1.87 0 0 1-.312-1.033zM3.625 9.5c-.382 0-.736-.115-1.033-.313l2.596-2.595c.196.297.312.652.312 1.033A1.877 1.877 0 0 1 3.625 9.5z"/></g><g id="icon_x5F_fg"><path class="st3" d="M3 2v2.058c.203-.035.412-.058.625-.058a3.629 3.629 0 0 1 3.623 3.729L8.36 9H9v.731L10.109 11H14V2H3zm2 2H4V3h1v1zm2 0H6V3h1v1zm2 0H8V3h1v1zm2 6h-1V9h1v1zm0-6h-1V3h1v1zm2 6h-1V9h1v1zm0-2h-1V7h1v1zm0-2h-1V5h1v1zm0-2h-1V3h1v1zM3.625 5.75A1.877 1.877 0 0 0 1.75 7.625c0 .381.116.736.312 1.033l2.596-2.596a1.87 1.87 0 0 0-1.033-.312zM2.592 9.188a1.86 1.86 0 0 0 1.033.312A1.877 1.877 0 0 0 5.5 7.625a1.87 1.87 0 0 0-.312-1.033L2.592 9.188z"/></g></svg>