<svg xmlns="http://www.w3.org/2000/svg" viewBox="0 0 16 16"><style>.st0{opacity:0}.st0,.st1{fill:#f6f6f6}.st2{fill:#424242}.st3{fill:#f0eff1}.st4{fill:#1ba1e2}.st5{fill:#fff}</style><g id="outline"><path class="st0" d="M0 0h16v16H0z"/><path class="st1" d="M12.5 7H12V1.586L10.414 0H1.586L0 1.586v8.828L1.586 12H7v.5l3.5 3.5h2l3.5-3.5v-2z"/></g><g id="icon_x5F_bg"><path class="st2" d="M9.5 6a3.5 3.5 0 1 0-7 0 3.5 3.5 0 0 0 7 0zM6 8a2 2 0 1 1 0-4 2 2 0 0 1 0 4z"/><circle class="st2" cx="6" cy="6" r="2"/><path class="st2" d="M10.586 7H11V2l-1-1H2L1 2v8l1 1h5v-.414L10.586 7zM2.5 6a3.5 3.5 0 1 1 7 0 3.5 3.5 0 0 1-7 0z"/></g><path class="st3" d="M6 2.5a3.5 3.5 0 1 0 0 7 3.5 3.5 0 0 0 0-7zM6 8a2 2 0 1 1 0-4 2 2 0 0 1 0 4z" id="icon_x5F_fg"/><path class="st4" d="M12 8h-1l-3 3v1l3 3h1l3-3v-1l-3-3zm0 6h-1v-1h1v1zm0-2h-1V9h1v3z" id="not_x5F_bg"/><path class="st5" d="M12 12h-1V9h1v3zm0 1h-1v1h1v-1z" id="not_x5F_fg"/></svg>