<svg xmlns="http://www.w3.org/2000/svg" viewBox="0 0 16 16"><style>.icon-canvas-transparent{opacity:0;fill:#f6f6f6}.icon-vs-out{fill:#f6f6f6}.icon-vs-bg{fill:#424242}.icon-vs-fg{fill:#f0eff1}</style><path class="icon-canvas-transparent" d="M16 16H0V0h16v16z" id="canvas"/><path class="icon-vs-out" d="M15.424 14.959A2 2 0 0 1 13.668 16H5.332a1.998 1.998 0 1 1-1.682-3.082l2.678-4.165L4 7.202 1.302 9H0V7.818l1.044-2.784L0 4.251v-2.25h2.183L2.933 0h2.136l.75 2.001H9v1.5L8.335 4H13v3h-1v.706l3.351 5.212c.396.617.423 1.398.073 2.041z" id="outline"/><path class="icon-vs-bg" d="M1 8l1.244-3.316L0 3.001h2.876L4.001 0l1.125 3.001H8L5.757 4.684 7 8 4 6 1 8zm13.51 5.459L11 8V6h1V5H7.002L7 5.001v.15L7.318 6H8v2l-3.51 5.459A1 1 0 0 0 5.332 15h8.337a1 1 0 0 0 .841-1.541zM7.276 11L9 8.291V6h1v2.291L11.724 11H7.276z" id="iconBg"/><path class="icon-vs-fg" d="M10 8.291L11.724 11H7.276L9 8.291V6h1v2.291z" id="iconFg"/></svg>