<svg xmlns="http://www.w3.org/2000/svg" viewBox="0 0 16 16"><style>.st0{opacity:0}.st0,.st1{fill:#f6f6f6}.st2{fill:#424242}.st3{fill:#f0eff1}</style><g id="outline"><path class="st0" d="M0 0h16v16H0z"/><path class="st1" d="M12.414 2H3.586L2 3.586v8.828L3.586 14h8.828L14 12.414V3.586z"/></g><g id="icon_x5F_bg"><circle class="st2" cx="8" cy="8" r="2"/><path class="st2" d="M12 3H4L3 4v8l1 1h8l1-1V4l-1-1zm-4 8.5a3.5 3.5 0 1 1-.001-6.999A3.5 3.5 0 0 1 8 11.5z"/></g><path class="st3" d="M8 4.5a3.5 3.5 0 1 0 0 7 3.5 3.5 0 0 0 0-7zM8 10a2 2 0 1 1 0-4 2 2 0 0 1 0 4z" id="icon_x5F_fg"/></svg>