<svg xmlns="http://www.w3.org/2000/svg" viewBox="0 0 16 16"><style>.st0{opacity:0}.st0,.st1{fill:#f6f6f6}.st2{fill:#424242}.st3{fill:#a1260d}.st4{fill:#f0eff1}</style><g id="outline"><path class="st0" d="M0 0h16v16H0z"/><path class="st1" d="M16 5v11H0v-5h4V9H1.586L0 7.414V1.586L1.586 0h5.828L9 1.586V5h7z"/></g><path class="st2" d="M10 6v3H5v3H1v3h14V6h-5z" id="icon_x5F_bg"/><g id="color_x5F_action"><circle class="st3" cx="4.5" cy="4.5" r="1.5"/><path class="st3" d="M7 1H2L1 2v5l1 1h5l1-1V2L7 1zM4.5 7a2.5 2.5 0 1 1 0-5 2.5 2.5 0 0 1 0 5z"/></g><path class="st4" d="M4.5 2a2.5 2.5 0 1 0 0 5 2.5 2.5 0 0 0 0-5zm0 4a1.5 1.5 0 1 1 .001-3.001A1.5 1.5 0 0 1 4.5 6z" id="icon_x5F_fg"/></svg>