<svg xmlns="http://www.w3.org/2000/svg" viewBox="0 0 16 16"><style>.st0{opacity:0}.st0,.st1{fill:#f6f6f6}.st2{fill:#424242}.st3{fill:#f0eff1}.st4{fill:#e51400}</style><g id="outline"><path class="st0" d="M0 0h16v16H0z"/><path class="st1" d="M2.252 16L0 13.747V2.252L2.252 0h11.495L16 2.252v11.495L13.747 16H2.252z"/></g><g id="icon_x5F_bg"><path class="st2" d="M12.276 15l-.494-.494-.494.494zM7.161 13.471l.807-.807a4.665 4.665 0 1 1 4.696-4.696l.911-.912L15 8.481V2.667L13.333 1H2.667L1 2.667v10.667L2.667 15H8.69l-1.529-1.529zM14.61 11.678l.39.389v-.779z"/><path class="st2" d="M7.161 9.885l2.828-2.828.647.648A2.658 2.658 0 0 0 8 5.333 2.668 2.668 0 0 0 5.333 8a2.662 2.662 0 0 0 2.604 2.66l-.776-.775z"/></g><path class="st3" d="M8.954 11.678L7.937 10.66A2.662 2.662 0 0 1 5.333 8 2.668 2.668 0 0 1 8 5.333a2.66 2.66 0 0 1 2.637 2.371l1.146 1.145.882-.881A4.668 4.668 0 0 0 8 3.333a4.665 4.665 0 1 0-.032 9.331l.986-.986z" id="icon_x5F_fg"/><path class="st4" d="M13.196 11.678l1.793-1.793-1.414-1.414-1.793 1.793-1.793-1.793-1.414 1.414 1.793 1.793-1.793 1.793 1.414 1.414 1.793-1.793 1.793 1.793 1.414-1.414z" id="not_x5F_bg"/></svg>