<svg xmlns="http://www.w3.org/2000/svg" viewBox="0 0 16 16"><style>.st0{opacity:0}.st0,.st1{fill:#f6f6f6}.st2{fill:#424242}.st3{fill:#a1260d}.st4{fill:#f0eff1}</style><g id="outline"><path class="st0" d="M0 0h16v16H0z"/><path class="st1" d="M9 3V1.586L7.414 0H1.586L0 1.586v5.828l1 1V16h15V3z"/></g><g id="icon_x5F_bg"><path class="st2" d="M4 12h1v1H4zM4 10h1v1H4zM8 12h1v1H8zM6 12h1v1H6zM10 6h1v1h-1zM10 12h1v1h-1zM12 10h1v1h-1zM12 12h1v1h-1zM12 8h1v1h-1zM12 6h1v1h-1z"/><path class="st2" d="M9 4v1h5v9H3V9H2v6h13V4z"/></g><g id="color_x5F_action"><circle class="st3" cx="4.5" cy="4.5" r="1.5"/><path class="st3" d="M7 8l1-1V2L7 1H2L1 2v5l1 1h5zM4.5 2a2.5 2.5 0 1 1-.002 5.002A2.5 2.5 0 0 1 4.5 2z"/></g><g id="icon_x5F_fg"><path class="st4" d="M9 5v2.414L7.414 9H3v5h11V5H9zm-4 8H4v-1h1v1zm0-2H4v-1h1v1zm2 2H6v-1h1v1zm2 0H8v-1h1v1zm2 0h-1v-1h1v1zm0-6h-1V6h1v1zm2 6h-1v-1h1v1zm0-2h-1v-1h1v1zm0-2h-1V8h1v1zm0-2h-1V6h1v1zM7 4.5a2.5 2.5 0 1 0-5.002.002A2.5 2.5 0 0 0 7 4.5zm-4 0a1.5 1.5 0 1 1 3 0 1.5 1.5 0 0 1-3 0z"/></g></svg>