<svg xmlns="http://www.w3.org/2000/svg" viewBox="0 0 16 16"><style>.st0{opacity:0}.st0,.st1{fill:#f6f6f6}.st2{fill:#424242}</style><g id="outline"><path class="st0" d="M0 0h16v16H0z"/><path class="st1" d="M15 8.5c0 4.275-1.719 7.5-4 7.5-2.28 0-4-3.225-4-7.5 0-.887.077-1.724.215-2.5H6v2H2.019V6H0V2.018h2.019V0H6v2.018h2v1.43C8.722 1.931 9.779 1 11 1c2.281 0 4 3.225 4 7.5z"/></g><path class="st2" d="M14 8.5c0 3.59-1.344 6.5-3 6.5s-3-2.91-3-6.5S9.344 2 11 2s3 2.91 3 6.5zM7 3.018H5V1H3.019v2.018H1V5h2.019v2H5V5h2V3.018z" id="icon_x5F_bg"/></svg>