<svg xmlns="http://www.w3.org/2000/svg" viewBox="0 0 16 16"><style>.st0{opacity:0}.st0,.st1{fill:#f6f6f6}.st2{fill:#424242}.st3{fill:#f0eff1}</style><g id="outline"><path class="st0" d="M0 0h16v16H0z"/><path class="st1" d="M16 0H1v8.586l-1 1v4.828L1.586 16h6.828L10 14.414V13h6z"/></g><g id="icon_x5F_bg"><path class="st2" d="M8 3h1v1H8zM4 5h1v1H4z"/><path class="st2" d="M2 1v7h.586L3 7.586V2h11v9h-4v1h5V1z"/><path class="st2" d="M4 3h1v1H4zM6 3h1v1H6zM12 7h1v1h-1zM12 3h1v1h-1zM12 9h1v1h-1zM10 9.586V10h1V9h-1zM12 5h1v1h-1zM10 3h1v1h-1z"/><circle class="st2" cx="5" cy="12" r="1"/><path class="st2" d="M7 9L6 8H4L3 9H2l-1 1v4l1 1h6l1-1v-4L8 9H7zm-2 5a2 2 0 1 1 .001-4.001A2 2 0 0 1 5 14zm3-3H7v-1h1v1z"/></g><path class="st3" d="M3 2v5.586L3.586 7h2.828l1 1h1L10 9.586V9h1v1h-1v1h4V2H3zm2 4H4V5h1v1zm0-2H4V3h1v1zm2 0H6V3h1v1zm2 0H8V3h1v1zm2 0h-1V3h1v1zm2 6h-1V9h1v1zm0-2h-1V7h1v1zm0-2h-1V5h1v1zm0-2h-1V3h1v1zm-8 6a2 2 0 1 0 .001 4.001A2 2 0 0 0 5 10zm0 3a1 1 0 1 1 0-2 1 1 0 1 1 0 2zm2-3h1v1H7v-1z" id="icon_x5F_fg"/></svg>