<svg xmlns="http://www.w3.org/2000/svg" viewBox="0 0 16 16"><style>.st0{opacity:0}.st0,.st1{fill:#f6f6f6}.st2{fill:#424242}</style><g id="outline"><path class="st0" d="M0 0h16v16H0z"/><path class="st1" d="M1 0v13h4v2.851L7.438 13h.681l1.36 3h.549l3.123-1.424L12.456 13H16V0z"/></g><g id="icon_x5F_bg"><path class="st2" d="M2 1h1v1H2zM2 3h1v1H2zM2 5h1v1H2zM2 7h1v1H2zM2 9h1v1H2zM2 11h1v1H2zM4 11h1v1H4zM14 3h1v1h-1zM14 5h1v1h-1zM14 7h1v1h-1zM14 9h1v1h-1zM14 11h1v1h-1zM12 11h1v1h-1zM4 1h1v1H4zM6 1h1v1H6zM8 1h1v1H8zM10 1h1v1h-1zM12 1h1v1h-1zM14 1h1v1h-1z"/><path class="st2" d="M8.172 10.625l2.128 4.24 1.542-.81-1.797-4.104h2.545L6.057 3.043v10.08z"/></g></svg>