<svg xmlns="http://www.w3.org/2000/svg" viewBox="0 0 16 16"><style>.st0{opacity:0}.st0,.st1{fill:#f6f6f6}.st2{fill:#424242}</style><g id="outline"><path class="st0" d="M0 0h16v16H0z"/><path class="st1" d="M1 1v13h15V1H1zm12 10H4V4h9v7z"/></g><path class="st2" d="M3 3.997H2v-2h3v1H3v1zm11 0h1v-2h-3v1h2v1zm0 8.001h-2v1h3v-2h-1v1zm-11-1H2v2h3v-1H3v-1zm5-9.001H6v1h2v-1zm3 0H9v1h2v-1zM8 11.998H6v1h2v-1zm3 0H9v1h2v-1zM3 4.997H2v2h1v-2zm0 3H2v2.001h1V7.997zm12-3h-1v2h1v-2zm0 3h-1v2.001h1V7.997z" id="icon_x5F_bg"/></svg>