<svg xmlns="http://www.w3.org/2000/svg" viewBox="0 0 16 16"><style>.st0{opacity:0}.st0,.st1{fill:#f6f6f6}.st2{fill:#424242}.st3{fill:#00539c}.st4{fill:#f0eff1}</style><g id="outline"><path class="st0" d="M0 0h16v16H0z"/><path class="st1" d="M15 1v12h-2v2H1V6L0 4h1V3h2V1h3.5L7 0h4.236l-.5 1H15z"/></g><path class="st2" d="M5 4zm9-2h-3.764l-.5 1H13v8H5v-1H4v2h7v1H3v-3L2 8v6h10v-2h2V2zM5 4V3h.5L6 2H4v2h1z" id="icon_x5F_bg"/><path class="st3" d="M9.618 1l-4 8h-2l-2-4h2l1 2 3-6h2z" id="color_x5F_imporatance"/><path class="st4" d="M5 4V3h.5L5 4zm4.736-1l-3.5 7H5v1h8V3H9.736zM4 12v-2H3v3h8v-1H4z" id="icon_x5F_fg"/></svg>