<svg xmlns="http://www.w3.org/2000/svg" viewBox="0 0 16 16"><style>.icon-canvas-transparent{opacity:0;fill:#f6f6f6}.icon-vs-out{fill:#f6f6f6}.icon-vs-bg{fill:#424242}.icon-vs-fg{fill:#f0eff1}.icon-vs-action-red{fill:#a1260d}</style><path class="icon-canvas-transparent" d="M16 16H0V0h16v16z" id="canvas"/><path class="icon-vs-out" d="M8.354 1l-.975.025L6.354 0h-.829L3.97 1.556 2.414 0h-.828L0 1.586v.949L1.495 4.03 0 5.525v.949l2 2V15h12v-2h2V1H8.354z" id="outline"/><path class="icon-vs-bg" d="M15 2v10h-2v2H3V7.475l.97-.97.03.03V13h8v-1H5V7.535l.939.939.061-.06V11h8V3H7.475l.939-.939L8.354 2H15z" id="iconBg"/><path class="icon-vs-fg" d="M5 12h7v1H4V6.535l1 1V12zm2.475-9l-1.03 1.03L8.414 6 6 8.414V11h8V3H7.475z" id="iconFg"/><path class="icon-vs-action-red" d="M5.03 4.03L7 6 5.939 7.061l-1.97-1.97L2 7.061.939 6l1.97-1.97-1.97-1.97L2 1l1.97 1.97L5.939 1 7 2.06 5.03 4.03z" id="colorAction"/></svg>