<svg xmlns="http://www.w3.org/2000/svg" viewBox="0 0 16 16"><style>.st0{opacity:0}.st0,.st1{fill:#f6f6f6}.st2{fill:#424242}.st3{fill:#f0eff1}</style><g id="outline"><path class="st0" d="M0 0h16v16H0z"/><circle class="st1" cx="8.5" cy="7.5" r="7.5"/></g><g id="icon_x5F_bg"><path class="st2" d="M8.5 1a6.5 6.5 0 1 0 0 13 6.5 6.5 0 0 0 0-13zm1.334 10l-.928-2.02c-.135-.297-.293-.507-.475-.633a.985.985 0 0 0-.574-.187h-.588V11H6V4h2.469c.423 0 .792.045 1.107.137.314.091.576.22.787.386.209.165.365.363.472.595.104.231.157.489.157.771 0 .25-.041.482-.121.692-.078.212-.193.4-.338.565a2.007 2.007 0 0 1-.531.417 2.7 2.7 0 0 1-.689.259v.02a.827.827 0 0 1 .257.132c.084.062.164.132.238.212a2.445 2.445 0 0 1 .368.525L11.344 11h-1.51z"/><path class="st2" d="M9.658 6c0-.156-.029-.296-.085-.421a.875.875 0 0 0-.259-.325 1.219 1.219 0 0 0-.429-.209 2.19 2.19 0 0 0-.602-.073H7.269v2.21h.992c.218 0 .413-.031.584-.092.172-.062.319-.146.44-.25A1.11 1.11 0 0 0 9.658 6z"/></g><path class="st3" d="M10.177 8.711a2.582 2.582 0 0 0-.368-.525 1.689 1.689 0 0 0-.238-.212.843.843 0 0 0-.258-.132v-.02a2.76 2.76 0 0 0 .689-.258 1.827 1.827 0 0 0 .869-.982c.08-.21.121-.442.121-.692 0-.283-.053-.54-.157-.771a1.602 1.602 0 0 0-.472-.595 2.27 2.27 0 0 0-.787-.386A3.92 3.92 0 0 0 8.469 4H6v7h1.269V8.16h.588c.202 0 .393.062.574.187.182.126.34.336.475.633L9.834 11h1.51l-1.167-2.289zM8.845 7.09a1.733 1.733 0 0 1-.584.092h-.992v-2.21h1.014c.231 0 .432.024.602.073.171.049.314.118.429.209.116.092.202.2.259.325.056.126.085.266.085.421a1.108 1.108 0 0 1-.373.839 1.365 1.365 0 0 1-.44.251z" id="icon_x5F_fg"/></svg>