<svg xmlns="http://www.w3.org/2000/svg" viewBox="0 0 16 16"><style>.st0{opacity:0}.st0,.st1{fill:#f6f6f6}.st2{fill:#424242}.st3{fill:#00539c}</style><g id="outline"><path class="st0" d="M0 0h16v16H0z"/><path class="st1" d="M14 8V4l-4-4-4 4v3.05C5.836 7.027 5.672 7 5.502 7c-.573 0-1.003.088-1.502.349V7H2.603L1 8.515V12h3.063l.494-.007-1.956 1.716L4.7 15.808l3.079-2.65c.082-.072.146-.159.221-.237V13h4v-1.412c.68.268 1.382.412 2 .412h1V8h-1zm-6.026.026L8 8v.058c-.01-.01-.017-.022-.026-.032z"/></g><path class="st2" d="M14 9v2c-.97 0-2.167-.288-3-1v2H9V5L7 7V5l3-3 3 3v2l-2-2v2c0 1.153 1.898 2 3 2z" id="icon_x5F_bg"/><path class="st3" d="M8 10.5c0 .731-.318 1.423-.873 1.898L4.75 14.444l-.688-.688 2.408-2.112A1.502 1.502 0 0 0 5.501 9c-.354 0-.648.149-.968.356L3.76 10H5l-.969.969.032.031H2V8.945L3 8v1.361l.887-.768C4.578 8.097 4.91 8 5.502 8A2.502 2.502 0 0 1 8 10.5z" id="color_x5F_importance"/></svg>