<svg xmlns="http://www.w3.org/2000/svg" viewBox="0 0 16 16"><style>.st0{opacity:0}.st0,.st1{fill:#f6f6f6}.st2{fill:#424242}.st3{fill:#00539c}.st4{fill:#f0eff1}</style><g id="outline"><path class="st0" d="M0 0h16v16H0z"/><path class="st1" d="M16 6c0-.245-.019-.485-.048-.723l-2.264-.805 1.03-2.17a6.015 6.015 0 0 0-1.021-1.021l-2.17 1.03-.805-2.264A6.359 6.359 0 0 0 10 0c-.245 0-.485.02-.723.048l-.804 2.264-2.17-1.03c-.381.298-.723.64-1.022 1.021l1.03 2.17-2.263.804C4.02 5.515 4 5.755 4 6s.02.485.048.723l.78.277H2v2L0 7v6l3 3h2l3-3V9.913l.473-.225.805 2.264c.237.029.477.048.722.048s.485-.019.723-.048l.805-2.264 2.17 1.03a5.984 5.984 0 0 0 1.021-1.022l-1.03-2.17 2.264-.805C15.981 6.485 16 6.245 16 6z"/></g><path class="st2" d="M15 6l-2.69-.957 1.226-2.578-2.579 1.225L10 1l-.957 2.69-2.578-1.225L7.69 5.043 5 6l2.69.957-1.225 2.578L9.043 8.31 10 11l.957-2.69 2.578 1.226-1.225-2.579L15 6zm-5 2a2 2 0 1 1 .001-4.001A2 2 0 0 1 10 8z" id="icon_x5F_bg"/><path class="st3" d="M5 12l2-2v2l-3 3-3-3v-2l2 2V8h2z" id="color_x5F_action"/><circle class="st4" cx="10" cy="6" r="2" id="icon_x5F_fg"/></svg>