<svg xmlns="http://www.w3.org/2000/svg" viewBox="0 0 16 16"><style>.st0{opacity:0}.st0,.st1{fill:#f6f6f6}.st2{fill:#424242}.st3{fill:#00539c}.st4{fill:#f0eff1}</style><g id="outline"><path class="st0" d="M0 0h16v16H0z"/><path class="st1" d="M10 0a6 6 0 0 0-6 6c0 .341.035.674.09 1H2v2L1 8H0v5l3 3h2l3-3v-1.349A5.97 5.97 0 0 0 10 12a6 6 0 0 0 0-12z"/></g><path class="st2" d="M10 1a5 5 0 0 0-4.899 6H6v1.973l.012.015L7 8h1v2.578A4.962 4.962 0 0 0 10 11c2.762 0 5-2.238 5-5s-2.238-5-5-5zm0 9V2a4 4 0 0 1 0 8z" id="icon_x5F_bg"/><path class="st3" d="M5 8H3v4l-2-2v2l3 3 3-3v-2l-2 2z" id="color_x5F_action"/><path class="st4" d="M10 2v8a4 4 0 0 0 0-8z" id="icon_x5F_fg"/></svg>