<svg xmlns="http://www.w3.org/2000/svg" viewBox="0 0 16 16"><style>.st0{opacity:0}.st0,.st1{fill:#f6f6f6}.st2{fill:#424242}.st3{fill:#f0eff1}</style><g id="outline"><path class="st0" d="M0 0h16v16H0z"/><path class="st1" d="M2 0v4h2v3.05c-2.247.252-4 2.136-4 4.45A4.5 4.5 0 0 0 4.5 16c1.956 0 3.604-1.256 4.225-3H11v-3h2V7h3V0H2z"/></g><path class="st2" d="M8 3H3V1h5v2zM5 6h5V4H5v2zm4 5.5c0 .172-.032.334-.051.5H10v-2H8.725c.167.471.275.971.275 1.5zM5 7.05A4.487 4.487 0 0 1 8.24 9H12V7H5v.05zM9 1v2h6V1H9zm2 5h4V4h-4v2z" id="icon_x5F_bg"/><path class="st2" d="M7.485 9.721L3.5 13.707l-1.854-1.853.707-.707L3.5 12.293l3.361-3.361A3.475 3.475 0 0 0 4.5 8 3.5 3.5 0 1 0 8 11.5c0-.656-.198-1.256-.515-1.779z" id="not_x5F_bg"/><path class="st3" d="M2.354 11.146l-.707.707L3.5 13.707l3.994-3.994a3.486 3.486 0 0 0-.633-.781L3.5 12.293l-1.146-1.147z" id="not_x5F_fg"/></svg>