<svg xmlns="http://www.w3.org/2000/svg" viewBox="0 0 16 16"><style>.st0{opacity:0}.st0,.st1{fill:#f6f6f6}.st2{fill:#424242}</style><g id="outline"><path class="st0" d="M0 0h16v16H0z"/><path class="st1" d="M13.914 11H9.586l1 1H10l-1.939-1.939L12 6.121v1.293l3-3V1h-3.414l-3 3h1.293l-4 4H4V5.414l1 1V2.086L2.914 0h-.828L0 2.086v4.328l1-1V8H0l1 1v1H0v4h1v1l-1 1h6l1-1h3.586l-1 1h4.328L16 13.914v-.828z"/></g><g id="icon_x5F_bg"><path class="st2" d="M7.354 9.354L13 3.707V5l1-1V2h-2l-1 1h1.293L6.646 8.646zM13.5 12H12l1 1H9l-1 1h5l-1 1h1.5l1.5-1.5zM2 8h1V3l1 1V2.5L2.5 1 1 2.5V4l1-1zM5 9H3l2 2H1v2h4l-2 2h2l3-3z"/></g></svg>