<svg xmlns="http://www.w3.org/2000/svg" viewBox="0 0 16 16"><style>.st0{opacity:0}.st0,.st1{fill:#f6f6f6}.st2{fill:#424242}.st3{fill:#00539c}.st4{fill:#f0eff1}</style><g id="outline"><path class="st0" d="M0 0h16v16H0z"/><path class="st1" d="M10 8V1H0v7h1v2.5c0 1.104.719 2.043 1.713 2.373L1.586 14h4.328L6 13.914V15h10V8h-6zM6 9.086L5.914 9H4V8h2v1.086z"/></g><path class="st2" d="M7 9v5h8V9H7zm7 4H8v-3h6v3z" id="icon_x5F_bg"/><path class="st3" d="M4 10l1 1H3.5a.501.501 0 0 1-.5-.5V7h6V2H1v5h1v3.5c0 .827.673 1.5 1.5 1.5H5l-1 1h1.5L7 11.5 5.5 10H4zM2 3h6v3H2V3z" id="color_x5F_importance"/><g id="icon_x5F_fg"><path class="st4" d="M2 3h6v3H2zM8 10h6v3H8z"/></g></svg>