<svg xmlns="http://www.w3.org/2000/svg" viewBox="0 0 16 16"><style>.icon-canvas-transparent{opacity:0;fill:#f6f6f6}.icon-vs-bg{fill:#424242}.icon-vs-out{fill:#f6f6f6}</style><path class="icon-canvas-transparent" d="M16 0v16H0V0h16z" id="canvas"/><g id="iconBg"><path class="icon-vs-out" d="M8.25 15.75c-2.07 0-4.016-.806-5.48-2.27S.5 10.07.5 8a7.68 7.68 0 0 1 1.829-5H1V0h7v7H5V4.547A4.803 4.803 0 0 0 3.5 8c0 2.619 2.131 4.75 4.75 4.75S13 10.619 13 8a4.714 4.714 0 0 0-1.9-3.801l-.8-.601L12.102 1.2l.8.6a7.819 7.819 0 0 1 2.254 2.678A7.674 7.674 0 0 1 16 8a7.7 7.7 0 0 1-2.27 5.48 7.7 7.7 0 0 1-5.48 2.27z"/><path class="icon-vs-bg" d="M15 8c0 1.803-.702 3.498-1.977 4.773s-2.97 1.977-4.773 1.977c-1.803 0-3.498-.702-4.773-1.977S1.5 9.803 1.5 8c0-1.49.476-2.902 1.376-4.084A6.806 6.806 0 0 1 5.159 2H2V1h5v5H6V2.707A5.786 5.786 0 0 0 2.5 8a5.756 5.756 0 0 0 5.75 5.75A5.756 5.756 0 0 0 14 8a5.706 5.706 0 0 0-2.3-4.6l.601-.8a6.814 6.814 0 0 1 1.964 2.333A6.68 6.68 0 0 1 15 8z"/></g></svg>