<svg xmlns="http://www.w3.org/2000/svg" width="16" height="16"><style type="text/css">.icon-canvas-transparent{opacity:0;fill:#F6F6F6;} .icon-vs-out{fill:#F6F6F6;} .icon-vs-bg{fill:#424242;} .icon-vs-fg{fill:#F0EFF1;} .icon-vs-action-blue{fill:#00539C;}</style><path class="icon-canvas-transparent" d="M16 16h-16v-16h16v16z" id="canvas"/><path class="icon-vs-out" d="M15 0v16h-10v-6.992c-.322.083-.653.142-1 .142-2.206 0-4-1.794-4-4 0-1.86 1.277-3.428 3-3.874v-1.276h1.368l.632.538v-.538h10z" id="outline"/><path class="icon-vs-bg" d="M6 1v.388l1.571 1.337-.048.406.333 1.021c.11.333.164.608.176.848h3.968v1h-4v-.602l-.013.07c-.105 1.341-.882 2.489-1.987 3.132v6.4h8v-14h-8zm6 12h-1v-1h1v1zm0-9h-4v-1h4v1z" id="iconBg"/><path class="icon-vs-fg" d="M11 12h1v1h-1v-1zm-3-6.602v.602h4v-1h-3.968c.007.146-.003.279-.032.398zm0-2.398v1h4v-1h-4z" id="iconFg"/><g id="colorAction"><path class="icon-vs-action-blue" d="M7 5.15c0 1.657-1.343 3-3 3s-3-1.343-3-3c0-1.656 1.343-3 3-3v-1.15l2 1.701-2 1.6v-1.151c-1.104 0-2.15.896-2.15 2s1.045 2.15 2.15 2.15 2-1.046 2-2.15c0-.162.1-.193.063-.344l.844-.344c.229.704.093.815.093.688z"/></g></svg>