<svg xmlns="http://www.w3.org/2000/svg" viewBox="0 0 16 16"><style>.st0{opacity:0}.st0,.st1{fill:#f6f6f6}.st2{fill:#424242}.st3{fill:#f0eff1}</style><g id="outline"><path class="st0" d="M0 0h16v16H0z"/><path class="st1" d="M13 1H6C3.794 1 2 2.794 2 5v4H0v7h9.5c1.93 0 3.5-1.57 3.5-3.5V6h3V4c0-1.654-1.346-3-3-3z"/></g><g id="icon_x5F_bg"><path class="st2" d="M13 2H6a3 3 0 0 0-3 3v6h.879L5 9.879V5a1 1 0 0 1 1-1h5v8.5a1.5 1.5 0 0 1-3 0V12h-.879l-1 1H7v2h2.5a2.5 2.5 0 0 0 2.5-2.5V5h3V4a2 2 0 0 0-2-2zM1 10h1v1H1zM1 12h1v1H1zM1 14h1v1H1zM3 14h1v1H3zM5 14h1v1H5z"/><path class="st2" d="M3 12h1v1H3z"/><path transform="rotate(-45.001 5.5 11.5)" class="st2" d="M5 11h1v1H5z"/></g><path class="st3" d="M6 4a1 1 0 0 0-1 1v4.879l.5-.5L7.621 11.5l-.5.5H8v.5a1.5 1.5 0 0 0 3 0V4H6z" id="icon_x5F_fg"/></svg>