<svg xmlns="http://www.w3.org/2000/svg" viewBox="0 0 16 16"><style>.st0{display:none}.st1{opacity:0}.st1,.st2{display:inline;fill:#f6f6f6}.st3{fill:#424242}.st4{fill:#f0eff1}</style><g id="outline" class="st0"><path class="st1" d="M0 0h16v16H0z"/><path class="st2" d="M0 2h16v12H0z"/></g><g id="icon_x5F_bg"><path class="st3" d="M1 3v10h14V3H1zm13 9H2V4h12v8z"/><path class="st3" d="M6 5H5a1 1 0 0 0-1 1v4a1 1 0 0 0 1 1h1a1 1 0 0 0 1-1V6a1 1 0 0 0-1-1zm0 5H5V6h1v4zM11.625 5.063h-1.187l-.594 1.484-.594-1.484H8.063L9.25 8.031 8.063 11H9.25l.594-1.484.594 1.484h1.187l-1.187-2.969z"/></g><g id="icon_x5F_fg"><path class="st4" d="M5 6h1v4H5z"/><path class="st4" d="M2 4v8h12V4H2zm5 6a1 1 0 0 1-1 1H5a1 1 0 0 1-1-1V6a1 1 0 0 1 1-1h1a1 1 0 0 1 1 1v4zm4.775 1h-1.338l-.593-1.213L9.25 11H7.917l1.231-2.988L7.894 5H9.25l.594 1.142L10.438 5h1.188l-1.037 3 1.186 3z"/></g></svg>