<svg xmlns="http://www.w3.org/2000/svg" viewBox="0 0 16 16"><style>.st0{opacity:0}.st0,.st1{fill:#f6f6f6}.st2{fill:#424242}.st3{fill:none}.st4{fill:#f0eff1}</style><g id="outline"><path class="st0" d="M0 0h16v16H0z"/><path class="st1" d="M2 0h13v15H2z"/></g><g id="icon_x5F_bg"><path class="st2" d="M7 13h1v1H7zM5 13h1v1H5zM3 13h1v1H3zM9 13h1v1H9zM11 13h1v1h-1zM13 13h1v1h-1zM3 1v11h1V2h9v10h1V1z"/><path class="st2" d="M7.558 6c-.506 0-.892.176-1.159.525-.266.351-.399.86-.399 1.528 0 1.287.492 1.933 1.477 1.933.49 0 .867-.174 1.129-.521.263-.348.394-.848.394-1.5C9 6.654 8.52 6 7.558 6zm-.052 3.336c-.387 0-.58-.436-.58-1.305 0-.922.197-1.383.592-1.383.369 0 .554.447.554 1.344-.001.895-.189 1.344-.566 1.344zM9.957 6.367c-.091.048-.194.077-.291.117v.771c.04-.013.081-.023.119-.039.072-.031.139-.064.203-.102a.89.89 0 0 0 .165-.116V10H11V6.035h-.514a3.353 3.353 0 0 1-.529.332z"/></g><g id="icon_x5F_fg"><path class="st3" d="M13 2H4h9z"/><path class="st4" d="M7.518 6.648c-.395 0-.592.461-.592 1.383 0 .869.193 1.305.58 1.305.377 0 .565-.449.565-1.344 0-.896-.184-1.344-.553-1.344z"/><path class="st4" d="M4 2v10h9V2H4zm4.605 7.465c-.261.348-.638.521-1.128.521C6.492 9.986 6 9.34 6 8.053c0-.668.133-1.177.399-1.527.267-.35.653-.526 1.159-.526C8.52 6 9 6.654 9 7.965c0 .652-.131 1.152-.395 1.5zM11 10h-.847V6.999a.89.89 0 0 1-.165.116c-.064.037-.131.07-.203.102-.038.015-.079.026-.119.039v-.772c.097-.04.2-.069.291-.117.195-.1.372-.211.529-.332H11V10z"/></g></svg>