<svg xmlns="http://www.w3.org/2000/svg" viewBox="0 0 16 16"><style>.st0{opacity:0}.st0,.st1{fill:#f6f6f6}.st2{fill:#424242}.st3{fill:#f0eff1}</style><g id="outline"><path class="st0" d="M0 0h16v16H0z"/><path class="st1" d="M14.495 9c.32-.423.505-.947.505-1.5C15 6.122 13.879 5 12.5 5S10 6.122 10 7.5c0 .553.185 1.077.505 1.5h-.632c.074-.251.127-.511.127-.786V5h2V2.429C12 1.089 10.91 0 9.571 0H4.143A3.147 3.147 0 0 0 1 3.143V7H0v1c0 .52.143 1.039.413 1.503A3.005 3.005 0 0 0 3 11h2.513A2.471 2.471 0 0 0 5 12.5C5 13.879 6.122 15 7.5 15a2.49 2.49 0 0 0 1.5-.506V16h7V9h-1.505zm-5.612 1.432c.04-.032.078-.065.117-.098v.172c-.037-.029-.079-.049-.117-.074z"/></g><g id="icon_x5F_bg"><path class="st2" d="M13 10V8.908A1.496 1.496 0 0 0 12.5 6a1.495 1.495 0 1 0-.5 2.908V10h-2v2H8.908A1.496 1.496 0 0 0 6 12.5a1.496 1.496 0 1 0 2.908.5H10v2h5v-5h-2zm1 4h-3v-3h3v3z"/><path class="st2" d="M9.571 1H4.143A2.142 2.142 0 0 0 2 3.143V8H1c0 .366.105.705.277 1 .347.596.985 1 1.723 1h4.215C8.201 10 9 9.2 9 8.214V4h2V2.429A1.43 1.43 0 0 0 9.571 1zM8 8.214A.787.787 0 0 1 7.215 9H7a1 1 0 0 1-1-1H3V3.143C3 2.513 3.513 2 4.143 2H8v6.214z"/></g><g id="icon_x5F_fg"><path class="st3" d="M11 11h3v3h-3zM3 3.143V8h3a1 1 0 0 0 1 1h.215A.787.787 0 0 0 8 8.214V2H4.143C3.513 2 3 2.513 3 3.143z"/></g></svg>