<svg xmlns="http://www.w3.org/2000/svg" viewBox="0 0 16 16"><style>.st0,.st1{fill:#f6f6f6}.st1{opacity:0}.st2{fill:none}.st3{fill:#f0eff1}.st4{fill:#424242}</style><g id="outline"><path class="st0" d="M2 15V0h9.414L15 3.586V15H2z"/><path class="st1" d="M0 0h16v16H0z"/><path class="st0" d="M2 0h13v15H2z"/></g><g id="icon_x5F_fg"><path class="st2" d="M13 2H4h9z"/><path class="st3" d="M6.103 8.223a.557.557 0 0 0-.196.132c-.047.053-.08.112-.097.18s-.028.147-.028.233a.513.513 0 0 0 .157.39.528.528 0 0 0 .186.113.682.682 0 0 0 .242.041.76.76 0 0 0 .593-.271.897.897 0 0 0 .165-.295c.038-.113.059-.234.059-.365v-.346l-.761.11a1.29 1.29 0 0 0-.32.078zM11.079 6.977a.646.646 0 0 0-.571-.32.674.674 0 0 0-.331.082.756.756 0 0 0-.257.232c-.072.101-.128.22-.168.359s-.061.295-.061.465v.506c0 .137.02.264.057.381a.994.994 0 0 0 .154.307.74.74 0 0 0 .237.207.68.68 0 0 0 .651-.016.747.747 0 0 0 .264-.266c.073-.117.129-.266.168-.445.04-.18.06-.387.06-.621 0-.184-.018-.348-.052-.494a1.219 1.219 0 0 0-.151-.377z"/><path class="st3" d="M4 2v10h9V2H4zm3.962 7.906h-.785v-.529h-.014c-.12.203-.267.357-.439.463-.173.107-.374.16-.604.16-.181 0-.339-.027-.479-.084a.974.974 0 0 1-.351-.234 1.007 1.007 0 0 1-.216-.362A1.388 1.388 0 0 1 5 8.857c0-.164.021-.318.065-.461a1.065 1.065 0 0 1 .562-.66c.146-.074.321-.125.525-.152l1.03-.154c0-.275-.058-.475-.174-.6-.115-.123-.279-.185-.492-.185-.214 0-.423.039-.627.117a1.93 1.93 0 0 0-.544.312v-.767c.051-.035.121-.072.213-.113a3.196 3.196 0 0 1 .672-.195c.127-.021.249-.033.368-.033.234 0 .438.033.608.102.171.067.313.164.424.293.11.129.194.287.249.471.056.186.083.398.083.637v2.437zm3.946-1.201c-.062.26-.152.484-.273.672a1.34 1.34 0 0 1-.443.443c-.176.107-.379.16-.609.16a.932.932 0 0 1-.292-.043.835.835 0 0 1-.238-.121.99.99 0 0 1-.192-.185 1.512 1.512 0 0 1-.151-.229h-.013v.484H9V4h.697v2.656h.013c.054-.105.115-.201.181-.289.067-.086.142-.16.226-.223a.997.997 0 0 1 .614-.198c.222 0 .413.05.573.153.159.102.291.24.394.416.103.176.178.379.228.611.049.233.074.478.074.735 0 .305-.031.584-.092.844z"/></g><g id="icon_x5F_bg"><path class="st4" d="M7 13h1v1H7zM5 13h1v1H5zM3 13h1v1H3zM9 13h1v1H9zM11 13h1v1h-1zM13 13h1v1h-1zM3 1v11h1V2h9v10h1V1z"/><path class="st4" d="M7.63 6.361a1.08 1.08 0 0 0-.424-.295 1.644 1.644 0 0 0-.608-.101c-.119 0-.241.012-.368.033a3.213 3.213 0 0 0-.673.195 1.313 1.313 0 0 0-.212.114v.768c.158-.132.341-.235.544-.313.204-.078.413-.117.627-.117.213 0 .377.063.494.186.116.125.174.324.174.6l-1.03.154c-.205.026-.38.077-.526.151a1.083 1.083 0 0 0-.563.66A1.562 1.562 0 0 0 5 8.857c0 .17.025.323.074.463a.945.945 0 0 0 .568.596c.139.057.297.084.478.084.229 0 .431-.053.604-.16a1.3 1.3 0 0 0 .439-.463h.014v.529h.785V7.469c0-.238-.027-.451-.083-.637a1.286 1.286 0 0 0-.249-.471zm-.446 2.02c0 .131-.02.252-.059.365a.897.897 0 0 1-.165.295.758.758 0 0 1-.593.272.682.682 0 0 1-.242-.041.507.507 0 0 1-.302-.286.583.583 0 0 1-.041-.218c0-.086.01-.164.027-.232s.051-.127.098-.18a.546.546 0 0 1 .196-.133c.083-.033.189-.061.32-.078l.761-.109v.345zM11.698 6.516a1.203 1.203 0 0 0-.394-.416 1.03 1.03 0 0 0-.573-.153c-.123 0-.234.018-.336.052a1.024 1.024 0 0 0-.278.146 1.222 1.222 0 0 0-.226.223 1.957 1.957 0 0 0-.181.288h-.013V4H9v5.887h.697v-.485h.013c.044.082.095.158.151.229.057.07.119.133.191.186a.835.835 0 0 0 .238.121.932.932 0 0 0 .292.043c.231 0 .434-.053.609-.16a1.34 1.34 0 0 0 .443-.443 2.18 2.18 0 0 0 .273-.672c.062-.261.093-.54.093-.845a3.54 3.54 0 0 0-.074-.734 2.047 2.047 0 0 0-.228-.611zm-.476 1.953c-.039.18-.095.328-.168.445a.747.747 0 0 1-.264.266.677.677 0 0 1-.651.016.74.74 0 0 1-.237-.207 1.005 1.005 0 0 1-.154-.307 1.262 1.262 0 0 1-.057-.381v-.506c0-.17.021-.326.061-.465s.096-.258.168-.359a.756.756 0 0 1 .257-.232c.1-.055.21-.082.331-.082a.646.646 0 0 1 .571.32c.066.105.116.23.15.377.034.146.052.311.052.494 0 .234-.019.441-.059.621z"/></g></svg>