<svg xmlns="http://www.w3.org/2000/svg" viewBox="0 0 16 16"><style>.st0{opacity:0}.st0,.st1{fill:#f6f6f6}.st2{fill:#424242}</style><g id="outline"><path class="st0" d="M0 0h16v16H0z"/><path class="st1" d="M14 6V4h-3v.806a6.495 6.495 0 0 0-.722-1.384L9.979 3h-4.05l.794 1h-1.88l.794-1H1.585l-.298.422C.541 4.476 0 6.212 0 7.551c0 1.285.493 2.93 1.198 4l.296.449h4.014l-.755-1h2.061l-.755 1h4.013l.297-.449c.245-.371.45-.822.632-1.294V11h3V9h2V6H14z"/></g><g id="icon_x5F_bg"><path class="st2" d="M15 7h-2V5h-1v2h-2v1h2v2h1V8h2z"/><path class="st2" d="M9.357 7.551C9.357 6.04 8.801 5.008 8 4h1.463c.621.876 1.104 2.396 1.104 3.551 0 1.11-.447 2.561-1.033 3.449H8.066c.763-1.01 1.291-2.203 1.291-3.449zm-7.148 0c0-1.511.557-2.543 1.357-3.551H2.103C1.483 4.876 1 6.396 1 7.551c0 1.11.447 2.56 1.033 3.449H3.5c-.763-1.01-1.291-2.203-1.291-3.449zM5.643 4.799c-.158.025-1.14.391-1.14.424v.914c0-.086 1.875-1.006 2.423.031v.457l-1.223.161a2.723 2.723 0 0 0-.813.22c-.217.104-.391.23-.523.376a1.275 1.275 0 0 0-.281.493 1.898 1.898 0 0 0 .013 1.17c.067.184.164.34.295.471.129.133.292.238.484.311.193.076.415.115.666.115.33 0 .619-.072.865-.215a1.76 1.76 0 0 0 .517-.498V10H8V5.813s-.391-1.329-2.357-1.014zm1.283 3.513c-.038.079-.292.438-.818.593a.744.744 0 0 1-.864-.301.595.595 0 0 1-.043-.227c0-.188.054-.334.164-.444.109-.109.505-.294.782-.335l.779-.102v.816z"/></g></svg>