<svg xmlns="http://www.w3.org/2000/svg" viewBox="0 0 16 16"><style>.st0{opacity:0}.st0,.st1{fill:#f6f6f6}.st2{fill:#424242}.st3{fill:#f0eff1}</style><g id="outline"><path class="st0" d="M0 0h16v16H0z"/><path class="st1" d="M0 0v13h.882l1.5 3h3.236l1.5-3H16V0z"/></g><g id="icon_x5F_bg"><path class="st2" d="M1 1v9h1V2h12v9H8.118l-.5 1H15V1z"/><path class="st2" d="M7 7l-3 6-1-2H1l2 4h2l4-8zM4 4h1v1H4zM11 8h1v1h-1zM9 4h1v1H9zM11 4h1v1h-1zM6 4h1v1H6zM5 8h.382l1-2H6V5H5v1H4v1h1z"/><path class="st2" d="M5 8.764V8H4v1h.882zM11 6V5h-1v1h.618L10 7.236V8h1V7h1V6zM9.118 9H10V8h-.382z"/></g><g id="icon_x5F_fg"><path class="st3" d="M9.618 8H10v-.764zM5.382 8H5v.764z"/><path class="st3" d="M2 2v8h1.618l.382.764L4.882 9H4V8h1V7H4V6h1V5H4V4h1v1h1V4h1v1H6v1h4V5H9V4h1v1h1V4h1v1h-1v1h1v1h-1v1h1v1h-1V8h-1v1h-.882l-1 2H14V2z"/></g></svg>