<svg xmlns="http://www.w3.org/2000/svg" viewBox="0 0 16 16"><style>.st0{opacity:0}.st0,.st1{fill:#f6f6f6}.st2{fill:#424242}</style><g id="outline"><path class="st0" d="M0 0h16v16H0z"/><path class="st1" d="M13.64 7.396l-1.471-4.498-1.463.863L11.087 2h-4.53l.379 1.762-1.463-.864L4 7.396l1.682.158-1.169 1.007.5.439H2v5h5v-3.253l.978.859.842-1.881.841 1.877 3.483-3.04-1.176-1.008z"/></g><g id="icon_x5F_bg"><path class="st2" d="M12.301 6.518l-2.772.262 2.086 1.788-1.594 1.392L8.82 7.278 7.619 9.96 6.036 8.568 8.111 6.78 5.34 6.518l.696-2.126 2.358 1.392L7.795 3h2.053l-.602 2.783 2.359-1.392.696 2.127zM3 10h3v3H3z"/></g></svg>