<svg xmlns="http://www.w3.org/2000/svg" viewBox="0 0 16 16"><style>.st0{opacity:0}.st0,.st1{fill:#f6f6f6}.st2{fill:#424242}.st3{fill:#f0eff1}</style><g id="outline"><path class="st0" d="M0 0h16v16H0z"/><path class="st1" d="M12 7.586v1.131c-.542-.388-1.277-.63-2.112-.691L10.914 7h-1.52A4.702 4.702 0 0 0 10 4.688C10 2.43 8.401.467 6.199.02L6.1 0H2.086L0 2.086V3h.605A4.713 4.713 0 0 0 0 5.313C0 7.57 1.599 9.533 3.801 9.98l.669.136L2.586 12l4 4H7v-.717c.626.448 1.501.717 2.5.717.999 0 1.874-.269 2.5-.717V16h.414L16 12.414v-.828l-4-4zm-8-1.5v.851a1.56 1.56 0 0 1-.616-.407L6 3.914v-.851c.237.093.454.222.616.407L4 6.086z"/></g><g id="icon_x5F_bg"><path class="st2" d="M6 14v-1l-1-1 1-1v-1l-2 2zM5 3.5V1H2.5l-1 1h1.519A3.737 3.737 0 0 0 1 5.313 3.764 3.764 0 0 0 4 9V8a2.561 2.561 0 0 1 0-5v1.5l1-1zM6.981 8A3.737 3.737 0 0 0 9 4.688 3.763 3.763 0 0 0 6 1v1a2.561 2.561 0 0 1 0 5V5.5l-1 1V9h2.5l1-1H6.981zM13 10v1l1 1-1 1v1l2-2zM9.5 9C8.119 9 7 9.672 7 10.5v3c0 .828 1.119 1.5 2.5 1.5s2.5-.672 2.5-1.5v-3C12 9.672 10.881 9 9.5 9zm0 2.425c-1.084 0-1.925-.497-1.925-.925s.841-.925 1.925-.925 1.925.497 1.925.925-.841.925-1.925.925z"/></g><path class="st3" d="M9.5 9.575c-1.084 0-1.925.497-1.925.925s.841.925 1.925.925 1.925-.497 1.925-.925-.841-.925-1.925-.925z" id="icon_x5F_fg"/></svg>