<svg xmlns="http://www.w3.org/2000/svg" viewBox="0 0 16 16"><style>.st0{opacity:0}.st0,.st1{fill:#f6f6f6}.st2{fill:#424242}</style><g id="outline"><path class="st0" d="M0 0h16v16H0z"/><path class="st1" d="M15 6V2H5v1.101l-1 1V2H1v2.103l-1-1v3.831L1.078 8 0 9.067v3.831l1-1V14h3v-2.104l1 .999V14h10v-4h1V6h-1zM3.922 8L4 7.923v.155L3.922 8z"/></g><g id="icon_x5F_bg"><path class="st2" d="M6 3h8v2H6zM4 6.517V5.516L3 6.517V3H2v3.517l-1-1v1L2.5 8zM1 9.484v1l1-1V13h1V9.484l1 .999v-.999L2.5 8zM6 11h8v2H6zM5 7h10v2H5z"/></g></svg>