<svg xmlns="http://www.w3.org/2000/svg" viewBox="0 0 16 16"><style>.icon-canvas-transparent{opacity:0;fill:#f6f6f6}.icon-vs-out{fill:#f6f6f6}.icon-vs-bg{fill:#424242}.icon-vs-fg{fill:#f0eff1}.icon-vs-action-red{fill:#a1260d}</style><path class="icon-canvas-transparent" d="M16 16H0V0h16v16z" id="canvas"/><path class="icon-vs-out" d="M16 9.087c-.02-.038-.028-.079-.051-.117L14 5.723V5h1V2H8.354l-2-2h-.829L3.97 1.556 2.414 0h-.828L0 1.586v.949L1.495 4.03 0 5.525v.949l2 2 1.97-1.97 1.97 1.97.06-.06v.309l-1.949 3.248a1.977 1.977 0 0 0-.025 2.015A1.977 1.977 0 0 0 5.766 15h5.467c.729 0 1.381-.379 1.74-1.014A1.978 1.978 0 0 0 12.966 12h1.267c.729 0 1.381-.379 1.74-1.014.012-.021.015-.044.026-.065V9.087zM8 5l-.293.293L6.444 4.03 8 2.475V5z" id="outline"/><path class="icon-vs-bg" d="M15.091 9.485L13 6V4h1V3H9v1h1v1h1V4h1v2.303L12.968 8H11v.723L12.366 11h1.868a1 1 0 0 0 .857-1.515zm-3 3L10 9V7h1V6H8.414L7 7.414V9l-2.091 3.485A1 1 0 0 0 5.766 14h5.468a1 1 0 0 0 .857-1.515zM8 11h-.968L8 9.303V7h1v2.303L9.968 11H8z" id="iconBg"/><path class="icon-vs-fg" d="M10.968 4h1v1h-1V4zM9 7H8v2.303L7.032 11h2.936L9 9.303V7zm3-.641V8h.936L12 6.359z" id="iconFg"/><path class="icon-vs-action-red" d="M5.03 4.03L7 6 5.939 7.061l-1.97-1.97L2 7.061.939 6l1.97-1.97-1.97-1.97L2 1l1.97 1.97L5.939 1 7 2.06 5.03 4.03z" id="colorAction"/></svg>