<svg xmlns="http://www.w3.org/2000/svg" viewBox="0 0 16 16"><style>.st0{opacity:0}.st0,.st1{fill:#f6f6f6}.st2{fill:#424242}.st3{fill:#f0eff1}</style><g id="outline"><path class="st0" d="M0 0h16v16H0z"/><circle class="st1" cx="8" cy="8" r="8"/></g><g id="icon_x5F_bg"><path class="st2" d="M8 1a7 7 0 1 0 0 14A7 7 0 0 0 8 1zm0 13.15c-3.309 0-6.15-2.842-6.15-6.15 0-3.309 2.841-6.15 6.15-6.15S14.15 4.691 14.15 8 11.309 14.15 8 14.15z"/><path class="st2" d="M4 7h8v2H4z"/></g><path class="st3" d="M8 1.85C4.691 1.85 1.85 4.691 1.85 8S4.691 14.15 8 14.15s6.15-2.842 6.15-6.15c0-3.309-2.841-6.15-6.15-6.15zM12 9H4V7h8v2z" id="icon_x5F_fg"/></svg>