<svg xmlns="http://www.w3.org/2000/svg" viewBox="0 0 16 16"><style>.st0{opacity:0}.st0,.st1{fill:#f6f6f6}.st2{fill:#424242}.st3{fill:#00539c}</style><g id="outline"><path class="st0" d="M0 0h16v16H0z"/><path class="st1" d="M13.414 11l-1 1H14v3h-2v1H9.086L8 14.914 6.914 16H4v-1H2v-3h1.586l-1-1H2V1h4V0h4v1h4v10h-.586z"/></g><path class="st2" d="M9 1v10H7V1h2zm2 1v8h2V2h-2zM3 2v8h2V2H3z" id="icon_x5F_bg"/><g id="color_x5F_action"><path class="st3" d="M6.5 12H5l1 1H3v1h3l-1 1h1.5L8 13.5zM8 13.5L9.5 15H11l-1-1h3v-1h-3l1-1H9.5z"/></g></svg>