<svg xmlns="http://www.w3.org/2000/svg" viewBox="0 0 16 16"><style>.icon-canvas-transparent{opacity:0;fill:#f6f6f6}.icon-vs-out{fill:#f6f6f6}.icon-vs-bg{fill:#424242}.icon-vs-fg{fill:#f0eff1}.icon-vs-action-red{fill:#a1260d}</style><path class="icon-canvas-transparent" d="M16 16H0V0h16v16z" id="canvas"/><path class="icon-vs-out" d="M16 3v10h-5v3H3V6h2V5H0V1h5V0h8v3h3z" id="outline"/><path class="icon-vs-bg" d="M4 15h6V7H4v8zm1-7h4v6H5V8zm10-4v8h-4v-1h3V5h-4v1H9V4h6zM6 6V5h1v1H6zm5-4H8V1h4v2h-1V2z" id="iconBg"/><path class="icon-vs-fg" d="M14 5v6h-3V6h-1V5h4zm-9 9h4V8H5v6zm3-9H7v1h1V5zm3-3H8v1h3V2z" id="iconFg"/><path class="icon-vs-action-red" d="M7 4H1V2h6v2z" id="colorAction"/></svg>