<svg xmlns="http://www.w3.org/2000/svg" viewBox="0 0 16 16"><style>.icon-canvas-transparent{opacity:0;fill:#f6f6f6}.icon-vs-out{fill:#f6f6f6}.icon-vs-bg{fill:#424242}.icon-vs-fg{fill:#f0eff1}.icon-vs-action-red{fill:#a1260d}</style><path class="icon-canvas-transparent" d="M16 16H0V0h16v16z" id="canvas"/><path class="icon-vs-out" d="M16 1v15H4v-4H2V6H0V2h4V1h12z" id="outline"/><path class="icon-vs-bg" d="M8 2v1h4v3H3v5h2v4h10V2H8zm-4 8V7h6v3H4zm8 4H6v-3h6v3z" id="iconBg"/><path class="icon-vs-fg" d="M10 10H4V7h6v3zm-4 4h6v-3H6v3zM8 3v3h4V3H8z" id="iconFg"/><path class="icon-vs-action-red" d="M7 5H1V3h6v2z" id="colorAction"/></svg>