<svg xmlns="http://www.w3.org/2000/svg" viewBox="0 0 16 16"><style>.icon-canvas-transparent{opacity:0;fill:#f6f6f6}.icon-vs-out{fill:#f6f6f6}.icon-vs-bg{fill:#424242}.icon-vs-fg{fill:#f0eff1}.icon-vs-action-red{fill:#a1260d}</style><path class="icon-canvas-transparent" d="M16 16H0V0h16v16z" id="canvas"/><path class="icon-vs-out" d="M15.541 13.702a2.011 2.011 0 0 1-1.315 1.22 2.006 2.006 0 0 1-.558.078H5.332a2.01 2.01 0 0 1-.558-.078 2.005 2.005 0 0 1-1.125-3.003l2.268-3.528L4.03 6.505l-1.97 1.97L0 6.414v-.828L1.556 4.03 0 2.475v-.829L1.646 0h.828L4.03 1.556 5.586 0h.828l2.061 2.061-.94.939H13v3h-1v.706l3.351 5.212a1.98 1.98 0 0 1 .19 1.784z" id="outline"/><path class="icon-vs-bg" d="M14.51 12.459l-2.221-3.455-1.055-1.641L11 7V5h1V4H7v.525L7.475 5H8v.525L8.475 6 8 6.475V7l-.233.363-1.055 1.641-2.222 3.455A1.002 1.002 0 0 0 5.332 14h8.337a1.002 1.002 0 0 0 .841-1.541zM7.276 10L9 7.291V5h1v2.291L11.724 10H7.276z" id="iconBg"/><path class="icon-vs-fg" d="M10 7.291L11.724 10H7.276L9 7.291V5h1v2.291z" id="iconFg"/><path class="icon-vs-action-red" d="M5.091 4.03L7.061 6 6 7.061l-1.97-1.97-1.97 1.97L1 6l1.97-1.97L1 2.06 2.061 1l1.97 1.97L6 1l1.061 1.06-1.97 1.97z" id="colorAction"/></svg>