<svg xmlns="http://www.w3.org/2000/svg" viewBox="0 0 16 16"><style>.st0{opacity:0}.st0,.st1{fill:#f6f6f6}.st2{fill:#424242}.st3{fill:#f0eff1}.st4{fill:#e51400}.st5{fill:#fff}</style><g id="outline"><path class="st0" d="M0 0h16v16H0z"/><path class="st0" d="M0 0h16v16H0z"/><path class="st1" d="M14.404 8.091l.037-.042.476-.614-.698-.895.354-.044.781-.19.1-.768A3.79 3.79 0 0 0 15.5 5c0-.182-.021-.357-.059-.631l-.098-.769-1.124-.141.698-.895-.476-.614a5.037 5.037 0 0 0-.89-.891l-.614-.477-.897.7-.044-.355-.191-.782-.769-.099C10.859.021 10.684 0 10.5 0s-.359.021-.632.059L9.1.158l-.14 1.124-.897-.699-.615.477A4.935 4.935 0 0 0 7 1.456V0H0v9h3v2H2v1H0v3h2v1h5v-1h1v1h5v-.276A4.469 4.469 0 0 0 14.294 15H15v-.706c.616-.77 1-1.733 1-2.794 0-1.369-.628-2.583-1.596-3.409zM6 3h.423l.358.459-.354.045L6 3.609V3zm1 9v-1H6V9h1v-.456c.142.14.291.273.448.396l.243.188A4.467 4.467 0 0 0 7 11.5c0 .171.032.334.051.5H7zm3.5-6a1.001 1.001 0 0 1 0-2 1.001 1.001 0 0 1 0 2z"/></g><g id="icon_x5F_bg"><path class="st2" d="M8.117 6.453l-.767.985c.207.267.445.505.712.712l.985-.768c.107.065.22.12.335.171A4.455 4.455 0 0 1 11.5 7c.748 0 1.442.201 2.064.525.026-.032.061-.054.087-.087l-.768-.984c.148-.244.262-.51.331-.795l1.235-.154c.022-.167.051-.331.051-.505 0-.172-.029-.336-.051-.504l-1.235-.154a2.804 2.804 0 0 0-.331-.795l.768-.984a3.972 3.972 0 0 0-.712-.713l-.985.768a2.773 2.773 0 0 0-.795-.33l-.154-1.236C10.837 1.029 10.673 1 10.5 1s-.337.029-.504.051l-.154 1.236a2.773 2.773 0 0 0-.795.33l-.985-.767a3.972 3.972 0 0 0-.712.713l.768.984c-.148.244-.262.51-.331.795l-1.236.154c-.022.168-.051.332-.051.504 0 .174.029.338.051.504l1.235.154c.069.285.183.551.331.795zM10.5 3c1.107 0 2 .896 2 2s-.893 2-2 2-2-.896-2-2 .893-2 2-2zM1 1h5v1H1zM1 4h4v1H1zM1 7h5v1H1z"/><circle class="st2" cx="10.5" cy="5" r="1"/><path class="st2" d="M7.276 13H6v-1H5v-2H4v2H3v1H1v1h2v1h3v-1h1.762a4.472 4.472 0 0 1-.486-1z"/></g><path class="st3" d="M10.5 3a2 2 0 1 0 .001 4.001A2 2 0 0 0 10.5 3zm0 3a1 1 0 1 1 0-2 1 1 0 1 1 0 2z" id="icon_x5F_fg"/><path class="st4" d="M11.5 8a3.5 3.5 0 1 0-.001 6.999A3.5 3.5 0 0 0 11.5 8zm1.854 4.646l-.707.707-1.147-1.146-1.146 1.147-.707-.707 1.147-1.146-1.147-1.146.707-.707 1.146 1.147 1.146-1.147.707.707-1.146 1.145 1.147 1.146z" id="not_x5F_bg"/><path class="st5" d="M13.354 10.354l-.708-.708-1.146 1.147-1.146-1.147-.708.708 1.147 1.146-1.147 1.146.708.708 1.146-1.147 1.146 1.147.708-.708-1.147-1.146z" id="not_x5F_fg"/></svg>