<svg xmlns="http://www.w3.org/2000/svg" viewBox="0 0 16 16"><style>.icon-canvas-transparent{opacity:0;fill:#f6f6f6}.icon-vs-out{fill:#f6f6f6}.icon-vs-bg{fill:#424242}.icon-vs-action-red{fill:#a1260d}</style><path class="icon-canvas-transparent" d="M16 0v16H0V0h16z" id="canvas"/><path class="icon-vs-out" d="M16 11c0 2.206-1.794 4-4 4H7a4.008 4.008 0 0 1-3.896-3.089l-.417-.146A4 4 0 0 1 0 8c0-.472.097-.918.247-1.339L0 6.414v-.949L1.495 3.97 0 2.475v-.95L1.525 0h.949L3.97 1.495 5.465 0h.949l2 2-1.97 1.97.031.03H9a4.009 4.009 0 0 1 3.896 3.089l.417.146A4 4 0 0 1 16 11z" id="outline"/><path class="icon-vs-bg" d="M8.414 5.939L7.475 5H9c1.654 0 3 1.346 3 3s-1.346 3-3 3H6c0-.551.449-1 1-1h2c1.102 0 2-.897 2-2s-.898-2-2-2h-.646l.06-.061zM2.054 8.36L2 8.414l-.946-.946C1.023 7.641 1 7.818 1 8c0 1.309.847 2.412 2.018 2.821.016-.345.079-.676.177-.993A1.992 1.992 0 0 1 2.054 8.36zm10.928-.181a3.967 3.967 0 0 1-.177.993A2.002 2.002 0 0 1 14 11c0 1.102-.898 2-2 2H7c-1.103 0-2-.898-2-2 0-1.103.897-2 2-2h2c.552 0 1-.449 1-1H7c-1.654 0-3 1.346-3 3s1.346 3 3 3h5c1.654 0 3-1.346 3-3a2.993 2.993 0 0 0-2.018-2.821z" id="iconBg"/><g id="colorAction"><path class="icon-vs-action-red" d="M5.03 3.97L7 5.939 5.939 7 3.97 5.03 2 7 .939 5.939l1.97-1.97L.939 2 2 .939l1.97 1.97L5.94.939 7 2 5.03 3.97z"/></g></svg>