<svg xmlns="http://www.w3.org/2000/svg" viewBox="0 0 16 16" enable-background="new 0 0 16 16"><style type="text/css">.icon-canvas-transparent{opacity:0;fill:#F6F6F6;} .icon-vs-out{fill:#F6F6F6;} .icon-vs-bg{fill:#424242;} .icon-vs-fg{fill:#F0EFF1;} .icon-vs-action-red{fill:#A1260D;}</style><path class="icon-canvas-transparent" d="M16 16h-16v-16h16v16z" id="canvas"/><path class="icon-vs-out" d="M16 4v12h-16v-14h8v2h8z" id="outline"/><path class="icon-vs-fg" d="M2 6v8h12v-8h-12zm1.979 7.104l-.707-.707 2.396-2.397-2.397-2.396.707-.707 3.104 3.103-3.103 3.104z" id="iconFg"/><path class="icon-vs-bg" d="M3.271 12.396l2.397-2.396-2.397-2.396.707-.707 3.104 3.103-3.104 3.103-.707-.707zm4.729-7.396v1h6v8h-12v-8h-1v9h14v-10h-7z" id="iconBg"/><rect x="1" y="3" class="icon-vs-action-red" width="6" height="2" id="colorAction"/></svg>