<svg xmlns="http://www.w3.org/2000/svg" viewBox="0 0 16 16"><style>.icon-canvas-transparent{opacity:0;fill:#f6f6f6}.icon-vs-out{fill:#f6f6f6}.icon-vs-fg{fill:#f0eff1}.icon-folder{fill:#dcb67a}.icon-vs-action-red{fill:#a1260d}.icon-vs-action-blue{fill:#00539c}</style><path class="icon-canvas-transparent" d="M.086 16h15.828a.085.085 0 0 0 .086-.086V.086A.085.085 0 0 0 15.914 0H.086A.085.085 0 0 0 0 .086v15.828c0 .048.038.086.086.086z" id="canvas"/><path class="icon-vs-out" d="M13.914 2h-1.05a.086.086 0 0 1-.061-.025l-.95-.95a.086.086 0 0 0-.06-.025H8.086A.085.085 0 0 0 8 1.086V4c0-1.103-.897-2-2-2H4.864a.086.086 0 0 1-.061-.025l-.95-.95A.086.086 0 0 0 3.793 1H.086A.085.085 0 0 0 0 1.086v4.828C0 7.066.934 8 2.086 8L1.025 9.061A.086.086 0 0 0 1 9.122v4.293l1-1v1A2.586 2.586 0 0 0 4.586 16h6.828A2.586 2.586 0 0 0 14 13.414v-1l1 1V9.122a.086.086 0 0 0-.025-.061L13.914 8A2.086 2.086 0 0 0 16 5.914V4.086A2.086 2.086 0 0 0 13.914 2zm-3.225 10.725l.311-.311V13h-.036l-.275-.275zM6 8c.91 0 1.679-.61 1.921-1.443.025-.086.133-.086.158 0A2.003 2.003 0 0 0 10 8h1.086l-1.061 1.061c-.007.007-.006.017-.01.025v-.001l-1.579 1.387-1.301-1.3L6 10.308V9.122a.086.086 0 0 0-.025-.061L4.914 8H6zm0 4.908v-.644l.322.322-.322.322zm-1-.494l.586.586H5v-.586z" id="outline"/><g id="iconBg"><path class="icon-folder" d="M11.378 2c.023 0 .045.009.061.025l.975.975h1.5c.6 0 1.086.486 1.086 1.086v1.828C15 6.514 14.514 7 13.914 7h-3.828C9.486 7 9 6.514 9 5.914V2.086C9 2.038 9.038 2 9.086 2h2.292zM1 2.086v3.828C1 6.514 1.486 7 2.086 7h3.828C6.514 7 7 6.514 7 5.914V4.086C7 3.486 6.514 3 5.914 3h-1.5l-.975-.975A.086.086 0 0 0 3.379 2H1.086A.085.085 0 0 0 1 2.086zM2 3h1l.975.975A.086.086 0 0 0 4.036 4h1.879c.047 0 .085.038.085.086v1.828A.085.085 0 0 1 5.914 6H2.086A.085.085 0 0 1 2 5.914V3z"/><path class="icon-folder" d="M11.378 2c.023 0 .045.009.061.025l.975.975h1.5c.6 0 1.086.486 1.086 1.086v1.828C15 6.514 14.514 7 13.914 7h-3.828C9.486 7 9 6.514 9 5.914V2.086C9 2.038 9.038 2 9.086 2h2.292zM1 2.086v3.828C1 6.514 1.486 7 2.086 7h3.828C6.514 7 7 6.514 7 5.914V4.086C7 3.486 6.514 3 5.914 3h-1.5l-.975-.975A.086.086 0 0 0 3.379 2H1.086A.085.085 0 0 0 1 2.086zM2 3h1l.975.975A.086.086 0 0 0 4.036 4h1.879c.047 0 .085.038.085.086v1.828A.085.085 0 0 1 5.914 6H2.086A.085.085 0 0 1 2 5.914V3z"/></g><path class="icon-vs-action-blue" d="M5.136 14h-.55A.588.588 0 0 1 4 13.414V10l1 1V9.536a.086.086 0 0 0-.025-.061L3.561 8.061a.085.085 0 0 0-.121 0L2.025 9.475A.086.086 0 0 0 2 9.536V11l1-1v3.414C3 14.286 3.714 15 4.586 15h1.55l-1-1zm8.839-4.525l-1.414-1.414a.085.085 0 0 0-.121 0l-1.414 1.414a.083.083 0 0 0-.026.061V11l1-1v3.414C12 14.128 10.736 15 10.736 15h.678c.872 0 1.586-.714 1.586-1.586V10l1 1V9.536a.086.086 0 0 0-.025-.061z" id="colorImportance"/><path class="icon-vs-fg" d="M4.036 4h1.879c.047 0 .085.038.085.086v1.828A.085.085 0 0 1 5.914 6H2.086A.085.085 0 0 1 2 5.914V3h1l.975.975A.086.086 0 0 0 4.036 4z" id="iconFg"/><path class="icon-vs-action-red" d="M9.136 12.586l1.3 1.3-.7.7-1.3-1.3-1.3 1.3-.7-.7 1.3-1.3-1.3-1.3.7-.7 1.3 1.3 1.3-1.3.7.7-1.3 1.3z" id="colorAction"/></svg>