<svg xmlns="http://www.w3.org/2000/svg" viewBox="0 0 16 16"><style>.icon-canvas-transparent{opacity:0;fill:#f6f6f6}.icon-vs-out{fill:#f6f6f6}.icon-vs-bg{fill:#424242}.icon-vs-action-red{fill:#a1260d}</style><path class="icon-canvas-transparent" d="M16 16H0V0h16v16z" id="canvas"/><path class="icon-vs-out" d="M8.092 13.033h1L9.015 14v2h-1c-1.963 0-2.972-.895-3-2.659v-1.34l-.995-.06L4.014 11V8.061l1-.063v-.509L3.97 6.444 2 8.414l-2-2v-.949L1.495 3.97 0 2.475v-.95L1.525 0h.949L3.97 1.495 5.465 0h.949l2 2-1.97 1.97.23.23A4.147 4.147 0 0 1 7.855 4c.033-.005 1.159 0 1.159 0v3h-1v.938a3.88 3.88 0 0 1-.618 2.058c.377.573.618 1.307.618 2.004v.886a.49.49 0 0 0 .078.147zm7.894-4.977l-.973-.058V6.925c.003-.776.008-2.847-2.817-2.925h-1.183L11 7.01h1.014V8c0 .693.24 1.425.617 1.998-.377.573-.617 1.306-.617 2.002v.882c-.018.06-.036.113-.009.118h-.991v3h1c1.962 0 2.972-.895 3-2.666v-1.332l1-.061V9l-.028-.944z" id="outline"/><path class="icon-vs-bg" d="M7.883 5.01c.048-.001.081-.01.131-.01v.54l-.491-.492c.118-.014.223-.034.36-.038zm-.86 8.033A1.464 1.464 0 0 1 7.014 13v-1c0-.834-.496-1.736-1-2 .504-.269 1-1.167 1-2v-.661L5.957 8.396c-.168.569-.695.588-.943.604v2c.081.005.183.011.292.031a.967.967 0 0 1 .329.121c.21.129.379.374.379.848v1.325c.013.782.177 1.675 2 1.675v-1c-.729 0-.948-.766-.991-.957zM14.014 8V7c0-.814.065-1.937-1.869-1.99-.048-.001-.082-.01-.131-.01v1c.416 0 1 .16 1 1v1c0 .833.496 1.731 1 2-.504.264-1 1.166-1 2v1l-.009.043c-.043.191-.262.957-.991.957v1c1.824 0 1.987-.893 2-1.675.002-.112 0-.221 0-.325v-1c0-.947.678-.981 1-1V9c-.297-.019-1-.031-1-1z" id="icon_x5F_bg"/><path class="icon-vs-action-red" d="M5.03 3.97L7 5.939 5.939 7 3.97 5.03 2 7 .939 5.939l1.97-1.97L.939 2 2 .939l1.97 1.97L5.94.939 7 2 5.03 3.97z" id="color_x5F_action"/></svg>