<svg xmlns="http://www.w3.org/2000/svg" viewBox="0 0 16 16"><style>.st0{opacity:0}.st0,.st1{fill:#f6f6f6}.st2{fill:none}.st3{fill:#424242}.st4{fill:#f0eff1}</style><g id="outline"><path class="st0" d="M0 0h16v16H0z"/><path class="st1" d="M16 4v9h-4.16c-.579 0-.861.04-.997.075l-.389.925h-.906l-.391-.925C9.022 13.04 8.74 13 8.16 13H4V6H0V2h8v2h.5a2.316 2.316 0 0 1 1.502.545A2.308 2.308 0 0 1 11.5 4H16z"/></g><g id="icon_x5F_bg"><path class="st2" d="M11 7v4c.33-.205.565 0 1 0h2V6h-2c-.59 0-1 .615-1 1z"/><path class="st3" d="M1 3h6v2H1zM11.5 5c-.624 0-.984.365-1.5 1-.508-.626-.861-.996-1.5-1H8v1c.566 0 1 .663 1 1v4c-.33-.205-.564 0-1 0H6V6H5v6h3c.549 0 1.778-.025 2 .5.221-.525 1.451-.5 2-.5h3V5h-3.5zm2.5 6h-2c-.435 0-.67-.205-1 0V7c0-.385.41-1 1-1h2v5z"/></g><g id="icon_x5F_fg"><path class="st4" d="M12 6c-.59 0-1 .615-1 1v4c.33-.205.565 0 1 0h2V6h-2zM8 6H6v5h2c.436 0 .67-.205 1 0V7c0-.337-.434-1-1-1z"/></g></svg>