<svg xmlns="http://www.w3.org/2000/svg" viewBox="0 0 16 16"><style>.icon-canvas-transparent{opacity:0;fill:#f6f6f6}.icon-vs-out{fill:#f6f6f6}.icon-folder{fill:#dcb67a}.icon-vs-blue{fill:#1ba1e2}</style><path class="icon-canvas-transparent" d="M0 0h16v16H0V0z" id="canvas"/><path class="icon-vs-out" d="M16 8.165l-.263.658A5.5 5.5 0 0 1 16 10.5c0 3.032-2.468 5.5-5.5 5.5a5.49 5.49 0 0 1-4.263-2.031H2s-.86-.022-1.43-.566c-.343-.332-.57-.817-.57-1.434v-9c0-1.303 1.005-2 2-2h7.116l1 2H13c.97 0 2 .701 2 2v2h1v1.196z" id="outline"/><path class="icon-folder" d="M14 5v1.261a5.5 5.5 0 0 0-1-.654V5H9L8 3H2v9.984h-.003C1.94 12.984 1 12.97 1 12V3c0-1 1-1 1-1h6.5l1 2H13c-.236 0 1 0 1 1zM5.607 8H4l-2 5h3.607a5.463 5.463 0 0 1 0-5z" id="iconBg"/><g id="notificationBg"><path class="icon-vs-blue" d="M10.5 6C8.019 6 6 8.019 6 10.5S8.019 15 10.5 15s4.5-2.019 4.5-4.5S12.981 6 10.5 6zm0 8a3.5 3.5 0 1 1 0-7 3.5 3.5 0 0 1 0 7zM8.582 9.052l1.811 1.812-1.824 1.825-.605-.607 1.182-1.184.035-.035-.035-.035-1.168-1.17.604-.606zm3.236.795L13 11.029l-.606.607-1.824-1.825L12.381 8l.605.606-1.168 1.17-.035.035.035.036z"/></g></svg>