<svg xmlns="http://www.w3.org/2000/svg" viewBox="0 0 16 16"><style>.st0{opacity:0}.st0,.st1{fill:#f6f6f6}.st2{fill:#424242}.st3{fill:#f0eff1}</style><g id="outline"><path class="st0" d="M0 0h16v16H0z"/><path class="st1" d="M15.441 4.369l-.098-.769-1.124-.141.698-.895-.476-.614a5.037 5.037 0 0 0-.89-.891l-.614-.477-.897.7-.044-.355-.191-.782-.769-.099C10.859.021 10.684 0 10.5 0s-.359.021-.632.059L9.1.158l-.14 1.124-.897-.699-.615.477A4.935 4.935 0 0 0 7 1.456V0H0v9h7v-.456c.142.14.291.273.448.396l.614.477.897-.699.041.324V11H8v1H6v3h2v1h5v-1h2v-3h-2v-1h-1V9.046l.041-.327.896.698.614-.477c.333-.259.632-.559.89-.891l.476-.614-.698-.895.354-.044.781-.19.1-.768A3.79 3.79 0 0 0 15.5 5c0-.182-.021-.357-.059-.631zM6.423 3l.358.459-.354.045L6 3.609V3h.423zM10.5 4a1.001 1.001 0 0 1 0 2 1.001 1.001 0 0 1 0-2z"/></g><g id="icon_x5F_bg"><path class="st2" d="M14.449 4.496l-1.235-.154a2.804 2.804 0 0 0-.331-.795l.768-.984a3.972 3.972 0 0 0-.712-.713l-.985.768a2.773 2.773 0 0 0-.795-.33l-.154-1.236C10.837 1.029 10.673 1 10.5 1s-.337.029-.504.051l-.154 1.236a2.773 2.773 0 0 0-.795.33l-.985-.767a3.972 3.972 0 0 0-.712.713l.768.984c-.148.244-.262.51-.331.795l-1.236.154c-.022.168-.051.332-.051.504 0 .174.029.338.051.504l1.235.154c.069.285.183.551.331.795l-.767.985c.207.267.445.505.712.712l.985-.768c.244.148.51.262.795.332l.154 1.234c.167.023.331.052.504.052s.337-.029.504-.051l.154-1.234c.285-.07.551-.184.795-.332l.985.768c.267-.207.505-.445.712-.713l-.768-.984c.148-.244.262-.51.331-.795l1.235-.154c.023-.167.052-.331.052-.505 0-.172-.029-.336-.051-.504zM10.5 7c-1.107 0-2-.896-2-2s.893-2 2-2 2 .896 2 2-.893 2-2 2zM12 12h-1v-2h-1v2H9v1H7v1h2v1h3v-1h2v-1h-2zM1 1h5v1H1zM1 4h4v1H1zM1 7h5v1H1z"/><circle class="st2" cx="10.5" cy="5" r="1"/></g><path class="st3" d="M10.5 3a2 2 0 1 0 .001 4.001A2 2 0 0 0 10.5 3zm0 3a1 1 0 1 1 0-2 1 1 0 1 1 0 2z" id="icon_x5F_fg"/></svg>