<svg id="icon_x5F_bg" xmlns="http://www.w3.org/2000/svg" viewBox="0 0 16 16"><style>.st0{opacity:0}.st0,.st1{fill:#f6f6f6}.st2{fill:#424242}.st3{fill:#f0eff1}</style><path class="st0" d="M0 0h16v16H0z"/><circle class="st1" cx="8" cy="8" r="8"/><path class="st2" d="M15 8c0-.08-.01-.157-.012-.237C14.862 4.008 11.786 1 8 1a7 7 0 0 0-7 7 6.692 6.692 0 0 0 .1 1.136l.002.018a6.995 6.995 0 0 0 5.75 5.745l.021.003A7.065 7.065 0 0 0 8 15a7 7 0 0 0 7-7zm-4.031-1.662a12.63 12.63 0 0 0 2.316-.603c.299.695.465 1.46.465 2.265 0 .126-.011.25-.019.374-1.038.452-1.972.722-2.848.863a9.32 9.32 0 0 0 .161-1.743 11.3 11.3 0 0 0-.075-1.156zm1.78-1.578c-.686.236-1.334.4-1.951.496a11.703 11.703 0 0 0-.917-2.685 5.75 5.75 0 0 1 2.868 2.189zM8 13.75c-.17 0-.338-.011-.504-.025-.503-1.116-.888-2.225-1.128-3.306a18.417 18.417 0 0 0 2.029.094c.348 0 .699-.01 1.054-.027-.306.991-.759 2.077-1.353 3.26-.033 0-.065.004-.098.004zm.006-4.329a17.427 17.427 0 0 1-1.838-.123 12.238 12.238 0 0 1-.123-1.793c.004-.386.031-.755.067-1.115a18.53 18.53 0 0 0 1.882.12l.403.002c.488 0 .982-.016 1.487-.054.038.339.066.685.07 1.046a8.673 8.673 0 0 1-.209 1.869 21.96 21.96 0 0 1-1.739.048zM8 2.25c.165 0 .327.011.488.024.468.812.944 1.846 1.221 3.108-.571.039-1.133.044-1.703.039a16.72 16.72 0 0 1-1.739-.111 12.138 12.138 0 0 1 1.001-3.008c.24-.031.483-.052.732-.052zm-2.083.395a13.08 13.08 0 0 0-.732 2.508 19.128 19.128 0 0 1-1.903-.435 5.768 5.768 0 0 1 2.635-2.073zM2.25 8c0-.819.174-1.597.482-2.302.686.202 1.448.393 2.3.538-.042.406-.072.821-.077 1.258a12.87 12.87 0 0 0 .099 1.637 19.445 19.445 0 0 1-2.784-.728c-.009-.134-.02-.267-.02-.403zm.236 1.625c.798.244 1.712.479 2.744.644.206 1.047.542 2.116.981 3.193a5.756 5.756 0 0 1-3.725-3.837zm6.898 3.95c.546-1.146.967-2.215 1.238-3.193a12.79 12.79 0 0 0 2.886-.734 5.753 5.753 0 0 1-4.124 3.927z"/><path class="st3" d="M10.969 6.338a12.63 12.63 0 0 0 2.316-.603c.299.695.465 1.46.465 2.265 0 .126-.011.25-.019.374-1.038.452-1.972.722-2.848.863a9.32 9.32 0 0 0 .161-1.743 11.3 11.3 0 0 0-.075-1.156zM12.749 4.76c-.686.236-1.334.4-1.951.496a11.703 11.703 0 0 0-.917-2.685 5.75 5.75 0 0 1 2.868 2.189zM7.992 13.75c-.17 0-.338-.011-.504-.025a17.243 17.243 0 0 1-1.128-3.306 18.417 18.417 0 0 0 2.029.094c.348 0 .699-.01 1.054-.027-.306.991-.759 2.077-1.353 3.26-.032 0-.065.004-.098.004zM8 9.421c-.636-.007-1.311-.102-1.9-.171-.084-.609-.06-1.161-.055-1.745.004-.386.031-.755.067-1.115.603.069 1.237.114 1.888.121l.4.002c.488 0 .979-.016 1.484-.054.038.339.066.685.07 1.046.007.578-.113 1.203-.254 1.87-.584.041-1.118.049-1.7.046zM8 2.25c.165 0 .327.011.488.024.468.812.935 1.846 1.212 3.108-.571.039-1.13.044-1.7.039-.6-.006-1.241-.048-1.8-.111.233-1.215.685-2.214 1.067-3.008.241-.031.484-.052.733-.052zM5.917 2.645a13.08 13.08 0 0 0-.732 2.508 19.128 19.128 0 0 1-1.903-.435 5.768 5.768 0 0 1 2.635-2.073zM2.25 8c0-.819.174-1.597.482-2.302.686.202 1.448.393 2.3.538-.042.406-.072.821-.077 1.258a12.87 12.87 0 0 0 .099 1.637 19.445 19.445 0 0 1-2.784-.728c-.009-.134-.02-.267-.02-.403zM2.478 9.625c.798.244 1.712.479 2.744.644.206 1.047.542 2.116.981 3.193a5.758 5.758 0 0 1-3.725-3.837zM9.376 13.575c.546-1.146.967-2.215 1.238-3.193a12.79 12.79 0 0 0 2.886-.734 5.752 5.752 0 0 1-4.124 3.927z"/><path class="st1" d="M0 8h14v8H0z"/><path class="st2" d="M5 13v-1H4c.958 0 1 1 1 1zM6 12h1v1H6zM8 12h1v1H8zM10.042 12.021h.938v1h-.938z"/><path class="st2" d="M1 9v6h8v-1H7.978C7.125 14 7 13 7 13v1H5.979C5.125 14 5 13 5 13v1H4v-1H3v1H2v-4h1v2h1v-1h1v-1h1v1h1v-1h1v1h3s1 .021 1 .979V13s.084 1-.979 1H10v1h3V9H1z"/></svg>