<svg xmlns="http://www.w3.org/2000/svg" viewBox="0 0 16 16"><style>.st0{opacity:0}.st0,.st1{fill:#f6f6f6}.st2{fill:#424242}.st3{fill:#f0eff1}.st4{fill:#fc0}</style><g id="outline"><path class="st0" d="M0 0h16v16H0z"/><path class="st1" d="M12.999 8h.359L12.22 6.541l.354-.044.781-.19.1-.768c.024-.177.045-.354.045-.539 0-.182-.021-.357-.059-.631l-.098-.769-1.124-.141.698-.895-.476-.614a5.037 5.037 0 0 0-.89-.891l-.614-.477-.897.7-.044-.355-.191-.782-.77-.099C8.859.021 8.683 0 8.5 0s-.359.021-.631.059L7.1.158l-.14 1.124-.897-.699-.615.477A4.935 4.935 0 0 0 5 1.456V0H0v9h3v2H2v1H0v3h2v1h5v-1h.48l.524 1h6.998l.971-2.005L12.999 8zM4.423 3l.358.459-.354.045L4 3.609V3h.423zM5 8.544c.142.14.291.273.448.396l.077.06H5v-.456zm1 .824l.063.049.897-.699.044.355.192.782.769.099c.176.025.352.046.535.046.152 0 .313-.018.516-.044L7.988 12H7v-1H6V9.368z"/></g><g id="icon_x5F_bg"><path class="st2" d="M1 1h3v1H1zM1 4h2v1H1zM1 7h3v1H1zM12.449 5.504c.022-.166.051-.33.051-.504 0-.172-.029-.336-.051-.504l-1.235-.154a2.804 2.804 0 0 0-.331-.795l.768-.984a3.972 3.972 0 0 0-.712-.713l-.986.767a2.773 2.773 0 0 0-.795-.33l-.154-1.236C8.837 1.029 8.673 1 8.5 1s-.337.029-.504.051l-.154 1.236a2.773 2.773 0 0 0-.795.33l-.985-.767a3.972 3.972 0 0 0-.712.713l.768.984c-.148.244-.262.51-.331.795l-1.236.154c-.022.168-.051.332-.051.504 0 .174.029.338.051.504l1.235.154c.069.285.183.551.331.795l-.767.985c.207.267.445.505.712.712l.985-.768c.244.148.51.262.795.332l.154 1.234c.167.023.331.052.504.052s.337-.029.504-.051l.154-1.234c.285-.07.551-.184.795-.332l.256.199L10.5 7h.81l-.427-.547c.148-.244.262-.51.331-.795l1.235-.154zM8.5 7c-1.107 0-2-.896-2-2s.893-2 2-2 2 .896 2 2-.893 2-2 2zM6 12H5v-2H4v2H3v1H1v1h2v1h3v-1h1l.5-1H6z"/><circle class="st2" cx="8.5" cy="5" r="1"/></g><g id="icon_x5F_fg"><path class="st3" d="M8.5 3a2 2 0 1 0 .001 4.001A2 2 0 0 0 8.5 3zm0 3a1 1 0 1 1 0-2 1 1 0 1 1 0 2z"/><path class="st4" d="M11.891 8.016h-.781l-3.016 6 .515.984h5.766l.484-1-2.968-5.984zM12 14h-1v-1h1v1zm0-2h-1v-2h1v2z"/><path d="M12 12h-1v-2h1v2zm0 1h-1v1h1v-1z"/></g></svg>