<svg xmlns="http://www.w3.org/2000/svg" viewBox="0 0 16 16"><style>.icon-canvas-transparent{opacity:0;fill:#f6f6f6}.icon-vs-out{fill:#f6f6f6}.icon-vs-bg{fill:#424242}.icon-vs-fg{fill:#f0eff1}</style><path class="icon-canvas-transparent" d="M16 0v16H0V0h16z" id="canvas"/><path class="icon-vs-out" d="M14 0v16H1V0h13z" id="outline"/><path class="icon-vs-bg" d="M2 1v4h11V1H2zm10 3h-2V3h2v1zM2 6v4h11V6H2zm10 3h-2V8h2v1zM2 11v4h11v-4H2zm10 3h-2v-1h2v1z" id="iconBg"/><g id="iconFg"><path class="icon-vs-fg" d="M12 4h-2V3h2v1zm0 4h-2v1h2V8zm0 5h-2v1h2v-1z"/></g></svg>