<svg xmlns="http://www.w3.org/2000/svg" viewBox="0 0 16 16"><style>.icon-canvas-transparent{opacity:0;fill:#f6f6f6}.icon-vs-out{fill:#f6f6f6}.icon-vs-bg{fill:#424242}.icon-vs-fg{fill:#f0eff1}.icon-vs-action-red{fill:#a1260d}</style><path class="icon-canvas-transparent" d="M16 16H0V0h16v16z" id="canvas"/><path class="icon-vs-out" d="M12.022 2H8.414l-2-2h-.949L3.97 1.495 2.475 0h-.95L0 1.525v.949L1.495 3.97 0 5.465v.949l2 2 1.97-1.97.03.031V14c0 1.299 1.012 2 1.964 2h8c1.442 0 2.007-1.175 2.035-2V5.552L12.022 2z" id="outline"/><path class="icon-vs-bg" d="M9 11H8v-1h1v1zm0 1H8v1h1v-1zm3-2v1h1v-1h-1zm-.359-7H8L7 4h1v1h1V4h2v3h3v7H6v-3h1v-1H6V8.354l-.061.06L5 7.475V14c0 1 .964 1 .964 1h8c1 0 1.036-1 1.036-1V6l-3.359-3zM10 10v1h1v-1h-1z" id="iconBg"/><path class="icon-vs-fg" d="M11 7V4H9v1H8V4H6.475l1.939 1.939L6 8.354V10h1v1H6v3h8V7h-3zm-2 6H8v-1h1v1zm0-2H8v-1h1v1zm2 0h-1v-1h1v1zm2 0h-1v-1h1v1z" id="iconFg"/><path class="icon-vs-action-red" d="M5.03 3.97L7 5.939 5.939 7 3.97 5.03 2 7 .939 5.939l1.97-1.97L.939 2 2 .939l1.97 1.97L5.94.939 7 2 5.03 3.97z" id="colorAction"/></svg>