<svg xmlns="http://www.w3.org/2000/svg" viewBox="0 0 16 16"><style>.icon-canvas-transparent{opacity:0;fill:#f6f6f6}.icon-vs-out{fill:#f6f6f6}.icon-folder{fill:#dcb67a}.icon-vs-fg{fill:#f0eff1}.icon-vs-blue{fill:#1ba1e2}</style><path class="icon-canvas-transparent" d="M0 0h16v16H0V0z" id="canvas"/><path class="icon-vs-out" d="M16 10.5c0 3.032-2.468 5.5-5.5 5.5a5.489 5.489 0 0 1-4.239-2H1.5C.673 14 0 13.327 0 12.5v-10C0 1.673.673 1 1.5 1h8.11l1 2h2.886c.827 0 1.5.673 1.5 1.5v2.843A5.463 5.463 0 0 1 16 10.5z" id="outline"/><path class="icon-folder" d="M13.496 4H9.992l-1-2H1.5a.5.5 0 0 0-.5.5v10a.5.5 0 0 0 .5.5h4.107A5.463 5.463 0 0 1 5 10.5C5 7.467 7.467 5 10.5 5c1.327 0 2.545.472 3.496 1.257V4.5a.5.5 0 0 0-.5-.5zM2 4V3h6.374l.5 1H2z" id="iconBg"/><path class="icon-vs-fg" d="M8.874 4H2V3h6.374l.5 1z" id="iconFg"/><g id="notificationBg"><path class="icon-vs-blue" d="M10.5 6C8.019 6 6 8.019 6 10.5S8.019 15 10.5 15s4.5-2.019 4.5-4.5S12.981 6 10.5 6zm0 8a3.5 3.5 0 1 1 0-7 3.5 3.5 0 0 1 0 7zM8.582 9.052l1.811 1.812-1.824 1.825-.605-.607 1.182-1.184.035-.035-.035-.035-1.168-1.17.604-.606zm3.236.795L13 11.029l-.606.607-1.824-1.825L12.381 8l.605.606-1.168 1.17-.035.035.035.036z"/></g></svg>