<svg xmlns="http://www.w3.org/2000/svg" viewBox="0 0 16 16"><style>.st0{fill:#f6f6f6}.st1{fill:#424242}.st2{fill:#f0eff1}</style><path class="st0" d="M12 5.213V0H0v10h2v2h3.213a5.505 5.505 0 0 0 5.287 4c3.032 0 5.5-2.468 5.5-5.5 0-2.512-1.695-4.631-4-5.287z" id="outline"/><g id="icon_x5F_bg"><path class="st1" d="M10.5 6A4.505 4.505 0 0 0 6 10.5c0 2.481 2.018 4.5 4.5 4.5 2.481 0 4.5-2.019 4.5-4.5S12.981 6 10.5 6zm0 8a3.5 3.5 0 1 1-.001-6.999A3.5 3.5 0 0 1 10.5 14z"/><path class="st1" d="M3 10v1h2.025A5.506 5.506 0 0 1 5 10.5c0-.9.222-1.5.607-2.5H2V2h8v3.025c.165-.015.331-.025.5-.025s.335.01.5.025V1H1v8h4v1H3zM7.977 9.658l1.168 1.17.035.035-.035.035-1.182 1.184.605.607 1.825-1.826-1.811-1.811zM11.783 9.812l.035-.036 1.168-1.17L12.381 8 10.57 9.812l1.824 1.825.606-.608-1.182-1.182z"/></g><g id="icon_x5F_fg"><path class="st2" d="M13.928 9.795a3.5 3.5 0 1 0-6.857 1.41 3.5 3.5 0 0 0 6.857-1.41zm-5.36 2.894l-.605-.607 1.182-1.184.035-.035-.035-.035-1.168-1.17.605-.606 1.811 1.812-1.825 1.825zm3.826-1.052L10.57 9.812 12.381 8l.605.606-1.168 1.17-.035.035.035.035L13 11.029l-.606.608zM10 5.025V2H2v6h3.607C6.448 6 8.082 5.199 10 5.025z"/></g></svg>