<svg xmlns="http://www.w3.org/2000/svg" viewBox="0 0 16 16" enable-background="new 0 0 16 16"><style type="text/css">.icon-canvas-transparent{opacity:0;fill:#F6F6F6;} .icon-vs-out{fill:#F6F6F6;} .icon-vs-bg{fill:#424242;} .icon-vs-fg{fill:#F0EFF1;} .icon-vs-blue{fill:#1BA1E2;}</style><path class="icon-canvas-transparent" d="M16 16h-16v-16h16v16z" id="canvas"/><path class="icon-vs-out" d="M16 2v12h-.556c-.694 1.19-1.97 2-3.444 2s-2.75-.81-3.444-2h-4.106c-.12 1.121-1.06 2-2.212 2s-2.093-.879-2.213-2h-.025v-14h7.625l1.979 2h6.396z" id="outline"/><path class="icon-vs-fg" d="M7.773 3h-5.773v-1h4.793l.98 1zm4.227 5c.732 0 1.409.212 2 .556v-4.556h-12v3.024l.237-.024c.561 0 1.074.208 1.468.551.393-.343.906-.551 1.468-.551 1.233 0 2.236 1.004 2.236 2.237 0 .698-.324 1.338-.853 1.752v.129l-.003.054-.012.151-.01.084-.031.189-.215.092c-.023.1-.285.203-.285.31v.002h2c0-2.206 1.794-4 4-4z" id="iconFg"/><g id="iconBg"><path class="icon-vs-bg" d="M6.41 9.237c0-.682-.555-1.237-1.237-1.237s-1.237.555-1.237 1.237c0 .549.361 1.009.857 1.171v.567c.007.122-.013.479-.193.671-.092.098-.225.146-.405.146h-1.578v-1.384c.495-.162.856-.622.856-1.171.001-.682-.554-1.237-1.236-1.237s-1.237.555-1.237 1.237c0 .549.361 1.009.856 1.171v2.184c-.495.162-.856.622-.856 1.171 0 .682.555 1.237 1.237 1.237s1.237-.555 1.237-1.237c0-.549-.361-1.009-.856-1.171v-.039h1.577c.393 0 .727-.135.964-.39.435-.468.399-1.163.394-1.213v-.542c.495-.162.857-.622.857-1.171zm-4.173-.476c.262 0 .476.213.476.476 0 .262-.213.476-.476.476s-.476-.214-.476-.476.214-.476.476-.476zm0 5.478c-.262 0-.476-.213-.476-.476 0-.262.213-.476.476-.476s.476.213.476.476c0 .262-.214.476-.476.476zm2.936-5.478c.262 0 .476.213.476.476 0 .262-.213.476-.476.476-.262 0-.476-.213-.476-.476 0-.262.213-.476.476-.476z"/><path class="icon-vs-bg" d="M14 8.556c.378.221.714.498 1 .826v-6.382h-5.813l-1.98-2h-6.207v6.376c.292-.195.634-.312 1-.352v-3.024h12v4.556zm-12-5.556v-1h4.793l.979 1h-5.772zm6.142 10h-2.427l.174-.155c.248-.266.405-.565.504-.845h1.607c0 .347.058.679.142 1z"/></g><path class="icon-vs-blue" d="M12 8.667c-1.838 0-3.333 1.495-3.333 3.333s1.495 3.333 3.333 3.333 3.333-1.495 3.333-3.333-1.495-3.333-3.333-3.333zm0 5.926c-1.432 0-2.593-1.161-2.593-2.593s1.161-2.593 2.593-2.593c1.253 0 2.298.889 2.54 2.07.035.169.053.344.053.522s-.018.354-.053.522c-.242 1.183-1.287 2.072-2.54 2.072zm-1.421-3.666l1.341 1.342-1.351 1.352-.448-.449.875-.877.026-.026-.026-.026-.865-.867.448-.449zm2.398.589l.875.876-.449.45-1.351-1.352 1.341-1.342.448.449-.865.867-.026.026.027.026z" id="notificationBg"/></svg>