<svg xmlns="http://www.w3.org/2000/svg" viewBox="0 0 16 16"><style>.st0{opacity:0}.st0,.st1{fill:#f6f6f6}.st2{fill:#424242}</style><g id="outline"><path class="st0" d="M0 0h16v16H0z"/><path class="st1" d="M16 13H8v1H0V1h8v3h8v9z"/></g><g id="icon_x5F_bg"><path class="st2" d="M1 11h2v2H1zM3 4h2v7H3zM5 11h2v2H5zM1 2h2v2H1zM1 5h1v1H1zM1 7h1v1H1zM6 5h1v1H6zM5 2h2v2H5zM1 9h1v1H1zM8 5h1v1H8zM14 9h1v1h-1zM14 7h1v1h-1zM14 11h1v1h-1zM14 5h1v1h-1zM12 11h1v1h-1zM12 5h1v1h-1zM10 11h1v1h-1zM10 5h1v1h-1zM8 11h1v1H8z"/></g></svg>