<svg xmlns="http://www.w3.org/2000/svg" viewBox="0 0 16 16"><style>.st0{fill:#f6f6f6}.st1{fill:none}.st2{fill:#424242}.st3{fill:#f0eff1}</style><path class="st0" d="M0 0v12h8v4h8V0z" id="outline"/><g id="icon_x5F_bg"><path class="st1" d="M13 7.5h1v1h-1zM13 13.5h1v1h-1zM13 10.5h1v1h-1z"/><path class="st2" d="M9 15h6v-2H9v2zm4-1.5h1v1h-1v-1zM9 12h6v-2H9v2zm4-1.5h1v1h-1v-1zM9 9h6V7H9v2zm4-1.5h1v1h-1v-1zM4 4h1v4H4zM3 3h1v1H3zM5 3h1v1H5zM3 8h1v1H3zM5 8h1v1H5z"/><path class="st2" d="M1 1v10h7v-1H2V2h12v4h1V1z"/></g><g id="icon_x5F_fg"><path class="st1" d="M4 4h1v4H4zM5 8h1v1H5zM3 8h1v1H3zM3 3h1v1H3zM5 3h1v1H5z"/><path class="st3" d="M2 2v8h6V6h6V2H2zm4 2H5v4h1v1H5V8H4v1H3V8h1V4H3V3h1v1h1V3h1v1zM13 10.5h1v1h-1zM13 13.5h1v1h-1zM13 7.5h1v1h-1z"/></g></svg>