<svg xmlns="http://www.w3.org/2000/svg" viewBox="0 0 16 16"><style>.st0{fill:#f6f6f6}.st1{fill:#424242}.st2{fill:#f0eff1}</style><path class="st0" d="M0 0v12h8v4h8V0z" id="outline"/><g id="icon_x5F_bg"><path class="st1" d="M4 4h1v4H4zM3 3h1v1H3zM5 3h1v1H5zM3 8h1v1H3zM5 8h1v1H5zM9 15h6V6H9v9zm5-1h-1v-1h1v1zm-4-7h4v1h-4V7zm0 2h4v1h-4V9z"/><path class="st1" d="M1 1v10h7v-1H2V2h12v3h1V1z"/></g><g id="icon_x5F_fg"><path class="st2" d="M2 2v8h6V5h6V2H2zm4 2H5v4h1v1H5V8H4v1H3V8h1V4H3V3h1v1h1V3h1v1zM13 13h1v1h-1z"/><path class="st2" d="M10 7h4v1h-4zM10 9h4v1h-4z"/></g></svg>