<svg xmlns="http://www.w3.org/2000/svg" viewBox="0 0 16 16"><style>.st0{opacity:0}.st0,.st1{fill:#f6f6f6}.st2{fill:#424242}.st3{fill:#f0eff1}</style><g id="outline"><path class="st0" d="M0 0h16v16H0z"/><path class="st1" d="M0 0h16v15H0z"/></g><path class="st2" d="M1 1v13h14V1H1zm1 1h6v3H5v3H2V2zm5 4v2H6V6h1zM4 9v2H3V9h1zm10 4H2v-1h3V9h3V6h3v3h3v4zm0-8h-3V2h3v3z" id="icon_x5F_bg"/><g id="icon_x5F_fg"><path class="st3" d="M3 9h1v2H3zM5 5h3V2H2v6h3z"/><path class="st3" d="M6 6h1v2H6z"/><path class="st3" d="M11 6H8v3H5v3H2v1h12V9h-3zM11 2h3v3h-3z"/></g></svg>