<svg xmlns="http://www.w3.org/2000/svg" viewBox="0 0 16 16"><style>.st0{opacity:0}.st0,.st1{fill:#f6f6f6}.st2{fill:none}.st3{fill:#424242}.st4{fill:#f0eff1}</style><g id="outline"><path class="st0" d="M0 0h16v16H0z"/><path class="st1" d="M16 3h-2V1H0v6h3v1H0v6h8v2h.739l1.598-1.754.777 1.754h.873l2.282-1.037L13.402 13H16v-.868L12.627 9H16z"/></g><g id="icon_x5F_bg"><path class="st2" d="M2 5h2V4h8V3H2z"/><path class="st3" d="M8 12H2v-2h6V9H1v4h7zM12.955 14.459l-1.086-2.465h2.518L9 6.996v7.231l1.629-1.788L11.766 15z"/><path class="st3" d="M8 8V4.704L11.55 8H15V4h-2V2H1v4h3v2h4zM2 5V3h10v1H4v1H2z"/></g><g id="icon_x5F_fg"><path class="st4" d="M4 5H2V3h10v1H4zM2 10h6v2H2z"/></g></svg>