<svg xmlns="http://www.w3.org/2000/svg" viewBox="0 0 16 16"><style>.st0{opacity:0}.st0,.st1{fill:#f6f6f6}.st2{fill:#424242}.st3{fill:#00539c}</style><g id="outline"><path class="st0" d="M0 0h16v16H0z"/><path class="st1" d="M11 5V2.586L8.414 0H8v1.619l-.484-.474L7.637 1H3.348l.067.079L3 1.512V0h-.414L0 2.586V15h5v-.863c.822.566 1.813.863 2.971.863.98 0 1.828-.146 2.516-.436l.513-.216V15h5V5h-5zm-8 7v-1.684c.018.608.119 1.172.311 1.684H3zm0-2.045V8h.414A5.295 5.295 0 0 0 3 9.955zm2.141-5.962l.365-.438.374.444-.739-.006zM13 12h-.756c.467-.607.719-1.357.756-2.227V12zm0-2.611A4.543 4.543 0 0 0 12.74 8H13v1.389z"/></g><g id="icon_x5F_bg"><path class="st2" d="M12 6v1h2v6h-2v1h3V6zM2 7H1v7h3v-1H2zM5.732 12.412c-.584-.586-.877-1.356-.877-2.311 0-.971.305-1.777.912-2.42.283-.298.602-.52.952-.681h-.133l-.497-.497c-.34.182-.661.397-.944.683-.773.779-1.16 1.761-1.16 2.949 0 1.152.365 2.086 1.098 2.797C5.811 13.644 6.726 14 7.921 14c.851 0 2.079-.119 2.079-.357v-.75c0 .268-1.171.4-1.954.4-.99 0-1.728-.295-2.314-.881z"/><path class="st2" d="M10.912 7H9.541c.297.129.566.293.791.514.545.531.816 1.219.816 2.061 0 .57-.1 1.035-.303 1.393-.199.359-.453.537-.76.537-.334 0-.502-.285-.502-.928.001-.032.077-.577.23-2.577h-.897c-.053 0-.166-.081-.346-.206-.179-.123-.381-.064-.609-.064-.598 0-1.08.301-1.445.784-.366.482-.549 1.118-.549 1.848 0 .549.133 1.003.4 1.329.268.324.617.422 1.053.422.682 0 1.141-.113 1.375-1.113h.025c.002 1 .379 1.121 1.125 1.121.578 0 1.068-.209 1.469-.705.402-.494.602-1.108.602-1.88 0-1.049-.368-1.882-1.104-2.536zm-2.398 3.951c-.211.369-.494.553-.85.553a.704.704 0 0 1-.594-.303c-.146-.203-.221-.48-.221-.828 0-.521.109-.957.33-1.309.219-.35.508-.523.863-.523.521 0 .781.315.781.953.001.604-.102 1.092-.309 1.457z"/></g><g id="color_x5F_importance"><path class="st3" d="M6 5l1 1h3V3L9 2v2L6.96 2H5.501l2.547 3.016zM3 5l2.501-3H3.917L2 4V2L1 3v3h3l1-1z"/></g></svg>