<svg xmlns="http://www.w3.org/2000/svg" viewBox="0 0 16 16"><style>.st0{opacity:0}.st0,.st1{fill:#f6f6f6}.st2{fill:#424242}.st3{fill:#00539c}</style><g id="outline"><path class="st0" d="M0 0h16v16H0z"/><path class="st1" d="M13.914 5H13V0H3v5h-.914L0 7.085v.83L2.086 10H3v5h10v-5h.914L16 7.915v-.829z"/></g><path class="st2" d="M10.586 9H10V6h.586l-1-1H12V1H4v4h2.414l-1 1H6v3h-.586l1 1H4v4h8v-4H9.586z" id="icon_x5F_bg"/><g id="color_x5F_importance"><path class="st3" d="M3 8h2V7H3l1-1H2.5L1 7.5 2.5 9H4zM13.5 6H12l1 1h-2v1h2l-1 1h1.5L15 7.5z"/></g></svg>