<svg xmlns="http://www.w3.org/2000/svg" viewBox="0 0 16 16"><style>.icon-canvas-transparent{opacity:0;fill:#f6f6f6}.icon-vs-out{fill:#f6f6f6}.icon-vs-bg{fill:#424242}.icon-vs-action-blue{fill:#00569c}</style><switch><g><path class="icon-canvas-transparent" d="M16 0v16H0V0h16z" id="canvas"/><path class="icon-vs-out" d="M15.874 1.333v1.444l-1.178 2.282a1.893 1.893 0 0 1-1.69 1.03l-.175-.009-.317-.029-2.06 2.052.455.461-.619.62.539.54-2.413 2.414-.166-.166-2.116 2.087.056.056-.683.707c-.098.101-.987.982-2.264.982-.543 0-1.36-.168-2.163-.971-.863-.864-1.021-1.721-1.002-2.287.042-1.256.948-2.083 1.051-2.173l.706-.613.044.044 3.206-3.161 1.332-1.332.72.72.642-.643.28.285 2.06-2.052-.022-.41a1.864 1.864 0 0 1 1.004-1.756l2.77-1.427h.699l1.304 1.305z" id="outline"/><g id="iconBg"><path class="icon-vs-action-blue" d="M1.687 11.365l3 3s-1.475 1.525-3 0c-1.6-1.602 0-3 0-3zm5.436-.901l-2.717 2.68.666.696 2.717-2.68-.666-.696zM3.992 12.76l2.717-2.68-.666-.696-2.717 2.68.666.696zm1.637-3.761l-.666-.696-2.717 2.68.666.696 2.717-2.68z"/><path class="icon-vs-bg" d="M15.04 2.251l-1.333 2.585a.903.903 0 0 1-.885.485l-.784-.072-3.095 3.085.455.462-.624.624.541.541-1 1-2.999-3 1-1 .72.72.637-.637.279.283 3.088-3.078-.047-.857a.864.864 0 0 1 .465-.813l2.58-1.33 1.002 1.002z"/></g></g></switch></svg>