<svg xmlns="http://www.w3.org/2000/svg" viewBox="0 0 16 16"><style>.st0{fill:#f6f6f6}.st1{fill:#424242}.st2{fill:#00539c}.st3{fill:#f0eff1}</style><path class="st0" d="M15 8V4.5a2.505 2.505 0 0 0-1.713-2.373L14.414 1h-4.328L9 2.086V0H0v8h1v3.5c0 1.104.719 2.042 1.713 2.373L1.586 15h4.328L7 13.914V16h9V8h-1zm-8 3.086L5.914 10H4V8h3v3.086zM12 8H9V4.914L10.086 6H12v2z" id="outline"/><path class="st1" d="M1 1v6h7V1H1zm6 5H2V2h5v4zm1 3v6h7V9H8zm6 5H9v-4h5v4z" id="icon_x5F_bg"/><path class="st2" d="M5.5 11L7 12.5 5.5 14H4l1-1H3.5c-.827 0-1.5-.674-1.5-1.5V8h1v3.5c0 .275.225.5.5.5H5l-1-1h1.5zM12 5l-1-1h1.5c.275 0 .5.225.5.5V8h1V4.5c0-.826-.673-1.5-1.5-1.5H11l1-1h-1.5L9 3.5 10.5 5H12z" id="color_x5F_action"/><g id="icon_x5F_fg"><path class="st3" d="M9 10h5v4H9zM2 2h5v4H2z"/></g></svg>