<svg xmlns="http://www.w3.org/2000/svg" viewBox="0 0 16 16"><style>.icon-canvas-transparent{opacity:0;fill:#f6f6f6}.icon-vs-out{fill:#f6f6f6}.icon-vs-fg{fill:#f0eff1}.icon-folder{fill:#dcb67a}.icon-vs-action-blue{fill:#00539c}</style><path class="icon-canvas-transparent" d="M0 0h16v16H0z" id="canvas"/><path class="icon-vs-out" d="M0 0v6.409c0 .604.289 1.107.792 1.382.334.183.674.209.847.209H5v6.363C5 15.427 5.844 16 6.637 16h7.727c.793 0 1.636-.573 1.636-1.637V9.637C16 8.574 15.157 8 14.364 8h-1.45L15 5.914V1.586l-1.127 1.127A2.505 2.505 0 0 0 11.5 1H8v2.684c0-1.026-.769-1.622-1.528-1.681l-.857-.002L4.663 0H0zm10 5.914l.086.086H8V4h2v1.914z" id="outline"/><path class="icon-folder" d="M6 7v7.363c0 .637.637.637.637.637h7.727S15 15 15 14.363V9.637C15 9 14.364 9 14.364 9H12v-.011L11 7H6zm1 1h3l.5 1H7V8zM1 1v5.409c0 .637.668.591.668.591h4.727S7 7.046 7 6.409V3.684C7 3.047 6.395 3 6.395 3H5v.036L4.031 1H1zm1 1h1.031l.5 1H2V2z" id="iconBg"/><path class="icon-vs-action-blue" d="M12.5 7L14 5.5V4l-1 1V3.5c0-.827-.673-1.5-1.5-1.5H9v1h2.5c.275 0 .5.225.5.5V5l-1-1v1.5L12.5 7z" id="colorImportance"/><path class="icon-vs-fg" d="M9.989 7.991l.5 1h-3.5v-1h3zM3.031 2H2v1h1.531l-.5-1z" id="iconFg"/></svg>