<svg xmlns="http://www.w3.org/2000/svg" viewBox="0 0 16 16"><style>.st0{fill:#f6f6f6}.st1{fill:#424242}.st2{fill:#00539c}.st3{fill:#f0eff1}</style><path class="st0" d="M15.903 2.918a3.03 3.03 0 0 0-.344-.909 2.188 2.188 0 0 0-.713-.748A2.014 2.014 0 0 0 13.73.947h-.033V0H11v1.365a2.12 2.12 0 0 0-.423-.227 2.624 2.624 0 0 0-.979-.173c-.173 0-.351.016-.551.05-.162.03-.319.066-.469.11a4.619 4.619 0 0 0-.429.155c-.056.026-.102.05-.149.075V1H3.478a2.505 2.505 0 0 0-2.5 2.509v.056L0 2.586v4.328L1.086 8H0v8h12v-2h2V6.927c.253-.046.495-.12.707-.249.309-.186.568-.442.771-.762.181-.281.316-.611.404-.984a4.738 4.738 0 0 0 .021-2.014zM5 6V4h2.156c-.013.035-.035.065-.047.102A2.59 2.59 0 0 0 7 4.857c0 .278.044.543.13.791.043.125.099.241.163.352H5z" id="outline"/><g id="icon_x5F_bg"><path class="st1" d="M5 8h7v5h1V7H5zM10.63 2.361a1.058 1.058 0 0 0-.424-.294 1.643 1.643 0 0 0-.608-.102c-.119 0-.241.012-.368.033a3.716 3.716 0 0 0-.363.085 2.92 2.92 0 0 0-.31.11 1.397 1.397 0 0 0-.212.114v.768c.158-.132.341-.235.544-.313.204-.078.413-.117.627-.117.213 0 .377.063.494.186.116.125.174.324.174.6l-1.03.154c-.205.026-.38.077-.526.151a1.07 1.07 0 0 0-.357.28 1.067 1.067 0 0 0-.206.381 1.55 1.55 0 0 0-.065.46c0 .17.025.323.074.463a.945.945 0 0 0 .568.596c.139.057.297.084.478.084.23 0 .431-.053.604-.16a1.3 1.3 0 0 0 .439-.463h.014v.529h.785V3.469c0-.238-.027-.451-.083-.637a1.286 1.286 0 0 0-.249-.471zm-.446 2.02c0 .131-.021.252-.059.365a.897.897 0 0 1-.165.295.758.758 0 0 1-.593.272.682.682 0 0 1-.242-.041.507.507 0 0 1-.302-.286.583.583 0 0 1-.041-.218.96.96 0 0 1 .027-.232.424.424 0 0 1 .098-.18.541.541 0 0 1 .195-.133c.083-.033.189-.061.32-.078l.761-.109v.345zM3.141 12.257a.541.541 0 0 0-.195.133.429.429 0 0 0-.098.18.91.91 0 0 0-.028.232c0 .078.014.15.041.219a.489.489 0 0 0 .302.285.774.774 0 0 0 .579-.031.801.801 0 0 0 .256-.199.897.897 0 0 0 .165-.295c.038-.113.059-.234.059-.365v-.346l-.761.109a1.386 1.386 0 0 0-.32.078z"/><path class="st1" d="M1 9v6h10V9H1zm4 4.941h-.785v-.529h-.014a1.31 1.31 0 0 1-.44.463c-.173.107-.374.16-.603.16-.181 0-.339-.027-.479-.084a.97.97 0 0 1-.352-.234 1.01 1.01 0 0 1-.216-.361 1.595 1.595 0 0 1-.009-.924 1.065 1.065 0 0 1 .562-.66c.147-.074.321-.125.525-.152l1.03-.154c0-.275-.058-.475-.174-.6-.117-.123-.281-.186-.494-.186-.214 0-.423.039-.627.117a1.933 1.933 0 0 0-.544.313v-.768c.051-.035.121-.072.213-.113a3.07 3.07 0 0 1 .672-.195c.13-.022.252-.034.371-.034.234 0 .438.033.608.102.171.067.313.166.424.294.11.129.194.287.249.471.056.185.083.398.083.636v2.438zm5-2.938a1.767 1.767 0 0 0-.413-.222 1.345 1.345 0 0 0-.48-.084c-.17 0-.329.029-.478.087a1.09 1.09 0 0 0-.387.256c-.108.112-.194.25-.257.414a1.586 1.586 0 0 0-.094.563c0 .197.028.374.082.532.055.158.134.292.238.401.103.109.229.194.377.254a1.35 1.35 0 0 0 .736.063 2.073 2.073 0 0 0 .469-.17c.075-.039.144-.08.206-.125v.773c-.135.077-.29.139-.467.185-.175.047-.383.07-.624.07-.293 0-.556-.048-.791-.144a1.742 1.742 0 0 1-.6-.399 1.747 1.747 0 0 1-.38-.604 2.1 2.1 0 0 1-.133-.756c0-.318.048-.607.145-.866.096-.259.234-.48.415-.663.18-.183.398-.325.654-.425.256-.101.543-.151.861-.151.102 0 .2.006.293.019a2.7 2.7 0 0 1 .257.047c.079.019.15.039.214.062.063.022.117.045.159.067v.816zM14.926 3.127a2.037 2.037 0 0 0-.228-.611 1.203 1.203 0 0 0-.394-.416 1.03 1.03 0 0 0-.573-.154c-.123 0-.234.018-.336.052a1.024 1.024 0 0 0-.278.146 1.186 1.186 0 0 0-.226.222 2.115 2.115 0 0 0-.181.289h-.013V1H12v4.887h.697v-.485h.013c.044.082.095.158.151.229.057.07.119.133.191.186a.835.835 0 0 0 .238.121.932.932 0 0 0 .292.043c.231 0 .434-.053.609-.16.176-.106.323-.254.443-.443a2.18 2.18 0 0 0 .273-.672c.062-.261.093-.54.093-.845a3.54 3.54 0 0 0-.074-.734zm-.704 1.342c-.039.18-.095.328-.168.445a.747.747 0 0 1-.264.266.677.677 0 0 1-.651.016.74.74 0 0 1-.237-.207.983.983 0 0 1-.154-.307 1.257 1.257 0 0 1-.057-.381v-.506c0-.17.021-.326.061-.465.04-.139.096-.258.168-.359a.756.756 0 0 1 .257-.232c.1-.055.21-.082.331-.082a.646.646 0 0 1 .571.32c.066.105.116.23.15.377.034.147.052.311.052.494 0 .234-.019.441-.059.621z"/></g><path class="st2" d="M1.979 3.5L2 6 1 5v1.5L2.5 8 4 6.5V5L3 6l-.022-2.5c0-.275.225-.5.5-.5H7V2H3.478c-.827 0-1.499.673-1.499 1.5z" id="color_x5F_action"/><g id="not_x5F_fg"><path class="st3" d="M4.668 10.396a1.058 1.058 0 0 0-.424-.294A1.623 1.623 0 0 0 3.636 10c-.119 0-.241.012-.368.033a3.428 3.428 0 0 0-.362.085 2.92 2.92 0 0 0-.31.11 1.375 1.375 0 0 0-.213.113v.768c.158-.131.341-.234.544-.313.204-.078.413-.117.627-.117.213 0 .377.063.494.186.116.125.174.324.174.6l-1.03.154a1.631 1.631 0 0 0-.525.152 1.09 1.09 0 0 0-.562.66 1.557 1.557 0 0 0-.065.461c0 .17.025.322.074.463a.945.945 0 0 0 .568.595c.14.057.298.084.479.084.23 0 .431-.053.603-.16.173-.106.319-.26.44-.463h.014v.529H5v-2.438c0-.238-.027-.451-.083-.637a1.293 1.293 0 0 0-.249-.469zm-.446 2.019c0 .131-.021.252-.059.365a.897.897 0 0 1-.165.295.76.76 0 0 1-.593.271.682.682 0 0 1-.242-.041.528.528 0 0 1-.186-.113.48.48 0 0 1-.116-.172.58.58 0 0 1-.041-.218.96.96 0 0 1 .027-.232.424.424 0 0 1 .098-.18.541.541 0 0 1 .195-.133c.083-.033.19-.061.32-.078l.761-.109v.345zM9.627 10.057a2.278 2.278 0 0 0-.549-.065c-.318 0-.604.05-.861.151a1.852 1.852 0 0 0-.654.425c-.18.183-.319.404-.415.663a2.473 2.473 0 0 0-.145.866c0 .271.045.523.133.756.089.233.215.434.38.604.165.17.365.304.6.399.236.096.5.144.792.144.241 0 .449-.023.625-.069.177-.046.332-.108.467-.185v-.773a1.97 1.97 0 0 1-.675.295 1.35 1.35 0 0 1-.736-.063 1.068 1.068 0 0 1-.377-.254 1.091 1.091 0 0 1-.238-.401 1.61 1.61 0 0 1-.082-.532c0-.212.032-.399.094-.563.063-.164.149-.302.257-.414.109-.112.238-.197.387-.256.149-.059.308-.087.478-.087.172 0 .333.028.48.084.148.056.285.13.413.222v-.817a1.914 1.914 0 0 0-.374-.13z"/></g></svg>