<svg xmlns="http://www.w3.org/2000/svg" viewBox="0 0 16 16"><style>.st0{opacity:0}.st0,.st1{fill:#f6f6f6}.st2{fill:#424242}.st3{fill:#f0eff1}.st4{fill:#fc0}</style><g id="outline"><path class="st0" d="M0 0h16v16H0z"/><path class="st1" d="M1.5 15.5V.5h13v11.618L15.441 14l-.75 1.5z"/><path class="st1" d="M14 1v11.236l.106.211.776 1.553-.5 1H2V1h12m1-1H1v16h14l1-2-1-2V0z"/></g><g id="icon_x5F_bg"><path class="st2" d="M4 7h2v1H4z"/><path class="st2" d="M7 14H3V2h10v6l1 2V1H2v14h5.5z"/><path class="st2" d="M9 9H7v4h.5L9 10zM4 11h2v2H4zM4 5h4v1H4zM4 3h7v1H4zM10 8l.5-1H10z"/></g><path class="st3" d="M7 13V9h2v1l1-2V7h2.5l.5 1V2H3v12h4l.5-1H7zM4 3h7v1H4V3zm2 10H4v-2h2v2zm0-5H4V7h2v1zM4 6V5h4v1H4z" id="icon_x5F_fg"/><path class="st4" d="M11.891 8.016h-.781l-3.016 6 .515.984h5.766l.484-1-2.968-5.984zM12 14h-1v-1h1v1zm0-2h-1v-2h1v2z" id="not_x5F_bg"/><path d="M12 12h-1v-2h1v2zm0 1h-1v1h1v-1z" id="not_x5F_fg"/></svg>