<svg xmlns="http://www.w3.org/2000/svg" viewBox="0 0 16 16"><style>.st0{fill:#f6f6f6}.st1{fill:#424242}.st2{fill:#f0eff1}</style><path class="st0" d="M16 0H5v7H0v9h9v-4h7z" id="outline"/><g id="icon_x5F_bg"><path class="st1" d="M12 6h1v3h-1zM10 7h1v2h-1zM8 3h4v1H8zM8 5h2v1H8z"/><path class="st1" d="M6 1v6h1V2h7v8H9v1h6V1z"/><circle class="st1" cx="5.75" cy="10.25" r=".75"/><path class="st1" d="M1 15h7V8H1v7zm1-6h5v4.5L3.5 11 2 12.5V9zm1.5 3.5l2 1.5H2l1.5-1.5z"/></g><g id="icon_x5F_fg"><path class="st2" d="M7 2v5h2v3h5V2H7zm1 1h4v1H8V3zm0 3V5h2v1H8zm3 3h-1V7h1v2zm2 0h-1V6h1v3zM2 14h3.5l-2-1.5z"/><path class="st2" d="M2 12.5L3.5 11 7 13.5V9H2v3.5zm3.75-3a.75.75 0 1 1 0 1.5.75.75 0 0 1 0-1.5z"/></g></svg>