<svg xmlns="http://www.w3.org/2000/svg" viewBox="0 0 16 16"><style>.st0{fill:#f6f6f6}.st1{fill:#424242}.st2{fill:#f0eff1}</style><path class="st0" d="M7 4V2S3.969 2.494 3.969.247C3.969.09 3.967 0 3.967 0L1.969.003s-.004.09-.001.246C1.942 1.103 1.374 2.51 0 2.533l.011.036L0 2.572v1.953c2.087-.262 2 2.459 2 2.459V8h2v1h1v7h11V4H7z" id="outline"/><g id="icon_x5F_bg"><path class="st1" d="M2.974 7.053s-.159-3.488 2.692-3.488l.004.001C2.817 3.566 2.968.045 2.968.045S3.127 3.533.276 3.533l.003-.001c2.852.001 2.695 3.521 2.695 3.521zM5.684 8.262s-.095-2.061 1.59-2.061h.002c-1.686 0-1.596-2.078-1.596-2.078s.094 2.059-1.59 2.059h.002c1.683 0 1.592 2.08 1.592 2.08z"/><g><path class="st1" d="M10 11h1v2h-1zM8 7h4v1H8zM12 10h1v3h-1zM8 12h1v1H8zM8 9h2v1H8z"/><path class="st1" d="M7.762 5c.095.012.181.014.238.014V6h6v8H7V9H6v6h9V5H7.762z"/></g></g><path class="st2" d="M8 6v1h4v1H8V7s-.969.063-1 1c.002.105 0 1 0 1v5h7V6H8zm0 3h2v1H8V9zm1 4H8v-1h1v1zm2 0h-1v-2h1v2zm2 0h-1v-3h1v3z" id="icon_x5F_fg"/></svg>