<svg xmlns="http://www.w3.org/2000/svg" viewBox="0 0 16 16"><style>.st0{fill:#f6f6f6}.st1{fill:#424242}.st2,.st3{fill:#f0eff1}.st3{stroke:#424242;stroke-width:.15;stroke-miterlimit:10}</style><path class="st0" d="M16 12.5V9h-2.455l2.209-1.619V1.868L12.213 0H9.838L6.567 1.654 4.914 0H.585l1.127 1.127A2.504 2.504 0 0 0 0 3.5V7h1.999C1.029 7 0 7.701 0 9v5c0 1.299 1.029 2 2 2h4c1.299 0 2-1.03 2-2V9.062l-.754-.956 4.045 2.547L13 9.4V11h-1.914l-2.5 2.5 2.5 2.5h4.328l-1.127-1.127A2.505 2.505 0 0 0 16 12.5zM3 7V5h1.914l1.253-1.253V7H3z" id="outline"/><g id="icon_x5F_bg"><path class="st1" d="M14 12.5c0 .275-.225.5-.5.5H12l1-1h-1.5L10 13.5l1.5 1.5H13l-1-1h1.5c.826 0 1.5-.673 1.5-1.5V10h-1v2.5zM2 3.5c0-.275.225-.5.5-.5H4L3 4h1.5L6 2.5 4.5 1H3l1 1H2.5C1.673 2 1 2.673 1 3.5V6h1V3.5zM5.313 8h-3.35S1 8 1 9v5c0 1 .964 1 .964 1h4C6.964 15 7 14 7 14v-3.863L5.313 8zM6 12v2H2V9h3v1h1v2zM14.754 6.874V2.471L11.041.512 7.167 2.471v4.403l4.082 2.57 3.505-2.57zm-3.76-5.686l3.07 1.513-2.863 1.719-3.095-1.765 2.888-1.467zm-.023 7.374v.016l-.01-.008-.008.008v-.016L7.786 6.497V3.178l3.208 1.792v3.573l-.023.019zm3.218-1.963l-2.576 1.856V4.992l2.576-1.567v3.174z"/></g><g id="not_x5F_fg"><path class="st2" d="M2 9h3v1h1v4H2z"/><path class="st3" d="M10.994 1.188l3.07 1.513-2.863 1.719-3.095-1.765zM10.971 8.562v.015l-.01-.008-.008.008v-.015L7.786 6.497V3.178l3.208 1.793v3.573zM14.189 6.599l-2.576 1.856V4.992l2.576-1.567z"/></g></svg>