<svg xmlns="http://www.w3.org/2000/svg" viewBox="0 0 16 16"><style>.st0{opacity:0}.st0,.st1{fill:#f6f6f6}.st2{fill:#424242}.st3{fill:#f0eff1}</style><g id="outline"><path class="st0" d="M0 0h16v16H0z"/><path class="st1" d="M16 0H5v6.011c-1.416.028-2.613.511-3.55 1.456C.488 8.438 0 9.667 0 11.121c0 1.429.471 2.61 1.399 3.512.918.898 2.126 1.354 3.588 1.354.98 0 1.827-.147 2.516-.436l.613-.257v-1.358a3.019 3.019 0 0 0 1.09-.864c.258-.318.451-.678.589-1.072H16V0z"/></g><g id="icon_x5F_bg"><path class="st2" d="M12 6h1v3h-1zM10 7h1v2h-1zM8 3h4v1H8zM8 5h2v1H8zM5.836 12.135h-.025c-.234.699-.693 1.047-1.375 1.047-.435 0-.786-.164-1.052-.488-.268-.326-.4-.766-.4-1.315 0-.73.183-1.336.549-1.818.365-.482.847-.723 1.445-.723.229 0 .43.063.609.186.18.125.293.275.346.449h.016c.01-.09.033-.277.072-.557h.809c-.154 1.709-.23 2.58-.23 2.611 0 .643.168.963.502.963.307 0 .561-.178.76-.537.203-.357.303-.822.303-1.393 0-.842-.271-1.529-.816-2.061-.544-.533-1.3-.8-2.265-.8-.928 0-1.692.324-2.3.969-.608.643-.912 1.449-.912 2.42 0 .955.293 1.725.877 2.311.586.586 1.373.881 2.363.881.783 0 1.451-.133 2.004-.4v.75c-.568.238-1.277.357-2.129.357-1.195 0-2.16-.355-2.889-1.068C1.366 13.207 1 12.273 1 11.121c0-1.188.387-2.17 1.16-2.95C2.935 7.39 3.921 7 5.124 7c1.126 0 2.06.328 2.8.982.738.655 1.107 1.508 1.107 2.559 0 .771-.199 1.404-.601 1.898-.4.496-.891.742-1.469.742-.746.001-1.123-.347-1.125-1.046zm-.777-2.608c-.355 0-.645.174-.863.523-.22.351-.33.787-.33 1.309 0 .348.074.625.22.828a.702.702 0 0 0 .594.303c.355 0 .639-.184.85-.553.207-.365.311-.854.311-1.457-.001-.637-.26-.953-.782-.953z"/><path class="st2" d="M6 1v5.069c.349.05.684.124 1 .235V2h7v8h-4v.209c.007.112.031.217.031.332 0 .151-.019.292-.031.436V11h5V1H6z"/></g><path class="st3" d="M7 2v4.304a4.745 4.745 0 0 1 1.586.929C9.411 7.964 9.863 8.9 9.98 10H14V2H7zm1 1h4v1H8V3zm0 3V5h2v1H8zm3 3h-1V7h1v2zm2 0h-1V6h1v3z" id="icon_x5F_fg"/></svg>