<svg xmlns="http://www.w3.org/2000/svg" viewBox="0 0 16 16"><style>.st0{fill:#f6f6f6}.st1{fill:none}.st2{fill:#424242}.st3{fill:#f0eff1}</style><path class="st0" d="M16 0H1v11.885l-1 1v.523L2.592 16h.828l3.001-3H16z" id="outline"/><g id="icon_x5F_bg"><path class="st1" d="M9.362 9l1.146-.829-1.499-1.455L11 6.527l-.46-1.339-1.734.958L9.237 4H7.764l.43 2.146-1.746-.958L6 6.527l1.991.189-1.507 1.455L7.637 9 8.5 7.074z"/><path class="st2" d="M3.006 13.586l-1.147-1.147-.707.707L3.006 15 7 11.006l-.633-.781z"/><path class="st2" d="M2 1v10.166l.834.834h.344l1-1H3V2h11v9H8.282l.062.076L7.42 12H15V1z"/><path class="st2" d="M8.5 3A3.5 3.5 0 0 0 5 6.5c0 1.012.436 1.916 1.122 2.554l.323-.322.842 1.039c.379.141.784.229 1.213.229a3.5 3.5 0 1 0 0-7zm2.008 5.171L9.362 9 8.5 7.074 7.637 9l-1.153-.829 1.507-1.455L6 6.527l.448-1.34 1.746.959L7.764 4h1.474l-.432 2.146 1.734-.959.46 1.34-1.991.189 1.499 1.455z"/></g><g id="icon_x5F_fg"><path class="st3" d="M10.54 5.188l-1.734.958L9.237 4H7.764l.43 2.146-1.746-.958L6 6.527l1.991.189-1.507 1.455L7.637 9 8.5 7.074 9.362 9l1.146-.829-1.499-1.455L11 6.527z"/><path class="st3" d="M3 2v9h1.178l1.944-1.945A3.48 3.48 0 0 1 5 6.5 3.5 3.5 0 1 1 8.5 10c-.429 0-.834-.088-1.213-.229L8.282 11H14V2H3z"/></g></svg>