<svg xmlns="http://www.w3.org/2000/svg" viewBox="0 0 16 16"><style>.st0{fill:#f6f6f6}.st1{fill:#424242}.st2{fill:#f0eff1}</style><path class="st0" d="M12.061 2H6V0H2v2H0v4h2v2h2v6c0 1.299 1.03 2 2 2h8c1.299 0 2-1.03 2-2V5.556L12.061 2z" id="outline"/><path class="st1" d="M11.641 3H8v1h3v3h3v7H6V8H5v6c0 1 .965 1 .965 1h8c1 0 1.035-1 1.035-1V6l-3.359-3z" id="icon_x5F_bg"/><path class="st2" d="M11 7V4H8v2H6v8h8V7z" id="icon_x5F_fg"/><path class="st1" d="M5 7V5h2V3H5V1H3v2H1v2h2v2h2z" id="not_x5F_fg"/></svg>