<svg xmlns="http://www.w3.org/2000/svg" viewBox="0 0 16 16"><style>.st0{fill:#f6f6f6}.st1{fill:#424242}.st2{fill:#f0eff1}</style><path class="st0" d="M13 8h-3v-.212a2.926 2.926 0 0 0 1-.715v.8l5-3.346V3.496L11 .118v.831C10.359.251 9.552 0 9 0H3C1.962 0 0 .836 0 4s1.962 4 3 4h4c-.552 0-1.359.251-2 .949v-.831l-5 3.378v1.03l5 3.346v-.812c.636.691 1.434.94 1.98.94H13c1.038 0 3-.836 3-4s-1.962-4-3-4z" id="outline"/><g id="icon_x5F_bg"><path class="st1" d="M4 10l-2.975 2.01L4 14zM12 2l2.975 2.01L12 6z"/><path class="st1" d="M13 9H9V7h.02S11 7 11 4 9 1 9 1H3S1 1 1 4s2 3 2 3h5v2H7s-2 0-2 3 1.98 3 1.98 3H13s2 0 2-3-2-3-2-3zM9 2.004V2c.143.011 1 .159 1 2 0 1.817-.82 1.984-1.002 2C8.852 5.988 8 5.836 8 4c0-1.766.783-1.973 1-1.996zM3 6c-.143-.011-1-.159-1-2 0-1.813.832-1.984 1.021-2h4.43C7.189 2.442 7 3.078 7 4c0 .922.189 1.558.451 2H3zm3 6c0-1.841.857-1.989 1-2v.004c.216.023 1 .23 1 1.996 0 1.836-.852 1.988-.998 2C6.82 13.984 6 13.817 6 12zm7 2H8.549c.262-.442.451-1.078.451-2s-.189-1.558-.451-2h4.429c.19.016 1.022.186 1.022 2 0 1.841-.857 1.989-1 2z"/></g><g id="icon_x5F_fg"><path class="st2" d="M8 12c0-1.766-.784-1.973-1-1.996V10c-.143.011-1 .159-1 2 0 1.817.82 1.984 1.002 2 .146-.012.998-.164.998-2zM12.979 10h-4.43c.262.442.451 1.078.451 2s-.189 1.558-.451 2H13c.143-.011 1-.159 1-2 0-1.814-.832-1.984-1.021-2zM8 4c0-1.766.783-1.973 1-1.996V2c.143.011 1 .159 1 2 0 1.817-.82 1.984-1.002 2C8.852 5.988 8 5.836 8 4zM3.021 2h4.43C7.189 2.442 7 3.078 7 4c0 .922.189 1.558.451 2H3c-.143-.011-1-.159-1-2 0-1.813.832-1.984 1.021-2z"/></g></svg>