<svg xmlns="http://www.w3.org/2000/svg" viewBox="0 0 16 16"><style>.st0{fill:#f6f6f6}.st1{fill:#424242}.st2{fill:#f0eff1}</style><path class="st0" d="M12.061 0H6c-.97 0-2 .701-2 2v4.055C3.835 6.029 3.671 6 3.499 6 1.528 6 0 7.765 0 9.283V14h2.028c.089.602.369 1.007.613 1.254.701.71 1.672.746 1.859.746.917 0 2.23-.55 2.454-2H14c1.299 0 2-1.03 2-2V3.556L12.061 0z" id="outline"/><g id="icon_x5F_bg"><path class="st1" d="M6 9.283v4.289C6 15 4.5 15 4.5 15c-.004 0-1.52 0-1.5-1.428V9h1s-.012 4.516 0 4.572c.002.008-.043.428.5.428.5 0 .498-.418.5-.428.006-.029.04-3.29 0-4.289C4.99 9.027 5.001 8 3.5 8 2 8 2 9.188 2 9.283V13H1V9.283C1 8.394 2.002 6.999 3.5 7 5.002 6.999 6 8.394 6 9.283z"/><path class="st1" d="M11.641 1H5.964S5 1 5 2v4.369c.375.187.715.428 1 .716V2h5v3h3v7H7v1h6.965c1 0 1.035-1 1.035-1V4l-3.359-3z"/></g><path class="st2" d="M11 5V2H6v5.085c.622.63 1 1.444 1 2.198V12h7V5h-3z" id="icon_x5F_fg"/></svg>