<svg xmlns="http://www.w3.org/2000/svg" viewBox="0 0 16 16"><style>.st0{opacity:0}.st0,.st1{fill:#f6f6f6}.st2{fill:#424242}</style><g id="outline"><path class="st0" d="M0 0h16v16H0z"/><path class="st1" d="M12.561 5.561a1.502 1.502 0 0 1-2.122-2.121l.709-.707L9.025.611l-.707.707a4.473 4.473 0 0 0-.873 5.116L6.146 7.732 5 6.586l-5 5v.828L3.586 16h.828l5-5-1.146-1.146 1.299-1.299a4.468 4.468 0 0 0 5.116-.874l.706-.707-2.121-2.121-.707.708zM4 12.172L3.828 12 5 10.828l.172.172L4 12.172z"/></g><path class="st2" d="M13.268 6.268a2.5 2.5 0 1 1-3.536-3.536l-.707-.707a3.475 3.475 0 0 0-.32 4.562L6.146 9.146 5 8l-4 4 3 3 4-4-1.146-1.146 2.559-2.559a3.475 3.475 0 0 0 4.562-.32l-.707-.707zM4 13.586L2.414 12 5 9.414 6.586 11 4 13.586z" id="icon_x5F_bg"/></svg>