<svg xmlns="http://www.w3.org/2000/svg" viewBox="0 0 16 16"><style>.st0{opacity:0}.st0,.st1{fill:#f6f6f6}.st2{fill:#424242}.st3{fill:#00539c}</style><g id="outline"><path class="st0" d="M0 0h16v16H0z"/><path class="st1" d="M7 10.518V16h1.303l7.5-5-6.954-4.636h1.88V1.961L8.768 0H7.729v1.19l-.16-.139C6.446.246 5.76 0 4.633 0a4.64 4.64 0 0 0-3.016 8.157l4.162 3.582L7 10.518zM3.453 4.637c0-.308.118-.588.311-.799l2.554 2.526H7v1.919L3.877 5.545a1.2 1.2 0 0 1-.424-.908z"/></g><path class="st2" d="M8 7l6 4-6 4V7z" id="icon_x5F_bg"/><path class="st3" d="M4.633 1c.862 0 1.345.141 2.352.864l1.744 1.511v-2l1 1v2.989h-3l-1-.989h2L6.043 2.973c-.464-.301-.893-.518-1.41-.518-1.201 0-2.18.979-2.18 2.182 0 .638.279 1.242.771 1.666l3.504 3.072-1 1L2.27 7.398A3.633 3.633 0 0 1 1 4.637 3.64 3.64 0 0 1 4.633 1z" id="color_x5F_action"/></svg>