<svg xmlns="http://www.w3.org/2000/svg" viewBox="0 0 16 16" enable-background="new 0 0 16 16"><style type="text/css">.icon-canvas-transparent{opacity:0;fill:#F6F6F6;} .st0{fill:#252526;} .st1{fill:#8A8A8A;}</style><path class="icon-canvas-transparent" d="M16 16h-16v-16h16v16z" id="canvas"/><path class="st0" d="M12 8v-4h-4v5h-2v-1h-1.363l2.141-1.842c.777-.666 1.222-1.635 1.222-2.658 0-1.93-1.569-3.5-3.498-3.5-.572 0-1.003.088-1.502.349v-.349h-1.398l-1.602 1.515v3.485h3.062l.494-.006-1.956 1.715 1.291 1.291h-.891v8h13v-8h-3z" id="outline"/><path class="st1" d="M3 9h2v6h-2v-6zm3 6h2v-5h-2v5zm6-6v6h2v-6h-2zm-3-4v10h2v-10h-2z" id="iconBg"/><path class="st1" d="M7 3.5c0 .73-.318 1.423-.873 1.898l-2.377 2.046-.688-.687 2.409-2.112c.339-.291.53-.707.53-1.145 0-.827-.673-1.5-1.499-1.5-.355 0-.65.149-.969.356l-.773.644h1.24l-.969.969.031.031h-2.062v-2.055l1-.945v1.362l.887-.768c.692-.497 1.023-.594 1.615-.594 1.377 0 2.498 1.122 2.498 2.5z" id="colorAction"/></svg>