<?xml version="1.0" encoding="utf-8"?>
<!-- Generator: Adobe Illustrator 18.1.1, SVG Export Plug-In . SVG Version: 6.00 Build 0)  -->
<!DOCTYPE svg PUBLIC "-//W3C//DTD SVG 1.1//EN" "http://www.w3.org/Graphics/SVG/1.1/DTD/svg11.dtd">
<svg version="1.1" xmlns="http://www.w3.org/2000/svg" xmlns:xlink="http://www.w3.org/1999/xlink" x="0px" y="0px" width="16px"
	 height="16px" viewBox="0 0 16 16" style="enable-background:new 0 0 16 16;" xml:space="preserve">
<style type="text/css">
	.icon-canvas-transparent{opacity:0;fill:#F6F6F6;}
	.icon-vs-out{fill:#F6F6F6;}
	.icon-vs-bg{fill:#424242;}
	.icon-vs-action-blue{fill:#00539C;}
</style>
<g id="canvas">
	<path class="icon-canvas-transparent" d="M16,16H0V0h16V16z"/>
</g>
<g id="outline">
	<path class="icon-vs-out" d="M12,8V4H8v5H6V8H4.637l2.141-1.842C7.555,5.492,8,4.523,8,3.5C8,1.57,6.431,0,4.502,0
		C3.93,0,3.499,0.088,3,0.349V0H1.602L0,1.515V5h3.062l0.494-0.006L1.6,6.709L2.891,8H2v8h13V8H12z"/>
</g>
<g id="iconBg">
	<path class="icon-vs-bg" d="M3,9h2v6H3V9z M6,15h2v-5H6V15z M12,9v6h2V9H12z M9,5v10h2V5H9z"/>
</g>
<g id="colorAction">
	<path class="icon-vs-action-blue" d="M7,3.5c0,0.73-0.318,1.423-0.873,1.898L3.75,7.444L3.062,6.757l2.409-2.112
		C5.81,4.354,6.001,3.938,6.001,3.5c0-0.827-0.673-1.5-1.499-1.5c-0.355,0-0.65,0.149-0.969,0.356L2.76,3H4L3.031,3.969L3.062,4H3H1
		V1.945L2,1v1.362l0.887-0.768C3.579,1.097,3.91,1,4.502,1C5.879,1,7,2.122,7,3.5z"/>
</g>
</svg>
