<svg xmlns="http://www.w3.org/2000/svg" viewBox="0 0 16 16"><style>.st0{fill:#f6f6f6}.st1{fill:#f0eff1}.st2{fill:#424242}</style><path class="st0" d="M4 0v6H0v10h10v-5h5V9h1V0z" id="outline"/><g id="icon_x5F_fg"><path class="st1" d="M6 2v4h4v1h4V2zM2 13.579V14h5.555l-3.018-1.884z"/><path class="st1" d="M2 12.402L4.537 11 8 13.189V8H2v4.402zm4.18-3.377a.794.794 0 1 1 0 1.588.794.794 0 0 1 0-1.588z"/></g><g id="icon_x5F_bg"><path class="st2" d="M15 8V1H5v5h1V2h8v5h-4v3h4V9h-3V8z"/><path class="st2" d="M1 7v8h8V7H1zm1 7v-.421l2.537-1.463L7.555 14H2zm6-.811L4.537 11 2 12.402V8h6v5.189z"/><circle class="st2" cx="6.18" cy="9.82" r=".795"/></g></svg>