<svg xmlns="http://www.w3.org/2000/svg" viewBox="0 0 16 16"><style>.icon-canvas-transparent{opacity:0;fill:#f6f6f6}.icon-vs-out{fill:#f6f6f6}.icon-vs-bg{fill:#424242}.icon-vs-fg{fill:#f0eff1}.icon-vs-blue{fill:#1ba1e2}.icon-vs-action-orange{fill:#c27d1a}</style><path class="icon-canvas-transparent" d="M16 16H0V0h16v16z" id="canvas"/><path class="icon-vs-out" d="M16 4v12H4v-5.213A5.504 5.504 0 0 1 0 5.5C0 2.468 2.468 0 5.5 0a5.504 5.504 0 0 1 5.287 4H16z" id="outline"/><path class="icon-vs-fg" d="M14 6v8H6v-3.025A5.507 5.507 0 0 0 10.975 6H14zM4 8.651V4h4.65C8.087 3 6.894 2 5.5 2A3.5 3.5 0 0 0 2 5.5c0 1.394.821 2.587 2 3.151zM8.949 6H6v2.95C7.529 8.729 8.729 8 8.949 6z" id="iconFg"/><g id="iconBg"><path class="icon-vs-action-orange" d="M13 8a1 1 0 1 1-2 0 1 1 0 0 1 2 0z"/><path class="icon-vs-bg" d="M5.5 1a4.5 4.5 0 1 0 0 9 4.5 4.5 0 0 0 0-9zM2 5.5A3.5 3.5 0 0 1 5.5 2a3.49 3.49 0 0 1 3.15 2H4v4.65A3.49 3.49 0 0 1 2 5.5zm4 3.45V6h2.949A3.48 3.48 0 0 1 6 8.95zM15 5v10H5v-4.025c.165.015.331.025.5.025s.335-.01.5-.025V14h8V6h-3.025c.015-.165.025-.331.025-.5 0-.169-.01-.335-.025-.5H15z"/><path class="icon-vs-blue" d="M14 11.293v1.414l-1.446-1.446-1.5 2-2.929-2.929c.3-.163.582-.355.845-.569l1.976 1.977 1.5-2L14 11.293zm-8-.174v1.562l1.843-2.212a5.455 5.455 0 0 1-1.711.492L6 11.119z"/></g></svg>