<svg xmlns="http://www.w3.org/2000/svg" viewBox="0 0 16 16"><style>.st0{opacity:0}.st0,.st1{fill:#f6f6f6}.st2{fill:none}.st3{fill:#f0eff1}.st4{fill:#424242}</style><g id="outline"><path class="st0" d="M0 0h16v16H0z"/><path class="st1" d="M1 0h15v15H1z"/></g><g id="icon_x5F_fg"><circle class="st2" cx="10" cy="6" r="1"/><path class="st3" d="M5 4v5.5L8 8l4 2V4H5zm5 3a1 1 0 1 1 0-2 1 1 0 1 1 0 2z"/><path class="st3" d="M5 10.5v.5h7L8 9z"/></g><g id="icon_x5F_bg"><path class="st4" d="M2 7h1v1H2zM2 1h1v1H2zM4 13h1v1H4zM2 5h1v1H2zM2 3h1v1H2zM2 13h1v1H2zM2 9h1v1H2zM10 1h1v1h-1zM6 1h1v1H6zM8 1h1v1H8zM2 11h1v1H2zM4 1h1v1H4zM6 13h1v1H6zM12 1h1v1h-1zM14 7h1v1h-1zM8 13h1v1H8zM14 9h1v1h-1zM14 5h1v1h-1zM14 3h1v1h-1zM14 1h1v1h-1zM14 11h1v1h-1zM10 13h1v1h-1zM12 13h1v1h-1zM4 12h9V3H4v9zm1-8h7v6L8 8 5 9.5V4zm0 6.5L8 9l4 2H5v-.5z"/><circle class="st4" cx="10" cy="6" r="1"/><path class="st4" d="M14 13h1v1h-1z"/></g></svg>