<svg xmlns="http://www.w3.org/2000/svg" viewBox="0 0 16 16"><style>.icon-canvas-transparent{opacity:0;fill:#f6f6f6}.icon-vs-out{fill:#f6f6f6}.icon-vs-bg{fill:#424242}</style><path class="icon-canvas-transparent" d="M16 0v16H0V0h16z" id="canvas"/><path class="icon-vs-out" d="M16 8c0 4.411-3.589 8-8 8a7.992 7.992 0 0 1-6.667-3.575l-.553-.833 3.332-2.215.554.833A3.992 3.992 0 0 0 8 12c2.206 0 4-1.794 4-4s-1.794-4-4-4v4H0V0h4v1.088A7.99 7.99 0 0 1 8 0c4.411 0 8 3.589 8 8z" id="outline"/><g id="iconBg"><path class="icon-vs-bg" d="M8 1a7 7 0 0 0-5 2.12V1H1v6h6V5H4.002A5.008 5.008 0 0 1 8 3c2.757 0 5 2.243 5 5s-2.243 5-5 5a4.993 4.993 0 0 1-4.167-2.236l-1.666 1.107A6.989 6.989 0 0 0 8 15c3.859 0 7-3.141 7-7 0-3.86-3.141-7-7-7z"/></g></svg>