<svg xmlns="http://www.w3.org/2000/svg" viewBox="0 0 16 16"><style>.icon-canvas-transparent{opacity:0;fill:#f6f6f6}.icon-vs-out{fill:#f6f6f6}.icon-vs-bg{fill:#424242}.icon-vs-fg{fill:#f0eff1}.icon-vs-action-blue{fill:#00539c}</style><g id="iconBg"><path class="icon-canvas-transparent" d="M16 16H0V0h16v16z"/><path class="icon-vs-out" d="M13.156 6l-.714-1H8.947a3.997 3.997 0 0 0-1.133-3.343C7.097.94 6.079.528 5.021.528c-.711 0-1.404.186-2 .526V0h-3v6H4v.885L1.753 9.132l2.121 2.121.126-.126V15h12V6h-2.844z"/><path class="icon-vs-bg" d="M12.642 7l-.714-1H8.696c-.19.465-.471.902-.847 1.278L7 8.127V9h-.873L5 10.127V14h10V7h-2.358zM10 13a2.503 2.503 0 0 1-2.5-2.5C7.5 9.122 8.622 8 10 8c1.379 0 2.5 1.122 2.5 2.5 0 1.379-1.121 2.5-2.5 2.5zm1.5-2.5c0 .827-.673 1.5-1.5 1.5s-1.5-.673-1.5-1.5S9.173 9 10 9s1.5.673 1.5 1.5z"/><path class="icon-vs-fg" d="M7 8.127V9h-.873L7 8.127zm5.5 2.373c0 1.379-1.121 2.5-2.5 2.5a2.503 2.503 0 0 1-2.5-2.5C7.5 9.122 8.622 8 10 8c1.379 0 2.5 1.122 2.5 2.5zm-1 0c0-.827-.673-1.5-1.5-1.5s-1.5.673-1.5 1.5S9.173 12 10 12s1.5-.673 1.5-1.5z"/><path class="icon-vs-action-blue" d="M7.107 2.364c-1.114-1.114-3.058-1.114-4.172 0l-.914.914V1h-1v4h4V4H2.713l.929-.929c.736-.737 1.986-.772 2.793.035.76.76.76 1.998 0 2.758L3.167 9.132l.707.707 3.268-3.268c1.15-1.15 1.15-3.022-.035-4.207zM2.021 4v-.015L2.035 4h-.014z"/></g></svg>