<svg xmlns="http://www.w3.org/2000/svg" viewBox="0 0 16 16"><style>.icon-canvas-transparent{opacity:0;fill:#f6f6f6}.icon-vs-out{fill:#f6f6f6}.icon-vs-bg{fill:#424242}.icon-vs-fg{fill:#f0eff1}.icon-vs-action-blue{fill:#00539c}</style><path class="icon-canvas-transparent" d="M16 16H0V0h16v16z" id="canvas"/><path class="icon-vs-out" d="M16 7v9H4v-4.873l-.125.125-2.122-2.12L4.885 6H.021V0h3v1.054a4.048 4.048 0 0 1 2-.526c1.058 0 2.076.412 2.793 1.129A4.002 4.002 0 0 1 8.696 6h2.758l1.5 1H16z" id="outline"/><path class="icon-vs-fg" d="M12.349 9l-1.5-1H9.151l-1.5 1H6.127L6 9.127V14h8V9h-1.651zM10 13c-1.103 0-2-.897-2-2s.897-2 2-2 2 .897 2 2-.897 2-2 2zm1-2a1 1 0 1 1-2 0 1 1 0 0 1 2 0z" id="iconFg"/><path class="icon-vs-bg" d="M15 8v7H5v-4.873l1-1V14h8V9h-1.651l-1.5-1H9.151l-1.5 1H6.127l1-1h.221l1.5-1h2.303l1.5 1H15zm-5 5c-1.103 0-2-.897-2-2s.897-2 2-2 2 .897 2 2-.897 2-2 2zm0-1a1 1 0 1 0 0-2 1 1 0 0 0 0 2z" id="iconBg"/><path class="icon-vs-action-blue" d="M7.107 2.364c-1.114-1.114-3.058-1.114-4.172 0l-.914.914V1h-1v4h4V4H2.713l.929-.929c.736-.737 1.986-.772 2.793.035.76.76.76 1.998 0 2.758L3.167 9.132l.707.707 3.268-3.268c1.15-1.15 1.15-3.022-.035-4.207zM2.021 4v-.015L2.035 4h-.014z" id="colorAction"/><circle class="icon-vs-fg" cx="10" cy="11" r="1" id="notificationFg"/></svg>