<svg xmlns="http://www.w3.org/2000/svg" viewBox="0 0 16 16"><style>.st0{opacity:0}.st0,.st1{fill:#f6f6f6}.st2{fill:#424242}.st3{fill:#00539c}.st4{fill:#f0eff1}</style><g id="outline"><path class="st0" d="M0 0h16v16H0z"/><path class="st1" d="M7.967 5c.009-.103.033-.203.033-.308 0-1.93-1.569-3.5-3.497-3.5-.573 0-1.004.089-1.503.349V0h-.136L0 2.707v3.485h3.062l.494-.006-1.955 1.715L3.698 10 4 9.74V15h12V5H7.967z"/></g><path class="st2" d="M15 6v8H5V8.88l1-.861V13h8V8H6.022l.755-.65A3.48 3.48 0 0 0 7.732 6H15z" id="icon_x5F_bg"/><path class="st3" d="M7 4.692c0-1.378-1.12-2.5-2.497-2.5-.593 0-.924.097-1.616.594L2 3.554V2.192l-1 .946v2.055h2.062l-.032-.031.97-.97H2.76l.773-.644c.319-.207.614-.356.97-.356a1.5 1.5 0 0 1 .968 2.645L3.062 7.949l.688.687L6.128 6.59A2.494 2.494 0 0 0 7 4.692z" id="color_x5F_imporatance"/><path class="st4" d="M14 13H6V8h8v5z" id="icon_x5F_fg"/></svg>