<svg xmlns="http://www.w3.org/2000/svg" viewBox="0 0 16 16"><style>.st0{fill:#f6f6f6}.st1{fill:#424242}.st2{fill:#00539c}.st3{fill:#f0eff1}</style><path class="st0" d="M6 0v.351A3.445 3.445 0 0 0 4.502 0C3.929 0 3.499.088 3 .349V0H1.603L0 1.515V5h3.063l.494-.007-1.956 1.716L3.7 8.808 6 6.827V16h10V0H6z" id="outline"/><path class="st1" d="M7 1v.058c.617.631 1 1.492 1 2.442a3.48 3.48 0 0 1-1 2.421V15h8V1H7zm6 12h-1v-1h1v1zm0-7H9V5h4v1zm0-2H9V3h4v1z" id="icon_x5F_bg"/><path class="st2" d="M7 3.5c0 .73-.318 1.423-.873 1.898L3.75 7.444l-.687-.687 2.408-2.112A1.502 1.502 0 0 0 4.502 2c-.355 0-.649.149-.969.356L2.76 3H4l-.969.969.032.031H1V1.945L2 1v1.361l.887-.768C3.578 1.097 3.91 1 4.502 1A2.502 2.502 0 0 1 7 3.5z" id="color_x5F_action"/><g id="icon_x5F_fg"><path class="st3" d="M9 3h4v1H9zM12 12h1v1h-1zM9 5h4v1H9z"/></g></svg>