<svg xmlns="http://www.w3.org/2000/svg" viewBox="0 0 16 16"><style>.st0{fill:#f6f6f6}.st1{fill:#424242}.st2{fill:#00539c}.st3{fill:#f0eff1}</style><path class="st0" d="M15 6V2l-2 1.709V3.5C13 1.57 11.43 0 9.5 0 8.521 0 7.636.407 7 1.058V0H0v13h4v3h12V6h-1zM8 5v1H7V5h1z" id="outline"/><g id="icon_x5F_bg"><path class="st1" d="M12.653 9H14v5H6V9h4.32L8 7H5v8h10V7z"/><path class="st1" d="M2 3h3v3h1V1H1v11h3v-1H2z"/></g><path class="st2" d="M14 6V4l-2 1.988V3.5a2.5 2.5 0 1 0-5 0V4h1v-.5C8 2.673 8.673 2 9.5 2s1.5.673 1.5 1.5v2.513L9 4v2l2.485 2.5L14 6z" id="color_x5F_action"/><g id="icon_x5F_fg"><path class="st3" d="M12.653 9l-1.172 1-1.161-1H6v5h8V9zM2 11h2V6h1V3H2z"/></g></svg>