<svg xmlns="http://www.w3.org/2000/svg" viewBox="0 0 16 16"><style>.st0{fill:#f6f6f6}.st1{fill:none}.st2{fill:#424242}.st3{fill:#00539c}.st4{fill:#f0eff1}</style><path class="st0" d="M7.946 4C7.97 3.834 8 3.67 8 3.5 8 1.57 6.431 0 4.502 0 3.929 0 3.498.088 3 .349V0H1.603L0 1.515V5h3.063l.493-.006-1.955 1.715L3.7 8.808l.3-.259V16h12V4H7.946z" id="outline"/><g id="icon_x5F_bg"><path class="st1" d="M10.5 13L8 11l-2 2v1h8v-1l-1.5-1z"/><circle class="st2" cx="11" cy="8" r="1"/><path class="st2" d="M7.658 5a3.47 3.47 0 0 1-.732 1H14v5l-1.5-1-2 1L8 9l-2 2V6.828l-1 .86V15h10V5H7.658zM14 14H6v-1l2-2 2.5 2 2-1 1.5 1v1z"/></g><path class="st3" d="M7 3.5C7 2.122 5.879 1 4.502 1c-.592 0-.924.097-1.615.594L2 2.362V1l-1 .945V4h2.063l-.032-.031L4 3H2.76l.773-.644c.32-.207.614-.356.969-.356a1.502 1.502 0 0 1 .969 2.645L3.063 6.757l.687.687 2.377-2.046A2.496 2.496 0 0 0 7 3.5z" id="color_x5F_action"/><g id="icon_x5F_fg"><circle class="st1" cx="11" cy="8" r="1"/><path class="st4" d="M6.926 6c-.051.051-.092.11-.148.158L6 6.828V11l2-2 2.5 2 2-1 1.5 1V6H6.926zM11 9a1 1 0 1 1 0-2 1 1 0 0 1 0 2zM10.5 13L8 11l-2 2v1h8v-1l-1.5-1z"/></g></svg>