<svg xmlns="http://www.w3.org/2000/svg" viewBox="0 0 16 16"><style>.st0{opacity:0}.st0,.st1{fill:#f6f6f6}.st2{fill:#424242}.st3{fill:#388a34}.st4{fill:#f0eff1}</style><g id="outline"><path class="st0" d="M0 0h16v16H0z"/><path class="st1" d="M5.803 3l-4.5-3H0v14h16V3z"/></g><path class="st2" d="M7.303 4L8 4.465V5h4v7H2V9.535L1.303 10H1v3h14V4H7.303zM14 12h-1v-1h1v1zm0-3h-1V8h1v1zm0-3h-1V5h1v1z" id="icon_x5F_bg"/><path class="st3" d="M1 1v8l6-4z" id="color_x5F_action"/><g id="icon_x5F_fg"><path class="st4" d="M13 5h1v1h-1zM8 5.535l-6 4V12h10V5H8zM13 11h1v1h-1zM13 8h1v1h-1z"/></g></svg>