<svg xmlns="http://www.w3.org/2000/svg" viewBox="0 0 16 16"><style>.st0{opacity:0}.st0,.st1{fill:#f6f6f6}.st2{fill:#424242}.st3{fill:#f0eff1}</style><g id="outline"><path class="st0" d="M0 0h16v16H0z"/><path class="st1" d="M13.547 0H8c-.969 0-2 .701-2 2v2H0v12h10v-4h4c1.299 0 2-1.03 2-2V2.062L13.547 0z"/></g><g id="icon_x5F_bg"><path class="st2" d="M1 5v10h8V5H1zm7 9H2V6h6v8z"/><path class="st2" d="M12.625 1h-4.66S7 1 7 2v2h1V2h4v2h2v6h-4v1h3.965c1 0 1.035-1 1.035-1V3.137L12.625 1zM7 9a2 2 0 0 0-4 0c0 .672.334 1.264.843 1.627L3.25 13h1.083L5 11l.666 2H6.75l-.594-2.373C6.666 10.264 7 9.672 7 9zm-2 1a1 1 0 1 1-.002-1.998A1 1 0 0 1 5 10z"/></g><g id="icon_x5F_fg"><path class="st3" d="M12 3.96V2H8v2h2v6h4V3.996z"/><circle class="st3" cx="5" cy="9" r="1"/><path class="st3" d="M2 6v8h6V6H2zm4.75 7H5.666L5 11l-.667 2H3.25l.593-2.373A1.995 1.995 0 0 1 3 9a2 2 0 0 1 4 0c0 .672-.334 1.264-.844 1.627L6.75 13z"/></g></svg>