<svg xmlns="http://www.w3.org/2000/svg" viewBox="0 0 16 16"><style>.st0{fill:#f6f6f6}.st1{fill:none}.st2{fill:#424242}.st3{fill:#00539c}.st4{fill:#f0eff1}</style><path class="st0" d="M16 1v15H1V6H0V2h1V1h1V0h3.414l1 1H16z" id="outline"/><g id="icon_x5F_bg"><path class="st1" d="M7 12h3v2H7zM7 9h3v2H7zM11 12h3v2h-3zM3 9h3v2H3zM3 12h3v2H3zM11 3h3v2h-3zM11 9h3v2h-3zM11 6h3v2h-3z"/><path class="st2" d="M7.414 2l1 1H10v2H8.414l-1 1H10v2H7V6.414l-1 1V8H2v7h13V2H7.414zM6 14H3v-2h3v2zm0-3H3V9h3v2zm4 3H7v-2h3v2zm0-3H7V9h3v2zm4 3h-3v-2h3v2zm0-3h-3V9h3v2zm0-3h-3V6h3v2zm0-3h-3V3h3v2z"/></g><path class="st3" d="M5 5H1V3h4L3 1h2l3 3-3 3H3l2-2z" id="color_x5F_importance"/><g id="icon_x5F_fg"><path class="st4" d="M7 9h3v2H7zM7 12h3v2H7zM6 8v-.586L5.414 8zM7 6.414V8h3V6H7.414zM3 9h3v2H3zM3 12h3v2H3zM11 6h3v2h-3zM11 3h3v2h-3zM11 12h3v2h-3zM9.414 4l-1 1H10V3H8.414zM11 9h3v2h-3z"/><g><path class="st4" d="M7 9h3v2H7zM7 12h3v2H7zM6 8v-.586L5.414 8zM7 6.414V8h3V6H7.414zM3 9h3v2H3zM3 12h3v2H3zM11 6h3v2h-3zM11 3h3v2h-3zM11 12h3v2h-3zM9.414 4l-1 1H10V3H8.414zM11 9h3v2h-3z"/></g></g></svg>