<svg xmlns="http://www.w3.org/2000/svg" viewBox="0 0 16 16"><style>.icon-canvas-transparent{opacity:0;fill:#f6f6f6}.icon-vs-out{fill:#f6f6f6}.icon-vs-bg{fill:#424242}.icon-vs-fg{fill:#f0eff1}.icon-vs-action-blue{fill:#00539c}.st0{fill:none}</style><path class="icon-canvas-transparent" d="M16 16H0V0h16v16z" id="canvas"/><path class="icon-vs-out" d="M16 0v13.414l-1-1v.086c0 1.379-1.121 2.5-2.5 2.5h-.086l1 1H0V5h5V0h11z" id="outline"/><g id="iconBg"><path class="st0" d="M2 9h7v5H2z"/><path class="icon-vs-bg" d="M7 4h7v3.086l1 1V1H6v4h1V4zm.086 10H2V9h7v2h1V6H1v9h7.086l-1-1z"/></g><path class="icon-vs-action-blue" d="M15 9.5V11l-1-1v2.5c0 .827-.674 1.5-1.5 1.5H10l1 1H9.5L8 13.5 9.5 12H11l-1 1h2.5c.275 0 .5-.225.5-.5V10l-1 1V9.5L13.5 8 15 9.5z" id="colorAction"/><path class="icon-vs-fg" d="M11 5H7V4h7v3.086l-.5-.5L11.086 9H11V5zm-4.414 8.5L9 11.086V9H2v5h5.086l-.5-.5z" id="iconFg"/></svg>