<svg xmlns="http://www.w3.org/2000/svg" viewBox="0 0 16 16"><style>.st0{opacity:0}.st0,.st1{fill:#f6f6f6}.st2{fill:#424242}.st3{fill:#00539c}.st4{fill:#f0eff1}</style><g id="outline"><path class="st0" d="M0 0h16v16H0z"/><path class="st1" d="M8 4V1.515L6.397 0H5v.342C4.515.091 4.08 0 3.498 0A3.503 3.503 0 0 0 0 3.5 3.48 3.48 0 0 0 1.074 6H1v3h1v1H1v3h4v2h10V4H8zM5 5.481L3.181 3.886a.503.503 0 0 1-.176-.467L4.586 5H5v.481z"/></g><g id="icon_x5F_bg"><path class="st2" d="M3 9h2v1H3zM2 11h3v1H2zM8 9h4v1H8zM8 11h4v1H8zM8 7h4v1H8z"/><path class="st2" d="M6 14h8V5H6v9zm1-8h6v7H7V6zM2.201 7H2v1h1.362z"/></g><path class="st3" d="M1.999 3.5c0-.827.673-1.5 1.499-1.5.354 0 .649.149.969.356L5.24 3H4l1 1h2V1.945L6 1v1.361l-.887-.767C4.422 1.097 4.09 1 3.498 1a2.502 2.502 0 0 0-1.625 4.398L4.25 7.444l.688-.688-2.409-2.111a1.506 1.506 0 0 1-.53-1.145z" id="color_x5F_action"/><path class="st4" d="M7 6v7h6V6H7zm5 6H8v-1h4v1zm0-2H8V9h4v1zm0-2H8V7h4v1z" id="icon_x5F_fg"/></svg>