<svg xmlns="http://www.w3.org/2000/svg" viewBox="0 0 16 16"><style>.st0{fill:#f6f6f6}.st1{fill:#424242}.st2{fill:#f0eff1}</style><path class="st0" d="M12.061 0H4c-.342 0-.69.092-1 .263V0H0v2.5c0 1.104.719 2.042 1.713 2.373L.586 6H2v8c0 1.299 1.03 2 2 2h10c1.299 0 2-1.029 2-2V3.556L12.061 0z" id="outline"/><g id="icon_x5F_bg"><path class="st1" d="M10.001 5H10zM2.5 4H4L3 5h1.5L6 3.5 4.5 2H3l1 1H2.5a.501.501 0 0 1-.5-.5V1H1v1.5C1 3.327 1.673 4 2.5 4zM5.001 12h8v1h-8zM5.001 10h8v1h-8zM11 6l1 1-1 1v1l2-2-1.999-2H11zM7 8L6 7l1-1V5L5 7l2 2z"/><circle class="st1" cx="9.001" cy="7" r="1.484"/><path class="st1" d="M11.641 1H4.915l1 1H11v3h3v9H4V6H3v8c0 1 .965 1 .965 1h9.999c1 0 1.036-1 1.036-1V4l-3.359-3z"/></g><g id="icon_x5F_fg"><path class="st2" d="M11.001 5L13 7l-2 2V8l1-1-1-1V2H5.915l1.5 1.5L4.914 6H4v8h10V5h-2.999zm-2 .516a1.484 1.484 0 1 1-.002 2.968 1.484 1.484 0 0 1 .002-2.968zM7 5v1L6 7l1 1v1L5 7l2-2zm6.001 8h-8v-1h8v1zm0-2h-8v-1h8v1z"/><path class="st1" d="M11 6l1 1-1 1v1l2-2-1.999-2H11zM7 8L6 7l1-1V5L5 7l2 2z"/><circle class="st1" cx="9.001" cy="7" r="1.484"/></g></svg>