<svg xmlns="http://www.w3.org/2000/svg" viewBox="0 0 16 16"><style>.icon-canvas-transparent{opacity:0;fill:#f6f6f6}.icon-vs-out{fill:#f6f6f6}.icon-vs-bg{fill:#424242}</style><path class="icon-canvas-transparent" d="M16 16H0V0h16v16z" id="canvas"/><path class="icon-vs-out" d="M15.957 5.5c0 3.033-2.468 5.5-5.5 5.5H5.328l2.646 2.646-2.121 2.121L0 9.914v-.828l5.854-5.854 2.121 2.121L5.328 8h5.129c1.379 0 2.5-1.122 2.5-2.5S11.836 3 10.457 3H9V0h1.457c3.032 0 5.5 2.467 5.5 5.5z" id="outline"/><g id="iconBg"><path class="icon-vs-bg" d="M5.854 4.647l.707.707L2.914 9h7.543c1.93 0 3.5-1.57 3.5-3.5s-1.57-3.5-3.5-3.5V1c2.481 0 4.5 2.019 4.5 4.5s-2.019 4.5-4.5 4.5H2.914l3.646 3.646-.707.707L1 9.5l4.854-4.853z"/></g></svg>