<svg xmlns="http://www.w3.org/2000/svg" viewBox="0 0 16 16"><style>.st0{opacity:0}.st0,.st1{fill:#f6f6f6}.st2{fill:#424242}.st3{fill:#00539c}.st4{fill:#f0eff1}</style><g id="outline"><path class="st0" d="M0 0h16v16H0z"/><path class="st1" d="M16 4.5C16 2.57 14.43 1 12.5 1H11v1H0v12h13V7.949c1.691-.245 3-1.691 3-3.449z"/></g><g id="icon_x5F_bg"><path class="st2" d="M11 10v2H2V5h5.576l2.012-2H1v10h11v-3z"/><path class="st2" d="M6 7H3V6h3v1zm1 1H3v1h4V8zm-1 2H3v1h3v-1z"/></g><path class="st3" d="M10 9h2l-1.988-2H12.5a2.5 2.5 0 1 0 0-5H12v1h.5a1.501 1.501 0 0 1 0 3H9.987L12 4h-2L7.5 6.485 10 9z" id="color_x5F_importance"/><path class="st4" d="M9.584 10L6.086 6.481 7.576 5H2v7h9v-2H9.584zM3 6h3v1H3V6zm3 5H3v-1h3v1zm1-2H3V8h4v1z" id="icon_x5F_fg"/></svg>