<?xml version="1.0" encoding="utf-8"?>
<!-- Generator: Adobe Illustrator 19.1.0, SVG Export Plug-In . SVG Version: 6.00 Build 0)  -->
<svg version="1.1" xmlns="http://www.w3.org/2000/svg" xmlns:xlink="http://www.w3.org/1999/xlink" x="0px" y="0px" width="16px"
	 height="16px" viewBox="0 0 16 16" style="enable-background:new 0 0 16 16;" xml:space="preserve">
<style type="text/css">
	.icon-canvas-transparent{opacity:0;fill:#F6F6F6;}
	.icon-vs-out{fill:#F6F6F6;}
	.icon-vs-bg{fill:#424242;}
	.icon-vs-fg{fill:#F0EFF1;}
	.icon-vs-action-blue{fill:#00539C;}
</style>
<g id="canvas">
	<path class="icon-canvas-transparent" d="M16,16H0V0h16V16z"/>
</g>
<g id="outline">
	<path class="icon-vs-out" d="M16,5.264V11.5L7,16l-7-3.5V5.07L3.087,2H4V0h2c1.301,0,2.425,0.722,3.028,1.778L16,5.264
		z"/>
</g>
<g id="iconBg">
	<path class="icon-vs-bg" d="M15,5.764v5l-8,4l-6-3v-4.86L3.084,9h4.82L7.369,8.461l5.395-2.698L9.439,4.101
		C9.474,3.905,9.5,3.706,9.5,3.5c0-0.175-0.027-0.344-0.052-0.512L15,5.764z"/>
</g>
<g id="iconFg">
	<path class="icon-vs-fg" d="M12.764,5.764L7.369,8.461L5.916,7H6c1.724,0,3.152-1.256,3.439-2.899L12.764,5.764z"/>
</g>
<g id="colorAction">
	<path class="icon-vs-action-blue" d="M1,5.485L3.5,3h2L3.487,5H6c0.827,0,1.5-0.672,1.5-1.5
		C7.5,2.674,6.827,2,6,2H5.5V1H6c1.381,0,2.5,1.119,2.5,2.5S7.381,6,6,6H3.512L5.5,8h-2L1,5.485z"/>
	<g>
	</g>
	<g>
	</g>
	<g>
	</g>
	<g>
	</g>
	<g>
	</g>
	<g>
	</g>
</g>
</svg>
