<svg xmlns="http://www.w3.org/2000/svg" viewBox="0 0 16 16"><style>.st0{opacity:0}.st0,.st1{fill:#f6f6f6}.st2{fill:#424242}.st3{fill:#00539c}</style><g id="outline"><path class="st0" d="M0 0h16v16H0z"/><path class="st1" d="M11 5v.831c-.82-.534-1.785-.817-2.893-.817-1.051 0-1.975.263-2.773.761L3.181 3.886a.503.503 0 0 1-.176-.467L4.586 5H8V1.515L6.397 0H5v.343C4.515.091 4.08 0 3.498 0A3.503 3.503 0 0 0 0 3.5C0 4.026.122 4.537.342 5H0v10h5v-.863c.822.565 1.813.863 2.971.863.981 0 1.828-.146 2.517-.436l.512-.216V15h5V5h-5zM1.168 6.106l.002-.003-.002.003zM3 12v-1.684A5.19 5.19 0 0 0 3.311 12H3zm0-2.045V7.688l.398.343A5.304 5.304 0 0 0 3 9.955zM13 12h-.755c.467-.607.718-1.357.755-2.228V12zm0-2.611A4.548 4.548 0 0 0 12.741 8H13v1.389z"/></g><g id="icon_x5F_bg"><path class="st2" d="M12 6v1h2v6h-2v1h3V6zM2 13V6.827l-.779-.671c-.055-.047-.1-.102-.147-.156H1v8h3v-1H2z"/><path class="st2" d="M8.82 11.148h-.026c-.234.698-.692 1.046-1.374 1.046a1.3 1.3 0 0 1-1.053-.488c-.267-.326-.399-.765-.399-1.315 0-.73.182-1.335.548-1.818.365-.482.847-.723 1.446-.723.228 0 .43.063.608.187a.84.84 0 0 1 .346.449h.016c.01-.091.033-.277.073-.558h.809c-.154 1.71-.23 2.582-.23 2.613 0 .642.168.963.502.963.307 0 .561-.179.76-.537.203-.358.303-.822.303-1.393 0-.842-.271-1.529-.816-2.062-.544-.533-1.3-.799-2.265-.799-.927 0-1.692.323-2.301.967-.608.644-.911 1.451-.911 2.42 0 .955.293 1.726.877 2.311.586.586 1.373.88 2.363.88.782 0 1.45-.132 2.003-.399v.749c-.568.24-1.277.359-2.128.359-1.195 0-2.159-.356-2.889-1.069-.731-.71-1.097-1.645-1.097-2.796 0-1.187.387-2.17 1.16-2.95.774-.781 1.761-1.171 2.963-1.171 1.127 0 2.061.328 2.801.981.738.654 1.107 1.508 1.107 2.56 0 .772-.199 1.404-.602 1.897-.4.496-.891.742-1.469.742-.746 0-1.123-.347-1.125-1.046zM8.044 8.54c-.357 0-.646.174-.864.524-.22.351-.33.786-.33 1.309 0 .348.074.625.221.827a.697.697 0 0 0 .592.304c.357 0 .64-.184.85-.553.207-.366.311-.853.311-1.458 0-.637-.26-.953-.78-.953z"/></g><path class="st3" d="M6 1v1.362l-.887-.768C4.421 1.097 4.09 1 3.498 1A2.502 2.502 0 0 0 1 3.5c0 .73.318 1.423.873 1.898L3.827 7.08l.63-.745-1.928-1.69A1.501 1.501 0 0 1 3.498 2c.355 0 .65.149.969.356L5.24 3H4l1 1h2V1.945L6 1z" id="color_x5F_action"/></svg>