<svg xmlns="http://www.w3.org/2000/svg" viewBox="0 0 16 16"><style>.st0{fill:#f6f6f6}.st1{fill:#424242}.st2{fill:#00539c}.st3{fill:#f0eff1}</style><path class="st0" d="M9.863 4c.024-.165.051-.329.051-.5 0-1.93-1.57-3.5-3.5-3.5h-1.5v2H3.501L0 5.481 3.498 9H4v7h12V4H9.863z" id="outline"/><path class="st1" d="M9.563 5a3.521 3.521 0 0 1-.707 1H14v8H6V9H5v6h10V5H9.563z" id="icon_x5F_bg"/><path class="st2" d="M4 8h2L4.012 6H6.5a2.5 2.5 0 1 0 0-5H6v1h.5a1.501 1.501 0 0 1 0 3H3.987L6 3H4L1.5 5.485 4 8z" id="color_x5F_action"/><g id="color_x5F_importance"><path id="Foreground_2_" class="st2" d="M11 9h2v2h-2v2H9v-2H7V9h2V7h2z"/></g><path class="st3" d="M8.856 6c-.631.617-1.492 1-2.442 1H6.33l1.988 2H9V7h2v2h2v2h-2v2H9v-2H7V9H6v5h8V6H8.856z" id="icon_x5F_fg"/></svg>