<svg xmlns="http://www.w3.org/2000/svg" viewBox="0 0 16 16"><style>.st0{fill:#f6f6f6}.st1{fill:#424242}.st2{fill:#00539c}</style><path class="st0" d="M16 9.5c0-.817-.394-1.543-1.002-2A2.498 2.498 0 0 0 13.5 3a2.498 2.498 0 1 0-1.498 4.5 2.498 2.498 0 0 0 0 4 2.5 2.5 0 0 0-.998 1.851L8.221 5H10V0H7v.424A4.927 4.927 0 0 0 5 0C2.243 0 0 2.243 0 5a4.992 4.992 0 0 0 3.677 4.807L1.613 16h3.608l.667-2h1.725l.667 2h3.608l-.296-.887A2.496 2.496 0 0 0 13.5 16a2.498 2.498 0 1 0 1.498-4.5A2.498 2.498 0 0 0 16 9.5zM4.621 6.975l-.285-.101A2.003 2.003 0 0 1 3 5c0-1.103.897-2 2-2v2h.279l-.658 1.975z" id="outline"/><path class="st1" d="M15 5.5a1.5 1.5 0 1 1-3 0 1.5 1.5 0 0 1 3 0zM13.5 8a1.5 1.5 0 1 0 0 3 1.5 1.5 0 0 0 0-3zm0 4a1.5 1.5 0 1 0 .001 3.001A1.5 1.5 0 0 0 13.5 12zM6 6l-3 9h1.5l.667-2h3.166L9 15h1.5l-3-9H6zm-.5 6l1.25-3.75L8 12H5.5z" id="icon_x5F_bg"/><path class="st2" d="M8 1v1.381A3.955 3.955 0 0 0 5 1a4 4 0 0 0-4 4 3.99 3.99 0 0 0 3 3.858V7.815A2.995 2.995 0 0 1 2 5c0-1.654 1.346-3 3-3a2.96 2.96 0 0 1 2.211 1H6v1h3V1H8z" id="color_x5F_action"/></svg>