<svg xmlns="http://www.w3.org/2000/svg" viewBox="0 0 16 16"><style>.st0{opacity:0}.st0,.st1{fill:#f6f6f6}.st2{fill:none}.st3{fill:#424242}.st4{fill:#00539c}</style><g id="outline"><path class="st0" d="M0 0h16v16H0z"/><path class="st1" d="M8.93 0H7.07L.195 11h2.891l-1.5 1.5 2.5 2.5h7.828l2.5-2.5-1.5-1.5h2.891z"/></g><g id="icon_x5F_bg"><path class="st2" d="M6 9V5.487L3.804 9z"/><path class="st3" d="M9 2v8h5zM7 10V2l-5 8h5zM6 9H3.804L6 5.487V9z"/></g><path class="st4" d="M11.5 11l1.5 1.5-1.5 1.5H10l1-1H5l1 1H4.5L3 12.5 4.5 11H6l-1 1h6l-1-1z" id="color_x5F_action"/></svg>