<svg xmlns="http://www.w3.org/2000/svg" viewBox="0 0 16 16"><style>.st0{fill:#f6f6f6}.st1{fill:#424242}.st2{fill:url(#SVGID_1_)}</style><path class="st0" d="M9 3L6 0H0l2 2H0v12h8l2 2h6l-2-2h2V3z" id="outline"/><path class="st1" d="M2 6L1 7V6h1zm12-1v3h1V4h-5L9 5h5zM2 12V8H1v5h6l-1-1H2zm13-2V9l-1 1h1zM5 1H3l2 2H1v2h4L3 7h2l3-3-3-3zm3 11l3 3h2l-2-2h4v-2h-4l2-2h-2l-3 3z" id="icon_x5F_bg"/><g id="icon_x5F_fg"><linearGradient id="SVGID_1_" gradientUnits="userSpaceOnUse" x1="2" y1="8.5" x2="14" y2="8.5"><stop offset="0" stop-color="#f0eff1"/><stop offset="1" stop-color="#424242"/></linearGradient><path class="st2" d="M14 8V5H9L6 8H2v4h4l4-4z"/></g></svg>