<svg xmlns="http://www.w3.org/2000/svg" width="16" height="16"><style type="text/css">.icon-canvas-transparent{opacity:0;fill:#F6F6F6;} .icon-vs-out{fill:#F6F6F6;} .icon-vs-bg{fill:#424242;}</style><path class="icon-canvas-transparent" d="M16 16h-16v-16h16v16z" id="canvas"/><path class="icon-vs-out" d="M9.797 7l-2.902 2.718-.428-.613 6.632-6.632-2.474-2.473h-.828l-9.106 9.105 6.696 6.895h.791l2.822-3.007v2.21l4-3.474v-4.729h-5.203zm-1.797 3.639l-.533-.533h1.066l-.533.533z" id="outline"/><g id="iconBg"><path class="icon-vs-bg" d="M13.895 7.632v3.684l-1.474 1.474v-2.211l-4.421 4.421-5.895-5.895 8.106-8.105 1.474 1.474-6.632 6.631 2.947 2.948 2.947-2.947h-2.21l1.474-1.474h3.684z"/></g></svg>