<svg xmlns="http://www.w3.org/2000/svg" viewBox="0 0 16 16"><style>.st0{opacity:0}.st0,.st1{fill:#f6f6f6}.st2{fill:none}.st3{fill:#424242}.st4{fill:#f0eff1}</style><g id="outline"><path class="st0" d="M0 0h16v16H0z"/><path class="st1" d="M10 4V2H2v2H0v10h16V4z"/></g><g id="icon_x5F_bg"><path class="st2" d="M9 6H8V4H4v2H2v6h12V6H9zm-4 4.002H3v-2h2v2zm4 0H7v-2h2v2zm2-2h2v2h-2v-2z"/><path class="st3" d="M7 8.002h2v2H7zM3 8.002h2v2H3zM11 8.002h2v2h-2z"/><path class="st3" d="M9 5V3H3v2H1v8h14V5H9zm5 1.002V12H2V6h2V4h4v2h6v.002z"/></g><path class="st4" d="M8 6.002V4H4v2H2v6.002h12V6l-6 .002zm3 2h2v2h-2v-2zm-4 0h2v2H7v-2zm-4 0h2v2H3v-2z" id="icon_x5F_fg"/></svg>