<svg xmlns="http://www.w3.org/2000/svg" viewBox="0 0 16 16"><style>.st0{fill:#f6f6f6}.st1{fill:#424242}.st2{fill:#f0eff1}</style><path class="st0" d="M0 0h16v16H0z" id="outline"/><g id="icon_x5F_bg"><path class="st1" d="M1 1v14h14V1H1zm13 13H2V2h12v12z"/><path class="st1" d="M13 8v6h-1v-1.25H9.041L8 14H7l5-6h1zm-1 4V9.2L9.666 12H12zM10 3H3v6h7V3zM7 8H4V7h3v1zm0-2H4V4h3v2zm2 2H8V4h1v4zM11 3h2v1h-2zM11 5h2v1h-2zM3 10h5.042v1H3zM3 12h4v1H3z"/><path class="st1" d="M13 8v6h-1v-1.25H9.041L8 14H7l5-6h1zm-1 4V9.2L9.666 12H12z"/><path class="st1" d="M1 1v14h14V1H1zm13 13H2V2h12v12z"/><path class="st1" d="M13 8v6h-1v-1.25H9.041L8 14H7l5-6h1zm-1 4V9.2L9.666 12H12z"/></g><g id="icon_x5F_fg"><path class="st1" d="M1 1v14h14V1H1zm13 13H2V2h12v12z"/><path class="st2" d="M12 12V9.2L9.666 12zM9.041 13L8 14h4v-1zM4 7h3v1H4zM9 4H8v4h1zM4 4h3v2H4z"/><path class="st2" d="M2 2v12h5l5-6h1v6h1V2H2zm5 11H3v-1h4v1zm1-2H3v-1h5v1zm2-2H3V3h7v6zm3-3h-2V5h2v1zm0-2h-2V3h2v1z"/></g></svg>