<svg xmlns="http://www.w3.org/2000/svg" viewBox="0 0 16 16"><style>.st0{opacity:0}.st0,.st1{fill:#f6f6f6}.st2{fill:none}.st3{fill:#424242}.st4{fill:#f0eff1}</style><g id="outline"><path class="st0" d="M0 0h16v16H0z"/><path class="st1" d="M12.414 2H8.965C8.012 2 7 2.701 7 4v3.585L4.414 5H0v8h7v-2c0 1.299 1.012 2 2 2h5.035c.952 0 1.965-.701 1.965-2V5.586L12.414 2z"/></g><g id="icon_x5F_bg"><path class="st2" d="M12 4H9v7h5V6h-2z"/><path class="st3" d="M1 6v6h5V8L4 6zM12 3H8.965S8 3 8 4v7c0 1 .965 1 .965 1h5.07S15 12 15 11V6l-3-3zm-3 8V4h3v2h2v5H9z"/></g><path class="st4" d="M14 11H9V4h3v2h2v5z" id="icon_x5F_fg"/></svg>