<svg xmlns="http://www.w3.org/2000/svg" width="16" height="16"><style type="text/css">.icon-canvas-transparent{opacity:0;fill:#F6F6F6;} .icon-vs-out{fill:#F6F6F6;} .icon-vs-bg{fill:#424242;}</style><path class="icon-canvas-transparent" d="M16 16h-16v-16h16v16z" id="canvas"/><path class="icon-vs-out" d="M12 8.5c0 2.03-.753 4.641-1.751 6.072l-.299.428h-4.384l1.137-1.583c1.113-1.55 1.726-3.296 1.726-4.917 0-2.086-.689-3.474-1.726-4.917l-1.137-1.583h4.384l.299.428c.998 1.431 1.751 4.042 1.751 6.072z" id="outline"/><g id="iconBg"><path class="icon-vs-bg" d="M11 8.5c0 1.813-.698 4.248-1.571 5.5h-1.914c1.128-1.571 1.913-3.496 1.913-5.5 0-2.357-.785-3.929-1.913-5.5h1.913c.873 1.252 1.572 3.687 1.572 5.5z"/></g></svg>