<svg xmlns="http://www.w3.org/2000/svg" viewBox="0 0 16 16"><style>.st0{opacity:0}.st0,.st1{fill:#f6f6f6}.st2{fill:#424242}.st3{fill:#fc0}</style><g id="outline"><path class="st0" d="M0 0h16v16H0z"/><path class="st1" d="M11.519 7h-1.105l2-2-5-5H1.586l3 3H0v4h4.586l-3 3h5.828L8.58 8.834l-2.602 5.184L7.012 16h6.998l.971-2.013z"/></g><path class="st2" d="M7 1H4l3 3H1v2h6L4 9h3l4-4z" id="icon_x5F_bg"/><path class="st3" d="M10.914 8h-.781l-3.016 6 .516.984h5.766l.484-1L10.914 8zm.109 5.984h-1v-1h1v1zm0-2h-1v-2h1v2z" id="not_x5F_bg"/><g id="not_x5F_fg"><path d="M10 13h1v1h-1zM10 10h1v2h-1z"/></g></svg>