<svg xmlns="http://www.w3.org/2000/svg" viewBox="0 0 16 16"><style>.st0{fill:#f6f6f6}.st1{fill:#424242}.st2{fill:#e51400}.st3{fill:#fff}</style><path class="st0" d="M11.5 7c-.455 0-.886.088-1.3.214L12.414 5l-5-5H1.586l3 3H0v4h4.586l-3 3h5.69A4.454 4.454 0 0 0 7 11.5c0 2.481 2.019 4.5 4.5 4.5s4.5-2.019 4.5-4.5S13.981 7 11.5 7z" id="outline"/><path class="st1" d="M7 1H4l3 3H1v2h6L4 9h3l4-4z" id="icon_x5F_bg"/><path class="st2" d="M11.5 8a3.5 3.5 0 1 0 0 7 3.5 3.5 0 0 0 0-7zm1.854 4.646l-.707.707-1.147-1.146-1.146 1.147-.707-.707 1.147-1.146-1.147-1.146.707-.707 1.146 1.147 1.146-1.147.707.707-1.146 1.145 1.147 1.146z" id="not_x5F_bg"/><path class="st3" d="M13.354 10.354l-.708-.708-1.146 1.147-1.146-1.147-.708.708 1.147 1.146-1.147 1.146.708.708 1.146-1.147 1.146 1.147.708-.708-1.147-1.146z" id="not_x5F_fg"/></svg>