<svg xmlns="http://www.w3.org/2000/svg" width="16" height="16"><style type="text/css">.icon-vs-out{fill:#F6F6F6;} .icon-vs-bg{fill:#424242;} .icon-vs-fg{fill:#F0EFF1;} .icon-canvas-transparent{opacity:0;fill:#F6F6F6;}</style><path class="icon-canvas-transparent" d="M16 16h-16v-16h16v16z" id="canvas"/><path class="icon-vs-out" d="M16 11h-4.575c.349.522.562 1.138.562 1.802 0 1.614-1.174 2.977-2.731 3.172l-.318.026h-5.695c-1.827-.033-3.243-1.515-3.243-3.372 0-1.223.644-2.336 1.648-2.929.453-1.527 1.784-2.594 3.352-2.649v-7.05h11v11z" id="outline"/><path class="icon-vs-bg" d="M6 7.164v-6.164h4v2h-2v4.83l-.261-.023-.384.025c-.399-.322-.864-.542-1.355-.668zm6-3.164h-3v3h3v-3zm-2 4.835v-.835h-1.211c.466.176.88.464 1.211.835zm1-7.835v2h1v-1h2v2h-1v1h2v-4h-4zm2 7h-2v2h4v-4h-2v2zm-2.014 4.78c0 1.121-.805 2.056-1.855 2.186l-.193.019h-5.695c-1.266-.024-2.243-1.068-2.243-2.379 0-1.036.635-1.919 1.517-2.243.203-1.33 1.295-2.349 2.607-2.349.762 0 1.451.337 1.934.889.215-.08.445-.123.681-.123 1.094 0 1.992.894 2.064 2.019.7.36 1.183 1.112 1.183 1.981zm-1 .001c0-.671-.493-1.216-1.102-1.216l-.258.036c.114-.189.182-.416.182-.662 0-.653-.479-1.181-1.069-1.181-.457 0-.843.316-.997.761-.125-.866-.799-1.531-1.618-1.531-.906 0-1.642.811-1.642 1.813 0 .157.023.306.058.451l-.279-.037c-.696.001-1.261.624-1.261 1.391 0 .766.556 1.381 1.243 1.393v.001h5.694v-.005c.584-.033 1.049-.56 1.049-1.214z" id="iconBg"/><path class="icon-vs-fg" d="M9.986 12.781c0 .653-.465 1.181-1.049 1.214v.005h-5.694v-.001c-.687-.012-1.243-.627-1.243-1.393 0-.767.565-1.391 1.261-1.391l.279.037c-.034-.146-.058-.294-.058-.451 0-1.003.735-1.813 1.642-1.813.819 0 1.493.665 1.618 1.531.154-.444.54-.761.997-.761.591 0 1.069.527 1.069 1.181 0 .246-.067.473-.182.662l.258-.036c.609 0 1.102.545 1.102 1.216z" id="iconFg"/></svg>