<?xml version="1.0" encoding="utf-8"?>
<!-- Generator: Adobe Illustrator 18.1.1, SVG Export Plug-In . SVG Version: 6.00 Build 0)  -->
<!DOCTYPE svg PUBLIC "-//W3C//DTD SVG 1.1//EN" "http://www.w3.org/Graphics/SVG/1.1/DTD/svg11.dtd">
<svg version="1.1" xmlns="http://www.w3.org/2000/svg" xmlns:xlink="http://www.w3.org/1999/xlink" x="0px" y="0px" width="16px"
	 height="16px" viewBox="0 0 16 16" style="enable-background:new 0 0 16 16;" xml:space="preserve">
<style type="text/css">
	.icon-canvas-transparent{opacity:0;fill:#F6F6F6;}
	.icon-vs-out{fill:#F6F6F6;}
	.icon-vs-bg{fill:#424242;}
	.icon-vs-fg{fill:#F0EFF1;}
</style>
<g id="canvas">
	<path class="icon-canvas-transparent" d="M16,16H0V0h16V16z"/>
</g>
<g id="outline">
	<path class="icon-vs-out" d="M11.167,16l-3.186-0.078L0.078,8.019L0,5l1.754-0.441C2.75,4.118,3.917,3.986,5.051,4.173
		C5.228,3.883,5.434,3.577,5.711,3.3c3.286-3.286,8.773-2.944,9.005-2.928l0.367,0.026l0.518,0.518l0.026,0.367
		c0.017,0.232,0.358,5.719-2.928,9.005c-0.278,0.278-0.583,0.483-0.873,0.66c0.187,1.133,0.056,2.3-0.385,3.297L11.167,16z"/>
</g>
<g id="iconBg">
	<path class="icon-vs-bg" d="M10.727,10.509c0.429-0.279,0.932-0.511,1.307-0.887c2.999-2.999,2.602-8.259,2.602-8.259
		s-5.26-0.397-8.259,2.602C6.002,4.342,5.77,4.844,5.491,5.273C4.395,4.936,1.059,6.179,0,6.642l1.201,1.086
		c0,0,1.156,1.173,1.164,1.164C2.93,8.328,3.672,7.6,4.383,7.374C4.065,8.37,3.924,9.58,3.844,10.37l1.786,1.786
		c0.791-0.081,2-0.222,2.996-0.539c-0.225,0.712-0.954,1.454-1.518,2.018c-0.008,0.008,1.164,1.164,1.164,1.164L9.496,16
		C9.959,14.941,11.064,11.605,10.727,10.509z M8.626,10.91l-3.52-3.52c0.118-0.354,1.856-3.801,5.36-4.539l2.7,2.7
		C12.677,8.803,8.979,10.792,8.626,10.91z M11.101,7.021c-0.586,0.586-1.536,0.586-2.121,0c-0.586-0.586-0.586-1.536,0-2.121
		c0.586-0.586,1.536-0.586,2.121,0C11.686,5.485,11.686,6.435,11.101,7.021z"/>
</g>
<g id="iconFg">
	<path class="icon-vs-fg" d="M13.165,5.55l-2.7-2.7C6.962,3.589,5.223,7.036,5.105,7.39l3.52,3.52
		C8.979,10.792,12.677,8.803,13.165,5.55z M8.979,7.021c-0.586-0.586-0.586-1.536,0-2.121c0.586-0.586,1.536-0.586,2.121,0
		c0.586,0.586,0.586,1.536,0,2.121C10.515,7.607,9.565,7.607,8.979,7.021z"/>
</g>
</svg>
