<svg xmlns="http://www.w3.org/2000/svg" viewBox="0 0 16 16"><style>.st0{fill:#f6f6f6}.st1{fill:#424242}</style><path class="st0" d="M14.242 3.007a6.83 6.83 0 0 0-.777-.57c-.902-.563-1.989-.952-3.155-1.186L8.385 0h-.77L5.709 1.239c-1.187.232-2.29.624-3.203 1.197a6.955 6.955 0 0 0-.747.549C.632 3.926.003 5.124 0 6.356v3.353c-.005 1.538.896 2.95 2.538 3.976a8.84 8.84 0 0 0 1.913.882l1.309.432.003-1.379.001-.576.398.398A28.684 28.684 0 0 0 9.06 16h2.147a9.75 9.75 0 0 0 .998-.34l1.783-.729-1.276-.817c.273-.132.532-.275.78-.431 1.609-1.012 2.504-2.404 2.508-3.922V6.409c.004-1.241-.62-2.449-1.758-3.402zM3 8.883a3.268 3.268 0 0 1-.717-.845c.008-.013.019-.025.027-.038.165-.279.396-.547.69-.798v1.681zm3.238 3.078l-.472.385.003-1.379v-.193l1.069.686c-.26.223-.475.398-.6.501zM13 7.881v-.647c.172.149.328.302.456.461L13 7.881z" id="outline"/><g id="icon_x5F_bg"><path class="st1" d="M15 6.406c.003-.927-.47-1.853-1.4-2.632a6.204 6.204 0 0 0-.6-.441v2.658c.216.139.42.283.6.434.571.48.959 1.018 1.178 1.575.01.028.026.055.037.083-.283.769-.893 1.5-1.848 2.099-.722.454-1.564.788-2.465 1.001.561-.677.824-1.02 1.338-1.748A9.378 9.378 0 0 1 9.801 10c-.094.05-.172.183-.246.263-1.097 1.177-2.292 2.151-2.684 2.472a27.512 27.512 0 0 0 2.916 2.564 9.444 9.444 0 0 0 2.04-.565 28.66 28.66 0 0 1-1.332-.898c.901-.212 1.744-.546 2.466-1 1.354-.851 2.03-1.963 2.033-3.077L14.998 8 15 7.106l-.002.024.002-.724zM1.186 8.034c.004-.012.011-.022.015-.034.217-.57.614-1.118 1.199-1.606.182-.151.382-.297.6-.436V3.311a6.248 6.248 0 0 0-.6.441c-.921.77-1.391 1.686-1.393 2.606L1.002 8 1 9.012l.002-.023L1 9.712c-.003 1.13.687 2.262 2.067 3.124.513.32 1.086.58 1.696.781l.007-2.653a7.75 7.75 0 0 1-1.696-.781c-.981-.613-1.605-1.362-1.888-2.149z"/><path class="st1" d="M8.838 9.561c.09-.115.241-.308.492-.441l.146-.078.162-.027a8.367 8.367 0 0 0 1.823-.504L12 8.29V3.833L8 6.5 4 3.833v4.5l3.633 2.422c.383-.353.801-.758 1.205-1.194z"/><path class="st1" d="M11.224 3.149L8 1 4.776 3.149 8 5.298z"/></g></svg>