<svg xmlns="http://www.w3.org/2000/svg" viewBox="0 0 16 16"><style>.st0{opacity:0}.st0,.st1{fill:#f6f6f6}.st2{fill:#424242}.st3{fill:#00539c}.st4{fill:#f0eff1}</style><g id="outline"><path class="st0" d="M0 0h16v16H0z"/><path class="st1" d="M12 6V1.596l-2 1.988V3.5C10 1.57 8.43 0 6.5 0c-.228 0-.45.024-.666.066L5 .316V6H1v10h14V6h-3z"/></g><path class="st2" d="M14 7v8H2V7h3.584l.994 1H4v6h9V8h-2.594l1.006-1H14z" id="icon_x5F_bg"/><path class="st3" d="M9 5.988V3.5a2.5 2.5 0 0 0-2.976-2.452L6.5 2C7.327 2 8 2.673 8 3.5v2.513L6 4v2l2.485 2.5L11 6V4L9 5.988z" id="color_x5F_action"/><path class="st4" d="M6.578 8H4v6h9V8h-2.594L8.48 9.914z" id="icon_x5F_fg"/></svg>