<svg xmlns="http://www.w3.org/2000/svg" viewBox="0 0 16 16"><style>.st0{opacity:0}.st0,.st1{fill:#f6f6f6}.st2{fill:none}.st3{fill:#424242}.st4{fill:#00539c}</style><g id="outline"><path class="st0" d="M0 0h16v16H0z"/><path class="st1" d="M16 11.713V13H0v-1.555L9 5.82v-.906L6.914 7H5v1H2V5.5c0-1.104.719-2.042 1.713-2.373L2.586 2h4.328L9 4.086V.513l7 11.2z"/></g><g id="icon_x5F_bg"><path class="st2" d="M8 11V8.804L4.487 11z"/><path class="st3" d="M10 4v8h5zM9 12V7l-8 5h8zm-1-1H4.487L8 8.804V11z"/></g><path class="st4" d="M4 5.5c0-.275.225-.5.5-.5H6L5 6h1.5L8 4.5 6.5 3H5l1 1H4.5C3.672 4 3 4.673 3 5.5V7h1V5.5z" id="color_x5F_action"/></svg>