<svg xmlns="http://www.w3.org/2000/svg" width="16" height="16"><style type="text/css">.icon-canvas-transparent{opacity:0;fill:#F6F6F6;} .icon-vs-out{fill:#F6F6F6;} .icon-vs-bg{fill:#424242;}</style><path class="icon-canvas-transparent" d="M16 16h-16v-16h16v16z" id="canvas"/><path class="icon-vs-out" d="M9.406 12.139l.88-.897c.523-.534.769-1.28.673-2.047-.089-.707-.452-1.327-1.007-1.727l-3.539 3.534-5.413-.019v-5.396l4-4.009v2.452c1.04-.662 2.264-1.028 3.537-1.028.665 0 1.318.102 1.944.303 2.25.724 4.589 3.087 4.496 5.666.077.932-.052 1.886-.374 2.763-.146.396-.72 1.3-1.049 1.803l-.53.81-3.618-2.208z" id="outline"/><g id="iconBg"><path class="icon-vs-bg" d="M13.975 8.992c.077.81-.03 1.633-.311 2.397-.128.348-.947 1.599-.947 1.599l-1.717-1.047c1.558-1.59 1.204-4.282-.685-5.433-1.751-1.066-4.076-.363-4.964 1.492h2.649c-.594.591-2 2-2 2l-4-.014v-3.986l2-2.008v2.348c1.367-1.945 3.915-2.809 6.174-2.083 1.879.604 3.914 2.658 3.801 4.735z"/></g></svg>