<svg xmlns="http://www.w3.org/2000/svg" viewBox="0 0 16 16"><style>.st0{opacity:0}.st0,.st1{fill:#f6f6f6}.st2{fill:#424242}.st3{fill:#f0eff1}</style><g id="outline"><path class="st0" d="M0 0h16v16H0z"/><path class="st1" d="M10 11h5.684l.25-.834c.042-.217.066-.437.066-.666C16 7.57 14.43 6 12.5 6h-.084l1.988-2H10V1H0v14h10v-4z"/></g><path class="st2" d="M9 14H1V2h8v2.587L8 5.594V3H2v9h6V9.422l1 .994V14zm3-9h-2L7.5 7.515 10 10h2L9.987 8H12.5c.827 0 1.5.673 1.5 1.5l.952.477A2.5 2.5 0 0 0 12.5 7h-2.488L12 5z" id="icon_x5F_bg"/><path class="st3" d="M8 5.594V3H2v9h6V9.422L6.086 7.52z" id="icon_x5F_fg"/></svg>