<svg xmlns="http://www.w3.org/2000/svg" viewBox="0 0 16 16"><style>.st0{opacity:0}.st0,.st1{fill:#f6f6f6}.st2{fill:#424242}.st3{fill:#f0eff1}</style><g id="outline"><path class="st0" d="M0 0h16v16H0z"/><path class="st1" d="M11 6V.316l-.834-.25A3.482 3.482 0 0 0 9.5 0C7.57 0 6 1.57 6 3.5v.084L4 1.596V6H1v10h14V6h-4z"/></g><path class="st2" d="M14 7v8H2V7h2.587l1.006 1H3v6h9V8H9.422l.994-1H14z" id="icon_x5F_bg"/><path class="st2" d="M5 4v2l2.515 2.5L10 6V4L8 6.013V3.5C8 2.673 8.673 2 9.5 2l.477-.952A2.5 2.5 0 0 0 7 3.5v2.488L5 4z" id="color_x5F_action"/><path class="st3" d="M5.594 8H3v6h9V8H9.422L7.52 9.914z" id="icon_x5F_fg"/></svg>