<svg xmlns="http://www.w3.org/2000/svg" viewBox="0 0 16 16"><style>.st0{opacity:0}.st0,.st1{fill:#f6f6f6}.st2{fill:none}.st3{fill:#424242}.st4{fill:#00539c}</style><g id="outline"><path class="st0" d="M0 0h16v16H0z"/><path class="st1" d="M0 11.713V13h16v-1.555L7 5.821v-.907L9.086 7H11v1h3V5.5a2.505 2.505 0 0 0-1.713-2.373L13.414 2H9.086L7 4.086V.513l-7 11.2z"/></g><g id="icon_x5F_bg"><path class="st2" d="M8 8.804V11h3.514z"/><path class="st3" d="M6 12V4l-5 8zM7 7v5h8L7 7zm1 1.804L11.514 11H8V8.804z"/></g><path class="st4" d="M11 6l-1-1h1.5c.275 0 .5.225.5.5V7h1V5.5c0-.827-.672-1.5-1.5-1.5H10l1-1H9.5L8 4.5 9.5 6H11z" id="color_x5F_action"/></svg>