<svg xmlns="http://www.w3.org/2000/svg" viewBox="0 0 16 16"><style>.st0{opacity:0}.st0,.st1{fill:#f6f6f6}.st2{fill:#424242}.st3{fill:#f0eff1}</style><g id="outline"><path class="st0" d="M0 0h16v16H0z"/><path class="st1" d="M16 1H6v.025A5.507 5.507 0 0 0 1.025 6H1v10h9v-6h6V1z"/></g><path class="st2" d="M7 2C4 2 2 4 2 7v8h7V9h6V2H7zM3 14V7c0-1.157.365-2.11 1-2.8V7h1v7H3zm11-6H8v6H6V7h1V6h7v2zM7 5V4H4.2c.69-.635 1.643-1 2.8-1h7v2H7z" id="icon_x5F_bg"/><path class="st3" d="M7 4H4.2c.69-.635 1.643-1 2.8-1h7v2H7V4zm0 3H6v7h2V8h6V6H7v1zM4 7V4.2c-.635.69-1 1.643-1 2.8v7h2V7H4z" id="icon_x5F_fg"/></svg>