<svg xmlns="http://www.w3.org/2000/svg" viewBox="0 0 16 16"><style>.st0{opacity:0}.st0,.st1{fill:#f6f6f6}.st2{fill:none}.st3{fill:#424242}.st4{fill:#f0eff1}</style><g id="outline"><path class="st0" d="M0 0h16v16H0z"/><path class="st1" d="M1 14V2h14v6c-.001 3.706-3.634 6-7 6H1z"/></g><g id="icon_x5F_bg"><path class="st2" d="M3 12h5c2.276 0 5-1.688 5-4V4H3v8z"/><path class="st3" d="M2 3v10h6c2.999 0 5.999-2 6-5V3H2zm11 5c0 2.313-2.724 4-5 4H3V4h10v4z"/></g><path class="st4" d="M13 8c0 2.313-2.724 4-5 4H3V4h10v4z" id="icon_x5F_fg"/></svg>