<svg xmlns="http://www.w3.org/2000/svg" viewBox="0 0 16 16"><style>.st0{opacity:0}.st0,.st1{fill:#f6f6f6}.st2{fill:#424242}.st3{fill:#f0eff1}</style><g id="outline"><path class="st0" d="M0 0h16v16H0z"/><path class="st1" d="M5 13c-1.654 0-3-1.346-3-3V6c0-1.654 1.346-3 3-3h7c1.654 0 3 1.346 3 3v4c0 1.654-1.346 3-3 3H5z"/></g><path class="st2" d="M12 4H5a2 2 0 0 0-2 2v4a2 2 0 0 0 2 2h7a2 2 0 0 0 2-2V6a2 2 0 0 0-2-2zm1 2.545v2.91l-.003.018c0 .009.003.017.003.027a1.5 1.5 0 0 1-1.5 1.5h-6A1.5 1.5 0 0 1 4 9.5c0-.01.003-.018.003-.027L4 9.455v-2.91l.003-.017C4.003 6.519 4 6.51 4 6.5A1.5 1.5 0 0 1 5.5 5h6A1.5 1.5 0 0 1 13 6.5c0 .01-.003.019-.003.028l.003.017z" id="icon_x5F_bg"/><path class="st3" d="M11.5 5h-6A1.5 1.5 0 0 0 4 6.5c0 .01.003.019.003.028L4 6.545v2.91l.003.018c0 .009-.003.017-.003.027A1.5 1.5 0 0 0 5.5 11h6A1.5 1.5 0 0 0 13 9.5c0-.01-.003-.018-.003-.027L13 9.455v-2.91l-.003-.017c0-.009.003-.018.003-.028A1.5 1.5 0 0 0 11.5 5z" id="icon_x5F_fg"/></svg>