<svg xmlns="http://www.w3.org/2000/svg" viewBox="0 0 16 16"><style>.st0{opacity:0}.st0,.st1{fill:#f6f6f6}.st2{fill:#424242}.st3{fill:#f0eff1}</style><g id="outline"><path class="st0" d="M0 0h16v16H0z"/><path class="st1" d="M6 14c-3.404-.303-6-3.156-6-6.5s2.596-6.197 5.91-6.496L16 1v13H6z"/></g><path class="st2" d="M6 2c-2.803.253-5 2.632-5 5.5s2.197 5.247 5 5.5h9V2H6zm8 5H8V6H5v3h3V8h6v4H6c-2.204-.203-4-2.182-4-4.5 0-2.319 1.796-4.297 4.09-4.504L14 3v4z" id="icon_x5F_bg"/><path class="st3" d="M2 7.5c0 2.318 1.796 4.297 4 4.5h8V8H8v1H5V6h3v1h6V3l-7.91-.004C3.796 3.203 2 5.181 2 7.5z" id="icon_x5F_fg"/></svg>