<?xml version="1.0" encoding="utf-8"?>
<!-- Generator: Adobe Illustrator 18.0.0, SVG Export Plug-In . SVG Version: 6.00 Build 0)  -->
<!DOCTYPE svg PUBLIC "-//W3C//DTD SVG 1.1//EN" "http://www.w3.org/Graphics/SVG/1.1/DTD/svg11.dtd">
<svg version="1.1" xmlns="http://www.w3.org/2000/svg" xmlns:xlink="http://www.w3.org/1999/xlink" x="0px" y="0px" width="16px"
	 height="16px" viewBox="0 0 16 16" style="enable-background:new 0 0 16 16;" xml:space="preserve">
<style type="text/css">
	.icon-canvas-transparent{opacity:0;fill:#F6F6F6;}
	.icon-vs-out{fill:#F6F6F6;}
	.icon-vs-bg{fill:#424242;}
	.icon-vs-fg{fill:#F0EFF1;}
</style>
<g id="canvas">
	<path class="icon-canvas-transparent" d="M16,16H0V0h16V16z"/>
</g>
<g id="outline">
	<path class="icon-vs-out" d="M16,15H1V1h15V15z"/>
</g>
<g id="iconBg">
	<path class="icon-vs-bg" d="M2,2v12h13V2H2z M6,13H3v-2h3V13z M6,10H3V8h3V10z M10,13H7v-2h3V13z M10,7H7V5h3V7z
		 M14,10h-3V8h3V10z M14,7h-3V5h3V7z"/>
</g>
<g id="iconFg">
	<path class="icon-vs-fg" d="M14,7h-3V5h3V7z M14,8h-3v2h3V8z M10,5H7v2h3V5z M6,8H3v2h3V8z M10,11H7v2h3V11z M6,11H3v2
		h3V11z"/>
</g>
</svg>
