<svg xmlns="http://www.w3.org/2000/svg" viewBox="0 0 16 16"><style>.st0{fill:#f6f6f6}.st1{fill:#424242}.st2{fill:#f0eff1}.st3{fill:#fc0}</style><path class="st0" d="M14.652 10.354c.103-.095.202-.192.288-.304l.477-.614-.698-.895.354-.044.781-.19.1-.768C15.979 7.362 16 7.185 16 7c0-.182-.021-.357-.059-.631l-.098-.769-1.124-.141.698-.895-.476-.614a5.037 5.037 0 0 0-.89-.891l-.614-.477-.897.7-.044-.355-.191-.782-.769-.099C11.359 2.021 11.184 2 11 2s-.359.021-.632.059l-.768.099-.14 1.124-.897-.699-.615.477a5.071 5.071 0 0 0-.89.891l-.475.614.34.435H5.914l1.5-1.5-2.5-2.5H3V0H0v2.5c0 1.104.719 2.042 1.713 2.373L.586 6H2v5h6v-.019l.36.279-1.39 2.766L8.004 16h6.998l.971-2.005-1.64-3.306.319-.335zM7 5.495v-.396l.281.36L7 5.495z" id="outline"/><path class="st1" d="M4 4H2.5C1.673 4 1 3.327 1 2.5V1h1v1.5c0 .275.225.5.5.5H4L3 2h1.5L6 3.5 4.5 5H3l1-1zm-1 6h4V9H3v1zm0-3h3V6H3v1zm8-1a1 1 0 0 0-1 1c0 .222.086.417.209.583L10.5 7H12a1 1 0 0 0-1-1zm3.949 1.504c.022-.166.051-.33.051-.504 0-.172-.029-.336-.051-.504l-1.235-.154a2.804 2.804 0 0 0-.331-.795l.768-.984a3.972 3.972 0 0 0-.712-.713l-.985.768a2.773 2.773 0 0 0-.795-.33l-.154-1.236C11.337 3.029 11.173 3 11 3s-.337.029-.504.051l-.154 1.236a2.773 2.773 0 0 0-.795.33l-.985-.767a3.972 3.972 0 0 0-.712.713l.768.984c-.148.244-.262.51-.331.795l-1.236.154C7.029 6.664 7 6.828 7 7c0 .174.029.338.051.504l1.235.154c.069.285.183.551.331.795L8 9.244v.344c.174.201.351.399.562.563l.595-.464.576-1.151A1.986 1.986 0 0 1 9 7c0-1.104.893-2 2-2s2 .896 2 2c0 .255-.052.497-.14.722l1.002 2.004c.094-.099.204-.18.288-.288l-.768-.984c.148-.244.262-.51.331-.795l1.236-.155z" id="icon_x5F_bg"/><path class="st2" d="M9.732 8.535l.477-.953A.97.97 0 0 1 10 7a1 1 0 1 1 2 0h.5l.36.721c.087-.224.14-.466.14-.721a2 2 0 0 0-4 0c0 .621.289 1.169.732 1.535z" id="icon_x5F_fg"/><path class="st3" d="M11.891 8.016h-.781l-3.016 6 .515.984h5.766l.484-1-2.968-5.984zM12 14h-1v-1h1v1zm0-2h-1v-2h1v2z" id="not_x5F_bg"/><path d="M12 12h-1v-2h1v2zm0 1h-1v1h1v-1z" id="not_x5F_fg"/></svg>