<svg xmlns="http://www.w3.org/2000/svg" viewBox="0 0 16 16"><style>.st0{fill:#f6f6f6}.st1{fill:#424242}.st2{fill:#f0eff1}.st3{fill:#e51400}.st4{fill:#fff}</style><path class="st0" d="M15.073 8.496l.781-.189.1-.769A3.79 3.79 0 0 0 16 7c0-.182-.021-.357-.059-.631l-.098-.769-1.124-.141.698-.895-.476-.614a5.037 5.037 0 0 0-.89-.891l-.614-.477-.897.7-.044-.355-.191-.782-.769-.099C11.359 2.021 11.184 2 11 2s-.359.021-.632.059l-.768.099-.14 1.124-.897-.699-.615.477a5.071 5.071 0 0 0-.89.891l-.475.614.34.435H5.914l1.5-1.5-2.5-2.5H3V0H0v2.5c0 1.104.719 2.042 1.713 2.373L.586 6H2v5h5.051c-.019.166-.051.329-.051.5 0 2.481 2.019 4.5 4.5 4.5s4.5-2.019 4.5-4.5a4.463 4.463 0 0 0-1.15-2.976l.223-.028zM7.281 5.459L7 5.495v-.396l.281.36z" id="outline"/><g id="icon_x5F_bg"><path class="st1" d="M3 6h3v1H3zM3 5h1.5L6 3.5 4.5 2H3l1 1H2.5a.501.501 0 0 1-.5-.5V1H1v1.5C1 3.327 1.673 4 2.5 4H4L3 5zM3 9h4v1H3zM11 6a1 1 0 0 0-1 1c0 .092.029.175.053.259A4.447 4.447 0 0 1 11.5 7c.168 0 .327.031.49.049.001-.017.01-.031.01-.049a1 1 0 0 0-1-1z"/><path class="st1" d="M14.949 6.496l-1.235-.154a2.804 2.804 0 0 0-.331-.795l.768-.984a3.972 3.972 0 0 0-.712-.713l-.985.768a2.773 2.773 0 0 0-.795-.33l-.154-1.236C11.337 3.029 11.173 3 11 3s-.337.029-.504.051l-.154 1.236a2.773 2.773 0 0 0-.795.33l-.985-.767a3.972 3.972 0 0 0-.712.713l.768.984c-.148.244-.262.51-.331.795l-1.236.154C7.029 6.664 7 6.828 7 7c0 .174.029.338.051.504l1.235.154c.045.185.114.359.194.527.202-.185.417-.351.649-.496A1.993 1.993 0 0 1 9 7c0-1.104.893-2 2-2s2 .896 2 2c0 .091-.015.179-.027.267.289.101.563.227.821.381l1.155-.144c.022-.166.051-.33.051-.504 0-.172-.029-.336-.051-.504z"/></g><path class="st2" d="M10.053 7.259C10.029 7.175 10 7.092 10 7a1 1 0 1 1 2 0c0 .018-.009.032-.01.049.341.038.669.108.983.218.012-.088.027-.175.027-.267a2 2 0 0 0-4 0c0 .244.05.474.13.689.287-.178.597-.318.923-.43z" id="icon_x5F_fg"/><path class="st3" d="M11.5 8a3.5 3.5 0 1 0 0 7 3.5 3.5 0 0 0 0-7zm1.854 4.646l-.707.707-1.147-1.146-1.146 1.147-.707-.707 1.147-1.146-1.147-1.146.707-.707 1.146 1.147 1.146-1.147.707.707-1.146 1.145 1.147 1.146z" id="not_x5F_bg"/><path class="st4" d="M13.354 10.354l-.708-.708-1.146 1.147-1.146-1.147-.708.708 1.147 1.146-1.147 1.146.708.708 1.146-1.147 1.146 1.147.708-.708-1.147-1.146z" id="not_x5F_fg"/></svg>