<svg xmlns="http://www.w3.org/2000/svg" viewBox="0 0 16 16"><style>.st0{opacity:0}.st0,.st1{fill:#f6f6f6}.st2{fill:#424242}.st3{fill:#f0eff1}</style><g id="outline"><path class="st0" d="M0 0h16v16H0z"/><path class="st1" d="M0 0h16v15H0z"/></g><path class="st2" d="M14 1H1v13h14V1h-1zM4 13H2v-1h1v-1H2v-1h2v3zm0-4H2V8h1V7H2V6h2v3zm0-4H2V4h1V3H2V2h2v3zm10 8H6v-3h8v3zm0-4H6V6h8v3zm0-4H6V2h8v3z" id="icon_x5F_bg"/><g id="icon_x5F_fg"><path class="st3" d="M6 2h8v3H6zM6 6h8v3H6zM6 10h8v3H6zM2 11h1v1H2v1h2v-3H2zM2 7h1v1H2v1h2V6H2zM2 3h1v1H2v1h2V2H2z"/></g></svg>