<svg xmlns="http://www.w3.org/2000/svg" viewBox="0 0 16 16"><style>.st0{opacity:0}.st0,.st1{fill:#f6f6f6}.st2{fill:#424242}.st3{fill:#f0eff1}</style><g id="outline"><path class="st0" d="M0 0h16v16H0z"/><path class="st1" d="M0 0h16v15H0z"/></g><path class="st2" d="M14 1H1v13h14V1h-1zm-3 1v3H9V2h2zM6 6h2v3H6V6zm3 0h2v3H9V6zM8 2v3H6V2h2zM2 4h1V2h1v3H2V4zm0 4h1V6h1v3H2V8zm0 5v-1h1v-2h1v3H2zm4 0v-3h2v3H6zm3 0v-3h2v3H9zm5 0h-2v-3h2v3zm0-4h-2V6h2v3zm0-4h-2V2h2v3z" id="icon_x5F_bg"/><g id="icon_x5F_fg"><path class="st3" d="M9 2h2v3H9zM12 6h2v3h-2zM3 8H2v1h2V6H3zM12 2h2v3h-2zM6 6h2v3H6zM9 6h2v3H9zM3 4H2v1h2V2H3zM9 10h2v3H9zM6 2h2v3H6zM12 10h2v3h-2zM3 12H2v1h2v-3H3zM6 10h2v3H6z"/></g></svg>