<svg xmlns="http://www.w3.org/2000/svg" viewBox="0 0 16 16"><style>.icon-canvas-transparent{opacity:0;fill:#f6f6f6}.icon-vs-out{fill:#f6f6f6}.icon-vs-bg{fill:#424242}.icon-vs-blue{fill:#1ba1e2}</style><path class="icon-canvas-transparent" d="M16 0v16H0V0h16z" id="canvas"/><path class="icon-vs-out" d="M15.465 6.346L8 15H0v-4h6.039l.344-1H0V6h9.694l.828-1H0V1h15v1.956c.052.036.107.064.156.105a2.336 2.336 0 0 1 .309 3.285z" id="outline"/><path class="icon-vs-bg" d="M14 2v.303c-.11-.014-.22-.029-.331-.029-.773 0-1.499.341-1.991.937L11.024 4H1V2h13zM1 9h5.885l1.656-2H1v2z" id="iconBg"/><g id="colorAction"><path transform="rotate(-50.379 10.532 8.645)" class="icon-vs-blue" d="M7.533 7.312h6v2.667h-6z"/><path class="icon-vs-blue" d="M11.419 5.484l2.054 1.701-3.826 4.622-2.054-1.701 3.826-4.622zm-5.191 8.361l2.519-1.161-1.849-1.531-.67 2.692zm8.29-10.014a1.332 1.332 0 0 0-1.877.177l-.425.514 2.054 1.7.425-.513a1.333 1.333 0 0 0-.177-1.878zM1 14h3.901l.498-2H1v2z"/></g></svg>