<svg xmlns="http://www.w3.org/2000/svg" viewBox="0 0 16 16"><style>.st0{opacity:0}.st0,.st1{fill:#f6f6f6}.st2{fill:#424242}</style><g id="outline"><path class="st0" d="M0 0h16v16H0z"/><path class="st1" d="M16 7.703V14h-3.162c-.452 1.439-1.839 2-2.838 2H9v-2H7v-3H5v-1c0-.771.301-1.468.78-2H1V2h4V0h3v7h1V5h2c.983 0 1.78.845 1.961 2H14c.519 0 1.039.143 1.504.413l.496.29z"/></g><g id="icon_x5F_bg"><path class="st2" d="M6 3h1v4H6zM6 1h1v1H6zM15 9c0-.828-.447-1-1-1h-2s-.002-.074-.021-.197A15.2 15.2 0 0 0 12 7c0-.828-.447-1-1-1h-1v1c.553 0 1 .172 1 1H8a2 2 0 0 0-2 2h1a1 1 0 0 1 1-1h5c.553 0 1 .172 1 1h1s-.002-.074-.021-.197A15.2 15.2 0 0 0 15 9zM12 11h1v-1H8v1h3v1H8v1h3s0 1-1 1v1s2 0 2-2h3v-1h-3v-1zM4.076 5.544c.173-.132.319-.258.437-.38.12-.122.217-.241.292-.356.075-.115.128-.229.161-.343.032-.114.048-.229.048-.346 0-.155-.028-.302-.086-.438a.933.933 0 0 0-.267-.357 1.293 1.293 0 0 0-.456-.237A2.188 2.188 0 0 0 3.552 3a2.808 2.808 0 0 0-.772.106 2.615 2.615 0 0 0-.314.106c-.061.025-.108.05-.158.075v.964c.745-.547 1.181-.501 1.43-.32.12.129.18.308.072.529C3.33 5.139 2 6.023 2 6.023V7h3v-.977H3.456l.62-.479z"/></g></svg>