<svg xmlns="http://www.w3.org/2000/svg" viewBox="0 0 16 16"><style>.icon-canvas-transparent{opacity:0;fill:#f6f6f6}.icon-vs-out{fill:#f6f6f6}.icon-vs-bg{fill:#424242}.icon-white{fill:#fff}.icon-vs-red{fill:#e51400}</style><path class="icon-canvas-transparent" d="M16 16H0V0h16v16z" id="canvas"/><path class="icon-vs-out" d="M16 11.5A4.5 4.5 0 1 1 7.76 9H0V0h8.951c1.067 0 1.947.237 2.612.704.774.542 1.202 1.351 1.202 2.274 0 .391-.079.764-.234 1.109.309.461.469.995.469 1.567a3.13 3.13 0 0 1-.379 1.503C14.561 7.658 16 9.404 16 11.5z" id="outline"/><path class="icon-vs-bg" d="M11.5 7c.066 0 .129.017.194.02.199-.312.306-.678.306-1.109a1.58 1.58 0 0 0-.413-1.104c-.284-.315-.667-.504-1.147-.566v-.02c.351-.101.642-.276.879-.527.277-.296.417-.647.417-1.054 0-.505-.189-.9-.566-1.187C10.769 1.151 10.188 1 9.424 1H7v7h1.703c.771-.616 1.735-1 2.797-1zM9 2.162h.062c.73 0 1.096.257 1.096.771 0 .273-.09.49-.269.649-.18.16-.423.239-.729.239H9V2.162zm0 2.831h.321c.344 0 .612.08.808.239.195.16.293.379.293.659 0 .286-.096.516-.288.688-.201.173-.476.259-.821.259H9V4.993zm-4.779-.141v-.02c.455-.127.81-.352 1.066-.674.27-.342.404-.76.404-1.254C5.691 1.635 4.902 1 3.323 1H1v7h2V5.32c.365 0 .441.292.658.878L4.316 8H6l-.849-2.07c-.239-.589-.548-.949-.93-1.078zm-.344-1.031c-.193.205-.453.308-.776.308H3V2.181h.128c.681 0 1.021.306 1.021.918-.001.286-.09.527-.272.722z" id="iconBg"/><path class="icon-vs-red" d="M11.5 8a3.5 3.5 0 1 0 0 7 3.5 3.5 0 0 0 0-7zM9 12v-1h5v1H9z" id="notificationBg"/><path class="icon-white" d="M14 12H9v-1h5v1z" id="notificationFg"/></svg>