<svg xmlns="http://www.w3.org/2000/svg" viewBox="0 0 16 16" enable-background="new 0 0 16 16"><style type="text/css">.icon-canvas-transparent{opacity:0;fill:#F6F6F6;} .icon-vs-out{fill:#F6F6F6;} .icon-vs-bg{fill:#424242;} .icon-vs-fg{fill:#F0EFF1;}</style><path class="icon-canvas-transparent" d="M16 16h-16v-16h16v16z" id="canvas"/><path class="icon-vs-out" d="M15 1v15h-7v-15h7zm-11.566-1l-2.434 3.441v9.559c0 1.654 1.346 3 3 3s3-1.346 3-3v-9.559l-2.434-3.441h-1.132z" id="outline"/><path class="icon-vs-fg" d="M10 13h1v-1h-1v-1h2v-1h-2v-1h1v-1h-1v-1h2v-1h-2v-1h1v-1h-1v-1h3v11h-3v-1zm-7-7.818c.307.155.646.252 1 .252s.693-.096 1-.252v5.818h-2v-5.818zm1.935-1.197c-.472.527-1.399.527-1.869-.001l.934-1.321.935 1.322zm-.935 10.015c-.552 0-1-.448-1-1v-1h2v1c0 .552-.448 1-1 1z" id="iconFg"/><path class="icon-vs-bg" d="M4 .932l-2 2.827v9.241c0 1.102.898 2 2 2s2-.898 2-2v-9.241l-2-2.827zm-1 4.25c.307.155.646.252 1 .252s.693-.096 1-.252v5.818h-2v-5.818zm1.935-1.197c-.472.527-1.399.527-1.869-.001l.934-1.321.935 1.322zm-.935 10.015c-.552 0-1-.448-1-1v-1h2v1c0 .552-.448 1-1 1zm5 1h5v-13h-5v13zm1-2h1v-1h-1v-1h2v-1h-2v-1h1v-1h-1v-1h2v-1h-2v-1h1v-1h-1v-1h3v11h-3v-1z" id="iconBg"/></svg>