<svg xmlns="http://www.w3.org/2000/svg" viewBox="0 0 16 16"><style>.st0{opacity:0}.st0,.st1{fill:#f6f6f6}.st2{fill:none}.st3{fill:#424242}.st4{fill:#f0eff1}</style><g id="outline"><path class="st0" d="M0 0h16v16H0z"/><path class="st1" d="M12.617 6.996l2.001-4H8.383l.999 2H0v9h15v-7z"/></g><g id="icon_x5F_bg"><path class="st2" d="M6 12h1v-2h1v2h1V9H6zM2 12h1v-2h1v2h1V9H2zM10 12h1v-2h1v2h1V9h-3z"/><path class="st3" d="M13 4h-3l1.499 3zM1 6h9v1H1zM1 8v5h13V8H1zm4 4H4v-2H3v2H2V9h3v3zm4 0H8v-2H7v2H6V9h3v3zm4 0h-1v-2h-1v2h-1V9h3v3z"/></g><g id="icon_x5F_fg"><path class="st4" d="M7 10h1v2h1V9H6v3h1zM3 10h1v2h1V9H2v3h1zM11 10h1v2h1V9h-3v3h1z"/></g></svg>