<svg xmlns="http://www.w3.org/2000/svg" viewBox="0 0 16 16"><style>.icon-canvas-transparent{opacity:0;fill:#f6f6f6}.icon-vs-out{fill:#f6f6f6}.icon-vs-bg{fill:#424242}.icon-vs-fg{fill:#f0eff1}</style><path class="icon-canvas-transparent" d="M16 16H0V0h16v16z" id="canvas"/><path class="icon-vs-out" d="M13 11H2V5h11v6z" id="outline"/><path class="icon-vs-fg" d="M4 7h3v2H6V8H5v1H4V7zm4 0v2h1V8h1v1h1V7H8z" id="iconFg"/><g id="iconBg"><path class="icon-vs-bg" d="M3 6v4h9V6H3zm4 2v1H6V8H5v1H4V7h3v1zm4 0v1h-1V8H9v1H8V7h3v1z"/></g></svg>