<svg xmlns="http://www.w3.org/2000/svg" viewBox="0 0 16 16"><style>.st0{fill:#f6f6f6}.st1{fill:none}.st2{fill:#424242}.st3{fill:#f0eff1}.st4{fill:#fc0}</style><g id="outline"><path class="st0" d="M.5 15.5V.5h13v9.618L15.441 14l-.75 1.5z"/><path class="st0" d="M13 1v9.236l.106.211L14.882 14l-.5 1H1V1h12m1-1H0v16h15l1-2-2-4V0z"/></g><g id="icon_x5F_bg"><circle class="st1" cx="7" cy="5.999" r="1.5"/><path class="st2" d="M1 1v14h6.5L7 14H2V2h10v5h.5l.5 1V1z"/><path class="st2" d="M7 3a3 3 0 0 0-1.158 5.767L5.125 13H5.5L7 11l.929 1.143.645-1.289-.416-2.087A3 3 0 0 0 7 3zm0 4.499a1.5 1.5 0 1 1 0-3 1.5 1.5 0 0 1 0 3z"/></g><g id="icon_x5F_fg"><path class="st3" d="M2 2v12h5l.929-1.857L7 11l-1.5 2h-.375l.717-4.233a3 3 0 1 1 2.316 0l.415 2.087L10.5 7H12V2H2z"/><circle class="st3" cx="7" cy="5.999" r="1.5"/></g><path class="st4" d="M11.891 8.016h-.781l-3.016 6 .515.984h5.766l.484-1-2.968-5.984zM12 14h-1v-1h1v1zm0-2h-1v-2h1v2z" id="not_x5F_bg"/><path d="M12 12h-1v-2h1v2zm0 1h-1v1h1v-1z" id="not_x5F_fg"/></svg>