<svg xmlns="http://www.w3.org/2000/svg" width="16" height="16"><style type="text/css">.icon-canvas-transparent{opacity:0;fill:#F6F6F6;} .icon-vs-out{fill:#F6F6F6;} .icon-vs-bg{fill:#424242;} .icon-vs-fg{fill:#F0EFF1;}</style><path class="icon-canvas-transparent" d="M16 16h-16v-16h16v16z" id="canvas"/><path class="icon-vs-out" d="M16 3v11h-16v-11h16z" id="outline"/><path class="icon-vs-bg" d="M1 4v9h14v-9h-14zm2 8h-1v-1h1v1zm0-2h-1v-1h1v1zm0-2h-1v-1h1v1zm0-2h-1v-1h1v1zm10 6h-9v-7h9v7zm-1-6h-7v5h7v-5zm-5 4h-1v-1h1v1zm0-2h-1v-1h1v1zm2 2h-1v-1h1v1zm0-2h-1v-1h1v1zm2 2h-1v-1h1v1zm0-2h-1v-1h1v1z" id="iconBg"/><g id="iconFg"><path class="icon-vs-fg" d="M4 5v7h9v-7h-9zm8 6h-7v-5h7v5zm-5-1h-1v-1h1v1zm0-2h-1v-1h1v1zm2 2h-1v-1h1v1zm0-2h-1v-1h1v1zm2 2h-1v-1h1v1zm0-2h-1v-1h1v1zm-8 4h-1v-1h1v1zm0-2h-1v-1h1v1zm0-2h-1v-1h1v1zm0-2h-1v-1h1v1z"/></g></svg>