<svg xmlns="http://www.w3.org/2000/svg" viewBox="0 0 16 16"><style>.st0{fill:#f6f6f6}.st1{fill:none}.st2{fill:#424242}.st3{fill:#f0eff1}.st4{fill:#e51400}.st5{fill:#fff}</style><path class="st0" d="M16 11.5c0-1.56-.795-2.933-2-3.74V0H0v16h14v-.76c1.205-.807 2-2.18 2-3.74z" id="outline"/><g id="icon_x5F_bg"><circle class="st1" cx="7" cy="5.999" r="1.5"/><path class="st2" d="M7 3a3 3 0 0 0-1.158 5.767L5.125 13H5.5L7 11l.045.055a4.482 4.482 0 0 1 2.594-3.642C9.866 6.991 10 6.513 10 6a3 3 0 0 0-3-3zm0 4.499a1.5 1.5 0 1 1 0-3 1.5 1.5 0 0 1 0 3z"/><path class="st2" d="M1 1v14h7.703a4.5 4.5 0 0 1-.943-1H2V2h10v5.05c.347.039.682.112 1 .225V1H1z"/></g><g id="icon_x5F_fg"><circle class="st3" cx="7" cy="5.999" r="1.5"/><path class="st3" d="M2 2v12h5.76A4.476 4.476 0 0 1 7 11.5c0-.152.03-.296.045-.445L7 11l-1.5 2h-.375l.717-4.233A3 3 0 1 1 10 6c0 .513-.134.991-.361 1.413A4.458 4.458 0 0 1 11.5 7c.171 0 .334.032.5.05V2H2z"/></g><path class="st4" d="M11.5 8a3.5 3.5 0 1 0 0 7 3.5 3.5 0 0 0 0-7zm1.854 4.646l-.707.707-1.147-1.146-1.146 1.147-.707-.707 1.147-1.146-1.147-1.146.707-.707 1.146 1.147 1.146-1.147.707.707-1.146 1.145 1.147 1.146z" id="not_x5F_bg"/><path class="st5" d="M13.354 10.354l-.708-.708-1.146 1.147-1.146-1.147-.708.708 1.147 1.146-1.147 1.146.708.708 1.146-1.147 1.146 1.147.708-.708-1.147-1.146z" id="not_x5F_fg"/></svg>