<svg xmlns="http://www.w3.org/2000/svg" width="16" height="16"><style type="text/css">.icon-canvas-transparent{opacity:0;fill:#F6F6F6;} .icon-vs-out{fill:#F6F6F6;} .icon-vs-bg{fill:#424242;} .icon-vs-fg{fill:#F0EFF1;}</style><path class="icon-canvas-transparent" d="M16 16h-16v-16h16v16z" id="canvas"/><path class="icon-vs-out" d="M16 13h-16v-9h16v9z" id="outline"/><path class="icon-vs-bg" d="M5 9h1v1h-1v-1zm-4-3h1v-1h-1v1zm6 2h1v-1h-1v1zm0 2h1v-1h-1v1zm-2-2h1v-1h-1v1zm-4 4h1v-1h-1v1zm0-2h1v-1h-1v1zm0-2h1v-1h-1v1zm12 2h2v-1h-2v1zm0 2h2v-1h-2v1zm0-4h2v-1h-2v1zm0-3v1h2v-1h-2zm-10 0h9v7h-9v-7zm1 6h7v-5h-7v5zm5-3h1v-1h-1v1zm0 2h1v-1h-1v1z" id="iconBg"/><g id="iconFg"><path class="icon-vs-fg" d="M4 11h7v-5h-7v5zm5-4h1v1h-1v-1zm0 2h1v1h-1v-1zm-2-2h1v1h-1v-1zm0 2h1v1h-1v-1zm-2-2h1v1h-1v-1zm0 2h1v1h-1v-1z"/></g></svg>