<svg xmlns="http://www.w3.org/2000/svg" viewBox="0 0 16 16"><style>.st0{opacity:0}.st0,.st1{fill:#f6f6f6}.st2{fill:#424242}.st3{fill:#f0eff1}</style><g id="outline"><path class="st0" d="M0 0h16v16H0z"/><path class="st1" d="M1 0h14v16H1z"/></g><g id="icon_x5F_bg"><path class="st2" d="M6.842 8.767L6.125 13H6.5L8 11l1.625 2H10l-.842-4.233a3 3 0 1 0-2.316 0zM8 4.499A1.5 1.5 0 1 1 7.999 7.5 1.5 1.5 0 0 1 8 4.5z"/><path class="st2" d="M2 1v14h12V1H2zm11 13H3V2h10v12z"/></g><g id="icon_x5F_fg"><circle class="st3" cx="8" cy="5.999" r="1.5"/><path class="st3" d="M3 2v12h10V2H3zm6.158 6.767L10 13h-.375L8 11l-1.5 2h-.375l.717-4.233a3 3 0 1 1 2.316 0z"/></g></svg>