<svg xmlns="http://www.w3.org/2000/svg" viewBox="0 0 16 16"><style>.st0{opacity:0}.st0,.st1{fill:#f6f6f6}.st2{fill:none}.st3{fill:#424242}.st4{fill:#388a34}.st5{fill:#f0eff1}</style><g id="outline"><path class="st0" d="M0 0h16v16H0z"/><path class="st1" d="M7.944 4L1.277 0H0v8.766l4-2.4V16h12V4z"/></g><g id="icon_x5F_bg"><path class="st2" d="M6 14h8V6H6v8zm3-4l.5 1 2-4H13l-3 6H9l-1.5-3H9z"/><path class="st3" d="M10 13l3-6h-1.5l-2 4-.5-1H7.5L9 13z"/><path class="st3" d="M7.235 5h-.958L5 5.766V15h10V5H7.235zM14 14H6V6h8v8z"/></g><path class="st4" d="M1 1l5 3-5 3V1z" id="color_x5F_action"/><path class="st5" d="M6 14h8V6H6v8zm3-4l.5 1 2-4H13l-3 6H9l-1.5-3H9z" id="icon_x5F_fg"/></svg>