<svg xmlns="http://www.w3.org/2000/svg" viewBox="0 0 16 16"><style>.st0{fill:#f6f6f6}.st1{fill:#424242}.st2{fill:#f0eff1}.st3{fill:#e51400}.st4{fill:#fff}</style><path class="st0" d="M11.904 7.041A6.06 6.06 0 0 0 12 6a6 6 0 1 0-6 6 6.06 6.06 0 0 0 1.041-.096C7.248 14.197 9.153 16 11.5 16a4.5 4.5 0 0 0 4.5-4.5c0-2.347-1.803-4.252-4.096-4.459z" id="outline"/><path class="st1" d="M10.882 7.063A5.04 5.04 0 0 0 11 6c0-2.762-2.238-5-5-5S1 3.238 1 6s2.238 5 5 5a5.04 5.04 0 0 0 1.063-.118 4.472 4.472 0 0 1 3.819-3.819zM5 3l3.5 3L5 9V3z" id="icon_x5F_bg"/><path class="st2" d="M5 3l3.5 3L5 9z" id="icon_x5F_fg"/><path class="st3" d="M11.5 8a3.5 3.5 0 1 0 0 7 3.5 3.5 0 0 0 0-7zM9 12v-1h5v1H9z" id="not_x5F_bg"/><path class="st4" d="M9 11h5v1H9z" id="not_x5F_fg"/></svg>