<svg xmlns="http://www.w3.org/2000/svg" viewBox="0 0 30 18"><style>.st0{fill:#f6f6f6}.st1{fill:#424242}.st2{fill:#f0eff1}</style><path class="st0" d="M30 9a8 8 0 1 1-16 0 8 8 0 0 1 16 0zm-18 6H0V3h12v12z" id="outline"/><path class="st1" d="M20.664 6.327l-1.792-3.583A6.963 6.963 0 0 1 22 2a7 7 0 0 1 7 7h-4a3 3 0 0 0-3-3c-.482 0-.933.125-1.336.327zM24 9c0 .168-.026.327-.065.482a1.971 1.971 0 0 1-.627 1.02 1.978 1.978 0 0 1-.418.279v.001A1.974 1.974 0 0 1 22 11a2 2 0 0 1-2-2c0-.167.026-.328.065-.482a1.926 1.926 0 0 1 .627-1.019l.032-.027c.118-.098.247-.184.386-.254.269-.135.569-.218.89-.218a2 2 0 0 1 2 2zm-1 0a1 1 0 1 0-2 0 1 1 0 0 0 2 0zm1.435 1.74l3.256 2.325a6.967 6.967 0 0 0 1.093-2.369l-3.883-.971a2.92 2.92 0 0 1-.466 1.015zM22 12a3 3 0 0 1-3-3h-4a7 7 0 0 0 7 7 6.95 6.95 0 0 0 3.128-.744l-1.792-3.583A2.973 2.973 0 0 1 22 12zm-2.435-4.74l-3.256-2.325a6.959 6.959 0 0 0-1.093 2.369l3.883.971c.091-.371.25-.713.466-1.015zM1 4v10h10V4H1zm9 9H2V5h8v8zM8 7H4v4h4V7z" id="icon_x5F_bg"/><path class="st2" d="M25 9a3 3 0 0 0-3-3c-.482 0-.933.125-1.336.327l-1.792-3.583a7.033 7.033 0 0 0-2.564 2.19l3.256 2.325a2.974 2.974 0 0 0-.466 1.015l-3.88-.971A6.94 6.94 0 0 0 15 9h4a3 3 0 0 0 3 3c.482 0 .933-.125 1.336-.327l1.792 3.583a7.026 7.026 0 0 0 2.564-2.191l-3.256-2.325c.216-.302.374-.644.466-1.016l3.88.971A6.912 6.912 0 0 0 29 9h-4zm-3 2a2 2 0 0 1-2-2c0-.167.026-.328.065-.482a1.971 1.971 0 0 1 .625-1.019 2.044 2.044 0 0 1 .419-.281c.27-.135.57-.218.891-.218a2 2 0 0 1 2 2c0 .168-.026.328-.065.482a1.98 1.98 0 0 1-.625 1.019l-.033.026a1.996 1.996 0 0 1-.386.254c-.27.136-.57.219-.891.219zm-12 2H2V5h8v8zM8 7H4v4h4V7z" id="icon_x5F_fg"/></svg>