<svg xmlns="http://www.w3.org/2000/svg" viewBox="0 0 30 18"><style>.st0{fill:#f6f6f6}.st1{fill:#424242}.st2{fill:#f0eff1}</style><path class="st0" d="M30 9c0 4.419-3.582 8-8 8a8 8 0 1 1 0-16 8 8 0 0 1 8 8zm-18 6H0V3h12v12z" id="outline"/><path class="st1" d="M1 4v10h10V4H1zm9 9H2V5h8v8zm-5-1L3.5 9H5l.5 1 2-4H9l-3 6H5zm15.664-5.673l-1.792-3.583A6.963 6.963 0 0 1 22 2a7 7 0 0 1 7 7h-4a3 3 0 0 0-3-3c-.482 0-.933.125-1.336.327zM22 7c-.322 0-.621.083-.891.218a2.02 2.02 0 0 0-.387.254l-.031.025c-.116.1-.223.213-.313.338a1.971 1.971 0 0 0-.314.681A2.032 2.032 0 0 0 20 9a2 2 0 0 0 2 2c.322 0 .623-.084.894-.22.137-.068.264-.154.381-.251l.035-.029c.116-.1.222-.212.311-.337.146-.202.252-.433.314-.682.039-.155.065-.314.065-.481a2 2 0 0 0-2-2zm0 3a1 1 0 1 1-.002-1.998A1 1 0 0 1 22 10zm2.901-.273l3.883.971a6.976 6.976 0 0 1-1.093 2.369l-3.256-2.326c.216-.302.374-.644.466-1.014zm-1.565 1.946l1.792 3.583A6.95 6.95 0 0 1 22 16a7 7 0 0 1-7-7h4a3 3 0 0 0 3 3c.482 0 .933-.125 1.336-.327zm-4.238-3.398l-3.882-.971a6.95 6.95 0 0 1 1.093-2.369l3.256 2.324a2.97 2.97 0 0 0-.467 1.016z" id="icon_x5F_bg"/><path class="st2" d="M2 13h8V5H2v8zm3-4l.5 1 2-4H9l-3 6H5L3.5 9H5zm20 0a3 3 0 0 0-3-3 2.96 2.96 0 0 0-1.336.328l-1.792-3.584a7.045 7.045 0 0 0-2.564 2.191l3.256 2.324a2.979 2.979 0 0 0-.466 1.016l-3.88-.971A6.927 6.927 0 0 0 15 9h4a3 3 0 0 0 3 3c.482 0 .933-.124 1.336-.326l1.792 3.582a7.014 7.014 0 0 0 2.564-2.19l-3.256-2.326c.216-.301.374-.644.466-1.015l3.88.971A6.92 6.92 0 0 0 29 9h-4zm-3 2a2 2 0 0 1-2-2c0-.167.026-.327.065-.482a1.966 1.966 0 0 1 1.044-1.299c.27-.135.57-.219.891-.219a2 2 0 0 1 2 2c0 .168-.026.328-.065.482a1.985 1.985 0 0 1-.314.682c-.09.125-.195.236-.311.338l-.033.026a1.996 1.996 0 0 1-.386.254c-.27.136-.57.218-.891.218z" id="icon_x5F_fg"/></svg>