<svg xmlns="http://www.w3.org/2000/svg" viewBox="0 0 16 16"><style>.st0{opacity:0}.st0,.st1{fill:#f6f6f6}.st2{fill:#424242}.st3{fill:#f0eff1}.st4{fill:#388a34}</style><g id="outline"><path class="st0" d="M0 0h16v16H0z"/><path class="st1" d="M0 4v10h2v2h12v-2h2V4h-2V2H2v2z"/></g><path class="st2" d="M12 10H4V8h8v2zm3-5v8h-2v2h-2v-2H9v2H7v-2H5v2H3v-2H1V5h2V3h2v2h2V3h2v2h2V3h2v2h2zm-2 2H3v4h10V7z" id="icon_x5F_bg"/><path class="st3" d="M3 11h10V7H3v4zm1-3h8v2H4V8z" id="icon_x5F_fg"/><g id="color_x5F_action"><path class="st1" d="M0 0v8.766L7.944 4 1.277 0z"/><path class="st4" d="M1 1l5 3-5 3V1z"/></g></svg>