<svg xmlns="http://www.w3.org/2000/svg" width="16" height="16"><style type="text/css">.icon-canvas-transparent{opacity:0;fill:#F6F6F6;} .icon-vs-out{fill:#F6F6F6;} .icon-vs-fg{fill:#F0EFF1;} .icon-disabled-grey{fill:#848484;}</style><path class="icon-canvas-transparent" d="M16 16h-16v-16h16v16z" id="canvas"/><path class="icon-vs-out" d="M16 4v12h-14v-8.434l-2 1.2v-8.766h1.277l6.667 4h8.056z" id="outline"/><path class="icon-disabled-grey" d="M6.536 9.502c-.152-.01-.287.042-.39.145l-1.146 1.146v-3.793h8v2.939l-1.593-2.23c-.097-.135-.235-.207-.423-.209-.167.005-.319.093-.408.235l-2.614 3.382-1.063-1.417c-.086-.116-.218-.188-.363-.198zm-.259-4.502l-1.667 1h9.39v8h-10v-7.634l-1 .6v8.034h12v-10h-8.723zm-1.277 8h8v-1.34l-1.972-2.761-2.604 3.367c-.087.139-.237.227-.403.234-.156.016-.322-.068-.42-.2l-1.154-1.538-1.447 1.445v.793z" id="iconBg"/><g id="iconFg"><path class="icon-vs-fg" d="M4.61 6l-.61.366v7.634h10v-8h-9.39zm8.39 7h-8v-.793l1.446-1.445 1.155 1.538c.098.132.264.216.42.2.166-.008.316-.096.403-.234l2.604-3.367 1.972 2.761v1.34zm0-3.061l-1.593-2.23c-.097-.135-.235-.207-.423-.209-.167.005-.319.093-.408.235l-2.614 3.382-1.063-1.417c-.086-.116-.218-.188-.363-.198-.152-.01-.287.042-.39.145l-1.146 1.146v-3.793h8v2.939z"/><path class="icon-vs-fg" d="M2 2.766l2.056 1.234-2.056 1.234v-2.468z"/></g><path class="icon-disabled-grey" d="M1 1v6l5-3-5-3zm1 1.766l2.056 1.234-2.056 1.234v-2.468z" id="colorAction"/></svg>