<svg xmlns="http://www.w3.org/2000/svg" viewBox="0 0 16 16"><style>.st0{fill:#f6f6f6}.st1{fill:#424242}.st2{fill:#388a34}.st3{fill:#f0eff1}</style><path class="st0" d="M8 0a7.962 7.962 0 0 0-4.459 1.358L1.277 0H0v8.766l.038-.023C.414 12.813 3.833 16 8 16A8 8 0 0 0 8 0z" id="outline"/><path class="st1" d="M8 1a6.96 6.96 0 0 0-3.492.939L7.944 4 6.277 5H7v6H5V5.766L1.008 8.161A6.996 6.996 0 0 0 15 8a7 7 0 0 0-7-7zm3 10H9V5h2v6z" id="icon_x5F_bg"/><path class="st2" d="M1 1l5 3-5 3V1z" id="color_x5F_action"/><g id="icon_x5F_fg"><path class="st3" d="M9 5h2v6H9zM5 5.766V11h2V5h-.723z"/></g></svg>