<svg xmlns="http://www.w3.org/2000/svg" viewBox="0 0 16 16"><style>.icon-canvas-transparent{opacity:0;fill:#f6f6f6}.icon-vs-out{fill:#f6f6f6}.icon-vs-bg{fill:#424242}.icon-vs-fg{fill:#f0eff1}.icon-vs-action-green{fill:#388a34}</style><path class="icon-canvas-transparent" d="M16 16H0V0h16v16z" id="canvas"/><path class="icon-vs-out" d="M16 4v12H2V7.566l-2 1.2V0h1.277l6.667 4H16z" id="outline"/><path class="icon-vs-bg" d="M6.536 9.502a.492.492 0 0 0-.39.145L5 10.793V7h8v2.939l-1.593-2.23a.498.498 0 0 0-.831.026l-2.614 3.382L6.899 9.7a.493.493 0 0 0-.363-.198zM6.277 5L4.61 6H14v8H4V6.366l-1 .6V15h12V5H6.277zM5 13h8v-1.34l-1.972-2.761-2.604 3.367a.5.5 0 0 1-.403.234.485.485 0 0 1-.42-.2l-1.154-1.538L5 12.207V13z" id="iconBg"/><path class="icon-vs-fg" d="M4.61 6L4 6.366V14h10V6H4.61zM13 13H5v-.793l1.446-1.445L7.601 12.3a.485.485 0 0 0 .42.2.504.504 0 0 0 .403-.234l2.604-3.367L13 11.66V13zm0-3.061l-1.593-2.23a.498.498 0 0 0-.831.026l-2.614 3.382L6.899 9.7a.493.493 0 0 0-.363-.198.492.492 0 0 0-.39.145L5 10.793V7h8v2.939z" id="iconFg"/><g id="colorAction"><path class="icon-vs-action-green" d="M1 1l5 3-5 3V1z"/></g></svg>