<svg xmlns="http://www.w3.org/2000/svg" viewBox="0 0 16 16" enable-background="new 0 0 16 16"><style type="text/css">.icon-canvas-transparent{opacity:0;fill:#F6F6F6;} .icon-vs-out{fill:#F6F6F6;} .icon-vs-bg{fill:#424242;} .icon-vs-fg{fill:#F0EFF1;} .icon-vs-action-green{fill:#388A34;}</style><path class="icon-canvas-transparent" d="M16 16h-16v-16h16v16z" id="canvas"/><path class="icon-vs-out" d="M16 4v9h-2v3h-10v-9h2v-1.834l-6 3.6v-8.766h1.276l6.667 4h8.057z" id="outline"/><path class="icon-vs-bg" d="M7 5v3h-2v7h8v-3h2v-7h-8zm5 9h-6v-4h1v2h5v2zm0-3h-4v-1h4v1zm2 0h-1v-3h-5v-1h6v4z" id="iconBg"/><path class="icon-vs-fg" d="M7 12h5v2h-6v-4h1v2zm1-5v1h5v3h1v-4h-6zm0 4h4v-1h-4v1z" id="iconFg"/><path class="icon-vs-action-green" d="M1 1l5 3-5 3v-6z" id="colorAction"/></svg>