<svg xmlns="http://www.w3.org/2000/svg" viewBox="0 0 16 16"><style>.st0{opacity:0}.st0,.st1{fill:#f6f6f6}.st2{fill:#424242}.st3{fill:#388a34}</style><g id="outline"><path class="st0" d="M0 0h16v16H0z"/><path class="st1" d="M16 5.639l-2.014 3.028L16 11.631v1.127L13.837 14h-1.051l-1.246-2.148c-.964.859-2.095 1.348-3.701 1.348-1.276 0-2.33-.354-3.315-1.115l-.064-.05-1.28 1.948-1.05.009L0 12.545v-1.283l1.75-2.657-.395-.652L0 8.766V0h1.277l6.351 3.811c.158-.011.299-.04.466-.04 1.276 0 2.33.354 3.315 1.115l.064.05L12.732 3h1.106L16 4.441v1.198z"/></g><g id="icon_x5F_bg"><path class="st2" d="M8.009 6.914c.595 0 .999.133 1.438.473l1.252-1.666c-.808-.624-1.637-.902-2.69-.902-2.112 0-3.173.95-4.407 2.726L.763 11.866l1.718 1.163L5.304 8.73c1.08-1.554 1.622-1.816 2.705-1.816z"/><path class="st2" d="M13.282 3.943l-2.824 4.299c-1.079 1.553-1.622 1.814-2.704 1.814-.595 0-.999-.133-1.438-.473L5.063 11.25c.808.624 1.637.902 2.69.902 2.111 0 3.172-.949 4.407-2.726L15 5.105l-1.718-1.162zM12.805 10.672c-.16.244-.352.429-.531.644l1.081 1.906 1.471-1.078-1.407-2.387-.614.915z"/></g><path class="st3" d="M1 1l5 3-5 3V1z" id="color_x5F_action"/></svg>