<svg xmlns="http://www.w3.org/2000/svg" viewBox="0 0 16 16"><style>.st0{opacity:0}.st0,.st1{fill:#f6f6f6}.st2{fill:#424242}.st3{fill:#388a34}.st4{fill:#f0eff1}</style><g id="outline"><path class="st0" d="M0 0h16v16H0z"/><path class="st1" d="M4.61 2L1.277 0H0v8.766l3-1.8V14h12V2z"/></g><g id="icon_x5F_bg"><path class="st2" d="M7 10h2v1H7zM6 8h1v1H6zM6 6h1v1H6zM8 6h4v1H8zM8 8h4v1H8zM10 10h2v1h-2z"/><path class="st2" d="M6.277 3l1.667 1-1.667 1H13v7H5V5.766l-1 .6V13h10V3z"/></g><path class="st3" d="M1 1l5 3-5 3V1z" id="color_x5F_action"/><path class="st4" d="M6.277 5L5 5.766V12h8V5H6.277zM6 6h1v1H6V6zm0 2h1v1H6V8zm3 3H7v-1h2v1zm3 0h-2v-1h2v1zm0-2H8V8h4v1zm0-2H8V6h4v1z" id="icon_x5F_fg"/></svg>