<svg xmlns="http://www.w3.org/2000/svg" viewBox="0 0 16 16"><style>.st0{fill:#f6f6f6}.st1{fill:#424242}.st2{fill:#388a34}</style><path class="st0" d="M1 9.5c0 3.342 2.596 6.195 5.91 6.496l.043.004H12.414L16 12.414V12h-2.029A6.489 6.489 0 0 0 15 8.5c0-3.342-2.596-6.195-5.909-6.496L8 1.905V2H4.61L1.277 0H0v8.766l1.18-.708C1.072 8.528 1 9.009 1 9.5zm8-2.086V6.026a2.49 2.49 0 0 1 1.543 1.017L7 10.586v1.388a2.494 2.494 0 0 1-1.542-1.017L9 7.414z" id="outline"/><g id="icon_x5F_bg"><path class="st1" d="M14 8.5c0-2.863-2.201-5.246-5-5.5v2c1.691.245 3 1.741 3 3.5a3.493 3.493 0 0 1-2 3.148V9l-2 2v4h4l2-2h-2.348A5.497 5.497 0 0 0 14 8.5zM8 7V3H6.277l1.667 1-5.463 3.277A5.45 5.45 0 0 0 2 9.5c0 2.863 2.201 5.246 5 5.5v-2c-1.691-.245-3-1.741-3-3.5 0-1.391.822-2.585 2-3.148V9l2-2z"/></g><path class="st2" d="M1 1l5 3-5 3V1z" id="color_x5F_action"/></svg>