<svg xmlns="http://www.w3.org/2000/svg" viewBox="0 0 16 16"><style>.st0{opacity:0}.st0,.st1{fill:#f6f6f6}.st2{fill:#424242}</style><g id="outline"><path class="st0" d="M0 0h16v16H0z"/><path class="st1" d="M12.694 9.281a3.92 3.92 0 0 0-.84-1.179 6.66 6.66 0 0 0-1.224-.934 14.8 14.8 0 0 0-1.52-.793 16.7 16.7 0 0 1-1.04-.514 2.816 2.816 0 0 1-.529-.352.563.563 0 0 1-.139-.167c-.024-.06-.038-.144-.015-.338a.42.42 0 0 1 .126-.128c.09-.063.216-.116.372-.158.184-.049.405-.074.658-.074a4.694 4.694 0 0 1 1.284.18c.199.057.39.126.575.21.161.073.31.156.439.249l1.58 1.125V1.791l-.601-.262a4.03 4.03 0 0 0-.62-.202 10.894 10.894 0 0 0-1.69-.282C9.182 1.015 8.854 1 8.526 1a7.68 7.68 0 0 0-2.134.282 5.652 5.652 0 0 0-1.739.822 4.029 4.029 0 0 0-1.212 1.364A3.697 3.697 0 0 0 3 5.245c0 .429.065.844.195 1.239.139.414.368.811.683 1.18.287.336.662.663 1.119.979.429.291.955.581 1.563.86.44.204.82.394 1.137.57.27.149.49.296.655.437a.94.94 0 0 1 .229.259.297.297 0 0 1 .032.149c0 .054-.01.105-.08.221-.019.016-.095.073-.294.135-.125.039-.359.085-.766.085-.221 0-.462-.022-.722-.065a4.892 4.892 0 0 1-.766-.189 5.705 5.705 0 0 1-.747-.306 2.97 2.97 0 0 1-.56-.355L3.047 9.106v4.787l.495.29c.21.123.466.233.783.339A9.857 9.857 0 0 0 7.231 15c.969 0 1.813-.106 2.511-.317.728-.221 1.338-.527 1.814-.911.506-.408.88-.889 1.11-1.428A4.055 4.055 0 0 0 13 10.732c0-.524-.104-1.014-.306-1.451z"/></g><path class="st2" d="M11.784 9.695a2.955 2.955 0 0 0-.633-.882 5.679 5.679 0 0 0-1.038-.789c-.413-.25-.886-.498-1.42-.74-.435-.199-.8-.381-1.099-.543a3.823 3.823 0 0 1-.722-.488 1.502 1.502 0 0 1-.391-.523 1.609 1.609 0 0 1-.117-.63c0-.21.051-.404.15-.583.099-.177.243-.331.428-.461.187-.13.414-.23.685-.304.27-.072.577-.108.917-.108.261 0 .523.018.787.056.264.038.52.092.769.162.248.07.485.157.712.26.229.103.431.219.61.347V2.446a3.06 3.06 0 0 0-.47-.15 9.94 9.94 0 0 0-1.532-.255A9.937 9.937 0 0 0 8.526 2c-.683 0-1.301.081-1.857.243a4.641 4.641 0 0 0-1.432.672 3.03 3.03 0 0 0-.916 1.027A2.704 2.704 0 0 0 4 5.245c0 .324.048.631.144.922.098.292.262.574.494.847.232.271.54.539.921.802.384.261.856.521 1.422.78.464.215.865.417 1.201.603.335.186.607.37.819.551.211.18.365.364.466.554.1.189.147.395.147.615 0 .167-.029.336-.093.509a1.099 1.099 0 0 1-.331.466c-.158.138-.376.25-.654.336-.28.087-.635.13-1.062.13-.28 0-.573-.026-.881-.078a5.884 5.884 0 0 1-.918-.226c-.304-.1-.598-.22-.88-.36a4.018 4.018 0 0 1-.749-.476v2.102c.148.087.346.171.591.252a8.67 8.67 0 0 0 1.709.371c.311.036.606.055.885.055.875 0 1.616-.092 2.221-.274.605-.184 1.099-.428 1.477-.732.378-.305.652-.653.819-1.044.168-.392.252-.798.252-1.218 0-.378-.071-.724-.216-1.037z" id="icon_x5F_bg"/></svg>