<svg xmlns="http://www.w3.org/2000/svg" viewBox="0 0 16 16"><style>.icon-canvas-transparent{opacity:0;fill:#f6f6f6}.icon-vs-out{fill:#f6f6f6}.icon-vs-action-blue{fill:#00539c}.icon-vs-bg_x0020_{fill:#424242}.icon-vs-fg{fill:#f0eff1}</style><path class="icon-canvas-transparent" d="M16 0v16H0V0h16z" id="canvas"/><path class="icon-vs-out" d="M16 2v14H1V9.414l-1-1V0h10v2h6z" id="outline"/><path class="icon-vs-fg" d="M3 10h3v1H3v-1zm4 4h3v-2H7v2zm-4 0h3v-2H3v2zm8-3h3V9h-3v2zm-4 0h3v-1H7v1zm4-5v2h3V6h-3zm0 8h3v-2h-3v2zM8 2H2v2h6V2zM7 9V7H3v2h1V8h1v1h2z" id="iconFg"/><path class="icon-vs-bg_x0020_" d="M10 3v8H7v-1H6v1H3v-1H2v5h13V3h-5zM6 14H3v-2h3v2zm4 0H7v-2h3v2zm4 0h-3v-2h3v2zm0-3h-3V9h3v2zm0-3h-3V6h3v2z" id="iconBg"/><g id="colorAction"><path class="icon-vs-action-blue" d="M4 8h1v1H4V8zm5-7v8H7V7H3v2H2L1 8V1h8zM8 2H2v2h6V2z"/></g></svg>