<svg xmlns="http://www.w3.org/2000/svg" viewBox="0 0 16 16"><style>.icon-canvas-transparent{opacity:0;fill:#f6f6f6}.icon-vs-out{fill:#f6f6f6}.icon-vs-bg{fill:#424242}.icon-vs-action-blue{fill:#00539c}.icon-vs-fg{fill:#f0eff1}</style><path class="icon-canvas-transparent" d="M16 0v16H0V0h16z" id="canvas"/><path class="icon-vs-out" d="M16 2v14H4.086L2 13.914V9H0V0h9v2h7z" id="outline"/><path class="icon-vs-fg" d="M13 4v3H9V4h4zM6 15h1v-2h2v2h3v-4H6v4z" id="iconFg"/><path class="icon-vs-action-blue" d="M7 13h2v2H7v-2zM9 3v1h4v3H9v2H3v4.5L4.5 15H6v-4h6v4h3V3H9z" id="iconBg"/><g id="colorAction"><path class="icon-vs-bg" d="M1 1v7h7V1H1zm6.229 5.521l-.708.708L4.5 5.207 2.479 7.229l-.708-.708L3.793 4.5 1.771 2.479l.707-.707L4.5 3.793l2.021-2.021.707.707L5.207 4.5l2.022 2.021z"/><path class="icon-vs-fg" d="M5.207 4.5l2.021 2.021-.707.708L4.5 5.207 2.479 7.229l-.708-.708L3.793 4.5 1.771 2.479l.707-.707L4.5 3.793l2.021-2.021.707.707L5.207 4.5z"/></g></svg>