<svg xmlns="http://www.w3.org/2000/svg" viewBox="0 0 16 16"><style>.icon-canvas-transparent{opacity:0;fill:#f6f6f6}.icon-vs-out{fill:#f6f6f6}.icon-vs-bg{fill:#424242}.icon-vs-action-blue{fill:#00539c}.icon-vs-fg{fill:#f0eff1}</style><path class="icon-canvas-transparent" d="M16 0v16H0V0h16z" id="canvas"/><path class="icon-vs-out" d="M15.906 7.544a2.55 2.55 0 0 1-.75 1.813l-5.795 5.796L5.973 16h-1.35l.5-2H2.086L0 11.914V0h14v5.109c.443.109.849.319 1.157.626.484.483.749 1.125.749 1.809z" id="outline"/><path class="icon-vs-fg" d="M11 2v3H3V2h8zM4 13h1v-2h1.27l2-2H4v4z" id="iconFg"/><path class="icon-vs-action-blue" d="M1 1v10.5L2.5 13H4V9h4.27l3.265-3.265c.38-.378.901-.611 1.465-.682V1H1zm10 4H3V2h8v3zm-6 6h1.27l-.531.531L5.372 13H5v-2z" id="iconBg"/><g id="colorAction"><path class="icon-vs-bg" d="M5.907 14.985l.735-2.943 5.6-5.6c.565-.563 1.646-.562 2.208 0 .293.293.456.685.456 1.102 0 .417-.162.81-.457 1.105l-5.6 5.6-2.942.736zm1.638-2.431l-.264 1.056 1.057-.264 5.404-5.405a.557.557 0 0 0 0-.793c-.186-.188-.604-.188-.793 0l-5.404 5.406z"/></g></svg>