<svg xmlns="http://www.w3.org/2000/svg" viewBox="0 0 16 16"><style>.icon-canvas-transparent{opacity:0;fill:#f6f6f6}.icon-vs-out{fill:#f6f6f6}.icon-vs-action-blue{fill:#00539c}.icon-vs-bg_x0020_{fill:#424242}.icon-vs-fg{fill:#f0eff1}</style><path class="icon-canvas-transparent" d="M16 0v16H0V0h16z" id="canvas"/><path class="icon-vs-out" d="M16 0H0v14.414L1.586 16H10v-2h6V0z" id="outline"/><path class="icon-vs-fg" d="M14 4v8h-4V6H2V4h12zM3 15h1v-1h1v1h2v-2H3v2zm-1-5h6V8H2v2z" id="iconFg"/><path class="icon-vs-bg_x0020_" d="M15 1v12h-5v-1h4V4H2v2H1V1h14z" id="iconBg"/><g id="colorAction"><path class="icon-vs-action-blue" d="M4 14h1v1H4v-1zm5-7v8H7v-2H3v2H2l-1-1V7h8zM8 8H2v2h6V8z"/></g></svg>