<svg xmlns="http://www.w3.org/2000/svg" viewBox="0 0 16 16"><style>.st0{opacity:0}.st0,.st1{fill:#f6f6f6}.st2{fill:#424242}.st3{fill:#f0eff1}</style><g id="outline"><path class="st0" d="M0 0h16v16H0z"/><path class="st1" d="M9.977 10H16V0H5v7.019a2.694 2.694 0 0 0-1.262.432c-.385.251-.73.618-1.069 1.149l-.606-.007-.744 2.391h.541l-.372 1.327-.056-.001c-.365 0-.695.115-.945.325A1.287 1.287 0 0 0 0 13.643c0 .415.202.802.547 1.053.275.204.618.304 1.047.304.512 0 .979-.127 1.389-.38.391-.24.726-.598.997-1.063.023-.04.046-.091.069-.135.032.035.059.073.095.106.179.16.492.351.962.351.255 0 .5-.05.744-.153.199-.089.399-.227.62-.428.118.139.251.253.397.342.26.159.564.239.904.239.347 0 .683-.104.981-.298.322-.2.623-.509.918-.942l.636-.932-1.118-.58c.144-.062.274-.147.388-.254.244-.225.372-.537.401-.873zm-4.504 1.186a1.45 1.45 0 0 0-.354-.045l-.069.002.457-.082.021.065-.055.06z"/></g><g id="icon_x5F_bg"><path class="st2" d="M4.223 9.602c.148-.555.346-.959.591-1.215.148-.16.294-.238.435-.238.031 0 .053.006.07.021.02.016.028.035.028.061 0 .021-.021.063-.06.124a.325.325 0 0 0-.06.174c0 .077.03.142.094.196a.347.347 0 0 0 .237.082.362.362 0 0 0 .26-.1.36.36 0 0 0 .104-.271.378.378 0 0 0-.157-.314C5.662 8.04 5.494 8 5.264 8c-.36 0-.688.096-.98.289-.294.191-.571.51-.835.955-.092.152-.179.251-.26.295-.082.043-.212.065-.392.063l-.119.382h.501l-.735 2.623c-.121.43-.205.695-.248.796a.962.962 0 0 1-.285.374.278.278 0 0 1-.183.063.087.087 0 0 1-.052-.017l-.018-.023c0-.011.018-.032.055-.066.035-.034.055-.087.055-.155a.238.238 0 0 0-.087-.19c-.058-.052-.141-.077-.249-.077a.47.47 0 0 0-.313.1.286.286 0 0 0-.119.231c0 .097.047.18.145.251.095.071.245.106.449.106.324 0 .612-.076.863-.231.25-.154.47-.392.657-.714.187-.321.38-.841.575-1.556l.422-1.516h.508l.127-.383h-.523z"/><path class="st2" d="M8.59 9.521a.756.756 0 0 0-.334.076c-.104.053-.236.163-.397.335a7.7 7.7 0 0 0-.533.666 3.09 3.09 0 0 0-.484-1.076H5.313v.56c.094-.017.422-.265.486-.265.125 0 .229.049.31.148.13.152.311.617.541 1.396-.181.221-.522.592-.59.66-.11.109-.202.18-.274.213a.416.416 0 0 1-.188.039.723.723 0 0 1-.259-.08.596.596 0 0 0-.22-.052.437.437 0 0 0-.303.109.35.35 0 0 0-.119.274c0 .106.037.189.111.258a.433.433 0 0 0 .297.097.875.875 0 0 0 .338-.067c.105-.047.238-.144.398-.295.16-.149.598-.613.879-.939.107.311.316.764.395.904.079.14.17.242.272.305.103.063.23.093.384.093.148 0 .3-.048.453-.148.201-.125.408-.346.62-.656l-.13-.067c-.145.183-.252.298-.32.344a.305.305 0 0 1-.163.044c-.073 0-.147-.044-.22-.13-.123-.144-.4-.77-.604-1.427.183-.293.336-.484.461-.574a.491.491 0 0 1 .289-.098c.037 0 .107.012.205.037.102.025.189.037.266.037a.374.374 0 0 0 .266-.1A.331.331 0 0 0 9 9.885a.347.347 0 0 0-.105-.266c-.071-.065-.172-.098-.305-.098zM9.558 3c-.506 0-.892.176-1.159.525-.266.351-.399.86-.399 1.528 0 1.287.492 1.933 1.477 1.933.49 0 .867-.174 1.129-.521.263-.348.394-.848.394-1.5C11 3.654 10.519 3 9.558 3zm-.052 3.336c-.387 0-.58-.436-.58-1.305 0-.922.197-1.383.592-1.383.369 0 .554.447.554 1.344-.001.895-.189 1.344-.566 1.344zM11.957 3.367c-.091.048-.194.077-.291.117v.771c.04-.013.081-.023.119-.039.072-.031.139-.064.203-.102a.925.925 0 0 0 .165-.116V7H13V3.035h-.514a3.353 3.353 0 0 1-.529.332z"/><path class="st2" d="M6 1v6.139c.136.053.271.108.382.195.347.266.541.659.541 1.102 0 .03-.015.056-.017.086h.454l.225.318c.073-.052.145-.097.217-.133.262-.126.52-.185.788-.185.49 0 .807.199.986.366.034.031.049.077.079.112H15V1H6zm8 7H7V2h7v6z"/></g><g id="not_x5F_fg"><path class="st3" d="M9.518 3.648c-.395 0-.592.461-.592 1.383 0 .869.193 1.305.58 1.305.377 0 .565-.449.565-1.344 0-.896-.184-1.344-.553-1.344z"/><path class="st3" d="M7 2v6h7V2H7zm3.606 4.465c-.262.348-.639.521-1.129.521C8.492 6.986 8 6.34 8 5.053c0-.668.133-1.177.399-1.527.267-.35.653-.526 1.159-.526C10.519 3 11 3.654 11 4.965c0 .652-.131 1.152-.394 1.5zM13 7h-.847V3.999a.925.925 0 0 1-.165.116c-.064.037-.131.07-.203.102-.038.016-.079.026-.119.039v-.772c.097-.04.2-.069.291-.117.195-.1.372-.211.529-.332H13V7z"/></g></svg>