<svg xmlns="http://www.w3.org/2000/svg" viewBox="0 0 16 16"><style>.st0{opacity:0}.st0,.st1{fill:#f6f6f6}.st2{fill:#424242}.st3{fill:#f0eff1}.st4{fill:#fc0}</style><g id="outline"><path class="st0" d="M0 0h16v16H0z"/><path class="st1" d="M16 0H5v7.019a2.694 2.694 0 0 0-1.262.432c-.385.251-.73.618-1.068 1.149l-.607-.006-.744 2.391h.54l-.371 1.327-.057-.001c-.365 0-.695.115-.945.325a1.286 1.286 0 0 0 .061 2.06c.275.204.617.304 1.047.304.512 0 .979-.127 1.389-.38.391-.24.726-.598.996-1.063.023-.04.047-.091.07-.135.031.035.059.073.094.106.18.16.492.351.963.351.255 0 .5-.05.744-.153a2.39 2.39 0 0 0 .62-.428c.118.139.251.253.397.342.075.046.162.07.244.103l-.141.282L8.004 16h6.998l.971-2.005L13.991 10H16V0zM5.473 11.186a1.438 1.438 0 0 0-.423-.043l.457-.082c.007.021.015.042.021.065l-.055.06z"/></g><g id="icon_x5F_bg"><path class="st2" d="M4.223 9.602c.148-.555.346-.959.591-1.215.148-.16.294-.238.435-.238.031 0 .053.006.07.021.02.016.028.035.028.061 0 .021-.021.063-.06.124a.325.325 0 0 0-.06.174c0 .077.03.142.094.196a.347.347 0 0 0 .237.082.362.362 0 0 0 .26-.1.36.36 0 0 0 .104-.271.378.378 0 0 0-.157-.314C5.662 8.04 5.494 8 5.264 8c-.36 0-.688.096-.98.289-.294.191-.571.51-.835.955-.092.152-.179.251-.26.295-.082.043-.212.065-.392.063l-.119.382h.501l-.735 2.623c-.121.43-.205.695-.248.796a.962.962 0 0 1-.285.374.278.278 0 0 1-.183.063.087.087 0 0 1-.052-.017l-.018-.023c0-.011.018-.032.055-.066.035-.034.055-.087.055-.155a.238.238 0 0 0-.087-.19c-.058-.052-.141-.077-.249-.077a.47.47 0 0 0-.313.1.286.286 0 0 0-.119.231c0 .097.047.18.145.251.095.071.245.106.449.106.324 0 .612-.076.863-.231.25-.154.47-.392.657-.714.187-.321.38-.841.575-1.556l.422-1.516h.508l.127-.383h-.523zM9.558 3c-.506 0-.892.176-1.159.525-.266.351-.399.86-.399 1.528 0 1.287.492 1.933 1.477 1.933.49 0 .867-.174 1.129-.521.263-.348.394-.848.394-1.5C11 3.654 10.519 3 9.558 3zm-.052 3.336c-.387 0-.58-.436-.58-1.305 0-.922.197-1.383.592-1.383.369 0 .554.447.554 1.344-.001.895-.189 1.344-.566 1.344zM11.957 3.367c-.091.048-.194.077-.291.117v.771c.04-.013.081-.023.119-.039.072-.031.139-.064.203-.102a.925.925 0 0 0 .165-.116V7H13V3.035h-.514a3.353 3.353 0 0 1-.529.332z"/><path class="st2" d="M7.388 12.787c.049.029.122.028.182.044l.355-.706c-.141-.25-.351-.75-.517-1.285.183-.293.336-.484.461-.574a.491.491 0 0 1 .289-.098c.037 0 .107.012.205.037.102.025.189.037.266.037a.374.374 0 0 0 .266-.1A.334.334 0 0 0 9 9.885a.347.347 0 0 0-.105-.266c-.071-.065-.172-.098-.305-.098a.756.756 0 0 0-.334.076c-.104.053-.236.163-.397.335a7.7 7.7 0 0 0-.533.666 3.09 3.09 0 0 0-.484-1.076H5.313v.56c.094-.017.422-.265.486-.265.125 0 .229.049.31.148.13.152.311.617.541 1.396-.181.221-.522.592-.59.66-.11.109-.202.18-.274.213a.416.416 0 0 1-.188.039.723.723 0 0 1-.259-.08.596.596 0 0 0-.22-.052.437.437 0 0 0-.303.109.35.35 0 0 0-.119.274c0 .106.037.189.111.258a.433.433 0 0 0 .297.097.875.875 0 0 0 .338-.067c.105-.047.238-.144.398-.295.16-.149.598-.613.879-.939.107.311.316.764.395.904.079.14.17.243.273.305zM7.359 8.521l.225.319c.074-.053.146-.097.218-.133.261-.127.52-.186.788-.186.478 0 .787.188.97.352L9.998 8H7V2h7v6h-1.001l.496 1H15V1H6v6.139c.137.053.271.107.383.195.346.266.54.659.54 1.102 0 .03-.015.057-.017.086h.453z"/></g><g id="icon_x5F_fg"><path class="st3" d="M9.518 3.648c-.395 0-.592.461-.592 1.383 0 .869.193 1.305.58 1.305.377 0 .565-.449.565-1.344 0-.896-.184-1.344-.553-1.344z"/><path class="st3" d="M10.493 7.016h2.017l.489.984H14V2H7v6h2.998l.495-.984zm1.173-3.532c.097-.04.2-.069.291-.117.195-.1.372-.211.529-.332H13V7h-.847V3.999a.925.925 0 0 1-.165.116c-.064.037-.131.07-.203.102-.038.016-.079.026-.119.039v-.772zM8 5.053c0-.668.133-1.177.399-1.527.267-.35.653-.526 1.159-.526C10.519 3 11 3.654 11 4.965c0 .652-.131 1.152-.394 1.5-.262.348-.639.521-1.129.521C8.492 6.986 8 6.34 8 5.053z"/></g><path class="st4" d="M11.891 8.016h-.781l-3.016 6 .515.984h5.766l.484-1-2.968-5.984zM12 14h-1v-1h1v1zm0-2h-1v-2h1v2z" id="not_x5F_bg"/><path d="M12 12h-1v-2h1v2zm0 1h-1v1h1v-1z" id="not_x5F_fg"/></svg>