<svg xmlns="http://www.w3.org/2000/svg" viewBox="0 0 16 16"><style>.st0{opacity:0}.st0,.st1{fill:#f6f6f6}.st2{fill:#424242}.st3{fill:#f0eff1}.st4{fill:#e51400}.st5{fill:#fff}</style><g id="outline"><path class="st0" d="M0 0h16v16H0z"/><path class="st1" d="M16 0H5v4.019a2.694 2.694 0 0 0-1.262.432c-.385.251-.73.618-1.069 1.149l-.606-.007-.744 2.391h.541l-.372 1.328-.056-.001c-.365 0-.695.115-.945.325a1.284 1.284 0 0 0 .06 2.06c.275.204.618.304 1.047.304.512 0 .979-.127 1.389-.38.391-.24.726-.598.997-1.063.023-.04.046-.091.069-.135.032.035.059.073.095.106.179.16.492.351.962.351.255 0 .5-.05.744-.153.2-.089.4-.228.622-.43.087.101.184.189.29.267l.311.226A4.405 4.405 0 0 0 7 11.5a4.5 4.5 0 0 0 9 0c0-.529-.108-1.028-.275-1.5H16V0z"/></g><g id="icon_x5F_bg"><path class="st2" d="M8.59 6.521a.756.756 0 0 0-.334.076c-.104.053-.236.163-.397.335a7.7 7.7 0 0 0-.533.666 3.09 3.09 0 0 0-.484-1.076H5.313v.56c.094-.017.422-.265.486-.265.125 0 .229.049.31.148.13.152.311.617.541 1.396-.181.221-.522.592-.59.66-.11.109-.202.18-.274.213a.409.409 0 0 1-.188.039.723.723 0 0 1-.259-.08.593.593 0 0 0-.22-.051.437.437 0 0 0-.303.109.35.35 0 0 0-.119.274c0 .105.037.189.111.258a.43.43 0 0 0 .297.097.857.857 0 0 0 .338-.067c.105-.047.238-.145.398-.295.16-.148.598-.613.879-.939.107.311.316.764.395.904.069.122.149.21.236.273.125-.298.287-.575.47-.836a8.66 8.66 0 0 1-.413-1.08c.183-.293.336-.484.461-.574a.487.487 0 0 1 .289-.098c.037 0 .107.012.205.037.102.025.19.037.266.037a.374.374 0 0 0 .266-.1A.334.334 0 0 0 9 6.885a.347.347 0 0 0-.105-.266c-.071-.065-.172-.098-.305-.098z"/><path class="st2" d="M4.223 6.602c.148-.555.346-.959.591-1.215.148-.16.294-.238.435-.238.031 0 .053.006.07.021.02.016.028.035.028.061 0 .021-.021.063-.06.124a.325.325 0 0 0-.06.174c0 .077.03.142.094.196a.347.347 0 0 0 .237.082.362.362 0 0 0 .26-.1.36.36 0 0 0 .104-.271.378.378 0 0 0-.157-.314C5.662 5.04 5.494 5 5.264 5c-.36 0-.688.096-.98.289-.294.191-.571.51-.835.955-.092.152-.179.251-.26.295-.082.043-.212.065-.392.063l-.119.382h.501l-.736 2.623c-.121.43-.205.695-.248.796a.962.962 0 0 1-.285.374.278.278 0 0 1-.183.063.087.087 0 0 1-.052-.017l-.017-.023c0-.011.018-.032.055-.066.035-.034.055-.087.055-.155a.238.238 0 0 0-.087-.19c-.058-.052-.141-.077-.249-.077a.47.47 0 0 0-.313.1.286.286 0 0 0-.119.231c0 .097.047.18.145.251.095.071.245.106.449.106.324 0 .612-.076.863-.231.25-.154.47-.392.657-.714.187-.321.38-.84.575-1.555l.422-1.516h.508l.127-.383h-.523zM11.957 3.367c-.091.048-.194.077-.291.117v.771c.04-.013.081-.023.119-.039.072-.031.139-.064.203-.102a.925.925 0 0 0 .165-.116V7H13V3.035h-.514a3.353 3.353 0 0 1-.529.332z"/><path class="st2" d="M6.382 4.333c.347.267.541.66.541 1.103 0 .03-.015.056-.017.086H7V2h7v5.76a4.5 4.5 0 0 1 1 .943V1H6v3.139c.136.052.271.108.382.194z"/><path class="st2" d="M8.59 5.521c.138 0 .259.018.37.044a3.795 3.795 0 0 1-.034-.534c0-.922.197-1.383.592-1.383.369 0 .554.447.554 1.344 0 .621-.097 1.013-.278 1.204.12.207.206.434.206.689l-.002.013c.243-.083.449-.222.607-.433.264-.348.395-.848.395-1.5C11 3.654 10.519 3 9.558 3c-.506 0-.892.176-1.159.525-.266.351-.399.86-.399 1.528 0 .208.018.393.043.567.181-.059.361-.099.547-.099z"/></g><g id="icon_x5F_fg"><path class="st3" d="M7.36 5.521l.225.318a1.75 1.75 0 0 1 .217-.132c.081-.039.161-.06.242-.086A3.799 3.799 0 0 1 8 5.053c0-.668.133-1.177.399-1.527.267-.35.653-.526 1.159-.526C10.519 3 11 3.654 11 4.965c0 .652-.131 1.152-.394 1.5-.158.21-.364.349-.607.433a1.37 1.37 0 0 1-.082.404A4.447 4.447 0 0 1 11.5 7c.926 0 1.785.281 2.5.76V2H7v3.521h.36zm4.306-2.037c.097-.04.2-.069.291-.117.195-.1.372-.211.529-.332H13V7h-.847V3.999a.925.925 0 0 1-.165.116c-.064.037-.131.07-.203.102-.038.016-.079.026-.119.039v-.772z"/><path class="st3" d="M9.576 5.887c.094.087.152.2.217.309.182-.19.278-.583.278-1.204 0-.896-.185-1.344-.554-1.344-.395 0-.592.461-.592 1.383 0 .204.013.379.034.535.285.067.488.201.617.321z"/></g><path class="st4" d="M11.5 8a3.5 3.5 0 1 0 0 7 3.5 3.5 0 0 0 0-7zm1.854 4.646l-.707.707-1.147-1.146-1.146 1.147-.707-.707 1.147-1.146-1.147-1.146.707-.707 1.146 1.147 1.146-1.147.707.707-1.146 1.145 1.147 1.146z" id="not_x5F_bg"/><path class="st5" d="M13.354 10.354l-.708-.708-1.146 1.147-1.146-1.147-.708.708 1.147 1.146-1.147 1.146.708.708 1.146-1.147 1.146 1.147.708-.708-1.147-1.146z" id="not_x5F_fg"/></svg>