<svg xmlns="http://www.w3.org/2000/svg" viewBox="0 0 16 16"><style>.st0{opacity:0}.st0,.st1{fill:#f6f6f6}.st2{fill:#424242}.st3{fill:#f0eff1}</style><g id="outline"><path class="st0" d="M0 0h16v16H0z"/><path class="st1" d="M0 15V0h16v15H0z"/></g><path class="st2" d="M1 1v13h14V1H1zm1 1h12v1h-2v2.4L9 9 6 6V4H4v2.074L2 8.223V2zm12 11H2v-3l3-3 3 3v2h2V9.8L14 5v8z" id="icon_x5F_bg"/><g id="icon_x5F_fg"><path class="st3" d="M2 2v6.223l2-2.149V4h2v2l3 3 3-3.6V3h2V2z"/><path class="st3" d="M10 12H8v-2L5 7l-3 3v3h12V5l-4 4.8z"/></g></svg>