<svg xmlns="http://www.w3.org/2000/svg" viewBox="0 0 16 16"><style>.st0{opacity:0}.st0,.st1{fill:#f6f6f6}.st2{fill:none}.st3{fill:#424242}.st4{fill:#f0eff1}</style><g id="outline"><path class="st0" d="M0 0h16v16H0z"/><path class="st1" d="M0 0h16v15H0z"/></g><g id="icon_x5F_bg"><path class="st2" d="M12 3H9V2H2v11h12V6l-2 2-2-2 2-2 2 2V2h-2v1zM3 3h3v3H3V3zm3 9L5 8l4-1 1 4-4 1z"/><path transform="rotate(-45.001 12 6)" class="st3" d="M10.586 4.586h2.828v2.828h-2.828z"/><path class="st3" d="M3 3h3v3H3z"/><path transform="rotate(-14.035 7.501 9.502)" class="st3" d="M5.438 7.438h4.123v4.123H5.438z"/><path class="st3" d="M12 1V0H9v1H1v13h14V1h-3zm2 5v7H2V2h7v1h3V2h2v4z"/></g><path class="st4" d="M12 2v1H9V2H2v11h12V6l-2 2-2-2 2-2 2 2V2h-2zM3 3h3v3H3V3zm3 9L5 8l4-1 1 4-4 1z" id="icon_x5F_fg"/></svg>