<svg xmlns="http://www.w3.org/2000/svg" viewBox="0 0 16 16"><style>.st0{opacity:0}.st0,.st1{fill:#f6f6f6}.st2{fill:#424242}.st3{fill:#f0eff1}</style><g id="outline"><path class="st0" d="M0 0h16v16H0z"/><path class="st1" d="M0 0h16v15H0z"/></g><path class="st2" d="M1 1v13h14V1H1zm1 1h6v1.313c-.018.017-.042.022-.061.041L3.5 7.793l-.5-.5V6H2v.294V2zm0 5.707V8h.292l.5.5-.499.5H2v.293-1.586zM14 13H2v-2.293V11h1V9.707l.5-.5 1.439 1.439c.019.018.043.024.061.04V12h2v-1.314c.019-.017.042-.022.06-.04L9.646 8.06c.028-.027.061-.041.092-.06h.523c.031.02.064.034.092.061L13 10.707V12h1v1zm0-3h-.293l-2.646-2.646c-.018-.019-.042-.024-.061-.041V6H9v1.314c-.019.016-.043.021-.061.04L6.354 9.939c-.027.028-.061.041-.092.061h-.524c-.031-.02-.065-.033-.092-.061L4.207 8.5l4.439-4.439c.028-.028.061-.042.092-.061h.523c.031.02.064.034.092.061l2.586 2.586c.374.373.923.475 1.419.353H14v3zm0-5h-1v1.086a.502.502 0 0 1-.354-.146L10.06 3.354c-.017-.019-.041-.024-.06-.041V2h4v3z" id="icon_x5F_bg"/><g id="icon_x5F_fg"><path class="st3" d="M2 6h1v1.294l.5.5 4.439-4.439c.019-.02.043-.025.061-.042V2H2v4.293V6zM10 2v1.313c.019.017.043.022.061.04l2.586 2.586a.495.495 0 0 0 .353.147V5h1V2h-4zM2 9h.293l.5-.5-.501-.5H2v-.293 1.586zM13.357 7a1.53 1.53 0 0 1-.599.025 1.474 1.474 0 0 1-.238-.047 1.453 1.453 0 0 1-.177-.066 1.3 1.3 0 0 1-.404-.266L9.354 4.061c-.028-.028-.061-.042-.092-.061h-.524c-.031.02-.064.034-.092.061L4.207 8.5l1.439 1.439c.027.028.061.041.092.061h.524c.031-.02.064-.033.091-.061l2.586-2.586c.018-.018.042-.023.061-.04V6h2v1.314c.019.017.043.022.061.04L13.707 10H14V7h-.643z"/><path class="st3" d="M13 10.707l-2.646-2.646c-.028-.028-.061-.042-.092-.061h-.524c-.031.02-.064.034-.092.061L7.06 10.647c-.017.017-.041.023-.06.039V12H5v-1.314c-.019-.017-.043-.022-.061-.04L3.5 9.207l-.5.5V11H2v-.293V13h12v-1h-1v-1.293z"/></g></svg>