<svg xmlns="http://www.w3.org/2000/svg" viewBox="0 0 16 16"><style>.st0{opacity:0}.st0,.st1{fill:#f6f6f6}.st2{fill:#f0eff1}.st3{fill:#424242}</style><g id="outline"><path class="st0" d="M0 0h16v16H0z"/><path class="st1" d="M0 15V0h16v15H0z"/></g><path class="st2" d="M2 13h12V2H2v11zm9.999-10a1 1 0 1 1 0 2.001A1 1 0 0 1 12 3zm-2 6a1 1 0 1 1 0 2.001A1 1 0 0 1 10 9zM7 5a1 1 0 1 1 0 2 1 1 0 0 1 0-2zM4 8a1 1 0 1 1 0 2 1 1 0 0 1 0-2z" id="icon_x5F_fg"/><path class="st3" d="M14.997 1H1v13h14l-.003-13zM14 13H2V2h12v11zM5 9a1 1 0 1 1-2 0 1 1 0 0 1 2 0zm3-3a1 1 0 1 1-2 0 1 1 0 0 1 2 0zm5-2a1 1 0 1 1-2.001-.001A1 1 0 0 1 13 4zm-2 6a1 1 0 1 1-2 0 1 1 0 0 1 2 0z" id="icon_x5F_bg"/></svg>