<svg xmlns="http://www.w3.org/2000/svg" viewBox="0 0 16 16"><style>.st0{opacity:0}.st0,.st1{fill:#f6f6f6}.st2{fill:#424242}</style><g id="outline"><path class="st0" d="M0 0h16v16H0z"/><path class="st1" d="M14 10V7h-4V6h2V1H5v5h2v1H5.942A3.484 3.484 0 0 0 3.5 6C1.57 6 0 7.57 0 9.5c0 .926.378 1.782 1 2.423V15h.778c.347.595.985 1 1.722 1s1.375-.405 1.722-1H8v-5h1v5h7v-5h-2z"/></g><g id="icon_x5F_bg"><path class="st2" d="M5.5 12.37V14H7v-3h-.354A3.487 3.487 0 0 1 5.5 12.37zM13 11V8H9V5h2V2H6v3h2v3H6.649c.149.312.25.646.3 1H12v2h-2v3h5v-3h-2zM4.5 7.211V10h-2V7.211A2.499 2.499 0 0 0 1 9.5c0 1.024.617 1.902 1.5 2.289V14a1 1 0 1 0 2 0v-2.211a2.497 2.497 0 0 0 0-4.578z"/></g></svg>