<svg xmlns="http://www.w3.org/2000/svg" viewBox="0 0 16 16"><style>.st0{opacity:0}.st0,.st1{fill:#f6f6f6}.st2{fill:#424242}.st3{fill:#f0eff1}</style><g id="outline"><path class="st0" d="M0 0h16v16H0z"/><path class="st1" d="M2 15V0h13v15H2z"/><path class="st1" d="M4.001 15c-.972 0-2-.701-2-2V3C2.001 1.701 3.03 1 4 1h6.063l3.939 3.556V13c0 .97-.701 2-2 2H4.001z"/></g><g id="icon_x5F_bg"><path class="st2" d="M11.731 5.764A2.82 2.82 0 0 0 11 4.809a3.298 3.298 0 0 0-1.075-.6A4.116 4.116 0 0 0 8.608 4c-.367 0-.709.043-1.03.13a3.488 3.488 0 0 0-.882.367 3.229 3.229 0 0 0-.717.572c-.212.222-.39.468-.534.738a3.83 3.83 0 0 0-.446 1.84c0 .507.084.97.257 1.38.171.414.412.766.722 1.061.308.293.676.518 1.1.676A4.03 4.03 0 0 0 8.485 11a6.58 6.58 0 0 0 1.158-.097c.152-.029.286-.061.4-.098a2.94 2.94 0 0 0 .292-.109v-.662a5.746 5.746 0 0 1-.36.142 3.119 3.119 0 0 1-.406.11 4.875 4.875 0 0 1-1.015.095 3.17 3.17 0 0 1-1.174-.205 2.516 2.516 0 0 1-.876-.569 2.449 2.449 0 0 1-.548-.873 3.128 3.128 0 0 1-.19-1.114 3.2 3.2 0 0 1 .212-1.184c.142-.367.337-.684.588-.953.253-.268.552-.481.9-.633.346-.153.728-.23 1.134-.23.325 0 .618.034.873.107.255.07.483.166.678.287.198.122.362.263.501.425a2.391 2.391 0 0 1 .531 1.088c.038.196.059.389.059.576 0 .268-.024.508-.079.72a2.084 2.084 0 0 1-.208.54.988.988 0 0 1-.301.337.607.607 0 0 1-.352.116.43.43 0 0 1-.167-.035.276.276 0 0 1-.127-.122.64.64 0 0 1-.086-.237 1.91 1.91 0 0 1-.031-.383c0-.05.007-.132.014-.253.007-.119.021-.258.031-.414l.043-.498c.014-.177.029-.347.045-.504.014-.159.025-.301.037-.425.011-.124.018-.213.021-.268h-.716l-.043.466h-.016a.642.642 0 0 0-.288-.386.857.857 0 0 0-.239-.109 1.039 1.039 0 0 0-.285-.038c-.26 0-.502.056-.719.167a1.709 1.709 0 0 0-.56.468c-.158.195-.277.43-.363.704a2.803 2.803 0 0 0-.132.88c0 .268.037.501.105.702.068.202.164.367.28.502.119.134.255.234.415.298.157.065.323.101.499.101a1.2 1.2 0 0 0 .39-.064c.119-.04.232-.1.334-.18.103-.081.191-.18.269-.296.08-.116.142-.25.185-.403h.02c0 .292.08.524.239.694.163.17.393.255.693.255.227 0 .451-.05.672-.153.221-.103.417-.255.593-.456a2.48 2.48 0 0 0 .424-.751c.106-.301.161-.647.161-1.044 0-.471-.091-.894-.269-1.27zM9.156 7.745a1.922 1.922 0 0 1-.191.559 1.088 1.088 0 0 1-.316.375.752.752 0 0 1-.444.137.617.617 0 0 1-.493-.242.969.969 0 0 1-.155-.303 1.5 1.5 0 0 1-.054-.426c0-.185.021-.374.062-.566.043-.194.106-.369.195-.527.084-.157.194-.282.323-.382.128-.1.281-.15.452-.15.096 0 .181.019.263.05a.556.556 0 0 1 .219.153.695.695 0 0 1 .146.255c.034.105.055.23.055.376 0 .245-.023.477-.062.691z"/><path class="st2" d="M3 1v13h11V1H3zm10 12H4V2h9v11z"/></g><g id="icon_x5F_fg"><path class="st3" d="M9.018 6.422a.553.553 0 0 0-.219-.152.708.708 0 0 0-.263-.05.717.717 0 0 0-.452.15c-.13.1-.24.225-.324.382a1.935 1.935 0 0 0-.196.527 2.72 2.72 0 0 0-.061.566c0 .164.018.304.055.426a.948.948 0 0 0 .155.303.626.626 0 0 0 .493.242.752.752 0 0 0 .444-.137c.125-.092.231-.216.316-.375.086-.157.148-.343.191-.559.039-.214.062-.446.062-.692 0-.146-.02-.271-.055-.376a.718.718 0 0 0-.146-.255z"/><path class="st3" d="M4 2v11h9V2H4zm7.839 6.078a2.458 2.458 0 0 1-.424.751 1.793 1.793 0 0 1-.593.456 1.557 1.557 0 0 1-.672.153c-.301 0-.53-.085-.693-.256-.159-.17-.239-.402-.239-.694h-.02a1.369 1.369 0 0 1-.454.7c-.102.08-.215.14-.334.18a1.275 1.275 0 0 1-.889-.037 1.09 1.09 0 0 1-.415-.298 1.49 1.49 0 0 1-.281-.502 2.18 2.18 0 0 1-.104-.702c0-.316.043-.609.132-.88.086-.274.205-.509.363-.704.157-.198.342-.354.56-.467.217-.112.459-.168.719-.168.103 0 .197.013.286.038a.87.87 0 0 1 .239.109.754.754 0 0 1 .183.167c.05.067.084.14.104.219h.017l.043-.466h.716c-.003.055-.01.144-.021.268l-.038.425a65.685 65.685 0 0 0-.088 1.003c-.011.155-.025.294-.032.413-.007.121-.013.203-.013.253 0 .155.011.285.031.383.019.1.048.179.085.237a.276.276 0 0 0 .127.122.433.433 0 0 0 .167.035.614.614 0 0 0 .352-.116.998.998 0 0 0 .301-.337c.085-.148.155-.326.208-.54.055-.212.079-.452.079-.72 0-.187-.021-.379-.059-.576a2.391 2.391 0 0 0-.531-1.088 2.107 2.107 0 0 0-.501-.425 2.557 2.557 0 0 0-.677-.287A3.196 3.196 0 0 0 8.6 4.62c-.406 0-.788.078-1.133.23a2.731 2.731 0 0 0-.9.633 2.89 2.89 0 0 0-.588.953 3.177 3.177 0 0 0-.213 1.184c0 .403.062.776.189 1.114.125.339.31.629.549.874.239.242.531.432.875.568a3.17 3.17 0 0 0 1.174.205 4.875 4.875 0 0 0 1.015-.095c.143-.029.281-.066.406-.11s.246-.093.36-.142v.662a2.94 2.94 0 0 1-.292.109 3.557 3.557 0 0 1-.4.098A6.363 6.363 0 0 1 8.485 11c-.511 0-.98-.078-1.407-.236a3.194 3.194 0 0 1-1.1-.676 3.052 3.052 0 0 1-.722-1.061 3.535 3.535 0 0 1-.257-1.38 3.83 3.83 0 0 1 .446-1.84c.144-.27.321-.516.534-.738.211-.224.45-.415.717-.572.267-.157.561-.28.882-.367.321-.087.664-.13 1.03-.13.466 0 .905.071 1.316.209.41.139.768.34 1.075.6.308.26.552.579.731.955.179.376.27.799.27 1.27 0 .397-.055.743-.161 1.044z"/></g></svg>