<svg xmlns="http://www.w3.org/2000/svg" viewBox="0 0 16 16"><style>.st0{opacity:0;fill:#f0eff1}.st1{fill:#f6f6f6}.st2{fill:#424242}.st3{fill:#f0eff1}</style><g id="outline"><path class="st0" d="M0 0h16v16H0z"/><path class="st1" d="M1.937 15V0h13v15h-13z"/></g><g id="icon_x5F_bg"><path class="st2" d="M5.989 4H11v.978H5.989zM5.989 7H11v.978H5.989zM5.989 10.022H11V11H5.989z"/><path class="st2" d="M3 1v13h11V1H3zm10 12H4V2h9v11z"/></g><path class="st3" d="M4 2v11h9V2H4zm6.979 9H6.016v-.978h4.963V11zM11 7.978H5.995V7H11v.978zm-.042-3H6.016V4h4.942v.978z" id="icon_x5F_fg"/></svg>