<svg xmlns="http://www.w3.org/2000/svg" viewBox="0 0 16 16"><style>.st0{fill:#f6f6f6}.st1{fill:#424242}.st2{fill:#00539c}</style><path class="st0" d="M15 5V3h-1V0H9v3H8v.086L5.914 1H1.586l1.127 1.127A2.504 2.504 0 0 0 1 4.5V7h1v3H1v2H0v4h9v-2.086L10.086 15h4.328l-1.127-1.127A2.504 2.504 0 0 0 15 11.5V9h1V5h-1z" id="outline"/><g id="icon_x5F_bg"><path class="st1" d="M7 11H5v-1h1V8H3v2h1v1H2v2H1v2h3v-2H3v-1h3v1H5v2h3v-2H7zM14 6V4h-2V3h1V1h-3v2h1v1H9v2H8v2h3V6h-1V5h3v1h-1v2h3V6z"/></g><g id="color_x5F_importance"><path class="st2" d="M13 11.5c0 .275-.225.5-.5.5H11l1-1h-1.5L9 12.5l1.5 1.5H12l-1-1h1.5c.827 0 1.5-.673 1.5-1.5V10h-1v1.5zM3 4.5c0-.275.225-.5.5-.5H5L4 5h1.5L7 3.5 5.5 2H4l1 1H3.5C2.673 3 2 3.673 2 4.5V6h1V4.5z"/></g></svg>