<?xml version="1.0" encoding="iso-8859-1"?>
<!-- Generator: Adobe Illustrator 21.0.0, SVG Export Plug-In . SVG Version: 6.00 Build 0)  -->
<svg version="1.1" xmlns="http://www.w3.org/2000/svg" xmlns:xlink="http://www.w3.org/1999/xlink" x="0px" y="0px"
	 viewBox="0 0 16 16" style="enable-background:new 0 0 16 16;" xml:space="preserve">
<style type="text/css">
	.icon_x002D_canvas_x002D_transparent{opacity:0;fill:#F6F6F6;}
	.icon_x002D_vs_x002D_out{fill:#F6F6F6;}
	.icon_x002D_vs_x002D_bg{fill:#424242;}
	.icon_x002D_vs_x002D_fg{fill:#F0EFF1;}
	.icon_x002D_vs_x002D_blue{fill:#1BA1E2;}
	.icon_x002D_vs_x002D_yellow{fill:#FFCC00;}
</style>
<g id="canvas">
	<path class="icon_x002D_canvas_x002D_transparent" d="M16,16H0V0h16V16z"/>
</g>
<g id="outline">
	<path class="icon_x002D_vs_x002D_out" d="M14.56,11.146l1.413,2.849L15.002,16H8.004H6v-4H5v4H0v-4h1V9h2V5h3V3
		c0-1.711,2.149-3,5-3c2.851,0,5,1.289,5,3v6C16,9.858,15.458,10.609,14.56,11.146z"/>
</g>
<g id="iconBg">
	<path class="icon_x002D_vs_x002D_bg" d="M7,13.965V13h0.485L7,13.965z M3,11h5v0.976L8.993,10H6V8h1V6H4v2h1v2H2v3H1v2h3v-2H3V11z
		 M7,14.083V15h0.48L7,14.083z"/>
</g>
<g id="iconFg">
	<path class="icon_x002D_vs_x002D_fg" d="M14.325,3c0,0.527-1.326,1.325-3.325,1.325C9.001,4.325,7.675,3.527,7.675,3
		S9.001,1.675,11,1.675C12.999,1.675,14.325,2.473,14.325,3z"/>
</g>
<g id="colorImportance">
	<path class="icon_x002D_vs_x002D_blue" d="M8,9h1.496l0.997-1.984h2.017l1.601,3.227C14.659,9.9,15,9.473,15,9V6V3
		c0-0.504-0.385-0.959-1-1.311C13.267,1.271,12.201,1,11,1C9.799,1,8.733,1.271,8,1.689C7.385,2.041,7,2.496,7,3v2h1V9z M7.675,3
		c0-0.527,1.326-1.325,3.325-1.325c1.999,0,3.325,0.798,3.325,1.325S12.999,4.325,11,4.325C9.001,4.325,7.675,3.527,7.675,3z"/>
</g>
<g id="notificationBg">
	<path class="icon_x002D_vs_x002D_yellow" d="M11.891,8.016h-0.781l-3.016,6L8.609,15h5.766l0.484-1L11.891,8.016z M12,14h-1v-1h1
		V14z M12,12h-1v-2h1V12z"/>
</g>
<g id="notificationFg">
	<path class="icon_x002D_black" d="M12,12h-1v-2h1V12z M12,13h-1v1h1V13z"/>
</g>
</svg>
