<svg xmlns="http://www.w3.org/2000/svg" viewBox="0 0 16 16"><style>.st0{opacity:0;fill:#fff;stroke:#000;stroke-miterlimit:10}.st1{fill:#f6f6f6}.st2{fill:#434343}.st3{fill:#f0eff1}</style><g id="outline"><path class="st0" d="M0 0h16v16H0z"/><path class="st1" d="M1.984 15V0h13v15h-13z"/></g><g id="icon_x5F_bg"><path class="st2" d="M2.984 1v13h11V1h-11zm10 12h-9V2h9v11z"/><path class="st2" d="M7.234 3.5l-2.25 2.25L7.234 8l.75-.75-1.5-1.5 1.5-1.5zM9.734 7.5l2.25 2.25L9.734 12l-.75-.75 1.5-1.5-1.5-1.5z"/></g><path class="st3" d="M3.984 2v11h9V2h-9zm4 5.25l-.75.75-2.25-2.25 2.25-2.25.75.75-1.5 1.5 1.5 1.5zM9.734 12l-.75-.75 1.5-1.5-1.5-1.5.75-.75 2.25 2.25L9.734 12z" id="icon_x5F_fg"/></svg>