<svg xmlns="http://www.w3.org/2000/svg" viewBox="0 0 16 16"><style>.st0{fill:#f6f6f6}.st1{fill:#424242}.st2{opacity:0;fill:#f6f6f6}.st3{fill:#f0eff1}</style><path class="st0" d="M16 11V0H0v11h1v1H0v4h5v-4h1v4h5v-4h-1v-1z" id="outline"/><g id="icon_x5F_bg"><path class="st1" d="M1 1v8h1V2h12v7h-4v1h5V1z"/><path class="st1" d="M8 5h4v1H8zM9 13v-3H6V8h1V6H4v2h1v2H2v3H1v2h3v-2H3v-2h5v2H7v2h3v-2z"/></g><g id="icon_x5F_fg"><path class="st2" d="M0 0h16v16H0z"/><path class="st2" d="M0 0h16v16H0z"/><path class="st3" d="M2 2v7h1V5h9v1H8v3h6V2z"/></g></svg>