<svg xmlns="http://www.w3.org/2000/svg" viewBox="0 0 16 16"><style>.st0{fill:#f6f6f6}.st1{fill:none}.st2{fill:#424242}.st3{fill:#f0eff1}</style><path class="st0" d="M3 0v5.349l-.018-.036-1.481 1.48c-.663.662-.596 1.837-.188 2.654l.792 1.584A2.505 2.505 0 0 0 0 13.5C0 14.879 1.122 16 2.5 16a2.51 2.51 0 0 0 1.994-1h.012A2.51 2.51 0 0 0 6.5 16C7.879 16 9 14.879 9 13.5a2.504 2.504 0 0 0-2.104-2.469L6.911 11H11v3h3v-3h2V0H3z" id="outline"/><g id="icon_x5F_bg"><circle class="st1" cx="2.5" cy="13.5" r=".5"/><circle class="st1" cx="6.5" cy="13.5" r=".5"/><path class="st2" d="M12 12h1v1h-1zM11 7h1v1h-1zM4 1h1v1H4zM4 5h1v1H4zM4 3h1v1H4zM4.675 8L5 7.35V7H4v.349L4.325 8z"/><path class="st2" d="M6 1v1h8v7H8s-.1.021-.313.448L7.411 10H15V1H6z"/><path class="st2" d="M6.5 12c-.418 0-.796.172-1.068.448l-.182-.363 1.044-2.087.499-.999c.276-.552.276-1.223 0-1.499l-.5-.5L4.5 10.585 2.708 7l-.5.5c-.276.276-.276.947 0 1.5l.5 1 1.042 2.085-.182.364A1.5 1.5 0 1 0 2.5 15a1.5 1.5 0 0 0 1.463-1.178c.158.103.335.178.537.178s.379-.074.537-.178A1.5 1.5 0 1 0 6.5 12zm-4 2a.5.5 0 1 1 0-1 .5.5 0 0 1 0 1zm4 0a.5.5 0 1 1 .002-1.002A.5.5 0 0 1 6.5 14z"/></g><g id="icon_x5F_fg"><path class="st1" d="M11 7h1v1h-1z"/><path class="st3" d="M6 2v3.352l.02-.039L8 7v2h6V2H6zm6 6h-1V7h1v1z"/><circle class="st3" cx="2.5" cy="13.5" r=".5"/><circle class="st3" cx="6.5" cy="13.5" r=".5"/></g></svg>