<svg xmlns="http://www.w3.org/2000/svg" viewBox="0 0 16 16"><style>.st0{opacity:0}.st0,.st1{fill:#f6f6f6}.st2{fill:#424242}.st3{fill:#f0eff1}</style><g id="outline"><path class="st0" d="M0 0h16v16H0z"/><path class="st1" d="M12.061 0H6c-.97 0-2 .701-2 2v6c-2.206 0-4 1.794-4 4s1.794 4 4 4c1.474 0 2.75-.811 3.444-2H14c1.299 0 2-1.03 2-2V3.556L12.061 0z"/></g><g id="icon_x5F_bg"><path class="st2" d="M4 9a3.001 3.001 0 0 0 0 6 3.001 3.001 0 0 0 0-6zm0 5a2 2 0 1 1 .001-4.001A2 2 0 0 1 4 14z"/><circle class="st2" cx="4" cy="12" r="1"/><path class="st2" d="M11.641 1H5.964S5 1 5 2v6.142c.356.092.689.233 1 .414V2h5v3h3v7H8c0 .348-.059.679-.142 1h6.107c1 0 1.035-1 1.035-1V4l-3.359-3z"/></g><g id="icon_x5F_fg"><path class="st3" d="M11 5V2H6v6.556C7.19 9.25 8 10.525 8 12h6V5h-3zM4 10a2 2 0 1 0 .001 4.001A2 2 0 0 0 4 10zm0 3a1 1 0 1 1 0-2 1 1 0 1 1 0 2z"/></g></svg>