<svg xmlns="http://www.w3.org/2000/svg" width="16" height="16"><style type="text/css">.icon-canvas-transparent{opacity:0;fill:#F6F6F6;} .icon-vs-out{fill:#F6F6F6;} .icon-vs-bg{fill:#424242;} .icon-vs-fg{fill:#F0EFF1;}</style><path class="icon-canvas-transparent" d="M16 16h-16v-16h16v16z" id="canvas"/><path class="icon-vs-out" d="M16 13h-7.555c-.693 1.19-1.968 2-3.445 2-2.209 0-4-1.791-4-4 0-1.008.385-1.917 1-2.62v-8.38h10v4h4v9z" id="outline"/><path class="icon-vs-bg" d="M6 11c0 .553-.447 1-1 1s-1-.447-1-1 .447-1 1-1 1 .447 1 1zm5-6v-4h-8v6.555c.59-.344 1.268-.555 2-.555h-1v-5h6v3h-3v2h-2c1.202 0 2.267.541 3 1.38v-2.38h6v5h-5c0 .348-.058.679-.142 1h6.142v-7h-4zm-3 6c0 1.656-1.344 3-3 3s-3-1.344-3-3 1.344-3 3-3 3 1.344 3 3zm-1 0c0-1.104-.896-2-2-2s-2 .896-2 2 .896 2 2 2 2-.896 2-2z" id="iconBg"/><g id="iconFg"><path class="icon-vs-fg" d="M10 5h-3v2h-3v-5h6v3zm-2 1v2.38c.615.703 1 1.612 1 2.62h5v-5h-6zm-1 5c0 1.104-.896 2-2 2s-2-.896-2-2 .896-2 2-2 2 .896 2 2zm-1 0c0-.553-.447-1-1-1s-1 .447-1 1 .447 1 1 1 1-.447 1-1z"/></g></svg>