<svg xmlns="http://www.w3.org/2000/svg" viewBox="0 0 16 16"><style>.st0{fill:#f6f6f6}.st1{fill:none}.st2{fill:#424242}.st3{fill:#f0eff1}</style><path class="st0" d="M6.586 16L0 9.414V6.586L6.586 0h2.828L16 6.586v2.828L9.414 16z" id="outline"/><g id="icon_x5F_bg"><path class="st1" d="M7.414 2L2 7.414v1.172L7.414 14h1.172L14 8.586V7.414L8.586 2H7.414zM13 9H8V7h5v2zM9.47 6.53L8 5.061 5.061 8 8 10.939l1.47-1.47 1.061 1.061L8 13.061 2.939 8 8 2.939l2.53 2.53L9.47 6.53z"/><path class="st2" d="M8 7h5v2H8z"/><path class="st2" d="M9 1H7L1 7v2l6 6h2l6-6V7L9 1zm5 7.586L8.586 14H7.414L2 8.586V7.414L7.414 2h1.172L14 7.414v1.172z"/><path class="st2" d="M2.939 8L8 13.061l2.53-2.531-1.06-1.06L8 10.939 5.061 8 8 5.061 9.47 6.53l1.06-1.06L8 2.939z"/></g><path class="st3" d="M8.586 2H7.414L2 7.414v1.172L7.414 14h1.172L14 8.586V7.414L8.586 2zM8 13.061L2.939 8 8 2.939l2.53 2.53L9.47 6.53 8 5.061 5.061 8 8 10.939l1.47-1.47 1.061 1.061L8 13.061zM13 9H8V7h5v2z" id="icon_x5F_fg"/></svg>