<svg xmlns="http://www.w3.org/2000/svg" viewBox="0 0 16 16"><style>.icon-canvas-transparent{opacity:0;fill:#f6f6f6}.icon-vs-out{fill:#f6f6f6}.icon-vs-bg{fill:#424242}.icon-vs-fg{fill:#f0eff1}</style><path class="icon-canvas-transparent" d="M16 16H0V0h16v16z" id="canvas"/><path class="icon-vs-out" d="M16 4.668l-1.784-1.784c-.464-1.037-1.647-1.656-2.559-2.049l-.042-.018-.043-.014A5.57 5.57 0 0 0 9.842.53c-.913 0-1.857.217-2.807.645l-.632.285A3.485 3.485 0 0 0 5.006.648L4.97.639a3.39 3.39 0 0 0-.285-.071C4.643.56 4.6.555 4.557.548 4.488.537 4.42.525 4.349.518A3.5 3.5 0 0 0 .5 4c0 1.275.685 2.388 1.704 3H0v9h16V7h-1.514L16 5.486v-.818zm-7.351-.241l-.068.073h-.495l-.336.336-.296-.296c.028-.177.046-.356.046-.54a3.61 3.61 0 0 0-.031-.444l.248-.046c.321-.06.611-.09.861-.09.41 0 .58.083.622.109l-.032.021.062.016c-.029.112-.141.391-.581.861zM11 7v-.086l.47-.471c.038-.035.12-.096.215-.153l.711.71H11z" id="outline"/><path class="icon-vs-bg" d="M14.995 5.077l-1.554 1.554-.871-.871.283-.283c-.885-.859-2.063.233-2.063.233L10 6.5V7l-.75.75L12 10.5H9L7.75 9.25 6.5 10.5h-3l2.75-2.75-1.406-1.406A2.488 2.488 0 0 1 4 6.5 2.5 2.5 0 0 1 1.5 4c0-.432.12-.833.313-1.187L3.5 4.5l1-1-1.687-1.687A2.47 2.47 0 0 1 4 1.5 2.5 2.5 0 0 1 6.5 4c0 .298-.061.579-.156.844L7.75 6.25l.75-.75H9l.384-.384-.006-.005c1.714-1.828.339-2.438.339-2.438-.565-.342-1.461-.281-2.184-.146l-.087-.44c1.57-.707 2.852-.648 3.816-.334 1.302.56 2.036 1.156 2.14 1.877.104.722.402.82.402.82l.037.037.283-.282.871.872zM10.914 8l1 1H14v2.5h-2v1h-1v-1H5v1H4v-1H2V9h1.586l1-1H1v7h14V8h-4.086z" id="iconBg"/><path class="icon-vs-fg" d="M11.914 9H14v2.086L11.914 9zM4 13h1v-1.5H4V13zm-.414-4H2v1.586L3.586 9zM11 13h1v-1.5h-1V13zm-4.086-1.5h1.672l-.836-.836-.836.836z" id="iconFg"/></svg>