<svg xmlns="http://www.w3.org/2000/svg" viewBox="0 0 16 16"><style>.st0{fill:#f6f6f6}.st1{fill:#424242}.st2{fill:#00539c}.st3{fill:#f0eff1}</style><path class="st0" d="M15.552 5.503l-.595-1.318L12 7.142l-.586-.586L14.371 3.6l-1.319-.596A4.961 4.961 0 0 0 11 2.556a4.96 4.96 0 0 0-2.041.44A3.503 3.503 0 0 0 5.5 0C3.57 0 2 1.57 2 3.5c0 .322.046.639.137.949L0 6.586v.828l2 2 2.551-2.551c.309.091.627.137.949.137.184 0 .363-.019.54-.046-.024.198-.04.398-.04.602 0 .468.067.933.2 1.384l-2.907 2.908c-.687.686-1.253 2.162 0 3.414.609.61 1.244.738 1.67.738.958 0 1.621-.614 1.744-.737l2.907-2.908c.453.134.917.201 1.386.201 2.757 0 5-2.243 5-5a4.95 4.95 0 0 0-.448-2.053z" id="outline"/><path class="st1" d="M14.641 5.915L12 8.556l-2-2 2.641-2.641A3.968 3.968 0 0 0 11 3.556c-.754 0-1.458.213-2.061.576A3.506 3.506 0 0 1 7.119 6.6 4.063 4.063 0 0 0 7 7.556c0 .586.133 1.139.359 1.641L4 12.556s-1 1 0 2 2 0 2 0l3.359-3.359a3.968 3.968 0 0 0 1.641.359 4 4 0 0 0 4-4c0-.586-.133-1.139-.359-1.641z" id="icon_x5F_bg"/><path class="st2" d="M3.313 4.688L1 7l1 1 2.313-2.313C4.668 5.881 5.068 6 5.5 6A2.5 2.5 0 1 0 3 3.5c0 .432.119.832.313 1.188zM4 3.5a1.5 1.5 0 1 1 3.001.001A1.5 1.5 0 0 1 4 3.5z" id="color_x5F_action"/><path class="st3" d="M5.5 2a1.5 1.5 0 1 1-.001 3.001A1.5 1.5 0 0 1 5.5 2z" id="icon_x5F_fg"/></svg>