<svg xmlns="http://www.w3.org/2000/svg" viewBox="0 0 16 16"><style>.st0{fill:#f6f6f6}.st1{fill:#424242}.st2{fill:#00539c}.st3{fill:#f0eff1}</style><path class="st0" d="M10 4c-.36 0-.712.037-1.055.099C8.979 3.904 9 3.705 9 3.5 9 1.57 7.43 0 5.5 0S2 1.57 2 3.5c0 .322.046.639.137.949L0 6.586v.828l2 2 2.551-2.551c.099.03.202.047.303.067A5.95 5.95 0 0 0 4 10c0 3.309 2.691 6 6 6s6-2.691 6-6-2.691-6-6-6z" id="outline"/><path class="st1" d="M10 5c-.506 0-.993.076-1.453.216a3.57 3.57 0 0 1-.204.317l-.025.033c-.067.092-.138.18-.214.264l-.032.035c-.08.086-.162.168-.25.246l-.02.018a3.457 3.457 0 0 1-1.761.824A4.979 4.979 0 0 0 5 10c0 2.762 2.238 5 5 5s5-2.238 5-5-2.238-5-5-5zm-1 6a2 2 0 1 1 .001-4.001A2 2 0 0 1 9 11z" id="icon_x5F_bg"/><path class="st2" d="M3.313 4.688L1 7l1 1 2.313-2.313C4.668 5.881 5.068 6 5.5 6A2.5 2.5 0 1 0 3 3.5c0 .432.119.832.313 1.188zM4 3.5a1.5 1.5 0 1 1 3.001.001A1.5 1.5 0 0 1 4 3.5z" id="color_x5F_action"/><g id="icon_x5F_fg"><circle class="st3" cx="9" cy="9" r="2"/><circle class="st3" cx="5.5" cy="3.5" r="1.5"/></g></svg>