<svg xmlns="http://www.w3.org/2000/svg" viewBox="0 0 16 16"><style>.st0{opacity:0}.st0,.st1{fill:#f6f6f6}.st2{fill:#424242}.st3{fill:#f0eff1}.st4{fill:#00539c}</style><g id="outline"><path class="st0" d="M0 0h16v16H0z"/><path class="st1" d="M15.993 11.927V3.556L12.061 0 5.856.004c-.74.067-1.842.661-1.842 2.024v5.123a3.494 3.494 0 0 0-1.604 2.935c0 .322.046.64.137.949L0 13.586 2.41 16l2.404-2.408c.35.255.771.399 1.19.408h8.045c.787 0 1.25-.341 1.497-.626.465-.534.469-1.186.447-1.447z"/></g><g id="icon_x5F_bg"><path class="st2" d="M14.993 11.976V4l-3.324-3H5.928S5 1.056 5 2l-.003 4.715c.286-.076.582-.129.891-.129.036 0 .07.01.106.011V2h5v3h3v7H8.811c-.26.396-.597.737-.992 1h6.226c1.093 0 .948-1.024.948-1.024zM5.388 10.086a.5.5 0 0 0 .5.5c.038 0 .071-.014.106-.021v-.958c-.036-.007-.069-.021-.106-.021a.5.5 0 0 0-.5.5z"/><path class="st2" d="M10 9h4v1h-4z"/></g><g id="icon_x5F_fg"><path class="st3" d="M9.602 10l-.234-.367c.016.122.034.242.037.367h.197zM8.825 8.148L9.607 7H8.594l-.283.548c.191.182.367.38.514.6z"/><path class="st3" d="M14 9V5h-3V2H6v4.595a3.48 3.48 0 0 1 2.311.954L8.594 7h1.014l-.783 1.148c.291.435.472.942.543 1.484l.037.368c.001.029.009.057.009.086 0 .707-.214 1.363-.576 1.914H14v-2h-4V9h4z"/><path class="st3" d="M9.368 9.633a3.47 3.47 0 0 0-.543-1.485l-.207.305.75 1.18z"/><g><path class="st2" d="M8.828 8.156L9.625 7H8.609l-.296.563c.201.174.357.378.515.593z"/></g></g><g id="color_x5F_action"><path class="st4" d="M8.388 10.086a2.5 2.5 0 0 1-2.5 2.5 2.47 2.47 0 0 1-1.188-.313l-2.313 2.313-1-1L3.7 11.273a2.477 2.477 0 0 1-.313-1.188 2.5 2.5 0 1 1 5.001.001zm-4 0a1.5 1.5 0 1 0 3.001-.001 1.5 1.5 0 0 0-3.001.001z"/><circle class="st3" cx="5.888" cy="10.086" r="1.5"/></g></svg>