<svg xmlns="http://www.w3.org/2000/svg" viewBox="0 0 16 16"><style>.st0{fill:#f6f6f6}.st1{fill:#424242}.st2{fill:#f0eff1}</style><g id="outline"><path transform="rotate(90 8.5 3)" class="st0" d="M5.5-.5h6v7h-6z"/><path class="st1" d="M6 1h5v4H6z"/><path transform="rotate(90 13.5 3.5)" class="st0" d="M10 1h7v5h-7z"/><path class="st1" d="M12 1h3v5h-3z"/><path class="st0" d="M6.914 4.586a4.505 4.505 0 0 0-4.5 4.5c0 .615.125 1.202.35 1.736L0 13.586 2.414 16l2.764-2.764c.535.225 1.121.35 1.736.35 2.481 0 4.5-2.019 4.5-4.5s-2.019-4.5-4.5-4.5z"/><path class="st1" d="M6.914 5.586a3.5 3.5 0 0 0-3.5 3.5c0 .71.215 1.369.579 1.921l-2.579 2.579 1 1 2.579-2.578a3.485 3.485 0 0 0 1.921.578 3.5 3.5 0 1 0 0-7zm0 6a2.5 2.5 0 1 1 0-5 2.5 2.5 0 0 1 0 5z"/></g><circle class="st2" cx="6.914" cy="9.086" r="2.5" id="icon_x5F_fg"/></svg>