<svg xmlns="http://www.w3.org/2000/svg" viewBox="0 0 16 16"><style>.st0{fill:#f0eff1}.st1{fill:#f6f6f6}.st2{fill:#424242}</style><g id="outline"><circle class="st0" cx="9.5" cy="7.5" r="2.5"/><path class="st1" d="M2 4h7v6H2z"/></g><g id="icon_x5F_bg"><path class="st2" d="M3 5h6v4.031H3z"/><path class="st1" d="M11.5 1.333a4.505 4.505 0 0 0-4.5 4.5c0 .616.125 1.202.35 1.737l-2.764 2.764L7 12.747l2.764-2.764c.535.225 1.121.35 1.736.35 2.481 0 4.5-2.019 4.5-4.5s-2.019-4.5-4.5-4.5z"/><path class="st2" d="M11.5 2.333a3.5 3.5 0 0 0-3.5 3.5c0 .71.215 1.369.579 1.921L6 10.333l1 1 2.579-2.578a3.485 3.485 0 0 0 1.921.578 3.5 3.5 0 1 0 0-7zm0 6a2.5 2.5 0 1 1 0-5 2.5 2.5 0 0 1 0 5z"/><circle class="st0" cx="11.5" cy="5.833" r="2.5"/><path class="st2" d="M10 5.313h2.917v1.688H10z"/></g></svg>