<svg xmlns="http://www.w3.org/2000/svg" viewBox="0 0 16 16"><style>.st0{fill:#f0eff1}.st1{fill:#f6f6f6}.st2{fill:#424242}</style><g id="outline"><circle class="st0" cx="9.5" cy="7.5" r="2.5"/><path class="st1" d="M4.998 0H11v7H4.998z"/></g><g id="icon_x5F_bg"><path class="st2" d="M6 1h4v5H6z"/><path class="st1" d="M11.5 1.5A4.505 4.505 0 0 0 7 6c0 .615.125 1.202.35 1.736L4.586 10.5 7 12.914l2.764-2.764c.535.225 1.121.35 1.736.35 2.481 0 4.5-2.019 4.5-4.5s-2.019-4.5-4.5-4.5z"/><path class="st2" d="M11.5 2.5A3.5 3.5 0 0 0 8 6c0 .71.215 1.369.579 1.921L6 10.5l1 1 2.579-2.578A3.485 3.485 0 0 0 11.5 9.5a3.5 3.5 0 1 0 0-7zm0 6a2.5 2.5 0 1 1 0-5 2.5 2.5 0 0 1 0 5z"/><circle class="st0" cx="11.5" cy="6" r="2.5"/><path class="st2" d="M10.059 5.012h2.878v.955h-2.878z"/></g></svg>