<svg xmlns="http://www.w3.org/2000/svg" viewBox="0 0 16 16"><style>.icon-canvas-transparent{opacity:0;fill:#f6f6f6}.icon-vs-bg{fill:#424242}.icon-vs-fg{fill:#f0eff1}</style><path class="icon-canvas-transparent" d="M16 16H0V0h16v16zm0-16H0v16h16V0z" id="canvas"/><path class="icon-vs-fg" d="M10.5 10C8.019 10 6 7.981 6 5.5S8.019 1 10.5 1 15 3.019 15 5.5 12.981 10 10.5 10z" id="iconFg"/><path class="icon-vs-bg" d="M10.5 0A5.506 5.506 0 0 0 5 5.5c0 1.337.48 2.563 1.276 3.517l-6.13 6.13a.5.5 0 0 0 .708.707l6.13-6.13A5.467 5.467 0 0 0 10.5 11c3.032 0 5.5-2.467 5.5-5.5S13.532 0 10.5 0zm0 10C8.019 10 6 7.981 6 5.5S8.019 1 10.5 1 15 3.019 15 5.5 12.981 10 10.5 10z" id="iconBg"/></svg>