<svg xmlns="http://www.w3.org/2000/svg" viewBox="0 0 16 16"><style>.icon-canvas-transparent{opacity:0;fill:#f6f6f6}.icon-vs-out{fill:#f6f6f6}.icon-vs-bg{fill:#424242}.icon-vs-fg{fill:#f0eff1}</style><path class="icon-canvas-transparent" d="M16 16H0V0h16v16z" id="canvas"/><path class="icon-vs-out" d="M6.5 16a1.501 1.501 0 0 1-1.061-2.56l.44-.44H2v-2H0V0h14v2h2v7.051-.001A4.006 4.006 0 0 1 12 13a3.95 3.95 0 0 1-1.559-.32L7.56 15.561A1.49 1.49 0 0 1 6.5 16z" id="outline"/><path class="icon-vs-fg" d="M12 11c-1.103 0-2-.897-2-2s.897-2 2-2 2 .897 2 2-.897 2-2 2zm0-9H2v7h1V3h9V2zm-3.68 8.559A3.95 3.95 0 0 1 8 9c0-2.206 1.794-4 4-4 .732 0 1.409.212 2 .556V4H4v7h3.879l.441-.441z" id="iconFg"/><path class="icon-vs-bg" d="M13 3V1H1v9h2v2h3.879l1-1H4V4h10v1.556c.378.221.714.498 1 .826V3h-2zM3 3v6H2V2h10v1H3zm9 3c-1.654 0-3 1.346-3 3 0 .647.21 1.243.56 1.733l-3.413 3.413a.5.5 0 0 0 .707.708l3.413-3.413c.49.349 1.086.559 1.733.559 1.654 0 3-1.346 3-3s-1.346-3-3-3zm0 5c-1.103 0-2-.897-2-2s.897-2 2-2 2 .897 2 2-.897 2-2 2z" id="iconBg"/></svg>