<svg xmlns="http://www.w3.org/2000/svg" viewBox="0 0 16 16"><style>.st0{fill:#f6f6f6}.st1{fill:#424242}.st2{fill:#f0eff1}</style><path class="st0" d="M5.094 0H16v6.938H5.094z" id="outline"/><g id="icon_x5F_bg"><path class="st1" d="M6 1h5v3H6zM12 1h3v5h-3z"/><path class="st0" d="M8.914 3a4.505 4.505 0 0 0-4.5 4.5c0 .615.125 1.202.35 1.736L2 12l2.414 2.414 2.764-2.764c.534.225 1.121.35 1.736.35 2.481 0 4.5-2.019 4.5-4.5S11.396 3 8.914 3z"/><path class="st1" d="M8.914 4a3.5 3.5 0 0 0-3.5 3.5c0 .71.215 1.369.579 1.921L3.414 12l1 1 2.579-2.578A3.485 3.485 0 0 0 8.914 11a3.5 3.5 0 1 0 0-7zm0 6a2.5 2.5 0 1 1 0-5 2.5 2.5 0 0 1 0 5z"/><circle class="st2" cx="8.914" cy="7.5" r="2.5"/><path class="st1" d="M7 6h4v1H7z"/></g></svg>