<svg xmlns="http://www.w3.org/2000/svg" viewBox="0 0 16 16" enable-background="new 0 0 16 16"><style type="text/css">.icon-canvas-transparent{opacity:0;fill:#F6F6F6;} .icon-vs-out{fill:#F6F6F6;} .icon-vs-fg{fill:#F0EFF1;} .icon-visualstudio{fill:#68217A;} .icon-vs-action-blue{fill:#00539C;}</style><path class="icon-canvas-transparent" d="M16 16h-16v-16h16v16z" id="canvas"/><path class="icon-vs-out" d="M16 3.737v2.158c-.148.809-.574 1.73-1.601 2.757-.363.331-1.399 1.662-1.399 2.73v2.476l-1.454 2.142h-1.991l-1.555-2.13v-2.5c0-1.068-.994-2.387-1.321-2.684-.604-.603-.988-1.165-1.238-1.69-.302-.006-.6-.048-.89-.133l-2.551 2.551-2-2v-.828l2.137-2.137c-.091-.309-.137-.627-.137-.949 0-1.93 1.57-3.5 3.5-3.5.67 0 1.291.199 1.823.527.378-.22.792-.396 1.242-.527h3.943c.853.248 1.588.647 2.165 1.228.696.701 1.151 1.361 1.327 2.509z" id="outline"/><path class="icon-visualstudio" d="M9.041 14h3.002l-.932 1h-1.125l-.945-1zm-.041-2v1h3v-1h-3zm1.542-11.299c-.999.003-1.792.192-2.424.501.542.616.882 1.415.882 2.298 0 1.561-1.034 2.871-2.448 3.321.197.362.458.739.819 1.101.721.653 1.686 3.078 1.686 3.078h2.97s.965-2.425 1.686-3.078c1.332-1.332 1.381-2.908 1.371-2.975.009-1.978-1.032-4.235-4.542-4.246z" id="iconBg"/><path class="icon-vs-fg" d="M13.042 5c0 1.458-1 1.3-1 1.3l-.5 2.7h-.49l-.01-3s1 .021 1-1h-3c0 1 1 1 1 1l.01 3h-.51l-.5-2.7s-.604.086-.871-.565c.405-.483.681-1.071.778-1.723l.093-.012h3c.625 0 1 .646 1 1z" id="iconFg"/><path class="icon-vs-action-blue" d="M3.313 4.688l-2.313 2.312 1 1 2.313-2.313c.355.194.755.313 1.187.313 1.381 0 2.5-1.119 2.5-2.5s-1.119-2.5-2.5-2.5-2.5 1.119-2.5 2.5c0 .432.119.832.313 1.188zm.687-1.188c0-.828.672-1.5 1.5-1.5s1.5.672 1.5 1.5-.672 1.5-1.5 1.5-1.5-.672-1.5-1.5z" id="colorAction"/></svg>