<svg xmlns="http://www.w3.org/2000/svg" viewBox="0 0 16 16"><style>.st0{opacity:0}.st0,.st1{fill:#f6f6f6}.st2{fill:#424242}.st3{fill:#f0eff1}</style><g id="outline"><path class="st0" d="M0 0h16v16H0z"/><path class="st1" d="M1 0h14v15H1z"/></g><path class="st2" d="M2 1v13h12V1H2zm4 11H4v-2h2v2zm0-6H4V4h2v2zm3 6H7v-2h2v2zm0-6H7V4h2v2zm3 6h-2v-2h2v2zm0-6h-2V4h2v2z" id="icon_x5F_bg"/><path class="st3" d="M4 4h2v2H4V4zm3 2h2V4H7v2zm3 0h2V4h-2v2zm0 6h2v-2h-2v2zm-3 0h2v-2H7v2zm-3 0h2v-2H4v2z" id="icon_x5F_fg"/></svg>