<svg xmlns="http://www.w3.org/2000/svg" viewBox="0 0 16 16"><style>.st0{opacity:0}.st0,.st1{fill:#f6f6f6}.st2{fill:#424242}.st3{fill:#1ba1e2}.st4{fill:#00539c}.st5{fill:#f0eff1}</style><g id="outline"><path class="st0" d="M0 0h16v16H0z"/><path class="st1" d="M8.303 0h-.606L1 4.465v7.07l4 2.666V16h6v-1.799l4-2.666v-7.07z"/></g><path class="st2" d="M8 1L2 5v6l4 2.666v-1.201l-3-2V6.268l3 2V7.065L3.353 5.301 8 2.201l4.648 3.1L10 7.065v1.203l3-2v4.197l-3 2v1.201L14 11V5z" id="icon_x5F_bg"/><g id="color_x5F_decoration"><path class="st3" d="M10 7H6v8h4V7zm-1 7H7V8h2v6z"/><path class="st4" d="M7 8h2v6H7z"/></g><path class="st5" d="M13 6.268v4.197l-3 2V8.268l3-2zM3 10.465l3 2V8.268l-3-2v4.197zm7-3.4L12.648 5.3 8 2.201l-4.647 3.1L6 7.065V7h4v.065z" id="icon_x5F_fg"/></svg>