<svg xmlns="http://www.w3.org/2000/svg" viewBox="0 0 16 16"><style>.st0{opacity:0}.st0,.st1{fill:#f6f6f6}.st2{fill:#424242}.st3{fill:#1ba1e2}.st4{fill:#00539c}.st5{fill:#f0eff1}</style><g id="outline"><path class="st0" d="M0 0h16v16H0z"/><path class="st1" d="M8.303 0h-.606L1 4.465v7.07L7.697 16h.606L15 11.535v-7.07z"/></g><path class="st2" d="M8 1L2 5v6l6 4 6-4V5L8 1zm5 9.465l-4.5 3V11h-1v2.465l-4.5-3V6.268l3 2V7.065L3.353 5.301 8 2.201l4.648 3.1L10 7.065v1.202l3-2v4.198z" id="icon_x5F_bg"/><g id="color_x5F_decoration"><path class="st3" d="M10 7H6v4h4V7zm-1 3H7V8h2v2z"/><path class="st4" d="M7 8h2v2H7z"/></g><path class="st5" d="M13 6.268v4.197l-4.5 3V11H10V8.268l3-2zM6 7h4v.065L12.648 5.3 8 2.201l-4.647 3.1L6 7.065V7zm0 1.268l-3-2v4.197l4.5 3V11H6V8.268z" id="icon_x5F_fg"/></svg>