<svg xmlns="http://www.w3.org/2000/svg" viewBox="0 0 16 16"><style>.st0{opacity:0}.st0,.st1{fill:#f6f6f6}.st2{fill:#424242}.st3{fill:#f0eff1}</style><g id="outline"><path class="st0" d="M0 0h16v16H0z"/><path class="st1" d="M8 4v1.586l-1-1V3H0v10h7v-1.586l1-1V12h8V4z"/></g><g id="icon_x5F_bg"><path class="st2" d="M9 5v6h6V5H9zm5 5h-4V7h4v3z"/><path class="st2" d="M11 8h2v1h-2zM3 8l3 3 3-3-3-3-3 3zm3 1.586L4.414 8 6 6.414 7.586 8 6 9.586z"/><path class="st2" d="M2 5h4V4H1v8h5v-1H2z"/></g><g id="icon_x5F_fg"><path class="st3" d="M10 7v3h4V7h-4zm3 2h-2V8h2v1z"/><path transform="rotate(-45.001 6 8)" class="st3" d="M4.879 6.879h2.243v2.243H4.879z"/></g></svg>