<?xml version="1.0" encoding="utf-8"?>
<!-- Generator: Adobe Illustrator 19.1.0, SVG Export Plug-In . SVG Version: 6.00 Build 0)  -->
<svg version="1.1" xmlns="http://www.w3.org/2000/svg" xmlns:xlink="http://www.w3.org/1999/xlink" x="0px" y="0px"
	 viewBox="0 0 16 16" enable-background="new 0 0 16 16" xml:space="preserve">
<g id="canvas">
	<path opacity="0" fill="#F6F6F6" d="M16,16H0V0h16V16z"/>
</g>
<g id="outline">
	<path fill="#EEEEF2" d="M0,0h16v16H0V0z"/>
</g>
<g id="iconFg">
	<path fill="#F0EFF1" d="M5,5H3V3h2V5z M13,3h-2v2h2V3z M13,11h-2v2h2V11z M5,11H3v2h2V11z"/>
</g>
<g id="colorAction">
	<g>
		<path fill="#00539C" d="M9,15h6V9H9V15z M11,11h2v2h-2V11z"/>
		<path fill="#00539C" d="M1,7h6V1H1V7z M3,3h2v2H3V3z"/>
		<path fill="#00539C" d="M1,15h6V9H1V15z M3,11h2v2H3V11z"/>
		<path fill="#00539C" d="M9,1v6h6V1H9z M13,5h-2V3h2V5z"/>
	</g>
	<g>
	</g>
	<g>
	</g>
	<g>
	</g>
	<g>
	</g>
	<g>
	</g>
	<g>
	</g>
</g>
</svg>
