<svg xmlns="http://www.w3.org/2000/svg" viewBox="0 0 16 16"><style>.st0{opacity:0}.st0,.st1{fill:#f6f6f6}.st2{fill:#424242}.st3{fill:#f0eff1}</style><g id="outline"><path class="st0" d="M0 0h16v16H0z"/><path class="st1" d="M1 0h14v15H1z"/></g><path class="st2" d="M4 4h2v2H4V4zm3 2h2V4H7v2zm3 0h2V4h-2v2zm0 3h2V7h-2v2zm0 3h2v-2h-2v2zm-3 0h2v-2H7v2zm-3 0h2v-2H4v2zm0-3h2V7H4v2zm3 0h2V7H7v2zm7-8v13H2V1h12zm-1 2H3v10h10V3z" id="icon_x5F_bg"/><path class="st3" d="M3 3v10h10V3H3zm3 9H4v-2h2v2zm0-3H4V7h2v2zm0-3H4V4h2v2zm3 6H7v-2h2v2zm0-3H7V7h2v2zm0-3H7V4h2v2zm3 6h-2v-2h2v2zm0-3h-2V7h2v2zm0-3h-2V4h2v2z" id="icon_x5F_fg"/></svg>