<svg xmlns="http://www.w3.org/2000/svg" viewBox="0 0 16 16"><style>.st0{opacity:0}.st0,.st1{fill:#f6f6f6}.st2{fill:#424242}</style><g id="outline"><path class="st0" d="M0 0h16v16H0z"/><path class="st1" d="M0 0v13h6v2h1.649l.687-.755L9.115 16h.867l2.287-1.04-.864-1.96H15V0z"/></g><g id="icon_x5F_bg"><path class="st2" d="M9.414 8H11V7H8.414zM1 11h1v1H1zM1 1h1v1H1zM1 9h1v1H1zM1 5h1v1H1zM1 3h1v1H1zM1 7h1v1H1zM9 1h1v1H9zM7 1h1v1H7zM5 1h1v1H5zM3 1h1v1H3zM3 5h7v1H3zM13 3h1v1h-1zM13 9h1v1h-1zM3 11h1v1H3zM13 11.586l.414.414H14v-1h-1zM13 5h1v1h-1zM13 1h1v1h-1zM13 7h1v1h-1zM11 1h1v1h-1zM3 7h3v1H3zM5 11h1v1H5zM3 3h9v1H3zM10.955 14.459l-1.086-2.465h2.518L7 6.996v7.231l1.629-1.788L9.766 15z"/></g></svg>