<svg xmlns="http://www.w3.org/2000/svg" viewBox="0 0 16 16"><style>.st0{opacity:0}.st0,.st1{fill:#f6f6f6}.st2{fill:#424242}.st3{fill:#f0eff1}</style><g id="outline"><path class="st0" d="M0 0h16v16H0z"/><path class="st1" d="M9 3v1.586l-1 1V4H0v8h8v-1.586l1 1V13h7V3z"/></g><g id="icon_x5F_bg"><path class="st2" d="M1 5v6h6V5H1zm5 5H2V7h4v3zM10 5L7 8l3 3 3-3-3-3zM8.414 8L10 6.414 11.586 8 10 9.586 8.414 8z"/><path class="st2" d="M10 4v1h4v6h-4v1h5V4zM3 8h2v1H3z"/></g><g id="icon_x5F_fg"><path class="st3" d="M2 10h4V7H2v3zm1-2h2v1H3V8z"/><path transform="rotate(-45.001 10 8)" class="st3" d="M8.879 6.879h2.243v2.243H8.879z"/></g></svg>