<svg xmlns="http://www.w3.org/2000/svg" viewBox="0 0 16 16"><style>.st0{opacity:0}.st0,.st1{fill:#f6f6f6}.st2{fill:#424242}.st3{fill:#00539c}.st4{fill:#f0eff1}</style><g id="outline"><path class="st0" d="M0 0h16v16H0z"/><path class="st1" d="M12.061 0H6c-.97 0-2 .701-2 2H2c-.97 0-2 .701-2 2v10c0 1.299 1.03 2 2 2h8c1.299 0 2-1.03 2-2h2c1.299 0 2-1.03 2-2V3.556L12.061 0z"/></g><g id="icon_x5F_bg"><path class="st2" d="M11.641 1H5.964S5 1 5 2h6v2.653l.385.347H14v7h-2v1h1.965c1 0 1.035-1 1.035-1V4l-3.359-3z"/><path class="st2" d="M7.641 3H1.964S1 3 1 4v6h1V4h5v3h3v7H6.592l-.487 1h3.86c1 0 1.035-1 1.035-1V6L7.641 3z"/></g><path class="st3" d="M4 13l-1-2H1l2 4h2l3.5-7h-2z" id="color_x5F_action"/><g id="icon_x5F_fg"><path class="st4" d="M11.385 5l.615.556V12h2V5zM11 2H8.061L11 4.653z"/><g><path class="st4" d="M3.618 10l.382.764L6 7h1V4H2v6zM6.592 14H10V7z"/></g></g></svg>