<svg xmlns="http://www.w3.org/2000/svg" viewBox="0 0 16 16"><style>.st0{opacity:0}.st0,.st1{fill:#f6f6f6}.st2{fill:#424242}.st3{fill:#1ba1e2}.st4{fill:#00539c}.st5{fill:#f0eff1}</style><g id="outline"><path class="st0" d="M0 0h16v16H0z"/><path class="st1" d="M8.303 0h-.606L1 4.465v7.07L7.697 16h.606L15 11.535v-7.07z"/></g><path class="st2" d="M8 1L2 5v6l6 4 6-4V5L8 1zm0 13.4l-5.5-3.668V5.333L8 9v5.4zM3.353 5.301L8 2.201l4.648 3.1L8 8.398 3.353 5.301zM13 10.465l-4.5 3V9.268l4.5-3v4.197z" id="icon_x5F_bg"/><g id="color_x5F_decoration"><path class="st3" d="M2.5 5.333v5.399L8 14.4V9L2.5 5.333zM7 12.531l-3.5-2.334V7.202L7 9.535v2.996z"/><path class="st4" d="M3.5 10.197L7 12.531V9.535L3.5 7.202z"/></g><path class="st5" d="M12.648 5.301L8 8.398 3.353 5.301 8 2.201l4.648 3.1zM8.5 9.268v4.197l4.5-3V6.268l-4.5 3z" id="icon_x5F_fg"/></svg>