<svg xmlns="http://www.w3.org/2000/svg" viewBox="0 0 16 16"><style>.icon-canvas-transparent{opacity:0;fill:#f6f6f6}.icon-vs-out{fill:#f6f6f6}.icon-vs-fg{fill:#f0eff1}.icon-folder{fill:#dcb67a}.icon-vs-action-blue{fill:#00539c}</style><path class="icon-canvas-transparent" d="M16 16H0V0h16v16z" id="canvas"/><path class="icon-vs-out" d="M16 12v3h-1v1H2V6.415L1.414 7H0V3.586L3.586 0h.828l2 2h4L15 6.586V12h1z" id="outline"/><path class="icon-folder" d="M10 12l4-4v3h-1.914l-2.5 2.5 1.5 1.5H3V8l4 4h3zm0-9H7.414L8 3.586V7H6v1h8V7l-4-4z" id="iconBg"/><path class="icon-vs-fg" d="M3 8h11l-4 4H7L3 8" id="iconFg"/><path class="icon-vs-action-blue" d="M16 14h-3l1 1h-1.5L11 13.5l1.5-1.5H14l-1 1h3v1zM3 7h2V4l2 2V4L4 1 1 4v2l2-2v3z" id="colorAction"/></svg>