<svg xmlns="http://www.w3.org/2000/svg" viewBox="0 0 16 16"><style>.st0{opacity:0}.st0,.st1{fill:#f6f6f6}.st2{fill:#424242}.st3{fill:#f0eff1}</style><g id="outline"><path class="st0" d="M0 0h16v16H0z"/><path class="st1" d="M15 12V6.586L10.414 2H6.586l-.086.086L4.414 0h-.828L0 3.586V7h1.414L2 6.415V16h13v-1h1v-3z"/></g><g id="icon_x5F_bg"><path class="st2" d="M16 13h-3l1-1h-1.5L11 13.5l1.5 1.5H14l-1-1h3z"/><path class="st2" d="M4 14V9l3 3h3l3-3v2h1V7l-4-4H7.414L8 3.586V4h1.586l3 3H6v1H3v7h8.086l-1-1z"/></g><path class="st2" d="M3 7h2V4l2 2V4L4 1 1 4v2l2-2z" id="color_x5F_action"/><g id="icon_x5F_fg"><path class="st3" d="M10 12H7L4 9v5h6.086l-.5-.5 2.5-2.5H13V9zM9.586 4H8v3h4.586zM6 6.415V7h.586z"/></g></svg>