<svg xmlns="http://www.w3.org/2000/svg" viewBox="0 0 16 16"><style>.st0{opacity:0}.st0,.st1{fill:#f6f6f6}.st2{fill:#424242}.st3{fill:#00539c}.st4{fill:#f0eff1}</style><g id="outline"><path class="st0" d="M0 0h16v16H0z"/><path class="st1" d="M10 4L6 0H0l2 2H0v14h16V4z"/></g><path class="st2" d="M9 5l-.55 1H13l-5 5-3-3H3l4 4h2l5-5v7H2V8H1v7h14V5z" id="icon_x5F_bg"/><path class="st3" d="M5 1H3l2 2H1v2h4L3 7h2l3-3z" id="color_x5F_action"/><g id="icon_x5F_fg"><path class="st4" d="M2 7l5 5h2l5-5v7H2z"/><path class="st4" d="M8 6L6 8H5l3 3 5-5z"/></g></svg>