<svg xmlns="http://www.w3.org/2000/svg" viewBox="0 0 16 16"><style>.st0{opacity:0}.st0,.st1{fill:#f6f6f6}.st2{fill:#424242}.st3{fill:#f0eff1}</style><g id="outline"><path class="st0" d="M0 0h16v16H0z"/><path class="st1" d="M8 4V3L4.999 0H3.001L0 3v13h16V4z"/></g><path class="st2" d="M8 5v1h5l-5 5-2-2H4l3 3h2l5-5v7H2V6.414l-1 1V15h14V5z" id="icon_x5F_bg"/><path class="st2" d="M7 6L5 4v4H3V4L1 6V4l3-3 3 3v2z" id="color_x5F_action"/><g id="icon_x5F_fg"><path class="st3" d="M9 12H7L4 9H2v5h12V7z"/><path class="st3" d="M8 6v2.414l-2-2V9l2 2 5-5z"/></g></svg>