<svg xmlns="http://www.w3.org/2000/svg" viewBox="0 0 16 16"><style>.st0{opacity:0}.st0,.st1{fill:#f6f6f6}.st2{fill:#424242}.st3{fill:#388a34}.st4{fill:#f0eff1}</style><g id="outline"><path class="st0" d="M0 0h16v16H0z"/><path class="st1" d="M15 5V2H3v2.882l-3-1.5v6.236l4-2V9h1v1H3v3h8v-2h2V8h3V5h-1zM3.236 5H4v.382L3.236 5z"/></g><path class="st2" d="M8 4H4V3h4v1zm1-1v1h5V3H9zm3 4h3V6h-3v1zm-6 3h6V9H6v1zm-2 2h6v-1H4v1zm7-7v3H5V5h6zm-1 1H6v1h4V6z" id="color_x5F_imporatance"/><path class="st3" d="M4 6.5L1 5v3l3-1.5z" id="color_x5F_action"/><path class="st4" d="M6 6h4v1H6z" id="icon_x5F_fg"/></svg>