<svg xmlns="http://www.w3.org/2000/svg" viewBox="0 0 16 16"><style>.st0{opacity:0}.st0,.st1{fill:#f6f6f6}.st2{fill:#424242}.st3{fill:#f0eff1}</style><g id="outline"><path class="st0" d="M0 0h16v16H0z"/><path class="st1" d="M16 6V0H0v6h1v7h1v3h3v-3h1v-1h3.415l.585-.585V14h1v2h3v-2h1V7h-1V6z"/></g><g id="icon_x5F_bg"><path class="st2" d="M7.501 8l1 1H5V7H4V5h3V1H1v4h2v2H2v5h1v3h1v-3h1v-2h3.501l-1 1h1.5l1.5-1.5-1.5-1.5h-1.5zM2 4V2h4v2H2z"/><path class="st2" d="M15 5V1H9v4h3v3h-1v5h1v2h1v-2h1V8h-1V5h2zm-5-1V2h4v2h-4z"/></g><g id="icon_x5F_fg"><path class="st3" d="M2 2h4v2H2zM10 2h4v2h-4z"/></g></svg>