<svg xmlns="http://www.w3.org/2000/svg" viewBox="0 0 16 16"><style>.icon-canvas-transparent{opacity:0;fill:#f6f6f6}.icon-vs-out{fill:#f6f6f6}.icon-vs-bg{fill:#424242}.icon-vs-fg{fill:#f0eff1}.icon-vs-action-blue{fill:#00539c}</style><path class="icon-canvas-transparent" d="M16 16H0V0h16v16z" id="canvas"/><path class="icon-vs-out" d="M15 4v9h-3v.414L9.414 16H6.586L4 13.415V13H1V4h3V1h1.414L6 1.586V0h4v1.586L10.586 1H12v3h3z" id="outline"/><path class="icon-vs-bg" d="M3 11h1v1H2V5h2.586l1 1H3v5zm8.414-6l-1 1H13v5h-1v1h2V5h-2.586z" id="iconBg"/><path class="icon-vs-fg" d="M13 6v5h-1v-1h-1.414l-.586.586V9H6v1.586L5.414 10H4v1H3V6h2.586l2 2h.828l2-2H13z" id="iconFg"/><path class="icon-vs-action-blue" d="M9 13l2-2v2l-3 3-3-3v-2l2 2v-3h2v3zm2-9V2L9 4V1H7v3L5 2v2l3 3 3-3z" id="colorAction"/></svg>