<svg xmlns="http://www.w3.org/2000/svg" viewBox="0 0 16 16"><style>.st0{opacity:0}.st0,.st1{fill:#f6f6f6}.st2{fill:#424242}</style><g id="outline"><path class="st0" d="M0 0h16v16H0z"/><path class="st1" d="M3 16c-.97 0-2-.701-2-2V2C1 .701 2.03 0 3 0h8.061L15 3.556V14c0 .97-.701 2-2 2H3z"/></g><g id="icon_x5F_bg"><path class="st2" d="M10.641 1H2.964S2 1 2 2v12c0 1 .964 1 .964 1h10c1 0 1.036-1 1.036-1V4l-3.359-3zM13 14H3V2h7v3h3v9z"/><path class="st2" d="M4 7h2v2H4zM4 3h2v2H4zM7 11h2v2H7zM4 11h2v2H4zM10 11h2v2h-2zM7 7h2v2H7z"/></g><path class="st1" d="M10 5V2H3v12h10V5h-3zm-4 8H4v-2h2v2zm0-4H4V7h2v2zm0-4H4V3h2v2zm3 8H7v-2h2v2zm0-4H7V7h2v2zm3 4h-2v-2h2v2z" id="icon_x5F_fg"/></svg>