<svg xmlns="http://www.w3.org/2000/svg" viewBox="0 0 16 16"><style>.st0{fill:#f6f6f6}.st1{fill:#424242}.st2{fill:#f0eff1}</style><path class="st0" d="M13 4.809V2H6.5c-.569-1-1.631-2-3-2C1.57 0 0 1.571 0 3.5S1.57 7 3.5 7c.586 0 1.112-.155 1.571-.418A5.978 5.978 0 0 0 4 10a6 6 0 0 0 12 0 5.992 5.992 0 0 0-3-5.191zm-6.315.192c-.106.07-.208.148-.309.225.042-.075.086-.147.124-.225h.185z" id="outline"/><g id="icon_x5F_bg"><path class="st1" d="M8.586 8.586L6.465 6.464A4.988 4.988 0 0 0 5.082 9.18l2.951.492c.071-.42.264-.799.553-1.086z"/><circle class="st1" cx="10" cy="10" r="1"/><path class="st1" d="M10 12c-.992 0-1.81-.725-1.967-1.673l-2.951.491C5.476 13.188 7.519 15 10 15c.241 0 .473-.039.704-.07l-.423-2.959c-.092.013-.184.029-.281.029zM11.414 11.414l2.121 2.121a4.994 4.994 0 0 0 1.188-1.961l-2.834-.945c-.1.298-.258.568-.475.785zM1 3.5A2.5 2.5 0 0 0 3.5 6C4.709 6 5.769 5.141 6 4h2v2h1V4h1v2h1V4h1V3H6c-.231-1.141-1.291-2-2.5-2A2.5 2.5 0 0 0 1 3.5zm1 0a1.5 1.5 0 1 1 3 0 1.5 1.5 0 0 1-3 0zM12 5.422V7H9.572l.146 1.027C9.811 8.015 9.903 8 10 8a2 2 0 0 1 2 2h3a4.996 4.996 0 0 0-3-4.578z"/></g><g id="icon_x5F_fg"><circle class="st2" cx="3.5" cy="3.5" r="1.5"/><path class="st2" d="M14.723 11.574A4.953 4.953 0 0 0 15 10h-3a2 2 0 0 0-2-2c-.097 0-.189.015-.281.027L9.572 7H7.001l1.585 1.586a1.992 1.992 0 0 0-.553 1.086L5.082 9.18A5.03 5.03 0 0 0 5 10c0 .28.038.551.082.818l2.951-.491A1.996 1.996 0 0 0 10 12c.097 0 .189-.016.281-.029l.423 2.959a4.978 4.978 0 0 0 2.831-1.394l-2.121-2.121c.217-.217.375-.487.475-.785l2.834.944zM10 11a1 1 0 1 1 0-2 1 1 0 0 1 0 2zM6.465 6.464L7 6.999V6.01c-.188.14-.37.288-.535.454z"/></g></svg>