<svg xmlns="http://www.w3.org/2000/svg" width="16" height="16"><style type="text/css">.icon-canvas-transparent{opacity:0;fill:#F6F6F6;} .icon-vs-out{fill:#F6F6F6;} .icon-vs-bg{fill:#424242;} .icon-vs-fg{fill:#F0EFF1;} .icon-vs-action-blue{fill:#00539C;}</style><path class="icon-canvas-transparent" d="M16 16h-16v-16h16v16z" id="canvas"/><path class="icon-vs-out" d="M16 0v15h-2l-1 1h-6l1-1h-8v-15h16z" id="outline"/><path class="icon-vs-bg" d="M1 12h6v2h-6v-2zm0-11v2h14v-2h-14zm4 9h4l-1-1h-2v-4h2v3h1v-4h-4v6zm5-2h1v-3h2v3l1 1v-5h-4v4z" id="iconBg"/><path class="icon-vs-fg" d="M11 5h2v3h-2v-3zm-5 4h2l-1-1h1v-3h-2v4zm-5-6v9h6v-2h-2v-6h4v4h1v-4h4v5l1 1v-7h-14z" id="iconFg"/><path class="icon-vs-action-blue" d="M15 12l-3 3h-2l2-2h-4v-2h4l-2-2h2l3 3z" id="colorAction"/></svg>