<svg xmlns="http://www.w3.org/2000/svg" viewBox="0 0 16 16"><style>.st0{opacity:0}.st0,.st1{fill:#f6f6f6}.st2{fill:#424242}.st3{fill:#f0eff1}</style><g id="outline"><path class="st0" d="M0 0h16v16H0z"/><path class="st1" d="M7 0v3.106L5.852 2.5 0 5.46v7.075L5.197 16h.606l.166-.111.176.111 3.426-2.513.732-.487H16V0z"/></g><g id="icon_x5F_bg"><path class="st2" d="M8 1v2.634l1 .528V4h5v1h-3.411l.895.472V12H15V1H8zm6 10h-1v-1h1v1zm0-8H9V2h5v1z"/><path class="st2" d="M5.842 3.835L1 6.284v5.503L6.102 15l4.383-3.213V6.284L5.842 3.835zm-4.019 7.514V7.398l3.861 2.156v4.311l-3.861-2.516zm4.245-2.716l-3.71-2.115 3.454-1.754 3.681 1.813-3.425 2.056zm3.585 2.747l-2.955 2.129V9.381l2.955-1.802v3.801z"/></g><g id="icon_x5F_fg"><path class="st3" d="M9 4.161L10.589 5H14V4H9zM13 10h1v1h-1zM9 2h5v1H9zM1.823 11.349V7.398l3.861 2.156v4.311zM6.068 8.633l-3.71-2.115 3.454-1.754 3.68 1.813zM9.653 11.38l-2.955 2.129V9.381l2.955-1.802z"/></g></svg>