<svg xmlns="http://www.w3.org/2000/svg" width="16" height="16"><style type="text/css">.icon-canvas-transparent{opacity:0;fill:#F6F6F6;} .icon-vs-out{fill:#F6F6F6;} .icon-vs-bg{fill:#424242;} .icon-vs-fg{fill:#F0EFF1;} .icon-vs-action-blue{fill:#00539C;}</style><path class="icon-canvas-transparent" d="M16 16h-16v-16h16v16z" id="canvas"/><path class="icon-vs-out" d="M16 15h-9l-1 1h-6l1-1h-1v-15h16v15z" id="outline"/><path class="icon-vs-bg" d="M1 1h14v2h-14v-2zm9 3h4v6h-4v-6zm1 5h2v-4h-2v4zm-1 3l-2 2h7v-2h-5zm-4-4v-3h2v4h-1l1 1h1v-6h-4v4h1z" id="iconBg"/><path class="icon-vs-fg" d="M13 9h-2v-4h2v4zm2-6v9h-5l-2-2h1v-6h-4v4h-4v-5h14zm-1 1h-4v6h4v-6zm-13 6h1l-1-1v1zm7-1v-4h-2v3l1 1h1z" id="iconFg"/><path class="icon-vs-action-blue" d="M8 12l-3 3h-2l2-2h-4v-2h4l-2-2h2l3 3z" id="colorAction"/></svg>