<svg xmlns="http://www.w3.org/2000/svg" viewBox="0 0 16 16"><style>.icon-canvas-transparent{opacity:0;fill:#f6f6f6}.icon-vs-out{fill:#f6f6f6}.icon-vs-bg{fill:#424242}.icon-vs-fg{fill:#f0eff1}</style><path class="icon-canvas-transparent" d="M16 16H0V0h16v16z" id="canvas"/><path class="icon-vs-out" d="M2.8 15c-.8 0-1.4-.4-1.8-1-.4-.6-.4-1.4 0-2l2-3.3V8H2V5h4V0h10v13h-5.8c0 .3-.1.7-.3 1-.4.6-1 1-1.7 1H2.8z" id="outline"/><path class="icon-vs-bg" d="M7 9V7h1V6H3v1h1v2l-2.1 3.5c-.4.7.1 1.5.9 1.5h5.5c.8 0 1.3-.8.9-1.5L7 9zm-3 2l1-1.7V7h1v2.3L7 11H4zm4.2-2l1.7 3H15V9H8.2zm5.8 2h-1v-1h1v1zM7 1v3h8V1H7zm7 2h-1V2h1v1zM9 5v3h6V5H9zm5 2h-1V6h1v1z" id="iconBg"/><path class="icon-vs-fg" d="M13 10h1v1h-1v-1zm0-7h1V2h-1v1zm0 4h1V6h-1v1zm-6 4L6 9.3V7H5v2.3L4 11h3z" id="iconFg"/></svg>