<svg xmlns="http://www.w3.org/2000/svg" viewBox="0 0 16 16"><style>.st0{opacity:0}.st0,.st1{fill:#f6f6f6}.st2{fill:#424242}.st3{fill:#f0eff1}</style><g id="outline"><path class="st0" d="M0 0h16v16H0z"/><path class="st1" d="M6 0v4.276C4.258 4.897 3 6.547 3 8.5c0 .615.125 1.201.35 1.736L0 13.586v.828L1.586 16h.828l3.35-3.35c.075.032.159.045.236.074V16h10V0H6z"/></g><g id="icon_x5F_bg"><path class="st2" d="M11 8.5a3.5 3.5 0 1 0-7 0c0 .711.215 1.369.578 1.922L1 14l1 1 3.578-3.578A3.488 3.488 0 0 0 7.5 12 3.5 3.5 0 0 0 11 8.5zm-6 0a2.5 2.5 0 1 1 5 0 2.5 2.5 0 0 1-5 0z"/><path class="st2" d="M7 1v3.051c.167-.019.329-.051.5-.051 1.061 0 2.023.384 2.794 1H13v1h-1.762c.481.716.762 1.575.762 2.5 0 2.481-2.019 4.5-4.5 4.5-.171 0-.334-.031-.5-.051V15h8V1H7zm6 12h-1v-1h1v1zm0-9H9V3h4v1z"/></g><g id="icon_x5F_fg"><path class="st3" d="M11.238 6H13V5h-2.706c.359.288.687.616.944 1zM12 12h1v1h-1zM9 3h4v1H9z"/><circle class="st3" cx="7.5" cy="8.5" r="2.5"/></g></svg>