<svg xmlns="http://www.w3.org/2000/svg" width="16" height="16"><style type="text/css">.icon-canvas-transparent{opacity:0;fill:#F6F6F6;} .icon-vs-out{fill:#F6F6F6;} .icon-vs-bg{fill:#424242;} .icon-vs-fg{fill:#F0EFF1;}</style><path class="icon-canvas-transparent" d="M16 16h-16v-16h16v16z" id="canvas"/><path class="icon-vs-out" d="M16 0v16h-13v-.586l-.586.586h-.828l-1.586-1.586v-.828l3-3v-10.586h13z" id="outline"/><path class="icon-vs-bg" d="M7.5 13c-.615 0-1.201-.125-1.736-.35l-1.764 1.764v.586h11v-4h-3.762c-.808 1.205-2.181 2-3.738 2zm4.5 0h2v1h-2v-1zm-.762-7h3.762v4h-3.276c.168-.472.276-.972.276-1.5v.5h2v-1h-2v.5c0-.925-.281-1.784-.762-2.5zm-7.238-5v4h.707c.77-.616 1.732-1 2.793-1s2.023.384 2.794 1h4.706v-4h-11zm10 3h-2v-1h2v1zm-6.5 8c1.933 0 3.5-1.567 3.5-3.5s-1.567-3.5-3.5-3.5-3.5 1.567-3.5 3.5c0 .711.215 1.369.578 1.922l-3.578 3.578 1 1 3.578-3.578c.553.363 1.211.578 1.922.578zm0-6c1.381 0 2.5 1.119 2.5 2.5s-1.119 2.5-2.5 2.5-2.5-1.119-2.5-2.5 1.119-2.5 2.5-2.5z" id="iconBg"/><path class="icon-vs-fg" d="M10 8.5c0 1.381-1.119 2.5-2.5 2.5s-2.5-1.119-2.5-2.5 1.119-2.5 2.5-2.5 2.5 1.119 2.5 2.5zm2 5.5h2v-1h-2v1zm0-11v1h2v-1h-2zm0 6h2v-1h-2v1z" id="iconFg"/></svg>