<svg xmlns="http://www.w3.org/2000/svg" width="16" height="16"><style type="text/css">.icon-canvas-transparent{opacity:0;fill:#F6F6F6;} .icon-vs-out{fill:#F6F6F6;} .icon-vs-bg{fill:#424242;} .icon-vs-fg{fill:#F0EFF1;}</style><path class="icon-canvas-transparent" d="M16 16h-16v-16h16v16z" id="canvas"/><path class="icon-vs-out" d="M13 13.967h-8.334l-3.389 2.033h-1.277v-8.766l4 2.399v-8.666h9v13z" id="outline"/><path class="icon-vs-bg" d="M1 9l5 3-5 3v-6zm4-7v8.233l2.944 1.783-1.611.984h5.667v-11h-7zm6 10h-1v-1h1v1zm0-6h-5v-1h5v1zm0-2h-5v-1h5v1z" id="iconBg"/><path class="icon-vs-fg" d="M11 3v1h-5v-1h5zm-5 3h5v-1h-5v1zm4 6h1v-1h-1v1z" id="iconFg"/></svg>