<svg xmlns="http://www.w3.org/2000/svg" width="16" height="16"><style type="text/css">.icon-canvas-transparent{opacity:0;fill:#F6F6F6;} .icon-vs-out{fill:#F6F6F6;} .icon-vs-bg{fill:#424242;} .icon-vs-fg{fill:#F0EFF1;}</style><path class="icon-canvas-transparent" d="M16 16h-16v-16h16v16z" id="canvas"/><path class="icon-vs-out" d="M16 3.556v8.444c0 .97-.701 2-2 2h-1v2h-13v-9h1v-1h-1v-3h4v-1c0-1.299 1.03-2 2-2h6.061l3.939 3.556z" id="outline"/><path class="icon-vs-bg" d="M4 5h-3v-1h3v1zm0 1.022h-2v.978h2v-.978zm-3 7.978v1h11v-1h-11zm6-4v3h-3v-3h3zm-1 1h-1v1h1v-1zm5-1v3h-3v-3h3zm-1 1h-1v1h1v-1zm2-2v-1h-11v1h11zm-.359-8h-5.677s-.964 0-.964 1v5h1v-5h5v3h3v7h-1v1h.965c1 0 1.035-1 1.035-1v-8l-3.359-3z" id="iconBg"/><path class="icon-vs-fg" d="M14 5v7h-1v-5h-7v-5h5v3h3zm-8 6h-1v1h1v-1zm4 0h-1v1h1v-1zm2-2v5h-11v-5h11zm-5 1h-3v3h3v-3zm4 0h-3v3h3v-3z" id="iconFg"/></svg>