<svg xmlns="http://www.w3.org/2000/svg" width="16" height="16"><style type="text/css">.icon-canvas-transparent{opacity:0;fill:#F6F6F6;} .icon-vs-out{fill:#F6F6F6;} .icon-vs-bg{fill:#424242;} .icon-vs-fg{fill:#F0EFF1;}</style><path class="icon-canvas-transparent" d="M16 16h-16v-16h16v16z" id="canvas"/><path class="icon-vs-out" d="M16 1v14h-16v-14h16z" id="outline"/><path class="icon-vs-bg" d="M1 12h14v2h-14v-2zm0-8h14v-2h-14v2zm8 1v6h-4v-6h4zm-1 1h-2v4h2v-4zm6-1v6h-4v-6h4zm-1 1h-2v4h2v-4z" id="iconBg"/><path class="icon-vs-fg" d="M8 6h-2v4h2v-4zm5 0h-2v4h2v-4z" id="iconFg"/></svg>