<svg xmlns="http://www.w3.org/2000/svg" width="16" height="16"><style type="text/css">.icon-canvas-transparent{opacity:0;fill:#F6F6F6;} .icon-vs-out{fill:#F6F6F6;} .icon-vs-bg{fill:#424242;} .icon-vs-fg{fill:#F0EFF1;}</style><path class="icon-canvas-transparent" d="M16 16h-16v-16h16v16z" id="canvas"/><path class="icon-vs-out" d="M16 12h-7.5l1.5 1.5-2.5 2.5h-3.5l1-1h-3v-2.5l-.5-.5h-1.5v-12h16v12z" id="outline"/><path class="icon-vs-bg" d="M1 1v8.601l1-1.012v-5.589l5 5h2l5-5v7h-6v1h7v-10h-14zm7 6l-5-5h10l-5 5zm-5 5l-1.483-1.5 1.483-1.5h1l-1 1h4v1h-4l1 1h-1zm5.517 1.5l-1.517 1.5h-1l1-1h-4v-1h4l-1-1h1l1.517 1.5z" id="iconBg"/><path class="icon-vs-fg" d="M3 2h10l-5 5-5-5zm6 6h-2l-5-5v5.589l.583-.589h3.832l-1 1h2.585v1h6v-7l-5 5z" id="iconFg"/></svg>