<svg xmlns="http://www.w3.org/2000/svg" width="16" height="16"><style type="text/css">.icon-canvas-transparent{opacity:0;fill:#F6F6F6;} .icon-vs-out{fill:#F6F6F6;} .icon-vs-bg{fill:#424242;} .icon-vs-fg{fill:#F0EFF1;}</style><path class="icon-canvas-transparent" d="M16 16h-16v-16h16v16z" id="canvas"/><path class="icon-vs-out" d="M16 0v16h-10.049l-.32-.059c-.272.037-.448.059-.631.059l-.536-.046-.769-.099-.192-.782-.044-.354-.897.698-.614-.477c-.333-.259-.632-.559-.89-.891l-.475-.614.698-.896-1.123-.139-.099-.769c-.038-.269-.059-.446-.059-.631 0-.182.021-.356.045-.533l.099-.769.783-.194.354-.044-.698-.895.475-.614c.257-.333.557-.632.89-.891l.614-.477.897.699.141-1.124.769-.098c.272-.038.448-.06.631-.06s.37.021.546.046l.454.058v-6.104h10z" id="outline"/><path class="icon-vs-bg" d="M7 1v5.922l.436-.339.615.477c.333.259.633.559.89.891l.476.614-.698.895 1.124.14.099.769c.036.275.058.449.058.631 0 .185-.021.362-.046.538l-.1.768-.781.19-.354.044.698.896-.476.614c-.257.332-.557.632-.89.891l-.076.059h7.025v-14h-8zm6.002 12h-1v-1h1v1zm-.002-7h-4v-1h4v1zm0-2h-4v-1h4v1zm-7 7c0 .553-.447 1-1 1-.553 0-1-.447-1-1s.447-1 1-1c.553 0 1 .447 1 1zm1.383 1.453c.148-.244.262-.51.331-.795l1.235-.154c.022-.166.051-.33.051-.504 0-.172-.029-.336-.051-.504l-1.235-.154c-.069-.285-.183-.551-.331-.795l.767-.984c-.207-.268-.445-.506-.712-.713l-.985.768c-.244-.148-.51-.262-.795-.331l-.154-1.236c-.167-.021-.331-.051-.504-.051l-.504.051-.154 1.236c-.285.069-.551.182-.795.331l-.985-.768c-.267.207-.505.445-.712.713l.768.984c-.148.244-.262.51-.331.795l-1.235.154c-.023.168-.052.332-.052.504 0 .174.029.338.051.504l1.235.154c.069.285.183.551.331.795l-.767.985c.207.268.445.506.712.713l.985-.768c.244.148.51.262.795.332l.154 1.234c.167.022.331.051.504.051l.504-.051.154-1.234c.285-.07.551-.184.795-.332l.985.768c.267-.207.505-.445.712-.713l-.767-.985zm-2.383.547c-1.105 0-2-.894-2-2 0-1.104.895-2 2-2 1.104 0 2 .896 2 2 0 1.106-.896 2-2 2z" id="iconBg"/><path class="icon-vs-fg" d="M13 3v1h-4v-1h4zm-1 10h1v-1h-1v1zm-3-7h4v-1h-4v1zm-2 5c0 1.106-.896 2-2 2-1.105 0-2-.894-2-2 0-1.104.895-2 2-2 1.104 0 2 .896 2 2zm-1 0c0-.553-.447-1-1-1-.553 0-1 .447-1 1s.447 1 1 1c.553 0 1-.447 1-1z" id="iconFg"/></svg>