<svg xmlns="http://www.w3.org/2000/svg" width="16" height="16"><style type="text/css">.icon-canvas-transparent{opacity:0;fill:#F6F6F6;} .icon-vs-out{fill:#F6F6F6;} .icon-vs-bg{fill:#424242;} .icon-vs-fg{fill:#F0EFF1;}</style><path class="icon-canvas-transparent" d="M16 16h-16v-16h16v16z" id="canvas"/><path class="icon-vs-out" d="M16 0v16h-16v-12h6v-4h10z" id="outline"/><path class="icon-vs-bg" d="M7 1v3h2v-1h4v1h-2v1h2v1h-2v9h4v-14h-8zm6 12h-1v-1h1v1zm-12 2h9v-10h-9v10zm1-9h7v8h-7v-8zm3 4h-2v-1h2v1zm2-2h-4v-1h4v1zm-4 4h1v1h-1v-1zm2-1h1v2h-1v-2zm2-1h1v3h-1v-3z" id="iconBg"/><path class="icon-vs-fg" d="M13 3v1h-4v-1h4zm-1 10h1v-1h-1v1zm-1-7h2v-1h-2v1zm-9 0h7v8h-7v-8zm4 5h-1v2h1v-2zm2-1h-1v3h1v-3zm-5-2h4v-1h-4v1zm0 2h2v-1h-2v1zm0 3h1v-1h-1v1z" id="iconFg"/></svg>