<svg xmlns="http://www.w3.org/2000/svg" width="16" height="16"><style type="text/css">.icon-canvas-transparent{opacity:0;fill:#F6F6F6;} .icon-vs-out{fill:#F6F6F6;} .icon-vs-bg{fill:#424242;}</style><path class="icon-canvas-transparent" d="M16 16h-16v-16h16v16z" id="canvas"/><path class="icon-vs-out" d="M15 4v3h1v8h-3v-1h-2v1h-3v-6.586l-3.586 3.586h-4.414v-.414l1.586-1.586h-1.586v-4h1.586l-1.586-1.586v-.414h4.414l2.586 2.586v-3.586h1v-3h3v1h2v-1h3v4h-1z" id="outline"/><path class="icon-vs-bg" d="M9 1h.992v1h4.005v-1h1.003v2h-6v-2zm0 10h6v-3h-6v3zm-1-4h6v-3h-6v3zm1 7h1.021v-1h3.976v1h1.003v-2h-6v2zm-2-6l-3-3h-2l2 2h-3v2h3l-2 2h2l3-3z" id="iconBg"/></svg>