<svg xmlns="http://www.w3.org/2000/svg" width="16" height="16"><style type="text/css">.icon-canvas-transparent{opacity:0;fill:#F6F6F6;} .icon-vs-out{fill:#F6F6F6;} .icon-vs-bg{fill:#424242;} .icon-vs-fg{fill:#F0EFF1;}</style><path class="icon-canvas-transparent" d="M16 16h-16v-16h16v16z" id="canvas"/><path class="icon-vs-out" d="M16 13h-8v3h-8v-11h8v1h1c-.649-.635-1-1.52-1-2.5 0-1.933 1.567-3.5 3.5-3.5s3.5 1.567 3.5 3.5c0 .98-.351 1.865-1 2.5h2v7z" id="outline"/><path class="icon-vs-bg" d="M1 15h6v-9h-6v9zm5-1h-1v-1h1v1zm-4-7h4v1h-4v-1zm0 2h4v1h-4v-1zm7-5.5c0-1.38 1.119-2.5 2.5-2.5 1.379 0 2.5 1.12 2.5 2.5s-1.121 2.5-2.5 2.5c-1.381 0-2.5-1.119-2.5-2.5zm6 3.5v5h-7v-5h2l1.5 2 1.5-2h2z" id="iconBg"/><path class="icon-vs-fg" d="M5 13h1v1h-1v-1zm-3-3h4v-1h-4v1zm0-3v1h4v-1h-4z" id="iconFg"/></svg>