<svg xmlns="http://www.w3.org/2000/svg" width="16" height="16"><style type="text/css">.icon-canvas-transparent{opacity:0;fill:#F6F6F6;} .icon-vs-out{fill:#F6F6F6;} .icon-vs-bg{fill:#424242;} .icon-vs-fg{fill:#F0EFF1;}</style><path class="icon-canvas-transparent" d="M16 16h-16v-16h16v16z" id="canvas"/><path class="icon-vs-out" d="M14.946 7.375l-.115-.9-1.651-.206 1.023-1.313-.474-.614c-.306-.396-.665-.755-1.068-1.068l-.613-.477-1.317 1.023-.205-1.651-.905-.115c-.205-.029-.409-.054-.621-.054s-.417.025-.621.054l-.905.115-.18 1.441-6.017-3.61h-1.277v8.766l3.115-1.869-.061.478c-.029.207-.054.412-.054.625 0 .215.025.421.054.627l.114.9 1.651.205-1.023 1.313.476.614c.307.396.666.756 1.066 1.067l.614.477 1.315-1.023.206 1.655.912.112c.203.029.406.053.615.053.21 0 .411-.024.613-.052l.912-.112.206-1.655 1.316 1.023.614-.477c.401-.311.76-.671 1.067-1.067l.475-.614-1.022-1.313 1.65-.205.115-.9c.029-.207.054-.413.054-.628 0-.213-.025-.418-.054-.625z" id="outline"/><path class="icon-vs-bg" d="M6 4l-5 3v-6l5 3zm6.393 4.822c-.086.357-.228.689-.414.994l.959 1.232c-.258.333-.557.631-.89.89l-1.232-.959c-.305.187-.638.328-.994.414l-.192 1.545c-.209.025-.414.062-.63.062l-.63-.063-.192-1.545c-.356-.086-.689-.228-.994-.414l-1.231.959c-.333-.259-.632-.557-.89-.89l.959-1.232c-.187-.303-.329-.635-.415-.993l-1.544-.191c-.026-.209-.063-.414-.063-.631 0-.215.037-.42.063-.629l1.544-.193c.086-.355.228-.689.414-.994l-.546-.703 1.299-.779.41.319c.305-.186.638-.328.994-.414l.192-1.543c.209-.026.414-.064.63-.064l.63.064.192 1.543c.356.086.689.229.994.414l1.232-.958c.333.259.632.556.89.89l-.959 1.23c.186.305.328.639.414.994l1.544.193c.026.21.063.415.063.63 0 .217-.037.422-.063.631l-1.544.191zm-1.393-.822c0-1.104-.894-2-2-2-1.105 0-2 .896-2 2 0 .138.014.273.041.403.042.208.125.4.227.579l.074.136.104.126.14.17.17.141.126.104.136.074c.179.102.371.185.579.227.13.026.265.04.403.04s.273-.014.403-.041c.208-.042.399-.125.579-.227l.136-.074.126-.104.17-.141.141-.17.104-.126.074-.136c.102-.179.185-.371.227-.579.026-.129.04-.264.04-.402zm-2-1c-.553 0-1 .448-1 1 0 .553.447 1 1 1s1-.447 1-1c0-.552-.447-1-1-1z" id="iconBg"/><path class="icon-vs-fg" d="M9 6c-1.104 0-2 .896-2 2 0 1.105.896 2 2 2s2-.895 2-2c0-1.104-.896-2-2-2zm0 3c-.553 0-1-.447-1-1 0-.552.447-1 1-1s1 .448 1 1c0 .553-.447 1-1 1z" id="iconFg"/></svg>