<svg xmlns="http://www.w3.org/2000/svg" width="16" height="16"><style type="text/css">.icon-canvas-transparent{opacity:0;fill:#F6F6F6;} .icon-vs-out{fill:#F6F6F6;} .icon-vs-bg{fill:#424242;} .icon-vs-fg{fill:#F0EFF1;}</style><path class="icon-canvas-transparent" d="M16 16h-16v-16h16v16z" id="canvas"/><path class="icon-vs-out" d="M12.414 4h-4.414v-4h-8v16h8v-4h4.414l3.586-3.586v-.828l-3.586-3.586zm-4.414 7.586v-1.586h1.586l-1.586 1.586zm0-5.586v-1.586l1.586 1.586h-1.586z" id="outline"/><path class="icon-vs-bg" d="M1 1v4h6v-4h-6zm5 3h-4v-2h4v2zm-5 2h6v4h-6v-4zm11 5h-2l2-2h-4v-2h4l-2-2h2l3 3-3 3zm-11 0v4h6v-4h-6zm5 3h-4v-2h4v2z" id="iconBg"/><path class="icon-vs-fg" d="M2 12h4v2h-4v-2zm0-10v2h4v-2h-4z" id="iconFg"/></svg>