<svg xmlns="http://www.w3.org/2000/svg" width="16" height="16"><style type="text/css">.icon-canvas-transparent{opacity:0;fill:#F6F6F6;} .icon-vs-out{fill:#F6F6F6;} .icon-vs-bg{fill:#424242;}</style><path class="icon-canvas-transparent" d="M16 16h-16v-16h16v16z" id="canvas"/><path class="icon-vs-out" d="M12.414 4h-3.414v-4h-3v1h-2v-1h-3v3h-1v5h1v7h3v-1h2v1h3v-3h3.414l3.586-3.586v-.828l-3.586-3.586zm-3.414 6.586v-.586h.586l-.586.586zm-1-4.586v-1.586l1.586 1.586h-1.586z" id="outline"/><path class="icon-vs-bg" d="M2 1h.992v1h4.005v-1h1.003v2h-6v-2zm0 10h6v-3h-6v3zm-1-4h6v-3h-6v3zm1 7h1.021v-1h3.976v1h1.003v-2h-6v2zm13-6l-3-3h-2l2 2h-3v2h3l-2 2h2l3-3z" id="iconBg"/></svg>