<svg xmlns="http://www.w3.org/2000/svg" width="16" height="16"><style type="text/css">.icon-canvas-transparent{opacity:0;fill:#F6F6F6;} .icon-vs-out{fill:#F6F6F6;} .icon-vs-bg{fill:#424242;} .icon-vs-fg{fill:#F0EFF1;}</style><path class="icon-canvas-transparent" d="M16 16h-16v-16h16v16z" id="canvas"/><path class="icon-vs-out" d="M13 7v-7h-13v9h3v7h13v-9h-3z" id="outline"/><path class="icon-vs-bg" d="M12 2h-11v-1h11v1zm-8 13h11v-1h-11v1zm8-7v-1h-11v1h3v1h11v-1h-3zm-4-5h3v3h-3v-3zm1 2h1v-1h-1v1zm-5-2h3v3h-3v-3zm1 2h1v-1h-1v1zm2 5h3v3h-3v-3zm1 2h1v-1h-1v1zm6-2v3h-3v-3h3zm-1 1h-1v1h1v-1z" id="iconBg"/><path class="icon-vs-fg" d="M4 9v5h11v-5h-11zm6 4h-3v-3h3v3zm4 0h-3v-3h3v3zm-9-9h1v1h-1v-1zm3 7h1v1h-1v-1zm1-7h1v1h-1v-1zm4 7v1h-1v-1h1zm-12-9v5h11v-5h-11zm6 4h-3v-3h3v3zm4 0h-3v-3h3v3z" id="iconFg"/></svg>