<svg xmlns="http://www.w3.org/2000/svg" width="16" height="16"><style type="text/css">.icon-canvas-transparent{opacity:0;fill:#F6F6F6;} .icon-vs-out{fill:#F6F6F6;} .icon-vs-bg{fill:#424242;} .icon-vs-fg{fill:#F0EFF1;}</style><path class="icon-canvas-transparent" d="M16 16h-16v-16h16v16z" id="canvas"/><path class="icon-vs-out" d="M8 16v-6.586l-2.586 2.586h-4.828l2-2h-2.586v-4h2.586l-2-2h4.828l2.586 2.586v-6.586h8v16h-8z" id="outline"/><path class="icon-vs-bg" d="M9 11v4h6v-4h-6zm5 3h-4v-2h4v2zm-5-8h6v4h-6v-4zm-4-1l3 3-3 3h-2l2-2h-4v-2h4l-2-2h2zm4-4v4h6v-4h-6zm5 3h-4v-2h4v2z" id="iconBg"/><path class="icon-vs-fg" d="M10 12h4v2h-4v-2zm0-10v2h4v-2h-4z" id="iconFg"/></svg>