<svg xmlns="http://www.w3.org/2000/svg" width="16" height="16"><style type="text/css">.icon-canvas-transparent{opacity:0;fill:#F6F6F6;} .icon-vs-out{fill:#F6F6F6;} .icon-vs-bg{fill:#424242;} .icon-vs-fg{fill:#F0EFF1;} .icon-vs-action-blue{fill:#00539C;}</style><path class="icon-canvas-transparent" d="M16 16h-16v-16h16v16z" id="canvas"/><path class="icon-vs-out" d="M15 6v9h-15v-9h2.586l-.586-.586-2-2v-.828l2.586-2.586h.828l1.586 1.586 2.679 2.679 1.748 1.735h5.573z" id="outline"/><path class="icon-vs-bg" d="M14 7v7h-13v-7h2.586l1 1h-2.586v5h3v-4.585l1 1.009v3.576h3v-2h2v-3.437l-.566-.563h3.566z" id="iconBg"/><path class="icon-vs-fg" d="M9 11v2h-3v-3.576l1.563 1.576h1.437zm-4.143-2.729l-.271-.271h-2.586v5h3v-4.585l-.143-.144z" id="iconFg"/><path class="icon-vs-action-blue" d="M9 6.999l-2 2-4-3.999 2-2 4 3.999zm-6-5.999l-2 2 1 1 2-2-1-1zm5 9l2-.001v-1.999" id="colorAction"/></svg>