<svg xmlns="http://www.w3.org/2000/svg" viewBox="0 0 16 16"><style>.st0{opacity:0}.st0,.st1{fill:#f6f6f6}.st2{fill:#424242}.st3{fill:#f0eff1}</style><g id="outline"><path class="st0" d="M0 0h16v16H0z"/><path class="st1" d="M9.427 6L7.679 4.265 5 1.586 3.414 0h-.828L0 2.586v.828l2 2L2.586 6H0v9h15V6z"/></g><path class="st2" d="M12.402 7h-1.968l.566.563V11H9v2H6V9.424L5 8.415V13H2V8h2.586l-1-1H1v7h13V7z" id="icon_x5F_bg"/><g id="color_x5F_action"><path transform="rotate(-45.001 6 6)" class="st2" d="M4.586 3.171h2.828v5.656H4.586z"/><path transform="rotate(-45.001 2.5 2.5)" class="st2" d="M1.086 1.793h2.828v1.414H1.086z"/><path class="st2" d="M10 8v1.999L8 10"/></g><g id="icon_x5F_fg"><path class="st3" d="M7.563 11L6 9.424V13h3v-2zM4.857 8.271L4.586 8H2v5h3V8.415z"/></g></svg>