<svg xmlns="http://www.w3.org/2000/svg" width="16" height="16"><style type="text/css">.icon-canvas-transparent{opacity:0;fill:#F6F6F6;} .icon-vs-out{fill:#F6F6F6;} .icon-vs-bg{fill:#424242;} .icon-vs-fg{fill:#F0EFF1;}</style><path class="icon-canvas-transparent" d="M16 16h-16v-16h16v16z" id="canvas"/><path class="icon-vs-out" d="M16 5v11h-13v-9.596l-3-2.991v-.827l2.586-2.586h.837l5.108 5h7.469z" id="outline"/><path class="icon-vs-bg" d="M9 6.999l-2 2-4-3.999 2-2 4 3.999zm-6-5.999l-2 2 1 1 2-2-1-1zm5 9l2-.001v-1.999m-2 3h-.391l-.609-.607v2.607h1v-2zm5 2v-3h-2v1h1v2h1zm-3.447-7l1.447 1.417v1.583h3v5h-4v-3h-1v3h-4v-5.602l-1-.997v7.599h11v-9h-5.447z" id="iconBg"/><path class="icon-vs-fg" d="M9 11v3h-4v-5.602l2 1.994v2.608h1v-2h1zm2-2v1h2v3h-1v-2h-2v3h4v-5h-3z" id="iconFg"/></svg>