<svg xmlns="http://www.w3.org/2000/svg" width="16" height="16"><style type="text/css">.icon-canvas-transparent{opacity:0;fill:#F6F6F6;} .icon-vs-out{fill:#F6F6F6;} .icon-vs-bg{fill:#424242;} .icon-vs-fg{fill:#F0EFF1;}</style><path class="icon-canvas-transparent" d="M16 16h-16v-16h16v16z" id="canvas"/><path class="icon-vs-out" d="M.023 14c0 1.299 1 2 1.941 2h6c1.425 0 2.011-1.161 2.059-2v-1.54l.337.015c3.216-.313 5.64-2.987 5.64-6.221l-.01-.213c-.113-3.386-2.854-6.041-6.24-6.041-3.02 0-5.546 2.149-6.125 5h-1.661c-.941 0-1.941.701-1.941 2v7z" id="outline"/><path class="icon-vs-bg" d="M14.991 6.078c-.095-2.817-2.401-5.073-5.241-5.073-2.464 0-4.517 1.705-5.082 3.995h.979c.049-.158.086-.321.151-.471.515.151 1.088.295 1.726.404l-.003.067h.026l.752.632.036-.584c.451.052.922.085 1.411.09l.302.002c.366 0 .737-.012 1.116-.04.028.254.049.513.053.785.004.433-.052.902-.157 1.402-.356.025-.706.026-1.06.027v.826h.048c.261 0 .524-.008.79-.021-.194.633-.486 1.328-.838 2.064v1.311l.264-.013c2.658-.26 4.736-2.499 4.736-5.226l-.009-.177zm-7.352-1.957c-.519-.091-.993-.205-1.427-.328.485-.697 1.173-1.241 1.976-1.554-.217.543-.417 1.166-.549 1.882zm2.115.2c-.449-.005-.885-.035-1.304-.083.175-.911.464-1.661.751-2.256.18-.023.362-.039.549-.039l.366.019c.351.608.708 1.384.915 2.33-.427.029-.849.033-1.277.029zm1.406-2.137c.883.305 1.635.885 2.151 1.641-.515.177-1 .3-1.463.372-.16-.773-.412-1.439-.688-2.013zm-.372 8.254c.409-.861.725-1.662.929-2.396.67-.086 1.383-.257 2.164-.551-.434 1.452-1.613 2.579-3.093 2.947zm3.261-3.902c-.779.339-1.479.542-2.136.647.083-.459.125-.896.12-1.307-.002-.3-.025-.587-.057-.867.545-.085 1.121-.231 1.737-.453.224.521.349 1.095.349 1.699l-.013.281zm-7.549.464h1.5l-3 6h-1.5l-1.5-3h1.5l.75 1.5 2.25-4.5zm-5.477 2v-2c0-1 .941-1 .941-1h3.918l-.5 1h-3.359v2h-1zm7.673-1.155l.328.292v5.863s-.059 1-1.059 1h-6s-.941 0-.941-1v-3.718l1 2v1.718h6v-4.81l.672-1.345z" id="iconBg"/><path class="icon-vs-fg" d="M11.977 5.009c.545-.085 1.057-.231 1.674-.453.223.521.399 1.095.399 1.699v.28c-.779.339-1.479.542-2.137.647.083-.459.125-.896.12-1.307-.002-.299-.025-.585-.056-.866zm-.817-2.825c.275.574.527 1.24.688 2.013.463-.072.948-.195 1.463-.372-.516-.756-1.268-1.336-2.151-1.641zm.004 2.916c-.379.028-.75.055-1.116.055h-.302c-.489-.005-.964-.055-1.416-.107l-.033.583 1.703 1.431v.285c.352-.009.705-.035 1.06-.06.105-.5.161-.969.157-1.402-.004-.272-.025-.531-.053-.785zm-1.963-3.118c-.287.595-.576 1.362-.751 2.273.419.048.851.096 1.3.1.428.004.852-.035 1.279-.064-.207-.946-.563-1.722-.913-2.33l-.366-.018c-.187 0-.369.016-.549.039zm-2.989 1.811c.434.123.908.237 1.427.328.133-.715.332-1.339.549-1.881-.803.312-1.491.856-1.976 1.553zm1.309 1.207l.004-.067c-.639-.109-1.212-.253-1.726-.404-.066.15-.103.313-.152.471h1.874zm6.359 2.456c-.781.294-1.489.5-2.159.586-.205.734-.562 1.533-.971 2.394 1.479-.368 2.696-1.528 3.13-2.98zm-9.762 1.544l.132.264 1.132-2.264h-3.382v2h2.118zm-2.118 5h.882l-.882-1.764v1.764zm3.618 0h2.382v-4.763l-2.382 4.763z" id="iconFg"/></svg>