<svg xmlns="http://www.w3.org/2000/svg" width="16" height="16"><style type="text/css">.icon-canvas-transparent{opacity:0;fill:#F6F6F6;} .icon-vs-out{fill:#F6F6F6;} .icon-vs-bg{fill:#424242;} .icon-vs-fg{fill:#F0EFF1;}</style><path class="icon-canvas-transparent" d="M16 16h-16v-16h16v16z" id="canvas"/><path class="icon-vs-out" d="M16 3v11h-16v-11h5.891l.5-1h4.236l-.5 1h5.873z" id="outline"/><path class="icon-vs-bg" d="M9.01 3l-4.001 8h-2l-2-4h2l1 2.002 3-6.002h2.001zm-1.383 5l-.5 1h4.873v-1h-4.373zm-5.627-2v-1h2.891l.5-1h-4.391v2h1zm7.627-2l-.5 1h4.873v7h-12v-.781l-1-2v3.781h14v-9h-5.373z" id="iconBg"/><path class="icon-vs-fg" d="M14 5v7h-8.373l1.5-3h4.873v-1h-4.373l1.5-3h4.873zm-10.373 1l.382.765.882-1.765h-2.891v1h1.627zm-1.627 6h.391l-.391-.781v.781z" id="iconFg"/></svg>