<svg xmlns="http://www.w3.org/2000/svg" width="16" height="16"><style type="text/css">.icon-canvas-transparent{opacity:0;fill:#F6F6F6;} .icon-vs-out{fill:#F6F6F6;} .icon-vs-bg{fill:#424242;} .icon-vs-fg{fill:#F0EFF1;}</style><path class="icon-canvas-transparent" d="M16 16h-16v-16h16v16z" id="canvas"/><path class="icon-vs-out" d="M14.911 3.458v7.987l-6.211 4.555h-.487l-7.157-4.51v-3.284c-.621-.811-.993-1.816-.993-2.893 0-.827.215-1.619.605-2.313h-.668v-.852l2.148-2.148h4.015l.099.02c.334.068.647.18.95.313l.374-.189h1.043l6.282 3.314z" id="outline"/><path class="icon-vs-bg" d="M13.911 4.062v6.877l-5.479 4.018-6.376-4.018v-1.769c.3.217.618.409.967.552v.629l4.947 3.226v.023l.014-.012.013.012v-.023l.04-.026v-3.61l.967-.967v4.438l4.027-2.901v-5.146l-2.498 1.635h-1.076c.134-.239.239-.492.331-.751l3.048-1.829-3.15-1.552c-.256-.615-.634-1.165-1.111-1.622l5.336 2.816zm-8.911 2.438v2.5h2.5l1-1h-1.52c1.198-.627 2.02-1.868 2.02-3.312 0-1.816-1.288-3.341-3-3.688v1c1.145.258 2 1.276 2 2.5 0 1.223-.855 2.241-2 2.5v-1.5l-1 1zm-1 1.48c-1.113-.281-1.937-1.279-1.937-2.48 0-1.223.855-2.241 2-2.5v1.5l.937-.937v-2.563h-2.437l-1 1h1.519c-1.197.626-2.019 1.868-2.019 3.313 0 1.792 1.257 3.296 2.937 3.669v-1.002z" id="iconBg"/><path class="icon-vs-fg" d="M9.788 6.249c.174-.495.275-1.019.275-1.561 0-.642-.141-1.253-.377-1.82l3.15 1.552-3.048 1.829zm-1.811 3.751h-2.914v.224l-1.2-.244c-.292-.059-.572-.149-.841-.259v.629l4.947 3.226v.024l.014-.012.014.012v-.023l.04-.026v-3.61l-.06.059zm2.556-3h.444l-1.973 1.973v4.438l4.027-2.901v-5.145l-2.498 1.635z" id="iconFg"/></svg>