<svg xmlns="http://www.w3.org/2000/svg" width="16" height="16"><style type="text/css">.icon-vs-out{fill:#F6F6F6;} .icon-vs-bg{fill:#424242;} .icon-vs-fg{fill:#F0EFF1;}</style><path class="icon-vs-out" d="M16 16h-16v-16h16v16z" id="outline"/><path class="icon-vs-bg" d="M1 1v14h14v-14h-14zm13 13h-12v-12h12v12zm-2.607-5.177c-.086.357-.228.689-.414.994l.959 1.23c-.258.334-.557.631-.89.891l-1.231-.959c-.305.186-.638.328-.994.414l-.193 1.545c-.209.025-.414.062-.63.062-.216 0-.421-.037-.63-.063l-.192-1.545c-.356-.086-.689-.229-.994-.414l-1.231.959c-.333-.26-.632-.557-.89-.891l.959-1.23c-.187-.304-.328-.636-.415-.993l-1.544-.193c-.026-.209-.063-.414-.063-.63 0-.216.037-.421.063-.63l1.544-.192c.086-.356.228-.689.414-.994l-.958-1.231c.258-.333.557-.631.89-.89l1.231.958c.305-.186.638-.328.994-.414l.192-1.543c.209-.026.414-.064.63-.064.216 0 .421.038.63.063l.192 1.544c.356.086.689.228.994.414l1.231-.958c.333.259.632.556.89.89l-.959 1.231c.186.305.328.638.414.994l1.544.192c.027.21.064.415.064.63 0 .216-.037.421-.064.63l-1.543.193zm-3.393-2.823c-1.105 0-2 .896-2 2 0 1.103.895 2 2 2s2-.896 2-2-.895-2-2-2zm1 2c0 .553-.447 1-1 1s-1-.447-1-1c0-.552.447-1 1-1s1 .448 1 1z" id="iconBg"/><path class="icon-vs-fg" d="M8 6c-1.104 0-2 .896-2 2 0 1.105.896 2 2 2s2-.895 2-2c0-1.104-.896-2-2-2zm0 3c-.553 0-1-.447-1-1 0-.552.447-1 1-1s1 .448 1 1c0 .553-.447 1-1 1z" id="iconFg"/></svg>