<svg xmlns="http://www.w3.org/2000/svg" width="16" height="16"><style type="text/css">.icon-canvas-transparent{opacity:0;fill:#F6F6F6;} .icon-vs-out{fill:#F6F6F6;} .icon-vs-bg{fill:#424242;} .icon-vs-fg{fill:#F0EFF1;}</style><path class="icon-canvas-transparent" d="M16 16h-16v-16h16v16z" id="canvas"/><path class="icon-vs-out" d="M16 6c0 .215-.025.421-.054.627l-.115.9-1.65.205 1.022 1.313-.474.615c-.308.396-.666.756-1.067 1.067l-.614.477-1.078-.839-.023.262-.115.9-.272.034-.034.274-.912.112-.248.021.838 1.077-.475.614c-.308.396-.666.756-1.067 1.067l-.614.477-1.315-1.023-.206 1.655-.912.112c-.204.029-.405.053-.615.053s-.411-.024-.613-.052l-.912-.112-.206-1.655-1.315 1.023-.614-.477c-.401-.312-.76-.671-1.067-1.067l-.475-.614 1.022-1.314-1.65-.205-.115-.9c-.03-.206-.055-.412-.055-.627 0-.213.025-.418.054-.624l.115-.9 1.65-.207-1.022-1.313.475-.614c.306-.396.665-.755 1.067-1.067l.613-.477 1.079.839.022-.26.115-.9.272-.036.034-.274.908-.114.252-.021-.837-1.076.475-.614c.306-.396.665-.755 1.067-1.067l.613-.477 1.317 1.022.206-1.653.908-.114c.203-.028.406-.053.617-.053.211 0 .414.025.617.053l.908.114.206 1.653 1.317-1.023.613.477c.402.313.762.671 1.067 1.067l.475.614-1.022 1.313 1.65.207.115.9c.029.207.054.412.054.625z" id="outline"/><path class="icon-vs-bg" d="M9.503 5.151c.148-.088.312-.151.497-.151.553 0 1 .448 1 1 0 .185-.064.349-.151.497l-.12-.156c-.306-.396-.665-.755-1.067-1.067l-.159-.123zm5.433 1.48c.027-.209.064-.414.064-.631 0-.215-.037-.42-.064-.629l-1.544-.193c-.087-.356-.228-.689-.414-.994l.959-1.231c-.258-.333-.557-.631-.89-.89l-1.232.958c-.305-.186-.638-.328-.994-.414l-.191-1.543c-.209-.026-.414-.064-.63-.064-.216 0-.421.038-.63.064l-.192 1.544c-.357.086-.69.228-.994.414l-1.232-.959c-.333.259-.632.557-.889.89l.89 1.142.573.072.205 1.653.316-.246c.196-.899.995-1.574 1.953-1.574 1.104 0 2 .896 2 2 0 .958-.674 1.756-1.572 1.952l-.247.316 1.65.207.073.571 1.144.891c.333-.259.632-.557.89-.89l-.959-1.231c.186-.305.327-.637.414-.994l1.543-.191zm-5.543 4.191c-.087.357-.228.689-.414.994l.959 1.232c-.258.333-.557.631-.89.89l-1.231-.959c-.305.186-.638.328-.994.414l-.193 1.545c-.209.025-.414.062-.63.062l-.63-.063-.192-1.545c-.356-.086-.689-.228-.994-.414l-1.231.959c-.333-.259-.632-.557-.89-.89l.959-1.232c-.187-.305-.327-.637-.414-.994l-1.544-.191c-.027-.208-.064-.413-.064-.63 0-.215.037-.42.063-.629l1.544-.193c.087-.356.228-.689.414-.994l-.958-1.231c.258-.333.557-.631.89-.89l1.231.958c.305-.186.638-.328.994-.414l.192-1.543c.209-.026.414-.064.63-.064l.63.063.192 1.544c.356.086.689.228.994.414l1.231-.958c.333.259.632.556.89.89l-.958 1.231c.187.305.327.638.414.994l1.544.193c.026.209.063.414.063.629 0 .217-.037.422-.064.631l-1.543.191zm-1.393-.822c0-1.104-.896-2-2-2s-2 .896-2 2c0 1.106.896 2 2 2s2-.894 2-2zm-2-1c-.553 0-1 .448-1 1 0 .553.447 1 1 1s1-.447 1-1c0-.552-.447-1-1-1z" id="iconBg"/><path class="icon-vs-fg" d="M8.048 5.574c.195-.899.994-1.574 1.952-1.574 1.104 0 2 .896 2 2 0 .958-.674 1.756-1.572 1.952l.775-.997-.354-.459c.087-.147.151-.311.151-.496 0-.552-.448-1-1-1-.185 0-.348.064-.496.151l-.456-.354-1 .777zm-2.048 2.426c-1.104 0-2 .896-2 2 0 1.106.896 2 2 2s2-.894 2-2c0-1.104-.896-2-2-2zm0 3c-.552 0-1-.447-1-1 0-.552.448-1 1-1s1 .448 1 1c0 .553-.448 1-1 1z" id="iconFg"/></svg>