<svg xmlns="http://www.w3.org/2000/svg" width="16" height="16"><style type="text/css">.icon-canvas-transparent{opacity:0;fill:#F6F6F6;} .icon-vs-out{fill:#F6F6F6;} .icon-vs-bg{fill:#424242;} .icon-vs-fg{fill:#F0EFF1;} .icon-vs-red{fill:#E51400;} .icon-white{fill:#FFFFFF;}</style><path class="icon-canvas-transparent" d="M16 16h-16v-16h16v16z" id="canvas"/><path class="icon-vs-out" d="M16 2.062v9.438c0 2.481-2.019 4.5-4.5 4.5-1.514 0-2.845-.755-3.655-1.906l-.109.046-.211 1.696-.912.112c-.202.028-.404.052-.613.052s-.412-.024-.614-.052l-.912-.112-.206-1.655-1.316 1.024-.615-.479c-.403-.315-.762-.674-1.066-1.067l-.474-.614 1.022-1.312-1.651-.205-.114-.9c-.029-.207-.054-.413-.054-.628 0-.213.025-.418.054-.624l.115-.9 1.651-.207-1.024-1.313.475-.614c.306-.396.665-.755 1.067-1.067l.614-.477 1.316 1.022.206-1.653.909-.114c.202-.028.406-.053.617-.053v-2c0-1.299 1.03-2 2-2h5.547l2.453 2.062z" id="outline"/><path class="icon-vs-bg" d="M9.937 6.953l-.404.519c-.727.357-1.349.892-1.791 1.564-.342-.614-.989-1.036-1.742-1.036-1.105 0-2 .896-2 2 0 1.103.895 2 2 2 .375 0 .722-.109 1.021-.289.025.531.129 1.041.323 1.509-.168.071-.342.129-.522.173l-.192 1.545c-.21.025-.415.062-.63.062l-.63-.063-.192-1.545c-.356-.086-.689-.229-.994-.414l-1.231.959c-.333-.26-.632-.557-.89-.891l.959-1.23c-.187-.305-.328-.637-.414-.994l-1.544-.191c-.027-.209-.064-.414-.064-.631 0-.215.037-.42.063-.629l1.544-.193c.086-.356.228-.689.414-.994l-.959-1.231c.258-.333.557-.631.89-.89l1.231.958c.305-.186.638-.328.994-.414l.193-1.543c.209-.026.414-.064.63-.064l.63.063.192 1.544c.356.086.689.228.994.414l1.231-.958c.333.259.632.557.89.89zm-4.937 3.047c0 .553.447 1 1 1s1-.447 1-1c0-.553-.447-1-1-1s-1 .447-1 1zm10-6.884l-2.375-2.116h-4.661s-.941 0-.941 1v2.104l.502.063.206 1.653.292-.227v-3.593h4v2h2v3.777c.375.255.695.578.977.932v-5.593z" id="iconBg"/><path class="icon-vs-fg" d="M9.047 4.797l-1.047.814v-3.611h4v1.96l2 .036v3.766c-1-.48-1.575-.762-2.5-.762l-.36.036.063-.081-.475-.614c-.306-.396-.665-.755-1.067-1.067l-.614-.477zm-2.047 6.703l.021.211c-.3.18-.646.289-1.021.289-1.104 0-2-.894-2-2 0-1.104.896-2 2-2 .752 0 1.4.421 1.742 1.036-.467.709-.742 1.554-.742 2.464zm0-1.5c0-.553-.447-1-1-1s-1 .447-1 1c0 .553.447 1 1 1s1-.447 1-1z" id="iconFg"/><path class="icon-vs-red" d="M11.5 8c-1.933 0-3.5 1.567-3.5 3.5s1.567 3.5 3.5 3.5 3.5-1.567 3.5-3.5-1.568-3.5-3.5-3.5zm1.853 4.646l-.707.707-1.146-1.146-1.146 1.147-.707-.707 1.147-1.146-1.147-1.146.707-.707 1.146 1.147 1.146-1.147.707.707-1.146 1.145 1.146 1.146z" id="notificationBg"/><path class="icon-white" d="M12.207 11.5l1.147 1.146-.707.707-1.147-1.146-1.146 1.147-.707-.707 1.147-1.146-1.147-1.146.707-.707 1.146 1.147 1.146-1.147.707.707-1.146 1.145z" id="notificationFg"/></svg>