<svg xmlns="http://www.w3.org/2000/svg" viewBox="0 0 16 16"><style>.icon-canvas-transparent{opacity:0;fill:#f6f6f6}.icon-vs-out{fill:#f6f6f6}.icon-vs-bg{fill:#424242}</style><path class="icon-canvas-transparent" d="M16 16H0V0h16v16z" id="canvas"/><path class="icon-vs-out" d="M5.6 16l-.3-1.6-1.4 1L.7 12l1-1.4-1.7-.2V5.6l1.6-.3L.7 4 4 .7l1.4 1L5.6 0h4.7l.3 1.6 1.4-1L15.3 4l-1 1.4 1.7.2v4.7l-1.6.3 1 1.4-3.4 3.3-1.4-1-.2 1.7H5.6z" id="outline"/><g id="iconBg"><path class="icon-vs-bg" d="M9.5 15h-3l-.3-2.1c-.1 0-.1 0-.2-.1-.1 0-.1 0-.1-.1L4.1 14 2 11.9l1.2-1.7c0-.1-.1-.2-.1-.3L1 9.5v-3l2.1-.3c0-.1 0-.1.1-.2 0-.1 0-.1.1-.1L2 4.1 4.1 2l1.7 1.2c.1 0 .2-.1.3-.1L6.5 1h3l.3 2.1s.1 0 .2.1c.1 0 .1 0 .1.1L11.9 2 14 4.1l-1.2 1.7c0 .1.1.2.1.3l2.1.4v3l-2.1.3c0 .1 0 .1-.1.2 0 .1 0 .1-.1.1l1.2 1.7-2 2.2-1.7-1.2c-.1 0-.2.1-.3.1L9.5 15zm-2.1-1h1.3l.3-1.9.3-.1c.2-.1.5-.2.7-.3l.3-.1 1.5 1.1.9-.9-1.1-1.5.1-.3c0-.1.1-.1.1-.2s.1-.1.1-.2 0-.1.1-.2v-.2l.1-.2 1.9-.4V7.4L12.1 7l-.1-.3c0-.2-.1-.4-.3-.7l-.1-.3 1.1-1.5-.9-.9-1.5 1.1-.3-.1c-.1 0-.1-.1-.2-.1s-.1-.1-.2-.1c0 0-.1-.1-.2-.1h-.1L9 3.9 8.6 2H7.4L7 3.9l-.3.1c-.2 0-.4.1-.7.3l-.2.1-1.6-1.1-.9.9 1.1 1.5-.1.3c0 .1-.1.1-.1.2s-.1.1-.1.2 0 .1-.1.2v.2l-.1.2-1.9.4v1.3l1.9.3.1.3c0 .2.1.4.3.7l.1.3-1.1 1.5.9.9 1.5-1.1.3.1c.1 0 .1.1.2.1s.1.1.2.1.1 0 .2.1h.2l.2.1.4 1.9zm.6-3.4c-1.4 0-2.6-1.1-2.6-2.6S6.6 5.4 8 5.4s2.6 1.1 2.6 2.6-1.2 2.6-2.6 2.6zm0-4.1c-.8 0-1.5.7-1.5 1.5S7.2 9.5 8 9.5 9.5 8.8 9.5 8 8.8 6.5 8 6.5z"/></g></svg>