<svg xmlns="http://www.w3.org/2000/svg" viewBox="0 0 16 16"><style>.icon-canvas-transparent{opacity:0;fill:#f6f6f6}.icon-vs-out{fill:#f6f6f6}.icon-vs-bg{fill:#424242}</style><path class="icon-canvas-transparent" d="M16 16H0V0h16v16z" id="canvas"/><path class="icon-vs-out" d="M6.153 15l-.302-1.811-1.495 1.066-2.612-2.611 1.067-1.495L1 9.848V6.153l1.812-.302-1.068-1.495 2.613-2.612 1.494 1.067L6.153 1h3.694l.303 1.812 1.493-1.067 2.614 2.613-1.068 1.494L15 6.153v3.694l-1.811.303 1.066 1.493-2.611 2.614-1.495-1.068L9.848 15H6.153z" id="outline"/><path class="icon-vs-bg" d="M9.684 3.935c-.125-.052-.254-.075-.38-.114L9 2H7l-.303 1.818c-.253.079-.498.18-.732.303l-1.5-1.071L3.05 4.464l1.073 1.502c-.062.118-.136.225-.188.35-.052.125-.075.254-.114.38L2 7v2l1.818.303c.079.253.18.498.303.732l-1.071 1.5 1.414 1.414 1.502-1.073c.118.062.225.136.35.188.125.052.253.075.38.114L7 14h2l.303-1.818c.253-.079.498-.18.732-.303l1.5 1.071 1.414-1.414-1.073-1.502c.062-.118.136-.225.188-.35.052-.125.075-.253.114-.38L14 9V7l-1.818-.303a4.375 4.375 0 0 0-.303-.732l1.071-1.5-1.414-1.415-1.502 1.073c-.118-.062-.225-.136-.35-.188zM9.896 8a1.896 1.896 0 1 1-3.792 0 1.896 1.896 0 0 1 3.792 0z" id="iconBg"/></svg>