<svg xmlns="http://www.w3.org/2000/svg" width="16" height="16"><style type="text/css">.icon-canvas-transparent{opacity:0;fill:#F6F6F6;} .icon-vs-out{fill:#F6F6F6;} .icon-vs-bg{fill:#424242;} .icon-vs-fg{fill:#F0EFF1;} .icon-vs-red{fill:#E51400;} .icon-white{fill:#FFFFFF;}</style><path class="icon-canvas-transparent" d="M16 16h-16v-16h16v16z" id="canvas"/><path class="icon-vs-out" d="M14.56 8.22c.88.822 1.44 1.983 1.44 3.28 0 2.481-2.019 4.5-4.5 4.5-1.296 0-2.456-.559-3.278-1.438l-.49-.382-.206 1.655-.912.112c-.203.029-.404.053-.614.053s-.411-.024-.613-.052l-.912-.112-.206-1.655-1.315 1.023-.614-.477c-.401-.312-.76-.671-1.067-1.067l-.475-.614 1.022-1.314-1.65-.205-.115-.9c-.03-.206-.055-.412-.055-.627 0-.213.025-.418.054-.624l.115-.9 1.65-.207-1.022-1.313.475-.614c.306-.396.665-.755 1.067-1.067l.613-.477 1.079.839.022-.26.115-.9.272-.036.034-.274.908-.114.252-.021-.837-1.076.475-.614c.306-.396.665-.755 1.067-1.067l.613-.477 1.317 1.022.206-1.653.908-.114c.203-.028.406-.053.617-.053.211 0 .414.025.617.053l.908.114.206 1.653 1.317-1.023.613.477c.402.313.762.671 1.067 1.067l.475.614-1.022 1.313 1.65.207.115.9c.029.207.054.412.054.625 0 .215-.025.421-.054.627l-.115.9-1.65.205.379.488z" id="outline"/><path class="icon-vs-bg" d="M9.503 5.151c.148-.088.312-.151.497-.151.553 0 1 .448 1 1 0 .185-.064.349-.151.497l-.12-.156c-.306-.396-.665-.755-1.067-1.067l-.159-.123zm-1.772.669l.316-.246c.196-.899.995-1.574 1.953-1.574 1.104 0 2 .896 2 2 0 .375-.106.723-.284 1.022.529.025 1.038.129 1.504.323.07-.167.129-.342.173-.522l1.544-.191c.026-.21.063-.415.063-.632 0-.215-.037-.42-.064-.629l-1.544-.193c-.087-.356-.228-.689-.414-.994l.959-1.231c-.258-.333-.557-.631-.89-.89l-1.232.958c-.305-.186-.638-.328-.994-.414l-.191-1.543c-.209-.026-.414-.064-.63-.064-.216 0-.421.038-.63.064l-.192 1.544c-.357.086-.69.228-.994.414l-1.232-.959c-.333.259-.632.557-.889.89l.89 1.142.573.072.205 1.653zm-.71 5.891c-.299.18-.646.289-1.021.289-1.104 0-2-.894-2-2 0-1.104.896-2 2-2 .753 0 1.401.421 1.742 1.036.442-.672 1.064-1.208 1.791-1.564l.404-.519c-.257-.333-.556-.631-.889-.89l-1.232.959c-.304-.186-.637-.328-.994-.414l-.192-1.544c-.209-.026-.414-.064-.63-.064l-.63.064-.192 1.544c-.357.086-.69.228-.994.414l-1.232-.959c-.333.259-.632.557-.889.89l.959 1.231c-.187.305-.328.638-.415.994l-1.544.193c-.026.209-.063.414-.063.629 0 .217.037.422.063.631l1.544.191c.087.357.228.689.414.994l-.959 1.232c.258.333.557.631.89.89l1.231-.959c.305.186.638.328.994.414l.192 1.545c.21.025.415.062.631.062l.63-.063.192-1.545c.181-.044.355-.102.522-.173-.193-.466-.298-.977-.323-1.508zm-1.021-2.711c-.553 0-1 .448-1 1 0 .553.447 1 1 1s1-.447 1-1c0-.552-.447-1-1-1z" id="iconBg"/><path class="icon-vs-fg" d="M9.048 4.797l-1 .777c.195-.899.994-1.574 1.952-1.574 1.104 0 2 .896 2 2 0 .375-.106.723-.284 1.022l-.216-.022-.359.036.063-.081-.354-.459c.086-.147.15-.311.15-.496 0-.552-.448-1-1-1-.185 0-.348.064-.496.151l-.456-.354zm-2.027 6.914c-.3.18-.646.289-1.021.289-1.104 0-2-.895-2-2 0-1.104.896-2 2-2 .752 0 1.4.42 1.741 1.034-.466.709-.741 1.555-.741 2.466l.021.211zm-.021-1.711c0-.552-.448-1-1-1s-1 .448-1 1c0 .553.448 1 1 1s1-.447 1-1z" id="iconFg"/><path class="icon-vs-red" d="M11.5 8c-1.933 0-3.5 1.567-3.5 3.5s1.567 3.5 3.5 3.5 3.5-1.567 3.5-3.5-1.567-3.5-3.5-3.5zm1.854 4.646l-.707.707-1.147-1.146-1.146 1.147-.707-.707 1.147-1.146-1.147-1.146.707-.707 1.146 1.147 1.146-1.147.707.707-1.146 1.145 1.147 1.146z" id="notificationBg"/><path class="icon-white" d="M12.207 11.5l1.147 1.146-.707.707-1.147-1.146-1.146 1.147-.707-.707 1.147-1.146-1.147-1.146.707-.707 1.146 1.147 1.146-1.147.707.707-1.146 1.145z" id="notificationFg"/></svg>