<svg xmlns="http://www.w3.org/2000/svg" width="16" height="16"><style type="text/css">.icon-canvas-transparent{opacity:0;fill:#F6F6F6;} .icon-vs-out{fill:#F6F6F6;} .icon-vs-bg{fill:#424242;} .icon-vs-fg{fill:#F0EFF1;}</style><path class="icon-canvas-transparent" d="M16 16h-16v-16h16v16z" id="canvas"/><path class="icon-vs-out" d="M15.55 13.374c-.249.285-.714.626-1.504.626h-5.066l-.039.05c-.257.332-.557.632-.89.891l-.614.477-.897-.699-.139 1.123-.77.1c-.272.037-.448.058-.631.058s-.359-.021-.536-.046l-.769-.099-.191-.783-.044-.353-.897.698-.615-.477c-.333-.259-.632-.559-.89-.891l-.475-.614.698-.896-1.123-.139-.099-.769c-.038-.272-.059-.447-.059-.631s.021-.359.046-.535l.099-.769.782-.191.354-.045-.698-.897.476-.614c.257-.331.557-.63.89-.889l.615-.477.897.699.142-1.126.397-.051v-4.077c0-1.364 1.102-1.958 1.844-2.024l6.214-.004 3.942 3.556v8.371c0 .261.014.913-.45 1.447z" id="outline"/><path class="icon-vs-bg" d="M14.046 13h-4.969l-.358-.46.354-.044.782-.191.04-.305h4.105v-7h-3v-3h-5v4.104l-.471-.06c-.173-.023-.349-.044-.529-.044v-3.972c0-.944.929-1.028.929-1.028h5.741l3.33 3v7.976s.138 1.024-.954 1.024zm-6.332-1.342c-.068.285-.182.551-.331.795l.768.984c-.207.268-.445.506-.712.713l-.985-.768c-.243.148-.51.262-.796.331l-.153 1.235c-.168.023-.332.052-.505.052l-.504-.051-.153-1.235c-.286-.069-.553-.183-.796-.331l-.985.767c-.267-.207-.505-.445-.712-.713l.768-.984c-.149-.244-.263-.51-.331-.795l-1.235-.154c-.023-.167-.052-.331-.052-.504l.051-.504 1.235-.154c.068-.285.182-.551.331-.795l-.767-.985c.207-.267.445-.505.712-.712l.985.767c.243-.149.51-.262.796-.331l.153-1.235c.167-.021.331-.051.504-.051l.504.051.153 1.235c.286.069.553.182.796.331l.985-.767c.267.207.505.445.712.712l-.767.985c.149.244.263.51.331.795l1.235.154c.022.167.051.331.051.504l-.051.504-1.235.154zm-.714-.658c0-1.104-.896-2-2-2s-2 .896-2 2 .896 2 2 2 2-.896 2-2zm-2 1c.552 0 1-.447 1-1s-.448-1-1-1-1 .447-1 1 .448 1 1 1z" id="iconBg"/><path class="icon-vs-fg" d="M14 5v7h-4.106l.06-.465c.025-.176.046-.351.046-.535s-.021-.359-.059-.632l-.099-.768-1.123-.14.698-.896-.476-.615c-.257-.331-.556-.63-.889-.889l-.614-.477-.897.699-.141-1.126-.4-.051v-4.105h5v3h3zm-9 8c1.104 0 2-.896 2-2s-.896-2-2-2-2 .896-2 2 .896 2 2 2zm0-3c.552 0 1 .447 1 1s-.448 1-1 1-1-.447-1-1 .448-1 1-1z" id="iconFg"/></svg>