<svg xmlns="http://www.w3.org/2000/svg" width="16" height="16"><style type="text/css">.icon-canvas-transparent{opacity:0;fill:#F6F6F6;} .icon-vs-out{fill:#F6F6F6;} .icon-vs-bg{fill:#424242;} .icon-vs-fg{fill:#F0EFF1;}</style><path class="icon-canvas-transparent" d="M16 16h-16v-16h16v16z" id="canvas"/><path class="icon-vs-out" d="M10.005 14l-1.778 2h-8.227v-7h4.09c-.055-.326-.09-.659-.09-1 0-2.968 2.166-5.439 5-5.917v-2.083h1.362l4.2 3.5-.6.5h1.156l-.5 1h.613l.263.599c.336.766.506 1.575.506 2.401 0 3.307-2.689 5.997-5.995 6z" id="outline"/><path class="icon-vs-bg" d="M5.101 9c-.066-.323-.101-.657-.101-1 0-2.761 2.238-5 5-5v-2l3 2.5-3 2.5v-2c-2.209 0-4 1.791-4 4 0 .348.058.679.142 1h-1.041zm6.899-4l-2 4-.5-1h-1.5l.852 1.703 1.153 1.297h.495l3-6h-1.5zm2.578 1h-.46l-.353.706c.145.405.235.837.235 1.294 0 1.929-1.365 3.537-3.182 3.915l.519.585-.357.401c2.293-.456 4.02-2.475 4.02-4.901 0-.712-.153-1.387-.422-2zm-4.578 6.5l-2.223 2.5h-6.777v-5h6.777l2.223 2.5zm-2 0c0-.276-.224-.5-.5-.5s-.5.224-.5.5.224.5.5.5.5-.224.5-.5z" id="iconBg"/><path class="icon-vs-fg" d="M8 12.5c0 .276-.224.5-.5.5s-.5-.224-.5-.5.224-.5.5-.5.5.224.5.5z" id="iconFg"/></svg>