<svg xmlns="http://www.w3.org/2000/svg" width="16" height="16"><style type="text/css">.icon-canvas-transparent{opacity:0;fill:#F6F6F6;} .icon-vs-out{fill:#F6F6F6;} .icon-vs-bg{fill:#424242;} .icon-vs-fg{fill:#F0EFF1;} .icon-vs-action-blue{fill:#00539C;}</style><path class="icon-canvas-transparent" d="M16 16h-16v-16h16v16z" id="canvas"/><path class="icon-vs-out" d="M1 8v-3.427c-.611-.48-1-1.253-1-2.073 0-1.378 1.122-2.5 2.5-2.5.994 0 1.848.588 2.25 1.43.363-.279.811-.43 1.25-.43h6.061l3.939 3.556v8.444c0 .97-.701 2-2 2h-7.586l-1 1h-4.828l2-2h-2.586v-4h2.586l-1-1h-.586v-1z" id="outline"/><path class="icon-vs-bg" d="M15 5v8s-.035 1-1.035 1h-6.551l1-1h5.586v-7h-3v-3h-5v5.586l-.586-.586h-.414v-5c0-1 .964-1 .964-1h5.677l3.359 3zm-12 0h1v1h-1v1h1v1h-2v-4c-.581-.207-1-.848-1-1.5 0-.828.672-1.5 1.5-1.5s1.5.672 1.5 1.5c0 .652-.419 1.293-1 1.5v1zm0-2v-1h-1v1h1z" id="iconBg"/><path class="icon-vs-fg" d="M14 6v7h-5.586l1-1-3.414-3.414v-5.586h5v3h3z" id="iconFg"/><path class="icon-vs-action-blue" d="M8 12l-3 3h-2l2-2h-4v-2h4l-2-2h2l3 3z" id="colorAction"/></svg>