<svg xmlns="http://www.w3.org/2000/svg" width="16" height="16"><style type="text/css">.icon-canvas-transparent{opacity:0;fill:#F6F6F6;} .icon-vs-out{fill:#F6F6F6;} .icon-vs-bg{fill:#424242;} .icon-vs-fg{fill:#F0EFF1;}</style><path class="icon-canvas-transparent" d="M16 16h-16v-16h16v16z" id="canvas"/><path class="icon-vs-out" d="M12.648 12h2v3h-3v1h-4v-1h-.648v1h-7v-6.065l.008-.064c.221-1.69 1.657-2.871 3.492-2.871l.054.004-.027-.209c-.016-.175-.027-.356-.027-.54 0-3.446 2.804-6.25 6.25-6.25 3.384 0 6.126 2.652 6.241 6.038l.009.212c0 2.372-1.334 4.468-3.352 5.519v.226z" id="outline"/><path class="icon-vs-bg" d="M15 6.255l-.008-.178c-.096-2.816-2.402-5.072-5.242-5.072-2.899 0-5.25 2.351-5.25 5.25l.022.453.053.398.002.014.01.039c.41.116.782.295 1.107.53l-.078-.215c.598.184 1.283.359 2.058.483.154.786.406 1.588.736 2.397-.563-.185-1.07-.486-1.503-.869l.086.394.007.06v.757c.502.309 1.053.546 1.648.675v.629h-1v1h-.648v1h1.648v1h2v-1h3v-1h-2v-1h-1v-.594c2.468-.43 4.352-2.559 4.352-5.151zm-4.211 4.183c.408-.861.725-1.662.928-2.396.67-.086 1.383-.257 2.164-.551-.434 1.452-1.614 2.579-3.092 2.947zm2.926-5.881c.223.521.348 1.095.348 1.699l-.014.28c-.779.339-1.479.542-2.135.647.082-.459.125-.896.119-1.307-.002-.3-.025-.587-.057-.867.545-.085 1.122-.231 1.739-.452zm-.402-.732c-.516.177-1 .3-1.463.372-.162-.773-.414-1.439-.689-2.013.882.305 1.634.885 2.152 1.641zm-4.111-1.843c.18-.023.362-.039.549-.039l.366.019c.351.608.708 1.384.915 2.33-.427.029-.849.033-1.277.029-.45-.005-.885-.035-1.304-.083.174-.911.463-1.661.751-2.256zm-3.748 4.576l-.016-.303c0-.614.131-1.197.361-1.727.515.152 1.087.296 1.726.405-.032.304-.055.615-.058.943-.005.401.026.812.073 1.228-.806-.147-1.503-.349-2.086-.546zm2.185-2.437c-.518-.091-.993-.205-1.427-.328.485-.697 1.173-1.241 1.976-1.554-.217.543-.416 1.166-.549 1.882zm.737 3.108c-.063-.457-.096-.907-.092-1.345.004-.29.023-.566.051-.836.452.052.922.085 1.412.09l.301.002c.366 0 .737-.012 1.116-.04.029.254.049.513.053.785.004.433-.051.902-.156 1.402-.439.031-.869.037-1.306.034-.477-.005-.936-.04-1.379-.092zm1.449 3.335l-.074.004-.378-.02c-.377-.837-.667-1.668-.846-2.478.393.039.8.064 1.22.068l.301.002c.261 0 .524-.008.79-.021-.228.744-.568 1.559-1.013 2.445zm-7.825-.564h-1c.149-1.146 1.128-2 2.5-2 1.373 0 2.36.854 2.5 2h-1c-.148-.529-.68-1-1.5-1-.845 0-1.36.473-1.5 1zm-1 1h5v4h-5v-4zm2 3h1v-2h-1v2z" id="iconBg"/><path class="icon-vs-fg" d="M11.976 5.009c.545-.085 1.058-.231 1.674-.453.223.521.4 1.095.4 1.699v.28c-.779.339-1.48.542-2.137.647.082-.459.125-.896.119-1.307-.001-.299-.024-.585-.056-.866zm-.816-2.825c.275.574.527 1.24.689 2.013.463-.072.947-.195 1.463-.372-.517-.756-1.269-1.336-2.152-1.641zm-1.335 8.38c.445-.887.785-1.702 1.013-2.445-.265.013-.529.021-.79.021l-.302-.002c-.42-.004-.827-.029-1.22-.068.18.811.469 1.641.846 2.479l.378.02.075-.005zm1.236-3.277c.106-.5.16-.969.156-1.402-.004-.271-.023-.531-.053-.785-.379.028-.749.055-1.116.055h-.302c-.489-.005-.963-.055-1.415-.107-.027.27-.043.546-.047.836-.004.438.003.888.067 1.345.442.052.923.121 1.4.126.437.003.871-.037 1.31-.068zm-1.859-5.305c-.287.595-.577 1.362-.751 2.273.419.048.851.096 1.3.1.428.004.852-.035 1.28-.064-.207-.946-.563-1.722-.913-2.33l-.368-.018c-.186 0-.369.016-.548.039zm-2.99 1.811c.434.123.909.237 1.427.328.133-.715.332-1.339.549-1.881-.803.312-1.49.856-1.976 1.553zm-.758 2.765c.583.197 1.28.398 2.087.545-.048-.415-.079-.826-.074-1.227.003-.328.026-.639.058-.943-.639-.109-1.211-.253-1.726-.404-.23.529-.361 1.112-.361 1.727l.016.302zm8.427.898c-.781.294-1.49.5-2.16.586-.204.734-.561 1.533-.971 2.394 1.48-.368 2.697-1.528 3.131-2.98zm-6.978 2.014c.43.39.936.697 1.506.884-.329-.809-.604-1.611-.759-2.396-.774-.124-1.402-.3-2-.483l.088.245c.574.43.983 1.032 1.165 1.75zm-2.903 2.53h-1v2h1v-2z" id="iconFg"/></svg>