<svg xmlns="http://www.w3.org/2000/svg" width="16" height="16"><style type="text/css">.icon-canvas-transparent{opacity:0;fill:#F6F6F6;} .icon-vs-out{fill:#F6F6F6;} .icon-vs-bg{fill:#424242;} .icon-vs-fg{fill:#F0EFF1;} .icon-vs-action-blue{fill:#00539C;}</style><path class="icon-canvas-transparent" d="M16 16h-16v-16h16v16z" id="canvas"/><path class="icon-vs-out" d="M13.414 15l-1 1h-4.828l1-1h-3.586c-2 0-2-2-2-2v-4h-2v-4.427c-.611-.48-1-1.253-1-2.073 0-1.378 1.122-2.5 2.5-2.5.813 0 1.53.396 1.987 1h6.927l3.586 3.586v6l1 1v.828l-1 1-1.586 1.586z" id="outline"/><path class="icon-vs-bg" d="M10 3h-4.937c-.032-.163-.063-.33-.063-.5 0-.171-.018-.338-.051-.5h6.051l3 3v4l-1-1v-2h-3v-3zm-7 2h1v1h-1v1h1v1h-2v-4c-.581-.207-1-.848-1-1.5 0-.828.672-1.5 1.5-1.5s1.5.672 1.5 1.5c0 .652-.419 1.293-1 1.5v1zm0-2v-1h-1v1h1zm2 10v-4h-1v4s0 1 1 1h2v-1h-2z" id="iconBg"/><path class="icon-vs-fg" d="M7 13h-2v-10h5v3h3v2.586l-.586-.586h-4.828l2 2h-2.586v3z" id="iconFg"/><path class="icon-vs-action-blue" d="M15 12l-3 3h-2l2-2h-4v-2h4l-2-2h2l3 3z" id="colorAction"/></svg>