<svg xmlns="http://www.w3.org/2000/svg" viewBox="0 0 16 16"><style>.st0{opacity:0}.st0,.st1{fill:#f6f6f6}.st2{fill:#424242}.st3{fill:url(#SVGID_1_)}</style><g id="outline"><path class="st0" d="M0 0h16v16H0z"/><path class="st1" d="M16 8a8 8 0 0 1-8 8 7.96 7.96 0 0 1-3-.587V16H2v-2.721c-.081-.091-.163-.183-.239-.279H1v-1.13A8 8 0 1 1 16 8z"/></g><g id="icon_x5F_bg"><path class="st2" d="M15 8a7 7 0 0 1-7 7c-1.075 0-2.09-.25-3-.683v-.586A2 2 0 0 0 6 12v-1c0-1.159-1.051-2-2.5-2-.994 0-1.791.401-2.2 1.024A7 7 0 1 1 15 8zM4 13c.551 0 1-.449 1-1v-1c0-.58-.631-1-1.5-1S2 10.42 2 11v1h1v-1c.08-.044.252-.102.5-.102s.42.058.5.102v1c-.551 0-1 .449-1 1v.5h1V13zm0 2H3v-1h1v1z"/><radialGradient id="SVGID_1_" cx="6.88" cy="5.759" r="6" gradientUnits="userSpaceOnUse"><stop offset="0" stop-color="#fff"/><stop offset="1" stop-color="#424242"/></radialGradient><path class="st3" d="M8 2a6 6 0 0 0-6 6c0 .446.052.879.145 1.297A3.066 3.066 0 0 1 3.5 9C4.949 9 6 9.841 6 11v1c0 .55-.224 1.047-.584 1.409A5.97 5.97 0 0 0 8 14 6 6 0 1 0 8 2z"/></g></svg>