<svg xmlns="http://www.w3.org/2000/svg" width="16" height="16"><style type="text/css">.icon-canvas-transparent{opacity:0;fill:#F6F6F6;} .icon-vs-out{fill:#F6F6F6;} .icon-vs-bg{fill:#424242;} .icon-gradient-shader-1{fill:url(#SVGID_1_);} .icon-gradient-shader-2{fill:url(#SVGID_2_);}</style><radialGradient id="SVGID_1_" cx="0" cy="0" r="1" gradientUnits="userSpaceOnUse"><stop offset="0" stop-color="#fff"/><stop offset="1" stop-color="#424242"/></radialGradient><path class="icon-canvas-transparent" d="M16 16h-16v-16h16v16z" id="canvas"/><path class="icon-vs-out" d="M16 8c0 4.418-3.582 8-8 8s-8-3.582-8-8 3.582-8 8-8 8 3.582 8 8z" id="outline"/><g id="iconBg"><path class="icon-vs-bg" d="M15 8c0 3.866-3.134 7-7 7s-7-3.134-7-7 3.134-7 7-7 7 3.134 7 7z"/><radialGradient id="SVGID_2_" cx="6.88" cy="5.759" r="6" gradientUnits="userSpaceOnUse"><stop offset="0" stop-color="#fff"/><stop offset="1" stop-color="#424242"/></radialGradient><path class="icon-gradient-shader-2" d="M14 8c0 3.314-2.686 6-6 6-3.313 0-6-2.686-6-6 0-3.313 2.687-6 6-6 3.314 0 6 2.687 6 6z"/></g></svg>