<svg xmlns="http://www.w3.org/2000/svg" width="16" height="16"><style type="text/css">.icon-canvas-transparent{opacity:0;fill:#F6F6F6;} .icon-vs-out{fill:#F6F6F6;} .icon-vs-bg{fill:#424242;}</style><path class="icon-canvas-transparent" d="M16 16h-16v-16h16v16z" id="canvas"/><path class="icon-vs-out" d="M16 1.5c0 .323-.109.638-.316.908l-8.808 11.398c-.355 1.261-1.502 2.194-2.876 2.194h-4v-2c.551 0 1-.448 1-1 0-1.443 1.024-2.649 2.384-2.936l2.511-2.403-1.801-1.61-1.172 1.405c-.321.357-.759.544-1.227.544-.453 0-.888-.171-1.194-.469-.316-.306-.5-.738-.501-1.182-.001-.445.175-.866.499-1.184l1.302-1.165-1.268-1.133c-.358-.349-.534-.77-.533-1.216.001-.444.185-.876.503-1.185.304-.295.739-.466 1.191-.466.469 0 .906.188 1.202.514l1.197 1.436 2.181-1.95h1.726v1.362l-2.198 2.639 1.738 2.085 5.99-5.734.076-.05c.21-.138.537-.302.894-.302.827 0 1.5.673 1.5 1.5z" id="outline"/><path class="icon-vs-bg" d="M6 13c0 1.104-.896 2-2 2h-4c1.104 0 2-.896 2-2s.896-2 2-2 2 .896 2 2zm8.5-12c-.135 0-.346.139-.346.139-.469.448-3.495 3.344-6.154 5.891v.97h-1.014l-2.101 2.012.115-.012c1.105 0 2 .896 2 2l-.001.015c2.096-2.71 7.891-10.214 7.891-10.214.065-.085.11-.186.11-.301 0-.276-.224-.5-.5-.5zm-13.3 5.815c.234.229.716.264.955 0l1.833-2.2 2.668 2.385h.344l-2.5-3 2.5-3h-.344l-2.668 2.385-1.833-2.2c-.238-.263-.72-.229-.955 0-.242.234-.29.652 0 .938l2.1 1.877-2.1 1.878c-.29.285-.242.703 0 .937z" id="iconBg"/></svg>