<svg xmlns="http://www.w3.org/2000/svg" width="16" height="16"><style type="text/css">.icon-canvas-transparent{opacity:0;fill:#F6F6F6;} .icon-vs-out{fill:#F6F6F6;} .icon-vs-bg{fill:#424242;} .icon-gradient-shaderothers{fill:url(#SVGID_1_);} .icon-gradient-shaderothers-2{fill:url(#SVGID_2_);}</style><radialGradient id="SVGID_1_" cx="0" cy="0" r="1" gradientUnits="userSpaceOnUse"><stop offset="0" stop-color="#fff"/><stop offset="1" stop-color="#424242"/></radialGradient><path class="icon-canvas-transparent" d="M16 16h-16v-16h16v16z" id="canvas"/><path class="icon-vs-out" d="M16 8c0 4.418-3.582 8-8 8-1.062 0-2.073-.211-3-.587v.587h-3v-2.721l-.239-.279h-.761v-1.13c-.636-1.147-1-2.466-1-3.87 0-4.418 3.582-8 8-8s8 3.582 8 8z" id="outline"/><g id="iconBg"><path class="icon-vs-bg" d="M15 8c0 3.866-3.134 7-7 7-1.075 0-2.09-.25-3-.683v-.586c.597-.345 1-.992 1-1.731v-1c0-1.159-1.051-2-2.5-2-.994 0-1.791.401-2.2 1.024-.194-.64-.3-1.319-.3-2.024 0-3.866 3.134-7 7-7s7 3.134 7 7zm-11 5c.551 0 1-.449 1-1v-1c0-.58-.631-1-1.5-1s-1.5.42-1.5 1v1h1v-1c.08-.044.252-.102.5-.102s.42.058.5.102v1c-.551 0-1 .449-1 1v.5h1v-.5zm0 2h-1v-1h1v1z"/><radialGradient id="SVGID_2_" cx="6.88" cy="5.759" r="6" gradientUnits="userSpaceOnUse"><stop offset="0" stop-color="#fff"/><stop offset="1" stop-color="#424242"/></radialGradient><path class="icon-gradient-shaderothers-2" d="M14 8c0 3.314-2.686 6-6 6-.926 0-1.8-.216-2.584-.591.36-.362.584-.859.584-1.409v-1c0-1.159-1.051-2-2.5-2-.513 0-.972.109-1.355.297-.093-.418-.145-.851-.145-1.297 0-3.313 2.687-6 6-6 3.314 0 6 2.687 6 6z"/></g></svg>