<svg xmlns="http://www.w3.org/2000/svg" width="16" height="16"><style type="text/css">.icon-canvas-transparent{opacity:0;fill:#F6F6F6;} .icon-vs-out{fill:#F6F6F6;} .icon-vs-bg{fill:#424242;} .icon-vs-fg{fill:#F0EFF1;}</style><path class="icon-canvas-transparent" d="M16 16h-16v-16h16v16z" id="canvas"/><path class="icon-vs-out" d="M16 8c0 4.418-3.582 8-8 8s-8-3.582-8-8 3.582-8 8-8 8 3.582 8 8z" id="outline"/><path class="icon-vs-bg" d="M15 8c0 3.866-3.134 7-7 7s-7-3.134-7-7 3.134-7 7-7 7 3.134 7 7zm-7-5c-2.761 0-5 2.239-5 5 0 2.762 2.239 5 5 5 2.762 0 5-2.238 5-5 0-2.761-2.238-5-5-5z" id="iconBg"/><path class="icon-vs-fg" d="M13 8c0 2.762-2.238 5-5 5-2.761 0-5-2.238-5-5 0-2.761 2.239-5 5-5 2.762 0 5 2.239 5 5z" id="iconFg"/></svg>