<svg xmlns="http://www.w3.org/2000/svg" width="16" height="16"><style type="text/css">.icon-canvas-transparent{opacity:0;fill:#F6F6F6;} .icon-vs-out{fill:#F6F6F6;} .icon-vs-bg{fill:#424242;} .icon-vs-fg{fill:#F0EFF1;}</style><path class="icon-canvas-transparent" d="M16 16h-16v-16h16v16z" id="canvas"/><path class="icon-vs-out" d="M16 3.556v8.444c0 .97-.701 2-2 2h-4.937v1.938h-9v-9h3.937v-4.938c0-1.299 1.03-2 2-2h6.061l3.939 3.556z" id="outline"/><path class="icon-vs-bg" d="M15 4v8s-.035 1-1.035 1h-4.902v-1h4.937v-7h-3v-3h-5v4.938h-1v-4.938c0-1 .964-1 .964-1h5.677l3.359 3zm-4 4v1h2v-1h-2zm-4-1h1v-1h-1v1zm3-1h-1v1h1v-1zm-1 3h1v-1h-1v1zm-8-1h7v7h-7v-7zm1 6h5v-5h-5v5zm2-4l-1 1h1.5l-1.5 1.5.5.5 1.5-1.5v1.5l1-1v-2h-2z" id="iconBg"/><path class="icon-vs-fg" d="M2 9v5h5v-5h-5zm4 3l-1 1v-1.5l-1.5 1.5-.5-.5 1.5-1.5h-1.5l1-1h2v2zm5-7v-3h-5v4.938h1v-.938h1v.938h1v-.938h1v1h-.937v1h.937v1h-.937v3h4.937v-7h-3zm2 4h-2v-1h2v1z" id="iconFg"/></svg>