<svg xmlns="http://www.w3.org/2000/svg" viewBox="0 0 16 16"><style>.icon-canvas-transparent{opacity:0;fill:#f6f6f6}.icon-vs-out{fill:#f6f6f6}.icon-vs-bg{fill:#424242}.icon-vs-fg{fill:#f0eff1}.icon-vs-blue{fill:#1ba1e2}</style><path class="icon-canvas-transparent" d="M16 0v16H0V0h16z" id="canvas"/><path class="icon-vs-out" d="M16 3.25v9.5c0 .654-.296 1.866-2.274 2.635-1.02.396-2.343.615-3.726.615H0V6h4V3.25c0-.654.295-1.866 2.274-2.636C7.292.218 8.616 0 10 0s2.707.218 3.726.614C15.704 1.384 16 2.596 16 3.25z" id="outline"/><g id="iconBg"><path class="icon-vs-blue" d="M13.363 1.547C12.457 1.194 11.263 1 10 1s-2.457.194-3.363.547C5.581 1.957 5 2.562 5 3.25V6h5v9c1.263 0 2.457-.194 3.363-.547C14.419 14.043 15 13.438 15 12.75v-9.5c0-.688-.581-1.293-1.637-1.703zM10 4.5c-2.588 0-4-.826-4-1.25S7.412 2 10 2s4 .826 4 1.25-1.412 1.25-4 1.25z"/><path class="icon-vs-bg" d="M2.646 12.646L5.293 10H3V9h4v4H6v-2.293l-2.646 2.646-.708-.707zM9 7v8H1V7h8zM8 8H2v6h6V8z"/></g><g id="iconFg"><path class="icon-vs-fg" d="M14 3.25c0 .424-1.412 1.25-4 1.25s-4-.826-4-1.25S7.412 2 10 2s4 .826 4 1.25z"/></g></svg>