<svg xmlns="http://www.w3.org/2000/svg" viewBox="0 0 16 16"><style>.st0{opacity:0}.st0,.st1{fill:#f6f6f6}.st2{fill:#424242}.st3{fill:#f0eff1}</style><g id="outline"><path class="st0" d="M0 0h16v16H0z"/><path class="st1" d="M14.414 7h-2l-1-1H10V0H0v9h3v5.414L4.586 16h9.828L16 14.414V8.586z"/></g><g id="icon_x5F_bg"><path class="st2" d="M14 8h-2l-1-1h-1v2h-.5a2.5 2.5 0 1 1 0 5 2.5 2.5 0 0 1 0-5H4v5l1 1h9l1-1V9l-1-1zm0 2h-1V9h1v1z"/><circle class="st2" cx="9.5" cy="11.5" r="1.5"/><path class="st2" d="M9 1H1v7h8V1zM8 3.616V7H2V3.545L4.414 6h1.208l.998-1L8 3.51v.106zM5 5L2 2h6L5 5z"/></g><path class="st3" d="M9.5 9a2.5 2.5 0 1 0 0 5 2.5 2.5 0 0 0 0-5zm0 4a1.5 1.5 0 1 1 .001-3.001A1.5 1.5 0 0 1 9.5 13zM14 9v1h-1V9h1zM5 5L2 2h6L5 5zm3 2H2V3.545L4.414 6h1.208L8 3.616V7z" id="icon_x5F_fg"/></svg>