<svg xmlns="http://www.w3.org/2000/svg" width="16" height="16"><style type="text/css">.icon-canvas-transparent{opacity:0;fill:#F6F6F6;} .icon-vs-out{fill:#F6F6F6;} .icon-vs-bg{fill:#424242;}</style><path class="icon-canvas-transparent" d="M16 16h-16v-16h16v16z" id="canvas"/><path class="icon-vs-out" d="M14.404 3.552l-.426-.517.022-.212c0-1.557-1.267-2.823-2.823-2.823-.832 0-1.617.377-2.147 1h-.03c-2.485 0-4.806 1.341-6.057 3.5l-.51.881c-.851.487-1.433 1.392-1.433 2.441 0 1.008.543 1.927 1.395 2.426.839 2.472 2.979 4.281 5.572 4.665l.736.109c.518.594 1.271.978 2.119.978 1.542 0 2.799-1.242 2.823-2.778 1.503-1.33 2.355-3.204 2.355-5.222 0-1.62-.566-3.199-1.596-4.448zm-2.394 7.063c-.367-.17-.771-.26-1.188-.26-1.094 0-2.034.632-2.502 1.544l-.096-.019c-1.115-.224-2.073-.907-2.646-1.853.659-.521 1.068-1.325 1.068-2.205 0-.829-.366-1.568-.937-2.084.679-.984 1.747-1.61 2.919-1.72.452.969 1.43 1.627 2.549 1.627.319 0 .621-.065.907-.163l.086.113c.543.712.83 1.544.83 2.405 0 .971-.354 1.893-.99 2.615z" id="outline"/><path class="icon-vs-bg" d="M12.601 12.785c.028.127.045.258.045.392 0 1.006-.816 1.822-1.823 1.822-1.007.001-1.823-.815-1.823-1.821 0-1.007.816-1.822 1.822-1.822.505 0 .962.205 1.292.537 1.146-.916 1.886-2.316 1.886-3.893 0-1.135-.394-2.171-1.035-3.012.271-.223.496-.493.668-.801.853 1.037 1.367 2.365 1.367 3.813 0 1.959-.947 3.69-2.399 4.785zm-1.424-11.785c-.724 0-1.345.426-1.639 1.039-.179-.017-.355-.039-.538-.039-2.22 0-4.153 1.209-5.191 3.001l.013-.001c.366 0 .714.075 1.036.203.9-1.328 2.42-2.203 4.142-2.203l.375.028c.104.908.866 1.617 1.802 1.617 1.007 0 1.823-.816 1.823-1.822 0-1.007-.816-1.823-1.823-1.823zm-3.064 12.924c-.066-.239-.113-.486-.113-.746l.027-.317c-1.761-.353-3.188-1.614-3.756-3.278.788-.201 1.374-.91 1.374-1.76.001-1.008-.816-1.823-1.823-1.823-1.006 0-1.822.815-1.822 1.822 0 .795.513 1.464 1.224 1.713.607 2.283 2.51 4.036 4.889 4.389z" id="iconBg"/></svg>