<svg xmlns="http://www.w3.org/2000/svg" viewBox="0 0 16 16"><style>.st0{opacity:0}.st0,.st1{fill:#f6f6f6}.st2{fill:#424242}.st3{fill:#00539c}.st4{fill:#f0eff1}</style><g id="outline"><path class="st0" d="M0 0h16v16H0z"/><path class="st1" d="M12 8V4.586l-4-4-4 4V8H2v7h13V8z"/></g><path class="st2" d="M3 9h1v1H3V9zm2 1h1V9H5v1zm2 0h1V9H7v1zm2 0h1V9H9v1zm2 0h1V9h-1v1zm-8 2h1v-1H3v1zm10 0h1v-1h-1v1zM3 14h1v-1H3v1zm2 0h1v-1H5v1zm2 0h1v-1H7v1zm2 0h1v-1H9v1zm2 0h1v-1h-1v1zm2-5v1h1V9h-1zm0 5h1v-1h-1v1z" id="icon_x5F_bg"/><path class="st3" d="M7 5L5 7V5l3-3 3 3v2L9 5v3H7V5z" id="color_x5F_importance"/><path class="st4" d="M13 10v3H4v-3h9z" id="icon_x5F_fg"/></svg>