<svg xmlns="http://www.w3.org/2000/svg" viewBox="0 0 16 16"><style>.icon-canvas-transparent{opacity:0;fill:#f6f6f6}.icon-vs-out{fill:#f6f6f6}.icon-vs-bg{fill:#424242}.icon-vs-fg{fill:#f0eff1}</style><path class="icon-canvas-transparent" d="M16 16H0V0h16v16z" id="canvas"/><path class="icon-vs-out" d="M4.663 16C3.145 16 2 14.796 2 13.2V3h2.055c.292-1.727 1.7-3 3.445-3 .509 0 1 .106 1.447.311a3.614 3.614 0 0 1 1.386-.278A3.674 3.674 0 0 1 13.933 3H15v10.2c0 1.675-1.005 2.8-2.5 2.8H4.663zm8.349-2.64z" id="outline"/><path class="icon-vs-fg" d="M4.663 14c-.49 0-.663-.431-.663-.8V5h7v8.2c0 .299.042.567.12.8H4.663zM13 13.2c0 .8-.363.8-.5.8s-.5 0-.5-.8V5h1v8.2z" id="iconFg"/><path class="icon-vs-bg" d="M13 4v-.3a2.67 2.67 0 0 0-2.667-2.667c-.508 0-.989.147-1.411.414A2.42 2.42 0 0 0 7.5 1C6.03 1 5 2.196 5 3.667V4H3v9.2c0 1.043.699 1.8 1.663 1.8H12.5c.925 0 1.5-.689 1.5-1.8V4h-1zm-1-.3V4h-2v-.333c0-.535-.139-1.031-.383-1.449a1.63 1.63 0 0 1 .716-.184A1.668 1.668 0 0 1 12 3.7zm-6-.033C6 2.748 6.581 2 7.5 2S9 2.748 9 3.667V4H6v-.333zM4.663 14c-.49 0-.663-.431-.663-.8V5h7v8.2c0 .299.042.567.12.8H4.663zM13 13.2c0 .8-.363.8-.5.8s-.5 0-.5-.8V5h1v8.2z" id="iconBg"/></svg>