<svg xmlns="http://www.w3.org/2000/svg" viewBox="0 0 16 16"><style>.st0{opacity:0;fill:#f6f6f6}.st1{fill:#f0eff1}.st2{fill:#f6f6f6}.st3{fill:#fff}.st4{fill:#1ba1e2}</style><g id="outline"><path class="st0" d="M0 0h16v16H0z"/><path class="st1" d="M14 14H9V9h5v5z"/><path class="st2" d="M16 16H7V7h9v9z"/></g><g id="icon_x5F_bg"><path class="st3" d="M9 9h5v5H9z"/><path class="st4" d="M13 10v3h-1v-1.293l-1.535 1.535-.707-.707L11.293 11H10v-1h3zm2-2v7H8V8h7zm-1 1H9v5h5V9z"/></g><path class="st1" d="M9 9v5h5V9H9zm4 4h-1v-1.293l-1.535 1.535-.707-.707L11.293 11H10v-1h3v3z" id="icon_x5F_fg"/></svg>