<svg xmlns="http://www.w3.org/2000/svg" viewBox="0 0 16 16"><style>.st0{opacity:0}.st0,.st1{fill:#f6f6f6}.st2{fill:#424242}.st3{fill:#f0eff1}</style><g id="outline"><path class="st0" d="M0 0h16v16H0z"/><path class="st1" d="M13.029 2H3.018C2.048 2 1 2.738 1 4.037v6C1 11.336 2.048 12 3.019 12H3v.821C3 14.12 4.063 15 5.033 15h5C11.332 15 12 13.79 12 12.821V12h1c1.299 0 2-1.03 2-2V4.348L13.029 2z"/></g><g id="icon_x5F_bg"><path class="st2" d="M12.313 3H8.856l.84 1H12v1h1v5h-1v1h.964c1 0 1.036-1 1.036-1V5.137L12.313 3zM3 7V4h4v1h1.882L7.331 3h-4.35S2 3.037 2 4.037v6c0 1 .982.963.982.963H3V7zM6 10h3v1H6z"/><path class="st2" d="M9.313 6h-4.35S4 6 4 7v6c0 1 .964 1 .964 1h5c1 0 1.036-1 1.036-1V8.137L9.313 6zM10 10v3H5V7h4v1h1v2z"/><path class="st2" d="M6 8h2v1H6z"/></g><g id="icon_x5F_fg"><path class="st3" d="M12 5V4H9.372l1.551 2h-.054l.839 1H12v3h1V5zM9 8V7H5v6h5V8H9zM6 8h2v1H6V8zm3 3H6v-1h3v1zM7 5V4H3v3s0-2 2-2h2z"/></g></svg>