<svg xmlns="http://www.w3.org/2000/svg" viewBox="0 0 16 16"><style>.st0{opacity:0}.st0,.st1{fill:#f6f6f6}.st2{fill:#424242}.st3{fill:#f0eff1}</style><g id="outline"><path class="st0" d="M0 0h16v16H0z"/><path class="st1" d="M15 10V7h-5V6h2V0H5v6h2v1H5.942A3.484 3.484 0 0 0 3.5 6C1.57 6 0 7.57 0 9.5c0 .926.378 1.782 1 2.423V15h.778c.347.595.985 1 1.722 1s1.375-.405 1.722-1H16v-5h-1z"/></g><g id="icon_x5F_bg"><path class="st2" d="M14 11V8H9V5h2V1H6v4h2v3H6.649c.149.312.25.646.3 1H8v2H7v3h3v-3H9V9h4v2h-1v3h3v-3h-1zm-5 2H8v-1h1v1zM7 4V2h3v2H7zm7 9h-1v-1h1v1zM4.5 7.211V10h-2V7.211A2.499 2.499 0 0 0 1 9.5c0 1.024.617 1.902 1.5 2.289V14a1 1 0 1 0 2 0v-2.211a2.497 2.497 0 0 0 0-4.578z"/></g><g id="icon_x5F_fg"><path class="st3" d="M7 2h3v2H7zM8 12h1v1H8zM13 12h1v1h-1z"/></g></svg>