<svg xmlns="http://www.w3.org/2000/svg" viewBox="0 0 16 16"><style>.st0{opacity:0}.st0,.st1{fill:#f6f6f6}.st2{fill:#424242}</style><g id="outline"><path class="st0" d="M0 0h16v16H0z"/><path class="st1" d="M14 12V9h-2V6h-.702l.289-.497C11.857 5.039 12 4.519 12 4c0-1.654-1.346-3-3-3H3C1.346 1 0 2.346 0 4c0 .519.143 1.039.413 1.503L.702 6H1v3h2v3h2v3h11v-3h-2z"/></g><path class="st2" d="M4 5H1.277A1.977 1.977 0 0 1 1 4a2 2 0 0 1 2-2h6a2 2 0 0 1 2 2c0 .366-.106.705-.277 1H8V3H4v2zm0 1H2v2h2V6zm2 3H4v2h2V9zm0 5h2v-2H6v2zm5-7H5v1h6V7zm2 3H7v1h6v-1zm-4 3v1h6v-1H9z" id="icon_x5F_bg"/></svg>