<svg xmlns="http://www.w3.org/2000/svg" viewBox="0 0 16 16"><style>.st0{opacity:0}.st0,.st1{fill:#f6f6f6}.st2{fill:#424242}.st3{fill:#f0eff1}</style><g id="outline"><path class="st0" d="M0 0h16v16H0z"/><path class="st1" d="M13.449 5H13V0H0v13h5v3h3.426L16 8.439v-.827z"/></g><g id="icon_x5F_bg"><path transform="rotate(-45.001 10 11)" class="st2" d="M7.172 9.586h5.657v2.828H7.172z"/><path transform="rotate(-45.001 13.5 7.5)" class="st2" d="M12.793 6.086h1.414v2.828h-1.414z"/><path class="st2" d="M6 13v2h2M7 10.488V7h3.566L12 5.598V1H1v11h4.454L7 10.488zM7 2h4v4H7V2zM3 3h2v2H3V3zM2 7h4v4H2V7z"/></g><g id="icon_x5F_fg"><path class="st3" d="M3 3h2v2H3zM7 2h4v4H7zM2 7h4v4H2zM10.566 7H7v3.488z"/></g></svg>