<?xml version="1.0" encoding="utf-8"?>
<!-- Generator: Adobe Illustrator 18.1.1, SVG Export Plug-In . SVG Version: 6.00 Build 0)  -->
<!DOCTYPE svg PUBLIC "-//W3C//DTD SVG 1.1//EN" "http://www.w3.org/Graphics/SVG/1.1/DTD/svg11.dtd">
<svg version="1.1" xmlns="http://www.w3.org/2000/svg" xmlns:xlink="http://www.w3.org/1999/xlink" x="0px" y="0px" width="16px"
	 height="16px" viewBox="0 0 16 16" style="enable-background:new 0 0 16 16;" xml:space="preserve">
<style type="text/css">
	.icon-canvas-transparent{opacity:0;fill:#F6F6F6;}
	.icon-vs-out{fill:#F6F6F6;}
	.icon-vs-bg{fill:#424242;}
	.icon-vs-fg{fill:#F0EFF1;}
</style>
<g id="canvas">
	<path class="icon-canvas-transparent" d="M16,16H0V0h16V16z"/>
</g>
<g id="outline">
	<path class="icon-vs-out" d="M3.5,16C1.57,16,0,14.43,0,12.5c0-1.37,0.805-2.593,2-3.162V6.662
		C0.805,6.093,0,4.87,0,3.5C0,1.57,1.57,0,3.5,0S7,1.57,7,3.5c0,0.084-0.004,0.17-0.011,0.257l4.037,3.575
		C11.484,7.113,11.983,7,12.5,7c1.93,0,3.5,1.57,3.5,3.5S14.43,14,12.5,14S9,12.43,9,10.5c0-0.289,0.037-0.575,0.111-0.855
		L5.447,6.4C5.304,6.497,5.155,6.584,5,6.659v2.679C6.195,9.907,7,11.13,7,12.5C7,14.43,5.43,16,3.5,16z"/>
</g>
<g id="iconBg">
	<path class="icon-vs-bg" d="M12.5,8c-0.602,0-1.147,0.222-1.579,0.576l-5.013-4.44C5.962,3.932,6,3.721,6,3.5
		C6,2.119,4.881,1,3.5,1S1,2.119,1,3.5c0,1.209,0.859,2.218,2,2.45v4.101c-1.141,0.232-2,1.24-2,2.45C1,13.881,2.119,15,3.5,15
		S6,13.881,6,12.5c0-1.209-0.859-2.218-2-2.45V5.95c0.582-0.118,1.082-0.445,1.441-0.891l4.85,4.295C10.111,9.698,10,10.084,10,10.5
		c0,1.381,1.119,2.5,2.5,2.5s2.5-1.119,2.5-2.5C15,9.119,13.881,8,12.5,8z M12.5,12c-0.827,0-1.5-0.673-1.5-1.5S11.673,9,12.5,9
		S14,9.673,14,10.5S13.327,12,12.5,12z"/>
</g>
<g id="iconFg">
	<path class="icon-vs-fg" d="M12.5,12c-0.827,0-1.5-0.673-1.5-1.5S11.673,9,12.5,9S14,9.673,14,10.5S13.327,12,12.5,12z
		"/>
</g>
</svg>
