<svg xmlns="http://www.w3.org/2000/svg" viewBox="0 0 16 16" enable-background="new 0 0 16 16"><style type="text/css">.icon-canvas-transparent{opacity:0;fill:#F6F6F6;} .icon-vs-out{fill:#F6F6F6;} .icon-vs-bg{fill:#424242;} .icon-vs-fg{fill:#F0EFF1;} .icon-vs-red{fill:#E51400;}</style><path class="icon-canvas-transparent" d="M16 16h-16v-16h16v16z" id="canvas"/><path class="icon-vs-out" d="M15 10h-7c.046 1.203.022 1.921 0 2l-.541 1h-4.985c-.122 0-.428-.326-.522-.408-.166-.143-.322-.295-.461-.463-.279-.342-.479-.737-.612-1.156-.28-.88-.292-1.817-.01-2.697.2-.629.46-1.255.826-1.806.302-.455.782-.883.779-1.47-.003-.675-1.359-1.867-1.474-1.988l2-.012c.694 0 1.471.506 1.947 1 .328.339.553.688.71 1h9.343v5z" id="outline"/><path class="icon-vs-bg" d="M14 9h-6.115c-.064-.337-.158-.673-.283-1h5.398v-1h-5.931c-.281-.393-.627-.742-1.069-1h8v3z" id="iconBg"/><path class="icon-vs-fg" d="M7.602 8c-.136-.354-.312-.691-.533-1h5.931v1h-5.398z" id="iconFg"/><path class="icon-vs-red" d="M2.834 4c2 0 1.89 3.333 1.89 3.333 0 2.334 1.11 2.667 1.11 2.667 1-1.167-.11-2.667-.11-2.667 2 1.167 1 4.667 1 4.667h-.89c-2-1.167-2-3.5-2-3.5-2 2.333 0 3.5 0 3.5h-1c-1.551-.905-1.639-3.391-.512-4.666.346-.392.886-.801 1.012-1.334.272-1.134-.5-2-.5-2" id="colorImportance"/></svg>