<svg xmlns="http://www.w3.org/2000/svg" viewBox="0 0 16 16"><style>.st0{opacity:0}.st0,.st1{fill:#f6f6f6}.st2{fill:#424242}.st3{fill:#f0eff1}</style><g id="outline"><path class="st0" d="M0 0h16v16H0z"/><path class="st1" d="M1 0h15v14.969H1z"/></g><g id="icon_x5F_bg"><path class="st2" d="M2 1v13h13V1H2zm12 12H3V2h11v11z"/><path class="st2" d="M12 9V7H9V6h1V3H7v3h1v1H5v2H4v3h3V9H6V8h5v1h-1v3h3V9h-1zm-6 2H5v-1h1v1zm2-7h1v1H8V4zm4 7h-1v-1h1v1z"/></g><path class="st3" d="M9 5H8V4h1v1zm-4 6h1v-1H5v1zm6 0h1v-1h-1v1zm3-9v11H3V2h11zm-1 7h-1V7H9V6h1V3H7v3h1v1H5v2H4v3h3V9H6V8h5v1h-1v3h3V9z" id="icon_x5F_fg"/></svg>