<svg xmlns="http://www.w3.org/2000/svg" viewBox="0 0 16 16"><style>.st0{opacity:0}.st0,.st1{fill:#f6f6f6}.st2{fill:#424242}.st3{fill:#f0eff1}</style><g id="outline"><path class="st0" d="M0 0h16v16H0z"/><path class="st1" d="M13.547 0H8c-.273 0-.549.062-.807.17L7 0H2c-.97 0-2 .701-2 2v8c0 1.299 1.03 2 2 2h1v2c0 1.299 1.03 2 2 2h6c1.299 0 2-1.03 2-2v-2h1c1.299 0 2-1.03 2-2V2.062L13.547 0z"/></g><g id="icon_x5F_bg"><path class="st2" d="M2 2h4c0-.391.101-.72.258-1H1.964S1 1 1 2v8c0 1 .964 1 .964 1H3v-1H2V2zM12.624 1h-4.66S7 1 7 2v2h1V2h4v2h2v6h-1v1h.965c1 0 1.035-1 1.035-1V3.136L12.624 1z"/><path class="st2" d="M9.624 5h-4.66s-.941 0-.941 1v8c0 1 .941 1 .941 1h6c1 0 1.059-1 1.059-1V7.136L9.624 5zm1.399 4v5h-6V6h4v2h2v1z"/><path class="st2" d="M6.023 8h3v1h-3zM6.023 10h4v1h-4zM6.023 12h4v1h-4z"/></g><g id="icon_x5F_fg"><path class="st3" d="M3 6c0-1.299 1.03-2 2-2h3v-.004L6 3.96V2H2v8h1V6zM12 3.96V2H8v2h2l3 2.648V10h1V3.996z"/><path class="st3" d="M9 6H5v8h6V7.996L9 7.96V6zm1 7H6v-1h4v1zm0-2H6v-1h4v1zM9 8v1H6V8h3z"/></g></svg>