<svg xmlns="http://www.w3.org/2000/svg" viewBox="0 0 24 16"><style>.icon-canvas-transparent{opacity:0;fill:#f6f6f6}.icon-vs-out{fill:#f6f6f6}.icon-vs-bg{fill:#424242}.icon-vs-fg{fill:#f0eff1}</style><path class="icon-canvas-transparent" d="M24 0v16H0V0h24z" id="canvas"/><path class="icon-vs-out" d="M23.495 8.5L17.384 14H4V7h.333L1 3h9.271L8.603 5H16V3h1.384l6.111 5.5z" id="outline"/><path class="icon-vs-bg" d="M11 6h-1v2H5v5h11v-2h-5v-1h5V8h-5V6zm-1 5H6v-1h4v1zm5-4h-1V6h1v1zm-2 0h-1V6h1v1zM8 6h1v1H8V6zM5.635 7l-2.5-3h5l-2.5 3zM17 4v9l5-4.5L17 4zm1 2.245L20.506 8.5 18 10.755v-4.51z" id="iconBg"/><g id="iconFg"><path class="icon-vs-fg" d="M20.506 8.5L18 10.755v-4.51L20.506 8.5z"/></g></svg>