<svg xmlns="http://www.w3.org/2000/svg" viewBox="0 0 16 16"><style>.st0{opacity:0}.st0,.st1{fill:#f6f6f6}.st2{fill:#424242}</style><g id="outline"><path class="st0" d="M0 0h16v16H0z"/><path class="st1" d="M15 1.5l-.516-.5h-1.936l-.497.782-.213-.153A4.136 4.136 0 0 0 10.5 1h-2c-.523.154-1.102.408-1.551.774L6.5 1h-2l-.5.5v2l.826 1-.413.5H2.5l-.5.5v2l.826 1-.413.5H.5l-.5.5v2l.826 1-.826 1v2l.5.494h2l.455-.776.214.153c.392.281.915.496 1.331.629h2c.535-.152 1.099-.4 1.558-.773L8.5 16h2l.5-.5v-2l-.819-.999.41-.501H12.5l.5-.5v-2l-.819-.999.41-.501H14.5l.5-.5v-2l-.819-.999L15 3.5v-2z"/></g><g id="icon_x5F_bg"><path class="st2" d="M6.5 5h.754l.532-.779C8.26 3.524 8.88 3.177 9.5 3.177c.348 0 .692.122 1.014.342l.738-1.078c-.535-.385-1.126-.61-1.752-.61-1.06 0-2.041.581-2.762 1.637L5.323 5.541A4.97 4.97 0 0 1 6.5 5zM13.451 1.5l-2.238 3.279c-.057.084-.122.147-.184.221h1.455l.085.083 1.931-2.83-1.049-.753zM5.69 2.717c.116-.17.254-.3.38-.45L5.548 1.5 4.5 2.253l.753 1.104.437-.64zM13.309 6.283c-.094.139-.203.252-.309.371v.185l.451.661 1.049-.753-.754-1.104-.437.64zM9.213 8.779c-.057.084-.122.147-.184.221h1.455l.085.082L12.5 6.253 11.451 5.5 9.213 8.779zM9.252 6.44c-.535-.384-1.126-.609-1.752-.609-1.06 0-2.041.581-2.762 1.637L3.323 9.541A4.93 4.93 0 0 1 4.5 9h.754l.532-.779C6.26 7.524 6.88 7.177 7.5 7.177c.348 0 .692.122 1.014.342l.738-1.079zM3.69 6.717c.116-.17.254-.3.38-.45L3.548 5.5 2.5 6.253l.753 1.104.437-.64zM11.309 10.283c-.094.139-.202.252-.309.371v.185l.451.661 1.049-.753-.754-1.104-.437.64zM7.213 12.779c-.474.697-1.094 1.044-1.713 1.044-.348 0-.693-.121-1.015-.341L3.75 14.56c.534.385 1.124.61 1.75.61 1.059 0 2.041-.582 2.763-1.638l2.237-3.279L9.451 9.5l-2.238 3.279zM9.309 14.283c-.115.17-.252.3-.38.451l.522.766 1.049-.753-.754-1.103-.437.639zM5.5 11.177c.348 0 .692.122 1.014.342l.738-1.078c-.535-.385-1.126-.61-1.752-.61-1.06 0-2.041.581-2.762 1.637L.5 14.747l1.048.753 2.238-3.279c.474-.697 1.094-1.044 1.714-1.044zM1.69 10.717c.116-.17.254-.3.38-.45L1.548 9.5.5 10.253l.753 1.103.437-.639z"/></g></svg>