<svg xmlns="http://www.w3.org/2000/svg" viewBox="0 0 16 16"><style>.st0{opacity:0}.st0,.st1{fill:#f6f6f6}.st2{fill:#424242}.st3{fill:#f0eff1}</style><g id="outline"><path class="st0" d="M0 0h16v16H0z"/><path class="st1" d="M1 0h15v15H1z"/></g><path class="st2" d="M2 1v13h13V1H2zm8 1v2H7V2h3zm0 6v2H7V8h3zM3 2h3v2H3V2zm0 11v-2h3v2H3zm4 0v-2h3v2H7zm7-6h-3V5h3v2zm0-3h-3V2h3v2z" id="icon_x5F_bg"/><path class="st3" d="M3 2h3v2H3V2zm4 2h3V2H7v2zm4-2v2h3V2h-3zm0 5h3V5h-3v2zm-4 3h3V8H7v2zm0 3h3v-2H7v2zm-4 0h3v-2H3v2z" id="icon_x5F_fg"/></svg>