<svg xmlns="http://www.w3.org/2000/svg" viewBox="0 0 16 16"><style>.st0{opacity:0}.st0,.st1{fill:#f6f6f6}.st2{fill:#424242}</style><g id="outline"><path class="st0" d="M0 0h16v16H0z"/><path class="st1" d="M11.497 0c-1.95 0-3.596 1.249-4.22 2.984A4.428 4.428 0 0 0 4.497 2a4.501 4.501 0 0 0-4.5 4.5c0 1.56.795 2.933 2 3.74v3.26a2.5 2.5 0 1 0 5 0v-3.26a4.478 4.478 0 0 0 1.721-2.212c.092.073.181.147.279.212v3.26a2.5 2.5 0 1 0 5 0V8.24a4.5 4.5 0 0 0-2.5-8.24z"/></g><g id="icon_x5F_bg"><path class="st2" d="M14.997 4.5c0 1.394-.82 2.587-2 3.15v3.85a1.5 1.5 0 0 1-3 0V7.65a3.524 3.524 0 0 1-1.025-.751c.011-.132.025-.264.025-.399a4.464 4.464 0 0 0-.92-2.7 3.506 3.506 0 0 1 1.92-2.45V5h3V1.35c1.18.563 2 1.756 2 3.15zM5.997 3.35V7h-3V3.35c-1.178.563-2 1.757-2 3.15s.822 2.587 2 3.15v3.85a1.5 1.5 0 0 0 3 0V9.65c1.18-.563 2-1.757 2-3.15s-.82-2.587-2-3.15z"/></g></svg>