<svg xmlns="http://www.w3.org/2000/svg" viewBox="0 0 16 16"><style>.st0{opacity:0}.st0,.st1{fill:#f6f6f6}.st2{fill:#424242}.st3{fill:#f0eff1}</style><g id="outline"><path class="st0" d="M0 0h16v16H0z"/><path class="st1" d="M16 0H4v4.051C1.756 4.303 0 6.19 0 8.5 0 10.981 2.019 13 4.5 13c.615 0 1.201-.125 1.736-.35L9.586 16h.828l2-2-3-3H16V0z"/></g><g id="icon_x5F_bg"><path class="st2" d="M5 1v3.051c.347.039.681.112 1 .226V4h2v1h-.707C8.325 5.825 9 7.079 9 8.5V8h2v1H9v-.5c0 .528-.108 1.028-.276 1.5H15V1H5zm6 6H9V6h2v1zm0-2H9V4h2v1zm3 4h-2V8h2v1zm0-2h-2V6h2v1zm0-2h-2V4h2v1z"/><path class="st2" d="M8 8.5A3.5 3.5 0 1 0 4.5 12c.711 0 1.369-.215 1.922-.578L10 15l1-1-3.578-3.578A3.488 3.488 0 0 0 8 8.5zM4.5 11a2.5 2.5 0 1 1 0-5 2.5 2.5 0 0 1 0 5z"/></g><g id="icon_x5F_fg"><circle class="st3" cx="4.5" cy="8.5" r="2.5"/><path class="st3" d="M9 4h2v1H9zM9 8h2v1H9zM9 6h2v1H9zM12 6h2v1h-2zM12 4h2v1h-2zM12 8h2v1h-2zM6 4.276c.475.17.907.415 1.293.724H8V4H6v.276z"/></g></svg>