<svg xmlns="http://www.w3.org/2000/svg" viewBox="0 0 16 16"><style>.st0{opacity:0}.st0,.st1{fill:#f6f6f6}.st2{fill:#424242}.st3{fill:#f0eff1}</style><g id="outline"><path class="st0" d="M0 0h16v16H0z"/><path class="st1" d="M16 10h-1V7h-5V6h2V0H5v6h2v1H2v2.586L1.586 10H1v.586l-1 1v.828l1 1V15h1.586l1 1h.828l1-1H16z"/></g><g id="icon_x5F_bg"><path class="st2" d="M3 8v.586L3.586 8zM14 11V8H9V5h2V1H6v4h2v3H4.414l1 1H8v2h-.586l.586.586V12h1v1H8v-.586l-1 1V14h3v-3H9V9h4v2h-1v3h3v-3h-1zM7 4V2h3v2H7zm7 9h-1v-1h1v1z"/><path transform="rotate(-45.001 4 12)" class="st2" d="M1.879 9.879h4.243v4.243H1.879z"/></g><g id="icon_x5F_fg"><path class="st3" d="M8 12h1v1H8zM7 2h3v2H7zM13 12h1v1h-1z"/></g></svg>