<svg xmlns="http://www.w3.org/2000/svg" viewBox="0 0 16 16"><style>.icon-canvas-transparent{opacity:0;fill:#f6f6f6}.icon-vs-out{fill:#f6f6f6}.icon-vs-bg{fill:#424242}.icon-vs-blue{fill:#1ba1e2}</style><path class="icon-canvas-transparent" d="M16 16H0V0h16v16z" id="canvas"/><path class="icon-vs-out" d="M15 8A7 7 0 1 1 1 8a7 7 0 0 1 14 0z" id="outline"/><path class="icon-vs-bg" d="M7 6h2v4H8V7H7V6z" id="iconBg"/><path class="icon-vs-blue" d="M9 5.184V4.142A3.993 3.993 0 0 1 11.858 7h-1.036A3.006 3.006 0 0 0 9 5.184zm-2 0V4.142A3.99 3.99 0 0 0 4 8a4 4 0 0 0 4 4 3.99 3.99 0 0 0 3.858-3h-1.042A2.992 2.992 0 0 1 5 8a2.99 2.99 0 0 1 2-2.816zM12.891 7h1.019A6 6 0 0 0 9 2.09v1.011A5 5 0 0 1 12.891 7zm.008 2A5 5 0 1 1 7 3.101V2.09A5.997 5.997 0 1 0 13.91 9h-1.011z" id="colorImportance"/></svg>