<svg xmlns="http://www.w3.org/2000/svg" viewBox="0 0 16 16"><style>.st0{opacity:0}.st0,.st1{fill:#f6f6f6}.st2{fill:#424242}.st3{fill:#f0eff1}</style><g id="outline"><path class="st0" d="M0 0h16v16H0z"/><path class="st1" d="M1 1h14v14H1z"/></g><g id="icon_x5F_bg"><path class="st2" d="M2 8h1v1H2zM2 10h1v1H2zM2 6h1v1H2zM2 4h1v1H2zM2 2h1v1H2zM4 2h1v1H4zM6 2h1v1H6zM8 2h1v1H8zM10 2h1v1h-1zM13 13H5v1h9V5h-1z"/><path transform="rotate(-45.001 8 8)" class="st2" d="M-.485 7.5h16.971v1H-.485z"/></g><g id="icon_x5F_fg"><path class="st3" d="M3 3v9.293L12.293 3zM3.707 13H13V3.707z"/></g></svg>