<svg xmlns="http://www.w3.org/2000/svg" viewBox="0 0 16 16"><style>.icon-canvas-transparent{opacity:0;fill:#f6f6f6}.icon-vs-out{fill:#f6f6f6}.icon-vs-bg{fill:#424242}.icon-vs-fg{fill:#f0eff1}</style><path class="icon-canvas-transparent" d="M16 16H0V0h16v16z" id="canvas"/><path class="icon-vs-out" d="M16 10.428l-1.603 1.603L16 13.633v.734L14.367 16h-.949l-1.495-1.495L10.428 16h-.949l-2-2 1.97-1.97-1.97-1.97.067-.067L6.234 8.83l-1.381 1.496c-.566.573-1.274.876-2.019.876a2.757 2.757 0 0 1-1.974-.829A2.796 2.796 0 0 1 .865 6.45l1.463-1.291-.308-.289C.898 3.739.889 1.961 1.97.881A2.807 2.807 0 0 1 3.953.076a2.69 2.69 0 0 1 2.033.902l.474.632L8.416.072h5.471l-4.41 5.175 2.986 3.769 1.43-1.43L16 9.693v.735z" id="outline"/><path class="icon-vs-bg" d="M8.253 9.286L6.165 7.431 4.119 9.647c-.363.367-.81.555-1.285.555-.476 0-.923-.188-1.261-.531a1.794 1.794 0 0 1 .003-2.517l2.24-1.974-1.114-1.041c-.72-.727-.718-1.858-.025-2.551a1.801 1.801 0 0 1 1.276-.512c.502 0 .969.205 1.281.561l1.041 1.391 2.488-1.956h2.958L8.182 5.224l1.831 2.31-.056.056-1.704 1.696zm6.7.775L13.893 9l-1.97 1.97L9.953 9l-1.061 1.061 1.97 1.97L8.893 14l1.061 1.061 1.97-1.97 1.97 1.97L14.953 14l-1.97-1.97 1.97-1.969z" id="iconBg"/><path class="icon-vs-fg" d="M8.962 8.577L6.097 6.031 3.384 8.969a.763.763 0 0 1-1.098 0 .783.783 0 0 1 0-1.111l3.019-2.656-1.921-1.794a.789.789 0 0 1 0-1.113c.269-.271.824-.313 1.098 0l1.605 2.152 3.021-2.375h.446L6.888 5.201l2.41 3.041-.336.335z" id="iconFg"/></svg>