<svg xmlns="http://www.w3.org/2000/svg" viewBox="0 0 16 16"><style>.st0{opacity:0}.st0,.st1{fill:#f6f6f6}.st2{fill:#424242}</style><g id="outline"><path class="st0" d="M0 0h16v16H0z"/><path class="st1" d="M16 7V0H6v3.879L2.354.232.232 2.354 3.879 6H0v10h7v-3h2v3h4v-.879l.646.647 2.122-2.122-.647-.646H16V9h-3V7z"/></g><g id="icon_x5F_bg"><path class="st2" d="M10 1h2v5h-2zM13 1h2v5h-2zM1 10h5v2H1zM1 13h5v2H1zM9 6V1H7v3.879L8.121 6zM1 7v2h5v-.879L4.879 7zM12 9V7h-2v.879L11.121 9zM7 10v2h2v-.879L7.879 10zM10 13v2h2v-.879L10.879 13zM13 10.879L14.121 12H15v-2h-2z"/><path transform="rotate(-45.001 8 8)" class="st2" d="M7.5-.485h1v16.971h-1z"/></g></svg>