<svg xmlns="http://www.w3.org/2000/svg" viewBox="0 0 16 16"><style>.st0{opacity:0}.st0,.st1{fill:#f6f6f6}.st2{fill:#424242}</style><g id="outline"><path class="st0" d="M0 0h16v16H0z"/><path class="st1" d="M15.552 4.947l-.595-1.318L12 6.586 11.414 6l2.957-2.957-1.319-.596A4.96 4.96 0 0 0 11 2c-1.627 0-3.061.793-3.975 2H6.5a2.5 2.5 0 1 0-4 0H1v5h4.585l-2.292 2.293c-.687.686-1.253 2.162 0 3.414.609.609 1.244.737 1.67.737.958 0 1.621-.614 1.744-.737l2.907-2.908c.453.134.917.201 1.386.201 2.757 0 5-2.243 5-5 0-.703-.15-1.394-.448-2.053z"/></g><path class="st2" d="M15 7a4 4 0 0 1-4 4 3.984 3.984 0 0 1-1.641-.359L6 14s-1 1-2 0 0-2 0-2l3-3h1V4.38A3.974 3.974 0 0 1 11 3c.586 0 1.139.133 1.641.359L10 6l2 2 2.641-2.641C14.867 5.861 15 6.414 15 7zM4 4h1a1 1 0 0 0 1-1V2a1 1 0 0 0-1-1H4a1 1 0 0 0-1 1v1a1 1 0 0 0 1 1zm3 1H6L4.5 7 3 5H2v3h5V5z" id="icon_x5F_bg"/></svg>