<svg xmlns="http://www.w3.org/2000/svg" viewBox="0 0 16 16"><style>.st0{opacity:0}.st0,.st1{fill:#f6f6f6}.st2{fill:#424242}.st3{fill:#f0eff1}</style><g id="outline"><path class="st0" d="M0 0h16v16H0z"/><path class="st1" d="M16 3v12H4v-2.501c-2.347-.981-4-3.3-4-5.999C0 2.915 2.915 0 6.5 0a6.498 6.498 0 0 1 5.469 3H16z"/></g><path class="st2" d="M6.5 1C3.467 1 1 3.467 1 6.5S3.467 12 6.5 12C9.532 12 12 9.533 12 6.5S9.532 1 6.5 1zM2.499 6.5c0-2.206 1.795-4 4.001-4 1.256 0 2.364.593 3.098 1.5H5v6.203A4.003 4.003 0 0 1 2.499 6.5zM7 10.449V6h3.45c.021.166.051.329.051.5 0 2.035-1.533 3.7-3.501 3.949zM15 4v10H5v-1h9V5h-1V4h2z" id="icon_x5F_bg"/><path class="st3" d="M10.45 6c.021.166.051.329.051.5 0 2.035-1.532 3.7-3.501 3.949V6h3.45zM5 6V4h4.598C8.864 3.093 7.756 2.5 6.5 2.5a4.005 4.005 0 0 0-4.001 4A4.003 4.003 0 0 0 5 10.203V6z" id="icon_x5F_fg"/></svg>