<svg xmlns="http://www.w3.org/2000/svg" viewBox="0 0 16 16"><style>.st0{opacity:0}.st0,.st1{fill:#f6f6f6}.st2{fill:#424242}.st3{fill:#00539c}</style><g id="outline"><path class="st0" d="M0 0h16v16H0z"/><path class="st1" d="M16 8c0 .519-.143 1.039-.413 1.503l-.289.497H14v2h-2v1h1v3H6v-6H4.702l-.289-.497A2.997 2.997 0 0 1 4 8c0-.353.072-.686.185-1H2L0 5V1l1-1h6L6 1h2v4h5c1.654 0 3 1.346 3 3z"/></g><g id="icon_x5F_bg"><path class="st2" d="M7 10h6v1H7zM7 12h4v1H7zM7 14h5v1H7zM13 6H7a2 2 0 0 0-2 2c0 .366.105.705.277 1H8V7h4v2h2.723c.171-.295.277-.634.277-1a2 2 0 0 0-2-2z"/></g><path class="st3" d="M7 4H3l2 2H3L0 3l3-3h2L3 2h4v2z" id="color_x5F_action"/></svg>