<svg xmlns="http://www.w3.org/2000/svg" viewBox="0 0 16 16"><style>.st0{opacity:0}.st0,.st1{fill:#f6f6f6}.st2{fill:#424242}.st3{fill:#f0eff1}</style><g id="outline"><path class="st0" d="M0 0h16v16H0z"/><path class="st1" d="M14 0H2v11h2.586L4 11.586V15h1.414L6 14.414V16h4v-1.586l.586.586H12v-3.414L11.414 11H14z"/></g><g id="icon_x5F_bg"><path class="st2" d="M3 1v9h2.586L7 8.586V6h2v2.586L10.414 10H13V1H3zm3 8H4V6h2v3zm0-4H4V4h2v1zm3 0H7V4h2v1zm3 4h-2V6h2v3zm0-4h-2V4h2v1z"/><path class="st2" d="M5 12v2l2-2v3h2v-3l2 2v-2L8 9z"/></g><g id="icon_x5F_fg"><path class="st3" d="M4 6h2v3H4zM10 6h2v3h-2zM4 4h2v1H4zM10 4h2v1h-2zM7 4h2v1H7zM7 8.586L7.586 8h.828L9 8.586V6H7z"/></g></svg>