<svg xmlns="http://www.w3.org/2000/svg" viewBox="0 0 16 16"><style>.icon-canvas-transparent{opacity:0;fill:#f6f6f6}.icon-vs-out{fill:#f6f6f6}.icon-vs-fg{fill:#f0eff1}.icon-folder{fill:#dcb67a}.st0{fill:#f0eff1}</style><path class="icon-canvas-transparent" d="M0 0h16v16H0z" id="canvas"/><path class="icon-vs-out" d="M6.597 0l1.007 2H9.4c.775 0 1.6.645 1.6 1.673V6h.597l1.007 2 1.796.002c.775.042 1.6.643 1.6 1.671V14.4c0 1.05-.823 1.6-1.656 1.6H6.6c-.795 0-1.6-.55-1.6-1.601V10H1.6c-.17 0-.505-.028-.836-.219C.278 9.503 0 8.999 0 8.399V0h6.597z" id="outline"/><g id="iconBg"><path class="icon-folder" d="M1 1v7.399c0 .637.617.601.617.601H5V6h5V3.673C10 3.036 9.344 3 9.344 3H7v.025L5.981 1H1zm1 1h2.981l.5 1H2V2z"/><path class="icon-folder" d="M6 7v7.399c0 .573.498.601.6.601h7.764c.107 0 .636-.028.636-.601V9.673c0-.637-.656-.673-.656-.673H12v.025L10.98 7H6zm1 1h3.364l.743 1.475.264.525H14v4H7V8z"/></g><g id="iconFg"><path class="st0" d="M2 2v1h3.47l-.5-1z"/><path class="icon-vs-fg" d="M7 14h7v-4h-2.629l-.264-.525L10.364 8H7z"/></g></svg>