<svg xmlns="http://www.w3.org/2000/svg" width="16" height="16"><style type="text/css">.icon-canvas-transparent{opacity:0;fill:#F6F6F6;} .icon-vs-out{fill:#F6F6F6;} .icon-vs-bg{fill:#424242;} .icon-vs-fg{fill:#F0EFF1;}</style><path class="icon-canvas-transparent" d="M16 16h-16v-16h16v16z" id="canvas"/><path class="icon-vs-out" d="M0 16v-16h16v16h-16z" id="outline"/><path class="icon-vs-bg" d="M1 1v14h14v-14h-14zm1 6h6v3h-6v-3zm0 7v-3h6v3h-6zm12 0h-5v-3h5v3zm0-4h-5v-3h5v3zm0-4h-12v-2h12v2zm-11 2h4v1h-4v-1zm10 1h-3v-1h3v1zm-10 3h4v1h-4v-1zm10 1h-3v-1h3v1z" id="iconBg"/><g id="iconFg"><path class="icon-vs-fg" d="M14 4v2h-12v-2h12zm-6 7v3h-6v-3h6zm-1 1h-4v1h4v-1zm2-1h5v3h-5v-3zm1 2h3v-1h-3v1zm-2-3h-6v-3h6v3zm-1-2h-4v1h4v-1zm2-1h5v3h-5v-3zm1 2h3v-1h-3v1z"/></g></svg>