<svg xmlns="http://www.w3.org/2000/svg" viewBox="0 0 16 16"><style>.st0{opacity:0}.st0,.st1{fill:#f6f6f6}.st2{fill:#424242}.st3{fill:#f0eff1}</style><g id="outline"><path class="st0" d="M0 0h16v16H0z"/><path class="st1" d="M.743 15.132c.222.223.495.396.809.513.294.111.612.165.973.165.125 0 .247-.008.366-.023v.135h2.003v.046h2.311l.04.014c.036.012.081.008.119.018h1.267c.217-.059.421-.145.608-.26.327-.195.603-.472.834-.807.018.026.03.056.049.082.256.344.564.612.905.792.157.086.326.143.498.193h1.57c.035-.01.074-.015.108-.026.261-.089.505-.217.728-.381l.404-.3v-1.499l-.004-.178.004.004V9.679l-.436-.298a2.024 2.024 0 0 0-.288-.162A2.672 2.672 0 0 0 12.913 9a2.805 2.805 0 0 0-1.782.27 2.879 2.879 0 0 0-.924.788 2.572 2.572 0 0 0-.794-.826 2.332 2.332 0 0 0-1.284-.356 2.48 2.48 0 0 0-.335.022V7h1.129V5h.289a3.566 3.566 0 0 0 3.211 2c1.93 0 3.5-1.57 3.5-3.5s-1.57-3.5-3.5-3.5a3.566 3.566 0 0 0-3.211 2H2.924v3h1v2h.969v2.473a2.422 2.422 0 0 0-.614-.345 3.214 3.214 0 0 0-1.138-.188c-.204 0-.412.018-.647.055a5.478 5.478 0 0 0-1.078.297c-.19.078-.334.154-.44.224l-.455.296v2.135a2.357 2.357 0 0 0-.311.615 2.795 2.795 0 0 0-.135.87c0 .318.053.623.159.908.112.299.283.565.509.792zM12.424 3a.5.5 0 1 1-.002 1.002A.5.5 0 0 1 12.424 3z"/></g><g id="icon_x5F_bg"><path class="st2" d="M12.5 1c-1.209 0-2.269.858-2.5 2H4v1h1v2h1V4h1v2h1V4h2c.231 1.141 1.291 2 2.5 2a2.5 2.5 0 1 0 0-5zm0 4a1.5 1.5 0 1 1 .001-3.001A1.5 1.5 0 0 1 12.5 5zM4.551 10.419a1.398 1.398 0 0 0-.548-.356 2.257 2.257 0 0 0-.786-.122c-.154 0-.312.014-.476.04a4.231 4.231 0 0 0-.468.104c-.146.04-.28.085-.4.132a1.66 1.66 0 0 0-.275.137v.926c.204-.158.44-.283.703-.377a2.4 2.4 0 0 1 .81-.142c.275 0 .487.075.639.224.15.151.225.391.225.723l-1.332.186c-.264.033-.49.094-.679.184-.188.09-.342.2-.462.337a1.276 1.276 0 0 0-.265.46 1.76 1.76 0 0 0-.085.556c0 .205.033.389.096.559.063.17.157.313.279.436.12.12.271.214.454.283.18.068.385.101.618.101.297 0 .557-.064.78-.193a1.63 1.63 0 0 0 .568-.559h.018v.864H4.98v-3.166c0-.288-.035-.545-.107-.768a1.514 1.514 0 0 0-.322-.569zm-.577 2.437c0 .158-.027.304-.076.441a1.017 1.017 0 0 1-.544.596 1.04 1.04 0 0 1-.435.087.93.93 0 0 1-.313-.05.695.695 0 0 1-.24-.137.596.596 0 0 1-.15-.207.666.666 0 0 1-.053-.264c0-.104.013-.198.035-.28a.513.513 0 0 1 .126-.217.7.7 0 0 1 .252-.16 1.85 1.85 0 0 1 .414-.094l.983-.132v.417zM9.457 10.611a1.588 1.588 0 0 0-.51-.538 1.334 1.334 0 0 0-.741-.197c-.159 0-.303.023-.434.066a1.315 1.315 0 0 0-.36.189 1.56 1.56 0 0 0-.292.288 2.608 2.608 0 0 0-.234.374H6.87V8h-.901v6.968h.901v-.626h.016c.057.106.122.204.196.295.073.091.154.172.247.24.092.068.196.119.308.156.114.038.24.055.377.055.298 0 .56-.068.788-.207.228-.136.417-.328.574-.573.154-.242.273-.533.351-.868.078-.336.119-.697.119-1.09 0-.333-.033-.649-.096-.949s-.162-.563-.293-.79zm-.616 2.524a1.824 1.824 0 0 1-.218.576.957.957 0 0 1-.341.343.884.884 0 0 1-.452.119.803.803 0 0 1-.389-.098.963.963 0 0 1-.307-.268 1.27 1.27 0 0 1-.199-.396 1.625 1.625 0 0 1-.073-.492v-.654c0-.22.026-.422.078-.601a1.53 1.53 0 0 1 .217-.464.986.986 0 0 1 .332-.3.87.87 0 0 1 .428-.106.836.836 0 0 1 .739.414c.086.136.15.298.195.487.043.189.066.401.066.639 0 .301-.025.569-.076.801zM13.05 10.04a2.09 2.09 0 0 0-.25-.058 1.818 1.818 0 0 0-1.122.169 1.885 1.885 0 0 0-.634.548c-.175.235-.31.52-.402.853a4.054 4.054 0 0 0-.141 1.113c0 .348.043.672.129.974.086.298.21.555.37.778.161.217.353.391.583.513.227.124.485.184.769.184.232 0 .433-.028.605-.088.172-.058.321-.139.453-.237v-.995c-.06.058-.126.111-.201.162a1.84 1.84 0 0 1-.221.129c-.08.038-.155.068-.232.088a.804.804 0 0 1-.227.035c-.152 0-.278-.044-.402-.096-.356-.175-.623-.618-.623-1.482 0-.924.304-1.447.689-1.681.115-.042.227-.083.35-.083.167 0 .324.035.468.106.141.073.276.169.399.288v-1.053a1.623 1.623 0 0 0-.36-.167z"/></g><circle class="st3" cx="12.5" cy="3.5" r="1.5" id="icon_x5F_fg"/></svg>