<svg xmlns="http://www.w3.org/2000/svg" viewBox="0 0 16 16"><style>.st0{opacity:0}.st0,.st1{fill:#f6f6f6}.st2{fill:#424242}.st3{fill:#f0eff1}</style><g id="outline"><path class="st0" d="M0 0h16v16H0z"/><path class="st1" d="M4 0v3H1v7.337c-.153.052-.331.102-.397.148L0 10.783v3.584c.027.095.056.19.087.281a2.051 2.051 0 0 0 1.168 1.194c.161.066.34.12.525.158H6v-.066c0 .016.336.047.442.047.026 0 .053-.009.079-.01.022.001.04.01.062.01.417 0 .798-.104 1.124-.303.278-.168.511-.401.703-.678H13v-3h3V0H4zm-.957 10.002L3.015 10h.029v.002z"/></g><g id="icon_x5F_bg"><path class="st2" d="M15 11h-2V3H5V1h10z"/><path class="st2" d="M2 4v6h.046c.2 0 .378-.043.551-.043.363 0 .692.062.979.178.152.059.292.141.423.23V6h6v6H9v2h3V4H2zM3.63 11.361a1.07 1.07 0 0 0-.424-.295 1.643 1.643 0 0 0-.608-.102c-.119 0-.241.012-.368.033a3.196 3.196 0 0 0-.672.195 1.375 1.375 0 0 0-.213.113v.768c.158-.131.341-.234.544-.313.204-.078.413-.117.627-.117.213 0 .377.063.494.186.116.125.174.324.174.6l-1.03.154a1.631 1.631 0 0 0-.525.152 1.08 1.08 0 0 0-.562.66 1.51 1.51 0 0 0-.067.462c0 .17.025.322.074.463a.945.945 0 0 0 .568.595c.139.058.297.085.478.085.229 0 .431-.053.604-.16a1.3 1.3 0 0 0 .439-.463h.014v.529h.785v-2.438c0-.238-.027-.451-.083-.637a1.289 1.289 0 0 0-.249-.47zm-.446 2.02c0 .131-.02.252-.059.365a.897.897 0 0 1-.165.295.76.76 0 0 1-.593.271.682.682 0 0 1-.242-.041.489.489 0 0 1-.302-.285.588.588 0 0 1-.041-.219.96.96 0 0 1 .027-.232.435.435 0 0 1 .098-.18.541.541 0 0 1 .195-.133c.083-.033.189-.061.32-.078l.761-.109v.346z"/><path class="st2" d="M5.71 11.656h-.013V9H5v5.887h.697v-.484h.013c.044.082.095.158.151.229.057.07.119.133.191.185a.835.835 0 0 0 .238.121.932.932 0 0 0 .292.043c.23 0 .434-.053.609-.16.176-.106.323-.254.443-.443.12-.188.211-.412.272-.672A3.58 3.58 0 0 0 8 12.861a3.54 3.54 0 0 0-.074-.734 2.037 2.037 0 0 0-.228-.611 1.203 1.203 0 0 0-.394-.416 1.037 1.037 0 0 0-.573-.153 1.01 1.01 0 0 0-.614.198 1.222 1.222 0 0 0-.226.223 1.957 1.957 0 0 0-.181.288zm.467.082c.1-.055.21-.082.331-.082a.646.646 0 0 1 .571.32c.066.105.116.23.15.377.034.146.052.311.052.494 0 .234-.02.441-.06.621-.039.18-.095.328-.168.445a.747.747 0 0 1-.264.266.677.677 0 0 1-.651.016.74.74 0 0 1-.237-.207.983.983 0 0 1-.154-.307 1.257 1.257 0 0 1-.057-.381v-.506c0-.17.02-.326.061-.465.04-.139.096-.258.168-.359a.79.79 0 0 1 .258-.232z"/></g><path class="st3" d="M4 6v2h3v1.943L6.714 10h.016c.418 0 .794.078 1.116.287.287.182.529.422.713.734.157.27.272.567.344.903.004.021.002.039.006.061L9 12h1V6H4z" id="icon_x5F_fg"/></svg>