<svg xmlns="http://www.w3.org/2000/svg" viewBox="0 0 16 16"><style>.st0{opacity:0}.st0,.st1{fill:#f6f6f6}.st2{fill:#424242}.st3{fill:#f0eff1}</style><g id="outline"><path class="st0" d="M0 0h16v16H0z"/><path class="st1" d="M16 0H5v6H0v10h11v-6h5z"/></g><g id="icon_x5F_bg"><path class="st2" d="M6 1v5h1.207l.239-.239.179.239h1.25L7.9 4.7a.503.503 0 0 0-.754-.054L7 4.793V2h7v2.94l-1.594-2.23a.498.498 0 0 0-.83.026L9.053 6h1.35l1.625-2.101L14 6.66V8h-3v1h4V1H6z"/><path class="st2" d="M1 15h9V7H1v8zm6.354-4.562L9 8.707v2.797l-.001-.144c-.28.105-2.037 1.101-2.037 1.101l-2.803-1.069c-.18-.057-.316-.076-.449.059L2 13.293v-1.465l2.135-2.256 2.707.986a.504.504 0 0 0 .512-.12zM2.707 14l1.371-1.359 2.764.834c.126.04.263.032.382-.027L9 12.559V14H2.707zM2 8h6.293L7.031 9.422l-2.873-.949a.498.498 0 0 0-.512.121L2 10.293V8z"/></g><g id="icon_x5F_fg"><path class="st3" d="M7 2v2.793l.146-.146A.498.498 0 0 1 7.9 4.7l1.063 1.417 2.614-3.382a.5.5 0 0 1 .83-.026L14 4.94V2H7z"/><path class="st3" d="M10.402 6H11v2h3V6.66l-1.973-2.761zM7.207 6h.418l-.18-.239zM7.354 10.438L9 8.707v2.797l-.001-.144c-.28.105-2.037 1.101-2.037 1.101l-2.803-1.069c-.18-.057-.316-.076-.449.059L2 13.293v-1.465l2.135-2.256 2.707.986a.504.504 0 0 0 .512-.12z"/><path class="st3" d="M2.707 14l1.371-1.359 2.764.834c.126.04.263.032.382-.027L9 12.559V14H2.707zM2 8h6.293L7.031 9.422l-2.873-.949a.498.498 0 0 0-.512.121L2 10.293V8z"/></g></svg>