<svg xmlns="http://www.w3.org/2000/svg" viewBox="0 0 16 16"><style>.icon-canvas-transparent{opacity:0;fill:#f6f6f6}.icon-vs-out{fill:#f6f6f6}.icon-vs-bg{fill:#424242}.icon-vs-fg{fill:#f0eff1}</style><path class="icon-canvas-transparent" d="M16 16H0V0h16v16z" id="canvas"/><path class="icon-vs-out" d="M6 15V8H0V1h16v14H6z" id="outline"/><path class="icon-vs-bg" d="M15 3H7V2h8v1zm0 1H7v1h8V4zm0 2H7v1h8V6zm-3 3H7v1h5V9zm3 0h-2v1h2V9zm-3 2H7v1h5v-1zm3 0h-2v1h2v-1zm-3 2H7v1h5v-1zm3 0h-2v1h2v-1zM6 2H1v5h5V2zM5 5H4v1H3V5H2V4h1V3h1v1h1v1z" id="iconBg"/><g id="iconFg"><path class="icon-vs-fg" d="M5 5H4v1H3V5H2V4h1V3h1v1h1v1z"/></g></svg>