<svg xmlns="http://www.w3.org/2000/svg" viewBox="0 0 16 16"><style>.st0{opacity:0}.st0,.st1{fill:#f6f6f6}.st2{fill:#424242}.st3{fill:#f0eff1}</style><g id="outline"><path class="st0" d="M0 0h16v16H0z"/><path class="st1" d="M15 5H5.657a4.051 4.051 0 0 0-.71-1C4.471 3.506 3.694 3 3 3l-2 .012C1.115 3.133 2.471 4.325 2.474 5c.003.587-.477 1.015-.778 1.47-.367.551-.627 1.177-.828 1.805a4.412 4.412 0 0 0 .01 2.697c.134.419.333.814.612 1.156.139.168.295.32.461.463.095.083.401.409.523.409h4.985L8 12c.022-.079.046-.797 0-2h7V5z"/></g><path class="st2" d="M14 9H7.885a5.873 5.873 0 0 0-.283-1H13V7H7.069A3.463 3.463 0 0 0 6 6h8v3zM2.834 4s.772.866.5 2c-.126.533-.666.942-1.012 1.334-1.127 1.275-1.039 3.761.512 4.666h1s-2-1.167 0-3.5c0 0 0 2.333 2 3.5h.89s1-3.5-1-4.667c0 0 1.11 1.5.11 2.667 0 0-1.11-.333-1.11-2.667 0 0 .11-3.333-1.89-3.333" id="icon_x5F_bg"/><path class="st3" d="M13 8V7H7.069c.221.309.397.646.533 1H13z" id="icon_x5F_fg"/></svg>