<svg xmlns="http://www.w3.org/2000/svg" width="16" height="16"><style type="text/css">.icon-canvas-transparent{opacity:0;fill:#F6F6F6;} .icon-vs-out{fill:#F6F6F6;} .icon-vs-bg{fill:#424242;} .icon-vs-fg{fill:#F0EFF1;}</style><path class="icon-canvas-transparent" d="M16 16h-16v-16h16v16z" id="canvas"/><path class="icon-vs-out" d="M16 5.408v4.634c0 .971-.701 3.029-2 3.029h-4c-.971 0-2-.701-2-2v-1.023c-.002.973-.703 3.023-2 3.023h-4c-.971 0-2-.701-2-2v-6.028c0-1.299 1.029-2 1.999-2h4.376l1.625 2.061v-.061c0-1.299 1.03-2 1.999-2h4.084l1.917 2.365z" id="outline"/><path class="icon-vs-bg" d="M5.313 3.972h-3.35s-.963 0-.963 1v6.028c0 1 .964 1 .964 1h4l1.036-1v-4.892l-1.687-2.136zm.687 4v3.028h-4v-6h2v2h2v.972zm7.313-4h-3.35s-.963 0-.963 1v6.028c0 1 .963 1 .963 1h4l1.037-1v-4.892l-1.687-2.136zm.687 4v3.028h-4v-6h2v2h2v.972z" id="iconBg"/><path class="icon-vs-fg" d="M4 5v2h2v4h-4v-6h2zm6 0v6h4v-4h-2v-2h-2z" id="iconFg"/></svg>