<svg xmlns="http://www.w3.org/2000/svg" width="16" height="16"><style type="text/css">.icon-canvas-transparent{opacity:0;fill:#F6F6F6;} .icon-vs-out{fill:#F6F6F6;} .icon-vs-bg{fill:#424242;}</style><rect class="icon-canvas-transparent" width="16" height="16" id="canvas"/><path class="icon-vs-out" d="M16 5.625l.065-.193c-1.965-2.293-4.814-3.609-7.815-3.609-3.183 0-6.14 1.449-8.112 3.976l-.138.201s6.192 7.789 6.344 7.999c.378.522 1.044.891 1.826.974l.08.027.05-.016.2.016c.883 0 1.828-1.123 2.454-2 .354-.494 5.046-7.375 5.046-7.375z" id="outline"/><g id="iconBg"><circle class="icon-vs-bg" cx="8.25" cy="12.5" r="1.5"/><path class="icon-vs-bg" d="M3.738 9.279c.894-1.58 2.57-2.662 4.511-2.662 1.79 0 3.372.91 4.308 2.291l.738-.84c-1.149-1.542-2.98-2.547-5.047-2.547-2.215 0-4.163 1.152-5.286 2.886l.776.872z"/><path class="icon-vs-bg" d="M1.602 7.177c1.514-2.03 3.926-3.353 6.648-3.353 2.57 0 4.87 1.174 6.393 3.014l.663-.755c-1.707-1.991-4.234-3.26-7.056-3.26-2.975 0-5.622 1.41-7.325 3.591l.677.763z"/><path class="icon-vs-bg" d="M5.465 11.401c.44-1.111 1.519-1.901 2.785-1.901 1.119 0 2.085.622 2.6 1.532l.696-.792c-.722-1.049-1.928-1.74-3.296-1.74-1.514 0-2.819.856-3.498 2.1l.713.801z"/></g></svg>