<svg xmlns="http://www.w3.org/2000/svg" viewBox="0 0 16 16"><style>.st0{opacity:0}.st0,.st1{fill:#f6f6f6}.st2{fill:#424242}.st3{fill:none}.st4{fill:#f0eff1}</style><g id="outline"><path class="st0" d="M0 0h16v16H0z"/><path class="st1" d="M16 0H1v13h.89l-.303 2h1.979l.468-.779.507.779h1.986l-.356-2H16z"/></g><g id="icon_x5F_bg"><path class="st2" d="M4 7a2 2 0 0 0-.772 3.845L2.75 14H3l1-1.667L5.083 14h.25l-.562-3.155A2 2 0 0 0 4 7zm0 2.999a1 1 0 1 1 0-2 1 1 0 0 1 0 2zM5 4h7v1H5zM6 6h5v1H6z"/><path class="st2" d="M2 1v5.78c.289-.26.626-.463 1-.596V6h1V5H3V4h1V3H3V2h1v1h1V2h1v1h1V2h1v1h1V2h1v1h1V2h1v1h1V2h1v1h-1v1h1v1h-1v1h1v1h-1v1h1v1h-1v1h1v1h-1v-1h-1v1h-1v-1h-1v1H9v-1H8v1H7v-1h-.19a2.98 2.98 0 0 1-.934 1.341l.117.659H15V1H2z"/></g><g id="icon_x5F_fg"><path class="st3" d="M3 2h1v1H3zM13 2h1v1h-1z"/><path class="st3" d="M3 2h1v1H3zM13 2h1v1h-1z"/><circle class="st4" cx="4" cy="8.999" r="1"/><path class="st4" d="M13 2h1v1h-1zM3 2h1v1H3zM13 10h1v1h-1zM3 6.184A2.962 2.962 0 0 1 4 6H3v.184z"/><path class="st4" d="M14 5V4h-1V3h-1V2h-1v1h-1V2H9v1H8V2H7v1H6V2H5v1H4v1H3v1h1v1a2.98 2.98 0 0 1 2 .78V6h5v1H6.22A2.98 2.98 0 0 1 7 9c0 .35-.078.683-.19 1H7v1h1v-1h1v1h1v-1h1v1h1v-1h1V9h1V8h-1V7h1V6h-1V5h1zm-2 0H5V4h7v1z"/></g></svg>