<svg xmlns="http://www.w3.org/2000/svg" viewBox="0 0 16 16"><style>.st0{opacity:0}.st0,.st1{fill:#f6f6f6}.st2{fill:#424242}.st3{fill:#f0eff1}</style><g id="outline"><path class="st0" d="M0 0h16v16H0z"/><path class="st1" d="M15.994 11.927V3.556L12.055 0 5.839.004c-.741.067-1.845.661-1.845 2.024V7H3c-1.103 0-2 .897-2 2v1c0 .364.098.706.269 1H0v5h7v-2h7.046c.79 0 1.252-.341 1.501-.626.464-.534.468-1.186.447-1.447z"/></g><g id="icon_x5F_bg"><path class="st2" d="M14.994 11.976V4L11.67 1H5.929s-.935.084-.935 1.028v5.247c.582.337.979.953 1 1.667V2h5v3h3v7H7v1h7.046c1.092 0 .948-1.024.948-1.024z"/><path class="st2" d="M9.994 9h4v1h-4zM9.602 7H8.588l-.431.834a1.353 1.353 0 0 0-.07.148L8.08 8h-.107l-.004-.008C7.946 7.942 7.472 7 7.472 7H6.399l.952 1.506L6.338 10h1.063s.479-.895.499-.942c.016-.039.08-.013.115-.021l.007.017c.022.048.508.946.508.946h1.066l-.984-1.547L9.602 7zM6 12v3H1v-3h1l1.5 2L5 12h1zm-3-1h1a1 1 0 0 0 1-1V9a1 1 0 0 0-1-1H3a1 1 0 0 0-1 1v1a1 1 0 0 0 1 1z"/><path class="st3" d="M8.588 7l-.431.834a1.353 1.353 0 0 0-.07.148.55.55 0 0 1-.188-.141L7.472 7H6.399l.952 1.506L6.338 10h1.063l.437-.818a.956.956 0 0 0 .061-.124c.013-.031.176.105.19.134L8.53 10h1.066l-.984-1.547L9.602 7H8.588z"/><path class="st3" d="M13.994 9V5h-3V2h-5v9H7v1h6.994v-2h-4V9h4zm-4.398 1H8.53l-.44-.809c-.014-.028-.177-.165-.19-.134a.841.841 0 0 1-.062.124L7.401 10H6.338l1.013-1.494L6.399 7h1.073l.427.841c.023.05.185.148.188.142.021-.053.045-.102.07-.148L8.588 7h1.014l-.99 1.453L9.596 10z"/><path class="st2" d="M9.602 7H8.588l-.431.834a1.353 1.353 0 0 0-.07.148L8.08 8h-.107l-.004-.008C7.946 7.942 7.472 7 7.472 7H6.399l.952 1.506L6.338 10h1.063s.479-.895.499-.942c.016-.039.08-.013.115-.021l.007.017c.022.048.508.946.508.946h1.066l-.984-1.547L9.602 7z"/></g></svg>