<svg xmlns="http://www.w3.org/2000/svg" viewBox="0 0 16 16"><style>.st0{opacity:0}.st0,.st1{fill:#f6f6f6}.st2{fill:#424242}.st3{fill:#f0eff1}</style><g id="outline"><path class="st0" d="M0 0h16v16H0z"/><path class="st1" d="M16 15H6.571c-.009.021-.007.041-.018.063-.039.142-.231.708-.879.872a2.367 2.367 0 0 1-.559.065c-.735 0-1.692-.318-2.604-1h-.532v-.445a6.83 6.83 0 0 1-.974-1.137C.158 12.185-.18 10.774.084 9.605c-.115-2.184.903-3.354 1.79-3.953l.105-.081V0H16v15z"/></g><path class="st2" d="M10.539 9.27c-.617-.507-1.236-.492-1.484-.501.334-.091.76-.04.926-.644.125-.156.922.359.922.359s-.252-.712-.9-.856c.014-.157.057-1.464-2.193-2.359C5.096 4.188 2.494 6.441 2.434 6.48c-.969.656-1.459 1.708-1.342 3.217-.207.724-.127 1.896.738 3.156 1.164 1.701 2.826 2.308 3.598 2.111.154-.039.179-.223.235-.359.035-.068-.084-.547-.021-.625.016 0 .457-.139 1.459-.563.926-.392 1.833-2.453 2.911-2.824.389-.137.953.078.984-.271a1.248 1.248 0 0 0-.457-1.052zM5.996 6c2.775-.317 3.371.988 3.359 1.516 0 .029-1.324.011-2.484 1.318-1.493-.108-1.441-.683-2.896-.521-.602.068-1.303.456-1.625.646-.23-.125-.588-1.021-.104-1.479 0 0 .887-1.331 3.75-1.48zm-2.801 7.727c-.521-.195-1.556-1.241-1.199-2.727.344-.011 1.033-.092 1.25.25.643 1.013.662 1.723.607 2.093-.078.518-.558.384-.658.384zm1.43-1.498c-.504-.832-1.213-1.832-1.65-2.645.5-.666 2.534-.179 3.438-.208-.521.542-.808.91-1.147 2.041-.098.329-.44.537-.641.812zM9.184 9.98c-.826.303-1.438 1.069-1.645 1.333-.459.596-.938 1.625-1.804 1.677 0-.029-.004-.059-.006-.088a3.17 3.17 0 0 1 .049-.674c.271-.372.646-1.007.885-1.31C7.6 9.717 8.738 9.039 8.775 8.99c.148.02.963.049 1.193.302.458.503-.265.493-.784.688zM3 1v3.898a8.13 8.13 0 0 1 1-.468V4h1v.128c.32-.072.654-.117 1-.134V2h6v11H8.988c-.032.04-.064.074-.097.114-.07.087-.143.169-.214.253a4.492 4.492 0 0 1-.55.554c-.028.024-.054.056-.084.079H15V1H3zm2 2H4V2h1v1zm9 10h-1v-1h1v1zm0-2h-1v-1h1v1zm0-2h-1V8h1v1zm0-2h-1V6h1v1zm0-2h-1V4h1v1zm0-2h-1V2h1v1z" id="icon_x5F_bg"/><path class="st3" d="M12 2v11H8.982l.22-.277c.336-.432.845-1.083 1.109-1.177a.586.586 0 0 1 .104-.007c.028 0 .055-.004.086.001 1.255-.006 1.461-.791 1.491-1.13a2.261 2.261 0 0 0-.294-1.295.997.997 0 0 0 .039-1.211 2.533 2.533 0 0 0-.813-.949c-.191-.748-.815-1.848-2.745-2.617a5.171 5.171 0 0 0-1.911-.362c-.092 0-.178.013-.268.018V2h6zM5 2H4v1h1V2zm9 10h-1v1h1v-1zm0-2h-1v1h1v-1zm0-2h-1v1h1V8zm0-2h-1v1h1V6zm0-2h-1v1h1V4zm0-2h-1v1h1V2zM5.996 6c2.775-.317 3.371.988 3.359 1.516 0 .029-1.324.011-2.484 1.318-1.493-.108-1.441-.683-2.896-.521-.602.068-1.303.456-1.625.646-.23-.125-.588-1.021-.104-1.479 0 0 .887-1.331 3.75-1.48zm-2.801 7.727c-.521-.195-1.556-1.241-1.199-2.727.344-.011 1.033-.092 1.25.25.643 1.013.662 1.723.607 2.093-.078.518-.558.384-.658.384zm1.43-1.498c-.504-.832-1.213-1.832-1.65-2.645.5-.666 2.534-.179 3.438-.208-.521.542-.808.91-1.147 2.041-.098.329-.44.537-.641.812zM9.184 9.98c-.826.303-1.438 1.069-1.645 1.333-.459.596-.938 1.625-1.804 1.677 0-.029-.004-.059-.006-.088a3.17 3.17 0 0 1 .049-.674c.271-.372.646-1.007.885-1.31C7.6 9.717 8.738 9.039 8.775 8.99c.148.02.963.049 1.193.302.458.503-.265.493-.784.688z" id="icon_x5F_fg"/></svg>