<svg xmlns="http://www.w3.org/2000/svg" viewBox="0 0 16 16"><style>.st0{opacity:0}.st0,.st1{fill:#f6f6f6}.st2{fill:#424242}.st3{fill:#f0eff1}</style><g id="outline"><path class="st0" d="M0 0h16v16H0z"/><path class="st1" d="M16 14.977H0V.976h16v14.001z"/></g><path class="st2" d="M12.543 8.246c-.617-.507-1.236-.491-1.484-.501.334-.091.76-.04.926-.644.125-.156.922.359.922.359s-.252-.712-.9-.856c.014-.157.057-1.464-2.193-2.359C7.1 3.165 4.498 5.417 4.438 5.457c-.969.655-1.459 1.708-1.342 3.216-.207.723-.127 1.895.738 3.157 1.164 1.701 2.826 2.307 3.598 2.111.154-.039.179-.223.235-.359.035-.068-.084-.547-.021-.625.016 0 .457-.139 1.459-.563.926-.392 1.833-2.453 2.911-2.824.388-.136.953.078.984-.271a1.25 1.25 0 0 0-.457-1.053zM8 4.976c2.775-.317 3.371.988 3.359 1.516 0 .029-1.324.011-2.484 1.318-1.493-.108-1.441-.683-2.896-.52-.602.067-1.303.455-1.625.645-.23-.125-.588-1.021-.104-1.478 0 0 .887-1.332 3.75-1.481zm-2.801 7.727c-.521-.195-1.556-1.24-1.199-2.726.344-.012 1.033-.092 1.25.25.643 1.012.662 1.723.607 2.092-.078.519-.558.384-.658.384zm1.43-1.498c-.504-.832-1.213-1.832-1.65-2.645.5-.666 2.534-.179 3.438-.208-.521.542-.808.91-1.147 2.041-.098.33-.44.537-.641.812zm4.559-2.248c-.826.303-1.438 1.069-1.646 1.333-.459.596-.938 1.625-1.804 1.678 0-.029-.004-.059-.006-.088a3.17 3.17 0 0 1 .049-.674c.271-.373.646-1.008.885-1.311.938-1.202 2.076-1.879 2.113-1.928.148.02.963.049 1.193.302.458.502-.265.492-.784.688zM15 2v12H8.574c.048 0 .084-.226.094-.329.22-.086.491-.202.827-.344.195-.083.374-.327.546-.327H14V5h-1.518c-.399-1-1.096-1.19-2.3-1.669a5.137 5.137 0 0 0-1.911-.373c-2.077 0-3.79 1.196-4.394 1.683-.145.097-.292.359-.438.359H2v8h1.457c.335 0 .693 1 1.059 1H1V2h14z" id="icon_x5F_bg"/><path class="st3" d="M3.009 12.406c-.847-1.234-1.185-2.639-.921-3.808C1.991 6.772 2.689 6 3.439 5H2v8h1.457c-.155 0-.306-.386-.448-.594zM12.482 5c.24 0 .373.663.445.944.428.289.683.684.814.942a.992.992 0 0 1-.039 1.207c.254.443.327.921.294 1.294-.03.339-.236 1.123-1.491 1.129-.031-.004-.058-.002-.086-.001a.581.581 0 0 0-.103.007c-.266.094-.773.757-1.11 1.188-.379.486-.745 1.29-1.165 1.29H14V5h-1.518z" id="icon_x5F_fg"/></svg>