<svg xmlns="http://www.w3.org/2000/svg" viewBox="0 0 16 16"><style>.st0{opacity:0}.st0,.st1{fill:#f6f6f6}.st2{fill:#424242}.st3{fill:#dcb67a}.st4{fill:#f0eff1}</style><g id="outline"><path class="st0" d="M0 0h16v16H0z"/><path class="st1" d="M4.808 16h.524c.117-.011.239-.014.345-.041.648-.164.841-.73.879-.871.068-.134.101-.263.112-.387.22-.086.491-.195.826-.338.675-.285 1.179-.932 1.712-1.616.336-.431.844-1.083 1.109-1.177a.581.581 0 0 1 .103-.007c.029 0 .058-.001.086.001 1.256-.006 1.461-.791 1.491-1.129a2.02 2.02 0 0 0-.014-.435h2.05C16 10 16 8 16 8V0h-5.41l-1 1H8.031S6.004.797 6.004 3h-2.22l.287 1.436a8.285 8.285 0 0 0-2.193 1.241c-.888.6-1.905 1.77-1.791 3.952-.263 1.17.075 2.58.922 3.814C2.127 15.077 3.661 15.876 4.808 16z"/></g><g id="icon_x5F_bg"><path class="st2" d="M5.894 7.611l-.182-.069-.096-.483c.157-.018.322-.032.498-.041.626-.072 1.125-.044 1.469.033a4.945 4.945 0 0 0-1.073.754c-.248-.049-.423-.118-.616-.194z"/><path class="st3" d="M15 8V1h-3.996l-1 1H8.031S7 1.984 7 3.063V4h-.729c.661 0 1.305.123 1.911.364 1.93.769 2.554 1.869 2.746 2.617.631.427.887 1.099.92 1.195.1.279.061.578-.08.825h2.263C15.125 9 15 8 15 8zm-1-2l-.996-2H8V3h3.004l1-1H14v4z"/><path class="st2" d="M10.543 9.294c-.617-.507-1.236-.491-1.484-.501.334-.091.76-.04.926-.644.125-.156.922.359.922.359s-.252-.712-.9-.856c.014-.157.057-1.464-2.193-2.359C5.1 4.213 2.498 6.466 2.438 6.505 1.469 7.16.979 8.213 1.096 9.722c-.207.724-.127 1.896.738 3.156 1.164 1.701 2.826 2.308 3.598 2.111.154-.039.179-.223.235-.359.035-.068-.084-.547-.021-.625.016 0 .457-.139 1.459-.563.926-.392 1.833-2.453 2.911-2.824.389-.137.953.078.984-.272a1.251 1.251 0 0 0-.457-1.052zM2.25 7.505S3.137 6.174 6 6.025c2.775-.318 3.371.988 3.359 1.515 0 .029-1.324.011-2.484 1.318-1.493-.108-1.441-.682-2.896-.52-.602.067-1.303.455-1.625.645-.23-.125-.588-1.021-.104-1.478zm1.607 5.862c-.078.519-.559.385-.658.385-.521-.195-1.556-1.241-1.199-2.728.344-.011 1.033-.092 1.25.25.643 1.013.662 1.723.607 2.093zm1.413-1.926c-.098.329-.439.537-.641.812-.504-.832-1.213-1.832-1.65-2.644.5-.667 2.534-.179 3.438-.209-.521.542-.808.911-1.147 2.041zm3.918-1.436c-.826.303-1.438 1.069-1.646 1.333-.459.596-.938 1.625-1.804 1.677 0-.029-.004-.058-.006-.088a3.17 3.17 0 0 1 .049-.674c.271-.372.646-1.007.885-1.309.938-1.202 2.076-1.88 2.113-1.929.148.02.963.049 1.193.302.458.502-.265.493-.784.688z"/></g><path class="st4" d="M13.004 4l1 2V2h-2l-1 1h-3v1z" id="icon_x5F_fg"/></svg>