<svg xmlns="http://www.w3.org/2000/svg" viewBox="0 0 16 16"><style>.st0{opacity:0}.st0,.st1{fill:#f6f6f6}.st2{fill:#424242}</style><g id="outline"><path class="st0" d="M0 0h16v16H0z"/><path class="st1" d="M16 7v9H4v-.209c-.998-.336-2.122-1.098-2.991-2.367-.847-1.232-1.185-2.639-.921-3.807C-.027 7.44.99 6.273 1.876 5.674c.579-.465 2.174-1.558 4.125-1.655L6 4a4 4 0 0 1 8 0c0 1.201-.661 2.266-1.5 3H16z"/></g><g id="icon_x5F_bg"><path class="st2" d="M8.181 4.364a5.114 5.114 0 0 0-1.174-.294C7.007 4.045 7 4.024 7 4a3 3 0 0 1 6 0 2.993 2.993 0 0 1-2.114 2.852c-.227-.74-.876-1.761-2.705-2.488zM15 8h-3l-.143.215a.999.999 0 0 1-.167.9c.262.445.336.93.303 1.307-.03.338-.236 1.121-1.492 1.127-.027-.002-.057 0-.085 0-.035 0-.07 0-.105.006-.264.094-.771.744-1.108 1.176-.533.682-1.037 1.326-1.711 1.611-.336.143-.605.252-.826.338-.01.103-.046.211-.093.32H15V8z"/><path class="st2" d="M10.54 9.283c-.617-.505-1.236-.49-1.484-.5.334-.09.76-.039.926-.642.124-.155.921.359.921.359s-.252-.711-.9-.855c.014-.156.057-1.46-2.192-2.354C5.099 4.213 2.497 6.461 2.437 6.5c-.968.653-1.458 1.703-1.341 3.21-.207.721-.127 1.891.737 3.148 1.164 1.699 2.826 2.303 3.597 2.107.154-.039.179-.223.235-.357.035-.068-.084-.547-.021-.625.016 0 .457-.139 1.459-.561.926-.393 1.832-2.449 2.91-2.818.389-.137.953.078.984-.272a1.247 1.247 0 0 0-.457-1.049zM2.249 7.499s.887-1.329 3.749-1.477c2.775-.318 3.37.986 3.358 1.512 0 .029-1.323.01-2.483 1.316-1.493-.109-1.441-.683-2.895-.521-.602.068-1.303.455-1.625.645-.23-.124-.587-1.018-.104-1.475zm1.607 5.849c-.078.517-.559.385-.658.385-.521-.195-1.556-1.238-1.199-2.723.344-.012 1.033-.09 1.25.25.643 1.009.662 1.719.607 2.088zm1.412-1.922c-.097.33-.438.535-.64.811-.504-.83-1.213-1.828-1.65-2.639.5-.665 2.533-.18 3.438-.209-.522.543-.809.908-1.148 2.037zm3.917-1.432c-.825.301-1.438 1.064-1.645 1.328-.459.594-.938 1.621-1.804 1.674 0-.029-.004-.059-.006-.088a3.16 3.16 0 0 1 .049-.672c.271-.371.646-1.006.885-1.307.938-1.199 2.076-1.874 2.113-1.923.147.02.962.049 1.192.299.458.504-.265.494-.784.689z"/></g></svg>