<svg xmlns="http://www.w3.org/2000/svg" viewBox="0 0 16 16"><style>.st0{opacity:0}.st0,.st1{fill:#f6f6f6}.st2{fill:#424242}</style><g id="outline"><path class="st0" d="M0 0h16v16H0z"/><path class="st1" d="M16 13H8.988c-.458.576-.913 1.096-1.496 1.342-.336.143-.605.252-.826.338a1.056 1.056 0 0 1-.111.385c-.039.141-.231.705-.879.869a2.223 2.223 0 0 1-.558.066c-1.167 0-2.891-.797-4.109-2.576-.847-1.232-1.185-2.639-.921-3.807C.011 8.163.442 7.167 1 6.482V0h15v13z"/></g><g id="icon_x5F_bg"><path class="st2" d="M2 1h1v1H2zM4 3h1v1H4zM6 3h1v1H6zM2 5v.58c.209-.161.502-.365.87-.58H2zM10 1h1v1h-1zM8 1h1v.999H8zM10 3h1v1h-1zM10.416 11.549c-.035 0-.07 0-.105.006-.083.029-.193.125-.311.24V12h1v-.508a2.332 2.332 0 0 1-.499.057c-.027-.002-.057 0-.085 0zM4 1h1v1H4zM6 1h1v1H6zM8 3h1v1H8zM2 3h1v.999H2zM14 9h1v1h-1zM14 11h1v1h-1zM12 1h1v1h-1zM12 3h1v1h-1zM14 7h1v.999h-1zM14 1h1v1h-1zM14 3h1v1h-1zM14 5h1v1h-1zM12 11h1v1h-1zM10.54 9.283c-.617-.505-1.236-.49-1.484-.5.334-.09.76-.039.926-.642.124-.155.921.359.921.359s-.252-.711-.9-.855c.014-.156.057-1.46-2.192-2.354C5.099 4.213 2.497 6.461 2.437 6.5c-.968.653-1.458 1.703-1.341 3.21-.207.721-.127 1.891.738 3.148 1.163 1.699 2.825 2.303 3.596 2.107.154-.039.179-.223.235-.357.035-.068-.084-.547-.021-.625.016 0 .457-.139 1.459-.561.926-.393 1.833-2.449 2.91-2.818.389-.137.953.078.984-.272a1.247 1.247 0 0 0-.457-1.049zM2.249 7.499s.887-1.329 3.749-1.477c2.775-.318 3.37.986 3.358 1.512 0 .029-1.323.01-2.483 1.316-1.492-.109-1.441-.683-2.895-.521-.602.068-1.303.455-1.625.645-.23-.124-.587-1.018-.104-1.475zm1.607 5.849c-.078.517-.559.385-.658.385-.521-.195-1.556-1.238-1.199-2.723.344-.012 1.033-.09 1.25.25.643 1.009.662 1.719.607 2.088zm1.413-1.922c-.098.33-.439.535-.641.811-.504-.83-1.213-1.828-1.65-2.639.5-.665 2.533-.18 3.438-.209-.522.543-.809.908-1.147 2.037zm3.916-1.432c-.825.301-1.438 1.064-1.645 1.328-.459.594-.938 1.621-1.804 1.674 0-.029-.004-.059-.006-.088a3.16 3.16 0 0 1 .049-.672c.271-.371.646-1.006.885-1.307.938-1.199 2.076-1.874 2.113-1.923.148.02.962.049 1.192.299.458.504-.265.494-.784.689z"/></g></svg>