<svg xmlns="http://www.w3.org/2000/svg" viewBox="0 0 16 16"><style>.st0{opacity:0}.st0,.st1{fill:#f6f6f6}.st2{fill:#424242}.st3{fill:#f0eff1}</style><g id="outline"><path class="st0" d="M0 0h16v16H0z"/><path class="st1" d="M16 0v12h-4.766C10 12 10 13 10 13H8.988c-.458.576-.913 1.096-1.496 1.342-.336.143-.605.252-.826.338a1.056 1.056 0 0 1-.111.385c-.039.141-.231.705-.879.869a2.223 2.223 0 0 1-.558.066c-1.167 0-2.891-.797-4.109-2.576A5.905 5.905 0 0 1 .307 12H0V0h6c.9.006 1.481.615 1.999 1C8.517.618 9.11 0 10 0h6z"/></g><path class="st2" d="M15 11h-3.215c.144-.211.195-.434.208-.578A2.097 2.097 0 0 0 11.98 10H14V2h-3.372C9.645 2 9 2.508 9 2.967v1.79a6.893 6.893 0 0 0-.819-.393A5.06 5.06 0 0 0 7 4.069V3c0-.4-.714-1-1.659-1H2v3.58c-.04.032-.09.067-.123.094-.294.2-.6.467-.877.808V1h5c.894.006 1.288.373 1.999 1C8.72 1.364 9.126 1 10 1h5v10zm-4.003-.666c-.031.35-.596.135-.984.272-1.077.369-1.984 2.426-2.91 2.818-1.002.422-1.443.561-1.459.561-.063.078.057.557.021.625-.057.135-.081.318-.235.357-.771.195-2.433-.408-3.596-2.107-.865-1.258-.945-2.428-.738-3.148-.117-1.508.373-2.558 1.341-3.212.061-.039 2.662-2.287 5.374-1.21 2.249.895 2.206 2.198 2.192 2.354.648.145.9.855.9.855s-.797-.515-.922-.358c-.166.604-.591.553-.925.643.248.01.867-.006 1.484.5.395.323.481.775.457 1.05zM2.249 7.499c-.483.457-.126 1.351.104 1.475.322-.19 1.023-.577 1.625-.646 1.454-.161 1.403.413 2.895.522 1.16-1.307 2.483-1.287 2.483-1.316.012-.525-.583-1.83-3.358-1.512-2.862.147-3.749 1.477-3.749 1.477zm1.607 5.849c.055-.369.035-1.078-.607-2.088-.217-.34-.906-.262-1.25-.25-.356 1.484.678 2.527 1.199 2.723.1-.001.58.132.658-.385zm1.413-1.922c.339-1.129.625-1.494 1.146-2.037-.904.029-2.937-.456-3.437.209.438.811 1.146 1.809 1.65 2.639.201-.276.543-.481.641-.811zM9.97 9.305c-.23-.25-1.044-.279-1.192-.299-.038.049-1.176.724-2.114 1.924-.238.301-.613.936-.885 1.307a3.16 3.16 0 0 0-.049.672c.002.029.006.059.006.088.866-.053 1.345-1.08 1.804-1.674.207-.264.819-1.027 1.645-1.328.519-.196 1.242-.186.785-.69z" id="icon_x5F_bg"/><path class="st3" d="M7 6.977V7.4a5.028 5.028 0 0 0-.492.397 3.229 3.229 0 0 1-.617-.193c-.34-.135-.764-.301-1.441-.301h-.054c.438-.14.999-.253 1.716-.291.335-.037.63-.046.888-.035zm3.925-.002c.632.426.887 1.097.922 1.192a1 1 0 0 1-.156.948c.172.293.257.6.29.885H14V2h-3.372C9.645 2 9 2.508 9 2.967v1.79c1.288.719 1.764 1.591 1.925 2.218zM7 4.069V3c0-.4-.714-1-1.659-1H2v3.58C2.685 5.053 4.31 4 6.27 4c.248 0 .489.035.73.069z" id="icon_x5F_fg"/></svg>