<svg xmlns="http://www.w3.org/2000/svg" viewBox="0 0 16 16"><style>.st0{opacity:0}.st0,.st1{fill:#f6f6f6}.st2{fill:#424242}</style><g id="outline"><path class="st0" d="M0 0h16v16H0z"/><path class="st1" d="M15.446 6.74a1.002 1.002 0 0 0 .211-1.157c-.149-.501-.491-1.161-1.104-1.564-.19-.94-.936-2.482-3.644-3.56A6.343 6.343 0 0 0 8.554.014c-2.884 0-5.382 1.851-6.288 2.625C.703 3.695.02 5.84.125 7.495c-.365 1.535.083 3.413 1.219 5.068C2.972 14.938 5.241 16 6.77 16c.243 0 .473-.026.684-.08.51-.13.903-.476 1.106-.974.087-.213.138-.507.163-.779l.135-.101c.224-.17.442-.279 1.101-.609.669-.353 1.365-1.037 2.102-1.76.787-.773 1.679-1.649 2.326-1.872.137-.048.262-.086.37-.118.426-.128 1.138-.342 1.234-1.133.062-.533-.168-1.265-.545-1.834zm-6.26-1.639a47.604 47.604 0 0 1-.524-.125 1.494 1.494 0 0 0-.227-.036c-.093-.006-.213-.038-.362-.075l-.157-.039c-.684-.166-1.717-.418-2.963-.418-.166 0-.335.005-.506.014.775-.339 2.066-.711 3.813-.829a8.46 8.46 0 0 1 .935-.057c.734 0 1.324.127 1.732.37a6.603 6.603 0 0 0-1.741 1.195z"/></g><path class="st2" d="M14.36 6.985c-.838-.738-1.731-.688-2.078-.701.469-.127 1.141-.299 1.375-1.143.643-.012 1.078.875 1.078.875s-.219-1.125-1.125-1.328c.017-.219.078-2.047-3.07-3.299-3.799-1.51-7.629 2.024-7.715 2.079-1.355.916-1.816 2.885-1.689 4.115-.291 1.012-.178 2.651 1.033 4.415 1.631 2.379 3.957 3.227 5.037 2.953a.605.605 0 0 0 .428-.383c.051-.096.129-.615.105-.93.021 0 .127-.082.514-.369.307-.232.584-.369 1.238-.697 1.244-.656 3.053-3.171 4.562-3.69.543-.191.92-.232.943-.424.046-.383-.261-1.131-.636-1.473zM2.981 3.964C4.024 2.911 6.659 2.501 8.13 2.351c3.887-.443 4.639 1.584 4.621 2.322 0 .041-1.531-.031-3.156 1.797-.031 0-.859-.188-1.234-.281-.594-.031-1.965-.961-4-.734-.844.093-1.313.28-1.766.546-.182-.369-.26-1.326.386-2.037zm1.098 9.256c-.729-.273-2.328-1.891-1.828-3.969.482-.016 1.445.271 1.75.75.898 1.416 1.078 2.163 1 2.681-.109.725-.781.538-.922.538zm2.002-2.097c-.492-.82-1.371-2.255-2.045-3.144.184-.228.488-.507.902-.603.893-.205 2.672-.162 3.938-.203-.229.273-1.422 1.234-1.897 2.815-.138.46-.615.752-.898 1.135zm6.27-3.304c-1.156.424-2.043 1.531-2.334 1.9-.643.833-1.758 2.142-2.383 2.47a1.27 1.27 0 0 0-.008-.123 4.466 4.466 0 0 1 .068-.943c.381-.519.906-1.407 1.238-1.831 1.314-1.682 2.908-2.629 2.959-2.697.209.027 1.35.068 1.672.422.641.703-.484.529-1.212.802z" id="icon_x5F_bg"/></svg>