<svg xmlns="http://www.w3.org/2000/svg" viewBox="0 0 16 16"><style>.st0{opacity:0}.st0,.st1{fill:#f6f6f6}.st2{fill:#dcb67a}.st3{fill:#f0eff1}.st4{fill:#424242}</style><path class="st0" d="M0 0h16v16H0z" id="outline"/><g id="icon_x5F_bg"><path class="st1" d="M14.5 0H7.386l-1 2H3.5C2.673 2 2 2.673 2 3.5v2.059c-.04.031-.089.066-.123.093-.887.6-1.905 1.77-1.79 3.952-.263 1.17.075 2.58.921 3.814C2.229 15.202 3.952 16 5.119 16c.198 0 .387-.023.559-.065.648-.164.84-.731.879-.872.068-.133.1-.262.112-.385.22-.087.491-.197.826-.339.674-.285 1.178-.932 1.712-1.616.169-.219.383-.492.588-.723H14.5c.827 0 1.5-.673 1.5-1.5v-9c0-.827-.673-1.5-1.5-1.5z"/><path class="st2" d="M6.51 7.781a4.97 4.97 0 0 1 1.073-.754 3.464 3.464 0 0 0-.771-.076c-.212 0-.445.014-.698.043a6.798 6.798 0 0 0-1.717.292h.053c.678 0 1.102.167 1.443.302.193.075.369.144.617.193z"/><path class="st2" d="M14.5 1H8.004l-1 2H3.5a.5.5 0 0 0-.5.5v1.4c.831-.465 1.98-.925 3.271-.925.662 0 1.305.123 1.911.364 1.93.769 2.554 1.869 2.745 2.617.632.427.887 1.099.921 1.195l.15 2.227-.003.033a1.242 1.242 0 0 1-.215.589h2.72a.5.5 0 0 0 .5-.5v-9a.5.5 0 0 0-.5-.5zm-.496 2h-5.5l.5-1h5v1z"/><path class="st3" d="M9.008 2h-.004l-.5 1H14l.008-.001V2z"/><path class="st2" d="M6.51 7.781a4.97 4.97 0 0 1 1.073-.754 3.464 3.464 0 0 0-.771-.076c-.212 0-.445.014-.698.043a6.798 6.798 0 0 0-1.717.292h.053c.678 0 1.102.167 1.443.302.193.075.369.144.617.193z"/><path class="st4" d="M10.543 9.27c-.617-.507-1.236-.492-1.484-.501.334-.091.76-.04.926-.644.125-.156.922.359.922.359s-.252-.712-.9-.856c.014-.157.057-1.464-2.193-2.359C5.1 4.188 2.498 6.441 2.438 6.48c-.969.656-1.459 1.708-1.342 3.217-.207.724-.127 1.896.738 3.156 1.164 1.701 2.826 2.308 3.598 2.111.154-.039.179-.223.235-.359.035-.068-.084-.547-.021-.625.016 0 .457-.139 1.459-.563.926-.392 1.833-2.453 2.911-2.824.389-.137.953.078.984-.271a1.251 1.251 0 0 0-.457-1.052zM6 6c2.775-.317 3.371.988 3.359 1.516 0 .029-1.324.011-2.484 1.318-1.493-.108-1.441-.683-2.896-.52-.602.067-1.303.455-1.625.645-.23-.125-.588-1.021-.104-1.479 0 0 .887-1.331 3.75-1.48zm-2.801 7.727C2.678 13.532 1.643 12.486 2 11c.344-.011 1.033-.092 1.25.25.643 1.013.662 1.723.607 2.093-.078.518-.558.384-.658.384zm1.43-1.498c-.504-.832-1.213-1.832-1.65-2.645.5-.666 2.534-.179 3.438-.208-.521.542-.808.91-1.147 2.041-.098.329-.44.537-.641.812zM9.188 9.98c-.826.303-1.438 1.069-1.646 1.333-.459.596-.938 1.625-1.804 1.677 0-.029-.004-.059-.006-.088a3.17 3.17 0 0 1 .049-.674c.271-.372.646-1.007.885-1.31.938-1.202 2.076-1.88 2.113-1.929.148.02.963.049 1.193.302.458.504-.265.494-.784.689z"/></g><path class="st3" d="M6 6c2.775-.317 3.371.988 3.359 1.516 0 .029-1.324.011-2.484 1.318-1.493-.108-1.441-.683-2.896-.52-.602.067-1.303.455-1.625.645-.23-.125-.588-1.021-.104-1.479 0 0 .887-1.331 3.75-1.48zm-2.801 7.727C2.678 13.532 1.643 12.486 2 11c.344-.011 1.033-.092 1.25.25.643 1.013.662 1.723.607 2.093-.078.518-.558.384-.658.384zm1.43-1.498c-.504-.832-1.213-1.832-1.65-2.645.5-.666 2.534-.179 3.438-.208-.521.542-.808.91-1.147 2.041-.098.329-.44.537-.641.812zM9.188 9.98c-.826.303-1.438 1.069-1.646 1.333-.459.596-.938 1.625-1.804 1.677 0-.029-.004-.059-.006-.088a3.17 3.17 0 0 1 .049-.674c.271-.372.646-1.007.885-1.31.938-1.202 2.076-1.88 2.113-1.929.148.02.963.049 1.193.302.458.504-.265.494-.784.689z" id="icon_x5F_fg"/></svg>