<svg xmlns="http://www.w3.org/2000/svg" viewBox="0 0 16 16"><style>.st0{opacity:0}.st0,.st1{fill:#f6f6f6}.st2{fill:#424242}.st3{fill:#f0eff1}</style><g id="outline"><path class="st0" d="M0 0h16v16H0z"/><path class="st1" d="M15.99 6.041A6.222 6.222 0 0 0 9.75 0a6.253 6.253 0 0 0-6.007 4.539 8.487 8.487 0 0 0-1.865 1.113C.991 6.252-.027 7.42.087 9.604c-.263 1.169.074 2.579.921 3.814C2.229 15.202 3.953 16 5.119 16c.197 0 .385-.016.559-.059.647-.164.84-.723.879-.864a.968.968 0 0 0 .111-.372c.221-.086.491-.167.827-.309.673-.286 1.177-.874 1.71-1.559.106-.137.231-.28.359-.421.354.036.704.066.796.058A6.223 6.223 0 0 0 16 6.254c0-.056-.003-.112-.01-.213z"/></g><g id="icon_x5F_bg"><path class="st2" d="M11 10.322c-.031.35-.596.135-.984.271-1.078.371-1.985 2.432-2.911 2.824-1.002.424-1.443.563-1.459.563-.063.078.057.557.021.625-.057.137-.081.32-.235.359-.771.195-2.434-.41-3.598-2.111-.865-1.262-.945-2.434-.738-3.156-.117-1.509.373-2.562 1.342-3.217.06-.039 2.662-2.292 5.375-1.212 2.25.896 2.207 2.203 2.193 2.359.648.145.9.857.9.857s-.797-.516-.922-.359c-.166.604-.591.553-.925.643.248.01.867-.006 1.484.502.395.324.481.777.457 1.052zM2.25 7.48c-.484.458-.126 1.354.104 1.479.322-.191 1.023-.578 1.625-.646 1.455-.163 1.403.412 2.896.521 1.16-1.309 2.484-1.289 2.484-1.318C9.371 6.988 8.775 5.682 6 6c-2.863.148-3.75 1.48-3.75 1.48zm1.607 5.862c.055-.369.035-1.08-.607-2.092-.217-.342-.906-.262-1.25-.25-.357 1.486.678 2.531 1.199 2.727.1 0 .58.134.658-.385zm1.413-1.926c.34-1.131.626-1.498 1.147-2.041-.904.029-2.938-.457-3.438.209.438.813 1.146 1.813 1.65 2.645.201-.276.543-.483.641-.813zm4.703-2.125c-.231-.252-1.045-.281-1.194-.301-.037.049-1.176.727-2.113 1.928-.238.303-.613.938-.885 1.311a3.17 3.17 0 0 0-.049.674c.002.029.006.059.006.088.866-.053 1.345-1.082 1.804-1.678.207-.264.819-1.029 1.646-1.332.519-.196 1.242-.186.785-.69z"/><path class="st2" d="M4.563 7.012c.609.034 1.012.307 1.332.433.192.076.367.216.615.265a4.64 4.64 0 0 1 .922-.631c-.258-.05-.494-.106-.729-.164-.183-.026-.377-.097-.59-.072-.634.033-1.141.126-1.552.148l.002.021zM14.991 6.078A5.246 5.246 0 0 0 9.75 1.005a5.245 5.245 0 0 0-4.797 3.132 5.807 5.807 0 0 1 1.318-.162c.662 0 1.305.122 1.911.363a6.107 6.107 0 0 1 1.431.792c.046.001.087.008.133.009l.302.002c.366 0 .737-.012 1.116-.041.028.254.049.514.053.785a6.34 6.34 0 0 1-.126 1.213c.398.334.619.727.706.929a9.533 9.533 0 0 0 2.084-.536A4.31 4.31 0 0 1 11.97 9.94l.029.438-.003.263c-.008.089-.03.227-.079.38C13.731 10.193 15 8.379 15 6.256c0-.061-.008-.119-.009-.178zM7.639 4.121a14.216 14.216 0 0 1-1.427-.328 4.32 4.32 0 0 1 1.976-1.554 9.847 9.847 0 0 0-.549 1.882zm2.115.2a12.703 12.703 0 0 1-1.304-.083 9.12 9.12 0 0 1 .751-2.256c.18-.023.362-.039.549-.039.124 0 .245.008.366.019.351.608.708 1.384.915 2.33-.427.029-.849.033-1.277.029zm1.406-2.137a4.307 4.307 0 0 1 2.151 1.641c-.515.177-1 .3-1.463.372a8.672 8.672 0 0 0-.688-2.013zm2.889 4.351a8.812 8.812 0 0 1-2.136.648 6.907 6.907 0 0 0 .063-2.174 9.533 9.533 0 0 0 1.737-.453c.224.521.349 1.096.349 1.699.001.095-.007.187-.013.28z"/></g><g id="icon_x5F_fg"><path class="st3" d="M11.977 5.01c.545-.086 1.057-.232 1.674-.453.223.521.399 1.096.399 1.699 0 .094.006.187 0 .279a8.805 8.805 0 0 1-2.137.648 6.907 6.907 0 0 0 .064-2.173zM13.311 3.825c-.515.177-1 .3-1.463.372a8.766 8.766 0 0 0-.688-2.013 4.307 4.307 0 0 1 2.151 1.641zM10.928 6.955c.064.043.108.096.163.143.08-.428.13-.836.126-1.213a7.913 7.913 0 0 0-.053-.785c-.379.029-.75.056-1.116.056h-.302c-.036-.002-.07-.006-.105-.006.812.621 1.156 1.295 1.287 1.805zM9.75 1.943c.124 0 .245.008.366.019.351.608.706 1.384.913 2.33-.428.029-.852.068-1.279.064a12.279 12.279 0 0 1-1.3-.1 9.271 9.271 0 0 1 .751-2.273c.18-.024.362-.04.549-.04zM8.188 2.239a9.847 9.847 0 0 0-.549 1.882 14.216 14.216 0 0 1-1.427-.328 4.32 4.32 0 0 1 1.976-1.554zM11.797 8.025c.022.054.046.108.052.127l.119 1.761c.904-.559 1.605-1.432 1.912-2.458-.753.283-1.435.48-2.083.57z"/></g></svg>