<svg xmlns="http://www.w3.org/2000/svg" viewBox="0 0 16 16"><style>.st0{opacity:0}.st0,.st1{fill:#f6f6f6}.st2{fill:#424242}.st3{fill:#f0eff1}</style><g id="outline"><path class="st0" d="M0 0h16v16H0z"/><path class="st1" d="M16 1v11H9.949a4.072 4.072 0 0 0-.743.723c-.534.684-1.038 1.331-1.712 1.616-.335.142-.606.252-.826.339a1.04 1.04 0 0 1-.112.385c-.039.142-.231.708-.879.872-.172.042-.36.065-.558.065-1.166 0-2.89-.798-4.11-2.582-.847-1.233-1.185-2.644-.921-3.814-.115-2.183.903-3.353 1.79-3.952C2.353 5.27 3.517 4.461 5 4.128V0h6v1h5z"/></g><g id="icon_x5F_bg"><path class="st2" d="M11 2v5.015c.381.283.618.647.741.89a1.001 1.001 0 0 1-.039 1.211c.254.443.327 1.152.294 1.525a1.842 1.842 0 0 1-.071.359H15V2h-4z"/><path class="st2" d="M12 9h2v1h-2zM12 7h2v1h-2zM12 3h2v2h-2z"/><path class="st3" d="M12 9h2v1h-2V9zM9 2H7v1h2V2zm3 1v2h2V3h-2zm0 5h2V7h-2v1z"/><g><path class="st2" d="M6.271 3.976c.662 0 1.305.123 1.911.364.826.328 1.402.718 1.818 1.115V1H6v2.994c.091-.004.179-.018.271-.018z"/><path class="st2" d="M7 2h2v1H7z"/></g><path class="st3" d="M12 9h2v1h-2V9zM9 2H7v1h2V2zm3 1v2h2V3h-2zm0 5h2V7h-2v1z"/><path class="st2" d="M10.543 9.27c-.617-.507-1.236-.492-1.484-.501.334-.091.76-.04.926-.644.125-.156.922.359.922.359s-.252-.712-.9-.856c.014-.157.057-1.464-2.193-2.359C5.1 4.188 2.498 6.441 2.438 6.48c-.969.656-1.459 1.708-1.342 3.217-.207.724-.127 1.896.738 3.156 1.164 1.701 2.826 2.308 3.598 2.111.154-.039.179-.223.235-.359.035-.068-.084-.547-.021-.625.016 0 .457-.139 1.459-.563.926-.392 1.833-2.453 2.911-2.824.389-.137.953.078.984-.271a1.251 1.251 0 0 0-.457-1.052zM2.25 7.48S3.137 6.149 6 6c2.775-.317 3.371.988 3.359 1.516 0 .029-1.324.011-2.484 1.318-1.493-.108-1.441-.683-2.896-.52-.602.067-1.303.455-1.625.645-.23-.125-.588-1.021-.104-1.479zm1.607 5.863c-.078.519-.559.385-.658.385C2.678 13.532 1.643 12.486 2 11c.344-.011 1.033-.092 1.25.25.643 1.013.662 1.723.607 2.093zm1.413-1.926c-.098.329-.439.537-.641.812-.504-.832-1.213-1.832-1.65-2.645.5-.666 2.534-.179 3.438-.208-.521.542-.808.91-1.147 2.041zM9.188 9.98c-.826.303-1.438 1.069-1.646 1.333-.459.596-.938 1.625-1.804 1.677 0-.029-.004-.059-.006-.088a3.17 3.17 0 0 1 .049-.674c.271-.372.646-1.007.885-1.31.938-1.202 2.076-1.88 2.113-1.929.148.02.963.049 1.193.302.458.504-.265.494-.784.689z"/></g><path class="st3" d="M12 9h2v1h-2V9zM9 2H7v1h2V2zm3 1v2h2V3h-2zm0 5h2V7h-2v1z" id="icon_x5F_fg"/></svg>