<svg xmlns="http://www.w3.org/2000/svg" viewBox="0 0 16 16"><style>.st0{opacity:0}.st0,.st1{fill:#f6f6f6}.st2{fill:#424242}.st3{fill:#f0eff1}</style><g id="outline"><path class="st0" d="M0 0h16v16H0z"/><path class="st1" d="M15.693 5.101a.998.998 0 0 0 .155-.95c-.033-.096-.289-.768-.92-1.195-.192-.748-.816-1.848-2.746-2.617a5.153 5.153 0 0 0-1.911-.364c-2.077 0-3.79 1.19-4.394 1.677A3.969 3.969 0 0 0 4.238 4H0v12h9v-4.01c.038.002.081.01.118.01.199 0 .387-.021.559-.066.648-.164.841-.729.879-.871a1.04 1.04 0 0 0 .112-.385c.22-.086.491-.197.826-.339.675-.285 1.179-.932 1.712-1.616.336-.431.844-1.083 1.109-1.176a.581.581 0 0 1 .103-.007c.029 0 .058-.001.086.001 1.256-.005 1.461-.791 1.491-1.129a2.248 2.248 0 0 0-.302-1.311zm-5.183-1.32c-.248-.049-.423-.118-.616-.194-.342-.135-.766-.302-1.444-.302h-.053c.436-.14.999-.253 1.717-.292.626-.072 1.125-.044 1.469.033a4.982 4.982 0 0 0-1.073.755z"/></g><path class="st2" d="M14.543 5.27c-.617-.507-1.236-.491-1.484-.501.334-.091.76-.04.926-.644.125-.156.922.359.922.359s-.252-.712-.9-.856c.014-.157.057-1.464-2.193-2.359C9.1.188 6.498 2.441 6.438 2.48A2.93 2.93 0 0 0 5.279 4h.74a.786.786 0 0 1 .23-.52S7.136 2.149 9.999 2c2.775-.317 3.371.988 3.359 1.516 0 .029-1.324.011-2.484 1.318C9.856 4.76 9.55 4.473 9 4.348v.927c.539.047 1.064.113 1.417.102-.521.541-.808.909-1.147 2.04-.047.159-.153.289-.27.412v3.159c.16.011.31.008.432-.024.154-.039.179-.223.235-.359.035-.068-.084-.547-.021-.625.016 0 .457-.139 1.459-.563.926-.392 1.833-2.453 2.911-2.824.388-.136.953.079.984-.271a1.251 1.251 0 0 0-.457-1.052zm-1.355.71c-.826.303-1.439 1.069-1.646 1.333-.459.596-.938 1.625-1.804 1.677 0-.029-.004-.059-.006-.088a3.17 3.17 0 0 1 .049-.674c.271-.372.646-1.007.885-1.31.938-1.202 2.076-1.88 2.113-1.929.148.02.963.049 1.193.302.458.504-.265.494-.784.689zM1 5v10h7V5H1zm2 9H2v-1h1v1zm2 0H4v-1h1v1zm2 0H6v-1h1v1zm0-2H2V6h5v6z" id="icon_x5F_bg"/><path class="st3" d="M5 14H4v-1h1v1zm2-1H6v1h1v-1zm-4 0H2v1h1v-1zm4-7H2v6h5V6z" id="icon_x5F_fg"/></svg>