<svg xmlns="http://www.w3.org/2000/svg" viewBox="0 0 16 16"><style>.st0{opacity:0}.st0,.st1{fill:#f6f6f6}.st2{fill:#424242}.st3{fill:#f0eff1}</style><g id="outline"><path class="st0" d="M0 0h16v16H0z"/><path class="st1" d="M10.964 16C10.012 16 9 15.299 9 14H7.99c-.029.825-.595 2-2.036 2h-3C2.002 16 .99 15.299.99 14v-4c0-1.299 1.011-2 1.963-2h2.834L7 9.536V8h-.036C6.012 8 5 7.299 5 6V2C5 .701 6.011 0 6.963 0h2.834L12 2.789V6c-.029.818-.585 1.98-2 2v.247c.299-.164.635-.247.963-.247h2.834L16 10.789V14c-.029.825-.595 2-2.036 2h-3z"/></g><path class="st2" d="M13.313 9h-2.35S10 9 10 10v2H9V7h.964C10.964 7 11 6 11 6V3.136L9.313 1h-2.35S6 1 6 2v4c0 1 .964 1 .964 1H8v5H6.99v-.863L5.302 9h-2.35s-.963 0-.963 1v4c0 1 .964 1 .964 1h3c1 0 1.036-1 1.036-1v-1H10v1c0 1 .964 1 .964 1h3c1 0 1.036-1 1.036-1v-2.863L13.313 9zM7 6V2h2v1h1v3H7zm-1.01 7v1h-3v-4h2v1h1v2zM14 13v1h-3v-4h2v1h1v2z" id="icon_x5F_bg"/><g id="icon_x5F_fg"><path class="st3" d="M7 2h2v1h1v3H7zM2.99 10h2v1h1v3h-3zM11 10h2v1h1v3h-3z"/></g></svg>