<svg xmlns="http://www.w3.org/2000/svg" viewBox="0 0 16 16"><style>.icon-vs-fg{fill:#f0eff1}.icon-vs-bg{fill:#424242}.icon-vs-out{fill:#f6f6f6}.icon-canvas-transparent{opacity:0;fill:#f6f6f6}</style><path class="icon-canvas-transparent" d="M16 16H0V0h16v16z" id="canvas"/><path class="icon-vs-out" d="M16 1v14H0V5.586L1.556 4.03 0 2.475l-.037-.147v-.645L1.646 0h.828L4.03 1.556 5.586 0h.828l1.025 1.025L8.414 1H16z" id="outline"/><path class="icon-vs-bg" d="M15 2v12H1V7.414l1 1V13h12V3H7.535l.939-.939L8.414 2H15zm-7.939.06L6 1 4.03 2.97 2.061 1 1 2.06l1.97 1.97L1 6l1.061 1.061 1.97-1.97L6 7.061 7.061 6l-1.97-1.97 1.97-1.97z" id="iconBg"/><path class="icon-vs-fg" d="M14 3v10H2V8.414l.061.061 1.97-1.97L6 8.475 8.475 6l-1.97-1.97L7.535 3H14z" id="iconFg"/></svg>