<svg xmlns="http://www.w3.org/2000/svg" viewBox="0 0 16 16"><style>.st0{opacity:0}.st0,.st1{fill:#f6f6f6}.st2{fill:#424242}</style><g id="outline"><path class="st0" d="M0 0h16v16H0z"/><path class="st1" d="M14.367 5.038l-.156.211c-.034-.096-.07-.198-.105-.305.152.031.295.046.43.046A1.452 1.452 0 0 0 16 3.513c0-.533-.236-.875-.424-1.059-.193-.194-.539-.426-1.09-.426a1.88 1.88 0 0 0-1.304.519l-.341-.519h-.749a1.6 1.6 0 0 0 .061-.447c0-.473-.2-.896-.558-1.188C11.283.132 10.856 0 10.329 0a3.07 3.07 0 0 0-1.797.565c-.49.342-.924.857-1.324 1.569l-.71-.009-.734 2.521h.663l-.646 2.452a1.653 1.653 0 0 0-.24-.017 1.57 1.57 0 0 0-1.054.382 1.425 1.425 0 0 0-.38.537H2l2 2H0v4h4l-2 2h6l4-4-3.603-3.603c.039-.064.086-.111.124-.179.083-.154.166-.331.248-.531.074.153.174.291.297.409a1.5 1.5 0 0 0 1.065.411c.294 0 .577-.062.843-.185.243-.112.492-.301.783-.591l.106-.109c.158.25.351.451.58.602.291.188.635.284 1.019.284a1.97 1.97 0 0 0 1.124-.366c.369-.248.716-.628 1.06-1.165L16 6.426v-.461l-1.633-.927zm-3.713.572a1.569 1.569 0 0 0-1.272.108l.199-.767 1-.196c.069-.014.135-.033.196-.058.05.144.108.327.178.56-.116.141-.23.274-.301.353z"/></g><g id="icon_x5F_bg"><path class="st2" d="M10 12l-3 3H5l2-2H1v-2h6L5 9h2zM13.946 3.89c.048 0 .136.017.258.05.126.033.236.05.331.05a.448.448 0 0 0 .332-.133.462.462 0 0 0 .133-.344.47.47 0 0 0-.133-.354c-.088-.088-.215-.131-.381-.131a.878.878 0 0 0-.416.103c-.131.069-.296.216-.497.444-.149.169-.372.465-.667.889a4.27 4.27 0 0 0-.604-1.435H10.39v.746c.117-.023.527-.353.607-.353.156 0 .285.066.387.197.164.205.389.825.676 1.863a18.81 18.81 0 0 1-.736.88c-.138.145-.252.24-.343.284a.503.503 0 0 1-.233.052c-.066 0-.175-.034-.324-.105a.68.68 0 0 0-.274-.07.517.517 0 0 0-.378.145.485.485 0 0 0-.148.367.45.45 0 0 0 .137.342.518.518 0 0 0 .372.131 1 1 0 0 0 .423-.092c.131-.061.297-.192.496-.392.2-.199.748-.819 1.1-1.253.135.414.394 1.018.494 1.205.098.188.213.323.34.407a.865.865 0 0 0 .479.125.993.993 0 0 0 .567-.197c.251-.168.511-.461.774-.874l-.161-.092c-.181.244-.316.397-.4.459a.364.364 0 0 1-.204.057c-.093 0-.184-.057-.274-.171-.153-.192-.5-1.027-.755-1.902.229-.392.42-.646.576-.766a.573.573 0 0 1 .358-.132z"/><path class="st2" d="M6.563 8h.903c.059-.087.122-.16.176-.259.233-.429.474-1.121.72-2.074l.526-2.021h.635l.158-.512h-.653c.186-.737.432-1.278.739-1.618.186-.213.366-.319.545-.319a.12.12 0 0 1 .087.03.101.101 0 0 1 .035.079c0 .029-.025.085-.076.167a.45.45 0 0 0-.073.231c0 .102.038.19.117.262a.417.417 0 0 0 .297.109.428.428 0 0 0 .323-.134.488.488 0 0 0 .132-.36.515.515 0 0 0-.196-.419c-.132-.108-.341-.162-.629-.162-.45 0-.858.128-1.224.385-.367.256-.715.68-1.044 1.272-.115.205-.223.336-.325.394-.102.058-.265.087-.49.084l-.149.511h.627l-.92 3.496A21.67 21.67 0 0 1 6.563 8z"/></g></svg>