<svg xmlns="http://www.w3.org/2000/svg" width="16" height="16"><style type="text/css">.icon-canvas-transparent{opacity:0;fill:#F6F6F6;} .icon-vs-out{fill:#F6F6F6;} .icon-vs-bg{fill:#424242;} .icon-vs-fg{fill:#F0EFF1;}</style><path class="icon-canvas-transparent" d="M16 16h-16v-16h16v16z" id="canvas"/><path class="icon-vs-out" d="M7 15v-4h8v4h-8zm-4.98-.375l2.79-1.394 4.406-4.408 1 1 2.414-2.414-1-1 1.328-1.329c.904-1 .891-2.452-.035-3.379-.454-.452-1.051-.701-1.682-.701-.615 0-1.217.236-1.733.702l-1.293 1.293-1-1-2.412 2.414 1 1-4.408 4.408-1.395 2.789 2.02 2.019z" id="outline"/><path class="icon-vs-bg" d="M6.239 6.383l-4 4-1 2 1 1 2-1 4-4-2-2zm-3 4l3-3 1 1-3 3-1-1zm7-8c.586-.527 1.436-.562 2 0 .563.564.529 1.415 0 2l-2 2 1 1-1 1-4-4 1-1 1 1 2-2zm-.239 11.617h-2v-2h2v2zm4-2h-2v2h2v-2z" id="iconBg"/><g id="iconFg"><path class="icon-vs-fg" d="M3.239 10.383l3-3 1 1-3 3-1-1z"/></g></svg>