<svg xmlns="http://www.w3.org/2000/svg" viewBox="0 0 16 16"><style>.st0{opacity:0}.st0,.st1{fill:#f6f6f6}.st2{fill:#424242}.st3{fill:#f0eff1}</style><g id="outline"><path class="st0" d="M0 0h16v16H0z"/><path class="st1" d="M14 11v5H9v-1H6c-2.477 0-5-2.523-5-5V7H0V2h5v5H4v3c0 .822 1.178 2 2 2h3v-1h5zm2-7.077l-1.311-.467.891-1.876L14.403.403l-1.876.892L12.066 0H9.934l-.461 1.295L7.597.403 6.42 1.58l.892 1.876L6 3.922v2.123l1.312.467L6.41 8.41l1.164 1.164 1.898-.902L9.945 10h2.109l.473-1.328 1.899.902 1.165-1.165-.902-1.897L16 6.045V3.923z"/></g><path class="st2" d="M16 5l-2.69-.957 1.226-2.578-2.579 1.225L11 0l-.957 2.69-2.578-1.225L8.69 4.043 6 5l2.69.957-1.225 2.578 2.578-1.226L11 10l.957-2.69 2.578 1.226-1.225-2.579L16 5zm-5 2a2 2 0 1 1 .001-4.001A2 2 0 0 1 11 7zm2 5v3h-3v-1H6c-1.944 0-4-2.057-4-4V6H1V3h3v3H3v4c0 1.374 1.626 3 3 3h4v-1h3z" id="icon_x5F_bg"/><circle class="st3" cx="11" cy="5" r="2" id="icon_x5F_fg"/></svg>