<svg xmlns="http://www.w3.org/2000/svg" viewBox="0 0 16 16"><style>.st0{opacity:0}.st0,.st1{fill:#f6f6f6}.st2{fill:#424242}.st3{fill:#f0eff1}</style><g id="outline"><path class="st0" d="M0 0h16v16H0z"/><path class="st1" d="M10.414 1H3S2 .999 2 2v5.76A4.5 4.5 0 0 0 4.5 16a4.46 4.46 0 0 0 2.811-1.012L7.307 15H13c1 0 1-1 1-1V4.586L10.414 1z"/></g><g id="icon_x5F_bg"><path class="st2" d="M10 2H4S3 2 3 3v4.276a4.485 4.485 0 0 1 1-.225V3h5v3h3v7H8.949a4.472 4.472 0 0 1-.225 1H12c1 0 1-1 1-1V5l-3-3zM6.584 14.291c-.455.34-.994.574-1.584.658V13.43c.182-.049.352-.121.508-.215l1.076 1.076z"/><path class="st2" d="M7.292 13.584c.341-.455.577-.994.662-1.584H6.43c-.048.182-.122.35-.215.508l1.077 1.076zM2.785 12.508A2.006 2.006 0 0 1 2.57 12H1.046c.085.59.321 1.129.662 1.584l1.077-1.076zM2.416 14.291c.455.34.994.574 1.584.658V13.43a1.976 1.976 0 0 1-.508-.215l-1.076 1.076z"/><g><path class="st2" d="M3.492 9.785c.156-.094.326-.168.508-.215V8.05a3.468 3.468 0 0 0-1.584.659l1.076 1.076zM1.708 9.414A3.47 3.47 0 0 0 1.046 11H2.57c.048-.182.122-.352.215-.508L1.708 9.414z"/></g><g><path class="st2" d="M6.584 8.709A3.456 3.456 0 0 0 5 8.051v1.52c.182.047.352.121.508.215l1.076-1.077zM6.215 10.492c.093.156.167.326.215.508h1.524a3.47 3.47 0 0 0-.662-1.586l-1.077 1.078z"/></g></g><path class="st3" d="M9 6V3H4v4.051c.167-.019.329-.051.5-.051C6.985 7 9 9.016 9 11.5v1c0 .171-.032.334-.05.5H12V6H9z" id="icon_x5F_fg"/></svg>