<svg xmlns="http://www.w3.org/2000/svg" viewBox="0 0 16 16"><style>.st0{opacity:0}.st0,.st1{fill:#f6f6f6}.st2{fill:#424242}.st3{fill:#f0eff1}</style><g id="outline"><path class="st0" d="M0 0h16v16H0z"/><path class="st1" d="M14.328 0H9.586l1 1H6.828l1-1H3.086l-2.5 2.5 1.5 1.5H1v12h15V4h-.672L16 3.328V1.672z"/></g><g id="icon_x5F_bg"><path class="st2" d="M5 4L4 3h9l-1 1h1.5L15 2.5 13.5 1H12l1 1H4l1-1H3.5L2 2.5 3.5 4zM2 15h13V5H2v10zm10-9h2v1h-1v1h-1V6zm0 3h2v1h-1v1h-1V9zm0 3h2v1h-1v1h-1v-2zM9 6h2v1h-1v1H9V6zm0 3h2v1h-1v1H9V9zm0 3h2v1h-1v1H9v-2zM7 7h1v1H7V7zm0 3h1v1H7v-1zm0 3h1v1H7v-1zM4 7h1v1H4V7zm0 3h1v1H4v-1zm0 3h1v1H4v-1z"/></g><g id="icon_x5F_fg"><path class="st3" d="M9 8h1V7h1V6H9zM9 11h1v-1h1V9H9zM9 14h1v-1h1v-1H9zM12 6v2h1V7h1V6zM12 11h1v-1h1V9h-2zM12 14h1v-1h1v-1h-2zM4 7h1v1H4zM4 10h1v1H4zM4 13h1v1H4zM7 7h1v1H7zM7 10h1v1H7zM7 13h1v1H7z"/></g></svg>