<svg xmlns="http://www.w3.org/2000/svg" viewBox="0 0 16 16"><style>.st0{opacity:0}.st0,.st1{fill:#f6f6f6}.st2{fill:#424242}.st3{fill:#f0eff1}</style><g id="outline"><path class="st0" d="M0 0h16v16H0z"/><path class="st1" d="M5 0v2.086L2.914 0h-.828L0 2.086v4.328l1-1v4.172l-1-1v4.328l2.5 2.5 2.5-2.5V15h11V0H5zm0 8.586l-1 1V5.414l1 1v2.172z"/></g><g id="icon_x5F_bg"><path class="st2" d="M1 2.5V4l1-1v9l-1-1v1.5L2.5 14 4 12.5V11l-1 1V3l1 1V2.5L2.5 1zM6 1v13h9V1H6zm4 11H9v1H7v-2h3v1zm0-3H9v1H7V8h3v1zm0-2H9V6h1v1zm0-3H9V3h1v1zm4 8h-1v1h-2v-2h3v1zm0-3h-1v1h-2V8h3v1zm0-2h-1V6h1v1zm0-3h-1V3h1v1z"/></g><g id="icon_x5F_fg"><path class="st3" d="M7 10h2V9h1V8H7zM7 13h2v-1h1v-1H7zM11 10h2V9h1V8h-3zM11 13h2v-1h1v-1h-3zM9 3h1v1H9zM9 6h1v1H9zM13 3h1v1h-1zM13 6h1v1h-1z"/></g></svg>