<svg xmlns="http://www.w3.org/2000/svg" viewBox="0 0 16 16" enable-background="new 0 0 16 16"><style type="text/css">.icon-canvas-transparent{opacity:0;fill:#F6F6F6;} .icon-vs-fg{fill:#F0EFF1;} .icon-vs-out{fill:#F6F6F6;} .icon-vs-bg{fill:#424242;}</style><path class="icon-canvas-transparent" d="M16 16h-16v-16h16v16z" id="canvas"/><path class="icon-vs-out" d="M15.913 4.773l-.827-.042v-1.304c0-.563-.2-2.401-2.783-2.427l-1.01-.01v1.01h-2.32l-.915 1.537-.87-1.537h-2.475v-1.01l-1.01.01c-2.588.026-2.789 1.865-2.789 2.427v1.312l-.914.046v11.215h9v-6h2.293v1.01l1.01-.01c2.582-.025 2.783-1.851 2.783-2.409l.007-1.331.907-.045v-1.479l-.087-.963zm-12.428 1.217c.193-.332.296-.73.296-1.176l.004-1.232.875-.018 1.581 2.471-.67.965h-1.81c-.023-.377-.108-.723-.276-1.01zm8.745 1.178v1.261l-.832.017-1.611-2.412 1.639-2.468.805.015v1.232c0 .446.103.844.295 1.176-.193.332-.296.731-.296 1.179z" id="outline"/><path class="icon-vs-fg" d="M2 9v5h5v-5h-5zm4 3l-1 1v-1.5l-1.5 1.5-.5-.5 1.5-1.5h-1.5l1-1h2v2z" id="iconFg"/><path class="icon-vs-bg" d="M1 6.264v-.528c.609-.03.914-.358.914-.982v-1.327c0-.939.6-1.415 1.799-1.427v.582c-.621.012-.932.312-.932.9v1.332c0 .636-.293 1.027-.879 1.173v.018c.529.123.806.462.858.995h-.878c-.074-.456-.358-.71-.882-.736zm13.086-1.509v-1.328c0-.939-.598-1.415-1.793-1.427v.582c.625.012.938.312.938.9v1.332c0 .636.291 1.027.873 1.173v.018c-.582.136-.873.524-.873 1.164v1.314c0 .333-.071.573-.214.718-.143.145-.384.221-.724.227v.572c1.195-.012 1.793-.482 1.793-1.409v-1.364c0-.612.305-.933.914-.964v-.527c-.609-.03-.914-.357-.914-.981zm-4.545-1.755l-1.5 2.519h-.023l-.252-.469-1.161-2.05h-1.119l1.957 3.059-.654.941h.951l.242-.402h.023l.233.402h.762v1.261l.447.739h1.119l-1.98-2.965 2.016-3.035h-1.061zm-6.541 8h1.5l-1.5 1.5.5.5 1.5-1.5v1.5l1-1v-2h-2l-1 1zm-2 4h7v-7h-7v7zm1-6h5v5h-5v-5z" id="iconBg"/></svg>