<svg xmlns="http://www.w3.org/2000/svg" viewBox="0 0 16 16" enable-background="new 0 0 16 16"><style type="text/css">.icon-canvas-transparent{opacity:0;fill:#F6F6F6;} .icon-vs-out{fill:#F6F6F6;} .icon-vs-bg{fill:#424242;}</style><path class="icon-canvas-transparent" d="M16 16h-16v-16h16v16z" id="canvas"/><path class="icon-vs-out" d="M11 12h-2.116l-.901-1.488-.92 1.488h-2.063v1.512l-1.155-.012c-1.746-.019-2.859-.986-2.859-2.585l-.039-1.617-.865-.048-.082-.954v-1.538l.952-.051.048-.108v-1.494c0-1.611 1.143-2.585 2.888-2.605l1.112-.011v1.511h2.188l.87 1.537.915-1.537h2.027v-1.512l1.115.012c1.741.02 2.885.994 2.885 2.605v1.493l.048.104.87.047.082.955v1.539l-.911.051-.003 1.622c0 1.599-1.187 2.566-2.928 2.585l-1.158.011v-1.512zm.566-1.133l.434-.011v-1.542c0-.514.112-.961.325-1.326-.213-.364-.325-.811-.325-1.322v-1.505l-.412-.011-1.916 2.884 1.894 2.833zm-7.184-.001l1.913-2.831-1.77-2.895-.525.013v1.512c0 .511-.113.958-.327 1.323.214.365.327.813.327 1.326v1.542l.382.01z" id="outline"/><g id="iconBg"><path class="icon-vs-bg" d="M10.602 5l-2.016 3.035 1.98 2.965h-1.119l-1.177-1.945-.264-.457h-.024l-.275.457-1.201 1.945h-1.108l2.045-2.941-1.957-3.059h1.119l1.16 2.051.252.469h.023l1.501-2.52h1.061zm-6.889 7.5c-1.199-.014-1.799-.542-1.799-1.585v-1.534c0-.689-.305-1.05-.914-1.084v-.594c.609-.034.914-.402.914-1.105v-1.492c0-1.057.6-1.592 1.799-1.606v.655c-.621.013-.932.351-.932 1.012v1.498c0 .716-.293 1.156-.879 1.319v.02c.586.153.879.59.879 1.309v1.478c0 .378.069.649.208.811.139.162.38.246.724.253v.645zm11.287-4.203c-.609.034-.914.395-.914 1.084v1.534c0 1.043-.598 1.572-1.793 1.585v-.644c.34-.007.581-.092.724-.256s.214-.433.214-.808v-1.478c0-.719.291-1.156.873-1.309v-.02c-.582-.164-.873-.603-.873-1.319v-1.499c0-.661-.313-.999-.938-1.012v-.655c1.195.014 1.793.549 1.793 1.606v1.493c0 .702.305 1.07.914 1.105v.593z"/></g></svg>