<svg xmlns="http://www.w3.org/2000/svg" viewBox="0 0 16 16"><style>.st0{opacity:0}.st0,.st1{fill:#f6f6f6}.st2{fill:#424242}.st3{fill:#f0eff1}</style><g id="outline"><path class="st0" d="M0 0h16v16H0z"/><path class="st1" d="M11.131 9.284L15.414 5l-5-5H1v10h2v5.095l2.572-3.039 1.359 3.099 3.288-1.481-1.328-3.039 3.9.197z"/></g><g id="icon_x5F_bg"><path class="st2" d="M3 1.7l7.399 6.901L14 5l-4-4H2v8h1V1.7zM11 4a1 1 0 1 1 0 2 1 1 0 0 1 0-2z"/><path class="st2" d="M7.441 13.828l1.465-.66-1.579-3.613 2.779.14L4 4v8.365l1.845-2.179z"/></g><circle class="st3" cx="11" cy="5" r="1" id="icon_x5F_fg"/></svg>