<svg xmlns="http://www.w3.org/2000/svg" viewBox="0 0 16 16"><style>.st0{opacity:0}.st0,.st1{fill:#f6f6f6}.st2{fill:#424242}.st3{fill:#f0eff1}</style><g id="outline"><path class="st0" d="M0 0h16v16H0z"/><path class="st1" d="M14 10V0H2v10h4v1H5v1H3v3h2v1h6v-1h2v-3h-2v-1h-1v-1z"/></g><g id="icon_x5F_bg"><path class="st2" d="M10 12H9v-2H7v2H6v1H4v1h2v1h4v-1h2v-1h-2zM3 1v8h10V1H3zm9 7H4V3.563L7.385 7h1.38L12 3.618V8zM8 6L4 2h8L8 6z"/></g><g id="icon_x5F_fg"><path class="st3" d="M12 2H4l4 4z"/><path class="st3" d="M7 7L4 4v4h8V4L9 7z"/></g></svg>