<svg xmlns="http://www.w3.org/2000/svg" viewBox="0 0 16 16"><style>.st0{opacity:0}.st0,.st1{fill:#f6f6f6}.st2{fill:#424242}.st3{fill:#f0eff1}</style><g id="outline"><path class="st0" d="M0 0h16v16H0z"/><path class="st1" d="M16 6v4H9.443A3.985 3.985 0 0 1 8 11.443V15H4v-3.557A3.985 3.985 0 0 1 2.557 10H0V6h2.558A3.982 3.982 0 0 1 4 4.557V1h4v3.557A3.982 3.982 0 0 1 9.442 6H16z"/></g><path class="st2" d="M15 7H8.814A2.987 2.987 0 0 0 7 5.185V2H5v3.185A2.987 2.987 0 0 0 3.186 7H1v2h2.186A2.987 2.987 0 0 0 5 10.815V14h2v-3.185A2.987 2.987 0 0 0 8.814 9H15V7zM6 9.947a1.949 1.949 0 0 1 0-3.895 1.949 1.949 0 0 1 0 3.895z" id="icon_x5F_bg"/><path class="st3" d="M8 8a2 2 0 1 1-4.001-.001A2 2 0 0 1 8 8z" id="icon_x5F_fg"/></svg>