<?xml version="1.0" encoding="iso-8859-1"?>
<!-- Generator: Adobe Illustrator 21.0.0, SVG Export Plug-In . SVG Version: 6.00 Build 0)  -->
<svg version="1.1" xmlns="http://www.w3.org/2000/svg" xmlns:xlink="http://www.w3.org/1999/xlink" x="0px" y="0px"
	 viewBox="0 0 18 16" style="enable-background:new 0 0 18 16;" xml:space="preserve">
<style type="text/css">
	.st0{fill:#F6F6F6;}
	.st1{fill:#424242;}
	.st2{fill:#339933;}
</style>
<g id="outline">
	<rect x="1" y="2" class="st0" width="16" height="11"/>
</g>
<g id="icon_x5F_bg">
	<g>
		<rect x="12" y="3" class="st1" width="4" height="4"/>
		<rect x="12" y="8" class="st1" width="4" height="4"/>
		<path class="st1" d="M7,4.05C8.529,4.271,9.729,5.47,9.949,7H11V3H7V4.05z"/>
		<path class="st1" d="M9,7.5C9,6.119,7.881,5,6.5,5S4,6.119,4,7.5S5.119,10,6.5,10S9,8.881,9,7.5z M6.5,9C5.671,9,5,8.328,5,7.5
			C5,6.672,5.671,6,6.5,6S8,6.672,8,7.5C8,8.328,7.329,9,6.5,9z"/>
		<path class="st1" d="M7,10.949V12h4V8H9.949C9.729,9.529,8.529,10.729,7,10.949z"/>
		<path class="st1" d="M3.05,8H2v4h4v-1.051C4.471,10.729,3.271,9.529,3.05,8z"/>
		<path class="st1" d="M6,4.05V3H2v4h1.05C3.271,5.47,4.471,4.271,6,4.05z"/>
	</g>
</g>
<g id="icon_x5F_fg">
	<circle class="st2" cx="6.5" cy="7.5" r="1.5"/>
</g>
<g id="not_x5F_bg">
</g>
<g id="not_x5F_fg">
	<g>
	</g>
	<g>
	</g>
</g>
</svg>
