<svg xmlns="http://www.w3.org/2000/svg" viewBox="0 0 16 16"><style>.icon-canvas-transparent{opacity:0;fill:#f6f6f6}.icon-vs-out{fill:#f6f6f6}.icon-vs-bg{fill:#424242}.icon-vs-fg{fill:#f0eff1}</style><path class="icon-canvas-transparent" d="M16 16H0V0h16v16z" id="canvas"/><path class="icon-vs-out" d="M13.156 7l-.714-1H7.884l3.466-1.846L1.197 0H0v12h3V8.601l1-.532V16h12V7h-2.844z" id="outline"/><path class="icon-vs-fg" d="M10 14a2.503 2.503 0 0 1-2.5-2.5C7.5 10.122 8.622 9 10 9c1.379 0 2.5 1.122 2.5 2.5 0 1.379-1.121 2.5-2.5 2.5zm0-4c-.827 0-1.5.673-1.5 1.5S9.173 13 10 13s1.5-.673 1.5-1.5S10.827 10 10 10zM7 9H6v1h1V9z" id="iconFg"/><g id="iconBg"><path class="icon-vs-bg" d="M11.5 11.5c0 .827-.673 1.5-1.5 1.5s-1.5-.673-1.5-1.5S9.173 10 10 10s1.5.673 1.5 1.5zM15 8v7H5V8h2.346l.714-1h3.867l.714 1H15zM7 9H6v1h1V9zm5.5 2.5c0-1.378-1.121-2.5-2.5-2.5a2.503 2.503 0 0 0-2.5 2.5c0 1.379 1.122 2.5 2.5 2.5 1.379 0 2.5-1.121 2.5-2.5zM2 8v3H1V1l8 3.273L2 8z"/></g></svg>