<svg xmlns="http://www.w3.org/2000/svg" viewBox="0 0 16 16"><style>.st0{opacity:0}.st0,.st1{fill:#f6f6f6}.st2{fill:#424242}.st3{fill:#00539c}.st4{fill:#f0eff1}</style><g id="outline"><path class="st0" d="M0 0h16v16H0z"/><path class="st1" d="M5 0v8.764l-1 2L3.618 10H0v1.236L2.382 16h3.236l2-4H16V0z"/></g><g id="icon_x5F_bg"><path class="st2" d="M10 10h1v1h-1zM14 10h1v1h-1zM12 10h1v1h-1zM8.118 11H9v-1h-.382zM6 1v6h1V2h7v7h1V1z"/></g><path class="st3" d="M6.5 8L4 13l-1-2H1l2 4h2l3.5-7z" id="color_x5F_imporatance"/><path class="st4" d="M7 2v5h3.118l-1.5 3H14V2z" id="icon_x5F_fg"/></svg>