<svg xmlns="http://www.w3.org/2000/svg" viewBox="0 0 16 16"><style>.st0{opacity:0}.st0,.st1{fill:#f6f6f6}.st2{fill:#424242}.st3{fill:#f0eff1}</style><g id="outline"><path class="st0" d="M0 0h16v16H0z"/><path class="st1" d="M9 1v2H7V1H0v7h2v5h7v2h7V1H9zm0 9H5V8h2V6h2v4z"/></g><path class="st2" d="M15 7V2h-5v2H6V2H1v5h2v5h7v2h5V9h-5v2H4V7h2V5h4v2h5zm-4-3h3v2h-3V4zm0 7h3v2h-3v-2zM5 6H2V4h3v2z" id="icon_x5F_bg"/><g id="icon_x5F_fg"><path class="st3" d="M2 4h3v2H2zM11 4h3v2h-3zM11 11h3v2h-3z"/></g></svg>