<svg xmlns="http://www.w3.org/2000/svg" viewBox="0 0 16 16"><style>.icon-canvas-transparent{opacity:0;fill:#f6f6f6}.icon-vs-out{fill:#f6f6f6}.icon-vs-bg{fill:#424242}.icon-vs-fg{fill:#f0eff1}.icon-folder{fill:#dcb67a}.icon-vs-action-blue{fill:#00539c}</style><path class="icon-canvas-transparent" d="M16 16H0V0h16v16z" id="canvas"/><path class="icon-vs-out" d="M9.382 0l-1 2H7.36L5.359 0H3.824l-1 1H1v4H0v10h11v-.903l1.671 1.671L14.438 14H16V0H9.382z" id="outline"/><path class="icon-vs-fg" d="M14.011 1.991v1h-3.5l.5-1h3zM9 8H2v5h7V8z" id="iconFg"/><g id="iconBg"><path class="icon-vs-bg" d="M1 6v8h9V6H1zm8 7H2V8h7v5z"/><path class="icon-folder" d="M15 1h-5L8.995 3 6 2.991V5h5v4h4.011L15 1zm-1 2h-3.5l.5-1h3v1z"/></g><path class="icon-vs-action-blue" d="M4.591.646l-.707.708.647.646H2v3h1V3h1.579l-.646.646.707.708 1.83-1.83L4.591.646zM15 13h-2.269l.647.646-.707.707-1.878-1.878 1.829-1.829.707.707-.646.647H14v-2h1v3z" id="colorAction"/></svg>