<svg xmlns="http://www.w3.org/2000/svg" viewBox="0 0 16 16"><style>.st0{opacity:0}.st0,.st1{fill:#f6f6f6}.st2{fill:#424242}.st3{fill:#00539c}.st4{fill:#f0eff1}</style><g id="outline"><path class="st0" d="M0 0h16v16H0z"/><path class="st1" d="M14 8V6h-1V3.586L9.414 0H2C.701 0 0 1.012 0 1.965V14c0 1.299 1.012 2 1.965 2H12l4-4V6l-2 2z"/></g><g id="icon_x5F_bg"><path class="st2" d="M4 6.707L2.646 5.354l.708-.708.646.647 2.646-2.647.708.708zM7 5h3v1H7zM3 8h1v1H3zM3 11h1v1H3zM5 8h3v1H5zM5 11h3v1H5z"/><path class="st2" d="M9 1H2c-1 0-1 .965-1 .965V14c0 1 .965 1 .965 1H11l-1-1H2V2h7v2h2v2h1V4L9 1z"/></g><path class="st3" d="M15 9v2l-3 3-3-3V9l2 2V7h2v4l2-2z" id="color_x5F_action"/><g id="icon_x5F_fg"><path class="st4" d="M10 8V6H8z"/><path class="st4" d="M9 4V2H2v12h8l-2-2H5v-1h3V9H5V8h3V6H7V5h3v1h1V4H9zm-5 8H3v-1h1v1zm0-3H3V8h1v1zm0-2.293L2.646 5.354l.707-.707.647.646 2.646-2.646.707.707L4 6.707z"/></g></svg>