<svg xmlns="http://www.w3.org/2000/svg" viewBox="0 0 16 16"><style>.st0{opacity:0}.st0,.st1{fill:#f6f6f6}.st2{fill:#424242}.st3{fill:#00539c}</style><g id="outline"><path class="st0" d="M0 0h16v16H0z"/><path class="st1" d="M16 9v2l-1 1c-.003.03 0 1 0 1 0 1.71-1.031 2.979-3 3h-1v-3h1v-1c0-.535.741-1.612 1-2-.259-.389-1-1.466-1-2V7h-1V4h1c1.969.021 3 1.277 3 3 0 0-.004.965 0 1l1 1zM8 .586l-2 2V0H2v2.586l-2-2v4.828l4 4V11l1 1c.003.03 0 1 0 1 0 1.71 1.317 2.979 3.286 3H9v-3H8v-1c0-.535-.741-1.612-1-2 .259-.389 1-1.466 1-2V7h1V4H8V.586z"/></g><path class="st2" d="M15 9v2c-.322.019-1 .053-1 1v1c0 .834.083 2-2 2v-1c.833 0 1-1 1-1v-1c0-.834.496-1.736 1-2-.504-.269-1-1.167-1-2V7c0-.84-.584-1-1-1V5c2.083 0 2 1.166 2 2v1c0 .969.703.981 1 1zM6 8c0 .969-.703.981-1 1v2c.322.019 1 .053 1 1v1c0 .834-.083 2 2 2v-1c-.833 0-1-1-1-1v-1c0-.834-.496-1.736-1-2 .504-.269 1-1.167 1-2V7c0-.84.584-1 1-1v-.586l-2 2V8z" id="icon_x5F_bg"/><path class="st3" d="M5 5V1H3v4L1 3v2l3 3 3-3V3L5 5z" id="color_x5F_imporatance"/></svg>