<svg xmlns="http://www.w3.org/2000/svg" viewBox="0 0 16 16"><style>.st0{opacity:0}.st0,.st1{fill:#f6f6f6}.st2{fill:#424242}.st3{fill:#00539c}.st4{fill:#f0eff1}</style><g id="outline"><path class="st0" d="M0 0h16v16H0z"/><path class="st1" d="M16 6v6h-6v-2H9l-4 4-4-4V4l2 2V2h4v4l1-1V4h6v2h2z"/></g><path class="st2" d="M11 9v2h4V7h-2V5H9v4h2zm-1-1V6h2v1h-1v1h-1zm4 2h-2V8h2v2z" id="icon_x5F_bg"/><path class="st3" d="M8 7v2l-3 3-3-3V7l2 2V3h2v6l2-2z" id="color_x5F_action"/><path class="st4" d="M12 7h-1v1h-1V6h2v1zm2 1h-2v2h2V8z" id="icon_x5F_fg"/></svg>