<svg xmlns="http://www.w3.org/2000/svg" width="16" height="16"><style type="text/css">.icon-canvas-transparent{opacity:0;fill:#F6F6F6;} .icon-vs-out{fill:#F6F6F6;} .icon-vs-bg{fill:#424242;} .icon-vs-fg{fill:#F0EFF1;} .icon-vs-action-blue{fill:#00539C;}</style><path class="icon-canvas-transparent" d="M16 16h-16v-16h16v16z" id="canvas"/><path class="icon-vs-out" d="M16 5v6l-4 4-3-3v4h-9v-9h1v-2.414l1.586-1.586h-1.586v-3h7v3l-1.552 1h1.552v1l2 2v-4h4v4l2-2z" id="outline"/><path class="icon-vs-bg" d="M7 6h-5v-1l3-3h-3v-1h5v1h-.048l.048.05-2.987 2.95h2.987v1zm-3.2 6h1.4l-.7-1.75-.7 1.75zm-2.8-4v7h7v-7h-7zm6 6l-2-5h-1l-2 5h1l.399-1h2.201l.4 1h1z" id="iconBg"/><path class="icon-vs-fg" d="M6 14h1l-2-5h-1l-2 5h1l.399-1h2.201l.4 1zm-2.2-2l.7-1.75.7 1.75h-1.4z" id="iconFg"/><path class="icon-vs-action-blue" d="M13 10v-6h-2v6l-2-2v2l3 3 3-3v-2l-2 2z" id="colorAction"/></svg>