<svg xmlns="http://www.w3.org/2000/svg" viewBox="0 0 16 16"><style>.st0{fill:#f6f6f6}.st1{fill:#424242}.st2{fill:#f0eff1}</style><path class="st0" d="M16 5v6l-4 4-4-4v1l-1.552 1H8v3H1v-2.414L2.586 12H1V9H0V0h9v6l1 1V3h4v4l2-2z" id="outline"/><path class="st1" d="M2 11h3l-3 3v1h5v-1H4.013L7 11.051 6.952 11H7v-1H2v1zm2.5-7.75L5.2 5H3.8l.7-1.75zM8 1v7H1V1h7zM7 7L5 2H4L2 7h1l.399-1H5.6L6 7h1z" id="icon_x5F_bg"/><path class="st1" d="M15 8v2l-3 3-3-3V8l2 2V4h2v6z" id="color_x5F_action"/><path class="st2" d="M6 7h1L5 2H4L2 7h1l.399-1H5.6L6 7zM3.8 5l.7-1.75L5.2 5H3.8z" id="icon_x5F_fg"/></svg>