<svg xmlns="http://www.w3.org/2000/svg" viewBox="0 0 16 16"><style>.icon-canvas-transparent{opacity:0;fill:#f6f6f6}.icon-vs-out{fill:#f6f6f6}.icon-vs-bg{fill:#424242}.icon-vs-fg{fill:#f0eff1}.icon-vs-action-red{fill:#a1260d}</style><path class="icon-canvas-transparent" d="M16 16H0V0h16v16z" id="canvas"/><path class="icon-vs-out" d="M16 9V0H7v.646L6.354 0h-.829L3.97 1.556 2.414 0h-.828L0 1.586v.949L1.495 4.03 0 5.525v.949l2 2 1.97-1.97 1.97 1.97L7 7.414V9h1v3h1.586L8 13.586V16h7v-3h-1.551l1.013-1H15v-.576l.35-.398-.35-.372V9h1zM7 4.586l-.556-.556L7 3.475v1.111z" id="outline"/><path class="icon-vs-fg" d="M11.994 2h-1l-1.99 5h.991l.399-1h2.201l.399 1h1l-2-5zm-1.2 3l.7-1.75.7 1.75h-1.4z" id="iconFg"/><path class="icon-vs-bg" d="M9 10h5v1h-.048l.048.051L11.013 14H14v1H9v-1l3-3H9v-1zm6-9v7H8V1h7zm-1 6l-2-5h-1.006l-1.99 5H10l.399-1h2.196l.399 1H14zm-3.2-2h1.4l-.7-1.75L10.8 5z" id="iconBg"/><path class="icon-vs-action-red" d="M5.03 4.03L7 6 5.939 7.061l-1.97-1.97L2 7.061.939 6l1.97-1.97-1.97-1.97L2 1l1.97 1.97L5.939 1 7 2.06 5.03 4.03z" id="colorAction"/></svg>