<?xml version="1.0" encoding="utf-8"?>
<!-- Generator: Adobe Illustrator 18.1.1, SVG Export Plug-In . SVG Version: 6.00 Build 0)  -->
<!DOCTYPE svg PUBLIC "-//W3C//DTD SVG 1.1//EN" "http://www.w3.org/Graphics/SVG/1.1/DTD/svg11.dtd">
<svg version="1.1" xmlns="http://www.w3.org/2000/svg" xmlns:xlink="http://www.w3.org/1999/xlink" x="0px" y="0px" width="16px"
	 height="16px" viewBox="0 0 16 16" style="enable-background:new 0 0 16 16;" xml:space="preserve">
<style type="text/css">
	.icon-canvas-transparent{opacity:0;fill:#F6F6F6;}
	.icon-vs-out{fill:#F6F6F6;}
	.icon-vs-bg{fill:#424242;}
	.icon-vs-fg{fill:#F0EFF1;}
	.icon-vs-action-blue{fill:#00539C;}
</style>
<g id="canvas">
	<path class="icon-canvas-transparent" d="M16,16H0V0h16V16z"/>
</g>
<g id="outline">
	<path class="icon-vs-out" d="M16,5.586v4.828l-4,4l-1-1V16H1V0h10v3h3v4.586L16,5.586z"/>
</g>
<g id="iconBg">
	<path class="icon-vs-bg" d="M10,12.414V15H2V1h8v2v4.586L8.414,6H9V3H3v3h5v1H3v3h5v0.414L8.586,11H3v3h6v-2.586
		L10,12.414z"/>
</g>
<g id="iconFg">
	<path class="icon-vs-fg" d="M8,6H3V3h6v3H8.414L8,5.586V6z M8,7H3v3h5V7z M8.586,11H3v3h6v-2.586L8.586,11z"/>
</g>
<g id="colorAction">
	<polygon class="icon-vs-action-blue" points="13,10 13,4 11,4 11,10 9,8 9,10 12,13 15,10 15,8 	"/>
</g>
</svg>
