<svg xmlns="http://www.w3.org/2000/svg" viewBox="0 0 16 16"><style>.st0{opacity:0}.st0,.st1{fill:#f6f6f6}.st2{fill:#424242}</style><g id="outline"><path class="st0" d="M0 0h16v16H0z"/><path class="st1" d="M16 9h-1.931l1.301 1.301-2.069 2.07L10.93 10H10v5H7.586l-4-4H0V4h3.586l4-4H10v5h.93l2.371-2.371 2.069 2.069L14.069 6H16v3z"/></g><path class="st2" d="M9 6h2v3H9v5H8l-4-4H1V5h3l4-4h1v5zm3.611.043l1.345-1.345-.655-.655-1.345 1.345c.261.173.483.395.655.655zm-.655 3.568l1.345 1.346.655-.656-1.345-1.344c-.172.26-.394.482-.655.654zM13 7a2.577 2.577 0 0 1 0 1h2V7h-2z" id="icon_x5F_bg"/></svg>