<?xml version="1.0" encoding="iso-8859-1"?>
<!-- Generator: Adobe Illustrator 21.0.0, SVG Export Plug-In . SVG Version: 6.00 Build 0)  -->
<svg version="1.1" xmlns="http://www.w3.org/2000/svg" xmlns:xlink="http://www.w3.org/1999/xlink" x="0px" y="0px"
	 viewBox="0 0 16 16" style="enable-background:new 0 0 16 16;" xml:space="preserve">
<style type="text/css">
	.icon_x002D_canvas_x002D_transparent{opacity:0;fill:#F6F6F6;}
	.icon_x002D_vs_x002D_out{fill:#F6F6F6;}
	.icon_x002D_vs_x002D_bg{fill:#424242;}
	.icon_x002D_vs_x002D_fg{fill:#F0EFF1;}
	.icon_x002D_vs_x002D_blue{fill:#1BA1E2;}
</style>
<g id="canvas">
	<path class="icon_x002D_canvas_x002D_transparent" d="M16,16H0V0h16V16z"/>
</g>
<g id="outline">
	<path class="icon_x002D_vs_x002D_out" d="M16,3v6c0,1.711-2.149,3-5,3v4H6v-4H5v4H0v-5h1V9h2V5h3V3c0-1.71,2.149-3,5-3
		C13.851,0,16,1.29,16,3z"/>
</g>
<g id="iconBg">
	<path class="icon_x002D_vs_x002D_bg" d="M9,10H6V9h1V6H4v3h1v1H2v2H1v3h3v-3H3v-1h5v1H7v3h3v-3H9V10z M3,14H2v-1h1V14z M5,7h1v1H5
		V7z M9,14H8v-1h1V14z"/>
</g>
<g id="iconFg">
	<path class="icon_x002D_vs_x002D_fg" d="M5,7h1v1H5V7z M2,14h1v-1H2V14z M8,14h1v-1H8V14z M11,1.675
		C9.001,1.675,7.675,2.473,7.675,3S9.001,4.325,11,4.325c1.999,0,3.325-0.798,3.325-1.325S12.999,1.675,11,1.675z"/>
</g>
<g id="colorImportance">
	<path class="icon_x002D_vs_x002D_blue" d="M14,1.689C13.267,1.271,12.201,1,11,1C9.799,1,8.733,1.271,8,1.689
		C7.385,2.041,7,2.496,7,3v2h1v4h2v1.93c0.321,0.041,0.652,0.07,1,0.07c2.209,0,4-0.896,4-2V6V3C15,2.496,14.615,2.041,14,1.689z
		 M11,4.325C9.001,4.325,7.675,3.527,7.675,3S9.001,1.675,11,1.675c1.999,0,3.325,0.798,3.325,1.325S12.999,4.325,11,4.325z"/>
</g>
</svg>
