<svg xmlns="http://www.w3.org/2000/svg" viewBox="0 0 16 16"><style>.st0{opacity:0}.st0,.st1{fill:#f6f6f6}.st2{fill:#dcb67a}.st3{fill:#424242}.st4{fill:#f0eff1}</style><path class="st0" d="M0 0h16v16H0z" id="outline"/><g id="icon_x5F_bg"><path class="st1" d="M14 4h-1.927A6.21 6.21 0 0 0 6.25 0 6.252 6.252 0 0 0 0 6.245c0 .184.01.354.026.528.014.16.036.295.064.468A6.137 6.137 0 0 0 1.305 10H.382l3 6H14c.97 0 2-.701 2-2V6c0-1.299-1.03-2-2-2z"/><path class="st2" d="M1.996 11l2 4h10l-3-4zM13.996 5h-1.633c.065.325.11.658.124 1H14v9s1 0 1-1V6c0-1-1.004-1-1.004-1z"/><path class="st3" d="M1.075 7.107l.002.014A5.225 5.225 0 0 0 2.583 10h1.545a4.32 4.32 0 0 1-2.013-2.526c.598.184 1.283.359 2.058.483.132.671.347 1.355.609 2.043h.872a12.483 12.483 0 0 1-.628-1.93c.393.039.8.064 1.22.068.101.002.201.002.302.002.261 0 .524-.008.79-.021-.178.579-.443 1.215-.754 1.881h.894c.31-.692.57-1.353.739-1.958a9.548 9.548 0 0 0 2.164-.551A4.31 4.31 0 0 1 8.375 10h1.527A5.211 5.211 0 0 0 11.5 6.255c0-.06-.008-.118-.009-.178a5.246 5.246 0 1 0-10.469.631c.012.135.032.268.053.399zm9.139-2.55a4.29 4.29 0 0 1 .349 1.699c0 .095-.008.187-.014.28a8.85 8.85 0 0 1-2.136.647 6.907 6.907 0 0 0 .063-2.174 9.454 9.454 0 0 0 1.738-.452zm-.402-.732c-.515.177-1 .3-1.463.372a8.718 8.718 0 0 0-.689-2.013 4.314 4.314 0 0 1 2.152 1.641zM5.701 1.982c.18-.023.362-.039.549-.039.124 0 .245.008.366.019.351.608.708 1.384.915 2.33-.428.029-.85.033-1.277.029a12.703 12.703 0 0 1-1.304-.083 9.12 9.12 0 0 1 .751-2.256zm-.867 3.066c.452.052.923.085 1.412.09.101.002.201.002.302.002.366 0 .737-.012 1.116-.04.028.254.049.513.053.785.004.433-.052.902-.157 1.402a16.77 16.77 0 0 1-1.306.034 12.92 12.92 0 0 1-1.378-.092 9.257 9.257 0 0 1-.093-1.345c.004-.289.024-.566.051-.836zm-.146-2.809a9.847 9.847 0 0 0-.549 1.882 14.216 14.216 0 0 1-1.427-.328 4.32 4.32 0 0 1 1.976-1.554zm-2.389 2.29c.514.151 1.087.295 1.725.404a9.79 9.79 0 0 0-.057.943c-.005.401.025.812.073 1.228a14.71 14.71 0 0 1-2.087-.546 3.794 3.794 0 0 1-.015-.303c0-.614.13-1.197.361-1.726z"/></g><g id="icon_x5F_fg"><path class="st4" d="M2 11h8.996L14 15V6h-1.513c0 .014.003.027.003.041.007.101.01.157.01.213A6.24 6.24 0 0 1 11.263 10H2M8.477 5.009c.545-.085 1.057-.231 1.674-.453.223.521.399 1.095.399 1.699 0 .095.006.187 0 .28-.779.34-1.48.542-2.137.648a6.907 6.907 0 0 0 .064-2.174zM9.812 3.825c-.515.177-1 .3-1.463.372a8.718 8.718 0 0 0-.689-2.013 4.314 4.314 0 0 1 2.152 1.641z"/><path class="st4" d="M6.584 10c.31-.666.576-1.302.753-1.88-.265.012-.528.02-.789.02-.101 0-.201 0-.302-.002-.42-.004-.827-.029-1.22-.068.141.632.365 1.279.628 1.93h.93zM6.25 7.355c-.477-.005-.957-.074-1.4-.126a9.171 9.171 0 0 1-.066-1.345c.004-.29.02-.566.047-.836.451.052.926.102 1.415.107h.302c.366 0 .737-.027 1.116-.055.028.254.049.513.053.785.004.433-.052.902-.157 1.402-.439.031-.872.071-1.31.068zM6.25 1.943c.124 0 .245.008.366.019.351.608.706 1.384.913 2.33-.427.029-.851.067-1.279.063a12.279 12.279 0 0 1-1.3-.1 9.271 9.271 0 0 1 .751-2.273c.18-.023.362-.039.549-.039zM4.688 2.239a9.847 9.847 0 0 0-.549 1.882 14.216 14.216 0 0 1-1.427-.328 4.32 4.32 0 0 1 1.976-1.554zM1.938 6.255c0-.614.131-1.197.361-1.727.514.152 1.087.296 1.725.405a9.79 9.79 0 0 0-.057.943c-.005.401.025.812.073 1.228a14.71 14.71 0 0 1-2.087-.546 3.794 3.794 0 0 1-.015-.303zM4.132 10h.646c-.266-.688-.496-1.372-.628-2.042-.775-.124-1.402-.3-2-.483A4.306 4.306 0 0 0 4.132 10zM8.332 10a4.408 4.408 0 0 0 2.048-2.544c-.781.294-1.489.5-2.159.586-.169.605-.454 1.266-.774 1.958h.885z"/></g></svg>