<svg xmlns="http://www.w3.org/2000/svg" viewBox="0 0 16 16"><style>.st0{opacity:0}.st0,.st1{fill:#f6f6f6}.st2{fill:#424242}.st3{fill:#f0eff1}</style><g id="outline"><path class="st0" d="M0 0h16v16H0z"/><path class="st1" d="M15.118 0h-4.236L9.54 2.684a4.885 4.885 0 0 0-1.091-.128c-2.757 0-5 2.243-5 5 0 .47.067.933.2 1.386L.742 11.849c-.686.687-1.252 2.161 0 3.414.61.609 1.245.737 1.67.737.958 0 1.621-.614 1.744-.737l2.907-2.907c.453.133.917.2 1.386.2 2.757 0 5-2.243 5-5 0-.53-.113-1.048-.283-1.556h1.952L16 4.236V1.764L15.118 0zM9.449 7.142l-.586-.586 1.531-1.53.391.78-1.336 1.336z"/></g><g id="icon_x5F_bg"><path class="st2" d="M9.449 8.556l-2-2 2.641-2.641a3.968 3.968 0 0 0-1.641-.359 4 4 0 0 0-4 4c0 .586.133 1.139.359 1.64l-3.359 3.36s-1 1 0 2 2 0 2 0l3.359-3.36c.502.227 1.055.36 1.641.36a4 4 0 0 0 4-4c0-.586-.133-1.139-.359-1.641L9.449 8.556zM14.5 1h-3l-1 2 1 2h3l1-2-1-2zM13 4a1 1 0 1 1 0-2 1 1 0 0 1 0 2z"/></g><circle class="st3" cx="13" cy="3" r="1" id="icon_x5F_fg"/></svg>