<svg xmlns="http://www.w3.org/2000/svg" width="16" height="16"><style type="text/css">.icon-canvas-transparent{opacity:0;fill:#F6F6F6;} .icon-vs-out{fill:#F6F6F6;} .icon-vs-bg{fill:#424242;} .icon-vs-fg{fill:#F0EFF1;}</style><path class="icon-canvas-transparent" d="M16 16h-16v-16h16v16z" id="canvas"/><path class="icon-vs-out" d="M16 2.5v10c0 .827-.673 1.5-1.5 1.5h-11.996c-.827 0-1.5-.673-1.5-1.5v-8c0-.827.673-1.5 1.5-1.5h2.886l1-2h8.11c.827 0 1.5.673 1.5 1.5z" id="outline"/><path class="icon-vs-bg" d="M14.5 2h-7.492l-1 2h-3.504c-.277 0-.504.224-.504.5v8c0 .276.227.5.504.5h11.996c.275 0 .5-.224.5-.5v-10c0-.276-.225-.5-.5-.5zm-6 9h-1.3l-1.8-3h1.5l.748 1.459 2.352-4.459h1.5l-3 6zm5.5-7h-6.492l.5-1h5.992v1z" id="iconBg"/><path class="icon-vs-fg" d="M14 3v1h-6.5l.5-1h6zm-6.352 6.459l-.748-1.459h-1.5l1.8 3h1.3l3-6h-1.5l-2.352 4.459z" id="iconFg"/></svg>