<svg xmlns="http://www.w3.org/2000/svg" viewBox="0 0 16 16"><style>.icon-canvas-transparent{opacity:0;fill:#f6f6f6}.icon-vs-out{fill:#f6f6f6}.icon-vs-bg{fill:#424242}.icon-vs-fg{fill:#f0eff1}.icon-vs-action-blue{fill:#00539c}</style><path class="icon-canvas-transparent" d="M16 16H0V0h16v16z" id="canvas"/><path class="icon-vs-out" d="M16 13H1V2h15v11z" id="outline"/><path class="icon-vs-bg" d="M2 7h1v1H2V7zm4 5h1v-1H6v1zm2 0h1v-1H8v1zm-4 0h1v-1H4v1zm7-9h-1v1h1V3zM9 3H8v1h1V3zm-7 7h1V9H2v1zm0 2h1v-1H2v1zm0-6h1V5H2v1zm12 2h1V7h-1v1zm0 2h1V9h-1v1zm0-4h1V5h-1v1zm0-3v1h1V3h-1zm-4 9h1v-1h-1v1zm2 0h1v-1h-1v1zm0-8h1V3h-1v1zM5 3H4v1h1V3zM2 4h1V3H2v1zm5-1H6v1h1V3zm7 9h1v-1h-1v1zM9 5H8v5h1V5z" id="iconBg"/><path class="icon-vs-fg" d="M14 4H3v7h11V4zm-2.5 5H10l1-1H9v2H8V8H6l1 1H5.5L4 7.5 5.5 6H7L6 7h2V5h1v2h2l-1-1h1.5L13 7.5 11.5 9z" id="iconFg"/><path class="icon-vs-action-blue" d="M8 7v1H6l1 1H5.5L4 7.5 5.5 6H7L6 7h2zm3.5-1H10l1 1H9v1h2l-1 1h1.5L13 7.5 11.5 6z" id="colorAction"/></svg>