<svg xmlns="http://www.w3.org/2000/svg" viewBox="0 0 16 16"><style>.icon-canvas-transparent{opacity:0;fill:#f6f6f6}.icon-vs-out{fill:#f6f6f6}.icon-vs-bg{fill:#424242}.icon-vs-fg{fill:#f0eff1}.icon-folder{fill:#dcb67a}</style><path class="icon-canvas-transparent" d="M16 0v16H0V0h16z" id="canvas"/><path class="icon-vs-out" d="M14.996 3.5v8c0 .827-.673 1.5-1.5 1.5H8.724c-.621 1.742-2.271 3-4.224 3-2.378 0-4.311-1.86-4.469-4.198A1.44 1.44 0 0 1 0 11.5v-10C0 .673.673 0 1.5 0h8.11l1 2h2.886c.827 0 1.5.673 1.5 1.5z" id="outline"/><g id="iconBg"><path class="icon-folder" d="M13.5 3H9.996l-1-2H1.504a.5.5 0 0 0-.5.5v7.202C1.829 7.673 3.081 7 4.5 7 6.981 7 9 9.019 9 11.5c0 .171-.032.334-.051.5H13.5a.5.5 0 0 0 .5-.5v-8a.5.5 0 0 0-.5-.5zM2.004 3V2h6.374l.5 1H2.004z"/><path class="icon-vs-bg" d="M4.5 8a3.5 3.5 0 1 0 0 7 3.5 3.5 0 0 0 0-7zM7 11.5a2.5 2.5 0 1 1-5 0 2.5 2.5 0 0 1 5 0zm-1 0a1.5 1.5 0 1 1-3 0 1.5 1.5 0 0 1 3 0z"/></g><g id="iconFg"><path class="icon-vs-fg" d="M2 2h6.374l.5 1H2V2z"/></g></svg>