<svg xmlns="http://www.w3.org/2000/svg" viewBox="0 0 16 16"><style>.icon-canvas-transparent{opacity:0;fill:#f6f6f6}.icon-vs-out{fill:#f6f6f6}.icon-vs-bg{fill:#424242}.icon-folder{fill:#dcb67a}</style><path class="icon-canvas-transparent" d="M0 0h16v16H0V0z" id="canvas"/><path class="icon-vs-out" d="M15 6V4c0-1.299-1.03-2-2-2h-2.884l-1-2H2c-.995 0-2 .697-2 2v9c0 .092.015.174.024.26-.004.081-.024.158-.024.24C0 13.981 2.019 16 4.5 16c1.953 0 3.602-1.258 4.224-3h4.953L16 7.196V6h-1z" id="outline"/><g id="iconBg"><path class="icon-folder" d="M14 7.031v-3c0-1-1.236-1-1-1H9.5l-1-2H2s-1 0-1 1v6.675c.288-.36.616-.687 1-.945v-5.73h6l1 2h4v3H4.809C7.144 7.193 9 9.124 9 11.5c0 .182-.033.355-.054.531H13l2-5h-1z"/><path class="icon-folder" d="M3.992 7.051c.066-.008.132-.016.199-.02H4l-.008.02z"/><path class="icon-folder" d="M14 7.031v-3c0-1-1.236-1-1-1H9.5l-1-2H2s-1 0-1 1v6.675c.288-.36.616-.687 1-.945v-5.73h6l1 2h4v3H4.809C7.144 7.193 9 9.124 9 11.5c0 .182-.033.355-.054.531H13l2-5h-1z"/><path class="icon-folder" d="M3.992 7.051c.066-.008.132-.016.199-.02H4l-.008.02z"/><path class="icon-vs-bg" d="M4.5 8a3.5 3.5 0 1 0 0 7 3.5 3.5 0 0 0 0-7zM7 11.5a2.5 2.5 0 1 1-5 0 2.5 2.5 0 0 1 5 0zm-1 0a1.5 1.5 0 1 1-3 0 1.5 1.5 0 0 1 3 0z"/></g></svg>