<svg xmlns="http://www.w3.org/2000/svg" viewBox="0 0 16 16"><style>.st0{opacity:0}.st0,.st1{fill:#f6f6f6}.st2{fill:#424242}</style><g id="outline"><path class="st0" d="M0 0h16v16H0z"/><path class="st1" d="M16 6h-3.618l-.233.467v-.346l-.008-.274.008.006V2.404l-.594-.264a2.572 2.572 0 0 0-1.074-.22c-.4 0-.77.077-1.098.228-.352.16-.65.398-.888.706-.008.01-.014.025-.023.038a2.177 2.177 0 0 0-.625-.632 2.023 2.023 0 0 0-1.117-.314h-.033V0H4v2.365a2.188 2.188 0 0 0-.422-.227 2.637 2.637 0 0 0-.98-.173c-.173 0-.351.016-.551.05a4.359 4.359 0 0 0-.897.265 2.378 2.378 0 0 0-.375.204l-.43.299v1.808c-.1.157-.178.328-.235.511a2.558 2.558 0 0 0 .019 1.546 2 2 0 0 0 .429.715c.194.208.433.37.708.479.257.105.545.158.854.158.23 0 .449-.031.654-.094h2.188v-.02h1.015c.187.063.391.094.606.094.417 0 .798-.103 1.124-.302.278-.168.511-.401.703-.678.022.031.038.068.062.099a2.355 2.355 0 0 0 1.919.918c.142 0 .275-.01.41-.03a3.05 3.05 0 0 0 .316-.069c.116-.032.22-.07.318-.114l.061-.031L10 10.764 9.618 10H5.382l3 6h3.236L16 7.236V6z"/></g><g id="icon_x5F_bg"><path class="st2" d="M13 7l-3 6-1-2H7l2 4h2l4-8zM3.63 3.361a1.08 1.08 0 0 0-.424-.295 1.644 1.644 0 0 0-.608-.101c-.119 0-.241.012-.368.033a3.213 3.213 0 0 0-.673.195 1.313 1.313 0 0 0-.212.114v.768c.158-.132.341-.235.544-.313.204-.078.413-.117.627-.117.213 0 .377.063.494.186.116.125.174.324.174.6l-1.03.154c-.205.026-.38.077-.526.151a1.083 1.083 0 0 0-.563.66A1.562 1.562 0 0 0 1 5.857c0 .17.025.323.074.463a.945.945 0 0 0 .568.596c.139.057.297.084.478.084.23 0 .431-.053.604-.16a1.3 1.3 0 0 0 .439-.463h.014v.529h.785V4.469c0-.238-.027-.451-.083-.637a1.286 1.286 0 0 0-.249-.471zm-.446 2.02c0 .131-.02.252-.059.365a.897.897 0 0 1-.165.295.758.758 0 0 1-.593.272.682.682 0 0 1-.242-.041.507.507 0 0 1-.302-.286.583.583 0 0 1-.041-.218.96.96 0 0 1 .027-.232.435.435 0 0 1 .098-.18.546.546 0 0 1 .196-.133c.083-.033.189-.061.32-.078l.761-.109v.345zM5.71 3.656h-.013V1H5v5.887h.697v-.485h.013c.044.082.095.158.151.229.057.07.119.133.191.186a.835.835 0 0 0 .238.121.943.943 0 0 0 .293.042c.23 0 .434-.053.609-.16a1.34 1.34 0 0 0 .443-.443c.12-.188.211-.412.272-.672A3.62 3.62 0 0 0 8 4.861a3.54 3.54 0 0 0-.074-.734 2.047 2.047 0 0 0-.228-.611 1.203 1.203 0 0 0-.394-.416 1.03 1.03 0 0 0-.574-.154 1 1 0 0 0-.614.199 1.153 1.153 0 0 0-.225.222 2.022 2.022 0 0 0-.181.289zm.467.082c.1-.055.21-.082.331-.082a.646.646 0 0 1 .571.32c.066.105.116.23.15.377.035.147.052.311.052.495 0 .234-.02.441-.06.621-.039.18-.095.328-.168.445a.687.687 0 0 1-.914.281.76.76 0 0 1-.237-.207.988.988 0 0 1-.154-.306 1.262 1.262 0 0 1-.057-.381v-.506c0-.17.02-.326.061-.465s.096-.258.168-.359a.77.77 0 0 1 .257-.233z"/><g><path class="st2" d="M11.021 6.893a1.35 1.35 0 0 1-.171.061 1.774 1.774 0 0 1-.46.064 1.46 1.46 0 0 1-.646-.138 1.37 1.37 0 0 1-.482-.395 1.82 1.82 0 0 1-.302-.618 2.94 2.94 0 0 1-.104-.81c0-.351.037-.658.11-.925.074-.266.18-.488.32-.668a1.33 1.33 0 0 1 .511-.408c.202-.093.43-.138.684-.138.153 0 .284.015.396.043.11.03.201.061.271.092v.741a1.07 1.07 0 0 0-.26-.146.954.954 0 0 0-.362-.065.7.7 0 0 0-.376.101.858.858 0 0 0-.275.286c-.074.122-.131.27-.17.443a2.626 2.626 0 0 0-.059.575c0 .216.02.407.059.576.039.169.095.311.168.427.072.116.16.205.265.266a.69.69 0 0 0 .354.092.953.953 0 0 0 .375-.071c.111-.047.205-.099.281-.156v.707c-.035.02-.078.041-.127.064z"/></g></g></svg>