<svg xmlns="http://www.w3.org/2000/svg" viewBox="0 0 16 16"><style>.st0{opacity:0}.st0,.st1{fill:#f6f6f6}.st2{fill:#424242}.st3{fill:#f0eff1}</style><g id="outline"><path class="st0" d="M0 0h16v16H0z"/><circle class="st1" cx="8" cy="8" r="7.5"/></g><path class="st2" d="M8.001 1.5A6.499 6.499 0 0 0 1.502 8H1.5c0 .01.003.019.004.029A6.498 6.498 0 0 0 14.5 8a6.5 6.5 0 0 0-6.499-6.5zM2.502 8c0-3.033 2.467-5.5 5.499-5.5.032 0 .063.004.095.005.257.072.645.462.995 1.265.687 1.575.887 3.9.624 5.948-.548.07-1.113.119-1.694.119-1.577 0-3.109-.273-4.203-.749C2.925 8.699 2.514 8.255 2.504 8h-.002zm6.588 4.201c-.358.827-.756 1.227-1.018 1.295-.023 0-.047.004-.071.004a5.507 5.507 0 0 1-5.24-3.836c.198.119.413.233.658.34 1.274.556 2.938.833 4.602.833.51 0 1.015-.035 1.514-.087-.118.521-.258 1.019-.445 1.451zm.592 1.033c.113-.191.224-.396.325-.632.257-.594.448-1.278.586-2.003.731-.139 1.421-.334 2.018-.596a5.5 5.5 0 0 0 .62-.32 5.52 5.52 0 0 1-3.549 3.551zm3.817-5.225c-.002.25-.404.692-1.29 1.079-.424.186-.929.33-1.464.45.229-2.148-.011-4.503-.738-6.171a5.396 5.396 0 0 0-.306-.595A5.509 5.509 0 0 1 13.5 8h-.002l.002.005-.001.004z" id="icon_x5F_bg"/><g id="icon_x5F_fg"><path class="st3" d="M3.817 9.088c1.094.476 2.626.749 4.203.749.581 0 1.146-.049 1.694-.119.264-2.048.063-4.373-.623-5.948-.35-.803-.738-1.193-.995-1.265-.032-.001-.063-.005-.095-.005A5.506 5.506 0 0 0 2.502 8h.002c.01.255.421.699 1.313 1.088zM3.419 10.004a5.52 5.52 0 0 1-.658-.34 5.507 5.507 0 0 0 5.24 3.836c.024 0 .048-.004.071-.004.262-.068.659-.468 1.018-1.295.188-.432.327-.93.444-1.451-.499.052-1.004.087-1.514.087-1.663 0-3.327-.277-4.601-.833zM10.593 10.6c-.138.725-.329 1.409-.586 2.003a5.628 5.628 0 0 1-.325.632 5.518 5.518 0 0 0 3.549-3.551c-.188.111-.39.221-.62.32-.597.262-1.287.457-2.018.596zM13.5 8a5.509 5.509 0 0 0-3.799-5.228c.105.182.21.374.306.595.728 1.667.968 4.023.738 6.171.535-.12 1.04-.265 1.464-.45.886-.387 1.288-.83 1.29-1.079l.001-.003L13.498 8h.002z"/></g></svg>