<svg xmlns="http://www.w3.org/2000/svg" viewBox="0 0 16 16"><style>.st0{fill:none}.st1,.st2{opacity:.5;fill:#39f}.st2{fill:#fff}.st3,.st4{opacity:.4;fill:#39f}.st4{fill:#fff}.st5,.st6{opacity:.3;fill:#39f}.st6{fill:#fff}.st7,.st8{opacity:.2;fill:#39f}.st8{fill:#fff}.st10,.st9{opacity:.1;fill:#39f}.st10{fill:#fff}.st11{fill:#39f}.st12{fill:#fff}.st13,.st14{opacity:.9;fill:#39f}.st14{fill:#fff}.st15,.st16{opacity:.8;fill:#39f}.st16{fill:#fff}.st17,.st18{opacity:.7;fill:#39f}.st18{fill:#fff}.st19,.st20{opacity:.6;fill:#39f}.st20{fill:#fff}</style><g id="_x31_0"><path class="st0" d="M0 .037h16v15.967H0z"/><ellipse transform="rotate(-36.06 11.403 12.762)" class="st1" cx="11.405" cy="12.762" rx="2.163" ry="2.162"/><ellipse transform="rotate(-35.943 11.405 12.762)" class="st2" cx="11.405" cy="12.762" rx="1.169" ry="1.168"/><path class="st3" d="M12.276 8.1a2.164 2.164 0 0 1 3.334 2.411 2.146 2.146 0 0 1-.788 1.085 2.177 2.177 0 0 1-1.937.309 2.15 2.15 0 0 1-1.263-1.07 2.145 2.145 0 0 1-.134-1.649c.142-.439.414-.815.788-1.086z"/><ellipse transform="rotate(-72.115 13.549 9.848)" class="st4" cx="13.549" cy="9.848" rx="1.167" ry="1.169"/><path class="st5" d="M12.286 4.484a2.15 2.15 0 0 1 .594-.303 2.152 2.152 0 0 1 1.652.122c.517.259.901.704 1.083 1.252a2.15 2.15 0 0 1-1.377 2.729 2.154 2.154 0 0 1-1.653-.122 2.148 2.148 0 0 1-1.083-1.252 2.153 2.153 0 0 1 .784-2.426z"/><ellipse transform="rotate(-18.33 13.559 6.233)" class="st6" cx="13.559" cy="6.233" rx="1.169" ry="1.167"/><path class="st7" d="M10.156 1.559a2.166 2.166 0 0 1 3.409 1.394 2.154 2.154 0 0 1-.863 2.103 2.162 2.162 0 1 1-2.546-3.497z"/><ellipse transform="rotate(-54.5 11.43 3.308)" class="st8" cx="11.43" cy="3.308" rx="1.168" ry="1.169"/><path class="st9" d="M6.709.45a2.157 2.157 0 0 1 1.25-.412 2.157 2.157 0 0 1 1.538.618A2.162 2.162 0 0 1 8.004 4.36 2.16 2.16 0 0 1 6.709.45z"/><ellipse transform="rotate(-.59 7.97 2.196)" class="st10" cx="7.981" cy="2.199" rx="1.17" ry="1.167"/><path class="st11" d="M3.268 1.586a2.177 2.177 0 0 1 3.009.456c.713.954.516 2.31-.439 3.023-.977.708-2.326.504-3.031-.44a2.137 2.137 0 0 1-.409-1.601 2.146 2.146 0 0 1 .847-1.421l.023-.017z"/><ellipse transform="rotate(-36.682 4.541 3.334)" class="st12" cx="4.542" cy="3.334" rx="1.169" ry="1.168"/><path class="st13" d="M1.162 4.527A2.163 2.163 0 0 1 4.505 6.91c-.14.452-.416.835-.797 1.111a2.177 2.177 0 0 1-1.912.317C1.245 8.17.791 7.796.521 7.285S.195 6.19.366 5.638c.138-.45.414-.834.796-1.111z"/><ellipse transform="rotate(-72.853 2.435 6.275)" class="st14" cx="2.435" cy="6.275" rx="1.167" ry="1.169"/><path class="st15" d="M1.198 8.142c.173-.125.364-.224.567-.294a2.157 2.157 0 0 1 1.655.1c.52.252.91.692 1.098 1.238.313.905.002 1.89-.773 2.452a2.176 2.176 0 0 1-2.221.195 2.145 2.145 0 0 1-1.099-1.239 2.147 2.147 0 0 1 .773-2.452z"/><ellipse transform="rotate(-19.069 2.472 9.89)" class="st16" cx="2.472" cy="9.89" rx="1.169" ry="1.167"/><path class="st17" d="M3.366 11.04a2.172 2.172 0 0 1 2.509-.026 2.16 2.16 0 1 1-2.472 3.547 2.158 2.158 0 0 1-.037-3.521z"/><ellipse transform="rotate(-55.236 4.638 12.788)" class="st18" cx="4.638" cy="12.788" rx="1.168" ry="1.169"/><path class="st19" d="M6.828 12.103a2.167 2.167 0 0 1 3.437 1.697 2.163 2.163 0 0 1-2.115 2.212 2.167 2.167 0 0 1-2.214-2.11 2.161 2.161 0 0 1 .892-1.799z"/><ellipse transform="rotate(-1.324 8.113 13.869)" class="st20" cx="8.101" cy="13.852" rx="1.17" ry="1.167"/></g><g id="_x39_"><ellipse transform="rotate(-72.036 13.546 9.862)" class="st1" cx="13.545" cy="9.861" rx="2.161" ry="2.165"/><ellipse transform="rotate(-71.965 13.545 9.861)" class="st2" cx="13.545" cy="9.861" rx="1.167" ry="1.169"/><path class="st3" d="M11.505 5.579a2.171 2.171 0 0 1 1.385-1.386 2.17 2.17 0 0 1 2.732 1.381c.144.439.144.902.002 1.34a2.17 2.17 0 0 1-3.038 1.261 2.146 2.146 0 0 1-1.079-1.255 2.142 2.142 0 0 1-.002-1.341z"/><ellipse transform="rotate(-18.177 13.567 6.246)" class="st4" cx="13.564" cy="6.246" rx="1.169" ry="1.167"/><path class="st5" d="M9.383 2.648c.069-.212.171-.411.302-.593a2.15 2.15 0 0 1 1.409-.871 2.153 2.153 0 0 1 1.613.378 2.152 2.152 0 0 1 .494 3.015 2.15 2.15 0 0 1-1.409.871 2.153 2.153 0 0 1-1.613-.378 2.153 2.153 0 0 1-.796-2.422z"/><ellipse transform="rotate(-54.352 11.443 3.315)" class="st6" cx="11.443" cy="3.315" rx="1.168" ry="1.169"/><path class="st7" d="M5.937 1.53A2.162 2.162 0 0 1 7.98.037a2.156 2.156 0 0 1 1.536.621 2.143 2.143 0 0 1 .54 2.207A2.166 2.166 0 1 1 5.937 1.53z"/><ellipse transform="rotate(-.441 8.005 2.2)" class="st8" cx="7.997" cy="2.198" rx="1.17" ry="1.167"/><path class="st9" d="M2.495 2.655c.14-.429.406-.797.768-1.066a2.154 2.154 0 0 1 1.608-.402 2.145 2.145 0 0 1 1.421.85 2.156 2.156 0 0 1-.446 3.022 2.163 2.163 0 0 1-1.608.402 2.162 2.162 0 0 1-1.743-2.806z"/><ellipse transform="rotate(-36.534 4.554 3.324)" class="st10" cx="4.554" cy="3.324" rx="1.169" ry="1.168"/><path class="st11" d="M.38 5.592a2.175 2.175 0 0 1 2.703-1.396A2.164 2.164 0 0 1 4.508 6.9a2.18 2.18 0 0 1-2.711 1.422C1.246 8.152.793 7.776.524 7.265S.2 6.17.372 5.619l.008-.027z"/><ellipse transform="rotate(-72.704 2.44 6.26)" class="st12" cx="2.44" cy="6.259" rx="1.167" ry="1.169"/><path class="st13" d="M.408 9.208a2.175 2.175 0 0 1 1.36-1.378 2.17 2.17 0 0 1 2.749 1.345c.153.447.156.92.01 1.366a2.17 2.17 0 0 1-3.013 1.274 2.143 2.143 0 0 1-1.095-1.242 2.133 2.133 0 0 1-.011-1.365z"/><ellipse transform="rotate(-18.922 2.467 9.874)" class="st14" cx="2.467" cy="9.875" rx="1.169" ry="1.167"/><path class="st15" d="M2.567 12.11c.066-.203.162-.395.286-.57.331-.473.827-.789 1.397-.89s1.144.026 1.618.357a2.147 2.147 0 0 1 .819 2.438 2.15 2.15 0 0 1-1.682 1.461 2.153 2.153 0 0 1-1.619-.357 2.149 2.149 0 0 1-.819-2.439z"/><ellipse transform="rotate(-55.088 4.627 12.778)" class="st16" cx="4.627" cy="12.778" rx="1.168" ry="1.169"/><path class="st17" d="M6.027 13.183a2.165 2.165 0 0 1 4.118 1.336 2.165 2.165 0 0 1-4.118-1.336z"/><ellipse transform="rotate(-1.146 8.08 13.821)" class="st18" cx="8.086" cy="13.851" rx="1.17" ry="1.167"/><path class="st19" d="M9.455 12.012c.136-.419.395-.782.746-1.05a2.172 2.172 0 0 1 3.034.406 2.16 2.16 0 0 1-.409 3.031c-.95.722-2.31.538-3.034-.408a2.158 2.158 0 0 1-.337-1.979z"/><ellipse transform="rotate(-37.269 11.515 12.68)" class="st20" cx="11.514" cy="12.681" rx="1.169" ry="1.168"/></g><g id="_x38_"><ellipse transform="rotate(-17.964 13.569 6.267)" class="st1" cx="13.567" cy="6.267" rx="2.165" ry="2.161"/><ellipse transform="rotate(-18.035 13.567 6.267)" class="st2" cx="13.567" cy="6.267" rx="1.169" ry="1.167"/><path class="st3" d="M9.394 3.999a2.163 2.163 0 0 1 .304-1.934 2.172 2.172 0 0 1 3.023-.486c.375.271.648.645.791 1.083a2.163 2.163 0 0 1-3.328 2.419 2.138 2.138 0 0 1-.79-1.082z"/><ellipse transform="rotate(-54.204 11.453 3.33)" class="st4" cx="11.453" cy="3.331" rx="1.168" ry="1.169"/><path class="st5" d="M5.951 2.872a2.146 2.146 0 0 1-.106-.657A2.14 2.14 0 0 1 6.472.684C6.879.274 7.421.046 8 .043a2.159 2.159 0 0 1 2.177 2.15 2.14 2.14 0 0 1-.627 1.531c-.408.411-.95.638-1.529.641a2.157 2.157 0 0 1-2.07-1.493z"/><ellipse transform="translate(-.011 .041)" class="st6" cx="8.01" cy="2.204" rx="1.17" ry="1.167"/><path class="st7" d="M2.505 3.99a2.157 2.157 0 0 1 .773-2.407 2.155 2.155 0 0 1 1.609-.398 2.16 2.16 0 0 1 .965 3.875 2.173 2.173 0 0 1-3.347-1.07z"/><ellipse transform="rotate(-36.386 4.565 3.321)" class="st8" cx="4.565" cy="3.321" rx="1.169" ry="1.168"/><path class="st9" d="M.382 6.918a2.149 2.149 0 0 1-.006-1.313A2.15 2.15 0 0 1 1.44 4.336a2.169 2.169 0 0 1 3.062 1.248c.14.429.141.883.006 1.314a2.15 2.15 0 0 1-1.062 1.269A2.168 2.168 0 0 1 .382 6.918z"/><ellipse transform="rotate(-72.554 2.443 6.252)" class="st10" cx="2.442" cy="6.251" rx="1.167" ry="1.169"/><path class="st11" d="M.402 10.535a2.167 2.167 0 0 1 1.364-2.714 2.17 2.17 0 0 1 2.745 1.351 2.173 2.173 0 0 1-1.356 2.741c-.546.185-1.134.147-1.653-.108s-.907-.697-1.093-1.243l-.007-.027z"/><ellipse transform="rotate(-18.773 2.461 9.868)" class="st12" cx="2.461" cy="9.867" rx="1.169" ry="1.167"/><path class="st13" d="M2.554 13.444a2.168 2.168 0 0 1 .289-1.912 2.172 2.172 0 0 1 3.016-.525c.387.272.667.653.813 1.099.21.645.102 1.36-.289 1.913-.331.471-.828.786-1.398.885s-1.144-.029-1.618-.362a2.137 2.137 0 0 1-.813-1.098z"/><ellipse transform="rotate(-54.942 4.612 12.775)" class="st14" cx="4.613" cy="12.776" rx="1.168" ry="1.169"/><path class="st15" d="M6.01 14.526a2.165 2.165 0 0 1 .501-2.168c.401-.416.941-.65 1.519-.66a2.152 2.152 0 0 1 2.098 1.492 2.146 2.146 0 0 1-.5 2.168 2.15 2.15 0 0 1-1.52.66 2.153 2.153 0 0 1-2.098-1.492z"/><ellipse transform="rotate(-1.031 8.064 13.85)" class="st16" cx="8.069" cy="13.858" rx="1.17" ry="1.167"/><path class="st17" d="M9.441 13.364a2.158 2.158 0 0 1 .751-2.389 2.17 2.17 0 0 1 3.368 1.053 2.157 2.157 0 0 1-.752 2.389 2.17 2.17 0 0 1-3.367-1.053z"/><ellipse transform="rotate(-37.123 11.501 12.697)" class="st18" cx="11.5" cy="12.696" rx="1.169" ry="1.168"/><path class="st19" d="M11.525 10.406a2.157 2.157 0 0 1-.015-1.287 2.167 2.167 0 1 1 4.134-.047c.136.419.141.864.014 1.287a2.168 2.168 0 0 1-4.133.047z"/><ellipse transform="rotate(-73.298 13.584 9.74)" class="st20" cx="13.585" cy="9.739" rx="1.167" ry="1.169"/></g><g id="_x37_"><ellipse transform="rotate(-53.942 11.464 3.346)" class="st1" cx="11.463" cy="3.346" rx="2.162" ry="2.163"/><ellipse transform="rotate(-54.056 11.463 3.346)" class="st2" cx="11.463" cy="3.346" rx="1.168" ry="1.169"/><path class="st3" d="M6.751 3.959a2.168 2.168 0 0 1-.893-1.743A2.166 2.166 0 0 1 9.295.462c.558.404.892 1.056.893 1.744a2.14 2.14 0 0 1-.63 1.529 2.15 2.15 0 0 1-1.529.636 2.15 2.15 0 0 1-1.278-.412z"/><ellipse transform="translate(-.006 .02)" class="st4" cx="8.023" cy="2.211" rx="1.17" ry="1.167"/><path class="st5" d="M3.302 5.068a2.17 2.17 0 0 1-.867-2.076 2.142 2.142 0 0 1 .859-1.415 2.16 2.16 0 0 1 3.026.463c.342.465.483 1.036.395 1.606a2.142 2.142 0 0 1-.859 1.415 2.164 2.164 0 0 1-2.554.007z"/><ellipse transform="rotate(-36.24 4.575 3.319)" class="st6" cx="4.575" cy="3.319" rx="1.169" ry="1.168"/><path class="st7" d="M1.173 7.993a2.156 2.156 0 0 1 .275-3.666 2.156 2.156 0 0 1 2.271.169 2.157 2.157 0 0 1 .792 2.4 2.173 2.173 0 0 1-3.338 1.097z"/><ellipse transform="rotate(-72.409 2.445 6.244)" class="st8" cx="2.445" cy="6.244" rx="1.167" ry="1.169"/><path class="st9" d="M1.18 11.607a2.16 2.16 0 0 1 .584-3.796 2.173 2.173 0 0 1 1.964.3 2.16 2.16 0 0 1-.584 3.796 2.173 2.173 0 0 1-1.964-.3z"/><ellipse transform="rotate(-18.63 2.453 9.859)" class="st10" cx="2.454" cy="9.859" rx="1.169" ry="1.167"/><path class="st11" d="M3.326 14.522a2.166 2.166 0 0 1-.495-2.996 2.17 2.17 0 0 1 3.017-.517c.977.708 1.199 2.052.518 3.013-.333.47-.831.784-1.4.882a2.153 2.153 0 0 1-1.616-.365l-.024-.017z"/><ellipse transform="rotate(-54.795 4.598 12.773)" class="st12" cx="4.598" cy="12.773" rx="1.168" ry="1.169"/><path class="st13" d="M6.781 15.612a2.172 2.172 0 0 1-.893-1.716 2.166 2.166 0 0 1 3.436-1.781c.55.399.883 1.04.893 1.717.009.575-.207 1.121-.61 1.536s-.943.648-1.522.656a2.14 2.14 0 0 1-1.304-.412z"/><ellipse transform="rotate(-.81 8.079 13.87)" class="st14" cx="8.052" cy="13.864" rx="1.17" ry="1.167"/><path class="st15" d="M10.214 14.46a2.124 2.124 0 0 1-.455-.448 2.14 2.14 0 0 1-.416-1.601c.08-.572.378-1.077.84-1.425a2.157 2.157 0 0 1 2.576-.024c.173.125.327.276.457.447.348.46.496 1.029.415 1.6a2.146 2.146 0 0 1-.841 1.426c-.766.578-1.8.588-2.576.025z"/><ellipse transform="rotate(-36.975 11.487 12.711)" class="st16" cx="11.486" cy="12.712" rx="1.169" ry="1.168"/><path class="st17" d="M12.306 11.508a2.16 2.16 0 0 1-.8-2.373 2.169 2.169 0 0 1 3.345-1.123 2.16 2.16 0 0 1 .799 2.374 2.168 2.168 0 0 1-3.344 1.122z"/><ellipse transform="rotate(-73.149 13.577 9.76)" class="st18" cx="13.578" cy="9.76" rx="1.167" ry="1.169"/><path class="st19" d="M12.249 7.893a2.155 2.155 0 0 1-.77-1.033 2.164 2.164 0 0 1 4.087-1.43 2.164 2.164 0 0 1-3.317 2.463z"/><ellipse transform="rotate(-19.369 13.521 6.145)" class="st20" cx="13.523" cy="6.145" rx="1.169" ry="1.167"/></g><g id="_x36_"><ellipse class="st1" cx="8.036" cy="2.217" rx="2.165" ry="2.161"/><ellipse class="st2" cx="8.036" cy="2.218" rx="1.17" ry="1.167"/><path class="st3" d="M4.585 5.478a2.174 2.174 0 0 1-1.749-.886 2.162 2.162 0 0 1 1.748-3.436c.689 0 1.343.331 1.749.887a2.14 2.14 0 0 1 .391 1.606 2.139 2.139 0 0 1-.862 1.412 2.149 2.149 0 0 1-1.277.417z"/><ellipse transform="rotate(-36.092 4.585 3.317)" class="st4" cx="4.585" cy="3.317" rx="1.169" ry="1.168"/><path class="st5" d="M2.448 8.397a2.175 2.175 0 0 1-1.924-1.17 2.159 2.159 0 0 1 2.582-3.049 2.147 2.147 0 0 1 1.265 1.068c.266.512.315 1.097.139 1.647a2.158 2.158 0 0 1-2.062 1.504z"/><ellipse transform="rotate(-72.261 2.448 6.236)" class="st6" cx="2.448" cy="6.236" rx="1.167" ry="1.169"/><path class="st7" d="M2.448 12.013a2.162 2.162 0 1 1 0-4.323c.933 0 1.759.594 2.054 1.477a2.164 2.164 0 0 1-2.054 2.846z"/><ellipse transform="rotate(-18.477 2.448 9.853)" class="st8" cx="2.447" cy="9.851" rx="1.169" ry="1.167"/><path class="st9" d="M4.583 14.933a2.16 2.16 0 0 1-2.134-1.802 2.146 2.146 0 0 1 .37-1.612 2.169 2.169 0 0 1 3.019-.509c.471.335.784.833.88 1.401a2.147 2.147 0 0 1-.37 1.613 2.171 2.171 0 0 1-1.765.909z"/><ellipse transform="rotate(-54.648 4.584 12.77)" class="st10" cx="4.584" cy="12.771" rx="1.168" ry="1.169"/><path class="st11" d="M8.036 16.032a2.171 2.171 0 0 1-2.165-2.134 2.165 2.165 0 0 1 2.136-2.188c1.208 0 2.179.957 2.194 2.134.008.575-.21 1.122-.614 1.535s-.945.645-1.523.653h-.028z"/><ellipse transform="rotate(-.81 7.986 13.83)" class="st12" cx="8.035" cy="13.871" rx="1.17" ry="1.167"/><path class="st13" d="M11.473 14.888a2.16 2.16 0 1 1-.002-4.321c.68 0 1.327.323 1.734.866.346.46.493 1.029.411 1.6s-.381 1.077-.845 1.423a2.148 2.148 0 0 1-1.298.432z"/><ellipse transform="rotate(-36.829 11.473 12.728)" class="st14" cx="11.472" cy="12.727" rx="1.169" ry="1.168"/><path class="st15" d="M13.572 11.942c-.214 0-.427-.032-.632-.095a2.152 2.152 0 0 1-1.28-1.051 2.136 2.136 0 0 1-.159-1.646 2.152 2.152 0 0 1 2.07-1.53c.214 0 .427.032.633.094a2.15 2.15 0 0 1 1.279 1.051c.272.509.329 1.095.159 1.647a2.152 2.152 0 0 1-2.07 1.53z"/><ellipse transform="rotate(-72.998 13.572 9.78)" class="st16" cx="13.572" cy="9.781" rx="1.167" ry="1.169"/><path class="st17" d="M13.525 8.327a2.167 2.167 0 0 1-2.045-1.451 2.162 2.162 0 0 1 2.045-2.871 2.161 2.161 0 1 1 0 4.322z"/><ellipse transform="rotate(-19.213 13.528 6.166)" class="st18" cx="13.525" cy="6.166" rx="1.169" ry="1.167"/><path class="st19" d="M11.35 5.435a2.162 2.162 0 1 1 1.233-3.939 2.161 2.161 0 0 1-1.233 3.939z"/><ellipse transform="rotate(-55.383 11.35 3.274)" class="st20" cx="11.351" cy="3.274" rx="1.168" ry="1.169"/></g><g id="_x35_"><ellipse transform="rotate(-36.06 4.595 3.312)" class="st1" cx="4.595" cy="3.312" rx="2.163" ry="2.162"/><ellipse transform="rotate(-35.943 4.595 3.312)" class="st2" cx="4.595" cy="3.312" rx="1.169" ry="1.168"/><path class="st3" d="M3.724 7.974A2.164 2.164 0 0 1 .39 5.563c.142-.439.414-.814.788-1.085a2.177 2.177 0 0 1 1.937-.309c.55.176.999.557 1.263 1.07.264.514.311 1.1.134 1.649a2.149 2.149 0 0 1-.788 1.086z"/><ellipse transform="rotate(-72.115 2.45 6.225)" class="st4" cx="2.451" cy="6.226" rx="1.167" ry="1.169"/><path class="st5" d="M3.714 11.59a2.15 2.15 0 0 1-.594.303 2.154 2.154 0 0 1-1.653-.122 2.148 2.148 0 0 1-1.083-1.252A2.153 2.153 0 0 1 1.762 7.79a2.147 2.147 0 0 1 1.652.121c.517.259.901.704 1.083 1.252a2.152 2.152 0 0 1-.783 2.427z"/><ellipse transform="rotate(-18.33 2.44 9.84)" class="st6" cx="2.441" cy="9.841" rx="1.169" ry="1.167"/><path class="st7" d="M5.844 14.514a2.166 2.166 0 0 1-3.409-1.394 2.154 2.154 0 0 1 .863-2.103 2.162 2.162 0 1 1 2.546 3.497z"/><ellipse transform="rotate(-54.5 4.57 12.766)" class="st8" cx="4.57" cy="12.766" rx="1.168" ry="1.169"/><path class="st9" d="M9.291 15.624a2.157 2.157 0 0 1-1.25.412 2.157 2.157 0 0 1-1.538-.618 2.15 2.15 0 0 1-.65-1.521 2.162 2.162 0 0 1 2.143-2.183 2.16 2.16 0 0 1 1.295 3.91z"/><ellipse transform="rotate(-.59 8.006 13.847)" class="st10" cx="8.019" cy="13.875" rx="1.17" ry="1.167"/><path class="st11" d="M12.732 14.488a2.177 2.177 0 0 1-3.009-.456 2.162 2.162 0 0 1 .439-3.023c.977-.708 2.326-.504 3.031.44.345.461.491 1.031.408 1.602a2.146 2.146 0 0 1-.847 1.421l-.022.016z"/><ellipse transform="rotate(-36.682 11.458 12.74)" class="st12" cx="11.458" cy="12.74" rx="1.169" ry="1.168"/><path class="st13" d="M14.838 11.547a2.163 2.163 0 0 1-3.343-2.383c.14-.452.416-.835.797-1.111a2.177 2.177 0 0 1 1.912-.317 2.146 2.146 0 0 1 1.275 1.053c.271.51.326 1.095.155 1.647-.138.45-.414.834-.796 1.111z"/><ellipse transform="rotate(-72.853 13.566 9.8)" class="st14" cx="13.565" cy="9.799" rx="1.167" ry="1.169"/><path class="st15" d="M14.802 7.932a2.183 2.183 0 0 1-.567.294 2.15 2.15 0 0 1-1.654-.1 2.141 2.141 0 0 1-1.098-1.238 2.145 2.145 0 0 1 .773-2.452 2.176 2.176 0 0 1 2.221-.195c.52.252.911.693 1.099 1.239a2.15 2.15 0 0 1-.774 2.452z"/><ellipse transform="rotate(-19.069 13.529 6.184)" class="st16" cx="13.528" cy="6.184" rx="1.169" ry="1.167"/><path class="st17" d="M12.634 5.034c-.745.54-1.753.55-2.509.026a2.16 2.16 0 1 1 2.472-3.547 2.158 2.158 0 0 1 .037 3.521z"/><ellipse transform="rotate(-55.236 11.362 3.286)" class="st18" cx="11.362" cy="3.286" rx="1.168" ry="1.169"/><path class="st19" d="M9.172 3.971a2.167 2.167 0 0 1-3.438-1.697 2.164 2.164 0 0 1 4.329-.102 2.159 2.159 0 0 1-.891 1.799z"/><ellipse transform="rotate(-1.324 7.91 2.226)" class="st20" cx="7.899" cy="2.222" rx="1.17" ry="1.167"/></g><g id="_x34_"><ellipse transform="rotate(-72.036 2.455 6.213)" class="st1" cx="2.455" cy="6.213" rx="2.161" ry="2.165"/><ellipse transform="rotate(-71.965 2.455 6.212)" class="st2" cx="2.455" cy="6.213" rx="1.167" ry="1.169"/><path class="st3" d="M4.495 10.495a2.171 2.171 0 0 1-1.385 1.386A2.17 2.17 0 0 1 .378 10.5a2.146 2.146 0 0 1-.002-1.34A2.17 2.17 0 0 1 3.414 7.9c.516.261.9.707 1.079 1.255.144.438.145.902.002 1.34z"/><ellipse transform="rotate(-18.177 2.437 9.83)" class="st4" cx="2.436" cy="9.828" rx="1.169" ry="1.167"/><path class="st5" d="M6.617 13.426a2.157 2.157 0 0 1-.302.593 2.15 2.15 0 0 1-1.409.871 2.153 2.153 0 0 1-1.613-.378 2.152 2.152 0 0 1-.494-3.015 2.15 2.15 0 0 1 1.409-.871 2.153 2.153 0 0 1 1.613.378 2.152 2.152 0 0 1 .796 2.422z"/><ellipse transform="rotate(-54.352 4.557 12.759)" class="st6" cx="4.557" cy="12.759" rx="1.168" ry="1.169"/><path class="st7" d="M10.063 14.544a2.162 2.162 0 0 1-2.043 1.493 2.156 2.156 0 0 1-1.536-.621 2.143 2.143 0 0 1-.54-2.207 2.167 2.167 0 0 1 4.225.65c.001.234-.034.464-.106.685z"/><ellipse transform="matrix(1 -.0077 .0077 1 -.107 .062)" class="st8" cx="8.003" cy="13.876" rx="1.17" ry="1.167"/><path class="st9" d="M13.505 13.419c-.14.429-.406.797-.768 1.066a2.154 2.154 0 0 1-1.608.402 2.161 2.161 0 0 1 .633-4.275 2.164 2.164 0 0 1 1.743 2.807z"/><ellipse transform="rotate(-36.534 11.446 12.75)" class="st10" cx="11.446" cy="12.75" rx="1.169" ry="1.168"/><path class="st11" d="M15.62 10.482a2.175 2.175 0 0 1-2.703 1.396 2.164 2.164 0 0 1-1.425-2.704 2.18 2.18 0 0 1 2.711-1.423c.551.17 1.004.546 1.273 1.057s.323 1.096.152 1.647l-.008.027z"/><ellipse transform="rotate(-72.704 13.56 9.815)" class="st12" cx="13.56" cy="9.815" rx="1.167" ry="1.169"/><path class="st13" d="M15.592 6.866a2.172 2.172 0 0 1-1.359 1.377 2.17 2.17 0 0 1-2.749-1.344 2.136 2.136 0 0 1-.01-1.366 2.17 2.17 0 0 1 3.013-1.274c.519.254.909.695 1.095 1.242.153.446.155.918.01 1.365z"/><ellipse transform="rotate(-18.922 13.531 6.199)" class="st14" cx="13.533" cy="6.199" rx="1.169" ry="1.167"/><path class="st15" d="M13.433 3.964a2.117 2.117 0 0 1-.286.57 2.151 2.151 0 0 1-1.397.89 2.15 2.15 0 0 1-1.618-.357 2.146 2.146 0 0 1-.818-2.438 2.15 2.15 0 0 1 1.682-1.461 2.153 2.153 0 0 1 1.619.357 2.15 2.15 0 0 1 .818 2.439z"/><ellipse transform="rotate(-55.088 11.374 3.296)" class="st16" cx="11.373" cy="3.296" rx="1.168" ry="1.169"/><path class="st17" d="M9.973 2.891a2.166 2.166 0 0 1-4.119-1.336 2.165 2.165 0 0 1 4.119 1.336z"/><ellipse transform="rotate(-1.146 7.9 2.213)" class="st18" cx="7.914" cy="2.223" rx="1.17" ry="1.167"/><path class="st19" d="M6.545 4.062a2.147 2.147 0 0 1-.746 1.049 2.172 2.172 0 0 1-3.034-.406 2.16 2.16 0 0 1 .409-3.031 2.171 2.171 0 0 1 3.034.408 2.16 2.16 0 0 1 .337 1.98z"/><ellipse transform="rotate(-37.269 4.486 3.393)" class="st20" cx="4.486" cy="3.393" rx="1.169" ry="1.168"/></g><g id="_x33_"><ellipse transform="rotate(-17.964 2.433 9.809)" class="st1" cx="2.433" cy="9.807" rx="2.165" ry="2.161"/><ellipse transform="rotate(-18.035 2.433 9.807)" class="st2" cx="2.433" cy="9.807" rx="1.169" ry="1.167"/><path class="st3" d="M6.606 12.075a2.166 2.166 0 0 1-.304 1.934 2.172 2.172 0 0 1-3.023.486 2.15 2.15 0 0 1-.791-1.083 2.163 2.163 0 0 1 3.328-2.419c.374.269.648.644.79 1.082z"/><ellipse transform="rotate(-54.204 4.547 12.743)" class="st4" cx="4.547" cy="12.743" rx="1.168" ry="1.169"/><path class="st5" d="M10.049 13.202c.069.212.104.433.106.657a2.14 2.14 0 0 1-.627 1.531c-.407.41-.949.638-1.528.641a2.159 2.159 0 0 1-2.177-2.15 2.14 2.14 0 0 1 .627-1.531c.407-.41.949-.638 1.528-.641a2.157 2.157 0 0 1 2.071 1.493z"/><ellipse transform="translate(-.071 .041)" class="st6" cx="7.99" cy="13.87" rx="1.17" ry="1.167"/><path class="st7" d="M13.495 12.084a2.158 2.158 0 0 1-.773 2.407 2.153 2.153 0 0 1-1.608.398 2.16 2.16 0 0 1-.965-3.875 2.173 2.173 0 0 1 3.346 1.07z"/><ellipse transform="rotate(-36.386 11.436 12.753)" class="st8" cx="11.435" cy="12.753" rx="1.169" ry="1.168"/><path class="st9" d="M15.618 9.156c.14.429.141.883.006 1.314a2.145 2.145 0 0 1-1.064 1.268 2.169 2.169 0 0 1-3.062-1.248 2.144 2.144 0 0 1-.006-1.314 2.151 2.151 0 0 1 1.063-1.269 2.16 2.16 0 0 1 1.651-.147 2.171 2.171 0 0 1 1.412 1.396z"/><ellipse transform="rotate(-72.554 13.558 9.822)" class="st10" cx="13.558" cy="9.822" rx="1.167" ry="1.169"/><path class="st11" d="M15.598 5.539a2.17 2.17 0 0 1-1.364 2.715 2.17 2.17 0 0 1-2.745-1.351 2.173 2.173 0 0 1 1.356-2.741 2.158 2.158 0 0 1 1.653.108c.519.255.907.697 1.093 1.243l.007.026z"/><ellipse transform="rotate(-18.773 13.54 6.208)" class="st12" cx="13.539" cy="6.207" rx="1.169" ry="1.167"/><path class="st13" d="M13.446 2.63a2.168 2.168 0 0 1-.289 1.912 2.172 2.172 0 0 1-3.016.525 2.166 2.166 0 0 1-.523-3.013 2.147 2.147 0 0 1 1.398-.885 2.154 2.154 0 0 1 1.618.362c.386.271.666.652.812 1.099z"/><ellipse transform="rotate(-54.942 11.387 3.298)" class="st14" cx="11.387" cy="3.298" rx="1.168" ry="1.169"/><path class="st15" d="M9.99 1.548a2.165 2.165 0 0 1-.501 2.168c-.401.416-.941.65-1.519.66a2.152 2.152 0 0 1-2.204-2.121A2.14 2.14 0 0 1 6.372.716a2.15 2.15 0 0 1 1.52-.66A2.153 2.153 0 0 1 9.99 1.548z"/><ellipse transform="rotate(-1.031 7.925 2.216)" class="st16" cx="7.931" cy="2.216" rx="1.17" ry="1.167"/><path class="st17" d="M6.559 2.71a2.158 2.158 0 0 1-.751 2.389A2.17 2.17 0 0 1 2.44 4.045a2.158 2.158 0 0 1 .752-2.389A2.17 2.17 0 0 1 6.559 2.71z"/><ellipse transform="rotate(-37.123 4.5 3.378)" class="st18" cx="4.5" cy="3.377" rx="1.169" ry="1.168"/><path class="st19" d="M4.475 5.668c.137.419.142.864.015 1.286a2.17 2.17 0 0 1-2.694 1.452 2.167 2.167 0 0 1-1.44-1.404 2.144 2.144 0 0 1-.015-1.288 2.168 2.168 0 0 1 4.134-.046z"/><ellipse transform="rotate(-73.298 2.415 6.335)" class="st20" cx="2.415" cy="6.335" rx="1.167" ry="1.169"/></g><g id="_x32_"><ellipse transform="rotate(-53.942 4.537 12.729)" class="st1" cx="4.537" cy="12.728" rx="2.162" ry="2.163"/><ellipse transform="rotate(-54.056 4.537 12.728)" class="st2" cx="4.537" cy="12.728" rx="1.168" ry="1.169"/><path class="st3" d="M9.249 12.115c.557.404.891 1.056.893 1.743a2.166 2.166 0 0 1-3.437 1.754 2.164 2.164 0 0 1-.893-1.744 2.14 2.14 0 0 1 .63-1.529 2.153 2.153 0 0 1 1.53-.636c.461-.002.903.141 1.277.412z"/><ellipse transform="translate(-.036 .02)" class="st4" cx="7.977" cy="13.863" rx="1.17" ry="1.167"/><path class="st5" d="M12.698 11.006c.181.131.339.289.472.47.342.465.483 1.036.395 1.606a2.142 2.142 0 0 1-.859 1.415 2.16 2.16 0 0 1-3.026-.463 2.143 2.143 0 0 1-.395-1.606 2.142 2.142 0 0 1 .859-1.415 2.164 2.164 0 0 1 2.554-.007z"/><ellipse transform="rotate(-36.24 11.424 12.754)" class="st6" cx="11.425" cy="12.755" rx="1.169" ry="1.168"/><path class="st7" d="M14.827 8.081a2.157 2.157 0 0 1-.275 3.667 2.156 2.156 0 0 1-2.271-.169 2.157 2.157 0 0 1-.792-2.4 2.171 2.171 0 0 1 3.338-1.098z"/><ellipse transform="rotate(-72.409 13.555 9.83)" class="st8" cx="13.555" cy="9.83" rx="1.167" ry="1.169"/><path class="st9" d="M14.82 4.467a2.16 2.16 0 0 1-.584 3.796 2.173 2.173 0 0 1-1.964-.3 2.16 2.16 0 0 1 .584-3.796 2.173 2.173 0 0 1 1.964.3z"/><ellipse transform="rotate(-18.63 13.545 6.216)" class="st10" cx="13.546" cy="6.215" rx="1.169" ry="1.167"/><path class="st11" d="M12.674 1.552a2.166 2.166 0 0 1 .495 2.996 2.17 2.17 0 0 1-3.017.517c-.977-.708-1.199-2.051-.518-3.012.333-.47.831-.784 1.4-.882a2.153 2.153 0 0 1 1.616.365l.024.016z"/><ellipse transform="rotate(-54.795 11.401 3.3)" class="st12" cx="11.402" cy="3.301" rx="1.168" ry="1.169"/><path class="st13" d="M9.219.462c.548.398.883 1.039.893 1.716a2.166 2.166 0 0 1-3.436 1.78 2.17 2.17 0 0 1-.893-1.717 2.143 2.143 0 0 1 .61-1.536A2.152 2.152 0 0 1 7.915.049c.472-.007.923.136 1.304.413z"/><ellipse transform="rotate(-.81 7.96 2.201)" class="st14" cx="7.948" cy="2.21" rx="1.17" ry="1.167"/><path class="st15" d="M5.786 1.613c.173.126.327.277.455.448.349.46.496 1.029.417 1.601a2.143 2.143 0 0 1-.84 1.425c-.766.576-1.8.586-2.576.024a2.157 2.157 0 0 1-.872-2.048c.08-.572.379-1.078.841-1.426a2.156 2.156 0 0 1 2.575-.024z"/><ellipse transform="rotate(-36.975 4.514 3.362)" class="st16" cx="4.514" cy="3.362" rx="1.169" ry="1.168"/><path class="st17" d="M3.694 4.566a2.16 2.16 0 0 1 .8 2.373 2.169 2.169 0 0 1-3.345 1.123A2.16 2.16 0 0 1 .35 5.688a2.168 2.168 0 0 1 3.344-1.122z"/><ellipse transform="rotate(-73.149 2.422 6.314)" class="st18" cx="2.422" cy="6.314" rx="1.167" ry="1.169"/><path class="st19" d="M3.751 8.181c.357.259.623.616.77 1.033a2.164 2.164 0 0 1-4.087 1.43 2.163 2.163 0 0 1 3.317-2.463z"/><ellipse transform="rotate(-19.369 2.477 9.928)" class="st20" cx="2.477" cy="9.929" rx="1.169" ry="1.167"/></g><g id="_x31_"><ellipse class="st1" cx="7.964" cy="13.856" rx="2.165" ry="2.161"/><ellipse class="st2" cx="7.964" cy="13.856" rx="1.17" ry="1.167"/><path class="st3" d="M11.415 10.596c.689 0 1.343.331 1.749.886a2.162 2.162 0 0 1-1.748 3.436 2.172 2.172 0 0 1-1.749-.887 2.14 2.14 0 0 1-.391-1.606 2.144 2.144 0 0 1 .863-1.412 2.144 2.144 0 0 1 1.276-.417z"/><ellipse transform="rotate(-36.092 11.415 12.757)" class="st4" cx="11.415" cy="12.757" rx="1.169" ry="1.168"/><path class="st5" d="M13.552 7.676c.223 0 .445.035.659.103a2.147 2.147 0 0 1 1.265 1.068 2.159 2.159 0 0 1-2.582 3.049 2.147 2.147 0 0 1-1.265-1.068 2.159 2.159 0 0 1 1.923-3.152z"/><ellipse transform="rotate(-72.261 13.552 9.837)" class="st6" cx="13.552" cy="9.838" rx="1.167" ry="1.169"/><path class="st7" d="M13.552 4.061a2.162 2.162 0 1 1 0 4.323 2.163 2.163 0 0 1-2.054-1.477 2.164 2.164 0 0 1 2.054-2.846z"/><ellipse transform="rotate(-18.477 13.555 6.223)" class="st8" cx="13.553" cy="6.222" rx="1.169" ry="1.167"/><path class="st9" d="M11.417 1.141a2.16 2.16 0 0 1 2.134 1.802 2.146 2.146 0 0 1-.37 1.612 2.169 2.169 0 0 1-3.019.509 2.146 2.146 0 0 1-.881-1.401 2.147 2.147 0 0 1 .37-1.613 2.175 2.175 0 0 1 1.766-.909z"/><ellipse transform="rotate(-54.648 11.416 3.303)" class="st10" cx="11.416" cy="3.303" rx="1.168" ry="1.169"/><path class="st11" d="M7.964.042c1.179 0 2.15.957 2.165 2.134a2.165 2.165 0 0 1-2.136 2.188c-1.208 0-2.179-.957-2.194-2.134-.007-.575.211-1.122.614-1.535S7.358.05 7.936.042h.028z"/><ellipse transform="rotate(-.81 7.929 2.209)" class="st12" cx="7.965" cy="2.203" rx="1.17" ry="1.167"/><path class="st13" d="M4.527 1.186a2.161 2.161 0 1 1 .002 4.321c-.68 0-1.327-.323-1.734-.866a2.14 2.14 0 0 1-.411-1.6 2.142 2.142 0 0 1 .845-1.423 2.141 2.141 0 0 1 1.298-.432z"/><ellipse transform="rotate(-36.829 4.528 3.347)" class="st14" cx="4.528" cy="3.346" rx="1.169" ry="1.168"/><path class="st15" d="M2.428 4.132c.214 0 .427.032.632.095.553.168 1.007.541 1.28 1.051s.329 1.094.159 1.646a2.152 2.152 0 0 1-2.07 1.53A2.157 2.157 0 0 1 .358 5.662a2.152 2.152 0 0 1 2.07-1.53z"/><ellipse transform="rotate(-72.998 2.429 6.293)" class="st16" cx="2.428" cy="6.293" rx="1.167" ry="1.169"/><path class="st17" d="M2.475 7.747c.921 0 1.742.583 2.045 1.451a2.162 2.162 0 0 1-2.045 2.871 2.161 2.161 0 1 1 0-4.322z"/><ellipse transform="rotate(-19.213 2.476 9.91)" class="st18" cx="2.475" cy="9.908" rx="1.169" ry="1.167"/><path class="st19" d="M4.65 10.639a2.162 2.162 0 1 1-1.233 3.939 2.161 2.161 0 0 1 1.233-3.939z"/><ellipse transform="rotate(-55.383 4.649 12.8)" class="st20" cx="4.649" cy="12.8" rx="1.168" ry="1.169"/></g></svg>