<svg xmlns="http://www.w3.org/2000/svg" viewBox="0 0 16 16"><style>.icon-canvas-transparent{opacity:0;fill:#f6f6f6}.icon-vs-out{fill:#f6f6f6}.icon-vs-bg{fill:#424242}.icon-vs-fg{fill:#f0eff1}</style><path class="icon-canvas-transparent" d="M16 16H0V0h16v16z" id="canvas"/><path class="icon-vs-out" d="M3.5 15A2.503 2.503 0 0 1 1 12.5v-8C1 3.122 2.122 2 3.5 2h9C13.879 2 15 3.122 15 4.5v8c0 1.379-1.121 2.5-2.5 2.5h-9z" id="outline"/><path class="icon-vs-fg" d="M12.5 4h-9a.5.5 0 0 0-.5.5v8a.5.5 0 0 0 .5.5h9c.275 0 .5-.225.5-.5v-8a.5.5 0 0 0-.5-.5zM8 5l2 2H6l2-2zm0 7l-2-2h4l-2 2zm4-3H4V8h8v1z" id="iconFg"/><g id="iconBg"><path class="icon-vs-bg" d="M10 7H6l2-2 2 2zm-4 3l2 2 2-2H6zm6-2H4v1h8V8zm.5 6h-9c-.827 0-1.5-.673-1.5-1.5v-8C2 3.673 2.673 3 3.5 3h9c.827 0 1.5.673 1.5 1.5v8c0 .827-.673 1.5-1.5 1.5zm-9-10a.5.5 0 0 0-.5.5v8a.5.5 0 0 0 .5.5h9c.275 0 .5-.225.5-.5v-8a.5.5 0 0 0-.5-.5h-9z"/></g></svg>