<svg xmlns="http://www.w3.org/2000/svg" viewBox="0 0 16 16"><style>.st0{opacity:0}.st0,.st1{fill:#f6f6f6}.st2{fill:#424242}.st3{fill:#f0eff1}</style><g id="outline"><path class="st0" d="M0 0h16v16H0z"/><path class="st1" d="M14.414 1H1.586L0 2.586v9.828L1.586 14h12.828L16 12.414V2.586z"/></g><g id="icon_x5F_bg"><path class="st2" d="M14 2H2L1 3v9l1 1h12l1-1V3l-1-1zm0 10H2V3h12v9z"/><path class="st2" d="M8 4h2v1H8zM8 6h5v2H8zM3 10h1v1H3zM5 10h2v1H5zM8 10h2v1H8zM5 8h2V6L5 7zM4 6H3v2h2zM5 4H3v2l2-1zM7 6V4H5l1 2z"/><path transform="rotate(-45.001 5 6)" class="st2" d="M4.58 5.58h.84v.84h-.84z"/></g><path class="st3" d="M2 9v3h12V9H2zm2 2H3v-1h1v1zm3 0H5v-1h2v1zm3 0H8v-1h2v1z" id="icon_x5F_fg"/></svg>