<svg xmlns="http://www.w3.org/2000/svg" viewBox="0 0 16 16"><style>.st0{opacity:0}.st0,.st1{fill:#f6f6f6}.st2{fill:#424242}.st3{fill:#f0eff1}</style><g id="outline"><path class="st0" d="M0 0h16v16H0z"/><path class="st1" d="M12.061 0H6c-.97 0-2 .701-2 2v7H0v7h9v-2h5c1.299 0 2-1.03 2-2V3.556L12.061 0z"/></g><g id="icon_x5F_bg"><path class="st2" d="M11.641 1H5.964S5 1 5 2v7h1V2h5v3h3v7H9v1h4.965c1 0 1.035-1 1.035-1V4l-3.359-3z"/><path class="st2" d="M1 15h4v-1H1v1zm0-2h4v-1H1v1zm5 2h2v-1H6v1zm0-2h2v-1H6v1zm-5-2h4v-1H1v1zm5 0h2v-1H6v1z"/></g><path class="st3" d="M11 5V2H6v7h3v3h5V5z" id="icon_x5F_fg"/></svg>