<svg xmlns="http://www.w3.org/2000/svg" viewBox="0 0 16 16"><style>.st0{fill:#f6f6f6}.st1{fill:none}.st2{fill:#424242}.st3{fill:#f0eff1}</style><path class="st0" d="M10 16v-3H9v3H0V8h7V0h9v8h-3v2h3v6h-6z" id="outline"/><g id="icon_x5F_bg"><path class="st1" d="M2 11h5v3H2zM9 3h5v3H9z"/><path class="st2" d="M14 14h1v1h-1zM8 9H1v6h7v-3h2v-1H8V9zm-1 5H2v-3h5v3zM13 13h1v1h-1zM13 11h2v1h-2zM11 13h1v2h-1zM8 1v6h3v3h1V7h3V1H8zm6 5H9V3h5v3zM12 12h1v1h-1z"/></g><g id="icon_x5F_fg"><path class="st3" d="M2 11h5v3H2zM9 3h5v3H9z"/></g></svg>