<svg xmlns="http://www.w3.org/2000/svg" width="16" height="16"><style type="text/css">.icon-canvas-transparent{opacity:0;fill:#F6F6F6;} .icon-vs-out{fill:#F6F6F6;} .icon-vs-bg{fill:#424242;} .icon-vs-fg{fill:#F0EFF1;}</style><path class="icon-canvas-transparent" d="M16 16h-16v-16h16v16z" id="canvas"/><path class="icon-vs-out" d="M2.586 14l-2.586-2.586v-6.828l2.586-2.586h10.828l2.586 2.586v6.828l-2.586 2.586h-10.828z" id="outline"/><path class="icon-vs-bg" d="M9 7h4l-2 2-2-2zm6-2v6l-1 1-1 1h-10l-1-1-1-1v-6l1-1 1-1h10l1 1 1 1zm-8 7v-8h-3.586l-1.414 1.414v5.172l1.414 1.414h3.586zm7-6.586l-1.414-1.414h-4.586v8h4.586l1.414-1.414v-5.172z" id="iconBg"/><path class="icon-vs-fg" d="M7 4v8h-3.586l-1.414-1.414v-5.172l1.414-1.414h3.586zm7 1.414v5.172l-1.414 1.414h-4.586v-8h4.586l1.414 1.414zm-1 1.586h-4l2 2 2-2z" id="iconFg"/></svg>