<svg xmlns="http://www.w3.org/2000/svg" viewBox="0 0 16 16"><style>.st0{opacity:0}.st0,.st1{fill:#f6f6f6}.st2{fill:#424242}.st3{fill:#f0eff1}</style><g id="outline"><path class="st0" d="M0 0h16v16H0z"/><path class="st1" d="M0 0h16v15H0z"/></g><path class="st2" d="M1 1v13h14V1H1zm1 6.707l.793.793L2 9.293V7.707zM14 13H2v-2.293l1.5-1.5 1.439 1.439a1.503 1.503 0 0 0 2.121 0L9.646 8.06a.5.5 0 0 1 .707 0L14 11.707V13zm0-2.707l-2.939-2.939a1.501 1.501 0 0 0-2.121 0L6.354 9.939a.5.5 0 0 1-.707 0L4.207 8.5l4.439-4.439a.5.5 0 0 1 .707 0l2.586 2.586c.549.548 1.488.554 2.061.039v3.607zm0-5l-.646.646a.5.5 0 0 1-.707 0l-2.586-2.586a1.502 1.502 0 0 0-2.121 0L3.5 7.793 2 6.293V2h12v3.293z" id="icon_x5F_bg"/><g id="icon_x5F_fg"><path class="st3" d="M2 7.707v1.586l.793-.793zM9.646 8.061L7.06 10.647a1.503 1.503 0 0 1-2.121 0L3.5 9.207l-1.5 1.5V13h12v-1.293l-3.646-3.646a.5.5 0 0 0-.708 0z"/><path class="st3" d="M11.939 6.646L9.354 4.061a.5.5 0 0 0-.707 0L4.207 8.5l1.439 1.439a.5.5 0 0 0 .707 0l2.586-2.586a1.501 1.501 0 0 1 2.121 0l2.94 2.94V6.686c-.573.515-1.512.509-2.061-.04z"/><path class="st3" d="M2 2v4.293l1.5 1.5 4.439-4.439a1.502 1.502 0 0 1 2.121 0l2.586 2.586a.5.5 0 0 0 .707 0L14 5.293V2H2z"/></g></svg>