<svg xmlns="http://www.w3.org/2000/svg" width="16" height="16"><style type="text/css">.icon-canvas-transparent{opacity:0;fill:#F6F6F6;} .icon-vs-out{fill:#F6F6F6;} .icon-vs-bg{fill:#424242;} .icon-vs-fg{fill:#F0EFF1;}</style><path class="icon-canvas-transparent" d="M16 16h-16v-16h16v16z" id="canvas"/><path class="icon-vs-out" d="M16 0v15h-16v-15h16z" id="outline"/><path class="icon-vs-bg" d="M1 1v13h14v-13h-14zm13 4.586l-.293.293c-.391.391-1.023.391-1.414 0l-2.586-2.586c-.391-.391-1.023-.391-1.414 0l-4.5 4.5 1.5 1.5c.391.391 1.023.391 1.414 0l2.586-2.586c.391-.391 1.023-.391 1.414 0l3.293 3.293v2l-3.293-3.293c-.391-.391-1.023-.391-1.414 0l-2.586 2.586c-.391.391-1.023.391-1.414 0l-3.293-3.293v-6h12v3.586z" id="iconBg"/><path class="icon-vs-fg" d="M8.293 3.293l-4.5 4.5 1.5 1.5c.391.391 1.023.391 1.414 0l2.586-2.586c.391-.391 1.023-.391 1.414 0l3.293 3.293v2l-3.293-3.293c-.391-.391-1.023-.391-1.414 0l-2.586 2.586c-.391.391-1.023.391-1.414 0l-3.293-3.293v-6h12v3.586l-.293.293c-.391.391-1.023.391-1.414 0l-2.586-2.586c-.391-.391-1.023-.391-1.414 0z" id="iconFg"/></svg>