<svg xmlns="http://www.w3.org/2000/svg" viewBox="0 0 16 16"><style>.st0{opacity:0}.st0,.st1{fill:#f6f6f6}.st2{fill:#424242}.st3{fill:#f0eff1}</style><g id="outline"><path class="st0" d="M0 0h16v16H0z"/><path class="st1" d="M0 0h16v15H0z"/></g><path class="st2" d="M1 1v13h14V1H1zm13 5l-.293.293a.999.999 0 0 1-1.414 0L9.707 3.707a.999.999 0 0 0-1.414 0L3.5 8.5l1.793 1.793a.999.999 0 0 0 1.414 0l2.586-2.586a.999.999 0 0 1 1.414 0L14 11v2H2v-3l1.5-1.5L2 7V2h12v4z" id="icon_x5F_bg"/><g id="icon_x5F_fg"><path class="st3" d="M2 13h12v-2l-3.293-3.293a.999.999 0 0 0-1.414 0l-2.586 2.586a.999.999 0 0 1-1.414 0L3.5 8.5 2 10v3zM9.707 3.707l2.586 2.586a.999.999 0 0 0 1.414 0L14 6V2H2v5l1.5 1.5 4.793-4.793a.999.999 0 0 1 1.414 0z"/></g></svg>