<svg xmlns="http://www.w3.org/2000/svg" viewBox="0 0 16 16"><style>.st0{opacity:0}.st0,.st1{fill:#f6f6f6}.st2{fill:#424242}.st3{fill:#f0eff1}</style><g id="outline"><path class="st0" d="M0 0h16v16H0z"/><path class="st1" d="M16 15H0V0h16v15z"/></g><path class="st2" d="M10 1H1V14h14V1h-5zM9 13H2V2h7v11zM6 8c1.141-.231 2-1.291 2-2.5a2.5 2.5 0 1 0-5 0c0 1.209.859 2.269 2 2.5v4h3v-1H6v-1h2V9H6V8zm-.5-1a1.5 1.5 0 1 1 0-3 1.5 1.5 0 0 1 0 3z" id="icon_x5F_bg"/><path class="st3" d="M9 2H2v11h7V2zM8 9v1H6v1h2v1H5V8c-1.141-.231-2-1.291-2-2.5a2.5 2.5 0 1 1 5 0C8 6.709 7.141 7.769 6 8v1h2zM5.5 7a1.5 1.5 0 1 1 0-3 1.5 1.5 0 0 1 0 3z" id="icon_x5F_fg"/></svg>