<svg xmlns="http://www.w3.org/2000/svg" viewBox="0 0 16 16"><style>.st0{opacity:0}.st0,.st1{fill:#f6f6f6}.st2{fill:#424242}.st3{fill:#f0eff1}</style><g id="outline"><path class="st0" d="M0 0h16v16H0z"/><path class="st1" d="M13.5 9V6.382l-1.308.654a3.98 3.98 0 0 0 .099-2.813l.656-.328L12.5 2h-.882l-1-2H8.586L8.5.086 8.414 0H6.382l-1 2H4.5l-.447 1.895.656.328a3.98 3.98 0 0 0 .099 2.813L3.5 6.382V9H2v7h13V9h-1.5z"/></g><g id="icon_x5F_bg"><path class="st2" d="M12.5 10V8l-3 1.5 2 1v.5l-2 4H14v-5z"/><path class="st2" d="M8.5 10l-4-2v2H3v5h5.5l2-4-2-1zm0 2a.5.5 0 1 1 0-1 .5.5 0 0 1 0 1zM12.5 3H11l-1-2H9l-.5.5L8 1H7L6 3H4.5l1.549.774a3 3 0 1 0 4.902 0L12.5 3zM11 5c0 .552-.559 1-1.25 1S8.5 5.552 8.5 5c0 .552-.559 1-1.25 1S6 5.552 6 5h5z"/></g><g id="icon_x5F_fg"><path class="st3" d="M9.75 6C10.441 6 11 5.552 11 5H8.5c0 .552.559 1 1.25 1zM7.25 6c.691 0 1.25-.448 1.25-1H6c0 .552.559 1 1.25 1z"/></g></svg>