<?xml version="1.0" encoding="iso-8859-1"?>
<!-- Generator: Adobe Illustrator 21.0.0, SVG Export Plug-In . SVG Version: 6.00 Build 0)  -->
<svg version="1.1" xmlns="http://www.w3.org/2000/svg" xmlns:xlink="http://www.w3.org/1999/xlink" x="0px" y="0px"
	 viewBox="0 0 16 16" style="enable-background:new 0 0 16 16;" xml:space="preserve">
<style type="text/css">
	.icon_x002D_canvas_x002D_transparent{opacity:0;fill:#F6F6F6;}
	.icon_x002D_vs_x002D_out{fill:#F6F6F6;}
	.icon_x002D_vs_x002D_bg{fill:#424242;}
	.icon_x002D_vs_x002D_fg{fill:#F0EFF1;}
	.icon_x002D_vs_x002D_blue{fill:#1BA1E2;}
</style>
<g id="canvas">
	<path class="icon_x002D_canvas_x002D_transparent" d="M16,16H0V0h16V16z"/>
</g>
<g id="outline">
	<path class="icon_x002D_vs_x002D_out" d="M15,4v8c0,1.454-1.227,2.678-3.148,3.375V16h-2.85H8.699H5.307l-0.128-0.064
		c-0.2-0.069-0.388-0.164-0.562-0.285c-0.079-0.055-0.145-0.124-0.215-0.189c-0.071-0.023-0.143-0.047-0.212-0.072
		c-0.102,0.109-0.203,0.219-0.334,0.304c-0.2,0.127-0.42,0.224-0.661,0.292C3.16,15.995,3.116,15.992,3.08,16H1.688
		c-0.033-0.007-0.068-0.011-0.1-0.019c-0.151-0.037-0.281-0.078-0.401-0.124c-0.148-0.058-0.276-0.122-0.389-0.196l-0.449-0.297
		v-3.453c-0.023-0.138-0.034-0.279-0.034-0.425c0-0.342,0.057-0.664,0.168-0.957c0.117-0.308,0.288-0.578,0.508-0.805
		C0.994,9.722,0.997,9.72,1,9.717V4c0-2.28,3.01-4,7-4C11.99,0,15,1.72,15,4z"/>
</g>
<g id="iconBg">
	<path class="icon_x002D_vs_x002D_bg" d="M3.898,13.65c0,0.104-0.01,0.213-0.029,0.324c-0.019,0.111-0.052,0.221-0.099,0.326
		c-0.047,0.106-0.107,0.207-0.182,0.303c-0.074,0.096-0.166,0.179-0.276,0.25c-0.111,0.07-0.241,0.127-0.39,0.169
		c-0.149,0.042-0.321,0.063-0.515,0.063c-0.089,0-0.185-0.008-0.287-0.021s-0.203-0.032-0.301-0.056
		c-0.098-0.024-0.188-0.052-0.271-0.084c-0.083-0.032-0.15-0.065-0.2-0.099v-0.981c0.062,0.048,0.132,0.097,0.212,0.146
		s0.165,0.094,0.255,0.133c0.09,0.04,0.182,0.072,0.275,0.098s0.185,0.037,0.273,0.037c0.1,0,0.185-0.016,0.254-0.049
		c0.07-0.033,0.126-0.076,0.169-0.129c0.043-0.052,0.075-0.109,0.094-0.174c0.019-0.064,0.029-0.127,0.029-0.188
		c0-0.092-0.015-0.173-0.044-0.245c-0.03-0.071-0.073-0.138-0.13-0.2c-0.057-0.061-0.126-0.121-0.207-0.179
		c-0.081-0.059-0.172-0.118-0.275-0.18c-0.326-0.188-0.564-0.4-0.714-0.634c-0.15-0.234-0.226-0.498-0.226-0.795
		c0-0.221,0.034-0.422,0.103-0.602s0.165-0.334,0.291-0.463s0.276-0.229,0.453-0.299c0.177-0.071,0.374-0.106,0.59-0.106
		c0.226,0,0.417,0.02,0.576,0.058c0.158,0.039,0.284,0.08,0.377,0.123v0.91c-0.052-0.035-0.112-0.068-0.178-0.1
		s-0.137-0.061-0.212-0.086c-0.075-0.024-0.153-0.045-0.232-0.06s-0.16-0.022-0.239-0.022s-0.153,0.015-0.219,0.043
		c-0.066,0.029-0.123,0.066-0.171,0.115c-0.048,0.047-0.085,0.104-0.111,0.17c-0.026,0.066-0.04,0.137-0.04,0.213
		c0,0.156,0.045,0.297,0.137,0.418c0.091,0.122,0.242,0.244,0.451,0.367c0.15,0.085,0.288,0.174,0.412,0.269
		c0.125,0.095,0.23,0.2,0.318,0.318c0.087,0.117,0.156,0.249,0.205,0.395C3.874,13.293,3.898,13.461,3.898,13.65z M7.859,12.535
		c0,0.301-0.021,0.582-0.066,0.845s-0.113,0.498-0.205,0.708c-0.092,0.209-0.209,0.389-0.352,0.538s-0.311,0.261-0.504,0.333
		L7.641,16H6.479l-0.636-0.938c-0.25-0.024-0.469-0.103-0.656-0.232s-0.342-0.302-0.465-0.517c-0.123-0.214-0.215-0.465-0.277-0.753
		s-0.092-0.604-0.092-0.945c0-0.392,0.037-0.748,0.111-1.068c0.074-0.319,0.185-0.593,0.333-0.82
		c0.148-0.227,0.334-0.401,0.559-0.524c0.225-0.123,0.487-0.185,0.788-0.185c0.308,0,0.57,0.062,0.788,0.185
		c0.218,0.123,0.394,0.296,0.531,0.518c0.137,0.223,0.238,0.488,0.301,0.797C7.828,11.824,7.859,12.164,7.859,12.535z M6.879,12.584
		c0-0.26-0.014-0.497-0.042-0.711c-0.029-0.215-0.073-0.398-0.134-0.551c-0.06-0.152-0.138-0.271-0.232-0.355
		c-0.094-0.084-0.208-0.127-0.34-0.127c-0.146,0-0.27,0.045-0.373,0.134S5.573,11.185,5.51,11.34
		c-0.063,0.154-0.108,0.336-0.137,0.545c-0.029,0.208-0.043,0.432-0.043,0.672c0,0.269,0.016,0.508,0.046,0.719
		c0.031,0.211,0.079,0.389,0.144,0.535c0.065,0.146,0.146,0.257,0.245,0.333c0.098,0.077,0.213,0.114,0.345,0.114
		s0.247-0.039,0.344-0.119c0.097-0.08,0.176-0.192,0.239-0.338c0.063-0.146,0.109-0.322,0.14-0.528
		C6.864,13.066,6.879,12.836,6.879,12.584z M8.527,15v-4.901h0.943v4.088h1.381V15H8.527z"/>
</g>
<g id="iconFg">
	<path class="icon_x002D_vs_x002D_fg" d="M12.997,4c0,0.815-1.948,2-5,2c-3.052,0-5-1.185-5-2s1.948-2,5-2
		C11.049,2,12.997,3.185,12.997,4z"/>
</g>
<g id="colorImportance">
	<path class="icon_x002D_vs_x002D_blue" d="M8,1C4.687,1,2,2.343,2,4v5.134c0.236-0.07,0.484-0.117,0.75-0.117
		c0.306,0,0.571,0.028,0.81,0.085c0.24,0.06,0.425,0.124,0.563,0.188l0.49,0.225c0.087-0.064,0.167-0.138,0.263-0.19
		c0.374-0.204,0.8-0.308,1.27-0.308c0.48,0,0.911,0.105,1.28,0.313c0.038,0.021,0.067,0.054,0.104,0.077V9.099h2.943v4.088h1.381
		v1.113C13.164,13.749,14,12.924,14,12V4C14,2.343,11.313,1,8,1z M7.997,6c-3.052,0-5-1.185-5-2s1.948-2,5-2s5,1.185,5,2
		S11.049,6,7.997,6z"/>
</g>
</svg>
