<?xml version="1.0" encoding="iso-8859-1"?>
<!-- Generator: Adobe Illustrator 21.0.0, SVG Export Plug-In . SVG Version: 6.00 Build 0)  -->
<svg version="1.1" xmlns="http://www.w3.org/2000/svg" xmlns:xlink="http://www.w3.org/1999/xlink" x="0px" y="0px"
	 viewBox="0 0 16 16" style="enable-background:new 0 0 16 16;" xml:space="preserve">
<style type="text/css">
	.icon_x002D_canvas_x002D_transparent{opacity:0;fill:#F6F6F6;}
	.icon_x002D_vs_x002D_out{fill:#F6F6F6;}
	.icon_x002D_vs_x002D_bg{fill:#424242;}
	.icon_x002D_vs_x002D_fg{fill:#F0EFF1;}
	.icon_x002D_vs_x002D_blue{fill:#1BA1E2;}
</style>
<g id="canvas">
	<path class="icon_x002D_canvas_x002D_transparent" d="M16,16H0V0h16V16z"/>
</g>
<g id="outline">
	<path class="icon_x002D_vs_x002D_out" d="M16,6.5c0,0.199-0.012,0.394-0.029,0.588L15.89,8h-5.167l0.247-1.201
		C10.99,6.701,11,6.6,11,6.5C11,5.673,10.327,5,9.5,5C9.397,5,9.296,5.011,9.199,5.03L9,5.071V9c0,1.084-0.779,1.995-2,2.519V12h2v3
		H7v1H2v-1H0v-3h2v-0.481C0.779,10.995,0,10.084,0,9V4c0-1.71,1.935-3,4.5-3C5.954,1,7.188,1.423,8,2.093v-1.98L8.908,0.03
		C9.104,0.012,9.3,0,9.5,0C13.084,0,16,2.916,16,6.5z"/>
</g>
<g id="iconBg">
	<path class="icon_x002D_vs_x002D_bg" d="M15,6.5c0,0.169-0.011,0.335-0.025,0.5h-1.025C13.968,6.833,14,6.671,14,6.5
		C14,4.015,11.985,2,9.5,2C9.329,2,9.166,2.032,9,2.05V1.025C9.165,1.01,9.331,1,9.5,1C12.537,1,15,3.462,15,6.5z M9.5,3
		C9.329,3,9.165,3.027,9,3.05v1C9.161,4.018,9.329,4,9.5,4C10.881,4,12,5.119,12,6.5c0,0.171-0.018,0.338-0.051,0.5h1
		C12.974,6.835,13,6.671,13,6.5C13,4.567,11.433,3,9.5,3z M3,12v1H1v1h2v1h3v-1h2v-1H6v-1H5v-1H4v1H3z"/>
</g>
<g id="iconFg">
	<path class="icon_x002D_vs_x002D_fg" d="M7,4c0,0.472-1.069,1-2.5,1S2,4.472,2,4s1.069-1,2.5-1S7,3.528,7,4z"/>
</g>
<g id="colorImportance">
	<path class="icon_x002D_vs_x002D_blue" d="M5,10.971C6.694,10.831,8,10.007,8,9V4c0-1.104-1.567-2-3.5-2S1,2.896,1,4v5
		c0,1.007,1.306,1.831,3,1.971V11h1V10.971z M2,4c0-0.472,1.069-1,2.5-1S7,3.528,7,4S5.931,5,4.5,5S2,4.472,2,4z"/>
</g>
</svg>
