<svg xmlns="http://www.w3.org/2000/svg" viewBox="0 0 16 16"><style>.st0{fill:#f6f6f6}.st1{fill:none}.st2{fill:#424242}</style><path class="st0" d="M16 12h-2V7h-3v1.234c-.04-.044-.07-.097-.112-.139a3.683 3.683 0 0 0-1.26-.816A4.196 4.196 0 0 0 8.092 7a4.91 4.91 0 0 0-1.03.113L10.618 0H6.882L5.25 3.264 5.118 3H1.382l2.01 4.02A5.06 5.06 0 0 0 2.966 7c-.406 0-.783.057-1.125.17a2.937 2.937 0 0 0-.944.516 2.495 2.495 0 0 0-.664.859A2.54 2.54 0 0 0 0 9.62c0 .258.035.507.101.732l.006.019L0 10.269v3.932l.457.296c.144.093.299.155.47.222.137.051.285.098.461.144a4.9 4.9 0 0 0 .488.095c.186.027.361.039.528.039.498 0 .921-.064 1.294-.193.395-.138.729-.332.988-.574a2.4 2.4 0 0 0 .358-.414c.024.025.042.057.067.082.351.35.773.623 1.26.816.337.131.695.219 1.069.26L8.392 16h4.292l-1.044-1H16v-3zm-7.185-.379a.779.779 0 0 1-.167.293.664.664 0 0 1-.249.164 1.165 1.165 0 0 1-.417.067.914.914 0 0 1-.358-.067.71.71 0 0 1-.256-.184.936.936 0 0 1-.186-.328 1.717 1.717 0 0 1-.084-.568c0-.203.027-.385.08-.541a1.08 1.08 0 0 1 .196-.35.698.698 0 0 1 .253-.182.99.99 0 0 1 .398-.072c.156 0 .29.022.4.067a.567.567 0 0 1 .218.153c.072.082.13.191.175.325.055.174.083.386.083.63.001.232-.027.429-.086.593zm1.85 2.446c.125-.104.225-.237.335-.359v.681l-.335-.322z" id="outline"/><g id="icon_x5F_bg"><path class="st1" d="M9.396 9.414a1.576 1.576 0 0 0-.592-.419 2.027 2.027 0 0 0-.778-.141c-.297 0-.564.053-.803.158a1.678 1.678 0 0 0-.605.443 2.007 2.007 0 0 0-.385.677c-.09.262-.135.55-.135.866 0 .334.047.635.142.902.095.267.226.492.396.675.168.184.367.325.596.423.23.099.48.148.751.148.285 0 .544-.045.778-.136.234-.09.436-.224.606-.4a1.76 1.76 0 0 0 .394-.661c.094-.265.142-.57.142-.919 0-.353-.045-.664-.131-.934a1.936 1.936 0 0 0-.376-.682z"/><path class="st2" d="M10.182 8.805a2.685 2.685 0 0 0-.919-.595A3.175 3.175 0 0 0 8.092 8c-.513 0-.96.08-1.346.239a2.707 2.707 0 0 0-.966.656c-.26.277-.454.604-.584.977A3.18 3.18 0 0 0 5 11c0 .439.071.913.216 1.269a2.65 2.65 0 0 0 1.522 1.512c.356.14.745.213 1.166.218l1.23 1.331h1.404L9 13.857a2.59 2.59 0 0 0 .805-.393c.257-.172.473-.383.651-.629.177-.246.311-.529.405-.848.093-.317.139-.607.139-.987 0-.442-.071-.903-.216-1.267a2.669 2.669 0 0 0-.602-.928zm-.421 3.143a1.76 1.76 0 0 1-.394.661 1.645 1.645 0 0 1-.606.4 2.129 2.129 0 0 1-.778.136c-.271 0-.521-.049-.751-.148a1.708 1.708 0 0 1-.596-.423 1.923 1.923 0 0 1-.396-.675 2.685 2.685 0 0 1-.142-.902c0-.316.045-.604.135-.866.09-.261.219-.487.385-.677.164-.191.367-.338.605-.443a1.97 1.97 0 0 1 .803-.158c.288 0 .547.047.777.142.233.095.429.234.593.419.163.186.287.412.375.682.086.269.131.58.131.934 0 .348-.048.654-.141.918zM9 1H7.5L5.25 5.5 4.5 4H3l1.5 3H6zM4.106 11.403a2.545 2.545 0 0 0-.451-.395 5.792 5.792 0 0 0-.616-.37c-.188-.1-.349-.19-.478-.271a1.584 1.584 0 0 1-.313-.244.756.756 0 0 1-.17-.261.907.907 0 0 1-.05-.316c0-.104.021-.201.064-.291a.67.67 0 0 1 .186-.23.903.903 0 0 1 .297-.151c.117-.036.251-.055.398-.055a2.191 2.191 0 0 1 .987.239c.098.051.186.109.264.174V8.22a1.213 1.213 0 0 0-.203-.074 4.04 4.04 0 0 0-.302-.075 4.152 4.152 0 0 0-.365-.053A3.575 3.575 0 0 0 2.966 8c-.297 0-.566.038-.807.118a1.936 1.936 0 0 0-.621.336A1.483 1.483 0 0 0 1 9.62c0 .161.021.314.063.461.041.145.113.286.213.423.102.136.235.27.401.399.166.131.372.262.617.391.202.108.376.208.521.302.145.093.265.185.356.275.092.09.158.183.201.276a.718.718 0 0 1 .065.308.885.885 0 0 1-.04.255.569.569 0 0 1-.144.232.77.77 0 0 1-.286.168 1.395 1.395 0 0 1-.461.064 2.387 2.387 0 0 1-.78-.151 2.519 2.519 0 0 1-.382-.181A1.857 1.857 0 0 1 1 12.604v1.053c.065.042.171.084.276.125a3.507 3.507 0 0 0 1.129.213c.38 0 .702-.046.964-.138.264-.092.477-.213.642-.366.165-.151.283-.326.356-.521.072-.196.109-.399.109-.609 0-.189-.031-.361-.094-.519a1.557 1.557 0 0 0-.276-.439zM13 13V8h-1v6h3v-1z"/></g></svg>