<svg xmlns="http://www.w3.org/2000/svg" viewBox="0 0 16 16"><style>.icon-canvas-transparent{opacity:0;fill:#f6f6f6}.icon-vs-out{fill:#f6f6f6}.icon-vs-bg{fill:#424242}.icon-vs-fg{fill:#f0eff1}.icon-vs-action-purple{fill:#652d90}</style><path class="icon-canvas-transparent" d="M16 16H0V0h16v16z" id="canvas"/><path class="icon-vs-out" d="M16 11h-4v3H6v2H0V0h6v2h5v3h5v6z" id="outline"/><g id="iconBg"><path class="icon-vs-bg" d="M5 8v7H1V1h4v1H4v6h1z"/><path class="icon-vs-action-purple" d="M9 7H5V3h5v2H9V4H6v2h3v1zm2 4v2H6V9h3v1H7v2h3v-1h1zm-1-5v4h5V6h-5zm4 3h-3V7h3v2z"/></g><g id="iconFg"><path class="icon-vs-fg" d="M9 6H6V4h3v2zm5 3h-3V7h3v2zm-5 2h1v1H7v-2h2v1z"/></g></svg>