<svg xmlns="http://www.w3.org/2000/svg" viewBox="0 0 16 16"><style>.st0{fill:#f6f6f6}.st1{fill:#424242}</style><path class="st0" d="M12.422 6.407L16 2.828v-.242L13.414 0h-.242l-1.481 1.48a4.388 4.388 0 0 0-.491-.153 10.894 10.894 0 0 0-1.69-.282C9.182 1.015 8.854 1 8.526 1a7.68 7.68 0 0 0-2.134.282 5.652 5.652 0 0 0-1.739.822 4.029 4.029 0 0 0-1.212 1.364A3.697 3.697 0 0 0 3 5.245c0 .429.065.844.195 1.239.139.414.368.811.683 1.18.226.265.522.523.855.775L3.607 9.565l-.56-.459v1.019L0 13.172v.242L2.586 16h.242l1.483-1.482.014.005A9.857 9.857 0 0 0 7.231 15c.969 0 1.813-.106 2.511-.317.728-.221 1.338-.527 1.814-.911.506-.408.88-.889 1.11-1.428A4.055 4.055 0 0 0 13 10.732c0-.524-.104-1.015-.306-1.451a3.92 3.92 0 0 0-.84-1.179 5.987 5.987 0 0 0-.611-.518l1.179-1.177zm-4.881-.898a.563.563 0 0 1-.139-.167c-.024-.06-.038-.144-.015-.338a.42.42 0 0 1 .126-.128c.09-.063.216-.116.372-.158.18-.048.397-.072.643-.073l-.918.917c-.021-.018-.05-.036-.069-.053zm.812 5.001a.94.94 0 0 1 .229.259.297.297 0 0 1 .032.149c0 .054-.01.105-.08.221-.019.016-.095.073-.294.135-.125.039-.359.085-.766.085H7.47l.863-.863.02.014z" id="outline"/><g id="icon_x5F_bg"><path class="st1" d="M4.638 7.014c.206.241.482.479.806.714l1.454-1.454c-.007-.007-.018-.014-.026-.021a1.502 1.502 0 0 1-.391-.523 1.609 1.609 0 0 1-.117-.63c0-.21.051-.404.15-.583.099-.177.243-.331.428-.461.187-.13.414-.23.685-.304.27-.072.577-.108.917-.108.261 0 .523.018.787.056.04.006.077.018.117.024l1.441-1.441A9.796 9.796 0 0 0 8.526 2c-.683 0-1.301.081-1.857.243a4.641 4.641 0 0 0-1.432.672 3.03 3.03 0 0 0-.916 1.027A2.704 2.704 0 0 0 4 5.245c0 .324.048.631.144.922.097.292.261.574.494.847z"/><path transform="rotate(-45.001 8 8)" class="st1" d="M-.485 7h16.971v2H-.485z"/><path class="st1" d="M11.151 8.813a5.211 5.211 0 0 0-.626-.51L9.04 9.788c.188.167.333.339.427.515.1.189.147.395.147.615 0 .167-.029.336-.093.509a1.099 1.099 0 0 1-.331.466c-.158.138-.376.25-.654.336-.28.087-.635.13-1.062.13-.28 0-.573-.026-.881-.078-.012-.002-.024-.007-.037-.009l-1.433 1.433c.108.028.203.061.319.087.291.063.592.116.903.152.312.037.607.056.886.056.875 0 1.616-.092 2.221-.274.605-.184 1.099-.428 1.477-.732.378-.305.652-.653.819-1.044.168-.392.252-.798.252-1.218 0-.378-.071-.725-.216-1.037a2.932 2.932 0 0 0-.633-.882z"/></g></svg>