<svg xmlns="http://www.w3.org/2000/svg" viewBox="0 0 16 16"><style>.st0{opacity:0}.st0,.st1{fill:#f6f6f6}.st2{fill:#424242}.st3{fill:#f0eff1}</style><g id="outline"><path class="st0" d="M0 0h16v16H0z"/><path class="st1" d="M0 0h16v15H0z"/></g><g id="icon_x5F_bg"><path class="st2" d="M2 3h1v1H2v4.223L5 5l4 4 5-6V2H2v1zm10 0h1v1h-1V3zm-2 0h1v1h-1V3zM8 3h1v1H8V3zM6 3h1v1H6V3zM4 3h1v1H4V3z"/><path class="st2" d="M5 7l-3 3v2l3-2 4 3 5-3V5l-5 6z"/><path class="st2" d="M1 1v13h14V1H1zm13 9l-5 3-4-3-3 2v-2l3-3 4 4 5-6v5zm0-7L9 9 5 5 2 8.223V4h1V3H2V2h12v1z"/><path class="st2" d="M4 3h1v1H4zM6 3h1v1H6zM8 3h1v1H8zM10 3h1v1h-1zM12 3h1v1h-1z"/><path class="st2" d="M8 3h1v1H8zM6 3h1v1H6zM4 3h1v1H4zM12 3h1v1h-1zM10 3h1v1h-1z"/></g><g id="icon_x5F_fg"><path class="st3" d="M2 2v1h1v1H2v4.223L5 5l4 4 5-6V2H2zm3 2H4V3h1v1zm2 0H6V3h1v1zm2 0H8V3h1v1zm2 0h-1V3h1v1zm2 0h-1V3h1v1z"/><path class="st3" d="M5 7l-3 3v2l3-2 4 3 5-3V5l-5 6z"/></g></svg>