<svg xmlns="http://www.w3.org/2000/svg" viewBox="0 0 16 16"><style>.st0{fill:#f6f6f6}.st1{fill:#424242}.st2{fill:#f0eff1}</style><path class="st0" d="M0 0h16v16H0z" id="outline"/><g id="icon_x5F_bg"><path class="st1" d="M2 3h1v1H2v10h2V7h2v7h1v-4h2v4h1V9h2v5h2V4h-1V3h1V2H2v1zm10 5h-2V6h2v2zm-1-5h1v1h-1V3zM9 3h1v1H9V3zM7 3h1v1H7V3zm0 5h2v1H7V8zM4 3h2v3H4V3z"/><path class="st1" d="M1 1.003V15h14V1L1 1.003zM14 3h-1v1h1v10h-2V9h-2v5H9v-4H7v4H6V7H4v7H2V4h1V3H2V2h12v1z"/><path class="st1" d="M10 6h2v2h-2zM4 3h2v3H4zM7 8h2v1H7zM7 3h1v1H7zM9 3h1v1H9zM11 3h1v1h-1z"/></g><path class="st2" d="M14 3V2H2v1h1v1H2v10h2V7h2v7h1v-4h2v4h1V9h2v5h2V4h-1V3h1zM6 4v2H4V3h2v1zm1-1h1v1H7V3zm2 6H7V8h2v1zm0-5V3h1v1H9zm3 4h-2V6h2v2zm0-4h-1V3h1v1z" id="icon_x5F_fg"/></svg>