<svg xmlns="http://www.w3.org/2000/svg" viewBox="0 0 16 16"><style>.st0{fill:#f6f6f6}.st1{fill:none}.st2{fill:#424242}.st3{fill:#f0eff1}</style><path class="st0" d="M0 0h16v16H0z" id="outline"/><g id="icon_x5F_bg"><path class="st1" d="M5 4h6v1H5zM5 6h6v1H5zM4 10h8v1H4z"/><path class="st1" d="M2 14h12V2H2v12zm1-4h1V3h8v7h1v3h-1v-1H4v1H3v-3z"/><path class="st1" d="M5 8h6v1H5z"/><path class="st2" d="M4 12h8v1h1v-3h-1v1H4v-1H3v3h1z"/><path class="st2" d="M1 1v14h14V1H1zm13 13H2V2h12v12z"/><path class="st2" d="M12 3H4v7h8V3zm-1 6H5V8h6v1zm0-2H5V6h6v1zm0-2H5V4h6v1z"/></g><g id="icon_x5F_fg"><path class="st1" d="M12 11H4v-1H3v3h1v-1h8v1h1v-3h-1zM12 3H4v7h8V3zm-1 6H5V8h6v1zm0-2H5V6h6v1zm0-2H5V4h6v1z"/><path class="st3" d="M5 6h6v1H5zM5 8h6v1H5zM4 10h8v1H4zM5 4h6v1H5z"/><path class="st3" d="M2 2v12h12V2H2zm11 11h-1v-1H4v1H3v-3h1V3h8v7h1v3z"/></g></svg>