<svg xmlns="http://www.w3.org/2000/svg" viewBox="0 0 16 16"><style>.st0{fill:#f6f6f6}.st1{fill:#424242}.st2{fill:#f0eff1}</style><path class="st0" d="M0 0h16v16H0z" id="outline"/><g id="icon_x5F_bg"><path class="st1" d="M13 3h-1V2H2v2h7v2H2v1h4v2H2v1h5v2H2v2h10v-1h1v1h1V2h-1v1zM7 7h1v2H7V7zm3 5H8v-2h2v2zm3 0h-1v-1h1v1zm0-2h-1V9h1v1zm0-2h-1V7h1v1zm0-3v1h-3V4h3v1z"/><path class="st1" d="M14.997 1H1v14h14l-.003-14zM14 14h-1v-1h-1v1H2v-2h5v-2H2V9h4V7H2V6h7V4H2V2h10v1h1V2h1v12z"/><path class="st1" d="M8 10h2v2H8zM10 6h3V4h-3zM7 7h1v2H7zM12 7h1v1h-1zM12 9h1v1h-1zM12 11h1v1h-1z"/></g><path class="st2" d="M13 2v1h-1V2H2v2h7v2H2v1h4v2H2v1h5v2H2v2h10v-1h1v1h1V2h-1zM7 7h1v2H7V7zm3 5H8v-2h2v2zm3 0h-1v-1h1v1zm0-2h-1V9h1v1zm0-2h-1V7h1v1zm0-3v1h-3V4h3v1z" id="icon_x5F_fg"/></svg>