<svg xmlns="http://www.w3.org/2000/svg" width="16" height="16"><style type="text/css">.icon-canvas-transparent{opacity:0;fill:#F6F6F6;} .icon-vs-out{fill:#F6F6F6;} .icon-vs-bg{fill:#424242;} .icon-vs-fg{fill:#F0EFF1;}</style><path class="icon-canvas-transparent" d="M16 16h-16v-16h16v16z" id="canvas"/><path class="icon-vs-out" d="M0 15v-15h16v15h-16z" id="outline"/><path class="icon-vs-bg" d="M1 1v13h14v-13h-14zm1 1h11.199l-4.162 3.33-3-3-4.037 3.229v-3.559zm12 11h-12v-1.293l3.037-3.037 5.033 4.026 3.93-4.715v5.019zm0-6.581l-4.07 4.885-4.967-3.974-2.963 2.963v-3.452l3.963-3.171 3 3 5.037-4.029v3.778z" id="iconBg"/><g id="iconFg"><path class="icon-vs-fg" d="M2 2h11.199l-4.162 3.33-3-3-4.037 3.229v-3.559zm12 11h-12v-1.293l3.037-3.037 5.033 4.026 3.93-4.715v5.019zm0-6.581l-4.07 4.885-4.967-3.974-2.963 2.963v-3.452l3.963-3.171 3 3 5.037-4.029v3.778z"/></g></svg>