<svg xmlns="http://www.w3.org/2000/svg" viewBox="0 0 16 16"><style>.st0{opacity:0}.st0,.st1{fill:#f6f6f6}.st2{fill:none}.st3{fill:#424242}.st4{fill:#f0eff1}</style><g id="outline"><path class="st0" d="M0 0h16v16H0z"/><path class="st1" d="M0 15V0h16v15H0z"/></g><g id="icon_x5F_bg"><path class="st2" d="M2 4h5v2H2v1h4v2H2v1h7v2H2v1h12V2H2v2zm10 8h-2v-2h2v2zM8 4h3v2H8V4zm-.001 5h-1V7h1v2z"/><path class="st3" d="M10 10h2v2h-2zM8 4h3v2H8z"/><path class="st3" d="M14.997 1H1v13h14l-.003-13zM14 13H2v-1h7v-2H2V9h4V7H2V6h5V4H2V2h12v11z"/><path class="st3" d="M6.999 7h1v2h-1z"/></g><path class="st4" d="M2 2v2h4.999v2H2v1h3.999v2H2v1h6.999v2H2v1h12V2H2zm5.999 7h-1V7h1v2zm0-3V4H11v2H7.999zM12 12h-2v-2h2v2z" id="icon_x5F_fg"/></svg>