<svg xmlns="http://www.w3.org/2000/svg" width="16" height="16"><style type="text/css">.icon-canvas-transparent{opacity:0;fill:#F6F6F6;} .icon-vs-out{fill:#F6F6F6;} .icon-vs-bg{fill:#424242;} .icon-vs-fg{fill:#F0EFF1;}</style><path class="icon-canvas-transparent" d="M16 16h-16v-16h16v16z" id="canvas"/><path class="icon-vs-out" d="M0 15v-15h16v15h-16z" id="outline"/><path class="icon-vs-bg" d="M1 1v13h14v-13h-14zm13 9l-5 3-4-3-3 2.25v-2.25l3-3 4 4 5-6v5zm0-7l-5 6-4-4-3 3.223v-6.223h12v1z" id="iconBg"/><path class="icon-vs-fg" d="M9 11l5-6v5l-5 3-4-3-3 2.25v-2.25l3-3 4 4zm-7-9v6.223l3-3.223 4 4 5-6v-1h-12z" id="iconFg"/></svg>