<svg xmlns="http://www.w3.org/2000/svg" viewBox="0 0 16 16"><style>.st0{opacity:0}.st0,.st1{fill:#f6f6f6}.st2{fill:none}.st3{fill:#424242}.st4{fill:#f0eff1}</style><g id="outline"><path class="st0" d="M0 0h16v16H0z"/><path class="st1" d="M0 0h16v15H0z"/></g><g id="icon_x5F_bg"><path class="st2" d="M4.961 10.54L2 11.527V13h12V9.583L9.021 12.57zM2 3h1v1H2v3.399l3.017-2.011L8.953 8.34 14 3.293V2H2v1zm10 0h1v1h-1V3zm-2 0h1v1h-1V3zM8 3h1v1H8V3zM6 3h1v1H6V3zM4 3h1v1H4V3z"/><path class="st2" d="M4.983 6.612L2 8.601v1.872L5.039 9.46l3.939 1.97L14 8.417v-3.71L9.047 9.66z"/><path class="st3" d="M1 1v13h14V1H1zm13 12H2v-1.473l2.961-.987 4.06 2.03L14 9.583V13zm0-4.583L8.978 11.43 5.039 9.46 2 10.473V8.601l2.983-1.989L9.047 9.66 14 4.707v3.71zm0-5.124L8.953 8.34 5.017 5.388 2 7.399V4h1V3H2V2h12v1.293z"/><path class="st3" d="M4 3h1v1H4zM6 3h1v1H6zM8 3h1v1H8zM10 3h1v1h-1zM12 3h1v1h-1z"/></g><g id="icon_x5F_fg"><path class="st2" d="M6 3h1v1H6zM8 3h1v1H8zM4 3h1v1H4zM12 3h1v1h-1zM10 3h1v1h-1z"/><path class="st4" d="M4.983 6.612L2 8.601v1.872L5.039 9.46l3.939 1.97L14 8.417v-3.71L9.047 9.66z"/><path class="st4" d="M2 2v1h1v1H2v3.399l3.017-2.011L8.953 8.34 14 3.293V2H2zm3 2H4V3h1v1zm2 0H6V3h1v1zm2 0H8V3h1v1zm2 0h-1V3h1v1zm2 0h-1V3h1v1zM4.961 10.54L2 11.527V13h12V9.583L9.021 12.57z"/></g></svg>