<svg xmlns="http://www.w3.org/2000/svg" viewBox="0 0 16 16"><style>.st0{opacity:0}.st0,.st1{fill:#f6f6f6}.st2{fill:none}.st3{fill:#424242}.st4{fill:#f0eff1}</style><g id="outline"><path class="st0" d="M0 0h16v16H0z"/><path class="st1" d="M0 15V0h16v15H0z"/></g><g id="icon_x5F_bg"><path class="st2" d="M2 13h1V9h2v4h2V6h2v7h2V9h2v4h1V2H2v11zm9-8h2v3h-2V5zM7 3h2v2H7V3zM3 7h2v1H3V7z"/><path class="st3" d="M7 3h2v2H7zM11 5h2v3h-2zM3 7h2v1H3z"/><path class="st3" d="M14.997 1H1v13h14l-.003-13zM14 13h-1V9h-2v4H9V6H7v7H5V9H3v4H2V2h12v11z"/></g><path class="st4" d="M14 2H2v11h1V9h2v4h2V6h2v7h2V9h2v4h1V2zM5 8H3V7h2v1zm4-3H7V3h2v2zm4 3h-2V5h2v3z" id="icon_x5F_fg"/></svg>