<svg xmlns="http://www.w3.org/2000/svg" viewBox="0 0 16 16"><style>.icon-canvas-transparent{opacity:0;fill:#f6f6f6}.icon-vs-out{fill:#f6f6f6}.icon-vs-bg{fill:#424242}.icon-vs-fg{fill:#f0eff1}.icon-white{fill:#fff}.icon-vs-action-green{fill:#388a34}</style><path class="icon-canvas-transparent" d="M16 16H0V0h16v16z" id="canvas"/><path class="icon-vs-out" d="M14.424 12.959A2 2 0 0 1 12.668 14H4.332a1.998 1.998 0 1 1-1.682-3.082L6 5.707v-.54l-6 3.6V0h1.277L5 2.234V2h7v3h-1v.706l3.351 5.212c.396.617.423 1.398.073 2.041z" id="outline"/><path class="icon-vs-bg" d="M13.51 11.459L10 6V4h1V3H6.277l1.667 1L7 4.566V6l-3.51 5.459A1 1 0 0 0 4.332 13h8.337a1 1 0 0 0 .841-1.541zM6.276 9L8 6.291V4h1v2.291L10.724 9H6.276z" id="iconBg"/><path class="icon-vs-fg" d="M8 4h1v2.291L10.724 9H6.276L8 6.291V4" id="iconFg"/><path class="icon-vs-action-green" d="M1 7l5-3-5-3v6zm1-4.234L4.056 4 2 5.234V2.766z" id="colorAction"/><path class="icon-white" d="M4.056 4L2 5.234V2.766L4.056 4z" id="notificationFg"/></svg>