<svg xmlns="http://www.w3.org/2000/svg" viewBox="0 0 16 16"><style>.st0{opacity:0}.st0,.st1{fill:#f6f6f6}.st2{fill:#424242}.st3{fill:#388a34}.st4{fill:#f0eff1}</style><g id="outline"><path class="st0" d="M0 0h16v16H0z"/><path class="st1" d="M16 6.199a6.249 6.249 0 0 0-6-4.512c-1.421 0-2.728.48-3.778 1.279L1.277 0H0v8.766l3.949-2.37a6.278 6.278 0 0 0-.199 1.542A6.247 6.247 0 1 0 16 9.676V6.199z"/></g><path class="st2" d="M15.241 7.822A5.246 5.246 0 0 0 10 2.75a5.211 5.211 0 0 0-2.783.814L7.944 4 5.395 5.53A5.187 5.187 0 0 0 4.75 8a5.205 5.205 0 0 0 .075.851l.002.014a5.245 5.245 0 0 0 4.724 4.363 5.094 5.094 0 0 0 .963-.003A5.25 5.25 0 0 0 15.25 8c0-.061-.008-.118-.009-.178zm-1.68-2.252c-.515.177-1 .3-1.463.371a8.783 8.783 0 0 0-.688-2.013 4.309 4.309 0 0 1 2.151 1.642zm-4.11-1.843c.18-.024.362-.039.549-.039.124 0 .245.008.366.019.351.608.708 1.384.915 2.33-.428.029-.85.033-1.277.029A12.699 12.699 0 0 1 8.7 5.982c.175-.911.464-1.66.751-2.255zm-.867 3.066c.452.051.923.085 1.412.09.101.002.201.002.302.002.366 0 .737-.012 1.116-.04.028.254.049.513.053.784.004.434-.052.902-.157 1.402-.438.031-.868.037-1.306.034a12.92 12.92 0 0 1-1.378-.092 9.243 9.243 0 0 1-.093-1.344c.004-.289.024-.566.051-.836zm-.146-2.809a9.835 9.835 0 0 0-.549 1.881 14.507 14.507 0 0 1-1.427-.327 4.32 4.32 0 0 1 1.976-1.554zM5.688 8c0-.614.131-1.197.361-1.727.515.151 1.087.295 1.726.404a9.494 9.494 0 0 0-.058.944c-.005.4.025.812.073 1.227a14.72 14.72 0 0 1-2.087-.545A3.817 3.817 0 0 1 5.688 8zm.177 1.219c.598.184 1.283.359 2.058.483.154.785.406 1.587.736 2.396a4.321 4.321 0 0 1-2.794-2.879zm4.209 3.09c-.025.001-.049.004-.074.004a4.29 4.29 0 0 1-.378-.019 12.87 12.87 0 0 1-.846-2.479c.393.039.8.064 1.22.068.101.002.201.002.302.002.261 0 .524-.008.79-.021-.229.743-.569 1.558-1.014 2.445zm.964-.127c.409-.86.725-1.661.929-2.395a9.548 9.548 0 0 0 2.164-.551 4.318 4.318 0 0 1-3.093 2.946zm3.261-3.902a8.806 8.806 0 0 1-2.136.647 6.9 6.9 0 0 0 .063-2.174 9.452 9.452 0 0 0 1.737-.453c.225.522.35 1.096.35 1.7 0 .095-.008.188-.014.28z" id="icon_x5F_bg"/><path class="st3" d="M1 1l5 3-5 3V1z" id="color_x5F_action"/><g id="icon_x5F_fg"><path class="st4" d="M12.227 6.754a9.452 9.452 0 0 0 1.737-.453A4.29 4.29 0 0 1 14.313 8c0 .095-.008.188-.014.28a8.806 8.806 0 0 1-2.136.647 6.9 6.9 0 0 0 .064-2.173zM13.561 5.57c-.515.177-1 .3-1.463.371a8.783 8.783 0 0 0-.688-2.013 4.309 4.309 0 0 1 2.151 1.642zM10 12.313a4.29 4.29 0 0 1-.378-.019 12.87 12.87 0 0 1-.846-2.479c.393.039.8.064 1.22.068.101.002.201.002.302.002.261 0 .524-.008.79-.021-.229.743-.568 1.558-1.014 2.444-.025.002-.049.005-.074.005zM10.004 9.065a12.92 12.92 0 0 1-1.378-.092 9.243 9.243 0 0 1-.093-1.344c.004-.289.024-.566.051-.836.452.051.923.085 1.412.09.101.002.201.002.302.002.366 0 .737-.012 1.116-.04.028.254.049.513.053.784.004.434-.052.902-.157 1.402-.439.032-.869.037-1.306.034zM10 3.688c.124 0 .245.008.366.019.351.608.708 1.384.915 2.33-.428.029-.85.033-1.277.029A12.699 12.699 0 0 1 8.7 5.982c.175-.911.464-1.66.751-2.256.18-.023.362-.038.549-.038zM8.438 3.984a9.835 9.835 0 0 0-.549 1.881 14.507 14.507 0 0 1-1.427-.327 4.32 4.32 0 0 1 1.976-1.554zM5.688 8c0-.614.131-1.197.361-1.727.515.151 1.087.295 1.726.404a9.494 9.494 0 0 0-.058.944c-.005.4.025.812.073 1.227a14.72 14.72 0 0 1-2.087-.545A3.817 3.817 0 0 1 5.688 8zM5.865 9.219c.598.184 1.283.359 2.058.483.154.785.406 1.587.736 2.396a4.321 4.321 0 0 1-2.794-2.879zM11.038 12.182c.409-.86.725-1.661.929-2.395a9.548 9.548 0 0 0 2.164-.551 4.318 4.318 0 0 1-3.093 2.946z"/></g></svg>