<svg xmlns="http://www.w3.org/2000/svg" viewBox="0 0 16 16"><style>.st0{opacity:0}.st0,.st1{fill:#f6f6f6}.st2{fill:none}.st3{fill:#424242}.st4{fill:#388a34}.st5{fill:#f0eff1}</style><g id="outline"><path class="st0" d="M0 0h16v16H0z"/><path class="st1" d="M13.414 4h-2l-1-1H6.586l-.116.116L1.277 0H0v8.766l2-1.2v3.848L3.586 13h9.828L15 11.414V5.586z"/></g><g id="icon_x5F_bg"><path class="st2" d="M12 6h1v1h-1zM8.5 6a2.5 2.5 0 1 0 0 5 2.5 2.5 0 0 0 0-5zm0 4a1.5 1.5 0 1 1 .001-3.001A1.5 1.5 0 0 1 8.5 10z"/><circle class="st3" cx="8.5" cy="8.5" r="1.5"/><path class="st3" d="M13 5h-2l-1-1H7.944L3 6.966V11l1 1h9l1-1V6l-1-1zm-4.5 6a2.5 2.5 0 1 1 0-5 2.5 2.5 0 0 1 0 5zM13 7h-1V6h1v1z"/></g><path class="st4" d="M1 1l5 3-5 3V1z" id="color_x5F_action"/><g id="icon_x5F_fg"><circle class="st2" cx="8.5" cy="8.5" r="1.5"/><path class="st5" d="M8.5 6a2.5 2.5 0 1 0 0 5 2.5 2.5 0 0 0 0-5zm0 4a1.5 1.5 0 1 1 .001-3.001A1.5 1.5 0 0 1 8.5 10zM12 6h1v1h-1z"/></g></svg>