<svg xmlns="http://www.w3.org/2000/svg" width="16" height="16"><style type="text/css">.icon-canvas-transparent{opacity:0;fill:#F6F6F6;} .icon-vs-out{fill:#F6F6F6;} .icon-vs-bg{fill:#424242;} .icon-vs-fg{fill:#F0EFF1;} .icon-vs-action-green{fill:#388A34;}</style><path class="icon-canvas-transparent" d="M16 16h-16v-16h16v16z" id="canvas"/><path class="icon-vs-out" d="M16 4v12h-14v-8.434l-2 1.2v-8.766h1.277l6.667 4h8.056z" id="outline"/><path class="icon-vs-bg" d="M14 6h-9.39l1.667-1h8.723v3h-1v-2zm-9 4.793l1.146-1.146c.103-.103.237-.154.39-.145.145.01.277.082.363.198l1.063 1.417.038-.049v-3.068h2.371l.205-.265c.089-.142.241-.229.408-.235.188.003.326.074.423.209l.208.291h1.385v-1h-8v3.793zm3 3.207h-4v-7.634l-1 .6v8.034h5v-1zm-3-1h3v-.504c-.15.007-.306-.07-.399-.196l-1.154-1.538-1.447 1.445v.793zm8 2h2v-6h-2v6zm-4-6h2v6h-2v-6z" id="iconBg"/><path class="icon-vs-fg" d="M8 14h-4v-7.634l.61-.366h9.39v2h-1v-1h-8v3.793l1.146-1.146c.103-.103.237-.154.39-.145.145.01.277.082.363.198l1.063 1.417.038-.049v1.428c-.15.007-.306-.07-.399-.196l-1.154-1.538-1.447 1.445v.793h3v1zm2.984-6.5c-.167.005-.319.093-.408.235l-.205.265h1.244l-.208-.291c-.097-.135-.235-.206-.423-.209z" id="iconFg"/><path class="icon-vs-action-green" d="M1 1l5 3-5 3v-6z" id="colorAction"/></svg>