<svg xmlns="http://www.w3.org/2000/svg" width="16" height="16"><style type="text/css">.icon-canvas-transparent{opacity:0;fill:#F6F6F6;} .icon-vs-out{fill:#F6F6F6;} .icon-vs-bg{fill:#424242;}</style><path class="icon-canvas-transparent" d="M16 16h-16v-16h16v16z" id="canvas"/><path class="icon-vs-out" d="M4 11.513v-.866l11.534-5.19-13.337-5.457h-1.197v11.513c-.603.457-1 1.174-1 1.987 0 1.379 1.122 2.5 2.5 2.5s2.5-1.121 2.5-2.5c0-.814-.397-1.531-1-1.987z" id="outline"/><g id="iconBg"><path class="icon-vs-bg" d="M3 12.092v-2.092l10-4.5-11-4.5v11.092c-.581.207-1 .756-1 1.408 0 .828.672 1.5 1.5 1.5s1.5-.672 1.5-1.5c0-.652-.419-1.202-1-1.408zm-.5 1.908c-.276 0-.5-.225-.5-.5s.224-.5.5-.5.5.225.5.5-.224.5-.5.5z"/></g></svg>