<svg xmlns="http://www.w3.org/2000/svg" width="16" height="16"><style type="text/css">.icon-canvas-transparent{opacity:0;fill:#F6F6F6;} .icon-vs-out{fill:#F6F6F6;} .icon-vs-bg{fill:#424242;} .icon-vs-fg{fill:#F0EFF1;} .icon-white{fill:#FFFFFF;} .icon-vs-action-green{fill:#388A34;}</style><path class="icon-canvas-transparent" d="M16 16h-16v-16h16v16z" id="canvas"/><path class="icon-vs-out" d="M16 11c0 2.762-2.238 5-5 5-2.761 0-5-2.238-5-5 0-.972.286-1.871.77-2.635-.669.394-1.438.635-2.27.635-2.485 0-4.5-2.015-4.5-4.5s2.015-4.5 4.5-4.5c2.314 0 4.198 1.753 4.449 4h5.051v3h-.027c1.223.912 2.027 2.357 2.027 4z" id="outline"/><path class="icon-vs-bg" d="M13 5v1h-1v.5h-2v-.5h-1v-1h4zm2 6c0 2.209-1.791 4-4 4s-4-1.791-4-4 1.791-4 4-4 4 1.791 4 4zm-1 0c0-1.568-1.209-2.842-2.743-2.974l.743 2.974c0 .553-.448 1-1 1s-1-.447-1-1l.743-2.974c-1.534.132-2.743 1.406-2.743 2.974 0 1.656 1.343 3 3 3 1.656 0 3-1.344 3-3z" id="iconBg"/><path class="icon-vs-fg" d="M12 11l-.743-2.974c1.534.132 2.743 1.406 2.743 2.974 0 1.656-1.344 3-3 3-1.657 0-3-1.344-3-3 0-1.568 1.209-2.842 2.743-2.974l-.743 2.974c0 .553.448 1 1 1s1-.447 1-1z" id="iconFg"/><path class="icon-vs-action-green" d="M4.5 1c-1.933 0-3.5 1.567-3.5 3.5s1.567 3.5 3.5 3.5 3.5-1.567 3.5-3.5-1.567-3.5-3.5-3.5zm-1.5 5v-3l3.5 1.5-3.5 1.5z" id="colorAction"/><path class="icon-white" d="M3 3l3.5 1.5-3.5 1.5v-3z" id="notificationFg"/></svg>