<svg xmlns="http://www.w3.org/2000/svg" viewBox="0 0 16 16"><style>.icon-canvas-transparent{opacity:0;fill:#f6f6f6}.icon-vs-out{fill:#f6f6f6}.icon-vs-bg{fill:#424242}.icon-vs-fg{fill:#f0eff1}.icon-vs-action-green{fill:#388a34}.st0{fill:none}</style><path class="icon-canvas-transparent" d="M16 16H0V0h16v16z" id="canvas"/><path class="icon-vs-out" d="M16 10.921c-.011.021-.015.044-.026.065A1.979 1.979 0 0 1 14.233 12h-1.268a1.98 1.98 0 0 1 .009 1.985A1.977 1.977 0 0 1 11.233 15H5.766c-.73 0-1.38-.379-1.74-1.015a1.977 1.977 0 0 1 .025-2.015L6 8.723V8H5V5.767l-5 3V0h1.276l6.668 4-1.666 1H8V2h7v3h-1v.723l1.949 3.248c.023.037.031.078.051.116v1.834z" id="outline"/><g id="iconBg"><path class="st0" d="M9 7H8v2.303L7.032 11h2.936L9 9.303z"/><path class="icon-vs-bg" d="M12.091 12.485L10 9V7h1V6H6v1h1v2l-2.091 3.485A1 1 0 0 0 5.766 14h5.468a1 1 0 0 0 .857-1.515zM7.032 11L8 9.303V7h1v2.303L9.968 11H7.032zm7.202 0h-1.868L11 8.723V8h1.968L12 6.303V4h-1v1h-1V4H9V3h5v1h-1v2l2.091 3.485A1 1 0 0 1 14.234 11z"/></g><path class="icon-vs-fg" d="M7.032 11L8 9.303V7h1v2.303L9.968 11H7.032zM12 5V4h-1v1h1zm0 1.303V8h.968L12 6.303z" id="iconFg"/><path class="icon-vs-action-green" d="M1 1l5 3-5 3V1z" id="colorAction"/></svg>