<svg xmlns="http://www.w3.org/2000/svg" width="16" height="16"><style type="text/css">.icon-canvas-transparent{opacity:0;fill:#F6F6F6;} .icon-vs-out{fill:#F6F6F6;} .icon-vs-bg{fill:#424242;} .icon-vs-fg{fill:#F0EFF1;}</style><path class="icon-canvas-transparent" d="M16 16h-16v-16h16v16z" id="canvas"/><path class="icon-vs-out" d="M7.725 15.922c-6.116-1.75-7.026-8.583-6.652-11.951l.06-.534 6.867-3.437 6.868 3.437.059.534c.374 3.369-.536 10.201-6.652 11.951l-.275.078-.275-.078z" id="outline"/><path class="icon-vs-bg" d="M13.951 4l-5.951-3-5.951 3s-.991 9 5.951 11c6.942-2 5.951-11 5.951-11zm-4.951 8h-2v-2h2v2zm0-3h-2v-5h2v5z" id="iconBg"/><path class="icon-vs-fg" d="M7 4h2v5h-2v-5zm0 8h2v-2h-2v2z" id="iconFg"/></svg>