<svg xmlns="http://www.w3.org/2000/svg" viewBox="0 0 16 16"><style>.st0{fill:#f6f6f6}.st1{fill:#424242}.st2{fill:#f0eff1}.st3{fill:#fc0}</style><g id="outline"><path class="st0" d="M8.309 15.5l-.5-1H.5V.5h15v14h-.309l-.5 1z"/><path class="st0" d="M15 1v13h-.118l-.276.553-.224.447H8.618l-.224-.447L8.118 14H1V1h14m1-1H0v15h7.5l.5 1h7l.5-1h.5V0z"/></g><path class="st1" d="M11 6h2v2l-.5-1H11V6zM9 3H7v10H5V7H3v6H2V2h12v8l1 1.999L14.997 1H1v13h6l2-4V3z" id="icon_x5F_bg"/><path class="st2" d="M7 13V3h2v7l1.5-3h.5V6h2v2l1 2V2H2v11h1V7h2v6z" id="icon_x5F_fg"/><path class="st3" d="M11.891 8.016h-.781l-3.016 6 .515.984h5.766l.484-1-2.968-5.984zM12 14h-1v-1h1v1zm0-2h-1v-2h1v2z" id="not_x5F_bg"/><path d="M12 12h-1v-2h1v2zm0 1h-1v1h1v-1z" id="not_x5F_fg"/></svg>