<svg xmlns="http://www.w3.org/2000/svg" viewBox="0 0 16 16"><style>.st0{opacity:0}.st0,.st1{fill:#f6f6f6}.st2{fill:#e51400}</style><g id="outline"><path class="st0" d="M0 0h16v16H0z"/><circle class="st1" cx="11.485" cy="11.408" r="4.487"/></g><path class="st2" d="M11.485 7.921a3.487 3.487 0 1 0 0 6.975 3.487 3.487 0 0 0 0-6.975zm-2.487 3.487c0-.529.169-1.019.452-1.422l3.37 3.514a2.473 2.473 0 0 1-1.335.396 2.491 2.491 0 0 1-2.487-2.488zm4.543 1.398l-3.362-3.505c.381-.236.826-.38 1.307-.38a2.49 2.49 0 0 1 2.487 2.487c0 .518-.16.999-.432 1.398z" id="icon_x5F_bg"/></svg>