<svg xmlns="http://www.w3.org/2000/svg" viewBox="0 0 16 16"><style>.st0{opacity:0}.st0,.st1{fill:#f6f6f6}.st2{fill:#e51400}.st3{fill:#f0eff1}</style><g id="outline"><path class="st0" d="M0 0h16v16H0z"/><circle class="st1" cx="8" cy="8" r="8"/></g><g id="icon_x5F_bg"><path class="st2" d="M8 1a7 7 0 1 0 0 14A7 7 0 0 0 8 1zm0 13c-3.309 0-6-2.691-6-6 0-3.308 2.691-6 6-6s6 2.691 6 6-2.691 6-6 6z"/><path class="st2" d="M3 7h10v2H3z"/></g><path class="st3" d="M8 2C4.691 2 2 4.692 2 8c0 3.309 2.691 6 6 6s6-2.691 6-6c0-3.308-2.691-6-6-6zM3 9V7h10v2H3z" id="icon_x5F_fg"/></svg>