<svg xmlns="http://www.w3.org/2000/svg" viewBox="0 0 16 16"><style>.st0{opacity:0}.st0,.st1{fill:#f6f6f6}.st2{fill:none}.st3{fill:#424242}</style><g id="outline"><path class="st0" d="M0 0h16v16H0z"/><path class="st1" d="M15 6V3h-2V1h-3v2H7V1H4v2H2v3h2v3H2v3h2v2h3v-2h3v2h3v-2h2V9h-2V6z"/></g><g id="icon_x5F_bg"><path class="st2" d="M8 7h1v1H8z"/><path class="st2" d="M6 10h5V5H6v5zm1-4h3v3H7V6z"/><path class="st3" d="M14 5V4h-2V2h-1v2H6V2H5v2H3v1h2v5H3v1h2v2h1v-2h5v2h1v-2h2v-1h-2V5h2zm-3 5H6V5h5v5z"/><path class="st3" d="M10 6H7v3h3V6zM9 8H8V7h1v1z"/></g></svg>