<svg xmlns="http://www.w3.org/2000/svg" width="16" height="16" viewBox="0 0 16 16"><style type="text/css">.icon-canvas-transparent{opacity:0;fill:#F6F6F6;} .icon-vs-green{fill:#339933;} .icon-white{fill:#FFFFFF;} .icon-vs-action-orange{fill:#C27D1A;} .icon-vs-out{fill:#F6F6F6;}</style><path class="icon-canvas-transparent" d="M16 16h-16v-16h16v16z" id="canvas"/><path class="icon-vs-out" d="M15.738 10h.262v3h-1v2h-2v1h-3v-.262c-.64.165-1.308.262-2 .262-4.418 0-8-3.582-8-8s3.582-8 8-8 8 3.582 8 8c0 .692-.097 1.36-.262 2z" id="outline"/><path class="icon-vs-green" d="M8 13v2c-3.865 0-7-3.135-7-7 0-3.866 3.135-7 7-7s7 3.134 7 7h-2v-1h-2.5l1.5-3h-2l-3 6-1-2h-2l2 4h1v1h1z" id="iconBg"/><path class="icon-white" d="M8 10h-1l1-2v2zm2-3h.5l1.5-3h-2l-2 4h2v-1zm-3 3l-1-2h-2l2 4h1v-2z" id="iconFg"/><path class="icon-vs-action-orange" d="M15 12v-1h-2v-1h-1v-2h-1v2h-1v1h-2v1h2v1h1v2h1v-2h1v-1h2zm-4 0v-1h1v1h-1zm-1-3v1h-1v-1h1zm4 1h-1v-1h1v1zm-5 3h1v1h-1v-1zm4 1v-1h1v1h-1z" id="notificationBg"/></svg>