<svg xmlns="http://www.w3.org/2000/svg" width="16" height="16"><style type="text/css">.icon-canvas-transparent{opacity:0;fill:#F6F6F6;} .icon-vs-out{fill:#F6F6F6;} .icon-vs-fg{fill:#F0EFF1;} .icon-vs-green{fill:#339933;}</style><path class="icon-canvas-transparent" d="M16 16h-16v-16h16v16z" id="canvas"/><path class="icon-vs-out" d="M0 8c0-4.418 3.582-8 8-8s8 3.582 8 8-3.582 8-8 8-8-3.582-8-8z" id="outline"/><path class="icon-vs-green" d="M7.986 1.935c3.337 0 6.052 2.715 6.052 6.052s-2.715 6.052-6.052 6.052-6.052-2.715-6.052-6.052 2.715-6.052 6.052-6.052m0-1c-3.894 0-7.052 3.157-7.052 7.052 0 3.895 3.157 7.052 7.052 7.052 3.895 0 7.052-3.157 7.052-7.052 0-3.895-3.157-7.052-7.052-7.052zm-1.986 11.065l5.951-4-5.951-4v8z" id="iconBg"/><path class="icon-vs-fg" d="M7.986 1.935c-3.337 0-6.052 2.715-6.052 6.052 0 3.337 2.715 6.052 6.052 6.052 3.337 0 6.052-2.715 6.052-6.052 0-3.338-2.715-6.052-6.052-6.052zm-1.986 10.065v-8l5.951 4-5.951 4z" id="iconFg"/></svg>