<svg xmlns="http://www.w3.org/2000/svg" viewBox="0 0 16 16"><style>.icon-canvas-transparent{opacity:0;fill:#f6f6f6}.icon-vs-out{fill:#f6f6f6}.icon-vs-fg{fill:#f0eff1}.icon-vs-yellow{fill:#fc0}</style><path class="icon-canvas-transparent" d="M16 16H0V0h16v16z" id="canvas"/><path class="icon-vs-out" d="M9 0l7 14-2 2H2l-2-2L7 0h2z" id="outline"/><g id="iconBg"><path class="icon-vs-yellow" d="M8.382 1h-.764L1.217 13.803 2.5 15h11l1.283-1.197L8.382 1zM2.895 14l-.449-.412L8 2.487l5.555 11.101-.449.412H2.895z"/><path class="icon-black" d="M7 5h2v5H7V5zm0 8h2v-2H7v2z"/></g><g id="iconFg"><path class="icon-vs-fg" d="M8 2.487L2.445 13.588l.45.412h10.211l.449-.412L8 2.487zM9 13H7v-2h2v2zm0-3H7V5h2v5z"/></g></svg>