<svg xmlns="http://www.w3.org/2000/svg" viewBox="0 0 16 16"><style>.st0{fill:#f6f6f6}.st1{fill:#424242}.st2{fill:#f0eff1}.st3{fill:#e51400}.st4{fill:#fff}</style><path class="st0" d="M0 0v15h8.703c.771.616 1.734 1 2.797 1s2.026-.384 2.797-1H16V0H0z" id="outline"/><path class="st1" d="M11 6h2v1.275A4.473 4.473 0 0 0 11.5 7c-.171 0-.334.032-.5.05V6zm-4 5.5V13H5V7H3v6H2V2h12v5.76c.384.257.711.583.999.942L14.997 1H1v13h6.76A4.476 4.476 0 0 1 7 11.5zm2-3.74V3H7v8.5c0-1.56.794-2.933 2-3.74z" id="icon_x5F_bg"/><path class="st2" d="M2 2v11h1V7h2v6h2V3h2v4.76a4.464 4.464 0 0 1 2-.709V6h2v1.275a4.51 4.51 0 0 1 1 .484V2H2z" id="icon_x5F_fg"/><path class="st3" d="M11.5 8a3.5 3.5 0 1 0 0 7 3.5 3.5 0 0 0 0-7zm1.854 4.646l-.707.707-1.147-1.146-1.146 1.147-.707-.707 1.147-1.146-1.147-1.146.707-.707 1.146 1.147 1.146-1.147.707.707-1.146 1.145 1.147 1.146z" id="not_x5F_bg"/><path class="st4" d="M13.354 10.354l-.708-.708-1.146 1.147-1.146-1.147-.708.708 1.147 1.146-1.147 1.146.708.708 1.146-1.147 1.146 1.147.708-.708-1.147-1.146z" id="not_x5F_fg"/></svg>