<svg xmlns="http://www.w3.org/2000/svg" viewBox="0 0 16 16"><style>.icon-canvas-transparent{opacity:0;fill:#f6f6f6}.icon-vs-out{fill:#f6f6f6}.icon-white{fill:#fff}.icon-vs-blue{fill:#1ba1e2}</style><path class="icon-canvas-transparent" d="M16 0v16H0V0h16z" id="canvas"/><path class="icon-vs-out" d="M14 8.5c0 3.032-2.468 5.5-5.5 5.5A5.506 5.506 0 0 1 3 8.5C3 5.467 5.467 3 8.5 3 11.532 3 14 5.467 14 8.5z" id="outline"/><path class="icon-white" d="M12 8.5c0 1.93-1.57 3.5-3.5 3.5S5 10.43 5 8.5 6.57 5 8.5 5 12 6.57 12 8.5z" id="iconFg"/><path class="icon-vs-blue" d="M8 8h1v3H8V8zm5 .5c0 2.481-2.019 4.5-4.5 4.5S4 10.981 4 8.5 6.019 4 8.5 4 13 6.019 13 8.5zm-1 0C12 6.57 10.43 5 8.5 5S5 6.57 5 8.5 6.57 12 8.5 12 12 10.43 12 8.5zM8 7h1V6H8v1z" id="iconBg"/></svg>