<svg xmlns="http://www.w3.org/2000/svg" width="16" height="16"><style type="text/css">.icon-canvas-transparent{opacity:0;fill:#F6F6F6;} .icon-vs-out{fill:#F6F6F6;} .icon-vs-fg{fill:#F0EFF1;} .icon-vs-blue{fill:#1BA1E2;}</style><path class="icon-canvas-transparent" d="M16 16h-16v-16h16v16z" id="canvas"/><path class="icon-vs-out" d="M16 8c0 4.418-3.582 8-8 8s-8-3.582-8-8 3.582-8 8-8 8 3.582 8 8z" id="outline"/><path class="icon-vs-blue" d="M11 5v2c0 1.104-.898 2-2 2v1h-2v-1c0-1.104.897-2 2-2v-1.797c-.159-.088-.505-.203-1-.203s-.841.115-1 .203v.797h-2v-1c0-1.159 1.262-2 3-2s3 .841 3 2zm-4 8h2v-2h-2v2zm8-5c0 3.866-3.134 7-7 7s-7-3.134-7-7 3.134-7 7-7 7 3.134 7 7zm-7 6c3.309 0 6-2.691 6-6 0-3.308-2.691-6-6-6s-6 2.692-6 6c0 3.309 2.691 6 6 6z" id="iconBg"/><path class="icon-vs-fg" d="M8 2c-3.309 0-6 2.692-6 6 0 3.309 2.691 6 6 6s6-2.691 6-6c0-3.308-2.691-6-6-6zm1 11h-2v-2h2v2zm2-6c0 1.104-.898 2-2 2v1h-2v-1c0-1.104.897-2 2-2v-1.797c-.159-.088-.505-.203-1-.203s-.841.115-1 .203v.797h-2v-1c0-1.159 1.262-2 3-2s3 .841 3 2v2z" id="iconFg"/></svg>