<svg xmlns="http://www.w3.org/2000/svg" viewBox="0 0 16 16"><style>.Arched_x0020_Green{fill:url(#SVGID_1_);stroke:#fff;stroke-width:.25;stroke-miterlimit:1}.st0{opacity:0}.st0,.st1{fill:#f6f6f6}.st2{fill:#424242}.st3{fill:#f0eff1}</style><linearGradient id="SVGID_1_" gradientUnits="userSpaceOnUse" x1="-.042" y1="16" x2=".665" y2="15.293"><stop offset="0" stop-color="#1eab4b"/><stop offset=".983" stop-color="#19361a"/></linearGradient><g id="outline"><path class="st0" d="M0 0h16v16H0z"/><circle class="st1" cx="7.958" cy="8" r="6"/></g><path class="st2" d="M7.958 3a5 5 0 0 0-5 5 5 5 0 0 0 5 5 5 5 0 0 0 5-5 5 5 0 0 0-5-5zm3 7l-1 1-2-2-2 2-1-1 2-2.028-2-1.972 1-1 2 2 2-2 1 1-2 1.972 2 2.028z" id="icon_x5F_bg"/><path class="st3" d="M10.958 6l-1-1-2 2-2-2-1 1 2 1.972-2 2.028 1 1 2-2 2 2 1-1-2-2.028z" id="icon_x5F_fg"/></svg>