<svg xmlns="http://www.w3.org/2000/svg" viewBox="0 0 16 16"><style>.st0{fill:#f6f6f6}.st1{fill:#e51400}.st2{fill:#fff}.st3{fill:#0ff}</style><circle class="st0" cx="8.028" cy="8" r="8" id="outline"/><path class="st1" d="M8.028 1a7 7 0 1 0 .001 14.001A7 7 0 0 0 8.028 1zm3.132 9.912L9.608 12 8.023 9.16 6.471 12l-1.573-1.088L6.96 8.416l-2.932-.5.641-1.797 2.715 1.132L7.047 4h1.964l-.337 3.251 2.714-1.132.641 1.797-2.909.5 2.04 2.496z" id="icon_x5F_bg"/><path class="st2" d="M9.119 8.416l2.041 2.496L9.608 12 8.023 9.16 6.471 12l-1.573-1.088L6.96 8.416l-2.932-.5.641-1.797 2.715 1.132L7.047 4h1.964l-.337 3.251 2.714-1.132.641 1.797-2.91.5z" id="icon_x5F_fg"/><path class="st3" d="M15 0h1v1h-1z" id="pixel"/></svg>