<svg xmlns="http://www.w3.org/2000/svg" width="16" height="16"><style type="text/css">.icon-canvas-transparent{opacity:0;fill:#F6F6F6;} .icon-vs-out_x0020_2{fill:#F6F6F6;} .icon-vs-blue_x0020_2{fill:#1BA1E2;} .icon-white_x0020_2{fill:#FFFFFF;}</style><path class="icon-canvas-transparent" d="M16 16h-16v-16h16v16z" id="canvas"/><path class="icon-vs-out_x0020_2" d="M10 0l6 6v4.001l-5.999 5.999h-4.001l-6-6v-3.999l6-6.001h4z" id="outline"/><path class="icon-vs-blue_x0020_2" d="M9.586 1h-3.171l-5.415 5.415v3.171l5.414 5.414h3.173l5.413-5.413v-3.173l-5.414-5.414zm-.586 12h-2v-2h2v2zm0-3h-2v-7h2v7z" id="iconBg"/><path class="icon-white_x0020_2" d="M7 3h2v7h-2v-7zm0 10h2v-2h-2v2z" id="iconFg"/></svg>