<svg xmlns="http://www.w3.org/2000/svg" viewBox="0 0 16 16"><style>.icon-canvas-transparent{opacity:0;fill:#f6f6f6}.icon-vs-out{fill:#f6f6f6}.icon-vs-bg{fill:#424242}.icon-vs-fg{fill:#f0eff1}.icon-vs-action-blue{fill:#00539c}</style><path class="icon-canvas-transparent" d="M16 16H0V0h16v16z" id="canvas"/><path class="icon-vs-out" d="M16 1v14H4.914l-1 1h-.828l-1-1H0V1h16z" id="outline"/><path class="icon-vs-bg" d="M15 2v12H5.914L6 13.914V13h8V5H2v.351a3.502 3.502 0 0 0-1 .707V2h14z" id="iconBg"/><path class="icon-vs-fg" d="M2 5h1.5c-.539 0-1.043.133-1.5.351V5zm1.5 0C5.43 5 7 6.57 7 8.5a3.5 3.5 0 0 1-1 2.445V13h8V5H3.5z" id="iconFg"/><path class="icon-vs-action-blue" d="M6 8.5a2.5 2.5 0 1 0-3 2.449V13l-1-1v1.5L3.5 15 5 13.5V12l-1 1v-2.051A2.5 2.5 0 0 0 6 8.5zM3.5 10a1.5 1.5 0 1 1 .001-3.001A1.5 1.5 0 0 1 3.5 10z" id="colorAction"/></svg>