<svg xmlns="http://www.w3.org/2000/svg" viewBox="0 0 16 16"><style>.st0{opacity:0}.st0,.st1{fill:#f6f6f6}.st2{fill:#424242}.st3{fill:#f0eff1}</style><g id="outline"><path class="st0" d="M0 0h16v16H0z"/><path class="st1" d="M8 1V0H6.274L5.155 1H3.301L2.896.514A1.618 1.618 0 0 0 1.694 0C1.242 0 .807.171.503.467.185.775.001 1.207 0 1.651c-.001.445.175.866.533 1.216L1 3.284v1.432l-.501.449A1.64 1.64 0 0 0 0 6.349c.001.444.185.876.501 1.183.142.137.313.244.499.323V15h14V1H8z"/></g><g id="icon_x5F_bg"><path class="st2" d="M2 8h1v1H2zM2 10h1v1H2zM8 2h1v1H8zM10 2h1v1h-1zM13 13H5v1h9V5h-1zM7 2.563L6.636 3H7z"/><path class="st2" d="M2.154 6.815l1.833-2.2L6.656 7H7L4.5 4 7 1h-.344L3.988 3.385l-1.833-2.2c-.238-.263-.72-.229-.955 0a.65.65 0 0 0 0 .938L3.3 4 1.2 5.878a.65.65 0 0 0 0 .938c.234.228.716.263.954-.001zM13.646 1.646L8 7.293V8h-.707l-5.647 5.646.708.708 12-12z"/></g><g id="icon_x5F_fg"><path class="st3" d="M8 7.293L12.293 3H6.636l-.834 1.001L8 6.639zM6.274 8l-2.18-1.949L3 7.363v4.93L7.293 8zM3.707 13H13V3.707z"/></g></svg>