<svg xmlns="http://www.w3.org/2000/svg" viewBox="0 0 16 16"><style>.st0{opacity:0}.st0,.st1{fill:#f6f6f6}.st2{fill:#fc0}.st3{fill:#0ff}</style><g id="outline"><path class="st0" d="M0 0h16v16H0z"/><path class="st1" d="M7.725 15.922C1.609 14.172.699 7.339 1.073 3.971l.06-.534L8 0l6.868 3.437.059.534c.374 3.369-.536 10.201-6.652 11.951L8 16l-.275-.078z"/></g><path class="st2" d="M13.951 4L8 1 2.049 4S1.058 13 8 15c6.942-2 5.951-11 5.951-11zM9 12H7v-2h2v2zm0-3H7V4h2v5z" id="icon_x5F_bg"/><path d="M7 4h2v5H7V4zm0 8h2v-2H7v2z" id="icon_x5F_fg"/><path class="st3" d="M15 0h1v1h-1z" id="pixel"/></svg>