<svg xmlns="http://www.w3.org/2000/svg" viewBox="0 0 16 16"><style>.icon-canvas-transparent{opacity:0;fill:#f6f6f6}.icon-vs-out{fill:#f6f6f6}.icon-vs-blue{fill:#1ba1e2}.icon-white{fill:#fff}</style><path class="icon-canvas-transparent" d="M16 0v16H0V0h16z" id="canvas"/><circle class="icon-vs-out" cx="8" cy="8" r="8" id="outline"/><path class="icon-white" d="M14 8c0 3.309-2.691 6-6 6s-6-2.691-6-6 2.691-6 6-6 6 2.691 6 6z" id="iconFg"/><g id="iconBg"><path class="icon-vs-blue" d="M8 1C4.14 1 1 4.14 1 8c0 3.859 3.14 7 7 7 3.859 0 7-3.141 7-7 0-3.86-3.141-7-7-7zm0 13c-3.309 0-6-2.691-6-6s2.691-6 6-6 6 2.691 6 6-2.691 6-6 6zM7 4h2v1.5H7V4zm0 3.5h2V12H7V7.5z"/></g></svg>