<svg xmlns="http://www.w3.org/2000/svg" viewBox="0 0 16 16"><style>.icon-canvas-transparent{opacity:0;fill:#f6f6f6}.icon-vs-out{fill:#f6f6f6}.icon-vs-fg{fill:#f0eff1}.icon-vs-red{fill:#e51400}</style><path class="icon-canvas-transparent" d="M16 16H0V0h16v16z" id="canvas"/><path class="icon-vs-out" d="M16 8A8 8 0 1 1 0 8a8 8 0 0 1 16 0z" id="outline"/><path class="icon-vs-red" d="M8 1a7 7 0 1 0 0 14A7 7 0 0 0 8 1zm0 13c-3.309 0-6-2.691-6-6 0-3.308 2.691-6 6-6s6 2.691 6 6-2.691 6-6 6zM7 3h2v7H7V3zm0 8h2v2H7v-2z" id="iconBg"/><g id="iconFg"><path class="icon-vs-fg" d="M8 2C4.691 2 2 4.692 2 8c0 3.309 2.691 6 6 6s6-2.691 6-6c0-3.308-2.691-6-6-6zm1 11H7v-2h2v2zm0-3H7V3h2v7z"/></g></svg>