<svg xmlns="http://www.w3.org/2000/svg" viewBox="0 0 16 16"><style>.st0{opacity:0}.st0,.st1{fill:#f6f6f6}.st2{fill:#1ba1e2}.st3{fill:#f0eff1}</style><g id="outline"><path class="st0" d="M0 0h16v16H0z"/><path class="st1" d="M6 0L0 6.001V10l6 6h4.001L16 10.001V6l-6-6z"/></g><g id="icon_x5F_bg"><path class="st2" d="M7 11h2v2H7zM7 3h2v7H7z"/><path class="st2" d="M6.415 1L1 6.415v3.169L6.414 15h3.173L15 9.586V6.414L9.586 1H6.415zM14 9.172L9.173 14H6.828L2 9.17V6.829L6.829 2h2.343L14 6.828v2.344z"/></g><path class="st3" d="M6.829 2L2 6.829V9.17L6.828 14h2.345L14 9.172V6.828L9.172 2H6.829zM9 13H7v-2h2v2zm0-3H7V3h2v7z" id="icon_x5F_fg"/></svg>