<svg xmlns="http://www.w3.org/2000/svg" viewBox="0 0 16 16"><style>.st0{opacity:0}.st0,.st1{fill:#f6f6f6}.st2{fill:#393}.st3{fill:#f0eff1}</style><g id="outline"><path class="st0" d="M0 0h16v16H0z"/><circle class="st1" cx="8" cy="8" r="8"/></g><g id="icon_x5F_bg"><path class="st2" d="M8 2c3.309 0 6 2.692 6 6 0 3.309-2.691 6-6 6s-6-2.691-6-6 2.691-6 6-6m0-1a7 7 0 1 0 0 14A7 7 0 0 0 8 1z"/><path class="st2" d="M7 10L6 8H4l2 4h2l4-8h-2z"/></g><path class="st3" d="M8 2a6 6 0 1 0 0 12A6 6 0 0 0 8 2zm0 10H6L4 8h2l1 2 3-6h2l-4 8z" id="icon_x5F_fg"/></svg>