<svg xmlns="http://www.w3.org/2000/svg" viewBox="0 0 16 16"><style>.st0{opacity:0}.st0,.st1{fill:#f6f6f6}.st2{fill:#e51400}.st3{fill:#f0eff1}</style><g id="outline"><path class="st0" d="M0 0h16v16H0z"/><circle class="st1" cx="8" cy="8" r="8"/></g><g id="icon_x5F_bg"><path class="st2" d="M8 1a7 7 0 1 0 0 14A7 7 0 0 0 8 1zM2 8c0-3.308 2.691-6 6-6s6 2.691 6 6-2.691 6-6 6-6-2.691-6-6z"/><path class="st2" d="M11.388 6.119L8.674 7.251 9.011 4H7.047l.337 3.251-2.715-1.132-.641 1.797 2.932.5-2.063 2.496L6.471 12l1.552-2.84L9.608 12l1.552-1.088-2.041-2.496 2.909-.5z"/></g><path class="st3" d="M8 2C4.691 2 2 4.692 2 8c0 3.309 2.691 6 6 6s6-2.691 6-6c0-3.308-2.691-6-6-6zm3.16 8.912L9.608 12 8.023 9.16 6.471 12l-1.573-1.088L6.96 8.416l-2.932-.5.641-1.797 2.715 1.132L7.047 4h1.964l-.337 3.251 2.714-1.132.641 1.797-2.909.5 2.04 2.496z" id="icon_x5F_fg"/></svg>