<svg xmlns="http://www.w3.org/2000/svg" viewBox="0 0 16 16"><style>.icon-canvas-transparent{opacity:0;fill:#f6f6f6}.icon-vs-out{fill:#f6f6f6}.icon-vs-green{fill:#393}.icon-white{fill:#fff}.st0{fill:#0ff}</style><path class="icon-canvas-transparent" d="M16 16H0V0h16v16z" id="canvas"/><path class="icon-vs-out" d="M7.725 15.922C1.609 14.172.699 7.339 1.073 3.971l.06-.534L8 0l6.868 3.437.059.534c.374 3.369-.536 10.201-6.652 11.951L8 16l-.275-.078z" id="outline"/><g id="notificationBg"><path class="st0" d="M16 1h-1V0h1v1z"/><path class="icon-vs-green" d="M13.951 4L8 1 2.049 4S1.058 13 8 15c6.942-2 5.951-11 5.951-11zM8.5 12h-2l-2-4h2l1 2L10 5h2l-3.5 7z"/></g><path class="icon-white" d="M11.999 5l-3.5 7h-2l-2-4h2l1 2 2.5-5h2z" id="notificationFg"/></svg>