<svg xmlns="http://www.w3.org/2000/svg" viewBox="0 0 16 16"><style>.st0{opacity:0}.st0,.st1{fill:#f6f6f6}.st2{fill:#e51400}.st3{fill:#f0eff1}</style><g id="outline"><path class="st0" d="M0 0h16v16H0z"/><circle class="st1" cx="8" cy="8" r="8"/></g><g id="not_x5F_bg"><path class="st2" d="M8 2c3.309 0 6 2.691 6 6s-2.691 6-6 6c-3.308 0-6-2.691-6-6s2.692-6 6-6m0-1a7 7 0 1 0 0 14A7 7 0 0 0 8 1z"/><path class="st2" d="M9 3H7v6L4 6v3l4 4 4-4V6L9 9z"/></g><path class="st3" d="M8 2a6 6 0 1 0 .002 12.002A6 6 0 0 0 8 2zm4 7l-4 4-4-4V6l3 3V3h2v6l3-3v3z" id="not_x5F_fg"/></svg>