<?xml version="1.0" encoding="utf-8"?>
<!-- Generator: Adobe Illustrator 21.0.2, SVG Export Plug-In . SVG Version: 6.00 Build 0)  -->
<svg version="1.1" xmlns="http://www.w3.org/2000/svg" xmlns:xlink="http://www.w3.org/1999/xlink" x="0px" y="0px"
	 viewBox="0 0 16 16" style="enable-background:new 0 0 16 16;" xml:space="preserve">
<style type="text/css">
	.icon_x002D_canvas_x002D_transparent{opacity:0;fill:#F6F6F6;}
	.icon_x002D_vs_x002D_out{fill:#F6F6F6;}
	.icon_x002D_white{fill:#FFFFFF;}
	.icon_x002D_vs_x002D_bg{fill:#424242;}
</style>
<g id="canvas">
	<path class="icon_x002D_canvas_x002D_transparent" d="M16,0v16H0V0H16z"/>
</g>
<g id="outline">
	<circle class="icon_x002D_vs_x002D_out" cx="8" cy="8" r="8"/>
</g>
<g id="iconFg">
	<path class="icon_x002D_white" d="M14,8c0,3.309-2.691,6-6,6c-3.309,0-6-2.691-6-6c0-3.309,2.691-6,6-6C11.309,2,14,4.691,14,8z"/>
</g>
<g id="iconBg">
	<path class="icon_x002D_vs_x002D_bg" d="M8,1C4.14,1,1,4.14,1,8c0,3.859,3.14,7,7,7c3.859,0,7-3.141,7-7C15,4.14,11.859,1,8,1z
		 M8,14c-3.309,0-6-2.691-6-6c0-3.309,2.691-6,6-6c3.309,0,6,2.691,6,6C14,11.309,11.309,14,8,14z M7,4h2v1.5H7V4z M7,7.5h2V12H7
		V7.5z"/>
	<g>
	</g>
	<g>
	</g>
	<g>
	</g>
	<g>
	</g>
	<g>
	</g>
	<g>
	</g>
</g>
</svg>
