<svg xmlns="http://www.w3.org/2000/svg" viewBox="0 0 16 16"><style>.st0{opacity:0}.st0,.st1{fill:#f6f6f6}.st2{fill:#e51400}.st3{fill:#fff}</style><g id="outline"><path class="st0" d="M0 0h16v16H0z"/><path class="st1" d="M2 8a6 6 0 1 1 12.002.002A6 6 0 0 1 2 8z"/></g><path class="st2" d="M8 3a5 5 0 0 0-5 5 5 5 0 0 0 5 5 5 5 0 0 0 5-5 5 5 0 0 0-5-5zm3 7l-1 1-2-2-2 2-1-1 2-2.028L5 6l1-1 2 2 2-2 1 1-2 1.972L11 10z" id="not_x5F_bg"/><path class="st3" d="M9 7.972L11 10l-1 1-2-2-2 2-1-1 2-2.028L5 6l1-1 2 2 2-2 1 1-2 1.972z" id="not_x5F_fg"/></svg>