<svg xmlns="http://www.w3.org/2000/svg" viewBox="0 0 16 16"><style>.icon-canvas-transparent{opacity:0;fill:#f6f6f6}.icon-vs-out{fill:#f6f6f6}.icon-vs-fg{fill:#f0eff1}.icon-vs-bg{fill:#424242}</style><path class="icon-canvas-transparent" d="M16 16H0V0h16v16z" id="canvas"/><path class="icon-vs-out" d="M8 16c-4.411 0-8-3.589-8-8s3.589-8 8-8 8 3.589 8 8-3.589 8-8 8" id="outline"/><path class="icon-vs-bg" d="M8 1a7 7 0 1 0 0 14A7 7 0 0 0 8 1zm1 12H7v-2h2v2zm0-3H7V3h2v7z" id="iconBg"/><g id="iconFg"><path class="icon-vs-fg" d="M9 10H7V3h2v7zm0 1H7v2h2v-2z"/></g></svg>