<svg xmlns="http://www.w3.org/2000/svg" viewBox="0 0 16 16"><style>.st0{fill:#f6f6f6}.st1{fill:#424242}.st2{fill:#f0eff1}</style><path class="st0" d="M7.725 15.922C1.609 14.172.699 7.339 1.073 3.971l.06-.534L8 0l6.868 3.437.059.534c.374 3.369-.536 10.201-6.652 11.951L8 16l-.275-.078z" id="outline"/><path class="st1" d="M13.951 4L8 1 2.049 4S1.058 13 8 15c6.942-2 5.951-11 5.951-11zM8.5 12h-2l-2-4h2l1 2L10 5h2l-3.5 7z" id="icon_x5F_bg"/><path class="st2" d="M10 5l-2.5 5-1-2h-2l2 4h2L12 5z" id="icon_x5F_fg"/></svg>