<svg xmlns="http://www.w3.org/2000/svg" viewBox="0 0 16 16"><style>.st0{opacity:0;fill:#fff}.st1{fill:#e51400}.st2{fill:#fff}</style><g id="icon_x5F_bg"><path class="st0" d="M0 0h16v16H0z"/><path class="st1" d="M11.499 8a3.5 3.5 0 1 0 .002 7 3.5 3.5 0 0 0-.002-7m1.855 4.646l-.707.707-1.148-1.146-1.145 1.146-.707-.707 1.147-1.145-1.147-1.147.707-.707 1.145 1.146 1.148-1.146.707.707-1.147 1.147 1.147 1.145z"/></g><path class="st2" d="M13.354 10.354l-.708-.708-1.147 1.147-1.145-1.147-.708.708 1.147 1.145-1.147 1.147.708.708 1.145-1.147 1.147 1.147.708-.708-1.147-1.147z" id="icon_x5F_fg"/></svg>