<svg xmlns="http://www.w3.org/2000/svg" width="16" height="16" viewBox="0 0 16 16"><style type="text/css">.icon-canvas-transparent{opacity:0;fill:#F6F6F6;} .icon-vs-red{fill:#E51400;} .icon-white{fill:#FFFFFF;} .icon-vs-action-orange{fill:#C27D1A;} .icon-vs-out{fill:#F6F6F6;}</style><path class="icon-canvas-transparent" d="M16 16h-16v-16h16v16z" id="canvas"/><path class="icon-vs-out" d="M15.738 10h.262v3h-1v2h-2v1h-3v-.262c-.64.165-1.308.262-2 .262-4.418 0-8-3.582-8-8s3.582-8 8-8 8 3.582 8 8c0 .692-.097 1.36-.262 2z" id="outline"/><path class="icon-vs-red" d="M10 7.414v.586h-.586l.586-.586zm-2 2.586v-.586l-.586.586h.586zm-1 3v-2.586l-2 2-1.414-1.414 3-3-3-3 1.414-1.414 3 3 3-3 1.414 1.414-2 2h2.586v1h2c0-3.865-3.135-7-7-7-3.866 0-7 3.135-7 7s3.134 7 7 7v-2h-1z" id="iconBg"/><path class="icon-white" d="M7 10.414l-2 2-1.414-1.414 3-3-3-3 1.414-1.414 3 3 3-3 1.414 1.414-2 2h-.414v.414l-.586.586h-1.414v1.414l-.586.586h-.414v.414z" id="iconFg"/><path class="icon-vs-action-orange" d="M15 12v-1h-2v-1h-1v-2h-1v2h-1v1h-2v1h2v1h1v2h1v-2h1v-1h2zm-4 0v-1h1v1h-1zm-1-3v1h-1v-1h1zm4 1h-1v-1h1v1zm-5 3h1v1h-1v-1zm4 1v-1h1v1h-1z" id="notificationBg"/></svg>