<svg xmlns="http://www.w3.org/2000/svg" viewBox="0 0 16 16"><style>.st0{opacity:0;fill:#fff}.st1{fill:#e51400}.st2{fill:#fff}</style><g id="not_x5F_bg"><path class="st0" d="M0 0h16v16H0z"/><path class="st1" d="M8.5 3a4.5 4.5 0 1 0 0 9 4.5 4.5 0 0 0 0-9zm2.7 6.3l-.9.9-1.8-1.8-1.8 1.8-.9-.9 1.8-1.825L5.8 5.7l.9-.9 1.8 1.8 1.8-1.8.9.9-1.8 1.775L11.2 9.3z"/></g><path class="st2" d="M9.4 7.475L11.2 9.3l-.9.9-1.8-1.8-1.8 1.8-.9-.9 1.8-1.825L5.8 5.7l.9-.9 1.8 1.8 1.8-1.8.9.9-1.8 1.775z" id="not_x5F_fg"/></svg>