<svg xmlns="http://www.w3.org/2000/svg" width="16" height="16"><style type="text/css">.icon-canvas-transparent{opacity:0;fill:#F6F6F6;} .icon-vs-out{fill:#F6F6F6;} .icon-vs-action-red{fill:#A1260D;}</style><path class="icon-canvas-transparent" d="M16 16h-16v-16h16v16z" id="canvas"/><path class="icon-vs-out" d="M8 10.828l-3 3-2.828-2.828 3-3-3-3 2.828-2.828 3 3 3-3 2.828 2.828-3 3 3 3-2.828 2.828-3-3z" id="outline"/><path class="icon-vs-action-red" d="M9.414 8l3 3-1.414 1.414-3-3-3 3-1.414-1.414 3-3-3-3 1.414-1.414 3 3 3-3 1.414 1.414-3 3z" id="iconBg"/></svg>