<svg xmlns="http://www.w3.org/2000/svg" viewBox="0 0 16 16"><style>.st0{fill:#f6f6f6}.st1{fill:#424242}.st2{fill:#f0eff1}</style><path class="st0" d="M7.725 15.922C1.608 14.172.698 7.34 1.072 3.971l.06-.534L8 0l6.868 3.437.059.534c.374 3.369-.536 10.201-6.652 11.951L8 16l-.275-.078z" id="outline"/><path class="st1" d="M13.951 4L8 1 2.049 4S1.058 13 8 15c6.942-2 5.951-11 5.951-11zm-2.537 6L10 11.414l-2-2-2 2L4.586 10l2-2-2-2L6 4.586l2 2 2-2L11.414 6l-2 2 2 2z" id="icon_x5F_bg"/><path class="st2" d="M11.414 6L10 4.586l-2 2-2-2L4.586 6l2 2-2 2L6 11.414l2-2 2 2L11.414 10l-2-2z" id="icon_x5F_fg"/></svg>