<svg xmlns="http://www.w3.org/2000/svg" viewBox="0 0 16 16"><style>.icon-canvas-transparent{opacity:0;fill:#f6f6f6}.icon-vs-out{fill:#f6f6f6}.icon-vs-bg{fill:#424242}.icon-vs-action-blue{fill:#00539c}</style><path class="icon-canvas-transparent" d="M0 0h16v16H0V0z" id="canvas"/><path class="icon-vs-out" d="M5 13c0-1.654 1.346-3 3-3s3 1.346 3 3-1.346 3-3 3-3-1.346-3-3zm1.414-3l3.795-3.795a2.859 2.859 0 0 1 1.13 1.923l.113.872h3.643l-.099-1.09C14.695 4.596 11.842 2 8.5 2A6.481 6.481 0 0 0 5 3.03V.586l-4 4V10h5.414zm.62-4A3.23 3.23 0 0 1 8.5 5.637c.502 0 .979.131 1.394.363h-2.86z" id="outline"/><path class="icon-vs-bg" d="M10 13a2 2 0 1 1-4.001-.001A2 2 0 0 1 10 13z" id="iconBg"/><g id="colorAction"><path class="icon-vs-action-blue" d="M8.5 4.637c-1.602 0-3.152.974-3.738 2.363L5 6.998V7h3L6 9H2V5l2-2v2.348A5.495 5.495 0 0 1 8.5 3c2.863 0 5.246 2.201 5.5 5h-1.669A3.863 3.863 0 0 0 8.5 4.637z"/></g></svg>