<svg xmlns="http://www.w3.org/2000/svg" viewBox="0 0 16 16"><style>.icon-canvas-transparent{opacity:0;fill:#f6f6f6}.icon-vs-out{fill:#f6f6f6}.icon-vs-action-blue{fill:#00539c}</style><path class="icon-canvas-transparent" d="M16 0v16H0V0h16z" id="canvas"/><path class="icon-vs-out" d="M15.095 11h-3.643l-.113-.872a2.853 2.853 0 0 0-1.13-1.923L6.414 12H1V6.586l4-4V5.03A6.481 6.481 0 0 1 8.5 4c3.342 0 6.195 2.596 6.496 5.91l.099 1.09z" id="outline"/><g id="iconBg"><path class="icon-vs-action-blue" d="M14 10h-1.669A3.863 3.863 0 0 0 8.5 6.637c-1.602 0-3.152.974-3.738 2.363L5 8.998V9h3l-2 2H2V7l2-2v2.348A5.495 5.495 0 0 1 8.5 5c2.863 0 5.246 2.201 5.5 5z"/></g></svg>