<svg xmlns="http://www.w3.org/2000/svg" viewBox="0 0 16 16"><style>.icon-canvas-transparent{opacity:0;fill:#f6f6f6}.icon-vs-out{fill:#f6f6f6}.icon-vs-action-blue{fill:#00539c}</style><path class="icon-canvas-transparent" d="M16 0v16H0V0h16z" id="canvas"/><path class="icon-vs-out" d="M15 6.586V12H9.586L5.791 8.205a2.855 2.855 0 0 0-1.13 1.923L4.548 11H.905l.099-1.09C1.305 6.596 4.158 4 7.5 4c1.255 0 2.467.367 3.5 1.03V2.586l4 4z" id="outline"/><g id="iconBg"><path class="icon-vs-action-blue" d="M14 7v4h-4L8 9h3v-.002l.238.002C10.652 7.611 9.102 6.637 7.5 6.637A3.863 3.863 0 0 0 3.669 10H2c.254-2.799 2.637-5 5.5-5 1.86 0 3.504.931 4.5 2.348V5l2 2z"/></g></svg>