<svg xmlns="http://www.w3.org/2000/svg" viewBox="0 0 16 16"><style>.st0{opacity:0}.st0,.st1{fill:#f6f6f6}.st2{fill:none}.st3{fill:#424242}.st4{fill:#f0eff1}</style><g id="outline"><path class="st0" d="M0 0h16v16H0z"/><path class="st1" d="M0 0h16v15H0z"/></g><g id="icon_x5F_bg"><path class="st2" d="M2 13h12V2H2v11zm8-8h1v5h2v1h-2v1h-1V8H8V7h2V5zM3 7h2V3h1v1h2v1H6v5H5V8H3V7z"/><path class="st3" d="M1 1v13h14V1H1zm13 12H2V2h12v11z"/><path class="st3" d="M5 10h1V5h2V4H6V3H5v4H3v1h2zM8 8h2v4h1v-1h2v-1h-2V5h-1v2H8z"/></g><path class="st4" d="M2 2v11h12V2H2zm4 8H5V8H3V7h2V3h1v1h2v1H6v5zm7 1h-2v1h-1V8H8V7h2V5h1v5h2v1z" id="icon_x5F_fg"/></svg>