<svg xmlns="http://www.w3.org/2000/svg" viewBox="0 0 16 16"><style>.st0{fill:#f6f6f6}.st1{fill:#424242}.st2{fill:#a1260d}</style><path class="st0" d="M16 5v1.27l-4 5.081V16H8v-4.649L6.703 9.703 4.707 7.707 2.414 10 0 7.586v-.828l1.879-1.879L0 3v-.828L2.172 0h.484l2.051 2.051L6.758 0h.484l2.586 2.586-2.293 2.293.121.121H16z" id="outline"/><path class="st1" d="M15 6l-4 5v4H9v-4L7.667 9.334l2.161-2.162L8.656 6H15z" id="icon_x5F_bg"/><path class="st2" d="M8.414 2.586L7 1.172 4.707 3.465 2.414 1.172 1 2.586l2.293 2.293L1 7.172l1.414 1.414 2.293-2.293L7 8.586l1.414-1.414-2.293-2.293 2.293-2.293z" id="color_x5F_action"/></svg>