<svg xmlns="http://www.w3.org/2000/svg" viewBox="0 0 16 16"><style>.icon-canvas-transparent{opacity:0;fill:#f6f6f6}.icon-vs-out{fill:#f6f6f6}.icon-vs-bg{fill:#424242}.icon-vs-fg{fill:#f0eff1}.icon-vs-action-red{fill:#a1260d}</style><path class="icon-canvas-transparent" d="M16 0v16H0V0h16z" id="canvas"/><path class="icon-vs-out" d="M15 1v15H1V8H0V0h8v1h7z" id="outline"/><path class="icon-vs-fg" d="M13 3v11H4V8h4V7h3V5H8V3h5z" id="iconFg"/><path class="icon-vs-bg" d="M14 2v13H2v-1h1v-1H2v-1h1v-1H2v-1h1V9H2V8h2v6h9V3H8V2h6zm-3 4V5H8v2h3V6z" id="iconBg"/><g id="colorAction"><path class="icon-vs-action-red" d="M7 1v6H1V1h6z"/></g></svg>