<svg xmlns="http://www.w3.org/2000/svg" viewBox="0 0 16 16"><style>.st0{fill:#f6f6f6}.st1{fill:#424242}.st2{fill:#a1260d}.st3{fill:none}.st4{fill:#f0eff1}</style><path class="st0" d="M16 0v13h-2v3H0V3h1.586L0 1.414V0h16z" id="outline"/><g id="icon_x5F_bg"><path class="st1" d="M5 8h6v1H5z"/><path class="st1" d="M9 1v.414L7.414 3H14v8h-1V4H7.414L9 5.586V6h3v5H4V6.414L3.414 7H3v5h9v2H2V7H1v8h12v-3h2V1z"/></g><path class="st2" d="M8 1H6L4.5 2.5 3 1H1l2.5 2.5L1 6h2l1.5-1.5L6 6h2L5.5 3.5 8 1z" id="color_x5F_action"/><g id="icon_x5F_fg"><path class="st3" d="M5 8h6v1H5z"/><path class="st4" d="M3 7H2v7h10v-2H3zM7.414 3l-.5.5.5.5H13v7h1V3z"/><path class="st4" d="M9 7H5.586l-1-1h-.172L4 6.414V11h8V6H9v1zm2 2H5V8h6v1z"/></g></svg>