<svg xmlns="http://www.w3.org/2000/svg" viewBox="0 0 16 16"><style>.st0{fill:#f6f6f6}.st1{fill:#424242}.st2{fill:#f0eff1}.st3{fill:#a1260d}.st4{fill:#fff}</style><path class="st0" d="M13.973 7H14V4H8.949C8.698 1.753 6.814 0 4.5 0a4.5 4.5 0 0 0 0 9c.832 0 1.601-.241 2.27-.635A4.9 4.9 0 0 0 6 11a5 5 0 1 0 10 0c0-1.643-.804-3.088-2.027-4z" id="outline"/><path class="st1" d="M10 6H9V5h4v1h-1v.5h-2V6zm5 5a4 4 0 1 1-8 0 4 4 0 0 1 8 0zm-1 0a2.99 2.99 0 0 0-2.743-2.974L11.25 8l-.006.024.013.001L12 11a1 1 0 1 1-2 0l.743-2.974.013-.001L10.75 8l-.007.026A2.99 2.99 0 0 0 8 11a3 3 0 0 0 6 0z" id="icon_x5F_bg"/><path class="st2" d="M14 11a3.001 3.001 0 0 1-6 0 2.99 2.99 0 0 1 2.743-2.974L10 11a1 1 0 1 0 2 0l-.743-2.974A2.99 2.99 0 0 1 14 11z" id="icon_x5F_fg"/><path class="st3" d="M4.5 1a3.5 3.5 0 1 0 0 7 3.5 3.5 0 0 0 0-7zM6 6H3V3h3v3z" id="not_x5F_bg"/><path class="st4" d="M3 3h3v3H3z" id="not_x5F_fg"/></svg>