<svg xmlns="http://www.w3.org/2000/svg" viewBox="0 0 16 16"><style>.icon-canvas-transparent{opacity:0;fill:#f6f6f6}.icon-vs-out{fill:#f6f6f6}.icon-vs-bg{fill:#424242}.icon-vs-fg{fill:#f0eff1}</style><path class="icon-canvas-transparent" d="M16 0v16H0V0h16z" id="canvas"/><path class="icon-vs-out" d="M16 4v8.414L12.414 16H2v-4H0V3.586L3.586 0H14v4h2z" id="outline"/><path class="icon-vs-fg" d="M4 4H2.414L4 2.414V4zM2 5v2.586l1-1V6h.586l1-1H2zm10-1V2.707L10.707 4H12zm0 4.707V13.586l2-2V6.707l-2 2zM6 8V6.414L4.414 8H6zm1-2v2h4.293l2-2H7zM4 9h7v5H4V9zm1 2h4v-1H5v1zm0 2h2v-1H5v1zm6.293-11H5v2h4.293l2-2z" id="iconFg"/><g id="iconBg"><path class="icon-vs-bg" d="M3 6.586V6h.586L3 6.586zM4.586 5H2v6H1V4l3-3h9v3h-1V2.707L10.707 4H9.293l2-2H5v2h.586l-1 1zM4 2.414L2.414 4H4V2.414zM15 5v7l-3 3H3V8l3-3h9zM4.414 8H6V6.414L4.414 8zM11 9H4v5h7V9zm2.293-3H7v2h4.293l2-2zm.707.707l-2 2V13.586l2-2V6.707zM9 10H5v1h4v-1zm-2 2H5v1h2v-1z"/></g></svg>