<svg xmlns="http://www.w3.org/2000/svg" viewBox="0 0 16 16"><style>.st0{fill:#f6f6f6}.st1{fill:#424242}.st2{fill:#f0eff1}.st3{fill:#fc0}</style><g id="outline"><path class="st0" d="M8.309 15.5l-.5-1H.5V.5h14v11.618L15.441 14l-.75 1.5z"/><path class="st0" d="M14 1v11.236l.106.211.776 1.553-.5 1H8.618l-.224-.447L8.118 14H1V1h13m1-1H0v15h7.5l.5 1h7l1-2-1-2V0z"/></g><path class="st1" d="M3 11h2v1H3v-1zm-1 2V4h11v4l1 2V1H1v13h6l.5-1H2zm1-5h4V7H3v1zm4 1H3v1h4V9zm1 1h1l.5-1H8v1zm0-2h2V7H8v1zm.5 3H6v1h2l.5-1zM7 5H3v1h4V5z" id="icon_x5F_bg"/><path class="st2" d="M2 4v9h5.5l.5-1H6v-1h2.5l.5-1H8V9h1.5l.5-1H8V7h2v1l.5-1h2l.5 1V4H2zm3 8H3v-1h2v1zm2-2.981V10H3V9h4v.019zM7 8H3V7h4v1zm0-2H3V5h4v1z" id="icon_x5F_fg"/><path class="st3" d="M11.891 8.016h-.781l-3.016 6 .515.984h5.766l.484-1-2.968-5.984zM12 14h-1v-1h1v1zm0-2h-1v-2h1v2z" id="not_x5F_bg"/><path d="M12 12h-1v-2h1v2zm0 1h-1v1h1v-1z" id="not_x5F_fg"/></svg>