<svg xmlns="http://www.w3.org/2000/svg" viewBox="0 0 16 16"><style>.icon-canvas-transparent{opacity:0;fill:#f6f6f6}.icon-vs-out{fill:#f6f6f6}.icon-vs-bg{fill:#424242}.icon-vs-fg{fill:#f0eff1}</style><path class="icon-canvas-transparent" d="M16 0v16H0V0h16z" id="canvas"/><path class="icon-vs-out" d="M15 1v10.414L11.414 15H1V4.586L4.586 1H15z" id="outline"/><path class="icon-vs-fg" d="M5 5H3.414L5 3.414V5zm6 .707v6.879l2-2V3.707l-2 2zM3 6h7v7H3V6zm1 2h4V7H4v1zm0 2h2V9H4v1zm2-7v2h4.293l2-2H6z" id="iconFg"/><g id="iconBg"><path class="icon-vs-bg" d="M5 2L2 5v9h9l3-3V2H5zm0 1.414V5H3.414L5 3.414zM10 13H3V6h7v7zm.293-8H6V3h6.293l-2 2zM13 10.586l-2 2V5.707l2-2v6.879zM6 10H4V9h2v1zm2-2H4V7h4v1z"/></g></svg>