<?xml version="1.0" encoding="iso-8859-1"?>
<!-- Generator: Adobe Illustrator 21.0.0, SVG Export Plug-In . SVG Version: 6.00 Build 0)  -->
<svg version="1.1" xmlns="http://www.w3.org/2000/svg" xmlns:xlink="http://www.w3.org/1999/xlink" x="0px" y="0px"
	 viewBox="0 0 16 16" style="enable-background:new 0 0 16 16;" xml:space="preserve">
<style type="text/css">
	.icon_x002D_canvas_x002D_transparent{opacity:0;fill:#F6F6F6;}
	.icon_x002D_vs_x002D_out{fill:#F6F6F6;}
	.icon_x002D_vs_x002D_bg{fill:#424242;}
	.icon_x002D_vs_x002D_fg{fill:#F0EFF1;}
	.icon_x002D_vs_x002D_blue{fill:#1BA1E2;}
</style>
<g id="canvas">
	<path class="icon_x002D_canvas_x002D_transparent" d="M16,16H0V0h16V16z"/>
</g>
<g id="outline">
	<path class="icon_x002D_vs_x002D_out" d="M16,3v6c0,1.279-1.203,2.321-3,2.767V13h-3v3H6v-1H2c-0.97,0-2-0.701-2-2V5
		c0-1.299,1.03-2,2-2h4c0-1.711,2.149-3,5-3C13.85,0,16,1.289,16,3z"/>
</g>
<g id="iconBg">
	<path class="icon_x002D_vs_x002D_bg" d="M7,10h2v2H7V10z M7,15h2v-2H7V15z M10,12h2v-2h-2V12z M6,13H2V5h4v2h2v1v1h1V6.136L6.625,4
		H1.964C1.964,4,1,4,1,5c0,0.805,0,5.442,0,8c0,1,0.964,1,0.964,1S4.216,14,6,14V13z M5,10h1V9H5V10z M3,12h1v-1H3V12z M3,10h1V9H3
		V10z"/>
</g>
<g id="iconFg">
	<path class="icon_x002D_vs_x002D_fg" d="M14.326,3c0,0.527-1.326,1.325-3.325,1.325c-1.031,0-1.877-0.213-2.461-0.491L7.717,3.143
		C7.698,3.094,7.675,3.045,7.675,3c0-0.527,1.326-1.325,3.325-1.325C12.999,1.675,14.326,2.473,14.326,3z M6,13H2V5h4v1.96l2,0.036
		V9H6H5v1h1V13z M4,11H3v1h1V11z M4,9H3v1h1V9z"/>
</g>
<g id="colorImportance">
	<path class="icon_x002D_vs_x002D_blue" d="M15,3v3v3c0,0.738-0.81,1.376-2,1.723V9h-3V5.062L8.54,3.834
		C9.124,4.112,9.969,4.325,11,4.325c1.999,0,3.325-0.798,3.325-1.325S12.999,1.675,11,1.675C9.001,1.675,7.675,2.473,7.675,3
		c0,0.045,0.022,0.094,0.042,0.143L7.547,3H7c0-0.504,0.385-0.959,1-1.311C8.734,1.271,9.799,1,11,1c1.201,0,2.267,0.271,3,0.689
		C14.616,2.041,15,2.496,15,3z"/>
</g>
</svg>
