<svg xmlns="http://www.w3.org/2000/svg" viewBox="0 0 16 16"><style>.st0{opacity:0}.st0,.st1{fill:#f6f6f6}.st2{fill:#424242}.st3{fill:#00539c}.st4{fill:#f0eff1}</style><g id="outline"><path class="st0" d="M0 0h16v16H0z"/><path class="st1" d="M2.586 15L1 13.414V1.586L2.586 0h11.828L16 1.586v11.828L14.414 15H2.586z"/></g><path class="st2" d="M14 1H3L2 2v11l1 1h11l1-1V2l-1-1zm0 12H3V2h11v11z" id="icon_x5F_bg"/><g id="color_x5F_importance"><path class="st3" d="M8 4h1v2H8z"/><path class="st3" d="M10 7H7V4H5v7h7V6l-2-2z"/></g><path class="st4" d="M3 2v11h11V2H3zm5 2h1v2H8V4zm4 7H5V4h2v3h3V4l2 2v5z" id="icon_x5F_fg"/></svg>