<svg xmlns="http://www.w3.org/2000/svg" viewBox="0 0 16 16"><style>.st0{fill:#f6f6f6}.st1{fill:none}.st2{fill:#424242}.st3{fill:#f0eff1}</style><path class="st0" d="M16 5V0H7v3.382A3.98 3.98 0 0 0 4 2C1.794 2 0 3.794 0 6c0 2.205 1.794 4 4 4 1.435 0 2.745-.78 3.451-2H10v.549C8.78 9.255 8 10.565 8 12c0 2.205 1.794 4 4 4s4-1.795 4-4c0-1.435-.78-2.745-2-3.451V5h2z" id="outline"/><g id="icon_x5F_bg"><circle class="st1" cx="4" cy="6" r="1"/><path class="st1" d="M9 2h1v1H9z"/><circle class="st1" cx="12" cy="12" r="1"/><path class="st2" d="M8 1v3h7V1H8zm2 2H9V2h1v1z"/><path class="st2" d="M13 9.184V5H6.816A2.992 2.992 0 0 0 1 6c0 1.656 1.344 3 3 3a2.993 2.993 0 0 0 2.816-2H11v2.184A2.99 2.99 0 0 0 9 12a3.001 3.001 0 0 0 6 0 2.99 2.99 0 0 0-2-2.816zM4 7a1 1 0 1 1 0-2 1 1 0 0 1 0 2zm8 6a1 1 0 1 1 0-2 1 1 0 0 1 0 2z"/></g><g id="icon_x5F_fg"><path class="st3" d="M9 2h1v1H9z"/><circle class="st3" cx="4" cy="6" r="1"/><circle class="st3" cx="12" cy="12" r="1"/></g></svg>