<svg xmlns="http://www.w3.org/2000/svg" viewBox="0 0 16 16"><style>.st0{opacity:0}.st0,.st1{fill:#f6f6f6}.st2{fill:#424242}.st3{fill:#00539c}.st4{fill:#f0eff1}</style><g id="outline"><path class="st0" d="M0 0h16v16H0z"/><circle class="st1" cx="8" cy="8" r="8"/></g><g id="icon_x5F_bg"><circle class="st2" cx="7.997" cy="8" r="7"/><circle class="st2" cx="7.997" cy="8" r="6"/><path class="st3" d="M7.997 4h1v2h-1z"/><path class="st3" d="M10 4l2 2v6H4V4h3v3h3z"/></g><path class="st4" d="M8 2a6 6 0 1 0 .002 11.998A6 6 0 0 0 8 2zm0 2h1v2H8V4zm4 8H4V4h3v3h3V4l2 2v6z" id="icon_x5F_fg"/></svg>