<svg xmlns="http://www.w3.org/2000/svg" viewBox="0 0 16 16"><style>.st0{fill:#f6f6f6}.st1{fill:none}.st2{fill:#424242}.st3{fill:#f0eff1}</style><path class="st0" d="M16 5V0H7v3.382A3.98 3.98 0 0 0 4 2C1.794 2 0 3.794 0 6c0 .788.237 1.519.632 2.139L0 8.5V16h7V8.617c.167-.191.322-.394.451-.617H10v.549C8.78 9.255 8 10.565 8 12c0 2.205 1.794 4 4 4s4-1.795 4-4c0-1.435-.78-2.745-2-3.451V5h2z" id="outline"/><g id="icon_x5F_bg"><circle class="st1" cx="12" cy="12" r="1"/><path class="st1" d="M4 13h1v1H4zM2 11h1v1H2zM4 11h1v1H4zM9 2h1v1H9zM2 13h1v1H2z"/><path class="st2" d="M13 9.184V5H6.816A2.992 2.992 0 0 0 1 6c0 .608.184 1.173.495 1.646L3.25 6.643A.985.985 0 0 1 3 6a1 1 0 1 1 2 0 .987.987 0 0 1-.723.944l1.907 1.089c.273-.297.494-.644.632-1.033H11v2.184A2.99 2.99 0 0 0 9 12a3.001 3.001 0 0 0 6 0 2.99 2.99 0 0 0-2-2.816zM12 13a1 1 0 1 1 0-2 1 1 0 0 1 0 2z"/><path class="st2" d="M4 8l-.5 2L3 8 1 9l1.5 1H1v5h5v-5H4.5L6 9 4 8zm-1 6H2v-1h1v1zm0-2H2v-1h1v1zm2 2H4v-1h1v1zm0-3v1H4v-1h1zM8 1v3h7V1H8zm2 2H9V2h1v1z"/></g><g id="icon_x5F_fg"><circle class="st3" cx="12" cy="12" r="1"/><path class="st3" d="M4 5a1 1 0 0 0-1 1c0 .248.1.468.25.643L3.5 6.5l.777.444A.987.987 0 0 0 5 6a1 1 0 0 0-1-1zM2 11h1v1H2zM4 13h1v1H4zM2 13h1v1H2zM4 11h1v1H4zM9 2h1v1H9z"/></g></svg>