<svg xmlns="http://www.w3.org/2000/svg" viewBox="0 0 16 16"><style>.st0{fill:#f6f6f6}.st1{fill:#424242}.st2{fill:#00539c}.st3{fill:none}.st4{fill:#f0eff1}</style><path class="st0" d="M14.82 9H13V0H0v9h1.181L0 14.902V16h16v-1.1z" id="outline"/><g id="icon_x5F_bg"><path class="st1" d="M14 10h-2V1H8l.414 1H11v10H5V9H4v1H2l-1 5h14z"/><path class="st1" d="M9 5h1v1H9zM9 10h1v1H9zM9 3h1v1H9z"/><path class="st2" d="M4 1h1v2H4z"/><path class="st2" d="M8 3L6 1v3H3V1H1v7h7z"/></g><g id="icon_x5F_fg"><path class="st3" d="M9 10h1v1H9z"/><path class="st4" d="M6 1H5v2H4V1H3v3h3zM8.414 2L9 2.586V3h1v1H9v1h1v1H9v3H5v3h6V2H8.414zM10 11H9v-1h1v1z"/></g></svg>