<svg xmlns="http://www.w3.org/2000/svg" viewBox="0 0 16 16"><style>.icon-canvas-transparent{opacity:0;fill:#f6f6f6}.icon-vs-out{fill:#f6f6f6}.icon-vs-bg{fill:#424242}.icon-vs-fg{fill:#f0eff1}.icon-vs-red{fill:#e51400}.icon-white{fill:#fff}.st0{fill:none}</style><path class="icon-canvas-transparent" d="M16 16H0V0h16v16z" id="canvas"/><path class="icon-vs-out" d="M16 4v8.414l-.136.136a4.489 4.489 0 0 1-3.314 3.314l-.136.136H2v-4H0V3.586L3.586 0H14v4h2z" id="outline"/><g id="iconBg"><path class="st0" d="M4 14h7V9H4v5zm1-4h4v1H5v-1zm0 2h2v1H5v-1zM7 6v2h4.293l2-2zM6 6.414L4.414 8H6zM4 4V2.414L2.414 4zM12 9v4.586l2-2V6.707l-2 2z"/><path class="icon-vs-bg" d="M3 6.586V6h.586L3 6.586zM4.586 5H2v6H1V4l3-3h9v3h-1V2.707L10.707 4H9.293l2-2H5v2h.586l-1 1zM4 2.414L2.414 4H4V2.414zM7 12H5v1h2v-1zm1.703 3H3V8l3-3h9v3.703a4.527 4.527 0 0 0-1-.944V6.707l-.682.682a4.442 4.442 0 0 0-1.097-.317L13.293 6H7v2h1.703a4.5 4.5 0 0 0-.943 1H4v5h3.76a4.5 4.5 0 0 0 .943 1zM4.414 8H6V6.414L4.414 8zm2.862 2H5v1h2.05c.039-.347.112-.681.226-1z"/></g><path class="icon-vs-fg" d="M4 4H2.414L4 2.414V4zM2 5v2.586l1-1V6h.586l1-1H2zm10-1V2.707L10.707 4H12zM6 8V6.414L4.414 8H6zm1-2v2h4.293l2-2H7zm4.293-4H5v2h4.293l2-2zM7.76 14H4V9h3.76a4.466 4.466 0 0 0-.484 1H5v1h2.05c-.018.166-.05.329-.05.5 0 .925.281 1.785.76 2.5zM7 12H5v1h2v-1zm7-4.24V6.707l-.682.682c.238.106.468.227.682.371z" id="iconFg"/><path class="icon-vs-red" d="M11.5 8a3.5 3.5 0 1 0 0 7 3.5 3.5 0 0 0 0-7zm1.854 4.646l-.707.707-1.147-1.146-1.146 1.147-.707-.707 1.147-1.146-1.147-1.146.707-.707 1.146 1.147 1.146-1.147.707.707-1.146 1.145 1.147 1.146z" id="notificationBg"/><path class="icon-white" d="M12.207 11.5l1.147 1.146-.707.707-1.147-1.146-1.146 1.147-.707-.707 1.147-1.146-1.147-1.146.707-.707 1.146 1.147 1.146-1.147.707.707-1.146 1.145z" id="notificationFg"/></svg>