<svg xmlns="http://www.w3.org/2000/svg" viewBox="0 0 16 16"><style>.icon-canvas-transparent{opacity:0;fill:#f6f6f6}.icon-vs-out{fill:#f6f6f6}.icon-vs-bg{fill:#424242}</style><path class="icon-canvas-transparent" d="M16 16H0V0h16v16z" id="canvas"/><path class="icon-vs-out" d="M15 4.382v10.236L12.237 16h-.33L0 13.835V5.166l2-.364V4.5A4.005 4.005 0 0 1 5.736.509L5.598.386 8.43.515c1.556.071 2.8 1.024 3.315 2.515l.404-.073L15 4.382z" id="outline"/><path class="icon-vs-bg" d="M12 4l2 1v9l-2 1-11-2V6l11-2zm-2.108-.216l.983-.179c-.308-1.171-1.211-2.034-2.491-2.092.423.373.645.827.88 1.347.325.227.519.552.628.924zM4 4.856V4.5c0-1.103.897-2 2-2a2 2 0 0 1 1.963 1.635l.982-.179A3.001 3.001 0 0 0 6 1.5c-1.654 0-3 1.346-3 3v.538l1-.182z" id="iconBg"/></svg>