<svg xmlns="http://www.w3.org/2000/svg" viewBox="0 0 16 16"><style>.st0{opacity:0}.st0,.st1{fill:#f6f6f6}.st2{fill:#424242}</style><g id="outline"><path class="st0" d="M0 0h16v16H0z"/><path class="st1" d="M12.913 11.898c-.445 0-.858-.093-1.228-.275a2.766 2.766 0 0 1-.944-.774 2.928 2.928 0 0 1-.184-.259c-.459.926-1.2 1.286-1.87 1.286-.146 0-.334-.019-.541-.088l-3.318-.003a2.057 2.057 0 0 1-.678.113c-.328 0-.634-.066-.908-.196a2.02 2.02 0 0 1-.717-.58 2.29 2.29 0 0 1-.384-.77 2.99 2.99 0 0 1-.11-.998L2 9V7h.372V5.952l.354-.299c.107-.091.236-.175.393-.258.134-.072.281-.136.445-.194.154-.055.315-.101.486-.138.196-.042.391-.063.581-.063.384 0 .734.074 1.041.221.117.055.226.12.328.194V3h2.813v2c.348 0 1.288.118 1.815 1.309a2.882 2.882 0 0 1 1.164-1.025A2.94 2.94 0 0 1 13.083 5a2.91 2.91 0 0 1 1.153.237c.131.057.234.113.316.167L15 5.7v5.411l-.429.299a2.759 2.759 0 0 1-.72.353 3.03 3.03 0 0 1-.938.135z"/></g><path class="st2" d="M12.252 7.281a1.074 1.074 0 0 1 .861-.419c.172 0 .331.035.477.103.147.068.283.159.41.271v-.999a1.099 1.099 0 0 0-.159-.083A1.996 1.996 0 0 0 13.083 6a1.94 1.94 0 0 0-.856.185 1.848 1.848 0 0 0-.651.52 2.418 2.418 0 0 0-.413.81 3.015 3.015 0 0 0-.105.485H9.985c-.071-1.119-.435-2-1.172-2-.602 0-.887.5-1 .775V4H7v4H6v-.177c0-.288-.027-.545-.083-.77a1.655 1.655 0 0 0-.251-.572 1.083 1.083 0 0 0-.425-.358A1.404 1.404 0 0 0 4.631 6c-.12 0-.243.014-.37.041a2.837 2.837 0 0 0-.675.237 1.246 1.246 0 0 0-.214.138v.93c.159-.158.341-.284.546-.379.205-.094.415-.141.629-.141a.59.59 0 0 1 .496.226c.116.15.174.393.174.727l-1.032.187c-.038.006-.062.026-.098.034H3v1h.086a2.32 2.32 0 0 0-.06.513c0 .203.025.391.074.561a1.3 1.3 0 0 0 .216.438.997.997 0 0 0 .353.287c.14.066.3.1.48.1.23 0 .433-.064.607-.191.174-.131.321-.318.44-.567h.014v.645H6V9h1v1.787h.813v-.623c.179.36.458.711.875.711.729 0 1.162-.824 1.278-1.875h1.082c.022.173.055.339.103.495a2.2 2.2 0 0 0 .379.738c.164.211.363.373.598.492.233.115.494.172.785.172.239 0 .446-.027.622-.082.176-.059.33-.133.465-.227v-.942a1.329 1.329 0 0 1-.206.15c-.075.049-.151.09-.228.127a2.116 2.116 0 0 1-.236.08.92.92 0 0 1-.232.035c-.186 0-.353-.037-.499-.109a1.093 1.093 0 0 1-.376-.311 1.431 1.431 0 0 1-.235-.49c-.012-.038-.009-.088-.017-.128H14V8h-2.033c.014-.068.01-.151.028-.213.063-.2.149-.369.257-.506zM5.16 9.374a1.166 1.166 0 0 1-.166.359.838.838 0 0 1-.258.243.656.656 0 0 1-.337.09.57.57 0 0 1-.546-.399.824.824 0 0 1-.041-.266c0-.107.009-.201.027-.281.01-.046.035-.081.054-.12H5.21a1.655 1.655 0 0 1-.05.374zm2.653-1.489c.1-.599.352-1.026.648-1.026.315 0 .579.483.664 1.141H7.813v-.115zm.648 2.146c-.297 0-.549-.428-.648-1.026V9H9.11c-.099.602-.351 1.031-.649 1.031z" id="icon_x5F_bg"/></svg>