<svg xmlns="http://www.w3.org/2000/svg" viewBox="0 0 16 16"><style>.st0{opacity:0}.st0,.st1{fill:#f6f6f6}.st2{fill:#424242}</style><g id="outline"><path class="st0" d="M0 0h16v16H0z"/><path class="st1" d="M10 10v-.588c.028-.024.061-.042.088-.067a2.31 2.31 0 0 0 .487-.685c.052.086.098.18.157.259.25.335.563.6.927.787.372.192.792.29 1.249.29.138 0 .273-.009.436-.026.143-.02.279-.044.422-.08.137-.035.26-.078.438-.149.658-.26.796-.705.796-1.033V7h-2.222a1.593 1.593 0 0 1-.053-.437c0-.192.021-.356.06-.483.011-.034.021-.054.032-.08H15V1H1v3h1.58L.671 10H1v2h8.586L13 15.414l3-3V10h-6zm.96-6c-.03.034-.067.061-.097.097a3.161 3.161 0 0 0-.317.477c-.019-.072-.032-.146-.059-.215a1.976 1.976 0 0 0-.18-.359h.653zM6 5.712L5.453 4H6v1.712z"/></g><g id="icon_x5F_bg"><path class="st2" d="M2 2h12v1H2zM2 10h7v1H2zM10 11l3 3 3-3zM5.232 9l-.383-1.262H3.167L2.801 9h-.762L3.63 4h.773L6 9h-.768zM4.066 5.109l-.017-.084a2.54 2.54 0 0 1-.017-.099c-.005-.033-.008-.066-.011-.096l-.007-.073h-.018l-.007.074c-.004.03-.008.061-.014.091-.005.032-.012.064-.019.097a2.502 2.502 0 0 1-.021.09l-.569 1.914h1.277l-.577-1.914zM9.827 7.542c0 .233-.038.439-.114.62-.076.18-.181.332-.312.456a1.34 1.34 0 0 1-.463.284A1.623 1.623 0 0 1 8.374 9H7V4h1.327c.223 0 .416.031.58.092.164.063.299.145.406.25a.989.989 0 0 1 .237.366 1.334 1.334 0 0 1-.133 1.167 1.153 1.153 0 0 1-.545.433v.014c.147.023.278.069.397.134a1.042 1.042 0 0 1 .492.623c.045.139.066.294.066.463zM8.89 5.307c0-.197-.063-.351-.188-.458-.125-.109-.308-.162-.551-.162h-.454v1.384h.448c.236 0 .419-.066.549-.199.13-.133.196-.321.196-.565zm.199 2.214c0-.237-.073-.424-.219-.559-.145-.137-.36-.204-.645-.204h-.528v1.555h.589a.94.94 0 0 0 .354-.061.682.682 0 0 0 .399-.418.96.96 0 0 0 .05-.313zM13.781 8.833a2.293 2.293 0 0 1-.269.09 2.514 2.514 0 0 1-.605.073c-.297 0-.561-.06-.79-.178a1.672 1.672 0 0 1-.584-.497 2.269 2.269 0 0 1-.362-.756 3.517 3.517 0 0 1-.122-.953c0-.395.053-.75.156-1.07a2.51 2.51 0 0 1 .43-.81c.18-.224.395-.395.64-.516.247-.121.511-.18.794-.18.09 0 .18.006.272.014.091.012.179.025.263.041.083.018.154.038.227.06.069.024.169.048.169.076v.822c0-.096-.268-.17-.424-.225a1.455 1.455 0 0 0-.491-.083 1.21 1.21 0 0 0-.965.471 1.726 1.726 0 0 0-.289.57c-.07.227-.106.487-.106.781 0 .264.03.502.092.715.061.213.147.394.262.543a1.133 1.133 0 0 0 .936.468c.194 0 .369-.029.536-.088.169-.058.449-.141.449-.248v.756c0 .046-.135.087-.219.124z"/></g></svg>