<svg xmlns="http://www.w3.org/2000/svg" viewBox="0 0 16 16"><style>.st0{opacity:0}.st0,.st1{fill:#f6f6f6}.st2{fill:none}.st3{fill:#424242}.st4{fill:#f0eff1}</style><g id="outline"><path class="st0" d="M0 0h16v16H0z"/><path class="st1" d="M14.342 2.317A2.969 2.969 0 0 0 13.001 2c-.76 0-1.469.28-2.009.768l-.007-.066A2.992 2.992 0 0 0 8.879.133a2.993 2.993 0 0 0-3.184.947l-5 6a3.003 3.003 0 0 0 .385 4.225 2.997 2.997 0 0 0 4.225-.384l.422-.507.288 2.885a3.016 3.016 0 0 0 2.442 2.652c.183.033.364.049.544.049 1.143 0 2.17-.635 2.683-1.658l4-8a3.005 3.005 0 0 0-1.342-4.025z"/></g><g id="icon_x5F_bg"><path class="st2" d="M8 2h1v1H8zM7 3h1v1H7zM9 5h1v1H9zM11 5h1v1h-1zM6 4h1v1H6zM9 3h1v1H9zM2 8h1v1H2zM12 4h1v1h-1zM5 5h1v1H5zM3 9h1v1H3zM4 8h1v1H4zM4 6h1v1H4zM3 7h1v1H3zM8 4h1v1H8zM6 6h1v1H6zM10 6h1v1h-1zM9 7h1v1H9zM8 6h1v1H8zM9 11h1v1H9zM8 8h1v1H8zM9 9h1v1H9zM10 8h1v1h-1zM8 10h1v1H8zM11 7h1v1h-1zM7 5h1v1H7zM9 13h1v1H9zM12 8h1v1h-1zM10 10h1v1h-1zM8 12h1v1H8zM7 9h1v1H7zM7 11h1v1H7zM11 9h1v1h-1zM10 12h1v1h-1zM13 5h1v1h-1zM5 7h1v1H5zM12 6h1v1h-1zM7 7h1v1H7z"/><path class="st3" d="M3 8h1v1H3zM7 4h1v1H7zM9 12h1v1H9zM14 3.278V4h.731A1.986 1.986 0 0 0 14 3.278zM4 7h1v1H4zM8 5h1v1H8zM9 6h1v1H9zM14 5v1h.736l.053-.105c.144-.289.204-.594.203-.895H14zM13 3.007c-.352 0-.697.087-1 .262V4h1v-.993zM9 8h1v1H9zM8 3h1v1H8zM5 6h1v1H5zM5 9h.604L6 8.524V8H5zM13 4h1v1h-1zM8 14.727V14h-.706c.174.297.407.553.706.727zM7 13.102V13h-.01zM6.79 11l.1 1H7v-1zM9 15a2.01 2.01 0 0 0 1-.275V14H9v1zM12.236 11H12v.473zM13.236 9l.5-1H13v1zM14.236 7H14v.473zM11.236 13l.5-1H11v1zM6.59 9l.1 1H7V9zM6.464 1.72L6.23 2H7v-.718a1.969 1.969 0 0 0-.536.438zM5.397 3H6v-.724zM3.73 5H4v-.324zM4.563 4H5v-.523zM9 1.286a1.995 1.995 0 0 0-.414-.198A2.007 2.007 0 0 0 8 1v1h1v-.714zM1.72 10.537c.089.073.183.133.28.189V10h-.724c.115.197.258.382.444.537zM2.897 6H3v-.124zM3 10.99a1.99 1.99 0 0 0 1-.266V10H3v.99zM1.274 8c-.18.311-.265.655-.265 1H2V8h-.726zM10 7h1v1h-1zM11 6V5h-.236l-.461.923L10.21 5H10v1zM7 12h1v1H7zM7 2h1v1H7zM7 10h1v1H7zM5 4h1v1H5zM9 4h1v1H9zM10 3v1h.11l-.12-1.199A1.965 1.965 0 0 0 9.708 2H9v1h1zM8 13h1v1H8zM6 3h1v1H6zM2 9h1v1H2zM6 7v1h.437l.047-.057L6.49 8H7V7zM4 10h.77L5 9.724V9H4zM4 5h1v1H4zM3 6h1v1H3zM3 7h-.937L2 7.076V8h1zM7 8h1v1H7zM11 6h1v1h-1zM8 9h1v1H8zM12 10h.736L13 9.473V9h-1zM8 7h1v1H8zM8 11h1v1H8zM7 6h1v1H7zM12 7h1v1h-1zM6 5h1v1H6zM9 10h1v1H9zM11 10h1v1h-1zM12 5h1v1h-1zM13 6h1v1h-1zM10 14h.716c.023-.037.054-.066.073-.106l.211-.421V13h-1v1zM12 4h-.723c-.021.036-.048.067-.066.105L11 4.528V5h1V4zM10 11h1v1h-1zM10 9h1v1h-1zM11 8h1v1h-1z"/></g><path class="st4" d="M5 7h1v1H5V7zm8-1h1V5h-1v1zM3 8H2v1h1V8zm0 2h1V9H3v1zm1-1h1V8H4v1zm1-2V6H4v1h1zm3-3V3H7v1h1zm1-1V2H8v1h1zM6 6V5H5v1h1zm1-1V4H6v1h1zm1 4H7v1h1V9zm2 4h1v-1h-1v1zM6 6v1h1V6H6zm6 3h1V8h-1v1zm-3 5h1v-1H9v1zm3-8v1h1V6h-1zm-1 4h1V9h-1v1zm-1-6V3H9v1h1zM8 7H7v1h1V7zm1 5H8v1h1v-1zm-1-1H7v1h1v-1zM4 8V7H3v1h1zm10.722-4.012zm.269 1.017zm-.189.854zM13 5V4h-1v1h1zM9 5V4H8v1h1zm3 0h-1v1h1V5zm-2.022 9.734zM9.712 2.008zm4.292 1.272zm-1.49-.212zM10 8V7H9v1h1zm-1 4h1v-1H9v1zm1-3h1V8h-1v1zM9 9v1h1V9H9zm2-1h1V7h-1v1zM7 5v1h1V5H7zm4 2V6h-1v1h1zM9 6h1V5H9v1zm0 0H8v1h1V6zm0 2H8v1h1V8zm0 2H8v1h1v-1zm1 0v1h1v-1h-1zm-8 0V9h-.991c0-.345.085-.689.266-1H2v-.924L2.063 7H3V6h-.103L3 5.876V6h1V5h-.27L4 4.676V5h1V4h-.437L5 3.477V4h1V3h-.603L6 2.276V3h1V2h-.77l.233-.28.011-.011c-.002.004-.008.007-.011.011l-5 6a1.996 1.996 0 0 0 .008 2.563A2.064 2.064 0 0 1 1.276 10H2zm11-.529L13.235 9H13v.471zM12 11h.235l.5-1H12v1zM7 2h1V1c.146 0 .291.033.437.065a1.973 1.973 0 0 0-1.631.349c.063-.045.127-.092.194-.132V2zm7 5h.235l.5-1H14v1zM9.707 2A1.975 1.975 0 0 0 9 1.286V2h.707zM13 7v1h.735L14 7.471V7h-1zm-9 3.723a1.97 1.97 0 0 0 .535-.442L4.769 10H4v.723zM10 5h.209l-.1-1H10v1zm-2 9v.727A1.985 1.985 0 0 1 7.294 14H8v-1H7v.102L6.99 13H7v-1h-.11l-.1-1H7v-1h-.31l-.1-1H7V8h-.51l-.006-.057-.001.001.525 5.255A2.001 2.001 0 0 0 9 15v-1H8zm3-3v1h.735l.265-.529V11h-1zM6 8.523L6.436 8H6v.523zm5 4.948l.235-.471H11v.471zm-1 1.254c.294-.17.537-.42.715-.725H10v.725zM3 10H2v.726a1.965 1.965 0 0 1-.28-.189 1.902 1.902 0 0 1-.199-.203c.063.07.124.141.198.203a1.995 1.995 0 0 0 2.277.189A1.993 1.993 0 0 1 3 10.99V10zm7.764-5H11v-.472l.211-.422c.018-.039.046-.07.066-.106H12v-.731a1.992 1.992 0 0 0-.79.836l-.907 1.816v.001L10.764 5zM5 9.723L5.603 9H5v.723zM14 4v-.722c-.036-.021-.068-.048-.106-.067A1.983 1.983 0 0 0 13 3.007V4h1zm0 1h.991c0-.352-.087-.697-.262-1H14v1zm-4.022 9.734c.007-.004.016-.006.022-.01-.007.005-.016.007-.022.01zM6.436 8l.048-.056v-.001L6.436 8zm4.8 5l.5-1h-.001l-.499 1zm3.552-7.105L14.735 6h.001l.052-.105c.007-.011.008-.023.014-.035-.006.011-.008.023-.014.035zM12 11.473l.236-.473h-.001l-.235.471v.002zM12.736 10L13 9.473v-.002l-.264.529zm.5-1l.5-1h-.001l-.499 1zm-2.521 5h.001c.023-.037.054-.066.073-.106l.211-.421v-.002l-.212.424c-.019.039-.051.068-.073.105zM14 7.473L14.236 7h-.001L14 7.471v.002zm-1.486-4.405l-.052.012.052-.012zm1.486.21l.004.002L14 3.278zM4 10.725v-.002l-.004.003.004-.001zM4.77 10L5 9.724v-.001L4.77 10zM13 3.007l-.008.001.008-.001zM6.475 1.709zm-5.004 8.574c.015.018.034.033.05.051-.016-.018-.036-.032-.05-.051zM5.604 9L6 8.524v-.001L5.604 9zm8.782-5.429l.053.05-.053-.05zM9.001 15zm5.991-10l-.001.005.001-.005zm-.261-1c-.003-.004-.007-.007-.009-.012l.007.012h.002zm.218 1.413l-.009.051.009-.051zM9.708 2a.03.03 0 0 0 .004.008L9.708 2zM9 1.286a1.995 1.995 0 0 0-.414-.198c-.05-.015-.1-.011-.149-.022.049.011.1.007.148.022.15.046.283.121.415.198zm1.303 4.636L10.21 5h-.001l.093.923.001-.001zM10.109 4h.001l-.12-1.199a1.768 1.768 0 0 0-.001 0L10.109 4z" id="icon_x5F_fg"/></svg>