<svg xmlns="http://www.w3.org/2000/svg" viewBox="0 0 16 16"><style>.st0{fill:#f6f6f6}.st1{fill:#424242}.st2{fill:none}.st3{fill:#f0eff1}</style><path class="st0" d="M16 0H1v4.058C.383 4.689 0 5.55 0 6.5c0 .952.381 1.827 1 2.473V13h1v3h3v-1h2v-2h9V0z" id="outline"/><g id="icon_x5F_bg"><path class="st1" d="M4 9c1.141-.231 2-1.291 2-2.5a2.5 2.5 0 1 0-5 0c0 1.209.859 2.269 2 2.5v6h1v-1h2v-1H4v-1h2v-1H4V9zm-.5-1a1.5 1.5 0 1 1 .001-3.001A1.5 1.5 0 0 1 3.5 8zM4 3.051V3h-.5c.171 0 .335.027.5.051z"/><path class="st1" d="M2 1v2.351A3.468 3.468 0 0 1 3.5 3H3V2h1v1h1V2h1v1h1V2h1v1h1V2h1v1h1V2h1v1h1V2h1v1h-1v1h1v1h-1v1h1v1h-1v1h1v1h-1v1h1v1h-1v-1h-1v1h-1v-1h-1v1H9v-1H8v1H7v1h8V1H2z"/><path class="st1" d="M5.942 4c.293.286.528.626.707 1H12V4H5.942zM6.949 6c.024.165.051.329.051.5a3.6 3.6 0 0 1-.036.5H11V6H6.949z"/></g><g id="icon_x5F_fg"><path class="st2" d="M3 2h1v1H3zM13 2h1v1h-1z"/><path class="st2" d="M3 2h1v1H3zM13 2h1v1h-1z"/><path class="st3" d="M13 2h1v1h-1zM3 2h1v1H3zM13 10h1v1h-1z"/><path class="st3" d="M14 5V4h-1V3h-1V2h-1v1h-1V2H9v1H8V2H7v1H6V2H5v1H4v.051A3.485 3.485 0 0 1 5.942 4H12v1H6.649c.149.312.25.646.3 1H11v1H6.964A3.56 3.56 0 0 1 5 9.711V10h2v1h1v-1h1v1h1v-1h1v1h1v-1h1V9h1V8h-1V7h1V6h-1V5h1z"/></g></svg>