<svg xmlns="http://www.w3.org/2000/svg" viewBox="0 0 16 16"><style>.st0{opacity:0}.st0,.st1{fill:#f6f6f6}.st2{display:none;fill:#f0eff1}.st3{fill:#424242}.st4{fill:#f0eff1}</style><g id="outline"><path class="st0" d="M0 0h16v16H0z"/><path class="st1" d="M4 15c-.97 0-2-.701-2-2V3c0-1.299 1.03-2 2-2h6.061L14 4.556V13c0 .97-.701 2-2 2H4z"/></g><g id="icon_x5F_bg"><path class="st2" d="M4 3h5v2h3v8H4z"/><path class="st3" d="M9.64 2H3.964S3 2 3 3v10c0 1 .964 1 .964 1h8c1 0 1.036-1 1.036-1V5L9.64 2zM12 13H4V3h5v3h3v7z"/><path class="st3" d="M5 4h1v1H5zM5 6h1v1H5zM5 8h1v1H5zM9.705 7l-5.27 5h1.407l1.186-1h3v1H11V7H9.705zm.323 3h-2.06l2.062-2-.002 2z"/></g><g id="icon_x5F_fg"><path class="st4" d="M10.028 10l.001-2-2.061 2z"/><path class="st4" d="M9 6V3H4v10h8V6H9zM5 4h1v1H5V4zm0 2h1v1H5V6zm0 2h1v1H5V8zm6 4h-.972v-1h-3l-1.186 1H4.436l5.27-5H11v5z"/></g></svg>