<svg xmlns="http://www.w3.org/2000/svg" width="16" height="16"><style type="text/css">.icon-canvas-transparent{opacity:0;fill:#F6F6F6;} .icon-vs-bg{fill:#424242;} .icon-vs-fg{fill:#F0EFF1;} .icon-css-red{fill:#BD1E2D;} .icon-vs-out{fill:#F6F6F6;}</style><path class="icon-canvas-transparent" d="M16 16h-16v-16h16v16z" id="canvas"/><path class="icon-vs-out" d="M16 3.556v8.444c0 .97-.701 2-2 2h-2c0 .97-.701 2-2 2h-8c-.97 0-2-.701-2-2v-10c0-1.299 1.03-2 2-2h2c0-1.299 1.03-2 2-2h6.061l3.939 3.556z" id="outline"/><path class="icon-vs-bg" d="M15 4v8s-.035 1-1.035 1h-1.965v-1h2v-7h-2.616l-.384-.347v-2.653h-6c0-1 .964-1 .964-1h5.676l3.36 3zm-4 2v8s-.035 1-1.035 1h-8s-.965 0-.965-1v-10c0-1 .964-1 .964-1h5.676l3.36 3zm-1 1h-3v-3h-5v10h8v-7zm-6-2h-1v1h1v-1zm0 2h-1v1h1v-1zm0 2h-1v1h1v-1z" id="iconBg"/><path class="icon-css-red" d="M13 6v5h-1v-5h1zm-5.295 2l-5.27 5h1.407l1.186-1h2.972v1h1v-5h-1.295zm.295 3h-2.032l2.032-2v2z" id="colorImportance"/><g id="iconFg"><path class="icon-vs-fg" d="M11 4.653l-2.94-2.653h2.94v2.653zm.384.347l.616.556v.444h1v5h-1v1h2v-7h-2.616zm-3.384 6v-2l-2.032 2h2.032zm-1-4v-3h-5v10h8v-7h-3zm-4-2h1v1h-1v-1zm0 2h1v1h-1v-1zm0 2h1v1h-1v-1zm6 4h-1v-1h-2.972l-1.186 1h-1.406l5.27-5h1.294v5z"/></g></svg>