<svg xmlns="http://www.w3.org/2000/svg" viewBox="0 0 16 16"><style>.icon-canvas-transparent{opacity:0;fill:#f6f6f6}.icon-vs-out{fill:#f6f6f6}.icon-vs-bg{fill:#424242}.icon-vs-blue{fill:#1ba1e2}</style><path class="icon-canvas-transparent" d="M16 16H0V0h16v16z" id="canvas"/><path class="icon-vs-out" d="M16 8h-5.612l1.666 5H13v3H0V3h5.279l.333-1H8V0h5v3h3v5z" id="outline"/><path class="icon-vs-bg" d="M12 1v3H9V1h3zm0 3v3h3V4h-3zM1 15h1v-1H1v1zm0-6h1V8H1v1zm0 2h1v-1H1v1zm0 2h1v-1H1v1zm0-6h1V6H1v1zm0-2h1V4H1v1zm2 10h1v-1H3v1zm2 0h1v-1H5v1zm2 0h1v-1H7v1zm2 0h1v-1H9v1zm2 0h1v-1h-1v1z" id="iconBg"/><path class="icon-vs-blue" d="M7.667 3H6.333L3 13h1.5l.667-2h3.667l.666 2H11L7.667 3zm-2 6.5L7 5.5l1.333 4H5.667z" id="colorAction"/></svg>