<svg xmlns="http://www.w3.org/2000/svg" viewBox="0 0 16 16"><style>.st0{fill:#f6f6f6}.st1{fill:#f0eff1}.st2{fill:#424242}</style><g id="outline"><path class="st0" d="M0 0v12h.007c-.001.042-.007.083-.007.126 0 .567.1 1.095.297 1.566.199.481.487.902.854 1.25.245.232.537.418.85.58V16h14V0H0z"/><path class="st1" d="M5.361 14.583l.212-.412v-.644l.677-.472s.361-.667.361-.75c0-.083-.167-1.555-.167-1.639 0-.084-1.5-2.25-3.75-1.111s-1.306 5.388 1.222 5.222c.917-.166 1.445-.194 1.445-.194z"/></g><g id="icon_x5F_bg"><path class="st2" d="M3 3h4v1H3zM11 3h1v1h-1zM7 6h1v3H7zM3 5h2v1H3zM11 7h2v6h-2z"/><path class="st2" d="M1 1v8.365c.04-.045.074-.094.115-.138.244-.257.524-.479.833-.662L2 8.54V2h7v8H7.624c.014.027.034.05.048.078.136.289.215.601.266.922H10V1H1z"/><path class="st2" d="M11 1v1h3v12H7.041a2.488 2.488 0 0 1-.467.352V15H15V1h-4zM5.548 8.235c.159.054.305.129.452.2V7H5v1.098c.187.038.372.077.548.137z"/><path class="st2" d="M8 12h2v1H8zM6.771 10.511a2.433 2.433 0 0 0-.627-.816 2.76 2.76 0 0 0-.922-.514A3.43 3.43 0 0 0 4.096 9a3.34 3.34 0 0 0-.884.111 3.113 3.113 0 0 0-.756.316 2.865 2.865 0 0 0-1.072 1.121A3.35 3.35 0 0 0 1 12.126c0 .434.073.83.221 1.184.146.354.354.656.619.908s.581.443.944.58a3.45 3.45 0 0 0 1.204.201 5.441 5.441 0 0 0 .992-.084 2.698 2.698 0 0 0 .593-.176v-.568c-.098.041-.201.084-.309.121a3.015 3.015 0 0 1-.75.155c-.143.018-.3.023-.468.023a2.72 2.72 0 0 1-1.005-.176 2.17 2.17 0 0 1-.751-.488c-.205-.209-.362-.457-.471-.748s-.162-.609-.162-.955c0-.363.06-.701.182-1.016a2.384 2.384 0 0 1 1.276-1.359c.297-.131.623-.195.971-.195.28 0 .531.029.75.09.218.061.412.145.579.246.17.105.311.227.429.365.119.139.216.287.292.443.075.158.129.321.164.488.033.17.051.334.051.494 0 .229-.022.436-.068.617a1.727 1.727 0 0 1-.179.463.86.86 0 0 1-.257.289.532.532 0 0 1-.303.1.349.349 0 0 1-.143-.031.241.241 0 0 1-.11-.103.598.598 0 0 1-.072-.203 1.717 1.717 0 0 1-.026-.328c0-.043.006-.113.012-.217.006-.101.018-.221.027-.354l.037-.43c.012-.15.025-.295.038-.432l.032-.363a5.08 5.08 0 0 0 .018-.231h-.613l-.036.4h-.013a.54.54 0 0 0-.092-.188.638.638 0 0 0-.154-.143.823.823 0 0 0-.206-.094.926.926 0 0 0-.246-.031c-.224 0-.431.047-.615.144a1.438 1.438 0 0 0-.48.399 1.89 1.89 0 0 0-.311.603 2.42 2.42 0 0 0-.112.756c0 .229.029.43.089.602s.141.314.24.43c.103.115.22.201.356.256a1.074 1.074 0 0 0 .76.031.96.96 0 0 0 .287-.154c.09-.07.166-.154.232-.254.067-.1.12-.215.158-.346h.016c0 .25.068.449.207.594.137.146.333.221.591.221.053 0 .105-.012.158-.017.141-.018.28-.05.417-.115.189-.088.358-.219.509-.391.147-.174.27-.389.362-.643.092-.259.139-.556.139-.895 0-.405-.078-.768-.229-1.09zM4.564 12.21c-.036.186-.09.344-.163.479a.943.943 0 0 1-.272.322.645.645 0 0 1-.381.117.556.556 0 0 1-.422-.207.775.775 0 0 1-.132-.26 1.318 1.318 0 0 1-.048-.365c0-.158.019-.32.054-.486a1.72 1.72 0 0 1 .167-.451 1.06 1.06 0 0 1 .277-.328.621.621 0 0 1 .388-.127.526.526 0 0 1 .414.172.575.575 0 0 1 .125.221.973.973 0 0 1 .047.32c-.001.21-.019.409-.054.593z"/></g><g id="icon_x5F_fg"><path class="st1" d="M2 2v6.54c.292-.166.609-.3.949-.393.016-.005.034-.006.051-.011V8h1v.006c.032-.001.063-.006.096-.006.312 0 .612.04.904.098V7h1v1.435c.284.138.555.296.792.498.346.294.621.656.832 1.067H9V2H2zm3 4H3V5h2v1zM3 4V3h4v1H3zm5 5H7V6h1v3z"/><path class="st1" d="M11 2v1h1v1h-1v3h2v6h-2v-1h-1v1H8v-1h-.03a3.422 3.422 0 0 1-.167.83 3.092 3.092 0 0 1-.541.954c-.07.08-.146.147-.221.216H14V2h-3z"/></g></svg>