<svg xmlns="http://www.w3.org/2000/svg" viewBox="0 0 16 16"><style>.st0{fill:#f6f6f6}.st1{fill:#424242}</style><path class="st0" d="M0 11.289l2.586 2.586h.242L7 9.703l3 3V16h6v-2.835h-1.211c.071-.073.139-.144.201-.215.217-.245.4-.487.545-.723.162-.266.281-.532.352-.79a2.884 2.884 0 0 0-.073-1.813 2.379 2.379 0 0 0-.612-.894 2.706 2.706 0 0 0-.936-.548A3.547 3.547 0 0 0 13.101 8a4.16 4.16 0 0 0-.72.063 4.868 4.868 0 0 0-.635.159c-.151.05-.279.107-.407.163l-1.511-1.51L14 2.703v-.242L11.539 0h-.492L7 4.047 2.953 0h-.492L0 2.461v.242l4.172 4.172L0 11.047v.242z" id="outline"/><g id="icon_x5F_bg"><path class="st1" d="M10 9.2l.446-.293-2.032-2.032 4.293-4.293-1.414-1.414L7 5.461 2.707 1.168 1.293 2.582l4.293 4.293-4.293 4.293 1.414 1.414L7 8.289l3 3zM11 15v-.782l1.847-1.703c.241-.223.437-.417.585-.583.148-.165.263-.316.344-.452.082-.136.136-.263.164-.381.027-.118.041-.238.041-.362 0-.288-.092-.518-.275-.689-.183-.171-.446-.257-.793-.257-.142 0-.285.018-.432.052a2.438 2.438 0 0 0-.425.142 2.786 2.786 0 0 0-.743.474v-.928a1.95 1.95 0 0 1 .318-.188 3.631 3.631 0 0 1 .928-.297A3.25 3.25 0 0 1 13.101 9c.316 0 .594.042.832.126.238.083.436.198.595.343.158.146.276.318.354.519.079.2.118.416.118.646 0 .179-.024.356-.074.531a2.17 2.17 0 0 1-.244.541c-.113.184-.26.378-.439.58-.18.201-.401.418-.663.648l-1.372 1.214v.017H15V15h-4z"/></g></svg>