<svg xmlns="http://www.w3.org/2000/svg" viewBox="0 0 16 16"><style>.st0{opacity:0}.st0,.st1{fill:#f6f6f6}.st2{fill:#424242}.st3{fill:#f0eff1}</style><g id="outline"><path class="st0" d="M0 0h16v16H0z"/><path class="st1" d="M16 15H0V0h16v15z"/></g><g id="icon_x5F_bg"><path class="st2" d="M4 5h1v1H4zM13 12v-1h-1.081A3.45 3.45 0 0 0 13 8.5a3.49 3.49 0 0 0-3-3.45v1c1.14.232 2 1.242 2 2.449 0 .814-.396 1.531-1 1.988V9h-1v3h3zM9 11.949v-1A2.502 2.502 0 0 1 7 8.5a2.49 2.49 0 0 1 1-1.988V8h1V5H6v1h1.081A3.444 3.444 0 0 0 6 8.5a3.489 3.489 0 0 0 3 3.449zM4 7h1v1H4z"/><path class="st2" d="M1 1v13h14V1H1zm13 12H2V4h12v9z"/><path class="st2" d="M4 11h1v1H4zM4 9h1v1H4z"/></g><path class="st3" d="M2 4v9h12V4H2zm3 8H4v-1h1v1zm0-2H4V9h1v1zm0-2H4V7h1v1zm0-2H4V5h1v1zm4-.95V8H8V6.512A2.49 2.49 0 0 0 7 8.5c0 1.208.86 2.217 2 2.449v1A3.489 3.489 0 0 1 6 8.5c0-.989.42-1.868 1.081-2.5H6V5h3v.05zM13 11v1h-3V9h1v1.488c.604-.457 1-1.174 1-1.988 0-1.207-.86-2.217-2-2.449v-1a3.49 3.49 0 0 1 3 3.45 3.45 3.45 0 0 1-1.081 2.5H13z" id="icon_x5F_fg"/></svg>