<svg xmlns="http://www.w3.org/2000/svg" viewBox="0 0 16 16"><style>.st0{opacity:0}.st0,.st1{fill:#f6f6f6}.st2{fill:#424242}.st3{fill:#00539c}.st4{fill:#f0eff1}</style><g id="outline"><path class="st0" d="M0 0h16v16H0z"/><path class="st1" d="M9 3c-.341 0-.674.035-1 .09V1H0v4h4.541A5.965 5.965 0 0 0 3 9c0 3.309 2.691 6 6 6s6-2.691 6-6-2.691-6-6-6z"/></g><path class="st2" d="M9 4c-.343 0-.677.035-1 .101V5H6.027A4.976 4.976 0 0 0 4 9a5 5 0 0 0 5 5 5 5 0 0 0 5-5 5 5 0 0 0-5-5zm-1 6a2 2 0 1 1 .001-4.001A2 2 0 0 1 8 10z" id="icon_x5F_bg"/><path class="st3" d="M7 4H1V2h6v2z" id="color_x5F_action"/><circle class="st4" cx="8" cy="8" r="2" id="icon_x5F_fg"/></svg>