<svg xmlns="http://www.w3.org/2000/svg" viewBox="0 0 16 16"><style>.st0{fill:#f6f6f6}.st1{fill:#424242}.st2{fill:#00539c}.st3{fill:#f0eff1}</style><path class="st0" d="M16 6c0-3.309-2.691-6-6-6a5.97 5.97 0 0 0-3.31 1H0v4h4.09c-.055.326-.09.659-.09 1 0 .325.033.641.083.952-.311.31-.601.696-.875 1.183l-.709-.01-.736 2.521h.664l-.646 2.452a1.653 1.653 0 0 0-.24-.017c-.515 0-.858.207-1.055.381A1.407 1.407 0 0 0 0 14.523c0 .439.2.838.561 1.119.299.238.697.358 1.182.358.603 0 1.149-.159 1.625-.472.448-.294.835-.732 1.153-1.311.084-.154.166-.331.248-.53.073.152.173.289.296.408a1.49 1.49 0 0 0 1.066.411c.294 0 .577-.061.849-.186.243-.113.49-.302.775-.587.03-.03.067-.067.108-.111.16.253.353.453.573.597.291.191.637.288 1.026.288.395 0 .776-.126 1.122-.364.37-.248.718-.631 1.063-1.168l.353-.551v-.463l-.35-.197C14.158 11.045 16 8.736 16 6zm-9.345 5.609a1.544 1.544 0 0 0-.506-.087c-.279 0-.54.067-.768.196l.2-.768.821-.16c.166.125.338.241.517.349l.037.118a13.47 13.47 0 0 1-.301.352z" id="outline"/><g id="icon_x5F_bg"><path class="st1" d="M5.028 9.135c.186-.739.432-1.279.739-1.619.186-.213.367-.318.545-.318a.13.13 0 0 1 .087.029.103.103 0 0 1 .035.08c0 .028-.025.084-.076.166a.46.46 0 0 0-.074.231c0 .103.039.19.117.263a.423.423 0 0 0 .297.109.429.429 0 0 0 .323-.135.487.487 0 0 0 .132-.359.513.513 0 0 0-.196-.42C6.826 7.054 6.616 7 6.329 7c-.45 0-.858.128-1.224.385-.367.256-.714.68-1.044 1.273-.115.203-.223.335-.325.393-.103.059-.266.087-.49.084l-.149.511h.627l-.919 3.496c-.152.574-.257.928-.312 1.061a1.268 1.268 0 0 1-.355.499.331.331 0 0 1-.229.085.1.1 0 0 1-.064-.023l-.022-.03c0-.015.022-.044.068-.089.045-.045.068-.115.068-.207a.332.332 0 0 0-.109-.254c-.071-.068-.175-.102-.309-.102a.57.57 0 0 0-.394.132.4.4 0 0 0-.147.309c0 .129.06.24.181.335.119.095.306.142.562.142.404 0 .764-.102 1.077-.309.314-.205.587-.523.822-.95.232-.429.474-1.12.72-2.075l.527-2.02h.634l.158-.512h-.653zM6.329 6c.504 0 .909.128 1.218.367A1.988 1.988 0 0 1 7 5H5.101A4.988 4.988 0 0 0 5 6c0 .098.023.189.029.285A3.086 3.086 0 0 1 6.329 6zM10 1c-.712 0-1.387.154-2 .422v1.855A1.977 1.977 0 0 1 9 3a2 2 0 0 1 0 4 1.98 1.98 0 0 1-1.252-.452c.257.278.406.636.406 1.034 0 .166-.022.315-.061.446h.747l.343.519a1.892 1.892 0 0 1 1.304-.519c.55 0 .895.23 1.089.424.19.188.424.529.424 1.062 0 .408-.146.772-.423 1.049-.124.125-.269.22-.427.291A4.992 4.992 0 0 0 15 6a5 5 0 0 0-5-5z"/><path class="st1" d="M10.486 9.028a.88.88 0 0 0-.416.103c-.13.068-.296.217-.497.443-.149.17-.372.465-.666.889-.117-.521-.317-1-.605-1.435H6.391v.746c.117-.022.527-.353.607-.353.157 0 .285.066.388.197.162.204.388.824.676 1.862-.226.295-.653.79-.737.88-.138.146-.253.24-.342.283a.484.484 0 0 1-.234.054c-.065 0-.175-.034-.324-.106a.694.694 0 0 0-.274-.069.522.522 0 0 0-.379.146.482.482 0 0 0-.147.367c0 .139.045.252.138.342.09.086.215.13.371.13.149 0 .291-.03.423-.091.132-.063.297-.192.497-.393.2-.199.748-.818 1.099-1.253.135.413.396 1.019.494 1.206.099.187.212.322.34.406a.868.868 0 0 0 .479.124.982.982 0 0 0 .566-.196c.252-.168.511-.461.775-.875l-.161-.091c-.182.243-.315.398-.401.459a.36.36 0 0 1-.204.058c-.092 0-.184-.058-.274-.173-.153-.191-.499-1.026-.754-1.901.228-.392.42-.646.575-.766a.584.584 0 0 1 .361-.131c.047 0 .135.016.258.049.126.033.235.051.331.051a.453.453 0 0 0 .332-.133.47.47 0 0 0 .13-.343.471.471 0 0 0-.132-.354c-.088-.089-.216-.132-.382-.132z"/></g><path class="st2" d="M7 4H1V2h6v2z" id="color_x5F_action"/><path class="st3" d="M9 3c-.366 0-.705.105-1 .277V5H7a2 2 0 1 0 2-2z" id="icon_x5F_fg"/></svg>