<svg xmlns="http://www.w3.org/2000/svg" viewBox="0 0 16 16"><style>.st0{opacity:0}.st0,.st1{fill:#f6f6f6}.st2{fill:#424242}.st3{fill:#f0eff1}</style><g id="outline"><path class="st0" d="M0 0h16v16H0z"/><path class="st1" d="M12.061 0H6c-.97 0-2 .701-2 2v3.212A5.499 5.499 0 1 0 9.742 14H14c1.299 0 2-1.03 2-2V3.556L12.061 0z"/></g><g id="icon_x5F_bg"><path class="st2" d="M7 4h3v1H7zM8.656 6c.405.285.772.619 1.087 1H13V6H8.656zM10.394 8c.162.316.294.651.393 1H13V8h-2.606zM10.975 10c.014.165.025.331.025.5s-.011.335-.025.5H13v-1h-2.025zM5.5 6a4.5 4.5 0 1 0 0 9 4.5 4.5 0 0 0 0-9zm0 8C3.57 14 2 12.43 2 10.5c0-1.391.822-2.585 2-3.149V11s.07 2 2.07 2h1.871c-.63.616-1.491 1-2.441 1zm.5-3V7.051c.758.11 1.43.47 1.951.982H7V10h1.953c.025.164.047.329.047.5s-.027.335-.051.5H6z"/><path class="st2" d="M11.641 1H5.964S5 1 5 2v3h1V2h5v3h3v7h-3.213a5.484 5.484 0 0 1-.393 1h3.57c1 0 1.035-1 1.035-1V4l-3.358-3z"/></g><g id="icon_x5F_fg"><path class="st3" d="M7 10V8.033h.951A3.502 3.502 0 0 0 6 7.051V11h2.949c.024-.165.051-.329.051-.5s-.022-.336-.047-.5H7zM11 5V2H6v3.025A5.465 5.465 0 0 1 8.656 6H13v1H9.743c.253.307.469.643.651 1H13v1h-2.213c.092.322.156.656.188 1H13v1h-2.025a5.403 5.403 0 0 1-.188 1H14V5h-3zm-1 0H7V4h3v1z"/><path class="st3" d="M3.963 11.016V7.367a3.495 3.495 0 0 0-2 3.149c0 1.93 1.57 3.5 3.5 3.5.95 0 1.81-.383 2.441-1H6.033c-1.999 0-2.07-2-2.07-2z"/></g></svg>