<svg xmlns="http://www.w3.org/2000/svg" viewBox="0 0 16 16"><style>.st0{fill:#f6f6f6}.st1{fill:#424242}</style><path class="st0" d="M14.99 4.95c.217-.245.4-.487.545-.723.162-.266.281-.532.352-.79a2.884 2.884 0 0 0-.073-1.813 2.379 2.379 0 0 0-.612-.894 2.706 2.706 0 0 0-.936-.548A3.547 3.547 0 0 0 13.101 0a4.16 4.16 0 0 0-.72.063 4.492 4.492 0 0 0-1.183.379 2.895 2.895 0 0 0-.487.291L10 1.2v1.972l-3 3L2.828 2h-.242L0 4.586v.242L4.172 9 0 13.172v.242L2.586 16h.242L7 11.828 11.172 16h.242L14 13.414v-.242L9.828 9l1-1H16V5.165h-1.211c.071-.073.139-.144.201-.215z" id="outline"/><g id="icon_x5F_bg"><path class="st1" d="M10 7.414V4.586l-3 3-4.293-4.293-1.414 1.414L5.586 9l-4.293 4.293 1.414 1.414L7 10.414l4.293 4.293 1.414-1.414L8.414 9zM11 7v-.782l1.847-1.703c.241-.223.437-.417.585-.583.148-.165.263-.316.344-.452.082-.136.136-.263.164-.381.027-.118.041-.238.041-.362 0-.288-.092-.518-.275-.689-.183-.171-.446-.257-.793-.257-.142 0-.285.018-.432.052a2.438 2.438 0 0 0-.425.142 2.891 2.891 0 0 0-.743.474v-.928a1.95 1.95 0 0 1 .318-.188 3.631 3.631 0 0 1 .928-.297A3.25 3.25 0 0 1 13.101 1c.316 0 .594.042.832.126.238.083.436.198.595.343.158.146.276.318.354.519.079.2.118.415.118.646 0 .179-.024.355-.074.531a2.187 2.187 0 0 1-.244.541c-.113.185-.26.378-.439.58-.18.201-.401.418-.663.648l-1.372 1.214v.017H15V7h-4z"/></g></svg>