<svg xmlns="http://www.w3.org/2000/svg" viewBox="0 0 16 16"><style>.st0{fill:#f6f6f6}.st1{fill:#424242}.st2{fill:#f0eff1}</style><path class="st0" d="M7.479 4l-4.09-4h-.838L0 2.612v.827l5 4.992V16h11V4z" id="outline"/><g id="icon_x5F_bg"><path transform="rotate(-45.001 6 6)" class="st1" d="M4.586 3.172h2.828v5.657H4.586z"/><path transform="rotate(-45.001 2.5 2.5)" class="st1" d="M1.086 1.793h2.828v1.414H1.086z"/><path class="st1" d="M10 10V8l-2 2zM12 10h1v3h-1zM10 11h1v2h-1zM8 12h1v1H8z"/><path class="st1" d="M8.501 5l1.022 1H14v8H7v-3.573l-1-.998V15h9V5z"/><path class="st1" d="M11 7.444V8h1V7h-1.454z"/></g><path class="st2" d="M9.523 6l1.022 1H12v1h-1v5h-1v-2H7.574L7 10.427V14h7V6H9.523zM9 13H8v-1h1v1zm4 0h-1v-3h1v3z" id="icon_x5F_fg"/></svg>