<svg xmlns="http://www.w3.org/2000/svg" width="16" height="16"><style type="text/css">.icon-canvas-transparent{opacity:0;fill:#F6F6F6;} .icon-vs-out{fill:#F6F6F6;} .icon-vs-bg{fill:#424242;} .icon-vs-fg{fill:#F0EFF1;}</style><path class="icon-canvas-transparent" d="M16 16h-16v-16h16v16z" id="canvas"/><path class="icon-vs-out" d="M16 3.556v8.444c0 .97-.701 2-2 2h-5v2h-9v-9h4v-5c0-1.299 1.03-2 2-2h6.061l3.939 3.556z" id="outline"/><path class="icon-vs-bg" d="M1 15h7v-7h-7v7zm1-6h5v5h-5v-5zm13-5v8s-.035 1-1.035 1h-4.965v-1h5v-7h-3v-3h-5v5h-1v-5c0-1 .964-1 .964-1h5.677l3.359 3zm-11 6h2v2l-1 1v-1.03l-1.269 1.059-.794-1.025 1.191-.959-1.128-.045 1-1z" id="iconBg"/><path class="icon-vs-fg" d="M14 5v7h-5v-5h-3v-5h5v3h3zm-7 4v5h-5v-5h5zm-1 1h-2l-1 1 1.128.044-1.191.959.794 1.025 1.269-1.058v1.03l1-1v-2z" id="iconFg"/></svg>