<svg xmlns="http://www.w3.org/2000/svg" viewBox="0 0 16 16"><style>.st0{fill:#f6f6f6}.st1{fill:#424242}.st2{fill:#f0eff1}.st3{fill:#e51400}.st4{fill:#fff}</style><path class="st0" d="M14.302 8.007A4.474 4.474 0 0 0 16 4.5C16 2.019 13.981 0 11.5 0a4.45 4.45 0 0 0-2.826 1H2.586L0 3.586v1.828L1.586 7h6.185c.256.382.583.706.942.995A.027.027 0 0 0 8.707 8H2.586L0 10.586v1.828L1.586 14h6.176a4.499 4.499 0 0 0 3.738 2c2.481 0 4.5-2.019 4.5-4.5 0-1.417-.671-2.667-1.698-3.493z" id="outline"/><g id="icon_x5F_bg"><path class="st1" d="M11.5 1c-1.394 0-2.587.82-3.15 2H8V2H7L6 3V2H5L4 3V2H3L1 4v1l1 1h6.35a3.547 3.547 0 0 0 1.252 1.434A4.453 4.453 0 0 1 11.5 7c.682 0 1.32.163 1.899.434A3.493 3.493 0 0 0 15 4.5 3.5 3.5 0 0 0 11.5 1zm.5 4a1 1 0 1 1 0-2 1 1 0 1 1 0 2zM7.05 11a4.476 4.476 0 0 1 .709-2H7l-1 1V9H5l-1 1V9H3l-2 2v1l1 1h5.275a4.472 4.472 0 0 1-.225-1H2v-1h5.05z"/></g><path class="st2" d="M7.05 11H2v1h5.05c-.018-.166-.05-.329-.05-.5s.032-.334.05-.5z" id="icon_x5F_fg"/><path class="st3" d="M11.5 8a3.5 3.5 0 1 0 0 7 3.5 3.5 0 0 0 0-7zm1.854 4.646l-.707.707-1.147-1.146-1.146 1.147-.707-.707 1.147-1.146-1.147-1.146.707-.707 1.146 1.147 1.146-1.147.707.707-1.146 1.145 1.147 1.146z" id="not_x5F_bg"/><path class="st4" d="M13.354 10.354l-.708-.708-1.146 1.147-1.146-1.147-.708.708 1.147 1.146-1.147 1.146.708.708 1.146-1.147 1.146 1.147.708-.708-1.147-1.146z" id="not_x5F_fg"/></svg>