<svg xmlns="http://www.w3.org/2000/svg" viewBox="0 0 16 16"><style>.st0{fill:#f6f6f6}.st1{fill:none}.st2{fill:#424242}.st3{fill:#f0eff1}</style><path class="st0" d="M14.293 8C15.325 7.175 16 5.921 16 4.5 16 2.019 13.981 0 11.5 0a4.453 4.453 0 0 0-2.826 1H2.586L0 3.586v1.828L1.586 7H7.77c.254.383.565.713.912.995L8.674 8H2.586L0 10.586v1.828L1.586 14H7.77a4.45 4.45 0 0 0 3.73 2c2.481 0 4.5-2.019 4.5-4.5 0-1.421-.675-2.675-1.707-3.5z" id="outline"/><g id="icon_x5F_bg"><path class="st1" d="M11.5 9c-1.21 0-2.218.859-2.449 2H2v1h7.051A2.499 2.499 0 0 0 14 11.5 2.5 2.5 0 0 0 11.5 9zm.5 3a1 1 0 1 1 0-2 1 1 0 1 1 0 2z"/><circle class="st1" cx="12" cy="4" r="1"/><path class="st2" d="M15 4.5A3.5 3.5 0 0 0 11.5 1c-1.394 0-2.587.82-3.15 2H8V2H7L6 3V2H5L4 3V2H3L1 4v1l1 1h6.35a3.49 3.49 0 0 0 3.15 2A3.5 3.5 0 0 0 15 4.5zM12 5a1 1 0 1 1 0-2 1 1 0 1 1 0 2zM11.5 8c-1.394 0-2.587.82-3.15 2H8V9H7l-1 1V9H5l-1 1V9H3l-2 2v1l1 1h6.35a3.49 3.49 0 0 0 3.15 2 3.5 3.5 0 1 0 0-7zm0 6a2.499 2.499 0 0 1-2.449-2H2v-1h7.051a2.499 2.499 0 0 1 4.949.5 2.5 2.5 0 0 1-2.5 2.5z"/><circle class="st2" cx="12" cy="11" r="1"/></g><path class="st3" d="M11.5 9c-1.21 0-2.218.859-2.449 2H2v1h7.051A2.499 2.499 0 0 0 14 11.5 2.5 2.5 0 0 0 11.5 9zm.5 3a1 1 0 1 1 0-2 1 1 0 1 1 0 2z" id="icon_x5F_fg"/></svg>