<svg xmlns="http://www.w3.org/2000/svg" viewBox="0 0 16 16"><style>.st0{fill:#f6f6f6}.st1{fill:#424242}.st2{fill:#f0eff1}.st3{fill:#fc0}</style><g id="outline"><path class="st0" d="M8.309 15.5l-1-2H1.793L.5 12.207v-1.414L2.793 8.5H8.85l.621-.497-.474-.396a4.014 4.014 0 0 1-.811-.884L8.038 6.5H1.793L.5 5.207V3.793L2.793 1.5h6.059l.138-.112A3.927 3.927 0 0 1 11.5.5c2.206 0 4 1.794 4 4 0 1.204-.554 2.337-1.519 3.109L13.492 8l.488.391c.966.771 1.52 1.905 1.52 3.109 0 .544-.109 1.073-.324 1.571l-.092.214.357.715-.75 1.5H8.309z"/><path class="st0" d="M11.5 1C13.43 1 15 2.57 15 4.5c0 1.051-.485 2.042-1.331 2.719L12.691 8l.977.781C14.515 9.458 15 10.448 15 11.5c0 .476-.096.938-.283 1.373l-.185.428.208.416.142.283-.5 1H8.618l-.724-1.447L7.618 13H2l-1-1v-1l2-2h6.024l.225-.179.005-.003.052-.042.969-.774-.962-.782a3.487 3.487 0 0 1-.71-.774L8.306 6H2L1 5V4l2-2h6.03l.275-.225A3.442 3.442 0 0 1 11.5 1m0-1a4.453 4.453 0 0 0-2.826 1H2.586L0 3.586v1.828L1.586 7H7.77c.254.383.565.713.912.995L8.674 8H2.586L0 10.586v1.828L1.586 14H7l1 2h7l1-2-.365-.731c.234-.542.365-1.14.365-1.769 0-1.421-.675-2.675-1.707-3.5C15.325 7.175 16 5.921 16 4.5 16 2.019 13.981 0 11.5 0z"/></g><g id="icon_x5F_bg"><path class="st1" d="M15 4.5A3.5 3.5 0 0 0 11.5 1c-1.394 0-2.587.82-3.15 2H8V2H7L6 3V2H5L4 3V2H3L1 4v1l1 1h6.35a3.524 3.524 0 0 0 1.792 1.717L10.5 7h2l.362.725A3.501 3.501 0 0 0 15 4.5zM12 5a1 1 0 1 1 0-2 1 1 0 1 1 0 2zM13.24 8.48l1.718 3.436c.017-.138.042-.273.042-.416a3.485 3.485 0 0 0-1.76-3.02zM8.35 10H8V9H7l-1 1V9H5l-1 1V9H3l-2 2v1l1 1h5.5l.5-1H2v-1h6.5l1.263-2.525A3.519 3.519 0 0 0 8.35 10z"/></g><path class="st2" d="M2 11v1h6l.5-1z" id="icon_x5F_fg"/><path class="st3" d="M11.891 8.016h-.781l-3.016 6 .515.984h5.766l.484-1-2.968-5.984zM12 14h-1v-1h1v1zm0-2h-1v-2h1v2z" id="not_x5F_bg"/><path d="M12 12h-1v-2h1v2zm0 1h-1v1h1v-1z" id="not_x5F_fg"/></svg>