<svg xmlns="http://www.w3.org/2000/svg" viewBox="0 0 16 16"><style>.st0{opacity:0}.st0,.st1{fill:#f6f6f6}.st2{fill:#424242}.st3{fill:#f0eff1}</style><g id="outline"><path class="st0" d="M0 0h16v16H0z"/><path class="st1" d="M10 2v.602L7.416 0h-4.83l2 2H0v3h4.586l-2 2h4.83L10 4.398V10H6.413l2.013-2H3.588L.064 11.5 3.588 15h4.838l-2.013-2H10v1h6V2z"/></g><g id="icon_x5F_bg"><path class="st2" d="M11 3v10h4V3h-4zm3 9h-2V4h2v8zM8 11h2v1H8zM5 11h2v1H5z"/><path class="st2" d="M6 9H4l-2.517 2.5L4 14h2l-2.517-2.5zM7 1H5l2 2H1v1h6L5 6h2l2.483-2.5z"/></g><path class="st3" d="M12 4h2v8h-2z" id="icon_x5F_fg"/></svg>