<svg xmlns="http://www.w3.org/2000/svg" width="16" height="16"><style type="text/css">.icon-canvas-transparent{opacity:0;fill:#F6F6F6;} .icon-vs-out{fill:#F6F6F6;} .icon-vs-bg{fill:#424242;}</style><path class="icon-canvas-transparent" d="M16 16h-16v-16h16v16z" id="canvas"/><path class="icon-vs-out" d="M15 11.414l-3.586 3.586h-3.414v-1.414l.586-.586h-5.586v-4h1.586l-3.586-3.586v-.828l3.586-3.586h3.414v1.414l-.586.586h5.586v4h-1.586l3.586 3.586v.828z" id="outline"/><path class="icon-vs-bg" d="M5 8l-3-3 3-3h2l-2 2h7v2h-7l2 2h-2zm6 0h-2l2 2h-7v2h7l-2 2h2l3-3-3-3z" id="iconBg"/></svg>