<svg xmlns="http://www.w3.org/2000/svg" viewBox="0 0 16 16"><style>.st0{fill:#f6f6f6}.st1{fill:#424242}</style><path class="st0" d="M-27.091 14.996C-30.404 14.695-33 11.842-33 8.5c0-1.289.382-2.488 1.031-3.5H-33V3.586L-30.414 1h5.462l.043.004C-21.596 1.305-19 4.158-19 7.5a6.462 6.462 0 0 1-1.031 3.5H-19v1.414L-21.586 15l-5.505-.004z" id="outline"/><g id="icon_x5F_bg"><path class="st1" d="M-30.363 8.5c0-1.602.975-3.152 2.363-3.738l-.002.238H-28v3l2-2V2h-4l-2 2h2.348A5.495 5.495 0 0 0-32 8.5c0 2.863 2.201 5.246 5 5.5v-1.669A3.863 3.863 0 0 1-30.363 8.5z"/><path class="st1" d="M-27 12.107V12c-.01-.002-.02-.006-.029-.007l.029.114zM-21.637 7.5c0 1.602-.975 3.152-2.363 3.738l.002-.238H-24V8l-2 2v4h4l2-2h-2.348A5.497 5.497 0 0 0-20 7.5c0-2.863-2.201-5.246-5-5.5v1.669A3.863 3.863 0 0 1-21.637 7.5z"/><path class="st0" d="M-3 8c0-2.811-2.027-5.472-4.82-5.983L-9 2h-3.914L-15 4.384V6h.715C-14.75 6-15 7.53-15 8.5c0 2.811 2.027 4.973 4.82 5.483L-9 14h3.914L-3 12.212V11h-.716C-3.251 10-3 8.969-3 8z"/><path class="st1" d="M-12.667 8.334c0-1.417.884-2.627 2.13-3.11L-10.5 8-9 6.5V3h-3.5L-14 4.5h1.848C-13.25 5.383-14 6.73-14 8.25c0 2.369 1.75 4.338 4 4.75v-1.414a3.325 3.325 0 0 1-2.667-3.252zM-5.333 7.666a3.336 3.336 0 0 1-2.13 3.11L-7.5 8-9 9.5V13h3.5l1.5-1.5h-1.848C-4.75 10.616-4 9.27-4 7.75-4 5.381-5.75 3.412-8 3v1.414a3.325 3.325 0 0 1 2.667 3.252z"/><path class="st0" d="M12.88 9h-.857c.18-.465.278-.966.278-1.45 0-1.885-1.33-3.117-2.838-3.536l-4.448.028L3.435 7h.544c-.181.465-.28.966-.28 1.45 0 1.884 1.561 3.15 3.066 3.57l3.716-.02 2.399-3z"/><path class="st1" d="M8 6.8V5H5.8l-.6 1h1.215c-.957 0-1.716 1.295-1.716 2.45C4.699 9.902 6 10.922 7 11.2v-.8c-1-.207-1.6-1.021-1.6-2 0-.979.6-1.793 1.6-2v1.2l1-.8zM11.301 7.55C11.301 6.098 10 5.078 9 4.8v.8c1 .207 1.601 1.021 1.601 2S10 9.393 9 9.6V8.4l-1 .8V11h2l.8-1H9.584c.958 0 1.717-1.295 1.717-2.45z"/></g></svg>