<svg xmlns="http://www.w3.org/2000/svg" viewBox="0 0 16 16"><style>.st0{opacity:0}.st0,.st1{fill:#f6f6f6}.st2{fill:#424242}.st3{fill:#00539c}.st4{fill:#f0eff1}</style><g id="outline"><path class="st0" d="M0 0h16v16H0z"/><path class="st1" d="M8 2V1H5l1-1H2.5L0 2.5l2 2V7h3L4 8h1v7h10V2z"/></g><path class="st2" d="M10 5.5l-.5.5H14V3H8v.5l2 2zM12 4h1v1h-1V4zM6 14h8v-3H6v3zm6-2h1v1h-1v-1zM6 8v2h8V7H8.5l-1 1H6zm6 0h1v1h-1V8z" id="icon_x5F_bg"/><g id="color_x5F_action"><path class="st3" d="M8.517 5.5L7 7H6l1-1H3V5h4L6 4h1zM4 4L3 3h4V2H3l1-1H3L1.517 2.5 3 4z"/></g><path class="st4" d="M13 5h-1V4h1v1zm0 3h-1v1h1V8zm0 4h-1v1h1v-1z" id="icon_x5F_fg"/></svg>