<svg xmlns="http://www.w3.org/2000/svg" viewBox="0 0 16 16"><style>.st0{opacity:0}.st0,.st1{fill:#f6f6f6}.st2{fill:#424242}.st3{fill:#00539c}.st4{fill:#f0eff1}</style><g id="outline"><path class="st0" d="M0 0h16v16H0z"/><path class="st1" d="M11.061 0H5c-.97 0-2 .701-2 2v6H2v2.583L.063 12.5 2.589 15h3.825l-1-1H13c1.299 0 2-1.03 2-2V3.556L11.061 0z"/></g><g id="icon_x5F_bg"><path class="st2" d="M11 6h1v1h-1zM11 8h1v1h-1zM9 6h1v1H9zM7 6h1v1H7zM5 6h1v1H5zM11 10h1v1h-1z"/><path class="st2" d="M10.641 1H4.964S4 1 4 2v5h1V2h5v3h3v7H8v1h4.965c1 0 1.035-1 1.035-1V4l-3.359-3z"/></g><g id="color_x5F_action"><path class="st3" d="M3 11h1l-1 1h4.001v1H3l1 1H3l-1.516-1.5zM7.001 11l1.482-1.5L7.001 8h-1l1 1H3v1h4.001l-1 1z"/></g><path class="st4" d="M10 5V2H5v4h1v1h1V6h1v1h-.582L9.89 9.5 8 11.412V12h5V5h-3zm0 2H9V6h1v1zm2 4h-1v-1h1v1zm0-2h-1V8h1v1zm0-2h-1V6h1v1z" id="icon_x5F_fg"/></svg>