<?xml version="1.0" encoding="iso-8859-1"?>
<!-- Generator: Adobe Illustrator 21.0.0, SVG Export Plug-In . SVG Version: 6.00 Build 0)  -->
<svg version="1.1" xmlns="http://www.w3.org/2000/svg" xmlns:xlink="http://www.w3.org/1999/xlink" x="0px" y="0px"
	 viewBox="0 0 16 16" style="enable-background:new 0 0 16 16;" xml:space="preserve">
<style type="text/css">
	.icon_x002D_canvas_x002D_transparent{opacity:0;fill:#F6F6F6;}
	.icon_x002D_vs_x002D_out{fill:#F6F6F6;}
	.icon_x002D_vs_x002D_fg{fill:#F0EFF1;}
	.icon_x002D_vs_x002D_blue{fill:#1BA1E2;}
	.icon_x002D_vs_x002D_action_x002D_blue{fill:#00539C;}
</style>
<g id="canvas">
	<path class="icon_x002D_canvas_x002D_transparent" d="M16,16H0V0h16V16z"/>
</g>
<g id="outline">
	<path class="icon_x002D_vs_x002D_out" d="M16,4v8c0,2.28-3.01,4-7,4c-3.99,0-7-1.72-7-4V7V4.5l-2-2L2.5,0H6L5.492,0.508
		C6.512,0.184,7.703,0,9,0C12.99,0,16,1.72,16,4z"/>
</g>
<g id="iconBg">
	<path class="icon_x002D_vs_x002D_blue" d="M15,4v8c0,1.657-2.686,3-6,3c-3.313,0-6-1.343-6-3V7h2L4,8h3.5l2.025-2.025
		C12.264,5.845,13.997,4.766,13.997,4c0-0.815-1.948-2-5-2C8.648,2,8.318,2.02,8,2.048V1.045C8.326,1.018,8.659,1,9,1
		C12.314,1,15,2.343,15,4z"/>
</g>
<g id="iconFg">
	<path class="icon_x002D_vs_x002D_fg" d="M13.997,4c0,0.766-1.733,1.845-4.472,1.975L10,5.5l-2-2V2.048C8.318,2.02,8.648,2,8.997,2
		C12.049,2,13.997,3.185,13.997,4z"/>
</g>
<g id="colorAction">
	<path class="icon_x002D_vs_x002D_action_x002D_blue" d="M3,4L1.517,2.5L3,1h1L3,2h4v1H3l1,1H3z M7,7l1.517-1.5L7,4H6l1,1H3v1h4L6,7
		H7z"/>
</g>
</svg>
