<svg xmlns="http://www.w3.org/2000/svg" width="16" height="16"><style type="text/css">.icon-canvas-transparent{opacity:0;fill:#F6F6F6;} .icon-vs-action-blue{fill:#00539C;} .icon-vs-out{fill:#F6F6F6;} .icon-vs-bg{fill:#424242;}</style><path class="icon-canvas-transparent" d="M16 16h-16v-16h16v16z" id="canvas"/><path class="icon-vs-out" d="M16 9v7h-9v-6h-2.995c-2.127-.263-4.005-2.218-4.005-4.323v-1.118c0-.432.261-.842.469-1.559h-.469v-1.326l1.79-1.674 4.205.016c2.036.155 3.348 1.657 3.814 3.437.503-.28 1.074-.453 1.691-.453 1.934 0 3.5 1.566 3.5 3.5 0 .98-.35 1.865-1 2.5h2z" id="outline"/><path class="icon-vs-bg" d="M15 10v5h-7v-5h2l1.5 2 1.5-2h2zm-5-5.425v.655c-.055.516-.229.942-.469 1.77h.469v1.326l-.093.086c.433.362.984.588 1.593.588 1.379 0 2.5-1.119 2.5-2.5 0-1.38-1.121-2.5-2.5-2.5-.569 0-1.087.198-1.508.518l.008.057z" id="iconBg"/><path class="icon-vs-action-blue" d="M7.522 8h1.478l-1.2 1h-2.8v-2.8l1.2-1.2.03 2.221c.997-.387 1.704-1.355 1.704-2.488 0-1.215-.821-2.223-1.934-2.543v-1.135c1.7.407 3 2.022 3 3.845 0 1.216-.6 2.1-1.478 3.1zm-5.456-2.733c0-1.134.707-2.102 1.704-2.488l.03 2.221 1.2-1.2v-2.8h-2.8l-1.2 1h1.478c-.878 1-1.478 1.884-1.478 3.1 0 1.823 1.3 3.438 3 3.845v-1.135c-1.113-.32-1.934-1.328-1.934-2.543z" id="colorAction"/></svg>