<svg xmlns="http://www.w3.org/2000/svg" viewBox="0 0 16 16"><style>.st0{fill:#f6f6f6}.st1{fill:#424242}.st2{fill:#f0eff1}.st3{fill:#e51400}.st4{fill:#fff}</style><path class="st0" d="M14.297 8H15V0H6v8H0v8h9v-.76a4.5 4.5 0 0 0 7-3.74c0-1.423-.673-2.675-1.703-3.5z" id="outline"/><g id="icon_x5F_bg"><path class="st1" d="M7 14H2v-3h5v.5c0-.926.281-1.785.76-2.5H1v6h7v-.703A4.462 4.462 0 0 1 7 11.5V14zM7 1v6h4v.05c.166-.018.329-.05.5-.05s.334.032.5.05V7h2V1H7zm6 5H8V3h5v3z"/></g><g id="icon_x5F_fg"><path class="st2" d="M8 3h5v3H8zM2 11h5v3H2z"/></g><path class="st3" d="M11.5 8a3.5 3.5 0 1 0 0 7 3.5 3.5 0 0 0 0-7zm1.854 4.646l-.707.707-1.147-1.146-1.146 1.147-.707-.707 1.147-1.146-1.147-1.146.707-.707 1.146 1.147 1.146-1.147.707.707-1.146 1.145 1.147 1.146z" id="not_x5F_bg"/><path class="st4" d="M13.354 10.354l-.708-.708-1.146 1.147-1.146-1.147-.708.708 1.147 1.146-1.147 1.146.708.708 1.146-1.147 1.146 1.147.708-.708-1.147-1.146z" id="not_x5F_fg"/></svg>