<svg xmlns="http://www.w3.org/2000/svg" viewBox="0 0 16 16"><style>.st0{fill:#f6f6f6}.st1{fill:#424242}.st2{fill:#f0eff1}.st3{fill:#fc0}</style><g id="outline"><path class="st0" d="M.5 15.5v-7h6v-8h8v7h-2.309l3.25 6.5-.75 1.5H.5zm8-3.382L10.809 7.5H8.5v4.618z"/><path class="st0" d="M14 1v6H8v7.236l1.895-3.789 1-2 .605-1.211.606 1.211L14.882 14l-.5 1H1V9h6V1h7m1-1H6v8H0v8h15l1-2-3-6h2V0zM9 10V8h1l-1 2z"/></g><g id="icon_x5F_bg"><path class="st1" d="M7 1v6h7V1H7zm6 5H8V3h5v3zM1 15h6.5L7 14H2v-3h5v3l1-2V9H1z"/></g><g id="icon_x5F_fg"><path class="st2" d="M2 11h5v3H2zM8 3h5v3H8z"/></g><path class="st3" d="M11.891 8.016h-.781l-3.016 6 .515.984h5.766l.484-1-2.968-5.984zM12 14h-1v-1h1v1zm0-2h-1v-2h1v2z" id="not_x5F_bg"/><path d="M12 12h-1v-2h1v2zm0 1h-1v1h1v-1z" id="not_x5F_fg"/></svg>