<svg xmlns="http://www.w3.org/2000/svg" viewBox="0 0 16 16"><style>.st0{opacity:0}.st0,.st1{fill:#f6f6f6}.st2{fill:#424242}.st3{fill:none}.st4{fill:#f0eff1}</style><g id="outline"><path class="st0" d="M0 0h16v16H0z"/><path class="st1" d="M3 0v7.293C1.257 7.91 0 9.545 0 11.5c0 1.957 1.256 3.604 3 4.225V16h10V0H3z"/></g><path class="st2" d="M12 1H4v6.05c.166-.018.329-.05.5-.05A4.5 4.5 0 0 1 9 11.5c0 1.422-.673 2.676-1.703 3.5H12V1zm-2 12H9v-1h1v1zm0-7H6V5h4v1zm0-2H6V3h4v1z" id="icon_x5F_bg"/><g id="icon_x5F_fg"><path class="st3" d="M9 12h1v1H9z"/><path class="st4" d="M6 3h4v1H6zM6 5h4v1H6z"/></g><path class="st2" d="M4.5 8a3.5 3.5 0 1 0 0 7 3.5 3.5 0 0 0 0-7zm.5 6H4v-3h1v3zm0-4H4V9h1v1z" id="not_x5F_bg"/><g id="not_x5F_fg"><path class="st4" d="M4 11h1v3H4zM4 9h1v1H4z"/></g></svg>