<svg xmlns="http://www.w3.org/2000/svg" viewBox="0 0 16 16"><style>.st0{fill:#f6f6f6}.st1{fill:#424242}.st2{fill:#f0eff1}</style><path class="st0" d="M1.586 16L0 14.414V1.586L1.586 0h11.828L15 1.586v3.921c.617.463 1 1.198 1 1.993s-.383 1.529-1 1.993v4.921L13.414 16H1.586z" id="outline"/><g id="icon_x5F_bg"><path class="st1" d="M14 6.092V2l-1-1H2L1 2v12l1 1h11l1-1V8.908c.581-.207 1-.756 1-1.408s-.419-1.202-1-1.408zM13 14H2V2h11v4.092c-.581.207-1 .756-1 1.408s.419 1.202 1 1.408V14zm1-6h-1V7h1v1z"/><path class="st1" d="M5 3L4 4v2l1 1h1.5l.5.5v1l-.5.5H5l-1 1v2l1 1h5l1-1v-2l-1-1H8.5L8 8.5v-1l.5-.5H10l1-1V4l-1-1H5zm2 6h1v1H7V9zm1.5 1H10v2H5v-2h1.5l1 1 1-1zM8 7H7V6h1v1zm2-1H8.5l-1-1-1 1H5V4h5v2z"/></g><g id="icon_x5F_fg"><path class="st2" d="M7 6h1v1H7z"/><path class="st2" d="M12 7.5c0-.652.419-1.202 1-1.408V2H2v12h11V8.908c-.581-.206-1-.756-1-1.408zM11 6l-1 1H8.5l-.5.5v1l.5.5H10l1 1v2l-1 1H5l-1-1v-2l1-1h1.5l.5-.5v-1L6.5 7H5L4 6V4l1-1h5l1 1v2z"/><path class="st2" d="M7 9h1v1H7zM6.5 10H5v2h5v-2H8.5l-1 1zM5 6h1.5l1-1 1 1H10V4H5zM13 7h1v1h-1z"/></g></svg>