<svg xmlns="http://www.w3.org/2000/svg" viewBox="0 0 16 16"><style>.st0{opacity:0}.st0,.st1{fill:#f6f6f6}.st2{fill:none}.st3{fill:#424242}.st4{fill:#00539c}.st5{fill:#f0eff1}</style><g id="outline"><path class="st0" d="M0 0h16v16H0z"/><path class="st1" d="M1 1h15v14H1z"/></g><g id="icon_x5F_bg"><path class="st2" d="M3 3h9v10H3z"/><path class="st3" d="M2 2v12h13V2H2zm10 11H3V3h9v10z"/></g><path class="st4" d="M7 11L4 8l3-3h2L7 7h4v2H7l2 2z" id="color_x5F_action"/><g id="icon_x5F_fg"><path class="st2" d="M9 5H7L4 8l3 3h2L7 9h4V7H7z"/><path class="st5" d="M3 3v10h9V3H3zm8 6H7l2 2H7L4 8l3-3h2L7 7h4v2z"/></g></svg>