<svg xmlns="http://www.w3.org/2000/svg" viewBox="0 0 16 16"><style>.st0{opacity:0}.st0,.st1{fill:#f6f6f6}.st2{fill:none}.st3{fill:#424242}.st4{fill:#00539c}.st5{fill:#f0eff1}</style><g id="outline"><path class="st0" d="M0 0h16v16H0z"/><path class="st1" d="M1 1h15v14H1z"/></g><g id="icon_x5F_bg"><path class="st2" d="M5 3h9v10H5z"/><path class="st3" d="M2 2v12h13V2H2zm12 11H5V3h9v10z"/></g><path class="st4" d="M10 9H6V7h4L8 5h2l3 3-3 3H8z" id="color_x5F_action"/><g id="icon_x5F_fg"><path class="st2" d="M8 5l2 2H6v2h4l-2 2h2l3-3-3-3z"/><path class="st5" d="M5 3v10h9V3H5zm5 8H8l2-2H6V7h4L8 5h2l3 3-3 3z"/></g></svg>