<svg xmlns="http://www.w3.org/2000/svg" viewBox="0 0 16 16"><style>.st0{fill:#f6f6f6}.st1{fill:#424242}.st2{fill:#f0eff1}</style><path class="st0" d="M1 0v9.196c-.271.196-.597.33-1 .337l.011.036L0 9.572v1.953c.414-.052.739.017 1 .154V14h1v1h2v1h3s.002-.894 0-1c.031-.938.859-1 1-1h8V0H1z" id="outline"/><g id="icon_x5F_bg"><path class="st1" d="M2.974 14.053s-.159-3.488 2.692-3.488l.004.002c-2.853 0-2.702-3.521-2.702-3.521s.159 3.488-2.692 3.488H.28c2.851-.001 2.694 3.519 2.694 3.519zM5.684 15.262s-.095-2.061 1.59-2.061h.002c-1.686 0-1.596-2.078-1.596-2.078s.094 2.059-1.59 2.059h.002c1.683 0 1.592 2.08 1.592 2.08z"/><path class="st1" d="M2 1v6.003l1-.001V7h3v2h-.31C6.373 9.1 7 9 7 9V7h3v2H7v1h3v2H7.762c.095.013.181.014.238.014V13h7V1H2zm4 5H3V4h3v2zm4 0H7V4h3v2zm4 6h-3v-2h3v2zm0-3h-3V7h3v2zm0-3h-3V4h3v2z"/></g><g id="icon_x5F_fg"><path class="st2" d="M3 4h3v2H3zM7 7h3v2H7zM11 7h3v2h-3zM11 4h3v2h-3zM7 4h3v2H7zM11 10h3v2h-3zM5.69 9H6V7H3.967s.002.09.002.246C3.969 8.472 4.87 8.88 5.69 9zM3.967 7H3v.001zM7 10v1c0 .78.444.959.762 1H10v-2H7z"/></g></svg>