<svg xmlns="http://www.w3.org/2000/svg" viewBox="0 0 16 16"><style>.st0{opacity:0}.st0,.st1{fill:#f6f6f6}.st2{fill:#424242}</style><g id="outline"><path class="st0" d="M0 0h16v16H0z"/><path class="st1" d="M1 15h15V0H1v15zM7 3v3H4V3h3zm6 3h-3V3h3v3zm-3 6V9h3v3h-3zm-6 0V9h3v3H4z"/></g><g id="icon_x5F_bg"><path class="st2" d="M2 1h1v1H2zM6 1h1v1H6zM4 1h1v1H4zM4 7h1v1H4zM6 7h1v1H6zM6 13h1v1H6zM4 13h1v1H4zM2 9h1v1H2zM2 11h1v1H2zM2 3h1v1H2zM2 13h1v1H2zM2 5h1v1H2zM2 7h1v1H2zM12.25 1h.5v1h-.5zM10 1h1v1h-1zM12.25 13h.5v1h-.5zM10 7h1v1h-1zM10 13h1v1h-1zM12.25 7h.5v1h-.5zM14 1h1v13h-1zM8 1h1v1H8zM8 13h1v1H8zM8 7h1v1H8zM8 11h1v1H8zM8 9h1v1H8zM8 5h1v1H8zM8 3h1v1H8z"/></g></svg>