<svg xmlns="http://www.w3.org/2000/svg" viewBox="0 0 16 16"><style>.icon-vs-action-red{fill:#a1260d}.icon-vs-fg{fill:#f0eff1}.icon-vs-bg{fill:#424242}.icon-vs-out{fill:#f6f6f6}.icon-canvas-transparent{opacity:0;fill:#f6f6f6}</style><path class="icon-canvas-transparent" d="M16 16H0V0h16v16z" id="canvas"/><path class="icon-vs-out" d="M15 11.535v.99l1 1v.949L14.475 16h-.949l-1.495-1.495L10.535 16h-.949l-2-2H0V0h15v8.586l1 1v.949l-1 1z" id="outline"/><path class="icon-vs-bg" d="M12.586 9l-.556.556L11.475 9h1.111zm-4 4H1V1h13v6.586l-1 1V7h-3v.646l-1 1V7H6v2h2.646l-1 1H6v2h3v-.525l.556.556-.97.969zM10 6h3V4h-3v2zM6 6h3V4H6v2zm-1 4H2v2h3v-2zm0-3H2v2h3V7zm0-3H2v2h3V4z" id="iconBg"/><path class="icon-vs-fg" d="M9 6H6V4h3v2zm0 2.646V7H6v2h2.646L9 8.646zM13 4h-3v2h3V4zm-2.939 3.586L11.475 9h1.111L13 8.586V7h-3v.646l.061-.06zM2 12h3v-2H2v2zm7-.525l-1.414-1.414.06-.061H6v2h3v-.525zM2 9h3V7H2v2zm0-3h3V4H2v2z" id="iconFg"/><path class="icon-vs-action-red" d="M13.091 12.03l1.97 1.97L14 15.061l-1.97-1.97-1.97 1.97L9 14l1.97-1.97L9 10.061 10.061 9l1.97 1.97L14 9l1.061 1.061-1.97 1.969z" id="colorAction"/></svg>