<svg xmlns="http://www.w3.org/2000/svg" viewBox="0 0 16 16"><style>.st0{fill:#f6f6f6}.st1{fill:none}.st2{fill:#424242}.st3{fill:#f0eff1}.st4{fill:#fc0}</style><g id="outline"><path class="st0" d="M8.309 15.5l-.982-1.964-.462.269-.107.069c-.191.087-.4.133-.625.133a.999.999 0 0 1-.719-.27h.002c.009 0-.014-.033-.041-.064l-.151-.173h-.915l-.226.479c-.276.502-.609.883-.989 1.132a2.42 2.42 0 0 1-1.351.389c-.37 0-.663-.084-.872-.249a.9.9 0 0 1-.053-1.415c.04-.035.153-.124.343-.188l.339-.116V.5h14v13.382l-.809 1.618H8.309z"/><path class="st0" d="M15 1v12.764L14.382 15H8.618l-.606-1.212-.476-.952-.92.534c-.029.018-.059.036-.094.06a.998.998 0 0 1-.39.077.547.547 0 0 1-.321-.087 1.083 1.083 0 0 0-.061-.077L5.451 13H3.994l-.272.567-.05.109-.026.059c-.237.432-.515.753-.827.957A1.898 1.898 0 0 1 1.743 15c-.175 0-.414-.024-.567-.146A.406.406 0 0 1 1 14.523c0-.119.05-.225.149-.313a.528.528 0 0 1 .173-.09L2 13.891V1h13m1-1H1v13.175a1.531 1.531 0 0 0-.514.288A1.403 1.403 0 0 0 0 14.523c0 .439.2.838.561 1.119.299.238.697.358 1.182.358.603 0 1.149-.159 1.625-.472.448-.294.835-.732 1.153-1.311.035-.063.068-.146.103-.217h.373c.026.03.041.067.069.096a1.49 1.49 0 0 0 1.066.411c.294 0 .577-.061.849-.186.045-.021.092-.059.137-.085L8 16h7l1-2V0z"/></g><g id="icon_x5F_bg"><path class="st1" d="M11 4h3v2h-3zM3 4h3v2H3zM7 4h3v2H7z"/><path class="st2" d="M2 1v8.834l.499-1.709.501.007V7h1.038c.16-.165.324-.315.497-.436A3.06 3.06 0 0 1 6.329 6c.526 0 .952.132 1.266.393.202.164.347.373.441.607H10v1l.5-1H14v2h-.5l1.5 3V1H2zm4 5H3V4h3v2zm4 0H7V4h3v2zm4 0h-3V4h3v2z"/><path class="st2" d="M5.028 9.135c.186-.739.432-1.279.739-1.619.186-.213.367-.318.545-.318a.13.13 0 0 1 .087.029.103.103 0 0 1 .035.08c0 .028-.025.084-.076.166a.46.46 0 0 0-.074.231c0 .103.039.19.117.263a.423.423 0 0 0 .297.109.429.429 0 0 0 .323-.135.487.487 0 0 0 .132-.359.513.513 0 0 0-.196-.42C6.826 7.054 6.616 7 6.329 7c-.45 0-.858.128-1.224.385-.367.256-.714.68-1.044 1.273-.115.203-.223.335-.325.393-.103.059-.266.087-.49.084l-.149.511h.627l-.919 3.496c-.152.574-.257.928-.312 1.061a1.268 1.268 0 0 1-.355.499.331.331 0 0 1-.229.085.1.1 0 0 1-.064-.023l-.022-.03c0-.015.022-.044.068-.089.045-.045.068-.115.068-.207a.332.332 0 0 0-.109-.254c-.071-.068-.175-.102-.309-.102a.57.57 0 0 0-.394.132.4.4 0 0 0-.147.309c0 .129.06.24.181.335.119.095.306.142.562.142.404 0 .764-.102 1.077-.309.314-.205.587-.523.822-.95.232-.429.474-1.12.72-2.075l.527-2.02h.634l.158-.512h-.653z"/><path class="st2" d="M6.391 9.028v.746c.117-.022.527-.353.607-.353.157 0 .285.066.388.197.162.204.388.824.676 1.862-.226.295-.653.79-.737.88-.138.146-.253.24-.342.283a.484.484 0 0 1-.234.054c-.065 0-.175-.034-.324-.106a.694.694 0 0 0-.274-.069.522.522 0 0 0-.379.146.482.482 0 0 0-.147.367c0 .139.045.252.138.342.09.086.215.13.371.13.149 0 .291-.03.423-.091.132-.063.297-.192.497-.393.185-.184.66-.721 1.009-1.145l.793-1.586a4.36 4.36 0 0 0-.553-1.264H6.391z"/></g><g id="icon_x5F_fg"><path class="st3" d="M3 4h3v2H3zM8.153 7.582c0 .166-.022.315-.061.446h.748l.343.519c.145-.129.283-.227.419-.299.109-.058.224-.095.338-.13L10 8V7H8.036c.073.181.117.375.117.582zM3 8.132l.208.003c.26-.463.536-.833.83-1.135H3v1.132zM11 4h3v2h-3zM7 4h3v2H7zM13.5 9h.5V7h-1.5z"/></g><path class="st4" d="M11.891 8.016h-.781l-3.016 6 .515.984h5.766l.484-1-2.968-5.984zM12 14h-1v-1h1v1zm0-2h-1v-2h1v2z" id="not_x5F_bg"/><path d="M12 12h-1v-2h1v2zm0 1h-1v1h1v-1z" id="not_x5F_fg"/></svg>