<svg xmlns="http://www.w3.org/2000/svg" viewBox="0 0 16 16"><style>.st0{opacity:0}.st0,.st1{fill:#f6f6f6}.st2{fill:#424242}</style><g id="outline"><path class="st0" d="M0 0h16v16H0z"/><path class="st1" d="M16 0H1v15h15V0zm-6 6V3h3v3h-3zm0 6V9h3v3h-3z"/></g><g id="icon_x5F_bg"><path class="st2" d="M12 13h1v1h-1zM12 1h1v1h-1zM10 1h1v1h-1zM12 7h1v1h-1zM10 7h1v1h-1zM2 8h7v6H2zM10 13h1v1h-1zM2 1h7v6H2zM14 3h1v1h-1zM14 13h1v1h-1zM14 5h1v1h-1zM14 1h1v1h-1zM14 11h1v1h-1zM14 7h1v1h-1zM14 9h1v1h-1z"/></g></svg>