<svg xmlns="http://www.w3.org/2000/svg" viewBox="0 0 16 16"><style>.st0{opacity:0}.st0,.st1{fill:#f6f6f6}.st2{fill:#424242}.st3{fill:#f0eff1}</style><g id="outline"><path class="st0" d="M0 0h16v16H0z"/><path class="st1" d="M16 0H0v14h1.02l.039.05c.257.332.557.632.89.891l.614.477.897-.698.044.354.192.782.769.099c.176.024.352.045.535.045s.359-.021.631-.059l.769-.1.141-1.123.897.698.614-.477c.333-.259.632-.559.89-.891L8.98 14H16V0z"/></g><g id="icon_x5F_bg"><circle class="st2" cx="5" cy="11" r="1"/><path class="st2" d="M2 1H1v7.027l.059-.076c.257-.333.557-.632.89-.891L2 7.02V2h12v8H9.895l.047.369c.037.275.058.449.058.631 0 .185-.021.362-.046.538l-.1.768-.781.19-.354.044.358.46H15V1H2z"/><path class="st2" d="M7.714 11.658a2.804 2.804 0 0 1-.331.795l.768.984a3.972 3.972 0 0 1-.712.713l-.985-.768c-.244.148-.51.262-.795.332l-.154 1.234C5.337 14.971 5.173 15 5 15s-.337-.029-.504-.051l-.154-1.234a2.835 2.835 0 0 1-.795-.332l-.985.767a3.972 3.972 0 0 1-.712-.713l.768-.984a2.804 2.804 0 0 1-.331-.795l-1.235-.154C1.029 11.338 1 11.174 1 11c0-.172.029-.336.051-.504l1.235-.154c.069-.285.183-.551.331-.795l-.767-.984c.207-.268.445-.506.712-.713l.985.768c.244-.148.51-.262.795-.331l.154-1.235C4.663 7.03 4.827 7 5 7s.337.03.504.051l.154 1.235c.285.069.551.183.795.331l.985-.767c.267.207.505.445.712.713l-.767.984c.148.244.262.51.331.795l1.235.154c.022.168.051.332.051.504 0 .174-.029.338-.051.504l-1.235.154zM5 9c-1.107 0-2 .896-2 2s.893 2 2 2 2-.896 2-2-.893-2-2-2z"/><circle class="st2" cx="5" cy="11" r="1"/></g><g id="icon_x5F_fg"><path class="st3" d="M2 2v5.02l.563-.437.897.699.14-1.124.769-.098C4.641 6.022 4.817 6 5 6s.359.021.536.046l.769.099.192.782.044.355.897-.699.614.477c.333.259.632.559.89.891l.476.614-.699.895 1.124.14.052.4H14V2H2zM5 9a2 2 0 1 0 .001 4.001A2 2 0 0 0 5 9zm0 3a1 1 0 1 1 0-2 1 1 0 1 1 0 2z"/></g></svg>