<svg xmlns="http://www.w3.org/2000/svg" viewBox="0 0 16 16"><style>.st0{fill:#f6f6f6}.st1{fill:#424242}.st2{fill:#f0eff1}.st3{fill:#e51400}.st4{fill:#fff}</style><path class="st0" d="M15 6V0H3v3H0v10h4v3h12V6z" id="outline"/><g id="icon_x5F_bg"><path class="st1" d="M13 4h-1v1h1v1h1V1H4v2h9z"/><path class="st1" d="M2 6h9V4H1v8h3v-1H2v-1h2V9H2V8h2V7H2zM15 15v-.706a4.532 4.532 0 0 1-.706.706H15zM11.5 7c1.421 0 2.675.675 3.5 1.707V7h-3.5z"/><path class="st1" d="M5 15h3.707a4.485 4.485 0 0 1-.945-1H6v-1h1.276a4.419 4.419 0 0 1-.226-1H6v-1h1.051c.039-.347.111-.682.226-1H6V9h1.762A4.496 4.496 0 0 1 11.5 7H5v8z"/></g><g id="icon_x5F_fg"><path class="st2" d="M2 6h2v1H2zM2 8h2v1H2zM2 10h2v1H2zM12 3h1v1h-1zM12 5h1v1h-1zM6 10h1.276c.126-.354.28-.693.485-1H6v1zM7 11.5c0-.171.031-.334.051-.5H6v1h1.051c-.02-.166-.051-.329-.051-.5zM6 13v1h1.762a4.512 4.512 0 0 1-.485-1H6z"/></g><path class="st3" d="M11.5 8a3.5 3.5 0 1 0 0 7 3.5 3.5 0 0 0 0-7zm1.854 4.646l-.707.707-1.147-1.146-1.146 1.147-.707-.707 1.147-1.146-1.147-1.146.707-.707 1.146 1.147 1.146-1.147.707.707-1.146 1.145 1.147 1.146z" id="not_x5F_bg"/><path class="st4" d="M13.354 10.354l-.708-.708-1.146 1.147-1.146-1.147-.708.708 1.147 1.146-1.147 1.146.708.708 1.146-1.147 1.146 1.147.708-.708-1.147-1.146z" id="not_x5F_fg"/></svg>