<svg xmlns="http://www.w3.org/2000/svg" viewBox="0 0 16 16"><style>.st0{fill:#f6f6f6}.st1{fill:#424242}.st2{fill:#f0eff1}</style><path class="st0" d="M16 0H1v4.058C.383 4.689 0 5.55 0 6.5c0 .952.381 1.827 1 2.473V14h1v2h3v-1h2v-1h9V0z" id="outline"/><g id="icon_x5F_bg"><path class="st1" d="M4 9c1.141-.231 2-1.291 2-2.5a2.5 2.5 0 1 0-5 0c0 1.209.859 2.269 2 2.5v6h1v-1h2v-1H4v-1h2v-1H4V9zm-.5-1a1.5 1.5 0 1 1 .001-3.001A1.5 1.5 0 0 1 3.5 8z"/><path class="st1" d="M2 1v2.351A3.468 3.468 0 0 1 3.5 3c.95 0 1.811.383 2.442 1H6v.058c.617.631 1 1.492 1 2.442 0 .952-.381 1.827-1 2.473V9h-.026A3.48 3.48 0 0 1 5 9.711V10h5v2H7v1h8V1H2zm8 8H7V7h3v2zm0-3H7V4h3v2zm4 6h-3v-2h3v2zm0-3h-3V7h3v2zm0-3h-3V4h3v2z"/></g><g id="icon_x5F_fg"><path class="st2" d="M7 7h3v2H7zM7 10h3v2H7zM11 4h3v2h-3zM7 4h3v2H7zM11 7h3v2h-3zM11 10h3v2h-3z"/></g></svg>