<svg xmlns="http://www.w3.org/2000/svg" viewBox="0 0 16 16"><style>.st0{fill:#f6f6f6}.st1{fill:none}.st2{fill:#424242}.st3{fill:#f0eff1}.st4{fill:#e51400}.st5{fill:#fff}</style><path class="st0" d="M1 0v13.175a1.531 1.531 0 0 0-.514.288A1.403 1.403 0 0 0 0 14.523c0 .439.2.838.561 1.119.299.238.697.358 1.182.358.603 0 1.149-.159 1.625-.472.448-.294.835-.732 1.153-1.311.035-.063.068-.146.103-.217h.373c.026.03.041.067.069.096a1.49 1.49 0 0 0 1.066.411c.294 0 .577-.061.849-.186.152-.071.311-.185.475-.32h.304a4.495 4.495 0 0 0 7.48 0H16V0H1z" id="outline"/><g id="icon_x5F_bg"><path class="st1" d="M3 4h3v2H3zM7 4h3v2H7zM11 4h3v2h-3z"/><path class="st2" d="M6.284 7.704c0 .103.039.19.117.263a.423.423 0 0 0 .297.109.429.429 0 0 0 .323-.135.487.487 0 0 0 .132-.359.513.513 0 0 0-.196-.42C6.826 7.054 6.616 7 6.329 7c-.45 0-.858.128-1.224.385-.367.256-.714.68-1.044 1.273-.115.203-.223.335-.325.393-.103.059-.266.087-.49.084l-.149.511h.627l-.919 3.496c-.152.574-.257.928-.312 1.061a1.268 1.268 0 0 1-.355.499.331.331 0 0 1-.229.085.1.1 0 0 1-.064-.023l-.022-.03c0-.015.022-.044.068-.089.045-.045.068-.115.068-.207a.332.332 0 0 0-.109-.254c-.071-.068-.175-.102-.309-.102a.57.57 0 0 0-.394.132.4.4 0 0 0-.147.309c0 .129.06.24.181.335.119.095.306.142.562.142.404 0 .764-.102 1.077-.309.314-.205.587-.523.822-.95.232-.429.474-1.12.72-2.075l.527-2.02h.634l.158-.512h-.653c.186-.738.432-1.278.739-1.618.186-.213.367-.318.545-.318a.13.13 0 0 1 .087.029.103.103 0 0 1 .035.08c0 .028-.025.084-.076.166a.46.46 0 0 0-.074.231z"/><path class="st2" d="M2 1v8.834l.499-1.709.501.007V7h1.038c.16-.165.324-.315.497-.436A3.06 3.06 0 0 1 6.329 6c.526 0 .952.132 1.266.393.202.164.347.373.441.607H10v.275a4.472 4.472 0 0 1 1-.225V7h3v.76a4.5 4.5 0 0 1 1 .943V1H2zm4 5H3V4h3v2zm4 0H7V4h3v2zm4 0h-3V4h3v2z"/><path class="st2" d="M6.391 9.774c.117-.022.527-.353.607-.353.157 0 .285.066.388.197.006.008.014.025.02.034.098-.218.209-.428.339-.625H6.391v.747z"/></g><g id="icon_x5F_fg"><path class="st3" d="M3 4h3v2H3zM8.153 7.582c0 .166-.022.315-.061.446h.576A4.512 4.512 0 0 1 10 7.275V7H8.036c.073.181.117.375.117.582zM3 8.132l.208.003c.26-.463.536-.833.83-1.135H3v1.132zM11 4h3v2h-3zM7 4h3v2H7zM11 7.05c.166-.018.329-.05.5-.05H11v.05zM14 7.76V7h-2.5c.926 0 1.785.281 2.5.76z"/></g><path class="st4" d="M11.5 8a3.5 3.5 0 1 0 0 7 3.5 3.5 0 0 0 0-7zm1.854 4.646l-.707.707-1.147-1.146-1.146 1.147-.707-.707 1.147-1.146-1.147-1.146.707-.707 1.146 1.147 1.146-1.147.707.707-1.146 1.145 1.147 1.146z" id="not_x5F_bg"/><path class="st5" d="M13.354 10.354l-.708-.708-1.146 1.147-1.146-1.147-.708.708 1.147 1.146-1.147 1.146.708.708 1.146-1.147 1.146 1.147.708-.708-1.147-1.146z" id="not_x5F_fg"/></svg>