<svg xmlns="http://www.w3.org/2000/svg" viewBox="0 0 16 16"><style>.st0{opacity:0}.st0,.st1{fill:#f6f6f6}.st2{fill:#424242}</style><g id="outline"><path class="st0" d="M0 0h16v16H0z"/><path class="st1" d="M1 15h15V0H1v15zm3-3V9h3v3H4zm9 0h-3V9h3v3zm0-9v3h-3V3h3zM7 3v3H4V3h3z"/></g><g id="icon_x5F_bg"><path class="st2" d="M4 7h1v1H4zM6.25 1h.5v1h-.5zM6.25 13h.5v1h-.5zM4 1h1v1H4zM6.25 7h.5v1h-.5zM2 1h1v1H2zM4 13h1v1H4zM2 11h1v1H2zM2 9h1v1H2zM2 13h1v1H2zM2 5h1v1H2zM2 7h1v1H2zM2 3h1v1H2zM14 7h1v1h-1zM14 13h1v1h-1zM14 11h1v1h-1zM14 5h1v1h-1zM14 9h1v1h-1zM14 1h1v1h-1zM14 3h1v1h-1zM12 1h1v1h-1zM10.25 1h.5v1h-.5zM10.25 7h.5v1h-.5zM10.25 13h.5v1h-.5zM12 13h1v1h-1zM8 1h1v13H8zM12 7h1v1h-1z"/></g></svg>