<svg xmlns="http://www.w3.org/2000/svg" viewBox="0 0 16 16"><style>.st0{opacity:0}.st0,.st1{fill:#f6f6f6}.st2{fill:none}.st3{fill:#424242}.st4{fill:#f0eff1}</style><g id="outline"><path class="st0" d="M0 0h16v16H0z"/><path class="st1" d="M1 0h15v15H1z"/></g><g id="icon_x5F_bg"><path class="st2" d="M5 4h7v2H5z"/><path class="st3" d="M2 5h1v1H2zM2 9h1v1H2zM4 13h1v1H4zM2 7h1v1H2zM2 1h1v1H2zM2 3h1v1H2zM4 8h4v3H4zM2 11h1v1H2zM6 1h1v1H6zM8 1h1v1H8zM4 1h1v1H4zM2 13.001h1V14H2zM10 1h1v1h-1zM14 3h1v1h-1zM14 7h1v1h-1zM14 9h1v1h-1zM14 11h1v1h-1zM14 1h1v1h-1zM14 5h1v1h-1zM14 13h1v1h-1zM12 1h1v1h-1zM6 13h1v1H6zM10 13h1v1h-1zM8 13h1v1H8zM12 13h1v1h-1zM9 8h4v3H9zM4 7h9V3H4v4zm1-3h7v2H5V4z"/></g><path class="st4" d="M5 4h7v2H5z" id="icon_x5F_fg"/></svg>