<svg xmlns="http://www.w3.org/2000/svg" viewBox="0 0 16 16"><style>.st0{opacity:0}.st0,.st1{fill:#f6f6f6}.st2{fill:none}.st3{fill:#424242}.st4{fill:#00539c}.st5{fill:#f0eff1}</style><g id="outline"><path class="st0" d="M0 0h16v16H0z"/><path class="st1" d="M1 0h14v15H1z"/></g><g id="icon_x5F_bg"><path class="st2" d="M3 4h10v9H3z"/><path class="st3" d="M2 1v13h12V1H2zm11 12H3V4h10v9z"/></g><path class="st4" d="M8 12L5 9V7l2 2V5h2v4l2-2v2z" id="color_x5F_action"/><g id="icon_x5F_fg"><path class="st2" d="M9 5H7v4L5 7v2l3 3 3-3V7L9 9z"/><path class="st5" d="M3 4v9h10V4H3zm8 5l-3 3-3-3V7l2 2V5h2v4l2-2v2z"/></g></svg>