<svg xmlns="http://www.w3.org/2000/svg" viewBox="0 0 16 16"><style>.st0{fill:#f6f6f6}.st1{fill:#424242}.st2{fill:#f0eff1}.st3{fill:#fc0}</style><path class="st0" d="M15 12l1 2-1 2H8l-1-2H0V0h15z" id="outline"/><path class="st1" d="M1 1v12h6.5l.5-1H6v-2h3l1-2V7h3v1l1 2V1H1zm4 11H2v-2h3v2zm0-3H2V7h3v2zm0-3H2V4h3v2zm4 3H6V7h3v2zm0-3H6V4h3v2zm4 0h-3V4h3v2z" id="icon_x5F_bg"/><g id="icon_x5F_fg"><path class="st2" d="M6 7h3v2H6zM2 4h3v2H2zM6 12h2l1-2H6zM2 10h3v2H2zM2 7h3v2H2zM13 8V7h-.5zM10 4h3v2h-3zM6 4h3v2H6zM10 8l.5-1H10z"/></g><path class="st3" d="M11.891 8.016h-.781l-3.016 6 .515.984h5.766l.484-1-2.968-5.984zM12 14h-1v-1h1v1zm0-2h-1v-2h1v2z" id="not_x5F_bg"/><path d="M11 13h1v1h-1v-1zm0-1h1v-2h-1v2z" id="not_x5F_fg"/></svg>