<svg xmlns="http://www.w3.org/2000/svg" viewBox="0 0 16 16"><style>.st0{opacity:0}.st0,.st1{fill:#f6f6f6}.st2{fill:#424242}</style><g id="outline"><path class="st0" d="M0 0h16v16H0z"/><path class="st1" d="M1 0v15h15V0H1zm3 3h3v3H4V3zm0 9V9h3v3H4zm9 0h-3V9h3v3zm0-6h-3V3h3v3z"/></g><g id="icon_x5F_bg"><path class="st2" d="M2 3h1v1H2zM2 5.25h1v.5H2zM4 1h1v1H4zM2 1h1v1H2zM2 13h1v1H2zM2 11h1v1H2zM10 1h1v1h-1zM2 9.25h1v.5H2zM8 1h1v1H8zM6 1h1v1H6zM12 1h1v1h-1zM8 5.25h1v.5H8zM8 3h1v1H8zM6 13h1v1H6zM2 7h13v1H2zM14 9.25h1v.5h-1zM14 11h1v1h-1zM14 13h1v1h-1zM14 3h1v1h-1zM14 5.25h1v.5h-1zM8 11h1v1H8zM8 13h1v1H8zM4 13h1v1H4zM14 1h1v1h-1zM10 13h1v1h-1zM8 9.25h1v.5H8zM12 13h1v1h-1z"/></g></svg>