<svg xmlns="http://www.w3.org/2000/svg" viewBox="0 0 16 16"><style>.st0{opacity:0}.st0,.st1{fill:#f6f6f6}.st2{fill:none}.st3{fill:#424242}.st4{fill:#f0eff1}</style><g id="outline"><path class="st0" d="M0 0h16v16H0z"/><path class="st1" d="M16 0v16H3V9.711A3.566 3.566 0 0 1 1 6.5C1 4.57 2.57 3 4.5 3c.539 0 1.043.133 1.5.351V0h10z"/></g><g id="icon_x5F_bg"><path class="st2" d="M8 3h6v3H8zM8 7h6v3H8z"/><circle class="st2" cx="4.5" cy="6.5" r="1.5"/><path class="st3" d="M5 9c1.141-.231 2-1.291 2-2.5a2.5 2.5 0 1 0-5 0c0 1.209.859 2.269 2 2.5v6h1v-1h2v-1H5v-1h2v-1H5V9zm-.5-1a1.5 1.5 0 1 1 0-3 1.5 1.5 0 0 1 0 3zM7 1v3.058c.617.631 1 1.492 1 2.442 0 .952-.381 1.827-1 2.473V10h1V7h6v3H8v1h6v3H8v1h7V1H7zm7 5H8V3h6v3z"/></g><path class="st4" d="M6 6.5a1.5 1.5 0 1 1-3 0 1.5 1.5 0 0 1 3 0zM14 3H8v3h6V3zm0 7H8V7h6v3zm0 4H8v-3h6v3z" id="icon_x5F_fg"/></svg>