<svg xmlns="http://www.w3.org/2000/svg" viewBox="0 0 16 16"><style>.st0{opacity:0}.st0,.st1{fill:#f6f6f6}.st2{fill:#424242}.st3{fill:#393}.st4{fill:#fff}.st5{fill:#f0eff1}</style><g id="outline"><path class="st0" d="M0 0h16v16H0z"/><path class="st1" d="M15 14.297c.616-.771 1-1.734 1-2.797s-.384-2.026-1-2.797V1H0v14h8.703c.771.616 1.734 1 2.797 1s2.026-.384 2.797-1H15v-.703z"/></g><path class="st2" d="M1 2v12h6.76a4.51 4.51 0 0 1-.484-1H6v-2h1.05c.039-.347.112-.682.225-1H6V8h2.703c.771-.616 1.734-1 2.797-1H10V5h3v2h-1.5c.926 0 1.785.281 2.5.76V2H1zm4 11H2v-2h3v2zm0-3H2V8h3v2zm0-3H2V5h3v2zm4 0H6V5h3v2z" id="icon_x5F_bg"/><g id="icon_x5F_fg"><path class="st3" d="M15 11.5A3.5 3.5 0 1 1 11.5 8a3.47 3.47 0 0 1 2.361.932L10.5 12.293l-1.146-1.147-.707.707 1.854 1.853 3.994-3.994c-.175-.29.505.769.505 1.788z"/><path class="st4" d="M10.5 12.293l3.361-3.361c.248.229.459.49.633.781L10.5 13.707l-1.854-1.853.707-.707 1.147 1.146z"/><path class="st5" d="M6 5h3v2H6zM8.703 8H6v2h1.275a4.485 4.485 0 0 1 1.428-2zM10 5h3v2h-3zM2 5h3v2H2zM7 11.5c0-.171.032-.334.05-.5H6v2h1.275A4.473 4.473 0 0 1 7 11.5zM2 8h3v2H2zM2 11h3v2H2z"/></g></svg>