<svg xmlns="http://www.w3.org/2000/svg" viewBox="0 0 16 16"><style>.st0{opacity:0}.st0,.st1{fill:#f6f6f6}.st2{fill:none}.st3{fill:#424242}.st4{fill:#f0eff1}</style><g id="outline"><path class="st0" d="M0 0h16v16H0z"/><path class="st1" d="M12 15v-1H4v1H1v-1H0v-3h1V4H0V1h1V0h3v1h8V0h3v1h1v3h-1v7h1v3h-1v1h-3z"/></g><g id="icon_x5F_bg"><path class="st2" d="M3 12h10V3H3v9zm1-4h8v1H4V8zm0 2h8v1H4v-1z"/><path class="st3" d="M4 8h8v1H4zM4 10h8v1H4z"/><path class="st3" d="M15 3V2h-1V1h-1v1H3V1H2v1H1v1h1v9H1v1h1v1h1v-1h10v1h1v-1h1v-1h-1V3h1zm-2 9H3V3h10v9z"/></g><path class="st4" d="M3 3v9h10V3H3zm9 8H4v-1h8v1zm0-2H4V8h8v1z" id="icon_x5F_fg"/></svg>