<svg xmlns="http://www.w3.org/2000/svg" viewBox="0 0 16 16"><style>.st0{opacity:0}.st0,.st1{fill:#f6f6f6}.st2{fill:#424242}</style><g id="outline"><path class="st0" d="M0 0h16v16H0z"/><path class="st1" d="M16 0H1v15h15V0zm-3 3v3h-3V3h3zM4 3h3v3H4V3zm0 9V9h3v3H4zm6 0V9h3v3h-3z"/></g><g id="icon_x5F_bg"><path class="st2" d="M8 1h1v1H8zM8 9h1v1H8zM8 13h1v1H8zM8 3h1v1H8zM6 1h1v1H6zM8 5h1v1H8zM8 11h1v1H8zM4.25 13h.5v1h-.5zM2 1h1v13H2zM4.25 7h.5v1h-.5zM4.25 1h.5v1h-.5zM6 7h1v1H6zM6 13h1v1H6zM8 7h1v1H8zM14 7h1v1h-1zM14 9h1v1h-1zM14 5h1v1h-1zM14 1h1v1h-1zM14 3h1v1h-1zM14 11h1v1h-1zM12 13h1v1h-1zM10 13h1v1h-1zM14 13h1v1h-1zM10 7h1v1h-1zM10 1h1v1h-1zM12 7h1v1h-1zM12 1h1v1h-1z"/></g></svg>