<svg xmlns="http://www.w3.org/2000/svg" viewBox="0 0 16 16"><style>.st0{opacity:0}.st0,.st1{fill:#f6f6f6}.st2{fill:#424242}</style><g id="outline"><path class="st0" d="M0 0h16v16H0z"/><path class="st1" d="M16 15V0H1v15h15zM4 9h3v3H4V9zm3-6v3H4V3h3zm6 3h-3V3h3v3zm0 6h-3V9h3v3z"/></g><g id="icon_x5F_bg"><path class="st2" d="M6 13h1v1H6zM8 9h1v1H8zM8 13h1v1H8zM8 11h1v1H8zM4 13h1v1H4zM6 7h1v1H6zM4 7h1v1H4zM2 9h1v1H2zM2 11h1v1H2zM2 13h1v1H2zM2 3.25h1v.5H2zM2 5h1v1H2zM2 7h1v1H2zM14 11h1v1h-1zM14 13h1v1h-1zM14 7h1v1h-1zM14 9h1v1h-1zM14 5h1v1h-1zM14 3.25h1v.5h-1zM2 1h13v1H2zM12 13h1v1h-1zM12 7h1v1h-1zM8 5h1v1H8zM10 13h1v1h-1zM8 3.25h1v.5H8zM8 7h1v1H8zM10 7h1v1h-1z"/></g></svg>