<svg xmlns="http://www.w3.org/2000/svg" viewBox="0 0 16 16"><style>.st0{opacity:0}.st0,.st1{fill:#f6f6f6}.st2{fill:#424242}.st3{fill:#f0eff1}.st4{fill:#e51400}.st5{fill:#fff}</style><g id="outline"><path class="st0" d="M0 0h16v16H0z"/><path class="st1" d="M1 1v14h7.703c.771.616 1.734 1 2.797 1s2.026-.384 2.797-1H16V1H1z"/></g><path class="st2" d="M2 2v12h5.76a4.51 4.51 0 0 1-.484-1H7v-2h.05c.039-.347.112-.682.225-1H7V8h1.703c.771-.616 1.734-1 2.797-1H11V5h3v2h-2.5c1.423 0 2.676.673 3.5 1.703V2H2zm4 11H3v-2h3v2zm0-3H3V8h3v2zm0-3H3V5h3v2zm4 0H7V5h3v2z" id="icon_x5F_bg"/><g id="icon_x5F_fg"><path class="st3" d="M7 5h3v2H7zM7 10h.275a4.478 4.478 0 0 1 1.428-2H7v2zM11 5h3v2h-3zM3 11h3v2H3zM7 13h.275A4.473 4.473 0 0 1 7 11.5V13zM7 11v.5c0-.171.032-.334.05-.5H7zM3 8h3v2H3zM3 5h3v2H3z"/></g><path class="st4" d="M11.5 8a3.5 3.5 0 1 0 0 7 3.5 3.5 0 0 0 0-7zm1.854 4.646l-.707.707-1.147-1.146-1.146 1.147-.707-.707 1.147-1.146-1.147-1.146.707-.707 1.146 1.147 1.146-1.147.707.707-1.146 1.145 1.147 1.146z" id="not_x5F_bg"/><path class="st5" d="M13.354 10.354l-.708-.708-1.146 1.147-1.146-1.147-.708.708 1.147 1.146-1.147 1.146.708.708 1.146-1.147 1.146 1.147.708-.708-1.147-1.146z" id="not_x5F_fg"/></svg>