<svg xmlns="http://www.w3.org/2000/svg" viewBox="0 0 16 16"><style>.icon-canvas-transparent{opacity:0;fill:#f6f6f6}.icon-vs-out{fill:#f6f6f6}.icon-vs-bg{fill:#424242}.icon-vs-blue{fill:#1ba1e2}.icon-vs-fg{fill:#f0eff1}</style><path class="icon-canvas-transparent" d="M0 0h16v16H0z" id="canvas"/><path class="icon-vs-out" d="M0 15V1h9v1h5v2h2v11H0z" id="outline"/><path class="icon-vs-fg" d="M14 13H2V6h12v7zm-2-9H9v1h3V4z" id="iconFg"/><path class="icon-vs-blue" d="M7 5H2V3h5v2z" id="colorImportance"/><g id="iconBg"><path class="icon-vs-bg" d="M13 5V3H8V2H1v12h14V5h-2zM9 4h3v1H9V4zM2 3h5v2H2V3zm12 10H2V6h12v7z"/></g></svg>