<svg xmlns="http://www.w3.org/2000/svg" viewBox="0 0 16 16"><style>.st0{opacity:0;fill:#fff;stroke:#000;stroke-miterlimit:10}.st1{fill:#f6f6f6}.st2{fill:#424242}.st3{fill:#f0eff1}</style><g id="outline"><path class="st0" d="M0 0h16v16H0z"/><path class="st1" d="M16 0H5v7H0v9h12v-3h4z"/></g><g id="icon_x5F_bg"><path class="st2" d="M4.5 9.5l-2 2 2 2L5 13l-1.5-1.5L5 10zM7 10l1.5 1.5L7 13l.5.5 2-2-2-2z"/><path class="st2" d="M1 15h10V8H1v7zm1-6h8v5H2V9zM12 11h1v1h-1zM14 11h1v1h-1z"/><path class="st2" d="M7 1H6v6h1V2h7v8h1V1z"/></g><g id="icon_x5F_fg"><path class="st3" d="M14 2H7v5h5v4h2V4z"/><path class="st3" d="M2 9v5h8V9H2zm3 4l-.5.5-2-2 2-2 .5.5-1.5 1.5L5 13zm2.5.5L7 13l1.5-1.5L7 10l.5-.5 2 2-2 2z"/></g></svg>