<svg xmlns="http://www.w3.org/2000/svg" viewBox="0 0 16 16"><style>.st0{fill:#f6f6f6}.st1{fill:#424242}.st2{fill:#00539c}.st3{fill:#f0eff1}</style><path class="st0" d="M14 5h-4V2.688L6.982 0H1.941C1 0 0 .701 0 2v7c0 .391.098.721.25 1H0v2.5c0 1.104.719 2.042 1.713 2.373L.586 16h4.328L7 13.914V16h9V7l-2-2zm-7 8.086L4.914 11H7v2.086z" id="outline"/><g id="icon_x5F_bg"><path class="st1" d="M10 14h1v1h-1zM8 6h1v1H8zM8 14h1v1H8zM8 8h1v1H8zM8 12h1v1H8zM8 10h1v1H8zM10 6h1v1h-1zM14 10h1v1h-1zM12 14h1v1h-1zM14 12h1v1h-1zM14 8h1v1h-1zM14 14h1v1h-1zM12 8h1v1h-1zM12 6h1v1h-1z"/><path class="st1" d="M7 9H2V2h4v2h2v1h1V3.136L6.602 1h-4.66C1.941 1 1 1 1 2v7c0 1 .941 1 .941 1H7V9z"/></g><path class="st2" d="M4.5 12L6 13.5 4.5 15H3l1-1H2.5c-.827 0-1.5-.674-1.5-1.5V11h1v1.5c0 .275.225.5.5.5H4l-1-1h1.5z" id="color_x5F_action"/><path class="st3" d="M7 5h1V4H6V2H2v7h5z" id="icon_x5F_fg"/></svg>