<svg xmlns="http://www.w3.org/2000/svg" viewBox="0 0 16 16"><style>.st0{fill:#f6f6f6}.st1{fill:none}.st2{fill:#424242}.st3{fill:#c27d1a}.st4{fill:#f0eff1}</style><path class="st0" d="M14.414 6h-2l-2-2H9V3H8l1-1-2-2-1 1V0H3v1L2 0 0 2l1 1H0v3h1L0 7l.293.293L0 7.586v6.828L1.586 16h12.828L16 14.414V7.586z" id="outline"/><g id="icon_x5F_bg"><path class="st1" d="M8 8a3.001 3.001 0 0 0 0 6 3.001 3.001 0 0 0 0-6zm0 5a2 2 0 1 1 .001-4.001A2 2 0 0 1 8 13zM12 8h2v2h-2z"/><path class="st2" d="M3.489 2.783l-1.11-1.111-.708.707L2.782 3.49c.173-.293.415-.535.707-.707zM5 2.57V1H4v1.57c.161-.041.326-.07.5-.07s.339.029.5.07zM6.218 3.49l1.111-1.111-.708-.707-1.11 1.111c.292.172.534.414.707.707zM2.5 4.5c0-.174.029-.34.071-.5H1v1h1.571a1.96 1.96 0 0 1-.071-.5z"/><circle class="st2" cx="8" cy="11" r="2"/><path class="st2" d="M14 7h-2l-2-2H8V4H6.429c.042.16.071.326.071.5s-.029.34-.071.5H6L4 7H2.707l.783-.783a1.99 1.99 0 0 1-.708-.707L1.671 6.621 2.05 7H2L1 8v6l1 1h12l1-1V8l-1-1zm-6 7a3.001 3.001 0 0 1 0-6 3.001 3.001 0 0 1 0 6zm6-4h-2V8h2v2z"/></g><g id="color_x5F_imporatance"><path class="st3" d="M1.671 2.379L2.782 3.49c.173-.293.415-.535.707-.707l-1.11-1.111-.708.707zM2.782 5.51L1.671 6.621 2.05 7h.656l.783-.783a1.995 1.995 0 0 1-.707-.707zM2.5 4.5c0-.174.029-.34.071-.5H1v1h1.571a1.96 1.96 0 0 1-.071-.5zM6.621 1.672l-1.11 1.111c.292.172.534.414.707.707l1.111-1.111-.708-.707zM6.429 4c.042.16.071.326.071.5s-.029.34-.071.5H8V4H6.429zM4 2.57c.161-.041.326-.07.5-.07s.339.029.5.07V1H4v1.57z"/></g><g id="icon_x5F_fg"><circle class="st1" cx="8" cy="11" r="2"/><path class="st4" d="M8 8a3.001 3.001 0 0 0 0 6 3.001 3.001 0 0 0 0-6zm0 5a2 2 0 1 1 .001-4.001A2 2 0 0 1 8 13zM12 8h2v2h-2z"/></g></svg>