<svg xmlns="http://www.w3.org/2000/svg" viewBox="0 0 16 16"><style>.st0{fill:#f6f6f6}.st1{fill:#424242}.st2{fill:none}.st3{fill:#f0eff1}</style><path class="st0" d="M16 0H4v9H0v6h1v1h4v-1h4v1h4v-1h1v-5h2z" id="outline"/><g id="icon_x5F_bg"><path class="st1" d="M1 10v4h1v1h2v-1h6v1h2v-1h1v-4H1zm2 2H2v-1h1v1z"/><path class="st2" d="M6 6h8V2H6v4zm6-3.5a1.5 1.5 0 1 1 0 3 1.5 1.5 0 0 1 0-3zm-4 0a1.5 1.5 0 1 1 0 3 1.5 1.5 0 0 1 0-3zM7 7h6v1H7z"/><path class="st1" d="M5 1v8h10V1H5zm8 7H7V7h6v1zm1-2H6V2h8v4z"/><circle class="st1" cx="12" cy="4" r="1.5"/><circle class="st1" cx="8" cy="4" r="1.5"/></g><g id="icon_x5F_fg"><circle class="st2" cx="12" cy="4" r="1.5"/><circle class="st2" cx="8" cy="4" r="1.5"/><path class="st3" d="M7 7h6v1H7zM2 11h1v1H2zM6 2v4h8V2H6zm2 3.5a1.5 1.5 0 1 1 0-3 1.5 1.5 0 0 1 0 3zm4 0a1.5 1.5 0 1 1 0-3 1.5 1.5 0 0 1 0 3z"/></g></svg>