<svg xmlns="http://www.w3.org/2000/svg" viewBox="0 0 16 16"><style>.st0{opacity:0}.st0,.st1{fill:#f6f6f6}.st2{fill:#424242}.st3{fill:#f0eff1}</style><g id="outline"><path class="st0" d="M0 0h16v16H0z"/><path class="st1" d="M12 3V2h-1.161A3.007 3.007 0 0 0 8.01 0a3.006 3.006 0 0 0-2.829 2h-1.17l-.001.999-2 .001v4h-.047C1.011 7 0 7.701 0 9v5c0 1.299 1.012 2 1.964 2h4c.031 0 .057-.008.087-.009L6.046 16H14V3h-2z"/></g><g id="icon_x5F_bg"><path class="st2" d="M11 4V3h-.99a2 2 0 0 0-4 0h-1l-.001 1H3.01v3H4V5h8v9H8c0 .343-.092.69-.262 1H13V4h-2zM8.02 4c-.551 0-1.01-.447-1.01-1a1 1 0 0 1 2 0c0 .553-.438 1-.99 1z"/><path class="st2" d="M5.313 8h-3.35S1 8 1 9v5c0 1 .964 1 .964 1h4C6.964 15 7 14 7 14v-3.863L5.313 8zM6 12v2H2V9h3v1h1v2z"/></g><g id="icon_x5F_fg"><path class="st3" d="M8.01 4c.553 0 1.053-.447 1.053-1s-.5-1.047-1.053-1.047c-.552 0-1.088.494-1.088 1.047s.536 1 1.088 1zM2 9h3v1h1v4H2z"/><path class="st3" d="M4 5v2h2.375L8 9.062V14h4V5z"/></g></svg>