<svg xmlns="http://www.w3.org/2000/svg" viewBox="0 0 16 16"><style>.icon-canvas-transparent{opacity:0;fill:#f6f6f6}.icon-vs-out{fill:#f6f6f6}.icon-vs-bg{fill:#424242}.icon-vs-fg{fill:#f0eff1}.icon-vs-green{fill:#393}.icon-white{fill:#fff}</style><path class="icon-canvas-transparent" d="M16 16H0V0h16v16z" id="canvas"/><path class="icon-vs-out" d="M14 15.24V16H2.01c-.023.021 0-13 0-13H4V2h1.01C5.423.836 6.716 0 8.02 0c1.305 0 2.578.836 2.99 2H12v1h2v4.76c1.205.807 2 2.18 2 3.74s-.795 2.933-2 3.74z" id="outline"/><path class="icon-vs-bg" d="M7.76 14H4V5h8v2.05c.347.039.681.112 1 .225V4h-2V3h-.99a2 2 0 0 0-4 0H5v1H3v11h5.703a4.5 4.5 0 0 1-.943-1zm.25-12c.553 0 1 .447 1 1s-.438 1-.99 1-1.01-.447-1.01-1 .448-1 1-1z" id="iconBg"/><path class="icon-vs-fg" d="M8.01 2c.553 0 1 .447 1 1s-.438 1-.99 1-1.01-.447-1.01-1 .448-1 1-1zM7 11.5A4.5 4.5 0 0 1 11.5 7c.171 0 .334.032.5.05V5H4v9h3.76A4.478 4.478 0 0 1 7 11.5z" id="iconFg"/><path class="icon-vs-green" d="M15 11.5A3.5 3.5 0 1 1 11.5 8a3.47 3.47 0 0 1 2.361.932L10.5 12.293l-1.146-1.147-.707.707 1.854 1.853 3.994-3.994c-.175-.29.505.769.505 1.788z" id="notificationBg"/><path class="icon-white" d="M10.5 12.293l3.361-3.361c.248.229.459.49.633.781L10.5 13.707l-1.854-1.853.707-.707 1.147 1.146z" id="notificationFg"/></svg>