<svg xmlns="http://www.w3.org/2000/svg" width="16" height="16"><style type="text/css">.icon-canvas-transparent{opacity:0;fill:#F6F6F6;} .icon-vs-out{fill:#F6F6F6;} .icon-vs-bg{fill:#424242;} .icon-vs-fg{fill:#F0EFF1;}</style><path class="icon-canvas-transparent" d="M16 16h-16v-16h16v16z" id="canvas"/><path class="icon-vs-out" d="M16 1v15h-7v-1h-9v-14h16z" id="outline"/><path class="icon-vs-bg" d="M5 14h-4v-12h14v7c0-.737-.405-1.375-1-1.722v-2.278h-12v8h3v1zm8-6h-1c-.553 0-1 .447-1 1v1c0 .553.447 1 1 1h1c.553 0 1-.447 1-1v-1c0-.553-.447-1-1-1zm-6 1v-1c0-.553.447-1 1-1h1c.553 0 1 .447 1 1v1c0 .553-.447 1-1 1h-1c-.553 0-1-.447-1-1zm5.5 4l2.5-1v3h-5v-3l2.5 1zm-3.5-1.333v2.333h-3v-3l2.5 1 .5-.333z" id="iconBg"/><path class="icon-vs-fg" d="M5 13h-3v-8h12v2.278c-.295-.172-.634-.278-1-.278h-1c-.415 0-.8.127-1.12.344-.273-.78-1.008-1.344-1.88-1.344h-1c-1.103 0-2 .897-2 2v1c0 .384.114.739.302 1.043l-1.302-.52v3.477z" id="iconFg"/></svg>