<svg xmlns="http://www.w3.org/2000/svg" viewBox="0 0 16 16"><style>.st0{opacity:0;fill:#fff;stroke:#000;stroke-miterlimit:10}.st1{fill:#f6f6f6}.st2{fill:#424242}.st3{fill:#68217a}.st4{fill:#f0eff1}</style><g id="outline"><path class="st0" d="M0 0h16v16H0z"/><path class="st1" d="M14.68 0H6.382l-1 2H1.984A.983.983 0 0 0 1 2.984V9c0 .384.114.738.302 1.043L0 9.523V15h4v1h7v-3h3.575c.787 0 1.425-.638 1.425-1.425V1.32A1.32 1.32 0 0 0 14.68 0z"/></g><g id="icon_x5F_bg"><path class="st2" d="M1 11v3h3v-2.334L3.5 12zM7 11h1a1 1 0 0 0 1-1V9a1 1 0 0 0-1-1H7a1 1 0 0 0-1 1v1a1 1 0 0 0 1 1zM5 8a1 1 0 0 0-1-1H3a1 1 0 0 0-1 1v1a1 1 0 0 0 1 1h1a1 1 0 0 0 1-1V8zM7.5 13L5 12v3h5v-3z"/></g><path class="st3" d="M7 1L6 3H3.099C2.492 3 2 3.492 2 4.099V6.278A1.978 1.978 0 0 1 3 6h1c.872 0 1.607.564 1.88 1.344C6.2 7.127 6.585 7 7 7h1a2 2 0 0 1 2 2v1c0 .384-.114.738-.302 1.044L11 10.523V12h2.966c.571 0 1.034-.463 1.034-1.034V2.163C15 1.52 14.479 1 13.837 1H7zm7 2H7.5L8 2h6v1z" id="color_x5F_importance"/><path class="st4" d="M14 2v1H7.5L8 2z" id="icon_x5F_fg"/></svg>