<svg xmlns="http://www.w3.org/2000/svg" viewBox="0 0 16 16"><style>.st0{fill:#f6f6f6}.st1{fill:#424242}.st2{fill:#e51400}.st3{fill:#fff}</style><path class="st0" d="M0 0h16v16H0z" id="outline"/><g id="icon_x5F_bg"><path class="st1" d="M2 2h8V1H1v5h1zM12 4h1a1 1 0 0 0 1-1V2a1 1 0 0 0-1-1h-1a1 1 0 0 0-1 1v1a1 1 0 0 0 1 1zM7.76 14H7v1h1.703a4.5 4.5 0 0 1-.943-1zM15 15v-.703c-.209.26-.443.494-.703.703H15zM14 5l-1.5 2L11 5h-1v2.275A4.469 4.469 0 0 1 11.5 7c1.422 0 2.675.673 3.5 1.703V5h-1zM3 7a1 1 0 0 0-1 1v1a1 1 0 0 0 1 1h1a1 1 0 0 0 1-1V8a1 1 0 0 0-1-1H3zM3.5 13L2 11H1v4h5v-4H5z"/></g><path class="st2" d="M8 11.5a3.5 3.5 0 1 0 7 0 3.5 3.5 0 0 0-7 0zm2.793 0l-1.147-1.146.707-.707 1.146 1.147 1.146-1.147.707.707-1.145 1.146 1.147 1.146-.707.707-1.147-1.146-1.146 1.147-.707-.707 1.146-1.147z" id="not_x5F_bg"/><path class="st3" d="M9.646 10.354l.708-.708 1.146 1.147 1.146-1.147.708.708-1.147 1.146 1.147 1.146-.708.708-1.146-1.147-1.146 1.147-.708-.708 1.147-1.146z" id="not_x5F_fg"/></svg>