<svg xmlns="http://www.w3.org/2000/svg" viewBox="0 0 16 16"><style>.st0{fill:#f6f6f6}.st1{fill:none}.st2{fill:#424242}.st3{fill:#f0eff1}</style><path class="st0" d="M16 0H7v7c-.415 0-.8.127-1.12.344A1.995 1.995 0 0 0 4 6H3c-1.103 0-2 .897-2 2v1c0 .384.114.738.302 1.043L0 9.523V15h4v1h7v-3h5V0z" id="outline"/><g id="icon_x5F_bg"><path class="st1" d="M13 10h1v1h-1zM9 4h5v1H9zM9 2h5v1H9z"/><path class="st2" d="M8 1v6c1.103 0 2 .897 2 2v1c0 .384-.114.738-.302 1.044L11 10.523V12h4V1H8zm6 10h-1v-1h1v1zm0-6H9V4h5v1zm0-2H9V2h5v1z"/><path class="st2" d="M7 11h1a1 1 0 0 0 1-1V9a1 1 0 0 0-1-1H7a1 1 0 0 0-1 1v1a1 1 0 0 0 1 1zM1 11v3h3v-2.334L3.5 12zM5 12v3h5v-3l-2.5 1zM5 8a1 1 0 0 0-1-1H3a1 1 0 0 0-1 1v1a1 1 0 0 0 1 1h1a1 1 0 0 0 1-1V8z"/></g><g id="icon_x5F_fg"><path class="st3" d="M13 10h1v1h-1zM9 2h5v1H9zM9 4h5v1H9z"/></g></svg>