<svg xmlns="http://www.w3.org/2000/svg" viewBox="0 0 16 16"><style>.icon-canvas-transparent{opacity:0;fill:#f6f6f6}.icon-vs-out{fill:#f6f6f6}.icon-vs-bg{fill:#424242}.icon-visualstudio_x0020_{fill:#68217a}.icon-vs-fg{fill:#f0eff1}</style><path class="icon-canvas-transparent" d="M0 0h16v16H0z" id="canvas"/><path class="icon-vs-out" d="M16 11.307c0-.897-.327-1.743-.904-2.399.19-.399.289-.838.289-1.292 0-.527-.147-1.017-.385-1.449V4.202A2.205 2.205 0 0 0 12.798 2h-2.18l-1-2H2.111A2.113 2.113 0 0 0 0 2.111v8.543A2.349 2.349 0 0 0 2.346 13h3.266A3.606 3.606 0 0 0 5 15v1h3v-1a.655.655 0 0 1 1.308 0v1h3v-1c0-.727-.224-1.414-.612-2h.932c.658 0 1.254-.27 1.684-.705.888.003 1.688.012 1.688.012v-1z" id="outline"/><g id="iconBg"><path class="icon-visualstudio_x0020_" d="M5.615 11.307A3.042 3.042 0 0 1 9.4 8.361a3.043 3.043 0 0 1 2.946-3.785c.611 0 1.177.185 1.654.496v-.87C14 3.538 13.462 3 12.798 3H10L9 1H2.111A1.11 1.11 0 0 0 1 2.111v8.544C1 11.398 1.602 12 2.346 12h3.352a3.014 3.014 0 0 1-.083-.693zM2 3V2h6l.5 1H2z"/><path class="icon-vs-bg" d="M13.766 9.073c.381-.37.619-.886.619-1.458a2.042 2.042 0 0 0-2.039-2.039 2.04 2.04 0 0 0-2.038 2.039c0 .572.238 1.087.618 1.458a2.667 2.667 0 0 0-.814.814 2.031 2.031 0 0 0-1.458-.618 2.04 2.04 0 0 0-2.039 2.038c0 .572.238 1.088.619 1.458A2.652 2.652 0 0 0 6 15h1c0-.912.742-1.654 1.654-1.654.912 0 1.654.742 1.654 1.654h1c0-.94-.495-1.763-1.234-2.235.38-.37.619-.886.619-1.458 0-.912.742-1.654 1.653-1.654.912 0 1.654.742 1.654 1.654h1a2.65 2.65 0 0 0-1.234-2.234zm-5.112 3.273a1.04 1.04 0 0 1-1.039-1.039 1.04 1.04 0 0 1 2.078 0 1.04 1.04 0 0 1-1.039 1.039zm2.654-4.731a1.04 1.04 0 0 1 1.038-1.039 1.04 1.04 0 0 1 1.039 1.039 1.038 1.038 0 1 1-2.077 0z"/></g><path class="icon-vs-fg" d="M8 2l.5 1H2V2h6z" id="iconFg"/></svg>