<svg xmlns="http://www.w3.org/2000/svg" viewBox="0 0 16 16"><style>.icon-canvas-transparent{opacity:0;fill:#f6f6f6}.icon-vs-out{fill:#f6f6f6}.icon-vs-bg{fill:#424242}</style><path class="icon-canvas-transparent" d="M16 16H0V0h16v16z" id="canvas"/><path class="icon-vs-out" d="M7 16v-1c0-1.102-.897-2-2-2s-2 .898-2 2v1H0v-1c0-1.463.631-2.811 1.706-3.745A3.985 3.985 0 0 1 1 9c0-2.206 1.794-4 4-4 .909 0 1.774.315 2.467.862A3.973 3.973 0 0 1 7 4c0-2.206 1.794-4 4-4s4 1.794 4 4a3.98 3.98 0 0 1-.706 2.254A4.944 4.944 0 0 1 16 10v1h-3v-1c0-1.103-.898-2-2-2-1.099 0-1.937 1.005-2.003 1.324v.097l-.016.054-.059.301a3.953 3.953 0 0 1-.626 1.48A4.943 4.943 0 0 1 10 15v1H7z" id="outline"/><g id="iconBg"><path class="icon-vs-bg" d="M12.754 6.423A2.993 2.993 0 0 0 14 4c0-1.654-1.346-3-3-3S8 2.346 8 4c0 .999.495 1.879 1.248 2.424a4.018 4.018 0 0 0-1.532 1.322A2.996 2.996 0 0 0 5 6C3.346 6 2 7.346 2 9c0 .998.495 1.877 1.246 2.423C1.921 12.075 1 13.426 1 15h1c0-1.654 1.346-3 3-3s3 1.346 3 3h1c0-1.574-.921-2.925-2.246-3.577a2.997 2.997 0 0 0 1.187-1.839L8 9.282C8 8.542 9.313 7 11 7c1.654 0 3 1.346 3 3h1c0-1.574-.921-2.925-2.246-3.577zM5 11c-1.103 0-2-.898-2-2 0-1.103.897-2 2-2s2 .897 2 2c0 1.102-.897 2-2 2zm6-5c-1.103 0-2-.897-2-2s.897-2 2-2c1.102 0 2 .897 2 2s-.898 2-2 2z"/></g></svg>