<svg xmlns="http://www.w3.org/2000/svg" viewBox="0 0 16 16"><style>.st0{opacity:0}.st0,.st1{fill:#f6f6f6}.st2{fill:none}.st3{fill:#424242}.st4{fill:#f0eff1}</style><g id="outline"><path class="st0" d="M0 0h16v16H0z"/><path class="st1" d="M16 6h-2.414l-.2.2a6.381 6.381 0 0 0-1.415-1.68L11.614 4c-.364-.669-.968-1.222-1.709-1.574L10.617 1H5.382l.712 1.426c-.746.355-1.352.912-1.716 1.588L4 4.552c-.184.165-.356.34-.519.526a2.58 2.58 0 0 0-.788-.065c-.833.063-1.604.524-2.117 1.265-.474.687-.699 1.557-.632 2.45.131 1.759 1.375 3.151 2.874 3.266.41.704.958 1.32 1.611 1.808l.266.198h6.608l.266-.197c.229-.17.448-.361.657-.571l.153.077.531-.889c.171-.243.325-.499.422-.698L16 7.277V6zm-6.129 5H6.132a2.824 2.824 0 0 1-.713-1.128 3.85 3.85 0 0 1-.103-.366C5.285 9.341 5.25 9.175 5.25 9c0-.21.026-.424.081-.656a2.94 2.94 0 0 1 .228-.597c.146-.278.341-.532.571-.747h3.74a2.71 2.71 0 0 1 .001 4z"/></g><g id="icon_x5F_bg"><path class="st2" d="M8 4c-.783 0-1.442.419-1.689 1H9.69C9.442 4.419 8.783 4 8 4zM1.979 8.583c.065.873.562 1.462 1.117 1.421.005 0 .009-.003.014-.003a4.773 4.773 0 0 1-.078-.481A4.467 4.467 0 0 1 3 9c0-.303.036-.597.088-.885.007-.04.013-.08.022-.119a4.9 4.9 0 0 1 .252-.839v-.002a.779.779 0 0 0-.491-.142c-.554.041-.957.698-.892 1.57zM10.229 6H5.77a3.806 3.806 0 0 0-1.096 1.282l-.022.049c-.123.243-.223.5-.291.77l-.005.026c-.068.28-.106.572-.106.873 0 .239.041.468.084.694.038.171.083.34.14.504.25.722.694 1.354 1.296 1.802h4.459a3.732 3.732 0 0 0 1.521-3 3.732 3.732 0 0 0-1.521-3z"/><path class="st3" d="M14 7l-1 1c-.233-1.25-1.021-2.24-2-2.977V5h-.06c-.246-1.012-1.227-1.798-2.457-1.964L9 2H7l.518 1.036C6.287 3.202 5.307 3.988 5.061 5H5v.022a5.112 5.112 0 0 0-1.188 1.271c-.315-.2-.67-.311-1.044-.282C1.656 6.094.838 7.276.941 8.654c.103 1.377 1.087 2.426 2.198 2.343.092-.007.179-.031.267-.053A5.07 5.07 0 0 0 5.026 13h5.946c.384-.285.72-.629 1.01-1.009L12 12l.093-.154c.143-.203.271-.416.383-.639L15 7h-1zm-10.637.157a4.816 4.816 0 0 0-.253.839c-.009.04-.015.079-.022.119A4.963 4.963 0 0 0 3 9c0 .176.012.349.032.52.017.163.045.323.078.481-.005 0-.009.003-.014.003-.555.041-1.052-.548-1.117-1.421-.065-.872.338-1.529.894-1.571a.779.779 0 0 1 .491.142l-.001.003zM8 4c.783 0 1.442.419 1.689 1H6.311c.247-.581.906-1 1.689-1zm2.229 8H5.77a3.768 3.768 0 0 1-1.296-1.802 4.523 4.523 0 0 1-.14-.504A3.69 3.69 0 0 1 4.25 9c0-.301.038-.593.106-.873l.005-.027c.068-.271.168-.527.291-.77l.022-.048A3.806 3.806 0 0 1 5.77 6h4.46a3.735 3.735 0 0 1 1.521 3 3.736 3.736 0 0 1-1.522 3z"/></g><g id="icon_x5F_fg"><path class="st4" d="M8 4c-.783 0-1.442.419-1.689 1H9.69C9.442 4.419 8.783 4 8 4zM10.229 6H5.77a3.734 3.734 0 0 0-1.52 3c0 1.232.603 2.316 1.52 3h4.459a3.732 3.732 0 0 0 1.521-3 3.732 3.732 0 0 0-1.521-3zM2.873 7.012c-.556.042-.959.699-.894 1.571.065.873.562 1.462 1.117 1.421.005 0 .009-.003.014-.003A4.92 4.92 0 0 1 3 9c0-.654.133-1.275.363-1.846a.778.778 0 0 0-.49-.142z"/></g></svg>