<svg xmlns="http://www.w3.org/2000/svg" viewBox="0 0 16 16"><style>.st0{fill:#f6f6f6}.st1{fill:#424242}.st2{fill:#f0eff1}</style><path class="st0" d="M16 6.379l-3-3V0H3v3.379l-3 3v.243l3.646 3.646L5 8.914V10h4.303a4.987 4.987 0 0 0-.226 1H9v5h7l-.08-5c-.093-.875-.367-2.093-1.641-2.658L16 6.621v-.242zM10 4h1.086l-.854.854L11.879 6.5 11 7.379V7h-1V4zM6 7H5v.379L4.121 6.5l1.646-1.646L4.914 4H6v3z" id="outline"/><g id="icon_x5F_bg"><path class="st1" d="M12 3V1H4v2h1v-.5a.5.5 0 0 1 .5-.5H7v5.5a.5.5 0 0 1-.5.5H6v1h4V8h-.5a.5.5 0 0 1-.5-.5V2h1.5a.5.5 0 0 1 .5.5V3h1zM3.646 4.146L1.293 6.5l2.353 2.354.708-.708L2.707 6.5l1.647-1.646zM11.69 8.103c.273-.044.57-.071.903-.071.199 0 .36.028.536.046L14.707 6.5l-2.353-2.354-.707.707L13.293 6.5 11.69 8.103z"/></g><g id="not_x5F_bg"><path class="st1" d="M14 12h-4v3h5v-3h-1zm-1 2h-1v-1h1v1zM11.019 11.563c.059-.729.334-1.541 1.575-1.541 1.249 0 1.391.795 1.404 1.541h.966c-.085-1.119-.144-2.531-2.37-2.531-2.396 0-2.445 1.406-2.576 2.531h1.001z"/></g><path class="st2" d="M12 13h1v1h-1z" id="not_x5F_fg"/></svg>