<svg xmlns="http://www.w3.org/2000/svg" viewBox="0 0 16 16" enable-background="new 0 0 16 16"><style type="text/css">.icon-canvas-transparent{opacity:0;fill:#F6F6F6;} .icon-vs-out{fill:#F6F6F6;} .icon-vs-bg{fill:#424242;} .icon-vs-fg{fill:#F0EFF1;}</style><path class="icon-canvas-transparent" d="M16 16h-16v-16h16v16z" id="canvas"/><path class="icon-vs-out" d="M16 0h-15v8.031c-.62.833-1 1.853-1 2.969 0 1.116.38 2.136 1 2.969v.031h.026c.913 1.207 2.347 2 3.974 2s3.061-.793 3.974-2h7.026v-14z" id="outline"/><path class="icon-vs-bg" d="M2 1v6.026c.838-.635 1.87-1.026 3-1.026h-2v-2h3v2h-1c1.116 0 2.136.38 2.969 1h2.031v2h-.424c.14.318.252.651.323 1h.101v2h-.101c-.071.349-.183.682-.323 1h5.424v-12h-13zm8 5h-3v-2h3v2zm4 6h-3v-2h3v2zm0-3h-3v-2h3v2zm0-3h-3v-2h3v2zm-9 1c-2.209 0-4 1.791-4 4s1.791 4 4 4 4-1.791 4-4-1.791-4-4-4zm0 7c-1.655 0-3-1.345-3-3s1.345-3 3-3 3 1.345 3 3-1.345 3-3 3zm2-3v1h-3v-3h1v2h2z" id="iconBg"/><g id="iconFg"><path class="icon-vs-fg" d="M9.899 10h.101v1c0-.342-.035-.677-.101-1zm.101 2v-1c0 .342-.035.677-.101 1h.101zm-.424-3h.424v-2h-2.031c.694.517 1.255 1.199 1.607 2zm-3.576-3v-2h-3v2h3zm5-2v2h3v-2h-3zm0 5h3v-2h-3v2zm0 3h3v-2h-3v2zm-4-6h3v-2h-3v2zm-2 2c-1.655 0-3 1.345-3 3s1.345 3 3 3 3-1.345 3-3-1.345-3-3-3zm2 4h-3v-3h1v2h2v1z"/></g></svg>