<svg xmlns="http://www.w3.org/2000/svg" viewBox="0 0 16 16"><style>.st0{fill:#f6f6f6}.st1{fill:#424242}.st2{fill:#f0eff1}</style><path class="st0" d="M3.646 10.268L5 8.914V10h3.555A3.955 3.955 0 0 0 8 12a4 4 0 0 0 8 0c0-1.46-.789-2.724-1.957-3.422L16 6.621v-.242l-3-3V0H3v3.379l-3 3v.243l3.646 3.646zM10 4h1.086l-.854.854L11.879 6.5 11 7.379V7h-1V4zM4.914 4H6v3H5v.379L4.121 6.5l1.646-1.646L4.914 4z" id="outline"/><g id="icon_x5F_bg"><path class="st1" d="M12 9c-1.654 0-3 1.346-3 3s1.346 3 3 3 3-1.346 3-3-1.346-3-3-3zm1.587 1.455l-.042-.042a.416.416 0 0 0 .042.042zM9.783 12c0-1.223.994-2.217 2.217-2.217.47 0 .904.148 1.264.398l-3.082 3.082A2.202 2.202 0 0 1 9.783 12zm.63 1.545l.042.042a.416.416 0 0 0-.042-.042zm1.587.672c-.47 0-.904-.148-1.264-.398l3.082-3.082c.25.359.398.794.398 1.264A2.217 2.217 0 0 1 12 14.217zM3.646 4.146L1.293 6.5l2.353 2.354.708-.708L2.707 6.5l1.647-1.646zM11.771 8.022c.077-.004.15-.022.229-.022.366 0 .714.065 1.051.157L14.707 6.5l-2.353-2.354-.707.707L13.293 6.5l-1.522 1.522zM6.5 8H6v1h3.379c.192-.168.399-.316.621-.446V8h-.5a.5.5 0 0 1-.5-.5V2h1.5a.5.5 0 0 1 .5.5V3h1V1H4v2h1v-.5a.5.5 0 0 1 .5-.5H7v5.5a.5.5 0 0 1-.5.5z"/></g><g id="not_x5F_fg"><path class="st2" d="M9.783 12c0-1.223.994-2.217 2.217-2.217.47 0 .904.148 1.264.398l-3.082 3.082A2.202 2.202 0 0 1 9.783 12zM12 14.217c-.47 0-.904-.148-1.264-.398l3.082-3.082c.25.359.398.794.398 1.264A2.217 2.217 0 0 1 12 14.217z"/></g></svg>