<svg xmlns="http://www.w3.org/2000/svg" viewBox="0 0 16 16"><style>.st0{fill:#f6f6f6}.st1{fill:#424242}</style><path class="st0" d="M16 6.379l-3-3V0H3v3.379l-3 3v.242L3.379 10h.535L5 8.914V10h6V8.914l.602.602L11.156 11H9v1.5l1.393 1.045L9.656 16h1.677l1.167-.875 1.167.875h1.677l-.737-2.455L16 12.5V11h-2.156l-.513-1.71L16 6.621z" id="outline"/><g id="icon_x5F_bg"><path class="st1" d="M12 3V1H4v2h1v-.5a.5.5 0 0 1 .5-.5H7v5.5a.5.5 0 0 1-.5.5H6v1h4V8h-.5a.5.5 0 0 1-.5-.5V2h1.5a.5.5 0 0 1 .5.5V3h1zM12.354 4.146l-.708.708L13.293 6.5l-1.647 1.646.708.708L14.707 6.5zM3.646 4.146L1.293 6.5l2.353 2.354.708-.708L2.707 6.5l1.647-1.646z"/></g><path class="st1" d="M13.449 13.163L15 12h-1.9l-.6-2-.6 2H10l1.551 1.163L11 15l1.5-1.125L14 15z" id="not_x5F_bg"/></svg>