<svg xmlns="http://www.w3.org/2000/svg" viewBox="0 0 16 16"><style>.st0{opacity:0}.st0,.st1{fill:#f6f6f6}.st2{fill:#424242}.st3{fill:#f0eff1}</style><g id="outline"><path class="st0" d="M0 0h16v16H0z"/><path class="st1" d="M16 6.379l-3-3V0H3v3.379l-3 3v.242L3.379 10h.535L5 8.914V10h4v6h7V9h-2.379L16 6.621v-.242z"/></g><g id="icon_x5F_bg"><path class="st2" d="M12 3V1H4v2h1v-.5a.5.5 0 0 1 .5-.5H7v5.5a.5.5 0 0 1-.5.5H6v1h4V8h-.5a.5.5 0 0 1-.5-.5V2h1.5a.5.5 0 0 1 .5.5V3h1zM12.354 4.146l-.708.708L13.293 6.5l-1.647 1.646.708.708L14.707 6.5zM3.646 4.146L1.293 6.5l2.353 2.354.708-.708L2.707 6.5l1.647-1.646zM10 10v5h5v-5h-5zm4 3l-1 1v-1.5L11.5 14l-.5-.5 1.5-1.5H11l1-1h2v2z"/></g><path class="st3" d="M14 11v2l-1 1v-1.5L11.5 14l-.5-.5 1.5-1.5H11l1-1z" id="icon_x5F_fg"/></svg>