<svg xmlns="http://www.w3.org/2000/svg" viewBox="0 0 16 16"><style>.st0{fill:#f6f6f6}.st1{fill:#424242}.st2{fill:#f0eff1}</style><path class="st0" d="M16 0v16H0V9h6V0h10z" id="outline"/><g id="icon_x5F_bg"><path class="st1" d="M8 3h6v3H8zM1 14h1v1H1zM1 10h1v1H1zM3 10h1v1H3zM3 14h1v1H3zM1 12h1v1H1zM5 14h1v1H5zM9 10h1v1H9zM5 10h1v1H5z"/><path class="st1" d="M7 1v8h1V7h6v3h-3v1h3v3h-3v1h4V1H7zm7 5H8V3h6v3zM9 14h1v1H9z"/><path class="st1" d="M9 12h1v1H9zM7 10h1v1H7zM7 14h1v1H7z"/></g><g id="icon_x5F_fg"><path class="st2" d="M2 11h7v3H2zM11 11h3v3h-3zM8 9h3v1h3V7H8zM8 3h6v3H8z"/></g></svg>