<svg xmlns="http://www.w3.org/2000/svg" viewBox="0 0 16 16"><style>.icon-canvas-transparent{opacity:0;fill:#f6f6f6}.icon-vs-out{fill:#f6f6f6}.icon-vs-bg{fill:#424242}</style><path class="icon-canvas-transparent" d="M16 16H0V0h16v16z" id="canvas"/><path class="icon-vs-out" d="M16 9.379v.242l-3.646 3.646L11 11.914V13H5v-1.086l-1.354 1.354L0 9.621v-.242l3-3V3h10v3.379l3 3z" id="outline"/><g id="iconBg"><path class="icon-vs-bg" d="M11 6v-.5c0-.277-.224-.5-.5-.5H9v5.5c0 .275.224.5.5.5h.5v1H6v-1h.5a.5.5 0 0 0 .5-.5V5H5.5a.5.5 0 0 0-.5.5V6H4V4h8v2h-1zm1.354 1.146l-.707.707L13.293 9.5l-1.647 1.646.707.707L14.707 9.5l-2.353-2.354zm-8.708 0L1.293 9.5l2.354 2.354.707-.707L2.707 9.5l1.646-1.646-.707-.708z"/></g></svg>