<svg xmlns="http://www.w3.org/2000/svg" viewBox="0 0 16 16"><style>.st0{opacity:0}.st0,.st1{fill:#f6f6f6}.st2{fill:#424242}.st3{fill:#f0eff1}</style><g id="outline"><path class="st0" d="M0 0h16v16H0z"/><path class="st1" d="M12.414 4h-1.029L8.061 1H2c-.97 0-2 .701-2 2v10c0 1.299 1.03 2 2 2h8c1.299 0 2-1.03 2-2v-1h.414L16 8.414v-.828L12.414 4z"/></g><g id="icon_x5F_bg"><path class="st2" d="M12 5h-2l2 2H9v2h3l-2 2h2l3-3z"/><path class="st2" d="M10 12v1H2V3h5v3H9.586l-2-2H9.88L7.64 2H1.964S1 2 1 3v10c0 1 .964 1 .964 1h8c1 0 1.035-1 1.035-1v-1H10z"/><path class="st2" d="M3 5h3v1H3zM3 7h5v2H3zM3 10h3v1H3z"/></g><path class="st3" d="M7.586 12l2-2H8V9H3V7h5V6H7V3H2v10h8v-1H7.586zM3 5h3v1H3V5zm3 6H3v-1h3v1z" id="icon_x5F_fg"/></svg>