<svg xmlns="http://www.w3.org/2000/svg" viewBox="0 0 16 16"><style>.st0{fill:#f6f6f6}.st1{fill:none}.st2{fill:#424242}.st3{fill:#a1260d}.st4{fill:#f0eff1}</style><path class="st0" d="M15.941 7.369l-.1-.769-1.123-.141.698-.895-.476-.614a5.037 5.037 0 0 0-.89-.891l-.614-.477-.896.7-.044-.354-.191-.783-.769-.099C11.359 3.021 11.184 3 11 3s-.359.021-.632.059L10 3.106V1.044L10.044 1H10V0H0v8h4.021l-.438.565.698.895-.354.044-.782.191-.099.769C3.021 10.641 3 10.816 3 11s.021.359.059.632l.099.768 1.124.14-.698.896.475.614c.257.332.557.632.89.891l.614.477.897-.698.044.354.191.783.77.099c.176.023.352.044.535.044s.359-.021.631-.059l.769-.1.14-1.123.897.698.614-.477c.333-.259.632-.559.89-.891l.476-.614-.698-.896.354-.044.782-.191.04-.31.542.422.614-.477c.333-.259.632-.559.89-.891l.476-.614-.698-.893.354-.044.782-.191.099-.769C15.979 8.359 16 8.183 16 8s-.021-.359-.059-.631z" id="outline"/><g id="icon_x5F_bg"><path class="st1" d="M8 9a2 2 0 1 0 .001 4.001A2 2 0 0 0 8 9zm0 3c-.554 0-1-.447-1-1s.446-1 1-1 1 .447 1 1-.446 1-1 1z"/><circle class="st2" cx="8" cy="11" r="1"/><path class="st2" d="M14.949 8.504C14.971 8.337 15 8.173 15 8s-.029-.337-.051-.504l-1.235-.154a2.747 2.747 0 0 0-.331-.795l.768-.984a3.972 3.972 0 0 0-.712-.713l-.985.768a2.786 2.786 0 0 0-.796-.331l-.153-1.235C11.337 4.029 11.173 4 11 4s-.337.029-.504.051l-.153 1.235a2.806 2.806 0 0 0-.343.112v.893A1.966 1.966 0 0 1 11 6a2 2 0 0 1 2 2c0 .427-.136.821-.364 1.146.205.513.319 1.067.344 1.647l.459.357c.267-.207.505-.445.712-.713l-.768-.984c.149-.244.263-.51.331-.795l1.235-.154z"/><path class="st2" d="M11.981 8.005c0-.051.016-.1.008-.152a.988.988 0 0 0-.994-.835c.373.282.704.613.986.987zM10.714 10.342a2.747 2.747 0 0 0-.331-.795l.768-.984a3.972 3.972 0 0 0-.712-.713l-.986.767a2.786 2.786 0 0 0-.796-.331L8.622 8H7.378l-.035.286a2.786 2.786 0 0 0-.796.331L5.755 8h-.344a3.98 3.98 0 0 0-.561.563l.768.984c-.149.244-.263.51-.331.795l-1.235.154C4.029 10.663 4 10.827 4 11s.029.337.051.504l1.235.154c.068.285.182.551.331.795l-.767.985c.207.268.445.506.712.713l.985-.768c.243.148.51.262.796.331l.153 1.235c.167.022.331.051.504.051s.337-.029.504-.051l.153-1.235c.286-.069.553-.183.796-.331l.985.768c.267-.207.505-.445.712-.713l-.768-.984c.149-.244.263-.51.331-.795l1.235-.154c.023-.168.052-.332.052-.505s-.029-.337-.051-.504l-1.235-.154zM8 13a2 2 0 1 1 .001-4.001A2 2 0 0 1 8 13z"/></g><path class="st3" d="M1 1v6h8V1H1zm6.632 5H6.3L5 4.666 3.634 6H2.302l1.999-2-1.999-2h1.332L5 3.333 6.3 2h1.332L5.634 4l1.998 2z" id="color_x5F_action"/><g id="icon_x5F_fg"><circle class="st1" cx="8" cy="11" r="1"/><path class="st4" d="M7.632 6L5.634 4l1.998-2H6.3L5 3.333 3.634 2H2.302l1.999 2-1.999 2h1.332L5 4.666 6.3 6zM11 6c-.427 0-.821.136-1.146.364a4.96 4.96 0 0 1 1.123.64c.008 0 .015-.004.023-.004a1 1 0 0 1 1 1c0 .008-.005.014-.005.022.258.345.479.718.641 1.124C12.864 8.821 13 8.427 13 8a2 2 0 0 0-2-2zM8 9a2 2 0 1 0 .001 4.001A2 2 0 0 0 8 9zm0 3a1 1 0 1 1 0-2 1 1 0 0 1 0 2z"/></g></svg>