<svg xmlns="http://www.w3.org/2000/svg" viewBox="0 0 16 16"><style>.icon-canvas-transparent{opacity:0;fill:#f6f6f6}.icon-vs-out{fill:#f6f6f6}.icon-vs-bg{fill:#424242}</style><path class="icon-canvas-transparent" d="M16 16H0V0h16v16z" id="canvas"/><path class="icon-vs-out" d="M15.237 7.3a1.536 1.536 0 0 0-.769-.208c-.236 0-.465.056-.668.159L11.667 6.02A1.521 1.521 0 0 0 11 4.858V3h1V0H4v3h1v1.536L.903 10.523a3.492 3.492 0 0 0-.207 3.61A3.492 3.492 0 0 0 3.792 16h4.083l-.013-.042c.108.026.218.04.33.042h4.016a3.493 3.493 0 0 0 3.096-1.866 3.495 3.495 0 0 0 .278-2.5l-.343-1.339.57-.987c.191-.329.241-.714.141-1.085a1.528 1.528 0 0 0-.713-.923z" id="outline"/><g id="iconBg"><path class="icon-vs-bg" d="M14.613 11.882a2.483 2.483 0 0 1-.193 1.785A2.497 2.497 0 0 1 12.208 15H9.925l1.59-2.752a1.802 1.802 0 0 0 1.461.759c.608 0 1.173-.321 1.473-.839l.164-.286zm-7.958 1.782l1.827-3.165a1.809 1.809 0 0 1-.73-.233A1.761 1.761 0 0 1 6.891 9H4.369L7 5.154V2h2v2.784a1.701 1.701 0 0 1 1-.423V2h1V1H5v1h1v2.846l-4.271 6.242a2.496 2.496 0 0 0-.148 2.579A2.494 2.494 0 0 0 3.792 15h2.725a1.666 1.666 0 0 1 .138-1.336zm8.082-5.498c-.239-.138-.534-.075-.659.141l-.113.195-3.464-2 .113-.195c.125-.216.032-.503-.207-.641s-.534-.075-.659.141L8.169 8.542c-.125.216-.032.503.208.641s.533.075.658-.141l.113-.195 1.299.75-2.707 4.689c-.125.216-.032.503.207.641s.534.075.659-.141l2.707-4.689 1.299.75-.113.195c-.125.216-.032.503.207.641s.534.075.659-.141l1.579-2.735c.125-.216.032-.503-.207-.641z"/></g></svg>