<svg xmlns="http://www.w3.org/2000/svg" viewBox="0 0 16 16" enable-background="new 0 0 16 16"><style type="text/css">.icon-canvas-transparent{opacity:0;fill:#F6F6F6;} .icon-vs-out{fill:#F6F6F6;} .icon-vs-red{fill:#E51400;}</style><path class="icon-canvas-transparent" d="M16 16h-16v-16h16v16z" id="canvas"/><path class="icon-vs-out" d="M11 14v-12h4v12h-4zm-5.5-3.525l-2.47 2.47-2.474-2.475 2.469-2.47-2.47-2.47 2.475-2.474 2.47 2.47 2.47-2.47 2.475 2.475-2.47 2.469 2.47 2.47-2.475 2.474-2.47-2.469z" id="outline"/><path class="icon-vs-red" d="M14 10h-2v-7h2v7zm0 1h-2v2h2v-2zm-7.439-3l2.47 2.47-1.061 1.06-2.47-2.469-2.47 2.47-1.06-1.061 2.469-2.47-2.469-2.47 1.06-1.06 2.47 2.47 2.47-2.47 1.06 1.06-2.469 2.47z" id="iconBg"/></svg>