<svg xmlns="http://www.w3.org/2000/svg" viewBox="0 0 16 16"><style>.icon-canvas-transparent{opacity:0;fill:#f6f6f6}.icon-vs-out{fill:#f6f6f6}.icon-vs-bg{fill:#424242}.icon-vs-fg{fill:#f0eff1}.icon-folder{fill:#dcb67a}</style><path class="icon-canvas-transparent" d="M0 0h16v16H0z" id="canvas"/><path class="icon-vs-out" d="M14.5 2h-2.882l-1-2H3.5C2.673 0 2 .673 2 1.5V5h-.059C1 5 0 5.701 0 7v7c0 1.299 1 2 1.941 2h6c1.426 0 2.011-1.161 2.059-2v-2h4.5c.827 0 1.5-.673 1.5-1.5v-7c0-.827-.673-1.5-1.5-1.5z" id="outline"/><g id="iconBg"><path class="icon-folder" d="M14.5 3H11l-1-2H3.5a.5.5 0 0 0-.5.5V5h3.982L10 7.688V11h4.5a.5.5 0 0 0 .5-.5v-7a.5.5 0 0 0-.5-.5zM4 3V2h5l.5 1H4z"/><path class="icon-vs-bg" d="M6.602 6h-4.66C1.941 6 1 6 1 7v7c0 1 .941 1 .941 1h6C8.941 15 9 14 9 14V8.136L6.602 6zM8 14H2V7h4v2h2v5zm-1-3H3v-1l4 .004V11zm0 2H3v-1h4v1z"/></g><path class="icon-vs-fg" d="M4 2v1h5.5L9 2z" id="iconFg"/></svg>