<svg xmlns="http://www.w3.org/2000/svg" viewBox="0 0 16 16"><style>.icon-canvas-transparent{opacity:0;fill:#f6f6f6}.icon-vs-out{fill:#f6f6f6}.icon-vs-bg{fill:#424242}.icon-vs-fg{fill:#f0eff1}.icon-vs-green{fill:#393}.icon-vs-red{fill:#e51400}.icon-white{fill:#fff}</style><path class="icon-canvas-transparent" d="M16 16H0V0h16v16z" id="canvas"/><path class="icon-vs-out" d="M16 12.209v.453L15.221 15H7.294c-.77.616-1.733 1-2.794 1A4.505 4.505 0 0 1 0 11.5C0 10.079.675 8.825 1.706 8 .675 7.175 0 5.921 0 4.5 0 2.019 2.019 0 4.5 0c1.953 0 3.602 1.258 4.224 3H13.5v3h-1v.709l3.5 5.5z" id="outline"/><path class="icon-vs-fg" d="M8.318 9.149l1.026-1.612.156-.246V5h1v2.291l.156.246L12.224 10H8.736a4.511 4.511 0 0 0-.418-.851z" id="iconFg"/><path class="icon-vs-bg" d="M15 12.5l-.5 1.5H8.238c.48-.716.762-1.575.762-2.5a4.38 4.38 0 0 0-.264-1.5h3.487l-1.567-2.463-.156-.246V5h-1v2.291l-.156.246-1.026 1.612a4.57 4.57 0 0 0-.66-.825L8.5 7v-.468c.317-.609.5-1.297.5-2.032 0-.171-.032-.334-.051-.5H12.5v1h-1v2l3.5 5.5z" id="iconBg"/><g id="notificationBg"><path class="icon-vs-green" d="M8 4.5C8 6.43 6.43 8 4.5 8S1 6.43 1 4.5 2.57 1 4.5 1 8 2.57 8 4.5z"/><path class="icon-vs-red" d="M8 11.5a3.5 3.5 0 1 1-7 0 3.5 3.5 0 0 1 7 0z"/></g><g id="notificationFg"><path class="icon-white" d="M6.354 10.354L5.207 11.5l1.146 1.146-.707.707L4.5 12.207l-1.146 1.147-.707-.707L3.793 11.5l-1.146-1.146.707-.707L4.5 10.793l1.146-1.147.708.708zM6.75 2H5.625L3.938 5.75 3.375 5H2.25l1.125 2H4.5l2.25-5z"/></g></svg>