<svg xmlns="http://www.w3.org/2000/svg" viewBox="0 0 16 16"><style>.icon-canvas-transparent{opacity:0;fill:#f6f6f6}.icon-vs-out{fill:#f6f6f6}.icon-vs-bg{fill:#424242}.icon-vs-fg{fill:#f0eff1}</style><path class="icon-canvas-transparent" d="M16 16H0V0h16v16z" id="canvas"/><path class="icon-vs-out" d="M15.424 11.959A2 2 0 0 1 13.668 13H7.414l-2 2H.586l2-2H0V9h2.586l-2-2h4.828l.068.068L7 4.707V4H6V1h7v3h-1v.706l3.351 5.212c.396.617.423 1.398.073 2.041z" id="outline"/><path class="icon-vs-bg" d="M5 8l3 3-3 3H3l2-2H1v-2h4L3 8h2zm8.668 4H8.414l1-1-3.208-3.209L8 5V3H7V2h5v1h-1v2l3.51 5.459A1 1 0 0 1 13.668 12zm-1.944-4L10 5.291V3H9v2.291L7.276 8h4.448z" id="iconBg"/><path class="icon-vs-fg" d="M10 3v2.291L11.724 8H7.276L9 5.291V3h1z" id="iconFg"/></svg>