<svg xmlns="http://www.w3.org/2000/svg" viewBox="0 0 16 16"><style>.icon-canvas-transparent{opacity:0;fill:#f6f6f6}.icon-vs-out{fill:#f6f6f6}.icon-vs-bg{fill:#424242}.icon-vs-fg{fill:#f0eff1}</style><g id="canvas"><path class="icon-canvas-transparent" d="M16 16H0V0h16v16z"/><path class="icon-canvas-transparent" d="M16 16H0V0h16v16z"/></g><path class="icon-vs-out" d="M15.424 10.959A2 2 0 0 1 13.668 12H8v1.58L3.766 16h-.543L0 14.066V10.42l4.243-2.424L7 3.707V3H6V0h7v3h-1v.706l3.351 5.212c.396.617.423 1.398.073 2.041z" id="outline"/><path class="icon-vs-bg" d="M4.5 9L1 11v2.5L3.5 15 7 13v-2.5L4.5 9zm-1 3L2 11l2.5-1.5 1.5 1L3.5 12zm11.01-2.541L11 4V2h1V1H7v1h1v2L5.247 8.282 8 9.934V11h5.668a1 1 0 0 0 .842-1.541zM7.276 7L9 4.291V2h1v2.291L11.724 7H7.276z" id="iconBg"/><path class="icon-vs-fg" d="M4.5 9.5l1.5 1L3.5 12 2 11l2.5-1.5zM9 2v2.291L7.276 7h4.447L10 4.291V2H9z" id="iconFg"/></svg>