<svg xmlns="http://www.w3.org/2000/svg" viewBox="0 0 16 16"><style>.icon-canvas-transparent{opacity:0;fill:#f6f6f6}.icon-vs-out{fill:#f6f6f6}.icon-vs-bg{fill:#424242}.icon-vs-fg{fill:#f0eff1}.icon-folder{fill:#dcb67a}</style><path class="icon-canvas-transparent" d="M.041-.025h16v16h-16z" id="canvas"/><path class="icon-vs-out" d="M15.962 10h-.879l.621-.621-.071-.071c.183-.259.289-.576.289-.934V3.648c0-1.028-.825-1.628-1.656-1.673h-1.74l-1.007-2H4.922v5h-4v3h1v.735L0 12.073v.821l1.387 2.081h6.07l.447-.67 1.437 1.437.621-.621V16h3v-.879l.621.621 2.121-2.121-.621-.621h.879v-3zm-8.121 0H7.66l-.014-.025h.17l.025.025z" id="outline"/><g id="iconBg"><path class="icon-folder" d="M7 8v.734L7.152 9h.549l1.717-1.717.621.621v-.879h3v.879l.621-.621 1.309 1.309A.684.684 0 0 0 15 8.399V3.673c0-.637-.656-.673-.656-.673H12v.025L10.98 1H6v4h2v3H7zm0-5V2h2.98l.5 1H7z"/><path class="icon-vs-bg" d="M1 12.5L2 14h5l1-1.5L6 9V7h1V6H2v1h1v2l-2 3.5zM3.032 11l.8-1.445L4 9.303V7h1v2.303l.168.252.8 1.445H3.032zM15 11h-2.293l1.621-1.621-.707-.708L12 10.292V8h-1v2.292L9.379 8.671l-.708.708L10.293 11H8v1h2.293l-1.622 1.621.708.707L11 12.707V15h1v-2.293l1.621 1.621.707-.707L12.707 12H15v-1zm-3 1h-1v-1h1v1z"/></g><path class="icon-vs-fg" d="M9.97 2l.5 1H7V2h2.97zM4.11 6.975v2.312l-1.155 1.688H5.89L4.829 9.278V6.975H4.11z" id="notificationFg"/></svg>