<svg xmlns="http://www.w3.org/2000/svg" viewBox="0 0 16 16"><style>.icon-canvas-transparent{opacity:0;fill:#f6f6f6}.icon-vs-out{fill:#f6f6f6}.icon-vs-bg{fill:#424242}.icon-vs-fg{fill:#f0eff1}</style><path class="icon-canvas-transparent" d="M16 16H0V0h16v16z" id="canvas"/><path class="icon-vs-out" d="M15 0v15h-1.845a1.795 1.795 0 0 1-1.602.999c-.704 0-1.308-.41-1.604-.999h-.985c-.362.626-1.006 1-1.73 1H1.766c-.73 0-1.38-.379-1.74-1.015-.012-.02-.015-.043-.026-.063v-1.833c.02-.039.029-.08.051-.118L2 9.723V9H1V0h14z" id="outline"/><path class="icon-vs-bg" d="M13.553 10.6a2 2 0 0 1-1.201 1.831v1.768a.8.8 0 0 1-1.6 0V12.43a2 2 0 0 1 0-3.662v2.231h1.6V8.768a1.997 1.997 0 0 1 1.201 1.832zm-5.462 2.885A1 1 0 0 1 7.234 15H1.766a1 1 0 0 1-.857-1.515L3 10V8H2V7h5v1H6v2l2.091 3.485zM5.968 12L5 10.303V8H4v2.303L3.032 12h2.936zM11 5V4H6v2h5V5zM2 1v1h1v1H2v1h1v1H2v1h2V2h9v6.021c.438.049.769.34 1 .756V1H2z" id="iconBg"/><path class="icon-vs-fg" d="M5 8H4v2.303L3.032 12h2.936L5 10.303V8zm8-6v6.093c-.042-.02-.079-.093-.124-.093 0 0-.392-.359-1.313-.359-.688 0-1.327.359-1.327.359-1.189.609-1.56 1.484-1.56 2.674 0 .955.323 1.764 1.323 2.322V13H8.961c-.005-.009-.007-.02-.013-.029L7 9.723V9h1V6h3V4H6v2H4V2h9z" id="iconFg"/></svg>