<svg xmlns="http://www.w3.org/2000/svg" viewBox="0 0 16 16"><style>.icon-canvas-transparent{opacity:0;fill:#f6f6f6}.icon-vs-out{fill:#f6f6f6}.icon-vs-bg{fill:#424242}.icon-vs-fg{fill:#f0eff1}.icon-vs-red{fill:#e51400}.icon-white{fill:#fff}</style><path class="icon-canvas-transparent" d="M16 16H0V0h16v16z" id="canvas"/><path class="icon-vs-out" d="M16 3.586v7.967l-.005-.006A4.502 4.502 0 0 1 11.5 16a4.462 4.462 0 0 1-2.635-.869A1.963 1.963 0 0 1 7.234 16H1.766c-.73 0-1.38-.379-1.74-1.015-.012-.02-.015-.043-.026-.063v-1.833c.02-.039.029-.08.051-.118L2 9.723V9H1V6h2V2C3.001.789 3.833.178 4.545.023L4.65 0h7.764L16 3.586z" id="outline"/><g id="iconBg"><path class="icon-vs-bg" d="M9.354 7.354l-.708-.708L8 7.293v1.41l.016-.015c.206-.255.437-.485.694-.69.006-.004.009-.011.015-.015l.629-.629z"/><path class="icon-vs-bg" d="M5 2h7v2h2v3.76l.008.006c.04.027.073.062.112.09.155.113.305.232.443.365.148.139.28.291.408.449.009.012.021.021.03.033V4l-3-3H4.757C4.474 1.062 4 1.296 4 2v4h1V2zM7 9.707L7.707 9H7z"/><path class="icon-vs-bg" d="M10 5h3v1h-3zM8.646 3.646L7 5.293l-.646-.647-.708.708.647.646h1.414l1.647-1.646zM7.02 11.7L6 10V8h1V7H2v1h1v2L.909 13.485A1 1 0 0 0 1.766 15h5.468a.986.986 0 0 0 .89-.556A4.461 4.461 0 0 1 7.02 11.7zm-3.988.3L4 10.303V8h1v2.303L5.968 12H3.032z"/><g><path class="icon-vs-bg" d="M9.354 7.354l-.708-.708L8 7.293v1.41l.016-.015c.206-.255.437-.485.694-.69.006-.004.009-.011.015-.015l.629-.629z"/><path class="icon-vs-bg" d="M5 2h7v2h2v3.76l.008.006c.04.027.073.062.112.09.155.113.305.232.443.365.148.139.28.291.408.449.009.012.021.021.03.033V4l-3-3H4.757C4.474 1.062 4 1.296 4 2v4h1V2zM7 9.707L7.707 9H7z"/><path class="icon-vs-bg" d="M10 5h3v1h-3zM8.646 3.646L7 5.293l-.646-.647-.708.708.647.646h1.414l1.647-1.646zM7.02 11.7L6 10V8h1V7H2v1h1v2L.909 13.485A1 1 0 0 0 1.766 15h5.468a.986.986 0 0 0 .89-.556A4.461 4.461 0 0 1 7.02 11.7zm-3.988.3L4 10.303V8h1v2.303L5.968 12H3.032z"/></g></g><path class="icon-vs-fg" d="M7.707 9h.053a4.512 4.512 0 0 0-.528 1.141L7 9.734v-.027L7.707 9zM14 4v3.76A4.476 4.476 0 0 0 11.5 7a4.46 4.46 0 0 0-2.776.983l.629-.629-.707-.708L8 7.293V6h-.293l1.646-1.646-.707-.708L7 5.293l-.646-.647-.708.708.647.646H5V2h7v2h2zm-1 1h-3v1h3V5zM4 8v2.303L3.032 12h2.936L5 10.303V8H4z" id="iconFg"/><path class="icon-vs-red" d="M11.5 8a3.5 3.5 0 1 0 0 7 3.5 3.5 0 0 0 0-7zm1.854 4.646l-.707.707-1.147-1.146-1.146 1.147-.707-.707 1.147-1.146-1.147-1.146.707-.707 1.146 1.147 1.146-1.147.707.707-1.146 1.145 1.147 1.146z" id="notificationBg"/><path class="icon-white" d="M12.207 11.5l1.147 1.146-.707.707-1.147-1.146-1.146 1.147-.707-.707 1.147-1.146-1.147-1.146.707-.707 1.146 1.147 1.146-1.147.707.707-1.146 1.145z" id="notificationFg"/></svg>