<svg xmlns="http://www.w3.org/2000/svg" viewBox="0 0 16 16"><style>.st0{opacity:0}.st0,.st1{fill:#f6f6f6}.st2{fill:#424242}.st3{fill:#f0eff1}</style><g id="outline"><path class="st0" d="M0 0h16v16H0z"/><path class="st1" d="M8 0a8 8 0 0 0-8 8c0 .317.023.628.06.935A3.3 3.3 0 0 0 0 9.5c0 .959.408 1.841 1.071 2.488.132.228.274.448.428.662V14c0 1.104.897 2 2 2 .563 0 1.067-.236 1.429-.613A8 8 0 1 0 8 0z"/></g><g id="icon_x5F_bg"><path class="st2" d="M15 8c0 3.865-3.135 7-7 7-.909 0-1.776-.18-2.573-.495A2 2 0 0 0 5.499 14v-1.63c.186-.129.346-.286.501-.446V12l6-4-6-4v3.058A3.487 3.487 0 0 0 3.5 6a3.48 3.48 0 0 0-2.417.98C1.578 3.599 4.482 1 8 1a7 7 0 0 1 7 7z"/><path class="st2" d="M4.499 7.211V10h-2V7.211A2.501 2.501 0 0 0 1 9.5c0 1.024.618 1.902 1.499 2.289V14a1 1 0 1 0 2 0v-2.211A2.498 2.498 0 0 0 6 9.5a2.498 2.498 0 0 0-1.501-2.289z"/></g><path class="st3" d="M6 11.924V12l6-4-6-4v3.058c.616.631 1 1.492 1 2.442a3.48 3.48 0 0 1-1 2.424z" id="icon_x5F_fg"/></svg>