<svg xmlns="http://www.w3.org/2000/svg" viewBox="0 0 16 16"><style>.icon-canvas-transparent{opacity:0;fill:#f6f6f6}.icon-vs-out{fill:#f6f6f6}.icon-vs-bg{fill:#424242}.icon-vs-fg{fill:#f0eff1}.st0{fill:#424242}</style><path class="icon-canvas-transparent" d="M16 16H0V0h16v16z" id="canvas"/><path class="icon-vs-out" d="M15.424 10.959A2 2 0 0 1 13.668 12H9.899A5 5 0 1 1 5 6c.169 0 .329.033.493.05L7 3.707V3H6V0h7v3h-1v.706l3.351 5.212c.396.617.423 1.398.073 2.041z" id="outline"/><g id="iconBg"><circle class="st0" cx="5" cy="11" r="1"/><path class="icon-vs-bg" d="M8.949 11.504C8.971 11.337 9 11.173 9 11s-.029-.337-.051-.504l-1.235-.154a2.747 2.747 0 0 0-.331-.795l.767-.985a3.999 3.999 0 0 0-.712-.712l-.985.767a2.758 2.758 0 0 0-.796-.331l-.153-1.235C5.337 7.03 5.173 7 5 7s-.337.03-.504.051l-.153 1.235a2.758 2.758 0 0 0-.796.331l-.985-.767a3.999 3.999 0 0 0-.712.712l.768.985c-.149.244-.263.51-.331.795l-1.235.154C1.029 10.663 1 10.827 1 11s.029.337.051.504l1.235.154c.068.285.182.551.331.795l-.767.985c.207.268.445.506.712.713l.985-.768c.243.148.51.262.796.331l.153 1.235c.167.022.331.051.504.051s.337-.029.504-.051l.153-1.235c.286-.069.553-.183.796-.331l.985.768c.267-.207.505-.445.712-.713l-.768-.984c.149-.244.263-.51.331-.795l1.236-.155zM5 13a2 2 0 1 1 .001-4.001A2 2 0 0 1 5 13zm1-2a1 1 0 1 1-2 0 1 1 0 0 1 2 0zm7.668 0H10c0-1.643-.804-3.089-2.027-4h3.751L10 4.291V2H9v2.291L7.479 6.682a4.906 4.906 0 0 0-.936-.414L8 4V2H7V1h5v1h-1v2l3.51 5.459A1 1 0 0 1 13.668 11z"/></g><path class="icon-vs-fg" d="M5 9a2 2 0 1 0 .001 4.001A2 2 0 0 0 5 9zm0 3a1 1 0 1 1 0-2 1 1 0 0 1 0 2zm2.479-5.318L9 4.291V2h1v2.291L11.724 7H7.973a5.004 5.004 0 0 0-.494-.318z" id="iconFg"/></svg>