<svg xmlns="http://www.w3.org/2000/svg" viewBox="0 0 16 16"><style>.icon-canvas-transparent{opacity:0;fill:#f6f6f6}.icon-vs-out{fill:#f6f6f6}.icon-vs-bg{fill:#424242}.icon-vs-action-red{fill:#a1260d}</style><path class="icon-canvas-transparent" d="M16 16H0V0h16v16z" id="canvas"/><path class="icon-vs-out" d="M9.465 12H2.332A2 2 0 0 1 .65 8.918L4 3.707V3H3V0h7v3H9v.707l3.351 5.211c.036.055.052.117.082.175l1.507-1.507L16 9.646v.828l-1.556 1.556L16 13.586v.828L14.414 16h-.949l-1.495-1.495L10.475 16h-.95l-2-2 1.97-1.97-.03-.03z" id="outline"/><path class="icon-vs-bg" d="M7.525 10.061L10 7.586l.855.855L8 4V2h1V1H4v1h1v2L2.079 8.544l-.589.915A1 1 0 0 0 2.332 11h6.133l-.94-.939zM4.276 7L6 4.291V2h1v2.291L8.724 7H4.276z" id="iconBg"/><path class="icon-vs-action-red" d="M13.03 12.03L15 14l-1.061 1.061-1.97-1.97L10 15.061 8.939 14l1.97-1.97-1.97-1.97L10 9l1.97 1.97L13.939 9 15 10.061l-1.97 1.969z" id="colorAction"/></svg>