<svg xmlns="http://www.w3.org/2000/svg" viewBox="0 0 16 16"><style>.icon-canvas-transparent{opacity:0;fill:#f6f6f6}.icon-vs-out{fill:#f6f6f6}.icon-vs-bg{fill:#424242}.icon-vs-fg{fill:#f0eff1}.icon-folder{fill:#dcb67a}</style><path class="icon-canvas-transparent" d="M0 0h16v16H0z" id="canvas"/><path class="icon-vs-out" d="M0 12.422L2 9.28V1.5C2 .673 2.673 0 3.5 0h7.114l1 2H14.5c.827 0 1.5.673 1.5 1.5v7c0 .827-.673 1.5-1.5 1.5h-3.77l.869 1.364L10.721 16H.279L0 15.162v-2.74z" id="outline"/><g id="iconBg"><path class="icon-folder" d="M10.095 11H14.5a.5.5 0 0 0 .5-.5v-7a.5.5 0 0 0-.5-.5h-3.504l-1-2H3.5a.5.5 0 0 0-.5.5V4h6v3H8v.709L10.095 11zm-.599-8h-5.5V2h5l.5 1z"/><path class="icon-vs-bg" d="M.5 13.5L1 15h9l.5-1.5L7 8V6h1V5H3v1h1v2L.5 13.5zM3.276 11l1.567-2.463L5 8.291V6h1v2.291l.156.246L7.724 11H3.276z"/></g><g id="notificationFg"><path class="icon-vs-fg" d="M3.276 11l1.567-2.463L5 8.291V6h1v2.291l.156.246L7.724 11H3.276zm5.716-9h.004l.5 1H4l-.008-.001V2z"/><path class="icon-vs-fg" d="M3.276 11l1.567-2.463L5 8.291V6h1v2.291l.156.246L7.724 11H3.276zm5.716-9h.004l.5 1H4l-.008-.001V2z"/></g></svg>