<svg xmlns="http://www.w3.org/2000/svg" viewBox="0 0 16 16"><style>.st0{opacity:0}.st0,.st1{fill:#f6f6f6}.st2{fill:#424242}.st3{fill:#f0eff1}</style><g id="outline"><path class="st0" d="M0 0h16v16H0z"/><path class="st1" d="M15 16H2V0h13v16z"/></g><g id="icon_x5F_bg"><path class="st2" d="M3 1v14h11V1H3zm9 12H5V3h7v10z"/><path class="st2" d="M8 4h3v1H8zM6 6h5v1H6zM6 8h5v1H6zM6 10h4v1H6z"/></g><path class="st3" d="M5 3v10h7V3H5zm5 8H6v-1h4v1zm1-2H6V8h5v1zm0-2H6V6h5v1zm0-2H8V4h3v1z" id="icon_x5F_fg"/></svg>