<svg xmlns="http://www.w3.org/2000/svg" viewBox="0 0 16 16"><style>.icon-canvas-transparent{opacity:0;fill:#f6f6f6}.icon-vs-out{fill:#f6f6f6}.icon-vs-bg{fill:#424242}.icon-vs-fg{fill:#f0eff1}.icon-vs-blue{fill:#1ba1e2}</style><path class="icon-canvas-transparent" d="M16 16H0V0h16v16z" id="canvas"/><path class="icon-vs-out" d="M16 15H0V0h16v15z" id="outline"/><path class="icon-vs-fg" d="M14 5h-3l1.5-2L14 5zm-1.5 7l1.5-2h-3l1.5 2zM3.368 8.508a.546.546 0 0 0-.196.133c-.047.053-.08.111-.098.18s-.027.146-.027.232c0 .078.014.15.041.219a.489.489 0 0 0 .302.285.682.682 0 0 0 .242.041.76.76 0 0 0 .337-.072c.099-.049.184-.116.256-.2s.127-.183.165-.295c.038-.113.059-.234.059-.365V8.32l-.761.11a1.336 1.336 0 0 0-.32.078zm4.976-1.246a.646.646 0 0 0-.571-.321.674.674 0 0 0-.331.082.77.77 0 0 0-.257.233c-.072.101-.128.221-.168.359s-.06.295-.06.465v.506c0 .137.02.264.057.381s.088.221.154.307a.736.736 0 0 0 .237.206.68.68 0 0 0 .651-.016.747.747 0 0 0 .264-.266c.073-.117.129-.266.168-.445.04-.18.06-.387.06-.621 0-.184-.018-.348-.052-.494s-.085-.271-.152-.376zM15 7V6h-5V2H2v11h8V9h5V8h-5V7h5zm-9.773 3.191h-.785v-.529h-.014c-.12.203-.267.357-.439.463-.173.107-.374.16-.604.16-.181 0-.339-.027-.479-.084a.97.97 0 0 1-.352-.234c-.094-.102-.166-.221-.215-.362s-.074-.292-.074-.462c0-.164.021-.318.065-.461a1.065 1.065 0 0 1 .562-.66c.148-.075.322-.126.526-.153l1.03-.154c0-.275-.058-.475-.174-.6-.116-.123-.28-.185-.493-.185-.214 0-.423.039-.627.117a1.954 1.954 0 0 0-.544.312v-.767c.051-.035.121-.072.213-.113.093-.04.196-.076.31-.11.114-.034.236-.062.362-.085.127-.022.249-.034.368-.034.234 0 .438.033.608.102.171.067.313.166.424.294.11.129.194.287.249.471.056.186.083.399.083.637v2.437zM9.174 8.99c-.063.26-.153.485-.273.672a1.34 1.34 0 0 1-.443.443c-.176.107-.379.16-.609.16a.932.932 0 0 1-.292-.043.835.835 0 0 1-.238-.121c-.072-.053-.135-.115-.191-.186s-.109-.145-.153-.227h-.013v.484h-.697V4.285h.697v2.656h.013c.054-.105.115-.201.181-.289.067-.086.142-.16.226-.222a.996.996 0 0 1 .614-.198c.222 0 .413.05.573.154.159.101.291.24.395.416.102.175.177.378.227.61a3.732 3.732 0 0 1-.017 1.578z" id="iconFg"/><path class="icon-vs-bg" d="M4.895 6.646a1.068 1.068 0 0 0-.424-.294 1.643 1.643 0 0 0-.608-.102c-.119 0-.241.012-.368.033a3.505 3.505 0 0 0-.363.086 2.92 2.92 0 0 0-.31.11 1.405 1.405 0 0 0-.212.113v.768c.158-.131.341-.234.544-.313.204-.078.413-.117.627-.117.213 0 .377.063.494.186.116.125.174.324.174.6l-1.03.154a1.613 1.613 0 0 0-.526.151 1.107 1.107 0 0 0-.357.28 1.065 1.065 0 0 0-.205.381 1.557 1.557 0 0 0 .008.924.945.945 0 0 0 .568.595c.14.057.298.084.479.084.229 0 .431-.053.604-.16.173-.106.319-.26.439-.463h.014v.529h.785V7.754c0-.238-.027-.451-.083-.637a1.31 1.31 0 0 0-.25-.471zm-.446 2.02c0 .131-.021.252-.059.365a.887.887 0 0 1-.165.295.758.758 0 0 1-.593.272.682.682 0 0 1-.242-.041.53.53 0 0 1-.185-.114.48.48 0 0 1-.116-.172.564.564 0 0 1-.042-.218.96.96 0 0 1 .027-.232.435.435 0 0 1 .098-.18.546.546 0 0 1 .196-.133c.083-.033.189-.061.32-.078l.761-.11v.346zM10 8h5V7h-5v1zM2 2h13V1H1v13h14v-1H2V2zm4.975 4.941h-.013V4.285h-.697v5.887h.697v-.484h.013c.044.082.095.158.151.228.057.07.119.133.191.186a.835.835 0 0 0 .238.121.932.932 0 0 0 .292.043c.23 0 .434-.053.609-.16.177-.106.325-.254.445-.444.12-.187.21-.412.273-.672.061-.26.092-.539.092-.844a3.54 3.54 0 0 0-.074-.734 2.086 2.086 0 0 0-.229-.611 1.203 1.203 0 0 0-.394-.416 1.03 1.03 0 0 0-.573-.154c-.123 0-.234.018-.336.052a1.046 1.046 0 0 0-.279.147 1.153 1.153 0 0 0-.225.222 2.022 2.022 0 0 0-.181.289zm.467.082c.1-.055.21-.082.331-.082a.646.646 0 0 1 .571.32c.066.105.116.23.15.377.034.146.052.311.052.494 0 .234-.02.441-.06.621-.039.18-.095.328-.168.445a.747.747 0 0 1-.264.266.677.677 0 0 1-.651.016.74.74 0 0 1-.237-.207.998.998 0 0 1-.153-.306 1.257 1.257 0 0 1-.056-.381V8.08c0-.17.021-.326.061-.465.04-.139.096-.258.168-.359a.757.757 0 0 1 .256-.233z" id="iconBg"/><path class="icon-vs-blue" d="M10 6h5V2h-5v4zm2.5-3L14 5h-3l1.5-2zM15 9h-5v4h5V9zm-2.5 3L11 10h3l-1.5 2z" id="colorImportance"/></svg>