<svg xmlns="http://www.w3.org/2000/svg" width="16" height="16"><style type="text/css">.icon-canvas-transparent{opacity:0;fill:#F6F6F6;} .icon-vs-out{fill:#F6F6F6;} .icon-vs-bg{fill:#424242;} .icon-vs-action-blue{fill:#00539C;}</style><rect class="icon-canvas-transparent" width="16" height="16" id="canvas"/><path class="icon-vs-out" d="M2 8v-4h4v-3h10v3h-.586l-2 2h2.586v4h-2.586l2 2h.586v3h-10v-3h-6v-4h2z" id="outline"/><path class="icon-vs-bg" d="M7 11h-6v-2h6v2zm0-6h-4v2h4v-2zm0 9h8v-1h-8v1zm0-12v1h8v-1h-8z" id="iconBg"/><path class="icon-vs-action-blue" d="M13 11h-2l-3-3 3-3h2l-2 2h4v2h-4l2 2z" id="colorAction"/></svg>