<svg xmlns="http://www.w3.org/2000/svg" viewBox="0 0 16 16"><style>.st0{opacity:0}.st0,.st1{fill:#f6f6f6}.st2{fill:none}.st3{fill:#424242}.st4{fill:#f0eff1}</style><g id="outline"><path class="st0" d="M0 0h16v16H0z"/><path class="st1" d="M4 1v1.586L1.414 0H0v9.414l4-4V16h10v-3h2V1z"/></g><g id="icon_x5F_bg"><path class="st2" d="M6 3h8v2H6z"/><path class="st3" d="M5 13h8v2H5zM1 7l3-3-3-3zM5 10h10v2H5zM5 7h10v2H5zM5 2v4h10V2H5zm9 3H6V3h8v2z"/></g><path class="st4" d="M6 3h8v2H6z" id="icon_x5F_fg"/></svg>