<svg xmlns="http://www.w3.org/2000/svg" viewBox="0 0 16 16"><style>.st0{opacity:0}.st0,.st1{fill:#f6f6f6}.st2{fill:#424242}.st3{fill:#f0eff1}</style><g id="outline"><path class="st0" d="M0 0h16v16H0z"/><path class="st1" d="M15.335 4.669L14.006 6l1 1-2.414 2.414-1-1-1.593 1.593V16h-10V6h7.179l1-1-1-1 2.414-2.414 1 1 1.293-1.293c.386-.428 1.008-.694 1.671-.694.629 0 1.234.234 1.705.659 1.072.966.873 2.523.074 3.411z"/></g><path class="st2" d="M5.592 9l-1 2 1 1 2-1 3-3-2-2-3 3zm2 1l-1-1 2-2 1 1-2 2zm7-6l-2 2 1 1-1 1-4-4 1-1 1 1 2-2c.467-.516 1.385-.555 2 0s.465 1.483 0 2m-6.407 7.822L7.829 12h.17v2h-2v-1.085l-.604.302-2.02-2.019L3.974 10H1.999V8h2v1.949l.771-1.541L6.178 7H.999v8h8v-3.992l-.814.814zM3.999 14h-2v-2h2v2z" id="icon_x5F_bg"/><path class="st3" d="M7.592 10l-1-1 2-2 1 1-2 2zm-3.618 0H1.999V8h2v1.949L3.974 10zm2.025 2.915V14h2v-2h-.17l-1.83.915zm-4 1.085h2v-2h-2v2z" id="icon_x5F_fg"/></svg>