<svg xmlns="http://www.w3.org/2000/svg" width="16" height="16"><style type="text/css">.icon-canvas-transparent{opacity:0;fill:#F6F6F6;} .icon-vs-out{fill:#F6F6F6;} .icon-vs-bg{fill:#424242;}</style><path class="icon-canvas-transparent" d="M16 16h-16v-16h16v16z" id="canvas"/><path class="icon-vs-out" d="M6.06 10c-.341.437-.792.783-1.31 1h3.385l-4.167 5h-.937l-3.031-3.638v-1.362h2.25c-1.173-.491-2-1.65-2-3 0-1.349.827-2.509 2-3h-2.25v-1.362l3.032-3.638h.937l4.167 5h-3.386c.518.217.969.564 1.31 1h9.94v4h-9.94z" id="outline"/><g id="iconBg"><path class="icon-vs-bg" d="M5.75 8c0 1.243-1.007 2.25-2.25 2.25s-2.25-1.007-2.25-2.25 1.007-2.25 2.25-2.25 2.25 1.007 2.25 2.25zm-2.25-7l-2.5 3h5l-2.5-3zm0 14l2.5-3h-5l2.5 3zm11.5-8h-8v2h8v-2z"/></g></svg>