<svg xmlns="http://www.w3.org/2000/svg" viewBox="0 0 16 16"><style>.st0{fill:#f6f6f6}.st1{fill:#424242}</style><g id="outline"><path class="st0" d="M0 0h16v16H0z"/><path class="st0" d="M1 0h15v14H1z"/></g><g id="icon_x5F_bg"><path class="st1" d="M14 2v10H3V2h11m1-1H2v12h13V1z"/><path class="st1" d="M7.441 6.374a1.236 1.236 0 0 0-.497-.345 1.906 1.906 0 0 0-.712-.119c-.14 0-.284.014-.433.039a3.724 3.724 0 0 0-.788.229 1.53 1.53 0 0 0-.25.133v.9c.186-.153.401-.275.639-.367.24-.092.484-.138.736-.138.25 0 .442.073.58.218.135.146.204.38.204.703l-1.21.181a1.908 1.908 0 0 0-.616.178 1.264 1.264 0 0 0-.659.774 1.88 1.88 0 0 0-.076.54c0 .199.03.378.087.543.057.165.142.305.252.424.11.116.248.208.412.274.165.066.351.099.561.099.27 0 .506-.062.708-.188.204-.124.375-.305.516-.543h.015v.621h.921V7.672a2.66 2.66 0 0 0-.096-.747 1.487 1.487 0 0 0-.294-.551zm-.522 2.368c0 .154-.025.296-.069.429-.045.13-.11.247-.194.346a.88.88 0 0 1-.694.318.798.798 0 0 1-.284-.049.588.588 0 0 1-.355-.334.683.683 0 0 1-.048-.257c0-.101.011-.191.032-.272a.506.506 0 0 1 .114-.211.685.685 0 0 1 .23-.156c.099-.038.222-.071.375-.091l.893-.128v.405zM9.88 6.72h-.014V3.605h-.817v6.902h.817V9.94h.014c.053.096.112.185.179.268a1.033 1.033 0 0 0 .846.411c.27 0 .508-.063.714-.189.206-.123.38-.297.52-.52.142-.22.247-.483.32-.788a4.39 4.39 0 0 0 .107-.989 4.12 4.12 0 0 0-.087-.861 2.41 2.41 0 0 0-.268-.716 1.399 1.399 0 0 0-.463-.487 1.205 1.205 0 0 0-.671-.181 1.202 1.202 0 0 0-.985.494 2.43 2.43 0 0 0-.212.338zm.548.096a.796.796 0 0 1 .39-.096.76.76 0 0 1 .668.375c.078.124.138.271.177.442.041.172.062.364.062.58 0 .275-.022.518-.071.729-.045.21-.109.385-.196.522a.882.882 0 0 1-.31.312.79.79 0 0 1-.763.018.872.872 0 0 1-.276-.243 1.131 1.131 0 0 1-.183-.36 1.485 1.485 0 0 1-.067-.447v-.593c0-.199.023-.382.071-.545.046-.163.112-.302.197-.421a.917.917 0 0 1 .301-.273z"/></g></svg>