<svg xmlns="http://www.w3.org/2000/svg" viewBox="0 0 16 16"><style>.st0{opacity:0}.st0,.st1{fill:#f6f6f6}.st2{fill:#424242}.st3{fill:#f0eff1}</style><g id="outline"><path class="st0" d="M0 0h16v16H0z"/><path class="st1" d="M0 1h16v13.997H0z"/></g><path class="st2" d="M1 2v12h14V2H1zm13 11H2V3h12v10zM7 6H3V4h4v2zM6 7H3v1h3V7zm0 4H3v1h3v-1zm1-2H3v1h4V9zm6 2H8v-.441l2.039-1.019 2.961.987V11zm0-6v4.473L9.961 8.46 8 9.44V5h5zm-1 2a1 1 0 1 0-2 0 1 1 0 1 0 2 0z" id="icon_x5F_bg"/><path class="st3" d="M10 7a1 1 0 1 1 2 0 1 1 0 1 1-2 0zm4-4v10H2V3h12zM3 8h3V7H3v1zm3 3H3v1h3v-1zm1-2H3v1h4V9zm0-5H3v2h4V4zm6 6.527l-2.961-.987L8 10.559V11h5v-.473zM13 5H8v4.44l1.961-.98L13 9.473V5z" id="icon_x5F_fg"/></svg>