<svg xmlns="http://www.w3.org/2000/svg" width="16" height="16"><style type="text/css">.icon-canvas-transparent{opacity:0;fill:#F6F6F6;} .icon-vs-out{fill:#F6F6F6;} .icon-vs-bg{fill:#424242;}</style><path class="icon-canvas-transparent" d="M16 16h-16v-16h16v16z" id="canvas"/><path class="icon-vs-out" d="M16 8v4h-6.002v3h-9.998v-3h.584l2-2h-2.584v-4h2.584l-2-2h-.584v-3h10v3h4v4h2z" id="outline"/><path class="icon-vs-bg" d="M9 2h-8v1h8v-1zm0 5h4v-2h-4v2zm-8 7h8v-1h-8v1zm8-5v2h6v-2h-6z" id="iconBg"/><path class="icon-vs-bg" d="M5 9h-4v-2h4l-2-2h2l3 3-3 3h-2l2-2z" id="colorAction"/></svg>