<svg xmlns="http://www.w3.org/2000/svg" viewBox="0 0 16 16"><style>.st0{opacity:0}.st0,.st1{fill:#f6f6f6}.st2{fill:#424242}.st3{fill:#f0eff1}</style><g id="outline"><path class="st0" d="M0 0h16v16H0z"/><path class="st1" d="M3 0v6c-1.104 0-2 .897-2 2v1c0 .385.113.739.302 1.044L0 9.523V15h3v1h13V0H3z"/></g><g id="icon_x5F_bg"><path class="st2" d="M7.5 13L5 12v3h5v-3zM1 11v3h3v-2.333L3.5 12zM7 11h1a1 1 0 0 0 1-1V9a1 1 0 0 0-1-1H7a1 1 0 0 0-1 1v1a1 1 0 0 0 1 1zM5 8a1 1 0 0 0-1-1H3a1 1 0 0 0-1 1v1a1 1 0 0 0 1 1h1a1 1 0 0 0 1-1V8zM4 1v4h11V1H4zm10 3h-2V3h2v1zM11 11v4h4v-4h-4zm3 3h-2v-1h2v1z"/><path class="st2" d="M4 6c.872 0 1.607.564 1.881 1.344A1.982 1.982 0 0 1 7 7h1c1.103 0 2 .897 2 2v1h5V6H4zm8 2h2v1h-2V8z"/></g><g id="icon_x5F_fg"><path class="st3" d="M12 13h2v1h-2zM12 8h2v1h-2zM12 3h2v1h-2z"/></g></svg>