<svg xmlns="http://www.w3.org/2000/svg" width="16" height="16"><style type="text/css">.icon-canvas-transparent{opacity:0;fill:#F6F6F6;} .icon-vs-out{fill:#F6F6F6;} .icon-vs-bg{fill:#424242;} .icon-vs-fg{fill:#F0EFF1;} .icon-visualstudio{fill:#68217A;}</style><path class="icon-canvas-transparent" d="M16 16h-16v-16h16v16z" id="canvas"/><path class="icon-vs-out" d="M16 13h-7.571c.042.161.071.326.071.5 0 1.103-.897 2-2 2s-2-.897-2-2l.013-.22-.281-.28h-.514c.175.3.282.64.282 1 0 1.103-.897 2-2 2s-2-.897-2-2c0-.746.414-1.4 1.024-1.744-.641-.557-1.024-1.368-1.024-2.256 0-1.302.839-2.402 2-2.816v-7.184h14v13z" id="outline"/><path class="icon-vs-bg" d="M15 1v2h-12v-2h12zm-4 5h-4v-2h-4v3c.888 0 1.699.383 2.257 1.024.343-.61.997-1.024 1.743-1.024 1.103 0 2 .897 2 2s-.897 2-2 2c-.39 0-.763-.114-1.079-.319l-.111.361.471.471.219-.013c.503 0 .957.193 1.309.5h7.191v-8h-4v2z" id="iconBg"/><path class="icon-visualstudio" d="M6.5 12.5c-.185 0-.356.054-.505.142l-1.421-1.421c.263-.339.426-.759.426-1.221l-.023-.236 1.149-.288c.169.311.495.524.874.524.553 0 1-.448 1-1 0-.553-.447-1-1-1-.55 0-.995.443-.999.992l-1.141.285c-.29-.746-1.011-1.277-1.86-1.277-1.104 0-2 .896-2 2 0 .849.531 1.569 1.277 1.859l-.285 1.142c-.549.004-.992.449-.992.999 0 .553.447 1 1 1s1-.447 1-1c0-.379-.213-.705-.523-.874l.287-1.15.236.024c.462 0 .882-.163 1.221-.426l1.421 1.421c-.088.149-.142.319-.142.505 0 .553.447 1 1 1s1-.447 1-1-.447-1-1-1zm-3.5-1.5c-.553 0-1-.447-1-1s.447-1 1-1 1 .447 1 1-.447 1-1 1z" id="colorImportance"/><path class="icon-vs-fg" d="M15 3v1h-4v2h-4v-2h-4v-1h12zm-12 6c-.552 0-1 .448-1 1s.448 1 1 1 1-.448 1-1-.448-1-1-1z" id="iconFg"/></svg>