<svg xmlns="http://www.w3.org/2000/svg" width="16" height="16"><style type="text/css">.icon-canvas-transparent{opacity:0;fill:#F6F6F6;} .icon-vs-out{fill:#F6F6F6;} .icon-vs-bg{fill:#424242;} .icon-vs-fg{fill:#F0EFF1;}</style><path class="icon-canvas-transparent" d="M16 16h-16v-16h16v16z" id="canvas"/><path class="icon-vs-out" d="M16 4v6h-16v-6h16z" id="outline"/><path class="icon-vs-bg" d="M6 9h4v-4h-4v4zm1-3h2v2h-2v-2zm-6 3h4v-4h-4v4zm1-3h2v2h-2v-2zm9-1v4h4v-4h-4zm3 3h-2v-2h2v2z" id="iconBg"/><g id="iconFg"><path class="icon-vs-fg" d="M2 8v-2h2v2h-2zm7 0v-2h-2v2h2zm5 0v-2h-2v2h2z"/></g></svg>