<svg xmlns="http://www.w3.org/2000/svg" viewBox="0 0 16 16" enable-background="new 0 0 16 16"><style type="text/css">.icon-canvas-transparent{opacity:0;fill:#F6F6F6;} .icon-vs-out{fill:#F6F6F6;} .icon-vs-bg{fill:#424242;} .icon-vs-blue{fill:#1BA1E2;}</style><path class="icon-canvas-transparent" d="M16 16h-16v-16h16v16z" id="canvas"/><path class="icon-vs-out" d="M2 16v-3h13v3h-13zm3-4v-2.879l-2.146 2.147-2.122-2.122 2.647-2.646-2.647-2.646 2.121-2.121 1.147 1.146v-1.879h11v3h-9.879l1.879 1.879v-.879h9v3h-9v-.879l-1.879 1.879h7.879v3h-8z" id="outline"/><path class="icon-vs-bg" d="M14 3h-9v-1h9v1zm0 11h-11v1h11v-1zm-2-4h-6v1h6v-1z" id="iconBg"/><path class="icon-vs-blue" d="M15 7h-7v-1h7v1zm-8.793-.5l-3.353-3.354-.708.708 2.647 2.646-2.647 2.646.707.707 3.354-3.353z" id="colorImportance"/></svg>