<svg xmlns="http://www.w3.org/2000/svg" viewBox="0 0 16 16"><style>.st0{opacity:0}.st0,.st1{fill:#f6f6f6}.st2{fill:#424242}.st3{fill:#f0eff1}</style><g id="outline"><path class="st0" d="M0 0h16v16H0z"/><path class="st1" d="M16 0v15H0V0h16z"/></g><path class="st2" d="M1 1v13h14V1H1zm2 11v-1h1v1H3zm11 1H5v-2h3V9h3v3h3v1zm-8-3V9h1v1H6zm3-2V4h1v4H9zm5 0h-3V3H8v5H5v2H2V2h12v6z" id="icon_x5F_bg"/><g id="icon_x5F_fg"><path class="st3" d="M5 13h9v-1h-3V9H8v2H5z"/><path class="st3" d="M6 9h1v1H6zM3 11h1v1H3zM9 4h1v4H9z"/><path class="st3" d="M2 10h3V8h3V3h3v5h3V2H2z"/></g></svg>