<svg xmlns="http://www.w3.org/2000/svg" viewBox="0 0 16 16"><style>.st0{opacity:0}.st0,.st1{fill:#f6f6f6}.st2{fill:#424242}.st3{fill:#f0eff1}</style><g id="outline"><path class="st0" d="M0 0h16v16H0z"/><path class="st1" d="M16 2.519L13.986 5.41 16 8.238v1.076l-.454.249c.287.586.454 1.24.454 1.937a4.5 4.5 0 0 1-9 0c0-.644.154-1.244.402-1.794-1.08-.071-2.01-.395-2.878-1.034l-.065-.048-1.28 1.86-1.049.009L0 9.111V7.887l1.75-2.538L0 2.592V1.29L1.883 0h1.065l1.315 2.144C5.256 1.252 6.412.737 8.093.737c1.276 0 2.33.338 3.315 1.065l.064.047L12.732 0h1.106L16 1.376v1.143z"/></g><g id="icon_x5F_bg"><path class="st2" d="M5.304 5.469L2.48 9.572.763 8.463l2.839-4.125c1.234-1.695 2.295-2.602 4.407-2.602 1.054 0 1.883.266 2.69.861L9.447 4.188c-.439-.325-.843-.452-1.438-.452-1.083 0-1.625.251-2.705 1.733zM2.966 3.371c.16-.232.352-.409.531-.615L2.416.937.945 1.965l1.407 2.278.614-.872zm10.452 3.08l-.551.783c.594.19 1.131.495 1.589.896l-1.038-1.679zm-1.949.552c.229-.264.458-.547.692-.868L15 2.01 13.282.9l-2.824 4.103C9.379 6.486 8.836 6.736 7.754 6.736c-.595 0-.999-.126-1.438-.452L5.063 7.875c.808.596 1.637.861 2.691.861.081 0 .151-.01.229-.014a4.478 4.478 0 0 1 3.486-1.719zM11.5 8a3.5 3.5 0 1 0 0 7 3.5 3.5 0 0 0 0-7zm1.5 5h-3v-3h3v3z"/></g><path class="st3" d="M10 10h3v3h-3z" id="icon_x5F_fg"/></svg>