<svg xmlns="http://www.w3.org/2000/svg" viewBox="0 0 16 16"><style>.st0{opacity:0}.st0,.st1{fill:#f6f6f6}.st2{fill:#424242}</style><g id="outline"><path class="st0" d="M0 0h16v16H0z"/><path class="st1" d="M12.484 4l.516.5v2l-.819 1.001L13 8.5v2l-.5.5h-2l-.442-.773c-.459.373-1.023.621-1.558.773h-2c-.416-.133-.939-.348-1.331-.629l-.214-.153-.455.776h-2L2 10.5v-2l.826-1L2 6.5v-2l.5-.5h2l.449.774C5.398 4.408 5.977 4.154 6.5 4h2a4.15 4.15 0 0 1 1.339.629l.213.153.497-.782h1.935z"/></g><g id="icon_x5F_bg"><path class="st2" d="M3.69 5.717c.116-.17.254-.3.38-.45L3.549 4.5 2.5 5.253l.753 1.104.437-.64zM7.5 6.177c.348 0 .692.122 1.014.342l.738-1.079c-.535-.384-1.126-.609-1.752-.609-1.06 0-2.041.581-2.762 1.637L2.5 9.747l1.049.753 2.237-3.279C6.26 6.524 6.881 6.177 7.5 6.177zM11.309 9.283c-.115.17-.252.3-.38.451l.522.766 1.049-.753-.754-1.104-.437.64zM11.451 4.5L9.213 7.779c-.474.698-1.094 1.044-1.713 1.044-.348 0-.693-.121-1.015-.341L5.75 9.56c.533.385 1.124.61 1.75.61 1.059 0 2.041-.582 2.763-1.638L12.5 5.253 11.451 4.5z"/></g></svg>