<svg xmlns="http://www.w3.org/2000/svg" viewBox="0 0 16 16"><style>.st0{opacity:0}.st0,.st1{fill:#f6f6f6}.st2{fill:#424242}</style><g id="outline"><path class="st0" d="M0 0h16v16H0z"/><path class="st1" d="M13.986 7.409L16 10.238v1.076L13.837 12.5h-1.051l-1.246-2.051c-.964.82-2.095 1.287-3.701 1.287-1.276 0-2.33-.338-3.315-1.064l-.064-.048-1.28 1.86-1.05.009L0 11.111V9.887l1.75-2.538L0 4.592V3.29L1.883 2h1.065l1.315 2.144c.993-.892 2.149-1.407 3.83-1.407 1.276 0 2.33.338 3.315 1.065l.064.047L12.732 2h1.106L16 3.376v1.143l-2.014 2.89z"/></g><path class="st2" d="M5.304 7.469L2.48 11.572.762 10.463l2.839-4.125c1.234-1.695 2.295-2.602 4.407-2.602 1.054 0 1.883.266 2.69.861L9.447 6.188c-.439-.325-.843-.452-1.438-.452-1.083 0-1.625.251-2.705 1.733zM15 4.01L13.282 2.9l-2.824 4.103C9.379 8.486 8.836 8.736 7.754 8.736c-.595 0-.999-.127-1.438-.451l-1.252 1.59c.808.596 1.637.861 2.69.861 2.111 0 3.172-.906 4.407-2.602L15 4.01zM2.966 5.371c.16-.232.352-.409.531-.615L2.416 2.937.945 3.965l1.407 2.278.614-.872zm9.839 3.952c-.16.232-.352.409-.531.615l1.081 1.819 1.471-1.028-1.407-2.278-.614.872z" id="icon_x5F_bg"/></svg>