<svg xmlns="http://www.w3.org/2000/svg" viewBox="0 0 16 16"><style>.st0{opacity:0}.st0,.st1{fill:#f6f6f6}.st2{fill:#424242}.st3{fill:#e51400}.st4{fill:#fff}</style><g id="outline"><path class="st0" d="M0 0h16v16H0z"/><path class="st1" d="M16 1.376L13.839 0h-1.106l-1.259 1.849-.064-.047C10.424 1.075 9.37.736 8.094.736c-1.681 0-2.837.516-3.83 1.407L2.948 0H1.883L0 1.29v1.302L1.75 5.35 0 7.887v1.225l2.13 1.382 1.049-.009 1.28-1.86.064.048c.861.636 1.785.957 2.854 1.032A4.472 4.472 0 0 0 7 11.5a4.5 4.5 0 0 0 9 0c0-.696-.172-1.348-.454-1.937L16 9.314V8.238l-2.014-2.829L16 2.519V1.376z"/></g><g id="icon_x5F_bg"><path class="st2" d="M13.418 6.451l-.551.783a4.46 4.46 0 0 1 1.589.897l-1.038-1.68zM2.966 3.371c.16-.232.352-.409.531-.615L2.416.937.945 1.965l1.407 2.278.614-.872zM8.009 3.736c.595 0 .999.126 1.438.452l1.252-1.591c-.808-.595-1.637-.861-2.69-.861-2.112 0-3.173.907-4.407 2.602L.763 8.463 2.48 9.572l2.823-4.104c1.081-1.481 1.623-1.732 2.706-1.732z"/><path class="st2" d="M7.983 8.723a4.472 4.472 0 0 1 3.485-1.72c.229-.264.458-.547.692-.868L15 2.01 13.282.9l-2.824 4.104C9.379 6.486 8.836 6.736 7.754 6.736c-.595 0-.999-.127-1.438-.451l-1.252 1.59c.807.596 1.636.861 2.69.861.081 0 .151-.01.229-.013z"/></g><path class="st3" d="M11.5 8a3.5 3.5 0 1 0 0 7 3.5 3.5 0 0 0 0-7zm1.5 5h-3v-3h3v3z" id="not_x5F_bg"/><path class="st4" d="M10 10h3v3h-3z" id="not_x5F_fg"/></svg>