<svg xmlns="http://www.w3.org/2000/svg" viewBox="0 0 16 16"><style>.st0{opacity:0}.st0,.st1{fill:#f6f6f6}.st2{fill:#424242}.st3{fill:#f0eff1}</style><g id="outline"><path class="st0" d="M0 0h16v16H0z"/><path class="st1" d="M1.309 15.5L.559 14l3.25-6.5H4.5v-6h11v12.001H8.69L7.691 15.5z"/><path class="st1" d="M15 2v11.001H8.381l-.276.553L7.382 15H1.618l-.5-1 3-6H5V2h10m1-1H4v6h-.5L0 14l1 2h7l1-1.999h7V1z"/></g><path class="st2" d="M9 11l1-3 1 3h1l-.843-3.374C11.665 7.264 12 6.672 12 6a2 2 0 0 0-4 0c0 .672.335 1.264.843 1.626L8 11h1zm1-6a1 1 0 1 1 0 2 1 1 0 0 1 0-2zm5-3v11.002H8.501L8 12h6V3H6.001v5.001L5.5 7H5V5l.001-3H15zM4.109 8.016l-3.016 6 .516.984h5.766l.484-1-2.968-5.984h-.782zM5 14H4v-1h1v1zm0-2H4v-2h1v2z" id="icon_x5F_bg"/><path class="st3" d="M11 6a1 1 0 1 1-2 0 1 1 0 0 1 2 0zm3-3v9H8L6 8.001V3h8zm-2.843 4.626C11.665 7.264 12 6.672 12 6a2 2 0 0 0-4 0c0 .672.335 1.264.843 1.626L8 11h1l1-3 1 3h1l-.843-3.374zM4 14h1v-1H4v1zm0-2h1v-2H4v2z" id="icon_x5F_fg"/></svg>