<svg xmlns="http://www.w3.org/2000/svg" viewBox="0 0 16 16"><style>.st0{opacity:0}.st0,.st1{fill:#f6f6f6}.st2{fill:#424242}.st3{fill:#f0eff1}</style><g id="outline"><path class="st0" d="M0 0h16v16H0z"/><path class="st1" d="M5 2v2H1v3h1v1H1v3h4v2h10V2z"/></g><g id="icon_x5F_bg"><path class="st2" d="M3 7h2v1H3zM2 9h3v1H2zM8 7h4v1H8zM8 9h4v1H8zM8 5h4v1H8z"/><path class="st2" d="M6 12h8V3H6v9zm1-8h6v7H7V4zM2 5h3v1H2z"/></g><path class="st3" d="M7 4v7h6V4H7zm5 6H8V9h4v1zm0-2H8V7h4v1zm0-2H8V5h4v1z" id="icon_x5F_fg"/></svg>