<svg xmlns="http://www.w3.org/2000/svg" viewBox="0 0 16 16"><style>.st0{opacity:0}.st0,.st1{fill:#f6f6f6}.st2{fill:#424242}.st3{fill:#f0eff1}</style><path class="st0" d="M0 0h16v16H0z" id="outline"/><g id="icon_x5F_bg"><path class="st1" d="M4 15c-1.299 0-2-1.03-2-2V3c0-1.299 1.03-2 2-2h6.415L14 4.586V13c0 .97-.701 2-2 2H4z"/><path class="st2" d="M8 6H7V5h1v1zm5-1v8s0 1-1 1H4c-1 0-1-1-1-1V3c0-1 1-1 1-1h6l3 3zm-1 1H9V3H4v3h3v1H4v2h2V8h1v1h1v2H4v2h8v-3h-2V9H9V8H8V7h4V6z"/></g><path class="st3" d="M9 6V3H4v3h3V5h1v1H7v1H4v2h2V8h1v1h1v2H4v2h8v-3h-2V9H9V8H8V7h4V6z" id="icon_x5F_fg"/></svg>