<svg xmlns="http://www.w3.org/2000/svg" viewBox="0 0 16 16"><style>.st0{opacity:0}.st0,.st1{fill:#f6f6f6}.st2{fill:#424242}.st3{fill:#f0eff1}</style><g id="outline"><path class="st0" d="M0 0h16v16H0z"/><path class="st1" d="M6.614 1A3.932 3.932 0 0 0 4 0a3.963 3.963 0 0 0-2.62 1H0v15h16V1H6.614z"/></g><path class="st2" d="M1 6.62V15h14v-5h-5v3H3V7.858A3.966 3.966 0 0 1 1 6.62zM14 11l-1.5 2-1.5-2h3zM4 8a3.963 3.963 0 0 0 2.62-1H9v1H4zm6 0h5v1h-5V8zm-6 3h4v1H4v-1zm3-2v1H4V9h3zm.445-7C7.789 2.59 8 3.268 8 4h2v3h5V2H7.445zM11 6l1.5-2L14 6h-3zM4 1a3 3 0 1 0 0 6 3 3 0 0 0 0-6zm0 5a1.994 1.994 0 1 1-1-3.723V5h2V4H4V2a2 2 0 0 1 0 4z" id="icon_x5F_bg"/><path class="st3" d="M6 4a2 2 0 0 1-4 0c0-.738.405-1.376 1-1.723V5h2V4H4V2a2 2 0 0 1 2 2zm4 3h5v1h-5v1h5v1h-5v3H3V7.858c.321.084.652.142 1 .142h5V7H6.62A3.972 3.972 0 0 0 8 4h2v3zm-6 3h3V9H4v1zm4 1H4v1h4v-1zm3-5h3l-1.5-2L11 6zm1.5 7l1.5-2h-3l1.5 2z" id="icon_x5F_fg"/></svg>