<svg xmlns="http://www.w3.org/2000/svg" width="16" height="16"><style type="text/css">.icon-canvas-transparent{opacity:0;fill:#F6F6F6;} .icon-vs-out{fill:#F6F6F6;} .icon-vs-bg{fill:#424242;} .icon-vs-fg{fill:#F0EFF1;}</style><path class="icon-canvas-transparent" d="M16 16h-16v-16h16v16z" id="canvas"/><path class="icon-vs-out" d="M15 8.5c0 3.59-2.91 6.5-6.5 6.5s-6.5-2.91-6.5-6.5c0-2.319 1.219-4.35 3.047-5.5h-.047v-3h7v3h-.047c1.828 1.15 3.047 3.181 3.047 5.5z" id="outline"/><path class="icon-vs-bg" d="M10 3.212v-1.212h1v-1h-5v1h1v1.212c-2.308.654-4 2.771-4 5.288 0 3.037 2.463 5.5 5.5 5.5s5.5-2.463 5.5-5.5c0-2.517-1.692-4.634-4-5.288zm-1.5 9.788c-2.485 0-4.5-2.015-4.5-4.5 0-2.312 1.75-4.194 3.993-4.449l-.378 3.027c-.361.151-.615.506-.615.922v1c0 .553.447 1 1 1h1c.553 0 1-.447 1-1v-1c0-.416-.254-.771-.615-.922l-.378-3.027c2.243.255 3.993 2.137 3.993 4.449 0 2.485-2.015 4.5-4.5 4.5z" id="iconBg"/><path class="icon-vs-fg" d="M13 8.5c0 2.485-2.015 4.5-4.5 4.5s-4.5-2.015-4.5-4.5c0-2.312 1.75-4.194 3.993-4.449l-.378 3.027c-.361.151-.615.506-.615.922v1c0 .553.447 1 1 1h1c.553 0 1-.447 1-1v-1c0-.416-.254-.771-.615-.922l-.378-3.027c2.243.255 3.993 2.137 3.993 4.449z" id="iconFg"/></svg>