<svg xmlns="http://www.w3.org/2000/svg" viewBox="0 0 16 16"><style>.st0{opacity:0}.st0,.st1{fill:#f6f6f6}.st2{fill:#424242}.st3{fill:#f0eff1}</style><g id="outline"><path class="st0" d="M0 0h16v16H0z"/><path class="st1" d="M16 13v-.897l-3.75-3.365.133-.201c.409-.841.616-1.683.616-2.573 0-3.309-2.691-5.982-5.999-5.982s-6 2.7-6 6.009 2.644 6.005 5.935 6.005c.32-.001 1.065-.001 1.065-.085V16h1.022l1.347-1.459.659 1.459h1.525l1.772-.889L13.468 13H16z"/></g><g id="icon_x5F_bg"><path class="st2" d="M7 6h1v1H6V3h1zM13.021 14.755l-1.087-2.465h2.518L9.065 7.292v7.231l1.629-1.789 1.137 2.562z"/><path class="st2" d="M8 9.838c0 .095-.661.162-1.033.162a3.99 3.99 0 0 1-3.984-4c0-2.206 1.803-4 4.008-4s4.004 1.794 4.004 4a3.96 3.96 0 0 1-.283 1.459l.77.714C11.804 7.513 12 6.782 12 6A5 5 0 1 0 2 6c0 2.761 2.206 5 4.967 5C7.334 11 8 10.955 8 10.88V9.838z"/></g><path class="st3" d="M8 5l2.683 2.459c.178-.453.3-.943.3-1.459a3.993 3.993 0 1 0-7.987 0c0 2.209 1.76 4 3.969 4C7.337 10 8 9.933 8 9.838V5zM6 7V3h1v3h1v1H6z" id="icon_x5F_fg"/></svg>