<svg xmlns="http://www.w3.org/2000/svg" viewBox="0 0 16 16"><style>.st0{opacity:0}.st0,.st1{fill:#f6f6f6}.st2{fill:#424242}.st3{fill:#f0eff1}.st4{fill:#a1260d}</style><path class="st0" d="M0 0h16v16H0z" id="outline"/><g id="icon_x5F_bg"><circle class="st1" cx="8" cy="8" r="8"/><path class="st2" d="M8 1a7 7 0 0 0-7 7c0 .188.014.373.028.558l1.179-1.179.201.201a5.584 5.584 0 0 1 11.158.355 5.585 5.585 0 0 1-5.233 5.571l.288.287-1.179 1.179c.185.014.37.028.558.028A7 7 0 1 0 8 1z"/><path class="st2" d="M8 4H7v5h4V8H8z"/><path class="st3" d="M7.978 2.347a5.584 5.584 0 0 0-5.57 5.233L4 9.172l1.793-1.793L7 8.586V4h1v4h3v1H7.414l1.207 1.207L6.828 12l1.505 1.506a5.585 5.585 0 0 0-.355-11.159z"/><path class="st1" d="M2.828 16L4 14.828 5.172 16h1.242l2.207-2.207L6.828 12l1.793-1.793-2.828-2.828L4 9.172 2.207 7.379 0 9.586v1.242L1.172 12 0 13.172v1.242L1.586 16z"/></g><path class="st4" d="M5.793 8.793L4 10.586 2.207 8.793.793 10.207 2.586 12 .793 13.793l1.414 1.414L4 13.414l1.793 1.793 1.414-1.414L5.414 12l1.793-1.793-1.414-1.414z" id="color_x5F_importance"/></svg>