<svg xmlns="http://www.w3.org/2000/svg" viewBox="0 0 16 16"><style>.st0{opacity:0}.st0,.st1{fill:#f6f6f6}.st2{fill:#424242}.st3{fill:#f0eff1}</style><g id="outline"><path class="st0" d="M0 0h16v16H0z"/><path class="st1" d="M11.231 3l-.455-.602C9.625.874 7.885 0 6 0 2.692 0 0 2.691 0 6s2.691 6 6 6c.682 0 1.352-.123 2-.354V16h8V3h-4.769z"/></g><g id="icon_x5F_bg"><path class="st2" d="M6.955 9.873a4.196 4.196 0 0 1-.275.059c-.221.04-.446.068-.68.068a4 4 0 0 1 0-8c.26 0 .513.028.759.077.166.032.322.087.48.139.068.023.139.037.205.063.208.081.404.183.593.296l.023.013c.2.12.385.259.561.412h1.356C9.065 1.792 7.63 1 6 1a5 5 0 0 0-5 5 5 5 0 0 0 5 5c.711 0 1.386-.154 2-.422V9.445l-.012.007a4.004 4.004 0 0 1-.731.327c-.1.034-.199.067-.302.094zM9 15h6v-5H9v5zm5-4l-2 3-2-3h4z"/><path class="st2" d="M6 3H5v4h3V6H6zM9 4v5h6V4H9zm1 4l2-3 2 3h-4z"/></g><g id="icon_x5F_fg"><path class="st3" d="M14 8l-2-3-2 3zM14 11h-4l2 3zM8 7H5V3h1v3h2V3h.62a4.125 4.125 0 0 0-.56-.413l-.023-.012a4.05 4.05 0 0 0-.593-.296c-.066-.026-.136-.041-.205-.063-.157-.053-.314-.106-.48-.139A3.955 3.955 0 0 0 6 2a4 4 0 0 0 0 8 4.008 4.008 0 0 0 .954-.127c.103-.025.202-.061.302-.094.255-.089.502-.194.732-.327L8 9.444V7z"/></g></svg>