<svg xmlns="http://www.w3.org/2000/svg" viewBox="0 0 16 16"><style>.st0{opacity:0}.st0,.st1{fill:#f6f6f6}.st2{fill:#424242}.st3{fill:#f0eff1}</style><g id="outline"><path class="st0" d="M0 0h16v16H0z"/><path class="st1" d="M11.269 0H5.081c-.823 0-1.494.384-1.842 1.053A2.156 2.156 0 0 0 3 2v7.586L0 12l3.122 3h7.105l1.993-1.915V14h.698C14.271 14 15 12.97 15 12V3.586L11.269 0z"/></g><g id="icon_x5F_bg"><path class="st2" d="M7 6h4v1H7z"/><path class="st2" d="M4 2v7h1V2h5v3h3V12.414l-.586.586H13c1 0 1-1 1-1V4l-3-3H5C3.999 1 4 2 4 2zM4 10.992l-1 1 1 1V14l-2-2 2-2z"/><path class="st2" d="M10 10l2 2-2 2v-1.008l1-1-1-1z"/><circle class="st2" cx="7" cy="12" r="2"/></g><path class="st3" d="M10 5V2H5v7h5.414L13 10.586V5h-3zm1 2H7V6h4v1z" id="icon_x5F_fg"/></svg>