<svg xmlns="http://www.w3.org/2000/svg" viewBox="0 0 16 16"><style>.st0{opacity:0}.st0,.st1{fill:#f6f6f6}.st2{fill:#424242}</style><g id="outline"><path class="st0" d="M0 0h16v16H0z"/><path class="st1" d="M15 4.465v7.07L8.303 16h-.606L1 11.535v-7.07L7.697 0h.605L15 4.465z"/></g><g id="icon_x5F_bg"><path class="st2" d="M8 2.202l5 3.333v4.93l-5 3.333-5-3.333v-4.93l5-3.333M8 1L2 5v6l6 4 6-4V5L8 1z"/><path class="st2" d="M8.5 6.732V1.333L8 1l-.5.333v5.399L2 10.399V11l.451.301L8 7.601l5.549 3.7L14 11v-.601z"/><path class="st2" d="M13.549 4.699L8 8.399l-5.549-3.7L2 5v.601l5.5 3.667v5.399L8 15l.5-.333V9.268L14 5.601V5z"/></g></svg>