<svg xmlns="http://www.w3.org/2000/svg" viewBox="0 0 16 16"><style>.st0{opacity:0}.st0,.st1{fill:#f6f6f6}.st2{fill:#424242}</style><g id="outline"><path class="st0" d="M0 0h16v16H0z"/><path class="st1" d="M8.303 0h-.606L1 4.465v7.07L7.697 16h.606L15 11.535v-7.07z"/></g><g id="icon_x5F_bg"><path class="st2" d="M13.549 4.699L8 1 2.451 4.699 2 5v6l5.5 3.667L8 15l.5-.333L14 11V5l-.451-.301zM13 10.465l-4.5 3V12h-1v1.465l-4.5-3V6.267l1.259.839.581-.093a19.5 19.5 0 0 0 .851-.153L3.353 5.3 8 2.202 12.648 5.3 10.31 6.859c.233.049.501.097.851.153l.581.094L13 6.267v4.198z"/><path class="st2" d="M8 5c-.376 2.319-.681 2.624-3 3 2.319.376 2.624.681 3 3 .376-2.319.681-2.624 3-3-2.319-.376-2.624-.681-3-3z"/></g></svg>