<svg xmlns="http://www.w3.org/2000/svg" viewBox="0 0 16 16"><style>.st0{opacity:0}.st0,.st1{fill:#f6f6f6}.st2{fill:#424242}.st3{fill:#f0eff1}</style><g id="outline"><path class="st0" d="M0 0h16v16H0z"/><path class="st1" d="M16 0H7v4.762A4.474 4.474 0 0 0 4.5 4 4.505 4.505 0 0 0 0 8.5C0 10.981 2.019 13 4.5 13c.599 0 1.188-.119 1.735-.35l.765.765V16h2.586l.414.414.414-.414H16V0zM4.5 10C3.673 10 3 9.327 3 8.5S3.673 7 4.5 7 6 7.673 6 8.5 5.327 10 4.5 10z"/></g><g id="icon_x5F_bg"><path class="st2" d="M8 15h.586L8 14.415zM8 1v4.707c.616.77 1 1.732 1 2.793V2h5v12h-1.586l-1 1H15V1H8zM9 10.585V8.5c0 .6-.119 1.188-.35 1.735l.35.35z"/><path class="st2" d="M11.414 13H12V9h1V7h-1V3h-1v4h-1v2h1v3.586zM8 8.5A3.5 3.5 0 1 0 4.5 12c.711 0 1.369-.215 1.922-.578L10 15l1-1-3.578-3.578A3.488 3.488 0 0 0 8 8.5zM4.5 11a2.5 2.5 0 1 1 0-5 2.5 2.5 0 0 1 0 5z"/><path class="st2" d="M5 7H4v1H3v1h1v1h1V9h1V8H5z"/></g><g id="icon_x5F_fg"><path class="st3" d="M9 2v8.585l2 2.001V9h-1V7h1V3h1v4h1v2h-1v4h-.586l1 1H14V2zM4.5 6a2.5 2.5 0 1 0 0 5 2.5 2.5 0 0 0 0-5zM6 9H5v1H4V9H3V8h1V7h1v1h1v1z"/></g></svg>