<svg xmlns="http://www.w3.org/2000/svg" viewBox="0 0 16 16"><style>.icon-canvas-transparent{opacity:0;fill:#f6f6f6}.icon-vs-out{fill:#f6f6f6}.icon-vs-bg{fill:#424242}.icon-vs-fg{fill:#f0eff1}</style><path class="icon-canvas-transparent" d="M16 16H0V0h16v16z" id="canvas"/><path class="icon-vs-out" d="M15 12H1V3h14v9z" id="outline"/><path class="icon-vs-fg" d="M10 8v2H8V8h2zm0-3H8v2h2V5zm3 5V7.5L10 10h3zm-3-5l3 2.5V5h-3zM6 7V5L3 7.5 6 10V8h2V7H6z" id="iconFg"/><path class="icon-vs-bg" d="M2 4v7h12V4H2zm11 3.5V10H8V8H6v2L3 7.5 6 5v2h2V5h5v2.5zM10 5l3 2.5-3 2.5V8H8V7h2V5z" id="iconBg"/></svg>