<svg xmlns="http://www.w3.org/2000/svg" viewBox="0 0 16 16"><style>.st0{opacity:0}.st0,.st1{fill:#f6f6f6}.st2{fill:#424242}.st3{fill:#f0eff1}</style><path class="st0" d="M0 0h16v16H0z" id="outline"/><g id="icon_x5F_bg"><path class="st1" d="M10.367 0L4.516 2.96v2.273a1.676 1.676 0 0 0-.39.305 1.652 1.652 0 0 0-1.988.797 1.626 1.626 0 0 0-.947-.007 1.682 1.682 0 0 0-1.129 2.06l.248.895.33 1.36c.029.433.212 1.715 1.303 3.323V16H7.43v-1.769c.443-.309 1.032-.856 1.567-1.779L10.66 13.5 16 9.584V2.972L10.367 0z"/><path class="st1" d="M1.942 16v-2.033C.851 12.359.669 11.077.639 10.644l-.33-1.36-.247-.896a1.683 1.683 0 0 1 1.129-2.06 1.626 1.626 0 0 1 .947.007 1.653 1.653 0 0 1 1.458-.885c.185 0 .364.031.53.088C4.428 5.208 4.86 5 5.339 5c.691 0 1.285.432 1.532 1.043a1.643 1.643 0 0 1 1.404.054c.8.416 1.125 1.418.726 2.234l-.162.333c.35.1.664.315.883.617.499.687.269 1.653-.266 2.241-.629 1.51-1.452 2.307-2.027 2.708V16H1.942z"/><path class="st2" d="M7.999 9.736a.68.68 0 0 0-.116.118l-.011.002-1.007 1.076V10.5l1.128-2.387.11-.224a.685.685 0 0 0-.289-.907.645.645 0 0 0-.878.299l-.1.203L6 9.15h-.006v.015l-.219.436.218-2.925A.664.664 0 0 0 5.339 6a.665.665 0 0 0-.653.676L4.25 9.601V7.126a.666.666 0 0 0-.654-.676.666.666 0 0 0-.654.676v2.925l-.051-.106-.609-2.195c-.099-.357-.461-.565-.808-.463s-.548.476-.449.834l.256.927.352 1.453s0 1.35 1.309 3.149V15H6.43v-1.35s1.308-.45 2.18-2.699c.289-.225.522-.782.305-1.081a.642.642 0 0 0-.916-.134z"/><path class="st2" d="M10.357 1L5.516 3.449v1.578c.308.034.589.145.823.327v-.792L10.2 6.719v4.311l-.325-.212a2.123 2.123 0 0 1-.372.645l1.114.702L15 8.952V3.449L10.357 1zm.226 4.798l-3.71-2.115 3.454-1.754 3.681 1.813-3.425 2.056zm3.586 2.747l-2.955 2.129V6.546l2.955-1.802v3.801z"/></g><g id="icon_x5F_fg"><path class="st3" d="M6.339 4.562v.792c.231.18.421.412.533.689a1.643 1.643 0 0 1 1.404.054 1.693 1.693 0 0 1 .725 2.234l-.162.333c.35.1.664.315.883.617.33.454.337 1.029.152 1.537l.326.212V6.719L6.339 4.562zM10.583 5.798l-3.71-2.115 3.454-1.754 3.681 1.813zM14.169 8.545l-2.955 2.129V6.546l2.955-1.802z"/></g></svg>