<svg xmlns="http://www.w3.org/2000/svg" viewBox="0 0 16 16"><style>.st0{opacity:0}.st0,.st1{fill:#f6f6f6}.st2{fill:#424242}</style><g id="outline"><path class="st0" d="M0 0h16v16H0z"/><path class="st1" d="M16 5.5a5.499 5.499 0 1 0-10.976-.476 5.498 5.498 0 1 0 5.952 5.952A5.498 5.498 0 0 0 16 5.5z"/></g><g id="icon_x5F_bg"><path class="st2" d="M10.5 1C8.176 1 6.287 2.768 6.048 5.028c.337.033.664.101.98.192C7.173 3.42 8.664 2 10.5 2A3.5 3.5 0 0 1 14 5.5a3.489 3.489 0 0 1-3.22 3.472c.092.316.159.644.192.98C13.232 9.713 15 7.824 15 5.5A4.5 4.5 0 0 0 10.5 1z"/><circle class="st2" cx="5.5" cy="10.5" r="4.5"/></g></svg>