<svg xmlns="http://www.w3.org/2000/svg" viewBox="0 0 16 16"><style>.st0{opacity:0}.st0,.st1{fill:#f6f6f6}.st2{fill:#424242}.st3{fill:#f0eff1}</style><g id="outline"><path class="st0" d="M0 0h16v16H0z"/><path class="st1" d="M16 13.086L13.914 11h-.103l1.931-1.416V2.972L10.109 0 5 2.585v-.499L2.914 0h-.828L0 2.086v4.328l1-1V15h9.586l-1 1h4.328L16 13.914v-.828zM4 12V5.414l.258.258V9.63L8.022 12H4z"/></g><g id="icon_x5F_bg"><path class="st2" d="M13.5 12H12l1 1H3V3l1 1V2.5L2.5 1 1 2.5V4l1-1v11h11l-1 1h1.5l1.5-1.5z"/><path class="st2" d="M10.357 1L5.516 3.449v5.503l5.102 3.213L15 8.952V3.449L10.357 1zM6.339 8.514V4.562L10.2 6.719v4.311L6.339 8.514zm4.244-2.716l-3.71-2.115 3.454-1.754 3.681 1.813-3.425 2.056zm3.586 2.747l-2.955 2.129V6.546l2.955-1.802v3.801z"/></g><g id="icon_x5F_fg"><path class="st3" d="M6.339 8.514V4.562L10.2 6.719v4.311zM10.583 5.798l-3.71-2.115 3.454-1.754 3.681 1.813zM14.169 8.545l-2.955 2.129V6.546l2.955-1.802z"/></g></svg>