<svg xmlns="http://www.w3.org/2000/svg" viewBox="0 0 16 16"><style>.icon-canvas-transparent{opacity:0;fill:#f6f6f6}.icon-vs-out{fill:#f6f6f6}.icon-vs-bg{fill:#424242}.icon-vs-fg{fill:#f0eff1}</style><path class="icon-canvas-transparent" d="M16 0v16H0V0h16z" id="canvas"/><path class="icon-vs-out" d="M16 2v11H1V2h15z" id="outline"/><path class="icon-vs-bg" d="M9 6H8V5h1v1zm2-1h-1v1h1V5zm0 2h-1v1h1V7zm2 0h-1v1h1V7zm0 2h-1v1h1V9zm0-4h-1v1h1V5zM9 7H8v1h1V7zM5 5H4v1h1V5zm0 4H4v1h1V9zm10-6v9H2V3h13zm-1 1H3v7h11V4zM5 7H4v1h1V7zm2 0H6v1h1V7zm0-2H6v1h1V5zm4 4H6v1h5V9z" id="iconBg"/><g id="iconFg"><path class="icon-vs-fg" d="M3 4v7h11V4H3zm5 1h1v1H8V5zm0 2h1v1H8V7zM6 5h1v1H6V5zm0 2h1v1H6V7zm-1 3H4V9h1v1zm0-2H4V7h1v1zm0-2H4V5h1v1zm6 4H6V9h5v1zm0-2h-1V7h1v1zm0-2h-1V5h1v1zm2 4h-1V9h1v1zm0-2h-1V7h1v1zm0-2h-1V5h1v1z"/></g></svg>