<svg xmlns="http://www.w3.org/2000/svg" viewBox="0 0 16 16"><style>.st0{opacity:0}.st0,.st1{fill:#f6f6f6}.st2{fill:#424242}.st3{fill:#f0eff1}</style><g id="outline"><path class="st0" d="M0 0h16v16H0z"/><path class="st1" d="M0 0v16h16V0z"/></g><g id="icon_x5F_bg"><path class="st2" d="M11 3h2v2h-2zM7 3h2v2H7zM3 11h2v2H3zM7 11h2v2H7z"/><path class="st2" d="M6 1H1v6h14V1H6zM5 5H3V3h2v2zm9 1H6V2h8v4zM1 9v6h14V9H1zm1 5v-4h8v4H2zm11-1h-2v-2h2v2z"/></g><g id="icon_x5F_fg"><path class="st3" d="M3 3h2v2H3zM11 11h2v2h-2zM6 2v4h8V2H6zm3 3H7V3h2v2zm4 0h-2V3h2v2zM2 14h8v-4H2v4zm5-3h2v2H7v-2zm-4 0h2v2H3v-2z"/></g></svg>