<svg xmlns="http://www.w3.org/2000/svg" viewBox="0 0 16 16"><style>.icon-canvas-transparent{opacity:0;fill:#f6f6f6}.icon-vs-out{fill:#f6f6f6}.icon-vs-bg{fill:#424242}.icon-vs-fg{fill:#f0eff1}.icon-vs-action-blue{fill:#00539c}</style><path class="icon-canvas-transparent" d="M16 16H0V0h16v16z" id="canvas"/><path class="icon-vs-out" d="M16 6v9H2V9.717l-1 1.099V0h1.392l6.465 6H16z" id="outline"/><path class="icon-vs-fg" d="M6.843 8l.425.965-3.008 1.367L4 9.744V13h10V8H6.843zM12 11H6v-1h6v1z" id="iconFg"/><path class="icon-vs-bg" d="M12 11H6v-1h6v1zM9.935 7H6.402l.441 1H14v5H4V9.744l-.664-1.495-.336.37V14h12V7H9.935z" id="iconBg"/><g id="colorAction"><path class="icon-vs-action-blue" d="M4.766 9.004L3.629 6.442 2 8.231V1l5.387 4.998H4.869l1.086 2.465-1.189.541z"/></g></svg>