<svg xmlns="http://www.w3.org/2000/svg" viewBox="0 0 16 16"><style>.st0{opacity:0}.st0,.st1{fill:#f6f6f6}.st2{fill:#424242}.st3{fill:#f0eff1}</style><g id="outline"><path class="st0" d="M0 0h16v16H0z"/><path class="st1" d="M9 16h.742l1.595-1.751.776 1.751h.877l2.279-1.036L14.403 13H16V2H0v11h9z"/></g><g id="icon_x5F_bg"><path class="st2" d="M5 5v5h4V6L8 5H5zm3 4H6V6h1v1h1v2z"/><path class="st2" d="M9 11H4V4h11V3H1v9h8v-1zm-6-1H2V9h1v1zm0-2H2V7h1v1zm0-2H2V5h1v1z"/><path class="st2" d="M13.955 14.463l-1.086-2.465h2.518L10 7v7.231l1.629-1.789 1.137 2.562zM14 9.348V6l-1-1h-1v2h-.529zM11 6.563V5h-1v.636z"/></g><g id="icon_x5F_fg"><path class="st3" d="M2 5h1v1H2zM2 9h1v1H2zM2 7h1v1H2zM7 6H6v3h2V7H7z"/><path class="st3" d="M9 10H5V5h3l1 1V4.634l.945.951.055.051V5h1v1.563l.471.437H12V5h1l1 1v3.348l1 .927V4H4v7h5z"/></g></svg>