<svg xmlns="http://www.w3.org/2000/svg" width="16" height="16"><style type="text/css">.icon-canvas-transparent{opacity:0;fill:#F6F6F6;} .icon-vs-out{fill:#F6F6F6;} .icon-vs-bg{fill:#424242;}</style><path class="icon-canvas-transparent" d="M16 16h-16v-16h16v16z" id="canvas"/><path class="icon-vs-out" d="M0 16v-16h5v1h6v-1h5v5h-1v6h1v5h-16zm12-5v-6h-1v-1h-6v.752c2.853 1.118 5.13 3.395 6.247 6.248h.753z" id="outline"/><g id="iconBg"><path class="icon-vs-bg" d="M14 4v8h1v3h-3v-3h1v-8h-1v-1h-8v1h-3v-3h3v1h8v-1h3v3h-1zm-13 11h10c0-5.523-4.477-10-10-10v10z"/></g></svg>