<svg xmlns="http://www.w3.org/2000/svg" viewBox="0 0 16 16"><style>.st0{opacity:0}.st0,.st1{fill:#f6f6f6}.st2{fill:#424242}.st3{fill:#f0eff1}</style><g id="outline"><path class="st0" d="M0 0h16v16H0z"/><path class="st1" d="M0 2h16v11H0z"/></g><path class="st2" d="M5 5v5h4V6L8 5H5zm3 4H6V6h1v1h1v2zm6-3v4h-4V5h1v2h1V5h1l1 1zm1-2V3H1v9h14v-1H4V4h11zM3 10H2V9h1v1zm0-2H2V7h1v1zm0-2H2V5h1v1z" id="icon_x5F_bg"/><path class="st3" d="M2 5h1v1H2V5zm0 3h1V7H2v1zm0 2h1V9H2v1zm13-6v7H4V4h11zM9 6L8 5H5v5h4V6zm5 0l-1-1h-1v2h-1V5h-1v5h4V6zM7 6H6v3h2V7H7V6z" id="icon_x5F_fg"/></svg>