<svg xmlns="http://www.w3.org/2000/svg" viewBox="0 0 16 16"><style>.st0{opacity:0}.st0,.st1{fill:#f6f6f6}.st2{fill:#424242}.st3{fill:#f0eff1}</style><g id="outline"><path class="st0" d="M0 0h16v16H0z"/><path class="st1" d="M8.857 6L2.392 0H1v10.815l1-1.098V15h14V6z"/></g><g id="icon_x5F_bg"><path class="st2" d="M6 10h6v1H6z"/><path class="st2" d="M9.935 7H6.402l.441 1H14v5H4V9.744l-.664-1.495-.336.37V14h12V7z"/><path class="st2" d="M5.955 8.463L4.869 5.998h2.518L2 1v7.231l1.629-1.789 1.137 2.562z"/></g><path class="st3" d="M6.843 8l.425.965-3.008 1.367L4 9.744V13h10V8H6.843zM12 11H6v-1h6v1z" id="icon_x5F_fg"/></svg>