<svg xmlns="http://www.w3.org/2000/svg" viewBox="0 0 16 16"><style>.st0{opacity:0}.st0,.st1{fill:#f6f6f6}.st2{fill:#424242}.st3{fill:#00539c}</style><g id="outline"><path class="st0" d="M0 0h16v16H0z"/><path class="st1" d="M16 11.564L12.436 8H7V6h1V2H5v1H4V2H1v3H0v4h1v3h3v-1h1v1h2v2h2.607l-2 2h4.828L16 12.436v-.872zM8 10V8.393L9.607 10H8z"/></g><g id="icon_x5F_bg"><path class="st2" d="M6 3v1H3V3H2v2h5V3zM6 11v-1H3v1H2V9h5v2zM1 6h5v2H1z"/></g><path class="st3" d="M12.021 9h-2l2 2H8v2h4.021l-2 2h2l3-3z" id="color_x5F_action"/></svg>