<svg xmlns="http://www.w3.org/2000/svg" viewBox="0 0 16 16"><style>.st0{opacity:0}.st0,.st1{fill:#f6f6f6}.st2{fill:#424242}.st3{fill:#f0eff1}</style><g id="outline"><path class="st0" d="M0 0h16v16H0z"/><path class="st1" d="M5 0v5.37a4.063 4.063 0 0 0-.608.93A1.479 1.479 0 0 0 3.5 6c-.495 0-.959.252-1.24.672l-2 3.001A1.47 1.47 0 0 0 0 10.5c0 .402.156.779.441 1.063l1.998 1.998c.282.283.659.439 1.061.439h1c.17 0 .336-.04.5-.101V16h11V0H5z"/></g><g id="icon_x5F_bg"><path class="st2" d="M7 11.5v-.684c.314.112.647.184 1 .184a3.001 3.001 0 0 0 0-6C6.344 5 5 6.344 5 8c0 .112.021.217.033.326l-1.179-1.18a.49.49 0 0 0-.762.082l-2 3A.483.483 0 0 0 1 10.5c0 .139.057.264.146.354l2 2c.09.089.215.146.354.146h1c.08 0 .154-.023.221-.057l2-1A.498.498 0 0 0 7 11.5zM6 8a2 2 0 1 1 1.232 1.846l1.657-2.029-.007-.006A.49.49 0 0 0 9 7.5a.5.5 0 0 0-.5-.5.495.495 0 0 0-.311.117l-.005-.005-2.029 1.656A1.987 1.987 0 0 1 6 8z"/><path class="st2" d="M6 1v3.551c.31-.182.644-.322 1-.415V2h7v10H7.901a1.49 1.49 0 0 1-.733.838L6 13.422V15h9V1H6zm2 13H7v-1h1v1zm3 0h-1v-1h1v1zm3 0h-1v-1h1v1z"/></g><g id="icon_x5F_fg"><path class="st3" d="M10 13h1v1h-1zM7 13h1v1H7zM13 13h1v1h-1zM7.901 12H8c-.032 0-.061-.009-.093-.01-.001.004-.004.006-.006.01zM7 2v2.136C7.32 4.052 7.653 4 8 4a4 4 0 0 1 0 8h6V2H7z"/></g></svg>