<svg xmlns="http://www.w3.org/2000/svg" viewBox="0 0 16 16"><style>.st0{fill:#f6f6f6}.st1{fill:#e51400}.st2{fill:#fff}.st3{fill:#fc0}</style><g id="outline"><path class="st0" d="M7.586 0L0 7.586v.828L7.586 16h.828L16 8.414v-.828L8.414 0z"/><path class="st0" d="M8.309 15.5l-.75-1.5 3.25-6.5h1.382l3.25 6.5-.75 1.5z"/><path class="st0" d="M11.882 8l3 6-.5 1H8.618l-.5-1 3-6h.764m.618-1h-2L7 14l1 2h7l1-2-3.5-7z"/></g><path class="st1" d="M2.5 8L8 2.5 13.5 8l-.333.333.5 1L15 8 8 1 1 8l6 6 .5-1z" id="icon_x5F_bg"/><g id="icon_x5F_fg"><path class="st2" d="M10.5 7h2L8 2.5 2.5 8l5 5zM13.5 8l-1-1 .667 1.333z"/></g><path class="st3" d="M11.891 8.016h-.781l-3.016 6 .515.984h5.766l.484-1-2.968-5.984zM12 14h-1v-1h1v1zm0-2h-1v-2h1v2z" id="not_x5F_bg"/><path d="M12 12h-1v-2h1v2zm0 1h-1v1h1v-1z" id="not_x5F_fg"/></svg>