<svg xmlns="http://www.w3.org/2000/svg" viewBox="0 0 16 16"><style>.st0{opacity:0}.st0,.st1{fill:#f6f6f6}.st2{fill:#424242}.st3{fill:#00539c}.st4{fill:#f0eff1}</style><g id="outline"><path class="st0" d="M0 0h16v16H0z"/><path class="st1" d="M9 4V2H6.94l2-2h-6L0 2.94v2.12l2 2V16h14V4z"/></g><path class="st2" d="M15 5v10H3V8h1v6h10V6H9V5h6zM5 8v2.793l1.146-1.147A.503.503 0 0 1 6.9 9.7l1.063 1.417 2.613-3.383a.5.5 0 0 1 .83-.025L13 9.939V7H7.94l1 1H5zm3.424 4.266a.502.502 0 0 1-.402.234.49.49 0 0 1-.422-.2l-1.154-1.538L5 12.207V13h8v-1.34l-1.973-2.762-2.603 3.368z" id="icon_x5F_bg"/><path class="st3" d="M8 3H4l2-2H4L1 4l3 3h2L4 5h4V3z" id="color_x5F_action"/><path class="st4" d="M7.94 7H13v2.939l-1.594-2.23a.494.494 0 0 0-.422-.209.505.505 0 0 0-.408.234l-2.613 3.383L6.9 9.7a.498.498 0 0 0-.754-.053L5 10.793V8H4v6h10V6H6.94l1 1zM13 13H5v-.793l1.445-1.445L7.6 12.3a.49.49 0 0 0 .422.2.507.507 0 0 0 .402-.234l2.603-3.367L13 11.66V13z" id="icon_x5F_fg"/></svg>