<svg xmlns="http://www.w3.org/2000/svg" viewBox="0 0 16 16"><style>.st0{opacity:0}.st0,.st1{fill:#f6f6f6}.st2{fill:#e51400}.st3{fill:#fff}</style><g id="outline"><path class="st0" d="M0 0h16v16H0z"/><path class="st1" d="M7.586 0L0 7.586v.828L7.586 16h.828L16 8.414v-.828L8.414 0z"/></g><g id="icon_x5F_bg"><path class="st2" d="M8 1L1 8l7 7 7-7-7-7zM2.5 8L8 2.5 13.5 8 8 13.5 2.5 8z"/><path class="st2" d="M11 7H9V5H7v2H5v2h2v2h2V9h2z"/></g><path class="st3" d="M8 2.5L2.5 8 8 13.5 13.5 8 8 2.5zM9 9v2H7V9H5V7h2V5h2v2h2v2H9z" id="icon_x5F_fg"/></svg>