<svg xmlns="http://www.w3.org/2000/svg" width="16" height="16"><style type="text/css">.icon-canvas-transparent{opacity:0;fill:#F6F6F6;} .icon-vs-out{fill:#F6F6F6;} .icon-vs-fg{fill:#F0EFF1;} .icon-vs-red{fill:#E51400;} .icon-vs-yellow{fill:#FFCC00;}</style><path class="icon-canvas-transparent" d="M16 16h-16v-16h16v16z" id="canvas"/><path class="icon-vs-out" d="M16 8.414l-1.862 1.862 1.862 3.724-1 2h-7.414l-7.586-7.586v-.828l7.586-7.586h.828l7.586 7.586v.828z" id="outline"/><path class="icon-vs-red" d="M7.471 13.057l-.471.943-6-6 7-7 7 7-1.333 1.333-.471-.943.39-.39-5.586-5.586-5.586 5.586 5.057 5.057z" id="iconBg"/><path class="icon-vs-fg" d="M7.471 13.057l-5.057-5.057 5.586-5.586 5.586 5.586-.391.391-.695-1.391h-2l-3.029 6.057z" id="iconFg"/><path class="icon-vs-yellow" d="M11.891 8.016h-.781l-3.016 6 .515.984h5.766l.484-1-2.968-5.984zm.109 5.984h-1v-1h1v1zm0-2h-1v-2h1v2z" id="notificationBg"/><g id="notificationFg"><path class="icon-black" d="M12 12h-1v-2h1v2zm0 1h-1v1h1v-1z"/></g></svg>