<svg xmlns="http://www.w3.org/2000/svg" viewBox="0 0 16 16" enable-background="new 0 0 16 16"><style type="text/css">.icon-canvas-transparent{opacity:0;fill:#F6F6F6;} .icon-vs-out{fill:#F6F6F6;} .icon-vs-bg{fill:#424242;}</style><path class="icon-canvas-transparent" d="M16 16h-16v-16h16v16z" id="canvas"/><path class="icon-vs-out" d="M14 13.979l-5.203-1.041-2.297 3.062h-1.5v-4h-5v-12h5v2h6v-2h5v12h-2.885l.885.996v.983z" id="outline"/><path class="icon-vs-bg" d="M2 5h-1v-4h3v1h-2v3zm0 2h-1v4h3v-1h-2v-3zm12 3h-2v1h3v-4h-1v3zm-2-9v1h2v3h1v-4h-3zm-8 3h8v4h-2v1h3v-6h-10v6h2v-1h-1v-4zm2 11l2.375-3.167 3.958.792-6.333-7.125v9.5z" id="iconBg"/></svg>