<svg xmlns="http://www.w3.org/2000/svg" viewBox="0 0 16 16"><style>.st0{opacity:0}.st0,.st1{fill:#f6f6f6}.st2{fill:#e51400}.st3{fill:#fff}</style><g id="outline"><path class="st0" d="M0 0h16v16H0z"/><path class="st1" d="M16 7.586L8.414 0h-.828L0 7.586v.828L7.586 16h.828l.699-.699A4.465 4.465 0 0 0 11.5 16c2.485 0 4.5-2.016 4.5-4.5a4.48 4.48 0 0 0-.698-2.388L16 8.414v-.828z"/></g><path class="st2" d="M7.175 12.675L2.5 8 8 2.5l4.674 4.674a4.48 4.48 0 0 1 2.009 1.144L15 8 8 1 1 8l7 7 .318-.318a4.487 4.487 0 0 1-1.143-2.007z" id="icon_x5F_bg"/><path class="st3" d="M7 11.5A4.5 4.5 0 0 1 11.5 7c.409 0 .798.072 1.174.174L8 2.5 2.5 8l4.675 4.675A4.433 4.433 0 0 1 7 11.5z" id="icon_x5F_fg"/><path class="st2" d="M11.5 8a3.5 3.5 0 1 0-.001 6.999A3.5 3.5 0 0 0 11.5 8zm1.854 4.646l-.707.707-1.147-1.146-1.146 1.147-.707-.707 1.147-1.146-1.147-1.146.707-.707 1.146 1.147 1.146-1.147.707.707-1.146 1.145 1.147 1.146z" id="not_x5F_bg"/><path class="st3" d="M13.354 10.354l-.708-.708-1.146 1.147-1.146-1.147-.708.708 1.147 1.146-1.147 1.146.708.708 1.146-1.147 1.146 1.147.708-.708-1.147-1.146z" id="not_x5F_fg"/></svg>