<svg xmlns="http://www.w3.org/2000/svg" viewBox="0 0 16 16"><style>.st0{opacity:0}.st0,.st1{fill:#f6f6f6}.st2{fill:#424242}</style><g id="outline"><path class="st0" d="M0 0h16v16H0z"/><path class="st1" d="M12.5 16a3.514 3.514 0 0 1-3.162-2H7.662A3.514 3.514 0 0 1 4.5 16C2.57 16 1 14.43 1 12.5a3.504 3.504 0 0 1 3.187-3.486l1.566-3.359A3.453 3.453 0 0 1 5 3.5C5 1.57 6.57 0 8.5 0S12 1.57 12 3.5c0 .791-.268 1.545-.753 2.154l1.566 3.359A3.506 3.506 0 0 1 16 12.5c0 1.93-1.57 3.5-3.5 3.5zm-3.16-5a3.54 3.54 0 0 1 .655-.934L8.564 7h-.128l-1.431 3.066c.269.275.49.59.655.934h1.68z"/></g><path class="st2" d="M12.5 10c-.108 0-.211.018-.315.031l-2.137-4.582A2.485 2.485 0 0 0 11 3.5a2.5 2.5 0 1 0-5 0c0 .793.376 1.49.952 1.949l-2.137 4.582C4.711 10.018 4.608 10 4.5 10a2.5 2.5 0 1 0 2.449 3h3.102A2.499 2.499 0 0 0 15 12.5a2.5 2.5 0 0 0-2.5-2.5zM7.844 5.902c.21.057.427.098.656.098s.446-.041.656-.098l2.077 4.454A2.49 2.49 0 0 0 10.05 12H6.949a2.49 2.49 0 0 0-1.183-1.644l2.078-4.454z" id="icon_x5F_bg"/></svg>