<svg xmlns="http://www.w3.org/2000/svg" viewBox="0 0 16 16"><style>.st0{opacity:0}.st0,.st1{fill:#f6f6f6}.st2{fill:#424242}.st3{fill:#f0eff1}</style><g id="outline"><path class="st0" d="M0 0h16v16H0z"/><path class="st1" d="M16 8h-2v6H8v2H0V8h2V2h6V0h8v8z"/></g><path class="st2" d="M3 3v10h10V3H3zm9 9H4V4h8v8zM9 1v6h6V1H9zm3 5h-2V4h2v2zm2 0h-1V3h-3V2h4v4zM1 9v6h6V9H1zm5 5H2v-4h1v3h3v1zm0-2H4v-2h2v2z" id="icon_x5F_bg"/><path class="st3" d="M12 6h-2V4h2v2zm-2-4v1h3v3h1V2h-4zm-4 8H4v2h2v-2zm-3 3v-3H2v4h4v-1H3zm6-6V4H4v5h3v3h5V7H9z" id="icon_x5F_fg"/></svg>