<svg xmlns="http://www.w3.org/2000/svg" viewBox="0 0 16 16"><style>.st0{opacity:0}.st0,.st1{fill:#f6f6f6}.st2{fill:#424242}.st3{fill:#f0eff1}</style><g id="outline"><path class="st0" d="M0 0h16v16H0z"/><path class="st1" d="M16 4h-1c.015-1.108-.08-2.347-.877-3.155C13.385.096 12.333 0 11.5 0 8.416 0 8 2.022 8 4H7v4.585l-.02.02A4.004 4.004 0 0 0 3 5H0v4h1v3.415L4.586 16h.828L9 12.414V11h7V4z"/></g><g id="icon_x5F_bg"><path class="st2" d="M14 5V4c.032-2.32-.567-3-2.5-3S9 1.765 9 4v1H8v2.585l1-1V10h6V5h-1zm-2 4h-1V6h1v3zm1-4.5V5h-3v-.5c0-1.104-.234-2.418 1.568-2.418C13.203 2.082 13 3.396 13 4.5zM6 9c0-1.654-1.346-3-3-3H1v2h2c.552 0 1 .449 1 1v2L2 9v3l3 3 3-3V9l-2 2V9z"/></g><path class="st3" d="M12 9h-1V6h1v3z" id="icon_x5F_fg"/></svg>