<svg xmlns="http://www.w3.org/2000/svg" viewBox="0 0 16 16"><style>.st0{opacity:0}.st0,.st1{fill:#f6f6f6}.st2{fill:#424242}.st3{fill:#f0eff1}</style><g id="outline"><path class="st0" d="M0 0h16v16H0z"/><path class="st1" d="M2 0v5H0v4h1v3.414L4.586 16h.828L9 12.414V12h7V0z"/></g><g id="icon_x5F_bg"><path class="st2" d="M10 4h2v2h-2z"/><path class="st2" d="M3 1v4c.347 0 .679.059 1 .143V3h10v7H9v1h6V1H3z"/><path class="st2" d="M9 5H6v1.38c.403.461.704 1.009.863 1.62H9V5zM10 7h2v2h-2zM6 9c0-1.654-1.346-3-3-3H1v2h2c.552 0 1 .449 1 1v2L2 9v3l3 3 3-3V9l-2 2V9z"/></g><path class="st3" d="M4 3v2.143A3.982 3.982 0 0 1 6 6.38V5h3v3H6.863c.051.197.097.397.117.605L7.585 8H9v2h5V3H4zm8 6h-2V7h2v2zm0-3h-2V4h2v2z" id="icon_x5F_fg"/></svg>