<svg xmlns="http://www.w3.org/2000/svg" viewBox="0 0 16 16"><style>.st0{opacity:0}.st0,.st1{fill:#f6f6f6}.st2{fill:#424242}</style><g id="outline"><path class="st0" d="M0 0h16v16H0z"/><path class="st1" d="M16 1.069l-1.3 1.299a3.585 3.585 0 0 0-.723-1.197c-.51-.554-1.17-.912-1.972-1.068V0h-1C9.742 0 8.743.39 8.034 1.16a3.711 3.711 0 0 0-.845 1.585l-.228.864C6.775 1.957 5.693.98 3.973.98c-.927 0-1.765.234-2.491.695l-.463.295v2.619C.651 5.054.457 5.645.457 6.338c0 .776.278 1.446.802 1.937.513.481 1.196.725 2.029.725.334 0 .648-.045.94-.135h1.934l.007.241.911.055c.233.015.39.019 1.083.021-1.506.815-2.383 2.087-2.383 3.506 0 1.334.884 2.266 2.15 2.266.463 0 .938-.11 1.422-.33l.3.463.367-.23c.004.01.236.842.236.842l.847-.095c3.967-.445 4.559-2.5 4.559-3.684 0-1.411-.704-2.504-1.935-3.082.118-.022.231-.047.337-.073l.871-.213-.302-2.272L16 4.895V1.069zm-5.026 5.426a6.02 6.02 0 0 1 .017-.189l.112-1.033-2.758-.194s-.058 1.327-.063 1.484a24.028 24.028 0 0 1-1.101-.025L7 6.527V4.125c0-.043-.008-.082-.009-.125h2.874l.256-.615a.668.668 0 0 1 .125-.208c.046-.05.081-.096.118-.124.012-.006.134-.053.636-.053v1.895l1.446 1.462a26.42 26.42 0 0 1-1.472.138zm.649 6.387a8.618 8.618 0 0 0 1.069-1.58c.257.198.268.449.274.636.001.456-.597.764-1.343.944z"/></g><g id="icon_x5F_bg"><path class="st2" d="M6 7.865h-.921v-.898h-.022C4.656 7.656 4.066 8 3.288 8c-.573 0-1.021-.151-1.345-.455-.324-.303-.486-.706-.486-1.207 0-1.074.633-1.7 1.898-1.875l1.724-.242c0-.977-.395-1.465-1.185-1.465-.692 0-1.318.236-1.875.708V2.52c.565-.36 1.216-.54 1.954-.54C5.324 1.98 6 2.695 6 4.125v3.74zm-.921-2.889l-1.387.191c-.427.06-.749.166-.966.317-.217.152-.326.42-.326.806 0 .281.1.51.3.688.2.178.467.267.8.267.457 0 .834-.16 1.131-.48.298-.32.447-.726.447-1.216v-.573zM14 4.483h-.015l-.012-.423c.004-.054.091-1.317-.731-2.211-.511-.556-1.235-.837-2.235-.837V1c-1 0-1.725.281-2.235.836A2.725 2.725 0 0 0 8.156 3h1.041c.074-.176.173-.352.315-.504C9.825 2.158 10 2 11 2s1.186.171 1.5.508c.524.565.506 1.451.506 1.504v.472H13l-1-1v1L13.5 6 15 4.483v-1l-1 1zM12.369 9.456c.038-.114.066-.237.096-.361l-.676-.171a7.118 7.118 0 0 1-.095.447c-.124-.01-.247-.01-.39-.01-.162 0-.761.01-1.426.219-.01-.447 0-.922.019-1.417 1.084-.028 2.919-.124 3.927-.371l-.086-.646c-.961.247-2.775.371-3.813.399.021-.772.05-1.16.07-1.349l-.696-.048a69.3 69.3 0 0 0-.048 1.416c-.817 0-1.645 0-2.129-.029l.019.627c.314.019.485.019 2.092.019-.01.561-.01 1.103.01 1.597-1.379.551-2.463 1.598-2.463 2.908 0 .704.39 1.266 1.15 1.266.428 0 1.036-.152 1.797-.714.066.181.143.343.229.476l.561-.351a2.137 2.137 0 0 1-.248-.514 7.52 7.52 0 0 0 1.893-2.795c1.017.172 1.758.713 1.807 1.816v.066c0 1.227-1.266 1.91-3.232 2.101.086.151.219.436.256.57 2.377-.267 3.67-1.179 3.67-2.69-.003-1.12-.62-2.167-2.294-2.461zm-4.287 3.859c-.342.019-.656-.171-.656-.731 0-.922.808-1.711 1.844-2.168.039.885.124 1.635.276 2.225-.504.408-1.017.666-1.464.674zm2.024-1.159c-.133-.533-.199-1.189-.218-1.959.713-.256 1.453-.237 1.605-.229a6.19 6.19 0 0 1-1.387 2.188z"/></g></svg>