<svg xmlns="http://www.w3.org/2000/svg" viewBox="0 0 16 16"><style>.st0{opacity:0}.st0,.st1{fill:#f6f6f6}.st2{fill:#424242}.st3{stroke:#424242;stroke-width:.15;stroke-miterlimit:10}.st3,.st4{fill:#f0eff1}</style><g id="outline"><path class="st0" d="M0 0h16v16H0z"/><path class="st1" d="M12.214 0H9.838L6.167 1.856v3.209C5.946 5.039 5.729 5 5.5 5A5.506 5.506 0 0 0 0 10.5a5.225 5.225 0 0 0 .065.812l.001.124.034.083c.424 2.265 2.218 4.026 4.462 4.394l.111.022h.021a5.01 5.01 0 0 0 1.343.039 5.48 5.48 0 0 0 4.961-5.505l.293.185 4.464-3.272V1.868L12.214 0z"/></g><g id="icon_x5F_bg"><path class="st2" d="M9.992 10.348a4.497 4.497 0 1 0-8.972.541 4.74 4.74 0 0 0 .047.354 4.49 4.49 0 0 0 3.696 3.691l.013.002a4.473 4.473 0 0 0 1.163.043A4.503 4.503 0 0 0 10 10.5c0-.053-.008-.102-.008-.152zM8.553 8.416a7.23 7.23 0 0 1-1.255.319 7.571 7.571 0 0 0-.589-1.725c.757.262 1.4.759 1.844 1.406zm-1.954.4c-.368.026-.729.03-1.095.026-.386-.004-.76-.029-1.119-.07.15-.782.398-1.424.645-1.935.154-.02.31-.033.47-.033.106 0 .21.008.313.016a6.99 6.99 0 0 1 .786 1.996zM4.16 7.058a8.697 8.697 0 0 0-.471 1.612 12.479 12.479 0 0 1-1.222-.28A3.702 3.702 0 0 1 4.16 7.058zm.127 2.386c.387.044.789.056 1.209.056h.259c.314 0 .632.012.956-.012.025.219.044.451.046.683.004.372-.044.778-.135 1.208-.376.025-.744.037-1.118.035-.41-.006-.803-.035-1.182-.079a7.722 7.722 0 0 1-.035-1.891zM1.804 10.5a3.7 3.7 0 0 1 .31-1.48c.44.131.932.254 1.479.346a8.394 8.394 0 0 0-.049.811c-.004.342.021.694.063 1.051a12.757 12.757 0 0 1-1.788-.467 2.834 2.834 0 0 1-.015-.261zm.151 1.044c.514.157 1.102.31 1.765.415.132.673.349 1.359.632 2.053a3.703 3.703 0 0 1-2.397-2.468zm3.608 2.648c-.021.001-.041.004-.063.004-.109 0-.217-.008-.324-.018-.322-.717-.57-1.43-.725-2.124a11.327 11.327 0 0 0 1.304.061c.224 0 .45-.006.678-.017a13.79 13.79 0 0 1-.87 2.094zm.828-.108c.35-.737.62-1.424.795-2.054a8.144 8.144 0 0 0 1.855-.472 3.7 3.7 0 0 1-2.65 2.526zm2.793-3.344a7.532 7.532 0 0 1-1.83.555c.07-.393.108-.768.104-1.119a7.633 7.633 0 0 0-.05-.743 8.07 8.07 0 0 0 1.489-.388c.191.445.298.937.298 1.455 0 .08-.007.16-.011.24z"/><path class="st2" d="M11.041.512L7.167 2.471v2.79c.213.067.419.151.619.244V3.178l3.209 1.793v3.573l-.024.018v.016l-.01-.008-.008.008v-.016l-.423-.276c.127.287.227.587.304.897l.414.261 3.507-2.57V2.471L11.041.512zm.16 3.908L8.106 2.654l2.889-1.466 3.07 1.513-2.864 1.719zm2.989 2.179l-2.576 1.856V4.992l2.576-1.566v3.173z"/></g><g id="icon_x5F_fg"><path class="st3" d="M10.995 1.188l3.07 1.513-2.864 1.719-3.095-1.766zM14.19 6.599l-2.576 1.856V4.992l2.576-1.566z"/><path class="st4" d="M7.393 9.441a8.101 8.101 0 0 0 1.477-.385c.189.442.297.93.297 1.443 0 .08-.008.159-.012.238a7.538 7.538 0 0 1-1.816.551c.07-.391.107-.762.104-1.111a8.624 8.624 0 0 0-.05-.736zM5.5 14.166c-.108 0-.215-.008-.321-.018a10.981 10.981 0 0 1-.719-2.106c.333.033.68.056 1.036.058.086.002.172.002.257.002.222 0 .446-.006.672-.018a13.522 13.522 0 0 1-.862 2.078c-.022.001-.042.004-.063.004zM5.504 11.406a11.528 11.528 0 0 1-1.172-.078 7.738 7.738 0 0 1-.078-1.144c.002-.245.02-.507.043-.735.384.043.783.051 1.199.051h.257c.312 0 .627.016.948-.008.025.217.043.45.045.68.004.368-.043.772-.133 1.198-.373.026-.738.038-1.109.036zM1.834 10.5c0-.521.111-1.018.308-1.468.437.129.924.251 1.466.343-.026.26-.046.523-.049.803-.004.34.021.689.063 1.043a12.58 12.58 0 0 1-1.773-.463 2.769 2.769 0 0 1-.015-.258zM1.984 11.535c.509.156 1.092.307 1.75.412.131.667.346 1.348.626 2.035a3.674 3.674 0 0 1-2.376-2.447zM6.383 14.055c.348-.731.615-1.412.789-2.037a8.064 8.064 0 0 0 1.84-.468 3.672 3.672 0 0 1-2.629 2.505zM8.553 8.416A3.707 3.707 0 0 0 6.709 7.01c.235.492.451 1.064.589 1.725a7.23 7.23 0 0 0 1.255-.319zM6.599 8.816a7.01 7.01 0 0 0-.786-1.997c-.103-.007-.207-.015-.313-.015-.16 0-.316.014-.471.033a7.837 7.837 0 0 0-.645 1.935c.359.041.733.066 1.119.07.367.004.728 0 1.096-.026zM4.16 7.058A3.702 3.702 0 0 0 2.467 8.39c.373.105.779.202 1.222.28a8.697 8.697 0 0 1 .471-1.612zM10.53 8.286l.423.275v.016l.008-.008.01.008v-.015l.024-.018V4.971L7.786 3.178v2.327a5.524 5.524 0 0 1 2.744 2.781z"/><path class="st2" d="M7.711 3.05v2.418c.051.023.1.049.15.073V3.306l3.059 1.709v3.437l-.452-.295c.04.084.082.168.117.256l.294.191.007.146.084-.084.076.052V8.6l.024-.018V4.927L7.711 3.05z"/></g></svg>