<svg xmlns="http://www.w3.org/2000/svg" viewBox="0 0 16 16"><style>.st0{opacity:0}.st0,.st1{fill:#f6f6f6}.st2{fill:#424242}.st3{fill:#00539c}.st4{fill:#f0eff1}</style><g id="outline"><path class="st0" d="M0 0h16v16H0z"/><path class="st1" d="M16 0H5v1H3.5a2.505 2.505 0 0 0-2.373 1.713L.414 2H0v3.914L1.086 7H0v9h11V9h5V0z"/></g><g id="icon_x5F_bg"><path class="st2" d="M6 1v6h1V2h7v5h-3v1h4V1zM1 15h9V8H1v7zm1-6h7v5H2V9z"/><path class="st2" d="M10 3h3v1h-3zM10 5h3v1h-3zM8 3h1v1H8zM8 5h1v1H8zM5 10h3v1H5zM5 12h3v1H5zM3 10h1v1H3zM3 12h1v1H3z"/></g><path class="st3" d="M4 5.5V4L3 5V3.5c0-.275.225-.5.5-.5H5V2H3.5C2.673 2 2 2.673 2 3.5V5L1 4v1.5L2.5 7 4 5.5z" id="color_x5F_action"/><path class="st4" d="M7 2v5h7V2H7zm2 4H8V5h1v1zm0-2H8V3h1v1zm4 2h-3V5h3v1zm0-2h-3V3h3v1zM2 9v5h7V9H2zm2 4H3v-1h1v1zm0-2H3v-1h1v1zm4 2H5v-1h3v1zm0-2H5v-1h3v1z" id="icon_x5F_fg"/></svg>