<svg xmlns="http://www.w3.org/2000/svg" viewBox="0 0 16 16"><style>.st0{opacity:0}.st0,.st1{fill:#f6f6f6}.st2{fill:#424242}.st3{fill:#f0eff1}</style><g id="outline"><path class="st0" d="M0 0h16v16H0z"/><path class="st1" d="M16 0H6v1.086L4.914 0H.586l1.127 1.127A2.506 2.506 0 0 0 0 3.5V16h10v-6h6V0zM3 5h1.914L6 3.914V6H3V5z"/></g><g id="icon_x5F_bg"><path class="st2" d="M2 3.5c0-.275.225-.5.5-.5H4L3 4h1.5L6 2.5 4.5 1H3l1 1H2.5C1.673 2 1 2.673 1 3.5V5h1V3.5zM6 7H1v8h8v-5H6z"/><path class="st2" d="M7 1v8h8V1H7zm7 7H8V2h6v6z"/></g><path class="st3" d="M8 2h6v6H8z" id="icon_x5F_fg"/></svg>