<svg xmlns="http://www.w3.org/2000/svg" viewBox="0 0 16 16"><style>.st0{opacity:0}.st0,.st1{fill:#f6f6f6}.st2{fill:#424242}</style><g id="outline"><path class="st0" d="M0 0h16v16H0z"/><path class="st1" d="M15.752 5.727L15.545 5h-4.476l.686 1.432c.163.339.245.698.245 1.068 0 1.2-.851 2.204-1.981 2.444l-.523-.159.002-2.869L11 5.414V0H5.586L3 2.586V4h1.036A6.453 6.453 0 0 0 3 7.5l-.5.5H0v3h1v1H0v3h2l-.5.5.5.5 4.239-1.632L7.333 16h2.166v-2H9.5c3.584 0 6.5-2.916 6.5-6.5a6.46 6.46 0 0 0-.248-1.773z"/></g><g id="icon_x5F_bg"><path class="st2" d="M6.356 3.007L6.348 3H4l2-2h4v4L8 7V4.353A3.485 3.485 0 0 0 6 7.5c0 .392.079.762.198 1.114l-2.18-.759C4.01 7.737 4 7.62 4 7.5c0-1.864.937-3.499 2.356-4.493zM14.79 6h-2.133c.218.455.343.962.343 1.5a3.493 3.493 0 0 1-1.523 2.886l.523.159v1.481l-2.501.903V13H9.5a5.5 5.5 0 0 0 5.29-7zM1 9h2v1H1zM2 11h1v1H2zM1 13h2v1H1z"/><path class="st2" d="M8.499 12.229v3.521l-1.875-2.545-3.124.955 1.875-2.863L4.126 9.03l2.616.806L8.499 7.75l-.005 2.766 2.506.8z"/></g></svg>