<svg xmlns="http://www.w3.org/2000/svg" viewBox="0 0 16 16"><style>.st0{opacity:0}.st0,.st1{fill:#f6f6f6}.st2{fill:#424242}.st3{fill:#f0eff1}.st4{fill:#fc0}</style><g id="outline"><path class="st0" d="M0 0h16v16H0z"/><path class="st1" d="M8.309 15.5l-1-2H1.5v-10h-1v-3H3a3.497 3.497 0 0 1 3.379 2.626l.097.374H14.5v8.618L15.441 14l-.75 1.5H8.309z"/><path class="st1" d="M3 1c1.361 0 2.551.926 2.895 2.251L6.089 4H14v8.236l.106.211.776 1.553-.5 1H8.618l-.724-1.447L7.618 13H2V3H1V1h2m0-1H0v4h1v10h6l1 2h7l1-2-1-2V3H6.863A3.998 3.998 0 0 0 3 0z"/></g><g id="icon_x5F_bg"><path class="st2" d="M9 6h3v1H9zM4 4v2L2 4v3l3 3 3-3V4L6 6V4c0-1.654-1.346-3-3-3H1v2h2a1 1 0 0 1 1 1z"/><path class="st2" d="M9 4v1h4v3l1 2V4zM3 9.414l-1-1V13h5.5l.5-1H3zM7.414 9H9.5l.5-1H8.414z"/><path class="st2" d="M5.414 11H8.5l.5-1H6.414zM4.586 11L4 10.414V11z"/></g><g id="icon_x5F_fg"><path class="st3" d="M9 5v1h3v1h.5l.5 1V5zM9 7.414L8.414 8H10l.5-1H9zM6.414 10H9l.5-1H7.414zM4.586 11H4v-.586l-1-1V12h5l.5-1H5.414z"/></g><path class="st4" d="M11.891 8.016h-.781l-3.016 6 .515.984h5.766l.484-1-2.968-5.984zM12 14h-1v-1h1v1zm0-2h-1v-2h1v2z" id="not_x5F_bg"/><g id="not_x5F_fg"><path d="M11 10h1v2h-1zM11 13h1v1h-1z"/></g></svg>