<svg xmlns="http://www.w3.org/2000/svg" viewBox="0 0 16 16"><style>.st0{opacity:0}.st0,.st1{fill:#f6f6f6}.st2{fill:#424242}.st3{fill:#f0eff1}</style><g id="outline"><path class="st0" d="M0 0h16v16H0z"/><path class="st1" d="M16 0H4v5.143A3.933 3.933 0 0 0 3 5H0v4h1v3.414L4.586 16h.828L9 12.414V12h7V0z"/></g><g id="icon_x5F_bg"><path class="st2" d="M7 6h3v1H7zM10 8h3v1h-3zM11 6h1v1h-1zM7 4h3v1H7z"/><path class="st2" d="M5 1v4.548c.379.22.713.503 1 .832V3h8v7H9v1h6V1H5z"/><path class="st2" d="M7 8.585L7.585 8H7z"/><path class="st2" d="M6 9c0-1.654-1.346-3-3-3H1v2h2c.552 0 1 .449 1 1v2L2 9v3l3 3 3-3V9l-2 2V9z"/></g><path class="st3" d="M6 3v3.38c.534.61.896 1.374.98 2.225l.02-.02V8h2v2h5V3H6zm5 3h1v1h-1V6zM7 4h3v1H7V4zm0 3V6h3v1H7zm6 2h-3V8h3v1z" id="icon_x5F_fg"/></svg>