<svg xmlns="http://www.w3.org/2000/svg" viewBox="0 0 16 16"><style>.st0{opacity:0}.st0,.st1{fill:#f6f6f6}.st2{fill:#424242}.st3{fill:#f0eff1}</style><g id="outline"><path class="st0" d="M0 0h16v16H0z"/><path class="st1" d="M16 0H3v4H0v12h12v-3h4z"/></g><path class="st2" d="M7 8V7h1v1H7zm1 1h1V8H8v1zm0 2h1v-1H8v1zM6 8V7H5v1h1zm0 2v1h1v-1H6zM4 1v3h8v8h3V1H4zM1 5h10v10H1V5zm1 9h8v-2H9v-1h1v-1H9V9h1V8H9V7h1V6H9v1H8V6H7v1H6V6H5v1H4V6H2v8zm5-5V8H6v1h1zm-2 3h1v-1H5v1zm-1-2v1h1v-1H4zm2-1H5v1h1V9zm1 3h1v-1H7v1zm0-2h1V9H7v1zM4 8v1h1V8H4z" id="icon_x5F_bg"/><path class="st3" d="M8 10v1H7v-1h1zm-3 0v1h1v-1H5zm1-2H5v1h1V8zm3 1h1V8H9v1zm-1 1h1V9H8v1zM7 8V7H6v1h1zM6 9v1h1V9H6zm2 0V8H7v1h1zm1-1V7H8v1h1zm0 3h1v-1H9v1zm1 1H9v-1H8v1H7v-1H6v1H5v-1H4v-1h1V9H4V8h1V7H4V6H2v8h8v-2zM8 7V6H7v1h1zM6 7V6H5v1h1zm4 0V6H9v1h1z" id="icon_x5F_fg"/></svg>