<svg xmlns="http://www.w3.org/2000/svg" width="16" height="16"><style type="text/css">.icon-canvas-transparent{opacity:0;fill:#F6F6F6;} .icon-vs-out{fill:#F6F6F6;} .icon-vs-bg{fill:#424242;}</style><path class="icon-canvas-transparent" d="M16 16h-16v-16h16v16z" id="canvas"/><path class="icon-vs-out" d="M5 5h-5v-5h5v1h9v3h-9v1zm3 5h8v-3h-8v-1h-5v10h5v-1h8v-3h-8v-2z" id="outline"/><path class="icon-vs-bg" d="M4 4h-3v-3h3v3zm0 6h3v-3h-3v3zm0 5h3v-3h-3v3zm9-13h-7v1h7v-1zm-4 11v1h6v-1h-6zm0-5v1h6v-1h-6z" id="iconBg"/></svg>