<svg xmlns="http://www.w3.org/2000/svg" viewBox="0 0 16 16"><style>.st0{opacity:0}.st0,.st1{fill:#f6f6f6}.st2{fill:#424242}.st3{fill:#f0eff1}</style><g id="outline"><path class="st0" d="M0 0h16v16H0z"/><path class="st1" d="M0 1h16v14H0z"/></g><g id="icon_x5F_bg"><path class="st2" d="M6.707 2l3 3h1.586l-3-3zM8.293 5l-3-3H3.707l3 3zM9.293 6H7.707l1.147 1.146.792-.792zM1 5.293l1 1V5h.293L1 3.707zM6.431 12.139L6 13l.646-.646zM9.646 9.354L9.293 9H7.707l1.147 1.146zM5.764 8.471l-.528 1.058.471.471h1.586zM6.764 6.471l-.528 1.058 1.118 1.117.792-.792zM7.354 11.646l.792-.792-.715-.715-.529 1.056zM2 7.707l-1-1v1.586l1 1zM5.293 5l-3-3H1v.293L3.707 5zM14 12.293l1 1v-1.586l-1-1zM11.707 13l1 1h1.586l-1-1zM2 10.707l-1-1v1.586l1 1zM9.707 2l3 3H14v1.293l1 1V5.707L11.293 2zM14.293 2h-1.586L15 4.293V2.707zM14 9.293l1 1V8.707l-1-1zM1 14h1.293L1 12.707zM8.707 13l1 1h1.586l-1-1zM2.707 13l1 1h.675l.304-.607L4.293 13zM6.561 13.854l.146.146h1.586l-.939-.939z"/></g><g id="icon_x5F_fg"><path class="st3" d="M6.382 5H2v8h2.882l1-2H4V9.764zM11 5v1.414L9.414 8H11v1.414L7.414 13H14V5z"/></g></svg>