<svg xmlns="http://www.w3.org/2000/svg" viewBox="0 0 16 16"><style>.st0{opacity:0}.st0,.st1{fill:#f6f6f6}.st2{fill:#424242}.st3{fill:#f0eff1}.st4{fill:#fc0}</style><g id="outline"><path class="st0" d="M0 0h16v16H0z"/><path class="st1" d="M8.309 15.5l-1-2H.5V.5h15v13.382l-.809 1.618z"/><path class="st1" d="M15 1v12.764L14.382 15H8.618l-.724-1.447L7.618 13H1V1h14m1-1H0v14h7l1 2h7l1-2V0z"/></g><g id="icon_x5F_bg"><path class="st2" d="M7 5L5 9h2.5L6 12l4-4H7l3-3z"/><path class="st2" d="M1 1v12h3.382l.5-1H2V4h12v6l1 2V1z"/><path class="st2" d="M6.414 13H7.5l.5-1h-.586z"/></g><g id="icon_x5F_fg"><path class="st3" d="M8 12l.586-1.172L7.414 12zM11 4v1.414L9.414 7H12.5l1.5 3V4zM6.382 4H2v8h2.882l1-2H4V8.764z"/></g><path class="st4" d="M11.891 8.016h-.781l-3.016 6 .515.984h5.766l.484-1-2.968-5.984zM12 14h-1v-1h1v1zm0-2h-1v-2h1v2z" id="not_x5F_bg"/><path d="M12 12h-1v-2h1v2zm0 1h-1v1h1v-1z" id="not_x5F_fg"/></svg>