<svg xmlns="http://www.w3.org/2000/svg" viewBox="0 0 16 16"><style>.st0{opacity:0}.st0,.st1{fill:#f6f6f6}.st2{fill:#424242}.st3{fill:#e51400}.st4{fill:#fff}</style><g id="outline"><path class="st0" d="M0 0h16v16H0z"/><path class="st1" d="M16 11.5A4.5 4.5 0 0 1 7.76 14H2V1h12v6.76c1.205.806 2 2.179 2 3.74z"/></g><path class="st2" d="M13 4H3V2h10v2zm0 3V5H3v2h10zM8.703 8H3v2h4.275a4.485 4.485 0 0 1 1.428-2zM7 11.5c0-.172.032-.334.051-.5H3v2h4.275A4.469 4.469 0 0 1 7 11.5z" id="icon_x5F_bg"/><path class="st3" d="M11.5 8a3.5 3.5 0 1 0 0 7 3.5 3.5 0 0 0 0-7zM9 12v-1h5v1H9z" id="not_x5F_bg"/><path class="st4" d="M9 11h5v1H9z" id="not_x5F_fg"/></svg>