<svg xmlns="http://www.w3.org/2000/svg" viewBox="0 0 16 16"><style>.st0{opacity:0}.st0,.st1{fill:#f6f6f6}.st2{fill:#424242}.st3{fill:#f0eff1}.st4{fill:#e51400}.st5{fill:#fff}</style><g id="outline"><path class="st0" d="M0 0h16v16H0z"/><path class="st1" d="M0 0v14h7.76a4.495 4.495 0 0 0 7.48 0H16V0H0z"/></g><g id="icon_x5F_bg"><path class="st2" d="M6.414 13h.861a4.435 4.435 0 0 1-.191-.67l-.67.67zM1 1v12h3.382l.5-1H2V4h12v3.76a4.5 4.5 0 0 1 1 .943V1H1z"/><path class="st2" d="M7 5L5 9h2.5L6 12l1.056-1.056A4.466 4.466 0 0 1 8.703 8H7l3-3H7z"/></g><g id="icon_x5F_fg"><path class="st3" d="M6.382 4H2v8h2.882l1-2H4V8.764zM11 4v1.414L9.414 7H11v.05c.166-.018.329-.05.5-.05.926 0 1.785.281 2.5.76V4h-3z"/></g><path class="st4" d="M11.5 8a3.5 3.5 0 1 0 0 7 3.5 3.5 0 0 0 0-7zm1.854 4.646l-.707.707-1.147-1.146-1.146 1.147-.707-.707 1.147-1.146-1.147-1.146.707-.707 1.146 1.147 1.146-1.147.707.707-1.146 1.145 1.147 1.146z" id="not_x5F_bg"/><path class="st5" d="M13.354 10.354l-.708-.708-1.146 1.147-1.146-1.147-.708.708 1.147 1.146-1.147 1.146.708.708 1.146-1.147 1.146 1.147.708-.708-1.147-1.146z" id="not_x5F_fg"/></svg>