<svg xmlns="http://www.w3.org/2000/svg" viewBox="0 0 16 16"><style>.st0{opacity:0}.st0,.st1{fill:#f6f6f6}.st2{fill:#424242}.st3{fill:#f0eff1}</style><path class="st0" d="M0 0h16v16H0z" id="outline"/><g id="icon_x5F_bg"><path class="st1" d="M15.027 10.875V2.062c.003-.142-.009-.878-.563-1.446-.255-.262-.716-.573-1.457-.573H5.479L4.338 2.059l-2.185.004-.162-.007c-.93 0-1.93.61-1.93 1.95v6.951c-.017.251-.008.913.468 1.449.248.279.706.612 1.479.612H9v2.983h1.277l5.724-3.466v-1.07l-.974-.59z"/><path class="st2" d="M10 9l4.954 3L10 15V9z"/><path class="st2" d="M13.008 1.043H6.062L4.921 3.058H2.057s-.996-.097-.996.947v6.992s-.122 1.021.947 1.021h6.969V7.016l5.05 3.229V2.039s.024-.996-1.019-.996zM13 3H6.5L7 2h6v1z"/></g><path class="st3" d="M13 2v1H6.5L7 2z" id="icon_x5F_fg"/></svg>