<svg xmlns="http://www.w3.org/2000/svg" viewBox="0 0 16 16"><style>.st0{opacity:0}.st0,.st1{fill:#f6f6f6}.st2{fill:#424242}.st3{fill:#393}.st4{fill:#fff}</style><g id="outline"><path class="st0" d="M0 0h16v16H0z"/><path class="st1" d="M16 11.5A4.5 4.5 0 0 1 7.76 14H2V1h12v6.76c1.205.806 2 2.179 2 3.74z"/></g><path class="st2" d="M3 7V5h10v2H3zm10-5H3v2h10V2zM8.703 8H3v2h4.275a4.493 4.493 0 0 1 1.428-2zM7 11.5c0-.172.031-.334.051-.5H3v2h4.275A4.444 4.444 0 0 1 7 11.5z" id="icon_x5F_bg"/><path class="st3" d="M13.861 8.932c.248.229.459.49.633.781L10.5 13.707l-1.854-1.853.707-.707 1.146 1.147 3.362-3.362A3.47 3.47 0 0 0 11.5 8a3.5 3.5 0 1 0 3.5 3.5 3.476 3.476 0 0 0-1.139-2.568z" id="not_x5F_bg"/><path class="st4" d="M10.5 12.293l3.361-3.361c.248.229.459.49.633.781L10.5 13.707l-1.854-1.853.707-.707 1.147 1.146z" id="not_x5F_fg"/></svg>