<svg xmlns="http://www.w3.org/2000/svg" viewBox="0 0 16 16"><style>.icon-canvas-transparent{opacity:0;fill:#f6f6f6}.icon-vs-out{fill:#f6f6f6}.st0{fill:#424242}</style><path class="icon-canvas-transparent" d="M-.044-.029h16v16h-16z" id="canvas"/><path class="icon-vs-out" d="M13.112 5.144l-5.071 5.072-.835-.835 2.102-2.104-1.966-1.965 1.966-1.965-2.297-2.3-1.967 1.967-1.967-1.967-2.297 2.3 1.966 1.965L.78 7.277l2.297 2.3L5.044 7.61l.823.824-2.101 2.103 4.275 4.275 7.37-7.369z" id="outline"/><g id="iconBg"><path class="st0" d="M13.112 6.558L8.041 11.63 6.064 9.653l-.884.885 2.861 2.86 5.956-5.955zM7.01 8.163l.884-.885-1.966-1.966 1.966-1.966-.884-.885-1.966 1.967-1.966-1.967-.884.885L4.16 5.312 2.194 7.278l.884.885 1.966-1.967z"/></g></svg>