<svg xmlns="http://www.w3.org/2000/svg" viewBox="0 0 16 16"><style>.st0{opacity:0}.st0,.st1{fill:#f6f6f6}.st2{fill:#424242}.st3{fill:#f0eff1}</style><g id="outline"><path class="st0" d="M0 0h16v16H0z"/><path class="st1" d="M11.414 5L12 4.414V1h-1.414L10 1.586V0H6v1.586L5.414 1H4v3.414L4.586 5H0v11h16V5z"/></g><g id="icon_x5F_bg"><path class="st2" d="M10.414 6l-1 1H14v7H2V7h4.586l-1-1H1v9h14V6z"/><path class="st2" d="M5 8h6v5H5z"/></g><path class="st2" d="M11 4V2L9 4V1H7v3L5 2v2l3 3z" id="color_x5F_action"/><path class="st3" d="M9.414 7l-1 1H11v5H5V8h2.586l-1-1H2v7h12V7z" id="icon_x5F_fg"/></svg>