<svg xmlns="http://www.w3.org/2000/svg" viewBox="0 0 16 16"><style>.st0{opacity:0}.st0,.st1{fill:#f6f6f6}.st2{fill:#e04c06}</style><g id="outline"><path class="st0" d="M0 0h16v16H0z"/><path class="st1" d="M13.934 7.295l.261.159V3.558l-.67-.234c-.607-.211-1.322-.314-2.188-.314-1.056 0-1.936.248-2.614.737-.06.042-.103.094-.158.14v-.889H1v3.284h1.986V12h3.583V6.282h.991c.033.334.13.699.348 1.068l-.331-.25v4.145l.571.271c.662.315 1.472.474 2.409.474 1.31 0 2.29-.29 2.996-.888.64-.541.978-1.277.978-2.127a2.607 2.607 0 0 0-.597-1.68z"/></g><g id="color_x5F_importance"><path class="st2" d="M7.565 5.282H5.569V11H3.986V5.282H2V3.998h5.565v1.284zM13.53 8.975c0 .558-.209 1.013-.624 1.365-.513.434-1.295.65-2.35.65-.794 0-1.453-.127-1.979-.377V9.106a3.282 3.282 0 0 0 2.023.688c.384 0 .674-.074.87-.222a.566.566 0 0 0 .245-.466c0-.216-.122-.414-.362-.593-.194-.138-.546-.313-1.059-.522-1.167-.486-1.75-1.145-1.75-1.977 0-.605.254-1.092.761-1.457.508-.366 1.184-.548 2.03-.548.744 0 1.363.086 1.858.259v1.408c-.517-.314-1.102-.471-1.762-.471-.327 0-.589.063-.782.188-.193.125-.291.291-.291.494a.68.68 0 0 0 .255.541c.161.135.472.297.931.49.68.289 1.164.569 1.457.841.355.334.529.74.529 1.216z"/></g></svg>