<svg xmlns="http://www.w3.org/2000/svg" viewBox="0 0 16 16"><style>.st0{opacity:0}.st0,.st1{fill:#f6f6f6}.st2{fill:#424242}.st3{fill:#e04c06}.st4{fill:#f0eff1}</style><g id="outline"><path class="st0" d="M0 0h16v16H0z"/><path class="st1" d="M0 1h16v14H0z"/></g><g id="icon_x5F_bg"><path class="st2" d="M7.787 6.082H6.069V11h-1.36V6.082H3V4.978h4.787v1.104zM12.578 9.268c0 .479-.179.871-.537 1.173-.44.374-1.113.56-2.021.56-.683 0-1.249-.108-1.703-.323V9.38a2.824 2.824 0 0 0 1.741.592c.33 0 .579-.063.748-.191a.484.484 0 0 0 .211-.4c0-.186-.106-.354-.311-.509-.166-.119-.47-.27-.911-.451-1.003-.417-1.504-.984-1.504-1.7 0-.521.218-.938.654-1.253.438-.314 1.019-.471 1.747-.471.64 0 1.173.074 1.598.223v1.21a2.852 2.852 0 0 0-1.515-.404c-.282 0-.507.054-.673.162-.166.108-.25.25-.25.425 0 .187.072.341.22.465.138.117.405.256.799.421.585.249 1.002.49 1.254.725.303.285.453.634.453 1.044z"/></g><path class="st3" d="M1 1.975V14h14V1.975H1zM14 13H2V3h12v10z" id="color_x5F_importance"/><path class="st4" d="M2 3v10h12V3H2zm5.787 3.082H6.069V11h-1.36V6.082H3V4.978h4.787v1.104zm4.254 4.358c-.44.374-1.113.56-2.021.56-.683 0-1.249-.108-1.703-.323V9.38a2.824 2.824 0 0 0 1.741.592c.33 0 .579-.063.748-.191a.484.484 0 0 0 .211-.4c0-.186-.106-.354-.311-.509-.166-.119-.47-.27-.911-.451-1.003-.417-1.504-.984-1.504-1.7 0-.521.218-.938.654-1.253.438-.314 1.019-.471 1.747-.471.64 0 1.173.074 1.598.223v1.21a2.852 2.852 0 0 0-1.515-.404c-.282 0-.507.054-.673.162-.166.108-.25.25-.25.425 0 .187.072.341.22.465.138.117.405.256.799.421.585.249 1.002.49 1.254.725.304.287.454.635.454 1.045-.001.478-.18.87-.538 1.171z" id="icon_x5F_fg"/></svg>