<svg xmlns="http://www.w3.org/2000/svg" viewBox="0 0 16 16"><style>.st0{opacity:0}.st0,.st1{fill:#f6f6f6}.st2{fill:#424242}.st3{fill:#e04c06}.st4{fill:#f0eff1}</style><g id="outline"><path class="st0" d="M0 0h16v16H0z"/><path class="st1" d="M12.061 0H6c-.97 0-2 .701-2 2v3.612l-1.047-.815-.615.477c-.401.312-.76.671-1.067 1.067l-.474.615L1.82 8.269l-1.652.207-.115.9A4.593 4.593 0 0 0 0 10c0 .215.025.421.054.627l.114.9 1.651.205-1.022 1.311.474.614c.304.394.663.753 1.066 1.067l.615.479 1.316-1.024.206 1.655.912.112c.202.03.405.054.614.054s.412-.024.614-.052l.912-.112.206-1.655 1.317 1.024.614-.479a6.13 6.13 0 0 0 .766-.726H14c1.299 0 2-1.03 2-2V3.556L12.061 0z"/></g><path class="st2" d="M11.641 1H5.964S5 1 5 2v2.102l.383-.048C5.586 4.025 5.789 4 6 4V2h5v3h3v7h-3.61l.779 1h2.796c1 0 1.035-1 1.035-1V4l-3.359-3z" id="icon_x5F_bg"/><g id="color_x5F_importance"><path class="st3" d="M10.936 10.631c.027-.209.064-.414.064-.631 0-.215-.037-.42-.064-.629l-1.543-.193a3.474 3.474 0 0 0-.414-.994l.959-1.231a5.032 5.032 0 0 0-.89-.89l-1.232.959a3.45 3.45 0 0 0-.994-.414L6.63 5.064C6.421 5.038 6.216 5 6 5s-.421.038-.63.064l-.192 1.544a3.45 3.45 0 0 0-.994.414l-1.232-.959a4.993 4.993 0 0 0-.889.89l.959 1.231a3.476 3.476 0 0 0-.415.994l-1.544.193C1.037 9.58 1 9.785 1 10c0 .217.037.422.063.631l1.544.191c.086.357.228.689.414.994l-.959 1.231c.258.334.557.631.89.891l1.231-.959c.305.186.638.328.994.414l.192 1.545c.21.025.415.062.631.062s.421-.037.63-.063l.192-1.545c.356-.086.689-.229.994-.414l1.231.959c.333-.26.632-.557.89-.891l-.959-1.231c.187-.305.328-.637.414-.994l1.544-.19zM6 12a2 2 0 1 1 0-4 2 2 0 0 1 0 4z"/><circle class="st3" cx="6" cy="10" r="1"/></g><g id="icon_x5F_fg"><path class="st4" d="M11 5V2H6v2c.211 0 .414.025.617.053l.909.114.206 1.653 1.316-1.023.613.477c.402.313.762.671 1.067 1.067l.475.614-1.022 1.313 1.65.207.115.9c.029.207.054.412.054.625 0 .215-.025.421-.054.627l-.115.9-1.65.205.209.268H14V5h-3zM6 8a2 2 0 1 0 0 4 2 2 0 0 0 0-4zm0 3a1 1 0 1 1-.002-1.998A1 1 0 0 1 6 11z"/></g></svg>