<svg xmlns="http://www.w3.org/2000/svg" viewBox="0 0 16 16"><style>.icon-vs-action-red{fill:#a1260d}.icon-vs-bg{fill:#424242}.icon-vs-out{fill:#f6f6f6}.icon-canvas-transparent{opacity:0;fill:#f6f6f6}</style><path class="icon-canvas-transparent" d="M16 16H0V0h16v16z" id="canvas"/><path class="icon-vs-out" d="M12 5v3H6.354l2.061-2.061-1.97-1.97L8.414 2l-2-2h-.949L3.97 1.495 2.475 0h-.95L0 1.525v.949L1.495 3.97 0 5.465v.949l1.293 1.293L1 8v6h4v-3h7v3h4V5h-4zM5 7.475L5.525 8H5v-.525z" id="outline"/><path class="icon-vs-bg" d="M5 9h1v1H5V9zm2 1h1V9H7v1zM3.97 6.444L2 8.414V13h2V6.475l-.03-.031zM11 10h1V9h-1v1zm2-4v7h2V6h-2zm-4 4h1V9H9v1z" id="iconBg"/><path class="icon-vs-action-red" d="M5.03 3.97L7 5.939 5.939 7 3.97 5.03 2 7 .939 5.939l1.97-1.97L.939 2 2 .939l1.97 1.97L5.94.939 7 2 5.03 3.97z" id="colorAction"/></svg>