<svg xmlns="http://www.w3.org/2000/svg" viewBox="0 0 16 16"><style>.st0{opacity:0}.st0,.st1{fill:#f6f6f6}.st2{fill:#424242}.st3{fill:#f0eff1}</style><g id="outline"><path class="st0" d="M0 0h16v16H0z"/><path class="st1" d="M15.99 8.039A6.22 6.22 0 0 0 9.75 2c-.238 0-.478.029-.75.067V2H7l2-2H3L0 3v2l3 3H0l2 2H0v4h2l-2 2h6l1.798-1.798.678.149c.081.022.162.044.219.053l.13.022a6.053 6.053 0 0 0 1.535.044A6.225 6.225 0 0 0 16 8.25c0-.056-.003-.111-.01-.211z"/></g><g id="icon_x5F_bg"><path class="st2" d="M14.991 8.072A5.246 5.246 0 0 0 9.75 3c-.257 0-.503.04-.75.076v1.348c.066-.157.134-.307.201-.447.18-.023.362-.039.549-.039.124 0 .245.008.366.019.351.608.708 1.384.915 2.33-.428.029-.85.033-1.277.029a12.699 12.699 0 0 1-1.304-.084c.016-.081.036-.153.054-.232h-.837c-.009.041.341-.041.333 0-.197-.035-.743.041-.927 0l1.244 1.317c.007-.09.008-.186.017-.274.452.051.923.085 1.412.09l.302.002c.366 0 .737-.012 1.116-.04.028.254.049.513.053.785.004.433-.052.902-.157 1.402-.438.031-.868.037-1.306.034a12.92 12.92 0 0 1-1.378-.092A9.17 9.17 0 0 1 8.292 8h-.817c.002.361.022.727.065 1.098-.204-.037-.381-.085-.571-.129l1.74 1.74c-.062-.215-.136-.432-.183-.644.393.039.8.064 1.22.068.101.002.201.002.302.002.261 0 .524-.008.79-.021-.229.743-.568 1.558-1.014 2.444-.025.001-.049.004-.074.004-.1 0-.198-.008-.297-.016l-.814.814c.084.019.165.048.251.063l.015.002a5.71 5.71 0 0 0 .845.075A5.25 5.25 0 0 0 15 8.25c0-.06-.008-.118-.009-.178zM11.16 4.179a4.307 4.307 0 0 1 2.151 1.641c-.515.177-1 .3-1.463.372a8.655 8.655 0 0 0-.688-2.013zm-.372 8.253c.409-.86.725-1.661.929-2.395a9.548 9.548 0 0 0 2.164-.551 4.318 4.318 0 0 1-3.093 2.946zm3.261-3.902a8.806 8.806 0 0 1-2.136.647 6.9 6.9 0 0 0 .063-2.174 9.373 9.373 0 0 0 1.737-.453 4.29 4.29 0 0 1 .349 1.699c.001.096-.007.188-.013.281zM5 9H3l2 2H1v2h4l-2 2h2l3-3z"/><path class="st2" d="M4 1h2L4 3h4v2H4l2 2H4L1 4z"/></g><g id="icon_x5F_fg"><path class="st3" d="M11.977 7.004c.545-.085 1.057-.231 1.674-.453.223.521.399 1.095.399 1.699 0 .095.006.187 0 .28a8.8 8.8 0 0 1-2.137.647 6.9 6.9 0 0 0 .064-2.173zM13.311 5.82c-.515.177-1 .3-1.463.372a8.766 8.766 0 0 0-.688-2.013 4.302 4.302 0 0 1 2.151 1.641zM10.048 10.135c-.101 0-.201 0-.302-.002-.42-.004-.827-.029-1.22-.068.047.213.121.43.183.644L10 12l-.547.547c.099.008.197.016.297.016.025 0 .049-.003.074-.004.445-.887.785-1.701 1.014-2.444-.266.012-.529.02-.79.02zM9.75 9.35c-.477-.005-.957-.074-1.4-.126a9.171 9.171 0 0 1-.066-1.345c.004-.29.02-.566.047-.836.451.051.926.102 1.415.107h.302c.366 0 .737-.027 1.116-.055.028.254.049.513.053.785.004.433-.052.902-.157 1.402-.439.031-.872.071-1.31.068zM9.75 3.938c.124 0 .245.008.366.019.351.608.706 1.384.913 2.33-.427.028-.851.067-1.279.063a12.279 12.279 0 0 1-1.3-.1 9.271 9.271 0 0 1 .751-2.273c.18-.024.362-.039.549-.039zM10.75 12.43c.409-.86.766-1.659.971-2.394.67-.086 1.378-.292 2.159-.586a4.414 4.414 0 0 1-3.13 2.98z"/></g></svg>