<svg xmlns="http://www.w3.org/2000/svg" viewBox="0 0 16 16"><style>.st0{opacity:0}.st0,.st1{fill:#f6f6f6}.st2{fill:#424242}.st3{fill:#00539c}</style><g id="outline"><path class="st0" d="M0 0h16v16H0z"/><path class="st1" d="M13.701 0h-.966l-.895 1.061-.23-.297-1.213 1.342-.191-.294L8.346 4h-.692l-1.86-2.188-.191.294L4.39.764l-.23.297L3.264 0h-.965l-.3.4A9.88 9.88 0 0 0 0 6.36C0 7.621.244 8.847.702 10H0v4h2l-2 2h6l4-4-2.774-2.774.438-.514-.378-.618c-.019-.031-.032-.063-.05-.094h1.528c-.018.031-.031.063-.05.094l-.377.617 1.869 2.195.189-.292 1.213 1.342.23-.297 1.408 1.667L14 12.32A9.88 9.88 0 0 0 14.001.4l-.3-.4z"/></g><g id="icon_x5F_bg"><path class="st2" d="M3.789 6.36c0-1.252.46-2.422 1.211-3.431l-.551-.609A7.55 7.55 0 0 0 4 2.962C3.364 3.986 3 5.138 3 6.36c0 .566.088 1.112.238 1.64h.829a5.232 5.232 0 0 1-.278-1.64zM6.223 8.223c-.295-.589-.473-1.212-.473-1.863 0-.795.256-1.554.683-2.254l-.532-.625C5.329 4.361 5 5.333 5 6.36c0 .567.108 1.114.294 1.64H6l.223.223zM1.867 7.702c-.007-.037-.01-.076-.016-.114A8 8 0 0 1 1.75 6.36c0-.245.011-.488.033-.728.013-.147.038-.292.059-.437.013-.09.021-.182.037-.27.035-.19.081-.376.129-.562.01-.04.017-.081.028-.121.06-.219.13-.433.208-.644l.005-.016A8.02 8.02 0 0 1 3.32 1.616L2.799 1A8.908 8.908 0 0 0 1 6.36c0 .562.058 1.109.158 1.64h.784c-.022-.101-.058-.196-.075-.298zM12 2.962c.636 1.024 1 2.176 1 3.398 0 1.213-.373 2.349-1 3.366-.142.229-.282.459-.449.674L11 9.791c.751-1.008 1.211-2.179 1.211-3.431S11.751 3.938 11 2.93l.551-.609c.161.207.312.42.449.641zM11 6.36c0 1.028-.329 1.999-.901 2.878l-.532-.624c.427-.7.683-1.458.683-2.254s-.256-1.553-.683-2.254l.531-.625c.573.88.902 1.852.902 2.879z"/><path class="st2" d="M13.341 10.045c.185-.353.344-.723.475-1.105l.03-.093c.122-.371.221-.752.287-1.145.007-.038.01-.076.016-.114.063-.401.102-.81.102-1.228 0-.245-.012-.488-.033-.728-.014-.147-.038-.292-.06-.437-.013-.09-.021-.182-.037-.27a7.42 7.42 0 0 0-.128-.563c-.011-.04-.018-.081-.028-.121a7.798 7.798 0 0 0-.208-.644l-.005-.016a8.009 8.009 0 0 0-1.071-1.967L13.2 1A8.908 8.908 0 0 1 15 6.36a8.906 8.906 0 0 1-1.8 5.36l-.521-.616c.244-.329.461-.679.653-1.045.004-.004.006-.009.009-.014zM7 5h2v2H7z"/></g><path class="st3" d="M5 9H3l2 2H1v2h4l-2 2h2l3-3z" id="color_x5F_action"/></svg>