<svg xmlns="http://www.w3.org/2000/svg" viewBox="0 0 16 16"><style>.st0{opacity:0}.st0,.st1{fill:#f6f6f6}.st2{fill:#424242}.st3{fill:#f0eff1}</style><g id="outline"><path class="st0" d="M0 0h16v16H0z"/><path class="st1" d="M7 0v8.585l-.02.02A4.005 4.005 0 0 0 3 5H0v4h1v3.414L4.586 16h.828L7 14.414V15h9V0H7z"/></g><g id="icon_x5F_bg"><path class="st2" d="M10 4h3v1h-3zM10 6h3v1h-3zM10 8h3v1h-3zM10 10h3v2h-3z"/><path class="st2" d="M8 1v7h1V3h5v10H9v-.586l-1 1V14h7V1zM6 9c0-1.654-1.346-3-3-3H1v2h2c.552 0 1 .449 1 1v2L2 9v3l3 3 3-3V9l-2 2V9z"/></g><path class="st3" d="M9 3v10h5V3H9zm4 9h-3v-2h3v2zm0-3h-3V8h3v1zm0-2h-3V6h3v1zm0-2h-3V4h3v1z" id="icon_x5F_fg"/></svg>