<svg xmlns="http://www.w3.org/2000/svg" viewBox="0 0 16 16"><style>.st0{opacity:0}.st0,.st1{fill:#f6f6f6}.st2{fill:#424242}</style><g id="outline"><path class="st0" d="M0 0h16v16H0z"/><path class="st1" d="M14.5 11A2.502 2.502 0 0 1 12 8.5v-1l3 3V5l-5-5-5 5v3H2v2H0v4h2v2h4v-2h2v2h4v-1.5c.787.327 1.638.5 2.5.5H16v-4h-1.5zM8 10H6v-.5l2-2V10z"/></g><g id="icon_x5F_bg"><path class="st2" d="M14.5 12A3.5 3.5 0 0 1 11 8.5V5l3 3V5.5l-4-4-4 4V8l3-3v10h2v-2.258A5.474 5.474 0 0 0 14.5 14h.5v-2h-.5zM5 9H3v2H1v2h2v2h2v-2h2v-2H5z"/></g></svg>