<svg xmlns="http://www.w3.org/2000/svg" viewBox="0 0 16 16"><style>.st0{opacity:0}.st0,.st1{fill:#f6f6f6}.st2{fill:#424242}.st3{fill:#f0eff1}</style><g id="outline"><path class="st0" d="M0 0h16v16H0z"/><path class="st1" d="M16 0H0v15h.59l-.568.919h3.072L3.663 15h.146c.063.099.125.198.202.283.204.228.453.407.745.535a2.368 2.368 0 0 0 1.836-.007c.297-.129.557-.315.771-.555.07-.077.127-.168.186-.256H16V0z"/></g><g id="icon_x5F_bg"><path class="st2" d="M1.357 12.854A2.228 2.228 0 0 1 1 12.653V14h.209l.622-1.005a2.235 2.235 0 0 1-.474-.141zM1 1v7.419c.126-.09.262-.169.407-.232A2.32 2.32 0 0 1 2 8.034V6h3v2.081h1V6h8v3H7.375l-.619 1H14v3H7.971c.017.14.029.282.029.433 0 .198-.02.386-.051.567H15V1H1zm4 4H2V2h3v3zm9 0H6V2h8v3z"/><path class="st2" d="M6.661 12.334a1.03 1.03 0 0 0-.394-.275 1.39 1.39 0 0 0-.518-.091 1.39 1.39 0 0 0-.547.105c-.164.07-.306.173-.425.308a1.42 1.42 0 0 0-.278.496c-.066.197-.1.421-.1.674 0 .227.031.432.094.61.063.18.15.331.261.454.111.124.243.218.396.285.156.067.323.1.504.1.193 0 .374-.035.539-.106.164-.071.306-.173.425-.306s.213-.297.28-.493A1.97 1.97 0 0 0 7 13.433a2.1 2.1 0 0 0-.088-.641 1.26 1.26 0 0 0-.251-.458zm-.483 1.849a.56.56 0 0 1-.474.243.563.563 0 0 1-.464-.228c-.12-.152-.181-.385-.181-.696 0-.316.061-.554.181-.716a.565.565 0 0 1 .479-.244.557.557 0 0 1 .445.215.853.853 0 0 1 .141.285c.034.116.051.256.051.42-.001.316-.059.557-.178.721zM5.428 9.081l-3.612 5.838h.721l3.611-5.838zM1.752 11.935c.152.065.321.097.505.097.194 0 .374-.035.538-.105.163-.07.305-.172.423-.305a1.45 1.45 0 0 0 .28-.493c.067-.195.101-.416.101-.663 0-.244-.029-.458-.088-.642a1.27 1.27 0 0 0-.251-.458 1.022 1.022 0 0 0-.394-.275A1.383 1.383 0 0 0 2.35 9c-.2 0-.382.035-.546.105a1.18 1.18 0 0 0-.427.31 1.468 1.468 0 0 0-.277.499c-.067.196-.1.419-.1.67 0 .227.031.432.094.612s.149.332.261.455c.11.124.243.218.397.284zm.089-2.118a.57.57 0 0 1 .479-.243.529.529 0 0 1 .442.22.853.853 0 0 1 .136.289c.033.116.05.256.05.419 0 .312-.059.55-.175.712a.547.547 0 0 1-.47.244.565.565 0 0 1-.462-.228.855.855 0 0 1-.134-.288 1.597 1.597 0 0 1-.048-.408c0-.314.061-.553.182-.717z"/></g><g id="icon_x5F_fg"><path class="st3" d="M2 2h3v3H2zM6 2h8v3H6zM6 8.081h1.943L7.375 9H14V6H6zM6.14 10.996c.173.026.339.07.495.133.301.12.559.301.771.537.204.232.355.506.457.817.052.161.085.336.108.517H14v-3H6.756l-.616.996zM2 8.034c.115-.016.229-.034.35-.034.316 0 .613.055.884.16.302.121.562.303.774.542.079.09.147.193.212.298h.082l.569-.919H5V6H2v2.034z"/></g></svg>