<svg xmlns="http://www.w3.org/2000/svg" viewBox="0 0 16 16"><style>.st0{opacity:0}.st0,.st1{fill:#f6f6f6}.st2{fill:#424242}.st3{fill:#f0eff1}</style><g id="outline"><path class="st0" d="M0 0h16v16H0z"/><path class="st1" d="M16 0H0v15h1.496c.417.58 1.086 1 2.004 1h3c.918 0 1.587-.42 2.004-1H16V0z"/></g><g id="icon_x5F_bg"><path class="st2" d="M1 1v8.5c0-.759.344-1.548 1-2.031V6h3v1h1V6h8v3H8.947c.033.166.053.333.053.5v.5h5v3H9v.484c0 .172-.022.345-.056.516H15V1H1zm4 4H2V2h3v3zm9 0H6V2h8v3z"/><path class="st2" d="M9 11h-.5c-.402 0-.494-.275-.5-.5v-1C8 8.896 7.601 8 6.5 8H6v1h.5c.402 0 .494.275.5.5v1c0 .309.104.693.354.997-.21.235-.354.564-.354 1.003v.994c-.006.231-.098.506-.5.506H6v1h.5c1.101 0 1.5-.896 1.5-1.516V12.5c0-.402.275-.494.5-.5H9v-1zM2 9.5v1c-.006.225-.098.5-.5.5H1v1h.5c.225.006.5.098.5.5v.984C2 14.104 2.399 15 3.5 15H4v-1h-.5c-.402 0-.494-.275-.5-.506V12.5c0-.439-.144-.768-.354-1.003.25-.304.354-.688.354-.997v-1c.006-.225.098-.5.5-.5H4V8h-.5C2.399 8 2 8.896 2 9.5z"/></g><g id="icon_x5F_fg"><path class="st3" d="M2 2h3v3H2zM6 2h8v3H6zM10 10h4v3h-4zM6 7h.5c1.401 0 2.241.959 2.447 2H14V6H6v1zM2 7.469C2.391 7.18 2.893 7 3.5 7H5V6H2v1.469z"/></g></svg>