<svg xmlns="http://www.w3.org/2000/svg" viewBox="0 0 16 16"><style>.st0{opacity:0}.st0,.st1{fill:#f6f6f6}.st2{fill:#424242}.st3{fill:#f0eff1}</style><g id="outline"><path class="st0" d="M0 0h16v16H0z"/><path class="st1" d="M16 0H0v16h11.53l.47-.292a2.48 2.48 0 0 0 .657-.402c.106-.093.191-.199.276-.306H16V0z"/></g><g id="icon_x5F_bg"><path class="st0" d="M0 0h16v16H0z"/><path class="st2" d="M1 1v8.308l.877-.185L2 9V6h3v3h.856c.049-.011.094-.024.144-.034V6h8v3h-2v.089c.226.105.436.229.604.385.167.153.296.334.405.526H14v3h-.606a2.2 2.2 0 0 1 .059.477c0 .179-.019.353-.053.523H15V1H1z"/><path class="st2" d="M2 2h3v3H2zM6 2h8v3H6zM1.027 15v-.874h1.04v-3.125L1 11.231v-.895l2.17-.437v4.228h1.032V15H1.027zM5 14.989v-.86l1.438-1.375c.151-.144.278-.275.382-.393.102-.116.185-.225.246-.325a1.043 1.043 0 0 0 .17-.574.801.801 0 0 0-.049-.281.604.604 0 0 0-.38-.361.993.993 0 0 0-.327-.051c-.119 0-.234.014-.347.04-.112.027-.22.064-.325.112a2.14 2.14 0 0 0-.298.164 2.961 2.961 0 0 0-.263.198v-.974a2.1 2.1 0 0 1 .268-.146 2.876 2.876 0 0 1 1.203-.27c.277 0 .518.037.723.11.203.073.372.175.505.303.134.129.231.28.296.453.064.174.096.36.096.558a1.752 1.752 0 0 1-.233.879 2.832 2.832 0 0 1-.322.453 4.69 4.69 0 0 1-.484.484l-1.032.917v.021h2.036v.916H5zM12.453 13.477c0 .213-.037.411-.111.595a1.258 1.258 0 0 1-.346.483 1.616 1.616 0 0 1-.592.325c-.24.081-.527.12-.857.12-.121 0-.244-.006-.367-.019a3.547 3.547 0 0 1-.352-.052 2.795 2.795 0 0 1-.316-.081 1.686 1.686 0 0 1-.25-.1v-.962a1.884 1.884 0 0 0 .57.276 2.308 2.308 0 0 0 .606.09c.293 0 .516-.063.67-.188a.607.607 0 0 0 .232-.502.581.581 0 0 0-.311-.531 1.164 1.164 0 0 0-.35-.128 2.254 2.254 0 0 0-.441-.042h-.451v-.847h.416c.174 0 .32-.016.445-.049a.887.887 0 0 0 .305-.137.548.548 0 0 0 .237-.465.671.671 0 0 0-.043-.245.486.486 0 0 0-.137-.194.635.635 0 0 0-.236-.128 1.18 1.18 0 0 0-.342-.046c-.096 0-.189.01-.283.028-.092.02-.18.044-.262.073a2.072 2.072 0 0 0-.435.225v-.903c.057-.027.125-.058.207-.089.081-.028.173-.057.279-.085a3.153 3.153 0 0 1 .746-.088c.293 0 .543.036.748.11.205.073.371.17.498.287.129.118.221.251.279.398.059.149.088.299.088.45 0 .143-.02.277-.055.407a1.108 1.108 0 0 1-.481.64c-.123.08-.273.142-.449.184v.018c.184.023.348.069.49.14a1.117 1.117 0 0 1 .651 1.032z"/></g><g id="icon_x5F_fg"><path class="st3" d="M8.456 9.446l.561-.271a3.44 3.44 0 0 1 .285-.123c.05-.018.113-.034.168-.052H7.526c.084.021.173.035.252.063.259.094.479.228.678.383zM2 2h3v3H2zM4.17 9H5V6H2v3h.567l1.603-.323zM6 2h8v3H6z"/><path class="st3" d="M6 8.971c.036-.007.068-.019.105-.025.197-.033.402-.051.614-.051.292 0 .558.042.808.105H9.47c.07-.023.135-.047.217-.068.147-.037.299-.066.461-.088a4.42 4.42 0 0 1 .536-.033c.416 0 .773.056 1.088.17.015.005.027.014.042.02H14V6H6v2.971zM13.297 11.057c0 .225-.03.449-.09.669a2.233 2.233 0 0 1-.184.455c.12.158.217.331.289.517.037.101.061.201.083.302H14v-3h-.989c.044.078.095.153.128.237.105.267.158.542.158.82z"/></g></svg>