<svg xmlns="http://www.w3.org/2000/svg" viewBox="0 0 16 16"><style>.icon-canvas-transparent{opacity:0;fill:#f6f6f6}.icon-vs-out{fill:#f6f6f6}.icon-vs-bg{fill:#424242}.icon-vs-fg{fill:#f0eff1}</style><path class="icon-canvas-transparent" d="M16 16H0V0h16v16z" id="canvas"/><path class="icon-vs-out" d="M13 12H7v2H0V7h4V1h9v11z" id="outline"/><path class="icon-vs-fg" d="M6 3v4h1V6h3v1H7v1h3v1H7v1h4V3H6zm4 2H7V4h3v1zM2 9.002h3v3H2v-3z" id="iconFg"/><g id="iconBg"><path class="icon-vs-bg" d="M7 8h3v1H7V8zm0-1h3V6H7v1zM5 2v5h1V3h5v7H7v1h5V2H5zM1 8h5v5H1V8zm1 4h3V9H2v3zm8-8H7v1h3V4z"/></g></svg>