<svg xmlns="http://www.w3.org/2000/svg" viewBox="0 0 16 16"><style>.st0{fill:#f6f6f6}.st1{fill:#424242}.st2{fill:#f0eff1}</style><path class="st0" d="M13 9V0H4v6H0v7h7v-2h2v5h7V9z" id="outline"/><g id="icon_x5F_bg"><path class="st1" d="M11 9h1V1H5v5h1V2h5zM1 12h5V7H1v5zm1-4h3v3H2V8z"/><path class="st1" d="M7 7h3v1H7zM7 5h3v1H7zM7 9h2v1H7zM7 3h3v1H7z"/></g><g id="icon_x5F_fg"><path class="st2" d="M6 2v4h1V5h3v1H7v1h3v1H7v1h4V2H6zm4 2H7V3h3v1zM2 8.002h3v3H2z"/></g><path class="st1" d="M10 10v5h5v-5h-5zm4 3l-1 1v-1.5L11.5 14l-.5-.5 1.5-1.5H11l1-1h2v2z" id="not_x5F_bg"/><path class="st2" d="M14 11v2l-1 1v-1.5L11.5 14l-.5-.5 1.5-1.5H11l1-1z" id="not_x5F_fg"/></svg>