<svg xmlns="http://www.w3.org/2000/svg" viewBox="0 0 16 16"><style>.st0{opacity:0}.st0,.st1{fill:#f6f6f6}.st2{fill:#424242}.st3{fill:#f0eff1}</style><g id="outline"><path class="st0" d="M0 0h16v16H0z"/><path class="st1" d="M9 9V8h3V0H3v3H0v8h9v5h7V9z"/></g><path class="st2" d="M4 1v3H1v6h7V7h3V1H4zm3 8H2V5h5v4zm3-3H8V4H5V2h5v4z" id="icon_x5F_bg"/><g id="icon_x5F_fg"><path class="st3" d="M5 2v2h3v2h2V2z"/><path class="st3" d="M2 5h5v4H2z"/></g><path class="st2" d="M10 10v5h5v-5h-5zm4 3l-1 1v-1.5L11.5 14l-.5-.5 1.5-1.5H11l1-1h2v2z" id="not_x5F_bg"/><path class="st3" d="M14 11v2l-1 1v-1.5L11.5 14l-.5-.5 1.5-1.5H11l1-1z" id="not_x5F_fg"/></svg>