<svg xmlns="http://www.w3.org/2000/svg" width="16" height="16"><style type="text/css">.icon-canvas-transparent{opacity:0;fill:#F6F6F6;} .icon-vs-out{fill:#F6F6F6;} .icon-vs-bg{fill:#424242;} .icon-vs-fg{fill:#F0EFF1;}</style><path class="icon-canvas-transparent" d="M16 16h-16v-16h16v16z" id="canvas"/><path class="icon-vs-out" d="M0 0h16v15h-16v-15z" id="outline"/><path class="icon-vs-bg" d="M1 1v13h14v-13h-14zm13 12h-12v-11h12v11zm-6-9h-5v5h5v-5zm-1 4h-3v-3h3v3zm6-3h-4v-1h4v1zm0 2h-4v-1h4v1zm0 2h-4v-1h4v1zm-8 1h.988v1h-.988v-1zm2 0h.988v1h-.988v-1zm-3.988 0h.988v1h-.988v-1z" id="iconBg"/><path class="icon-vs-fg" d="M4 5h3v3h-3v-3zm10-3v11h-12v-11h12zm-10 8h-1v1h1v-1zm2 0h-1v1h1v-1zm2 0h-1v1h1v-1zm0-6h-5v5h5v-5zm5 4h-4v1h4v-1zm0-2h-4v1h4v-1zm0-2h-4v1h4v-1z" id="iconFg"/></svg>