<svg xmlns="http://www.w3.org/2000/svg" viewBox="0 0 16 16"><style>.st0{opacity:0}.st0,.st1{fill:#f6f6f6}.st2{fill:#424242}.st3{fill:#f0eff1}</style><g id="outline"><path class="st0" d="M0 0h16v16H0z"/><path class="st1" d="M16 15H0V1h16v14z"/></g><g id="icon_x5F_bg"><path class="st2" d="M7 10h1v1H7z"/><path class="st2" d="M1 2v12h14V2H1zm13 11H2V5h12v8z"/><path class="st2" d="M5.454 11H4.402L3 7.022h1.109l.859 2.725c.021.07-.023.07 0-.012l.854-2.713h1.052L5.454 11zM10 7h2v3h1v1h-3v-1h1V8h-1z"/></g><path class="st3" d="M2 5v8h12V5H2zm3.547 6.156l-1.188-.012-1.453-4.113.281-.055.922-.039.859 2.798.141-.422.776-2.375L7 6.922l-1.453 4.234zM8 11H7v-1h1v1zm5 0h-3v-1h1V8h-1V7h2v3h1v1z" id="icon_x5F_fg"/></svg>