<svg xmlns="http://www.w3.org/2000/svg" viewBox="0 0 16 16"><style>.st0{opacity:0}.st0,.st1{fill:#f6f6f6}.st2{fill:#424242}.st3{fill:#f0eff1}</style><g id="outline"><path class="st0" d="M0 0h16v16H0z"/><path class="st1" d="M15 0H4v3.051C2.309 3.296 1 4.742 1 6.5c0 .979.407 1.864 1.058 2.5H0v7h9v-3h6V0z"/></g><g id="icon_x5F_bg"><path class="st2" d="M7 3h5v1H7zM11 5h1v1h-1z"/><path class="st2" d="M5 1v2.051a3.45 3.45 0 0 1 1 .3V2h7v9H9v1h5V1H5z"/><path class="st2" d="M9 9h1v1H9zM7.948 7a3.471 3.471 0 0 1-.3 1H11V7H7.948zM7.649 5c.149.312.25.646.3 1H10V5H7.649z"/><circle class="st2" cx="4.5" cy="6.5" r="2.5"/><path class="st2" d="M4.5 12L3 10H1v5h7v-5H6z"/></g><path class="st3" d="M6 2v1.351A3.509 3.509 0 0 1 7.649 5H10v1H7.949c.024.165.051.329.051.5 0 .156-.027.305-.047.456.003.015.009.029.011.044H11v1H7.648a3.532 3.532 0 0 1-.706 1H10v1H9v1h4V2H6zm6 4h-1V5h1v1zm0-2H7V3h5v1z" id="icon_x5F_fg"/></svg>