<svg xmlns="http://www.w3.org/2000/svg" viewBox="0 0 16 16"><style>.st0{opacity:0}.st0,.st1{fill:#f6f6f6}.st2{fill:#424242}.st3{fill:#f0eff1}</style><g id="outline"><path class="st0" d="M0 0h16v16H0z"/><path class="st1" d="M16 14H7.293c-.77.617-1.732 1-2.793 1s-2.023-.383-2.793-1H0V0h16v14z"/></g><path class="st2" d="M6.5 8l.5.5L5 11H4v-1s2.279-1.842 2.5-2zm1.166.824l-.767.916c.081.244.13.498.13.77 0 1.355-1.219 2.49-2.574 2.49S2 11.9 2 10.545s1.139-2.543 2.494-2.543c.271 0 .672.08.917.162l.792-.68C5.65 7.154 5.19 7 4.5 7 2.467 7 .97 8.477.97 10.51c0 2.033 1.497 3.51 3.53 3.51s3.518-1.486 3.518-3.519c0-.692-.022-1.124-.352-1.677zM9 6V5h3v1H9zm4 2V7h-3v1h3zm-1 2V9h-2v1h2zM1 1v6.707a4.508 4.508 0 0 1 1-.945V4h3v2.051c.347.039.682.111 1 .226V4h8v8H8.724c-.126.354-.28.693-.485 1H15V1H1z" id="icon_x5F_bg"/><path class="st3" d="M6 4v2.275c.354.127.683.305.99.51L5.411 8.164a3.398 3.398 0 0 0-.917-.162C3.139 8.002 2 9.189 2 10.545 2 11.9 3.126 13 4.5 13c1.271 0 2.467-1.09 2.525-2.369a2.83 2.83 0 0 0-.126-.891l1.396-1.625C8.734 8.807 9 9.619 9 10.5c0 .529-.108 1.029-.275 1.5H14V4H6zm-1 7H4v-1l2.5-2 .5.5L5 11zm4-6h3v1H9V5zm3 5h-2V9h2v1zm1-2h-3V7h3v1zM4.5 6c-.926 0-1.785.281-2.5.76V4h3v2.051C4.834 6.031 4.671 6 4.5 6z" id="icon_x5F_fg"/></svg>