<svg xmlns="http://www.w3.org/2000/svg" viewBox="0 0 16 16"><style>.icon-canvas-transparent{opacity:0;fill:#f6f6f6}.icon-vs-out{fill:#f6f6f6}.icon-vs-fg{fill:#f0eff1}.icon-folder{fill:#dcb67a}.icon-vs-action-blue{fill:#00539c}</style><path class="icon-canvas-transparent" d="M0 0h16v16H0z" id="canvas"/><path class="icon-vs-out" d="M13.5 6.586l-.5.5a1.499 1.499 0 0 0-.482-.085l-1.498.002V3.501c0-.401-.156-.778-.44-1.062a1.49 1.49 0 0 0-1.062-.438l-1.882.002L6.626 0H1.51C.683 0 .01.673.01 1.498L0 8.5C0 9.327.673 10 1.5 10h1.505L3 13.5c0 .827.673 1.5 1.5 1.5h3.586l1 1h4.328l-1-1h.107c.107 0 .211-.012.312-.034A2.494 2.494 0 0 0 15 12.5v-.086l1 1V9.086l-2.5-2.5z" id="outline"/><path class="icon-folder" d="M3.01 6.498C3.01 5.673 3.683 5 4.51 5h5.116l.395.783V3.501a.5.5 0 0 0-.501-.5l-2.499.003L6.01 1h-4.5a.5.5 0 0 0-.5.499l-.01 7A.5.5 0 0 0 1.5 9h1.506l.004-2.502zM2.021 2H5.01l.5 1H2.021V2zm4.565 11.5l2.5-2.5H11V9.086l1.085-1.085-2.064.003L9.01 6h-4.5a.5.5 0 0 0-.5.499l-.009 7A.499.499 0 0 0 4.5 14h2.586l-.5-.5zM5.021 7H8.01l.5 1H5.021V7z" id="iconBg"/><path class="icon-vs-action-blue" d="M13.5 8L12 9.5V11l1-1v2.5c0 .275-.225.5-.5.5H10l1-1H9.5L8 13.5 9.5 15H11l-1-1h2.5c.826 0 1.5-.673 1.5-1.5V10l1 1V9.5L13.5 8z" id="colorImportance"/><path class="icon-vs-fg" d="M5 2l.5 1H2V2h3zm3 5l.5 1H5V7h3z" id="iconFg"/></svg>