<svg xmlns="http://www.w3.org/2000/svg" viewBox="0 0 16 16"><style>.st0{opacity:0}.st0,.st1{fill:#f6f6f6}.st2{fill:#424242}.st3{fill:#00539c}</style><g id="outline"><path class="st0" d="M0 0h16v16H0z"/><path class="st1" d="M7.708 3a3.494 3.494 0 0 0-3.147-2c-.574 0-1.003.088-1.502.349V0h-.34L.059 2.515V6H3.609l-1.95 1.709 2.099 2.099L5.858 8h.2v2h1v1h-3v3h10V3h-6.35z"/></g><g id="icon_x5F_bg"><path class="st2" d="M5.059 12h8v1h-8zM8.059 10h5v1h-5zM7.059 8h6v1h-6zM8.059 6h5v1H7.811zM8.059 4h5v1h-5z"/></g><path class="st3" d="M4.561 2c-.592 0-.924.097-1.616.594l-.886.767V2l-1 .945V5h2.15l.85-1h-1.24l.773-.644c.319-.207.614-.356.969-.356a1.502 1.502 0 0 1 .969 2.645L3.121 7.757l.688.687 2.377-2.046A2.5 2.5 0 0 0 4.561 2z" id="color_x5F_action"/></svg>