<svg xmlns="http://www.w3.org/2000/svg" viewBox="0 0 16 16"><style>.icon-vs-action-red{fill:#a1260d}.icon-vs-fg{fill:#f0eff1}.icon-vs-bg{fill:#424242}.icon-vs-out{fill:#f6f6f6}.icon-canvas-transparent{opacity:0;fill:#f6f6f6}</style><path class="icon-canvas-transparent" d="M16 16H0V0h16v16z" id="canvas"/><path class="icon-vs-out" d="M16 5.086v4.828L13.914 12h-2.379l-2 3H7v-3h-.914L4 9.914V6.475l-.03-.03L2 8.414l-2-2v-.949L1.495 3.97 0 2.475v-.95L1.525 0h.949L3.97 1.495 5.465 0h.949l2 2-1 1h6.5L16 5.086z" id="outline"/><path class="icon-vs-bg" d="M15 5.5v4L13.5 11H11l-2 3H8v-3H6.5L5 9.5V7.475l.939.939.061-.06v.732l.914.914H9v2.197L10.465 10h2.621L14 9.086V5.914L13.086 5H7.475l-.988-1H13.5L15 5.5z" id="iconBg"/><path class="icon-vs-fg" d="M14 5.914v3.172l-.914.914h-2.621l-.297.445L9 12.197V10H6.914L6 9.086v-.732L8.414 5.94 7.475 5h5.611l.914.914z" id="iconFg"/><path class="icon-vs-action-red" d="M5.03 3.97L7 5.939 5.939 7 3.97 5.03 2 7 .939 5.939l1.97-1.97L.939 2 2 .939l1.97 1.97L5.94.939 7 2 5.03 3.97z" id="colorAction"/></svg>