<svg xmlns="http://www.w3.org/2000/svg" width="16" height="16"><style type="text/css">.icon-canvas-transparent{opacity:0;fill:#F6F6F6;} .icon-vs-out{fill:#F6F6F6;} .icon-vs-bg{fill:#424242;}</style><path class="icon-canvas-transparent" d="M16 16h-16v-16h16v16z" id="canvas"/><path class="icon-vs-out" d="M10.969 11h2.031v3h-10v-3h2.031c-1.225-.912-2.031-2.359-2.031-4v-5h4v5.5c0 .551.448 1 1 1s1-.449 1-1v-5.5h4v5c0 1.641-.806 3.088-2.031 4z" id="outline"/><path class="icon-vs-bg" d="M12 13h-8v-1h8v1zm-2-10v4.5c0 1.103-.897 2-2 2s-2-.897-2-2v-4.5h-2v4c0 2.208 1.79 4 4 4s4-1.792 4-4v-4h-2z" id="iconBg"/></svg>