<svg xmlns="http://www.w3.org/2000/svg" viewBox="0 0 16 16"><style>.st0{opacity:0}.st0,.st1{fill:#f6f6f6}.st2{fill:#424242}.st3{fill:#f0eff1}</style><g id="outline"><path class="st0" d="M0 0h16v16H0z"/><path class="st1" d="M4.285 1l.084.077A2.93 2.93 0 0 0 3 1.42V0h-.265L0 2.586V6h3.63L1.6 7.78l2.099 2.099L5.882 8H6v4.414L9.586 16h.828L14 12.414V8h1V1H4.285zM8 9.586L6.414 8H8v1.586zm4 0V8h1.586L12 9.586z"/></g><g id="icon_x5F_bg"><path class="st2" d="M11 8H9v4l-2-2v2l3 3 3-3v-2l-2 2zM8 4h4v1H8zM4.502 2.071c-.592 0-.924.097-1.615.594L2 3.433V2.071l-1 .946V5h2l-.005.005L4 4.071H2.76l.773-.644c.319-.207.614-.356.969-.356a1.502 1.502 0 0 1 .969 2.645L3.063 7.828l.687.688L6.127 6.47a2.502 2.502 0 0 0-1.625-4.399z"/><path class="st2" d="M6.856 2c.31.284.563.622.754 1H13v3H7.691c-.166.372-.41.704-.699 1H14V2H6.856z"/></g><path class="st3" d="M7.61 3c.242.475.39 1.003.39 1.571V4h4v1H8v-.429c0 .499-.109.985-.309 1.429H13V3H7.61z" id="icon_x5F_fg"/></svg>