<svg xmlns="http://www.w3.org/2000/svg" viewBox="0 0 16 16"><style>.st0{opacity:0}.st0,.st1{fill:#f6f6f6}.st2{fill:#e51400}</style><g id="outline"><path class="st0" d="M0 0h16v16H0z"/><path class="st1" d="M5.521 10.185L6.967 9H5V4.978L8 3.29V4h1c1.598 0 3 1.402 3 3 0 .382-.092.832-.273 1.338l-.05.139-.941 1.272-3.079 2.616-2.136-2.18z"/></g><path class="st2" d="M9 5h.016H9v.008c-1.042.032-1.584.495-2 1.139V5l-1 .563V8h2l1-1H7.644c.344-.549.594-.966 1.384-.995A.998.998 0 0 1 10 7c0 .396-.102.716-.234 1L7 10.266l.719.734L10 9.062 10.785 8c.132-.367.215-.723.215-1 0-1.067-1-2-2-2z" id="icon_x5F_bg"/></svg>