<svg xmlns="http://www.w3.org/2000/svg" viewBox="0 0 16 16"><style>.st0{opacity:0}.st0,.st1{fill:#f6f6f6}.st2{fill:none}.st3{fill:#424242}.st4{fill:#f0eff1}.st5{fill:#00539c}</style><g id="outline"><path class="st0" d="M0 0h16v16H0z"/><path class="st1" d="M16 5V1H7l-1 .075v.302a3.457 3.457 0 0 0-1.488-.345c-.573 0-.512.089-1.512.349V0h-.838L0 2.043V16h6v-1h10v-4H6v-1h10V6H7.693c.145-.314.224-.653.271-1H16z"/></g><g id="icon_x5F_bg"><path class="st2" d="M2 7h2v2H2zM2 12h2v2H2zM2 2h2v2H2z"/><path class="st3" d="M1 15h4v-4H1v4zm1-3h2v2H2v-2zM7 2v.075A3.49 3.49 0 0 1 7.96 4H15V2H7zM7 12h8v2H7zM3.716 9.84L2.877 9H2V7h.456l1.13-1H1v4h4V8.735zM7 7h8v2H7z"/></g><g id="icon_x5F_fg"><path class="st4" d="M4 4H2V2h2v2zm0 3H2v2h2V7zm0 5H2v2h2v-2z"/><path class="st5" d="M7.019 4.532c0 .73-.318 1.423-.873 1.898L3.769 8.477l-.688-.688L5.49 5.677a1.502 1.502 0 0 0-.969-2.645c-.355 0-.65.149-.969.356l-.773.644h1.665l-.969.969-.394.031H1.019V2.474l1-.945v1.865l.887-.768c.692-.498 1.023-.594 1.616-.594a2.502 2.502 0 0 1 2.497 2.5z"/></g></svg>