<svg xmlns="http://www.w3.org/2000/svg" viewBox="0 0 16 16"><style>.st0{opacity:0}.st0,.st1{fill:#f6f6f6}.st2{fill:#424242}</style><g id="outline"><path class="st0" d="M0 0h16v16H0z"/><path class="st1" d="M11.656 4.285c-.832-.833-2.008-1.311-3.224-1.311-.186 0-.371.011-.516.03A4.723 4.723 0 0 0 6 3.587V2h-.854L3 5.173v3.805h3.797l3.092-2.015c.057.159.086.329.086.503 0 .346-.123.676-.303.895L5.909 12.16l2.068 2.315 4.003-4.214a4.462 4.462 0 0 0-.324-5.976z"/></g><path class="st2" d="M11.199 9.638a3.465 3.465 0 0 0-.25-4.646C10.178 4.22 9.051 3.871 8 4a3.732 3.732 0 0 0-3 1.998V4L4 5.479v2.499h2.5L8 7H6c0-.467.284-.934.704-1.304l.002.002c.067-.066.145-.118.219-.175a2.901 2.901 0 0 1 1.085-.49c.791-.141 1.646.08 2.232.666a2.48 2.48 0 0 1 .139 3.366L7.28 12.196 8 13l3.199-3.362z" id="icon_x5F_bg"/></svg>