<svg xmlns="http://www.w3.org/2000/svg" viewBox="0 0 16 16"><style>.icon-vs-action-red{fill:#a1260d}.icon-vs-fg{fill:#f0eff1}.icon-vs-bg{fill:#424242}.icon-vs-out{fill:#f6f6f6}.icon-canvas-transparent{opacity:0;fill:#f6f6f6}</style><path class="icon-canvas-transparent" d="M16 16H0V0h16v16z" id="canvas"/><path class="icon-vs-out" d="M16 0v16H1V7.414l-1-1v-.828L1.556 4.03 0 2.475v-.829L1.646 0h.828L4.03 1.556 5.293.293 5 0h11z" id="outline"/><path class="icon-vs-fg" d="M7 9h3v2H7V9zm0 5h3v-2H7v2zm-4-3h3V9H3v2zm0 3h3v-2H3v2zm1.03-7.495L3 7.535V8h2.525L4.03 6.505zM11 11h3V9h-3v2zm0-3h3V6h-3v2zm-3.984-.542L7 8h3V6H8.475L7.016 7.458zM11 2v2h3V2h-3zm-2.525.061L7 3.535V4h3V2H8.414l.061.061zM11 14h3v-2h-3v2z" id="iconFg"/><path class="icon-vs-bg" d="M7.414 1l1 1H10v2H7v-.465l-.495.495L8.475 6H10v2H7v-.525l-1 1L5.525 8H3v-.465l-.939.94L2 8.414V15h13V1H7.414zM6 14H3v-2h3v2zm0-3H3V9h3v2zm4 3H7v-2h3v2zm0-3H7V9h3v2zm4 3h-3v-2h3v2zm0-3h-3V9h3v2zm0-3h-3V6h3v2zm0-4h-3V2h3v2z" id="iconBg"/><path class="icon-vs-action-red" d="M5.091 4.03L7.061 6 6 7.061l-1.97-1.97-1.97 1.97L1 6l1.97-1.97L1 2.06 2.061 1l1.97 1.97L6 1l1.061 1.06-1.97 1.97z" id="colorAction"/></svg>