<svg xmlns="http://www.w3.org/2000/svg" viewBox="0 0 16 16"><style>.st0{fill:#f6f6f6}.st1{fill:#424242}.st2{fill:#00539c}.st3{fill:#f0eff1}</style><path class="st0" d="M16 9V4h-4V0H7v1H5V0H0v5h1v2H0v5h4v4h5v-1h2v1h5v-5h-1V9z" id="outline"/><g id="icon_x5F_bg"><path class="st1" d="M4 2h4v1H4zM9 4h1v1H9zM2 4h1v4H2zM4 9h1v1H4zM8 6h4v1H8zM13 8h1v4h-1zM6 8h1v4H6zM8 13h4v1H8z"/></g><g id="color_x5F_decoration"><path class="st2" d="M1 1h3v3H1zM12 12h3v3h-3zM5 12h3v3H5zM8 1h3v3H8zM1 8h3v3H1zM12 5h3v3h-3zM5 5h3v3H5z"/></g><g id="icon_x5F_fg"><path class="st3" d="M9 4H8V3H4v1H3v4h1v1h1V5h4zM12 8V7H8v1H7v4h1v1h4v-1h1V8z"/></g></svg>