<svg xmlns="http://www.w3.org/2000/svg" viewBox="0 0 16 16" enable-background="new 0 0 16 16"><style type="text/css">.icon-canvas-transparent{opacity:0;fill:#F6F6F6;} .icon-vs-out{fill:#F6F6F6;} .icon-vs-bg{fill:#424242;} .icon-vs-fg{fill:#F0EFF1;} .icon-vs-action-blue{fill:#00539C;}</style><path class="icon-canvas-transparent" d="M16 16h-16v-16h16v16z" id="canvas"/><path class="icon-vs-out" d="M16 2v12h-10.977l-1.967 2h-.238l-2.818-2.866v-1.651l1-1.134v-4.691l-1-1.063v-1.827l2.814-2.768h.246l2.017 2h10.923z" id="outline"/><path class="icon-vs-fg" d="M14 6h-7v-2h7v2zm-7 4h7v2h-7v-2z" id="iconFg"/><path class="icon-vs-bg" d="M6 3v4h9v-4h-9zm8 3h-7v-2h7v2zm-8 7h9v-4h-9v4zm1-3h7v2h-7v-2z" id="iconBg"/><path class="icon-vs-action-blue" d="M1.354 4.354l-.708-.708 2.354-2.353 2.354 2.354-.708.707-1.146-1.147v3.793h-1v-3.793l-1.146 1.147zm2.146 8.439v-3.793h-1v3.793l-1.146-1.147-.707.707 2.353 2.354 2.354-2.353-.707-.707-1.147 1.146z" id="colorAction"/></svg>