<svg xmlns="http://www.w3.org/2000/svg" width="16" height="16"><style type="text/css">.icon-canvas-transparent{opacity:0;fill:#F6F6F6;} .icon-vs-out{fill:#F6F6F6;} .icon-vs-bg{fill:#424242;} .icon-vs-fg{fill:#F0EFF1;}</style><path class="icon-canvas-transparent" d="M16 16h-16v-16h16v16z" id="canvas"/><path class="icon-vs-out" d="M16 16h-16v-16h16v16z" id="outline"/><path class="icon-vs-bg" d="M13 7h-4v-4h4v4zm-6-4h-4v4h4v-4zm6 6h-4v4h4v-4zm-6 0h-4v4h4v-4zm8-8v14h-14v-14h14zm-1 1h-12v12h12v-12z" id="iconBg"/><g id="iconFg"><path class="icon-vs-fg" d="M2 2v12h12v-12h-12zm5 11h-4v-4h4v4zm0-6h-4v-4h4v4zm6 6h-4v-4h4v4zm0-6h-4v-4h4v4z"/></g></svg>