<svg xmlns="http://www.w3.org/2000/svg" viewBox="0 0 31 18"><style>.st0{opacity:0}.st0,.st1{fill:#f6f6f6}.st2{fill:none}.st3{fill:#424242}.st4{fill:#f0eff1}</style><g id="outline"><path class="st0" d="M0 0h31v18H0z"/><path class="st1" d="M0 3h12v12H0zM14 3v6h1v1h4V9h3.038c.069.314.232.61.495.867L23.801 11l-1.303 1.165c-.322.317-.5.738-.498 1.184.002.444.185.876.502 1.183.305.297.74.468 1.193.468.468 0 .906-.188 1.227-.544l1.171-1.405L28.273 15H30v-1.361l-2.198-2.638.834-1.001H29v-.437L29.469 9H30V3H14z"/></g><g id="icon_x5F_bg"><path class="st2" d="M2 5h8v8H2zM16 5h1v1h-1z"/><path class="st3" d="M1 14h10V4H1v10zm1-9h8v8H2V5zM15 4v4h1v1h2V8h4.138c.086-.199.209-.381.366-.533A1.712 1.712 0 0 1 23.694 7c.468 0 .905.188 1.201.514l.406.486H26v.839l.093.111L28.273 7H29V4H15zm2 2h-1V5h1v1z"/><path class="st3" d="M28.656 8l-2.668 2.385-1.834-2.2c-.238-.263-.721-.229-.955 0a.652.652 0 0 0 0 .938L25.3 11l-2.101 1.878a.652.652 0 0 0 0 .938c.234.228.717.264.955 0l1.834-2.2L28.656 14H29l-2.5-3L29 8h-.344z"/></g><g id="icon_x5F_fg"><path class="st4" d="M2 5h8v8H2zM16 5h1v1h-1z"/></g></svg>