<svg xmlns="http://www.w3.org/2000/svg" viewBox="0 0 31 18"><style>.st0{opacity:0}.st0,.st1{fill:#f6f6f6}.st2{fill:none}.st3{fill:#424242}.st4{fill:#f0eff1}</style><g id="outline"><path class="st0" d="M0 0h31v18H0z"/><path class="st1" d="M0 3h12v12H0V3zm23.72-1.964l.781-.913h-2.816l-2.482 1.802L18.164.552A1.695 1.695 0 0 0 16.887 0c-.486 0-.952.185-1.272.505-.69.683-.692 1.798.024 2.516l1.097 1.012c-.021.025-.038.053-.059.079l-2.161 1.881a1.755 1.755 0 0 0 0 2.486c.145.145.314.256.493.342-.001.06-.009.118-.009.179a8 8 0 0 0 16 0c0-4.176-3.2-7.599-7.28-7.964z"/></g><g id="icon_x5F_bg"><path class="st2" d="M2 5h8v8H2z"/><path class="st3" d="M25 8.996a1.999 1.999 0 0 0-1.538-1.937l-.807-1.015C22.771 6.029 22.881 6 23 6a3 3 0 0 1 3 3h4a7 7 0 0 0-7-7c-.037 0-.073.006-.111.007l-1.784 2.084L25 8.996zM24 9a1 1 0 1 1-2 0c0-.053.022-.099.03-.149l-.888-.781.066.059A2.066 2.066 0 0 0 21 9a2 2 0 0 0 2 2c.321 0 .621-.083.891-.219.139-.069.268-.156.386-.254.01-.007.325-.337.345-.364.146-.202.252-.432.314-.681.038-.154.064-.315.064-.482v-.004l-1.001.001L24 9zM1 14h10V4H1v10zm1-9h8v8H2V5z"/><path class="st3" d="M23 12a3 3 0 0 1-3-3h-4a7 7 0 0 0 7 7 6.95 6.95 0 0 0 3.128-.744l-1.792-3.583A2.973 2.973 0 0 1 23 12zM19.025 4.886l3.554 3.123h.394l-3.157-3.94L22.475.983h-.445l-3.015 2.342-1.602-2.122c-.273-.309-.827-.268-1.095 0a.772.772 0 0 0 0 1.098l1.916 1.769-3.012 2.62a.77.77 0 0 0 0 1.097.77.77 0 0 0 1.096 0l2.707-2.901zM25.435 10.74l3.256 2.325a6.967 6.967 0 0 0 1.093-2.369l-3.883-.971c-.091.371-.25.713-.466 1.015z"/><path class="st3" d="M20.099 8.275a2.95 2.95 0 0 1 .351-.816l-1.355-1.192-1.329 1.424 2.333.584z"/></g><g id="icon_x5F_fg"><path class="st4" d="M2 5h8v8H2zM29.781 10.695A6.865 6.865 0 0 0 30 9h-4a3 3 0 0 0-3-3c-.119 0-.229.029-.345.043l.807 1.015A2 2 0 0 1 25 8.995V9c0 .167-.026.328-.065.482a1.971 1.971 0 0 1-.314.681c-.09.126-.592.549-.73.618-.27.136-.57.219-.891.219a2 2 0 0 1-2-2c0-.167.149-.748.209-.872l-.76-.669a2.997 2.997 0 0 0-.351.816l-2.334-.584-.712.763a1.812 1.812 0 0 1-1.051.523L16 9h4a3 3 0 0 0 3 3c.482 0 .933-.125 1.336-.327l1.792 3.583a7.026 7.026 0 0 0 2.564-2.191l-3.256-2.325c.216-.302.374-.645.466-1.015l3.879.97z"/></g></svg>