<svg xmlns="http://www.w3.org/2000/svg" viewBox="0 0 16 16"><style>.st0{opacity:0}.st0,.st1{fill:#f6f6f6}.st2{fill:#424242}.st3{fill:#00539c}</style><g id="outline"><path class="st0" d="M0 0h16v16H0z"/><path class="st1" d="M10.5 0C8.57 0 7 1.57 7 3.5v.084L5 1.596V6H2v4.102L4.169 16h5.527L12 10.229V5h2.001V3.5c0-1.93-1.57-3.5-3.501-3.5zM10 3.5a.5.5 0 0 1 .578-.494L10 3.587V3.5z"/></g><g id="icon_x5F_bg"><path class="st2" d="M4.867 15h4.152l1.996-5H3.028zM5.587 7H3v2h4.599zM9.428 9H11V7.418z"/></g><path class="st3" d="M8.515 8.5L11 6V4L9 6.013V3.5a1.501 1.501 0 0 1 3 0V4h1.001v-.5A2.5 2.5 0 0 0 8 3.5v2.488L6 4v2l2.515 2.5z" id="color_x5F_action"/></svg>