<svg xmlns="http://www.w3.org/2000/svg" viewBox="0 0 16 16"><style>.st0{fill:#f6f6f6}.st1{fill:#424242}.st2{fill:#00539c}.st3{fill:#f0eff1}</style><path class="st0" d="M9 9V8h3V0H3v3H0v8h9v5h7V9z" id="outline"/><g id="icon_x5F_bg"><path class="st1" d="M1 10h7V7H7v2H2V4.999h2V4H1z"/><path class="st1" d="M4 1v3h1V1.999h5V6H8v1h3V1z"/></g><path class="st2" d="M4 4h4v3H4z" id="color_x5F_importance"/><path class="st1" d="M10 10v5h5v-5h-5zm4 3l-1 1v-1.5L11.5 14l-.5-.5 1.5-1.5H11l1-1h2v2z" id="not_x5F_bg"/><path class="st3" d="M14 11v2l-1 1v-1.5L11.5 14l-.5-.5 1.5-1.5H11l1-1z" id="not_x5F_fg"/></svg>