<svg xmlns="http://www.w3.org/2000/svg" viewBox="0 0 16 16"><style>.st0{opacity:0}.st0,.st1{fill:#f6f6f6}.st2{fill:#424242}</style><g id="outline"><path class="st0" d="M0 0h16v16H0z"/><path class="st1" d="M12 8.675V2.586L9.414 0H7.586L6 1.586V7.77a4.448 4.448 0 0 0-2 3.73C4 13.981 6.019 16 8.5 16s4.5-2.019 4.5-4.5a4.446 4.446 0 0 0-1-2.825z"/></g><path class="st2" d="M10 8.35V8h1V7l-1-1h1V5l-1-1h1V3L9 1H8L7 2v6.35a3.49 3.49 0 0 0-2 3.15 3.5 3.5 0 1 0 7 0c0-1.394-.82-2.587-2-3.15zM9 13a1 1 0 1 1 0-2 1 1 0 1 1 0 2z" id="icon_x5F_bg"/></svg>