<svg xmlns="http://www.w3.org/2000/svg" viewBox="0 0 16 16"><style>.st0{fill:#f6f6f6}.st1{fill:#424242}.st2{fill:#fc0}</style><g id="outline"><path class="st0" d="M8.309 15.5l-.711-1.423-.487.425c-.749.653-1.652.998-2.611.998-2.206 0-4-1.794-4-4 0-1.337.664-2.576 1.776-3.314l.224-.148V1.793L3.793.5h1.414L7.5 2.793v6.06l.113.138a3.9 3.9 0 0 1 .736 1.475l.341 1.271L10.809 7.5h1.383l3.25 6.5-.75 1.5H8.309z"/><path class="st0" d="M5 1l2 2v6.031l.226.276c.292.356.507.79.641 1.287l.682 2.545 1.178-2.356L11.118 8h.764l3 6-.5 1H8.618l-.284-.568-.578-1.155-.974.849A3.453 3.453 0 0 1 4.5 15C2.57 15 1 13.43 1 11.5c0-1.169.581-2.252 1.553-2.897L3 8.306V2l1-1h1m.414-1H3.586L2 1.586V7.77a4.448 4.448 0 0 0-2 3.73C0 13.981 2.019 16 4.5 16a4.458 4.458 0 0 0 2.939-1.121L8 16h7l1-2-3.5-7h-2l-1.668 3.336A4.417 4.417 0 0 0 8 8.675V2.586L5.414 0z"/></g><path class="st1" d="M6 8.35V8h1V7L6 6h1V5L6 4h1V3L5 1H4L3 2v6.35a3.49 3.49 0 0 0-2 3.15A3.5 3.5 0 0 0 4.5 15a3.475 3.475 0 0 0 2.57-1.141l.867-1.733c.037-.203.063-.411.063-.626 0-1.394-.82-2.587-2-3.15zM5 13a1 1 0 1 1 0-2 1 1 0 1 1 0 2z" id="icon_x5F_bg"/><path class="st2" d="M11.891 8.016h-.781l-3.016 6 .515.984h5.766l.484-1-2.968-5.984zM12 14h-1v-1h1v1zm0-2h-1v-2h1v2z" id="not_x5F_bg"/><path d="M12 12h-1v-2h1v2zm0 1h-1v1h1v-1z" id="not_x5F_fg"/></svg>