<svg xmlns="http://www.w3.org/2000/svg" viewBox="0 0 16 16"><style>.st0{fill:#f6f6f6}.st1{fill:#424242}.st2{fill:#e51400}.st3{fill:#fff}</style><path class="st0" d="M11.5 7c-1.416 0-2.665.667-3.489 1.69L8 8.675V2.586L5.414 0H3.586L2 1.586V7.77a4.448 4.448 0 0 0-2 3.73C0 13.981 2.019 16 4.5 16c1.42 0 2.673-.674 3.499-1.705C8.823 15.326 10.077 16 11.5 16a4.5 4.5 0 0 0 0-9z" id="outline"/><path class="st1" d="M7.434 9.602A3.54 3.54 0 0 0 6 8.35V8h1V7L6 6h1V5L6 4h1V3L5 1H4L3 2v6.35a3.49 3.49 0 0 0-2 3.15A3.5 3.5 0 0 0 4.5 15c1.232 0 2.31-.64 2.934-1.601A4.458 4.458 0 0 1 7 11.5c0-.681.163-1.32.434-1.898zM5 13a1 1 0 1 1 0-2 1 1 0 1 1 0 2z" id="icon_x5F_bg"/><path class="st2" d="M11.5 8a3.5 3.5 0 1 0 0 7 3.5 3.5 0 0 0 0-7zm1.854 4.646l-.707.707-1.147-1.146-1.146 1.147-.707-.707 1.147-1.146-1.147-1.146.707-.707 1.146 1.147 1.146-1.147.707.707-1.146 1.145 1.147 1.146z" id="not_x5F_bg"/><path class="st3" d="M13.354 10.354l-.708-.708-1.146 1.147-1.146-1.147-.708.708 1.147 1.146-1.147 1.146.708.708 1.146-1.147 1.146 1.147.708-.708-1.147-1.146z" id="not_x5F_fg"/></svg>