<svg xmlns="http://www.w3.org/2000/svg" viewBox="0 0 16 16"><style>.st0{opacity:0}.st0,.st1{fill:#f6f6f6}.st2{fill:none}.st3{fill:#424242}.st4{fill:#f0eff1}</style><g id="outline"><path class="st0" d="M0 0h16v16H0z"/><path class="st1" d="M16 1H1v5H0v8h8V8h8V1zM5 11H3V9h2v2z"/></g><g id="icon_x5F_bg"><path class="st2" d="M11 6h1V4h1v2h1V3h-3z"/><path class="st3" d="M1 13h2v-1H2V8h1V7H1zM5 8h1v4H5v1h2V7H5zM5 4H4v2h1z"/><path class="st3" d="M2 2v4h1V3h3v3h1V3h3v3H9V4H8v3h7V2H2zm12 4h-1V4h-1v2h-1V3h3v3z"/></g><g id="icon_x5F_fg"><path class="st4" d="M7 6h1V4h1v2h1V3H7zM3 6h1V4h1v2h1V3H3zM11 3v3h1V4h1v2h1V3z"/></g></svg>