<svg xmlns="http://www.w3.org/2000/svg" viewBox="0 0 16 16"><style>.st0{opacity:0;fill:#fff}.st1{fill:#f6f6f6}.st2{fill:#424242}.st3{fill:#f0eff1}</style><g id="outline"><path class="st0" d="M.037 0h16v16h-16z"/><path class="st1" d="M12.037 4V0h-12v12h4v4h12V4h-4z"/></g><g id="icon_x5F_bg"><path class="st2" d="M9 7V3H3v6h4v4h6V7h-2.963z"/><path class="st2" d="M11 5V1H1v10h4v4h10V5h-4zm3 9H6v-4H2V2h8v4h4v8z"/></g><path class="st3" d="M9.037 3v4h4v6h-6V9h-4V3h6m1-1h-8v8h4v4h8V6h-4V2z" id="icon_x5F_fg"/></svg>