<svg xmlns="http://www.w3.org/2000/svg" viewBox="0 0 16 16"><style>.st0{opacity:0}.st0,.st1{fill:#f6f6f6}.st2{fill:#424242}.st3{fill:#f0eff1}</style><g id="outline"><path class="st0" d="M0 0h16v16H0z"/><path class="st1" d="M0 0v14h9v2h7V0z"/></g><g id="icon_x5F_bg"><path class="st2" d="M10 6v9h5V6h-5zm3 8h-1v-1h1v1zm1-2h-3V7h3v5z"/><path class="st2" d="M1 1v12h8v-3H2V2h12v3h1V1H1zm6 10h1v1H7v-1z"/></g><g id="icon_x5F_fg"><path class="st3" d="M7 11h1v1H7zM2 2v8h7V5h5V2z"/><path class="st3" d="M11 7h3v5h-3zM12 13h1v1h-1z"/></g></svg>