<svg xmlns="http://www.w3.org/2000/svg" viewBox="0 0 16 16"><style>.st0{opacity:0}.st0,.st1{fill:#f6f6f6}.st2{fill:#424242}</style><g id="outline"><path class="st0" d="M0 0h16v16H0z"/><path class="st1" d="M9 12V4h3c1.988 0 4 1.374 4 4s-2.012 4-4 4H9zM4.014 12c-1.988 0-4-1.374-4-4s2.012-4 4-4H7v7.986L6 12H4.014zm0-4"/><path class="st1" d="M6.014 11L6 10.986V11z"/></g><g id="icon_x5F_bg"><path class="st2" d="M13 8c0 .5-.5 1-1 1h-2v2h2c1.5 0 3-1 3-3s-1.5-3-3-3h-2v2h2c.5 0 1 .5 1 1zM3.014 8c0-.5.5-1 1-1H6V5H4.014c-1.5 0-3 1-3 3s1.5 3 3 3H6V9H4.014c-.5 0-1-.5-1-1z"/></g></svg>