<svg xmlns="http://www.w3.org/2000/svg" viewBox="0 0 16 16"><style>.st0{opacity:0}.st0,.st1{fill:#f6f6f6}.st2{fill:#424242}</style><g id="outline"><path class="st0" d="M0 0h16v16H0z"/><path class="st1" d="M12 7H4V4c0-1.988 1.374-4 4-4s4 2.012 4 4v3zM12 11.986c0 1.988-1.374 4-4 4s-4-2.012-4-4V9h7.986L12 10v1.986zm-4 0"/><path class="st1" d="M11 9.986l-.014.014H11z"/></g><g id="icon_x5F_bg"><path class="st2" d="M8 3c.5 0 1 .5 1 1v2h2V4c0-1.5-1-3-3-3S5 2.5 5 4v2h2V4c0-.5.5-1 1-1zM8 12.986c-.5 0-1-.5-1-1V10H5v1.986c0 1.5 1 3 3 3s3-1.5 3-3V10H9v1.986c0 .5-.5 1-1 1z"/></g></svg>