<svg xmlns="http://www.w3.org/2000/svg" width="16" height="16"><style>.icon-canvas-transparent{opacity:0;fill:#f6f6f6}.icon-vs-out{fill:#f6f6f6}.icon-vs-bg{fill:#424242}.icon-vs-fg{fill:#f0eff1}</style><path class="icon-canvas-transparent" d="M16 16H0V0h16v16z" id="canvas"/><path class="icon-vs-out" d="M13 6.5V9h-3v4H3V7h3v-.5C6 4.57 7.57 3 9.5 3S13 4.57 13 6.5z" id="outline"/><path class="icon-vs-bg" d="M12 6.5V8h-1V6.5a1.5 1.5 0 1 0-3 0V7H7v-.5a2.5 2.5 0 1 1 5 0zM4 8h5v4H4V8zm2 3h1V9H6v2z" id="iconBg"/><path class="icon-vs-fg" d="M7 11H6V9h1v2z" id="iconFg"/></svg>