<svg xmlns="http://www.w3.org/2000/svg" viewBox="0 0 16 16"><style>.st0{fill:#f6f6f6}.st1{fill:#424242}.st2{fill:#f0eff1}</style><path class="st0" d="M13.797 0h-2.834C10.012 0 9 .701 9 2v3.797L6.982 4H1.941C1 4 0 4.701 0 6v8c0 1.299 1 2 1.941 2h6c1.426 0 2.011-1.161 2.059-2h5V7.732c.681-.393.979-1.147 1-1.732V2.79L13.797 0zM12 11h-2V7.747c.3.163.634.253.964.253H12v3z" id="outline"/><g id="icon_x5F_bg"><path class="st1" d="M11 12h1v1h-1zM13 12h1v1h-1zM13 10h1v1h-1zM13 8h1v1h-1zM13.313 1h-2.35S10 1 10 2v4c0 1 .964 1 .964 1h3C14.964 7 15 6 15 6V3.137L13.313 1zM14 5v1h-3V2h2v1h1v2zM6.602 5h-4.66C1.941 5 1 5 1 6v8c0 1 .941 1 .941 1h6C8.941 15 9 14 9 14V7.137L6.602 5zM8 9v5H2V6h4v2h2v1z"/></g><g id="icon_x5F_fg"><path class="st2" d="M11 2h2v1h1v3h-3zM6 8V6H2v8h6V8z"/></g></svg>