<svg xmlns="http://www.w3.org/2000/svg" viewBox="0 0 16 16"><style>.icon-canvas-transparent{opacity:0;fill:#f6f6f6}.icon-vs-out{fill:#f6f6f6}.icon-vs-bg{fill:#424242}</style><path class="icon-canvas-transparent" d="M16 16H0V0h16v16z" id="canvas"/><path class="icon-vs-out" d="M16 1.519L14.481 0h-.828L12.2 1.453l-.934-.934L9.4 2.386l-.933-.933L6.119 3.8l.934.933-1.326 1.326c-.418.418-.55 1.036-.398 1.589L3.8 6.119 1.453 8.467l.933.933-1.867 1.866.934.934L0 13.653v.828L1.519 16h.828L3.8 14.547l.934.934L6.6 13.614l.933.933L9.882 12.2l-1.53-1.529c.146.041.298.061.452.061.431 0 .845-.167 1.137-.459l1.326-1.326.933.935 2.347-2.349-.933-.933 1.866-1.867-.933-.933L16 2.347v-.828z" id="outline"/><path class="icon-vs-bg" d="M7.533 3.8l.933-.933.934.933 1.867-1.867.933.934L14.067 1l.933.933L13.133 3.8l.933.933L12.2 6.6l.933.933-.933.934L7.533 3.8zM8.3 8.633c-.225.226-.227.654.027.907s.681.252.907.026l1.1-1.1-.934-.933-1.1 1.1zM6.434 6.766c-.226.226-.227.654.026.907.253.254.681.252.907.027l1.1-1.1-.934-.933-1.099 1.099zM3.8 7.533l-.933.934.933.933-1.867 1.867.934.933L1 14.067l.933.933L3.8 13.133l.933.933L6.6 12.2l.933.933.934-.933L3.8 7.533z" id="iconBg"/></svg>