<svg xmlns="http://www.w3.org/2000/svg" viewBox="0 0 16 16"><style>.icon-canvas-transparent{opacity:0;fill:#f6f6f6}.icon-vs-out{fill:#f6f6f6}.icon-vs-bg{fill:#424242}</style><path class="icon-canvas-transparent" d="M16 0v16H0V0h16z" id="canvas"/><path class="icon-vs-out" d="M15.81 9.155c.112-.368.19-.751.19-1.155a4 4 0 0 0-2.688-3.765l-.417-.146A4.007 4.007 0 0 0 9 1H4C1.794 1 0 2.794 0 5c0 1.69 1.08 3.203 2.688 3.766l.417.146A4.006 4.006 0 0 0 7 12h2v4h7V9.943l-.008-.064a3.241 3.241 0 0 0-.182-.724z" id="outline"/><g id="iconBg"><path class="icon-vs-bg" d="M12.805 6.172c.098-.318.162-.648.177-.993a2.993 2.993 0 0 1 2.013 2.757 3.375 3.375 0 0 0-1.174-.713 2.003 2.003 0 0 0-1.016-1.051zM5 8c0-1.103.897-2 2-2h2c.552 0 1-.449 1-1H7C5.346 5 4 6.346 4 8s1.346 3 3 3h2v-1H7c-1.103 0-2-.898-2-2zm5.775-.594A2.99 2.99 0 0 0 12 5c0-1.654-1.346-3-3-3H4C2.346 2 1 3.346 1 5c0 1.309.847 2.412 2.018 2.821.016-.345.079-.676.177-.993A2.001 2.001 0 0 1 2 5c0-1.103.897-2 2-2h5c1.102 0 2 .897 2 2s-.898 2-2 2H7c-.551 0-1 .449-1 1h3c.489 0 .945-.129 1.353-.337.134-.095.273-.182.422-.257zM10 10h1c.14-.527.655-1 1.5-1 .82 0 1.352.471 1.5 1h1c-.14-1.146-1.127-2-2.5-2-1.372 0-2.351.854-2.5 2zm0 1h5v4h-5v-4zm2 3h1v-2h-1v2z"/></g></svg>