<svg xmlns="http://www.w3.org/2000/svg" viewBox="0 0 16 16"><style>.st0{opacity:0}.st0,.st1{fill:#f6f6f6}.st2{fill:#424242}.st3{fill:#00539c}.st4{fill:#f0eff1}</style><g id="outline"><path class="st0" d="M0 0h16v16H0z"/><path class="st1" d="M15 1v7h-3v3.414l-4 4-4-4V8H2V1h13z"/></g><g id="icon_x5F_bg"><path class="st2" d="M7 6h1v1H7zM5 2h1v1H5zM5 6h1v1H5zM7 2h1v1H7zM3 2h1v1H3zM3 6h1v1H3zM3 4h1v1H3zM13 4h1v1h-1zM9 6h1v1H9zM13 2h1v1h-1zM11 2h1v1h-1zM13 6h1v1h-1zM11 6h1v1h-1zM9 2h1v1H9z"/></g><path class="st3" d="M9 11l2-2v2l-3 3-3-3V9l2 2V8h2v3z" id="color_x5F_importance"/><path class="st4" d="M13 3v3H4V3h9z" id="icon_x5F_fg"/></svg>