<svg xmlns="http://www.w3.org/2000/svg" viewBox="0 0 16 16"><style>.icon-vs-action-red{fill:#a1260d}.icon-vs-fg{fill:#f0eff1}.icon-vs-bg{fill:#424242}.icon-vs-out{fill:#f6f6f6}.icon-canvas-transparent{opacity:0;fill:#f6f6f6}</style><path class="icon-canvas-transparent" d="M16 16H0V0h16v16z" id="canvas"/><path class="icon-vs-out" d="M16 9.586l-2-2-1.97 1.97-1.97-1.97-.06.06V0H0v12h9.525l.03.03L7.586 14l2 2h.949l1.495-1.495L13.525 16h.949L16 14.475v-.949l-1.495-1.495L16 10.535v-.949z" id="outline"/><path class="icon-vs-fg" d="M6 5a1 1 0 1 1-2 0 1 1 0 0 1 2 0zm1.646 5H2V2h6v7.646L7.646 10zM6.75 9l-.594-2.373C6.666 6.264 7 5.672 7 5a2 2 0 0 0-4 0c0 .672.334 1.264.843 1.627L3.25 9h1.083L5 7l.666 2H6.75z" id="iconFg"/><path class="icon-vs-bg" d="M7 5a2 2 0 0 0-4 0c0 .672.334 1.264.843 1.627L3.25 9h1.083L5 7l.666 2H6.75l-.594-2.373C6.666 6.264 7 5.672 7 5zM5 6a1 1 0 1 1-.002-1.998A1 1 0 0 1 5 6zm3.525 5H1V1h8v7.646l-1 1V2H2v8h5.646l-.061.061.94.939z" id="iconBg"/><path class="icon-vs-action-red" d="M13.091 12.03l1.97 1.97L14 15.061l-1.97-1.97-1.97 1.97L9 14l1.97-1.97L9 10.061 10.061 9l1.97 1.97L14 9l1.061 1.061-1.97 1.969z" id="colorAction"/></svg>