<svg xmlns="http://www.w3.org/2000/svg" viewBox="0 0 16 16"><style>.st0{opacity:0}.st0,.st1{fill:#f6f6f6}.st2{fill:#424242}.st3{fill:#00539c}.st4{fill:#f0eff1}</style><g id="outline"><path class="st0" d="M0 0h16v16H0z"/><path class="st1" d="M16 0v15H1V8H0l1-1V6H0V2h1V1L0 0h16z"/></g><g id="icon_x5F_bg"><path class="st2" d="M8 11h1v1H8zM8 7h1v1H8zM10 3h1v1h-1zM8 9h1v1H8zM10 5h1v1h-1z"/><path class="st2" d="M7 1l1 1h6v11H3V8H2v6h13V1z"/><path class="st2" d="M6 11h1v1H6zM4 11h1v1H4zM6 9h1v1H6zM12 9h1v1h-1zM12 3h1v1h-1zM12 7h1v1h-1zM10 7h1v1h-1zM12 11h1v1h-1zM12 5h1v1h-1zM10 9h1v1h-1zM10 11h1v1h-1z"/></g><path class="st3" d="M5 1H3l2 2H1v2h4L3 7h2l3-3z" id="color_x5F_importance"/><path class="st4" d="M8 2l2 2V3h1v1h-1L6 8H3v5h11V2H8zM5 12H4v-1h1v1zm2 0H6v-1h1v1zm0-2H6V9h1v1zm2 2H8v-1h1v1zm0-2H8V9h1v1zm0-2H8V7h1v1zm2 4h-1v-1h1v1zm0-2h-1V9h1v1zm0-2h-1V7h1v1zm0-2h-1V5h1v1zm2 6h-1v-1h1v1zm0-2h-1V9h1v1zm0-2h-1V7h1v1zm0-2h-1V5h1v1zm0-2h-1V3h1v1z" id="icon_x5F_fg"/></svg>