<svg xmlns="http://www.w3.org/2000/svg" viewBox="0 0 16 16"><style>.st0{fill:#f6f6f6}.st1{fill:#424242}.st2{fill:#f0eff1}</style><path class="st0" d="M10.531 5L5.423 0h-.837L2 2.586v.827L3.592 5H0v11h16V5z" id="outline"/><g id="icon_x5F_bg"><path class="st1" d="M11.553 6l1.021 1H14v7H2V7h3.598L4.595 6H1v9h14V6z"/><path class="st1" d="M4 11h5.609l-1.003-1H4z"/><g><path transform="rotate(-45.001 8 6)" class="st1" d="M6.586 3.171h2.828v5.656H6.586z"/><path transform="rotate(-45.001 4.5 2.5)" class="st1" d="M3.086 1.793h2.828v1.414H3.086z"/><path class="st1" d="M12 8v1.999L10 10"/></g></g><path class="st2" d="M12.574 7l.426.417V11H4v-1h4.606L5.598 7H2v7h12V7z" id="icon_x5F_fg"/></svg>