<?xml version="1.0" encoding="iso-8859-1"?>
<!-- Generator: Adobe Illustrator 21.0.0, SVG Export Plug-In . SVG Version: 6.00 Build 0)  -->
<svg version="1.1" xmlns="http://www.w3.org/2000/svg" xmlns:xlink="http://www.w3.org/1999/xlink" x="0px" y="0px"
	 viewBox="0 0 16 16" style="enable-background:new 0 0 16 16;" xml:space="preserve">
<style type="text/css">
	.icon_x002D_canvas_x002D_transparent{opacity:0;fill:#F6F6F6;}
	.icon_x002D_vs_x002D_out{fill:#F6F6F6;}
	.icon_x002D_vs_x002D_bg{fill:#424242;}
	.icon_x002D_vs_x002D_fg{fill:#F0EFF1;}
	.icon_x002D_vs_x002D_blue{fill:#1BA1E2;}
</style>
<g id="canvas">
	<path class="icon_x002D_canvas_x002D_transparent" d="M16,16H0V0h16V16z"/>
</g>
<g id="outline">
	<path class="icon_x002D_vs_x002D_out" d="M15.999,7v6c0,1.711-2.148,3-4.999,3c-2.851,0-5-1.289-5-3v-3H3.801
		C1.599,9.553,0,7.57,0,5.313C0,4.486,0.215,3.694,0.605,3H0V2l1.5-2h4.699c1.995,0.405,3.481,2.074,3.746,4.063
		C10.283,4.022,10.636,4,11,4C13.851,4,15.999,5.29,15.999,7z"/>
</g>
<g id="iconBg">
	<path class="icon_x002D_vs_x002D_bg" d="M4,4.5V3C2.855,3.259,2,4.277,2,5.5C2,6.724,2.855,7.742,4,8v1
		C2.288,8.653,1,7.128,1,5.313C1,3.868,1.822,2.626,3.02,2H1.5l1-1H5v2.5L4,4.5z M8.5,8H6.98C8.178,7.374,9,6.132,9,4.688
		C9,2.872,7.712,1.347,6,1v1c1.145,0.258,2,1.276,2,2.5C8,5.723,7.145,6.741,6,7V5.5l-1,1V9h2.5L8.5,8z"/>
</g>
<g id="iconFg">
	<path class="icon_x002D_vs_x002D_fg" d="M14.325,7c0,0.527-1.326,1.325-3.325,1.325c-0.472,0-0.901-0.047-1.289-0.122L10.914,7
		h-1.52c0.215-0.382,0.371-0.796,0.473-1.227C10.216,5.715,10.59,5.675,11,5.675C12.999,5.675,14.325,6.473,14.325,7z"/>
</g>
<g id="colorImportance">
	<path class="icon_x002D_vs_x002D_blue" d="M15,7v3v3c0,1.104-1.791,2-4,2c-2.209,0-4-0.896-4-2v-3h0.914l1.797-1.797
		C10.099,8.278,10.528,8.325,11,8.325c1.999,0,3.325-0.798,3.325-1.325S12.999,5.675,11,5.675c-0.41,0-0.784,0.04-1.133,0.098
		c0.054-0.228,0.088-0.461,0.107-0.698C10.303,5.031,10.643,5,11,5c1.201,0,2.267,0.271,3,0.689C14.615,6.041,15,6.496,15,7z"/>
</g>
</svg>
