<svg xmlns="http://www.w3.org/2000/svg" viewBox="0 0 16 16"><style>.icon-canvas-transparent{opacity:0;fill:#f6f6f6}.icon-vs-out{fill:#f6f6f6}.icon-vs-bg{fill:#424242}.icon-vs-fg{fill:#f0eff1}.icon-vs-action-blue{fill:#00539c}</style><path class="icon-canvas-transparent" d="M16 0v16H0V0h16z" id="canvas"/><path class="icon-vs-out" d="M16 2v14H1V7.052a4.485 4.485 0 0 1 0-4.111V0h5v.58l.496.175c.727.257 1.35.695 1.844 1.245H16z" id="outline"/><path class="icon-vs-fg" d="M7 12h3v2H7v-2zm2-2H7v1h3V9H9v1zm-6 4h3v-2H3v2zm1-4.58l-.496-.175A4.462 4.462 0 0 1 3 9.021V11h3v-1H4v-.58zM11 6v2h3V6h-3zm0 5h3V9h-3v2zm0 3h3v-2h-3v2zM9 7.059V8h1V6h-.616c-.084.37-.211.726-.384 1.059z" id="iconFg"/><path class="icon-vs-bg" d="M9.029 3c.303.609.471 1.29.471 2 0 .342-.042.676-.116 1H10v2H9v1h1v2H7v-1H6v1H3V9.021a4.475 4.475 0 0 1-1-.685V15h13V3H9.029zM6 14H3v-2h3v2zm4 0H7v-2h3v2zm4 0h-3v-2h3v2zm0-3h-3V9h3v2zm0-3h-3V6h3v2z" id="iconBg"/><g id="colorAction"><path class="icon-vs-action-blue" d="M4.169 7.358l-.332.944A3.507 3.507 0 0 1 1.5 5a3.49 3.49 0 0 1 1.726-3H2V1h3v3H4V2.712A2.502 2.502 0 0 0 2.5 5c0 1.059.671 2.007 1.669 2.358zM8.5 5a3.507 3.507 0 0 0-2.337-3.302l-.332.944A2.503 2.503 0 0 1 7.5 5 2.502 2.502 0 0 1 6 7.288V6H5v3h3V8H6.774A3.488 3.488 0 0 0 8.5 5z"/></g></svg>