<?xml version="1.0" encoding="iso-8859-1"?>
<!-- Generator: Adobe Illustrator 21.0.0, SVG Export Plug-In . SVG Version: 6.00 Build 0)  -->
<svg version="1.1" xmlns="http://www.w3.org/2000/svg" xmlns:xlink="http://www.w3.org/1999/xlink" x="0px" y="0px"
	 viewBox="0 0 16 16" style="enable-background:new 0 0 16 16;" xml:space="preserve">
<style type="text/css">
	.icon_x002D_canvas_x002D_transparent{opacity:0;fill:#F6F6F6;}
	.icon_x002D_vs_x002D_out{fill:#F6F6F6;}
	.icon_x002D_vs_x002D_bg{fill:#424242;}
	.icon_x002D_vs_x002D_fg{fill:#F0EFF1;}
	.icon_x002D_vs_x002D_blue{fill:#1BA1E2;}
	.icon_x002D_vs_x002D_red{fill:#E51400;}
	.icon_x002D_white{fill:#FFFFFF;}
</style>
<g id="canvas">
	<path class="icon_x002D_canvas_x002D_transparent" d="M16,16H0V0h16V16z"/>
</g>
<g id="outline">
	<path class="icon_x002D_vs_x002D_out" d="M16,9c0,0.352-0.11,0.679-0.279,0.987C15.891,10.462,16,10.967,16,11.5
		c0,2.485-2.015,4.5-4.5,4.5c-1.314,0-2.486-0.573-3.31-1.473L6.183,16H4.254l-4.087-2.574V7.856l4.884-2.47L6,5.888V3
		c0-1.711,2.149-3,5-3c2.851,0,5,1.289,5,3V9z"/>
</g>
<g id="iconBg">
	<path class="icon_x002D_vs_x002D_bg" d="M5.041,6.512L1.167,8.471v4.403l4.081,2.57l2.358-1.729
		c-0.09-0.158-0.182-0.314-0.254-0.483c-0.01-0.03-0.02-0.059-0.032-0.088c-0.001-0.003-0.002-0.006-0.003-0.009l-1.628,1.173
		v-3.274l1.559-0.948c0.012-0.036,0.023-0.072,0.034-0.108C7.44,9.54,7.662,9.139,7.94,8.776l-0.001,0l0,0
		C7.968,8.744,7.993,8.71,8.02,8.679l0,0l0,0c0.114-0.141,0.225-0.282,0.354-0.408L5.041,6.512z M2.265,8.659l2.731-1.387
		l2.913,1.435L5.2,10.333L2.265,8.659z M1.861,12.456v-3.15l3.059,1.709v3.436L1.861,12.456z"/>
</g>
<g id="colorImportance">
	<path class="icon_x002D_vs_x002D_blue" d="M11.5,7c1.423,0,2.676,0.673,3.5,1.703V6V3c0-0.504-0.385-0.959-1-1.311
		C13.267,1.271,12.201,1,11,1C9.799,1,8.733,1.271,8,1.689C7.385,2.041,7,2.496,7,3v3v0.415l2.271,1.198
		C9.931,7.233,10.685,7,11.5,7z M11,1.675c1.999,0,3.325,0.798,3.325,1.325S12.999,4.325,11,4.325C9.001,4.325,7.675,3.527,7.675,3
		S9.001,1.675,11,1.675z"/>
</g>
<g id="iconFg">
	<path class="icon_x002D_vs_x002D_fg" d="M14.325,3c0,0.527-1.326,1.325-3.325,1.325C9.001,4.325,7.675,3.527,7.675,3
		S9.001,1.675,11,1.675C12.999,1.675,14.325,2.473,14.325,3z M5.2,10.333l2.708-1.626L4.996,7.272L2.265,8.659L5.2,10.333z
		 M4.92,11.015L1.861,9.306v3.15L4.92,14.45V11.015z M5.689,11.034v3.274l1.628-1.173c0.001,0.003,0.002,0.006,0.003,0.009
		C7.119,12.634,7,12.082,7,11.5c0-0.537,0.11-1.045,0.282-1.522c-0.01,0.036-0.022,0.073-0.034,0.108L5.689,11.034z"/>
</g>
<g id="notificationBg">
	<path class="icon_x002D_vs_x002D_red" d="M11.5,8C9.567,8,8,9.567,8,11.5c0,1.933,1.567,3.5,3.5,3.5c1.933,0,3.5-1.567,3.5-3.5
		C15,9.567,13.433,8,11.5,8z M13.354,12.646l-0.707,0.707L11.5,12.207l-1.146,1.147l-0.707-0.707l1.147-1.146l-1.147-1.146
		l0.707-0.707l1.146,1.147l1.146-1.147l0.707,0.707L12.207,11.5L13.354,12.646z"/>
</g>
<g id="notificationFg">
	<polygon class="icon_x002D_white" points="13.354,10.354 12.646,9.646 11.5,10.793 10.354,9.646 9.646,10.354 10.793,11.5 
		9.646,12.646 10.354,13.354 11.5,12.207 12.646,13.354 13.354,12.646 12.207,11.5 	"/>
</g>
</svg>
