<svg xmlns="http://www.w3.org/2000/svg" viewBox="0 0 16 16"><style>.st0{fill:#f6f6f6}.st1{fill:#424242}.st2{fill:#00539c}</style><path class="st0" d="M12.495 8.785L12.5 4h-.511L9.403 7.685l-2.291-.798L10 4 6 0H0l2 2H0v4h2L0 8h3v2h1v1H3v3h2l-.5.5.5.5 4.239-1.632L11.005 16h1.494v-4.071L16 10.665v-.817z" id="outline"/><g id="icon_x5F_bg"><path class="st1" d="M4 12h2v1H4zM5 10h1v1H5zM11.494 9.516l.005-2.766-1.758 2.085-2.615-.805 1.249 2.267L6.5 13.16l2.875-.955L11 14.75v-3.521l2.75-.913zM4 8h2v1H4z"/></g><path class="st2" d="M8 4L5 7H3l2-2H1V3h4L3 1h2z" id="color_x5F_action"/></svg>