<?xml version="1.0" encoding="iso-8859-1"?>
<!-- Generator: Adobe Illustrator 21.0.0, SVG Export Plug-In . SVG Version: 6.00 Build 0)  -->
<svg version="1.1" xmlns="http://www.w3.org/2000/svg" xmlns:xlink="http://www.w3.org/1999/xlink" x="0px" y="0px"
	 viewBox="0 0 16 16" style="enable-background:new 0 0 16 16;" xml:space="preserve">
<style type="text/css">
	.icon_x002D_canvas_x002D_transparent{opacity:0;fill:#F6F6F6;}
	.icon_x002D_vs_x002D_out{fill:#F6F6F6;}
	.icon_x002D_vs_x002D_fg{fill:#F0EFF1;}
	.icon_x002D_vs_x002D_blue{fill:#1BA1E2;}
	.icon_x002D_vs_x002D_action_x002D_blue{fill:#00539C;}
</style>
<g id="canvas">
	<path class="icon_x002D_canvas_x002D_transparent" d="M16,16H0V0h16V16z"/>
</g>
<g id="outline">
	<path class="icon_x002D_vs_x002D_out" d="M11,4C9.852,4,8.827,4.217,8.001,4.58V3.586L4.415,0H3.587L0,3.586v4.828l2-2V9h4.001v4
		c0,1.711,2.148,3,4.999,3c2.851,0,4.999-1.289,4.999-3V7C15.999,5.29,13.851,4,11,4z"/>
</g>
<g id="iconFg">
	<path class="icon_x002D_vs_x002D_fg" d="M14.325,7c0,0.527-1.326,1.325-3.325,1.325c-1.424,0-2.495-0.405-3-0.829V6.503
		c0.505-0.423,1.576-0.829,3-0.829C12.999,5.675,14.325,6.473,14.325,7z"/>
</g>
<g id="colorAction">
	<path class="icon_x002D_vs_x002D_action_x002D_blue" d="M7,4v2L5,4v4H3V4L1,6V4l3-3L7,4z"/>
</g>
<g id="colorImportance">
	<path class="icon_x002D_vs_x002D_blue" d="M15,7v3v3c0,1.104-1.791,2-4,2c-2.209,0-4-0.896-4-2v-3V7.415l1,1V7.497
		c0.505,0.423,1.576,0.829,3,0.829c1.999,0,3.325-0.798,3.325-1.325S12.999,5.675,11,5.675c-1.424,0-2.495,0.405-3,0.829V5.689
		C8.733,5.271,9.799,5,11,5c1.201,0,2.267,0.271,3,0.689C14.615,6.041,15,6.496,15,7z"/>
</g>
</svg>
