<svg xmlns="http://www.w3.org/2000/svg" width="16" height="16"><style type="text/css">.icon-canvas-transparent{opacity:0;fill:#F6F6F6;} .icon-vs-out{fill:#F6F6F6;} .icon-vs-bg{fill:#424242;} .icon-vs-fg{fill:#F0EFF1;} .icon-vs-action-blue{fill:#00539C;}</style><path class="icon-canvas-transparent" d="M16 16h-16v-16h16v16z" id="canvas"/><path class="icon-vs-out" d="M14 4.556v8.444c0 .97-.701 2-2 2h-8c-.97 0-2-.701-2-2v-6.586l-2 2v-4.828l3.586-3.586h.828l1 1h4.646l3.94 3.556z" id="outline"/><path class="icon-vs-bg" d="M13 5v8s-.035 1-1.035 1h-8s-.965 0-.965-1v-4h1v4h8v-7h-3v-3h-1.586l-1-1h3.227l3.359 3z" id="iconBg"/><path class="icon-vs-fg" d="M12 6v7h-8v-4h2v-2.586l2 2v-4.828l-.586-.586h1.586v3h3z" id="iconFg"/><path class="icon-vs-action-blue" d="M7 6l-2-2v4h-2v-4l-2 2v-2l3-3 3 3v2z" id="colorAction"/></svg>