<svg xmlns="http://www.w3.org/2000/svg" viewBox="0 0 16 16" enable-background="new 0 0 16 16"><style type="text/css">.icon-canvas-transparent{opacity:0;fill:#F6F6F6;} .icon-vs-out{fill:#F6F6F6;} .icon-vs-bg{fill:#424242;} .icon-vs-fg{fill:#F0EFF1;} .icon-vs-action-blue{fill:#00539C;}</style><path class="icon-canvas-transparent" d="M16 16h-16v-16h16v16z" id="canvas"/><path class="icon-vs-out" d="M14.341 6c-.061-.172-.147-.355-.264-.547-.375-.616-1.303-1.659-2.454-1.659h-.001c-.566.015-1.097.317-1.624.937-.398-.465-.802-.751-1.23-.872l-3.835-3.859h-.831l-4.102 4.123v.823l1.695 1.72 1.305-1.319v4.653h1v1h1v5h10v-5h1v-5h-1.659zm-8.338-.666l-.003.004v-.007l.003.003z" id="outline"/><path class="icon-vs-bg" d="M13.419 7c.083-.213.099-.542-.196-1.028-.279-.459-.944-1.179-1.555-1.179h-.02c-.579.016-1.198.912-1.648 1.74-.305-.56-.687-1.145-1.081-1.474l-.565.566c.21.12.607.679.985 1.375h-.626c-.714-.048-1.281-.153-1.386-.271l.016-.09-.019.019-.592-.594c-.236.433-.227.737-.15.936h-.582v1h3.5v1h-3.5v6h8v-5h1v-3h-1.581zm-3.919 7h-2.5v-4h2.5v4zm2.168-8.407c.083.004.375.166.674.522.267.317.34.555.346.582-.116.141-.699.253-1.428.303h-.6c.402-.741.831-1.347 1.008-1.407zm1.332 8.407h-2.5v-4h2.5v4zm1-5h-3.5v-1h3.5v1z" id="iconBg"/><path class="icon-vs-fg" d="M6 8h3.5v1h-3.5v-1zm1 6v-4h2.5v4h-2.5zm6 0h-2.5v-4h2.5v4zm1-5h-3.5v-1h3.5v1z" id="iconFg"/><path class="icon-vs-action-blue" d="M4 2.914l-2.303 2.328-.697-.707 3.517-3.535 3.513 3.535-.706.707-2.324-2.328v6.086h-1v-6.086z" id="colorAction"/></svg>