<svg xmlns="http://www.w3.org/2000/svg" viewBox="0 0 16 16"><style>.st0{fill:#f6f6f6}.st1{fill:#424242}.st2{fill:#00539c}</style><path class="st0" d="M11.001 6v.83c-.82-.533-1.785-.816-2.893-.816-.037 0-.071.007-.108.007V3.586L4.414 0h-.827L0 3.586V16h5v-.863c.823.566 1.813.863 2.972.863.98 0 1.828-.146 2.516-.436l.514-.217V16H16V6h-4.999zm-8 7v-1.684c.018.608.12 1.172.311 1.684h-.311zm0-2.045V9h.414a5.34 5.34 0 0 0-.414 1.955zM6 6.449v-.035l.025.025-.025.01zM13.001 13h-.756c.467-.607.719-1.357.756-2.227V13zm0-2.611A4.554 4.554 0 0 0 12.741 9h.26v1.389z" id="outline"/><g id="icon_x5F_bg"><path class="st1" d="M12.001 7v1h2v6h-2v1h3V7zM2 9V7h-.586L1 7.412V15h3v-1H2zM6.799 7.213A3.817 3.817 0 0 0 6 7.55v.93c.398-.35.851-.59 1.37-.696l-.571-.571z"/><path class="st1" d="M10.909 7.996c-.74-.654-1.674-.982-2.801-.982-.038 0-.07.008-.108.009v.696c.024 0 .045-.006.069-.006.965 0 1.721.268 2.264.801.545.531.816 1.219.816 2.061 0 .57-.1 1.035-.303 1.393-.199.359-.453.537-.76.537-.334 0-.502-.32-.502-.963 0-.031.076-.902.229-2.611h-.808c-.039.278-.063.465-.072.555h-.016a.847.847 0 0 0-.346-.449 1.048 1.048 0 0 0-.609-.185c-.598 0-1.08.24-1.445.723-.365.482-.549 1.088-.549 1.818 0 .549.133.988.4 1.314a1.3 1.3 0 0 0 1.053.488c.682 0 1.141-.348 1.375-1.047h.025c.002.699.379 1.047 1.125 1.047.578 0 1.068-.246 1.469-.742.402-.494.602-1.127.602-1.898 0-1.051-.369-1.905-1.108-2.559zm-2.394 3.955c-.211.369-.494.553-.85.553a.704.704 0 0 1-.594-.303c-.146-.203-.221-.48-.221-.828 0-.521.109-.957.33-1.309.219-.35.508-.523.863-.523.521 0 .781.315.781.953.001.604-.102 1.092-.309 1.457z"/><path class="st1" d="M5.733 13.412c-.584-.586-.877-1.356-.877-2.311 0-.82.231-1.516.665-2.102h-.983c-.359.619-.553 1.325-.553 2.135 0 1.152.365 2.086 1.098 2.797C5.812 14.644 6.776 15 7.972 15c.852 0 1.561-.119 2.129-.357v-.75c-.553.268-1.221.4-2.004.4-.991 0-1.778-.295-2.364-.881z"/></g><path class="st2" d="M7 4L4 1 1 4v2l2-2v4h2V4l2 2V4z" id="color_x5F_action"/></svg>