<svg xmlns="http://www.w3.org/2000/svg" viewBox="0 0 16 16"><style>.icon-canvas-transparent{opacity:0;fill:#f6f6f6}.icon-vs-out{fill:#f6f6f6}.icon-vs-bg{fill:#424242}.icon-vs-fg{fill:#f0eff1}.icon-vs-blue{fill:#1ba1e2}</style><path class="icon-canvas-transparent" d="M16 16H0V0h16v16z" id="canvas"/><path class="icon-vs-out" d="M16 4.278V7.75a6.218 6.218 0 0 1-3 3.733V16H0V9h4.563a6.118 6.118 0 0 1-.722-2.015c-.028-.172-.051-.307-.065-.467a5.696 5.696 0 0 1-.026-.529C3.75 3.153 5.65.76 8.243 0h3.471A6.201 6.201 0 0 1 16 4.278z" id="outline"/><path class="icon-vs-bg" d="M5 13H3v-1h2v1zm5-1H6v1h4v-1zm2-2v5H1v-5h11zm-1 1H2v3h9v-3z" id="iconBg"/><path class="icon-vs-fg" d="M2 11v3h9v-3H2zm3 2H3v-1h2v1zm5 0H6v-1h4v1zm2.227-8.246a9.373 9.373 0 0 0 1.737-.453c.224.522.349 1.095.349 1.699 0 .095-.008.188-.014.28a8.806 8.806 0 0 1-2.136.647 6.907 6.907 0 0 0 .064-2.173zm1.334-1.184c-.515.177-1 .3-1.463.372a8.766 8.766 0 0 0-.688-2.013 4.302 4.302 0 0 1 2.151 1.641zm-3.557 3.495a12.92 12.92 0 0 1-1.378-.092 9.243 9.243 0 0 1-.093-1.344c.004-.29.023-.566.051-.836.452.051.923.085 1.412.09l.302.002c.366 0 .737-.012 1.116-.04.028.254.049.513.053.785.004.433-.052.902-.157 1.402a16.77 16.77 0 0 1-1.306.033zM10 1.688c.124 0 .245.008.366.019.351.608.708 1.384.915 2.33-.428.029-.85.033-1.277.029A12.699 12.699 0 0 1 8.7 3.982a9.12 9.12 0 0 1 .751-2.256c.18-.023.362-.038.549-.038zm-1.562.296a9.835 9.835 0 0 0-.549 1.881 14.507 14.507 0 0 1-1.427-.327 4.32 4.32 0 0 1 1.976-1.554zM5.688 6c0-.614.131-1.197.361-1.727.515.151 1.087.295 1.726.404a9.494 9.494 0 0 0-.058.944c-.005.4.025.812.073 1.227a14.72 14.72 0 0 1-2.087-.545A3.817 3.817 0 0 1 5.688 6zm3.425 3a11.28 11.28 0 0 1-.337-1.186c.393.039.8.064 1.22.068.101.002.201.002.302.002.261 0 .524-.008.79-.021-.111.363-.251.742-.414 1.137H9.113zM6.906 9a4.313 4.313 0 0 1-1.041-1.781c.598.184 1.283.359 2.058.483.084.428.202.861.341 1.298H6.906zm4.646 0c.166-.421.308-.828.415-1.214a9.548 9.548 0 0 0 2.164-.551A4.315 4.315 0 0 1 13 9.091V9h-1.448z" id="iconFg"/><path class="icon-vs-blue" d="M15.241 5.822a5.246 5.246 0 1 0-10.469.631c.012.135.031.268.053.398l.002.014c.131.787.442 1.509.88 2.135h1.199a4.313 4.313 0 0 1-1.041-1.781c.598.184 1.283.359 2.058.483.084.428.202.861.341 1.298h.849a11.28 11.28 0 0 1-.337-1.186c.393.039.8.064 1.22.068.101.002.201.002.302.002.261 0 .524-.008.79-.021-.111.363-.251.742-.414 1.137h.878c.166-.421.308-.828.415-1.214a9.548 9.548 0 0 0 2.164-.551A4.315 4.315 0 0 1 13 9.091v1.199A5.226 5.226 0 0 0 15.25 6c0-.06-.008-.118-.009-.178zm-5.79-4.095c.18-.024.362-.039.549-.039.124 0 .245.008.366.019.351.608.708 1.384.915 2.33-.428.029-.85.033-1.277.029A12.699 12.699 0 0 1 8.7 3.982c.175-.911.464-1.66.751-2.255zM5.703 6.303A3.817 3.817 0 0 1 5.688 6c0-.614.131-1.197.361-1.727.515.151 1.087.295 1.726.404a9.494 9.494 0 0 0-.058.944c-.005.4.025.812.073 1.227a14.72 14.72 0 0 1-2.087-.545zm2.186-2.438a14.507 14.507 0 0 1-1.427-.327 4.32 4.32 0 0 1 1.976-1.554 9.835 9.835 0 0 0-.549 1.881zm3.421 3.166c-.438.031-.868.037-1.306.034a12.92 12.92 0 0 1-1.378-.092 9.243 9.243 0 0 1-.093-1.344c.004-.29.023-.566.051-.836.452.051.923.085 1.412.09l.302.002c.366 0 .737-.012 1.116-.04.028.254.049.513.053.785.004.433-.052.901-.157 1.401zm.1-5.102a4.307 4.307 0 0 1 2.151 1.641c-.515.177-1 .3-1.463.372a8.655 8.655 0 0 0-.688-2.013zm2.889 4.351a8.806 8.806 0 0 1-2.136.647 6.907 6.907 0 0 0 .063-2.174 9.373 9.373 0 0 0 1.737-.453c.225.523.35 1.096.35 1.7 0 .095-.008.188-.014.28z" id="colorImportance"/></svg>