<svg xmlns="http://www.w3.org/2000/svg" viewBox="0 0 16 16"><style>.st0{fill:#f6f6f6}.st1{fill:#424242}.st2{fill:#f0eff1}</style><path class="st0" d="M16 0H2v4.056c-.617.631-1 1.492-1 2.444 0 .98.35 1.865 1 2.5H0v7h9v-4h7V0z" id="outline"/><g id="icon_x5F_bg"><path class="st1" d="M3 1v2.35a3.48 3.48 0 0 1 1-.3V2h10v8H9v1h6V1H3z"/><path class="st1" d="M13 3H5v.05A3.49 3.49 0 0 1 8 6.5c0 .204-.024.401-.054.595l.016.022 2.614-3.382a.5.5 0 0 1 .83-.026L13 5.94V3z"/><path class="st1" d="M8.424 8.266a.507.507 0 0 1-.403.234.486.486 0 0 1-.421-.2l-.044-.06A3.168 3.168 0 0 1 7 9h6V7.66l-1.973-2.761-2.603 3.367zM4.5 12L3 10H1v5h7v-5H6z"/><circle class="st1" cx="4.5" cy="6.5" r="2.5"/></g><path class="st2" d="M13 2H4v1.05c.165-.023.329-.05.5-.05s.335.027.5.05V3h8v2.94l-1.594-2.23a.498.498 0 0 0-.83.026L7.962 7.117l-.016-.022a3.443 3.443 0 0 1-.39 1.145l.044.06a.486.486 0 0 0 .421.2.507.507 0 0 0 .403-.234l2.603-3.367L13 7.66V9H9v1h5V2h-1z" id="icon_x5F_fg"/></svg>