<svg xmlns="http://www.w3.org/2000/svg" viewBox="0 0 16 16"><style>.st0{opacity:0}.st0,.st1{fill:#f6f6f6}.st2{fill:#424242}</style><g id="outline"><path class="st0" d="M0 0h16v16H0z"/><path class="st1" d="M8 14v-1c-1.186 0-2.363-.848-2.739-1.973L4.568 9h-.075A2.5 2.5 0 0 1 2.5 10C1.121 10 0 8.879 0 7.5S1.121 5 2.5 5c.464 0 .906.13 1.287.361l.476-1.395C4.637 2.848 5.814 2 7 2V1h5v4h4v5h-3v4H8z"/></g><path class="st2" d="M12 6v1H5.342l.816-2.394C6.264 4.289 6.665 4 7 4h1v1h3V2H8v1H7c-.763 0-1.549.566-1.791 1.29L4.284 7h-.376A1.496 1.496 0 0 0 1 7.5a1.496 1.496 0 1 0 2.908.5h1.376l.925 2.71C6.451 11.434 7.237 12 8 12h1v1h3v-3H9v1H8c-.335 0-.736-.289-.842-.606L6.342 8H12v1h3V6h-3z" id="icon_x5F_bg"/></svg>