<svg xmlns="http://www.w3.org/2000/svg" viewBox="0 0 16 16"><style>.st0{opacity:0}.st0,.st1{fill:#f6f6f6}.st2{fill:#424242}</style><g id="outline"><path class="st0" d="M0 0h16v16H0z"/><path class="st1" d="M10.288 3c.135-.307.212-.645.212-1 0-.821-.402-1.544-1.016-2H6.515A2.491 2.491 0 0 0 5.5 2c0 .355.077.693.212 1H4.586L3 4.586V11h2v5h2.847L8 15.083l.153.917H11v-5h2V4.586L11.414 3h-1.126z"/></g><g id="icon_x5F_bg"><circle class="st2" cx="8" cy="2" r="1.5"/><path class="st2" d="M11 4H9L8 5 7 4H5L4 5v5h1l1-4v9h1l1-6 1 6h1V6l1 4h1V5z"/></g></svg>