<svg xmlns="http://www.w3.org/2000/svg" viewBox="0 0 16 16"><style>.st0{opacity:0}.st0,.st1{fill:#f6f6f6}.st2{fill:#424242}.st3{fill:#f0eff1}</style><g id="outline"><path class="st0" d="M0 0h16v16H0z"/><path class="st1" d="M8 14c-4.411 0-8-2.691-8-6s3.589-6 8-6 8 2.691 8 6-3.589 6-8 6z"/></g><path class="st2" d="M8 3C4.134 3 1 5.239 1 8c0 2.762 3.134 5 7 5s7-2.238 7-5c0-2.761-3.134-5-7-5zm0 9c-3.313 0-6-1.791-6-4s2.687-4 6-4c3.314 0 6 1.791 6 4s-2.686 4-6 4zm3-5H5V6h6v1zm0 3H5V9h6v1z" id="icon_x5F_bg"/><path class="st3" d="M8 4C4.687 4 2 5.791 2 8s2.687 4 6 4c3.314 0 6-1.791 6-4s-2.686-4-6-4zm3 6H5V9h6v1zm0-3H5V6h6v1z" id="icon_x5F_fg"/></svg>