<svg xmlns="http://www.w3.org/2000/svg" viewBox="0 0 16 16"><style>.icon-canvas-transparent{opacity:0;fill:#f6f6f6}.icon-vs-out{fill:#f6f6f6}.icon-vs-bg{fill:#424242}.icon-vs-fg{fill:#f0eff1}.icon-vs-action-blue{fill:#00539c}</style><path class="icon-canvas-transparent" d="M16 0v16H0V0h16z" id="canvas"/><path class="icon-vs-out" d="M16 0v8h-3.195l-3.487 2.989c-.035.049-.062.104-.099.152a5.64 5.64 0 0 1 2.052 3.749l.121 1.11H0l.122-1.109a5.644 5.644 0 0 1 2.052-3.749 4.425 4.425 0 0 1-.918-2.7C1.255 6.231 2.883 4.408 5 4.07V0h11z" id="outline"/><path class="icon-vs-fg" d="M7 2v2.218A4.442 4.442 0 0 1 9.4 6H11v.913L12.065 6H14V2H7z" id="iconFg"/><path class="icon-vs-bg" d="M15 1v6h-2.565L10.09 9.01a4.47 4.47 0 0 0 .047-.568c0-.361-.055-.708-.137-1.045V7h-.123A4.444 4.444 0 0 0 9.4 6H11v.913L12.065 6H14V2H7v2.218c-.32-.1-.653-.163-1-.187V1h9z" id="iconBg"/><g id="colorImportance"><path class="icon-vs-action-blue" d="M7.6 11.304A3.439 3.439 0 0 0 5.697 5a3.446 3.446 0 0 0-3.442 3.441c0 1.194.612 2.245 1.538 2.863A4.62 4.62 0 0 0 1.116 15h1.013c.246-1.757 1.744-3.118 3.568-3.118 1.823 0 3.32 1.361 3.567 3.118h1.013A4.621 4.621 0 0 0 7.6 11.304zm-1.903-.422a2.443 2.443 0 0 1-2.441-2.441A2.442 2.442 0 0 1 5.697 6a2.443 2.443 0 0 1 2.44 2.441 2.444 2.444 0 0 1-2.44 2.441z"/></g></svg>