<svg xmlns="http://www.w3.org/2000/svg" viewBox="0 0 16 16"><style>.st0{opacity:0}.st0,.st1{fill:#f6f6f6}.st2{fill:#424242}.st3{fill:#f0eff1}.st4{fill:#e51400}.st5{fill:#fff}</style><g id="outline"><path class="st0" d="M0 0h16v16H0z"/><path class="st1" d="M12.061 1H6c-.97 0-2 .701-2 2H0v8h4v2c0 1.299 1.03 2 2 2h2.703c.771.616 1.734 1 2.797 1a4.463 4.463 0 0 0 2.838-1.034C15.416 14.803 16 13.881 16 13V4.556L12.061 1z"/></g><g id="icon_x5F_bg"><path class="st2" d="M3.518 5.648c-.395 0-.592.461-.592 1.383 0 .869.193 1.305.58 1.305.377 0 .565-.449.565-1.344 0-.896-.184-1.344-.553-1.344z"/><path class="st2" d="M1 4v6h7V4H1zm3.605 4.465c-.261.348-.638.521-1.128.521C2.492 8.986 2 8.34 2 7.053c0-.668.133-1.177.399-1.527.267-.35.653-.526 1.159-.526C4.52 5 5 5.654 5 6.965c0 .652-.131 1.152-.395 1.5zM7 9h-.847V5.999a.89.89 0 0 1-.165.116c-.064.037-.131.07-.203.102-.038.015-.079.026-.119.039v-.772c.097-.04.2-.069.291-.117.195-.1.372-.211.529-.332H7V9z"/><path class="st2" d="M9 3h2v3h3v1.76a4.5 4.5 0 0 1 1 .943V5l-3.359-3H5.964S5 2 5 3h4zM7.275 13H6v-2H5v2c0 1 .965 1 .965 1H7.76a4.512 4.512 0 0 1-.485-1z"/></g><g id="icon_x5F_fg"><path class="st3" d="M3.558 5c-.506 0-.892.176-1.159.525-.266.351-.399.86-.399 1.528 0 1.287.492 1.933 1.477 1.933.49 0 .867-.174 1.129-.521.263-.348.394-.848.394-1.5C5 5.654 4.52 5 3.558 5zm-.052 3.336c-.387 0-.58-.436-.58-1.305 0-.922.197-1.383.592-1.383.369 0 .554.447.554 1.344-.001.895-.189 1.344-.566 1.344zM5.957 5.367c-.091.048-.194.077-.291.117v.771c.04-.013.081-.023.119-.039.072-.031.139-.064.203-.102a.843.843 0 0 0 .165-.115V9H7V5.035h-.514a3.353 3.353 0 0 1-.529.332z"/><g><path class="st3" d="M11.5 7c.926 0 1.785.281 2.5.76V6h-3V3H9v4.76A4.476 4.476 0 0 1 11.5 7zM7 11.5c0-.171.032-.334.05-.5H6v2h1.275A4.473 4.473 0 0 1 7 11.5z"/></g></g><path class="st4" d="M11.5 8a3.5 3.5 0 1 0 0 7 3.5 3.5 0 0 0 0-7zm1.854 4.646l-.707.707-1.147-1.146-1.146 1.147-.707-.707 1.147-1.146-1.147-1.146.707-.707 1.146 1.147 1.146-1.147.707.707-1.146 1.145 1.147 1.146z" id="not_x5F_bg"/><path class="st5" d="M13.354 10.354l-.708-.708-1.146 1.147-1.146-1.147-.708.708 1.147 1.146-1.147 1.146.708.708 1.146-1.147 1.146 1.147.708-.708-1.147-1.146z" id="not_x5F_fg"/></svg>