<svg xmlns="http://www.w3.org/2000/svg" viewBox="0 0 16 16"><style>.st0{fill:#f6f6f6}.st1{fill:#424242}.st2{fill:#fc0}</style><g id="outline"><path class="st0" d="M.5 15.5v-8h4.332l-1.003-.876C2.984 5.885 2.5 4.929 2.5 4 2.5 2.07 4.07.5 6 .5S9.5 2.07 9.5 4c0 .929-.484 1.885-1.329 2.624L7.168 7.5h5.023l3.25 6.5-.75 1.5H.5z"/><path class="st0" d="M6 1c1.654 0 3 1.346 3 3 0 .785-.422 1.604-1.158 2.247L6 7.857l-1.842-1.61C3.422 5.604 3 4.785 3 4c0-1.654 1.346-3 3-3m5.882 7l3 6-.5 1H1V8h10.882M6 0a4 4 0 0 0-4 4c0 1.201.661 2.267 1.5 3H0v9h15l1-2-3.5-7h-4c.839-.733 1.5-1.799 1.5-3a4 4 0 0 0-4-4z"/></g><g id="icon_x5F_bg"><circle class="st1" cx="6" cy="4" r="3"/><path class="st1" d="M10 8H8l-2 3-2-3H1v7h6.5L7 14z"/></g><path class="st2" d="M11.891 8.016h-.781l-3.016 6 .515.984h5.766l.484-1-2.968-5.984zM12 14h-1v-1h1v1zm0-2h-1v-2h1v2z" id="not_x5F_bg"/><path d="M12 12h-1v-2h1v2zm0 1h-1v1h1v-1z" id="not_x5F_fg"/></svg>