<svg xmlns="http://www.w3.org/2000/svg" viewBox="0 0 16 16"><style>.icon-canvas-transparent{opacity:0;fill:#f6f6f6}.icon-vs-out{fill:#f6f6f6}.icon-vs-bg{fill:#424242}.icon-vs-blue{fill:#1ba1e2}.icon-white{fill:#fff}</style><path class="icon-canvas-transparent" d="M16 16H0V0h16v16z" id="canvas"/><path class="icon-vs-out" d="M14 15.238V16H2V7h3.5C4.661 6.267 4 5.202 4 4a4 4 0 0 1 8 0c0 1.202-.661 2.267-1.5 3H14v.762c1.205.808 2 2.182 2 3.738s-.795 2.93-2 3.738z" id="outline"/><path class="icon-vs-bg" d="M5 4a3 3 0 1 1 6 0 3 3 0 0 1-6 0zm2 7.5c0-.55.113-1.071.294-1.558L6 8H3v7h5.706C7.675 14.175 7 12.921 7 11.5z" id="iconBg"/><path class="icon-vs-blue" d="M11.5 8a3.5 3.5 0 1 0 0 7 3.5 3.5 0 0 0 0-7zm.5 6h-1v-3h1v3zm0-4h-1V9h1v1z" id="notificationBg"/><path class="icon-white" d="M12 14h-1v-3h1v3zm0-5h-1v1h1V9z" id="notificationFg"/></svg>