<svg xmlns="http://www.w3.org/2000/svg" viewBox="0 0 16 16"><style>.st0{opacity:0}.st0,.st1{fill:#f6f6f6}.st2{fill:#424242}.st3{fill:#f0eff1}</style><g id="outline"><path class="st0" d="M0 0h16v16H0z"/><path class="st1" d="M14 3V2h-.99c-.412-1.164-1.686-2-2.99-2-1.304 0-2.597.836-3.01 2H6v1H4v.049C2 3.29.995 4.735.995 6.5.995 7.48 1.35 8.365 2 9H0v7h16V3h-2z"/></g><g id="icon_x5F_bg"><path class="st2" d="M13 4V3h-.99a2 2 0 0 0-4 0H7v1h-.055c.292.286.527.626.705 1H14v9H9v1h6V4h-2zm-2.981 0c-.55 0-1.009-.447-1.009-1a1 1 0 0 1 2 0c0 .553-.438 1-.991 1z"/><circle class="st2" cx="4.5" cy="6.5" r="2.5"/><path class="st2" d="M6 10l-1.5 2L3 10H1v5h7v-5z"/></g><g id="icon_x5F_fg"><circle class="st3" cx="10.01" cy="3" r="1"/><path class="st3" d="M7.65 5c.218.456.35.961.35 1.5 0 .98-.35 1.865-1 2.5h2v5h5V5H7.65z"/></g></svg>