<?xml version="1.0" encoding="iso-8859-1"?>
<!-- Generator: Adobe Illustrator 21.0.0, SVG Export Plug-In . SVG Version: 6.00 Build 0)  -->
<svg version="1.1" xmlns="http://www.w3.org/2000/svg" xmlns:xlink="http://www.w3.org/1999/xlink" x="0px" y="0px"
	 viewBox="0 0 16 16" style="enable-background:new 0 0 16 16;" xml:space="preserve">
<style type="text/css">
	.icon_x002D_canvas_x002D_transparent{opacity:0;fill:#F6F6F6;}
	.icon_x002D_vs_x002D_bg{fill:#424242;}
	.icon_x002D_vs_x002D_fg{fill:#F0EFF1;}
	.icon_x002D_vs_x002D_blue{fill:#1BA1E2;}
	.icon_x002D_vs_x002D_red{fill:#E51400;}
	.icon_x002D_white{fill:#FFFFFF;}
	.st0{fill:#F6F6F6;}
</style>
<g id="canvas">
	<path class="icon_x002D_canvas_x002D_transparent" d="M16,16H0V0h16V16z"/>
</g>
<g id="outline">
	<path class="st0" d="M16,11.5c0,2.485-2.015,4.5-4.5,4.5c-2.314,0-4.198-1.753-4.45-4H7v1.5C7,14.925,5.495,16,3.5,16
		S0,14.925,0,13.5v-3C0,9.075,1.505,8,3.5,8c0.666,0,1.268,0.128,1.787,0.341c0.305-0.443,0.652-0.858,1.072-1.199
		c-0.588-0.765-0.918-1.709-0.918-2.7C5.441,1.992,7.434,0,9.883,0c2.448,0,4.44,1.992,4.44,4.441c0,0.991-0.33,1.936-0.918,2.7
		c0.278,0.225,0.531,0.478,0.76,0.75C15.273,8.711,16,10.016,16,11.5z"/>
</g>
<g id="iconBg">
	<path class="icon_x002D_vs_x002D_bg" d="M8.512,8.158C9.308,7.446,10.348,7,11.5,7c0.208,0,0.407,0.034,0.607,0.061
		c0.743-0.631,1.216-1.57,1.216-2.62C13.323,2.544,11.78,1,9.883,1S6.441,2.544,6.441,4.441c0,1.194,0.612,2.245,1.538,2.863
		c-0.744,0.339-1.378,0.87-1.847,1.528c0.292,0.237,0.517,0.514,0.664,0.825C7.192,8.99,7.792,8.46,8.512,8.158z M7.441,4.441
		C7.441,3.095,8.536,2,9.883,2c1.346,0,2.44,1.095,2.44,2.441c0,1.346-1.095,2.441-2.44,2.441C8.536,6.882,7.441,5.787,7.441,4.441z
		"/>
</g>
<g id="colorImportance">
	<path class="icon_x002D_vs_x002D_blue" d="M3.5,9C2.119,9,1,9.672,1,10.5v3C1,14.328,2.119,15,3.5,15S6,14.328,6,13.5v-3
		C6,9.672,4.881,9,3.5,9z M3.5,11.426c-1.084,0-1.925-0.498-1.925-0.926c0-0.428,0.841-0.924,1.925-0.924s1.925,0.496,1.925,0.924
		C5.425,10.928,4.584,11.426,3.5,11.426z"/>
</g>
<g id="iconFg">
	<path class="icon_x002D_vs_x002D_fg" d="M5.425,10.5c0,0.428-0.841,0.926-1.925,0.926S1.575,10.928,1.575,10.5
		c0-0.428,0.841-0.924,1.925-0.924S5.425,10.072,5.425,10.5z M9.883,6.882c1.346,0,2.44-1.095,2.44-2.441
		C12.323,3.095,11.229,2,9.883,2C8.536,2,7.441,3.095,7.441,4.441C7.441,5.787,8.536,6.882,9.883,6.882z M7,11h0.05
		c0.126-1.128,0.659-2.124,1.462-2.842C7.792,8.46,7.192,8.99,6.796,9.657C6.92,9.92,7,10.2,7,10.5V11z"/>
</g>
<g id="notificationBg">
	<path class="icon_x002D_vs_x002D_red" d="M11.5,8C9.567,8,8,9.567,8,11.5c0,1.933,1.567,3.5,3.5,3.5c1.933,0,3.5-1.567,3.5-3.5
		C15,9.567,13.433,8,11.5,8z M13.354,12.646l-0.707,0.707L11.5,12.207l-1.146,1.147l-0.707-0.707l1.147-1.146l-1.147-1.146
		l0.707-0.707l1.146,1.147l1.146-1.147l0.707,0.707L12.207,11.5L13.354,12.646z"/>
</g>
<g id="notificationFg">
	<path class="icon_x002D_white" d="M12.207,11.5l1.147,1.146l-0.707,0.707L11.5,12.207l-1.146,1.147l-0.707-0.707l1.147-1.146
		l-1.147-1.146l0.707-0.707l1.146,1.147l1.146-1.147l0.707,0.707L12.207,11.5z"/>
</g>
</svg>
