<?xml version="1.0" encoding="iso-8859-1"?>
<!-- Generator: Adobe Illustrator 21.0.0, SVG Export Plug-In . SVG Version: 6.00 Build 0)  -->
<svg version="1.1" xmlns="http://www.w3.org/2000/svg" xmlns:xlink="http://www.w3.org/1999/xlink" x="0px" y="0px"
	 viewBox="0 0 16 16" style="enable-background:new 0 0 16 16;" xml:space="preserve">
<style type="text/css">
	.icon_x002D_canvas_x002D_transparent{opacity:0;fill:#F6F6F6;}
	.icon_x002D_vs_x002D_out{fill:#F6F6F6;}
	.icon_x002D_vs_x002D_bg{fill:#424242;}
	.icon_x002D_vs_x002D_fg{fill:#F0EFF1;}
	.icon_x002D_vs_x002D_blue{fill:#1BA1E2;}
</style>
<g id="canvas">
	<path class="icon_x002D_canvas_x002D_transparent" d="M16,16H0V0h16V16z"/>
</g>
<g id="outline">
	<path class="icon_x002D_vs_x002D_out" d="M7,12v1.5C7,14.925,5.495,16,3.5,16S0,14.925,0,13.5v-3C0,9.075,1.505,8,3.5,8
		c0.666,0,1.268,0.128,1.787,0.341c0.305-0.443,0.652-0.858,1.072-1.199c-0.588-0.765-0.918-1.709-0.918-2.7
		C5.441,1.992,7.434,0,9.883,0c2.448,0,4.44,1.992,4.44,4.441c0,0.991-0.33,1.936-0.918,2.7c1.135,0.922,1.89,2.269,2.052,3.749
		L15.578,12H7z"/>
</g>
<g id="iconBg">
	<path class="icon_x002D_vs_x002D_bg" d="M11.786,7.304c0.925-0.617,1.537-1.669,1.537-2.863C13.323,2.544,11.78,1,9.883,1
		S6.441,2.544,6.441,4.441c0,1.194,0.612,2.245,1.538,2.863c-0.744,0.339-1.378,0.87-1.847,1.528
		c0.292,0.237,0.517,0.514,0.664,0.825c0.628-1.058,1.768-1.775,3.087-1.775c1.823,0,3.32,1.361,3.567,3.118h1.013
		C14.282,9.352,13.237,7.966,11.786,7.304z M9.883,6.882c-1.347,0-2.441-1.095-2.441-2.441C7.441,3.095,8.536,2,9.883,2
		c1.346,0,2.44,1.095,2.44,2.441C12.323,5.787,11.229,6.882,9.883,6.882z"/>
</g>
<g id="colorImportance">
	<path class="icon_x002D_vs_x002D_blue" d="M3.5,9C2.119,9,1,9.672,1,10.5v3C1,14.328,2.119,15,3.5,15S6,14.328,6,13.5v-3
		C6,9.672,4.881,9,3.5,9z M3.5,11.426c-1.084,0-1.925-0.498-1.925-0.926c0-0.428,0.841-0.924,1.925-0.924s1.925,0.496,1.925,0.924
		C5.425,10.928,4.584,11.426,3.5,11.426z"/>
</g>
<g id="iconFg">
	<path class="icon_x002D_vs_x002D_fg" d="M5.425,10.5c0,0.428-0.841,0.926-1.925,0.926S1.575,10.928,1.575,10.5
		c0-0.428,0.841-0.924,1.925-0.924S5.425,10.072,5.425,10.5z M13.449,11c-0.246-1.757-1.744-3.118-3.567-3.118
		c-1.319,0-2.459,0.717-3.087,1.775C6.92,9.92,7,10.2,7,10.5V11H13.449z M9.883,6.882c1.346,0,2.44-1.095,2.44-2.441
		C12.323,3.095,11.229,2,9.883,2C8.536,2,7.441,3.095,7.441,4.441C7.441,5.787,8.536,6.882,9.883,6.882z"/>
</g>
</svg>
