<svg xmlns="http://www.w3.org/2000/svg" viewBox="0 0 16 16"><style>.st0{fill:#f6f6f6}.st1{fill:#424242}.st2{fill:#e51400}.st3{fill:#fff}</style><path class="st0" d="M16 11.5c0-2.314-1.753-4.198-4-4.45V7H8.5c.839-.733 1.5-1.799 1.5-3a4 4 0 0 0-8 0c0 1.201.661 2.267 1.5 3H0v9h12v-.051c2.247-.251 4-2.135 4-4.449z" id="outline"/><g id="icon_x5F_bg"><path class="st1" d="M8.703 8H8l-2 3-2-3H1v7h7.703C7.673 14.176 7 12.923 7 11.5S7.673 8.825 8.703 8z"/><circle class="st1" cx="6" cy="4" r="3"/></g><path class="st2" d="M11.5 8a3.5 3.5 0 1 0 0 7 3.5 3.5 0 0 0 0-7zm1.854 4.646l-.707.707-1.147-1.146-1.146 1.147-.707-.707 1.147-1.146-1.147-1.146.707-.707 1.146 1.147 1.146-1.147.707.707-1.146 1.145 1.147 1.146z" id="not_x5F_bg"/><path class="st3" d="M13.354 10.354l-.708-.708-1.146 1.147-1.146-1.147-.708.708 1.147 1.146-1.147 1.146.708.708 1.146-1.147 1.146 1.147.708-.708-1.147-1.146z" id="not_x5F_fg"/></svg>