<svg xmlns="http://www.w3.org/2000/svg" viewBox="0 0 16 16"><style>.st0{fill:#f6f6f6}.st1{fill:none}.st2{fill:#424242}.st3{fill:#f0eff1}</style><path class="st0" d="M16 0H1v9H0v7h9v-2h7z" id="outline"/><g id="icon_x5F_bg"><path class="st1" d="M11 10h3v2h-3zM11 4h3v2h-3zM11 7h3v2h-3z"/><circle class="st2" cx="4.5" cy="6.5" r="2.5"/><path class="st2" d="M4.5 12L3 10H1v5h7v-5H6z"/><path class="st2" d="M2 1v3.055C2.635 3.405 3.519 3 4.5 3s1.865.405 2.5 1.055V4h3v2H7.95c.023.165.05.329.05.5s-.024.335-.045.5H10v2H9v1h1v2H9v1h6V1H2zm12 11h-3v-2h3v2zm0-3h-3V7h3v2zm0-3h-3V4h3v2z"/></g><g id="icon_x5F_fg"><path class="st3" d="M7 4.055c.506.518.841 1.194.95 1.945H10V4H7v.055zM9 10h1v2H9zM7 9h3V7H7.955c-.1.777-.418 1.476-.955 2zM11 4h3v2h-3zM11 7h3v2h-3zM11 10h3v2h-3z"/></g></svg>