<svg xmlns="http://www.w3.org/2000/svg" viewBox="0 0 16 16"><style>.icon-canvas-transparent{opacity:0;fill:#f6f6f6}.icon-vs-out{fill:#f6f6f6}.icon-vs-bg{fill:#424242}.icon-vs-fg{fill:#f0eff1}</style><path class="icon-canvas-transparent" d="M16 16H0V0h16v16z" id="canvas"/><path class="icon-vs-out" d="M16 16H0V0h16v16z" id="outline"/><path class="icon-vs-bg" d="M1 1v14h14V1H1zm7 1.8c1.323 0 2.4 1.075 2.4 2.4A2.4 2.4 0 1 1 8 2.8zM12 14H4V8.4h2.4L8 10.8l1.6-2.4H12V14z" id="iconBg"/><g id="iconFg"><path class="icon-vs-fg" d="M5.6 5.2a2.4 2.4 0 1 1 4.8 0 2.4 2.4 0 0 1-4.8 0M12 8.4V14H4V8.4h2.4L8 10.8l1.6-2.4H12z"/></g></svg>