<svg xmlns="http://www.w3.org/2000/svg" viewBox="0 0 16 16"><style>.st0{fill:#f6f6f6}.st1{fill:#424242}</style><path class="st0" d="M16 4V0H2v4h.056C1.405 4.635 1 5.52 1 6.5S1.405 8.365 2.056 9H0v7h9v-3h5v-3h2V6h-2V4h2zM7 9h-.056c.021-.02.035-.045.056-.066V9zm0-4.944c-.021-.021-.046-.036-.066-.056H7v.056z" id="outline"/><g id="icon_x5F_bg"><circle class="st1" cx="4.5" cy="6.5" r="2.5"/><path class="st1" d="M4.5 12L3 10H1v5h7v-5H6zM9 10h4v2H9zM3 1h12v2H3zM7 8.934V9h8V7H7.948A3.467 3.467 0 0 1 7 8.934zM13 6V4H7v.056c.506.517.841 1.193.949 1.944H13z"/></g></svg>