<svg xmlns="http://www.w3.org/2000/svg" viewBox="0 0 16 16"><style>.st0{opacity:0}.st0,.st1{fill:#f6f6f6}.st2{fill:#424242}</style><g id="outline"><path class="st0" d="M0 0h16v16H0z"/><path class="st1" d="M15 4h-2V1.382l-2 1V0H8v2.382l-2-1V4H4v2.05A2.5 2.5 0 0 0 2.5 10H1v5h7v-2h7V4z"/></g><g id="icon_x5F_bg"><path class="st2" d="M9 7h1v1H9zM10 9h1v1h-1zM12 4.5V3l-2 1V1H9v3L7 3v1.5L9.5 6zM6 5H5v1.05c.372.076.708.24 1 .461V5zM11 7h1v1h-1z"/><path class="st2" d="M13 5v6H8v1h6V5zM7 7h1v1H7z"/><path class="st2" d="M8 9h1v1H8zM4 10h1a1 1 0 0 0 1-1V8a1 1 0 0 0-1-1H4a1 1 0 0 0-1 1v1a1 1 0 0 0 1 1zM4.5 13L3 11H2v3h5v-3H6z"/></g></svg>