<?xml version="1.0" encoding="iso-8859-1"?><svg version="1.1" xmlns="http://www.w3.org/2000/svg" xmlns:xlink="http://www.w3.org/1999/xlink" x="0px" y="0px" viewBox="0 0 16 16" style="enable-background:new 0 0 16 16;" xml:space="preserve"><style type="text/css">.icon-canvas-transparent{opacity:0;fill:#F6F6F6;}.icon-vs-out{fill:#F6F6F6;}.icon-vs-bg{fill:#424242;}.icon-vs-fg{fill:#F0EFF1;}</style><g id="canvas"><path class="icon-canvas-transparent" d="M16,0v16H0V0H16z"/></g><g id="outline"><path class="icon-vs-out" d="M16,0v8h-3.195l-3.487,2.989c-0.035,0.05-0.062,0.104-0.099,0.152	c1.135,0.922,1.89,2.269,2.052,3.749L11.392,16H0l0.122-1.109c0.163-1.48,0.917-2.827,2.052-3.749	c-0.588-0.765-0.918-1.709-0.918-2.7C1.255,6.231,2.883,4.408,5,4.07V0H16z"/></g><g id="iconFg"><path class="icon-vs-fg" d="M7,2v2.218C7.991,4.525,8.839,5.152,9.4,6H11v0.913L12.065,6H14V2H7z"/></g><g id="iconBg"><path class="icon-vs-bg" d="M15,1v6h-2.565L10.09,9.01c0.024-0.188,0.047-0.376,0.047-0.568	c0-0.361-0.055-0.708-0.137-1.045V7H9.877C9.754,6.646,9.603,6.307,9.4,6H11v0.913L12.065,6H14V2H7v2.218	C6.68,4.118,6.347,4.055,6,4.031V1H15z M10.277,15H9.263c-0.246-1.757-1.744-3.118-3.567-3.118c-1.824,0-3.321,1.361-3.568,3.118	H1.116c0.18-1.648,1.226-3.035,2.677-3.696c-0.926-0.617-1.538-1.669-1.538-2.863C2.255,6.544,3.799,5,5.697,5	s3.44,1.544,3.44,3.441c0,1.194-0.612,2.246-1.537,2.863C9.051,11.966,10.096,13.352,10.277,15z M8.137,8.441	C8.137,7.095,7.042,6,5.697,6C4.35,6,3.255,7.095,3.255,8.441c0,1.346,1.095,2.441,2.441,2.441	C7.042,10.882,8.137,9.787,8.137,8.441z"/></g></svg>
