<svg xmlns="http://www.w3.org/2000/svg" viewBox="0 0 16 16"><style>.st0{opacity:0;fill:#efeef0}.st1{fill:#f6f6f6}.st2{fill:#424242}.st3{fill:#f0eff1}</style><g id="outline"><path class="st0" d="M0 0h16v16H0z"/><path class="st1" d="M12.061 1H6c-.97 0-2 .701-2 2H0v8h4v2c0 1.299 1.03 2 2 2h8c1.299 0 2-1.03 2-2V4.556L12.061 1z"/></g><g id="icon_x5F_bg"><path class="st2" d="M11.641 2H5.964S5 2 5 3h6v3h3v7H6v-2H5v2c0 1 .965 1 .965 1h8c1 0 1.035-1 1.035-1V5l-3.359-3zM3.518 5.648c-.395 0-.592.461-.592 1.383 0 .869.193 1.305.58 1.305.377 0 .565-.449.565-1.344 0-.896-.184-1.344-.553-1.344z"/><path class="st2" d="M1 4v6h7V4H1zm3.605 4.465c-.261.348-.638.521-1.128.521C2.492 8.986 2 8.34 2 7.053c0-.668.133-1.177.399-1.527.267-.35.653-.526 1.159-.526C4.52 5 5 5.654 5 6.965c0 .652-.131 1.152-.395 1.5zM7 9h-.847V5.999a.89.89 0 0 1-.165.116c-.064.037-.131.07-.203.102-.038.015-.079.026-.119.039v-.772c.097-.04.2-.069.291-.117.195-.1.372-.211.529-.332H7V9z"/></g><g id="icon_x5F_fg"><path class="st3" d="M11 6V3H9v8H6v2h8V6zM3.558 5c-.506 0-.892.176-1.159.525-.266.351-.399.86-.399 1.528 0 1.287.492 1.933 1.477 1.933.49 0 .867-.174 1.129-.521.263-.348.394-.848.394-1.5C5 5.654 4.52 5 3.558 5zm-.052 3.336c-.387 0-.58-.436-.58-1.305 0-.922.197-1.383.592-1.383.369 0 .554.447.554 1.344-.001.895-.189 1.344-.566 1.344z"/><path class="st3" d="M5.957 5.367c-.091.048-.194.077-.291.117v.771c.04-.013.081-.023.119-.039.072-.031.139-.064.203-.102a.843.843 0 0 0 .165-.115V9H7V5.035h-.514a3.353 3.353 0 0 1-.529.332z"/></g></svg>