<?xml version="1.0" encoding="iso-8859-1"?>
<!-- Generator: Adobe Illustrator 21.0.0, SVG Export Plug-In . SVG Version: 6.00 Build 0)  -->
<svg version="1.1" xmlns="http://www.w3.org/2000/svg" xmlns:xlink="http://www.w3.org/1999/xlink" x="0px" y="0px"
	 viewBox="0 0 16 16" style="enable-background:new 0 0 16 16;" xml:space="preserve">
<style type="text/css">
	.icon_x002D_canvas_x002D_transparent{opacity:0;fill:#F6F6F6;}
	.icon_x002D_vs_x002D_out{fill:#F6F6F6;}
	.icon_x002D_vs_x002D_bg{fill:#424242;}
	.icon_x002D_vs_x002D_fg{fill:#F0EFF1;}
	.icon_x002D_vs_x002D_blue{fill:#1BA1E2;}
	.icon_x002D_vs_x002D_yellow{fill:#FFCC00;}
</style>
<g id="canvas">
	<path class="icon_x002D_canvas_x002D_transparent" d="M16,16H0V0h16V16z"/>
</g>
<g id="outline">
	<path class="icon_x002D_vs_x002D_out" d="M15.973,13.995L15.002,16H8.004L6.97,14.025L7.988,12H7v1.5C7,14.925,5.495,16,3.5,16
		S0,14.925,0,13.5v-3C0,9.075,1.505,8,3.5,8c0.666,0,1.268,0.128,1.787,0.341c0.305-0.443,0.652-0.858,1.072-1.199
		c-0.588-0.765-0.918-1.709-0.918-2.7C5.441,1.992,7.434,0,9.883,0c2.448,0,4.44,1.992,4.44,4.441c0,0.991-0.33,1.936-0.918,2.7
		c1.135,0.922,1.89,2.269,2.052,3.749L15.578,12h-0.595L15.973,13.995z"/>
</g>
<g id="iconBg">
	<path class="icon_x002D_vs_x002D_bg" d="M14.449,10.924l-1.338-2.698C13.829,8.934,14.316,9.872,14.449,10.924z M6.796,9.657
		C6.649,9.347,6.424,9.069,6.132,8.832c0.469-0.658,1.103-1.189,1.847-1.528C7.053,6.687,6.441,5.635,6.441,4.441
		C6.441,2.544,7.985,1,9.883,1s3.44,1.544,3.44,3.441c0,1.025-0.453,1.944-1.167,2.574h-1.663L10.05,7.898
		C9.993,7.895,9.94,7.882,9.883,7.882C8.564,7.882,7.424,8.599,6.796,9.657z M9.883,6.882c1.346,0,2.44-1.095,2.44-2.441
		C12.323,3.095,11.229,2,9.883,2C8.536,2,7.441,3.095,7.441,4.441C7.441,5.787,8.536,6.882,9.883,6.882z"/>
</g>
<g id="colorImportance">
	<path class="icon_x002D_vs_x002D_blue" d="M3.5,9C2.119,9,1,9.672,1,10.5v3C1,14.328,2.119,15,3.5,15S6,14.328,6,13.5v-3
		C6,9.672,4.881,9,3.5,9z M3.5,11.426c-1.084,0-1.925-0.498-1.925-0.926c0-0.428,0.841-0.924,1.925-0.924s1.925,0.496,1.925,0.924
		C5.425,10.928,4.584,11.426,3.5,11.426z"/>
</g>
<g id="iconFg">
	<path class="icon_x002D_vs_x002D_fg" d="M5.425,10.5c0,0.428-0.841,0.926-1.925,0.926S1.575,10.928,1.575,10.5
		c0-0.428,0.841-0.924,1.925-0.924S5.425,10.072,5.425,10.5z M9.883,6.882c1.346,0,2.44-1.095,2.44-2.441
		C12.323,3.095,11.229,2,9.883,2C8.536,2,7.441,3.095,7.441,4.441C7.441,5.787,8.536,6.882,9.883,6.882z M7,11h1.49l1.559-3.102
		C9.993,7.895,9.94,7.882,9.883,7.882c-1.319,0-2.459,0.717-3.087,1.775C6.92,9.92,7,10.2,7,10.5V11z"/>
</g>
<g id="notificationBg">
	<path class="icon_x002D_vs_x002D_yellow" d="M11.891,8.016h-0.781l-3.016,6L8.609,15h5.766l0.484-1L11.891,8.016z M12,14h-1v-1h1
		V14z M12,12h-1v-2h1V12z"/>
</g>
<g id="notificationFg">
	<path d="M12,10v2h-1v-2H12z M11,14h1v-1h-1V14z"/>
</g>
</svg>
