<svg xmlns="http://www.w3.org/2000/svg" viewBox="0 0 16 16"><style>.st0{fill:#f6f6f6}.st1{fill:#424242}</style><path class="st0" d="M16 13H9v3H0V9h2c-.65-.634-1-1.518-1-2.5 0-1.394.82-2.588 2-3.15V0h13v13z" id="outline"/><g id="icon_x5F_bg"><path class="st1" d="M8 3h1v1H8zM10 11h1v1h-1zM8 5h1v1H8zM8 1h1v1H8zM8 7h1v1H8zM4 1h1v1H4zM10 5h1v1h-1zM6 1h1v1H6z"/><circle class="st1" cx="4.5" cy="6.5" r="2.5"/><path class="st1" d="M4.5 12L3 10H1v5h7v-5H6zM14 11h1v1h-1zM14 3h1v1h-1zM14 5h1v1h-1zM14 7h1v1h-1zM14 1h1v1h-1zM12 1h1v1h-1zM12 11h1v1h-1zM12 5h1v1h-1zM14 9h1v1h-1zM10 1h1v1h-1z"/></g></svg>