<svg xmlns="http://www.w3.org/2000/svg" viewBox="0 0 16 16"><style>.st0{opacity:0;fill:#efeef0}.st1{fill:#f6f6f6}.st2{fill:#424242}.st3{fill:#f0eff1}.st4{fill:#fc0}</style><g id="outline"><path class="st0" d="M0 0h16v16H0z"/><path class="st1" d="M16 4.555L12.061 1H6c-.97 0-2 .701-2 2H0v8h4v2c0 1.299 1.03 2 2 2h1.48l.524 1h6.998l.971-2.005-.119-.239c.095-.243.146-.501.146-.756V4.555z"/></g><g id="icon_x5F_bg"><path class="st2" d="M3.518 5.683c-.395 0-.592.461-.592 1.383 0 .869.193 1.305.58 1.305.377 0 .565-.449.565-1.344 0-.896-.184-1.344-.553-1.344zM9 3h2v3h3v4.018l1 2.017V5l-3.359-3H5.964S5 2 5 3h4zM7.485 13H6v-2H5v2c0 1 .965 1 .965 1h1.018l.502-1z"/><path class="st2" d="M8 4.035H1V10h7V4.035zM4.605 8.5c-.261.348-.638.521-1.128.521C2.492 9.021 2 8.375 2 7.088c0-.668.133-1.177.399-1.528.267-.35.652-.525 1.158-.525C4.52 5.035 5 5.689 5 7c0 .652-.131 1.152-.395 1.5zm1.548.535V6.034a.94.94 0 0 1-.165.116c-.064.037-.131.07-.203.102-.038.016-.079.025-.119.039v-.772c.097-.04.2-.069.291-.117.195-.1.372-.211.529-.332H7v3.965h-.847z"/></g><g id="icon_x5F_fg"><path class="st3" d="M3.558 5.035c-.506 0-.892.176-1.158.525-.267.351-.4.86-.4 1.528 0 1.287.492 1.934 1.477 1.934.49 0 .867-.174 1.129-.521C4.869 8.152 5 7.652 5 7c0-1.311-.48-1.965-1.442-1.965zm-.052 3.336c-.387 0-.58-.436-.58-1.305 0-.922.197-1.383.592-1.383.369 0 .554.448.554 1.344-.001.895-.189 1.344-.566 1.344zM5.957 5.402c-.091.048-.194.077-.291.117v.772c.04-.014.081-.023.119-.039.072-.031.139-.064.203-.102a.927.927 0 0 0 .165-.117v3.001H7V5.07h-.514a3.428 3.428 0 0 1-.529.332z"/><g><path class="st3" d="M10.493 7h2.018L14 10.018V6h-3V3H9v6.986zM8.49 11H6v2h1.485z"/></g></g><path class="st4" d="M11.891 8.016h-.781l-3.016 6 .515.984h5.766l.484-1-2.968-5.984zM12 14h-1v-1h1v1zm0-2h-1v-2h1v2z" id="not_x5F_bg"/><path d="M12 12h-1v-2h1v2zm0 1h-1v1h1v-1z" id="not_x5F_fg"/></svg>