<svg xmlns="http://www.w3.org/2000/svg" viewBox="0 0 16 16"><style>.icon-canvas-transparent{opacity:0;fill:#f6f6f6}.icon-vs-out{fill:#f6f6f6}.icon-vs-bg{fill:#424242}.icon-vs-fg{fill:#f0eff1}.icon-vs-action-orange{fill:#c27d1a}</style><path class="icon-canvas-transparent" d="M16 16H0V0h16v16z" id="canvas"/><path class="icon-vs-out" d="M16 5h-5.519l-.027.061c.023-.186.046-.371.046-.561C10.5 2.019 8.481 0 6 0S1.5 2.019 1.5 4.5c0 .988.324 1.932.902 2.701A5.99 5.99 0 0 0 0 12v1h9.481l-1.733 3h2.466L16 10.375V9h-2.486L16 6.131V5z" id="outline"/><path class="icon-vs-fg" d="M3.5 4.5C3.5 3.122 4.622 2 6 2s2.5 1.122 2.5 2.5S7.378 7 6 7 3.5 5.878 3.5 4.5zm5.165 4.537A3.97 3.97 0 0 0 6 8a4 4 0 0 0-4 4h5.332l1.333-2.963z" id="iconFg"/><path class="icon-vs-bg" d="M9.093 8.085A5.015 5.015 0 0 0 7.957 7.4a3.5 3.5 0 1 0-3.914 0A5.007 5.007 0 0 0 1 12h1c0-2.206 1.794-4 4-4 1.027 0 1.955.4 2.664 1.038l.429-.953zM6 7C4.622 7 3.5 5.878 3.5 4.5S4.622 2 6 2s2.5 1.122 2.5 2.5S7.378 7 6 7z" id="iconBg"/><g id="colorImportance"><path class="icon-vs-action-orange" d="M14.567 6.333H11.1l-2.6 5.2h2.6L9.367 15H9.8L15 9.8h-3.9l3.467-3.467z"/></g></svg>