<svg xmlns="http://www.w3.org/2000/svg" viewBox="0 0 16 16" enable-background="new 0 0 16 16"><style type="text/css">.icon-canvas-transparent{opacity:0;fill:#F6F6F6;} .icon-vs-out{fill:#F6F6F6;} .icon-vs-bg{fill:#424242;} .icon-vs-fg{fill:#F0EFF1;}</style><path class="icon-canvas-transparent" d="M16 16h-16v-16h16v16z" id="canvas"/><path class="icon-vs-out" d="M15.194 16h-14.388l.01-1.01c.023-2.444 1.227-4.626 3.17-5.913-.901-.987-1.423-2.283-1.423-3.639 0-2.999 2.439-5.438 5.437-5.438s5.438 2.439 5.438 5.438c0 1.357-.523 2.652-1.424 3.64 1.944 1.288 3.147 3.469 3.171 5.913l.009 1.009z" id="outline"/><path class="icon-vs-fg" d="M13.182 15h-10.363c.033-2.878 2.294-5.125 5.181-5.125 2.936 0 5.149 2.2 5.182 5.125zm-1.744-9.562c0-1.896-1.542-3.438-3.438-3.438s-3.437 1.542-3.437 3.438 1.541 3.437 3.437 3.437 3.438-1.542 3.438-3.437z" id="iconFg"/><path class="icon-vs-bg" d="M10.196 9.27c1.332-.767 2.241-2.188 2.241-3.832.001-2.447-1.99-4.438-4.437-4.438s-4.437 1.991-4.437 4.438c0 1.644.909 3.066 2.241 3.832-2.334.862-3.963 3.067-3.988 5.73h1.003c.033-2.878 2.294-5.125 5.181-5.125 2.936 0 5.149 2.2 5.182 5.125h1.003c-.026-2.663-1.655-4.868-3.989-5.73zm-5.633-3.832c0-1.896 1.541-3.438 3.437-3.438s3.438 1.542 3.438 3.438-1.542 3.437-3.438 3.437-3.437-1.542-3.437-3.437z" id="iconBg"/></svg>