<svg xmlns="http://www.w3.org/2000/svg" viewBox="0 0 16 16"><style>.icon-canvas-transparent{opacity:0;fill:#f6f6f6}.icon-vs-out{fill:#f6f6f6}.icon-vs-bg{fill:#424242}.icon-vs-fg{fill:#f0eff1}</style><path class="icon-canvas-transparent" d="M16 0v16H0V0h16z" id="canvas"/><path class="icon-vs-out" d="M16 11V1H5l-1 .05v3.29a4.445 4.445 0 0 0-2.745 4.101c0 .991.33 1.936.918 2.7A5.644 5.644 0 0 0 .121 14.89L0 16h11.392l-.121-1.109a5.64 5.64 0 0 0-2.052-3.749c.035-.045.059-.096.092-.142H16z" id="outline"/><path class="icon-vs-fg" d="M3.255 8.441A2.444 2.444 0 0 1 5.697 6a2.443 2.443 0 0 1 2.44 2.441 2.444 2.444 0 0 1-2.44 2.441 2.444 2.444 0 0 1-2.442-2.441zM6 4v.031c2.305.159 4.137 2.065 4.137 4.411 0 .189-.023.374-.046.559H14V4H6zm-.303 7.882c-1.824 0-3.321 1.361-3.568 3.118h7.134c-.246-1.757-1.743-3.118-3.566-3.118z" id="iconFg"/><g id="iconBg"><path class="icon-vs-bg" d="M15 2v8H9.845c.121-.321.202-.655.246-1H14V4H6v.031C5.898 4.024 5.801 4 5.697 4A4.45 4.45 0 0 0 5 4.07V2h10zm-4.723 13H9.263c-.246-1.757-1.744-3.118-3.567-3.118-1.824 0-3.321 1.361-3.568 3.118H1.116a4.62 4.62 0 0 1 2.677-3.696A3.437 3.437 0 0 1 5.697 5 3.439 3.439 0 1 1 7.6 11.304 4.621 4.621 0 0 1 10.277 15zm-2.14-6.559A2.444 2.444 0 0 0 5.697 6a2.444 2.444 0 0 0-2.442 2.441 2.444 2.444 0 0 0 2.441 2.441 2.444 2.444 0 0 0 2.441-2.441z"/></g></svg>