<svg xmlns="http://www.w3.org/2000/svg" viewBox="0 0 16 16"><style>.icon-canvas-transparent{opacity:0;fill:#f6f6f6}.icon-vs-bg{fill:#424242}.icon-vs-fg{fill:#f0eff1}</style><path class="icon-canvas-transparent" d="M16 16H0V0h16v16zm0-16H0v16h16V0z" id="canvas"/><path class="icon-vs-fg" d="M14 16H2a6 6 0 1 1 12 0zM8 9c2.206 0 4-1.794 4-4s-1.794-4-4-4-4 1.794-4 4 1.794 4 4 4z" id="iconFg"/><path class="icon-vs-bg" d="M10.336 9.393C11.913 8.551 13 6.909 13 5c0-2.757-2.243-5-5-5S3 2.243 3 5c0 1.909 1.087 3.551 2.664 4.393C2.922 10.336 1 12.899 1 16h1c0-3.364 2.636-6 6-6 3.421 0 6 2.579 6 6h1c0-3.1-1.923-5.664-4.664-6.607zM4 5c0-2.206 1.794-4 4-4s4 1.794 4 4-1.794 4-4 4-4-1.794-4-4z" id="iconBg"/></svg>