<svg xmlns="http://www.w3.org/2000/svg" viewBox="0 0 16 16"><style>.st0{opacity:0}.st0,.st1{fill:#f6f6f6}.st2{fill:#424242}</style><g id="outline"><path class="st0" d="M0 0h16v16H0z"/><path class="st1" d="M14 8h-2c.65-.635 1-1.52 1-2.5a3.5 3.5 0 1 0-7 0c0 .98.35 1.865 1 2.5H5v.816c-.565-.233-1.032-.69-1.032-1.57L3.967 7l-1.998.003s-.004.09-.001.246C1.942 8.103 1.374 9.51 0 9.533l.011.036L0 9.572v1.953c2.087-.262 2 2.459 2 2.459V15h2v1h3s.002-.894 0-1h7V8z"/></g><g id="icon_x5F_bg"><path class="st2" d="M2.974 14.053s-.159-3.488 2.692-3.488l.004.002c-2.853 0-2.702-3.521-2.702-3.521s.159 3.488-2.692 3.488h.003c2.851-.001 2.695 3.519 2.695 3.519zM5.684 15.262s-.095-2.061 1.59-2.061h.002c-1.686 0-1.596-2.078-1.596-2.078s.094 2.059-1.59 2.059h.002c1.683 0 1.592 2.08 1.592 2.08z"/><g><circle class="st2" cx="9.5" cy="5.5" r="2.5"/><path class="st2" d="M11 9l-1.5 2L8 9H7v2c0 1.014.752 1.014 1 1.014V14h5V9h-2z"/></g></g></svg>