<svg xmlns="http://www.w3.org/2000/svg" viewBox="0 0 16 16"><style>.st0{fill:#f6f6f6}.st1{fill:#424242}</style><path class="st0" d="M16 0H3v3.35c-1.18.562-2 1.755-2 3.15 0 .98.35 1.864 1 2.5H0v7h9v-3h7V0z" id="outline"/><g id="icon_x5F_bg"><path class="st1" d="M10 1h1v1h-1zM10 3h1v1h-1zM8 3h1v1H8zM10 11h1v1h-1zM8 1h1v1H8zM4.5 12L3 10H1v5h7v-5H6zM7 4V3H6v.35c.35.167.671.382.945.65H7zM6 1h1v1H6z"/><circle class="st1" cx="4.5" cy="6.5" r="2.5"/><path class="st1" d="M4 1h1v1H4zM14 5h1v1h-1zM12 11h1v1h-1zM14 7h1v1h-1zM14 1h1v1h-1zM14 3h1v1h-1zM12 3h1v1h-1zM12 1h1v1h-1zM14 9h1v1h-1zM14 11h1v1h-1z"/></g></svg>