<svg xmlns="http://www.w3.org/2000/svg" viewBox="0 0 16 16"><style>.st0{fill:#f6f6f6}.st1{fill:#424242}</style><path class="st0" d="M14.213 5.251c-.035-.096-.07-.199-.107-.307.152.031.294.046.43.046A1.453 1.453 0 0 0 16 3.513c0-.532-.234-.874-.425-1.061-.193-.193-.539-.424-1.089-.424-.309 0-.605.073-.885.219a2.03 2.03 0 0 0-.419.286C13.168 2.509 12.84 2 12.84 2h-.747c.038 0 .061-.266.061-.433 0-.474-.2-.891-.559-1.183C11.281.125 10.856 0 10.329 0 9.67 0 9.064.189 8.534.563c-.489.34-.924.855-1.326 1.57l-.709-.008-.377 1.291A3.458 3.458 0 0 0 4.5 3 3.5 3.5 0 0 0 1 6.5c0 .98.35 1.865 1 2.5H0v7h9V9H7.97c.201-.224.386-.482.551-.782.084-.154.166-.331.248-.53.073.152.173.29.296.408a1.49 1.49 0 0 0 1.066.412c.294 0 .577-.061.849-.186.243-.114.49-.302.775-.587l.108-.111c.16.253.352.453.573.597.291.191.637.288 1.026.288.395 0 .776-.126 1.122-.365.37-.248.718-.63 1.063-1.167L16 6.424v-.463l-1.631-.919-.156.209zm-3.558.359a1.544 1.544 0 0 0-.506-.087c-.279 0-.54.067-.768.196l.2-.767 1.001-.196c.068-.014.134-.033.195-.057.05.143.108.326.179.559-.117.14-.231.273-.301.352z" id="outline"/><g id="icon_x5F_bg"><path class="st1" d="M9.028 3c.186-1 .432-1.211.739-1.551.186-.213.367-.285.545-.285.036 0 .065.026.087.046a.12.12 0 0 1 .035.088.427.427 0 0 1-.076.17.467.467 0 0 0-.073.234c0 .102.039.191.117.263a.42.42 0 0 0 .297.11.428.428 0 0 0 .323-.134.486.486 0 0 0 .132-.36.512.512 0 0 0-.196-.419c-.132-.108-.342-.162-.629-.162-.45 0-.858.128-1.224.385-.367.256-.715.68-1.045 1.272-.114.205-.222.336-.324.394-.103.058-.266.263-.49.26L7.097 4h.627l-.264.826c.337.538.54 1.081.54 1.762 0 .177-.024.302-.047.472.135-.37.271-.66.409-1.195L8.89 4h.634l.158-1h-.654z"/><path class="st1" d="M13.947 3.89c.047 0 .135.017.258.05.126.033.235.05.331.05a.45.45 0 0 0 .332-.133.465.465 0 0 0 .132-.344.473.473 0 0 0-.132-.354c-.088-.088-.216-.131-.382-.131a.88.88 0 0 0-.416.103c-.13.069-.296.216-.497.444a9.92 9.92 0 0 0-.666.875C12.79 3.927 12.59 3 12.303 3H10v.774c1-.023.723-.353.803-.353.157 0 .383.066.485.197.162.205.436.825.725 1.863-.226.295-.629.79-.713.88-.138.145-.241.24-.329.283a.475.475 0 0 1-.229.053c-.065 0-.172-.034-.321-.106a.692.692 0 0 0-.273-.07.52.52 0 0 0-.378.146.482.482 0 0 0-.146.367c0 .14.045.253.138.342.09.087.215.13.371.13.149 0 .291-.03.423-.091.132-.062.297-.192.497-.393.2-.198.748-.818 1.099-1.252.135.414.396 1.018.494 1.206.099.187.212.323.34.406a.86.86 0 0 0 .479.125.989.989 0 0 0 .566-.196c.252-.168.511-.461.775-.875l-.161-.091c-.182.244-.315.397-.401.459a.36.36 0 0 1-.204.057c-.092 0-.184-.057-.274-.172-.153-.191-.499-1.026-.754-1.901.228-.392.42-.646.575-.766a.58.58 0 0 1 .36-.132z"/><circle class="st1" cx="4.5" cy="6.5" r="2.5"/><path class="st1" d="M6 10l-1.5 2L3 10H1v5h7v-5z"/></g></svg>