<svg xmlns="http://www.w3.org/2000/svg" viewBox="0 0 16 16"><style>.st0{fill:#f6f6f6}.st1{fill:#424242}.st2{fill:#f0eff1}</style><path class="st0" d="M16 4v12H1V8h1V7H0V3h6v5h2V4l4-4 4 4z" id="outline"/><path class="st1" d="M15 7V5l-3-3-3 3v2l2-2v4H5V4H1v2h2v3H2v6h13V9h-2V5l2 2zm-1 4v1h-2.365c-.56 1.178-1.742 2-3.135 2-1.392 0-2.575-.822-3.135-2H3v-1h3.05a2.5 2.5 0 0 0 4.899 0H14z" id="icon_x5F_bg"/><path class="st2" d="M14 11v1h-2.365c-.56 1.178-1.742 2-3.135 2-1.392 0-2.575-.822-3.135-2H3v-1h3.05a2.5 2.5 0 0 0 4.899 0" id="icon_x5F_fg"/></svg>