<svg xmlns="http://www.w3.org/2000/svg" viewBox="0 0 16 16"><style>.icon-canvas-transparent{opacity:0;fill:#f6f6f6}.icon-vs-out{fill:#f6f6f6}.icon-vs-fg{fill:#f0eff1}.icon-vs-bg{fill:#424242}</style><path class="icon-canvas-transparent" d="M16 16H0V0h16v16z" id="canvas"/><path class="icon-vs-out" d="M16 6.36a9.884 9.884 0 0 1-1.999 5.961l-.754 1.007-4.349-3.957c-.05.071-.091.148-.146.216A5.484 5.484 0 0 1 11 14v1H0v-1c0-1.766.861-3.396 2.248-4.413A4.125 4.125 0 0 1 1.333 7 4.172 4.172 0 0 1 5.5 2.833a4.14 4.14 0 0 1 2.859 1.151L12.602 0h1.099l.3.4A9.88 9.88 0 0 1 16 6.36z" id="outline"/><path class="icon-vs-fg" d="M3.333 7c0-1.195.972-2.167 2.167-2.167S7.667 5.805 7.667 7 6.695 9.167 5.5 9.167 3.333 8.195 3.333 7zM5.5 10.5a3.504 3.504 0 0 1 3.499 3.486H2.001A3.504 3.504 0 0 1 5.5 10.5z" id="iconFg"/><g id="iconBg"><path class="icon-vs-bg" d="M11.551 2.32L11 2.93c.751 1.009 1.211 2.179 1.211 3.431 0 1.252-.46 2.423-1.211 3.431l.551.609c.167-.215.308-.445.449-.674.627-1.018 1-2.154 1-3.367 0-1.223-.364-2.374-1-3.398a7.55 7.55 0 0 0-.449-.642zm-1.452 1.161l-.532.625c.427.7.683 1.458.683 2.254s-.256 1.554-.683 2.254l.531.624c.573-.879.902-1.849.902-2.878 0-1.027-.329-1.999-.901-2.879zm3.234 6.578a7.827 7.827 0 0 1-.653 1.045l.521.617A8.917 8.917 0 0 0 15 6.36 8.906 8.906 0 0 0 13.2 1l-.52.616a7.976 7.976 0 0 1 1.071 1.967l.005.016c.078.211.148.425.208.644.011.04.017.081.028.121.048.186.094.372.128.563.017.088.024.18.037.27.022.145.046.289.06.437.022.239.033.482.033.728 0 .419-.039.827-.102 1.228-.006.038-.009.076-.016.114a7.808 7.808 0 0 1-.287 1.146l-.03.092a7.92 7.92 0 0 1-.475 1.106c-.002.001-.004.007-.007.011zm-6.339-.284A3.157 3.157 0 0 0 8.667 7c0-1.746-1.42-3.167-3.167-3.167S2.333 5.254 2.333 7c0 1.203.682 2.239 1.672 2.775C2.26 10.394 1 12.045 1 14h1c0-1.93 1.57-3.5 3.5-3.5S9 12.07 9 14h1c0-1.955-1.26-3.606-3.006-4.225zM3.333 7c0-1.195.972-2.167 2.167-2.167S7.667 5.805 7.667 7 6.695 9.167 5.5 9.167 3.333 8.195 3.333 7z"/></g></svg>