<svg xmlns="http://www.w3.org/2000/svg" width="16" height="16"><style type="text/css">.icon-vs-out{fill:#F6F6F6;} .icon-vs-bg{fill:#424242;} .icon-vs-fg{fill:#F0EFF1;} .icon-vs-action-blue{fill:#00539C;} .icon-canvas-transparent{opacity:0;fill:#F0EFF1;}</style><rect class="icon-canvas-transparent" width="16" height="16" id="canvas"/><path class="icon-vs-out" d="M16 5.556v8.444c0 .971-.701 2-2 2h-8c-.97 0-2-.701-2-2v-5h-1.617l-2.383-4.764v-1.236h3.619l.382.764.028-.057c.065-.492.28-.887.585-1.169l1.269-2.538h4.236l-1 2h2.941l3.94 3.556z" id="outline"/><path class="icon-vs-bg" d="M15 6v8s-.035 1-1.035 1h-8s-.965 0-.965-1v-5h.619l.381-.762v5.762h8v-7h-3v-3h-2.881l.5-1h3.021l3.36 3z" id="iconBg"/><path class="icon-vs-fg" d="M14 7v7h-8v-5.762l2.119-4.238h2.881v3h3z" id="iconFg"/><path class="icon-vs-action-blue" d="M6.501 1l-2.5 5-1-2h-2.001l2.001 4h2l3.5-7h-2z" id="colorAction"/></svg>