<?xml version="1.0" encoding="iso-8859-1"?>
<!-- Generator: Adobe Illustrator 21.0.0, SVG Export Plug-In . SVG Version: 6.00 Build 0)  -->
<svg version="1.1" xmlns="http://www.w3.org/2000/svg" xmlns:xlink="http://www.w3.org/1999/xlink" x="0px" y="0px"
	 viewBox="0 0 16 16" style="enable-background:new 0 0 16 16;" xml:space="preserve">
<style type="text/css">
	.icon_x002D_canvas_x002D_transparent{opacity:0;fill:#F6F6F6;}
	.icon_x002D_vs_x002D_out{fill:#F6F6F6;}
	.icon_x002D_vs_x002D_bg{fill:#424242;}
	.icon_x002D_vs_x002D_fg{fill:#F0EFF1;}
	.icon_x002D_vs_x002D_blue{fill:#1BA1E2;}
	.icon_x002D_vs_x002D_red{fill:#E51400;}
	.icon_x002D_white{fill:#FFFFFF;}
</style>
<g id="canvas">
	<path class="icon_x002D_canvas_x002D_transparent" d="M16,16H0V0h16V16z"/>
</g>
<g id="outline">
	<path class="icon_x002D_vs_x002D_out" d="M16,11.5c0,2.485-2.015,4.5-4.5,4.5c-0.283,0-0.557-0.033-0.825-0.083
		C10.457,15.967,10.233,16,10,16H3c-0.633,0-1.232-0.202-1.736-0.563C0.489,14.986,0,14.303,0,13.5v-3c0-1.036,0.8-1.88,2-2.268V3
		c0-1.654,1.346-3,3-3h8c1.654,0,3,1.346,3,3s-1.346,3-3,3v1.276C14.744,7.895,16,9.544,16,11.5z"/>
</g>
<g id="iconBg">
	<path class="icon_x002D_vs_x002D_bg" d="M11,3v4.05C11.166,7.032,11.329,7,11.5,7s0.334,0.032,0.5,0.05V5h1c1.103,0,2-0.897,2-2
		s-0.897-2-2-2c-0.013,0-8,0-8,0C3.897,1,3,1.897,3,3v5.033C3.164,8.018,3.328,8,3.5,8S3.836,8.018,4,8.033V3c0-0.551,0.449-1,1-1
		h6.278C11.106,2.295,11,2.634,11,3z M12,3c0-0.551,0.449-1,1-1s1,0.449,1,1s-0.449,1-1,1h-1V3z M8.703,15h-2.38
		c0.296-0.289,0.511-0.625,0.61-1H7.76C8.017,14.384,8.343,14.712,8.703,15z"/>
</g>
<g id="iconFg">
	<path class="icon_x002D_vs_x002D_fg" d="M5.5,10.5c0,0.473-0.855,1-2,1s-2-0.527-2-1c0-0.473,0.855-1,2-1S5.5,10.027,5.5,10.5z
		 M14,3c0-0.551-0.449-1-1-1s-1,0.449-1,1v1h1C13.551,4,14,3.551,14,3z M7,11h0.05C7.284,8.92,8.92,7.284,11,7.05V3
		c0-0.366,0.106-0.705,0.278-1H5C4.449,2,4,2.449,4,3v5.033C5.738,8.198,7,9.197,7,10.5V11z M7.05,12H7v1.5
		c0,0.172-0.024,0.339-0.066,0.5H7.76C7.37,13.417,7.132,12.732,7.05,12z"/>
</g>
<g id="colorImportance">
	<path class="icon_x002D_vs_x002D_blue" d="M3.5,9C2.119,9,1,9.671,1,10.5v3C1,14.328,2.119,15,3.5,15S6,14.328,6,13.5v-3
		C6,9.671,4.881,9,3.5,9z M3.5,11.5c-1.145,0-2-0.527-2-1c0-0.473,0.855-1,2-1s2,0.527,2,1C5.5,10.972,4.645,11.5,3.5,11.5z"/>
</g>
<g id="notificationBg">
	<path id="XMLID_1_" class="icon_x002D_vs_x002D_red" d="M11.5,8C9.567,8,8,9.567,8,11.5c0,1.933,1.567,3.5,3.5,3.5
		c1.933,0,3.5-1.567,3.5-3.5C15,9.567,13.433,8,11.5,8z M9,12v-1h5v1H9z"/>
</g>
<g id="notificationFg">
	<path id="XMLID_17_" class="icon_x002D_white" d="M14,12H9v-1h5V12z"/>
</g>
</svg>
