<svg xmlns="http://www.w3.org/2000/svg" width="16" height="16"><style type="text/css">.icon-vs-out{fill:#F6F6F6;} .icon-vs-bg{fill:#424242;} .icon-vs-yellow{fill:#FFCC00;} .icon-canvas-transparent{opacity:0;}</style><path class="icon-canvas-transparent" d="M16 16h-16v-16h16v16z" id="canvas"/><path class="icon-vs-out" d="M16 14l-2 2h-9l-2-2 2.2-4h-2.818l-2.382-4.764v-1.236h3.618l.382.764 2.382-4.764h4.236l-2 4h1.882l5.5 10z"/><path class="icon-vs-bg" d="M9 1l-4 8h-2l-2-4h2l1 2 3-6h2z"/><path class="icon-vs-yellow" d="M9.908 5h-.816l-4.854 8.824 1.176 1.176h8.172l1.176-1.176-4.854-8.824zm.092 9h-1v-1h1v1zm0-2h-1v-4h1v4z"/><path class="icon-black" d="M10 12h-1v-4h1v4zm0 1h-1v1h1v-1z" id="notificationFg"/></svg>