<svg xmlns="http://www.w3.org/2000/svg" width="16" height="16"><style type="text/css">.icon-vs-out{fill:#F6F6F6;} .icon-vs-bg{fill:#424242;} .icon-vs-action-blue{fill:#00539C;} .icon-canvas-transparent{opacity:0;fill:#F6F6F6;}</style><path class="icon-canvas-transparent" d="M16 16h-16v-16h16v16z" id="canvas"/><path class="icon-vs-out" d="M16 15h-9.882l-.5 1h-3.236l-.5-1h-.882v-1.764l-1-2v-1.236h2v-3h3.882l.5-1h-1.382v-6h7v6h-1.382l-.5 1h4.882v3h1v5z"/><path class="icon-vs-bg" d="M3 8h2.382l-.5 1h-.882v1.764l-.382-.764h-.618v-2zm6 3h1v3h-3v-.764l2-4v1.764zm0 1h-1v1h1v-1zm-1-7h-2v-4h5v4h-2v1h-1v-1zm2-1v-2h-3v2h3zm5 7v3h-3v-3h1v-2h-3.882l.5-1h4.382v3h1zm-1 1h-1v1h1v-1z" id="iconBg"/><path class="icon-vs-action-blue" d="M9 7l-4 8h-2l-2-4h2l1 2 3-6h2z" id="colorAction"/></svg>