<svg xmlns="http://www.w3.org/2000/svg" width="16" height="16" viewBox="0 0 16 16"><style type="text/css">.icon-canvas-transparent{opacity:0;fill:#424242;} .icon-vs-action-blue{fill:#00539C;} .icon-vs-bg{fill:#424242;} .icon-vs-out{fill:#F6F6F6;}</style><g id="canvas"><path class="icon-canvas-transparent" d="M16 16h-16v-16h16v16z"/><path class="icon-canvas-transparent" d="M0 0h16v16h-16z"/></g><path class="icon-vs-out" d="M10.001 1.537c-.47-.326-1.117-.537-2.001-.537h-.879l-1-1h-2.242l-1.879 1.879-1-1-1 1v2.242l2 2 5-5v2.879h-2v2h-1c-2.061 0-3 1.556-3 3.001 0 .158-.161.393-.287.518l-.713.046v2.877l.915.056.075.017.01-.004v.491c0 1.445.939 2.998 3 2.998h1v-2h3v-3c1.055 0 1.812-.409 2.304-1.001l5.696.004v-4.003h-1.465l.667-1-.667-1h1.465v-4l-6.002.002.003 1.535zm-6.001 8.463v2.502c0-.579-.228-1.094-.532-1.503.304-.411.532-.924.532-1.497v.498zm7-6.2l.487.731-.201-.013c-.126-.125-.286-.358-.286-.516v-.202z"/><path class="icon-vs-bg" d="M4 7.002v1c-.333 0-1 0-1 .5v1c0 .666-.597 1.285-1 1.5.403.209 1 .832 1 1.5v1s0 .5 1 .5v1c-1.667 0-2-1.334-2-2v-.5c0-.758-.742-.984-1-1v-1c.236-.016 1-.727 1-1.5 0-.668.333-2 2-2zm4-2h-2v2h2v-2zm-3 8h2v-2h-2v2zm9-12.002h-3v1h.002l1.998 2.999-2 3.003v1-.002h4v.002-.998-1.004h-1v1h-2.004l.004-.002 2-2.998-1.999-3h1.999v1h1v-2h-1zm-9 9h2v-2h-2v2zm6-4.498c-.237-.016-1-.727-1-1.5v-.5c0-.668-.333-1.5-2-1.5v1c.333 0 1 0 1 .5v1c0 .666.597 1.285 1 1.5-.403.209-1 .832-1 1.5v1s0 .5-1 .5v1c1.667 0 2-1.334 2-2 0-.758.742-1.484 1-1.5v-1z"/><path class="icon-vs-action-blue" d="M5.707 1l-.707-.707-3 3-1-1-.707.707 1.707 1.707 3.707-3.707z"/></svg>
