<svg xmlns="http://www.w3.org/2000/svg" width="16" height="16"><style type="text/css">.icon-vs-out{fill:#F6F6F6;} .icon-vs-bg{fill:#424242;} .icon-vs-fg{fill:#F0EFF1;} .icon-vs-action-blue{fill:#00539C;} .icon-canvas-transparent{opacity:0;fill:#424242;} .st0{fill:none;}</style><path class="icon-canvas-transparent" d="M16 16h-16v-16h16v16z" id="canvas"/><path class="icon-vs-out" d="M16 13h-9.264l-1.5 3h-2.736l-2.5-5h3.736l.132.264.132-.263v-11.001h12v13z"/><path class="icon-vs-bg" d="M15 1v11h-7.764l.5-1h6.264v-9h-8v6h-.5l-.5 1v-8h10zm-7 9l.843-3.374c-.509-.362-.843-.955-.843-1.627 0-1.104.896-2 2-2s2 .896 2 2c0 .673-.335 1.265-.843 1.627l.843 3.374h-1l-1-3-1 3h-1zm1-5.001c0 .553.448 1 1 1s1-.447 1-1c0-.553-.448-1-1-1s-1 .447-1 1z"/><path class="icon-vs-fg" d="M14 2v9h-6.264l.5-1h.764l1-3 1 3h1l-.843-3.374c.508-.362.843-.955.843-1.627 0-1.104-.896-2-2-2s-2 .896-2 2c0 .672.335 1.264.843 1.626l-.344 1.375h-2.499v-6h8zm-3 2.999c0-.553-.448-1-1-1s-1 .447-1 1c0 .553.448 1 1 1 .551 0 1-.447 1-1z"/><path class="icon-vs-action-blue" d="M7.618 9l-3 6h-1.5l-1.5-3h1.5l.75 1.5 2.25-4.5h1.5z"/><circle class="st0" cx="10" cy="4.999" r="1" id="notificationFg"/></svg>