<?xml version="1.0" encoding="iso-8859-1"?>
<!-- Generator: Adobe Illustrator 21.0.0, SVG Export Plug-In . SVG Version: 6.00 Build 0)  -->
<svg version="1.1" xmlns="http://www.w3.org/2000/svg" xmlns:xlink="http://www.w3.org/1999/xlink" x="0px" y="0px"
	 viewBox="0 0 16 16" style="enable-background:new 0 0 16 16;" xml:space="preserve">
<style type="text/css">
	.icon_x002D_canvas_x002D_transparent{opacity:0;fill:#F6F6F6;}
	.icon_x002D_vs_x002D_out{fill:#F6F6F6;}
	.icon_x002D_vs_x002D_bg{fill:#424242;}
	.icon_x002D_vs_x002D_fg{fill:#F0EFF1;}
	.icon_x002D_vs_x002D_blue{fill:#1BA1E2;}
	.icon_x002D_vs_x002D_yellow{fill:#FFCC00;}
</style>
<g id="canvas">
	<path class="icon_x002D_canvas_x002D_transparent" d="M16,16H0V0h16V16z"/>
</g>
<g id="outline">
	<path class="icon_x002D_vs_x002D_out" d="M13,8.002l2.973,5.993L15.002,16H8.004H3c-0.633,0-1.232-0.202-1.736-0.563
		C0.489,14.986,0,14.303,0,13.5v-3c0-1.036,0.8-1.88,2-2.268V3c0-1.654,1.346-3,3-3h8c1.654,0,3,1.346,3,3s-1.346,3-3,3V8.002z"/>
</g>
<g id="iconBg">
	<path class="icon_x002D_vs_x002D_bg" d="M8.49,11l-0.503,1H7v-1H8.49z M11.278,2H5C4.449,2,4,2.449,4,3v5.033
		C3.836,8.018,3.672,8,3.5,8S3.164,8.018,3,8.033V3c0-1.103,0.897-2,2-2c0,0,7.987,0,8,0c1.103,0,2,0.897,2,2s-0.897,2-2,2h-1v2.016
		h-1V3C11,2.634,11.106,2.295,11.278,2z M12,4h1c0.551,0,1-0.449,1-1s-0.449-1-1-1s-1,0.449-1,1V4z M6.97,14.025L6.982,14H6.934
		c-0.099,0.375-0.314,0.711-0.61,1H7.48L6.97,14.025z"/>
</g>
<g id="iconFg">
	<path class="icon_x002D_vs_x002D_fg" d="M13,4h-1V3c0-0.551,0.449-1,1-1s1,0.449,1,1S13.551,4,13,4z M3.5,9.5c-1.145,0-2,0.527-2,1
		c0,0.473,0.855,1,2,1s2-0.527,2-1C5.5,10.027,4.645,9.5,3.5,9.5z M7,11h1.49l2.003-3.984H11V3c0-0.366,0.106-0.705,0.278-1H5
		C4.449,2,4,2.449,4,3v5.033C5.738,8.198,7,9.197,7,10.5V11z M7.988,12H7v1.5c0,0.172-0.024,0.339-0.066,0.5h0.049L7.988,12z"/>
</g>
<g id="colorImportance">
	<path class="icon_x002D_vs_x002D_blue" d="M3.5,9C2.119,9,1,9.671,1,10.5v3C1,14.328,2.119,15,3.5,15S6,14.328,6,13.5v-3
		C6,9.671,4.881,9,3.5,9z M3.5,11.5c-1.145,0-2-0.527-2-1c0-0.473,0.855-1,2-1s2,0.527,2,1C5.5,10.972,4.645,11.5,3.5,11.5z"/>
</g>
<g id="notificationBg">
	<path id="XMLID_1_" class="icon_x002D_vs_x002D_yellow" d="M11.891,8.016h-0.781l-3.016,6L8.609,15h5.766l0.484-1L11.891,8.016z
		 M12,14h-1v-1h1V14z M12,12h-1v-2h1V12z"/>
</g>
<g id="notificationFg">
	<path id="XMLID_2_" class="icon_x002D_black" d="M12,12h-1v-2h1V12z M12,13h-1v1h1V13z"/>
</g>
</svg>
