<svg xmlns="http://www.w3.org/2000/svg" width="16" height="16"><style type="text/css">.icon-vs-out{fill:#F6F6F6;} .icon-vs-bg{fill:#424242;} .icon-vs-action-blue_x0020_{fill:#00539C;} .icon-canvas-transparent{opacity:0;fill:#424242;}</style><path class="icon-canvas-transparent" d="M16 16h-16v-16h16v16z" id="canvas"/><path class="icon-vs-out" d="M16 13.874l-2.104 2.126-3.171-3.17-3.172 3.168-2.109-2.121 1.933-1.932c-1.152-.528-1.561-1.531-1.65-2.161l-.109.216h-3.236l-2.382-4.764v-1.236h3.618l.382.764 2.382-4.764h4.236l-3.579 7.159c.426-.247.91-.388 1.396-.406h.002c.914 0 1.688.284 2.271.808.579-.525 1.345-.809 2.237-.809 1.396.052 2.771 1.02 2.771 2.77 0 .568-.338 1.804-1.653 2.416l1.937 1.936z"/><path class="icon-vs-bg" d="M12.242 11.297c2.445 0 2.475-1.758 2.475-1.775 0-1.345-1.155-1.746-1.771-1.77-1.402 0-1.988.878-2.234 1.635-.247-.755-.836-1.635-2.238-1.635-.614.023-1.769.424-1.769 1.769 0 .018.027 1.775 2.475 1.775h.26l-2.583 2.582.699.703 3.169-3.166 3.167 3.166.697-.704-2.581-2.581h.234zm.589-2.555c.064.003.897.057.897.777-.002.033-.033.785-1.356.785h-.845v-.227c0-.222.064-1.333 1.304-1.335zm-2.935 1.336v.227h-.845c-1.321 0-1.353-.752-1.354-.783 0-.722.826-.776.89-.779 1.246.001 1.309 1.112 1.309 1.335z"/><path class="icon-vs-action-blue_x0020_" d="M9 1l-4 8h-2l-2-4h2l1 2 3-6h2z" id="colorAction"/></svg>