<svg xmlns="http://www.w3.org/2000/svg" width="16" height="16"><style type="text/css">.icon-vs-out{fill:#F6F6F6;} .icon-vs-bg{fill:#424242;} .icon-vs-fg{fill:#F0EFF1;} .icon-vs-action-blue{fill:#00539C;} .icon-canvas-transparent{opacity:0;fill:#F6F6F6;}</style><path class="icon-canvas-transparent" d="M16 16h-16v-16h16v16z" id="canvas"/><path class="icon-vs-out" d="M16 3.556v8.444c0 .97-.701 2-2 2h-7.764l-1 2h-2.736l-2.5-5h3.736l.132.264.132-.264v-9c0-1.299 1.03-2 2-2h6.061l3.939 3.556z" id="outline"/><path class="icon-vs-bg" d="M10 5h-3v-1h3v1zm-3 2h6v-1h-6v1zm4.641-6h-5.677s-.964 0-.964 1v7l.5-1h.5v-6h5v3h3v7h-6.764l-.5 1h7.229c1 0 1.035-1 1.035-1v-8l-3.359-3zm-3.405 9l-.5 1h5.264v-1h-4.764zm1-2l-.5 1h4.264v-1h-3.764z"/><path class="icon-vs-fg" d="M11 5v-3h-5v6h7v1h-4.264l-.5 1h4.764v1h-5.264l-.5 1h6.764v-7h-3zm-4-1h3v1h-3v-1zm6 3h-6v-1h6v1z"/><path class="icon-vs-action-blue" d="M7.618 9l-3 6h-1.5l-1.5-3h1.5l.75 1.5 2.25-4.5h1.5z" id="colorAction"/></svg>