<svg xmlns="http://www.w3.org/2000/svg" width="16" height="16" viewBox="0 0 16 16"><style type="text/css">.icon-canvas-transparent{opacity:0;fill:#F6F6F6;} .icon-vs-out{fill:#F6F6F6;} .icon-vs-bg{fill:#424242;}</style><path class="icon-canvas-transparent" d="M0 0h16v16h-16z" id="canvas"/><path class="icon-vs-out" d="M14.255 7.118l1.745 1.023v.295l-.404.654c-.419.678-.84 1.158-1.288 1.469-.416.292-.859.441-1.309.441-.448 0-.845-.113-1.18-.336-.313-.211-.573-.52-.778-.923l-.064-.132-.401.44c-.353.362-.649.594-.933.729-.306.148-.636.222-.98.222-.602 0-.982-.259-1.197-.477-.297-.283-.466-.69-.466-1.156 0-.468.169-.883.487-1.201.311-.315.727-.485 1.197-.485.237 0 .484.056.736.167l.057-.06c.057-.063.34-.398.598-.719-.18-.636-.313-1.037-.406-1.287-.155.094-.305.164-.473.198l-1.197.241v-.503h-.166l-.493 1.945c-.128.527-.256.982-.384 1.401.019.145.044.287.044.436 0 1.158-.572 2.225-1.501 2.87v1.63c0 1.104-.896 2-2 2-1.103 0-2-.896-2-2v-1.523c-.114-.11-.209-.231-.285-.362-.747-.654-1.214-1.591-1.214-2.615 0-1.93 1.57-3.5 3.5-3.5.229 0 .45.025.667.067l.088-.349h-.84l.744-2.711.867.007.069-.123c.556-1.057 1.08-1.747 1.647-2.165.646-.481 1.382-.726 2.186-.726.622 0 1.119.159 1.476.472.381.33.596.803.596 1.328 0 .584-.24.963-.44 1.178l-.026.022h1.504l.294.463.24.408c.271-.289.508-.485.737-.61.321-.174.664-.261 1.022-.261.609 0 .992.256 1.205.47.218.224.464.601.464 1.18 0 .448-.156.847-.452 1.154-.313.319-.709.485-1.153.485-.21 0-.434-.033-.684-.101l-.217.303c.135.435.275.826.396 1.135l.365-.508z" id="outline"/><g id="iconBg"><path class="icon-vs-bg" d="M6 9.5c0 1.025-.618 1.903-1.501 2.289v2.211c0 .553-.447 1-1 1-.552 0-1-.447-1-1v-2.211c-.881-.387-1.499-1.265-1.499-2.289 0-1.024.618-1.902 1.499-2.289v2.789h2v-2.789c.883.386 1.501 1.264 1.501 2.289zm1.236-5.484c.242-1.015.562-1.837.959-2.306.241-.292.478-.438.709-.438l.114.042.043.108c0 .041-.032.116-.097.229-.063.111-.095.218-.095.318 0 .141.05.261.152.36.103.101.23.15.386.15.168 0 .309-.061.42-.183.113-.122.172-.288.172-.496 0-.236-.084-.429-.256-.577-.169-.148-.441-.223-.815-.223-.585 0-1.116.177-1.591.53-.479.353-.93 1.015-1.358 1.83-.149.281-.29.46-.423.541-.131.08-.344.118-.637.115l-.193.702h.814l-.429 1.694c.493.258.921.622 1.242 1.073l.017-.068.686-2.699h.826l.204-.703h-.85zm5.923 1.314c.148-.117.306-.175.469-.175.063 0 .176.022.337.066.163.045.307.068.43.068.173 0 .317-.061.434-.179.113-.118.171-.272.171-.46 0-.199-.058-.356-.172-.475-.116-.116-.281-.175-.497-.175-.191 0-.372.046-.542.138-.169.092-.384.291-.646.595-.194.227-.485.623-.868 1.189-.154-.7-.415-1.339-.786-1.922h-2.49v1l.791-.472c.203 0 .371.087.504.263.211.273.504 1.105.879 2.495-.293.396-.85 1.057-.959 1.179-.18.195-.328.321-.445.38-.09.047-.191.07-.306.07-.085 0-.226-.047-.419-.141-.135-.062-.254-.093-.359-.093-.199 0-.363.063-.492.194-.13.129-.193.293-.193.492 0 .188.059.34.179.455.117.119.279.178.484.178.192 0 .377-.041.549-.123.172-.082.387-.258.648-.525.26-.266.973-1.096 1.43-1.678.176.554.514 1.361.643 1.613.128.252.277.434.441.545.168.111.375.168.625.168.242 0 .488-.088.738-.264.328-.227.665-.617 1.008-1.172l-.21-.123c-.234.327-.409.532-.523.615-.073.051-.162.076-.264.076-.121 0-.239-.076-.357-.229-.199-.256-.649-1.376-.981-2.548.296-.523.546-.865.749-1.025z"/></g></svg>