<svg xmlns="http://www.w3.org/2000/svg" width="16" height="16"><style type="text/css">.icon-canvas-transparent{opacity:0;fill:#F6F6F6;} .icon-vs-out{fill:#F6F6F6;} .icon-vs-bg{fill:#424242;} .icon-vs-fg_x0020_{fill:#F0EFF1;}</style><path class="icon-canvas-transparent" d="M16 16h-16v-16h16v16z" id="canvas"/><path class="icon-vs-out" d="M16 5.968l-1.634-.933-.155.211-.105-.302c.152.031.293.046.429.046.392 0 .759-.149 1.048-.434.269-.274.417-.645.417-1.043 0-.416-.148-.783-.431-1.067-.194-.191-.539-.418-1.082-.418-.311 0-.607.073-.887.22-.137.072-.274.17-.418.299l-.342-.519h-.748c.041-.141.061-.29.061-.447 0-.469-.198-.892-.559-1.19-.314-.26-.74-.391-1.265-.391-.66 0-1.266.191-1.797.565-.49.343-.926.858-1.323 1.569l-.713-.009-.729 2.521h.66l-.043.162-6.384 3.192v6l4 2h2l6-3v-5.201c.131.166.274.314.442.426.293.188.637.283 1.021.283.39 0 .769-.125 1.124-.367.373-.25.72-.631 1.061-1.167l.352-.553v-.453zm-5.346-.358c-.171-.057-.34-.086-.505-.086-.269 0-.516.065-.736.183l-.025-.013.193-.739 1.004-.2.193-.057.178.56-.302.352z" id="outline"/><path class="icon-vs-bg" d="M7.724 3.646h-.627l.148-.512c.226.003.389-.025.49-.083.103-.058.211-.189.326-.394.329-.592.677-1.016 1.043-1.272.366-.257.774-.385 1.225-.385.287 0 .498.054.628.162.13.108.196.248.196.42 0 .151-.045.271-.132.36-.087.089-.194.134-.323.134-.12 0-.219-.036-.297-.11-.079-.072-.117-.16-.117-.262 0-.073.023-.15.073-.231l.075-.167-.033-.079-.088-.03c-.179 0-.359.107-.545.319-.306.34-.552.881-.738 1.618h.653l-.157.512h-.636l-.414 1.591-1.034-.516.284-1.075zm6.222.244l.258.05c.125.033.236.051.331.051.132 0 .243-.045.333-.133.087-.089.132-.205.132-.345 0-.148-.045-.267-.132-.354-.09-.088-.217-.131-.381-.131-.148 0-.287.034-.418.103-.129.069-.295.216-.496.444-.15.17-.373.465-.668.889-.116-.522-.316-1.001-.603-1.435h-1.912v.746l.608-.353c.157 0 .286.066.388.196.162.205.387.826.674 1.864-.225.295-.651.789-.736.88l-.21.195.254.127c.246-.273.554-.628.784-.913.134.414.392 1.018.492 1.205.099.188.213.324.34.407.129.083.287.125.479.125.186 0 .375-.066.567-.197.252-.169.511-.461.774-.875l-.161-.092c-.182.245-.315.398-.402.459-.056.038-.124.057-.201.057-.094 0-.186-.056-.275-.17-.153-.193-.499-1.028-.754-1.903.227-.391.419-.646.576-.766.112-.087.234-.131.359-.131zm-6.946 2.11l4 2v4l-6 3-4-2v-4l6-3zm2 2l-2-1-4 2 2 1 4-2z" id="iconBg"/><path class="icon-vs-fg_x0020_" d="M7 7l2 1-4 2-2-1 4-2z" id="iconFg"/></svg>