<svg xmlns="http://www.w3.org/2000/svg" width="16" height="16" viewBox="0 0 16 16"><style type="text/css">.icon-canvas-transparent{opacity:0;fill:#F6F6F6;} .icon-vs-out{fill:#F6F6F6;} .icon-vs-action-blue{fill:#00539C;}</style><path class="icon-canvas-transparent" d="M16 16h-16v-16h16v16z" id="canvas"/><path class="icon-vs-out" d="M15 8.91c0 .966-.416 1.774-1.203 2.338-.691.498-1.609.752-2.727.752h-4.07v-1.479l-.465 1.479h-3.1l-2.435-7.849v-1.151h3.313l.711 2.602.706-2.602h5.178c1.084 0 1.924.187 2.568.571.777.465 1.206 1.199 1.206 2.069 0 .527-.171 1.017-.495 1.435.532.492.813 1.125.813 1.835z" id="outline"/><g id="colorImportance"><path class="icon-vs-action-blue" d="M6.495 4h1.505l-2.199 7h-1.629l-2.172-7h1.549l1.33 4.872c.072.263.115.496.129.698h.027c.021-.218.066-.458.139-.718l1.321-4.852zm7.505 4.91c0 .642-.262 1.15-.785 1.525-.524.378-1.238.565-2.145.565h-3.07v-7h2.908c.891 0 1.576.144 2.056.43.48.286.719.69.719 1.211 0 .377-.146.707-.438.99-.292.283-.663.48-1.116.591v.02c.566.062 1.022.246 1.361.553.34.305.51.677.51 1.115zm-4.201-2.089h.791c.371 0 .664-.079.878-.236.214-.158.321-.376.321-.651 0-.516-.439-.771-1.315-.771h-.675v1.658zm2.307 2.07c0-.279-.115-.498-.348-.659-.232-.158-.557-.238-.973-.238h-.986v1.845h.975c.418 0 .742-.084.979-.254.235-.17.353-.401.353-.694z"/></g></svg>