<svg xmlns="http://www.w3.org/2000/svg" width="16" height="16"><style type="text/css">.icon-canvas-transparent{opacity:0;fill:#F6F6F6;} .icon-vs-out{fill:#F6F6F6;} .icon-vs-bg{fill:#424242;} .icon-vs-fg{fill:#F0EFF1;} .icon-vs-action-blue{fill:#00539C;}</style><path class="icon-canvas-transparent" d="M0 0h16v16h-16z" id="canvas"/><path class="icon-vs-out" d="M16 1v14h-16v-14h16z" id="outline"/><path class="icon-vs-bg" d="M4.811 11l-1.811-6h1.291l1.109 4.176c.059.226.096.426.107.599h.023c.017-.187.056-.393.114-.615l1.102-4.16h1.254l-1.832 6h-1.357zm3.189 0v-6h2.424c.742 0 1.314.123 1.713.368s.6.592.6 1.038c0 .323-.122.606-.365.849-.242.243-.553.412-.931.507v.017c.474.053.853.211 1.136.474.282.261.423.58.423.956 0 .55-.218.985-.654 1.308-.436.322-1.032.483-1.787.483h-2.559zm1.5-3.582h.659c.31 0 .554-.067.731-.202.178-.136.267-.322.267-.559 0-.441-.365-.661-1.095-.661h-.562v1.422zm0 2.586h.813c.347 0 .618-.072.814-.218.197-.145.295-.343.295-.594 0-.24-.097-.428-.29-.565-.194-.136-.464-.204-.809-.204h-.823v1.581z" id="iconBg"/><path class="icon-vs-fg" d="M10.159 7.418h-.659v-1.422h.563c.729 0 1.095.22 1.095.661 0 .236-.089.423-.267.559-.178.135-.422.202-.732.202zm.163 1.005h-.822v1.581h.813c.347 0 .618-.072.814-.218.197-.145.295-.343.295-.594 0-.24-.097-.428-.29-.565-.194-.136-.464-.204-.81-.204zm3.678-5.423v10h-12v-10h12zm-1 6.209c0-.376-.141-.695-.424-.957-.283-.263-.662-.421-1.136-.474v-.016c.378-.095.688-.264.931-.507.243-.242.365-.525.365-.849 0-.446-.2-.793-.6-1.038-.398-.245-.97-.368-1.712-.368h-3.678l-1.101 4.159c-.059.223-.098.429-.115.615h-.022c-.012-.172-.049-.373-.108-.598l-1.109-4.176h-1.291l1.811 6h1.357l1.832-6v6h2.559c.756 0 1.352-.161 1.787-.483.436-.323.654-.758.654-1.308z" id="iconFg"/><path class="icon-vs-action-blue" d="M1 2v12h14v-12h-14zm13 11h-12v-10h12v10z" id="colorImportance"/></svg>