<svg xmlns="http://www.w3.org/2000/svg" width="16" height="16" viewBox="0 0 16 16"><style type="text/css">.icon-canvas-transparent{opacity:0;fill:#F6F6F6;} .icon-vs-bg{fill:#424242;} .icon-vs-fg{fill:#F0EFF1;} .st0{fill:#F6F6F6;}</style><path class="icon-canvas-transparent" d="M0 0h16v16h-16z" id="canvas"/><path class="st0" d="M16 14h-7.089l-2.728 2h-1.929l-3.175-2h-1.079v-14h16v14z" id="outline"/><path class="icon-vs-bg" d="M15 1v12h-5v-1h4v-8h-12v2.93l-1 .505v-6.435h14zm-6.245 7.471v4.403l-3.507 2.57-4.081-2.57v-4.403l3.874-1.959 3.714 1.959zm-3.76 2.5l-3.209-1.793v3.319l3.167 2.064v.016l.008-.008.01.008v-.016l.024-.018v-3.572zm3.07-2.27l-3.07-1.513-2.889 1.467 3.095 1.765 2.864-1.719zm.125.725l-2.576 1.566v3.463l2.576-1.857v-3.172z" id="iconBg"/><g id="iconFg"><path class="icon-vs-fg" d="M4.995 7.188l3.07 1.513-2.864 1.719-3.095-1.765 2.889-1.467zm0 7.356v-3.573l-3.209-1.793v3.319l3.167 2.064v.016l.008-.008.01.008v-.016l.024-.017zm3.195-5.118l-2.576 1.566v3.463l2.576-1.856v-3.173zm-6.19-5.426v2.93l3.051-1.543 4.704 2.481v4.132h4.245v-8h-12z"/></g></svg>