<svg xmlns="http://www.w3.org/2000/svg" width="16" height="16" viewBox="0 0 16 16"><style type="text/css">.icon-canvas-transparent{opacity:0;fill:#F6F6F6;} .icon-vs-out{fill:#F6F6F6;} .icon-vs-bg{fill:#424242;} .icon-vs-fg{fill:#F0EFF1;} .icon-vs-action-blue{fill:#00539C;}</style><path class="icon-canvas-transparent" d="M16 16h-16v-16h16v16z" id="canvas"/><path class="icon-vs-out" d="M5 15c-.97 0-2-.701-2-2v-10c0-1.299 1.03-2 2-2h6.061l3.939 3.556v8.444c0 .971-.701 2-2 2h-8z" id="outline"/><path class="icon-vs-bg" d="M10.641 2h-5.677s-.964 0-.964 1v10c0 1 .965 1 .965 1h8c1 0 1.035-1 1.035-1v-8l-3.359-3zm2.359 11h-8v-10h5v3h3v7z" id="iconBg"/><path class="icon-vs-fg" d="M10 6v-3h-5v10h8v-7h-3zm-2 6h-1v-4h1v4zm0-5h-1v-1h1v1z" id="iconFg"/><g id="colorImportance"><path class="icon-vs-action-blue" d="M7.991 6.984h-.953v-.956h.954v.956zm-.991 5.016h1v-4h-1v4z"/></g></svg>