<?xml version="1.0" encoding="iso-8859-1"?>
<!-- Generator: Adobe Illustrator 21.0.0, SVG Export Plug-In . SVG Version: 6.00 Build 0)  -->
<svg version="1.1" xmlns="http://www.w3.org/2000/svg" xmlns:xlink="http://www.w3.org/1999/xlink" x="0px" y="0px"
	 viewBox="0 0 16 16" style="enable-background:new 0 0 16 16;" xml:space="preserve">
<style type="text/css">
	.icon_x002D_canvas_x002D_transparent{opacity:0;fill:#F6F6F6;}
	.icon_x002D_vs_x002D_out{fill:#F6F6F6;}
	.icon_x002D_vs_x002D_fg{fill:#F0EFF1;}
	.icon_x002D_vs_x002D_blue{fill:#1BA1E2;}
	.icon_x002D_vs_x002D_action_x002D_blue{fill:#00539C;}
</style>
<g id="canvas">
	<path class="icon_x002D_canvas_x002D_transparent" d="M16,16H0V0h16V16z"/>
</g>
<g id="outline">
	<path class="icon_x002D_vs_x002D_out" d="M15,4v8c0,2.28-3.01,4-7,4c-0.342,0-0.674-0.018-1-0.042V16H0V7h1V4c0-2.28,3.01-4,7-4
		C11.99,0,15,1.72,15,4z"/>
</g>
<g id="iconBg">
	<path class="icon_x002D_vs_x002D_blue" d="M8,1C4.687,1,2,2.343,2,4v3h5v7.955C7.326,14.982,7.659,15,8,15c3.314,0,6-1.343,6-3V4
		C14,2.343,11.314,1,8,1z M7.997,5.875C5.066,5.875,3.122,4.746,3.122,4c0-0.747,1.944-1.875,4.875-1.875
		c2.931,0,4.875,1.128,4.875,1.875C12.872,4.746,10.928,5.875,7.997,5.875z"/>
</g>
<g id="colorImportance">
	<path class="icon_x002D_vs_x002D_action_x002D_blue" d="M1,8v7h2v-2h1v2h2V8H1z M3,12H2v-1h1V12z M3,10H2V9h1V10z M5,12H4v-1h1V12z
		 M5,10H4V9h1V10z"/>
</g>
<g id="iconFg">
	<path class="icon_x002D_vs_x002D_fg" d="M3,10H2V9h1V10z M3,11H2v1h1V11z M4,12h1v-1H4V12z M4,10h1V9H4V10z M7.997,2.125
		C5.066,2.125,3.122,3.253,3.122,4c0,0.746,1.944,1.875,4.875,1.875c2.931,0,4.875-1.129,4.875-1.875
		C12.872,3.253,10.928,2.125,7.997,2.125z M4,13H3v2h1V13z"/>
</g>
</svg>
