<svg xmlns="http://www.w3.org/2000/svg" width="16" height="16"><style type="text/css">.icon-canvas-transparent{opacity:0;fill:#F6F6F6;} .icon-vs-out{fill:#F6F6F6;} .icon-vs-bg{fill:#424242;} .icon-vs-fg{fill:#F0EFF1;} .icon-vs-action-blue{fill:#00539C;}</style><path class="icon-canvas-transparent" d="M16 16h-16v-16h16v16z" id="canvas"/><path class="icon-vs-out" d="M3 .001h11.001v15.999h-11.001v-15.999z" id="outline"/><path class="icon-vs-bg" d="M6 14l1 1h-3v-3l1 1v1h1zm-2-13v5l1 1v-5h7v10h-2l1 1h1v1l1 1v-14h-9z" id="iconBg"/><path class="icon-vs-fg" d="M5 7v-5h7v10h-2l-5-5zm0 7h1l-1-1v1zm7-1h-1l1 1v-1z" id="iconFg"/><path class="icon-vs-action-blue" d="M11 15h-2l-5-5v-2l7 7z" id="colorImportance"/></svg>