<svg xmlns="http://www.w3.org/2000/svg" width="16" height="16" viewBox="0 0 16 16"><style type="text/css">.icon-canvas-transparent{opacity:0;fill:#F6F6F6;} .icon-vs-out{fill:#F6F6F6;} .icon-vs-bg{fill:#424242;} .icon-vs-fg{fill:#F0EFF1;} .icon-vs-action-blue{fill:#00539C;}</style><path class="icon-canvas-transparent" d="M16 16h-16v-16h16v16zm0-16h-16v16h16v-16z" id="canvas"/><path class="icon-vs-out" d="M11.57 15.151l.844.849h-4.828l-.022-.023c-4.097-.221-7.367-3.517-7.546-7.626l-.018-.018v-4.828l.872.877c1.321-2.598 4.013-4.382 7.128-4.382 4.418 0 8 3.582 8 8 0 3.133-1.806 5.838-4.43 7.151z" id="outline"/><path class="icon-vs-bg" d="M6.38 14.781c-2.581-.616-4.591-2.644-5.179-5.234l5.179 5.234zm8.62-6.781c0 2.86-1.719 5.313-4.177 6.398l-.968-.974c1.748-.598 3.121-1.999 3.652-3.777-1.041.392-1.992.619-2.886.734-.236.851-.603 1.78-1.049 2.759l-.817-.822c.276-.64.517-1.258.695-1.833-.354.017-.706.027-1.054.027l-.403-.002c-.377-.004-.734-.035-1.095-.062l-1.9-1.912c-.028-.352-.048-.7-.044-1.043.006-.436.036-.851.078-1.257-.852-.146-1.614-.337-2.3-.539l-.153.405-.961-.968c1.096-2.436 3.538-4.134 6.382-4.134 3.786 0 6.862 3.008 6.988 6.764l.012.236zm-8.733-2.689c.559.063 1.14.104 1.739.11.57.005 1.132 0 1.703-.039-.277-1.262-.753-2.296-1.221-3.108l-.488-.024c-.249 0-.492.021-.732.052-.383.794-.768 1.793-1.001 3.009zm-.35-2.666c-1.071.418-1.987 1.143-2.635 2.073.578.163 1.211.315 1.903.435.176-.954.442-1.785.732-2.508zm4.038 4.861c-.004-.361-.032-.707-.07-1.047-.505.039-.999.055-1.488.055l-.403-.003c-.651-.007-1.279-.052-1.882-.12-.036.359-.063.728-.067 1.115-.006.583.039 1.182.123 1.792.59.069 1.202.116 1.838.123.582.003 1.156-.005 1.74-.046.141-.667.215-1.292.209-1.869zm.843-2.25c.617-.096 1.265-.26 1.951-.496-.689-1.009-1.692-1.781-2.868-2.188.366.765.703 1.653.917 2.684zm2.952 2.744c0-.805-.166-1.57-.465-2.266-.822.296-1.59.49-2.316.604.041.374.072.756.076 1.156.006.549-.051 1.131-.161 1.743.876-.142 1.81-.411 2.848-.863l.018-.374z" id="iconBg"/><path class="icon-vs-fg" d="M10.969 6.338c.727-.113 1.494-.308 2.316-.604.299.696.465 1.461.465 2.266l-.019.374c-1.038.452-1.972.722-2.848.863.11-.612.167-1.194.161-1.743-.003-.4-.034-.782-.075-1.156zm-1.088-3.767c.366.766.703 1.653.917 2.685.617-.096 1.265-.26 1.951-.496-.689-1.009-1.692-1.781-2.868-2.189zm-1.125 9.747c.276-.64.517-1.258.695-1.833-.354.017-.706.027-1.054.027l-.403-.002c-.377-.004-.734-.035-1.095-.062l1.857 1.87zm.99-2.943c.141-.667.215-1.292.209-1.869-.004-.361-.032-.707-.07-1.047-.505.039-.999.055-1.488.055l-.403-.003c-.651-.007-1.279-.052-1.882-.12-.036.359-.063.728-.067 1.115-.006.583.039 1.182.123 1.792.59.069 1.202.116 1.838.123.582.003 1.156-.005 1.74-.046zm-2.478-7.073c-.383.794-.768 1.793-1.001 3.009.559.063 1.14.104 1.739.11.57.005 1.132 0 1.703-.039-.277-1.262-.753-2.296-1.221-3.108l-.488-.024c-.249 0-.492.021-.732.052zm-3.986 2.416c.578.163 1.211.315 1.903.435.177-.954.442-1.785.732-2.509-1.071.419-1.987 1.144-2.635 2.074zm1.717 3.819c-.028-.352-.048-.7-.044-1.043.005-.437.035-.852.077-1.258-.852-.146-1.614-.337-2.3-.539l-.153.405 2.42 2.435zm8.509 1.11c-1.041.392-1.992.619-2.886.734-.271.979-.692 2.047-1.238 3.193 1.973-.487 3.546-1.99 4.124-3.927z" id="iconFg"/><g id="colorImportance"><path class="icon-vs-action-blue" d="M1 5.919v2l7 6.999h2l-9-8.999z"/></g></svg>