<svg xmlns="http://www.w3.org/2000/svg" width="16" height="16" viewBox="0 0 16 16"><style type="text/css">.icon-canvas-transparent{opacity:0;fill:#F6F6F6;} .icon-vs-out{fill:#F6F6F6;} .icon-vs-bg{fill:#424242;} .icon-vs-fg{fill:#F0EFF1;} .icon-vs-action-blue{fill:#00539C;}</style><path class="icon-canvas-transparent" d="M16 16h-16v-16h16v16z" id="canvas"/><path class="icon-vs-out" d="M16 14h-6.019l-2.001 2h-.783l-2.002-2h-5.195v-13h5v-1h6v1h5v13z" id="outline"/><path class="icon-vs-bg" d="M11 2v11h4v-11h-4zm3 10h-2v-1h2v1zm0-2h-2v-1h2v1zm0-5h-2v-2h2v2zm-13 2.588v-5.588h4v3.584l-.999-.998-.001.001v-1.587h-2v2h1.587l-2.587 2.588zm2 5.412h-2v-2.587l1 .995v.592h.594l.224.223.182-.182v.959zm7-1.053l-.617-.615.617-.617v1.232zm-2.735-4.098l.944-.947 1.791 1.786v-7.688h-4v5.584l1.265 1.265zm-.265-5.849h2v1h-2v-1z" id="iconBg"/><path class="icon-vs-fg" d="M7 2h2v1h-2v-1zm5 1v2h2v-2h-2zm0 7h2v-1h-2v1zm0 2h2v-1h-2v1zm-10-.592v.592h.594l-.594-.592zm2-6.821v-1.587h-2v2h1.587l.413-.413z" id="iconFg"/><g id="colorImportance"><path class="icon-vs-action-blue" d="M9.604 12.965l-2.015 2.014-1.388-1.387.595-.592h-2.796v-3.363l-1.182 1.176-1.818-1.811 3.001-3.002 1.811 1.813-1.184 1.187h2.902l.682-.684 1.388 1.385-2.015 2.014-1.388-1.385.332-.33h-1.529v2h2.795l.42-.422 1.389 1.387z"/></g></svg>