<svg xmlns="http://www.w3.org/2000/svg" width="16" height="16" viewBox="0 0 16 16"><style type="text/css">.icon-canvas-transparent{opacity:0;fill:#F6F6F6;} .icon-vs-out{fill:#F6F6F6;} .icon-vs-action-blue{fill:#00539C;}</style><path class="icon-canvas-transparent" d="M16 16h-16v-16h16v16z" id="canvas"/><path class="icon-vs-out" d="M3.399 11.628l-3.399-3.394v-.828l4.988-4.988.798.798 3.216-3.216h.828l3.176 3.175.398-.398 2.596 2.595v.828l-1.58 1.58 1.58 1.581v.828l-3.394 3.392-.797-.798-3.216 3.217h-.828l-2.393-2h-1.372v-2.967l-.601.595z" id="outline"/><g id="colorImportance"><path class="icon-vs-action-blue" d="M6.584 9.606l.797-.606h-1.381v3h2.178l.799-.869 1.596 1.525-2.394 2.441-1.595-1.496.797-.601h-2.381v-4.381l-1.601 1.606-2.399-2.382 3.988-3.966 2.393 2.438-1.595 1.685h2.393l.798-.887 1.596 1.506-2.394 2.393-1.595-1.406zm2.393-3.997l.101.308-.078-.131v.262l1 .798v-.846h1.81l-.798.69 1.595 1.542 2.393-2.419-1.596-1.603-.798.79h-2.392l1.596-1.601-2.394-2.396-2.923 2.921 2.085 2.083.399-.398zm3.629 3.391h-.979l-.797 1h.979l-.798.685 1.595 1.54 2.394-2.421-1.596-1.6-.798.796z"/></g></svg>