<svg xmlns="http://www.w3.org/2000/svg" width="16" height="16" viewBox="0 0 16 16"><style type="text/css">.icon-canvas-transparent{opacity:0;fill:#F6F6F6;} .icon-vs-out{fill:#F6F6F6;} .icon-vs-bg{fill:#424242;} .icon-vs-fg{fill:#F0EFF1;} .icon-vs-action-blue{fill:#00539C;}</style><path class="icon-canvas-transparent" d="M16 16h-16v-16h16v16z" id="canvas"/><path class="icon-vs-out" d="M15 3.556v8.444c0 .97-.701 2-2 2h-3.019l-2.001 2h-.783l-2.002-2h-2.195v-1.959l-.182.182-2.818-2.806v-.829l3-3v-3.588c0-1.299 1.03-2 2-2h6.061l3.939 3.556z" id="outline"/><path class="icon-vs-bg" d="M14 4v8s-.035 1-1.035 1h-1.983l.037-.037-.965-.963h2.946v-7h-3v-3h-5v3.584l-.998-.998-.002.002v-2.588c0-1 .964-1 .964-1h5.677l3.359 3z" id="iconBg"/><path class="icon-vs-fg" d="M13 5v7h-2.946l-.671-.669 1.632-1.632-2.806-2.798-.944.948-2.265-2.265v-3.584h5v3h3z" id="iconFg"/><g id="colorImportance"><path class="icon-vs-action-blue" d="M9.604 12.964l-2.015 2.014-1.388-1.386.595-.592h-2.796v-3.363l-1.182 1.175-1.818-1.811 3.001-3.001 1.812 1.813-1.185 1.187h2.902l.682-.684 1.388 1.384-2.015 2.015-1.388-1.385.332-.33h-1.529v2h2.795l.42-.422 1.389 1.386z"/></g></svg>