<svg xmlns="http://www.w3.org/2000/svg" width="16" height="16" viewBox="0 0 16 16"><style type="text/css">.icon-canvas-transparent{opacity:0;fill:#F6F6F6;} .icon-vs-out{fill:#F6F6F6;} .icon-vs-bg{fill:#424242;} .icon-vs-fg{fill:#F0EFF1;} .icon-vs-action-blue{fill:#00539C;}</style><path class="icon-canvas-transparent" d="M16 16h-16v-16h16v16z" id="canvas"/><path class="icon-vs-out" d="M16 0v15h-15v-15h15z" id="outline"/><path class="icon-vs-bg" d="M2 1v13h13v-13h-13zm12 12h-11v-11h11v11z" id="iconBg"/><path class="icon-vs-fg" d="M3 2v11h11v-11h-11zm5 10h-3v-3h3v3zm0-4h-3v-3h3v3zm4 4h-3v-3h3v3zm0-4h-3v-3h3v3zm0-4h-7v-1h7v1z" id="iconFg"/><g id="colorImportance"><path class="icon-vs-action-blue" d="M12 3v1h-7v-1h7zm-7 2h3v3h-3v-3zm1 2h1v-1h-1v1zm3-2h3v3h-3v-3zm1 2h1v-1h-1v1zm-5 2h3v3h-3v-3zm1 2h1v-1h-1v1zm3-2h3v3h-3v-3zm1 2h1v-1h-1v1z"/></g></svg>