<svg xmlns="http://www.w3.org/2000/svg" viewBox="0 0 16 16"><style>.icon-canvas-transparent{opacity:0;fill:#f6f6f6}.icon-vs-out{fill:#f6f6f6}.icon-vs-fg{fill:#f0eff1}.icon-vs-action-blue{fill:#00539c}</style><path class="icon-canvas-transparent" d="M16 16H0V0h16v16z" id="canvas"/><path class="icon-vs-out" d="M16 13.1V15c-.4.6-1 1-1.7 1H8.8c-.8 0-1.4-.4-1.8-1-.4-.6-.4-1.4 0-2l1.8-3H0V0h15v10h-.8l1.8 3v.1z" id="outline"/><path class="icon-vs-fg" d="M8 7H7V6h3.2L9 3h1l1.2 3H13V2H2v6h6V7zM7 5V4h1v1H7zM6 4c-.3-.2-.6-.2-.9-.2-.4 0-.7.1-.9.3-.2.2-.3.5-.3.9s.1.7.3.9c.2.2.5.3.8.3.4 0 .7 0 1-.2v.8c-.3.1-.6.2-1.1.2-.6 0-1.1-.2-1.4-.5-.3-.4-.5-.8-.5-1.4 0-.6.2-1.1.6-1.5.4-.4.8-.6 1.5-.6.3 0 .6 0 .9.1V4zm4 8l1-1.7V8h1v2.3l1 1.7h-3" id="iconFg"/><path class="icon-vs-action-blue" d="M2 8h6v1H1V1h13v5h-1V2H2v6zm5-1h1V6H7v1zM3.6 3.6c-.4.4-.6.9-.6 1.5s.2 1 .5 1.4c.3.3.8.5 1.4.5.5 0 .8-.1 1.1-.2V6c-.3.2-.6.2-.9.2-.4 0-.6-.1-.8-.3-.3-.2-.4-.5-.4-.9s.1-.7.3-.9c.2-.2.5-.3.9-.3.3 0 .6 0 .9.2v-.9C5.7 3 5.4 3 5.1 3c-.7 0-1.1.2-1.5.6zM14.2 15H8.8c-.8 0-1.3-.8-.9-1.5L10 10V8H9V7h5v1h-1v2l2.1 3.5c.4.7-.1 1.5-.9 1.5zM13 12l-1-1.7V8h-1v2.3L10 12h3zm-1.8-6L10 3H9l1.2 3h1zM7 5h1V4H7v1z" id="colorImportance"/></svg>