<svg xmlns="http://www.w3.org/2000/svg" width="16" height="16"><style type="text/css">.icon-canvas-transparent{opacity:0;fill:#F6F6F6;} .icon-vs-out{fill:#F6F6F6;} .icon-vs-bg{fill:#424242;} .icon-vs-fg{fill:#F0EFF1;} .icon-vs-action-blue{fill:#00539C;}</style><path class="icon-canvas-transparent" d="M16 16h-16v-16h16v16z" id="canvas"/><path class="icon-vs-out" d="M16 7v5h-4v4h-5v-2h-5c-.97 0-2-.701-2-2v-10c0-1.299 1.03-2 2-2h6.061l3.939 3.556v3.444h4z" id="outline"/><path class="icon-vs-bg" d="M7 13h-5.036s-.964 0-.964-1v-10c0-1 .964-1 .964-1h5.676l3.36 3v3h-1v-2h-3v-3h-5v10h5v1zm-1-7v2h1v-1h1v-1h-2zm-3 2h2v-2h-2v2zm0 3h2v-2h-2v2z" id="iconBg"/><path class="icon-vs-fg" d="M10 5h-3v-3h-5v10h5v-4h-1v-2h2v1h2v-2zm-5 6h-2v-2h2v2zm0-3h-2v-2h2v2z" id="iconFg"/><path class="icon-vs-action-blue" d="M8 8h3v3h-3v-3zm4 0v3h3v-3h-3zm-4 7h3v-3h-3v3z" id="colorImportance"/></svg>