<svg xmlns="http://www.w3.org/2000/svg" viewBox="0 0 16 16"><style>.icon-canvas-transparent{opacity:0;fill:#f6f6f6}.icon-vs-out{fill:#f6f6f6}.icon-vs-bg{fill:#424242}.icon-vs-fg{fill:#f0eff1}.icon-vs-action-blue{fill:#00539c}</style><path class="icon-canvas-transparent" d="M16 16H0V0h16v16z" id="canvas"/><path class="icon-vs-out" d="M15.4 9.9L12 4.7V4h1V1H6v3h1v.7L5.5 7H1v9h7v-3h5.7c.7 0 1.4-.4 1.8-1 .3-.7.2-1.5-.1-2.1z" id="outline"/><path class="icon-vs-bg" d="M14.5 10.5L11 5V3h1V2H7v1h1v2L6.7 7h1.2L9 5.3V3h1v2.3L11.7 8H8v4h5.7c.8 0 1.2-.9.8-1.5z" id="iconBg"/><path class="icon-vs-fg" d="M4 13H3v1h1v-1zm2 0H5v1h1v-1zm0-4H3v3h3V9zm1.9-2L9 5.3V3h1v2.3L11.7 8H8l-.1-1z" id="iconFg"/><path class="icon-vs-action-blue" d="M2 8v7h5V8H2zm2 6H3v-1h1v1zm2 0H5v-1h1v1zm0-2H3V9h3v3z" id="colorImportance"/></svg>