<svg xmlns="http://www.w3.org/2000/svg" width="16" height="16"><style type="text/css">.icon-canvas-transparent{opacity:0;fill:#F6F6F6;} .icon-vs-out{fill:#F6F6F6;} .icon-vs-bg{fill:#424242;} .icon-vs-fg{fill:#F0EFF1;} .icon-vs-action-blue{fill:#00539C;}</style><path class="icon-canvas-transparent" d="M16 16h-16v-16h16v16zm0-16h-16v16h16v-16z" id="canvas"/><path class="icon-vs-out" d="M16 8c0 4.418-3.582 8-8 8-.495 0-.978-.052-1.448-.138l-.138.138h-3.828l-2.5-2.5 1.185-1.185c-.801-1.246-1.271-2.724-1.271-4.315 0-4.418 3.582-8 8-8s8 3.582 8 8z" id="outline"/><path class="icon-vs-bg" d="M14.988 7.763c-.126-3.755-3.202-6.763-6.988-6.763-3.866 0-7 3.134-7 7 0 .204.012.405.03.604l.07.532.002.018c.146.877.47 1.687.909 2.421l.575-.575h.519c-.262-.426-.474-.885-.618-1.375.798.244 1.712.479 2.744.644.047.242.124.488.185.731h.998l.166.166c-.069-.249-.157-.501-.212-.747.523.052 1.066.086 1.626.092l.403.002c.348 0 .699-.01 1.054-.027-.24.78-.598 1.636-1.018 2.534l.481.48-1.472 1.472c.184.016.37.028.558.028.231 0 .46-.013.685-.034 3.544-.345 6.315-3.331 6.315-6.966l-.012-.237zm-2.239-3.003c-.686.236-1.334.4-1.951.496-.214-1.031-.551-1.919-.917-2.685 1.176.408 2.179 1.18 2.868 2.189zm-5.481-2.458c.24-.031.483-.052.732-.052l.488.024c.468.812.944 1.846 1.221 3.108-.571.039-1.133.044-1.703.039-.6-.006-1.181-.047-1.739-.111.233-1.215.618-2.214 1.001-3.008zm-4.997 6.101l-.021-.403c0-.819.174-1.597.482-2.302.686.202 1.448.393 2.3.539-.042.405-.072.82-.077 1.257-.006.535.034 1.083.099 1.637-1.076-.196-2.006-.464-2.783-.728zm2.914-3.25c-.692-.12-1.325-.273-1.903-.435.647-.93 1.563-1.655 2.635-2.073-.29.723-.556 1.555-.732 2.508zm2.821 4.268c-.636-.007-1.248-.054-1.838-.123-.084-.61-.129-1.209-.123-1.793.004-.386.031-.755.067-1.114.603.068 1.23.113 1.882.12l.403.002c.488 0 .982-.016 1.487-.054.038.339.066.685.07 1.046.006.577-.068 1.202-.209 1.869-.583.042-1.157.05-1.739.047zm1.378 4.154c.546-1.146.967-2.215 1.238-3.193.894-.115 1.845-.343 2.886-.734-.578 1.936-2.151 3.439-4.124 3.927zm4.347-5.201c-1.038.452-1.972.722-2.848.863.11-.612.167-1.194.161-1.743-.004-.4-.035-.783-.076-1.156.727-.114 1.494-.308 2.316-.604.3.696.466 1.461.466 2.266l-.019.374z" id="iconBg"/><path class="icon-vs-fg" d="M10.969 6.338c.727-.114 1.494-.308 2.316-.604.299.696.465 1.461.465 2.266l-.019.374c-1.038.452-1.972.722-2.848.863.11-.612.167-1.194.161-1.743-.003-.4-.034-.782-.075-1.156zm-1.088-3.767c.366.766.703 1.653.917 2.685.617-.096 1.265-.26 1.951-.496-.689-1.009-1.692-1.781-2.868-2.189zm-1.448 10.448c.42-.898.778-1.754 1.018-2.534-.354.017-.706.027-1.054.027l-.403-.002c-.56-.006-1.103-.04-1.626-.092.055.246.143.498.212.747l1.853 1.854zm1.313-3.644c.141-.667.215-1.292.209-1.869-.004-.362-.032-.708-.07-1.046-.505.038-.999.053-1.488.053l-.403-.002c-.651-.007-1.279-.052-1.882-.12-.036.359-.063.728-.067 1.114-.006.584.039 1.183.123 1.793.59.069 1.202.116 1.838.123.582.003 1.156-.005 1.74-.046zm-2.478-7.073c-.383.794-.768 1.793-1.001 3.008.559.063 1.14.104 1.739.111.57.005 1.132 0 1.703-.039-.277-1.262-.753-2.296-1.221-3.108l-.488-.024c-.249 0-.492.021-.732.052zm-3.986 2.416c.578.162 1.211.315 1.903.435.176-.953.442-1.785.732-2.508-1.071.418-1.987 1.143-2.635 2.073zm-1.011 3.685c.777.264 1.707.532 2.783.728-.065-.554-.105-1.102-.099-1.637.005-.437.035-.852.077-1.258-.852-.146-1.614-.337-2.3-.539-.308.706-.482 1.484-.482 2.303l.021.403zm3.145 2.597c-.061-.243-.138-.489-.186-.731-1.032-.166-1.946-.4-2.744-.644.145.49.356.949.618 1.375h2.312zm8.092-1.353c-1.041.392-1.992.619-2.886.734-.271.979-.692 2.047-1.238 3.193 1.973-.487 3.546-1.99 4.124-3.927z" id="iconFg"/><path class="icon-vs-action-blue" d="M7.5 13.5l-1.5 1.5h-1l.979-1h-2.967l.988 1h-1l-1.5-1.5 1.5-1.5h1l-.988 1h2.968l-.98-1h1l1.5 1.5z" id="colorImportance"/></svg>