<svg xmlns="http://www.w3.org/2000/svg" width="16" height="16"><style type="text/css">.icon-canvas-transparent{opacity:0;fill:#F6F6F6;} .icon-vs-out{fill:#F6F6F6;} .icon-vs-bg{fill:#424242;} .icon-vs-fg{fill:#F0EFF1;} .icon-vs-action-blue{fill:#00539C;}</style><path class="icon-canvas-transparent" d="M16 16h-16v-16h16v16z" id="canvas"/><path class="icon-vs-out" d="M16 15h-12.586l-1 1h-2.032l.618-1.236v-1.764h-1v-1.236l1-2v-8.764h15v14z" id="outline"/><path class="icon-vs-bg" d="M2 2v5.764l.382-.764h.618v-2h3v2h1v-2h3v2h-3v1h3v2h-3v1h3v2h-3v-1.586l-1 1v.586h-.586l-1 1h10.586v-12h-13zm12 11h-3v-2h3v2zm0-3h-3v-2h3v2zm0-3h-3v-2h3v2zm-7 1.414v1.586h-1v-.586l1-1z" id="iconBg"/><path class="icon-vs-fg" d="M14 5v2h-3v-2h3zm-7 2h3v-2h-3v2zm0 3h3v-2h-3v2zm-4-3h3v-2h-3v2zm8 6h3v-2h-3v2zm-4 0h3v-2h-3v2zm-1-3v-.586l-.586.586h.586zm0 3v-.586l-.586.586h.586zm5-3h3v-2h-3v2z" id="iconFg"/><path class="icon-vs-action-blue" d="M2 15l1.5-3h-2.5l2-4h3l-3 3h3l-4 4z" id="colorImportance"/></svg>