<svg xmlns="http://www.w3.org/2000/svg" width="16" height="16"><style type="text/css">.icon-canvas-transparent{opacity:0;fill:#F6F6F6;} .icon-vs-out{fill:#F6F6F6;} .icon-vs-bg{fill:#424242;} .icon-vs-fg{fill:#F0EFF1;} .icon-vs-action-blue{fill:#00539C;}</style><path class="icon-canvas-transparent" d="M16 16h-16v-16h16v16z" id="canvas"/><path class="icon-vs-out" d="M16 14.99h-4.954v1.01h-11.046v-14.985h16v13.975z" id="outline"/><path class="icon-vs-bg" d="M15 2v12h-4v-1h3v-8h-12v3.994h-1v-6.994h14z" id="iconBg"/><path class="icon-vs-fg" d="M14 5v8h-3v-4h-9v-4h12zm-12 9h1v-2h1v2h1v-2h1v2h1v-2h1v2h1v-3h-7v3z" id="iconFg"/><path class="icon-vs-action-blue" d="M1 10l-.02 5h9.02v-5h-9zm8 3v1h-1v-2h-1v2h-1v-2h-1v2h-1v-2h-1v2h-1v-3h7v2z" id="colorImportance"/></svg>