<svg xmlns="http://www.w3.org/2000/svg" width="16" height="16"><style type="text/css">.icon-canvas-transparent{opacity:0;fill:#F6F6F6;} .icon-vs-out{fill:#F6F6F6;} .icon-vs-action-blue{fill:#00539C;}</style><path class="icon-canvas-transparent" d="M16 16h-16v-16h16v16z" id="canvas"/><path class="icon-vs-out" d="M12.5 2c-1.369 0-2.593.805-3.162 2h-.845c-.463-.617-1.198-1-1.993-1-1.378 0-2.5 1.122-2.5 2.5 0 1.244.916 2.27 2.107 2.46-.315.296-.58.644-.769 1.04h-.845c-.463-.617-1.198-1-1.993-1-1.378 0-2.5 1.121-2.5 2.5s1.122 2.5 2.5 2.5c.796 0 1.53-.383 1.994-1h.844c.569 1.195 1.792 2 3.162 2 1.93 0 3.5-1.57 3.5-3.5 0-.591-.161-1.14-.421-1.629.295.082.604.129.921.129 1.93 0 3.5-1.57 3.5-3.5s-1.57-3.5-3.5-3.5zm-4.007 5h.845l.077.137c-.293-.08-.596-.137-.915-.137h-.007z" id="outline"/><path class="icon-vs-action-blue" d="M8.5 8c-1.209 0-2.218.859-2.45 2h-2.142c-.206-.58-.756-1-1.408-1-.828 0-1.5.672-1.5 1.5 0 .83.672 1.5 1.5 1.5.652 0 1.202-.418 1.408-1h2.142c.232 1.141 1.241 2 2.45 2 1.381 0 2.5-1.119 2.5-2.5s-1.119-2.5-2.5-2.5zm0 4c-.828 0-1.5-.672-1.5-1.5s.672-1.5 1.5-1.5 1.5.672 1.5 1.5-.672 1.5-1.5 1.5zm4-9c-1.209 0-2.218.859-2.45 2h-2.142c-.206-.58-.756-1-1.408-1-.828 0-1.5.672-1.5 1.5 0 .83.672 1.5 1.5 1.5.652 0 1.202-.418 1.408-1h2.142c.232 1.141 1.241 2 2.45 2 1.381 0 2.5-1.119 2.5-2.5s-1.119-2.5-2.5-2.5zm0 4c-.828 0-1.5-.672-1.5-1.5s.672-1.5 1.5-1.5 1.5.672 1.5 1.5-.672 1.5-1.5 1.5z" id="colorImportance"/></svg>