<svg xmlns="http://www.w3.org/2000/svg" width="16" height="16"><style type="text/css">.icon-canvas-transparent{opacity:0;fill:#F6F6F6;} .icon-vs-out{fill:#F6F6F6;} .icon-vs-bg{fill:#424242;} .icon-vs-fg{fill:#F0EFF1;} .icon-vs-action-blue{fill:#00539C;}</style><path class="icon-canvas-transparent" d="M16 16h-16v-16h16v16zm0-16h-16v16h16v-16z" id="canvas"/><path class="icon-vs-out" d="M16 0v14h-5v1h-11v-15h16z" id="outline"/><path class="icon-vs-bg" d="M15 1v12h-4v-1h3v-8h-13v-3h14z" id="iconBg"/><path class="icon-vs-fg" d="M14 4v8h-3v-8h3z" id="iconFg"/><path class="icon-vs-action-blue" d="M1 9h1v1h-1v-1zm0 3h1v-1h-1v1zm0-4h1v-1h-1v1zm0-2h1v-1h-1v1zm0 8h1v-1h-1v1zm5-6.999h-1v.999h1v-.999zm-2 0h-1v.999h1v-.999zm2-2.001h-1v1h1v-1zm-3 9h1v-1h-1v1zm1-9h-1v1h1v-1zm5 5h1v-1h-1v1zm-4 4h1v-1h-1v1zm4 0h1v-1h-1v1zm0-9v1h1v-1h-1zm0 3h1v-1h-1v1zm0 4h1v-1h-1v1zm-2-6h1v-1h-1v1zm0 6v-3h-3v1h1.293l-1.293 1.293.707.707 1.293-1.293v1.293h1zm0 2h1v-1h-1v1zm0-6h1v-.999h-1v.999z" id="colorImportance"/></svg>