<svg xmlns="http://www.w3.org/2000/svg" width="16" height="16"><style type="text/css">.icon-canvas-transparent{opacity:0;fill:#F6F6F6;} .icon-vs-out{fill:#F6F6F6;} .icon-vs-bg{fill:#424242;} .icon-vs-action-blue{fill:#00539C;}</style><path class="icon-canvas-transparent" d="M16 16h-16v-16h16v16z" id="canvas"/><path class="icon-vs-out" d="M13.019 7.463c-.154.225-.61.871-2.019 2.857v4.68h-5v-4.68c-1.409-1.986-1.865-2.632-2.02-2.857-.57-.879-.98-1.737-.98-2.713 0-2.619 2.468-4.75 5.5-4.75s5.5 2.131 5.5 4.75c0 .976-.372 1.834-.981 2.713z" id="outline"/><path class="icon-vs-bg" d="M10 11v1h-3v-1h3zm-3 3h3v-1h-3v1z" id="iconBg"/><path class="icon-vs-action-blue" d="M12.226 6.854c-.022.042-2.225 3.146-2.225 3.146h-3.002s-2.203-3.104-2.225-3.146c-.487-.6-.774-1.324-.774-2.104 0-2.071 2.015-3.75 4.5-3.75s4.5 1.679 4.5 3.75c0 .78-.287 1.504-.774 2.104z" id="colorImportance"/></svg>