<svg xmlns="http://www.w3.org/2000/svg" width="16" height="16"><style type="text/css">.icon-canvas-transparent{opacity:0;fill:#F6F6F6;} .icon-vs-out{fill:#F6F6F6;} .icon-vs-bg{fill:#424242;} .icon-vs-fg{fill:#F0EFF1;} .icon-vs-action-blue{fill:#00539C;}</style><path class="icon-canvas-transparent" d="M16 16h-16v-16h16v16z" id="canvas"/><path class="icon-vs-out" d="M15 4.75c0 .976-.339 1.913-.979 2.713-.155.226-.602.859-2.021 2.858v4.679h-4v1h-6v-11h2.018l-.001-.03-.017-.22c0-2.619 2.467-4.75 5.5-4.75 3.032 0 5.5 2.131 5.5 4.75z" id="outline"/><path class="icon-vs-bg" d="M8 13h3v1h-3v-1zm0-1h3v-1h-3v1zm1.5-11c-2.485 0-4.5 1.679-4.5 3.75l.015.167h2.985v5.083h3.002s2.203-3.104 2.225-3.146c.486-.6.773-1.324.773-2.104 0-2.071-2.014-3.75-4.5-3.75z" id="iconBg"/><path class="icon-vs-fg" d="M4 11h2v1h-2v-1zm0 3h2v-1h-2v1zm0-7v2h2v-2h-2z" id="iconFg"/><path class="icon-vs-action-blue" d="M3 6v9h4v-9h-4zm3 8h-2v-1h2v1zm0-2h-2v-1h2v1zm0-3h-2v-2h2v2z" id="colorImportance"/></svg>