<svg xmlns="http://www.w3.org/2000/svg" width="16" height="16"><style type="text/css">.icon-canvas-transparent{opacity:0;fill:#F6F6F6;} .icon-vs-out{fill:#F6F6F6;} .icon-vs-bg{fill:#424242;} .icon-vs-fg{fill:#F0EFF1;} .icon-vs-action-blue{fill:#00539C;}</style><path class="icon-canvas-transparent" d="M16 16h-16v-16h16v16z" id="canvas"/><path class="icon-vs-out" d="M16 0v15h-7v1h-9v-8h1v-8h15z" id="outline"/><path class="icon-vs-bg" d="M11 12v-1h2v1h-2zm2-7h-6v2h6v-2zm-4 7h1v-1h-1v1zm-7-11v7h1v-4h11v9h-5v1h6v-13h-13zm2 5h2v-1h-2v1zm3 2h2v2h4v-2h-6z" id="iconBg"/><path class="icon-vs-fg" d="M3 4v4h10v2h-4v1h1v1h-1v1h5v-9h-11zm3 2h-2v-1h2v1zm7 6h-2v-1h2v1zm0-5h-6v-2h6v2zm-11 4h1v1h-1v-1zm2 2h1v1h-1v-1zm-2 0h1v1h-1v-1zm4-2h1v1h-1v-1zm-2 0h1v1h-1v-1zm2 2h1v1h-1v-1z" id="iconFg"/><path class="icon-vs-action-blue" d="M1 15h7v-6h-7v6zm5-4h1v1h-1v-1zm0 2h1v1h-1v-1zm-2-2h1v1h-1v-1zm0 2h1v1h-1v-1zm-2-2h1v1h-1v-1zm0 2h1v1h-1v-1z" id="colorImportance"/></svg>