<svg xmlns="http://www.w3.org/2000/svg" width="16" height="16"><style type="text/css">.icon-canvas-transparent{opacity:0;fill:#F6F6F6;} .icon-vs-out{fill:#F6F6F6;} .icon-vs-fg{fill:#F0EFF1;} .icon-vs-action-blue{fill:#00539C;}</style><path class="icon-canvas-transparent" d="M16 16h-16v-16h16v16z" id="canvas"/><path class="icon-vs-out" d="M16 2v13h-16v-13h5v-1h6v1h5z" id="outline"/><path class="icon-vs-fg" d="M2 10h2v1h-2v-1zm5 3h2v-1h-2v1zm-5-7h2v-2h-2v2zm0 7h2v-1h-2v1zm10-9v2h2v-2h-2zm0 9h2v-1h-2v1zm0-2h2v-1h-2v1zm-5 0h2v-1h-2v1zm0-7h2v-1h-2v1z" id="iconFg"/><path class="icon-vs-action-blue" d="M6 14h4v-12h-4v12zm1-11h2v1h-2v-1zm0 7h2v1h-2v-1zm0 2h2v1h-2v-1zm-6 2h4v-11h-4v11zm1-10h2v2h-2v-2zm0 6h2v1h-2v-1zm0 2h2v1h-2v-1zm9-9v11h4v-11h-4zm3 10h-2v-1h2v1zm0-2h-2v-1h2v1zm0-5h-2v-2h2v2z" id="colorImportance"/></svg>