<svg xmlns="http://www.w3.org/2000/svg" width="16" height="16"><style type="text/css">.icon-canvas-transparent{opacity:0;fill:#F6F6F6;} .icon-vs-out{fill:#F6F6F6;} .icon-vs-fg{fill:#F0EFF1;} .icon-vs-action-blue{fill:#00539C;}</style><path class="icon-canvas-transparent" d="M16 16h-16v-16h16v16z" id="canvas"/><path class="icon-vs-out" d="M16 3v13h-16v-16h10v3h6z" id="outline"/><path class="icon-vs-fg" d="M8 4h-6v-2h6v2zm-6 1v3h12v-3h-12zm8 4v1h3v-1h-3zm0 5h4v-3h-4v3z" id="iconFg"/><path class="icon-vs-action-blue" d="M9 4v-3h-8v7.004h9.014v.996h2.986v1h-2.986v1h3.986v3h-3.986v1h4.986v-11h-6zm-7-2h6v2h-6v-2zm12 6h-12v-3h12v3zm-10 2l3 2-3 2v-4zm-3-1h1v6h-1v-6zm7 0h1v6h-1v-6z" id="colorImportance"/></svg>