<svg xmlns="http://www.w3.org/2000/svg" width="16" height="16"><style type="text/css">.icon-canvas-transparent{opacity:0;fill:#F6F6F6;} .icon-vs-out{fill:#F6F6F6;} .icon-vs-bg{fill:#424242;} .icon-vs-fg{fill:#F0EFF1;} .icon-vs-action-blue{fill:#00539C;}</style><path class="icon-canvas-transparent" d="M16 16h-16v-16h16v16zm0-16h-16v16h16v-16z" id="canvas"/><path class="icon-vs-out" d="M16 8c0 4.418-3.582 8-8 8-.339 0-.672-.028-1-.069v.069h-7v-9h.069c.494-3.945 3.852-7 7.931-7 4.418 0 8 3.582 8 8z" id="outline"/><path class="icon-vs-bg" d="M14.988 7.764c-.126-3.756-3.202-6.764-6.988-6.764-3.526 0-6.434 2.609-6.92 6h1.265c.081-.454.208-.892.388-1.303.686.202 1.448.394 2.3.539-.026.246-.034.508-.048.764h1.09l.037-.609c.603.068 1.23.113 1.882.12l.403.003c.488 0 .982-.016 1.487-.055.038.34.066.686.07 1.047.006.577-.068 1.202-.209 1.869-.584.041-1.158.049-1.74.046-.341-.004-.676-.021-1.005-.045v1.079c.329.021.652.052.994.056l.403.002c.348 0 .699-.01 1.054-.027-.306.991-.759 2.077-1.353 3.26l-.098.004-.504-.025c-.188-.418-.342-.833-.496-1.248v2.441l.399.052c.199.018.398.03.601.03.231 0 .46-.013.685-.034 3.544-.345 6.315-3.331 6.315-6.966l-.012-.236zm-9.803-2.611c-.692-.12-1.325-.272-1.903-.435.647-.93 1.563-1.655 2.635-2.073-.29.723-.556 1.554-.732 2.508zm2.821.268c-.6-.007-1.181-.048-1.739-.11.233-1.216.618-2.215 1.001-3.009.24-.031.483-.052.732-.052l.488.024c.468.812.944 1.846 1.221 3.108-.571.039-1.133.044-1.703.039zm1.875-2.85c1.176.407 2.179 1.18 2.868 2.188-.686.236-1.334.4-1.951.496-.214-1.03-.551-1.918-.917-2.684zm-.497 11.004c.546-1.146.967-2.215 1.238-3.193.894-.115 1.845-.343 2.886-.734-.578 1.936-2.151 3.439-4.124 3.927zm4.347-5.201c-1.038.452-1.972.722-2.848.863.11-.612.167-1.194.161-1.743-.004-.4-.035-.782-.076-1.156.727-.113 1.494-.308 2.316-.604.3.696.466 1.461.466 2.266l-.019.374z" id="iconBg"/><path class="icon-vs-fg" d="M3 14h-1v-1h1v1zm2-1h-1v1h1v-1zm0-4h-3v3h3v-3zm6.045-1.506c.006.549-.051 1.131-.161 1.743.876-.142 1.81-.411 2.848-.863l.018-.374c0-.805-.166-1.57-.465-2.266-.822.296-1.59.49-2.316.604.041.374.072.756.076 1.156zm-1.164-4.923c.366.766.703 1.653.917 2.685.617-.096 1.265-.26 1.951-.496-.689-1.009-1.692-1.781-2.868-2.189zm-1.484 7.942l-.403-.002c-.342-.004-.665-.034-.994-.056v2.021c.154.415.308.83.496 1.248.166.015.334.026.504.026l.099-.005c.594-1.183 1.047-2.269 1.353-3.26-.355.018-.707.028-1.055.028zm1.488-4.054c-.505.039-.999.055-1.488.055l-.403-.003c-.651-.007-1.279-.052-1.882-.12l-.036.609h.924v2.376c.329.024.664.041 1.006.045.582.003 1.156-.005 1.74-.046.141-.667.215-1.292.209-1.869-.004-.361-.032-.707-.07-1.047zm-2.617-4.157c-.383.794-.768 1.793-1.001 3.009.559.063 1.14.104 1.739.11.57.005 1.132 0 1.703-.039-.277-1.262-.753-2.296-1.221-3.108l-.488-.024c-.249 0-.492.021-.732.052zm-3.986 2.416c.578.163 1.211.315 1.903.435.177-.954.442-1.785.732-2.509-1.071.419-1.987 1.144-2.635 2.074zm1.703 2.282c.014-.256.021-.518.047-.764-.852-.146-1.614-.337-2.3-.539-.179.411-.307.849-.387 1.303h2.64zm8.523 2.647c-1.041.392-1.992.619-2.886.734-.271.979-.692 2.047-1.238 3.193 1.973-.487 3.546-1.99 4.124-3.927z" id="iconFg"/><path class="icon-vs-action-blue" d="M1 8v7h5v-7h-5zm2 6h-1v-1h1v1zm2 0h-1v-1h1v1zm0-2h-3v-3h3v3z" id="colorImportance"/></svg>