<svg xmlns="http://www.w3.org/2000/svg" width="16" height="16"><style type="text/css">.icon-canvas-transparent{opacity:0;fill:#F6F6F6;} .icon-vs-out{fill:#F6F6F6;} .icon-vs-bg{fill:#424242;} .icon-vs-fg{fill:#F0EFF1;} .icon-vs-action-blue{fill:#00539C;}</style><path class="icon-canvas-transparent" d="M16 16h-16v-16h16v16z" id="canvas"/><path class="icon-vs-out" d="M16 1v14h-5v1h-11v-15h16z" id="outline"/><path class="icon-vs-bg" d="M15 2v12h-4v-1h3v-8h-12v4h-1v-7h14z" id="iconBg"/><path class="icon-vs-fg" d="M14 5v8h-3v-4h-9v-4h12zm-10 9v-3l-2 1.5 2 1.5zm3 0l2-1.5-2-1.5v3z" id="iconFg"/><path class="icon-vs-action-blue" d="M1 15h4v-5h-4v5zm3-4v3l-2-1.5 2-1.5zm2 4h4v-5h-4v5zm1-4l2 1.5-2 1.5v-3z" id="colorImportance"/></svg>