<svg xmlns="http://www.w3.org/2000/svg" width="16" height="16"><style type="text/css">.icon-canvas-transparent{opacity:0;fill:#F6F6F6;} .icon-vs-out{fill:#F6F6F6;} .icon-vs-fg{fill:#F0EFF1;} .icon-vs-action-blue{fill:#00539C;}</style><path class="icon-canvas-transparent" d="M16 16h-16v-16h16v16z" id="canvas"/><path class="icon-vs-out" d="M2 2.5l3.5-2.5h1l1.5 2.5 1.5-2.5h1l3.5 2.5v13.5h-12v-13.5z" id="outline"/><path class="icon-vs-fg" d="M7 14h-3v-3h3v3zm0-8h-3v3h3v-3zm5 5h-3v3h3v-3zm0-5h-3v3h3v-3z" id="iconFg"/><path class="icon-vs-action-blue" d="M12.2 3.05l-2.35-2.05-1.85 3.5-1.829-3.451-2.292 2.076 1.902 1.094 1.118.781h-3.899v10h10v-10h-3.833l1.146-.75 1.887-1.2zm-5.2 10.95h-3v-3h3v3zm0-5h-3v-3h3v3zm5 5h-3v-3h3v3zm0-5h-3v-3h3v3z" id="colorImportance"/></svg>