<svg xmlns="http://www.w3.org/2000/svg" viewBox="0 0 16 16"><style>.icon-canvas-transparent{opacity:0;fill:#f6f6f6}.icon-vs-out{fill:#f6f6f6}.icon-vs-bg{fill:#424242}.icon-vs-fg{fill:#f0eff1}.icon-vs-action-blue{fill:#00539c}</style><path class="icon-canvas-transparent" d="M16 16H0V0h16v16z" id="canvas"/><path class="icon-vs-out" d="M3 0v6H1v3h1v.7L.1 13c-.1 0-.1 0-.1.1V15c.4.6 1 1 1.7 1H14V0H3z" id="outline"/><path class="icon-vs-bg" d="M4 1v5h1V2h7v10H8.4l.6 1c.4.6.4 1.4 0 2h4V1H4zm8 13h-1v-1h1v1z" id="iconBg"/><path class="icon-vs-fg" d="M11 14h1v-1h-1v1zM5 2v4h3v3H7v.7L8.3 12H12V2H5zm0 6v2.3L6 12H3l1-1.7V8h1z" id="iconFg"/><path class="icon-vs-action-blue" d="M6 10V8h1V7H2v1h1v2L.9 13.5c-.4.7.1 1.5.9 1.5h5.5c.8 0 1.3-.8.9-1.5L6 10zm-3 2l1-1.7V8h1v2.3L6 12H3z" id="colorImportance"/></svg>