<svg xmlns="http://www.w3.org/2000/svg" width="16" height="16"><style type="text/css">.icon-canvas-transparent{opacity:0;fill:#F6F6F6;} .icon-vs-out{fill:#F6F6F6;} .icon-vs-fg{fill:#F0EFF1;} .icon-vs-action-blue{fill:#00539C;}</style><path class="icon-canvas-transparent" d="M16 16h-16v-16h16v16z" id="canvas"/><path class="icon-vs-out" d="M14 16h-11v-16h11v16z" id="outline"/><path class="icon-vs-fg" d="M12 12h-7v-10h7v10zm-6 1h-1v1h1v-1zm3 0h-1v1h1v-1zm3 0h-1v1h1v-1z" id="iconFg"/><path class="icon-vs-action-blue" d="M4 1v14h9v-14h-9zm2 13h-1v-1h1v1zm3 0h-1v-1h1v1zm3 0h-1v-1h1v1zm0-2h-7v-10h7v10z" id="colorImportance"/></svg>