<svg xmlns="http://www.w3.org/2000/svg" width="16" height="16"><style type="text/css">.icon-canvas-transparent{opacity:0;fill:#F6F6F6;} .icon-vs-out{fill:#F6F6F6;} .icon-vs-bg{fill:#424242;} .icon-vs-fg{fill:#F0EFF1;} .icon-vs-action-blue{fill:#00539C;}</style><path class="icon-canvas-transparent" d="M16 16h-16v-16h16v16z" id="canvas"/><path class="icon-vs-out" d="M16 0v15.977l-7 .023v-.023h-7.221c-.185-.038-.363-.092-.524-.156-.274-.109-.524-.271-.718-.48-.191-.202-.356-.444-.45-.713l-.087-.281v-3.579l.603-.298c.09-.061.384-.131.546-.203.14-.06.277-.109.429-.154.149-.045.307-.081.469-.111.2-.033.378-.05.551-.05.363 0 .692.058.979.173.152.06.292.136.423.226v-2.362h-4v-2.996h5v-4.993h11z" id="outline"/><path class="icon-vs-bg" d="M6 1v4h1v-3h7v10h-5.088c.053.281.088.571.088.865 0 .375-.04.739-.118 1.073-.088.373-.224.71-.404.991l-.056.071h6.578v-14h-9zm5 13h-1v-1h1v1zm3 0h-1v-1h1v1z" id="iconBg"/><path class="icon-vs-fg" d="M10 13h1v1h-1v-1zm3 1h1v-1h-1v1zm-6-12v3h3v3h-3v2.029c.308.03.598.097.847.258.287.183.529.41.713.723.157.269.272.574.344.91l.008.08h5.088v-10h-7z" id="iconFg"/><path class="icon-vs-action-blue" d="M9 7h-8v-1h8v1zm-5.121 4.832c.056.186.083.399.083.637v2.438h-.785v-.529h-.014c-.12.203-.267.357-.439.463-.173.106-.374.159-.604.159-.181 0-.339-.027-.479-.084-.141-.057-.258-.135-.351-.234-.095-.101-.167-.221-.216-.361-.049-.141-.074-.294-.074-.464 0-.164.021-.318.065-.461.044-.143.111-.269.205-.381.093-.113.212-.205.357-.279.146-.074.321-.125.525-.152l1.03-.154c0-.275-.058-.475-.174-.6-.117-.123-.281-.186-.494-.186-.214 0-.423.039-.627.117-.203.078-.386.182-.544.313v-.768l.213-.113.31-.109.362-.085.368-.033c.234 0 .438.033.608.102.171.067.313.165.424.294.112.128.196.286.251.47zm-.695 1.203l-.761.109c-.131.018-.237.045-.32.078-.083.035-.147.08-.195.133l-.098.18-.027.232.041.219.116.172.186.113.242.041c.124 0 .236-.023.337-.072.099-.049.184-.115.256-.199.072-.084.127-.184.165-.295.038-.113.059-.234.059-.365v-.346zm2.707-1.668c.067-.086.142-.16.226-.222.084-.063.176-.111.278-.147.102-.034.213-.052.336-.052.222 0 .413.05.573.153.159.101.291.239.395.415.103.176.178.379.228.611.048.234.073.479.073.736 0 .305-.031.584-.092.844-.062.26-.152.484-.272.672-.12.189-.268.338-.443.443-.176.107-.379.16-.609.16-.106 0-.204-.014-.292-.043-.087-.029-.167-.068-.238-.121l-.191-.185-.151-.229h-.015v.484h-.697v-5.886h.697v2.656h.013l.181-.289zm.029.604c-.072.102-.128.221-.168.359-.04.139-.061.295-.061.465v.506c0 .137.02.264.057.381.037.117.088.221.154.307.067.088.146.158.237.207.092.051.193.076.301.076.13 0 .245-.031.35-.092.104-.059.191-.148.264-.266.073-.117.129-.266.168-.445.04-.18.06-.387.06-.621 0-.184-.018-.348-.052-.494-.034-.147-.084-.272-.15-.377-.067-.104-.148-.184-.244-.238s-.205-.082-.327-.082c-.121 0-.231.027-.331.082-.102.054-.186.132-.258.232z" id="colorImportance"/></svg>