<svg xmlns="http://www.w3.org/2000/svg" width="16" height="16"><style type="text/css">.icon-canvas-transparent{opacity:0;fill:#F6F6F6;} .icon-vs-out{fill:#F6F6F6;} .icon-vs-bg{fill:#424242;} .icon-vs-fg{fill:#F0EFF1;} .icon-vs-action-blue{fill:#00539C;}</style><path class="icon-canvas-transparent" d="M16 16h-16v-16h16v16z" id="canvas"/><path class="icon-vs-out" d="M16 2v13h-9v1h-7v-14h5v-1h6v1h5z" id="outline"/><path class="icon-vs-bg" d="M1 7h4v-4h-4v4zm1-3h2v2h-2v-2zm9-1v11h4v-11h-4zm3 10h-2v-1h2v1zm0-2h-2v-1h2v1zm0-5h-2v-2h2v2zm-8 1h1v3h2v1h-2v1h2v1h-2v1h3v-12h-4v5zm1-4h2v1h-2v-1z" id="iconBg"/><path class="icon-vs-fg" d="M2 9h3v3h-3v-3zm2 5h1v-1h-1v1zm-2 0h1v-1h-1v1zm5-1h2v-1h-2v1zm5-9v2h2v-2h-2zm-8 0h-2v2h2v-2zm8 7h2v-1h-2v1zm0 2h2v-1h-2v1zm-5-9h2v-1h-2v1zm0 7h2v-1h-2v1z" id="iconFg"/><path class="icon-vs-action-blue" d="M1 8v7h5v-7h-5zm2 6h-1v-1h1v1zm2 0h-1v-1h1v1zm0-2h-3v-3h3v3z" id="colorImportance"/></svg>