<svg xmlns="http://www.w3.org/2000/svg" width="16" height="16"><style type="text/css">.icon-canvas-transparent{opacity:0;fill:#F6F6F6;} .icon-vs-out{fill:#F6F6F6;} .icon-vs-bg{fill:#424242;} .icon-vs-fg{fill:#F0EFF1;} .icon-vs-action-blue{fill:#00539C;}</style><path class="icon-canvas-transparent" d="M16 16h-16v-16h16v16z" id="canvas"/><path class="icon-vs-out" d="M16 0v16h-11v-.025c-2.803-.253-5-2.606-5-5.475 0-2.869 2.197-5.222 5-5.475v-5.025h11z" id="outline"/><path class="icon-vs-bg" d="M6 1v4.025c.344.031.677.096 1 .187v-3.212h7v10h-3.213c-.099.349-.231.683-.393 1h.606v1h-1v-.344c-.367.522-.822.977-1.344 1.344h6.344v-14h-9zm8 13h-1v-1h1v1z" id="iconBg"/><path class="icon-vs-fg" d="M14 2v10h-3.213c.136-.477.213-.979.213-1.5 0-2.517-1.692-4.634-4-5.288v-3.212h7zm-4 11.656v.344h1v-1h-.606c-.117.229-.248.447-.394.656zm3 .344h1v-1h-1v1zm-5.532-3.779c.004.35-.033.721-.104 1.111.559-.09 1.154-.263 1.817-.551l.012-.238c0-.514-.107-1.001-.297-1.443-.523.187-1.014.311-1.477.384.026.239.046.481.049.737zm-1.879 3.984c.379-.754.668-1.445.862-2.078-.226.012-.45.017-.672.017l-.257-.002c-.356-.002-.703-.024-1.036-.058.152.688.398 1.396.719 2.106l.321.018.063-.003zm1.051-2.792c.09-.426.137-.83.133-1.198-.002-.23-.02-.235-.045-.451-.321.023-.637.236-.948.236h-.257c-.416 0-.815-.236-1.199-.279-.024.228-.041.376-.043.621-.004.372.024.698.078 1.086.376.043.766.045 1.172.05.371.002.736-.039 1.109-.065zm-4.765-.612c.496.167 1.088.338 1.773.463-.041-.353-.066-.703-.063-1.043.003-.279.022-.543.049-.803-.542-.092-1.029-.214-1.466-.343-.196.45-.308.946-.308 1.468l.015.258zm2.512 3.224c-.28-.688-.495-1.368-.626-2.035-.658-.105-1.241-.256-1.75-.412.342 1.157 1.235 2.074 2.376 2.447zm4.652-2.432c-.665.25-1.271.396-1.84.468-.174.625-.441 1.306-.789 2.037 1.257-.312 2.259-1.271 2.629-2.505zm-2.303-4.54c.235.492.451 1.064.589 1.726.398-.062.813-.168 1.255-.32-.444-.647-1.087-1.145-1.844-1.406zm-1.707-.216c-.246.511-.494 1.152-.644 1.934.359.041.733.066 1.119.07.366.004.728 0 1.095-.025-.179-.81-.485-1.474-.786-1.997l-.313-.015c-.16 0-.317.013-.471.033zm-2.535 1.596c.372.105.779.202 1.223.28.114-.613.284-1.148.471-1.612-.688.267-1.277.734-1.694 1.332z" id="iconFg"/><path class="icon-vs-action-blue" d="M10 10.5l-.008-.152c-.081-2.414-2.057-4.348-4.492-4.348-2.485 0-4.5 2.015-4.5 4.5l.02.389.045.341.002.013c.313 1.891 1.803 3.38 3.696 3.691l.013.002.338.045.386.019.439-.021c2.279-.223 4.061-2.142 4.061-4.479zm-2.592-1.067c.467-.073.961-.198 1.489-.388.191.445.299.937.299 1.455l-.012.24c-.668.291-1.269.465-1.831.555.07-.393.108-.768.104-1.119-.002-.259-.023-.503-.049-.743zm1.145-1.017c-.442.152-.857.258-1.255.319-.138-.661-.354-1.233-.589-1.725.757.261 1.4.759 1.844 1.406zm-3.053 5.78l-.324-.018c-.323-.717-.571-1.43-.725-2.124.336.033.686.057 1.045.059l.259.002.678-.017c-.196.638-.487 1.335-.87 2.095l-.063.003zm.004-2.782c-.41-.006-.802-.035-1.182-.079-.054-.392-.083-.778-.079-1.153.002-.247.02-.507.043-.737.388.043.791.055 1.21.055h.259c.314 0 .632.012.956-.012.025.219.044.451.046.683.004.372-.044.778-.135 1.208-.376.025-.744.037-1.118.035zm-.004-4.61l.313.016c.301.522.607 1.186.786 1.996-.368.026-.729.03-1.095.026-.386-.004-.759-.029-1.119-.07.15-.782.398-1.424.644-1.935.154-.02.311-.033.471-.033zm-1.339.254c-.186.464-.357.999-.471 1.612-.444-.078-.851-.175-1.223-.28.417-.598 1.006-1.065 1.694-1.332zm-2.357 3.442c0-.525.112-1.025.31-1.48.44.131.932.254 1.478.346-.027.262-.046.528-.049.811-.004.342.021.694.063 1.051-.691-.126-1.288-.299-1.788-.467l-.014-.261zm.151 1.044c.513.157 1.101.31 1.765.415.132.673.349 1.359.631 2.053-1.151-.377-2.051-1.301-2.396-2.468zm4.436 2.54c.35-.737.62-1.424.795-2.054.574-.073 1.186-.22 1.855-.472-.372 1.245-1.383 2.213-2.65 2.526z" id="colorImportance"/></svg>