<svg xmlns="http://www.w3.org/2000/svg" width="16" height="16"><style type="text/css">.icon-canvas-transparent{opacity:0;fill:#F6F6F6;} .icon-vs-out{fill:#F6F6F6;} .icon-vs-bg{fill:#424242;} .icon-vs-fg{fill:#F0EFF1;} .icon-vs-action-blue{fill:#00539C;}</style><path class="icon-canvas-transparent" d="M16 16h-16v-16h16v16z" id="canvas"/><path class="icon-vs-out" d="M14.997.016l-.025 15.984h-14.972v-10h4l.004-6 10.993.016z" id="outline"/><path class="icon-vs-bg" d="M5 1v5h1v-4h7v10h-3v3h4v-14h-9zm8 13h-1v-1h1v1z" id="iconBg"/><path class="icon-vs-fg" d="M12 13h1v1h-1v-1zm-6-11v4h4v6h3v-10h-7zm2 7v5h-6v-5h6zm-5 2h1v-1h-1v1zm1 2v-1h-1v1h1zm3-1h-2v1h2v-1zm0-2h-2v1h2v-1z" id="iconFg"/><path class="icon-vs-action-blue" d="M7 11h-2v-1h2v1zm-3-1h-1v1h1v-1zm3 2h-2v1h2v-1zm2-5v8h-8v-8h8zm-1 2h-6v5h6v-5zm-4 3h-1v1h1v-1z" id="colorImportance"/></svg>