<svg xmlns="http://www.w3.org/2000/svg" width="16" height="16"><style type="text/css">.icon-canvas-transparent{opacity:0;fill:#F6F6F6;} .icon-vs-out{fill:#F6F6F6;} .icon-vs-fg{fill:#F0EFF1;} .icon-vs-action-blue{fill:#00539C;}</style><path class="icon-canvas-transparent" d="M16 16h-16v-16h16v16z" id="canvas"/><path class="icon-vs-out" d="M13 2.586v11.828l-1.586 1.586h-7.828l-1.586-1.586v-11.828l1.586-1.586h1.414v-1h5v1h1.414l1.586 1.586z" id="outline"/><path class="icon-vs-fg" d="M5 13h2v1h-2v-1zm0-1h2v-1h-2v1zm0-2h2v-1h-2v1zm6-7v5h-7v-5h7zm-4 3h-2v1h2v-1zm0-2h-2v1h2v-1z" id="iconFg"/><path class="icon-vs-action-blue" d="M11 2h-2v-1h-3v1h-2l-1 1v11l1 1h7l1-1v-11l-1-1zm-4 12h-2v-1h2v1zm0-2h-2v-1h2v1zm0-2h-2v-1h2v1zm4-2h-7v-5h7v5zm-4-3h-2v-1h2v1zm0 2h-2v-1h2v1z" id="colorImportance"/></svg>