<svg xmlns="http://www.w3.org/2000/svg" width="16" height="16"><style type="text/css">.icon-canvas-transparent{opacity:0;fill:#F6F6F6;} .icon-vs-out{fill:#F6F6F6;} .icon-vs-bg{fill:#424242;} .icon-vs-fg{fill:#F0EFF1;} .icon-vs-action-blue{fill:#00539C;}</style><path class="icon-canvas-transparent" d="M16 16h-16v-16h16v16z" id="canvas"/><path class="icon-vs-out" d="M4 15c-.97 0-2-.701-2-2v-10c0-1.299 1.03-2 2-2h6.061l3.939 3.556v8.444c0 .97-.701 2-2 2h-8z" id="outline"/><path class="icon-vs-bg" d="M9.641,2H3.964C3.964,2,3,2,3,3c0,0.805,0,7.442,0,10c0,1,0.964,1,0.964,1s7,0,8,0
		S13,13,13,13V5L9.641,2z M12,13H4V3h5v3h3V13z" id="iconBg"/><path class="icon-vs-fg" d="M9 6v-3h-5v10h8v-7h-3zm1.861 3.495c-.093.255-.215.469-.362.644-.15.172-.319.303-.509.391-.188.089-.38.132-.575.132-.258 0-.454-.073-.591-.22-.138-.145-.206-.345-.206-.595h-.017c-.038.131-.09.246-.158.346-.066.1-.143.185-.232.254-.086.068-.185.12-.288.154-.105.036-.216.055-.333.055-.15 0-.293-.029-.427-.086-.137-.055-.254-.141-.356-.255-.1-.116-.181-.258-.24-.431-.059-.172-.089-.372-.089-.602 0-.271.037-.522.113-.755.073-.233.176-.435.311-.604.135-.17.293-.303.48-.399.185-.097.391-.144.615-.144l.246.032.206.094.155.143.091.188h.013l.036-.4h.612l-.018.23-.032.364-.037.431-.038.429-.027.354-.012.217.026.328.073.203.11.105.143.03c.105 0 .205-.033.303-.1.097-.065.184-.162.257-.289.073-.127.134-.279.179-.463.046-.182.068-.388.068-.617 0-.16-.018-.325-.051-.494-.035-.167-.089-.33-.164-.488-.076-.156-.173-.304-.292-.444-.118-.139-.259-.259-.429-.364-.167-.103-.361-.186-.58-.246-.217-.062-.469-.091-.749-.091-.349 0-.674.065-.971.196-.298.132-.553.314-.77.543-.215.23-.384.502-.505.816-.122.314-.182.653-.182 1.016 0 .346.054.665.162.955.109.291.266.539.472.749.206.207.455.37.75.487.296.117.631.176 1.005.176.168 0 .325-.006.467-.022l.403-.06.347-.095.309-.122v.568l-.251.094-.341.083-.443.061c-.164.016-.348.023-.549.023-.437 0-.84-.067-1.205-.202-.363-.136-.68-.328-.945-.58-.265-.252-.472-.554-.618-.908-.148-.353-.221-.749-.221-1.184 0-.289.032-.565.099-.832.065-.265.161-.514.285-.746.123-.231.275-.442.457-.633s.387-.354.615-.489c.229-.135.48-.24.756-.315.275-.074.568-.111.883-.111.4 0 .775.06 1.126.18.352.119.658.29.922.514.263.223.473.496.627.817.152.322.23.686.23 1.09 0 .339-.047.636-.139.894zm-2.29-1.2c.03.089.047.196.047.321 0 .211-.019.41-.053.593-.037.186-.09.345-.164.479-.073.136-.164.242-.272.321-.109.076-.235.117-.381.117-.08 0-.158-.017-.229-.053-.073-.034-.137-.086-.193-.154-.054-.068-.099-.156-.132-.26-.03-.102-.047-.222-.047-.363 0-.158.018-.32.053-.486.038-.165.091-.315.167-.451.073-.134.167-.242.278-.328.109-.085.24-.128.387-.128l.227.042c.071.028.132.071.186.131.054.057.097.132.126.219z" id="iconFg"/><path class="icon-vs-action-blue" d="M10.771 7.511c-.154-.322-.364-.595-.627-.817-.264-.224-.571-.395-.922-.514-.351-.12-.726-.18-1.127-.18-.315 0-.608.037-.883.111-.275.075-.527.18-.756.315-.228.135-.434.298-.615.49-.182.19-.334.401-.457.633-.124.231-.22.48-.285.745-.067.267-.099.543-.099.832 0 .435.073.831.221 1.184.146.354.354.656.618.908.265.252.582.444.945.58.365.135.768.202 1.205.202.202 0 .385-.007.549-.023l.443-.061.341-.083.251-.094v-.568l-.309.122-.347.095-.403.06c-.143.017-.299.022-.467.022-.374 0-.709-.059-1.005-.176-.295-.117-.545-.28-.75-.487-.206-.21-.363-.458-.472-.749-.108-.29-.162-.609-.162-.955 0-.363.06-.702.182-1.015.122-.313.29-.586.505-.816.217-.23.472-.412.771-.543.297-.131.623-.196.971-.196.28 0 .531.029.749.091.218.061.413.144.58.246.17.105.311.226.429.365.119.139.216.287.292.444.075.158.129.321.164.488.033.169.051.333.051.494 0 .229-.023.436-.068.617-.045.184-.105.336-.179.463-.073.127-.16.224-.257.289-.098.066-.197.1-.303.1l-.143-.03-.11-.105-.073-.205-.027-.328.012-.217.027-.354.037-.429.039-.431.032-.364.018-.23h-.613l-.036.4h-.013l-.091-.188-.155-.143-.206-.094-.246-.032c-.224 0-.43.047-.615.144-.188.096-.346.229-.481.399-.134.169-.237.37-.311.604-.075.233-.112.484-.112.755 0 .229.03.43.089.602.059.173.141.314.24.431.102.114.219.2.356.255.133.057.277.086.427.086.117 0 .228-.019.333-.055.103-.034.201-.086.288-.154.089-.069.166-.154.232-.254.068-.1.121-.215.158-.346h.017c0 .25.068.449.206.595.137.147.333.22.591.22.195 0 .387-.043.575-.132.189-.088.358-.219.509-.391.148-.175.27-.389.362-.644.092-.258.139-.555.139-.894 0-.404-.078-.768-.229-1.09zm-2.206 1.699c-.037.186-.09.345-.164.479-.073.136-.164.242-.272.321-.109.076-.235.117-.381.117-.08 0-.158-.017-.229-.053-.073-.034-.137-.086-.193-.154-.054-.068-.099-.156-.132-.26-.03-.103-.047-.223-.047-.364 0-.158.018-.32.053-.486.038-.165.091-.315.167-.451.073-.134.167-.242.278-.328.109-.085.24-.128.387-.128l.227.042c.071.028.132.071.186.131.054.058.097.132.125.22.03.089.047.196.047.321.001.211-.018.409-.052.593z" id="colorImportance"/></svg>