<svg xmlns="http://www.w3.org/2000/svg" width="16" height="16"><style type="text/css">.icon-canvas-transparent{opacity:0;fill:#F6F6F6;} .icon-vs-out{fill:#F6F6F6;} .icon-vs-fg{fill:#F0EFF1;} .icon-vs-action-blue{fill:#00539C;}</style><path class="icon-canvas-transparent" d="M16 16h-16v-16h16v16z" id="canvas"/><path class="icon-vs-out" d="M16 12h-6v4h-10v-14h2v-2h8v2h6v10z" id="outline"/><path class="icon-vs-fg" d="M8 4.002v-2.002h-4v2h-2v4h8v2h4v-6l-6 .002zm-3 4h-2v-2h2v2zm4 0h-2v-2h2v2zm4 0h-2v-2h2v2z" id="iconFg"/><path class="icon-vs-action-blue" d="M4 10l3 2-3 2v-4zm-3 5h1v-6h-1v6zm7 0h1v-6h-1v6zm-3-8.998h-2v2h2v-2zm4-3.002v-2h-6v2h-2v5h1v-4h2v-2h4v2h6v6h-4v1h5v-8h-6zm2 3.002v2h2v-2h-2zm-4 2h2v-2h-2v2z" id="colorImportance"/></svg>