<svg xmlns="http://www.w3.org/2000/svg" width="16" height="16"><style type="text/css">.icon-canvas-transparent{opacity:0;fill:#F6F6F6;} .icon-vs-out{fill:#F6F6F6;} .icon-vs-fg{fill:#F0EFF1;} .icon-vs-action-blue{fill:#00539C;}</style><path class="icon-canvas-transparent" d="M16 16h-16v-16h16v16z" id="canvas"/><path class="icon-vs-out" d="M12.023 0h-6.059c-.952 0-1.964.701-1.964 2v1h-4v3h1v2h-1v8h13v-2h.965c1.442 0 2.007-1.175 2.035-2v-8.448l-3.977-3.552z" id="outline"/><path class="icon-vs-fg" d="M14 5v7h-1v-5h-7v-5h5v3h3zm-8 6h-1v1h1v-1zm4 0h-1v1h1v-1z" id="iconFg"/><path class="icon-vs-action-blue" d="M4 5h-3v-1h3v1zm0 1.022h-2v.978h2v-.978zm-3 7.978v1h11v-1h-11zm11-5v-1h-11v1h11zm-8 1h3v3h-3v-3zm1 2h1v-1h-1v1zm6-2v3h-3v-3h3zm-1 1h-1v1h1v-1zm1.641-10h-5.677s-.964 0-.964 1v5h1v-5h5v3h3v7h-1v1h.965c1 0 1.035-1 1.035-1v-8l-3.359-3z" id="colorImportance"/></svg>