<svg xmlns="http://www.w3.org/2000/svg" width="16" height="16"><style type="text/css">.icon-canvas-transparent{opacity:0;fill:#F6F6F6;} .icon-vs-out{fill:#F6F6F6;} .icon-vs-fg{fill:#F0EFF1;} .icon-vs-action-blue{fill:#00539C;}</style><path class="icon-canvas-transparent" d="M16 16h-16v-16h16v16z" id="canvas"/><path class="icon-vs-out" d="M15.413 6.086c0 3.033-2.467 5.5-5.5 5.5-.625 0-1.224-.109-1.783-.303l-4.717 4.717-3.413-3.414 4.716-4.717c-.193-.56-.303-1.158-.303-1.783 0-3.033 2.468-5.5 5.5-5.5 3.033 0 5.5 2.467 5.5 5.5z" id="outline"/><path class="icon-vs-action-blue" d="M9.913 1.586c-2.484 0-4.5 2.015-4.5 4.5 0 .725.188 1.4.493 2.008l-4.492 4.492 1.999 2 4.493-4.492c.606.305 1.281.492 2.007.492 2.486 0 4.5-2.015 4.5-4.5s-2.014-4.5-4.5-4.5zm0 7c-1.381 0-2.5-1.119-2.5-2.5s1.119-2.5 2.5-2.5 2.5 1.119 2.5 2.5-1.119 2.5-2.5 2.5z" id="colorImportance"/><path class="icon-vs-fg" d="M9.913 8.586c-1.381 0-2.5-1.119-2.5-2.5s1.119-2.5 2.5-2.5 2.5 1.119 2.5 2.5-1.119 2.5-2.5 2.5z" id="iconFg"/></svg>