<svg xmlns="http://www.w3.org/2000/svg" width="16" height="16"><style type="text/css">.icon-vs-out{fill:#F6F6F6;} .icon-vs-fg{fill:#F0EFF1;} .icon-vs-action-blue{fill:#00539C;}</style><path class="icon-vs-out" d="M16 0v16h-16v-16h16z" id="outline"/><path class="icon-vs-fg" d="M6 12h8v2h-8v-2zm-3-6h-1v1h1v-1zm-1 8h3v-6h-3v6zm4-4v1h1v-1h-1zm-4-6v1h4v4h8v-5h-12z" id="iconFg"/><path class="icon-vs-action-blue" d="M1 1v14h14v-14h-14zm1 5h1v1h-1v-1zm3 8h-3v-6h3v6zm9 0h-8v-2h8v2zm-8-3v-1h1v1h-1zm8-2h-8v-4h-4v-1h12v5z" id="colorImportance"/></svg>