<svg xmlns="http://www.w3.org/2000/svg" width="16" height="16"><style type="text/css">.icon-canvas-transparent{opacity:0;fill:#F6F6F6;} .icon-vs-out{fill:#F6F6F6;} .icon-vs-fg{fill:#F0EFF1;} .icon-vs-action-blue{fill:#00539C;}</style><path class="icon-canvas-transparent" d="M16 16h-16v-16h16v16z" id="canvas"/><path class="icon-vs-out" d="M10.964 16c-.952 0-1.964-.701-1.964-2h-1.01c-.029.825-.596 2-2.037 2h-3c-.952 0-1.953-.701-1.953-2v-4c0-1.299 1.001-2 1.953-2h2.834l1.213 1.536v-1.536h-.036c-.952 0-1.964-.701-1.964-2v-4c0-1.299 1.011-2 1.963-2h2.834l2.203 2.789v3.211c-.029.818-.585 1.98-2 2v.247c.299-.163.635-.247.963-.247h2.834l2.203 2.789v3.211c-.029.825-.595 2-2.036 2h-3z" id="outline"/><path class="icon-vs-fg" d="M7 2h2v1h1v3h-3v-4zm-4 12h3v-3h-1v-1h-2v4zm8 0h3v-3h-1v-1h-2v4z" id="iconFg"/><path class="icon-vs-action-blue" d="M13.313,9h-2.35c0,0-0.963,0-0.963,1c0,0.533,0,1.006,0,2H9V7
		c0.354,0,0.695,0,0.964,0C10.964,7,11,6,11,6V3.136L9.313,1h-2.35C6.963,1,6,1,6,2c0,0.805,0,1.442,0,4c0,1,0.964,1,0.964,1
		S7.42,7,8,7v5H7v-0.863L5.302,9h-2.35C2.953,9,2,9,2,10c0,0.805,0,1.442,0,4c0,1,0.954,1,0.954,1s2,0,3,0S7,14,7,14v-1h3
		c0,0.3,0,0.624,0,1c0,1,0.964,1,0.964,1s2,0,3,0S15,14,15,14v-2.863L13.313,9z M7,6V2h2v1h1v2v1H9H8H7z M6,13v1H3v-4h2v1h1V13z
		 M14,13v1h-3v-1v-1v-2h2v1h1V13z" id="colorImportance"/></svg>