<svg xmlns="http://www.w3.org/2000/svg" width="16" height="16"><style type="text/css">.icon-canvas-transparent{opacity:0;fill:#F6F6F6;} .icon-vs-out{fill:#F6F6F6;} .icon-vs-bg{fill:#424242;} .icon-vs-action-blue{fill:#00539C;} .st0{fill:#F0EFF1;}</style><path class="icon-canvas-transparent" d="M16 16h-16v-16h16v16z" id="canvas"/><path class="icon-vs-out" d="M16 6.254c0 3.234-2.424 5.908-5.64 6.221-.092.009-.441-.021-.796-.058-.128.141-.253.284-.359.421-.533.685-1.037 1.273-1.71 1.559-.336.142-.606.223-.827.309-.012.125-.043.239-.111.372-.039.142-.231.7-.879.864-.174.042-.362.058-.559.058-1.167 0-2.89-.798-4.11-2.582-.847-1.234-1.185-2.645-.921-3.814-.115-2.184.903-3.352 1.79-3.952.33-.266.996-.736 1.865-1.113.744-2.617 3.153-4.539 6.007-4.539 3.386 0 6.127 2.655 6.24 6.041l.01.213z" id="outline"/><path class="icon-vs-bg" d="M4.561 6.991c.411-.022.919-.115 1.553-.148.213-.024.406.046.59.072.234.058.471.114.729.164-.358.195-.671.399-.923.631-.248-.049-.423-.189-.615-.266-.32-.126-.723-.398-1.332-.433l-.002-.02zm10.439-.735c0 2.123-1.269 3.938-3.083 4.765.049-.153.071-.291.079-.38l.003-.263-.029-.439c.907-.547 1.602-1.412 1.911-2.449-.751.283-1.437.447-2.084.536-.087-.202-.309-.595-.706-.929.08-.428.13-.836.126-1.213-.004-.271-.024-.531-.053-.785-.379.029-.75.041-1.116.041l-.302-.002-.133-.008c-.373-.281-.833-.553-1.43-.791-.607-.241-1.249-.363-1.912-.363-.461 0-.9.065-1.318.162.815-1.843 2.652-3.133 4.797-3.133 2.84 0 5.146 2.256 5.241 5.073l.009.178zm-6.812-4.017c-.803.313-1.49.857-1.976 1.554.434.123.908.237 1.427.328.132-.716.332-1.339.549-1.882zm2.843 2.053c-.207-.946-.564-1.722-.915-2.33l-.366-.019c-.187 0-.369.016-.549.039-.287.595-.576 1.345-.751 2.256.419.048.854.079 1.304.083.428.004.85 0 1.277-.029zm.818-.095c.463-.072.948-.195 1.463-.372-.517-.756-1.268-1.336-2.151-1.641.275.574.527 1.24.688 2.013zm2.214 2.059c0-.604-.125-1.178-.349-1.699-.616.221-1.192.367-1.737.453.031.279.055.566.057.867.005.41-.037.848-.12 1.307.657-.106 1.356-.309 2.136-.648l.013-.28z" id="iconBg"/><path class="st0" d="M11.977 5.01c.545-.086 1.057-.232 1.674-.453.223.521.399 1.096.399 1.699v.279c-.779.34-1.479.542-2.137.648.083-.459.125-.896.12-1.307-.002-.3-.025-.587-.056-.866zm-.817-2.826c.275.574.527 1.24.688 2.013.463-.072.948-.195 1.463-.372-.516-.756-1.268-1.336-2.151-1.641zm-.232 4.771l.163.143c.08-.428.13-.836.126-1.213-.004-.271-.024-.531-.053-.785-.379.029-.75.056-1.116.056h-.302l-.105-.006c.812.621 1.156 1.295 1.287 1.805zm-1.727-4.973c-.287.595-.576 1.362-.751 2.273.419.048.851.096 1.3.1.428.004.852-.035 1.279-.064-.207-.946-.563-1.722-.913-2.33l-.366-.018c-.187 0-.369.016-.549.039zm-2.989 1.811c.434.123.908.237 1.427.328.133-.715.332-1.339.549-1.881-.803.312-1.491.856-1.976 1.553zm5.585 4.232l.052.127.119 1.761c.904-.559 1.605-1.432 1.912-2.458-.753.283-1.435.48-2.083.57z" id="iconFg"/><path class="icon-vs-action-blue" d="M11 10.322c-.031.35-.596.135-.984.271-1.078.371-1.985 2.432-2.911 2.824-1.002.424-1.443.563-1.459.563-.063.078.057.557.021.625-.057.137-.081.32-.235.359-.771.195-2.434-.41-3.598-2.111-.865-1.262-.945-2.434-.738-3.156-.117-1.509.373-2.562 1.342-3.217.06-.039 2.662-2.292 5.375-1.212 2.25.896 2.207 2.203 2.193 2.359.648.145.9.857.9.857s-.797-.516-.922-.359c-.166.604-.591.553-.925.643.248.01.867-.006 1.484.502.395.324.481.777.457 1.052zm-8.75-2.842c-.484.458-.126 1.354.104 1.479.322-.191 1.023-.578 1.625-.646 1.455-.163 1.403.412 2.896.521 1.16-1.309 2.484-1.289 2.484-1.318.012-.528-.584-1.834-3.359-1.516-2.863.148-3.75 1.48-3.75 1.48zm1.607 5.862c.055-.369.035-1.08-.607-2.092-.217-.342-.906-.262-1.25-.25-.357 1.486.678 2.531 1.199 2.727.1 0 .58.134.658-.385zm1.413-1.926c.34-1.131.626-1.498 1.147-2.041-.904.029-2.938-.457-3.438.209.438.813 1.146 1.813 1.65 2.645.201-.276.543-.483.641-.813zm4.703-2.125c-.231-.252-1.045-.281-1.194-.301-.037.049-1.176.727-2.113 1.928-.238.303-.613.938-.885 1.311-.039.225-.059.459-.049.674l.006.088c.866-.053 1.345-1.082 1.804-1.678.207-.264.819-1.029 1.646-1.332.519-.196 1.242-.186.785-.69z" id="colorImportance"/></svg>