<svg xmlns="http://www.w3.org/2000/svg" width="16" height="16"><style type="text/css">.icon-canvas-transparent{opacity:0;fill:#F6F6F6;} .icon-vs-out{fill:#F6F6F6;} .icon-vs-action-blue{fill:#00539C;}</style><path class="icon-canvas-transparent" d="M16 16h-16v-16h16v16z" id="canvas"/><path class="icon-vs-out" d="M16 5.5c0-.191-.113-1.053-1.436-1.714-.486-1.945-2.428-3.786-6.064-3.786-3.679 0-6.169 2.327-6.44 2.593-.951.927-2.06 2.446-2.06 5.407 0 1.227.25 3.042 1.209 4.539 1.446 2.259 4.003 3.461 5.291 3.461.867 0 1.507-.252 1.903-.749.181-.227.363-.577.387-1.08.952-.548 2.021-1.189 3.11-2.278.438-.438 1.818-1.778 2.497-2.017.6-.209 1.603-.561 1.603-1.626 0-.851-.575-1.449-.887-1.755.504-.052.887-.477.887-.995zm-4.852-1.615c-.688.209-1.632.923-1.641.92-1.234-.414-3.693-.844-5.281-.75 1.946-.875 6.212-.875 6.922-.17zm-7.646 6.669c-.018.173.24.626.124 1.158-.084-.107-.407-.431-.37-1.266l.246.108zm2.269-2.094c.267-.054.497-.085.759-.105-.113.223-.231.498-.344.79l-.415-.685z" id="outline"/><path class="icon-vs-action-blue" d="M10.58 6.539c.065-.115.388-.442.444-.493-.002 0 1.164.012 1.97-.116.38-.061.828-.414.914-1.008.789-.023 1.258.617 1.258.617s-.32-.93-1.68-.992c-3.237-.145-5.32 3.311-5.816 4.147-.268.452-.662 1.525-.787 2.15-.475 2.382-.365 3.374-2.138 2.83-.435-.164-1.522-.762-2.066-1.805-.368-.707-.273-1.879-.112-2.199-.736-.307-1.283-.832-1.4-1.158.109 1.104.25 2.276 1.051 3.525 1.308 2.041 3.589 3.001 4.449 3.001.859 0 1.481-.297 1.241-1.348.024-.015 1.104-.71 1.748-1.081 1.219-.699 3.067-3.11 4.578-3.639.543-.19.933-.333.933-.683 0-.4-.267-.728-.625-1.078-.743-.725-2.931-.686-3.962-.67zm2.402-1.51c-.056.85-.845.751-1.757.794.661-.544 1.1-.664 1.757-.794zm-.616 2.688c-1.155.429-2.044 1.65-2.333 2.022-.645.828-1.608 2.169-2.233 2.497-.003-.043-.139-.2-.041-.901.378-.527 1.009-1.57 1.342-1.996 1.143-1.461 1.972-2.128 2.573-2.292.602-.164 1.945-.175 2.125.156.29.532-.703.243-1.433.514zm-11.2-.38c0-1.787 1.076-3.325 1.758-3.99.195-.191 2.425-2.308 5.742-2.308 2.953 0 4.656 1.375 5.078 3-.364-.079-.819-.027-1.031.008-.391-.711-.82-1.016-1.522-1.292-.925-.366-2.232-.322-3.025-.316-1.36.001-3.977.257-5.018 1.306-.647.718-.568 1.42-.49 1.818 1.242-.938 4.988-.297 6.711.224l-.191.219c-1.017-.082-2.123-.046-3.52.033-.929.052-2.071.328-2.415.757.094.161.261.367.296.41.579-.347 1.268-.508 1.836-.586.705-.097.915-.081 2.314-.081h.977c-.328.336-.422.438-.68.805-1.201.035-1.645.034-2.485.226-.412.095-.838.274-1.068.468.673.883 1.856 3.007 1.867 3.266-.36-.44-1.015-1.066-1.725-1.4-.971-.46-3.409-1.313-3.409-2.567zm3.25 5.452c.227-.265.628-1.164.25-2.25.577.195.986.835 1.375 1.231-.055 1.433-.52 1.703-1.625 1.019z" id="colorImportance"/></svg>