<svg xmlns="http://www.w3.org/2000/svg" width="16" height="16"><style type="text/css">.icon-canvas-transparent{opacity:0;fill:#F6F6F6;} .icon-vs-out{fill:#F6F6F6;} .icon-vs-bg{fill:#424242;} .icon-vs-fg{fill:#F0EFF1;} .icon-vs-action-blue{fill:#00539C;}</style><path class="icon-canvas-transparent" d="M16 16h-16v-16h16v16z" id="canvas"/><path class="icon-vs-out" d="M16 1v11h-6.051c-.247.185-.528.446-.743.723-.534.684-1.038 1.331-1.712 1.616l-.826.339c-.012.123-.043.252-.112.385-.039.142-.231.708-.879.872-.172.042-.36.065-.558.065-1.166 0-2.89-.798-4.11-2.582-.847-1.233-1.185-2.644-.921-3.814-.115-2.183.903-3.353 1.79-3.952.475-.382 1.639-1.191 3.122-1.524v-4.128h6v1h5z" id="outline"/><path class="icon-vs-bg" d="M7.583 6.955l-.07.045h-.513v.33c-.181.138-.344.281-.49.415-.202-.039-.356-.165-.51-.256v-.629l.114-.009c.624-.073 1.125.027 1.469.104zm-1.583-5.955h4v4.455c-.416-.397-.992-.787-1.817-1.116-.606-.241-1.25-.364-1.911-.364l-.272.019v-2.994zm1 2h2v-1h-2v1zm8-1v9h-3.075c.044-.144.064-.274.071-.359.033-.373-.04-1.082-.294-1.525.14-.172.224-.392.224-.631 0-.216-.068-.416-.185-.58-.123-.243-.36-.607-.741-.89v-5.015h4zm-1 7h-2v1h2v-1zm0-2h-2v1h2v-1zm0-4h-2v2h2v-2z" id="iconBg"/><path class="icon-vs-fg" d="M12 9h2v1h-2v-1zm-5-6h2v-1h-2v1zm5 5h2v-1h-2v1zm0-5v2h2v-2h-2z" id="iconFg"/><path class="icon-vs-action-blue" d="M10.543 9.27c-.617-.507-1.236-.492-1.484-.501.334-.091.76-.04.926-.644.125-.156.922.359.922.359s-.252-.712-.9-.856c.014-.157.057-1.464-2.193-2.359-2.714-1.081-5.316 1.172-5.376 1.211-.969.656-1.459 1.708-1.342 3.217-.207.724-.127 1.896.738 3.156 1.164 1.701 2.826 2.308 3.598 2.111.154-.039.179-.223.235-.359.035-.068-.084-.547-.021-.625.016 0 .457-.139 1.459-.563.926-.392 1.833-2.453 2.911-2.824.389-.137.953.078.984-.271.024-.274-.062-.728-.457-1.052zm-4.543-3.27c2.775-.317 3.371.988 3.359 1.516 0 .029-1.324.011-2.484 1.318-1.493-.108-1.441-.683-2.896-.52-.602.067-1.303.455-1.625.645-.23-.125-.588-1.021-.104-1.479 0 0 .887-1.331 3.75-1.48zm-2.801 7.727c-.521-.195-1.556-1.241-1.199-2.727.344-.011 1.033-.092 1.25.25.643 1.013.662 1.723.607 2.093-.078.518-.558.384-.658.384zm1.43-1.498c-.504-.832-1.213-1.832-1.65-2.645.5-.666 2.534-.179 3.438-.208-.521.542-.808.91-1.147 2.041-.098.329-.44.537-.641.812zm4.559-2.249c-.826.303-1.438 1.069-1.646 1.333-.459.596-.938 1.625-1.804 1.677l-.006-.088c-.01-.215.01-.449.049-.674.271-.372.646-1.007.885-1.31.938-1.202 2.076-1.88 2.113-1.929.148.02.963.049 1.193.302.458.504-.265.494-.784.689z" id="colorImportance"/></svg>