<svg xmlns="http://www.w3.org/2000/svg" width="16" height="16"><style type="text/css">.icon-canvas-transparent{opacity:0;fill:#F6F6F6;} .icon-vs-out{fill:#F6F6F6;} .icon-vs-bg{fill:#424242;} .icon-vs-fg{fill:#F0EFF1;} .icon-vs-action-blue{fill:#00539C;}</style><path class="icon-canvas-transparent" d="M16 16h-16v-16h16v16z" id="canvas"/><path class="icon-vs-out" d="M16 1v14h-7v1h-9v-15h16z" id="outline"/><path class="icon-vs-bg" d="M15 2v12h-6v-1h5v-8h-12v4h-1v-7h14z" id="iconBg"/><path class="icon-vs-fg" d="M14 5v8h-5v-4h-7v-4h12z" id="iconFg"/><path class="icon-vs-action-blue" d="M1 14h4v1h-4v-1zm0-1h4v-1h-4v1zm5 2h2v-1h-2v1zm0-2h2v-1h-2v1zm-5-2h4v-1h-4v1zm5 0h2v-1h-2v1z" id="colorImportance"/></svg>