<svg xmlns="http://www.w3.org/2000/svg" viewBox="0 0 16 16"><style>.icon-canvas-transparent{opacity:0;fill:#f6f6f6}.icon-vs-out{fill:#f6f6f6}.icon-vs-bg{fill:#424242}.icon-vs-fg{fill:#f0eff1}.icon-vs-action-blue{fill:#00539c}</style><path class="icon-canvas-transparent" d="M16 16H0V0h16v16z" id="canvas"/><path class="icon-vs-out" d="M16 14h-3.3c0 .3-.1.7-.2 1-.4.6-1 1-1.8 1H2.3c-.7 0-1.4-.4-1.8-1-.2-.3-.2-.6-.2-1H0V0h16v14z" id="outline"/><path class="icon-vs-bg" d="M15 1v12h-2.6v-.1l-.6-.9H14V4H2v6.8l-1 1.6V1h14z" id="iconBg"/><path class="icon-vs-fg" d="M2 10.8V4h1v3h1v.7l-2 3.1zM10 4v3H9v.7l2.8 4.3H14V4h-4zm-5.7 7h4.4L7 8.3V6H6v2.3L4.3 11" id="iconFg"/><path class="icon-vs-action-blue" d="M11.5 13.5L8 8V6h1V5H4v1h1v2l-3.5 5.5c-.4.6 0 1.5.8 1.5h8.3c.9 0 1.3-.9.9-1.5zM4.3 11L6 8.3V6h1v2.3L8.7 11H4.3z" id="colorImportance"/></svg>