<svg xmlns="http://www.w3.org/2000/svg" viewBox="0 0 16 16"><style>.icon-canvas-transparent{opacity:0;fill:#f6f6f6}.icon-vs-out{fill:#f6f6f6}.icon-vs-fg{fill:#f0eff1}.icon-vs-action-blue{fill:#00539c}</style><path class="icon-canvas-transparent" d="M16 16H0V0h16v16z" id="canvas"/><path class="icon-vs-out" d="M3.8 16c-1.3 0-2.5-.7-3.1-1.9-.6-1.2-.5-2.5.2-3.6l4.1-6V3H4V0h8v3h-1v1.5l4.1 6c.7 1.1.8 2.5.2 3.6-.6 1.2-1.8 1.9-3.1 1.9H3.8z" id="outline"/><path class="icon-vs-action-blue" d="M14.3 11.1L10 4.8V2h1V1H5v1h1v2.8L1.7 11c-.5.8-.6 1.8-.1 2.6.4.9 1.3 1.4 2.2 1.4h8.4c.9 0 1.8-.5 2.2-1.3.5-.9.4-1.8-.1-2.6zM7 5.2V2h2v3.2L11.6 9H4.4L7 5.2z" id="iconBg"/><path class="icon-vs-fg" d="M7 2h2v3.2L11.6 9H4.4L7 5.2V2" id="iconFg"/></svg>