<svg xmlns="http://www.w3.org/2000/svg" viewBox="0 0 16 16"><style>.icon-canvas-transparent{opacity:0;fill:#f6f6f6}.icon-vs-out{fill:#f6f6f6}.icon-vs-bg{fill:#424242}.icon-vs-fg{fill:#f0eff1}.icon-vs-action-blue{fill:#00539c}</style><path class="icon-canvas-transparent" d="M16 16H0V0h16v16z" id="canvas"/><path class="icon-vs-out" d="M16 14H9.2c0 .3-.1.7-.3 1-.4.6-1 1-1.7 1H1.8C1 16 .4 15.6 0 15V1h5V0h6v1h5v13z" id="outline"/><path class="icon-vs-bg" d="M11 2v11h4V2h-4zm3 10h-2v-1h2v1zm0-2h-2V9h2v1zm0-5h-2V3h2v2zM1 6h4V2H1v4zm1-3h2v2H2V3zm4-2v5h2v3h1v1H7.2l.6 1H9v1h-.6l.6 1h1V1H6zm3 2H7V2h2v1z" id="iconBg"/><path class="icon-vs-fg" d="M4 8h1v2.3L6 12H3l1-1.7V8m0-5H2v2h2V3zm8 0h2v2h-2V3zm0 6h2v1h-2V9zm0 2h2v1h-2v-1zM7 2h2v1H7V2zm1 7h1v1H7.2L7 9.7V9h1zm-.2 2H9v1h-.6l-.6-1z" id="iconFg"/><path class="icon-vs-action-blue" d="M6 10V8h1V7H2v1h1v2L.9 13.5c-.4.7.1 1.5.9 1.5h5.5c.8 0 1.3-.8.9-1.5L6 10zm-3 2l1-1.7V8h1v2.3L6 12H3z" id="colorImportance"/></svg>