<svg xmlns="http://www.w3.org/2000/svg" width="16" height="16"><style type="text/css">.icon-canvas-transparent{opacity:0;fill:#F6F6F6;} .icon-vs-out{fill:#F6F6F6;} .icon-vs-action-blue{fill:#00539C;}</style><path class="icon-canvas-transparent" d="M16 16h-16v-16h16v16z" id="canvas"/><path class="icon-vs-out" d="M16 7.5l-2.5-2.5h.086v-5h-5v2.605c-.751-.384-1.599-.607-2.499-.607-3.033 0-5.501 2.469-5.501 5.502 0 3.031 2.468 5.5 5.501 5.5.9 0 1.748-.223 2.498-.607v2.607h5v-5h-.085l2.5-2.5z" id="outline"/><path class="icon-vs-action-blue" d="M7.587 7.5c0 .828-.672 1.5-1.5 1.5-.829 0-1.5-.672-1.5-1.5s.671-1.5 1.5-1.5c.828 0 1.5.672 1.5 1.5zm3.998 3.5h1v3h-3v-1h1.289l-1.996-1.996c-.77.613-1.731.996-2.791.996-2.486 0-4.501-2.016-4.501-4.5 0-2.486 2.015-4.502 4.501-4.502 1.061 0 2.021.383 2.791.996l1.996-1.994h-1.288v-1h3v3h-1v-1.287l-1.995 1.994c.515.645.848 1.429.945 2.293h2.136l-.914-.914.707-.707 2.121 2.121-2.121 2.121-.707-.708.914-.913h-2.136c-.097.863-.431 1.647-.945 2.291l1.994 1.994v-1.285zm-2.998-3.5c0-1.379-1.121-2.502-2.5-2.502s-2.501 1.123-2.501 2.502c0 1.378 1.122 2.5 2.501 2.5 1.379 0 2.5-1.122 2.5-2.5z" id="colorImportance"/></svg>