<svg xmlns="http://www.w3.org/2000/svg" width="16" height="16"><style type="text/css">.icon-canvas-transparent{opacity:0;fill:#F6F6F6;} .icon-vs-out{fill:#F6F6F6;} .icon-vs-fg{fill:#F0EFF1;} .icon-vs-action-blue{fill:#00539C;}</style><path class="icon-canvas-transparent" d="M16 16h-16v-16h16v16z" id="canvas"/><path class="icon-vs-out" d="M14.998 7.501c0 2.844-2.133 5.196-4.962 5.473-.179.016-.355.026-.536.026l-.478.009-.329-.009h-.11l-.087-.065c-1.305-.241-2.444-.95-3.258-1.935h-5.238v-3h1v-1h-1v-3h5.249c1.012-1.22 2.54-1.999 4.244-1.999 2.98 0 5.396 2.334 5.495 5.313l.01.187z" id="outline"/><path class="icon-vs-fg" d="M11.393 6.442c.463-.073.953-.197 1.476-.385.19.442.297.93.297 1.443l-.012.238c-.662.289-1.258.462-1.816.552.07-.391.107-.762.103-1.111-.002-.256-.023-.498-.048-.737zm-1.83 4.72c.379-.754.668-1.445.862-2.078-.226.012-.45.018-.672.018l-.257-.002c-.356-.002-.703-.024-1.036-.057.152.688.398 1.395.719 2.105l.321.018.063-.004zm1.05-2.791c.09-.426.137-.83.133-1.198-.002-.229-.02-.463-.045-.68-.321.023-.637.008-.948.008h-.257c-.416 0-.815-.008-1.199-.051-.024.229-.041.49-.043.736-.004.372.024.754.078 1.143.376.043.766.073 1.172.078.371.002.736-.011 1.109-.036zm-4.765-.612c.496.167 1.088.338 1.773.463-.041-.354-.066-.703-.062-1.043.003-.279.022-.543.049-.803-.543-.092-1.03-.214-1.466-.343-.196.45-.308.946-.308 1.468l.014.258zm2.512 3.223c-.28-.688-.495-1.367-.626-2.035-.658-.105-1.241-.255-1.75-.411.342 1.157 1.235 2.073 2.376 2.446zm4.652-2.431c-.664.25-1.27.395-1.84.467-.174.625-.441 1.307-.789 2.037 1.258-.311 2.26-1.27 2.629-2.504zm-2.303-4.54c.235.492.451 1.063.589 1.725.398-.061.813-.166 1.255-.318-.444-.648-1.087-1.145-1.844-1.407zm-1.68-.173c-.246.51-.494 1.152-.644 1.933.359.041.733.067 1.119.071.366.004.727 0 1.095-.025-.179-.81-.485-1.475-.786-1.997l-.313-.015c-.16 0-.316.013-.471.033zm-2.562 1.553c.373.105.779.202 1.222.281.116-.613.286-1.149.471-1.613-.687.267-1.276.734-1.693 1.332z" id="iconFg"/><path class="icon-vs-action-blue" d="M4 6h-3v-1h3v1zm0 1h-2v1h2v-1zm0 2h-3v1h3v-1zm10-1.499l-.008-.153c-.081-2.412-2.057-4.347-4.492-4.347-2.485 0-4.5 2.015-4.5 4.5l.02.389.045.341.002.013c.313 1.89 1.804 3.38 3.696 3.69l.013.002.338.045.386.019.439-.021c2.279-.223 4.061-2.141 4.061-4.478zm-2.592-1.067c.467-.074.961-.199 1.489-.389.19.447.299.938.299 1.456l-.012.24c-.668.291-1.269.465-1.831.555.07-.393.108-.768.104-1.12-.002-.258-.023-.502-.049-.742zm1.145-1.016c-.441.152-.856.258-1.255.318-.138-.662-.354-1.233-.589-1.725.757.262 1.4.759 1.844 1.407zm-3.053 5.779l-.324-.018c-.322-.717-.57-1.43-.725-2.125.336.033.686.057 1.045.059l.259.002c.224 0 .45-.006.678-.018-.196.639-.487 1.336-.87 2.096l-.063.004zm.004-2.782c-.41-.006-.803-.035-1.182-.079-.054-.392-.082-.778-.078-1.152.002-.248.02-.508.043-.738.387.044.789.056 1.209.056h.259c.314 0 .632.012.956-.012.025.219.044.452.046.683.004.372-.044.778-.135 1.208-.376.024-.744.036-1.118.034zm-.004-4.61l.313.016c.302.522.607 1.187.786 1.997-.368.025-.729.029-1.095.025-.386-.004-.76-.03-1.119-.071.15-.781.398-1.423.645-1.934.154-.02.31-.033.47-.033zm-1.34.254c-.186.465-.355 1-.471 1.613-.443-.079-.849-.176-1.222-.281.417-.598 1.006-1.065 1.693-1.332zm-2.356 3.442c0-.526.112-1.026.31-1.479.44.129.932.252 1.479.346-.029.261-.048.527-.05.808-.004.343.021.695.062 1.052-.691-.126-1.288-.299-1.788-.467l-.013-.26zm.151 1.044c.514.156 1.102.309 1.765.414.132.674.349 1.359.632 2.053-1.153-.377-2.052-1.301-2.397-2.467zm4.436 2.539c.35-.736.62-1.424.795-2.053.574-.074 1.186-.221 1.856-.472-.373 1.244-1.384 2.212-2.651 2.525z" id="colorImportance"/></svg>