<svg xmlns="http://www.w3.org/2000/svg" width="16" height="16"><style type="text/css">.icon-canvas-transparent{opacity:0;fill:#F6F6F6;} .icon-vs-out{fill:#F6F6F6;} .icon-vs-bg{fill:#424242;} .icon-vs-fg{fill:#F0EFF1;} .icon-vs-action-blue{fill:#00539C;}</style><path class="icon-canvas-transparent" d="M16 16h-16v-16h16v16z" id="canvas"/><path class="icon-vs-out" d="M12.984 0h-5.034c-.941 0-1.943.699-1.943 1.995v3.083c-.166-.015-.327-.049-.498-.049-3.037 0-5.509 2.461-5.509 5.486l.023.473.043.34.001.121.033.082c.424 2.259 2.221 4.016 4.469 4.383l.111.022h.021l.329.041.479.023c.179 0 .354-.01.538-.026 2.329-.227 4.166-1.86 4.755-4.006h3.159c1.445 0 2.011-1.172 2.039-1.994v-7.446l-3.016-2.528z" id="outline"/><path class="icon-vs-bg" d="M15 3v7s-.035 1-1.035 1h-2.99l.025-.5-.025-.5h3.049v-6h-2v-2h-4v3.619c-.316-.165-.651-.298-1-.399v-3.22c0-1 .94-1 .94-1h4.66l2.376 2z" id="iconBg"/><path class="icon-vs-fg" d="M14 4v6h-3.028c-.177-1.796-1.186-3.314-2.648-4.179l-.324-.216v-3.605h4v2h2zm-6.531 6.221c.004.35-.033.721-.104 1.111.559-.09 1.154-.263 1.816-.551l.012-.238c0-.514-.076-1.001-.266-1.443-.523.188-1.037.312-1.5.385.026.238.038.48.042.736zm-1.88 3.984c.379-.754.668-1.43.862-2.063-.226.012-.839.002-.925 0-.356-.002-.707-.066-1.04-.1.152.688.398 1.439.719 2.15l.321.016.063-.003zm1.037-2.792c.09-.426.104-.83.101-1.198-.002-.229.025-.455 0-.672-.321.023-.889 0-1.2 0-.416 0-.816-.008-1.2-.051-.023.229-.038.506-.04.751-.003.323.011.658.072 1.1.376.043.766.101 1.172.106.371.002.723-.01 1.095-.036zm-4.751-.612c.496.167 1.067.338 1.752.463-.041-.353-.045-.781-.042-1.121.003-.279.015-.465.042-.725-.542-.092-1.022-.246-1.459-.375-.196.45-.308.979-.308 1.5l.015.258zm2.512 3.224c-.28-.688-.495-1.315-.626-1.982-.658-.106-1.241-.244-1.75-.4.342 1.157 1.235 2.009 2.376 2.382zm4.652-2.382c-.664.25-1.271.328-1.84.4-.174.625-.442 1.323-.79 2.055 1.259-.312 2.261-1.221 2.63-2.455zm-2.303-4.6c.235.492.452 1.039.588 1.7.398-.062.814-.147 1.256-.3-.443-.648-1.088-1.138-1.844-1.4zm-1.709-.1c-.246.51-.45 1.019-.6 1.8.359.041.718.096 1.104.1.366.004.728.025 1.095 0-.179-.811-.484-1.378-.786-1.9h-.313c-.16 0-.346-.02-.5 0zm-2.533 1.49c.372.105.779.202 1.223.28.114-.613.284-1.148.471-1.612-.688.267-1.277.734-1.694 1.332z" id="iconFg"/><path class="icon-vs-action-blue" d="M10.027 10.543l-.008-.152c-.081-2.414-2.058-4.348-4.492-4.348-2.485 0-4.5 2.015-4.5 4.5l.02.389.045.341.002.013c.313 1.891 1.803 3.38 3.696 3.691l.013.002.338.045.386.02.439-.022c2.278-.223 4.061-2.142 4.061-4.479zm-2.591-1.067c.467-.073.961-.198 1.488-.388.191.445.299.938.299 1.455l-.012.24c-.668.291-1.268.465-1.83.555.07-.393.107-.768.104-1.119-.003-.259-.024-.503-.049-.743zm1.144-1.017c-.441.152-.857.258-1.256.319-.136-.661-.353-1.233-.588-1.725.756.262 1.401.759 1.844 1.406zm-3.053 5.78l-.324-.018c-.323-.717-.571-1.43-.725-2.124.336.033.686.057 1.045.059l.259.002c.224 0 .45-.006.678-.018-.196.638-.487 1.335-.87 2.095l-.063.004zm.004-2.782c-.41-.006-.825-.035-1.204-.079-.054-.392-.06-.778-.056-1.153.002-.247.02-.507.043-.737.387.044.79.056 1.209.056h.259c.314 0 .632.012.956-.012.025.219.044.451.046.683.004.372-.044.778-.135 1.208-.376.024-.744.036-1.118.034zm-.004-4.61l.313.016c.302.522.607 1.187.786 1.997-.368.025-.729.029-1.095.025-.386-.004-.759-.029-1.119-.07.15-.783.398-1.425.644-1.935.154-.02.311-.033.471-.033zm-1.339.254c-.187.464-.357.999-.471 1.612-.444-.078-.851-.175-1.223-.28.417-.598 1.006-1.065 1.694-1.332zm-2.357 3.442c0-.525.112-1.025.31-1.481.44.131.932.254 1.478.346-.027.262-.047.529-.05.811-.004.342.021.694.063 1.051-.691-.126-1.288-.299-1.788-.467l-.013-.26zm.151 1.044c.513.157 1.101.31 1.765.415.132.673.349 1.359.631 2.053-1.151-.377-2.051-1.301-2.396-2.468zm4.435 2.54c.35-.737.62-1.424.795-2.054.574-.073 1.186-.22 1.855-.472-.372 1.245-1.381 2.213-2.65 2.526z" id="colorImportance"/></svg>