<svg xmlns="http://www.w3.org/2000/svg" width="16" height="16"><style type="text/css">.icon-canvas-transparent{opacity:0;fill:#F6F6F6;} .icon-vs-out{fill:#F6F6F6;} .icon-vs-bg{fill:#424242;} .icon-vs-fg{fill:#F0EFF1;}</style><path class="icon-canvas-transparent" d="M16 16h-16v-16h16v16z" id="canvas"/><path class="icon-vs-out" d="M16 8c0 4.418-3.582 8-8 8-1.893 0-3.63-.661-5-1.761v1.761h-3v-8c0-4.418 3.582-8 8-8s8 3.582 8 8z" id="outline"/><path class="icon-vs-bg" d="M1 11h1v4h-1v-4zm14-3c0 3.635-2.771 6.621-6.315 6.966-.225.021-.454.034-.685.034-.203 0-.402-.012-.601-.03l-.526-.068-.021-.003c-1.501-.25-2.836-.978-3.852-2.019v-2.056c.7 1.236 1.839 2.189 3.212 2.639-.439-1.077-.775-2.147-.981-3.193-.826-.133-1.555-.314-2.231-.504v-1.131c.611.183 1.294.358 2.054.496-.065-.554-.105-1.102-.099-1.637.005-.437.035-.852.077-1.258-.852-.146-1.614-.337-2.3-.539-.308.706-.482 1.484-.482 2.303h-1.25c0-3.866 3.134-7 7-7 3.786 0 6.862 3.008 6.988 6.764l.012.236zm-5.119-5.429c.366.766.703 1.653.917 2.685.617-.096 1.265-.26 1.951-.496-.689-1.009-1.692-1.781-2.868-2.189zm-3.614 2.739c.559.063 1.14.104 1.739.111.57.005 1.132 0 1.703-.039-.277-1.262-.753-2.296-1.221-3.108l-.488-.024c-.249 0-.492.021-.732.052-.383.794-.768 1.793-1.001 3.008zm-.35-2.665c-1.071.418-1.987 1.143-2.635 2.073.578.162 1.211.315 1.903.435.176-.953.442-1.785.732-2.508zm2.089 6.776c.582.003 1.156-.005 1.74-.046.141-.667.215-1.292.209-1.869-.004-.361-.032-.708-.07-1.046-.505.038-.999.053-1.488.053l-.403-.002c-.651-.007-1.279-.052-1.882-.12-.036.359-.063.728-.067 1.115-.006.583.039 1.182.123 1.792.59.069 1.202.116 1.838.123zm1.445 1.064c-.354.017-.706.027-1.054.027l-.403-.002c-.56-.006-1.103-.04-1.626-.092.24 1.081.625 2.19 1.128 3.306.166.015.334.026.504.026l.099-.005c.593-1.182 1.047-2.268 1.352-3.26zm4.057-.838c-1.041.392-1.992.619-2.886.734-.271.979-.692 2.047-1.238 3.193 1.973-.487 3.546-1.99 4.124-3.927zm.242-1.647c0-.805-.166-1.57-.465-2.265-.822.295-1.59.49-2.316.604.041.374.072.755.076 1.156.006.549-.051 1.131-.161 1.743.876-.142 1.81-.411 2.848-.863l.018-.375zm-11.75 1h-1v1h1v-1z" id="iconBg"/><path class="icon-vs-fg" d="M10.969 6.338c.727-.114 1.494-.308 2.316-.604.299.696.465 1.461.465 2.266l-.019.374c-1.038.452-1.972.722-2.848.863.11-.612.167-1.194.161-1.743-.003-.4-.034-.782-.075-1.156zm-1.088-3.767c.366.766.703 1.653.917 2.685.617-.096 1.265-.26 1.951-.496-.689-1.009-1.692-1.781-2.868-2.189zm-1.782 11.174c.594-1.183 1.047-2.269 1.353-3.26-.354.017-.706.027-1.054.027l-.403-.002c-.56-.006-1.103-.04-1.626-.092.24 1.081.625 2.19 1.128 3.306.165.015.333.026.503.026l.099-.005zm1.647-4.37c.141-.667.215-1.292.209-1.869-.004-.361-.032-.708-.07-1.046-.505.038-.999.053-1.488.053l-.403-.002c-.651-.007-1.279-.052-1.882-.12-.036.359-.063.728-.067 1.115-.006.583.039 1.182.123 1.792.59.069 1.202.116 1.838.123.582.003 1.156-.005 1.74-.046zm-2.478-7.073c-.383.794-.768 1.793-1.001 3.008.559.063 1.14.104 1.739.111.57.005 1.132 0 1.703-.039-.277-1.262-.753-2.296-1.221-3.108l-.488-.024c-.249 0-.492.021-.732.052zm-3.986 2.416c.578.162 1.211.315 1.903.435.176-.953.442-1.785.732-2.508-1.071.418-1.987 1.143-2.635 2.073zm10.226 4.929c-1.041.392-1.992.619-2.886.734-.271.979-.692 2.047-1.238 3.193 1.973-.487 3.546-1.99 4.124-3.927zm-8.278.622c-.825-.132-1.554-.313-2.23-.503v1.059c.7 1.236 1.839 2.189 3.212 2.639-.44-1.078-.775-2.148-.982-3.195zm-2.23-1.634c.611.183 1.294.358 2.054.496-.065-.554-.105-1.102-.099-1.637.005-.437.035-.852.077-1.258-.852-.146-1.614-.337-2.3-.539-.308.706-.482 1.484-.482 2.303h.75v.635z" id="iconFg"/></svg>