<svg xmlns="http://www.w3.org/2000/svg" width="16" height="16"><style type="text/css">.icon-canvas-transparent{opacity:0;fill:#F6F6F6;} .icon-vs-out{fill:#F6F6F6;} .icon-vs-bg{fill:#424242;} .icon-vs-fg{fill:#F0EFF1;} .icon-vs-action-blue{fill:#00539C;}</style><path class="icon-canvas-transparent" d="M16 16h-16v-16h16v16z" id="canvas"/><path class="icon-vs-out" d="M10 15.737v.263h-10v-8c0-4.418 3.582-8 8-8s8 3.582 8 8c0 3.727-2.552 6.849-6 7.737z" id="outline"/><path class="icon-vs-bg" d="M14.988 7.763c-.126-3.755-3.202-6.763-6.988-6.763-3.866 0-7 3.134-7 7h1.25c0-.819.174-1.597.482-2.302.686.202 1.448.393 2.3.539-.042.405-.072.82-.077 1.257l.014.506h1.091l-.015-.495c.004-.386.031-.755.067-1.114.603.068 1.23.113 1.882.12l.403.002c.488 0 .982-.016 1.487-.054.038.339.066.685.07 1.046l-.026.495h.072v4.159c.249-.618.467-1.217.622-1.777.894-.115 1.845-.343 2.886-.734-.517 1.73-1.828 3.107-3.508 3.731v1.329c2.892-.861 5-3.537 5-6.708l-.012-.237zm-9.803-2.61c-.692-.12-1.325-.273-1.903-.435.647-.93 1.563-1.655 2.635-2.073-.29.723-.556 1.555-.732 2.508zm2.821.268c-.6-.006-1.181-.047-1.739-.111.233-1.215.618-2.214 1.001-3.008.24-.031.483-.052.732-.052l.488.024c.468.812.944 1.846 1.221 3.108-.571.039-1.133.044-1.703.039zm1.875-2.85c1.176.407 2.179 1.18 2.868 2.188-.686.236-1.334.4-1.951.496-.214-1.03-.551-1.918-.917-2.684zm3.85 5.803c-1.038.452-1.972.722-2.848.863.11-.612.167-1.194.161-1.743-.004-.4-.035-.783-.076-1.156.727-.114 1.494-.308 2.316-.604.3.696.466 1.461.466 2.266l-.019.374z" id="iconBg"/><path class="icon-vs-fg" d="M2 14h6v-4h-6v4zm4-3h1v2h-1v-2zm-3 0h2v2h-2v-2zm7.969-4.662c.727-.114 1.494-.308 2.316-.604.299.696.465 1.461.465 2.266l-.019.374c-1.038.452-1.972.722-2.848.863.11-.612.167-1.194.161-1.743-.003-.4-.034-.782-.075-1.156zm1.78-1.578c-.686.236-1.334.4-1.951.496-.214-1.031-.551-1.919-.917-2.685 1.176.408 2.179 1.18 2.868 2.189zm-4.749-2.51l.488.024c.468.812.944 1.846 1.221 3.108-.571.039-1.133.044-1.703.039-.6-.006-1.181-.047-1.739-.111.233-1.215.618-2.214 1.001-3.008.24-.031.483-.052.732-.052zm-2.083.395c-.29.723-.556 1.555-.732 2.508-.692-.12-1.325-.273-1.903-.435.648-.93 1.564-1.655 2.635-2.073zm7.591 7.002c-.517 1.73-1.828 3.107-3.508 3.731v-1.22c.249-.618.467-1.217.622-1.777.894-.114 1.845-.342 2.886-.734zm-7.447-1.647l-.016-.495c.004-.386.031-.755.067-1.114.603.068 1.23.113 1.882.12l.403.002c.488 0 .982-.016 1.487-.054.038.339.066.685.07 1.046l-.026.495h-3.867zm-1.092 0h-2.719c0-.819.174-1.597.482-2.302.686.202 1.448.393 2.3.539-.042.405-.072.82-.077 1.257l.014.506z" id="iconFg"/><path class="icon-vs-action-blue" d="M1 15h8v-6h-8v6zm1-5h6v4h-6v-4zm1 1h2v2h-2v-2zm3 0h1v2h-1v-2z" id="colorImportance"/></svg>