<svg xmlns="http://www.w3.org/2000/svg" width="16" height="16"><style type="text/css">.icon-canvas-transparent{opacity:0;fill:#F6F6F6;} .icon-vs-out{fill:#F6F6F6;} .icon-vs-bg{fill:#424242;} .icon-vs-fg{fill:#F0EFF1;} .icon-vs-action-blue{fill:#00539C;}</style><path class="icon-canvas-transparent" d="M16 16h-16v-16h16v16z" id="canvas"/><path class="icon-vs-out" d="M16 8c0 4.418-3.582 8-8 8-.692 0-1.36-.097-2-.262v.262h-6v-11h.587c1.187-2.931 4.057-5 7.413-5 4.418 0 8 3.582 8 8z" id="outline"/><path class="icon-vs-bg" d="M14.988 7.763c-.126-3.755-3.202-6.763-6.988-6.763-2.791 0-5.193 1.637-6.317 4h2.748c-.402-.088-.79-.181-1.148-.282.647-.93 1.563-1.655 2.635-2.073-.274.682-.52 1.469-.696 2.355h.778v7.873l.212.589-.212-.083v1.308c.279.083.56.163.852.212l.021.003.526.068c.199.018.398.03.601.03.231 0 .46-.013.685-.034 3.544-.345 6.315-3.331 6.315-6.966l-.012-.237zm-2.239-3.003c-.687.236-1.334.4-1.951.496-.214-1.031-.551-1.919-.917-2.685 1.176.408 2.179 1.18 2.868 2.189zm-5.481-2.458c.24-.031.483-.052.732-.052l.488.024c.468.812.944 1.846 1.221 3.108-.571.039-1.133.044-1.703.039-.6-.006-1.181-.047-1.739-.111.233-1.215.618-2.214 1.001-3.008zm-1.1 6.996c-.084-.61-.129-1.209-.123-1.793.004-.386.031-.755.067-1.114.602.068 1.23.113 1.882.12l.403.002c.488 0 .982-.016 1.487-.054.038.339.066.685.07 1.046.006.577-.068 1.202-.209 1.869-.584.041-1.158.049-1.74.046-.635-.006-1.247-.053-1.837-.122zm1.931 4.447l-.099.005-.504-.025c-.503-1.116-.888-2.225-1.128-3.306.523.052 1.066.086 1.626.092l.403.002c.348 0 .699-.01 1.054-.027-.305.991-.759 2.077-1.352 3.259zm1.285-.17c.546-1.146.967-2.215 1.238-3.193.894-.115 1.845-.343 2.886-.734-.578 1.936-2.151 3.439-4.124 3.927zm4.347-5.201c-1.038.452-1.972.722-2.848.863.11-.612.167-1.194.161-1.743-.004-.4-.035-.783-.076-1.156.727-.114 1.494-.308 2.317-.604.299.696.465 1.461.465 2.266l-.019.374z" id="iconBg"/><path class="icon-vs-fg" d="M2 13h2v1h-2v-1zm0-1h2v-1h-2v1zm11.285-6.265c-.822.295-1.59.49-2.317.604.041.374.072.756.076 1.156.006.548-.051 1.13-.161 1.743.876-.142 1.81-.411 2.848-.863l.019-.375c0-.805-.166-1.57-.465-2.265zm-.536-.975c-.689-1.009-1.692-1.781-2.868-2.188.366.766.703 1.653.917 2.685.617-.097 1.265-.261 1.951-.497zm-4.351 5.753l-.403-.002c-.56-.006-1.102-.04-1.626-.092.24 1.081.625 2.19 1.128 3.306l.503.025.099-.005c.594-1.183 1.047-2.268 1.353-3.26-.355.018-.707.028-1.054.028zm-.392-1.092c.582.003 1.156-.005 1.74-.046.141-.667.215-1.292.209-1.869-.004-.362-.032-.708-.07-1.046-.505.038-.999.053-1.487.053l-.403-.002c-.651-.007-1.279-.052-1.882-.12-.037.359-.064.728-.068 1.114-.006.584.039 1.183.123 1.793.59.069 1.202.116 1.838.123zm1.703-4.039c-.277-1.262-.753-2.296-1.221-3.108l-.488-.024c-.249 0-.492.021-.732.052-.383.794-.768 1.793-1.001 3.008.559.063 1.14.104 1.739.111.57.005 1.132 0 1.703-.039zm-.325 8.193c1.974-.488 3.546-1.991 4.124-3.928-1.041.392-1.992.619-2.886.734-.271.979-.692 2.048-1.238 3.194zm-3.384-.702v.505l.212.084-.212-.589zm-.778-7.873c.176-.886.422-1.673.695-2.355-1.071.418-1.987 1.143-2.635 2.073.359.101.747.194 1.149.282h.791zm-3.222 2v2h2v-2h-2z" id="iconFg"/><path class="icon-vs-action-blue" d="M1 15h4v-9h-4v9zm1-8h2v2h-2v-2zm0 4h2v1h-2v-1zm0 2h2v1h-2v-1z" id="colorImportance"/></svg>