<svg xmlns="http://www.w3.org/2000/svg" width="16" height="16"><style type="text/css">.icon-canvas-transparent{opacity:0;fill:#F6F6F6;} .icon-vs-out{fill:#F6F6F6;} .icon-vs-bg{fill:#424242;} .icon-vs-fg{fill:#F0EFF1;} .icon-vs-action-blue{fill:#00539C;}</style><path class="icon-canvas-transparent" d="M16 16h-16v-16h16v16z" id="canvas"/><path class="icon-vs-out" d="M16 15h-7.344c-.894.629-1.98 1-3.156 1s-2.263-.371-3.156-1h-2.344v-14h16v14z" id="outline"/><path class="icon-vs-bg" d="M15 2v12h-5.257c.253-.307.469-.643.651-1h3.606v-8h-12v1.258c-.381.315-.716.682-1 1.086v-5.344h14z" id="iconBg"/><path class="icon-vs-fg" d="M2 5h3.5c-1.33 0-2.549.472-3.5 1.258v-1.258zm3.5 0c3.037 0 5.5 2.463 5.5 5.5 0 .9-.221 1.75-.606 2.5h3.606v-8h-8.5zm1.968 5.221c.004.35-.033.721-.104 1.111.559-.09 1.154-.263 1.817-.551l.012-.238c0-.514-.107-1.001-.297-1.443-.523.187-1.014.311-1.477.384.026.239.046.481.049.737zm-1.879 3.984c.379-.754.668-1.445.862-2.078-.226.012-.45.017-.672.017l-.257-.002c-.356-.002-.703-.024-1.036-.058.152.688.398 1.396.719 2.106l.321.018.063-.003zm1.051-2.792c.09-.426.137-.83.133-1.198-.002-.23.007-.469-.019-.686-.321.024-2.056.001-2.44-.042-.023.229-.031.724-.033.969-.004.372.024.641.078 1.029.376.043.766.016 1.172.021.371.002.736-.067 1.109-.093zm-4.765-.612c.496.167 1.088.338 1.773.463-.041-.353-.066-.703-.063-1.043.003-.279.022-.543.049-.803-.542-.092-1.029-.214-1.466-.343-.196.45-.308.946-.308 1.468l.015.258zm2.512 3.224c-.28-.688-.495-1.368-.626-2.035-.658-.105-1.241-.256-1.75-.412.342 1.157 1.235 2.074 2.376 2.447zm4.652-2.432c-.665.25-1.271.396-1.84.468-.174.625-.441 1.306-.789 2.037 1.257-.312 2.259-1.271 2.629-2.505zm-.459-3.134c-.444-.647-1.087-1.144-1.844-1.406.235.492.451 1.063.589 1.725.398-.061.813-.167 1.255-.319zm-1.955.4c-.178-.81-.484-1.475-.786-1.997l-.312-.015c-.16 0-.317.014-.471.033-.246.51-.494 1.152-.644 1.934.359.041.733.066 1.119.07.366.005.727.001 1.094-.025zm-2.437-1.758c-.688.267-1.277.734-1.694 1.332.372.105.779.202 1.223.28.114-.613.284-1.148.471-1.612z" id="iconFg"/><path class="icon-vs-action-blue" d="M10.019 10.391c-.081-2.414-2.058-4.348-4.492-4.348-2.485 0-4.5 2.015-4.5 4.5l.02.389.045.341.002.013c.313 1.891 1.803 3.38 3.696 3.691l.013.002.338.045.386.02.439-.022c2.278-.223 4.061-2.142 4.061-4.478l-.008-.153zm-1.439-1.932c-.442.152-.857.258-1.255.319-.138-.661-.354-1.233-.589-1.725.757.262 1.4.759 1.844 1.406zm-1.955.4c-.367.026-.728.03-1.094.026-.386-.004-.759-.029-1.119-.07.15-.783.398-1.425.644-1.935.154-.02.311-.033.471-.033l.313.016c.301.521.607 1.186.785 1.996zm-2.437-1.758c-.186.465-.356 1-.471 1.612-.444-.078-.851-.175-1.223-.28.417-.598 1.006-1.065 1.694-1.332zm.126 2.386c.387.044.79.056 1.209.056h.259c.314 0 .632.012.956-.012.025.219.044.451.046.683.004.372-.044.778-.135 1.208-.376.025-.744.037-1.118.035-.41-.006-.802-.035-1.182-.079-.054-.392-.083-.778-.079-1.153.002-.247.02-.507.044-.738zm-2.483 1.056c0-.525.112-1.025.31-1.481.44.131.932.254 1.478.346-.027.262-.047.529-.05.811-.004.342.021.694.063 1.051-.691-.126-1.288-.299-1.788-.467l-.013-.26zm.151 1.044c.513.157 1.101.31 1.765.415.132.673.349 1.359.631 2.053-1.151-.377-2.051-1.301-2.396-2.468zm3.607 2.648l-.063.004-.324-.018c-.323-.717-.571-1.43-.725-2.124.336.033.686.057 1.045.059l.259.002c.224 0 .45-.006.678-.018-.196.638-.487 1.336-.87 2.095zm.828-.108c.35-.737.62-1.424.795-2.054.574-.073 1.186-.22 1.856-.472-.372 1.245-1.383 2.213-2.651 2.526zm2.794-3.344c-.667.291-1.268.465-1.831.555.07-.393.108-.768.104-1.119-.002-.259-.024-.503-.049-.743.467-.073.961-.198 1.489-.388.191.445.298.938.298 1.455l-.011.24z" id="colorImportance"/></svg>