<svg xmlns="http://www.w3.org/2000/svg" width="16" height="16"><style type="text/css">.icon-canvas-transparent{opacity:0;fill:#F6F6F6;} .icon-vs-out{fill:#F6F6F6;} .icon-vs-action-blue{fill:#00539C;}</style><path class="icon-canvas-transparent" d="M16 16h-16v-16h16v16z" id="canvas"/><path class="icon-vs-out" d="M10 16v-3.264c-.472.17-.978.264-1.5.264s-1.028-.094-1.5-.264v3.264h-6v-5h1v-4h2.272c.283-.791.784-1.482 1.43-2h-.702v-5h7v5h-.702c.646.518 1.146 1.209 1.43 2h2.272v4h1v5h-6z" id="outline"/><path class="icon-vs-action-blue" d="M14 12v-4h-2.05c-.221-1.531-1.421-2.73-2.95-2.951v-1.049h2v-3h-5v3h2v1.049c-1.529.221-2.729 1.42-2.95 2.951h-2.05v4h-1v3h4v-3h-2v-3h1.05c.245 1.693 1.689 3 3.45 3 1.761 0 3.205-1.307 3.45-3h1.05v3h-2v3h4v-3h-1zm-5.5-1c-1.378 0-2.5-1.121-2.5-2.5 0-1.378 1.122-2.5 2.5-2.5s2.5 1.122 2.5 2.5c0 1.379-1.122 2.5-2.5 2.5z" id="colorImportance"/></svg>