<svg xmlns="http://www.w3.org/2000/svg" width="16" height="16"><style type="text/css">.icon-canvas-transparent{opacity:0;fill:#F6F6F6;} .icon-vs-out{fill:#F6F6F6;} .icon-vs-action-blue{fill:#00539C;}</style><path class="icon-canvas-transparent" d="M16 16h-16v-16h16v16z" id="canvas"/><path class="icon-vs-out" d="M12.203 10.5l-.287.504c-.29.507-.664.915-1.11 1.213l-.1.056 3.804-7.606h-1.538l.899-.75-4.701-3.917h-1.362v2.406c-3.295.485-5.833 3.332-5.833 6.76 0 3.447 2.565 6.307 5.888 6.769v.065h1l.139-.008c3.873-.029 6.064-3.838 6.156-4.001l.842-1.491h-3.797zm-3.429-2.333h-.003l.006-.005-.003.005zm-.966-2.528v2.528h-2.516c.347-1.218 1.298-2.183 2.516-2.528zm-2.666 3.527l.031-.368 1.748 3.496c-1.061-.643-1.779-1.799-1.779-3.128z" id="outline"/><path class="icon-vs-action-blue" d="M8.225 12.666l-1.75-3.5h1.75l.583 1.168 2.333-4.667h1.75l-3.499 6.999h-1.167zm-.193 1.123c-.597-.079-1.157-.268-1.661-.549l-.757.904c.719.439 1.538.731 2.418.822v-1.177zm3.925-1.391l.682.921c.962-.897 1.486-1.819 1.486-1.819h-1.504c-.183.321-.406.623-.664.898zm-6.7-.029c-.79-.836-1.278-1.961-1.278-3.203 0-2.577 2.089-4.666 4.666-4.666v2.333l3.5-2.917-3.5-2.916v2.333c-3.222 0-5.833 2.611-5.833 5.833 0 1.602.646 3.051 1.689 4.104l.756-.901zm5.575.887l-.074.042-.248.126-.367.141-.224.08c-.156.046-.314.076-.473.106v1.195c.779-.106 1.474-.394 2.072-.762l-.686-.928z" id="colorImportance"/></svg>