<svg xmlns="http://www.w3.org/2000/svg" width="16" height="16"><style type="text/css">.icon-canvas-transparent{opacity:0;fill:#F6F6F6;} .icon-vs-out{fill:#F6F6F6;} .icon-vs-bg{fill:#424242;} .icon-vs-fg{fill:#F0EFF1;} .icon-vs-action-blue{fill:#00539C;}</style><path class="icon-canvas-transparent" d="M16 16h-16v-16h16v16z" id="canvas"/><path class="icon-vs-out" d="M16 3.556v8.444c0 .97-.701 2-2 2h-3.571c-.234.259-.484.507-.766.726l-.614.479-1.317-1.024-.206 1.655-.912.112c-.202.028-.405.052-.614.052s-.412-.024-.614-.052l-.912-.112-.206-1.655-1.316 1.024-.615-.479c-.403-.314-.762-.674-1.066-1.067l-.474-.614 1.022-1.311-1.651-.205-.114-.9c-.029-.208-.054-.414-.054-.629 0-.213.025-.418.054-.624l.115-.9 1.651-.207-1.023-1.313.475-.614c.306-.396.665-.755 1.067-1.067l.614-.477 1.047.814v-3.612c0-1.299 1.03-2 2-2h6.061l3.939 3.556z" id="outline"/><path class="icon-vs-bg" d="M15 4v8s-.035 1-1.035 1h-2.796l-.779-1h3.61v-7h-3v-3h-5v2c-.211 0-.414.025-.617.053l-.383.049v-2.102c0-1 .964-1 .964-1h5.677l3.359 3z" id="iconBg"/><path class="icon-vs-fg" d="M14 5v7h-3.61l-.209-.268 1.65-.205.115-.9c.029-.206.054-.412.054-.627 0-.213-.025-.418-.054-.624l-.115-.9-1.65-.207 1.022-1.313-.475-.614c-.306-.396-.665-.755-1.067-1.067l-.613-.478-1.316 1.023-.206-1.653-.909-.114c-.203-.028-.406-.053-.617-.053v-2h5v3h3zm-6 5c0 1.104-.895 2-2 2s-2-.896-2-2 .895-2 2-2 2 .896 2 2zm-1 0c0-.552-.447-1-1-1s-1 .448-1 1c0 .553.447 1 1 1s1-.447 1-1z" id="iconFg"/><path class="icon-vs-action-blue" d="M10.936 10.631c.027-.209.064-.414.064-.631 0-.215-.037-.42-.064-.629l-1.543-.193c-.086-.356-.228-.689-.414-.994l.959-1.231c-.258-.333-.557-.631-.89-.89l-1.232.959c-.304-.186-.637-.328-.994-.414l-.192-1.544c-.209-.026-.414-.064-.63-.064l-.63.064-.192 1.544c-.357.086-.69.228-.994.414l-1.232-.959c-.333.259-.632.557-.889.89l.959 1.231c-.187.305-.328.638-.415.994l-1.544.193c-.026.209-.063.414-.063.629 0 .217.037.422.063.631l1.544.191c.086.357.228.689.414.994l-.959 1.231c.258.334.557.631.89.891l1.231-.959c.305.186.638.328.994.414l.192 1.545c.21.025.415.062.631.062l.63-.063.192-1.545c.356-.086.689-.229.994-.414l1.231.959c.333-.26.632-.557.89-.891l-.959-1.231c.187-.305.328-.637.414-.994l1.544-.19zm-4.936 1.369c-1.105 0-2-.896-2-2s.895-2 2-2 2 .896 2 2-.895 2-2 2zm1-2c0 .553-.447 1-1 1s-1-.447-1-1c0-.552.447-1 1-1s1 .448 1 1z" id="colorImportance"/></svg>