<svg xmlns="http://www.w3.org/2000/svg" width="16" height="16"><style type="text/css">.icon-canvas-transparent{opacity:0;fill:#F6F6F6;} .icon-vs-out{fill:#F6F6F6;} .icon-vs-action-blue{fill:#00539C;}</style><path class="icon-canvas-transparent" d="M16 16h-16v-16h16v16z" id="canvas"/><path class="icon-vs-out" d="M1.004 6.909c.301-3.313 3.154-5.909 6.496-5.909 1.289 0 2.488.382 3.5 1.031v-1.031h1.414l2.586 2.586v5.462l-.004.043c-.301 3.313-3.154 5.909-6.496 5.909-1.289 0-2.488-.382-3.5-1.031v1.031h-1.414l-2.586-2.586.004-5.505z" id="outline"/><path class="icon-vs-action-blue" d="M4.976 5.082l-1.684-1.122c.363-.426.784-.802 1.26-1.103l.914 1.804c-.176.125-.338.268-.49.421zm3.524 6.918c-1.391 0-2.585-.822-3.149-2h2.649l-2-2h-4v4l2 2v-2.348c.996 1.417 2.64 2.348 4.5 2.348.549 0 1.071-.104 1.573-.254l-.917-1.809c-.214.04-.432.063-.656.063zm-4.331-5.653l-1.69-1.126c-.253.551-.421 1.149-.479 1.779h2c.032-.227.093-.443.169-.653zm6.365 4.992l.915 1.804c.475-.301.897-.677 1.259-1.103l-1.684-1.122c-.151.152-.313.296-.49.421zm1.466-9.339v2.348c-.996-1.417-2.641-2.348-4.5-2.348-.549 0-1.071.103-1.573.253l.918 1.809c.213-.04.431-.062.655-.062 1.391 0 2.585.822 3.148 2h-2.648l2 2h4v-4l-2-2zm-.168 7.653l1.689 1.126c.253-.55.421-1.149.479-1.779h-2c-.033.227-.093.443-.168.653z" id="colorImportance"/></svg>