<svg xmlns="http://www.w3.org/2000/svg" width="16" height="16"><style type="text/css">.icon-canvas-transparent{opacity:0;fill:#F6F6F6;} .icon-vs-out{fill:#F6F6F6;} .icon-vs-fg{fill:#F0EFF1;} .icon-vs-action-blue{fill:#00539C;}</style><path class="icon-canvas-transparent" d="M16 16h-16v-16h16v16z" id="canvas"/><path class="icon-vs-out" d="M15.546 13.288c-.249.284-.711.622-1.501.622h-2.757c-.788.847-2.24 2.059-4.121 2.084l-.124.006h-1v-.09c-2.359-.448-4.147-2.516-4.147-4.988 0-1.686.843-3.168 2.121-4.092v-1.456l-4.017 4.06v-9.434h1.414l2.603 2.586v-.612c0-.802.421-1.376.982-1.69l.939-.275.061-.009h6.056l3.939 3.533v8.319c.021.258.017.905-.448 1.436z" id="outline"/><path class="icon-vs-fg" d="M6.025 2.016h4.975v2.984h2.998v6.975h-7.023l4.025-4.975-4.975-3.631v-1.353z" id="iconFg"/><path class="icon-vs-action-blue" d="M7.109 15.098l-.066.006v-.004l-.038.004c-2.27 0-4.109-1.84-4.109-4.111 0-2.268 1.839-4.107 4.109-4.107v-1.645l2.465 2.055-2.465 2.054v-1.643c-1.815 0-3.287 1.473-3.287 3.285 0 1.816 1.472 3.289 3.287 3.289.155 0 .31-.014.464-.037h.005c.143-.023.287-.055.428-.096l.157-.057.258-.1.175-.088.311-.176c.431-.289.761-.668 1.002-1.092h1.308c0 .002-1.642 2.463-4.004 2.463zm-6.109-14.098l3 3-3 3.051v-6.051zm13.994 10.977v-7.977l-3.324-3h-5.671v.008s-.982.058-.982.979v4.313c.313-.133.638-.245.979-.314v-4.057h.003v.071h4.995v3h3v7h-1.253l-.668 1h1.972c1.092 0 .949-1.023.949-1.023z" id="colorAction"/></svg>