<svg xmlns="http://www.w3.org/2000/svg" width="16" height="16"><style type="text/css">.icon-canvas-transparent{opacity:0;fill:#F6F6F6;} .icon-vs-out{fill:#F6F6F6;} .icon-vs-fg{fill:#F0EFF1;} .icon-vs-action-blue{fill:#00539C;}</style><path class="icon-canvas-transparent" d="M16 16h-16v-16h16v16z" id="canvas"/><path class="icon-vs-out" d="M16 10v5h-15v-5h1v-3h5v-1h-2v-6h7v6h-2v1h5v3h1z" id="outline"/><path class="icon-vs-fg" d="M7 2h3v2h-3v-2zm-4 11h1v-1h-1v1zm5 0h1v-1h-1v1zm5-1v1h1v-1h-1z" id="iconFg"/><path class="icon-vs-action-blue" d="M14 11v-3h-5v-3h2v-4h-5v4h2v3h-5v3h-1v3h3v-3h-1v-2h4v2h-1v3h3v-3h-1v-2h4v2h-1v3h3v-3h-1zm-10 2h-1v-1h1v1zm5 0h-1v-1h1v1zm-2-9v-2h3v2h-3zm7 9h-1v-1h1v1z" id="colorImportance"/></svg>