<svg xmlns="http://www.w3.org/2000/svg" width="16" height="16"><style type="text/css">.icon-canvas-transparent{opacity:0;fill:#F6F6F6;} .icon-vs-out{fill:#F6F6F6;} .icon-vs-fg{fill:#F0EFF1;} .icon-vs-action-blue{fill:#00539C;}</style><path class="icon-canvas-transparent" d="M16 16h-16v-16h16v16z" id="canvas"/><path class="icon-vs-out" d="M15.994 11.852v-8.319l-3.939-3.533h-10.037v2.004h-2.018v3.957h2.018v1.987h.871c-.615.838-.992 1.859-.992 2.973 0 2.473 1.788 4.54 4.147 4.988v.091h1l.124-.006c1.88-.025 3.333-1.237 4.121-2.084h2.757c.79 0 1.252-.338 1.501-.622.464-.531.468-1.178.447-1.436z" id="outline"/><path class="icon-vs-fg" d="M11 2v3h3v7h-5l2-5-3-2v-3h3z" id="iconFg"/><path class="icon-vs-action-blue" d="M7.109 15.098l-.066.006v-.004l-.038.004c-2.27 0-4.109-1.84-4.109-4.111 0-2.268 1.839-4.107 4.109-4.107v-1.645l2.465 2.055-2.465 2.054v-1.643c-1.815 0-3.287 1.473-3.287 3.285 0 1.816 1.472 3.289 3.287 3.289.155 0 .31-.014.464-.037h.005c.143-.023.287-.055.428-.096l.157-.057.258-.1.175-.088.311-.176c.431-.289.761-.668 1.002-1.092h1.308c0 .002-1.642 2.463-4.004 2.463zm-.109-12.08h-2v-2.018h-1.982v2.018h-2.018v1.982h2.018v2h1.982v-2h2v-1.982zm7.994 8.959v-7.977l-3.324-3h-5.67v1h4.995v3h3v7h-1.995v1h2.045c1.092 0 .949-1.023.949-1.023z" id="colorAction"/></svg>