<svg xmlns="http://www.w3.org/2000/svg" width="16" height="16"><style type="text/css">.icon-canvas-transparent{opacity:0;fill:#F6F6F6;} .icon-vs-out{fill:#F6F6F6;} .icon-vs-action-blue{fill:#00539C;}</style><path class="icon-canvas-transparent" d="M16 16h-16v-16h16v16z" id="canvas"/><path class="icon-vs-out" d="M11.805 10.657c-.166.459-.441.909-.814 1.308l4.558-8.965h-4l-.406.799-3.36-3.799h-.783v2.859c-3 .609-5.002 3.199-5.002 6.374 0 3.668 2.975 6.767 6.488 6.767.252 0 .5-.018.709-.042 2.543-.208 4.832-2.072 5.693-4.64l.446-1.318h-3.289l-.24.657zm-4.777-4.455v.831h-.976c.27-.331.598-.616.976-.831zm.685 6.522c-1.418-.454-2.447-1.922-2.447-3.49 0-.345.053-.677.147-.993l.442.885 1.883 3.607-.025-.009zm.96.276c-.124 0-.296-.054-.479-.116h1.298c-.256.067-.524.116-.819.116zm.499-5.212l-.113-.23.482-.509-.369.739z" id="outline"/><path class="icon-vs-action-blue" d="M13.932 11c-.709 2.109-2.297 3.779-4.525 3.961-.205.023-.712.039-.926.039-3.026 0-5.481-2.721-5.481-5.767 0-2.938 2.135-5.333 5.016-5.5v-1.964l2.472 2.815-2.472 2.606v-2.387c-2.129.357-3.761 2.188-3.761 4.43 0 2.019 1.285 4.006 3.142 4.442 3.838.902 5.079-1.972 5.336-2.676h1.199zm-5.519.884h1.492l4-7.851h-1.75l-3 6.001-.989-2.001h-1.75l.314.629 1.683 3.222z" id="colorImportance"/></svg>