<svg xmlns="http://www.w3.org/2000/svg" width="16" height="16"><style type="text/css">.icon-canvas-transparent{opacity:0;fill:#F6F6F6;} .icon-vs-out{fill:#F6F6F6;} .icon-vs-bg{fill:#424242;} .icon-vs-action-blue{fill:#00539C;}</style><path class="icon-canvas-transparent" d="M16 16h-16v-16h16v16z" id="canvas"/><path class="icon-vs-out" d="M14 7v9h-12v-.586l-2-2v-.828l2-2v-3.586h3.5c-.839-.734-1.5-1.798-1.5-3 0-2.209 1.791-4 4-4s4 1.791 4 4c0 1.201-.661 2.266-1.5 3h3.5z" id="outline"/><path class="icon-vs-bg" d="M5 4c0-1.656 1.343-3 3-3 1.654 0 3 1.344 3 3s-1.346 3-3 3c-1.657 0-3-1.343-3-3m1 4h-3v2h4.333l-1.333-2zm7 0h-3l-1.333 2h.747l2.586 2.586v.828l-1.586 1.586h2.586v-7z" id="iconBg"/><path class="icon-vs-action-blue" d="M8 15h-4v-4h4v4zm1-4v1l1 1-1 1v1l2-2-2-2zm-8 2l2 2v-1l-1-1 1-1v-1l-2 2z" id="colorImportance"/></svg>