<svg xmlns="http://www.w3.org/2000/svg" width="16" height="16"><style type="text/css">.icon-canvas-transparent{opacity:0;fill:#F6F6F6;} .icon-vs-out{fill:#F6F6F6;} .icon-vs-bg{fill:#424242;} .icon-vs-action-blue{fill:#00539C;} .st0{fill:#F0EFF1;}</style><path class="icon-canvas-transparent" d="M16 16h-16v-16h16v16z" id="canvas"/><path class="icon-vs-out" d="M16 15h-5.586l-1 1h-6.828l-1-1h-1.586v-13h5v-1h6v1h5v13z" id="outline"/><path class="icon-vs-bg" d="M1 11.586l1-1v-.586h3v-7h-4v8.586zm1-7.586h2v2h-2v-2zm4 6h3.414l.586.586v-8.586h-4v8zm1-7h2v1h-2v-1zm4 0v8.586l1 1v-.586h2v1h-2v.414l-.586.586h3.586v-11h-4zm3 8h-2v-1h2v1zm0-5h-2v-2h2v2z" id="iconBg"/><path class="st0" d="M2 4h2v2h-2v-2zm10 0v2h2v-2h-2zm-5 0h2v-1h-2v1zm5 9h2v-1h-2v1zm0-2h2v-1h-2v1z" id="iconFg"/><path class="icon-vs-action-blue" d="M8 15h-4v-4h4v4zm1-4v1l1 1-1 1v1l2-2-2-2zm-8 2l2 2v-1l-1-1 1-1v-1l-2 2z" id="colorImportance"/></svg>