<svg xmlns="http://www.w3.org/2000/svg" width="16" height="16"><style type="text/css">.icon-canvas-transparent{opacity:0;fill:#F6F6F6;} .icon-vs-out{fill:#F6F6F6;} .icon-vs-bg{fill:#424242;} .icon-vs-fg{fill:#F0EFF1;} .icon-vs-action-blue{fill:#00539C;}</style><path class="icon-canvas-transparent" d="M16 16h-16v-16h16v16z" id="canvas"/><path class="icon-vs-out" d="M16 15h-5.586l-1 1h-6.828l-1-1h-1.586v-14h16v14z" id="outline"/><path class="icon-vs-bg" d="M15 2v12h-3.584l.584-.586v-.414h2v-8h-12v5.586l-1 1v-9.586h14z" id="iconBg"/><path class="icon-vs-fg" d="M14 5v8h-2v-.414l-2.586-2.586h-6.828l-.586.586v-5.586h12z" id="iconFg"/><path class="icon-vs-action-blue" d="M8 15h-4v-4h4v4zm1-4v1l1 1-1 1v1l2-2-2-2zm-8 2l2 2v-1l-1-1 1-1v-1l-2 2z" id="colorImportance"/></svg>