<svg xmlns="http://www.w3.org/2000/svg" width="16" height="16"><style type="text/css">.icon-canvas-transparent{opacity:0;fill:#F6F6F6;} .icon-vs-out{fill:#F6F6F6;} .icon-vs-bg{fill:#424242;} .icon-vs-fg{fill:#F0EFF1;} .icon-vs-action-blue{fill:#00539C;}</style><path class="icon-canvas-transparent" d="M16 16h-16v-16h16v16z" id="canvas"/><path class="icon-vs-out" d="M9.57 15.844l-.156.156h-6.828l-2.586-2.586v-.828l.903-.903c-.574-1.103-.903-2.354-.903-3.683 0-4.418 3.582-8 8-8s8 3.582 8 8c0 3.88-2.764 7.114-6.43 7.844z" id="outline"/><path class="icon-vs-bg" d="M14.988 7.764c-.126-3.756-3.202-6.764-6.988-6.764-3.866 0-7 3.134-7 7 0 .204.012.405.03.604l.07.532.002.018c.104.624.306 1.212.563 1.768l.921-.922h.037l-.137-.375c.431.132.903.258 1.401.375h5.527l1 1 .208-.618c.894-.115 1.845-.343 2.886-.734-.316 1.062-.939 1.984-1.757 2.689l.249.249v.828l-.823.823c2.268-1.157 3.823-3.514 3.823-6.237l-.012-.236zm-7.72-5.462c.24-.031.483-.052.732-.052l.488.024c.468.812.944 1.846 1.221 3.108-.571.039-1.133.044-1.703.039-.6-.007-1.181-.048-1.739-.11.233-1.216.618-2.215 1.001-3.009zm-4.997 6.101l-.021-.403c0-.819.174-1.597.482-2.303.686.202 1.448.394 2.3.539-.042.406-.072.821-.077 1.258-.006.535.034 1.083.099 1.637-1.076-.195-2.006-.464-2.783-.728zm2.914-3.25c-.692-.12-1.325-.272-1.903-.435.647-.93 1.563-1.655 2.635-2.073-.29.723-.556 1.554-.732 2.508zm4.561 4.222c-.584.041-1.158.049-1.74.046-.636-.007-1.248-.054-1.838-.123-.084-.61-.129-1.209-.123-1.792.004-.387.031-.756.067-1.115.603.068 1.23.113 1.882.12l.403.003c.488 0 .982-.016 1.487-.055.038.34.066.686.07 1.047.007.577-.067 1.202-.208 1.869zm.135-6.804c1.176.407 2.179 1.18 2.868 2.188-.686.236-1.334.4-1.951.496-.214-1.03-.551-1.918-.917-2.684zm3.85 5.803c-1.038.452-1.972.722-2.848.863.11-.612.167-1.194.161-1.743-.004-.4-.035-.782-.076-1.156.727-.113 1.494-.308 2.316-.604.3.696.466 1.461.466 2.266l-.019.374z" id="iconBg"/><path class="icon-vs-fg" d="M10.969 6.338c.727-.113 1.494-.308 2.316-.604.299.696.465 1.461.465 2.266l-.019.374c-1.038.452-1.972.722-2.848.863.11-.612.167-1.194.161-1.743-.003-.4-.034-.782-.075-1.156zm-1.088-3.767c.366.766.703 1.653.917 2.685.617-.096 1.265-.26 1.951-.496-.689-1.009-1.692-1.781-2.868-2.189zm-.181 6.804c.141-.667.261-1.292.255-1.869-.004-.361-.032-.707-.07-1.047-.505.039-.996.055-1.485.055l-.4-.003c-.651-.007-1.285-.052-1.888-.12-.036.359-.063.728-.067 1.115-.006.583-.029 1.135.055 1.744.589.069 1.264.164 1.9.171.582.003 1.116-.005 1.7-.046zm-2.432-7.073c-.383.794-.834 1.793-1.068 3.009.559.062 1.2.103 1.8.11.57.005 1.129 0 1.7-.039-.277-1.262-.744-2.296-1.212-3.108l-.488-.024c-.249 0-.492.021-.732.052zm-3.986 2.416c.578.163 1.211.315 1.903.435.177-.954.442-1.785.732-2.508-1.071.418-1.987 1.143-2.635 2.073zm-1.011 3.685c.777.264 1.707.532 2.783.728-.065-.554-.105-1.102-.099-1.637.005-.437.035-.852.077-1.258-.852-.146-1.614-.337-2.3-.539-.308.706-.482 1.484-.482 2.303l.021.403zm9.48 3.934c.817-.705 1.44-1.628 1.757-2.689-1.041.392-1.992.619-2.886.734l-.208.618 1.337 1.337z" id="iconFg"/><path class="icon-vs-action-blue" d="M8 15h-4v-4h4v4zm3-2l-2 2v-1l1-1-1-1v-1l2 2zm-8-2v1l-1 1 1 1v1l-2-2 2-2z" id="colorImportance"/></svg>