<svg xmlns="http://www.w3.org/2000/svg" width="16" height="16"><style type="text/css">.icon-canvas-transparent{opacity:0;fill:#F6F6F6;} .icon-vs-out{fill:#F6F6F6;} .icon-vs-bg{fill:#424242;} .icon-vs-fg{fill:#F0EFF1;}</style><path class="icon-canvas-transparent" d="M16 16h-16v-16h16v16z" id="canvas"/><path class="icon-vs-out" d="M16 15h-16v-14h16v14z" id="outline"/><path class="icon-vs-bg" d="M1 2v12h14v-12h-14zm13 11h-12v-10h12v10zm-8-2h-3v-1h1v-3.724l-1 .302v-1.008l2-.57v5h1v1zm6.861-4.391c-.088-.374-.214-.682-.38-.92-.167-.238-.368-.413-.605-.523-.237-.111-.506-.166-.806-.166-.307 0-.588.059-.843.178-.254.119-.472.303-.655.554-.182.25-.323.573-.423.965-.1.393-.149.863-.149 1.41 0 .51.048.947.145 1.313.099.365.232.664.403.898.172.233.377.405.614.516.239.11.501.166.784.166.298 0 .573-.061.824-.181.252-.119.467-.304.648-.552.18-.248.321-.564.422-.944.101-.382.151-.835.151-1.358.001-.527-.042-.981-.13-1.356zm-.882 1.371v.05c0 .396-.025.735-.073 1.009-.052.28-.118.498-.205.667-.084.169-.184.288-.303.366-.12.076-.247.113-.389.113-.15 0-.288-.038-.41-.113-.123-.078-.229-.201-.316-.365-.09-.169-.16-.389-.209-.654-.049-.265-.074-.592-.074-.971 0-.417.026-.775.076-1.063.052-.289.124-.526.217-.706.091-.177.199-.307.324-.385.123-.078.262-.118.413-.118.141 0 .266.034.384.102.116.07.217.188.3.351.086.167.153.396.202.683.046.274.069.622.071 1.035h-.008zm-3.979 2.52c0 .276-.224.5-.5.5s-.5-.224-.5-.5.224-.5.5-.5.5.224.5.5z" id="iconBg"/><path class="icon-vs-fg" d="M2 3v10h12v-10h-12zm4 8h-3v-1h1v-3.724l-1 .302v-1.008l2-.57v5h1v1zm1.5 0c-.277 0-.5-.224-.5-.5s.223-.5.5-.5.5.224.5.5-.224.5-.5.5zm5.341-1.677c-.101.381-.242.696-.422.944-.182.248-.396.433-.648.552-.252.12-.527.181-.825.181-.283 0-.545-.056-.784-.166-.237-.11-.442-.282-.614-.516-.171-.234-.305-.533-.403-.898-.097-.365-.145-.803-.145-1.313 0-.547.049-1.017.149-1.41.1-.393.24-.715.423-.965.183-.251.4-.436.655-.555.255-.118.537-.177.843-.177.3 0 .568.055.806.166.237.11.438.285.605.523.166.238.292.546.38.92.088.375.131.828.131 1.355 0 .524-.051.977-.151 1.359zm-.925-2.377c.046.274.069.622.071 1.035h-.008v.05c0 .396-.025.735-.073 1.009-.052.28-.118.498-.205.667-.084.169-.184.288-.303.366-.12.076-.247.113-.389.113-.15 0-.288-.038-.41-.113-.123-.078-.229-.201-.316-.365-.09-.169-.16-.389-.209-.654-.049-.266-.074-.593-.074-.972 0-.417.026-.775.076-1.063.052-.289.124-.526.217-.706.091-.177.199-.307.324-.385.123-.078.262-.118.413-.118.141 0 .266.034.384.102.116.07.217.188.3.351.086.167.153.396.202.683z" id="iconFg"/></svg>