<svg xmlns="http://www.w3.org/2000/svg" viewBox="0 0 16 16"><style>.icon-canvas-transparent{opacity:0;fill:#f6f6f6}.icon-vs-out{fill:#f6f6f6}.icon-vs-bg{fill:#424242}.icon-vs-blue{fill:#1ba1e2}</style><path class="icon-canvas-transparent" d="M16 0v16H0V0h16z" id="canvas"/><g id="outline"><path transform="rotate(90 13.5 3.5)" class="icon-vs-out" d="M11 1h5v5h-5z"/><path class="icon-vs-out" d="M1 16V3h9v4h4v9z"/></g><path class="icon-vs-bg" d="M2 4h3v3H2V4zm0 7h3V8H2v3zm0 4h3v-3H2v3zm4-8h3V4H6v3zm0 4h3V8H6v3zm0 4h3v-3H6v3zm4-7v3h3V8h-3zm0 7h3v-3h-3v3z" id="iconBg"/><path class="icon-vs-blue" d="M15 2v3h-3V2h3z" id="colorAction"/></svg>