<svg xmlns="http://www.w3.org/2000/svg" width="16" height="16"><style type="text/css">.icon-canvas-transparent{opacity:0;fill:#F6F6F6;} .icon-vs-out{fill:#F6F6F6;} .icon-vs-bg{fill:#424242;} .icon-vs-fg{fill:#F0EFF1;}</style><path class="icon-canvas-transparent" d="M16 16h-16v-16h16v16z" id="canvas"/><path class="icon-vs-out" d="M4 0h8v16h-8v-16z" id="outline"/><path class="icon-vs-bg" d="M5 1v5h6v-5h-6zm1 4l2-3 2 3h-4zm-1 10h6v-5h-6v5zm5-4l-2 3-2-3h4zm-5-4h6v2h-6v-2z" id="iconBg"/><path class="icon-vs-fg" d="M10 5h-4l2-3 2 3zm-2 9l2-3h-4l2 3z" id="iconFg"/></svg>