<svg xmlns="http://www.w3.org/2000/svg" width="16" height="16"><style type="text/css">.icon-canvas-transparent{opacity:0;fill:#F6F6F6;} .icon-vs-out{fill:#F6F6F6;} .icon-vs-bg{fill:#424242;} .icon-vs-fg{fill:#F0EFF1;}</style><path class="icon-canvas-transparent" d="M16 16h-16v-16h16v16z" id="canvas"/><path class="icon-vs-out" d="M16 0v8h-1v2h-4v5h-1v1h-5v-1h-2v1h-3v-9h3v1h2v-8h11z" id="outline"/><path class="icon-vs-bg" d="M15 7v-6h-9v6h3v1h2v1h3v-1h-2v-1h3zm-8-1v-4h7v4h-7zm-5 3v-1h-1v7h1v-1h4v1h3v-1h1v-5h-8zm7 4h-1v1h-1v-1h-5v-3h7v3zm-5-1h-1v-1h1v1zm2 0h-1v-1h1v1zm2 0h-1v-1h1v1z" id="iconBg"/><path class="icon-vs-fg" d="M14 6h-7v-4h7v4zm-5 4v3h-1v1h-1v-1h-5v-3h7zm-5 1h-1v1h1v-1zm2 0h-1v1h1v-1zm2 0h-1v1h1v-1z" id="iconFg"/></svg>