<svg xmlns="http://www.w3.org/2000/svg" width="16" height="16"><style type="text/css">.icon-canvas-transparent{opacity:0;fill:#F6F6F6;} .icon-vs-out{fill:#F6F6F6;} .icon-vs-bg{fill:#424242;}</style><path class="icon-canvas-transparent" d="M16 16h-16v-16h16v16z" id="canvas"/><path class="icon-vs-out" d="M11.5 14v1h-11v-8h1.409c-.808-.569-1.337-1.509-1.337-2.57 0-1.732 1.41-3.142 3.143-3.142.827 0 1.581.321 2.143.845.561-.524 1.315-.845 2.142-.845 1.732 0 3.143 1.41 3.143 3.142 0 1.061-.528 2.001-1.336 2.57h1.693v1l4-1.869v9.737l-4-1.868z" id="outline"/><path class="icon-vs-bg" d="M1.572 4.43c0-1.185.96-2.142 2.143-2.142 1.183 0 2.143.957 2.143 2.142 0 1.183-.959 2.143-2.143 2.143-1.183-.001-2.143-.96-2.143-2.143zm9.428 5.57v2l3 2v-6l-3 2zm-3-3.428c1.182 0 2.143-.959 2.143-2.143 0-1.185-.961-2.142-2.143-2.142-1.184 0-2.142.957-2.142 2.142 0 1.184.958 2.143 2.142 2.143zm-7 7.428h9v-6h-9v6z" id="iconBg"/></svg>