<svg xmlns="http://www.w3.org/2000/svg" width="16" height="16"><style type="text/css">.icon-canvas-transparent{opacity:0;fill:#F6F6F6;} .icon-vs-out{fill:#F6F6F6;} .icon-vs-bg{fill:#424242;} .icon-vs-fg{fill:#F0EFF1;} .icon-vs-action-blue{fill:#00539C;}</style><path class="icon-canvas-transparent" d="M16 16h-16v-16h16v16z" id="canvas"/><path class="icon-vs-out" d="M16 5v9h-1v2h-10v-2h-1v-5h-2.414l-1.586-1.586v-5.828l1.586-1.586h5.828l1.586 1.586v3.414h7z" id="outline"/><path class="icon-vs-bg" d="M11 13v1h3v1h-8v-1h3v-1h-4v-4h1v3h8v-5h-5v-1h6v7h-4z" id="iconBg"/><path class="icon-vs-fg" d="M14 7v5h-8v-3h1.414l1.586-1.586v-.414h5zm-7-2.5c0 1.381-1.119 2.5-2.5 2.5s-2.5-1.119-2.5-2.5 1.119-2.5 2.5-2.5 2.5 1.119 2.5 2.5zm-1 0c0-.828-.672-1.5-1.5-1.5s-1.5.672-1.5 1.5.672 1.5 1.5 1.5 1.5-.672 1.5-1.5z" id="iconFg"/><path class="icon-vs-action-blue" d="M7 1h-5l-1 1v5l1 1h5l1-1v-5l-1-1zm-2.5 6c-1.381 0-2.5-1.119-2.5-2.5s1.119-2.5 2.5-2.5 2.5 1.119 2.5 2.5-1.119 2.5-2.5 2.5zm1.5-2.5c0 .828-.672 1.5-1.5 1.5s-1.5-.672-1.5-1.5.672-1.5 1.5-1.5 1.5.672 1.5 1.5z" id="colorImportance"/></svg>