<svg xmlns="http://www.w3.org/2000/svg" width="16" height="16"><style type="text/css">.icon-canvas-transparent{opacity:0;fill:#F6F6F6;} .icon-vs-out{fill:#F6F6F6;} .icon-vs-bg{fill:#424242;} .icon-vs-fg{fill:#F0EFF1;} .icon-vs-yellow{fill:#FFCC00;}</style><path class="icon-canvas-transparent" d="M16 16h-16v-16h16v16z" id="canvas"/><path class="icon-vs-out" d="M16 14l-1 2h-7l-1-2h-5v-12h12v8l2 4z" id="outline"/><path class="icon-vs-bg" d="M13 3v5l-.5-1h-.5v-2.293l-2 2-.707-.707 1.999-2h-6.584l1.999 2-.707.707-2-2v6.586l2-2 .707.707-2.001 2h3.294l-.5 1h-4.5v-10h10z" id="iconBg"/><path class="icon-vs-fg" d="M4.707 12l2-2-.707-.707-2 2v-6.586l2 2 .707-.707-2-2h6.586l-2 2 .707.707 2-2v2.293h-1.5l-2.5 5h-3.293z" id="iconFg"/><path class="icon-vs-yellow" d="M11.891 8.016h-.781l-3.016 6 .515.984h5.766l.484-1-2.968-5.984zm.109 5.984h-1v-1h1v1zm0-2h-1v-2h1v2z" id="notificationBg"/><path class="icon-black" d="M11 13h1v1h-1v-1zm0-3v2h1v-2h-1z" id="notificationFg"/></svg>