<svg xmlns="http://www.w3.org/2000/svg" width="16" height="16"><style type="text/css">.icon-canvas-transparent{opacity:0;fill:#F6F6F6;} .icon-vs-out{fill:#F6F6F6;} .icon-vs-bg{fill:#424242;} .icon-vs-fg{fill:#F0EFF1;} .icon-vs-action-blue{fill:#00539C;}</style><path class="icon-canvas-transparent" d="M16 16h-16v-16h16v16z" id="canvas"/><path class="icon-vs-out" d="M15 4.465v7.07l-6.697 4.465h-.606l-6.697-4.465v-7.07l6.697-4.465h.606l6.697 4.465z" id="outline"/><path class="icon-vs-action-blue" d="M8.5 9.268l4.5-3v4.197l-4.5 3v-4.197z" id="colorImportance"/><path class="icon-vs-bg" d="M8 1l-6 4v6l6 4 6-4v-6l-6-4zm.5 1.535l4.148 2.765-3.148 2.099-1-.667v-4.197zm-1 0v4.197l-1 .667-3.147-2.099 4.147-2.765zm-4.5 3.733l2.599 1.732-2.599 1.732v-3.464zm4.5 7.197l-4.148-2.766 3.148-2.098 1 .667v4.197zm-.099-5.465l.599-.399.599.399-.599.399-.599-.399zm5.599 2.465l-4.5 3v-4.197l4.5-3v4.197z" id="iconBg"/><path class="icon-vs-fg" d="M6.5 8.601l1 .667v4.197l-4.148-2.766 3.148-2.098zm1-1.869v-4.197l-4.147 2.765 3.147 2.1 1-.668zm-4.5-.464v3.465l2.599-1.733-2.599-1.732zm5.5-3.733v4.197l1 .667 3.148-2.1-4.148-2.764zm-1.099 5.465l.599.399.599-.399-.599-.399-.599.399z" id="iconFg"/></svg>