<svg xmlns="http://www.w3.org/2000/svg" width="16" height="16"><style type="text/css">.icon-canvas-transparent{opacity:0;fill:#F6F6F6;} .icon-vs-out{fill:#F6F6F6;} .icon-vs-bg{fill:#424242;} .icon-vs-fg{fill:#F0EFF1;} .icon-vs-action-blue{fill:#00539C;}</style><path class="icon-canvas-transparent" d="M16 16h-16v-16h16v16z" id="canvas"/><path class="icon-vs-out" d="M15 4.465v7.07l-6.697 4.465h-.606l-6.697-4.465v-7.07l6.697-4.465h.606l6.697 4.465z" id="outline"/><path class="icon-vs-bg" d="M8 1l-6 4v6l6 4 6-4v-6l-6-4zm.5 1.535l4.148 2.765-3.148 2.099-1-.667v-4.197zm-5.5 3l4.5-3v4.197l-4.5 3v-4.197zm4.5 7.93l-4.148-2.766 3.148-2.098 1 .667v4.197zm-.099-5.465l.599-.399.599.399-.599.399-.599-.399zm1.099 5.465v-4.197l1-.667 3.148 2.099-4.148 2.765zm4.5-3.733l-2.599-1.732 2.599-1.732v3.464z" id="iconBg"/><path class="icon-vs-fg" d="M9.5 7.399l-1-.667v-4.197l4.148 2.765-3.148 2.099zm-1.5.202l-.599.399.599.399.599-.399-.599-.399zm.5 1.667v4.197l4.148-2.766-3.148-2.098-1 .667zm1.901-1.268l2.599 1.732v-3.464l-2.599 1.732zm-7.049 2.699l4.148 2.766v-4.197l-1-.667-3.148 2.098zm9.296-5.399l-4.148-2.765v4.197l1 .667 3.148-2.099z" id="iconFg"/><path class="icon-vs-action-blue" d="M7.5 2.535l-4.5 3v4.197l4.5-3z" id="colorImportance"/></svg>