<svg xmlns="http://www.w3.org/2000/svg" width="16" height="16"><style type="text/css">.icon-canvas-transparent{opacity:0;fill:#F6F6F6;} .icon-vs-out{fill:#F6F6F6;} .icon-vs-bg{fill:#424242;} .icon-vs-fg{fill:#F0EFF1;} .icon-vs-action-blue{fill:#00539C;}</style><path class="icon-canvas-transparent" d="M16 16h-16v-16h16v16z" id="canvas"/><path class="icon-vs-out" d="M15 4.465v7.07l-6.697 4.465h-.606l-6.697-4.465v-7.07l6.697-4.465h.606l6.697 4.465z" id="outline"/><path class="icon-vs-bg" d="M8 1l-6 4v6l6 4 6-4v-6l-6-4zm.5 1.535l4.148 2.765-3.148 2.099-1-.667v-4.197zm-1 0v4.197l-1 .667-3.147-2.099 4.147-2.765zm0 10.93l-4.5-3v-4.197l4.5 3v4.197zm-.1-5.465l.6-.399.6.399-.6.399-.6-.399zm1.1 5.465v-4.197l1-.667 3.148 2.099-4.148 2.765zm4.5-3.733l-2.599-1.732 2.599-1.732v3.464z" id="iconBg"/><path class="icon-vs-fg" d="M9.5 7.399l-1-.667v-4.197l4.148 2.765-3.148 2.099zm-1.5.202l-.599.399.599.399.599-.399-.599-.399zm-.5-5.066l-4.147 2.765 3.147 2.1 1-.667v-4.198zm2.901 5.465l2.599 1.732v-3.464l-2.599 1.732zm-1.901 1.268v4.197l4.148-2.766-3.148-2.098-1 .667z" id="iconFg"/><path class="icon-vs-action-blue" d="M3 6.268l4.5 3v4.197l-4.5-3v-4.197z" id="colorImportance"/></svg>