<svg xmlns="http://www.w3.org/2000/svg" width="16" height="16"><style type="text/css">.icon-canvas-transparent{opacity:0;fill:#F6F6F6;} .icon-vs-out{fill:#F6F6F6;} .icon-vs-bg{fill:#424242;} .icon-vs-fg{fill:#F0EFF1;}</style><path class="icon-canvas-transparent" d="M16 16h-16v-16h16v16z" id="canvas"/><path class="icon-vs-out" d="M7.989 15.984c-4.374 0-7.933-3.559-7.933-7.932 0-4.374 3.559-7.933 7.933-7.933 4.373 0 7.933 3.559 7.933 7.933s-3.56 7.932-7.933 7.932z" id="outline"/><path class="icon-vs-bg" d="M7.989 1.45c-3.647 0-6.603 2.956-6.603 6.603 0 3.646 2.956 6.602 6.603 6.602 3.646 0 6.603-2.955 6.603-6.602 0-3.647-2.956-6.603-6.603-6.603zm-5.423 6.603c0-2.907 2.441-5.413 5.348-5.413 1.888 0 3.609 1.36 4.541 2.36h-7.455v7.563c-1-.921-2.434-2.589-2.434-4.51zm5.434 4.947v-5h5.25l.012.082c0 2.907-2.346 5.126-5.253 5.126" id="iconBg"/><path class="icon-vs-fg" d="M2.566 8.053c0-2.907 2.441-5.413 5.348-5.413 1.888 0 3.609 1.36 4.541 2.36h-7.455v7.563c-1-.921-2.434-2.589-2.434-4.51zm5.442 5.155c2.908 0 5.253-2.219 5.253-5.126l-.011-.082h-5.25v5" id="iconFg"/></svg>