<svg xmlns="http://www.w3.org/2000/svg" width="16" height="16"><style type="text/css">.icon-canvas-transparent{opacity:0;fill:#F6F6F6;} .icon-vs-out{fill:#F6F6F6;} .icon-vs-bg{fill:#424242;}</style><path class="icon-canvas-transparent" d="M16 16h-16v-16h16v16z" id="canvas"/><path class="icon-vs-out" d="M13 5v6h2v5l-13-.012v-4.988h3v-6h-3v-5h13v5h-2z" id="outline"/><path class="icon-vs-bg" d="M7 13h-4v-1h4v1zm7-1h-6v1h6v-1zm0 2h-11v1h11v-1zm-2-9h-6v6h6v-6zm-5-2h-4v1h4v-1zm7 0h-6v1h6v-1zm0-2h-11v1h11v-1z" id="iconBg"/></svg>