<svg xmlns="http://www.w3.org/2000/svg" width="16" height="16"><style>.icon-canvas-transparent{opacity:0;fill:#f6f6f6}.icon-vs-out{fill:#f6f6f6}.icon-vs-bg{fill:#424242}.icon-vs-fg{fill:#f0eff1}</style><path class="icon-canvas-transparent" d="M16 16H0V0h16v16z" id="canvas"/><path class="icon-vs-out" d="M15 12H9.24A4.5 4.5 0 1 1 3 5.76V2h12v10z" id="outline"/><path class="icon-vs-bg" d="M5.5 6a3.5 3.5 0 1 0 0 7 3.5 3.5 0 0 0 0-7zm0 6A2.5 2.5 0 0 1 3 9.5a2.49 2.49 0 0 1 1-1.989V11h3.489A2.49 2.49 0 0 1 5.5 12zM6 9V7.05A2.502 2.502 0 0 1 7.949 9H6zm8-6v8H9.725c.113-.318.187-.652.225-1H13V5H5v.05a4.472 4.472 0 0 0-1 .225V3h10z" id="iconBg"/><path class="icon-vs-fg" d="M4 11h3.489A2.49 2.49 0 0 1 5.5 12 2.5 2.5 0 0 1 3 9.5a2.49 2.49 0 0 1 1-1.989V11zm1.5-6A4.5 4.5 0 0 1 10 9.5c0 .172-.032.334-.051.5H13V5H5.5zM6 7.05V9h1.949A2.502 2.502 0 0 0 6 7.05z" id="iconFg"/></svg>