<svg xmlns="http://www.w3.org/2000/svg" width="16" height="16"><style type="text/css">.icon-canvas-transparent{opacity:0;fill:#F6F6F6;} .icon-vs-out{fill:#F6F6F6;} .icon-vs-bg{fill:#424242;} .icon-vs-action-blue{fill:#00539C;}</style><path class="icon-canvas-transparent" d="M16 16h-16v-16h16v16z" id="canvas"/><path class="icon-vs-out" d="M14 10v-3h-4v-1h2v-5h-4v-.414l-.414.414h-1.586v-1h-4v2.586l-2-2v4.828l3 3v1.586h-2v5h7v-5h1v5h7v-5h-2zm-7.586-3l.586-.586v.586h-.586z" id="outline"/><path class="icon-vs-bg" d="M6.586 2l-.586.586v-.586h.586zm6.414 9v-3h-4v-3h2v-3h-3v6h-2.586l-1.414 1.414v1.586h-2v3h5v-3h-2v-2h7v2h-2v3h5v-3h-2z" id="iconBg"/><path class="icon-vs-action-blue" d="M7 3v2l-3 3-3-3v-2l2 2v-4h2v4l2-2z" id="colorImportance"/></svg>