<svg xmlns="http://www.w3.org/2000/svg" width="16" height="16"><style type="text/css">.icon-canvas-transparent{opacity:0;fill:#F6F6F6;} .icon-vs-out{fill:#F6F6F6;} .icon-vs-bg{fill:#424242;} .icon-vs-fg{fill:#F0EFF1;} .icon-vs-red{fill:#E51400;} .icon-white{fill:#FFFFFF;}</style><path class="icon-canvas-transparent" d="M16 16h-16v-16h16v16z" id="canvas"/><path class="icon-vs-out" d="M16 11.5c0 2.485-2.015 4.5-4.5 4.5-1.56 0-2.933-.795-3.74-2h-5.76v-12h12v5.76c1.205.807 2 2.18 2 3.74z" id="outline"/><path class="icon-vs-bg" d="M13 3v4.275c-.318-.113-.653-.186-1-.225v-2.343l-2 2-.707-.707 1.999-2h-6.584l1.999 2-.707.707-2-2v6.586l2-2 .707.707-2.001 2h2.344c.039.347.112.682.225 1h-4.275v-10h10z" id="iconBg"/><path class="icon-vs-fg" d="M12 4.707v2.343c-.166-.018-.329-.05-.5-.05-2.485 0-4.5 2.015-4.5 4.5 0 .171.032.334.05.5h-2.343l2-2-.707-.707-2 2v-6.586l2 2 .707-.707-2-2h6.586l-2 2 .707.707 2-2z" id="iconFg"/><path class="icon-vs-red" d="M11.5 8c-1.933 0-3.5 1.567-3.5 3.5s1.567 3.5 3.5 3.5 3.5-1.567 3.5-3.5-1.567-3.5-3.5-3.5zm1.854 4.646l-.707.707-1.147-1.146-1.146 1.147-.707-.707 1.147-1.146-1.147-1.146.707-.707 1.146 1.147 1.146-1.147.707.707-1.146 1.145 1.147 1.146z" id="notificationBg"/><path class="icon-white" d="M12.207 11.5l1.147 1.146-.707.707-1.147-1.146-1.146 1.147-.707-.707 1.147-1.146-1.147-1.146.707-.707 1.146 1.147 1.146-1.147.707.707-1.146 1.145z" id="notificationFg"/></svg>