<svg xmlns="http://www.w3.org/2000/svg" width="16" height="16"><style type="text/css">.icon-canvas-transparent{opacity:0;fill:#F6F6F6;} .icon-vs-out{fill:#F6F6F6;} .icon-vs-bg{fill:#424242;} .icon-vs-fg{fill:#F0EFF1;} .icon-vs-action-blue{fill:#00539C;}</style><path class="icon-canvas-transparent" d="M16 16h-16v-16h16v16z" id="canvas"/><path class="icon-vs-out" d="M16 9.777c0 3.234-2.424 5.908-5.64 6.221-.204.02-1.665-.152-1.665-.152-2.604-.43-4.668-2.449-5.104-5.081l-.064-.468c-.017-.175-.027-.345-.027-.528 0-.615.093-1.207.259-1.769l.085-.258c.088-.256.193-.503.312-.742h-2.156v-2.589l-1.89-1.911 2.473-2.5h3.832l-1 1h2.585v2.583l.156.155c.51-.135 1.042-.213 1.594-.213 3.386 0 6.127 2.655 6.24 6.041l.01.211z" id="outline"/><path class="icon-vs-bg" d="M14.991 9.602c-.095-2.817-2.401-5.073-5.241-5.073-.246 0-.482.04-.72.073l.883.873.203.01c.351.608.708 1.384.915 2.33-.428.029-.85.033-1.277.029-.449-.004-.885-.034-1.304-.082.074-.385.171-.735.277-1.063l-1.316 1.301h-2.58c-.203.558-.331 1.151-.331 1.779l.022.453.053.399.002.014c.366 2.207 2.104 3.943 4.313 4.309l.015.002.396.051.45.023c.174 0 .345-.01.514-.025 2.657-.261 4.735-2.499 4.735-5.226l-.009-.177zm-1.68-2.253c-.515.177-1 .3-1.463.372-.161-.773-.413-1.439-.688-2.013.883.305 1.635.885 2.151 1.641zm-4.977 1.223c.452.051.923.085 1.412.09l.302.002c.366 0 .737-.012 1.116-.04.028.254.049.513.053.784.004.434-.052.902-.157 1.402-.438.031-.868.037-1.306.034-.477-.005-.936-.04-1.378-.092-.063-.457-.097-.907-.093-1.345.004-.288.024-.565.051-.835zm-2.896 1.207c0-.614.131-1.197.361-1.727.515.151 1.087.295 1.726.404-.033.305-.055.616-.058.944-.005.4.025.812.073 1.227-.807-.146-1.504-.348-2.087-.545l-.015-.303zm.177 1.219c.598.184 1.283.359 2.058.483.154.784.406 1.587.736 2.396-1.343-.439-2.393-1.52-2.794-2.879zm4.209 3.09l-.074.004-.378-.019c-.377-.838-.666-1.668-.846-2.479.393.039.8.064 1.22.068l.302.002c.261 0 .524-.008.79-.021-.229.744-.569 1.558-1.014 2.445zm.964-.127c.409-.861.725-1.662.929-2.396.67-.085 1.383-.256 2.164-.55-.434 1.452-1.613 2.579-3.093 2.946zm3.261-3.901c-.779.339-1.479.542-2.136.647.083-.459.125-.895.12-1.307-.002-.301-.025-.587-.057-.867.545-.085 1.121-.231 1.737-.453.224.521.349 1.095.349 1.699l-.013.281z" id="iconBg"/><path class="icon-vs-fg" d="M11.977 8.533c.545-.085 1.057-.231 1.674-.453.223.521.399 1.095.399 1.699v.28c-.779.339-1.479.542-2.137.647.083-.459.125-.895.12-1.307-.002-.299-.025-.586-.056-.866zm-.817-2.825c.275.574.527 1.24.688 2.013.463-.072.948-.195 1.463-.372-.516-.756-1.268-1.336-2.151-1.641zm-1.336 8.38c.445-.887.785-1.701 1.014-2.445-.266.014-.529.021-.79.021l-.302-.002c-.42-.004-.827-.029-1.22-.068.18.811.469 1.641.846 2.479l.378.019.074-.004zm1.236-3.277c.105-.5.161-.969.157-1.402-.004-.271-.024-.53-.053-.784-.379.028-.75.055-1.116.055h-.302c-.489-.006-.964-.056-1.416-.108-.027.27-.043.547-.047.836-.004.438.004.888.066 1.345.443.052.924.121 1.4.126.439.003.872-.037 1.311-.068zm-5.607-.729c.583.197 1.28.399 2.087.545-.048-.415-.078-.826-.073-1.227.003-.328.025-.64.058-.944-.639-.108-1.212-.252-1.726-.403-.23.529-.361 1.112-.361 1.727l.015.302zm2.956 3.795c-.33-.809-.604-1.611-.759-2.396-.775-.124-1.402-.3-2-.483.401 1.359 1.416 2.44 2.759 2.879zm5.471-2.898c-.781.294-1.489.5-2.159.585-.205.734-.562 1.533-.971 2.394 1.479-.366 2.696-1.526 3.13-2.979zm-3.764-5.494l-.203-.01.025.025-1.206 1.193c-.108.336-.207.695-.282 1.086.419.048.851.096 1.3.1.428.004.852-.035 1.279-.064-.207-.946-.562-1.721-.913-2.33z" id="iconFg"/><path class="icon-vs-action-blue" d="M3 4l-1.483-1.5 1.483-1.5h1l-1 1h4v1h-4l1 1h-1zm3 3h1l1.517-1.5-1.517-1.5h-1l1 1h-4v1h4l-1 1z" id="colorImportance"/></svg>