<svg xmlns="http://www.w3.org/2000/svg" width="16" height="16"><style type="text/css">.icon-canvas-transparent{opacity:0;fill:#F6F6F6;} .icon-vs-out{fill:#F6F6F6;} .icon-vs-bg{fill:#424242;} .icon-vs-fg{fill:#F0EFF1;}</style><path class="icon-canvas-transparent" d="M16 16h-16v-16h16v16z" id="canvas"/><path class="icon-vs-out" d="M16 15h-15v-15h15v15z" id="outline"/><path class="icon-vs-bg" d="M7 11h-1.292l1-1h3.585l1 1h-1.293v1h3v-3h-1v1.293l-1-1v-3.586l1-1v1.293h1v-3h-3v1h1.293l-1 1h-3.587l-1-1h1.294v-1h-3v3h1v-1.292l1 1v3.586l-1 1v-1.294h-1v3h3v-1zm0-5h3v3h-3v-3zm-5-5v13h13v-13h-13zm12 12h-11v-11h11v11z" id="iconBg"/><path class="icon-vs-fg" d="M7 6h3v3h-3v-3zm7-4v11h-11v-11h11zm-1 1h-3v1h1.293l-1 1h-3.587l-1-1h1.294v-1h-3v3h1v-1.292l1 1v3.586l-1 1v-1.294h-1v3h3v-1h-1.292l1-1h3.585l1 1h-1.293v1h3v-3h-1v1.293l-1-1v-3.586l1-1v1.293h1v-3z" id="iconFg"/></svg>