<svg xmlns="http://www.w3.org/2000/svg" viewBox="0 0 16 16"><style>.icon-canvas-transparent{opacity:0;fill:#f6f6f6}.icon-vs-out{fill:#f6f6f6}.icon-vs-bg{fill:#424242}.icon-vs-fg{fill:#f0eff1}.icon-vs-action-red{fill:#a1260d}</style><path class="icon-canvas-transparent" d="M16 16H0V0h16v16z" id="canvas"/><path class="icon-vs-out" d="M8.354 2l-2-2h-.829L3.97 1.556 2.414 0h-.828L0 1.586v.949L1.495 4.03 0 5.525v.949l2 2V14h12V2H8.354z" id="outline"/><path class="icon-vs-bg" d="M13 3v10H3V7.475l.97-.97.03.03v4.758l2-2 .707.707-2.001 2h6.587l-2-2L10 9.293l2 2V4.707l-2 2L9.293 6l1.999-2H6.475l1-1H13z" id="iconBg"/><path class="icon-vs-fg" d="M12 4.707v6.586l-2-2-.707.707 2 2H4.707l2-2L6 9.293l-2 2V6.535l1.939 1.939L8.414 6l-1.97-1.97.031-.03h4.819l-2 2 .706.707 2-2z" id="iconFg"/><path class="icon-vs-action-red" d="M5.03 4.03L7 6 5.939 7.061l-1.97-1.97L2 7.061.939 6l1.97-1.97-1.97-1.97L2 1l1.97 1.97L5.939 1 7 2.06 5.03 4.03z" id="colorAction"/></svg>