<svg xmlns="http://www.w3.org/2000/svg" width="16" height="16"><style type="text/css">.icon-canvas-transparent{opacity:0;fill:#F6F6F6;} .icon-vs-out{fill:#F6F6F6;} .icon-vs-bg{fill:#424242;} .icon-vs-fg{fill:#F0EFF1;} .icon-vs-action-blue{fill:#00539C;}</style><path class="icon-canvas-transparent" d="M16 16h-16v-16h16v16z" id="canvas"/><path class="icon-vs-out" d="M0 16v-1.098l1.181-5.902h1.819v-9h10v7.161l2.589 2.16-.606.49.052.26.596-.24.265 1.123c.068.278.099.563.106.846v.162c-.008.517-.111 1.01-.295 1.463l.293 1.475v1.1h-16z" id="outline"/><path class="icon-vs-bg" d="M6 5h4v1h-4v-1zm0-1h4v-1h-4v1zm1.862 8h-2.862v-10h6v5h1v-6h-8v9h-2l-1 5h8.298c-.853-.732-1.407-1.797-1.436-3" id="iconBg"/><path class="icon-vs-fg" d="M7.853 11.902c0-1.916 1.147-3.527 3.147-3.974v-5.928h-6v10h2.862l-.009-.098m-1.853-8.902h4v1h-4v-1zm0 2h4v1h-4v-1z" id="iconFg"/><path class="icon-vs-action-blue" d="M14.917 11.188c.056.23.086.467.086.715 0 1.711-1.386 3.099-3.099 3.099s-3.1-1.388-3.1-3.099c0-1.711 1.387-3.098 3.1-3.098v-1.189l2.066 1.704-2.065 1.704v-1.188c-1.141 0-2.067.926-2.067 2.066 0 1.143.927 2.064 2.067 2.064s2.065-.922 2.065-2.064l-.033-.322.98-.392" id="colorImportance"/></svg>