<svg xmlns="http://www.w3.org/2000/svg" width="16" height="16"><style type="text/css">.icon-canvas-transparent{opacity:0;fill:#F6F6F6;} .icon-vs-out{fill:#F6F6F6;} .icon-vs-bg{fill:#424242;} .icon-vs-fg{fill:#F0EFF1;} .icon-vs-red{fill:#E51400;} .icon-white{fill:#FFFFFF;}</style><path class="icon-canvas-transparent" d="M16 16h-16v-16h16v16z" id="canvas"/><path class="icon-vs-out" d="M16 12c0 .521-.104 1.02-.285 1.477l.285 1.423v1.1h-16v-1.098l1.181-5.902h1.819v-9h10v7.275c1.744.62 3 2.268 3 4.225l-.025.248.025.252z" id="outline"/><path class="icon-vs-bg" d="M6 5h4v1h-4v-1zm0-1h4v-1h-4v1zm1.05 8h-2.05v-10h6v5.05c.166-.018.329-.05.5-.05l.5.05v-6.05h-8v9h-2l-1 5h7.703c-.906-.726-1.516-1.785-1.653-3" id="iconBg"/><path class="icon-vs-fg" d="M5 12h2.05c-.018-.166-.05-.329-.05-.5 0-2.314 1.753-4.198 4-4.45v-5.05h-6v10zm1-9h4v1h-4v-1zm0 2h4v1h-4v-1z" id="iconFg"/><path class="icon-vs-red" d="M11.499 8.001c-1.932 0-3.499 1.566-3.499 3.5 0 1.932 1.568 3.5 3.499 3.5 1.934 0 3.5-1.568 3.5-3.5 0-1.934-1.566-3.5-3.5-3.5zm1.855 4.645l-.707.707-1.148-1.146-1.145 1.146-.707-.707 1.146-1.146-1.146-1.146.707-.707 1.145 1.146 1.148-1.146.707.707-1.146 1.146 1.146 1.146z" id="notificationBg"/><path class="icon-white" d="M12.207 11.499l.001.001-.001.001 1.147 1.145-.707.707-1.148-1.146-1.145 1.146-.707-.707 1.147-1.145-.002-.001.001-.001-1.147-1.145.707-.707 1.145 1.146 1.148-1.146.707.707-1.146 1.145z" id="notificationFg"/></svg>