<svg xmlns="http://www.w3.org/2000/svg" width="16" height="16"><style type="text/css">.icon-canvas-transparent{opacity:0;fill:#F6F6F6;} .icon-vs-out{fill:#F6F6F6;} .icon-vs-bg{fill:#424242;} .icon-vs-fg{fill:#F0EFF1;}</style><path class="icon-canvas-transparent" d="M16 16h-16v-16h16v16z" id="canvas"/><path class="icon-vs-out" d="M16 14.9v1.1h-16v-1.098l1.181-5.902h1.819v-9h10v9h1.82l1.18 5.9z" id="outline"/><path class="icon-vs-bg" d="M9 10h1v1h-1v-1zm1-7h-4v1h4v-1zm0 2h-4v1h4v-1zm5 10h-14l1-5h2v-9h8v9h2l1 5zm-4-13h-6v10h6v-10z" id="iconBg"/><path class="icon-vs-fg" d="M5 2v10h6v-10h-6zm5 9h-1v-1h1v1zm0-5h-4v-1h4v1zm0-2h-4v-1h4v1z" id="iconFg"/></svg>