<svg xmlns="http://www.w3.org/2000/svg" width="16" height="16"><style type="text/css">.icon-canvas-transparent{opacity:0;fill:#F6F6F6;} .icon-vs-out{fill:#F6F6F6;} .icon-vs-bg{fill:#424242;} .icon-vs-fg{fill:#F0EFF1;} .icon-vs-red{fill:#E51400;} .icon-white{fill:#FFFFFF;}</style><path class="icon-canvas-transparent" d="M16 16h-16v-16h16v16z" id="canvas"/><path class="icon-vs-out" d="M15.975 11.748l.025.252c0 .521-.104 1.019-.285 1.477l.285 1.423v1.1h-16v-1.098l1.181-5.902h1.819v-9h10v7.276c1.744.62 3 2.268 3 4.224l-.025.248" id="outline"/><path class="icon-vs-bg" d="M6 5h4v1h-4v-1zm0-1h4v-1h-4v1zm1.05 8h-2.05v-10h6v5.051c.166-.019.329-.051.5-.051l.5.051v-6.051h-8v9h-2l-1 5h7.703c-.906-.726-1.516-1.785-1.653-3" id="iconBg"/><path class="icon-vs-fg" d="M7 11.5c0-2.313 1.753-4.197 4-4.449v-5.051h-6v10h2.05c-.018-.166-.05-.329-.05-.5m-1-8.5h4v1h-4v-1zm0 2h4v1h-4v-1z" id="iconFg"/><path class="icon-vs-red" d="M11.5 8c-1.933 0-3.5 1.568-3.5 3.5 0 1.934 1.567 3.5 3.5 3.5s3.5-1.566 3.5-3.5c0-1.932-1.567-3.5-3.5-3.5m1.5 5h-3v-3h3v3z" id="notificationBg"/><path class="icon-white" d="M13 13h-3v-3h3v3z" id="notificationFg"/></svg>