<svg xmlns="http://www.w3.org/2000/svg" width="16" height="16"><style type="text/css">.icon-canvas-transparent{opacity:0;fill:#F6F6F6;} .icon-vs-out_x0020_2{fill:#F6F6F6;} .icon-vs-bg_x0020_2{fill:#424242;} .icon-vs-fg{fill:#F0EFF1;} .icon-vs-red_x0020_2{fill:#E51400;} .icon-white_x0020_2{fill:#FFFFFF;}</style><path class="icon-canvas-transparent" d="M16 16h-16v-16h16v16z" id="canvas"/><path class="icon-vs-out_x0020_2" d="M16 12.005v.001l-.132.994c-.362 1.402-1.466 2.506-2.868 2.868v.132h-13v-1l1.219-5h.781v-7h3v-3h9v7h.781l.771 3.172c.285.549.448 1.169.448 1.828v.005z" id="outline"/><path class="icon-vs-bg_x0020_2" d="M5 8h3v1h-3v-1zm1-7v2h1v-1h5v5.05c.347.039.682.112 1 .225v-6.275h-7zm2 6v-1h-3v1h3zm-5 4h-1l-1 4h7.703c-.646-.519-1.145-1.203-1.428-2h-3.275v-8h5v2.76c.307-.205.646-.359 1-.485v-3.275h-7v7z" id="iconBg"/><path class="icon-vs-fg" d="M11 3h-4v-1h5v5.05c-.166-.018-.329-.05-.5-.05l-.5.05v-4.05zm-3.725 10h-3.275v-8h5v2.76c-.384.257-.712.584-1 .943v-.703h-3v1h2.76c-.391.583-.627 1.268-.709 2h-.051v1h.05c.039.347.112.682.225 1zm-2.275-6h3v-1h-3v1z" id="iconFg"/><path class="icon-vs-red_x0020_2" d="M11.499 8.001c-1.932 0-3.499 1.566-3.499 3.5 0 1.932 1.568 3.5 3.499 3.5 1.934 0 3.5-1.568 3.5-3.5 0-1.934-1.566-3.5-3.5-3.5m1.855 4.645l-.707.707-1.148-1.147-1.145 1.147-.707-.707 1.147-1.145-1.147-1.148.707-.707 1.145 1.147 1.148-1.147.707.707-1.147 1.148 1.147 1.145z" id="notificationBg"/><path class="icon-white_x0020_2" d="M12.207 11.499l1.147 1.148-.707.707-1.148-1.147-1.145 1.147-.707-.707 1.147-1.148-1.147-1.145.707-.707 1.145 1.147 1.148-1.147.707.707-1.147 1.145z" id="notificationFg"/></svg>