<svg xmlns="http://www.w3.org/2000/svg" width="16" height="16"><style type="text/css">.icon-canvas-transparent{opacity:0;fill:#F6F6F6;} .icon-vs-out{fill:#F6F6F6;} .icon-vs-bg{fill:#424242;}</style><path class="icon-canvas-transparent" d="M16 16h-16v-16h16v16z" id="canvas"/><path class="icon-vs-out" d="M2 14v-13h13v13h-13zm10-3v-7h-7v7h7z" id="outline"/><g id="iconBg"><path class="icon-vs-bg" d="M3 4h1v1h-1v-1zm0-1h1v-1h-1v1zm2 0h1v-1h-1v1zm2 0h1v-1h-1v1zm2 0h1v-1h-1v1zm2 0h1v-1h-1v1zm2 0h1v-1h-1v1zm0 2h1v-1h-1v1zm-10 4h1v-1h-1v1zm0-2h1v-1h-1v1zm0 6h1v-1h-1v1zm0-2h1v-1h-1v1zm2 2h1v-1h-1v1zm2 0h1v-1h-1v1zm2 0h1v-1h-1v1zm2 0h1v-1h-1v1zm2-6h1v-1h-1v1zm0 2h1v-1h-1v1zm0 2h1v-1h-1v1zm0 2h1v-1h-1v1z"/></g></svg>