<svg xmlns="http://www.w3.org/2000/svg" viewBox="0 0 16 16" enable-background="new 0 0 16 16"><style type="text/css">.icon-canvas-transparent{opacity:0;fill:#F6F6F6;} .icon-vs-out{fill:#F6F6F6;} .icon-vs-bg{fill:#424242;} .icon-vs-fg{fill:#F0EFF1;}</style><path class="icon-canvas-transparent" d="M16 16h-16v-16h16v16z" id="canvas"/><path class="icon-vs-out" d="M16 10v-5c0-1.103-.897-2-2-2h-12c-1.103 0-2 .897-2 2v5h5v1h-2v1h-3v3h3v1h10v-1h3v-3h-3v-1h-2v-1h5z" id="outline"/><path class="icon-vs-fg" d="M9 13h2v1h-6v-1h2v-1h2v1zm5-8v3h-12v-3h12zm-3 1h-1v1h1v-1zm2 0h-1v1h1v-1z" id="iconFg"/><path class="icon-vs-bg" d="M15 9v-4c0-.551-.448-1-1-1h-12c-.551 0-1 .449-1 1v4h6.5v2h-1.5v1h-2v1h-3v1h3v1h8v-1h3v-1h-3v-1h-2v-1h-1.5v-2h6.5zm-6 3v1h2v1h-6v-1h2v-1h2zm-7-4v-3h12v3h-12zm10-2h1v1h-1v-1zm-2 0h1v1h-1v-1z" id="iconBg"/></svg>