<svg xmlns="http://www.w3.org/2000/svg" width="16" height="16"><style type="text/css">.icon-canvas-transparent{opacity:0;fill:#F6F6F6;} .icon-vs-out{fill:#F6F6F6;} .icon-vs-bg{fill:#424242;} .icon-vs-fg{fill:#F0EFF1;}</style><path class="icon-canvas-transparent" d="M16 16h-16v-16h16v16z" id="canvas"/><path class="icon-vs-out" d="M16 13h-3.488l.488 2.006v.994h-13v-1l1.219-5h.781v-7h3v-3h9v7h.781l1.219 5.006v.994z" id="outline"/><path class="icon-vs-bg" d="M8 7h-3v-1h3v1zm-1 5h1v-1h-1v1zm1-4h-3v1h3v-1zm6 0h-1v-7h-7v2h1v-1h5v8h-.219l.487 2h2.732l-1-4zm-3 3l1 4h-11l1-4h1v-7h7v7h1zm-2-6h-5v8h5v-8z" id="iconBg"/><path class="icon-vs-fg" d="M4 13h5v-8h-5v8zm4-1h-1v-1h1v1zm-3-6h3v1h-3v-1zm0 2h3v1h-3v-1zm7-6v8h-1v-7h-4v-1h5z" id="iconFg"/></svg>