<svg xmlns="http://www.w3.org/2000/svg" width="16" height="16"><style type="text/css">.icon-canvas-transparent{opacity:0;fill:#F6F6F6;} .icon-vs-out{fill:#F6F6F6;} .icon-vs-bg{fill:#424242;} .icon-vs-fg{fill:#F0EFF1;}</style><path class="icon-canvas-transparent" d="M16 16h-16v-16h16v16z" id="canvas"/><path class="icon-vs-out" d="M16 7.235l-.132-.231c-.094-.164-2.351-4.004-7.868-4.004s-7.775 3.84-7.868 4.004l-.132.229v.533l.131.229c.094.165 2.352 4.005 7.869 4.005 5.517 0 7.774-3.84 7.868-4.004l.132-.231v-.53zm-12.625.265c.36-.307.905-.681 1.663-.979-.025.158-.038.317-.038.479 0 .604.179 1.166.487 1.637-.998-.314-1.686-.774-2.112-1.137zm7.144 1.128c.304-.469.481-1.028.481-1.628 0-.163-.013-.322-.038-.478.756.297 1.299.669 1.658.974-.428.359-1.115.817-2.101 1.132z" id="outline"/><path class="icon-vs-bg" d="M8,4C3,4,1,7.5,1,7.5S3,11,8,11s7-3.5,7-3.5S13,4,8,4z M8,10c-4.286,0-6-2.5-6-2.5
		S3.714,5,8,5c4.285,0,6,2.5,6,2.5S12.285,10,8,10z M10,7c0,1.105-0.896,2-2,2S6,8.105,6,7c0-0.563,0.234-1.069,0.607-1.433
		C6.543,5.7,6.5,5.843,6.5,6c0,0.553,0.448,1,1,1c0.553,0,1-0.447,1-1c0-0.494-0.363-0.885-0.833-0.966C7.775,5.015,7.886,5,8,5
		C9.104,5,10,5.895,10,7z" id="iconBg"/><path class="icon-vs-fg" d="M14 7.5s-1.715 2.5-6 2.5c-4.286 0-6-2.5-6-2.5s1.554-2.255 5.39-2.478l.11-.022.076.016.424-.016-.333.034c.47.081.833.472.833.966 0 .553-.447 1-1 1-.552 0-1-.447-1-1 0-.157.043-.3.107-.433-.373.364-.607.87-.607 1.433 0 1.105.896 2 2 2s2-.895 2-2-.896-2-2-2c4.285 0 6 2.5 6 2.5z" id="iconFg"/></svg>