<svg xmlns="http://www.w3.org/2000/svg" width="16" height="16"><style type="text/css">.icon-canvas-transparent{opacity:0;fill:#F6F6F6;} .icon-vs-out{fill:#F6F6F6;} .icon-vs-bg{fill:#424242;}</style><path class="icon-canvas-transparent" d="M16 16h-16v-16h16v16z" id="canvas"/><path class="icon-vs-out" d="M15 15h-14v-15h14v15z" id="outline"/><path class="icon-vs-bg" d="M12 6h-8v-3h8v3zm-8 6h8v-3h-8v3zm3-5v1h2v-1h-2zm-3 0v1h2v-1h-2zm8 0h-2v1h2v-1zm-9-5h1v-1h-2v2h1v-1zm0 2h-1v2h1v-2zm0 3h-1v2h1v-2zm0 3h-1v2h1v-2zm10-4h1v-2h-1v2zm0 3h1v-2h-1v2zm0 3h1v-2h-1v2zm-11 2h3v-1h-3v1zm4 0h2v-1h-2v1zm3 0h2v-1h-2v1zm4-13h-2v1h2v1h1v-2h-1zm-3 0h-2v1h2v-1zm-3 0h-2v1h2v-1zm5 13h2v-1h-2v1z" id="iconBg"/></svg>