<svg xmlns="http://www.w3.org/2000/svg" width="16" height="16"><style type="text/css">.icon-canvas-transparent{opacity:0;fill:#F6F6F6;} .icon-vs-out{fill:#F6F6F6;} .icon-vs-bg{fill:#424242;} .icon-vs-fg{fill:#F0EFF1;}</style><path class="icon-canvas-transparent" d="M16 16h-16v-16h16v16z" id="canvas"/><path class="icon-vs-out" d="M16 0v14h-10v2h-4v-2h-2v-4h1v-10h15z" id="outline"/><path class="icon-vs-bg" d="M2 1v7h1v-1h3v3h4v2h-2v1h7v-12h-13zm4 5h-3v-2h3v2zm4 3h-3v-2h3v2zm0-3h-3v-2h3v2zm4 6h-3v-2h3v2zm0-3h-3v-2h3v2zm0-3h-3v-2h3v2zm-9 5h2v2h-2v2h-2v-2h-2v-2h2v-2h2v2z" id="iconBg"/><path class="icon-vs-fg" d="M8 10h2v2h-2v-2zm-5-4h3v-2h-3v2zm0 2h3v-1h-3v1zm4 1h3v-2h-3v2zm4-5v2h3v-2h-3zm0 5h3v-2h-3v2zm0 3h3v-2h-3v2zm-4-6h3v-2h-3v2z" id="iconFg"/></svg>