<svg xmlns="http://www.w3.org/2000/svg" width="16" height="16"><style type="text/css">.icon-canvas-transparent{opacity:0;fill:#F6F6F6;} .icon-vs-out{fill:#F6F6F6;} .icon-vs-bg{fill:#424242;} .icon-vs-fg{fill:#F0EFF1;}</style><path class="icon-canvas-transparent" d="M16 16h-16v-16h16v16z" id="canvas"/><path class="icon-vs-out" d="M15 3.597v9.403c-.028.825-.593 2-2.035 2h-9c-.952 0-1.965-.701-1.965-2v-11c0-1.299 1.013-2 1.965-2h7.062l3.973 3.597z" id="outline"/><path class="icon-vs-bg" d="M7.63,7.361C7.519,7.232,7.377,7.134,7.206,7.067C7.035,6.999,6.832,6.965,6.598,6.965
		c-0.119,0-0.241,0.012-0.368,0.033C6.103,7.022,5.981,7.049,5.867,7.083c-0.113,0.034-0.217,0.07-0.31,0.11
		C5.466,7.234,5.396,7.271,5.345,7.307v0.768C5.503,7.943,5.686,7.84,5.889,7.762c0.204-0.078,0.413-0.117,0.627-0.117
		c0.213,0,0.377,0.063,0.494,0.186c0.116,0.125,0.174,0.324,0.174,0.6l-1.03,0.154C5.949,8.611,5.774,8.662,5.628,8.736
		C5.482,8.811,5.363,8.902,5.271,9.016C5.177,9.127,5.109,9.254,5.065,9.396C5.022,9.539,5,9.693,5,9.857
		c0,0.17,0.025,0.322,0.074,0.463s0.121,0.26,0.216,0.361c0.093,0.1,0.21,0.178,0.352,0.234C5.781,10.973,5.939,11,6.12,11
		c0.229,0,0.431-0.053,0.603-0.16c0.173-0.105,0.319-0.26,0.439-0.463h0.014v0.529h0.785V8.469c0-0.238-0.027-0.451-0.083-0.637
		C7.824,7.648,7.74,7.49,7.63,7.361z M7.184,9.381c0,0.131-0.021,0.252-0.059,0.365C7.087,9.857,7.032,9.957,6.96,10.041
		c-0.072,0.084-0.157,0.15-0.256,0.199c-0.101,0.049-0.213,0.072-0.337,0.072c-0.09,0-0.17-0.014-0.242-0.041
		c-0.073-0.027-0.135-0.064-0.186-0.113c-0.05-0.047-0.089-0.106-0.116-0.172C5.796,9.918,5.782,9.846,5.782,9.768
		c0-0.086,0.01-0.164,0.027-0.232c0.017-0.068,0.051-0.127,0.098-0.18c0.048-0.053,0.112-0.098,0.195-0.133
		c0.083-0.033,0.189-0.061,0.32-0.078l0.761-0.109V9.381z M9.71,7.656H9.697V5H9v5.887h0.697v-0.484H9.71
		c0.044,0.082,0.095,0.158,0.151,0.229c0.057,0.07,0.119,0.133,0.191,0.185c0.071,0.053,0.151,0.092,0.238,0.121
		c0.088,0.029,0.186,0.043,0.292,0.043c0.231,0,0.434-0.053,0.609-0.16c0.176-0.106,0.323-0.254,0.443-0.443
		c0.12-0.188,0.211-0.412,0.273-0.672C11.969,9.445,12,9.166,12,8.861c0-0.258-0.025-0.502-0.074-0.734
		c-0.05-0.232-0.125-0.436-0.228-0.611C11.595,7.34,11.463,7.201,11.304,7.1c-0.16-0.104-0.352-0.154-0.573-0.154
		c-0.123,0-0.234,0.018-0.336,0.052c-0.102,0.035-0.194,0.084-0.278,0.146c-0.084,0.062-0.158,0.136-0.226,0.222
		C9.825,7.455,9.764,7.551,9.71,7.656z M10.177,7.738c0.1-0.055,0.21-0.082,0.331-0.082c0.122,0,0.231,0.027,0.327,0.082
		c0.096,0.055,0.177,0.135,0.244,0.238c0.066,0.105,0.116,0.23,0.15,0.377c0.034,0.146,0.052,0.311,0.052,0.494
		c0,0.234-0.02,0.441-0.06,0.621c-0.039,0.18-0.095,0.328-0.168,0.445c-0.072,0.117-0.16,0.207-0.264,0.266
		c-0.104,0.061-0.22,0.092-0.35,0.092c-0.107,0-0.209-0.025-0.301-0.076c-0.091-0.049-0.17-0.119-0.237-0.207
		C9.836,9.902,9.785,9.799,9.748,9.682C9.711,9.564,9.691,9.438,9.691,9.301V8.795c0-0.17,0.021-0.326,0.061-0.465
		c0.04-0.139,0.096-0.258,0.168-0.359C9.992,7.871,10.076,7.793,10.177,7.738z M10.641,1H3.965C3.965,1,3,1,3,2
		c0,0.805,0,8.442,0,11c0,1,0.965,1,0.965,1s8,0,9,0S14,13,14,13V4.041L10.641,1z M13,13H4V2h6v3h3V13z" id="iconBg"/><path class="icon-vs-fg" d="M10 2h-6v11h9v-8h-3v-3zm-2.038 8.906h-.785v-.529h-.014c-.12.203-.267.357-.439.463-.173.107-.374.16-.604.16-.181 0-.339-.027-.478-.084-.142-.057-.259-.135-.352-.234-.095-.101-.167-.221-.216-.361s-.074-.294-.074-.464c0-.164.022-.318.065-.461.044-.143.111-.27.205-.381.093-.113.212-.205.357-.279.147-.074.321-.125.525-.152l1.03-.154c0-.275-.058-.475-.174-.6-.115-.123-.28-.185-.492-.185-.214 0-.423.039-.627.117-.203.078-.386.181-.544.312v-.767l.213-.113.31-.11.362-.085.368-.033c.234 0 .438.033.608.102.171.066.313.164.424.293.11.129.194.287.249.471.056.186.083.398.083.637v2.437zm2.154-3.761c.084-.063.176-.111.278-.146.102-.035.213-.052.336-.052.222 0 .413.05.573.154.159.101.291.24.394.416.103.176.178.379.228.611.05.231.075.476.075.733 0 .305-.031.584-.092.844-.062.26-.152.484-.273.672-.12.189-.267.338-.443.443-.176.107-.379.16-.609.16-.106 0-.204-.014-.292-.043-.087-.029-.167-.068-.238-.121l-.191-.185-.151-.229h-.014v.484h-.697v-5.886h.697v2.656h.013l.181-.289c.067-.086.141-.16.225-.222zm-3.693 2l.761-.109v.346c0 .131-.021.252-.059.365-.038.11-.093.21-.165.294-.072.084-.157.15-.256.199-.101.049-.213.072-.337.072l-.242-.041-.186-.113-.116-.172-.041-.218.027-.232.098-.18c.048-.053.112-.098.195-.133.084-.034.19-.061.321-.078zm3.329-.815c.04-.139.096-.258.168-.359.072-.1.156-.178.257-.232.1-.055.21-.082.331-.082.122 0 .231.027.327.082.096.055.177.135.244.238.066.105.116.23.15.377.034.146.052.311.052.494 0 .234-.02.441-.06.621-.039.18-.095.328-.168.445-.072.117-.16.207-.264.266-.104.061-.22.092-.35.092-.107 0-.209-.025-.301-.076-.091-.049-.17-.119-.237-.207-.065-.087-.116-.19-.153-.307-.037-.118-.057-.244-.057-.381v-.506c0-.17.021-.326.061-.465z" id="iconFg"/></svg>