<svg xmlns="http://www.w3.org/2000/svg" width="16" height="16"><style type="text/css">.icon-canvas-transparent{opacity:0;fill:#F6F6F6;} .icon-vs-out{fill:#F6F6F6;} .icon-vs-bg{fill:#424242;}</style><path class="icon-canvas-transparent" d="M16 16h-16v-16h16v16z" id="canvas"/><path class="icon-vs-out" d="M16 9h-1.931l1.301 1.301-2.069 2.07-2.371-2.371h-.93v5h-2.414l-4-4h-3.586v-7h3.586l4-4h2.414v5h.93l2.371-2.371 2.069 2.069-1.301 1.302h1.931v3z" id="outline"/><path class="icon-vs-bg" d="M9 6h2v3h-2v5h-1l-4-4h-3v-5h3l4-4h1v5zm3.611.043l1.345-1.345-.655-.655-1.345 1.345c.261.173.483.395.655.655zm-.655 3.568l1.345 1.346.655-.656-1.345-1.344c-.172.26-.394.482-.655.654zm1.044-2.611c.032.162.05.329.05.5s-.018.338-.05.5h2v-1h-2z" id="iconBg"/></svg>