<svg xmlns="http://www.w3.org/2000/svg" width="16" height="16"><style type="text/css">.icon-canvas-transparent{opacity:0;fill:#F6F6F6;} .icon-vs-out{fill:#F6F6F6;} .icon-vs-bg{fill:#424242;} .icon-vs-fg{fill:#F0EFF1;}</style><path class="icon-canvas-transparent" d="M16 16h-16v-16h16v16z" id="canvas"/><path class="icon-vs-out" d="M3 16c-.97 0-2-.701-2-2v-12c0-1.299 1.03-2 2-2h9.061l3.939 3.556v10.444c0 .97-.701 2-2 2h-11z" id="outline"/><path class="icon-vs-bg" d="M11.641,1H2.964C2.964,1,2,1,2,2c0,0.805,0,9.442,0,12c0,1,0.964,1,0.964,1s10,0,11,0
		S15,14,15,14V4L11.641,1z M14,14H3V2h8v3h3V14z M8.439,6C7.221,6,6,6.672,6,7.5v3C6,11.328,7.221,12,8.439,12
		c1.381,0,2.5-0.672,2.5-1.5v-3C10.939,6.672,9.82,6,8.439,6z M8.439,8.425c-1.084,0-1.925-0.497-1.925-0.925
		s0.841-0.925,1.925-0.925c1.084,0,1.925,0.497,1.925,0.925S9.523,8.425,8.439,8.425z M3,9l2-2v1L4,9l1,1v1L3,9z M12,11v-1l1-1l-1-1
		V7l2,2L12,11z" id="iconBg"/><path class="icon-vs-fg" d="M11 5v-3h-8v7l2-2v1l-1 1 1 1v1l-2-2v5h11v-5l-2 2v-1l1-1-1-1v-1l2 2v-4h-3zm-.061 5.5c0 .828-1.119 1.5-2.5 1.5-1.218 0-2.439-.672-2.439-1.5v-3c0-.828 1.221-1.5 2.439-1.5 1.381 0 2.5.672 2.5 1.5v3zm-.575-3c0 .428-.841.925-1.925.925s-1.925-.497-1.925-.925.841-.925 1.925-.925 1.925.497 1.925.925z" id="iconFg"/></svg>