<svg xmlns="http://www.w3.org/2000/svg" width="16" height="16"><style type="text/css">.icon-canvas-transparent{opacity:0;fill:#F6F6F6;} .icon-vs-out{fill:#F6F6F6;} .icon-vs-bg{fill:#424242;} .icon-vs-fg{fill:#F0EFF1;}</style><path class="icon-canvas-transparent" d="M16 16h-16v-16h16v16z" id="canvas"/><path class="icon-vs-out" d="M2.964 16c-.952 0-1.964-.701-1.964-2v-12c0-1.299 1.012-2 1.964-2h8.059l3.977 3.552v10.448c-.028.825-.593 2-2.035 2h-10.001z" id="outline"/><path class="icon-vs-bg" d="M7.5 6h1l-2 4h-1l-1-2h1l.5 1 1.5-3zm-2.5 7h2v-2h-2v2zm4-7h3v-1h-3v1zm-2-2h-2v2h2v-2zm2 5h3v-1h-3v1zm0 3h3v-1h-3v1zm5-8v10s-.035 1-1.035 1h-10s-.965 0-.965-1v-12c0-1 .964-1 .964-1h7.677l3.359 3zm-1 0h-3v-2h-7v12h10v-10z" id="iconBg"/><path class="icon-vs-fg" d="M10 4v-2h-7v12h10v-10h-3zm-5 0h2v2h-2v-2zm2 9h-2v-2h2v2zm-.5-3h-1l-1-2h1l.5 1 1.5-3h1l-2 4zm5.5 2h-3v-1h3v1zm0-3h-3v-1h3v1zm0-3h-3v-1h3v1z" id="iconFg"/></svg>