<svg xmlns="http://www.w3.org/2000/svg" width="16" height="16"><style type="text/css">.icon-canvas-transparent{opacity:0;fill:#F6F6F6;} .icon-vs-out{fill:#F6F6F6;} .icon-vs-bg{fill:#424242;} .icon-vs-fg{fill:#F0EFF1;}</style><path class="icon-canvas-transparent" d="M16 16h-16v-16h16v16z" id="canvas"/><path class="icon-vs-out" d="M16 6.254c0 3.234-2.424 5.908-5.64 6.221l-.36.019v3.506h-10v-9h3.558l-.031-.227c-.017-.175-.027-.345-.027-.528 0-3.447 2.804-6.245 6.25-6.245 3.386 0 6.127 2.655 6.24 6.041l.01.213z" id="outline"/><path class="icon-vs-bg" d="M14.991 6.078c-.095-2.817-2.401-5.073-5.241-5.073-2.899 0-5.25 2.351-5.25 5.25l.022.453.039.292h2.519c-.606-.133-1.163-.285-1.627-.442l-.015-.303c0-.614.131-1.197.361-1.727.514.152 1.087.296 1.725.405-.032.304-.054.615-.057.943-.005.368.026.744.067 1.124h.826c-.044-.377-.08-.753-.077-1.116.004-.29.023-.566.051-.836.452.052.923.085 1.412.09l.302.002c.366 0 .737-.012 1.116-.04.028.254.049.513.053.785.004.433-.052.902-.157 1.402-.356.025-.706.026-1.06.027v.686h.048c.261 0 .524.063.79.05-.194.632-.486 1.397-.838 2.133v1.311l.264-.013c2.658-.26 4.736-2.499 4.736-5.226l-.009-.177zm-7.352-1.957c-.519-.091-.993-.205-1.427-.328.485-.697 1.173-1.241 1.976-1.554-.217.543-.417 1.166-.549 1.882zm2.115.2c-.449-.005-.885-.035-1.304-.083.175-.911.464-1.661.751-2.256.18-.023.362-.039.549-.039l.366.019c.351.608.708 1.384.915 2.33-.427.029-.849.033-1.277.029zm1.406-2.137c.883.305 1.635.885 2.151 1.641-.515.177-1 .3-1.463.372-.16-.773-.412-1.439-.688-2.013zm-.372 8.254c.409-.861.725-1.662.929-2.396.67-.086 1.383-.257 2.164-.551-.434 1.452-1.613 2.579-3.093 2.947zm3.261-3.902c-.779.339-1.479.542-2.136.647.083-.459.125-.896.12-1.307-.002-.3-.025-.587-.057-.867.545-.085 1.121-.231 1.737-.453.224.521.349 1.095.349 1.699l-.013.281zm-13.049 8.464h8v-7h-8v7zm7-1h-6v-4h6v4z" id="iconBg"/><path class="icon-vs-fg" d="M11.977 5.009c.545-.085 1.121-.231 1.737-.453.224.521.349 1.095.349 1.699l-.014.28c-.779.339-1.479.542-2.136.647.083-.459.125-.896.12-1.307-.002-.299-.025-.585-.056-.866zm-.817-2.825c.275.574.527 1.24.688 2.013.463-.072.948-.195 1.463-.372-.516-.756-1.268-1.336-2.151-1.641zm-1.16 7.999c.352-.735.644-1.501.838-2.133-.266.013-.529-.05-.79-.05h-.048v2.183zm1.164-5.083c-.379.028-.75.04-1.116.04l-.302-.002c-.489-.005-.96-.038-1.412-.09-.027.27-.047.546-.051.836-.003.363.033.739.077 1.116h1.64v.314c.354-.001.704-.002 1.06-.028.105-.5.161-.969.157-1.402-.004-.271-.025-.53-.053-.784zm-1.963-3.118c-.287.595-.576 1.345-.751 2.256.419.048.854.079 1.304.083.428.004.85 0 1.277-.029-.207-.946-.564-1.722-.915-2.33l-.366-.019c-.187 0-.369.016-.549.039zm-2.989 1.811c.434.123.908.237 1.427.328.133-.715.332-1.339.549-1.881-.803.312-1.491.856-1.976 1.553zm.868 3.207h.454c-.041-.38-.072-.756-.067-1.124.003-.328.025-.639.057-.943-.638-.109-1.211-.253-1.725-.404-.23.529-.361 1.112-.361 1.727l.016.303c.463.156 1.02.308 1.626.441zm6.801.491c-.781.294-1.494.465-2.164.551-.204.734-.519 1.535-.929 2.396 1.48-.368 2.659-1.495 3.093-2.947zm-5.881 6.509h-6v-4h6v4z" id="iconFg"/></svg>