<svg xmlns="http://www.w3.org/2000/svg" width="16" height="16"><style type="text/css">.icon-canvas-transparent{opacity:0;fill:#F6F6F6;} .icon-vs-out{fill:#F6F6F6;} .icon-vs-bg{fill:#424242;} .icon-vs-fg{fill:#F0EFF1;}</style><path class="icon-canvas-transparent" d="M16 16h-16v-16h16v16z" id="canvas"/><path class="icon-vs-out" d="M16 15h-6v1h-10v-15h16v14z" id="outline"/><path class="icon-vs-bg" d="M15 2v12h-5v-1h4v-8h-12v3h-1v-6h14zm-5 4h-7v1h7v-1zm-6 8l3-2-3-2v4zm-2 1h-1v-6h1v6zm7 0h-1v-6h1v6z" id="iconBg"/><path class="icon-vs-fg" d="M2 5v3h8v5h4v-8h-12zm8 2h-7v-1h7v1z" id="iconFg"/></svg>