<svg xmlns="http://www.w3.org/2000/svg" viewBox="0 0 16 16"><style>.icon-canvas-transparent{opacity:0;fill:#f6f6f6}.icon-vs-out{fill:#f6f6f6}.icon-vs-bg{fill:#424242}.icon-vs-fg{fill:#f0eff1}</style><path class="icon-canvas-transparent" d="M16 16H0V0h16v16z" id="canvas"/><path class="icon-vs-out" d="M16 4c0-2.206-1.795-4-4-4-2.206 0-4 1.794-4 4 0 .482.091.943.255 1.373L7.5 4h-2L0 14l2 2h9l2-2-1.34-2.437.373-.559 1.081 1.496h2.08l-.933-5.244C15.324 6.519 16 5.33 16 4zM8.775 6.319c.27.363.598.684.979.946-.021.148-.057.379-.098.655l-.881-1.601z" id="outline"/><path class="icon-vs-bg" d="M7 5H6l-4.5 9 1 1h8l1-1L7 5zm0 8H6v-1h1v1zm0-2H6V8h1v3zm8-7a3 3 0 1 0-4.158 2.767l-.393 2.595.638 1.16L12 9l1.625 2.5H14l-.842-4.733A3.002 3.002 0 0 0 15 4zm-3 1.499a1.5 1.5 0 1 1 0-3 1.5 1.5 0 0 1 0 3z" id="iconBg"/><path class="icon-vs-fg" d="M13.5 3.999a1.5 1.5 0 1 1-3 0 1.5 1.5 0 0 1 3 0zM7 11H6V8h1v3zm0 1H6v1h1v-1z" id="notificationFg"/></svg>