<svg xmlns="http://www.w3.org/2000/svg" width="16" height="16"><style type="text/css">.icon-canvas-transparent{opacity:0;fill:#F6F6F6;} .icon-vs-out{fill:#F6F6F6;} .icon-vs-bg{fill:#424242;} .icon-vs-fg{fill:#F0EFF1;}</style><path class="icon-canvas-transparent" d="M16 16h-16v-16h16v16z" id="canvas"/><path class="icon-vs-out" d="M16 7v2.5l-1 1.5c-.14 1.676-1.659 3-3.5 3s-3.36-1.324-3.5-3h-.027c-.14 1.676-1.632 3-3.473 3s-3.36-1.324-3.5-3l-1-1.5v-2.5h1l6-5.999 1.999-.001 6.001 6h1z" id="outline"/><path class="icon-vs-bg" d="M14 8l-5-5v1l3 4h-3c-.5.5-1 .5-1 .5-.5 0-1-.5-1-.5h-3l3-4v-1l-5 5h-1v1l1 1.5c0 1.381 1.119 2.5 2.5 2.5s2.5-1.119 2.5-2.5c.5-.5 1-.5 1-.5.5 0 1 .5 1 .5 0 1.381 1.119 2.5 2.5 2.5s2.5-1.119 2.5-2.5l1-1.5v-1h-1zm-9.5 4c-.828 0-1.5-.672-1.5-1.5s.672-1.5 1.5-1.5 1.5.672 1.5 1.5-.672 1.5-1.5 1.5zm7 0c-.828 0-1.5-.672-1.5-1.5s.672-1.5 1.5-1.5 1.5.672 1.5 1.5-.672 1.5-1.5 1.5z" id="iconBg"/><path class="icon-vs-fg" d="M6 10.5c0 .828-.672 1.5-1.5 1.5s-1.5-.672-1.5-1.5.672-1.5 1.5-1.5 1.5.672 1.5 1.5zm5.5-1.5c-.828 0-1.5.672-1.5 1.5s.672 1.5 1.5 1.5 1.5-.672 1.5-1.5-.672-1.5-1.5-1.5z" id="iconFg"/></svg>