<?xml version="1.0" encoding="iso-8859-1"?>
<!-- Generator: Adobe Illustrator 21.0.0, SVG Export Plug-In . SVG Version: 6.00 Build 0)  -->
<svg version="1.1" xmlns="http://www.w3.org/2000/svg" xmlns:xlink="http://www.w3.org/1999/xlink" x="0px" y="0px"
	 viewBox="0 0 16 16" style="enable-background:new 0 0 16 16;" xml:space="preserve">
<style type="text/css">
	.icon_x002D_canvas_x002D_transparent{opacity:0;fill:#F6F6F6;}
	.icon_x002D_vs_x002D_out{fill:#F6F6F6;}
	.icon_x002D_vs_x002D_bg{fill:#424242;}
	.icon_x002D_vs_x002D_fg{fill:#F0EFF1;}
	.icon_x002D_vs_x002D_blue{fill:#1BA1E2;}
</style>
<g id="canvas">
	<path class="icon_x002D_canvas_x002D_transparent" d="M16,16H0V0h16V16z"/>
</g>
<g id="outline">
	<path class="icon_x002D_vs_x002D_out" d="M13.535,10H14v5H9v-2.155C8.103,13.557,6.672,14,5,14c-2.851,0-5-1.29-5-3V5
		c0-1.71,2.149-3,5-3c1.548,0,2.926,0.388,3.838,1.04L9,2.878V0h5v5h-0.465L16,7.465v0.07L13.535,10z"/>
</g>
<g id="iconBg">
	<path class="icon_x002D_vs_x002D_bg" d="M11.293,2H10V1h3v1v2h-1V2.707l-3,3V5c0-0.189-0.069-0.367-0.167-0.54L11.293,2z
		 M12.5,5.379l-0.707,0.707L12.707,7H9v1h3.707l-0.914,0.914L12.5,9.621l1.414-1.414L14.621,7.5L12.5,5.379z M12,12.293l-3-3v1.414
		L11.293,13H10v1h2h1v-3h-1V12.293z"/>
</g>
<g id="iconFg">
	<path class="icon_x002D_vs_x002D_fg" d="M8.325,5c0,0.527-1.326,1.325-3.325,1.325S1.675,5.527,1.675,5S3.001,3.675,5,3.675
		S8.325,4.473,8.325,5z"/>
</g>
<g id="colorImportance">
	<path class="icon_x002D_vs_x002D_blue" d="M5,3C2.791,3,1,3.896,1,5v6c0,1.104,1.791,2,4,2s4-0.896,4-2V5C9,3.896,7.209,3,5,3z
		 M5,6.325C3.001,6.325,1.675,5.527,1.675,5S3.001,3.675,5,3.675S8.325,4.473,8.325,5S6.999,6.325,5,6.325z"/>
</g>
</svg>
