<svg xmlns="http://www.w3.org/2000/svg" viewBox="0 0 16 16"><style>.st0{opacity:0}.st0,.st1{fill:#f6f6f6}.st2{fill:#848484}.st3{fill:#f0eff1}</style><g id="outline"><path class="st0" d="M0 0h16v16H0z"/><path class="st1" d="M16 1H0v14h2.344c.894.628 1.98 1 3.156 1s2.263-.372 3.156-1H16V1z"/></g><g id="icon_x5F_bg"><path class="st2" d="M15 2v12H9.743a5.52 5.52 0 0 0 .651-1H14V5H2v1.257a5.52 5.52 0 0 0-1 1.087V2h14z"/><path class="st2" d="M10 10.543c0-.053-.008-.102-.008-.152a4.496 4.496 0 1 0-8.925.895 4.49 4.49 0 0 0 3.696 3.691l.013.002c.112.019.224.035.337.044a4.143 4.143 0 0 0 .826-.002A4.501 4.501 0 0 0 10 10.543zM7.408 9.476a8.07 8.07 0 0 0 1.489-.388c.19.445.299.938.299 1.455 0 .08-.008.16-.012.24a7.551 7.551 0 0 1-1.831.555c.07-.393.108-.768.104-1.119a7.337 7.337 0 0 0-.049-.743zm1.145-1.017a7.14 7.14 0 0 1-1.255.319 7.571 7.571 0 0 0-.589-1.725c.757.262 1.4.759 1.844 1.406zM5.5 14.239c-.109 0-.217-.008-.324-.018-.322-.717-.57-1.43-.725-2.124a11.327 11.327 0 0 0 1.304.061c.224 0 .45-.006.678-.018a13.596 13.596 0 0 1-.87 2.095c-.022.001-.042.004-.063.004zm.004-2.782c-.41-.006-.803-.035-1.182-.079a7.858 7.858 0 0 1-.078-1.153c.002-.247.02-.507.043-.737.387.044.789.056 1.209.056h.259c.314 0 .632.012.956-.012.025.219.044.451.046.683.004.372-.044.778-.135 1.208a16.09 16.09 0 0 1-1.118.034zM5.5 6.847c.106 0 .21.008.313.016a6.99 6.99 0 0 1 .786 1.996c-.368.026-.729.03-1.095.026-.386-.004-.76-.03-1.119-.071.15-.782.398-1.424.644-1.934.155-.02.311-.033.471-.033zm-1.34.254c-.186.465-.355 1-.471 1.613-.443-.079-.85-.175-1.222-.281A3.702 3.702 0 0 1 4.16 7.101zm-2.356 3.442c0-.525.112-1.025.31-1.481.44.131.932.254 1.478.346a8.105 8.105 0 0 0-.049.811c-.004.342.021.694.063 1.051a12.757 12.757 0 0 1-1.788-.467 3.185 3.185 0 0 1-.014-.26zm.151 1.044c.513.157 1.101.31 1.765.415.132.673.349 1.359.632 2.053a3.706 3.706 0 0 1-2.397-2.468zm4.436 2.54c.35-.737.62-1.424.795-2.054a8.152 8.152 0 0 0 1.855-.471 3.7 3.7 0 0 1-2.65 2.525z"/><path class="st3" d="M7.393 9.484A8.167 8.167 0 0 0 8.869 9.1c.189.442.297.93.297 1.443 0 .08-.008.159-.012.238a7.538 7.538 0 0 1-1.816.551c.07-.391.107-.762.104-1.111a8.238 8.238 0 0 0-.049-.737zM5.5 14.209c-.108 0-.215-.008-.321-.018a10.981 10.981 0 0 1-.719-2.106c.333.033.68.056 1.036.058.086.002.172.002.257.002.222 0 .446-.006.672-.017a13.522 13.522 0 0 1-.862 2.078c-.022 0-.042.003-.063.003zM5.504 11.449a11.528 11.528 0 0 1-1.172-.078 7.729 7.729 0 0 1-.078-1.144c.002-.245.02-.507.043-.735.384.043.783.051 1.199.051h.257c.312 0 .627.016.948-.008.025.217.043.45.045.68.004.368-.043.773-.133 1.198-.373.026-.738.038-1.109.036zM1.834 10.543c0-.522.111-1.018.308-1.468.437.129.924.251 1.466.343-.026.26-.046.523-.049.803-.004.34.021.689.063 1.043a12.58 12.58 0 0 1-1.773-.463 2.769 2.769 0 0 1-.015-.258zM1.984 11.578c.509.156 1.092.307 1.75.412.131.667.346 1.348.626 2.035a3.674 3.674 0 0 1-2.376-2.447zM6.383 14.098c.348-.731.615-1.412.789-2.037a8.064 8.064 0 0 0 1.84-.468 3.672 3.672 0 0 1-2.629 2.505z"/></g><g id="icon_x5F_fg"><path class="st3" d="M8.553 8.459a7.14 7.14 0 0 1-1.255.319 7.571 7.571 0 0 0-.589-1.725c.757.262 1.4.759 1.844 1.406zM5.5 6.847c.106 0 .21.008.313.016a6.99 6.99 0 0 1 .786 1.996c-.368.026-.729.03-1.095.026-.386-.004-.76-.03-1.119-.071.15-.782.398-1.424.644-1.934.155-.02.311-.033.471-.033zM4.16 7.101c-.186.465-.355 1-.471 1.613-.443-.079-.85-.175-1.222-.281A3.702 3.702 0 0 1 4.16 7.101z"/><path class="st3" d="M2 5v1.24A5.475 5.475 0 0 1 5.473 5c3.032 0 5.5 2.467 5.5 5.5 0 .9-.222 1.749-.608 2.5H14V5H2z"/></g></svg>