<svg xmlns="http://www.w3.org/2000/svg" viewBox="0 0 16 16"><style>.icon-canvas-transparent{opacity:0;fill:#f6f6f6}.icon-vs-out{fill:#f6f6f6}.icon-vs-bg{fill:#424242}.icon-vs-fg{fill:#f0eff1}.icon-vs-blue{fill:#1ba1e2}</style><path class="icon-canvas-transparent" d="M16 16H0V0h16v16z" id="canvas"/><path class="icon-vs-out" d="M16 15H8.656c-.894.629-1.98 1-3.156 1s-2.263-.371-3.156-1H0V1h16v14z" id="outline"/><path class="icon-vs-fg" d="M2 5h3.5C4.17 5 2.951 5.472 2 6.258V5zm3.5 0a5.5 5.5 0 0 1 5.5 5.5c0 .9-.221 1.75-.606 2.5H14V5H5.5zm1.968 5.221c.004.35-.033.721-.104 1.111a7.545 7.545 0 0 0 1.817-.551c.004-.079.012-.158.012-.238 0-.514-.107-1.001-.297-1.443a8.155 8.155 0 0 1-1.477.384c.026.239.046.481.049.737zm-1.879 3.984c.379-.754.668-1.445.862-2.078-.226.012-.45.017-.672.017-.085 0-.171 0-.257-.002a10.802 10.802 0 0 1-1.036-.058c.152.688.398 1.396.719 2.106.106.01.213.018.321.018.022.001.042-.002.063-.003zm1.051-2.792c.09-.426.137-.83.133-1.198a6.524 6.524 0 0 0-.045-.68c-.321.024-.637.008-.948.008h-.257c-.416 0-.815-.008-1.199-.051-.024.229-.041.49-.043.735-.004.372.024.755.078 1.144.376.043.766.073 1.172.078.371.002.736-.01 1.109-.036zm-4.765-.612c.496.167 1.088.338 1.773.463a8.444 8.444 0 0 1-.063-1.043c.003-.279.022-.543.049-.803a12.588 12.588 0 0 1-1.466-.343c-.196.45-.308.946-.308 1.468.001.087.008.172.015.258zm2.512 3.224a11.11 11.11 0 0 1-.626-2.035 12.835 12.835 0 0 1-1.75-.412 3.674 3.674 0 0 0 2.376 2.447zm4.652-2.432a8.077 8.077 0 0 1-1.84.468 12.815 12.815 0 0 1-.789 2.037 3.676 3.676 0 0 0 2.629-2.505zm-.445-3.128A3.702 3.702 0 0 0 6.75 7.058c.235.492.451 1.063.588 1.725.399-.06.814-.166 1.256-.318zm-1.955.399a6.98 6.98 0 0 0-.786-1.997 4 4 0 0 0-.312-.015c-.16 0-.317.014-.471.033a7.803 7.803 0 0 0-.644 1.934c.359.04.733.067 1.118.071.367.004.728 0 1.095-.026zM4.201 7.105a3.7 3.7 0 0 0-1.693 1.333c.372.105.779.202 1.222.281a8.569 8.569 0 0 1 .471-1.614z" id="iconFg"/><g id="iconBg"><path class="icon-vs-bg" d="M1 2v5.344a5.543 5.543 0 0 1 1-1.086V5h12v8h-3.606a5.538 5.538 0 0 1-.651 1H15V2H1z"/><path class="icon-vs-bg" d="M1 2v5.344a5.543 5.543 0 0 1 1-1.086V5h12v8h-3.606a5.538 5.538 0 0 1-.651 1H15V2H1z"/><path class="icon-vs-blue" d="M10.027 10.543c0-.053-.008-.102-.008-.152a4.497 4.497 0 1 0-8.972.541 4.74 4.74 0 0 0 .047.354 4.49 4.49 0 0 0 3.696 3.691l.013.002a4.283 4.283 0 0 0 1.164.043 4.503 4.503 0 0 0 4.06-4.479zM7.435 9.476a8.07 8.07 0 0 0 1.489-.388c.191.445.298.938.298 1.455 0 .08-.008.16-.012.24a7.525 7.525 0 0 1-1.831.555c.07-.393.108-.768.104-1.119a7.342 7.342 0 0 0-.048-.743zM8.58 8.459a7.14 7.14 0 0 1-1.255.319 7.571 7.571 0 0 0-.589-1.725c.757.262 1.4.759 1.844 1.406zm-3.053 5.78c-.109 0-.217-.008-.324-.018-.322-.717-.57-1.43-.725-2.124a11.327 11.327 0 0 0 1.304.061c.224 0 .45-.006.678-.018a13.596 13.596 0 0 1-.87 2.095c-.022.001-.042.004-.063.004zm.004-2.782c-.41-.006-.803-.035-1.182-.079a7.722 7.722 0 0 1-.035-1.89c.387.044.789.056 1.209.056h.259c.314 0 .632.012.956-.012.025.219.044.451.046.683.004.372-.044.778-.135 1.208a16.09 16.09 0 0 1-1.118.034zm-.004-4.61c.106 0 .21.008.313.016a6.98 6.98 0 0 1 .786 1.997c-.368.025-.729.029-1.095.025-.386-.004-.76-.03-1.119-.071.15-.782.398-1.424.644-1.934.154-.02.311-.033.471-.033zm-1.34.254c-.186.465-.355 1-.471 1.613-.443-.079-.85-.175-1.222-.281a3.702 3.702 0 0 1 1.693-1.332zm-2.356 3.442c0-.525.112-1.025.31-1.481.44.131.931.254 1.478.346a8.105 8.105 0 0 0-.049.811c-.004.342.021.694.063 1.051a12.757 12.757 0 0 1-1.788-.467 2.793 2.793 0 0 1-.014-.26zm.151 1.044c.513.157 1.102.31 1.765.415.132.673.349 1.359.632 2.053a3.703 3.703 0 0 1-2.397-2.468zm4.435 2.54c.35-.737.62-1.424.795-2.054a8.165 8.165 0 0 0 1.856-.472 3.7 3.7 0 0 1-2.651 2.526z"/></g></svg>