<svg xmlns="http://www.w3.org/2000/svg" viewBox="0 0 16 16"><style>.st0{opacity:0}.st0,.st1{fill:#f6f6f6}.st2{fill:#424242}.st3{fill:#f0eff1}</style><g id="outline"><path class="st0" d="M0 0h16v16H0z"/><path class="st1" d="M16 6c0 3.313-2.688 6-6 6-.342 0-.674-.035-1-.09V16H0V9h2c-.65-.637-1-1.519-1-2.5C1 4.566 2.566 3 4.5 3c.1 0 .193.022.291.029A5.996 5.996 0 0 1 10 0a6 6 0 0 1 6 6z"/></g><g id="icon_x5F_bg"><path class="st2" d="M2 6.5a2.5 2.5 0 1 0 5 0 2.5 2.5 0 0 0-5 0"/><path class="st2" d="M2 6.5a2.5 2.5 0 1 0 5 0 2.5 2.5 0 0 0-5 0M8 10v5H1v-5h2l1.5 2L6 10z"/><path class="st2" d="M14.991 6.078A5.246 5.246 0 0 0 9.75 1.005c-1.741 0-3.267.861-4.219 2.167.308.096.601.222.865.394a4.316 4.316 0 0 1 1.791-1.327 9.944 9.944 0 0 0-.548 1.882 15.461 15.461 0 0 1-.732-.149A3.529 3.529 0 0 1 8 6.521C8 7.043 7.878 8 7.671 8h.001c.068 0 .162.65.266 1h.853a11.07 11.07 0 0 1-.265-.93c.393.039.8.064 1.22.068.101.002.201.002.302.002.261 0 .524-.008.79-.021-.229.743-.568 1.558-1.014 2.445-.025 0-.049.004-.074.004-.127 0-.254-.008-.378-.02A13.866 13.866 0 0 1 9 9.613v1.831a4.914 4.914 0 0 0 1.264.037A5.252 5.252 0 0 0 15 6.255c0-.06-.008-.118-.009-.177zm-1.68-2.252c-.515.177-1 .3-1.463.371a8.783 8.783 0 0 0-.688-2.013 4.309 4.309 0 0 1 2.151 1.642zm-4.11-1.844c.18-.023.362-.039.549-.039.124 0 .245.008.366.019.351.608.708 1.384.915 2.33-.428.029-.85.033-1.277.029a12.703 12.703 0 0 1-1.304-.083c.175-.911.464-1.66.751-2.256zm.553 5.339a12.92 12.92 0 0 1-1.378-.092 9.257 9.257 0 0 1-.093-1.345c.004-.289.023-.566.051-.836.452.051.923.085 1.412.09.101.002.201.002.302.002.366 0 .737-.012 1.116-.04.028.254.049.513.053.784.004.434-.052.902-.157 1.402-.439.032-.869.038-1.306.035zm1.034 3.117c.409-.861.725-1.662.929-2.396a9.548 9.548 0 0 0 2.164-.551 4.321 4.321 0 0 1-3.093 2.947zm3.261-3.902a8.806 8.806 0 0 1-2.136.647 6.907 6.907 0 0 0 .063-2.174 9.452 9.452 0 0 0 1.737-.453c.224.521.349 1.096.349 1.699.001.095-.007.188-.013.281z"/></g><g id="icon_x5F_fg"><path class="st3" d="M11.977 5.009c.545-.086 1.057-.231 1.674-.453.223.521.399 1.096.399 1.699 0 .095.006.188 0 .28a8.8 8.8 0 0 1-2.137.647 6.907 6.907 0 0 0 .064-2.173zM13.311 3.826c-.515.177-1 .3-1.463.371a8.783 8.783 0 0 0-.688-2.013 4.309 4.309 0 0 1 2.151 1.642zM9.75 10.568c-.127 0-.254-.008-.378-.02a12.885 12.885 0 0 1-.846-2.478c.393.039.8.064 1.22.068.101.002.201.002.302.002.261 0 .524-.008.79-.021-.229.743-.568 1.558-1.014 2.445-.025 0-.049.004-.074.004zM9.75 7.355c-.477-.005-.958-.074-1.4-.126a9.174 9.174 0 0 1-.067-1.345c.004-.289.02-.566.047-.836.452.051.927.102 1.416.108h.302c.366 0 .737-.027 1.116-.056.028.254.049.513.053.784.004.434-.052.902-.157 1.402-.439.032-.872.072-1.31.069zM9.75 1.943c.124 0 .245.008.366.019.351.608.706 1.384.913 2.33-.428.029-.852.067-1.279.063a12.279 12.279 0 0 1-1.3-.1 9.271 9.271 0 0 1 .751-2.273c.18-.023.362-.039.549-.039zM8.188 2.24a9.835 9.835 0 0 0-.549 1.881 14.216 14.216 0 0 1-1.427-.328A4.311 4.311 0 0 1 8.188 2.24zM10.75 10.436c.409-.861.766-1.66.971-2.394.67-.086 1.378-.292 2.159-.586a4.417 4.417 0 0 1-3.13 2.98z"/></g></svg>