<svg xmlns="http://www.w3.org/2000/svg" width="16" height="16"><style type="text/css">.icon-canvas-transparent{opacity:0;fill:#F6F6F6;} .icon-vs-out{fill:#F6F6F6;} .icon-vs-bg{fill:#424242;} .icon-vs-fg{fill:#F0EFF1;}</style><path class="icon-canvas-transparent" d="M16 16h-16v-16h16v16z" id="canvas"/><path class="icon-vs-out" d="M16 6.552c0 3.389-2.539 6.19-5.909 6.518-.214.021-1.744-.16-1.744-.16-.853-.141-1.64-.46-2.347-.894v1.905c0 1.103-.898 2-2 2s-2-.897-2-2v-2.549c-1-.705-1.982-2.097-1.982-3.532 0-1.683 1.062-3.84 3.324-3.84h.076c.994-2.349 3.324-4 6.033-4 3.548 0 6.42 2.782 6.539 6.33l.01.222z" id="outline"/><path class="icon-vs-bg" d="M14.943 6.368c-.1-2.951-2.517-5.314-5.492-5.314-2.116 0-3.95 1.197-4.87 2.949 1.127.006 1.92.484 2.466 1.15l.073.015-.004.066c.621.809.893 1.872.893 2.766 0 .568-.162 1.103-.415 1.587.129.418.281.839.453 1.261-.349-.114-.679-.27-.983-.461-.215.261-.452.496-.696.702.644.439 1.381.754 2.183.887l.016.002.412.052.472.024c.183 0 .361-.01.539-.026 2.785-.272 4.962-2.617 4.962-5.474l-.009-.186zm-1.759-2.36c-.54.186-1.048.314-1.533.39-.169-.81-.433-1.507-.722-2.109.925.319 1.713.926 2.255 1.719zm-4.307-1.931c.188-.025.379-.041.574-.041l.384.02c.368.637.742 1.45.959 2.441-.448.03-.89.035-1.338.03-.471-.005-.928-.037-1.366-.087.183-.955.486-1.74.787-2.363zm-1.638 2.24c-.543-.095-1.04-.215-1.494-.343.508-.73 1.228-1.3 2.069-1.628-.226.569-.435 1.222-.575 1.971zm.773 3.257c-.067-.479-.101-.95-.097-1.409.004-.303.024-.593.053-.875.474.054.967.089 1.479.094l.316.002c.384 0 .772-.013 1.17-.042.029.266.051.538.055.822.004.454-.054.945-.164 1.469-.46.033-.91.039-1.368.036-.5-.006-.98-.043-1.444-.097zm1.517 3.494l-.078.005-.395-.021c-.395-.877-.699-1.747-.886-2.597.411.041.838.067 1.277.072l.316.002c.273 0 .55-.008.828-.021-.239.778-.595 1.632-1.062 2.56zm1.01-.132c.429-.902.76-1.741.974-2.51.701-.09 1.448-.269 2.267-.577-.455 1.521-1.69 2.702-3.241 3.087zm3.417-4.088c-.817.355-1.55.567-2.238.678.087-.481.131-.938.126-1.369-.002-.314-.026-.615-.06-.908.571-.09 1.175-.243 1.82-.475.234.546.365 1.148.365 1.78l-.013.294zm-6.93 1.073c0 1.304-.863 2.402-2.026 2.816v3.184c0 .551-.43 1-.982 1-.553 0-1.018-.449-1.018-1v-3.184c-1-.414-1.991-1.512-1.991-2.816 0-1.304.991-2.509 1.991-2.921v3h2v-2.895c1 .412 2.026 1.512 2.026 2.816z" id="iconBg"/><path class="icon-vs-fg" d="M11.784 5.249c.571-.09 1.107-.243 1.754-.475.233.546.419 1.148.419 1.78v.293c-.816.355-1.551.567-2.239.678.087-.481.131-.938.126-1.369-.002-.314-.027-.614-.06-.907zm-.855-2.96c.289.602.553 1.299.722 2.109.485-.075.993-.204 1.533-.39-.542-.793-1.33-1.4-2.255-1.719zm-1.4 8.779c.467-.929.823-1.782 1.063-2.561-.278.013-.555.021-.828.021l-.316-.002c-.44-.004-.867-.03-1.278-.071.188.85.491 1.72.886 2.598l.395.021.078-.006zm1.295-3.434c.11-.524.168-1.015.164-1.469-.004-.284-.025-.556-.055-.822-.398.029-.786.058-1.17.058h-.316c-.512-.005-1.009-.058-1.483-.111-.028.282-.045.572-.049.875-.004.458.004.93.069 1.409.465.054.968.127 1.467.132.459.003.913-.039 1.373-.072zm-1.947-5.557c-.301.623-.604 1.427-.787 2.381.439.05.892.1 1.361.105.448.004.893-.037 1.341-.067-.217-.992-.589-1.804-.957-2.441l-.384-.02c-.195.001-.387.017-.574.042zm-3.132 1.898c.454.128.951.248 1.494.343.14-.75.349-1.403.575-1.971-.84.327-1.561.897-2.069 1.628zm1.841 5.625c-.147.28-.322.545-.521.785.304.192.632.349.982.463-.171-.418-.326-.834-.461-1.248zm6.192-1.788c-.818.308-1.56.524-2.262.614-.215.769-.589 1.606-1.018 2.508 1.552-.385 2.826-1.601 3.28-3.122z" id="iconFg"/></svg>