<svg xmlns="http://www.w3.org/2000/svg" viewBox="0 0 16 16"><style>.st0{opacity:0}.st0,.st1{fill:#f6f6f6}.st2{fill:#424242}.st3{fill:#f0eff1}</style><g id="outline"><path class="st0" d="M0 0h16v16H0z"/><path class="st1" d="M16 0H1v7.344c-.628.894-1 1.981-1 3.156a5.5 5.5 0 0 0 11 0c0-.169-.011-.335-.025-.5H16V0z"/></g><g id="icon_x5F_bg"><path class="st2" d="M9.992 10.41a4.496 4.496 0 1 0-8.972.542 4.843 4.843 0 0 0 .047.354 4.492 4.492 0 0 0 3.695 3.691l.014.002a4.11 4.11 0 0 0 1.164.043A4.504 4.504 0 0 0 10 10.563c0-.053-.008-.102-.008-.153zM6.709 7.072c.756.262 1.4.76 1.844 1.406a7.292 7.292 0 0 1-1.256.32 7.58 7.58 0 0 0-.588-1.726zm.047 3.162a5.54 5.54 0 0 1-.135 1.207c-.375.025-.744.037-1.117.035-.41-.006-.803-.035-1.182-.078a7.735 7.735 0 0 1-.078-1.154c.002-.246.02-.506.043-.736.387.043.789.055 1.209.055h.258c.314 0 .633.012.957-.012.025.219.043.451.045.683zm-.158-1.355c-.368.025-.729.029-1.094.025-.387-.004-.76-.029-1.119-.07.15-.781.398-1.424.644-1.934.155-.019.311-.033.471-.033.105 0 .209.008.313.016.3.521.607 1.185.785 1.996zM4.16 7.121a8.709 8.709 0 0 0-.471 1.611 12.205 12.205 0 0 1-1.222-.279A3.708 3.708 0 0 1 4.16 7.121zM2.113 9.082c.44.131.932.254 1.479.346a8.414 8.414 0 0 0-.049.811c-.004.342.021.695.063 1.051a12.62 12.62 0 0 1-1.788-.467c-.007-.086-.014-.172-.014-.26 0-.526.112-1.026.309-1.481zm1.607 2.939c.132.674.349 1.359.632 2.053a3.703 3.703 0 0 1-2.396-2.467c.513.157 1.101.309 1.764.414zm1.456 2.219a11.09 11.09 0 0 1-.725-2.123c.336.033.686.057 1.045.059.086.002.174.002.258.002.225 0 .451-.006.678-.017a13.358 13.358 0 0 1-.869 2.094c-.021.002-.041.004-.063.004a3.86 3.86 0 0 1-.324-.019zm1.215-.094c.35-.736.619-1.424.795-2.053a8.203 8.203 0 0 0 1.855-.473 3.7 3.7 0 0 1-2.65 2.526zm2.793-3.343a7.545 7.545 0 0 1-1.83.555c.07-.393.107-.768.104-1.119a7.633 7.633 0 0 0-.05-.743 8.128 8.128 0 0 0 1.488-.389c.191.445.299.937.299 1.455 0 .081-.007.161-.011.241z"/><path class="st2" d="M2 1v5.258a5.498 5.498 0 0 1 2-1.046V2h4v1H5v2h3v.605A5.504 5.504 0 0 1 10.787 9H15V1H2zm8 5.063H9v-1h1v1zm0-2H9v-1h1v1zM12.6 6L11 2h1l1.6 4h-1z"/></g><g id="icon_x5F_fg"><path class="st3" d="M9 5.063h1v1H9zM11 2l1.6 4h1L12 2zM9 4.063h1v-1H9zM4.16 7.121a3.708 3.708 0 0 0-1.693 1.332c.373.106.779.201 1.222.279a8.709 8.709 0 0 1 .471-1.611zM3.543 10.238c.002-.281.021-.549.049-.811a12.182 12.182 0 0 1-1.479-.345c-.197.455-.31.955-.31 1.48 0 .088.007.174.014.26.5.168 1.097.342 1.788.467a8.375 8.375 0 0 1-.062-1.051zM6.598 8.879a6.979 6.979 0 0 0-.785-1.996c-.104-.008-.208-.016-.313-.016-.16 0-.316.014-.471.033a7.817 7.817 0 0 0-.644 1.934c.359.041.732.066 1.119.07.365.004.726 0 1.094-.025zM1.955 11.607a3.705 3.705 0 0 0 2.396 2.467c-.283-.693-.5-1.379-.632-2.053a12.937 12.937 0 0 1-1.764-.414zM5.504 11.477c.373.002.742-.01 1.117-.035a5.54 5.54 0 0 0 .135-1.207 6.583 6.583 0 0 0-.045-.684c-.324.023-.643.012-.957.012h-.258c-.42 0-.822-.012-1.209-.055-.023.23-.041.49-.043.736-.004.375.023.762.078 1.154.379.043.772.073 1.182.079zM7.457 10.238c.004.351-.033.726-.104 1.119a7.532 7.532 0 0 0 1.83-.555c.004-.08.012-.16.012-.24 0-.518-.107-1.01-.299-1.455a8.128 8.128 0 0 1-1.488.389c.026.24.047.484.049.742zM6.709 7.072c.234.492.451 1.065.588 1.727a7.432 7.432 0 0 0 1.256-.32 3.713 3.713 0 0 0-1.844-1.407zM5.754 12.178c-.084 0-.172 0-.258-.002a10.988 10.988 0 0 1-1.045-.059c.154.695.402 1.408.725 2.123.107.01.215.018.324.018.021 0 .041-.002.063-.004.383-.758.674-1.455.869-2.094-.227.012-.453.018-.678.018zM6.391 14.146a3.7 3.7 0 0 0 2.65-2.525 8.27 8.27 0 0 1-1.855.473 13.143 13.143 0 0 1-.795 2.052z"/><g><path class="st3" d="M8 5H5.5c.901 0 1.749.221 2.5.605V5zM5.5 5H5V3h3V2H4v3.212A5.502 5.502 0 0 1 5.5 5z"/></g></g></svg>