<svg xmlns="http://www.w3.org/2000/svg" viewBox="0 0 16 16" enable-background="new 0 0 16 16"><style type="text/css">.icon-canvas-transparent{opacity:0;fill:#F6F6F6;} .icon-vs-out{fill:#F6F6F6;} .icon-vs-bg{fill:#424242;} .icon-vs-fg{fill:#F0EFF1;} .icon-asp-html-wpf-blue{fill:#0095D7;}</style><path class="icon-canvas-transparent" d="M16 16h-16v-16h16v16z" id="canvas"/><path class="icon-vs-out" d="M16 13h-5.607c-.913 1.778-2.761 3-4.893 3-3.032 0-5.5-2.467-5.5-5.5 0-3.032 2.468-5.5 5.5-5.5 1.172 0 2.258.372 3.151 1h.406c-.65-.636-1.057-1.52-1.057-2.5 0-1.93 1.57-3.5 3.5-3.5s3.5 1.57 3.5 3.5c0 .979-.407 1.864-1.058 2.5h2.058v7z" id="outline"/><path class="icon-vs-bg" d="M9 3.5c0-1.38 1.119-2.5 2.5-2.5 1.379 0 2.5 1.12 2.5 2.5s-1.121 2.5-2.5 2.5c-1.381 0-2.5-1.119-2.5-2.5m4 3.5l-1.5 2-1.5-2h-.257c.785.951 1.257 2.17 1.257 3.5 0 .521-.077 1.023-.212 1.5h4.212v-5h-2z" id="iconBg"/><path class="icon-vs-fg" d="M7.428 9.484c.463-.073.977-.197 1.5-.385.189.442.266.93.266 1.443l-.012.238c-.662.288-1.258.461-1.816.551.07-.391.107-.762.104-1.111-.004-.255-.017-.497-.042-.736zm-1.838 4.721c.379-.754.668-1.43.862-2.063-.226.012-.839.002-.925 0-.356-.002-.707-.066-1.04-.1.152.688.398 1.439.719 2.15l.321.016.063-.003zm1.037-2.792c.09-.426.105-.83.101-1.198-.002-.229.025-.455 0-.672-.321.023-.889 0-1.2 0-.416 0-.816-.008-1.2-.051-.023.229-.038.506-.04.751-.003.323.011.658.072 1.1.376.043.766.101 1.172.106.37.002.722-.01 1.095-.036zm-4.752-.612c.496.167 1.067.338 1.752.463-.041-.353-.045-.781-.042-1.121.003-.279.015-.465.042-.725-.542-.092-1.022-.246-1.458-.375-.196.45-.308.979-.308 1.5l.014.258zm2.513 3.224c-.28-.688-.495-1.315-.626-1.982-.658-.106-1.241-.244-1.75-.4.342 1.157 1.234 2.009 2.376 2.382zm4.651-2.382c-.664.25-1.271.328-1.84.4-.174.625-.441 1.323-.789 2.055 1.258-.312 2.26-1.221 2.629-2.455zm-2.303-4.6c.235.492.451 1.039.589 1.7.398-.062.813-.147 1.255-.3-.443-.648-1.087-1.138-1.844-1.4zm-1.709-.1c-.246.51-.45 1.019-.6 1.8.359.041.718.096 1.104.1.366.004.728.025 1.095 0-.179-.811-.484-1.378-.786-1.9h-.313c-.159 0-.346-.02-.5 0zm-2.532 1.49c.372.105.779.202 1.223.28.114-.613.284-1.148.47-1.612-.688.267-1.277.734-1.693 1.332z" id="iconFg"/><path class="icon-asp-html-wpf-blue" d="M10.027 10.543l-.008-.152c-.081-2.414-2.057-4.348-4.492-4.348-2.485 0-4.5 2.015-4.5 4.5l.02.389.045.341.002.013c.313 1.891 1.803 3.38 3.696 3.691l.013.002.338.045.386.02.439-.022c2.279-.223 4.061-2.142 4.061-4.479zm-2.591-1.067c.467-.073.961-.198 1.489-.388.19.445.299.938.299 1.455l-.012.24c-.668.291-1.269.465-1.831.555.07-.393.108-.768.104-1.119-.003-.259-.024-.503-.049-.743zm1.144-1.017c-.441.152-.856.258-1.255.319-.137-.661-.353-1.233-.589-1.725.757.262 1.401.759 1.844 1.406zm-3.053 5.78l-.324-.018c-.323-.717-.571-1.43-.725-2.124.336.033.686.057 1.045.059l.259.002c.224 0 .45-.006.678-.018-.196.638-.487 1.335-.87 2.095l-.063.004zm.004-2.782c-.41-.006-.825-.035-1.204-.079-.054-.392-.06-.778-.056-1.153.002-.247.02-.507.043-.737.387.044.79.056 1.209.056h.259c.314 0 .632.012.956-.012.025.219.044.451.046.683.004.372-.044.778-.135 1.208-.376.024-.744.036-1.118.034zm-.004-4.61l.313.016c.302.522.607 1.187.786 1.997-.367.025-.729.029-1.095.025-.386-.004-.759-.029-1.119-.07.151-.783.399-1.425.645-1.935.153-.02.311-.033.47-.033zm-1.339.254c-.186.465-.356 1-.471 1.612-.444-.078-.851-.175-1.223-.28.417-.598 1.006-1.065 1.694-1.332zm-2.357 3.442c0-.525.112-1.025.31-1.481.44.131.932.254 1.478.346-.027.262-.046.529-.049.811-.004.342.021.694.063 1.051-.691-.126-1.288-.299-1.788-.467l-.014-.26zm.151 1.044c.513.157 1.101.31 1.765.415.132.673.349 1.359.631 2.053-1.151-.377-2.051-1.301-2.396-2.468zm4.436 2.54c.35-.737.62-1.424.795-2.054.574-.073 1.186-.22 1.855-.472-.372 1.245-1.382 2.213-2.65 2.526z" id="colorImportance"/></svg>