<svg xmlns="http://www.w3.org/2000/svg" viewBox="0 0 16 16"><style>.st0{opacity:0}.st0,.st1{fill:#f6f6f6}.st2{fill:#424242}.st3{fill:#f0eff1}</style><g id="outline"><path class="st0" d="M0 0h16v16H0z"/><path class="st1" d="M11 0v5.703a6.222 6.222 0 0 0-4.75-2.179A6.252 6.252 0 0 0 0 9.769c0 .04.005.077.006.116C.005 9.924 0 9.961 0 10c0 3.309 2.691 6 6 6 .124 0 .241-.023.362-.031.234.021.433.035.498.029a6.215 6.215 0 0 0 5.271-4.107l1.368 1.776 2.5-3.229V0H11z"/></g><g id="icon_x5F_bg"><path class="st2" d="M12 1h3v1.969h-3zM12 4h3v5h-3zM13.5 12l1.5-2h-3zM11.5 9.779c0-.061-.008-.118-.009-.178a5.246 5.246 0 1 0-10.469.631c.012.135.031.268.053.399l.002.014a5.245 5.245 0 0 0 4.313 4.309l.015.002c.131.021.262.04.395.052a4.773 4.773 0 0 0 .964-.002A5.254 5.254 0 0 0 11.5 9.779zM8.477 8.533a9.452 9.452 0 0 0 1.737-.453c.224.521.349 1.096.349 1.699 0 .095-.008.188-.014.28a8.793 8.793 0 0 1-2.136.647 6.9 6.9 0 0 0 .064-2.173zM9.812 7.35c-.515.177-1 .3-1.463.371a8.701 8.701 0 0 0-.689-2.013A4.31 4.31 0 0 1 9.812 7.35zM6.25 14.092a4.29 4.29 0 0 1-.378-.019 12.87 12.87 0 0 1-.846-2.479c.393.039.8.064 1.22.068.101.002.201.002.302.002.261 0 .524-.008.79-.02-.229.743-.568 1.558-1.014 2.444-.025.001-.049.004-.074.004zm.004-3.247a12.92 12.92 0 0 1-1.378-.092 9.257 9.257 0 0 1-.093-1.345c.004-.289.023-.566.051-.836.452.051.923.085 1.412.09.101.002.201.002.302.002.366 0 .737-.012 1.116-.04.028.254.049.513.053.784.004.434-.052.902-.157 1.402-.439.032-.869.038-1.306.035zM6.25 5.467c.124 0 .245.008.366.019.351.608.708 1.384.915 2.33-.428.029-.85.033-1.277.029a12.703 12.703 0 0 1-1.304-.083 9.12 9.12 0 0 1 .751-2.256c.18-.024.362-.039.549-.039zm-1.562.296a9.868 9.868 0 0 0-.549 1.882 14.497 14.497 0 0 1-1.427-.328 4.32 4.32 0 0 1 1.976-1.554zm-2.75 4.016c0-.614.131-1.197.361-1.727.515.151 1.087.295 1.726.404a9.513 9.513 0 0 0-.058.944c-.005.4.025.812.073 1.227a14.585 14.585 0 0 1-2.087-.545 3.817 3.817 0 0 1-.015-.303zm.177 1.219c.598.184 1.283.359 2.058.483.154.785.406 1.587.736 2.396a4.32 4.32 0 0 1-2.794-2.879zm5.173 2.963c.409-.86.725-1.661.929-2.396a9.548 9.548 0 0 0 2.164-.551 4.316 4.316 0 0 1-3.093 2.947z"/></g><g id="icon_x5F_fg"><path class="st3" d="M8.477 8.533c.544-.086 1.056-.231 1.673-.453.223.521.399 1.096.399 1.699 0 .095.006.188 0 .28a8.8 8.8 0 0 1-2.137.647 6.9 6.9 0 0 0 .12-1.307 8.063 8.063 0 0 0-.055-.866zM9.812 7.35c-.515.177-1 .3-1.463.371a8.701 8.701 0 0 0-.689-2.013A4.31 4.31 0 0 1 9.812 7.35zM6.25 14.092a4.29 4.29 0 0 1-.378-.019 12.87 12.87 0 0 1-.846-2.479c.393.039.8.064 1.22.068.101.002.201.002.302.002.261 0 .524-.008.79-.02-.229.743-.568 1.558-1.014 2.444-.025.001-.049.004-.074.004zM6.25 10.879c-.477-.005-.958-.074-1.4-.126a9.174 9.174 0 0 1-.067-1.345c.004-.289.02-.566.047-.836.452.051.927.102 1.416.108h.302c.366 0 .737-.027 1.116-.056.028.254.049.513.053.784.004.434-.052.902-.157 1.402-.439.032-.872.072-1.31.069zM6.25 5.467c.124 0 .245.008.366.019.351.608.707 1.384.914 2.33-.428.029-.852.067-1.28.063a12.279 12.279 0 0 1-1.3-.1 9.271 9.271 0 0 1 .751-2.273c.18-.024.362-.039.549-.039zM4.688 5.763a9.868 9.868 0 0 0-.549 1.882 14.497 14.497 0 0 1-1.427-.328 4.32 4.32 0 0 1 1.976-1.554zM1.938 9.779c0-.614.131-1.197.361-1.727.515.151 1.087.295 1.726.404a9.513 9.513 0 0 0-.058.944c-.005.4.025.812.073 1.227a14.585 14.585 0 0 1-2.087-.545 3.817 3.817 0 0 1-.015-.303zM2.15 10.998c.598.184 1.226.359 2 .483.154.785.429 1.587.759 2.396-1.343-.439-2.359-1.519-2.759-2.879zM7.25 13.959c.409-.86.766-1.659.97-2.394.67-.086 1.378-.292 2.16-.586a4.412 4.412 0 0 1-3.13 2.98z"/></g></svg>