<svg xmlns="http://www.w3.org/2000/svg" viewBox="0 0 16 16"><style>.st0{opacity:0}.st0,.st1{fill:#f6f6f6}.st2{fill:#424242}.st3{fill:#f0eff1}</style><g id="outline"><path class="st0" d="M0 0h16v16H0z"/><path class="st0" d="M0 0h16v16H0z"/><path class="st1" d="M8 0A7.998 7.998 0 0 0 .587 5H0v11h6v-.263A7.953 7.953 0 0 0 8 16 8 8 0 0 0 8 0z"/></g><path class="st2" d="M14.988 7.764C14.862 4.008 11.786 1 8 1a6.992 6.992 0 0 0-6.317 4H4.43a20.349 20.349 0 0 1-1.148-.282 5.757 5.757 0 0 1 2.635-2.073c-.273.682-.52 1.469-.695 2.355H6v7.874c.073.196.131.392.212.589-.073-.024-.141-.058-.212-.084v1.308c.279.084.56.163.853.212l.021.003A7.065 7.065 0 0 0 8 15a7 7 0 0 0 7-7c0-.08-.01-.157-.012-.236zM12.749 4.76c-.686.236-1.334.4-1.951.496a11.703 11.703 0 0 0-.917-2.685 5.757 5.757 0 0 1 2.868 2.189zM7.268 2.302c.24-.031.483-.052.732-.052.165 0 .327.012.488.024.468.812.944 1.846 1.221 3.108-.571.039-1.133.044-1.703.039-.6-.007-1.181-.048-1.739-.11a12.133 12.133 0 0 1 1.001-3.009zm-1.1 6.996a12.244 12.244 0 0 1-.123-1.792c.004-.387.031-.756.067-1.115.603.068 1.23.113 1.882.12l.403.003c.488 0 .982-.016 1.487-.055.038.34.066.686.07 1.047a8.673 8.673 0 0 1-.209 1.869c-.584.041-1.158.049-1.74.046a17.426 17.426 0 0 1-1.837-.123zm1.931 4.447c-.034.001-.066.005-.099.005-.17 0-.338-.011-.504-.025-.503-1.116-.888-2.225-1.128-3.306a18.417 18.417 0 0 0 2.029.094c.348 0 .699-.01 1.054-.027-.305.991-.759 2.077-1.352 3.259zm1.285-.17c.546-1.146.967-2.215 1.238-3.193a12.79 12.79 0 0 0 2.886-.734 5.753 5.753 0 0 1-4.124 3.927zm4.347-5.201c-1.038.452-1.972.722-2.848.863a9.32 9.32 0 0 0 .161-1.743c-.004-.4-.035-.782-.076-1.156a12.478 12.478 0 0 0 2.316-.604c.3.696.466 1.461.466 2.266 0 .126-.011.25-.019.374z" id="icon_x5F_bg"/><path class="st2" d="M1 6v9h4V6H1zm3 8H2v-1h2v1zm0-2H2v-1h2v1zm0-3H2V7h2v2z" id="color_x5F_importance"/><g id="icon_x5F_fg"><path class="st3" d="M10.969 6.338a12.478 12.478 0 0 0 2.316-.604c.299.696.465 1.461.465 2.266 0 .126-.011.25-.019.374-1.038.452-1.972.722-2.848.863a9.32 9.32 0 0 0 .161-1.743 11.3 11.3 0 0 0-.075-1.156zM12.749 4.76c-.686.236-1.334.4-1.951.496a11.703 11.703 0 0 0-.917-2.685 5.757 5.757 0 0 1 2.868 2.189zM8 13.75c-.17 0-.338-.011-.504-.025-.503-1.116-.888-2.225-1.128-3.306a18.417 18.417 0 0 0 2.029.094c.348 0 .699-.01 1.054-.027-.306.991-.759 2.077-1.353 3.26-.033 0-.065.004-.098.004zM8.006 9.421a17.427 17.427 0 0 1-1.838-.123 12.244 12.244 0 0 1-.123-1.792c.004-.387.031-.756.067-1.115.603.068 1.23.113 1.882.12l.403.003c.488 0 .982-.016 1.487-.055.038.34.066.686.07 1.047a8.673 8.673 0 0 1-.209 1.869c-.583.041-1.157.049-1.739.046zM8 2.25c.165 0 .327.012.488.024.468.812.944 1.846 1.221 3.108-.571.039-1.133.044-1.703.039-.6-.007-1.181-.048-1.739-.11a12.133 12.133 0 0 1 1.001-3.009c.24-.031.483-.052.732-.052zM5.917 2.645c-.29.724-.556 1.555-.732 2.509a19.118 19.118 0 0 1-1.903-.436 5.768 5.768 0 0 1 2.635-2.073zM9.384 13.575c.546-1.146.967-2.215 1.238-3.193a12.79 12.79 0 0 0 2.886-.734 5.753 5.753 0 0 1-4.124 3.927zM6.104 12.621c-.037-.06-.069-.131-.104-.193v.139c.036.015.067.04.104.054zM4 13H2v1h2v-1zm0-1H2v-1h2v1zm0-3H2V7h2v2z"/></g></svg>