<svg xmlns="http://www.w3.org/2000/svg" viewBox="0 0 16 16"><style>.st0{opacity:0}.st0,.st1{fill:#f6f6f6}.st2{fill:#424242}.st3{fill:#00539c}.st4{fill:#f0eff1}</style><g id="outline"><path class="st0" d="M0 0h16v16H0z"/><path class="st1" d="M8 0a8 8 0 0 0-8 8c0 .692.097 1.359.262 2H.077v4h2.586l-2 2h4.828l.313-.313c.698.2 1.433.313 2.196.313A8 8 0 0 0 8 0z"/></g><g id="icon_x5F_bg"><path class="st2" d="M1.03 8.604c.016.18.041.356.07.532l.002.018c.049.29.128.569.211.846h1.309l-.023-.063-1.581-1.583c.005.084.004.168.012.25z"/><path class="st2" d="M14.988 7.763C14.862 4.008 11.786 1 8 1a7 7 0 0 0-7 7h1.25c0-.819.174-1.597.482-2.302.686.202 1.448.393 2.3.539-.042.405-.072.82-.077 1.257-.002.167.008.337.014.506h.522l.604.604a11.07 11.07 0 0 1-.05-1.099c.004-.386.031-.755.067-1.114.603.068 1.23.113 1.882.12l.403.002c.488 0 .982-.016 1.487-.054.038.339.066.685.07 1.046a8.673 8.673 0 0 1-.209 1.869c-.584.041-1.158.049-1.74.046a14.851 14.851 0 0 1-1.151-.058l1.148 1.148a22.04 22.04 0 0 0 1.45-.025c-.106.344-.253.714-.395 1.081l.434.434L8.4 13.091c-.104.221-.187.427-.301.654-.034.001-.066.005-.099.005-.083 0-.164-.008-.247-.013l-1.109 1.109c.07.014.137.04.208.052l.021.003A7.065 7.065 0 0 0 8 15a7 7 0 0 0 7-7c0-.08-.01-.157-.012-.237zm-9.803-2.61a19.128 19.128 0 0 1-1.903-.435 5.757 5.757 0 0 1 2.635-2.073 13.08 13.08 0 0 0-.732 2.508zm2.821.268a16.72 16.72 0 0 1-1.739-.111 12.138 12.138 0 0 1 1.001-3.008c.24-.031.483-.052.732-.052.165 0 .327.011.488.024.468.812.944 1.846 1.221 3.108-.571.039-1.133.044-1.703.039zm1.875-2.85a5.755 5.755 0 0 1 2.868 2.188c-.686.236-1.334.4-1.951.496a11.71 11.71 0 0 0-.917-2.684zm-.497 11.004c.546-1.146.967-2.215 1.238-3.193a12.79 12.79 0 0 0 2.886-.734 5.753 5.753 0 0 1-4.124 3.927zm4.347-5.201c-1.038.452-1.972.722-2.848.863a9.32 9.32 0 0 0 .161-1.743c-.004-.4-.035-.783-.076-1.156a12.557 12.557 0 0 0 2.316-.604c.3.696.466 1.461.466 2.266 0 .126-.011.25-.019.374z"/></g><path class="st3" d="M5.077 9h-2l2 2h-4v2h4l-2 2h2l3-3z" id="color_x5F_action"/><g id="icon_x5F_fg"><path class="st4" d="M10.969 6.338a12.557 12.557 0 0 0 2.316-.604c.299.696.465 1.461.465 2.266 0 .126-.011.25-.019.374-1.038.452-1.972.722-2.848.863a9.32 9.32 0 0 0 .161-1.743 11.3 11.3 0 0 0-.075-1.156zM12.749 4.76c-.686.236-1.334.4-1.951.496a11.703 11.703 0 0 0-.917-2.685 5.757 5.757 0 0 1 2.868 2.189zM7.753 13.737c.083.005.164.013.247.013.033 0 .065-.004.099-.005.114-.227.198-.434.301-.654l-.647.646zM9.057 11.566c.142-.367.288-.737.395-1.081-.354.017-.706.027-1.054.027-.132 0-.263 0-.396-.002l1.055 1.056zM9.885 6.459c-.505.039-.997.054-1.485.054L8 6.511a18.67 18.67 0 0 1-1.888-.12c-.036.359-.063.728-.067 1.114-.003.356-.004.704.007 1.056l.774.774c.389.044.786.082 1.174.086.582.003 1.116-.005 1.7-.046.141-.667.261-1.292.255-1.869a10.356 10.356 0 0 0-.07-1.047zM8 2.25c.165 0 .327.011.488.024.468.812.935 1.846 1.212 3.108-.571.039-1.13.044-1.7.039-.6-.006-1.241-.047-1.8-.111.233-1.215.685-2.214 1.067-3.008.241-.031.484-.052.733-.052zM5.917 2.645a13.08 13.08 0 0 0-.732 2.508 19.128 19.128 0 0 1-1.903-.435 5.768 5.768 0 0 1 2.635-2.073zM4.955 7.494c.005-.437.035-.852.077-1.258a20.105 20.105 0 0 1-2.3-.539A5.744 5.744 0 0 0 2.25 8h2.719c-.006-.169-.016-.339-.014-.506zM9.384 13.575c.546-1.146.967-2.215 1.238-3.193a12.79 12.79 0 0 0 2.886-.734 5.753 5.753 0 0 1-4.124 3.927z"/></g></svg>