<svg xmlns="http://www.w3.org/2000/svg" viewBox="0 0 16 16"><style>.st0{opacity:0}.st0,.st1{fill:#f6f6f6}.st2{fill:#424242}.st3{fill:#f0eff1}</style><path class="st0" d="M0 0h16v16H0z" id="outline"/><g id="icon_x5F_bg"><path class="st1" d="M12 0H6c-.97 0-2 .701-2 2v3.214c-2.305.655-4 2.774-4 5.286C0 13.533 2.468 16 5.5 16a5.49 5.49 0 0 0 4.239-2H14c1.299 0 2-1.03 2-2V3.556L12 0z"/><path class="st2" d="M11.641 1H5.964S5 1 5 2v3.026c.165-.015.331-.026.5-.026s.335.011.5.026V2h5v3h3v7h-3.213c-.1.349-.231.683-.394 1h3.572c1 0 1.035-1 1.035-1V4l-3.359-3z"/><path class="st3" d="M11 5V2H6v3.026c2.799.254 5 2.611 5 5.474 0 .521-.077 1.023-.213 1.5H14V5h-3z"/><path class="st2" d="M10.027 10.543c0-.053-.008-.102-.008-.152a4.496 4.496 0 1 0-8.925.895 4.49 4.49 0 0 0 3.696 3.691l.013.002a4.283 4.283 0 0 0 1.164.043 4.503 4.503 0 0 0 4.06-4.479zM7.436 9.476a8.07 8.07 0 0 0 1.489-.388c.19.445.299.938.299 1.455 0 .08-.008.16-.012.24a7.551 7.551 0 0 1-1.831.555c.07-.393.108-.768.104-1.119a7.967 7.967 0 0 0-.049-.743zM8.58 8.459a7.097 7.097 0 0 1-1.255.319 7.475 7.475 0 0 0-.589-1.725A3.703 3.703 0 0 1 8.58 8.459zm-3.053 5.78c-.109 0-.217-.008-.324-.018-.322-.717-.57-1.43-.725-2.124a11.327 11.327 0 0 0 1.304.061c.224 0 .45-.006.678-.018a13.596 13.596 0 0 1-.87 2.095c-.022.001-.041.004-.063.004zm.004-2.782c-.41-.006-.803-.035-1.182-.079a7.722 7.722 0 0 1-.035-1.89c.387.044.789.056 1.209.056h.259c.314 0 .632.012.956-.012.025.219.044.451.046.683.004.372-.044.778-.135 1.208a16.09 16.09 0 0 1-1.118.034zm-.004-4.61c.106 0 .21.008.313.016a6.98 6.98 0 0 1 .786 1.997c-.367.025-.729.029-1.095.025-.386-.004-.76-.03-1.119-.071a7.842 7.842 0 0 1 .645-1.934c.154-.02.31-.033.47-.033zm-1.339.254c-.186.465-.355 1-.471 1.613-.443-.079-.85-.175-1.223-.281a3.7 3.7 0 0 1 1.694-1.332zm-2.357 3.442c0-.525.112-1.025.31-1.481.44.131.932.254 1.479.346a8.1 8.1 0 0 0-.05.811c-.004.342.021.694.063 1.051a12.757 12.757 0 0 1-1.788-.467c-.007-.086-.014-.172-.014-.26zm.151 1.044c.514.157 1.102.31 1.765.415.132.673.349 1.359.632 2.053a3.706 3.706 0 0 1-2.397-2.468zm4.436 2.54c.35-.737.62-1.424.795-2.054a8.144 8.144 0 0 0 1.855-.472 3.698 3.698 0 0 1-2.65 2.526z"/></g><g id="icon_x5F_fg"><path class="st3" d="M7.42 9.484A8.146 8.146 0 0 0 8.896 9.1c.189.442.297.93.297 1.443 0 .08-.008.159-.012.238a7.538 7.538 0 0 1-1.816.551c.07-.391.107-.762.104-1.111a7.882 7.882 0 0 0-.049-.737zM5.527 14.209c-.108 0-.215-.008-.321-.018a10.981 10.981 0 0 1-.719-2.106c.333.033.68.056 1.036.058.086.002.172.002.257.002.222 0 .446-.006.672-.017a13.522 13.522 0 0 1-.862 2.078c-.022 0-.041.003-.063.003zM5.531 11.449a11.528 11.528 0 0 1-1.172-.078 7.738 7.738 0 0 1-.078-1.144c.002-.245.02-.507.043-.735.384.043.783.051 1.199.051h.257c.312 0 .627.016.948-.008.025.217.043.45.045.68.004.368-.043.773-.133 1.198-.372.026-.738.038-1.109.036zM1.861 10.543c0-.522.111-1.018.308-1.468.437.129.924.251 1.466.343-.026.26-.046.523-.049.803-.004.34.021.689.063 1.043a12.58 12.58 0 0 1-1.773-.463 2.769 2.769 0 0 1-.015-.258zM2.012 11.578c.509.156 1.092.307 1.75.412.131.667.346 1.348.626 2.035a3.672 3.672 0 0 1-2.376-2.447zM6.41 14.098c.348-.731.615-1.412.789-2.037a8.064 8.064 0 0 0 1.84-.468 3.672 3.672 0 0 1-2.629 2.505zM8.58 8.459a7.097 7.097 0 0 1-1.255.319 7.475 7.475 0 0 0-.589-1.725A3.703 3.703 0 0 1 8.58 8.459zM5.527 6.847c.106 0 .21.008.313.016a6.98 6.98 0 0 1 .786 1.997c-.367.025-.729.029-1.095.025-.386-.004-.76-.03-1.119-.071a7.842 7.842 0 0 1 .645-1.934c.154-.02.31-.033.47-.033zM4.188 7.101c-.186.465-.355 1-.471 1.613-.443-.079-.85-.175-1.223-.281a3.7 3.7 0 0 1 1.694-1.332z"/></g></svg>