<svg xmlns="http://www.w3.org/2000/svg" viewBox="0 0 16 16"><style>.icon-vs-fg{fill:#f0eff1}.icon-white{fill:#fff}.icon-canvas-transparent{opacity:0;fill:#f6f6f6}.icon-vs-out{fill:#f6f6f6}.icon-vs-bg{fill:#424242}.icon-vs-red{fill:#e51400}.st0{fill:#f6f6f6}</style><g id="outline"><path class="icon-canvas-transparent" d="M16 16H0V0h16v16z"/><path class="icon-vs-out" d="M12 0H6c-.97 0-2 .701-2 2v3.214c-2.305.655-4 2.774-4 5.286C0 13.533 2.468 16 5.5 16a5.453 5.453 0 0 0 3.155-1.008c.071.057.151.101.225.154a4.234 4.234 0 0 0 .731.426c.068.032.133.067.203.095.229.094.467.167.714.221.027.006.052.016.08.022.276.055.559.09.851.09l.024-.002.018.002c.047 0 .091-.012.138-.014.205-.008.407-.026.605-.061a4.454 4.454 0 0 0 .661-.17 4.478 4.478 0 0 0 2.842-2.824c.151-.294.253-.61.253-.931V3.556L12 0z"/></g><g id="icon_x5F_bg"><path class="icon-vs-bg" d="M11 5h3v2.792c.385.265.714.597 1 .965V4l-3.359-3H5.964S5 1 5 2v3.026c.165-.015.331-.026.5-.026s.335.011.5.026V2h5v3zM7.524 13.641a3.658 3.658 0 0 1-1.106.486c.276-.583.487-1.125.656-1.642a4.5 4.5 0 0 1-.116-.985c0-.715.183-1.382.48-1.982l-.002-.042.029-.006c.155-.304.342-.584.558-.843a6.59 6.59 0 0 1-.698.151 7.475 7.475 0 0 0-.589-1.725c.66.228 1.225.643 1.655 1.172.194-.182.399-.349.623-.494-.823-1.022-2.07-1.688-3.486-1.688a4.5 4.5 0 0 0-4.5 4.5 4.74 4.74 0 0 0 .067.743 4.49 4.49 0 0 0 3.696 3.691l.013.002a4.283 4.283 0 0 0 1.164.043 4.457 4.457 0 0 0 1.999-.719 4.468 4.468 0 0 1-.443-.662zM5.057 6.88c.154-.02.311-.033.471-.033.106 0 .21.008.313.016a6.98 6.98 0 0 1 .786 1.997c-.368.025-.73.029-1.096.025-.386-.004-.76-.03-1.119-.071a7.842 7.842 0 0 1 .645-1.934zm-.743 2.607c.387.044.789.056 1.209.056h.259c.314 0 .632.012.956-.012.025.219.044.451.046.683.004.372-.044.778-.135 1.208-.376.025-.744.037-1.118.035-.41-.006-.803-.035-1.182-.079a7.722 7.722 0 0 1-.035-1.891zm-.126-2.386c-.186.465-.355 1-.471 1.613-.443-.079-.85-.175-1.223-.281a3.7 3.7 0 0 1 1.694-1.332zm-2.357 3.442c0-.525.112-1.025.31-1.481.44.131.932.254 1.479.346a8.1 8.1 0 0 0-.05.811c-.004.342.021.694.063 1.051a12.757 12.757 0 0 1-1.788-.467c-.007-.086-.014-.172-.014-.26zm.151 1.044c.514.157 1.102.31 1.765.415.132.673.349 1.359.632 2.053a3.706 3.706 0 0 1-2.397-2.468zm3.608 2.648c-.021.001-.041.004-.063.004-.109 0-.217-.008-.324-.018-.322-.717-.57-1.43-.725-2.124a11.327 11.327 0 0 0 1.304.061c.224 0 .45-.006.678-.018a13.556 13.556 0 0 1-.87 2.095z"/></g><g id="icon_x5F_fg"><path class="icon-vs-fg" d="M7.42 9.484l.004.061c.012-.024.025-.046.038-.069l-.042.008zM5.78 12.144c-.085 0-.171 0-.257-.002a10.802 10.802 0 0 1-1.036-.058c.152.688.398 1.396.719 2.106.106.01.213.018.321.018.021 0 .041-.003.063-.004.379-.754.668-1.445.862-2.078-.225.013-.45.018-.672.018zM5.531 11.449c.371.002.736-.011 1.109-.036.09-.426.137-.83.133-1.198a6.524 6.524 0 0 0-.045-.68c-.321.024-.636.008-.948.008h-.257c-.416 0-.815-.008-1.199-.051-.023.229-.041.49-.043.735-.004.372.024.755.078 1.144.376.043.766.073 1.172.078zM3.586 10.221c.003-.279.022-.543.049-.803a12.54 12.54 0 0 1-1.466-.343c-.196.45-.308.946-.308 1.468 0 .087.007.172.014.258.496.167 1.088.338 1.773.463a8.26 8.26 0 0 1-.062-1.043zM2.012 11.578a3.672 3.672 0 0 0 2.376 2.447 11.11 11.11 0 0 1-.626-2.035 12.835 12.835 0 0 1-1.75-.412zM6.41 14.098a3.67 3.67 0 0 0 1.1-.484 4.438 4.438 0 0 1-.444-1.156 13.615 13.615 0 0 1-.656 1.64zM8.391 8.226a3.684 3.684 0 0 0-1.655-1.172c.235.492.451 1.063.589 1.725.226-.035.46-.088.698-.151.118-.141.235-.278.368-.402zM6.626 8.859a6.98 6.98 0 0 0-.786-1.997 4.001 4.001 0 0 0-.313-.015c-.16 0-.316.014-.471.033a7.887 7.887 0 0 0-.644 1.934c.359.041.733.067 1.119.071.366.004.728 0 1.095-.026zM4.188 7.101a3.7 3.7 0 0 0-1.694 1.332c.373.105.779.202 1.223.281a8.536 8.536 0 0 1 .471-1.613z"/><path class="st0" d="M8.391 8.226c-.133.124-.25.261-.368.401a8.08 8.08 0 0 0 .557-.168c-.057-.083-.126-.155-.189-.233z"/><path class="icon-vs-fg" d="M9.933 7.284A4.44 4.44 0 0 1 11.458 7c.943 0 1.817.294 2.542.792V5h-3V2H6v3.026c1.62.147 3.023 1.012 3.933 2.258z"/></g><path class="icon-vs-red" d="M11.5 8.125a3.376 3.376 0 1 0 .001 6.751 3.376 3.376 0 0 0-.001-6.751zM12 14h-1v-1h1v1zm0-2h-1V9h1v3z" id="not_x5F_bg"/><g id="not_x5F_fg"><path class="icon-white" d="M11 9h1v3h-1zM11 13h1v1h-1z"/></g></svg>