<svg xmlns="http://www.w3.org/2000/svg" viewBox="0 0 16 16"><style>.icon-canvas-transparent{opacity:0;fill:#f6f6f6}.icon-vs-out{fill:#f6f6f6}.icon-folder{fill:#dcb67a}.icon-vs-fg{fill:#f0eff1}.icon-vs-bg{fill:#424242}</style><path class="icon-canvas-transparent" d="M0 0h16v16H0V0z" id="canvas"/><path class="icon-vs-out" d="M14.996 4.5v8c0 .827-.673 1.5-1.5 1.5H9.73a5.465 5.465 0 0 1-4.708 1.977 4.843 4.843 0 0 1-.329-.041h-.021l-.111-.022a5.408 5.408 0 0 1-3.308-1.938A1.501 1.501 0 0 1 0 12.5v-10C0 1.673.673 1 1.5 1h8.11l1 2h2.886c.827 0 1.5.673 1.5 1.5z" id="outline"/><g id="iconBg"><path class="icon-folder" d="M13.496 4H9.992l-1-2H1.5a.5.5 0 0 0-.5.5v4.848A5.493 5.493 0 0 1 5.5 5a5.475 5.475 0 0 1 5.491 5.313c.006.083.009.134.009.187 0 .904-.235 1.746-.62 2.5h3.116a.5.5 0 0 0 .5-.5v-8a.5.5 0 0 0-.5-.5zM2 4V3h6.374l.5 1H2z"/><path class="icon-vs-bg" d="M10 10.5c0-.053-.008-.102-.008-.152a4.496 4.496 0 1 0-8.925.895 4.49 4.49 0 0 0 3.696 3.691l.013.002c.112.019.224.035.337.044a4.143 4.143 0 0 0 .826-.001A4.503 4.503 0 0 0 10 10.5zM7.408 9.433a8.07 8.07 0 0 0 1.489-.388c.191.445.299.937.299 1.455 0 .08-.008.16-.012.24a7.525 7.525 0 0 1-1.831.555c.07-.393.108-.768.104-1.119a7.337 7.337 0 0 0-.049-.743zm1.145-1.017a7.14 7.14 0 0 1-1.255.319 7.571 7.571 0 0 0-.589-1.725c.757.262 1.4.759 1.844 1.406zM5.5 14.196c-.109 0-.217-.008-.324-.018-.322-.717-.57-1.43-.725-2.124a11.327 11.327 0 0 0 1.304.061c.224 0 .45-.006.678-.018a13.596 13.596 0 0 1-.87 2.095c-.022.001-.042.004-.063.004zm.004-2.782c-.41-.006-.803-.035-1.182-.079a7.722 7.722 0 0 1-.035-1.89c.387.043.789.055 1.209.055h.259c.314 0 .632.012.956-.012.025.219.044.451.046.683.004.372-.044.778-.135 1.208-.376.025-.744.037-1.118.035zM5.5 6.804c.106 0 .21.008.313.016a6.99 6.99 0 0 1 .786 1.996c-.368.026-.729.03-1.095.026-.386-.004-.76-.03-1.119-.071a7.76 7.76 0 0 1 .645-1.934c.154-.02.31-.033.47-.033zm-1.34.254c-.186.465-.355 1-.471 1.613a12.764 12.764 0 0 1-1.222-.281A3.702 3.702 0 0 1 4.16 7.058zM1.804 10.5c0-.525.112-1.025.31-1.481.44.131.931.254 1.478.346a8.394 8.394 0 0 0-.049.811c-.004.342.021.694.063 1.051a12.757 12.757 0 0 1-1.788-.467 3.185 3.185 0 0 1-.014-.26zm.151 1.044c.513.157 1.102.31 1.765.415.132.673.349 1.359.632 2.053a3.703 3.703 0 0 1-2.397-2.468zm4.436 2.54c.35-.737.62-1.424.795-2.054a8.165 8.165 0 0 0 1.856-.472 3.703 3.703 0 0 1-2.651 2.526z"/></g><g id="iconFg"><path class="icon-vs-fg" d="M2 3h6.374l.5 1H2V3z"/></g></svg>