<svg xmlns="http://www.w3.org/2000/svg" viewBox="0 0 16 16"><style>.st0{opacity:0}.st0,.st1{fill:#f6f6f6}.st2{fill:#424242}.st3{fill:#f0eff1}</style><g id="outline"><path class="st0" d="M0 0h16v16H0z"/><path class="st1" d="M16 0H2v6.261a5.49 5.49 0 0 0 0 8.478V15h.348a5.464 5.464 0 0 0 6.304 0H16V0z"/></g><g id="icon_x5F_bg"><path class="st2" d="M3 1v1h1v1H3v1h1v1H3v.607a5.457 5.457 0 0 1 2-.582V2h9v11h-3.607c-.183.356-.4.693-.653 1H15V1H3z"/><path class="st2" d="M10.027 10.543c0-.053-.008-.102-.008-.152a4.497 4.497 0 1 0-8.972.541 4.74 4.74 0 0 0 .047.354 4.49 4.49 0 0 0 3.696 3.691l.013.002a4.283 4.283 0 0 0 1.164.043 4.503 4.503 0 0 0 4.06-4.479zM7.435 9.476a8.07 8.07 0 0 0 1.489-.388c.191.445.298.938.298 1.455 0 .08-.008.16-.012.24a7.525 7.525 0 0 1-1.831.555c.07-.393.108-.768.104-1.119a7.342 7.342 0 0 0-.048-.743zM8.58 8.459a7.23 7.23 0 0 1-1.255.319 7.571 7.571 0 0 0-.589-1.725c.757.262 1.4.759 1.844 1.406zm-3.053 5.78c-.109 0-.217-.008-.324-.018-.322-.717-.57-1.43-.725-2.124a11.327 11.327 0 0 0 1.304.061c.224 0 .45-.006.678-.018a13.596 13.596 0 0 1-.87 2.095c-.022.001-.042.004-.063.004zm.004-2.782c-.41-.006-.803-.035-1.182-.079a7.722 7.722 0 0 1-.035-1.89c.387.044.789.056 1.209.056h.259c.314 0 .632.012.956-.012.025.219.044.451.046.683.004.372-.044.778-.135 1.208a16.09 16.09 0 0 1-1.118.034zm-.004-4.61c.106 0 .21.008.313.016a6.98 6.98 0 0 1 .786 1.997c-.368.025-.729.029-1.095.025-.386-.004-.76-.029-1.119-.07.15-.783.398-1.425.644-1.935.154-.02.311-.033.471-.033zm-1.34.254a8.621 8.621 0 0 0-.471 1.612c-.443-.078-.85-.175-1.223-.28a3.71 3.71 0 0 1 1.694-1.332zm-2.356 3.442c0-.525.112-1.025.31-1.481.44.131.932.254 1.479.346a7.813 7.813 0 0 0-.05.811c-.004.342.021.694.063 1.051a12.757 12.757 0 0 1-1.788-.467 2.793 2.793 0 0 1-.014-.26zm.151 1.044c.514.157 1.102.31 1.765.415.132.673.349 1.359.632 2.053a3.703 3.703 0 0 1-2.397-2.468zm4.435 2.54c.35-.737.62-1.424.795-2.054a8.165 8.165 0 0 0 1.856-.472 3.7 3.7 0 0 1-2.651 2.526zM7 4v1.25A5.499 5.499 0 0 1 8.621 6H12V4H7z"/></g><g id="icon_x5F_fg"><path class="st3" d="M5 2v3.026c.165-.015.331-.026.5-.026.52 0 1.022.078 1.5.214V4h5v2H8.651A5.494 5.494 0 0 1 11 10.5c0 .9-.222 1.749-.607 2.5H14V2H5z"/><path class="st3" d="M7.419 9.484A8.155 8.155 0 0 0 8.896 9.1c.19.442.297.93.297 1.443 0 .08-.008.159-.012.238a7.545 7.545 0 0 1-1.817.551c.07-.391.107-.762.104-1.111a7.556 7.556 0 0 0-.049-.737zM5.527 14.209c-.108 0-.215-.008-.321-.018a10.981 10.981 0 0 1-.719-2.106c.333.033.68.056 1.036.058.086.002.172.002.257.002.222 0 .446-.006.672-.017a13.522 13.522 0 0 1-.862 2.078c-.022 0-.042.003-.063.003zM5.531 11.449a11.528 11.528 0 0 1-1.172-.078 7.738 7.738 0 0 1-.078-1.144c.002-.245.019-.506.043-.735.384.043.783.051 1.199.051h.257c.312 0 .627.016.948-.008.025.217.043.45.045.68.004.368-.043.773-.133 1.198-.373.026-.738.038-1.109.036zM1.861 10.543c0-.522.111-1.018.308-1.468.437.129.924.251 1.466.343-.026.26-.046.523-.049.803-.004.34.021.689.063 1.043a12.58 12.58 0 0 1-1.773-.463 2.769 2.769 0 0 1-.015-.258zM2.011 11.578c.509.156 1.092.307 1.75.412.131.667.346 1.348.626 2.035a3.674 3.674 0 0 1-2.376-2.447zM6.41 14.098c.348-.731.615-1.412.789-2.037a8.064 8.064 0 0 0 1.84-.468 3.676 3.676 0 0 1-2.629 2.505zM8.58 8.459a7.23 7.23 0 0 1-1.255.319 7.571 7.571 0 0 0-.589-1.725c.757.262 1.4.759 1.844 1.406zM5.527 6.847c.106 0 .21.008.313.016a6.98 6.98 0 0 1 .786 1.997c-.368.025-.729.029-1.095.025-.386-.004-.76-.029-1.119-.07.15-.783.398-1.425.644-1.935.154-.02.311-.033.471-.033zM4.187 7.101a8.621 8.621 0 0 0-.471 1.612c-.443-.078-.85-.175-1.223-.28a3.71 3.71 0 0 1 1.694-1.332z"/></g></svg>