<svg xmlns="http://www.w3.org/2000/svg" viewBox="0 0 16 16"><style>.st0{opacity:0}.st0,.st1{fill:#f6f6f6}.st2{fill:#424242}.st3{fill:#f0eff1}</style><g id="outline"><path class="st0" d="M0 0h16v16H0z"/><path class="st1" d="M16 6c0 3.313-2.688 6-6 6a5.97 5.97 0 0 1-2-.349V16H1V7h3.09A5.998 5.998 0 0 1 4 6c0-3.313 2.688-6 6-6s6 2.687 6 6z"/></g><g id="icon_x5F_bg"><path class="st2" d="M2 8v7h5V8H2zm2 6H3v-1h1v1zm2 0H5v-1h1v1zm0-2H3V9h3v3z"/><path class="st2" d="M14.931 5.88a4.905 4.905 0 1 0-9.738.976c.009.049.027.095.036.144H8v.621c.031.005.057.013.088.018.144.734.38 1.483.689 2.24A4.059 4.059 0 0 1 8 9.521v.976c.386.176.793.315 1.226.387l.014.002a4.6 4.6 0 0 0 .369.049 4.515 4.515 0 0 0 .9-.002 4.912 4.912 0 0 0 4.43-4.886c0-.058-.008-.111-.008-.167zM13.36 3.773a7.91 7.91 0 0 1-1.369.348 8.21 8.21 0 0 0-.643-1.882 4.027 4.027 0 0 1 2.012 1.534zM9.517 2.05c.168-.021.339-.036.514-.036.115 0 .228.008.341.017.329.57.662 1.294.857 2.178-.4.028-.795.032-1.194.028-.422-.004-.83-.031-1.222-.076a8.505 8.505 0 0 1 .704-2.111zM6.012 6.33c-.007-.094-.014-.188-.014-.284 0-.573.122-1.119.338-1.615.479.143 1.016.277 1.612.377a9.272 9.272 0 0 0-.053.885 8.99 8.99 0 0 0 .068 1.146 13.917 13.917 0 0 1-1.951-.509zm2.043-2.28c-.484-.085-.928-.19-1.334-.306a4.043 4.043 0 0 1 1.847-1.453 9.377 9.377 0 0 0-.513 1.759zm.666 2.907a8.396 8.396 0 0 1-.061-1.258c.002-.27.021-.531.047-.782.422.048.86.083 1.318.083h.282c.344 0 .689-.01 1.043-.035.028.238.048.481.051.734.004.406-.049.843-.148 1.312-.41.027-.811.038-1.22.036a13.382 13.382 0 0 1-1.312-.09zm1.377 3.117c-.024.002-.044.004-.067.004-.12 0-.237-.009-.355-.019a12.027 12.027 0 0 1-.79-2.317c.366.037.748.062 1.14.064.094.002.189.002.282.002.244 0 .491-.006.739-.02-.214.697-.531 1.457-.949 2.286zm.903-.117c.382-.806.677-1.554.867-2.241a8.894 8.894 0 0 0 2.024-.515 4.037 4.037 0 0 1-2.891 2.756zm3.049-3.648a8.255 8.255 0 0 1-1.998.605c.077-.428.118-.837.114-1.221a8.052 8.052 0 0 0-.055-.811 8.847 8.847 0 0 0 1.625-.423c.208.486.326 1.023.326 1.587.001.088-.008.175-.012.263z"/></g><g id="icon_x5F_fg"><path class="st3" d="M4 13H3v1h1v-1zm2 1H5v-1h1v1zm0-2H3V9h3v3zM12.102 4.892a9.078 9.078 0 0 0 1.637-.42c.207.483.29 1.014.29 1.575 0 .087-.009.174-.013.26a8.23 8.23 0 0 1-1.981.601c.076-.426.117-.831.112-1.212a7.969 7.969 0 0 0-.045-.804zM10.03 10.046c-.119 0-.234-.006-.351-.017a12.407 12.407 0 0 1-.784-2.346c.364.036.746.106 1.135.109.094.002.763.013 1.009 0-.212.69-.527 1.427-.941 2.25-.024 0-.044.004-.068.004zM10.034 7.035c-.443-.005-.868-.069-1.278-.116a7.805 7.805 0 0 1-.079-1.2c.002-.267.018-.57.044-.819.419.047.855.056 1.31.056.094 0-.093 0 0 0 .34 0 .958.025 1.309 0 .028.236-.002.482 0 .733.005.401-.012.843-.109 1.307-.409.027-.792.041-1.197.039zM6.03 6.046c0-.569.122-1.146.336-1.636.476.141 1 .309 1.591.409a7.705 7.705 0 0 0-.045.79c-.004.371 0 .837.045 1.223a13.352 13.352 0 0 1-1.912-.504c-.007-.094-.015-.187-.015-.282zM10.993 9.925c.379-.799.671-1.56.86-2.242.621-.079 1.283-.164 2.007-.437-.402 1.347-1.495 2.338-2.867 2.679zM13.36 3.756c-.482.166-.935.26-1.369.327a7.97 7.97 0 0 0-.643-1.855c.827.286 1.528.82 2.012 1.528zM10.03 2.12c.115 0 .228-.009.341 0 .329.569.662 1.188.857 2.072-.4.028-.795.004-1.194 0-.421-.004-.811-.065-1.204-.109a7.34 7.34 0 0 1 .654-1.963c.168-.022.371 0 .546 0zM8.568 2.291a9.377 9.377 0 0 0-.513 1.759c-.484-.085-.928-.19-1.334-.306a4.043 4.043 0 0 1 1.847-1.453z"/></g></svg>