<svg xmlns="http://www.w3.org/2000/svg" viewBox="0 0 16 16"><style>.st0{opacity:0}.st0,.st1{fill:#f6f6f6}.st2{fill:#424242}.st3{fill:#f0eff1}</style><g id="outline"><path class="st0" d="M0 0h16v16H0z"/><path class="st1" d="M1 1h15v13H1z"/></g><path class="st2" d="M3 3H2V2h1v1zm0 1H2v1h1V4zm0 2H2v1h1V6zm0 2H2v1h1V8zm0 2H2v1h1v-1zm12-6h-1v1h1V4zm0 2h-1v1h1V6zm0 2h-1v1h1V8zm0 2h-1v1h1v-1zM5 2H4v1h1V2zm2 0H6v1h1V2zm2 0H8v1h1V2zm2 0h-1v1h1V2zm2 0h-1v1h1V2zm2 0h-1v1h1V2zM3 12H2v1h1v-1zm2 0H4v1h1v-1zm2 0H6v1h1v-1zm2 0H8v1h1v-1zm2 0h-1v1h1v-1zm2 0h-1v1h1v-1zm2 0h-1v1h1v-1zm-5-8v7H4V4h6zM9 5H5v5h4V5zM8 6H6v3h2V6zm5 0h-2v5h2V6z" id="icon_x5F_bg"/><path class="st3" d="M5 10h4V5H5v5zm1-4h2v3H6V6z" id="icon_x5F_fg"/></svg>