<svg xmlns="http://www.w3.org/2000/svg" viewBox="0 0 16 16"><style>.st0{opacity:0}.st0,.st1{fill:#f6f6f6}.st2{fill:#424242}.st3{fill:#f0eff1}</style><g id="outline"><path class="st0" d="M0 0h16v16H0z"/><path class="st1" d="M0 0v15h.529c.069.088.127.177.213.263.61.609 1.244.737 1.67.737.958 0 1.621-.614 1.744-.737L4.419 15H16V0H0z"/></g><g id="icon_x5F_bg"><circle class="st2" cx="13" cy="3" r="1"/><path class="st2" d="M1 3h1v1H1zM1 1h1v1H1zM3 1h1v1H3zM1 5h1v1H1zM14.5 5l1-1.768L14.5 1h-3l-1 2 1 2h3zM13 2a1 1 0 1 1 0 2 1 1 0 1 1 0-2zM9 1h1v1H9zM1 7h1v1H1zM5 1h1v1H5zM7 1h1v1H7zM14 13h1v1h-1zM12 13h1v1h-1zM14 9h1v1h-1zM14 11h1v1h-1zM14 7h1v1h-1zM10 13h1v1h-1zM6 13h1v1H6z"/><path class="st2" d="M12.09 5.915L9.449 8.556l-2-2 2.641-2.641a3.968 3.968 0 0 0-1.641-.359 4 4 0 0 0-4 4c0 .586.133 1.139.359 1.64l-3.359 3.36s-1 1 0 2 2 0 2 0l3.359-3.36c.502.227 1.055.36 1.641.36a4 4 0 0 0 4-4c0-.586-.133-1.139-.359-1.641zM8 13h1v1H8zM1 9h1v1H1z"/></g><g id="icon_x5F_fg"><circle class="st3" cx="13" cy="3" r="1"/><path class="st3" d="M9.449 7.142l1.336-1.336-.391-.781-1.531 1.531zM13.166 6c.17.508.283 1.025.283 1.556 0 2.757-2.243 5-5 5-.469 0-.933-.067-1.386-.201L6.418 13H14V6h-.834zM3.649 8.94a4.889 4.889 0 0 1-.2-1.385c0-2.757 2.243-5 5-5 .368 0 .732.046 1.091.128L9.882 2H2v8.591L3.649 8.94z"/></g></svg>