<svg xmlns="http://www.w3.org/2000/svg" viewBox="0 0 16 16"><style>.st0{opacity:0}.st0,.st1{fill:#f6f6f6}.st2{fill:#424242}.st3{fill:#f0eff1}</style><g id="outline"><path class="st0" d="M0 0h16v16H0z"/><path class="st0" d="M0 0h16v16H0z"/><path class="st1" d="M16 8A8 8 0 0 0 0 8v8h10v-.266c3.448-.889 6-4.008 6-7.734z"/></g><g id="icon_x5F_bg"><path class="st2" d="M5 8h1M1 8h2M1 15h8V9H1v6zm1-5h6v4H2v-4z"/><path class="st2" d="M3 11h2v2H3zM6 11h1v2H6z"/><path class="st2" d="M14.988 7.764C14.862 4.008 11.786 1 8 1a7 7 0 0 0-7 7h1.25c0-.819.174-1.597.482-2.303.686.202 1.448.394 2.3.539-.042.406-.072.821-.077 1.258-.002.167.008.337.014.506H6.06c-.005-.165-.017-.332-.015-.494.004-.387.031-.756.067-1.115.603.068 1.23.113 1.882.12l.403.003c.488 0 .982-.016 1.487-.055.038.34.066.686.07 1.047.003.158-.016.329-.026.494H10v4.159a17.13 17.13 0 0 0 .622-1.777 12.79 12.79 0 0 0 2.886-.734A5.748 5.748 0 0 1 10 13.379v1.315c2.89-.861 5-3.525 5-6.694 0-.08-.01-.157-.012-.236zM5.185 5.153a18.852 18.852 0 0 1-1.903-.435 5.757 5.757 0 0 1 2.635-2.073c-.29.723-.556 1.554-.732 2.508zm2.821.268c-.6-.007-1.181-.048-1.739-.11a12.133 12.133 0 0 1 1.001-3.009c.24-.031.483-.052.732-.052.165 0 .327.011.488.024.468.812.944 1.846 1.221 3.108-.571.039-1.133.044-1.703.039zm1.875-2.85a5.755 5.755 0 0 1 2.868 2.188c-.686.236-1.334.4-1.951.496a11.71 11.71 0 0 0-.917-2.684zm3.85 5.803c-1.038.452-1.972.722-2.848.863a9.32 9.32 0 0 0 .161-1.743c-.004-.4-.035-.782-.076-1.156a12.478 12.478 0 0 0 2.316-.604c.3.696.466 1.461.466 2.266 0 .126-.011.25-.019.374z"/></g><g id="icon_x5F_fg"><path class="st3" d="M10.969 6.338a12.478 12.478 0 0 0 2.316-.604c.299.696.465 1.461.465 2.266 0 .126-.011.25-.019.374-1.038.452-1.972.722-2.848.863a9.32 9.32 0 0 0 .161-1.743 11.3 11.3 0 0 0-.075-1.156zM12.749 4.76c-.686.236-1.334.4-1.951.496a11.703 11.703 0 0 0-.917-2.685 5.757 5.757 0 0 1 2.868 2.189zM8 2.25c.165 0 .327.011.488.024.468.812.935 1.846 1.212 3.108-.571.039-1.13.044-1.7.039-.6-.007-1.241-.048-1.8-.11.233-1.216.685-2.215 1.067-3.009.241-.031.484-.052.733-.052zM5.917 2.645c-.29.723-.556 1.554-.732 2.508a18.852 18.852 0 0 1-1.903-.435 5.768 5.768 0 0 1 2.635-2.073zM4.955 7.494c.005-.437.035-.852.077-1.258a20.105 20.105 0 0 1-2.3-.539A5.744 5.744 0 0 0 2.25 8h2.719c-.006-.169-.016-.339-.014-.506zM2 10v4h6v-4H2zm3 3H3v-2h2v2zm2 0H6v-2h1v2zM9.915 8c.015-.165.041-.336.04-.494a10.395 10.395 0 0 0-.07-1.047c-.505.039-.997.055-1.485.055-.135 0-.265-.002-.4-.003a18.67 18.67 0 0 1-1.888-.12c-.036.359-.063.728-.067 1.115L6.042 8h3.873zM10.622 10.382A17.13 17.13 0 0 1 10 12.159v1.22a5.75 5.75 0 0 0 3.508-3.731 12.79 12.79 0 0 1-2.886.734z"/></g></svg>