<svg xmlns="http://www.w3.org/2000/svg" viewBox="0 0 16 16"><style>.st0{opacity:0}.st0,.st1{fill:#f6f6f6}.st2{fill:#424242}.st3{fill:#f0eff1}</style><g id="outline"><path class="st0" d="M0 0h16v16H0z"/><path class="st1" d="M1 0h15v15H1z"/></g><g id="icon_x5F_bg"><path class="st2" d="M14.001 1h1v1h-1zM12 1h1v1h-1zM9.999 1h1v1h-1zM7.999 1h1v1h-1zM5.999 1h1v1h-1zM3.998 1h1v1h-1zM1.997 1h1v1h-1zM1.997 3h1v1h-1zM1.997 5h1v1h-1zM1.997 7h1v1h-1zM1.997 9h1v1h-1zM1.997 11h1v1h-1zM14.001 3h1v1h-1zM14.001 5h1v1h-1zM14.001 7h1v1h-1zM14.001 9h1v1h-1zM14.001 11h1v1h-1zM14.001 13h1v1h-1zM12 13h1v1h-1zM9.999 13h1v1h-1zM7.999 13h1v1h-1zM5.999 13h1v1h-1zM3.998 13h1v1h-1zM1.997 13h1v1h-1zM4 4v7h9V4H4zm8 6H5V5h7v5z"/><path class="st2" d="M6 7h5v1H6z"/></g><path class="st3" d="M5.001 10h7V5h-7v5zM6 7h5v1H6V7z" id="icon_x5F_fg"/></svg>