<svg xmlns="http://www.w3.org/2000/svg" viewBox="0 0 16 16"><style>.icon-canvas-transparent{opacity:0;fill:#f6f6f6}.icon-vs-out{fill:#f6f6f6}.icon-vs-bg{fill:#424242}.icon-vs-fg{fill:#f0eff1}.icon-folder{fill:#dcb67a}</style><path class="icon-canvas-transparent" d="M0 0h16v16H0z" id="canvas"/><path class="icon-vs-out" d="M6.597 0l1.007 2H9.4c.775 0 1.6.645 1.6 1.673v1.353c2.799.254 5 2.611 5 5.474 0 3.033-2.468 5.5-5.5 5.5S5 13.533 5 10.5c0-.169.011-.335.025-.5H1.6c-.17 0-.505-.028-.836-.219C.278 9.503 0 8.999 0 8.399V0h6.597z" id="outline"/><g id="iconBg"><path class="icon-folder" d="M1 1v7.399c0 .637.617.601.617.601H4V4h6v-.327C10 3.036 9.344 3 9.344 3H7v.025L5.981 1H1zm1 1h2.981l.5 1H2V2z"/><path class="icon-folder" d="M1 1v7.399c0 .637.617.601.617.601H4V4h6v-.327C10 3.036 9.344 3 9.344 3H7v.025L5.981 1H1zm1 1h2.981l.5 1H2V2z"/><path class="icon-vs-bg" d="M7 9.192v-.071l.017.017L7 9.192zm-.968.674h.8c-.026.179-.056.356-.056.543 0 .08.008.16.012.24a7.551 7.551 0 0 0 1.831.555 7.157 7.157 0 0 1-.078-.557l1.383 1.369c-.128-.003-.255-.003-.384-.01.196.638.487 1.335.87 2.095.021.001.041.004.062.004.109 0 .217-.008.324-.018.322-.717.57-1.43.725-2.124-.279.027-.571.041-.867.049l1.76-1.787-1.474-1.504c.217-.012.44-.017.648-.041a7.76 7.76 0 0 0-.645-1.934 3.652 3.652 0 0 0-.471-.033c-.106 0-.21.008-.312.016a7.577 7.577 0 0 0-.393.796C9.768 7.525 8.99 7.02 9 7c-.022.007 1 0 1 0V5.956c.157-.017.311-.047.473-.047a4.5 4.5 0 0 1 4.5 4.5 4.74 4.74 0 0 1-.065.73c0 .005 0 .008-.002.013a4.49 4.49 0 0 1-3.696 3.691l-.013.002a4.283 4.283 0 0 1-1.164.043 4.503 4.503 0 0 1-4.061-4.478c0-.053.008-.102.008-.152.005-.135.037-.261.052-.392zm5.781-2.899c.186.465.355 1 .471 1.613.443-.079.85-.175 1.223-.281a3.71 3.71 0 0 0-1.694-1.332zm2.356 3.442c0-.525-.112-1.025-.31-1.481-.44.131-.932.254-1.479.346.027.262.047.528.049.811.004.342-.021.694-.062 1.051a12.757 12.757 0 0 0 1.788-.467c.007-.086.014-.172.014-.26zm-.151 1.044a12.91 12.91 0 0 1-1.765.415 11.155 11.155 0 0 1-.632 2.053 3.706 3.706 0 0 0 2.397-2.468zm-4.436 2.54c-.35-.737-.62-1.424-.795-2.054a8.144 8.144 0 0 1-1.855-.472 3.698 3.698 0 0 0 2.65 2.526zM5 5v4h1V6.707L10.292 11l.708-.707L6.707 6H9V5H5z"/></g><path class="icon-vs-fg" d="M4.97 2l.5 1H2V2h2.97zm1.882 8c-.021.179-.045.356-.045.543 0 .08.008.159.012.238a7.538 7.538 0 0 0 1.816.551 6.523 6.523 0 0 1-.074-.532l-1.54-1.524c-.008.023-.013.046-.021.07V10h-.148zm2.696 2.143c.194.633.483 1.309.862 2.062.021.001.041.004.062.004.108 0 .215-.006.321-.016.32-.711.566-1.462.719-2.15-.27.027-.553.067-.84.085l-.381.387-.371-.367c-.145 0-.287-.002-.372-.005zm4.591-1.6c0-.522-.111-1.05-.308-1.5-.437.129-.917.283-1.458.375.025.26.038.445.041.725.004.34 0 .768-.041 1.121a12.232 12.232 0 0 0 1.752-.463c.007-.086.014-.171.014-.258zm-.151 1.1a12.93 12.93 0 0 1-1.75.4c-.131.667-.346 1.295-.626 1.982 1.142-.373 2.034-1.225 2.376-2.382zM9.59 14.098a12.963 12.963 0 0 1-.789-2.055c-.569-.072-1.176-.15-1.84-.4.369 1.234 1.371 2.143 2.629 2.455zm1.311-5.283c.227-.021.45-.046.671-.072a6.72 6.72 0 0 0-.6-1.8c-.154-.02-.34 0-.5 0-.106 0-.21-.008-.312 0a9.614 9.614 0 0 0-.383.726l1.124 1.146zm.912-1.714c.186.465.355 1 .471 1.613.443-.079.85-.175 1.223-.281a3.71 3.71 0 0 0-1.694-1.332z" id="iconFg"/></svg>