<svg xmlns="http://www.w3.org/2000/svg" viewBox="0 0 16 16"><style>.st0{opacity:0}.st0,.st1{fill:#f6f6f6}.st2{fill:#424242}.st3{fill:#f0eff1}</style><g id="outline"><path class="st0" d="M0 0h16v16H0z"/><path class="st1" d="M6 0v5.036C6 5.021 5.669 5 5.5 5a5.499 5.499 0 0 0-5.499 5.5 5.5 5.5 0 0 0 5.5 5.5c.169 0 .499-.023.499-.039V16h10V0H6z"/></g><g id="icon_x5F_bg"><path class="st2" d="M7 1v4.135c2.276.616 3.971 2.625 4.053 5.101.006.081.014.133.014.186 0 .879-.224 1.7-.589 2.438a6.41 6.41 0 0 1-.154.311c-.055.094-.108.186-.168.275A5.488 5.488 0 0 1 8.685 15H15V1H7zm2 2h4v1H9V3zm0 3V5h4v1H9zm4.028 7h-1v-1h1v1z"/><path class="st2" d="M10.07 10.421c0-.053-.008-.102-.008-.152a4.495 4.495 0 0 0-4.491-4.348 4.5 4.5 0 0 0-4.5 4.5 4.74 4.74 0 0 0 .067.743 4.49 4.49 0 0 0 3.696 3.691l.013.002a4.143 4.143 0 0 0 1.164.043 4.502 4.502 0 0 0 4.059-4.479zM7.479 9.354a8.263 8.263 0 0 0 1.49-.388c.189.445.298.938.298 1.455 0 .08-.008.16-.012.24a7.551 7.551 0 0 1-1.831.555 6.13 6.13 0 0 0 .105-1.119 7.633 7.633 0 0 0-.05-.743zm1.145-1.017a7.185 7.185 0 0 1-1.255.319 7.523 7.523 0 0 0-.589-1.725 3.697 3.697 0 0 1 1.844 1.406zm-3.053 5.78c-.109 0-.217-.008-.324-.018-.322-.717-.57-1.43-.725-2.124a11.327 11.327 0 0 0 1.304.061c.224 0 .45-.006.678-.017a13.596 13.596 0 0 1-.87 2.095c-.022 0-.041.003-.063.003zm.004-2.782c-.41-.006-.824-.035-1.204-.079a7.787 7.787 0 0 1-.056-1.153c.002-.247.02-.507.043-.737.387.044.789.056 1.209.056h.259c.314 0 .632.012.956-.012.025.219.044.451.046.683.004.372-.044.778-.135 1.208a16.09 16.09 0 0 1-1.118.034zm-.004-4.61c.106 0 .21.008.313.016.302.521.607 1.186.786 1.996-.367.026-.729.03-1.095.026-.386-.004-.76-.029-1.119-.07.15-.782.398-1.424.644-1.935.155-.02.311-.033.471-.033zm-1.339.254a8.473 8.473 0 0 0-.471 1.612 12.369 12.369 0 0 1-1.223-.28 3.7 3.7 0 0 1 1.694-1.332zm-2.357 3.442a3.7 3.7 0 0 1 .31-1.48c.44.131.932.254 1.478.346a8.726 8.726 0 0 0-.049.811c-.004.342.021.694.063 1.051a12.757 12.757 0 0 1-1.788-.467c-.007-.087-.014-.173-.014-.261zm.151 1.044c.513.157 1.101.31 1.765.415.132.673.349 1.359.631 2.053a3.706 3.706 0 0 1-2.396-2.468zm4.436 2.54c.35-.737.62-1.424.795-2.054a8.124 8.124 0 0 0 1.854-.472 3.699 3.699 0 0 1-2.649 2.526z"/></g><g id="icon_x5F_fg"><path class="st3" d="M7.436 9.362a8.29 8.29 0 0 0 1.5-.385c.189.442.266.93.266 1.443 0 .08-.008.159-.012.238a7.525 7.525 0 0 1-1.816.551 6.042 6.042 0 0 0 .062-1.847zM5.536 14.087c-.108 0-.215-.006-.321-.016a11.36 11.36 0 0 1-.719-2.15c.333.033.684.098 1.04.1.086.002.699.012.925 0-.194.633-.483 1.309-.862 2.063-.022 0-.042.003-.063.003zM5.54 11.327c-.406-.005-.796-.063-1.172-.106a7.042 7.042 0 0 1-.072-1.1c.002-.245.017-.522.04-.751.384.043.784.051 1.2.051.086 0-.085 0 0 0 .312 0 .879.023 1.2 0 .025.217-.002.442 0 .672.004.368-.011.772-.101 1.198-.373.025-.724.038-1.095.036zM1.87 10.421c0-.521.111-1.05.308-1.5.436.129.916.283 1.458.375a7.29 7.29 0 0 0-.042.725c-.004.34 0 .768.042 1.121a12.232 12.232 0 0 1-1.752-.463 2.768 2.768 0 0 1-.014-.258zM2.02 11.521a12.93 12.93 0 0 0 1.75.4c.131.667.346 1.295.626 1.982-1.142-.373-2.034-1.225-2.376-2.382zM6.418 13.976a13 13 0 0 0 .789-2.055c.569-.072 1.176-.15 1.839-.4-.368 1.234-1.37 2.143-2.628 2.455zM8.588 8.321a7.142 7.142 0 0 1-1.255.3 7.302 7.302 0 0 0-.588-1.7c.756.262 1.4.752 1.843 1.4zM5.536 6.821c.106 0 .21-.008.313 0 .302.522.607 1.089.786 1.9-.367.025-.729.004-1.095 0-.386-.004-.744-.059-1.104-.1.15-.782.354-1.29.6-1.8.154-.02.339 0 .5 0zM4.196 6.979a8.475 8.475 0 0 0-.47 1.612 12.369 12.369 0 0 1-1.223-.28 3.692 3.692 0 0 1 1.693-1.332zM9.028 3h4v1h-4zM9.028 5h4v1h-4zM12.028 12h1v1h-1z"/></g></svg>