<svg xmlns="http://www.w3.org/2000/svg" viewBox="0 0 16 16"><style>.st0{opacity:0}.st0,.st1{fill:#f6f6f6}.st2{fill:#424242}.st3{fill:#f0eff1}</style><g id="outline"><path class="st0" d="M0 0h16v16H0z"/><path class="st1" d="M8 0A8 8 0 0 0 .354 10.359 3.991 3.991 0 0 0 0 11.992 4.007 4.007 0 0 0 4.008 16c.583 0 1.133-.131 1.633-.354A8 8 0 1 0 8 0z"/></g><g id="icon_x5F_bg"><path class="st2" d="M14.988 7.764C14.862 4.008 11.786 1 8 1a7 7 0 0 0-7 7 6.692 6.692 0 0 0 .1 1.136l.002.018c.004.024.013.046.018.07a4.013 4.013 0 0 1 1.15-.828c-.009-.131-.02-.262-.02-.396 0-.819.174-1.597.482-2.303.686.202 1.448.394 2.3.539-.042.406-.072.821-.077 1.258a9.97 9.97 0 0 0 .018.621c.401.1.777.259 1.12.47a11.636 11.636 0 0 1-.048-1.079c.004-.387.031-.756.067-1.115.603.068 1.23.113 1.882.12l.403.003c.488 0 .982-.016 1.487-.055.038.34.066.686.07 1.047a8.673 8.673 0 0 1-.209 1.869c-.584.041-1.158.049-1.74.046-.334-.004-.661-.02-.982-.042.288.331.53.702.697 1.116.093.003.18.015.274.016a22.04 22.04 0 0 0 1.457-.025c-.306.991-.759 2.077-1.353 3.26-.033 0-.065.004-.098.004-.133 0-.265-.01-.396-.019a3.99 3.99 0 0 1-.828 1.149c.026.005.05.015.076.019l.021.003A7.065 7.065 0 0 0 8 15a7 7 0 0 0 7-7c0-.08-.01-.157-.012-.236zM5.185 5.153a18.852 18.852 0 0 1-1.903-.435 5.757 5.757 0 0 1 2.635-2.073c-.29.723-.556 1.554-.732 2.508zm2.821.268c-.6-.007-1.181-.048-1.739-.11a12.133 12.133 0 0 1 1.001-3.009c.24-.031.483-.052.732-.052.165 0 .327.011.488.024.468.812.944 1.846 1.221 3.108-.571.039-1.133.044-1.703.039zm1.875-2.85a5.755 5.755 0 0 1 2.868 2.188c-.686.236-1.334.4-1.951.496a11.71 11.71 0 0 0-.917-2.684zm-.497 11.004c.546-1.146.967-2.215 1.238-3.193a12.79 12.79 0 0 0 2.886-.734 5.753 5.753 0 0 1-4.124 3.927zm4.347-5.201c-1.038.452-1.972.722-2.848.863a9.32 9.32 0 0 0 .161-1.743c-.004-.4-.035-.782-.076-1.156a12.478 12.478 0 0 0 2.316-.604c.3.696.466 1.461.466 2.266 0 .126-.011.25-.019.374z"/><path class="st2" d="M2.336 9.505A3.001 3.001 0 0 1 7 12a2.99 2.99 0 0 1-.506 1.664l-1.678-1.119A.972.972 0 0 0 5 12a1 1 0 0 0-1-1 .972.972 0 0 0-.545.184L2.336 9.505zm2.209 3.311A.972.972 0 0 1 4 13a1 1 0 0 1-1-1c0-.205.077-.386.184-.545l-1.679-1.119A3.001 3.001 0 0 0 4 15a2.99 2.99 0 0 0 1.664-.506l-1.119-1.678z"/></g><g id="icon_x5F_fg"><path class="st3" d="M10.969 6.338a12.478 12.478 0 0 0 2.316-.604c.299.696.465 1.461.465 2.266 0 .126-.011.25-.019.374-1.038.452-1.972.722-2.848.863a9.32 9.32 0 0 0 .161-1.743 11.3 11.3 0 0 0-.075-1.156zM12.749 4.76c-.686.236-1.334.4-1.951.496a11.703 11.703 0 0 0-.917-2.685 5.757 5.757 0 0 1 2.868 2.189zM8.397 10.513c-.135 0-.269 0-.403-.002-.094-.001-.181-.013-.274-.016.187.463.295.967.295 1.497 0 .626-.156 1.21-.411 1.738.131.01.263.02.396.02.033 0 .065-.004.099-.005.594-1.183 1.047-2.269 1.353-3.26-.355.018-.707.028-1.055.028zM9.885 6.459c-.505.039-.996.055-1.485.055-.135 0-.266-.002-.4-.003a18.67 18.67 0 0 1-1.888-.12c-.036.359-.063.728-.067 1.115-.003.355-.005.703.007 1.056.359.214.678.481.953.793.331.036.668.062.995.066.582.003 1.116-.005 1.7-.046.141-.667.261-1.292.255-1.869a10.395 10.395 0 0 0-.07-1.047zM8 2.25c.165 0 .327.011.488.024.468.812.935 1.846 1.212 3.108-.571.039-1.13.044-1.7.039-.6-.007-1.241-.048-1.8-.11.233-1.216.685-2.215 1.067-3.009.241-.031.484-.052.733-.052zM5.917 2.645c-.29.723-.556 1.554-.732 2.508a18.852 18.852 0 0 1-1.903-.435 5.768 5.768 0 0 1 2.635-2.073zM4.008 7.984c.334 0 .654.053.965.13-.01-.208-.02-.416-.018-.621.005-.436.035-.851.077-1.257a20.105 20.105 0 0 1-2.3-.539A5.744 5.744 0 0 0 2.25 8c0 .134.011.265.02.396a3.964 3.964 0 0 1 1.738-.412zM9.384 13.575c.546-1.146.967-2.215 1.238-3.193a12.79 12.79 0 0 0 2.886-.734 5.753 5.753 0 0 1-4.124 3.927zM6.494 13.664l-1.678-1.119A.972.972 0 0 0 5 12a1 1 0 0 0-1-1 .972.972 0 0 0-.545.184L2.336 9.505c-.328.22-.611.503-.831.831l1.679 1.119A.972.972 0 0 0 3 12a1 1 0 0 0 1 1 .972.972 0 0 0 .545-.184l1.119 1.678-.017.01c.341-.225.632-.516.856-.856l-.009.016z"/></g></svg>