<svg xmlns="http://www.w3.org/2000/svg" viewBox="0 0 16 16"><style>.st0{opacity:0}.st0,.st1{fill:#f6f6f6}.st2{fill:#dcb67a}.st3{fill:#424242}.st4{fill:#f0eff1}</style><g id="outline"><path class="st0" d="M0 0h16v16H0z"/><path class="st1" d="M14 3h-3.607A5.503 5.503 0 0 0 5.5 0 5.508 5.508 0 0 0 0 5.5c0 1.173.371 2.259 1 3.152V9H0v1.196L2.323 16H14s.86-.021 1.43-.565c.343-.333.57-.818.57-1.435V5c0-1.303-1.005-2-2-2z"/></g><g id="icon_x5F_bg"><path class="st2" d="M14 4h-3.213c.092.323.156.656.188 1H14v9.984S15 15 15 14V5c0-1-1-1-1-1zM11 10H1l2 5h11z"/><path class="st3" d="M1.092 6.273A4.47 4.47 0 0 0 2.673 9h1.589a3.695 3.695 0 0 1-2.28-2.412c.514.156 1.102.309 1.765.414.128.656.34 1.323.612 1.998h.755a10.915 10.915 0 0 1-.635-1.902 11.327 11.327 0 0 0 1.304.061c.224 0 .45-.006.678-.018A13.539 13.539 0 0 1 5.699 9h.773c.32-.687.576-1.334.74-1.926a8.204 8.204 0 0 0 1.856-.472A3.698 3.698 0 0 1 6.816 9h1.571a4.479 4.479 0 0 0 1.64-3.457c0-.053-.008-.102-.008-.152a4.496 4.496 0 1 0-8.927.882zm7.833-2.185c.19.445.299.938.299 1.455 0 .08-.008.16-.012.24a7.551 7.551 0 0 1-1.831.555c.07-.393.108-.768.104-1.119a7.634 7.634 0 0 0-.05-.742c.467-.075.961-.2 1.49-.389zm-.345-.629a7.282 7.282 0 0 1-1.255.32 7.468 7.468 0 0 0-.589-1.726c.757.261 1.401.76 1.844 1.406zM5.057 1.88c.154-.02.311-.033.471-.033.106 0 .21.008.313.016a6.98 6.98 0 0 1 .786 1.997c-.368.025-.73.029-1.096.025-.386-.004-.76-.029-1.119-.07a7.866 7.866 0 0 1 .645-1.935zm-.743 2.608c.387.043.789.055 1.209.055h.259c.314 0 .632.012.956-.012.026.219.044.451.046.684.004.371-.044.777-.135 1.207-.376.025-.744.037-1.118.035-.41-.006-.802-.035-1.181-.078a7.884 7.884 0 0 1-.079-1.154c.002-.246.02-.506.043-.737zm-.126-2.386a8.535 8.535 0 0 0-.471 1.611c-.443-.078-.85-.174-1.223-.279a3.7 3.7 0 0 1 1.694-1.332zM2.141 4.063c.44.131.932.254 1.479.346a8.079 8.079 0 0 0-.05.81 8.39 8.39 0 0 0 .063 1.051 12.584 12.584 0 0 1-1.788-.467c-.007-.086-.014-.172-.014-.26a3.7 3.7 0 0 1 .31-1.48z"/></g><g id="icon_x5F_fg"><path class="st4" d="M7.42 4.484A8.064 8.064 0 0 0 8.896 4.1c.189.443.297.93.297 1.443 0 .08-.008.16-.012.238a7.467 7.467 0 0 1-1.816.551c.07-.391.107-.762.104-1.111a7.882 7.882 0 0 0-.049-.737zM5.531 6.449a11.247 11.247 0 0 1-1.172-.078 7.858 7.858 0 0 1-.078-1.142c.002-.246.02-.508.043-.736.384.043.783.051 1.199.051h.257c.312 0 .627.016.948-.008.025.217.043.451.045.68a5.63 5.63 0 0 1-.132 1.198c-.373.025-.739.037-1.11.035zM1.861 5.543c0-.521.111-1.018.308-1.467.437.129.924.25 1.466.342-.026.26-.046.523-.049.803-.004.34.021.689.062 1.043a12.48 12.48 0 0 1-1.773-.463c-.007-.086-.014-.17-.014-.258zM2.012 6.578c.509.156 1.092.307 1.75.412.131.668.346 1.348.626 2.035a3.67 3.67 0 0 1-2.376-2.447zM8.58 3.459a3.703 3.703 0 0 0-1.844-1.406c.235.492.451 1.064.589 1.727a7.382 7.382 0 0 0 1.255-.321zM6.626 3.859a6.992 6.992 0 0 0-.786-1.997 4.001 4.001 0 0 0-.313-.015c-.16 0-.316.014-.471.033a7.916 7.916 0 0 0-.644 1.934c.359.041.733.066 1.119.07.366.005.728.001 1.095-.025zM4.188 2.102a3.7 3.7 0 0 0-1.694 1.332c.373.105.779.201 1.223.279a8.535 8.535 0 0 1 .471-1.611zM10.975 5c.014.165.025.331.025.5 0 1.86-.931 3.504-2.348 4.5H11l3 5V5h-3.025zM5.685 9c.327-.672.592-1.3.768-1.873a12.71 12.71 0 0 1-.673.018c-.085 0-.171 0-.257-.002a11.142 11.142 0 0 1-1.036-.057A10.8 10.8 0 0 0 5.13 9h.555zM6.717 9a3.662 3.662 0 0 0 2.322-2.406 8.058 8.058 0 0 1-1.84.467A12.627 12.627 0 0 1 6.452 9h.265z"/></g></svg>