<svg xmlns="http://www.w3.org/2000/svg" viewBox="0 0 16 16"><style>.icon-canvas-transparent{opacity:0;fill:#f6f6f6}.icon-vs-out{fill:#f6f6f6}.icon-vs-bg{fill:#424242}.icon-vs-fg{fill:#f0eff1}</style><path class="icon-canvas-transparent" d="M16 16H0V0h16v16z" id="canvas"/><path class="icon-vs-out" d="M11.064 11.017c2.73-.267 4.792-2.472 4.936-5.182v-.62A5.465 5.465 0 0 0 10.527.043a5.512 5.512 0 0 0-5.15 3.613L5.251 4H2v3h1v.707l-3 4.666v3.102c.362.326.829.525 1.332.525h8.336a2 2 0 0 0 1.683-3.082l-1.218-1.894c.131.01.262.019.395.019.175 0 .349-.01.536-.026z" id="outline"/><path class="icon-vs-bg" d="M15.019 5.39a4.497 4.497 0 0 0-4.492-4.347 4.486 4.486 0 0 0-4.211 2.958H9v3h-.26l.007.001c.132.673.349 1.359.632 2.053a3.672 3.672 0 0 1-.745-.349l.745 1.169c.136.036.27.078.411.102l.013.002a4.143 4.143 0 0 0 1.164.044 4.503 4.503 0 0 0 4.061-4.479c-.001-.053-.009-.103-.009-.154zM13.58 3.459a7.185 7.185 0 0 1-1.255.319 7.554 7.554 0 0 0-.589-1.725 3.703 3.703 0 0 1 1.844 1.406zM10.057 1.88c.154-.02.311-.033.471-.033.106 0 .21.008.313.016.302.522.608 1.187.786 1.997-.367.025-.729.029-1.095.025-.386-.004-.76-.03-1.119-.071.15-.782.398-1.424.644-1.934zm-1.34 1.833c-.444-.078-.85-.175-1.222-.28a3.692 3.692 0 0 1 1.693-1.332 8.546 8.546 0 0 0-.471 1.612zm.61 2.587a6.896 6.896 0 0 1-.056-1.075 8.3 8.3 0 0 1 .043-.738c.387.044.789.056 1.209.056h.259c.314 0 .632.012.956-.012.025.219.044.452.046.683.004.372-.044.778-.135 1.208-.376.025-.744.037-1.118.035-.41-.006-.824-.113-1.204-.157zm1.263 2.935c-.021.002-.041.004-.063.004-.109 0-.217-.008-.324-.018a11.122 11.122 0 0 1-.725-2.124 11.327 11.327 0 0 0 1.304.061c.224 0 .45-.006.678-.018a13.556 13.556 0 0 1-.87 2.095zm.828-.108c.35-.738.62-1.424.795-2.054a8.165 8.165 0 0 0 1.856-.472 3.703 3.703 0 0 1-2.651 2.526zm2.794-3.344a7.538 7.538 0 0 1-1.831.555c.07-.393.108-.768.104-1.12a7.676 7.676 0 0 0-.05-.743 8.232 8.232 0 0 0 1.489-.388c.19.446.299.938.299 1.456.001.08-.007.16-.011.24zM7 8V6h1V5H3v1h1v2L.49 13.46A1 1 0 0 0 1.332 15h8.337a1 1 0 0 0 .841-1.541L7 8zm-3.724 3L5 8.292V6h1v2.291L7.724 11H3.276z" id="iconBg"/><path class="icon-vs-fg" d="M12.428 4.484a8.29 8.29 0 0 0 1.5-.385c.189.442.266.93.266 1.443 0 .08-.008.159-.012.238a7.538 7.538 0 0 1-1.816.551c.07-.391.108-.762.104-1.111a8.283 8.283 0 0 0-.042-.736zM10.59 9.206c.379-.754.668-1.43.862-2.063-.226.012-.839.002-.925 0-.356-.002-.707-.066-1.04-.1.152.688.398 1.439.719 2.151.106.01.213.016.321.016.022-.001.041-.004.063-.004zm1.037-2.793c.09-.426.104-.83.101-1.198-.002-.23-.002-.448-.028-.665-.321.023-.861-.007-1.173-.007-.085 0 .086-.002 0-.002-.416 0-.816.003-1.2-.04a8.456 8.456 0 0 0-.04.743c-.004.323.012.658.072 1.1.376.043.766.102 1.172.106.371.001.723-.012 1.096-.037zm2.412.23c-.664.25-1.27.328-1.84.4a13 13 0 0 1-.789 2.055c1.258-.312 2.26-1.221 2.629-2.455zm-2.303-4.6c.235.492.451 1.039.589 1.7a7.095 7.095 0 0 0 1.255-.3 3.686 3.686 0 0 0-1.844-1.4zm-1.709-.1a6.768 6.768 0 0 0-.6 1.8c.359.041.718.096 1.104.1.366.004.727.025 1.095 0-.179-.811-.484-1.378-.786-1.9-.102-.008-.206 0-.313 0-.16 0-.345-.02-.5 0zm-2.532 1.49c.372.105.779.202 1.223.281a8.465 8.465 0 0 1 .47-1.613 3.692 3.692 0 0 0-1.693 1.332zM5 6v2.291L3.276 11h4.447L6 8.292V6H5z" id="iconFg"/></svg>