<svg xmlns="http://www.w3.org/2000/svg" viewBox="0 0 16 16"><style>.icon-canvas-transparent{opacity:0;fill:#f6f6f6}.icon-vs-out{fill:#f6f6f6}.icon-vs-bg{fill:#424242}.icon-vs-fg{fill:#f0eff1}</style><path class="icon-canvas-transparent" d="M16 16H0V0h16v16z" id="canvas"/><path class="icon-vs-out" d="M15.424 11.959A2 2 0 0 1 13.668 13H6v2H2v-2H.009L0 9h2V7h3.525L7 4.707V4H6V1h7v3h-1v.706l3.351 5.212c.396.617.423 1.398.073 2.041z" id="outline"/><path class="icon-vs-bg" d="M14.51 10.459L11 5V3h1V2H7v1h1v2L6 8.111V9h2v3h5.668a1 1 0 0 0 .842-1.541zM7.276 8L9 5.291V3h1v2.291L11.724 8H7.276zM5 10h2v2H5v2H3v-2H1v-2h2V8h2v2z" id="iconBg"/><path class="icon-vs-fg" d="M7.276 8L9 5.291V3h1v2.291L11.724 8H7.276z" id="iconFg"/></svg>