<svg xmlns="http://www.w3.org/2000/svg" viewBox="0 0 16 16"><style>.st0{opacity:0}.st0,.st1{fill:#f6f6f6}.st2{fill:#424242}.st3{fill:#f0eff1}</style><g id="outline"><path class="st0" d="M0 0h16v16H0z"/><path class="st1" d="M16 6h-2.058A3.485 3.485 0 0 0 15 3.5C15 1.57 13.43 0 11.5 0S8 1.57 8 3.5c0 .98.407 1.864 1.058 2.5h-.406A5.464 5.464 0 0 0 5.5 5 5.507 5.507 0 0 0 0 10.5C0 13.533 2.468 16 5.5 16a5.501 5.501 0 0 0 4.892-3H16V6z"/></g><g id="icon_x5F_bg"><path class="st2" d="M9 3.5a2.5 2.5 0 1 1 5 0 2.5 2.5 0 0 1-5 0M13 7l-1.5 2L10 7h-.257a5.479 5.479 0 0 1 1.045 5H15V7h-2zM10.027 10.543c0-.053-.008-.102-.008-.152a4.496 4.496 0 1 0-8.925.895 4.49 4.49 0 0 0 3.696 3.691l.013.002a4.283 4.283 0 0 0 1.163.043 4.503 4.503 0 0 0 4.061-4.479zM7.436 9.476a8.07 8.07 0 0 0 1.489-.388c.19.445.299.938.299 1.455 0 .08-.008.16-.012.24a7.551 7.551 0 0 1-1.831.555c.07-.393.108-.768.104-1.119a7.967 7.967 0 0 0-.049-.743zM8.58 8.459a7.185 7.185 0 0 1-1.255.319 7.475 7.475 0 0 0-.589-1.725A3.703 3.703 0 0 1 8.58 8.459zm-3.053 5.78c-.109 0-.217-.008-.324-.018a11.03 11.03 0 0 1-.725-2.124 11.327 11.327 0 0 0 1.304.061c.224 0 .45-.006.678-.018a13.596 13.596 0 0 1-.87 2.095c-.022.001-.041.004-.063.004zm.004-2.782c-.41-.006-.825-.035-1.204-.079a7.787 7.787 0 0 1-.056-1.153c.002-.247.02-.507.043-.737.387.044.79.056 1.209.056h.259c.314 0 .632.012.956-.012.025.219.044.451.046.683.004.372-.044.778-.135 1.208a16.09 16.09 0 0 1-1.118.034zm-.004-4.61c.106 0 .21.008.313.016a6.98 6.98 0 0 1 .786 1.997c-.367.025-.729.029-1.095.025a10.874 10.874 0 0 1-1.119-.07 7.837 7.837 0 0 1 .645-1.935c.153-.02.311-.033.47-.033zm-1.339.254a8.59 8.59 0 0 0-.471 1.612 12.369 12.369 0 0 1-1.223-.28 3.7 3.7 0 0 1 1.694-1.332zm-2.357 3.442c0-.525.112-1.025.31-1.481.44.131.932.254 1.478.346a8.747 8.747 0 0 0-.049.811c-.004.342.021.694.063 1.051a12.757 12.757 0 0 1-1.788-.467c-.007-.086-.014-.172-.014-.26zm.151 1.044c.513.157 1.101.31 1.765.415.132.673.349 1.359.631 2.053a3.706 3.706 0 0 1-2.396-2.468zm4.436 2.54c.35-.737.62-1.424.795-2.054a8.144 8.144 0 0 0 1.855-.472 3.698 3.698 0 0 1-2.65 2.526z"/></g><g id="icon_x5F_fg"><path class="st3" d="M7.428 9.484a8.29 8.29 0 0 0 1.5-.385c.189.442.266.93.266 1.443 0 .08-.008.159-.012.238a7.538 7.538 0 0 1-1.816.551 6.042 6.042 0 0 0 .062-1.847zM5.527 14.209c-.108 0-.215-.006-.321-.016a11.36 11.36 0 0 1-.719-2.15c.333.033.684.098 1.04.1.086.002.699.012.925 0-.194.633-.483 1.309-.862 2.063-.022 0-.041.003-.063.003zM5.531 11.449c-.406-.005-.796-.063-1.172-.106a7.042 7.042 0 0 1-.072-1.1 8.62 8.62 0 0 1 .04-.751c.384.043.784.051 1.2.051.086 0-.085 0 0 0 .312 0 .879.023 1.2 0 .025.217-.002.442 0 .672.004.368-.011.773-.101 1.198a14.32 14.32 0 0 1-1.095.036zM1.861 10.543c0-.522.111-1.05.308-1.5.437.129.916.283 1.458.375a7.29 7.29 0 0 0-.042.725c-.004.34 0 .768.042 1.121a12.232 12.232 0 0 1-1.752-.463c-.007-.086-.014-.171-.014-.258zM2.012 11.643a12.93 12.93 0 0 0 1.75.4c.131.667.346 1.295.626 1.982-1.142-.373-2.034-1.225-2.376-2.382zM6.41 14.098c.348-.731.615-1.43.789-2.055.569-.072 1.176-.15 1.84-.4-.369 1.234-1.371 2.143-2.629 2.455zM8.58 8.443a6.968 6.968 0 0 1-1.255.3 7.331 7.331 0 0 0-.589-1.7 3.686 3.686 0 0 1 1.844 1.4zM5.527 6.943c.106 0 .21-.008.313 0 .302.522.607 1.089.786 1.9-.367.025-.729.004-1.095 0-.386-.004-.745-.059-1.104-.1.15-.782.354-1.29.6-1.8.154-.02.341 0 .5 0zM4.188 7.101a8.59 8.59 0 0 0-.471 1.612 12.369 12.369 0 0 1-1.223-.28 3.7 3.7 0 0 1 1.694-1.332z"/></g></svg>