<svg xmlns="http://www.w3.org/2000/svg" viewBox="0 0 16 16"><style>.st0{opacity:0}.st0,.st1{fill:#f6f6f6}.st2{fill:#424242}.st3{fill:#f0eff1}.st4{fill:#fc0}</style><g id="outline"><path class="st0" d="M0 0h16v16H0z"/><path class="st1" d="M16 13.759l-.965-1.947A8 8 0 1 0 8 16c.048 0 .094-.006.141-.007l.004.007h6.998L16 14.223v-.464z"/></g><path class="st2" d="M7.11 14.018l.28-.559c-.445-1.025-.801-2.045-1.022-3.04a18.417 18.417 0 0 0 2.029.094c.158 0 .319-.009.479-.013l.561-1.117c-.478.025-.953.04-1.432.038a17.426 17.426 0 0 1-1.837-.123 12.244 12.244 0 0 1-.123-1.792c.004-.387.031-.756.067-1.115.603.068 1.23.113 1.882.12l.403.003c.488 0 .982-.016 1.487-.055.038.34.066.686.07 1.047.003.308-.02.632-.061.966L10.634 7h.379c-.014-.221-.021-.448-.044-.662a12.478 12.478 0 0 0 2.316-.604c.299.696.465 1.461.465 2.266 0 .126-.011.25-.019.374-.113.05-.222.089-.333.134l1.07 2.16A6.944 6.944 0 0 0 15 8c0-.08-.01-.157-.012-.236C14.862 4.008 11.786 1 8 1a7 7 0 0 0-7 7 6.692 6.692 0 0 0 .1 1.136l.002.018a6.995 6.995 0 0 0 5.75 5.745l.021.003c.174.028.349.053.526.068.07.007.143.006.213.011l-.502-.963zm5.639-9.258c-.686.236-1.334.4-1.951.496a11.703 11.703 0 0 0-.917-2.685 5.757 5.757 0 0 1 2.868 2.189zM7.268 2.302c.24-.031.483-.052.732-.052.165 0 .327.011.488.024.468.812.944 1.846 1.221 3.108-.571.039-1.133.044-1.703.039-.6-.007-1.181-.048-1.739-.11a12.133 12.133 0 0 1 1.001-3.009zm-1.351.343c-.29.723-.556 1.554-.732 2.508a18.852 18.852 0 0 1-1.903-.435 5.768 5.768 0 0 1 2.635-2.073zM2.25 8c0-.819.174-1.597.482-2.303.686.202 1.448.394 2.3.539-.042.406-.072.821-.077 1.258a12.87 12.87 0 0 0 .099 1.637 19.297 19.297 0 0 1-2.783-.728C2.261 8.27 2.25 8.137 2.25 8zm.236 1.625c.798.244 1.712.479 2.744.644.206 1.047.542 2.116.981 3.193a5.758 5.758 0 0 1-3.725-3.837z" id="icon_x5F_bg"/><g id="icon_x5F_fg"><path class="st3" d="M12.651 7l.747 1.508c.111-.045.22-.084.333-.134.008-.124.019-.248.019-.374 0-.805-.166-1.57-.465-2.266-.822.296-1.59.49-2.316.604.023.214.03.441.044.662h1.638zM12.749 4.76c-.686.236-1.334.4-1.951.496a11.703 11.703 0 0 0-.917-2.685 5.757 5.757 0 0 1 2.868 2.189zM8.876 10.614c-.16.004-.321.013-.479.013-.135 0-.269 0-.403-.002-.56-.006-1.103-.04-1.626-.092.221.995.577 1.9 1.022 2.926l1.486-2.845zM9.436 9.277l.42-.838c.06-.361.103-.713.1-1.044-.004-.361-.032-.534-.07-.874-.506.04-.998.055-1.486.055-.135 0-.265-.002-.4-.003a18.67 18.67 0 0 1-1.888-.12c-.036.36-.063.556-.067.943-.006.583.062 1.134.146 1.744.59.069 1.173.164 1.809.171.491.002.953-.007 1.436-.034zM8 2.25c.165 0 .327.011.488.024.468.812.935 1.846 1.212 3.108-.571.039-1.13.044-1.7.039-.6-.007-1.241-.048-1.8-.11.233-1.216.685-2.215 1.067-3.009.241-.031.484-.052.733-.052zM5.917 2.645c-.29.723-.556 1.554-.732 2.508a18.852 18.852 0 0 1-1.903-.435 5.768 5.768 0 0 1 2.635-2.073zM2.25 8c0-.819.174-1.597.482-2.303.686.202 1.448.394 2.3.539-.042.406-.072.821-.077 1.258a12.87 12.87 0 0 0 .099 1.637 19.297 19.297 0 0 1-2.783-.728C2.261 8.27 2.25 8.137 2.25 8zM2.486 9.625c.798.244 1.712.479 2.744.644.206 1.047.542 2.116.981 3.193a5.758 5.758 0 0 1-3.725-3.837z"/></g><path class="st4" d="M12.031 8.016h-.781l-3.016 6L8.75 15h5.766L15 14l-2.969-5.984zM12 14h-.984v-1H12v1zm.016-2h-.984v-2h.984v2z" id="not_x5F_bg"/><path d="M12.016 12h-.984v-2h.984v2zM12 13h-.984v1H12v-1z" id="not_x5F_fg"/></svg>