<svg xmlns="http://www.w3.org/2000/svg" viewBox="0 0 16 16"><style>.st0{opacity:0;fill:#fff}.st1{fill:#f6f6f6}.st2{fill:#424242}.st3{fill:#f0eff1}</style><g id="outline"><path class="st0" d="M0 0h16v16H0z"/><path class="st1" d="M9 3c-.692 0-1.354.124-1.973.34a2.05 2.05 0 0 0-.887-.343L7.943.081H4.871l-.606.98a2.025 2.025 0 0 0-1.032-.9A2.386 2.386 0 0 0 2.35 0c-.335 0-.652.063-.943.188a2.17 2.17 0 0 0-.784.57 2.454 2.454 0 0 0-.47.835c-.102.3-.153.633-.153.991 0 .338.05.654.149.941.107.307.263.575.458.791.208.234.461.415.75.538.15.064.309.112.473.142L.022 7.919h3.072l.011-.018A6.03 6.03 0 0 0 3 9c0 3.309 2.691 6 6 6s6-2.691 6-6-2.691-6-6-6z"/></g><g id="icon_x5F_bg"><path class="st2" d="M9 4c-.44 0-.86.075-1.267.182.047.098.096.194.13.301.092.286.137.604.137.95 0 .201-.02.391-.053.573C7.965 6.005 7.982 6 8 6a2 2 0 1 1-2 2c0-.012.003-.022.003-.034-.115.016-.23.034-.349.034-.317 0-.619-.061-.898-.181a2.172 2.172 0 0 1-.502-.318C4.104 7.978 4 8.474 4 9a5 5 0 0 0 5 5 5 5 0 0 0 5-5 5 5 0 0 0-5-5z"/><path class="st2" d="M3.599 2.466c0 .247-.033.468-.101.663a1.45 1.45 0 0 1-.28.493c-.118.133-.26.234-.423.305-.164.07-.344.105-.538.105-.184 0-.353-.032-.505-.097a1.117 1.117 0 0 1-.398-.284 1.304 1.304 0 0 1-.26-.455A1.846 1.846 0 0 1 1 2.584c0-.251.033-.474.1-.67.066-.196.159-.363.277-.499.119-.136.262-.238.427-.31.164-.07.346-.105.546-.105.191 0 .363.03.517.091.154.061.284.153.393.275.109.123.192.275.251.458.058.184.088.398.088.642zm-.652.036c0-.163-.017-.303-.05-.419a.871.871 0 0 0-.135-.289.536.536 0 0 0-.443-.22.572.572 0 0 0-.479.243c-.12.164-.181.403-.181.717 0 .155.017.291.048.408a.846.846 0 0 0 .134.288.56.56 0 0 0 .462.228.548.548 0 0 0 .47-.244c.116-.162.174-.401.174-.712zm-.41 4.417h-.721l3.611-5.838h.721L2.537 6.919zM7 5.433c0 .247-.033.468-.102.663-.067.196-.161.36-.28.493a1.22 1.22 0 0 1-.425.306c-.165.07-.345.105-.539.105-.181 0-.348-.033-.503-.1a1.134 1.134 0 0 1-.396-.285 1.35 1.35 0 0 1-.261-.454 1.86 1.86 0 0 1-.094-.61c0-.253.033-.477.1-.674a1.42 1.42 0 0 1 .278-.496c.119-.135.261-.237.425-.308a1.39 1.39 0 0 1 .547-.105c.191 0 .364.03.518.091.153.061.284.153.393.275.107.122.191.274.251.458.059.184.088.396.088.641zm-.645.029c0-.164-.017-.304-.051-.42a.816.816 0 0 0-.14-.285.565.565 0 0 0-.445-.215.567.567 0 0 0-.479.244c-.12.162-.18.401-.18.716 0 .312.061.544.181.696.12.152.274.228.464.228a.562.562 0 0 0 .474-.243c.118-.164.176-.405.176-.721z"/></g><path class="st3" d="M8 6c-.018 0-.035.005-.053.005a2.697 2.697 0 0 1-.105.423c-.108.314-.27.596-.479.829a2.219 2.219 0 0 1-.771.555c-.188.08-.386.125-.588.154C6.003 7.978 6 7.988 6 8a2 2 0 1 0 2-2z" id="icon_x5F_fg"/></svg>