<svg xmlns="http://www.w3.org/2000/svg" viewBox="0 0 16 16"><style>.st0{opacity:0;fill:#fff}.st1{fill:#f6f6f6}.st2{fill:#424242}.st3{fill:#f0eff1}</style><g id="outline"><path class="st0" d="M0 0h16v16H0z"/><path class="st1" d="M16 6c0-3.309-2.691-6-6-6-.811 0-1.583.164-2.289.456l.232-.375H4.871l-.606.98A2.068 2.068 0 0 0 3.233.16 2.427 2.427 0 0 0 2.35 0c-.335 0-.652.063-.943.188a2.18 2.18 0 0 0-.784.57 2.46 2.46 0 0 0-.47.836 3.064 3.064 0 0 0-.153.99c0 .338.05.654.149.941.107.307.263.575.458.791.208.234.462.414.75.538.15.064.309.111.473.142L.022 7.919h3.072l.636-1.028c.051.09.115.167.176.247a5.762 5.762 0 0 0-.698.997l-.709-.01-.736 2.521h.664l-.646 2.452a1.653 1.653 0 0 0-.24-.017c-.515 0-.858.207-1.055.381A1.407 1.407 0 0 0 0 14.523c0 .439.2.838.561 1.119.299.238.697.358 1.182.358.603 0 1.149-.159 1.625-.472.448-.294.835-.732 1.153-1.311.084-.154.166-.331.248-.53.073.152.173.289.296.408a1.49 1.49 0 0 0 1.066.411c.294 0 .577-.061.849-.186.243-.113.49-.302.775-.587.03-.03.067-.067.108-.111.16.253.353.453.573.597.291.191.637.288 1.026.288.395 0 .776-.126 1.122-.364.37-.248.718-.631 1.063-1.168l.353-.551v-.463l-.35-.197C14.158 11.045 16 8.736 16 6zm-9.345 5.609a1.544 1.544 0 0 0-.506-.087c-.279 0-.54.067-.768.196l.2-.768.821-.16c.166.125.338.241.517.349l.037.118a13.47 13.47 0 0 1-.301.352z"/></g><g id="icon_x5F_bg"><path class="st2" d="M5.028 9.135c.186-.739.432-1.279.739-1.619.186-.213.367-.318.545-.318a.13.13 0 0 1 .087.029.103.103 0 0 1 .035.08c0 .028-.025.084-.076.166a.46.46 0 0 0-.074.231c0 .103.039.19.117.263a.423.423 0 0 0 .297.109.429.429 0 0 0 .323-.135.487.487 0 0 0 .132-.359.513.513 0 0 0-.196-.42C6.826 7.054 6.616 7 6.329 7c-.45 0-.858.128-1.224.385-.367.256-.714.68-1.044 1.273-.115.203-.223.335-.325.393-.103.059-.266.087-.49.084l-.149.511h.627l-.919 3.496c-.152.574-.257.928-.312 1.061a1.268 1.268 0 0 1-.355.499.331.331 0 0 1-.229.085.1.1 0 0 1-.064-.023l-.022-.03c0-.015.022-.044.068-.089.045-.045.068-.115.068-.207a.332.332 0 0 0-.109-.254c-.071-.068-.175-.102-.309-.102a.57.57 0 0 0-.394.132.4.4 0 0 0-.147.309c0 .129.06.24.181.335.119.095.306.142.562.142.404 0 .764-.102 1.077-.309.314-.205.587-.523.822-.95.232-.429.474-1.12.72-2.075l.527-2.02h.634l.158-.512h-.653z"/><path class="st2" d="M10.486 9.028a.88.88 0 0 0-.416.103c-.13.068-.296.217-.497.443-.149.17-.372.465-.666.889-.117-.521-.317-1-.605-1.435H6.391v.746c.117-.022.527-.353.607-.353.157 0 .285.066.388.197.162.204.388.824.676 1.862-.226.295-.653.79-.737.88-.138.146-.253.24-.342.283a.484.484 0 0 1-.234.054c-.065 0-.175-.034-.324-.106a.694.694 0 0 0-.274-.069.522.522 0 0 0-.379.146.482.482 0 0 0-.147.367c0 .139.045.252.138.342.09.086.215.13.371.13.149 0 .291-.03.423-.091.132-.063.297-.192.497-.393.2-.199.748-.818 1.099-1.253.135.413.396 1.019.494 1.206.099.187.212.322.34.406a.868.868 0 0 0 .479.124.982.982 0 0 0 .566-.196c.252-.168.511-.461.775-.875l-.161-.091c-.182.243-.315.398-.401.459a.36.36 0 0 1-.204.058c-.092 0-.184-.058-.274-.173-.153-.191-.499-1.026-.754-1.901.228-.392.42-.646.575-.766a.584.584 0 0 1 .361-.131c.047 0 .135.016.258.049.126.033.235.051.331.051a.453.453 0 0 0 .332-.133.47.47 0 0 0 .13-.343.471.471 0 0 0-.132-.354c-.088-.089-.216-.132-.382-.132z"/><path class="st2" d="M10 1a4.983 4.983 0 0 0-3.527 1.457l-.333.539c.173.026.339.07.495.133.301.12.559.301.771.537.02.023.034.051.052.074C7.825 3.292 8.375 3 9 3a2 2 0 0 1 0 4c-.463 0-.883-.167-1.222-.431l-.007.016c.239.273.382.614.382.997 0 .166-.022.315-.061.446h.748l.343.519a1.892 1.892 0 0 1 1.304-.519c.55 0 .895.23 1.089.424.19.188.424.529.424 1.062 0 .408-.146.772-.423 1.049-.124.125-.269.22-.427.291A4.992 4.992 0 0 0 15 6a5 5 0 0 0-5-5zM2.537 6.919l3.611-5.838h-.72L1.816 6.919zM1.354 3.651c.11.124.243.218.397.283.153.066.322.098.506.098.194 0 .374-.035.538-.105.163-.071.305-.172.423-.305a1.45 1.45 0 0 0 .28-.493c.067-.195.101-.416.101-.663 0-.244-.029-.458-.088-.642a1.27 1.27 0 0 0-.251-.458 1.022 1.022 0 0 0-.394-.275A1.383 1.383 0 0 0 2.35 1c-.2 0-.382.035-.546.105a1.18 1.18 0 0 0-.427.31 1.468 1.468 0 0 0-.277.499c-.067.196-.1.419-.1.67 0 .228.031.432.094.612.062.18.149.332.26.455zm.487-1.834a.57.57 0 0 1 .479-.243.529.529 0 0 1 .442.22.871.871 0 0 1 .135.289c.033.116.05.256.05.419 0 .312-.059.55-.175.712a.546.546 0 0 1-.469.244.565.565 0 0 1-.462-.228.846.846 0 0 1-.134-.288 1.597 1.597 0 0 1-.048-.408c0-.314.061-.553.182-.717z"/><path class="st2" d="M4.5 4.877c-.066.197-.1.421-.1.674 0 .228.031.432.094.61.063.18.15.331.261.454.111.124.243.218.396.285.155.067.322.1.503.1.193 0 .374-.035.539-.105.164-.071.306-.173.425-.306s.213-.297.28-.493C6.967 5.901 7 5.68 7 5.433a2.1 2.1 0 0 0-.088-.641 1.291 1.291 0 0 0-.251-.458 1.034 1.034 0 0 0-.393-.275 1.397 1.397 0 0 0-.518-.091 1.39 1.39 0 0 0-.547.105c-.164.07-.306.173-.425.308a1.42 1.42 0 0 0-.278.496zm.74-.091a.566.566 0 0 1 .479-.244.565.565 0 0 1 .445.215.835.835 0 0 1 .141.285c.034.116.051.256.051.42 0 .316-.059.557-.178.721a.561.561 0 0 1-.474.243.563.563 0 0 1-.464-.228c-.12-.152-.18-.385-.18-.696 0-.315.06-.554.18-.716z"/></g><path class="st3" d="M9 3c-.625 0-1.175.292-1.542.74.175.217.314.462.405.743.092.287.137.604.137.95 0 .362-.053.696-.158.995-.018.051-.045.094-.066.144C8.116 6.836 8.537 7 9 7a2 2 0 0 0 0-4z" id="icon_x5F_fg"/></svg>