<svg xmlns="http://www.w3.org/2000/svg" width="16" height="16"><style type="text/css">.icon-canvas-transparent{opacity:0;fill:#F6F6F6;} .icon-vs-out{fill:#F6F6F6;} .icon-vs-bg{fill:#424242;} .icon-vs-fg{fill:#F0EFF1;}</style><path class="icon-canvas-transparent" d="M16 16h-16v-16h16v16z" id="canvas"/><path class="icon-vs-out" d="M12.618 7c.84-.733 1.382-1.799 1.382-2.999 0-2.207-1.794-4.001-4-4.001s-4 1.794-4 4.001c0 1.2.543 2.266 1.382 2.999h-2.991l.029.023c-2.443.04-4.42 2.033-4.42 4.485 0 2.459 1.988 4.459 4.441 4.487l-.006.005h11.565v-9h-3.382z" id="outline"/><path class="icon-vs-bg" d="M7 4.001c0-1.657 1.343-3.001 3-3.001 1.654 0 3 1.344 3 3.001 0 1.656-1.346 2.999-3 2.999-1.657 0-3-1.343-3-2.999zm8 3.999h-3l-2 3-2-3h-.736c1.04.824 1.721 2.082 1.721 3.508 0 1.417-.673 2.668-1.702 3.492h7.717v-7z" id="iconBg"/><path class="icon-vs-bg" d="M4.492 8.016c-1.929 0-3.492 1.564-3.492 3.492 0 1.927 1.563 3.492 3.492 3.492s3.492-1.565 3.492-3.492c0-1.928-1.563-3.492-3.492-3.492zm.492 5.984h-1v-1h1v1zm1-3c0 .551-.449 1-1 1v.5h-1v-.5c0-.551.449-1 1-1v-1c-.08-.044-.253-.102-.5-.102-.248 0-.42.058-.5.102v1h-1v-1c0-.58.631-1 1.5-1s1.5.42 1.5 1v1z" id="notificationBg"/><path class="icon-vs-fg" d="M4.984 12.5h-1v-.5c0-.551.449-1 1-1v-1c-.08-.044-.252-.102-.5-.102s-.42.058-.5.102v1h-1v-1c0-.58.631-1 1.5-1s1.5.42 1.5 1v1c0 .551-.449 1-1 1v.5zm0 .5h-1v1h1v-1z" id="notificationFg"/></svg>