<svg xmlns="http://www.w3.org/2000/svg" viewBox="0 0 16 16"><style>.st0{opacity:0}.st0,.st1{fill:#f6f6f6}.st2{fill:#424242}.st3{fill:#f0eff1}</style><path class="st0" d="M0 0h16v16H0z" id="outline"/><g id="icon_x5F_bg"><path class="st1" d="M16 0v12h-2v3H2v-3H0V0h16z"/><path class="st2" d="M15 11V1H1v10h5v2H3v1h10v-1h-3v-2h5zM2 10V2h12v8H2z"/><path class="st2" d="M12 6c0-.047-.007-.09-.007-.135a3.997 3.997 0 1 0-7.975.481 3.392 3.392 0 0 0 .042.314 3.991 3.991 0 0 0 3.285 3.281l.011.001c.1.018.2.031.301.04a3.548 3.548 0 0 0 .734-.001A4.002 4.002 0 0 0 12 6zM8.792 9.186c.31-.656.551-1.266.706-1.826a7.243 7.243 0 0 0 1.649-.42 3.29 3.29 0 0 1-2.355 2.246zm2.227-4.479c.17.395.266.833.266 1.293 0 .071-.007.143-.01.213a6.651 6.651 0 0 1-1.628.493c.063-.349.097-.682.093-.994a6.647 6.647 0 0 0-.044-.661 7.217 7.217 0 0 0 1.323-.344zm-.305-.559a6.513 6.513 0 0 1-1.116.284 6.621 6.621 0 0 0-.524-1.534 3.294 3.294 0 0 1 1.64 1.25zM7.582 2.744A3.37 3.37 0 0 1 8 2.714c.095 0 .186.007.278.014.268.464.54 1.055.699 1.775-.327.023-.648.026-.974.023a9.366 9.366 0 0 1-.994-.063 6.944 6.944 0 0 1 .573-1.719zm-.66 2.318c.344.039.702.05 1.075.05h.23c.279 0 .562.01.85-.011.022.194.039.401.041.607.004.331-.039.692-.12 1.074-.335.022-.662.032-.995.031a10.742 10.742 0 0 1-1.07-.07 7.02 7.02 0 0 1-.05-1.026c.002-.219.017-.45.039-.655zM6.81 2.94a7.563 7.563 0 0 0-.419 1.433 10.777 10.777 0 0 1-1.087-.249c.37-.531.894-.946 1.506-1.184zM4.714 6c0-.467.1-.912.276-1.316.391.116.828.226 1.314.307-.024.233-.041.47-.044.721-.003.304.02.617.056.934a11.336 11.336 0 0 1-1.589-.415c-.006-.077-.013-.153-.013-.231zm.135.928c.456.14.978.275 1.568.369.117.598.31 1.208.561 1.824a3.29 3.29 0 0 1-2.129-2.193zM8 9.285a3.05 3.05 0 0 1-.288-.016 9.65 9.65 0 0 1-.644-1.888c.298.03.609.05.929.052l.23.001c.199 0 .4-.005.602-.016a12.117 12.117 0 0 1-.773 1.864c-.019.001-.037.003-.056.003z"/></g><g id="icon_x5F_fg"><path class="st3" d="M7.356 9.942l-.011-.001A3.991 3.991 0 0 1 4.06 6.66c-.002-.005-.002-.007-.002-.012a3.392 3.392 0 0 1-.04-.303A3.573 3.573 0 0 1 4 6a4 4 0 0 1 4-4H2v8h6c-.115 0-.23-.007-.343-.018a3.062 3.062 0 0 1-.301-.04z"/><path class="st3" d="M8.977 4.503a6.213 6.213 0 0 0-.699-1.775c-.092-.007-.183-.014-.278-.014-.142 0-.282.012-.418.03a6.944 6.944 0 0 0-.573 1.719c.32.037.652.06.994.063.326.003.647 0 .974-.023zM10.714 4.148a3.294 3.294 0 0 0-1.64-1.25c.21.438.401.945.524 1.534a6.513 6.513 0 0 0 1.116-.284zM8.003 6.813c.333.002.66-.009.994-.031.081-.382.124-.743.12-1.074a5.673 5.673 0 0 0-.041-.607c-.288.021-.57.011-.85.011h-.23c-.373 0-.731-.011-1.075-.05a7.257 7.257 0 0 0-.038.655 7 7 0 0 0 .05 1.025c.338.039.706.065 1.07.071zM9.74 5.712c.004.313-.03.645-.093.995.5-.08 1.034-.234 1.628-.493.003-.071.01-.142.01-.213 0-.46-.096-.898-.266-1.293-.469.168-.908.28-1.323.345.023.212.042.429.044.659zM8.792 9.186a3.289 3.289 0 0 0 2.356-2.245 7.322 7.322 0 0 1-1.649.42 11.745 11.745 0 0 1-.707 1.825zM6.81 2.94a3.291 3.291 0 0 0-1.506 1.184c.331.094.692.18 1.087.249.102-.544.253-1.02.419-1.433zM8.227 7.436l-.23-.001c-.319-.002-.63-.023-.929-.052.137.617.357 1.251.644 1.888.095.007.191.014.288.014.019 0 .037-.002.056-.003.34-.675.599-1.295.773-1.862-.202.011-.404.016-.602.016z"/><path class="st3" d="M8 2a3.997 3.997 0 0 1 3.993 3.865c0 .045.007.088.007.135a4.002 4.002 0 0 1-4 4h6V2H8zM6.26 5.712c.003-.251.02-.488.044-.721a10.884 10.884 0 0 1-1.314-.307A3.289 3.289 0 0 0 4.714 6c0 .078.006.154.012.231.445.149.975.303 1.59.415a7.275 7.275 0 0 1-.056-.934zM4.849 6.928a3.287 3.287 0 0 0 2.129 2.193 9.899 9.899 0 0 1-.56-1.824 11.455 11.455 0 0 1-1.569-.369z"/></g></svg>