<svg xmlns="http://www.w3.org/2000/svg" viewBox="0 0 16 16"><style>.st0{opacity:0}.st0,.st1{fill:#f6f6f6}.st2{fill:#424242}.st3{fill:#f0eff1}</style><g id="outline"><path class="st0" d="M0 0h16v16H0z"/><path class="st1" d="M15 10.991V6.994h-2.276a4.487 4.487 0 0 0-1.43-1.998H12V0H4.989v4.996h.717a4.502 4.502 0 0 0-1.43 1.998H2v3.997H1V16h6v-3h3v3h6v-5.009h-1z"/></g><path class="st2" d="M14 12V8h-2.051A3.48 3.48 0 0 0 9 5.05V4h2V1H6v3h2v1.05A3.48 3.48 0 0 0 5.051 8H3v4H2v3h4v-3H4V9h1.051A3.49 3.49 0 0 0 8.5 12a3.489 3.489 0 0 0 3.449-3H13v3h-2v3h4v-3h-1zm-5.5-1C7.122 11 6 9.879 6 8.5S7.122 6 8.5 6 11 7.121 11 8.5 9.878 11 8.5 11z" id="icon_x5F_bg"/><circle class="st3" cx="8.5" cy="8.5" r="2.5" id="icon_x5F_fg"/></svg>