<svg xmlns="http://www.w3.org/2000/svg" viewBox="0 0 16 16"><style>.st0{opacity:0}.st0,.st1{fill:#f6f6f6}.st2{fill:#424242}</style><g id="outline"><path class="st0" d="M0 0h16v16H0z"/><path class="st1" d="M15 11V7h-2.336A3.492 3.492 0 0 0 11 5.336V5h1V1H7v4h1v.336A3.497 3.497 0 0 0 6.336 7H5V4H0v3h1v1H0v3h3v4h5v-3.34a3.472 3.472 0 0 0 3 0V15h5v-4h-1z"/></g><g id="icon_x5F_bg"><path class="st2" d="M14 12V8h-2.051A2.502 2.502 0 0 0 10 6.05V4h1V2H8v2h1v2.05A2.502 2.502 0 0 0 7.051 8H5v4H4v2h3v-2H6V9h1.051a2.499 2.499 0 0 0 4.898 0H13v3h-1v2h3v-2h-1zm-4.5-2a1.5 1.5 0 1 1 .001-3.001A1.5 1.5 0 0 1 9.5 10zM1 5h3v1H1zM2 7h2v1H2zM1 9h3v1H1z"/></g></svg>