<svg xmlns="http://www.w3.org/2000/svg" viewBox="0 0 16 16"><style>.icon-canvas-transparent{opacity:0;fill:#f6f6f6}.icon-vs-out{fill:#f6f6f6}.icon-vs-bg{fill:#424242}.icon-vs-action-blue{fill:#00539c}</style><path class="icon-canvas-transparent" d="M16 16H0V0h16v16z" id="canvas"/><path class="icon-vs-out" d="M2 0v4h1.586L0 7.586v4.828l2-2V16h13V0H2zm4 12v-1.586L7.586 12H6zm5 0H8V7.586L4.414 4H11v8z" id="outline"/><path class="icon-vs-bg" d="M5 3H3V1h2v2z" id="iconBg"/><path class="icon-vs-action-blue" d="M7 1v2h5v10H5V8l2 2V8L4 5 1 8v2l2-2v7h11V1H7z" id="colorAction"/></svg>