<svg xmlns="http://www.w3.org/2000/svg" viewBox="0 0 16 16"><style>.icon-canvas-transparent{opacity:0;fill:#f6f6f6}.icon-vs-out{fill:#f6f6f6}.icon-vs-bg{fill:#424242}.icon-vs-fg{fill:#f0eff1}.icon-vs-action-orange{fill:#c27d1a}</style><path class="icon-canvas-transparent" d="M16 16H0V0h16v16z" id="canvas"/><path class="icon-vs-out" d="M16 15H0V1h16v14z" id="outline"/><path class="icon-vs-bg" d="M1 2v12h14V2H1zm13 11H2V5h12v8zm-7.999-2H3v-1h3.001v1zm0-3H3V7h3.001v1z" id="iconBg"/><path class="icon-vs-fg" d="M2 13h12V5H2v8zm5-7h5v2H7V6zm0 4h5v2H7v-2zM3 7h3.001v1H3V7zm0 3h3.001v1H3v-1z" id="iconFg"/><path class="icon-vs-action-orange" d="M12 12H7v-2h5v2zm0-6H7v2h5V6z" id="colorImportance"/></svg>