<svg xmlns="http://www.w3.org/2000/svg" viewBox="0 0 16 16"><style>.st0{opacity:0}.st0,.st1{fill:#f6f6f6}.st2{fill:#424242}.st3{fill:#f0eff1}</style><g id="outline"><path class="st0" d="M0 0h16v16H0z"/><path class="st1" d="M16 0H2v8h-.414L0 9.586v4.828L1.586 16h6.828L10 14.414V13h6z"/></g><g id="icon_x5F_bg"><path class="st2" d="M15 1v11h-5v-1h4V4H4v3h-.414L3 7.586V1z"/><circle class="st2" cx="5" cy="12" r="1"/><path class="st2" d="M8 9H7L6 8H4L3 9H2l-1 1v4l1 1h6l1-1v-4L8 9zm-3 5a2 2 0 1 1 .001-4.001A2 2 0 0 1 5 14zm3-3H7v-1h1v1z"/></g><g id="icon_x5F_fg"><path class="st3" d="M14 4v7h-4V9.586L8.414 8h-1l-1-1H4V4zM5 10a2 2 0 1 0 .001 4.001A2 2 0 0 0 5 10zm0 3a1 1 0 1 1 0-2 1 1 0 1 1 0 2zM7 10h1v1H7z"/></g></svg>