<svg xmlns="http://www.w3.org/2000/svg" viewBox="0 0 16 16"><style>.st0{opacity:0}.st0,.st1{fill:#f6f6f6}.st2{fill:#424242}.st3{fill:#f0eff1}.st4{fill:#fc0}</style><g id="outline"><path class="st0" d="M0 0h16v16H0z"/><path class="st1" d="M16 2H4v1H0v3h1v1H0v3h4v2h4l-.999 2L8 16h7l1-2-1-2h1z"/></g><g id="icon_x5F_bg"><path class="st2" d="M1 4h3v1H1zM2 6h2v1H2zM1 8h3v1H1zM9 10H6V5h8v5l.5 1h.5V3H5v8h3.5z"/></g><path class="st3" d="M10.5 7h2l1.5 3V5H5.999v5H9z" id="icon_x5F_fg"/><path class="st4" d="M11.891 8.016h-.781l-3.015 6L8.61 15h5.765l.484-1-2.968-5.984zM12 14h-1v-1h1v1zm0-2h-1v-2h1v2z" id="not_x5F_bg"/><path d="M12 12h-1v-2h1v2zm0 1h-1v1h1v-1z" id="not_x5F_fg"/></svg>