<svg xmlns="http://www.w3.org/2000/svg" viewBox="0 0 16 16"><style>.st0{opacity:0}.st0,.st1{fill:#f6f6f6}.st2{fill:#424242}.st3{fill:#f0eff1}</style><g id="outline"><path class="st0" d="M0 0h16v16H0z"/><path class="st1" d="M4 2v1H0v3h1v1H0v3h4v2h3.051c.252 2.247 2.136 4 4.449 4a4.495 4.495 0 0 0 4.495-4.45l.005.006V2H4z"/></g><g id="icon_x5F_bg"><path class="st2" d="M1 4h3v1H1zM2 6h2v1H2zM1 8h3v1H1zM7.276 10H6V5h8v2.76a4.5 4.5 0 0 1 1 .943V3H5v8h2.051c.039-.347.112-.682.225-1z"/></g><path class="st3" d="M11.5 7c.926 0 1.785.281 2.5.76V5H6v5h1.276c.62-1.744 2.268-3 4.224-3z" id="icon_x5F_fg"/><path class="st2" d="M11.5 8a3.5 3.5 0 1 0 .001 7.001A3.5 3.5 0 0 0 11.5 8zm1.5 5h-3v-3h3v3z" id="not_x5F_bg"/><path class="st3" d="M10 10h3v3h-3z" id="not_x5F_fg"/></svg>