<svg xmlns="http://www.w3.org/2000/svg" viewBox="0 0 16 16"><style>.st0{opacity:0}.st0,.st1{fill:#f6f6f6}.st2{fill:#424242}.st3{fill:#f0eff1}</style><g id="outline"><path class="st0" d="M0 0h16v16H0z"/><path class="st1" d="M16 6v6l-6 4-6-4v-1.422a5.025 5.025 0 0 1-2.002-1.606C.792 8.059 0 6.625 0 5c0-2.757 2.243-5 5-5 1.651 0 3.106.814 4.018 2.052.14.107.286.206.414.327L10 2l6 4z"/></g><path class="st2" d="M10 3.202l-.288.193c.114.335.19.684.231 1.047L10 4.404l3.746 2.498L11.5 8.399l-1-.667V4.737l-.5-.333-.057.037c.022.186.057.368.057.559a4.93 4.93 0 0 1-.5 2.14v.592l-.678.453a4.987 4.987 0 0 1-2.355 1.57L6 10.066v-.168A4.923 4.923 0 0 1 5 10v1.465l4.5 3 .5.333.5-.333 4.5-3v-4.93l-5-3.333zm-.5 10.061l-3.247-2.164L8.5 9.601l1 .667v2.995zm.5-3.864L9.401 9 10 8.601l.599.399-.599.399zm.5 3.864v-2.995l1-.667 2.246 1.498.254-.169-3.5 2.333zm3.5-3.197L12.401 9 14 7.934v2.132zM5 1a4 4 0 1 0 0 8 4 4 0 0 0 0-8zm2.97 3.706c-.548.133-1.216.263-1.962.321.071-.898.028-1.872-.132-2.881a2.984 2.984 0 0 1 2.094 2.56zM4.836 2.017c.201 1.092.244 2.123.157 3.042-.972-.022-1.988-.22-2.928-.676a2.996 2.996 0 0 1 2.771-2.366zM2.049 5.48c.922.374 1.882.55 2.802.582a7.904 7.904 0 0 1-.593 1.834A2.992 2.992 0 0 1 2.049 5.48zm3.284 2.486a9.054 9.054 0 0 0 .549-1.919 12.8 12.8 0 0 0 2.01-.294 2.987 2.987 0 0 1-2.559 2.213z" id="icon_x5F_bg"/><path class="st3" d="M4.258 7.896a2.984 2.984 0 0 1-1.122-.563l-.056-.046a2.99 2.99 0 0 1-.752-.95l-.016-.03a2.74 2.74 0 0 1-.142-.351c-.012-.035-.022-.069-.032-.103a2.894 2.894 0 0 1-.089-.373c.922.374 1.882.55 2.802.582a7.904 7.904 0 0 1-.593 1.834zm1.624-1.849a9.054 9.054 0 0 1-.549 1.919 2.989 2.989 0 0 0 2.56-2.214c-.585.131-1.26.249-2.011.295zm-.889-.988c.087-.919.044-1.95-.157-3.042a2.995 2.995 0 0 0-1.723.669c-.038.03-.076.06-.111.092a2.766 2.766 0 0 0-.371.401c-.06.077-.118.155-.17.238-.049.078-.09.161-.132.244-.037.073-.077.144-.108.22a2.936 2.936 0 0 0-.151.485l-.005.017c.94.456 1.956.654 2.928.676zm2.977-.353a2.984 2.984 0 0 0-2.094-2.56c.161 1.01.203 1.983.132 2.881a12.392 12.392 0 0 0 1.962-.321zm5.776 2.195L11.5 8.399l-1-.667V4.737M12.401 9L14 10.066V7.934L12.401 9zM6 10v.066l.117-.078C6.077 9.989 6.04 10 6 10zm7.746 1.099L11.5 9.601l-1 .667v2.995m-4.247-2.164L9.5 13.263v-2.995l-1-.667-2.247 1.498zM10 8.601L9.401 9l.599.399.599-.399L10 8.601z" id="icon_x5F_fg"/></svg>