<svg xmlns="http://www.w3.org/2000/svg" viewBox="0 0 16 16"><style>.st0{opacity:0;stroke:#000;stroke-miterlimit:10}.st0,.st1{fill:#f6f6f6}.st2{fill:#424242}</style><g id="outline"><path class="st0" d="M0 0h16v16H0z"/><path class="st1" d="M7 4V2S3.968 2.494 3.968.247L3.967 0 1.969.003s-.004.09-.001.246C1.942 1.103 1.374 2.51 0 2.533l.011.036L0 2.572v1.953c2.087-.261 2 2.459 2 2.459v1.015L2.02 8h1.957l.003-.001V8H4v1h3s.002-.894 0-1c.031-.938.859-1 1-1V5.014c-.248 0-1-.001-1-1.014z"/></g><g id="icon_x5F_bg"><path class="st2" d="M2.974 7.053s-.159-3.488 2.692-3.488l.004.001c-2.852 0-2.702-3.52-2.702-3.52S3.127 3.534.276 3.534l.003-.001c2.851 0 2.695 3.52 2.695 3.52zM5.684 8.261s-.095-2.059 1.589-2.059h.003c-1.685 0-1.596-2.079-1.596-2.079s.094 2.059-1.59 2.059h.002c1.684 0 1.592 2.079 1.592 2.079z"/></g></svg>