<svg xmlns="http://www.w3.org/2000/svg" viewBox="0 0 16 16"><style>.st0{opacity:0}.st0,.st1{fill:#f6f6f6}.st2{fill:#424242}</style><g id="outline"><path class="st0" d="M0 0h16v16H0z"/><path class="st1" d="M7.088 0H3.938S4.315 4.053 0 4.053V7s4.035-1 4.035 4h2.877C6.912 6.228 11 7 11 7V4.053C7.123 4.053 7.088 0 7.088 0z"/><path class="st1" d="M12.982 6h-2.264C10.719 6 11 8.776 9 8.776v1.662s2.018.176 2.018 2.561h1.965c0-2.667 2.018-2.75 2.018-2.75V8.776C12.737 8.776 12.982 6 12.982 6zM7.447 9H5.488S5.731 11.403 4 11.403v1.438C4 12.842 5.746 13 5.746 15h1.701C7.447 13 9 12.679 9 12.679v-1.275C7 11.403 7.447 9 7.447 9z"/></g><g id="icon_x5F_bg"><path class="st2" d="M5.449 11.013s-.25-5.482 4.23-5.482l.007.001C5.204 5.532 5.44 0 5.44 0s.25 5.481-4.231 5.481l.005-.001c4.482 0 4.235 5.533 4.235 5.533zM11.967 12.912s-.149-3.238 2.498-3.238h.003c-2.649 0-2.508-3.266-2.508-3.266s.147 3.235-2.498 3.235h.003c2.645 0 2.502 3.269 2.502 3.269zM6.735 14.254S6.631 12 8.465 12h.003C6.632 12 6.73 9.75 6.73 9.75S6.832 12 5 12h.002c1.832 0 1.733 2.254 1.733 2.254z"/></g></svg>