<svg xmlns="http://www.w3.org/2000/svg" viewBox="0 0 16 16"><style>.st0{opacity:0}.st0,.st1{fill:#f6f6f6}.st2{fill:#424242}</style><g id="outline"><path class="st0" d="M0 0h16v16H0z"/><path class="st1" d="M12.5 7C14.43 7 16 5.43 16 3.5c0-.388-.072-.785-.215-1.183L13.683.215A3.476 3.476 0 0 0 12.5 0C10.57 0 9 1.57 9 3.5c0 .322.046.64.137.949l-.887.887-1.037-1.037c-.3-.31-1.185-1.412-.006-2.592L7.914 1l-1-1H5.086L0 5.086v.828l3 3 2-2 .836.836L3.586 10 5.5 11.914v.586h-3V16H14v-3.5h-3v-.586L12.914 10l-2.25-2.25.887-.887c.309.091.627.137.949.137z"/></g><g id="icon_x5F_bg"><path class="st2" d="M14.844 2.656L13 4.5 11.5 3l1.844-1.844A2.488 2.488 0 0 0 12.5 1 2.5 2.5 0 0 0 10 3.5c0 .433.119.833.313 1.188L8.25 6.75 6.5 5s-2-2 0-4L6 .5 4.5 2l-2 2 .25.25c.138.138.032.468-.237.737 0 0-.115.114-.256.257a.36.36 0 0 1-.507.006L1.5 5l-.5.5 2 2 .5-.5-.25-.25a.357.357 0 0 1 .006-.506l.257-.257c.269-.269.573-.625.987-.487l1 .5 1.75 1.75L5 10l1 1 2.25-2.25L10.5 11l1-1-2.25-2.25 2.063-2.063c.355.194.755.313 1.187.313A2.5 2.5 0 0 0 15 3.5c0-.298-.061-.579-.156-.844zM10 13H9v-2H7v2H6v1H4v1h8v-1h-2z"/></g></svg>