<svg xmlns="http://www.w3.org/2000/svg" viewBox="0 0 16 16"><style>.st0{opacity:0}.st0,.st1{fill:#f6f6f6}.st2{fill:#424242}.st3{fill:#f0eff1}</style><g id="outline"><path class="st0" d="M0 0h16v16H0z"/><path class="st1" d="M14.023 6l-.026-2h-.669a3.004 3.004 0 0 0-2.4-1.966L10.946 2H9.328A3.004 3.004 0 0 0 6.5 0C5.249 0 4.119.861 3.687 2.002H1.941v.978h-.894v1.786C1.033 4.845 1 4.922 1 5v7c0 .106.02.213.047.318v1.652h1.986v-.016c.154.029.309.046.467.046h1.52v2h2.118v-.036c.116.018.234.036.362.036h6c1.299 0 1.5-1.03 1.5-2V8.5l1-1.941V6h-1.977z"/></g><g id="icon_x5F_bg"><path class="st2" d="M15.389 6.508l-3.523 6.45h-1.162l-1.96-2.92h1.55l.936 1.421 2.629-4.951h1.53zM6.5 1c-1.104 0-2 1-2 2l-1.52.007V4H2v9h3v-1H3V5h3.576c.174-.532.617-.861 1.096-.965.168-.46.453-.873.811-1.207A1.994 1.994 0 0 0 6.5 1zm.01 2.999c-.552 0-1.01-.447-1.01-1a1 1 0 1 1 2 0c0 .553-.438 1-.99 1z"/><path class="st2" d="M13 12.744V14H7V7h5.244l1.049-2H12.5a2 2 0 0 0-2-2c-1.104 0-2 1-2 2H7v1H6v9h8v-3.9l-1 1.644zm-2.5-8.745a1 1 0 0 1 1 1c0 .553-.439 1-.99 1-.552 0-1.01-.447-1.01-1a1 1 0 0 1 1-1z"/></g><g id="icon_x5F_fg"><path class="st3" d="M10.5 5.967c.688.008 1-.415 1-.968a1 1 0 1 0-2 0c0 .553.333.959 1 .968zM7 7.5V9h3.899l.179.216L12.244 7H8s-1 0-1 .5zM13 14h-.523L13 11.992V13.5s.5.5 0 .5zM8 14h1.848L7 9.878V13.5s.5.5 1 .5zM6.5 3.967c.688.008 1-.415 1-.968a1 1 0 1 0-2 0c0 .553.333.959 1 .968zM4.993 7.403V5.02h1.563c.006-.007.018-.014.02-.02H4s-1 0-1 .5v6s.5.5 1 .5h1V7.403h-.007z"/></g></svg>