<svg xmlns="http://www.w3.org/2000/svg" viewBox="0 0 16 16"><style>.st0{opacity:0}.st0,.st1{fill:#f6f6f6}.st2{fill:#424242}</style><g id="outline"><path class="st0" d="M0 0h16v16H0z"/><path class="st1" d="M16 7h-2.586L16 4.414V4H9.963l.6-.5L6.362 0H5v2.083A6.01 6.01 0 0 0 0 8a6.01 6.01 0 0 0 5.047 5.925s1.334.038 1.912-.01C7.813 13.844 9 13.176 9 13.176c.103-.059 1.159-.863 1.159-.863l.548.394L16 7.414V7zM5 7H3.176A3.015 3.015 0 0 1 5 5.171V7z"/></g><g id="icon_x5F_bg"><path class="st2" d="M5.5 11L4 8h1.5L6 9l2-4h1.5l-3 6zM11 5L9 9h2.5L10 12l4-4h-3l3-3z"/><path class="st2" d="M9.105 11.553L9.882 10h-.475a3.889 3.889 0 0 1-1.22 1.328c-.122.081-.25.146-.377.213-.071.037-.141.075-.213.107a3.737 3.737 0 0 1-.313.121c-.064.023-.126.049-.192.068a3.799 3.799 0 0 1-.521.117l-.006.001A3.842 3.842 0 0 1 6 12a4 4 0 0 1 0-8v2l3-2.5L6 1v2a5 5 0 1 0 0 10c.016 0 .031-.002.047-.003V13c.026 0 .053-.006.08-.007a5.04 5.04 0 0 0 .567-.048l.104-.018c.42-.068.824-.184 1.202-.35v-.016c.254-.113.503-.243.742-.402.155-.102.363-.606.363-.606z"/></g></svg>