<svg xmlns="http://www.w3.org/2000/svg" viewBox="0 0 16 16"><style>.st0{opacity:0}.st0,.st1{fill:#f6f6f6}.st2{fill:#424242}</style><g id="outline"><path class="st0" d="M0 0h16v16H0z"/><path class="st1" d="M16 2.733h-3.618l-.386.772L9.4.733 8.714 0H8v2.859a6.513 6.513 0 0 0-5.167 6.374c0 3.668 2.97 6.767 6.486 6.767.252 0 .499-.018.713-.042 2.795-.227 5.224-2.394 5.968-5.052V8.295a1.206 1.206 0 0 0-1.027-.581l-.168.003-1.074.29L16 3.47v-.737zM8 6.114v.62h-.85c.25-.246.534-.458.85-.62zm.536 6.459a3.503 3.503 0 0 1-2.447-3.34c0-.408.079-.799.21-1.167l2.255 4.51a.052.052 0 0 1-.018-.003zM10 7.498l-.165-.33.675-.689L10 7.498zm1.811 4.349l1.032-2.064c-.112.836-.479 1.548-1.032 2.064z"/><path class="st1" d="M1.465 0H0v9.443l5.408-5.5z"/></g><g id="icon_x5F_bg"><path class="st2" d="M9.25 11.733h1.5l4-8H13l-3 6-1-2H7.25l.314.629z"/><path class="st2" d="M14.938 8.718l-1.063.287c.004.076.018.15.018.229 0 2.485-1.799 4.5-4.393 4.5-.445 0-.865-.086-1.27-.208a4.503 4.503 0 0 1 .769-8.757v1.823l2.308-2.357L9 1.769v1.965c-2.88.167-5.167 2.562-5.167 5.5C3.833 12.279 6.29 15 9.319 15c.214 0 .424-.016.632-.039 2.825-.23 5.288-2.843 5.288-5.727 0-.596-.301-.516-.301-.516zM1 7l3-3.051-3-3V7z"/></g></svg>