<svg xmlns="http://www.w3.org/2000/svg" viewBox="0 0 16 16"><style>.st0{opacity:0}.st0,.st1{fill:#f6f6f6}.st2{fill:#424242}.st3{fill:#388a34}.st4{fill:#f0eff1}</style><g id="outline"><path class="st0" d="M0 0h16v16H0z"/><path class="st1" d="M16 3.106L12.85 0H2.018v2.018H0V6h2.018v2h.999A4.958 4.958 0 0 0 2 10.992a5.015 5.015 0 0 0 4.147 4.934V16h.896c.037 0 .073-.002.11-.006 1.801-.018 3.205-1.159 3.996-1.994H14c2 0 2-2 2-2V3.106z"/></g><g id="icon_x5F_bg"><path class="st2" d="M11.113 12.637H9.806a3.209 3.209 0 0 1-1.002 1.092c-.101.066-.206.121-.311.176-.058.031-.115.063-.175.088-.085.039-.171.068-.258.1-.051.018-.103.039-.157.057a3.819 3.819 0 0 1-.428.096H7.47a3.013 3.013 0 0 1-.464.037 3.287 3.287 0 0 1 0-6.574V9.35l2.465-2.053-2.466-2.056v1.644a4.108 4.108 0 1 0 0 8.218c.013 0 .026-.004.038-.004v.004c.022 0 .043-.006.066-.006 2.362.001 4.004-2.46 4.004-2.46z"/><path class="st2" d="M11.641 1H6v1h5v3h3v7h-2v1h1.965c1 0 1.035-1 1.035-1V4l-3.359-3z"/></g><g id="color_x5F_actopm"><path id="Foreground_2_" class="st3" d="M7 3.018H5V1H3.018v2.018H1V5h2.018v2H5V5h2z"/></g><path class="st4" d="M8 2v3l3 2-2 5h5V5h-3V2z" id="icon_x5F_fg"/></svg>