<svg xmlns="http://www.w3.org/2000/svg" viewBox="0 0 16 16"><style>.st0{fill:#f6f6f6}.st1{fill:#424242}</style><path class="st0" d="M11.448 10.35l-.287.504a3.812 3.812 0 0 1-.526.711l-.364.389-.505.271-.064.037 4.106-7.412h-1.984L13.1 3.767 8.483-.15H7.116v2.406c-3.344.49-6.006 3.387-6.006 6.76 0 1.741.742 3.449 2.088 4.809l.359.361.457.365.487.297a6.75 6.75 0 0 0 2.835.963l.518.054.586-.015.549-.064a6.361 6.361 0 0 0 2.46-.898l.891-.625.387-.361c1.063-.99 1.65-2.014 1.675-2.057l.849-1.494h-3.803z" id="outline"/><path class="st1" d="M7.44 14.816a5.806 5.806 0 0 1-2.418-.822l.757-.904c.504.281 1.064.47 1.661.549v1.177zm3.924-2.568l.682.921a8.574 8.574 0 0 0 1.486-1.819h-1.504a4.803 4.803 0 0 1-.664.898zm-6.699-.029c-.79-.836-1.278-2.127-1.278-3.369 0-2.576 2.154-4.5 4.73-4.5v2.334l3.437-2.917L8.116.85v2.334c-3.221 0-6.006 2.611-6.006 5.832 0 1.602.755 3.051 1.799 4.104l.756-.901zm5.574.887c-.025.014-.049.029-.074.042a4.125 4.125 0 0 1-.248.126c-.121.055-.244.098-.367.141-.074.026-.146.057-.223.08a5.12 5.12 0 0 1-.473.105v1.195a5.338 5.338 0 0 0 2.072-.762l-.687-.927zm-1.73-1.256l4.316-6H11.11l-3.185 4.334-.584-1.325h-1.75l1.75 2.99h1.168z" id="icon_x5F_bg"/></svg>