<svg xmlns="http://www.w3.org/2000/svg" viewBox="0 0 16 16"><style>.st0{opacity:0}.st0,.st1{fill:#f6f6f6}.st2{fill:#424242}.st3{fill:#f0eff1}</style><g id="outline"><path class="st0" d="M0 0h16v16H0z"/><path class="st1" d="M12.023 1H5.964C5.012 1 4 1.701 4 3v1H0v3h1v1H0v3h4v2c0 1.299 1.012 2 1.964 2h8c1.442 0 2.007-1.175 2.035-2V4.552L12.023 1z"/></g><g id="icon_x5F_bg"><path class="st2" d="M1 5h3v1H1zM2 7h2v1H2zM1 9h3v1H1zM11.641 2H5.964S5 2 5 3v10c0 1 .964 1 .964 1h8c1 0 1.036-1 1.036-1V5l-3.359-3zM14 13H6V3h5v3h3v7z"/></g><path class="st3" d="M6 3h5v3h3v7H6z" id="icon_x5F_fg"/></svg>