<svg xmlns="http://www.w3.org/2000/svg" viewBox="0 0 16 16"><style>.st0{opacity:0}.st0,.st1{fill:#f6f6f6}.st2{fill:#424242}.st3{fill:#f0eff1}</style><g id="outline"><path class="st0" d="M0 0h16v16H0z"/><path class="st1" d="M14 3V2h-.99c-.412-1.164-1.686-2-2.99-2-1.303 0-2.596.836-3.01 2H6v1H4.01l-.005 3H3v3H0v7h16V3h-2z"/></g><g id="icon_x5F_bg"><path class="st2" d="M9 7H4v3H1v5h5v-3h3V7zm-4 7H2v-2h3v2zm3-3H6v-1H5V9h3v2zM6 6V5h6.5l.5-1V3h-.99a2 2 0 0 0-4 0H7v1H5v2h1zm4.01-4c.553 0 1 .447 1 1s-.438 1-.99 1c-.551 0-1.01-.447-1.01-1s.449-1 1-1z"/><path class="st2" d="M14 10.473V14H7v1h8V9.958z"/><path class="st2" d="M13.618 5l-3 6.375L10 10.063V13h1.438l4.18-8z"/></g><g id="icon_x5F_fg"><path class="st3" d="M6 5v1h4v2h.236l.382.764L12.5 5zM12.236 14H14v-3.527zM7 13v1h2l-.5-1zM5 9v1h1v1h2V9zM2 12h3v2H2z"/><circle class="st3" cx="10" cy="3" r="1"/></g></svg>