<svg xmlns="http://www.w3.org/2000/svg" viewBox="0 0 16 16"><style>.st0{opacity:0}.st0,.st1{fill:#f6f6f6}.st2{fill:#424242}</style><g id="outline"><path class="st0" d="M0 0h16v16H0z"/><path class="st1" d="M16 6h-2c.65-.635 1-1.52 1-2.5a3.5 3.5 0 1 0-7 0c0 .98.35 1.865 1 2.5H7.95A3.49 3.49 0 0 0 4.5 3 3.5 3.5 0 0 0 1 6.5c0 .98.35 1.865 1 2.5H0v7h9v-3h7V6z"/></g><g id="icon_x5F_bg"><circle class="st2" cx="11.5" cy="3.5" r="2.5"/><path class="st2" d="M13 7l-1.5 2L10 7H8v2h1v3h6V7zM4.5 9a2.5 2.5 0 1 0-.002-5.002A2.5 2.5 0 0 0 4.5 9zm0-4.5c1.103 0 2 .897 2 2s-.897 2-2 2-2-.897-2-2 .897-2 2-2zM4.5 12L3 10H1v5h7v-5H6l-1.5 2zm3-1.5v4h-6v-4h1.25l1.35 1.8.4.533.4-.533 1.35-1.8H7.5z"/></g></svg>