<svg xmlns="http://www.w3.org/2000/svg" viewBox="0 0 16 16"><style>.icon-canvas-transparent{opacity:0;fill:#f6f6f6}.icon-vs-out{fill:#f6f6f6}.icon-vs-bg{fill:#424242}</style><path class="icon-canvas-transparent" d="M16 16H0V0h16v16z" id="canvas"/><path class="icon-vs-out" d="M15 9c0 3.859-3.141 7-7 7-3.86 0-7-3.141-7-7a6.972 6.972 0 0 1 5-6.704V0h1.308l4.4 3h2.923l-2.007 4h2.132l.141.834C14.966 8.25 15 8.631 15 9z" id="outline"/><g id="iconBg"><path class="icon-vs-bg" d="M14 9A6 6 0 1 1 2 9a5.996 5.996 0 0 1 5-5.91V1l3.5 2.386L7 6V4.101A5.01 5.01 0 0 0 3 9c0 2.757 2.243 5 5 5a5.006 5.006 0 0 0 4.899-6h1.011c.055.326.09.659.09 1z"/><path class="icon-vs-bg" d="M5.826 8.778l-.315-.629h1.75l.989 2.001 3-6.001H13L9 12H7.508L5.826 8.778z"/></g></svg>