<svg xmlns="http://www.w3.org/2000/svg" width="16" height="16"><style type="text/css">.icon-canvas-transparent{opacity:0;fill:#F6F6F6;} .icon-vs-out{fill:#F6F6F6;} .icon-vs-bg{fill:#424242;} .icon-vs-fg{fill:#F0EFF1;}</style><path class="icon-canvas-transparent" d="M16 16h-16v-16h16v16z" id="canvas"/><path class="icon-vs-out" d="M14 6.473v9.527h-11.99c-.023.021 0-13 0-13h1.99v-1h1.01c.413-1.164 1.706-2 3.01-2 1.305 0 2.578.836 2.99 2h.99v1h2v1h1.236l-1.236 2.473z" id="outline"/><path class="icon-vs-bg" d="M12 10.473v3.527h-8v-9h6.5l.5-1v-1h-.99c0-1.104-.895-2-2-2-1.104 0-2 .896-2 2h-1.01v1h-2v11h10v-5.042l-1 .515zm-3.99-8.473c.553 0 1 .447 1 1s-.438 1-.99 1-1.01-.447-1.01-1 .448-1 1-1zm5.608 3l-4.181 8h-1.687l-2.132-4h1.882l1.118 2.375 3-6.375h2z" id="iconBg"/><path class="icon-vs-fg" d="M6.958 2.979c0-.553.5-.979 1.052-.979.553 0 1 .447 1 1s-.457 1-1.01 1c-.551 0-1.042-.468-1.042-1.021zm1.278 5.021l.382.764 1.882-3.764h-6.5v3h4.236zm2 6h1.764v-3.527l-1.764 3.527zm-6.236 0h3l-3-5.999v5.999z" id="iconFg"/></svg>