<svg xmlns="http://www.w3.org/2000/svg" width="16" height="16"><style type="text/css">.icon-canvas-transparent{opacity:0;fill:#F6F6F6;} .icon-vs-out{fill:#F6F6F6;} .icon-vs-bg{fill:#424242;} .icon-vs-fg{fill:#F0EFF1;}</style><path class="icon-canvas-transparent" d="M16 16h-16v-16h16v16z" id="canvas"/><path class="icon-vs-out" d="M6 15v-3h-2v-3h-2v-3h-2v-6h16v15h-10z" id="outline"/><path class="icon-vs-bg" d="M1 1v4h2v3h2v3h2v3h8v-13h-14zm1 3v-2h2v2h-2zm2 3v-2h2v2h-2zm2 3v-2h2v2h-2zm4 3h-2v-2h2v2zm4 0h-3v-2h3v2zm0-3h-5v-2h5v2zm0-3h-7v-2h7v2zm0-3h-9v-2h9v2z" id="iconBg"/><path class="icon-vs-fg" d="M14 2v2h-9v-2h9zm-12 2h2v-2h-2v2zm5 1v2h7v-2h-7zm-3 2h2v-2h-2v2zm5 1v2h5v-2h-5zm-3 2h2v-2h-2v2zm5 1v2h3v-2h-3zm-3 2h2v-2h-2v2z" id="iconFg"/></svg>