<svg xmlns="http://www.w3.org/2000/svg" viewBox="0 0 16 16"><style>.st0{opacity:0}.st0,.st1{fill:#f6f6f6}.st2{fill:#424242}.st3{stroke:#424242;stroke-width:.15;stroke-miterlimit:10}.st3,.st4{fill:#f0eff1}</style><g id="outline"><path class="st0" d="M0 0h16v16H0z"/><path class="st1" d="M9.598.144H8.555l-6.53 3.303v7.325c-.267.084-.615.148-1.109.228H0v1.989h.852c1.828.296 1.859.314 2.148 2.095V16h1.975v-.84h.013c.131-.811.214-1.26.411-1.544L9.182 16h.486l6.212-4.555V3.458L9.598.144z"/></g><g id="icon_x5F_bg"><path class="st2" d="M4 9c-.376 2.319-.681 2.624-3 3 2.319.376 2.624.681 3 3 .376-2.319.681-2.624 3-3-2.319-.376-2.624-.681-3-3z"/><path class="st2" d="M9.077 1L3.024 4.062V8h.967V5.166l5.015 2.8v5.584l-.04.026v.024l-.014-.012-.014.012v-.023L8 12.964V13h-.916c-.237.038-.439.072-.619.106l2.935 1.85 5.48-4.018V4.062L9.077 1zm.251 6.105L4.492 4.348l4.514-2.292 4.799 2.364-4.477 2.685zM14 10.509L9.973 13.41V8L14 5.365v5.144z"/></g><g id="icon_x5F_fg"><path class="st3" d="M9.006 2.056l4.799 2.364-4.477 2.685-4.836-2.757zM14 10.509L9.973 13.41V8L14 5.365z"/><path class="st4" d="M3.991 5.166V8H5v.916c.285 1.758.327 1.799 2.084 2.084H8v1.964l.938.612v.024l.014-.012.014.012v-.023l.04-.026V7.966l-5.015-2.8z"/><path class="st2" d="M3.916 5.038V8h.15V5.293L8.931 8.01v5.471L8 12.875V13h-.083l.948.618.012.133.075-.065.089.077v-.147l.04-.026V7.922z"/></g></svg>