<svg xmlns="http://www.w3.org/2000/svg" viewBox="0 0 16 16"><style>.st0{opacity:0}.st0,.st1{fill:#f6f6f6}.st2{fill:#424242}.st3{fill:#f0eff1}</style><g id="outline"><path class="st0" d="M0 0h16v16H0z"/><path class="st1" d="M16 0v14h-5.586l-1 1H2.586l-1-1H0V0h16z"/></g><path class="st2" d="M15 1v12h-3.586l1-1H14V4H2v5.586l-1 1V1h14zm-7 9H4v4h4v-4zm3 2l-2 2v-1l1-1-1-1v-1l2 2zm-8-2v1l-1 1 1 1v1l-2-2 2-2z" id="icon_x5F_bg"/><path class="st3" d="M14 4v8h-1.586l-3-3H2.586L2 9.586V4h12z" id="icon_x5F_fg"/></svg>