<svg xmlns="http://www.w3.org/2000/svg" viewBox="0 0 16 16"><style>.st0{opacity:0}.st0,.st1{fill:#f6f6f6}.st2{fill:#424242}.st3{fill:#0095d7}.st4{fill:#f0eff1}</style><g id="outline"><path class="st0" d="M0 0h16v16H0z"/><path class="st1" d="M16 10h-1V7h-5V6h2V0H5v6h2v1H2v3H1v1.586l-1 1v.828l1 1V15h.586l1 1h6.828l1-1H16z"/></g><g id="icon_x5F_bg"><path class="st2" d="M14 11V8H9V5h2V1H6v4h2v3H3v2h1V9h4v1h1V9h4v2h-1v3h3v-3h-1zM7 4V2h3v2H7zm7 9h-1v-1h1v1zM3 15v-1l-1-1 1-1v-1l-2 2z"/><path class="st2" d="M9 12l1 1-1 1v1l2-2-2-2z"/></g><path class="st3" d="M4 11h4v4H4z" id="color_x5F_importance"/><g id="icon_x5F_fg"><path class="st4" d="M7 2h3v2H7zM13 12h1v1h-1z"/></g></svg>