<svg xmlns="http://www.w3.org/2000/svg" viewBox="0 0 16 16"><style>.st0{opacity:0}.st0,.st1{fill:#f6f6f6}.st2{fill:#424242}.st3{fill:#f0eff1}</style><g id="outline"><path class="st0" d="M0 0h16v16H0z"/><path class="st1" d="M8 8.586V10H4V8.586l-4 4v.828L2.586 16H9.414l3-3z"/><path class="st1" d="M10.061 1H4c-.97 0-2 .701-2 2v7.586l-2 2v.828L2.586 16H9.414l1-1H12c1.299 0 2-1.03 2-2V4.556L10.061 1z"/></g><g id="icon_x5F_bg"><path class="st2" d="M8 15H4v-4h4v4zm1-4v1l1 1-1 1v1l2-2-2-2zm-8 2l2 2v-1l-1-1 1-1v-1l-2 2zm9-4.5L8 7v1H7V6h1V5H6v4h2v1l2-1.5z"/><path class="st2" d="M4 11h4v4H4zM9 11v1l1 1-1 1v1l2-2zM1 13l2 2v-1l-1-1 1-1v-1zM10 8.5L8 7v1H7V6h1V5H6v4h2v1z"/><path class="st2" d="M9.641 2H3.964S3 2 3 3v6.586l1-1V3h5v3h3v6.586l.414.414-1 1H12v-.005c.962-.025 1-.995 1-.995V5L9.641 2z"/></g><path class="st3" d="M12 12.586V6H9V3H4v7h4V9H6V5h2v1H7v2h1V7l2 1.5-1.192.894z" id="icon_x5F_fg"/></svg>