<svg xmlns="http://www.w3.org/2000/svg" viewBox="0 0 16 16"><style>.st0{opacity:0}.st0,.st1{fill:#f6f6f6}.st2{fill:#424242}.st3{fill:#0095d7}.st4{fill:#f0eff1}</style><g id="outline"><path class="st0" d="M0 0h16v16H0z"/><path class="st1" d="M16 15h-5.586l-1 1H2.586l-1-1H0V2h5V1h6v1h5v13z"/></g><g id="icon_x5F_bg"><path class="st2" d="M6 10h3.414l.586.586V2H6v8zm1-7h2v1H7V3zM11 3v8.586l1 1V12h2v1h-2v.414l-.586.586H15V3h-4zm3 8h-2v-1h2v1zm0-5h-2V4h2v2zM1 11.586l1-1V10h3V3H1v8.586zM2 4h2v2H2V4z"/><path class="st3" d="M4 11h4v4H4z"/><path class="st2" d="M11 13l-2 2v-1l1-1-1-1v-1zM3 11v1l-1 1 1 1v1l-2-2z"/></g><path class="st4" d="M4 6H2V4h2v2zm5-3H7v1h2V3zm3 8h2v-1h-2v1zm0-5h2V4h-2v2zm2 7v-1h-2v1h2zM2 10v.586L2.586 10H2z" id="icon_x5F_fg"/></svg>