<svg xmlns="http://www.w3.org/2000/svg" viewBox="0 0 16 16"><style>.st0{opacity:0}.st0,.st1{fill:#f6f6f6}.st2{fill:#424242}.st3{fill:#f0eff1}</style><g id="outline"><path class="st0" d="M0 0h16v16H0z"/><path class="st1" d="M16 15h-5.586l-1 1H2.586l-1-1H0V2h5V1h6v1h5v13z"/></g><path class="st2" d="M9.414 10l.586.586V2H6v8h3.414zM7 3h2v1H7V3zm8 0h-4v8.585l1 1V12h2v1h-2v.414l-.586.586H15V3zm-1 8h-2v-1h2v1zm0-5h-2V4h2v2zM2 10h3V3H1v8.585l1-1V10zm0-6h2v2H2V4zm6 11H4v-4h4v4zm3-2l-2 2v-1l1-1-1-1v-1l2 2zm-8-2v1l-1 1 1 1v1l-2-2 2-2z" id="icon_x5F_bg"/><path class="st3" d="M4 6H2V4h2v2zm5-3H7v1h2V3zm3 8h2v-1h-2v1zm0-5h2V4h-2v2zm2 7v-1h-2v1h2zM2 10v.586L2.586 10H2z" id="icon_x5F_fg"/></svg>