<svg xmlns="http://www.w3.org/2000/svg" width="16" height="16"><style type="text/css">.icon-canvas-transparent{opacity:0;fill:#F6F6F6;} .icon-vs-out{fill:#F6F6F6;} .icon-vs-bg{fill:#424242;} .icon-vs-fg{fill:#F0EFF1;}</style><path class="icon-canvas-transparent" d="M16 16h-16v-16h16v16z" id="canvas"/><path class="icon-vs-out" d="M14 4.556v8.444c0 .97-.701 2-2 2h-1.586l-1 1h-6.828l-2.586-2.586v-.828l2-2v-7.586c0-1.299 1.03-2 2-2h6.061l3.939 3.556z" id="outline"/><path class="icon-vs-bg" d="M9.641 2h-5.677s-.964 0-.964 1v6.586l1-1v-5.586h5v3h3v6.586l.414.414-1 1h.586v-.005c.962-.025 1-.995 1-.995v-8l-3.359-3zm-1.641 13h-4v-4h4v4zm3-2l-2 2v-1l1-1-1-1v-1l2 2zm-8-2v1l-1 1 1 1v1l-2-2 2-2z" id="iconBg"/><path class="icon-vs-fg" d="M8 9v1h-4v-7h5v3h3v6.586l-4-3.586z" id="iconFg"/></svg>