<svg xmlns="http://www.w3.org/2000/svg" viewBox="0 0 16 16"><style>.st0{opacity:0}.st0,.st1{fill:#f6f6f6}.st2{fill:#424242}.st3{fill:#0095d7}.st4{fill:#f0eff1}</style><g id="outline"><path class="st0" d="M0 0h16v16H0z"/><path class="st1" d="M16 0h-6c-.89 0-1.483.617-2.001 1C7.481.615 6.9.006 6 0H0v12h.586L0 12.586v.828L2.586 16h6.828L12 13.414v-.828L11.414 12H16V0z"/></g><path class="st2" d="M9 11v1l1 1-1 1v1l2-2-2-2zm-8 2l2 2v-1l-1-1 1-1v-1l-2 2zm9-12c-.874 0-1.28.363-2.001 1C7.288 1.373 6.894 1.006 6 1H1v10h.586l1-1H2V2h3.341C6.286 2 7 2.6 7 3v7h2V2.967C9 2.508 9.645 2 10.628 2H14v8H9.52l.937 1H15V1h-5z" id="icon_x5F_bg"/><path class="st3" d="M4 11h4v4H4z" id="color_x5F_importance"/><path class="st4" d="M9 10V2.967C9 2.508 9.645 2 10.628 2H14v8H9zm-2 0V3c0-.4-.714-1-1.659-1H2v8h5z" id="icon_x5F_fg"/></svg>