<svg xmlns="http://www.w3.org/2000/svg" viewBox="0 0 16 16"><style>.st0{opacity:0}.st0,.st1{fill:#f6f6f6}.st2{fill:#424242}</style><g id="outline"><path class="st0" d="M0 0h16v16H0z"/><path class="st1" d="M12 3V0H5v3H1v8.5l-1 .75v1.736L2.042 16h8L13 13h3V3z"/></g><g id="icon_x5F_bg"><path class="st2" d="M7 2h3v1h1V1H6v2h1zM2 4v3h3V6h1v1h5V6h1v1h3V4zM12 9h-1V8H6v1H5V8H2v2h8l2 2h3V8h-3z"/><g><path class="st2" d="M3 15v-1l-1-1 1-1v-1l-2 2zM9 12l1 1-1 1v1l2-2-2-2z"/></g><path class="st2" d="M4 11h4v4H4z"/></g></svg>