<svg xmlns="http://www.w3.org/2000/svg" viewBox="0 0 16 16"><style>.st0{opacity:0}.st0,.st1{fill:#f6f6f6}.st2{fill:#424242}.st3{fill:#0095d7}</style><g id="outline"><path class="st0" d="M0 0h16v16H0z"/><path class="st1" d="M14 7v9H2v-.586l-2-2v-.828l2-2V7h3.5C4.661 6.266 4 5.202 4 4a4 4 0 0 1 8 0c0 1.201-.661 2.266-1.5 3H14z"/></g><g id="icon_x5F_bg"><path class="st2" d="M3 15v-1l-1-1 1-1v-1l-2 2zM6 8H3v2h4.333zM10 8l-1.333 2h.747L12 12.586v.828L10.414 15H13V8z"/><path class="st2" d="M9 15l2-2-2-2v1l1 1-1 1z"/><circle class="st2" cx="8" cy="4" r="3"/></g><path class="st3" d="M4 11h4v4H4z" id="color_x5F_decoration"/></svg>