<svg xmlns="http://www.w3.org/2000/svg" viewBox="0 0 16 16"><style>.st0{opacity:0}.st0,.st1{fill:#f6f6f6}.st2{fill:#424242}</style><g id="outline"><path class="st0" d="M0 0h16v16H0z"/><path class="st1" d="M14 7v9H2v-.586l-2-2v-.828l2-2V7h3.5C4.661 6.266 4 5.202 4 4a4 4 0 0 1 8 0c0 1.201-.661 2.266-1.5 3H14z"/></g><path class="st2" d="M5 4a3 3 0 1 1 6 0 3 3 0 0 1-6 0m1 4H3v2h4.333L6 8zm7 0h-3l-1.333 2h.747L12 12.586v.828L10.414 15H13V8zm-5 3H4v4h4v-4zm1 0v1l1 1-1 1v1l2-2-2-2zm-8 2l2 2v-1l-1-1 1-1v-1l-2 2z" id="icon_x5F_bg"/></svg>