<svg xmlns="http://www.w3.org/2000/svg" viewBox="0 0 16 16"><style>.st0{opacity:0}.st0,.st1{fill:#f6f6f6}.st2{fill:#424242}.st3{fill:#f0eff1}</style><g id="outline"><path class="st0" d="M0 0h16v16H0z"/><path class="st0" d="M0 0h16v16H0z"/><path class="st1" d="M16 8A8 8 0 0 0 0 8c0 1.329.329 2.58.903 3.683L0 12.586v.828L2.586 16h6.828l.156-.156A8.002 8.002 0 0 0 16 8z"/></g><g id="icon_x5F_bg"><path class="st2" d="M14.988 7.764C14.862 4.008 11.786 1 8 1a7 7 0 0 0-7 7 6.692 6.692 0 0 0 .1 1.136l.002.018c.104.624.306 1.212.563 1.768L2.586 10h.037c-.047-.125-.099-.246-.137-.375.431.132.903.258 1.401.375h5.527l1 1c.066-.204.153-.421.208-.618a12.79 12.79 0 0 0 2.886-.734 5.703 5.703 0 0 1-1.757 2.689l.249.249v.828l-.823.823A6.997 6.997 0 0 0 15 8c0-.08-.01-.157-.012-.236zm-7.72-5.462c.24-.031.483-.052.732-.052.165 0 .327.011.488.024.468.812.944 1.846 1.221 3.108-.571.039-1.133.044-1.703.039-.6-.007-1.181-.048-1.739-.11a12.133 12.133 0 0 1 1.001-3.009zM2.271 8.403C2.261 8.27 2.25 8.137 2.25 8c0-.819.174-1.597.482-2.303.686.202 1.448.394 2.3.539-.042.406-.072.821-.077 1.258a12.87 12.87 0 0 0 .099 1.637 19.297 19.297 0 0 1-2.783-.728zm2.914-3.25a18.852 18.852 0 0 1-1.903-.435 5.757 5.757 0 0 1 2.635-2.073c-.29.723-.556 1.554-.732 2.508zm4.561 4.222c-.584.041-1.158.049-1.74.046a17.427 17.427 0 0 1-1.838-.123 12.244 12.244 0 0 1-.123-1.792c.004-.387.031-.756.067-1.115.603.068 1.23.113 1.882.12l.403.003c.488 0 .982-.016 1.487-.055.038.34.066.686.07 1.047a8.606 8.606 0 0 1-.208 1.869zm.135-6.804a5.755 5.755 0 0 1 2.868 2.188c-.686.236-1.334.4-1.951.496a11.71 11.71 0 0 0-.917-2.684zm3.85 5.803c-1.038.452-1.972.722-2.848.863a9.32 9.32 0 0 0 .161-1.743c-.004-.4-.035-.782-.076-1.156a12.478 12.478 0 0 0 2.316-.604c.3.696.466 1.461.466 2.266 0 .126-.011.25-.019.374z"/><path class="st2" d="M8 15H4v-4h4v4zm3-2l-2 2v-1l1-1-1-1v-1l2 2zm-8-2v1l-1 1 1 1v1l-2-2 2-2z"/></g><g id="icon_x5F_fg"><path class="st3" d="M10.969 6.338a12.478 12.478 0 0 0 2.316-.604c.299.696.465 1.461.465 2.266 0 .126-.011.25-.019.374-1.038.452-1.972.722-2.848.863a9.32 9.32 0 0 0 .161-1.743 11.3 11.3 0 0 0-.075-1.156zM12.749 4.76c-.686.236-1.334.4-1.951.496a11.703 11.703 0 0 0-.917-2.685 5.757 5.757 0 0 1 2.868 2.189zM8 9.421c-.636-.007-1.311-.102-1.9-.171-.084-.609-.061-1.161-.055-1.744.004-.387.031-.756.067-1.115A18.67 18.67 0 0 0 8 6.511c.135.001.266.003.4.003.488 0 .979-.016 1.484-.055.038.34.066.686.07 1.047.007.577-.113 1.202-.254 1.869-.584.041-1.118.049-1.7.046zM8 2.25c.165 0 .327.011.488.024.468.812.935 1.846 1.212 3.108-.571.039-1.13.044-1.7.039-.6-.007-1.241-.048-1.8-.11.233-1.216.685-2.215 1.067-3.009.241-.031.484-.052.733-.052zM5.917 2.645c-.29.723-.556 1.554-.732 2.508a18.852 18.852 0 0 1-1.903-.435 5.768 5.768 0 0 1 2.635-2.073zM2.25 8c0-.819.174-1.597.482-2.303.686.202 1.448.394 2.3.539-.042.406-.072.821-.077 1.258a12.87 12.87 0 0 0 .099 1.637 19.297 19.297 0 0 1-2.783-.728C2.261 8.27 2.25 8.137 2.25 8zM11.751 12.337a5.723 5.723 0 0 0 1.757-2.689 12.737 12.737 0 0 1-2.886.734c-.055.197-.142.414-.208.618l1.337 1.337z"/></g></svg>