<svg xmlns="http://www.w3.org/2000/svg" viewBox="0 0 16 16"><style>.st0{opacity:0}.st0,.st1{fill:#f6f6f6}.st2{fill:#424242}</style><g id="outline"><path class="st0" d="M0 0h16v16H0z"/><path class="st1" d="M1 0h15v15H1z"/></g><path class="st2" d="M12 1h1v1h-1V1zM4 5h7v1H4v6h4v1l3-2-3-2v1H6V8h7V3H4v2zm10 9h1v-1h-1v1zm-2 0h1v-1h-1v1zm2-2h1v-1h-1v1zm-8 2h1v-1H6v1zm4 0h1v-1h-1v1zm4-13v1h1V1h-1zm0 3h1V3h-1v1zm0 6h1V9h-1v1zm0-2h1V7h-1v1zm0-2h1V5h-1v1zM2 4h1V3H2v1zm0 10h1v-1H2v1zm0-2h1v-1H2v1zM5 1H4v1h1V1zm2 0H6v1h1V1zm2 0H8v1h1V1zM2 2h1V1H2v1zm0 8h1V9H2v1zm9-9h-1v1h1V1zM4 14h1v-1H4v1zM2 6h1V5H2v1zm0 2h1V7H2v1z" id="icon_x5F_bg"/></svg>