<svg xmlns="http://www.w3.org/2000/svg" viewBox="0 0 16 16"><style>.st0{opacity:0}.st0,.st1{fill:#f6f6f6}.st2{fill:#424242}.st3{fill:#00539c}.st4{fill:#f0eff1}</style><g id="outline"><path class="st0" d="M0 0h16v16H0z"/><path class="st1" d="M14 5.594V2.691L11.009 0H5.965C5.013 0 4 .701 4 2h-.035C3.013 2 2 2.701 2 4h-.035C1.013 4 0 4.701 0 6v8c0 1.299 1.013 2 1.965 2h6.481L16 8.431v-.83l-2-2.007z"/></g><g id="icon_x5F_bg"><path class="st2" d="M5 14H2V6h4v2h2v1.566l1-1v-1.43L6.625 5h-4.66S1 5 1 6v8c0 1 .965 1 .965 1H5v-1z"/><path class="st2" d="M8 4.892L9.231 6H10v1.567l1-.999V5.137L8.625 3h-4.66S3 3 3 4h5v.892z"/><path class="st2" d="M10 2v.892L11.231 4H12v1.568l.989-.989.011.012V3.137L10.625 1h-4.66S5 1 5 2h5z"/></g><g id="color_x5F_action"><path transform="rotate(-45.001 10 11)" class="st3" d="M7.172 9.585h5.656v2.828H7.172z"/><path transform="rotate(-45.001 13.5 7.5)" class="st3" d="M12.793 6.086h1.414v2.828h-1.414z"/><path class="st3" d="M6 13v1.999L8 15"/></g><g id="icon_x5F_fg"><path class="st4" d="M8 4h-.991L8 4.892zM9.231 6l.769.691V6zM10 2h-.991l.991.892zM11.231 4l.769.691V4zM5 12.564l3-2.998V8H6V6H2v8h3z"/></g></svg>