<svg xmlns="http://www.w3.org/2000/svg" viewBox="0 0 16 16"><style>.st0{opacity:0}.st0,.st1{fill:#f6f6f6}.st2{fill:#424242}.st3{fill:#00539c}</style><g id="outline"><path class="st0" d="M0 0h16v16H0z"/><path class="st1" d="M9 7H3v3h2v3H3v3h8v-2h2v-2h2V7z"/></g><g id="icon_x5F_bg"><path class="st2" d="M4 8h10v1H4zM10 10H6v1h4zM4 14h6v1H4zM6 12h6v1H6zM11 10h3v1h-3z"/><path class="st1" d="M3.423 0h-.837L0 2.586v.827L7.609 11H11V7.417L3.423 0z"/></g><g id="color_x5F_action"><path transform="rotate(-45.001 6 6)" class="st3" d="M4.586 3.171h2.828v5.656H4.586z"/><path transform="rotate(-45.001 2.5 2.5)" class="st3" d="M1.086 1.793h2.828v1.414H1.086z"/><path class="st3" d="M10 8v1.999L8 10"/></g></svg>