<svg xmlns="http://www.w3.org/2000/svg" viewBox="0 0 16 16"><style>.st0{opacity:0}.st0,.st1{fill:#f6f6f6}.st2{fill:#424242}.st3{fill:#00539c}.st4{fill:#f0eff1}</style><g id="outline"><path class="st0" d="M0 0h16v16H0z"/><path class="st1" d="M13.5 4.798l-.5.334V3.985L8.82 1h-.623l-.803.535A3.497 3.497 0 0 0 4.502 0C3.929 0 3.498.088 3 .349V0H1.603L0 1.515V5h3v.481L1.601 6.709 3 8.108v2.406l4.48 3.2.52-.345v1.166L10.197 16h.605L16 12.535v-6.07l-2.5-1.667z"/></g><path class="st2" d="M13.5 6L12 7V4.5L8.5 2l-.678.452C7.927 2.785 8 3.133 8 3.5c0 .013-.004.025-.004.038l.504-.336L10.648 4.8 7.5 6.899l-.849-.632-.769.662L7 7.768v3.197l-2-1.5V7.688l-1 .861V10l3.5 2.5 1.5-1V14l1.5 1 4.5-3V7l-1.5-1zM11 7.667L9 9v1.299l-1 .666V7.768l3-2v1.899z" id="icon_x5F_bg"/><path class="st3" d="M6.127 5.398L3.75 7.444l-.687-.687 2.408-2.112A1.502 1.502 0 0 0 4.502 2c-.355 0-.649.149-.969.356L2.76 3H4l-.969.969.032.031H1V1.945L2 1v1.362l.887-.768C3.578 1.097 3.91 1 4.502 1A2.502 2.502 0 0 1 7 3.5c0 .73-.318 1.423-.873 1.898z" id="color_x5F_action"/><g id="icon_x5F_fg"><path class="st4" d="M5 7.688v1.777l2 1.5V7.768l-1.118-.839zM8.5 3.202l-.504.336a3.496 3.496 0 0 1-1.218 2.62l-.127.109.849.632L10.648 4.8 8.5 3.202zM8 7.768v3.197l1-.666V9l2-1.333V5.768z"/></g></svg>