<?xml version="1.0" encoding="iso-8859-1"?>
<!-- Generator: Adobe Illustrator 21.0.0, SVG Export Plug-In . SVG Version: 6.00 Build 0)  -->
<svg version="1.1" xmlns="http://www.w3.org/2000/svg" xmlns:xlink="http://www.w3.org/1999/xlink" x="0px" y="0px"
	 viewBox="0 0 16 16" style="enable-background:new 0 0 16 16;" xml:space="preserve">
<style type="text/css">
	.icon_x002D_canvas_x002D_transparent{opacity:0;fill:#F6F6F6;}
	.icon_x002D_vs_x002D_out{fill:#F6F6F6;}
	.icon_x002D_vs_x002D_fg{fill:#F0EFF1;}
	.icon_x002D_vs_x002D_blue{fill:#1BA1E2;}
	.icon_x002D_vs_x002D_action_x002D_blue{fill:#00539C;}
</style>
<g id="canvas">
	<path class="icon_x002D_canvas_x002D_transparent" d="M16,16H0V0h16V16z"/>
</g>
<g id="outline">
	<path class="icon_x002D_vs_x002D_out" d="M15,7v5c0,1.711-1.935,3-4.5,3C7.935,15,6,13.711,6,12V8.916L5.916,9h-4.82l1.988-2H3
		C1.72,7,0.61,6.302,0,5.274V1.726C0.61,0.698,1.72,0,3,0h1.5v2h1.413L8.3,4.374C8.946,4.142,9.686,4,10.5,4C13.065,4,15,5.289,15,7
		z"/>
</g>
<g id="iconBg">
	<path class="icon_x002D_vs_x002D_blue" d="M14,7v5c0,1.104-1.567,2-3.5,2C8.567,14,7,13.104,7,12V7.91l1.032-1.039
		C8.019,6.914,8,6.956,8,7c0,0.553,1.119,1,2.5,1C11.881,8,13,7.553,13,7s-1.119-1-2.5-1C9.674,6,8.947,6.162,8.492,6.409
		l0.922-0.928L9.1,5.169C9.529,5.062,10.001,5,10.5,5C12.433,5,14,5.896,14,7z"/>
</g>
<g id="iconFg">
	<path class="icon_x002D_vs_x002D_fg" d="M13,7c0,0.553-1.119,1-2.5,1C9.119,8,8,7.553,8,7c0-0.044,0.019-0.086,0.032-0.129
		l0.459-0.462C8.947,6.162,9.674,6,10.5,6C11.881,6,13,6.447,13,7z"/>
</g>
<g id="colorAction">
	<path class="icon_x002D_vs_x002D_action_x002D_blue" d="M8,5.485L5.5,8h-2l1.988-2H3C1.619,6,0.5,4.881,0.5,3.5S1.619,1,3,1h0.5v1
		H3C2.173,2,1.5,2.674,1.5,3.5C1.5,4.328,2.173,5,3,5h2.513L3.5,3h2L8,5.485z"/>
</g>
</svg>
