<svg xmlns="http://www.w3.org/2000/svg" viewBox="0 0 16 16"><style>.icon-canvas-transparent{opacity:0;fill:#f6f6f6}.icon-vs-out{fill:#f6f6f6}.icon-vs-bg{fill:#424242}.icon-vs-fg{fill:#f0eff1}.icon-vs-action-blue{fill:#00539c}</style><path class="icon-canvas-transparent" d="M16 16.001H0v-16h16v16z" id="canvas"/><path class="icon-vs-out" d="M16 8.414l-1 .997v4.59h-4.604l-2.006 2H5v-2H0v-14h15v6.586l1 1v.827z" id="outline"/><path class="icon-vs-bg" d="M5 13.001H1v-12h13v4.586l-.586-.586H13v-2H2v9h3.426L5 12.418v.583zm8-1.596v.596h-.598l-1.003 1H14v-2.593l-1 .997zm-6.552-.404H3V4h9v1.566l-1.366 1.337L10 5H9l.88 2.641-3.432 3.36zM7 6h1V5H7v1zm0 2h1V7H7v1zM5 7V6h1V5H4v3h2V7H5z" id="iconBg"/><path class="icon-vs-fg" d="M7 7h1v1H7V7zm0-1h1V5H7v1zM6 6V5H4v3h2V7H5V6h1zm4.634.903L10 5H9l.88 2.641.754-.738zm-4.186 4.098H3V4h9v1.566l.577-.565H13v-2H2v9h3.426l1.022-1z" id="iconFg"/><path class="icon-vs-action-blue" d="M11 8.001l2 2L9 14l-2-2 4-3.999zm1-1l2 2 1-1-2-2-1 1zm-6 6V15l2 .001" id="colorAction"/></svg>