<svg xmlns="http://www.w3.org/2000/svg" viewBox="0 0 16 16"><style>.st0{opacity:0;fill:#f0eff1}.st1{fill:#f6f6f6}.st2{fill:#424242}.st3{fill:#f0eff1}</style><path class="st0" d="M0 0h16v16H0z" id="outline"/><g id="icon_x5F_bg"><path class="st1" d="M16 6.254c0-.056-.003-.112-.01-.213A6.222 6.222 0 0 0 9.75 0 6.252 6.252 0 0 0 3.5 6.245c0 .184.01.354.026.528.007.078.021.154.032.227H1.586L0 8.586v5.828L1.586 16h8.828L12 14.414v-2.326a6.223 6.223 0 0 0 4-5.834z"/><path class="st2" d="M14.991 6.078a5.246 5.246 0 1 0-10.469.63c.009.099.024.195.039.292H7.08a15.649 15.649 0 0 1-1.627-.442 3.794 3.794 0 0 1-.015-.303c0-.614.131-1.197.361-1.727.514.152 1.087.296 1.725.405a9.79 9.79 0 0 0-.057.943c-.005.368.026.744.067 1.124h.826a9.09 9.09 0 0 1-.077-1.116c.004-.29.023-.566.051-.836a13.551 13.551 0 0 0 1.714.092c.366 0 .737-.012 1.116-.04.028.254.049.513.053.785.004.433-.052.902-.157 1.402-.117.008-.233.004-.35.009l.941.941c.019-.063.048-.133.065-.195a9.548 9.548 0 0 0 2.164-.551A4.296 4.296 0 0 1 12 9.92v1.067a5.24 5.24 0 0 0 3-4.732c0-.06-.008-.118-.009-.177zM7.639 4.121a14.216 14.216 0 0 1-1.427-.328 4.32 4.32 0 0 1 1.976-1.554 9.847 9.847 0 0 0-.549 1.882zm2.115.2a12.703 12.703 0 0 1-1.304-.083 9.12 9.12 0 0 1 .751-2.256c.18-.023.362-.039.549-.039.124 0 .245.008.366.019.351.608.708 1.384.915 2.33-.427.029-.849.033-1.277.029zm1.406-2.137a4.307 4.307 0 0 1 2.151 1.641c-.515.177-1 .3-1.463.372a8.672 8.672 0 0 0-.688-2.013zm2.889 4.352a8.806 8.806 0 0 1-2.136.647 6.907 6.907 0 0 0 .063-2.174 9.373 9.373 0 0 0 1.737-.453 4.29 4.29 0 0 1 .349 1.699c.001.095-.007.187-.013.281z"/><path class="st2" d="M11 11V9l-1-1H2L1 9v5l1 1h8l1-1v-2h-1v-1h1zm-2 2.586L8.586 14H2.414L2 13.586V9.414L2.414 9h6.172L9 9.414v4.172z"/></g><g id="icon_x5F_fg"><path class="st3" d="M11.977 5.009c.545-.085 1.057-.231 1.674-.453.223.521.399 1.095.399 1.699 0 .095.006.187 0 .28a8.8 8.8 0 0 1-2.137.647 6.907 6.907 0 0 0 .064-2.173zM13.311 3.825c-.515.177-1 .3-1.463.372a8.766 8.766 0 0 0-.688-2.013 4.307 4.307 0 0 1 2.151 1.641zM10.414 7l.311.311.335-.024c.105-.5.161-.969.157-1.402a7.913 7.913 0 0 0-.053-.785c-.379.028-.75.055-1.116.055h-.302a13.542 13.542 0 0 1-1.416-.107c-.027.27-.043.546-.047.836-.003.364.009.738.047 1.116h2.084zM9.75 1.943c.124 0 .245.008.366.019.351.608.706 1.384.913 2.33-.428.029-.852.068-1.279.064a12.279 12.279 0 0 1-1.3-.1 9.271 9.271 0 0 1 .751-2.273c.18-.024.362-.04.549-.04zM8.188 2.239a9.847 9.847 0 0 0-.549 1.882 14.216 14.216 0 0 1-1.427-.328 4.32 4.32 0 0 1 1.976-1.554zM7.08 7h.454a9.357 9.357 0 0 1-.067-1.124 9.79 9.79 0 0 1 .057-.943 15.106 15.106 0 0 1-1.725-.404 4.32 4.32 0 0 0-.361 1.727c0 .102.008.202.016.303.463.156 1.02.308 1.626.441zM11.721 8.042c-.018.063-.05.132-.069.196l.348.348v1.306c.889-.559 1.577-1.423 1.88-2.436-.781.294-1.489.5-2.159.586zM8.586 9L9 9.414v4.172L8.586 14H2.414L2 13.586V9.414L2.414 9zM10 11h1v1h-1z"/></g></svg>