<svg xmlns="http://www.w3.org/2000/svg" viewBox="0 0 16 16" enable-background="new 0 0 16 16"><style type="text/css">.icon-canvas-transparent{opacity:0;fill:#F6F6F6;} .icon-vs-out{fill:#F6F6F6;} .icon-vs-bg{fill:#424242;} .icon-vs-blue{fill:#1BA1E2;}</style><path class="icon-canvas-transparent" d="M16 16h-16v-16h16v16z" id="canvas"/><path class="icon-vs-out" d="M1.586 10.301l2.301-2.301h-2.887v-3h2.887l-2.301-2.301 2.113-2.113 2.301 2.301v-2.887h3v2.887l2.301-2.301 2.113 2.113-2.301 2.301h2.887v3h-3.448l5.383 4.994h-3.532l.866 1.966-2.287 1.04h-.867l-.778-1.755-1.598 1.755h-.739v-6.887l-3.301 3.301-2.113-2.113z" id="outline"/><path class="icon-vs-bg" d="M10.766 15l-1.137-2.561-1.629 1.788v-7.231l5.387 4.998h-2.518l1.086 2.465-1.189.541z" id="iconBg"/><g id="colorImportance"><path class="icon-vs-blue" d="M6 7h-4v-1h4v1zm.301 0l-3.301 3.301.699.699 3.301-3.301-.699-.699zm5-5l-3.301 3.301.699.699 3.301-3.301-.699-.699zm-4.301-1v4h1v-4h-1zm-4 1.699l3.301 3.301.699-.699-3.301-3.301-.699.699zm10 3.301h-4v1h4v-1z"/></g></svg>