<svg xmlns="http://www.w3.org/2000/svg" width="16" height="16"><style type="text/css">.icon-canvas-transparent{opacity:0;fill:#F6F6F6;} .icon-vs-out{fill:#F6F6F6;} .icon-vs-bg{fill:#424242;} .icon-vs-fg{fill:#F0EFF1;}</style><path class="icon-canvas-transparent" d="M16 16h-16v-16h16v16z" id="canvas"/><path class="icon-vs-out" d="M16 1v13h-14.414l-1.586-1.586v-9.828l1.586-1.586h14.414z" id="outline"/><path class="icon-vs-bg" d="M13 7h2v1h-2v-1zm-1 1v-1h-2v1h2zm-4 2h1v-1h-1v1zm1-5h-1v3h1v-3zm-3.391-.312l-2.25 2.812 2.25 2.813.781-.625-1.749-2.188 1.75-2.188-.782-.624zm-3.609-2.688l-1 1v9l1 1h13v-1h-13v-9h13v-1h-13z" id="iconBg"/><path class="icon-vs-fg" d="M15 7v-4h-13v9h13v-4h-2v-1h2zm-8.609 2.688l-.781.625-2.251-2.813 2.25-2.813.781.625-1.749 2.188 1.75 2.188zm2.609.312h-1v-1h1v1zm0-2h-1v-3h1v3zm3 0h-2v-1h2v1z" id="iconFg"/></svg>