<svg xmlns="http://www.w3.org/2000/svg" width="16" height="16"><style type="text/css">.icon-canvas-transparent{opacity:0;fill:#F6F6F6;} .icon-vs-out{fill:#F6F6F6;} .icon-vs-bg{fill:#424242;} .icon-vs-fg{fill:#F0EFF1;}</style><path class="icon-canvas-transparent" d="M16 16h-16v-16h16v16z" id="canvas"/><path class="icon-vs-out" d="M2.965 16c-.953 0-1.965-.701-1.965-2v-12c0-1.299 1.012-2 1.964-2h8.059l3.977 3.553v10.447c-.028.825-.593 2-2.035 2h-10z" id="outline"/><path class="icon-vs-bg" d="M10.641,1H2.964C2.964,1,2,1,2,2c0,0.805,0,9.441,0,12c0,1,0.965,1,0.965,1s9,0,10,0 S14,14,14,14V4L10.641,1z M13,14H3V2h7v3h3V14z M10.356,7.293L12.063,9l-1.707,1.707L9.648,10l1-1l-1-1L10.356,7.293z M9,10H7 l0.021-5.003L9,5V10z M9.014,13.028L7,13v-2l2.014,0.019V13.028z M5.733,10.658L4.026,8.951l1.707-1.707L6.44,7.951l-1,1l1,1 L5.733,10.658z" id="iconBg"/><path class="icon-vs-fg" d="M10 5v-3h-7v12h10v-9h-3zm-3.56 4.951l-.707.707-1.707-1.707 1.707-1.707.707.707-1 1 1 1zm.581-4.954l1.979.003v5h-2l.021-5.003zm1.993 8.031l-2.014-.028v-2l2.014.019v2.009zm1.342-2.321l-.708-.707 1-1-1-1 .707-.707 1.708 1.707-1.707 1.707z" id="iconFg"/></svg>