<svg xmlns="http://www.w3.org/2000/svg" width="16" height="16"><style type="text/css">.icon-canvas-transparent{opacity:0;fill:#F6F6F6;} .icon-vs-out{fill:#F6F6F6;} .icon-vs-bg{fill:#424242;}</style><rect class="icon-canvas-transparent" width="16" height="16" id="canvas"/><path class="icon-vs-out" d="M13 4.586l-1.046 1.046c-.232-1.747-2.019-2.632-2.954-2.632h-1c-.935 0-2.722.885-2.954 2.632l-1.046-1.046-3.414 3.414 3.414 3.414 1.043-1.043c.207 1.311 1.458 2.613 2.957 2.629h1c1.499-.016 2.75-1.318 2.957-2.629l1.043 1.043 3-3v-.828l-3-3zm-4 5.414h-1c0-.447-.784-1.677-1-2 0 0 1-1 1-2h1c0 .445.784 1.676 1 2-.216.323-1 1.553-1 2z" id="outline"/><path class="icon-vs-bg" d="M4.5 6.5l-1.5 1.5 1.5 1.5-.5.5-2-2 2-2 .5.5zm1.5-.5c0 .773-.763.984-1 1v2c.258.016 1 .242 1 1 0 .666.333 2 2 2v-1c-.667 0-1-1-1-1 0-.666-.597-1.789-1-2 .403-.215 1-1.334 1-2 0-.672.667-1 1-1v-1c-1.667 0-2 1.334-2 2zm5 0c0-.666-.333-2-2-2v1c.333 0 1 .328 1 1 0 .666.597 1.785 1 2-.403.211-1 1.333-1 2 0 0-.333 1-1 1v1c1.667 0 2-1.334 2-2 0-.758.742-.984 1-1v-2c-.237-.015-1-.226-1-1zm2 0l-.5.5 1.5 1.5-1.5 1.5.5.5 2-2-2-2z" id="iconBg"/></svg>