<svg xmlns="http://www.w3.org/2000/svg" width="16" height="16"><style type="text/css">.icon-canvas-transparent{opacity:0;fill:#F6F6F6;} .icon-vs-out{fill:#F6F6F6;} .icon-vs-bg{fill:#424242;} .icon-vs-blue{fill:#1BA1E2;} .icon-white{fill:#FFFFFF;}</style><path class="icon-canvas-transparent" d="M16 16h-16v-16h16v16z" id="canvas"/><path class="icon-vs-out" d="M13 7.293v-.878l2.414-2.415-3.414-3.414-1.414 1.414h-5.172l-1.414-1.414-3.414 3.414 3.414 3.415 1.414-1.415h.586v4h1.268c-.168.471-.268.973-.268 1.5 0 2.484 2.015 4.5 4.5 4.5s4.5-2.016 4.5-4.5c0-1.955-1.257-3.59-3-4.207zm-8-3.878v1.172l-.586-.587.586-.585zm6 1.171v-1.171l.586.585-.586.586z" id="outline"/><path class="icon-vs-bg" d="M11.5 7h.5v.051c-.166-.02-.329-.051-.5-.051zm-7.5-5l-2 2 2 2 .5-.5-1.5-1.5 1.5-1.5-.5-.5zm6 1h-4v2h4v-2zm2-1l-.5.5 1.5 1.5-1.5 1.5.5.5 2-2-2-2zm-5 7h.76c.807-1.205 2.18-2 3.74-2h-4.5v2z" id="iconBg"/><g id="notificationBg"><path class="icon-vs-blue" d="M11.5 8c-1.933 0-3.5 1.566-3.5 3.5 0 1.932 1.567 3.5 3.5 3.5s3.5-1.568 3.5-3.5c0-1.934-1.567-3.5-3.5-3.5zm.5 6h-1v-1h1v1zm1-3c0 .551-.449 1-1 1v.5h-1v-.5c0-.551.449-1 1-1v-1c-.08-.045-.252-.102-.5-.102s-.42.057-.5.102v1h-1v-1c0-.58.631-1 1.5-1s1.5.42 1.5 1v1z"/><path class="icon-vs-blue" d="M11.5 8c-1.933 0-3.5 1.566-3.5 3.5 0 1.932 1.567 3.5 3.5 3.5s3.5-1.568 3.5-3.5c0-1.934-1.567-3.5-3.5-3.5zm.5 6h-1v-1h1v1zm1-3c0 .551-.449 1-1 1v.5h-1v-.5c0-.551.449-1 1-1v-1c-.08-.045-.252-.102-.5-.102s-.42.057-.5.102v1h-1v-1c0-.58.631-1 1.5-1s1.5.42 1.5 1v1z"/></g><path class="icon-white" d="M13 10v1c0 .551-.449 1-1 1v.5h-1v-.5c0-.551.449-1 1-1v-1c-.08-.045-.252-.102-.5-.102s-.42.057-.5.102v1h-1v-1c0-.58.631-1 1.5-1s1.5.42 1.5 1zm-2 4h1v-1h-1v1z" id="notificationFg"/></svg>