<svg xmlns="http://www.w3.org/2000/svg" width="16" height="16"><style type="text/css">.icon-canvas-transparent{opacity:0;fill:#F6F6F6;} .icon-vs-out{fill:#F6F6F6;} .icon-vs-bg{fill:#424242;} .icon-vs-fg{fill:#F0EFF1;} .icon-vs-blue{fill:#1BA1E2;} .icon-white{fill:#FFFFFF;}</style><path class="icon-canvas-transparent" d="M16 16h-16v-16h16v16z" id="canvas"/><path class="icon-vs-out" d="M13.548 7.514c-.015.033-.057.004-.11-.05l.11.05.161-.352c.193-.535.291-1.15.291-1.828 0-.818-.163-1.576-.481-2.246-.316-.662-.754-1.232-1.301-1.695-.531-.451-1.158-.801-1.863-1.041-.689-.234-1.428-.352-2.197-.352-.611 0-1.196.075-1.733.221-.547.149-1.053.36-1.508.629-.457.272-.874.602-1.239.984-.364.381-.672.811-.921 1.274-.245.461-.435.957-.562 1.475-.13.517-.195 1.064-.195 1.625 0 .855.149 1.648.445 2.361.299.714.724 1.339 1.266 1.851.54.512 1.185.908 1.915 1.178.441.166.921.262 1.417.326l-.017-.162c.049.098.071.168.017.162.216 2.283 2.116 4.076 4.457 4.076 2.485 0 4.5-2.016 4.5-4.5 0-1.744-1.002-3.238-2.452-3.986z" id="outline"/><path class="icon-vs-bg" d="M9.988 6.77l.018-.361.047-.592.061-.713.064-.719.054-.607.03-.383h-1.022l-.06.666h-.024c-.028-.113-.078-.217-.15-.311-.07-.093-.156-.173-.259-.242-.101-.066-.215-.117-.343-.154-.128-.037-.264-.055-.41-.055-.373 0-.715.08-1.024.24-.312.161-.577.383-.801.667-.223.281-.396.617-.519 1.005-.126.387-.187.807-.187 1.258 0 .383.05.717.149 1.004.1.287.233.525.401.717.168.191.364.332.592.426.223.094.461.141.713.141.195 0 .379-.029.554-.088l.282-.151c.182-.204.382-.39.599-.558.104-.16.189-.341.25-.551h.025l.047.311c.294-.189.614-.334.949-.451-.022-.136-.036-.299-.036-.499zm-1.048-.42c-.06.309-.149.574-.272.799-.121.226-.272.404-.452.533-.181.131-.393.195-.636.195-.134 0-.262-.027-.383-.084-.121-.059-.228-.145-.32-.26-.09-.115-.165-.262-.219-.432-.053-.173-.081-.376-.081-.606 0-.264.03-.535.091-.811.061-.275.152-.525.277-.752.123-.223.277-.406.462-.547.184-.143.4-.213.647-.213.135 0 .26.023.377.068.119.048.221.12.311.218.089.098.16.221.21.369.05.148.076.326.076.533 0 .353-.03.683-.088.99zm3.829.475l-.151.332c-.324-.083-.658-.137-1.007-.145.074-.165.142-.343.193-.551.075-.303.113-.646.113-1.029 0-.268-.028-.543-.085-.822-.059-.279-.148-.551-.273-.814-.125-.262-.287-.508-.484-.74-.197-.23-.435-.434-.715-.607-.279-.172-.603-.311-.967-.41-.364-.102-.78-.152-1.248-.152-.582 0-1.123.109-1.619.328s-.924.52-1.286.905c-.357.382-.638.838-.841 1.359-.203.523-.303 1.086-.303 1.691 0 .578.09 1.109.271 1.592.181.484.442.9.785 1.248.342.345.758.617 1.25.812.266.106.555.178.859.227-.097.281-.164.574-.203.877-.379-.055-.743-.137-1.083-.264-.607-.227-1.133-.549-1.575-.967-.442-.42-.786-.923-1.031-1.511-.246-.59-.369-1.25-.369-1.976 0-.48.055-.941.165-1.383.108-.443.268-.859.474-1.244.207-.387.461-.739.763-1.057.303-.316.643-.588 1.024-.813.381-.227.8-.4 1.261-.525.458-.125.948-.186 1.471-.186.666 0 1.291.1 1.877.299.585.199 1.099.484 1.538.857.438.371.787.824 1.044 1.361.254.538.383 1.144.383 1.817 0 .565-.078 1.063-.231 1.491z" id="iconBg"/><path class="icon-vs-fg" d="M8.952 4.827c.05.148.076.326.076.533 0 .354-.03.684-.088.99-.06.309-.149.574-.272.799-.121.226-.272.404-.452.533-.181.131-.393.195-.636.195-.134 0-.262-.027-.383-.084-.121-.059-.228-.145-.32-.26-.09-.115-.165-.262-.219-.432-.053-.173-.081-.376-.081-.606 0-.264.03-.535.091-.811.061-.275.152-.525.277-.752.123-.223.277-.406.462-.547.184-.143.4-.213.647-.213.135 0 .26.023.377.068.119.048.221.12.311.218.089.097.16.22.21.369z" id="iconFg"/><path class="icon-vs-blue" d="M11.5 8c-1.933 0-3.5 1.566-3.5 3.5 0 1.932 1.567 3.5 3.5 3.5s3.5-1.568 3.5-3.5c0-1.934-1.567-3.5-3.5-3.5zm.5 6h-1v-1h1v1zm1-3c0 .551-.449 1-1 1v.5h-1v-.5c0-.551.449-1 1-1v-1c-.08-.045-.252-.102-.5-.102s-.42.057-.5.102v1h-1v-1c0-.58.631-1 1.5-1s1.5.42 1.5 1v1z" id="notificationBg"/><path class="icon-white" d="M13 10v1c0 .551-.449 1-1 1v.5h-1v-.5c0-.551.449-1 1-1v-1c-.08-.045-.252-.102-.5-.102s-.42.057-.5.102v1h-1v-1c0-.58.631-1 1.5-1s1.5.42 1.5 1zm-2 4h1v-1h-1v1z" id="notificationFg"/></svg>