<svg xmlns="http://www.w3.org/2000/svg" width="16" height="16"><style type="text/css">.icon-canvas-transparent{opacity:0;fill:#F6F6F6;} .icon-vs-out{fill:#F6F6F6;} .icon-vs-bg{fill:#424242;} .icon-vs-green{fill:#339933;} .icon-white{fill:#FFFFFF;}</style><path class="icon-canvas-transparent" d="M16 16h-16v-16h16v16z" id="canvas"/><path class="icon-vs-out" d="M3 11v-3.585l1 1 2-2 2 2 4.414-4.415-4-4h-.828l-1.586 1.586-1.586-1.586h-.828l-3.586 3.586v.828l.586.586h-.586v9h7v-3h-4zm3-8.585l1.586 1.585-1.586 1.586-1.586-1.586 1.586-1.585zm10 9.085c0 2.484-2.015 4.5-4.5 4.5s-4.5-2.016-4.5-4.5c0-2.486 2.015-4.5 4.5-4.5s4.5 2.014 4.5 4.5z" id="outline"/><path class="icon-vs-bg" d="M2 12h4v1h-5v-7h1v6zm3-6l-2-2 2-2-1-1-3 3 3 3 1-1zm3-5l-1 1 2 2-2 2 1 1 3-3-3-3z" id="iconBg"/><path class="icon-vs-green" d="M11.5 8c-1.93 0-3.5 1.57-3.5 3.5s1.57 3.5 3.5 3.5 3.5-1.57 3.5-3.5-1.57-3.5-3.5-3.5zm0 6h-1.125l-1.125-2h1.125l.563.75 1.687-3.75h1.125l-2.25 5z" id="notificationBg"/><path class="icon-white" d="M11.5 14h-1.125l-1.125-2h1.125l.563.75 1.687-3.75h1.125l-2.25 5z" id="notificationFg"/></svg>