<svg xmlns="http://www.w3.org/2000/svg" width="16" height="16"><style type="text/css">.icon-canvas-transparent{opacity:0;fill:#F6F6F6;} .icon-vs-out{fill:#F6F6F6;} .icon-vs-bg{fill:#424242;}</style><path class="icon-canvas-transparent" d="M16 16h-16v-16h16v16z" id="canvas"/><path class="icon-vs-out" d="M16 11.586v.828l-3 3-1.914-1.914 1.5-1.5-1.5-1.5 1.914-1.915 3 3.001zm-5.086-1.086l-1.5 1.5 1.5 1.5-1.914 1.914-2-2v.586h-7v-9h.586l-.586-.586v-.828l3.586-3.586h.828l1.586 1.586 1.586-1.586h.828l4 4-4.414 4.414-2-2-2 2-1-1v3.586h3.586l2.414-2.415 1.914 1.915zm-6.5-6.5l1.586 1.586 1.586-1.586-1.586-1.586-1.586 1.586z" id="outline"/><path class="icon-vs-bg" d="M9.5 10.5l-1.5 1.5 1.5 1.5-.5.5-2-2 2-2 .5.5zm-4.5-4.5l-2-2 2-2-1-1-3 3 3 3 1-1zm-3 0h-1v7h5v-1h-4v-6zm11 4l-.5.5 1.5 1.5-1.5 1.5.5.5 2-2-2-2zm-6-8l2 2-2 2 1 1 3-3-3-3-1 1z" id="iconBg"/></svg>