<svg xmlns="http://www.w3.org/2000/svg" width="16" height="16"><style type="text/css">.icon-canvas-transparent{opacity:0;fill:#F6F6F6;} .icon-vs-out{fill:#F6F6F6;} .icon-vs-bg{fill:#424242;} .icon-vs-fg{fill:#F0EFF1;} .icon-vs-green{fill:#339933;} .icon-white{fill:#FFFFFF;}</style><path class="icon-canvas-transparent" d="M16 16h-16v-16h16v16z" id="canvas"/><path class="icon-vs-out" d="M14 5.334c0 .678-.098 1.293-.291 1.828-.194.538-.459 1.005-.787 1.385-.344.398-1.262.945-1.302.96v1.715l-.6.26c-.139.061-.31.123-.511.188-.191.064-.424.121-.685.172-.257.047-.53.084-.834.113l-.037.004c-.231 2.266-2.125 4.041-4.453 4.041-2.485 0-4.5-2.016-4.5-4.5 0-1.633.877-3.047 2.178-3.836-.107-.463-.178-.945-.178-1.456 0-.561.065-1.108.195-1.625.127-.518.316-1.014.562-1.475.249-.463.558-.893.921-1.273.365-.383.782-.713 1.239-.985.455-.27.961-.48 1.508-.629.537-.146 1.122-.221 1.733-.221.769 0 1.508.117 2.197.352.705.24 1.332.59 1.863 1.041.547.463.984 1.033 1.301 1.695.318.67.481 1.428.481 2.246z" id="outline"/><path class="icon-vs-bg" d="M10.107 9.82l.513-.203v.949c-.112.051-.251.1-.416.152-.163.053-.354.1-.57.141-.203.037-.437.068-.688.096-.037-.301-.102-.59-.194-.869l.106-.006c.24-.025.462-.059.67-.102.205-.042.4-.095.579-.158zm2.893-4.486c0 .564-.078 1.063-.231 1.49-.154.426-.357.783-.605 1.072-.25.287-.531.506-.846.652-.316.146-.635.219-.959.219-.43 0-.758-.123-.988-.365-.228-.243-.343-.573-.343-.993h-.025c-.063.221-.151.414-.264.58-.112.166-.239.306-.387.422-.124.095-.266.164-.412.22-.614-.735-1.446-1.274-2.411-1.501-.039-.204-.066-.419-.066-.661 0-.451.062-.871.188-1.258.123-.389.296-.725.519-1.006.223-.283.488-.505.8-.665.31-.16.651-.24 1.024-.24.146 0 .282.018.41.055.128.037.242.088.343.154.103.068.189.148.259.241.072.094.122.197.15.311h.024l.06-.666h1.021l-.03.383-.054.607-.064.719-.061.713-.047.592-.017.361c0 .223.015.404.043.547.028.143.068.256.119.34.051.082.111.141.185.172.073.033.152.049.237.049.175 0 .344-.053.505-.164.163-.109.306-.27.429-.482.123-.211.223-.467.298-.77.075-.303.113-.646.113-1.029 0-.268-.028-.543-.085-.822-.059-.279-.148-.551-.273-.814-.125-.262-.287-.508-.484-.74-.197-.23-.435-.434-.715-.607-.279-.172-.603-.311-.967-.41-.364-.102-.78-.152-1.248-.152-.582 0-1.123.109-1.619.328s-.924.519-1.286.904c-.357.382-.638.838-.841 1.359-.203.523-.303 1.086-.303 1.691 0 .301.027.588.076.863-.376.027-.735.1-1.08.214-.061-.33-.092-.676-.092-1.039 0-.48.055-.941.165-1.383.108-.443.268-.859.474-1.244.207-.387.461-.739.763-1.057.303-.316.643-.588 1.024-.813.381-.227.8-.4 1.261-.525.458-.125.948-.186 1.471-.186.666 0 1.291.1 1.877.299.585.199 1.099.484 1.538.857.438.371.787.824 1.044 1.361.254.538.383 1.144.383 1.817zm-3.972.026c0-.207-.026-.385-.076-.533-.05-.148-.121-.271-.21-.369-.09-.098-.192-.17-.31-.217-.118-.045-.243-.069-.377-.069-.247 0-.464.07-.647.213-.185.141-.34.324-.463.547-.125.227-.216.477-.277.752-.061.275-.091.547-.091.811 0 .23.028.434.081.607.054.17.129.316.219.432.093.115.199.201.32.26.121.056.249.083.383.083.243 0 .455-.064.636-.195.181-.129.331-.307.452-.533.123-.225.213-.49.272-.799.058-.307.088-.637.088-.99z" id="iconBg"/><path class="icon-vs-fg" d="M8.742 4.458c.089.098.16.223.21.367.05.15.076.328.076.535 0 .354-.03.684-.088.992-.06.305-.149.572-.272.799-.121.224-.272.402-.452.533-.181.129-.393.193-.636.193-.134 0-.262-.027-.383-.086-.121-.054-.227-.142-.32-.257-.09-.115-.164-.262-.219-.432-.053-.174-.081-.375-.081-.607 0-.264.03-.535.091-.811.061-.277.152-.527.277-.75.123-.225.277-.406.462-.551.184-.141.4-.213.646-.213.136 0 .261.023.378.07.119.048.221.12.311.218" id="iconFg"/><path class="icon-vs-green" d="M8 11.5c0 1.932-1.567 3.5-3.5 3.5s-3.5-1.568-3.5-3.5c0-1.934 1.567-3.5 3.5-3.5.918 0 1.747.361 2.372.94l-3.372 3.353-1.146-1.147-.707.707 1.853 1.854 3.993-3.996c.315.525.507 1.133.507 1.789z" id="notificationBg"/><path class="icon-white" d="M3.5 12.293l3.361-3.361c.248.228.459.49.633.781l-3.994 3.994-1.854-1.853.707-.707 1.147 1.146z" id="notificationFg"/></svg>