<svg xmlns="http://www.w3.org/2000/svg" width="16" height="16"><style type="text/css">.icon-canvas-transparent{opacity:0;fill:#F6F6F6;} .icon-vs-out{fill:#F6F6F6;} .icon-vs-bg{fill:#424242;} .icon-vs-blue{fill:#1BA1E2;} .icon-white{fill:#FFFFFF;}</style><path class="icon-canvas-transparent" d="M16 16h-16v-16h16v16z" id="canvas"/><path class="icon-vs-out" d="M3 11v-3.585l1 1 2-2 2 2 4.414-4.415-4-4h-.828l-1.586 1.586-1.586-1.586h-.828l-3.586 3.586v.828l.586.586h-.586v9h7v-3h-4zm3-8.585l1.586 1.585-1.586 1.586-1.586-1.586 1.586-1.585zm10 9.085c0 2.484-2.015 4.5-4.5 4.5s-4.5-2.016-4.5-4.5c0-2.486 2.015-4.5 4.5-4.5s4.5 2.014 4.5 4.5z" id="outline"/><path class="icon-vs-bg" d="M4 7l-3-3 3-3 1 1-2 2 2 2-1 1zm-2-1h-1v7h5v-1h-4v-6zm6-5l-1 1 2 2-2 2 1 1 3-3-3-3z" id="iconBg"/><path class="icon-vs-blue" d="M11.5 8c-1.933 0-3.5 1.566-3.5 3.5 0 1.932 1.567 3.5 3.5 3.5s3.5-1.568 3.5-3.5c0-1.934-1.567-3.5-3.5-3.5zm.5 6h-1v-1h1v1zm1-3c0 .551-.449 1-1 1v.5h-1v-.5c0-.551.449-1 1-1v-1c-.08-.045-.252-.102-.5-.102s-.42.057-.5.102v1h-1v-1c0-.58.631-1 1.5-1s1.5.42 1.5 1v1z" id="notificationBg"/><path class="icon-white" d="M13 10v1c0 .551-.449 1-1 1v.5h-1v-.5c0-.551.449-1 1-1v-1c-.08-.045-.252-.102-.5-.102s-.42.057-.5.102v1h-1v-1c0-.58.631-1 1.5-1s1.5.42 1.5 1zm-2 4h1v-1h-1v1z" id="notificationFg"/></svg>