<svg xmlns="http://www.w3.org/2000/svg" width="16" height="16"><style type="text/css">.icon-canvas-transparent{opacity:0;fill:#F6F6F6;} .icon-vs-out{fill:#F6F6F6;} .icon-vs-bg{fill:#424242;} .icon-vs-green{fill:#339933;} .icon-white{fill:#FFFFFF;}</style><path class="icon-canvas-transparent" d="M16 16h-16v-16h16v16z" id="canvas"/><path class="icon-vs-out" d="M13 5.415l2.414-2.415-3-3h-.828l-1 1h-5.172l-1-1h-.828l-3 3 3.414 3.415 1.414-1.415h.586v2.275c-.472-.167-.971-.275-1.5-.275-2.485 0-4.5 2.014-4.5 4.5 0 2.484 2.015 4.5 4.5 4.5 1.956 0 3.604-1.256 4.225-3h6.275v-4h-2v-3.585zm-9-.415l-2-2 2-2 .5.5-1.5 1.5 1.5 1.5-.5.5zm1-2.585v1.172l-.586-.587.586-.585zm7-1.415l2 2-2 2-.5-.5 1.5-1.5-1.5-1.5.5-.5zm-1 2.586v-1.171l.586.585-.586.586z" id="outline"/><path class="icon-vs-bg" d="M4.5 1.5l-1.5 1.5 1.5 1.5-.5.5-2-2 2-2 .5.5zm7.5 3.5l2-2-2-2-.5.5 1.5 1.5-1.5 1.5.5.5zm0 1h-5v1.76l.297.24h4.703v-2zm-3 6h5v-2h-5v2zm1-10h-4v2h4v-2z" id="iconBg"/><path class="icon-vs-green" d="M8 11.5c0 1.932-1.567 3.5-3.5 3.5s-3.5-1.568-3.5-3.5c0-1.934 1.567-3.5 3.5-3.5.828 0 1.58.301 2.18.781l-3.18 3.18-1.146-1.146-.707.707 1.853 1.853 3.87-3.869c.396.566.63 1.252.63 1.994z" id="notificationBg"/><path class="icon-white" d="M3.5 11.961l3.18-3.18c.262.211.499.447.69.725l-3.87 3.869-1.854-1.854.707-.707 1.147 1.147z" id="notificationFg"/></svg>