<svg xmlns="http://www.w3.org/2000/svg" width="16" height="16"><style type="text/css">.icon-canvas-transparent{opacity:0;fill:#F6F6F6;} .icon-vs-out{fill:#F6F6F6;} .icon-vs-bg{fill:#424242;}</style><path class="icon-canvas-transparent" d="M16 16h-16v-16h16v16z" id="canvas"/><path class="icon-vs-out" d="M4.914 11.502l-1.5 1.5 1.5 1.5-1.499 1.498h-.83l-2.585-2.584v-.828l3-3 .002.002c-.217-.317-.404-.656-.557-1.02-.296-.713-.445-1.506-.445-2.362 0-.561.065-1.107.195-1.625.127-.517.317-1.013.562-1.474.249-.463.558-.893.921-1.273.365-.383.782-.713 1.239-.985.455-.27.961-.48 1.508-.629.537-.146 1.122-.221 1.733-.221.769 0 1.508.117 2.197.352.705.24 1.332.59 1.863 1.041.547.463.984 1.033 1.301 1.695.318.67.481 1.428.481 2.246 0 .678-.098 1.293-.291 1.828-.194.537-.459 1.004-.787 1.385-.344.399-1.262.946-1.302.962v1.715l-.6.26c-.139.061-.31.123-.511.188-.191.064-.424.121-.685.172l-.501.068 1.09 1.09-2.998 2.997h-.83l-1.499-1.498 1.5-1.5-1.5-1.5h-.172z" id="outline"/><path class="icon-vs-bg" d="M3.5 11.502l-1.5 1.5 1.5 1.5-.5.5-2-2 2-2 .5.5zm9.5-6.167c0 .564-.078 1.063-.231 1.49-.154.426-.357.783-.604 1.072-.25.287-.531.506-.846.652-.315.146-.635.219-.959.219-.43 0-.758-.123-.988-.365-.229-.243-.344-.573-.344-.993h-.025c-.064.22-.151.414-.264.58s-.239.306-.387.422c-.145.111-.307.199-.48.257-.175.059-.358.088-.554.088-.252 0-.49-.047-.713-.141-.227-.093-.423-.234-.591-.425s-.302-.43-.401-.717-.15-.621-.15-1.004c0-.451.062-.871.188-1.258.123-.389.296-.725.519-1.006.223-.283.488-.505.8-.665.309-.161.651-.241 1.024-.241.146 0 .282.018.41.055s.242.088.343.154c.103.069.189.149.259.242.072.094.122.197.15.311h.024l.06-.666h1.021l-.03.383-.054.607-.064.719-.061.713-.047.592-.017.361c0 .223.015.404.043.547.029.142.069.256.119.34.051.082.111.141.185.172.073.033.152.049.237.049.175 0 .344-.053.505-.164.163-.109.306-.27.429-.482.123-.211.223-.467.298-.77s.113-.646.113-1.029c0-.268-.028-.543-.085-.822-.059-.279-.148-.551-.273-.814-.125-.262-.287-.508-.484-.74-.197-.23-.435-.434-.715-.607-.279-.172-.603-.311-.967-.41-.364-.102-.78-.152-1.248-.152-.582 0-1.123.109-1.619.328s-.924.519-1.286.904c-.357.382-.638.837-.841 1.359-.203.523-.303 1.086-.303 1.691 0 .578.09 1.109.271 1.592.181.484.442.9.785 1.249.342.345.758.617 1.25.812.494.195 1.053.295 1.677.295.28 0 .54-.014.778-.037.24-.025.462-.059.67-.102.206-.043.4-.096.58-.158l.513-.203v.949c-.112.051-.251.1-.416.152-.163.053-.354.1-.57.141-.218.039-.464.074-.738.102-.273.027-.578.039-.914.039-.73 0-1.4-.113-2.008-.338-.607-.227-1.133-.549-1.575-.967-.442-.42-.786-.924-1.031-1.512-.245-.59-.368-1.25-.368-1.977 0-.48.055-.941.165-1.383.108-.443.268-.859.474-1.244.207-.386.461-.738.763-1.056.303-.316.643-.588 1.024-.813.381-.227.8-.4 1.261-.525.457-.125.947-.186 1.471-.186.666 0 1.291.1 1.877.299.585.199 1.099.484 1.538.857.439.371.787.824 1.044 1.361.254.538.383 1.144.383 1.817zm-3.972.026c0-.207-.026-.385-.076-.533s-.121-.271-.21-.369c-.09-.098-.192-.17-.311-.217-.117-.045-.242-.069-.376-.069-.247 0-.464.07-.647.213-.185.141-.34.324-.463.547-.125.227-.216.477-.277.752s-.091.547-.091.811c0 .23.028.434.081.607.054.17.129.316.219.432.093.115.199.201.32.26.121.056.249.083.383.083.243 0 .455-.064.636-.195.18-.129.331-.307.452-.533.123-.225.213-.49.272-.799.058-.307.088-.637.088-.99zm-2.528 6.141l1.5 1.5-1.5 1.5.5.5 2-2-2-2-.5.5z" id="iconBg"/></svg>