<svg xmlns="http://www.w3.org/2000/svg" width="16" height="16"><style type="text/css">.icon-canvas-transparent{opacity:0;fill:#F6F6F6;} .icon-vs-out{fill:#F6F6F6;} .icon-vs-bg{fill:#424242;}</style><path class="icon-canvas-transparent" d="M16 16h-16v-16h16v16z" id="canvas"/><path class="icon-vs-out" d="M13 6.414l2.414-2.414-3.414-3.414-1.414 1.414h-5.172l-1.414-1.414-3.414 3.414 3.414 3.414 1.414-1.414h.586v4h2v4h7v-4h-2v-3.586zm-8-3v1.172l-.586-.586.586-.586zm6 1.172v-1.172l.586.586-.586.586z" id="outline"/><path class="icon-vs-bg" d="M4.5 2.5l-1.5 1.5 1.5 1.5-.5.5-2-2 2-2 .5.5zm7.5 3.5l2-2-2-2-.5.5 1.5 1.5-1.5 1.5.5.5zm0 1h-5v2h5v-2zm-2-4h-4v2h4v-2zm-1 10h5v-2h-5v2z" id="iconBg"/></svg>