<svg xmlns="http://www.w3.org/2000/svg" width="16" height="16"><style type="text/css">.icon-canvas-transparent{opacity:0;fill:#F6F6F6;} .icon-vs-out{fill:#F6F6F6;} .icon-vs-bg{fill:#424242;} .icon-vs-fg{fill:#F0EFF1;}</style><path class="icon-canvas-transparent" d="M16 16h-16v-16h16v16z" id="canvas"/><path class="icon-vs-out" d="M1.586 14l-1.586-1.586v-9.828l1.586-1.586h14.414v13h-14.414z" id="outline"/><path class="icon-vs-bg" d="M2 3v9h13v1h-13l-1-1v-9l1-1h13v1h-13zm4.391 6.688l-1.75-2.188 1.75-2.188-.782-.624-2.25 2.812 2.25 2.813.782-.625zm2.609.312h1v-1h-1v1zm.5-5c-.869 0-1.5.42-1.5 1v1h1v-1c.08-.044.252-.102.5-.102s.42.058.5.102v1c-.551 0-1 .449-1 1v.5h1v-.5c.551 0 1-.449 1-1v-1c0-.58-.631-1-1.5-1z" id="iconBg"/><path class="icon-vs-fg" d="M2 3v9h13v-9h-13zm4.391 6.688l-.781.625-2.251-2.813 2.25-2.813.781.625-1.749 2.188 1.75 2.188zm3.609.312h-1v-1h1v1zm1-3c0 .551-.449 1-1 1v.5h-1v-.5c0-.551.449-1 1-1v-1c-.08-.044-.252-.102-.5-.102s-.42.058-.5.102v1h-1v-1c0-.58.631-1 1.5-1s1.5.42 1.5 1v1z" id="iconFg"/></svg>