<svg xmlns="http://www.w3.org/2000/svg" width="16" height="16"><style type="text/css">.icon-canvas-transparent{opacity:0;fill:#F6F6F6;} .icon-vs-out{fill:#F6F6F6;} .icon-vs-bg{fill:#424242;} .icon-vs-fg{fill:#F0EFF1;}</style><path class="icon-canvas-transparent" d="M16 16h-16v-16h16v16z" id="canvas"/><path class="icon-vs-out" d="M16 15h-5.586l-1 1h-1.414v-.545c-.524.338-1.213.545-2 .545s-1.476-.207-2-.545v.545h-1.414l-1-1h-1.586v-14h16v14z" id="outline"/><path class="icon-vs-bg" d="M15 2v12h-3.586l1-1h1.586v-8h-12v5.586l-1 1v-9.586h14zm-4 11l-2 2v-1l1-1-1-1v-1l2 2zm-8-2v1l-1 1 1 1v1l-2-2 2-2zm3-1c-1.104 0-2 .537-2 1.199v2.6c0 .664.896 1.201 2 1.201s2-.537 2-1.201v-2.6c0-.662-.896-1.199-2-1.199zm0 1.949c-.858 0-1.5-.394-1.5-.75 0-.353.642-.75 1.5-.75s1.5.397 1.5.75c0 .356-.642.75-1.5.75z" id="iconBg"/><path class="icon-vs-fg" d="M14 5v8h-1.586l-4-4h-.414v.545c-.524-.338-1.213-.545-2-.545s-1.476.207-2 .545v-.545h-.414l-1.586 1.586v-5.586h12zm-8 6.949c-.858 0-1.5-.394-1.5-.75 0-.353.642-.75 1.5-.75s1.5.397 1.5.75c0 .356-.642.75-1.5.75z" id="iconFg"/></svg>