<svg xmlns="http://www.w3.org/2000/svg" width="16" height="16"><style type="text/css">.icon-canvas-transparent{opacity:0;fill:#F6F6F6;} .icon-vs-out{fill:#F6F6F6;} .icon-vs-bg{fill:#424242;} .icon-vs-fg{fill:#F0EFF1;} .icon-vs-red{fill:#E51400;} .icon-white{fill:#FFFFFF;}</style><path class="icon-canvas-transparent" d="M16 16h-16v-16h16v16z" id="canvas"/><path class="icon-vs-out" d="M16 11.5c0 2.485-2.015 4.5-4.5 4.5-1.112 0-2.116-.419-2.902-1.087-.507.657-1.452 1.087-2.598 1.087-.787 0-1.476-.207-2-.545v.545h-1.414l-2.586-2.586v-.828l2-2v-8.585c0-1.875 1.938-2 1.938-2h6.122l3.94 3.555v4.204c1.205.807 2 2.18 2 3.74z" id="outline"/><path class="icon-vs-bg" d="M3 11v1l-1 1 1 1v1l-2-2 2-2zm4.023.729c-.264.13-.617.22-1.023.22-.857 0-1.5-.394-1.5-.749s.643-.751 1.5-.751c.435 0 .813.102 1.081.248l.118-.452c-.334-.151-.747-.245-1.199-.245-1.104 0-2 .537-2 1.2v2.6c0 .663.896 1.2 2 1.2.89 0 1.634-.351 1.894-.832-.511-.689-.824-1.525-.871-2.439zm-3.023-2.729v-7h5v3h3v2.034l.11.04.89.341v-3.415l-3.359-3h-5.677s-.964 0-.964 1v7h1z" id="iconBg"/><path class="icon-vs-fg" d="M7.023 11.729c-.264.13-.617.22-1.023.22-.857 0-1.5-.394-1.5-.749s.643-.751 1.5-.751c.435 0 .813.102 1.081.248-.047.262-.081.528-.081.803l.023.229zm4.477-4.729c.171 0 .334.032.5.051v-2.051h-3v-3h-5v7h2c.594 0 1.131.12 1.587.321.77-1.377 2.226-2.321 3.913-2.321z" id="iconFg"/><path class="icon-vs-red" d="M11.5 8c-1.933 0-3.5 1.567-3.5 3.5s1.567 3.5 3.5 3.5 3.5-1.567 3.5-3.5-1.567-3.5-3.5-3.5zm1.854 4.646l-.707.707-1.147-1.146-1.146 1.147-.707-.707 1.147-1.146-1.147-1.146.707-.707 1.146 1.147 1.146-1.147.707.707-1.146 1.145 1.147 1.146z" id="notificationBg"/><path class="icon-white" d="M12.207 11.5l1.147 1.146-.707.707-1.147-1.146-1.146 1.147-.707-.707 1.147-1.146-1.147-1.146.707-.707 1.146 1.147 1.146-1.147.707.707-1.146 1.145z" id="notificationFg"/></svg>