<svg xmlns="http://www.w3.org/2000/svg" width="16" height="16"><style type="text/css">.icon-canvas-transparent{opacity:0;fill:#F6F6F6;} .icon-vs-out{fill:#F6F6F6;} .icon-vs-bg{fill:#424242;} .icon-vs-fg{fill:#F0EFF1;} .icon-vs-yellow{fill:#FFCC00;}</style><path class="icon-canvas-transparent" d="M16 16h-16v-16h16v16z" id="canvas"/><path class="icon-vs-out" d="M16 14l-1 2h-7l-.209-.419c-.495.262-1.106.419-1.791.419-.787 0-1.476-.207-2-.545v.545h-1.414l-2.586-2.586v-.828l2-2v-8.586c0-2 2-2 2-2h6.061l3.939 3.556v6.444l2 4z" id="outline"/><path class="icon-vs-bg" d="M3 11v1l-1 1 1 1v1l-2-2 2-2zm4.342 3.685c-.355.194-.823.315-1.342.315-1.104 0-2-.537-2-1.2v-2.6c0-.663.896-1.2 2-1.2 1.105 0 2 .537 2 1.2v.8l-1 2 .342.685zm-1.342-2.736c.859 0 1.5-.394 1.5-.749s-.641-.751-1.5-.751c-.857 0-1.5.397-1.5.751s.643.749 1.5.749zm-2-2.949v-7h5v3h3v2.034l.11.04.89.341v-3.415l-3.359-3h-5.677s-.964 0-.964 1v7h1z" id="iconBg"/><path class="icon-vs-fg" d="M6 9h-2v-7h5v3h3v2h-1.5l-1.699 3.398c-.42-.833-1.482-1.398-2.801-1.398zm1.5 2.2c0-.354-.641-.751-1.5-.751-.857 0-1.5.397-1.5.751s.643.749 1.5.749c.859 0 1.5-.394 1.5-.749z" id="iconFg"/><path class="icon-vs-yellow" d="M11.891 8.016h-.781l-3.016 6 .515.984h5.766l.484-1-2.968-5.984zm.109 5.984h-1v-1h1v1zm0-2h-1v-2h1v2z" id="notificationBg"/><path class="icon-black" d="M12 12h-1v-2h1v2zm0 1h-1v1h1v-1z" id="notificationFg"/></svg>