<svg xmlns="http://www.w3.org/2000/svg" width="16" height="16"><style type="text/css">.icon-canvas-transparent{opacity:0;fill:#F6F6F6;} .icon-vs-out{fill:#F6F6F6;} .icon-vs-bg{fill:#424242;}</style><path class="icon-canvas-transparent" d="M16 16h-16v-16h16v16z" id="canvas"/><path class="icon-vs-out" d="M9 16v-5h-1v5h-7v-5h2v-3h4v-1.584l-1 .998-3.414-3.414 3.414-3.414 1.914 1.914-1.498 1.5.999 1h2.17l.999-1-1.498-1.5 1.914-1.914 3.414 3.414-3.414 3.414-1-.998v1.584h4v3h2v5h-7z" id="outline"/><path class="icon-vs-bg" d="M3.999 4l2 2 .5-.5-1.5-1.5 1.5-1.5-.5-.5-2 2zm9 0l-2-2-.5.5 1.5 1.5-1.5 1.5.5.5 2-2zm-9 5h4v-3h1v3h4v3h2v3h-5v-3h2v-2h-7v2h2v3h-5v-3h2v-3z" id="iconBg"/></svg>