<svg xmlns="http://www.w3.org/2000/svg" width="16" height="16"><style type="text/css">.icon-canvas-transparent{opacity:0;fill:#F6F6F6;} .icon-vs-out{fill:#F6F6F6;} .icon-vs-bg{fill:#424242;} .icon-vs-fg{fill:#F0EFF1;}</style><path class="icon-canvas-transparent" d="M16 16h-16v-16h16v16z" id="canvas"/><path class="icon-vs-out" d="M1.586 14l-1.586-1.586v-9.828l1.586-1.586h14.414v13h-14.414z" id="outline"/><path class="icon-vs-bg" d="M15 3h-13v9h13v1h-13l-1-1v-9l1-1h13v1zm-5 3v-1h-2v5h2v-1h-1v-3h1zm-4.391-1.312l-2.25 2.812 2.25 2.813.781-.625-1.749-2.188 1.75-2.188-.782-.624z" id="iconBg"/><path class="icon-vs-fg" d="M2 3v9h13v-9h-13zm4.391 6.688l-.781.625-2.251-2.813 2.25-2.813.781.625-1.749 2.188 1.75 2.188zm3.609-3.688h-1v3h1v1h-2v-5h2v1z" id="iconFg"/></svg>