<svg xmlns="http://www.w3.org/2000/svg" width="16" height="16"><style type="text/css">.icon-canvas-transparent{opacity:0;fill:#F6F6F6;} .icon-vs-out{fill:#F6F6F6;} .icon-vs-bg{fill:#424242;} .icon-vs-fg{fill:#F0EFF1;}</style><path class="icon-canvas-transparent" d="M16 16h-16v-16h16v16z" id="canvas"/><path class="icon-vs-out" d="M16 6v9h-7v-8h-1v8h-7v-9h2v-2h2v-4h7v4h2v2h2z" id="outline"/><path class="icon-vs-bg" d="M15 10v-3h-2v-2h-4v-1h2v-3h-5v3h2v1h-4v2h-2v3h2v1h-2v3h5v-3h-2v-1h2v-3h-2v-1h7v1h-2v3h2v1h-2v3h5v-3h-2v-1h2zm-8-7v-1h3v1h-3zm7 9v1h-3v-1h3zm-3-3v-1h3v1h-3z" id="iconBg"/><path class="icon-vs-fg" d="M7 2h3v1h-3v-1zm4 11h3v-1h-3v1zm0-5v1h3v-1h-3z" id="iconFg"/></svg>