<svg xmlns="http://www.w3.org/2000/svg" width="16" height="16"><style type="text/css">.icon-canvas-transparent{opacity:0;fill:#F6F6F6;} .icon-vs-out{fill:#F6F6F6;} .icon-vs-bg{fill:#424242;}</style><path class="icon-canvas-transparent" d="M16 16h-16v-16h16v16z" id="canvas"/><path class="icon-vs-out" d="M16 4v12h-12v-4.349c-2.329-.825-4-3.04-4-5.651 0-3.313 2.687-6 6-6 2.611 0 4.826 1.671 5.651 4h4.349z" id="outline"/><path class="icon-vs-bg" d="M11 5.995c0-2.761-2.238-5-5-5-2.761 0-5 2.239-5 5 0 2.762 2.239 5 5 5 2.762 0 5-2.238 5-5zm-9 .003c.001-2.208 1.792-3.998 4-3.998s3.998 1.79 4 3.998c-.002 2.207-1.792 3.997-4 3.997s-3.999-1.79-4-3.997zm13-.998v10h-10v-3.09c.326.055.659.09 1 .09v2h8v-8h-2c0-.341-.035-.674-.09-1h3.09zm-6 0v1h-3v3h-1v-4h4z" id="iconBg"/></svg>