<svg xmlns="http://www.w3.org/2000/svg" width="16" height="16"><style type="text/css">.icon-canvas-transparent{opacity:0;fill:#F6F6F6;} .icon-vs-out{fill:#F6F6F6;} .icon-vs-bg{fill:#424242;} .icon-vs-action-blue{fill:#00539C;}</style><path class="icon-canvas-transparent" d="M16 16h-16v-16h16v16z" id="canvas"/><path class="icon-vs-out" d="M15 5v-1h-1v-4h-10.414l-3.586 3.586v.414h2.586l-2.586 2.586v8.414h7v-3h-1v-1h2v-2h3v-2h1v2h4v-4h-1zm-10 3h-1.586l1.586-1.586v1.586zm2 0h-.586l.586-.586v.586z" id="outline"/><path class="icon-vs-bg" d="M14 6v-1h-2v-1h1v-3h-3v3h1v1h-2v1h-1v2h2v-2h3v2h2v-2h-1zm-13 4h6v-1h-6v1zm4 1h-4v1h4v-1zm-4 3h5v-1h-5v1z" id="iconBg"/><path class="icon-vs-action-blue" d="M5 3h-3l2-2h4v4l-2 2v-3l-3 3h-2l4-4z" id="colorAction"/></svg>