<svg xmlns="http://www.w3.org/2000/svg" viewBox="0 0 16 16"><style>.st0{opacity:0}.st0,.st1{fill:#f6f6f6}.st2{fill:#424242}.st3{fill:#f0eff1}</style><g id="outline"><path class="st0" d="M0 0h16v16H0z"/><path class="st0" d="M0 0h16v16H0z"/><path class="st1" d="M2.965 16C2.012 16 1 15.299 1 14V2C1 .701 2.012 0 2.964 0h8.059L15 3.553V14c-.028.825-.593 2-2.035 2h-10z"/></g><g id="icon_x5F_bg"><path class="st2" d="M10.641 1H2.964S2 1 2 2v12c0 1 .965 1 .965 1h10c1 0 1.035-1 1.035-1V4l-3.359-3zM13 14H3V2h7v3h3v9z"/><path class="st2" d="M11 6l-6 7h1.5l1.715-2H11v2h1V6z"/><path class="st2" d="M11 10H9.071L11 7.75zM4 3h2v1H4zM7 3h2v1H7zM4 5h2v1H4zM7 5h2v1H7zM4 7h2v1H4zM7 7h2v1H7z"/></g><path class="st3" d="M10 5V2H3v12h10V5h-3zM7 3h2v1H7V3zm0 2h2v1H7V5zm0 2h2v1H7V7zM4 3h2v1H4V3zm0 2h2v1H4V5zm0 2h2v1H4V7zm8 6h-1v-2H8.215L6.5 13H5l6-7h1v7zm-2.929-3L11 7.75V10H9.071z" id="icon_x5F_fg"/></svg>