<svg xmlns="http://www.w3.org/2000/svg" width="16" height="16"><style type="text/css">.icon-canvas-transparent{opacity:0;fill:#F6F6F6;} .icon-vs-out{fill:#F6F6F6;} .icon-vs-bg{fill:#424242;} .icon-vs-fg{fill:#F0EFF1;}</style><path class="icon-canvas-transparent" d="M16 16h-16v-16h16v16z" id="canvas"/><path class="icon-vs-out" d="M16,3.25L12.414,0H6c0,0-2,0-2,2s0,4,0,4l0,0v2H3v3H0v5h8v-2c0,0,4,0,6,0s2-2,2-2V3.25z" id="outline"/><path class="icon-vs-bg" d="M9 6h-3v2h3v-2zm-1 3h-4v2h4v-2zm-7 6h6v-3h-6v3zm14-11v8s-.035 1-1.035 1h-5.965v-1h6v-7h-3v-3h-5v3h-1v-3c0-1 .964-1 .964-1h5.677l3.359 3z" id="iconBg"/><path class="icon-vs-fg" d="M14 5v7h-5v-3h1v-4h-4v-3h5v3h3z" id="iconFg"/></svg>