<svg xmlns="http://www.w3.org/2000/svg" viewBox="0 0 16 16" enable-background="new 0 0 16 16"><style type="text/css">.icon-canvas-transparent{opacity:0;fill:#F6F6F6;} .icon-vs-out{fill:#F6F6F6;} .icon-folder{fill:#DCB67A;} .icon-vs-fg{fill:#F0EFF1;} .icon-vs-bg{fill:#424242;}</style><path class="icon-canvas-transparent" d="M0 0h16v16h-16v-16z" id="canvas"/><path class="icon-vs-out" d="M1.5 1h8.11l1 2h2.886c.827 0 1.5.673 1.5 1.5v8c0 .827-.673 1.5-1.5 1.5h-11.996c-.827 0-1.5-.673-1.5-1.5v-10c0-.827.673-1.5 1.5-1.5z" id="outline"/><path class="icon-folder" d="M13.496 4h-3.504l-1-2h-7.492c-.275 0-.5.224-.5.5v10c0 .276.225.5.5.5h11.996c.277 0 .5-.224.5-.5v-8c0-.276-.223-.5-.5-.5zm-11.496-1h6.374l.5 1h-6.874v-1z" id="iconBg"/><g id="iconFg"><path class="icon-vs-fg" d="M2 3h6.374l.5 1h-6.874v-1zm3 1h-2v2h2v-2zm0 3h-1v1h1v-1zm-1 1h-1v1h1v-1zm0 2h-1v1h1v-1zm1-1h-1v1h1v-1zm0 2h-1v1h1v-1zm-1 1h-1v1h1v-1z"/><path class="icon-vs-bg" d="M5 3v1h-2v-1h2zm0 1v2h-2v-2h-1v9h1v-1h1v-1h-1v-1h1v-1h-1v-1h1v-1h1v1h-1v1h1v1h-1v1h1v1h-1v1h2v-9h-1z"/></g></svg>