<svg xmlns="http://www.w3.org/2000/svg" width="16" height="16"><style type="text/css">.icon-canvas-transparent{opacity:0;fill:#F6F6F6;} .icon-vs-out{fill:#F6F6F6;} .icon-vs-bg{fill:#424242;} .icon-vs-fg{fill:#F0EFF1;}</style><path class="icon-canvas-transparent" d="M16 16h-16v-16h16v16z" id="canvas"/><path class="icon-vs-out" d="M16 12.065v.367l-2.563 2.568h-.33l-4.453-4.452c-.213.093-.433.166-.654.231v3.221h-2v2h-3.982v-2h-2.018v-3.982h2.018v-1.018h-2.018v-4h1.025c.254-2.799 2.611-5 5.475-5 3.032 0 5.5 2.467 5.5 5.5 0 .725-.151 1.448-.441 2.125l4.441 4.44z" id="outline"/><path class="icon-vs-bg" d="M5 11.018h2v1.982h-2v2h-1.982v-2h-2.018v-1.982h2.018v-2.018h1.982v2.018zm5.338-3.199c.412-.679.662-1.467.662-2.319 0-2.485-2.015-4.5-4.5-4.5-2.314 0-4.198 1.753-4.45 4h1c.245-1.694 1.688-3 3.45-3 1.933 0 3.5 1.567 3.5 3.5 0 1.762-1.306 3.205-3 3.45v.05h-1v.95c.166.018.329.05.5.05.862 0 1.66-.255 2.344-.675l4.427 4.425 1.498-1.5-4.431-4.431zm-4.338.181v-2h-5v2h5z" id="iconBg"/><path class="icon-vs-fg" d="M10 5.5c0 1.762-1.306 3.205-3 3.45v-3.95h-3.95c.245-1.694 1.688-3 3.45-3 1.933 0 3.5 1.567 3.5 3.5z" id="iconFg"/></svg>