<svg xmlns="http://www.w3.org/2000/svg" width="16" height="16"><style type="text/css">.icon-canvas-transparent{opacity:0;fill:#F6F6F6;} .icon-vs-out{fill:#F6F6F6;} .icon-vs-bg{fill:#424242;} .icon-vs-fg{fill:#F0EFF1;}</style><path class="icon-canvas-transparent" d="M16 16h-16v-16h16v16z" id="canvas"/><path class="icon-vs-out" d="M16 13.065v.367l-2.563 2.568h-.33l-4.453-4.452c-.685.298-1.417.452-2.154.452-3.033 0-5.5-2.468-5.5-5.5 0-3.033 2.467-5.5 5.5-5.5 3.032 0 5.5 2.467 5.5 5.5 0 .725-.151 1.448-.441 2.125l4.441 4.44z" id="outline"/><path class="icon-vs-bg" d="M14.769 13.25l-4.431-4.431c.412-.679.662-1.467.662-2.319 0-2.485-2.015-4.5-4.5-4.5s-4.5 2.015-4.5 4.5 2.015 4.5 4.5 4.5c.862 0 1.66-.255 2.344-.675l4.427 4.425 1.498-1.5zm-11.769-6.75c0-1.933 1.567-3.5 3.5-3.5s3.5 1.567 3.5 3.5-1.567 3.5-3.5 3.5-3.5-1.567-3.5-3.5z" id="iconBg"/><path class="icon-vs-fg" d="M10 6.5c0 1.933-1.567 3.5-3.5 3.5s-3.5-1.567-3.5-3.5 1.567-3.5 3.5-3.5 3.5 1.567 3.5 3.5z" id="iconFg"/></svg>