<svg xmlns="http://www.w3.org/2000/svg" viewBox="0 0 16 16" enable-background="new 0 0 16 16"><style type="text/css">.icon-canvas-transparent{opacity:0;fill:#F6F6F6;} .icon-disabled-grey{fill:#848484;} .st0{fill:#252526;} .st1{fill:#8A8A8A;} .st2{fill:#2A292C;}</style><path class="icon-canvas-transparent" d="M16 16h-16v-16h16v16z" id="canvas"/><path class="st0" d="M7.402 10.691c-.58.205-1.174.309-1.776.309-3.033 0-5.5-2.467-5.5-5.5s2.467-5.5 5.5-5.5c3.032 0 5.5 2.467 5.5 5.5 0 .603-.104 1.197-.309 1.777l4.722 4.723-3.413 3.414-4.724-4.723z" id="outline"/><path class="st1" d="M9.277 7.758c.307-.608.723-.758.723-2.258 0-2.485-1.994-4.5-4.479-4.5-2.486 0-4.5 2.015-4.5 4.5s2.014 4.5 4.5 4.5c1.354 0 1.651-.438 2.256-.742l4.494 4.492 1.498-1.5-4.492-4.492zm-3.747 1.272c-1.949 0-3.53-1.58-3.53-3.53s1.581-3.5 3.53-3.5c1.95 0 3.53 1.55 3.53 3.5s-1.58 3.53-3.53 3.53z" id="iconBg"/><path class="icon-disabled-grey" d="M6 8h-1v-2h-2v-1h2v-2h1v2h2v1h-2" id="colorAction"/><path class="st2" d="M5.53 2c-1.949 0-3.53 1.55-3.53 3.5s1.581 3.53 3.53 3.53c1.95 0 3.53-1.58 3.53-3.53s-1.58-3.5-3.53-3.5zm2.47 4h-2v2h-1v-2h-2v-1h2v-2h1v2h2v1z" id="iconFg"/></svg>