<svg xmlns="http://www.w3.org/2000/svg" width="16" height="16"><style type="text/css">.icon-canvas-transparent{opacity:0;fill:#F6F6F6;} .icon-vs-out{fill:#F6F6F6;} .icon-vs-bg{fill:#424242;} .icon-vs-fg{fill:#F0EFF1;}</style><path class="icon-canvas-transparent" d="M16 16h-16v-16h16v16z" id="canvas"/><path class="icon-vs-out" d="M16 13.414l-2 2-3.765-3.765c-.547.231-1.136.351-1.735.351-1.421 0-2.675-.675-3.5-1.706v1.706h-4v-9h4v1.707c.825-1.032 2.079-1.707 3.5-1.707s2.675.675 3.5 1.707v-1.707h4v9h-.586l.586.586v.828z" id="outline"/><path class="icon-vs-bg" d="M4 4v7h-2v-7h2zm10.414 7h.586v-7h-2v5.586l1.414 1.414zm-5.914-7c1.933 0 3.5 1.567 3.5 3.5 0 .71-.215 1.369-.578 1.922l3.578 3.578-1 1-3.578-3.578c-.553.363-1.211.578-1.922.578-1.933 0-3.5-1.567-3.5-3.5s1.567-3.5 3.5-3.5zm0 6c1.381 0 2.5-1.119 2.5-2.5s-1.119-2.5-2.5-2.5-2.5 1.119-2.5 2.5 1.119 2.5 2.5 2.5zm.5-4h-1v1h-1v1h1v1h1v-1h1v-1h-1v-1z" id="iconBg"/><path class="icon-vs-fg" d="M8.5 5c-1.38 0-2.5 1.119-2.5 2.5s1.12 2.5 2.5 2.5 2.5-1.119 2.5-2.5-1.119-2.5-2.5-2.5zm1.5 3h-1v1h-1v-1h-1v-1h1v-1h1v1h1v1z" id="iconFg"/></svg>