<svg xmlns="http://www.w3.org/2000/svg" width="16" height="16"><style type="text/css">.icon-canvas-transparent{opacity:0;fill:#F6F6F6;} .icon-vs-out{fill:#F6F6F6;} .icon-vs-bg{fill:#424242;} .icon-vs-fg{fill:#F0EFF1;}</style><path class="icon-canvas-transparent" d="M16 16h-16v-16h16v16z" id="canvas"/><path class="icon-vs-out" d="M7 0v.762c-.716-.48-1.575-.762-2.5-.762-2.481 0-4.5 2.019-4.5 4.5 0 1.258.522 2.394 1.357 3.211-.73.545-1.235 1.353-1.357 2.289v6h16v-16h-9zm-2.5 3c.827 0 1.5.673 1.5 1.5s-.673 1.5-1.5 1.5-1.5-.673-1.5-1.5.673-1.5 1.5-1.5zm2.29 6.204l.21.21v.586c-.034-.279-.113-.542-.21-.796z" id="outline"/><path class="icon-vs-bg" d="M8.65 6.235c.231-.547.35-1.136.35-1.735v2.085l-.35-.35zm-.65-5.235v.707c.616.77 1 1.732 1 2.793v-2.5h5v12h-5v-2.586l-1-1v4.586h7v-14h-7zm3 2v3h-1v1.585l.415.415h.585v.585l1 1v-1.585h1v-2h-1v-3h-1zm0 10h1v-2.586l-1 1v1.586zm-6-10h-1v1h-1v1h1v1h1v-1h1v-1h-1v-1zm5 8l-3.578-3.578c-.214.141-.449.251-.693.344-.601-.474-1.367-.766-2.229-.766-.424 0-.824.077-1.196.205-.789-.642-1.304-1.609-1.304-2.705 0-1.933 1.567-3.5 3.5-3.5s3.5 1.567 3.5 3.5c0 .71-.215 1.369-.578 1.921l3.578 3.579-1 1zm-3-6.5c0-1.381-1.119-2.5-2.5-2.5s-2.5 1.119-2.5 2.5 1.119 2.5 2.5 2.5 2.5-1.119 2.5-2.5zm-6 6.5h5v4h-5v-4zm2 3h1v-2h-1v2zm.5-6c-1.373 0-2.351.854-2.5 2h1c.14-.527.655-1 1.5-1 .82 0 1.353.471 1.5 1h1c-.14-1.146-1.127-2-2.5-2z" id="iconBg"/><path class="icon-vs-fg" d="M14 2v12h-5v-2.586l1 1 1-1v1.586h1v-2.586l.414-.414-.414-.414v-1.586h1v-2h-1v-3h-1v3h-1v1.585l-1-1v-4.585h5zm-3 6h-.585l.585.585v-.585zm-4-3.5c0 1.381-1.119 2.5-2.5 2.5s-2.5-1.119-2.5-2.5 1.119-2.5 2.5-2.5 2.5 1.119 2.5 2.5zm-1-.5h-1v-1h-1v1h-1v1h1v1h1v-1h1v-1zm-3 10h1v-2h-1v2z" id="iconFg"/></svg>