<?xml version="1.0" encoding="iso-8859-1"?>
<!-- Generator: Adobe Illustrator 19.0.0, SVG Export Plug-In . SVG Version: 6.00 Build 0)  -->
<svg version="1.1" id="Capa_1" xmlns="http://www.w3.org/2000/svg" xmlns:xlink="http://www.w3.org/1999/xlink" x="0px" y="0px"
	 viewBox="0 0 476.737 476.737" style="enable-background:new 0 0 476.737 476.737;" xml:space="preserve">
<g>
	<g>
		<g>
			<path d="M238.369,0C106.726,0,0,106.726,0,238.369c0,131.675,106.726,238.369,238.369,238.369
				c131.675,0,238.369-106.694,238.369-238.369C476.737,106.726,370.043,0,238.369,0z M365.499,254.26H254.26v111.239
				c0,8.74-7.151,15.891-15.891,15.891c-8.772,0-15.891-7.151-15.891-15.891V254.26H111.239c-8.772,0-15.891-7.151-15.891-15.891
				c0-8.772,7.119-15.891,15.891-15.891h111.239V111.239c0-8.772,7.119-15.891,15.891-15.891c8.74,0,15.891,7.119,15.891,15.891
				v111.239h111.239c8.74,0,15.891,7.119,15.891,15.891C381.39,247.109,374.239,254.26,365.499,254.26z"/>
		</g>
	</g>
</g>
<g>
</g>
<g>
</g>
<g>
</g>
<g>
</g>
<g>
</g>
<g>
</g>
<g>
</g>
<g>
</g>
<g>
</g>
<g>
</g>
<g>
</g>
<g>
</g>
<g>
</g>
<g>
</g>
<g>
</g>
</svg>
