<?xml version="1.0" encoding="iso-8859-1"?>
<!-- Generator: Adobe Illustrator 19.0.0, SVG Export Plug-In . SVG Version: 6.00 Build 0)  -->
<svg version="1.1" id="Capa_1" xmlns="http://www.w3.org/2000/svg" xmlns:xlink="http://www.w3.org/1999/xlink" x="0px" y="0px"
	 viewBox="0 0 476.737 476.737" style="enable-background:new 0 0 476.737 476.737;" xml:space="preserve">
<g>
	<g>
		<g>
			<path d="M444.955,31.782h-127.13c-17.544,0-31.782,14.239-31.782,31.782c0,0-4.132,29.145-31.782,31.782
				H31.782C14.239,95.347,0,109.586,0,127.13v286.042c0,17.544,14.239,31.783,31.782,31.783h413.172
				c17.544,0,31.782-14.239,31.782-31.783V63.565C476.737,46.021,462.499,31.782,444.955,31.782z M333.716,286.042H254.26v79.456
				c0,8.74-7.151,15.891-15.891,15.891c-8.772,0-15.891-7.151-15.891-15.891v-79.456h-79.456c-8.772,0-15.891-7.151-15.891-15.891
				s7.119-15.891,15.891-15.891h79.456v-79.456c0-8.772,7.119-15.891,15.891-15.891c8.74,0,15.891,7.119,15.891,15.891v79.456
				h79.456c8.74,0,15.891,7.151,15.891,15.891S342.456,286.042,333.716,286.042z"/>
		</g>
	</g>
</g>
<g>
</g>
<g>
</g>
<g>
</g>
<g>
</g>
<g>
</g>
<g>
</g>
<g>
</g>
<g>
</g>
<g>
</g>
<g>
</g>
<g>
</g>
<g>
</g>
<g>
</g>
<g>
</g>
<g>
</g>
</svg>
