<?xml version="1.0" encoding="iso-8859-1"?>
<!-- Generator: Adobe Illustrator 19.0.0, SVG Export Plug-In . SVG Version: 6.00 Build 0)  -->
<svg version="1.1" id="Capa_1" xmlns="http://www.w3.org/2000/svg" xmlns:xlink="http://www.w3.org/1999/xlink" x="0px" y="0px"
	 viewBox="0 0 508.52 508.52" style="enable-background:new 0 0 508.52 508.52;" xml:space="preserve">
<g>
	<g>
		<g>
			<g>
				<path d="M476.737,31.782H31.782C14.239,31.782,0,46.021,0,63.565v63.565h508.52V63.565
					C508.52,46.021,494.281,31.782,476.737,31.782z"/>
				<path d="M31.782,444.955c0,17.544,14.239,31.782,31.782,31.782h381.39
					c17.544,0,31.782-14.239,31.782-31.782V158.912H31.782V444.955z M190.695,222.477h127.13c17.544,0,31.783,14.239,31.783,31.782
					s-14.239,31.782-31.783,31.782h-127.13c-17.544,0-31.782-14.239-31.782-31.782S173.151,222.477,190.695,222.477z"/>
			</g>
		</g>
	</g>
</g>
<g>
</g>
<g>
</g>
<g>
</g>
<g>
</g>
<g>
</g>
<g>
</g>
<g>
</g>
<g>
</g>
<g>
</g>
<g>
</g>
<g>
</g>
<g>
</g>
<g>
</g>
<g>
</g>
<g>
</g>
</svg>
