<?xml version="1.0" encoding="iso-8859-1"?>
<!-- Generator: Adobe Illustrator 19.0.0, SVG Export Plug-In . SVG Version: 6.00 Build 0)  -->
<svg version="1.1" id="Capa_1" xmlns="http://www.w3.org/2000/svg" xmlns:xlink="http://www.w3.org/1999/xlink" x="0px" y="0px"
	 viewBox="0 0 474.64 474.64" style="enable-background:new 0 0 474.64 474.64;" xml:space="preserve">
<g>
	<g>
		<g>
			<path d="M237.32,0.016C106.249,0.016,0,106.233,0,237.336s106.281,237.288,237.32,237.288
				s237.32-106.249,237.32-237.32S368.391,0.016,237.32,0.016z M237.32,442.841c-113.336,0-205.537-92.169-205.537-205.569
				S123.983,31.735,237.32,31.735s205.537,92.233,205.537,205.537S350.688,442.841,237.32,442.841z"/>
			<path d="M247.554,161.534c-3.115-3.115-7.183-4.608-11.283-4.608s-8.168,1.494-11.283,4.608
				L121.918,264.605c-6.198,6.198-6.198,16.273,0,22.47c6.198,6.198,16.273,6.198,22.47,0l91.883-91.883l91.883,91.883
				c6.198,6.198,16.273,6.198,22.47,0c6.198-6.198,6.198-16.273,0-22.47L247.554,161.534z"/>
		</g>
	</g>
</g>
<g>
</g>
<g>
</g>
<g>
</g>
<g>
</g>
<g>
</g>
<g>
</g>
<g>
</g>
<g>
</g>
<g>
</g>
<g>
</g>
<g>
</g>
<g>
</g>
<g>
</g>
<g>
</g>
<g>
</g>
</svg>
