<?xml version="1.0" encoding="iso-8859-1"?>
<!-- Generator: Adobe Illustrator 19.0.0, SVG Export Plug-In . SVG Version: 6.00 Build 0)  -->
<svg version="1.1" id="Capa_1" xmlns="http://www.w3.org/2000/svg" xmlns:xlink="http://www.w3.org/1999/xlink" x="0px" y="0px"
	 viewBox="0 0 508.52 508.52" style="enable-background:new 0 0 508.52 508.52;" xml:space="preserve">
<g>
	<g>
		<g>
			<path d="M333.716,285.883H54.189l36.454-36.455c6.198-6.198,6.198-16.273,0-22.47
				c-6.198-6.198-16.273-6.198-22.47,0L4.64,290.492C1.526,293.607,0,297.675,0,301.775c0,4.1,1.526,8.168,4.64,11.283
				l61.213,61.213c6.229,6.198,16.273,6.198,22.47,0c6.198-6.198,6.198-16.273,0-22.47l-34.134-34.134h279.527
				c8.74,0,15.891-7.151,15.891-15.891S342.456,285.883,333.716,285.883z"/>
			<path d="M503.879,195.462l-61.213-61.213c-6.198-6.198-16.273-6.198-22.47,0s-6.198,16.273,0,22.47
				l34.134,34.134H174.804c-8.772,0-15.891,7.119-15.891,15.891c0,8.772,7.119,15.891,15.891,15.891h279.527l-36.423,36.454
				c-6.198,6.198-6.198,16.273,0,22.47c6.166,6.166,16.273,6.166,22.47,0l63.501-63.533c3.115-3.115,4.64-7.183,4.64-11.283
				C508.52,202.645,506.994,198.577,503.879,195.462z"/>
		</g>
	</g>
</g>
<g>
</g>
<g>
</g>
<g>
</g>
<g>
</g>
<g>
</g>
<g>
</g>
<g>
</g>
<g>
</g>
<g>
</g>
<g>
</g>
<g>
</g>
<g>
</g>
<g>
</g>
<g>
</g>
<g>
</g>
</svg>
