<?xml version="1.0" encoding="iso-8859-1"?>
<!-- Generator: Adobe Illustrator 19.0.0, SVG Export Plug-In . SVG Version: 6.00 Build 0)  -->
<svg version="1.1" id="Capa_1" xmlns="http://www.w3.org/2000/svg" xmlns:xlink="http://www.w3.org/1999/xlink" x="0px" y="0px"
	 viewBox="0 0 455.992 455.992" style="enable-background:new 0 0 455.992 455.992;" xml:space="preserve">
<g>
	<g>
		<g>
			<path d="M227.996,0C102.081,0,0,102.081,0,227.996c0,125.945,102.081,227.996,227.996,227.996
				c125.945,0,227.996-102.051,227.996-227.996C455.992,102.081,353.941,0,227.996,0z M299.435,238.788l-98.585,98.585
				c-5.928,5.897-15.565,5.897-21.492,0c-5.928-5.928-5.928-15.595,0-21.492l87.885-87.885l-87.885-87.885
				c-5.928-5.928-5.928-15.565,0-21.492s15.565-5.928,21.492,0l98.585,98.585c3.04,2.979,4.469,6.901,4.438,10.792
				C303.873,231.918,302.414,235.809,299.435,238.788z"/>
		</g>
	</g>
	<g>
	</g>
	<g>
	</g>
	<g>
	</g>
	<g>
	</g>
	<g>
	</g>
	<g>
	</g>
	<g>
	</g>
	<g>
	</g>
	<g>
	</g>
	<g>
	</g>
	<g>
	</g>
	<g>
	</g>
	<g>
	</g>
	<g>
	</g>
	<g>
	</g>
</g>
<g>
</g>
<g>
</g>
<g>
</g>
<g>
</g>
<g>
</g>
<g>
</g>
<g>
</g>
<g>
</g>
<g>
</g>
<g>
</g>
<g>
</g>
<g>
</g>
<g>
</g>
<g>
</g>
<g>
</g>
</svg>
