<?xml version="1.0" encoding="iso-8859-1"?>
<!-- Generator: Adobe Illustrator 19.0.0, SVG Export Plug-In . SVG Version: 6.00 Build 0)  -->
<svg version="1.1" id="Capa_1" xmlns="http://www.w3.org/2000/svg" xmlns:xlink="http://www.w3.org/1999/xlink" x="0px" y="0px"
	 viewBox="0 0 476.737 476.737" style="enable-background:new 0 0 476.737 476.737;" xml:space="preserve">
<g>
	<g>
		<g>
			<g>
				<path d="M238.369,0C106.726,0,0,106.726,0,238.369c0,131.675,106.726,238.369,238.369,238.369
					c131.675,0,238.369-106.694,238.369-238.369C476.737,106.726,370.043,0,238.369,0z M238.369,444.955
					c-113.908,0-206.586-92.678-206.586-206.586S124.46,31.782,238.369,31.782s206.586,92.678,206.586,206.586
					S352.277,444.955,238.369,444.955z"/>
				<path d="M247.903,164.093c-5.403-6.897-14.207-6.897-19.61,0l-0.35,0.636L130.88,287.314
					c-5.403,6.897-5.403,18.084,0,24.981l0.159,0.127c2.511,3.337,6.007,5.403,9.916,5.403h194.191c3.973,0,7.501-2.161,9.98-5.594
					l0.064,0.064c5.435-6.897,5.435-18.084,0-24.981L247.903,164.093z"/>
			</g>
		</g>
	</g>
</g>
<g>
</g>
<g>
</g>
<g>
</g>
<g>
</g>
<g>
</g>
<g>
</g>
<g>
</g>
<g>
</g>
<g>
</g>
<g>
</g>
<g>
</g>
<g>
</g>
<g>
</g>
<g>
</g>
<g>
</g>
</svg>
