<?xml version="1.0" encoding="iso-8859-1"?>
<!-- Generator: Adobe Illustrator 19.0.0, SVG Export Plug-In . SVG Version: 6.00 Build 0)  -->
<svg version="1.1" id="Capa_1" xmlns="http://www.w3.org/2000/svg" xmlns:xlink="http://www.w3.org/1999/xlink" x="0px" y="0px"
	 viewBox="0 0 474.449 474.449" style="enable-background:new 0 0 474.449 474.449;" xml:space="preserve">
<g>
	<g>
		<g>
			<path d="M237.224,0C106.217,0,0,106.217,0,237.224s106.217,237.224,237.224,237.224
				s237.224-106.217,237.224-237.224S368.232,0,237.224,0z M237.224,442.666c-113.273,0-205.442-92.169-205.442-205.442
				S123.952,31.782,237.224,31.782s205.442,92.169,205.442,205.442S350.497,442.666,237.224,442.666z"/>
			<path d="M330.76,241.865l-95.252,84.224l-95.22-84.224c-6.229-6.229-16.368-6.229-22.597,0
				s-6.229,16.4,0,22.597l106.312,94.044c3.178,3.21,7.342,4.704,11.505,4.64c4.163,0.064,8.359-1.462,11.505-4.64l106.344-94.044
				c6.198-6.198,6.198-16.368,0-22.597C347.096,235.635,336.958,235.635,330.76,241.865z"/>
			<path d="M223.971,244.534c3.178,3.21,7.342,4.704,11.505,4.64c4.132,0.064,8.359-1.462,11.505-4.64
				l106.312-94.013c6.229-6.229,6.229-16.368,0-22.597c-6.198-6.229-16.336-6.229-22.534,0l-95.252,84.224l-95.22-84.224
				c-6.261-6.261-16.4-6.261-22.629-0.032c-6.229,6.229-6.229,16.368,0,22.597L223.971,244.534z"/>
		</g>
	</g>
</g>
<g>
</g>
<g>
</g>
<g>
</g>
<g>
</g>
<g>
</g>
<g>
</g>
<g>
</g>
<g>
</g>
<g>
</g>
<g>
</g>
<g>
</g>
<g>
</g>
<g>
</g>
<g>
</g>
<g>
</g>
</svg>
