<?xml version="1.0" encoding="iso-8859-1"?>
<!-- Generator: Adobe Illustrator 19.0.0, SVG Export Plug-In . SVG Version: 6.00 Build 0)  -->
<svg version="1.1" id="Capa_1" xmlns="http://www.w3.org/2000/svg" xmlns:xlink="http://www.w3.org/1999/xlink" x="0px" y="0px"
	 viewBox="0 0 476.761 476.761" style="enable-background:new 0 0 476.761 476.761;" xml:space="preserve">
<g>
	<g>
		<g>
			<path d="M406.991,69.818c-93.154-93.091-244.058-93.091-337.149,0s-93.091,244.026,0,337.149
				c93.091,93.059,244.058,93.059,337.149,0C499.986,313.844,499.986,162.877,406.991,69.818z M349.655,333.708v0.064l-1.208,5.975
				c-1.621,3.846-4.672,6.992-8.613,8.613l-6.07,1.24H198.879c-8.772,0-15.891-7.183-15.891-15.891
				c0-8.74,7.119-15.891,15.891-15.891h96.523L120.281,142.695c-6.198-6.198-6.198-16.273,0-22.47c6.198-6.198,16.273-6.198,22.47,0
				l175.121,175.121v-96.523c0-8.772,7.151-15.891,15.891-15.891c8.708,0,15.891,7.119,15.891,15.891
				C349.655,198.823,349.655,333.708,349.655,333.708z"/>
		</g>
	</g>
</g>
<g>
</g>
<g>
</g>
<g>
</g>
<g>
</g>
<g>
</g>
<g>
</g>
<g>
</g>
<g>
</g>
<g>
</g>
<g>
</g>
<g>
</g>
<g>
</g>
<g>
</g>
<g>
</g>
<g>
</g>
</svg>
