<?xml version="1.0" encoding="iso-8859-1"?>
<!-- Generator: Adobe Illustrator 19.0.0, SVG Export Plug-In . SVG Version: 6.00 Build 0)  -->
<svg version="1.1" id="Capa_1" xmlns="http://www.w3.org/2000/svg" xmlns:xlink="http://www.w3.org/1999/xlink" x="0px" y="0px"
	 viewBox="0 0 476.737 476.737" style="enable-background:new 0 0 476.737 476.737;" xml:space="preserve">
<g>
	<g>
		<path d="M238.369,0C106.726,0,0,106.726,0,238.369c0,131.675,106.726,238.369,238.369,238.369
			c131.675,0,238.369-106.694,238.369-238.369C476.737,106.726,370.043,0,238.369,0z M397.281,254.26H149.6l68.205,68.205
			c6.198,6.166,6.198,16.273,0,22.47c-6.198,6.166-16.273,6.166-22.47,0l-95.347-95.347l-0.095-0.159l-3.305-4.99l-1.24-6.007
			v-0.064l1.24-6.07l3.305-4.99l0.127-0.191l95.347-95.347c6.198-6.198,16.273-6.198,22.47,0c6.198,6.198,6.198,16.273,0,22.47
			L149.6,222.477h247.681c8.74,0,15.891,7.119,15.891,15.891C413.172,247.109,406.021,254.26,397.281,254.26z"/>
	</g>
</g>
<g>
</g>
<g>
</g>
<g>
</g>
<g>
</g>
<g>
</g>
<g>
</g>
<g>
</g>
<g>
</g>
<g>
</g>
<g>
</g>
<g>
</g>
<g>
</g>
<g>
</g>
<g>
</g>
<g>
</g>
</svg>
