<?xml version="1.0" encoding="iso-8859-1"?>
<!-- Generator: Adobe Illustrator 19.0.0, SVG Export Plug-In . SVG Version: 6.00 Build 0)  -->
<svg version="1.1" id="Capa_1" xmlns="http://www.w3.org/2000/svg" xmlns:xlink="http://www.w3.org/1999/xlink" x="0px" y="0px"
	 viewBox="0 0 245.035 245.035" style="enable-background:new 0 0 245.035 245.035;" xml:space="preserve">
<g>
	<g>
		<g>
			<path d="M27.269,123.841l95.22-84.255l95.22,84.255c6.229,6.229,16.4,6.229,22.597,0
				c6.293-6.229,6.293-16.336,0.064-22.597L134.027,7.2c-3.178-3.178-7.342-4.704-11.505-4.64c-4.195-0.064-8.359,1.462-11.537,4.64
				L4.672,101.244c-6.229,6.229-6.229,16.368,0,22.597S21.04,130.071,27.269,123.841z"/>
			<path d="M134.027,121.172c-3.178-3.178-7.342-4.704-11.505-4.64c-4.195-0.064-8.359,1.462-11.537,4.64
				L4.672,215.184c-6.229,6.261-6.229,16.4,0,22.597c6.229,6.261,16.368,6.261,22.597,0l95.22-84.192l95.22,84.192
				c6.229,6.261,16.4,6.261,22.597,0c6.229-6.198,6.229-16.336,0-22.597L134.027,121.172z"/>
		</g>
	</g>
</g>
<g>
</g>
<g>
</g>
<g>
</g>
<g>
</g>
<g>
</g>
<g>
</g>
<g>
</g>
<g>
</g>
<g>
</g>
<g>
</g>
<g>
</g>
<g>
</g>
<g>
</g>
<g>
</g>
<g>
</g>
</svg>
