<?xml version="1.0" encoding="iso-8859-1"?>
<!-- Generator: Adobe Illustrator 19.0.0, SVG Export Plug-In . SVG Version: 6.00 Build 0)  -->
<svg version="1.1" id="Capa_1" xmlns="http://www.w3.org/2000/svg" xmlns:xlink="http://www.w3.org/1999/xlink" x="0px" y="0px"
	 viewBox="0 0 508.52 508.52" style="enable-background:new 0 0 508.52 508.52;" xml:space="preserve">
<g>
	<g>
		<g>
			<path d="M410.986,252.512c8.613-8.263,16.654-16.527,23.773-24.568
				c40.173-45.735,51.361-83.143,33.34-111.239c-7.628-11.855-23.646-25.966-56.732-25.966c-20.722,0-47.324,6.07-76.977,16.654
				C321.582,50.947,297.999,0,254.266,0c-44.495,0-68.142,52.695-80.791,110.317c-29.685-10.075-56.382-15.828-77.263-15.828
				c-34.961,0-51.392,14.874-58.988,27.333c-24.663,40.427,13.825,91.756,60.291,134.186c-8.581,8.295-16.654,16.527-23.742,24.568
				c-40.173,45.735-51.392,83.175-33.34,111.239c7.628,11.855,23.646,25.935,56.7,25.935c20.786,0,47.388-6.039,77.009-16.622
				c12.808,56.414,36.359,107.393,80.124,107.393c44.495,0,68.173-52.695,80.791-110.317c29.717,10.011,56.35,15.828,77.263,15.828
				c35.024,0,51.361-14.906,58.988-27.333C495.94,346.27,457.484,294.91,410.986,252.512z M64.334,138.381
				c5.022-8.2,16.146-12.109,31.846-12.109c18.338,0,43.097,5.594,71.32,15.51c-3.401,21.803-5.467,43.065-6.706,61.277
				c-14.207,10.488-27.333,21.104-39.76,31.782C76.189,194.127,52.861,157.164,64.334,138.381z M159.046,266.21l-13.635-10.647
				l13.571-11.156l-0.095,9.853L159.046,266.21z M97.102,385.998c-14.556,0-25.013-3.623-29.971-11.346
				c-11.918-18.529,10.584-56.128,54.507-97.858c13.635,11.156,27.11,21.326,39.251,29.876c1.303,18.783,3.464,40.586,7.056,62.929
				C139.786,380.055,115.154,385.998,97.102,385.998z M314.017,179.221l-10.107-6.356l-17.385-10.139
				c8.2-4.132,16.209-7.977,24.028-11.505C311.888,160.215,313.032,169.591,314.017,179.221z M254.235,31.782
				c20.532,0,38.806,34.357,50.439,87.402c-16.718,7.215-33.975,15.637-51.71,25.267c-17.004-8.708-33.594-16.336-49.644-22.915
				C214.888,67.156,233.353,31.782,254.235,31.782z M197.662,153.478l22.216,10.043l-17.194,10.52l-8.263,5.657
				C195.31,170.672,196.39,161.932,197.662,153.478z M194.452,329.298l10.107,6.325l17.417,10.107
				c-8.2,4.132-16.209,7.977-24.059,11.505C196.581,348.336,195.437,338.96,194.452,329.298z M254.235,476.737
				c-20.563,0-38.806-34.357-50.439-87.402c16.718-7.215,34.007-15.637,51.71-25.267c16.972,8.677,33.562,16.304,49.644,22.915
				C293.581,441.363,275.147,476.737,254.235,476.737z M310.903,355.042c-7.246-3.083-14.684-6.484-22.216-10.011l17.194-10.552
				l8.232-5.657C313.159,337.848,312.079,346.62,310.903,355.042z M317.005,288.49c-9.185,6.484-18.529,12.872-28.382,19.197
				c-11.283,7.278-22.438,13.921-33.499,20.309c-11.219-6.102-22.534-12.554-33.975-19.451
				c-10.234-6.261-20.055-12.618-29.589-19.101c-0.54-11.473-0.89-23.169-0.89-35.183c0-11.664,0.35-23.042,0.826-34.23
				c9.153-6.484,18.529-12.904,28.35-19.228c11.283-7.246,22.438-13.921,33.499-20.277c11.219,6.102,22.534,12.491,33.975,19.451
				c10.234,6.261,20.055,12.649,29.621,19.069c0.477,11.505,0.858,23.201,0.858,35.215
				C317.799,265.924,317.418,277.302,317.005,288.49z M411.335,122.521c14.588,0,25.013,3.655,29.971,11.378
				c11.918,18.529-10.552,56.064-54.507,97.858c-13.666-11.124-27.142-21.294-39.283-29.907
				c-1.303-18.752-3.401-40.618-7.056-62.961C368.715,128.433,393.315,122.521,411.335,122.521z M349.423,242.31l13.635,10.647
				l-13.603,11.156l0.127-9.853L349.423,242.31z M444.135,370.139c-5.022,8.2-16.146,12.109-31.846,12.109
				c-18.307,0-43.033-5.594-71.32-15.51c3.369-21.803,5.467-43.065,6.706-61.277c14.207-10.488,27.333-21.104,39.792-31.782
				C432.28,314.424,455.608,351.355,444.135,370.139z"/>
		</g>
	</g>
</g>
<g>
</g>
<g>
</g>
<g>
</g>
<g>
</g>
<g>
</g>
<g>
</g>
<g>
</g>
<g>
</g>
<g>
</g>
<g>
</g>
<g>
</g>
<g>
</g>
<g>
</g>
<g>
</g>
<g>
</g>
</svg>
