<?xml version="1.0" encoding="iso-8859-1"?>
<!-- Generator: Adobe Illustrator 19.0.0, SVG Export Plug-In . SVG Version: 6.00 Build 0)  -->
<svg version="1.1" id="Capa_1" xmlns="http://www.w3.org/2000/svg" xmlns:xlink="http://www.w3.org/1999/xlink" x="0px" y="0px"
	 viewBox="0 0 474.481 474.481" style="enable-background:new 0 0 474.481 474.481;" xml:space="preserve">
<g>
	<g>
		<g>
			<path d="M237.256,0C106.249,0,0.032,106.217,0.032,237.224C0,368.295,106.217,474.481,237.256,474.481
				c131.007,0,237.193-106.217,237.193-237.224C474.481,106.217,368.264,0,237.256,0z M230.328,353.358
				c-6.229,6.166-16.368,6.166-22.597,0l-94.076-106.344c-3.178-3.178-4.704-7.374-4.64-11.537
				c-0.032-4.132,1.462-8.295,4.64-11.473l94.044-106.312c6.229-6.229,16.368-6.229,22.597,0c6.261,6.229,6.261,16.368,0,22.597
				l-84.224,95.22l84.224,95.22C236.557,337.021,236.557,347.128,230.328,353.358z M344.3,353.358c-6.198,6.166-16.4,6.166-22.597,0
				l-94.076-106.344c-3.178-3.178-4.704-7.374-4.64-11.537c-0.032-4.132,1.462-8.295,4.64-11.473l94.013-106.312
				c6.261-6.229,16.4-6.229,22.597,0c6.261,6.229,6.261,16.368,0,22.597l-84.16,95.22l84.224,95.284
				C350.529,337.021,350.529,347.128,344.3,353.358z"/>
		</g>
	</g>
</g>
<g>
</g>
<g>
</g>
<g>
</g>
<g>
</g>
<g>
</g>
<g>
</g>
<g>
</g>
<g>
</g>
<g>
</g>
<g>
</g>
<g>
</g>
<g>
</g>
<g>
</g>
<g>
</g>
<g>
</g>
</svg>
