<?xml version="1.0" encoding="iso-8859-1"?>
<!-- Generator: Adobe Illustrator 19.0.0, SVG Export Plug-In . SVG Version: 6.00 Build 0)  -->
<svg version="1.1" id="Capa_1" xmlns="http://www.w3.org/2000/svg" xmlns:xlink="http://www.w3.org/1999/xlink" x="0px" y="0px"
	 viewBox="0 0 508.52 508.52" style="enable-background:new 0 0 508.52 508.52;" xml:space="preserve">
<g>
	<g>
		<g>
			<path d="M254.26,0C113.845,0,0,113.845,0,254.26s113.845,254.26,254.26,254.26
				s254.26-113.845,254.26-254.26C508.52,113.813,394.675,0,254.26,0z M254.26,444.51c-104.914,0-190.282-85.368-190.282-190.25
				S149.346,63.978,254.26,63.978s190.25,85.368,190.25,190.282S359.174,444.51,254.26,444.51z"/>
			<path d="M313.471,273.393c21.294,58.416,29.907,105.963,31.592,115.879
				c36.423-24.663,62.389-63.724,69.635-108.982C409.199,278.542,364.45,265.193,313.471,273.393z"/>
			<path d="M282.006,281.275c-91.661,31.91-124.587,95.538-127.511,101.481
				c27.555,21.485,62.198,34.293,99.765,34.293c22.534,0.032,44.019-4.577,63.501-12.904
				c-2.415-14.239-11.855-63.978-34.675-123.252L282.006,281.275z"/>
			<path d="M300.058,239.354l3.464,8.391c54.094-6.801,107.838,4.1,113.177,5.244
				c-0.318-38.361-14.016-73.608-36.645-101.259c-3.369,4.608-30.638,39.537-90.771,64.073
				C293.066,223.558,296.689,231.44,300.058,239.354z"/>
			<path d="M265.606,255.913l6.42-1.907c-4.1-9.249-8.549-18.497-13.19-27.587
				c-81.172,24.282-159.961,23.265-167.08,23.106l-0.064,4.958c0.032,41.73,15.828,79.869,41.794,108.696
				C137.173,356.885,181.764,282.991,265.606,255.913z"/>
			<path d="M245.424,201.406c-26.952-47.896-55.969-88.133-60.26-94.013
				c-45.481,21.453-79.488,63.374-90.008,113.813C102.435,221.301,169.401,221.587,245.424,201.406z"/>
			<path d="M362.034,132.914c-28.763-25.458-66.457-40.968-107.774-40.968
				c-13.094,0-25.871,1.557-38.075,4.513c4.481,6.039,34.007,46.243,60.641,95.157C334.638,169.973,359.078,137.078,362.034,132.914
				z"/>
		</g>
	</g>
</g>
<g>
</g>
<g>
</g>
<g>
</g>
<g>
</g>
<g>
</g>
<g>
</g>
<g>
</g>
<g>
</g>
<g>
</g>
<g>
</g>
<g>
</g>
<g>
</g>
<g>
</g>
<g>
</g>
<g>
</g>
</svg>
