<?xml version="1.0" encoding="iso-8859-1"?>
<!-- Generator: Adobe Illustrator 19.0.0, SVG Export Plug-In . SVG Version: 6.00 Build 0)  -->
<svg version="1.1" id="Capa_1" xmlns="http://www.w3.org/2000/svg" xmlns:xlink="http://www.w3.org/1999/xlink" x="0px" y="0px"
	 viewBox="0 0 508.169 508.169" style="enable-background:new 0 0 508.169 508.169;" xml:space="preserve">
<g>
	<g>
		<g>
			<path d="M123.38,316.728l-7.278,32.704H456.81c8.74,0,15.891,7.151,15.891,15.891
				s-7.151,15.891-15.891,15.891H96.269c-4.831,0-9.376-2.161-12.395-5.975c-3.019-3.719-4.164-8.645-3.115-13.349l16.177-72.814
				l-0.667-3.21L68.65,147.804L48.913,63.39H15.891C7.087,63.39,0,56.27,0,47.499s7.119-15.891,15.891-15.891h45.608
				c7.405,0,13.794,5.085,15.478,12.268l12.332,52.695l6.96-1.398h381.39c17.607,0,37.249,11.918,28.255,40.3l-51.583,158.34
				c-8.454,20.373-19.069,23.837-36.55,23.837H128.052L123.38,316.728z M128.052,412.997c-17.544,0-31.782,14.239-31.782,31.782
				c0,17.544,14.239,31.782,31.782,31.782s31.782-14.239,31.782-31.782C159.834,427.236,145.596,412.997,128.052,412.997z
				 M414.094,412.997c-17.576,0-31.783,14.239-31.783,31.782c0,17.544,14.207,31.782,31.783,31.782
				c17.512,0,31.782-14.239,31.782-31.782C445.876,427.236,431.606,412.997,414.094,412.997z"/>
		</g>
	</g>
</g>
<g>
</g>
<g>
</g>
<g>
</g>
<g>
</g>
<g>
</g>
<g>
</g>
<g>
</g>
<g>
</g>
<g>
</g>
<g>
</g>
<g>
</g>
<g>
</g>
<g>
</g>
<g>
</g>
<g>
</g>
</svg>
