<?xml version="1.0" encoding="iso-8859-1"?>
<!-- Generator: Adobe Illustrator 19.0.0, SVG Export Plug-In . SVG Version: 6.00 Build 0)  -->
<svg version="1.1" id="Capa_1" xmlns="http://www.w3.org/2000/svg" xmlns:xlink="http://www.w3.org/1999/xlink" x="0px" y="0px"
	 viewBox="0 0 486.462 486.462" style="enable-background:new 0 0 486.462 486.462;" xml:space="preserve">
<g>
	<g>
		<g>
			<path d="M381.245,305.878L128.443,5.409c-4.134-4.894-10.883-6.688-16.841-4.469
				C105.613,3.129,101.6,8.845,101.6,15.228V411.85c0,6.597,4.195,12.373,10.427,14.47l4.773,0.73c4.712,0,9.272-2.158,12.19-6.141
				l67.973-91.563l47.15,134.913c6.05,17.237,24.958,26.387,42.225,20.337c17.237-6.019,26.417-24.928,20.368-42.255
				l-46.268-132.359l106.337,20.611c6.414,1.246,12.768-1.733,15.99-7.235C386.017,317.764,385.47,310.802,381.245,305.878z"/>
		</g>
	</g>
	<g>
	</g>
	<g>
	</g>
	<g>
	</g>
	<g>
	</g>
	<g>
	</g>
	<g>
	</g>
	<g>
	</g>
	<g>
	</g>
	<g>
	</g>
	<g>
	</g>
	<g>
	</g>
	<g>
	</g>
	<g>
	</g>
	<g>
	</g>
	<g>
	</g>
</g>
<g>
</g>
<g>
</g>
<g>
</g>
<g>
</g>
<g>
</g>
<g>
</g>
<g>
</g>
<g>
</g>
<g>
</g>
<g>
</g>
<g>
</g>
<g>
</g>
<g>
</g>
<g>
</g>
<g>
</g>
</svg>
