<?xml version="1.0" encoding="iso-8859-1"?>
<!-- Generator: Adobe Illustrator 19.0.0, SVG Export Plug-In . SVG Version: 6.00 Build 0)  -->
<svg version="1.1" id="Capa_1" xmlns="http://www.w3.org/2000/svg" xmlns:xlink="http://www.w3.org/1999/xlink" x="0px" y="0px"
	 viewBox="0 0 508.52 508.52" style="enable-background:new 0 0 508.52 508.52;" xml:space="preserve">
<g>
	<g>
		<g>
			<path d="M475.625,190.695h-28.509c-17.449,0-32.736-14.779-33.944-31.782
				C413.172,68.205,340.041,0,248.698,0h-83.334C74.085,0,0.064,73.513,0,164.22v180.175C0,435.102,74.085,508.52,165.364,508.52
				h177.982c91.343,0,165.174-73.449,165.174-164.156V227.976C508.488,209.86,493.868,190.695,475.625,190.695z M158.881,127.13
				h95.347c17.48,0,31.783,14.302,31.783,31.782s-14.302,31.782-31.782,31.782h-95.347c-17.48,0-31.782-14.302-31.782-31.782
				S141.4,127.13,158.881,127.13z M349.576,381.39H158.881c-17.48,0-31.782-14.302-31.782-31.782
				c0-17.48,14.302-31.783,31.782-31.783h190.695c17.48,0,31.782,14.302,31.782,31.783
				C381.358,367.088,367.056,381.39,349.576,381.39z"/>
		</g>
	</g>
</g>
<g>
</g>
<g>
</g>
<g>
</g>
<g>
</g>
<g>
</g>
<g>
</g>
<g>
</g>
<g>
</g>
<g>
</g>
<g>
</g>
<g>
</g>
<g>
</g>
<g>
</g>
<g>
</g>
<g>
</g>
</svg>
