<?xml version="1.0" encoding="iso-8859-1"?>
<!-- Generator: Adobe Illustrator 19.0.0, SVG Export Plug-In . SVG Version: 6.00 Build 0)  -->
<svg version="1.1" id="Capa_1" xmlns="http://www.w3.org/2000/svg" xmlns:xlink="http://www.w3.org/1999/xlink" x="0px" y="0px"
	 viewBox="0 0 508.52 508.52" style="enable-background:new 0 0 508.52 508.52;" xml:space="preserve">
<g>
	<g>
		<g>
			<path d="M434.065,74.466C384.389,24.822,319.331,0,254.272,0S124.091,24.822,74.478,74.466
				c-99.288,99.288-99.288,260.298,0,359.587c49.644,49.644,114.735,74.466,179.793,74.466s130.181-24.822,179.793-74.466
				C533.322,334.765,533.322,173.755,434.065,74.466z M254.272,31.782c34.706,0,68.11,8.105,98.303,23.042l-49.04,49.04
				c-16.018-5.244-32.577-8.518-49.263-8.518c-15.224,0-30.225,2.892-44.94,7.215l-49.612-49.581
				C188.959,39.283,221.027,31.782,254.272,31.782z M54.837,352.595c-14.938-30.225-23.042-63.629-23.042-98.335
				c0-33.244,7.469-65.281,21.231-94.489l49.612,49.581c-9.09,30.829-8.677,63.565,1.271,94.203L54.837,352.595z M254.272,476.737
				c-31.814,0-62.484-6.833-90.707-19.419l50.089-50.089c13.317,3.528,26.888,5.975,40.586,5.975c15.224,0,30.225-2.892,44.94-7.278
				l49.612,49.612C319.553,469.237,287.516,476.737,254.272,476.737z M344.153,344.141c-23.996,24.028-55.969,37.249-89.881,37.249
				s-65.885-13.222-89.881-37.249c-24.028-23.996-37.249-55.937-37.249-89.881s13.222-65.885,37.249-89.881
				c23.996-24.028,55.937-37.249,89.881-37.249c33.912,0,65.885,13.222,89.881,37.249c24.028,23.996,37.249,55.937,37.249,89.881
				S368.18,320.145,344.153,344.141z M405.938,299.2c8.263-27.937,8.677-57.399,1.271-85.527l49.994-49.994
				c26.125,58.829,25.553,126.59-1.812,185.006L405.938,299.2z"/>
		</g>
	</g>
</g>
<g>
</g>
<g>
</g>
<g>
</g>
<g>
</g>
<g>
</g>
<g>
</g>
<g>
</g>
<g>
</g>
<g>
</g>
<g>
</g>
<g>
</g>
<g>
</g>
<g>
</g>
<g>
</g>
<g>
</g>
</svg>
