<?xml version="1.0" encoding="iso-8859-1"?>
<!-- Generator: Adobe Illustrator 19.0.0, SVG Export Plug-In . SVG Version: 6.00 Build 0)  -->
<svg version="1.1" id="Capa_1" xmlns="http://www.w3.org/2000/svg" xmlns:xlink="http://www.w3.org/1999/xlink" x="0px" y="0px"
	 viewBox="0 0 508.52 508.52" style="enable-background:new 0 0 508.52 508.52;" xml:space="preserve">
<g>
	<g>
		<g>
			<g>
				<path d="M294.274,274.473l55.206,3.623c3.401-6.007,6.611-12.268,9.439-18.815
					c2.829-6.515,5.149-13.126,7.215-19.769l-40.459-37.662c1.367-10.774,1.557-21.517,0.572-32.1l41.476-36.391
					c-3.687-13.571-8.899-26.666-15.51-39.061l-55.238,2.002c-6.515-8.422-14.016-16.114-22.407-22.979l3.591-55.206
					c-6.007-3.433-12.3-6.611-18.815-9.439c-6.515-2.797-13.126-5.149-19.769-7.183l-37.63,40.523
					c-10.774-1.367-21.517-1.557-32.1-0.509L133.359,0c-13.571,3.719-26.666,8.931-39.061,15.542l2.002,55.143
					C87.879,77.2,80.187,84.7,73.322,93.091l-55.206-3.591c-3.433,6.039-6.611,12.268-9.439,18.815
					c-2.797,6.515-5.149,13.126-7.183,19.769l40.523,37.662c-1.367,10.774-1.557,21.517-0.509,32.1L0,234.237
					c3.719,13.539,8.931,26.665,15.542,39.092l55.143-2.034c6.515,8.422,14.048,16.114,22.438,22.979l-3.623,55.206
					c6.039,3.401,12.268,6.611,18.815,9.439c6.515,2.829,13.126,5.149,19.769,7.215l37.662-40.459
					c10.774,1.367,21.517,1.557,32.1,0.509l36.391,41.54c13.571-3.687,26.665-8.899,39.061-15.51l-2.002-55.238
					C279.718,290.397,287.409,282.864,294.274,274.473z M146.04,271.359C97.668,250.51,75.388,194.413,96.237,146.04
					c20.849-48.341,76.945-70.652,125.318-49.803c48.341,20.849,70.621,76.945,49.803,125.318
					C250.51,269.929,194.413,292.176,146.04,271.359z"/>
				<circle style="fill:#000000;" cx="183.798" cy="183.798" r="47.674"/>
				<path d="M507.852,409.517l0.667-12.236l-0.667-12.268l-30.416-10.838l-13.158-4.64l5.975-12.649
					l13.825-29.049c-5.085-6.356-10.933-12.236-17.321-17.385l-29.113,13.889l-12.586,5.975l-4.64-13.158l-10.806-30.416
					l-12.332-0.699l-12.3,0.667l-10.806,30.416l-4.64,13.158l-12.649-5.975l-29.049-13.825
					c-6.388,5.085-12.236,10.965-17.385,17.321l13.857,29.113l6.007,12.618l-13.158,4.672l-30.416,10.806l-0.699,12.268
					l0.667,12.236l30.416,10.806l13.158,4.672l-5.975,12.618l-13.825,29.113c5.085,6.357,10.933,12.173,17.321,17.321l29.113-13.825
					l12.618-5.975l4.672,13.158l10.806,30.416l12.268,0.699l12.3-0.667l10.806-30.416l4.64-13.158l12.649,5.975l29.049,13.825
					c6.388-5.085,12.236-10.933,17.385-17.321l-13.889-29.113l-5.975-12.586l13.158-4.64L507.852,409.517z M397.281,421.118
					c-13.158,0-23.837-10.679-23.837-23.837s10.679-23.837,23.837-23.837s23.837,10.679,23.837,23.837
					S410.439,421.118,397.281,421.118z"/>
			</g>
		</g>
	</g>
</g>
<g>
</g>
<g>
</g>
<g>
</g>
<g>
</g>
<g>
</g>
<g>
</g>
<g>
</g>
<g>
</g>
<g>
</g>
<g>
</g>
<g>
</g>
<g>
</g>
<g>
</g>
<g>
</g>
<g>
</g>
</svg>
