<?xml version="1.0" encoding="iso-8859-1"?>
<!-- Generator: Adobe Illustrator 19.0.0, SVG Export Plug-In . SVG Version: 6.00 Build 0)  -->
<svg version="1.1" id="Capa_1" xmlns="http://www.w3.org/2000/svg" xmlns:xlink="http://www.w3.org/1999/xlink" x="0px" y="0px"
	 viewBox="0 0 508.52 508.52" style="enable-background:new 0 0 508.52 508.52;" xml:space="preserve">
<g>
	<g>
		<path d="M461.513,0H111.906C68.046,0,32.545,35.247,31.91,78.948l-0.127-0.159v349.607
			c0,44.241,35.882,80.124,80.124,80.124h270.151c17.544,0,31.115-14.239,31.115-31.782V143.021c0-8.772-6.452-15.891-15.224-15.891
			H111.906c-26.666,0-48.341-20.373-48.341-47.006c0-26.666,21.676-48.341,48.341-48.341h333.049v365.499
			c0,8.74,7.787,15.891,16.559,15.891s15.224-7.151,15.224-15.891V15.891C476.737,7.119,470.285,0,461.513,0z M111.906,158.912
			h269.515l0.667,317.825H111.938c-26.697,0-48.373-21.676-48.373-48.341V143.371C76.914,153.16,93.599,158.912,111.906,158.912z"/>
	</g>
</g>
<g>
</g>
<g>
</g>
<g>
</g>
<g>
</g>
<g>
</g>
<g>
</g>
<g>
</g>
<g>
</g>
<g>
</g>
<g>
</g>
<g>
</g>
<g>
</g>
<g>
</g>
<g>
</g>
<g>
</g>
</svg>
