<?xml version="1.0" encoding="iso-8859-1"?>
<!-- Generator: Adobe Illustrator 19.0.0, SVG Export Plug-In . SVG Version: 6.00 Build 0)  -->
<svg version="1.1" id="Capa_1" xmlns="http://www.w3.org/2000/svg" xmlns:xlink="http://www.w3.org/1999/xlink" x="0px" y="0px"
	 viewBox="0 0 508.52 508.52" style="enable-background:new 0 0 508.52 508.52;" xml:space="preserve">
<g>
	<g>
		<g>
			<g>
				<path d="M476.737,31.782H31.782C14.239,31.782,0,46.021,0,63.565v63.565h508.52V63.565
					C508.52,46.021,494.281,31.782,476.737,31.782z M476.737,95.347H31.782V63.565h444.955V95.347z"/>
				<path d="M31.782,444.955c0,17.544,14.239,31.782,31.782,31.782h381.39
					c17.544,0,31.782-14.239,31.782-31.782V158.912H31.782V444.955z M63.565,190.695h381.39v254.26H63.565V190.695z"/>
				<path d="M333.716,222.477H174.804c-8.772,0-15.891,7.119-15.891,15.891
					c0,8.74,7.119,15.891,15.891,15.891h158.912c8.74,0,15.891-7.151,15.891-15.891
					C349.607,229.597,342.456,222.477,333.716,222.477z"/>
			</g>
		</g>
	</g>
</g>
<g>
</g>
<g>
</g>
<g>
</g>
<g>
</g>
<g>
</g>
<g>
</g>
<g>
</g>
<g>
</g>
<g>
</g>
<g>
</g>
<g>
</g>
<g>
</g>
<g>
</g>
<g>
</g>
<g>
</g>
</svg>
