<?xml version="1.0" encoding="iso-8859-1"?>
<!-- Generator: Adobe Illustrator 19.0.0, SVG Export Plug-In . SVG Version: 6.00 Build 0)  -->
<svg version="1.1" id="Capa_1" xmlns="http://www.w3.org/2000/svg" xmlns:xlink="http://www.w3.org/1999/xlink" x="0px" y="0px"
	 viewBox="0 0 508.52 508.52" style="enable-background:new 0 0 508.52 508.52;" xml:space="preserve">
<g>
	<g>
		<g>
			<g>
				<path d="M506.645,89.372c-4.036-12.935-15.637-22.502-29.907-22.502h-31.782v49.326
					c0,26.284-21.39,47.674-47.674,47.674s-47.674-21.39-47.674-47.674V66.87H158.753v49.326c0,26.284-21.39,47.674-47.674,47.674
					s-47.674-21.39-47.674-47.674V66.87H31.782c-14.27,0-25.903,9.567-29.907,22.502H0v387.365
					c0,17.544,14.239,31.782,31.782,31.782h444.955c17.544,0,31.782-14.239,31.782-31.782V89.372H506.645z M476.737,476.737H31.782
					v-254.26h444.955V476.737z"/>
				<path d="M111.08,132.088c8.772,0,15.891-7.119,15.891-15.891V15.891C126.971,7.119,119.852,0,111.08,0
					S95.189,7.119,95.189,15.891v100.306C95.189,124.969,102.308,132.088,111.08,132.088z"/>
				<path d="M397.281,132.088c8.74,0,15.891-7.119,15.891-15.891V15.891C413.172,7.119,406.021,0,397.281,0
					S381.39,7.119,381.39,15.891v100.306C381.39,124.969,388.541,132.088,397.281,132.088z"/>
			</g>
		</g>
	</g>
</g>
<g>
</g>
<g>
</g>
<g>
</g>
<g>
</g>
<g>
</g>
<g>
</g>
<g>
</g>
<g>
</g>
<g>
</g>
<g>
</g>
<g>
</g>
<g>
</g>
<g>
</g>
<g>
</g>
<g>
</g>
</svg>
