<?xml version="1.0" encoding="iso-8859-1"?>
<!-- Generator: Adobe Illustrator 19.0.0, SVG Export Plug-In . SVG Version: 6.00 Build 0)  -->
<svg version="1.1" id="Capa_1" xmlns="http://www.w3.org/2000/svg" xmlns:xlink="http://www.w3.org/1999/xlink" x="0px" y="0px"
	 viewBox="0 0 508.52 508.52" style="enable-background:new 0 0 508.52 508.52;" xml:space="preserve">
<g>
	<g>
		<g>
			<g>
				<path d="M499.207,139.652L368.899,9.312C362.924,3.337,354.851,0,346.365,0H162.122
					c-8.422,0-16.527,3.337-22.47,9.312L9.344,139.652C3.337,145.596,0,153.668,0,162.122v184.307c0,8.422,3.337,16.527,9.312,22.47
					l130.308,130.34c5.975,5.943,14.048,9.281,22.502,9.281h184.307c8.422,0,16.527-3.337,22.47-9.312l130.308-130.372
					c5.975-5.943,9.312-13.984,9.312-22.47V162.122C508.52,153.7,505.183,145.596,499.207,139.652z M476.737,346.365
					L346.365,476.737H162.122L31.782,346.365V162.122l130.34-130.34h184.307l130.308,130.34V346.365L476.737,346.365z"/>
				<path d="M254.26,95.347c-17.544,0-31.782,14.239-31.782,31.782v158.912
					c0,17.544,14.239,31.782,31.782,31.782s31.782-14.239,31.782-31.782V127.13C286.042,109.586,271.804,95.347,254.26,95.347z"/>
				<circle style="fill:#000000;" cx="254.26" cy="381.39" r="31.782"/>
			</g>
		</g>
	</g>
</g>
<g>
</g>
<g>
</g>
<g>
</g>
<g>
</g>
<g>
</g>
<g>
</g>
<g>
</g>
<g>
</g>
<g>
</g>
<g>
</g>
<g>
</g>
<g>
</g>
<g>
</g>
<g>
</g>
<g>
</g>
</svg>
