<?xml version="1.0" encoding="iso-8859-1"?>
<!-- Generator: Adobe Illustrator 19.0.0, SVG Export Plug-In . SVG Version: 6.00 Build 0)  -->
<svg version="1.1" id="Capa_1" xmlns="http://www.w3.org/2000/svg" xmlns:xlink="http://www.w3.org/1999/xlink" x="0px" y="0px"
	 viewBox="0 0 349.877 349.877" style="enable-background:new 0 0 349.877 349.877;" xml:space="preserve">
<g>
	<g>
		<g>
			<path d="M339.78,4.719c-10.234-6.738-24.059-3.846-30.797,6.452L134.084,291.492l-96.746-94.076
				c-9.026-8.391-23.074-7.818-31.433,1.208c-8.327,8.994-7.787,23.106,1.24,31.401l116.387,113.241l0.826,0.54l1.684,1.748
				l3.051,1.144l3.655,1.526l3.719,0.572l5.339-0.064l2.161-0.509l6.229-2.606l0.985-0.699l3.814-2.765l1.78-2.924l0.095-0.127
				l189.36-303.554C352.97,25.25,350.109,11.456,339.78,4.719z"/>
		</g>
	</g>
</g>
<g>
</g>
<g>
</g>
<g>
</g>
<g>
</g>
<g>
</g>
<g>
</g>
<g>
</g>
<g>
</g>
<g>
</g>
<g>
</g>
<g>
</g>
<g>
</g>
<g>
</g>
<g>
</g>
<g>
</g>
</svg>
