<?xml version="1.0" encoding="iso-8859-1"?>
<!-- Generator: Adobe Illustrator 19.0.0, SVG Export Plug-In . SVG Version: 6.00 Build 0)  -->
<svg version="1.1" id="Capa_1" xmlns="http://www.w3.org/2000/svg" xmlns:xlink="http://www.w3.org/1999/xlink" x="0px" y="0px"
	 viewBox="0 0 413.196 413.196" style="enable-background:new 0 0 413.196 413.196;" xml:space="preserve">
<g>
	<g>
		<g>
			<g>
				<path d="M349.607,381.402H31.782V63.577H266.21l19.832-31.782H31.782C14.239,31.794,0,46.033,0,63.577
					v317.825c0,17.544,14.239,31.782,31.782,31.782h317.825c17.544,0,31.782-14.239,31.782-31.782v-209.86l-31.782,50.947V381.402z"
					/>
				<path d="M403.129,3.635c-3.782-2.447-8.009-3.623-12.173-3.623c-7.246,0-14.334,3.56-18.625,10.075
					l-172.77,249.238l-66.839-76.278c-9.058-8.359-23.106-7.818-31.465,1.208c-8.359,9.026-7.787,23.106,1.24,31.433l80.346,91.692
					l1.939,2.225l2.034,2.32l0.826,0.509l1.684,1.684l4.354,2.002l0.985,0.477l6.833,1.176l0.286-0.064
					c6.039,0.032,12.046-2.193,16.463-6.992l1.812-2.924l0.095-0.127L409.581,34.401C416.287,24.167,413.395,10.373,403.129,3.635z"
					/>
			</g>
		</g>
	</g>
</g>
<g>
</g>
<g>
</g>
<g>
</g>
<g>
</g>
<g>
</g>
<g>
</g>
<g>
</g>
<g>
</g>
<g>
</g>
<g>
</g>
<g>
</g>
<g>
</g>
<g>
</g>
<g>
</g>
<g>
</g>
</svg>
