<?xml version="1.0" encoding="iso-8859-1"?>
<!-- Generator: Adobe Illustrator 19.0.0, SVG Export Plug-In . SVG Version: 6.00 Build 0)  -->
<svg version="1.1" id="Capa_1" xmlns="http://www.w3.org/2000/svg" xmlns:xlink="http://www.w3.org/1999/xlink" x="0px" y="0px"
	 viewBox="0 0 508.52 508.52" style="enable-background:new 0 0 508.52 508.52;" xml:space="preserve">
<g>
	<g>
		<g>
			<g>
				<path d="M254.26,0C113.845,0,0,113.845,0,254.26s113.845,254.26,254.26,254.26
					s254.26-113.845,254.26-254.26S394.675,0,254.26,0z M254.26,476.737c-122.68,0-222.477-99.829-222.477-222.477
					c0-122.68,99.797-222.477,222.477-222.477c122.649,0,222.477,99.797,222.477,222.477
					C476.737,376.908,376.845,476.737,254.26,476.737z"/>
				<path d="M365.626,153.128c-10.234-6.738-24.059-3.846-30.797,6.452L227.531,323.546l-51.297-47.483
					c-9.026-8.327-23.106-7.787-31.465,1.24s-7.787,23.074,1.24,31.433l70.907,65.567l0.826,0.54l1.684,1.716l3.051,1.176
					l3.655,1.494l3.719,0.604l5.339-0.064l2.161-0.54l6.229-2.606l0.985-0.667l3.814-2.765l1.78-2.956l0.095-0.127l121.79-186.086
					C378.784,173.659,375.891,159.866,365.626,153.128z"/>
			</g>
		</g>
	</g>
</g>
<g>
</g>
<g>
</g>
<g>
</g>
<g>
</g>
<g>
</g>
<g>
</g>
<g>
</g>
<g>
</g>
<g>
</g>
<g>
</g>
<g>
</g>
<g>
</g>
<g>
</g>
<g>
</g>
<g>
</g>
</svg>
