<?xml version="1.0" encoding="iso-8859-1"?>
<!-- Generator: Adobe Illustrator 19.0.0, SVG Export Plug-In . SVG Version: 6.00 Build 0)  -->
<svg version="1.1" id="Capa_1" xmlns="http://www.w3.org/2000/svg" xmlns:xlink="http://www.w3.org/1999/xlink" x="0px" y="0px"
	 viewBox="0 0 487.334 487.334" style="enable-background:new 0 0 487.334 487.334;" xml:space="preserve">
<g>
	<g>
		<g>
			<g>
				<path d="M243.667,0C143.106,0,61.27,81.835,61.27,182.397c0,58.793,28.576,114.302,76.485,148.501
					l2.25,1.49c11.126,6.536,12.221,27.572,11.977,31.433l-0.061,1.915v59.857c0,11.43,6.384,21.857,16.568,27.086l61.346,31.311
					c4.347,2.219,9.089,3.344,13.832,3.344c4.682,0,9.393-1.094,13.71-3.253l62.076-31.342
					c10.245-5.168,16.689-15.656,16.689-27.147V366.07c0-30.004,18.331-39.915,18.483-39.975l6.749-4.347
					c41.13-34.807,64.69-85.544,64.69-139.351C426.064,81.835,344.259,0,243.667,0z M243.667,456.934l-61.316-31.342h123.391
					L243.667,456.934z M305.712,366.07v29.123H182.321v-29.457l0.03-0.942h123.483L305.712,366.07z M341.766,298.523
					c0,0-20.368,9.515-30.46,35.871H177.457c-3.77-10.518-10.305-21.34-22.04-28.272C116.84,278.611,91.67,233.438,91.67,182.397
					c0-83.933,68.064-151.997,151.997-151.997c83.963,0,151.997,68.064,151.997,151.997
					C395.664,228.969,374.719,270.616,341.766,298.523z"/>
				<path d="M258.867,60.799c-8.36,0-15.2,6.809-15.2,15.2s6.84,15.2,15.2,15.2
					c34.199,0,75.999,31.099,75.999,77.427c0,8.39,6.84,15.2,15.2,15.2c8.36,0,15.2-6.809,15.2-15.2
					C365.265,99.285,311.123,60.799,258.867,60.799z"/>
			</g>
		</g>
	</g>
	<g>
	</g>
	<g>
	</g>
	<g>
	</g>
	<g>
	</g>
	<g>
	</g>
	<g>
	</g>
	<g>
	</g>
	<g>
	</g>
	<g>
	</g>
	<g>
	</g>
	<g>
	</g>
	<g>
	</g>
	<g>
	</g>
	<g>
	</g>
	<g>
	</g>
</g>
<g>
</g>
<g>
</g>
<g>
</g>
<g>
</g>
<g>
</g>
<g>
</g>
<g>
</g>
<g>
</g>
<g>
</g>
<g>
</g>
<g>
</g>
<g>
</g>
<g>
</g>
<g>
</g>
<g>
</g>
</svg>
