<?xml version="1.0" encoding="iso-8859-1"?>
<!-- Generator: Adobe Illustrator 19.0.0, SVG Export Plug-In . SVG Version: 6.00 Build 0)  -->
<svg version="1.1" id="Capa_1" xmlns="http://www.w3.org/2000/svg" xmlns:xlink="http://www.w3.org/1999/xlink" x="0px" y="0px"
	 viewBox="0 0 474.64 474.64" style="enable-background:new 0 0 474.64 474.64;" xml:space="preserve">
<g>
	<g>
		<g>
			<g>
				<path d="M405.131,69.508C358.792,23.169,298.056,0,237.32,0S115.847,23.169,69.508,69.508
					c-92.678,92.678-92.678,242.977,0,335.591c46.371,46.339,107.075,69.54,167.812,69.54s121.473-23.169,167.811-69.54
					C497.809,312.39,497.809,162.154,405.131,69.508z M382.661,382.598c-38.838,38.838-90.421,60.26-145.341,60.26
					c-54.888,0-106.503-21.421-145.341-60.26c-38.806-38.838-60.196-90.421-60.196-145.309c0-54.92,21.39-106.503,60.196-145.341
					c38.87-38.806,90.485-60.196,145.341-60.196s106.503,21.39,145.341,60.196s60.196,90.453,60.196,145.341
					S421.467,343.823,382.661,382.598z"/>
				<path d="M331.618,220.348h-79.456V108.887c0-8.772-7.119-15.891-15.891-15.891
					c-8.708,0-15.891,7.119-15.891,15.891v127.352c0,8.74,7.151,15.891,15.891,15.891h95.347c8.772,0,15.891-7.151,15.891-15.891
					C347.51,227.467,340.39,220.348,331.618,220.348z"/>
			</g>
		</g>
	</g>
</g>
<g>
</g>
<g>
</g>
<g>
</g>
<g>
</g>
<g>
</g>
<g>
</g>
<g>
</g>
<g>
</g>
<g>
</g>
<g>
</g>
<g>
</g>
<g>
</g>
<g>
</g>
<g>
</g>
<g>
</g>
</svg>
