<?xml version="1.0" encoding="iso-8859-1"?>
<!-- Generator: Adobe Illustrator 19.0.0, SVG Export Plug-In . SVG Version: 6.00 Build 0)  -->
<svg version="1.1" id="Capa_1" xmlns="http://www.w3.org/2000/svg" xmlns:xlink="http://www.w3.org/1999/xlink" x="0px" y="0px"
	 viewBox="0 0 455.992 455.992" style="enable-background:new 0 0 455.992 455.992;" xml:space="preserve">
<g>
	<g>
		<g>
			<g>
				<path d="M227.996,0C102.081,0,0,102.081,0,227.996c0,125.945,102.081,227.996,227.996,227.996
					c125.945,0,227.996-102.051,227.996-227.996C455.992,102.081,353.941,0,227.996,0z M227.996,425.593
					c-108.952,0-197.597-88.645-197.597-197.597S119.044,30.399,227.996,30.399s197.597,88.645,197.597,197.597
					S336.948,425.593,227.996,425.593z"/>
				<path d="M312.142,122.358l-83.538,83.568l-74.965-83.568c-5.928-5.928-15.565-5.928-21.492,0
					c-5.928,5.928-5.928,15.565,0,21.492l74.965,83.568l-84.723,84.723c-5.928,5.928-5.928,15.595,0,21.492
					c5.928,5.928,15.565,5.928,21.492,0l83.568-83.538l74.965,83.538c5.897,5.928,15.565,5.928,21.462,0
					c5.928-5.898,5.928-15.565,0-21.492l-74.995-83.538l84.723-84.754c5.928-5.928,5.928-15.565,0-21.492
					C327.676,116.43,318.07,116.43,312.142,122.358z"/>
			</g>
		</g>
	</g>
	<g>
	</g>
	<g>
	</g>
	<g>
	</g>
	<g>
	</g>
	<g>
	</g>
	<g>
	</g>
	<g>
	</g>
	<g>
	</g>
	<g>
	</g>
	<g>
	</g>
	<g>
	</g>
	<g>
	</g>
	<g>
	</g>
	<g>
	</g>
	<g>
	</g>
</g>
<g>
</g>
<g>
</g>
<g>
</g>
<g>
</g>
<g>
</g>
<g>
</g>
<g>
</g>
<g>
</g>
<g>
</g>
<g>
</g>
<g>
</g>
<g>
</g>
<g>
</g>
<g>
</g>
<g>
</g>
</svg>
