<?xml version="1.0" encoding="iso-8859-1"?>
<!-- Generator: Adobe Illustrator 19.0.0, SVG Export Plug-In . SVG Version: 6.00 Build 0)  -->
<svg version="1.1" id="Capa_1" xmlns="http://www.w3.org/2000/svg" xmlns:xlink="http://www.w3.org/1999/xlink" x="0px" y="0px"
	 viewBox="0 0 508.52 508.52" style="enable-background:new 0 0 508.52 508.52;" xml:space="preserve">
<g>
	<g>
		<path d="M413.172,254.26l-3.242,0.318c2.129-10.361,3.242-21.104,3.242-32.1
			c0-87.751-71.129-158.912-158.912-158.912c-87.751,0-158.912,71.161-158.912,158.912l0.159,1.589
			C41.603,231.758,0,277.652,0,333.716c0,56.001,41.508,101.863,95.347,109.65v1.589H254.26l-99.225-127.13h67.442v-127.13
			c0-17.544,14.239-31.782,31.782-31.782s31.782,14.239,31.782,31.782v127.13h67.442l-99.225,127.13h158.912
			c52.664,0,95.347-42.684,95.347-95.347S465.836,254.26,413.172,254.26z"/>
	</g>
</g>
<g>
</g>
<g>
</g>
<g>
</g>
<g>
</g>
<g>
</g>
<g>
</g>
<g>
</g>
<g>
</g>
<g>
</g>
<g>
</g>
<g>
</g>
<g>
</g>
<g>
</g>
<g>
</g>
<g>
</g>
</svg>
