<?xml version="1.0" encoding="iso-8859-1"?>
<!-- Generator: Adobe Illustrator 19.0.0, SVG Export Plug-In . SVG Version: 6.00 Build 0)  -->
<svg version="1.1" id="Capa_1" xmlns="http://www.w3.org/2000/svg" xmlns:xlink="http://www.w3.org/1999/xlink" x="0px" y="0px"
	 viewBox="0 0 508.52 508.52" style="enable-background:new 0 0 508.52 508.52;" xml:space="preserve">
<g>
	<g>
		<g>
			<path d="M476.737,31.782H31.782C14.239,31.782,0,46.021,0,63.565v286.042
				c0,17.544,14.239,31.782,31.782,31.782h158.881c-0.064,22.979-0.985,52.822-9.694,63.565h-6.42
				c-8.645,0-15.637,7.151-15.637,15.891s6.992,15.891,15.637,15.891h159.389c8.645,0,15.669-7.151,15.669-15.891
				s-7.024-15.891-15.637-15.891h-6.388c-8.708-10.742-9.662-40.586-9.725-63.565h158.881c17.544,0,31.782-14.239,31.782-31.782
				V63.565C508.52,46.021,494.281,31.782,476.737,31.782z M476.737,317.825H31.782V63.565h444.955V317.825z"/>
		</g>
	</g>
</g>
<g>
</g>
<g>
</g>
<g>
</g>
<g>
</g>
<g>
</g>
<g>
</g>
<g>
</g>
<g>
</g>
<g>
</g>
<g>
</g>
<g>
</g>
<g>
</g>
<g>
</g>
<g>
</g>
<g>
</g>
</svg>
