<?xml version="1.0" encoding="iso-8859-1"?>
<!-- Generator: Adobe Illustrator 19.0.0, SVG Export Plug-In . SVG Version: 6.00 Build 0)  -->
<svg version="1.1" id="Capa_1" xmlns="http://www.w3.org/2000/svg" xmlns:xlink="http://www.w3.org/1999/xlink" x="0px" y="0px"
	 viewBox="0 0 508.52 508.52" style="enable-background:new 0 0 508.52 508.52;" xml:space="preserve">
<g>
	<g>
		<g>
			<path d="M254.26,0C113.845,0,0,113.845,0,254.26s113.845,254.26,254.26,254.26
				s254.26-113.845,254.26-254.26S394.675,0,254.26,0z M378.974,151.444l-36.931,59.179l-24.663,39.474l0.445,4.163
				c0,35.12-28.445,63.565-63.565,63.565l-4.163-0.445l-39.506,24.6l-59.147,36.931c-2.574,1.684-5.498,2.479-8.422,2.479
				c-4.1,0-8.168-1.589-11.251-4.64c-5.244-5.212-6.166-13.349-2.225-19.61l36.931-59.147l24.631-39.474l-0.413-4.259
				c0-35.12,28.445-63.565,63.565-63.565l4.163,0.413l39.506-24.631l59.115-36.931c6.198-3.909,14.397-2.988,19.673,2.257
				C382.025,137.014,382.915,145.151,378.974,151.444z"/>
			<circle style="fill:#000000;" cx="254.26" cy="254.26" r="31.782"/>
		</g>
	</g>
</g>
<g>
</g>
<g>
</g>
<g>
</g>
<g>
</g>
<g>
</g>
<g>
</g>
<g>
</g>
<g>
</g>
<g>
</g>
<g>
</g>
<g>
</g>
<g>
</g>
<g>
</g>
<g>
</g>
<g>
</g>
</svg>
