<?xml version="1.0" encoding="iso-8859-1"?>
<!-- Generator: Adobe Illustrator 19.0.0, SVG Export Plug-In . SVG Version: 6.00 Build 0)  -->
<svg version="1.1" id="Capa_1" xmlns="http://www.w3.org/2000/svg" xmlns:xlink="http://www.w3.org/1999/xlink" x="0px" y="0px"
	 viewBox="0 0 508.52 508.52" style="enable-background:new 0 0 508.52 508.52;" xml:space="preserve">
<g>
	<g>
		<path d="M476.737,0H31.782C14.239,0,0,14.239,0,31.782v444.955c0,17.544,14.239,31.782,31.782,31.782
			h444.955c17.544,0,31.782-14.239,31.782-31.782V31.782C508.52,14.239,494.281,0,476.737,0z M222.477,429.063
			c0,8.74-7.119,15.891-15.891,15.891c-8.772,0-15.891-7.151-15.891-15.891v-88.768l-99.988,99.988
			c-6.198,6.166-16.273,6.166-22.47,0c-6.198-6.198-6.198-16.304,0-22.47l99.988-99.988H79.456c-8.772,0-15.891-7.151-15.891-15.891
			s7.119-15.891,15.891-15.891h127.13l6.07,1.24c3.877,1.621,6.992,4.704,8.581,8.581l1.24,6.07V429.063z M429.063,222.477h-127.13
			l-6.07-1.24l-5.053-3.337l-0.127-0.064l-0.095-0.191l-3.305-4.99l-1.24-6.007V79.456c0-8.772,7.151-15.891,15.891-15.891
			s15.891,7.119,15.891,15.891v88.768l99.988-99.988c6.166-6.198,16.273-6.198,22.47,0c6.166,6.198,6.166,16.273,0,22.47
			l-99.988,99.988h88.768c8.74,0,15.891,7.119,15.891,15.891C444.955,215.358,437.804,222.477,429.063,222.477z"/>
	</g>
</g>
<g>
</g>
<g>
</g>
<g>
</g>
<g>
</g>
<g>
</g>
<g>
</g>
<g>
</g>
<g>
</g>
<g>
</g>
<g>
</g>
<g>
</g>
<g>
</g>
<g>
</g>
<g>
</g>
<g>
</g>
</svg>
