<?xml version="1.0" encoding="iso-8859-1"?>
<!-- Generator: Adobe Illustrator 19.0.0, SVG Export Plug-In . SVG Version: 6.00 Build 0)  -->
<svg version="1.1" id="Capa_1" xmlns="http://www.w3.org/2000/svg" xmlns:xlink="http://www.w3.org/1999/xlink" x="0px" y="0px"
	 viewBox="0 0 444.963 444.963" style="enable-background:new 0 0 444.963 444.963;" xml:space="preserve">
<g>
	<g>
		<g>
			<g>
				<path d="M440.318,4.672c-6.134-6.198-16.273-6.198-22.47,0L286.046,136.474V47.706
					c0-8.772-7.151-15.891-15.891-15.891s-15.891,7.119-15.891,15.891v127.193l1.24,6.007l3.305,4.99l0.127,0.191l0.127,0.064
					l5.022,3.337l6.07,1.24h127.13c8.74,0,15.891-7.119,15.891-15.891s-7.151-15.891-15.891-15.891h-88.768l131.77-131.77
					C446.516,20.945,446.516,10.901,440.318,4.672z"/>
				<path d="M180.878,255.531l-6.07-1.24H47.678c-8.772,0-15.891,7.183-15.891,15.891
					c0,8.74,7.119,15.891,15.891,15.891h88.768L4.676,417.844c-6.229,6.166-6.229,16.273-0.032,22.47
					c6.198,6.166,16.273,6.166,22.47,0l131.802-131.77v88.768c0,8.74,7.119,15.891,15.891,15.891
					c8.772,0,15.891-7.151,15.891-15.891v-127.13l-1.24-6.039C187.838,260.267,184.756,257.12,180.878,255.531z"/>
			</g>
		</g>
	</g>
</g>
<g>
</g>
<g>
</g>
<g>
</g>
<g>
</g>
<g>
</g>
<g>
</g>
<g>
</g>
<g>
</g>
<g>
</g>
<g>
</g>
<g>
</g>
<g>
</g>
<g>
</g>
<g>
</g>
<g>
</g>
</svg>
