<?xml version="1.0" encoding="iso-8859-1"?>
<!-- Generator: Adobe Illustrator 19.0.0, SVG Export Plug-In . SVG Version: 6.00 Build 0)  -->
<svg version="1.1" id="Capa_1" xmlns="http://www.w3.org/2000/svg" xmlns:xlink="http://www.w3.org/1999/xlink" x="0px" y="0px"
	 viewBox="0 0 508.52 508.52" style="enable-background:new 0 0 508.52 508.52;" xml:space="preserve">
<g>
	<g>
		<g>
			<g>
				<path d="M0,31.782v444.955c0,17.544,14.239,31.782,31.782,31.782h31.782V0H31.782
					C14.239,0,0,14.239,0,31.782z"/>
				<path d="M413.172,0H95.347v508.52h317.825c17.544,0,31.783-14.239,31.783-31.782V31.782
					C444.955,14.239,430.716,0,413.172,0z M268.403,122.49c26.57,0,48.087,21.549,48.087,48.087c0,26.57-21.58,48.119-48.087,48.119
					c-26.57,0-48.119-21.549-48.119-48.119S241.833,122.49,268.403,122.49z M190.695,343.473
					c0-58.257,35.247-105.518,78.725-105.518c43.415,0,78.693,47.292,78.693,105.518
					C348.082,401.762,190.695,401.762,190.695,343.473z"/>
				<rect x="476.737" y="31.782" style="fill:#000000;" width="31.782" height="95.347"/>
				<rect x="476.737" y="158.912" style="fill:#000000;" width="31.782" height="95.347"/>
				<rect x="476.737" y="286.042" style="fill:#000000;" width="31.782" height="95.347"/>
			</g>
		</g>
	</g>
</g>
<g>
</g>
<g>
</g>
<g>
</g>
<g>
</g>
<g>
</g>
<g>
</g>
<g>
</g>
<g>
</g>
<g>
</g>
<g>
</g>
<g>
</g>
<g>
</g>
<g>
</g>
<g>
</g>
<g>
</g>
</svg>
