<?xml version="1.0" encoding="iso-8859-1"?>
<!-- Generator: Adobe Illustrator 19.0.0, SVG Export Plug-In . SVG Version: 6.00 Build 0)  -->
<svg version="1.1" id="Capa_1" xmlns="http://www.w3.org/2000/svg" xmlns:xlink="http://www.w3.org/1999/xlink" x="0px" y="0px"
	 viewBox="0 0 509.505 509.505" style="enable-background:new 0 0 509.505 509.505;" xml:space="preserve">
<g>
	<g>
		<g>
			<g>
				<path d="M254.737,0C149.6,0,64.042,85.558,64.042,190.695c0,7.469,0.477,14.874,1.367,22.184l0.667,4.195
					c0.858,6.039,1.875,12.046,3.305,17.925l0.89,3.178c1.621,6.261,3.496,12.491,5.753,18.529l0.667,1.716
					c2.511,6.515,5.308,12.935,8.518,19.101l0.381,0.699c3.337,6.388,7.024,12.586,11.092,18.688l0.35,0.572
					c3.973,5.88,8.295,11.473,12.904,16.94l1.112,1.303c4.195,4.831,8.74,9.439,13.444,13.921l3.115,2.924l4.1,3.846l2.86,1.812
					l9.471,7.755l3.305,2.86c21.93,18.18,11.219,32.577,35.628,32.577h143.53c24.441,0,13.73-14.397,35.692-32.577l3.305-2.86
					l9.471-7.755l2.86-1.812l4.1-3.846l3.178-2.924c4.64-4.481,9.185-9.058,13.412-13.921l1.112-1.303
					c4.64-5.467,8.931-11.124,12.904-16.94l0.381-0.572c4.036-6.007,7.691-12.236,11.06-18.688l0.381-0.667
					c3.242-6.198,6.007-12.586,8.518-19.101l0.667-1.716c2.257-6.039,4.163-12.268,5.784-18.529l0.858-3.178
					c1.43-5.88,2.447-11.887,3.305-17.925l0.699-4.195c0.795-7.342,1.271-14.747,1.271-22.216C445.431,85.558,359.905,0,254.737,0z"
					/>
				<path d="M182.972,476.737l57.304,29.303c4.545,2.288,9.503,3.464,14.461,3.464
					c4.895,0,9.821-1.112,14.334-3.401l58.13-29.367h-74.403H182.972z"/>
				<path d="M335.305,413.172H176.393c-8.772,0-15.891,7.151-15.891,15.891
					c0,8.74,7.119,15.891,15.891,15.891h158.912c8.74,0,15.891-7.151,15.891-15.891
					C351.196,420.323,344.077,413.172,335.305,413.172z"/>
			</g>
		</g>
	</g>
</g>
<g>
</g>
<g>
</g>
<g>
</g>
<g>
</g>
<g>
</g>
<g>
</g>
<g>
</g>
<g>
</g>
<g>
</g>
<g>
</g>
<g>
</g>
<g>
</g>
<g>
</g>
<g>
</g>
<g>
</g>
</svg>
