<?xml version="1.0" encoding="iso-8859-1"?>
<!-- Generator: Adobe Illustrator 19.0.0, SVG Export Plug-In . SVG Version: 6.00 Build 0)  -->
<svg version="1.1" id="Capa_1" xmlns="http://www.w3.org/2000/svg" xmlns:xlink="http://www.w3.org/1999/xlink" x="0px" y="0px"
	 viewBox="0 0 508.52 508.52" style="enable-background:new 0 0 508.52 508.52;" xml:space="preserve">
<g>
	<g>
		<g>
			<g>
				<path d="M254.26,0C113.845,0,0,113.845,0,254.26s113.845,254.26,254.26,254.26
					s254.26-113.845,254.26-254.26C508.52,113.813,394.675,0,254.26,0z M413.172,254.609v147.28c0,6.198-5.085,11.283-11.283,11.283
					H111.239c-8.772,0-15.891-7.151-15.891-15.891V106.662c0-6.229,5.085-11.315,11.315-11.315h290.619
					c8.74,0,15.891,7.119,15.891,15.891V254.609z"/>
				<rect x="127.13" y="254.609" style="fill:#000000;" width="127.321" height="126.78"/>
				<rect x="254.451" y="127.13" style="fill:#000000;" width="126.939" height="127.48"/>
			</g>
		</g>
	</g>
</g>
<g>
</g>
<g>
</g>
<g>
</g>
<g>
</g>
<g>
</g>
<g>
</g>
<g>
</g>
<g>
</g>
<g>
</g>
<g>
</g>
<g>
</g>
<g>
</g>
<g>
</g>
<g>
</g>
<g>
</g>
</svg>
