<?xml version="1.0" encoding="iso-8859-1"?>
<!-- Generator: Adobe Illustrator 19.0.0, SVG Export Plug-In . SVG Version: 6.00 Build 0)  -->
<svg version="1.1" id="Capa_1" xmlns="http://www.w3.org/2000/svg" xmlns:xlink="http://www.w3.org/1999/xlink" x="0px" y="0px"
	 viewBox="0 0 508.527 508.527" style="enable-background:new 0 0 508.527 508.527;" xml:space="preserve">
<g>
	<g>
		<g>
			<path d="M279.026,202.077c-19.387-1.144-41.762,0.032-67.665,4.45l59.751,107.711l237.415-65.186
				c-2.574-6.102-6.293-12.046-11.251-17.766c-24.536-28.445-77.835-53.808-135.838-65.249
				c-56.954-13.349-118.612-12.777-181.764-3.242l-6.801,1.081l-20.976-38.87c-20.436,2.733-39.601,6.992-57.399,12.649
				l19.991,41.826c-32.672,12.649-59.465,30.67-78.789,52.346c-31.91,36.232-44.527,81.84-29.208,126.304
				c3.083,8.899,7.246,17.449,12.395,25.394l237.415-65.186l-65.917-122.108l6.929-1.303
				c106.598-19.006,164.888,10.361,196.829,41.635l-81.236,19.705L279.026,202.077z M86.773,311.059
				c-7.31-33.467-1.494-70.811,44.909-95.665l36.359,75.992L86.773,311.059z"/>
		</g>
	</g>
</g>
<g>
</g>
<g>
</g>
<g>
</g>
<g>
</g>
<g>
</g>
<g>
</g>
<g>
</g>
<g>
</g>
<g>
</g>
<g>
</g>
<g>
</g>
<g>
</g>
<g>
</g>
<g>
</g>
<g>
</g>
</svg>
