<?xml version="1.0" encoding="iso-8859-1"?>
<!-- Generator: Adobe Illustrator 19.0.0, SVG Export Plug-In . SVG Version: 6.00 Build 0)  -->
<svg version="1.1" id="Capa_1" xmlns="http://www.w3.org/2000/svg" xmlns:xlink="http://www.w3.org/1999/xlink" x="0px" y="0px"
	 viewBox="0 0 508.52 508.52" style="enable-background:new 0 0 508.52 508.52;" xml:space="preserve">
<g>
	<g>
		<g>
			<g>
				<path d="M254.26,0C113.845,0,0,113.845,0,254.26s113.845,254.26,254.26,254.26
					s254.26-113.845,254.26-254.26C508.52,113.813,394.675,0,254.26,0z M271.804,294.624l-40.205-72.432
					c17.417-2.988,32.45-3.75,45.576-2.988l22.788,36.455l54.729-13.253c-21.517-21.04-60.736-40.809-132.501-28.032l-4.704,0.858
					l44.368,82.126l-159.771,43.892c-3.464-5.339-6.261-11.06-8.327-17.067c-10.329-29.907-1.843-60.609,19.642-84.986
					c12.999-14.588,31.051-26.729,53.013-35.215l-13.444-28.159c11.95-3.814,24.886-6.674,38.616-8.518l14.111,26.157l4.608-0.731
					c42.493-6.42,84.001-6.801,122.299,2.193c39.061,7.691,74.88,24.759,91.438,43.923c3.305,3.846,5.88,7.85,7.564,11.95
					L271.804,294.624z"/>
				<path d="M147.725,292.462l54.666-13.253l-24.441-51.106C146.74,244.82,142.799,269.96,147.725,292.462z"
					/>
			</g>
		</g>
	</g>
</g>
<g>
</g>
<g>
</g>
<g>
</g>
<g>
</g>
<g>
</g>
<g>
</g>
<g>
</g>
<g>
</g>
<g>
</g>
<g>
</g>
<g>
</g>
<g>
</g>
<g>
</g>
<g>
</g>
<g>
</g>
</svg>
