<?xml version="1.0" encoding="iso-8859-1"?>
<!-- Generator: Adobe Illustrator 19.0.0, SVG Export Plug-In . SVG Version: 6.00 Build 0)  -->
<svg version="1.1" id="Capa_1" xmlns="http://www.w3.org/2000/svg" xmlns:xlink="http://www.w3.org/1999/xlink" x="0px" y="0px"
	 viewBox="0 0 486.392 486.392" style="enable-background:new 0 0 486.392 486.392;" xml:space="preserve">
<g>
	<g>
		<g>
			<g>
				<path d="M425.593,60.799h-30.399V30.399C395.193,13.619,381.574,0,364.794,0H60.799
					C44.018,0,30.399,13.619,30.399,30.399v364.794c0,16.781,13.619,30.399,30.399,30.399h30.399v30.399
					c0,16.781,13.619,30.399,30.399,30.399h303.995c16.781,0,30.399-13.619,30.399-30.399V91.198
					C455.992,74.418,442.373,60.799,425.593,60.799z M60.799,395.193V30.399h303.995v364.794H60.799z M425.593,455.992H121.598
					v-30.399h243.196c16.781,0,30.399-13.619,30.399-30.399V91.198h30.399V455.992z"/>
				<path d="M319.194,91.198H167.197c-8.39,0-15.2,6.809-15.2,15.2s6.809,15.2,15.2,15.2h151.997
					c8.36,0,15.2-6.809,15.2-15.2S327.554,91.198,319.194,91.198z"/>
				<path d="M319.194,182.397H106.398c-8.39,0-15.2,6.809-15.2,15.2s6.809,15.2,15.2,15.2h212.796
					c8.36,0,15.2-6.809,15.2-15.2S327.554,182.397,319.194,182.397z"/>
				<path d="M319.194,243.196H106.398c-8.39,0-15.2,6.809-15.2,15.2c0,8.36,6.809,15.2,15.2,15.2h212.796
					c8.36,0,15.2-6.84,15.2-15.2C334.394,250.005,327.554,243.196,319.194,243.196z"/>
				<path d="M319.194,303.995H106.398c-8.39,0-15.2,6.84-15.2,15.2c0,8.36,6.809,15.2,15.2,15.2h212.796
					c8.36,0,15.2-6.84,15.2-15.2C334.394,310.835,327.554,303.995,319.194,303.995z"/>
			</g>
		</g>
	</g>
	<g>
	</g>
	<g>
	</g>
	<g>
	</g>
	<g>
	</g>
	<g>
	</g>
	<g>
	</g>
	<g>
	</g>
	<g>
	</g>
	<g>
	</g>
	<g>
	</g>
	<g>
	</g>
	<g>
	</g>
	<g>
	</g>
	<g>
	</g>
	<g>
	</g>
</g>
<g>
</g>
<g>
</g>
<g>
</g>
<g>
</g>
<g>
</g>
<g>
</g>
<g>
</g>
<g>
</g>
<g>
</g>
<g>
</g>
<g>
</g>
<g>
</g>
<g>
</g>
<g>
</g>
<g>
</g>
</svg>
