<?xml version="1.0" encoding="iso-8859-1"?>
<!-- Generator: Adobe Illustrator 19.0.0, SVG Export Plug-In . SVG Version: 6.00 Build 0)  -->
<svg version="1.1" id="Capa_1" xmlns="http://www.w3.org/2000/svg" xmlns:xlink="http://www.w3.org/1999/xlink" x="0px" y="0px"
	 viewBox="0 0 508.52 508.52" style="enable-background:new 0 0 508.52 508.52;" xml:space="preserve">
<g>
	<g>
		<g>
			<g>
				<path d="M444.955,0H63.565C46.021,0,31.782,14.239,31.782,31.782v444.955
					c0,17.544,14.239,31.782,31.782,31.782h381.39c17.544,0,31.782-14.239,31.782-31.782V31.782C476.737,14.239,462.499,0,444.955,0
					z M444.955,476.737H63.565V31.782h381.39V476.737z"/>
				<path d="M238.369,127.13h127.13c8.74,0,15.891-7.119,15.891-15.891s-7.151-15.891-15.891-15.891h-127.13
					c-8.772,0-15.891,7.119-15.891,15.891S229.597,127.13,238.369,127.13z"/>
				<path d="M143.021,222.477h222.477c8.74,0,15.891-7.119,15.891-15.891c0-8.772-7.151-15.891-15.891-15.891
					H143.021c-8.772,0-15.891,7.119-15.891,15.891C127.13,215.358,134.249,222.477,143.021,222.477z"/>
				<path d="M143.021,317.825h222.477c8.74,0,15.891-7.151,15.891-15.891s-7.151-15.891-15.891-15.891
					H143.021c-8.772,0-15.891,7.151-15.891,15.891S134.249,317.825,143.021,317.825z"/>
				<path d="M143.021,413.172h222.477c8.74,0,15.891-7.151,15.891-15.891s-7.151-15.891-15.891-15.891
					H143.021c-8.772,0-15.891,7.151-15.891,15.891S134.249,413.172,143.021,413.172z"/>
			</g>
		</g>
	</g>
</g>
<g>
</g>
<g>
</g>
<g>
</g>
<g>
</g>
<g>
</g>
<g>
</g>
<g>
</g>
<g>
</g>
<g>
</g>
<g>
</g>
<g>
</g>
<g>
</g>
<g>
</g>
<g>
</g>
<g>
</g>
</svg>
