<?xml version="1.0" encoding="iso-8859-1"?>
<!-- Generator: Adobe Illustrator 19.0.0, SVG Export Plug-In . SVG Version: 6.00 Build 0)  -->
<svg version="1.1" id="Capa_1" xmlns="http://www.w3.org/2000/svg" xmlns:xlink="http://www.w3.org/1999/xlink" x="0px" y="0px"
	 viewBox="0 0 507.693 507.693" style="enable-background:new 0 0 507.693 507.693;" xml:space="preserve">
<g>
	<g>
		<g>
			<path d="M507.693,313.502c0-45.385-25.331-85.844-64.995-112.955c2.797,12.586,4.418,25.521,4.418,38.806
				c0,102.594-87.084,188.121-201.755,206.491c24.25,9.789,51.392,15.51,80.378,15.51c27.269,0,53.077-5.022,76.31-13.794
				c29.462,10.043,61.626,12.649,88.228,12.649c-13.857-16.59-23.424-32.863-30.289-47.165
				C489.514,386.729,507.693,351.864,507.693,313.502z"/>
			<path d="M398.552,223.558c0-97.731-89.372-177.219-199.308-177.219S0,125.795,0,223.526
				c0,45.481,20.023,89.436,55.27,122.331c-7.914,19.26-18.402,37.472-31.21,54.157c-3.782,4.895-4.354,11.569-1.494,17.067
				c2.765,5.244,8.2,8.518,14.08,8.518h0.763c16.813-0.795,50.248-11.982,85.654-34.452c18.942,3.337,61.372,9.63,76.183,9.63
				C311.023,400.745,398.552,322.942,398.552,223.558z"/>
		</g>
	</g>
</g>
<g>
</g>
<g>
</g>
<g>
</g>
<g>
</g>
<g>
</g>
<g>
</g>
<g>
</g>
<g>
</g>
<g>
</g>
<g>
</g>
<g>
</g>
<g>
</g>
<g>
</g>
<g>
</g>
<g>
</g>
</svg>
