<?xml version="1.0" encoding="iso-8859-1"?>
<!-- Generator: Adobe Illustrator 19.0.0, SVG Export Plug-In . SVG Version: 6.00 Build 0)  -->
<svg version="1.1" id="Capa_1" xmlns="http://www.w3.org/2000/svg" xmlns:xlink="http://www.w3.org/1999/xlink" x="0px" y="0px"
	 viewBox="0 0 508.52 508.52" style="enable-background:new 0 0 508.52 508.52;" xml:space="preserve">
<g>
	<g>
		<g>
			<path d="M476.737,47.674H317.825c-17.544,0-31.782,14.239-31.782,31.782c0,0-4.132,29.145-31.782,31.782
				H31.782C14.239,111.239,0,124.969,0,142.513v286.551c0,17.544,14.239,31.783,31.782,31.783h444.955
				c17.544,0,31.782-14.239,31.782-31.783V79.456C508.52,61.912,494.281,47.674,476.737,47.674z M254.355,460.655l-99.225-127.13
				h67.442v-127.13c0-17.544,14.239-31.782,31.782-31.782s31.783,14.239,31.783,31.782v127.13h67.442L254.355,460.655z"/>
		</g>
	</g>
</g>
<g>
</g>
<g>
</g>
<g>
</g>
<g>
</g>
<g>
</g>
<g>
</g>
<g>
</g>
<g>
</g>
<g>
</g>
<g>
</g>
<g>
</g>
<g>
</g>
<g>
</g>
<g>
</g>
<g>
</g>
</svg>
