<?xml version="1.0" encoding="iso-8859-1"?>
<!-- Generator: Adobe Illustrator 19.0.0, SVG Export Plug-In . SVG Version: 6.00 Build 0)  -->
<svg version="1.1" id="Capa_1" xmlns="http://www.w3.org/2000/svg" xmlns:xlink="http://www.w3.org/1999/xlink" x="0px" y="0px"
	 viewBox="0 0 476.761 476.761" style="enable-background:new 0 0 476.761 476.761;" xml:space="preserve">
<g>
	<g>
		<g>
			<path d="M406.991,69.818c-93.154-93.091-244.058-93.091-337.149,0s-93.091,244.026,0,337.149
				c93.091,93.059,244.058,93.059,337.149,0C499.986,313.844,499.986,162.877,406.991,69.818z M356.552,142.695L181.43,317.817
				h96.523c8.74,0,15.891,7.151,15.891,15.891c0,8.708-7.119,15.891-15.891,15.891H143.069l-6.07-1.24l-5.022-3.337l-0.127-0.064
				l-0.127-0.191l-3.305-5.022l-1.24-5.975V198.823c0-8.772,7.119-15.891,15.891-15.891c8.772,0,15.891,7.119,15.891,15.891v96.523
				l175.121-175.121c6.198-6.198,16.273-6.198,22.47,0C362.718,126.423,362.749,136.434,356.552,142.695z"/>
		</g>
	</g>
</g>
<g>
</g>
<g>
</g>
<g>
</g>
<g>
</g>
<g>
</g>
<g>
</g>
<g>
</g>
<g>
</g>
<g>
</g>
<g>
</g>
<g>
</g>
<g>
</g>
<g>
</g>
<g>
</g>
<g>
</g>
</svg>
