<?xml version="1.0" encoding="iso-8859-1"?>
<!-- Generator: Adobe Illustrator 19.0.0, SVG Export Plug-In . SVG Version: 6.00 Build 0)  -->
<svg version="1.1" id="Capa_1" xmlns="http://www.w3.org/2000/svg" xmlns:xlink="http://www.w3.org/1999/xlink" x="0px" y="0px"
	 viewBox="0 0 508.52 508.52" style="enable-background:new 0 0 508.52 508.52;" xml:space="preserve">
<g>
	<g>
		<path d="M444.955,63.565c-8.931-19.864-25.14-31.782-42.716-31.782H103.293
			c-17.544,0-31.782,11.918-39.728,31.782L0,285.534v175.312c0,8.74,7.119,15.891,15.891,15.891h476.737
			c8.74,0,15.891-7.151,15.891-15.891V287.504L444.955,63.565z M93.599,74.149c1.462-3.274,5.181-10.584,9.694-10.584h298.946
			c4.354,0,9.376,4.481,12.904,11.315l59.91,211.163H333.716c-8.74,0-15.891,7.151-15.891,15.891v47.674h-127.13v-47.674
			c0-8.74-7.119-15.891-15.891-15.891H32.927L93.599,74.149z M476.737,444.955H31.782v-127.13h127.13v47.674
			c0,8.74,7.119,15.891,15.891,15.891h158.912c8.74,0,15.891-7.151,15.891-15.891v-47.674h127.13V444.955z"/>
	</g>
</g>
<g>
</g>
<g>
</g>
<g>
</g>
<g>
</g>
<g>
</g>
<g>
</g>
<g>
</g>
<g>
</g>
<g>
</g>
<g>
</g>
<g>
</g>
<g>
</g>
<g>
</g>
<g>
</g>
<g>
</g>
</svg>
