<?xml version="1.0" encoding="iso-8859-1"?>
<!-- Generator: Adobe Illustrator 19.0.0, SVG Export Plug-In . SVG Version: 6.00 Build 0)  -->
<svg version="1.1" id="Capa_1" xmlns="http://www.w3.org/2000/svg" xmlns:xlink="http://www.w3.org/1999/xlink" x="0px" y="0px"
	 viewBox="0 0 474.64 474.64" style="enable-background:new 0 0 474.64 474.64;" xml:space="preserve">
<g>
	<g>
		<path d="M237.32,0.016C106.249,0.016,0,106.233,0,237.336s106.281,237.288,237.32,237.288
			s237.32-106.249,237.32-237.32S368.391,0.016,237.32,0.016z M353.517,264.7l-106.344,94.044c-3.178,3.178-7.31,4.672-11.505,4.64
			c-4.164,0-8.327-1.494-11.505-4.64L117.849,264.7c-6.229-6.229-6.229-16.4,0-22.597c6.229-6.261,16.368-6.261,22.597,0
			l95.22,84.192l95.22-84.192c6.229-6.261,16.4-6.261,22.597,0C359.714,248.269,359.809,258.376,353.517,264.7z M353.517,150.665
			l-106.312,94.076c-3.178,3.178-7.31,4.672-11.505,4.64c-4.195,0-8.359-1.494-11.537-4.64l-106.312-94.076
			c-6.229-6.229-6.229-16.368,0-22.597c6.229-6.229,16.368-6.229,22.597,0l95.22,84.224l95.22-84.224
			c6.229-6.229,16.4-6.229,22.597,0C359.714,134.265,359.809,144.404,353.517,150.665z"/>
	</g>
</g>
<g>
</g>
<g>
</g>
<g>
</g>
<g>
</g>
<g>
</g>
<g>
</g>
<g>
</g>
<g>
</g>
<g>
</g>
<g>
</g>
<g>
</g>
<g>
</g>
<g>
</g>
<g>
</g>
<g>
</g>
</svg>
