<?xml version="1.0" encoding="iso-8859-1"?>
<!-- Generator: Adobe Illustrator 19.0.0, SVG Export Plug-In . SVG Version: 6.00 Build 0)  -->
<svg version="1.1" id="Capa_1" xmlns="http://www.w3.org/2000/svg" xmlns:xlink="http://www.w3.org/1999/xlink" x="0px" y="0px"
	 viewBox="0 0 476.737 476.737" style="enable-background:new 0 0 476.737 476.737;" xml:space="preserve">
<g>
	<g>
		<path d="M238.369,0C106.726,0,0,106.726,0,238.369c0,131.675,106.726,238.369,238.369,238.369
			c131.675,0,238.369-106.694,238.369-238.369C476.737,106.726,370.043,0,238.369,0z M344.967,281.402L249.62,376.75l-5.149,3.432
			c-3.846,1.653-8.232,1.653-12.109,0l-5.022-3.305l-0.127-0.127l-95.347-95.347c-6.198-6.166-6.198-16.273,0-22.47
			c6.198-6.166,16.273-6.166,22.47,0l68.142,68.205V79.456c0-8.772,7.119-15.891,15.891-15.891c8.74,0,15.891,7.119,15.891,15.891
			v247.681l68.205-68.205c6.166-6.166,16.273-6.166,22.47,0C351.165,265.129,351.165,275.173,344.967,281.402z"/>
	</g>
</g>
<g>
</g>
<g>
</g>
<g>
</g>
<g>
</g>
<g>
</g>
<g>
</g>
<g>
</g>
<g>
</g>
<g>
</g>
<g>
</g>
<g>
</g>
<g>
</g>
<g>
</g>
<g>
</g>
<g>
</g>
</svg>
