<?xml version="1.0" encoding="iso-8859-1"?>
<!-- Generator: Adobe Illustrator 19.0.0, SVG Export Plug-In . SVG Version: 6.00 Build 0)  -->
<svg version="1.1" id="Capa_1" xmlns="http://www.w3.org/2000/svg" xmlns:xlink="http://www.w3.org/1999/xlink" x="0px" y="0px"
	 viewBox="0 0 381.422 381.422" style="enable-background:new 0 0 381.422 381.422;" xml:space="preserve">
<g>
	<g>
		<g>
			<path d="M297.319,258.9c-6.198-6.166-16.336-6.166-22.47,0l-68.237,68.237V15.891
				C206.612,7.119,199.461,0,190.721,0c-8.772,0-15.891,7.119-15.891,15.891v311.246l-68.205-68.205
				c-6.198-6.134-16.273-6.134-22.47,0c-6.198,6.198-6.198,16.336,0,22.47l95.347,95.347l0.127,0.127l5.022,3.305
				c3.877,1.653,8.232,1.653,12.141,0l5.149-3.432l95.347-95.347C303.453,275.204,303.453,265.129,297.319,258.9z"/>
		</g>
	</g>
</g>
<g>
</g>
<g>
</g>
<g>
</g>
<g>
</g>
<g>
</g>
<g>
</g>
<g>
</g>
<g>
</g>
<g>
</g>
<g>
</g>
<g>
</g>
<g>
</g>
<g>
</g>
<g>
</g>
<g>
</g>
</svg>
