<?xml version="1.0" encoding="iso-8859-1"?>
<!-- Generator: Adobe Illustrator 19.0.0, SVG Export Plug-In . SVG Version: 6.00 Build 0)  -->
<svg version="1.1" id="Capa_1" xmlns="http://www.w3.org/2000/svg" xmlns:xlink="http://www.w3.org/1999/xlink" x="0px" y="0px"
	 viewBox="0 0 508.52 508.52" style="enable-background:new 0 0 508.52 508.52;" xml:space="preserve">
<g>
	<g>
		<path d="M415.81,246.993c29.717-68.173,11.378-111.525-3.496-132.406
			C389.653,82.9,348.431,65.515,312.263,72.475c-62.961,12.014-89.786,54.666-89.786,142.735v73.545l-36.804-36.804
			c-6.198-6.198-16.273-6.198-22.47,0c-6.198,6.198-6.198,16.273,0,22.47l63.946,63.915c3.21,3.21,7.437,4.672,11.632,4.577
			c4.195,0.127,8.422-1.367,11.632-4.577l64.232-64.201c6.198-6.198,6.198-16.304,0-22.502c-6.166-6.198-16.273-6.198-22.47,0
			l-37.916,37.916V215.21c0-91.661,31.56-105.327,63.883-111.525c20.754-3.814,50.788,4.895,68.237,29.367
			c21.358,29.844,17.258,74.117-11.537,124.587c-3.051,5.371-2.733,12.014,0.826,17.035c3.528,5.022,9.821,7.564,15.764,6.484
			c3.846-0.667,15.287-2.415,22.534-2.415c34.643,0,62.77,28.509,62.77,63.597s-28.477,63.565-63.565,63.565l-315.505,0.191
			c-36.931-5.467-65.885-40.491-65.885-79.647c0-39.061,29.303-72.623,68.205-78.185l13.666-1.971
			c7.818-1.112,13.635-7.818,13.635-15.732l-0.254-16.908c0.095-56.922,35.183-103.706,83.524-111.239
			c8.645-1.367,14.588-9.471,13.253-18.148c-1.367-8.677-9.28-14.556-18.18-13.253C141.75,80.961,95.347,140.934,95.252,213.589
			l0.254,3.21C41.063,224.586,0,271.688,0,326.449c0,55.492,39.982,103.229,95.347,111.239h317.825
			c52.568,0,95.347-42.779,95.347-95.347C508.52,290.344,467.044,247.946,415.81,246.993z"/>
	</g>
</g>
<g>
</g>
<g>
</g>
<g>
</g>
<g>
</g>
<g>
</g>
<g>
</g>
<g>
</g>
<g>
</g>
<g>
</g>
<g>
</g>
<g>
</g>
<g>
</g>
<g>
</g>
<g>
</g>
<g>
</g>
</svg>
