<?xml version="1.0" encoding="iso-8859-1"?>
<!-- Generator: Adobe Illustrator 19.0.0, SVG Export Plug-In . SVG Version: 6.00 Build 0)  -->
<svg version="1.1" id="Capa_1" xmlns="http://www.w3.org/2000/svg" xmlns:xlink="http://www.w3.org/1999/xlink" x="0px" y="0px"
	 viewBox="0 0 508.52 508.52" style="enable-background:new 0 0 508.52 508.52;" xml:space="preserve">
<g>
	<g>
		<g>
			<path d="M254.26,0C114.067,0,0,114.067,0,254.26s114.067,254.26,254.26,254.26
				s254.26-114.067,254.26-254.26S394.452,0,254.26,0z M422.357,117.246c30.257,36.963,48.532,84.033,49.009,135.298
				c-7.183-1.526-78.916-16.082-151.221-6.992l-4.672-11.219c-4.513-10.584-9.344-21.104-14.397-31.465
				C381.39,170.1,417.781,123.443,422.357,117.246z M254.26,37.408c55.174,0,105.613,20.69,143.943,54.729
				c-3.877,5.562-36.55,49.485-113.781,78.439c-35.596-65.377-75.038-119.089-81.045-127.13
				C219.712,39.506,236.748,37.408,254.26,37.408z M161.932,58.035c5.721,7.85,44.527,61.626,80.505,125.604
				c-101.577,26.983-191.044,26.602-200.77,26.475C55.746,142.703,101.164,86.703,161.932,58.035z M37.058,254.578l0.095-6.643
				c9.503,0.222,114.767,1.557,223.177-30.893c6.261,12.173,12.173,24.536,17.639,36.868l-8.581,2.574
				c-111.97,36.2-171.562,134.917-176.52,143.307C58.226,361.303,37.09,310.388,37.058,254.578z M254.228,471.747
				c-50.185,0-96.46-17.099-133.296-45.83c3.909-7.946,47.896-92.932,170.386-135.616l1.43-0.477
				c30.511,79.202,43.065,145.627,46.339,164.697C313.057,465.613,284.358,471.779,254.228,471.747z M375.605,434.625
				c-2.225-13.222-13.825-76.786-42.175-154.844c68.046-10.901,127.829,6.96,135.266,9.312
				C458.971,349.48,424.36,401.699,375.605,434.625z"/>
		</g>
	</g>
</g>
<g>
</g>
<g>
</g>
<g>
</g>
<g>
</g>
<g>
</g>
<g>
</g>
<g>
</g>
<g>
</g>
<g>
</g>
<g>
</g>
<g>
</g>
<g>
</g>
<g>
</g>
<g>
</g>
<g>
</g>
</svg>
