<?xml version="1.0" encoding="iso-8859-1"?>
<!-- Generator: Adobe Illustrator 19.0.0, SVG Export Plug-In . SVG Version: 6.00 Build 0)  -->
<svg version="1.1" id="Capa_1" xmlns="http://www.w3.org/2000/svg" xmlns:xlink="http://www.w3.org/1999/xlink" x="0px" y="0px"
	 viewBox="0 0 508.52 508.52" style="enable-background:new 0 0 508.52 508.52;" xml:space="preserve">
<g>
	<g>
		<g>
			<g>
				<path d="M413.172,0H95.347C42.684,0,0,42.684,0,95.347v317.825c0,52.664,42.684,95.347,95.347,95.347
					h317.825c52.664,0,95.347-42.684,95.347-95.347V95.347C508.52,42.684,465.836,0,413.172,0z M254.26,444.51
					c-104.914,0-190.282-85.4-190.282-190.25S149.346,63.978,254.26,63.978s190.25,85.368,190.25,190.282
					S359.174,444.51,254.26,444.51z"/>
				<path d="M245.424,201.406c-26.952-47.896-55.969-88.133-60.26-94.013
					c-45.481,21.453-79.488,63.374-90.008,113.813C102.435,221.301,169.401,221.587,245.424,201.406z"/>
				<path d="M265.606,255.913l6.388-1.907c-4.1-9.249-8.549-18.497-13.158-27.587
					c-81.204,24.282-159.993,23.265-167.08,23.106l-0.064,4.958c0.032,41.73,15.828,79.869,41.794,108.696
					C137.173,356.885,181.764,282.991,265.606,255.913z"/>
				<path d="M289.284,215.803c3.782,7.755,7.405,15.637,10.806,23.551l3.464,8.391
					c54.094-6.801,107.838,4.1,113.177,5.244c-0.318-38.361-13.984-73.608-36.613-101.259
					C376.686,156.338,349.417,191.267,289.284,215.803z"/>
				<path d="M282.006,281.275c-91.661,31.878-124.587,95.506-127.511,101.481
					c27.555,21.485,62.198,34.293,99.765,34.293c22.534,0.032,44.019-4.577,63.501-12.904
					c-2.415-14.239-11.855-63.978-34.675-123.252L282.006,281.275z"/>
				<path d="M362.034,132.914c-28.731-25.458-66.457-40.968-107.774-40.968
					c-13.094,0-25.871,1.557-38.075,4.513c4.481,6.039,34.007,46.243,60.641,95.157
					C334.638,169.973,359.078,137.078,362.034,132.914z"/>
				<path d="M313.471,273.393c21.294,58.384,29.907,105.931,31.592,115.879
					c36.423-24.631,62.389-63.724,69.604-108.982C409.199,278.542,364.45,265.193,313.471,273.393z"/>
			</g>
		</g>
	</g>
</g>
<g>
</g>
<g>
</g>
<g>
</g>
<g>
</g>
<g>
</g>
<g>
</g>
<g>
</g>
<g>
</g>
<g>
</g>
<g>
</g>
<g>
</g>
<g>
</g>
<g>
</g>
<g>
</g>
<g>
</g>
</svg>
