<?xml version="1.0" encoding="iso-8859-1"?>
<!-- Generator: Adobe Illustrator 19.0.0, SVG Export Plug-In . SVG Version: 6.00 Build 0)  -->
<svg version="1.1" id="Capa_1" xmlns="http://www.w3.org/2000/svg" xmlns:xlink="http://www.w3.org/1999/xlink" x="0px" y="0px"
	 viewBox="0 0 508.52 508.52" style="enable-background:new 0 0 508.52 508.52;" xml:space="preserve">
<g>
	<g>
		<path d="M476.737,317.825V254.26c0-146.072-111.906-222.477-222.477-222.477
			c-107.87,0-222.477,77.962-222.477,222.477v63.565C14.239,317.825,0,332.063,0,349.607v63.565
			c0,17.544,14.239,31.783,31.782,31.783c0,17.544,14.239,31.782,31.782,31.782s31.782-14.239,31.782-31.782v-127.13
			c0-17.544-14.239-31.782-31.782-31.782V254.26c0-125.191,95.951-190.695,190.695-190.695c91.883,0,190.695,59.656,190.695,190.695
			v31.782c-17.544,0-31.783,14.239-31.783,31.782v127.13c0,17.544,14.239,31.782,31.783,31.782
			c17.544,0,31.782-14.239,31.782-31.782c17.544,0,31.782-14.239,31.782-31.783v-63.565
			C508.52,332.063,494.281,317.825,476.737,317.825z"/>
	</g>
</g>
<g>
</g>
<g>
</g>
<g>
</g>
<g>
</g>
<g>
</g>
<g>
</g>
<g>
</g>
<g>
</g>
<g>
</g>
<g>
</g>
<g>
</g>
<g>
</g>
<g>
</g>
<g>
</g>
<g>
</g>
</svg>
