<?xml version="1.0" encoding="iso-8859-1"?>
<!-- Generator: Adobe Illustrator 19.0.0, SVG Export Plug-In . SVG Version: 6.00 Build 0)  -->
<svg version="1.1" id="Capa_1" xmlns="http://www.w3.org/2000/svg" xmlns:xlink="http://www.w3.org/1999/xlink" x="0px" y="0px"
	 viewBox="0 0 486.384 486.384" style="enable-background:new 0 0 486.384 486.384;" xml:space="preserve">
<g>
	<g>
		<g>
			<polygon style="fill:#000000;" points="321.771,321.771 294.715,240.027 138.462,83.773 83.773,138.462 240.027,294.715 			"/>
			<path d="M66.02,11.331c-15.109-15.109-39.58-15.109-54.689,0s-15.109,39.58,0,54.689l40.249,40.249
				l54.689-54.689L66.02,11.331z"/>
			<path d="M455.984,91.191H240.483l30.399,30.399h185.102v334.394H121.59V270.912l-30.399-30.399v215.471
				c0,16.811,13.619,30.399,30.399,30.399h334.394c16.811,0,30.399-13.589,30.399-30.399V121.59
				C486.384,104.81,472.765,91.191,455.984,91.191z"/>
		</g>
	</g>
	<g>
	</g>
	<g>
	</g>
	<g>
	</g>
	<g>
	</g>
	<g>
	</g>
	<g>
	</g>
	<g>
	</g>
	<g>
	</g>
	<g>
	</g>
	<g>
	</g>
	<g>
	</g>
	<g>
	</g>
	<g>
	</g>
	<g>
	</g>
	<g>
	</g>
</g>
<g>
</g>
<g>
</g>
<g>
</g>
<g>
</g>
<g>
</g>
<g>
</g>
<g>
</g>
<g>
</g>
<g>
</g>
<g>
</g>
<g>
</g>
<g>
</g>
<g>
</g>
<g>
</g>
<g>
</g>
</svg>
