<?xml version="1.0" encoding="iso-8859-1"?>
<!-- Generator: Adobe Illustrator 19.0.0, SVG Export Plug-In . SVG Version: 6.00 Build 0)  -->
<svg version="1.1" id="Capa_1" xmlns="http://www.w3.org/2000/svg" xmlns:xlink="http://www.w3.org/1999/xlink" x="0px" y="0px"
	 viewBox="0 0 486.392 486.392" style="enable-background:new 0 0 486.392 486.392;" xml:space="preserve">
<g>
	<g>
		<g>
			<path d="M455.992,60.799H30.399C13.619,60.799,0,74.418,0,91.198v303.995
				c0,16.781,13.619,30.399,30.399,30.399h425.593c16.781,0,30.399-13.619,30.399-30.399V91.198
				C486.392,74.418,472.773,60.799,455.992,60.799z M30.399,177.685l116.673,79.312L30.399,373.701V177.685z M51.892,395.193
				l120.777-120.777l70.588,47.97l70.192-48.335L434.5,395.163L51.892,395.193L51.892,395.193z M455.992,373.701l-117.16-117.16
				l117.16-80.589V373.701z M455.992,140.385l-0.638-0.912l-212.158,146.13L30.399,140.962V91.198h425.593V140.385z"/>
		</g>
	</g>
	<g>
	</g>
	<g>
	</g>
	<g>
	</g>
	<g>
	</g>
	<g>
	</g>
	<g>
	</g>
	<g>
	</g>
	<g>
	</g>
	<g>
	</g>
	<g>
	</g>
	<g>
	</g>
	<g>
	</g>
	<g>
	</g>
	<g>
	</g>
	<g>
	</g>
</g>
<g>
</g>
<g>
</g>
<g>
</g>
<g>
</g>
<g>
</g>
<g>
</g>
<g>
</g>
<g>
</g>
<g>
</g>
<g>
</g>
<g>
</g>
<g>
</g>
<g>
</g>
<g>
</g>
<g>
</g>
</svg>
