<?xml version="1.0" encoding="iso-8859-1"?>
<!-- Generator: Adobe Illustrator 19.0.0, SVG Export Plug-In . SVG Version: 6.00 Build 0)  -->
<svg version="1.1" id="Capa_1" xmlns="http://www.w3.org/2000/svg" xmlns:xlink="http://www.w3.org/1999/xlink" x="0px" y="0px"
	 viewBox="0 0 505.53 505.53" style="enable-background:new 0 0 505.53 505.53;" xml:space="preserve">
<g>
	<g>
		<g>
			<g>
				<path d="M501.799,444.382L281.292,31.21c-5.498-10.329-16.273-16.813-28-16.813h-0.032
					c-11.728,0-22.47,6.452-28,16.781L3.767,444.35c-5.276,9.948-4.99,21.835,0.731,31.338c5.753,9.567,16.114,15.446,27.269,15.446
					h441.967c11.187,0,21.485-5.848,27.238-15.446C506.788,466.121,507.011,454.234,501.799,444.382z M31.767,459.351L253.26,46.179
					l220.507,413.172H31.767z"/>
				<path d="M221.477,205.6v95.347c0,17.576,14.239,31.783,31.782,31.783
					c17.512,0,31.782-14.207,31.782-31.783V205.6c0-17.544-14.27-31.782-31.782-31.782S221.477,188.024,221.477,205.6z"/>
				<circle style="fill:#000000;" cx="253.26" cy="395.786" r="31.782"/>
			</g>
		</g>
	</g>
</g>
<g>
</g>
<g>
</g>
<g>
</g>
<g>
</g>
<g>
</g>
<g>
</g>
<g>
</g>
<g>
</g>
<g>
</g>
<g>
</g>
<g>
</g>
<g>
</g>
<g>
</g>
<g>
</g>
<g>
</g>
</svg>
