<?xml version="1.0" encoding="iso-8859-1"?>
<!-- Generator: Adobe Illustrator 19.0.0, SVG Export Plug-In . SVG Version: 6.00 Build 0)  -->
<svg version="1.1" id="Capa_1" xmlns="http://www.w3.org/2000/svg" xmlns:xlink="http://www.w3.org/1999/xlink" x="0px" y="0px"
	 viewBox="0 0 508.52 508.52" style="enable-background:new 0 0 508.52 508.52;" xml:space="preserve">
<g>
	<g>
		<g>
			<path d="M254.26,0C113.845,0,0,113.845,0,254.26s113.845,254.26,254.26,254.26
				s254.26-113.845,254.26-254.26S394.675,0,254.26,0z M254.26,412.664c-17.544,0-31.782-14.239-31.782-31.782
				c0-17.576,14.239-31.782,31.782-31.782s31.782,14.207,31.782,31.782C286.042,398.425,271.804,412.664,254.26,412.664z
				 M286.042,286.042c0,17.544-14.239,31.782-31.782,31.782s-31.782-14.239-31.782-31.782V127.13
				c0-17.544,14.239-31.782,31.782-31.782s31.782,14.239,31.782,31.782V286.042z"/>
		</g>
	</g>
</g>
<g>
</g>
<g>
</g>
<g>
</g>
<g>
</g>
<g>
</g>
<g>
</g>
<g>
</g>
<g>
</g>
<g>
</g>
<g>
</g>
<g>
</g>
<g>
</g>
<g>
</g>
<g>
</g>
<g>
</g>
</svg>
