<?xml version="1.0" encoding="iso-8859-1"?>
<!-- Generator: Adobe Illustrator 19.0.0, SVG Export Plug-In . SVG Version: 6.00 Build 0)  -->
<svg version="1.1" id="Capa_1" xmlns="http://www.w3.org/2000/svg" xmlns:xlink="http://www.w3.org/1999/xlink" x="0px" y="0px"
	 viewBox="0 0 508.52 508.52" style="enable-background:new 0 0 508.52 508.52;" xml:space="preserve">
<g>
	<g>
		<g>
			<path d="M507.28,248.217l-3.401-5.149l-63.565-63.565c-6.166-6.198-16.304-6.198-22.47,0
				c-6.166,6.198-6.166,16.273,0,22.47l36.423,36.423H54.253l36.423-36.423c6.198-6.198,6.198-16.273,0-22.47s-16.273-6.198-22.47,0
				L4.64,243.068l-0.095,0.159l-3.305,4.99L0,254.256v0.064l1.24,6.007l3.305,4.958l0.095,0.191l63.565,63.565
				c6.198,6.166,16.273,6.166,22.47,0s6.198-16.304,0-22.47l-36.423-36.423h400.014l-36.423,36.423
				c-6.134,6.134-6.134,16.273,0,22.47c6.198,6.134,16.336,6.134,22.47,0l63.565-63.565l3.432-5.149l1.208-6.007v-0.064
				L507.28,248.217z"/>
		</g>
	</g>
</g>
<g>
</g>
<g>
</g>
<g>
</g>
<g>
</g>
<g>
</g>
<g>
</g>
<g>
</g>
<g>
</g>
<g>
</g>
<g>
</g>
<g>
</g>
<g>
</g>
<g>
</g>
<g>
</g>
<g>
</g>
</svg>
