<?xml version="1.0" encoding="iso-8859-1"?>
<!-- Generator: Adobe Illustrator 19.0.0, SVG Export Plug-In . SVG Version: 6.00 Build 0)  -->
<svg version="1.1" id="Capa_1" xmlns="http://www.w3.org/2000/svg" xmlns:xlink="http://www.w3.org/1999/xlink" x="0px" y="0px"
	 viewBox="0 0 381.39 381.39" style="enable-background:new 0 0 381.39 381.39;" xml:space="preserve">
<g>
	<g>
		<g>
			<path d="M365.499,190.695c-8.74,0-15.891,7.119-15.891,15.891v120.551L54.253,31.782h120.551
				c8.772,0,15.891-7.119,15.891-15.891S183.576,0,174.804,0H15.891l-6.07,1.24L4.767,4.577L4.64,4.64L4.545,4.831L1.24,9.821
				L0,15.891v158.912c0,8.772,7.119,15.891,15.891,15.891s15.891-7.119,15.891-15.891V54.253l295.355,295.355H206.586
				c-8.74,0-15.891,7.151-15.891,15.891s7.151,15.891,15.891,15.891h158.912l6.07-1.24c3.846-1.621,6.992-4.704,8.581-8.581
				l1.24-6.007V206.586C381.39,197.814,374.239,190.695,365.499,190.695z"/>
		</g>
	</g>
</g>
<g>
</g>
<g>
</g>
<g>
</g>
<g>
</g>
<g>
</g>
<g>
</g>
<g>
</g>
<g>
</g>
<g>
</g>
<g>
</g>
<g>
</g>
<g>
</g>
<g>
</g>
<g>
</g>
<g>
</g>
</svg>
