<?xml version="1.0" encoding="iso-8859-1"?>
<!-- Generator: Adobe Illustrator 19.0.0, SVG Export Plug-In . SVG Version: 6.00 Build 0)  -->
<svg version="1.1" id="Capa_1" xmlns="http://www.w3.org/2000/svg" xmlns:xlink="http://www.w3.org/1999/xlink" x="0px" y="0px"
	 viewBox="0 0 474.449 474.449" style="enable-background:new 0 0 474.449 474.449;" xml:space="preserve">
<g>
	<g>
		<g>
			<g>
				<path d="M237.24,0C106.233,0,0.016,106.217,0.016,237.224S106.233,474.449,237.24,474.449
					s237.193-106.217,237.193-237.224S368.248,0,237.24,0z M237.24,442.666c-113.273,0-205.442-92.169-205.442-205.442
					S123.968,31.782,237.24,31.782s205.41,92.169,205.41,205.442C442.682,350.465,350.545,442.666,237.24,442.666z"/>
				<path d="M207.714,121.727c-6.198-6.198-16.273-6.198-22.47,0c-6.198,6.198-6.198,16.273,0,22.47
					l91.883,91.883l-91.883,91.883c-6.198,6.198-6.198,16.273,0,22.47c6.198,6.198,16.273,6.198,22.47,0l103.071-103.039
					c3.146-3.146,4.672-7.246,4.64-11.283c0-4.1-1.494-8.168-4.64-11.283L207.714,121.727z"/>
			</g>
		</g>
	</g>
</g>
<g>
</g>
<g>
</g>
<g>
</g>
<g>
</g>
<g>
</g>
<g>
</g>
<g>
</g>
<g>
</g>
<g>
</g>
<g>
</g>
<g>
</g>
<g>
</g>
<g>
</g>
<g>
</g>
<g>
</g>
</svg>
