<?xml version="1.0" encoding="iso-8859-1"?>
<!-- Generator: Adobe Illustrator 19.0.0, SVG Export Plug-In . SVG Version: 6.00 Build 0)  -->
<svg version="1.1" id="Capa_1" xmlns="http://www.w3.org/2000/svg" xmlns:xlink="http://www.w3.org/1999/xlink" x="0px" y="0px"
	 viewBox="0 0 476.737 476.737" style="enable-background:new 0 0 476.737 476.737;" xml:space="preserve">
<g>
	<g>
		<g>
			<g>
				<path d="M238.369,0C106.726,0,0,106.726,0,238.369c0,131.675,106.726,238.369,238.369,238.369
					c131.675,0,238.369-106.694,238.369-238.369C476.737,106.726,370.043,0,238.369,0z M238.369,444.955
					c-113.908,0-206.586-92.678-206.586-206.586S124.46,31.782,238.369,31.782s206.586,92.678,206.586,206.586
					S352.277,444.955,238.369,444.955z"/>
				<path d="M266.814,121.123c-6.198-6.229-16.4-6.229-22.566,0c-6.261,6.229-6.261,16.368,0,22.597
					l84.192,95.22l-84.192,95.22c-6.261,6.229-6.261,16.432,0,22.597c6.198,6.229,16.368,6.229,22.566,0l94.044-106.312
					c3.21-3.21,4.672-7.342,4.64-11.505c0.032-4.132-1.462-8.327-4.64-11.473L266.814,121.123z"/>
				<path d="M251.495,238.941c0.064-4.132-1.462-8.359-4.64-11.473L152.81,121.123
					c-6.229-6.229-16.368-6.229-22.597,0c-6.229,6.229-6.229,16.368,0,22.597l84.224,95.22l-84.224,95.22
					c-6.229,6.229-6.229,16.432,0,22.597c6.229,6.229,16.368,6.229,22.597,0l94.076-106.312
					C250.033,247.299,251.558,243.136,251.495,238.941z"/>
			</g>
		</g>
	</g>
</g>
<g>
</g>
<g>
</g>
<g>
</g>
<g>
</g>
<g>
</g>
<g>
</g>
<g>
</g>
<g>
</g>
<g>
</g>
<g>
</g>
<g>
</g>
<g>
</g>
<g>
</g>
<g>
</g>
<g>
</g>
</svg>
