<?xml version="1.0" encoding="iso-8859-1"?>
<!-- Generator: Adobe Illustrator 19.0.0, SVG Export Plug-In . SVG Version: 6.00 Build 0)  -->
<svg version="1.1" id="Capa_1" xmlns="http://www.w3.org/2000/svg" xmlns:xlink="http://www.w3.org/1999/xlink" x="0px" y="0px"
	 viewBox="0 0 508.52 508.52" style="enable-background:new 0 0 508.52 508.52;" xml:space="preserve">
<g>
	<g>
		<g>
			<path d="M476.737,0H31.782C14.239,0,0,14.239,0,31.782v444.955c0,17.544,14.239,31.782,31.782,31.782
				h444.955c17.544,0,31.782-14.239,31.782-31.782V31.782C508.52,14.239,494.281,0,476.737,0z M95.347,476.737H31.782v-63.565
				h63.565V476.737z M95.347,349.607H31.782v-63.565h63.565V349.607z M95.347,222.477H31.782v-63.565h63.565V222.477z
				 M95.347,95.347H31.782V31.782h63.565V95.347z M381.39,476.737H127.13V317.825h254.26V476.737z M381.39,286.042H127.13V31.782
				h254.26V286.042z M476.737,476.737h-63.565v-63.565h63.565V476.737z M476.737,349.607h-63.565v-63.565h63.565V349.607z
				 M476.737,222.477h-63.565v-63.565h63.565V222.477z M476.737,95.347h-63.565V31.782h63.565V95.347z"/>
		</g>
	</g>
</g>
<g>
</g>
<g>
</g>
<g>
</g>
<g>
</g>
<g>
</g>
<g>
</g>
<g>
</g>
<g>
</g>
<g>
</g>
<g>
</g>
<g>
</g>
<g>
</g>
<g>
</g>
<g>
</g>
<g>
</g>
</svg>
