<?xml version="1.0" encoding="iso-8859-1"?>
<!-- Generator: Adobe Illustrator 19.0.0, SVG Export Plug-In . SVG Version: 6.00 Build 0)  -->
<svg version="1.1" id="Capa_1" xmlns="http://www.w3.org/2000/svg" xmlns:xlink="http://www.w3.org/1999/xlink" x="0px" y="0px"
	 viewBox="0 0 508.52 508.52" style="enable-background:new 0 0 508.52 508.52;" xml:space="preserve">
<g>
	<g>
		<g>
			<path d="M254.26,0C113.845,0,0,113.845,0,254.26s113.845,254.26,254.26,254.26
				s254.26-113.845,254.26-254.26C508.52,113.813,394.675,0,254.26,0z M160.692,317.952c-35.628,0-64.487-28.858-64.487-64.487
				s28.858-64.487,64.487-64.487s64.487,28.858,64.487,64.487S196.32,317.952,160.692,317.952z M348.495,317.952
				c-35.628,0-64.487-28.858-64.487-64.487s28.858-64.487,64.487-64.487s64.487,28.858,64.487,64.487
				S384.123,317.952,348.495,317.952z"/>
		</g>
	</g>
</g>
<g>
</g>
<g>
</g>
<g>
</g>
<g>
</g>
<g>
</g>
<g>
</g>
<g>
</g>
<g>
</g>
<g>
</g>
<g>
</g>
<g>
</g>
<g>
</g>
<g>
</g>
<g>
</g>
<g>
</g>
</svg>
