<?xml version="1.0" encoding="iso-8859-1"?>
<!-- Generator: Adobe Illustrator 19.0.0, SVG Export Plug-In . SVG Version: 6.00 Build 0)  -->
<svg version="1.1" id="Capa_1" xmlns="http://www.w3.org/2000/svg" xmlns:xlink="http://www.w3.org/1999/xlink" x="0px" y="0px"
	 viewBox="0 0 381.39 381.39" style="enable-background:new 0 0 381.39 381.39;" xml:space="preserve">
<g>
	<g>
		<g>
			<path d="M127.13,0H31.782C14.239,0,0,14.239,0,31.782v95.347c0,17.544,14.239,31.782,31.782,31.782h95.347
				c17.544,0,31.782-14.239,31.782-31.782V31.782C158.912,14.239,144.674,0,127.13,0z"/>
			<path d="M349.607,0H254.26c-17.544,0-31.782,14.239-31.782,31.782v95.347
				c0,17.544,14.239,31.782,31.782,31.782h95.347c17.544,0,31.782-14.239,31.782-31.782V31.782C381.39,14.239,367.151,0,349.607,0z"
				/>
			<path d="M127.13,222.477H31.782C14.239,222.477,0,236.716,0,254.26v95.347
				c0,17.544,14.239,31.782,31.782,31.782h95.347c17.544,0,31.782-14.239,31.782-31.782V254.26
				C158.912,236.716,144.674,222.477,127.13,222.477z"/>
			<path d="M349.607,222.477H254.26c-17.544,0-31.782,14.239-31.782,31.782v95.347
				c0,17.544,14.239,31.782,31.782,31.782h95.347c17.544,0,31.782-14.239,31.782-31.782V254.26
				C381.39,236.716,367.151,222.477,349.607,222.477z"/>
		</g>
	</g>
</g>
<g>
</g>
<g>
</g>
<g>
</g>
<g>
</g>
<g>
</g>
<g>
</g>
<g>
</g>
<g>
</g>
<g>
</g>
<g>
</g>
<g>
</g>
<g>
</g>
<g>
</g>
<g>
</g>
<g>
</g>
</svg>
