<?xml version="1.0" encoding="iso-8859-1"?>
<!-- Generator: Adobe Illustrator 19.0.0, SVG Export Plug-In . SVG Version: 6.00 Build 0)  -->
<svg version="1.1" id="Capa_1" xmlns="http://www.w3.org/2000/svg" xmlns:xlink="http://www.w3.org/1999/xlink" x="0px" y="0px"
	 viewBox="0 0 508.551 508.551" style="enable-background:new 0 0 508.551 508.551;" xml:space="preserve">
<g>
	<g>
		<g>
			<g>
				<path d="M506.946,282.228c0.953-9.153,1.589-18.497,1.589-27.969c0-9.471-0.636-18.815-1.621-28
					l-69.477-24.727c-4.036-13.921-9.535-27.174-16.432-39.601l31.592-66.457c-11.728-14.62-25.013-27.905-39.633-39.633
					l-66.553,31.592c-12.363-6.865-25.648-12.332-39.506-16.336L282.244,1.621C273.091,0.604,263.747,0,254.276,0
					s-18.815,0.604-28,1.621l-24.727,69.477c-13.921,4.005-27.206,9.471-39.569,16.336L95.49,55.842
					C80.871,67.57,67.585,80.855,55.858,95.475l31.592,66.457c-6.865,12.395-12.332,25.68-16.336,39.601L1.605,226.259
					c-0.985,9.185-1.589,18.529-1.589,28c0,9.471,0.604,18.815,1.621,28l69.508,24.727c4.005,13.921,9.439,27.142,16.336,39.569
					l-31.592,66.489c11.728,14.62,25.013,27.937,39.633,39.633l66.457-31.592c12.395,6.865,25.68,12.332,39.601,16.368
					l24.727,69.508c9.153,0.953,18.497,1.589,27.969,1.589s18.815-0.636,28-1.621l24.727-69.54
					c13.921-4.005,27.142-9.439,39.569-16.336l66.489,31.592c14.62-11.728,27.937-25.013,39.633-39.633l-31.592-66.489
					c6.865-12.459,12.332-25.744,16.368-39.569L506.946,282.228z M254.276,381.39c-70.208,0-127.13-56.922-127.13-127.13
					s56.922-127.13,127.13-127.13s127.13,56.922,127.13,127.13S324.483,381.39,254.276,381.39z"/>
				<circle style="fill:#000000;" cx="254.276" cy="254.26" r="63.565"/>
			</g>
		</g>
	</g>
</g>
<g>
</g>
<g>
</g>
<g>
</g>
<g>
</g>
<g>
</g>
<g>
</g>
<g>
</g>
<g>
</g>
<g>
</g>
<g>
</g>
<g>
</g>
<g>
</g>
<g>
</g>
<g>
</g>
<g>
</g>
</svg>
