<?xml version="1.0" encoding="iso-8859-1"?>
<!-- Generator: Adobe Illustrator 19.0.0, SVG Export Plug-In . SVG Version: 6.00 Build 0)  -->
<svg version="1.1" id="Capa_1" xmlns="http://www.w3.org/2000/svg" xmlns:xlink="http://www.w3.org/1999/xlink" x="0px" y="0px"
	 viewBox="0 0 486.392 486.392" style="enable-background:new 0 0 486.392 486.392;" xml:space="preserve">
<g>
	<g>
		<g>
			<g>
				<path d="M0,151.997v60.799h212.796v-91.198H30.399C13.619,121.598,0,135.217,0,151.997z"/>
				<path d="M425.593,45.599C425.593,20.428,406.775,0,364.794,0c-39.307,0-70.253,17.692-91.198,38.212
					c-9.181-5.442-19.76-8.755-31.281-8.755c-11.005,0-21.188,3.101-30.126,8.147C191.273,17.328,160.509,0,121.598,0
					C79.616,0,60.799,20.428,60.799,45.599s18.817,45.599,60.799,45.599h121.598l-0.03-0.243h0.091l-0.061,0.243h121.598
					C406.775,91.198,425.593,70.77,425.593,45.599z M188.872,60.799h-67.274c-13.862,0-30.399-2.645-30.399-15.2
					s16.537-15.2,30.399-15.2c30.217,0,53.138,13.528,68.581,28.028L188.872,60.799z M295.057,59.522
					c15.443-15.017,38.851-29.123,69.736-29.123c13.862,0,30.399,2.645,30.399,15.2s-16.537,15.2-30.399,15.2h-69.037
					L295.057,59.522z"/>
				<path d="M30.399,455.992c0,16.781,13.619,30.399,30.399,30.399h151.997V243.196H30.399V455.992z"/>
				<path d="M455.992,121.598h-181.12v91.198h211.52v-60.799
					C486.392,135.217,472.773,121.598,455.992,121.598z"/>
				<path d="M274.872,486.392h150.721c16.781,0,30.399-13.619,30.399-30.399V243.196h-181.12V486.392z"/>
			</g>
		</g>
	</g>
	<g>
	</g>
	<g>
	</g>
	<g>
	</g>
	<g>
	</g>
	<g>
	</g>
	<g>
	</g>
	<g>
	</g>
	<g>
	</g>
	<g>
	</g>
	<g>
	</g>
	<g>
	</g>
	<g>
	</g>
	<g>
	</g>
	<g>
	</g>
	<g>
	</g>
</g>
<g>
</g>
<g>
</g>
<g>
</g>
<g>
</g>
<g>
</g>
<g>
</g>
<g>
</g>
<g>
</g>
<g>
</g>
<g>
</g>
<g>
</g>
<g>
</g>
<g>
</g>
<g>
</g>
<g>
</g>
</svg>
