<?xml version="1.0" encoding="iso-8859-1"?>
<!-- Generator: Adobe Illustrator 19.0.0, SVG Export Plug-In . SVG Version: 6.00 Build 0)  -->
<svg version="1.1" id="Capa_1" xmlns="http://www.w3.org/2000/svg" xmlns:xlink="http://www.w3.org/1999/xlink" x="0px" y="0px"
	 viewBox="0 0 508.52 508.52" style="enable-background:new 0 0 508.52 508.52;" xml:space="preserve">
<g>
	<g>
		<g>
			<g>
				<path d="M476.737,127.13H31.782C14.239,127.13,0,141.368,0,158.912v95.347h31.782v222.477
					c0,17.544,14.239,31.782,31.782,31.782h381.39c17.544,0,31.782-14.239,31.782-31.782V254.26h31.782v-95.347
					C508.52,141.368,494.281,127.13,476.737,127.13z M222.477,476.737H63.565V254.26h158.912V476.737z M222.477,222.477H31.782
					v-63.565h190.695V222.477z M444.955,476.737H286.71V254.26h158.245V476.737z M476.737,222.477H286.71v-63.565h190.027V222.477z"
					/>
				<path d="M127.13,95.347h127.13l-0.032-0.254h0.095l-0.064,0.254h127.13
					c43.892,0,63.565-21.358,63.565-47.674S425.281,0,381.39,0c-41.095,0-73.449,18.497-95.347,39.951
					c-9.598-5.689-20.659-9.153-32.704-9.153c-11.505,0-22.152,3.242-31.496,8.518C199.975,18.116,167.812,0,127.13,0
					C83.238,0,63.565,21.358,63.565,47.674S83.238,95.347,127.13,95.347z M381.39,31.782c14.493,0,31.782,2.765,31.782,15.891
					s-17.29,15.891-31.782,15.891h-72.178l-0.699-1.335C324.626,46.53,349.099,31.782,381.39,31.782z M127.13,31.782
					c31.592,0,55.556,14.143,71.701,29.303l-1.367,2.479H127.13c-14.493,0-31.782-2.765-31.782-15.891S112.637,31.782,127.13,31.782
					z"/>
			</g>
		</g>
	</g>
</g>
<g>
</g>
<g>
</g>
<g>
</g>
<g>
</g>
<g>
</g>
<g>
</g>
<g>
</g>
<g>
</g>
<g>
</g>
<g>
</g>
<g>
</g>
<g>
</g>
<g>
</g>
<g>
</g>
<g>
</g>
</svg>
