<?xml version="1.0" encoding="iso-8859-1"?>
<!-- Generator: Adobe Illustrator 19.0.0, SVG Export Plug-In . SVG Version: 6.00 Build 0)  -->
<svg version="1.1" id="Capa_1" xmlns="http://www.w3.org/2000/svg" xmlns:xlink="http://www.w3.org/1999/xlink" x="0px" y="0px"
	 viewBox="0 0 476.737 476.737" style="enable-background:new 0 0 476.737 476.737;" xml:space="preserve">
<g>
	<g>
		<g>
			<g>
				<path d="M238.369,0C106.726,0,0,106.726,0,238.369c0,131.675,106.726,238.369,238.369,238.369
					c131.675,0,238.369-106.694,238.369-238.369C476.737,106.726,370.043,0,238.369,0z M238.369,444.955
					c-113.908,0-206.586-92.678-206.586-206.586S124.46,31.782,238.369,31.782s206.586,92.678,206.586,206.586
					S352.277,444.955,238.369,444.955z"/>
				<path d="M280.512,130.88c-6.897-5.403-18.084-5.403-24.981,0L132.31,228.198
					c-6.897,5.403-6.897,14.207,0,19.61l0.636,0.381l122.585,97.095c6.897,5.403,18.084,5.403,24.981,0l0.127-0.222
					c3.337-2.543,5.403-5.975,5.403-9.916V140.955c0-4.005-2.161-7.532-5.594-10.043L280.512,130.88z"/>
			</g>
		</g>
	</g>
</g>
<g>
</g>
<g>
</g>
<g>
</g>
<g>
</g>
<g>
</g>
<g>
</g>
<g>
</g>
<g>
</g>
<g>
</g>
<g>
</g>
<g>
</g>
<g>
</g>
<g>
</g>
<g>
</g>
<g>
</g>
</svg>
