<?xml version="1.0" encoding="iso-8859-1"?>
<!-- Generator: Adobe Illustrator 19.0.0, SVG Export Plug-In . SVG Version: 6.00 Build 0)  -->
<svg version="1.1" id="Capa_1" xmlns="http://www.w3.org/2000/svg" xmlns:xlink="http://www.w3.org/1999/xlink" x="0px" y="0px"
	 viewBox="0 0 508.52 508.52" style="enable-background:new 0 0 508.52 508.52;" xml:space="preserve">
<g>
	<g>
		<g>
			<path d="M277.588,39.442H144.547c-59.624,0-115.752,45.195-115.752,97.54
				c0,53.49,40.65,96.682,101.354,96.682l12.332-0.381c-3.941,7.532-6.77,16.018-6.77,24.854c0,14.874,8.009,26.92,18.116,36.741
				l-23.074,0.254C56.859,295.1,0,342.202,0,390.956c0,48.087,62.357,78.121,136.22,78.121c84.224,0,130.753-47.801,130.753-95.856
				c0-38.52-11.378-61.626-46.53-86.48c-12.014-8.518-35.024-29.208-35.024-41.381c0-14.27,4.068-21.294,25.553-38.075
				c21.993-17.194,37.567-41.381,37.567-69.477c0-33.467-14.906-66.108-42.906-76.85h42.175L277.588,39.442z M231.154,364.958
				c1.049,4.45,1.621,8.994,1.621,13.73c0,38.87-25.013,69.19-96.809,69.19c-51.074,0-87.942-32.323-87.942-71.161
				c0-38.044,45.735-69.699,96.809-69.19c11.918,0.159,23.042,2.034,33.117,5.308C205.664,332.063,225.56,342.965,231.154,364.958z
				 M149.378,220.094c-34.293-1.017-66.87-38.361-72.782-83.365c-5.912-45.036,17.067-79.488,51.329-78.471
				c34.262,1.017,66.87,37.154,72.782,82.158C206.65,185.451,183.639,221.111,149.378,220.094z"/>
			<polygon style="fill:#000000;" points="413.172,133.741 413.172,39.442 381.39,39.442 381.39,133.741 286.042,133.741 
				286.042,165.523 381.39,165.523 381.39,261.919 413.172,261.919 413.172,165.523 508.52,165.523 508.52,133.741 			"/>
		</g>
	</g>
</g>
<g>
</g>
<g>
</g>
<g>
</g>
<g>
</g>
<g>
</g>
<g>
</g>
<g>
</g>
<g>
</g>
<g>
</g>
<g>
</g>
<g>
</g>
<g>
</g>
<g>
</g>
<g>
</g>
<g>
</g>
</svg>
