<?xml version="1.0" encoding="iso-8859-1"?>
<!-- Generator: Adobe Illustrator 19.0.0, SVG Export Plug-In . SVG Version: 6.00 Build 0)  -->
<svg version="1.1" id="Capa_1" xmlns="http://www.w3.org/2000/svg" xmlns:xlink="http://www.w3.org/1999/xlink" x="0px" y="0px"
	 viewBox="0 0 507.955 507.955" style="enable-background:new 0 0 507.955 507.955;" xml:space="preserve">
<g>
	<g>
		<g>
			<path d="M506.397,194.274c-3.75-11.505-13.762-19.896-25.744-21.612l-136.982-19.896L282.458,28.624
				c-5.371-10.87-16.4-17.735-28.509-17.735s-23.138,6.865-28.509,17.735l-61.245,124.111L27.213,172.63
				c-11.982,1.748-21.93,10.139-25.648,21.644c-3.75,11.505-0.636,24.123,8.041,32.577l99.13,96.619L85.343,459.912
				c-2.034,11.918,2.86,23.964,12.649,31.083c5.498,4.036,12.046,6.07,18.656,6.07c5.053,0,10.139-1.208,14.779-3.655
				l122.521-64.423l122.49,64.391c4.64,2.479,9.757,3.687,14.779,3.687c6.579,0,13.158-2.034,18.72-6.07
				c9.789-7.119,14.684-19.165,12.618-31.083L399.163,323.47l99.13-96.619C507.001,218.397,510.148,205.779,506.397,194.274z
				 M365.029,312.378l26.189,152.905l-137.269-72.178V42.672l68.65,139.112l153.509,22.311L365.029,312.378z"/>
		</g>
	</g>
</g>
<g>
</g>
<g>
</g>
<g>
</g>
<g>
</g>
<g>
</g>
<g>
</g>
<g>
</g>
<g>
</g>
<g>
</g>
<g>
</g>
<g>
</g>
<g>
</g>
<g>
</g>
<g>
</g>
<g>
</g>
</svg>
