<?xml version="1.0" encoding="iso-8859-1"?>
<!-- Generator: Adobe Illustrator 19.0.0, SVG Export Plug-In . SVG Version: 6.00 Build 0)  -->
<svg version="1.1" id="Capa_1" xmlns="http://www.w3.org/2000/svg" xmlns:xlink="http://www.w3.org/1999/xlink" x="0px" y="0px"
	 viewBox="0 0 508.52 508.52" style="enable-background:new 0 0 508.52 508.52;" xml:space="preserve">
<g>
	<g>
		<g>
			<path d="M476.006,0H96.015c-43.86,0-79.361,35.247-79.997,78.948l-0.127-0.159v349.607
				c0,44.273,35.882,80.124,80.124,80.124H396.55c17.512,0,31.782-14.239,31.782-31.782V143.021c0-8.772-7.151-15.891-15.891-15.891
				h-269.42l-3.846,0.222l-43.161-0.222c-26.665,0-48.341-20.373-48.341-47.006c0-26.666,21.008-48.341,47.674-48.341h365.499
				v365.499c0,8.74,6.356,15.891,15.16,15.891c8.804,0,16.622-7.151,16.622-15.891V15.891C492.628,7.119,484.778,0,476.006,0z"/>
		</g>
	</g>
</g>
<g>
</g>
<g>
</g>
<g>
</g>
<g>
</g>
<g>
</g>
<g>
</g>
<g>
</g>
<g>
</g>
<g>
</g>
<g>
</g>
<g>
</g>
<g>
</g>
<g>
</g>
<g>
</g>
<g>
</g>
</svg>
