<?xml version="1.0" encoding="iso-8859-1"?>
<!-- Generator: Adobe Illustrator 19.0.0, SVG Export Plug-In . SVG Version: 6.00 Build 0)  -->
<svg version="1.1" id="Capa_1" xmlns="http://www.w3.org/2000/svg" xmlns:xlink="http://www.w3.org/1999/xlink" x="0px" y="0px"
	 viewBox="0 0 508.52 508.52" style="enable-background:new 0 0 508.52 508.52;" xml:space="preserve">
<g>
	<g>
		<g>
			<g>
				<path d="M271.327,0.095L268.975,0c-5.244,0-11.251,1.621-18.148,5.784
					c0,0-132.533,115.625-138.286,121.346H39.728c-17.544,0-31.782,14.239-31.782,31.782v194.731
					c0,17.576,14.239,31.783,31.782,31.783h72.814c5.753,5.721,138.286,117.246,138.286,117.246
					c6.897,4.227,12.904,5.848,18.148,5.848l2.352-0.095c11.759-1.112,20.15-10.965,22.661-21.358V21.485
					C291.509,11.06,283.087,1.208,271.327,0.095z M262.205,470.794c-49.581-41.762-121.409-102.499-127.257-107.902
					c-5.943-5.975-14.016-9.249-22.438-9.249H39.728v-4.036V158.912h72.814c8.136,0,16.273-3.401,22.152-8.994
					c5.784-5.498,77.613-68.332,127.511-111.874V470.794L262.205,470.794z"/>
				<path d="M342.965,309.784c-7.85,3.973-10.997,13.508-7.087,21.358c2.829,5.53,8.422,8.708,14.207,8.708
					c2.352,0,4.767-0.572,7.151-1.684c32.132-16.241,52.091-48.341,52.091-83.969s-19.959-67.728-52.091-83.938
					c-7.85-3.973-17.385-0.795-21.358,7.056c-3.909,7.85-0.763,17.385,7.087,21.358c21.326,10.774,34.579,32.037,34.579,55.556
					S364.291,299.041,342.965,309.784z"/>
				<path d="M339.723,59.306c-8.486-1.716-17.004,3.941-18.625,12.554
					c-1.716,8.613,3.909,16.972,12.554,18.656c78.312,15.256,135.139,84.128,135.139,163.743s-56.827,148.488-135.139,163.743
					c-8.613,1.684-14.239,9.98-12.554,18.656c1.494,7.596,8.136,12.808,15.51,12.808l3.115-0.318
					c93.218-18.116,160.851-100.115,160.851-194.922C500.574,159.484,432.941,77.486,339.723,59.306z"/>
			</g>
		</g>
	</g>
</g>
<g>
</g>
<g>
</g>
<g>
</g>
<g>
</g>
<g>
</g>
<g>
</g>
<g>
</g>
<g>
</g>
<g>
</g>
<g>
</g>
<g>
</g>
<g>
</g>
<g>
</g>
<g>
</g>
<g>
</g>
</svg>
