<?xml version="1.0" encoding="iso-8859-1"?>
<!-- Generator: Adobe Illustrator 19.0.0, SVG Export Plug-In . SVG Version: 6.00 Build 0)  -->
<svg version="1.1" id="Capa_1" xmlns="http://www.w3.org/2000/svg" xmlns:xlink="http://www.w3.org/1999/xlink" x="0px" y="0px"
	 viewBox="0 0 508.514 508.514" style="enable-background:new 0 0 508.514 508.514;" xml:space="preserve">
<g>
	<g>
		<g>
			<path d="M271.483,0.109c-5.784-0.54-12.554,0.858-20.531,5.689c0,0-132.533,115.625-138.286,121.314
				H39.725c-17.544,0.032-31.782,14.27-31.782,31.814v194.731c0,17.607,14.239,31.782,31.782,31.782h72.941
				c5.753,5.753,138.286,117.277,138.286,117.277c7.977,4.799,14.747,6.229,20.531,5.689c11.76-1.112,20.023-10.965,22.534-21.358
				c0.127-1.017,0.127-464.533-0.032-465.55C291.506,11.074,283.211,1.222,271.483,0.109z"/>
			<path d="M342.962,309.798c-7.85,3.973-10.997,13.508-7.087,21.358c2.829,5.53,8.422,8.74,14.207,8.74
				c2.384,0,4.799-0.572,7.151-1.684c32.132-16.209,52.091-48.341,52.091-83.938s-19.959-67.728-52.091-83.938
				c-7.85-3.973-17.385-0.795-21.358,7.056c-3.909,7.85-0.763,17.385,7.087,21.358c21.326,10.743,34.579,32.005,34.579,55.524
				S364.288,299.055,342.962,309.798z"/>
			<path d="M339.72,59.32c-8.486-1.716-17.004,3.941-18.593,12.522c-1.716,8.645,3.909,17.004,12.522,18.688
				c78.312,15.256,135.139,84.128,135.139,163.743S411.962,402.761,333.65,418.017c-8.613,1.684-14.239,10.011-12.554,18.656
				c1.494,7.596,8.136,12.84,15.542,12.84l3.083-0.318c93.218-18.148,160.851-100.147,160.851-194.922S432.938,77.5,339.72,59.32z"
				/>
		</g>
	</g>
</g>
<g>
</g>
<g>
</g>
<g>
</g>
<g>
</g>
<g>
</g>
<g>
</g>
<g>
</g>
<g>
</g>
<g>
</g>
<g>
</g>
<g>
</g>
<g>
</g>
<g>
</g>
<g>
</g>
<g>
</g>
</svg>
