<?xml version="1.0" encoding="iso-8859-1"?>
<!-- Generator: Adobe Illustrator 19.0.0, SVG Export Plug-In . SVG Version: 6.00 Build 0)  -->
<svg version="1.1" id="Capa_1" xmlns="http://www.w3.org/2000/svg" xmlns:xlink="http://www.w3.org/1999/xlink" x="0px" y="0px"
	 viewBox="0 0 486.406 486.406" style="enable-background:new 0 0 486.406 486.406;" xml:space="preserve">
<g>
	<g>
		<g>
			<g>
				<path d="M481.198,224.116L253.202,26.52c-5.715-4.955-14.197-4.955-19.912,0l-81.288,70.405V68.41
					c0-16.781-13.619-30.399-30.399-30.399S91.203,51.63,91.203,68.41v81.197l-85.97,74.509c-6.323,5.502-7.022,15.109-1.52,21.462
					c5.533,6.323,15.109,6.992,21.462,1.52L243.201,58.135l217.995,188.963c2.918,2.493,6.414,3.709,9.971,3.709
					c4.286,0,8.451-1.794,11.461-5.229C488.22,239.225,487.491,229.679,481.198,224.116z"/>
				<path d="M262.443,136.14c-5.563-4.59-12.403-6.931-19.243-6.931c-6.84,0-13.68,2.31-19.273,6.931
					L71.93,260.747c-7.053,5.776-11.126,14.379-11.126,23.529v148.927c0,16.781,13.619,30.399,30.399,30.399h91.198V311.606h121.598
					v151.997h91.198c16.75,0,30.399-13.619,30.399-30.399V284.277c0-9.181-4.104-17.753-11.157-23.499L262.443,136.14z"/>
			</g>
		</g>
	</g>
	<g>
	</g>
	<g>
	</g>
	<g>
	</g>
	<g>
	</g>
	<g>
	</g>
	<g>
	</g>
	<g>
	</g>
	<g>
	</g>
	<g>
	</g>
	<g>
	</g>
	<g>
	</g>
	<g>
	</g>
	<g>
	</g>
	<g>
	</g>
	<g>
	</g>
</g>
<g>
</g>
<g>
</g>
<g>
</g>
<g>
</g>
<g>
</g>
<g>
</g>
<g>
</g>
<g>
</g>
<g>
</g>
<g>
</g>
<g>
</g>
<g>
</g>
<g>
</g>
<g>
</g>
<g>
</g>
</svg>
