<?xml version="1.0" encoding="iso-8859-1"?>
<!-- Generator: Adobe Illustrator 19.0.0, SVG Export Plug-In . SVG Version: 6.00 Build 0)  -->
<svg version="1.1" id="Capa_1" xmlns="http://www.w3.org/2000/svg" xmlns:xlink="http://www.w3.org/1999/xlink" x="0px" y="0px"
	 viewBox="0 0 508.471 508.471" style="enable-background:new 0 0 508.471 508.471;" xml:space="preserve">
<g>
	<g>
		<g>
			<path d="M502.519,225.91L264.151,35.215c-5.816-4.64-14.048-4.64-19.864,0l-85.4,68.332V63.533
				c0-17.544-14.239-31.782-31.782-31.782S95.322,45.989,95.322,63.533v90.866L5.95,225.91c-6.833,5.498-7.946,15.478-2.479,22.375
				c5.467,6.833,15.446,7.946,22.311,2.479L63.54,220.57v224.384c0,17.544,14.239,31.782,31.782,31.782h95.347
				c17.544,0,31.782-14.239,31.782-31.782v-127.13h63.565v127.13c0,17.544,14.239,31.782,31.782,31.782h95.347
				c17.544,0,31.783-14.239,31.783-31.782V220.57l37.758,30.193c2.892,2.32,6.452,3.464,9.916,3.464c4.64,0,9.28-2.034,12.459-5.975
				C510.465,241.419,509.321,231.44,502.519,225.91z M413.115,444.954h-95.347V286.042h-127.13v158.912H95.291V195.176
				L254.203,68.014l158.912,127.13V444.954z"/>
		</g>
	</g>
</g>
<g>
</g>
<g>
</g>
<g>
</g>
<g>
</g>
<g>
</g>
<g>
</g>
<g>
</g>
<g>
</g>
<g>
</g>
<g>
</g>
<g>
</g>
<g>
</g>
<g>
</g>
<g>
</g>
<g>
</g>
</svg>
