<?xml version="1.0" encoding="iso-8859-1"?>
<!-- Generator: Adobe Illustrator 19.0.0, SVG Export Plug-In . SVG Version: 6.00 Build 0)  -->
<svg version="1.1" id="Capa_1" xmlns="http://www.w3.org/2000/svg" xmlns:xlink="http://www.w3.org/1999/xlink" x="0px" y="0px"
	 viewBox="0 0 508.52 508.52" style="enable-background:new 0 0 508.52 508.52;" xml:space="preserve">
<g>
	<g>
		<g>
			<path d="M508.075,318.079l-63.12-254.768c-8.931-19.864-25.14-31.782-42.716-31.782H103.293
				c-17.544,0-31.782,11.918-39.728,31.782L0,317.571V461.1c0,8.772,7.119,15.891,15.891,15.891h476.737
				c8.74,0,15.891-7.119,15.891-15.891V319.573L508.075,318.079z M471.016,302.188c0,8.74-7.151,15.891-15.891,15.891h-0.064
				H333.716c-8.74,0-15.891,7.183-15.891,15.891v31.274c0,8.74-7.151,15.891-15.891,15.891l-0.922,0.509h-93.885l-0.54-0.509
				c-8.772,0-15.891-7.151-15.891-15.891V333.97c0-8.708-7.119-15.891-15.891-15.891H53.458h-0.064
				c-8.772,0-16.146-7.151-16.146-15.891l-0.318-0.254L93.599,73.894c1.462-3.274,5.181-10.584,9.694-10.584h298.946
				c4.354,0,9.376,4.481,12.904,11.315l55.969,227.499L471.016,302.188z"/>
		</g>
	</g>
</g>
<g>
</g>
<g>
</g>
<g>
</g>
<g>
</g>
<g>
</g>
<g>
</g>
<g>
</g>
<g>
</g>
<g>
</g>
<g>
</g>
<g>
</g>
<g>
</g>
<g>
</g>
<g>
</g>
<g>
</g>
</svg>
