<?xml version="1.0" encoding="iso-8859-1"?>
<!-- Generator: Adobe Illustrator 19.0.0, SVG Export Plug-In . SVG Version: 6.00 Build 0)  -->
<svg version="1.1" id="Capa_1" xmlns="http://www.w3.org/2000/svg" xmlns:xlink="http://www.w3.org/1999/xlink" x="0px" y="0px"
	 viewBox="0 0 486.392 486.392" style="enable-background:new 0 0 486.392 486.392;" xml:space="preserve">
<g>
	<g>
		<path d="M464.413,0H21.948C9.849,0,0,9.819,0,21.918v442.555c0,12.069,9.849,21.918,21.948,21.918h442.464
			c12.129,0,21.979-9.849,21.979-21.918V21.918C486.392,9.819,476.542,0,464.413,0z M243.196,158.32
			c46.876,0,84.875,37.999,84.875,84.875s-37.999,84.875-84.875,84.875s-84.875-37.999-84.875-84.875S196.32,158.32,243.196,158.32z
			 M425.593,425.593H60.799V212.796h40.036c-2.098,9.819-3.314,19.972-3.314,30.399c0,80.346,65.359,145.674,145.674,145.674
			c80.346,0,145.674-65.328,145.674-145.674c0-10.427-1.216-20.58-3.283-30.399h40.006V425.593z M425.593,151.997h-91.198V60.799
			h91.198V151.997z"/>
	</g>
	<g>
	</g>
	<g>
	</g>
	<g>
	</g>
	<g>
	</g>
	<g>
	</g>
	<g>
	</g>
	<g>
	</g>
	<g>
	</g>
	<g>
	</g>
	<g>
	</g>
	<g>
	</g>
	<g>
	</g>
	<g>
	</g>
	<g>
	</g>
	<g>
	</g>
</g>
<g>
</g>
<g>
</g>
<g>
</g>
<g>
</g>
<g>
</g>
<g>
</g>
<g>
</g>
<g>
</g>
<g>
</g>
<g>
</g>
<g>
</g>
<g>
</g>
<g>
</g>
<g>
</g>
<g>
</g>
</svg>
