<?xml version="1.0" encoding="iso-8859-1"?>
<!-- Generator: Adobe Illustrator 19.0.0, SVG Export Plug-In . SVG Version: 6.00 Build 0)  -->
<svg version="1.1" id="Capa_1" xmlns="http://www.w3.org/2000/svg" xmlns:xlink="http://www.w3.org/1999/xlink" x="0px" y="0px"
	 viewBox="0 0 508.52 508.52" style="enable-background:new 0 0 508.52 508.52;" xml:space="preserve">
<g>
	<g>
		<g>
			<path d="M492.628,0h-68.777c-3.75,0-7.374,1.335-10.234,3.75L188.565,193.778
				c-10.361-2.066-20.118-3.083-29.653-3.083C71.288,190.695,0,261.983,0,349.607S71.288,508.52,158.912,508.52
				s158.912-71.288,158.912-158.912c0-16.686-2.67-33.244-7.946-49.263l48.341-31.433c4.545-2.924,7.278-7.946,7.278-13.317v-57.749
				l60.387-3.178c7.882-0.413,14.27-6.547,15.001-14.397l5.816-61.213l52.759-25.235c5.594-2.67,9.058-8.263,9.058-14.366V15.891
				C508.52,7.119,501.369,0,492.628,0z M79.456,397.281c0-17.512,14.27-31.782,31.782-31.782c12.268,0,23.551,7.215,28.795,18.275
				c1.971,4.227,2.988,8.772,2.988,13.508c0,17.512-14.27,31.782-31.782,31.782S79.456,414.793,79.456,397.281z M476.737,69.445
				l-51.869,24.79c-5.022,2.415-8.486,7.278-8.963,12.84l-5.339,56.541l-61.753,3.242c-8.486,0.477-15.097,7.437-15.097,15.891
				v64.201l-51.869,33.721c-6.452,4.195-8.994,12.459-5.975,19.514c6.77,15.891,10.17,32.514,10.17,49.422
				c0,70.112-57.018,127.13-127.13,127.13c-24.059,0-46.339-7.087-65.567-18.752c5.721,1.684,11.632,2.86,17.894,2.86
				c35.056,0,63.565-28.477,63.565-63.565c0-9.439-2.034-18.561-6.039-27.079c-10.425-22.152-33.022-36.486-57.526-36.486
				c-35.056,0-63.565,28.477-63.565,63.565c0,6.261,1.176,12.173,2.86,17.894c-11.664-19.197-18.752-41.508-18.752-65.567
				c0-70.112,57.018-127.13,127.13-127.13c9.376,0,19.228,1.303,30.13,3.941c4.926,1.208,10.139,0,14.016-3.305L429.667,31.782
				h47.07V69.445z"/>
		</g>
	</g>
</g>
<g>
</g>
<g>
</g>
<g>
</g>
<g>
</g>
<g>
</g>
<g>
</g>
<g>
</g>
<g>
</g>
<g>
</g>
<g>
</g>
<g>
</g>
<g>
</g>
<g>
</g>
<g>
</g>
<g>
</g>
</svg>
