<?xml version="1.0" encoding="iso-8859-1"?>
<!-- Generator: Adobe Illustrator 19.0.0, SVG Export Plug-In . SVG Version: 6.00 Build 0)  -->
<svg version="1.1" id="Capa_1" xmlns="http://www.w3.org/2000/svg" xmlns:xlink="http://www.w3.org/1999/xlink" x="0px" y="0px"
	 viewBox="0 0 413.18 413.18" style="enable-background:new 0 0 413.18 413.18;" xml:space="preserve">
<g>
	<g>
		<g>
			<path d="M286.05,174.796H54.261l68.205-68.205c6.198-6.198,6.198-16.273,0-22.47
				c-6.198-6.198-16.273-6.198-22.47,0L4.648,179.468c-6.198,6.198-6.198,16.241,0,22.47l95.347,95.347
				c6.198,6.166,16.273,6.166,22.47,0c6.198-6.166,6.198-16.304,0-22.47l-68.205-68.237h231.79
				c63.565,0,95.347,58.67,95.347,111.239c0,8.74,7.183,15.891,15.891,15.891c8.74,0,15.891-7.151,15.891-15.891
				C413.18,247.673,381.398,174.796,286.05,174.796z"/>
		</g>
	</g>
</g>
<g>
</g>
<g>
</g>
<g>
</g>
<g>
</g>
<g>
</g>
<g>
</g>
<g>
</g>
<g>
</g>
<g>
</g>
<g>
</g>
<g>
</g>
<g>
</g>
<g>
</g>
<g>
</g>
<g>
</g>
</svg>
