<?xml version="1.0" encoding="iso-8859-1"?>
<!-- Generator: Adobe Illustrator 19.0.0, SVG Export Plug-In . SVG Version: 6.00 Build 0)  -->
<svg version="1.1" id="Capa_1" xmlns="http://www.w3.org/2000/svg" xmlns:xlink="http://www.w3.org/1999/xlink" x="0px" y="0px"
	 viewBox="0 0 476.761 476.761" style="enable-background:new 0 0 476.761 476.761;" xml:space="preserve">
<g>
	<g>
		<g>
			<path d="M406.991,69.818c-93.154-93.091-244.058-93.091-337.149,0s-93.091,244.026,0,337.149
				c93.091,93.059,244.058,93.059,337.149,0C499.986,313.844,499.986,162.877,406.991,69.818z M356.552,356.496
				c-6.166,6.198-16.273,6.198-22.438,0L158.928,181.375v96.492c0,8.772-7.119,15.891-15.891,15.891
				c-8.772,0-15.891-7.087-15.891-15.891V143.013l1.271-6.07l3.305-4.99l0.127-0.191l0.064-0.064l5.022-3.337l6.134-1.24h134.885
				c8.74,0,15.891,7.119,15.891,15.891s-7.151,15.891-15.923,15.891H181.43l175.121,175.121
				C362.749,340.224,362.749,350.267,356.552,356.496z"/>
		</g>
	</g>
</g>
<g>
</g>
<g>
</g>
<g>
</g>
<g>
</g>
<g>
</g>
<g>
</g>
<g>
</g>
<g>
</g>
<g>
</g>
<g>
</g>
<g>
</g>
<g>
</g>
<g>
</g>
<g>
</g>
<g>
</g>
</svg>
