<?xml version="1.0" encoding="iso-8859-1"?>
<!-- Generator: Adobe Illustrator 19.0.0, SVG Export Plug-In . SVG Version: 6.00 Build 0)  -->
<svg version="1.1" id="Capa_1" xmlns="http://www.w3.org/2000/svg" xmlns:xlink="http://www.w3.org/1999/xlink" x="0px" y="0px"
	 viewBox="0 0 381.39 381.39" style="enable-background:new 0 0 381.39 381.39;" xml:space="preserve">
<g>
	<g>
		<g>
			<g>
				<path d="M15.891,79.456h206.586c0,17.544,14.239,31.782,31.782,31.782h31.782
					c17.544,0,31.782-14.239,31.782-31.782h47.674c8.74,0,15.891-7.119,15.891-15.891s-7.151-15.891-15.891-15.891h-47.674
					c0-17.544-14.239-31.782-31.782-31.782H254.26c-17.544,0-31.782,14.239-31.782,31.782H15.891C7.119,47.674,0,54.793,0,63.565
					S7.119,79.456,15.891,79.456z M254.26,47.674h31.782v31.782H254.26V47.674z"/>
				<path d="M365.499,174.804H158.912c0-17.544-14.239-31.782-31.782-31.782H95.347
					c-17.544,0-31.782,14.239-31.782,31.782H15.891C7.119,174.804,0,181.923,0,190.695c0,8.772,7.119,15.891,15.891,15.891h47.674
					c0,17.544,14.239,31.782,31.782,31.782h31.782c17.544,0,31.782-14.239,31.782-31.782h206.586c8.74,0,15.891-7.119,15.891-15.891
					C381.39,181.923,374.239,174.804,365.499,174.804z M127.13,206.586H95.347v-31.782h31.782V206.586z"/>
				<path d="M365.499,301.934H254.26c0-17.544-14.239-31.782-31.782-31.782h-31.782
					c-17.544,0-31.782,14.239-31.782,31.782H15.891C7.119,301.934,0,309.085,0,317.825s7.119,15.891,15.891,15.891h143.021
					c0,17.544,14.239,31.783,31.782,31.783h31.782c17.544,0,31.782-14.239,31.782-31.783h111.239c8.74,0,15.891-7.151,15.891-15.891
					S374.239,301.934,365.499,301.934z M222.477,333.716h-31.782v-31.782h31.782V333.716z"/>
			</g>
		</g>
	</g>
</g>
<g>
</g>
<g>
</g>
<g>
</g>
<g>
</g>
<g>
</g>
<g>
</g>
<g>
</g>
<g>
</g>
<g>
</g>
<g>
</g>
<g>
</g>
<g>
</g>
<g>
</g>
<g>
</g>
<g>
</g>
</svg>
