<?xml version="1.0" encoding="iso-8859-1"?>
<!-- Generator: Adobe Illustrator 19.0.0, SVG Export Plug-In . SVG Version: 6.00 Build 0)  -->
<svg version="1.1" id="Capa_1" xmlns="http://www.w3.org/2000/svg" xmlns:xlink="http://www.w3.org/1999/xlink" x="0px" y="0px"
	 viewBox="0 0 381.39 381.39" style="enable-background:new 0 0 381.39 381.39;" xml:space="preserve">
<g>
	<g>
		<g>
			<g>
				<path d="M79.456,63.565V15.891C79.456,7.119,72.337,0,63.565,0S47.674,7.119,47.674,15.891v47.674
					c-17.544,0-31.782,14.239-31.782,31.782v31.782c0,17.544,14.239,31.782,31.782,31.782v206.586
					c0,8.74,7.119,15.891,15.891,15.891s15.891-7.151,15.891-15.891V158.912c17.544,0,31.782-14.239,31.782-31.782V95.347
					C111.239,77.804,97,63.565,79.456,63.565z M79.456,127.13H47.674V95.347h31.782V127.13z"/>
				<path d="M206.586,222.477V15.891C206.586,7.119,199.435,0,190.695,0c-8.772,0-15.891,7.119-15.891,15.891
					v206.586c-17.544,0-31.782,14.239-31.782,31.782v31.782c0,17.544,14.239,31.782,31.782,31.782v47.674
					c0,8.74,7.119,15.891,15.891,15.891c8.74,0,15.891-7.151,15.891-15.891v-47.674c17.544,0,31.782-14.239,31.782-31.782V254.26
					C238.369,236.716,224.13,222.477,206.586,222.477z M206.586,286.042h-31.782V254.26h31.782V286.042z"/>
				<path d="M333.716,127.13V15.891C333.716,7.119,326.565,0,317.825,0s-15.891,7.119-15.891,15.891V127.13
					c-17.544,0-31.782,14.239-31.782,31.782v31.782c0,17.544,14.239,31.782,31.782,31.782v143.021
					c0,8.74,7.151,15.891,15.891,15.891s15.891-7.151,15.891-15.891V222.477c17.544,0,31.783-14.239,31.783-31.782v-31.782
					C365.499,141.368,351.26,127.13,333.716,127.13z M333.716,190.695h-31.782v-31.782h31.782V190.695z"/>
			</g>
		</g>
	</g>
</g>
<g>
</g>
<g>
</g>
<g>
</g>
<g>
</g>
<g>
</g>
<g>
</g>
<g>
</g>
<g>
</g>
<g>
</g>
<g>
</g>
<g>
</g>
<g>
</g>
<g>
</g>
<g>
</g>
<g>
</g>
</svg>
