<?xml version="1.0" encoding="iso-8859-1"?>
<!-- Generator: Adobe Illustrator 19.0.0, SVG Export Plug-In . SVG Version: 6.00 Build 0)  -->
<svg version="1.1" id="Capa_1" xmlns="http://www.w3.org/2000/svg" xmlns:xlink="http://www.w3.org/1999/xlink" x="0px" y="0px"
	 viewBox="0 0 502.862 502.862" style="enable-background:new 0 0 502.862 502.862;" xml:space="preserve">
<g>
	<g>
		<g>
			<path d="M294.274,324.785L123.793,154.336c-18.593-18.593-18.593-48.818,0-67.411l25.267-25.299
				c18.593-18.593,48.818-18.593,67.411,0l170.481,170.449c8.391-31.751,0.509-66.902-24.377-91.788L250.192,27.937
				c-37.249-37.249-97.604-37.249-134.853,0L90.072,53.204c-37.249,37.249-37.249,97.604,0,134.853L202.454,300.44
				C227.34,325.325,262.492,333.144,294.274,324.785z"/>
			<path d="M412.791,314.774L300.408,202.454c-24.886-24.886-60.037-32.736-91.788-24.345L379.07,348.558
				c18.625,18.625,18.625,48.818,0,67.411L353.803,441.3c-18.625,18.561-48.85,18.561-67.411,0L115.943,270.787
				c-8.391,31.783-0.54,66.902,24.345,91.788l112.383,112.351c37.249,37.249,97.572,37.249,134.853,0l25.267-25.331
				C450.04,412.346,450.04,352.023,412.791,314.774z"/>
		</g>
	</g>
</g>
<g>
</g>
<g>
</g>
<g>
</g>
<g>
</g>
<g>
</g>
<g>
</g>
<g>
</g>
<g>
</g>
<g>
</g>
<g>
</g>
<g>
</g>
<g>
</g>
<g>
</g>
<g>
</g>
<g>
</g>
</svg>
