<?xml version="1.0" encoding="iso-8859-1"?>
<!-- Generator: Adobe Illustrator 19.0.0, SVG Export Plug-In . SVG Version: 6.00 Build 0)  -->
<svg version="1.1" id="Capa_1" xmlns="http://www.w3.org/2000/svg" xmlns:xlink="http://www.w3.org/1999/xlink" x="0px" y="0px"
	 viewBox="0 0 486.392 486.392" style="enable-background:new 0 0 486.392 486.392;" xml:space="preserve">
<g>
	<g>
		<g>
			<path d="M243.196,0C108.891,0,0,108.891,0,243.196s108.891,243.196,243.196,243.196
				s243.196-108.891,243.196-243.196C486.392,108.861,377.501,0,243.196,0z M182.397,360.994h-60.799V148.197h60.799V360.994z
				 M153.882,135.156c-15.747,0-28.484-12.768-28.484-28.515s12.768-28.515,28.484-28.515c15.747,0.03,28.515,12.798,28.515,28.515
				C182.397,122.388,169.629,135.156,153.882,135.156z M395.193,360.994h-60.799V229.425c0-15.413-4.408-26.204-23.347-26.204
				c-31.403,0-37.452,26.204-37.452,26.204v131.569h-60.799V148.197h60.799v20.337c8.694-6.657,30.399-20.307,60.799-20.307
				c19.699,0,60.799,11.795,60.799,83.051V360.994z"/>
		</g>
	</g>
	<g>
	</g>
	<g>
	</g>
	<g>
	</g>
	<g>
	</g>
	<g>
	</g>
	<g>
	</g>
	<g>
	</g>
	<g>
	</g>
	<g>
	</g>
	<g>
	</g>
	<g>
	</g>
	<g>
	</g>
	<g>
	</g>
	<g>
	</g>
	<g>
	</g>
</g>
<g>
</g>
<g>
</g>
<g>
</g>
<g>
</g>
<g>
</g>
<g>
</g>
<g>
</g>
<g>
</g>
<g>
</g>
<g>
</g>
<g>
</g>
<g>
</g>
<g>
</g>
<g>
</g>
<g>
</g>
</svg>
