<?xml version="1.0" encoding="iso-8859-1"?>
<!-- Generator: Adobe Illustrator 19.0.0, SVG Export Plug-In . SVG Version: 6.00 Build 0)  -->
<svg version="1.1" id="Capa_1" xmlns="http://www.w3.org/2000/svg" xmlns:xlink="http://www.w3.org/1999/xlink" x="0px" y="0px"
	 viewBox="0 0 508.52 508.52" style="enable-background:new 0 0 508.52 508.52;" xml:space="preserve">
<g>
	<g>
		<g>
			<path d="M413.172,0H95.347C42.684,0,0,42.684,0,95.347v317.825c0,52.664,42.684,95.347,95.347,95.347
				h317.825c52.664,0,95.347-42.684,95.347-95.347V95.347C508.52,42.684,465.836,0,413.172,0z M190.695,377.417H127.13V154.94
				h63.565V377.417z M160.883,141.305c-16.463,0-29.78-13.349-29.78-29.812s13.349-29.812,29.78-29.812
				c16.463,0.032,29.812,13.38,29.812,29.812C190.695,127.956,177.346,141.305,160.883,141.305z M413.172,377.417h-63.565V239.862
				c0-16.114-4.608-27.396-24.409-27.396c-32.831,0-39.156,27.396-39.156,27.396v137.555h-63.565V154.94h63.565v21.262
				c9.09-6.96,31.782-21.231,63.565-21.231c20.595,0,63.565,12.332,63.565,86.83V377.417z"/>
		</g>
	</g>
</g>
<g>
</g>
<g>
</g>
<g>
</g>
<g>
</g>
<g>
</g>
<g>
</g>
<g>
</g>
<g>
</g>
<g>
</g>
<g>
</g>
<g>
</g>
<g>
</g>
<g>
</g>
<g>
</g>
<g>
</g>
</svg>
