<?xml version="1.0" encoding="iso-8859-1"?>
<!-- Generator: Adobe Illustrator 19.0.0, SVG Export Plug-In . SVG Version: 6.00 Build 0)  -->
<svg version="1.1" id="Capa_1" xmlns="http://www.w3.org/2000/svg" xmlns:xlink="http://www.w3.org/1999/xlink" x="0px" y="0px"
	 viewBox="0 0 509.632 509.632" style="enable-background:new 0 0 509.632 509.632;" xml:space="preserve">
<g>
	<g>
		<g>
			<g>
				<path d="M40.141,99.926c0-13.984,7.31-31.846,17.004-41.54c12.713-12.713,47.197-26.793,63.247-10.838
					l150.109,150.14c2.193-7.342,3.305-14.97,3.305-22.597c0-20.722-8.073-40.141-22.661-54.761L149.378,18.563
					C118.803-12.012,58.035-0.538,28.127,29.369C10.774,46.723,0,73.61,0,99.545c0,20.15,6.611,37.853,18.593,49.835
					l101.799,101.767c20.309,20.309,50.185,27.428,77.359,19.324L47.61,120.363C42.716,115.5,40.141,108.412,40.141,99.926z"/>
				<path d="M491.039,360.225L389.272,258.457c-20.373-20.309-50.216-27.428-77.422-19.324l150.172,150.14
					c4.895,4.863,7.437,11.95,7.437,20.436c0,13.984-7.278,31.846-16.94,41.603c-12.713,12.649-47.229,26.793-63.247,10.838
					L239.163,311.916c-2.193,7.31-3.305,15.001-3.305,22.597c0,20.722,8.041,40.173,22.629,54.793l101.736,101.767
					c30.607,30.575,91.375,19.101,121.218-10.87c17.385-17.321,28.191-44.209,28.191-70.144
					C509.664,389.878,503.021,372.207,491.039,360.225z"/>
				<path d="M146.199,146.17c-4.068,4.036-6.293,9.439-6.293,15.16s2.225,11.092,6.261,15.128
					l186.976,186.976c8.422,8.391,21.898,8.391,30.289,0c4.1-4.036,6.261-9.439,6.261-15.16c0-5.753-2.225-11.156-6.261-15.192
					L176.456,146.138C168.129,137.811,154.526,137.811,146.199,146.17z"/>
			</g>
		</g>
	</g>
</g>
<g>
</g>
<g>
</g>
<g>
</g>
<g>
</g>
<g>
</g>
<g>
</g>
<g>
</g>
<g>
</g>
<g>
</g>
<g>
</g>
<g>
</g>
<g>
</g>
<g>
</g>
<g>
</g>
<g>
</g>
</svg>
