<?xml version="1.0" encoding="iso-8859-1"?>
<!-- Generator: Adobe Illustrator 19.0.0, SVG Export Plug-In . SVG Version: 6.00 Build 0)  -->
<svg version="1.1" id="Capa_1" xmlns="http://www.w3.org/2000/svg" xmlns:xlink="http://www.w3.org/1999/xlink" x="0px" y="0px"
	 viewBox="0 0 444.955 444.955" style="enable-background:new 0 0 444.955 444.955;" xml:space="preserve">
<g>
	<g>
		<g>
			<g>
				<path d="M443.715,9.821c-1.621-3.877-4.704-6.992-8.581-8.581L429.063,0h-127.13
					c-8.74,0-15.891,7.119-15.891,15.891s7.151,15.891,15.891,15.891h88.768l-131.77,131.77c-6.198,6.198-6.198,16.273,0,22.47
					c6.134,6.198,16.273,6.198,22.47,0l131.77-131.77v88.768c0,8.772,7.151,15.891,15.891,15.891c8.74,0,15.891-7.119,15.891-15.891
					V15.891L443.715,9.821z"/>
				<path d="M163.553,258.9L31.782,390.702v-88.768c0-8.74-7.119-15.891-15.891-15.891S0,293.193,0,301.934
					v127.193l1.208,6.007l3.305,4.958l0.127,0.191l0.127,0.127l5.022,3.305l6.102,1.24h127.13c8.772,0,15.891-7.151,15.891-15.891
					c0-8.74-7.119-15.891-15.891-15.891H54.253l131.77-131.77c6.198-6.134,6.198-16.273,0-22.47
					C179.825,252.734,169.75,252.734,163.553,258.9z"/>
			</g>
		</g>
	</g>
</g>
<g>
</g>
<g>
</g>
<g>
</g>
<g>
</g>
<g>
</g>
<g>
</g>
<g>
</g>
<g>
</g>
<g>
</g>
<g>
</g>
<g>
</g>
<g>
</g>
<g>
</g>
<g>
</g>
<g>
</g>
</svg>
