<?xml version="1.0" encoding="iso-8859-1"?>
<!-- Generator: Adobe Illustrator 19.0.0, SVG Export Plug-In . SVG Version: 6.00 Build 0)  -->
<svg version="1.1" id="Capa_1" xmlns="http://www.w3.org/2000/svg" xmlns:xlink="http://www.w3.org/1999/xlink" x="0px" y="0px"
	 viewBox="0 0 508.52 508.52" style="enable-background:new 0 0 508.52 508.52;" xml:space="preserve">
<g>
	<g>
		<g>
			<g>
				<path d="M476.737,111.239h-127.13V79.456c0-17.544-14.239-31.782-31.783-31.782h-127.13
					c-17.544,0-31.782,14.239-31.782,31.782v31.782H31.782C14.239,111.239,0,125.477,0,143.021v63.565h508.52v-63.565
					C508.52,125.477,494.281,111.239,476.737,111.239z M317.825,111.239h-127.13V79.456h127.13V111.239z"/>
				<rect x="190.695" y="238.369" style="fill:#000000;" width="127.13" height="31.782"/>
				<path d="M349.607,270.151c0,17.544-14.239,31.782-31.783,31.782h-127.13
					c-17.544,0-31.782-14.239-31.782-31.782v-31.782H0v190.695c0,17.544,14.239,31.783,31.782,31.783h444.955
					c17.544,0,31.782-14.239,31.782-31.783V238.369H349.607V270.151z"/>
			</g>
		</g>
	</g>
</g>
<g>
</g>
<g>
</g>
<g>
</g>
<g>
</g>
<g>
</g>
<g>
</g>
<g>
</g>
<g>
</g>
<g>
</g>
<g>
</g>
<g>
</g>
<g>
</g>
<g>
</g>
<g>
</g>
<g>
</g>
</svg>
