<?xml version="1.0" encoding="iso-8859-1"?>
<!-- Generator: Adobe Illustrator 19.0.0, SVG Export Plug-In . SVG Version: 6.00 Build 0)  -->
<svg version="1.1" id="Capa_1" xmlns="http://www.w3.org/2000/svg" xmlns:xlink="http://www.w3.org/1999/xlink" x="0px" y="0px"
	 viewBox="0 0 508.52 508.52" style="enable-background:new 0 0 508.52 508.52;" xml:space="preserve">
<g>
	<g>
		<g>
			<path d="M365.499,0H143.021c-17.544,0-31.782,14.239-31.782,31.782v444.955
				c0,17.544,14.239,31.782,31.782,31.782h222.477c17.544,0,31.782-14.239,31.782-31.782V31.782C397.281,14.239,383.042,0,365.499,0
				z M286.042,31.782h31.782c8.74,0,15.891,7.119,15.891,15.891s-7.151,15.891-15.891,15.891h-31.782
				c-8.74,0-15.891-7.119-15.891-15.891S277.302,31.782,286.042,31.782z M222.477,31.782c8.772,0,15.891,7.119,15.891,15.891
				s-7.119,15.891-15.891,15.891c-8.772,0-15.891-7.119-15.891-15.891S213.705,31.782,222.477,31.782z M256.23,476.737
				c-9.884,0-17.862-8.009-17.862-17.894c0-9.853,8.009-17.862,17.862-17.862c9.853,0,17.862,8.009,17.862,17.862
				C274.092,468.728,266.115,476.737,256.23,476.737z M365.499,413.172H143.021V95.347h222.477V413.172z"/>
		</g>
	</g>
</g>
<g>
</g>
<g>
</g>
<g>
</g>
<g>
</g>
<g>
</g>
<g>
</g>
<g>
</g>
<g>
</g>
<g>
</g>
<g>
</g>
<g>
</g>
<g>
</g>
<g>
</g>
<g>
</g>
<g>
</g>
</svg>
