<?xml version="1.0" encoding="iso-8859-1"?>
<!-- Generator: Adobe Illustrator 19.0.0, SVG Export Plug-In . SVG Version: 6.00 Build 0)  -->
<svg version="1.1" id="Capa_1" xmlns="http://www.w3.org/2000/svg" xmlns:xlink="http://www.w3.org/1999/xlink" x="0px" y="0px"
	 viewBox="0 0 508.52 508.52" style="enable-background:new 0 0 508.52 508.52;" xml:space="preserve">
<g>
	<g>
		<g>
			<path d="M413.172,254.26l-3.242,0.318c2.098-10.361,3.242-21.104,3.242-32.1
				c0-87.751-71.129-158.912-158.912-158.912c-87.751,0-158.912,71.161-158.912,158.912l0.159,1.589
				C41.603,231.758,0,277.652,0,333.716c0,56.001,41.508,101.863,95.347,109.65v1.589h317.825c52.664,0,95.347-42.684,95.347-95.347
				S465.836,254.26,413.172,254.26z M413.172,413.172H105.327l-5.435-1.271c-38.838-5.594-68.11-39.188-68.11-78.185
				c0-39.061,29.335-72.623,68.205-78.185c15.796-2.257,27.46-15.859,27.301-31.782l-0.159-2.829
				c0.858-69.413,57.558-125.573,127.13-125.573c70.112,0,127.13,57.018,127.13,127.13c0,8.645-0.858,17.29-2.606,25.712
				c-2.002,9.535,0.572,19.451,6.865,26.856c6.039,7.183,14.938,11.251,24.314,11.251l1.112-0.032l3.401-0.222
				c34.452,0.667,62.262,28.954,62.262,63.565C476.737,384.695,448.26,413.172,413.172,413.172z"/>
		</g>
	</g>
</g>
<g>
</g>
<g>
</g>
<g>
</g>
<g>
</g>
<g>
</g>
<g>
</g>
<g>
</g>
<g>
</g>
<g>
</g>
<g>
</g>
<g>
</g>
<g>
</g>
<g>
</g>
<g>
</g>
<g>
</g>
</svg>
