<?xml version="1.0" encoding="iso-8859-1"?>
<!-- Generator: Adobe Illustrator 19.0.0, SVG Export Plug-In . SVG Version: 6.00 Build 0)  -->
<svg version="1.1" id="Capa_1" xmlns="http://www.w3.org/2000/svg" xmlns:xlink="http://www.w3.org/1999/xlink" x="0px" y="0px"
	 viewBox="0 0 508.52 508.52" style="enable-background:new 0 0 508.52 508.52;" xml:space="preserve">
<g>
	<g>
		<path d="M508.52,183.671h-0.254c-1.335-77.994-64.614-147.502-142.767-147.502
			c-45.195,0-85.018,23.646-111.239,58.353c-26.221-34.706-66.044-58.353-111.239-58.353c-78.153,0-141.432,69.508-142.767,147.502
			H0l0.095,1.398L0,186.15l0.636,5.943c6.992,198.768,251.622,280.258,251.622,280.258s248.221-81.395,255.595-279.94l0.667-6.261
			l-0.095-1.081L508.52,183.671z M476.07,191.235c-5.626,152.556-179.825,230.105-223.749,247.236
			c-43.542-17.131-214.564-94.362-219.935-247.84l-0.445-4.64l0.095-1.78c1.081-63.025,51.901-116.26,110.984-116.26
			c32.609,0,63.915,16.654,85.876,45.735c6.007,7.946,15.383,12.618,25.362,12.618c9.98,0,19.356-4.672,25.362-12.618
			c21.93-29.081,53.299-45.735,85.876-45.735c59.084,0,109.904,53.236,110.984,116.26l0.095,1.812L476.07,191.235z"/>
	</g>
</g>
<g>
</g>
<g>
</g>
<g>
</g>
<g>
</g>
<g>
</g>
<g>
</g>
<g>
</g>
<g>
</g>
<g>
</g>
<g>
</g>
<g>
</g>
<g>
</g>
<g>
</g>
<g>
</g>
<g>
</g>
</svg>
