<?xml version="1.0" encoding="iso-8859-1"?>
<!-- Generator: Adobe Illustrator 19.0.0, SVG Export Plug-In . SVG Version: 6.00 Build 0)  -->
<svg version="1.1" id="Capa_1" xmlns="http://www.w3.org/2000/svg" xmlns:xlink="http://www.w3.org/1999/xlink" x="0px" y="0px"
	 viewBox="0 0 508.52 508.52" style="enable-background:new 0 0 508.52 508.52;" xml:space="preserve">
<g>
	<g>
		<g>
			<g>
				<path d="M316.935,0.127L314.615,0c-5.244,0-11.251,1.621-18.116,5.784
					c0,0-132.501,115.625-138.317,121.346H85.368c-17.544,0-31.782,14.239-31.782,31.782v194.731
					c0,17.576,14.239,31.783,31.782,31.783h72.814c5.753,5.721,138.317,117.246,138.317,117.246
					c6.865,4.227,12.84,5.848,18.084,5.848l2.352-0.095c11.759-1.112,20.15-10.965,22.661-21.358V21.485
					C337.117,11.06,328.726,1.208,316.935,0.127z M307.845,470.794c-49.581-41.762-121.409-102.499-127.257-107.902
					c-5.943-5.975-14.016-9.249-22.438-9.249H85.368V158.912h72.814c8.136,0,16.273-3.401,22.152-8.994
					c5.784-5.498,77.613-68.332,127.511-111.874V470.794L307.845,470.794z"/>
				<path d="M402.843,170.322c-7.85-3.973-17.385-0.795-21.358,7.056c-3.909,7.85-0.763,17.385,7.087,21.358
					c21.326,10.742,34.579,32.005,34.579,55.524s-13.253,44.782-34.579,55.524c-7.85,3.973-10.997,13.508-7.087,21.358
					c2.829,5.53,8.422,8.708,14.207,8.708c2.352,0,4.767-0.572,7.151-1.684c32.132-16.241,52.091-48.341,52.091-83.969
					S435.007,186.531,402.843,170.322z"/>
			</g>
		</g>
	</g>
</g>
<g>
</g>
<g>
</g>
<g>
</g>
<g>
</g>
<g>
</g>
<g>
</g>
<g>
</g>
<g>
</g>
<g>
</g>
<g>
</g>
<g>
</g>
<g>
</g>
<g>
</g>
<g>
</g>
<g>
</g>
</svg>
