<?xml version="1.0" encoding="iso-8859-1"?>
<!-- Generator: Adobe Illustrator 19.0.0, SVG Export Plug-In . SVG Version: 6.00 Build 0)  -->
<svg version="1.1" id="Capa_1" xmlns="http://www.w3.org/2000/svg" xmlns:xlink="http://www.w3.org/1999/xlink" x="0px" y="0px"
	 viewBox="0 0 508.514 508.514" style="enable-background:new 0 0 508.514 508.514;" xml:space="preserve">
<g>
	<g>
		<g>
			<path d="M317.107,0.109c-5.816-0.54-12.586,0.858-20.531,5.721c0,0-132.533,115.625-138.317,121.314
				H85.349c-17.544,0-31.782,14.239-31.782,31.782v194.731c0,17.576,14.239,31.783,31.782,31.783h72.941
				c5.753,5.753,138.317,117.277,138.317,117.277c7.946,4.799,14.715,6.229,20.531,5.689c11.76-1.112,20.023-10.965,22.534-21.358
				c0.159-1.017,0.159-464.565,0-465.55C337.13,11.074,328.835,1.221,317.107,0.109z"/>
			<path d="M402.856,170.336c-7.85-3.973-17.385-0.795-21.358,7.056c-3.909,7.85-0.763,17.385,7.087,21.358
				c21.326,10.742,34.579,32.005,34.579,55.524s-13.253,44.782-34.579,55.524c-7.85,3.973-10.997,13.508-7.087,21.358
				c2.829,5.53,8.422,8.74,14.207,8.74c2.384,0,4.799-0.572,7.151-1.685c32.132-16.209,52.091-48.341,52.091-83.938
				S434.988,186.545,402.856,170.336z"/>
		</g>
	</g>
</g>
<g>
</g>
<g>
</g>
<g>
</g>
<g>
</g>
<g>
</g>
<g>
</g>
<g>
</g>
<g>
</g>
<g>
</g>
<g>
</g>
<g>
</g>
<g>
</g>
<g>
</g>
<g>
</g>
<g>
</g>
</svg>
