<?xml version="1.0" encoding="iso-8859-1"?>
<!-- Generator: Adobe Illustrator 19.0.0, SVG Export Plug-In . SVG Version: 6.00 Build 0)  -->
<svg version="1.1" id="Capa_1" xmlns="http://www.w3.org/2000/svg" xmlns:xlink="http://www.w3.org/1999/xlink" x="0px" y="0px"
	 viewBox="0 0 508.496 508.496" style="enable-background:new 0 0 508.496 508.496;" xml:space="preserve">
<g>
	<g>
		<path d="M301.91,0.016c-114.099,0-206.586,92.487-206.586,206.586c0,49.104,17.194,94.108,45.767,129.577
			L6.46,470.81c-8.613,8.613-8.613,22.597,0,31.21c8.613,8.613,22.597,8.613,31.179,0l134.662-134.662
			c35.501,28.636,80.505,45.83,129.609,45.83c114.099,0,206.586-92.487,206.586-206.586S416.009,0.016,301.91,0.016z
			 M397.257,222.525H206.562c-8.772,0-15.891-7.119-15.891-15.891c0-8.772,7.119-15.891,15.891-15.891h190.695
			c8.772,0,15.891,7.119,15.891,15.891C413.148,215.406,406.029,222.525,397.257,222.525z"/>
	</g>
</g>
<g>
</g>
<g>
</g>
<g>
</g>
<g>
</g>
<g>
</g>
<g>
</g>
<g>
</g>
<g>
</g>
<g>
</g>
<g>
</g>
<g>
</g>
<g>
</g>
<g>
</g>
<g>
</g>
<g>
</g>
</svg>
