<?xml version="1.0" encoding="iso-8859-1"?>
<!-- Generator: Adobe Illustrator 19.0.0, SVG Export Plug-In . SVG Version: 6.00 Build 0)  -->
<svg version="1.1" id="Capa_1" xmlns="http://www.w3.org/2000/svg" xmlns:xlink="http://www.w3.org/1999/xlink" x="0px" y="0px"
	 viewBox="0 0 286.042 286.042" style="enable-background:new 0 0 286.042 286.042;" xml:space="preserve">
<g>
	<g>
		<g>
			<path d="M270.151,127.13H158.912V15.891C158.912,7.119,151.761,0,143.021,0
				c-8.772,0-15.891,7.119-15.891,15.891V127.13H15.891C7.119,127.13,0,134.249,0,143.021c0,8.74,7.119,15.891,15.891,15.891H127.13
				v111.239c0,8.74,7.119,15.891,15.891,15.891c8.74,0,15.891-7.151,15.891-15.891V158.912h111.239
				c8.74,0,15.891-7.151,15.891-15.891C286.042,134.249,278.891,127.13,270.151,127.13z"/>
		</g>
	</g>
</g>
<g>
</g>
<g>
</g>
<g>
</g>
<g>
</g>
<g>
</g>
<g>
</g>
<g>
</g>
<g>
</g>
<g>
</g>
<g>
</g>
<g>
</g>
<g>
</g>
<g>
</g>
<g>
</g>
<g>
</g>
</svg>
