<?xml version="1.0" encoding="iso-8859-1"?>
<!-- Generator: Adobe Illustrator 19.0.0, SVG Export Plug-In . SVG Version: 6.00 Build 0)  -->
<svg version="1.1" id="Capa_1" xmlns="http://www.w3.org/2000/svg" xmlns:xlink="http://www.w3.org/1999/xlink" x="0px" y="0px"
	 viewBox="0 0 317.825 317.825" style="enable-background:new 0 0 317.825 317.825;" xml:space="preserve">
<g>
	<g>
		<g>
			<g>
				<path d="M301.934,143.021H15.891C7.119,143.021,0,150.14,0,158.912c0,8.772,7.119,15.891,15.891,15.891
					h286.042c8.74,0,15.891-7.119,15.891-15.891C317.825,150.14,310.674,143.021,301.934,143.021z"/>
				<path d="M15.891,79.456h286.042c8.74,0,15.891-7.119,15.891-15.891s-7.151-15.891-15.891-15.891H15.891
					C7.119,47.674,0,54.793,0,63.565S7.119,79.456,15.891,79.456z"/>
				<path d="M301.934,238.369H15.891C7.119,238.369,0,245.52,0,254.26c0,8.74,7.119,15.891,15.891,15.891
					h286.042c8.74,0,15.891-7.151,15.891-15.891C317.825,245.52,310.674,238.369,301.934,238.369z"/>
			</g>
		</g>
	</g>
</g>
<g>
</g>
<g>
</g>
<g>
</g>
<g>
</g>
<g>
</g>
<g>
</g>
<g>
</g>
<g>
</g>
<g>
</g>
<g>
</g>
<g>
</g>
<g>
</g>
<g>
</g>
<g>
</g>
<g>
</g>
</svg>
