<?xml version="1.0" encoding="iso-8859-1"?>
<!-- Generator: Adobe Illustrator 19.0.0, SVG Export Plug-In . SVG Version: 6.00 Build 0)  -->
<svg version="1.1" id="Capa_1" xmlns="http://www.w3.org/2000/svg" xmlns:xlink="http://www.w3.org/1999/xlink" x="0px" y="0px"
	 viewBox="0 0 476.737 476.737" style="enable-background:new 0 0 476.737 476.737;" xml:space="preserve">
<g>
	<g>
		<g>
			<path d="M444.955,0H31.782C14.239,0,0,14.239,0,31.782v413.172c0,17.544,14.239,31.782,31.782,31.782
				h413.172c17.544,0,31.782-14.239,31.782-31.782V31.782C476.737,14.239,462.499,0,444.955,0z M444.955,444.955H31.782V31.782
				h413.172V444.955z"/>
			<path d="M111.239,254.26h254.26c8.74,0,15.891-7.151,15.891-15.891c0-8.772-7.151-15.891-15.891-15.891
				h-254.26c-8.772,0-15.891,7.119-15.891,15.891C95.347,247.109,102.467,254.26,111.239,254.26z"/>
			<path d="M111.239,158.912h254.26c8.74,0,15.891-7.119,15.891-15.891c0-8.772-7.151-15.891-15.891-15.891
				h-254.26c-8.772,0-15.891,7.119-15.891,15.891C95.347,151.793,102.467,158.912,111.239,158.912z"/>
			<path d="M111.239,349.607h254.26c8.74,0,15.891-7.151,15.891-15.891c0-8.74-7.151-15.891-15.891-15.891
				h-254.26c-8.772,0-15.891,7.151-15.891,15.891C95.347,342.456,102.467,349.607,111.239,349.607z"/>
		</g>
	</g>
</g>
<g>
</g>
<g>
</g>
<g>
</g>
<g>
</g>
<g>
</g>
<g>
</g>
<g>
</g>
<g>
</g>
<g>
</g>
<g>
</g>
<g>
</g>
<g>
</g>
<g>
</g>
<g>
</g>
<g>
</g>
</svg>
