<?xml version="1.0" encoding="iso-8859-1"?>
<!-- Generator: Adobe Illustrator 19.0.0, SVG Export Plug-In . SVG Version: 6.00 Build 0)  -->
<svg version="1.1" id="Capa_1" xmlns="http://www.w3.org/2000/svg" xmlns:xlink="http://www.w3.org/1999/xlink" x="0px" y="0px"
	 viewBox="0 0 476.737 476.737" style="enable-background:new 0 0 476.737 476.737;" xml:space="preserve">
<g>
	<g>
		<g>
			<path d="M444.955,0H31.782C14.239,0,0,14.239,0,31.782v413.172c0,17.544,14.239,31.782,31.782,31.782
				h413.172c17.544,0,31.782-14.239,31.782-31.782V31.782C476.737,14.239,462.499,0,444.955,0z M365.499,349.607h-254.26
				c-8.772,0-15.891-7.151-15.891-15.891c0-8.74,7.119-15.891,15.891-15.891h254.26c8.74,0,15.891,7.151,15.891,15.891
				C381.39,342.456,374.239,349.607,365.499,349.607z M365.499,254.26h-254.26c-8.772,0-15.891-7.151-15.891-15.891
				c0-8.772,7.119-15.891,15.891-15.891h254.26c8.74,0,15.891,7.119,15.891,15.891C381.39,247.109,374.239,254.26,365.499,254.26z
				 M365.499,158.912h-254.26c-8.772,0-15.891-7.119-15.891-15.891c0-8.772,7.119-15.891,15.891-15.891h254.26
				c8.74,0,15.891,7.119,15.891,15.891C381.39,151.793,374.239,158.912,365.499,158.912z"/>
		</g>
	</g>
</g>
<g>
</g>
<g>
</g>
<g>
</g>
<g>
</g>
<g>
</g>
<g>
</g>
<g>
</g>
<g>
</g>
<g>
</g>
<g>
</g>
<g>
</g>
<g>
</g>
<g>
</g>
<g>
</g>
<g>
</g>
</svg>
