<?xml version="1.0" encoding="iso-8859-1"?>
<!-- Generator: Adobe Illustrator 19.0.0, SVG Export Plug-In . SVG Version: 6.00 Build 0)  -->
<svg version="1.1" id="Capa_1" xmlns="http://www.w3.org/2000/svg" xmlns:xlink="http://www.w3.org/1999/xlink" x="0px" y="0px"
	 viewBox="0 0 508.52 508.52" style="enable-background:new 0 0 508.52 508.52;" xml:space="preserve">
<g>
	<g>
		<g>
			<g>
				<path d="M397.281,190.695c-8.74,0-15.891,7.119-15.891,15.891v47.674
					c0,83.461-64.01,127.13-127.13,127.13c-61.245,0-127.13-39.792-127.13-127.13v-47.674c0-8.772-7.119-15.891-15.891-15.891
					s-15.891,7.119-15.891,15.891v47.674c0,90.262,59.846,143.212,127.13,155.861v66.616h-47.674
					c-8.772,0-15.891,7.151-15.891,15.891s7.119,15.891,15.891,15.891h158.912c8.74,0,15.891-7.151,15.891-15.891
					s-7.151-15.891-15.891-15.891h-47.674V409.93c66.203-13.094,127.13-66.711,127.13-155.671v-47.674
					C413.172,197.814,406.021,190.695,397.281,190.695z"/>
				<path d="M254.26,317.825c35.12,0,63.565-28.445,63.565-63.565V63.565C317.825,28.445,289.379,0,254.26,0
					s-63.565,28.445-63.565,63.565V254.26C190.695,289.379,219.14,317.825,254.26,317.825z"/>
			</g>
		</g>
	</g>
</g>
<g>
</g>
<g>
</g>
<g>
</g>
<g>
</g>
<g>
</g>
<g>
</g>
<g>
</g>
<g>
</g>
<g>
</g>
<g>
</g>
<g>
</g>
<g>
</g>
<g>
</g>
<g>
</g>
<g>
</g>
</svg>
