<?xml version="1.0" encoding="iso-8859-1"?>
<!-- Generator: Adobe Illustrator 19.0.0, SVG Export Plug-In . SVG Version: 6.00 Build 0)  -->
<svg version="1.1" id="Capa_1" xmlns="http://www.w3.org/2000/svg" xmlns:xlink="http://www.w3.org/1999/xlink" x="0px" y="0px"
	 viewBox="0 0 476.737 476.737" style="enable-background:new 0 0 476.737 476.737;" xml:space="preserve">
<g>
	<g>
		<g>
			<path d="M238.369,0C106.726,0,0,106.726,0,238.369c0,131.675,106.726,238.369,238.369,238.369
				c131.675,0,238.369-106.694,238.369-238.369C476.737,106.726,370.043,0,238.369,0z M345.19,221.206l-97.095,122.553l-0.35,0.667
				c-5.403,6.929-14.207,6.929-19.61,0L130.88,221.206c-5.403-6.897-5.403-18.084,0-24.981l0.064,0.064
				c2.511-3.401,6.039-5.594,10.011-5.594h194.191c3.909,0,7.374,2.066,9.948,5.371l0.127,0.127
				C350.656,203.122,350.656,214.309,345.19,221.206z"/>
		</g>
	</g>
</g>
<g>
</g>
<g>
</g>
<g>
</g>
<g>
</g>
<g>
</g>
<g>
</g>
<g>
</g>
<g>
</g>
<g>
</g>
<g>
</g>
<g>
</g>
<g>
</g>
<g>
</g>
<g>
</g>
<g>
</g>
</svg>
