<?xml version="1.0" encoding="iso-8859-1"?>
<!-- Generator: Adobe Illustrator 19.0.0, SVG Export Plug-In . SVG Version: 6.00 Build 0)  -->
<svg version="1.1" id="Capa_1" xmlns="http://www.w3.org/2000/svg" xmlns:xlink="http://www.w3.org/1999/xlink" x="0px" y="0px"
	 viewBox="0 0 508.551 508.551" style="enable-background:new 0 0 508.551 508.551;" xml:space="preserve">
<g>
	<g>
		<g>
			<g>
				<path d="M263.381,0.079l-2.352-0.064c-5.244,0-11.251,1.621-18.116,5.784
					c0,0-132.533,115.625-138.317,121.346H31.782C14.239,127.146,0,141.384,0,158.928V353.66c0,17.576,14.239,31.782,31.782,31.782
					h72.814c5.784,5.721,138.317,117.246,138.317,117.246c6.865,4.227,12.872,5.848,18.116,5.848l2.352-0.095
					c11.76-1.112,20.15-10.965,22.661-21.358V21.501C283.563,11.044,275.141,1.192,263.381,0.079z M254.26,470.778
					c-49.581-41.762-121.377-102.499-127.257-107.902c-5.943-5.975-13.984-9.249-22.438-9.249H31.782v-4.036V158.896h72.814
					c8.136,0,16.304-3.401,22.152-8.994c5.784-5.467,77.613-68.301,127.511-111.843V470.778L254.26,470.778z"/>
				<path d="M448.006,254.276l54.825-54.857c7.628-7.564,7.628-19.864,0-27.428
					c-7.532-7.564-19.864-7.564-27.397,0l-54.857,54.857l-54.92-54.857c-7.532-7.564-19.864-7.564-27.397,0
					c-7.564,7.564-7.564,19.864,0,27.428l54.888,54.857l-54.888,54.888c-7.564,7.532-7.564,19.864,0,27.396
					c7.532,7.564,19.864,7.564,27.396,0l54.92-54.857l54.857,54.857c7.532,7.564,19.864,7.564,27.397,0
					c7.564-7.532,7.564-19.864,0-27.396L448.006,254.276z"/>
			</g>
		</g>
	</g>
</g>
<g>
</g>
<g>
</g>
<g>
</g>
<g>
</g>
<g>
</g>
<g>
</g>
<g>
</g>
<g>
</g>
<g>
</g>
<g>
</g>
<g>
</g>
<g>
</g>
<g>
</g>
<g>
</g>
<g>
</g>
</svg>
