<?xml version="1.0" encoding="iso-8859-1"?>
<!-- Generator: Adobe Illustrator 19.0.0, SVG Export Plug-In . SVG Version: 6.00 Build 0)  -->
<svg version="1.1" id="Capa_1" xmlns="http://www.w3.org/2000/svg" xmlns:xlink="http://www.w3.org/1999/xlink" x="0px" y="0px"
	 viewBox="0 0 508.528 508.528" style="enable-background:new 0 0 508.528 508.528;" xml:space="preserve">
<g>
	<g>
		<g>
			<path d="M263.54,0.116c-5.784-0.54-12.554,0.858-20.531,5.689c0,0-132.533,115.625-138.317,121.314H31.782
				C14.239,127.15,0,141.389,0,158.933v194.731c0,17.607,14.239,31.782,31.782,31.782h72.941
				c5.784,5.753,138.317,117.277,138.317,117.277c7.977,4.799,14.747,6.229,20.531,5.689c11.76-1.112,20.023-10.965,22.534-21.358
				c0.095-1.017,0.095-464.533-0.064-465.55C283.563,11.081,275.268,1.228,263.54,0.116z"/>
			<path d="M447.974,254.28l54.857-54.857c7.596-7.564,7.596-19.864,0-27.428
				c-7.564-7.564-19.864-7.564-27.428,0l-54.857,54.888l-54.888-54.888c-7.532-7.564-19.864-7.564-27.397,0
				c-7.564,7.564-7.564,19.864,0,27.428l54.857,54.857l-54.857,54.888c-7.564,7.532-7.564,19.864,0,27.396
				c7.532,7.564,19.864,7.564,27.396,0l54.888-54.857l54.857,54.857c7.564,7.564,19.864,7.564,27.428,0
				c7.564-7.532,7.564-19.864,0-27.396L447.974,254.28z"/>
		</g>
	</g>
</g>
<g>
</g>
<g>
</g>
<g>
</g>
<g>
</g>
<g>
</g>
<g>
</g>
<g>
</g>
<g>
</g>
<g>
</g>
<g>
</g>
<g>
</g>
<g>
</g>
<g>
</g>
<g>
</g>
<g>
</g>
</svg>
