<?xml version="1.0" encoding="iso-8859-1"?>
<!-- Generator: Adobe Illustrator 19.0.0, SVG Export Plug-In . SVG Version: 6.00 Build 0)  -->
<svg version="1.1" id="Capa_1" xmlns="http://www.w3.org/2000/svg" xmlns:xlink="http://www.w3.org/1999/xlink" x="0px" y="0px"
	 viewBox="0 0 508.52 508.52" style="enable-background:new 0 0 508.52 508.52;" xml:space="preserve">
<g>
	<g>
		<g>
			<path d="M254.26,0C113.845,0,0,113.845,0,254.26s113.845,254.26,254.26,254.26
				s254.26-113.845,254.26-254.26C508.52,113.813,394.675,0,254.26,0z M263.286,126.876c2.733-6.198,6.42-11.664,11.092-16.336
				c4.704-4.704,10.107-8.391,16.336-11.124c6.229-2.733,12.967-4.068,20.214-4.068c7.278,0,13.984,1.335,20.182,4.068
				c6.166,2.702,11.632,6.42,16.304,11.124c4.704,4.672,8.454,10.139,11.124,16.336c2.797,6.198,4.163,12.904,4.163,20.182
				c0,7.278-1.367,13.984-4.163,20.182c-2.67,6.198-6.357,11.632-11.124,16.336c-4.64,4.672-10.107,8.391-16.304,11.124
				c-6.166,2.702-12.872,4.068-20.182,4.068c-7.246,0-13.984-1.367-20.214-4.068c-6.166-2.733-11.601-6.42-16.336-11.124
				c-4.64-4.704-8.359-10.139-11.092-16.336c-2.733-6.198-4.132-12.935-4.132-20.182
				C259.154,139.779,260.553,133.073,263.286,126.876z M182.781,118.676c7.723-7.691,17.004-11.537,27.873-11.537
				c11.187,0,20.659,3.846,28.35,11.537c7.723,7.723,11.569,17.035,11.569,27.937c0,11.187-3.877,20.627-11.601,28.35
				c-7.66,7.691-17.131,11.537-28.318,11.537c-10.838,0-20.15-3.846-27.873-11.569c-7.723-7.723-11.601-17.163-11.601-28.35
				C171.212,135.711,175.058,126.399,182.781,118.676z M113.4,125.954c5.88-5.912,13.063-8.867,21.517-8.867
				c8.486,0,15.573,2.956,21.326,8.867c5.721,5.88,8.581,12.904,8.581,21.072c0,8.486-2.892,15.637-8.581,21.549
				c-5.753,5.912-12.84,8.867-21.326,8.867c-8.454,0-15.637-2.956-21.517-8.836c-5.912-5.912-8.867-13.094-8.867-21.549
				C104.533,138.889,107.488,131.834,113.4,125.954z M381.39,413.172H241.706v-63.565h-87.497v-63.565H101.99V228.23
				c0-10.266-0.254-18.974,6.865-26.062c7.087-7.087,15.796-10.647,26.062-10.647c8.772,0,16.368,2.638,22.693,7.946
				c6.356,5.308,10.552,11.855,12.713,19.737c5.117-6.039,11.187-10.711,18.116-14.08c6.96-3.305,14.366-4.99,22.216-4.99
				c12.395,0,23.201,3.719,32.45,11.124c9.217,7.405,15.351,16.718,18.37,27.873c6.356-6.039,13.762-10.901,22.248-14.493
				c8.486-3.623,17.544-5.435,27.206-5.435s18.847,1.812,27.428,5.435c8.613,3.623,16.082,8.613,22.47,14.97
				c6.293,6.356,11.346,13.825,15.16,22.438c3.814,8.613,5.403,17.735,5.403,27.397V413.172L381.39,413.172z"/>
		</g>
	</g>
</g>
<g>
</g>
<g>
</g>
<g>
</g>
<g>
</g>
<g>
</g>
<g>
</g>
<g>
</g>
<g>
</g>
<g>
</g>
<g>
</g>
<g>
</g>
<g>
</g>
<g>
</g>
<g>
</g>
<g>
</g>
</svg>
