<?xml version="1.0" encoding="iso-8859-1"?>
<!-- Generator: Adobe Illustrator 19.0.0, SVG Export Plug-In . SVG Version: 6.00 Build 0)  -->
<svg version="1.1" id="Capa_1" xmlns="http://www.w3.org/2000/svg" xmlns:xlink="http://www.w3.org/1999/xlink" x="0px" y="0px"
	 viewBox="0 0 508.52 508.52" style="enable-background:new 0 0 508.52 508.52;" xml:space="preserve">
<g>
	<g>
		<g>
			<g>
				<path d="M204.616,145.85c17.894,0,33.086-6.166,45.385-18.497c12.332-12.332,18.529-27.46,18.529-45.354
					c0-17.417-6.198-32.323-18.529-44.654c-12.3-12.3-27.492-18.466-45.385-18.466c-17.353,0-32.259,6.166-44.591,18.466
					c-12.332,12.363-18.529,27.238-18.529,44.654c0,17.894,6.198,33.022,18.529,45.354
					C172.389,139.684,187.263,145.85,204.616,145.85z"/>
				<path d="M306.638,141.146c7.469,7.501,16.177,13.412,26.093,17.766c9.948,4.322,20.69,6.515,32.355,6.515
					c11.601,0,22.343-2.193,32.259-6.515c9.948-4.386,18.593-10.266,26.125-17.766c7.437-7.501,13.412-16.209,17.798-26.125
					c4.354-9.916,6.547-20.659,6.547-32.323c0-11.601-2.129-22.343-6.547-32.291c-4.322-9.916-10.297-18.625-17.798-26.125
					s-16.209-13.444-26.125-17.766C387.493,2.161,376.687,0,365.086,0c-11.601,0-22.407,2.161-32.355,6.515
					c-9.916,4.322-18.625,10.266-26.093,17.766c-7.532,7.532-13.412,16.241-17.798,26.157c-4.386,9.916-6.547,20.659-6.547,32.291
					s2.161,22.375,6.547,32.323C293.226,124.937,299.106,133.645,306.638,141.146z"/>
				<path d="M83.43,131.357c13.571,0,24.917-4.704,34.134-14.143c9.185-9.471,13.762-20.945,13.762-34.516
					c0-13.063-4.608-24.314-13.762-33.721c-9.217-9.439-20.563-14.175-34.134-14.175c-13.508,0-25.045,4.736-34.42,14.175
					c-9.471,9.408-14.175,20.659-14.175,33.721c0,13.571,4.736,25.045,14.175,34.484C58.417,126.621,69.922,131.357,83.43,131.357z"
					/>
				<path d="M469.174,266.687c-6.007-13.794-14.08-25.776-24.314-35.914
					c-10.107-10.17-22.121-18.148-35.882-23.964c-13.889-5.816-28.477-8.708-43.955-8.708c-15.51,0-30.003,2.892-43.51,8.708
					c-13.571,5.816-25.362,13.571-35.596,23.233c-4.831-17.894-14.652-32.736-29.399-44.623
					c-14.779-11.855-32.069-17.798-51.933-17.798c-12.586,0-24.409,2.67-35.565,7.977c-11.06,5.371-20.786,12.84-28.954,22.502
					c-3.464-12.554-10.17-23.074-20.341-31.56c-10.139-8.486-22.248-12.681-36.327-12.681c-16.432,0-30.352,5.689-41.699,17.035
					c-11.378,11.346-10.965,25.299-10.965,41.73v101.736h83.556v83.302h140.002V508.52h223.494V310.547
					C477.819,295.1,475.212,280.449,469.174,266.687z"/>
			</g>
		</g>
	</g>
</g>
<g>
</g>
<g>
</g>
<g>
</g>
<g>
</g>
<g>
</g>
<g>
</g>
<g>
</g>
<g>
</g>
<g>
</g>
<g>
</g>
<g>
</g>
<g>
</g>
<g>
</g>
<g>
</g>
<g>
</g>
</svg>
