<?xml version="1.0" encoding="iso-8859-1"?>
<!-- Generator: Adobe Illustrator 19.0.0, SVG Export Plug-In . SVG Version: 6.00 Build 0)  -->
<svg version="1.1" id="Capa_1" xmlns="http://www.w3.org/2000/svg" xmlns:xlink="http://www.w3.org/1999/xlink" x="0px" y="0px"
	 viewBox="0 0 508.52 508.52" style="enable-background:new 0 0 508.52 508.52;" xml:space="preserve">
<g>
	<g>
		<g>
			<g>
				<path d="M374.229,420.196c-6.134-6.134-16.273-6.134-22.47,0l-33.912,33.975V174.804
					c0-8.772-7.183-15.891-15.891-15.891c-8.74,0-15.891,7.119-15.891,15.891v279.718l-36.613-36.613
					c-6.198-6.198-16.273-6.198-22.47,0c-6.198,6.198-6.198,16.273,0,22.47l63.565,63.501c3.115,3.178,7.246,4.672,11.251,4.64
					c4.1,0,8.168-1.494,11.251-4.64l61.213-61.213C380.49,436.437,380.49,426.362,374.229,420.196z"/>
				<path d="M222.468,54.03l36.613,36.613c6.198,6.198,16.304,6.198,22.502,0
					c6.229-6.198,6.198-16.273,0-22.47L218.018,4.64C214.903,1.526,210.835,0,206.735,0s-8.168,1.526-11.283,4.64L134.24,65.853
					c-6.198,6.198-6.198,16.273,0,22.47c6.198,6.198,16.273,6.198,22.47,0l33.975-33.975v279.368
					c0,8.804,7.119,15.891,15.891,15.891c8.772,0,15.891-7.087,15.891-15.891V54.03z"/>
			</g>
		</g>
	</g>
</g>
<g>
</g>
<g>
</g>
<g>
</g>
<g>
</g>
<g>
</g>
<g>
</g>
<g>
</g>
<g>
</g>
<g>
</g>
<g>
</g>
<g>
</g>
<g>
</g>
<g>
</g>
<g>
</g>
<g>
</g>
</svg>
