<?xml version="1.0" encoding="iso-8859-1"?>
<!-- Generator: Adobe Illustrator 19.0.0, SVG Export Plug-In . SVG Version: 6.00 Build 0)  -->
<svg version="1.1" id="Capa_1" xmlns="http://www.w3.org/2000/svg" xmlns:xlink="http://www.w3.org/1999/xlink" x="0px" y="0px"
	 viewBox="0 0 508.52 508.52" style="enable-background:new 0 0 508.52 508.52;" xml:space="preserve">
<g>
	<g>
		<g>
			<g>
				<path d="M476.737,127.13h-63.565c0,0-18.37,0-31.782-31.782c-6.833-16.177-14.239-31.782-31.782-31.782
					h-127.13c-17.544,0-25.172,15.51-31.782,31.782c-12.904,31.782-31.782,31.782-31.782,31.782H127.13
					c0-17.544-14.239-31.782-31.782-31.782H63.565c-17.544,0-31.782,14.239-31.782,31.782C14.239,127.13,0,141.368,0,158.912v254.26
					c0,17.544,14.239,31.783,31.782,31.783h444.955c17.544,0,31.782-14.239,31.782-31.783v-254.26
					C508.52,141.368,494.281,127.13,476.737,127.13z M476.737,413.172H31.782v-127.13h144.61
					c7.787,53.808,53.649,95.347,109.65,95.347c57.367,0,104.024-43.574,110.031-99.32h80.664V413.172z M206.586,270.151
					c0-43.828,35.66-79.456,79.456-79.456s79.456,35.628,79.456,79.456c0,43.796-35.66,79.456-79.456,79.456
					S206.586,313.947,206.586,270.151z M476.737,254.26h-81.045c-7.787-53.84-53.649-95.347-109.65-95.347
					s-101.863,41.508-109.65,95.347H31.782v-95.347h127.13c18.561,0,45.767-13.508,61.213-51.615
					c2.638-6.452,4.418-10.011,5.594-11.95h120.519c2.034,3.496,4.767,9.948,5.88,12.363c20.563,48.723,54.475,51.202,61.054,51.202
					h63.565V254.26L476.737,254.26z"/>
				<circle style="fill:#000000;" cx="79.456" cy="206.904" r="15.891"/>
			</g>
		</g>
	</g>
</g>
<g>
</g>
<g>
</g>
<g>
</g>
<g>
</g>
<g>
</g>
<g>
</g>
<g>
</g>
<g>
</g>
<g>
</g>
<g>
</g>
<g>
</g>
<g>
</g>
<g>
</g>
<g>
</g>
<g>
</g>
</svg>
