<?xml version="1.0" encoding="iso-8859-1"?>
<!-- Generator: Adobe Illustrator 19.0.0, SVG Export Plug-In . SVG Version: 6.00 Build 0)  -->
<svg version="1.1" id="Capa_1" xmlns="http://www.w3.org/2000/svg" xmlns:xlink="http://www.w3.org/1999/xlink" x="0px" y="0px"
	 viewBox="0 0 508.52 508.52" style="enable-background:new 0 0 508.52 508.52;" xml:space="preserve">
<g>
	<g>
		<g>
			<g>
				<path d="M444.955,190.695H126.971l0.159-13.476c0-85.622,52.886-145.437,128.655-145.437
					c55.46,0,104.882,31.878,129.037,83.207c3.719,7.946,13.158,11.346,21.104,7.596c7.946-3.719,11.346-13.19,7.628-21.135
					C384.123,38.902,323.736,0,255.785,0C162.822,0,95.347,74.53,95.347,177.028l-0.159,13.666H63.565
					c-17.544,0-31.782,14.239-31.782,31.782v254.26c0,17.544,14.239,31.782,31.782,31.782h381.39
					c17.544,0,31.782-14.239,31.782-31.782v-254.26C476.737,204.933,462.499,190.695,444.955,190.695z M444.955,476.737H63.565
					v-254.26h381.39V476.737z"/>
				<path d="M254.26,413.172c35.12,0,63.565-28.445,63.565-63.565s-28.445-63.565-63.565-63.565
					s-63.565,28.445-63.565,63.565S219.14,413.172,254.26,413.172z M254.26,317.825c17.512,0,31.782,14.27,31.782,31.783
					c0,17.512-14.27,31.782-31.782,31.782s-31.782-14.27-31.782-31.782C222.477,332.095,236.748,317.825,254.26,317.825z"/>
			</g>
		</g>
	</g>
</g>
<g>
</g>
<g>
</g>
<g>
</g>
<g>
</g>
<g>
</g>
<g>
</g>
<g>
</g>
<g>
</g>
<g>
</g>
<g>
</g>
<g>
</g>
<g>
</g>
<g>
</g>
<g>
</g>
<g>
</g>
</svg>
