<?xml version="1.0" encoding="iso-8859-1"?>
<!-- Generator: Adobe Illustrator 19.0.0, SVG Export Plug-In . SVG Version: 6.00 Build 0)  -->
<svg version="1.1" id="Capa_1" xmlns="http://www.w3.org/2000/svg" xmlns:xlink="http://www.w3.org/1999/xlink" x="0px" y="0px"
	 viewBox="0 0 508.52 508.52" style="enable-background:new 0 0 508.52 508.52;" xml:space="preserve">
<g>
	<g>
		<g>
			<path d="M254.26,0C113.845,0,0,113.845,0,254.26s113.845,254.26,254.26,254.26
				s254.26-113.845,254.26-254.26S394.675,0,254.26,0z M222.477,317.825c0,17.544-14.239,31.783-31.782,31.783
				s-31.782-14.239-31.782-31.783v-127.13c0-17.544,14.239-31.782,31.782-31.782s31.782,14.239,31.782,31.782V317.825z
				 M349.607,317.825c0,17.544-14.239,31.783-31.783,31.783c-17.544,0-31.782-14.239-31.782-31.783v-127.13
				c0-17.544,14.239-31.782,31.782-31.782c17.544,0,31.783,14.239,31.783,31.782V317.825z"/>
		</g>
	</g>
</g>
<g>
</g>
<g>
</g>
<g>
</g>
<g>
</g>
<g>
</g>
<g>
</g>
<g>
</g>
<g>
</g>
<g>
</g>
<g>
</g>
<g>
</g>
<g>
</g>
<g>
</g>
<g>
</g>
<g>
</g>
</svg>
