<?xml version="1.0" encoding="iso-8859-1"?>
<!-- Generator: Adobe Illustrator 19.0.0, SVG Export Plug-In . SVG Version: 6.00 Build 0)  -->
<svg version="1.1" id="Capa_1" xmlns="http://www.w3.org/2000/svg" xmlns:xlink="http://www.w3.org/1999/xlink" x="0px" y="0px"
	 viewBox="0 0 508.52 508.52" style="enable-background:new 0 0 508.52 508.52;" xml:space="preserve">
<g>
	<g>
		<g>
			<g>
				<path d="M476.737,0H31.782C14.239,0,0,14.239,0,31.782v444.955c0,17.544,14.239,31.782,31.782,31.782
					h444.955c17.544,0,31.782-14.239,31.782-31.782V31.782C508.52,14.239,494.281,0,476.737,0z M476.737,476.737H31.782V31.782
					h444.955V476.737z"/>
				<polygon style="fill:#000000;" points="327.709,384.854 413.172,413.172 384.854,327.709 221.492,164.315 164.315,221.492 				
					"/>
				<path d="M130.658,187.834l57.177-57.177l-42.08-42.08c-15.796-15.796-41.381-15.796-57.177,0
					s-15.796,41.381,0,57.177L130.658,187.834z"/>
			</g>
		</g>
	</g>
</g>
<g>
</g>
<g>
</g>
<g>
</g>
<g>
</g>
<g>
</g>
<g>
</g>
<g>
</g>
<g>
</g>
<g>
</g>
<g>
</g>
<g>
</g>
<g>
</g>
<g>
</g>
<g>
</g>
<g>
</g>
</svg>
