<?xml version="1.0" encoding="iso-8859-1"?>
<!-- Generator: Adobe Illustrator 19.0.0, SVG Export Plug-In . SVG Version: 6.00 Build 0)  -->
<svg version="1.1" id="Capa_1" xmlns="http://www.w3.org/2000/svg" xmlns:xlink="http://www.w3.org/1999/xlink" x="0px" y="0px"
	 viewBox="0 0 508.52 508.52" style="enable-background:new 0 0 508.52 508.52;" xml:space="preserve">
<g>
	<g>
		<g>
			<path d="M476.737,0H31.782C14.239,0,0,14.239,0,31.782v444.955c0,17.544,14.239,31.782,31.782,31.782
				h444.955c17.544,0,31.782-14.239,31.782-31.782V31.782C508.52,14.239,494.281,0,476.737,0z M88.578,145.754
				c-15.796-15.796-15.796-41.381,0-57.177s41.381-15.796,57.177,0l42.08,42.08l-57.177,57.177L88.578,145.754z M327.709,384.854
				L164.315,221.46l57.177-57.177l163.362,163.394l28.318,85.495L327.709,384.854z"/>
		</g>
	</g>
</g>
<g>
</g>
<g>
</g>
<g>
</g>
<g>
</g>
<g>
</g>
<g>
</g>
<g>
</g>
<g>
</g>
<g>
</g>
<g>
</g>
<g>
</g>
<g>
</g>
<g>
</g>
<g>
</g>
<g>
</g>
</svg>
