<?xml version="1.0" encoding="iso-8859-1"?>
<!-- Generator: Adobe Illustrator 19.0.0, SVG Export Plug-In . SVG Version: 6.00 Build 0)  -->
<svg version="1.1" id="Capa_1" xmlns="http://www.w3.org/2000/svg" xmlns:xlink="http://www.w3.org/1999/xlink" x="0px" y="0px"
	 viewBox="0 0 508.52 508.52" style="enable-background:new 0 0 508.52 508.52;" xml:space="preserve">
<g>
	<g>
		<path d="M254.26,0C113.845,0,0,113.845,0,254.26s113.845,254.26,254.26,254.26
			s254.26-113.845,254.26-254.26C508.52,113.813,394.675,0,254.26,0z M254.26,63.565c25.299,0,49.422,4.926,71.511,13.857V210.4
			L190.027,74.657C210.082,67.506,231.726,63.565,254.26,63.565z M69.127,300.122c-3.623-14.652-5.562-30.034-5.562-45.862
			c0-72.051,39.919-134.726,98.875-167.176l59.878,59.91L69.127,300.122z M158.912,419.433
			c-35.247-20.373-63.342-51.71-79.647-89.372l79.647-79.615V419.433z M254.26,444.955c-25.299,0-49.422-4.895-71.511-13.921
			v-81.427h236.684C386.443,406.593,324.849,444.955,254.26,444.955z M431.034,325.77h-81.427V89.086
			c56.986,32.99,95.347,94.585,95.347,165.174C444.955,279.559,440.06,303.682,431.034,325.77z"/>
	</g>
</g>
<g>
</g>
<g>
</g>
<g>
</g>
<g>
</g>
<g>
</g>
<g>
</g>
<g>
</g>
<g>
</g>
<g>
</g>
<g>
</g>
<g>
</g>
<g>
</g>
<g>
</g>
<g>
</g>
<g>
</g>
</svg>
