<?xml version="1.0" encoding="iso-8859-1"?>
<!-- Generator: Adobe Illustrator 19.0.0, SVG Export Plug-In . SVG Version: 6.00 Build 0)  -->
<svg version="1.1" id="Capa_1" xmlns="http://www.w3.org/2000/svg" xmlns:xlink="http://www.w3.org/1999/xlink" x="0px" y="0px"
	 viewBox="0 0 508.52 508.52" style="enable-background:new 0 0 508.52 508.52;" xml:space="preserve">
<g>
	<g>
		<g>
			<path d="M413.172,0H95.347C42.684,0,0,42.684,0,95.347v317.825c0,52.664,42.684,95.347,95.347,95.347
				h317.825c52.664,0,95.347-42.684,95.347-95.347V95.347C508.52,42.684,465.836,0,413.172,0z M254.26,63.565
				c25.299,0,49.422,4.926,71.511,13.857V210.4L190.027,74.657C210.082,67.506,231.726,63.565,254.26,63.565z M63.565,254.26
				c0-72.051,39.919-134.726,98.875-167.176l59.878,59.91L69.127,300.122C65.504,285.47,63.565,270.088,63.565,254.26z
				 M158.912,419.433c-35.247-20.373-63.342-51.71-79.647-89.404l79.647-79.583V419.433z M254.26,444.955
				c-25.299,0-49.422-4.895-71.511-13.921v-81.427h236.684C386.443,406.593,324.849,444.955,254.26,444.955z M431.066,325.77
				h-81.458V89.086c56.986,32.99,95.347,94.585,95.347,165.174C444.955,279.559,440.06,303.682,431.066,325.77z"/>
		</g>
	</g>
</g>
<g>
</g>
<g>
</g>
<g>
</g>
<g>
</g>
<g>
</g>
<g>
</g>
<g>
</g>
<g>
</g>
<g>
</g>
<g>
</g>
<g>
</g>
<g>
</g>
<g>
</g>
<g>
</g>
<g>
</g>
</svg>
