<?xml version="1.0" encoding="iso-8859-1"?>
<!-- Generator: Adobe Illustrator 19.0.0, SVG Export Plug-In . SVG Version: 6.00 Build 0)  -->
<svg version="1.1" id="Capa_1" xmlns="http://www.w3.org/2000/svg" xmlns:xlink="http://www.w3.org/1999/xlink" x="0px" y="0px"
	 viewBox="0 0 508.52 508.52" style="enable-background:new 0 0 508.52 508.52;" xml:space="preserve">
<g>
	<g>
		<g>
			<g>
				<path d="M127.13,474.512V249.175L20.913,355.392C42.684,405.544,80.155,447.307,127.13,474.512z"/>
				<path d="M158.912,490.022c29.431,11.918,61.626,18.497,95.347,18.497
					c94.108,0,176.266-51.138,220.253-127.13h-315.6V490.022z"/>
				<path d="M131.834,31.369C53.236,74.625,0,158.213,0,254.26c0,21.104,2.574,41.603,7.437,61.213
					l204.234-204.234L131.834,31.369z"/>
				<path d="M349.607,18.497C320.145,6.579,287.981,0,254.26,0c-30.066,0-58.893,5.244-85.654,14.811
					L349.607,195.78V18.497z"/>
				<path d="M381.39,34.039v315.568h108.633c11.918-29.462,18.497-61.626,18.497-95.347
					C508.52,160.152,457.382,77.994,381.39,34.039z"/>
			</g>
		</g>
	</g>
</g>
<g>
</g>
<g>
</g>
<g>
</g>
<g>
</g>
<g>
</g>
<g>
</g>
<g>
</g>
<g>
</g>
<g>
</g>
<g>
</g>
<g>
</g>
<g>
</g>
<g>
</g>
<g>
</g>
<g>
</g>
</svg>
