<?xml version="1.0" encoding="iso-8859-1"?>
<!-- Generator: Adobe Illustrator 19.0.0, SVG Export Plug-In . SVG Version: 6.00 Build 0)  -->
<svg version="1.1" id="Capa_1" xmlns="http://www.w3.org/2000/svg" xmlns:xlink="http://www.w3.org/1999/xlink" x="0px" y="0px"
	 viewBox="0 0 486.392 486.392" style="enable-background:new 0 0 486.392 486.392;" xml:space="preserve">
<g>
	<g>
		<g>
			<g>
				<path d="M243.196,0C108.891,0,0,108.891,0,243.196s108.891,243.196,243.196,243.196
					s243.196-108.891,243.196-243.196C486.392,108.861,377.501,0,243.196,0z M392.609,297.641
					c-1.642,20.246-17.024,46.086-38.516,49.825c-68.855,5.35-150.447,4.682-221.764,0c-22.252-2.797-36.875-29.609-38.516-49.825
					c-3.466-42.498-3.466-66.696,0-109.195c1.642-20.216,16.629-46.876,38.516-49.308c70.496-5.928,152.545-4.651,221.764,0
					c24.745,0.912,36.875,26.417,38.516,46.663C396.014,228.3,396.014,255.143,392.609,297.641z"/>
				<polygon style="fill:#000000;" points="212.796,303.995 303.995,243.196 212.796,182.397 				"/>
			</g>
		</g>
	</g>
	<g>
	</g>
	<g>
	</g>
	<g>
	</g>
	<g>
	</g>
	<g>
	</g>
	<g>
	</g>
	<g>
	</g>
	<g>
	</g>
	<g>
	</g>
	<g>
	</g>
	<g>
	</g>
	<g>
	</g>
	<g>
	</g>
	<g>
	</g>
	<g>
	</g>
</g>
<g>
</g>
<g>
</g>
<g>
</g>
<g>
</g>
<g>
</g>
<g>
</g>
<g>
</g>
<g>
</g>
<g>
</g>
<g>
</g>
<g>
</g>
<g>
</g>
<g>
</g>
<g>
</g>
<g>
</g>
</svg>
