<?xml version="1.0" encoding="iso-8859-1"?>
<!-- Generator: Adobe Illustrator 19.0.0, SVG Export Plug-In . SVG Version: 6.00 Build 0)  -->
<svg version="1.1" id="Capa_1" xmlns="http://www.w3.org/2000/svg" xmlns:xlink="http://www.w3.org/1999/xlink" x="0px" y="0px"
	 viewBox="0 0 286.042 286.042" style="enable-background:new 0 0 286.042 286.042;" xml:space="preserve">
<g>
	<g>
		<g>
			<g>
				<path d="M254.26,0H31.782C14.239,0,0,14.239,0,31.782V254.26c0,17.544,14.239,31.782,31.782,31.782
					H254.26c17.544,0,31.782-14.239,31.782-31.782V31.782C286.042,14.239,271.804,0,254.26,0z M254.26,254.26H31.782V31.782H254.26
					V254.26z"/>
				<path d="M79.456,158.912h47.674v47.674c0,8.74,7.119,15.891,15.891,15.891
					c8.74,0,15.891-7.151,15.891-15.891v-47.674h47.674c8.74,0,15.891-7.151,15.891-15.891c0-8.772-7.151-15.891-15.891-15.891
					h-47.674V79.456c0-8.772-7.151-15.891-15.891-15.891c-8.772,0-15.891,7.119-15.891,15.891v47.674H79.456
					c-8.772,0-15.891,7.119-15.891,15.891C63.565,151.761,70.684,158.912,79.456,158.912z"/>
			</g>
		</g>
	</g>
</g>
<g>
</g>
<g>
</g>
<g>
</g>
<g>
</g>
<g>
</g>
<g>
</g>
<g>
</g>
<g>
</g>
<g>
</g>
<g>
</g>
<g>
</g>
<g>
</g>
<g>
</g>
<g>
</g>
<g>
</g>
</svg>
