<?xml version="1.0" encoding="iso-8859-1"?>
<!-- Generator: Adobe Illustrator 19.0.0, SVG Export Plug-In . SVG Version: 6.00 Build 0)  -->
<svg version="1.1" id="Capa_1" xmlns="http://www.w3.org/2000/svg" xmlns:xlink="http://www.w3.org/1999/xlink" x="0px" y="0px"
	 viewBox="0 0 476.737 476.737" style="enable-background:new 0 0 476.737 476.737;" xml:space="preserve">
<g>
	<g>
		<g>
			<path d="M238.369,0C106.726,0,0,106.726,0,238.369c0,131.675,106.726,238.369,238.369,238.369
				c131.675,0,238.369-106.694,238.369-238.369C476.737,106.726,370.043,0,238.369,0z M238.369,444.955
				c-113.908,0-206.586-92.678-206.586-206.586S124.46,31.782,238.369,31.782s206.586,92.678,206.586,206.586
				S352.277,444.955,238.369,444.955z"/>
			<path d="M365.499,222.477H254.26V111.239c0-8.772-7.151-15.891-15.891-15.891
				c-8.772,0-15.891,7.119-15.891,15.891v111.239H111.239c-8.772,0-15.891,7.119-15.891,15.891c0,8.74,7.119,15.891,15.891,15.891
				h111.239v111.239c0,8.74,7.119,15.891,15.891,15.891c8.74,0,15.891-7.151,15.891-15.891V254.26h111.239
				c8.74,0,15.891-7.151,15.891-15.891C381.39,229.597,374.239,222.477,365.499,222.477z"/>
		</g>
	</g>
</g>
<g>
</g>
<g>
</g>
<g>
</g>
<g>
</g>
<g>
</g>
<g>
</g>
<g>
</g>
<g>
</g>
<g>
</g>
<g>
</g>
<g>
</g>
<g>
</g>
<g>
</g>
<g>
</g>
<g>
</g>
</svg>
