<?xml version="1.0" encoding="iso-8859-1"?>
<!-- Generator: Adobe Illustrator 18.1.1, SVG Export Plug-In . SVG Version: 6.00 Build 0)  -->
<svg version="1.1" id="Capa_1" xmlns="http://www.w3.org/2000/svg" xmlns:xlink="http://www.w3.org/1999/xlink" x="0px" y="0px"
	 viewBox="0 0 15 15" style="enable-background:new 0 0 15 15;" xml:space="preserve">
<g>
	<g>
		<path d="M7.5,0C3.358,0,0,3.358,0,7.5C0,11.643,3.358,15,7.5,15c4.143,0,7.5-3.357,7.5-7.5
			C15,3.358,11.643,0,7.5,0z M9,10.545c0,0.123-0.064,0.232-0.169,0.313l-0.004,0.004c-0.218,0.171-0.569,0.171-0.786,0L4.183,7.81
			l-0.02-0.012c-0.217-0.17-0.217-0.447,0-0.617L8.04,4.119c0.217-0.17,0.569-0.17,0.786,0L8.824,4.121C8.931,4.2,9,4.311,9,4.436
			V10.545z"/>
	</g>
</g>
<g>
</g>
<g>
</g>
<g>
</g>
<g>
</g>
<g>
</g>
<g>
</g>
<g>
</g>
<g>
</g>
<g>
</g>
<g>
</g>
<g>
</g>
<g>
</g>
<g>
</g>
<g>
</g>
<g>
</g>
</svg>
