<?xml version="1.0" encoding="iso-8859-1"?>
<!-- Generator: Adobe Illustrator 19.0.0, SVG Export Plug-In . SVG Version: 6.00 Build 0)  -->
<svg version="1.1" id="Capa_1" xmlns="http://www.w3.org/2000/svg" xmlns:xlink="http://www.w3.org/1999/xlink" x="0px" y="0px"
	 viewBox="0 0 476.801 476.801" style="enable-background:new 0 0 476.801 476.801;" xml:space="preserve">
<g>
	<g>
		<g>
			<path d="M461.807,0.127H260.402c-4.831,0.191-15.923,7.818-17.353,9.217L9.32,243.072
				c-12.427,12.395-12.427,32.45,0,44.877l179.444,179.444c6.229,6.134,14.334,9.28,22.438,9.28s16.241-3.146,22.438-9.28
				l233.728-233.728c1.43-1.43,9.408-11.251,9.408-17.353V15.86C477.254,7.024,470.548,0.127,461.807,0.127z M445.026,210.4
				l-1.398,2.098L211.234,444.923L31.822,265.543L264.247,33.117l2.129-1.398h178.649L445.026,210.4L445.026,210.4z M381.461,79.424
				c0-8.772,7.119-15.891,15.891-15.891c8.74,0,15.891,7.119,15.891,15.891s-7.151,15.891-15.891,15.891
				C388.581,95.316,381.461,88.196,381.461,79.424z"/>
		</g>
	</g>
</g>
<g>
</g>
<g>
</g>
<g>
</g>
<g>
</g>
<g>
</g>
<g>
</g>
<g>
</g>
<g>
</g>
<g>
</g>
<g>
</g>
<g>
</g>
<g>
</g>
<g>
</g>
<g>
</g>
<g>
</g>
</svg>
