<?xml version="1.0" encoding="iso-8859-1"?>
<!-- Generator: Adobe Illustrator 19.0.0, SVG Export Plug-In . SVG Version: 6.00 Build 0)  -->
<svg version="1.1" id="Capa_1" xmlns="http://www.w3.org/2000/svg" xmlns:xlink="http://www.w3.org/1999/xlink" x="0px" y="0px"
	 viewBox="0 0 508.52 508.52" style="enable-background:new 0 0 508.52 508.52;" xml:space="preserve">
<g>
	<g>
		<path d="M254.26,0C113.845,0,0,113.845,0,254.26s113.845,254.26,254.26,254.26
			s254.26-113.845,254.26-254.26S394.675,0,254.26,0z M254.26,444.955c-105.136,0-190.695-85.527-190.695-190.695
			c0-41.127,13.222-79.138,35.437-110.317l265.543,265.574C333.335,431.733,295.386,444.955,254.26,444.955z M409.517,364.577
			L143.943,99.002c31.179-22.216,69.19-35.437,110.317-35.437c105.168,0,190.695,85.558,190.695,190.695
			C444.955,295.386,431.733,333.398,409.517,364.577z"/>
	</g>
</g>
<g>
</g>
<g>
</g>
<g>
</g>
<g>
</g>
<g>
</g>
<g>
</g>
<g>
</g>
<g>
</g>
<g>
</g>
<g>
</g>
<g>
</g>
<g>
</g>
<g>
</g>
<g>
</g>
<g>
</g>
</svg>
