<?xml version="1.0" encoding="iso-8859-1"?>
<!-- Generator: Adobe Illustrator 19.0.0, SVG Export Plug-In . SVG Version: 6.00 Build 0)  -->
<svg version="1.1" id="Capa_1" xmlns="http://www.w3.org/2000/svg" xmlns:xlink="http://www.w3.org/1999/xlink" x="0px" y="0px"
	 viewBox="0 0 508.512 508.512" style="enable-background:new 0 0 508.512 508.512;" xml:space="preserve">
<g>
	<g>
		<g>
			<path d="M333.712,255.142V90.54c40.173-13.603,63.565-35.501,63.565-51.043
				c0-52.664-286.042-52.664-286.042,0c0,17.131,23.424,38.552,63.565,51.647v163.998c-40.141,10.202-63.565,29.049-63.565,54.952
				c0,24.377,61.34,37.344,127.162,39.092l-0.032,0.413v95.347c0,17.544,7.119,63.565,15.891,63.565
				c8.74,0,15.891-46.021,15.891-63.565v-95.347l-0.032-0.413c65.822-1.78,127.162-14.779,127.162-39.092
				C397.277,284.191,373.885,265.344,333.712,255.142z"/>
		</g>
	</g>
</g>
<g>
</g>
<g>
</g>
<g>
</g>
<g>
</g>
<g>
</g>
<g>
</g>
<g>
</g>
<g>
</g>
<g>
</g>
<g>
</g>
<g>
</g>
<g>
</g>
<g>
</g>
<g>
</g>
<g>
</g>
</svg>
