<?xml version="1.0" encoding="iso-8859-1"?>
<!-- Generator: Adobe Illustrator 19.0.0, SVG Export Plug-In . SVG Version: 6.00 Build 0)  -->
<svg version="1.1" id="Capa_1" xmlns="http://www.w3.org/2000/svg" xmlns:xlink="http://www.w3.org/1999/xlink" x="0px" y="0px"
	 viewBox="0 0 508.52 508.52" style="enable-background:new 0 0 508.52 508.52;" xml:space="preserve">
<g>
	<g>
		<g>
			<path d="M254.26,0C113.845,0,0,113.845,0,254.26s113.845,254.26,254.26,254.26
				s254.26-113.845,254.26-254.26S394.675,0,254.26,0z M254.26,446.353c-18.084,0-32.736-14.652-32.736-32.736
				c0-18.052,14.652-32.704,32.736-32.704c18.052,0,32.704,14.652,32.704,32.704C286.964,431.701,272.312,446.353,254.26,446.353z
				 M311.977,290.047c-13.349,7.342-25.935,21.866-25.935,27.778c0,17.544-14.239,31.783-31.782,31.783
				s-31.782-14.239-31.782-31.783c0-40.364,36.995-71.447,58.861-83.461c32.164-17.735,36.486-37.058,36.486-53.585
				c0-46.688-39.823-53.649-63.565-53.649c-30.607,0-63.565,20.087-63.565,64.232c0,17.544-14.239,31.782-31.782,31.782
				s-31.782-14.239-31.782-31.782c0-83.016,65.504-127.797,127.13-127.797c63.279,0,127.13,36.232,127.13,117.214
				C381.39,227.912,358.061,264.716,311.977,290.047z"/>
		</g>
	</g>
</g>
<g>
</g>
<g>
</g>
<g>
</g>
<g>
</g>
<g>
</g>
<g>
</g>
<g>
</g>
<g>
</g>
<g>
</g>
<g>
</g>
<g>
</g>
<g>
</g>
<g>
</g>
<g>
</g>
<g>
</g>
</svg>
