<?xml version="1.0" encoding="iso-8859-1"?>
<!-- Generator: Adobe Illustrator 19.0.0, SVG Export Plug-In . SVG Version: 6.00 Build 0)  -->
<svg version="1.1" id="Capa_1" xmlns="http://www.w3.org/2000/svg" xmlns:xlink="http://www.w3.org/1999/xlink" x="0px" y="0px"
	 viewBox="0 0 255.226 255.226" style="enable-background:new 0 0 255.226 255.226;" xml:space="preserve">
<g>
	<g>
		<g>
			<g>
				<path d="M76.532,27.975l-7.405-5.244l-0.254-0.191l-0.477-0.191l-5.403-2.574l0.159,0.381
					c-5.117-2.098-10.488-3.591-16.336-3.591C20.945,16.565,0,38.336,0,65.192s20.976,48.627,46.816,48.627
					c8.295,0,15.955-2.415,22.724-6.356c-2.32,25.998-15.415,63.915-63.406,102.594c-6.706,5.403-7.946,15.446-2.733,22.407
					c3.051,4.1,7.596,6.198,12.173,6.198c3.305,0,6.611-1.112,9.439-3.337c58.893-47.547,73.608-96.364,75.579-128.973
					c3.369-41.699-9.28-63.629-20.849-75.07L76.532,27.975z"/>
				<path d="M233.76,31.28l-3.242-3.305l-7.374-5.244l-0.254-0.191l-0.509-0.191l-5.403-2.574l0.159,0.381
					c-5.117-2.098-10.52-3.591-16.368-3.591c-25.839,0-46.752,21.771-46.752,48.627s20.913,48.627,46.816,48.627
					c8.295,0,15.955-2.415,22.724-6.356c-2.288,25.998-15.383,63.915-63.374,102.594c-6.738,5.403-7.946,15.446-2.733,22.407
					c3.051,4.1,7.596,6.198,12.173,6.198c3.305,0,6.611-1.112,9.439-3.337c58.925-47.547,73.608-96.364,75.611-128.973
					C258.042,64.652,245.393,42.722,233.76,31.28z"/>
			</g>
		</g>
	</g>
</g>
<g>
</g>
<g>
</g>
<g>
</g>
<g>
</g>
<g>
</g>
<g>
</g>
<g>
</g>
<g>
</g>
<g>
</g>
<g>
</g>
<g>
</g>
<g>
</g>
<g>
</g>
<g>
</g>
<g>
</g>
</svg>
