<?xml version="1.0" encoding="iso-8859-1"?>
<!-- Generator: Adobe Illustrator 19.0.0, SVG Export Plug-In . SVG Version: 6.00 Build 0)  -->
<svg version="1.1" id="Capa_1" xmlns="http://www.w3.org/2000/svg" xmlns:xlink="http://www.w3.org/1999/xlink" x="0px" y="0px"
	 viewBox="0 0 508.52 508.52" style="enable-background:new 0 0 508.52 508.52;" xml:space="preserve">
<g>
	<g>
		<g>
			<path d="M254.26,0C113.845,0,0,113.845,0,254.26s113.845,254.26,254.26,254.26
				s254.26-113.845,254.26-254.26S394.675,0,254.26,0z M227.721,249.651c-1.971,32.609-16.686,81.427-75.579,128.942
				c-2.829,2.225-6.134,3.337-9.439,3.337c-4.608,0-9.153-2.098-12.173-6.166c-5.212-6.992-4.005-17.035,2.733-22.438
				c47.96-38.679,61.086-76.564,63.406-102.562c-6.801,3.877-14.461,6.325-22.756,6.325c-25.871,0-46.816-21.771-46.816-48.627
				s20.976-48.627,46.816-48.627c5.848,0,11.219,1.526,16.336,3.591l-0.159-0.381l5.403,2.574l0.477,0.191l0.254,0.191l7.405,5.244
				l3.242,3.305C218.409,186.023,231.09,207.921,227.721,249.651z M381.835,249.62c-1.971,32.609-16.686,81.427-75.611,128.942
				c-2.829,2.257-6.134,3.369-9.439,3.369c-4.608,0-9.153-2.129-12.173-6.198c-5.212-7.024-4.005-17.035,2.733-22.438
				c47.96-38.711,61.086-76.564,63.406-102.562c-6.77,3.941-14.429,6.356-22.756,6.356c-25.839,0-46.816-21.771-46.816-48.627
				s20.913-48.627,46.816-48.627c5.88,0,11.251,1.526,16.368,3.591l-0.191-0.381l5.403,2.574l0.477,0.191l0.254,0.191l7.405,5.244
				l3.274,3.305C372.522,186.023,385.14,207.921,381.835,249.62z"/>
		</g>
	</g>
</g>
<g>
</g>
<g>
</g>
<g>
</g>
<g>
</g>
<g>
</g>
<g>
</g>
<g>
</g>
<g>
</g>
<g>
</g>
<g>
</g>
<g>
</g>
<g>
</g>
<g>
</g>
<g>
</g>
<g>
</g>
</svg>
