<?xml version="1.0" encoding="iso-8859-1"?>
<!-- Generator: Adobe Illustrator 19.0.0, SVG Export Plug-In . SVG Version: 6.00 Build 0)  -->
<svg version="1.1" id="Capa_1" xmlns="http://www.w3.org/2000/svg" xmlns:xlink="http://www.w3.org/1999/xlink" x="0px" y="0px"
	 viewBox="0 0 508.52 508.52" style="enable-background:new 0 0 508.52 508.52;" xml:space="preserve">
<g>
	<g>
		<g>
			<g>
				<path d="M254.26,0C113.845,0,0,113.845,0,254.26s113.845,254.26,254.26,254.26
					s254.26-113.845,254.26-254.26S394.675,0,254.26,0z M254.26,476.737c-122.68,0-222.477-99.829-222.477-222.477
					c0-122.68,99.797-222.477,222.477-222.477c122.649,0,222.477,99.797,222.477,222.477
					C476.737,376.908,376.908,476.737,254.26,476.737z"/>
				<path d="M203.63,171.244L196.225,166l-0.254-0.191l-0.477-0.191l-5.403-2.574l0.159,0.381
					c-5.117-2.098-10.488-3.591-16.336-3.591c-25.871,0-46.816,21.771-46.816,48.627s20.976,48.627,46.816,48.627
					c8.295,0,15.955-2.415,22.724-6.356c-2.32,25.998-15.415,63.915-63.406,102.562c-6.706,5.435-7.946,15.478-2.733,22.438
					c3.051,4.068,7.596,6.198,12.173,6.198c3.305,0,6.611-1.112,9.439-3.369c58.893-47.515,73.608-96.333,75.579-128.942
					c3.369-41.699-9.28-63.629-20.849-75.07L203.63,171.244z"/>
				<path d="M357.712,171.244L350.307,166l-0.254-0.191l-0.477-0.191l-5.403-2.574l0.159,0.381
					c-5.117-2.098-10.52-3.591-16.336-3.591c-25.871,0-46.816,21.771-46.816,48.627s20.881,48.627,46.816,48.627
					c8.295,0,15.955-2.415,22.724-6.356c-2.32,25.998-15.414,63.915-63.406,102.562c-6.738,5.435-7.946,15.478-2.733,22.438
					c3.051,4.068,7.596,6.198,12.173,6.198c3.305,0,6.611-1.112,9.439-3.369c58.893-47.515,73.608-96.333,75.579-128.942
					c3.369-41.699-9.312-63.629-20.849-75.07L357.712,171.244z"/>
			</g>
		</g>
	</g>
</g>
<g>
</g>
<g>
</g>
<g>
</g>
<g>
</g>
<g>
</g>
<g>
</g>
<g>
</g>
<g>
</g>
<g>
</g>
<g>
</g>
<g>
</g>
<g>
</g>
<g>
</g>
<g>
</g>
<g>
</g>
</svg>
