<?xml version="1.0" encoding="iso-8859-1"?>
<!-- Generator: Adobe Illustrator 19.0.0, SVG Export Plug-In . SVG Version: 6.00 Build 0)  -->
<svg version="1.1" id="Capa_1" xmlns="http://www.w3.org/2000/svg" xmlns:xlink="http://www.w3.org/1999/xlink" x="0px" y="0px"
	 viewBox="0 0 508.52 508.52" style="enable-background:new 0 0 508.52 508.52;" xml:space="preserve">
<g>
	<g>
		<g>
			<path d="M476.324,3.369c-17.83,0-32.164,14.429-32.164,32.196v75.07
				C407.833,66.68,366.007,3.369,250.891,3.369C112.574,3.369,0,115.911,0,254.26s112.574,250.891,250.891,250.891
				c108.633,0,204.425-69.381,238.432-172.674c5.626-17.194-3.719-35.692-20.913-41.349c-17.194-5.721-35.755,3.623-41.413,20.818
				c-25.076,76.246-95.92,127.607-176.139,127.607c-102.212,0-185.355-83.111-185.355-185.387S148.647,69.19,250.859,69.19
				c72.369,0,112.574,45.036,145.373,92.265h-80.918c-17.798,0-32.196,14.429-32.196,32.196c0,17.798,14.397,32.196,32.196,32.196
				h160.978c17.798,0.095,32.227-14.334,32.227-32.1V35.533C508.551,17.798,494.122,3.369,476.324,3.369z"/>
		</g>
	</g>
</g>
<g>
</g>
<g>
</g>
<g>
</g>
<g>
</g>
<g>
</g>
<g>
</g>
<g>
</g>
<g>
</g>
<g>
</g>
<g>
</g>
<g>
</g>
<g>
</g>
<g>
</g>
<g>
</g>
<g>
</g>
</svg>
