<?xml version="1.0" encoding="iso-8859-1"?>
<!-- Generator: Adobe Illustrator 19.0.0, SVG Export Plug-In . SVG Version: 6.00 Build 0)  -->
<svg version="1.1" id="Capa_1" xmlns="http://www.w3.org/2000/svg" xmlns:xlink="http://www.w3.org/1999/xlink" x="0px" y="0px"
	 viewBox="0 0 476.737 476.737" style="enable-background:new 0 0 476.737 476.737;" xml:space="preserve">
<g>
	<g>
		<g>
			<g>
				<path d="M238.369,0C106.726,0,0,106.726,0,238.369c0,131.675,106.726,238.369,238.369,238.369
					c131.675,0,238.369-106.694,238.369-238.369C476.737,106.726,370.043,0,238.369,0z M238.369,444.955
					c-113.908,0-206.586-92.678-206.586-206.586S124.46,31.782,238.369,31.782s206.586,92.678,206.586,206.586
					S352.277,444.955,238.369,444.955z"/>
				<path d="M148.329,237.765l84.224-95.22c6.261-6.229,6.261-16.368,0-22.597
					c-6.229-6.229-16.368-6.229-22.597,0l-94.044,106.312c-3.178,3.178-4.704,7.342-4.64,11.505
					c-0.032,4.132,1.462,8.359,4.64,11.537l94.044,106.344c6.229,6.198,16.368,6.198,22.597,0c6.261-6.198,6.261-16.4,0-22.597
					L148.329,237.765z"/>
				<path d="M346.556,119.947c-6.229-6.229-16.4-6.229-22.597,0l-94.076,106.312
					c-3.178,3.178-4.704,7.342-4.64,11.505c-0.032,4.132,1.462,8.359,4.64,11.537l94.013,106.344c6.261,6.198,16.4,6.198,22.597,0
					c6.261-6.198,6.261-16.4,0-22.597l-84.192-95.252l84.192-95.22C352.786,136.315,352.786,126.176,346.556,119.947z"/>
			</g>
		</g>
	</g>
</g>
<g>
</g>
<g>
</g>
<g>
</g>
<g>
</g>
<g>
</g>
<g>
</g>
<g>
</g>
<g>
</g>
<g>
</g>
<g>
</g>
<g>
</g>
<g>
</g>
<g>
</g>
<g>
</g>
<g>
</g>
</svg>
