<?xml version="1.0" encoding="iso-8859-1"?>
<!-- Generator: Adobe Illustrator 19.0.0, SVG Export Plug-In . SVG Version: 6.00 Build 0)  -->
<svg version="1.1" id="Capa_1" xmlns="http://www.w3.org/2000/svg" xmlns:xlink="http://www.w3.org/1999/xlink" x="0px" y="0px"
	 viewBox="0 0 508.52 508.52" style="enable-background:new 0 0 508.52 508.52;" xml:space="preserve">
<g>
	<g>
		<path d="M483.634,64.328L340.613,0.763L333.716,0l-6.198,0.604L174.518,62.866L38.711,0.763L31.782,0
			c-7.151,0-14.175,2.415-19.864,6.992C4.386,12.999,0,22.121,0,31.782v381.39c0,14.874,10.329,27.778,24.854,31.051l142.354,63.565
			l6.929,0.731l6.198-0.636l153.001-62.262l136.474,62.135l6.929,0.763c7.151,0,14.207-2.415,19.896-7.024
			c7.469-6.007,11.887-15.128,11.887-24.759V95.347C508.52,80.441,498.159,67.538,483.634,64.328z M158.912,469.936l-127.13-56.764
			V31.782l127.13,56.764V469.936z M317.825,419.529l-127.13,50.629V88.768l127.13-50.63V419.529z M476.737,476.737l-127.13-56.477
			V38.87l127.13,56.477V476.737z"/>
	</g>
</g>
<g>
</g>
<g>
</g>
<g>
</g>
<g>
</g>
<g>
</g>
<g>
</g>
<g>
</g>
<g>
</g>
<g>
</g>
<g>
</g>
<g>
</g>
<g>
</g>
<g>
</g>
<g>
</g>
<g>
</g>
</svg>
