<?xml version="1.0" encoding="iso-8859-1"?>
<!-- Generator: Adobe Illustrator 19.0.0, SVG Export Plug-In . SVG Version: 6.00 Build 0)  -->
<svg version="1.1" id="Capa_1" xmlns="http://www.w3.org/2000/svg" xmlns:xlink="http://www.w3.org/1999/xlink" x="0px" y="0px"
	 viewBox="0 0 508.52 508.52" style="enable-background:new 0 0 508.52 508.52;" xml:space="preserve">
<g>
	<g>
		<g>
			<path d="M413.172,0H95.347C42.684,0,0,42.684,0,95.347v317.825c0,52.664,42.684,95.347,95.347,95.347
				h317.825c52.664,0,95.347-42.684,95.347-95.347V95.347C508.52,42.684,465.836,0,413.172,0z M137.141,412.441
				c-22.852,0-41.413-18.434-41.413-41.285c0-22.693,18.561-41.349,41.413-41.349c22.915,0,41.444,18.656,41.476,41.349
				C178.618,393.976,160.088,412.441,137.141,412.441z M241.197,412.791c0-39.061-15.16-75.674-42.62-103.071
				c-27.46-27.524-63.978-42.716-102.785-42.716v-59.624c113.177,0,205.315,92.137,205.315,205.41H241.197z M347.001,412.727
				c0-138.603-112.669-251.399-251.145-251.399v-59.624c171.435,0,310.96,139.589,310.96,311.023H347.001L347.001,412.727z"/>
		</g>
	</g>
</g>
<g>
</g>
<g>
</g>
<g>
</g>
<g>
</g>
<g>
</g>
<g>
</g>
<g>
</g>
<g>
</g>
<g>
</g>
<g>
</g>
<g>
</g>
<g>
</g>
<g>
</g>
<g>
</g>
<g>
</g>
</svg>
