<?xml version="1.0" encoding="iso-8859-1"?>
<!-- Generator: Adobe Illustrator 19.0.0, SVG Export Plug-In . SVG Version: 6.00 Build 0)  -->
<svg version="1.1" id="Capa_1" xmlns="http://www.w3.org/2000/svg" xmlns:xlink="http://www.w3.org/1999/xlink" x="0px" y="0px"
	 viewBox="0 0 508.52 508.52" style="enable-background:new 0 0 508.52 508.52;" xml:space="preserve">
<g>
	<g>
		<path d="M254.26,0C113.845,0,0,113.845,0,254.26s113.845,254.26,254.26,254.26
			s254.26-113.845,254.26-254.26C508.52,113.813,394.675,0,254.26,0z M307.051,311.85c7.85-5.943,17.639-9.503,28.255-9.503
			c25.935,0,46.974,21.008,46.974,47.006c0,25.934-21.008,47.006-46.974,47.006c-25.903,0-46.943-21.04-46.943-47.006v-0.032
			l-119.788-57.908c-7.342,4.736-16.05,7.532-25.426,7.532c-25.935,0-46.975-21.04-46.975-46.975s21.04-46.975,46.975-46.975
			c11.06,0,21.199,3.846,29.24,10.234l115.942-56.001v-0.032c0-25.935,21.04-46.975,46.943-46.975
			c25.935,0,47.006,21.008,47.006,46.975s-21.04,46.975-47.006,46.975c-10.615,0-20.373-3.56-28.255-9.503l-116.96,56.509
			l-0.095,2.129L307.051,311.85z"/>
	</g>
</g>
<g>
</g>
<g>
</g>
<g>
</g>
<g>
</g>
<g>
</g>
<g>
</g>
<g>
</g>
<g>
</g>
<g>
</g>
<g>
</g>
<g>
</g>
<g>
</g>
<g>
</g>
<g>
</g>
<g>
</g>
</svg>
