<?xml version="1.0" encoding="iso-8859-1"?>
<!-- Generator: Adobe Illustrator 19.0.0, SVG Export Plug-In . SVG Version: 6.00 Build 0)  -->
<svg version="1.1" id="Capa_1" xmlns="http://www.w3.org/2000/svg" xmlns:xlink="http://www.w3.org/1999/xlink" x="0px" y="0px"
	 viewBox="0 0 508.52 508.52" style="enable-background:new 0 0 508.52 508.52;" xml:space="preserve">
<g>
	<g>
		<g>
			<path d="M413.172,0H95.347C42.684,0,0,42.684,0,95.347v317.825c0,52.664,42.684,95.347,95.347,95.347
				h317.825c52.664,0,95.347-42.684,95.347-95.347V95.347C508.52,42.684,465.836,0,413.172,0z M307.051,311.881
				c7.85-5.975,17.639-9.503,28.255-9.503c25.935,0,46.974,20.976,46.974,47.006c0,25.935-20.976,47.006-46.974,47.006
				c-25.903,0-46.943-21.04-46.943-47.006v-0.032l-119.788-57.908c-7.342,4.736-16.05,7.532-25.426,7.532
				c-25.935,0-46.975-21.04-46.975-47.006c0-25.935,21.04-46.975,46.975-46.975c11.06,0,21.199,3.846,29.24,10.234l115.942-56.001
				v-0.032c0-25.935,21.04-46.975,46.943-46.975c25.935,0,47.006,21.008,47.006,46.975s-21.008,46.975-47.006,46.975
				c-10.615,0-20.373-3.56-28.255-9.503l-116.96,56.509l-0.095,2.129L307.051,311.881z"/>
		</g>
	</g>
</g>
<g>
</g>
<g>
</g>
<g>
</g>
<g>
</g>
<g>
</g>
<g>
</g>
<g>
</g>
<g>
</g>
<g>
</g>
<g>
</g>
<g>
</g>
<g>
</g>
<g>
</g>
<g>
</g>
<g>
</g>
</svg>
