<?xml version="1.0" encoding="iso-8859-1"?>
<!-- Generator: Adobe Illustrator 19.0.0, SVG Export Plug-In . SVG Version: 6.00 Build 0)  -->
<svg version="1.1" id="Capa_1" xmlns="http://www.w3.org/2000/svg" xmlns:xlink="http://www.w3.org/1999/xlink" x="0px" y="0px"
	 viewBox="0 0 508.52 508.52" style="enable-background:new 0 0 508.52 508.52;" xml:space="preserve">
<g>
	<g>
		<g>
			<g>
				<path d="M413.172,95.347h-63.724C348.686,42.557,306.415,0,254.26,0s-94.426,42.557-95.189,95.347H95.347
					c-17.544,0-31.782,14.239-31.782,31.782v349.607c0,17.544,14.239,31.782,31.782,31.782h317.825
					c17.544,0,31.783-14.239,31.783-31.782V127.13C444.955,109.586,430.716,95.347,413.172,95.347z M254.26,31.782
					c34.548,0,62.643,28.382,63.406,63.565H190.854C191.617,60.164,219.712,31.782,254.26,31.782z M413.172,476.737H95.347V127.13
					h317.825V476.737z"/>
				<path d="M206.586,190.695h95.347c8.74,0,15.891-7.119,15.891-15.891c0-8.772-7.151-15.891-15.891-15.891
					h-95.347c-8.772,0-15.891,7.119-15.891,15.891C190.695,183.576,197.814,190.695,206.586,190.695z"/>
			</g>
		</g>
	</g>
</g>
<g>
</g>
<g>
</g>
<g>
</g>
<g>
</g>
<g>
</g>
<g>
</g>
<g>
</g>
<g>
</g>
<g>
</g>
<g>
</g>
<g>
</g>
<g>
</g>
<g>
</g>
<g>
</g>
<g>
</g>
</svg>
