<?xml version="1.0" encoding="iso-8859-1"?>
<!-- Generator: Adobe Illustrator 19.0.0, SVG Export Plug-In . SVG Version: 6.00 Build 0)  -->
<svg version="1.1" id="Capa_1" xmlns="http://www.w3.org/2000/svg" xmlns:xlink="http://www.w3.org/1999/xlink" x="0px" y="0px"
	 viewBox="0 0 508.52 508.52" style="enable-background:new 0 0 508.52 508.52;" xml:space="preserve">
<g>
	<g>
		<g>
			<g>
				<path d="M254.26,0C113.845,0,0,113.845,0,254.26s113.845,254.26,254.26,254.26
					s254.26-113.845,254.26-254.26C508.52,113.813,394.675,0,254.26,0z M323.196,404.591c-16.209,0-31.306-4.64-44.178-12.586
					c-8.263,1.494-16.749,2.352-25.49,2.352c-77.39,0-140.097-62.389-140.097-139.366c0-7.469,0.604-14.811,1.748-21.962
					c-8.549-13.094-13.476-28.731-13.476-45.513c0-46.18,37.408-83.588,83.588-83.62c16.845,0,32.482,4.99,45.64,13.571
					c7.31-1.208,14.874-1.843,22.566-1.843c77.359,0,140.097,62.421,140.097,139.366c0,6.42-0.477,12.713-1.303,18.911
					c9.185,13.444,14.525,29.653,14.525,47.07C406.816,367.183,369.408,404.591,323.196,404.591z"/>
				<path d="M235.953,228.166c-40.491-9.853-18.338-44.495,14.461-43.987
					c31.846,0.509,48.055,34.134,62.453,32.386c14.461-1.748,26.761-23.392,4.036-42.779c-19.61-16.781-44.495-26.03-82.698-22.566
					c-29.939,2.701-58.384,21.993-61.88,59.56c-3.464,37.599,41.095,56.7,76.373,61.944c24.727,3.623,58.416,15.605,38.139,38.743
					c-18.561,21.262-53.776,8.105-63.025,2.32c-9.249-5.848-19.673-26.634-37.027-25.521c-17.385,1.176-25.934,23.996-4.608,44.019
					c19.101,17.894,39.919,27.778,84.446,25.426c44.559-2.32,84.478-41.635,68.841-78.693
					C319.827,242.024,276.444,237.987,235.953,228.166z"/>
			</g>
		</g>
	</g>
</g>
<g>
</g>
<g>
</g>
<g>
</g>
<g>
</g>
<g>
</g>
<g>
</g>
<g>
</g>
<g>
</g>
<g>
</g>
<g>
</g>
<g>
</g>
<g>
</g>
<g>
</g>
<g>
</g>
<g>
</g>
</svg>
