<?xml version="1.0" encoding="iso-8859-1"?>
<!-- Generator: Adobe Illustrator 19.0.0, SVG Export Plug-In . SVG Version: 6.00 Build 0)  -->
<svg version="1.1" id="Capa_1" xmlns="http://www.w3.org/2000/svg" xmlns:xlink="http://www.w3.org/1999/xlink" x="0px" y="0px"
	 viewBox="0 0 508.52 508.52" style="enable-background:new 0 0 508.52 508.52;" xml:space="preserve">
<g>
	<g>
		<g>
			<path d="M445.622,0H62.898C45.354,0,31.115,14.239,31.115,31.782v444.955
				c0,17.544,14.239,31.782,31.782,31.782h382.725c17.544,0,31.782-14.239,31.782-31.782V31.782C477.405,14.239,463.166,0,445.622,0
				z M366.166,413.172H142.354c-8.772,0-15.891-7.151-15.891-15.891s7.119-15.891,15.891-15.891h223.812
				c8.772,0,15.891,7.151,15.891,15.891S374.938,413.172,366.166,413.172z M366.166,317.825H142.354
				c-8.772,0-15.891-7.151-15.891-15.891s7.119-15.891,15.891-15.891h223.812c8.772,0,15.891,7.151,15.891,15.891
				S374.938,317.825,366.166,317.825z M366.166,222.477H142.354c-8.772,0-15.891-7.119-15.891-15.891
				c0-8.772,7.119-15.891,15.891-15.891h223.812c8.772,0,15.891,7.119,15.891,15.891
				C382.057,215.358,374.938,222.477,366.166,222.477z M366.166,127.13H237.701c-8.772,0-15.891-7.119-15.891-15.891
				s7.119-15.891,15.891-15.891h128.465c8.772,0,15.891,7.119,15.891,15.891S374.938,127.13,366.166,127.13z"/>
		</g>
	</g>
</g>
<g>
</g>
<g>
</g>
<g>
</g>
<g>
</g>
<g>
</g>
<g>
</g>
<g>
</g>
<g>
</g>
<g>
</g>
<g>
</g>
<g>
</g>
<g>
</g>
<g>
</g>
<g>
</g>
<g>
</g>
</svg>
