<?xml version="1.0" encoding="iso-8859-1"?>
<!-- Generator: Adobe Illustrator 19.0.0, SVG Export Plug-In . SVG Version: 6.00 Build 0)  -->
<svg version="1.1" id="Capa_1" xmlns="http://www.w3.org/2000/svg" xmlns:xlink="http://www.w3.org/1999/xlink" x="0px" y="0px"
	 viewBox="0 0 507.725 507.725" style="enable-background:new 0 0 507.725 507.725;" xml:space="preserve">
<g>
	<g>
		<g>
			<g>
				<path d="M253.863,0C155.464,0,75.69,79.774,75.69,178.173c0,7.532,0.604,14.874,1.526,22.152
					C92.439,339.5,242.294,499.907,242.294,499.907c2.67,2.988,5.244,4.831,7.723,6.166l0.127,0.064l4.99,1.589l4.99-1.589
					l0.127-0.064c2.479-1.335,5.053-3.274,7.723-6.166c0,0,147.725-160.692,162.567-299.899c0.89-7.183,1.494-14.461,1.494-21.866
					C432.035,79.774,352.261,0,253.863,0z M398.95,196.67c-11.378,106.662-111.525,231.821-143.784,269.897
					C222.08,428.46,120.503,303.586,108.744,196.416c-0.858-7.024-1.271-12.808-1.271-18.243c0-80.728,65.663-146.39,146.39-146.39
					c80.759,0,146.39,65.663,146.39,146.39C400.253,183.544,399.871,189.265,398.95,196.67z"/>
				<path d="M253.863,95.347c-45.671,0-82.825,37.154-82.825,82.825s37.154,82.825,82.825,82.825
					s82.825-37.154,82.825-82.825S299.534,95.347,253.863,95.347z M253.863,229.215c-28.159,0-51.043-22.915-51.043-51.043
					s22.883-51.043,51.043-51.043c28.127,0,51.043,22.883,51.043,51.043S282.022,229.215,253.863,229.215z"/>
			</g>
		</g>
	</g>
</g>
<g>
</g>
<g>
</g>
<g>
</g>
<g>
</g>
<g>
</g>
<g>
</g>
<g>
</g>
<g>
</g>
<g>
</g>
<g>
</g>
<g>
</g>
<g>
</g>
<g>
</g>
<g>
</g>
<g>
</g>
</svg>
