<?xml version="1.0" encoding="iso-8859-1"?>
<!-- Generator: Adobe Illustrator 19.0.0, SVG Export Plug-In . SVG Version: 6.00 Build 0)  -->
<svg version="1.1" id="Capa_1" xmlns="http://www.w3.org/2000/svg" xmlns:xlink="http://www.w3.org/1999/xlink" x="0px" y="0px"
	 viewBox="0 0 508.52 508.52" style="enable-background:new 0 0 508.52 508.52;" xml:space="preserve">
<g>
	<g>
		<g>
			<path d="M413.172,0H95.347C77.804,0,63.565,14.239,63.565,31.782v444.955
				c0,12.84,7.755,24.473,19.61,29.367c3.941,1.621,8.073,2.415,12.173,2.415c8.263,0,16.4-3.242,22.47-9.312L254.26,362.765
				l136.442,136.442c6.07,6.07,14.207,9.312,22.47,9.312c4.1,0,8.232-0.795,12.141-2.415c11.887-4.894,19.642-16.527,19.642-29.367
				V31.782C444.955,14.239,430.716,0,413.172,0z M413.172,476.737L254.26,317.825L95.347,476.737V127.13h317.825V476.737z
				 M413.172,95.347H95.347V31.782h317.825V95.347z"/>
		</g>
	</g>
</g>
<g>
</g>
<g>
</g>
<g>
</g>
<g>
</g>
<g>
</g>
<g>
</g>
<g>
</g>
<g>
</g>
<g>
</g>
<g>
</g>
<g>
</g>
<g>
</g>
<g>
</g>
<g>
</g>
<g>
</g>
</svg>
