<?xml version="1.0" encoding="iso-8859-1"?>
<!-- Generator: Adobe Illustrator 19.0.0, SVG Export Plug-In . SVG Version: 6.00 Build 0)  -->
<svg version="1.1" id="Capa_1" xmlns="http://www.w3.org/2000/svg" xmlns:xlink="http://www.w3.org/1999/xlink" x="0px" y="0px"
	 viewBox="0 0 508.52 508.52" style="enable-background:new 0 0 508.52 508.52;" xml:space="preserve">
<g>
	<g>
		<g>
			<path d="M492.628,0h-63.565c-3.846,0-7.564,1.398-10.488,3.941L199.213,196.257
				c-11.346-2.384-28.89-5.562-40.3-5.562C71.288,190.695,0,261.983,0,349.607S71.288,508.52,158.912,508.52
				s158.912-71.288,158.912-158.912c0-25.998-4.958-43.478-10.584-57.971l54.094-18.37c6.579-2.225,10.933-8.486,10.774-15.414
				l-1.335-60.323l60.705-4.227c8.136-0.572,14.525-7.215,14.779-15.351l2.225-72.432l47.547-10.552
				c7.278-1.589,12.491-8.073,12.491-15.51V15.891C508.52,7.119,501.369,0,492.628,0z"/>
		</g>
	</g>
</g>
<g>
</g>
<g>
</g>
<g>
</g>
<g>
</g>
<g>
</g>
<g>
</g>
<g>
</g>
<g>
</g>
<g>
</g>
<g>
</g>
<g>
</g>
<g>
</g>
<g>
</g>
<g>
</g>
<g>
</g>
</svg>
