<?xml version="1.0" encoding="iso-8859-1"?>
<!-- Generator: Adobe Illustrator 19.0.0, SVG Export Plug-In . SVG Version: 6.00 Build 0)  -->
<svg version="1.1" id="Capa_1" xmlns="http://www.w3.org/2000/svg" xmlns:xlink="http://www.w3.org/1999/xlink" x="0px" y="0px"
	 viewBox="0 0 476.737 476.737" style="enable-background:new 0 0 476.737 476.737;" xml:space="preserve">
<g>
	<g>
		<g>
			<path d="M238.369,0C106.726,0,0,106.726,0,238.369c0,131.675,106.726,238.369,238.369,238.369
				c131.675,0,238.369-106.694,238.369-238.369C476.737,106.726,370.043,0,238.369,0z M352.722,209.987L249.651,313.057
				c-3.146,3.178-7.246,4.672-11.283,4.64c-4.1,0-8.168-1.526-11.283-4.64L124.015,209.987c-6.198-6.198-6.198-16.273,0-22.47
				c6.198-6.198,16.273-6.198,22.47,0l91.883,91.883l91.883-91.883c6.198-6.198,16.273-6.198,22.47,0
				C358.92,193.714,358.92,203.789,352.722,209.987z"/>
		</g>
	</g>
</g>
<g>
</g>
<g>
</g>
<g>
</g>
<g>
</g>
<g>
</g>
<g>
</g>
<g>
</g>
<g>
</g>
<g>
</g>
<g>
</g>
<g>
</g>
<g>
</g>
<g>
</g>
<g>
</g>
<g>
</g>
</svg>
