<?xml version="1.0" encoding="iso-8859-1"?>
<!-- Generator: Adobe Illustrator 19.0.0, SVG Export Plug-In . SVG Version: 6.00 Build 0)  -->
<svg version="1.1" id="Capa_1" xmlns="http://www.w3.org/2000/svg" xmlns:xlink="http://www.w3.org/1999/xlink" x="0px" y="0px"
	 viewBox="0 0 508.52 508.52" style="enable-background:new 0 0 508.52 508.52;" xml:space="preserve">
<g>
	<g>
		<g>
			<g>
				<path d="M254.26,0C113.845,0,0,113.845,0,254.26s113.845,254.26,254.26,254.26
					s254.26-113.845,254.26-254.26S394.675,0,254.26,0z M254.26,476.737c-122.68,0-222.477-99.829-222.477-222.477
					c0-122.68,99.797-222.477,222.477-222.477c122.649,0,222.477,99.797,222.477,222.477
					C476.737,376.908,376.908,476.737,254.26,476.737z"/>
				<path d="M357.044,129.545l-59.115,36.931l-39.506,24.631c31.719,2.098,56.891,27.238,58.957,58.988
					l24.631-39.474l36.899-59.179c3.941-6.261,3.083-14.429-2.193-19.642C371.474,126.526,363.274,125.636,357.044,129.545z"/>
				<path d="M258.423,191.108l-4.163-0.413c-35.12,0-63.565,28.445-63.565,63.565l0.413,4.163l-24.631,39.506
					l-36.931,59.179c-3.941,6.261-3.019,14.397,2.225,19.61c3.083,3.083,7.151,4.64,11.251,4.64c2.924,0,5.848-0.795,8.422-2.415
					l59.147-36.931l39.506-24.631l4.163,0.445c35.12,0,63.565-28.445,63.565-63.565l-0.445-4.163
					C315.314,218.377,290.142,193.206,258.423,191.108z M254.26,286.042c-17.512,0-31.782-14.27-31.782-31.782
					s14.27-31.782,31.782-31.782s31.782,14.27,31.782,31.782S271.772,286.042,254.26,286.042z"/>
			</g>
		</g>
	</g>
</g>
<g>
</g>
<g>
</g>
<g>
</g>
<g>
</g>
<g>
</g>
<g>
</g>
<g>
</g>
<g>
</g>
<g>
</g>
<g>
</g>
<g>
</g>
<g>
</g>
<g>
</g>
<g>
</g>
<g>
</g>
</svg>
