<?xml version="1.0" encoding="iso-8859-1"?>
<!-- Generator: Adobe Illustrator 19.0.0, SVG Export Plug-In . SVG Version: 6.00 Build 0)  -->
<svg version="1.1" id="Capa_1" xmlns="http://www.w3.org/2000/svg" xmlns:xlink="http://www.w3.org/1999/xlink" x="0px" y="0px"
	 viewBox="0 0 486.392 486.392" style="enable-background:new 0 0 486.392 486.392;" xml:space="preserve">
<g>
	<g>
		<g>
			<path d="M463.258,274.522c1.368-9.88,2.128-19.942,2.128-30.156c0-122.692-100.045-222.19-223.406-222.19
				c-12.251,0-24.289,1.003-35.963,2.918c-20.976-13.68-45.934-21.614-72.776-21.614C59.613,3.481,0,63.185,0,136.782
				c0,26.782,7.873,51.679,21.462,72.564c-1.824,11.43-2.766,23.104-2.766,35.02c0,122.723,99.953,222.19,223.315,222.19
				c13.923,0,27.481-1.368,40.644-3.739c20.459,12.707,44.626,20.094,70.436,20.094c73.658,0,133.302-59.674,133.302-133.302
				C486.422,321.794,477.94,295.893,463.258,274.522z M262.925,408.098c-70.983,3.709-104.179-12.038-134.609-40.553
				c-33.987-31.889-20.337-68.247,7.357-70.101c27.664-1.854,44.262,31.342,59.036,40.583c14.744,9.211,70.861,30.187,100.501-3.709
				c32.284-36.875-21.462-55.965-60.86-61.741c-56.239-8.299-127.252-38.729-121.719-98.707
				c5.533-59.887,50.889-90.651,98.646-94.968c60.86-5.533,100.501,9.211,131.842,35.963c36.236,30.916,16.629,65.45-6.445,68.216
				c-23.043,2.766-48.822-50.828-99.558-51.618c-52.287-0.821-87.611,54.415-23.073,70.101
				c64.568,15.686,133.666,22.131,158.624,81.136C397.595,341.705,333.938,404.389,262.925,408.098z"/>
		</g>
	</g>
	<g>
	</g>
	<g>
	</g>
	<g>
	</g>
	<g>
	</g>
	<g>
	</g>
	<g>
	</g>
	<g>
	</g>
	<g>
	</g>
	<g>
	</g>
	<g>
	</g>
	<g>
	</g>
	<g>
	</g>
	<g>
	</g>
	<g>
	</g>
	<g>
	</g>
</g>
<g>
</g>
<g>
</g>
<g>
</g>
<g>
</g>
<g>
</g>
<g>
</g>
<g>
</g>
<g>
</g>
<g>
</g>
<g>
</g>
<g>
</g>
<g>
</g>
<g>
</g>
<g>
</g>
<g>
</g>
</svg>
