<?xml version="1.0" encoding="iso-8859-1"?>
<!-- Generator: Adobe Illustrator 19.0.0, SVG Export Plug-In . SVG Version: 6.00 Build 0)  -->
<svg version="1.1" id="Capa_1" xmlns="http://www.w3.org/2000/svg" xmlns:xlink="http://www.w3.org/1999/xlink" x="0px" y="0px"
	 viewBox="0 0 468.792 468.792" style="enable-background:new 0 0 468.792 468.792;" xml:space="preserve">
<g>
	<g>
		<g>
			<path d="M234.396,0C104.946,0,0,104.946,0,234.396s104.946,234.396,234.396,234.396
				s234.396-104.946,234.396-234.396C468.792,104.914,363.846,0,234.396,0z M380.881,370.329c0,5.816-4.736,10.552-10.615,10.552
				H98.462c-5.816,0-10.584-4.704-10.584-10.552V98.462c0-5.816,4.736-10.584,10.584-10.584h271.804
				c5.848,0,10.615,4.736,10.615,10.584C380.881,98.462,380.881,370.329,380.881,370.329z M175.789,234.396
				c0-32.355,26.252-58.607,58.607-58.607s58.607,26.252,58.607,58.607s-26.252,58.607-58.607,58.607
				S175.789,266.75,175.789,234.396z M293.003,117.182h58.607v58.607h-58.607V117.182z M319.636,219.744h31.973v131.834H117.214
				V219.744h32.005c-1.24,5.88-1.971,8.422-1.971,14.652c0,48.119,39.124,87.179,87.179,87.179
				c48.119,0,87.179-39.061,87.179-87.179C321.575,228.166,320.876,225.624,319.636,219.744z"/>
		</g>
	</g>
</g>
<g>
</g>
<g>
</g>
<g>
</g>
<g>
</g>
<g>
</g>
<g>
</g>
<g>
</g>
<g>
</g>
<g>
</g>
<g>
</g>
<g>
</g>
<g>
</g>
<g>
</g>
<g>
</g>
<g>
</g>
</svg>
