<?xml version="1.0" encoding="iso-8859-1"?>
<!-- Generator: Adobe Illustrator 19.0.0, SVG Export Plug-In . SVG Version: 6.00 Build 0)  -->
<svg version="1.1" id="Capa_1" xmlns="http://www.w3.org/2000/svg" xmlns:xlink="http://www.w3.org/1999/xlink" x="0px" y="0px"
	 viewBox="0 0 508.52 508.52" style="enable-background:new 0 0 508.52 508.52;" xml:space="preserve">
<g>
	<g>
		<g>
			<path d="M425.059,339.818c-18.911,0-36.232,6.325-50.216,16.908L166.667,256.103l0.191-3.782
				l207.953-100.496c13.953,10.584,31.274,16.908,50.216,16.908c46.148,0,83.493-37.376,83.493-83.493S471.175,1.748,425.059,1.748
				s-83.493,37.376-83.493,83.493v0.064l-206.109,99.638c-14.27-11.378-32.323-18.243-51.964-18.243
				C37.376,166.699,0,204.107,0,250.192c0,46.116,37.376,83.461,83.493,83.461c16.654,0,32.164-4.926,45.195-13.349l212.879,102.88
				v0.095c0,46.085,37.376,83.493,83.493,83.493s83.461-37.376,83.461-83.493S471.175,339.818,425.059,339.818z"/>
		</g>
	</g>
</g>
<g>
</g>
<g>
</g>
<g>
</g>
<g>
</g>
<g>
</g>
<g>
</g>
<g>
</g>
<g>
</g>
<g>
</g>
<g>
</g>
<g>
</g>
<g>
</g>
<g>
</g>
<g>
</g>
<g>
</g>
</svg>
