<?xml version="1.0" encoding="iso-8859-1"?>
<!-- Generator: Adobe Illustrator 19.0.0, SVG Export Plug-In . SVG Version: 6.00 Build 0)  -->
<svg version="1.1" id="Capa_1" xmlns="http://www.w3.org/2000/svg" xmlns:xlink="http://www.w3.org/1999/xlink" x="0px" y="0px"
	 viewBox="0 0 508.52 508.52" style="enable-background:new 0 0 508.52 508.52;" xml:space="preserve">
<g>
	<g>
		<g>
			<g>
				<path d="M143.021,158.99c42.525,0,79.456-36.931,79.456-79.456S185.546,0.078,143.021,0.078
					S63.565,37.009,63.565,79.534S100.496,158.99,143.021,158.99z"/>
				<path d="M278.097,381.467c0-127.13-65.98-190.695-139.048-190.695S0,254.338,0,381.467
					C0,468.583,278.097,468.583,278.097,381.467z"/>
				<path d="M373.444,220.807c42.525,0,79.456-36.931,79.456-79.456s-36.931-79.456-79.456-79.456
					s-79.456,36.931-79.456,79.456S330.919,220.807,373.444,220.807z"/>
				<path d="M369.471,252.59c-21.962,0-43.033,6.452-62.071,17.957c11.537,31.051,18.37,67.792,18.37,110.921
					c0,42.843-28.541,76.151-77.517,95.22c60.768,51.424,260.267,40.459,260.267-33.403
					C508.52,316.155,442.539,252.59,369.471,252.59z"/>
			</g>
		</g>
	</g>
</g>
<g>
</g>
<g>
</g>
<g>
</g>
<g>
</g>
<g>
</g>
<g>
</g>
<g>
</g>
<g>
</g>
<g>
</g>
<g>
</g>
<g>
</g>
<g>
</g>
<g>
</g>
<g>
</g>
<g>
</g>
</svg>
