<?xml version="1.0" encoding="iso-8859-1"?>
<!-- Generator: Adobe Illustrator 19.0.0, SVG Export Plug-In . SVG Version: 6.00 Build 0)  -->
<svg version="1.1" id="Capa_1" xmlns="http://www.w3.org/2000/svg" xmlns:xlink="http://www.w3.org/1999/xlink" x="0px" y="0px"
	 viewBox="0 0 486.392 486.392" style="enable-background:new 0 0 486.392 486.392;" xml:space="preserve">
<g>
	<g>
		<g>
			<g>
				<path d="M0.182,0v93.266c216.505,0,392.7,176.378,392.7,393.126h93.509
					C486.392,218.268,268.245,0,0.182,0z"/>
				<path d="M0.061,165.221v93.235c60.708,0,117.768,23.742,160.752,66.757
					c42.924,42.894,66.636,100.227,66.636,161.178h93.661C321.11,309.284,177.047,165.221,0.061,165.221z"/>
				<path d="M64.751,356.647C29.031,356.647,0,385.739,0,421.245c0,35.719,29.031,64.538,64.751,64.538
					c35.841,0,64.842-28.819,64.842-64.538C129.563,385.8,100.592,356.647,64.751,356.647z"/>
			</g>
		</g>
	</g>
	<g>
	</g>
	<g>
	</g>
	<g>
	</g>
	<g>
	</g>
	<g>
	</g>
	<g>
	</g>
	<g>
	</g>
	<g>
	</g>
	<g>
	</g>
	<g>
	</g>
	<g>
	</g>
	<g>
	</g>
	<g>
	</g>
	<g>
	</g>
	<g>
	</g>
</g>
<g>
</g>
<g>
</g>
<g>
</g>
<g>
</g>
<g>
</g>
<g>
</g>
<g>
</g>
<g>
</g>
<g>
</g>
<g>
</g>
<g>
</g>
<g>
</g>
<g>
</g>
<g>
</g>
<g>
</g>
</svg>
