<?xml version="1.0" encoding="iso-8859-1"?>
<!-- Generator: Adobe Illustrator 19.0.0, SVG Export Plug-In . SVG Version: 6.00 Build 0)  -->
<svg version="1.1" id="Capa_1" xmlns="http://www.w3.org/2000/svg" xmlns:xlink="http://www.w3.org/1999/xlink" x="0px" y="0px"
	 viewBox="0 0 508.52 508.52" style="enable-background:new 0 0 508.52 508.52;" xml:space="preserve">
<g>
	<g>
		<path d="M254.26,0C113.845,0,0,113.845,0,254.26s113.845,254.26,254.26,254.26
			s254.26-113.845,254.26-254.26C508.52,113.813,394.675,0,254.26,0z M405.29,185.069
			c-17.067,96.047-112.319,177.378-140.955,195.939c-28.668,18.561-54.793-7.437-64.296-27.142
			c-10.838-22.375-43.351-144.038-51.869-154.113c-8.518-10.075-34.071,10.075-34.071,10.075l-12.395-16.241
			c0,0,51.901-61.944,91.375-69.731c41.858-8.232,41.794,64.296,51.869,104.533c9.757,38.934,16.273,61.181,24.79,61.181
			c8.518,0,24.822-21.676,42.589-54.952c17.862-33.308-0.763-62.739-35.628-41.826C290.683,109.173,422.326,89.055,405.29,185.069z"
			/>
	</g>
</g>
<g>
</g>
<g>
</g>
<g>
</g>
<g>
</g>
<g>
</g>
<g>
</g>
<g>
</g>
<g>
</g>
<g>
</g>
<g>
</g>
<g>
</g>
<g>
</g>
<g>
</g>
<g>
</g>
<g>
</g>
</svg>
