<?xml version="1.0" encoding="iso-8859-1"?>
<!-- Generator: Adobe Illustrator 19.0.0, SVG Export Plug-In . SVG Version: 6.00 Build 0)  -->
<svg version="1.1" id="Capa_1" xmlns="http://www.w3.org/2000/svg" xmlns:xlink="http://www.w3.org/1999/xlink" x="0px" y="0px"
	 viewBox="0 0 504.642 504.642" style="enable-background:new 0 0 504.642 504.642;" xml:space="preserve">
<g>
	<g>
		<g>
			<path d="M252.321,30.543C113.177,30.543,0,123.411,0,237.638c0,53.808,25.966,105.899,71.669,144.42
				c-10.361,23.455-24.186,45.703-41.222,65.98c-3.941,4.767-4.831,11.346-2.225,16.94c2.606,5.594,8.232,9.122,14.397,9.122
				c45.608,0,84.192-11.124,128.02-36.931c21.262,3.337,63.247,7.564,81.681,7.564c139.112,0,252.321-92.932,252.321-207.158
				C504.642,123.411,391.433,30.543,252.321,30.543z M252.321,413.013c-18.243,0-65.726-4.895-81.776-8.041
				c-3.877-0.667-7.914,0-11.283,2.034c-29.621,18.084-55.46,28.477-83.111,32.831c11.918-18.052,21.835-37.122,29.558-56.986
				c2.574-6.643,0.477-14.143-5.212-18.434c-44.337-33.594-68.714-78.662-68.714-126.812c0-96.682,98.939-175.344,220.539-175.344
				c121.632,0,220.539,78.662,220.539,175.344C472.86,334.352,373.953,413.013,252.321,413.013z"/>
		</g>
	</g>
</g>
<g>
</g>
<g>
</g>
<g>
</g>
<g>
</g>
<g>
</g>
<g>
</g>
<g>
</g>
<g>
</g>
<g>
</g>
<g>
</g>
<g>
</g>
<g>
</g>
<g>
</g>
<g>
</g>
<g>
</g>
</svg>
