<?xml version="1.0" encoding="iso-8859-1"?>
<!-- Generator: Adobe Illustrator 19.0.0, SVG Export Plug-In . SVG Version: 6.00 Build 0)  -->
<svg version="1.1" id="Capa_1" xmlns="http://www.w3.org/2000/svg" xmlns:xlink="http://www.w3.org/1999/xlink" x="0px" y="0px"
	 viewBox="0 0 508.52 508.52" style="enable-background:new 0 0 508.52 508.52;" xml:space="preserve">
<g>
	<g>
		<g>
			<path d="M254.26,0C113.845,0,0,113.845,0,254.26s113.845,254.26,254.26,254.26
				s254.26-113.845,254.26-254.26S394.675,0,254.26,0z M371.696,403.288c-3.178,5.816-9.122,9.058-15.287,9.058
				c-2.86,0-5.721-0.667-8.422-2.129c-40.713-22.438-86.957-34.293-133.677-34.293c-28,0-55.651,4.163-82.126,12.363
				c-9.217,2.86-19.006-2.288-21.835-11.537c-2.86-9.185,2.288-28.7,11.537-31.592c29.844-9.249,60.959-13.921,92.455-13.921
				c52.568,0,104.66,13.349,150.522,38.616C373.317,374.461,376.4,394.866,371.696,403.288z M404.019,307.527
				c-3.623,7.024-10.742,18.338-18.084,18.338c-3.21,0-6.388-0.699-9.376-2.32c-50.471-26.189-105.041-39.474-162.218-39.474
				c-31.496,0-62.77,4.132-92.964,12.459c-10.901,2.956-22.089-3.401-25.045-14.302c-2.924-10.901,3.464-29.431,14.334-32.386
				c33.689-9.185,68.587-13.857,103.674-13.857c62.898,0,125.445,15.256,180.938,44.114
				C405.29,285.248,409.199,297.516,404.019,307.527z M417.526,230.836c-3.464,0-7.024-0.795-10.361-2.447
				c-60.228-30.034-125.096-45.226-192.761-45.226c-35.279,0-70.43,4.291-104.533,12.713c-12.522,3.083-25.14-4.513-28.223-17.004
				c-3.115-12.459,4.513-27.555,17.004-30.638c37.726-9.376,76.659-14.111,115.72-14.111c74.975,0,146.867,16.877,213.578,50.121
				c11.537,5.753,16.241,19.737,10.488,31.242C434.308,223.653,426.108,230.836,417.526,230.836z"/>
		</g>
	</g>
</g>
<g>
</g>
<g>
</g>
<g>
</g>
<g>
</g>
<g>
</g>
<g>
</g>
<g>
</g>
<g>
</g>
<g>
</g>
<g>
</g>
<g>
</g>
<g>
</g>
<g>
</g>
<g>
</g>
<g>
</g>
</svg>
