<?xml version="1.0" encoding="iso-8859-1"?>
<!-- Generator: Adobe Illustrator 19.0.0, SVG Export Plug-In . SVG Version: 6.00 Build 0)  -->
<svg version="1.1" id="Capa_1" xmlns="http://www.w3.org/2000/svg" xmlns:xlink="http://www.w3.org/1999/xlink" x="0px" y="0px"
	 viewBox="0 0 507.936 507.936" style="enable-background:new 0 0 507.936 507.936;" xml:space="preserve">
<g>
	<g>
		<g>
			<path d="M506.397,194.265c-3.719-11.505-13.698-19.896-25.68-21.644l-137.014-19.896L282.458,28.614
				c-5.371-10.87-16.4-17.735-28.509-17.735s-23.138,6.865-28.509,17.735l-61.245,124.111L27.213,172.621
				c-11.982,1.748-21.93,10.139-25.648,21.644c-3.75,11.505-0.636,24.123,8.041,32.577l99.13,96.619L85.343,459.903
				c-2.034,11.918,2.86,23.964,12.649,31.083c5.498,4.036,12.046,6.07,18.656,6.07c5.053,0,10.139-1.208,14.779-3.655
				l122.521-64.423L376.47,493.37c4.608,2.479,9.725,3.687,14.779,3.687c6.579,0,13.158-2.034,18.72-6.07
				c9.757-7.119,14.652-19.165,12.618-31.083L399.195,323.46l99.13-96.619C506.969,218.419,510.116,205.77,506.397,194.265z
				 M365.029,312.368l26.221,152.906l-137.3-72.178l-137.3,72.178l26.221-152.906L31.789,204.085l153.509-22.311l68.65-139.112
				l68.682,139.112l153.509,22.311L365.029,312.368z"/>
		</g>
	</g>
</g>
<g>
</g>
<g>
</g>
<g>
</g>
<g>
</g>
<g>
</g>
<g>
</g>
<g>
</g>
<g>
</g>
<g>
</g>
<g>
</g>
<g>
</g>
<g>
</g>
<g>
</g>
<g>
</g>
<g>
</g>
</svg>
