<?xml version="1.0" encoding="iso-8859-1"?>
<!-- Generator: Adobe Illustrator 19.0.0, SVG Export Plug-In . SVG Version: 6.00 Build 0)  -->
<svg version="1.1" id="Capa_1" xmlns="http://www.w3.org/2000/svg" xmlns:xlink="http://www.w3.org/1999/xlink" x="0px" y="0px"
	 viewBox="0 0 444.955 444.955" style="enable-background:new 0 0 444.955 444.955;" xml:space="preserve">
<g>
	<g>
		<g>
			<g>
				<path d="M381.39,222.477v63.565c0,17.512-14.27,31.782-31.782,31.782
					c-17.512,0-31.783-14.27-31.783-38.743v-61.626l-33.785,11.918l-29.78-11.918v61.594c0,59.56,42.779,102.34,95.347,102.34
					s95.347-42.779,95.347-95.347v-63.565H381.39z"/>
				<path d="M254.26,182.749l29.812,11.918l33.753-11.918V151.92c0-45.64-42.779-88.355-95.347-88.355
					s-95.347,42.747-95.347,95.347v127.13c0,17.512-14.27,31.782-31.782,31.782s-31.782-14.27-31.782-31.782v-63.565H0v63.565
					c0,52.568,42.779,95.347,95.347,95.347s95.347-42.779,95.347-95.347v-127.13c0-17.512,14.27-31.782,31.782-31.782
					c17.48,0,31.782,14.239,31.782,24.79V182.749z"/>
			</g>
		</g>
	</g>
</g>
<g>
</g>
<g>
</g>
<g>
</g>
<g>
</g>
<g>
</g>
<g>
</g>
<g>
</g>
<g>
</g>
<g>
</g>
<g>
</g>
<g>
</g>
<g>
</g>
<g>
</g>
<g>
</g>
<g>
</g>
</svg>
