<?xml version="1.0" encoding="iso-8859-1"?>
<!-- Generator: Adobe Illustrator 19.0.0, SVG Export Plug-In . SVG Version: 6.00 Build 0)  -->
<svg version="1.1" id="Capa_1" xmlns="http://www.w3.org/2000/svg" xmlns:xlink="http://www.w3.org/1999/xlink" x="0px" y="0px"
	 viewBox="0 0 508.52 508.52" style="enable-background:new 0 0 508.52 508.52;" xml:space="preserve">
<g>
	<g>
		<g>
			<path d="M413.172,0H95.347C42.684,0,0,42.684,0,95.347v317.825c0,52.664,42.684,95.347,95.347,95.347
				h317.825c52.664,0,95.347-42.684,95.347-95.347V95.347C508.52,42.684,465.836,0,413.172,0z M254.26,186.118
				c-12.522,0-22.724,10.202-22.724,22.724v90.866c0,37.567-30.575,68.205-68.142,68.205s-68.142-30.638-68.142-68.205V254.26
				h45.417v45.449c0,12.554,10.202,22.724,22.724,22.724c12.522,0,22.724-10.202,22.724-22.724v-90.866
				c0-37.567,30.575-68.142,68.142-68.142s68.173,30.575,68.173,63.184v22.025l-29.113,8.486l-16.368-8.518v-22.025
				C276.953,196.32,266.75,186.118,254.26,186.118z M413.268,299.709L413.268,299.709c-0.032,37.567-30.607,68.173-68.205,68.173
				s-68.173-30.607-68.173-73.195v-43.955l16.4,8.518l29.113-8.518v44.019c0,17.48,10.139,27.683,22.724,27.683
				c12.522,0,22.724-10.202,22.724-22.724V254.26h45.417V299.709L413.268,299.709z"/>
		</g>
	</g>
</g>
<g>
</g>
<g>
</g>
<g>
</g>
<g>
</g>
<g>
</g>
<g>
</g>
<g>
</g>
<g>
</g>
<g>
</g>
<g>
</g>
<g>
</g>
<g>
</g>
<g>
</g>
<g>
</g>
<g>
</g>
</svg>
