<?xml version="1.0" encoding="iso-8859-1"?>
<!-- Generator: Adobe Illustrator 19.0.0, SVG Export Plug-In . SVG Version: 6.00 Build 0)  -->
<svg version="1.1" id="Capa_1" xmlns="http://www.w3.org/2000/svg" xmlns:xlink="http://www.w3.org/1999/xlink" x="0px" y="0px"
	 viewBox="0 0 508.52 508.52" style="enable-background:new 0 0 508.52 508.52;" xml:space="preserve">
<g>
	<g>
		<g>
			<path d="M413.172,0H95.347C77.804,0,63.565,14.239,63.565,31.782v444.955
				c0,17.544,14.239,31.782,31.782,31.782h317.825c17.544,0,31.783-14.239,31.783-31.782V31.782C444.955,14.239,430.716,0,413.172,0
				z M254.26,494.631c-9.884,0-17.862-8.009-17.862-17.894s7.977-17.894,17.862-17.894c9.884,0,17.894,8.009,17.894,17.894
				S264.144,494.631,254.26,494.631z M381.39,444.955H127.13V63.565h254.26V444.955z"/>
		</g>
	</g>
</g>
<g>
</g>
<g>
</g>
<g>
</g>
<g>
</g>
<g>
</g>
<g>
</g>
<g>
</g>
<g>
</g>
<g>
</g>
<g>
</g>
<g>
</g>
<g>
</g>
<g>
</g>
<g>
</g>
<g>
</g>
</svg>
