<?xml version="1.0" encoding="iso-8859-1"?>
<!-- Generator: Adobe Illustrator 19.0.0, SVG Export Plug-In . SVG Version: 6.00 Build 0)  -->
<svg version="1.1" id="Capa_1" xmlns="http://www.w3.org/2000/svg" xmlns:xlink="http://www.w3.org/1999/xlink" x="0px" y="0px"
	 viewBox="0 0 508.679 508.679" style="enable-background:new 0 0 508.679 508.679;" xml:space="preserve">
<g>
	<g>
		<g>
			<path d="M446.114,0H276.459c-4.831,0.254-15.891,7.85-17.321,9.28L56.842,211.544
				c-12.395,12.395-12.395,32.45,0,44.877l25.235,25.235l-25.235,25.235c-12.395,12.427-12.395,32.45,0,44.877L204.503,499.43
				c6.198,6.198,14.302,9.249,22.438,9.249c8.136,0,16.241-3.051,22.438-9.249l202.295-202.264
				c1.462-1.43,9.439-11.251,9.439-17.321V15.828C461.528,6.929,454.822,0,446.114,0z M429.333,274.41l-0.095,0.286L227.005,476.96
				L79.344,329.394l25.235-25.235l99.956,99.956c6.198,6.198,14.302,9.312,22.438,9.312s16.241-3.115,22.438-9.312l179.921-179.921
				C429.333,224.194,429.333,274.41,429.333,274.41z M413.441,63.438c-8.74,0-15.891-7.119-15.891-15.891
				s7.151-15.891,15.891-15.891c8.708,0,15.891,7.119,15.891,15.891S422.15,63.438,413.441,63.438z"/>
		</g>
	</g>
</g>
<g>
</g>
<g>
</g>
<g>
</g>
<g>
</g>
<g>
</g>
<g>
</g>
<g>
</g>
<g>
</g>
<g>
</g>
<g>
</g>
<g>
</g>
<g>
</g>
<g>
</g>
<g>
</g>
<g>
</g>
</svg>
