<?xml version="1.0" encoding="iso-8859-1"?>
<!-- Generator: Adobe Illustrator 19.0.0, SVG Export Plug-In . SVG Version: 6.00 Build 0)  -->
<svg version="1.1" id="Capa_1" xmlns="http://www.w3.org/2000/svg" xmlns:xlink="http://www.w3.org/1999/xlink" x="0px" y="0px"
	 viewBox="0 0 508.647 508.647" style="enable-background:new 0 0 508.647 508.647;" xml:space="preserve">
<g>
	<g>
		<g>
			<g>
				<path d="M446.298,0H276.675c-4.863,0.254-15.923,7.85-17.353,9.28L57.027,211.544
					c-12.427,12.395-12.427,32.45,0,44.877l25.235,25.235l-25.235,25.235c-12.427,12.395-12.427,32.45,0,44.813l147.661,147.661
					c6.198,6.198,14.302,9.28,22.438,9.28c8.105,0,16.241-3.083,22.438-9.28l202.264-202.232c1.462-1.43,9.09-11.251,9.09-17.321
					V15.796C461.363,6.929,454.975,0,446.298,0z M429.517,274.442l-0.159,0.286l-202.2,202.264L79.497,329.394l25.235-25.299
					l99.956,99.988c6.198,6.198,14.302,9.28,22.438,9.28c8.105,0,16.241-3.083,22.438-9.28l179.952-179.921V274.442L429.517,274.442
					z M429.517,127.13v51.964l-0.159,0.254l-202.2,202.295L79.497,234.046L280.362,33.149l2.129-1.367h146.994v95.347H429.517z"/>
				<circle style="fill:#000000;" cx="381.844" cy="79.329" r="15.891"/>
			</g>
		</g>
	</g>
</g>
<g>
</g>
<g>
</g>
<g>
</g>
<g>
</g>
<g>
</g>
<g>
</g>
<g>
</g>
<g>
</g>
<g>
</g>
<g>
</g>
<g>
</g>
<g>
</g>
<g>
</g>
<g>
</g>
<g>
</g>
</svg>
