<?xml version="1.0" encoding="iso-8859-1"?>
<!-- Generator: Adobe Illustrator 19.0.0, SVG Export Plug-In . SVG Version: 6.00 Build 0)  -->
<svg version="1.1" id="Capa_1" xmlns="http://www.w3.org/2000/svg" xmlns:xlink="http://www.w3.org/1999/xlink" x="0px" y="0px"
	 viewBox="0 0 446.081 446.081" style="enable-background:new 0 0 446.081 446.081;" xml:space="preserve">
<g>
	<g>
		<g>
			<path d="M444.413,339.307c-1.034-2.006-25.84-49.156-94.512-65.815c-4.773-1.246-9.697,0.03-13.376,3.192
				c-21.675,18.452-51.618,38.243-64.538,40.218c-86.639-42.346-134.974-123.604-136.798-139.017
				c-1.064-8.664,18.787-39.094,41.617-63.839c2.888-3.131,4.347-7.387,3.952-11.643c-5.806-66.788-75.482-99.558-78.431-100.896
				c-2.797-1.277-5.897-1.672-8.877-1.155C13.015,13.698,0.916,60.513,0.429,62.459c-0.669,2.736-0.547,5.563,0.304,8.208
				c95.941,297.672,295.331,352.847,360.903,371.056l12.312,3.557l4.682,0.669l6.293-1.368c2.006-0.912,49.369-23.225,60.951-96.002
				C446.42,345.448,445.873,342.164,444.413,339.307z"/>
		</g>
	</g>
	<g>
	</g>
	<g>
	</g>
	<g>
	</g>
	<g>
	</g>
	<g>
	</g>
	<g>
	</g>
	<g>
	</g>
	<g>
	</g>
	<g>
	</g>
	<g>
	</g>
	<g>
	</g>
	<g>
	</g>
	<g>
	</g>
	<g>
	</g>
	<g>
	</g>
</g>
<g>
</g>
<g>
</g>
<g>
</g>
<g>
</g>
<g>
</g>
<g>
</g>
<g>
</g>
<g>
</g>
<g>
</g>
<g>
</g>
<g>
</g>
<g>
</g>
<g>
</g>
<g>
</g>
<g>
</g>
</svg>
