<?xml version="1.0" encoding="iso-8859-1"?>
<!-- Generator: Adobe Illustrator 19.0.0, SVG Export Plug-In . SVG Version: 6.00 Build 0)  -->
<svg version="1.1" id="Capa_1" xmlns="http://www.w3.org/2000/svg" xmlns:xlink="http://www.w3.org/1999/xlink" x="0px" y="0px"
	 viewBox="0 0 508.52 508.52" style="enable-background:new 0 0 508.52 508.52;" xml:space="preserve">
<g>
	<g>
		<path d="M444.955,63.565h-31.783V31.782C413.172,14.239,398.934,0,381.39,0H63.565
			C46.021,0,31.782,14.239,31.782,31.782v381.39c0,17.544,14.239,31.783,31.782,31.783h31.782v31.782
			c0,17.544,14.239,31.782,31.782,31.782h317.825c17.544,0,31.782-14.239,31.782-31.782V95.347
			C476.737,77.804,462.499,63.565,444.955,63.565z M205.251,63.565h128.465c8.74,0,15.891,7.119,15.891,15.891
			s-7.151,15.891-15.891,15.891H205.251c-8.772,0-15.891-7.119-15.891-15.891S196.479,63.565,205.251,63.565z M109.904,158.912
			h223.812c8.74,0,15.891,7.119,15.891,15.891c0,8.772-7.151,15.891-15.891,15.891H109.904c-8.772,0-15.891-7.119-15.891-15.891
			C94.013,166.032,101.132,158.912,109.904,158.912z M109.904,254.26h223.812c8.74,0,15.891,7.119,15.891,15.891
			c0,8.74-7.151,15.891-15.891,15.891H109.904c-8.772,0-15.891-7.151-15.891-15.891C94.013,261.379,101.132,254.26,109.904,254.26z
			 M109.904,381.39c-8.772,0-15.891-7.151-15.891-15.891s7.119-15.891,15.891-15.891h223.812c8.74,0,15.891,7.151,15.891,15.891
			s-7.151,15.891-15.891,15.891H109.904z M444.955,476.737H127.13v-31.782h254.26c17.544,0,31.782-14.239,31.782-31.783V95.347
			h31.783V476.737z"/>
	</g>
</g>
<g>
</g>
<g>
</g>
<g>
</g>
<g>
</g>
<g>
</g>
<g>
</g>
<g>
</g>
<g>
</g>
<g>
</g>
<g>
</g>
<g>
</g>
<g>
</g>
<g>
</g>
<g>
</g>
<g>
</g>
</svg>
