<?xml version="1.0" encoding="iso-8859-1"?>
<!-- Generator: Adobe Illustrator 19.0.0, SVG Export Plug-In . SVG Version: 6.00 Build 0)  -->
<svg version="1.1" id="Capa_1" xmlns="http://www.w3.org/2000/svg" xmlns:xlink="http://www.w3.org/1999/xlink" x="0px" y="0px"
	 viewBox="0 0 476.737 476.737" style="enable-background:new 0 0 476.737 476.737;" xml:space="preserve">
<g>
	<g>
		<g>
			<path d="M238.369,0C106.726,0,0,106.726,0,238.369c0,131.675,106.726,238.369,238.369,238.369
				c131.675,0,238.369-106.694,238.369-238.369C476.737,106.726,370.043,0,238.369,0z M344.967,217.837
				c-6.134,6.198-16.273,6.198-22.47,0L254.26,149.6v247.681c0,8.74-7.151,15.891-15.891,15.891
				c-8.772,0-15.891-7.151-15.891-15.891V149.6l-68.205,68.237c-6.198,6.198-16.273,6.198-22.47,0s-6.198-16.273,0-22.47
				l95.347-95.347l0.095-0.095l5.022-3.337c3.877-1.621,8.263-1.621,12.109,0l5.212,3.401l95.347,95.347
				C351.165,201.564,351.165,211.608,344.967,217.837z"/>
		</g>
	</g>
</g>
<g>
</g>
<g>
</g>
<g>
</g>
<g>
</g>
<g>
</g>
<g>
</g>
<g>
</g>
<g>
</g>
<g>
</g>
<g>
</g>
<g>
</g>
<g>
</g>
<g>
</g>
<g>
</g>
<g>
</g>
</svg>
