<?xml version="1.0" encoding="iso-8859-1"?>
<!-- Generator: Adobe Illustrator 19.0.0, SVG Export Plug-In . SVG Version: 6.00 Build 0)  -->
<svg version="1.1" id="Capa_1" xmlns="http://www.w3.org/2000/svg" xmlns:xlink="http://www.w3.org/1999/xlink" x="0px" y="0px"
	 viewBox="0 0 474.608 474.608" style="enable-background:new 0 0 474.608 474.608;" xml:space="preserve">
<g>
	<g>
		<path d="M405.099,69.514c-92.678-92.678-242.945-92.678-335.591,0c-92.678,92.678-92.678,242.945,0,335.591
			s242.945,92.678,335.591,0C497.777,312.428,497.777,162.16,405.099,69.514z M363.369,252.136H236.875l-0.636,0.127
			c-8.772,0-15.891-7.151-15.891-15.891V77.333c0-8.772,7.119-15.891,15.891-15.891c8.772,0,15.891,7.119,15.891,15.891v143.021
			h111.239c8.772,0,15.891,7.119,15.891,15.891C379.26,245.017,372.141,252.136,363.369,252.136z"/>
	</g>
</g>
<g>
</g>
<g>
</g>
<g>
</g>
<g>
</g>
<g>
</g>
<g>
</g>
<g>
</g>
<g>
</g>
<g>
</g>
<g>
</g>
<g>
</g>
<g>
</g>
<g>
</g>
<g>
</g>
<g>
</g>
</svg>
