<?xml version="1.0" encoding="iso-8859-1"?>
<!-- Generator: Adobe Illustrator 19.0.0, SVG Export Plug-In . SVG Version: 6.00 Build 0)  -->
<svg version="1.1" id="Capa_1" xmlns="http://www.w3.org/2000/svg" xmlns:xlink="http://www.w3.org/1999/xlink" x="0px" y="0px"
	 viewBox="0 0 508.52 508.52" style="enable-background:new 0 0 508.52 508.52;" xml:space="preserve">
<g>
	<g>
		<g>
			<path d="M476.737,111.239h-127.13V79.456c0-17.544-14.239-31.782-31.783-31.782h-127.13
				c-17.544,0-31.782,14.239-31.782,31.782v31.782H31.782C14.239,111.239,0,125.477,0,143.021v286.042
				c0,17.544,14.239,31.783,31.782,31.783h444.955c17.544,0,31.782-14.239,31.782-31.783V143.021
				C508.52,125.477,494.281,111.239,476.737,111.239z M190.695,79.456h127.13v31.782h-127.13V79.456z M476.737,429.063H31.782
				V238.369h127.13v31.782c0,17.544,14.239,31.782,31.782,31.782h127.13c17.544,0,31.783-14.239,31.783-31.782v-31.782h127.13
				V429.063z M190.695,238.369h127.13v31.782h-127.13V238.369z M476.737,206.586H317.825h-127.13H31.782v-63.565h158.912h127.13
				h158.912V206.586z"/>
		</g>
	</g>
</g>
<g>
</g>
<g>
</g>
<g>
</g>
<g>
</g>
<g>
</g>
<g>
</g>
<g>
</g>
<g>
</g>
<g>
</g>
<g>
</g>
<g>
</g>
<g>
</g>
<g>
</g>
<g>
</g>
<g>
</g>
</svg>
