<?xml version="1.0" encoding="iso-8859-1"?>
<!-- Generator: Adobe Illustrator 19.0.0, SVG Export Plug-In . SVG Version: 6.00 Build 0)  -->
<svg version="1.1" id="Capa_1" xmlns="http://www.w3.org/2000/svg" xmlns:xlink="http://www.w3.org/1999/xlink" x="0px" y="0px"
	 viewBox="0 0 508.52 508.52" style="enable-background:new 0 0 508.52 508.52;" xml:space="preserve">
<g>
	<g>
		<g>
			<g>
				<path d="M397.281,31.782h-63.565C333.716,14.239,319.478,0,301.934,0h-95.347
					c-17.544,0-31.782,14.239-31.782,31.782h-63.565c-17.544,0-31.782,14.239-31.782,31.782h349.607
					C429.063,46.021,414.825,31.782,397.281,31.782z"/>
				<path d="M79.456,476.737c0,17.544,14.239,31.782,31.782,31.782h286.042
					c17.544,0,31.782-14.239,31.782-31.782V95.347H79.456V476.737z M111.239,127.13h286.042v349.607H111.239V127.13z"/>
				<path d="M158.912,158.912c-8.772,0-15.891,7.119-15.891,15.891v254.26c0,8.74,7.119,15.891,15.891,15.891
					c8.772,0,15.891-7.151,15.891-15.891v-254.26C174.804,166.032,167.684,158.912,158.912,158.912z"/>
				<path d="M254.26,158.912c-8.772,0-15.891,7.119-15.891,15.891v254.26c0,8.74,7.119,15.891,15.891,15.891
					c8.74,0,15.891-7.151,15.891-15.891v-254.26C270.151,166.032,263,158.912,254.26,158.912z"/>
				<path d="M349.607,158.912c-8.74,0-15.891,7.119-15.891,15.891v254.26c0,8.74,7.151,15.891,15.891,15.891
					c8.74,0,15.891-7.151,15.891-15.891v-254.26C365.499,166.032,358.347,158.912,349.607,158.912z"/>
			</g>
		</g>
	</g>
</g>
<g>
</g>
<g>
</g>
<g>
</g>
<g>
</g>
<g>
</g>
<g>
</g>
<g>
</g>
<g>
</g>
<g>
</g>
<g>
</g>
<g>
</g>
<g>
</g>
<g>
</g>
<g>
</g>
<g>
</g>
</svg>
