<?xml version="1.0" encoding="iso-8859-1"?>
<!-- Generator: Adobe Illustrator 19.0.0, SVG Export Plug-In . SVG Version: 6.00 Build 0)  -->
<svg version="1.1" id="Capa_1" xmlns="http://www.w3.org/2000/svg" xmlns:xlink="http://www.w3.org/1999/xlink" x="0px" y="0px"
	 viewBox="0 0 508.52 508.52" style="enable-background:new 0 0 508.52 508.52;" xml:space="preserve">
<g>
	<g>
		<path d="M413.172,0H95.347C42.684,0,0,42.684,0,95.347v317.825c0,52.664,42.684,95.347,95.347,95.347
			h317.825c52.664,0,95.347-42.684,95.347-95.347V95.347C508.52,42.684,465.836,0,413.172,0z M349.576,235.19h-76.246v69.794
			c0,17.703-0.254,27.873,1.621,32.895c1.907,4.99,6.515,10.17,11.601,13.158c6.77,4.068,14.461,6.07,23.169,6.07
			c15.446,0,24.568-2.034,39.855-12.109v45.926c-13.031,6.134-24.409,9.725-34.961,12.204c-10.584,2.447-21.993,3.687-34.293,3.687
			c-13.953,0-22.184-1.748-32.895-5.276c-10.711-3.496-19.864-8.581-27.428-15.065c-7.596-6.515-12.808-13.476-15.764-20.818
			c-2.924-7.342-4.386-17.957-4.386-31.941v-106.98h-40.904v-43.224c11.982-3.877,25.394-9.471,33.912-16.749
			c8.549-7.278,15.415-15.987,20.595-26.189c5.149-10.139,8.708-23.138,10.679-38.87h49.199v76.278h76.246
			C349.576,177.982,349.576,235.19,349.576,235.19z"/>
	</g>
</g>
<g>
</g>
<g>
</g>
<g>
</g>
<g>
</g>
<g>
</g>
<g>
</g>
<g>
</g>
<g>
</g>
<g>
</g>
<g>
</g>
<g>
</g>
<g>
</g>
<g>
</g>
<g>
</g>
<g>
</g>
</svg>
