<?xml version="1.0" encoding="iso-8859-1"?>
<!-- Generator: Adobe Illustrator 19.0.0, SVG Export Plug-In . SVG Version: 6.00 Build 0)  -->
<svg version="1.1" id="Capa_1" xmlns="http://www.w3.org/2000/svg" xmlns:xlink="http://www.w3.org/1999/xlink" x="0px" y="0px"
	 viewBox="0 0 508.52 508.52" style="enable-background:new 0 0 508.52 508.52;" xml:space="preserve">
<g>
	<g>
		<g>
			<path d="M286.026,222.477h127.098V127.13H286.026V0h-81.999c-3.242,26.221-9.217,47.864-17.83,64.804
				c-8.613,17.004-20.055,31.528-34.325,43.669c-14.175,12.109-36.486,21.421-56.477,27.905v86.099h68.237v164.252H163.6
				c0,23.201,2.447,40.999,7.31,53.236c4.895,12.268,13.603,23.805,26.252,34.675c12.586,10.806,27.841,19.228,45.703,25.14
				c17.894,5.848,31.56,8.74,54.825,8.74c20.5,0,39.474-2.034,57.145-6.134c17.607-4.163,36.518-10.075,58.257-20.341v-76.469
				c-25.458,16.749-40.682,20.15-66.425,20.15c-14.461,0-27.301-3.305-38.616-10.075c-8.518-4.99-16.209-13.698-19.324-21.93
				c-3.146-8.359-2.765-25.362-2.765-54.888L286.026,222.477z"/>
		</g>
	</g>
</g>
<g>
</g>
<g>
</g>
<g>
</g>
<g>
</g>
<g>
</g>
<g>
</g>
<g>
</g>
<g>
</g>
<g>
</g>
<g>
</g>
<g>
</g>
<g>
</g>
<g>
</g>
<g>
</g>
<g>
</g>
</svg>
