<?xml version="1.0" encoding="iso-8859-1"?>
<!-- Generator: Adobe Illustrator 19.0.0, SVG Export Plug-In . SVG Version: 6.00 Build 0)  -->
<svg version="1.1" id="Capa_1" xmlns="http://www.w3.org/2000/svg" xmlns:xlink="http://www.w3.org/1999/xlink" x="0px" y="0px"
	 viewBox="0 0 474.449 474.449" style="enable-background:new 0 0 474.449 474.449;" xml:space="preserve">
<g>
	<g>
		<g>
			<path d="M237.24,0C106.233,0,0.016,106.217,0.016,237.224S106.233,474.449,237.24,474.449
				s237.193-106.217,237.193-237.224S368.248,0,237.24,0z M127.909,354.502c-6.229-6.229-6.229-16.4,0-22.597l84.224-95.22
				l-84.224-95.252c-6.229-6.261-6.229-16.4,0-22.629c6.229-6.229,16.368-6.229,22.597,0l94.013,106.312
				c3.21,3.178,4.704,7.342,4.64,11.473c0.127,4.227-1.398,8.391-4.545,11.569l-94.044,106.344
				C144.277,360.763,134.17,360.763,127.909,354.502z M358.618,248.189l-94.044,106.344c-6.229,6.198-16.4,6.198-22.597,0
				c-6.261-6.229-6.261-16.4,0-22.597l84.192-95.22l-84.224-95.252c-6.261-6.229-6.261-16.368,0-22.597
				c6.198-6.229,16.368-6.229,22.597,0l94.044,106.312c3.21,3.178,4.672,7.342,4.64,11.505
				C363.226,240.848,361.764,245.011,358.618,248.189z"/>
		</g>
	</g>
</g>
<g>
</g>
<g>
</g>
<g>
</g>
<g>
</g>
<g>
</g>
<g>
</g>
<g>
</g>
<g>
</g>
<g>
</g>
<g>
</g>
<g>
</g>
<g>
</g>
<g>
</g>
<g>
</g>
<g>
</g>
</svg>
