<?xml version="1.0" encoding="iso-8859-1"?>
<!-- Generator: Adobe Illustrator 19.0.0, SVG Export Plug-In . SVG Version: 6.00 Build 0)  -->
<svg version="1.1" id="Capa_1" xmlns="http://www.w3.org/2000/svg" xmlns:xlink="http://www.w3.org/1999/xlink" x="0px" y="0px"
	 viewBox="0 0 245.059 245.059" style="enable-background:new 0 0 245.059 245.059;" xml:space="preserve">
<g>
	<g>
		<g>
			<path d="M217.774,121.224l-95.252,84.224l-95.22-84.224c-6.229-6.229-16.368-6.229-22.597,0
				s-6.229,16.368,0,22.566l106.312,94.044c3.178,3.21,7.342,4.704,11.505,4.64c4.164,0.095,8.327-1.398,11.505-4.545
				l106.344-94.044c6.198-6.229,6.198-16.4,0-22.597C234.11,115.027,223.971,114.995,217.774,121.224z"/>
			<path d="M110.984,123.894c3.178,3.178,7.342,4.704,11.505,4.64c4.164,0.064,8.359-1.462,11.505-4.64
				L240.307,29.85c6.325-6.229,6.325-16.336,0.064-22.597c-6.229-6.229-16.4-6.229-22.597,0l-95.252,84.224L27.301,7.252
				c-6.261-6.229-16.4-6.229-22.629,0s-6.229,16.368,0,22.597L110.984,123.894z"/>
		</g>
	</g>
</g>
<g>
</g>
<g>
</g>
<g>
</g>
<g>
</g>
<g>
</g>
<g>
</g>
<g>
</g>
<g>
</g>
<g>
</g>
<g>
</g>
<g>
</g>
<g>
</g>
<g>
</g>
<g>
</g>
<g>
</g>
</svg>
