<?xml version="1.0" encoding="iso-8859-1"?>
<!-- Generator: Adobe Illustrator 19.0.0, SVG Export Plug-In . SVG Version: 6.00 Build 0)  -->
<svg version="1.1" id="Capa_1" xmlns="http://www.w3.org/2000/svg" xmlns:xlink="http://www.w3.org/1999/xlink" x="0px" y="0px"
	 viewBox="0 0 508.52 508.52" style="enable-background:new 0 0 508.52 508.52;" xml:space="preserve">
<g>
	<g>
		<g>
			<path d="M444.955,190.695h-288.49V161.36c0-53.935,43.86-97.795,97.795-97.795
				c35.533,0,66.457,19.197,83.556,47.642l0.636-0.477c5.816,8.2,14.874,13.921,25.648,13.921c17.544,0,31.783-14.239,31.783-31.782
				c0-4.291-0.89-8.391-2.447-12.141l-0.35-0.699c-1.398-3.178-3.401-5.975-5.784-8.486C358.347,28.604,309.943,0,254.26,0
				C165.142,0,92.9,72.242,92.9,161.36v29.335H63.565c-17.544,0-31.782,14.239-31.782,31.782v254.26
				c0,17.544,14.239,31.782,31.782,31.782h381.39c17.544,0,31.782-14.239,31.782-31.782v-254.26
				C476.737,204.933,462.499,190.695,444.955,190.695z M254.26,413.172c-35.12,0-63.565-28.445-63.565-63.565
				s28.445-63.565,63.565-63.565s63.565,28.445,63.565,63.565S289.379,413.172,254.26,413.172z"/>
		</g>
	</g>
</g>
<g>
</g>
<g>
</g>
<g>
</g>
<g>
</g>
<g>
</g>
<g>
</g>
<g>
</g>
<g>
</g>
<g>
</g>
<g>
</g>
<g>
</g>
<g>
</g>
<g>
</g>
<g>
</g>
<g>
</g>
</svg>
