<?xml version="1.0" encoding="iso-8859-1"?>
<!-- Generator: Adobe Illustrator 19.0.0, SVG Export Plug-In . SVG Version: 6.00 Build 0)  -->
<svg version="1.1" id="Capa_1" xmlns="http://www.w3.org/2000/svg" xmlns:xlink="http://www.w3.org/1999/xlink" x="0px" y="0px"
	 viewBox="0 0 476.761 476.761" style="enable-background:new 0 0 476.761 476.761;" xml:space="preserve">
<g>
	<g>
		<g>
			<path d="M406.991,69.818c-93.154-93.091-244.058-93.091-337.149,0s-93.091,244.026,0,337.149
				c93.091,93.059,244.058,93.059,337.149,0C499.986,313.844,499.986,162.877,406.991,69.818z M349.655,277.834
				c0,8.772-7.183,15.891-15.891,15.891c-8.74,0-15.891-7.087-15.891-15.891v-96.492L142.751,356.464
				c-6.198,6.198-16.273,6.198-22.47,0c-6.198-6.198-6.198-16.273,0-22.47l175.121-175.121h-96.523
				c-8.772,0-15.891-7.119-15.891-15.891c0-8.772,7.119-15.891,15.891-15.891h134.885l6.039,1.24
				c3.846,1.621,7.024,4.704,8.613,8.581l1.24,6.102V277.834z"/>
		</g>
	</g>
</g>
<g>
</g>
<g>
</g>
<g>
</g>
<g>
</g>
<g>
</g>
<g>
</g>
<g>
</g>
<g>
</g>
<g>
</g>
<g>
</g>
<g>
</g>
<g>
</g>
<g>
</g>
<g>
</g>
<g>
</g>
</svg>
