<?xml version="1.0" encoding="iso-8859-1"?>
<!-- Generator: Adobe Illustrator 19.0.0, SVG Export Plug-In . SVG Version: 6.00 Build 0)  -->
<svg version="1.1" id="Capa_1" xmlns="http://www.w3.org/2000/svg" xmlns:xlink="http://www.w3.org/1999/xlink" x="0px" y="0px"
	 viewBox="0 0 508.496 508.496" style="enable-background:new 0 0 508.496 508.496;" xml:space="preserve">
<g>
	<g>
		<g>
			<path d="M306.602,417.789l-36.423,36.455V54.229l36.423,36.455c6.134,6.166,16.273,6.166,22.47,0
				c6.134-6.198,6.134-16.304,0-22.47L265.507,4.648l-5.149-3.433c-3.909-1.621-8.263-1.621-12.141,0l-5.053,3.337l-0.127,0.064
				l-63.565,63.565c-6.198,6.166-6.198,16.273,0,22.47c6.198,6.166,16.273,6.166,22.47,0l36.454-36.423v400.014l-36.423-36.423
				c-6.198-6.198-16.273-6.198-22.47,0c-6.198,6.134-6.198,16.273,0,22.47l63.565,63.565l0.127,0.095l5.022,3.305
				c3.877,1.653,8.232,1.653,12.141,0l5.149-3.401l63.565-63.565c6.134-6.198,6.134-16.336,0-22.47
				C322.874,411.591,312.799,411.591,306.602,417.789z"/>
		</g>
	</g>
</g>
<g>
</g>
<g>
</g>
<g>
</g>
<g>
</g>
<g>
</g>
<g>
</g>
<g>
</g>
<g>
</g>
<g>
</g>
<g>
</g>
<g>
</g>
<g>
</g>
<g>
</g>
<g>
</g>
<g>
</g>
</svg>
