<?xml version="1.0" encoding="iso-8859-1"?>
<!-- Generator: Adobe Illustrator 18.1.1, SVG Export Plug-In . SVG Version: 6.00 Build 0)  -->
<svg version="1.1" id="Capa_1" xmlns="http://www.w3.org/2000/svg" xmlns:xlink="http://www.w3.org/1999/xlink" x="0px" y="0px"
	 viewBox="0 0 11.999 11.999" style="enable-background:new 0 0 11.999 11.999;" xml:space="preserve">
<g>
	<g>
		<path d="M9.354,3.145l-3-3L6.191,0.038c-0.123-0.051-0.26-0.051-0.382,0L5.65,0.143L5.646,0.145l-3,3
			c-0.195,0.195-0.195,0.512,0,0.707s0.512,0.195,0.707,0L5.5,1.706v9.793c0,0.274,0.224,0.5,0.5,0.5c0.275,0,0.5-0.226,0.5-0.5
			V1.706l2.146,2.146c0.193,0.195,0.512,0.195,0.707,0C9.548,3.657,9.548,3.339,9.354,3.145z"/>
	</g>
</g>
<g>
</g>
<g>
</g>
<g>
</g>
<g>
</g>
<g>
</g>
<g>
</g>
<g>
</g>
<g>
</g>
<g>
</g>
<g>
</g>
<g>
</g>
<g>
</g>
<g>
</g>
<g>
</g>
<g>
</g>
</svg>
