<?xml version="1.0" encoding="iso-8859-1"?>
<!-- Generator: Adobe Illustrator 19.0.0, SVG Export Plug-In . SVG Version: 6.00 Build 0)  -->
<svg version="1.1" id="Capa_1" xmlns="http://www.w3.org/2000/svg" xmlns:xlink="http://www.w3.org/1999/xlink" x="0px" y="0px"
	 viewBox="0 0 508.52 508.52" style="enable-background:new 0 0 508.52 508.52;" xml:space="preserve">
<g>
	<g>
		<g>
			<g>
				<path d="M413.172,0H95.347C42.684,0,0,42.684,0,95.347v317.825c0,52.664,42.684,95.347,95.347,95.347
					h317.825c52.664,0,95.347-42.684,95.347-95.347V95.347C508.52,42.684,465.836,0,413.172,0z M410.471,311.182
					c-1.716,21.167-17.798,48.182-40.268,52.091c-71.987,5.594-157.292,4.895-231.853,0c-23.265-2.924-38.552-30.956-40.268-52.091
					c-3.623-44.432-3.623-69.731,0-114.163c1.716-21.135,17.385-49.009,40.268-51.551c73.704-6.198,159.485-4.863,231.853,0
					c25.871,0.953,38.552,27.619,40.268,48.786C414.03,238.686,414.03,266.75,410.471,311.182z"/>
				<polygon style="fill:#000000;" points="222.477,317.825 317.825,254.26 222.477,190.695 				"/>
			</g>
		</g>
	</g>
</g>
<g>
</g>
<g>
</g>
<g>
</g>
<g>
</g>
<g>
</g>
<g>
</g>
<g>
</g>
<g>
</g>
<g>
</g>
<g>
</g>
<g>
</g>
<g>
</g>
<g>
</g>
<g>
</g>
<g>
</g>
</svg>
