<?xml version="1.0" encoding="iso-8859-1"?>
<!-- Generator: Adobe Illustrator 19.0.0, SVG Export Plug-In . SVG Version: 6.00 Build 0)  -->
<svg version="1.1" id="Capa_1" xmlns="http://www.w3.org/2000/svg" xmlns:xlink="http://www.w3.org/1999/xlink" x="0px" y="0px"
	 viewBox="0 0 508.537 508.537" style="enable-background:new 0 0 508.537 508.537;" xml:space="preserve">
<g>
	<g>
		<g>
			<path d="M291.7,151.834c58.067-34.865,89.15,14.175,59.338,69.699
				c-29.685,55.492-56.795,91.661-70.97,91.661s-25.076-37.122-41.317-102.022c-16.781-67.093-16.686-187.93-86.48-174.232
				C86.48,49.876,0,153.137,0,153.137l20.659,27.079c0,0,42.589-33.562,56.795-16.781c14.175,16.781,68.364,219.458,86.48,256.866
				c15.796,32.736,59.338,76.151,107.139,45.195c47.737-31.02,206.491-166.477,234.936-326.565
				C534.391-21.094,314.964,12.436,291.7,151.834z"/>
		</g>
	</g>
</g>
<g>
</g>
<g>
</g>
<g>
</g>
<g>
</g>
<g>
</g>
<g>
</g>
<g>
</g>
<g>
</g>
<g>
</g>
<g>
</g>
<g>
</g>
<g>
</g>
<g>
</g>
<g>
</g>
<g>
</g>
</svg>
