<?xml version="1.0" encoding="iso-8859-1"?>
<!-- Generator: Adobe Illustrator 19.0.0, SVG Export Plug-In . SVG Version: 6.00 Build 0)  -->
<svg version="1.1" id="Capa_1" xmlns="http://www.w3.org/2000/svg" xmlns:xlink="http://www.w3.org/1999/xlink" x="0px" y="0px"
	 viewBox="0 0 508.52 508.52" style="enable-background:new 0 0 508.52 508.52;" xml:space="preserve">
<g>
	<g>
		<g>
			<path d="M397.281,190.695c-8.74,0-15.891,7.119-15.891,15.891v47.674c0,83.461-64.01,127.13-127.13,127.13
				c-61.245,0-127.13-39.792-127.13-127.13v-47.674c0-8.772-7.119-15.891-15.891-15.891s-15.891,7.119-15.891,15.891v47.674
				c0,90.262,59.846,143.212,127.13,155.861v66.616h-47.674c-8.772,0-15.891,7.151-15.891,15.891s7.119,15.891,15.891,15.891
				h158.912c8.74,0,15.891-7.151,15.891-15.891s-7.151-15.891-15.891-15.891h-47.674V409.93
				c66.203-13.094,127.13-66.68,127.13-155.671v-47.674C413.172,197.814,406.021,190.695,397.281,190.695z"/>
			<path d="M254.26,349.607c52.568,0,95.347-42.779,95.347-95.347V95.347C349.607,42.779,306.828,0,254.26,0
				s-95.347,42.779-95.347,95.347V254.26C158.912,306.828,201.692,349.607,254.26,349.607z M190.695,95.347
				c0-35.12,28.445-63.565,63.565-63.565s63.565,28.445,63.565,63.565V254.26c0,35.12-28.445,63.565-63.565,63.565
				s-63.565-28.445-63.565-63.565V95.347z"/>
		</g>
	</g>
</g>
<g>
</g>
<g>
</g>
<g>
</g>
<g>
</g>
<g>
</g>
<g>
</g>
<g>
</g>
<g>
</g>
<g>
</g>
<g>
</g>
<g>
</g>
<g>
</g>
<g>
</g>
<g>
</g>
<g>
</g>
</svg>
