<?xml version="1.0" encoding="iso-8859-1"?>
<!-- Generator: Adobe Illustrator 19.0.0, SVG Export Plug-In . SVG Version: 6.00 Build 0)  -->
<svg version="1.1" id="Capa_1" xmlns="http://www.w3.org/2000/svg" xmlns:xlink="http://www.w3.org/1999/xlink" x="0px" y="0px"
	 viewBox="0 0 508.52 508.52" style="enable-background:new 0 0 508.52 508.52;" xml:space="preserve">
<g>
	<g>
		<g>
			<path d="M413.172,0H95.347C42.684,0,0,42.684,0,95.347v317.825c0,52.664,42.684,95.347,95.347,95.347
				h317.825c52.664,0,95.347-42.684,95.347-95.347V95.347C508.52,42.684,465.836,0,413.172,0z M58.48,254.26
				c0-27.651,6.102-53.903,16.972-77.581l93.377,249.206C103.516,394.961,58.48,329.743,58.48,254.26z M254.26,444.955
				c-19.228,0-37.758-2.733-55.301-7.755l61.277-160.088l57.653,154.399l1.398,2.638C298.946,441.141,277.08,444.955,254.26,444.955
				z M281.211,164.856c11.76-0.604,22.375-1.812,22.375-1.812c10.584-1.24,9.344-16.304-1.208-15.732c0,0-31.719,2.415-52.219,2.415
				c-19.228,0-51.551-2.415-51.551-2.415c-10.52-0.572-11.759,15.128-1.24,15.732c0,0,9.98,1.208,20.531,1.78l30.511,81.427
				l-46.784,125.191l-67.347-206.586c11.791-0.604,22.407-1.812,22.407-1.812c10.552-1.24,9.312-16.304-1.24-15.732
				c0,0-31.719,2.415-52.187,2.415l-12.586-0.222c35.024-51.742,95.189-85.94,163.584-85.94c50.979,0,97.382,19.006,132.215,50.057
				l-2.543-0.159c-19.228,0-32.895,16.304-32.895,33.848c0,15.732,9.312,29.017,19.228,44.75
				c7.405,12.713,12.713,19.737,12.713,43.288c0,16.304-6.388,35.31-14.874,61.658l-19.546,63.501L281.211,164.856z
				 M352.658,419.084l59.846-168.352c11.187-27.206,14.842-48.945,14.842-68.301c0-7.024-0.445-13.539-1.303-19.61
				c15.319,27.142,24.028,58.321,24.028,91.47C450.04,324.626,410.884,386.03,352.658,419.084z"/>
		</g>
	</g>
</g>
<g>
</g>
<g>
</g>
<g>
</g>
<g>
</g>
<g>
</g>
<g>
</g>
<g>
</g>
<g>
</g>
<g>
</g>
<g>
</g>
<g>
</g>
<g>
</g>
<g>
</g>
<g>
</g>
<g>
</g>
</svg>
