<?xml version="1.0" encoding="iso-8859-1"?>
<!-- Generator: Adobe Illustrator 19.0.0, SVG Export Plug-In . SVG Version: 6.00 Build 0)  -->
<svg version="1.1" id="Capa_1" xmlns="http://www.w3.org/2000/svg" xmlns:xlink="http://www.w3.org/1999/xlink" x="0px" y="0px"
	 viewBox="0 0 508.52 508.52" style="enable-background:new 0 0 508.52 508.52;" xml:space="preserve">
<g>
	<g>
		<g>
			<path d="M254.26,0C113.845,0,0,113.845,0,254.26s113.845,254.26,254.26,254.26
				s254.26-113.845,254.26-254.26S394.675,0,254.26,0z M36.327,254.26c0-30.765,6.801-60.005,18.879-86.385l103.96,277.397
				C86.448,410.884,36.327,338.261,36.327,254.26z M254.26,466.567c-21.39,0-42.016-3.083-61.563-8.613l65.377-185.101
				l66.934,178.745l1.557,2.956C303.968,462.276,279.654,466.567,254.26,466.567z M284.231,154.749
				c13.094-0.667,24.949-2.002,24.949-2.002c11.728-1.367,10.361-18.148-1.367-17.512c0,0-35.31,2.702-58.13,2.702
				c-21.39,0-57.399-2.702-57.399-2.702c-11.759-0.667-13.126,16.813-1.398,17.512c0,0,11.124,1.335,22.852,2.002l33.975,90.612
				l-47.706,139.334l-79.329-229.914c13.158-0.667,24.949-2.002,24.949-2.002c11.728-1.367,10.361-18.148-1.367-17.512
				c0,0-35.31,2.702-58.067,2.702l-14.016-0.254c38.934-57.622,105.931-95.697,182.05-95.697
				c56.732,0,108.378,21.135,147.185,55.715l-2.829-0.191c-21.421,0-36.582,18.148-36.582,37.662
				c0,17.512,10.329,32.291,21.358,49.803c8.391,14.175,17.989,32.323,17.989,58.543c0,18.148-7.151,39.22-16.559,68.65
				l-21.771,70.716L284.231,154.749z M363.814,437.677l66.584-187.421c12.459-30.289,16.559-54.475,16.559-76.024
				c0-7.818-0.509-15.065-1.43-21.835c16.972,30.257,26.697,64.963,26.697,101.863C472.192,332.572,428.619,400.936,363.814,437.677
				z"/>
		</g>
	</g>
</g>
<g>
</g>
<g>
</g>
<g>
</g>
<g>
</g>
<g>
</g>
<g>
</g>
<g>
</g>
<g>
</g>
<g>
</g>
<g>
</g>
<g>
</g>
<g>
</g>
<g>
</g>
<g>
</g>
<g>
</g>
</svg>
