<?xml version="1.0" encoding="iso-8859-1"?>
<!-- Generator: Adobe Illustrator 19.0.0, SVG Export Plug-In . SVG Version: 6.00 Build 0)  -->
<svg version="1.1" id="Capa_1" xmlns="http://www.w3.org/2000/svg" xmlns:xlink="http://www.w3.org/1999/xlink" x="0px" y="0px"
	 viewBox="0 0 508.52 508.52" style="enable-background:new 0 0 508.52 508.52;" xml:space="preserve">
<g>
	<g>
		<g>
			<g>
				<path d="M396.709,317.825l-12.046-31.782H123.793l-12.046,31.782l-48.182,127.13h381.39L396.709,317.825z
					 M145.786,317.825h216.979l36.168,95.347H109.618L145.786,317.825z"/>
				<path d="M360.604,222.477l-12.046-31.782L283.945,20.309C279.177,8.073,267.386,0,254.26,0
					c-13.126,0-24.917,8.073-29.653,20.309l-64.614,170.386l-12.046,31.782h178.649H360.604z M194,190.695l60.26-158.912
					l60.26,158.912H194z"/>
				<path d="M492.374,476.737H16.146C7.215,476.737,0,483.475,0,492.374c0,8.867,7.215,16.146,16.146,16.146
					h476.229c8.931,0,16.145-7.215,16.145-16.146S501.305,476.737,492.374,476.737z"/>
			</g>
		</g>
	</g>
</g>
<g>
</g>
<g>
</g>
<g>
</g>
<g>
</g>
<g>
</g>
<g>
</g>
<g>
</g>
<g>
</g>
<g>
</g>
<g>
</g>
<g>
</g>
<g>
</g>
<g>
</g>
<g>
</g>
<g>
</g>
</svg>
