<?xml version="1.0" encoding="iso-8859-1"?>
<!-- Generator: Adobe Illustrator 19.0.0, SVG Export Plug-In . SVG Version: 6.00 Build 0)  -->
<svg version="1.1" id="Capa_1" xmlns="http://www.w3.org/2000/svg" xmlns:xlink="http://www.w3.org/1999/xlink" x="0px" y="0px"
	 viewBox="0 0 508.52 508.52" style="enable-background:new 0 0 508.52 508.52;" xml:space="preserve">
<g>
	<g>
		<g>
			<path d="M413.172,381.39c3.75,0,7.437,0.795,11.06,2.161c4.163,1.557,8.073,3.782,11.41,7.151
				l63.342,63.342c5.943-12.459,9.535-26.189,9.535-40.872c0-50.471-39.283-91.343-88.927-94.712l-6.42-0.636
				c-11.632,0-22.661,2.384-32.958,6.198L184.497,128.306c3.814-10.298,6.198-21.326,6.198-32.958l-0.636-6.42
				C186.69,39.315,145.818,0,95.347,0C80.664,0,66.902,3.591,54.475,9.535l63.342,63.342c3.337,3.337,5.625,7.278,7.151,11.442
				c4.164,11.283,1.907,24.409-7.151,33.499c-6.198,6.198-14.334,9.312-22.47,9.312c-3.75,0-7.469-0.826-11.029-2.161
				c-4.164-1.557-8.105-3.814-11.442-7.151L9.535,54.475C3.591,66.902,0,80.664,0,95.347c0,50.471,39.315,91.343,88.927,94.712
				l6.42,0.636c11.632,0,22.661-2.384,32.958-6.198l195.717,195.717c-3.814,10.298-6.198,21.326-6.198,32.958l0.636,6.42
				c3.369,49.644,44.273,88.927,94.712,88.927c14.684,0,28.445-3.591,40.872-9.535l-63.342-63.342
				c-3.337-3.337-5.625-7.278-7.151-11.41c-4.163-11.251-1.971-24.441,7.151-33.531C396.9,384.504,405.036,381.39,413.172,381.39z"
				/>
		</g>
	</g>
</g>
<g>
</g>
<g>
</g>
<g>
</g>
<g>
</g>
<g>
</g>
<g>
</g>
<g>
</g>
<g>
</g>
<g>
</g>
<g>
</g>
<g>
</g>
<g>
</g>
<g>
</g>
<g>
</g>
<g>
</g>
</svg>
