<?xml version="1.0" encoding="iso-8859-1"?>
<!-- Generator: Adobe Illustrator 19.0.0, SVG Export Plug-In . SVG Version: 6.00 Build 0)  -->
<svg version="1.1" id="Capa_1" xmlns="http://www.w3.org/2000/svg" xmlns:xlink="http://www.w3.org/1999/xlink" x="0px" y="0px"
	 viewBox="0 0 508.464 508.464" style="enable-background:new 0 0 508.464 508.464;" xml:space="preserve">
<g>
	<g>
		<g>
			<g>
				<path d="M301.91,0.016c-114.099,0-206.586,92.487-206.586,206.586c0,49.104,17.194,94.108,45.767,129.577
					L6.46,470.778c-8.613,8.613-8.613,22.597,0,31.21c8.613,8.613,22.597,8.613,31.179,0l134.631-134.631
					c35.501,28.604,80.505,45.799,129.609,45.799c114.099,0,206.586-92.487,206.586-206.586S416.009,0.016,301.91,0.016z
					 M301.91,381.406c-96.396,0-174.804-78.407-174.804-174.804S205.513,31.798,301.91,31.798s174.804,78.407,174.804,174.804
					S398.306,381.406,301.91,381.406z"/>
				<path d="M397.257,190.711H206.562c-8.74,0-15.891,7.119-15.891,15.891
					c0,8.772,7.151,15.891,15.891,15.891h190.695c8.772,0,15.891-7.119,15.891-15.891
					C413.148,197.83,406.029,190.711,397.257,190.711z"/>
			</g>
		</g>
	</g>
</g>
<g>
</g>
<g>
</g>
<g>
</g>
<g>
</g>
<g>
</g>
<g>
</g>
<g>
</g>
<g>
</g>
<g>
</g>
<g>
</g>
<g>
</g>
<g>
</g>
<g>
</g>
<g>
</g>
<g>
</g>
</svg>
