<?xml version="1.0" encoding="utf-8"?>
<!-- Generator: Adobe Illustrator 24.3.0, SVG Export Plug-In . SVG Version: 6.00 Build 0)  -->
<svg version="1.1" id="Ebene_1" xmlns="http://www.w3.org/2000/svg" xmlns:xlink="http://www.w3.org/1999/xlink" x="0px" y="0px"
	 viewBox="0 0 44 44" style="enable-background:new 0 0 44 44;" xml:space="preserve">
<style type="text/css">
	.st0{fill:#8FD3F4;}
	.st1{fill:none;stroke:#FFFFFF;stroke-width:1.3332;stroke-linecap:round;stroke-linejoin:round;stroke-miterlimit:7.3333;}
</style>
<circle class="st0" cx="22" cy="22" r="16.5"/>
<path class="st1" d="M20.1,19.5c-1.4-1.4-3.6-1.4-5,0c-1.4,1.4-1.4,3.6,0,5s3.6,1.4,5,0c0,0,0,0,0,0c0.8-0.7,1.4-1.6,1.9-2.5
	s1.1-1.8,1.9-2.5c1.4-1.4,3.6-1.4,5,0c1.4,1.4,1.4,3.6,0,5c-1.4,1.4-3.6,1.4-5,0c0,0,0,0,0,0c-0.8-0.7-1.4-1.6-1.9-2.5
	S20.9,20.2,20.1,19.5"/>
</svg>
