<?xml version="1.0" encoding="utf-8"?>
<!-- Generator: Adobe Illustrator 25.0.0, SVG Export Plug-In . SVG Version: 6.00 Build 0)  -->
<svg version="1.1" id="Ebene_1" xmlns="http://www.w3.org/2000/svg" xmlns:xlink="http://www.w3.org/1999/xlink" x="0px" y="0px"
	 viewBox="0 0 44 44" style="enable-background:new 0 0 44 44;" xml:space="preserve">
<style type="text/css">
	.st0{fill:#8FD3F4;}
	.st1{fill:none;stroke:#FFFFFF;stroke-width:1.5;stroke-linecap:round;stroke-linejoin:round;stroke-miterlimit:7.3333;}
</style>
<circle class="st0" cx="22" cy="22" r="16.5"/>
<g id="bilder">
	<line class="st1" x1="25" y1="18" x2="25" y2="18"/>
	<path class="st1" d="M17,14h10c1.7,0,3,1.3,3,3v10c0,1.7-1.3,3-3,3H17c-1.7,0-3-1.3-3-3V17C14,15.3,15.3,14,17,14z"/>
	<path class="st1" d="M14,25l4-4c0.9-0.9,2.1-0.9,3,0l5,5"/>
	<path class="st1" d="M24,24l1-1c0.9-0.9,2.1-0.9,3,0l2,2"/>
</g>
</svg>
