<?xml version="1.0" encoding="utf-8"?>
<!-- Generator: Adobe Illustrator 24.3.0, SVG Export Plug-In . SVG Version: 6.00 Build 0)  -->
<svg version="1.1" id="Ebene_1" xmlns="http://www.w3.org/2000/svg" xmlns:xlink="http://www.w3.org/1999/xlink" x="0px" y="0px"
	 viewBox="0 0 44 44" style="enable-background:new 0 0 44 44;" xml:space="preserve">
<style type="text/css">
	.st0{fill:#8FD3F4;}
	.st1{fill:#FFFFFF;}
</style>
<circle class="st0" cx="22" cy="22" r="16.5"/>
<g>
	<path class="st1" d="M25.8,29c-0.7,0.5-2,1-3.5,1c-1.9,0-3.6-0.7-4.8-2.1c-0.9-1-1.5-2.4-1.7-4.1h-1.5v-1.2h1.4c0-0.1,0-0.2,0-0.4
		c0-0.4,0-0.7,0-1.1h-1.4V20h1.6c0.3-1.7,1-3,2-4c1.2-1.3,2.8-2,4.7-2c1.4,0,2.5,0.4,3.2,0.8l-0.5,1.6c-0.6-0.4-1.6-0.7-2.7-0.7
		c-1.3,0-2.3,0.5-3.1,1.3c-0.7,0.7-1.2,1.8-1.4,3h6.6v1.2h-6.9c0,0.3,0,0.7,0,1c0,0.1,0,0.3,0,0.4h6.9v1.2h-6.7
		c0.2,1.4,0.7,2.4,1.3,3.1c0.9,0.9,2.1,1.4,3.4,1.4c1.3,0,2.4-0.5,2.9-0.8L25.8,29z"/>
</g>
</svg>
