<?xml version="1.0" encoding="utf-8"?>
<!-- Generator: Adobe Illustrator 24.3.0, SVG Export Plug-In . SVG Version: 6.00 Build 0)  -->
<svg version="1.1" id="Ebene_1" xmlns="http://www.w3.org/2000/svg" xmlns:xlink="http://www.w3.org/1999/xlink" x="0px" y="0px"
	 viewBox="0 0 44 44" style="enable-background:new 0 0 44 44;" xml:space="preserve">
<style type="text/css">
	.st0{fill:#8FD3F4;}
	.st1{fill:#FFFFFF;}
</style>
<circle class="st0" cx="22" cy="22" r="16.5"/>
<g>
	<path class="st1" d="M15.9,25.5c-0.9-0.2-1.7-0.6-2.4-1.3c-1.4-1.4-1.8-3.1-1.3-5.1c0.6-2,1.9-3.1,3.8-3.5c0.6-0.1,1.2,0,1.8,0.2
		c0.2,0.1,0.3,0.1,0.5-0.1c2.2-2.4,5.3-2.4,7.5,0c0.1,0.1,0.2,0.2,0.4,0.2c2.5-0.8,5.1,0.8,5.7,3.5c0.6,2.6-0.9,5.2-3.3,5.9
		c-0.1,0-0.3,0.1-0.4,0.1c0,1.1,0,2.3,0,3.4s0,0,0,1.1c-4.1,0-8.2,0-12.3,0C15.9,27.8,15.9,27.8,15.9,25.5z M18.1,23.6
		c0.2,0.5,0.5,1,0.7,1.5c-0.4,0.1-0.7,0.3-1.1,0.4c-0.2,0.1-0.3,0.1-0.3,0.4c0,1.5,0,0.6,0,2.1c0,0.1,0,0.2,0,0.3c0.1,0,0.1,0,0.2,0
		c2.9,0,5.8,0,8.7,0c0.3,0,0.3-0.1,0.3-0.4c0-1.4,0-0.6,0-2c0-0.3-0.1-0.4-0.4-0.5c-0.9-0.2-1.7-0.7-2.3-1.5
		c0.4-0.4,0.8-0.7,1.1-1.1l0,0c0.1,0.1,0.1,0.1,0.2,0.2c0.8,0.8,1.8,1.1,2.8,0.8c1.8-0.5,2.8-2.4,2.2-4.3c-0.6-1.8-2.4-2.7-4.1-2
		c-0.7,0.3-0.7,0.3-1.1-0.3c-1.5-2.1-4.5-2.2-6-0.1c-0.2,0.2-0.3,0.6-0.5,0.6c-0.2,0.1-0.5-0.2-0.7-0.3c-1.2-0.5-2.5-0.2-3.4,0.8
		s-1.1,2.5-0.6,3.7C14.4,23.5,16.2,24.6,18.1,23.6z"/>
</g>
</svg>
