<?xml version="1.0" encoding="utf-8"?>
<!-- Generator: Adobe Illustrator 25.0.0, SVG Export Plug-In . SVG Version: 6.00 Build 0)  -->
<svg version="1.1" id="Ebene_1" xmlns="http://www.w3.org/2000/svg" xmlns:xlink="http://www.w3.org/1999/xlink" x="0px" y="0px"
	 viewBox="0 0 44 44" style="enable-background:new 0 0 44 44;" xml:space="preserve">
<style type="text/css">
	.st0{fill:#8FD3F4;}
	.st1{fill:none;stroke:#FFFFFF;stroke-width:1.4934;stroke-linecap:round;stroke-linejoin:round;stroke-miterlimit:7.3333;}
</style>
<circle class="st0" cx="22" cy="22" r="16.5"/>
<path class="st1" d="M20,24c1.3,1.4,3.6,1.4,4.9,0.1c0,0,0,0,0.1-0.1l4-4c1.4-1.4,1.4-3.6,0-5c-1.4-1.4-3.6-1.4-5,0l-0.5,0.5"/>
<path class="st1" d="M24,20c-1.3-1.4-3.6-1.4-4.9-0.1c0,0,0,0-0.1,0.1l-4,4c-1.4,1.4-1.4,3.6,0,5c1.4,1.4,3.6,1.4,5,0l0.5-0.5"/>
</svg>
