<svg id="Ebene_1" data-name="Ebene 1" xmlns="http://www.w3.org/2000/svg" viewBox="0 0 44 44"><defs><style>.cls-1{fill:#ff8c2b;}.cls-2{fill:none;stroke:#fff;stroke-linecap:round;stroke-linejoin:round;stroke-width:1.69px;}</style></defs><circle class="cls-1" cx="22" cy="22" r="16.5"/><g id="bilder"><line class="cls-2" x1="25.38" y1="17.5" x2="25.38" y2="17.5"/><path class="cls-2" d="M16.38,13H27.62A3.31,3.31,0,0,1,31,16.38V27.62A3.31,3.31,0,0,1,27.62,31H16.38A3.31,3.31,0,0,1,13,27.62V16.38A3.31,3.31,0,0,1,16.38,13Z"/><path class="cls-2" d="M13,25.38l4.5-4.5a2.25,2.25,0,0,1,3.38,0L26.5,26.5"/><path class="cls-2" d="M24.25,24.25l1.13-1.13a2.25,2.25,0,0,1,3.37,0L31,25.38"/></g></svg>