<svg id="Ebene_1" data-name="Ebene 1" xmlns="http://www.w3.org/2000/svg" viewBox="0 0 44 44"><defs><style>.cls-1{fill:#8fd3f4;}.cls-2{fill:#fff;}</style></defs><circle class="cls-1" cx="22" cy="22" r="16.5"/><path class="cls-2" d="M22,27.29a5,5,0,0,1-2-.38,3.47,3.47,0,0,1-1.38-1.07,2.92,2.92,0,0,1-.54-1.59h1.7a1.42,1.42,0,0,0,.33.85,2,2,0,0,0,.78.56,2.94,2.94,0,0,0,1.09.19,2.63,2.63,0,0,0,1.15-.23A1.94,1.94,0,0,0,24,25a1.6,1.6,0,0,0,.28-.94,1.71,1.71,0,0,0-.28-1,1.93,1.93,0,0,0-.83-.67,3.23,3.23,0,0,0-1.31-.24h-.93V20.8h.93a2.45,2.45,0,0,0,1.08-.23,1.74,1.74,0,0,0,.77-2.44,1.64,1.64,0,0,0-.65-.6,2.15,2.15,0,0,0-1-.21,2.59,2.59,0,0,0-1,.19,2,2,0,0,0-.76.57A1.44,1.44,0,0,0,20,19H18.34a2.77,2.77,0,0,1,.53-1.58,3.44,3.44,0,0,1,1.34-1.06,4.32,4.32,0,0,1,1.85-.39,3.82,3.82,0,0,1,1.84.42,3,3,0,0,1,1.2,1.1,2.78,2.78,0,0,1,.42,1.5A2.44,2.44,0,0,1,25,20.52a2.49,2.49,0,0,1-1.39.86v.09a2.63,2.63,0,0,1,1.71.88,2.56,2.56,0,0,1,.61,1.75,2.77,2.77,0,0,1-.51,1.64A3.5,3.5,0,0,1,24,26.88,4.78,4.78,0,0,1,22,27.29Z"/></svg>