<svg id="Ebene_1" data-name="Ebene 1" xmlns="http://www.w3.org/2000/svg" viewBox="0 0 44 44"><defs><style>.cls-1{fill:#8fd3f4;}.cls-2{fill:#fff;}</style></defs><circle class="cls-1" cx="22" cy="22" r="16.5"/><path class="cls-2" d="M18.4,27.14V25.93l3.74-3.88q.6-.63,1-1.11a3.88,3.88,0,0,0,.59-.91,2.24,2.24,0,0,0,.2-.92,1.73,1.73,0,0,0-.26-.95,1.71,1.71,0,0,0-.71-.62,2.23,2.23,0,0,0-1-.22,2.16,2.16,0,0,0-1,.24,1.67,1.67,0,0,0-.68.69,2.12,2.12,0,0,0-.24,1H18.39a3.28,3.28,0,0,1,.46-1.76,3.17,3.17,0,0,1,1.28-1.18A3.93,3.93,0,0,1,22,15.92a3.87,3.87,0,0,1,1.84.42,3.07,3.07,0,0,1,1.24,1.12,2.93,2.93,0,0,1,.45,1.6,3.21,3.21,0,0,1-.23,1.21,5.48,5.48,0,0,1-.79,1.31,22.69,22.69,0,0,1-1.58,1.74l-2.2,2.3v.09h5v1.43Z"/></svg>