<?xml version="1.0" encoding="utf-8"?>
<!-- Generator: Adobe Illustrator 25.0.0, SVG Export Plug-In . SVG Version: 6.00 Build 0)  -->
<svg version="1.1" id="Ebene_1" xmlns="http://www.w3.org/2000/svg" xmlns:xlink="http://www.w3.org/1999/xlink" x="0px" y="0px"
	 viewBox="0 0 44 44" style="enable-background:new 0 0 44 44;" xml:space="preserve">
<style type="text/css">
	.st0{fill:#8FD3F4;}
	.st1{fill:none;stroke:#FFFFFF;stroke-width:1.25;stroke-linecap:round;stroke-linejoin:round;stroke-miterlimit:7.3333;}
</style>
<circle class="st0" cx="22" cy="22" r="16.5"/>
<path class="st1" d="M15,15h14c1.1,0,2,0.9,2,2v10c0,1.1-0.9,2-2,2H15c-1.1,0-2-0.9-2-2V17C13,15.9,13.9,15,15,15z"/>
<path class="st1" d="M17,25v-4c0-1.1,0.9-2,2-2s2,0.9,2,2v4"/>
<line class="st1" x1="17" y1="23" x2="21" y2="23"/>
<path class="st1" d="M27,19v6h-1.5c-0.8,0-1.5-0.7-1.5-1.5s0.7-1.5,1.5-1.5s1.5,0.7,1.5,1.5"/>
</svg>
