<?xml version="1.0" encoding="UTF-8"?>
<svg xmlns="http://www.w3.org/2000/svg" xmlns:xlink="http://www.w3.org/1999/xlink" viewBox="0 0 24 24" version="1.1" width="96px" height="96px">
<g id="surface1">
<path style=" " d="M 6 2 C 4.898438 2 4 2.898438 4 4 L 4 15 L 20 15 L 20 4 C 20 2.898438 19.101563 2 18 2 Z M 12 4 C 13.898438 4 15.40625 5.300781 15.90625 7 C 17.105469 7.199219 18 8.199219 18 9.5 C 18 10.898438 16.898438 12 15.5 12 L 9 12 C 7.300781 12 6 10.699219 6 9 C 6 7.5 7.101563 6.300781 8.5 6 C 9.199219 4.800781 10.5 4 12 4 Z M 4 16 L 4 20 C 4 21.101563 4.898438 22 6 22 L 18 22 C 19.101563 22 20 21.101563 20 20 L 20 16 Z M 7 18 C 7.601563 18 8 18.398438 8 19 C 8 19.601563 7.601563 20 7 20 C 6.398438 20 6 19.601563 6 19 C 6 18.398438 6.398438 18 7 18 Z "/>
</g>
</svg>
